<?xml version="1.0" encoding="utf-8"?>
<!-- Generator: Adobe Illustrator 19.1.0, SVG Export Plug-In . SVG Version: 6.00 Build 0)  -->
<!DOCTYPE svg PUBLIC "-//W3C//DTD SVG 1.1//EN" "http://www.w3.org/Graphics/SVG/1.1/DTD/svg11.dtd">
<svg version="1.1" id="Layer_1" xmlns="http://www.w3.org/2000/svg" xmlns:xlink="http://www.w3.org/1999/xlink" x="0px" y="0px"
	 viewBox="0 0 16 16" style="enable-background:new 0 0 16 16;" xml:space="preserve">
<g>
	<path d="M0,0v16h16V0H0z M11.8,6.1l-4,5c-0.2,0.2-0.5,0.4-0.8,0.4c0,0,0.1,0,0,0c0,0,0,0,0,0c-0.2,0-0.5-0.1-0.7-0.3l-2-2
		C4.1,9,4,8.8,4,8.5C4,8.3,4.1,8,4.3,7.8S4.7,7.5,5,7.5s0.5,0.1,0.7,0.3L6.9,9l3.3-4.1c0.2-0.3,0.5-0.4,0.8-0.4
		c0.2,0,0.4,0.1,0.6,0.2C11.9,4.9,12,5.2,12,5.5C12,5.7,11.9,5.9,11.8,6.1z"/>
</g>
</svg>
