<?xml version="1.0" encoding="utf-8"?>
<!-- Generator: Adobe Illustrator 19.1.0, SVG Export Plug-In . SVG Version: 6.00 Build 0)  -->
<!DOCTYPE svg PUBLIC "-//W3C//DTD SVG 1.1//EN" "http://www.w3.org/Graphics/SVG/1.1/DTD/svg11.dtd">
<svg version="1.1" id="Layer_1" xmlns="http://www.w3.org/2000/svg" xmlns:xlink="http://www.w3.org/1999/xlink" x="0px" y="0px"
	 viewBox="0 0 16 16" style="enable-background:new 0 0 16 16;" xml:space="preserve">
<style type="text/css">
	.st0{fill:#757575;}
</style>
<g>
	<path class="st0" d="M16,8c0,4.4-3.6,8-8,8s-8-3.6-8-8s3.6-8,8-8S16,3.6,16,8z M9.5,2.9c0-0.1,0-0.1-0.1-0.2
		C9.3,2.7,9.2,2.7,9.1,2.7H6.9c-0.1,0-0.2,0-0.3,0.1c-0.1,0-0.1,0.1-0.1,0.2l0.2,6.5c0,0.1,0.2,0.3,0.4,0.3H9c0.2,0,0.3-0.1,0.4-0.3
		L9.5,2.9z M9.3,11c0-0.2-0.1-0.3-0.3-0.3H7c-0.2,0-0.3,0.2-0.3,0.3v2c0,0.2,0.2,0.3,0.3,0.3h2c0.2,0,0.3-0.2,0.3-0.3V11z"/>
</g>
</svg>
