<?xml version="1.0" encoding="utf-8"?>
<!-- Generator: Adobe Illustrator 19.1.0, SVG Export Plug-In . SVG Version: 6.00 Build 0)  -->
<!DOCTYPE svg PUBLIC "-//W3C//DTD SVG 1.1//EN" "http://www.w3.org/Graphics/SVG/1.1/DTD/svg11.dtd">
<svg version="1.1" id="Layer_1" xmlns="http://www.w3.org/2000/svg" xmlns:xlink="http://www.w3.org/1999/xlink" x="0px" y="0px"
	 viewBox="0 0 16 16" style="enable-background:new 0 0 16 16;" xml:space="preserve">
<style type="text/css">
	.st0{fill:#757575;}
</style>
<g>
	<path class="st0" d="M8,16c-4.4,0-8-3.6-8-8s3.6-8,8-8s8,3.6,8,8S12.4,16,8,16z M8.2,2.7c-1.7,0-3,0.7-3.9,2.2
		C4.2,5,4.3,5.2,4.4,5.3l1.4,1c0.1,0,0.1,0.1,0.2,0.1c0.1,0,0.2,0,0.3-0.1c0.5-0.6,0.7-0.8,0.9-1c0.2-0.1,0.5-0.2,0.9-0.2
		c0.7,0,1.3,0.4,1.3,0.9c0,0.5-0.3,0.8-0.9,1.1C7.7,7.4,6.7,8.3,6.7,9.3v0.4C6.7,9.9,6.8,10,7,10h2c0.2,0,0.3-0.1,0.3-0.3
		c0-0.2,0.3-0.8,0.8-1C10.9,8.2,12,7.6,12,6C12,4.1,10,2.7,8.2,2.7z M9.3,11c0-0.2-0.1-0.3-0.3-0.3H7c-0.2,0-0.3,0.1-0.3,0.3v2
		c0,0.2,0.1,0.3,0.3,0.3h2c0.2,0,0.3-0.1,0.3-0.3V11z"/>
</g>
</svg>
