<?xml version="1.0" encoding="utf-8"?>
<!-- Generator: Adobe Illustrator 19.1.0, SVG Export Plug-In . SVG Version: 6.00 Build 0)  -->
<!DOCTYPE svg PUBLIC "-//W3C//DTD SVG 1.1//EN" "http://www.w3.org/Graphics/SVG/1.1/DTD/svg11.dtd">
<svg version="1.1" id="Layer_1" xmlns="http://www.w3.org/2000/svg" xmlns:xlink="http://www.w3.org/1999/xlink" x="0px" y="0px"
	 viewBox="0 0 16 16" style="enable-background:new 0 0 16 16;" xml:space="preserve">
<style type="text/css">
	.st0{fill:#757575;}
</style>
<path class="st0" d="M15.7,15L15,15.7c-0.2,0.2-0.4,0.3-0.7,0.3c-0.3,0-0.5-0.1-0.7-0.3L9,11.2C8.2,11.7,7.1,12,6,12
	c-3.3,0-6-2.7-6-6s2.7-6,6-6s6,2.7,6,6c0,1.1-0.3,2.2-0.8,3l4.5,4.5C16.1,14,16.1,14.6,15.7,15z M6,10c2.2,0,4-1.8,4-4S8.2,2,6,2
	C3.8,2,2,3.8,2,6S3.8,10,6,10z"/>
</svg>
