<?xml version="1.0" encoding="utf-8"?>
<!-- Generator: Adobe Illustrator 19.2.1, SVG Export Plug-In . SVG Version: 6.00 Build 0)  -->
<svg version="1.1" id="Layer_1" xmlns="http://www.w3.org/2000/svg" xmlns:xlink="http://www.w3.org/1999/xlink" x="0px" y="0px"
	 viewBox="0 0 407.5 109.3" style="enable-background:new 0 0 407.5 109.3;" xml:space="preserve">
<style type="text/css">
	.st0{fill:#333333;}
	.st1{fill:#3475B9;}
	.st2{font-family:'Lato-Bold';}
	.st3{font-size:61px;}
</style>
<g>
	<g>
		<path class="st0" d="M142,69.3c0.2,0,0.4,0.1,0.5,0.2l1.2,1.3c-0.9,1-1.9,1.8-3,2.6c-1.1,0.8-2.2,1.4-3.5,2
			c-1.3,0.6-2.7,1-4.2,1.3c-1.5,0.3-3.2,0.5-5,0.5c-3,0-5.8-0.5-8.4-1.6c-2.5-1.1-4.7-2.6-6.5-4.6c-1.8-2-3.2-4.3-4.2-7.1
			c-1-2.8-1.5-5.9-1.5-9.3c0-3.3,0.5-6.4,1.6-9.2c1-2.8,2.5-5.1,4.4-7.1c1.9-2,4.1-3.5,6.7-4.6c2.6-1.1,5.5-1.6,8.6-1.6
			c3,0,5.7,0.5,8,1.4c2.3,0.9,4.4,2.3,6.3,4l-1,1.4c-0.2,0.3-0.4,0.4-0.8,0.4c-0.2,0-0.7-0.2-1.2-0.7c-0.6-0.5-1.3-1-2.3-1.5
			c-1-0.6-2.2-1.1-3.7-1.5c-1.5-0.5-3.3-0.7-5.3-0.7c-2.7,0-5.1,0.5-7.3,1.4c-2.2,0.9-4.1,2.2-5.7,3.9c-1.6,1.7-2.8,3.8-3.7,6.2
			c-0.9,2.5-1.3,5.2-1.3,8.3c0,3.1,0.5,5.9,1.4,8.4c0.9,2.5,2.1,4.5,3.7,6.2c1.6,1.7,3.4,3,5.6,3.9c2.1,0.9,4.5,1.4,6.9,1.4
			c1.6,0,3-0.1,4.2-0.3c1.2-0.2,2.4-0.5,3.4-0.9c1-0.4,2-0.9,2.9-1.5c0.9-0.6,1.8-1.3,2.6-2.1c0.1-0.1,0.2-0.2,0.3-0.2
			C141.8,69.3,141.9,69.3,142,69.3"/>
		<path class="st0" d="M185.7,76.7h-2.5c-0.3,0-0.5-0.1-0.7-0.2c-0.2-0.2-0.3-0.4-0.4-0.6L177,63h-21.6l-5.2,12.8
			c-0.1,0.2-0.2,0.4-0.4,0.6c-0.2,0.2-0.5,0.2-0.7,0.2h-2.4l18-44.1h3.1L185.7,76.7z M156.3,60.7H176l-9-22.3
			c-0.3-0.7-0.6-1.6-0.9-2.6c-0.1,0.5-0.3,1-0.4,1.4c-0.1,0.5-0.3,0.9-0.4,1.2L156.3,60.7z"/>
		<path class="st0" d="M196.2,56.8v19.9H193V32.6h11.2c5.1,0,8.8,1,11.4,2.9c2.5,2,3.8,4.8,3.8,8.6c0,1.7-0.3,3.2-0.9,4.6
			c-0.6,1.4-1.4,2.6-2.5,3.7c-1.1,1-2.4,1.9-3.9,2.6c-1.5,0.7-3.3,1.1-5.2,1.3c0.5,0.3,0.9,0.7,1.3,1.2l15.1,19.1h-2.7
			c-0.4,0-0.7-0.1-0.9-0.2c-0.2-0.1-0.5-0.3-0.7-0.6L205,58c-0.2-0.2-0.3-0.4-0.5-0.6c-0.2-0.2-0.4-0.3-0.6-0.4
			c-0.2-0.1-0.5-0.2-0.8-0.2c-0.3,0-0.7-0.1-1.1-0.1H196.2z M196.2,54.4h7.6c1.9,0,3.7-0.2,5.2-0.7c1.5-0.5,2.9-1.1,3.9-2
			c1.1-0.9,1.9-1.9,2.4-3.1c0.6-1.2,0.8-2.6,0.8-4.1c0-3.1-1-5.5-3.1-7c-2-1.5-5-2.3-8.9-2.3h-8.1V54.4z"/>
		<rect x="230.8" y="32.6" class="st0" width="3.2" height="44.1"/>
		<path class="st0" d="M249.2,32.7c0.2,0.1,0.3,0.2,0.5,0.5l28.5,38.2c-0.1-0.6-0.1-1.2-0.1-1.8v-37h3.2v44.1h-1.9
			c-0.3,0-0.5,0-0.7-0.1c-0.2-0.1-0.3-0.3-0.5-0.5l-28.6-38.2c0.1,0.6,0.1,1.2,0.1,1.7v37.1h-3.2V32.6h2
			C248.8,32.6,249.1,32.6,249.2,32.7"/>
		<path class="st0" d="M327.4,76.7h-2.5c-0.3,0-0.5-0.1-0.7-0.2c-0.2-0.2-0.3-0.4-0.4-0.6L318.6,63H297l-5.2,12.8
			c-0.1,0.2-0.2,0.4-0.4,0.6c-0.2,0.2-0.5,0.2-0.7,0.2h-2.4l18-44.1h3.1L327.4,76.7z M297.9,60.7h19.7l-9-22.3
			c-0.3-0.7-0.6-1.6-0.9-2.6c-0.1,0.5-0.3,1-0.4,1.4c-0.1,0.5-0.3,0.9-0.4,1.2L297.9,60.7z"/>
	</g>
	<path class="st0" d="M321.1,32.6V33h-1.5v3.9h-0.5V33h-1.5v-0.4H321.1z M324.4,35.6c0-0.1,0.1-0.2,0.1-0.2l1.6-2.7
		c0,0,0-0.1,0.1-0.1c0,0,0.1,0,0.1,0h0.4v4.3h-0.5v-3.3l0-0.3l-1.6,2.8c0,0.1-0.1,0.1-0.2,0.1h-0.1c-0.1,0-0.1,0-0.2-0.1l-1.7-2.8
		l0,0.3v3.3h-0.5v-4.3h0.4c0,0,0.1,0,0.1,0c0,0,0.1,0,0.1,0.1l1.6,2.7L324.4,35.6z"/>
</g>
<g>
	<polygon class="st1" points="24.1,66.7 24.1,42.6 0,28.7 0,80.6 	"/>
	<polygon class="st1" points="70.7,69.5 49.8,81.5 49.8,109.3 94.8,83.4 	"/>
	<polygon class="st1" points="1.6,83.4 46.6,109.3 46.6,81.5 25.7,69.5 	"/>
	<polygon class="st1" points="70.7,39.8 49.8,27.8 49.8,0 94.8,25.9 	"/>
	<polygon class="st1" points="1.6,25.9 46.6,0 46.6,27.8 25.7,39.8 	"/>
</g>
<text transform="matrix(1 0 0 1 344.1296 76.6948)" class="st1 st2 st3">UI</text>
</svg>
