<?xml version="1.0" encoding="utf-8"?>
<!-- Generator: Adobe Illustrator 19.2.1, SVG Export Plug-In . SVG Version: 6.00 Build 0)  -->
<svg version="1.1" id="Layer_1" xmlns="http://www.w3.org/2000/svg" xmlns:xlink="http://www.w3.org/1999/xlink" x="0px" y="0px"
	 viewBox="0 0 99.1 99.1" style="enable-background:new 0 0 99.1 99.1;" xml:space="preserve">
<style type="text/css">
	.st0{fill:#FAFBFB;}
	.st1{fill:none;stroke:#74AD42;stroke-width:18.341;stroke-miterlimit:10;}
	.st2{fill:none;stroke:#B954A0;stroke-width:1.2678;stroke-linejoin:round;stroke-miterlimit:10;}
	.st3{fill:none;stroke:#B954A0;stroke-miterlimit:10;}
	.st4{fill:#B954A0;}
	.st5{fill:#75AD42;}
	.st6{opacity:0.87;}
	.st7{fill:#4DAF50;}
	.st8{fill:#3073BA;}
	.st9{fill:#FFFFFF;}
	.st10{fill:#EF4538;}
	.st11{fill:#F47D20;}
	.st12{fill:#0DBCD4;}
	.st13{fill:#333333;}
	.st14{fill:#404A9F;}
	.st15{fill:#FFFFFF;stroke:#3173BA;stroke-miterlimit:10;}
	.st16{fill:none;stroke:#EF4538;stroke-miterlimit:10;}
	.st17{fill:#6D6E71;}
	.st18{font-family:'Roboto-Medium';}
	.st19{font-size:4.1776px;}
	.st20{fill:#808285;}
	.st21{fill:#58595B;}
</style>
<rect x="-0.3" y="-203.3" class="st0" width="99.7" height="99.7"/>
<rect x="-222.9" y="205.6" class="st0" width="162" height="162"/>
<path class="st1" d="M-175.9,336.1v-46.3c0-20.5,16.6-37.1,37.1-37.1h41.3"/>
<circle class="st2" cx="-142.2" cy="286.6" r="41.8"/>
<g>
	<line class="st3" x1="-183.9" y1="286.3" x2="-141.9" y2="286.3"/>
</g>
<text transform="matrix(1 0 0 1 -170.4902 283.0547)" class="st4" style="font-family:'Roboto-Regular'; font-size:10.2452px;">2px</text>
<circle class="st4" cx="-142" cy="286.3" r="1.8"/>
<circle class="st5" cx="-31.9" cy="363.8" r="0"/>
<rect x="-31.4" y="205.6" class="st0" width="162" height="162"/>
<rect x="-223.3" y="409.6" class="st0" width="162" height="162"/>
<circle class="st5" cx="-142.3" cy="567.8" r="0"/>
<g class="st6">
	<g>
		<path class="st7" d="M12.6,257.4H7.6v8.5H4.8v-21h6.9c2.4,0,4.2,0.5,5.5,1.6c1.3,1.1,1.9,2.6,1.9,4.7c0,1.3-0.4,2.4-1.1,3.4
			c-0.7,1-1.7,1.7-2.9,2.2l4.9,8.9v0.2h-3L12.6,257.4z M7.6,255.1h4.2c1.4,0,2.5-0.4,3.3-1.1c0.8-0.7,1.2-1.7,1.2-2.9
			c0-1.3-0.4-2.3-1.2-3c-0.8-0.7-1.9-1-3.3-1.1H7.6V255.1z"/>
		<path class="st7" d="M21.9,257.9c0-1.5,0.3-2.9,0.9-4.1c0.6-1.2,1.4-2.2,2.5-2.8c1.1-0.7,2.3-1,3.7-1c2.1,0,3.8,0.7,5.1,2.2
			s2,3.4,2,5.9v0.2c0,1.5-0.3,2.9-0.9,4.1c-0.6,1.2-1.4,2.1-2.5,2.8c-1.1,0.7-2.3,1-3.7,1c-2.1,0-3.8-0.7-5.1-2.2
			c-1.3-1.5-2-3.4-2-5.8V257.9z M24.6,258.2c0,1.7,0.4,3.1,1.2,4.2c0.8,1,1.9,1.6,3.2,1.6c1.4,0,2.4-0.5,3.2-1.6
			c0.8-1.1,1.2-2.5,1.2-4.5c0-1.7-0.4-3.1-1.2-4.2c-0.8-1.1-1.9-1.6-3.2-1.6c-1.3,0-2.4,0.5-3.2,1.6C25,254.8,24.6,256.3,24.6,258.2
			z"/>
		<path class="st7" d="M52.6,258.2c0,2.4-0.5,4.3-1.6,5.7c-1.1,1.4-2.6,2.2-4.4,2.2c-2,0-3.5-0.7-4.6-2.1l-0.1,1.8h-2.4v-22.1h2.7
			v8.3c1.1-1.3,2.6-2,4.5-2c1.9,0,3.4,0.7,4.5,2.1c1.1,1.4,1.6,3.4,1.6,5.9V258.2z M50,257.9c0-1.8-0.4-3.2-1.1-4.2
			c-0.7-1-1.7-1.5-3-1.5c-1.8,0-3,0.8-3.8,2.4v6.7c0.8,1.6,2.1,2.4,3.8,2.4c1.3,0,2.3-0.5,3-1.5C49.6,261.4,50,259.9,50,257.9z"/>
		<path class="st7" d="M55.3,257.9c0-1.5,0.3-2.9,0.9-4.1c0.6-1.2,1.4-2.2,2.5-2.8c1.1-0.7,2.3-1,3.7-1c2.1,0,3.8,0.7,5.2,2.2
			c1.3,1.5,2,3.4,2,5.9v0.2c0,1.5-0.3,2.9-0.9,4.1c-0.6,1.2-1.4,2.1-2.5,2.8c-1.1,0.7-2.3,1-3.7,1c-2.1,0-3.8-0.7-5.1-2.2
			c-1.3-1.5-2-3.4-2-5.8V257.9z M58,258.2c0,1.7,0.4,3.1,1.2,4.2s1.9,1.6,3.2,1.6c1.4,0,2.4-0.5,3.2-1.6c0.8-1.1,1.2-2.5,1.2-4.5
			c0-1.7-0.4-3.1-1.2-4.2c-0.8-1.1-1.9-1.6-3.2-1.6c-1.3,0-2.4,0.5-3.2,1.6S58,256.3,58,258.2z"/>
		<path class="st7" d="M76.4,246.5v3.8h2.9v2.1h-2.9v9.7c0,0.6,0.1,1.1,0.4,1.4c0.3,0.3,0.7,0.5,1.3,0.5c0.3,0,0.7-0.1,1.3-0.2v2.1
			c-0.7,0.2-1.4,0.3-2,0.3c-1.2,0-2.1-0.4-2.7-1.1c-0.6-0.7-0.9-1.7-0.9-3.1v-9.7h-2.8v-2.1h2.8v-3.8H76.4z"/>
		<path class="st7" d="M81.5,257.9c0-1.5,0.3-2.9,0.9-4.1c0.6-1.2,1.4-2.2,2.5-2.8c1.1-0.7,2.3-1,3.7-1c2.1,0,3.8,0.7,5.2,2.2
			c1.3,1.5,2,3.4,2,5.9v0.2c0,1.5-0.3,2.9-0.9,4.1c-0.6,1.2-1.4,2.1-2.5,2.8c-1.1,0.7-2.3,1-3.7,1c-2.1,0-3.8-0.7-5.1-2.2
			c-1.3-1.5-2-3.4-2-5.8V257.9z M84.1,258.2c0,1.7,0.4,3.1,1.2,4.2c0.8,1,1.9,1.6,3.2,1.6c1.4,0,2.4-0.5,3.2-1.6
			c0.8-1.1,1.2-2.5,1.2-4.5c0-1.7-0.4-3.1-1.2-4.2c-0.8-1.1-1.9-1.6-3.2-1.6c-1.3,0-2.4,0.5-3.2,1.6S84.1,256.3,84.1,258.2z"/>
		<path class="st3" d="M39.6,316.1H16.3l-5.2,14.6H3.5L24.7,275h6.4l21.3,55.6h-7.5L39.6,316.1z M18.5,310.1h18.9l-9.5-26
			L18.5,310.1z"/>
		<path class="st4" d="M84.3,330.6c-0.4-0.8-0.7-2.3-1-4.4c-3.3,3.4-7.2,5.1-11.8,5.1c-4.1,0-7.4-1.2-10-3.5
			c-2.6-2.3-3.9-5.2-3.9-8.8c0-4.3,1.6-7.6,4.9-10c3.3-2.4,7.9-3.6,13.8-3.6h6.9v-3.2c0-2.5-0.7-4.4-2.2-5.9
			c-1.5-1.5-3.7-2.2-6.5-2.2c-2.5,0-4.6,0.6-6.3,1.9c-1.7,1.3-2.6,2.8-2.6,4.6h-7.1c0-2.1,0.7-4.1,2.2-6c1.5-1.9,3.5-3.4,6-4.6
			c2.5-1.1,5.3-1.7,8.3-1.7c4.8,0,8.5,1.2,11.2,3.6c2.7,2.4,4.1,5.7,4.2,9.8v19c0,3.8,0.5,6.8,1.5,9.1v0.6H84.3z M72.6,325.2
			c2.2,0,4.3-0.6,6.3-1.7c2-1.1,3.4-2.6,4.3-4.5v-8.5h-5.5c-8.7,0-13,2.5-13,7.6c0,2.2,0.7,3.9,2.2,5.2
			C68.4,324.6,70.3,325.2,72.6,325.2z"/>
	</g>
</g>
<circle class="st5" cx="-31.9" cy="528.8" r="0"/>
<rect x="-31.4" y="408.6" class="st0" width="162" height="162"/>
<rect id="XMLID_502_" x="-1028.9" y="585.8" class="st8" width="142" height="100"/>
<g id="XMLID_497_">
	<text transform="matrix(1 0 0 1 -946.1212 671.7142)" class="st9 st18" style="font-size:12px;">#0d74d1</text>
</g>
<text id="XMLID_492_" transform="matrix(1 0 0 1 -1018.9786 611.7529)" class="st9 st18" style="font-size:12px;">700 (primary)</text>
<rect id="XMLID_480_" x="-886.9" y="585.8" class="st10" width="142" height="100"/>
<g id="XMLID_475_">
	<text transform="matrix(1 0 0 1 -804.1212 671.7142)" class="st9 st18" style="font-size:12px;">#F44336</text>
</g>
<text id="XMLID_470_" transform="matrix(1 0 0 1 -878.5889 611.7529)" class="st9 st18" style="font-size:12px;">500 (primary)</text>
<rect id="XMLID_459_" x="-1028.9" y="785.8" class="st7" width="142" height="100"/>
<g id="XMLID_454_">
	<text transform="matrix(1 0 0 1 -946.1216 871.7142)" class="st9 st18" style="font-size:12px;">#4caf51</text>
</g>
<text id="XMLID_449_" transform="matrix(1 0 0 1 -1020.5889 811.7529)" class="st9 st18" style="font-size:12px;">500 (primary)</text>
<rect id="XMLID_437_" x="-886.9" y="785.8" class="st11" width="142" height="100"/>
<g id="XMLID_432_">
	<text transform="matrix(1 0 0 1 -804.1216 871.7142)" class="st9 st18" style="font-size:12px;">#f57c00</text>
</g>
<text id="XMLID_427_" transform="matrix(1 0 0 1 -878.5894 811.7529)" class="st9 st18" style="font-size:12px;">500 (primary)</text>
<rect id="XMLID_418_" x="-1028.9" y="685.8" class="st12" width="142" height="100"/>
<g id="XMLID_409_">
	<text transform="matrix(1 0 0 1 -946.1212 771.7142)" class="st13 st18" style="font-size:12px;">#00BCD4</text>
</g>
<g id="XMLID_399_">
	<text transform="matrix(1 0 0 1 -1020.5889 711.7529)" class="st13 st18" style="font-size:12px;">500 (primary)</text>
</g>
<rect id="XMLID_368_" x="-886.9" y="685.8" class="st14" width="142" height="100"/>
<g id="XMLID_362_">
	<text transform="matrix(1 0 0 1 -804.1212 771.7142)" class="st9 st18" style="font-size:12px;">#3b44a9</text>
</g>
<text id="XMLID_350_" transform="matrix(1 0 0 1 -878.5889 711.7529)" class="st9 st18" style="font-size:12px;">500 (primary)</text>
<g>
	<rect id="XMLID_32_" x="-2.9" y="453.8" class="st8" width="53" height="37"/>
	<g id="XMLID_30_">
		<text transform="matrix(1 0 0 1 27.9783 485.886)" class="st9 st18" style="font-size:4.4789px;">#0d74d1</text>
	</g>
	<text id="XMLID_29_" transform="matrix(1 0 0 1 0.7849 463.5061)" class="st9 st18" style="font-size:4.4789px;">700 (primary)</text>
	<rect id="XMLID_28_" x="50.1" y="453.8" class="st10" width="53" height="37"/>
	<g id="XMLID_26_">
		<text transform="matrix(1 0 0 1 80.9783 485.886)" class="st9 st18" style="font-size:4.4789px;">#F44336</text>
	</g>
	<text id="XMLID_25_" transform="matrix(1 0 0 1 53.1839 463.5061)" class="st9 st18" style="font-size:4.4789px;">500 (primary)</text>
	<rect id="XMLID_24_" x="-2.9" y="490.8" class="st7" width="53" height="37"/>
	<g id="XMLID_22_">
		<text transform="matrix(1 0 0 1 27.9778 522.5344)" class="st9 st18" style="font-size:4.4789px;">#4caf51</text>
	</g>
	<text id="XMLID_21_" transform="matrix(1 0 0 1 0.1839 500.1545)" class="st9 st18" style="font-size:4.4789px;">500 (primary)</text>
	<rect id="XMLID_20_" x="50.1" y="490.8" class="st11" width="53" height="37"/>
	<g id="XMLID_18_">
		<text transform="matrix(1 0 0 1 80.9778 522.5344)" class="st9 st18" style="font-size:4.4789px;">#f57c00</text>
	</g>
	<text id="XMLID_17_" transform="matrix(1 0 0 1 53.1839 500.1545)" class="st9 st18" style="font-size:4.4789px;">500 (primary)</text>
</g>
<g>
	<g>
		<path id="XMLID_47_" class="st15" d="M-102.6,497.2H-186c-0.7,0-1.3-0.6-1.3-1.3v-16c0-0.7,0.6-1.3,1.3-1.3h83.4
			c0.7,0,1.3,0.6,1.3,1.3v16C-101.3,496.6-101.9,497.2-102.6,497.2z"/>
		<g>
			<line class="st16" x1="-143.2" y1="491.8" x2="-143.2" y2="497.2"/>
			<line class="st16" x1="-144.9" y1="492.2" x2="-141.5" y2="492.2"/>
			<line class="st16" x1="-144.9" y1="496.8" x2="-141.5" y2="496.8"/>
		</g>
		<g>
			<line class="st16" x1="-109.9" y1="489.3" x2="-101.9" y2="489.3"/>
			<line class="st16" x1="-110.4" y1="490.8" x2="-110.4" y2="486.8"/>
			<line class="st16" x1="-102.4" y1="490.8" x2="-102.4" y2="486.8"/>
		</g>
		<g>
			<line class="st16" x1="-187.1" y1="488.8" x2="-179.1" y2="488.8"/>
			<line class="st16" x1="-186.7" y1="490.4" x2="-186.7" y2="487.1"/>
			<line class="st16" x1="-178.7" y1="490.4" x2="-178.7" y2="487.1"/>
		</g>
		<g>
			<line class="st16" x1="-143.4" y1="478.8" x2="-143.4" y2="484.8"/>
			<line class="st16" x1="-144.9" y1="479.3" x2="-141.9" y2="479.3"/>
			<line class="st16" x1="-144.9" y1="485.3" x2="-141.9" y2="485.3"/>
		</g>
		<g>
			<line class="st16" x1="-98.4" y1="478.8" x2="-98.4" y2="496.8"/>
			<line class="st16" x1="-99.9" y1="479.3" x2="-95.9" y2="479.3"/>
			<line class="st16" x1="-99.9" y1="497.3" x2="-95.9" y2="497.3"/>
		</g>
		<text transform="matrix(1 0 0 1 -148.0493 474.7434)" class="st17" style="font-family:'Roboto-Regular'; font-size:5.9899px;">8px</text>
		<text transform="matrix(1 0 0 1 -110.853 504.6223)" class="st17" style="font-family:'Roboto-Regular'; font-size:5.9899px;">12px</text>
		<g>
			<text transform="matrix(1 0 0 1 -94.0474 490.4406)" class="st17" style="font-family:'Roboto-Regular'; font-size:5.9899px;">28px</text>
		</g>
		<text transform="matrix(1 0 0 1 -189.5981 505.1418)" class="st17" style="font-family:'Roboto-Regular'; font-size:5.9899px;">12px</text>
		<text transform="matrix(1 0 0 1 -144.8345 503.0891)" class="st17" style="font-family:'Roboto-Regular'; font-size:5.9899px;">8px</text>
		<text transform="matrix(1 0 0 1 -179.3296 491.5832)" class="st8 st18" style="font-size:9.9832px;">ROB MED 12PX</text>
	</g>
</g>
<g>
	<path class="st1" d="M-179.5-103.9v-46.3c0-20.5,16.6-37.1,37.1-37.1h41.3"/>
	<circle class="st2" cx="-145.9" cy="-153.4" r="41.8"/>
	<g>
		<line class="st3" x1="-187.9" y1="-153.7" x2="-145.9" y2="-153.7"/>
	</g>
	<text transform="matrix(1 0 0 1 -174.16 -156.9453)" class="st4" style="font-family:'Roboto-Regular'; font-size:10.2452px;">2px</text>
	<circle class="st4" cx="-145.6" cy="-153.7" r="1.8"/>
</g>
<circle class="st5" cx="-31.9" cy="-76.2" r="0"/>
<g class="st6">
	<g>
		<path class="st7" d="M12.6-182.6H7.6v8.5H4.8v-21h6.9c2.4,0,4.2,0.5,5.5,1.6c1.3,1.1,1.9,2.6,1.9,4.7c0,1.3-0.4,2.4-1.1,3.4
			c-0.7,1-1.7,1.7-2.9,2.2l4.9,8.9v0.2h-3L12.6-182.6z M7.6-184.9h4.2c1.4,0,2.5-0.4,3.3-1.1c0.8-0.7,1.2-1.7,1.2-2.9
			c0-1.3-0.4-2.3-1.2-3c-0.8-0.7-1.9-1-3.3-1.1H7.6V-184.9z"/>
		<path class="st7" d="M21.9-182.1c0-1.5,0.3-2.9,0.9-4.1c0.6-1.2,1.4-2.2,2.5-2.8c1.1-0.7,2.3-1,3.7-1c2.1,0,3.8,0.7,5.1,2.2
			s2,3.4,2,5.9v0.2c0,1.5-0.3,2.9-0.9,4.1c-0.6,1.2-1.4,2.1-2.5,2.8c-1.1,0.7-2.3,1-3.7,1c-2.1,0-3.8-0.7-5.1-2.2
			c-1.3-1.5-2-3.4-2-5.8V-182.1z M24.6-181.7c0,1.7,0.4,3.1,1.2,4.2c0.8,1,1.9,1.6,3.2,1.6c1.4,0,2.4-0.5,3.2-1.6
			c0.8-1.1,1.2-2.5,1.2-4.5c0-1.7-0.4-3.1-1.2-4.2c-0.8-1.1-1.9-1.6-3.2-1.6c-1.3,0-2.4,0.5-3.2,1.6C25-185.2,24.6-183.7,24.6-181.7
			z"/>
		<path class="st7" d="M52.6-181.7c0,2.4-0.5,4.3-1.6,5.7c-1.1,1.4-2.6,2.2-4.4,2.2c-2,0-3.5-0.7-4.6-2.1l-0.1,1.8h-2.4v-22.1h2.7
			v8.3c1.1-1.3,2.6-2,4.5-2c1.9,0,3.4,0.7,4.5,2.1c1.1,1.4,1.6,3.4,1.6,5.9V-181.7z M50-182.1c0-1.8-0.4-3.2-1.1-4.2
			c-0.7-1-1.7-1.5-3-1.5c-1.8,0-3,0.8-3.8,2.4v6.7c0.8,1.6,2.1,2.4,3.8,2.4c1.3,0,2.3-0.5,3-1.5C49.6-178.6,50-180.1,50-182.1z"/>
		<path class="st7" d="M55.3-182.1c0-1.5,0.3-2.9,0.9-4.1c0.6-1.2,1.4-2.2,2.5-2.8c1.1-0.7,2.3-1,3.7-1c2.1,0,3.8,0.7,5.2,2.2
			c1.3,1.5,2,3.4,2,5.9v0.2c0,1.5-0.3,2.9-0.9,4.1c-0.6,1.2-1.4,2.1-2.5,2.8c-1.1,0.7-2.3,1-3.7,1c-2.1,0-3.8-0.7-5.1-2.2
			c-1.3-1.5-2-3.4-2-5.8V-182.1z M58-181.7c0,1.7,0.4,3.1,1.2,4.2s1.9,1.6,3.2,1.6c1.4,0,2.4-0.5,3.2-1.6c0.8-1.1,1.2-2.5,1.2-4.5
			c0-1.7-0.4-3.1-1.2-4.2c-0.8-1.1-1.9-1.6-3.2-1.6c-1.3,0-2.4,0.5-3.2,1.6S58-183.7,58-181.7z"/>
		<path class="st7" d="M76.4-193.5v3.8h2.9v2.1h-2.9v9.7c0,0.6,0.1,1.1,0.4,1.4c0.3,0.3,0.7,0.5,1.3,0.5c0.3,0,0.7-0.1,1.3-0.2v2.1
			c-0.7,0.2-1.4,0.3-2,0.3c-1.2,0-2.1-0.4-2.7-1.1c-0.6-0.7-0.9-1.7-0.9-3.1v-9.7h-2.8v-2.1h2.8v-3.8H76.4z"/>
		<path class="st7" d="M81.5-182.1c0-1.5,0.3-2.9,0.9-4.1c0.6-1.2,1.4-2.2,2.5-2.8c1.1-0.7,2.3-1,3.7-1c2.1,0,3.8,0.7,5.2,2.2
			c1.3,1.5,2,3.4,2,5.9v0.2c0,1.5-0.3,2.9-0.9,4.1c-0.6,1.2-1.4,2.1-2.5,2.8c-1.1,0.7-2.3,1-3.7,1c-2.1,0-3.8-0.7-5.1-2.2
			c-1.3-1.5-2-3.4-2-5.8V-182.1z M84.1-181.7c0,1.7,0.4,3.1,1.2,4.2c0.8,1,1.9,1.6,3.2,1.6c1.4,0,2.4-0.5,3.2-1.6
			c0.8-1.1,1.2-2.5,1.2-4.5c0-1.7-0.4-3.1-1.2-4.2c-0.8-1.1-1.9-1.6-3.2-1.6c-1.3,0-2.4,0.5-3.2,1.6S84.1-183.7,84.1-181.7z"/>
		<path class="st3" d="M39.6-123.9H16.3l-5.2,14.6H3.5L24.7-165h6.4l21.3,55.6h-7.5L39.6-123.9z M18.5-129.9h18.9l-9.5-26
			L18.5-129.9z"/>
		<path class="st4" d="M84.3-109.4c-0.4-0.8-0.7-2.3-1-4.4c-3.3,3.4-7.2,5.1-11.8,5.1c-4.1,0-7.4-1.2-10-3.5
			c-2.6-2.3-3.9-5.2-3.9-8.8c0-4.3,1.6-7.6,4.9-10c3.3-2.4,7.9-3.6,13.8-3.6h6.9v-3.2c0-2.5-0.7-4.4-2.2-5.9
			c-1.5-1.5-3.7-2.2-6.5-2.2c-2.5,0-4.6,0.6-6.3,1.9c-1.7,1.3-2.6,2.8-2.6,4.6h-7.1c0-2.1,0.7-4.1,2.2-6c1.5-1.9,3.5-3.4,6-4.6
			c2.5-1.1,5.3-1.7,8.3-1.7c4.8,0,8.5,1.2,11.2,3.6c2.7,2.4,4.1,5.7,4.2,9.8v19c0,3.8,0.5,6.8,1.5,9.1v0.6H84.3z M72.6-114.8
			c2.2,0,4.3-0.6,6.3-1.7c2-1.1,3.4-2.6,4.3-4.5v-8.5h-5.5c-8.7,0-13,2.5-13,7.6c0,2.2,0.7,3.9,2.2,5.2
			C68.4-115.4,70.3-114.8,72.6-114.8z"/>
	</g>
</g>
<circle class="st5" cx="-31.9" cy="88.8" r="0"/>
<rect x="-194" y="-0.3" class="st0" width="99.7" height="99.7"/>
<g>
	<rect id="XMLID_40_" x="0.1" y="15.8" class="st8" width="49" height="35"/>
	<g id="XMLID_38_">
		<text transform="matrix(1 0 0 1 28.4656 46.2175)" class="st9 st18 st19">#0d74d1</text>
	</g>
	<text id="XMLID_37_" transform="matrix(1 0 0 1 3.1004 25.3425)" class="st9 st18 st19">700 (primary)</text>
	<rect id="XMLID_36_" x="49.1" y="15.8" class="st10" width="49" height="35"/>
	<g id="XMLID_34_">
		<text transform="matrix(1 0 0 1 77.9002 46.2175)" class="st9 st18 st19">#F44336</text>
	</g>
	<text id="XMLID_33_" transform="matrix(1 0 0 1 51.9754 25.3425)" class="st9 st18 st19">500 (primary)</text>
	<rect id="XMLID_31_" x="0.1" y="50.8" class="st7" width="49" height="35"/>
	<g id="XMLID_23_">
		<text transform="matrix(1 0 0 1 28.4646 80.4001)" class="st9 st18 st19">#4caf51</text>
	</g>
	<text id="XMLID_19_" transform="matrix(1 0 0 1 2.5398 59.5261)" class="st9 st18 st19">500 (primary)</text>
	<rect id="XMLID_16_" x="49.1" y="50.8" class="st11" width="49" height="35"/>
	<g id="XMLID_14_">
		<text transform="matrix(1 0 0 1 77.9002 80.4001)" class="st9 st18 st19">#f57c00</text>
	</g>
	<text id="XMLID_13_" transform="matrix(1 0 0 1 51.9754 59.5261)" class="st9 st18 st19">500 (primary)</text>
</g>
<rect x="158.6" y="-203.3" class="st0" width="99.7" height="99.7"/>
<g>
	<g>
		<path id="XMLID_1_" class="st15" d="M-103.1,57.2h-83.4c-0.7,0-1.3-0.6-1.3-1.3v-16c0-0.7,0.6-1.3,1.3-1.3h83.4
			c0.7,0,1.3,0.6,1.3,1.3v16C-101.8,56.6-102.4,57.2-103.1,57.2z"/>
		<g>
			<line class="st16" x1="-143.7" y1="51.8" x2="-143.7" y2="57.2"/>
			<line class="st16" x1="-145.3" y1="52.2" x2="-142" y2="52.2"/>
			<line class="st16" x1="-145.3" y1="56.8" x2="-142" y2="56.8"/>
		</g>
		<g>
			<line class="st16" x1="-109.9" y1="49.3" x2="-101.9" y2="49.3"/>
			<line class="st16" x1="-110.4" y1="50.8" x2="-110.4" y2="46.8"/>
			<line class="st16" x1="-102.4" y1="50.8" x2="-102.4" y2="46.8"/>
		</g>
		<g>
			<line class="st16" x1="-187.5" y1="48.8" x2="-179.6" y2="48.8"/>
			<line class="st16" x1="-187.2" y1="50.4" x2="-187.2" y2="47.1"/>
			<line class="st16" x1="-179.2" y1="50.4" x2="-179.2" y2="47.1"/>
		</g>
		<g>
			<line class="st16" x1="-143.4" y1="38.8" x2="-143.4" y2="44.8"/>
			<line class="st16" x1="-144.9" y1="39.3" x2="-141.9" y2="39.3"/>
			<line class="st16" x1="-144.9" y1="45.3" x2="-141.9" y2="45.3"/>
		</g>
		<text transform="matrix(1 0 0 1 -148.5291 34.7434)" class="st17" style="font-family:'Roboto-Regular'; font-size:5.9899px;">8px</text>
		<text transform="matrix(1 0 0 1 -111.3328 64.6223)" class="st17" style="font-family:'Roboto-Regular'; font-size:5.9899px;">12px</text>
		<text transform="matrix(1 0 0 1 -190.0779 65.1418)" class="st17" style="font-family:'Roboto-Regular'; font-size:5.9899px;">12px</text>
		<text transform="matrix(1 0 0 1 -145.3142 63.0891)" class="st17" style="font-family:'Roboto-Regular'; font-size:5.9899px;">8px</text>
		<text transform="matrix(1 0 0 1 -179.8094 51.5832)" class="st8 st18" style="font-size:9.9832px;">ROB MED 12PX</text>
	</g>
</g>
<g>
	<text transform="matrix(1 0 0 1 163.4047 -161.6836)" class="st20" style="font-family:'Roboto-Bold'; font-size:28px;">Place</text>
</g>
<text transform="matrix(1 0 0 1 163.4047 -122.0879)" class="st21" style="font-family:'Roboto-Bold'; font-size:28px;">Holder</text>
</svg>
