<?xml version="1.0" encoding="utf-8"?>
<!-- Generator: Adobe Illustrator 19.2.1, SVG Export Plug-In . SVG Version: 6.00 Build 0)  -->
<svg version="1.1" id="Layer_1" xmlns="http://www.w3.org/2000/svg" xmlns:xlink="http://www.w3.org/1999/xlink" x="0px" y="0px"
	 viewBox="0 0 99.8 99.8" style="enable-background:new 0 0 99.8 99.8;" xml:space="preserve">
<style type="text/css">
	.st0{fill:#FAFBFB;}
	.st1{fill:none;stroke:#74AD42;stroke-width:18.341;stroke-miterlimit:10;}
	.st2{fill:none;stroke:#B954A0;stroke-width:1.2678;stroke-linejoin:round;stroke-miterlimit:10;}
	.st3{fill:none;stroke:#B954A0;stroke-miterlimit:10;}
	.st4{fill:#B954A0;}
	.st5{fill:#75AD42;}
	.st6{opacity:0.87;}
	.st7{fill:#4DAF50;}
	.st8{fill:#3073BA;}
	.st9{fill:#FFFFFF;}
	.st10{fill:#EF4538;}
	.st11{fill:#F47D20;}
	.st12{fill:#0DBCD4;}
	.st13{fill:#333333;}
	.st14{fill:#404A9F;}
	.st15{fill:#FFFFFF;stroke:#3173BA;stroke-miterlimit:10;}
	.st16{fill:none;stroke:#EF4538;stroke-miterlimit:10;}
	.st17{fill:#6D6E71;}
	.st18{fill:#808285;}
	.st19{fill:#58595B;}
</style>
<rect x="-222.6" y="408.9" class="st0" width="162" height="162"/>
<path class="st1" d="M-175.5,539.4v-46.3c0-20.5,16.6-37.1,37.1-37.1h41.3"/>
<circle class="st2" cx="-141.9" cy="489.9" r="41.8"/>
<g>
	<line class="st3" x1="-183.6" y1="489.6" x2="-141.6" y2="489.6"/>
</g>
<text transform="matrix(1 0 0 1 -170.1569 486.388)" class="st4" style="font-family:'Roboto-Regular'; font-size:10.2452px;">2px</text>
<circle class="st4" cx="-141.6" cy="489.6" r="1.8"/>
<circle class="st5" cx="-31.6" cy="567.1" r="0"/>
<rect x="-31.1" y="408.9" class="st0" width="162" height="162"/>
<rect x="-223" y="612.9" class="st0" width="162" height="162"/>
<circle class="st5" cx="-142" cy="771.1" r="0"/>
<g class="st6">
	<g>
		<path class="st7" d="M12.9,460.7H8v8.5H5.2v-21h6.9c2.4,0,4.2,0.5,5.5,1.6c1.3,1.1,1.9,2.6,1.9,4.7c0,1.3-0.4,2.4-1.1,3.4
			c-0.7,1-1.7,1.7-2.9,2.2l4.9,8.9v0.2h-3L12.9,460.7z M8,458.5h4.2c1.4,0,2.5-0.4,3.3-1.1c0.8-0.7,1.2-1.7,1.2-2.9
			c0-1.3-0.4-2.3-1.2-3c-0.8-0.7-1.9-1-3.3-1.1H8V458.5z"/>
		<path class="st7" d="M22.2,461.3c0-1.5,0.3-2.9,0.9-4.1c0.6-1.2,1.4-2.2,2.5-2.8c1.1-0.7,2.3-1,3.7-1c2.1,0,3.8,0.7,5.1,2.2
			s2,3.4,2,5.9v0.2c0,1.5-0.3,2.9-0.9,4.1c-0.6,1.2-1.4,2.1-2.5,2.8c-1.1,0.7-2.3,1-3.7,1c-2.1,0-3.8-0.7-5.1-2.2
			c-1.3-1.5-2-3.4-2-5.8V461.3z M24.9,461.6c0,1.7,0.4,3.1,1.2,4.2c0.8,1,1.9,1.6,3.2,1.6c1.4,0,2.4-0.5,3.2-1.6
			c0.8-1.1,1.2-2.5,1.2-4.5c0-1.7-0.4-3.1-1.2-4.2c-0.8-1.1-1.9-1.6-3.2-1.6c-1.3,0-2.4,0.5-3.2,1.6
			C25.3,458.1,24.9,459.6,24.9,461.6z"/>
		<path class="st7" d="M53,461.6c0,2.4-0.5,4.3-1.6,5.7c-1.1,1.4-2.6,2.2-4.4,2.2c-2,0-3.5-0.7-4.6-2.1l-0.1,1.8h-2.4v-22.1h2.7v8.3
			c1.1-1.3,2.6-2,4.5-2c1.9,0,3.4,0.7,4.5,2.1c1.1,1.4,1.6,3.4,1.6,5.9V461.6z M50.3,461.3c0-1.8-0.4-3.2-1.1-4.2
			c-0.7-1-1.7-1.5-3-1.5c-1.8,0-3,0.8-3.8,2.4v6.7c0.8,1.6,2.1,2.4,3.8,2.4c1.3,0,2.3-0.5,3-1.5C49.9,464.8,50.3,463.3,50.3,461.3z"
			/>
		<path class="st7" d="M55.6,461.3c0-1.5,0.3-2.9,0.9-4.1c0.6-1.2,1.4-2.2,2.5-2.8c1.1-0.7,2.3-1,3.7-1c2.1,0,3.8,0.7,5.2,2.2
			c1.3,1.5,2,3.4,2,5.9v0.2c0,1.5-0.3,2.9-0.9,4.1c-0.6,1.2-1.4,2.1-2.5,2.8c-1.1,0.7-2.3,1-3.7,1c-2.1,0-3.8-0.7-5.1-2.2
			c-1.3-1.5-2-3.4-2-5.8V461.3z M58.3,461.6c0,1.7,0.4,3.1,1.2,4.2c0.8,1,1.9,1.6,3.2,1.6c1.4,0,2.4-0.5,3.2-1.6
			c0.8-1.1,1.2-2.5,1.2-4.5c0-1.7-0.4-3.1-1.2-4.2c-0.8-1.1-1.9-1.6-3.2-1.6c-1.3,0-2.4,0.5-3.2,1.6
			C58.7,458.1,58.3,459.6,58.3,461.6z"/>
		<path class="st7" d="M76.8,449.8v3.8h2.9v2.1h-2.9v9.7c0,0.6,0.1,1.1,0.4,1.4c0.3,0.3,0.7,0.5,1.3,0.5c0.3,0,0.7-0.1,1.3-0.2v2.1
			c-0.7,0.2-1.4,0.3-2,0.3c-1.2,0-2.1-0.4-2.7-1.1c-0.6-0.7-0.9-1.7-0.9-3.1v-9.7h-2.8v-2.1h2.8v-3.8H76.8z"/>
		<path class="st7" d="M81.8,461.3c0-1.5,0.3-2.9,0.9-4.1c0.6-1.2,1.4-2.2,2.5-2.8c1.1-0.7,2.3-1,3.7-1c2.1,0,3.8,0.7,5.2,2.2
			c1.3,1.5,2,3.4,2,5.9v0.2c0,1.5-0.3,2.9-0.9,4.1c-0.6,1.2-1.4,2.1-2.5,2.8c-1.1,0.7-2.3,1-3.7,1c-2.1,0-3.8-0.7-5.1-2.2
			c-1.3-1.5-2-3.4-2-5.8V461.3z M84.5,461.6c0,1.7,0.4,3.1,1.2,4.2s1.9,1.6,3.2,1.6c1.4,0,2.4-0.5,3.2-1.6c0.8-1.1,1.2-2.5,1.2-4.5
			c0-1.7-0.4-3.1-1.2-4.2c-0.8-1.1-1.9-1.6-3.2-1.6c-1.3,0-2.4,0.5-3.2,1.6S84.5,459.6,84.5,461.6z"/>
		<path class="st3" d="M39.9,519.4H16.6L11.4,534H3.8l21.2-55.6h6.4L52.8,534h-7.5L39.9,519.4z M18.8,513.4h18.9l-9.5-26L18.8,513.4
			z"/>
		<path class="st4" d="M84.7,534c-0.4-0.8-0.7-2.3-1-4.4c-3.3,3.4-7.2,5.1-11.8,5.1c-4.1,0-7.4-1.2-10-3.5c-2.6-2.3-3.9-5.2-3.9-8.8
			c0-4.3,1.6-7.6,4.9-10c3.3-2.4,7.9-3.6,13.8-3.6h6.9v-3.2c0-2.5-0.7-4.4-2.2-5.9c-1.5-1.5-3.7-2.2-6.5-2.2c-2.5,0-4.6,0.6-6.3,1.9
			c-1.7,1.3-2.6,2.8-2.6,4.6h-7.1c0-2.1,0.7-4.1,2.2-6c1.5-1.9,3.5-3.4,6-4.6c2.5-1.1,5.3-1.7,8.3-1.7c4.8,0,8.5,1.2,11.2,3.6
			c2.7,2.4,4.1,5.7,4.2,9.8v19c0,3.8,0.5,6.8,1.5,9.1v0.6H84.7z M72.9,528.6c2.2,0,4.3-0.6,6.3-1.7c2-1.1,3.4-2.6,4.3-4.5v-8.5H78
			c-8.7,0-13,2.5-13,7.6c0,2.2,0.7,3.9,2.2,5.2C68.7,528,70.6,528.6,72.9,528.6z"/>
	</g>
</g>
<circle class="st5" cx="-31.6" cy="732.1" r="0"/>
<rect x="-31.1" y="611.9" class="st0" width="162" height="162"/>
<rect id="XMLID_502_" x="-1028.6" y="789.1" class="st8" width="142" height="100"/>
<g id="XMLID_497_">
	<text transform="matrix(1 0 0 1 -945.7878 875.0475)" class="st9" style="font-family:'Roboto-Medium'; font-size:12px;">#0d74d1</text>
</g>
<text id="XMLID_492_" transform="matrix(1 0 0 1 -1018.6452 815.0862)" class="st9" style="font-family:'Roboto-Medium'; font-size:12px;">700 (primary)</text>
<rect id="XMLID_480_" x="-886.6" y="789.1" class="st10" width="142" height="100"/>
<g id="XMLID_475_">
	<text transform="matrix(1 0 0 1 -803.7878 875.0475)" class="st9" style="font-family:'Roboto-Medium'; font-size:12px;">#F44336</text>
</g>
<text id="XMLID_470_" transform="matrix(1 0 0 1 -878.2556 815.0862)" class="st9" style="font-family:'Roboto-Medium'; font-size:12px;">500 (primary)</text>
<rect id="XMLID_459_" x="-1028.6" y="989.1" class="st7" width="142" height="100"/>
<g id="XMLID_454_">
	<text transform="matrix(1 0 0 1 -945.7883 1075.0475)" class="st9" style="font-family:'Roboto-Medium'; font-size:12px;">#4caf51</text>
</g>
<text id="XMLID_449_" transform="matrix(1 0 0 1 -1020.2556 1015.0862)" class="st9" style="font-family:'Roboto-Medium'; font-size:12px;">500 (primary)</text>
<rect id="XMLID_437_" x="-886.6" y="989.1" class="st11" width="142" height="100"/>
<g id="XMLID_432_">
	<text transform="matrix(1 0 0 1 -803.7883 1075.0475)" class="st9" style="font-family:'Roboto-Medium'; font-size:12px;">#f57c00</text>
</g>
<text id="XMLID_427_" transform="matrix(1 0 0 1 -878.256 1015.0862)" class="st9" style="font-family:'Roboto-Medium'; font-size:12px;">500 (primary)</text>
<rect id="XMLID_418_" x="-1028.6" y="889.1" class="st12" width="142" height="100"/>
<g id="XMLID_409_">
	<text transform="matrix(1 0 0 1 -945.7878 975.0475)" class="st13" style="font-family:'Roboto-Medium'; font-size:12px;">#00BCD4</text>
</g>
<g id="XMLID_399_">
	<text transform="matrix(1 0 0 1 -1020.2556 915.0862)" class="st13" style="font-family:'Roboto-Medium'; font-size:12px;">500 (primary)</text>
</g>
<rect id="XMLID_368_" x="-886.6" y="889.1" class="st14" width="142" height="100"/>
<g id="XMLID_362_">
	<text transform="matrix(1 0 0 1 -803.7878 975.0475)" class="st9" style="font-family:'Roboto-Medium'; font-size:12px;">#3b44a9</text>
</g>
<text id="XMLID_350_" transform="matrix(1 0 0 1 -878.2556 915.0862)" class="st9" style="font-family:'Roboto-Medium'; font-size:12px;">500 (primary)</text>
<g>
	<rect id="XMLID_32_" x="-2.6" y="657.1" class="st8" width="53" height="37"/>
	<g id="XMLID_30_">
		<text transform="matrix(1 0 0 1 28.3116 689.2193)" class="st9" style="font-family:'Roboto-Medium'; font-size:4.4789px;">#0d74d1</text>
	</g>
	
		<text id="XMLID_29_" transform="matrix(1 0 0 1 1.1183 666.8394)" class="st9" style="font-family:'Roboto-Medium'; font-size:4.4789px;">700 (primary)</text>
	<rect id="XMLID_28_" x="50.4" y="657.1" class="st10" width="53" height="37"/>
	<g id="XMLID_26_">
		<text transform="matrix(1 0 0 1 81.3116 689.2193)" class="st9" style="font-family:'Roboto-Medium'; font-size:4.4789px;">#F44336</text>
	</g>
	
		<text id="XMLID_25_" transform="matrix(1 0 0 1 53.5172 666.8394)" class="st9" style="font-family:'Roboto-Medium'; font-size:4.4789px;">500 (primary)</text>
	<rect id="XMLID_24_" x="-2.6" y="694.1" class="st7" width="53" height="37"/>
	<g id="XMLID_22_">
		<text transform="matrix(1 0 0 1 28.3111 725.8677)" class="st9" style="font-family:'Roboto-Medium'; font-size:4.4789px;">#4caf51</text>
	</g>
	
		<text id="XMLID_21_" transform="matrix(1 0 0 1 0.5172 703.4879)" class="st9" style="font-family:'Roboto-Medium'; font-size:4.4789px;">500 (primary)</text>
	<rect id="XMLID_20_" x="50.4" y="694.1" class="st11" width="53" height="37"/>
	<g id="XMLID_18_">
		<text transform="matrix(1 0 0 1 81.3111 725.8677)" class="st9" style="font-family:'Roboto-Medium'; font-size:4.4789px;">#f57c00</text>
	</g>
	
		<text id="XMLID_17_" transform="matrix(1 0 0 1 53.5172 703.4879)" class="st9" style="font-family:'Roboto-Medium'; font-size:4.4789px;">500 (primary)</text>
</g>
<g>
	<g>
		<path id="XMLID_47_" class="st15" d="M-102.3,700.5h-83.4c-0.7,0-1.3-0.6-1.3-1.3v-16c0-0.7,0.6-1.3,1.3-1.3h83.4
			c0.7,0,1.3,0.6,1.3,1.3v16C-101,699.9-101.6,700.5-102.3,700.5z"/>
		<g>
			<line class="st16" x1="-142.9" y1="695.2" x2="-142.9" y2="700.5"/>
			<line class="st16" x1="-144.5" y1="695.6" x2="-141.2" y2="695.6"/>
			<line class="st16" x1="-144.5" y1="700.1" x2="-141.2" y2="700.1"/>
		</g>
		<g>
			<line class="st16" x1="-109.6" y1="692.6" x2="-101.6" y2="692.6"/>
			<line class="st16" x1="-110.1" y1="694.1" x2="-110.1" y2="690.1"/>
			<line class="st16" x1="-102.1" y1="694.1" x2="-102.1" y2="690.1"/>
		</g>
		<g>
			<line class="st16" x1="-186.7" y1="692.1" x2="-178.7" y2="692.1"/>
			<line class="st16" x1="-186.4" y1="693.8" x2="-186.4" y2="690.4"/>
			<line class="st16" x1="-178.4" y1="693.8" x2="-178.4" y2="690.4"/>
		</g>
		<g>
			<line class="st16" x1="-143.1" y1="682.1" x2="-143.1" y2="688.1"/>
			<line class="st16" x1="-144.6" y1="682.6" x2="-141.6" y2="682.6"/>
			<line class="st16" x1="-144.6" y1="688.6" x2="-141.6" y2="688.6"/>
		</g>
		<g>
			<line class="st16" x1="-98.1" y1="682.1" x2="-98.1" y2="700.1"/>
			<line class="st16" x1="-99.6" y1="682.6" x2="-95.6" y2="682.6"/>
			<line class="st16" x1="-99.6" y1="700.6" x2="-95.6" y2="700.6"/>
		</g>
		<text transform="matrix(1 0 0 1 -147.716 678.0767)" class="st17" style="font-family:'Roboto-Regular'; font-size:5.9899px;">8px</text>
		<text transform="matrix(1 0 0 1 -110.5197 707.9556)" class="st17" style="font-family:'Roboto-Regular'; font-size:5.9899px;">12px</text>
		<g>
			<text transform="matrix(1 0 0 1 -93.714 693.774)" class="st17" style="font-family:'Roboto-Regular'; font-size:5.9899px;">28px</text>
		</g>
		<text transform="matrix(1 0 0 1 -189.2648 708.4752)" class="st17" style="font-family:'Roboto-Regular'; font-size:5.9899px;">12px</text>
		<text transform="matrix(1 0 0 1 -144.5011 706.4224)" class="st17" style="font-family:'Roboto-Regular'; font-size:5.9899px;">8px</text>
		<text transform="matrix(1 0 0 1 -178.9963 694.9166)" class="st8" style="font-family:'Roboto-Medium'; font-size:9.9832px;">ROB MED 12PX</text>
	</g>
</g>
<g>
	<path class="st1" d="M-179.2,99.4V53.2c0-20.5,16.6-37.1,37.1-37.1h41.3"/>
	<circle class="st2" cx="-145.6" cy="49.9" r="41.8"/>
	<g>
		<line class="st3" x1="-187.6" y1="49.6" x2="-145.6" y2="49.6"/>
	</g>
	<text transform="matrix(1 0 0 1 -173.8267 46.388)" class="st4" style="font-family:'Roboto-Regular'; font-size:10.2452px;">2px</text>
	<circle class="st4" cx="-145.3" cy="49.6" r="1.8"/>
</g>
<circle class="st5" cx="-31.6" cy="127.1" r="0"/>
<g class="st6">
	<g>
		<path class="st7" d="M12.9,20.7H8v8.5H5.2v-21h6.9c2.4,0,4.2,0.5,5.5,1.6c1.3,1.1,1.9,2.6,1.9,4.7c0,1.3-0.4,2.4-1.1,3.4
			c-0.7,1-1.7,1.7-2.9,2.2l4.9,8.9v0.2h-3L12.9,20.7z M8,18.5h4.2c1.4,0,2.5-0.4,3.3-1.1c0.8-0.7,1.2-1.7,1.2-2.9
			c0-1.3-0.4-2.3-1.2-3c-0.8-0.7-1.9-1-3.3-1.1H8V18.5z"/>
		<path class="st7" d="M22.2,21.3c0-1.5,0.3-2.9,0.9-4.1c0.6-1.2,1.4-2.2,2.5-2.8c1.1-0.7,2.3-1,3.7-1c2.1,0,3.8,0.7,5.1,2.2
			s2,3.4,2,5.9v0.2c0,1.5-0.3,2.9-0.9,4.1c-0.6,1.2-1.4,2.1-2.5,2.8c-1.1,0.7-2.3,1-3.7,1c-2.1,0-3.8-0.7-5.1-2.2
			c-1.3-1.5-2-3.4-2-5.8V21.3z M24.9,21.6c0,1.7,0.4,3.1,1.2,4.2c0.8,1,1.9,1.6,3.2,1.6c1.4,0,2.4-0.5,3.2-1.6
			c0.8-1.1,1.2-2.5,1.2-4.5c0-1.7-0.4-3.1-1.2-4.2c-0.8-1.1-1.9-1.6-3.2-1.6c-1.3,0-2.4,0.5-3.2,1.6C25.3,18.1,24.9,19.6,24.9,21.6z
			"/>
		<path class="st7" d="M53,21.6c0,2.4-0.5,4.3-1.6,5.7c-1.1,1.4-2.6,2.2-4.4,2.2c-2,0-3.5-0.7-4.6-2.1l-0.1,1.8h-2.4V7.1h2.7v8.3
			c1.1-1.3,2.6-2,4.5-2c1.9,0,3.4,0.7,4.5,2.1c1.1,1.4,1.6,3.4,1.6,5.9V21.6z M50.3,21.3c0-1.8-0.4-3.2-1.1-4.2
			c-0.7-1-1.7-1.5-3-1.5c-1.8,0-3,0.8-3.8,2.4v6.7c0.8,1.6,2.1,2.4,3.8,2.4c1.3,0,2.3-0.5,3-1.5C49.9,24.8,50.3,23.3,50.3,21.3z"/>
		<path class="st7" d="M55.6,21.3c0-1.5,0.3-2.9,0.9-4.1c0.6-1.2,1.4-2.2,2.5-2.8c1.1-0.7,2.3-1,3.7-1c2.1,0,3.8,0.7,5.2,2.2
			c1.3,1.5,2,3.4,2,5.9v0.2c0,1.5-0.3,2.9-0.9,4.1c-0.6,1.2-1.4,2.1-2.5,2.8c-1.1,0.7-2.3,1-3.7,1c-2.1,0-3.8-0.7-5.1-2.2
			c-1.3-1.5-2-3.4-2-5.8V21.3z M58.3,21.6c0,1.7,0.4,3.1,1.2,4.2c0.8,1,1.9,1.6,3.2,1.6c1.4,0,2.4-0.5,3.2-1.6
			c0.8-1.1,1.2-2.5,1.2-4.5c0-1.7-0.4-3.1-1.2-4.2c-0.8-1.1-1.9-1.6-3.2-1.6c-1.3,0-2.4,0.5-3.2,1.6C58.7,18.1,58.3,19.6,58.3,21.6z
			"/>
		<path class="st7" d="M76.8,9.8v3.8h2.9v2.1h-2.9v9.7c0,0.6,0.1,1.1,0.4,1.4c0.3,0.3,0.7,0.5,1.3,0.5c0.3,0,0.7-0.1,1.3-0.2v2.1
			c-0.7,0.2-1.4,0.3-2,0.3c-1.2,0-2.1-0.4-2.7-1.1c-0.6-0.7-0.9-1.7-0.9-3.1v-9.7h-2.8v-2.1h2.8V9.8H76.8z"/>
		<path class="st7" d="M81.8,21.3c0-1.5,0.3-2.9,0.9-4.1c0.6-1.2,1.4-2.2,2.5-2.8c1.1-0.7,2.3-1,3.7-1c2.1,0,3.8,0.7,5.2,2.2
			c1.3,1.5,2,3.4,2,5.9v0.2c0,1.5-0.3,2.9-0.9,4.1c-0.6,1.2-1.4,2.1-2.5,2.8c-1.1,0.7-2.3,1-3.7,1c-2.1,0-3.8-0.7-5.1-2.2
			c-1.3-1.5-2-3.4-2-5.8V21.3z M84.5,21.6c0,1.7,0.4,3.1,1.2,4.2c0.8,1,1.9,1.6,3.2,1.6c1.4,0,2.4-0.5,3.2-1.6
			c0.8-1.1,1.2-2.5,1.2-4.5c0-1.7-0.4-3.1-1.2-4.2c-0.8-1.1-1.9-1.6-3.2-1.6c-1.3,0-2.4,0.5-3.2,1.6S84.5,19.6,84.5,21.6z"/>
		<path class="st3" d="M39.9,79.4H16.6L11.4,94H3.8l21.2-55.6h6.4L52.8,94h-7.5L39.9,79.4z M18.8,73.4h18.9l-9.5-26L18.8,73.4z"/>
		<path class="st4" d="M84.7,94c-0.4-0.8-0.7-2.3-1-4.4c-3.3,3.4-7.2,5.1-11.8,5.1c-4.1,0-7.4-1.2-10-3.5C59.3,89,58,86,58,82.5
			c0-4.3,1.6-7.6,4.9-10c3.3-2.4,7.9-3.6,13.8-3.6h6.9v-3.2c0-2.5-0.7-4.4-2.2-5.9c-1.5-1.5-3.7-2.2-6.5-2.2c-2.5,0-4.6,0.6-6.3,1.9
			c-1.7,1.3-2.6,2.8-2.6,4.6h-7.1c0-2.1,0.7-4.1,2.2-6c1.5-1.9,3.5-3.4,6-4.6c2.5-1.1,5.3-1.7,8.3-1.7c4.8,0,8.5,1.2,11.2,3.6
			c2.7,2.4,4.1,5.7,4.2,9.8v19c0,3.8,0.5,6.8,1.5,9.1V94H84.7z M72.9,88.6c2.2,0,4.3-0.6,6.3-1.7c2-1.1,3.4-2.6,4.3-4.5v-8.5H78
			c-8.7,0-13,2.5-13,7.6c0,2.2,0.7,3.9,2.2,5.2C68.7,88,70.6,88.6,72.9,88.6z"/>
	</g>
</g>
<circle class="st5" cx="-31.6" cy="292.1" r="0"/>
<g>
	<rect id="XMLID_40_" x="0.4" y="219.1" class="st8" width="49" height="35"/>
	<g id="XMLID_38_">
		<text transform="matrix(1 0 0 1 28.7989 249.5508)" class="st9" style="font-family:'Roboto-Medium'; font-size:4.1776px;">#0d74d1</text>
	</g>
	
		<text id="XMLID_37_" transform="matrix(1 0 0 1 3.4337 228.6758)" class="st9" style="font-family:'Roboto-Medium'; font-size:4.1776px;">700 (primary)</text>
	<rect id="XMLID_36_" x="49.4" y="219.1" class="st10" width="49" height="35"/>
	<g id="XMLID_34_">
		<text transform="matrix(1 0 0 1 78.2335 249.5508)" class="st9" style="font-family:'Roboto-Medium'; font-size:4.1776px;">#F44336</text>
	</g>
	
		<text id="XMLID_33_" transform="matrix(1 0 0 1 52.3087 228.6758)" class="st9" style="font-family:'Roboto-Medium'; font-size:4.1776px;">500 (primary)</text>
	<rect id="XMLID_31_" x="0.4" y="254.1" class="st7" width="49" height="35"/>
	<g id="XMLID_23_">
		<text transform="matrix(1 0 0 1 28.798 283.7335)" class="st9" style="font-family:'Roboto-Medium'; font-size:4.1776px;">#4caf51</text>
	</g>
	
		<text id="XMLID_19_" transform="matrix(1 0 0 1 2.8732 262.8594)" class="st9" style="font-family:'Roboto-Medium'; font-size:4.1776px;">500 (primary)</text>
	<rect id="XMLID_16_" x="49.4" y="254.1" class="st11" width="49" height="35"/>
	<g id="XMLID_14_">
		<text transform="matrix(1 0 0 1 78.2335 283.7335)" class="st9" style="font-family:'Roboto-Medium'; font-size:4.1776px;">#f57c00</text>
	</g>
	
		<text id="XMLID_13_" transform="matrix(1 0 0 1 52.3087 262.8594)" class="st9" style="font-family:'Roboto-Medium'; font-size:4.1776px;">500 (primary)</text>
</g>
<rect x="159" y="0.1" class="st0" width="99.7" height="99.7"/>
<g>
	<g>
		<path id="XMLID_1_" class="st15" d="M-102.8,260.5h-83.4c-0.7,0-1.3-0.6-1.3-1.3v-16c0-0.7,0.6-1.3,1.3-1.3h83.4
			c0.7,0,1.3,0.6,1.3,1.3v16C-101.5,259.9-102.1,260.5-102.8,260.5z"/>
		<g>
			<line class="st16" x1="-143.3" y1="255.2" x2="-143.3" y2="260.5"/>
			<line class="st16" x1="-145" y1="255.6" x2="-141.7" y2="255.6"/>
			<line class="st16" x1="-145" y1="260.1" x2="-141.7" y2="260.1"/>
		</g>
		<g>
			<line class="st16" x1="-109.6" y1="252.6" x2="-101.6" y2="252.6"/>
			<line class="st16" x1="-110.1" y1="254.1" x2="-110.1" y2="250.1"/>
			<line class="st16" x1="-102.1" y1="254.1" x2="-102.1" y2="250.1"/>
		</g>
		<g>
			<line class="st16" x1="-187.2" y1="252.1" x2="-179.2" y2="252.1"/>
			<line class="st16" x1="-186.9" y1="253.8" x2="-186.9" y2="250.4"/>
			<line class="st16" x1="-178.9" y1="253.8" x2="-178.9" y2="250.4"/>
		</g>
		<g>
			<line class="st16" x1="-143.1" y1="242.1" x2="-143.1" y2="248.1"/>
			<line class="st16" x1="-144.6" y1="242.6" x2="-141.6" y2="242.6"/>
			<line class="st16" x1="-144.6" y1="248.6" x2="-141.6" y2="248.6"/>
		</g>
		<text transform="matrix(1 0 0 1 -148.1958 238.0767)" class="st17" style="font-family:'Roboto-Regular'; font-size:5.9899px;">8px</text>
		<text transform="matrix(1 0 0 1 -110.9995 267.9556)" class="st17" style="font-family:'Roboto-Regular'; font-size:5.9899px;">12px</text>
		<text transform="matrix(1 0 0 1 -189.7446 268.4752)" class="st17" style="font-family:'Roboto-Regular'; font-size:5.9899px;">12px</text>
		<text transform="matrix(1 0 0 1 -144.9809 266.4224)" class="st17" style="font-family:'Roboto-Regular'; font-size:5.9899px;">8px</text>
		<text transform="matrix(1 0 0 1 -179.476 254.9165)" class="st8" style="font-family:'Roboto-Medium'; font-size:9.9832px;">ROB MED 12PX</text>
	</g>
</g>
<g>
	<text transform="matrix(1 0 0 1 163.7381 41.6497)" class="st18" style="font-family:'Roboto-Bold'; font-size:28px;">Place</text>
</g>
<text transform="matrix(1 0 0 1 163.7381 81.2455)" class="st19" style="font-family:'Roboto-Bold'; font-size:28px;">Holder</text>
</svg>
