<?xml version="1.0" encoding="utf-8"?>
<!-- Generator: Adobe Illustrator 19.2.1, SVG Export Plug-In . SVG Version: 6.00 Build 0)  -->
<svg version="1.1" id="Layer_1" xmlns="http://www.w3.org/2000/svg" xmlns:xlink="http://www.w3.org/1999/xlink" x="0px" y="0px"
	 viewBox="0 0 236 80" style="enable-background:new 0 0 236 80;" xml:space="preserve">
<style type="text/css">
	.st0{fill:#767677;}
	.st1{clip-path:url(#SVGID_2_);}
	.st2{clip-path:url(#SVGID_4_);fill:#0D94A6;}
	.st3{clip-path:url(#SVGID_4_);fill:#FFFFFF;}
	.st4{clip-path:url(#SVGID_4_);fill:#BDBDBD;}
	.st5{fill:#0F95A7;}
	.st6{fill:#BDBDBD;}
	.st7{fill:#F5F5F5;}
	.st8{fill:#E0E0E0;}
	.st9{fill:#989798;}
	.st10{fill:#FAFAFA;}
	.st11{fill:#E0E1E0;}
	.st12{fill:#9D9D9D;}
	.st13{fill:#616262;}
	.st14{fill:#FFFFFF;}
	.st15{clip-path:url(#SVGID_6_);}
	.st16{clip-path:url(#SVGID_8_);fill:#BDBDBD;}
	.st17{clip-path:url(#SVGID_8_);fill:#FFFFFF;}
</style>
<path class="st0" d="M924.4,247.8l5.4-14.9h1.7l5.3,14.9h-2.1l-1.3-3.8h-5.7l-1.3,3.8H924.4z M928.4,242.3h4.5l-2.2-6.4h-0.1
	L928.4,242.3z"/>
<path class="st0" d="M939,247.8V233h4.9c1.6,0,2.8,0.3,3.7,1c0.9,0.7,1.3,1.7,1.3,3c0,0.6-0.2,1.2-0.6,1.7s-0.9,0.9-1.6,1.2
	c1,0.1,1.8,0.6,2.3,1.3s0.9,1.5,0.9,2.5c0,1.4-0.4,2.4-1.3,3.1s-2.1,1.1-3.6,1.1H939z M941.1,239.3h3.3c0.8,0,1.4-0.2,1.9-0.6
	c0.5-0.4,0.7-1,0.7-1.7c0-0.8-0.3-1.4-0.8-1.8c-0.5-0.4-1.3-0.6-2.2-0.6h-2.9V239.3z M941.1,246.2h3.9c0.9,0,1.7-0.2,2.2-0.7
	c0.5-0.5,0.8-1.1,0.8-1.9c0-0.8-0.3-1.5-0.8-2c-0.5-0.5-1.2-0.8-2.1-0.8h-0.1h-3.8V246.2z"/>
<path class="st0" d="M952.1,241.7v-2.6c0-1.8,0.5-3.3,1.6-4.5c1.1-1.2,2.5-1.8,4.2-1.8c1.7,0,3.1,0.4,4.1,1.3c1,0.9,1.5,2,1.5,3.4
	c0,0,0,0.1,0,0.1l0,0.1h-2c0-1-0.3-1.9-0.9-2.5c-0.6-0.6-1.5-0.9-2.6-0.9c-1.1,0-2,0.5-2.7,1.4c-0.7,0.9-1,2-1,3.4v2.7
	c0,1.4,0.3,2.5,1,3.4c0.7,0.9,1.6,1.4,2.7,1.4c1.1,0,2-0.3,2.6-0.9c0.6-0.6,0.9-1.4,0.9-2.5h2l0,0.1c0,0,0,0.1,0,0.1
	c0,1.3-0.5,2.5-1.5,3.4c-1,0.9-2.4,1.4-4,1.4c-1.7,0-3.1-0.6-4.2-1.8C952.6,245,952.1,243.5,952.1,241.7z"/>
<path class="st0" d="M966.3,247.8V233h4.7c2,0,3.5,0.6,4.7,1.8s1.8,2.7,1.8,4.6v2c0,1.9-0.6,3.4-1.8,4.6s-2.8,1.8-4.7,1.8H966.3z
	 M968.3,246.2h2.7c1.4,0,2.5-0.5,3.3-1.4s1.2-2.1,1.2-3.5v-2c0-1.4-0.4-2.6-1.2-3.5s-1.9-1.4-3.3-1.4h-2.7V246.2z"/>
<path class="st0" d="M980.2,247.8V233h9.2v1.6h-7.1v4.8h6.2v1.6h-6.2v5.3h7.2v1.6H980.2z"/>
<path class="st0" d="M992.3,247.8V233h9.4v1.6h-7.4v5.1h6.4v1.6h-6.4v6.6H992.3z"/>
<path class="st0" d="M1003.5,241.9v-3.1c0-1.8,0.5-3.3,1.6-4.4c1.1-1.1,2.5-1.7,4.2-1.7c1.7,0,3,0.4,4,1.3c0.9,0.9,1.4,1.9,1.4,3.3
	c0,0,0,0.1,0,0.1l0,0.1h-2c0-0.9-0.3-1.7-0.9-2.3c-0.6-0.6-1.4-0.9-2.5-0.9c-1.2,0-2.1,0.4-2.8,1.3c-0.7,0.8-1.1,1.9-1.1,3.2v3.1
	c0,1.3,0.4,2.4,1.1,3.3c0.7,0.9,1.7,1.3,2.9,1.3c0.9,0,1.6-0.1,2.1-0.3c0.5-0.2,0.9-0.5,1.2-0.8V242h-3.4v-1.6h5.5v5.4
	c-0.4,0.6-1,1.1-1.9,1.5c-0.9,0.5-2,0.7-3.5,0.7c-1.7,0-3.2-0.6-4.3-1.7C1004,245.2,1003.5,243.7,1003.5,241.9z"/>
<path class="st0" d="M1017.8,247.8V233h2v6.7h7.3V233h2v14.9h-2v-6.6h-7.3v6.6H1017.8z"/>
<path class="st0" d="M1033.5,247.8V233h2v14.9H1033.5z"/>
<path class="st0" d="M1038.3,243.8L1038.3,243.8l2-0.1c0,0.9,0.2,1.6,0.7,2.1s1.1,0.7,1.9,0.7c0.8,0,1.4-0.3,1.8-0.8
	c0.5-0.5,0.7-1.3,0.7-2.1V233h2v10.6c0,1.4-0.4,2.5-1.3,3.3c-0.9,0.8-2,1.2-3.3,1.2c-1.4,0-2.5-0.4-3.3-1.1c-0.8-0.7-1.2-1.7-1.2-3
	C1038.3,243.9,1038.3,243.8,1038.3,243.8z"/>
<path class="st0" d="M1050.6,247.8V233h2v6.6h1.1l5.6-6.6h2.3l0,0.1l-6.1,7l6.5,7.7l0,0.1h-2.5l-5.6-6.7h-1.3v6.7H1050.6z"/>
<path class="st0" d="M1064.3,247.8V233h2v13.3h7.3v1.6H1064.3z"/>
<path class="st0" d="M1076,247.8V233h2.7l4.8,12.1h0.1l4.8-12.1h2.5v14.9h-2v-11.1l-0.1,0l-4.6,11.1h-1.4l-4.7-11.5l-0.1,0v11.5
	H1076z"/>
<path class="st0" d="M1094,247.8V233h2l7.3,11.3l0.1,0V233h2v14.9h-2l-7.3-11.4l-0.1,0v11.3H1094z"/>
<path class="st0" d="M1108.3,241.7v-2.6c0-1.8,0.6-3.3,1.7-4.5c1.1-1.2,2.5-1.8,4.3-1.8c1.8,0,3.3,0.6,4.4,1.8
	c1.1,1.2,1.7,2.7,1.7,4.5v2.6c0,1.8-0.6,3.3-1.7,4.5c-1.1,1.2-2.6,1.8-4.4,1.8c-1.8,0-3.2-0.6-4.3-1.8
	C1108.8,245,1108.3,243.5,1108.3,241.7z M1110.3,241.7c0,1.4,0.4,2.5,1.1,3.4s1.7,1.3,2.8,1.3c1.3,0,2.3-0.4,3-1.3
	c0.7-0.9,1.1-2,1.1-3.4V239c0-1.4-0.4-2.5-1.1-3.4s-1.7-1.3-3-1.3c-1.2,0-2.1,0.4-2.8,1.3s-1.1,2-1.1,3.4V241.7z"/>
<path class="st0" d="M1122.9,247.8V233h5.8c1.6,0,2.9,0.4,3.7,1.2s1.3,1.9,1.3,3.2c0,1.4-0.4,2.4-1.3,3.2c-0.9,0.8-2.1,1.2-3.7,1.2
	h-3.7v6H1122.9z M1125,240.3h3.7c1,0,1.8-0.3,2.3-0.8c0.5-0.5,0.8-1.2,0.8-2s-0.3-1.5-0.8-2.1c-0.5-0.6-1.3-0.8-2.3-0.8h-3.7V240.3z
	"/>
<path class="st0" d="M1135.8,241.7v-2.6c0-1.8,0.6-3.3,1.7-4.5c1.1-1.2,2.5-1.8,4.3-1.8c1.8,0,3.3,0.6,4.4,1.8
	c1.1,1.2,1.7,2.7,1.7,4.5v2.6c0,0.8-0.1,1.5-0.3,2.2c-0.2,0.7-0.6,1.3-1,1.9l2.2,2.1l-1.4,1.3l-2.3-2.2c-0.5,0.3-1,0.5-1.6,0.7
	c-0.6,0.2-1.2,0.2-1.8,0.2c-1.8,0-3.2-0.6-4.3-1.8C1136.4,245,1135.8,243.5,1135.8,241.7z M1137.9,241.7c0,1.4,0.4,2.5,1.1,3.4
	s1.7,1.3,2.8,1.3c1.3,0,2.3-0.4,3-1.3c0.7-0.9,1.1-2,1.1-3.4V239c0-1.4-0.4-2.5-1.1-3.4s-1.7-1.3-3-1.3c-1.2,0-2.1,0.4-2.8,1.3
	s-1.1,2-1.1,3.4V241.7z"/>
<path class="st0" d="M933.4,268.5l3.6,6.2h-2.3l-3.5-6h-3.5v6h-2v-14.9h5.8c1.6,0,2.9,0.4,3.7,1.2c0.9,0.8,1.3,1.9,1.3,3.2
	c0,1.4-0.4,2.4-1.3,3.2C934.8,268,934.2,268.3,933.4,268.5z M927.8,267.2h3.7c1,0,1.8-0.3,2.3-0.8c0.5-0.5,0.8-1.2,0.8-2.1
	c0-0.8-0.3-1.5-0.8-2.1c-0.5-0.6-1.3-0.8-2.3-0.8h-3.7V267.2z"/>
<path class="st0" d="M938.8,270.5L938.8,270.5l2-0.1c0,0.9,0.4,1.6,1.1,2.2c0.7,0.5,1.5,0.8,2.4,0.8c1,0,1.7-0.2,2.3-0.6
	c0.6-0.4,0.8-1,0.8-1.7c0-0.7-0.2-1.2-0.7-1.7c-0.5-0.5-1.4-0.8-2.6-1.2c-1.5-0.4-2.7-0.9-3.6-1.7c-0.9-0.7-1.3-1.6-1.3-2.7
	c0-1.2,0.5-2.1,1.4-2.9s2.1-1.2,3.6-1.2c1.6,0,2.8,0.5,3.8,1.3c0.9,0.9,1.4,1.9,1.4,3c0,0,0,0.1,0,0.1l0,0.1h-1.9
	c0-0.8-0.3-1.5-0.9-2.1c-0.6-0.6-1.4-0.8-2.3-0.8c-1,0-1.7,0.2-2.2,0.7c-0.5,0.5-0.8,1-0.8,1.8c0,0.6,0.3,1.2,0.8,1.6
	c0.6,0.4,1.5,0.8,2.7,1.1c1.5,0.4,2.7,1,3.5,1.7c0.8,0.8,1.2,1.7,1.2,2.8c0,1.2-0.5,2.2-1.4,2.9c-1,0.7-2.2,1.1-3.7,1.1
	c-1.5,0-2.7-0.4-3.9-1.2c-1.1-0.8-1.6-1.8-1.6-3.1C938.8,270.5,938.8,270.5,938.8,270.5z"/>
<path class="st0" d="M950.9,261.4v-1.6h11.9v1.6h-5v13.3h-2v-13.3H950.9z"/>
<path class="st0" d="M965,269.7v-9.9h2v9.9c0,1.1,0.3,2,1,2.7c0.7,0.6,1.5,1,2.6,1c1.1,0,2-0.3,2.7-1s1-1.5,1-2.7v-9.9h2v9.9
	c0,1.6-0.5,2.9-1.6,3.8c-1.1,0.9-2.5,1.4-4.2,1.4c-1.6,0-3-0.5-4-1.4S965,271.3,965,269.7z"/>
<path class="st0" d="M978.3,259.8h2.2l3.9,11l0.3,1.2h0.1l0.3-1.2l3.9-11h2.2l-5.6,14.9h-1.7L978.3,259.8z"/>
<path class="st0" d="M992.7,259.8h2.2l2.2,9.7l0.3,2l0.1,0l0.3-2l2.7-9.7h2l2.7,9.7l0.4,2h0.1l0.3-2l2.2-9.7h2.2l-3.6,14.9h-1.8
	l-3-10.3l-0.3-1.3h-0.1l-0.3,1.3l-3.1,10.4h-1.6L992.7,259.8z"/>
<path class="st0" d="M1011.7,274.7l4.9-7.5l-4.8-7.4h2.4l3.5,5.8l3.5-5.8h2.5l-4.8,7.4l4.9,7.5h-2.4l-3.6-5.9l-3.6,5.9H1011.7z"/>
<path class="st0" d="M1025.2,259.8h2.3l3.9,7.6l3.9-7.6h2.3l-5.3,9.6v5.2h-2v-5.4L1025.2,259.8z"/>
<path class="st0" d="M1039.4,274.7v-1.5l8.1-11.8h-7.9v-1.6h10.3v1.4l-8.1,11.8h8.4v1.6H1039.4z"/>
<path class="st0" d="M1051.5,271.6c0-1.1,0.4-1.9,1.3-2.5c0.9-0.6,2-0.9,3.5-0.9h2.2v-1.1c0-0.6-0.2-1.2-0.6-1.5
	c-0.4-0.4-1-0.6-1.7-0.6c-0.7,0-1.2,0.2-1.6,0.5c-0.4,0.3-0.6,0.7-0.6,1.2l-2,0l0-0.1c0,0,0-0.1,0-0.1c0-0.7,0.4-1.4,1.2-2.1
	c0.8-0.7,1.9-1,3.2-1c1.3,0,2.3,0.3,3.1,1c0.8,0.6,1.2,1.6,1.2,2.8v5.3c0,0.4,0,0.8,0.1,1.1c0,0.4,0.1,0.7,0.2,1.1h-2.1
	c-0.1-0.3-0.1-0.6-0.2-0.9c0-0.3-0.1-0.5-0.1-0.8c-0.4,0.5-0.9,1-1.5,1.3c-0.6,0.4-1.3,0.5-2,0.5c-1.2,0-2.1-0.3-2.7-0.9
	C1051.8,273.4,1051.5,272.6,1051.5,271.6z M1053.5,271.6c0,0.5,0.2,0.9,0.5,1.2c0.3,0.3,0.8,0.4,1.4,0.4c0.7,0,1.4-0.2,2-0.6
	c0.6-0.4,1-0.8,1.2-1.3v-1.8h-2.3c-0.8,0-1.5,0.2-2,0.6C1053.8,270.6,1053.5,271.1,1053.5,271.6z"/>
<path class="st0" d="M1064,274.7v-15.9h2v6.2c0.4-0.5,0.8-0.9,1.3-1.1c0.5-0.3,1.1-0.4,1.8-0.4c1.4,0,2.5,0.5,3.2,1.6
	c0.8,1.1,1.2,2.5,1.2,4.3v0.2c0,1.6-0.4,2.9-1.2,3.9c-0.8,1-1.8,1.5-3.2,1.5c-0.7,0-1.4-0.1-1.9-0.4c-0.5-0.3-1-0.7-1.4-1.3
	l-0.3,1.5H1064z M1066,271.5c0.3,0.5,0.6,1,1,1.3c0.4,0.3,1,0.5,1.6,0.5c1,0,1.7-0.3,2.1-1c0.5-0.7,0.7-1.6,0.7-2.7v-0.2
	c0-1.3-0.2-2.3-0.7-3.1c-0.5-0.8-1.2-1.2-2.2-1.2c-0.6,0-1.2,0.2-1.6,0.5c-0.4,0.3-0.8,0.7-1,1.2V271.5z"/>
<path class="st0" d="M1075.8,269.4V269c0-1.6,0.4-2.9,1.3-3.9c0.9-1.1,2.1-1.6,3.6-1.6c1.3,0,2.3,0.4,3.1,1.1
	c0.8,0.7,1.2,1.6,1.2,2.7c0,0,0,0.1,0,0.1l0,0.1h-1.9c0-0.7-0.2-1.2-0.7-1.7c-0.4-0.5-1-0.7-1.7-0.7c-1,0-1.7,0.4-2.2,1.1
	c-0.5,0.8-0.7,1.7-0.7,2.8v0.4c0,1.1,0.2,2,0.7,2.8c0.5,0.8,1.2,1.1,2.2,1.1c0.6,0,1.2-0.2,1.6-0.6c0.5-0.4,0.7-0.9,0.7-1.5h1.8
	l0,0.1c0,0,0,0.1,0,0.1c0,0.9-0.4,1.7-1.2,2.4c-0.9,0.7-1.8,1.1-3,1.1c-1.6,0-2.8-0.5-3.6-1.6S1075.8,271,1075.8,269.4z"/>
<path class="st0" d="M1087.3,269.6v-0.2c0-1.8,0.4-3.2,1.2-4.3s1.8-1.6,3.2-1.6c0.7,0,1.2,0.1,1.7,0.4c0.5,0.2,0.9,0.6,1.3,1v-6.1h2
	v15.9h-1.6l-0.3-1.4c-0.4,0.5-0.8,0.9-1.4,1.2c-0.5,0.3-1.2,0.4-1.9,0.4c-1.4,0-2.4-0.5-3.2-1.5
	C1087.7,272.5,1087.3,271.2,1087.3,269.6z M1089.4,269.6c0,1.1,0.2,2,0.7,2.7c0.5,0.7,1.2,1,2.2,1c0.6,0,1.1-0.1,1.5-0.4
	s0.8-0.7,1-1.1v-5.2c-0.3-0.5-0.6-0.8-1-1.1c-0.4-0.3-0.9-0.4-1.5-0.4c-1,0-1.7,0.4-2.2,1.2c-0.5,0.8-0.7,1.8-0.7,3.1V269.6z"/>
<path class="st0" d="M1099.5,269.4v-0.4c0-1.6,0.5-2.9,1.4-3.9c0.9-1,2.1-1.6,3.4-1.6c1.5,0,2.6,0.5,3.4,1.4
	c0.7,0.9,1.1,2.1,1.1,3.7v1.1h-7.2l0,0.1c0,1.1,0.2,2,0.7,2.7c0.5,0.7,1.3,1,2.3,1c0.7,0,1.3-0.1,1.8-0.3c0.5-0.2,1-0.5,1.3-0.8
	l0.8,1.3c-0.4,0.4-0.9,0.7-1.6,1c-0.7,0.3-1.4,0.4-2.4,0.4c-1.6,0-2.9-0.5-3.8-1.5S1099.5,271,1099.5,269.4z M1101.7,267.9
	L1101.7,267.9l5.1,0.1v-0.2c0-0.8-0.2-1.5-0.6-2c-0.4-0.5-1-0.8-1.9-0.8c-0.7,0-1.3,0.3-1.8,0.8S1101.8,267.1,1101.7,267.9z"/>
<path class="st0" d="M1110.7,265.1v-1.5h1.7v-1.4c0-1.2,0.3-2.1,0.9-2.7c0.6-0.6,1.5-1,2.6-1c0.2,0,0.5,0,0.7,0.1s0.5,0.1,0.8,0.2
	l-0.2,1.5c-0.1,0-0.3-0.1-0.5-0.1c-0.2,0-0.4,0-0.6,0c-0.6,0-1,0.2-1.3,0.5c-0.3,0.3-0.4,0.9-0.4,1.5v1.4h2v1.5h-2v9.6h-2v-9.6
	H1110.7z"/>
<path class="st0" d="M1118.9,269.6v-0.2c0-1.8,0.4-3.2,1.2-4.3s1.8-1.6,3.2-1.6c0.7,0,1.3,0.1,1.9,0.4s1,0.7,1.4,1.2l0.2-1.4h1.6
	v11.1c0,1.4-0.4,2.5-1.3,3.3s-2,1.1-3.6,1.1c-0.5,0-1.1-0.1-1.7-0.2c-0.6-0.1-1.2-0.3-1.7-0.6l0.3-1.6c0.4,0.2,0.9,0.4,1.4,0.5
	c0.6,0.1,1.1,0.2,1.6,0.2c1,0,1.7-0.2,2.2-0.7c0.5-0.4,0.7-1.1,0.7-2v-1.3c-0.4,0.5-0.8,0.8-1.3,1.1c-0.5,0.2-1.1,0.4-1.8,0.4
	c-1.4,0-2.4-0.5-3.2-1.5C1119.2,272.5,1118.9,271.2,1118.9,269.6z M1120.9,269.6c0,1.1,0.2,2,0.7,2.7s1.2,1,2.1,1
	c0.6,0,1.1-0.1,1.5-0.4c0.4-0.3,0.8-0.7,1-1.2v-5.1c-0.3-0.5-0.6-0.8-1-1.1c-0.4-0.3-0.9-0.4-1.5-0.4c-1,0-1.7,0.4-2.2,1.2
	c-0.5,0.8-0.7,1.8-0.7,3.1V269.6z"/>
<path class="st0" d="M1131.7,274.7v-15.9h2v6.4c0.4-0.5,0.9-0.9,1.4-1.2c0.6-0.3,1.2-0.4,1.9-0.4c1.2,0,2.1,0.4,2.8,1.1s1,1.8,1,3.3
	v6.9h-2v-6.9c0-0.9-0.2-1.6-0.6-2c-0.4-0.4-1-0.7-1.8-0.7c-0.6,0-1.1,0.1-1.6,0.4c-0.4,0.2-0.8,0.6-1.1,1v8.3H1131.7z"/>
<path class="st0" d="M1144.4,260.8v-2.1h2v2.1H1144.4z M1144.4,274.7v-11h2v11H1144.4z"/>
<path class="st0" d="M923.3,306l0.1-1.7c0.1,0,0.2,0.1,0.4,0.1c0.2,0,0.3,0,0.4,0c0.4,0,0.8-0.2,1.1-0.4c0.3-0.3,0.4-0.8,0.4-1.5
	v-12h2v12c0,1.1-0.3,2-0.9,2.6c-0.6,0.6-1.4,0.9-2.5,0.9c-0.2,0-0.4,0-0.6,0S923.5,306,923.3,306z M925.7,287.7v-2h2v2H925.7z"/>
<path class="st0" d="M933.7,301.6v-15.9h2v9.2h1l3.4-4.4h2.4l-4.1,5.1l4.4,5.9h-2.4l-3.7-5.1h-1v5.1H933.7z"/>
<path class="st0" d="M947.3,301.6v-15.9h2v15.9H947.3z"/>
<path class="st0" d="M955.3,301.6v-11h1.8l0.1,1.4c0.4-0.5,0.8-0.9,1.4-1.2s1.2-0.4,2-0.4c0.7,0,1.4,0.2,1.9,0.5
	c0.5,0.3,0.9,0.9,1.2,1.5c0.4-0.6,0.8-1.1,1.4-1.5s1.3-0.5,2-0.5c1.1,0,2,0.4,2.7,1.2s1,1.9,1,3.5v6.6h-2v-6.6
	c0-1.1-0.2-1.9-0.6-2.3c-0.4-0.5-0.9-0.7-1.7-0.7c-0.7,0-1.3,0.2-1.7,0.7c-0.4,0.5-0.7,1.1-0.8,1.8v0.1v7h-2v-6.6
	c0-1-0.2-1.8-0.6-2.3c-0.4-0.5-1-0.7-1.7-0.7c-0.6,0-1.1,0.1-1.5,0.4s-0.7,0.6-0.9,1.1v8.2H955.3z"/>
<path class="st0" d="M976,301.6v-11h1.8l0.1,1.6c0.4-0.6,0.8-1,1.4-1.4c0.6-0.3,1.2-0.5,1.9-0.5c1.2,0,2.1,0.3,2.8,1
	c0.7,0.7,1,1.8,1,3.2v7h-2v-6.9c0-1-0.2-1.7-0.6-2.1s-1-0.6-1.8-0.6c-0.6,0-1.2,0.1-1.6,0.4c-0.4,0.2-0.8,0.6-1,1v8.2H976z"/>
<path class="st0" d="M989.8,296.2v-0.2c0-1.6,0.4-3,1.3-4c0.9-1.1,2.1-1.6,3.7-1.6c1.6,0,2.8,0.5,3.7,1.6s1.4,2.4,1.4,4v0.2
	c0,1.6-0.4,3-1.3,4s-2.1,1.6-3.7,1.6c-1.5,0-2.8-0.5-3.7-1.6C990.2,299.1,989.8,297.8,989.8,296.2z M991.8,296.2
	c0,1.2,0.2,2.1,0.8,2.9c0.5,0.8,1.2,1.1,2.2,1.1c1,0,1.7-0.4,2.2-1.1c0.5-0.8,0.8-1.7,0.8-2.9v-0.2c0-1.2-0.3-2.1-0.8-2.9
	c-0.5-0.8-1.2-1.2-2.2-1.2c-1,0-1.7,0.4-2.2,1.2c-0.5,0.8-0.8,1.7-0.8,2.9V296.2z"/>
<path class="st0" d="M1004.5,305.8v-15.3h1.6l0.3,1.4c0.4-0.5,0.8-0.9,1.4-1.2c0.5-0.3,1.2-0.4,1.9-0.4c1.4,0,2.5,0.5,3.2,1.6
	c0.8,1.1,1.2,2.5,1.2,4.3v0.2c0,1.6-0.4,2.9-1.2,3.9c-0.8,1-1.8,1.5-3.2,1.5c-0.7,0-1.3-0.1-1.8-0.3c-0.5-0.2-1-0.6-1.3-1v5.4
	H1004.5z M1006.5,298.7c0.3,0.5,0.6,0.8,1,1.1s0.9,0.4,1.5,0.4c1,0,1.7-0.3,2.2-1c0.5-0.7,0.7-1.6,0.7-2.7v-0.2
	c0-1.2-0.2-2.3-0.8-3.1c-0.5-0.8-1.2-1.2-2.2-1.2c-0.6,0-1.1,0.1-1.5,0.4s-0.7,0.6-1,1.1V298.7z"/>
<path class="st0" d="M1018.4,296.5v-0.2c0-1.8,0.4-3.2,1.2-4.3s1.8-1.6,3.2-1.6c0.7,0,1.3,0.1,1.8,0.4s1,0.6,1.3,1.1l0.3-1.3h1.6
	v15.3h-2v-5.3c-0.4,0.4-0.8,0.7-1.3,0.9c-0.5,0.2-1,0.3-1.7,0.3c-1.4,0-2.4-0.5-3.2-1.5C1018.8,299.3,1018.4,298.1,1018.4,296.5z
	 M1020.5,296.5c0,1.1,0.2,2,0.7,2.7c0.5,0.7,1.2,1,2.1,1c0.6,0,1-0.1,1.4-0.4c0.4-0.2,0.7-0.6,1-1v-5.6c-0.3-0.4-0.6-0.7-1-1
	c-0.4-0.2-0.9-0.4-1.4-0.4c-1,0-1.7,0.4-2.2,1.2c-0.5,0.8-0.7,1.9-0.7,3.1V296.5z"/>
<path class="st0" d="M1033.7,301.6v-11h1.8l0.2,1.6c0.3-0.6,0.7-1,1.2-1.3c0.5-0.3,1-0.5,1.6-0.5c0.2,0,0.3,0,0.4,0
	c0.1,0,0.3,0,0.3,0.1l-0.3,1.9l-1-0.1c-0.5,0-1,0.1-1.4,0.4c-0.4,0.3-0.7,0.6-0.9,1.1v7.9H1033.7z"/>
<path class="st0" d="M1043,298.2L1043,298.2l2-0.1c0,0.7,0.3,1.2,0.8,1.6c0.5,0.3,1.1,0.5,1.8,0.5c0.7,0,1.3-0.2,1.7-0.5
	c0.4-0.3,0.6-0.7,0.6-1.2c0-0.4-0.2-0.8-0.5-1.1c-0.3-0.3-1-0.5-1.9-0.7c-1.3-0.3-2.3-0.7-3-1.2s-1.1-1.2-1.1-2
	c0-0.9,0.4-1.7,1.2-2.3c0.8-0.6,1.8-1,3-1c1.3,0,2.4,0.3,3.2,1c0.8,0.7,1.2,1.4,1.2,2.3c0,0,0,0.1,0,0.1l0,0.1h-2.1
	c0-0.5-0.2-0.9-0.6-1.3c-0.4-0.4-1-0.6-1.6-0.6c-0.7,0-1.3,0.2-1.6,0.5s-0.5,0.7-0.5,1.1c0,0.4,0.2,0.8,0.5,1
	c0.3,0.2,0.9,0.5,1.9,0.7c1.4,0.3,2.4,0.7,3.1,1.2s1.1,1.2,1.1,2c0,1-0.4,1.8-1.2,2.4c-0.8,0.6-1.9,0.9-3.2,0.9
	c-1.4,0-2.6-0.4-3.4-1.1c-0.8-0.7-1.2-1.5-1.2-2.4C1043,298.3,1043,298.2,1043,298.2z"/>
<path class="st0" d="M1055.6,292v-1.5h1.8v-2.7h2v2.7h2.1v1.5h-2.1v6.7c0,0.5,0.1,0.9,0.3,1.1c0.2,0.2,0.5,0.3,0.9,0.3
	c0.1,0,0.2,0,0.4,0c0.1,0,0.3-0.1,0.4-0.1l0.3,1.4c-0.2,0.1-0.4,0.2-0.7,0.3c-0.3,0.1-0.6,0.1-0.9,0.1c-0.8,0-1.5-0.2-2-0.7
	c-0.5-0.5-0.7-1.3-0.7-2.3V292H1055.6z"/>
<path class="st0" d="M1066.4,297v-6.5h2v6.5c0,1.2,0.2,2,0.5,2.4s0.9,0.7,1.6,0.7c0.7,0,1.3-0.1,1.8-0.4s0.8-0.7,1.1-1.2v-8h2v11
	h-1.8l-0.1-1.6c-0.4,0.6-0.8,1-1.4,1.4c-0.6,0.3-1.2,0.5-1.9,0.5c-1.2,0-2.2-0.4-2.9-1.2C1066.7,299.9,1066.4,298.7,1066.4,297z"/>
<path class="st0" d="M1079.9,290.5h2.1l2.6,7.8l0.2,0.8h0.1l0.2-0.8l2.6-7.8h2.1l-4.1,11h-1.5L1079.9,290.5z"/>
<path class="st0" d="M1092.9,290.5h2.1l1.8,7l0.3,1.4h0.1l0.3-1.4l2.2-7h1.6l2.2,7l0.3,1.6h0.1l0.3-1.6l1.7-7h2.1l-3.2,11h-1.6
	l-2.2-6.7l-0.4-1.8h-0.1l-0.4,1.8l-2.2,6.7h-1.6L1092.9,290.5z"/>
<path class="st0" d="M1111.7,301.6l3.7-5.6l-3.6-5.5h2.3l2.3,4.1l2.4-4.1h2.4l-3.6,5.5l3.7,5.6h-2.3l-2.5-4.2l-2.5,4.2H1111.7z"/>
<path class="st0" d="M1124.9,290.5h2.3l2.4,7l0.4,1.4h0.1l2.8-8.3h2.3l-4.7,12.7c-0.3,0.7-0.7,1.4-1.2,1.9c-0.5,0.6-1.2,0.8-2.1,0.8
	c-0.2,0-0.4,0-0.6-0.1c-0.3,0-0.5-0.1-0.6-0.1l0.2-1.6c0,0,0.1,0,0.4,0c0.3,0,0.5,0,0.5,0c0.4,0,0.8-0.2,1.1-0.6
	c0.3-0.4,0.5-0.8,0.7-1.3l0.5-1.2L1124.9,290.5z"/>
<path class="st0" d="M1138.9,301.6v-1.4l6.1-8h-6v-1.6h8.5v1.4l-6.1,8.1h6.5v1.6H1138.9z"/>
<g id="toggle">
	<g>
		<defs>
			<rect id="SVGID_1_" x="64.3" y="0" width="62.6" height="28"/>
		</defs>
		<clipPath id="SVGID_2_">
			<use xlink:href="#SVGID_1_"  style="overflow:visible;"/>
		</clipPath>
		<g class="st1">
			<defs>
				<rect id="SVGID_3_" x="64.3" y="0" width="62.6" height="28"/>
			</defs>
			<clipPath id="SVGID_4_">
				<use xlink:href="#SVGID_3_"  style="overflow:visible;"/>
			</clipPath>
			<path class="st2" d="M126.9,14c0,7.7-5.8,14-12.9,14H77.2c-7.1,0-12.9-6.3-12.9-14S70.1,0,77.2,0H114C121.1,0,126.9,6.3,126.9,14
				"/>
			<path class="st3" d="M78.3,27.5c-7.4,0-13.5-6-13.5-13.5s6-13.5,13.5-13.5s13.5,6,13.5,13.5S85.7,27.5,78.3,27.5"/>
			<path class="st4" d="M78.3,1.1c7.2,0,13,5.8,13,13s-5.8,13-13,13c-7.2,0-13-5.8-13-13S71.1,1.1,78.3,1.1 M78.3,0.1
				c-7.7,0-14,6.3-14,14s6.3,14,14,14s14-6.3,14-14S86,0.1,78.3,0.1"/>
		</g>
	</g>
</g>
<path class="st5" d="M8,30.3c-4.4,0-8,3.6-8,8s3.6,8,8,8s8-3.6,8-8S12.4,30.3,8,30.3z M8,41.1c-1.5,0-2.8-1.2-2.8-2.8
	c0-1.5,1.2-2.8,2.8-2.8s2.8,1.2,2.8,2.8C10.8,39.8,9.5,41.1,8,41.1z"/>
<path class="st6" d="M8,64c-4.4,0-8,3.6-8,8s3.6,8,8,8s8-3.6,8-8S12.4,64,8,64z M8,74.8c-1.5,0-2.8-1.2-2.8-2.8
	c0-1.5,1.2-2.8,2.8-2.8s2.8,1.2,2.8,2.8C10.8,73.5,9.5,74.8,8,74.8z"/>
<path class="st5" d="M43.8,30.3h-12c-1.1,0-2,0.9-2,2v12c0,1.1,0.9,2,2,2h12c1.1,0,2-0.9,2-2v-12C45.8,31.2,44.9,30.3,43.8,30.3z
	 M41.6,36.4l-4,5c-0.2,0.2-0.5,0.4-0.8,0.4c-0.2,0-0.5-0.1-0.7-0.3l-2-2c-0.2-0.2-0.3-0.4-0.3-0.7c0-0.2,0.1-0.5,0.3-0.7
	c0.2-0.2,0.4-0.3,0.7-0.3s0.5,0.1,0.7,0.3l1.2,1.2l3.3-4.1c0.2-0.3,0.5-0.4,0.8-0.4c0.2,0,0.4,0.1,0.6,0.2c0.3,0.2,0.4,0.5,0.4,0.8
	C41.8,36,41.7,36.2,41.6,36.4z"/>
<path class="st6" d="M43.8,64h-12c-1.1,0-2,0.9-2,2v12c0,1.1,0.9,2,2,2h12c1.1,0,2-0.9,2-2V66C45.8,64.9,44.9,64,43.8,64z
	 M41.6,70.1l-4,5c-0.2,0.2-0.5,0.4-0.8,0.4c-0.2,0-0.5-0.1-0.7-0.3l-2-2c-0.2-0.2-0.3-0.4-0.3-0.7c0-0.2,0.1-0.5,0.3-0.7
	c0.2-0.2,0.4-0.3,0.7-0.3s0.5,0.1,0.7,0.3l1.2,1.2l3.3-4.1c0.2-0.3,0.5-0.4,0.8-0.4c0.2,0,0.4,0.1,0.6,0.2c0.3,0.2,0.4,0.5,0.4,0.8
	C41.8,69.7,41.7,69.9,41.6,70.1z"/>
<path class="st6" d="M8,1c3.9,0,7,3.1,7,7s-3.1,7-7,7s-7-3.1-7-7S4.1,1,8,1 M8,0C3.6,0,0,3.6,0,8s3.6,8,8,8s8-3.6,8-8S12.4,0,8,0
	L8,0z"/>
<path class="st7" d="M232.3,30.5h-81.2c-1.5,0-2.8-1.2-2.8-2.8V3.5c0-1.5,1.2-2.8,2.8-2.8h81.2c1.5,0,2.8,1.2,2.8,2.8v24.2
	C235,29.3,233.8,30.5,232.3,30.5z"/>
<path class="st8" d="M232.3,31.2h-81.2c-1.9,0-3.5-1.5-3.5-3.5V3.5c0-1.9,1.5-3.5,3.5-3.5h81.2c1.9,0,3.5,1.5,3.5,3.5v24.2
	C235.7,29.6,234.2,31.2,232.3,31.2z M151.1,1.5c-1.1,0-2.1,0.9-2.1,2.1v24.2c0,1.1,0.9,2.1,2.1,2.1h81.2c1.1,0,2.1-0.9,2.1-2.1V3.5
	c0-1.1-0.9-2.1-2.1-2.1H151.1z"/>
<path class="st9" d="M219.8,13.6l-1.5,0c-0.1,0-0.2,0-0.2,0.1c0,0-0.1,0.1-0.1,0.1c-0.1,0.1,0,0.3,0.1,0.4l2.7,2.7
	c0.1,0.1,0.3,0.1,0.5,0l2.7-2.7c0.1-0.1,0.1-0.2,0.1-0.4c0,0,0-0.1-0.1-0.1c-0.1-0.1-0.1-0.1-0.2-0.1h-1.5L219.8,13.6z"/>
<rect x="149" y="31" class="st10" width="85" height="49"/>
<path class="st11" d="M235,80h-86V30h86V80z M150,79h84V31h-84V79z"/>
<rect x="150" y="31" class="st12" width="84" height="23"/>
<path class="st13" d="M160.5,16.1v-2c0-1.4,0.4-2.5,1.2-3.4c0.8-0.9,1.9-1.4,3.2-1.4c1.4,0,2.5,0.5,3.3,1.4s1.3,2.1,1.3,3.4v2
	c0,1.4-0.4,2.5-1.3,3.4c-0.9,0.9-2,1.4-3.3,1.4c-1.3,0-2.4-0.5-3.2-1.4C160.9,18.6,160.5,17.4,160.5,16.1z M162.1,16.1
	c0,1,0.3,1.9,0.8,2.6c0.5,0.7,1.2,1,2.1,1c0.9,0,1.7-0.3,2.3-1c0.6-0.7,0.8-1.5,0.8-2.6v-2c0-1-0.3-1.9-0.8-2.5
	c-0.6-0.7-1.3-1-2.2-1c-0.9,0-1.6,0.3-2.1,1c-0.5,0.7-0.8,1.5-0.8,2.5V16.1z"/>
<path class="st13" d="M171,20.7v-8.4h1.4l0.1,1.2c0.3-0.4,0.6-0.8,1.1-1c0.4-0.2,0.9-0.4,1.4-0.4c0.9,0,1.6,0.3,2.1,0.8
	c0.5,0.5,0.7,1.3,0.7,2.5v5.3h-1.5v-5.3c0-0.7-0.1-1.3-0.4-1.6c-0.3-0.3-0.7-0.5-1.3-0.5c-0.5,0-0.9,0.1-1.2,0.3s-0.6,0.5-0.8,0.8
	v6.2H171z"/>
<path class="st13" d="M179,16.7v-0.3c0-1.2,0.3-2.2,1-3s1.5-1.2,2.5-1.2c1.1,0,2,0.3,2.5,1c0.6,0.7,0.8,1.6,0.8,2.8v0.8h-5.4l0,0
	c0,0.8,0.2,1.5,0.6,2c0.4,0.5,0.9,0.8,1.7,0.8c0.5,0,1-0.1,1.4-0.2c0.4-0.1,0.7-0.3,1-0.6l0.6,1c-0.3,0.3-0.7,0.5-1.2,0.7
	c-0.5,0.2-1.1,0.3-1.8,0.3c-1.2,0-2.1-0.4-2.8-1.2C179.4,18.9,179,17.9,179,16.7z M180.6,15.6L180.6,15.6l3.8,0v-0.1
	c0-0.6-0.2-1.1-0.5-1.5c-0.3-0.4-0.8-0.6-1.4-0.6c-0.5,0-1,0.2-1.3,0.6C180.9,14.4,180.7,14.9,180.6,15.6z"/>
<path class="st13" d="M159.9,36.4v-1.2h8.9v1.2h-3.7v10.1h-1.5V36.4H159.9z"/>
<path class="st13" d="M168.9,38.1h1.6l1.3,5.3l0.2,1.1h0l0.2-1.1l1.7-5.3h1.2l1.7,5.3l0.2,1.2h0l0.2-1.2l1.2-5.3h1.6l-2.4,8.4h-1.2
	l-1.7-5.1l-0.3-1.3h0l-0.3,1.3l-1.6,5.1h-1.2L168.9,38.1z"/>
<path class="st13" d="M180.7,42.4v-0.2c0-1.2,0.3-2.3,1-3.1s1.6-1.2,2.7-1.2c1.2,0,2.1,0.4,2.8,1.2c0.7,0.8,1,1.8,1,3.1v0.2
	c0,1.2-0.3,2.3-1,3.1s-1.6,1.2-2.7,1.2c-1.2,0-2.1-0.4-2.7-1.2C181,44.6,180.7,43.6,180.7,42.4z M182.2,42.4c0,0.9,0.2,1.6,0.6,2.2
	c0.4,0.6,0.9,0.9,1.7,0.9c0.7,0,1.3-0.3,1.7-0.9c0.4-0.6,0.6-1.3,0.6-2.2v-0.2c0-0.9-0.2-1.6-0.6-2.2c-0.4-0.6-0.9-0.9-1.7-0.9
	c-0.7,0-1.3,0.3-1.7,0.9c-0.4,0.6-0.6,1.3-0.6,2.2V42.4z"/>
<path class="st13" d="M159.9,62.2V61h8.9v1.2h-3.7v10.1h-1.5V62.2H159.9z"/>
<path class="st13" d="M169.7,72.2V60.2h1.5V65c0.3-0.4,0.6-0.7,1.1-0.9s0.9-0.3,1.4-0.3c0.9,0,1.6,0.3,2.1,0.8
	c0.5,0.5,0.7,1.4,0.7,2.5v5.2H175V67c0-0.7-0.1-1.2-0.4-1.5s-0.7-0.5-1.3-0.5c-0.5,0-0.8,0.1-1.2,0.3s-0.6,0.4-0.8,0.7v6.3H169.7z"
	/>
<path class="st13" d="M178.6,72.2v-8.4h1.4l0.1,1.2c0.2-0.4,0.5-0.8,0.9-1c0.3-0.2,0.8-0.4,1.2-0.4c0.1,0,0.2,0,0.3,0
	c0.1,0,0.2,0,0.3,0.1l-0.2,1.4l-0.8,0c-0.4,0-0.7,0.1-1,0.3c-0.3,0.2-0.5,0.5-0.6,0.8v6H178.6z"/>
<path class="st13" d="M183.3,68.2v-0.3c0-1.2,0.3-2.2,1-3s1.5-1.2,2.5-1.2c1.1,0,2,0.3,2.5,1c0.6,0.7,0.8,1.6,0.8,2.8v0.8h-5.4l0,0
	c0,0.8,0.2,1.5,0.6,2c0.4,0.5,0.9,0.8,1.7,0.8c0.5,0,1-0.1,1.4-0.2c0.4-0.1,0.7-0.3,1-0.6l0.6,1c-0.3,0.3-0.7,0.5-1.2,0.7
	c-0.5,0.2-1.1,0.3-1.8,0.3c-1.2,0-2.1-0.4-2.8-1.2C183.6,70.5,183.3,69.5,183.3,68.2z M184.9,67.1L184.9,67.1l3.8,0V67
	c0-0.6-0.2-1.1-0.5-1.5c-0.3-0.4-0.8-0.6-1.4-0.6c-0.5,0-1,0.2-1.3,0.6C185.2,65.9,185,66.5,184.9,67.1z"/>
<path class="st13" d="M191.5,68.2v-0.3c0-1.2,0.3-2.2,1-3c0.7-0.8,1.5-1.2,2.5-1.2c1.1,0,2,0.3,2.5,1c0.6,0.7,0.8,1.6,0.8,2.8v0.8
	H193l0,0c0,0.8,0.2,1.5,0.6,2c0.4,0.5,0.9,0.8,1.7,0.8c0.5,0,1-0.1,1.4-0.2c0.4-0.1,0.7-0.3,1-0.6l0.6,1c-0.3,0.3-0.7,0.5-1.2,0.7
	c-0.5,0.2-1.1,0.3-1.8,0.3c-1.2,0-2.1-0.4-2.8-1.2C191.8,70.5,191.5,69.5,191.5,68.2z M193.1,67.1L193.1,67.1l3.8,0V67
	c0-0.6-0.2-1.1-0.4-1.5c-0.3-0.4-0.8-0.6-1.4-0.6c-0.5,0-1,0.2-1.3,0.6C193.4,65.9,193.2,66.5,193.1,67.1z"/>
<path class="st6" d="M45,1c0.6,0,1,0.4,1,1v12c0,0.6-0.4,1-1,1H33c-0.6,0-1-0.4-1-1V2c0-0.6,0.4-1,1-1H45 M45,0H33c-1.1,0-2,0.9-2,2
	v12c0,1.1,0.9,2,2,2h12c1.1,0,2-0.9,2-2V2C47,0.8,46.1,0,45,0L45,0z"/>
<rect x="65" y="37.8" class="st8" width="59.8" height="1"/>
<path class="st14" d="M98.6,14.8v-1.5c0-1,0.3-1.9,1-2.6s1.5-1,2.5-1c1,0,1.9,0.3,2.5,1s1,1.6,1,2.6v1.5c0,1-0.3,1.9-1,2.6
	s-1.5,1-2.6,1c-1,0-1.8-0.3-2.5-1S98.6,15.9,98.6,14.8z M100.1,14.8c0,0.7,0.2,1.3,0.5,1.8s0.9,0.7,1.5,0.7c0.7,0,1.2-0.2,1.5-0.7
	s0.6-1,0.6-1.8v-1.5c0-0.7-0.2-1.3-0.6-1.8s-0.9-0.7-1.5-0.7c-0.6,0-1.1,0.2-1.5,0.7s-0.5,1-0.5,1.8V14.8z"/>
<path class="st14" d="M106.9,18.3V9.8h1.4l3.8,6.1l0,0V9.8h1.4v8.5h-1.4l-3.8-6.1l0,0v6.1H106.9z"/>
<g id="toggle_1_">
	<g>
		<defs>
			<rect id="SVGID_5_" x="64.8" y="51" width="65" height="29.1"/>
		</defs>
		<clipPath id="SVGID_6_">
			<use xlink:href="#SVGID_5_"  style="overflow:visible;"/>
		</clipPath>
		<g class="st15">
			<defs>
				<rect id="SVGID_7_" x="64.8" y="51" width="65" height="29.1"/>
			</defs>
			<clipPath id="SVGID_8_">
				<use xlink:href="#SVGID_7_"  style="overflow:visible;"/>
			</clipPath>
			<path class="st16" d="M64.8,65.6c0-7.9,6-14.5,13.4-14.5h38.3c7.4,0,13.4,6.6,13.4,14.5s-6,14.5-13.4,14.5H78.1
				C70.7,80.1,64.8,73.5,64.8,65.6"/>
			<path class="st17" d="M115.3,51.5c7.7,0,14,6.3,14,14s-6.3,14-14,14s-14-6.3-14-14S107.5,51.5,115.3,51.5"/>
			<path class="st16" d="M115.3,79c-7.4,0-13.5-6.1-13.5-13.5S107.8,52,115.3,52s13.5,6.1,13.5,13.5S122.7,79,115.3,79 M115.3,80
				c8,0,14.5-6.5,14.5-14.5S123.3,51,115.3,51s-14.5,6.5-14.5,14.5S107.3,80,115.3,80"/>
		</g>
	</g>
</g>
<path class="st14" d="M74,66.3v-1.5c0-1,0.3-1.9,1-2.6s1.5-1,2.5-1c1,0,1.9,0.3,2.5,1s1,1.6,1,2.6v1.5c0,1-0.3,1.9-1,2.6
	s-1.5,1-2.6,1c-1,0-1.8-0.3-2.5-1S74,67.4,74,66.3z M75.4,66.3c0,0.7,0.2,1.3,0.5,1.8s0.9,0.7,1.5,0.7c0.7,0,1.2-0.2,1.5-0.7
	s0.6-1,0.6-1.8v-1.5c0-0.7-0.2-1.3-0.6-1.8s-0.9-0.7-1.5-0.7c-0.6,0-1.1,0.2-1.5,0.7s-0.5,1-0.5,1.8V66.3z"/>
<path class="st14" d="M82.5,69.8v-8.5h5.5v1.1h-4V65h3.4v1.1h-3.4v3.6H82.5z"/>
<path class="st14" d="M88.6,69.8v-8.5h5.5v1.1h-4V65h3.4v1.1h-3.4v3.6H88.6z"/>
</svg>
