<?xml version="1.0" encoding="utf-8"?>
<!-- Generator: Adobe Illustrator 19.2.1, SVG Export Plug-In . SVG Version: 6.00 Build 0)  -->
<svg version="1.1" id="Layer_1" xmlns="http://www.w3.org/2000/svg" xmlns:xlink="http://www.w3.org/1999/xlink" x="0px" y="0px"
	 viewBox="0 0 236 80" style="enable-background:new 0 0 236 80;" xml:space="preserve">
<style type="text/css">
	.st0{fill:#FAFAFA;}
	.st1{fill:#E0E1E0;}
	.st2{fill:#0F95A7;}
	.st3{fill:#434343;}
</style>
<g>
	<polygon class="st0" points="97.5,1 86.4,1 25,1 25,7.3 17,14.1 25,22.4 25,80 235,80 235,1 	"/>
	<path class="st1" d="M236,80H25V22.6L16.8,14l8.2-7V0h211V80z M26,79h209V1H26v6.5l-7.8,6.6l7.8,8.1V79z"/>
</g>
<g>
	<path class="st2" d="M8.1,22.1c-4.4,0-8-3.6-8-8s3.6-8,8-8s8,3.6,8,8S12.5,22.1,8.1,22.1z M8.3,8.7c-1.7,0-3,0.7-3.9,2.2
		c-0.1,0.1-0.1,0.3,0.1,0.4l1.4,1c0.1,0,0.1,0.1,0.2,0.1c0.1,0,0.2,0,0.3-0.1c0.5-0.6,0.7-0.8,0.9-1c0.2-0.1,0.5-0.2,0.9-0.2
		c0.7,0,1.3,0.4,1.3,0.9c0,0.5-0.3,0.8-0.9,1.1c-0.7,0.3-1.8,1.2-1.8,2.2v0.4c0,0.2,0.1,0.3,0.3,0.3h2c0.2,0,0.3-0.1,0.3-0.3
		c0-0.2,0.3-0.8,0.8-1c0.8-0.4,1.9-1.1,1.9-2.6C12.1,10.2,10.1,8.7,8.3,8.7z M9.4,17.1c0-0.2-0.1-0.3-0.3-0.3h-2
		c-0.2,0-0.3,0.1-0.3,0.3v2c0,0.2,0.1,0.3,0.3,0.3h2c0.2,0,0.3-0.1,0.3-0.3V17.1z"/>
</g>
<g>
	<path class="st3" d="M36.6,49.2l4.1-11.4h1.3l4,11.4h-1.6l-1-2.9h-4.3l-1,2.9H36.6z M39.7,45h3.4l-1.7-4.9h0L39.7,45z"/>
	<path class="st3" d="M46.6,45.2v-0.3c0-1.2,0.3-2.2,1-3c0.6-0.8,1.6-1.2,2.7-1.2c0.9,0,1.7,0.3,2.3,0.9c0.6,0.6,0.9,1.2,0.9,2.1
		c0,0,0,0.1,0,0.1l0,0h-1.4c0-0.5-0.2-1-0.5-1.3c-0.3-0.4-0.8-0.5-1.3-0.5c-0.8,0-1.3,0.3-1.7,0.9s-0.5,1.3-0.5,2.1v0.3
		c0,0.8,0.2,1.6,0.5,2.1c0.3,0.6,0.9,0.9,1.7,0.9c0.5,0,0.9-0.2,1.2-0.5c0.4-0.3,0.5-0.7,0.5-1.2h1.4l0,0c0,0,0,0,0,0.1
		c0,0.7-0.3,1.3-0.9,1.9c-0.6,0.6-1.4,0.8-2.2,0.9c-1.2,0-2.1-0.4-2.8-1.2C47,47.4,46.6,46.4,46.6,45.2z"/>
	<path class="st3" d="M54.5,41.9v-1.1h1.3v-2h1.5v2H59v1.1h-1.6v5.1c0,0.4,0.1,0.7,0.2,0.8c0.2,0.2,0.4,0.2,0.7,0.2
		c0.1,0,0.2,0,0.3,0s0.2,0,0.3-0.1l0.2,1c-0.1,0.1-0.3,0.2-0.5,0.2c-0.2,0.1-0.4,0.1-0.7,0.1c-0.6,0-1.1-0.2-1.5-0.6
		c-0.4-0.4-0.6-1-0.6-1.8v-5.1H54.5z"/>
	<path class="st3" d="M60.7,38.6V37h1.5v1.6H60.7z M60.7,49.2v-8.5h1.5v8.5H60.7z"/>
	<path class="st3" d="M63.6,40.8h1.6l2,6l0.1,0.6h0l0.1-0.6l1.9-6H71l-3.1,8.5h-1.2L63.6,40.8z"/>
	<path class="st3" d="M71.5,46.8c0-0.8,0.3-1.4,1-1.9c0.7-0.5,1.5-0.7,2.7-0.7h1.7v-0.8c0-0.5-0.2-0.9-0.5-1.2s-0.7-0.4-1.3-0.4
		c-0.5,0-0.9,0.1-1.2,0.4s-0.5,0.5-0.5,0.9l-1.5,0l0,0c0,0,0-0.1,0-0.1c0-0.6,0.3-1.1,0.9-1.6c0.6-0.5,1.4-0.8,2.4-0.8
		c1,0,1.7,0.2,2.3,0.7c0.6,0.5,0.9,1.2,0.9,2.1v4.1c0,0.3,0,0.6,0,0.9s0.1,0.6,0.2,0.8h-1.6c-0.1-0.3-0.1-0.5-0.1-0.7s0-0.4-0.1-0.6
		c-0.3,0.4-0.7,0.7-1.1,1s-1,0.4-1.5,0.4c-0.9,0-1.6-0.2-2-0.7C71.7,48.3,71.5,47.6,71.5,46.8z M73,46.9c0,0.4,0.1,0.7,0.4,0.9
		s0.6,0.3,1,0.3c0.6,0,1.1-0.1,1.5-0.4c0.4-0.3,0.7-0.6,0.9-1v-1.4H75c-0.6,0-1.1,0.2-1.5,0.5S73,46.5,73,46.9z"/>
	<path class="st3" d="M79.4,41.9v-1.1h1.3v-2h1.5v2h1.6v1.1h-1.6v5.1c0,0.4,0.1,0.7,0.2,0.8c0.2,0.2,0.4,0.2,0.7,0.2
		c0.1,0,0.2,0,0.3,0s0.2,0,0.3-0.1l0.2,1c-0.1,0.1-0.3,0.2-0.5,0.2c-0.2,0.1-0.4,0.1-0.7,0.1c-0.6,0-1.1-0.2-1.5-0.6
		c-0.4-0.4-0.6-1-0.6-1.8v-5.1H79.4z"/>
	<path class="st3" d="M84.8,45.2v-0.3c0-1.2,0.4-2.2,1.1-3c0.7-0.8,1.6-1.2,2.6-1.2c1.1,0,2,0.4,2.5,1.1s0.8,1.6,0.8,2.8v0.8h-5.4
		l0,0c0,0.8,0.2,1.5,0.6,2.1c0.4,0.5,0.9,0.8,1.7,0.8c0.5,0,1-0.1,1.4-0.2c0.4-0.1,0.7-0.4,1-0.6l0.6,1c-0.3,0.3-0.7,0.5-1.2,0.7
		c-0.5,0.2-1.1,0.3-1.8,0.3c-1.2,0-2.2-0.4-2.8-1.2C85.1,47.4,84.8,46.4,84.8,45.2z M86.4,44L86.4,44l3.8,0v-0.1
		c0-0.6-0.2-1.1-0.5-1.5c-0.3-0.4-0.8-0.6-1.4-0.6c-0.5,0-1,0.2-1.3,0.6S86.5,43.4,86.4,44z"/>
	<path class="st3" d="M93,46.6L93,46.6l1.5,0c0,0.5,0.2,0.9,0.6,1.2c0.4,0.3,0.8,0.4,1.3,0.4c0.5,0,1-0.1,1.3-0.3s0.5-0.5,0.5-0.9
		c0-0.3-0.1-0.6-0.4-0.8c-0.3-0.2-0.7-0.4-1.5-0.6c-1-0.2-1.8-0.5-2.3-0.9c-0.5-0.4-0.8-0.9-0.8-1.5c0-0.7,0.3-1.3,0.9-1.8
		s1.3-0.7,2.3-0.7c1,0,1.8,0.3,2.4,0.8c0.6,0.5,0.9,1.1,0.9,1.7c0,0,0,0.1,0,0.1l0,0h-1.6c0-0.4-0.2-0.7-0.5-1s-0.7-0.4-1.2-0.4
		c-0.5,0-0.9,0.1-1.2,0.4c-0.3,0.2-0.4,0.5-0.4,0.9c0,0.3,0.1,0.6,0.3,0.8c0.2,0.2,0.7,0.3,1.4,0.5c1,0.2,1.8,0.5,2.4,0.9
		s0.8,0.9,0.8,1.6c0,0.8-0.3,1.4-0.9,1.8c-0.6,0.5-1.4,0.7-2.4,0.7c-1.1,0-1.9-0.3-2.5-0.8C93.3,48,93,47.4,93,46.6
		C93,46.7,93,46.7,93,46.6z"/>
	<path class="st3" d="M104.9,40.8h1.6l1.3,5.4l0.2,1.1h0l0.2-1.1l1.7-5.4h1.2l1.7,5.4l0.2,1.2h0l0.2-1.2l1.2-5.4h1.6l-2.5,8.5h-1.2
		l-1.7-5.1l-0.3-1.3h0l-0.3,1.3l-1.6,5.1h-1.2L104.9,40.8z"/>
	<path class="st3" d="M117.5,49.2V37h1.5v4.9c0.3-0.4,0.6-0.7,1.1-0.9s0.9-0.3,1.4-0.3c0.9,0,1.6,0.3,2.1,0.8
		c0.5,0.5,0.8,1.4,0.8,2.5v5.3h-1.5v-5.3c0-0.7-0.1-1.2-0.4-1.5c-0.3-0.3-0.7-0.5-1.3-0.5c-0.5,0-0.9,0.1-1.2,0.3s-0.6,0.4-0.8,0.8
		v6.3H117.5z"/>
	<path class="st3" d="M125.8,45.2v-0.3c0-1.2,0.4-2.2,1.1-3c0.7-0.8,1.6-1.2,2.6-1.2c1.1,0,2,0.4,2.5,1.1s0.8,1.6,0.8,2.8v0.8h-5.4
		l0,0c0,0.8,0.2,1.5,0.6,2.1c0.4,0.5,0.9,0.8,1.7,0.8c0.5,0,1-0.1,1.4-0.2c0.4-0.1,0.7-0.4,1-0.6l0.6,1c-0.3,0.3-0.7,0.5-1.2,0.7
		c-0.5,0.2-1.1,0.3-1.8,0.3c-1.2,0-2.2-0.4-2.8-1.2C126.1,47.4,125.8,46.4,125.8,45.2z M127.4,44L127.4,44l3.8,0v-0.1
		c0-0.6-0.2-1.1-0.5-1.5c-0.3-0.4-0.8-0.6-1.4-0.6c-0.5,0-1,0.2-1.3,0.6S127.5,43.4,127.4,44z"/>
	<path class="st3" d="M134.4,49.2v-8.5h1.4l0.1,1.3c0.3-0.4,0.6-0.8,1.1-1c0.4-0.2,0.9-0.4,1.4-0.4c0.9,0,1.6,0.3,2.1,0.8
		c0.5,0.5,0.8,1.4,0.8,2.5v5.3h-1.5v-5.3c0-0.7-0.1-1.3-0.4-1.6s-0.7-0.5-1.3-0.5c-0.5,0-0.9,0.1-1.2,0.3c-0.3,0.2-0.6,0.5-0.8,0.8
		v6.3H134.4z"/>
	<path class="st3" d="M147.4,49.2V37h1.5v4.9c0.3-0.4,0.6-0.7,1.1-0.9s0.9-0.3,1.4-0.3c0.9,0,1.6,0.3,2.1,0.8
		c0.5,0.5,0.8,1.4,0.8,2.5v5.3h-1.5v-5.3c0-0.7-0.1-1.2-0.4-1.5c-0.3-0.3-0.7-0.5-1.3-0.5c-0.5,0-0.9,0.1-1.2,0.3s-0.6,0.4-0.8,0.8
		v6.3H147.4z"/>
	<path class="st3" d="M155.7,45.1v-0.2c0-1.2,0.3-2.3,1-3.1c0.7-0.8,1.6-1.2,2.8-1.2c1.2,0,2.1,0.4,2.8,1.2c0.7,0.8,1,1.8,1,3.1v0.2
		c0,1.3-0.3,2.3-1,3.1c-0.7,0.8-1.6,1.2-2.8,1.2s-2.1-0.4-2.8-1.2S155.7,46.3,155.7,45.1z M157.2,45.1c0,0.9,0.2,1.6,0.6,2.2
		c0.4,0.6,0.9,0.9,1.7,0.9c0.7,0,1.3-0.3,1.7-0.9c0.4-0.6,0.6-1.3,0.6-2.2v-0.2c0-0.9-0.2-1.6-0.6-2.2s-0.9-0.9-1.7-0.9
		c-0.7,0-1.3,0.3-1.7,0.9s-0.6,1.3-0.6,2.2V45.1z"/>
	<path class="st3" d="M163.7,40.8h1.6l2,6l0.1,0.6h0l0.1-0.6l1.9-6h1.6l-3.1,8.5h-1.2L163.7,40.8z"/>
	<path class="st3" d="M171.6,45.2v-0.3c0-1.2,0.4-2.2,1.1-3c0.7-0.8,1.6-1.2,2.6-1.2c1.1,0,2,0.4,2.5,1.1s0.8,1.6,0.8,2.8v0.8h-5.4
		l0,0c0,0.8,0.2,1.5,0.6,2.1c0.4,0.5,0.9,0.8,1.7,0.8c0.5,0,1-0.1,1.4-0.2c0.4-0.1,0.7-0.4,1-0.6l0.6,1c-0.3,0.3-0.7,0.5-1.2,0.7
		c-0.5,0.2-1.1,0.3-1.8,0.3c-1.2,0-2.2-0.4-2.8-1.2C171.9,47.4,171.6,46.4,171.6,45.2z M173.2,44L173.2,44l3.8,0v-0.1
		c0-0.6-0.2-1.1-0.5-1.5c-0.3-0.4-0.8-0.6-1.4-0.6c-0.5,0-1,0.2-1.3,0.6S173.3,43.4,173.2,44z"/>
	<path class="st3" d="M180.2,49.2v-8.5h1.4l0.1,1.2c0.2-0.4,0.5-0.8,0.9-1c0.4-0.2,0.8-0.4,1.2-0.4c0.1,0,0.2,0,0.3,0
		c0.1,0,0.2,0,0.3,0.1l-0.2,1.4l-0.8,0c-0.4,0-0.7,0.1-1,0.3c-0.3,0.2-0.5,0.5-0.6,0.8v6H180.2z"/>
	<path class="st3" d="M185,45.2v-0.3c0-1.2,0.4-2.2,1.1-3c0.7-0.8,1.6-1.2,2.6-1.2c1.1,0,2,0.4,2.5,1.1s0.8,1.6,0.8,2.8v0.8h-5.4
		l0,0c0,0.8,0.2,1.5,0.6,2.1c0.4,0.5,0.9,0.8,1.7,0.8c0.5,0,1-0.1,1.4-0.2c0.4-0.1,0.7-0.4,1-0.6l0.6,1c-0.3,0.3-0.7,0.5-1.2,0.7
		c-0.5,0.2-1.1,0.3-1.8,0.3c-1.2,0-2.2-0.4-2.8-1.2C185.3,47.4,185,46.4,185,45.2z M186.6,44L186.6,44l3.8,0v-0.1
		c0-0.6-0.2-1.1-0.5-1.5c-0.3-0.4-0.8-0.6-1.4-0.6c-0.5,0-1,0.2-1.3,0.6S186.7,43.4,186.6,44z"/>
	<path class="st3" d="M193.1,45.3v-0.2c0-1.4,0.3-2.5,0.9-3.3c0.6-0.8,1.4-1.2,2.4-1.2c0.5,0,0.9,0.1,1.3,0.3c0.4,0.2,0.7,0.4,1,0.8
		V37h1.5v12.2h-1.2l-0.2-1.1c-0.3,0.4-0.6,0.7-1,0.9s-0.9,0.3-1.4,0.3c-1,0-1.8-0.4-2.4-1.1C193.4,47.5,193.1,46.5,193.1,45.3z
		 M194.7,45.3c0,0.9,0.2,1.5,0.5,2.1c0.3,0.5,0.9,0.8,1.6,0.8c0.5,0,0.8-0.1,1.2-0.3c0.3-0.2,0.6-0.5,0.8-0.9V43
		c-0.2-0.3-0.5-0.6-0.8-0.8c-0.3-0.2-0.7-0.3-1.1-0.3c-0.7,0-1.3,0.3-1.6,0.9s-0.5,1.4-0.5,2.4V45.3z"/>
	<path class="st3" d="M206.2,45.1v-0.2c0-1.2,0.3-2.3,1-3.1c0.7-0.8,1.6-1.2,2.8-1.2c1.2,0,2.1,0.4,2.8,1.2c0.7,0.8,1,1.8,1,3.1v0.2
		c0,1.3-0.3,2.3-1,3.1c-0.7,0.8-1.6,1.2-2.8,1.2s-2.1-0.4-2.8-1.2S206.2,46.3,206.2,45.1z M207.7,45.1c0,0.9,0.2,1.6,0.6,2.2
		c0.4,0.6,0.9,0.9,1.7,0.9c0.7,0,1.3-0.3,1.7-0.9c0.4-0.6,0.6-1.3,0.6-2.2v-0.2c0-0.9-0.2-1.6-0.6-2.2s-0.9-0.9-1.7-0.9
		c-0.7,0-1.3,0.3-1.7,0.9s-0.6,1.3-0.6,2.2V45.1z"/>
	<path class="st3" d="M215.2,49.2v-8.5h1.4l0.1,1.3c0.3-0.4,0.6-0.8,1.1-1c0.4-0.2,0.9-0.4,1.4-0.4c0.9,0,1.6,0.3,2.1,0.8
		c0.5,0.5,0.8,1.4,0.8,2.5v5.3h-1.5v-5.3c0-0.7-0.1-1.3-0.4-1.6s-0.7-0.5-1.3-0.5c-0.5,0-0.9,0.1-1.2,0.3c-0.3,0.2-0.6,0.5-0.8,0.8
		v6.3H215.2z"/>
	<path class="st3" d="M36.7,60h1.6l1.3,5.4l0.2,1.1h0l0.2-1.1l1.7-5.4h1.2l1.7,5.4l0.2,1.2h0l0.2-1.2l1.2-5.4H48l-2.5,8.5h-1.2
		l-1.7-5.1l-0.3-1.3h0L42,63.3l-1.6,5.1h-1.2L36.7,60z"/>
	<path class="st3" d="M49.2,57.8v-1.6h1.5v1.6H49.2z M49.2,68.4V60h1.5v8.5H49.2z"/>
	<path class="st3" d="M52.2,61.1V60h1.3v-2h1.5v2h1.6v1.1h-1.6v5.1c0,0.4,0.1,0.7,0.2,0.8c0.2,0.2,0.4,0.2,0.7,0.2
		c0.1,0,0.2,0,0.3,0s0.2,0,0.3-0.1l0.2,1c-0.1,0.1-0.3,0.2-0.5,0.2c-0.2,0.1-0.4,0.1-0.7,0.1c-0.6,0-1.1-0.2-1.5-0.6
		c-0.4-0.4-0.6-1-0.6-1.8v-5.1H52.2z"/>
	<path class="st3" d="M58.3,68.4V56.2h1.5v4.9c0.3-0.4,0.6-0.7,1.1-0.9s0.9-0.3,1.4-0.3c0.9,0,1.6,0.3,2.1,0.8
		c0.5,0.5,0.8,1.4,0.8,2.5v5.3h-1.5v-5.3c0-0.7-0.1-1.2-0.4-1.5c-0.3-0.3-0.7-0.5-1.3-0.5c-0.5,0-0.9,0.1-1.2,0.3s-0.6,0.4-0.8,0.8
		v6.3H58.3z"/>
	<path class="st3" d="M71.4,68.4V60h1.4l0.1,1.1c0.3-0.4,0.6-0.7,1.1-0.9c0.4-0.2,0.9-0.3,1.5-0.3c0.6,0,1,0.1,1.4,0.4
		c0.4,0.3,0.7,0.7,0.9,1.2c0.3-0.5,0.6-0.9,1.1-1.1c0.4-0.3,0.9-0.4,1.5-0.4c0.9,0,1.5,0.3,2,0.9c0.5,0.6,0.8,1.5,0.8,2.7v5.1h-1.5
		v-5.1c0-0.8-0.1-1.4-0.4-1.8c-0.3-0.3-0.7-0.5-1.3-0.5c-0.5,0-1,0.2-1.3,0.5C78.3,62,78.1,62.4,78,63v0.1v5.4h-1.5v-5.1
		c0-0.8-0.1-1.4-0.4-1.7s-0.7-0.6-1.3-0.6c-0.5,0-0.9,0.1-1.2,0.3c-0.3,0.2-0.5,0.5-0.7,0.8v6.3H71.4z"/>
	<path class="st3" d="M84.6,64.3v-0.2c0-1.2,0.3-2.3,1-3.1c0.7-0.8,1.6-1.2,2.8-1.2c1.2,0,2.1,0.4,2.8,1.2c0.7,0.8,1,1.8,1,3.1v0.2
		c0,1.3-0.3,2.3-1,3.1c-0.7,0.8-1.6,1.2-2.8,1.2s-2.1-0.4-2.8-1.2S84.6,65.5,84.6,64.3z M86.2,64.3c0,0.9,0.2,1.6,0.6,2.2
		c0.4,0.6,0.9,0.9,1.7,0.9c0.7,0,1.3-0.3,1.7-0.9c0.4-0.6,0.6-1.3,0.6-2.2v-0.2c0-0.9-0.2-1.6-0.6-2.2S89.1,61,88.4,61
		c-0.7,0-1.3,0.3-1.7,0.9s-0.6,1.3-0.6,2.2V64.3z"/>
	<path class="st3" d="M93.6,64.9v-5h1.5v5c0,0.9,0.1,1.5,0.4,1.9c0.3,0.3,0.7,0.5,1.2,0.5c0.5,0,1-0.1,1.4-0.3
		c0.4-0.2,0.6-0.5,0.8-0.9V60h1.5v8.5h-1.4L99,67.2c-0.3,0.5-0.6,0.8-1,1c-0.4,0.2-0.9,0.4-1.4,0.4c-0.9,0-1.6-0.3-2.2-0.9
		C93.8,67.1,93.6,66.2,93.6,64.9z"/>
	<path class="st3" d="M102,65.8L102,65.8l1.5,0c0,0.5,0.2,0.9,0.6,1.2c0.4,0.3,0.8,0.4,1.3,0.4c0.5,0,1-0.1,1.3-0.3s0.5-0.5,0.5-0.9
		c0-0.3-0.1-0.6-0.4-0.8c-0.3-0.2-0.7-0.4-1.5-0.6c-1-0.2-1.8-0.5-2.3-0.9c-0.5-0.4-0.8-0.9-0.8-1.5c0-0.7,0.3-1.3,0.9-1.8
		s1.3-0.7,2.3-0.7c1,0,1.8,0.3,2.4,0.8c0.6,0.5,0.9,1.1,0.9,1.7c0,0,0,0.1,0,0.1l0,0h-1.6c0-0.4-0.2-0.7-0.5-1s-0.7-0.4-1.2-0.4
		c-0.5,0-0.9,0.1-1.2,0.4c-0.3,0.2-0.4,0.5-0.4,0.9c0,0.3,0.1,0.6,0.3,0.8c0.2,0.2,0.7,0.3,1.4,0.5c1,0.2,1.8,0.5,2.4,0.9
		s0.8,0.9,0.8,1.6c0,0.8-0.3,1.4-0.9,1.8c-0.6,0.5-1.4,0.7-2.4,0.7c-1.1,0-1.9-0.3-2.5-0.8C102.3,67.2,102,66.6,102,65.8
		C102,65.9,102,65.9,102,65.8z"/>
	<path class="st3" d="M109.8,64.4V64c0-1.2,0.4-2.2,1.1-3c0.7-0.8,1.6-1.2,2.6-1.2c1.1,0,2,0.4,2.5,1.1s0.8,1.6,0.8,2.8v0.8h-5.4
		l0,0c0,0.8,0.2,1.5,0.6,2.1c0.4,0.5,0.9,0.8,1.7,0.8c0.5,0,1-0.1,1.4-0.2c0.4-0.1,0.7-0.4,1-0.6l0.6,1c-0.3,0.3-0.7,0.5-1.2,0.7
		c-0.5,0.2-1.1,0.3-1.8,0.3c-1.2,0-2.2-0.4-2.8-1.2C110.1,66.6,109.8,65.6,109.8,64.4z M111.4,63.2L111.4,63.2l3.8,0v-0.1
		c0-0.6-0.2-1.1-0.5-1.5c-0.3-0.4-0.8-0.6-1.4-0.6c-0.5,0-1,0.2-1.3,0.6S111.5,62.6,111.4,63.2z"/>
	<path class="st3" d="M118.7,68.4v-1.6h1.5v1.6H118.7z"/>
</g>
<g>
	<path class="st3" d="M36.3,13.3v-1.5h8.9v1.5h-3.5v9.9h-1.9v-9.9H36.3z"/>
	<path class="st3" d="M44.8,19v-0.2c0-1.3,0.3-2.3,1-3.1s1.6-1.2,2.8-1.2c1.2,0,2.2,0.4,2.9,1.2s1,1.8,1,3.1V19c0,1.3-0.3,2.3-1,3.1
		s-1.6,1.2-2.8,1.2c-1.2,0-2.2-0.4-2.8-1.2S44.8,20.3,44.8,19z M46.7,19c0,0.8,0.2,1.5,0.5,2s0.8,0.8,1.5,0.8c0.7,0,1.2-0.3,1.5-0.8
		s0.5-1.2,0.5-2v-0.2c0-0.8-0.2-1.5-0.5-2s-0.8-0.8-1.5-0.8c-0.7,0-1.2,0.3-1.5,0.8s-0.5,1.2-0.5,2V19z"/>
	<path class="st3" d="M53.4,19v-0.2c0-1.3,0.3-2.3,1-3.1s1.6-1.2,2.8-1.2c1.2,0,2.2,0.4,2.9,1.2s1,1.8,1,3.1V19c0,1.3-0.3,2.3-1,3.1
		s-1.6,1.2-2.8,1.2c-1.2,0-2.2-0.4-2.8-1.2S53.4,20.3,53.4,19z M55.3,19c0,0.8,0.2,1.5,0.5,2s0.8,0.8,1.5,0.8c0.7,0,1.2-0.3,1.5-0.8
		s0.5-1.2,0.5-2v-0.2c0-0.8-0.2-1.5-0.5-2s-0.8-0.8-1.5-0.8c-0.7,0-1.2,0.3-1.5,0.8s-0.5,1.2-0.5,2V19z"/>
	<path class="st3" d="M62.6,23.2V11h1.9v12.2H62.6z"/>
	<path class="st3" d="M65.8,16.1v-1.4h1.3v-2.1H69v2.1h1.5v1.4H69v4.7c0,0.3,0.1,0.6,0.2,0.7s0.4,0.2,0.6,0.2c0.1,0,0.2,0,0.3,0
		s0.2,0,0.3-0.1l0.2,1.4c-0.2,0.1-0.4,0.2-0.6,0.2c-0.2,0-0.5,0.1-0.7,0.1c-0.7,0-1.2-0.2-1.6-0.6s-0.6-1.1-0.6-1.9v-4.7H65.8z"/>
	<path class="st3" d="M72,12.6V11h1.9v1.7H72z M72,23.2v-8.5h1.9v8.5H72z"/>
	<path class="st3" d="M75.4,26.4V14.7H77l0.2,1.1c0.3-0.4,0.6-0.7,1-0.9s0.8-0.3,1.3-0.3c1,0,1.9,0.4,2.4,1.2s0.9,1.9,0.9,3.3v0.2
		c0,1.2-0.3,2.2-0.9,3s-1.4,1.1-2.4,1.1c-0.5,0-0.9-0.1-1.3-0.3s-0.7-0.4-1-0.8v4.1H75.4z M77.3,20.9c0.2,0.3,0.4,0.5,0.7,0.7
		s0.6,0.2,1,0.2c0.6,0,1.1-0.2,1.4-0.7s0.5-1.1,0.5-1.9v-0.2c0-0.9-0.2-1.6-0.5-2.1s-0.8-0.8-1.5-0.8c-0.4,0-0.7,0.1-1,0.3
		s-0.5,0.4-0.7,0.7V20.9z"/>
</g>
</svg>
