<?xml version="1.0" encoding="utf-8"?>
<!-- Generator: Adobe Illustrator 19.2.1, SVG Export Plug-In . SVG Version: 6.00 Build 0)  -->
<svg version="1.1" id="Layer_1" xmlns="http://www.w3.org/2000/svg" xmlns:xlink="http://www.w3.org/1999/xlink" x="0px" y="0px"
	 viewBox="0 0 190.8 125.5" style="enable-background:new 0 0 190.8 125.5;" xml:space="preserve">
<style type="text/css">
	.st0{fill:#E7EAED;}
	.st1{fill:none;stroke:#010101;stroke-width:0.5;stroke-miterlimit:10;}
	.st2{fill:#FFD780;}
	.st3{fill:#B8DCD8;}
	.st4{fill:#A3DDED;}
	.st5{fill:#976976;}
	.st6{fill:#A57B89;}
	.st7{fill:#5E6E7F;}
	.st8{fill:#6DC6D8;}
	.st9{fill:url(#SVGID_1_);}
</style>
<rect class="st0" width="190.8" height="125.5"/>
<g>
	<polygon class="st1" points="85.4,69.8 77.5,65.2 77.5,74.3 85.4,78.8 	"/>
	<polygon class="st2" points="77.5,84 85.4,88.5 85.4,79.5 77.5,74.9 	"/>
	<polygon class="st1" points="85.4,60.1 77.5,55.5 77.5,64.6 85.4,69.1 	"/>
	<polygon class="st1" points="69.1,79.1 77,83.7 77,74.6 69.1,70.1 	"/>
	<polygon class="st1" points="85.4,50 77.5,45.5 77.5,54.9 85.4,59.4 	"/>
	<polygon class="st1" points="77,64.9 69.1,60.4 69.1,69.4 77,74 	"/>
	<polygon class="st1" points="77,55.2 69.1,50.7 69.1,59.7 77,64.3 	"/>
	<polygon class="st1" points="68.6,69.1 68.6,60.1 60.5,55.4 60.5,64.4 	"/>
	<polygon class="st1" points="68.6,50.4 60.5,45.7 60.5,54.7 68.6,59.4 	"/>
	<polygon class="st1" points="93.8,64.9 86,60.4 86,69.4 93.8,74 	"/>
	<polygon class="st1" points="86,88.9 93.8,93.4 93.8,84.3 86,79.8 	"/>
	<polygon class="st1" points="68.6,69.8 60.5,65.1 60.5,74.1 68.6,78.8 	"/>
	<polygon class="st1" points="93.8,74.6 86,70.1 86,79.2 93.8,83.7 	"/>
	<polygon class="st3" points="68.6,49.7 68.6,40.3 60.5,35.7 60.5,45 	"/>
	<polygon class="st4" points="94.4,64.6 102.5,69.3 102.5,59.9 94.4,55.2 	"/>
	<polygon class="st1" points="94.4,65.2 94.4,74.3 102.5,79 102.5,69.9 	"/>
	<polygon class="st1" points="68.6,79.5 60.5,74.8 60.5,84.2 68.6,88.9 	"/>
	<polygon class="st1" points="94.4,74.9 94.4,84 102.5,88.7 102.5,79.6 	"/>
	<polygon class="st1" points="94.4,94.4 94.4,103.7 102.5,108.4 102.5,99 	"/>
	<polygon class="st1" points="86,50.4 86,59.7 93.8,64.3 93.8,54.9 	"/>
	<polygon class="st1" points="85.4,89.2 77.5,84.6 77.5,94 85.4,98.6 	"/>
	<polygon class="st5" points="77,93.7 77,84.3 69.1,79.8 69.1,89.2 	"/>
	<polygon class="st1" points="102.5,89.3 94.4,84.7 94.4,93.7 102.5,98.4 	"/>
	<polygon class="st1" points="93.8,94 86,89.5 86,98.9 93.8,103.4 	"/>
	<polygon class="st1" points="77,45.2 69.1,40.7 69.1,50 77,54.6 	"/>
	<polygon class="st4" points="111.4,25.9 119.3,30.5 127.4,25.8 119.6,21.3 	"/>
	<polygon class="st1" points="135.8,30.6 128,26.1 119.8,30.8 127.7,35.3 	"/>
	<polygon class="st3" points="86,20.9 94.1,25.6 101.9,21.1 93.8,16.4 	"/>
	<polygon class="st6" points="127.1,35.7 119.3,31.1 111.4,35.7 119.3,40.2 	"/>
	<polygon class="st1" points="94.6,25.9 102.5,30.5 110.3,25.9 102.5,21.4 	"/>
	<polygon class="st1" points="103,21.1 110.9,25.6 119,20.9 111.2,16.4 	"/>
	<polygon class="st1" points="101.9,40.5 94.1,36 86.2,40.5 94.1,45 	"/>
	<polygon class="st1" points="101.9,30.8 94.1,26.3 86.2,30.8 94.1,35.3 	"/>
	<polygon class="st1" points="118.7,40.5 110.9,36 103,40.5 110.9,45 	"/>
	<polygon class="st1" points="77.8,35.7 85.7,40.2 93.5,35.7 85.7,31.1 	"/>
	<polygon class="st1" points="110.3,35.7 102.5,31.1 94.6,35.7 102.5,40.2 	"/>
	<polygon class="st1" points="85.7,30.5 93.5,25.9 85.4,21.3 77.5,25.8 	"/>
	<polygon class="st1" points="118.7,30.8 110.9,26.3 103,30.8 110.9,35.3 	"/>
	<polygon class="st1" points="136.4,31 128.2,35.7 136.4,40.3 144.5,35.7 	"/>
	<polygon class="st1" points="127.7,36 119.8,40.5 128,45.2 135.8,40.7 	"/>
	<polygon class="st1" points="102.5,20.8 110.6,16.1 102.5,11.4 94.4,16.1 	"/>
	<polygon class="st1" points="119.3,40.8 111.4,45.4 119.6,50 127.4,45.5 	"/>
	<polygon class="st1" points="102.5,50.5 94.4,55.2 102.5,59.9 110.6,55.2 	"/>
	<polygon class="st1" points="76.7,35.7 68.6,31 60.5,35.7 68.6,40.3 	"/>
	<polygon class="st1" points="77,45.2 85.1,40.5 77.3,36 69.1,40.7 	"/>
	<polygon class="st1" points="119,50.4 110.9,45.7 103,50.2 111.2,54.9 	"/>
	<polygon class="st1" points="93.5,45.4 85.7,40.8 77.5,45.5 85.4,50 	"/>
	<polygon class="st1" points="77.3,35.3 85.1,30.8 77,26.1 69.1,30.6 	"/>
	<polygon class="st1" points="101.9,50.2 94.1,45.7 86,50.4 93.8,54.9 	"/>
	<polygon class="st2" points="110.3,45.4 102.5,40.8 94.6,45.4 102.5,49.9 	"/>
	<polygon class="st1" points="127.4,55.5 119.6,60.1 119.6,69.1 127.4,64.6 	"/>
	<polygon class="st1" points="127.4,65.2 119.6,69.8 119.6,78.8 127.4,74.3 	"/>
	<polygon class="st1" points="119.6,88.5 127.4,84 127.4,74.9 119.6,79.5 	"/>
	<polygon class="st1" points="119,70.1 111.2,74.6 111.2,83.7 119,79.1 	"/>
	<polygon class="st1" points="127.4,45.5 119.6,50 119.6,59.4 127.4,54.9 	"/>
	<polygon class="st1" points="136.4,78.8 144.5,74.1 144.5,65.1 136.4,69.8 	"/>
	<polygon class="st7" points="110.6,65.2 102.5,69.9 102.5,79 110.6,74.3 	"/>
	<polygon class="st1" points="111.2,93.4 119,88.8 119,79.8 111.2,84.3 	"/>
	<polygon class="st1" points="110.6,74.9 102.5,79.6 102.5,88.7 110.6,84 	"/>
	<polygon class="st1" points="135.8,60.4 128,64.9 128,74 135.8,69.4 	"/>
	<polygon class="st1" points="110.6,84.6 102.5,89.3 102.5,98.4 110.6,93.7 	"/>
	<polygon class="st7" points="128,83.7 135.8,79.1 135.8,70.1 128,74.6 	"/>
	<polygon class="st1" points="135.8,50.7 128,55.2 128,64.3 135.8,59.7 	"/>
	<polygon class="st8" points="136.4,49.7 144.5,45 144.5,35.7 136.4,40.3 	"/>
	<polygon class="st1" points="110.6,64.6 110.6,55.2 102.5,59.9 102.5,69.3 	"/>
	<polygon class="st1" points="136.4,69.1 144.5,64.4 144.5,55.4 136.4,60.1 	"/>
	<polygon class="st1" points="136.4,59.4 144.5,54.7 144.5,45.7 136.4,50.4 	"/>
	<polygon class="st1" points="136.4,79.5 136.4,88.9 144.5,84.2 144.5,74.8 	"/>
	<polygon class="st1" points="110.6,94.3 102.5,99 102.5,108.4 110.6,103.7 	"/>
	<polygon class="st1" points="119,98.9 119,89.5 111.2,94 111.2,103.4 	"/>
	<polygon class="st1" points="119,50.4 111.2,54.9 111.2,64.3 119,59.7 	"/>
	<polygon class="st1" points="128,45.2 128,54.6 135.8,50 135.8,40.7 	"/>
	<polygon class="st1" points="119,60.4 111.2,64.9 111.2,74 119,69.4 	"/>
	<polygon class="st1" points="135.8,79.8 128,84.3 128,93.7 135.8,89.2 	"/>
	<linearGradient id="SVGID_1_" gradientUnits="userSpaceOnUse" x1="119.563" y1="91.5996" x2="127.4047" y2="91.5996">
		<stop  offset="0" style="stop-color:#695B67"/>
		<stop  offset="0.4949" style="stop-color:#725B67"/>
		<stop  offset="1" style="stop-color:#795B67"/>
	</linearGradient>
	<polygon class="st9" points="127.4,84.6 119.6,89.2 119.6,98.6 127.4,94 	"/>
</g>
</svg>
