<?xml version="1.0" encoding="utf-8"?>
<!-- Generator: Adobe Illustrator 19.2.1, SVG Export Plug-In . SVG Version: 6.00 Build 0)  -->
<svg version="1.1" id="Layer_1" xmlns="http://www.w3.org/2000/svg" xmlns:xlink="http://www.w3.org/1999/xlink" x="0px" y="0px"
	 viewBox="0 0 190.8 125.5" style="enable-background:new 0 0 190.8 125.5;" xml:space="preserve">
<style type="text/css">
	.st0{fill:#E7EAED;}
	.st1{fill:#FFD780;}
	.st2{fill:#5E6E7F;}
	.st3{fill:#F5F7FA;}
	.st4{fill:#B8DCD8;}
	.st5{fill:url(#SVGID_1_);}
	.st6{fill:#A57B89;}
	.st7{fill:#976976;}
	.st8{fill:#A3DDED;}
	.st9{fill:#6DC6D8;}
	.st10{fill:#F0F4FB;}
</style>
<rect class="st0" width="190.8" height="125.5"/>
<g>
	<g>
		<polygon class="st1" points="133.3,21.6 135.5,26.3 140.6,26.7 138.4,22.1 		"/>
		<polygon class="st2" points="135.5,26.3 132.5,30.5 130.3,25.9 133.3,21.6 		"/>
		<polygon class="st3" points="140.6,26.7 137.7,31 132.5,30.5 135.5,26.3 		"/>
	</g>
	<g>
		<polygon class="st1" points="112.9,52 119.4,60.6 130.1,59.3 123.6,50.7 		"/>
		<polygon class="st2" points="119.4,60.6 115.2,70.5 108.7,62 112.9,52 		"/>
		<polygon class="st3" points="130.1,59.3 125.9,69.2 115.2,70.5 119.4,60.6 		"/>
	</g>
	<g>
		<polygon class="st4" points="138.3,77.1 146.2,79.9 152.5,74.5 144.7,71.7 		"/>
		<polygon class="st2" points="146.2,79.9 147.7,88.1 139.8,85.3 138.3,77.1 		"/>
		<polygon class="st3" points="152.5,74.5 154,82.7 147.7,88.1 146.2,79.9 		"/>
	</g>
	<g>
		<polygon class="st4" points="46.7,75.2 54,79.9 61.7,76 54.4,71.2 		"/>
		<polygon class="st2" points="54,79.9 53.5,88.6 46.2,83.9 46.7,75.2 		"/>
		<polygon class="st3" points="61.7,76 61.3,84.7 53.5,88.6 54,79.9 		"/>
	</g>
	<g>
		<polygon class="st4" points="77.8,90.2 90.4,98.1 103.6,91.1 90.9,83.2 		"/>
		<polygon class="st2" points="90.4,98.1 89.9,113.1 77.3,105.2 77.8,90.2 		"/>
		<polygon class="st3" points="103.6,91.1 103.1,106 89.9,113.1 90.4,98.1 		"/>
	</g>
	<g>
		<polygon class="st4" points="83.6,34.7 90.4,31.7 91.2,24.2 84.4,27.2 		"/>
		<polygon class="st2" points="90.4,31.7 96.5,36.1 89.6,39.1 83.6,34.7 		"/>
		<polygon class="st3" points="91.2,24.2 97.3,28.6 96.5,36.1 90.4,31.7 		"/>
	</g>
	<g>
		<linearGradient id="SVGID_1_" gradientUnits="userSpaceOnUse" x1="61.2104" y1="40.3097" x2="81.4056" y2="40.3097">
			<stop  offset="0" style="stop-color:#695B67"/>
			<stop  offset="0.4949" style="stop-color:#725B67"/>
			<stop  offset="1" style="stop-color:#795B67"/>
		</linearGradient>
		<polygon class="st5" points="61.2,30.6 65.7,46.1 81.4,50.1 76.9,34.5 		"/>
		<polygon class="st6" points="65.7,46.1 54.4,57.8 50,42.2 61.2,30.6 		"/>
		<polygon class="st7" points="81.4,50.1 70.2,61.7 54.4,57.8 65.7,46.1 		"/>
	</g>
	<polygon class="st8" points="86.1,63.4 91.4,59.3 90.5,52.8 85.3,56.8 	"/>
	<polygon class="st9" points="91.4,59.3 97.5,61.9 92.2,65.9 86.1,63.4 	"/>
	<polygon class="st10" points="90.5,52.8 96.7,55.3 97.5,61.9 91.4,59.3 	"/>
</g>
</svg>
