<svg id="Layer_1" data-name="Layer 1" xmlns="http://www.w3.org/2000/svg" viewBox="0 0 115.27 25.17"><defs><style>.cls-1,.cls-2{fill:#d5d5d5;}.cls-1{fill-rule:evenodd;}</style></defs><title>rs-logo</title><path class="cls-1" d="M12.15,6.53c-0.46,1-.28,1.76.41,1.77a2.83,2.83,0,0,0,2.07-1.73c0.46-1,.28-1.76-0.41-1.77A2.84,2.84,0,0,0,12.15,6.53ZM17.73,3h0A16.57,16.57,0,0,1,16,6.53c-1.42,2.1-3.45,3.43-4.54,3S10.61,6.94,12,4.84a10.11,10.11,0,0,1,1-1.29h0a0,0,0,0,0,0,0h0a12.58,12.58,0,0,0-1.35.26h0A30.61,30.61,0,0,0,5.14,24.09h0l0,0h0A8.3,8.3,0,0,1,0,16.79v0C-0.34,10.61,4.56,4.32,11,2.7A10.84,10.84,0,0,1,17.73,3Z"/><path class="cls-1" d="M15.92,19.59a14.87,14.87,0,0,1-1.45.89h0a11.66,11.66,0,0,0-1-4.1c-1.46-3.17-4-3.42-5.71-.54a12.46,12.46,0,0,0-1.38,6.69h0a11.11,11.11,0,0,0,6.06.07c6.39-1.63,11.27-7.91,10.92-14C23.07,3.18,18.82-.3,13.46,0h0q-0.78.79-1.47,1.6h0a0,0,0,0,0,0,0h0c3.14-.4,5.66.24,7.3,1.55h0c-5.66,8-5,12.52-3.38,16.36h0Z"/><path class="cls-1" d="M68.69,10.47a6.1,6.1,0,0,1,2.8.56,0,0,0,0,1,0,0L71,13.46h0a5.48,5.48,0,0,0-2.48-.61c-0.84,0-1.39.35-1.39,0.94,0,0.42.42,0.8,1.31,1.24,1.16,0.58,2.46,1.43,2.46,3a3.41,3.41,0,0,1-1,2.51,5.61,5.61,0,0,1-4,1.34A6.49,6.49,0,0,1,62.54,21h0L63,18.58h0a7,7,0,0,0,3.17.94,1.13,1.13,0,0,0,1.35-1c0-.54-0.38-0.92-1.35-1.39-1.54-.77-2.31-1.74-2.31-2.89C63.87,12,65.8,10.47,68.69,10.47Z"/><path class="cls-2" d="M55,6.85h3.21l-1.67,8.78h0l4.3-5h3.53l-4.45,5,2.71,5.89H59.14L56.51,15.8h0l-1.11,5.83H52.16L55,6.87h0Z"/><path class="cls-1" d="M50.66,10.49a6.28,6.28,0,0,1,2.24.38,0,0,0,0,1,0,0l-0.5,2.6h0a3.54,3.54,0,0,0-1.77-.42,3.8,3.8,0,0,0-3.69,4,2,2,0,0,0,2.13,2.24,5.71,5.71,0,0,0,2.69-.69h0a0,0,0,0,1,0,0l-0.51,2.68h0a7.62,7.62,0,0,1-3.11.58,4.26,4.26,0,0,1-4.61-4.48A6.87,6.87,0,0,1,50.66,10.49Z"/><path class="cls-2" d="M33.25,10.45a3.66,3.66,0,0,1,.6.05h0l-0.63,3.15h0a2.58,2.58,0,0,0-.51-0.05c-2.2,0-3.07,2.16-3.4,3.94l-0.78,4.19H25.28l2.1-11h2.86l-0.14.75a3.45,3.45,0,0,1-.49,1.33l0,0a0.2,0.2,0,0,0,.11.25A0.2,0.2,0,0,0,30,13v0a2.83,2.83,0,0,1,.63-1.23A3.54,3.54,0,0,1,33.25,10.45Z"/><path class="cls-1" d="M106.83,15.05h0a3.81,3.81,0,0,0,2.43-.63,0.88,0.88,0,0,0,.27-0.66,1,1,0,0,0-1.17-.92,2.55,2.55,0,0,0-2.24,1.42l0,0.07a1.56,1.56,0,0,1-.68.81l0,0a0.2,0.2,0,0,0,0,.28,0.2,0.2,0,0,0,.27,0l0,0A1.09,1.09,0,0,1,106.83,15.05Zm2-4.58c2.29,0,3.81,1.33,3.81,3.3a3,3,0,0,1-.88,2.23c-1,1-2.76,1.44-5.42,1.46h0a0.85,0.85,0,0,1-.9-0.54l0,0a0.21,0.21,0,0,0-.28,0,0.2,0.2,0,0,0,0,.27l0,0a1.24,1.24,0,0,1,.52.76,1.83,1.83,0,0,0,.26.6,2.58,2.58,0,0,0,2.09.82,7.23,7.23,0,0,0,3.78-1.06h0L111.25,21h0a9.53,9.53,0,0,1-4.07.87c-3,0-4.75-1.68-4.75-4.61a7.25,7.25,0,0,1,1.7-4.65A6.07,6.07,0,0,1,108.8,10.47Z"/><path class="cls-2" d="M76.28,19.44c1.71,0,3-2.42,3-4.56,0-.52-0.12-1.77-1.31-1.77s-2.23,1.38-2.63,3.47C75.17,17.29,74.79,19.44,76.28,19.44Zm-0.23-8.8-0.1.5a2.54,2.54,0,0,1-.54,1.28l0,0a0.19,0.19,0,0,0,.09.26,0.21,0.21,0,0,0,.28-0.05l0,0a2.6,2.6,0,0,1,.71-1.18,4,4,0,0,1,2.58-1c2.15,0,3.54,1.63,3.54,4.17A7.48,7.48,0,0,1,79,21.26a4,4,0,0,1-4.22.11,1.17,1.17,0,0,1-.26-0.7v0a0.21,0.21,0,0,0-.4.13l0,0a1.09,1.09,0,0,1,.22.69l-0.69,3.67H70.43l2.76-14.52h2.86Z"/><path class="cls-1" d="M100.78,10.49a6.28,6.28,0,0,1,2.24.38,0,0,0,0,1,0,0l-0.5,2.6h0a3.54,3.54,0,0,0-1.77-.42A3.8,3.8,0,0,0,97,17a2,2,0,0,0,2.13,2.24,5.71,5.71,0,0,0,2.69-.69h0a0,0,0,0,1,0,0l-0.51,2.68h0a7.62,7.62,0,0,1-3.11.58,4.26,4.26,0,0,1-4.61-4.48A6.87,6.87,0,0,1,100.78,10.49Z"/><path class="cls-2" d="M87.64,13.59a6,6,0,0,0-1.53,3.82c0,1.14.43,1.86,1.16,1.86,1.18,0,2.2-1.24,2.55-3C89.9,15.81,90,15.4,90,15a5,5,0,0,0,.08-0.91A1.09,1.09,0,0,0,89,12.93,1.93,1.93,0,0,0,87.64,13.59Zm1.2,8.06,0.1-.49a4.42,4.42,0,0,1,.58-1.25l0,0a0.21,0.21,0,0,0-.11-0.27,0.21,0.21,0,0,0-.28.1v0A2.41,2.41,0,0,1,88.45,21a3.69,3.69,0,0,1-2.49.93c-2.16,0-3.13-1.92-3.13-3.83a8.28,8.28,0,0,1,2.29-5.77,6.2,6.2,0,0,1,4.48-1.84,3.59,3.59,0,0,1,2.9,1.13,4.88,4.88,0,0,1,.6,3.94l-1.17,6.12h-3.1Z"/><path class="cls-2" d="M37.52,13.59A6,6,0,0,0,36,17.4c0,1.14.43,1.86,1.16,1.86,1.18,0,2.2-1.24,2.55-3,0.08-.4.16-0.82,0.22-1.18A5,5,0,0,0,40,14.12a1.09,1.09,0,0,0-1.16-1.19A1.93,1.93,0,0,0,37.52,13.59Zm1.2,8.06,0.1-.49a4.42,4.42,0,0,1,.58-1.25l0,0a0.21,0.21,0,0,0-.11-0.27,0.21,0.21,0,0,0-.28.1v0A2.41,2.41,0,0,1,38.33,21a3.69,3.69,0,0,1-2.49.93c-2.16,0-3.13-1.92-3.13-3.83A8.28,8.28,0,0,1,35,12.31a6.2,6.2,0,0,1,4.48-1.84,3.59,3.59,0,0,1,2.9,1.13,4.88,4.88,0,0,1,.6,3.94l-1.17,6.12h-3.1Z"/><path class="cls-2" d="M112.63,20.52a1.08,1.08,0,0,0,1.1,1.2,1.39,1.39,0,0,0,1.35-1.24,1.08,1.08,0,0,0-1.1-1.21A1.39,1.39,0,0,0,112.63,20.52Zm-0.19,0A1.58,1.58,0,0,1,114,19.09a1.27,1.27,0,0,1,1.29,1.42,1.58,1.58,0,0,1-1.54,1.41A1.27,1.27,0,0,1,112.44,20.5Zm1.11-.84h0.56l0.16,0a0.39,0.39,0,0,1,.28.38,0.49,0.49,0,0,1,0,.1,0.58,0.58,0,0,1-.44.48l0.23,0.67h-0.24l-0.22-.64h-0.3l-0.12.63h-0.21l0.12-.64h0l0.1-.5Zm0.32,0.2h-0.16l-0.06.31-0.06.31h0.34l0.12,0a0.37,0.37,0,0,0,.28-0.29,0.23,0.23,0,0,0-.17-0.28l-0.11,0h-0.19Z"/></svg>