<?xml version="1.0" encoding="utf-8"?>
<!-- Generator: Adobe Illustrator 19.2.1, SVG Export Plug-In . SVG Version: 6.00 Build 0)  -->
<svg version="1.1" id="Layer_1" xmlns="http://www.w3.org/2000/svg" xmlns:xlink="http://www.w3.org/1999/xlink" x="0px" y="0px"
	 viewBox="0 0 99.7 99.7" style="enable-background:new 0 0 99.7 99.7;" xml:space="preserve">
<style type="text/css">
	.st0{fill:#FAFBFB;}
	.st1{fill:none;stroke:#74AD42;stroke-width:18.341;stroke-miterlimit:10;}
	.st2{fill:none;stroke:#B954A0;stroke-width:1.2678;stroke-linejoin:round;stroke-miterlimit:10;}
	.st3{fill:none;stroke:#B954A0;stroke-miterlimit:10;}
	.st4{fill:#B954A0;}
	.st5{fill:#75AD42;}
	.st6{opacity:0.87;}
	.st7{fill:#4DAF50;}
	.st8{fill:#3073BA;}
	.st9{fill:#FFFFFF;}
	.st10{fill:#EF4538;}
	.st11{fill:#F47D20;}
	.st12{fill:#0DBCD4;}
	.st13{fill:#333333;}
	.st14{fill:#404A9F;}
	.st15{fill:#FFFFFF;stroke:#3173BA;stroke-miterlimit:10;}
	.st16{fill:none;stroke:#EF4538;stroke-miterlimit:10;}
	.st17{fill:#6D6E71;}
	.st18{font-family:'Roboto-Regular';}
	.st19{font-size:10.2452px;}
	.st20{fill:#808285;}
	.st21{fill:#58595B;}
</style>
<rect x="185.7" y="-8.1" class="st0" width="115.8" height="115.8"/>
<rect x="-28.9" y="408.8" class="st0" width="162" height="162"/>
<path class="st1" d="M18.2,539.4v-46.3c0-20.5,16.6-37.1,37.1-37.1h41.3"/>
<circle class="st2" cx="51.8" cy="489.8" r="41.8"/>
<g>
	<line class="st3" x1="10.1" y1="489.6" x2="52.1" y2="489.6"/>
</g>
<text transform="matrix(1 0 0 1 23.5184 486.3152)" class="st4 st18 st19">2px</text>
<circle class="st4" cx="52" cy="489.5" r="1.8"/>
<circle class="st5" cx="162.1" cy="567.1" r="0"/>
<rect x="162.6" y="408.8" class="st0" width="162" height="162"/>
<rect x="-29.3" y="612.8" class="st0" width="162" height="162"/>
<circle class="st5" cx="51.7" cy="771.1" r="0"/>
<g class="st6">
	<g>
		<path class="st7" d="M206.6,460.6h-4.9v8.5h-2.8v-21h6.9c2.4,0,4.2,0.5,5.5,1.6c1.3,1.1,1.9,2.6,1.9,4.7c0,1.3-0.4,2.4-1.1,3.4
			c-0.7,1-1.7,1.7-2.9,2.2l4.9,8.9v0.2h-3L206.6,460.6z M201.6,458.4h4.2c1.4,0,2.5-0.4,3.3-1.1c0.8-0.7,1.2-1.7,1.2-2.9
			c0-1.3-0.4-2.3-1.2-3c-0.8-0.7-1.9-1-3.3-1.1h-4.2V458.4z"/>
		<path class="st7" d="M215.9,461.2c0-1.5,0.3-2.9,0.9-4.1c0.6-1.2,1.4-2.2,2.5-2.8c1.1-0.7,2.3-1,3.7-1c2.1,0,3.8,0.7,5.1,2.2
			s2,3.4,2,5.9v0.2c0,1.5-0.3,2.9-0.9,4.1c-0.6,1.2-1.4,2.1-2.5,2.8c-1.1,0.7-2.3,1-3.7,1c-2.1,0-3.8-0.7-5.1-2.2
			c-1.3-1.5-2-3.4-2-5.8V461.2z M218.6,461.5c0,1.7,0.4,3.1,1.2,4.2c0.8,1,1.9,1.6,3.2,1.6c1.4,0,2.4-0.5,3.2-1.6
			c0.8-1.1,1.2-2.5,1.2-4.5c0-1.7-0.4-3.1-1.2-4.2c-0.8-1.1-1.9-1.6-3.2-1.6c-1.3,0-2.4,0.5-3.2,1.6S218.6,459.6,218.6,461.5z"/>
		<path class="st7" d="M246.6,461.5c0,2.4-0.5,4.3-1.6,5.7c-1.1,1.4-2.6,2.2-4.4,2.2c-2,0-3.5-0.7-4.6-2.1l-0.1,1.8h-2.4V447h2.7
			v8.3c1.1-1.3,2.6-2,4.5-2c1.9,0,3.4,0.7,4.5,2.1c1.1,1.4,1.6,3.4,1.6,5.9V461.5z M244,461.2c0-1.8-0.4-3.2-1.1-4.2
			c-0.7-1-1.7-1.5-3-1.5c-1.8,0-3,0.8-3.8,2.4v6.7c0.8,1.6,2.1,2.4,3.8,2.4c1.3,0,2.3-0.5,3-1.5C243.6,464.7,244,463.2,244,461.2z"
			/>
		<path class="st7" d="M249.3,461.2c0-1.5,0.3-2.9,0.9-4.1c0.6-1.2,1.4-2.2,2.5-2.8c1.1-0.7,2.3-1,3.7-1c2.1,0,3.8,0.7,5.2,2.2
			c1.3,1.5,2,3.4,2,5.9v0.2c0,1.5-0.3,2.9-0.9,4.1c-0.6,1.2-1.4,2.1-2.5,2.8c-1.1,0.7-2.3,1-3.7,1c-2.1,0-3.8-0.7-5.1-2.2
			c-1.3-1.5-2-3.4-2-5.8V461.2z M252,461.5c0,1.7,0.4,3.1,1.2,4.2c0.8,1,1.9,1.6,3.2,1.6c1.4,0,2.4-0.5,3.2-1.6
			c0.8-1.1,1.2-2.5,1.2-4.5c0-1.7-0.4-3.1-1.2-4.2c-0.8-1.1-1.9-1.6-3.2-1.6c-1.3,0-2.4,0.5-3.2,1.6
			C252.4,458.1,252,459.6,252,461.5z"/>
		<path class="st7" d="M270.4,449.8v3.8h2.9v2.1h-2.9v9.7c0,0.6,0.1,1.1,0.4,1.4c0.3,0.3,0.7,0.5,1.3,0.5c0.3,0,0.7-0.1,1.3-0.2v2.1
			c-0.7,0.2-1.4,0.3-2,0.3c-1.2,0-2.1-0.4-2.7-1.1c-0.6-0.7-0.9-1.7-0.9-3.1v-9.7h-2.8v-2.1h2.8v-3.8H270.4z"/>
		<path class="st7" d="M275.5,461.2c0-1.5,0.3-2.9,0.9-4.1c0.6-1.2,1.4-2.2,2.5-2.8c1.1-0.7,2.3-1,3.7-1c2.1,0,3.8,0.7,5.2,2.2
			s2,3.4,2,5.9v0.2c0,1.5-0.3,2.9-0.9,4.1c-0.6,1.2-1.4,2.1-2.5,2.8c-1.1,0.7-2.3,1-3.7,1c-2.1,0-3.8-0.7-5.1-2.2
			c-1.3-1.5-2-3.4-2-5.8V461.2z M278.1,461.5c0,1.7,0.4,3.1,1.2,4.2s1.9,1.6,3.2,1.6c1.4,0,2.4-0.5,3.2-1.6c0.8-1.1,1.2-2.5,1.2-4.5
			c0-1.7-0.4-3.1-1.2-4.2c-0.8-1.1-1.9-1.6-3.2-1.6c-1.3,0-2.4,0.5-3.2,1.6S278.1,459.6,278.1,461.5z"/>
		<path class="st3" d="M233.6,519.3h-23.3l-5.2,14.6h-7.6l21.2-55.6h6.4l21.3,55.6h-7.5L233.6,519.3z M212.5,513.3h18.9l-9.5-26
			L212.5,513.3z"/>
		<path class="st4" d="M278.3,533.9c-0.4-0.8-0.7-2.3-1-4.4c-3.3,3.4-7.2,5.1-11.8,5.1c-4.1,0-7.4-1.2-10-3.5
			c-2.6-2.3-3.9-5.2-3.9-8.8c0-4.3,1.6-7.6,4.9-10c3.3-2.4,7.9-3.6,13.8-3.6h6.9v-3.2c0-2.5-0.7-4.4-2.2-5.9
			c-1.5-1.5-3.7-2.2-6.5-2.2c-2.5,0-4.6,0.6-6.3,1.9c-1.7,1.3-2.6,2.8-2.6,4.6h-7.1c0-2.1,0.7-4.1,2.2-6c1.5-1.9,3.5-3.4,6-4.6
			c2.5-1.1,5.3-1.7,8.3-1.7c4.8,0,8.5,1.2,11.2,3.6c2.7,2.4,4.1,5.7,4.2,9.8v19c0,3.8,0.5,6.8,1.5,9.1v0.6H278.3z M266.6,528.5
			c2.2,0,4.3-0.6,6.3-1.7c2-1.1,3.4-2.6,4.3-4.5v-8.5h-5.5c-8.7,0-13,2.5-13,7.6c0,2.2,0.7,3.9,2.2,5.2
			C262.4,527.9,264.3,528.5,266.6,528.5z"/>
	</g>
</g>
<circle class="st5" cx="162.1" cy="732.1" r="0"/>
<rect x="162.6" y="611.8" class="st0" width="162" height="162"/>
<rect id="XMLID_502_" x="-834.9" y="789.1" class="st8" width="142" height="100"/>
<g id="XMLID_497_">
	<text transform="matrix(1 0 0 1 -752.1125 874.9747)" class="st9" style="font-family:'Roboto-Medium'; font-size:12px;">#0d74d1</text>
</g>
<text id="XMLID_492_" transform="matrix(1 0 0 1 -824.97 815.0134)" class="st9" style="font-family:'Roboto-Medium'; font-size:12px;">700 (primary)</text>
<rect id="XMLID_480_" x="-692.9" y="789.1" class="st10" width="142" height="100"/>
<g id="XMLID_475_">
	<text transform="matrix(1 0 0 1 -610.1125 874.9747)" class="st9" style="font-family:'Roboto-Medium'; font-size:12px;">#F44336</text>
</g>
<text id="XMLID_470_" transform="matrix(1 0 0 1 -684.5803 815.0134)" class="st9" style="font-family:'Roboto-Medium'; font-size:12px;">500 (primary)</text>
<rect id="XMLID_459_" x="-834.9" y="989.1" class="st7" width="142" height="100"/>
<g id="XMLID_454_">
	<text transform="matrix(1 0 0 1 -752.113 1074.9747)" class="st9" style="font-family:'Roboto-Medium'; font-size:12px;">#4caf51</text>
</g>
<text id="XMLID_449_" transform="matrix(1 0 0 1 -826.5803 1015.0134)" class="st9" style="font-family:'Roboto-Medium'; font-size:12px;">500 (primary)</text>
<rect id="XMLID_437_" x="-692.9" y="989.1" class="st11" width="142" height="100"/>
<g id="XMLID_432_">
	<text transform="matrix(1 0 0 1 -610.113 1074.9747)" class="st9" style="font-family:'Roboto-Medium'; font-size:12px;">#f57c00</text>
</g>
<text id="XMLID_427_" transform="matrix(1 0 0 1 -684.5808 1015.0134)" class="st9" style="font-family:'Roboto-Medium'; font-size:12px;">500 (primary)</text>
<rect id="XMLID_418_" x="-834.9" y="889.1" class="st12" width="142" height="100"/>
<g id="XMLID_409_">
	<text transform="matrix(1 0 0 1 -752.1125 974.9747)" class="st13" style="font-family:'Roboto-Medium'; font-size:12px;">#00BCD4</text>
</g>
<g id="XMLID_399_">
	<text transform="matrix(1 0 0 1 -826.5803 915.0134)" class="st13" style="font-family:'Roboto-Medium'; font-size:12px;">500 (primary)</text>
</g>
<rect id="XMLID_368_" x="-692.9" y="889.1" class="st14" width="142" height="100"/>
<g id="XMLID_362_">
	<text transform="matrix(1 0 0 1 -610.1125 974.9747)" class="st9" style="font-family:'Roboto-Medium'; font-size:12px;">#3b44a9</text>
</g>
<text id="XMLID_350_" transform="matrix(1 0 0 1 -684.5803 915.0134)" class="st9" style="font-family:'Roboto-Medium'; font-size:12px;">500 (primary)</text>
<g>
	<rect id="XMLID_32_" x="191.1" y="657.1" class="st8" width="53" height="37"/>
	<g id="XMLID_30_">
		<text transform="matrix(1 0 0 1 221.9869 689.1465)" class="st9" style="font-family:'Roboto-Medium'; font-size:4.4789px;">#0d74d1</text>
	</g>
	
		<text id="XMLID_29_" transform="matrix(1 0 0 1 194.7935 666.7666)" class="st9" style="font-family:'Roboto-Medium'; font-size:4.4789px;">700 (primary)</text>
	<rect id="XMLID_28_" x="244.1" y="657.1" class="st10" width="53" height="37"/>
	<g id="XMLID_26_">
		<text transform="matrix(1 0 0 1 274.9869 689.1465)" class="st9" style="font-family:'Roboto-Medium'; font-size:4.4789px;">#F44336</text>
	</g>
	
		<text id="XMLID_25_" transform="matrix(1 0 0 1 247.1924 666.7666)" class="st9" style="font-family:'Roboto-Medium'; font-size:4.4789px;">500 (primary)</text>
	<rect id="XMLID_24_" x="191.1" y="694.1" class="st7" width="53" height="37"/>
	<g id="XMLID_22_">
		<text transform="matrix(1 0 0 1 221.9864 725.7949)" class="st9" style="font-family:'Roboto-Medium'; font-size:4.4789px;">#4caf51</text>
	</g>
	
		<text id="XMLID_21_" transform="matrix(1 0 0 1 194.1924 703.415)" class="st9" style="font-family:'Roboto-Medium'; font-size:4.4789px;">500 (primary)</text>
	<rect id="XMLID_20_" x="244.1" y="694.1" class="st11" width="53" height="37"/>
	<g id="XMLID_18_">
		<text transform="matrix(1 0 0 1 274.9864 725.7949)" class="st9" style="font-family:'Roboto-Medium'; font-size:4.4789px;">#f57c00</text>
	</g>
	
		<text id="XMLID_17_" transform="matrix(1 0 0 1 247.1924 703.415)" class="st9" style="font-family:'Roboto-Medium'; font-size:4.4789px;">500 (primary)</text>
</g>
<g>
	<g>
		<path id="XMLID_47_" class="st15" d="M91.4,700.4H8c-0.7,0-1.3-0.6-1.3-1.3v-16c0-0.7,0.6-1.3,1.3-1.3h83.4c0.7,0,1.3,0.6,1.3,1.3
			v16C92.7,699.8,92.1,700.4,91.4,700.4z"/>
		<g>
			<line class="st16" x1="50.8" y1="695.1" x2="50.8" y2="700.4"/>
			<line class="st16" x1="49.1" y1="695.5" x2="52.5" y2="695.5"/>
			<line class="st16" x1="49.1" y1="700.1" x2="52.5" y2="700.1"/>
		</g>
		<g>
			<line class="st16" x1="84.1" y1="692.6" x2="92.1" y2="692.6"/>
			<line class="st16" x1="83.6" y1="694.1" x2="83.6" y2="690.1"/>
			<line class="st16" x1="91.6" y1="694.1" x2="91.6" y2="690.1"/>
		</g>
		<g>
			<line class="st16" x1="6.9" y1="692" x2="14.9" y2="692"/>
			<line class="st16" x1="7.3" y1="693.7" x2="7.3" y2="690.4"/>
			<line class="st16" x1="15.3" y1="693.7" x2="15.3" y2="690.4"/>
		</g>
		<g>
			<line class="st16" x1="50.6" y1="682.1" x2="50.6" y2="688.1"/>
			<line class="st16" x1="49.1" y1="682.6" x2="52.1" y2="682.6"/>
			<line class="st16" x1="49.1" y1="688.6" x2="52.1" y2="688.6"/>
		</g>
		<g>
			<line class="st16" x1="95.6" y1="682.1" x2="95.6" y2="700.1"/>
			<line class="st16" x1="94.1" y1="682.6" x2="98.1" y2="682.6"/>
			<line class="st16" x1="94.1" y1="700.6" x2="98.1" y2="700.6"/>
		</g>
		<text transform="matrix(1 0 0 1 45.9593 678.0039)" class="st17 st18" style="font-size:5.9899px;">8px</text>
		<text transform="matrix(1 0 0 1 83.1556 707.8828)" class="st17 st18" style="font-size:5.9899px;">12px</text>
		<g>
			<text transform="matrix(1 0 0 1 99.9612 693.7012)" class="st17 st18" style="font-size:5.9899px;">28px</text>
		</g>
		<text transform="matrix(1 0 0 1 4.4104 708.4023)" class="st17 st18" style="font-size:5.9899px;">12px</text>
		<text transform="matrix(1 0 0 1 49.1741 706.3496)" class="st17 st18" style="font-size:5.9899px;">8px</text>
		<text transform="matrix(1 0 0 1 14.679 694.8438)" class="st8" style="font-family:'Roboto-Medium'; font-size:9.9832px;">ROB MED 12PX</text>
	</g>
</g>
<g>
	<path class="st1" d="M14.5,99.4V53.1C14.5,32.6,31.1,16,51.6,16h41.3"/>
	<circle class="st2" cx="48.1" cy="49.8" r="41.8"/>
	<g>
		<line class="st3" x1="6.1" y1="49.6" x2="48.1" y2="49.6"/>
	</g>
	<text transform="matrix(1 0 0 1 19.8486 46.3152)" class="st4 st18 st19">2px</text>
	<circle class="st4" cx="48.4" cy="49.5" r="1.8"/>
</g>
<circle class="st5" cx="162.1" cy="127.1" r="0"/>
<g class="st6">
	<g>
		<path class="st7" d="M206.6,20.6h-4.9v8.5h-2.8v-21h6.9c2.4,0,4.2,0.5,5.5,1.6c1.3,1.1,1.9,2.6,1.9,4.7c0,1.3-0.4,2.4-1.1,3.4
			c-0.7,1-1.7,1.7-2.9,2.2l4.9,8.9v0.2h-3L206.6,20.6z M201.6,18.4h4.2c1.4,0,2.5-0.4,3.3-1.1c0.8-0.7,1.2-1.7,1.2-2.9
			c0-1.3-0.4-2.3-1.2-3c-0.8-0.7-1.9-1-3.3-1.1h-4.2V18.4z"/>
		<path class="st7" d="M215.9,21.2c0-1.5,0.3-2.9,0.9-4.1c0.6-1.2,1.4-2.2,2.5-2.8c1.1-0.7,2.3-1,3.7-1c2.1,0,3.8,0.7,5.1,2.2
			s2,3.4,2,5.9v0.2c0,1.5-0.3,2.9-0.9,4.1c-0.6,1.2-1.4,2.1-2.5,2.8c-1.1,0.7-2.3,1-3.7,1c-2.1,0-3.8-0.7-5.1-2.2
			c-1.3-1.5-2-3.4-2-5.8V21.2z M218.6,21.5c0,1.7,0.4,3.1,1.2,4.2c0.8,1,1.9,1.6,3.2,1.6c1.4,0,2.4-0.5,3.2-1.6
			c0.8-1.1,1.2-2.5,1.2-4.5c0-1.7-0.4-3.1-1.2-4.2c-0.8-1.1-1.9-1.6-3.2-1.6c-1.3,0-2.4,0.5-3.2,1.6S218.6,19.6,218.6,21.5z"/>
		<path class="st7" d="M246.6,21.5c0,2.4-0.5,4.3-1.6,5.7c-1.1,1.4-2.6,2.2-4.4,2.2c-2,0-3.5-0.7-4.6-2.1l-0.1,1.8h-2.4V7h2.7v8.3
			c1.1-1.3,2.6-2,4.5-2c1.9,0,3.4,0.7,4.5,2.1c1.1,1.4,1.6,3.4,1.6,5.9V21.5z M244,21.2c0-1.8-0.4-3.2-1.1-4.2c-0.7-1-1.7-1.5-3-1.5
			c-1.8,0-3,0.8-3.8,2.4v6.7c0.8,1.6,2.1,2.4,3.8,2.4c1.3,0,2.3-0.5,3-1.5C243.6,24.7,244,23.2,244,21.2z"/>
		<path class="st7" d="M249.3,21.2c0-1.5,0.3-2.9,0.9-4.1c0.6-1.2,1.4-2.2,2.5-2.8c1.1-0.7,2.3-1,3.7-1c2.1,0,3.8,0.7,5.2,2.2
			c1.3,1.5,2,3.4,2,5.9v0.2c0,1.5-0.3,2.9-0.9,4.1c-0.6,1.2-1.4,2.1-2.5,2.8c-1.1,0.7-2.3,1-3.7,1c-2.1,0-3.8-0.7-5.1-2.2
			c-1.3-1.5-2-3.4-2-5.8V21.2z M252,21.5c0,1.7,0.4,3.1,1.2,4.2c0.8,1,1.9,1.6,3.2,1.6c1.4,0,2.4-0.5,3.2-1.6
			c0.8-1.1,1.2-2.5,1.2-4.5c0-1.7-0.4-3.1-1.2-4.2c-0.8-1.1-1.9-1.6-3.2-1.6c-1.3,0-2.4,0.5-3.2,1.6C252.4,18.1,252,19.6,252,21.5z"
			/>
		<path class="st7" d="M270.4,9.8v3.8h2.9v2.1h-2.9v9.7c0,0.6,0.1,1.1,0.4,1.4c0.3,0.3,0.7,0.5,1.3,0.5c0.3,0,0.7-0.1,1.3-0.2v2.1
			c-0.7,0.2-1.4,0.3-2,0.3c-1.2,0-2.1-0.4-2.7-1.1c-0.6-0.7-0.9-1.7-0.9-3.1v-9.7h-2.8v-2.1h2.8V9.8H270.4z"/>
		<path class="st7" d="M275.5,21.2c0-1.5,0.3-2.9,0.9-4.1c0.6-1.2,1.4-2.2,2.5-2.8c1.1-0.7,2.3-1,3.7-1c2.1,0,3.8,0.7,5.2,2.2
			s2,3.4,2,5.9v0.2c0,1.5-0.3,2.9-0.9,4.1c-0.6,1.2-1.4,2.1-2.5,2.8c-1.1,0.7-2.3,1-3.7,1c-2.1,0-3.8-0.7-5.1-2.2
			c-1.3-1.5-2-3.4-2-5.8V21.2z M278.1,21.5c0,1.7,0.4,3.1,1.2,4.2c0.8,1,1.9,1.6,3.2,1.6c1.4,0,2.4-0.5,3.2-1.6
			c0.8-1.1,1.2-2.5,1.2-4.5c0-1.7-0.4-3.1-1.2-4.2c-0.8-1.1-1.9-1.6-3.2-1.6c-1.3,0-2.4,0.5-3.2,1.6S278.1,19.6,278.1,21.5z"/>
		<path class="st3" d="M233.6,79.3h-23.3l-5.2,14.6h-7.6l21.2-55.6h6.4l21.3,55.6h-7.5L233.6,79.3z M212.5,73.3h18.9l-9.5-26
			L212.5,73.3z"/>
		<path class="st4" d="M278.3,93.9c-0.4-0.8-0.7-2.3-1-4.4c-3.3,3.4-7.2,5.1-11.8,5.1c-4.1,0-7.4-1.2-10-3.5
			c-2.6-2.3-3.9-5.2-3.9-8.8c0-4.3,1.6-7.6,4.9-10c3.3-2.4,7.9-3.6,13.8-3.6h6.9v-3.2c0-2.5-0.7-4.4-2.2-5.9
			c-1.5-1.5-3.7-2.2-6.5-2.2c-2.5,0-4.6,0.6-6.3,1.9c-1.7,1.3-2.6,2.8-2.6,4.6h-7.1c0-2.1,0.7-4.1,2.2-6c1.5-1.9,3.5-3.4,6-4.6
			c2.5-1.1,5.3-1.7,8.3-1.7c4.8,0,8.5,1.2,11.2,3.6c2.7,2.4,4.1,5.7,4.2,9.8v19c0,3.8,0.5,6.8,1.5,9.1v0.6H278.3z M266.6,88.5
			c2.2,0,4.3-0.6,6.3-1.7c2-1.1,3.4-2.6,4.3-4.5v-8.5h-5.5c-8.7,0-13,2.5-13,7.6c0,2.2,0.7,3.9,2.2,5.2
			C262.4,87.9,264.3,88.5,266.6,88.5z"/>
	</g>
</g>
<circle class="st5" cx="162.1" cy="292.1" r="0"/>
<rect x="185.7" y="194.9" class="st0" width="115.8" height="115.8"/>
<rect x="-8.1" y="194.9" class="st0" width="115.8" height="115.8"/>
<g>
	<rect id="XMLID_40_" x="191.1" y="217.1" class="st8" width="53" height="37"/>
	<g id="XMLID_38_">
		<text transform="matrix(1 0 0 1 221.9869 249.1465)" class="st9" style="font-family:'Roboto-Medium'; font-size:4.4789px;">#0d74d1</text>
	</g>
	
		<text id="XMLID_37_" transform="matrix(1 0 0 1 194.7935 226.7666)" class="st9" style="font-family:'Roboto-Medium'; font-size:4.4789px;">700 (primary)</text>
	<rect id="XMLID_36_" x="244.1" y="217.1" class="st10" width="53" height="37"/>
	<g id="XMLID_34_">
		<text transform="matrix(1 0 0 1 274.9869 249.1465)" class="st9" style="font-family:'Roboto-Medium'; font-size:4.4789px;">#F44336</text>
	</g>
	
		<text id="XMLID_33_" transform="matrix(1 0 0 1 247.1924 226.7666)" class="st9" style="font-family:'Roboto-Medium'; font-size:4.4789px;">500 (primary)</text>
	<rect id="XMLID_31_" x="191.1" y="254.1" class="st7" width="53" height="37"/>
	<g id="XMLID_23_">
		<text transform="matrix(1 0 0 1 221.9864 285.7949)" class="st9" style="font-family:'Roboto-Medium'; font-size:4.4789px;">#4caf51</text>
	</g>
	
		<text id="XMLID_19_" transform="matrix(1 0 0 1 194.1924 263.415)" class="st9" style="font-family:'Roboto-Medium'; font-size:4.4789px;">500 (primary)</text>
	<rect id="XMLID_16_" x="244.1" y="254.1" class="st11" width="53" height="37"/>
	<g id="XMLID_14_">
		<text transform="matrix(1 0 0 1 274.9864 285.7949)" class="st9" style="font-family:'Roboto-Medium'; font-size:4.4789px;">#f57c00</text>
	</g>
	
		<text id="XMLID_13_" transform="matrix(1 0 0 1 247.1924 263.415)" class="st9" style="font-family:'Roboto-Medium'; font-size:4.4789px;">500 (primary)</text>
</g>
<rect x="344.6" y="-8.1" class="st0" width="115.8" height="115.8"/>
<g>
	<g>
		<path id="XMLID_1_" class="st15" d="M90.9,260.4H7.5c-0.7,0-1.3-0.6-1.3-1.3v-16c0-0.7,0.6-1.3,1.3-1.3h83.4
			c0.7,0,1.3,0.6,1.3,1.3v16C92.2,259.8,91.6,260.4,90.9,260.4z"/>
		<g>
			<line class="st16" x1="50.3" y1="255.1" x2="50.3" y2="260.4"/>
			<line class="st16" x1="48.7" y1="255.5" x2="52" y2="255.5"/>
			<line class="st16" x1="48.7" y1="260.1" x2="52" y2="260.1"/>
		</g>
		<g>
			<line class="st16" x1="84.1" y1="252.6" x2="92.1" y2="252.6"/>
			<line class="st16" x1="83.6" y1="254.1" x2="83.6" y2="250.1"/>
			<line class="st16" x1="91.6" y1="254.1" x2="91.6" y2="250.1"/>
		</g>
		<g>
			<line class="st16" x1="6.5" y1="252" x2="14.5" y2="252"/>
			<line class="st16" x1="6.8" y1="253.7" x2="6.8" y2="250.4"/>
			<line class="st16" x1="14.8" y1="253.7" x2="14.8" y2="250.4"/>
		</g>
		<g>
			<line class="st16" x1="50.6" y1="242.1" x2="50.6" y2="248.1"/>
			<line class="st16" x1="49.1" y1="242.6" x2="52.1" y2="242.6"/>
			<line class="st16" x1="49.1" y1="248.6" x2="52.1" y2="248.6"/>
		</g>
		<text transform="matrix(1 0 0 1 45.4795 238.0039)" class="st17 st18" style="font-size:5.9899px;">8px</text>
		<text transform="matrix(1 0 0 1 82.6758 267.8828)" class="st17 st18" style="font-size:5.9899px;">12px</text>
		<text transform="matrix(1 0 0 1 3.9307 268.4023)" class="st17 st18" style="font-size:5.9899px;">12px</text>
		<text transform="matrix(1 0 0 1 48.6943 266.3496)" class="st17 st18" style="font-size:5.9899px;">8px</text>
		<text transform="matrix(1 0 0 1 14.1992 254.8438)" class="st8" style="font-family:'Roboto-Medium'; font-size:9.9832px;">ROB MED 12PX</text>
	</g>
</g>
<g>
	<text transform="matrix(1 0 0 1 357.4133 41.5769)" class="st20" style="font-family:'Roboto-Bold'; font-size:28px;">Place</text>
</g>
<text transform="matrix(1 0 0 1 357.4133 81.1727)" class="st21" style="font-family:'Roboto-Bold'; font-size:28px;">Holder</text>
</svg>
