<?xml version="1.0" encoding="utf-8"?>
<!-- Generator: Adobe Illustrator 19.2.1, SVG Export Plug-In . SVG Version: 6.00 Build 0)  -->
<svg version="1.1" id="Layer_1" xmlns="http://www.w3.org/2000/svg" xmlns:xlink="http://www.w3.org/1999/xlink" x="0px" y="0px"
	 viewBox="0 0 360 226" style="enable-background:new 0 0 360 226;" xml:space="preserve">
<style type="text/css">
	.st0{fill:#B6E3EB;}
	.st1{fill:#9D9D9D;}
	.st2{fill:#010101;}
</style>
<g>
	<rect x="94" y="5.3" class="st0" width="260.7" height="39"/>
</g>
<g>
	<rect x="94" y="49.4" class="st0" width="127.8" height="39"/>
</g>
<g>
	<rect x="227" y="49.4" class="st0" width="127.8" height="39"/>
</g>
<g>
	<rect x="94" y="93.5" class="st0" width="83.5" height="39"/>
</g>
<g>
	<rect x="182.7" y="93.5" class="st0" width="83.5" height="39"/>
</g>
<g>
	<rect x="271.3" y="93.5" class="st0" width="83.5" height="39"/>
</g>
<g>
	<rect x="271.3" y="181.7" class="st0" width="83.5" height="39"/>
</g>
<g>
	<rect x="94" y="137.6" class="st0" width="61.3" height="39"/>
</g>
<g>
	<rect x="160.5" y="137.6" class="st0" width="61.3" height="39"/>
</g>
<g>
	<rect x="227" y="137.6" class="st0" width="61.3" height="39"/>
</g>
<g>
	<rect x="293.7" y="137.6" class="st0" width="61.3" height="39"/>
</g>
<g>
	<rect x="94" y="181.7" class="st0" width="172.1" height="39"/>
</g>
<rect x="0.1" y="0.1" class="st1" width="88.5" height="225.7"/>
<g>
	<path class="st2" d="M359.6,0.4v225.2H0.4V0.4H359.6 M359.9,0.1H0.1v225.7h359.7V0.1L359.9,0.1z"/>
</g>
</svg>
