<?xml version="1.0" encoding="utf-8"?>
<!-- Generator: Adobe Illustrator 19.2.1, SVG Export Plug-In . SVG Version: 6.00 Build 0)  -->
<svg version="1.1" id="Layer_1" xmlns="http://www.w3.org/2000/svg" xmlns:xlink="http://www.w3.org/1999/xlink" x="0px" y="0px"
	 viewBox="0 0 48 24" style="enable-background:new 0 0 48 24;" xml:space="preserve">
<style type="text/css">
	.st0{fill:#3374B9;}
</style>
<path class="st0" d="M45.1,9l-5.5-0.5c-0.3,0-0.6-0.3-0.8-0.6l-2-4.8c-0.3-0.8-1.4-0.8-1.8,0l-2,4.8c-0.1,0.3-0.4,0.6-0.8,0.6
	L26.9,9c-0.8,0.1-1.1,1.1-0.5,1.7l4.1,3.6c0.3,0.2,0.4,0.6,0.3,0.9l-1.2,5.1c-0.2,0.8,0.7,1.5,1.4,1l4.6-2.7c0.3-0.2,0.7-0.2,1,0
	l4.6,2.7c0.7,0.4,1.6-0.2,1.4-1l-1.2-5.1c-0.1-0.3,0-0.7,0.3-0.9l4.1-3.6C46.3,10.1,45.9,9.1,45.1,9L45.1,9z M12,3.6l1.9,4.7
	c0.3,0.7,0.9,1.1,1.6,1.2L21,9.9l-4.1,3.6c-0.5,0.5-0.8,1.2-0.6,1.9l1.2,5L13,17.8c-0.3-0.2-0.6-0.3-1-0.3s-0.7,0.1-1,0.3l-4.5,2.6
	l1.2-5c0.2-0.7-0.1-1.4-0.6-1.9L3.1,10l5.4-0.5c0.7-0.1,1.4-0.5,1.6-1.2L12,3.6 M12,2.5c-0.4,0-0.7,0.2-0.9,0.6l-2,4.8
	C9,8.2,8.7,8.4,8.4,8.5L2.9,9C2,9.1,1.7,10.1,2.3,10.6l4.1,3.6c0.3,0.2,0.4,0.6,0.3,0.9l-1.2,5.1c-0.2,0.6,0.3,1.2,0.9,1.2
	c0.2,0,0.3,0,0.5-0.1l4.6-2.7c0.1-0.1,0.3-0.1,0.5-0.1s0.3,0,0.5,0.1l4.6,2.7c0.2,0.1,0.3,0.1,0.5,0.1c0.6,0,1.1-0.5,0.9-1.2
	l-1.2-5.1c-0.1-0.3,0-0.7,0.3-0.9l4.1-3.6c0.6-0.6,0.3-1.6-0.6-1.7l-5.5-0.5c-0.3,0-0.6-0.3-0.8-0.6l-2-4.8
	C12.7,2.7,12.3,2.5,12,2.5L12,2.5z"/>
</svg>
