<?xml version="1.0" encoding="utf-8"?>
<!-- Generator: Adobe Illustrator 19.2.1, SVG Export Plug-In . SVG Version: 6.00 Build 0)  -->
<svg version="1.1" id="Layer_1" xmlns="http://www.w3.org/2000/svg" xmlns:xlink="http://www.w3.org/1999/xlink" x="0px" y="0px"
	 viewBox="0 0 360 226" style="enable-background:new 0 0 360 226;" xml:space="preserve">
<style type="text/css">
	.st0{fill:#B6E3EB;}
	.st1{fill:#9D9D9D;}
	.st2{fill:#010101;}
</style>
<g>
	<g>
		<rect x="5.1" y="31.1" class="st0" width="349.7" height="34.4"/>
	</g>
	<g>
		<rect x="5.1" y="70" class="st0" width="172" height="34.4"/>
	</g>
	<g>
		<rect x="182.7" y="70" class="st0" width="172" height="34.4"/>
	</g>
	<g>
		<rect x="5.1" y="108.9" class="st0" width="113.1" height="34.4"/>
	</g>
	<g>
		<rect x="123.4" y="108.9" class="st0" width="113.1" height="34.4"/>
	</g>
	<g>
		<rect x="241.7" y="108.9" class="st0" width="113.1" height="34.4"/>
	</g>
	<g>
		<rect x="241.7" y="186.7" class="st0" width="113.1" height="34.4"/>
	</g>
	<g>
		<rect x="5.1" y="186.7" class="st0" width="231.4" height="34.4"/>
	</g>
	<g>
		<rect x="5.1" y="147.8" class="st0" width="83.6" height="34.4"/>
	</g>
	<g>
		<rect x="93.9" y="147.8" class="st0" width="83.6" height="34.4"/>
	</g>
	<g>
		<rect x="182.6" y="147.8" class="st0" width="83.6" height="34.4"/>
	</g>
	<g>
		<rect x="271.3" y="147.8" class="st0" width="83.6" height="34.4"/>
	</g>
	<rect y="0" class="st1" width="360" height="26.9"/>
	<g>
		<path class="st2" d="M359.8,0.2v225.5H0.5V0.2H359.8 M360,0H0.3v226H360V0L360,0z"/>
	</g>
</g>
</svg>
