<?xml version="1.0" encoding="utf-8"?>
<!-- Generator: Adobe Illustrator 19.2.1, SVG Export Plug-In . SVG Version: 6.00 Build 0)  -->
<svg version="1.1" id="Layer_1" xmlns="http://www.w3.org/2000/svg" xmlns:xlink="http://www.w3.org/1999/xlink" x="0px" y="0px"
	 viewBox="0 0 236 80" style="enable-background:new 0 0 236 80;" xml:space="preserve">
<style type="text/css">
	.st0{fill:#0E7C84;}
	.st1{fill:#154A9F;}
	.st2{fill:#A61D50;}
	.st3{fill:#C05527;}
	.st4{fill:#0D94A6;}
	.st5{fill:#3073BA;}
	.st6{fill:#C21E5C;}
	.st7{fill:#DC6326;}
	.st8{fill:#17B9D4;}
	.st9{fill:#5588C6;}
	.st10{fill:#EC417B;}
	.st11{fill:#F47D20;}
	.st12{fill:#B6E3EB;}
	.st13{fill:#BEDDF4;}
	.st14{fill:#F8BBCF;}
	.st15{fill:#FDD179;}
</style>
<g>
	<g>
		<g>
			
				<rect x="19.6" y="-19.6" transform="matrix(1.603436e-10 1 -1 1.603436e-10 39.6452 -19.6452)" class="st0" width="20" height="59.3"/>
		</g>
	</g>
	<g>
		
			<rect x="78.5" y="-19.6" transform="matrix(1.602530e-10 1 -1 1.602530e-10 98.5484 -78.5484)" class="st1" width="20" height="59.3"/>
	</g>
	<g>
		<g>
			
				<rect x="137.5" y="-19.6" transform="matrix(1.604350e-10 1 -1 1.604350e-10 157.4516 -137.4516)" class="st2" width="20" height="59.3"/>
		</g>
	</g>
	<g>
		
			<rect x="196.4" y="-19.6" transform="matrix(1.602530e-10 1 -1 1.602530e-10 216.3548 -196.3548)" class="st3" width="20" height="59.3"/>
	</g>
	<g>
		<g>
			
				<rect x="19.6" y="0.4" transform="matrix(1.603436e-10 1 -1 1.603436e-10 59.6452 0.3548)" class="st4" width="20" height="59.3"/>
		</g>
	</g>
	<g>
		
			<rect x="78.5" y="0.4" transform="matrix(1.602530e-10 1 -1 1.602530e-10 118.5484 -58.5484)" class="st5" width="20" height="59.3"/>
	</g>
	<g>
		<g>
			
				<rect x="137.5" y="0.4" transform="matrix(1.604350e-10 1 -1 1.604350e-10 177.4516 -117.4516)" class="st6" width="20" height="59.3"/>
		</g>
	</g>
	<g>
		
			<rect x="196.4" y="0.4" transform="matrix(1.602530e-10 1 -1 1.602530e-10 236.3548 -176.3548)" class="st7" width="20" height="59.3"/>
	</g>
	<g>
		
			<rect x="19.6" y="20.4" transform="matrix(1.603436e-10 1 -1 1.603436e-10 79.6452 20.3548)" class="st8" width="20" height="59.3"/>
	</g>
	<g>
		
			<rect x="78.5" y="20.4" transform="matrix(1.602530e-10 1 -1 1.602530e-10 138.5484 -38.5484)" class="st9" width="20" height="59.3"/>
	</g>
	<g>
		
			<rect x="137.5" y="20.4" transform="matrix(1.604350e-10 1 -1 1.604350e-10 197.4516 -97.4516)" class="st10" width="20" height="59.3"/>
	</g>
	<g>
		
			<rect x="196.4" y="20.4" transform="matrix(1.602530e-10 1 -1 1.602530e-10 256.3548 -156.3548)" class="st11" width="20" height="59.3"/>
	</g>
	<g>
		
			<rect x="19.6" y="40.4" transform="matrix(1.603436e-10 1 -1 1.603436e-10 99.6452 40.3548)" class="st12" width="20" height="59.3"/>
	</g>
	<g>
		
			<rect x="78.5" y="40.4" transform="matrix(1.602530e-10 1 -1 1.602530e-10 158.5484 -18.5484)" class="st13" width="20" height="59.3"/>
	</g>
	<g>
		
			<rect x="137.5" y="40.4" transform="matrix(1.604350e-10 1 -1 1.604350e-10 217.4516 -77.4516)" class="st14" width="20" height="59.3"/>
	</g>
	<g>
		
			<rect x="196.4" y="40.4" transform="matrix(1.602530e-10 1 -1 1.602530e-10 276.3548 -136.3548)" class="st15" width="20" height="59.3"/>
	</g>
</g>
</svg>
