<?xml version="1.0" encoding="utf-8"?>
<!-- Generator: Adobe Illustrator 19.2.1, SVG Export Plug-In . SVG Version: 6.00 Build 0)  -->
<svg version="1.1" id="Layer_1" xmlns="http://www.w3.org/2000/svg" xmlns:xlink="http://www.w3.org/1999/xlink" x="0px" y="0px"
	 viewBox="0 0 96 96" style="enable-background:new 0 0 96 96;" xml:space="preserve">
<style type="text/css">
	.st0{fill:#0E7C84;}
	.st1{fill:#154A9F;}
	.st2{fill:#A61D50;}
	.st3{fill:#C05527;}
	.st4{fill:#0D94A6;}
	.st5{fill:#3073BA;}
	.st6{fill:#C21E5C;}
	.st7{fill:#DC6326;}
	.st8{fill:#17B9D4;}
	.st9{fill:#5588C6;}
	.st10{fill:#EC417B;}
	.st11{fill:#F47D20;}
	.st12{fill:#B6E3EB;}
	.st13{fill:#BEDDF4;}
	.st14{fill:#F8BBCF;}
	.st15{fill:#FDD179;}
</style>
<g>
	<g>
		<g>
			
				<rect x="0.1" y="-0.1" transform="matrix(5.434212e-11 1 -1 5.434212e-11 24.0591 -5.905535e-02)" class="st0" width="24" height="24.1"/>
		</g>
	</g>
	<g>
		
			<rect x="24" y="-0.1" transform="matrix(5.434212e-11 1 -1 5.434212e-11 48.0197 -24.0197)" class="st1" width="24" height="24.1"/>
	</g>
	<g>
		<g>
			
				<rect x="48" y="-0.1" transform="matrix(5.441762e-11 1 -1 5.441762e-11 71.9803 -47.9803)" class="st2" width="24" height="24.1"/>
		</g>
	</g>
	<g>
		
			<rect x="71.9" y="-0.1" transform="matrix(5.441762e-11 1 -1 5.441762e-11 95.9409 -71.9409)" class="st3" width="24" height="24.1"/>
	</g>
	<g>
		<g>
			
				<rect x="0.1" y="23.9" transform="matrix(5.434212e-11 1 -1 5.434212e-11 48.0591 23.9409)" class="st4" width="24" height="24.1"/>
		</g>
	</g>
	<g>
		
			<rect x="24" y="23.9" transform="matrix(5.434212e-11 1 -1 5.434212e-11 72.0197 -1.968512e-02)" class="st5" width="24" height="24.1"/>
	</g>
	<g>
		<g>
			
				<rect x="48" y="23.9" transform="matrix(5.441762e-11 1 -1 5.441762e-11 95.9803 -23.9803)" class="st6" width="24" height="24.1"/>
		</g>
	</g>
	<g>
		
			<rect x="71.9" y="23.9" transform="matrix(5.441762e-11 1 -1 5.441762e-11 119.9409 -47.9409)" class="st7" width="24" height="24.1"/>
	</g>
	<g>
		
			<rect x="0.1" y="47.9" transform="matrix(5.434212e-11 1 -1 5.434212e-11 72.0591 47.9409)" class="st8" width="24" height="24.1"/>
	</g>
	<g>
		
			<rect x="24" y="47.9" transform="matrix(5.434212e-11 1 -1 5.434212e-11 96.0197 23.9803)" class="st9" width="24" height="24.1"/>
	</g>
	<g>
		
			<rect x="48" y="47.9" transform="matrix(5.441762e-11 1 -1 5.441762e-11 119.9803 1.968511e-02)" class="st10" width="24" height="24.1"/>
	</g>
	<g>
		
			<rect x="71.9" y="47.9" transform="matrix(5.441762e-11 1 -1 5.441762e-11 143.9409 -23.9409)" class="st11" width="24" height="24.1"/>
	</g>
	<g>
		
			<rect x="0.1" y="71.9" transform="matrix(5.434212e-11 1 -1 5.434212e-11 96.0591 71.9409)" class="st12" width="24" height="24.1"/>
	</g>
	<g>
		
			<rect x="24" y="71.9" transform="matrix(5.434212e-11 1 -1 5.434212e-11 120.0197 47.9803)" class="st13" width="24" height="24.1"/>
	</g>
	<g>
		
			<rect x="48" y="71.9" transform="matrix(5.441762e-11 1 -1 5.441762e-11 143.9803 24.0197)" class="st14" width="24" height="24.1"/>
	</g>
	<g>
		
			<rect x="71.9" y="71.9" transform="matrix(5.441762e-11 1 -1 5.441762e-11 167.9409 5.905534e-02)" class="st15" width="24" height="24.1"/>
	</g>
</g>
</svg>
