<?xml version="1.0" encoding="utf-8"?>
<!-- Generator: Adobe Illustrator 19.2.1, SVG Export Plug-In . SVG Version: 6.00 Build 0)  -->
<svg version="1.1" id="Layer_1" xmlns="http://www.w3.org/2000/svg" xmlns:xlink="http://www.w3.org/1999/xlink" x="0px" y="0px"
	 viewBox="0 0 96 96" style="enable-background:new 0 0 96 96;" xml:space="preserve">
<style type="text/css">
	.st0{fill:#767677;}
</style>
<g>
	<g>
		<path class="st0" d="M7.7,36.6c0.2,0,0.5-0.1,0.7-0.3l4.4-4.4l-1.3-1.4l-2.7,2.7v-6.9H6.7v6.9L4,30.6L2.6,32L7,36.3
			C7.2,36.5,7.4,36.6,7.7,36.6z"/>
		<path class="st0" d="M13,38.3V40c0,0.1-0.1,0.1-0.2,0.1H2.5c-0.1,0-0.2-0.1-0.2-0.1v-1.8H0.5V40c0,1.2,0.9,2.1,2.1,2.1h10.2
			c1.1,0,2.1-0.9,2.1-2.1v-1.8H13z"/>
	</g>
	<path class="st0" d="M41.9,28.2h-1.4v-1.4h-1.4v3.6h-1.4v-2.1h-4.2v-1.4h-1.4v3.6h-1.4v-2.1h-1.4c-0.8,0-1.4,0.6-1.4,1.4v10.7
		c0,0.8,0.6,1.4,1.4,1.4h12.6c0.8,0,1.4-0.6,1.4-1.4V29.6C43.3,28.9,42.7,28.2,41.9,28.2z M32.8,39.7h-2.8v-2.9h2.8V39.7z
		 M32.8,35.4h-2.8v-2.9h2.8V35.4z M37,39.7h-2.8v-2.9H37V39.7z M37,35.4h-2.8v-2.9H37V35.4z M41.2,35.4h-2.8v-2.9h2.8V35.4z"/>
	<g>
		<path class="st0" d="M15.3,4.3H0V0h15.3V4.3z M15.3,10.1H0V5.8h15.3V10.1z M15.3,15.8H0v-4.3h15.3V15.8z M9.9,2.9V1.5H1.1v1.4H9.9
			z M9.9,8.6V7.2H1.1v1.4H9.9z M9.9,14.3v-1.4H1.1v1.4H9.9z M13.7,1.2c-0.5,0-1,0.4-1,1s0.4,1,1,1c0.5,0,1-0.4,1-1
			S14.2,1.2,13.7,1.2z M13.7,6.9c-0.5,0-1,0.4-1,1s0.4,1,1,1c0.5,0,1-0.4,1-1S14.2,6.9,13.7,6.9z M13.7,12.6c-0.5,0-1,0.4-1,1
			s0.4,1,1,1c0.5,0,1-0.4,1-1S14.2,12.6,13.7,12.6z"/>
	</g>
	<path class="st0" d="M43.2,14L36.6,0.7C36.4,0.3,36,0,35.6,0s-0.8,0.2-1,0.6L28.1,14c-0.2,0.4-0.2,0.8,0,1.2
		c0.2,0.4,0.6,0.6,0.9,0.6h13.2c0.4,0,0.7-0.2,0.9-0.6C43.3,14.8,43.4,14.4,43.2,14z M36.9,13.8c0,0.2-0.1,0.3-0.3,0.3h-1.9
		c-0.2,0-0.3-0.2-0.3-0.3v-1.9c0-0.2,0.2-0.3,0.3-0.3h1.9c0.2,0,0.3,0.2,0.3,0.3V13.8z M36.9,10.3c0,0.1-0.2,0.3-0.3,0.3h-1.8
		c-0.2,0-0.3-0.1-0.3-0.3l-0.2-6.4c0-0.1,0-0.1,0.1-0.2c0.1-0.1,0.2-0.1,0.2-0.1h2.2c0.1,0,0.2,0,0.2,0.1c0.1,0,0.1,0.1,0.1,0.2
		L36.9,10.3z"/>
	<polygon class="st0" points="70,28.1 68.6,26.7 62.6,32.9 56.6,26.7 55.2,28.1 61.2,34.3 55.2,40.5 56.6,41.9 62.6,35.7 68.6,41.9 
		70,40.5 64,34.3 	"/>
	<g>
		<g>
			<polygon class="st0" points="61.4,6.5 63.5,8.6 60.8,9.2 			"/>
			<path class="st0" d="M69.3,2.7c0.6-0.6,0.6-1.6,0-2.2c-0.6-0.6-1.5-0.6-2.1,0l-4.8,4.9l2.1,2.2L69.3,2.7z"/>
		</g>
		<path class="st0" d="M67.2,15.8h-9.7c-1.1,0-2-0.9-2-2.1v-10c0-1.1,0.9-2.1,2-2.1h4.7v2h-4.7c-0.1,0-0.1,0.1-0.1,0.1v10
			c0,0.1,0,0.1,0.1,0.1h9.7c0.1,0,0.1-0.1,0.1-0.1v-5h1.9v5C69.3,14.8,68.3,15.8,67.2,15.8z"/>
	</g>
	<g>
		<polygon class="st0" points="10.1,55.9 10.1,54.3 5.3,54.3 5.3,55.9 0.4,55.9 0.4,57.6 14.9,57.6 14.9,55.9 		"/>
		<path class="st0" d="M2,58.4v9.9C2,69.2,2.7,70,3.6,70h8.1c0.9,0,1.6-0.7,1.6-1.7v-9.9H2z M6.9,66.7H5.3v-5h1.6V66.7z M10.1,66.7
			H8.5v-5h1.6V66.7z"/>
	</g>
	<path class="st0" d="M44.5,63.1l-8.4-8.6c-0.1-0.1-0.3-0.2-0.5-0.2h-5.4c-0.4,0-0.8,0.4-0.8,0.8v5.5c0,0.2,0.1,0.4,0.2,0.6l8.4,8.6
		c0.1,0.2,0.3,0.2,0.5,0.2c0.2,0,0.4-0.1,0.5-0.2l5.4-5.5C44.8,63.9,44.8,63.4,44.5,63.1z M33.2,59.8c-0.8,0-1.5-0.7-1.5-1.6
		c0-0.9,0.7-1.6,1.5-1.6c0.8,0,1.5,0.7,1.5,1.6C34.8,59.1,34.1,59.8,33.2,59.8z"/>
	<path class="st0" d="M62.4,70c-4.2,0-7.7-3.6-7.7-7.9c0-4.3,3.5-7.9,7.7-7.8c4.2,0,7.6,3.5,7.6,7.8C70.1,66.4,66.6,70,62.4,70z
		 M59.1,62.1c0,1.9,1.5,3.4,3.3,3.4c1.8,0,3.3-1.5,3.3-3.4c0-1.9-1.5-3.3-3.3-3.3C60.6,58.8,59.1,60.3,59.1,62.1z M59.3,56.2
		c0.5,0.5,1,1,1.4,1.4c0.1,0.1,0.4,0.2,0.6,0.2c0.7-0.2,1.5-0.2,2.2,0c0.1,0,0.3,0.1,0.4,0c0.5-0.5,1-1.1,1.6-1.6
		C63.4,55.1,61.4,55.1,59.3,56.2z M59.3,68.1c2.1,1.1,4.1,1.1,6.2,0c-0.5-0.5-1-1.1-1.5-1.6c-0.1-0.1-0.2-0.1-0.3-0.1
		c-0.8,0.2-1.6,0.2-2.5,0c-0.1,0-0.2,0-0.3,0.1C60.4,67,59.9,67.5,59.3,68.1z M56.6,58.9c-1,2.1-1,4.2,0,6.3
		c0.5-0.6,1.1-1.1,1.5-1.6c0.1-0.1,0.1-0.3,0-0.4c-0.2-0.8-0.2-1.5,0-2.3c0-0.1,0-0.3,0-0.4C57.7,60,57.2,59.5,56.6,58.9z
		 M68.2,58.9c-0.5,0.6-1,1.1-1.5,1.6c-0.1,0.1-0.1,0.3-0.1,0.4c0.2,0.8,0.2,1.7,0,2.5c0,0.1,0,0.3,0.1,0.3c0.5,0.5,1,1,1.5,1.6
		C69.3,63.2,69.3,61.1,68.2,58.9z"/>
	<g>
		<path class="st0" d="M95.8,55.4L90.4,61v8.3c0,0.3-0.2,0.6-0.4,0.7c-0.1,0-0.2,0.1-0.3,0.1c-0.2,0-0.4-0.1-0.5-0.2l-2.8-2.9
			c-0.1-0.1-0.2-0.3-0.2-0.5V61l-5.4-5.5c-0.2-0.2-0.3-0.5-0.2-0.8c0.1-0.3,0.4-0.4,0.6-0.4h14c0.3,0,0.5,0.2,0.6,0.4
			C96.1,54.9,96,55.2,95.8,55.4z"/>
	</g>
	<path class="st0" d="M96,35.9v-3.2h-1.7c-0.2-0.7-0.5-1.4-0.9-2l1.1-1.1L92.9,28l-1.1,1.1c-0.6-0.4-1.3-0.7-2-0.9v-1.8h-3.1v1.8
		c-0.7,0.2-1.4,0.5-2,0.9L83.6,28l-1.5,1.6l1.1,1.1c-0.4,0.6-0.7,1.3-0.9,2h-1.7v3.2h1.7c0.2,0.7,0.5,1.4,0.9,2L82.1,39l1.5,1.6
		l1.1-1.1c0.6,0.4,1.3,0.7,2,0.9v1.8h3.1v-1.8c0.7-0.2,1.4-0.5,2-0.9l1.1,1.1l1.5-1.6l-1.1-1.1c0.4-0.6,0.7-1.3,0.9-2H96z
		 M88.3,37.5c-1.6,0-2.9-1.4-2.9-3.2c0-1.7,1.3-3.2,2.9-3.2s2.9,1.4,2.9,3.2C91.1,36,89.9,37.5,88.3,37.5z"/>
	<g>
		<path class="st0" d="M92.4,95.1h-9.8c-1.1,0-2-0.9-2-2.1v-7.9c0-1.2,0.9-2.1,2-2.1h3.6v2h-3.6c-0.1,0-0.1,0.1-0.1,0.1V93
			c0,0.1,0.1,0.1,0.1,0.1h9.8c0.1,0,0.1-0.1,0.1-0.1v-1.7h1.9V93C94.5,94.1,93.6,95.1,92.4,95.1z"/>
		<path class="st0" d="M95.9,85.1l-3.8-3.9c-0.1-0.1-0.2-0.1-0.3-0.1c-0.1,0-0.1,0-0.2,0c-0.2,0.1-0.3,0.3-0.3,0.4v1.9
			c-3.1,0-5.7,3-5.7,6.8c0.9-1.1,2.5-2.9,5.7-2.9v1.9c0,0.2,0.1,0.4,0.3,0.4c0.1,0,0.1,0,0.2,0c0.1,0,0.2,0,0.3-0.1l3.8-3.9
			C96,85.6,96,85.3,95.9,85.1z"/>
	</g>
	<g>
		<g>
			<ellipse class="st0" cx="62.4" cy="84.1" rx="3.9" ry="4"/>
			<path class="st0" d="M62.4,89.1c-4.5,0-7.7,2.4-7.7,5.9v1h15.4v-1C70.1,91.5,67,89.1,62.4,89.1z"/>
		</g>
	</g>
	<g>
		<path class="st0" d="M11.2,80.2H5.5v3.3H2v0V96h9.4v-3.3h3.4V84L11.2,80.2z M10,94.5H3.5v-9.6h2h1.4v3.2h0H10v3.2v1.5V94.5z
			 M13.5,91.2h-2v-3.9l-1.9-1.9l-1.9-1.9H6.9v-1.8h3.4v3.2h3.1V91.2z"/>
	</g>
	<g>
		<g>
			<path class="st0" d="M41.9,87c-0.5,0.6-1,1-1.4,1.5c-1.3,1.3-0.7,0.7-2,2c-0.3,0.3-0.5,0.3-0.8,0c-0.6-0.6-1.2-1.2-1.8-1.9
				c-1.2,1.2-2.3,2.5-3.5,3.6c-0.6-0.6-1.1-1.2-1.7-1.8c0,0,0.1-0.1,0.2-0.2c1.5-1.6,3-3.1,4.5-4.7c0.4-0.4,0.5-0.4,0.8,0
				c0.6,0.6,1.1,1.2,1.7,1.7c1.3-1.4,0.8-0.7,2.2-2.2c-0.2-0.2-0.5-0.5-0.8-0.8c-0.1-0.1-0.2-0.3-0.2-0.4c0-0.1,0.3-0.2,0.4-0.2
				c1.1,0,2.3,0,3.4,0c0.3,0,0.5,0.1,0.5,0.5c0,1.2,0,2.3,0,3.5c0,0.1-0.1,0.3-0.2,0.4c-0.1,0-0.3-0.1-0.4-0.2
				C42.4,87.8,42.2,87.4,41.9,87z"/>
		</g>
		<path class="st0" d="M43.4,96H30c-1.1,0-2.1-0.9-2.1-2.1V80.2h1.9v13.7c0,0.1,0.1,0.1,0.1,0.1h13.4V96z"/>
	</g>
	<g>
		<path class="st0" d="M96,4.3H80.6V0H96V4.3z M96,10.1H80.6V5.8H96V10.1z M96,15.8H80.6v-4.3H96V15.8z M90.5,2.9V1.4h-8.8v1.4H90.5
			z M90.5,8.6V7.2h-8.8v1.4H90.5z M90.5,14.4v-1.4h-8.8v1.4H90.5z M94.3,1.2c-0.5,0-1,0.4-1,1s0.4,1,1,1s1-0.4,1-1
			S94.9,1.2,94.3,1.2z M94.3,6.9c-0.5,0-1,0.4-1,1s0.4,1,1,1s1-0.4,1-1S94.9,6.9,94.3,6.9z M94.3,12.7c-0.5,0-1,0.4-1,1
			c0,0.5,0.4,1,1,1s1-0.4,1-1C95.3,13.1,94.9,12.7,94.3,12.7z"/>
	</g>
</g>
</svg>
