<?xml version="1.0" encoding="utf-8"?>
<!-- Generator: Adobe Illustrator 19.2.1, SVG Export Plug-In . SVG Version: 6.00 Build 0)  -->
<svg version="1.1" id="Layer_1" xmlns="http://www.w3.org/2000/svg" xmlns:xlink="http://www.w3.org/1999/xlink" x="0px" y="0px"
	 viewBox="0 0 96 96" style="enable-background:new 0 0 96 96;" xml:space="preserve">
<style type="text/css">
	.st0{fill:#767677;}
</style>
<g>
	<path class="st0" d="M0.9,12L5.2,0.2h1.4L10.7,12H9.1L8,9H3.6L2.5,12H0.9z M4,7.6h3.5L5.9,2.5h0L4,7.6z"/>
	<path class="st0" d="M13.2,12V0.2h3.9c1.2,0,2.2,0.3,2.9,0.8c0.7,0.5,1,1.3,1,2.4c0,0.5-0.2,1-0.5,1.4c-0.3,0.4-0.7,0.7-1.3,0.9
		c0.8,0.1,1.4,0.4,1.8,1c0.5,0.6,0.7,1.2,0.7,2c0,1.1-0.4,1.9-1.1,2.5c-0.7,0.6-1.7,0.9-2.9,0.9H13.2z M14.8,5.2h2.6
		c0.6,0,1.1-0.2,1.5-0.5c0.4-0.3,0.6-0.8,0.6-1.4c0-0.6-0.2-1.1-0.6-1.4c-0.4-0.3-1-0.5-1.7-0.5h-2.3V5.2z M14.8,10.8h3.1
		c0.7,0,1.3-0.2,1.7-0.5c0.4-0.4,0.6-0.9,0.6-1.5c0-0.7-0.2-1.2-0.6-1.6c-0.4-0.4-1-0.6-1.7-0.6h-0.1h-3V10.8z"/>
	<path class="st0" d="M24.3,7.2V5c0-1.5,0.4-2.7,1.3-3.6c0.8-1,1.9-1.4,3.3-1.4c1.3,0,2.4,0.3,3.2,1.1c0.8,0.7,1.2,1.6,1.2,2.7
		c0,0,0,0.1,0,0.1l0,0h-1.5c0-0.8-0.2-1.5-0.7-2s-1.2-0.7-2.1-0.7c-0.9,0-1.6,0.4-2.1,1.1S25.9,4,25.9,5v2.1c0,1.1,0.3,2,0.8,2.7
		c0.5,0.7,1.2,1.1,2.1,1.1c0.9,0,1.6-0.2,2.1-0.7c0.5-0.5,0.7-1.1,0.7-2h1.5l0,0c0,0,0,0.1,0,0.1c0,1.1-0.4,2-1.2,2.7
		c-0.8,0.8-1.9,1.1-3.2,1.1c-1.3,0-2.4-0.5-3.3-1.4C24.7,9.8,24.3,8.6,24.3,7.2z"/>
	<path class="st0" d="M36.3,12V0.2H40c1.5,0,2.8,0.5,3.7,1.4c0.9,1,1.4,2.2,1.4,3.7v1.6c0,1.5-0.5,2.7-1.4,3.7
		C42.8,11.5,41.5,12,40,12H36.3z M37.9,10.8H40c1.1,0,2-0.4,2.6-1.1C43.2,9,43.5,8,43.5,6.9V5.3c0-1.1-0.3-2-0.9-2.8
		C42,1.8,41.1,1.4,40,1.4h-2.1V10.8z"/>
	<path class="st0" d="M48.1,12V0.2h7.2v1.3h-5.6v3.8h4.9v1.3h-4.9v4.2h5.7V12H48.1z"/>
	<path class="st0" d="M58.3,12V0.2h7.4v1.3h-5.8v4.1h5v1.3h-5V12H58.3z"/>
	<path class="st0" d="M68,7.3V4.9c0-1.4,0.4-2.6,1.3-3.5c0.9-0.9,2-1.4,3.3-1.4c1.3,0,2.4,0.4,3.1,1c0.7,0.7,1.1,1.5,1.1,2.6
		c0,0,0,0.1,0,0.1l0,0h-1.5c0-0.7-0.2-1.3-0.7-1.8c-0.5-0.5-1.1-0.7-2-0.7c-0.9,0-1.6,0.3-2.2,1s-0.8,1.5-0.8,2.6v2.5
		c0,1.1,0.3,1.9,0.9,2.6c0.6,0.7,1.3,1,2.2,1c0.7,0,1.3-0.1,1.7-0.3c0.4-0.2,0.7-0.4,0.9-0.6V7.4h-2.7V6.1h4.3v4.3
		c-0.3,0.4-0.8,0.8-1.5,1.2c-0.7,0.4-1.6,0.6-2.7,0.6c-1.4,0-2.5-0.5-3.4-1.4C68.4,9.9,68,8.8,68,7.3z"/>
	<path class="st0" d="M80.1,12V0.2h1.6v5.4h5.7V0.2H89V12h-1.6V6.8h-5.7V12H80.1z"/>
	<path class="st0" d="M93.2,12V0.2h1.6V12H93.2z"/>
	<path class="st0" d="M1.2,24.9L1.2,24.9l1.6,0c0,0.7,0.2,1.3,0.5,1.6C3.6,26.8,4.1,27,4.7,27c0.6,0,1.1-0.2,1.4-0.6
		c0.4-0.4,0.6-1,0.6-1.7v-8.4h1.6v8.4c0,1.1-0.3,2-1,2.6c-0.7,0.7-1.5,1-2.6,1c-1.1,0-2-0.3-2.6-0.9C1.5,26.8,1.2,26,1.2,25
		C1.2,25,1.2,24.9,1.2,24.9z"/>
	<path class="st0" d="M12,28.1V16.3h1.6v5.2h0.9l4.4-5.2h1.8l0,0l-4.8,5.6l5.1,6.2l0,0h-1.9l-4.4-5.4h-1v5.4H12z"/>
	<path class="st0" d="M23.9,28.1V16.3h1.6v10.6h5.8v1.3H23.9z"/>
	<path class="st0" d="M34.2,28.1V16.3h2.1l3.8,9.6h0l3.8-9.6h2v11.8h-1.6v-8.9l0,0l-3.6,8.9h-1.1l-3.7-9.2l0,0v9.2H34.2z"/>
	<path class="st0" d="M49.5,28.1V16.3h1.6l5.7,9l0,0v-9h1.6v11.8h-1.6l-5.7-9l0,0v9H49.5z"/>
	<path class="st0" d="M61.9,23.2v-2.1c0-1.4,0.4-2.6,1.3-3.6c0.9-1,2-1.4,3.4-1.4c1.4,0,2.6,0.5,3.5,1.4c0.9,1,1.3,2.2,1.3,3.6v2.1
		c0,1.4-0.4,2.6-1.3,3.6c-0.9,1-2.1,1.4-3.5,1.4c-1.4,0-2.5-0.5-3.4-1.4C62.3,25.9,61.9,24.7,61.9,23.2z M63.5,23.2
		c0,1.1,0.3,2,0.8,2.7c0.6,0.7,1.3,1,2.2,1c1,0,1.8-0.3,2.4-1c0.6-0.7,0.9-1.6,0.9-2.7v-2.1c0-1.1-0.3-2-0.9-2.7
		c-0.6-0.7-1.4-1-2.4-1c-0.9,0-1.7,0.3-2.2,1c-0.6,0.7-0.8,1.6-0.8,2.7V23.2z"/>
	<path class="st0" d="M74.5,28.1V16.3H79c1.3,0,2.2,0.3,2.9,1c0.7,0.7,1.1,1.5,1.1,2.6c0,1.1-0.4,1.9-1.1,2.6c-0.7,0.6-1.7,1-2.9,1
		h-2.9v4.7H74.5z M76.1,22.1H79c0.8,0,1.4-0.2,1.8-0.6c0.4-0.4,0.6-1,0.6-1.6c0-0.7-0.2-1.2-0.6-1.6c-0.4-0.4-1-0.7-1.8-0.7h-2.9
		V22.1z"/>
	<path class="st0" d="M85.8,23.2v-2.1c0-1.4,0.4-2.6,1.3-3.6c0.9-1,2-1.4,3.4-1.4c1.4,0,2.6,0.5,3.5,1.4c0.9,1,1.3,2.2,1.3,3.6v2.1
		c0,0.6-0.1,1.2-0.3,1.8c-0.2,0.6-0.4,1.1-0.8,1.5l1.8,1.7l-1.1,1l-1.8-1.7c-0.4,0.2-0.8,0.4-1.2,0.5c-0.4,0.1-0.9,0.2-1.4,0.2
		c-1.4,0-2.5-0.5-3.4-1.4C86.2,25.9,85.8,24.7,85.8,23.2z M87.4,23.2c0,1.1,0.3,2,0.8,2.7c0.6,0.7,1.3,1,2.2,1c1,0,1.8-0.3,2.4-1
		c0.6-0.7,0.9-1.6,0.9-2.7v-2.1c0-1.1-0.3-2-0.9-2.7c-0.6-0.7-1.4-1-2.4-1c-0.9,0-1.7,0.3-2.2,1c-0.6,0.7-0.8,1.6-0.8,2.7V23.2z"/>
	<path class="st0" d="M8,39.2l2.9,4.9H9l-2.7-4.8H3.5v4.8H1.9V32.3h4.5c1.3,0,2.2,0.3,2.9,1c0.7,0.7,1.1,1.5,1.1,2.6
		c0,1.1-0.4,1.9-1.1,2.6C9,38.8,8.5,39.1,8,39.2z M3.5,38.2h2.9c0.8,0,1.4-0.2,1.8-0.6c0.4-0.4,0.6-1,0.6-1.6c0-0.7-0.2-1.2-0.6-1.6
		c-0.4-0.4-1-0.7-1.8-0.7H3.5V38.2z"/>
	<path class="st0" d="M13,40.8L13,40.8l1.6,0c0,0.7,0.3,1.3,0.8,1.7c0.6,0.4,1.2,0.6,1.9,0.6c0.8,0,1.4-0.2,1.8-0.5
		c0.4-0.3,0.7-0.8,0.7-1.4c0-0.5-0.2-1-0.6-1.3c-0.4-0.4-1.1-0.7-2-0.9c-1.2-0.3-2.1-0.7-2.8-1.3c-0.7-0.6-1-1.3-1-2.2
		c0-0.9,0.4-1.7,1.1-2.3c0.7-0.6,1.7-0.9,2.8-0.9c1.2,0,2.2,0.4,3,1.1c0.7,0.7,1.1,1.5,1.1,2.4c0,0,0,0.1,0,0.1l0,0h-1.5
		c0-0.7-0.2-1.2-0.7-1.7c-0.5-0.4-1.1-0.7-1.8-0.7c-0.7,0-1.3,0.2-1.7,0.5c-0.4,0.4-0.6,0.8-0.6,1.4c0,0.5,0.2,0.9,0.7,1.3
		c0.4,0.3,1.1,0.6,2.1,0.9c1.2,0.3,2.1,0.8,2.7,1.4c0.6,0.6,0.9,1.3,0.9,2.2c0,1-0.4,1.7-1.1,2.3c-0.8,0.6-1.7,0.9-2.9,0.9
		c-1.1,0-2.2-0.3-3-1C13.4,42.8,13,42,13,40.8C13,40.9,13,40.9,13,40.8z"/>
	<path class="st0" d="M23.4,33.6v-1.3h9.4v1.3h-3.9v10.6h-1.6V33.6H23.4z"/>
	<path class="st0" d="M35.3,40.2v-7.9h1.6v7.9c0,0.9,0.3,1.6,0.8,2.1c0.5,0.5,1.2,0.8,2,0.8c0.9,0,1.6-0.3,2.1-0.8
		c0.5-0.5,0.8-1.2,0.8-2.1v-7.9h1.6v7.9c0,1.3-0.4,2.3-1.3,3.1c-0.8,0.7-1.9,1.1-3.3,1.1c-1.3,0-2.3-0.4-3.2-1.1
		C35.7,42.5,35.3,41.5,35.3,40.2z"/>
	<path class="st0" d="M46.5,32.3h1.7l3.1,8.7l0.3,1h0l0.3-1l3.1-8.7h1.7l-4.4,11.8h-1.4L46.5,32.3z"/>
	<path class="st0" d="M58.7,32.3h1.7l1.7,7.7l0.2,1.6l0,0l0.3-1.6l2.1-7.7h1.6l2.1,7.7l0.3,1.6h0l0.2-1.6l1.7-7.7h1.7l-2.9,11.8
		h-1.4L65.8,36l-0.3-1.1h-0.1l-0.2,1l-2.4,8.3h-1.2L58.7,32.3z"/>
	<path class="st0" d="M74.5,44.2l3.8-6l-3.8-5.9h1.9l2.7,4.6l2.8-4.6H84l-3.8,5.9l3.8,6h-1.9l-2.8-4.7l-2.8,4.7H74.5z"/>
	<path class="st0" d="M85.9,32.3h1.8l3.1,6l3.1-6h1.8L91.6,40v4.2H90v-4.3L85.9,32.3z"/>
	<path class="st0" d="M1.3,60.3v-1.2l6.3-9.4H1.4v-1.3h8.1v1.1L3.1,59h6.6v1.3H1.3z"/>
	<path class="st0" d="M11.8,57.8c0-0.8,0.3-1.5,1-2c0.7-0.5,1.6-0.7,2.8-0.7h1.7v-0.9c0-0.5-0.2-0.9-0.5-1.2
		c-0.3-0.3-0.8-0.5-1.3-0.5c-0.5,0-0.9,0.1-1.3,0.4c-0.3,0.3-0.5,0.6-0.5,0.9l-1.5,0l0,0c0,0,0-0.1,0-0.1c0-0.6,0.3-1.1,0.9-1.7
		c0.6-0.5,1.5-0.8,2.5-0.8c1,0,1.8,0.3,2.4,0.8c0.6,0.5,0.9,1.2,0.9,2.2v4.2c0,0.3,0,0.6,0,0.9c0,0.3,0.1,0.6,0.2,0.9h-1.6
		c-0.1-0.3-0.1-0.5-0.1-0.7c0-0.2,0-0.4-0.1-0.6c-0.3,0.4-0.7,0.8-1.2,1.1c-0.5,0.3-1,0.4-1.5,0.4c-0.9,0-1.6-0.2-2.1-0.7
		S11.8,58.6,11.8,57.8z M13.4,57.8c0,0.4,0.1,0.7,0.4,0.9c0.2,0.2,0.6,0.3,1.1,0.3c0.6,0,1.1-0.1,1.6-0.4c0.5-0.3,0.8-0.6,0.9-1
		v-1.4h-1.8c-0.6,0-1.2,0.2-1.5,0.5C13.6,57,13.4,57.4,13.4,57.8z"/>
	<path class="st0" d="M22.6,60.3V47.6h1.6v4.9c0.3-0.4,0.6-0.7,1-0.9s0.9-0.3,1.4-0.3c1.1,0,1.9,0.4,2.5,1.3c0.6,0.9,0.9,2,0.9,3.4
		v0.2c0,1.3-0.3,2.3-0.9,3.1c-0.6,0.8-1.4,1.2-2.5,1.2c-0.6,0-1.1-0.1-1.5-0.3c-0.4-0.2-0.8-0.6-1.1-1l-0.3,1.2H22.6z M24.2,57.8
		c0.2,0.4,0.5,0.8,0.8,1c0.3,0.2,0.8,0.4,1.3,0.4c0.8,0,1.3-0.3,1.7-0.8c0.4-0.5,0.6-1.2,0.6-2.1V56c0-1-0.2-1.8-0.6-2.5
		c-0.4-0.6-0.9-1-1.7-1c-0.5,0-0.9,0.1-1.2,0.4c-0.3,0.2-0.6,0.6-0.8,1V57.8z"/>
	<path class="st0" d="M32.9,56v-0.3c0-1.2,0.3-2.3,1-3.1c0.7-0.8,1.6-1.3,2.9-1.3c1,0,1.8,0.3,2.4,0.9c0.6,0.6,0.9,1.3,0.9,2.1
		c0,0,0,0.1,0,0.1l0,0.1h-1.5c0-0.5-0.2-1-0.5-1.4c-0.4-0.4-0.8-0.6-1.3-0.6c-0.8,0-1.4,0.3-1.7,0.9c-0.4,0.6-0.5,1.3-0.5,2.2V56
		c0,0.9,0.2,1.6,0.5,2.2c0.4,0.6,0.9,0.9,1.7,0.9c0.5,0,0.9-0.2,1.3-0.5c0.4-0.3,0.6-0.7,0.6-1.2H40l0,0c0,0,0,0,0,0.1
		c0,0.7-0.3,1.4-1,1.9c-0.7,0.6-1.5,0.9-2.3,0.9c-1.2,0-2.2-0.4-2.9-1.3C33.2,58.3,32.9,57.3,32.9,56z"/>
	<path class="st0" d="M42.9,56.2V56c0-1.4,0.3-2.6,0.9-3.4c0.6-0.9,1.5-1.3,2.5-1.3c0.5,0,1,0.1,1.4,0.3c0.4,0.2,0.7,0.5,1,0.8v-4.8
		h1.6v12.7h-1.2l-0.2-1.1c-0.3,0.4-0.6,0.7-1.1,1s-0.9,0.3-1.5,0.3c-1.1,0-1.9-0.4-2.5-1.2C43.2,58.5,42.9,57.5,42.9,56.2z
		 M44.5,56.2c0,0.9,0.2,1.6,0.5,2.1c0.4,0.5,0.9,0.8,1.7,0.8c0.5,0,0.9-0.1,1.2-0.3c0.3-0.2,0.6-0.5,0.8-0.9v-4.1
		c-0.2-0.4-0.5-0.7-0.8-0.9c-0.3-0.2-0.7-0.3-1.2-0.3c-0.8,0-1.3,0.3-1.7,1c-0.4,0.6-0.5,1.5-0.5,2.5V56.2z"/>
	<path class="st0" d="M53.5,56v-0.4c0-1.3,0.4-2.3,1.1-3.1c0.7-0.8,1.6-1.2,2.7-1.2c1.2,0,2.1,0.4,2.6,1.1c0.6,0.7,0.9,1.7,0.9,2.9
		v0.8h-5.6l0,0c0,0.9,0.2,1.6,0.6,2.1c0.4,0.5,1,0.8,1.8,0.8c0.5,0,1-0.1,1.4-0.2c0.4-0.2,0.8-0.4,1.1-0.6l0.6,1
		c-0.3,0.3-0.7,0.6-1.2,0.8c-0.5,0.2-1.1,0.3-1.9,0.3c-1.3,0-2.2-0.4-3-1.2C53.8,58.4,53.5,57.4,53.5,56z M55.2,54.9L55.2,54.9l4,0
		v-0.1c0-0.6-0.2-1.2-0.5-1.6c-0.3-0.4-0.8-0.6-1.5-0.6c-0.6,0-1,0.2-1.4,0.6C55.5,53.6,55.3,54.2,55.2,54.9z"/>
	<path class="st0" d="M63.3,52.7v-1.2h1.4v-1.1c0-0.9,0.2-1.7,0.7-2.2c0.5-0.5,1.2-0.8,2.1-0.8c0.2,0,0.4,0,0.6,0
		c0.2,0,0.4,0.1,0.6,0.1l-0.2,1.2c-0.1,0-0.2,0-0.4-0.1c-0.1,0-0.3,0-0.4,0c-0.5,0-0.8,0.1-1,0.4c-0.2,0.3-0.3,0.7-0.3,1.2v1.1h1.6
		v1.2h-1.6v7.6h-1.6v-7.6H63.3z"/>
	<path class="st0" d="M70.7,56.2V56c0-1.4,0.3-2.6,0.9-3.4c0.6-0.9,1.4-1.3,2.5-1.3c0.6,0,1,0.1,1.5,0.3c0.4,0.2,0.8,0.5,1.1,1
		l0.2-1.1h1.3v8.9c0,1.1-0.3,2-1,2.6c-0.7,0.6-1.6,0.9-2.8,0.9c-0.4,0-0.9-0.1-1.4-0.2c-0.5-0.1-0.9-0.3-1.3-0.5l0.2-1.2
		c0.3,0.2,0.7,0.3,1.1,0.4c0.4,0.1,0.9,0.2,1.3,0.2c0.8,0,1.3-0.2,1.7-0.5c0.4-0.4,0.5-0.9,0.5-1.6v-1c-0.3,0.4-0.6,0.6-1,0.8
		c-0.4,0.2-0.9,0.3-1.4,0.3c-1.1,0-1.9-0.4-2.5-1.2C71,58.5,70.7,57.5,70.7,56.2z M72.3,56.2c0,0.9,0.2,1.6,0.5,2.1
		c0.4,0.5,0.9,0.8,1.7,0.8c0.5,0,0.9-0.1,1.2-0.3c0.3-0.2,0.6-0.5,0.8-0.9v-4.1c-0.2-0.4-0.5-0.7-0.8-0.9c-0.3-0.2-0.7-0.3-1.2-0.3
		c-0.8,0-1.3,0.3-1.7,1c-0.4,0.6-0.5,1.5-0.5,2.5V56.2z"/>
	<path class="st0" d="M81.8,60.3V47.6h1.6v5.1c0.3-0.4,0.7-0.8,1.1-1c0.4-0.2,0.9-0.4,1.5-0.4c0.9,0,1.7,0.3,2.2,0.8
		c0.5,0.6,0.8,1.4,0.8,2.6v5.5h-1.6v-5.5c0-0.7-0.2-1.3-0.5-1.6c-0.3-0.3-0.8-0.5-1.4-0.5c-0.5,0-0.9,0.1-1.2,0.3
		c-0.4,0.2-0.6,0.4-0.9,0.8v6.6H81.8z"/>
	<path class="st0" d="M92.8,49.2v-1.6h1.6v1.6H92.8z M92.8,60.3v-8.8h1.6v8.8H92.8z"/>
	<path class="st0" d="M0,79.9l0.1-1.4c0.1,0,0.2,0.1,0.3,0.1c0.1,0,0.3,0,0.3,0c0.4,0,0.6-0.1,0.8-0.4c0.2-0.2,0.3-0.6,0.3-1.2v-9.5
		h1.6v9.5c0,0.9-0.2,1.6-0.7,2.1c-0.5,0.5-1.1,0.7-1.9,0.7c-0.2,0-0.3,0-0.5,0C0.3,79.9,0.2,79.9,0,79.9z M1.9,65.3v-1.6h1.6v1.6
		H1.9z"/>
	<path class="st0" d="M7.6,76.4V63.7h1.6V71H10l2.6-3.5h1.9l-3.2,4.1l3.5,4.7h-1.9L10,72.3H9.2v4.1H7.6z"/>
	<path class="st0" d="M17.6,76.4V63.7h1.6v12.7H17.6z"/>
	<path class="st0" d="M23.2,76.4v-8.8h1.4l0.1,1.2c0.3-0.4,0.7-0.7,1.1-1c0.4-0.2,1-0.3,1.5-0.3c0.6,0,1.1,0.1,1.5,0.4
		c0.4,0.3,0.7,0.7,0.9,1.2c0.3-0.5,0.7-0.9,1.1-1.2c0.5-0.3,1-0.4,1.6-0.4c0.9,0,1.6,0.3,2.1,0.9c0.5,0.6,0.8,1.5,0.8,2.8v5.3h-1.6
		v-5.3c0-0.9-0.1-1.5-0.4-1.8c-0.3-0.4-0.7-0.5-1.3-0.5c-0.5,0-1,0.2-1.3,0.6c-0.3,0.4-0.5,0.9-0.6,1.4v0.1v5.6h-1.6v-5.3
		c0-0.8-0.2-1.4-0.5-1.8c-0.3-0.4-0.7-0.6-1.3-0.6c-0.5,0-0.9,0.1-1.2,0.3c-0.3,0.2-0.6,0.5-0.7,0.8v6.5H23.2z"/>
	<path class="st0" d="M38.9,76.4v-8.8h1.4l0.1,1.3c0.3-0.5,0.7-0.8,1.1-1.1c0.4-0.3,0.9-0.4,1.5-0.4c0.9,0,1.7,0.3,2.2,0.8
		c0.5,0.6,0.8,1.4,0.8,2.6v5.6h-1.6v-5.5c0-0.8-0.2-1.3-0.5-1.7c-0.3-0.3-0.8-0.5-1.4-0.5c-0.5,0-0.9,0.1-1.3,0.3
		c-0.3,0.2-0.6,0.5-0.8,0.8v6.5H38.9z"/>
	<path class="st0" d="M49.1,72.1v-0.2c0-1.3,0.4-2.4,1.1-3.2c0.7-0.8,1.7-1.3,2.9-1.3c1.2,0,2.2,0.4,2.9,1.3
		c0.7,0.8,1.1,1.9,1.1,3.2v0.2c0,1.3-0.4,2.4-1.1,3.2c-0.7,0.8-1.7,1.3-2.9,1.3c-1.2,0-2.2-0.4-2.9-1.3
		C49.4,74.4,49.1,73.4,49.1,72.1z M50.7,72.1c0,0.9,0.2,1.7,0.6,2.3c0.4,0.6,1,0.9,1.8,0.9c0.8,0,1.3-0.3,1.7-0.9
		c0.4-0.6,0.6-1.4,0.6-2.3v-0.2c0-0.9-0.2-1.7-0.6-2.3c-0.4-0.6-1-0.9-1.8-0.9c-0.8,0-1.3,0.3-1.7,0.9c-0.4,0.6-0.6,1.4-0.6,2.3
		V72.1z"/>
	<path class="st0" d="M60,79.7V67.6h1.2l0.3,1.1c0.3-0.4,0.6-0.7,1.1-1c0.4-0.2,0.9-0.3,1.5-0.3c1.1,0,1.9,0.4,2.5,1.3
		c0.6,0.9,0.9,2,0.9,3.4v0.2c0,1.3-0.3,2.3-0.9,3.1c-0.6,0.8-1.4,1.2-2.5,1.2c-0.5,0-1-0.1-1.4-0.3c-0.4-0.2-0.8-0.5-1-0.8v4.3H60z
		 M61.6,74.1c0.2,0.4,0.5,0.6,0.8,0.8c0.3,0.2,0.7,0.3,1.2,0.3c0.8,0,1.3-0.3,1.7-0.8c0.4-0.6,0.6-1.3,0.6-2.1v-0.2
		c0-1-0.2-1.8-0.6-2.5c-0.4-0.6-1-1-1.7-1c-0.5,0-0.9,0.1-1.2,0.3c-0.3,0.2-0.6,0.5-0.8,0.9V74.1z"/>
	<path class="st0" d="M70.3,72.3v-0.2c0-1.4,0.3-2.6,0.9-3.4c0.6-0.9,1.5-1.3,2.5-1.3c0.5,0,1,0.1,1.4,0.3c0.4,0.2,0.8,0.5,1,0.9
		l0.2-1h1.2v12.2h-1.6v-4.2c-0.3,0.3-0.6,0.6-1,0.8c-0.4,0.2-0.8,0.3-1.3,0.3c-1.1,0-1.9-0.4-2.5-1.2C70.6,74.6,70.3,73.6,70.3,72.3
		z M71.9,72.3c0,0.9,0.2,1.6,0.5,2.2c0.4,0.5,0.9,0.8,1.7,0.8c0.4,0,0.8-0.1,1.1-0.3c0.3-0.2,0.6-0.5,0.8-0.8v-4.4
		c-0.2-0.3-0.5-0.6-0.8-0.8c-0.3-0.2-0.7-0.3-1.1-0.3c-0.8,0-1.3,0.3-1.7,1c-0.4,0.6-0.6,1.5-0.6,2.5V72.3z"/>
	<path class="st0" d="M81.7,76.4v-8.8h1.4l0.2,1.3c0.2-0.5,0.6-0.8,0.9-1.1c0.4-0.3,0.8-0.4,1.3-0.4c0.1,0,0.2,0,0.3,0
		s0.2,0,0.3,0.1L85.9,69l-0.8,0c-0.4,0-0.8,0.1-1.1,0.3c-0.3,0.2-0.5,0.5-0.7,0.8v6.3H81.7z"/>
	<path class="st0" d="M88.3,73.7L88.3,73.7l1.6,0c0,0.6,0.2,1,0.6,1.2c0.4,0.3,0.9,0.4,1.4,0.4c0.6,0,1-0.1,1.3-0.4
		c0.3-0.2,0.5-0.5,0.5-0.9c0-0.4-0.1-0.6-0.4-0.9c-0.3-0.2-0.8-0.4-1.5-0.6c-1-0.2-1.8-0.5-2.4-0.9c-0.6-0.4-0.8-0.9-0.8-1.6
		c0-0.7,0.3-1.3,0.9-1.8c0.6-0.5,1.4-0.8,2.4-0.8c1,0,1.9,0.3,2.5,0.8c0.6,0.5,0.9,1.1,0.9,1.8c0,0,0,0.1,0,0.1l0,0h-1.6
		c0-0.4-0.2-0.7-0.5-1c-0.3-0.3-0.8-0.5-1.3-0.5c-0.6,0-1,0.1-1.3,0.4c-0.3,0.3-0.4,0.6-0.4,0.9c0,0.3,0.1,0.6,0.4,0.8
		c0.2,0.2,0.7,0.4,1.5,0.5c1.1,0.2,1.9,0.5,2.5,1c0.6,0.4,0.8,1,0.8,1.6c0,0.8-0.3,1.4-0.9,1.9c-0.6,0.5-1.5,0.7-2.5,0.7
		c-1.1,0-2-0.3-2.7-0.9c-0.6-0.5-0.9-1.2-0.9-1.9C88.3,73.8,88.3,73.7,88.3,73.7z"/>
	<path class="st0" d="M0.9,84.8v-1.2h1.4v-2.1h1.6v2.1h1.7v1.2H3.9v5.4c0,0.4,0.1,0.7,0.3,0.9c0.2,0.2,0.4,0.3,0.7,0.3
		c0.1,0,0.2,0,0.3,0c0.1,0,0.2-0.1,0.3-0.1l0.2,1.1c-0.1,0.1-0.3,0.2-0.5,0.2c-0.2,0.1-0.5,0.1-0.7,0.1c-0.7,0-1.2-0.2-1.6-0.6
		s-0.6-1-0.6-1.9v-5.3H0.9z"/>
	<path class="st0" d="M13,88.8v-5.2h1.6v5.2c0,0.9,0.1,1.6,0.4,1.9c0.3,0.4,0.7,0.5,1.3,0.5c0.6,0,1-0.1,1.4-0.3
		c0.4-0.2,0.7-0.6,0.8-1v-6.3h1.6v8.8h-1.4l-0.1-1.3c-0.3,0.5-0.6,0.8-1.1,1.1c-0.4,0.3-0.9,0.4-1.5,0.4c-1,0-1.7-0.3-2.2-0.9
		C13.3,91.1,13,90.1,13,88.8z"/>
	<path class="st0" d="M27.3,83.6h1.6l2.1,6.2l0.1,0.6h0l0.2-0.6l2-6.2H35l-3.2,8.8h-1.2L27.3,83.6z"/>
	<path class="st0" d="M41,83.6h1.6l1.4,5.6l0.2,1.1h0l0.2-1.1l1.8-5.6h1.3l1.8,5.6l0.2,1.3h0l0.3-1.3l1.3-5.6h1.7l-2.6,8.8H49
		l-1.7-5.4l-0.3-1.4h0l-0.3,1.4l-1.7,5.4h-1.3L41,83.6z"/>
	<path class="st0" d="M59.5,92.4l2.9-4.4l-2.9-4.4h1.8l1.8,3.2l1.9-3.2H67L64.1,88l2.9,4.4h-1.8l-2-3.3l-2,3.3H59.5z"/>
	<path class="st0" d="M73.5,83.6h1.8l1.9,5.5l0.3,1.1h0l2.2-6.7h1.8l-3.7,10.2c-0.2,0.6-0.5,1.1-1,1.5c-0.4,0.4-1,0.7-1.7,0.7
		c-0.1,0-0.3,0-0.5,0c-0.2,0-0.4-0.1-0.5-0.1l0.2-1.3c0,0,0.1,0,0.3,0c0.2,0,0.4,0,0.4,0c0.3,0,0.6-0.2,0.8-0.5
		c0.2-0.3,0.4-0.6,0.5-1l0.4-0.9L73.5,83.6z"/>
	<path class="st0" d="M88,92.4v-1.1l4.8-6.4h-4.7v-1.3h6.7v1.1L90,91.2H95v1.3H88z"/>
</g>
</svg>
