<?xml version="1.0" encoding="UTF-8" standalone="no"?>
<svg width="302px" height="243px" viewBox="0 0 302 243" version="1.1" xmlns="http://www.w3.org/2000/svg" xmlns:xlink="http://www.w3.org/1999/xlink">
    <!-- Generator: Sketch 47.1 (45422) - http://www.bohemiancoding.com/sketch -->
    <title>accessibility-inputs-1</title>
    <desc>Created with Sketch.</desc>
    <style type="text/css">@import url('https://fonts.googleapis.com/css?family=Roboto:300,400,500');</style>
    <defs>
        <rect id="path-1" x="51" y="99" width="210" height="32" rx="2"></rect>
    </defs>
    <g id="Page-1" stroke="none" stroke-width="1" fill="none" fill-rule="evenodd">
        <g id="accessibility-inputs-1">
            <g id="Rectangle-4">
                <use fill="#FFFFFF" fill-rule="evenodd" xlink:href="#path-1"></use>
                <rect stroke="#BDBDBD" stroke-width="1" x="51.5" y="99.5" width="209" height="31" rx="2"></rect>
            </g>
            <path d="M52.3362181,90.7487147 L57.1133708,90.7487147 L57.1133708,91.8586118 L51,91.8586118 L51,81.5655527 L52.3362181,81.5655527 L52.3362181,90.7487147 Z M63.0536564,91.8586118 C62.9798064,91.707797 62.9198041,91.4391622 62.8736478,91.0526992 C62.2782316,91.6842362 61.5674353,92 60.7412376,92 C60.0027368,92 59.3969445,91.7867416 58.9238425,91.3602185 C58.4507405,90.9336954 58.214193,90.392891 58.214193,89.7377892 C58.214193,88.9412985 58.5107427,88.3227314 59.1038511,87.8820694 C59.6969595,87.4414074 60.5312221,87.2210797 61.6066638,87.2210797 L62.8528775,87.2210797 L62.8528775,86.6201799 C62.8528775,86.1630226 62.7190263,85.7989517 62.4513198,85.5279563 C62.1836133,85.2569609 61.7889828,85.1214653 61.2674167,85.1214653 C60.8104694,85.1214653 60.4273779,85.2392876 60.1181307,85.4749357 C59.8088835,85.7105839 59.6542622,85.9957138 59.6542622,86.3303342 L58.366508,86.3303342 C58.366508,85.9485842 58.4992054,85.5798004 58.7646041,85.2239717 C59.0300028,84.868143 59.3900165,84.5865477 59.844656,84.3791774 C60.2992955,84.171807 60.7989299,84.0681234 61.3435742,84.0681234 C62.2066969,84.0681234 62.8828765,84.2884511 63.3721333,84.7291131 C63.86139,85.1697751 64.1152458,85.77656 64.1337084,86.5494859 L64.1337084,90.0700514 C64.1337084,90.7722829 64.221404,91.3307606 64.3967979,91.7455013 L64.3967979,91.8586118 L63.0536564,91.8586118 Z M60.9281696,90.8618252 C61.3297294,90.8618252 61.7105131,90.7557851 62.0705322,90.5437018 C62.4305513,90.3316185 62.6913305,90.0559143 62.8528775,89.716581 L62.8528775,88.1471722 L61.8489831,88.1471722 C60.2796691,88.1471722 59.4950238,88.616105 59.4950238,89.5539846 C59.4950238,89.9640123 59.628875,90.284489 59.8965816,90.5154242 C60.1642881,90.7463593 60.5081473,90.8618252 60.9281696,90.8618252 Z M72.4833405,88.1188946 C72.4833405,89.2877094 72.2202536,90.2267531 71.6940718,90.936054 C71.1678901,91.6453549 70.4617093,92 69.5755084,92 C68.6293044,92 67.8977381,91.6583153 67.3807875,90.9749357 L67.3184768,91.8586118 L66.1414972,91.8586118 L66.1414972,81 L67.422328,81 L67.422328,85.0507712 C67.9392785,84.3956694 68.6523826,84.0681234 69.5616616,84.0681234 C70.4709406,84.0681234 71.1851986,84.4192338 71.7044569,85.1214653 C72.2237153,85.8236967 72.4833405,86.7851267 72.4833405,88.0057841 L72.4833405,88.1188946 Z M71.2025097,87.970437 C71.2025097,87.0796871 71.0340418,86.3916048 70.6971008,85.9061697 C70.3601599,85.4207345 69.875526,85.1780206 69.2431848,85.1780206 C68.3985246,85.1780206 67.7915784,85.5786164 67.422328,86.3798201 L67.422328,89.6883033 C67.8146565,90.489507 68.4262183,90.8901028 69.2570316,90.8901028 C69.8709103,90.8901028 70.3486208,90.6473889 70.6901774,90.1619537 C71.031734,89.6765186 71.2025097,88.9460203 71.2025097,87.970437 Z M77.205106,92 C76.1896675,92 75.3634822,91.6594936 74.7265253,90.9784704 C74.0895684,90.2974473 73.7710948,89.3866809 73.7710948,88.246144 L73.7710948,88.0057841 C73.7710948,87.2469971 73.9130232,86.5695188 74.1968845,85.973329 C74.4807457,85.3771393 74.8776839,84.910563 75.3877109,84.5735861 C75.897738,84.2366093 76.4504514,84.0681234 77.0458676,84.0681234 C78.0197654,84.0681234 78.7767173,84.3956694 79.316746,85.0507712 C79.8567747,85.705873 80.1267849,86.6437385 80.1267849,87.8643959 L80.1267849,88.4087404 L75.0519256,88.4087404 C75.0703881,89.1628144 75.2861655,89.7719557 75.6992644,90.2361825 C76.1123632,90.7004093 76.6373832,90.9325193 77.2743401,90.9325193 C77.7266718,90.9325193 78.1097633,90.8382614 78.4236261,90.6497429 C78.7374889,90.4612244 79.0121148,90.2114411 79.2475119,89.9003856 L80.0298572,90.5224936 C79.4021316,91.5075028 78.4605573,92 77.205106,92 Z M77.0458676,85.1426735 C76.5289171,85.1426735 76.0950544,85.3347239 75.7442666,85.7188303 C75.3934787,86.1029368 75.1765474,86.6413847 75.093466,87.3341902 L78.8459541,87.3341902 L78.8459541,87.2352185 C78.8090291,86.5706908 78.6336378,86.0558073 78.319775,85.6905527 C78.0059122,85.3252981 77.5812806,85.1426735 77.0458676,85.1426735 Z M83,91.8586118 L81.7191692,91.8586118 L81.7191692,81 L83,81 L83,91.8586118 Z" id="Label" fill="#616161"></path>
            <path d="M61.490411,120.666667 L60,120.666667 L60,109 L61.490411,109 L61.490411,120.666667 Z M65.3484018,111.996795 L65.3949772,113.086538 C66.0366851,112.253201 66.8750329,111.836538 67.9100457,111.836538 C69.6850926,111.836538 70.5803652,112.870182 70.5958904,114.9375 L70.5958904,120.666667 L69.1598174,120.666667 L69.1598174,114.929487 C69.1546423,114.304484 69.0162114,113.842416 68.7445205,113.543269 C68.4728297,113.244122 68.0497746,113.094551 67.4753425,113.094551 C67.0095867,113.094551 66.6007628,113.222755 66.2488584,113.479167 C65.8969541,113.735578 65.6226798,114.072113 65.4260274,114.488782 L65.4260274,120.666667 L63.9899543,120.666667 L63.9899543,111.996795 L65.3484018,111.996795 Z M79.856621,116.427885 C79.856621,117.747336 79.5642343,118.810359 78.9794521,119.616987 C78.3946698,120.423615 77.6028969,120.826923 76.6041096,120.826923 C75.584622,120.826923 74.7824991,120.493059 74.1977169,119.825321 L74.1977169,124 L72.7616438,124 L72.7616438,111.996795 L74.073516,111.996795 L74.143379,112.958333 C74.7281612,112.210466 75.5406341,111.836538 76.5808219,111.836538 C77.5899594,111.836538 78.388201,112.229163 78.9755708,113.014423 C79.5629405,113.799683 79.856621,114.892087 79.856621,116.291667 L79.856621,116.427885 Z M78.4205479,116.259615 C78.4205479,115.282046 78.2187235,114.510152 77.8150685,113.94391 C77.4114135,113.377668 76.85769,113.094551 76.1538813,113.094551 C75.2844705,113.094551 74.6324223,113.492517 74.1977169,114.288462 L74.1977169,118.43109 C74.6272472,119.221692 75.2844705,119.616987 76.1694064,119.616987 C76.8576899,119.616987 77.4049447,119.335206 77.8111872,118.771635 C78.2174297,118.208063 78.4205479,117.370732 78.4205479,116.259615 Z M86.86621,119.809295 C86.3073031,120.487717 85.4870678,120.826923 84.4054795,120.826923 C83.5101934,120.826923 82.8283889,120.558496 82.3600457,120.021635 C81.8917024,119.484773 81.6549468,118.690176 81.6497717,117.637821 L81.6497717,111.996795 L83.0858447,111.996795 L83.0858447,117.597756 C83.0858447,118.911866 83.6033434,119.56891 84.6383562,119.56891 C85.7354697,119.56891 86.4651428,119.146906 86.8273973,118.302885 L86.8273973,111.996795 L88.2634703,111.996795 L88.2634703,120.666667 L86.8972603,120.666667 L86.86621,119.809295 Z M92.3931507,109.897436 L92.3931507,111.996795 L93.9611872,111.996795 L93.9611872,113.142628 L92.3931507,113.142628 L92.3931507,118.519231 C92.3931507,118.866455 92.463013,119.126869 92.6027397,119.300481 C92.7424665,119.474093 92.9805158,119.560897 93.316895,119.560897 C93.482497,119.560897 93.7101964,119.528846 94,119.464744 L94,120.666667 C93.6222203,120.773505 93.2547963,120.826923 92.8977169,120.826923 C92.256009,120.826923 91.7721477,120.626605 91.4461187,120.225962 C91.1200897,119.825319 90.9570776,119.256414 90.9570776,118.519231 L90.9570776,113.142628 L89.4278539,113.142628 L89.4278539,111.996795 L90.9570776,111.996795 L90.9570776,109.897436 L92.3931507,109.897436 Z" id="Input" fill="#616161"></path>
            <path d="M57.5932396,143.655738 L56.4560678,143.655738 L56.4560678,139.863217 L52.1312797,139.863217 L52.1312797,143.655738 L51,143.655738 L51,135.45082 L52.1312797,135.45082 L52.1312797,138.978484 L56.4560678,138.978484 L56.4560678,135.45082 L57.5932396,135.45082 L57.5932396,143.655738 Z M62.0771139,143.768443 C61.2129376,143.768443 60.5098228,143.497014 59.9677486,142.95415 C59.4256744,142.411285 59.1546413,141.685285 59.1546413,140.776127 L59.1546413,140.584529 C59.1546413,139.979676 59.2754278,139.439637 59.5170043,138.964395 C59.7585809,138.489154 60.0963902,138.117232 60.5304424,137.848617 C60.9644946,137.580002 61.4348745,137.445697 61.941596,137.445697 C62.7704197,137.445697 63.4146142,137.706794 63.8741989,138.228996 C64.3337836,138.751198 64.5635725,139.4988 64.5635725,140.471824 L64.5635725,140.905738 L60.2446765,140.905738 C60.2603887,141.506834 60.4440235,141.992399 60.7955861,142.362449 C61.1471487,142.732498 61.5939605,142.91752 62.1360347,142.91752 C62.520986,142.91752 62.8470113,142.842385 63.1141203,142.692111 C63.3812294,142.541837 63.6149463,142.342727 63.8152781,142.094775 L64.4810833,142.590676 C63.9468652,143.375858 63.1455501,143.768443 62.0771139,143.768443 Z M61.941596,138.302254 C61.5016517,138.302254 61.1324183,138.455343 60.8338846,138.761527 C60.535351,139.06771 60.3507343,139.496923 60.2800289,140.04918 L63.4735373,140.04918 L63.4735373,139.970287 C63.4421127,139.440571 63.2928481,139.030141 63.0257391,138.738986 C62.75863,138.44783 62.3972526,138.302254 61.941596,138.302254 Z M67.0087864,143.655738 L65.9187513,143.655738 L65.9187513,135 L67.0087864,135 L67.0087864,143.655738 Z M74.1382055,140.674693 C74.1382055,141.602634 73.9162726,142.350236 73.4724002,142.91752 C73.0285279,143.484805 72.4275415,143.768443 71.6694232,143.768443 C70.8955926,143.768443 70.2867502,143.533643 69.8428778,143.064037 L69.8428778,146 L68.7528427,146 L68.7528427,137.558402 L69.7486045,137.558402 L69.8016332,138.234631 C70.2455056,137.708672 70.862204,137.445697 71.651747,137.445697 C72.4177214,137.445697 73.0236178,137.721821 73.4694542,138.274078 C73.9152906,138.826335 74.1382055,139.594599 74.1382055,140.578893 L74.1382055,140.674693 Z M73.0481704,140.556352 C73.0481704,139.868849 72.8949778,139.325992 72.588588,138.927766 C72.2821982,138.52954 71.8619005,138.33043 71.3276824,138.33043 C70.667766,138.33043 70.1728361,138.610311 69.8428778,139.170082 L69.8428778,142.083504 C70.168908,142.639518 70.6677659,142.91752 71.3394666,142.91752 C71.8619005,142.91752 72.2772881,142.71935 72.5856419,142.323002 C72.8939958,141.926654 73.0481704,141.337777 73.0481704,140.556352 Z M78.1683895,143.768443 C77.3042132,143.768443 76.6010984,143.497014 76.0590242,142.95415 C75.5169499,142.411285 75.2459169,141.685285 75.2459169,140.776127 L75.2459169,140.584529 C75.2459169,139.979676 75.3667034,139.439637 75.6082799,138.964395 C75.8498565,138.489154 76.1876658,138.117232 76.621718,137.848617 C77.0557702,137.580002 77.52615,137.445697 78.0328716,137.445697 C78.8616953,137.445697 79.5058898,137.706794 79.9654745,138.228996 C80.4250592,138.751198 80.654848,139.4988 80.654848,140.471824 L80.654848,140.905738 L76.335952,140.905738 C76.3516643,141.506834 76.535299,141.992399 76.8868617,142.362449 C77.2384243,142.732498 77.6852361,142.91752 78.2273103,142.91752 C78.6122616,142.91752 78.9382869,142.842385 79.2053959,142.692111 C79.472505,142.541837 79.7062219,142.342727 79.9065536,142.094775 L80.5723589,142.590676 C80.0381408,143.375858 79.2368257,143.768443 78.1683895,143.768443 Z M78.0328716,138.302254 C77.5929273,138.302254 77.2236939,138.455343 76.9251602,138.761527 C76.6266266,139.06771 76.4420099,139.496923 76.3713045,140.04918 L79.5648129,140.04918 L79.5648129,139.970287 C79.5333883,139.440571 79.3841237,139.030141 79.1170147,138.738986 C78.8499056,138.44783 78.4885282,138.302254 78.0328716,138.302254 Z M84.9973124,138.493852 C84.8323333,138.467555 84.6536086,138.454406 84.4611329,138.454406 C83.7462234,138.454406 83.2611135,138.745557 83.0057887,139.327869 L83.0057887,143.655738 L81.9157536,143.655738 L81.9157536,137.558402 L82.9763283,137.558402 L82.9940045,138.262807 C83.3514593,137.718064 83.8581733,137.445697 84.5141617,137.445697 C84.7262777,137.445697 84.8873263,137.471994 84.9973124,137.52459 L84.9973124,138.493852 Z M90.4651644,136.081967 L90.4651644,137.558402 L91.6553649,137.558402 L91.6553649,138.364242 L90.4651644,138.364242 L90.4651644,142.145492 C90.4651644,142.389687 90.5181926,142.572831 90.6242506,142.694928 C90.7303086,142.817026 90.9109973,142.878074 91.1663221,142.878074 C91.2920205,142.878074 91.4648531,142.855533 91.6848253,142.810451 L91.6848253,143.655738 C91.3980759,143.730875 91.1191868,143.768443 90.8481497,143.768443 C90.3610685,143.768443 89.993799,143.627563 89.7463304,143.345799 C89.4988617,143.064035 89.3751292,142.663937 89.3751292,142.145492 L89.3751292,138.364242 L88.2143891,138.364242 L88.2143891,137.558402 L89.3751292,137.558402 L89.3751292,136.081967 L90.4651644,136.081967 Z M95.5735993,143.768443 C94.709423,143.768443 94.0063083,143.497014 93.464234,142.95415 C92.9221598,142.411285 92.6511267,141.685285 92.6511267,140.776127 L92.6511267,140.584529 C92.6511267,139.979676 92.7719132,139.439637 93.0134898,138.964395 C93.2550663,138.489154 93.5928756,138.117232 94.0269278,137.848617 C94.46098,137.580002 94.9313599,137.445697 95.4380815,137.445697 C96.2669051,137.445697 96.9110996,137.706794 97.3706843,138.228996 C97.830269,138.751198 98.0600579,139.4988 98.0600579,140.471824 L98.0600579,140.905738 L93.7411619,140.905738 C93.7568742,141.506834 93.9405089,141.992399 94.2920715,142.362449 C94.6436342,142.732498 95.0904459,142.91752 95.6325202,142.91752 C96.0174714,142.91752 96.3434967,142.842385 96.6106057,142.692111 C96.8777148,142.541837 97.1114317,142.342727 97.3117635,142.094775 L97.9775687,142.590676 C97.4433506,143.375858 96.6420355,143.768443 95.5735993,143.768443 Z M95.4380815,138.302254 C94.9981371,138.302254 94.6289037,138.455343 94.3303701,138.761527 C94.0318364,139.06771 93.8472197,139.496923 93.7765144,140.04918 L96.9700227,140.04918 L96.9700227,139.970287 C96.9385981,139.440571 96.7893336,139.030141 96.5222245,138.738986 C96.2551155,138.44783 95.8937381,138.302254 95.4380815,138.302254 Z M101.459789,139.784324 L102.873889,137.558402 L104.146578,137.558402 L102.060781,140.573258 L104.211391,143.655738 L102.950486,143.655738 L101.477465,141.373463 L100.004445,143.655738 L98.7376473,143.655738 L100.888257,140.573258 L98.8024602,137.558402 L100.063366,137.558402 L101.459789,139.784324 Z M106.780339,136.081967 L106.780339,137.558402 L107.97054,137.558402 L107.97054,138.364242 L106.780339,138.364242 L106.780339,142.145492 C106.780339,142.389687 106.833367,142.572831 106.939425,142.694928 C107.045483,142.817026 107.226172,142.878074 107.481497,142.878074 C107.607195,142.878074 107.780028,142.855533 108,142.810451 L108,143.655738 C107.713251,143.730875 107.434361,143.768443 107.163324,143.768443 C106.676243,143.768443 106.308974,143.627563 106.061505,143.345799 C105.814036,143.064035 105.690304,142.663937 105.690304,142.145492 L105.690304,138.364242 L104.529564,138.364242 L104.529564,137.558402 L105.690304,137.558402 L105.690304,136.081967 L106.780339,136.081967 Z" id="Helper-text-Copy" fill="#9E9E9E"></path>
        </g>
    </g>
</svg>