<?xml version="1.0" encoding="utf-8"?>
<!-- Generator: Adobe Illustrator 21.0.2, SVG Export Plug-In . SVG Version: 6.00 Build 0)  -->
<svg version="1.1" id="Layer_1" xmlns="http://www.w3.org/2000/svg" xmlns:xlink="http://www.w3.org/1999/xlink" x="0px" y="0px"
	 width="810px" height="300px" viewBox="0 0 810 300" style="enable-background:new 0 0 810 300;" xml:space="preserve">
<style type="text/css">
	.st0{clip-path:url(#SVGID_2_);}
	.st1{fill:#13B8D3;}
	.st2{fill:#EB407A;}
	.st3{fill:#F37C20;}
	.st4{fill:#2F73B9;}
	.st5{fill:#FDE939;}
	.st6{fill:#4CAE50;}
	.st7{fill:#EE4538;}
	.st8{fill:#4A5ACC;}
	.st9{clip-path:url(#SVGID_4_);}
	.st10{fill:#0E94A6;}
	.st11{fill:#C11E5C;}
	.st12{fill:#DB6226;}
	.st13{fill:#144A9D;}
	.st14{fill:#F8BF2C;}
	.st15{fill:#307E3E;}
	.st16{fill:#CE3728;}
	.st17{fill:#3B44A9;}
	.st18{clip-path:url(#SVGID_6_);}
	.st19{fill:#A3ACD2;}
	.st20{fill:#72747C;}
	.st21{fill:#A4950C;}
	.st22{fill:#516FBB;}
	.st23{fill:#FFEA0E;}
	.st24{fill:#AFA246;}
	.st25{fill:#7F7635;}
	.st26{fill:#005CD2;}
	.st27{clip-path:url(#SVGID_8_);}
	.st28{fill:#838AA7;}
	.st29{fill:#56565F;}
	.st30{fill:#8A7E1D;}
	.st31{fill:#00459F;}
	.st32{fill:#DAC702;}
	.st33{fill:#7E7535;}
	.st34{fill:#6B6323;}
	.st35{fill:#0146AD;}
	.st36{clip-path:url(#SVGID_10_);}
	.st37{fill:#8C9CD7;}
	.st38{fill:#A19B74;}
	.st39{fill:#BFB000;}
	.st40{fill:#4668BD;}
	.st41{fill:#FEEB0A;}
	.st42{fill:#9D914D;}
	.st43{fill:#A69A1F;}
	.st44{fill:#1160D0;}
	.st45{clip-path:url(#SVGID_12_);}
	.st46{fill:#707BAA;}
	.st47{fill:#807956;}
	.st48{fill:#A89800;}
	.st49{fill:#0044A0;}
	.st50{fill:#E4D100;}
	.st51{fill:#6F6938;}
	.st52{fill:#908602;}
	.st53{fill:#0049AD;}
</style>
<g>
	<g>
		<defs>
			<polygon id="SVGID_1_" points="233.2,87.6 141.5,34.5 49.7,87.3 49.5,193.2 141.1,246.4 233,193.6 			"/>
		</defs>
		<clipPath id="SVGID_2_">
			<use xlink:href="#SVGID_1_"  style="overflow:visible;"/>
		</clipPath>
		<g>
			<g class="st0">
				<g>
					<g>
						<path class="st1" d="M141.6,140.5L64.2,63.2c21.4-21.4,47.1-32,77.3-32V140.5z"/>
					</g>
				</g>
				<g>
					<g>
						<path class="st2" d="M141.6,140.5H32.2c0-30.2,10.7-56,32-77.3L141.6,140.5z"/>
					</g>
				</g>
				<g>
					<g>
						<path class="st3" d="M141.6,140.5l-77.3,77.3c-21.4-21.4-32-47.1-32-77.3H141.6z"/>
					</g>
				</g>
				<g>
					<g>
						<path class="st4" d="M141.6,140.5v109.4c-30.2,0-56-10.7-77.3-32L141.6,140.5z"/>
					</g>
				</g>
				<g>
					<g>
						<path class="st5" d="M141.6,140.5l77.3,77.3c-21.4,21.4-47.1,32-77.3,32V140.5z"/>
					</g>
				</g>
				<g>
					<g>
						<path class="st6" d="M141.6,140.5h109.4c0,30.2-10.7,56-32,77.3L141.6,140.5z"/>
					</g>
				</g>
				<g>
					<g>
						<path class="st7" d="M141.6,140.5l77.3-77.3c21.4,21.4,32,47.1,32,77.3H141.6z"/>
					</g>
				</g>
				<g>
					<g>
						<path class="st8" d="M141.6,140.5V31.2c30.2,0,56,10.7,77.3,32L141.6,140.5z"/>
					</g>
				</g>
			</g>
			<g class="st0">
				<g>
				</g>
				<g>
				</g>
				<g>
				</g>
				<g>
				</g>
				<g>
				</g>
				<g>
				</g>
				<g>
				</g>
				<g>
				</g>
			</g>
		</g>
	</g>
</g>
<g>
	<g>
		<defs>
			<polygon id="SVGID_3_" points="198.3,107.7 141.5,74.7 84.5,107.5 84.4,173.2 141.2,206.1 198.2,173.4 			"/>
		</defs>
		<use xlink:href="#SVGID_3_"  style="overflow:visible;fill:#2E3285;"/>
		<clipPath id="SVGID_4_">
			<use xlink:href="#SVGID_3_"  style="overflow:visible;"/>
		</clipPath>
		<g>
			<g class="st9">
				<g>
					<g>
						<path class="st10" d="M141.6,140.5L64.2,63.2c21.4-21.4,47.1-32,77.3-32V140.5z"/>
					</g>
				</g>
				<g>
					<g>
						<path class="st11" d="M141.6,140.5H32.2c0-30.2,10.7-56,32-77.3L141.6,140.5z"/>
					</g>
				</g>
				<g>
					<g>
						<path class="st12" d="M141.6,140.5l-77.3,77.3c-21.4-21.4-32-47.1-32-77.3H141.6z"/>
					</g>
				</g>
				<g>
					<g>
						<path class="st13" d="M141.6,140.5v109.4c-30.2,0-56-10.7-77.3-32L141.6,140.5z"/>
					</g>
				</g>
				<g>
					<g>
						<path class="st14" d="M141.6,140.5l77.3,77.3c-21.4,21.4-47.1,32-77.3,32V140.5z"/>
					</g>
				</g>
				<g>
					<g>
						<path class="st15" d="M141.6,140.5h109.4c0,30.2-10.7,56-32,77.3L141.6,140.5z"/>
					</g>
				</g>
				<g>
					<g>
						<path class="st16" d="M141.6,140.5l77.3-77.3c21.4,21.4,32,47.1,32,77.3H141.6z"/>
					</g>
				</g>
				<g>
					<g>
						<path class="st17" d="M141.6,140.5V31.2c30.2,0,56,10.7,77.3,32L141.6,140.5z"/>
					</g>
				</g>
			</g>
			<g class="st9">
				<g>
				</g>
				<g>
				</g>
				<g>
				</g>
				<g>
				</g>
				<g>
				</g>
				<g>
				</g>
				<g>
				</g>
				<g>
				</g>
			</g>
		</g>
	</g>
</g>
<g>
	<g>
		<defs>
			<polygon id="SVGID_5_" points="491.2,87.6 399.5,34.5 307.7,87.3 307.5,193.2 399.1,246.4 491,193.6 			"/>
		</defs>
		<use xlink:href="#SVGID_5_"  style="overflow:visible;fill:#FFEA0E;"/>
		<clipPath id="SVGID_6_">
			<use xlink:href="#SVGID_5_"  style="overflow:visible;"/>
		</clipPath>
		<g>
			<g class="st18">
				<g>
					<g>
						<path class="st19" d="M399.6,140.5l-77.3-77.3c21.4-21.4,47.1-32,77.3-32V140.5z"/>
					</g>
				</g>
				<g>
					<g>
						<path class="st20" d="M399.6,140.5H290.2c0-30.2,10.7-56,32-77.3L399.6,140.5z"/>
					</g>
				</g>
				<g>
					<g>
						<path class="st21" d="M399.6,140.5l-77.3,77.3c-21.4-21.4-32-47.1-32-77.3H399.6z"/>
					</g>
				</g>
				<g>
					<g>
						<path class="st22" d="M399.6,140.5v109.4c-30.2,0-56-10.7-77.3-32L399.6,140.5z"/>
					</g>
				</g>
				<g>
					<g>
						<path class="st23" d="M399.6,140.5l77.3,77.3c-21.4,21.4-47.1,32-77.3,32V140.5z"/>
					</g>
				</g>
				<g>
					<g>
						<path class="st24" d="M399.6,140.5h109.4c0,30.2-10.7,56-32,77.3L399.6,140.5z"/>
					</g>
				</g>
				<g>
					<g>
						<path class="st25" d="M399.6,140.5l77.3-77.3c21.4,21.4,32,47.1,32,77.3H399.6z"/>
					</g>
				</g>
				<g>
					<g>
						<path class="st26" d="M399.6,140.5V31.2c30.2,0,56,10.7,77.3,32L399.6,140.5z"/>
					</g>
				</g>
			</g>
			<g class="st18">
				<g>
				</g>
				<g>
				</g>
				<g>
				</g>
				<g>
				</g>
				<g>
				</g>
				<g>
				</g>
				<g>
				</g>
				<g>
				</g>
			</g>
		</g>
	</g>
</g>
<g>
	<g>
		<defs>
			<polygon id="SVGID_7_" points="456.3,107.7 399.5,74.7 342.5,107.5 342.4,173.2 399.2,206.1 456.2,173.4 			"/>
		</defs>
		<use xlink:href="#SVGID_7_"  style="overflow:visible;fill:#2E3285;"/>
		<clipPath id="SVGID_8_">
			<use xlink:href="#SVGID_7_"  style="overflow:visible;"/>
		</clipPath>
		<g>
			<g class="st27">
				<g>
					<g>
						<path class="st28" d="M399.6,140.5l-77.3-77.3c21.4-21.4,47.1-32,77.3-32V140.5z"/>
					</g>
				</g>
				<g>
					<g>
						<path class="st29" d="M399.6,140.5H290.2c0-30.2,10.7-56,32-77.3L399.6,140.5z"/>
					</g>
				</g>
				<g>
					<g>
						<path class="st30" d="M399.6,140.5l-77.3,77.3c-21.4-21.4-32-47.1-32-77.3H399.6z"/>
					</g>
				</g>
				<g>
					<g>
						<path class="st31" d="M399.6,140.5v109.4c-30.2,0-56-10.7-77.3-32L399.6,140.5z"/>
					</g>
				</g>
				<g>
					<g>
						<path class="st32" d="M399.6,140.5l77.3,77.3c-21.4,21.4-47.1,32-77.3,32V140.5z"/>
					</g>
				</g>
				<g>
					<g>
						<path class="st33" d="M399.6,140.5h109.4c0,30.2-10.7,56-32,77.3L399.6,140.5z"/>
					</g>
				</g>
				<g>
					<g>
						<path class="st34" d="M399.6,140.5l77.3-77.3c21.4,21.4,32,47.1,32,77.3H399.6z"/>
					</g>
				</g>
				<g>
					<g>
						<path class="st35" d="M399.6,140.5V31.2c30.2,0,56,10.7,77.3,32L399.6,140.5z"/>
					</g>
				</g>
			</g>
			<g class="st27">
				<g>
				</g>
				<g>
				</g>
				<g>
				</g>
				<g>
				</g>
				<g>
				</g>
				<g>
				</g>
				<g>
				</g>
				<g>
				</g>
			</g>
		</g>
	</g>
</g>
<g>
	<g>
		<defs>
			<polygon id="SVGID_9_" points="758.2,87.6 666.5,34.5 574.7,87.3 574.5,193.2 666.1,246.4 758,193.6 			"/>
		</defs>
		<use xlink:href="#SVGID_9_"  style="overflow:visible;fill:#FFEA0E;"/>
		<clipPath id="SVGID_10_">
			<use xlink:href="#SVGID_9_"  style="overflow:visible;"/>
		</clipPath>
		<g>
			<g class="st36">
				<g>
					<g>
						<path class="st37" d="M666.5,140.5l-77.3-77.3c21.4-21.4,47.1-32,77.3-32V140.5z"/>
					</g>
				</g>
				<g>
					<g>
						<path class="st38" d="M666.5,140.5H557.2c0-30.2,10.7-56,32-77.3L666.5,140.5z"/>
					</g>
				</g>
				<g>
					<g>
						<path class="st39" d="M666.5,140.5l-77.3,77.3c-21.4-21.4-32-47.1-32-77.3H666.5z"/>
					</g>
				</g>
				<g>
					<g>
						<path class="st40" d="M666.5,140.5v109.4c-30.2,0-56-10.7-77.3-32L666.5,140.5z"/>
					</g>
				</g>
				<g>
					<g>
						<path class="st41" d="M666.5,140.5l77.3,77.3c-21.4,21.4-47.1,32-77.3,32V140.5z"/>
					</g>
				</g>
				<g>
					<g>
						<path class="st42" d="M666.5,140.5h109.4c0,30.2-10.7,56-32,77.3L666.5,140.5z"/>
					</g>
				</g>
				<g>
					<g>
						<path class="st43" d="M666.5,140.5l77.3-77.3c21.4,21.4,32,47.1,32,77.3H666.5z"/>
					</g>
				</g>
				<g>
					<g>
						<path class="st44" d="M666.5,140.5V31.2c30.2,0,56,10.7,77.3,32L666.5,140.5z"/>
					</g>
				</g>
			</g>
			<g class="st36">
				<g>
				</g>
				<g>
				</g>
				<g>
				</g>
				<g>
				</g>
				<g>
				</g>
				<g>
				</g>
				<g>
				</g>
				<g>
				</g>
			</g>
		</g>
	</g>
</g>
<g>
	<g>
		<defs>
			<polygon id="SVGID_11_" points="723.3,107.7 666.4,74.7 609.5,107.5 609.4,173.2 666.2,206.1 723.1,173.4 			"/>
		</defs>
		<use xlink:href="#SVGID_11_"  style="overflow:visible;fill:#2E3285;"/>
		<clipPath id="SVGID_12_">
			<use xlink:href="#SVGID_11_"  style="overflow:visible;"/>
		</clipPath>
		<g>
			<g class="st45">
				<g>
					<g>
						<path class="st46" d="M666.5,140.5l-77.3-77.3c21.4-21.4,47.1-32,77.3-32V140.5z"/>
					</g>
				</g>
				<g>
					<g>
						<path class="st47" d="M666.5,140.5H557.2c0-30.2,10.7-56,32-77.3L666.5,140.5z"/>
					</g>
				</g>
				<g>
					<g>
						<path class="st48" d="M666.5,140.5l-77.3,77.3c-21.4-21.4-32-47.1-32-77.3H666.5z"/>
					</g>
				</g>
				<g>
					<g>
						<path class="st49" d="M666.5,140.5v109.4c-30.2,0-56-10.7-77.3-32L666.5,140.5z"/>
					</g>
				</g>
				<g>
					<g>
						<path class="st50" d="M666.5,140.5l77.3,77.3c-21.4,21.4-47.1,32-77.3,32V140.5z"/>
					</g>
				</g>
				<g>
					<g>
						<path class="st51" d="M666.5,140.5h109.4c0,30.2-10.7,56-32,77.3L666.5,140.5z"/>
					</g>
				</g>
				<g>
					<g>
						<path class="st52" d="M666.5,140.5l77.3-77.3c21.4,21.4,32,47.1,32,77.3H666.5z"/>
					</g>
				</g>
				<g>
					<g>
						<path class="st53" d="M666.5,140.5V31.2c30.2,0,56,10.7,77.3,32L666.5,140.5z"/>
					</g>
				</g>
			</g>
			<g class="st45">
				<g>
				</g>
				<g>
				</g>
				<g>
				</g>
				<g>
				</g>
				<g>
				</g>
				<g>
				</g>
				<g>
				</g>
				<g>
				</g>
			</g>
		</g>
	</g>
</g>
</svg>
