<?xml version="1.0" encoding="UTF-8" standalone="no"?>
<svg width="302px" height="197px" viewBox="0 0 302 197" version="1.1" xmlns="http://www.w3.org/2000/svg" xmlns:xlink="http://www.w3.org/1999/xlink">
    <!-- Generator: Sketch 47.1 (45422) - http://www.bohemiancoding.com/sketch -->
    <title>accessibility-space-2</title>
    <desc>Created with Sketch.</desc>
    <defs></defs>
    <g id="Page-1" stroke="none" stroke-width="1" fill="none" fill-rule="evenodd">
        <g id="accessibility-space-2">
            <rect id="Rectangle-Copy" fill="#C9C8C8" x="205" y="45" width="88" height="64"></rect>
            <path d="M15.4256539,21.4726166 L15.4256539,26.4624746 L15,26.4624746 L15,14.6490872 L18.5865281,14.6490872 C19.7583959,14.6490872 20.6688132,14.9533438 21.3178072,15.5618661 C21.9668013,16.1703884 22.2912934,17.0155456 22.2912934,18.0973631 C22.2912934,19.1683624 21.9746837,19.9959403 21.3414547,20.5801217 C20.7082257,21.1643031 19.8083183,21.4617985 18.6417055,21.4726166 L15.4256539,21.4726166 Z M15.4256539,21.0344828 L18.5865281,21.0344828 C19.6217656,21.0344828 20.4270842,20.777555 21.0025081,20.2636917 C21.5779319,19.7498284 21.8656396,19.0331351 21.8656396,18.1135903 C21.8656396,17.1615909 21.5779319,16.4192048 21.0025081,15.8864097 C20.4270842,15.3536146 19.6217656,15.0872211 18.5865281,15.0872211 L15.4256539,15.0872211 L15.4256539,21.0344828 Z M29.8978861,26.4624746 C29.7927858,26.0892476 29.7402365,25.553756 29.7402365,24.8559838 C29.4039157,25.4185288 28.944109,25.8539538 28.3608026,26.1622718 C27.7774962,26.4705898 27.118002,26.6247465 26.3823003,26.6247465 C25.5940484,26.6247465 24.9595151,26.4043295 24.4786815,25.9634888 C23.9978478,25.5226482 23.7574346,24.9479413 23.7574346,24.2393509 C23.7574346,23.4333969 24.1108289,22.7883729 24.8176281,22.3042596 C25.5244273,21.8201463 26.4637467,21.5726843 27.6356145,21.5618661 L29.7402365,21.5618661 L29.7402365,20.2799189 C29.7402365,19.544283 29.5155881,18.9736329 29.0662845,18.5679513 C28.6169809,18.1622698 27.9745653,17.959432 27.1390183,17.959432 C26.3612764,17.959432 25.7122921,18.1649743 25.1920459,18.5760649 C24.6717996,18.9871555 24.4116804,19.4956021 24.4116804,20.1014199 L23.9860265,20.0851927 C23.9860265,19.3711932 24.2908127,18.7653845 24.9003941,18.2677485 C25.5099756,17.7701125 26.2561762,17.5212982 27.1390183,17.5212982 C28.0586455,17.5212982 28.7890813,17.7579422 29.3303475,18.2312373 C29.8716138,18.7045325 30.1501253,19.3711925 30.1658904,20.2312373 L30.1658904,24.4259635 C30.1658904,25.388781 30.2394594,26.0432708 30.3865998,26.3894523 L30.3865998,26.4624746 L29.8978861,26.4624746 Z M26.3823003,26.1947262 C27.1810622,26.1947262 27.8681447,26.01082 28.4435686,25.643002 C29.0189925,25.2751841 29.4512108,24.758624 29.7402365,24.0933063 L29.7402365,22.0081136 L27.7696166,22.0081136 C26.5504537,22.0081136 25.617703,22.2569279 24.9713364,22.7545639 C24.4458352,23.1602454 24.1830885,23.6659875 24.1830885,24.2718053 C24.1830885,24.8073049 24.3906584,25.2616614 24.8058044,25.6348884 C25.2209504,26.0081155 25.7464437,26.1947262 26.3823003,26.1947262 Z M32.5069867,21.9837728 C32.5069867,20.5828192 32.7933806,19.4888477 33.366177,18.7018256 C33.9389734,17.9148034 34.724586,17.5212982 35.7230383,17.5212982 C36.3588949,17.5212982 36.9238002,17.6713981 37.4177714,17.9716024 C37.9117426,18.2718068 38.3084901,18.7112885 38.6080258,19.2900609 L38.6080258,17.68357 L39.0415622,17.68357 L39.0415622,26.3083164 C39.0415622,27.4658611 38.7525408,28.3705174 38.1744894,29.0223124 C37.5964381,29.6741074 36.8108255,30 35.8176281,30 C35.2448317,30 34.7206521,29.8728884 34.2450735,29.6186613 C33.7694948,29.3644342 33.3635512,28.9993262 33.0272304,28.5233266 L33.3267646,28.2312373 C33.6578304,28.6639643 34.0204208,28.9952659 34.4145468,29.2251521 C34.8086727,29.4550383 35.2711069,29.5699797 35.8018631,29.5699797 C36.6794502,29.5699797 37.3625916,29.2954727 37.8513078,28.7464503 C38.3400239,28.197428 38.5922608,27.4225878 38.6080258,26.4219067 L38.6080258,25.0750507 C38.3137451,25.5726867 37.9156839,25.9553739 37.4138302,26.2231237 C36.9119765,26.4908735 36.3431299,26.6247465 35.7072734,26.6247465 C34.719331,26.6247465 33.9389734,26.2217755 33.366177,25.4158215 C32.7933806,24.6098675 32.5069867,23.5037258 32.5069867,22.0973631 L32.5069867,21.9837728 Z M32.9405231,22.1541582 C32.9405231,23.4090665 33.1822501,24.3948578 33.6657112,25.1115619 C34.1491724,25.8282659 34.8270588,26.1866126 35.6993909,26.1866126 C36.4193276,26.1866126 37.0315274,26.0148766 37.5360086,25.6713996 C38.0404898,25.3279226 38.3978253,24.8451688 38.6080258,24.2231237 L38.6080258,20.2393509 C38.1455847,18.7193974 37.1813044,17.959432 35.7151559,17.959432 C34.8375688,17.959432 34.1557411,18.3137219 33.6696525,19.0223124 C33.1835638,19.7309028 32.9405231,20.774841 32.9405231,22.1541582 Z M44.827302,26.6247465 C44.1388954,26.6247465 43.5069896,26.434079 42.9315657,26.0527383 C42.3561419,25.6713977 41.9055313,25.1480763 41.5797205,24.4827586 C41.2539098,23.8174409 41.0910068,23.0791116 41.0910068,22.2677485 L41.0910068,21.9026369 C41.0910068,21.0912738 41.2486548,20.3475355 41.5639556,19.6713996 C41.8792563,18.9952637 42.3127884,18.4678856 42.8645647,18.0892495 C43.416341,17.7106134 44.0180309,17.5212982 44.6696525,17.5212982 C45.6208097,17.5212982 46.3985399,17.8701791 47.0028664,18.5679513 C47.6071928,19.2657236 47.9093515,20.1825501 47.9093515,21.3184584 L47.9093515,21.7809331 L41.5166607,21.7809331 L41.5166607,22.2596349 C41.5166607,22.9736344 41.6624851,23.6348854 41.9541383,24.2434077 C42.2457915,24.85193 42.6477939,25.3292748 43.1601576,25.6754564 C43.6725214,26.021638 44.2282306,26.1947262 44.827302,26.1947262 C45.4000984,26.1947262 45.8874935,26.0960118 46.289502,25.8985801 C46.6915104,25.7011484 47.0475322,25.3968918 47.3575779,24.9858012 L47.6571121,25.2048682 C47.0212556,26.1514584 46.077995,26.6247465 44.827302,26.6247465 Z M44.6696525,17.959432 C43.8393605,17.959432 43.1351994,18.2772112 42.557148,18.9127789 C41.9790966,19.5483467 41.6401534,20.3583453 41.5403081,21.3427992 L47.4836976,21.3427992 L47.4836976,21.2373225 C47.4836976,20.6423229 47.3615204,20.089252 47.1171623,19.5780933 C46.8728042,19.0669346 46.5364885,18.6693726 46.1082049,18.3853955 C45.6799214,18.1014185 45.2004087,17.959432 44.6696525,17.959432 Z M61.301684,15.0872211 L57.1239699,15.0872211 L57.1239699,26.4624746 L56.698316,26.4624746 L56.698316,15.0872211 L52.5206019,15.0872211 L52.5206019,14.6490872 L61.301684,14.6490872 L61.301684,15.0872211 Z M63.6191329,26.4624746 L63.193479,26.4624746 L63.193479,17.68357 L63.6191329,17.68357 L63.6191329,26.4624746 Z M62.9727696,14.9411765 C62.9727696,14.8167675 63.0148091,14.7099396 63.0988893,14.6206897 C63.1829695,14.5314397 63.2854407,14.4868154 63.406306,14.4868154 C63.5271713,14.4868154 63.6309562,14.5314397 63.7176639,14.6206897 C63.8043716,14.7099396 63.8477248,14.8167675 63.8477248,14.9411765 C63.8477248,15.0655855 63.8043716,15.1710611 63.7176639,15.2576065 C63.6309562,15.3441519 63.5271713,15.3874239 63.406306,15.3874239 C63.2854407,15.3874239 63.1829695,15.3441519 63.0988893,15.2576065 C63.0148091,15.1710611 62.9727696,15.0655855 62.9727696,14.9411765 Z M67.3711931,15.3144016 L67.3711931,17.68357 L69.3102831,17.68357 L69.3102831,18.1298174 L67.3711931,18.1298174 L67.3711931,24.3610548 C67.3711931,24.9830998 67.4697231,25.4428653 67.6667861,25.7403651 C67.8638491,26.0378649 68.1935962,26.1866126 68.6560373,26.1866126 C68.8872578,26.1866126 69.1683968,26.162272 69.4994626,26.1135903 L69.5704049,26.5273834 C69.3969895,26.5922924 69.1000857,26.6247465 68.6796847,26.6247465 C68.0595932,26.6247465 67.6155513,26.4476015 67.3475457,26.0933063 C67.07954,25.7390111 66.9429118,25.1805312 66.9376568,24.4178499 L66.9376568,18.1298174 L65.3611609,18.1298174 L65.3611609,17.68357 L66.9376568,17.68357 L66.9376568,15.3144016 L67.3711931,15.3144016 Z M72.0533859,26.4624746 L71.627732,26.4624746 L71.627732,14 L72.0533859,14 L72.0533859,26.4624746 Z M77.9179506,26.6247465 C77.2295439,26.6247465 76.5976381,26.434079 76.0222143,26.0527383 C75.4467904,25.6713977 74.9961798,25.1480763 74.670369,24.4827586 C74.3445583,23.8174409 74.1816553,23.0791116 74.1816553,22.2677485 L74.1816553,21.9026369 C74.1816553,21.0912738 74.3393033,20.3475355 74.6546041,19.6713996 C74.9699048,18.9952637 75.4034369,18.4678856 75.9552132,18.0892495 C76.5069895,17.7106134 77.1086794,17.5212982 77.760301,17.5212982 C78.7114582,17.5212982 79.4891884,17.8701791 80.0935149,18.5679513 C80.6978413,19.2657236 81,20.1825501 81,21.3184584 L81,21.7809331 L74.6073092,21.7809331 L74.6073092,22.2596349 C74.6073092,22.9736344 74.7531336,23.6348854 75.0447868,24.2434077 C75.33644,24.85193 75.7384424,25.3292748 76.2508062,25.6754564 C76.7631699,26.021638 77.3188791,26.1947262 77.9179506,26.1947262 C78.4907469,26.1947262 78.978142,26.0960118 79.3801505,25.8985801 C79.7821589,25.7011484 80.1381807,25.3968918 80.4482264,24.9858012 L80.7477607,25.2048682 C80.1119041,26.1514584 79.1686435,26.6247465 77.9179506,26.6247465 Z M77.760301,17.959432 C76.930009,17.959432 76.2258479,18.2772112 75.6477965,18.9127789 C75.0697451,19.5483467 74.7308019,20.3583453 74.6309566,21.3427992 L80.5743461,21.3427992 L80.5743461,21.2373225 C80.5743461,20.6423229 80.4521689,20.089252 80.2078108,19.5780933 C79.9634527,19.0669346 79.627137,18.6693726 79.1988535,18.3853955 C78.7705699,18.1014185 78.2910572,17.959432 77.760301,17.959432 Z" id="Page-Title" fill="#424242"></path>
            <path d="M18.8104004,45.5424165 C18.8104004,45.2313609 18.6930523,44.9852194 18.4583525,44.8039846 C18.2236528,44.6227497 17.7942967,44.450515 17.1702715,44.2872751 C16.5462463,44.1240352 16.0906595,43.9460164 15.8034975,43.7532134 C15.3948438,43.4807184 15.19052,43.1233955 15.19052,42.6812339 C15.19052,42.2519259 15.3803478,41.9029576 15.7600092,41.6343188 C16.1396706,41.3656799 16.6249395,41.2313625 17.2158306,41.2313625 C17.6162008,41.2313625 17.9744577,41.3033412 18.2906121,41.4473008 C18.6067664,41.5912604 18.8518169,41.7917725 19.0257708,42.0488432 C19.1997248,42.3059139 19.2867004,42.5925434 19.2867004,42.9087404 L18.7731247,42.9087404 C18.7731247,42.525705 18.632307,42.2178675 18.3506673,41.9852185 C18.0690276,41.7525695 17.6907525,41.6362468 17.2158306,41.6362468 C16.7547147,41.6362468 16.3874841,41.7320042 16.1141279,41.9235219 C15.8407718,42.1150395 15.7040957,42.365037 15.7040957,42.6735219 C15.7040957,42.9588703 15.8269661,43.1915158 16.0727105,43.3714653 C16.318455,43.5514148 16.7119163,43.7101536 17.2531063,43.8476864 C17.7942963,43.9852192 18.2043244,44.1278913 18.4832029,44.2757069 C18.7620815,44.4235226 18.9719275,44.600256 19.1127474,44.8059126 C19.2535672,45.0115692 19.3239761,45.2544973 19.3239761,45.5347044 C19.3239761,45.976866 19.1341482,46.3316182 18.7544869,46.5989717 C18.3748255,46.8663252 17.8743703,47 17.2531063,47 C16.8278856,47 16.4378757,46.9293066 16.0830649,46.7879177 C15.7282541,46.6465289 15.4590437,46.4485874 15.2754257,46.1940874 C15.0918076,45.9395874 15,45.6478166 15,45.3187661 L15.509434,45.3187661 C15.509434,45.7146549 15.6681991,46.0269911 15.985734,46.2557841 C16.303269,46.484577 16.7257222,46.5989717 17.2531063,46.5989717 C17.7225058,46.5989717 18.0994003,46.5025717 18.3838012,46.3097686 C18.6682021,46.1169656 18.8104004,45.8611841 18.8104004,45.5424165 Z M22.0409572,47 C21.6599153,47 21.315464,46.9125973 21.0075932,46.7377892 C20.6997223,46.5629811 20.4601941,46.3194103 20.2890014,46.0070694 C20.1178086,45.6947285 20.0322135,45.3444749 20.0322135,44.9562982 L20.0322135,44.7904884 C20.0322135,44.3894581 20.1157378,44.0282792 20.2827888,43.7069409 C20.4498398,43.3856025 20.6824651,43.1330343 20.9806719,42.9492288 C21.2788786,42.7654232 21.6019311,42.6735219 21.9498389,42.6735219 C22.4937901,42.6735219 22.925217,42.8463993 23.2441325,43.1921594 C23.5630481,43.5379195 23.7225035,44.0102798 23.7225035,44.6092545 L23.7225035,44.8676093 L20.5250805,44.8676093 L20.5250805,44.9562982 C20.5250805,45.4293083 20.6707303,45.8232632 20.9620341,46.1381748 C21.2533379,46.4530864 21.6198781,46.6105398 22.0616659,46.6105398 C22.3267386,46.6105398 22.5607445,46.5655531 22.7636908,46.4755784 C22.966637,46.3856037 23.1509426,46.2416462 23.316613,46.0437018 L23.6272434,46.2634961 C23.2627685,46.7545012 22.7340117,47 22.0409572,47 Z M21.9498389,43.066838 C21.5770805,43.066838 21.2630017,43.1940861 21.0075932,43.4485861 C20.7521846,43.7030861 20.596871,44.044985 20.5416475,44.4742931 L23.2296364,44.4742931 L23.2296364,44.4241645 C23.2158306,44.0231342 23.0929602,43.6966594 22.8610216,43.4447301 C22.6290831,43.1928008 22.3253585,43.066838 21.9498389,43.066838 Z M26.3442246,46.6105398 C26.6893713,46.6105398 26.9785998,46.5199238 27.211919,46.3386889 C27.4452382,46.1574541 27.57156,45.9228806 27.5908882,45.6349614 L28.0671882,45.6349614 C28.0533824,45.8894614 27.9677873,46.1214642 27.8104004,46.3309769 C27.6530135,46.5404895 27.4438577,46.7043696 27.1829268,46.8226221 C26.9219959,46.9408746 26.6424313,47 26.3442246,47 C25.7560946,47 25.2901536,46.8097705 24.9463875,46.4293059 C24.6026214,46.0488413 24.4307409,45.5372783 24.4307409,44.8946015 L24.4307409,44.7557841 C24.4307409,44.344471 24.5080526,43.9807214 24.6626783,43.6645244 C24.817304,43.3483275 25.0388849,43.104114 25.3274275,42.9318766 C25.6159701,42.7596392 25.9535185,42.6735219 26.3400828,42.6735219 C26.8315717,42.6735219 27.2367678,42.8097673 27.5556834,43.0822622 C27.8745989,43.3547571 28.0450988,43.7133654 28.0671882,44.1580977 L27.5908882,44.1580977 C27.5687988,43.8316179 27.442477,43.5681244 27.211919,43.3676093 C26.981361,43.1670941 26.6907519,43.066838 26.3400828,43.066838 C25.8927727,43.066838 25.5455604,43.2172221 25.2984353,43.5179949 C25.0513103,43.8187676 24.9277497,44.2403572 24.9277497,44.7827763 L24.9277497,44.9177378 C24.9277497,45.4498741 25.0513103,45.8650371 25.2984353,46.1632391 C25.5455604,46.4614411 25.8941533,46.6105398 26.3442246,46.6105398 Z M29.8274275,41.6825193 L29.8274275,42.7506427 L30.7551772,42.7506427 L30.7551772,43.1285347 L29.8274275,43.1285347 L29.8274275,45.9087404 C29.8274275,46.140104 29.8722959,46.3123388 29.9620341,46.4254499 C30.0517722,46.538561 30.2015636,46.5951157 30.4114128,46.5951157 C30.494248,46.5951157 30.6281629,46.5822623 30.8131615,46.5565553 L30.8338702,46.9344473 C30.7040951,46.9781493 30.5273826,47 30.3037276,47 C29.9641032,47 29.7169819,46.9080986 29.5623562,46.7242931 C29.4077305,46.5404875 29.3304188,46.2699247 29.3304188,45.9125964 L29.3304188,43.1285347 L28.5062126,43.1285347 L28.5062126,42.7506427 L29.3304188,42.7506427 L29.3304188,41.6825193 L29.8274275,41.6825193 Z M32.3373217,46.9228792 L31.8403129,46.9228792 L31.8403129,42.7506427 L32.3373217,42.7506427 L32.3373217,46.9228792 Z M31.7533364,41.5437018 C31.7533364,41.4562978 31.7837089,41.382391 31.8444547,41.3219794 C31.9052005,41.2615678 31.9880345,41.2313625 32.092959,41.2313625 C32.1978836,41.2313625 32.2814079,41.2615678 32.3435343,41.3219794 C32.4056607,41.382391 32.4367234,41.4562978 32.4367234,41.5437018 C32.4367234,41.6311058 32.4056607,41.7043699 32.3435343,41.7634961 C32.2814079,41.8226224 32.1978836,41.8521851 32.092959,41.8521851 C31.9880345,41.8521851 31.9052005,41.8226224 31.8444547,41.7634961 C31.7837089,41.7043699 31.7533364,41.6311058 31.7533364,41.5437018 Z M33.4100322,44.7750643 C33.4100322,44.374034 33.4935565,44.0128551 33.6606075,43.6915167 C33.8276585,43.3701783 34.0637352,43.1201808 34.3688449,42.9415167 C34.6739546,42.7628526 35.0197864,42.6735219 35.4063507,42.6735219 C36.0027641,42.6735219 36.4859623,42.86825 36.8559595,43.2577121 C37.2259568,43.6471742 37.4109526,44.1632359 37.4109526,44.8059126 L37.4109526,44.9023136 C37.4109526,45.3059146 37.3274284,45.6690215 37.1603774,45.9916452 C36.9933264,46.314269 36.7579399,46.5629811 36.4542108,46.7377892 C36.1504817,46.9125973 35.8039596,47 35.4146341,47 C34.8209818,47 34.338474,46.8052719 33.9670962,46.4158098 C33.5957183,46.0263477 33.4100322,45.510286 33.4100322,44.8676093 L33.4100322,44.7750643 Z M33.907041,44.9023136 C33.907041,45.4010308 34.0457878,45.8104097 34.3232858,46.1304627 C34.6007837,46.4505157 34.9645629,46.6105398 35.4146341,46.6105398 C35.8619443,46.6105398 36.2243428,46.4505157 36.5018408,46.1304627 C36.7793387,45.8104097 36.9180856,45.3881774 36.9180856,44.8637532 L36.9180856,44.7750643 C36.9180856,44.4562966 36.8545796,44.1645257 36.7275656,43.8997429 C36.6005516,43.6349601 36.4224586,43.4299493 36.1932812,43.2847044 C35.9641038,43.1394594 35.7017962,43.066838 35.4063507,43.066838 C34.9645629,43.066838 34.6042352,43.2281475 34.3253566,43.5507712 C34.0464781,43.8733949 33.907041,44.2956272 33.907041,44.8174807 L33.907041,44.9023136 Z M38.9061206,42.7506427 L38.9226875,43.4640103 C39.0911191,43.2069396 39.3009651,43.0109261 39.5522319,42.875964 C39.8034987,42.7410019 40.0809925,42.6735219 40.3847216,42.6735219 C40.8651658,42.6735219 41.2227324,42.7994846 41.4574321,43.0514139 C41.6921319,43.3033432 41.8108605,43.6812314 41.8136217,44.18509 L41.8136217,46.9228792 L41.3207547,46.9228792 L41.3207547,44.1812339 C41.3179935,43.8084814 41.2330887,43.5308492 41.0660377,43.348329 C40.8989867,43.1658089 40.6318472,43.0745501 40.2646111,43.0745501 C39.9581209,43.0745501 39.6868397,43.1638809 39.4507593,43.342545 C39.214679,43.5212091 39.0400374,43.7622093 38.9268293,44.0655527 L38.9268293,46.9228792 L38.4339623,46.9228792 L38.4339623,42.7506427 L38.9061206,42.7506427 Z M49.1983433,41.7133676 L47.1316153,41.7133676 L47.1316153,46.9228792 L46.6221813,46.9228792 L46.6221813,41.7133676 L44.559595,41.7133676 L44.559595,41.3084833 L49.1983433,41.3084833 L49.1983433,41.7133676 Z M50.6106765,46.9228792 L50.1136677,46.9228792 L50.1136677,42.7506427 L50.6106765,42.7506427 L50.6106765,46.9228792 Z M50.0266912,41.5437018 C50.0266912,41.4562978 50.0570637,41.382391 50.1178095,41.3219794 C50.1785553,41.2615678 50.2613893,41.2313625 50.3663139,41.2313625 C50.4712384,41.2313625 50.5547627,41.2615678 50.6168891,41.3219794 C50.6790155,41.382391 50.7100782,41.4562978 50.7100782,41.5437018 C50.7100782,41.6311058 50.6790155,41.7043699 50.6168891,41.7634961 C50.5547627,41.8226224 50.4712384,41.8521851 50.3663139,41.8521851 C50.2613893,41.8521851 50.1785553,41.8226224 50.1178095,41.7634961 C50.0570637,41.7043699 50.0266912,41.6311058 50.0266912,41.5437018 Z M52.7271054,41.6825193 L52.7271054,42.7506427 L53.654855,42.7506427 L53.654855,43.1285347 L52.7271054,43.1285347 L52.7271054,45.9087404 C52.7271054,46.140104 52.7719738,46.3123388 52.8617119,46.4254499 C52.9514501,46.538561 53.1012415,46.5951157 53.3110907,46.5951157 C53.3939259,46.5951157 53.5278408,46.5822623 53.7128394,46.5565553 L53.7335481,46.9344473 C53.6037729,46.9781493 53.4270605,47 53.2034054,47 C52.8637811,47 52.6166598,46.9080986 52.4620341,46.7242931 C52.3074083,46.5404875 52.2300966,46.2699247 52.2300966,45.9125964 L52.2300966,43.1285347 L51.4058905,43.1285347 L51.4058905,42.7506427 L52.2300966,42.7506427 L52.2300966,41.6825193 L52.7271054,41.6825193 Z M55.2369995,46.9228792 L54.7399908,46.9228792 L54.7399908,41 L55.2369995,41 L55.2369995,46.9228792 Z M58.3184538,47 C57.9374118,47 57.5929606,46.9125973 57.2850897,46.7377892 C56.9772189,46.5629811 56.7376907,46.3194103 56.5664979,46.0070694 C56.3953052,45.6947285 56.3097101,45.3444749 56.3097101,44.9562982 L56.3097101,44.7904884 C56.3097101,44.3894581 56.3932343,44.0282792 56.5602853,43.7069409 C56.7273363,43.3856025 56.9599617,43.1330343 57.2581684,42.9492288 C57.5563752,42.7654232 57.8794276,42.6735219 58.2273355,42.6735219 C58.7712867,42.6735219 59.2027135,42.8463993 59.5216291,43.1921594 C59.8405446,43.5379195 60,44.0102798 60,44.6092545 L60,44.8676093 L56.8025771,44.8676093 L56.8025771,44.9562982 C56.8025771,45.4293083 56.9482268,45.8232632 57.2395306,46.1381748 C57.5308344,46.4530864 57.8973747,46.6105398 58.3391624,46.6105398 C58.6042351,46.6105398 58.838241,46.5655531 59.0411873,46.4755784 C59.2441336,46.3856037 59.4284391,46.2416462 59.5941095,46.0437018 L59.90474,46.2634961 C59.5402651,46.7545012 59.0115083,47 58.3184538,47 Z M58.2273355,43.066838 C57.8545771,43.066838 57.5404983,43.1940861 57.2850897,43.4485861 C57.0296812,43.7030861 56.8743675,44.044985 56.819144,44.4742931 L59.507133,44.4742931 L59.507133,44.4241645 C59.4933271,44.0231342 59.3704568,43.6966594 59.1385182,43.4447301 C58.9065796,43.1928008 58.6028551,43.066838 58.2273355,43.066838 Z" id="Section-Title" fill="#424242"></path>
            <path d="M17.0137049,126.420308 C16.3735665,126.237788 15.9077237,126.013497 15.6161626,125.747429 C15.3246016,125.481361 15.1788232,125.152958 15.1788232,124.762211 C15.1788232,124.320049 15.3569967,123.954372 15.7133491,123.665167 C16.0697015,123.375963 16.5329527,123.231362 17.1031166,123.231362 C17.4918646,123.231362 17.8384931,123.305912 18.1430125,123.455013 C18.4475318,123.604114 18.6833687,123.809767 18.8505304,124.071979 C19.0176921,124.334192 19.1012717,124.620821 19.1012717,124.931877 L18.3509916,124.931877 C18.3509916,124.592543 18.2421438,124.325836 18.0244449,124.131748 C17.806746,123.93766 17.4996396,123.840617 17.1031166,123.840617 C16.7351017,123.840617 16.4480804,123.92095 16.2420439,124.08162 C16.0360074,124.242289 15.9329907,124.465294 15.9329907,124.750643 C15.9329907,124.979436 16.0308242,125.172878 16.226494,125.330977 C16.4221639,125.489075 16.7551864,125.633675 17.2255716,125.764781 C17.6959568,125.895888 18.0639661,126.040488 18.3296106,126.198586 C18.5952551,126.356685 18.7922178,126.54113 18.9205047,126.751928 C19.0487916,126.962726 19.112934,127.210795 19.112934,127.496144 C19.112934,127.951159 18.9341126,128.315551 18.5764644,128.589332 C18.2188162,128.863112 17.7406632,129 17.1419912,129 C16.7532431,129 16.390417,128.926093 16.053502,128.778278 C15.716587,128.630462 15.4567776,128.428022 15.274066,128.170951 C15.0913544,127.91388 15,127.62211 15,127.29563 L15.75028,127.29563 C15.75028,127.634963 15.8766213,127.902955 16.1293075,128.099614 C16.3819938,128.296273 16.7195516,128.394602 17.1419912,128.394602 C17.5359226,128.394602 17.8378457,128.314911 18.0477697,128.155527 C18.2576936,127.996143 18.362654,127.778922 18.362654,127.503856 C18.362654,127.22879 18.2654685,127.016068 18.0710944,126.865681 C17.8767204,126.715295 17.5242608,126.566839 17.0137049,126.420308 Z M22.5533373,128.510283 C22.2734387,128.836763 21.8626677,129 21.3210121,129 C20.8726559,129 20.5312107,128.870824 20.296666,128.612468 C20.0621213,128.354112 19.943555,127.971725 19.9409633,127.465296 L19.9409633,124.750643 L20.6601436,124.750643 L20.6601436,127.446015 C20.6601436,128.078409 20.9193051,128.394602 21.4376359,128.394602 C21.9870665,128.394602 22.3524842,128.191519 22.5339,127.785347 L22.5339,124.750643 L23.2530803,124.750643 L23.2530803,128.922879 L22.5688871,128.922879 L22.5533373,128.510283 Z M27.9063715,126.883033 C27.9063715,127.520569 27.7586494,128.032774 27.4632009,128.419666 C27.1677524,128.806557 26.7712353,129 26.2736377,129 C25.7423487,129 25.3315777,128.813627 25.0413125,128.440874 L25.0063254,128.922879 L24.3454569,128.922879 L24.3454569,123 L25.0646373,123 L25.0646373,125.209512 C25.3549025,124.852183 25.755307,124.673522 26.2658628,124.673522 C26.7764186,124.673522 27.177471,124.865037 27.4690321,125.248072 C27.7605931,125.631107 27.9063715,126.155524 27.9063715,126.821337 L27.9063715,126.883033 Z M27.1871911,126.802057 C27.1871911,126.316193 27.0925972,125.940875 26.9034065,125.676093 C26.7142157,125.41131 26.4420962,125.27892 26.0870396,125.27892 C25.612767,125.27892 25.2719696,125.497427 25.0646373,125.934447 L25.0646373,127.739075 C25.2849279,128.176095 25.6283168,128.394602 26.0948145,128.394602 C26.4395045,128.394602 26.7077366,128.262212 26.899519,127.997429 C27.0913014,127.732646 27.1871911,127.334193 27.1871911,126.802057 Z M30.3088226,126.829049 L28.4117415,126.829049 L28.4117415,126.246787 L30.3088226,126.246787 L30.3088226,126.829049 Z M32.7890229,126.420308 C32.1488844,126.237788 31.6830416,126.013497 31.3914805,125.747429 C31.0999195,125.481361 30.9541411,125.152958 30.9541411,124.762211 C30.9541411,124.320049 31.1323147,123.954372 31.4886671,123.665167 C31.8450195,123.375963 32.3082706,123.231362 32.8784345,123.231362 C33.2671825,123.231362 33.613811,123.305912 33.9183304,123.455013 C34.2228497,123.604114 34.4586867,123.809767 34.6258483,124.071979 C34.79301,124.334192 34.8765896,124.620821 34.8765896,124.931877 L34.1263095,124.931877 C34.1263095,124.592543 34.0174617,124.325836 33.7997628,124.131748 C33.5820639,123.93766 33.2749575,123.840617 32.8784345,123.840617 C32.5104196,123.840617 32.2233983,123.92095 32.0173618,124.08162 C31.8113253,124.242289 31.7083086,124.465294 31.7083086,124.750643 C31.7083086,124.979436 31.8061421,125.172878 32.001812,125.330977 C32.1974818,125.489075 32.5305043,125.633675 33.0008895,125.764781 C33.4712747,125.895888 33.839284,126.040488 34.1049285,126.198586 C34.370573,126.356685 34.5675358,126.54113 34.6958226,126.751928 C34.8241095,126.962726 34.888252,127.210795 34.888252,127.496144 C34.888252,127.951159 34.7094305,128.315551 34.3517823,128.589332 C33.9941341,128.863112 33.5159811,129 32.9173091,129 C32.528561,129 32.1657349,128.926093 31.8288199,128.778278 C31.4919049,128.630462 31.2320955,128.428022 31.0493839,128.170951 C30.8666723,127.91388 30.7753179,127.62211 30.7753179,127.29563 L31.5255979,127.29563 C31.5255979,127.634963 31.6519392,127.902955 31.9046254,128.099614 C32.1573117,128.296273 32.4948695,128.394602 32.9173091,128.394602 C33.3112405,128.394602 33.6131636,128.314911 33.8230876,128.155527 C34.0330115,127.996143 34.1379719,127.778922 34.1379719,127.503856 C34.1379719,127.22879 34.0407864,127.016068 33.8464123,126.865681 C33.6520383,126.715295 33.2995787,126.566839 32.7890229,126.420308 Z M37.4773012,129 C36.9071373,129 36.4432383,128.814269 36.08559,128.442802 C35.7279418,128.071335 35.5491204,127.574553 35.5491204,126.952442 L35.5491204,126.821337 C35.5491204,126.407453 35.6288125,126.037919 35.7881992,125.712725 C35.947586,125.387531 36.1704648,125.133034 36.4568426,124.949229 C36.7432203,124.765423 37.0535662,124.673522 37.3878896,124.673522 C37.9347285,124.673522 38.3597534,124.852183 38.6629769,125.209512 C38.9662004,125.56684 39.1178098,126.078403 39.1178098,126.744216 L39.1178098,127.041131 L36.2683007,127.041131 C36.2786673,127.452444 36.3998253,127.784703 36.6317783,128.037918 C36.8637314,128.291132 37.1585276,128.417738 37.5161758,128.417738 C37.7701579,128.417738 37.9852619,128.366324 38.1614944,128.263496 C38.3377268,128.160668 38.4919279,128.024422 38.6241023,127.854756 L39.0633854,128.194087 C38.7109205,128.731365 38.182231,129 37.4773012,129 Z M37.3878896,125.25964 C37.0976243,125.25964 36.8540125,125.364395 36.6570468,125.573907 C36.4600812,125.78342 36.3382753,126.077119 36.2916255,126.455013 L38.3986295,126.455013 L38.3986295,126.401028 C38.3778963,126.038559 38.2794149,125.757713 38.1031824,125.558483 C37.92695,125.359254 37.6885214,125.25964 37.3878896,125.25964 Z M41.6368848,128.417738 C41.8934585,128.417738 42.1176332,128.340618 42.3094156,128.186375 C42.5011979,128.032133 42.6074542,127.839333 42.6281874,127.607969 L43.3084931,127.607969 C43.2955348,127.847045 43.2126032,128.074549 43.0596956,128.290488 C42.906788,128.506428 42.7026983,128.678663 42.4474204,128.807198 C42.1921425,128.935733 41.9219667,129 41.6368848,129 C41.0641293,129 40.6086529,128.810413 40.2704421,128.431234 C39.9322313,128.052055 39.7631284,127.533422 39.7631284,126.875321 L39.7631284,126.755784 C39.7631284,126.349612 39.8382853,125.988433 39.9886012,125.672237 C40.1389171,125.35604 40.354669,125.110541 40.6358635,124.935733 C40.9170579,124.760925 41.2494325,124.673522 41.6329973,124.673522 C42.1046783,124.673522 42.4966601,124.813623 42.8089543,125.09383 C43.1212486,125.374037 43.2877599,125.737787 43.3084931,126.18509 L42.6281874,126.18509 C42.6074542,125.915166 42.5044375,125.693446 42.3191342,125.519923 C42.133831,125.3464 41.9051209,125.25964 41.6329973,125.25964 C41.2675741,125.25964 40.9844402,125.390102 40.783587,125.651028 C40.5827338,125.911955 40.4823088,126.289201 40.4823088,126.782776 L40.4823088,126.917738 C40.4823088,127.39846 40.5820859,127.768636 40.7816433,128.028278 C40.9812006,128.287919 41.2662783,128.417738 41.6368848,128.417738 Z M45.0928378,123.74036 L45.0928378,124.750643 L45.878105,124.750643 L45.878105,125.302057 L45.0928378,125.302057 L45.0928378,127.88946 C45.0928378,128.056556 45.1278246,128.181876 45.1977993,128.265424 C45.267774,128.348972 45.3869882,128.390746 45.5554457,128.390746 C45.6383787,128.390746 45.7524097,128.375321 45.8975423,128.344473 L45.8975423,128.922879 C45.7083516,128.974293 45.5243469,129 45.3455228,129 C45.0241578,129 44.7818418,128.9036 44.6185676,128.710797 C44.4552934,128.517994 44.3736575,128.244218 44.3736575,127.88946 L44.3736575,125.302057 L43.6078276,125.302057 L43.6078276,124.750643 L44.3736575,124.750643 L44.3736575,123.74036 L45.0928378,123.74036 Z M47.4991764,128.922879 L46.779996,128.922879 L46.779996,124.750643 L47.4991764,124.750643 L47.4991764,128.922879 Z M46.7216841,123.643959 C46.7216841,123.528277 46.7573188,123.430592 46.8285893,123.3509 C46.8998598,123.271208 47.0054681,123.231362 47.1454174,123.231362 C47.2853667,123.231362 47.3916229,123.271208 47.4641892,123.3509 C47.5367555,123.430592 47.5730381,123.528277 47.5730381,123.643959 C47.5730381,123.759641 47.5367555,123.856041 47.4641892,123.933162 C47.3916229,124.010283 47.2853667,124.048843 47.1454174,124.048843 C47.0054681,124.048843 46.8998598,124.010283 46.8285893,123.933162 C46.7573188,123.856041 46.7216841,123.759641 46.7216841,123.643959 Z M48.4593793,126.798201 C48.4593793,126.389458 48.5403673,126.021853 48.7023457,125.695373 C48.864324,125.368893 49.0897945,125.116967 49.3787639,124.939589 C49.6677333,124.76221 49.9975163,124.673522 50.3681228,124.673522 C50.9408783,124.673522 51.4041295,124.870178 51.7578902,125.263496 C52.111651,125.656814 52.2885287,126.179945 52.2885287,126.832905 L52.2885287,126.883033 C52.2885287,127.289205 52.2101323,127.653597 52.0533373,127.976221 C51.8965422,128.298845 51.6723675,128.550128 51.3808065,128.730077 C51.0892454,128.910027 50.7542792,129 50.3758977,129 C49.8057339,129 49.3437785,128.803344 48.9900178,128.410026 C48.636257,128.016708 48.4593793,127.496147 48.4593793,126.848329 L48.4593793,126.798201 Z M49.1824471,126.883033 C49.1824471,127.345761 49.290647,127.717222 49.5070501,127.997429 C49.7234532,128.277636 50.0130662,128.417738 50.3758977,128.417738 C50.7413209,128.417738 51.0315818,128.275708 51.2466891,127.991645 C51.4617963,127.707582 51.5693484,127.309771 51.5693484,126.798201 C51.5693484,126.340615 51.4598526,125.969796 51.2408579,125.685733 C51.0218631,125.40167 50.7309544,125.25964 50.3681228,125.25964 C50.0130662,125.25964 49.7266928,125.399742 49.5089939,125.679949 C49.291295,125.960156 49.1824471,126.36118 49.1824471,126.883033 Z M53.8707254,124.750643 L53.8940502,125.275064 C54.2154153,124.874034 54.6352569,124.673522 55.1535877,124.673522 C56.0425249,124.673522 56.4908743,125.170946 56.4986493,126.16581 L56.4986493,128.922879 L55.7794689,128.922879 L55.7794689,126.161954 C55.7768773,125.861181 55.7075516,125.638818 55.5714898,125.494859 C55.4354279,125.350899 55.2235634,125.27892 54.9358898,125.27892 C54.702641,125.27892 54.4979034,125.340616 54.3216709,125.46401 C54.1454385,125.587404 54.0080829,125.749356 53.9096001,125.949871 L53.9096001,128.922879 L53.1904197,128.922879 L53.1904197,124.750643 L53.8707254,124.750643 Z M63.4222178,123.917738 L61.6028859,123.917738 L61.6028859,128.922879 L60.8603808,128.922879 L60.8603808,123.917738 L59.0449364,123.917738 L59.0449364,123.308483 L63.4222178,123.308483 L63.4222178,123.917738 Z M64.9305528,128.922879 L64.2113725,128.922879 L64.2113725,124.750643 L64.9305528,124.750643 L64.9305528,128.922879 Z M64.1530606,123.643959 C64.1530606,123.528277 64.1886953,123.430592 64.2599657,123.3509 C64.3312362,123.271208 64.4368445,123.231362 64.5767938,123.231362 C64.7167431,123.231362 64.8229994,123.271208 64.8955657,123.3509 C64.968132,123.430592 65.0044146,123.528277 65.0044146,123.643959 C65.0044146,123.759641 64.968132,123.856041 64.8955657,123.933162 C64.8229994,124.010283 64.7167431,124.048843 64.5767938,124.048843 C64.4368445,124.048843 64.3312362,124.010283 64.2599657,123.933162 C64.1886953,123.856041 64.1530606,123.759641 64.1530606,123.643959 Z M67.0569941,123.74036 L67.0569941,124.750643 L67.8422613,124.750643 L67.8422613,125.302057 L67.0569941,125.302057 L67.0569941,127.88946 C67.0569941,128.056556 67.0919809,128.181876 67.1619556,128.265424 C67.2319302,128.348972 67.3511445,128.390746 67.519602,128.390746 C67.602535,128.390746 67.716566,128.375321 67.8616986,128.344473 L67.8616986,128.922879 C67.6725079,128.974293 67.4885032,129 67.3096791,129 C66.988314,129 66.745998,128.9036 66.5827239,128.710797 C66.4194497,128.517994 66.3378138,128.244218 66.3378138,127.88946 L66.3378138,125.302057 L65.5719839,125.302057 L65.5719839,124.750643 L66.3378138,124.750643 L66.3378138,123.74036 L67.0569941,123.74036 Z M69.4633327,128.922879 L68.7441523,128.922879 L68.7441523,123 L69.4633327,123 L69.4633327,128.922879 Z M72.3594913,129 C71.7893275,129 71.3254284,128.814269 70.9677802,128.442802 C70.610132,128.071335 70.4313105,127.574553 70.4313105,126.952442 L70.4313105,126.821337 C70.4313105,126.407453 70.5110027,126.037919 70.6703894,125.712725 C70.8297761,125.387531 71.052655,125.133034 71.3390327,124.949229 C71.6254105,124.765423 71.9357564,124.673522 72.2700797,124.673522 C72.8169187,124.673522 73.2419435,124.852183 73.545167,125.209512 C73.8483905,125.56684 74,126.078403 74,126.744216 L74,127.041131 L71.1504909,127.041131 C71.1608575,127.452444 71.2820155,127.784703 71.5139685,128.037918 C71.7459215,128.291132 72.0407177,128.417738 72.3983659,128.417738 C72.652348,128.417738 72.8674521,128.366324 73.0436845,128.263496 C73.219917,128.160668 73.3741181,128.024422 73.5062924,127.854756 L73.9455755,128.194087 C73.5931106,128.731365 73.0644212,129 72.3594913,129 Z M72.2700797,125.25964 C71.9798145,125.25964 71.7362027,125.364395 71.539237,125.573907 C71.3422713,125.78342 71.2204654,126.077119 71.1738156,126.455013 L73.2808197,126.455013 L73.2808197,126.401028 C73.2600864,126.038559 73.1616051,125.757713 72.9853726,125.558483 C72.8091401,125.359254 72.5707116,125.25964 72.2700797,125.25964 Z" id="Sub-Section-Title" fill="#424242"></path>
            <path d="M163.013705,126.420308 C162.373566,126.237788 161.907724,126.013497 161.616163,125.747429 C161.324602,125.481361 161.178823,125.152958 161.178823,124.762211 C161.178823,124.320049 161.356997,123.954372 161.713349,123.665167 C162.069702,123.375963 162.532953,123.231362 163.103117,123.231362 C163.491865,123.231362 163.838493,123.305912 164.143012,123.455013 C164.447532,123.604114 164.683369,123.809767 164.85053,124.071979 C165.017692,124.334192 165.101272,124.620821 165.101272,124.931877 L164.350992,124.931877 C164.350992,124.592543 164.242144,124.325836 164.024445,124.131748 C163.806746,123.93766 163.49964,123.840617 163.103117,123.840617 C162.735102,123.840617 162.44808,123.92095 162.242044,124.08162 C162.036007,124.242289 161.932991,124.465294 161.932991,124.750643 C161.932991,124.979436 162.030824,125.172878 162.226494,125.330977 C162.422164,125.489075 162.755186,125.633675 163.225572,125.764781 C163.695957,125.895888 164.063966,126.040488 164.329611,126.198586 C164.595255,126.356685 164.792218,126.54113 164.920505,126.751928 C165.048792,126.962726 165.112934,127.210795 165.112934,127.496144 C165.112934,127.951159 164.934113,128.315551 164.576464,128.589332 C164.218816,128.863112 163.740663,129 163.141991,129 C162.753243,129 162.390417,128.926093 162.053502,128.778278 C161.716587,128.630462 161.456778,128.428022 161.274066,128.170951 C161.091354,127.91388 161,127.62211 161,127.29563 L161.75028,127.29563 C161.75028,127.634963 161.876621,127.902955 162.129308,128.099614 C162.381994,128.296273 162.719552,128.394602 163.141991,128.394602 C163.535923,128.394602 163.837846,128.314911 164.04777,128.155527 C164.257694,127.996143 164.362654,127.778922 164.362654,127.503856 C164.362654,127.22879 164.265468,127.016068 164.071094,126.865681 C163.87672,126.715295 163.524261,126.566839 163.013705,126.420308 Z M168.553337,128.510283 C168.273439,128.836763 167.862668,129 167.321012,129 C166.872656,129 166.531211,128.870824 166.296666,128.612468 C166.062121,128.354112 165.943555,127.971725 165.940963,127.465296 L165.940963,124.750643 L166.660144,124.750643 L166.660144,127.446015 C166.660144,128.078409 166.919305,128.394602 167.437636,128.394602 C167.987067,128.394602 168.352484,128.191519 168.5339,127.785347 L168.5339,124.750643 L169.25308,124.750643 L169.25308,128.922879 L168.568887,128.922879 L168.553337,128.510283 Z M173.906371,126.883033 C173.906371,127.520569 173.758649,128.032774 173.463201,128.419666 C173.167752,128.806557 172.771235,129 172.273638,129 C171.742349,129 171.331578,128.813627 171.041313,128.440874 L171.006325,128.922879 L170.345457,128.922879 L170.345457,123 L171.064637,123 L171.064637,125.209512 C171.354903,124.852183 171.755307,124.673522 172.265863,124.673522 C172.776419,124.673522 173.177471,124.865037 173.469032,125.248072 C173.760593,125.631107 173.906371,126.155524 173.906371,126.821337 L173.906371,126.883033 Z M173.187191,126.802057 C173.187191,126.316193 173.092597,125.940875 172.903406,125.676093 C172.714216,125.41131 172.442096,125.27892 172.08704,125.27892 C171.612767,125.27892 171.27197,125.497427 171.064637,125.934447 L171.064637,127.739075 C171.284928,128.176095 171.628317,128.394602 172.094815,128.394602 C172.439504,128.394602 172.707737,128.262212 172.899519,127.997429 C173.091301,127.732646 173.187191,127.334193 173.187191,126.802057 Z M176.308823,126.829049 L174.411741,126.829049 L174.411741,126.246787 L176.308823,126.246787 L176.308823,126.829049 Z M178.789023,126.420308 C178.148884,126.237788 177.683042,126.013497 177.391481,125.747429 C177.099919,125.481361 176.954141,125.152958 176.954141,124.762211 C176.954141,124.320049 177.132315,123.954372 177.488667,123.665167 C177.845019,123.375963 178.308271,123.231362 178.878434,123.231362 C179.267183,123.231362 179.613811,123.305912 179.91833,123.455013 C180.22285,123.604114 180.458687,123.809767 180.625848,124.071979 C180.79301,124.334192 180.87659,124.620821 180.87659,124.931877 L180.12631,124.931877 C180.12631,124.592543 180.017462,124.325836 179.799763,124.131748 C179.582064,123.93766 179.274958,123.840617 178.878434,123.840617 C178.51042,123.840617 178.223398,123.92095 178.017362,124.08162 C177.811325,124.242289 177.708309,124.465294 177.708309,124.750643 C177.708309,124.979436 177.806142,125.172878 178.001812,125.330977 C178.197482,125.489075 178.530504,125.633675 179.00089,125.764781 C179.471275,125.895888 179.839284,126.040488 180.104929,126.198586 C180.370573,126.356685 180.567536,126.54113 180.695823,126.751928 C180.824109,126.962726 180.888252,127.210795 180.888252,127.496144 C180.888252,127.951159 180.709431,128.315551 180.351782,128.589332 C179.994134,128.863112 179.515981,129 178.917309,129 C178.528561,129 178.165735,128.926093 177.82882,128.778278 C177.491905,128.630462 177.232096,128.428022 177.049384,128.170951 C176.866672,127.91388 176.775318,127.62211 176.775318,127.29563 L177.525598,127.29563 C177.525598,127.634963 177.651939,127.902955 177.904625,128.099614 C178.157312,128.296273 178.49487,128.394602 178.917309,128.394602 C179.31124,128.394602 179.613164,128.314911 179.823088,128.155527 C180.033012,127.996143 180.137972,127.778922 180.137972,127.503856 C180.137972,127.22879 180.040786,127.016068 179.846412,126.865681 C179.652038,126.715295 179.299579,126.566839 178.789023,126.420308 Z M183.477301,129 C182.907137,129 182.443238,128.814269 182.08559,128.442802 C181.727942,128.071335 181.54912,127.574553 181.54912,126.952442 L181.54912,126.821337 C181.54912,126.407453 181.628813,126.037919 181.788199,125.712725 C181.947586,125.387531 182.170465,125.133034 182.456843,124.949229 C182.74322,124.765423 183.053566,124.673522 183.38789,124.673522 C183.934729,124.673522 184.359753,124.852183 184.662977,125.209512 C184.9662,125.56684 185.11781,126.078403 185.11781,126.744216 L185.11781,127.041131 L182.268301,127.041131 C182.278667,127.452444 182.399825,127.784703 182.631778,128.037918 C182.863731,128.291132 183.158528,128.417738 183.516176,128.417738 C183.770158,128.417738 183.985262,128.366324 184.161494,128.263496 C184.337727,128.160668 184.491928,128.024422 184.624102,127.854756 L185.063385,128.194087 C184.71092,128.731365 184.182231,129 183.477301,129 Z M183.38789,125.25964 C183.097624,125.25964 182.854013,125.364395 182.657047,125.573907 C182.460081,125.78342 182.338275,126.077119 182.291625,126.455013 L184.39863,126.455013 L184.39863,126.401028 C184.377896,126.038559 184.279415,125.757713 184.103182,125.558483 C183.92695,125.359254 183.688521,125.25964 183.38789,125.25964 Z M187.636885,128.417738 C187.893458,128.417738 188.117633,128.340618 188.309416,128.186375 C188.501198,128.032133 188.607454,127.839333 188.628187,127.607969 L189.308493,127.607969 C189.295535,127.847045 189.212603,128.074549 189.059696,128.290488 C188.906788,128.506428 188.702698,128.678663 188.44742,128.807198 C188.192143,128.935733 187.921967,129 187.636885,129 C187.064129,129 186.608653,128.810413 186.270442,128.431234 C185.932231,128.052055 185.763128,127.533422 185.763128,126.875321 L185.763128,126.755784 C185.763128,126.349612 185.838285,125.988433 185.988601,125.672237 C186.138917,125.35604 186.354669,125.110541 186.635863,124.935733 C186.917058,124.760925 187.249433,124.673522 187.632997,124.673522 C188.104678,124.673522 188.49666,124.813623 188.808954,125.09383 C189.121249,125.374037 189.28776,125.737787 189.308493,126.18509 L188.628187,126.18509 C188.607454,125.915166 188.504437,125.693446 188.319134,125.519923 C188.133831,125.3464 187.905121,125.25964 187.632997,125.25964 C187.267574,125.25964 186.98444,125.390102 186.783587,125.651028 C186.582734,125.911955 186.482309,126.289201 186.482309,126.782776 L186.482309,126.917738 C186.482309,127.39846 186.582086,127.768636 186.781643,128.028278 C186.981201,128.287919 187.266278,128.417738 187.636885,128.417738 Z M191.092838,123.74036 L191.092838,124.750643 L191.878105,124.750643 L191.878105,125.302057 L191.092838,125.302057 L191.092838,127.88946 C191.092838,128.056556 191.127825,128.181876 191.197799,128.265424 C191.267774,128.348972 191.386988,128.390746 191.555446,128.390746 C191.638379,128.390746 191.75241,128.375321 191.897542,128.344473 L191.897542,128.922879 C191.708352,128.974293 191.524347,129 191.345523,129 C191.024158,129 190.781842,128.9036 190.618568,128.710797 C190.455293,128.517994 190.373658,128.244218 190.373658,127.88946 L190.373658,125.302057 L189.607828,125.302057 L189.607828,124.750643 L190.373658,124.750643 L190.373658,123.74036 L191.092838,123.74036 Z M193.499176,128.922879 L192.779996,128.922879 L192.779996,124.750643 L193.499176,124.750643 L193.499176,128.922879 Z M192.721684,123.643959 C192.721684,123.528277 192.757319,123.430592 192.828589,123.3509 C192.89986,123.271208 193.005468,123.231362 193.145417,123.231362 C193.285367,123.231362 193.391623,123.271208 193.464189,123.3509 C193.536756,123.430592 193.573038,123.528277 193.573038,123.643959 C193.573038,123.759641 193.536756,123.856041 193.464189,123.933162 C193.391623,124.010283 193.285367,124.048843 193.145417,124.048843 C193.005468,124.048843 192.89986,124.010283 192.828589,123.933162 C192.757319,123.856041 192.721684,123.759641 192.721684,123.643959 Z M194.459379,126.798201 C194.459379,126.389458 194.540367,126.021853 194.702346,125.695373 C194.864324,125.368893 195.089795,125.116967 195.378764,124.939589 C195.667733,124.76221 195.997516,124.673522 196.368123,124.673522 C196.940878,124.673522 197.404129,124.870178 197.75789,125.263496 C198.111651,125.656814 198.288529,126.179945 198.288529,126.832905 L198.288529,126.883033 C198.288529,127.289205 198.210132,127.653597 198.053337,127.976221 C197.896542,128.298845 197.672368,128.550128 197.380806,128.730077 C197.089245,128.910027 196.754279,129 196.375898,129 C195.805734,129 195.343779,128.803344 194.990018,128.410026 C194.636257,128.016708 194.459379,127.496147 194.459379,126.848329 L194.459379,126.798201 Z M195.182447,126.883033 C195.182447,127.345761 195.290647,127.717222 195.50705,127.997429 C195.723453,128.277636 196.013066,128.417738 196.375898,128.417738 C196.741321,128.417738 197.031582,128.275708 197.246689,127.991645 C197.461796,127.707582 197.569348,127.309771 197.569348,126.798201 C197.569348,126.340615 197.459853,125.969796 197.240858,125.685733 C197.021863,125.40167 196.730954,125.25964 196.368123,125.25964 C196.013066,125.25964 195.726693,125.399742 195.508994,125.679949 C195.291295,125.960156 195.182447,126.36118 195.182447,126.883033 Z M199.870725,124.750643 L199.89405,125.275064 C200.215415,124.874034 200.635257,124.673522 201.153588,124.673522 C202.042525,124.673522 202.490874,125.170946 202.498649,126.16581 L202.498649,128.922879 L201.779469,128.922879 L201.779469,126.161954 C201.776877,125.861181 201.707552,125.638818 201.57149,125.494859 C201.435428,125.350899 201.223563,125.27892 200.93589,125.27892 C200.702641,125.27892 200.497903,125.340616 200.321671,125.46401 C200.145438,125.587404 200.008083,125.749356 199.9096,125.949871 L199.9096,128.922879 L199.19042,128.922879 L199.19042,124.750643 L199.870725,124.750643 Z M209.422218,123.917738 L207.602886,123.917738 L207.602886,128.922879 L206.860381,128.922879 L206.860381,123.917738 L205.044936,123.917738 L205.044936,123.308483 L209.422218,123.308483 L209.422218,123.917738 Z M210.930553,128.922879 L210.211372,128.922879 L210.211372,124.750643 L210.930553,124.750643 L210.930553,128.922879 Z M210.153061,123.643959 C210.153061,123.528277 210.188695,123.430592 210.259966,123.3509 C210.331236,123.271208 210.436845,123.231362 210.576794,123.231362 C210.716743,123.231362 210.822999,123.271208 210.895566,123.3509 C210.968132,123.430592 211.004415,123.528277 211.004415,123.643959 C211.004415,123.759641 210.968132,123.856041 210.895566,123.933162 C210.822999,124.010283 210.716743,124.048843 210.576794,124.048843 C210.436845,124.048843 210.331236,124.010283 210.259966,123.933162 C210.188695,123.856041 210.153061,123.759641 210.153061,123.643959 Z M213.056994,123.74036 L213.056994,124.750643 L213.842261,124.750643 L213.842261,125.302057 L213.056994,125.302057 L213.056994,127.88946 C213.056994,128.056556 213.091981,128.181876 213.161956,128.265424 C213.23193,128.348972 213.351145,128.390746 213.519602,128.390746 C213.602535,128.390746 213.716566,128.375321 213.861699,128.344473 L213.861699,128.922879 C213.672508,128.974293 213.488503,129 213.309679,129 C212.988314,129 212.745998,128.9036 212.582724,128.710797 C212.41945,128.517994 212.337814,128.244218 212.337814,127.88946 L212.337814,125.302057 L211.571984,125.302057 L211.571984,124.750643 L212.337814,124.750643 L212.337814,123.74036 L213.056994,123.74036 Z M215.463333,128.922879 L214.744152,128.922879 L214.744152,123 L215.463333,123 L215.463333,128.922879 Z M218.359491,129 C217.789327,129 217.325428,128.814269 216.96778,128.442802 C216.610132,128.071335 216.431311,127.574553 216.431311,126.952442 L216.431311,126.821337 C216.431311,126.407453 216.511003,126.037919 216.670389,125.712725 C216.829776,125.387531 217.052655,125.133034 217.339033,124.949229 C217.62541,124.765423 217.935756,124.673522 218.27008,124.673522 C218.816919,124.673522 219.241944,124.852183 219.545167,125.209512 C219.848391,125.56684 220,126.078403 220,126.744216 L220,127.041131 L217.150491,127.041131 C217.160857,127.452444 217.282015,127.784703 217.513969,128.037918 C217.745922,128.291132 218.040718,128.417738 218.398366,128.417738 C218.652348,128.417738 218.867452,128.366324 219.043685,128.263496 C219.219917,128.160668 219.374118,128.024422 219.506292,127.854756 L219.945576,128.194087 C219.593111,128.731365 219.064421,129 218.359491,129 Z M218.27008,125.25964 C217.979814,125.25964 217.736203,125.364395 217.539237,125.573907 C217.342271,125.78342 217.220465,126.077119 217.173816,126.455013 L219.28082,126.455013 L219.28082,126.401028 C219.260086,126.038559 219.161605,125.757713 218.985373,125.558483 C218.80914,125.359254 218.570712,125.25964 218.27008,125.25964 Z" id="Sub-Section-Title-Copy" fill="#424242"></path>
            <rect id="Rectangle-2-Copy-17" stroke="#D8D8D8" fill="#D8D8D8" x="15" y="177" width="125" height="4" rx="2"></rect>
            <rect id="Rectangle-2-Copy-20" stroke="#D8D8D8" fill="#D8D8D8" x="15" y="157" width="127" height="4" rx="2"></rect>
            <rect id="Rectangle-2-Copy-30" stroke="#D8D8D8" fill="#D8D8D8" x="15" y="75" width="181" height="4" rx="2"></rect>
            <rect id="Rectangle-2-Copy-34" stroke="#D8D8D8" fill="#D8D8D8" x="15" y="95" width="157" height="4" rx="2"></rect>
            <rect id="Rectangle-2-Copy-24" stroke="#D8D8D8" fill="#D8D8D8" x="161" y="157" width="127" height="4" rx="2"></rect>
            <rect id="Rectangle-2-Copy-28" stroke="#D8D8D8" fill="#D8D8D8" x="161" y="173" width="127" height="4" rx="2"></rect>
            <rect id="Rectangle-2-Copy-22" stroke="#D8D8D8" fill="#D8D8D8" x="15" y="141" width="127" height="4" rx="2"></rect>
            <rect id="Rectangle-2-Copy-31" stroke="#D8D8D8" fill="#D8D8D8" x="15" y="59" width="181" height="4" rx="2"></rect>
            <rect id="Rectangle-2-Copy-25" stroke="#D8D8D8" fill="#D8D8D8" x="161" y="142" width="127" height="4" rx="2"></rect>
            <rect id="Rectangle-2-Copy-19" stroke="#D8D8D8" fill="#D8D8D8" x="15" y="169" width="132" height="4" rx="2"></rect>
            <rect id="Rectangle-2-Copy-21" stroke="#D8D8D8" fill="#D8D8D8" x="15" y="150" width="132" height="4" rx="2"></rect>
            <rect id="Rectangle-2-Copy-32" stroke="#D8D8D8" fill="#D8D8D8" x="15" y="68" width="175" height="4" rx="2"></rect>
            <rect id="Rectangle-2-Copy-35" stroke="#D8D8D8" fill="#D8D8D8" x="15" y="88" width="175" height="4" rx="2"></rect>
            <rect id="Rectangle-2-Copy-26" stroke="#D8D8D8" fill="#D8D8D8" x="161" y="150" width="132" height="4" rx="2"></rect>
            <rect id="Rectangle-2-Copy-29" stroke="#D8D8D8" fill="#D8D8D8" x="161" y="165" width="129" height="4" rx="2"></rect>
            <rect id="Rectangle-2-Copy-23" stroke="#D8D8D8" fill="#D8D8D8" x="15" y="134" width="132" height="4" rx="2"></rect>
            <rect id="Rectangle-2-Copy-33" stroke="#D8D8D8" fill="#D8D8D8" x="15" y="52" width="175" height="4" rx="2"></rect>
            <rect id="Rectangle-2-Copy-27" stroke="#D8D8D8" fill="#D8D8D8" x="161" y="134" width="132" height="4" rx="2"></rect>
            <rect id="Rectangle-2-Copy-18" stroke="#D8D8D8" fill="#D8D8D8" x="15" y="184" width="112" height="4" rx="2"></rect>
        </g>
    </g>
</svg>