<?xml version="1.0" encoding="UTF-8" standalone="no"?>
<svg width="283px" height="181px" viewBox="0 0 283 181" version="1.1" xmlns="http://www.w3.org/2000/svg" xmlns:xlink="http://www.w3.org/1999/xlink">
    <!-- Generator: Sketch 47.1 (45422) - http://www.bohemiancoding.com/sketch -->
    <title>accessibility-space-2</title>
    <desc>Created with Sketch.</desc>
    <style type="text/css">@import url('https://fonts.googleapis.com/css?family=Roboto:300,400,500');</style>
    <defs></defs>
    <g id="Page-1" stroke="none" stroke-width="1" fill="none" fill-rule="evenodd">
        <g id="accessibility-space-2">
            <rect id="Rectangle-Copy" fill="#C9C8C8" x="192" y="34" width="88" height="64"></rect>
            <path d="M2.42565389,10.4726166 L2.42565389,15.4624746 L2,15.4624746 L2,3.64908722 L5.58652813,3.64908722 C6.75839592,3.64908722 7.66881319,3.95334381 8.31780724,4.56186613 C8.96680129,5.17038844 9.29129344,6.01554564 9.29129344,7.09736308 C9.29129344,8.16836235 8.97468369,8.99594028 8.34145468,9.5801217 C7.70822566,10.1643031 6.80831827,10.4617985 5.64170548,10.4726166 L2.42565389,10.4726166 Z M2.42565389,10.0344828 L5.58652813,10.0344828 C6.6217656,10.0344828 7.42708419,9.77755497 8.00250806,9.26369168 C8.57793193,8.7498284 8.86563956,8.03313509 8.86563956,7.11359026 C8.86563956,6.16159091 8.57793193,5.41920483 8.00250806,4.88640974 C7.42708419,4.35361465 6.6217656,4.0872211 5.58652813,4.0872211 L2.42565389,4.0872211 L2.42565389,10.0344828 Z M16.8978861,15.4624746 C16.7927858,15.0892476 16.7402365,14.553756 16.7402365,13.8559838 C16.4039157,14.4185288 15.944109,14.8539538 15.3608026,15.1622718 C14.7774962,15.4705898 14.118002,15.6247465 13.3823003,15.6247465 C12.5940484,15.6247465 11.9595151,15.4043295 11.4786815,14.9634888 C10.9978478,14.5226482 10.7574346,13.9479413 10.7574346,13.2393509 C10.7574346,12.4333969 11.1108289,11.7883729 11.8176281,11.3042596 C12.5244273,10.8201463 13.4637467,10.5726843 14.6356145,10.5618661 L16.7402365,10.5618661 L16.7402365,9.27991886 C16.7402365,8.544283 16.5155881,7.97363286 16.0662845,7.56795132 C15.6169809,7.16226978 14.9745653,6.95943205 14.1390183,6.95943205 C13.3612764,6.95943205 12.7122921,7.16497428 12.1920459,7.57606491 C11.6717996,7.98715554 11.4116804,8.49560211 11.4116804,9.10141988 L10.9860265,9.0851927 C10.9860265,8.37119318 11.2908127,7.7653845 11.9003941,7.26774848 C12.5099756,6.77011245 13.2561762,6.52129817 14.1390183,6.52129817 C15.0586455,6.52129817 15.7890813,6.75794219 16.3303475,7.23123732 C16.8716138,7.70453245 17.1501253,8.37119245 17.1658904,9.23123732 L17.1658904,13.4259635 C17.1658904,14.388781 17.2394594,15.0432708 17.3865998,15.3894523 L17.3865998,15.4624746 L16.8978861,15.4624746 Z M13.3823003,15.1947262 C14.1810622,15.1947262 14.8681447,15.01082 15.4435686,14.643002 C16.0189925,14.2751841 16.4512108,13.758624 16.7402365,13.0933063 L16.7402365,11.0081136 L14.7696166,11.0081136 C13.5504537,11.0081136 12.617703,11.2569279 11.9713364,11.7545639 C11.4458352,12.1602454 11.1830885,12.6659875 11.1830885,13.2718053 C11.1830885,13.8073049 11.3906584,14.2616614 11.8058044,14.6348884 C12.2209504,15.0081155 12.7464437,15.1947262 13.3823003,15.1947262 Z M19.5069867,10.9837728 C19.5069867,9.58281923 19.7933806,8.48884775 20.366177,7.70182556 C20.9389734,6.91480337 21.724586,6.52129817 22.7230383,6.52129817 C23.3588949,6.52129817 23.9238002,6.67139809 24.4177714,6.97160243 C24.9117426,7.27180677 25.3084901,7.71128852 25.6080258,8.29006085 L25.6080258,6.68356998 L26.0415622,6.68356998 L26.0415622,15.3083164 C26.0415622,16.4658611 25.7525408,17.3705174 25.1744894,18.0223124 C24.5964381,18.6741074 23.8108255,19 22.8176281,19 C22.2448317,19 21.7206521,18.8728884 21.2450735,18.6186613 C20.7694948,18.3644342 20.3635512,17.9993262 20.0272304,17.5233266 L20.3267646,17.2312373 C20.6578304,17.6639643 21.0204208,17.9952659 21.4145468,18.2251521 C21.8086727,18.4550383 22.2711069,18.5699797 22.8018631,18.5699797 C23.6794502,18.5699797 24.3625916,18.2954727 24.8513078,17.7464503 C25.3400239,17.197428 25.5922608,16.4225878 25.6080258,15.4219067 L25.6080258,14.0750507 C25.3137451,14.5726867 24.9156839,14.9553739 24.4138302,15.2231237 C23.9119765,15.4908735 23.3431299,15.6247465 22.7072734,15.6247465 C21.719331,15.6247465 20.9389734,15.2217755 20.366177,14.4158215 C19.7933806,13.6098675 19.5069867,12.5037258 19.5069867,11.0973631 L19.5069867,10.9837728 Z M19.9405231,11.1541582 C19.9405231,12.4090665 20.1822501,13.3948578 20.6657112,14.1115619 C21.1491724,14.8282659 21.8270588,15.1866126 22.6993909,15.1866126 C23.4193276,15.1866126 24.0315274,15.0148766 24.5360086,14.6713996 C25.0404898,14.3279226 25.3978253,13.8451688 25.6080258,13.2231237 L25.6080258,9.23935091 C25.1455847,7.7193974 24.1813044,6.95943205 22.7151559,6.95943205 C21.8375688,6.95943205 21.1557411,7.31372195 20.6696525,8.02231237 C20.1835638,8.7309028 19.9405231,9.77484097 19.9405231,11.1541582 Z M31.827302,15.6247465 C31.1388954,15.6247465 30.5069896,15.434079 29.9315657,15.0527383 C29.3561419,14.6713977 28.9055313,14.1480763 28.5797205,13.4827586 C28.2539098,12.8174409 28.0910068,12.0791116 28.0910068,11.2677485 L28.0910068,10.9026369 C28.0910068,10.0912738 28.2486548,9.3475355 28.5639556,8.67139959 C28.8792563,7.99526369 29.3127884,7.4678856 29.8645647,7.08924949 C30.416341,6.71061339 31.0180309,6.52129817 31.6696525,6.52129817 C32.6208097,6.52129817 33.3985399,6.87017907 34.0028664,7.56795132 C34.6071928,8.26572357 34.9093515,9.1825501 34.9093515,10.3184584 L34.9093515,10.7809331 L28.5166607,10.7809331 L28.5166607,11.2596349 C28.5166607,11.9736344 28.6624851,12.6348854 28.9541383,13.2434077 C29.2457915,13.85193 29.6477939,14.3292748 30.1601576,14.6754564 C30.6725214,15.021638 31.2282306,15.1947262 31.827302,15.1947262 C32.4000984,15.1947262 32.8874935,15.0960118 33.289502,14.8985801 C33.6915104,14.7011484 34.0475322,14.3968918 34.3575779,13.9858012 L34.6571121,14.2048682 C34.0212556,15.1514584 33.077995,15.6247465 31.827302,15.6247465 Z M31.6696525,6.95943205 C30.8393605,6.95943205 30.1351994,7.27721116 29.557148,7.9127789 C28.9790966,8.54834665 28.6401534,9.35834531 28.5403081,10.3427992 L34.4836976,10.3427992 L34.4836976,10.2373225 C34.4836976,9.64232292 34.3615204,9.08925205 34.1171623,8.57809331 C33.8728042,8.06693456 33.5364885,7.66937262 33.1082049,7.38539554 C32.6799214,7.10141846 32.2004087,6.95943205 31.6696525,6.95943205 Z M48.301684,4.0872211 L44.1239699,4.0872211 L44.1239699,15.4624746 L43.698316,15.4624746 L43.698316,4.0872211 L39.5206019,4.0872211 L39.5206019,3.64908722 L48.301684,3.64908722 L48.301684,4.0872211 Z M50.6191329,15.4624746 L50.193479,15.4624746 L50.193479,6.68356998 L50.6191329,6.68356998 L50.6191329,15.4624746 Z M49.9727696,3.94117647 C49.9727696,3.81676746 50.0148091,3.70993959 50.0988893,3.62068966 C50.1829695,3.53143972 50.2854407,3.48681542 50.406306,3.48681542 C50.5271713,3.48681542 50.6309562,3.53143972 50.7176639,3.62068966 C50.8043716,3.70993959 50.8477248,3.81676746 50.8477248,3.94117647 C50.8477248,4.06558548 50.8043716,4.1710611 50.7176639,4.25760649 C50.6309562,4.34415189 50.5271713,4.38742394 50.406306,4.38742394 C50.2854407,4.38742394 50.1829695,4.34415189 50.0988893,4.25760649 C50.0148091,4.1710611 49.9727696,4.06558548 49.9727696,3.94117647 Z M54.3711931,4.31440162 L54.3711931,6.68356998 L56.3102831,6.68356998 L56.3102831,7.12981744 L54.3711931,7.12981744 L54.3711931,13.3610548 C54.3711931,13.9830998 54.4697231,14.4428653 54.6667861,14.7403651 C54.8638491,15.0378649 55.1935962,15.1866126 55.6560373,15.1866126 C55.8872578,15.1866126 56.1683968,15.162272 56.4994626,15.1135903 L56.5704049,15.5273834 C56.3969895,15.5922924 56.1000857,15.6247465 55.6796847,15.6247465 C55.0595932,15.6247465 54.6155513,15.4476015 54.3475457,15.0933063 C54.07954,14.7390111 53.9429118,14.1805312 53.9376568,13.4178499 L53.9376568,7.12981744 L52.3611609,7.12981744 L52.3611609,6.68356998 L53.9376568,6.68356998 L53.9376568,4.31440162 L54.3711931,4.31440162 Z M59.0533859,15.4624746 L58.627732,15.4624746 L58.627732,3 L59.0533859,3 L59.0533859,15.4624746 Z M64.9179506,15.6247465 C64.2295439,15.6247465 63.5976381,15.434079 63.0222143,15.0527383 C62.4467904,14.6713977 61.9961798,14.1480763 61.670369,13.4827586 C61.3445583,12.8174409 61.1816553,12.0791116 61.1816553,11.2677485 L61.1816553,10.9026369 C61.1816553,10.0912738 61.3393033,9.3475355 61.6546041,8.67139959 C61.9699048,7.99526369 62.4034369,7.4678856 62.9552132,7.08924949 C63.5069895,6.71061339 64.1086794,6.52129817 64.760301,6.52129817 C65.7114582,6.52129817 66.4891884,6.87017907 67.0935149,7.56795132 C67.6978413,8.26572357 68,9.1825501 68,10.3184584 L68,10.7809331 L61.6073092,10.7809331 L61.6073092,11.2596349 C61.6073092,11.9736344 61.7531336,12.6348854 62.0447868,13.2434077 C62.33644,13.85193 62.7384424,14.3292748 63.2508062,14.6754564 C63.7631699,15.021638 64.3188791,15.1947262 64.9179506,15.1947262 C65.4907469,15.1947262 65.978142,15.0960118 66.3801505,14.8985801 C66.7821589,14.7011484 67.1381807,14.3968918 67.4482264,13.9858012 L67.7477607,14.2048682 C67.1119041,15.1514584 66.1686435,15.6247465 64.9179506,15.6247465 Z M64.760301,6.95943205 C63.930009,6.95943205 63.2258479,7.27721116 62.6477965,7.9127789 C62.0697451,8.54834665 61.7308019,9.35834531 61.6309566,10.3427992 L67.5743461,10.3427992 L67.5743461,10.2373225 C67.5743461,9.64232292 67.4521689,9.08925205 67.2078108,8.57809331 C66.9634527,8.06693456 66.627137,7.66937262 66.1988535,7.38539554 C65.7705699,7.10141846 65.2910572,6.95943205 64.760301,6.95943205 Z" id="Page-Title" fill="#424242"></path>
            <path d="M5.81040037,34.5424165 C5.81040037,34.2313609 5.69305225,33.9852194 5.45835251,33.8039846 C5.22365276,33.6227497 4.79429672,33.450515 4.17027151,33.2872751 C3.5462463,33.1240352 3.09065951,32.9460164 2.80349747,32.7532134 C2.39484379,32.4807184 2.19052002,32.1233955 2.19052002,31.6812339 C2.19052002,31.2519259 2.38034785,30.9029576 2.7600092,30.6343188 C3.13967056,30.3656799 3.62493952,30.2313625 4.21583065,30.2313625 C4.61620081,30.2313625 4.97445769,30.3033412 5.29061206,30.4473008 C5.60676642,30.5912604 5.85181689,30.7917725 6.02577082,31.0488432 C6.19972475,31.3059139 6.28670041,31.5925434 6.28670041,31.9087404 L5.77312471,31.9087404 C5.77312471,31.525705 5.63230698,31.2178675 5.35066728,30.9852185 C5.06902758,30.7525695 4.69075249,30.6362468 4.21583065,30.6362468 C3.75471468,30.6362468 3.38748411,30.7320042 3.11412793,30.9235219 C2.84077176,31.1150395 2.70409572,31.365037 2.70409572,31.6735219 C2.70409572,31.9588703 2.8269661,32.1915158 3.07271054,32.3714653 C3.31845498,32.5514148 3.7119163,32.7101536 4.2531063,32.8476864 C4.79429631,32.9852192 5.20432442,33.1278913 5.48320295,33.2757069 C5.76208147,33.4235226 5.97192751,33.600256 6.11274735,33.8059126 C6.2535672,34.0115692 6.32397607,34.2544973 6.32397607,34.5347044 C6.32397607,34.976866 6.13414824,35.3316182 5.75448688,35.5989717 C5.37482553,35.8663252 4.87437034,36 4.2531063,36 C3.82788559,36 3.43787568,35.9293066 3.08306489,35.7879177 C2.72825409,35.6465289 2.45904372,35.4485874 2.27542568,35.1940874 C2.09180764,34.9395874 2,34.6478166 2,34.3187661 L2.50943396,34.3187661 C2.50943396,34.7146549 2.66819906,35.0269911 2.98573401,35.2557841 C3.30326896,35.484577 3.72572217,35.5989717 4.2531063,35.5989717 C4.7225058,35.5989717 5.09940033,35.5025717 5.3838012,35.3097686 C5.66820207,35.1169656 5.81040037,34.8611841 5.81040037,34.5424165 Z M9.0409572,36 C8.65991526,36 8.31546403,35.9125973 8.00759319,35.7377892 C7.69972234,35.5629811 7.46019414,35.3194103 7.28900138,35.0070694 C7.11780862,34.6947285 7.03221353,34.3444749 7.03221353,33.9562982 L7.03221353,33.7904884 C7.03221353,33.3894581 7.11573777,33.0282792 7.28278877,32.7069409 C7.44983977,32.3856025 7.68246514,32.1330343 7.98067188,31.9492288 C8.27887862,31.7654232 8.60193107,31.6735219 8.94983893,31.6735219 C9.49379011,31.6735219 9.925217,31.8463993 10.2441325,32.1921594 C10.5630481,32.5379195 10.7225035,33.0102798 10.7225035,33.6092545 L10.7225035,33.8676093 L7.52508053,33.8676093 L7.52508053,33.9562982 C7.52508053,34.4293083 7.67073025,34.8232632 7.96203405,35.1381748 C8.25333786,35.4530864 8.61987814,35.6105398 9.0616659,35.6105398 C9.32673855,35.6105398 9.5607445,35.5655531 9.76369075,35.4755784 C9.966637,35.3856037 10.1509426,35.2416462 10.316613,35.0437018 L10.6272434,35.2634961 C10.2627685,35.7545012 9.73401175,36 9.0409572,36 Z M8.94983893,32.066838 C8.57708051,32.066838 8.26300174,32.1940861 8.00759319,32.4485861 C7.75218464,32.7030861 7.59687096,33.044985 7.54164749,33.4742931 L10.2296364,33.4742931 L10.2296364,33.4241645 C10.2158306,33.0231342 10.0929602,32.6966594 9.86102163,32.4447301 C9.62908306,32.1928008 9.32535853,32.066838 8.94983893,32.066838 Z M13.3442246,35.6105398 C13.6893713,35.6105398 13.9785998,35.5199238 14.211919,35.3386889 C14.4452382,35.1574541 14.57156,34.9228806 14.5908882,34.6349614 L15.0671882,34.6349614 C15.0533824,34.8894614 14.9677873,35.1214642 14.8104004,35.3309769 C14.6530135,35.5404895 14.4438577,35.7043696 14.1829268,35.8226221 C13.9219959,35.9408746 13.6424313,36 13.3442246,36 C12.7560946,36 12.2901536,35.8097705 11.9463875,35.4293059 C11.6026214,35.0488413 11.4307409,34.5372783 11.4307409,33.8946015 L11.4307409,33.7557841 C11.4307409,33.344471 11.5080526,32.9807214 11.6626783,32.6645244 C11.817304,32.3483275 12.0388849,32.104114 12.3274275,31.9318766 C12.6159701,31.7596392 12.9535185,31.6735219 13.3400828,31.6735219 C13.8315717,31.6735219 14.2367678,31.8097673 14.5556834,32.0822622 C14.8745989,32.3547571 15.0450988,32.7133654 15.0671882,33.1580977 L14.5908882,33.1580977 C14.5687988,32.8316179 14.442477,32.5681244 14.211919,32.3676093 C13.981361,32.1670941 13.6907519,32.066838 13.3400828,32.066838 C12.8927727,32.066838 12.5455604,32.2172221 12.2984353,32.5179949 C12.0513103,32.8187676 11.9277497,33.2403572 11.9277497,33.7827763 L11.9277497,33.9177378 C11.9277497,34.4498741 12.0513103,34.8650371 12.2984353,35.1632391 C12.5455604,35.4614411 12.8941533,35.6105398 13.3442246,35.6105398 Z M16.8274275,30.6825193 L16.8274275,31.7506427 L17.7551772,31.7506427 L17.7551772,32.1285347 L16.8274275,32.1285347 L16.8274275,34.9087404 C16.8274275,35.140104 16.8722959,35.3123388 16.9620341,35.4254499 C17.0517722,35.538561 17.2015636,35.5951157 17.4114128,35.5951157 C17.494248,35.5951157 17.6281629,35.5822623 17.8131615,35.5565553 L17.8338702,35.9344473 C17.7040951,35.9781493 17.5273826,36 17.3037276,36 C16.9641032,36 16.7169819,35.9080986 16.5623562,35.7242931 C16.4077305,35.5404875 16.3304188,35.2699247 16.3304188,34.9125964 L16.3304188,32.1285347 L15.5062126,32.1285347 L15.5062126,31.7506427 L16.3304188,31.7506427 L16.3304188,30.6825193 L16.8274275,30.6825193 Z M19.3373217,35.9228792 L18.8403129,35.9228792 L18.8403129,31.7506427 L19.3373217,31.7506427 L19.3373217,35.9228792 Z M18.7533364,30.5437018 C18.7533364,30.4562978 18.7837089,30.382391 18.8444547,30.3219794 C18.9052005,30.2615678 18.9880345,30.2313625 19.092959,30.2313625 C19.1978836,30.2313625 19.2814079,30.2615678 19.3435343,30.3219794 C19.4056607,30.382391 19.4367234,30.4562978 19.4367234,30.5437018 C19.4367234,30.6311058 19.4056607,30.7043699 19.3435343,30.7634961 C19.2814079,30.8226224 19.1978836,30.8521851 19.092959,30.8521851 C18.9880345,30.8521851 18.9052005,30.8226224 18.8444547,30.7634961 C18.7837089,30.7043699 18.7533364,30.6311058 18.7533364,30.5437018 Z M20.4100322,33.7750643 C20.4100322,33.374034 20.4935565,33.0128551 20.6606075,32.6915167 C20.8276585,32.3701783 21.0637352,32.1201808 21.3688449,31.9415167 C21.6739546,31.7628526 22.0197864,31.6735219 22.4063507,31.6735219 C23.0027641,31.6735219 23.4859623,31.86825 23.8559595,32.2577121 C24.2259568,32.6471742 24.4109526,33.1632359 24.4109526,33.8059126 L24.4109526,33.9023136 C24.4109526,34.3059146 24.3274284,34.6690215 24.1603774,34.9916452 C23.9933264,35.314269 23.7579399,35.5629811 23.4542108,35.7377892 C23.1504817,35.9125973 22.8039596,36 22.4146341,36 C21.8209818,36 21.338474,35.8052719 20.9670962,35.4158098 C20.5957183,35.0263477 20.4100322,34.510286 20.4100322,33.8676093 L20.4100322,33.7750643 Z M20.907041,33.9023136 C20.907041,34.4010308 21.0457878,34.8104097 21.3232858,35.1304627 C21.6007837,35.4505157 21.9645629,35.6105398 22.4146341,35.6105398 C22.8619443,35.6105398 23.2243428,35.4505157 23.5018408,35.1304627 C23.7793387,34.8104097 23.9180856,34.3881774 23.9180856,33.8637532 L23.9180856,33.7750643 C23.9180856,33.4562966 23.8545796,33.1645257 23.7275656,32.8997429 C23.6005516,32.6349601 23.4224586,32.4299493 23.1932812,32.2847044 C22.9641038,32.1394594 22.7017962,32.066838 22.4063507,32.066838 C21.9645629,32.066838 21.6042352,32.2281475 21.3253566,32.5507712 C21.0464781,32.8733949 20.907041,33.2956272 20.907041,33.8174807 L20.907041,33.9023136 Z M25.9061206,31.7506427 L25.9226875,32.4640103 C26.0911191,32.2069396 26.3009651,32.0109261 26.5522319,31.875964 C26.8034987,31.7410019 27.0809925,31.6735219 27.3847216,31.6735219 C27.8651658,31.6735219 28.2227324,31.7994846 28.4574321,32.0514139 C28.6921319,32.3033432 28.8108605,32.6812314 28.8136217,33.18509 L28.8136217,35.9228792 L28.3207547,35.9228792 L28.3207547,33.1812339 C28.3179935,32.8084814 28.2330887,32.5308492 28.0660377,32.348329 C27.8989867,32.1658089 27.6318472,32.0745501 27.2646111,32.0745501 C26.9581209,32.0745501 26.6868397,32.1638809 26.4507593,32.342545 C26.214679,32.5212091 26.0400374,32.7622093 25.9268293,33.0655527 L25.9268293,35.9228792 L25.4339623,35.9228792 L25.4339623,31.7506427 L25.9061206,31.7506427 Z M36.1983433,30.7133676 L34.1316153,30.7133676 L34.1316153,35.9228792 L33.6221813,35.9228792 L33.6221813,30.7133676 L31.559595,30.7133676 L31.559595,30.3084833 L36.1983433,30.3084833 L36.1983433,30.7133676 Z M37.6106765,35.9228792 L37.1136677,35.9228792 L37.1136677,31.7506427 L37.6106765,31.7506427 L37.6106765,35.9228792 Z M37.0266912,30.5437018 C37.0266912,30.4562978 37.0570637,30.382391 37.1178095,30.3219794 C37.1785553,30.2615678 37.2613893,30.2313625 37.3663139,30.2313625 C37.4712384,30.2313625 37.5547627,30.2615678 37.6168891,30.3219794 C37.6790155,30.382391 37.7100782,30.4562978 37.7100782,30.5437018 C37.7100782,30.6311058 37.6790155,30.7043699 37.6168891,30.7634961 C37.5547627,30.8226224 37.4712384,30.8521851 37.3663139,30.8521851 C37.2613893,30.8521851 37.1785553,30.8226224 37.1178095,30.7634961 C37.0570637,30.7043699 37.0266912,30.6311058 37.0266912,30.5437018 Z M39.7271054,30.6825193 L39.7271054,31.7506427 L40.654855,31.7506427 L40.654855,32.1285347 L39.7271054,32.1285347 L39.7271054,34.9087404 C39.7271054,35.140104 39.7719738,35.3123388 39.8617119,35.4254499 C39.9514501,35.538561 40.1012415,35.5951157 40.3110907,35.5951157 C40.3939259,35.5951157 40.5278408,35.5822623 40.7128394,35.5565553 L40.7335481,35.9344473 C40.6037729,35.9781493 40.4270605,36 40.2034054,36 C39.8637811,36 39.6166598,35.9080986 39.4620341,35.7242931 C39.3074083,35.5404875 39.2300966,35.2699247 39.2300966,34.9125964 L39.2300966,32.1285347 L38.4058905,32.1285347 L38.4058905,31.7506427 L39.2300966,31.7506427 L39.2300966,30.6825193 L39.7271054,30.6825193 Z M42.2369995,35.9228792 L41.7399908,35.9228792 L41.7399908,30 L42.2369995,30 L42.2369995,35.9228792 Z M45.3184538,36 C44.9374118,36 44.5929606,35.9125973 44.2850897,35.7377892 C43.9772189,35.5629811 43.7376907,35.3194103 43.5664979,35.0070694 C43.3953052,34.6947285 43.3097101,34.3444749 43.3097101,33.9562982 L43.3097101,33.7904884 C43.3097101,33.3894581 43.3932343,33.0282792 43.5602853,32.7069409 C43.7273363,32.3856025 43.9599617,32.1330343 44.2581684,31.9492288 C44.5563752,31.7654232 44.8794276,31.6735219 45.2273355,31.6735219 C45.7712867,31.6735219 46.2027135,31.8463993 46.5216291,32.1921594 C46.8405446,32.5379195 47,33.0102798 47,33.6092545 L47,33.8676093 L43.8025771,33.8676093 L43.8025771,33.9562982 C43.8025771,34.4293083 43.9482268,34.8232632 44.2395306,35.1381748 C44.5308344,35.4530864 44.8973747,35.6105398 45.3391624,35.6105398 C45.6042351,35.6105398 45.838241,35.5655531 46.0411873,35.4755784 C46.2441336,35.3856037 46.4284391,35.2416462 46.5941095,35.0437018 L46.90474,35.2634961 C46.5402651,35.7545012 46.0115083,36 45.3184538,36 Z M45.2273355,32.066838 C44.8545771,32.066838 44.5404983,32.1940861 44.2850897,32.4485861 C44.0296812,32.7030861 43.8743675,33.044985 43.819144,33.4742931 L46.507133,33.4742931 L46.507133,33.4241645 C46.4933271,33.0231342 46.3704568,32.6966594 46.1385182,32.4447301 C45.9065796,32.1928008 45.6028551,32.066838 45.2273355,32.066838 Z" id="Section-Title" fill="#424242"></path>
            <path d="M4.01370495,115.420308 C3.37356646,115.237788 2.90772367,115.013497 2.61616261,114.747429 C2.32460156,114.481361 2.17882322,114.152958 2.17882322,113.762211 C2.17882322,113.320049 2.35699675,112.954372 2.71334915,112.665167 C3.06970155,112.375963 3.53295272,112.231362 4.10311656,112.231362 C4.49186463,112.231362 4.83849313,112.305912 5.14301245,112.455013 C5.44753178,112.604114 5.68336874,112.809767 5.85053041,113.071979 C6.01769208,113.334192 6.10127166,113.620821 6.10127166,113.931877 L5.35099163,113.931877 C5.35099163,113.592543 5.2421438,113.325836 5.02444488,113.131748 C4.80674596,112.93766 4.49963959,112.840617 4.10311656,112.840617 C3.73510172,112.840617 3.44808036,112.92095 3.24204388,113.08162 C3.0360074,113.242289 2.93299071,113.465294 2.93299071,113.750643 C2.93299071,113.979436 3.03082417,114.172878 3.22649404,114.330977 C3.4221639,114.489075 3.75518642,114.633675 4.22557159,114.764781 C4.69595676,114.895888 5.06396608,115.040488 5.32961059,115.198586 C5.59525511,115.356685 5.79221785,115.54113 5.92050471,115.751928 C6.04879158,115.962726 6.11293404,116.210795 6.11293404,116.496144 C6.11293404,116.951159 5.93411261,117.315551 5.57646439,117.589332 C5.21881616,117.863112 4.7406632,118 4.14199117,118 C3.7532431,118 3.39041701,117.926093 3.05350201,117.778278 C2.71658701,117.630462 2.45677762,117.428022 2.27406602,117.170951 C2.09135443,116.91388 2,116.62211 2,116.29563 L2.75028003,116.29563 C2.75028003,116.634963 2.87662126,116.902955 3.1293075,117.099614 C3.38199375,117.296273 3.7195516,117.394602 4.14199117,117.394602 C4.53592255,117.394602 4.83784569,117.314911 5.04776965,117.155527 C5.25769361,116.996143 5.36265402,116.778922 5.36265402,116.503856 C5.36265402,116.22879 5.26546846,116.016068 5.07109442,115.865681 C4.87672038,115.715295 4.52426075,115.566839 4.01370495,115.420308 Z M9.55333729,117.510283 C9.27343867,117.836763 8.86266771,118 8.32101206,118 C7.87265595,118 7.53121068,117.870824 7.29666601,117.612468 C7.06212134,117.354112 6.94355495,116.971725 6.9409633,116.465296 L6.9409633,113.750643 L7.66014364,113.750643 L7.66014364,116.446015 C7.66014364,117.078409 7.91930513,117.394602 8.4376359,117.394602 C8.98706651,117.394602 9.35248421,117.191519 9.53389998,116.785347 L9.53389998,113.750643 L10.2530803,113.750643 L10.2530803,117.922879 L9.56888713,117.922879 L9.55333729,117.510283 Z M14.9063715,115.883033 C14.9063715,116.520569 14.7586494,117.032774 14.4632009,117.419666 C14.1677524,117.806557 13.7712353,118 13.2736377,118 C12.7423487,118 12.3315777,117.813627 12.0413125,117.440874 L12.0063254,117.922879 L11.3454569,117.922879 L11.3454569,112 L12.0646373,112 L12.0646373,114.209512 C12.3549025,113.852183 12.755307,113.673522 13.2658628,113.673522 C13.7764186,113.673522 14.177471,113.865037 14.4690321,114.248072 C14.7605931,114.631107 14.9063715,115.155524 14.9063715,115.821337 L14.9063715,115.883033 Z M14.1871911,115.802057 C14.1871911,115.316193 14.0925972,114.940875 13.9034065,114.676093 C13.7142157,114.41131 13.4420962,114.27892 13.0870396,114.27892 C12.612767,114.27892 12.2719696,114.497427 12.0646373,114.934447 L12.0646373,116.739075 C12.2849279,117.176095 12.6283168,117.394602 13.0948145,117.394602 C13.4395045,117.394602 13.7077366,117.262212 13.899519,116.997429 C14.0913014,116.732646 14.1871911,116.334193 14.1871911,115.802057 Z M17.3088226,115.829049 L15.4117415,115.829049 L15.4117415,115.246787 L17.3088226,115.246787 L17.3088226,115.829049 Z M19.7890229,115.420308 C19.1488844,115.237788 18.6830416,115.013497 18.3914805,114.747429 C18.0999195,114.481361 17.9541411,114.152958 17.9541411,113.762211 C17.9541411,113.320049 18.1323147,112.954372 18.4886671,112.665167 C18.8450195,112.375963 19.3082706,112.231362 19.8784345,112.231362 C20.2671825,112.231362 20.613811,112.305912 20.9183304,112.455013 C21.2228497,112.604114 21.4586867,112.809767 21.6258483,113.071979 C21.79301,113.334192 21.8765896,113.620821 21.8765896,113.931877 L21.1263095,113.931877 C21.1263095,113.592543 21.0174617,113.325836 20.7997628,113.131748 C20.5820639,112.93766 20.2749575,112.840617 19.8784345,112.840617 C19.5104196,112.840617 19.2233983,112.92095 19.0173618,113.08162 C18.8113253,113.242289 18.7083086,113.465294 18.7083086,113.750643 C18.7083086,113.979436 18.8061421,114.172878 19.001812,114.330977 C19.1974818,114.489075 19.5305043,114.633675 20.0008895,114.764781 C20.4712747,114.895888 20.839284,115.040488 21.1049285,115.198586 C21.370573,115.356685 21.5675358,115.54113 21.6958226,115.751928 C21.8241095,115.962726 21.888252,116.210795 21.888252,116.496144 C21.888252,116.951159 21.7094305,117.315551 21.3517823,117.589332 C20.9941341,117.863112 20.5159811,118 19.9173091,118 C19.528561,118 19.1657349,117.926093 18.8288199,117.778278 C18.4919049,117.630462 18.2320955,117.428022 18.0493839,117.170951 C17.8666723,116.91388 17.7753179,116.62211 17.7753179,116.29563 L18.5255979,116.29563 C18.5255979,116.634963 18.6519392,116.902955 18.9046254,117.099614 C19.1573117,117.296273 19.4948695,117.394602 19.9173091,117.394602 C20.3112405,117.394602 20.6131636,117.314911 20.8230876,117.155527 C21.0330115,116.996143 21.1379719,116.778922 21.1379719,116.503856 C21.1379719,116.22879 21.0407864,116.016068 20.8464123,115.865681 C20.6520383,115.715295 20.2995787,115.566839 19.7890229,115.420308 Z M24.4773012,118 C23.9071373,118 23.4432383,117.814269 23.08559,117.442802 C22.7279418,117.071335 22.5491204,116.574553 22.5491204,115.952442 L22.5491204,115.821337 C22.5491204,115.407453 22.6288125,115.037919 22.7881992,114.712725 C22.947586,114.387531 23.1704648,114.133034 23.4568426,113.949229 C23.7432203,113.765423 24.0535662,113.673522 24.3878896,113.673522 C24.9347285,113.673522 25.3597534,113.852183 25.6629769,114.209512 C25.9662004,114.56684 26.1178098,115.078403 26.1178098,115.744216 L26.1178098,116.041131 L23.2683007,116.041131 C23.2786673,116.452444 23.3998253,116.784703 23.6317783,117.037918 C23.8637314,117.291132 24.1585276,117.417738 24.5161758,117.417738 C24.7701579,117.417738 24.9852619,117.366324 25.1614944,117.263496 C25.3377268,117.160668 25.4919279,117.024422 25.6241023,116.854756 L26.0633854,117.194087 C25.7109205,117.731365 25.182231,118 24.4773012,118 Z M24.3878896,114.25964 C24.0976243,114.25964 23.8540125,114.364395 23.6570468,114.573907 C23.4600812,114.78342 23.3382753,115.077119 23.2916255,115.455013 L25.3986295,115.455013 L25.3986295,115.401028 C25.3778963,115.038559 25.2794149,114.757713 25.1031824,114.558483 C24.92695,114.359254 24.6885214,114.25964 24.3878896,114.25964 Z M28.6368848,117.417738 C28.8934585,117.417738 29.1176332,117.340618 29.3094156,117.186375 C29.5011979,117.032133 29.6074542,116.839333 29.6281874,116.607969 L30.3084931,116.607969 C30.2955348,116.847045 30.2126032,117.074549 30.0596956,117.290488 C29.906788,117.506428 29.7026983,117.678663 29.4474204,117.807198 C29.1921425,117.935733 28.9219667,118 28.6368848,118 C28.0641293,118 27.6086529,117.810413 27.2704421,117.431234 C26.9322313,117.052055 26.7631284,116.533422 26.7631284,115.875321 L26.7631284,115.755784 C26.7631284,115.349612 26.8382853,114.988433 26.9886012,114.672237 C27.1389171,114.35604 27.354669,114.110541 27.6358635,113.935733 C27.9170579,113.760925 28.2494325,113.673522 28.6329973,113.673522 C29.1046783,113.673522 29.4966601,113.813623 29.8089543,114.09383 C30.1212486,114.374037 30.2877599,114.737787 30.3084931,115.18509 L29.6281874,115.18509 C29.6074542,114.915166 29.5044375,114.693446 29.3191342,114.519923 C29.133831,114.3464 28.9051209,114.25964 28.6329973,114.25964 C28.2675741,114.25964 27.9844402,114.390102 27.783587,114.651028 C27.5827338,114.911955 27.4823088,115.289201 27.4823088,115.782776 L27.4823088,115.917738 C27.4823088,116.39846 27.5820859,116.768636 27.7816433,117.028278 C27.9812006,117.287919 28.2662783,117.417738 28.6368848,117.417738 Z M32.0928378,112.74036 L32.0928378,113.750643 L32.878105,113.750643 L32.878105,114.302057 L32.0928378,114.302057 L32.0928378,116.88946 C32.0928378,117.056556 32.1278246,117.181876 32.1977993,117.265424 C32.267774,117.348972 32.3869882,117.390746 32.5554457,117.390746 C32.6383787,117.390746 32.7524097,117.375321 32.8975423,117.344473 L32.8975423,117.922879 C32.7083516,117.974293 32.5243469,118 32.3455228,118 C32.0241578,118 31.7818418,117.9036 31.6185676,117.710797 C31.4552934,117.517994 31.3736575,117.244218 31.3736575,116.88946 L31.3736575,114.302057 L30.6078276,114.302057 L30.6078276,113.750643 L31.3736575,113.750643 L31.3736575,112.74036 L32.0928378,112.74036 Z M34.4991764,117.922879 L33.779996,117.922879 L33.779996,113.750643 L34.4991764,113.750643 L34.4991764,117.922879 Z M33.7216841,112.643959 C33.7216841,112.528277 33.7573188,112.430592 33.8285893,112.3509 C33.8998598,112.271208 34.0054681,112.231362 34.1454174,112.231362 C34.2853667,112.231362 34.3916229,112.271208 34.4641892,112.3509 C34.5367555,112.430592 34.5730381,112.528277 34.5730381,112.643959 C34.5730381,112.759641 34.5367555,112.856041 34.4641892,112.933162 C34.3916229,113.010283 34.2853667,113.048843 34.1454174,113.048843 C34.0054681,113.048843 33.8998598,113.010283 33.8285893,112.933162 C33.7573188,112.856041 33.7216841,112.759641 33.7216841,112.643959 Z M35.4593793,115.798201 C35.4593793,115.389458 35.5403673,115.021853 35.7023457,114.695373 C35.864324,114.368893 36.0897945,114.116967 36.3787639,113.939589 C36.6677333,113.76221 36.9975163,113.673522 37.3681228,113.673522 C37.9408783,113.673522 38.4041295,113.870178 38.7578902,114.263496 C39.111651,114.656814 39.2885287,115.179945 39.2885287,115.832905 L39.2885287,115.883033 C39.2885287,116.289205 39.2101323,116.653597 39.0533373,116.976221 C38.8965422,117.298845 38.6723675,117.550128 38.3808065,117.730077 C38.0892454,117.910027 37.7542792,118 37.3758977,118 C36.8057339,118 36.3437785,117.803344 35.9900178,117.410026 C35.636257,117.016708 35.4593793,116.496147 35.4593793,115.848329 L35.4593793,115.798201 Z M36.1824471,115.883033 C36.1824471,116.345761 36.290647,116.717222 36.5070501,116.997429 C36.7234532,117.277636 37.0130662,117.417738 37.3758977,117.417738 C37.7413209,117.417738 38.0315818,117.275708 38.2466891,116.991645 C38.4617963,116.707582 38.5693484,116.309771 38.5693484,115.798201 C38.5693484,115.340615 38.4598526,114.969796 38.2408579,114.685733 C38.0218631,114.40167 37.7309544,114.25964 37.3681228,114.25964 C37.0130662,114.25964 36.7266928,114.399742 36.5089939,114.679949 C36.291295,114.960156 36.1824471,115.36118 36.1824471,115.883033 Z M40.8707254,113.750643 L40.8940502,114.275064 C41.2154153,113.874034 41.6352569,113.673522 42.1535877,113.673522 C43.0425249,113.673522 43.4908743,114.170946 43.4986493,115.16581 L43.4986493,117.922879 L42.7794689,117.922879 L42.7794689,115.161954 C42.7768773,114.861181 42.7075516,114.638818 42.5714898,114.494859 C42.4354279,114.350899 42.2235634,114.27892 41.9358898,114.27892 C41.702641,114.27892 41.4979034,114.340616 41.3216709,114.46401 C41.1454385,114.587404 41.0080829,114.749356 40.9096001,114.949871 L40.9096001,117.922879 L40.1904197,117.922879 L40.1904197,113.750643 L40.8707254,113.750643 Z M50.4222178,112.917738 L48.6028859,112.917738 L48.6028859,117.922879 L47.8603808,117.922879 L47.8603808,112.917738 L46.0449364,112.917738 L46.0449364,112.308483 L50.4222178,112.308483 L50.4222178,112.917738 Z M51.9305528,117.922879 L51.2113725,117.922879 L51.2113725,113.750643 L51.9305528,113.750643 L51.9305528,117.922879 Z M51.1530606,112.643959 C51.1530606,112.528277 51.1886953,112.430592 51.2599657,112.3509 C51.3312362,112.271208 51.4368445,112.231362 51.5767938,112.231362 C51.7167431,112.231362 51.8229994,112.271208 51.8955657,112.3509 C51.968132,112.430592 52.0044146,112.528277 52.0044146,112.643959 C52.0044146,112.759641 51.968132,112.856041 51.8955657,112.933162 C51.8229994,113.010283 51.7167431,113.048843 51.5767938,113.048843 C51.4368445,113.048843 51.3312362,113.010283 51.2599657,112.933162 C51.1886953,112.856041 51.1530606,112.759641 51.1530606,112.643959 Z M54.0569941,112.74036 L54.0569941,113.750643 L54.8422613,113.750643 L54.8422613,114.302057 L54.0569941,114.302057 L54.0569941,116.88946 C54.0569941,117.056556 54.0919809,117.181876 54.1619556,117.265424 C54.2319302,117.348972 54.3511445,117.390746 54.519602,117.390746 C54.602535,117.390746 54.716566,117.375321 54.8616986,117.344473 L54.8616986,117.922879 C54.6725079,117.974293 54.4885032,118 54.3096791,118 C53.988314,118 53.745998,117.9036 53.5827239,117.710797 C53.4194497,117.517994 53.3378138,117.244218 53.3378138,116.88946 L53.3378138,114.302057 L52.5719839,114.302057 L52.5719839,113.750643 L53.3378138,113.750643 L53.3378138,112.74036 L54.0569941,112.74036 Z M56.4633327,117.922879 L55.7441523,117.922879 L55.7441523,112 L56.4633327,112 L56.4633327,117.922879 Z M59.3594913,118 C58.7893275,118 58.3254284,117.814269 57.9677802,117.442802 C57.610132,117.071335 57.4313105,116.574553 57.4313105,115.952442 L57.4313105,115.821337 C57.4313105,115.407453 57.5110027,115.037919 57.6703894,114.712725 C57.8297761,114.387531 58.052655,114.133034 58.3390327,113.949229 C58.6254105,113.765423 58.9357564,113.673522 59.2700797,113.673522 C59.8169187,113.673522 60.2419435,113.852183 60.545167,114.209512 C60.8483905,114.56684 61,115.078403 61,115.744216 L61,116.041131 L58.1504909,116.041131 C58.1608575,116.452444 58.2820155,116.784703 58.5139685,117.037918 C58.7459215,117.291132 59.0407177,117.417738 59.3983659,117.417738 C59.652348,117.417738 59.8674521,117.366324 60.0436845,117.263496 C60.219917,117.160668 60.3741181,117.024422 60.5062924,116.854756 L60.9455755,117.194087 C60.5931106,117.731365 60.0644212,118 59.3594913,118 Z M59.2700797,114.25964 C58.9798145,114.25964 58.7362027,114.364395 58.539237,114.573907 C58.3422713,114.78342 58.2204654,115.077119 58.1738156,115.455013 L60.2808197,115.455013 L60.2808197,115.401028 C60.2600864,115.038559 60.1616051,114.757713 59.9853726,114.558483 C59.8091401,114.359254 59.5707116,114.25964 59.2700797,114.25964 Z" id="Sub-Section-Title" fill="#424242"></path>
            <path d="M150.013705,115.420308 C149.373566,115.237788 148.907724,115.013497 148.616163,114.747429 C148.324602,114.481361 148.178823,114.152958 148.178823,113.762211 C148.178823,113.320049 148.356997,112.954372 148.713349,112.665167 C149.069702,112.375963 149.532953,112.231362 150.103117,112.231362 C150.491865,112.231362 150.838493,112.305912 151.143012,112.455013 C151.447532,112.604114 151.683369,112.809767 151.85053,113.071979 C152.017692,113.334192 152.101272,113.620821 152.101272,113.931877 L151.350992,113.931877 C151.350992,113.592543 151.242144,113.325836 151.024445,113.131748 C150.806746,112.93766 150.49964,112.840617 150.103117,112.840617 C149.735102,112.840617 149.44808,112.92095 149.242044,113.08162 C149.036007,113.242289 148.932991,113.465294 148.932991,113.750643 C148.932991,113.979436 149.030824,114.172878 149.226494,114.330977 C149.422164,114.489075 149.755186,114.633675 150.225572,114.764781 C150.695957,114.895888 151.063966,115.040488 151.329611,115.198586 C151.595255,115.356685 151.792218,115.54113 151.920505,115.751928 C152.048792,115.962726 152.112934,116.210795 152.112934,116.496144 C152.112934,116.951159 151.934113,117.315551 151.576464,117.589332 C151.218816,117.863112 150.740663,118 150.141991,118 C149.753243,118 149.390417,117.926093 149.053502,117.778278 C148.716587,117.630462 148.456778,117.428022 148.274066,117.170951 C148.091354,116.91388 148,116.62211 148,116.29563 L148.75028,116.29563 C148.75028,116.634963 148.876621,116.902955 149.129308,117.099614 C149.381994,117.296273 149.719552,117.394602 150.141991,117.394602 C150.535923,117.394602 150.837846,117.314911 151.04777,117.155527 C151.257694,116.996143 151.362654,116.778922 151.362654,116.503856 C151.362654,116.22879 151.265468,116.016068 151.071094,115.865681 C150.87672,115.715295 150.524261,115.566839 150.013705,115.420308 Z M155.553337,117.510283 C155.273439,117.836763 154.862668,118 154.321012,118 C153.872656,118 153.531211,117.870824 153.296666,117.612468 C153.062121,117.354112 152.943555,116.971725 152.940963,116.465296 L152.940963,113.750643 L153.660144,113.750643 L153.660144,116.446015 C153.660144,117.078409 153.919305,117.394602 154.437636,117.394602 C154.987067,117.394602 155.352484,117.191519 155.5339,116.785347 L155.5339,113.750643 L156.25308,113.750643 L156.25308,117.922879 L155.568887,117.922879 L155.553337,117.510283 Z M160.906371,115.883033 C160.906371,116.520569 160.758649,117.032774 160.463201,117.419666 C160.167752,117.806557 159.771235,118 159.273638,118 C158.742349,118 158.331578,117.813627 158.041313,117.440874 L158.006325,117.922879 L157.345457,117.922879 L157.345457,112 L158.064637,112 L158.064637,114.209512 C158.354903,113.852183 158.755307,113.673522 159.265863,113.673522 C159.776419,113.673522 160.177471,113.865037 160.469032,114.248072 C160.760593,114.631107 160.906371,115.155524 160.906371,115.821337 L160.906371,115.883033 Z M160.187191,115.802057 C160.187191,115.316193 160.092597,114.940875 159.903406,114.676093 C159.714216,114.41131 159.442096,114.27892 159.08704,114.27892 C158.612767,114.27892 158.27197,114.497427 158.064637,114.934447 L158.064637,116.739075 C158.284928,117.176095 158.628317,117.394602 159.094815,117.394602 C159.439504,117.394602 159.707737,117.262212 159.899519,116.997429 C160.091301,116.732646 160.187191,116.334193 160.187191,115.802057 Z M163.308823,115.829049 L161.411741,115.829049 L161.411741,115.246787 L163.308823,115.246787 L163.308823,115.829049 Z M165.789023,115.420308 C165.148884,115.237788 164.683042,115.013497 164.391481,114.747429 C164.099919,114.481361 163.954141,114.152958 163.954141,113.762211 C163.954141,113.320049 164.132315,112.954372 164.488667,112.665167 C164.845019,112.375963 165.308271,112.231362 165.878434,112.231362 C166.267183,112.231362 166.613811,112.305912 166.91833,112.455013 C167.22285,112.604114 167.458687,112.809767 167.625848,113.071979 C167.79301,113.334192 167.87659,113.620821 167.87659,113.931877 L167.12631,113.931877 C167.12631,113.592543 167.017462,113.325836 166.799763,113.131748 C166.582064,112.93766 166.274958,112.840617 165.878434,112.840617 C165.51042,112.840617 165.223398,112.92095 165.017362,113.08162 C164.811325,113.242289 164.708309,113.465294 164.708309,113.750643 C164.708309,113.979436 164.806142,114.172878 165.001812,114.330977 C165.197482,114.489075 165.530504,114.633675 166.00089,114.764781 C166.471275,114.895888 166.839284,115.040488 167.104929,115.198586 C167.370573,115.356685 167.567536,115.54113 167.695823,115.751928 C167.824109,115.962726 167.888252,116.210795 167.888252,116.496144 C167.888252,116.951159 167.709431,117.315551 167.351782,117.589332 C166.994134,117.863112 166.515981,118 165.917309,118 C165.528561,118 165.165735,117.926093 164.82882,117.778278 C164.491905,117.630462 164.232096,117.428022 164.049384,117.170951 C163.866672,116.91388 163.775318,116.62211 163.775318,116.29563 L164.525598,116.29563 C164.525598,116.634963 164.651939,116.902955 164.904625,117.099614 C165.157312,117.296273 165.49487,117.394602 165.917309,117.394602 C166.31124,117.394602 166.613164,117.314911 166.823088,117.155527 C167.033012,116.996143 167.137972,116.778922 167.137972,116.503856 C167.137972,116.22879 167.040786,116.016068 166.846412,115.865681 C166.652038,115.715295 166.299579,115.566839 165.789023,115.420308 Z M170.477301,118 C169.907137,118 169.443238,117.814269 169.08559,117.442802 C168.727942,117.071335 168.54912,116.574553 168.54912,115.952442 L168.54912,115.821337 C168.54912,115.407453 168.628813,115.037919 168.788199,114.712725 C168.947586,114.387531 169.170465,114.133034 169.456843,113.949229 C169.74322,113.765423 170.053566,113.673522 170.38789,113.673522 C170.934729,113.673522 171.359753,113.852183 171.662977,114.209512 C171.9662,114.56684 172.11781,115.078403 172.11781,115.744216 L172.11781,116.041131 L169.268301,116.041131 C169.278667,116.452444 169.399825,116.784703 169.631778,117.037918 C169.863731,117.291132 170.158528,117.417738 170.516176,117.417738 C170.770158,117.417738 170.985262,117.366324 171.161494,117.263496 C171.337727,117.160668 171.491928,117.024422 171.624102,116.854756 L172.063385,117.194087 C171.71092,117.731365 171.182231,118 170.477301,118 Z M170.38789,114.25964 C170.097624,114.25964 169.854013,114.364395 169.657047,114.573907 C169.460081,114.78342 169.338275,115.077119 169.291625,115.455013 L171.39863,115.455013 L171.39863,115.401028 C171.377896,115.038559 171.279415,114.757713 171.103182,114.558483 C170.92695,114.359254 170.688521,114.25964 170.38789,114.25964 Z M174.636885,117.417738 C174.893458,117.417738 175.117633,117.340618 175.309416,117.186375 C175.501198,117.032133 175.607454,116.839333 175.628187,116.607969 L176.308493,116.607969 C176.295535,116.847045 176.212603,117.074549 176.059696,117.290488 C175.906788,117.506428 175.702698,117.678663 175.44742,117.807198 C175.192143,117.935733 174.921967,118 174.636885,118 C174.064129,118 173.608653,117.810413 173.270442,117.431234 C172.932231,117.052055 172.763128,116.533422 172.763128,115.875321 L172.763128,115.755784 C172.763128,115.349612 172.838285,114.988433 172.988601,114.672237 C173.138917,114.35604 173.354669,114.110541 173.635863,113.935733 C173.917058,113.760925 174.249433,113.673522 174.632997,113.673522 C175.104678,113.673522 175.49666,113.813623 175.808954,114.09383 C176.121249,114.374037 176.28776,114.737787 176.308493,115.18509 L175.628187,115.18509 C175.607454,114.915166 175.504437,114.693446 175.319134,114.519923 C175.133831,114.3464 174.905121,114.25964 174.632997,114.25964 C174.267574,114.25964 173.98444,114.390102 173.783587,114.651028 C173.582734,114.911955 173.482309,115.289201 173.482309,115.782776 L173.482309,115.917738 C173.482309,116.39846 173.582086,116.768636 173.781643,117.028278 C173.981201,117.287919 174.266278,117.417738 174.636885,117.417738 Z M178.092838,112.74036 L178.092838,113.750643 L178.878105,113.750643 L178.878105,114.302057 L178.092838,114.302057 L178.092838,116.88946 C178.092838,117.056556 178.127825,117.181876 178.197799,117.265424 C178.267774,117.348972 178.386988,117.390746 178.555446,117.390746 C178.638379,117.390746 178.75241,117.375321 178.897542,117.344473 L178.897542,117.922879 C178.708352,117.974293 178.524347,118 178.345523,118 C178.024158,118 177.781842,117.9036 177.618568,117.710797 C177.455293,117.517994 177.373658,117.244218 177.373658,116.88946 L177.373658,114.302057 L176.607828,114.302057 L176.607828,113.750643 L177.373658,113.750643 L177.373658,112.74036 L178.092838,112.74036 Z M180.499176,117.922879 L179.779996,117.922879 L179.779996,113.750643 L180.499176,113.750643 L180.499176,117.922879 Z M179.721684,112.643959 C179.721684,112.528277 179.757319,112.430592 179.828589,112.3509 C179.89986,112.271208 180.005468,112.231362 180.145417,112.231362 C180.285367,112.231362 180.391623,112.271208 180.464189,112.3509 C180.536756,112.430592 180.573038,112.528277 180.573038,112.643959 C180.573038,112.759641 180.536756,112.856041 180.464189,112.933162 C180.391623,113.010283 180.285367,113.048843 180.145417,113.048843 C180.005468,113.048843 179.89986,113.010283 179.828589,112.933162 C179.757319,112.856041 179.721684,112.759641 179.721684,112.643959 Z M181.459379,115.798201 C181.459379,115.389458 181.540367,115.021853 181.702346,114.695373 C181.864324,114.368893 182.089795,114.116967 182.378764,113.939589 C182.667733,113.76221 182.997516,113.673522 183.368123,113.673522 C183.940878,113.673522 184.404129,113.870178 184.75789,114.263496 C185.111651,114.656814 185.288529,115.179945 185.288529,115.832905 L185.288529,115.883033 C185.288529,116.289205 185.210132,116.653597 185.053337,116.976221 C184.896542,117.298845 184.672368,117.550128 184.380806,117.730077 C184.089245,117.910027 183.754279,118 183.375898,118 C182.805734,118 182.343779,117.803344 181.990018,117.410026 C181.636257,117.016708 181.459379,116.496147 181.459379,115.848329 L181.459379,115.798201 Z M182.182447,115.883033 C182.182447,116.345761 182.290647,116.717222 182.50705,116.997429 C182.723453,117.277636 183.013066,117.417738 183.375898,117.417738 C183.741321,117.417738 184.031582,117.275708 184.246689,116.991645 C184.461796,116.707582 184.569348,116.309771 184.569348,115.798201 C184.569348,115.340615 184.459853,114.969796 184.240858,114.685733 C184.021863,114.40167 183.730954,114.25964 183.368123,114.25964 C183.013066,114.25964 182.726693,114.399742 182.508994,114.679949 C182.291295,114.960156 182.182447,115.36118 182.182447,115.883033 Z M186.870725,113.750643 L186.89405,114.275064 C187.215415,113.874034 187.635257,113.673522 188.153588,113.673522 C189.042525,113.673522 189.490874,114.170946 189.498649,115.16581 L189.498649,117.922879 L188.779469,117.922879 L188.779469,115.161954 C188.776877,114.861181 188.707552,114.638818 188.57149,114.494859 C188.435428,114.350899 188.223563,114.27892 187.93589,114.27892 C187.702641,114.27892 187.497903,114.340616 187.321671,114.46401 C187.145438,114.587404 187.008083,114.749356 186.9096,114.949871 L186.9096,117.922879 L186.19042,117.922879 L186.19042,113.750643 L186.870725,113.750643 Z M196.422218,112.917738 L194.602886,112.917738 L194.602886,117.922879 L193.860381,117.922879 L193.860381,112.917738 L192.044936,112.917738 L192.044936,112.308483 L196.422218,112.308483 L196.422218,112.917738 Z M197.930553,117.922879 L197.211372,117.922879 L197.211372,113.750643 L197.930553,113.750643 L197.930553,117.922879 Z M197.153061,112.643959 C197.153061,112.528277 197.188695,112.430592 197.259966,112.3509 C197.331236,112.271208 197.436845,112.231362 197.576794,112.231362 C197.716743,112.231362 197.822999,112.271208 197.895566,112.3509 C197.968132,112.430592 198.004415,112.528277 198.004415,112.643959 C198.004415,112.759641 197.968132,112.856041 197.895566,112.933162 C197.822999,113.010283 197.716743,113.048843 197.576794,113.048843 C197.436845,113.048843 197.331236,113.010283 197.259966,112.933162 C197.188695,112.856041 197.153061,112.759641 197.153061,112.643959 Z M200.056994,112.74036 L200.056994,113.750643 L200.842261,113.750643 L200.842261,114.302057 L200.056994,114.302057 L200.056994,116.88946 C200.056994,117.056556 200.091981,117.181876 200.161956,117.265424 C200.23193,117.348972 200.351145,117.390746 200.519602,117.390746 C200.602535,117.390746 200.716566,117.375321 200.861699,117.344473 L200.861699,117.922879 C200.672508,117.974293 200.488503,118 200.309679,118 C199.988314,118 199.745998,117.9036 199.582724,117.710797 C199.41945,117.517994 199.337814,117.244218 199.337814,116.88946 L199.337814,114.302057 L198.571984,114.302057 L198.571984,113.750643 L199.337814,113.750643 L199.337814,112.74036 L200.056994,112.74036 Z M202.463333,117.922879 L201.744152,117.922879 L201.744152,112 L202.463333,112 L202.463333,117.922879 Z M205.359491,118 C204.789327,118 204.325428,117.814269 203.96778,117.442802 C203.610132,117.071335 203.431311,116.574553 203.431311,115.952442 L203.431311,115.821337 C203.431311,115.407453 203.511003,115.037919 203.670389,114.712725 C203.829776,114.387531 204.052655,114.133034 204.339033,113.949229 C204.62541,113.765423 204.935756,113.673522 205.27008,113.673522 C205.816919,113.673522 206.241944,113.852183 206.545167,114.209512 C206.848391,114.56684 207,115.078403 207,115.744216 L207,116.041131 L204.150491,116.041131 C204.160857,116.452444 204.282015,116.784703 204.513969,117.037918 C204.745922,117.291132 205.040718,117.417738 205.398366,117.417738 C205.652348,117.417738 205.867452,117.366324 206.043685,117.263496 C206.219917,117.160668 206.374118,117.024422 206.506292,116.854756 L206.945576,117.194087 C206.593111,117.731365 206.064421,118 205.359491,118 Z M205.27008,114.25964 C204.979814,114.25964 204.736203,114.364395 204.539237,114.573907 C204.342271,114.78342 204.220465,115.077119 204.173816,115.455013 L206.28082,115.455013 L206.28082,115.401028 C206.260086,115.038559 206.161605,114.757713 205.985373,114.558483 C205.80914,114.359254 205.570712,114.25964 205.27008,114.25964 Z" id="Sub-Section-Title-Copy" fill="#424242"></path>
            <rect id="Rectangle-2-Copy-17" stroke="#D8D8D8" fill="#D8D8D8" x="2" y="166" width="125" height="4" rx="2"></rect>
            <rect id="Rectangle-2-Copy-20" stroke="#D8D8D8" fill="#D8D8D8" x="2" y="146" width="127" height="4" rx="2"></rect>
            <rect id="Rectangle-2-Copy-30" stroke="#D8D8D8" fill="#D8D8D8" x="2" y="64" width="181" height="4" rx="2"></rect>
            <rect id="Rectangle-2-Copy-34" stroke="#D8D8D8" fill="#D8D8D8" x="2" y="84" width="157" height="4" rx="2"></rect>
            <rect id="Rectangle-2-Copy-24" stroke="#D8D8D8" fill="#D8D8D8" x="148" y="146" width="127" height="4" rx="2"></rect>
            <rect id="Rectangle-2-Copy-28" stroke="#D8D8D8" fill="#D8D8D8" x="148" y="162" width="127" height="4" rx="2"></rect>
            <rect id="Rectangle-2-Copy-22" stroke="#D8D8D8" fill="#D8D8D8" x="2" y="131" width="127" height="4" rx="2"></rect>
            <rect id="Rectangle-2-Copy-31" stroke="#D8D8D8" fill="#D8D8D8" x="2" y="48" width="181" height="4" rx="2"></rect>
            <rect id="Rectangle-2-Copy-25" stroke="#D8D8D8" fill="#D8D8D8" x="148" y="131" width="127" height="4" rx="2"></rect>
            <rect id="Rectangle-2-Copy-19" stroke="#D8D8D8" fill="#D8D8D8" x="2" y="158" width="132" height="4" rx="2"></rect>
            <rect id="Rectangle-2-Copy-21" stroke="#D8D8D8" fill="#D8D8D8" x="2" y="138" width="132" height="4" rx="2"></rect>
            <rect id="Rectangle-2-Copy-32" stroke="#D8D8D8" fill="#D8D8D8" x="2" y="57" width="175" height="4" rx="2"></rect>
            <rect id="Rectangle-2-Copy-35" stroke="#D8D8D8" fill="#D8D8D8" x="2" y="77" width="175" height="4" rx="2"></rect>
            <rect id="Rectangle-2-Copy-26" stroke="#D8D8D8" fill="#D8D8D8" x="148" y="139" width="132" height="4" rx="2"></rect>
            <rect id="Rectangle-2-Copy-29" stroke="#D8D8D8" fill="#D8D8D8" x="148" y="154" width="129" height="4" rx="2"></rect>
            <rect id="Rectangle-2-Copy-23" stroke="#D8D8D8" fill="#D8D8D8" x="2" y="123" width="132" height="4" rx="2"></rect>
            <rect id="Rectangle-2-Copy-33" stroke="#D8D8D8" fill="#D8D8D8" x="2" y="41" width="175" height="4" rx="2"></rect>
            <rect id="Rectangle-2-Copy-27" stroke="#D8D8D8" fill="#D8D8D8" x="148" y="123" width="132" height="4" rx="2"></rect>
            <rect id="Rectangle-2-Copy-18" stroke="#D8D8D8" fill="#D8D8D8" x="2" y="173" width="112" height="4" rx="2"></rect>
        </g>
    </g>
</svg>