<?xml version="1.0" encoding="UTF-8" standalone="no"?>
<svg width="302px" height="243px" viewBox="0 0 302 243" version="1.1" xmlns="http://www.w3.org/2000/svg" xmlns:xlink="http://www.w3.org/1999/xlink">
    <!-- Generator: Sketch 47.1 (45422) - http://www.bohemiancoding.com/sketch -->
    <title>accessibility-inputs-4</title>
    <desc>Created with Sketch.</desc>
    <defs>
        <rect id="path-1" x="59" y="105" width="208.028169" height="32" rx="2"></rect>
        <filter x="-3.1%" y="-17.2%" width="106.2%" height="140.6%" filterUnits="objectBoundingBox" id="filter-2">
            <feOffset dx="0" dy="1" in="SourceAlpha" result="shadowOffsetOuter1"></feOffset>
            <feGaussianBlur stdDeviation="2" in="shadowOffsetOuter1" result="shadowBlurOuter1"></feGaussianBlur>
            <feComposite in="shadowBlurOuter1" in2="SourceAlpha" operator="out" result="shadowBlurOuter1"></feComposite>
            <feColorMatrix values="0 0 0 0 0.0549019608   0 0 0 0 0.580392157   0 0 0 0 0.650980392  0 0 0 0.5 0" type="matrix" in="shadowBlurOuter1"></feColorMatrix>
        </filter>
    </defs>
    <g id="Page-1" stroke="none" stroke-width="1" fill="none" fill-rule="evenodd">
        <g id="accessibility-inputs-4">
            <g id="Rectangle-4">
                <use fill="black" fill-opacity="1" filter="url(#filter-2)" xlink:href="#path-1"></use>
                <use fill="#FFFFFF" fill-rule="evenodd" xlink:href="#path-1"></use>
                <rect stroke="#0E94A6" stroke-width="1" x="59.5" y="105.5" width="207.028169" height="31" rx="2"></rect>
            </g>
            <path d="M105.25,111.5 L105.25,131.501562" id="Path-6" stroke="#4A4A4A" stroke-width="0.5"></path>
            <path d="M69.9296875,126 L68.4296875,126 L68.4296875,114.625 L69.9296875,114.625 L69.9296875,126 Z M73.8125,117.546875 L73.859375,118.609375 C74.5052116,117.796871 75.3489531,117.390625 76.390625,117.390625 C78.1770923,117.390625 79.0781249,118.398427 79.09375,120.414062 L79.09375,126 L77.6484375,126 L77.6484375,120.40625 C77.6432291,119.796872 77.5039076,119.346356 77.2304688,119.054688 C76.9570299,118.763019 76.5312529,118.617188 75.953125,118.617188 C75.4843727,118.617188 75.0729184,118.742186 74.71875,118.992188 C74.3645816,119.242189 74.0885427,119.57031 73.890625,119.976562 L73.890625,126 L72.4453125,126 L72.4453125,117.546875 L73.8125,117.546875 Z M88.4140625,121.867188 C88.4140625,123.153652 88.1197946,124.1901 87.53125,124.976562 C86.9427054,125.763025 86.1458384,126.15625 85.140625,126.15625 C84.1145782,126.15625 83.3072946,125.830732 82.71875,125.179688 L82.71875,129.25 L81.2734375,129.25 L81.2734375,117.546875 L82.59375,117.546875 L82.6640625,118.484375 C83.2526071,117.755205 84.0703073,117.390625 85.1171875,117.390625 C86.1328176,117.390625 86.936195,117.773434 87.5273438,118.539062 C88.1184925,119.304691 88.4140625,120.369785 88.4140625,121.734375 L88.4140625,121.867188 Z M86.96875,121.703125 C86.96875,120.749995 86.765627,119.997399 86.359375,119.445312 C85.953123,118.893226 85.3958369,118.617188 84.6875,118.617188 C83.8124956,118.617188 83.1562522,119.005204 82.71875,119.78125 L82.71875,123.820312 C83.1510438,124.59115 83.8124955,124.976562 84.703125,124.976562 C85.3958368,124.976562 85.9466125,124.701826 86.3554688,124.152344 C86.764325,123.602862 86.96875,122.786464 86.96875,121.703125 Z M95.46875,125.164062 C94.9062472,125.825524 94.0807346,126.15625 92.9921875,126.15625 C92.0911413,126.15625 91.4049503,125.894534 90.9335938,125.371094 C90.4622372,124.847654 90.2239584,124.072922 90.21875,123.046875 L90.21875,117.546875 L91.6640625,117.546875 L91.6640625,123.007812 C91.6640625,124.289069 92.1848906,124.929688 93.2265625,124.929688 C94.3307347,124.929688 95.0651023,124.518233 95.4296875,123.695312 L95.4296875,117.546875 L96.875,117.546875 L96.875,126 L95.5,126 L95.46875,125.164062 Z M101.03125,115.5 L101.03125,117.546875 L102.609375,117.546875 L102.609375,118.664062 L101.03125,118.664062 L101.03125,123.90625 C101.03125,124.244793 101.101562,124.498697 101.242188,124.667969 C101.382813,124.83724 101.622394,124.921875 101.960938,124.921875 C102.127605,124.921875 102.356769,124.890625 102.648438,124.828125 L102.648438,126 C102.268227,126.104167 101.898439,126.15625 101.539062,126.15625 C100.893226,126.15625 100.406252,125.960939 100.078125,125.570312 C99.7499984,125.179686 99.5859375,124.625004 99.5859375,123.90625 L99.5859375,118.664062 L98.046875,118.664062 L98.046875,117.546875 L99.5859375,117.546875 L99.5859375,115.5 L101.03125,115.5 Z" id="Input" fill="#616161"></path>
            <path d="M62.4746094,95.9267578 L67.1914062,95.9267578 L67.1914062,97 L61.1552734,97 L61.1552734,87.046875 L62.4746094,87.046875 L62.4746094,95.9267578 Z M73.0566406,97 C72.9837236,96.8541659 72.9244794,96.5944029 72.8789062,96.2207031 C72.2910127,96.8313833 71.5891968,97.1367188 70.7734375,97.1367188 C70.0442672,97.1367188 69.4461286,96.9305034 68.9790039,96.5180664 C68.5118792,96.1056294 68.2783203,95.5826855 68.2783203,94.9492188 C68.2783203,94.1790326 68.5711234,93.5808941 69.1567383,93.1547852 C69.7423532,92.7286763 70.5660754,92.515625 71.6279297,92.515625 L72.8583984,92.515625 L72.8583984,91.9345703 C72.8583984,91.4925108 72.7262383,91.1404635 72.4619141,90.878418 C72.1975898,90.6163724 71.8079453,90.4853516 71.2929688,90.4853516 C70.8417946,90.4853516 70.4635432,90.5992827 70.1582031,90.8271484 C69.8528631,91.0550142 69.7001953,91.3307275 69.7001953,91.6542969 L68.4287109,91.6542969 C68.4287109,91.2851544 68.5597318,90.9285499 68.8217773,90.5844727 C69.0838229,90.2403954 69.4392881,89.9681 69.8881836,89.7675781 C70.3370791,89.5670563 70.830401,89.4667969 71.3681641,89.4667969 C72.2203819,89.4667969 72.8880184,89.6798481 73.3710938,90.105957 C73.8541691,90.5320659 74.1048176,91.1188114 74.1230469,91.8662109 L74.1230469,95.2705078 C74.1230469,95.9495477 74.2096346,96.4895813 74.3828125,96.890625 L74.3828125,97 L73.0566406,97 Z M70.9580078,96.0361328 C71.3544942,96.0361328 71.730467,95.9335948 72.0859375,95.7285156 C72.441408,95.5234365 72.6988924,95.2568376 72.8583984,94.9287109 L72.8583984,93.4111328 L71.8671875,93.4111328 C70.3177006,93.4111328 69.5429688,93.8645788 69.5429688,94.7714844 C69.5429688,95.1679707 69.6751289,95.4778635 69.9394531,95.7011719 C70.2037774,95.9244803 70.5432922,96.0361328 70.9580078,96.0361328 Z M82.3671875,93.3837891 C82.3671875,94.514003 82.1074245,95.4220343 81.5878906,96.1079102 C81.0683568,96.793786 80.3710981,97.1367188 79.4960938,97.1367188 C78.5618443,97.1367188 77.8395208,96.8063184 77.3291016,96.1455078 L77.2675781,97 L76.1054688,97 L76.1054688,86.5 L77.3701172,86.5 L77.3701172,90.4169922 C77.8805364,89.7835255 78.5846309,89.4667969 79.4824219,89.4667969 C80.3802128,89.4667969 81.0854467,89.8063117 81.5981445,90.4853516 C82.1108424,91.1643914 82.3671875,92.0940696 82.3671875,93.2744141 L82.3671875,93.3837891 Z M81.1025391,93.2402344 C81.1025391,92.3789019 80.9361996,91.713544 80.6035156,91.2441406 C80.2708317,90.7747372 79.7923208,90.5400391 79.1679688,90.5400391 C78.3339802,90.5400391 77.7347023,90.927405 77.3701172,91.7021484 L77.3701172,94.9013672 C77.7574889,95.6761106 78.361324,96.0634766 79.1816406,96.0634766 C79.7877634,96.0634766 80.2594384,95.8287784 80.5966797,95.359375 C80.933921,94.8899716 81.1025391,94.1835985 81.1025391,93.2402344 Z M87.0292969,97.1367188 C86.0266877,97.1367188 85.2109406,96.8074577 84.5820312,96.1489258 C83.9531219,95.4903938 83.6386719,94.609706 83.6386719,93.5068359 L83.6386719,93.2744141 C83.6386719,92.5406864 83.7788072,91.8855823 84.059082,91.309082 C84.3393569,90.7325818 84.73128,90.2814144 85.2348633,89.9555664 C85.7384465,89.6297184 86.2841767,89.4667969 86.8720703,89.4667969 C87.8336637,89.4667969 88.581052,89.7835255 89.1142578,90.4169922 C89.6474636,91.0504589 89.9140625,91.9573509 89.9140625,93.1376953 L89.9140625,93.6640625 L84.9033203,93.6640625 C84.9215496,94.3932328 85.1346008,94.9822569 85.5424805,95.4311523 C85.9503601,95.8800478 86.4687469,96.1044922 87.0976562,96.1044922 C87.5442731,96.1044922 87.9225245,96.0133473 88.2324219,95.8310547 C88.5423193,95.6487621 88.8134754,95.4072281 89.0458984,95.1064453 L89.8183594,95.7080078 C89.1985646,96.6604865 88.2688864,97.1367188 87.0292969,97.1367188 Z M86.8720703,90.5058594 C86.3616511,90.5058594 85.93327,90.6915672 85.5869141,91.0629883 C85.2405582,91.4344094 85.0263676,91.9550748 84.9443359,92.625 L88.6494141,92.625 L88.6494141,92.5292969 C88.6129555,91.8867155 88.4397802,91.3888364 88.1298828,91.0356445 C87.8199854,90.6824527 87.4007188,90.5058594 86.8720703,90.5058594 Z M92.7509766,97 L91.4863281,97 L91.4863281,86.5 L92.7509766,86.5 L92.7509766,97 Z" id="Label" fill="#616161"></path>
            <path d="M65.546875,151 L64.4160156,151 L64.4160156,147.056641 L60.1152344,147.056641 L60.1152344,151 L58.9902344,151 L58.9902344,142.46875 L60.1152344,142.46875 L60.1152344,146.136719 L64.4160156,146.136719 L64.4160156,142.46875 L65.546875,142.46875 L65.546875,151 Z M70.0058594,151.117188 C69.1464801,151.117188 68.4472683,150.834964 67.9082031,150.270508 C67.3691379,149.706052 67.0996094,148.951177 67.0996094,148.005859 L67.0996094,147.806641 C67.0996094,147.177731 67.2197254,146.616213 67.4599609,146.12207 C67.7001965,145.627927 68.0361307,145.241212 68.4677734,144.961914 C68.8994162,144.682616 69.367185,144.542969 69.8710938,144.542969 C70.6953166,144.542969 71.3359352,144.81445 71.7929688,145.357422 C72.2500023,145.900393 72.4785156,146.677729 72.4785156,147.689453 L72.4785156,148.140625 L68.1835938,148.140625 C68.1992188,148.765628 68.3818342,149.270506 68.7314453,149.655273 C69.0810564,150.040041 69.5253879,150.232422 70.0644531,150.232422 C70.4472675,150.232422 70.771483,150.154298 71.0371094,149.998047 C71.3027357,149.841796 71.5351553,149.634767 71.734375,149.376953 L72.3964844,149.892578 C71.8652317,150.708988 71.0683647,151.117188 70.0058594,151.117188 Z M69.8710938,145.433594 C69.4335916,145.433594 69.0664077,145.592772 68.7695312,145.911133 C68.4726548,146.229494 68.2890629,146.675778 68.21875,147.25 L71.3945312,147.25 L71.3945312,147.167969 C71.3632811,146.617185 71.2148451,146.190431 70.9492188,145.887695 C70.6835924,145.584959 70.324221,145.433594 69.8710938,145.433594 Z M74.9101562,151 L73.8261719,151 L73.8261719,142 L74.9101562,142 L74.9101562,151 Z M82,147.900391 C82,148.865239 81.7792991,149.642575 81.3378906,150.232422 C80.8964822,150.822269 80.2988319,151.117188 79.5449219,151.117188 C78.7753868,151.117188 78.1699241,150.873049 77.7285156,150.384766 L77.7285156,153.4375 L76.6445312,153.4375 L76.6445312,144.660156 L77.6347656,144.660156 L77.6875,145.363281 C78.1289085,144.816404 78.7421836,144.542969 79.5273438,144.542969 C80.2890663,144.542969 80.8915993,144.830075 81.3349609,145.404297 C81.7783225,145.978518 82,146.777339 82,147.800781 L82,147.900391 Z M80.9160156,147.777344 C80.9160156,147.062496 80.7636734,146.498049 80.4589844,146.083984 C80.1542954,145.66992 79.7363308,145.462891 79.2050781,145.462891 C78.5488248,145.462891 78.0566423,145.753903 77.7285156,146.335938 L77.7285156,149.365234 C78.052736,149.943362 78.5488248,150.232422 79.2167969,150.232422 C79.7363307,150.232422 80.1494125,150.026369 80.4560547,149.614258 C80.7626968,149.202146 80.9160156,148.589848 80.9160156,147.777344 Z M86.0078125,151.117188 C85.1484332,151.117188 84.4492214,150.834964 83.9101562,150.270508 C83.3710911,149.706052 83.1015625,148.951177 83.1015625,148.005859 L83.1015625,147.806641 C83.1015625,147.177731 83.2216785,146.616213 83.4619141,146.12207 C83.7021496,145.627927 84.0380838,145.241212 84.4697266,144.961914 C84.9013693,144.682616 85.3691381,144.542969 85.8730469,144.542969 C86.6972697,144.542969 87.3378883,144.81445 87.7949219,145.357422 C88.2519554,145.900393 88.4804688,146.677729 88.4804688,147.689453 L88.4804688,148.140625 L84.1855469,148.140625 C84.201172,148.765628 84.3837873,149.270506 84.7333984,149.655273 C85.0830096,150.040041 85.5273411,150.232422 86.0664062,150.232422 C86.4492207,150.232422 86.7734362,150.154298 87.0390625,149.998047 C87.3046888,149.841796 87.5371084,149.634767 87.7363281,149.376953 L88.3984375,149.892578 C87.8671848,150.708988 87.0703178,151.117188 86.0078125,151.117188 Z M85.8730469,145.433594 C85.4355447,145.433594 85.0683609,145.592772 84.7714844,145.911133 C84.4746079,146.229494 84.291016,146.675778 84.2207031,147.25 L87.3964844,147.25 L87.3964844,147.167969 C87.3652342,146.617185 87.2167982,146.190431 86.9511719,145.887695 C86.6855455,145.584959 86.3261741,145.433594 85.8730469,145.433594 Z M92.7988281,145.632812 C92.6347648,145.605469 92.4570322,145.591797 92.265625,145.591797 C91.5546839,145.591797 91.0722669,145.894528 90.8183594,146.5 L90.8183594,151 L89.734375,151 L89.734375,144.660156 L90.7890625,144.660156 L90.8066406,145.392578 C91.1621112,144.826169 91.6660124,144.542969 92.3183594,144.542969 C92.5292979,144.542969 92.6894526,144.570312 92.7988281,144.625 L92.7988281,145.632812 Z M98.2363281,143.125 L98.2363281,144.660156 L99.4199219,144.660156 L99.4199219,145.498047 L98.2363281,145.498047 L98.2363281,149.429688 C98.2363281,149.683595 98.289062,149.874023 98.3945312,150.000977 C98.5000005,150.12793 98.6796862,150.191406 98.9335938,150.191406 C99.0585944,150.191406 99.2304677,150.167969 99.4492188,150.121094 L99.4492188,151 C99.1640611,151.078125 98.8867201,151.117188 98.6171875,151.117188 C98.1328101,151.117188 97.7675794,150.970705 97.5214844,150.677734 C97.2753894,150.384764 97.1523438,149.968753 97.1523438,149.429688 L97.1523438,145.498047 L95.9980469,145.498047 L95.9980469,144.660156 L97.1523438,144.660156 L97.1523438,143.125 L98.2363281,143.125 Z M103.316406,151.117188 C102.457027,151.117188 101.757815,150.834964 101.21875,150.270508 C100.679685,149.706052 100.410156,148.951177 100.410156,148.005859 L100.410156,147.806641 C100.410156,147.177731 100.530272,146.616213 100.770508,146.12207 C101.010743,145.627927 101.346678,145.241212 101.77832,144.961914 C102.209963,144.682616 102.677732,144.542969 103.181641,144.542969 C104.005863,144.542969 104.646482,144.81445 105.103516,145.357422 C105.560549,145.900393 105.789062,146.677729 105.789062,147.689453 L105.789062,148.140625 L101.494141,148.140625 C101.509766,148.765628 101.692381,149.270506 102.041992,149.655273 C102.391603,150.040041 102.835935,150.232422 103.375,150.232422 C103.757814,150.232422 104.08203,150.154298 104.347656,149.998047 C104.613283,149.841796 104.845702,149.634767 105.044922,149.376953 L105.707031,149.892578 C105.175779,150.708988 104.378912,151.117188 103.316406,151.117188 Z M103.181641,145.433594 C102.744138,145.433594 102.376955,145.592772 102.080078,145.911133 C101.783202,146.229494 101.59961,146.675778 101.529297,147.25 L104.705078,147.25 L104.705078,147.167969 C104.673828,146.617185 104.525392,146.190431 104.259766,145.887695 C103.994139,145.584959 103.634768,145.433594 103.181641,145.433594 Z M109.169922,146.974609 L110.576172,144.660156 L111.841797,144.660156 L109.767578,147.794922 L111.90625,151 L110.652344,151 L109.1875,148.626953 L107.722656,151 L106.462891,151 L108.601562,147.794922 L106.527344,144.660156 L107.78125,144.660156 L109.169922,146.974609 Z M114.460938,143.125 L114.460938,144.660156 L115.644531,144.660156 L115.644531,145.498047 L114.460938,145.498047 L114.460938,149.429688 C114.460938,149.683595 114.513671,149.874023 114.619141,150.000977 C114.72461,150.12793 114.904296,150.191406 115.158203,150.191406 C115.283204,150.191406 115.455077,150.167969 115.673828,150.121094 L115.673828,151 C115.38867,151.078125 115.111329,151.117188 114.841797,151.117188 C114.357419,151.117188 113.992189,150.970705 113.746094,150.677734 C113.499999,150.384764 113.376953,149.968753 113.376953,149.429688 L113.376953,145.498047 L112.222656,145.498047 L112.222656,144.660156 L113.376953,144.660156 L113.376953,143.125 L114.460938,143.125 Z" id="Helper-text" fill="#9E9E9E"></path>
        </g>
    </g>
</svg>