<svg id="Layer_1" data-name="Layer 1" xmlns="http://www.w3.org/2000/svg" xmlns:xlink="http://www.w3.org/1999/xlink" viewBox="0 0 204.34 299.99"><defs><style>.cls-1{fill:none;}.cls-2{fill:#2e3285;}.cls-3{clip-path:url(#clip-path);}.cls-4{fill:#13b8d3;}.cls-5{fill:#eb407a;}.cls-6{fill:#f37c20;}.cls-7{fill:#2f73b9;}.cls-8{fill:#fde939;}.cls-9{fill:#4cae50;}.cls-10{fill:#ee4538;}.cls-11{fill:#4a5acc;}.cls-12{clip-path:url(#clip-path-2);}.cls-13{fill:#0e94a6;}.cls-14{fill:#c11e5c;}.cls-15{fill:#db6226;}.cls-16{fill:#144a9d;}.cls-17{fill:#f8bf2c;}.cls-18{fill:#307e3e;}.cls-19{fill:#ce3728;}.cls-20{fill:#3b44a9;}</style><clipPath id="clip-path"><polygon class="cls-1" points="195.85 87.61 104.19 34.47 12.33 87.27 12.13 193.22 103.79 246.37 195.65 193.57 195.85 87.61"/></clipPath><clipPath id="clip-path-2"><polygon class="cls-2" points="160.94 107.68 104.11 74.73 47.16 107.47 47.04 173.16 103.87 206.11 160.82 173.37 160.94 107.68"/></clipPath></defs><title>accessibility-hero-1</title><g class="cls-3"><path class="cls-4" d="M104.22,140.54,26.88,63.2q32-32,77.34-32Z"/><path class="cls-5" d="M104.22,140.54H-5.16q0-45.3,32-77.34Z"/><path class="cls-6" d="M104.22,140.54,26.88,217.88q-32-32-32-77.34Z"/><path class="cls-7" d="M104.22,140.54V249.91q-45.3,0-77.34-32Z"/><path class="cls-8" d="M104.22,140.54l77.34,77.34q-32,32-77.34,32Z"/><path class="cls-9" d="M104.22,140.54H213.59q0,45.3-32,77.34Z"/><path class="cls-10" d="M104.22,140.54,181.56,63.2q32,32,32,77.34Z"/><path class="cls-11" d="M104.22,140.54V31.16q45.3,0,77.34,32Z"/></g><polygon class="cls-2" points="160.94 107.68 104.11 74.73 47.16 107.47 47.04 173.16 103.87 206.11 160.82 173.37 160.94 107.68"/><g class="cls-12"><path class="cls-13" d="M104.22,140.54,26.88,63.2q32-32,77.34-32Z"/><path class="cls-14" d="M104.22,140.54H-5.16q0-45.3,32-77.34Z"/><path class="cls-15" d="M104.22,140.54,26.88,217.88q-32-32-32-77.34Z"/><path class="cls-16" d="M104.22,140.54V249.91q-45.3,0-77.34-32Z"/><path class="cls-17" d="M104.22,140.54l77.34,77.34q-32,32-77.34,32Z"/><path class="cls-18" d="M104.22,140.54H213.59q0,45.3-32,77.34Z"/><path class="cls-19" d="M104.22,140.54,181.56,63.2q32,32,32,77.34Z"/><path class="cls-20" d="M104.22,140.54V31.16q45.3,0,77.34,32Z"/></g></svg>