<?xml version="1.0" encoding="UTF-8" standalone="no"?>
<svg width="302px" height="243px" viewBox="0 0 302 243" version="1.1" xmlns="http://www.w3.org/2000/svg" xmlns:xlink="http://www.w3.org/1999/xlink">
    <!-- Generator: Sketch 47.1 (45422) - http://www.bohemiancoding.com/sketch -->
    <title>accessibility-inputs-2</title>
    <desc>Created with Sketch.</desc>
    <defs>
        <path d="M3,21 L102.233398,21 L209,21 L209,21 C210.104569,21 211,21.8954305 211,23 L211,51 L211,51 C211,52.1045695 210.104569,53 209,53 L193.428711,53 L3,53 L3,53 C1.8954305,53 1,52.1045695 1,51 L1,23 L1,23 C1,21.8954305 1.8954305,21 3,21 Z" id="path-1"></path>
    </defs>
    <g id="Page-1" stroke="none" stroke-width="1" fill="none" fill-rule="evenodd">
        <g id="accessibility-inputs-2">
            <g id="Group-18" transform="translate(59.000000, 56.000000)"></g>
            <g id="Group-44" transform="translate(60.000000, 78.000000)"></g>
            <g id="Group-47" transform="translate(60.000000, 78.000000)">
                <g id="Group-46">
                    <g id="Basic-Field-w-Label">
                        <g id="Rectangle-4">
                            <use fill="#FFFFFF" fill-rule="evenodd" xlink:href="#path-1"></use>
                            <path stroke="#D32F2F" stroke-width="2" d="M3,22 C2.44771525,22 2,22.4477153 2,23 L2,51 C2,51.5522847 2.44771525,52 3,52 L209,52 C209.552285,52 210,51.5522847 210,51 L210,23 C210,22.4477153 209.552285,22 209,22 L3,22 Z"></path>
                        </g>
                        <path d="M2.47460938,11.9267578 L7.19140625,11.9267578 L7.19140625,13 L1.15527344,13 L1.15527344,3.046875 L2.47460938,3.046875 L2.47460938,11.9267578 Z M13.0566406,13 C12.9837236,12.8541659 12.9244794,12.5944029 12.8789062,12.2207031 C12.2910127,12.8313833 11.5891968,13.1367188 10.7734375,13.1367188 C10.0442672,13.1367188 9.44612864,12.9305034 8.97900391,12.5180664 C8.51187917,12.1056294 8.27832031,11.5826855 8.27832031,10.9492188 C8.27832031,10.1790326 8.57112337,9.58089406 9.15673828,9.15478516 C9.74235319,8.72867625 10.5660754,8.515625 11.6279297,8.515625 L12.8583984,8.515625 L12.8583984,7.93457031 C12.8583984,7.49251081 12.7262383,7.14046355 12.4619141,6.87841797 C12.1975898,6.61637239 11.8079453,6.48535156 11.2929688,6.48535156 C10.8417946,6.48535156 10.4635432,6.59928271 10.1582031,6.82714844 C9.85286306,7.05501416 9.70019531,7.33072755 9.70019531,7.65429688 L8.42871094,7.65429688 C8.42871094,7.2851544 8.55973176,6.9285499 8.82177734,6.58447266 C9.08382292,6.24039542 9.43928812,5.96809996 9.88818359,5.76757812 C10.3370791,5.56705629 10.830401,5.46679688 11.3681641,5.46679688 C12.2203819,5.46679688 12.8880184,5.67984813 13.3710938,6.10595703 C13.8541691,6.53206593 14.1048176,7.11881137 14.1230469,7.86621094 L14.1230469,11.2705078 C14.1230469,11.9495477 14.2096346,12.4895813 14.3828125,12.890625 L14.3828125,13 L13.0566406,13 Z M10.9580078,12.0361328 C11.3544942,12.0361328 11.730467,11.9335948 12.0859375,11.7285156 C12.441408,11.5234365 12.6988924,11.2568376 12.8583984,10.9287109 L12.8583984,9.41113281 L11.8671875,9.41113281 C10.3177006,9.41113281 9.54296875,9.8645788 9.54296875,10.7714844 C9.54296875,11.1679707 9.67512889,11.4778635 9.93945312,11.7011719 C10.2037774,11.9244803 10.5432922,12.0361328 10.9580078,12.0361328 Z M22.3671875,9.38378906 C22.3671875,10.514003 22.1074245,11.4220343 21.5878906,12.1079102 C21.0683568,12.793786 20.3710981,13.1367188 19.4960938,13.1367188 C18.5618443,13.1367188 17.8395208,12.8063184 17.3291016,12.1455078 L17.2675781,13 L16.1054688,13 L16.1054688,2.5 L17.3701172,2.5 L17.3701172,6.41699219 C17.8805364,5.78352548 18.5846309,5.46679688 19.4824219,5.46679688 C20.3802128,5.46679688 21.0854467,5.80631171 21.5981445,6.48535156 C22.1108424,7.16439142 22.3671875,8.09406962 22.3671875,9.27441406 L22.3671875,9.38378906 Z M21.1025391,9.24023438 C21.1025391,8.37890194 20.9361996,7.71354401 20.6035156,7.24414062 C20.2708317,6.77473724 19.7923208,6.54003906 19.1679688,6.54003906 C18.3339802,6.54003906 17.7347023,6.92740498 17.3701172,7.70214844 L17.3701172,10.9013672 C17.7574889,11.6761106 18.361324,12.0634766 19.1816406,12.0634766 C19.7877634,12.0634766 20.2594384,11.8287784 20.5966797,11.359375 C20.933921,10.8899716 21.1025391,10.1835985 21.1025391,9.24023438 Z M27.0292969,13.1367188 C26.0266877,13.1367188 25.2109406,12.8074577 24.5820312,12.1489258 C23.9531219,11.4903938 23.6386719,10.609706 23.6386719,9.50683594 L23.6386719,9.27441406 C23.6386719,8.54068644 23.7788072,7.88558231 24.059082,7.30908203 C24.3393569,6.73258175 24.73128,6.28141439 25.2348633,5.95556641 C25.7384465,5.62971842 26.2841767,5.46679688 26.8720703,5.46679688 C27.8336637,5.46679688 28.581052,5.78352548 29.1142578,6.41699219 C29.6474636,7.0504589 29.9140625,7.95735087 29.9140625,9.13769531 L29.9140625,9.6640625 L24.9033203,9.6640625 C24.9215496,10.3932328 25.1346008,10.9822569 25.5424805,11.4311523 C25.9503601,11.8800478 26.4687469,12.1044922 27.0976562,12.1044922 C27.5442731,12.1044922 27.9225245,12.0133473 28.2324219,11.8310547 C28.5423193,11.6487621 28.8134754,11.4072281 29.0458984,11.1064453 L29.8183594,11.7080078 C29.1985646,12.6604865 28.2688864,13.1367188 27.0292969,13.1367188 Z M26.8720703,6.50585938 C26.3616511,6.50585938 25.93327,6.69156715 25.5869141,7.06298828 C25.2405582,7.43440941 25.0263676,7.95507478 24.9443359,8.625 L28.6494141,8.625 L28.6494141,8.52929688 C28.6129555,7.88671554 28.4397802,7.3888364 28.1298828,7.03564453 C27.8199854,6.68245266 27.4007188,6.50585938 26.8720703,6.50585938 Z M32.7509766,13 L31.4863281,13 L31.4863281,2.5 L32.7509766,2.5 L32.7509766,13 Z" id="Label" fill="#616161"></path>
                        <path d="M5.8125,62.0566406 L2.11523438,62.0566406 L2.11523438,65.0800781 L6.41015625,65.0800781 L6.41015625,66 L0.990234375,66 L0.990234375,57.46875 L6.3515625,57.46875 L6.3515625,58.3945312 L2.11523438,58.3945312 L2.11523438,61.1367188 L5.8125,61.1367188 L5.8125,62.0566406 Z M10.7050781,60.6328125 C10.5410148,60.6054686 10.3632822,60.5917969 10.171875,60.5917969 C9.46093395,60.5917969 8.97851689,60.8945282 8.72460938,61.5 L8.72460938,66 L7.640625,66 L7.640625,59.6601562 L8.6953125,59.6601562 L8.71289062,60.3925781 C9.06836115,59.826169 9.57226236,59.5429688 10.2246094,59.5429688 C10.4355479,59.5429688 10.5957026,59.5703122 10.7050781,59.625 L10.7050781,60.6328125 Z M14.765625,60.6328125 C14.6015617,60.6054686 14.4238291,60.5917969 14.2324219,60.5917969 C13.5214808,60.5917969 13.0390638,60.8945282 12.7851562,61.5 L12.7851562,66 L11.7011719,66 L11.7011719,59.6601562 L12.7558594,59.6601562 L12.7734375,60.3925781 C13.128908,59.826169 13.6328092,59.5429688 14.2851562,59.5429688 C14.4960948,59.5429688 14.6562495,59.5703122 14.765625,59.625 L14.765625,60.6328125 Z M15.3574219,62.7714844 C15.3574219,62.1503875 15.479491,61.5917994 15.7236328,61.0957031 C15.9677747,60.5996069 16.307615,60.2167982 16.7431641,59.9472656 C17.1787131,59.677733 17.6757785,59.5429688 18.234375,59.5429688 C19.0976606,59.5429688 19.7958958,59.8417939 20.3291016,60.4394531 C20.8623074,61.0371124 21.1289062,61.8320263 21.1289062,62.8242188 L21.1289062,62.9003906 C21.1289062,63.5175812 21.0107434,64.0712866 20.7744141,64.5615234 C20.5380848,65.0517603 20.2001975,65.4335924 19.7607422,65.7070312 C19.3212869,65.9804701 18.8164091,66.1171875 18.2460938,66.1171875 C17.3867145,66.1171875 16.6904324,65.8183624 16.1572266,65.2207031 C15.6240208,64.6230439 15.3574219,63.8320362 15.3574219,62.8476562 L15.3574219,62.7714844 Z M16.4472656,62.9003906 C16.4472656,63.6035191 16.6103499,64.1679666 16.9365234,64.59375 C17.2626969,65.0195334 17.699216,65.2324219 18.2460938,65.2324219 C18.7968778,65.2324219 19.2343734,65.0166037 19.5585938,64.5849609 C19.8828141,64.1533182 20.0449219,63.548832 20.0449219,62.7714844 C20.0449219,62.0761684 19.8798845,61.5126975 19.5498047,61.0810547 C19.2197249,60.6494119 18.7812527,60.4335938 18.234375,60.4335938 C17.6992161,60.4335938 17.2675798,60.6464822 16.9394531,61.0722656 C16.6113265,61.498049 16.4472656,62.1074179 16.4472656,62.9003906 Z M25.5527344,60.6328125 C25.3886711,60.6054686 25.2109385,60.5917969 25.0195312,60.5917969 C24.3085902,60.5917969 23.8261731,60.8945282 23.5722656,61.5 L23.5722656,66 L22.4882812,66 L22.4882812,59.6601562 L23.5429688,59.6601562 L23.5605469,60.3925781 C23.9160174,59.826169 24.4199186,59.5429688 25.0722656,59.5429688 C25.2832042,59.5429688 25.4433588,59.5703122 25.5527344,59.625 L25.5527344,60.6328125 Z M30.5390625,59.6601562 L30.5683594,60.3632812 C31.0332054,59.8164035 31.6601523,59.5429688 32.4492188,59.5429688 C33.3359419,59.5429688 33.9394515,59.8828091 34.2597656,60.5625 C34.4707042,60.257811 34.7451155,60.0117197 35.0830078,59.8242188 C35.4209001,59.6367178 35.8203102,59.5429688 36.28125,59.5429688 C37.671882,59.5429688 38.3789061,60.2792895 38.4023438,61.7519531 L38.4023438,66 L37.3183594,66 L37.3183594,61.8164062 C37.3183594,61.363279 37.2148448,61.0244152 37.0078125,60.7998047 C36.8007802,60.5751942 36.4531274,60.4628906 35.9648438,60.4628906 C35.562498,60.4628906 35.228517,60.5830066 34.9628906,60.8232422 C34.6972643,61.0634778 34.542969,61.3867167 34.5,61.7929688 L34.5,66 L33.4101562,66 L33.4101562,61.8457031 C33.4101562,60.9238235 32.9589889,60.4628906 32.0566406,60.4628906 C31.3456996,60.4628906 30.8593763,60.765622 30.5976562,61.3710938 L30.5976562,66 L29.5136719,66 L29.5136719,59.6601562 L30.5390625,59.6601562 Z M42.6679688,66.1171875 C41.8085895,66.1171875 41.1093777,65.8349638 40.5703125,65.2705078 C40.0312473,64.7060519 39.7617188,63.9511766 39.7617188,63.0058594 L39.7617188,62.8066406 C39.7617188,62.1777312 39.8818347,61.6162134 40.1220703,61.1220703 C40.3623059,60.6279272 40.69824,60.2412123 41.1298828,59.9619141 C41.5615256,59.6826158 42.0292944,59.5429688 42.5332031,59.5429688 C43.357426,59.5429688 43.9980446,59.8144504 44.4550781,60.3574219 C44.9121117,60.9003933 45.140625,61.6777293 45.140625,62.6894531 L45.140625,63.140625 L40.8457031,63.140625 C40.8613282,63.7656281 41.0439436,64.2705059 41.3935547,64.6552734 C41.7431658,65.040041 42.1874973,65.2324219 42.7265625,65.2324219 C43.1093769,65.2324219 43.4335924,65.1542977 43.6992188,64.9980469 C43.9648451,64.8417961 44.1972646,64.6347669 44.3964844,64.3769531 L45.0585938,64.8925781 C44.5273411,65.7089885 43.7304741,66.1171875 42.6679688,66.1171875 Z M42.5332031,60.4335938 C42.0957009,60.4335938 41.7285171,60.5927718 41.4316406,60.9111328 C41.1347641,61.2294938 40.9511722,61.6757784 40.8808594,62.25 L44.0566406,62.25 L44.0566406,62.1679688 C44.0253905,61.6171847 43.8769545,61.1904312 43.6113281,60.8876953 C43.3457018,60.5849594 42.9863304,60.4335938 42.5332031,60.4335938 Z M50.0859375,64.3183594 C50.0859375,64.0253892 49.975587,63.7978524 49.7548828,63.6357422 C49.5341786,63.473632 49.1494168,63.333985 48.6005859,63.2167969 C48.0517551,63.0996088 47.6162125,62.9589852 47.2939453,62.7949219 C46.9716781,62.6308586 46.7333992,62.435548 46.5791016,62.2089844 C46.4248039,61.9824207 46.3476562,61.7128922 46.3476562,61.4003906 C46.3476562,60.8808568 46.5673806,60.441408 47.0068359,60.0820312 C47.4462913,59.7226545 48.0078091,59.5429688 48.6914062,59.5429688 C49.4101598,59.5429688 49.9931618,59.7285138 50.4404297,60.0996094 C50.8876975,60.470705 51.1113281,60.9453096 51.1113281,61.5234375 L50.0214844,61.5234375 C50.0214844,61.226561 49.8955091,60.9707042 49.6435547,60.7558594 C49.3916003,60.5410146 49.0742207,60.4335938 48.6914062,60.4335938 C48.296873,60.4335938 47.9882824,60.5195304 47.765625,60.6914062 C47.5429676,60.8632821 47.4316406,61.0878892 47.4316406,61.3652344 C47.4316406,61.6269544 47.5351552,61.8242181 47.7421875,61.9570312 C47.9492198,62.0898444 48.3232395,62.2167963 48.8642578,62.3378906 C49.4052761,62.458985 49.8437483,62.6035148 50.1796875,62.7714844 C50.5156267,62.939454 50.7646476,63.1416004 50.9267578,63.3779297 C51.088868,63.614259 51.1699219,63.9023421 51.1699219,64.2421875 C51.1699219,64.8085966 50.9433616,65.2626936 50.4902344,65.6044922 C50.0371071,65.9462908 49.4492224,66.1171875 48.7265625,66.1171875 C48.2187475,66.1171875 47.7695332,66.0273446 47.3789062,65.8476562 C46.9882793,65.6679679 46.6826183,65.4169938 46.4619141,65.0947266 C46.2412098,64.7724593 46.1308594,64.42383 46.1308594,64.0488281 L47.2148438,64.0488281 C47.2343751,64.4121112 47.3798815,64.7001942 47.6513672,64.9130859 C47.9228529,65.1259776 48.2812478,65.2324219 48.7265625,65.2324219 C49.1367208,65.2324219 49.4658191,65.1494149 49.7138672,64.9833984 C49.9619153,64.817382 50.0859375,64.5957045 50.0859375,64.3183594 Z M56.2734375,64.3183594 C56.2734375,64.0253892 56.163087,63.7978524 55.9423828,63.6357422 C55.7216786,63.473632 55.3369168,63.333985 54.7880859,63.2167969 C54.2392551,63.0996088 53.8037125,62.9589852 53.4814453,62.7949219 C53.1591781,62.6308586 52.9208992,62.435548 52.7666016,62.2089844 C52.6123039,61.9824207 52.5351562,61.7128922 52.5351562,61.4003906 C52.5351562,60.8808568 52.7548806,60.441408 53.1943359,60.0820312 C53.6337913,59.7226545 54.1953091,59.5429688 54.8789062,59.5429688 C55.5976598,59.5429688 56.1806618,59.7285138 56.6279297,60.0996094 C57.0751975,60.470705 57.2988281,60.9453096 57.2988281,61.5234375 L56.2089844,61.5234375 C56.2089844,61.226561 56.0830091,60.9707042 55.8310547,60.7558594 C55.5791003,60.5410146 55.2617207,60.4335938 54.8789062,60.4335938 C54.484373,60.4335938 54.1757824,60.5195304 53.953125,60.6914062 C53.7304676,60.8632821 53.6191406,61.0878892 53.6191406,61.3652344 C53.6191406,61.6269544 53.7226552,61.8242181 53.9296875,61.9570312 C54.1367198,62.0898444 54.5107395,62.2167963 55.0517578,62.3378906 C55.5927761,62.458985 56.0312483,62.6035148 56.3671875,62.7714844 C56.7031267,62.939454 56.9521476,63.1416004 57.1142578,63.3779297 C57.276368,63.614259 57.3574219,63.9023421 57.3574219,64.2421875 C57.3574219,64.8085966 57.1308616,65.2626936 56.6777344,65.6044922 C56.2246071,65.9462908 55.6367224,66.1171875 54.9140625,66.1171875 C54.4062475,66.1171875 53.9570332,66.0273446 53.5664062,65.8476562 C53.1757793,65.6679679 52.8701183,65.4169938 52.6494141,65.0947266 C52.4287098,64.7724593 52.3183594,64.42383 52.3183594,64.0488281 L53.4023438,64.0488281 C53.4218751,64.4121112 53.5673815,64.7001942 53.8388672,64.9130859 C54.1103529,65.1259776 54.4687478,65.2324219 54.9140625,65.2324219 C55.3242208,65.2324219 55.6533191,65.1494149 55.9013672,64.9833984 C56.1494153,64.817382 56.2734375,64.5957045 56.2734375,64.3183594 Z M62.6835938,66 C62.6210934,65.8749994 62.5703127,65.6523454 62.53125,65.3320312 C62.0273412,65.8554714 61.4257847,66.1171875 60.7265625,66.1171875 C60.1015594,66.1171875 59.5888692,65.9404315 59.1884766,65.5869141 C58.7880839,65.2333967 58.5878906,64.785159 58.5878906,64.2421875 C58.5878906,63.5820279 58.8388647,63.0693378 59.3408203,62.7041016 C59.8427759,62.3388654 60.5488236,62.15625 61.4589844,62.15625 L62.5136719,62.15625 L62.5136719,61.6582031 C62.5136719,61.279295 62.4003918,60.9775402 62.1738281,60.7529297 C61.9472645,60.5283192 61.6132835,60.4160156 61.171875,60.4160156 C60.7851543,60.4160156 60.4609388,60.5136709 60.1992188,60.7089844 C59.9374987,60.9042979 59.8066406,61.1406236 59.8066406,61.4179688 L58.7167969,61.4179688 C58.7167969,61.1015609 58.8291004,60.7958999 59.0537109,60.5009766 C59.2783214,60.2060532 59.5830059,59.9726571 59.9677734,59.8007812 C60.352541,59.6289054 60.7753883,59.5429688 61.2363281,59.5429688 C61.9668005,59.5429688 62.5390604,59.7255841 62.953125,60.0908203 C63.3671896,60.4560565 63.5820312,60.9589812 63.5976562,61.5996094 L63.5976562,64.5175781 C63.5976562,65.0996123 63.6718743,65.5624983 63.8203125,65.90625 L63.8203125,66 L62.6835938,66 Z M60.8847656,65.1738281 C61.2246111,65.1738281 61.5468735,65.0859384 61.8515625,64.9101562 C62.1562515,64.7343741 62.3769524,64.5058608 62.5136719,64.2246094 L62.5136719,62.9238281 L61.6640625,62.9238281 C60.3359309,62.9238281 59.671875,63.3124961 59.671875,64.0898438 C59.671875,64.4296892 59.7851551,64.6953115 60.0117188,64.8867188 C60.2382824,65.078126 60.5292951,65.1738281 60.8847656,65.1738281 Z M65.0390625,62.7773438 C65.0390625,61.7890576 65.2675758,61.0029326 65.7246094,60.4189453 C66.1816429,59.834958 66.7871056,59.5429688 67.5410156,59.5429688 C68.314457,59.5429688 68.9179666,59.8164035 69.3515625,60.3632812 L69.4042969,59.6601562 L70.3945312,59.6601562 L70.3945312,65.8476562 C70.3945312,66.6679729 70.1513696,67.3144508 69.6650391,67.7871094 C69.1787085,68.259768 68.5253947,68.4960938 67.7050781,68.4960938 C67.2480446,68.4960938 66.8007834,68.3984385 66.3632812,68.203125 C65.9257791,68.0078115 65.591798,67.7402361 65.3613281,67.4003906 L65.9238281,66.75 C66.3886742,67.3242216 66.9570279,67.6113281 67.6289062,67.6113281 C68.1562526,67.6113281 68.5673813,67.4628921 68.8623047,67.1660156 C69.157228,66.8691391 69.3046875,66.4511746 69.3046875,65.9121094 L69.3046875,65.3671875 C68.8710916,65.86719 68.2793006,66.1171875 67.5292969,66.1171875 C66.7871057,66.1171875 66.1865257,65.8183624 65.7275391,65.2207031 C65.2685524,64.6230439 65.0390625,63.8085989 65.0390625,62.7773438 Z M66.1289062,62.9003906 C66.1289062,63.6152379 66.2753892,64.1767558 66.5683594,64.5849609 C66.8613296,64.9931661 67.2714817,65.1972656 67.7988281,65.1972656 C68.4824253,65.1972656 68.9843734,64.8867219 69.3046875,64.265625 L69.3046875,61.3710938 C68.9726546,60.765622 68.4746127,60.4628906 67.8105469,60.4628906 C67.2832005,60.4628906 66.8710952,60.6679667 66.5742188,61.078125 C66.2773423,61.4882833 66.1289062,62.0956991 66.1289062,62.9003906 Z M74.6601562,66.1171875 C73.800777,66.1171875 73.1015652,65.8349638 72.5625,65.2705078 C72.0234348,64.7060519 71.7539062,63.9511766 71.7539062,63.0058594 L71.7539062,62.8066406 C71.7539062,62.1777312 71.8740222,61.6162134 72.1142578,61.1220703 C72.3544934,60.6279272 72.6904275,60.2412123 73.1220703,59.9619141 C73.5537131,59.6826158 74.0214819,59.5429688 74.5253906,59.5429688 C75.3496135,59.5429688 75.9902321,59.8144504 76.4472656,60.3574219 C76.9042992,60.9003933 77.1328125,61.6777293 77.1328125,62.6894531 L77.1328125,63.140625 L72.8378906,63.140625 C72.8535157,63.7656281 73.0361311,64.2705059 73.3857422,64.6552734 C73.7353533,65.040041 74.1796848,65.2324219 74.71875,65.2324219 C75.1015644,65.2324219 75.4257799,65.1542977 75.6914062,64.9980469 C75.9570326,64.8417961 76.1894521,64.6347669 76.3886719,64.3769531 L77.0507812,64.8925781 C76.5195286,65.7089885 75.7226616,66.1171875 74.6601562,66.1171875 Z M74.5253906,60.4335938 C74.0878884,60.4335938 73.7207046,60.5927718 73.4238281,60.9111328 C73.1269516,61.2294938 72.9433597,61.6757784 72.8730469,62.25 L76.0488281,62.25 L76.0488281,62.1679688 C76.017578,61.6171847 75.869142,61.1904312 75.6035156,60.8876953 C75.3378893,60.5849594 74.9785179,60.4335938 74.5253906,60.4335938 Z" id="Error-message" fill="#D32F2F"></path>
                    </g>
                    <g id="Group-42" transform="translate(10.000000, 28.000000)" fill="#616161">
                        <path d="M2.9296875,15 L1.4296875,15 L1.4296875,3.625 L2.9296875,3.625 L2.9296875,15 Z M6.8125,6.546875 L6.859375,7.609375 C7.50521156,6.79687094 8.34895312,6.390625 9.390625,6.390625 C11.1770923,6.390625 12.0781249,7.39842742 12.09375,9.4140625 L12.09375,15 L10.6484375,15 L10.6484375,9.40625 C10.6432291,8.79687195 10.5039076,8.34635562 10.2304688,8.0546875 C9.95702988,7.76301938 9.53125289,7.6171875 8.953125,7.6171875 C8.48437266,7.6171875 8.07291844,7.74218625 7.71875,7.9921875 C7.36458156,8.24218875 7.08854266,8.57031047 6.890625,8.9765625 L6.890625,15 L5.4453125,15 L5.4453125,6.546875 L6.8125,6.546875 Z M21.4140625,10.8671875 C21.4140625,12.1536523 21.1197946,13.1901002 20.53125,13.9765625 C19.9427054,14.7630248 19.1458384,15.15625 18.140625,15.15625 C17.1145782,15.15625 16.3072946,14.8307324 15.71875,14.1796875 L15.71875,18.25 L14.2734375,18.25 L14.2734375,6.546875 L15.59375,6.546875 L15.6640625,7.484375 C16.2526071,6.75520469 17.0703073,6.390625 18.1171875,6.390625 C19.1328176,6.390625 19.936195,6.77343367 20.5273438,7.5390625 C21.1184925,8.30469133 21.4140625,9.36978484 21.4140625,10.734375 L21.4140625,10.8671875 Z M19.96875,10.703125 C19.96875,9.74999523 19.765627,8.99739859 19.359375,8.4453125 C18.953123,7.89322641 18.3958369,7.6171875 17.6875,7.6171875 C16.8124956,7.6171875 16.1562522,8.00520445 15.71875,8.78125 L15.71875,12.8203125 C16.1510438,13.5911497 16.8124955,13.9765625 17.703125,13.9765625 C18.3958368,13.9765625 18.9466125,13.7018257 19.3554688,13.1523438 C19.764325,12.6028618 19.96875,11.7864638 19.96875,10.703125 Z M28.46875,14.1640625 C27.9062472,14.8255241 27.0807346,15.15625 25.9921875,15.15625 C25.0911413,15.15625 24.4049503,14.8945339 23.9335938,14.3710938 C23.4622372,13.8476536 23.2239584,13.0729218 23.21875,12.046875 L23.21875,6.546875 L24.6640625,6.546875 L24.6640625,12.0078125 C24.6640625,13.2890689 25.1848906,13.9296875 26.2265625,13.9296875 C27.3307347,13.9296875 28.0651023,13.5182333 28.4296875,12.6953125 L28.4296875,6.546875 L29.875,6.546875 L29.875,15 L28.5,15 L28.46875,14.1640625 Z M34.03125,4.5 L34.03125,6.546875 L35.609375,6.546875 L35.609375,7.6640625 L34.03125,7.6640625 L34.03125,12.90625 C34.03125,13.2447934 34.1015618,13.4986971 34.2421875,13.6679688 C34.3828132,13.8372404 34.6223941,13.921875 34.9609375,13.921875 C35.127605,13.921875 35.3567694,13.8906253 35.6484375,13.828125 L35.6484375,15 C35.2682273,15.1041672 34.8984393,15.15625 34.5390625,15.15625 C33.8932259,15.15625 33.4062516,14.9609395 33.078125,14.5703125 C32.7499984,14.1796855 32.5859375,13.6250036 32.5859375,12.90625 L32.5859375,7.6640625 L31.046875,7.6640625 L31.046875,6.546875 L32.5859375,6.546875 L32.5859375,4.5 L34.03125,4.5 Z" id="Input-Copy"></path>
                    </g>
                </g>
            </g>
        </g>
    </g>
</svg>