<?xml version="1.0" encoding="UTF-8" standalone="no"?>
<svg width="302px" height="243px" viewBox="0 0 302 243" version="1.1" xmlns="http://www.w3.org/2000/svg" xmlns:xlink="http://www.w3.org/1999/xlink">
    <!-- Generator: Sketch 47.1 (45422) - http://www.bohemiancoding.com/sketch -->
    <title>accessibility-inputs-3</title>
    <desc>Created with Sketch.</desc>
    <style type="text/css">@import url('https://fonts.googleapis.com/css?family=Roboto:300,400,500');</style>
    <defs>
        <rect id="path-1" x="50" y="105" width="210" height="32" rx="2"></rect>
    </defs>
    <g id="Page-1" stroke="none" stroke-width="1" fill="none" fill-rule="evenodd">
        <g id="accessibility-inputs-3">
            <g id="Rectangle-4">
                <use fill="#FFFFFF" fill-rule="evenodd" xlink:href="#path-1"></use>
                <rect stroke="#BDBDBD" stroke-width="1" x="50.5" y="105.5" width="209" height="31" rx="2"></rect>
            </g>
            <path d="M51.4746094,95.9267578 L56.1914062,95.9267578 L56.1914062,97 L50.1552734,97 L50.1552734,87.046875 L51.4746094,87.046875 L51.4746094,95.9267578 Z M62.0566406,97 C61.9837236,96.8541659 61.9244794,96.5944029 61.8789062,96.2207031 C61.2910127,96.8313833 60.5891968,97.1367188 59.7734375,97.1367188 C59.0442672,97.1367188 58.4461286,96.9305034 57.9790039,96.5180664 C57.5118792,96.1056294 57.2783203,95.5826855 57.2783203,94.9492188 C57.2783203,94.1790326 57.5711234,93.5808941 58.1567383,93.1547852 C58.7423532,92.7286763 59.5660754,92.515625 60.6279297,92.515625 L61.8583984,92.515625 L61.8583984,91.9345703 C61.8583984,91.4925108 61.7262383,91.1404635 61.4619141,90.878418 C61.1975898,90.6163724 60.8079453,90.4853516 60.2929688,90.4853516 C59.8417946,90.4853516 59.4635432,90.5992827 59.1582031,90.8271484 C58.8528631,91.0550142 58.7001953,91.3307275 58.7001953,91.6542969 L57.4287109,91.6542969 C57.4287109,91.2851544 57.5597318,90.9285499 57.8217773,90.5844727 C58.0838229,90.2403954 58.4392881,89.9681 58.8881836,89.7675781 C59.3370791,89.5670563 59.830401,89.4667969 60.3681641,89.4667969 C61.2203819,89.4667969 61.8880184,89.6798481 62.3710938,90.105957 C62.8541691,90.5320659 63.1048176,91.1188114 63.1230469,91.8662109 L63.1230469,95.2705078 C63.1230469,95.9495477 63.2096346,96.4895813 63.3828125,96.890625 L63.3828125,97 L62.0566406,97 Z M59.9580078,96.0361328 C60.3544942,96.0361328 60.730467,95.9335948 61.0859375,95.7285156 C61.441408,95.5234365 61.6988924,95.2568376 61.8583984,94.9287109 L61.8583984,93.4111328 L60.8671875,93.4111328 C59.3177006,93.4111328 58.5429688,93.8645788 58.5429688,94.7714844 C58.5429688,95.1679707 58.6751289,95.4778635 58.9394531,95.7011719 C59.2037774,95.9244803 59.5432922,96.0361328 59.9580078,96.0361328 Z M71.3671875,93.3837891 C71.3671875,94.514003 71.1074245,95.4220343 70.5878906,96.1079102 C70.0683568,96.793786 69.3710981,97.1367188 68.4960938,97.1367188 C67.5618443,97.1367188 66.8395208,96.8063184 66.3291016,96.1455078 L66.2675781,97 L65.1054688,97 L65.1054688,86.5 L66.3701172,86.5 L66.3701172,90.4169922 C66.8805364,89.7835255 67.5846309,89.4667969 68.4824219,89.4667969 C69.3802128,89.4667969 70.0854467,89.8063117 70.5981445,90.4853516 C71.1108424,91.1643914 71.3671875,92.0940696 71.3671875,93.2744141 L71.3671875,93.3837891 Z M70.1025391,93.2402344 C70.1025391,92.3789019 69.9361996,91.713544 69.6035156,91.2441406 C69.2708317,90.7747372 68.7923208,90.5400391 68.1679688,90.5400391 C67.3339802,90.5400391 66.7347023,90.927405 66.3701172,91.7021484 L66.3701172,94.9013672 C66.7574889,95.6761106 67.361324,96.0634766 68.1816406,96.0634766 C68.7877634,96.0634766 69.2594384,95.8287784 69.5966797,95.359375 C69.933921,94.8899716 70.1025391,94.1835985 70.1025391,93.2402344 Z M76.0292969,97.1367188 C75.0266877,97.1367188 74.2109406,96.8074577 73.5820312,96.1489258 C72.9531219,95.4903938 72.6386719,94.609706 72.6386719,93.5068359 L72.6386719,93.2744141 C72.6386719,92.5406864 72.7788072,91.8855823 73.059082,91.309082 C73.3393569,90.7325818 73.73128,90.2814144 74.2348633,89.9555664 C74.7384465,89.6297184 75.2841767,89.4667969 75.8720703,89.4667969 C76.8336637,89.4667969 77.581052,89.7835255 78.1142578,90.4169922 C78.6474636,91.0504589 78.9140625,91.9573509 78.9140625,93.1376953 L78.9140625,93.6640625 L73.9033203,93.6640625 C73.9215496,94.3932328 74.1346008,94.9822569 74.5424805,95.4311523 C74.9503601,95.8800478 75.4687469,96.1044922 76.0976562,96.1044922 C76.5442731,96.1044922 76.9225245,96.0133473 77.2324219,95.8310547 C77.5423193,95.6487621 77.8134754,95.4072281 78.0458984,95.1064453 L78.8183594,95.7080078 C78.1985646,96.6604865 77.2688864,97.1367188 76.0292969,97.1367188 Z M75.8720703,90.5058594 C75.3616511,90.5058594 74.93327,90.6915672 74.5869141,91.0629883 C74.2405582,91.4344094 74.0263676,91.9550748 73.9443359,92.625 L77.6494141,92.625 L77.6494141,92.5292969 C77.6129555,91.8867155 77.4397802,91.3888364 77.1298828,91.0356445 C76.8199854,90.6824527 76.4007188,90.5058594 75.8720703,90.5058594 Z M81.7509766,97 L80.4863281,97 L80.4863281,86.5 L81.7509766,86.5 L81.7509766,97 Z" id="Label" fill="#616161"></path>
            <path d="M56.546875,150 L55.4160156,150 L55.4160156,146.056641 L51.1152344,146.056641 L51.1152344,150 L49.9902344,150 L49.9902344,141.46875 L51.1152344,141.46875 L51.1152344,145.136719 L55.4160156,145.136719 L55.4160156,141.46875 L56.546875,141.46875 L56.546875,150 Z M61.0058594,150.117188 C60.1464801,150.117188 59.4472683,149.834964 58.9082031,149.270508 C58.3691379,148.706052 58.0996094,147.951177 58.0996094,147.005859 L58.0996094,146.806641 C58.0996094,146.177731 58.2197254,145.616213 58.4599609,145.12207 C58.7001965,144.627927 59.0361307,144.241212 59.4677734,143.961914 C59.8994162,143.682616 60.367185,143.542969 60.8710938,143.542969 C61.6953166,143.542969 62.3359352,143.81445 62.7929688,144.357422 C63.2500023,144.900393 63.4785156,145.677729 63.4785156,146.689453 L63.4785156,147.140625 L59.1835938,147.140625 C59.1992188,147.765628 59.3818342,148.270506 59.7314453,148.655273 C60.0810564,149.040041 60.5253879,149.232422 61.0644531,149.232422 C61.4472675,149.232422 61.771483,149.154298 62.0371094,148.998047 C62.3027357,148.841796 62.5351553,148.634767 62.734375,148.376953 L63.3964844,148.892578 C62.8652317,149.708988 62.0683647,150.117188 61.0058594,150.117188 Z M60.8710938,144.433594 C60.4335916,144.433594 60.0664077,144.592772 59.7695312,144.911133 C59.4726548,145.229494 59.2890629,145.675778 59.21875,146.25 L62.3945312,146.25 L62.3945312,146.167969 C62.3632811,145.617185 62.2148451,145.190431 61.9492188,144.887695 C61.6835924,144.584959 61.324221,144.433594 60.8710938,144.433594 Z M65.9101562,150 L64.8261719,150 L64.8261719,141 L65.9101562,141 L65.9101562,150 Z M73,146.900391 C73,147.865239 72.7792991,148.642575 72.3378906,149.232422 C71.8964822,149.822269 71.2988319,150.117188 70.5449219,150.117188 C69.7753868,150.117188 69.1699241,149.873049 68.7285156,149.384766 L68.7285156,152.4375 L67.6445312,152.4375 L67.6445312,143.660156 L68.6347656,143.660156 L68.6875,144.363281 C69.1289085,143.816404 69.7421836,143.542969 70.5273438,143.542969 C71.2890663,143.542969 71.8915993,143.830075 72.3349609,144.404297 C72.7783225,144.978518 73,145.777339 73,146.800781 L73,146.900391 Z M71.9160156,146.777344 C71.9160156,146.062496 71.7636734,145.498049 71.4589844,145.083984 C71.1542954,144.66992 70.7363308,144.462891 70.2050781,144.462891 C69.5488248,144.462891 69.0566423,144.753903 68.7285156,145.335938 L68.7285156,148.365234 C69.052736,148.943362 69.5488248,149.232422 70.2167969,149.232422 C70.7363307,149.232422 71.1494125,149.026369 71.4560547,148.614258 C71.7626968,148.202146 71.9160156,147.589848 71.9160156,146.777344 Z M77.0078125,150.117188 C76.1484332,150.117188 75.4492214,149.834964 74.9101562,149.270508 C74.3710911,148.706052 74.1015625,147.951177 74.1015625,147.005859 L74.1015625,146.806641 C74.1015625,146.177731 74.2216785,145.616213 74.4619141,145.12207 C74.7021496,144.627927 75.0380838,144.241212 75.4697266,143.961914 C75.9013693,143.682616 76.3691381,143.542969 76.8730469,143.542969 C77.6972697,143.542969 78.3378883,143.81445 78.7949219,144.357422 C79.2519554,144.900393 79.4804688,145.677729 79.4804688,146.689453 L79.4804688,147.140625 L75.1855469,147.140625 C75.201172,147.765628 75.3837873,148.270506 75.7333984,148.655273 C76.0830096,149.040041 76.5273411,149.232422 77.0664062,149.232422 C77.4492207,149.232422 77.7734362,149.154298 78.0390625,148.998047 C78.3046888,148.841796 78.5371084,148.634767 78.7363281,148.376953 L79.3984375,148.892578 C78.8671848,149.708988 78.0703178,150.117188 77.0078125,150.117188 Z M76.8730469,144.433594 C76.4355447,144.433594 76.0683609,144.592772 75.7714844,144.911133 C75.4746079,145.229494 75.291016,145.675778 75.2207031,146.25 L78.3964844,146.25 L78.3964844,146.167969 C78.3652342,145.617185 78.2167982,145.190431 77.9511719,144.887695 C77.6855455,144.584959 77.3261741,144.433594 76.8730469,144.433594 Z M83.7988281,144.632812 C83.6347648,144.605469 83.4570322,144.591797 83.265625,144.591797 C82.5546839,144.591797 82.0722669,144.894528 81.8183594,145.5 L81.8183594,150 L80.734375,150 L80.734375,143.660156 L81.7890625,143.660156 L81.8066406,144.392578 C82.1621112,143.826169 82.6660124,143.542969 83.3183594,143.542969 C83.5292979,143.542969 83.6894526,143.570312 83.7988281,143.625 L83.7988281,144.632812 Z M89.2363281,142.125 L89.2363281,143.660156 L90.4199219,143.660156 L90.4199219,144.498047 L89.2363281,144.498047 L89.2363281,148.429688 C89.2363281,148.683595 89.289062,148.874023 89.3945312,149.000977 C89.5000005,149.12793 89.6796862,149.191406 89.9335938,149.191406 C90.0585944,149.191406 90.2304677,149.167969 90.4492188,149.121094 L90.4492188,150 C90.1640611,150.078125 89.8867201,150.117188 89.6171875,150.117188 C89.1328101,150.117188 88.7675794,149.970705 88.5214844,149.677734 C88.2753894,149.384764 88.1523438,148.968753 88.1523438,148.429688 L88.1523438,144.498047 L86.9980469,144.498047 L86.9980469,143.660156 L88.1523438,143.660156 L88.1523438,142.125 L89.2363281,142.125 Z M94.3164062,150.117188 C93.457027,150.117188 92.7578152,149.834964 92.21875,149.270508 C91.6796848,148.706052 91.4101562,147.951177 91.4101562,147.005859 L91.4101562,146.806641 C91.4101562,146.177731 91.5302722,145.616213 91.7705078,145.12207 C92.0107434,144.627927 92.3466775,144.241212 92.7783203,143.961914 C93.2099631,143.682616 93.6777319,143.542969 94.1816406,143.542969 C95.0058635,143.542969 95.6464821,143.81445 96.1035156,144.357422 C96.5605492,144.900393 96.7890625,145.677729 96.7890625,146.689453 L96.7890625,147.140625 L92.4941406,147.140625 C92.5097657,147.765628 92.6923811,148.270506 93.0419922,148.655273 C93.3916033,149.040041 93.8359348,149.232422 94.375,149.232422 C94.7578144,149.232422 95.0820299,149.154298 95.3476562,148.998047 C95.6132826,148.841796 95.8457021,148.634767 96.0449219,148.376953 L96.7070312,148.892578 C96.1757786,149.708988 95.3789116,150.117188 94.3164062,150.117188 Z M94.1816406,144.433594 C93.7441384,144.433594 93.3769546,144.592772 93.0800781,144.911133 C92.7832016,145.229494 92.5996097,145.675778 92.5292969,146.25 L95.7050781,146.25 L95.7050781,146.167969 C95.673828,145.617185 95.525392,145.190431 95.2597656,144.887695 C94.9941393,144.584959 94.6347679,144.433594 94.1816406,144.433594 Z M100.169922,145.974609 L101.576172,143.660156 L102.841797,143.660156 L100.767578,146.794922 L102.90625,150 L101.652344,150 L100.1875,147.626953 L98.7226562,150 L97.4628906,150 L99.6015625,146.794922 L97.5273438,143.660156 L98.78125,143.660156 L100.169922,145.974609 Z M105.460938,142.125 L105.460938,143.660156 L106.644531,143.660156 L106.644531,144.498047 L105.460938,144.498047 L105.460938,148.429688 C105.460938,148.683595 105.513671,148.874023 105.619141,149.000977 C105.72461,149.12793 105.904296,149.191406 106.158203,149.191406 C106.283204,149.191406 106.455077,149.167969 106.673828,149.121094 L106.673828,150 C106.38867,150.078125 106.111329,150.117188 105.841797,150.117188 C105.357419,150.117188 104.992189,149.970705 104.746094,149.677734 C104.499999,149.384764 104.376953,148.968753 104.376953,148.429688 L104.376953,144.498047 L103.222656,144.498047 L103.222656,143.660156 L104.376953,143.660156 L104.376953,142.125 L105.460938,142.125 Z" id="Helper-text" fill="#9E9E9E"></path>
        </g>
    </g>
</svg>