<?xml version="1.0" encoding="UTF-8" standalone="no"?>
<svg width="283px" height="181px" viewBox="0 0 283 181" version="1.1" xmlns="http://www.w3.org/2000/svg" xmlns:xlink="http://www.w3.org/1999/xlink">
    <!-- Generator: Sketch 47.1 (45422) - http://www.bohemiancoding.com/sketch -->
    <title>accessibility-space-1</title>
    <desc>Created with Sketch.</desc>
    <defs></defs>
    <g id="Page-1" stroke="none" stroke-width="1" fill="none" fill-rule="evenodd">
        <g id="accessibility-space-1">
            <path d="M4.42565389,10.4726166 L4.42565389,15.4624746 L4,15.4624746 L4,3.64908722 L7.58652813,3.64908722 C8.75839592,3.64908722 9.66881319,3.95334381 10.3178072,4.56186613 C10.9668013,5.17038844 11.2912934,6.01554564 11.2912934,7.09736308 C11.2912934,8.16836235 10.9746837,8.99594028 10.3414547,9.5801217 C9.70822566,10.1643031 8.80831827,10.4617985 7.64170548,10.4726166 L4.42565389,10.4726166 Z M4.42565389,10.0344828 L7.58652813,10.0344828 C8.6217656,10.0344828 9.42708419,9.77755497 10.0025081,9.26369168 C10.5779319,8.7498284 10.8656396,8.03313509 10.8656396,7.11359026 C10.8656396,6.16159091 10.5779319,5.41920483 10.0025081,4.88640974 C9.42708419,4.35361465 8.6217656,4.0872211 7.58652813,4.0872211 L4.42565389,4.0872211 L4.42565389,10.0344828 Z M18.8978861,15.4624746 C18.7927858,15.0892476 18.7402365,14.553756 18.7402365,13.8559838 C18.4039157,14.4185288 17.944109,14.8539538 17.3608026,15.1622718 C16.7774962,15.4705898 16.118002,15.6247465 15.3823003,15.6247465 C14.5940484,15.6247465 13.9595151,15.4043295 13.4786815,14.9634888 C12.9978478,14.5226482 12.7574346,13.9479413 12.7574346,13.2393509 C12.7574346,12.4333969 13.1108289,11.7883729 13.8176281,11.3042596 C14.5244273,10.8201463 15.4637467,10.5726843 16.6356145,10.5618661 L18.7402365,10.5618661 L18.7402365,9.27991886 C18.7402365,8.544283 18.5155881,7.97363286 18.0662845,7.56795132 C17.6169809,7.16226978 16.9745653,6.95943205 16.1390183,6.95943205 C15.3612764,6.95943205 14.7122921,7.16497428 14.1920459,7.57606491 C13.6717996,7.98715554 13.4116804,8.49560211 13.4116804,9.10141988 L12.9860265,9.0851927 C12.9860265,8.37119318 13.2908127,7.7653845 13.9003941,7.26774848 C14.5099756,6.77011245 15.2561762,6.52129817 16.1390183,6.52129817 C17.0586455,6.52129817 17.7890813,6.75794219 18.3303475,7.23123732 C18.8716138,7.70453245 19.1501253,8.37119245 19.1658904,9.23123732 L19.1658904,13.4259635 C19.1658904,14.388781 19.2394594,15.0432708 19.3865998,15.3894523 L19.3865998,15.4624746 L18.8978861,15.4624746 Z M15.3823003,15.1947262 C16.1810622,15.1947262 16.8681447,15.01082 17.4435686,14.643002 C18.0189925,14.2751841 18.4512108,13.758624 18.7402365,13.0933063 L18.7402365,11.0081136 L16.7696166,11.0081136 C15.5504537,11.0081136 14.617703,11.2569279 13.9713364,11.7545639 C13.4458352,12.1602454 13.1830885,12.6659875 13.1830885,13.2718053 C13.1830885,13.8073049 13.3906584,14.2616614 13.8058044,14.6348884 C14.2209504,15.0081155 14.7464437,15.1947262 15.3823003,15.1947262 Z M21.5069867,10.9837728 C21.5069867,9.58281923 21.7933806,8.48884775 22.366177,7.70182556 C22.9389734,6.91480337 23.724586,6.52129817 24.7230383,6.52129817 C25.3588949,6.52129817 25.9238002,6.67139809 26.4177714,6.97160243 C26.9117426,7.27180677 27.3084901,7.71128852 27.6080258,8.29006085 L27.6080258,6.68356998 L28.0415622,6.68356998 L28.0415622,15.3083164 C28.0415622,16.4658611 27.7525408,17.3705174 27.1744894,18.0223124 C26.5964381,18.6741074 25.8108255,19 24.8176281,19 C24.2448317,19 23.7206521,18.8728884 23.2450735,18.6186613 C22.7694948,18.3644342 22.3635512,17.9993262 22.0272304,17.5233266 L22.3267646,17.2312373 C22.6578304,17.6639643 23.0204208,17.9952659 23.4145468,18.2251521 C23.8086727,18.4550383 24.2711069,18.5699797 24.8018631,18.5699797 C25.6794502,18.5699797 26.3625916,18.2954727 26.8513078,17.7464503 C27.3400239,17.197428 27.5922608,16.4225878 27.6080258,15.4219067 L27.6080258,14.0750507 C27.3137451,14.5726867 26.9156839,14.9553739 26.4138302,15.2231237 C25.9119765,15.4908735 25.3431299,15.6247465 24.7072734,15.6247465 C23.719331,15.6247465 22.9389734,15.2217755 22.366177,14.4158215 C21.7933806,13.6098675 21.5069867,12.5037258 21.5069867,11.0973631 L21.5069867,10.9837728 Z M21.9405231,11.1541582 C21.9405231,12.4090665 22.1822501,13.3948578 22.6657112,14.1115619 C23.1491724,14.8282659 23.8270588,15.1866126 24.6993909,15.1866126 C25.4193276,15.1866126 26.0315274,15.0148766 26.5360086,14.6713996 C27.0404898,14.3279226 27.3978253,13.8451688 27.6080258,13.2231237 L27.6080258,9.23935091 C27.1455847,7.7193974 26.1813044,6.95943205 24.7151559,6.95943205 C23.8375688,6.95943205 23.1557411,7.31372195 22.6696525,8.02231237 C22.1835638,8.7309028 21.9405231,9.77484097 21.9405231,11.1541582 Z M33.827302,15.6247465 C33.1388954,15.6247465 32.5069896,15.434079 31.9315657,15.0527383 C31.3561419,14.6713977 30.9055313,14.1480763 30.5797205,13.4827586 C30.2539098,12.8174409 30.0910068,12.0791116 30.0910068,11.2677485 L30.0910068,10.9026369 C30.0910068,10.0912738 30.2486548,9.3475355 30.5639556,8.67139959 C30.8792563,7.99526369 31.3127884,7.4678856 31.8645647,7.08924949 C32.416341,6.71061339 33.0180309,6.52129817 33.6696525,6.52129817 C34.6208097,6.52129817 35.3985399,6.87017907 36.0028664,7.56795132 C36.6071928,8.26572357 36.9093515,9.1825501 36.9093515,10.3184584 L36.9093515,10.7809331 L30.5166607,10.7809331 L30.5166607,11.2596349 C30.5166607,11.9736344 30.6624851,12.6348854 30.9541383,13.2434077 C31.2457915,13.85193 31.6477939,14.3292748 32.1601576,14.6754564 C32.6725214,15.021638 33.2282306,15.1947262 33.827302,15.1947262 C34.4000984,15.1947262 34.8874935,15.0960118 35.289502,14.8985801 C35.6915104,14.7011484 36.0475322,14.3968918 36.3575779,13.9858012 L36.6571121,14.2048682 C36.0212556,15.1514584 35.077995,15.6247465 33.827302,15.6247465 Z M33.6696525,6.95943205 C32.8393605,6.95943205 32.1351994,7.27721116 31.557148,7.9127789 C30.9790966,8.54834665 30.6401534,9.35834531 30.5403081,10.3427992 L36.4836976,10.3427992 L36.4836976,10.2373225 C36.4836976,9.64232292 36.3615204,9.08925205 36.1171623,8.57809331 C35.8728042,8.06693456 35.5364885,7.66937262 35.1082049,7.38539554 C34.6799214,7.10141846 34.2004087,6.95943205 33.6696525,6.95943205 Z M50.301684,4.0872211 L46.1239699,4.0872211 L46.1239699,15.4624746 L45.698316,15.4624746 L45.698316,4.0872211 L41.5206019,4.0872211 L41.5206019,3.64908722 L50.301684,3.64908722 L50.301684,4.0872211 Z M52.6191329,15.4624746 L52.193479,15.4624746 L52.193479,6.68356998 L52.6191329,6.68356998 L52.6191329,15.4624746 Z M51.9727696,3.94117647 C51.9727696,3.81676746 52.0148091,3.70993959 52.0988893,3.62068966 C52.1829695,3.53143972 52.2854407,3.48681542 52.406306,3.48681542 C52.5271713,3.48681542 52.6309562,3.53143972 52.7176639,3.62068966 C52.8043716,3.70993959 52.8477248,3.81676746 52.8477248,3.94117647 C52.8477248,4.06558548 52.8043716,4.1710611 52.7176639,4.25760649 C52.6309562,4.34415189 52.5271713,4.38742394 52.406306,4.38742394 C52.2854407,4.38742394 52.1829695,4.34415189 52.0988893,4.25760649 C52.0148091,4.1710611 51.9727696,4.06558548 51.9727696,3.94117647 Z M56.3711931,4.31440162 L56.3711931,6.68356998 L58.3102831,6.68356998 L58.3102831,7.12981744 L56.3711931,7.12981744 L56.3711931,13.3610548 C56.3711931,13.9830998 56.4697231,14.4428653 56.6667861,14.7403651 C56.8638491,15.0378649 57.1935962,15.1866126 57.6560373,15.1866126 C57.8872578,15.1866126 58.1683968,15.162272 58.4994626,15.1135903 L58.5704049,15.5273834 C58.3969895,15.5922924 58.1000857,15.6247465 57.6796847,15.6247465 C57.0595932,15.6247465 56.6155513,15.4476015 56.3475457,15.0933063 C56.07954,14.7390111 55.9429118,14.1805312 55.9376568,13.4178499 L55.9376568,7.12981744 L54.3611609,7.12981744 L54.3611609,6.68356998 L55.9376568,6.68356998 L55.9376568,4.31440162 L56.3711931,4.31440162 Z M61.0533859,15.4624746 L60.627732,15.4624746 L60.627732,3 L61.0533859,3 L61.0533859,15.4624746 Z M66.9179506,15.6247465 C66.2295439,15.6247465 65.5976381,15.434079 65.0222143,15.0527383 C64.4467904,14.6713977 63.9961798,14.1480763 63.670369,13.4827586 C63.3445583,12.8174409 63.1816553,12.0791116 63.1816553,11.2677485 L63.1816553,10.9026369 C63.1816553,10.0912738 63.3393033,9.3475355 63.6546041,8.67139959 C63.9699048,7.99526369 64.4034369,7.4678856 64.9552132,7.08924949 C65.5069895,6.71061339 66.1086794,6.52129817 66.760301,6.52129817 C67.7114582,6.52129817 68.4891884,6.87017907 69.0935149,7.56795132 C69.6978413,8.26572357 70,9.1825501 70,10.3184584 L70,10.7809331 L63.6073092,10.7809331 L63.6073092,11.2596349 C63.6073092,11.9736344 63.7531336,12.6348854 64.0447868,13.2434077 C64.33644,13.85193 64.7384424,14.3292748 65.2508062,14.6754564 C65.7631699,15.021638 66.3188791,15.1947262 66.9179506,15.1947262 C67.4907469,15.1947262 67.978142,15.0960118 68.3801505,14.8985801 C68.7821589,14.7011484 69.1381807,14.3968918 69.4482264,13.9858012 L69.7477607,14.2048682 C69.1119041,15.1514584 68.1686435,15.6247465 66.9179506,15.6247465 Z M66.760301,6.95943205 C65.930009,6.95943205 65.2258479,7.27721116 64.6477965,7.9127789 C64.0697451,8.54834665 63.7308019,9.35834531 63.6309566,10.3427992 L69.5743461,10.3427992 L69.5743461,10.2373225 C69.5743461,9.64232292 69.4521689,9.08925205 69.2078108,8.57809331 C68.9634527,8.06693456 68.627137,7.66937262 68.1988535,7.38539554 C67.7705699,7.10141846 67.2910572,6.95943205 66.760301,6.95943205 Z" id="Page-Title" fill="#424242"></path>
            <path d="M6.81040037,24.5424165 C6.81040037,24.2313609 6.69305225,23.9852194 6.45835251,23.8039846 C6.22365276,23.6227497 5.79429672,23.450515 5.17027151,23.2872751 C4.5462463,23.1240352 4.09065951,22.9460164 3.80349747,22.7532134 C3.39484379,22.4807184 3.19052002,22.1233955 3.19052002,21.6812339 C3.19052002,21.2519259 3.38034785,20.9029576 3.7600092,20.6343188 C4.13967056,20.3656799 4.62493952,20.2313625 5.21583065,20.2313625 C5.61620081,20.2313625 5.97445769,20.3033412 6.29061206,20.4473008 C6.60676642,20.5912604 6.85181689,20.7917725 7.02577082,21.0488432 C7.19972475,21.3059139 7.28670041,21.5925434 7.28670041,21.9087404 L6.77312471,21.9087404 C6.77312471,21.525705 6.63230698,21.2178675 6.35066728,20.9852185 C6.06902758,20.7525695 5.69075249,20.6362468 5.21583065,20.6362468 C4.75471468,20.6362468 4.38748411,20.7320042 4.11412793,20.9235219 C3.84077176,21.1150395 3.70409572,21.365037 3.70409572,21.6735219 C3.70409572,21.9588703 3.8269661,22.1915158 4.07271054,22.3714653 C4.31845498,22.5514148 4.7119163,22.7101536 5.2531063,22.8476864 C5.79429631,22.9852192 6.20432442,23.1278913 6.48320295,23.2757069 C6.76208147,23.4235226 6.97192751,23.600256 7.11274735,23.8059126 C7.2535672,24.0115692 7.32397607,24.2544973 7.32397607,24.5347044 C7.32397607,24.976866 7.13414824,25.3316182 6.75448688,25.5989717 C6.37482553,25.8663252 5.87437034,26 5.2531063,26 C4.82788559,26 4.43787568,25.9293066 4.08306489,25.7879177 C3.72825409,25.6465289 3.45904372,25.4485874 3.27542568,25.1940874 C3.09180764,24.9395874 3,24.6478166 3,24.3187661 L3.50943396,24.3187661 C3.50943396,24.7146549 3.66819906,25.0269911 3.98573401,25.2557841 C4.30326896,25.484577 4.72572217,25.5989717 5.2531063,25.5989717 C5.7225058,25.5989717 6.09940033,25.5025717 6.3838012,25.3097686 C6.66820207,25.1169656 6.81040037,24.8611841 6.81040037,24.5424165 Z M10.0409572,26 C9.65991526,26 9.31546403,25.9125973 9.00759319,25.7377892 C8.69972234,25.5629811 8.46019414,25.3194103 8.28900138,25.0070694 C8.11780862,24.6947285 8.03221353,24.3444749 8.03221353,23.9562982 L8.03221353,23.7904884 C8.03221353,23.3894581 8.11573777,23.0282792 8.28278877,22.7069409 C8.44983977,22.3856025 8.68246514,22.1330343 8.98067188,21.9492288 C9.27887862,21.7654232 9.60193107,21.6735219 9.94983893,21.6735219 C10.4937901,21.6735219 10.925217,21.8463993 11.2441325,22.1921594 C11.5630481,22.5379195 11.7225035,23.0102798 11.7225035,23.6092545 L11.7225035,23.8676093 L8.52508053,23.8676093 L8.52508053,23.9562982 C8.52508053,24.4293083 8.67073025,24.8232632 8.96203405,25.1381748 C9.25333786,25.4530864 9.61987814,25.6105398 10.0616659,25.6105398 C10.3267386,25.6105398 10.5607445,25.5655531 10.7636908,25.4755784 C10.966637,25.3856037 11.1509426,25.2416462 11.316613,25.0437018 L11.6272434,25.2634961 C11.2627685,25.7545012 10.7340117,26 10.0409572,26 Z M9.94983893,22.066838 C9.57708051,22.066838 9.26300174,22.1940861 9.00759319,22.4485861 C8.75218464,22.7030861 8.59687096,23.044985 8.54164749,23.4742931 L11.2296364,23.4742931 L11.2296364,23.4241645 C11.2158306,23.0231342 11.0929602,22.6966594 10.8610216,22.4447301 C10.6290831,22.1928008 10.3253585,22.066838 9.94983893,22.066838 Z M14.3442246,25.6105398 C14.6893713,25.6105398 14.9785998,25.5199238 15.211919,25.3386889 C15.4452382,25.1574541 15.57156,24.9228806 15.5908882,24.6349614 L16.0671882,24.6349614 C16.0533824,24.8894614 15.9677873,25.1214642 15.8104004,25.3309769 C15.6530135,25.5404895 15.4438577,25.7043696 15.1829268,25.8226221 C14.9219959,25.9408746 14.6424313,26 14.3442246,26 C13.7560946,26 13.2901536,25.8097705 12.9463875,25.4293059 C12.6026214,25.0488413 12.4307409,24.5372783 12.4307409,23.8946015 L12.4307409,23.7557841 C12.4307409,23.344471 12.5080526,22.9807214 12.6626783,22.6645244 C12.817304,22.3483275 13.0388849,22.104114 13.3274275,21.9318766 C13.6159701,21.7596392 13.9535185,21.6735219 14.3400828,21.6735219 C14.8315717,21.6735219 15.2367678,21.8097673 15.5556834,22.0822622 C15.8745989,22.3547571 16.0450988,22.7133654 16.0671882,23.1580977 L15.5908882,23.1580977 C15.5687988,22.8316179 15.442477,22.5681244 15.211919,22.3676093 C14.981361,22.1670941 14.6907519,22.066838 14.3400828,22.066838 C13.8927727,22.066838 13.5455604,22.2172221 13.2984353,22.5179949 C13.0513103,22.8187676 12.9277497,23.2403572 12.9277497,23.7827763 L12.9277497,23.9177378 C12.9277497,24.4498741 13.0513103,24.8650371 13.2984353,25.1632391 C13.5455604,25.4614411 13.8941533,25.6105398 14.3442246,25.6105398 Z M17.8274275,20.6825193 L17.8274275,21.7506427 L18.7551772,21.7506427 L18.7551772,22.1285347 L17.8274275,22.1285347 L17.8274275,24.9087404 C17.8274275,25.140104 17.8722959,25.3123388 17.9620341,25.4254499 C18.0517722,25.538561 18.2015636,25.5951157 18.4114128,25.5951157 C18.494248,25.5951157 18.6281629,25.5822623 18.8131615,25.5565553 L18.8338702,25.9344473 C18.7040951,25.9781493 18.5273826,26 18.3037276,26 C17.9641032,26 17.7169819,25.9080986 17.5623562,25.7242931 C17.4077305,25.5404875 17.3304188,25.2699247 17.3304188,24.9125964 L17.3304188,22.1285347 L16.5062126,22.1285347 L16.5062126,21.7506427 L17.3304188,21.7506427 L17.3304188,20.6825193 L17.8274275,20.6825193 Z M20.3373217,25.9228792 L19.8403129,25.9228792 L19.8403129,21.7506427 L20.3373217,21.7506427 L20.3373217,25.9228792 Z M19.7533364,20.5437018 C19.7533364,20.4562978 19.7837089,20.382391 19.8444547,20.3219794 C19.9052005,20.2615678 19.9880345,20.2313625 20.092959,20.2313625 C20.1978836,20.2313625 20.2814079,20.2615678 20.3435343,20.3219794 C20.4056607,20.382391 20.4367234,20.4562978 20.4367234,20.5437018 C20.4367234,20.6311058 20.4056607,20.7043699 20.3435343,20.7634961 C20.2814079,20.8226224 20.1978836,20.8521851 20.092959,20.8521851 C19.9880345,20.8521851 19.9052005,20.8226224 19.8444547,20.7634961 C19.7837089,20.7043699 19.7533364,20.6311058 19.7533364,20.5437018 Z M21.4100322,23.7750643 C21.4100322,23.374034 21.4935565,23.0128551 21.6606075,22.6915167 C21.8276585,22.3701783 22.0637352,22.1201808 22.3688449,21.9415167 C22.6739546,21.7628526 23.0197864,21.6735219 23.4063507,21.6735219 C24.0027641,21.6735219 24.4859623,21.86825 24.8559595,22.2577121 C25.2259568,22.6471742 25.4109526,23.1632359 25.4109526,23.8059126 L25.4109526,23.9023136 C25.4109526,24.3059146 25.3274284,24.6690215 25.1603774,24.9916452 C24.9933264,25.314269 24.7579399,25.5629811 24.4542108,25.7377892 C24.1504817,25.9125973 23.8039596,26 23.4146341,26 C22.8209818,26 22.338474,25.8052719 21.9670962,25.4158098 C21.5957183,25.0263477 21.4100322,24.510286 21.4100322,23.8676093 L21.4100322,23.7750643 Z M21.907041,23.9023136 C21.907041,24.4010308 22.0457878,24.8104097 22.3232858,25.1304627 C22.6007837,25.4505157 22.9645629,25.6105398 23.4146341,25.6105398 C23.8619443,25.6105398 24.2243428,25.4505157 24.5018408,25.1304627 C24.7793387,24.8104097 24.9180856,24.3881774 24.9180856,23.8637532 L24.9180856,23.7750643 C24.9180856,23.4562966 24.8545796,23.1645257 24.7275656,22.8997429 C24.6005516,22.6349601 24.4224586,22.4299493 24.1932812,22.2847044 C23.9641038,22.1394594 23.7017962,22.066838 23.4063507,22.066838 C22.9645629,22.066838 22.6042352,22.2281475 22.3253566,22.5507712 C22.0464781,22.8733949 21.907041,23.2956272 21.907041,23.8174807 L21.907041,23.9023136 Z M26.9061206,21.7506427 L26.9226875,22.4640103 C27.0911191,22.2069396 27.3009651,22.0109261 27.5522319,21.875964 C27.8034987,21.7410019 28.0809925,21.6735219 28.3847216,21.6735219 C28.8651658,21.6735219 29.2227324,21.7994846 29.4574321,22.0514139 C29.6921319,22.3033432 29.8108605,22.6812314 29.8136217,23.18509 L29.8136217,25.9228792 L29.3207547,25.9228792 L29.3207547,23.1812339 C29.3179935,22.8084814 29.2330887,22.5308492 29.0660377,22.348329 C28.8989867,22.1658089 28.6318472,22.0745501 28.2646111,22.0745501 C27.9581209,22.0745501 27.6868397,22.1638809 27.4507593,22.342545 C27.214679,22.5212091 27.0400374,22.7622093 26.9268293,23.0655527 L26.9268293,25.9228792 L26.4339623,25.9228792 L26.4339623,21.7506427 L26.9061206,21.7506427 Z M37.1983433,20.7133676 L35.1316153,20.7133676 L35.1316153,25.9228792 L34.6221813,25.9228792 L34.6221813,20.7133676 L32.559595,20.7133676 L32.559595,20.3084833 L37.1983433,20.3084833 L37.1983433,20.7133676 Z M38.6106765,25.9228792 L38.1136677,25.9228792 L38.1136677,21.7506427 L38.6106765,21.7506427 L38.6106765,25.9228792 Z M38.0266912,20.5437018 C38.0266912,20.4562978 38.0570637,20.382391 38.1178095,20.3219794 C38.1785553,20.2615678 38.2613893,20.2313625 38.3663139,20.2313625 C38.4712384,20.2313625 38.5547627,20.2615678 38.6168891,20.3219794 C38.6790155,20.382391 38.7100782,20.4562978 38.7100782,20.5437018 C38.7100782,20.6311058 38.6790155,20.7043699 38.6168891,20.7634961 C38.5547627,20.8226224 38.4712384,20.8521851 38.3663139,20.8521851 C38.2613893,20.8521851 38.1785553,20.8226224 38.1178095,20.7634961 C38.0570637,20.7043699 38.0266912,20.6311058 38.0266912,20.5437018 Z M40.7271054,20.6825193 L40.7271054,21.7506427 L41.654855,21.7506427 L41.654855,22.1285347 L40.7271054,22.1285347 L40.7271054,24.9087404 C40.7271054,25.140104 40.7719738,25.3123388 40.8617119,25.4254499 C40.9514501,25.538561 41.1012415,25.5951157 41.3110907,25.5951157 C41.3939259,25.5951157 41.5278408,25.5822623 41.7128394,25.5565553 L41.7335481,25.9344473 C41.6037729,25.9781493 41.4270605,26 41.2034054,26 C40.8637811,26 40.6166598,25.9080986 40.4620341,25.7242931 C40.3074083,25.5404875 40.2300966,25.2699247 40.2300966,24.9125964 L40.2300966,22.1285347 L39.4058905,22.1285347 L39.4058905,21.7506427 L40.2300966,21.7506427 L40.2300966,20.6825193 L40.7271054,20.6825193 Z M43.2369995,25.9228792 L42.7399908,25.9228792 L42.7399908,20 L43.2369995,20 L43.2369995,25.9228792 Z M46.3184538,26 C45.9374118,26 45.5929606,25.9125973 45.2850897,25.7377892 C44.9772189,25.5629811 44.7376907,25.3194103 44.5664979,25.0070694 C44.3953052,24.6947285 44.3097101,24.3444749 44.3097101,23.9562982 L44.3097101,23.7904884 C44.3097101,23.3894581 44.3932343,23.0282792 44.5602853,22.7069409 C44.7273363,22.3856025 44.9599617,22.1330343 45.2581684,21.9492288 C45.5563752,21.7654232 45.8794276,21.6735219 46.2273355,21.6735219 C46.7712867,21.6735219 47.2027135,21.8463993 47.5216291,22.1921594 C47.8405446,22.5379195 48,23.0102798 48,23.6092545 L48,23.8676093 L44.8025771,23.8676093 L44.8025771,23.9562982 C44.8025771,24.4293083 44.9482268,24.8232632 45.2395306,25.1381748 C45.5308344,25.4530864 45.8973747,25.6105398 46.3391624,25.6105398 C46.6042351,25.6105398 46.838241,25.5655531 47.0411873,25.4755784 C47.2441336,25.3856037 47.4284391,25.2416462 47.5941095,25.0437018 L47.90474,25.2634961 C47.5402651,25.7545012 47.0115083,26 46.3184538,26 Z M46.2273355,22.066838 C45.8545771,22.066838 45.5404983,22.1940861 45.2850897,22.4485861 C45.0296812,22.7030861 44.8743675,23.044985 44.819144,23.4742931 L47.507133,23.4742931 L47.507133,23.4241645 C47.4933271,23.0231342 47.3704568,22.6966594 47.1385182,22.4447301 C46.9065796,22.1928008 46.6028551,22.066838 46.2273355,22.066838 Z" id="Section-Title" fill="#424242"></path>
            <rect id="Rectangle" fill="#C9C8C8" x="190" y="46" width="88" height="64"></rect>
            <path d="M5.01370495,75.4203085 C4.37356646,75.2377883 3.90772367,75.0134975 3.61616261,74.7474293 C3.32460156,74.4813611 3.17882322,74.1529583 3.17882322,73.7622108 C3.17882322,73.3200492 3.35699675,72.9543716 3.71334915,72.6651671 C4.06970155,72.3759626 4.53295272,72.2313625 5.10311656,72.2313625 C5.49186463,72.2313625 5.83849313,72.3059119 6.14301245,72.4550129 C6.44753178,72.6041139 6.68336874,72.8097673 6.85053041,73.0719794 C7.01769208,73.3341915 7.10127166,73.6208211 7.10127166,73.9318766 L6.35099163,73.9318766 C6.35099163,73.5925433 6.2421438,73.3258364 6.02444488,73.1317481 C5.80674596,72.9376597 5.49963959,72.840617 5.10311656,72.840617 C4.73510172,72.840617 4.44808036,72.9209504 4.24204388,73.0816195 C4.0360074,73.2422887 3.93299071,73.4652942 3.93299071,73.7506427 C3.93299071,73.9794356 4.03082417,74.1728784 4.22649404,74.3309769 C4.4221639,74.4890753 4.75518642,74.6336754 5.22557159,74.7647815 C5.69595676,74.8958875 6.06396608,75.0404876 6.32961059,75.1985861 C6.59525511,75.3566846 6.79221785,75.5411301 6.92050471,75.751928 C7.04879158,75.962726 7.11293404,76.2107955 7.11293404,76.496144 C7.11293404,76.9511591 6.93411261,77.3155513 6.57646439,77.5893316 C6.21881616,77.8631119 5.7406632,78 5.14199117,78 C4.7532431,78 4.39041701,77.9260933 4.05350201,77.7782776 C3.71658701,77.630462 3.45677762,77.4280219 3.27406602,77.1709512 C3.09135443,76.9138805 3,76.6221096 3,76.2956298 L3.75028003,76.2956298 C3.75028003,76.6349631 3.87662126,76.9029553 4.1293075,77.0996144 C4.38199375,77.2962735 4.7195516,77.3946015 5.14199117,77.3946015 C5.53592255,77.3946015 5.83784569,77.3149108 6.04776965,77.155527 C6.25769361,76.9961432 6.36265402,76.7789217 6.36265402,76.503856 C6.36265402,76.2287904 6.26546846,76.0160676 6.07109442,75.8656812 C5.87672038,75.7152949 5.52426075,75.5668388 5.01370495,75.4203085 Z M10.5533373,77.5102828 C10.2734387,77.8367626 9.86266771,78 9.32101206,78 C8.87265595,78 8.53121068,77.8708239 8.29666601,77.6124679 C8.06212134,77.3541118 7.94355495,76.9717249 7.9409633,76.4652956 L7.9409633,73.7506427 L8.66014364,73.7506427 L8.66014364,76.4460154 C8.66014364,77.0784093 8.91930513,77.3946015 9.4376359,77.3946015 C9.98706651,77.3946015 10.3524842,77.1915187 10.5339,76.785347 L10.5339,73.7506427 L11.2530803,73.7506427 L11.2530803,77.9228792 L10.5688871,77.9228792 L10.5533373,77.5102828 Z M15.9063715,75.8830334 C15.9063715,76.5205687 15.7586494,77.0327744 15.4632009,77.4196658 C15.1677524,77.8065572 14.7712353,78 14.2736377,78 C13.7423487,78 13.3315777,77.8136265 13.0413125,77.440874 L13.0063254,77.9228792 L12.3454569,77.9228792 L12.3454569,72 L13.0646373,72 L13.0646373,74.2095116 C13.3549025,73.8521833 13.755307,73.6735219 14.2658628,73.6735219 C14.7764186,73.6735219 15.177471,73.8650366 15.4690321,74.248072 C15.7605931,74.6311073 15.9063715,75.1555237 15.9063715,75.8213368 L15.9063715,75.8830334 Z M15.1871911,75.8020566 C15.1871911,75.3161929 15.0925972,74.9408754 14.9034065,74.6760925 C14.7142157,74.4113097 14.4420962,74.2789203 14.0870396,74.2789203 C13.612767,74.2789203 13.2719696,74.4974271 13.0646373,74.9344473 L13.0646373,76.7390746 C13.2849279,77.1760947 13.6283168,77.3946015 14.0948145,77.3946015 C14.4395045,77.3946015 14.7077366,77.2622121 14.899519,76.9974293 C15.0913014,76.7326465 15.1871911,76.3341929 15.1871911,75.8020566 Z M18.3088226,75.8290488 L16.4117415,75.8290488 L16.4117415,75.2467866 L18.3088226,75.2467866 L18.3088226,75.8290488 Z M20.7890229,75.4203085 C20.1488844,75.2377883 19.6830416,75.0134975 19.3914805,74.7474293 C19.0999195,74.4813611 18.9541411,74.1529583 18.9541411,73.7622108 C18.9541411,73.3200492 19.1323147,72.9543716 19.4886671,72.6651671 C19.8450195,72.3759626 20.3082706,72.2313625 20.8784345,72.2313625 C21.2671825,72.2313625 21.613811,72.3059119 21.9183304,72.4550129 C22.2228497,72.6041139 22.4586867,72.8097673 22.6258483,73.0719794 C22.79301,73.3341915 22.8765896,73.6208211 22.8765896,73.9318766 L22.1263095,73.9318766 C22.1263095,73.5925433 22.0174617,73.3258364 21.7997628,73.1317481 C21.5820639,72.9376597 21.2749575,72.840617 20.8784345,72.840617 C20.5104196,72.840617 20.2233983,72.9209504 20.0173618,73.0816195 C19.8113253,73.2422887 19.7083086,73.4652942 19.7083086,73.7506427 C19.7083086,73.9794356 19.8061421,74.1728784 20.001812,74.3309769 C20.1974818,74.4890753 20.5305043,74.6336754 21.0008895,74.7647815 C21.4712747,74.8958875 21.839284,75.0404876 22.1049285,75.1985861 C22.370573,75.3566846 22.5675358,75.5411301 22.6958226,75.751928 C22.8241095,75.962726 22.888252,76.2107955 22.888252,76.496144 C22.888252,76.9511591 22.7094305,77.3155513 22.3517823,77.5893316 C21.9941341,77.8631119 21.5159811,78 20.9173091,78 C20.528561,78 20.1657349,77.9260933 19.8288199,77.7782776 C19.4919049,77.630462 19.2320955,77.4280219 19.0493839,77.1709512 C18.8666723,76.9138805 18.7753179,76.6221096 18.7753179,76.2956298 L19.5255979,76.2956298 C19.5255979,76.6349631 19.6519392,76.9029553 19.9046254,77.0996144 C20.1573117,77.2962735 20.4948695,77.3946015 20.9173091,77.3946015 C21.3112405,77.3946015 21.6131636,77.3149108 21.8230876,77.155527 C22.0330115,76.9961432 22.1379719,76.7789217 22.1379719,76.503856 C22.1379719,76.2287904 22.0407864,76.0160676 21.8464123,75.8656812 C21.6520383,75.7152949 21.2995787,75.5668388 20.7890229,75.4203085 Z M25.4773012,78 C24.9071373,78 24.4432383,77.8142692 24.08559,77.4428021 C23.7279418,77.0713349 23.5491204,76.5745532 23.5491204,75.9524422 L23.5491204,75.8213368 C23.5491204,75.4074529 23.6288125,75.0379194 23.7881992,74.7127249 C23.947586,74.3875305 24.1704648,74.1330343 24.4568426,73.9492288 C24.7432203,73.7654232 25.0535662,73.6735219 25.3878896,73.6735219 C25.9347285,73.6735219 26.3597534,73.8521833 26.6629769,74.2095116 C26.9662004,74.5668398 27.1178098,75.0784028 27.1178098,75.7442159 L27.1178098,76.0411311 L24.2683007,76.0411311 C24.2786673,76.4524442 24.3998253,76.7847031 24.6317783,77.0379177 C24.8637314,77.2911324 25.1585276,77.4177378 25.5161758,77.4177378 C25.7701579,77.4177378 25.9852619,77.3663244 26.1614944,77.2634961 C26.3377268,77.1606679 26.4919279,77.0244224 26.6241023,76.8547558 L27.0633854,77.1940874 C26.7109205,77.7313652 26.182231,78 25.4773012,78 Z M25.3878896,74.2596401 C25.0976243,74.2596401 24.8540125,74.3643948 24.6570468,74.5739075 C24.4600812,74.7834201 24.3382753,75.0771189 24.2916255,75.4550129 L26.3986295,75.4550129 L26.3986295,75.4010283 C26.3778963,75.0385586 26.2794149,74.7577131 26.1031824,74.5584833 C25.92695,74.3592535 25.6885214,74.2596401 25.3878896,74.2596401 Z M29.6368848,77.4177378 C29.8934585,77.4177378 30.1176332,77.3406177 30.3094156,77.1863753 C30.5011979,77.0321329 30.6074542,76.8393328 30.6281874,76.6079692 L31.3084931,76.6079692 C31.2955348,76.8470449 31.2126032,77.074549 31.0596956,77.2904884 C30.906788,77.5064278 30.7026983,77.6786626 30.4474204,77.8071979 C30.1921425,77.9357333 29.9219667,78 29.6368848,78 C29.0641293,78 28.6086529,77.8104132 28.2704421,77.4312339 C27.9322313,77.0520547 27.7631284,76.5334223 27.7631284,75.8753213 L27.7631284,75.7557841 C27.7631284,75.3496124 27.8382853,74.9884335 27.9886012,74.6722365 C28.1389171,74.3560396 28.354669,74.1105407 28.6358635,73.9357326 C28.9170579,73.7609246 29.2494325,73.6735219 29.6329973,73.6735219 C30.1046783,73.6735219 30.4966601,73.8136233 30.8089543,74.0938303 C31.1212486,74.3740374 31.2877599,74.737787 31.3084931,75.18509 L30.6281874,75.18509 C30.6074542,74.9151657 30.5044375,74.6934456 30.3191342,74.5199229 C30.133831,74.3464002 29.9051209,74.2596401 29.6329973,74.2596401 C29.2675741,74.2596401 28.9844402,74.3901015 28.783587,74.6510283 C28.5827338,74.911955 28.4823088,75.2892006 28.4823088,75.7827763 L28.4823088,75.9177378 C28.4823088,76.39846 28.5820859,76.7686362 28.7816433,77.0282776 C28.9812006,77.287919 29.2662783,77.4177378 29.6368848,77.4177378 Z M33.0928378,72.7403599 L33.0928378,73.7506427 L33.878105,73.7506427 L33.878105,74.3020566 L33.0928378,74.3020566 L33.0928378,76.8894602 C33.0928378,77.0565561 33.1278246,77.1818762 33.1977993,77.2654242 C33.267774,77.3489721 33.3869882,77.3907455 33.5554457,77.3907455 C33.6383787,77.3907455 33.7524097,77.3753215 33.8975423,77.344473 L33.8975423,77.9228792 C33.7083516,77.9742933 33.5243469,78 33.3455228,78 C33.0241578,78 32.7818418,77.9035999 32.6185676,77.7107969 C32.4552934,77.5179939 32.3736575,77.2442177 32.3736575,76.8894602 L32.3736575,74.3020566 L31.6078276,74.3020566 L31.6078276,73.7506427 L32.3736575,73.7506427 L32.3736575,72.7403599 L33.0928378,72.7403599 Z M35.4991764,77.9228792 L34.779996,77.9228792 L34.779996,73.7506427 L35.4991764,73.7506427 L35.4991764,77.9228792 Z M34.7216841,72.6439589 C34.7216841,72.5282771 34.7573188,72.4305917 34.8285893,72.3508997 C34.8998598,72.2712078 35.0054681,72.2313625 35.1454174,72.2313625 C35.2853667,72.2313625 35.3916229,72.2712078 35.4641892,72.3508997 C35.5367555,72.4305917 35.5730381,72.5282771 35.5730381,72.6439589 C35.5730381,72.7596407 35.5367555,72.8560407 35.4641892,72.933162 C35.3916229,73.0102832 35.2853667,73.0488432 35.1454174,73.0488432 C35.0054681,73.0488432 34.8998598,73.0102832 34.8285893,72.933162 C34.7573188,72.8560407 34.7216841,72.7596407 34.7216841,72.6439589 Z M36.4593793,75.7982005 C36.4593793,75.3894581 36.5403673,75.0218525 36.7023457,74.6953728 C36.864324,74.368893 37.0897945,74.1169675 37.3787639,73.9395887 C37.6677333,73.7622099 37.9975163,73.6735219 38.3681228,73.6735219 C38.9408783,73.6735219 39.4041295,73.870178 39.7578902,74.2634961 C40.111651,74.6568143 40.2885287,75.1799453 40.2885287,75.8329049 L40.2885287,75.8830334 C40.2885287,76.2892051 40.2101323,76.6535974 40.0533373,76.9762211 C39.8965422,77.2988448 39.6723675,77.5501276 39.3808065,77.7300771 C39.0892454,77.9100266 38.7542792,78 38.3758977,78 C37.8057339,78 37.3437785,77.8033439 36.9900178,77.4100257 C36.636257,77.0167075 36.4593793,76.4961472 36.4593793,75.848329 L36.4593793,75.7982005 Z M37.1824471,75.8830334 C37.1824471,76.3457607 37.290647,76.7172222 37.5070501,76.9974293 C37.7234532,77.2776364 38.0130662,77.4177378 38.3758977,77.4177378 C38.7413209,77.4177378 39.0315818,77.2757084 39.2466891,76.9916452 C39.4617963,76.7075821 39.5693484,76.3097712 39.5693484,75.7982005 C39.5693484,75.3406147 39.4598526,74.9697958 39.2408579,74.6857326 C39.0218631,74.4016695 38.7309544,74.2596401 38.3681228,74.2596401 C38.0130662,74.2596401 37.7266928,74.3997415 37.5089939,74.6799486 C37.291295,74.9601556 37.1824471,75.3611799 37.1824471,75.8830334 Z M41.8707254,73.7506427 L41.8940502,74.2750643 C42.2154153,73.874034 42.6352569,73.6735219 43.1535877,73.6735219 C44.0425249,73.6735219 44.4908743,74.1709462 44.4986493,75.1658098 L44.4986493,77.9228792 L43.7794689,77.9228792 L43.7794689,75.1619537 C43.7768773,74.861181 43.7075516,74.6388182 43.5714898,74.4948586 C43.4354279,74.350899 43.2235634,74.2789203 42.9358898,74.2789203 C42.702641,74.2789203 42.4979034,74.3406163 42.3216709,74.4640103 C42.1454385,74.5874042 42.0080829,74.7493563 41.9096001,74.9498715 L41.9096001,77.9228792 L41.1904197,77.9228792 L41.1904197,73.7506427 L41.8707254,73.7506427 Z M51.4222178,72.9177378 L49.6028859,72.9177378 L49.6028859,77.9228792 L48.8603808,77.9228792 L48.8603808,72.9177378 L47.0449364,72.9177378 L47.0449364,72.3084833 L51.4222178,72.3084833 L51.4222178,72.9177378 Z M52.9305528,77.9228792 L52.2113725,77.9228792 L52.2113725,73.7506427 L52.9305528,73.7506427 L52.9305528,77.9228792 Z M52.1530606,72.6439589 C52.1530606,72.5282771 52.1886953,72.4305917 52.2599657,72.3508997 C52.3312362,72.2712078 52.4368445,72.2313625 52.5767938,72.2313625 C52.7167431,72.2313625 52.8229994,72.2712078 52.8955657,72.3508997 C52.968132,72.4305917 53.0044146,72.5282771 53.0044146,72.6439589 C53.0044146,72.7596407 52.968132,72.8560407 52.8955657,72.933162 C52.8229994,73.0102832 52.7167431,73.0488432 52.5767938,73.0488432 C52.4368445,73.0488432 52.3312362,73.0102832 52.2599657,72.933162 C52.1886953,72.8560407 52.1530606,72.7596407 52.1530606,72.6439589 Z M55.0569941,72.7403599 L55.0569941,73.7506427 L55.8422613,73.7506427 L55.8422613,74.3020566 L55.0569941,74.3020566 L55.0569941,76.8894602 C55.0569941,77.0565561 55.0919809,77.1818762 55.1619556,77.2654242 C55.2319302,77.3489721 55.3511445,77.3907455 55.519602,77.3907455 C55.602535,77.3907455 55.716566,77.3753215 55.8616986,77.344473 L55.8616986,77.9228792 C55.6725079,77.9742933 55.4885032,78 55.3096791,78 C54.988314,78 54.745998,77.9035999 54.5827239,77.7107969 C54.4194497,77.5179939 54.3378138,77.2442177 54.3378138,76.8894602 L54.3378138,74.3020566 L53.5719839,74.3020566 L53.5719839,73.7506427 L54.3378138,73.7506427 L54.3378138,72.7403599 L55.0569941,72.7403599 Z M57.4633327,77.9228792 L56.7441523,77.9228792 L56.7441523,72 L57.4633327,72 L57.4633327,77.9228792 Z M60.3594913,78 C59.7893275,78 59.3254284,77.8142692 58.9677802,77.4428021 C58.610132,77.0713349 58.4313105,76.5745532 58.4313105,75.9524422 L58.4313105,75.8213368 C58.4313105,75.4074529 58.5110027,75.0379194 58.6703894,74.7127249 C58.8297761,74.3875305 59.052655,74.1330343 59.3390327,73.9492288 C59.6254105,73.7654232 59.9357564,73.6735219 60.2700797,73.6735219 C60.8169187,73.6735219 61.2419435,73.8521833 61.545167,74.2095116 C61.8483905,74.5668398 62,75.0784028 62,75.7442159 L62,76.0411311 L59.1504909,76.0411311 C59.1608575,76.4524442 59.2820155,76.7847031 59.5139685,77.0379177 C59.7459215,77.2911324 60.0407177,77.4177378 60.3983659,77.4177378 C60.652348,77.4177378 60.8674521,77.3663244 61.0436845,77.2634961 C61.219917,77.1606679 61.3741181,77.0244224 61.5062924,76.8547558 L61.9455755,77.1940874 C61.5931106,77.7313652 61.0644212,78 60.3594913,78 Z M60.2700797,74.2596401 C59.9798145,74.2596401 59.7362027,74.3643948 59.539237,74.5739075 C59.3422713,74.7834201 59.2204654,75.0771189 59.1738156,75.4550129 L61.2808197,75.4550129 L61.2808197,75.4010283 C61.2600864,75.0385586 61.1616051,74.7577131 60.9853726,74.5584833 C60.8091401,74.3592535 60.5707116,74.2596401 60.2700797,74.2596401 Z" id="Sub-Section-Title" fill="#424242"></path>
            <rect id="Rectangle-2" stroke="#D8D8D8" fill="#D8D8D8" x="3" y="30" width="270" height="4" rx="2"></rect>
            <rect id="Rectangle-2-Copy-2" stroke="#D8D8D8" fill="#D8D8D8" x="3" y="44" width="175" height="4" rx="2"></rect>
            <rect id="Rectangle-2-Copy-6" stroke="#D8D8D8" fill="#D8D8D8" x="3" y="89" width="175" height="4" rx="2"></rect>
            <rect id="Rectangle-2-Copy-12" stroke="#D8D8D8" fill="#D8D8D8" x="3" y="82" width="182" height="4" rx="2"></rect>
            <rect id="Rectangle-2-Copy-4" stroke="#D8D8D8" fill="#D8D8D8" x="3" y="57" width="179" height="4" rx="2"></rect>
            <rect id="Rectangle-2-Copy-7" stroke="#D8D8D8" fill="#D8D8D8" x="3" y="102" width="179" height="4" rx="2"></rect>
            <rect id="Rectangle-2-Copy-10" stroke="#D8D8D8" fill="#D8D8D8" x="3" y="115" width="275" height="4" rx="2"></rect>
            <rect id="Rectangle-2-Copy-13" stroke="#D8D8D8" fill="#D8D8D8" x="3" y="141" width="275" height="4" rx="2"></rect>
            <rect id="Rectangle-2-Copy-15" stroke="#D8D8D8" fill="#D8D8D8" x="3" y="155" width="179" height="4" rx="2"></rect>
            <rect id="Rectangle-2-Copy" stroke="#D8D8D8" fill="#D8D8D8" x="3" y="37" width="275" height="4" rx="2"></rect>
            <rect id="Rectangle-2-Copy-3" stroke="#D8D8D8" fill="#D8D8D8" x="3" y="50" width="182" height="4" rx="2"></rect>
            <rect id="Rectangle-2-Copy-8" stroke="#D8D8D8" fill="#D8D8D8" x="3" y="95" width="182" height="4" rx="2"></rect>
            <rect id="Rectangle-2-Copy-5" stroke="#D8D8D8" fill="#D8D8D8" x="3" y="64" width="182" height="4" rx="2"></rect>
            <rect id="Rectangle-2-Copy-9" stroke="#D8D8D8" fill="#D8D8D8" x="3" y="109" width="182" height="4" rx="2"></rect>
            <rect id="Rectangle-2-Copy-11" stroke="#D8D8D8" fill="#D8D8D8" x="3" y="122" width="217" height="4" rx="2"></rect>
            <rect id="Rectangle-2-Copy-14" stroke="#D8D8D8" fill="#D8D8D8" x="3" y="148" width="265" height="4" rx="2"></rect>
            <rect id="Rectangle-2-Copy-16" stroke="#D8D8D8" fill="#D8D8D8" x="3" y="162" width="184" height="4" rx="2"></rect>
            <path d="M5.01370495,134.420308 C4.37356646,134.237788 3.90772367,134.013497 3.61616261,133.747429 C3.32460156,133.481361 3.17882322,133.152958 3.17882322,132.762211 C3.17882322,132.320049 3.35699675,131.954372 3.71334915,131.665167 C4.06970155,131.375963 4.53295272,131.231362 5.10311656,131.231362 C5.49186463,131.231362 5.83849313,131.305912 6.14301245,131.455013 C6.44753178,131.604114 6.68336874,131.809767 6.85053041,132.071979 C7.01769208,132.334192 7.10127166,132.620821 7.10127166,132.931877 L6.35099163,132.931877 C6.35099163,132.592543 6.2421438,132.325836 6.02444488,132.131748 C5.80674596,131.93766 5.49963959,131.840617 5.10311656,131.840617 C4.73510172,131.840617 4.44808036,131.92095 4.24204388,132.08162 C4.0360074,132.242289 3.93299071,132.465294 3.93299071,132.750643 C3.93299071,132.979436 4.03082417,133.172878 4.22649404,133.330977 C4.4221639,133.489075 4.75518642,133.633675 5.22557159,133.764781 C5.69595676,133.895888 6.06396608,134.040488 6.32961059,134.198586 C6.59525511,134.356685 6.79221785,134.54113 6.92050471,134.751928 C7.04879158,134.962726 7.11293404,135.210795 7.11293404,135.496144 C7.11293404,135.951159 6.93411261,136.315551 6.57646439,136.589332 C6.21881616,136.863112 5.7406632,137 5.14199117,137 C4.7532431,137 4.39041701,136.926093 4.05350201,136.778278 C3.71658701,136.630462 3.45677762,136.428022 3.27406602,136.170951 C3.09135443,135.91388 3,135.62211 3,135.29563 L3.75028003,135.29563 C3.75028003,135.634963 3.87662126,135.902955 4.1293075,136.099614 C4.38199375,136.296273 4.7195516,136.394602 5.14199117,136.394602 C5.53592255,136.394602 5.83784569,136.314911 6.04776965,136.155527 C6.25769361,135.996143 6.36265402,135.778922 6.36265402,135.503856 C6.36265402,135.22879 6.26546846,135.016068 6.07109442,134.865681 C5.87672038,134.715295 5.52426075,134.566839 5.01370495,134.420308 Z M10.5533373,136.510283 C10.2734387,136.836763 9.86266771,137 9.32101206,137 C8.87265595,137 8.53121068,136.870824 8.29666601,136.612468 C8.06212134,136.354112 7.94355495,135.971725 7.9409633,135.465296 L7.9409633,132.750643 L8.66014364,132.750643 L8.66014364,135.446015 C8.66014364,136.078409 8.91930513,136.394602 9.4376359,136.394602 C9.98706651,136.394602 10.3524842,136.191519 10.5339,135.785347 L10.5339,132.750643 L11.2530803,132.750643 L11.2530803,136.922879 L10.5688871,136.922879 L10.5533373,136.510283 Z M15.9063715,134.883033 C15.9063715,135.520569 15.7586494,136.032774 15.4632009,136.419666 C15.1677524,136.806557 14.7712353,137 14.2736377,137 C13.7423487,137 13.3315777,136.813627 13.0413125,136.440874 L13.0063254,136.922879 L12.3454569,136.922879 L12.3454569,131 L13.0646373,131 L13.0646373,133.209512 C13.3549025,132.852183 13.755307,132.673522 14.2658628,132.673522 C14.7764186,132.673522 15.177471,132.865037 15.4690321,133.248072 C15.7605931,133.631107 15.9063715,134.155524 15.9063715,134.821337 L15.9063715,134.883033 Z M15.1871911,134.802057 C15.1871911,134.316193 15.0925972,133.940875 14.9034065,133.676093 C14.7142157,133.41131 14.4420962,133.27892 14.0870396,133.27892 C13.612767,133.27892 13.2719696,133.497427 13.0646373,133.934447 L13.0646373,135.739075 C13.2849279,136.176095 13.6283168,136.394602 14.0948145,136.394602 C14.4395045,136.394602 14.7077366,136.262212 14.899519,135.997429 C15.0913014,135.732646 15.1871911,135.334193 15.1871911,134.802057 Z M18.3088226,134.829049 L16.4117415,134.829049 L16.4117415,134.246787 L18.3088226,134.246787 L18.3088226,134.829049 Z M20.7890229,134.420308 C20.1488844,134.237788 19.6830416,134.013497 19.3914805,133.747429 C19.0999195,133.481361 18.9541411,133.152958 18.9541411,132.762211 C18.9541411,132.320049 19.1323147,131.954372 19.4886671,131.665167 C19.8450195,131.375963 20.3082706,131.231362 20.8784345,131.231362 C21.2671825,131.231362 21.613811,131.305912 21.9183304,131.455013 C22.2228497,131.604114 22.4586867,131.809767 22.6258483,132.071979 C22.79301,132.334192 22.8765896,132.620821 22.8765896,132.931877 L22.1263095,132.931877 C22.1263095,132.592543 22.0174617,132.325836 21.7997628,132.131748 C21.5820639,131.93766 21.2749575,131.840617 20.8784345,131.840617 C20.5104196,131.840617 20.2233983,131.92095 20.0173618,132.08162 C19.8113253,132.242289 19.7083086,132.465294 19.7083086,132.750643 C19.7083086,132.979436 19.8061421,133.172878 20.001812,133.330977 C20.1974818,133.489075 20.5305043,133.633675 21.0008895,133.764781 C21.4712747,133.895888 21.839284,134.040488 22.1049285,134.198586 C22.370573,134.356685 22.5675358,134.54113 22.6958226,134.751928 C22.8241095,134.962726 22.888252,135.210795 22.888252,135.496144 C22.888252,135.951159 22.7094305,136.315551 22.3517823,136.589332 C21.9941341,136.863112 21.5159811,137 20.9173091,137 C20.528561,137 20.1657349,136.926093 19.8288199,136.778278 C19.4919049,136.630462 19.2320955,136.428022 19.0493839,136.170951 C18.8666723,135.91388 18.7753179,135.62211 18.7753179,135.29563 L19.5255979,135.29563 C19.5255979,135.634963 19.6519392,135.902955 19.9046254,136.099614 C20.1573117,136.296273 20.4948695,136.394602 20.9173091,136.394602 C21.3112405,136.394602 21.6131636,136.314911 21.8230876,136.155527 C22.0330115,135.996143 22.1379719,135.778922 22.1379719,135.503856 C22.1379719,135.22879 22.0407864,135.016068 21.8464123,134.865681 C21.6520383,134.715295 21.2995787,134.566839 20.7890229,134.420308 Z M25.4773012,137 C24.9071373,137 24.4432383,136.814269 24.08559,136.442802 C23.7279418,136.071335 23.5491204,135.574553 23.5491204,134.952442 L23.5491204,134.821337 C23.5491204,134.407453 23.6288125,134.037919 23.7881992,133.712725 C23.947586,133.387531 24.1704648,133.133034 24.4568426,132.949229 C24.7432203,132.765423 25.0535662,132.673522 25.3878896,132.673522 C25.9347285,132.673522 26.3597534,132.852183 26.6629769,133.209512 C26.9662004,133.56684 27.1178098,134.078403 27.1178098,134.744216 L27.1178098,135.041131 L24.2683007,135.041131 C24.2786673,135.452444 24.3998253,135.784703 24.6317783,136.037918 C24.8637314,136.291132 25.1585276,136.417738 25.5161758,136.417738 C25.7701579,136.417738 25.9852619,136.366324 26.1614944,136.263496 C26.3377268,136.160668 26.4919279,136.024422 26.6241023,135.854756 L27.0633854,136.194087 C26.7109205,136.731365 26.182231,137 25.4773012,137 Z M25.3878896,133.25964 C25.0976243,133.25964 24.8540125,133.364395 24.6570468,133.573907 C24.4600812,133.78342 24.3382753,134.077119 24.2916255,134.455013 L26.3986295,134.455013 L26.3986295,134.401028 C26.3778963,134.038559 26.2794149,133.757713 26.1031824,133.558483 C25.92695,133.359254 25.6885214,133.25964 25.3878896,133.25964 Z M29.6368848,136.417738 C29.8934585,136.417738 30.1176332,136.340618 30.3094156,136.186375 C30.5011979,136.032133 30.6074542,135.839333 30.6281874,135.607969 L31.3084931,135.607969 C31.2955348,135.847045 31.2126032,136.074549 31.0596956,136.290488 C30.906788,136.506428 30.7026983,136.678663 30.4474204,136.807198 C30.1921425,136.935733 29.9219667,137 29.6368848,137 C29.0641293,137 28.6086529,136.810413 28.2704421,136.431234 C27.9322313,136.052055 27.7631284,135.533422 27.7631284,134.875321 L27.7631284,134.755784 C27.7631284,134.349612 27.8382853,133.988433 27.9886012,133.672237 C28.1389171,133.35604 28.354669,133.110541 28.6358635,132.935733 C28.9170579,132.760925 29.2494325,132.673522 29.6329973,132.673522 C30.1046783,132.673522 30.4966601,132.813623 30.8089543,133.09383 C31.1212486,133.374037 31.2877599,133.737787 31.3084931,134.18509 L30.6281874,134.18509 C30.6074542,133.915166 30.5044375,133.693446 30.3191342,133.519923 C30.133831,133.3464 29.9051209,133.25964 29.6329973,133.25964 C29.2675741,133.25964 28.9844402,133.390102 28.783587,133.651028 C28.5827338,133.911955 28.4823088,134.289201 28.4823088,134.782776 L28.4823088,134.917738 C28.4823088,135.39846 28.5820859,135.768636 28.7816433,136.028278 C28.9812006,136.287919 29.2662783,136.417738 29.6368848,136.417738 Z M33.0928378,131.74036 L33.0928378,132.750643 L33.878105,132.750643 L33.878105,133.302057 L33.0928378,133.302057 L33.0928378,135.88946 C33.0928378,136.056556 33.1278246,136.181876 33.1977993,136.265424 C33.267774,136.348972 33.3869882,136.390746 33.5554457,136.390746 C33.6383787,136.390746 33.7524097,136.375321 33.8975423,136.344473 L33.8975423,136.922879 C33.7083516,136.974293 33.5243469,137 33.3455228,137 C33.0241578,137 32.7818418,136.9036 32.6185676,136.710797 C32.4552934,136.517994 32.3736575,136.244218 32.3736575,135.88946 L32.3736575,133.302057 L31.6078276,133.302057 L31.6078276,132.750643 L32.3736575,132.750643 L32.3736575,131.74036 L33.0928378,131.74036 Z M35.4991764,136.922879 L34.779996,136.922879 L34.779996,132.750643 L35.4991764,132.750643 L35.4991764,136.922879 Z M34.7216841,131.643959 C34.7216841,131.528277 34.7573188,131.430592 34.8285893,131.3509 C34.8998598,131.271208 35.0054681,131.231362 35.1454174,131.231362 C35.2853667,131.231362 35.3916229,131.271208 35.4641892,131.3509 C35.5367555,131.430592 35.5730381,131.528277 35.5730381,131.643959 C35.5730381,131.759641 35.5367555,131.856041 35.4641892,131.933162 C35.3916229,132.010283 35.2853667,132.048843 35.1454174,132.048843 C35.0054681,132.048843 34.8998598,132.010283 34.8285893,131.933162 C34.7573188,131.856041 34.7216841,131.759641 34.7216841,131.643959 Z M36.4593793,134.798201 C36.4593793,134.389458 36.5403673,134.021853 36.7023457,133.695373 C36.864324,133.368893 37.0897945,133.116967 37.3787639,132.939589 C37.6677333,132.76221 37.9975163,132.673522 38.3681228,132.673522 C38.9408783,132.673522 39.4041295,132.870178 39.7578902,133.263496 C40.111651,133.656814 40.2885287,134.179945 40.2885287,134.832905 L40.2885287,134.883033 C40.2885287,135.289205 40.2101323,135.653597 40.0533373,135.976221 C39.8965422,136.298845 39.6723675,136.550128 39.3808065,136.730077 C39.0892454,136.910027 38.7542792,137 38.3758977,137 C37.8057339,137 37.3437785,136.803344 36.9900178,136.410026 C36.636257,136.016708 36.4593793,135.496147 36.4593793,134.848329 L36.4593793,134.798201 Z M37.1824471,134.883033 C37.1824471,135.345761 37.290647,135.717222 37.5070501,135.997429 C37.7234532,136.277636 38.0130662,136.417738 38.3758977,136.417738 C38.7413209,136.417738 39.0315818,136.275708 39.2466891,135.991645 C39.4617963,135.707582 39.5693484,135.309771 39.5693484,134.798201 C39.5693484,134.340615 39.4598526,133.969796 39.2408579,133.685733 C39.0218631,133.40167 38.7309544,133.25964 38.3681228,133.25964 C38.0130662,133.25964 37.7266928,133.399742 37.5089939,133.679949 C37.291295,133.960156 37.1824471,134.36118 37.1824471,134.883033 Z M41.8707254,132.750643 L41.8940502,133.275064 C42.2154153,132.874034 42.6352569,132.673522 43.1535877,132.673522 C44.0425249,132.673522 44.4908743,133.170946 44.4986493,134.16581 L44.4986493,136.922879 L43.7794689,136.922879 L43.7794689,134.161954 C43.7768773,133.861181 43.7075516,133.638818 43.5714898,133.494859 C43.4354279,133.350899 43.2235634,133.27892 42.9358898,133.27892 C42.702641,133.27892 42.4979034,133.340616 42.3216709,133.46401 C42.1454385,133.587404 42.0080829,133.749356 41.9096001,133.949871 L41.9096001,136.922879 L41.1904197,136.922879 L41.1904197,132.750643 L41.8707254,132.750643 Z M51.4222178,131.917738 L49.6028859,131.917738 L49.6028859,136.922879 L48.8603808,136.922879 L48.8603808,131.917738 L47.0449364,131.917738 L47.0449364,131.308483 L51.4222178,131.308483 L51.4222178,131.917738 Z M52.9305528,136.922879 L52.2113725,136.922879 L52.2113725,132.750643 L52.9305528,132.750643 L52.9305528,136.922879 Z M52.1530606,131.643959 C52.1530606,131.528277 52.1886953,131.430592 52.2599657,131.3509 C52.3312362,131.271208 52.4368445,131.231362 52.5767938,131.231362 C52.7167431,131.231362 52.8229994,131.271208 52.8955657,131.3509 C52.968132,131.430592 53.0044146,131.528277 53.0044146,131.643959 C53.0044146,131.759641 52.968132,131.856041 52.8955657,131.933162 C52.8229994,132.010283 52.7167431,132.048843 52.5767938,132.048843 C52.4368445,132.048843 52.3312362,132.010283 52.2599657,131.933162 C52.1886953,131.856041 52.1530606,131.759641 52.1530606,131.643959 Z M55.0569941,131.74036 L55.0569941,132.750643 L55.8422613,132.750643 L55.8422613,133.302057 L55.0569941,133.302057 L55.0569941,135.88946 C55.0569941,136.056556 55.0919809,136.181876 55.1619556,136.265424 C55.2319302,136.348972 55.3511445,136.390746 55.519602,136.390746 C55.602535,136.390746 55.716566,136.375321 55.8616986,136.344473 L55.8616986,136.922879 C55.6725079,136.974293 55.4885032,137 55.3096791,137 C54.988314,137 54.745998,136.9036 54.5827239,136.710797 C54.4194497,136.517994 54.3378138,136.244218 54.3378138,135.88946 L54.3378138,133.302057 L53.5719839,133.302057 L53.5719839,132.750643 L54.3378138,132.750643 L54.3378138,131.74036 L55.0569941,131.74036 Z M57.4633327,136.922879 L56.7441523,136.922879 L56.7441523,131 L57.4633327,131 L57.4633327,136.922879 Z M60.3594913,137 C59.7893275,137 59.3254284,136.814269 58.9677802,136.442802 C58.610132,136.071335 58.4313105,135.574553 58.4313105,134.952442 L58.4313105,134.821337 C58.4313105,134.407453 58.5110027,134.037919 58.6703894,133.712725 C58.8297761,133.387531 59.052655,133.133034 59.3390327,132.949229 C59.6254105,132.765423 59.9357564,132.673522 60.2700797,132.673522 C60.8169187,132.673522 61.2419435,132.852183 61.545167,133.209512 C61.8483905,133.56684 62,134.078403 62,134.744216 L62,135.041131 L59.1504909,135.041131 C59.1608575,135.452444 59.2820155,135.784703 59.5139685,136.037918 C59.7459215,136.291132 60.0407177,136.417738 60.3983659,136.417738 C60.652348,136.417738 60.8674521,136.366324 61.0436845,136.263496 C61.219917,136.160668 61.3741181,136.024422 61.5062924,135.854756 L61.9455755,136.194087 C61.5931106,136.731365 61.0644212,137 60.3594913,137 Z M60.2700797,133.25964 C59.9798145,133.25964 59.7362027,133.364395 59.539237,133.573907 C59.3422713,133.78342 59.2204654,134.077119 59.1738156,134.455013 L61.2808197,134.455013 L61.2808197,134.401028 C61.2600864,134.038559 61.1616051,133.757713 60.9853726,133.558483 C60.8091401,133.359254 60.5707116,133.25964 60.2700797,133.25964 Z" id="Sub-Section-Title-Copy" fill="#424242"></path>
        </g>
    </g>
</svg>