<?xml version="1.0" encoding="UTF-8" standalone="no"?>
<svg width="302px" height="197px" viewBox="0 0 302 197" version="1.1" xmlns="http://www.w3.org/2000/svg" xmlns:xlink="http://www.w3.org/1999/xlink">
    <!-- Generator: Sketch 47.1 (45422) - http://www.bohemiancoding.com/sketch -->
    <title>accessibility-space-1</title>
    <desc>Created with Sketch.</desc>
    <defs></defs>
    <g id="Page-1" stroke="none" stroke-width="1" fill="none" fill-rule="evenodd">
        <g id="accessibility-space-1">
            <path d="M15.4256539,21.4726166 L15.4256539,26.4624746 L15,26.4624746 L15,14.6490872 L18.5865281,14.6490872 C19.7583959,14.6490872 20.6688132,14.9533438 21.3178072,15.5618661 C21.9668013,16.1703884 22.2912934,17.0155456 22.2912934,18.0973631 C22.2912934,19.1683624 21.9746837,19.9959403 21.3414547,20.5801217 C20.7082257,21.1643031 19.8083183,21.4617985 18.6417055,21.4726166 L15.4256539,21.4726166 Z M15.4256539,21.0344828 L18.5865281,21.0344828 C19.6217656,21.0344828 20.4270842,20.777555 21.0025081,20.2636917 C21.5779319,19.7498284 21.8656396,19.0331351 21.8656396,18.1135903 C21.8656396,17.1615909 21.5779319,16.4192048 21.0025081,15.8864097 C20.4270842,15.3536146 19.6217656,15.0872211 18.5865281,15.0872211 L15.4256539,15.0872211 L15.4256539,21.0344828 Z M29.8978861,26.4624746 C29.7927858,26.0892476 29.7402365,25.553756 29.7402365,24.8559838 C29.4039157,25.4185288 28.944109,25.8539538 28.3608026,26.1622718 C27.7774962,26.4705898 27.118002,26.6247465 26.3823003,26.6247465 C25.5940484,26.6247465 24.9595151,26.4043295 24.4786815,25.9634888 C23.9978478,25.5226482 23.7574346,24.9479413 23.7574346,24.2393509 C23.7574346,23.4333969 24.1108289,22.7883729 24.8176281,22.3042596 C25.5244273,21.8201463 26.4637467,21.5726843 27.6356145,21.5618661 L29.7402365,21.5618661 L29.7402365,20.2799189 C29.7402365,19.544283 29.5155881,18.9736329 29.0662845,18.5679513 C28.6169809,18.1622698 27.9745653,17.959432 27.1390183,17.959432 C26.3612764,17.959432 25.7122921,18.1649743 25.1920459,18.5760649 C24.6717996,18.9871555 24.4116804,19.4956021 24.4116804,20.1014199 L23.9860265,20.0851927 C23.9860265,19.3711932 24.2908127,18.7653845 24.9003941,18.2677485 C25.5099756,17.7701125 26.2561762,17.5212982 27.1390183,17.5212982 C28.0586455,17.5212982 28.7890813,17.7579422 29.3303475,18.2312373 C29.8716138,18.7045325 30.1501253,19.3711925 30.1658904,20.2312373 L30.1658904,24.4259635 C30.1658904,25.388781 30.2394594,26.0432708 30.3865998,26.3894523 L30.3865998,26.4624746 L29.8978861,26.4624746 Z M26.3823003,26.1947262 C27.1810622,26.1947262 27.8681447,26.01082 28.4435686,25.643002 C29.0189925,25.2751841 29.4512108,24.758624 29.7402365,24.0933063 L29.7402365,22.0081136 L27.7696166,22.0081136 C26.5504537,22.0081136 25.617703,22.2569279 24.9713364,22.7545639 C24.4458352,23.1602454 24.1830885,23.6659875 24.1830885,24.2718053 C24.1830885,24.8073049 24.3906584,25.2616614 24.8058044,25.6348884 C25.2209504,26.0081155 25.7464437,26.1947262 26.3823003,26.1947262 Z M32.5069867,21.9837728 C32.5069867,20.5828192 32.7933806,19.4888477 33.366177,18.7018256 C33.9389734,17.9148034 34.724586,17.5212982 35.7230383,17.5212982 C36.3588949,17.5212982 36.9238002,17.6713981 37.4177714,17.9716024 C37.9117426,18.2718068 38.3084901,18.7112885 38.6080258,19.2900609 L38.6080258,17.68357 L39.0415622,17.68357 L39.0415622,26.3083164 C39.0415622,27.4658611 38.7525408,28.3705174 38.1744894,29.0223124 C37.5964381,29.6741074 36.8108255,30 35.8176281,30 C35.2448317,30 34.7206521,29.8728884 34.2450735,29.6186613 C33.7694948,29.3644342 33.3635512,28.9993262 33.0272304,28.5233266 L33.3267646,28.2312373 C33.6578304,28.6639643 34.0204208,28.9952659 34.4145468,29.2251521 C34.8086727,29.4550383 35.2711069,29.5699797 35.8018631,29.5699797 C36.6794502,29.5699797 37.3625916,29.2954727 37.8513078,28.7464503 C38.3400239,28.197428 38.5922608,27.4225878 38.6080258,26.4219067 L38.6080258,25.0750507 C38.3137451,25.5726867 37.9156839,25.9553739 37.4138302,26.2231237 C36.9119765,26.4908735 36.3431299,26.6247465 35.7072734,26.6247465 C34.719331,26.6247465 33.9389734,26.2217755 33.366177,25.4158215 C32.7933806,24.6098675 32.5069867,23.5037258 32.5069867,22.0973631 L32.5069867,21.9837728 Z M32.9405231,22.1541582 C32.9405231,23.4090665 33.1822501,24.3948578 33.6657112,25.1115619 C34.1491724,25.8282659 34.8270588,26.1866126 35.6993909,26.1866126 C36.4193276,26.1866126 37.0315274,26.0148766 37.5360086,25.6713996 C38.0404898,25.3279226 38.3978253,24.8451688 38.6080258,24.2231237 L38.6080258,20.2393509 C38.1455847,18.7193974 37.1813044,17.959432 35.7151559,17.959432 C34.8375688,17.959432 34.1557411,18.3137219 33.6696525,19.0223124 C33.1835638,19.7309028 32.9405231,20.774841 32.9405231,22.1541582 Z M44.827302,26.6247465 C44.1388954,26.6247465 43.5069896,26.434079 42.9315657,26.0527383 C42.3561419,25.6713977 41.9055313,25.1480763 41.5797205,24.4827586 C41.2539098,23.8174409 41.0910068,23.0791116 41.0910068,22.2677485 L41.0910068,21.9026369 C41.0910068,21.0912738 41.2486548,20.3475355 41.5639556,19.6713996 C41.8792563,18.9952637 42.3127884,18.4678856 42.8645647,18.0892495 C43.416341,17.7106134 44.0180309,17.5212982 44.6696525,17.5212982 C45.6208097,17.5212982 46.3985399,17.8701791 47.0028664,18.5679513 C47.6071928,19.2657236 47.9093515,20.1825501 47.9093515,21.3184584 L47.9093515,21.7809331 L41.5166607,21.7809331 L41.5166607,22.2596349 C41.5166607,22.9736344 41.6624851,23.6348854 41.9541383,24.2434077 C42.2457915,24.85193 42.6477939,25.3292748 43.1601576,25.6754564 C43.6725214,26.021638 44.2282306,26.1947262 44.827302,26.1947262 C45.4000984,26.1947262 45.8874935,26.0960118 46.289502,25.8985801 C46.6915104,25.7011484 47.0475322,25.3968918 47.3575779,24.9858012 L47.6571121,25.2048682 C47.0212556,26.1514584 46.077995,26.6247465 44.827302,26.6247465 Z M44.6696525,17.959432 C43.8393605,17.959432 43.1351994,18.2772112 42.557148,18.9127789 C41.9790966,19.5483467 41.6401534,20.3583453 41.5403081,21.3427992 L47.4836976,21.3427992 L47.4836976,21.2373225 C47.4836976,20.6423229 47.3615204,20.089252 47.1171623,19.5780933 C46.8728042,19.0669346 46.5364885,18.6693726 46.1082049,18.3853955 C45.6799214,18.1014185 45.2004087,17.959432 44.6696525,17.959432 Z M61.301684,15.0872211 L57.1239699,15.0872211 L57.1239699,26.4624746 L56.698316,26.4624746 L56.698316,15.0872211 L52.5206019,15.0872211 L52.5206019,14.6490872 L61.301684,14.6490872 L61.301684,15.0872211 Z M63.6191329,26.4624746 L63.193479,26.4624746 L63.193479,17.68357 L63.6191329,17.68357 L63.6191329,26.4624746 Z M62.9727696,14.9411765 C62.9727696,14.8167675 63.0148091,14.7099396 63.0988893,14.6206897 C63.1829695,14.5314397 63.2854407,14.4868154 63.406306,14.4868154 C63.5271713,14.4868154 63.6309562,14.5314397 63.7176639,14.6206897 C63.8043716,14.7099396 63.8477248,14.8167675 63.8477248,14.9411765 C63.8477248,15.0655855 63.8043716,15.1710611 63.7176639,15.2576065 C63.6309562,15.3441519 63.5271713,15.3874239 63.406306,15.3874239 C63.2854407,15.3874239 63.1829695,15.3441519 63.0988893,15.2576065 C63.0148091,15.1710611 62.9727696,15.0655855 62.9727696,14.9411765 Z M67.3711931,15.3144016 L67.3711931,17.68357 L69.3102831,17.68357 L69.3102831,18.1298174 L67.3711931,18.1298174 L67.3711931,24.3610548 C67.3711931,24.9830998 67.4697231,25.4428653 67.6667861,25.7403651 C67.8638491,26.0378649 68.1935962,26.1866126 68.6560373,26.1866126 C68.8872578,26.1866126 69.1683968,26.162272 69.4994626,26.1135903 L69.5704049,26.5273834 C69.3969895,26.5922924 69.1000857,26.6247465 68.6796847,26.6247465 C68.0595932,26.6247465 67.6155513,26.4476015 67.3475457,26.0933063 C67.07954,25.7390111 66.9429118,25.1805312 66.9376568,24.4178499 L66.9376568,18.1298174 L65.3611609,18.1298174 L65.3611609,17.68357 L66.9376568,17.68357 L66.9376568,15.3144016 L67.3711931,15.3144016 Z M72.0533859,26.4624746 L71.627732,26.4624746 L71.627732,14 L72.0533859,14 L72.0533859,26.4624746 Z M77.9179506,26.6247465 C77.2295439,26.6247465 76.5976381,26.434079 76.0222143,26.0527383 C75.4467904,25.6713977 74.9961798,25.1480763 74.670369,24.4827586 C74.3445583,23.8174409 74.1816553,23.0791116 74.1816553,22.2677485 L74.1816553,21.9026369 C74.1816553,21.0912738 74.3393033,20.3475355 74.6546041,19.6713996 C74.9699048,18.9952637 75.4034369,18.4678856 75.9552132,18.0892495 C76.5069895,17.7106134 77.1086794,17.5212982 77.760301,17.5212982 C78.7114582,17.5212982 79.4891884,17.8701791 80.0935149,18.5679513 C80.6978413,19.2657236 81,20.1825501 81,21.3184584 L81,21.7809331 L74.6073092,21.7809331 L74.6073092,22.2596349 C74.6073092,22.9736344 74.7531336,23.6348854 75.0447868,24.2434077 C75.33644,24.85193 75.7384424,25.3292748 76.2508062,25.6754564 C76.7631699,26.021638 77.3188791,26.1947262 77.9179506,26.1947262 C78.4907469,26.1947262 78.978142,26.0960118 79.3801505,25.8985801 C79.7821589,25.7011484 80.1381807,25.3968918 80.4482264,24.9858012 L80.7477607,25.2048682 C80.1119041,26.1514584 79.1686435,26.6247465 77.9179506,26.6247465 Z M77.760301,17.959432 C76.930009,17.959432 76.2258479,18.2772112 75.6477965,18.9127789 C75.0697451,19.5483467 74.7308019,20.3583453 74.6309566,21.3427992 L80.5743461,21.3427992 L80.5743461,21.2373225 C80.5743461,20.6423229 80.4521689,20.089252 80.2078108,19.5780933 C79.9634527,19.0669346 79.627137,18.6693726 79.1988535,18.3853955 C78.7705699,18.1014185 78.2910572,17.959432 77.760301,17.959432 Z" id="Page-Title" fill="#424242"></path>
            <path d="M17.8104004,35.5424165 C17.8104004,35.2313609 17.6930523,34.9852194 17.4583525,34.8039846 C17.2236528,34.6227497 16.7942967,34.450515 16.1702715,34.2872751 C15.5462463,34.1240352 15.0906595,33.9460164 14.8034975,33.7532134 C14.3948438,33.4807184 14.19052,33.1233955 14.19052,32.6812339 C14.19052,32.2519259 14.3803478,31.9029576 14.7600092,31.6343188 C15.1396706,31.3656799 15.6249395,31.2313625 16.2158306,31.2313625 C16.6162008,31.2313625 16.9744577,31.3033412 17.2906121,31.4473008 C17.6067664,31.5912604 17.8518169,31.7917725 18.0257708,32.0488432 C18.1997248,32.3059139 18.2867004,32.5925434 18.2867004,32.9087404 L17.7731247,32.9087404 C17.7731247,32.525705 17.632307,32.2178675 17.3506673,31.9852185 C17.0690276,31.7525695 16.6907525,31.6362468 16.2158306,31.6362468 C15.7547147,31.6362468 15.3874841,31.7320042 15.1141279,31.9235219 C14.8407718,32.1150395 14.7040957,32.365037 14.7040957,32.6735219 C14.7040957,32.9588703 14.8269661,33.1915158 15.0727105,33.3714653 C15.318455,33.5514148 15.7119163,33.7101536 16.2531063,33.8476864 C16.7942963,33.9852192 17.2043244,34.1278913 17.4832029,34.2757069 C17.7620815,34.4235226 17.9719275,34.600256 18.1127474,34.8059126 C18.2535672,35.0115692 18.3239761,35.2544973 18.3239761,35.5347044 C18.3239761,35.976866 18.1341482,36.3316182 17.7544869,36.5989717 C17.3748255,36.8663252 16.8743703,37 16.2531063,37 C15.8278856,37 15.4378757,36.9293066 15.0830649,36.7879177 C14.7282541,36.6465289 14.4590437,36.4485874 14.2754257,36.1940874 C14.0918076,35.9395874 14,35.6478166 14,35.3187661 L14.509434,35.3187661 C14.509434,35.7146549 14.6681991,36.0269911 14.985734,36.2557841 C15.303269,36.484577 15.7257222,36.5989717 16.2531063,36.5989717 C16.7225058,36.5989717 17.0994003,36.5025717 17.3838012,36.3097686 C17.6682021,36.1169656 17.8104004,35.8611841 17.8104004,35.5424165 Z M21.0409572,37 C20.6599153,37 20.315464,36.9125973 20.0075932,36.7377892 C19.6997223,36.5629811 19.4601941,36.3194103 19.2890014,36.0070694 C19.1178086,35.6947285 19.0322135,35.3444749 19.0322135,34.9562982 L19.0322135,34.7904884 C19.0322135,34.3894581 19.1157378,34.0282792 19.2827888,33.7069409 C19.4498398,33.3856025 19.6824651,33.1330343 19.9806719,32.9492288 C20.2788786,32.7654232 20.6019311,32.6735219 20.9498389,32.6735219 C21.4937901,32.6735219 21.925217,32.8463993 22.2441325,33.1921594 C22.5630481,33.5379195 22.7225035,34.0102798 22.7225035,34.6092545 L22.7225035,34.8676093 L19.5250805,34.8676093 L19.5250805,34.9562982 C19.5250805,35.4293083 19.6707303,35.8232632 19.9620341,36.1381748 C20.2533379,36.4530864 20.6198781,36.6105398 21.0616659,36.6105398 C21.3267386,36.6105398 21.5607445,36.5655531 21.7636908,36.4755784 C21.966637,36.3856037 22.1509426,36.2416462 22.316613,36.0437018 L22.6272434,36.2634961 C22.2627685,36.7545012 21.7340117,37 21.0409572,37 Z M20.9498389,33.066838 C20.5770805,33.066838 20.2630017,33.1940861 20.0075932,33.4485861 C19.7521846,33.7030861 19.596871,34.044985 19.5416475,34.4742931 L22.2296364,34.4742931 L22.2296364,34.4241645 C22.2158306,34.0231342 22.0929602,33.6966594 21.8610216,33.4447301 C21.6290831,33.1928008 21.3253585,33.066838 20.9498389,33.066838 Z M25.3442246,36.6105398 C25.6893713,36.6105398 25.9785998,36.5199238 26.211919,36.3386889 C26.4452382,36.1574541 26.57156,35.9228806 26.5908882,35.6349614 L27.0671882,35.6349614 C27.0533824,35.8894614 26.9677873,36.1214642 26.8104004,36.3309769 C26.6530135,36.5404895 26.4438577,36.7043696 26.1829268,36.8226221 C25.9219959,36.9408746 25.6424313,37 25.3442246,37 C24.7560946,37 24.2901536,36.8097705 23.9463875,36.4293059 C23.6026214,36.0488413 23.4307409,35.5372783 23.4307409,34.8946015 L23.4307409,34.7557841 C23.4307409,34.344471 23.5080526,33.9807214 23.6626783,33.6645244 C23.817304,33.3483275 24.0388849,33.104114 24.3274275,32.9318766 C24.6159701,32.7596392 24.9535185,32.6735219 25.3400828,32.6735219 C25.8315717,32.6735219 26.2367678,32.8097673 26.5556834,33.0822622 C26.8745989,33.3547571 27.0450988,33.7133654 27.0671882,34.1580977 L26.5908882,34.1580977 C26.5687988,33.8316179 26.442477,33.5681244 26.211919,33.3676093 C25.981361,33.1670941 25.6907519,33.066838 25.3400828,33.066838 C24.8927727,33.066838 24.5455604,33.2172221 24.2984353,33.5179949 C24.0513103,33.8187676 23.9277497,34.2403572 23.9277497,34.7827763 L23.9277497,34.9177378 C23.9277497,35.4498741 24.0513103,35.8650371 24.2984353,36.1632391 C24.5455604,36.4614411 24.8941533,36.6105398 25.3442246,36.6105398 Z M28.8274275,31.6825193 L28.8274275,32.7506427 L29.7551772,32.7506427 L29.7551772,33.1285347 L28.8274275,33.1285347 L28.8274275,35.9087404 C28.8274275,36.140104 28.8722959,36.3123388 28.9620341,36.4254499 C29.0517722,36.538561 29.2015636,36.5951157 29.4114128,36.5951157 C29.494248,36.5951157 29.6281629,36.5822623 29.8131615,36.5565553 L29.8338702,36.9344473 C29.7040951,36.9781493 29.5273826,37 29.3037276,37 C28.9641032,37 28.7169819,36.9080986 28.5623562,36.7242931 C28.4077305,36.5404875 28.3304188,36.2699247 28.3304188,35.9125964 L28.3304188,33.1285347 L27.5062126,33.1285347 L27.5062126,32.7506427 L28.3304188,32.7506427 L28.3304188,31.6825193 L28.8274275,31.6825193 Z M31.3373217,36.9228792 L30.8403129,36.9228792 L30.8403129,32.7506427 L31.3373217,32.7506427 L31.3373217,36.9228792 Z M30.7533364,31.5437018 C30.7533364,31.4562978 30.7837089,31.382391 30.8444547,31.3219794 C30.9052005,31.2615678 30.9880345,31.2313625 31.092959,31.2313625 C31.1978836,31.2313625 31.2814079,31.2615678 31.3435343,31.3219794 C31.4056607,31.382391 31.4367234,31.4562978 31.4367234,31.5437018 C31.4367234,31.6311058 31.4056607,31.7043699 31.3435343,31.7634961 C31.2814079,31.8226224 31.1978836,31.8521851 31.092959,31.8521851 C30.9880345,31.8521851 30.9052005,31.8226224 30.8444547,31.7634961 C30.7837089,31.7043699 30.7533364,31.6311058 30.7533364,31.5437018 Z M32.4100322,34.7750643 C32.4100322,34.374034 32.4935565,34.0128551 32.6606075,33.6915167 C32.8276585,33.3701783 33.0637352,33.1201808 33.3688449,32.9415167 C33.6739546,32.7628526 34.0197864,32.6735219 34.4063507,32.6735219 C35.0027641,32.6735219 35.4859623,32.86825 35.8559595,33.2577121 C36.2259568,33.6471742 36.4109526,34.1632359 36.4109526,34.8059126 L36.4109526,34.9023136 C36.4109526,35.3059146 36.3274284,35.6690215 36.1603774,35.9916452 C35.9933264,36.314269 35.7579399,36.5629811 35.4542108,36.7377892 C35.1504817,36.9125973 34.8039596,37 34.4146341,37 C33.8209818,37 33.338474,36.8052719 32.9670962,36.4158098 C32.5957183,36.0263477 32.4100322,35.510286 32.4100322,34.8676093 L32.4100322,34.7750643 Z M32.907041,34.9023136 C32.907041,35.4010308 33.0457878,35.8104097 33.3232858,36.1304627 C33.6007837,36.4505157 33.9645629,36.6105398 34.4146341,36.6105398 C34.8619443,36.6105398 35.2243428,36.4505157 35.5018408,36.1304627 C35.7793387,35.8104097 35.9180856,35.3881774 35.9180856,34.8637532 L35.9180856,34.7750643 C35.9180856,34.4562966 35.8545796,34.1645257 35.7275656,33.8997429 C35.6005516,33.6349601 35.4224586,33.4299493 35.1932812,33.2847044 C34.9641038,33.1394594 34.7017962,33.066838 34.4063507,33.066838 C33.9645629,33.066838 33.6042352,33.2281475 33.3253566,33.5507712 C33.0464781,33.8733949 32.907041,34.2956272 32.907041,34.8174807 L32.907041,34.9023136 Z M37.9061206,32.7506427 L37.9226875,33.4640103 C38.0911191,33.2069396 38.3009651,33.0109261 38.5522319,32.875964 C38.8034987,32.7410019 39.0809925,32.6735219 39.3847216,32.6735219 C39.8651658,32.6735219 40.2227324,32.7994846 40.4574321,33.0514139 C40.6921319,33.3033432 40.8108605,33.6812314 40.8136217,34.18509 L40.8136217,36.9228792 L40.3207547,36.9228792 L40.3207547,34.1812339 C40.3179935,33.8084814 40.2330887,33.5308492 40.0660377,33.348329 C39.8989867,33.1658089 39.6318472,33.0745501 39.2646111,33.0745501 C38.9581209,33.0745501 38.6868397,33.1638809 38.4507593,33.342545 C38.214679,33.5212091 38.0400374,33.7622093 37.9268293,34.0655527 L37.9268293,36.9228792 L37.4339623,36.9228792 L37.4339623,32.7506427 L37.9061206,32.7506427 Z M48.1983433,31.7133676 L46.1316153,31.7133676 L46.1316153,36.9228792 L45.6221813,36.9228792 L45.6221813,31.7133676 L43.559595,31.7133676 L43.559595,31.3084833 L48.1983433,31.3084833 L48.1983433,31.7133676 Z M49.6106765,36.9228792 L49.1136677,36.9228792 L49.1136677,32.7506427 L49.6106765,32.7506427 L49.6106765,36.9228792 Z M49.0266912,31.5437018 C49.0266912,31.4562978 49.0570637,31.382391 49.1178095,31.3219794 C49.1785553,31.2615678 49.2613893,31.2313625 49.3663139,31.2313625 C49.4712384,31.2313625 49.5547627,31.2615678 49.6168891,31.3219794 C49.6790155,31.382391 49.7100782,31.4562978 49.7100782,31.5437018 C49.7100782,31.6311058 49.6790155,31.7043699 49.6168891,31.7634961 C49.5547627,31.8226224 49.4712384,31.8521851 49.3663139,31.8521851 C49.2613893,31.8521851 49.1785553,31.8226224 49.1178095,31.7634961 C49.0570637,31.7043699 49.0266912,31.6311058 49.0266912,31.5437018 Z M51.7271054,31.6825193 L51.7271054,32.7506427 L52.654855,32.7506427 L52.654855,33.1285347 L51.7271054,33.1285347 L51.7271054,35.9087404 C51.7271054,36.140104 51.7719738,36.3123388 51.8617119,36.4254499 C51.9514501,36.538561 52.1012415,36.5951157 52.3110907,36.5951157 C52.3939259,36.5951157 52.5278408,36.5822623 52.7128394,36.5565553 L52.7335481,36.9344473 C52.6037729,36.9781493 52.4270605,37 52.2034054,37 C51.8637811,37 51.6166598,36.9080986 51.4620341,36.7242931 C51.3074083,36.5404875 51.2300966,36.2699247 51.2300966,35.9125964 L51.2300966,33.1285347 L50.4058905,33.1285347 L50.4058905,32.7506427 L51.2300966,32.7506427 L51.2300966,31.6825193 L51.7271054,31.6825193 Z M54.2369995,36.9228792 L53.7399908,36.9228792 L53.7399908,31 L54.2369995,31 L54.2369995,36.9228792 Z M57.3184538,37 C56.9374118,37 56.5929606,36.9125973 56.2850897,36.7377892 C55.9772189,36.5629811 55.7376907,36.3194103 55.5664979,36.0070694 C55.3953052,35.6947285 55.3097101,35.3444749 55.3097101,34.9562982 L55.3097101,34.7904884 C55.3097101,34.3894581 55.3932343,34.0282792 55.5602853,33.7069409 C55.7273363,33.3856025 55.9599617,33.1330343 56.2581684,32.9492288 C56.5563752,32.7654232 56.8794276,32.6735219 57.2273355,32.6735219 C57.7712867,32.6735219 58.2027135,32.8463993 58.5216291,33.1921594 C58.8405446,33.5379195 59,34.0102798 59,34.6092545 L59,34.8676093 L55.8025771,34.8676093 L55.8025771,34.9562982 C55.8025771,35.4293083 55.9482268,35.8232632 56.2395306,36.1381748 C56.5308344,36.4530864 56.8973747,36.6105398 57.3391624,36.6105398 C57.6042351,36.6105398 57.838241,36.5655531 58.0411873,36.4755784 C58.2441336,36.3856037 58.4284391,36.2416462 58.5941095,36.0437018 L58.90474,36.2634961 C58.5402651,36.7545012 58.0115083,37 57.3184538,37 Z M57.2273355,33.066838 C56.8545771,33.066838 56.5404983,33.1940861 56.2850897,33.4485861 C56.0296812,33.7030861 55.8743675,34.044985 55.819144,34.4742931 L58.507133,34.4742931 L58.507133,34.4241645 C58.4933271,34.0231342 58.3704568,33.6966594 58.1385182,33.4447301 C57.9065796,33.1928008 57.6028551,33.066838 57.2273355,33.066838 Z" id="Section-Title" fill="#424242"></path>
            <rect id="Rectangle" fill="#C9C8C8" x="201" y="57" width="88" height="64"></rect>
            <path d="M16.0137049,86.4203085 C15.3735665,86.2377883 14.9077237,86.0134975 14.6161626,85.7474293 C14.3246016,85.4813611 14.1788232,85.1529583 14.1788232,84.7622108 C14.1788232,84.3200492 14.3569967,83.9543716 14.7133491,83.6651671 C15.0697015,83.3759626 15.5329527,83.2313625 16.1031166,83.2313625 C16.4918646,83.2313625 16.8384931,83.3059119 17.1430125,83.4550129 C17.4475318,83.6041139 17.6833687,83.8097673 17.8505304,84.0719794 C18.0176921,84.3341915 18.1012717,84.6208211 18.1012717,84.9318766 L17.3509916,84.9318766 C17.3509916,84.5925433 17.2421438,84.3258364 17.0244449,84.1317481 C16.806746,83.9376597 16.4996396,83.840617 16.1031166,83.840617 C15.7351017,83.840617 15.4480804,83.9209504 15.2420439,84.0816195 C15.0360074,84.2422887 14.9329907,84.4652942 14.9329907,84.7506427 C14.9329907,84.9794356 15.0308242,85.1728784 15.226494,85.3309769 C15.4221639,85.4890753 15.7551864,85.6336754 16.2255716,85.7647815 C16.6959568,85.8958875 17.0639661,86.0404876 17.3296106,86.1985861 C17.5952551,86.3566846 17.7922178,86.5411301 17.9205047,86.751928 C18.0487916,86.962726 18.112934,87.2107955 18.112934,87.496144 C18.112934,87.9511591 17.9341126,88.3155513 17.5764644,88.5893316 C17.2188162,88.8631119 16.7406632,89 16.1419912,89 C15.7532431,89 15.390417,88.9260933 15.053502,88.7782776 C14.716587,88.630462 14.4567776,88.4280219 14.274066,88.1709512 C14.0913544,87.9138805 14,87.6221096 14,87.2956298 L14.75028,87.2956298 C14.75028,87.6349631 14.8766213,87.9029553 15.1293075,88.0996144 C15.3819938,88.2962735 15.7195516,88.3946015 16.1419912,88.3946015 C16.5359226,88.3946015 16.8378457,88.3149108 17.0477697,88.155527 C17.2576936,87.9961432 17.362654,87.7789217 17.362654,87.503856 C17.362654,87.2287904 17.2654685,87.0160676 17.0710944,86.8656812 C16.8767204,86.7152949 16.5242608,86.5668388 16.0137049,86.4203085 Z M21.5533373,88.5102828 C21.2734387,88.8367626 20.8626677,89 20.3210121,89 C19.8726559,89 19.5312107,88.8708239 19.296666,88.6124679 C19.0621213,88.3541118 18.943555,87.9717249 18.9409633,87.4652956 L18.9409633,84.7506427 L19.6601436,84.7506427 L19.6601436,87.4460154 C19.6601436,88.0784093 19.9193051,88.3946015 20.4376359,88.3946015 C20.9870665,88.3946015 21.3524842,88.1915187 21.5339,87.785347 L21.5339,84.7506427 L22.2530803,84.7506427 L22.2530803,88.9228792 L21.5688871,88.9228792 L21.5533373,88.5102828 Z M26.9063715,86.8830334 C26.9063715,87.5205687 26.7586494,88.0327744 26.4632009,88.4196658 C26.1677524,88.8065572 25.7712353,89 25.2736377,89 C24.7423487,89 24.3315777,88.8136265 24.0413125,88.440874 L24.0063254,88.9228792 L23.3454569,88.9228792 L23.3454569,83 L24.0646373,83 L24.0646373,85.2095116 C24.3549025,84.8521833 24.755307,84.6735219 25.2658628,84.6735219 C25.7764186,84.6735219 26.177471,84.8650366 26.4690321,85.248072 C26.7605931,85.6311073 26.9063715,86.1555237 26.9063715,86.8213368 L26.9063715,86.8830334 Z M26.1871911,86.8020566 C26.1871911,86.3161929 26.0925972,85.9408754 25.9034065,85.6760925 C25.7142157,85.4113097 25.4420962,85.2789203 25.0870396,85.2789203 C24.612767,85.2789203 24.2719696,85.4974271 24.0646373,85.9344473 L24.0646373,87.7390746 C24.2849279,88.1760947 24.6283168,88.3946015 25.0948145,88.3946015 C25.4395045,88.3946015 25.7077366,88.2622121 25.899519,87.9974293 C26.0913014,87.7326465 26.1871911,87.3341929 26.1871911,86.8020566 Z M29.3088226,86.8290488 L27.4117415,86.8290488 L27.4117415,86.2467866 L29.3088226,86.2467866 L29.3088226,86.8290488 Z M31.7890229,86.4203085 C31.1488844,86.2377883 30.6830416,86.0134975 30.3914805,85.7474293 C30.0999195,85.4813611 29.9541411,85.1529583 29.9541411,84.7622108 C29.9541411,84.3200492 30.1323147,83.9543716 30.4886671,83.6651671 C30.8450195,83.3759626 31.3082706,83.2313625 31.8784345,83.2313625 C32.2671825,83.2313625 32.613811,83.3059119 32.9183304,83.4550129 C33.2228497,83.6041139 33.4586867,83.8097673 33.6258483,84.0719794 C33.79301,84.3341915 33.8765896,84.6208211 33.8765896,84.9318766 L33.1263095,84.9318766 C33.1263095,84.5925433 33.0174617,84.3258364 32.7997628,84.1317481 C32.5820639,83.9376597 32.2749575,83.840617 31.8784345,83.840617 C31.5104196,83.840617 31.2233983,83.9209504 31.0173618,84.0816195 C30.8113253,84.2422887 30.7083086,84.4652942 30.7083086,84.7506427 C30.7083086,84.9794356 30.8061421,85.1728784 31.001812,85.3309769 C31.1974818,85.4890753 31.5305043,85.6336754 32.0008895,85.7647815 C32.4712747,85.8958875 32.839284,86.0404876 33.1049285,86.1985861 C33.370573,86.3566846 33.5675358,86.5411301 33.6958226,86.751928 C33.8241095,86.962726 33.888252,87.2107955 33.888252,87.496144 C33.888252,87.9511591 33.7094305,88.3155513 33.3517823,88.5893316 C32.9941341,88.8631119 32.5159811,89 31.9173091,89 C31.528561,89 31.1657349,88.9260933 30.8288199,88.7782776 C30.4919049,88.630462 30.2320955,88.4280219 30.0493839,88.1709512 C29.8666723,87.9138805 29.7753179,87.6221096 29.7753179,87.2956298 L30.5255979,87.2956298 C30.5255979,87.6349631 30.6519392,87.9029553 30.9046254,88.0996144 C31.1573117,88.2962735 31.4948695,88.3946015 31.9173091,88.3946015 C32.3112405,88.3946015 32.6131636,88.3149108 32.8230876,88.155527 C33.0330115,87.9961432 33.1379719,87.7789217 33.1379719,87.503856 C33.1379719,87.2287904 33.0407864,87.0160676 32.8464123,86.8656812 C32.6520383,86.7152949 32.2995787,86.5668388 31.7890229,86.4203085 Z M36.4773012,89 C35.9071373,89 35.4432383,88.8142692 35.08559,88.4428021 C34.7279418,88.0713349 34.5491204,87.5745532 34.5491204,86.9524422 L34.5491204,86.8213368 C34.5491204,86.4074529 34.6288125,86.0379194 34.7881992,85.7127249 C34.947586,85.3875305 35.1704648,85.1330343 35.4568426,84.9492288 C35.7432203,84.7654232 36.0535662,84.6735219 36.3878896,84.6735219 C36.9347285,84.6735219 37.3597534,84.8521833 37.6629769,85.2095116 C37.9662004,85.5668398 38.1178098,86.0784028 38.1178098,86.7442159 L38.1178098,87.0411311 L35.2683007,87.0411311 C35.2786673,87.4524442 35.3998253,87.7847031 35.6317783,88.0379177 C35.8637314,88.2911324 36.1585276,88.4177378 36.5161758,88.4177378 C36.7701579,88.4177378 36.9852619,88.3663244 37.1614944,88.2634961 C37.3377268,88.1606679 37.4919279,88.0244224 37.6241023,87.8547558 L38.0633854,88.1940874 C37.7109205,88.7313652 37.182231,89 36.4773012,89 Z M36.3878896,85.2596401 C36.0976243,85.2596401 35.8540125,85.3643948 35.6570468,85.5739075 C35.4600812,85.7834201 35.3382753,86.0771189 35.2916255,86.4550129 L37.3986295,86.4550129 L37.3986295,86.4010283 C37.3778963,86.0385586 37.2794149,85.7577131 37.1031824,85.5584833 C36.92695,85.3592535 36.6885214,85.2596401 36.3878896,85.2596401 Z M40.6368848,88.4177378 C40.8934585,88.4177378 41.1176332,88.3406177 41.3094156,88.1863753 C41.5011979,88.0321329 41.6074542,87.8393328 41.6281874,87.6079692 L42.3084931,87.6079692 C42.2955348,87.8470449 42.2126032,88.074549 42.0596956,88.2904884 C41.906788,88.5064278 41.7026983,88.6786626 41.4474204,88.8071979 C41.1921425,88.9357333 40.9219667,89 40.6368848,89 C40.0641293,89 39.6086529,88.8104132 39.2704421,88.4312339 C38.9322313,88.0520547 38.7631284,87.5334223 38.7631284,86.8753213 L38.7631284,86.7557841 C38.7631284,86.3496124 38.8382853,85.9884335 38.9886012,85.6722365 C39.1389171,85.3560396 39.354669,85.1105407 39.6358635,84.9357326 C39.9170579,84.7609246 40.2494325,84.6735219 40.6329973,84.6735219 C41.1046783,84.6735219 41.4966601,84.8136233 41.8089543,85.0938303 C42.1212486,85.3740374 42.2877599,85.737787 42.3084931,86.18509 L41.6281874,86.18509 C41.6074542,85.9151657 41.5044375,85.6934456 41.3191342,85.5199229 C41.133831,85.3464002 40.9051209,85.2596401 40.6329973,85.2596401 C40.2675741,85.2596401 39.9844402,85.3901015 39.783587,85.6510283 C39.5827338,85.911955 39.4823088,86.2892006 39.4823088,86.7827763 L39.4823088,86.9177378 C39.4823088,87.39846 39.5820859,87.7686362 39.7816433,88.0282776 C39.9812006,88.287919 40.2662783,88.4177378 40.6368848,88.4177378 Z M44.0928378,83.7403599 L44.0928378,84.7506427 L44.878105,84.7506427 L44.878105,85.3020566 L44.0928378,85.3020566 L44.0928378,87.8894602 C44.0928378,88.0565561 44.1278246,88.1818762 44.1977993,88.2654242 C44.267774,88.3489721 44.3869882,88.3907455 44.5554457,88.3907455 C44.6383787,88.3907455 44.7524097,88.3753215 44.8975423,88.344473 L44.8975423,88.9228792 C44.7083516,88.9742933 44.5243469,89 44.3455228,89 C44.0241578,89 43.7818418,88.9035999 43.6185676,88.7107969 C43.4552934,88.5179939 43.3736575,88.2442177 43.3736575,87.8894602 L43.3736575,85.3020566 L42.6078276,85.3020566 L42.6078276,84.7506427 L43.3736575,84.7506427 L43.3736575,83.7403599 L44.0928378,83.7403599 Z M46.4991764,88.9228792 L45.779996,88.9228792 L45.779996,84.7506427 L46.4991764,84.7506427 L46.4991764,88.9228792 Z M45.7216841,83.6439589 C45.7216841,83.5282771 45.7573188,83.4305917 45.8285893,83.3508997 C45.8998598,83.2712078 46.0054681,83.2313625 46.1454174,83.2313625 C46.2853667,83.2313625 46.3916229,83.2712078 46.4641892,83.3508997 C46.5367555,83.4305917 46.5730381,83.5282771 46.5730381,83.6439589 C46.5730381,83.7596407 46.5367555,83.8560407 46.4641892,83.933162 C46.3916229,84.0102832 46.2853667,84.0488432 46.1454174,84.0488432 C46.0054681,84.0488432 45.8998598,84.0102832 45.8285893,83.933162 C45.7573188,83.8560407 45.7216841,83.7596407 45.7216841,83.6439589 Z M47.4593793,86.7982005 C47.4593793,86.3894581 47.5403673,86.0218525 47.7023457,85.6953728 C47.864324,85.368893 48.0897945,85.1169675 48.3787639,84.9395887 C48.6677333,84.7622099 48.9975163,84.6735219 49.3681228,84.6735219 C49.9408783,84.6735219 50.4041295,84.870178 50.7578902,85.2634961 C51.111651,85.6568143 51.2885287,86.1799453 51.2885287,86.8329049 L51.2885287,86.8830334 C51.2885287,87.2892051 51.2101323,87.6535974 51.0533373,87.9762211 C50.8965422,88.2988448 50.6723675,88.5501276 50.3808065,88.7300771 C50.0892454,88.9100266 49.7542792,89 49.3758977,89 C48.8057339,89 48.3437785,88.8033439 47.9900178,88.4100257 C47.636257,88.0167075 47.4593793,87.4961472 47.4593793,86.848329 L47.4593793,86.7982005 Z M48.1824471,86.8830334 C48.1824471,87.3457607 48.290647,87.7172222 48.5070501,87.9974293 C48.7234532,88.2776364 49.0130662,88.4177378 49.3758977,88.4177378 C49.7413209,88.4177378 50.0315818,88.2757084 50.2466891,87.9916452 C50.4617963,87.7075821 50.5693484,87.3097712 50.5693484,86.7982005 C50.5693484,86.3406147 50.4598526,85.9697958 50.2408579,85.6857326 C50.0218631,85.4016695 49.7309544,85.2596401 49.3681228,85.2596401 C49.0130662,85.2596401 48.7266928,85.3997415 48.5089939,85.6799486 C48.291295,85.9601556 48.1824471,86.3611799 48.1824471,86.8830334 Z M52.8707254,84.7506427 L52.8940502,85.2750643 C53.2154153,84.874034 53.6352569,84.6735219 54.1535877,84.6735219 C55.0425249,84.6735219 55.4908743,85.1709462 55.4986493,86.1658098 L55.4986493,88.9228792 L54.7794689,88.9228792 L54.7794689,86.1619537 C54.7768773,85.861181 54.7075516,85.6388182 54.5714898,85.4948586 C54.4354279,85.350899 54.2235634,85.2789203 53.9358898,85.2789203 C53.702641,85.2789203 53.4979034,85.3406163 53.3216709,85.4640103 C53.1454385,85.5874042 53.0080829,85.7493563 52.9096001,85.9498715 L52.9096001,88.9228792 L52.1904197,88.9228792 L52.1904197,84.7506427 L52.8707254,84.7506427 Z M62.4222178,83.9177378 L60.6028859,83.9177378 L60.6028859,88.9228792 L59.8603808,88.9228792 L59.8603808,83.9177378 L58.0449364,83.9177378 L58.0449364,83.3084833 L62.4222178,83.3084833 L62.4222178,83.9177378 Z M63.9305528,88.9228792 L63.2113725,88.9228792 L63.2113725,84.7506427 L63.9305528,84.7506427 L63.9305528,88.9228792 Z M63.1530606,83.6439589 C63.1530606,83.5282771 63.1886953,83.4305917 63.2599657,83.3508997 C63.3312362,83.2712078 63.4368445,83.2313625 63.5767938,83.2313625 C63.7167431,83.2313625 63.8229994,83.2712078 63.8955657,83.3508997 C63.968132,83.4305917 64.0044146,83.5282771 64.0044146,83.6439589 C64.0044146,83.7596407 63.968132,83.8560407 63.8955657,83.933162 C63.8229994,84.0102832 63.7167431,84.0488432 63.5767938,84.0488432 C63.4368445,84.0488432 63.3312362,84.0102832 63.2599657,83.933162 C63.1886953,83.8560407 63.1530606,83.7596407 63.1530606,83.6439589 Z M66.0569941,83.7403599 L66.0569941,84.7506427 L66.8422613,84.7506427 L66.8422613,85.3020566 L66.0569941,85.3020566 L66.0569941,87.8894602 C66.0569941,88.0565561 66.0919809,88.1818762 66.1619556,88.2654242 C66.2319302,88.3489721 66.3511445,88.3907455 66.519602,88.3907455 C66.602535,88.3907455 66.716566,88.3753215 66.8616986,88.344473 L66.8616986,88.9228792 C66.6725079,88.9742933 66.4885032,89 66.3096791,89 C65.988314,89 65.745998,88.9035999 65.5827239,88.7107969 C65.4194497,88.5179939 65.3378138,88.2442177 65.3378138,87.8894602 L65.3378138,85.3020566 L64.5719839,85.3020566 L64.5719839,84.7506427 L65.3378138,84.7506427 L65.3378138,83.7403599 L66.0569941,83.7403599 Z M68.4633327,88.9228792 L67.7441523,88.9228792 L67.7441523,83 L68.4633327,83 L68.4633327,88.9228792 Z M71.3594913,89 C70.7893275,89 70.3254284,88.8142692 69.9677802,88.4428021 C69.610132,88.0713349 69.4313105,87.5745532 69.4313105,86.9524422 L69.4313105,86.8213368 C69.4313105,86.4074529 69.5110027,86.0379194 69.6703894,85.7127249 C69.8297761,85.3875305 70.052655,85.1330343 70.3390327,84.9492288 C70.6254105,84.7654232 70.9357564,84.6735219 71.2700797,84.6735219 C71.8169187,84.6735219 72.2419435,84.8521833 72.545167,85.2095116 C72.8483905,85.5668398 73,86.0784028 73,86.7442159 L73,87.0411311 L70.1504909,87.0411311 C70.1608575,87.4524442 70.2820155,87.7847031 70.5139685,88.0379177 C70.7459215,88.2911324 71.0407177,88.4177378 71.3983659,88.4177378 C71.652348,88.4177378 71.8674521,88.3663244 72.0436845,88.2634961 C72.219917,88.1606679 72.3741181,88.0244224 72.5062924,87.8547558 L72.9455755,88.1940874 C72.5931106,88.7313652 72.0644212,89 71.3594913,89 Z M71.2700797,85.2596401 C70.9798145,85.2596401 70.7362027,85.3643948 70.539237,85.5739075 C70.3422713,85.7834201 70.2204654,86.0771189 70.1738156,86.4550129 L72.2808197,86.4550129 L72.2808197,86.4010283 C72.2600864,86.0385586 72.1616051,85.7577131 71.9853726,85.5584833 C71.8091401,85.3592535 71.5707116,85.2596401 71.2700797,85.2596401 Z" id="Sub-Section-Title" fill="#424242"></path>
            <rect id="Rectangle-2" stroke="#D8D8D8" fill="#D8D8D8" x="14" y="41" width="270" height="4" rx="2"></rect>
            <rect id="Rectangle-2-Copy-2" stroke="#D8D8D8" fill="#D8D8D8" x="14" y="55" width="175" height="4" rx="2"></rect>
            <rect id="Rectangle-2-Copy-6" stroke="#D8D8D8" fill="#D8D8D8" x="14" y="100" width="175" height="4" rx="2"></rect>
            <rect id="Rectangle-2-Copy-12" stroke="#D8D8D8" fill="#D8D8D8" x="14" y="93" width="182" height="4" rx="2"></rect>
            <rect id="Rectangle-2-Copy-4" stroke="#D8D8D8" fill="#D8D8D8" x="14" y="68" width="179" height="4" rx="2"></rect>
            <rect id="Rectangle-2-Copy-7" stroke="#D8D8D8" fill="#D8D8D8" x="14" y="113" width="179" height="4" rx="2"></rect>
            <rect id="Rectangle-2-Copy-10" stroke="#D8D8D8" fill="#D8D8D8" x="14" y="126" width="275" height="4" rx="2"></rect>
            <rect id="Rectangle-2-Copy-13" stroke="#D8D8D8" fill="#D8D8D8" x="14" y="152" width="275" height="4" rx="2"></rect>
            <rect id="Rectangle-2-Copy-15" stroke="#D8D8D8" fill="#D8D8D8" x="14" y="166" width="179" height="4" rx="2"></rect>
            <rect id="Rectangle-2-Copy" stroke="#D8D8D8" fill="#D8D8D8" x="14" y="48" width="275" height="4" rx="2"></rect>
            <rect id="Rectangle-2-Copy-3" stroke="#D8D8D8" fill="#D8D8D8" x="14" y="61" width="182" height="4" rx="2"></rect>
            <rect id="Rectangle-2-Copy-8" stroke="#D8D8D8" fill="#D8D8D8" x="14" y="106" width="182" height="4" rx="2"></rect>
            <rect id="Rectangle-2-Copy-5" stroke="#D8D8D8" fill="#D8D8D8" x="14" y="75" width="182" height="4" rx="2"></rect>
            <rect id="Rectangle-2-Copy-9" stroke="#D8D8D8" fill="#D8D8D8" x="14" y="120" width="182" height="4" rx="2"></rect>
            <rect id="Rectangle-2-Copy-11" stroke="#D8D8D8" fill="#D8D8D8" x="14" y="133" width="217" height="4" rx="2"></rect>
            <rect id="Rectangle-2-Copy-14" stroke="#D8D8D8" fill="#D8D8D8" x="14" y="159" width="265" height="4" rx="2"></rect>
            <rect id="Rectangle-2-Copy-16" stroke="#D8D8D8" fill="#D8D8D8" x="14" y="173" width="184" height="4" rx="2"></rect>
            <path d="M16.0137049,145.420308 C15.3735665,145.237788 14.9077237,145.013497 14.6161626,144.747429 C14.3246016,144.481361 14.1788232,144.152958 14.1788232,143.762211 C14.1788232,143.320049 14.3569967,142.954372 14.7133491,142.665167 C15.0697015,142.375963 15.5329527,142.231362 16.1031166,142.231362 C16.4918646,142.231362 16.8384931,142.305912 17.1430125,142.455013 C17.4475318,142.604114 17.6833687,142.809767 17.8505304,143.071979 C18.0176921,143.334192 18.1012717,143.620821 18.1012717,143.931877 L17.3509916,143.931877 C17.3509916,143.592543 17.2421438,143.325836 17.0244449,143.131748 C16.806746,142.93766 16.4996396,142.840617 16.1031166,142.840617 C15.7351017,142.840617 15.4480804,142.92095 15.2420439,143.08162 C15.0360074,143.242289 14.9329907,143.465294 14.9329907,143.750643 C14.9329907,143.979436 15.0308242,144.172878 15.226494,144.330977 C15.4221639,144.489075 15.7551864,144.633675 16.2255716,144.764781 C16.6959568,144.895888 17.0639661,145.040488 17.3296106,145.198586 C17.5952551,145.356685 17.7922178,145.54113 17.9205047,145.751928 C18.0487916,145.962726 18.112934,146.210795 18.112934,146.496144 C18.112934,146.951159 17.9341126,147.315551 17.5764644,147.589332 C17.2188162,147.863112 16.7406632,148 16.1419912,148 C15.7532431,148 15.390417,147.926093 15.053502,147.778278 C14.716587,147.630462 14.4567776,147.428022 14.274066,147.170951 C14.0913544,146.91388 14,146.62211 14,146.29563 L14.75028,146.29563 C14.75028,146.634963 14.8766213,146.902955 15.1293075,147.099614 C15.3819938,147.296273 15.7195516,147.394602 16.1419912,147.394602 C16.5359226,147.394602 16.8378457,147.314911 17.0477697,147.155527 C17.2576936,146.996143 17.362654,146.778922 17.362654,146.503856 C17.362654,146.22879 17.2654685,146.016068 17.0710944,145.865681 C16.8767204,145.715295 16.5242608,145.566839 16.0137049,145.420308 Z M21.5533373,147.510283 C21.2734387,147.836763 20.8626677,148 20.3210121,148 C19.8726559,148 19.5312107,147.870824 19.296666,147.612468 C19.0621213,147.354112 18.943555,146.971725 18.9409633,146.465296 L18.9409633,143.750643 L19.6601436,143.750643 L19.6601436,146.446015 C19.6601436,147.078409 19.9193051,147.394602 20.4376359,147.394602 C20.9870665,147.394602 21.3524842,147.191519 21.5339,146.785347 L21.5339,143.750643 L22.2530803,143.750643 L22.2530803,147.922879 L21.5688871,147.922879 L21.5533373,147.510283 Z M26.9063715,145.883033 C26.9063715,146.520569 26.7586494,147.032774 26.4632009,147.419666 C26.1677524,147.806557 25.7712353,148 25.2736377,148 C24.7423487,148 24.3315777,147.813627 24.0413125,147.440874 L24.0063254,147.922879 L23.3454569,147.922879 L23.3454569,142 L24.0646373,142 L24.0646373,144.209512 C24.3549025,143.852183 24.755307,143.673522 25.2658628,143.673522 C25.7764186,143.673522 26.177471,143.865037 26.4690321,144.248072 C26.7605931,144.631107 26.9063715,145.155524 26.9063715,145.821337 L26.9063715,145.883033 Z M26.1871911,145.802057 C26.1871911,145.316193 26.0925972,144.940875 25.9034065,144.676093 C25.7142157,144.41131 25.4420962,144.27892 25.0870396,144.27892 C24.612767,144.27892 24.2719696,144.497427 24.0646373,144.934447 L24.0646373,146.739075 C24.2849279,147.176095 24.6283168,147.394602 25.0948145,147.394602 C25.4395045,147.394602 25.7077366,147.262212 25.899519,146.997429 C26.0913014,146.732646 26.1871911,146.334193 26.1871911,145.802057 Z M29.3088226,145.829049 L27.4117415,145.829049 L27.4117415,145.246787 L29.3088226,145.246787 L29.3088226,145.829049 Z M31.7890229,145.420308 C31.1488844,145.237788 30.6830416,145.013497 30.3914805,144.747429 C30.0999195,144.481361 29.9541411,144.152958 29.9541411,143.762211 C29.9541411,143.320049 30.1323147,142.954372 30.4886671,142.665167 C30.8450195,142.375963 31.3082706,142.231362 31.8784345,142.231362 C32.2671825,142.231362 32.613811,142.305912 32.9183304,142.455013 C33.2228497,142.604114 33.4586867,142.809767 33.6258483,143.071979 C33.79301,143.334192 33.8765896,143.620821 33.8765896,143.931877 L33.1263095,143.931877 C33.1263095,143.592543 33.0174617,143.325836 32.7997628,143.131748 C32.5820639,142.93766 32.2749575,142.840617 31.8784345,142.840617 C31.5104196,142.840617 31.2233983,142.92095 31.0173618,143.08162 C30.8113253,143.242289 30.7083086,143.465294 30.7083086,143.750643 C30.7083086,143.979436 30.8061421,144.172878 31.001812,144.330977 C31.1974818,144.489075 31.5305043,144.633675 32.0008895,144.764781 C32.4712747,144.895888 32.839284,145.040488 33.1049285,145.198586 C33.370573,145.356685 33.5675358,145.54113 33.6958226,145.751928 C33.8241095,145.962726 33.888252,146.210795 33.888252,146.496144 C33.888252,146.951159 33.7094305,147.315551 33.3517823,147.589332 C32.9941341,147.863112 32.5159811,148 31.9173091,148 C31.528561,148 31.1657349,147.926093 30.8288199,147.778278 C30.4919049,147.630462 30.2320955,147.428022 30.0493839,147.170951 C29.8666723,146.91388 29.7753179,146.62211 29.7753179,146.29563 L30.5255979,146.29563 C30.5255979,146.634963 30.6519392,146.902955 30.9046254,147.099614 C31.1573117,147.296273 31.4948695,147.394602 31.9173091,147.394602 C32.3112405,147.394602 32.6131636,147.314911 32.8230876,147.155527 C33.0330115,146.996143 33.1379719,146.778922 33.1379719,146.503856 C33.1379719,146.22879 33.0407864,146.016068 32.8464123,145.865681 C32.6520383,145.715295 32.2995787,145.566839 31.7890229,145.420308 Z M36.4773012,148 C35.9071373,148 35.4432383,147.814269 35.08559,147.442802 C34.7279418,147.071335 34.5491204,146.574553 34.5491204,145.952442 L34.5491204,145.821337 C34.5491204,145.407453 34.6288125,145.037919 34.7881992,144.712725 C34.947586,144.387531 35.1704648,144.133034 35.4568426,143.949229 C35.7432203,143.765423 36.0535662,143.673522 36.3878896,143.673522 C36.9347285,143.673522 37.3597534,143.852183 37.6629769,144.209512 C37.9662004,144.56684 38.1178098,145.078403 38.1178098,145.744216 L38.1178098,146.041131 L35.2683007,146.041131 C35.2786673,146.452444 35.3998253,146.784703 35.6317783,147.037918 C35.8637314,147.291132 36.1585276,147.417738 36.5161758,147.417738 C36.7701579,147.417738 36.9852619,147.366324 37.1614944,147.263496 C37.3377268,147.160668 37.4919279,147.024422 37.6241023,146.854756 L38.0633854,147.194087 C37.7109205,147.731365 37.182231,148 36.4773012,148 Z M36.3878896,144.25964 C36.0976243,144.25964 35.8540125,144.364395 35.6570468,144.573907 C35.4600812,144.78342 35.3382753,145.077119 35.2916255,145.455013 L37.3986295,145.455013 L37.3986295,145.401028 C37.3778963,145.038559 37.2794149,144.757713 37.1031824,144.558483 C36.92695,144.359254 36.6885214,144.25964 36.3878896,144.25964 Z M40.6368848,147.417738 C40.8934585,147.417738 41.1176332,147.340618 41.3094156,147.186375 C41.5011979,147.032133 41.6074542,146.839333 41.6281874,146.607969 L42.3084931,146.607969 C42.2955348,146.847045 42.2126032,147.074549 42.0596956,147.290488 C41.906788,147.506428 41.7026983,147.678663 41.4474204,147.807198 C41.1921425,147.935733 40.9219667,148 40.6368848,148 C40.0641293,148 39.6086529,147.810413 39.2704421,147.431234 C38.9322313,147.052055 38.7631284,146.533422 38.7631284,145.875321 L38.7631284,145.755784 C38.7631284,145.349612 38.8382853,144.988433 38.9886012,144.672237 C39.1389171,144.35604 39.354669,144.110541 39.6358635,143.935733 C39.9170579,143.760925 40.2494325,143.673522 40.6329973,143.673522 C41.1046783,143.673522 41.4966601,143.813623 41.8089543,144.09383 C42.1212486,144.374037 42.2877599,144.737787 42.3084931,145.18509 L41.6281874,145.18509 C41.6074542,144.915166 41.5044375,144.693446 41.3191342,144.519923 C41.133831,144.3464 40.9051209,144.25964 40.6329973,144.25964 C40.2675741,144.25964 39.9844402,144.390102 39.783587,144.651028 C39.5827338,144.911955 39.4823088,145.289201 39.4823088,145.782776 L39.4823088,145.917738 C39.4823088,146.39846 39.5820859,146.768636 39.7816433,147.028278 C39.9812006,147.287919 40.2662783,147.417738 40.6368848,147.417738 Z M44.0928378,142.74036 L44.0928378,143.750643 L44.878105,143.750643 L44.878105,144.302057 L44.0928378,144.302057 L44.0928378,146.88946 C44.0928378,147.056556 44.1278246,147.181876 44.1977993,147.265424 C44.267774,147.348972 44.3869882,147.390746 44.5554457,147.390746 C44.6383787,147.390746 44.7524097,147.375321 44.8975423,147.344473 L44.8975423,147.922879 C44.7083516,147.974293 44.5243469,148 44.3455228,148 C44.0241578,148 43.7818418,147.9036 43.6185676,147.710797 C43.4552934,147.517994 43.3736575,147.244218 43.3736575,146.88946 L43.3736575,144.302057 L42.6078276,144.302057 L42.6078276,143.750643 L43.3736575,143.750643 L43.3736575,142.74036 L44.0928378,142.74036 Z M46.4991764,147.922879 L45.779996,147.922879 L45.779996,143.750643 L46.4991764,143.750643 L46.4991764,147.922879 Z M45.7216841,142.643959 C45.7216841,142.528277 45.7573188,142.430592 45.8285893,142.3509 C45.8998598,142.271208 46.0054681,142.231362 46.1454174,142.231362 C46.2853667,142.231362 46.3916229,142.271208 46.4641892,142.3509 C46.5367555,142.430592 46.5730381,142.528277 46.5730381,142.643959 C46.5730381,142.759641 46.5367555,142.856041 46.4641892,142.933162 C46.3916229,143.010283 46.2853667,143.048843 46.1454174,143.048843 C46.0054681,143.048843 45.8998598,143.010283 45.8285893,142.933162 C45.7573188,142.856041 45.7216841,142.759641 45.7216841,142.643959 Z M47.4593793,145.798201 C47.4593793,145.389458 47.5403673,145.021853 47.7023457,144.695373 C47.864324,144.368893 48.0897945,144.116967 48.3787639,143.939589 C48.6677333,143.76221 48.9975163,143.673522 49.3681228,143.673522 C49.9408783,143.673522 50.4041295,143.870178 50.7578902,144.263496 C51.111651,144.656814 51.2885287,145.179945 51.2885287,145.832905 L51.2885287,145.883033 C51.2885287,146.289205 51.2101323,146.653597 51.0533373,146.976221 C50.8965422,147.298845 50.6723675,147.550128 50.3808065,147.730077 C50.0892454,147.910027 49.7542792,148 49.3758977,148 C48.8057339,148 48.3437785,147.803344 47.9900178,147.410026 C47.636257,147.016708 47.4593793,146.496147 47.4593793,145.848329 L47.4593793,145.798201 Z M48.1824471,145.883033 C48.1824471,146.345761 48.290647,146.717222 48.5070501,146.997429 C48.7234532,147.277636 49.0130662,147.417738 49.3758977,147.417738 C49.7413209,147.417738 50.0315818,147.275708 50.2466891,146.991645 C50.4617963,146.707582 50.5693484,146.309771 50.5693484,145.798201 C50.5693484,145.340615 50.4598526,144.969796 50.2408579,144.685733 C50.0218631,144.40167 49.7309544,144.25964 49.3681228,144.25964 C49.0130662,144.25964 48.7266928,144.399742 48.5089939,144.679949 C48.291295,144.960156 48.1824471,145.36118 48.1824471,145.883033 Z M52.8707254,143.750643 L52.8940502,144.275064 C53.2154153,143.874034 53.6352569,143.673522 54.1535877,143.673522 C55.0425249,143.673522 55.4908743,144.170946 55.4986493,145.16581 L55.4986493,147.922879 L54.7794689,147.922879 L54.7794689,145.161954 C54.7768773,144.861181 54.7075516,144.638818 54.5714898,144.494859 C54.4354279,144.350899 54.2235634,144.27892 53.9358898,144.27892 C53.702641,144.27892 53.4979034,144.340616 53.3216709,144.46401 C53.1454385,144.587404 53.0080829,144.749356 52.9096001,144.949871 L52.9096001,147.922879 L52.1904197,147.922879 L52.1904197,143.750643 L52.8707254,143.750643 Z M62.4222178,142.917738 L60.6028859,142.917738 L60.6028859,147.922879 L59.8603808,147.922879 L59.8603808,142.917738 L58.0449364,142.917738 L58.0449364,142.308483 L62.4222178,142.308483 L62.4222178,142.917738 Z M63.9305528,147.922879 L63.2113725,147.922879 L63.2113725,143.750643 L63.9305528,143.750643 L63.9305528,147.922879 Z M63.1530606,142.643959 C63.1530606,142.528277 63.1886953,142.430592 63.2599657,142.3509 C63.3312362,142.271208 63.4368445,142.231362 63.5767938,142.231362 C63.7167431,142.231362 63.8229994,142.271208 63.8955657,142.3509 C63.968132,142.430592 64.0044146,142.528277 64.0044146,142.643959 C64.0044146,142.759641 63.968132,142.856041 63.8955657,142.933162 C63.8229994,143.010283 63.7167431,143.048843 63.5767938,143.048843 C63.4368445,143.048843 63.3312362,143.010283 63.2599657,142.933162 C63.1886953,142.856041 63.1530606,142.759641 63.1530606,142.643959 Z M66.0569941,142.74036 L66.0569941,143.750643 L66.8422613,143.750643 L66.8422613,144.302057 L66.0569941,144.302057 L66.0569941,146.88946 C66.0569941,147.056556 66.0919809,147.181876 66.1619556,147.265424 C66.2319302,147.348972 66.3511445,147.390746 66.519602,147.390746 C66.602535,147.390746 66.716566,147.375321 66.8616986,147.344473 L66.8616986,147.922879 C66.6725079,147.974293 66.4885032,148 66.3096791,148 C65.988314,148 65.745998,147.9036 65.5827239,147.710797 C65.4194497,147.517994 65.3378138,147.244218 65.3378138,146.88946 L65.3378138,144.302057 L64.5719839,144.302057 L64.5719839,143.750643 L65.3378138,143.750643 L65.3378138,142.74036 L66.0569941,142.74036 Z M68.4633327,147.922879 L67.7441523,147.922879 L67.7441523,142 L68.4633327,142 L68.4633327,147.922879 Z M71.3594913,148 C70.7893275,148 70.3254284,147.814269 69.9677802,147.442802 C69.610132,147.071335 69.4313105,146.574553 69.4313105,145.952442 L69.4313105,145.821337 C69.4313105,145.407453 69.5110027,145.037919 69.6703894,144.712725 C69.8297761,144.387531 70.052655,144.133034 70.3390327,143.949229 C70.6254105,143.765423 70.9357564,143.673522 71.2700797,143.673522 C71.8169187,143.673522 72.2419435,143.852183 72.545167,144.209512 C72.8483905,144.56684 73,145.078403 73,145.744216 L73,146.041131 L70.1504909,146.041131 C70.1608575,146.452444 70.2820155,146.784703 70.5139685,147.037918 C70.7459215,147.291132 71.0407177,147.417738 71.3983659,147.417738 C71.652348,147.417738 71.8674521,147.366324 72.0436845,147.263496 C72.219917,147.160668 72.3741181,147.024422 72.5062924,146.854756 L72.9455755,147.194087 C72.5931106,147.731365 72.0644212,148 71.3594913,148 Z M71.2700797,144.25964 C70.9798145,144.25964 70.7362027,144.364395 70.539237,144.573907 C70.3422713,144.78342 70.2204654,145.077119 70.1738156,145.455013 L72.2808197,145.455013 L72.2808197,145.401028 C72.2600864,145.038559 72.1616051,144.757713 71.9853726,144.558483 C71.8091401,144.359254 71.5707116,144.25964 71.2700797,144.25964 Z" id="Sub-Section-Title-Copy" fill="#424242"></path>
        </g>
    </g>
</svg>