<?xml version="1.0" encoding="UTF-8" standalone="no"?>
<svg width="302px" height="243px" viewBox="0 0 302 243" version="1.1" xmlns="http://www.w3.org/2000/svg" xmlns:xlink="http://www.w3.org/1999/xlink">
    <!-- Generator: Sketch 47.1 (45422) - http://www.bohemiancoding.com/sketch -->
    <title>accessibility-inputs-2</title>
    <desc>Created with Sketch.</desc>
    <style type="text/css">@import url('https://fonts.googleapis.com/css?family=Roboto:300,400,500');</style>
    <defs></defs>
    <g id="Page-1" stroke="none" stroke-width="1" fill="none" fill-rule="evenodd">
        <g id="accessibility-inputs-2">
            <g transform="translate(47.000000, 88.000000)">
                <g id="Basic-Field-w-Label">
                    <g id="Rectangle-4" transform="translate(0.000000, 19.000000)">
                        <g id="path-1-link" fill="#FFFFFF">
                            <path d="M2,0 L101.233398,0 L208,0 L208,0 C209.104569,0 210,0.8954305 210,2 L210,30 L210,30 C210,31.1045695 209.104569,32 208,32 L192.428711,32 L2,32 L2,32 C0.8954305,32 0,31.1045695 0,30 L0,2 L0,2 C0,0.8954305 0.8954305,0 2,0 Z" id="path-1"></path>
                        </g>
                        <path d="M2,1 C1.44771525,1 1,1.4477153 1,2 L1,30 C1,30.5522847 1.44771525,31 2,31 L208,31 C208.552285,31 209,30.5522847 209,30 L209,2 C209,1.4477153 208.552285,1 208,1 L2,1 Z" id="Shape" stroke="#D32F2F" stroke-width="2"></path>
                    </g>
                    <path d="M1.47460938,9.9267578 L6.19140625,9.9267578 L6.19140625,11 L0.15527344,11 L0.15527344,1.046875 L1.47460938,1.046875 L1.47460938,9.9267578 Z M12.0566406,11 C11.9837236,10.8541659 11.9244794,10.5944029 11.8789062,10.2207031 C11.2910127,10.8313833 10.5891968,11.1367188 9.7734375,11.1367188 C9.0442672,11.1367188 8.44612864,10.9305034 7.97900391,10.5180664 C7.51187917,10.1056294 7.27832031,9.5826855 7.27832031,8.9492188 C7.27832031,8.1790326 7.57112337,7.58089406 8.15673828,7.15478516 C8.74235319,6.72867625 9.5660754,6.515625 10.6279297,6.515625 L11.8583984,6.515625 L11.8583984,5.93457031 C11.8583984,5.49251081 11.7262383,5.14046355 11.4619141,4.87841797 C11.1975898,4.61637239 10.8079453,4.48535156 10.2929688,4.48535156 C9.8417946,4.48535156 9.4635432,4.59928271 9.1582031,4.82714844 C8.85286306,5.05501416 8.70019531,5.33072755 8.70019531,5.65429688 L7.42871094,5.65429688 C7.42871094,5.2851544 7.55973176,4.9285499 7.82177734,4.58447266 C8.08382292,4.24039542 8.43928812,3.96809996 8.88818359,3.76757812 C9.3370791,3.56705629 9.830401,3.46679688 10.3681641,3.46679688 C11.2203819,3.46679688 11.8880184,3.67984813 12.3710938,4.10595703 C12.8541691,4.53206593 13.1048176,5.11881137 13.1230469,5.86621094 L13.1230469,9.2705078 C13.1230469,9.9495477 13.2096346,10.4895813 13.3828125,10.890625 L13.3828125,11 L12.0566406,11 Z M9.9580078,10.0361328 C10.3544942,10.0361328 10.730467,9.9335948 11.0859375,9.7285156 C11.441408,9.5234365 11.6988924,9.2568376 11.8583984,8.9287109 L11.8583984,7.41113281 L10.8671875,7.41113281 C9.3177006,7.41113281 8.54296875,7.8645788 8.54296875,8.7714844 C8.54296875,9.1679707 8.67512889,9.4778635 8.93945312,9.7011719 C9.2037774,9.9244803 9.5432922,10.0361328 9.9580078,10.0361328 Z M21.3671875,7.38378906 C21.3671875,8.514003 21.1074245,9.4220343 20.5878906,10.1079102 C20.0683568,10.793786 19.3710981,11.1367188 18.4960938,11.1367188 C17.5618443,11.1367188 16.8395208,10.8063184 16.3291016,10.1455078 L16.2675781,11 L15.1054688,11 L15.1054688,0.5 L16.3701172,0.5 L16.3701172,4.41699219 C16.8805364,3.78352548 17.5846309,3.46679688 18.4824219,3.46679688 C19.3802128,3.46679688 20.0854467,3.80631171 20.5981445,4.48535156 C21.1108424,5.16439142 21.3671875,6.09406962 21.3671875,7.27441406 L21.3671875,7.38378906 Z M20.1025391,7.24023438 C20.1025391,6.37890194 19.9361996,5.71354401 19.6035156,5.24414062 C19.2708317,4.77473724 18.7923208,4.54003906 18.1679688,4.54003906 C17.3339802,4.54003906 16.7347023,4.92740498 16.3701172,5.70214844 L16.3701172,8.9013672 C16.7574889,9.6761106 17.361324,10.0634766 18.1816406,10.0634766 C18.7877634,10.0634766 19.2594384,9.8287784 19.5966797,9.359375 C19.933921,8.8899716 20.1025391,8.1835985 20.1025391,7.24023438 Z M26.0292969,11.1367188 C25.0266877,11.1367188 24.2109406,10.8074577 23.5820312,10.1489258 C22.9531219,9.4903938 22.6386719,8.609706 22.6386719,7.50683594 L22.6386719,7.27441406 C22.6386719,6.54068644 22.7788072,5.88558231 23.059082,5.30908203 C23.3393569,4.73258175 23.73128,4.28141439 24.2348633,3.95556641 C24.7384465,3.62971842 25.2841767,3.46679688 25.8720703,3.46679688 C26.8336637,3.46679688 27.581052,3.78352548 28.1142578,4.41699219 C28.6474636,5.0504589 28.9140625,5.95735087 28.9140625,7.13769531 L28.9140625,7.6640625 L23.9033203,7.6640625 C23.9215496,8.3932328 24.1346008,8.9822569 24.5424805,9.4311523 C24.9503601,9.8800478 25.4687469,10.1044922 26.0976562,10.1044922 C26.5442731,10.1044922 26.9225245,10.0133473 27.2324219,9.8310547 C27.5423193,9.6487621 27.8134754,9.4072281 28.0458984,9.1064453 L28.8183594,9.7080078 C28.1985646,10.6604865 27.2688864,11.1367188 26.0292969,11.1367188 Z M25.8720703,4.50585938 C25.3616511,4.50585938 24.93327,4.69156715 24.5869141,5.06298828 C24.2405582,5.43440941 24.0263676,5.95507478 23.9443359,6.625 L27.6494141,6.625 L27.6494141,6.52929688 C27.6129555,5.88671554 27.4397802,5.3888364 27.1298828,5.03564453 C26.8199854,4.68245266 26.4007188,4.50585938 25.8720703,4.50585938 Z M31.7509766,11 L30.4863281,11 L30.4863281,0.5 L31.7509766,0.5 L31.7509766,11 Z" id="Label" fill="#616161" fill-rule="nonzero"></path>
                </g>
                <g id="Group-42" transform="translate(10.000000, 29.000000)" fill-rule="nonzero" fill="#616161">
                    <path d="M1.9296875,12 L0.4296875,12 L0.4296875,0.625 L1.9296875,0.625 L1.9296875,12 Z M5.8125,3.546875 L5.859375,4.609375 C6.50521156,3.79687094 7.34895312,3.390625 8.390625,3.390625 C10.1770923,3.390625 11.0781249,4.39842742 11.09375,6.4140625 L11.09375,12 L9.6484375,12 L9.6484375,6.40625 C9.6432291,5.79687195 9.5039076,5.34635562 9.2304688,5.0546875 C8.95702988,4.76301938 8.53125289,4.6171875 7.953125,4.6171875 C7.48437266,4.6171875 7.07291844,4.74218625 6.71875,4.9921875 C6.36458156,5.24218875 6.08854266,5.57031047 5.890625,5.9765625 L5.890625,12 L4.4453125,12 L4.4453125,3.546875 L5.8125,3.546875 Z M20.4140625,7.8671875 C20.4140625,9.1536523 20.1197946,10.1901002 19.53125,10.9765625 C18.9427054,11.7630248 18.1458384,12.15625 17.140625,12.15625 C16.1145782,12.15625 15.3072946,11.8307324 14.71875,11.1796875 L14.71875,15.25 L13.2734375,15.25 L13.2734375,3.546875 L14.59375,3.546875 L14.6640625,4.484375 C15.2526071,3.75520469 16.0703073,3.390625 17.1171875,3.390625 C18.1328176,3.390625 18.936195,3.77343367 19.5273438,4.5390625 C20.1184925,5.30469133 20.4140625,6.36978484 20.4140625,7.734375 L20.4140625,7.8671875 Z M18.96875,7.703125 C18.96875,6.74999523 18.765627,5.99739859 18.359375,5.4453125 C17.953123,4.89322641 17.3958369,4.6171875 16.6875,4.6171875 C15.8124956,4.6171875 15.1562522,5.00520445 14.71875,5.78125 L14.71875,9.8203125 C15.1510438,10.5911497 15.8124955,10.9765625 16.703125,10.9765625 C17.3958368,10.9765625 17.9466125,10.7018257 18.3554688,10.1523438 C18.764325,9.6028618 18.96875,8.7864638 18.96875,7.703125 Z M27.46875,11.1640625 C26.9062472,11.8255241 26.0807346,12.15625 24.9921875,12.15625 C24.0911413,12.15625 23.4049503,11.8945339 22.9335938,11.3710938 C22.4622372,10.8476536 22.2239584,10.0729218 22.21875,9.046875 L22.21875,3.546875 L23.6640625,3.546875 L23.6640625,9.0078125 C23.6640625,10.2890689 24.1848906,10.9296875 25.2265625,10.9296875 C26.3307347,10.9296875 27.0651023,10.5182333 27.4296875,9.6953125 L27.4296875,3.546875 L28.875,3.546875 L28.875,12 L27.5,12 L27.46875,11.1640625 Z M33.03125,1.5 L33.03125,3.546875 L34.609375,3.546875 L34.609375,4.6640625 L33.03125,4.6640625 L33.03125,9.90625 C33.03125,10.2447934 33.1015618,10.4986971 33.2421875,10.6679688 C33.3828132,10.8372404 33.6223941,10.921875 33.9609375,10.921875 C34.127605,10.921875 34.3567694,10.8906253 34.6484375,10.828125 L34.6484375,12 C34.2682273,12.1041672 33.8984393,12.15625 33.5390625,12.15625 C32.8932259,12.15625 32.4062516,11.9609395 32.078125,11.5703125 C31.7499984,11.1796855 31.5859375,10.6250036 31.5859375,9.90625 L31.5859375,4.6640625 L30.046875,4.6640625 L30.046875,3.546875 L31.5859375,3.546875 L31.5859375,1.5 L33.03125,1.5 Z" id="Input-Copy"></path>
                </g>
            </g>
            <text id="Error-message" font-family="Roboto-Regular, Roboto" font-size="12" font-weight="normal" line-spacing="18" fill="#D32F2F">
                <tspan x="62" y="150">Error message</tspan>
            </text>
            <g id="icons-/-error" transform="translate(47.000000, 143.000000)" fill="#CF3628">
                <path d="M0,6 C0,2.68576544 2.68576544,0 6,0 C9.3133393,0 12,2.68576544 12,6 C12,9.3133393 9.3133393,12 6,12 C2.68576544,12 0,9.3133393 0,6 M5.99756317,6.99880684 C6.22944722,6.99880684 6.46133128,6.9967912 6.69424137,6.99981466 C6.88918815,7.00082249 6.99281775,6.89903242 6.99486982,6.71762438 C7.00205207,6.25301823 7.00102604,2.74982739 6.99589586,2.28723688 C6.99384379,2.10683667 6.89739643,2.00000749 6.69834552,2.00000749 C6.2345774,2.00202313 5.77080929,2.00303095 5.30704117,2.00000749 C5.11106836,1.99899966 5.00846479,2.09978191 5.00538669,2.28118995 C4.99820444,2.7457961 4.99820444,6.24797912 5.00538669,6.71157744 C5.00846479,6.907095 5.12030268,7.00485378 5.32653585,6.99981466 C5.54918558,6.99477555 5.77388739,6.99880684 5.99756317,6.99880684 M5.99756317,9.99878337 C6.22944722,9.99878337 6.46133128,9.99672807 6.69424137,9.99878337 C6.88918815,10.0008387 6.99281775,9.89601855 6.99486982,9.71104188 C7.00205207,9.23832371 7.00102604,8.76457789 6.99589586,8.29185972 C6.99384379,8.10791069 6.89739643,8.00000763 6.69834552,8.00000763 C6.2345774,8.00206293 5.77080929,8.00309058 5.30704117,8.00000763 C5.11106836,7.99897999 5.00846479,8.1017448 5.00538669,8.28672148 C4.99820444,8.75943965 4.99820444,9.23318547 5.00538669,9.70590363 C5.00846479,9.90526738 5.12030268,10.0049493 5.32653585,9.99981102 C5.54918558,9.99467278 5.77388739,9.99878337 5.99756317,9.99878337" id="Fill-1"></path>
            </g>
        </g>
    </g>
</svg>