<svg id="Layer_1" data-name="Layer 1" xmlns="http://www.w3.org/2000/svg" xmlns:xlink="http://www.w3.org/1999/xlink" viewBox="0 0 204.34 299.99"><defs><style>.cls-1{fill:#ffea0e;}.cls-2{fill:#2e3285;}.cls-3{clip-path:url(#clip-path);}.cls-4{fill:#a3acd2;}.cls-5{fill:#72747c;}.cls-6{fill:#a4950c;}.cls-7{fill:#516fbb;}.cls-8{fill:#afa246;}.cls-9{fill:#7f7635;}.cls-10{fill:#005cd2;}.cls-11{clip-path:url(#clip-path-2);}.cls-12{fill:#838aa7;}.cls-13{fill:#56565f;}.cls-14{fill:#8a7e1d;}.cls-15{fill:#00459f;}.cls-16{fill:#dac702;}.cls-17{fill:#7e7535;}.cls-18{fill:#6b6323;}.cls-19{fill:#0146ad;}</style><clipPath id="clip-path"><polygon class="cls-1" points="192.99 87.61 101.33 34.47 9.47 87.27 9.27 193.22 100.93 246.37 192.79 193.57 192.99 87.61"/></clipPath><clipPath id="clip-path-2"><polygon class="cls-2" points="158.08 107.68 101.26 74.73 44.31 107.47 44.18 173.16 101.01 206.11 157.96 173.37 158.08 107.68"/></clipPath></defs><title>accessibility-hero-2</title><polygon class="cls-1" points="192.99 87.61 101.33 34.47 9.47 87.27 9.27 193.22 100.93 246.37 192.79 193.57 192.99 87.61"/><g class="cls-3"><path class="cls-4" d="M101.36,140.54,24,63.2q32-32,77.34-32Z"/><path class="cls-5" d="M101.36,140.54H-8q0-45.3,32-77.34Z"/><path class="cls-6" d="M101.36,140.54,24,217.88q-32-32-32-77.34Z"/><path class="cls-7" d="M101.36,140.54V249.91q-45.3,0-77.34-32Z"/><path class="cls-1" d="M101.36,140.54l77.34,77.34q-32,32-77.34,32Z"/><path class="cls-8" d="M101.36,140.54H210.73q0,45.3-32,77.34Z"/><path class="cls-9" d="M101.36,140.54,178.7,63.2q32,32,32,77.34Z"/><path class="cls-10" d="M101.36,140.54V31.16q45.3,0,77.34,32Z"/></g><polygon class="cls-2" points="158.08 107.68 101.26 74.73 44.31 107.47 44.18 173.16 101.01 206.11 157.96 173.37 158.08 107.68"/><g class="cls-11"><path class="cls-12" d="M101.36,140.54,24,63.2q32-32,77.34-32Z"/><path class="cls-13" d="M101.36,140.54H-8q0-45.3,32-77.34Z"/><path class="cls-14" d="M101.36,140.54,24,217.88q-32-32-32-77.34Z"/><path class="cls-15" d="M101.36,140.54V249.91q-45.3,0-77.34-32Z"/><path class="cls-16" d="M101.36,140.54l77.34,77.34q-32,32-77.34,32Z"/><path class="cls-17" d="M101.36,140.54H210.73q0,45.3-32,77.34Z"/><path class="cls-18" d="M101.36,140.54,178.7,63.2q32,32,32,77.34Z"/><path class="cls-19" d="M101.36,140.54V31.16q45.3,0,77.34,32Z"/></g></svg>