<?xml version="1.0" encoding="UTF-8" standalone="no"?>
<svg width="633px" height="172px" viewBox="0 0 633 172" version="1.1" xmlns="http://www.w3.org/2000/svg" xmlns:xlink="http://www.w3.org/1999/xlink">
    <!-- Generator: Sketch 47.1 (45422) - http://www.bohemiancoding.com/sketch -->
    <title>buttons-simple</title>
    <desc>Created with Sketch.</desc>
    <defs>
        <rect id="path-1" x="0" y="0" width="96" height="32" rx="2"></rect>
    </defs>
    <g id="Page-1" stroke="none" stroke-width="1" fill="none" fill-rule="evenodd">
        <g id="buttons-simple">
            <g id="3-button-weights-image" transform="translate(23.000000, 60.000000)">
                <g id="Group-20">
                    <g id="Group-7" transform="translate(131.000000, 0.000000)">
                        <path d="M2.99951172,46.2167969 L2.99951172,49 L2.06201172,49 L2.06201172,41.890625 L4.68408203,41.890625 C5.46208071,41.890625 6.07161238,42.0891907 6.51269531,42.4863281 C6.95377825,42.8834655 7.17431641,43.4091764 7.17431641,44.0634766 C7.17431641,44.7535842 6.95866101,45.2849916 6.52734375,45.6577148 C6.09602649,46.0304381 5.47835688,46.2167969 4.67431641,46.2167969 L2.99951172,46.2167969 Z M2.99951172,45.4501953 L4.68408203,45.4501953 C5.18538662,45.4501953 5.56949736,45.3321952 5.83642578,45.0961914 C6.1033542,44.8601876 6.23681641,44.519208 6.23681641,44.0732422 C6.23681641,43.650063 6.1033542,43.3115247 5.83642578,43.0576172 C5.56949736,42.8037097 5.20329009,42.671875 4.73779297,42.6621094 L2.99951172,42.6621094 L2.99951172,45.4501953 Z M10.7827148,44.5273438 C10.6459954,44.5045572 10.4978849,44.4931641 10.3383789,44.4931641 C9.74592803,44.4931641 9.34391382,44.7454402 9.13232422,45.25 L9.13232422,49 L8.22900391,49 L8.22900391,43.7167969 L9.10791016,43.7167969 L9.12255859,44.3271484 C9.41878403,43.8551409 9.83870171,43.6191406 10.3823242,43.6191406 C10.5581063,43.6191406 10.6915686,43.6419269 10.7827148,43.6875 L10.7827148,44.5273438 Z M12.5942383,49 L11.690918,49 L11.690918,43.7167969 L12.5942383,43.7167969 L12.5942383,49 Z M11.6176758,42.3154297 C11.6176758,42.1689446 11.6624344,42.0452479 11.7519531,41.9443359 C11.8414718,41.843424 11.9741202,41.7929688 12.1499023,41.7929688 C12.3256845,41.7929688 12.4591467,41.843424 12.550293,41.9443359 C12.6414393,42.0452479 12.6870117,42.1689446 12.6870117,42.3154297 C12.6870117,42.4619148 12.6414393,42.5839839 12.550293,42.6816406 C12.4591467,42.7792974 12.3256845,42.828125 12.1499023,42.828125 C11.9741202,42.828125 11.8414718,42.7792974 11.7519531,42.6816406 C11.6624344,42.5839839 11.6176758,42.4619148 11.6176758,42.3154297 Z M14.8891602,43.7167969 L14.9135742,44.3027344 C15.3009459,43.8470029 15.8234017,43.6191406 16.480957,43.6191406 C17.219893,43.6191406 17.7228177,43.9023409 17.9897461,44.46875 C18.1655282,44.2148425 18.3942043,44.0097664 18.6757812,43.8535156 C18.9573582,43.6972648 19.2901999,43.6191406 19.6743164,43.6191406 C20.8331764,43.6191406 21.4223632,44.2327413 21.4418945,45.4599609 L21.4418945,49 L20.5385742,49 L20.5385742,45.5136719 C20.5385742,45.1360658 20.4523121,44.8536793 20.2797852,44.6665039 C20.1072583,44.4793285 19.8175476,44.3857422 19.4106445,44.3857422 C19.0753564,44.3857422 18.7970389,44.4858388 18.5756836,44.6860352 C18.3543283,44.8862315 18.2257489,45.1555973 18.1899414,45.4941406 L18.1899414,49 L17.2817383,49 L17.2817383,45.5380859 C17.2817383,44.7698529 16.9057655,44.3857422 16.1538086,44.3857422 C15.5613577,44.3857422 15.1560883,44.6380183 14.9379883,45.1425781 L14.9379883,49 L14.034668,49 L14.034668,43.7167969 L14.8891602,43.7167969 Z M26.065918,49 C26.0138344,48.8958328 25.9715171,48.7102878 25.9389648,48.4433594 C25.5190409,48.8795595 25.0177438,49.0976562 24.4350586,49.0976562 C23.9142227,49.0976562 23.4869808,48.9503595 23.1533203,48.6557617 C22.8196598,48.3611639 22.652832,47.9876325 22.652832,47.5351562 C22.652832,46.9850233 22.8619771,46.5577815 23.2802734,46.253418 C23.6985698,45.9490545 24.2869428,45.796875 25.0454102,45.796875 L25.9243164,45.796875 L25.9243164,45.3818359 C25.9243164,45.0660792 25.8299163,44.8146168 25.6411133,44.6274414 C25.4523103,44.440266 25.1739927,44.3466797 24.8061523,44.3466797 C24.4838851,44.3466797 24.2137055,44.4280591 23.9956055,44.5908203 C23.7775054,44.7535815 23.668457,44.9505197 23.668457,45.1816406 L22.7602539,45.1816406 C22.7602539,44.9179674 22.8538402,44.6632499 23.0410156,44.4174805 C23.228191,44.171711 23.4820948,43.9772143 23.8027344,43.8339844 C24.123374,43.6907545 24.4757468,43.6191406 24.8598633,43.6191406 C25.4685903,43.6191406 25.9454735,43.7713201 26.2905273,44.0756836 C26.6355812,44.3800471 26.8146158,44.799151 26.8276367,45.3330078 L26.8276367,47.7646484 C26.8276367,48.2496769 26.8894851,48.6354152 27.0131836,48.921875 L27.0131836,49 L26.065918,49 Z M24.5668945,48.3115234 C24.8500991,48.3115234 25.1186511,48.238282 25.3725586,48.0917969 C25.6264661,47.9453118 25.8103835,47.754884 25.9243164,47.5205078 L25.9243164,46.4365234 L25.2163086,46.4365234 C24.1095322,46.4365234 23.5561523,46.7604134 23.5561523,47.4082031 C23.5561523,47.6914077 23.6505524,47.9127596 23.8393555,48.0722656 C24.0281585,48.2317716 24.2706691,48.3115234 24.5668945,48.3115234 Z M30.7973633,44.5273438 C30.6606438,44.5045572 30.5125333,44.4931641 30.3530273,44.4931641 C29.7605765,44.4931641 29.3585623,44.7454402 29.1469727,45.25 L29.1469727,49 L28.2436523,49 L28.2436523,43.7167969 L29.1225586,43.7167969 L29.137207,44.3271484 C29.4334325,43.8551409 29.8533501,43.6191406 30.3969727,43.6191406 C30.5727548,43.6191406 30.706217,43.6419269 30.7973633,43.6875 L30.7973633,44.5273438 Z M33.4438477,47.6767578 L34.6743164,43.7167969 L35.6411133,43.7167969 L33.5170898,49.8154297 C33.1883122,50.6943403 32.6658564,51.1337891 31.949707,51.1337891 L31.7788086,51.1191406 L31.4418945,51.0556641 L31.4418945,50.3232422 L31.6860352,50.3427734 C31.9920263,50.3427734 32.2304679,50.2809251 32.4013672,50.1572266 C32.5722665,50.033528 32.7130528,49.8072933 32.8237305,49.4785156 L33.0239258,48.9414062 L31.1391602,43.7167969 L32.1254883,43.7167969 L33.4438477,47.6767578 Z" id="Primary" fill="#9E9E9E"></path>
                        <g id="Button/Standard/Primary" transform="translate(1.000000, 0.000000)">
                            <rect id="Rectangle-2" fill="#0C7C84" x="0" y="0" width="96" height="32" rx="2"></rect>
                            <path d="M13.1879883,21 L13.1879883,11.046875 L16.5991211,11.046875 C17.7247778,11.046875 18.58154,11.2724587 19.1694336,11.7236328 C19.7573272,12.1748069 20.0512695,12.8470007 20.0512695,13.7402344 C20.0512695,14.1959658 19.9282239,14.606118 19.6821289,14.9707031 C19.4360339,15.3352883 19.0760115,15.6178375 18.6020508,15.8183594 C19.1398139,15.9641934 19.5556626,16.2387675 19.8496094,16.6420898 C20.1435562,17.0454122 20.2905273,17.5296196 20.2905273,18.0947266 C20.2905273,19.028976 19.9908884,19.7467423 19.3916016,20.2480469 C18.7923147,20.7493515 17.9344131,21 16.8178711,21 L13.1879883,21 Z M14.9174805,16.5087891 L14.9174805,19.6191406 L16.8383789,19.6191406 C17.3806993,19.6191406 17.8045232,19.4847019 18.1098633,19.2158203 C18.4152033,18.9469388 18.5678711,18.5732446 18.5678711,18.0947266 C18.5678711,17.0602162 18.0392305,16.5315756 16.9819336,16.5087891 L14.9174805,16.5087891 Z M14.9174805,15.2373047 L16.612793,15.2373047 C17.1505561,15.2373047 17.570962,15.1153984 17.8740234,14.871582 C18.1770848,14.6277657 18.3286133,14.2825543 18.3286133,13.8359375 C18.3286133,13.3437475 18.188478,12.9882823 17.9082031,12.7695312 C17.6279283,12.5507802 17.191572,12.4414062 16.5991211,12.4414062 L14.9174805,12.4414062 L14.9174805,15.2373047 Z M26.340332,20.2753906 C25.8526994,20.8496122 25.159998,21.1367188 24.262207,21.1367188 C23.4601197,21.1367188 22.8528666,20.9020206 22.4404297,20.4326172 C22.0279927,19.9632138 21.8217773,19.2841841 21.8217773,18.3955078 L21.8217773,13.6035156 L23.4829102,13.6035156 L23.4829102,18.375 C23.4829102,19.3138068 23.8725547,19.7832031 24.6518555,19.7832031 C25.4585001,19.7832031 26.003091,19.493818 26.2856445,18.9150391 L26.2856445,13.6035156 L27.9467773,13.6035156 L27.9467773,21 L26.3813477,21 L26.340332,20.2753906 Z M31.7202148,11.8056641 L31.7202148,13.6035156 L33.0258789,13.6035156 L33.0258789,14.8339844 L31.7202148,14.8339844 L31.7202148,18.9628906 C31.7202148,19.2454441 31.7760411,19.4493809 31.8876953,19.574707 C31.9993495,19.7000332 32.198729,19.7626953 32.4858398,19.7626953 C32.6772471,19.7626953 32.87093,19.7399091 33.0668945,19.6943359 L33.0668945,20.9794922 C32.6886374,21.0843104 32.3240577,21.1367188 31.9731445,21.1367188 C30.6970965,21.1367188 30.059082,20.4326242 30.059082,19.0244141 L30.059082,14.8339844 L28.8422852,14.8339844 L28.8422852,13.6035156 L30.059082,13.6035156 L30.059082,11.8056641 L31.7202148,11.8056641 Z M36.3754883,11.8056641 L36.3754883,13.6035156 L37.6811523,13.6035156 L37.6811523,14.8339844 L36.3754883,14.8339844 L36.3754883,18.9628906 C36.3754883,19.2454441 36.4313145,19.4493809 36.5429688,19.574707 C36.654623,19.7000332 36.8540025,19.7626953 37.1411133,19.7626953 C37.3325205,19.7626953 37.5262034,19.7399091 37.722168,19.6943359 L37.722168,20.9794922 C37.3439109,21.0843104 36.9793312,21.1367188 36.628418,21.1367188 C35.3523699,21.1367188 34.7143555,20.4326242 34.7143555,19.0244141 L34.7143555,14.8339844 L33.4975586,14.8339844 L33.4975586,13.6035156 L34.7143555,13.6035156 L34.7143555,11.8056641 L36.3754883,11.8056641 Z M38.4331055,17.2333984 C38.4331055,16.5087854 38.5766587,15.8559599 38.8637695,15.2749023 C39.1508803,14.6938448 39.5541966,14.2472346 40.0737305,13.9350586 C40.5932643,13.6228826 41.1902636,13.4667969 41.8647461,13.4667969 C42.862798,13.4667969 43.6728485,13.7880827 44.2949219,14.4306641 C44.9169953,15.0732454 45.2530922,15.9254504 45.3032227,16.9873047 L45.3100586,17.3769531 C45.3100586,18.1061234 45.1699233,18.7578096 44.8896484,19.3320312 C44.6093736,19.9062529 44.2083359,20.3505844 43.6865234,20.6650391 C43.1647109,20.9794938 42.5620151,21.1367188 41.878418,21.1367188 C40.834793,21.1367188 39.9996776,20.7892287 39.3730469,20.0942383 C38.7464161,19.3992478 38.4331055,18.4729876 38.4331055,17.3154297 L38.4331055,17.2333984 Z M40.0942383,17.3769531 C40.0942383,18.1380246 40.2514633,18.7338846 40.565918,19.1645508 C40.8803727,19.595217 41.3178683,19.8105469 41.878418,19.8105469 C42.4389676,19.8105469 42.875324,19.5917991 43.1875,19.1542969 C43.499676,18.7167947 43.6557617,18.0765016 43.6557617,17.2333984 C43.6557617,16.4859989 43.4951188,15.8935569 43.1738281,15.4560547 C42.8525375,15.0185525 42.4161811,14.7998047 41.8647461,14.7998047 C41.3224257,14.7998047 40.8917659,15.0151346 40.5727539,15.4458008 C40.2537419,15.876467 40.0942383,16.520178 40.0942383,17.3769531 Z M48.2563477,13.6035156 L48.3041992,14.4580078 C48.851077,13.7971972 49.5688432,13.4667969 50.4575195,13.4667969 C51.9978918,13.4667969 52.7817381,14.348624 52.809082,16.1123047 L52.809082,21 L51.1479492,21 L51.1479492,16.2080078 C51.1479492,15.7386044 51.0465505,15.3911144 50.84375,15.1655273 C50.6409495,14.9399403 50.3094099,14.8271484 49.8491211,14.8271484 C49.1791959,14.8271484 48.6801774,15.1302053 48.3520508,15.7363281 L48.3520508,21 L46.690918,21 L46.690918,13.6035156 L48.2563477,13.6035156 Z M64.9291992,12.4414062 L61.8256836,12.4414062 L61.8256836,21 L60.1098633,21 L60.1098633,12.4414062 L57.0336914,12.4414062 L57.0336914,11.046875 L64.9291992,11.046875 L64.9291992,12.4414062 Z M68.7231445,21.1367188 C67.6704049,21.1367188 66.8170606,20.8051791 66.1630859,20.1420898 C65.5091113,19.4790006 65.1821289,18.5960342 65.1821289,17.4931641 L65.1821289,17.2880859 C65.1821289,16.549801 65.3245428,15.8901396 65.609375,15.309082 C65.8942072,14.7280244 66.2941055,14.2757178 66.809082,13.9521484 C67.3240586,13.6285791 67.8982716,13.4667969 68.5317383,13.4667969 C69.5389048,13.4667969 70.3170545,13.7880827 70.8662109,14.4306641 C71.4153673,15.0732454 71.6899414,15.982416 71.6899414,17.1582031 L71.6899414,17.828125 L66.8569336,17.828125 C66.9070641,18.4388051 67.1110008,18.9218732 67.46875,19.2773438 C67.8264992,19.6328143 68.2765272,19.8105469 68.8188477,19.8105469 C69.5799192,19.8105469 70.1997046,19.5029328 70.6782227,18.8876953 L71.5737305,19.7421875 C71.277505,20.184247 70.8821639,20.5271798 70.3876953,20.7709961 C69.8932267,21.0148124 69.338382,21.1367188 68.7231445,21.1367188 Z M68.5249023,14.7998047 C68.0691709,14.7998047 67.7011733,14.9593083 67.4208984,15.2783203 C67.1406236,15.5973323 66.9617517,16.0416638 66.8842773,16.6113281 L70.0493164,16.6113281 L70.0493164,16.4882812 C70.0128579,15.9322889 69.8647474,15.5118829 69.6049805,15.2270508 C69.3452135,14.9422186 68.9851911,14.7998047 68.5249023,14.7998047 Z M75.6342773,16.0371094 L77.0424805,13.6035156 L78.8881836,13.6035156 L76.6254883,17.2470703 L78.9633789,21 L77.1313477,21 L75.6547852,18.4707031 L74.1850586,21 L72.3393555,21 L74.6772461,17.2470703 L72.4213867,13.6035156 L74.253418,13.6035156 L75.6342773,16.0371094 Z M82.1010742,11.8056641 L82.1010742,13.6035156 L83.4067383,13.6035156 L83.4067383,14.8339844 L82.1010742,14.8339844 L82.1010742,18.9628906 C82.1010742,19.2454441 82.1569005,19.4493809 82.2685547,19.574707 C82.3802089,19.7000332 82.5795884,19.7626953 82.8666992,19.7626953 C83.0581064,19.7626953 83.2517894,19.7399091 83.4477539,19.6943359 L83.4477539,20.9794922 C83.0694968,21.0843104 82.7049171,21.1367188 82.3540039,21.1367188 C81.0779559,21.1367188 80.4399414,20.4326242 80.4399414,19.0244141 L80.4399414,14.8339844 L79.2231445,14.8339844 L79.2231445,13.6035156 L80.4399414,13.6035156 L80.4399414,11.8056641 L82.1010742,11.8056641 Z" id="Button-Text" fill="#FFFFFF"></path>
                        </g>
                    </g>
                    <g id="Group-6" transform="translate(305.000000, 0.000000)">
                        <path d="M3.93603516,45.8310547 C3.13199468,45.5999337 2.54687683,45.3159197 2.18066406,44.9790039 C1.81445129,44.6420882 1.63134766,44.2262395 1.63134766,43.7314453 C1.63134766,43.1715467 1.85514099,42.7084979 2.30273438,42.3422852 C2.75032776,41.9760724 3.33219043,41.7929688 4.04833984,41.7929688 C4.53662354,41.7929688 4.9720033,41.8873688 5.35449219,42.0761719 C5.73698108,42.2649749 6.03320208,42.525389 6.24316406,42.8574219 C6.45312605,43.1894548 6.55810547,43.5524069 6.55810547,43.9462891 L5.61572266,43.9462891 C5.61572266,43.5165994 5.47900527,43.1788749 5.20556641,42.9331055 C4.93212754,42.687336 4.54638921,42.5644531 4.04833984,42.5644531 C3.58609795,42.5644531 3.22558723,42.6661774 2.96679688,42.8696289 C2.70800652,43.0730804 2.57861328,43.3554669 2.57861328,43.7167969 C2.57861328,44.0065119 2.70149617,44.2514638 2.94726562,44.4516602 C3.19303508,44.6518565 3.61132517,44.8349601 4.20214844,45.0009766 C4.7929717,45.166993 5.25520667,45.3500967 5.58886719,45.550293 C5.92252771,45.7504893 6.16992107,45.9840481 6.33105469,46.2509766 C6.49218831,46.517905 6.57275391,46.8320294 6.57275391,47.1933594 C6.57275391,47.7695341 6.34814678,48.2309553 5.89892578,48.5776367 C5.44970479,48.9243181 4.84912485,49.0976562 4.09716797,49.0976562 C3.60888428,49.0976562 3.15315967,49.0040699 2.72998047,48.8168945 C2.30680127,48.6297191 1.9804699,48.373374 1.75097656,48.0478516 C1.52148323,47.7223291 1.40673828,47.3528667 1.40673828,46.9394531 L2.34912109,46.9394531 C2.34912109,47.3691428 2.50781091,47.7084948 2.82519531,47.9575195 C3.14257971,48.2065442 3.56656636,48.3310547 4.09716797,48.3310547 C4.59196211,48.3310547 4.97119009,48.2301442 5.23486328,48.0283203 C5.49853647,47.8264964 5.63037109,47.551434 5.63037109,47.203125 C5.63037109,46.854816 5.508302,46.5854502 5.26416016,46.3950195 C5.02001831,46.2045889 4.5773144,46.0166025 3.93603516,45.8310547 Z M9.82470703,49.0976562 C9.10855762,49.0976562 8.52588115,48.8624698 8.07666016,48.3920898 C7.62743916,47.9217099 7.40283203,47.2926472 7.40283203,46.5048828 L7.40283203,46.3388672 C7.40283203,45.814776 7.50292869,45.3468445 7.703125,44.9350586 C7.90332131,44.5232727 8.18326643,44.2010103 8.54296875,43.9682617 C8.90267107,43.7355132 9.29247837,43.6191406 9.71240234,43.6191406 C10.3992547,43.6191406 10.9331036,43.8453753 11.3139648,44.2978516 C11.6948261,44.7503278 11.8852539,45.3981078 11.8852539,46.2412109 L11.8852539,46.6171875 L8.30615234,46.6171875 C8.31917324,47.1380234 8.47135271,47.5587549 8.76269531,47.8793945 C9.05403792,48.2000342 9.42431416,48.3603516 9.87353516,48.3603516 C10.1925472,48.3603516 10.4627268,48.295248 10.684082,48.1650391 C10.9054373,48.0348301 11.0991203,47.8623058 11.2651367,47.6474609 L11.8168945,48.0771484 C11.374184,48.7574904 10.7101281,49.0976562 9.82470703,49.0976562 Z M9.71240234,44.3613281 C9.34781719,44.3613281 9.04183066,44.4939765 8.79443359,44.7592773 C8.54703652,45.0245781 8.39404326,45.396482 8.33544922,45.875 L10.9819336,45.875 L10.9819336,45.8066406 C10.9558918,45.347654 10.8321951,44.992026 10.6108398,44.7397461 C10.3894846,44.4874662 10.0900084,44.3613281 9.71240234,44.3613281 Z M15.0493164,48.3603516 C15.3715836,48.3603516 15.6531563,48.2626963 15.894043,48.0673828 C16.1349296,47.8720693 16.2683918,47.6279312 16.2944336,47.3349609 L17.1489258,47.3349609 C17.1326497,47.6376968 17.028484,47.9257799 16.8364258,48.1992188 C16.6443675,48.4726576 16.3880224,48.6907544 16.0673828,48.8535156 C15.7467432,49.0162769 15.4073911,49.0976562 15.0493164,49.0976562 C14.3299118,49.0976562 13.7578146,48.857587 13.3330078,48.3774414 C12.908201,47.8972958 12.6958008,47.2405641 12.6958008,46.4072266 L12.6958008,46.2558594 C12.6958008,45.7415339 12.7902009,45.2841817 12.9790039,44.8837891 C13.1678069,44.4833964 13.4388003,44.1725271 13.7919922,43.9511719 C14.1451841,43.7298166 14.5626604,43.6191406 15.0444336,43.6191406 C15.6368845,43.6191406 16.1292298,43.7965477 16.5214844,44.1513672 C16.9137389,44.5061867 17.122884,44.966794 17.1489258,45.5332031 L16.2944336,45.5332031 C16.2683918,45.1914045 16.1389986,44.9106456 15.90625,44.690918 C15.6735014,44.4711903 15.3862322,44.3613281 15.0444336,44.3613281 C14.5854469,44.3613281 14.229819,44.5265283 13.9775391,44.8569336 C13.7252592,45.1873389 13.5991211,45.6650359 13.5991211,46.2900391 L13.5991211,46.4609375 C13.5991211,47.0696645 13.7244454,47.5384098 13.9750977,47.8671875 C14.22575,48.1959652 14.5838193,48.3603516 15.0493164,48.3603516 Z M17.925293,46.3095703 C17.925293,45.7919896 18.0270172,45.3264995 18.2304688,44.9130859 C18.4339203,44.4996724 18.7171206,44.1806652 19.0800781,43.9560547 C19.4430357,43.7314442 19.8572568,43.6191406 20.3227539,43.6191406 C21.0421585,43.6191406 21.6240212,43.8681616 22.0683594,44.3662109 C22.5126975,44.8642603 22.7348633,45.5266886 22.7348633,46.3535156 L22.7348633,46.4169922 C22.7348633,46.9313177 22.6363942,47.3927388 22.4394531,47.8012695 C22.242512,48.2098002 21.9609393,48.5279937 21.5947266,48.7558594 C21.2285138,48.9837251 20.8077823,49.0976562 20.3325195,49.0976562 C19.6163701,49.0976562 19.036135,48.8486353 18.5917969,48.3505859 C18.1474587,47.8525366 17.925293,47.1933635 17.925293,46.3730469 L17.925293,46.3095703 Z M18.8334961,46.4169922 C18.8334961,47.0029326 18.9693997,47.4733055 19.2412109,47.828125 C19.5130222,48.1829445 19.8767881,48.3603516 20.3325195,48.3603516 C20.7915062,48.3603516 21.1560859,48.1805031 21.4262695,47.8208008 C21.6964532,47.4610985 21.831543,46.95736 21.831543,46.3095703 C21.831543,45.7301403 21.6940118,45.2605812 21.4189453,44.9008789 C21.1438788,44.5411766 20.7784854,44.3613281 20.3227539,44.3613281 C19.8767881,44.3613281 19.5170912,44.5387352 19.2436523,44.8935547 C18.9702135,45.2483742 18.8334961,45.7561816 18.8334961,46.4169922 Z M24.722168,43.7167969 L24.7514648,44.3808594 C25.1551127,43.8730443 25.6824512,43.6191406 26.3334961,43.6191406 C27.4500381,43.6191406 28.0131835,44.2490171 28.0229492,45.5087891 L28.0229492,49 L27.1196289,49 L27.1196289,45.5039062 C27.1163737,45.123045 27.0292977,44.8414723 26.8583984,44.6591797 C26.6874991,44.4768871 26.4213885,44.3857422 26.0600586,44.3857422 C25.7670884,44.3857422 25.5099295,44.4638664 25.2885742,44.6201172 C25.0672189,44.776368 24.8946946,44.981444 24.7709961,45.2353516 L24.7709961,49 L23.8676758,49 L23.8676758,43.7167969 L24.722168,43.7167969 Z M29.1655273,46.3144531 C29.1655273,45.5039022 29.3575827,44.8520532 29.7416992,44.3588867 C30.1258157,43.8657202 30.6287404,43.6191406 31.2504883,43.6191406 C31.868981,43.6191406 32.3588849,43.8307271 32.7202148,44.2539062 L32.7202148,41.5 L33.6235352,41.5 L33.6235352,49 L32.793457,49 L32.7495117,48.4335938 C32.3881818,48.8763043 31.8852571,49.0976562 31.2407227,49.0976562 C30.6287404,49.0976562 30.1298847,48.8470077 29.7441406,48.3457031 C29.3583965,47.8443985 29.1655273,47.1901082 29.1655273,46.3828125 L29.1655273,46.3144531 Z M30.0688477,46.4169922 C30.0688477,47.0159535 30.1925443,47.4846988 30.4399414,47.8232422 C30.6873385,48.1617855 31.0291319,48.3310547 31.465332,48.3310547 C32.0382516,48.3310547 32.4565417,48.0738958 32.7202148,47.5595703 L32.7202148,45.1328125 C32.4500312,44.6347631 32.0349963,44.3857422 31.4750977,44.3857422 C31.0323871,44.3857422 30.6873385,44.5566389 30.4399414,44.8984375 C30.1925443,45.2402361 30.0688477,45.7464159 30.0688477,46.4169922 Z M38.2866211,49 C38.2345375,48.8958328 38.1922202,48.7102878 38.159668,48.4433594 C37.739744,48.8795595 37.2384469,49.0976562 36.6557617,49.0976562 C36.1349258,49.0976562 35.707684,48.9503595 35.3740234,48.6557617 C35.0403629,48.3611639 34.8735352,47.9876325 34.8735352,47.5351562 C34.8735352,46.9850233 35.0826802,46.5577815 35.5009766,46.253418 C35.9192729,45.9490545 36.5076459,45.796875 37.2661133,45.796875 L38.1450195,45.796875 L38.1450195,45.3818359 C38.1450195,45.0660792 38.0506194,44.8146168 37.8618164,44.6274414 C37.6730134,44.440266 37.3946958,44.3466797 37.0268555,44.3466797 C36.7045882,44.3466797 36.4344086,44.4280591 36.2163086,44.5908203 C35.9982085,44.7535815 35.8891602,44.9505197 35.8891602,45.1816406 L34.980957,45.1816406 C34.980957,44.9179674 35.0745433,44.6632499 35.2617188,44.4174805 C35.4488942,44.171711 35.7027979,43.9772143 36.0234375,43.8339844 C36.3440771,43.6907545 36.6964499,43.6191406 37.0805664,43.6191406 C37.6892934,43.6191406 38.1661767,43.7713201 38.5112305,44.0756836 C38.8562843,44.3800471 39.0353189,44.799151 39.0483398,45.3330078 L39.0483398,47.7646484 C39.0483398,48.2496769 39.1101882,48.6354152 39.2338867,48.921875 L39.2338867,49 L38.2866211,49 Z M36.7875977,48.3115234 C37.0708022,48.3115234 37.3393542,48.238282 37.5932617,48.0917969 C37.8471692,47.9453118 38.0310867,47.754884 38.1450195,47.5205078 L38.1450195,46.4365234 L37.4370117,46.4365234 C36.3302354,46.4365234 35.7768555,46.7604134 35.7768555,47.4082031 C35.7768555,47.6914077 35.8712556,47.9127596 36.0600586,48.0722656 C36.2488616,48.2317716 36.4913722,48.3115234 36.7875977,48.3115234 Z M43.0180664,44.5273438 C42.881347,44.5045572 42.7332365,44.4931641 42.5737305,44.4931641 C41.9812796,44.4931641 41.5792654,44.7454402 41.3676758,45.25 L41.3676758,49 L40.4643555,49 L40.4643555,43.7167969 L41.3432617,43.7167969 L41.3579102,44.3271484 C41.6541356,43.8551409 42.0740533,43.6191406 42.6176758,43.6191406 C42.7934579,43.6191406 42.9269201,43.6419269 43.0180664,43.6875 L43.0180664,44.5273438 Z M45.6645508,47.6767578 L46.8950195,43.7167969 L47.8618164,43.7167969 L45.737793,49.8154297 C45.4090153,50.6943403 44.8865596,51.1337891 44.1704102,51.1337891 L43.9995117,51.1191406 L43.6625977,51.0556641 L43.6625977,50.3232422 L43.9067383,50.3427734 C44.2127294,50.3427734 44.451171,50.2809251 44.6220703,50.1572266 C44.7929696,50.033528 44.933756,49.8072933 45.0444336,49.4785156 L45.2446289,48.9414062 L43.3598633,43.7167969 L44.3461914,43.7167969 L45.6645508,47.6767578 Z" id="Secondary" fill="#9E9E9E"></path>
                        <g id="Button/Standard/Secondary" transform="translate(1.000000, 0.000000)">
                            <g id="Rectangle-2">
                                <use fill-opacity="0" fill="#FFFFFF" fill-rule="evenodd" xlink:href="#path-1"></use>
                                <rect stroke="#0C7481" stroke-width="1" x="0.5" y="0.5" width="95" height="31" rx="2"></rect>
                            </g>
                            <path d="M13.1879883,21 L13.1879883,11.046875 L16.5991211,11.046875 C17.7247778,11.046875 18.58154,11.2724587 19.1694336,11.7236328 C19.7573272,12.1748069 20.0512695,12.8470007 20.0512695,13.7402344 C20.0512695,14.1959658 19.9282239,14.606118 19.6821289,14.9707031 C19.4360339,15.3352883 19.0760115,15.6178375 18.6020508,15.8183594 C19.1398139,15.9641934 19.5556626,16.2387675 19.8496094,16.6420898 C20.1435562,17.0454122 20.2905273,17.5296196 20.2905273,18.0947266 C20.2905273,19.028976 19.9908884,19.7467423 19.3916016,20.2480469 C18.7923147,20.7493515 17.9344131,21 16.8178711,21 L13.1879883,21 Z M14.9174805,16.5087891 L14.9174805,19.6191406 L16.8383789,19.6191406 C17.3806993,19.6191406 17.8045232,19.4847019 18.1098633,19.2158203 C18.4152033,18.9469388 18.5678711,18.5732446 18.5678711,18.0947266 C18.5678711,17.0602162 18.0392305,16.5315756 16.9819336,16.5087891 L14.9174805,16.5087891 Z M14.9174805,15.2373047 L16.612793,15.2373047 C17.1505561,15.2373047 17.570962,15.1153984 17.8740234,14.871582 C18.1770848,14.6277657 18.3286133,14.2825543 18.3286133,13.8359375 C18.3286133,13.3437475 18.188478,12.9882823 17.9082031,12.7695312 C17.6279283,12.5507802 17.191572,12.4414062 16.5991211,12.4414062 L14.9174805,12.4414062 L14.9174805,15.2373047 Z M26.340332,20.2753906 C25.8526994,20.8496122 25.159998,21.1367188 24.262207,21.1367188 C23.4601197,21.1367188 22.8528666,20.9020206 22.4404297,20.4326172 C22.0279927,19.9632138 21.8217773,19.2841841 21.8217773,18.3955078 L21.8217773,13.6035156 L23.4829102,13.6035156 L23.4829102,18.375 C23.4829102,19.3138068 23.8725547,19.7832031 24.6518555,19.7832031 C25.4585001,19.7832031 26.003091,19.493818 26.2856445,18.9150391 L26.2856445,13.6035156 L27.9467773,13.6035156 L27.9467773,21 L26.3813477,21 L26.340332,20.2753906 Z M31.7202148,11.8056641 L31.7202148,13.6035156 L33.0258789,13.6035156 L33.0258789,14.8339844 L31.7202148,14.8339844 L31.7202148,18.9628906 C31.7202148,19.2454441 31.7760411,19.4493809 31.8876953,19.574707 C31.9993495,19.7000332 32.198729,19.7626953 32.4858398,19.7626953 C32.6772471,19.7626953 32.87093,19.7399091 33.0668945,19.6943359 L33.0668945,20.9794922 C32.6886374,21.0843104 32.3240577,21.1367188 31.9731445,21.1367188 C30.6970965,21.1367188 30.059082,20.4326242 30.059082,19.0244141 L30.059082,14.8339844 L28.8422852,14.8339844 L28.8422852,13.6035156 L30.059082,13.6035156 L30.059082,11.8056641 L31.7202148,11.8056641 Z M36.3754883,11.8056641 L36.3754883,13.6035156 L37.6811523,13.6035156 L37.6811523,14.8339844 L36.3754883,14.8339844 L36.3754883,18.9628906 C36.3754883,19.2454441 36.4313145,19.4493809 36.5429688,19.574707 C36.654623,19.7000332 36.8540025,19.7626953 37.1411133,19.7626953 C37.3325205,19.7626953 37.5262034,19.7399091 37.722168,19.6943359 L37.722168,20.9794922 C37.3439109,21.0843104 36.9793312,21.1367188 36.628418,21.1367188 C35.3523699,21.1367188 34.7143555,20.4326242 34.7143555,19.0244141 L34.7143555,14.8339844 L33.4975586,14.8339844 L33.4975586,13.6035156 L34.7143555,13.6035156 L34.7143555,11.8056641 L36.3754883,11.8056641 Z M38.4331055,17.2333984 C38.4331055,16.5087854 38.5766587,15.8559599 38.8637695,15.2749023 C39.1508803,14.6938448 39.5541966,14.2472346 40.0737305,13.9350586 C40.5932643,13.6228826 41.1902636,13.4667969 41.8647461,13.4667969 C42.862798,13.4667969 43.6728485,13.7880827 44.2949219,14.4306641 C44.9169953,15.0732454 45.2530922,15.9254504 45.3032227,16.9873047 L45.3100586,17.3769531 C45.3100586,18.1061234 45.1699233,18.7578096 44.8896484,19.3320312 C44.6093736,19.9062529 44.2083359,20.3505844 43.6865234,20.6650391 C43.1647109,20.9794938 42.5620151,21.1367188 41.878418,21.1367188 C40.834793,21.1367188 39.9996776,20.7892287 39.3730469,20.0942383 C38.7464161,19.3992478 38.4331055,18.4729876 38.4331055,17.3154297 L38.4331055,17.2333984 Z M40.0942383,17.3769531 C40.0942383,18.1380246 40.2514633,18.7338846 40.565918,19.1645508 C40.8803727,19.595217 41.3178683,19.8105469 41.878418,19.8105469 C42.4389676,19.8105469 42.875324,19.5917991 43.1875,19.1542969 C43.499676,18.7167947 43.6557617,18.0765016 43.6557617,17.2333984 C43.6557617,16.4859989 43.4951188,15.8935569 43.1738281,15.4560547 C42.8525375,15.0185525 42.4161811,14.7998047 41.8647461,14.7998047 C41.3224257,14.7998047 40.8917659,15.0151346 40.5727539,15.4458008 C40.2537419,15.876467 40.0942383,16.520178 40.0942383,17.3769531 Z M48.2563477,13.6035156 L48.3041992,14.4580078 C48.851077,13.7971972 49.5688432,13.4667969 50.4575195,13.4667969 C51.9978918,13.4667969 52.7817381,14.348624 52.809082,16.1123047 L52.809082,21 L51.1479492,21 L51.1479492,16.2080078 C51.1479492,15.7386044 51.0465505,15.3911144 50.84375,15.1655273 C50.6409495,14.9399403 50.3094099,14.8271484 49.8491211,14.8271484 C49.1791959,14.8271484 48.6801774,15.1302053 48.3520508,15.7363281 L48.3520508,21 L46.690918,21 L46.690918,13.6035156 L48.2563477,13.6035156 Z M64.9291992,12.4414062 L61.8256836,12.4414062 L61.8256836,21 L60.1098633,21 L60.1098633,12.4414062 L57.0336914,12.4414062 L57.0336914,11.046875 L64.9291992,11.046875 L64.9291992,12.4414062 Z M68.7231445,21.1367188 C67.6704049,21.1367188 66.8170606,20.8051791 66.1630859,20.1420898 C65.5091113,19.4790006 65.1821289,18.5960342 65.1821289,17.4931641 L65.1821289,17.2880859 C65.1821289,16.549801 65.3245428,15.8901396 65.609375,15.309082 C65.8942072,14.7280244 66.2941055,14.2757178 66.809082,13.9521484 C67.3240586,13.6285791 67.8982716,13.4667969 68.5317383,13.4667969 C69.5389048,13.4667969 70.3170545,13.7880827 70.8662109,14.4306641 C71.4153673,15.0732454 71.6899414,15.982416 71.6899414,17.1582031 L71.6899414,17.828125 L66.8569336,17.828125 C66.9070641,18.4388051 67.1110008,18.9218732 67.46875,19.2773438 C67.8264992,19.6328143 68.2765272,19.8105469 68.8188477,19.8105469 C69.5799192,19.8105469 70.1997046,19.5029328 70.6782227,18.8876953 L71.5737305,19.7421875 C71.277505,20.184247 70.8821639,20.5271798 70.3876953,20.7709961 C69.8932267,21.0148124 69.338382,21.1367188 68.7231445,21.1367188 Z M68.5249023,14.7998047 C68.0691709,14.7998047 67.7011733,14.9593083 67.4208984,15.2783203 C67.1406236,15.5973323 66.9617517,16.0416638 66.8842773,16.6113281 L70.0493164,16.6113281 L70.0493164,16.4882812 C70.0128579,15.9322889 69.8647474,15.5118829 69.6049805,15.2270508 C69.3452135,14.9422186 68.9851911,14.7998047 68.5249023,14.7998047 Z M75.6342773,16.0371094 L77.0424805,13.6035156 L78.8881836,13.6035156 L76.6254883,17.2470703 L78.9633789,21 L77.1313477,21 L75.6547852,18.4707031 L74.1850586,21 L72.3393555,21 L74.6772461,17.2470703 L72.4213867,13.6035156 L74.253418,13.6035156 L75.6342773,16.0371094 Z M82.1010742,11.8056641 L82.1010742,13.6035156 L83.4067383,13.6035156 L83.4067383,14.8339844 L82.1010742,14.8339844 L82.1010742,18.9628906 C82.1010742,19.2454441 82.1569005,19.4493809 82.2685547,19.574707 C82.3802089,19.7000332 82.5795884,19.7626953 82.8666992,19.7626953 C83.0581064,19.7626953 83.2517894,19.7399091 83.4477539,19.6943359 L83.4477539,20.9794922 C83.0694968,21.0843104 82.7049171,21.1367188 82.3540039,21.1367188 C81.0779559,21.1367188 80.4399414,20.4326242 80.4399414,19.0244141 L80.4399414,14.8339844 L79.2231445,14.8339844 L79.2231445,13.6035156 L80.4399414,13.6035156 L80.4399414,11.8056641 L82.1010742,11.8056641 Z" id="Button-Text" fill="#0C7481"></path>
                        </g>
                    </g>
                    <g id="Group-5" transform="translate(469.000000, 0.000000)">
                        <text id="Tertiary" font-family="Roboto-Regular, Roboto" font-size="10" font-weight="normal" fill="#9E9E9E">
                            <tspan x="1.12744141" y="48">Tertiary</tspan>
                        </text>
                        <path d="M6.86474609,41.6621094 L4.57958984,41.6621094 L4.57958984,48 L3.64697266,48 L3.64697266,41.6621094 L1.36669922,41.6621094 L1.36669922,40.890625 L6.86474609,40.890625 L6.86474609,41.6621094 Z M9.48681641,48.0976562 C8.77066699,48.0976562 8.18799053,47.8624698 7.73876953,47.3920898 C7.28954854,46.9217099 7.06494141,46.2926472 7.06494141,45.5048828 L7.06494141,45.3388672 C7.06494141,44.814776 7.16503806,44.3468445 7.36523438,43.9350586 C7.56543069,43.5232727 7.84537581,43.2010103 8.20507812,42.9682617 C8.56478044,42.7355132 8.95458774,42.6191406 9.37451172,42.6191406 C10.0613641,42.6191406 10.5952129,42.8453753 10.9760742,43.2978516 C11.3569355,43.7503278 11.5473633,44.3981078 11.5473633,45.2412109 L11.5473633,45.6171875 L7.96826172,45.6171875 C7.98128262,46.1380234 8.13346208,46.5587549 8.42480469,46.8793945 C8.71614729,47.2000342 9.08642354,47.3603516 9.53564453,47.3603516 C9.85465654,47.3603516 10.1248361,47.295248 10.3461914,47.1650391 C10.5675467,47.0348301 10.7612296,46.8623058 10.9272461,46.6474609 L11.4790039,47.0771484 C11.0362934,47.7574904 10.3722375,48.0976562 9.48681641,48.0976562 Z M9.37451172,43.3613281 C9.00992656,43.3613281 8.70394004,43.4939765 8.45654297,43.7592773 C8.2091459,44.0245781 8.05615264,44.396482 7.99755859,44.875 L10.644043,44.875 L10.644043,44.8066406 C10.6180012,44.347654 10.4943045,43.992026 10.2729492,43.7397461 C10.0515939,43.4874662 9.75211777,43.3613281 9.37451172,43.3613281 Z M15.1459961,43.5273438 C15.0092767,43.5045572 14.8611662,43.4931641 14.7016602,43.4931641 C14.1092093,43.4931641 13.7071951,43.7454402 13.4956055,44.25 L13.4956055,48 L12.5922852,48 L12.5922852,42.7167969 L13.4711914,42.7167969 L13.4858398,43.3271484 C13.7820653,42.8551409 14.201983,42.6191406 14.7456055,42.6191406 C14.9213876,42.6191406 15.0548498,42.6419269 15.1459961,42.6875 L15.1459961,43.5273438 Z M17.4458008,41.4375 L17.4458008,42.7167969 L18.4321289,42.7167969 L18.4321289,43.4150391 L17.4458008,43.4150391 L17.4458008,46.6914062 C17.4458008,46.9029958 17.4897457,47.0616857 17.5776367,47.1674805 C17.6655278,47.2732753 17.8152659,47.3261719 18.0268555,47.3261719 C18.1310227,47.3261719 18.2742504,47.3066408 18.456543,47.2675781 L18.456543,48 C18.2189116,48.0651045 17.9877941,48.0976562 17.7631836,48.0976562 C17.3595357,48.0976562 17.0551768,47.9755872 16.8500977,47.7314453 C16.6450185,47.4873035 16.5424805,47.1406272 16.5424805,46.6914062 L16.5424805,43.4150391 L15.5805664,43.4150391 L15.5805664,42.7167969 L16.5424805,42.7167969 L16.5424805,41.4375 L17.4458008,41.4375 Z M20.4682617,48 L19.5649414,48 L19.5649414,42.7167969 L20.4682617,42.7167969 L20.4682617,48 Z M19.4916992,41.3154297 C19.4916992,41.1689446 19.5364579,41.0452479 19.6259766,40.9443359 C19.7154952,40.843424 19.8481437,40.7929688 20.0239258,40.7929688 C20.1997079,40.7929688 20.3331701,40.843424 20.4243164,40.9443359 C20.5154627,41.0452479 20.5610352,41.1689446 20.5610352,41.3154297 C20.5610352,41.4619148 20.5154627,41.5839839 20.4243164,41.6816406 C20.3331701,41.7792974 20.1997079,41.828125 20.0239258,41.828125 C19.8481437,41.828125 19.7154952,41.7792974 19.6259766,41.6816406 C19.5364579,41.5839839 19.4916992,41.4619148 19.4916992,41.3154297 Z M25.175293,48 C25.1232094,47.8958328 25.0808921,47.7102878 25.0483398,47.4433594 C24.6284159,47.8795595 24.1271188,48.0976562 23.5444336,48.0976562 C23.0235977,48.0976562 22.5963558,47.9503595 22.2626953,47.6557617 C21.9290348,47.3611639 21.762207,46.9876325 21.762207,46.5351562 C21.762207,45.9850233 21.9713521,45.5577815 22.3896484,45.253418 C22.8079448,44.9490545 23.3963178,44.796875 24.1547852,44.796875 L25.0336914,44.796875 L25.0336914,44.3818359 C25.0336914,44.0660792 24.9392913,43.8146168 24.7504883,43.6274414 C24.5616853,43.440266 24.2833677,43.3466797 23.9155273,43.3466797 C23.5932601,43.3466797 23.3230805,43.4280591 23.1049805,43.5908203 C22.8868804,43.7535815 22.777832,43.9505197 22.777832,44.1816406 L21.8696289,44.1816406 C21.8696289,43.9179674 21.9632152,43.6632499 22.1503906,43.4174805 C22.337566,43.171711 22.5914698,42.9772143 22.9121094,42.8339844 C23.232749,42.6907545 23.5851218,42.6191406 23.9692383,42.6191406 C24.5779653,42.6191406 25.0548485,42.7713201 25.3999023,43.0756836 C25.7449562,43.3800471 25.9239908,43.799151 25.9370117,44.3330078 L25.9370117,46.7646484 C25.9370117,47.2496769 25.9988601,47.6354152 26.1225586,47.921875 L26.1225586,48 L25.175293,48 Z M23.6762695,47.3115234 C23.9594741,47.3115234 24.2280261,47.238282 24.4819336,47.0917969 C24.7358411,46.9453118 24.9197585,46.754884 25.0336914,46.5205078 L25.0336914,45.4365234 L24.3256836,45.4365234 C23.2189072,45.4365234 22.6655273,45.7604134 22.6655273,46.4082031 C22.6655273,46.6914077 22.7599274,46.9127596 22.9487305,47.0722656 C23.1375335,47.2317716 23.3800441,47.3115234 23.6762695,47.3115234 Z M29.9067383,43.5273438 C29.7700188,43.5045572 29.6219083,43.4931641 29.4624023,43.4931641 C28.8699515,43.4931641 28.4679373,43.7454402 28.2563477,44.25 L28.2563477,48 L27.3530273,48 L27.3530273,42.7167969 L28.2319336,42.7167969 L28.246582,43.3271484 C28.5428075,42.8551409 28.9627251,42.6191406 29.5063477,42.6191406 C29.6821298,42.6191406 29.815592,42.6419269 29.9067383,42.6875 L29.9067383,43.5273438 Z M32.5532227,46.6767578 L33.7836914,42.7167969 L34.7504883,42.7167969 L32.6264648,48.8154297 C32.2976872,49.6943403 31.7752314,50.1337891 31.059082,50.1337891 L30.8881836,50.1191406 L30.5512695,50.0556641 L30.5512695,49.3232422 L30.7954102,49.3427734 C31.1014013,49.3427734 31.3398429,49.2809251 31.5107422,49.1572266 C31.6816415,49.033528 31.8224278,48.8072933 31.9331055,48.4785156 L32.1333008,47.9414062 L30.2485352,42.7167969 L31.2348633,42.7167969 L32.5532227,46.6767578 Z" id="Tertiary-Copy" fill="#9E9E9E"></path>
                        <g id="Button/Standard/Tertiary" transform="translate(1.000000, 0.000000)">
                            <rect id="Rectangle-2" fill-opacity="0" fill="#FFFFFF" opacity="0" x="0" y="0" width="96" height="32" rx="2"></rect>
                            <path d="M13.1879883,21 L13.1879883,11.046875 L16.5991211,11.046875 C17.7247778,11.046875 18.58154,11.2724587 19.1694336,11.7236328 C19.7573272,12.1748069 20.0512695,12.8470007 20.0512695,13.7402344 C20.0512695,14.1959658 19.9282239,14.606118 19.6821289,14.9707031 C19.4360339,15.3352883 19.0760115,15.6178375 18.6020508,15.8183594 C19.1398139,15.9641934 19.5556626,16.2387675 19.8496094,16.6420898 C20.1435562,17.0454122 20.2905273,17.5296196 20.2905273,18.0947266 C20.2905273,19.028976 19.9908884,19.7467423 19.3916016,20.2480469 C18.7923147,20.7493515 17.9344131,21 16.8178711,21 L13.1879883,21 Z M14.9174805,16.5087891 L14.9174805,19.6191406 L16.8383789,19.6191406 C17.3806993,19.6191406 17.8045232,19.4847019 18.1098633,19.2158203 C18.4152033,18.9469388 18.5678711,18.5732446 18.5678711,18.0947266 C18.5678711,17.0602162 18.0392305,16.5315756 16.9819336,16.5087891 L14.9174805,16.5087891 Z M14.9174805,15.2373047 L16.612793,15.2373047 C17.1505561,15.2373047 17.570962,15.1153984 17.8740234,14.871582 C18.1770848,14.6277657 18.3286133,14.2825543 18.3286133,13.8359375 C18.3286133,13.3437475 18.188478,12.9882823 17.9082031,12.7695312 C17.6279283,12.5507802 17.191572,12.4414062 16.5991211,12.4414062 L14.9174805,12.4414062 L14.9174805,15.2373047 Z M26.340332,20.2753906 C25.8526994,20.8496122 25.159998,21.1367188 24.262207,21.1367188 C23.4601197,21.1367188 22.8528666,20.9020206 22.4404297,20.4326172 C22.0279927,19.9632138 21.8217773,19.2841841 21.8217773,18.3955078 L21.8217773,13.6035156 L23.4829102,13.6035156 L23.4829102,18.375 C23.4829102,19.3138068 23.8725547,19.7832031 24.6518555,19.7832031 C25.4585001,19.7832031 26.003091,19.493818 26.2856445,18.9150391 L26.2856445,13.6035156 L27.9467773,13.6035156 L27.9467773,21 L26.3813477,21 L26.340332,20.2753906 Z M31.7202148,11.8056641 L31.7202148,13.6035156 L33.0258789,13.6035156 L33.0258789,14.8339844 L31.7202148,14.8339844 L31.7202148,18.9628906 C31.7202148,19.2454441 31.7760411,19.4493809 31.8876953,19.574707 C31.9993495,19.7000332 32.198729,19.7626953 32.4858398,19.7626953 C32.6772471,19.7626953 32.87093,19.7399091 33.0668945,19.6943359 L33.0668945,20.9794922 C32.6886374,21.0843104 32.3240577,21.1367188 31.9731445,21.1367188 C30.6970965,21.1367188 30.059082,20.4326242 30.059082,19.0244141 L30.059082,14.8339844 L28.8422852,14.8339844 L28.8422852,13.6035156 L30.059082,13.6035156 L30.059082,11.8056641 L31.7202148,11.8056641 Z M36.3754883,11.8056641 L36.3754883,13.6035156 L37.6811523,13.6035156 L37.6811523,14.8339844 L36.3754883,14.8339844 L36.3754883,18.9628906 C36.3754883,19.2454441 36.4313145,19.4493809 36.5429688,19.574707 C36.654623,19.7000332 36.8540025,19.7626953 37.1411133,19.7626953 C37.3325205,19.7626953 37.5262034,19.7399091 37.722168,19.6943359 L37.722168,20.9794922 C37.3439109,21.0843104 36.9793312,21.1367188 36.628418,21.1367188 C35.3523699,21.1367188 34.7143555,20.4326242 34.7143555,19.0244141 L34.7143555,14.8339844 L33.4975586,14.8339844 L33.4975586,13.6035156 L34.7143555,13.6035156 L34.7143555,11.8056641 L36.3754883,11.8056641 Z M38.4331055,17.2333984 C38.4331055,16.5087854 38.5766587,15.8559599 38.8637695,15.2749023 C39.1508803,14.6938448 39.5541966,14.2472346 40.0737305,13.9350586 C40.5932643,13.6228826 41.1902636,13.4667969 41.8647461,13.4667969 C42.862798,13.4667969 43.6728485,13.7880827 44.2949219,14.4306641 C44.9169953,15.0732454 45.2530922,15.9254504 45.3032227,16.9873047 L45.3100586,17.3769531 C45.3100586,18.1061234 45.1699233,18.7578096 44.8896484,19.3320312 C44.6093736,19.9062529 44.2083359,20.3505844 43.6865234,20.6650391 C43.1647109,20.9794938 42.5620151,21.1367188 41.878418,21.1367188 C40.834793,21.1367188 39.9996776,20.7892287 39.3730469,20.0942383 C38.7464161,19.3992478 38.4331055,18.4729876 38.4331055,17.3154297 L38.4331055,17.2333984 Z M40.0942383,17.3769531 C40.0942383,18.1380246 40.2514633,18.7338846 40.565918,19.1645508 C40.8803727,19.595217 41.3178683,19.8105469 41.878418,19.8105469 C42.4389676,19.8105469 42.875324,19.5917991 43.1875,19.1542969 C43.499676,18.7167947 43.6557617,18.0765016 43.6557617,17.2333984 C43.6557617,16.4859989 43.4951188,15.8935569 43.1738281,15.4560547 C42.8525375,15.0185525 42.4161811,14.7998047 41.8647461,14.7998047 C41.3224257,14.7998047 40.8917659,15.0151346 40.5727539,15.4458008 C40.2537419,15.876467 40.0942383,16.520178 40.0942383,17.3769531 Z M48.2563477,13.6035156 L48.3041992,14.4580078 C48.851077,13.7971972 49.5688432,13.4667969 50.4575195,13.4667969 C51.9978918,13.4667969 52.7817381,14.348624 52.809082,16.1123047 L52.809082,21 L51.1479492,21 L51.1479492,16.2080078 C51.1479492,15.7386044 51.0465505,15.3911144 50.84375,15.1655273 C50.6409495,14.9399403 50.3094099,14.8271484 49.8491211,14.8271484 C49.1791959,14.8271484 48.6801774,15.1302053 48.3520508,15.7363281 L48.3520508,21 L46.690918,21 L46.690918,13.6035156 L48.2563477,13.6035156 Z M64.9291992,12.4414062 L61.8256836,12.4414062 L61.8256836,21 L60.1098633,21 L60.1098633,12.4414062 L57.0336914,12.4414062 L57.0336914,11.046875 L64.9291992,11.046875 L64.9291992,12.4414062 Z M68.7231445,21.1367188 C67.6704049,21.1367188 66.8170606,20.8051791 66.1630859,20.1420898 C65.5091113,19.4790006 65.1821289,18.5960342 65.1821289,17.4931641 L65.1821289,17.2880859 C65.1821289,16.549801 65.3245428,15.8901396 65.609375,15.309082 C65.8942072,14.7280244 66.2941055,14.2757178 66.809082,13.9521484 C67.3240586,13.6285791 67.8982716,13.4667969 68.5317383,13.4667969 C69.5389048,13.4667969 70.3170545,13.7880827 70.8662109,14.4306641 C71.4153673,15.0732454 71.6899414,15.982416 71.6899414,17.1582031 L71.6899414,17.828125 L66.8569336,17.828125 C66.9070641,18.4388051 67.1110008,18.9218732 67.46875,19.2773438 C67.8264992,19.6328143 68.2765272,19.8105469 68.8188477,19.8105469 C69.5799192,19.8105469 70.1997046,19.5029328 70.6782227,18.8876953 L71.5737305,19.7421875 C71.277505,20.184247 70.8821639,20.5271798 70.3876953,20.7709961 C69.8932267,21.0148124 69.338382,21.1367188 68.7231445,21.1367188 Z M68.5249023,14.7998047 C68.0691709,14.7998047 67.7011733,14.9593083 67.4208984,15.2783203 C67.1406236,15.5973323 66.9617517,16.0416638 66.8842773,16.6113281 L70.0493164,16.6113281 L70.0493164,16.4882812 C70.0128579,15.9322889 69.8647474,15.5118829 69.6049805,15.2270508 C69.3452135,14.9422186 68.9851911,14.7998047 68.5249023,14.7998047 Z M75.6342773,16.0371094 L77.0424805,13.6035156 L78.8881836,13.6035156 L76.6254883,17.2470703 L78.9633789,21 L77.1313477,21 L75.6547852,18.4707031 L74.1850586,21 L72.3393555,21 L74.6772461,17.2470703 L72.4213867,13.6035156 L74.253418,13.6035156 L75.6342773,16.0371094 Z M82.1010742,11.8056641 L82.1010742,13.6035156 L83.4067383,13.6035156 L83.4067383,14.8339844 L82.1010742,14.8339844 L82.1010742,18.9628906 C82.1010742,19.2454441 82.1569005,19.4493809 82.2685547,19.574707 C82.3802089,19.7000332 82.5795884,19.7626953 82.8666992,19.7626953 C83.0581064,19.7626953 83.2517894,19.7399091 83.4477539,19.6943359 L83.4477539,20.9794922 C83.0694968,21.0843104 82.7049171,21.1367188 82.3540039,21.1367188 C81.0779559,21.1367188 80.4399414,20.4326242 80.4399414,19.0244141 L80.4399414,14.8339844 L79.2231445,14.8339844 L79.2231445,13.6035156 L80.4399414,13.6035156 L80.4399414,11.8056641 L82.1010742,11.8056641 Z" id="Button-Text" fill="#0C7481"></path>
                        </g>
                    </g>
                    <path d="M5.26660156,16.5634766 C4.14094489,16.2399072 3.32177991,15.8422875 2.80908203,15.3706055 C2.29638416,14.8989234 2.04003906,14.3167352 2.04003906,13.6240234 C2.04003906,12.8401654 2.35334973,12.1918971 2.97998047,11.6791992 C3.60661121,11.1665013 4.42121895,10.9101562 5.42382812,10.9101562 C6.10742529,10.9101562 6.71695696,11.0423164 7.25244141,11.3066406 C7.78792585,11.5709649 8.20263525,11.9355446 8.49658203,12.4003906 C8.79052881,12.8652367 8.9375,13.3733696 8.9375,13.9248047 L7.61816406,13.9248047 C7.61816406,13.3232392 7.42675973,12.8504249 7.04394531,12.5063477 C6.6611309,12.1622704 6.12109724,11.9902344 5.42382812,11.9902344 C4.77668947,11.9902344 4.27197447,12.1326483 3.90966797,12.4174805 C3.54736147,12.7023126 3.36621094,13.0976537 3.36621094,13.6035156 C3.36621094,14.0091166 3.53824698,14.3520494 3.88232422,14.6323242 C4.22640146,14.9125991 4.81200758,15.1689442 5.63916016,15.4013672 C6.46631273,15.6337902 7.11344167,15.8901353 7.58056641,16.1704102 C8.04769114,16.450685 8.39404184,16.7776674 8.61962891,17.1513672 C8.84521597,17.525067 8.95800781,17.9648412 8.95800781,18.4707031 C8.95800781,19.2773478 8.64355783,19.9233374 8.01464844,20.4086914 C7.38573904,20.8940454 6.54492714,21.1367188 5.4921875,21.1367188 C4.80859033,21.1367188 4.17057588,21.0056979 3.578125,20.7436523 C2.98567412,20.4816068 2.5288102,20.1227236 2.20751953,19.6669922 C1.88622886,19.2112607 1.72558594,18.6940133 1.72558594,18.1152344 L3.04492188,18.1152344 C3.04492188,18.7167999 3.26708762,19.1918928 3.71142578,19.5405273 C4.15576394,19.8891619 4.74934524,20.0634766 5.4921875,20.0634766 C6.1848993,20.0634766 6.71581847,19.9222019 7.08496094,19.6396484 C7.45410341,19.3570949 7.63867188,18.9720076 7.63867188,18.484375 C7.63867188,17.9967424 7.46777515,17.6196302 7.12597656,17.3530273 C6.78417798,17.0864244 6.16439251,16.8232435 5.26660156,16.5634766 Z M11.8154297,21 L10.5507812,21 L10.5507812,13.6035156 L11.8154297,13.6035156 L11.8154297,21 Z M10.4482422,11.6416016 C10.4482422,11.4365224 10.5109043,11.2633471 10.6362305,11.1220703 C10.7615566,10.9807936 10.9472644,10.9101562 11.1933594,10.9101562 C11.4394544,10.9101562 11.6263014,10.9807936 11.7539062,11.1220703 C11.8815111,11.2633471 11.9453125,11.4365224 11.9453125,11.6416016 C11.9453125,11.8466807 11.8815111,12.0175774 11.7539062,12.1542969 C11.6263014,12.2910163 11.4394544,12.359375 11.1933594,12.359375 C10.9472644,12.359375 10.7615566,12.2910163 10.6362305,12.1542969 C10.5109043,12.0175774 10.4482422,11.8466807 10.4482422,11.6416016 Z M15.0283203,13.6035156 L15.0625,14.4238281 C15.6048204,13.7858041 16.3362584,13.4667969 17.2568359,13.4667969 C18.2913463,13.4667969 18.9954408,13.8632773 19.3691406,14.65625 C19.6152356,14.3007795 19.9353821,14.013673 20.3295898,13.7949219 C20.7237975,13.5761708 21.189776,13.4667969 21.7275391,13.4667969 C23.349943,13.4667969 24.1748046,14.3258378 24.2021484,16.0439453 L24.2021484,21 L22.9375,21 L22.9375,16.1191406 C22.9375,15.5904921 22.816733,15.195151 22.5751953,14.9331055 C22.3336576,14.6710599 21.9280627,14.5400391 21.3583984,14.5400391 C20.888995,14.5400391 20.4993505,14.6801744 20.1894531,14.9604492 C19.8795557,15.2407241 19.6995445,15.6178362 19.6494141,16.0917969 L19.6494141,21 L18.3779297,21 L18.3779297,16.1533203 C18.3779297,15.0777941 17.8515678,14.5400391 16.7988281,14.5400391 C15.9693969,14.5400391 15.4020198,14.8932256 15.0966797,15.5996094 L15.0966797,21 L13.8320312,21 L13.8320312,13.6035156 L15.0283203,13.6035156 Z M32.3574219,17.3837891 C32.3574219,18.5094457 32.0999375,19.4163377 31.5849609,20.1044922 C31.0699844,20.7926467 30.3727258,21.1367188 29.4931641,21.1367188 C28.5953731,21.1367188 27.889,20.8518909 27.3740234,20.2822266 L27.3740234,23.84375 L26.109375,23.84375 L26.109375,13.6035156 L27.2646484,13.6035156 L27.3261719,14.4238281 C27.8411484,13.7858041 28.556636,13.4667969 29.4726562,13.4667969 C30.3613326,13.4667969 31.0642878,13.8017545 31.581543,14.4716797 C32.0987982,15.1416049 32.3574219,16.0735617 32.3574219,17.2675781 L32.3574219,17.3837891 Z M31.0927734,17.2402344 C31.0927734,16.4062458 30.9150408,15.7477238 30.5595703,15.2646484 C30.2040998,14.7815731 29.7164745,14.5400391 29.0966797,14.5400391 C28.3310509,14.5400391 27.7568379,14.8795539 27.3740234,15.5585938 L27.3740234,19.0927734 C27.7522805,19.767256 28.3310508,20.1044922 29.1103516,20.1044922 C29.7164744,20.1044922 30.1984032,19.8640975 30.5561523,19.3833008 C30.9139015,18.9025041 31.0927734,18.1881558 31.0927734,17.2402344 Z M35.3378906,21 L34.0732422,21 L34.0732422,10.5 L35.3378906,10.5 L35.3378906,21 Z M40.4306641,21.1367188 C39.4280549,21.1367188 38.6123078,20.8074577 37.9833984,20.1489258 C37.354489,19.4903938 37.0400391,18.609706 37.0400391,17.5068359 L37.0400391,17.2744141 C37.0400391,16.5406864 37.1801744,15.8855823 37.4604492,15.309082 C37.7407241,14.7325818 38.1326472,14.2814144 38.6362305,13.9555664 C39.1398137,13.6297184 39.6855439,13.4667969 40.2734375,13.4667969 C41.2350308,13.4667969 41.9824192,13.7835255 42.515625,14.4169922 C43.0488308,15.0504589 43.3154297,15.9573509 43.3154297,17.1376953 L43.3154297,17.6640625 L38.3046875,17.6640625 C38.3229168,18.3932328 38.535968,18.9822569 38.9438477,19.4311523 C39.3517273,19.8800478 39.870114,20.1044922 40.4990234,20.1044922 C40.9456403,20.1044922 41.3238917,20.0133473 41.6337891,19.8310547 C41.9436864,19.6487621 42.2148426,19.4072281 42.4472656,19.1064453 L43.2197266,19.7080078 C42.5999318,20.6604865 41.6702536,21.1367188 40.4306641,21.1367188 Z M40.2734375,14.5058594 C39.7630183,14.5058594 39.3346371,14.6915672 38.9882812,15.0629883 C38.6419254,15.4344094 38.4277348,15.9550748 38.3457031,16.625 L42.0507812,16.625 L42.0507812,16.5292969 C42.0143227,15.8867155 41.8411474,15.3888364 41.53125,15.0356445 C41.2213526,14.6824527 40.802086,14.5058594 40.2734375,14.5058594 Z" id="Simple" fill="#9E9E9E"></path>
                </g>
            </g>
        </g>
    </g>
</svg>