<?xml version="1.0" encoding="UTF-8" standalone="no"?>
<svg width="992px" height="402px" viewBox="0 0 992 402" version="1.1" xmlns="http://www.w3.org/2000/svg" xmlns:xlink="http://www.w3.org/1999/xlink">
    <!-- Generator: Sketch 47.1 (45422) - http://www.bohemiancoding.com/sketch -->
    <title>buttons-hero</title>
    <desc>Created with Sketch.</desc>
    <defs></defs>
    <g id="Page-1" stroke="none" stroke-width="1" fill="none" fill-rule="evenodd">
        <g id="buttons-hero" fill-rule="nonzero">
            <g transform="translate(66.000000, 80.000000)" id="Group">
                <g>
                    <g transform="translate(0.000000, 41.000000)" id="Shape">
                        <g transform="translate(2.000000, 44.000000)" fill="#9E9E9E">
                            <path d="M1.7,5.3 L1.7,8.6 L0.5,8.6 L0.5,0.1 L3.6,0.1 C4.5,0.1 5.3,0.3 5.8,0.8 C6.3,1.3 6.6,1.9 6.6,2.7 C6.6,3.5 6.3,4.2 5.8,4.6 C5.3,5 4.5,5.3 3.6,5.3 L1.7,5.3 Z M1.7,4.4 L3.7,4.4 C4.3,4.4 4.8,4.3 5.1,4 C5.4,3.7 5.6,3.3 5.6,2.8 C5.6,2.3 5.4,1.9 5.1,1.6 C4.8,1.3 4.3,1 3.8,1 L1.7,1 C1.7,1 1.7,4.4 1.7,4.4 Z"></path>
                            <path d="M11,3.3 C10.8,3.3 10.7,3.3 10.5,3.3 C9.8,3.3 9.3,3.6 9.1,4.2 L9.1,8.7 L8,8.7 L8,2.4 L9.1,2.4 L9.1,3.1 C9.5,2.5 10,2.3 10.6,2.3 C10.8,2.3 11,2.3 11.1,2.4 L11,3.3 L11,3.3 Z"></path>
                            <path d="M12,0.6 C12,0.4 12.1,0.3 12.2,0.2 C12.3,0.1 12.5,-1.42108547e-14 12.7,-1.42108547e-14 C12.9,-1.42108547e-14 13.1,0.1 13.2,0.2 C13.3,0.3 13.4,0.5 13.4,0.6 C13.4,0.7 13.3,0.9 13.2,1 C13.1,1.1 12.9,1.2 12.7,1.2 C12.5,1.2 12.3,1.1 12.2,1 C12.1,0.9 12,0.8 12,0.6 Z M13.2,8.6 L12.1,8.6 L12.1,2.3 L13.2,2.3 L13.2,8.6 Z"></path>
                            <path d="M15.9,2.3 L15.9,3 C16.4,2.5 17,2.2 17.8,2.2 C18.7,2.2 19.3,2.5 19.6,3.2 C19.8,2.9 20.1,2.6 20.4,2.5 C20.7,2.4 21.1,2.2 21.6,2.2 C23,2.2 23.7,2.9 23.7,4.4 L23.7,8.6 L22.6,8.6 L22.6,4.4 C22.6,3.9 22.5,3.6 22.3,3.4 C22.1,3.2 21.7,3.1 21.3,3.1 C20.9,3.1 20.6,3.2 20.3,3.5 C20,3.8 19.9,4.1 19.8,4.5 L19.8,8.7 L18.7,8.7 L18.7,4.5 C18.7,3.6 18.2,3.1 17.3,3.1 C16.6,3.1 16.1,3.4 15.8,4 L15.8,8.6 L14.7,8.6 L14.7,2.3 L15.9,2.3 L15.9,2.3 Z"></path>
                            <path d="M29.4,8.6 C29.3,8.5 29.3,8.3 29.2,7.9 C28.7,8.4 28.1,8.7 27.4,8.7 C26.8,8.7 26.3,8.5 25.9,8.2 C25.5,7.9 25.3,7.4 25.3,6.9 C25.3,6.2 25.6,5.7 26.1,5.4 C26.6,5.1 27.3,4.9 28.2,4.9 L29.3,4.9 L29.3,4.4 C29.3,4 29.2,3.7 29,3.5 C28.8,3.3 28.4,3.2 28,3.2 C27.6,3.2 27.3,3.3 27,3.5 C26.7,3.7 26.5,3.8 26.5,4.1 L25.4,4.1 C25.4,3.8 25.5,3.5 25.7,3.2 C25.9,2.9 26.2,2.7 26.6,2.5 C27,2.3 27.4,2.2 27.9,2.2 C28.6,2.2 29.2,2.4 29.6,2.7 C30,3 30.2,3.6 30.2,4.2 L30.2,7.1 C30.2,7.7 30.3,8.1 30.4,8.5 L30.4,8.6 L29.4,8.6 Z M27.6,7.8 C27.9,7.8 28.3,7.7 28.6,7.5 C28.9,7.3 29.1,7.1 29.3,6.8 L29.3,5.5 L28.5,5.5 C27.2,5.5 26.5,5.9 26.5,6.7 C26.5,7 26.6,7.3 26.8,7.5 C27,7.7 27.2,7.8 27.6,7.8 Z"></path>
                            <path d="M35,3.3 C34.8,3.3 34.7,3.3 34.5,3.3 C33.8,3.3 33.3,3.6 33.1,4.2 L33.1,8.7 L32,8.7 L32,2.4 L33.1,2.4 L33.1,3.1 C33.5,2.5 34,2.3 34.6,2.3 C34.8,2.3 35,2.3 35.1,2.4 L35,3.3 L35,3.3 Z"></path>
                            <path d="M38.1,7.1 L39.6,2.3 L40.8,2.3 L38.3,9.6 C37.9,10.7 37.3,11.2 36.4,11.2 L36.2,11.2 L35.8,11.1 L35.8,10.2 L36.1,10.2 C36.5,10.2 36.8,10.1 37,10 C37.2,9.9 37.4,9.6 37.5,9.2 L37.7,8.6 L35.4,2.3 L36.6,2.3 L38.1,7.1 Z"></path>
                        </g>
                        <g>
                            <g fill="#0E7C84">
                                <path d="M3.6,32.4 C2.2,32.4 1.1,31.3 1.1,29.9 L1.1,3.9 C1.1,2.5 2.2,1.4 3.6,1.4 L111.4,1.4 C112.8,1.4 113.9,2.5 113.9,3.9 L113.9,29.9 C113.9,31.3 112.8,32.4 111.4,32.4 L3.6,32.4 Z"></path>
                                <path d="M111.4,1.9 C112.5,1.9 113.4,2.8 113.4,3.9 L113.4,29.9 C113.4,31 112.5,31.9 111.4,31.9 L3.6,31.9 C2.5,31.9 1.6,31 1.6,29.9 L1.6,3.9 C1.6,2.8 2.5,1.9 3.6,1.9 L111.4,1.9 L111.4,1.9 Z M111.4,0.9 L3.6,0.9 C1.9,0.9 0.6,2.2 0.6,3.9 L0.6,29.9 C0.6,31.6 1.9,32.9 3.6,32.9 L111.4,32.9 C113.1,32.9 114.4,31.6 114.4,29.9 L114.4,3.9 C114.4,2.3 113,0.9 111.4,0.9 L111.4,0.9 Z"></path>
                            </g>
                            <g transform="translate(11.000000, 13.000000)" fill="#FFFFFF">
                                <path d="M0.8,10.4 L0.8,0.4 L4.2,0.4 C5.3,0.4 6.2,0.6 6.8,1.1 C7.4,1.6 7.7,2.2 7.7,3.1 C7.7,3.6 7.6,4 7.3,4.3 C7,4.6 6.7,4.9 6.2,5.1 C6.7,5.2 7.2,5.5 7.4,5.9 C7.7,6.3 7.8,6.8 7.8,7.4 C7.8,8.3 7.5,9.1 6.9,9.6 C6.3,10.1 5.4,10.4 4.3,10.4 L0.8,10.4 Z M2.5,4.6 L4.2,4.6 C4.7,4.6 5.2,4.5 5.5,4.2 C5.8,4 6,3.6 6,3.2 C6,2.7 5.9,2.4 5.6,2.1 C5.3,1.8 4.9,1.8 4.3,1.8 L2.5,1.8 L2.5,4.6 Z M2.5,5.9 L2.5,9 L4.4,9 C4.9,9 5.4,8.9 5.7,8.6 C6,8.3 6.2,8 6.2,7.5 C6.2,6.5 5.7,5.9 4.6,5.9 L2.5,5.9 Z"></path>
                                <path d="M16.9,0.4 L16.9,7.1 C16.9,8.2 16.6,9 15.9,9.6 C15.2,10.2 14.3,10.5 13.2,10.5 C12.1,10.5 11.2,10.2 10.5,9.6 C9.8,9 9.5,8.1 9.5,7.1 L9.5,0.5 L11.2,0.5 L11.2,7.2 C11.2,7.9 11.4,8.4 11.7,8.7 C12,9 12.5,9.2 13.2,9.2 C14.5,9.2 15.2,8.5 15.2,7.1 L15.2,0.5 L16.9,0.5 L16.9,0.4 L16.9,0.4 Z"></path>
                                <path d="M25.9,1.8 L22.8,1.8 L22.8,10.4 L21.1,10.4 L21.1,1.8 L18,1.8 L18,0.4 L25.9,0.4 C25.9,0.4 25.9,1.8 25.9,1.8 Z"></path>
                                <path d="M34.5,1.8 L31.4,1.8 L31.4,10.4 L29.7,10.4 L29.7,1.8 L26.6,1.8 L26.6,0.4 L34.5,0.4 C34.5,0.4 34.5,1.8 34.5,1.8 Z"></path>
                                <path d="M43.6,5.6 C43.6,6.6 43.4,7.4 43.1,8.2 C42.8,8.9 42.3,9.5 41.7,9.9 C41.1,10.3 40.4,10.5 39.5,10.5 C38.7,10.5 38,10.3 37.3,9.9 C36.7,9.5 36.2,8.9 35.8,8.2 C35.4,7.5 35.3,6.6 35.3,5.7 L35.3,5.1 C35.3,4.1 35.5,3.3 35.8,2.5 C36.1,1.7 36.6,1.2 37.3,0.8 C37.9,0.4 38.6,0.2 39.5,0.2 C40.4,0.2 41,0.4 41.7,0.8 C42.3,1.2 42.8,1.8 43.2,2.5 C43.5,3.2 43.7,4.1 43.7,5.1 L43.7,5.6 L43.6,5.6 Z M41.9,5.1 C41.9,4 41.7,3.2 41.3,2.6 C40.9,2 40.3,1.7 39.5,1.7 C38.8,1.7 38.2,2 37.7,2.6 C37.3,3.2 37.1,4 37.1,5.1 L37.1,5.7 C37.1,6.8 37.3,7.6 37.7,8.2 C38.1,8.8 38.7,9.1 39.5,9.1 C40.3,9.1 40.9,8.8 41.3,8.2 C41.7,7.6 41.9,6.8 41.9,5.6 L41.9,5.1 Z"></path>
                                <polygon points="53.2 10.4 51.5 10.4 47.1 3.3 47.1 10.4 45.4 10.4 45.4 0.4 47.1 0.4 51.6 7.5 51.6 0.4 53.3 0.4"></polygon>
                                <polygon points="65.5 1.8 62.4 1.8 62.4 10.4 60.7 10.4 60.7 1.8 57.6 1.8 57.6 0.4 65.5 0.4"></polygon>
                                <polygon points="72.6 5.9 68.5 5.9 68.5 9 73.3 9 73.3 10.4 66.8 10.4 66.8 0.4 73.3 0.4 73.3 1.8 68.6 1.8 68.6 4.5 72.7 4.5 72.7 5.9 72.6 5.9"></polygon>
                                <polygon points="78.2 4 80.3 0.4 82.3 0.4 79.3 5.3 82.4 10.3 80.4 10.3 78.3 6.6 76.2 10.3 74.2 10.3 77.3 5.3 74.3 0.4 76.3 0.4"></polygon>
                                <polygon points="90.8 1.8 87.7 1.8 87.7 10.4 86 10.4 86 1.8 82.9 1.8 82.9 0.4 90.8 0.4"></polygon>
                            </g>
                        </g>
                    </g>
                    <g transform="translate(728.000000, 53.000000)" id="Shape">
                        <g transform="translate(12.000000, 0.000000)" fill="#616161">
                            <g>
                                <path d="M0,10.3 L0,0.3 L3.4,0.3 C4.5,0.3 5.4,0.5 6,1 C6.6,1.5 6.9,2.1 6.9,3 C6.9,3.5 6.8,3.9 6.5,4.2 C6.2,4.5 5.9,4.8 5.4,5 C5.9,5.1 6.4,5.4 6.6,5.8 C6.9,6.2 7,6.7 7,7.3 C7,8.2 6.7,9 6.1,9.5 C5.5,10 4.6,10.3 3.5,10.3 L0,10.3 Z M1.8,4.5 L3.5,4.5 C4,4.5 4.5,4.4 4.8,4.1 C5.1,3.9 5.3,3.5 5.3,3.1 C5.3,2.6 5.2,2.3 4.9,2 C4.6,1.7 4.2,1.7 3.6,1.7 L1.9,1.7 L1.8,4.5 L1.8,4.5 Z M1.8,5.8 L1.8,8.9 L3.7,8.9 C4.2,8.9 4.7,8.8 5,8.5 C5.3,8.2 5.5,7.9 5.5,7.4 C5.5,6.4 5,5.8 3.9,5.8 L1.8,5.8 Z"></path>
                                <path d="M16.2,0.4 L16.2,7 C16.2,8.1 15.9,8.9 15.2,9.5 C14.5,10.1 13.6,10.4 12.5,10.4 C11.4,10.4 10.5,10.1 9.8,9.5 C9.1,8.9 8.8,8 8.8,7 L8.8,0.4 L10.5,0.4 L10.5,7 C10.5,7.7 10.7,8.2 11,8.5 C11.3,8.9 11.8,9 12.5,9 C13.8,9 14.5,8.3 14.5,6.9 L14.5,0.3 L16.2,0.4 L16.2,0.4 Z"></path>
                                <polygon points="25.2 1.7 22.1 1.7 22.1 10.3 20.4 10.3 20.4 1.7 17.3 1.7 17.3 0.3 25.2 0.3"></polygon>
                                <polygon points="33.8 1.7 30.7 1.7 30.7 10.3 29 10.3 29 1.7 25.9 1.7 25.9 0.3 33.8 0.3"></polygon>
                                <path d="M42.9,5.6 C42.9,6.6 42.7,7.4 42.4,8.2 C42.1,8.9 41.6,9.5 41,9.9 C40.4,10.3 39.7,10.5 38.8,10.5 C38,10.5 37.3,10.3 36.6,9.9 C36,9.5 35.5,8.9 35.1,8.2 C34.7,7.5 34.6,6.6 34.6,5.7 L34.6,5.1 C34.6,4.1 34.8,3.3 35.1,2.5 C35.4,1.7 35.9,1.2 36.6,0.8 C37.2,0.4 37.9,0.2 38.8,0.2 C39.6,0.2 40.3,0.4 41,0.8 C41.6,1.2 42.1,1.8 42.5,2.5 C42.8,3.2 43,4.1 43,5.1 L42.9,5.6 L42.9,5.6 Z M41.1,5.1 C41.1,4 40.9,3.2 40.5,2.6 C40.1,2 39.5,1.7 38.7,1.7 C38,1.7 37.4,2 36.9,2.6 C36.5,3.2 36.3,4 36.3,5.1 L36.3,5.7 C36.3,6.8 36.5,7.6 36.9,8.2 C37.3,8.8 37.9,9.1 38.7,9.1 C39.5,9.1 40.1,8.8 40.5,8.2 C40.9,7.6 41.1,6.8 41.1,5.6 L41.1,5.1 Z"></path>
                                <polygon points="52.5 10.3 50.8 10.3 46.4 3.2 46.4 10.3 44.7 10.3 44.7 0.3 46.4 0.3 50.9 7.4 50.9 0.3 52.6 0.3"></polygon>
                                <polygon points="64.8 1.7 61.7 1.7 61.7 10.3 60 10.3 60 1.7 56.9 1.7 56.9 0.3 64.8 0.3"></polygon>
                                <polygon points="71.9 5.9 67.8 5.9 67.8 9 72.6 9 72.6 10.4 66.1 10.4 66.1 0.4 72.6 0.4 72.6 1.8 67.9 1.8 67.9 4.5 72 4.5"></polygon>
                                <polygon points="77.4 3.9 79.5 0.3 81.5 0.3 78.5 5.2 81.6 10.2 79.6 10.2 77.5 6.5 75.4 10.2 73.4 10.2 76.5 5.2 73.5 0.3 75.5 0.3"></polygon>
                                <polygon points="90.1 1.7 87 1.7 87 10.3 85.2 10.3 85.2 1.7 82.2 1.7 82.2 0.3 90.1 0.3"></polygon>
                            </g>
                        </g>
                        <g transform="translate(0.000000, 30.000000)" fill="#9E9E9E">
                            <polygon points="7 1.4 4.2 1.4 4.2 9 3.1 9 3.1 1.4 0.4 1.4 0.4 0.5 7 0.5"></polygon>
                            <path d="M10.7,9.1 C9.8,9.1 9.1,8.8 8.6,8.3 C8.1,7.7 7.8,7 7.8,6 L7.8,5.8 C7.8,5.2 7.9,4.6 8.2,4.1 C8.5,3.6 8.8,3.2 9.2,2.9 C9.6,2.6 10.1,2.5 10.6,2.5 C11.4,2.5 12.1,2.8 12.5,3.3 C12.9,3.8 13.2,4.6 13.2,5.6 L13.2,6.1 L8.9,6.1 C8.9,6.7 9.1,7.2 9.4,7.6 C9.7,8 10.2,8.2 10.7,8.2 C11.1,8.2 11.4,8.1 11.7,8 C12,7.9 12.2,7.6 12.4,7.4 L13.1,7.9 C12.5,8.7 11.8,9.1 10.7,9.1 Z M10.6,3.4 C10.2,3.4 9.8,3.6 9.5,3.9 C9.2,4.2 9,4.7 8.9,5.2 L12.1,5.2 L12.1,5.1 C12.1,4.5 11.9,4.1 11.7,3.8 C11.5,3.5 11,3.4 10.6,3.4 Z"></path>
                            <path d="M17.5,3.6 C17.3,3.6 17.2,3.6 17,3.6 C16.3,3.6 15.8,3.9 15.6,4.5 L15.6,9 L14.5,9 L14.5,2.7 L15.6,2.7 L15.6,3.4 C16,2.8 16.5,2.6 17.1,2.6 C17.3,2.6 17.5,2.6 17.6,2.7 L17.5,3.6 L17.5,3.6 Z"></path>
                            <path d="M20.2,1.1 L20.2,2.6 L21.4,2.6 L21.4,3.4 L20.2,3.4 L20.2,7.3 C20.2,7.6 20.3,7.7 20.4,7.9 C20.5,8 20.7,8.1 20.9,8.1 C21,8.1 21.2,8.1 21.4,8 L21.4,9 C21.1,9.1 20.8,9.1 20.6,9.1 C20.1,9.1 19.8,9 19.5,8.7 C19.2,8.4 19.1,8 19.1,7.5 L19.1,3.6 L17.9,3.6 L17.9,2.8 L19.1,2.8 L19.1,1.3 L20.2,1.3 L20.2,1.1 L20.2,1.1 Z"></path>
                            <path d="M22.7,0.9 C22.7,0.7 22.8,0.6 22.9,0.5 C23,0.4 23.2,0.3 23.4,0.3 C23.6,0.3 23.8,0.4 23.9,0.5 C24,0.6 24.1,0.8 24.1,0.9 C24.1,1 24,1.2 23.9,1.3 C23.8,1.4 23.6,1.5 23.4,1.5 C23.2,1.5 23,1.4 22.9,1.3 C22.8,1.2 22.7,1.1 22.7,0.9 Z M23.9,9 L22.8,9 L22.8,2.7 L23.9,2.7 L23.9,9 Z"></path>
                            <path d="M29.5,9 C29.4,8.9 29.4,8.7 29.3,8.3 C28.8,8.8 28.2,9.1 27.5,9.1 C26.9,9.1 26.4,8.9 26,8.6 C25.6,8.3 25.4,7.8 25.4,7.3 C25.4,6.6 25.7,6.1 26.2,5.8 C26.7,5.5 27.4,5.3 28.3,5.3 L29.4,5.3 L29.4,4.8 C29.4,4.4 29.3,4.1 29.1,3.9 C28.9,3.7 28.5,3.6 28.1,3.6 C27.7,3.6 27.4,3.7 27.1,3.9 C26.8,4.1 26.7,4.3 26.7,4.6 L25.6,4.6 C25.6,4.3 25.7,4 25.9,3.7 C26.1,3.4 26.4,3.2 26.8,3 C27.2,2.8 27.6,2.7 28.1,2.7 C28.8,2.7 29.4,2.9 29.8,3.2 C30.2,3.5 30.4,4.1 30.4,4.7 L30.4,7.6 C30.4,8.2 30.5,8.6 30.6,9 L30.6,9 L29.5,9 Z M27.7,8.1 C28,8.1 28.4,8 28.7,7.8 C29,7.6 29.2,7.4 29.4,7.1 L29.4,5.8 L28.6,5.8 C27.3,5.8 26.6,6.2 26.6,7 C26.6,7.3 26.7,7.6 26.9,7.8 C27.1,8 27.4,8.1 27.7,8.1 Z"></path>
                            <path d="M35.2,3.6 C35,3.6 34.9,3.6 34.7,3.6 C34,3.6 33.5,3.9 33.3,4.5 L33.3,9 L32.2,9 L32.2,2.7 L33.3,2.7 L33.3,3.4 C33.7,2.8 34.2,2.6 34.8,2.6 C35,2.6 35.2,2.6 35.3,2.7 L35.2,3.6 L35.2,3.6 Z"></path>
                            <path d="M38.3,7.4 L39.8,2.6 L41,2.6 L38.5,9.9 C38.1,11 37.5,11.5 36.6,11.5 L36.4,11.5 L36,11.4 L36,10.5 L36.3,10.5 C36.7,10.5 37,10.4 37.2,10.3 C37.4,10.2 37.6,9.9 37.7,9.5 L37.9,8.9 L35.6,2.6 L36.8,2.6 L38.3,7.4 Z"></path>
                        </g>
                    </g>
                    <g transform="translate(373.000000, 42.000000)" id="Shape">
                        <g transform="translate(1.000000, 41.000000)" fill="#9E9E9E">
                            <path d="M3.1,5.5 C2.1,5.2 1.4,4.9 1,4.5 C0.6,4.1 0.4,3.6 0.4,3 C0.4,2.3 0.7,1.8 1.2,1.3 C1.7,0.8 2.4,0.6 3.3,0.6 C3.9,0.6 4.4,0.7 4.9,0.9 C5.4,1.1 5.7,1.4 6,1.8 C6.3,2.2 6.4,2.6 6.4,3.1 L5.3,3.1 C5.3,2.6 5.1,2.2 4.8,1.9 C4.5,1.6 4,1.5 3.4,1.5 C2.8,1.5 2.4,1.6 2.1,1.9 C1.8,2.1 1.6,2.5 1.6,2.9 C1.6,3.2 1.7,3.5 2,3.8 C2.3,4 2.8,4.3 3.5,4.5 C4.2,4.7 4.8,4.9 5.2,5.2 C5.6,5.5 5.9,5.7 6.1,6 C6.3,6.3 6.4,6.7 6.4,7.1 C6.4,7.8 6.1,8.3 5.6,8.8 C5.1,9.3 4.3,9.4 3.4,9.4 C2.8,9.4 2.3,9.3 1.8,9.1 C1.3,8.9 0.9,8.6 0.6,8.2 C0.3,7.8 0.2,7.4 0.2,6.9 L1.3,6.9 C1.3,7.4 1.5,7.8 1.9,8.1 C2.3,8.4 2.8,8.5 3.4,8.5 C4,8.5 4.4,8.4 4.8,8.1 C5.2,7.8 5.3,7.5 5.3,7.1 C5.3,6.7 5.2,6.4 4.9,6.1 C4.6,5.8 3.9,5.7 3.1,5.5 Z"></path>
                            <path d="M10.2,9.4 C9.3,9.4 8.6,9.1 8.1,8.6 C7.6,8.1 7.3,7.3 7.3,6.3 L7.3,6.1 C7.3,5.5 7.4,4.9 7.7,4.4 C8,3.9 8.3,3.5 8.7,3.2 C9.1,2.9 9.6,2.8 10.1,2.8 C10.9,2.8 11.6,3.1 12,3.6 C12.4,4.1 12.7,4.9 12.7,5.9 L12.7,6.4 L8.4,6.4 C8.4,7 8.6,7.5 8.9,7.9 C9.2,8.3 9.7,8.5 10.2,8.5 C10.6,8.5 10.9,8.4 11.2,8.3 C11.5,8.2 11.7,7.9 11.9,7.7 L12.6,8.2 C12,9 11.3,9.4 10.2,9.4 Z M10.1,3.7 C9.7,3.7 9.3,3.9 9,4.2 C8.7,4.5 8.5,5 8.4,5.5 L11.6,5.5 L11.6,5.4 C11.6,4.8 11.4,4.4 11.2,4.1 C11,3.8 10.5,3.7 10.1,3.7 Z"></path>
                            <path d="M16.5,8.5 C16.9,8.5 17.2,8.4 17.5,8.1 C17.8,7.8 17.9,7.6 18,7.2 L19,7.2 C19,7.6 18.9,7.9 18.6,8.2 C18.3,8.5 18.1,8.8 17.7,9 C17.3,9.2 16.9,9.3 16.5,9.3 C15.6,9.3 15,9 14.4,8.4 C13.8,7.8 13.6,7 13.6,6 L13.6,6 C13.6,5.4 13.7,4.8 13.9,4.4 C14.1,4 14.5,3.5 14.9,3.3 C15.3,3.1 15.8,2.9 16.4,2.9 C17.1,2.9 17.7,3.1 18.2,3.5 C18.7,3.9 18.9,4.5 19,5.2 L18,5.2 C18,4.8 17.8,4.5 17.5,4.2 C17.2,3.9 16.9,3.8 16.5,3.8 C15.9,3.8 15.5,4 15.2,4.4 C14.9,4.8 14.7,5.4 14.7,6.1 L14.7,6.3 C14.7,7 14.9,7.6 15.2,8 C15.5,8.4 15.9,8.5 16.5,8.5 Z"></path>
                            <path d="M19.9,6.1 C19.9,5.5 20,4.9 20.3,4.4 C20.6,3.9 20.9,3.5 21.3,3.3 C21.7,3.1 22.2,2.9 22.8,2.9 C23.7,2.9 24.4,3.2 24.9,3.8 C25.4,4.4 25.7,5.2 25.7,6.2 L25.7,6.3 C25.7,6.9 25.6,7.5 25.3,8 C25,8.5 24.7,8.9 24.3,9.1 C23.9,9.3 23.4,9.5 22.8,9.5 C21.9,9.5 21.2,9.2 20.7,8.6 C20.2,8 19.9,7.1 19.9,6.1 L19.9,6.1 Z M21,6.2 C21,6.9 21.2,7.5 21.5,7.9 C21.8,8.3 22.3,8.5 22.8,8.5 C23.4,8.5 23.8,8.3 24.1,7.9 C24.4,7.5 24.6,6.9 24.6,6.1 C24.6,5.4 24.4,4.8 24.1,4.4 C23.8,4 23.3,3.8 22.8,3.8 C22.3,3.8 21.8,4 21.5,4.4 C21.2,4.8 21,5.4 21,6.2 Z"></path>
                            <path d="M28.1,3 L28.1,3.8 C28.6,3.2 29.2,2.9 30,2.9 C31.3,2.9 32,3.7 32,5.2 L32,9.4 L30.9,9.4 L30.9,5.2 C30.9,4.7 30.8,4.4 30.6,4.2 C30.4,4 30.1,3.9 29.6,3.9 C29.2,3.9 28.9,4 28.7,4.2 C28.5,4.4 28.2,4.6 28.1,4.9 L28.1,9.4 L27,9.4 L27,3 L28.1,3 Z"></path>
                            <path d="M33.4,6.1 C33.4,5.1 33.6,4.3 34.1,3.8 C34.6,3.3 35.2,2.9 35.9,2.9 C36.6,2.9 37.2,3.2 37.7,3.7 L37.7,0.4 L38.8,0.4 L38.8,9.4 L37.8,9.4 L37.7,8.7 C37.3,9.2 36.7,9.5 35.9,9.5 C35.2,9.5 34.6,9.2 34.1,8.6 C33.6,8 33.4,7.1 33.4,6.1 L33.4,6.1 Z M34.5,6.2 C34.5,6.9 34.6,7.5 34.9,7.9 C35.2,8.3 35.6,8.5 36.1,8.5 C36.8,8.5 37.3,8.2 37.6,7.6 L37.6,4.7 C37.3,4.1 36.8,3.8 36.1,3.8 C35.6,3.8 35.2,4 34.9,4.4 C34.6,4.8 34.5,5.4 34.5,6.2 Z"></path>
                            <path d="M44.3,9.3 C44.2,9.2 44.2,9 44.1,8.6 C43.6,9.1 43,9.4 42.3,9.4 C41.7,9.4 41.2,9.2 40.8,8.9 C40.4,8.6 40.2,8.1 40.2,7.6 C40.2,6.9 40.5,6.4 41,6.1 C41.5,5.8 42.2,5.6 43.1,5.6 L44.2,5.6 L44.2,5 C44.2,4.6 44.1,4.3 43.9,4.1 C43.7,3.9 43.3,3.8 42.9,3.8 C42.5,3.8 42.2,3.9 41.9,4.1 C41.6,4.3 41.5,4.5 41.5,4.8 L40.4,4.8 C40.4,4.5 40.5,4.2 40.7,3.9 C40.9,3.6 41.2,3.4 41.6,3.2 C42,3 42.4,2.9 42.9,2.9 C43.6,2.9 44.2,3.1 44.6,3.4 C45,3.7 45.2,4.3 45.2,4.9 L45.2,7.8 C45.2,8.4 45.3,8.8 45.4,9.2 L45.4,9.3 C45.4,9.3 44.3,9.3 44.3,9.3 Z M42.5,8.5 C42.8,8.5 43.2,8.4 43.5,8.2 C43.8,8 44,7.8 44.2,7.5 L44.2,6.2 L43.4,6.2 C42.1,6.2 41.4,6.6 41.4,7.4 C41.4,7.7 41.5,8 41.7,8.2 C41.9,8.4 42.2,8.5 42.5,8.5 Z"></path>
                            <path d="M50,3.9 C49.8,3.9 49.7,3.9 49.5,3.9 C48.8,3.9 48.3,4.2 48.1,4.8 L48.1,9.3 L47,9.3 L47,3 L48.1,3 L48.1,3.7 C48.5,3.1 49,2.9 49.6,2.9 C49.8,2.9 50,2.9 50.1,3 L50.1,3.9 L50,3.9 Z"></path>
                            <path d="M53.1,7.7 L54.6,2.9 L55.8,2.9 L53.3,10.2 C52.9,11.3 52.3,11.8 51.4,11.8 L51.2,11.8 L50.8,11.7 L50.8,10.8 L51.1,10.8 C51.5,10.8 51.8,10.7 52,10.6 C52.2,10.5 52.4,10.2 52.5,9.8 L52.7,9.2 L50.4,2.9 L51.6,2.9 L53.1,7.7 Z"></path>
                        </g>
                        <g>
                            <path d="M111.5,1.7 C112.6,1.7 113.4,2.6 113.4,3.6 L113.4,27.8 C113.4,28.9 112.5,29.7 111.5,29.7 L3.5,29.7 C2.4,29.7 1.6,28.8 1.6,27.8 L1.6,3.6 C1.6,2.5 2.5,1.7 3.5,1.7 L111.5,1.7 L111.5,1.7 Z M111.5,0.7 L3.5,0.7 C1.9,0.7 0.6,2 0.6,3.6 L0.6,27.8 C0.6,29.4 1.9,30.7 3.5,30.7 L111.5,30.7 C113.1,30.7 114.4,29.4 114.4,27.8 L114.4,3.6 C114.4,2 113.1,0.7 111.5,0.7 L111.5,0.7 Z" fill="#117C84"></path>
                            <g transform="translate(11.000000, 11.000000)" fill="#0E7C84">
                                <path d="M0.8,10.1 L0.8,0.1 L4.2,0.1 C5.3,0.1 6.2,0.3 6.8,0.8 C7.4,1.3 7.7,1.9 7.7,2.8 C7.7,3.3 7.6,3.7 7.3,4 C7,4.3 6.7,4.6 6.2,4.8 C6.7,4.9 7.2,5.2 7.4,5.6 C7.7,6 7.8,6.5 7.8,7.1 C7.8,8 7.5,8.8 6.9,9.3 C6.3,9.8 5.4,10.1 4.3,10.1 L0.8,10.1 Z M2.6,4.3 L4.3,4.3 C4.8,4.3 5.3,4.2 5.6,3.9 C5.9,3.7 6.1,3.3 6.1,2.9 C6.1,2.4 6,2.1 5.7,1.8 C5.4,1.5 5,1.5 4.4,1.5 L2.7,1.5 L2.7,4.3 L2.6,4.3 Z M2.6,5.6 L2.6,8.7 L4.5,8.7 C5,8.7 5.5,8.6 5.8,8.3 C6.1,8 6.3,7.7 6.3,7.2 C6.3,6.2 5.8,5.6 4.7,5.6 L2.6,5.6 Z"></path>
                                <path d="M16.9,0.1 L16.9,6.8 C16.9,7.9 16.6,8.7 15.9,9.3 C15.2,9.9 14.3,10.2 13.2,10.2 C12.1,10.2 11.2,9.9 10.5,9.3 C9.8,8.7 9.5,7.8 9.5,6.8 L9.5,0.2 L11.2,0.2 L11.2,6.9 C11.2,7.6 11.4,8.1 11.7,8.4 C12,8.8 12.5,8.9 13.2,8.9 C14.5,8.9 15.2,8.2 15.2,6.8 L15.2,0.2 L16.9,0.2 L16.9,0.1 Z"></path>
                                <polygon points="26 1.5 22.9 1.5 22.9 10.1 21.2 10.1 21.2 1.5 18.1 1.5 18.1 0.1 26 0.1 26 1.5"></polygon>
                                <polygon points="34.6 1.5 31.5 1.5 31.5 10.1 29.8 10.1 29.8 1.5 26.7 1.5 26.7 0.1 34.6 0.1"></polygon>
                                <path d="M43.6,5.4 C43.6,6.4 43.4,7.2 43.1,8 C42.8,8.7 42.3,9.3 41.7,9.7 C41.1,10.1 40.4,10.3 39.5,10.3 C38.7,10.3 38,10.1 37.3,9.7 C36.7,9.3 36.2,8.7 35.8,8 C35.5,7.3 35.3,6.4 35.3,5.5 L35.3,4.9 C35.3,3.9 35.5,3.1 35.8,2.3 C36.1,1.6 36.6,1 37.3,0.6 C37.9,0.2 38.6,1.42108547e-14 39.5,1.42108547e-14 C40.3,1.42108547e-14 41,0.2 41.7,0.6 C42.3,1 42.8,1.6 43.2,2.3 C43.5,3 43.7,3.9 43.7,4.9 L43.6,5.4 L43.6,5.4 Z M41.9,4.9 C41.9,3.8 41.7,3 41.3,2.4 C40.9,1.8 40.3,1.5 39.5,1.5 C38.8,1.5 38.2,1.8 37.7,2.4 C37.3,3 37.1,3.8 37.1,4.9 L37.1,5.5 C37.1,6.6 37.3,7.4 37.7,8 C38.1,8.6 38.7,8.9 39.5,8.9 C40.3,8.9 40.9,8.6 41.3,8 C41.7,7.4 41.9,6.6 41.9,5.4 L41.9,4.9 Z"></path>
                                <polygon points="53.3 10.1 51.6 10.1 47.2 3 47.2 10.1 45.4 10.1 45.4 0.1 47.1 0.1 51.6 7.2 51.6 0.1 53.3 0.1"></polygon>
                                <polygon points="65.6 1.5 62.5 1.5 62.5 10.1 60.8 10.1 60.8 1.5 57.7 1.5 57.7 0.1 65.6 0.1 65.6 1.5"></polygon>
                                <polygon points="72.7 5.6 68.6 5.6 68.6 8.7 73.4 8.7 73.4 10.1 66.9 10.1 66.9 0.1 73.4 0.1 73.4 1.5 68.7 1.5 68.7 4.2 72.8 4.2"></polygon>
                                <polygon points="78.2 3.7 80.3 0.1 82.3 0.1 79.3 5 82.4 10 80.4 10 78.3 6.3 76.2 10 74.2 10 77.3 5 74.3 0.1 76.3 0.1"></polygon>
                                <polygon points="90.9 1.5 87.8 1.5 87.8 10.1 86.1 10.1 86.1 1.5 83 1.5 83 0.1 90.9 0.1"></polygon>
                            </g>
                        </g>
                    </g>
                    <g id="Shape" fill="#424242">
                        <path d="M0.9,12.1 L0.9,0.7 L4.6,0.7 C5.8,0.7 6.8,1 7.4,1.5 C8,2 8.3,2.8 8.3,3.8 C8.3,4.3 8.1,4.8 7.8,5.2 C7.5,5.6 7.1,5.9 6.6,6.1 C7.2,6.3 7.7,6.6 8.1,7.1 C8.5,7.6 8.6,8.2 8.6,8.8 C8.6,9.8 8.3,10.6 7.6,11.2 C6.9,11.8 6,12.1 4.8,12.1 L0.9,12.1 L0.9,12.1 Z M2.4,5.5 L4.7,5.5 C5.4,5.5 5.9,5.3 6.3,5 C6.7,4.7 6.9,4.2 6.9,3.7 C6.9,3.1 6.7,2.6 6.4,2.3 C6,2 5.5,1.9 4.7,1.9 L2.5,1.9 L2.5,5.5 L2.4,5.5 Z M2.4,6.7 L2.4,10.8 L4.9,10.8 C5.6,10.8 6.1,10.6 6.6,10.3 C7,9.9 7.2,9.4 7.2,8.8 C7.2,7.4 6.5,6.7 5,6.7 L2.4,6.7 Z"></path>
                        <path d="M15.8,12.1 C15.7,11.9 15.6,11.6 15.6,11.2 C14.9,11.9 14.1,12.2 13.2,12.2 C12.4,12.2 11.7,12 11.1,11.5 C10.6,11 10.3,10.4 10.3,9.7 C10.3,8.8 10.6,8.1 11.3,7.6 C12,7.1 12.9,6.9 14.1,6.9 L15.5,6.9 L15.5,6.2 C15.5,5.7 15.3,5.3 15,5 C14.7,4.7 14.3,4.6 13.7,4.6 C13.2,4.6 12.8,4.7 12.4,5 C12.1,5.3 11.9,5.6 11.9,5.9 L10.4,5.9 C10.4,5.5 10.5,5.1 10.8,4.7 C11.1,4.3 11.5,4 12,3.8 C12.5,3.6 13.1,3.5 13.7,3.5 C14.7,3.5 15.4,3.7 16,4.2 C16.6,4.7 16.8,5.4 16.9,6.2 L16.9,10.1 C16.9,10.9 17,11.5 17.2,12 L17.2,12.1 L15.8,12.1 L15.8,12.1 Z M13.4,10.9 C13.9,10.9 14.3,10.8 14.7,10.5 C15.1,10.2 15.4,10 15.6,9.6 L15.6,7.9 L14.5,7.9 C12.7,7.9 11.8,8.4 11.8,9.5 C11.8,10 12,10.3 12.3,10.6 C12.6,10.8 13,10.9 13.4,10.9 Z"></path>
                        <path d="M24.2,9.8 C24.2,9.4 24.1,9.1 23.8,8.9 C23.5,8.7 23,8.5 22.3,8.3 C21.6,8.1 21,8 20.6,7.7 C20.2,7.4 19.9,7.2 19.6,6.9 C19.4,6.6 19.3,6.2 19.3,5.8 C19.3,5.1 19.6,4.5 20.2,4 C20.8,3.5 21.5,3.3 22.4,3.3 C23.4,3.3 24.1,3.5 24.7,4 C25.3,4.5 25.6,5.1 25.6,5.9 L24.1,5.9 C24.1,5.5 23.9,5.2 23.6,4.9 C23.3,4.6 22.8,4.5 22.3,4.5 C21.8,4.5 21.4,4.6 21.1,4.8 C20.8,5 20.7,5.3 20.7,5.7 C20.7,6 20.8,6.3 21.1,6.5 C21.4,6.7 21.9,6.8 22.6,7 C23.3,7.2 23.9,7.4 24.4,7.6 C24.8,7.8 25.2,8.1 25.4,8.4 C25.6,8.7 25.7,9.1 25.7,9.6 C25.7,10.4 25.4,11 24.8,11.4 C24.2,11.9 23.4,12.1 22.4,12.1 C21.7,12.1 21.1,12 20.6,11.7 C20.1,11.5 19.7,11.1 19.4,10.7 C19.1,10.3 19,9.8 19,9.3 L20.4,9.3 C20.4,9.8 20.6,10.2 21,10.5 C21.4,10.8 21.8,10.9 22.4,10.9 C22.9,10.9 23.4,10.8 23.7,10.6 C24.1,10.5 24.2,10.2 24.2,9.8 Z"></path>
                        <path d="M27.6,1.4 C27.6,1.2 27.7,1 27.8,0.8 C27.9,0.6 28.2,0.6 28.4,0.6 C28.6,0.6 28.9,0.7 29,0.8 C29.1,1 29.2,1.2 29.2,1.4 C29.2,1.6 29.1,1.8 29,2 C28.9,2.2 28.6,2.2 28.4,2.2 C28.2,2.2 27.9,2.1 27.8,2 C27.6,1.8 27.6,1.6 27.6,1.4 Z M29.1,12.1 L27.7,12.1 L27.7,3.6 L29.1,3.6 L29.1,12.1 Z"></path>
                        <path d="M34.8,11 C35.3,11 35.8,10.8 36.2,10.5 C36.6,10.2 36.8,9.8 36.8,9.3 L38.2,9.3 C38.2,9.8 38,10.2 37.7,10.7 C37.4,11.1 37,11.5 36.5,11.7 C36,12 35.4,12.1 34.9,12.1 C33.7,12.1 32.8,11.7 32.2,10.9 C31.6,10.1 31.2,9.1 31.2,7.7 L31.2,7.5 C31.2,6.7 31.4,5.9 31.7,5.3 C32,4.7 32.4,4.2 33,3.8 C33.6,3.4 34.2,3.3 35,3.3 C35.9,3.3 36.7,3.6 37.4,4.2 C38,4.8 38.4,5.5 38.4,6.4 L37,6.4 C37,5.9 36.8,5.4 36.4,5.1 C36,4.7 35.6,4.6 35,4.6 C34.3,4.6 33.7,4.9 33.3,5.4 C32.9,5.9 32.7,6.7 32.7,7.7 L32.7,8 C32.7,9 32.9,9.7 33.3,10.2 C33.5,10.8 34.1,11 34.8,11 Z"></path>
                    </g>
                    <g transform="translate(0.000000, 172.000000)" id="Shape">
                        <path d="M127.3,30.1 L2.7,30.1 C1.5,30.1 0.6,29.1 0.6,28 L0.6,2.3 C0.6,1.1 1.6,0.2 2.7,0.2 L127.2,0.2 C128.4,0.2 129.3,1.2 129.3,2.3 L129.3,28 C129.4,29.1 128.5,30.1 127.3,30.1 Z" fill="#0D7580"></path>
                        <g transform="translate(12.000000, 10.000000)" fill="#FFFFFF">
                            <path d="M0.2,10.5 L0.2,0.5 L3.6,0.5 C4.7,0.5 5.6,0.7 6.2,1.2 C6.8,1.7 7.1,2.3 7.1,3.2 C7.1,3.7 7,4.1 6.7,4.4 C6.4,4.7 6.1,5 5.6,5.2 C6.1,5.3 6.6,5.6 6.8,6 C7.1,6.4 7.2,6.9 7.2,7.5 C7.2,8.4 6.9,9.2 6.3,9.7 C5.7,10.2 4.8,10.5 3.7,10.5 L0.2,10.5 Z M2,4.8 L3.7,4.8 C4.2,4.8 4.7,4.7 5,4.4 C5.3,4.2 5.5,3.8 5.5,3.4 C5.5,2.9 5.4,2.6 5.1,2.3 C4.8,2 4.4,2 3.8,2 L2,2 L2,4.8 Z M2,6 L2,9.1 L3.9,9.1 C4.4,9.1 4.9,9 5.2,8.7 C5.5,8.4 5.7,8.1 5.7,7.6 C5.7,6.6 5.2,6 4.1,6 L2,6 Z"></path>
                            <path d="M16.3,0.6 L16.3,7.3 C16.3,8.4 16,9.2 15.3,9.8 C14.6,10.4 13.7,10.7 12.6,10.7 C11.5,10.7 10.6,10.4 9.9,9.8 C9.2,9.2 8.9,8.3 8.9,7.3 L8.9,0.7 L10.6,0.7 L10.6,7.4 C10.6,8.1 10.8,8.6 11.1,8.9 C11.4,9.3 11.9,9.4 12.6,9.4 C13.9,9.4 14.6,8.7 14.6,7.3 L14.6,0.7 L16.3,0.7 L16.3,0.6 Z"></path>
                            <polygon points="25.4 2 22.3 2 22.3 10.6 20.6 10.6 20.6 2 17.5 2 17.5 0.6 25.4 0.6 25.4 2"></polygon>
                            <polygon points="34 2 30.9 2 30.9 10.6 29.2 10.6 29.2 2 26.1 2 26.1 0.6 34 0.6 34 2"></polygon>
                            <path d="M43,5.8 C43,6.8 42.8,7.6 42.5,8.4 C42.2,9.1 41.7,9.7 41.1,10.1 C40.5,10.5 39.8,10.7 38.9,10.7 C38.1,10.7 37.4,10.5 36.7,10.1 C36.1,9.7 35.6,9.1 35.2,8.4 C34.9,7.7 34.7,6.8 34.7,5.9 L34.7,5.3 C34.7,4.3 34.9,3.5 35.2,2.7 C35.5,2 36,1.4 36.7,1 C37.3,0.6 38,0.4 38.9,0.4 C39.7,0.4 40.4,0.6 41.1,1 C41.7,1.4 42.2,2 42.6,2.7 C42.9,3.4 43.1,4.3 43.1,5.3 L43.1,5.8 L43,5.8 Z M41.3,5.3 C41.3,4.2 41.1,3.4 40.7,2.8 C40.3,2.2 39.7,1.9 38.9,1.9 C38.2,1.9 37.6,2.2 37.1,2.8 C36.7,3.4 36.5,4.2 36.5,5.3 L36.5,5.9 C36.5,7 36.7,7.8 37.1,8.4 C37.5,9 38.1,9.3 38.9,9.3 C39.7,9.3 40.3,9 40.7,8.4 C41.1,7.8 41.3,7 41.3,5.8 L41.3,5.3 Z"></path>
                            <polygon points="52.7 10.5 51 10.5 46.6 3.4 46.6 10.5 44.9 10.5 44.9 0.5 46.6 0.5 51.1 7.6 51.1 0.5 52.8 0.5 52.8 10.5"></polygon>
                            <polygon points="65 2 61.9 2 61.9 10.6 60.2 10.6 60.2 2 57.1 2 57.1 0.6 65 0.6 65 2"></polygon>
                            <polygon points="72.1 6.1 68 6.1 68 9.2 72.8 9.2 72.8 10.6 66.3 10.6 66.3 0.6 72.8 0.6 72.8 2 68 2 68 4.7 72.1 4.7"></polygon>
                            <polygon points="77.6 4.2 79.7 0.6 81.7 0.6 78.7 5.5 81.8 10.5 79.8 10.5 77.7 6.8 75.6 10.5 73.6 10.5 76.7 5.5 73.7 0.6 75.7 0.6"></polygon>
                            <polygon points="90.2 2 87.1 2 87.1 10.6 85.4 10.6 85.4 2 82.3 2 82.3 0.6 90.2 0.6 90.2 2"></polygon>
                        </g>
                        <path d="M111.5,14.3 L114,16.8 C114.1,16.9 114.3,17 114.5,17 C114.7,17 114.9,16.9 115,16.8 L117.5,14.3 C117.6,14.2 117.7,14 117.7,13.8 C117.7,13.6 117.6,13.4 117.5,13.3 C117.4,13.2 117.2,13.1 117,13.1 C116.8,13.1 116.6,13.2 116.5,13.3 L114.5,15.3 L112.5,13.3 C112.4,13.2 112.2,13.1 112,13.1 C111.8,13.1 111.6,13.2 111.5,13.3 C111.4,13.4 111.3,13.6 111.3,13.8 C111.3,14 111.4,14.1 111.5,14.3 Z" fill="#FFFFFF"></path>
                        <g transform="translate(1.000000, 41.000000)" fill="#9E9E9E">
                            <path d="M1.8,6 L1.8,9.3 L0.7,9.3 L0.7,0.8 L3.8,0.8 C4.7,0.8 5.5,1 6,1.5 C6.5,2 6.8,2.6 6.8,3.4 C6.8,4.2 6.5,4.9 6,5.3 C5.5,5.7 4.7,6 3.8,6 L1.8,6 L1.8,6 Z M1.8,5.1 L3.8,5.1 C4.4,5.1 4.9,5 5.2,4.7 C5.5,4.4 5.7,4 5.7,3.5 C5.7,3 5.5,2.6 5.2,2.3 C4.9,2 4.4,1.8 3.9,1.8 L1.8,1.8 L1.8,5.1 L1.8,5.1 Z"></path>
                            <path d="M11.2,4 C11,4 10.9,4 10.7,4 C10,4 9.5,4.3 9.3,4.9 L9.3,9.4 L8.2,9.4 L8.2,3 L9.3,3 L9.3,3.7 C9.7,3.1 10.2,2.9 10.8,2.9 C11,2.9 11.2,2.9 11.3,3 L11.3,4 L11.2,4 Z"></path>
                            <path d="M12.2,1.4 C12.2,1.2 12.3,1.1 12.4,1 C12.5,0.9 12.7,0.8 12.9,0.8 C13.1,0.8 13.3,0.9 13.4,1 C13.5,1.1 13.6,1.3 13.6,1.4 C13.6,1.5 13.5,1.7 13.4,1.8 C13.3,1.9 13.1,2 12.9,2 C12.7,2 12.5,1.9 12.4,1.8 C12.3,1.7 12.2,1.5 12.2,1.4 Z M13.4,9.4 L12.3,9.4 L12.3,3 L13.4,3 L13.4,9.4 Z"></path>
                            <path d="M16.1,3 L16.1,3.7 C16.6,3.2 17.2,2.9 18,2.9 C18.9,2.9 19.5,3.2 19.8,3.9 C20,3.6 20.3,3.3 20.6,3.2 C20.9,3.1 21.3,2.9 21.8,2.9 C23.2,2.9 23.9,3.6 23.9,5.1 L23.9,9.3 L22.8,9.3 L22.8,5.1 C22.8,4.6 22.7,4.3 22.5,4.1 C22.3,3.9 21.9,3.8 21.5,3.8 C21.1,3.8 20.8,3.9 20.5,4.2 C20.2,4.5 20.1,4.8 20,5.2 L20,9.4 L19,9.4 L19,5.2 C19,4.3 18.5,3.8 17.6,3.8 C16.9,3.8 16.4,4.1 16.1,4.7 L16.1,9.3 L15,9.3 L15,3 L16.1,3 Z"></path>
                            <path d="M29.5,9.4 C29.4,9.3 29.4,9.1 29.3,8.7 C28.8,9.2 28.2,9.5 27.5,9.5 C26.9,9.5 26.4,9.3 26,9 C25.6,8.7 25.4,8.2 25.4,7.7 C25.4,7 25.7,6.5 26.2,6.2 C26.7,5.9 27.4,5.7 28.3,5.7 L29.4,5.7 L29.4,5 C29.4,4.6 29.3,4.3 29.1,4.1 C28.9,3.9 28.5,3.8 28.1,3.8 C27.7,3.8 27.4,3.9 27.1,4.1 C26.8,4.3 26.7,4.5 26.7,4.8 L25.6,4.8 C25.6,4.5 25.7,4.2 25.9,3.9 C26.1,3.6 26.4,3.4 26.8,3.2 C27.2,3 27.6,2.9 28.1,2.9 C28.8,2.9 29.4,3.1 29.8,3.4 C30.2,3.7 30.4,4.3 30.4,4.9 L30.4,7.8 C30.4,8.4 30.5,8.8 30.6,9.2 L30.6,9.3 L29.5,9.3 L29.5,9.4 Z M27.7,8.6 C28,8.6 28.4,8.5 28.7,8.3 C29,8.1 29.2,7.9 29.4,7.6 L29.4,6.3 L28.6,6.3 C27.3,6.3 26.6,6.7 26.6,7.5 C26.6,7.8 26.7,8.1 26.9,8.3 C27.1,8.5 27.4,8.6 27.7,8.6 Z"></path>
                            <path d="M35.2,4 C35,4 34.9,4 34.7,4 C34,4 33.5,4.3 33.3,4.9 L33.3,9.4 L32.2,9.4 L32.2,3 L33.3,3 L33.3,3.7 C33.7,3.1 34.2,2.9 34.8,2.9 C35,2.9 35.2,2.9 35.3,3 L35.3,4 L35.2,4 Z"></path>
                            <path d="M38.3,7.8 L39.8,3 L41,3 L38.5,10.3 C38.1,11.4 37.5,11.9 36.6,11.9 L36.4,11.9 L36,11.8 L36,11 L36.3,11 C36.7,11 37,10.9 37.2,10.8 C37.4,10.7 37.6,10.4 37.7,10 L37.9,9.4 L35.6,3.1 L36.8,3.1 L38.3,7.8 Z"></path>
                        </g>
                    </g>
                    <g transform="translate(374.000000, 174.000000)" id="Shape">
                        <g transform="translate(1.000000, 0.000000)" fill="#0D7580">
                            <g>
                                <g transform="translate(10.000000, 9.000000)">
                                    <path d="M0.4,10.4 L0.4,0.4 L3.8,0.4 C4.9,0.4 5.8,0.6 6.4,1.1 C7,1.6 7.3,2.2 7.3,3.1 C7.3,3.6 7.2,4 6.9,4.3 C6.6,4.6 6.3,4.9 5.8,5.1 C6.3,5.2 6.8,5.5 7,5.9 C7.3,6.3 7.4,6.8 7.4,7.4 C7.4,8.3 7.1,9.1 6.5,9.6 C5.9,10.1 5,10.4 3.9,10.4 L0.4,10.4 Z M2.1,4.6 L3.8,4.6 C4.3,4.6 4.8,4.5 5.1,4.2 C5.4,4 5.6,3.6 5.6,3.2 C5.6,2.7 5.5,2.4 5.2,2.1 C4.9,1.8 4.5,1.8 3.9,1.8 L2.2,1.8 L2.2,4.6 L2.1,4.6 Z M2.1,5.9 L2.1,9 L4,9 C4.5,9 5,8.9 5.3,8.6 C5.6,8.3 5.8,8 5.8,7.5 C5.8,6.5 5.3,5.9 4.2,5.9 L2.1,5.9 Z"></path>
                                    <path d="M16.5,0.4 L16.5,7.1 C16.5,8.2 16.2,9 15.5,9.6 C14.8,10.2 13.9,10.5 12.8,10.5 C11.7,10.5 10.8,10.2 10.1,9.6 C9.4,9 9.1,8.1 9.1,7.1 L9.1,0.5 L10.8,0.5 L10.8,7.2 C10.8,7.9 11,8.4 11.3,8.7 C11.6,9 12.1,9.2 12.8,9.2 C14.1,9.2 14.8,8.5 14.8,7.1 L14.8,0.5 L16.5,0.5 L16.5,0.4 Z"></path>
                                    <polygon points="25.5 1.8 22.4 1.8 22.4 10.4 20.7 10.4 20.7 1.8 17.6 1.8 17.6 0.4 25.5 0.4"></polygon>
                                    <polygon points="34.1 1.8 31 1.8 31 10.4 29.3 10.4 29.3 1.8 26.2 1.8 26.2 0.4 34.1 0.4 34.1 1.8"></polygon>
                                    <path d="M43.2,5.7 C43.2,6.7 43,7.5 42.7,8.3 C42.4,9 41.9,9.6 41.3,10 C40.7,10.4 40,10.6 39.1,10.6 C38.3,10.6 37.6,10.4 36.9,10 C36.3,9.6 35.8,9 35.4,8.3 C35,7.6 34.9,6.7 34.9,5.8 L34.9,5.2 C34.9,4.2 35.1,3.4 35.4,2.6 C35.7,1.8 36.2,1.3 36.9,0.9 C37.5,0.5 38.2,0.3 39.1,0.3 C40,0.3 40.6,0.5 41.3,0.9 C41.9,1.3 42.4,1.9 42.8,2.6 C43.1,3.3 43.3,4.2 43.3,5.2 L43.3,5.7 L43.2,5.7 Z M41.4,5.1 C41.4,4 41.2,3.2 40.8,2.6 C40.4,2 39.8,1.7 39,1.7 C38.3,1.7 37.7,2 37.2,2.6 C36.8,3.2 36.6,4 36.6,5.1 L36.6,5.7 C36.6,6.8 36.8,7.6 37.2,8.2 C37.6,8.8 38.2,9.1 39,9.1 C39.8,9.1 40.4,8.8 40.8,8.2 C41.2,7.6 41.4,6.8 41.4,5.6 L41.4,5.1 Z"></path>
                                    <polygon points="52.8 10.4 51.1 10.4 46.7 3.3 46.7 10.4 45 10.4 45 0.4 46.7 0.4 51.2 7.5 51.2 0.4 52.9 0.4 52.9 10.4"></polygon>
                                    <polygon points="65.1 1.8 62 1.8 62 10.4 60.3 10.4 60.3 1.8 57.2 1.8 57.2 0.4 65.1 0.4 65.1 1.8"></polygon>
                                    <polygon points="72.2 5.9 68.1 5.9 68.1 9 72.9 9 72.9 10.4 66.4 10.4 66.4 0.4 72.9 0.4 72.9 1.8 68.2 1.8 68.2 4.5 72.3 4.5 72.3 5.9"></polygon>
                                    <polygon points="77.8 4 79.9 0.4 81.9 0.4 78.9 5.3 82 10.3 80 10.3 77.9 6.6 75.8 10.3 73.8 10.3 76.9 5.3 73.9 0.4 75.9 0.4"></polygon>
                                    <polygon points="90.4 1.8 87.3 1.8 87.3 10.4 85.6 10.4 85.6 1.8 82.5 1.8 82.5 0.4 90.4 0.4 90.4 1.8"></polygon>
                                </g>
                                <path d="M126.8,1 C127.2,1 127.6,1 127.8,1.1 L127.8,27.1 C127.6,27.1 127.2,27.2 126.8,27.2 L2,27.2 C1.6,27.2 1.2,27.2 1,27.1 L1,1.1 C1.2,1.1 1.6,1 2,1 L126.8,1 L126.8,1 Z M126.8,0 L2,0 C0.9,0 0,0.2 0,0.4 L0,27.7 C0,27.9 0.9,28.1 2,28.1 L126.8,28.1 C127.9,28.1 128.8,27.9 128.8,27.7 L128.8,0.4 C128.8,0.1 127.9,0 126.8,0 L126.8,0 Z"></path>
                            </g>
                            <path d="M118.7,12.9 C118.5,12.9 118.3,13 118.2,13.1 L116.2,15.1 L114.2,13.1 C114.1,13 113.9,12.9 113.7,12.9 C113.5,12.9 113.3,13 113.2,13.1 C113.1,13.2 113,13.4 113,13.6 C113,13.8 113.1,14 113.2,14.1 L115.7,16.6 C115.8,16.7 116,16.8 116.2,16.8 C116.2,16.8 116.2,16.8 116.2,16.8 C116.4,16.8 116.6,16.7 116.7,16.6 L119.2,14.1 C119.3,14 119.4,13.8 119.4,13.6 C119.4,13.4 119.3,13.2 119.2,13.1 C119.1,12.9 118.9,12.9 118.7,12.9 L118.7,12.9 Z"></path>
                        </g>
                        <g transform="translate(0.000000, 39.000000)" fill="#9E9E9E">
                            <path d="M3.1,5.6 C2.1,5.3 1.4,5 1,4.6 C0.6,4.2 0.3,3.7 0.3,3.1 C0.3,2.4 0.6,1.9 1.1,1.4 C1.6,0.9 2.3,0.7 3.2,0.7 C3.8,0.7 4.3,0.8 4.8,1 C5.3,1.2 5.6,1.5 5.9,1.9 C6.2,2.3 6.3,2.7 6.3,3.2 L5.2,3.2 C5.2,2.7 5,2.3 4.7,2 C4.4,1.7 3.9,1.6 3.3,1.6 C2.7,1.6 2.3,1.7 2,2 C1.7,2.2 1.5,2.6 1.5,3 C1.5,3.3 1.6,3.6 1.9,3.9 C2.2,4.1 2.7,4.4 3.4,4.6 C4.1,4.8 4.7,5 5.1,5.3 C5.5,5.6 5.8,5.8 6,6.1 C6.2,6.4 6.3,6.8 6.3,7.2 C6.3,7.9 6,8.4 5.5,8.9 C5,9.4 4.2,9.5 3.3,9.5 C2.7,9.5 2.2,9.4 1.7,9.2 C1.2,9 0.8,8.7 0.5,8.3 C0.2,7.9 0.1,7.5 0.1,7 L1.2,7 C1.2,7.5 1.4,7.9 1.8,8.2 C2.2,8.5 2.7,8.6 3.3,8.6 C3.9,8.6 4.3,8.5 4.7,8.2 C5.1,7.9 5.2,7.6 5.2,7.2 C5.2,6.8 5.1,6.5 4.8,6.2 C4.5,5.9 3.9,5.8 3.1,5.6 Z"></path>
                            <path d="M10.2,9.5 C9.3,9.5 8.6,9.2 8.1,8.7 C7.6,8.1 7.3,7.4 7.3,6.4 L7.3,6.2 C7.3,5.6 7.4,5 7.7,4.5 C8,4 8.3,3.6 8.7,3.3 C9.1,3 9.6,2.9 10.1,2.9 C10.9,2.9 11.6,3.2 12,3.7 C12.4,4.2 12.7,5 12.7,6 L12.7,6.5 L8.4,6.5 C8.4,7.1 8.6,7.6 8.9,8 C9.2,8.4 9.7,8.6 10.2,8.6 C10.6,8.6 10.9,8.5 11.2,8.4 C11.5,8.3 11.7,8 11.9,7.8 L12.6,8.3 C12,9.1 11.3,9.5 10.2,9.5 Z M10.1,3.8 C9.7,3.8 9.3,4 9,4.3 C8.7,4.6 8.5,5.1 8.4,5.6 L11.6,5.6 L11.6,5.5 C11.6,4.9 11.4,4.5 11.2,4.2 C11,3.9 10.5,3.8 10.1,3.8 Z"></path>
                            <path d="M16.5,8.6 C16.9,8.6 17.2,8.5 17.5,8.2 C17.8,7.9 17.9,7.7 18,7.3 L19,7.3 C19,7.7 18.9,8 18.6,8.3 C18.3,8.6 18.1,8.9 17.7,9.1 C17.3,9.3 16.9,9.4 16.5,9.4 C15.6,9.4 15,9.1 14.4,8.5 C13.8,7.9 13.6,7.1 13.6,6.1 L13.6,5.9 C13.6,5.3 13.7,4.7 13.9,4.3 C14.1,3.9 14.5,3.4 14.9,3.2 C15.3,3 15.8,2.8 16.4,2.8 C17.1,2.8 17.7,3 18.2,3.4 C18.7,3.8 18.9,4.4 19,5.1 L18,5.1 C18,4.7 17.8,4.4 17.5,4.1 C17.2,3.8 16.9,3.7 16.5,3.7 C15.9,3.7 15.5,3.9 15.2,4.3 C14.9,4.7 14.7,5.3 14.7,6 L14.7,6.2 C14.7,6.9 14.9,7.5 15.2,7.9 C15.5,8.3 15.9,8.6 16.5,8.6 Z"></path>
                            <path d="M19.9,6.2 C19.9,5.6 20,5 20.3,4.5 C20.6,4 20.9,3.6 21.3,3.4 C21.7,3.2 22.2,3 22.8,3 C23.7,3 24.4,3.3 24.9,3.9 C25.4,4.5 25.7,5.3 25.7,6.3 L25.7,6.4 C25.7,7 25.6,7.6 25.3,8.1 C25,8.6 24.7,9 24.3,9.2 C23.9,9.4 23.4,9.6 22.8,9.6 C21.9,9.6 21.2,9.3 20.7,8.7 C20.2,8.1 19.9,7.2 19.9,6.2 L19.9,6.2 Z M21,6.3 C21,7 21.2,7.6 21.5,8 C21.8,8.4 22.3,8.6 22.8,8.6 C23.4,8.6 23.8,8.4 24.1,8 C24.4,7.6 24.6,7 24.6,6.2 C24.6,5.5 24.4,4.9 24.1,4.5 C23.8,4.1 23.3,3.9 22.8,3.9 C22.3,3.9 21.8,4.1 21.5,4.5 C21.2,4.9 21,5.5 21,6.3 Z"></path>
                            <path d="M28.1,3 L28.1,3.8 C28.6,3.2 29.2,2.9 30,2.9 C31.3,2.9 32,3.7 32,5.2 L32,9.4 L30.9,9.4 L30.9,5.2 C30.9,4.7 30.8,4.4 30.6,4.2 C30.4,4 30.1,3.9 29.6,3.9 C29.2,3.9 28.9,4 28.7,4.2 C28.5,4.4 28.2,4.6 28.1,4.9 L28.1,9.4 L27,9.4 L27,3 L28.1,3 Z"></path>
                            <path d="M33.4,6.2 C33.4,5.2 33.6,4.4 34.1,3.9 C34.6,3.4 35.2,3 35.9,3 C36.6,3 37.2,3.3 37.7,3.8 L37.7,0.5 L38.8,0.5 L38.8,9.5 L37.8,9.5 L37.7,8.8 C37.3,9.3 36.7,9.6 35.9,9.6 C35.2,9.6 34.6,9.3 34.1,8.7 C33.6,8.1 33.4,7.2 33.4,6.2 L33.4,6.2 Z M34.5,6.3 C34.5,7 34.6,7.6 34.9,8 C35.2,8.4 35.6,8.6 36.1,8.6 C36.8,8.6 37.3,8.3 37.6,7.7 L37.6,4.8 C37.3,4.2 36.8,3.9 36.1,3.9 C35.6,3.9 35.2,4.1 34.9,4.5 C34.6,4.9 34.5,5.5 34.5,6.3 Z"></path>
                            <path d="M44.3,9.4 C44.2,9.3 44.2,9.1 44.1,8.7 C43.6,9.2 43,9.5 42.3,9.5 C41.7,9.5 41.2,9.3 40.8,9 C40.4,8.7 40.2,8.2 40.2,7.7 C40.2,7 40.5,6.5 41,6.2 C41.5,5.9 42.2,5.7 43.1,5.7 L44.2,5.7 L44.2,5 C44.2,4.6 44.1,4.3 43.9,4.1 C43.7,3.9 43.3,3.8 42.9,3.8 C42.5,3.8 42.2,3.9 41.9,4.1 C41.6,4.3 41.5,4.5 41.5,4.8 L40.4,4.8 C40.4,4.5 40.5,4.2 40.7,3.9 C40.9,3.6 41.2,3.4 41.6,3.2 C42,3 42.4,2.9 42.9,2.9 C43.6,2.9 44.2,3.1 44.6,3.4 C45,3.7 45.2,4.3 45.2,4.9 L45.2,7.8 C45.2,8.4 45.3,8.8 45.4,9.2 L45.4,9.3 L44.3,9.3 L44.3,9.4 Z M42.5,8.6 C42.8,8.6 43.2,8.5 43.5,8.3 C43.8,8.1 44,7.9 44.2,7.6 L44.2,6.3 L43.4,6.3 C42.1,6.3 41.4,6.7 41.4,7.5 C41.4,7.8 41.5,8.1 41.7,8.3 C41.9,8.5 42.2,8.6 42.5,8.6 Z"></path>
                            <path d="M50,4 C49.8,4 49.7,4 49.5,4 C48.8,4 48.3,4.3 48.1,4.9 L48.1,9.4 L47,9.4 L47,3 L48.1,3 L48.1,3.7 C48.5,3.1 49,2.9 49.6,2.9 C49.8,2.9 50,2.9 50.1,3 L50.1,4 L50,4 Z"></path>
                            <path d="M53.1,7.8 L54.6,3 L55.8,3 L53.3,10.3 C52.9,11.4 52.3,11.9 51.4,11.9 L51.2,11.9 L50.8,11.8 L50.8,11 L51.1,11 C51.5,11 51.8,10.9 52,10.8 C52.2,10.7 52.4,10.4 52.5,10 L52.7,9.4 L50.4,3.1 L51.6,3.1 L53.1,7.8 Z"></path>
                        </g>
                    </g>
                    <g transform="translate(0.000000, 132.000000)" id="Shape" fill="#424242">
                        <path d="M0.9,12.7 L0.9,1.3 L4.1,1.3 C5.1,1.3 6,1.5 6.7,2 C7.5,2.4 8,3.1 8.5,3.9 C8.9,4.7 9.1,5.6 9.1,6.7 L9.1,7.4 C9.1,8.5 8.9,9.4 8.5,10.2 C8.1,11 7.5,11.6 6.7,12.1 C5.9,12.5 5,12.8 4,12.8 L0.9,12.8 L0.9,12.7 Z M2.4,2.6 L2.4,11.5 L4,11.5 C5.2,11.5 6.1,11.1 6.7,10.4 C7.3,9.7 7.7,8.7 7.7,7.3 L7.7,6.6 C7.7,5.3 7.4,4.3 6.8,3.6 C6.2,2.9 5.3,2.5 4.2,2.5 L2.4,2.5 L2.4,2.6 Z"></path>
                        <path d="M15.2,5.6 C15,5.6 14.7,5.5 14.5,5.5 C13.6,5.5 12.9,5.9 12.6,6.7 L12.6,12.7 L11.2,12.7 L11.2,4.2 L12.6,4.2 L12.6,5.2 C13.1,4.4 13.7,4.1 14.6,4.1 C14.9,4.1 15.1,4.1 15.2,4.2 L15.2,5.6 L15.2,5.6 Z"></path>
                        <path d="M16,8.4 C16,7.6 16.2,6.8 16.5,6.2 C16.8,5.5 17.3,5 17.9,4.7 C18.5,4.3 19.1,4.2 19.9,4.2 C21.1,4.2 22,4.6 22.7,5.4 C23.4,6.2 23.8,7.3 23.8,8.6 L23.8,8.7 C23.8,9.5 23.6,10.3 23.3,10.9 C23,11.6 22.5,12.1 21.9,12.4 C21.3,12.8 20.6,12.9 19.9,12.9 C18.8,12.9 17.8,12.5 17.1,11.7 C16.4,10.9 16,9.8 16,8.5 L16,8.4 Z M17.5,8.6 C17.5,9.5 17.7,10.3 18.2,10.9 C18.6,11.5 19.2,11.8 19.9,11.8 C20.6,11.8 21.2,11.5 21.7,10.9 C22.1,10.3 22.3,9.5 22.3,8.5 C22.3,7.6 22.1,6.8 21.6,6.2 C21.2,5.6 20.6,5.3 19.8,5.3 C19.1,5.3 18.5,5.6 18.1,6.2 C17.7,6.7 17.5,7.5 17.5,8.6 Z"></path>
                        <path d="M32.7,8.6 C32.7,9.9 32.4,10.9 31.8,11.7 C31.2,12.5 30.4,12.9 29.4,12.9 C28.4,12.9 27.6,12.6 27,11.9 L27,16 L25.6,16 L25.6,4.3 L26.9,4.3 L27,5.2 C27.6,4.5 28.4,4.1 29.5,4.1 C30.5,4.1 31.3,4.5 31.9,5.2 C32.5,6 32.8,7 32.8,8.4 L32.8,8.6 L32.7,8.6 Z M31.2,8.4 C31.2,7.4 31,6.7 30.6,6.1 C30.2,5.5 29.6,5.3 28.9,5.3 C28,5.3 27.4,5.7 26.9,6.5 L26.9,10.5 C27.3,11.3 28,11.7 28.9,11.7 C29.6,11.7 30.1,11.4 30.6,10.9 C31,10.3 31.2,9.5 31.2,8.4 Z"></path>
                        <path d="M34.1,8.4 C34.1,7.1 34.4,6.1 35,5.3 C35.6,4.5 36.4,4.1 37.4,4.1 C38.4,4.1 39.2,4.4 39.8,5.1 L39.8,0.7 L41.2,0.7 L41.2,12.7 L40,12.7 L39.9,11.8 C39.3,12.5 38.5,12.9 37.5,12.9 C36.5,12.9 35.7,12.5 35.1,11.7 C34.5,10.9 34.2,9.9 34.2,8.6 L34.2,8.4 L34.1,8.4 Z M35.6,8.6 C35.6,9.6 35.8,10.3 36.2,10.8 C36.6,11.3 37.1,11.6 37.8,11.6 C38.7,11.6 39.4,11.2 39.8,10.4 L39.8,6.5 C39.4,5.7 38.7,5.3 37.8,5.3 C37.1,5.3 36.5,5.6 36.1,6.1 C35.8,6.7 35.6,7.5 35.6,8.6 Z"></path>
                        <path d="M43.1,8.4 C43.1,7.6 43.3,6.8 43.6,6.2 C43.9,5.5 44.4,5 45,4.7 C45.6,4.3 46.2,4.2 47,4.2 C48.2,4.2 49.1,4.6 49.8,5.4 C50.5,6.2 50.9,7.3 50.9,8.6 L50.9,8.7 C50.9,9.5 50.7,10.3 50.4,10.9 C50.1,11.6 49.6,12.1 49,12.4 C48.4,12.8 47.7,12.9 47,12.9 C45.9,12.9 44.9,12.5 44.2,11.7 C43.5,10.9 43.1,9.8 43.1,8.5 L43.1,8.4 Z M44.6,8.6 C44.6,9.5 44.8,10.3 45.3,10.9 C45.7,11.5 46.3,11.8 47,11.8 C47.7,11.8 48.3,11.5 48.8,10.9 C49.2,10.3 49.4,9.5 49.4,8.5 C49.4,7.6 49.2,6.8 48.7,6.2 C48.3,5.6 47.7,5.3 46.9,5.3 C46.2,5.3 45.6,5.6 45.2,6.2 C44.8,6.7 44.6,7.5 44.6,8.6 Z"></path>
                        <polygon points="60.1 10.7 61.7 4.2 63.1 4.2 60.6 12.7 59.4 12.7 57.3 6.3 55.3 12.7 54.1 12.7 51.6 4.2 53 4.2 54.7 10.5 56.7 4.2 57.9 4.2"></polygon>
                        <path d="M66,4.3 L66,5.4 C66.6,4.6 67.5,4.2 68.5,4.2 C70.3,4.2 71.2,5.2 71.2,7.2 L71.2,12.8 L69.8,12.8 L69.8,7.2 C69.8,6.6 69.7,6.1 69.4,5.8 C69.1,5.5 68.7,5.4 68.1,5.4 C67.6,5.4 67.2,5.5 66.9,5.8 C66.5,6 66.3,6.4 66.1,6.8 L66.1,12.8 L64.7,12.8 L64.7,4.3 L66,4.3 Z"></path>
                    </g>
                    <g transform="translate(728.000000, 182.000000)" id="Shape">
                        <g transform="translate(10.000000, 0.000000)" fill="#616161">
                            <path d="M101,5.7 L103.5,8.2 C103.6,8.3 103.8,8.4 104,8.4 C104.2,8.4 104.4,8.3 104.5,8.2 L107,5.7 C107.1,5.6 107.2,5.4 107.2,5.2 C107.2,5 107.1,4.8 107,4.7 C106.9,4.6 106.7,4.5 106.5,4.5 C106.3,4.5 106.1,4.6 106,4.7 L104,6.7 L102,4.7 C101.9,4.6 101.7,4.5 101.5,4.5 C101.3,4.5 101.1,4.6 101,4.7 C100.9,4.8 100.8,5 100.8,5.2 C100.7,5.3 100.8,5.5 101,5.7 Z"></path>
                            <g>
                                <path d="M0.1,10.8 L0.1,0.8 L3.5,0.8 C4.6,0.8 5.5,1 6.1,1.5 C6.7,2 7,2.6 7,3.5 C7,4 6.9,4.4 6.6,4.7 C6.4,5.1 6,5.3 5.5,5.5 C6,5.6 6.5,5.9 6.7,6.3 C6.9,6.7 7.1,7.2 7.1,7.8 C7.1,8.7 6.8,9.5 6.2,10 C5.6,10.5 4.7,10.8 3.6,10.8 L0.1,10.8 Z M1.8,5.1 L3.5,5.1 C4,5.1 4.5,5 4.8,4.7 C5.1,4.5 5.3,4.1 5.3,3.7 C5.3,3.2 5.2,2.9 4.9,2.6 C4.6,2.3 4.2,2.3 3.6,2.3 L1.9,2.3 L1.9,5.1 L1.8,5.1 Z M1.8,6.3 L1.8,9.4 L3.7,9.4 C4.2,9.4 4.7,9.3 5,9 C5.3,8.7 5.5,8.4 5.5,7.9 C5.5,6.9 5,6.3 3.9,6.3 L1.8,6.3 Z"></path>
                                <path d="M16.2,0.9 L16.2,7.6 C16.2,8.7 15.9,9.5 15.2,10.1 C14.5,10.7 13.6,11 12.5,11 C11.4,11 10.5,10.7 9.8,10.1 C9.1,9.5 8.8,8.6 8.8,7.6 L8.8,1 L10.5,1 L10.5,7.7 C10.5,8.4 10.7,8.9 11,9.2 C11.3,9.6 11.8,9.7 12.5,9.7 C13.8,9.7 14.5,9 14.5,7.6 L14.5,1 L16.2,1 L16.2,0.9 Z"></path>
                                <polygon points="25.2 2.3 22.1 2.3 22.1 10.9 20.4 10.9 20.4 2.3 17.3 2.3 17.3 0.9 25.2 0.9 25.2 2.3"></polygon>
                                <polygon points="33.8 2.3 30.7 2.3 30.7 10.9 29 10.9 29 2.3 25.9 2.3 25.9 0.9 33.8 0.9"></polygon>
                                <path d="M42.9,6.1 C42.9,7.1 42.7,7.9 42.4,8.7 C42.1,9.4 41.6,10 41,10.4 C40.4,10.8 39.7,11 38.8,11 C38,11 37.3,10.8 36.6,10.4 C36,10 35.5,9.4 35.1,8.7 C34.8,8 34.6,7.1 34.6,6.2 L34.6,5.6 C34.6,4.6 34.8,3.8 35.1,3 C35.4,2.3 35.9,1.7 36.6,1.3 C37.2,0.9 37.9,0.7 38.8,0.7 C39.6,0.7 40.3,0.9 41,1.3 C41.6,1.7 42.1,2.3 42.5,3 C42.9,3.7 43,4.6 43,5.6 L43,6.1 L42.9,6.1 Z M41.2,5.6 C41.2,4.5 41,3.7 40.6,3.1 C40.2,2.5 39.6,2.2 38.8,2.2 C38.1,2.2 37.5,2.5 37,3.1 C36.6,3.7 36.4,4.5 36.4,5.6 L36.4,6.2 C36.4,7.3 36.6,8.1 37,8.7 C37.4,9.3 38,9.6 38.8,9.6 C39.6,9.6 40.2,9.3 40.6,8.7 C41,8.1 41.2,7.3 41.2,6.1 L41.2,5.6 Z"></path>
                                <polygon points="52.5 10.8 50.8 10.8 46.4 3.7 46.4 10.8 44.7 10.8 44.7 0.8 46.4 0.8 50.9 7.9 50.9 0.8 52.6 0.8 52.6 10.8"></polygon>
                                <polygon points="64.8 2.3 61.7 2.3 61.7 10.9 60 10.9 60 2.3 56.9 2.3 56.9 0.9 64.8 0.9"></polygon>
                                <polygon points="71.9 6.4 67.8 6.4 67.8 9.5 72.6 9.5 72.6 10.9 66.1 10.9 66.1 0.9 72.6 0.9 72.6 2.3 67.9 2.3 67.9 5 72 5 72 6.4"></polygon>
                                <polygon points="77.5 4.5 79.6 0.9 81.6 0.9 78.6 5.8 81.7 10.8 79.7 10.8 77.6 7.1 75.5 10.8 73.5 10.8 76.6 5.8 73.6 0.9 75.6 0.9"></polygon>
                                <polygon points="90.1 2.3 87 2.3 87 10.9 85.3 10.9 85.3 2.3 82.2 2.3 82.2 0.9 90.1 0.9 90.1 2.3"></polygon>
                            </g>
                        </g>
                        <g transform="translate(0.000000, 31.000000)" fill="#9E9E9E">
                            <polygon points="7.3 1.8 4.6 1.8 4.6 9.4 3.5 9.4 3.5 1.8 0.8 1.8 0.8 0.9 7.4 0.9 7.4 1.8"></polygon>
                            <path d="M11,9.5 C10.1,9.5 9.4,9.2 8.9,8.7 C8.4,8.2 8.1,7.4 8.1,6.4 L8.1,6.2 C8.1,5.6 8.2,5 8.5,4.5 C8.8,4 9.1,3.6 9.5,3.3 C9.9,3 10.4,2.9 10.9,2.9 C11.7,2.9 12.4,3.2 12.8,3.7 C13.2,4.2 13.5,5 13.5,6 L13.5,6.5 L9.2,6.5 C9.2,7.1 9.4,7.6 9.7,8 C10,8.4 10.5,8.6 11,8.6 C11.4,8.6 11.7,8.5 12,8.4 C12.3,8.3 12.5,8 12.7,7.8 L13.4,8.3 C12.8,9.1 12,9.5 11,9.5 Z M10.8,3.8 C10.4,3.8 10,4 9.7,4.3 C9.4,4.6 9.2,5.1 9.1,5.6 L12.3,5.6 L12.3,5.5 C12.3,4.9 12.1,4.5 11.9,4.2 C11.7,3.9 11.3,3.8 10.8,3.8 Z"></path>
                            <path d="M17.8,4 C17.6,4 17.5,4 17.3,4 C16.6,4 16.1,4.3 15.9,4.9 L15.9,9.4 L14.8,9.4 L14.8,3 L15.9,3 L15.9,3.7 C16.3,3.1 16.8,2.9 17.4,2.9 C17.6,2.9 17.8,2.9 17.9,3 L17.9,4 L17.8,4 Z"></path>
                            <path d="M20.5,1.5 L20.5,3 L21.7,3 L21.7,3.8 L20.5,3.8 L20.5,7.7 C20.5,8 20.6,8.1 20.7,8.3 C20.8,8.5 21,8.5 21.2,8.5 C21.3,8.5 21.5,8.5 21.7,8.4 L21.7,9.3 C21.4,9.4 21.1,9.4 20.9,9.4 C20.4,9.4 20.1,9.3 19.8,9 C19.5,8.7 19.4,8.3 19.4,7.8 L19.4,3.9 L18.2,3.9 L18.2,3 L19.4,3 L19.4,1.5 L20.5,1.5 Z"></path>
                            <path d="M23,1.4 C23,1.2 23.1,1.1 23.2,1 C23.3,0.9 23.5,0.8 23.7,0.8 C23.9,0.8 24.1,0.9 24.2,1 C24.3,1.1 24.4,1.3 24.4,1.4 C24.4,1.5 24.3,1.7 24.2,1.8 C24.1,1.9 23.9,2 23.7,2 C23.5,2 23.3,1.9 23.2,1.8 C23.1,1.7 23,1.5 23,1.4 Z M24.2,9.4 L23.1,9.4 L23.1,3 L24.2,3 L24.2,9.4 Z"></path>
                            <path d="M29.8,9.4 C29.7,9.3 29.7,9.1 29.6,8.7 C29.1,9.2 28.5,9.5 27.8,9.5 C27.2,9.5 26.7,9.3 26.3,9 C25.9,8.7 25.7,8.2 25.7,7.7 C25.7,7 26,6.5 26.5,6.2 C27,5.9 27.7,5.7 28.6,5.7 L29.7,5.7 L29.7,5 C29.7,4.6 29.6,4.3 29.4,4.1 C29.2,3.9 28.8,3.8 28.4,3.8 C28,3.8 27.7,3.9 27.4,4.1 C27.1,4.3 27,4.5 27,4.8 L25.9,4.8 C25.9,4.5 26,4.2 26.2,3.9 C26.4,3.6 26.7,3.4 27.1,3.2 C27.5,3 27.9,2.9 28.4,2.9 C29.1,2.9 29.7,3.1 30.1,3.4 C30.5,3.7 30.7,4.3 30.7,4.9 L30.7,7.8 C30.7,8.4 30.8,8.8 30.9,9.2 L30.9,9.3 L29.8,9.3 L29.8,9.4 Z M28,8.6 C28.3,8.6 28.7,8.5 29,8.3 C29.3,8.1 29.5,7.9 29.7,7.6 L29.7,6.3 L28.9,6.3 C27.6,6.3 26.9,6.7 26.9,7.5 C26.9,7.8 27,8.1 27.2,8.3 C27.4,8.5 27.7,8.6 28,8.6 Z"></path>
                            <path d="M35.5,4 C35.3,4 35.2,4 35,4 C34.3,4 33.8,4.3 33.6,4.9 L33.6,9.4 L32.5,9.4 L32.5,3 L33.6,3 L33.6,3.7 C34,3.1 34.5,2.9 35.1,2.9 C35.3,2.9 35.5,2.9 35.6,3 L35.6,4 L35.5,4 Z"></path>
                            <path d="M38.6,7.8 L40.1,3 L41.3,3 L38.8,10.3 C38.4,11.4 37.8,11.9 36.9,11.9 L36.7,11.9 L36.3,11.8 L36.3,11 L36.6,11 C37,11 37.3,10.9 37.5,10.8 C37.7,10.7 37.9,10.4 38,10 L38.2,9.4 L35.9,3.1 L37.1,3.1 L38.6,7.8 Z"></path>
                        </g>
                    </g>
                </g>
            </g>
        </g>
    </g>
</svg>