<?xml version="1.0" encoding="UTF-8" standalone="no"?>
<svg width="492px" height="132px" viewBox="0 0 492 132" version="1.1" xmlns="http://www.w3.org/2000/svg" xmlns:xlink="http://www.w3.org/1999/xlink">
    <!-- Generator: Sketch 47.1 (45422) - http://www.bohemiancoding.com/sketch -->
    <title>buttons-sets-1</title>
    <desc>Created with Sketch.</desc>
    <defs>
        <rect id="path-1" x="0" y="0" width="118" height="32" rx="2"></rect>
    </defs>
    <g id="Page-1" stroke="none" stroke-width="1" fill="none" fill-rule="evenodd">
        <g id="buttons-sets-1">
            <rect id="Rectangle-3-Copy-22" fill="#9CC2EB" transform="translate(173.000000, 63.000000) rotate(-90.000000) translate(-173.000000, -63.000000) " x="157" y="53" width="32" height="20"></rect>
            <path d="M168.149414,66 L165.354492,66 L165.354492,65.6103516 L166.831055,63.9697266 C167.049806,63.7216784 167.200683,63.5200203 167.283691,63.3647461 C167.3667,63.2094719 167.408203,63.048829 167.408203,62.8828125 C167.408203,62.6601551 167.340821,62.4775398 167.206055,62.3349609 C167.071288,62.1923821 166.891603,62.1210938 166.666992,62.1210938 C166.39746,62.1210938 166.187989,62.1977531 166.038574,62.3510742 C165.889159,62.5043953 165.814453,62.7177721 165.814453,62.9912109 L165.272461,62.9912109 C165.272461,62.5986308 165.398925,62.2812512 165.651855,62.0390625 C165.904786,61.7968738 166.243162,61.6757812 166.666992,61.6757812 C167.063479,61.6757812 167.376952,61.7797841 167.607422,61.987793 C167.837892,62.1958018 167.953125,62.4726545 167.953125,62.8183594 C167.953125,63.2382833 167.68555,63.7382783 167.150391,64.3183594 L166.007812,65.5576172 L168.149414,65.5576172 L168.149414,66 Z M171.398438,64.1806641 C171.398438,64.8154329 171.29004,65.2871078 171.073242,65.5957031 C170.856444,65.9042984 170.51758,66.0585938 170.056641,66.0585938 C169.60156,66.0585938 169.26465,65.9077164 169.045898,65.605957 C168.827147,65.3041977 168.713867,64.8535186 168.706055,64.2539062 L168.706055,63.5302734 C168.706055,62.9033172 168.814452,62.4375015 169.03125,62.1328125 C169.248048,61.8281235 169.587888,61.6757812 170.050781,61.6757812 C170.509768,61.6757812 170.847655,61.8227524 171.064453,62.1166992 C171.281251,62.410646 171.392578,62.8642547 171.398438,63.4775391 L171.398438,64.1806641 Z M170.856445,63.4394531 C170.856445,62.9804665 170.791993,62.6459971 170.663086,62.4360352 C170.534179,62.2260732 170.33008,62.1210938 170.050781,62.1210938 C169.773436,62.1210938 169.57129,62.2255849 169.444336,62.4345703 C169.317382,62.6435557 169.251953,62.9648416 169.248047,63.3984375 L169.248047,64.265625 C169.248047,64.7265648 169.314941,65.0668934 169.44873,65.2866211 C169.58252,65.5063488 169.785155,65.6162109 170.056641,65.6162109 C170.32422,65.6162109 170.522949,65.5126963 170.652832,65.3056641 C170.782715,65.0986318 170.850586,64.7724632 170.856445,64.3271484 L170.856445,63.4394531 Z M176.311523,64.4501953 C176.311523,64.9326196 176.201173,65.3212876 175.980469,65.6162109 C175.759765,65.9111343 175.460939,66.0585938 175.083984,66.0585938 C174.699217,66.0585938 174.396485,65.9365247 174.175781,65.6923828 L174.175781,67.21875 L173.633789,67.21875 L173.633789,62.8300781 L174.128906,62.8300781 L174.155273,63.1816406 C174.375978,62.9082018 174.682615,62.7714844 175.075195,62.7714844 C175.456057,62.7714844 175.757323,62.9150376 175.979004,63.2021484 C176.200685,63.4892592 176.311523,63.8886693 176.311523,64.4003906 L176.311523,64.4501953 Z M175.769531,64.3886719 C175.769531,64.0312482 175.69336,63.7490245 175.541016,63.5419922 C175.388671,63.3349599 175.179689,63.2314453 174.914062,63.2314453 C174.585936,63.2314453 174.339845,63.3769517 174.175781,63.6679688 L174.175781,65.1826172 C174.337891,65.4716811 174.585936,65.6162109 174.919922,65.6162109 C175.179689,65.6162109 175.38623,65.5131846 175.539551,65.3071289 C175.692872,65.1010732 175.769531,64.7949239 175.769531,64.3886719 Z M178.019531,63.9873047 L178.722656,62.8300781 L179.355469,62.8300781 L178.318359,64.3974609 L179.387695,66 L178.760742,66 L178.02832,64.8134766 L177.295898,66 L176.666016,66 L177.735352,64.3974609 L176.698242,62.8300781 L177.325195,62.8300781 L178.019531,63.9873047 Z" id="20-px" fill="#333333" transform="translate(172.330078, 64.447266) rotate(-90.000000) translate(-172.330078, -64.447266) "></path>
            <g id="Button/Standard/Primary" transform="translate(46.000000, 47.000000)">
                <rect id="Rectangle-2" fill="#0C7C84" x="0" y="0" width="118" height="32" rx="2"></rect>
                <path d="M25.1313477,17.7597656 C25.0310867,18.8216199 24.6391636,19.6498994 23.9555664,20.2446289 C23.2719692,20.8393584 22.3627986,21.1367188 21.2280273,21.1367188 C20.4350546,21.1367188 19.7366567,20.9487323 19.1328125,20.5727539 C18.5289683,20.1967755 18.0629899,19.6624384 17.7348633,18.9697266 C17.4067366,18.2770148 17.2358399,17.4726608 17.222168,16.5566406 L17.222168,15.6269531 C17.222168,14.6881463 17.3885075,13.8610062 17.7211914,13.1455078 C18.0538754,12.4300094 18.5312469,11.8785827 19.1533203,11.4912109 C19.7753937,11.1038392 20.4942993,10.9101562 21.3100586,10.9101562 C22.4083714,10.9101562 23.2924771,11.2086559 23.9624023,11.8056641 C24.6323276,12.4026723 25.0219721,13.2457628 25.1313477,14.3349609 L23.4086914,14.3349609 C23.3266597,13.6194626 23.1181657,13.1033544 22.7832031,12.7866211 C22.4482405,12.4698877 21.9571972,12.3115234 21.3100586,12.3115234 C20.5581017,12.3115234 19.9804708,12.5860975 19.5771484,13.1352539 C19.1738261,13.6844103 18.9676107,14.4899035 18.9584961,15.5517578 L18.9584961,16.4335938 C18.9584961,17.50912 19.1510397,18.3294243 19.5361328,18.8945312 C19.9212259,19.4596382 20.4851851,19.7421875 21.2280273,19.7421875 C21.9070672,19.7421875 22.4174788,19.5895198 22.7592773,19.2841797 C23.1010759,18.9788396 23.3175451,18.4707067 23.4086914,17.7597656 L25.1313477,17.7597656 Z M30.3881836,15.1210938 C30.1694325,15.0846352 29.9438488,15.0664062 29.7114258,15.0664062 C28.9503543,15.0664062 28.4376641,15.35807 28.1733398,15.9414062 L28.1733398,21 L26.512207,21 L26.512207,13.6035156 L28.0981445,13.6035156 L28.1391602,14.4306641 C28.5402038,13.7880827 29.0961879,13.4667969 29.8071289,13.4667969 C30.0441093,13.4667969 30.2400708,13.4986976 30.3950195,13.5625 L30.3881836,15.1210938 Z M34.5649414,21.1367188 C33.5122018,21.1367188 32.6588574,20.8051791 32.0048828,20.1420898 C31.3509082,19.4790006 31.0239258,18.5960342 31.0239258,17.4931641 L31.0239258,17.2880859 C31.0239258,16.549801 31.1663397,15.8901396 31.4511719,15.309082 C31.736004,14.7280244 32.1359024,14.2757178 32.6508789,13.9521484 C33.1658554,13.6285791 33.7400684,13.4667969 34.3735352,13.4667969 C35.3807017,13.4667969 36.1588514,13.7880827 36.7080078,14.4306641 C37.2571642,15.0732454 37.5317383,15.982416 37.5317383,17.1582031 L37.5317383,17.828125 L32.6987305,17.828125 C32.7488609,18.4388051 32.9527977,18.9218732 33.3105469,19.2773438 C33.6682961,19.6328143 34.1183241,19.8105469 34.6606445,19.8105469 C35.421716,19.8105469 36.0415015,19.5029328 36.5200195,18.8876953 L37.4155273,19.7421875 C37.1193019,20.184247 36.7239608,20.5271798 36.2294922,20.7709961 C35.7350236,21.0148124 35.1801789,21.1367188 34.5649414,21.1367188 Z M34.3666992,14.7998047 C33.9109678,14.7998047 33.5429702,14.9593083 33.2626953,15.2783203 C32.9824205,15.5973323 32.8035486,16.0416638 32.7260742,16.6113281 L35.8911133,16.6113281 L35.8911133,16.4882812 C35.8546548,15.9322889 35.7065443,15.5118829 35.4467773,15.2270508 C35.1870104,14.9422186 34.826988,14.7998047 34.3666992,14.7998047 Z M43.2397461,21 C43.1668291,20.8587233 43.1030276,20.6285823 43.0483398,20.3095703 C42.5196914,20.8610054 41.8725624,21.1367188 41.1069336,21.1367188 C40.3640913,21.1367188 39.7579776,20.9248068 39.2885742,20.5009766 C38.8191708,20.0771463 38.5844727,19.553063 38.5844727,18.9287109 C38.5844727,18.1402955 38.8772757,17.5353211 39.4628906,17.1137695 C40.0485055,16.6922179 40.8858995,16.4814453 41.9750977,16.4814453 L42.9936523,16.4814453 L42.9936523,15.9960938 C42.9936523,15.6132793 42.8865571,15.3068045 42.6723633,15.0766602 C42.4581695,14.8465158 42.1323264,14.7314453 41.6948242,14.7314453 C41.3165671,14.7314453 41.0066744,14.8260082 40.7651367,15.0151367 C40.5235991,15.2042653 40.402832,15.44466 40.402832,15.7363281 L38.7416992,15.7363281 C38.7416992,15.3307271 38.876138,14.9513364 39.1450195,14.5981445 C39.4139011,14.2449527 39.7796201,13.9681 40.2421875,13.7675781 C40.7047549,13.5670563 41.220863,13.4667969 41.7905273,13.4667969 C42.6564171,13.4667969 43.3468399,13.6844054 43.8618164,14.1196289 C44.3767929,14.5548524 44.6411132,15.1666627 44.6547852,15.9550781 L44.6547852,19.2910156 C44.6547852,19.9563835 44.7482087,20.4873027 44.9350586,20.8837891 L44.9350586,21 L43.2397461,21 Z M41.4145508,19.8037109 C41.7426774,19.8037109 42.0514308,19.7239591 42.3408203,19.5644531 C42.6302098,19.4049471 42.8478183,19.1907566 42.9936523,18.921875 L42.9936523,17.5273438 L42.0981445,17.5273438 C41.4829071,17.5273438 41.0203466,17.634439 40.7104492,17.8486328 C40.4005518,18.0628266 40.2456055,18.3658835 40.2456055,18.7578125 C40.2456055,19.0768245 40.3515614,19.330891 40.5634766,19.5200195 C40.7753917,19.7091481 41.0590803,19.8037109 41.4145508,19.8037109 Z M48.4760742,11.8056641 L48.4760742,13.6035156 L49.7817383,13.6035156 L49.7817383,14.8339844 L48.4760742,14.8339844 L48.4760742,18.9628906 C48.4760742,19.2454441 48.5319005,19.4493809 48.6435547,19.574707 C48.7552089,19.7000332 48.9545884,19.7626953 49.2416992,19.7626953 C49.4331064,19.7626953 49.6267894,19.7399091 49.8227539,19.6943359 L49.8227539,20.9794922 C49.4444968,21.0843104 49.0799171,21.1367188 48.7290039,21.1367188 C47.4529559,21.1367188 46.8149414,20.4326242 46.8149414,19.0244141 L46.8149414,14.8339844 L45.5981445,14.8339844 L45.5981445,13.6035156 L46.8149414,13.6035156 L46.8149414,11.8056641 L48.4760742,11.8056641 Z M54.3071289,21.1367188 C53.2543893,21.1367188 52.4010449,20.8051791 51.7470703,20.1420898 C51.0930957,19.4790006 50.7661133,18.5960342 50.7661133,17.4931641 L50.7661133,17.2880859 C50.7661133,16.549801 50.9085272,15.8901396 51.1933594,15.309082 C51.4781915,14.7280244 51.8780899,14.2757178 52.3930664,13.9521484 C52.9080429,13.6285791 53.4822559,13.4667969 54.1157227,13.4667969 C55.1228892,13.4667969 55.9010389,13.7880827 56.4501953,14.4306641 C56.9993517,15.0732454 57.2739258,15.982416 57.2739258,17.1582031 L57.2739258,17.828125 L52.440918,17.828125 C52.4910484,18.4388051 52.6949852,18.9218732 53.0527344,19.2773438 C53.4104836,19.6328143 53.8605116,19.8105469 54.402832,19.8105469 C55.1639035,19.8105469 55.783689,19.5029328 56.262207,18.8876953 L57.1577148,19.7421875 C56.8614894,20.184247 56.4661483,20.5271798 55.9716797,20.7709961 C55.4772111,21.0148124 54.9223664,21.1367188 54.3071289,21.1367188 Z M54.1088867,14.7998047 C53.6531553,14.7998047 53.2851577,14.9593083 53.0048828,15.2783203 C52.724608,15.5973323 52.5457361,16.0416638 52.4682617,16.6113281 L55.6333008,16.6113281 L55.6333008,16.4882812 C55.5968423,15.9322889 55.4487318,15.5118829 55.1889648,15.2270508 C54.9291979,14.9422186 54.5691755,14.7998047 54.1088867,14.7998047 Z M67.4116211,18.4365234 C67.4116211,17.9990212 67.257814,17.661785 66.9501953,17.4248047 C66.6425766,17.1878243 66.0877319,16.9485689 65.2856445,16.7070312 C64.4835572,16.4654936 63.8455427,16.1966161 63.371582,15.9003906 C62.4646765,15.3307263 62.0112305,14.5878952 62.0112305,13.671875 C62.0112305,12.8697877 62.3382129,12.208987 62.9921875,11.6894531 C63.6461621,11.1699193 64.4949492,10.9101562 65.5385742,10.9101562 C66.231286,10.9101562 66.8487929,11.0377591 67.3911133,11.2929688 C67.9334337,11.5481784 68.3595362,11.9116187 68.6694336,12.3833008 C68.979331,12.8549828 69.1342773,13.3779268 69.1342773,13.9521484 L67.4116211,13.9521484 C67.4116211,13.4326146 67.2486995,13.0258804 66.9228516,12.7319336 C66.5970036,12.4379868 66.1310252,12.2910156 65.5249023,12.2910156 C64.9597954,12.2910156 64.5211604,12.4117826 64.2089844,12.6533203 C63.8968083,12.894858 63.7407227,13.2320942 63.7407227,13.6650391 C63.7407227,14.0296242 63.9093408,14.3338204 64.246582,14.5776367 C64.5838233,14.821453 65.1398073,15.0584298 65.9145508,15.2885742 C66.6892942,15.5187186 67.3113583,15.7807602 67.7807617,16.074707 C68.2501651,16.3686538 68.5942372,16.70589 68.8129883,17.0864258 C69.0317394,17.4669615 69.1411133,17.9124323 69.1411133,18.4228516 C69.1411133,19.2522828 68.8232454,19.9119442 68.1875,20.4018555 C67.5517546,20.8917668 66.6892958,21.1367188 65.6000977,21.1367188 C64.880042,21.1367188 64.218102,21.0034193 63.6142578,20.7368164 C63.0104136,20.4702135 62.5410173,20.1022159 62.2060547,19.6328125 C61.8710921,19.1634091 61.7036133,18.6165396 61.7036133,17.9921875 L63.4331055,17.9921875 C63.4331055,18.5572945 63.6199526,18.9947901 63.9936523,19.3046875 C64.3673521,19.6145849 64.9028285,19.7695312 65.6000977,19.7695312 C66.2016632,19.7695312 66.6539698,19.6476249 66.9570312,19.4038086 C67.2600927,19.1599923 67.4116211,18.8375671 67.4116211,18.4365234 Z M73.7553711,21.1367188 C72.7026315,21.1367188 71.8492871,20.8051791 71.1953125,20.1420898 C70.5413379,19.4790006 70.2143555,18.5960342 70.2143555,17.4931641 L70.2143555,17.2880859 C70.2143555,16.549801 70.3567694,15.8901396 70.6416016,15.309082 C70.9264337,14.7280244 71.3263321,14.2757178 71.8413086,13.9521484 C72.3562851,13.6285791 72.9304981,13.4667969 73.5639648,13.4667969 C74.5711313,13.4667969 75.3492811,13.7880827 75.8984375,14.4306641 C76.4475939,15.0732454 76.722168,15.982416 76.722168,17.1582031 L76.722168,17.828125 L71.8891602,17.828125 C71.9392906,18.4388051 72.1432274,18.9218732 72.5009766,19.2773438 C72.8587257,19.6328143 73.3087538,19.8105469 73.8510742,19.8105469 C74.6121457,19.8105469 75.2319312,19.5029328 75.7104492,18.8876953 L76.605957,19.7421875 C76.3097316,20.184247 75.9143905,20.5271798 75.4199219,20.7709961 C74.9254533,21.0148124 74.3706085,21.1367188 73.7553711,21.1367188 Z M73.5571289,14.7998047 C73.1013975,14.7998047 72.7333998,14.9593083 72.453125,15.2783203 C72.1728502,15.5973323 71.9939783,16.0416638 71.9165039,16.6113281 L75.081543,16.6113281 L75.081543,16.4882812 C75.0450845,15.9322889 74.896974,15.5118829 74.637207,15.2270508 C74.3774401,14.9422186 74.0174177,14.7998047 73.5571289,14.7998047 Z M81.8833008,15.1210938 C81.6645497,15.0846352 81.438966,15.0664062 81.206543,15.0664062 C80.4454715,15.0664062 79.9327813,15.35807 79.668457,15.9414062 L79.668457,21 L78.0073242,21 L78.0073242,13.6035156 L79.5932617,13.6035156 L79.6342773,14.4306641 C80.035321,13.7880827 80.591305,13.4667969 81.3022461,13.4667969 C81.5392264,13.4667969 81.735188,13.4986976 81.8901367,13.5625 L81.8833008,15.1210938 Z M85.6635742,18.8945312 L87.2290039,13.6035156 L88.9448242,13.6035156 L86.3813477,21 L84.9389648,21 L82.3549805,13.6035156 L84.0776367,13.6035156 L85.6635742,18.8945312 Z M93.1489258,21.1367188 C92.0961861,21.1367188 91.2428418,20.8051791 90.5888672,20.1420898 C89.9348926,19.4790006 89.6079102,18.5960342 89.6079102,17.4931641 L89.6079102,17.2880859 C89.6079102,16.549801 89.7503241,15.8901396 90.0351562,15.309082 C90.3199884,14.7280244 90.7198867,14.2757178 91.2348633,13.9521484 C91.7498398,13.6285791 92.3240528,13.4667969 92.9575195,13.4667969 C93.964686,13.4667969 94.7428358,13.7880827 95.2919922,14.4306641 C95.8411486,15.0732454 96.1157227,15.982416 96.1157227,17.1582031 L96.1157227,17.828125 L91.2827148,17.828125 C91.3328453,18.4388051 91.5367821,18.9218732 91.8945312,19.2773438 C92.2522804,19.6328143 92.7023085,19.8105469 93.2446289,19.8105469 C94.0057004,19.8105469 94.6254859,19.5029328 95.1040039,18.8876953 L95.9995117,19.7421875 C95.7032863,20.184247 95.3079452,20.5271798 94.8134766,20.7709961 C94.3190079,21.0148124 93.7641632,21.1367188 93.1489258,21.1367188 Z M92.9506836,14.7998047 C92.4949521,14.7998047 92.1269545,14.9593083 91.8466797,15.2783203 C91.5664048,15.5973323 91.3875329,16.0416638 91.3100586,16.6113281 L94.4750977,16.6113281 L94.4750977,16.4882812 C94.4386391,15.9322889 94.2905286,15.5118829 94.0307617,15.2270508 C93.7709948,14.9422186 93.4109724,14.7998047 92.9506836,14.7998047 Z M101.276855,15.1210938 C101.058104,15.0846352 100.832521,15.0664062 100.600098,15.0664062 C99.8390261,15.0664062 99.326336,15.35807 99.0620117,15.9414062 L99.0620117,21 L97.4008789,21 L97.4008789,13.6035156 L98.9868164,13.6035156 L99.027832,14.4306641 C99.4288757,13.7880827 99.9848597,13.4667969 100.695801,13.4667969 C100.932781,13.4667969 101.128743,13.4986976 101.283691,13.5625 L101.276855,15.1210938 Z" id="Button-Text" fill="#FFFFFF"></path>
            </g>
            <g id="Button/Standard/Secondary" transform="translate(183.000000, 47.000000)">
                <g id="Rectangle-2">
                    <use fill-opacity="0" fill="#FFFFFF" fill-rule="evenodd" xlink:href="#path-1"></use>
                    <rect stroke="#0C7481" stroke-width="1" x="0.5" y="0.5" width="117" height="31" rx="2"></rect>
                </g>
                <path d="M19.1499023,18.4365234 C19.1499023,17.9990212 18.9960953,17.661785 18.6884766,17.4248047 C18.3808578,17.1878243 17.8260131,16.9485689 17.0239258,16.7070312 C16.2218384,16.4654936 15.583824,16.1966161 15.1098633,15.9003906 C14.2029577,15.3307263 13.7495117,14.5878952 13.7495117,13.671875 C13.7495117,12.8697877 14.0764941,12.208987 14.7304688,11.6894531 C15.3844434,11.1699193 16.2332305,10.9101562 17.2768555,10.9101562 C17.9695673,10.9101562 18.5870741,11.0377591 19.1293945,11.2929688 C19.671715,11.5481784 20.0978175,11.9116187 20.4077148,12.3833008 C20.7176122,12.8549828 20.8725586,13.3779268 20.8725586,13.9521484 L19.1499023,13.9521484 C19.1499023,13.4326146 18.9869808,13.0258804 18.6611328,12.7319336 C18.3352848,12.4379868 17.8693064,12.2910156 17.2631836,12.2910156 C16.6980766,12.2910156 16.2594417,12.4117826 15.9472656,12.6533203 C15.6350896,12.894858 15.4790039,13.2320942 15.4790039,13.6650391 C15.4790039,14.0296242 15.647622,14.3338204 15.9848633,14.5776367 C16.3221046,14.821453 16.8780886,15.0584298 17.652832,15.2885742 C18.4275755,15.5187186 19.0496396,15.7807602 19.519043,16.074707 C19.9884464,16.3686538 20.3325184,16.70589 20.5512695,17.0864258 C20.7700206,17.4669615 20.8793945,17.9124323 20.8793945,18.4228516 C20.8793945,19.2522828 20.5615266,19.9119442 19.9257812,20.4018555 C19.2900359,20.8917668 18.4275771,21.1367188 17.3383789,21.1367188 C16.6183232,21.1367188 15.9563832,21.0034193 15.3525391,20.7368164 C14.7486949,20.4702135 14.2792985,20.1022159 13.9443359,19.6328125 C13.6093733,19.1634091 13.4418945,18.6165396 13.4418945,17.9921875 L15.1713867,17.9921875 C15.1713867,18.5572945 15.3582338,18.9947901 15.7319336,19.3046875 C16.1056334,19.6145849 16.6411098,19.7695312 17.3383789,19.7695312 C17.9399444,19.7695312 18.3922511,19.6476249 18.6953125,19.4038086 C18.9983739,19.1599923 19.1499023,18.8375671 19.1499023,18.4365234 Z M26.6557617,21 C26.5828447,20.8587233 26.5190432,20.6285823 26.4643555,20.3095703 C25.935707,20.8610054 25.288578,21.1367188 24.5229492,21.1367188 C23.780107,21.1367188 23.1739932,20.9248068 22.7045898,20.5009766 C22.2351865,20.0771463 22.0004883,19.553063 22.0004883,18.9287109 C22.0004883,18.1402955 22.2932913,17.5353211 22.8789062,17.1137695 C23.4645212,16.6922179 24.3019151,16.4814453 25.3911133,16.4814453 L26.409668,16.4814453 L26.409668,15.9960938 C26.409668,15.6132793 26.3025727,15.3068045 26.0883789,15.0766602 C25.8741851,14.8465158 25.548342,14.7314453 25.1108398,14.7314453 C24.7325827,14.7314453 24.42269,14.8260082 24.1811523,15.0151367 C23.9396147,15.2042653 23.8188477,15.44466 23.8188477,15.7363281 L22.1577148,15.7363281 C22.1577148,15.3307271 22.2921536,14.9513364 22.5610352,14.5981445 C22.8299167,14.2449527 23.1956357,13.9681 23.6582031,13.7675781 C24.1207705,13.5670563 24.6368787,13.4667969 25.206543,13.4667969 C26.0724327,13.4667969 26.7628555,13.6844054 27.277832,14.1196289 C27.7928086,14.5548524 28.0571288,15.1666627 28.0708008,15.9550781 L28.0708008,19.2910156 C28.0708008,19.9563835 28.1642243,20.4873027 28.3510742,20.8837891 L28.3510742,21 L26.6557617,21 Z M24.8305664,19.8037109 C25.158693,19.8037109 25.4674465,19.7239591 25.7568359,19.5644531 C26.0462254,19.4049471 26.2638339,19.1907566 26.409668,18.921875 L26.409668,17.5273438 L25.5141602,17.5273438 C24.8989227,17.5273438 24.4363622,17.634439 24.1264648,17.8486328 C23.8165675,18.0628266 23.6616211,18.3658835 23.6616211,18.7578125 C23.6616211,19.0768245 23.7675771,19.330891 23.9794922,19.5200195 C24.1914073,19.7091481 24.4750959,19.8037109 24.8305664,19.8037109 Z M32.315918,18.8945312 L33.8813477,13.6035156 L35.597168,13.6035156 L33.0336914,21 L31.5913086,21 L29.0073242,13.6035156 L30.7299805,13.6035156 L32.315918,18.8945312 Z M39.8012695,21.1367188 C38.7485299,21.1367188 37.8951856,20.8051791 37.2412109,20.1420898 C36.5872363,19.4790006 36.2602539,18.5960342 36.2602539,17.4931641 L36.2602539,17.2880859 C36.2602539,16.549801 36.4026678,15.8901396 36.6875,15.309082 C36.9723322,14.7280244 37.3722305,14.2757178 37.887207,13.9521484 C38.4021836,13.6285791 38.9763966,13.4667969 39.6098633,13.4667969 C40.6170298,13.4667969 41.3951795,13.7880827 41.9443359,14.4306641 C42.4934923,15.0732454 42.7680664,15.982416 42.7680664,17.1582031 L42.7680664,17.828125 L37.9350586,17.828125 C37.9851891,18.4388051 38.1891258,18.9218732 38.546875,19.2773438 C38.9046242,19.6328143 39.3546522,19.8105469 39.8969727,19.8105469 C40.6580442,19.8105469 41.2778296,19.5029328 41.7563477,18.8876953 L42.6518555,19.7421875 C42.35563,20.184247 41.9602889,20.5271798 41.4658203,20.7709961 C40.9713517,21.0148124 40.416507,21.1367188 39.8012695,21.1367188 Z M39.6030273,14.7998047 C39.1472959,14.7998047 38.7792983,14.9593083 38.4990234,15.2783203 C38.2187486,15.5973323 38.0398767,16.0416638 37.9624023,16.6113281 L41.1274414,16.6113281 L41.1274414,16.4882812 C41.0909829,15.9322889 40.9428724,15.5118829 40.6831055,15.2270508 C40.4233385,14.9422186 40.0633161,14.7998047 39.6030273,14.7998047 Z M54.4848633,12.4414062 L51.3813477,12.4414062 L51.3813477,21 L49.6655273,21 L49.6655273,12.4414062 L46.5893555,12.4414062 L46.5893555,11.046875 L54.4848633,11.046875 L54.4848633,12.4414062 Z M58.2788086,21.1367188 C57.226069,21.1367188 56.3727246,20.8051791 55.71875,20.1420898 C55.0647754,19.4790006 54.737793,18.5960342 54.737793,17.4931641 L54.737793,17.2880859 C54.737793,16.549801 54.8802069,15.8901396 55.1650391,15.309082 C55.4498712,14.7280244 55.8497696,14.2757178 56.3647461,13.9521484 C56.8797226,13.6285791 57.4539356,13.4667969 58.0874023,13.4667969 C59.0945688,13.4667969 59.8727186,13.7880827 60.421875,14.4306641 C60.9710314,15.0732454 61.2456055,15.982416 61.2456055,17.1582031 L61.2456055,17.828125 L56.4125977,17.828125 C56.4627281,18.4388051 56.6666649,18.9218732 57.0244141,19.2773438 C57.3821632,19.6328143 57.8321913,19.8105469 58.3745117,19.8105469 C59.1355832,19.8105469 59.7553687,19.5029328 60.2338867,18.8876953 L61.1293945,19.7421875 C60.8331691,20.184247 60.437828,20.5271798 59.9433594,20.7709961 C59.4488908,21.0148124 58.894046,21.1367188 58.2788086,21.1367188 Z M58.0805664,14.7998047 C57.624835,14.7998047 57.2568373,14.9593083 56.9765625,15.2783203 C56.6962877,15.5973323 56.5174158,16.0416638 56.4399414,16.6113281 L59.6049805,16.6113281 L59.6049805,16.4882812 C59.568522,15.9322889 59.4204115,15.5118829 59.1606445,15.2270508 C58.9008776,14.9422186 58.5408552,14.7998047 58.0805664,14.7998047 Z M64.0961914,13.6035156 L64.144043,14.3759766 C64.6635768,13.7698537 65.3745072,13.4667969 66.2768555,13.4667969 C67.2657927,13.4667969 67.9425437,13.8450483 68.3071289,14.6015625 C68.844892,13.8450483 69.6013949,13.4667969 70.5766602,13.4667969 C71.3924194,13.4667969 71.9996725,13.6923806 72.3984375,14.1435547 C72.7972025,14.5947288 73.0011393,15.2600867 73.0102539,16.1396484 L73.0102539,21 L71.3491211,21 L71.3491211,16.1875 C71.3491211,15.7180966 71.2465831,15.3740245 71.0415039,15.1552734 C70.8364248,14.9365223 70.4969099,14.8271484 70.0229492,14.8271484 C69.6446921,14.8271484 69.3359387,14.9285472 69.0966797,15.1313477 C68.8574207,15.3341481 68.6899419,15.5996077 68.5942383,15.9277344 L68.6010742,21 L66.9399414,21 L66.9399414,16.1328125 C66.9171548,15.2623654 66.4728233,14.8271484 65.6069336,14.8271484 C64.9415657,14.8271484 64.4698907,15.0983046 64.1918945,15.640625 L64.1918945,21 L62.5307617,21 L62.5307617,13.6035156 L64.0961914,13.6035156 Z M81.1928711,17.3769531 C81.1928711,18.5208391 80.9331081,19.4334276 80.4135742,20.1147461 C79.8940404,20.7960646 79.1967817,21.1367188 78.3217773,21.1367188 C77.5105754,21.1367188 76.8611678,20.8701199 76.3735352,20.3369141 L76.3735352,23.84375 L74.7124023,23.84375 L74.7124023,13.6035156 L76.2436523,13.6035156 L76.3120117,14.3554688 C76.7996444,13.7630179 77.4627237,13.4667969 78.3012695,13.4667969 C79.2036178,13.4667969 79.9111302,13.8028938 80.4238281,14.4750977 C80.936526,15.1473015 81.1928711,16.0803977 81.1928711,17.2744141 L81.1928711,17.3769531 Z M79.5385742,17.2333984 C79.5385742,16.4951135 79.391603,15.9095074 79.0976562,15.4765625 C78.8037095,15.0436176 78.3833035,14.8271484 77.8364258,14.8271484 C77.1573859,14.8271484 76.6697606,15.1074191 76.3735352,15.6679688 L76.3735352,18.9492188 C76.6743179,19.5234404 77.1665005,19.8105469 77.8500977,19.8105469 C78.3787461,19.8105469 78.7923162,19.5974956 79.0908203,19.1713867 C79.3893244,18.7452778 79.5385742,18.0992882 79.5385742,17.2333984 Z M84.3647461,21 L82.7036133,21 L82.7036133,10.5 L84.3647461,10.5 L84.3647461,21 Z M90.5922852,21 C90.5193681,20.8587233 90.4555667,20.6285823 90.4008789,20.3095703 C89.8722304,20.8610054 89.2251015,21.1367188 88.4594727,21.1367188 C87.7166304,21.1367188 87.1105167,20.9248068 86.6411133,20.5009766 C86.1717099,20.0771463 85.9370117,19.553063 85.9370117,18.9287109 C85.9370117,18.1402955 86.2298148,17.5353211 86.8154297,17.1137695 C87.4010446,16.6922179 88.2384386,16.4814453 89.3276367,16.4814453 L90.3461914,16.4814453 L90.3461914,15.9960938 C90.3461914,15.6132793 90.2390961,15.3068045 90.0249023,15.0766602 C89.8107086,14.8465158 89.4848655,14.7314453 89.0473633,14.7314453 C88.6691062,14.7314453 88.3592134,14.8260082 88.1176758,15.0151367 C87.8761381,15.2042653 87.7553711,15.44466 87.7553711,15.7363281 L86.0942383,15.7363281 C86.0942383,15.3307271 86.228677,14.9513364 86.4975586,14.5981445 C86.7664401,14.2449527 87.1321591,13.9681 87.5947266,13.7675781 C88.057294,13.5670563 88.5734021,13.4667969 89.1430664,13.4667969 C90.0089562,13.4667969 90.6993789,13.6844054 91.2143555,14.1196289 C91.729332,14.5548524 91.9936523,15.1666627 92.0073242,15.9550781 L92.0073242,19.2910156 C92.0073242,19.9563835 92.1007478,20.4873027 92.2875977,20.8837891 L92.2875977,21 L90.5922852,21 Z M88.7670898,19.8037109 C89.0952165,19.8037109 89.4039699,19.7239591 89.6933594,19.5644531 C89.9827488,19.4049471 90.2003573,19.1907566 90.3461914,18.921875 L90.3461914,17.5273438 L89.4506836,17.5273438 C88.8354461,17.5273438 88.3728857,17.634439 88.0629883,17.8486328 C87.7530909,18.0628266 87.5981445,18.3658835 87.5981445,18.7578125 C87.5981445,19.0768245 87.7041005,19.330891 87.9160156,19.5200195 C88.1279307,19.7091481 88.4116193,19.8037109 88.7670898,19.8037109 Z M95.8286133,11.8056641 L95.8286133,13.6035156 L97.1342773,13.6035156 L97.1342773,14.8339844 L95.8286133,14.8339844 L95.8286133,18.9628906 C95.8286133,19.2454441 95.8844395,19.4493809 95.9960938,19.574707 C96.107748,19.7000332 96.3071275,19.7626953 96.5942383,19.7626953 C96.7856455,19.7626953 96.9793284,19.7399091 97.175293,19.6943359 L97.175293,20.9794922 C96.7970359,21.0843104 96.4324562,21.1367188 96.081543,21.1367188 C94.8054949,21.1367188 94.1674805,20.4326242 94.1674805,19.0244141 L94.1674805,14.8339844 L92.9506836,14.8339844 L92.9506836,13.6035156 L94.1674805,13.6035156 L94.1674805,11.8056641 L95.8286133,11.8056641 Z M101.659668,21.1367188 C100.606928,21.1367188 99.753584,20.8051791 99.0996094,20.1420898 C98.4456348,19.4790006 98.1186523,18.5960342 98.1186523,17.4931641 L98.1186523,17.2880859 C98.1186523,16.549801 98.2610663,15.8901396 98.5458984,15.309082 C98.8307306,14.7280244 99.2306289,14.2757178 99.7456055,13.9521484 C100.260582,13.6285791 100.834795,13.4667969 101.468262,13.4667969 C102.475428,13.4667969 103.253578,13.7880827 103.802734,14.4306641 C104.351891,15.0732454 104.626465,15.982416 104.626465,17.1582031 L104.626465,17.828125 L99.793457,17.828125 C99.8435875,18.4388051 100.047524,18.9218732 100.405273,19.2773438 C100.763023,19.6328143 101.213051,19.8105469 101.755371,19.8105469 C102.516443,19.8105469 103.136228,19.5029328 103.614746,18.8876953 L104.510254,19.7421875 C104.214028,20.184247 103.818687,20.5271798 103.324219,20.7709961 C102.82975,21.0148124 102.274905,21.1367188 101.659668,21.1367188 Z M101.461426,14.7998047 C101.005694,14.7998047 100.637697,14.9593083 100.357422,15.2783203 C100.077147,15.5973323 99.8982751,16.0416638 99.8208008,16.6113281 L102.98584,16.6113281 L102.98584,16.4882812 C102.949381,15.9322889 102.801271,15.5118829 102.541504,15.2270508 C102.281737,14.9422186 101.921715,14.7998047 101.461426,14.7998047 Z" id="Button-Text" fill="#0C7481"></path>
            </g>
            <g id="Button/Standard/Tertiary" transform="translate(301.000000, 47.000000)">
                <rect id="Rectangle-2" fill-opacity="0" fill="#FFFFFF" opacity="0" x="0" y="0" width="96" height="32" rx="2"></rect>
                <path d="M35.1484375,17.7597656 C35.0481766,18.8216199 34.6562534,19.6498994 33.9726562,20.2446289 C33.2890591,20.8393584 32.3798885,21.1367188 31.2451172,21.1367188 C30.4521445,21.1367188 29.7537465,20.9487323 29.1499023,20.5727539 C28.5460582,20.1967755 28.0800798,19.6624384 27.7519531,18.9697266 C27.4238265,18.2770148 27.2529298,17.4726608 27.2392578,16.5566406 L27.2392578,15.6269531 C27.2392578,14.6881463 27.4055973,13.8610062 27.7382812,13.1455078 C28.0709652,12.4300094 28.5483367,11.8785827 29.1704102,11.4912109 C29.7924836,11.1038392 30.5113892,10.9101562 31.3271484,10.9101562 C32.4254612,10.9101562 33.309567,11.2086559 33.9794922,11.8056641 C34.6494174,12.4026723 35.039062,13.2457628 35.1484375,14.3349609 L33.4257812,14.3349609 C33.3437496,13.6194626 33.1352556,13.1033544 32.800293,12.7866211 C32.4653304,12.4698877 31.9742871,12.3115234 31.3271484,12.3115234 C30.5751916,12.3115234 29.9975606,12.5860975 29.5942383,13.1352539 C29.190916,13.6844103 28.9847006,14.4899035 28.9755859,15.5517578 L28.9755859,16.4335938 C28.9755859,17.50912 29.1681296,18.3294243 29.5532227,18.8945312 C29.9383157,19.4596382 30.5022749,19.7421875 31.2451172,19.7421875 C31.924157,19.7421875 32.4345686,19.5895198 32.7763672,19.2841797 C33.1181658,18.9788396 33.334635,18.4707067 33.4257812,17.7597656 L35.1484375,17.7597656 Z M40.9521484,21 C40.8792314,20.8587233 40.81543,20.6285823 40.7607422,20.3095703 C40.2320937,20.8610054 39.5849648,21.1367188 38.8193359,21.1367188 C38.0764937,21.1367188 37.47038,20.9248068 37.0009766,20.5009766 C36.5315732,20.0771463 36.296875,19.553063 36.296875,18.9287109 C36.296875,18.1402955 36.5896781,17.5353211 37.175293,17.1137695 C37.7609079,16.6922179 38.5983018,16.4814453 39.6875,16.4814453 L40.7060547,16.4814453 L40.7060547,15.9960938 C40.7060547,15.6132793 40.5989594,15.3068045 40.3847656,15.0766602 C40.1705718,14.8465158 39.8447288,14.7314453 39.4072266,14.7314453 C39.0289695,14.7314453 38.7190767,14.8260082 38.4775391,15.0151367 C38.2360014,15.2042653 38.1152344,15.44466 38.1152344,15.7363281 L36.4541016,15.7363281 C36.4541016,15.3307271 36.5885403,14.9513364 36.8574219,14.5981445 C37.1263034,14.2449527 37.4920224,13.9681 37.9545898,13.7675781 C38.4171573,13.5670563 38.9332654,13.4667969 39.5029297,13.4667969 C40.3688194,13.4667969 41.0592422,13.6844054 41.5742188,14.1196289 C42.0891953,14.5548524 42.3535156,15.1666627 42.3671875,15.9550781 L42.3671875,19.2910156 C42.3671875,19.9563835 42.460611,20.4873027 42.6474609,20.8837891 L42.6474609,21 L40.9521484,21 Z M39.1269531,19.8037109 C39.4550798,19.8037109 39.7638332,19.7239591 40.0532227,19.5644531 C40.3426121,19.4049471 40.5602206,19.1907566 40.7060547,18.921875 L40.7060547,17.5273438 L39.8105469,17.5273438 C39.1953094,17.5273438 38.7327489,17.634439 38.4228516,17.8486328 C38.1129542,18.0628266 37.9580078,18.3658835 37.9580078,18.7578125 C37.9580078,19.0768245 38.0639638,19.330891 38.2758789,19.5200195 C38.487794,19.7091481 38.7714826,19.8037109 39.1269531,19.8037109 Z M45.6484375,13.6035156 L45.6962891,14.4580078 C46.2431668,13.7971972 46.9609331,13.4667969 47.8496094,13.4667969 C49.3899817,13.4667969 50.173828,14.348624 50.2011719,16.1123047 L50.2011719,21 L48.5400391,21 L48.5400391,16.2080078 C48.5400391,15.7386044 48.4386403,15.3911144 48.2358398,15.1655273 C48.0330394,14.9399403 47.7014997,14.8271484 47.2412109,14.8271484 C46.5712857,14.8271484 46.0722673,15.1302053 45.7441406,15.7363281 L45.7441406,21 L44.0830078,21 L44.0830078,13.6035156 L45.6484375,13.6035156 Z M54.9316406,19.8105469 C55.3463562,19.8105469 55.6904283,19.6897799 55.9638672,19.4482422 C56.2373061,19.2067045 56.3831379,18.9082049 56.4013672,18.5527344 L57.9667969,18.5527344 C57.9485676,19.0130231 57.8050144,19.4425436 57.5361328,19.8413086 C57.2672513,20.2400736 56.9026716,20.5556629 56.4423828,20.7880859 C55.9820941,21.020509 55.4853542,21.1367188 54.9521484,21.1367188 C53.9176381,21.1367188 53.0973338,20.8017612 52.4912109,20.1318359 C51.8850881,19.4619107 51.5820312,18.5367898 51.5820312,17.3564453 L51.5820312,17.1855469 C51.5820312,16.0598902 51.8828095,15.1586948 52.484375,14.4819336 C53.0859405,13.8051724 53.9062448,13.4667969 54.9453125,13.4667969 C55.8248742,13.4667969 56.5415011,13.723142 57.0952148,14.2358398 C57.6489285,14.7485377 57.939453,15.4218708 57.9667969,16.2558594 L56.4013672,16.2558594 C56.3831379,15.8320291 56.2384454,15.4833998 55.9672852,15.2099609 C55.6961249,14.9365221 55.3509136,14.7998047 54.9316406,14.7998047 C54.3938775,14.7998047 53.9791681,14.994627 53.6875,15.3842773 C53.3958319,15.7739277 53.2477214,16.3652304 53.2431641,17.1582031 L53.2431641,17.4248047 C53.2431641,18.226892 53.3878566,18.8250306 53.6772461,19.2192383 C53.9666356,19.613446 54.3847629,19.8105469 54.9316406,19.8105469 Z M62.4785156,21.1367188 C61.425776,21.1367188 60.5724317,20.8051791 59.918457,20.1420898 C59.2644824,19.4790006 58.9375,18.5960342 58.9375,17.4931641 L58.9375,17.2880859 C58.9375,16.549801 59.0799139,15.8901396 59.3647461,15.309082 C59.6495782,14.7280244 60.0494766,14.2757178 60.5644531,13.9521484 C61.0794297,13.6285791 61.6536427,13.4667969 62.2871094,13.4667969 C63.2942759,13.4667969 64.0724256,13.7880827 64.621582,14.4306641 C65.1707384,15.0732454 65.4453125,15.982416 65.4453125,17.1582031 L65.4453125,17.828125 L60.6123047,17.828125 C60.6624351,18.4388051 60.8663719,18.9218732 61.2241211,19.2773438 C61.5818703,19.6328143 62.0318983,19.8105469 62.5742188,19.8105469 C63.3352903,19.8105469 63.9550757,19.5029328 64.4335938,18.8876953 L65.3291016,19.7421875 C65.0328761,20.184247 64.637535,20.5271798 64.1430664,20.7709961 C63.6485978,21.0148124 63.0937531,21.1367188 62.4785156,21.1367188 Z M62.2802734,14.7998047 C61.824542,14.7998047 61.4565444,14.9593083 61.1762695,15.2783203 C60.8959947,15.5973323 60.7171228,16.0416638 60.6396484,16.6113281 L63.8046875,16.6113281 L63.8046875,16.4882812 C63.768229,15.9322889 63.6201185,15.5118829 63.3603516,15.2270508 C63.1005846,14.9422186 62.7405622,14.7998047 62.2802734,14.7998047 Z M68.5009766,21 L66.8398438,21 L66.8398438,10.5 L68.5009766,10.5 L68.5009766,21 Z" id="Button-Text" fill="#0C7481"></path>
            </g>
        </g>
    </g>
</svg>