<?xml version="1.0" encoding="UTF-8" standalone="no"?>
<svg width="605px" height="249px" viewBox="0 0 605 249" version="1.1" xmlns="http://www.w3.org/2000/svg" xmlns:xlink="http://www.w3.org/1999/xlink">
    <!-- Generator: Sketch 47.1 (45422) - http://www.bohemiancoding.com/sketch -->
    <title>buttons-hero</title>
    <desc>Created with Sketch.</desc>
    <defs></defs>
    <g id="Page-1" stroke="none" stroke-width="1" fill="none" fill-rule="evenodd">
        <g id="buttons-hero">
            <g transform="translate(17.000000, 8.000000)">
                <g id="Shape" transform="translate(0.000000, 39.000000)">
                    <g id="Group">
                        <g id="Group-4">
                            <path d="M3.7,49.3 L3.7,52.6 L2.5,52.6 L2.5,44.1 L5.6,44.1 C6.5,44.1 7.3,44.3 7.8,44.8 C8.3,45.3 8.6,45.9 8.6,46.7 C8.6,47.5 8.3,48.2 7.8,48.6 C7.3,49 6.5,49.3 5.6,49.3 L3.7,49.3 Z M3.7,48.4 L5.7,48.4 C6.3,48.4 6.8,48.3 7.1,48 C7.4,47.7 7.6,47.3 7.6,46.8 C7.6,46.3 7.4,45.9 7.1,45.6 C6.8,45.3 6.3,45 5.8,45 L3.7,45 C3.7,45 3.7,48.4 3.7,48.4 Z" id="Shape" fill="#9E9E9E" fill-rule="nonzero"></path>
                            <path d="M13,47.3 C12.8,47.3 12.7,47.3 12.5,47.3 C11.8,47.3 11.3,47.6 11.1,48.2 L11.1,52.7 L10,52.7 L10,46.4 L11.1,46.4 L11.1,47.1 C11.5,46.5 12,46.3 12.6,46.3 C12.8,46.3 13,46.3 13.1,46.4 L13,47.3 L13,47.3 Z" id="Shape" fill="#9E9E9E" fill-rule="nonzero"></path>
                            <path d="M14,44.6 C14,44.4 14.1,44.3 14.2,44.2 C14.3,44.1 14.5,44 14.7,44 C14.9,44 15.1,44.1 15.2,44.2 C15.3,44.3 15.4,44.5 15.4,44.6 C15.4,44.7 15.3,44.9 15.2,45 C15.1,45.1 14.9,45.2 14.7,45.2 C14.5,45.2 14.3,45.1 14.2,45 C14.1,44.9 14,44.8 14,44.6 Z M15.2,52.6 L14.1,52.6 L14.1,46.3 L15.2,46.3 L15.2,52.6 Z" id="Shape" fill="#9E9E9E" fill-rule="nonzero"></path>
                            <path d="M17.9,46.3 L17.9,47 C18.4,46.5 19,46.2 19.8,46.2 C20.7,46.2 21.3,46.5 21.6,47.2 C21.8,46.9 22.1,46.6 22.4,46.5 C22.7,46.4 23.1,46.2 23.6,46.2 C25,46.2 25.7,46.9 25.7,48.4 L25.7,52.6 L24.6,52.6 L24.6,48.4 C24.6,47.9 24.5,47.6 24.3,47.4 C24.1,47.2 23.7,47.1 23.3,47.1 C22.9,47.1 22.6,47.2 22.3,47.5 C22,47.8 21.9,48.1 21.8,48.5 L21.8,52.7 L20.7,52.7 L20.7,48.5 C20.7,47.6 20.2,47.1 19.3,47.1 C18.6,47.1 18.1,47.4 17.8,48 L17.8,52.6 L16.7,52.6 L16.7,46.3 L17.9,46.3 L17.9,46.3 Z" id="Shape" fill="#9E9E9E" fill-rule="nonzero"></path>
                            <path d="M31.4,52.6 C31.3,52.5 31.3,52.3 31.2,51.9 C30.7,52.4 30.1,52.7 29.4,52.7 C28.8,52.7 28.3,52.5 27.9,52.2 C27.5,51.9 27.3,51.4 27.3,50.9 C27.3,50.2 27.6,49.7 28.1,49.4 C28.6,49.1 29.3,48.9 30.2,48.9 L31.3,48.9 L31.3,48.4 C31.3,48 31.2,47.7 31,47.5 C30.8,47.3 30.4,47.2 30,47.2 C29.6,47.2 29.3,47.3 29,47.5 C28.7,47.7 28.5,47.8 28.5,48.1 L27.4,48.1 C27.4,47.8 27.5,47.5 27.7,47.2 C27.9,46.9 28.2,46.7 28.6,46.5 C29,46.3 29.4,46.2 29.9,46.2 C30.6,46.2 31.2,46.4 31.6,46.7 C32,47 32.2,47.6 32.2,48.2 L32.2,51.1 C32.2,51.7 32.3,52.1 32.4,52.5 L32.4,52.6 L31.4,52.6 Z M29.6,51.8 C29.9,51.8 30.3,51.7 30.6,51.5 C30.9,51.3 31.1,51.1 31.3,50.8 L31.3,49.5 L30.5,49.5 C29.2,49.5 28.5,49.9 28.5,50.7 C28.5,51 28.6,51.3 28.8,51.5 C29,51.7 29.2,51.8 29.6,51.8 Z" id="Shape" fill="#9E9E9E" fill-rule="nonzero"></path>
                            <path d="M37,47.3 C36.8,47.3 36.7,47.3 36.5,47.3 C35.8,47.3 35.3,47.6 35.1,48.2 L35.1,52.7 L34,52.7 L34,46.4 L35.1,46.4 L35.1,47.1 C35.5,46.5 36,46.3 36.6,46.3 C36.8,46.3 37,46.3 37.1,46.4 L37,47.3 L37,47.3 Z" id="Shape" fill="#9E9E9E" fill-rule="nonzero"></path>
                            <path d="M40.1,51.1 L41.6,46.3 L42.8,46.3 L40.3,53.6 C39.9,54.7 39.3,55.2 38.4,55.2 L38.2,55.2 L37.8,55.1 L37.8,54.2 L38.1,54.2 C38.5,54.2 38.8,54.1 39,54 C39.2,53.9 39.4,53.6 39.5,53.2 L39.7,52.6 L37.4,46.3 L38.6,46.3 L40.1,51.1 Z" id="Shape" fill="#9E9E9E" fill-rule="nonzero"></path>
                            <path d="M3.6,32.4 C2.2,32.4 1.1,31.3 1.1,29.9 L1.1,3.9 C1.1,2.5 2.2,1.4 3.6,1.4 L111.4,1.4 C112.8,1.4 113.9,2.5 113.9,3.9 L113.9,29.9 C113.9,31.3 112.8,32.4 111.4,32.4 L3.6,32.4 Z" id="Shape" fill="#0E7C84" fill-rule="nonzero"></path>
                            <path d="M111.4,1.9 C112.5,1.9 113.4,2.8 113.4,3.9 L113.4,29.9 C113.4,31 112.5,31.9 111.4,31.9 L3.6,31.9 C2.5,31.9 1.6,31 1.6,29.9 L1.6,3.9 C1.6,2.8 2.5,1.9 3.6,1.9 L111.4,1.9 L111.4,1.9 Z M111.4,0.9 L3.6,0.9 C1.9,0.9 0.6,2.2 0.6,3.9 L0.6,29.9 C0.6,31.6 1.9,32.9 3.6,32.9 L111.4,32.9 C113.1,32.9 114.4,31.6 114.4,29.9 L114.4,3.9 C114.4,2.3 113,0.9 111.4,0.9 L111.4,0.9 Z" id="Shape" fill="#0E7C84" fill-rule="nonzero"></path>
                            <path d="M11.8,23.4 L11.8,13.4 L15.2,13.4 C16.3,13.4 17.2,13.6 17.8,14.1 C18.4,14.6 18.7,15.2 18.7,16.1 C18.7,16.6 18.6,17 18.3,17.3 C18,17.6 17.7,17.9 17.2,18.1 C17.7,18.2 18.2,18.5 18.4,18.9 C18.7,19.3 18.8,19.8 18.8,20.4 C18.8,21.3 18.5,22.1 17.9,22.6 C17.3,23.1 16.4,23.4 15.3,23.4 L11.8,23.4 Z M13.5,17.6 L15.2,17.6 C15.7,17.6 16.2,17.5 16.5,17.2 C16.8,17 17,16.6 17,16.2 C17,15.7 16.9,15.4 16.6,15.1 C16.3,14.8 15.9,14.8 15.3,14.8 L13.5,14.8 L13.5,17.6 Z M13.5,18.9 L13.5,22 L15.4,22 C15.9,22 16.4,21.9 16.7,21.6 C17,21.3 17.2,21 17.2,20.5 C17.2,19.5 16.7,18.9 15.6,18.9 L13.5,18.9 Z" id="Shape" fill="#FFFFFF" fill-rule="nonzero"></path>
                            <path d="M27.9,13.4 L27.9,20.1 C27.9,21.2 27.6,22 26.9,22.6 C26.2,23.2 25.3,23.5 24.2,23.5 C23.1,23.5 22.2,23.2 21.5,22.6 C20.8,22 20.5,21.1 20.5,20.1 L20.5,13.5 L22.2,13.5 L22.2,20.2 C22.2,20.9 22.4,21.4 22.7,21.7 C23,22 23.5,22.2 24.2,22.2 C25.5,22.2 26.2,21.5 26.2,20.1 L26.2,13.5 L27.9,13.5 L27.9,13.4 L27.9,13.4 Z" id="Shape" fill="#FFFFFF" fill-rule="nonzero"></path>
                            <path d="M36.9,14.8 L33.8,14.8 L33.8,23.4 L32.1,23.4 L32.1,14.8 L29,14.8 L29,13.4 L36.9,13.4 C36.9,13.4 36.9,14.8 36.9,14.8 Z" id="Shape" fill="#FFFFFF" fill-rule="nonzero"></path>
                            <path d="M45.5,14.8 L42.4,14.8 L42.4,23.4 L40.7,23.4 L40.7,14.8 L37.6,14.8 L37.6,13.4 L45.5,13.4 C45.5,13.4 45.5,14.8 45.5,14.8 Z" id="Shape" fill="#FFFFFF" fill-rule="nonzero"></path>
                            <path d="M54.6,18.6 C54.6,19.6 54.4,20.4 54.1,21.2 C53.8,21.9 53.3,22.5 52.7,22.9 C52.1,23.3 51.4,23.5 50.5,23.5 C49.7,23.5 49,23.3 48.3,22.9 C47.7,22.5 47.2,21.9 46.8,21.2 C46.4,20.5 46.3,19.6 46.3,18.7 L46.3,18.1 C46.3,17.1 46.5,16.3 46.8,15.5 C47.1,14.7 47.6,14.2 48.3,13.8 C48.9,13.4 49.6,13.2 50.5,13.2 C51.4,13.2 52,13.4 52.7,13.8 C53.3,14.2 53.8,14.8 54.2,15.5 C54.5,16.2 54.7,17.1 54.7,18.1 L54.7,18.6 L54.6,18.6 Z M52.9,18.1 C52.9,17 52.7,16.2 52.3,15.6 C51.9,15 51.3,14.7 50.5,14.7 C49.8,14.7 49.2,15 48.7,15.6 C48.3,16.2 48.1,17 48.1,18.1 L48.1,18.7 C48.1,19.8 48.3,20.6 48.7,21.2 C49.1,21.8 49.7,22.1 50.5,22.1 C51.3,22.1 51.9,21.8 52.3,21.2 C52.7,20.6 52.9,19.8 52.9,18.6 L52.9,18.1 Z" id="Shape" fill="#FFFFFF" fill-rule="nonzero"></path>
                            <polygon id="Shape" fill="#FFFFFF" fill-rule="nonzero" points="64.2 23.4 62.5 23.4 58.1 16.3 58.1 23.4 56.4 23.4 56.4 13.4 58.1 13.4 62.6 20.5 62.6 13.4 64.3 13.4"></polygon>
                            <polygon id="Shape" fill="#FFFFFF" fill-rule="nonzero" points="76.5 14.8 73.4 14.8 73.4 23.4 71.7 23.4 71.7 14.8 68.6 14.8 68.6 13.4 76.5 13.4"></polygon>
                            <polygon id="Shape" fill="#FFFFFF" fill-rule="nonzero" points="83.6 18.9 79.5 18.9 79.5 22 84.3 22 84.3 23.4 77.8 23.4 77.8 13.4 84.3 13.4 84.3 14.8 79.6 14.8 79.6 17.5 83.7 17.5 83.7 18.9"></polygon>
                            <polygon id="Shape" fill="#FFFFFF" fill-rule="nonzero" points="89.2 17 91.3 13.4 93.3 13.4 90.3 18.3 93.4 23.3 91.4 23.3 89.3 19.6 87.2 23.3 85.2 23.3 88.3 18.3 85.3 13.4 87.3 13.4"></polygon>
                            <polygon id="Shape" fill="#FFFFFF" fill-rule="nonzero" points="101.8 14.8 98.7 14.8 98.7 23.4 97 23.4 97 14.8 93.9 14.8 93.9 13.4 101.8 13.4"></polygon>
                            <path d="M127.3,161.1 L2.7,161.1 C1.5,161.1 0.6,160.1 0.6,159 L0.6,133.3 C0.6,132.1 1.6,131.2 2.7,131.2 L127.2,131.2 C128.4,131.2 129.3,132.2 129.3,133.3 L129.3,159 C129.4,160.1 128.5,161.1 127.3,161.1 Z" id="Shape" fill="#0D7580" fill-rule="nonzero"></path>
                            <path d="M12.2,151.5 L12.2,141.5 L15.6,141.5 C16.7,141.5 17.6,141.7 18.2,142.2 C18.8,142.7 19.1,143.3 19.1,144.2 C19.1,144.7 19,145.1 18.7,145.4 C18.4,145.7 18.1,146 17.6,146.2 C18.1,146.3 18.6,146.6 18.8,147 C19.1,147.4 19.2,147.9 19.2,148.5 C19.2,149.4 18.9,150.2 18.3,150.7 C17.7,151.2 16.8,151.5 15.7,151.5 L12.2,151.5 Z M14,145.8 L15.7,145.8 C16.2,145.8 16.7,145.7 17,145.4 C17.3,145.2 17.5,144.8 17.5,144.4 C17.5,143.9 17.4,143.6 17.1,143.3 C16.8,143 16.4,143 15.8,143 L14,143 L14,145.8 Z M14,147 L14,150.1 L15.9,150.1 C16.4,150.1 16.9,150 17.2,149.7 C17.5,149.4 17.7,149.1 17.7,148.6 C17.7,147.6 17.2,147 16.1,147 L14,147 Z" id="Shape" fill="#FFFFFF" fill-rule="nonzero"></path>
                            <path d="M28.3,141.6 L28.3,148.3 C28.3,149.4 28,150.2 27.3,150.8 C26.6,151.4 25.7,151.7 24.6,151.7 C23.5,151.7 22.6,151.4 21.9,150.8 C21.2,150.2 20.9,149.3 20.9,148.3 L20.9,141.7 L22.6,141.7 L22.6,148.4 C22.6,149.1 22.8,149.6 23.1,149.9 C23.4,150.3 23.9,150.4 24.6,150.4 C25.9,150.4 26.6,149.7 26.6,148.3 L26.6,141.7 L28.3,141.7 L28.3,141.6 Z" id="Shape" fill="#FFFFFF" fill-rule="nonzero"></path>
                            <polygon id="Shape" fill="#FFFFFF" fill-rule="nonzero" points="37.4 143 34.3 143 34.3 151.6 32.6 151.6 32.6 143 29.5 143 29.5 141.6 37.4 141.6"></polygon>
                            <polygon id="Shape" fill="#FFFFFF" fill-rule="nonzero" points="46 143 42.9 143 42.9 151.6 41.2 151.6 41.2 143 38.1 143 38.1 141.6 46 141.6"></polygon>
                            <path d="M55,146.8 C55,147.8 54.8,148.6 54.5,149.4 C54.2,150.1 53.7,150.7 53.1,151.1 C52.5,151.5 51.8,151.7 50.9,151.7 C50.1,151.7 49.4,151.5 48.7,151.1 C48.1,150.7 47.6,150.1 47.2,149.4 C46.9,148.7 46.7,147.8 46.7,146.9 L46.7,146.3 C46.7,145.3 46.9,144.5 47.2,143.7 C47.5,143 48,142.4 48.7,142 C49.3,141.6 50,141.4 50.9,141.4 C51.7,141.4 52.4,141.6 53.1,142 C53.7,142.4 54.2,143 54.6,143.7 C54.9,144.4 55.1,145.3 55.1,146.3 L55.1,146.8 L55,146.8 Z M53.3,146.3 C53.3,145.2 53.1,144.4 52.7,143.8 C52.3,143.2 51.7,142.9 50.9,142.9 C50.2,142.9 49.6,143.2 49.1,143.8 C48.7,144.4 48.5,145.2 48.5,146.3 L48.5,146.9 C48.5,148 48.7,148.8 49.1,149.4 C49.5,150 50.1,150.3 50.9,150.3 C51.7,150.3 52.3,150 52.7,149.4 C53.1,148.8 53.3,148 53.3,146.8 L53.3,146.3 Z" id="Shape" fill="#FFFFFF" fill-rule="nonzero"></path>
                            <polygon id="Shape" fill="#FFFFFF" fill-rule="nonzero" points="64.7 151.5 63 151.5 58.6 144.4 58.6 151.5 56.9 151.5 56.9 141.5 58.6 141.5 63.1 148.6 63.1 141.5 64.8 141.5 64.8 151.5"></polygon>
                            <polygon id="Shape" fill="#FFFFFF" fill-rule="nonzero" points="77 143 73.9 143 73.9 151.6 72.2 151.6 72.2 143 69.1 143 69.1 141.6 77 141.6"></polygon>
                            <polygon id="Shape" fill="#FFFFFF" fill-rule="nonzero" points="84.1 147.1 80 147.1 80 150.2 84.8 150.2 84.8 151.6 78.3 151.6 78.3 141.6 84.8 141.6 84.8 143 80 143 80 145.7 84.1 145.7"></polygon>
                            <polygon id="Shape" fill="#FFFFFF" fill-rule="nonzero" points="89.6 145.2 91.7 141.6 93.7 141.6 90.7 146.5 93.8 151.5 91.8 151.5 89.7 147.8 87.6 151.5 85.6 151.5 88.7 146.5 85.7 141.6 87.7 141.6"></polygon>
                            <polygon id="Shape" fill="#FFFFFF" fill-rule="nonzero" points="102.2 143 99.1 143 99.1 151.6 97.4 151.6 97.4 143 94.3 143 94.3 141.6 102.2 141.6"></polygon>
                            <path d="M111.5,145.3 L114,147.8 C114.1,147.9 114.3,148 114.5,148 C114.7,148 114.9,147.9 115,147.8 L117.5,145.3 C117.6,145.2 117.7,145 117.7,144.8 C117.7,144.6 117.6,144.4 117.5,144.3 C117.4,144.2 117.2,144.1 117,144.1 C116.8,144.1 116.6,144.2 116.5,144.3 L114.5,146.3 L112.5,144.3 C112.4,144.2 112.2,144.1 112,144.1 C111.8,144.1 111.6,144.2 111.5,144.3 C111.4,144.4 111.3,144.6 111.3,144.8 C111.3,145 111.4,145.1 111.5,145.3 Z" id="Shape" fill="#FFFFFF" fill-rule="nonzero"></path>
                            <path d="M2.8,178 L2.8,181.3 L1.7,181.3 L1.7,172.8 L4.8,172.8 C5.7,172.8 6.5,173 7,173.5 C7.5,174 7.8,174.6 7.8,175.4 C7.8,176.2 7.5,176.9 7,177.3 C6.5,177.7 5.7,178 4.8,178 L2.8,178 L2.8,178 Z M2.8,177.1 L4.8,177.1 C5.4,177.1 5.9,177 6.2,176.7 C6.5,176.4 6.7,176 6.7,175.5 C6.7,175 6.5,174.6 6.2,174.3 C5.9,174 5.4,173.8 4.9,173.8 L2.8,173.8 L2.8,177.1 L2.8,177.1 Z" id="Shape" fill="#9E9E9E" fill-rule="nonzero"></path>
                            <path d="M12.2,176 C12,176 11.9,176 11.7,176 C11,176 10.5,176.3 10.3,176.9 L10.3,181.4 L9.2,181.4 L9.2,175 L10.3,175 L10.3,175.7 C10.7,175.1 11.2,174.9 11.8,174.9 C12,174.9 12.2,174.9 12.3,175 L12.3,176 L12.2,176 Z" id="Shape" fill="#9E9E9E" fill-rule="nonzero"></path>
                            <path d="M13.2,173.4 C13.2,173.2 13.3,173.1 13.4,173 C13.5,172.9 13.7,172.8 13.9,172.8 C14.1,172.8 14.3,172.9 14.4,173 C14.5,173.1 14.6,173.3 14.6,173.4 C14.6,173.5 14.5,173.7 14.4,173.8 C14.3,173.9 14.1,174 13.9,174 C13.7,174 13.5,173.9 13.4,173.8 C13.3,173.7 13.2,173.5 13.2,173.4 Z M14.4,181.4 L13.3,181.4 L13.3,175 L14.4,175 L14.4,181.4 Z" id="Shape" fill="#9E9E9E" fill-rule="nonzero"></path>
                            <path d="M17.1,175 L17.1,175.7 C17.6,175.2 18.2,174.9 19,174.9 C19.9,174.9 20.5,175.2 20.8,175.9 C21,175.6 21.3,175.3 21.6,175.2 C21.9,175.1 22.3,174.9 22.8,174.9 C24.2,174.9 24.9,175.6 24.9,177.1 L24.9,181.3 L23.8,181.3 L23.8,177.1 C23.8,176.6 23.7,176.3 23.5,176.1 C23.3,175.9 22.9,175.8 22.5,175.8 C22.1,175.8 21.8,175.9 21.5,176.2 C21.2,176.5 21.1,176.8 21,177.2 L21,181.4 L20,181.4 L20,177.2 C20,176.3 19.5,175.8 18.6,175.8 C17.9,175.8 17.4,176.1 17.1,176.7 L17.1,181.3 L16,181.3 L16,175 L17.1,175 Z" id="Shape" fill="#9E9E9E" fill-rule="nonzero"></path>
                            <path d="M30.5,181.4 C30.4,181.3 30.4,181.1 30.3,180.7 C29.8,181.2 29.2,181.5 28.5,181.5 C27.9,181.5 27.4,181.3 27,181 C26.6,180.7 26.4,180.2 26.4,179.7 C26.4,179 26.7,178.5 27.2,178.2 C27.7,177.9 28.4,177.7 29.3,177.7 L30.4,177.7 L30.4,177 C30.4,176.6 30.3,176.3 30.1,176.1 C29.9,175.9 29.5,175.8 29.1,175.8 C28.7,175.8 28.4,175.9 28.1,176.1 C27.8,176.3 27.7,176.5 27.7,176.8 L26.6,176.8 C26.6,176.5 26.7,176.2 26.9,175.9 C27.1,175.6 27.4,175.4 27.8,175.2 C28.2,175 28.6,174.9 29.1,174.9 C29.8,174.9 30.4,175.1 30.8,175.4 C31.2,175.7 31.4,176.3 31.4,176.9 L31.4,179.8 C31.4,180.4 31.5,180.8 31.6,181.2 L31.6,181.3 L30.5,181.3 L30.5,181.4 Z M28.7,180.6 C29,180.6 29.4,180.5 29.7,180.3 C30,180.1 30.2,179.9 30.4,179.6 L30.4,178.3 L29.6,178.3 C28.3,178.3 27.6,178.7 27.6,179.5 C27.6,179.8 27.7,180.1 27.9,180.3 C28.1,180.5 28.4,180.6 28.7,180.6 Z" id="Shape" fill="#9E9E9E" fill-rule="nonzero"></path>
                            <path d="M36.2,176 C36,176 35.9,176 35.7,176 C35,176 34.5,176.3 34.3,176.9 L34.3,181.4 L33.2,181.4 L33.2,175 L34.3,175 L34.3,175.7 C34.7,175.1 35.2,174.9 35.8,174.9 C36,174.9 36.2,174.9 36.3,175 L36.3,176 L36.2,176 Z" id="Shape" fill="#9E9E9E" fill-rule="nonzero"></path>
                            <path d="M39.3,179.8 L40.8,175 L42,175 L39.5,182.3 C39.1,183.4 38.5,183.9 37.6,183.9 L37.4,183.9 L37,183.8 L37,183 L37.3,183 C37.7,183 38,182.9 38.2,182.8 C38.4,182.7 38.6,182.4 38.7,182 L38.9,181.4 L36.6,175.1 L37.8,175.1 L39.3,179.8 Z" id="Shape" fill="#9E9E9E" fill-rule="nonzero"></path>
                            <path d="M0.9,103.7 L0.9,92.3 L4.1,92.3 C5.1,92.3 6,92.5 6.7,93 C7.5,93.4 8,94.1 8.5,94.9 C8.9,95.7 9.1,96.6 9.1,97.7 L9.1,98.4 C9.1,99.5 8.9,100.4 8.5,101.2 C8.1,102 7.5,102.6 6.7,103.1 C5.9,103.5 5,103.8 4,103.8 L0.9,103.8 L0.9,103.7 Z M2.4,93.6 L2.4,102.5 L4,102.5 C5.2,102.5 6.1,102.1 6.7,101.4 C7.3,100.7 7.7,99.7 7.7,98.3 L7.7,97.6 C7.7,96.3 7.4,95.3 6.8,94.6 C6.2,93.9 5.3,93.5 4.2,93.5 L2.4,93.5 L2.4,93.6 Z" id="Shape" fill="#424242" fill-rule="nonzero"></path>
                            <path d="M15.2,96.6 C15,96.6 14.7,96.5 14.5,96.5 C13.6,96.5 12.9,96.9 12.6,97.7 L12.6,103.7 L11.2,103.7 L11.2,95.2 L12.6,95.2 L12.6,96.2 C13.1,95.4 13.7,95.1 14.6,95.1 C14.9,95.1 15.1,95.1 15.2,95.2 L15.2,96.6 L15.2,96.6 Z" id="Shape" fill="#424242" fill-rule="nonzero"></path>
                            <path d="M16,99.4 C16,98.6 16.2,97.8 16.5,97.2 C16.8,96.5 17.3,96 17.9,95.7 C18.5,95.3 19.1,95.2 19.9,95.2 C21.1,95.2 22,95.6 22.7,96.4 C23.4,97.2 23.8,98.3 23.8,99.6 L23.8,99.7 C23.8,100.5 23.6,101.3 23.3,101.9 C23,102.6 22.5,103.1 21.9,103.4 C21.3,103.8 20.6,103.9 19.9,103.9 C18.8,103.9 17.8,103.5 17.1,102.7 C16.4,101.9 16,100.8 16,99.5 L16,99.4 Z M17.5,99.6 C17.5,100.5 17.7,101.3 18.2,101.9 C18.6,102.5 19.2,102.8 19.9,102.8 C20.6,102.8 21.2,102.5 21.7,101.9 C22.1,101.3 22.3,100.5 22.3,99.5 C22.3,98.6 22.1,97.8 21.6,97.2 C21.2,96.6 20.6,96.3 19.8,96.3 C19.1,96.3 18.5,96.6 18.1,97.2 C17.7,97.7 17.5,98.5 17.5,99.6 Z" id="Shape" fill="#424242" fill-rule="nonzero"></path>
                            <path d="M32.7,99.6 C32.7,100.9 32.4,101.9 31.8,102.7 C31.2,103.5 30.4,103.9 29.4,103.9 C28.4,103.9 27.6,103.6 27,102.9 L27,107 L25.6,107 L25.6,95.3 L26.9,95.3 L27,96.2 C27.6,95.5 28.4,95.1 29.5,95.1 C30.5,95.1 31.3,95.5 31.9,96.2 C32.5,97 32.8,98 32.8,99.4 L32.8,99.6 L32.7,99.6 Z M31.2,99.4 C31.2,98.4 31,97.7 30.6,97.1 C30.2,96.5 29.6,96.3 28.9,96.3 C28,96.3 27.4,96.7 26.9,97.5 L26.9,101.5 C27.3,102.3 28,102.7 28.9,102.7 C29.6,102.7 30.1,102.4 30.6,101.9 C31,101.3 31.2,100.5 31.2,99.4 Z" id="Shape" fill="#424242" fill-rule="nonzero"></path>
                            <path d="M39,99.7 C39,98.4 39.3,97.4 39.9,96.6 C40.5,95.8 41.3,95.4 42.3,95.4 C43.3,95.4 44.1,95.7 44.7,96.4 L44.7,92 L46.1,92 L46.1,104 L44.9,104 L44.8,103.1 C44.2,103.8 43.4,104.2 42.4,104.2 C41.4,104.2 40.6,103.8 40,103 C39.4,102.2 39.1,101.2 39.1,99.9 L39.1,99.7 L39,99.7 Z M40.5,99.9 C40.5,100.9 40.7,101.6 41.1,102.1 C41.5,102.6 42,102.9 42.7,102.9 C43.6,102.9 44.3,102.5 44.7,101.7 L44.7,97.8 C44.3,97 43.6,96.6 42.7,96.6 C42,96.6 41.4,96.9 41,97.4 C40.7,98 40.5,98.8 40.5,99.9 Z" id="Shape" fill="#424242" fill-rule="nonzero"></path>
                            <text id="-" font-family="Roboto-Regular, Roboto" font-size="14" font-weight="normal" fill="#333333">
                                <tspan x="34.1376953" y="104">-</tspan>
                            </text>
                            <path d="M48,99.2 C48,98.4 48.2,97.6 48.5,97 C48.8,96.3 49.3,95.8 49.9,95.5 C50.5,95.1 51.1,95 51.9,95 C53.1,95 54,95.4 54.7,96.2 C55.4,97 55.8,98.1 55.8,99.4 L55.8,99.5 C55.8,100.3 55.6,101.1 55.3,101.7 C55,102.4 54.5,102.9 53.9,103.2 C53.3,103.6 52.6,103.7 51.9,103.7 C50.8,103.7 49.8,103.3 49.1,102.5 C48.4,101.7 48,100.6 48,99.3 L48,99.2 Z M49.5,99.4 C49.5,100.3 49.7,101.1 50.2,101.7 C50.6,102.3 51.2,102.6 51.9,102.6 C52.6,102.6 53.2,102.3 53.7,101.7 C54.1,101.1 54.3,100.3 54.3,99.3 C54.3,98.4 54.1,97.6 53.6,97 C53.2,96.4 52.6,96.1 51.8,96.1 C51.1,96.1 50.5,96.4 50.1,97 C49.7,97.5 49.5,98.3 49.5,99.4 Z" id="Shape" fill="#424242" fill-rule="nonzero"></path>
                            <polygon id="Shape" fill="#424242" fill-rule="nonzero" points="64.5 101.5 66.1 95 67.5 95 65 103.5 63.8 103.5 61.7 97.1 59.7 103.5 58.5 103.5 56 95 57.4 95 59.1 101.3 61.1 95 62.3 95"></polygon>
                            <path d="M71.3,95.1 L71.3,96.2 C71.9,95.4 72.8,95 73.8,95 C75.6,95 76.5,96 76.5,98 L76.5,103.6 L75.1,103.6 L75.1,98 C75.1,97.4 75,96.9 74.7,96.6 C74.4,96.3 74,96.2 73.4,96.2 C72.9,96.2 72.5,96.3 72.2,96.6 C71.8,96.8 71.6,97.2 71.4,97.6 L71.4,103.6 L70,103.6 L70,95.1 L71.3,95.1 Z" id="Shape" fill="#424242" fill-rule="nonzero"></path>
                        </g>
                    </g>
                </g>
                <g id="Group-3" transform="translate(216.000000, 40.000000)" fill-rule="nonzero">
                    <g id="Shape">
                        <g id="Group" transform="translate(1.000000, 41.000000)" fill="#9E9E9E">
                            <path d="M3.1,5.5 C2.1,5.2 1.4,4.9 1,4.5 C0.6,4.1 0.4,3.6 0.4,3 C0.4,2.3 0.7,1.8 1.2,1.3 C1.7,0.8 2.4,0.6 3.3,0.6 C3.9,0.6 4.4,0.7 4.9,0.9 C5.4,1.1 5.7,1.4 6,1.8 C6.3,2.2 6.4,2.6 6.4,3.1 L5.3,3.1 C5.3,2.6 5.1,2.2 4.8,1.9 C4.5,1.6 4,1.5 3.4,1.5 C2.8,1.5 2.4,1.6 2.1,1.9 C1.8,2.1 1.6,2.5 1.6,2.9 C1.6,3.2 1.7,3.5 2,3.8 C2.3,4 2.8,4.3 3.5,4.5 C4.2,4.7 4.8,4.9 5.2,5.2 C5.6,5.5 5.9,5.7 6.1,6 C6.3,6.3 6.4,6.7 6.4,7.1 C6.4,7.8 6.1,8.3 5.6,8.8 C5.1,9.3 4.3,9.4 3.4,9.4 C2.8,9.4 2.3,9.3 1.8,9.1 C1.3,8.9 0.9,8.6 0.6,8.2 C0.3,7.8 0.2,7.4 0.2,6.9 L1.3,6.9 C1.3,7.4 1.5,7.8 1.9,8.1 C2.3,8.4 2.8,8.5 3.4,8.5 C4,8.5 4.4,8.4 4.8,8.1 C5.2,7.8 5.3,7.5 5.3,7.1 C5.3,6.7 5.2,6.4 4.9,6.1 C4.6,5.8 3.9,5.7 3.1,5.5 Z" id="Shape"></path>
                            <path d="M10.2,9.4 C9.3,9.4 8.6,9.1 8.1,8.6 C7.6,8.1 7.3,7.3 7.3,6.3 L7.3,6.1 C7.3,5.5 7.4,4.9 7.7,4.4 C8,3.9 8.3,3.5 8.7,3.2 C9.1,2.9 9.6,2.8 10.1,2.8 C10.9,2.8 11.6,3.1 12,3.6 C12.4,4.1 12.7,4.9 12.7,5.9 L12.7,6.4 L8.4,6.4 C8.4,7 8.6,7.5 8.9,7.9 C9.2,8.3 9.7,8.5 10.2,8.5 C10.6,8.5 10.9,8.4 11.2,8.3 C11.5,8.2 11.7,7.9 11.9,7.7 L12.6,8.2 C12,9 11.3,9.4 10.2,9.4 Z M10.1,3.7 C9.7,3.7 9.3,3.9 9,4.2 C8.7,4.5 8.5,5 8.4,5.5 L11.6,5.5 L11.6,5.4 C11.6,4.8 11.4,4.4 11.2,4.1 C11,3.8 10.5,3.7 10.1,3.7 Z" id="Shape"></path>
                            <path d="M16.5,8.5 C16.9,8.5 17.2,8.4 17.5,8.1 C17.8,7.8 17.9,7.6 18,7.2 L19,7.2 C19,7.6 18.9,7.9 18.6,8.2 C18.3,8.5 18.1,8.8 17.7,9 C17.3,9.2 16.9,9.3 16.5,9.3 C15.6,9.3 15,9 14.4,8.4 C13.8,7.8 13.6,7 13.6,6 L13.6,6 C13.6,5.4 13.7,4.8 13.9,4.4 C14.1,4 14.5,3.5 14.9,3.3 C15.3,3.1 15.8,2.9 16.4,2.9 C17.1,2.9 17.7,3.1 18.2,3.5 C18.7,3.9 18.9,4.5 19,5.2 L18,5.2 C18,4.8 17.8,4.5 17.5,4.2 C17.2,3.9 16.9,3.8 16.5,3.8 C15.9,3.8 15.5,4 15.2,4.4 C14.9,4.8 14.7,5.4 14.7,6.1 L14.7,6.3 C14.7,7 14.9,7.6 15.2,8 C15.5,8.4 15.9,8.5 16.5,8.5 Z" id="Shape"></path>
                            <path d="M19.9,6.1 C19.9,5.5 20,4.9 20.3,4.4 C20.6,3.9 20.9,3.5 21.3,3.3 C21.7,3.1 22.2,2.9 22.8,2.9 C23.7,2.9 24.4,3.2 24.9,3.8 C25.4,4.4 25.7,5.2 25.7,6.2 L25.7,6.3 C25.7,6.9 25.6,7.5 25.3,8 C25,8.5 24.7,8.9 24.3,9.1 C23.9,9.3 23.4,9.5 22.8,9.5 C21.9,9.5 21.2,9.2 20.7,8.6 C20.2,8 19.9,7.1 19.9,6.1 L19.9,6.1 Z M21,6.2 C21,6.9 21.2,7.5 21.5,7.9 C21.8,8.3 22.3,8.5 22.8,8.5 C23.4,8.5 23.8,8.3 24.1,7.9 C24.4,7.5 24.6,6.9 24.6,6.1 C24.6,5.4 24.4,4.8 24.1,4.4 C23.8,4 23.3,3.8 22.8,3.8 C22.3,3.8 21.8,4 21.5,4.4 C21.2,4.8 21,5.4 21,6.2 Z" id="Shape"></path>
                            <path d="M28.1,3 L28.1,3.8 C28.6,3.2 29.2,2.9 30,2.9 C31.3,2.9 32,3.7 32,5.2 L32,9.4 L30.9,9.4 L30.9,5.2 C30.9,4.7 30.8,4.4 30.6,4.2 C30.4,4 30.1,3.9 29.6,3.9 C29.2,3.9 28.9,4 28.7,4.2 C28.5,4.4 28.2,4.6 28.1,4.9 L28.1,9.4 L27,9.4 L27,3 L28.1,3 Z" id="Shape"></path>
                            <path d="M33.4,6.1 C33.4,5.1 33.6,4.3 34.1,3.8 C34.6,3.3 35.2,2.9 35.9,2.9 C36.6,2.9 37.2,3.2 37.7,3.7 L37.7,0.4 L38.8,0.4 L38.8,9.4 L37.8,9.4 L37.7,8.7 C37.3,9.2 36.7,9.5 35.9,9.5 C35.2,9.5 34.6,9.2 34.1,8.6 C33.6,8 33.4,7.1 33.4,6.1 L33.4,6.1 Z M34.5,6.2 C34.5,6.9 34.6,7.5 34.9,7.9 C35.2,8.3 35.6,8.5 36.1,8.5 C36.8,8.5 37.3,8.2 37.6,7.6 L37.6,4.7 C37.3,4.1 36.8,3.8 36.1,3.8 C35.6,3.8 35.2,4 34.9,4.4 C34.6,4.8 34.5,5.4 34.5,6.2 Z" id="Shape"></path>
                            <path d="M44.3,9.3 C44.2,9.2 44.2,9 44.1,8.6 C43.6,9.1 43,9.4 42.3,9.4 C41.7,9.4 41.2,9.2 40.8,8.9 C40.4,8.6 40.2,8.1 40.2,7.6 C40.2,6.9 40.5,6.4 41,6.1 C41.5,5.8 42.2,5.6 43.1,5.6 L44.2,5.6 L44.2,5 C44.2,4.6 44.1,4.3 43.9,4.1 C43.7,3.9 43.3,3.8 42.9,3.8 C42.5,3.8 42.2,3.9 41.9,4.1 C41.6,4.3 41.5,4.5 41.5,4.8 L40.4,4.8 C40.4,4.5 40.5,4.2 40.7,3.9 C40.9,3.6 41.2,3.4 41.6,3.2 C42,3 42.4,2.9 42.9,2.9 C43.6,2.9 44.2,3.1 44.6,3.4 C45,3.7 45.2,4.3 45.2,4.9 L45.2,7.8 C45.2,8.4 45.3,8.8 45.4,9.2 L45.4,9.3 C45.4,9.3 44.3,9.3 44.3,9.3 Z M42.5,8.5 C42.8,8.5 43.2,8.4 43.5,8.2 C43.8,8 44,7.8 44.2,7.5 L44.2,6.2 L43.4,6.2 C42.1,6.2 41.4,6.6 41.4,7.4 C41.4,7.7 41.5,8 41.7,8.2 C41.9,8.4 42.2,8.5 42.5,8.5 Z" id="Shape"></path>
                            <path d="M50,3.9 C49.8,3.9 49.7,3.9 49.5,3.9 C48.8,3.9 48.3,4.2 48.1,4.8 L48.1,9.3 L47,9.3 L47,3 L48.1,3 L48.1,3.7 C48.5,3.1 49,2.9 49.6,2.9 C49.8,2.9 50,2.9 50.1,3 L50.1,3.9 L50,3.9 Z" id="Shape"></path>
                            <path d="M53.1,7.7 L54.6,2.9 L55.8,2.9 L53.3,10.2 C52.9,11.3 52.3,11.8 51.4,11.8 L51.2,11.8 L50.8,11.7 L50.8,10.8 L51.1,10.8 C51.5,10.8 51.8,10.7 52,10.6 C52.2,10.5 52.4,10.2 52.5,9.8 L52.7,9.2 L50.4,2.9 L51.6,2.9 L53.1,7.7 Z" id="Shape"></path>
                        </g>
                        <g id="Group">
                            <path d="M111.5,1.7 C112.6,1.7 113.4,2.6 113.4,3.6 L113.4,27.8 C113.4,28.9 112.5,29.7 111.5,29.7 L3.5,29.7 C2.4,29.7 1.6,28.8 1.6,27.8 L1.6,3.6 C1.6,2.5 2.5,1.7 3.5,1.7 L111.5,1.7 L111.5,1.7 Z M111.5,0.7 L3.5,0.7 C1.9,0.7 0.6,2 0.6,3.6 L0.6,27.8 C0.6,29.4 1.9,30.7 3.5,30.7 L111.5,30.7 C113.1,30.7 114.4,29.4 114.4,27.8 L114.4,3.6 C114.4,2 113.1,0.7 111.5,0.7 L111.5,0.7 Z" id="Shape" fill="#117C84"></path>
                            <g id="Shape" transform="translate(11.000000, 11.000000)" fill="#0E7C84">
                                <path d="M0.8,10.1 L0.8,0.1 L4.2,0.1 C5.3,0.1 6.2,0.3 6.8,0.8 C7.4,1.3 7.7,1.9 7.7,2.8 C7.7,3.3 7.6,3.7 7.3,4 C7,4.3 6.7,4.6 6.2,4.8 C6.7,4.9 7.2,5.2 7.4,5.6 C7.7,6 7.8,6.5 7.8,7.1 C7.8,8 7.5,8.8 6.9,9.3 C6.3,9.8 5.4,10.1 4.3,10.1 L0.8,10.1 Z M2.6,4.3 L4.3,4.3 C4.8,4.3 5.3,4.2 5.6,3.9 C5.9,3.7 6.1,3.3 6.1,2.9 C6.1,2.4 6,2.1 5.7,1.8 C5.4,1.5 5,1.5 4.4,1.5 L2.7,1.5 L2.7,4.3 L2.6,4.3 Z M2.6,5.6 L2.6,8.7 L4.5,8.7 C5,8.7 5.5,8.6 5.8,8.3 C6.1,8 6.3,7.7 6.3,7.2 C6.3,6.2 5.8,5.6 4.7,5.6 L2.6,5.6 Z"></path>
                                <path d="M16.9,0.1 L16.9,6.8 C16.9,7.9 16.6,8.7 15.9,9.3 C15.2,9.9 14.3,10.2 13.2,10.2 C12.1,10.2 11.2,9.9 10.5,9.3 C9.8,8.7 9.5,7.8 9.5,6.8 L9.5,0.2 L11.2,0.2 L11.2,6.9 C11.2,7.6 11.4,8.1 11.7,8.4 C12,8.8 12.5,8.9 13.2,8.9 C14.5,8.9 15.2,8.2 15.2,6.8 L15.2,0.2 L16.9,0.2 L16.9,0.1 Z"></path>
                                <polygon points="26 1.5 22.9 1.5 22.9 10.1 21.2 10.1 21.2 1.5 18.1 1.5 18.1 0.1 26 0.1"></polygon>
                                <polygon points="34.6 1.5 31.5 1.5 31.5 10.1 29.8 10.1 29.8 1.5 26.7 1.5 26.7 0.1 34.6 0.1"></polygon>
                                <path d="M43.6,5.4 C43.6,6.4 43.4,7.2 43.1,8 C42.8,8.7 42.3,9.3 41.7,9.7 C41.1,10.1 40.4,10.3 39.5,10.3 C38.7,10.3 38,10.1 37.3,9.7 C36.7,9.3 36.2,8.7 35.8,8 C35.5,7.3 35.3,6.4 35.3,5.5 L35.3,4.9 C35.3,3.9 35.5,3.1 35.8,2.3 C36.1,1.6 36.6,1 37.3,0.6 C37.9,0.2 38.6,1.42108547e-14 39.5,1.42108547e-14 C40.3,1.42108547e-14 41,0.2 41.7,0.6 C42.3,1 42.8,1.6 43.2,2.3 C43.5,3 43.7,3.9 43.7,4.9 L43.6,5.4 L43.6,5.4 Z M41.9,4.9 C41.9,3.8 41.7,3 41.3,2.4 C40.9,1.8 40.3,1.5 39.5,1.5 C38.8,1.5 38.2,1.8 37.7,2.4 C37.3,3 37.1,3.8 37.1,4.9 L37.1,5.5 C37.1,6.6 37.3,7.4 37.7,8 C38.1,8.6 38.7,8.9 39.5,8.9 C40.3,8.9 40.9,8.6 41.3,8 C41.7,7.4 41.9,6.6 41.9,5.4 L41.9,4.9 Z"></path>
                                <polygon points="53.3 10.1 51.6 10.1 47.2 3 47.2 10.1 45.4 10.1 45.4 0.1 47.1 0.1 51.6 7.2 51.6 0.1 53.3 0.1"></polygon>
                                <polygon points="65.6 1.5 62.5 1.5 62.5 10.1 60.8 10.1 60.8 1.5 57.7 1.5 57.7 0.1 65.6 0.1"></polygon>
                                <polygon points="72.7 5.6 68.6 5.6 68.6 8.7 73.4 8.7 73.4 10.1 66.9 10.1 66.9 0.1 73.4 0.1 73.4 1.5 68.7 1.5 68.7 4.2 72.8 4.2"></polygon>
                                <polygon points="78.2 3.7 80.3 0.1 82.3 0.1 79.3 5 82.4 10 80.4 10 78.3 6.3 76.2 10 74.2 10 77.3 5 74.3 0.1 76.3 0.1"></polygon>
                                <polygon points="90.9 1.5 87.8 1.5 87.8 10.1 86.1 10.1 86.1 1.5 83 1.5 83 0.1 90.9 0.1"></polygon>
                            </g>
                        </g>
                    </g>
                    <g id="Shape" transform="translate(1.000000, 132.000000)">
                        <g id="Group" transform="translate(1.000000, 0.000000)" fill="#0D7580">
                            <g id="Shape">
                                <g id="Group" transform="translate(10.000000, 9.000000)">
                                    <path d="M0.4,10.4 L0.4,0.4 L3.8,0.4 C4.9,0.4 5.8,0.6 6.4,1.1 C7,1.6 7.3,2.2 7.3,3.1 C7.3,3.6 7.2,4 6.9,4.3 C6.6,4.6 6.3,4.9 5.8,5.1 C6.3,5.2 6.8,5.5 7,5.9 C7.3,6.3 7.4,6.8 7.4,7.4 C7.4,8.3 7.1,9.1 6.5,9.6 C5.9,10.1 5,10.4 3.9,10.4 L0.4,10.4 Z M2.1,4.6 L3.8,4.6 C4.3,4.6 4.8,4.5 5.1,4.2 C5.4,4 5.6,3.6 5.6,3.2 C5.6,2.7 5.5,2.4 5.2,2.1 C4.9,1.8 4.5,1.8 3.9,1.8 L2.2,1.8 L2.2,4.6 L2.1,4.6 Z M2.1,5.9 L2.1,9 L4,9 C4.5,9 5,8.9 5.3,8.6 C5.6,8.3 5.8,8 5.8,7.5 C5.8,6.5 5.3,5.9 4.2,5.9 L2.1,5.9 Z" id="Shape"></path>
                                    <path d="M16.5,0.4 L16.5,7.1 C16.5,8.2 16.2,9 15.5,9.6 C14.8,10.2 13.9,10.5 12.8,10.5 C11.7,10.5 10.8,10.2 10.1,9.6 C9.4,9 9.1,8.1 9.1,7.1 L9.1,0.5 L10.8,0.5 L10.8,7.2 C10.8,7.9 11,8.4 11.3,8.7 C11.6,9 12.1,9.2 12.8,9.2 C14.1,9.2 14.8,8.5 14.8,7.1 L14.8,0.5 L16.5,0.5 L16.5,0.4 Z" id="Shape"></path>
                                    <polygon id="Shape" points="25.5 1.8 22.4 1.8 22.4 10.4 20.7 10.4 20.7 1.8 17.6 1.8 17.6 0.4 25.5 0.4"></polygon>
                                    <polygon id="Shape" points="34.1 1.8 31 1.8 31 10.4 29.3 10.4 29.3 1.8 26.2 1.8 26.2 0.4 34.1 0.4"></polygon>
                                    <path d="M43.2,5.7 C43.2,6.7 43,7.5 42.7,8.3 C42.4,9 41.9,9.6 41.3,10 C40.7,10.4 40,10.6 39.1,10.6 C38.3,10.6 37.6,10.4 36.9,10 C36.3,9.6 35.8,9 35.4,8.3 C35,7.6 34.9,6.7 34.9,5.8 L34.9,5.2 C34.9,4.2 35.1,3.4 35.4,2.6 C35.7,1.8 36.2,1.3 36.9,0.9 C37.5,0.5 38.2,0.3 39.1,0.3 C40,0.3 40.6,0.5 41.3,0.9 C41.9,1.3 42.4,1.9 42.8,2.6 C43.1,3.3 43.3,4.2 43.3,5.2 L43.3,5.7 L43.2,5.7 Z M41.4,5.1 C41.4,4 41.2,3.2 40.8,2.6 C40.4,2 39.8,1.7 39,1.7 C38.3,1.7 37.7,2 37.2,2.6 C36.8,3.2 36.6,4 36.6,5.1 L36.6,5.7 C36.6,6.8 36.8,7.6 37.2,8.2 C37.6,8.8 38.2,9.1 39,9.1 C39.8,9.1 40.4,8.8 40.8,8.2 C41.2,7.6 41.4,6.8 41.4,5.6 L41.4,5.1 Z" id="Shape"></path>
                                    <polygon id="Shape" points="52.8 10.4 51.1 10.4 46.7 3.3 46.7 10.4 45 10.4 45 0.4 46.7 0.4 51.2 7.5 51.2 0.4 52.9 0.4 52.9 10.4"></polygon>
                                    <polygon id="Shape" points="65.1 1.8 62 1.8 62 10.4 60.3 10.4 60.3 1.8 57.2 1.8 57.2 0.4 65.1 0.4"></polygon>
                                    <polygon id="Shape" points="72.2 5.9 68.1 5.9 68.1 9 72.9 9 72.9 10.4 66.4 10.4 66.4 0.4 72.9 0.4 72.9 1.8 68.2 1.8 68.2 4.5 72.3 4.5 72.3 5.9"></polygon>
                                    <polygon id="Shape" points="77.8 4 79.9 0.4 81.9 0.4 78.9 5.3 82 10.3 80 10.3 77.9 6.6 75.8 10.3 73.8 10.3 76.9 5.3 73.9 0.4 75.9 0.4"></polygon>
                                    <polygon id="Shape" points="90.4 1.8 87.3 1.8 87.3 10.4 85.6 10.4 85.6 1.8 82.5 1.8 82.5 0.4 90.4 0.4"></polygon>
                                </g>
                                <path d="M126.8,1 C127.2,1 127.6,1 127.8,1.1 L127.8,27.1 C127.6,27.1 127.2,27.2 126.8,27.2 L2,27.2 C1.6,27.2 1.2,27.2 1,27.1 L1,1.1 C1.2,1.1 1.6,1 2,1 L126.8,1 L126.8,1 Z M126.8,0 L2,0 C0.9,0 0,0.2 0,0.4 L0,27.7 C0,27.9 0.9,28.1 2,28.1 L126.8,28.1 C127.9,28.1 128.8,27.9 128.8,27.7 L128.8,0.4 C128.8,0.1 127.9,0 126.8,0 L126.8,0 Z"></path>
                            </g>
                            <path d="M118.7,12.9 C118.5,12.9 118.3,13 118.2,13.1 L116.2,15.1 L114.2,13.1 C114.1,13 113.9,12.9 113.7,12.9 C113.5,12.9 113.3,13 113.2,13.1 C113.1,13.2 113,13.4 113,13.6 C113,13.8 113.1,14 113.2,14.1 L115.7,16.6 C115.8,16.7 116,16.8 116.2,16.8 C116.2,16.8 116.2,16.8 116.2,16.8 C116.4,16.8 116.6,16.7 116.7,16.6 L119.2,14.1 C119.3,14 119.4,13.8 119.4,13.6 C119.4,13.4 119.3,13.2 119.2,13.1 C119.1,12.9 118.9,12.9 118.7,12.9 L118.7,12.9 Z" id="Shape"></path>
                        </g>
                        <g id="Group" transform="translate(0.000000, 39.000000)" fill="#9E9E9E">
                            <path d="M3.1,5.6 C2.1,5.3 1.4,5 1,4.6 C0.6,4.2 0.3,3.7 0.3,3.1 C0.3,2.4 0.6,1.9 1.1,1.4 C1.6,0.9 2.3,0.7 3.2,0.7 C3.8,0.7 4.3,0.8 4.8,1 C5.3,1.2 5.6,1.5 5.9,1.9 C6.2,2.3 6.3,2.7 6.3,3.2 L5.2,3.2 C5.2,2.7 5,2.3 4.7,2 C4.4,1.7 3.9,1.6 3.3,1.6 C2.7,1.6 2.3,1.7 2,2 C1.7,2.2 1.5,2.6 1.5,3 C1.5,3.3 1.6,3.6 1.9,3.9 C2.2,4.1 2.7,4.4 3.4,4.6 C4.1,4.8 4.7,5 5.1,5.3 C5.5,5.6 5.8,5.8 6,6.1 C6.2,6.4 6.3,6.8 6.3,7.2 C6.3,7.9 6,8.4 5.5,8.9 C5,9.4 4.2,9.5 3.3,9.5 C2.7,9.5 2.2,9.4 1.7,9.2 C1.2,9 0.8,8.7 0.5,8.3 C0.2,7.9 0.1,7.5 0.1,7 L1.2,7 C1.2,7.5 1.4,7.9 1.8,8.2 C2.2,8.5 2.7,8.6 3.3,8.6 C3.9,8.6 4.3,8.5 4.7,8.2 C5.1,7.9 5.2,7.6 5.2,7.2 C5.2,6.8 5.1,6.5 4.8,6.2 C4.5,5.9 3.9,5.8 3.1,5.6 Z" id="Shape"></path>
                            <path d="M10.2,9.5 C9.3,9.5 8.6,9.2 8.1,8.7 C7.6,8.1 7.3,7.4 7.3,6.4 L7.3,6.2 C7.3,5.6 7.4,5 7.7,4.5 C8,4 8.3,3.6 8.7,3.3 C9.1,3 9.6,2.9 10.1,2.9 C10.9,2.9 11.6,3.2 12,3.7 C12.4,4.2 12.7,5 12.7,6 L12.7,6.5 L8.4,6.5 C8.4,7.1 8.6,7.6 8.9,8 C9.2,8.4 9.7,8.6 10.2,8.6 C10.6,8.6 10.9,8.5 11.2,8.4 C11.5,8.3 11.7,8 11.9,7.8 L12.6,8.3 C12,9.1 11.3,9.5 10.2,9.5 Z M10.1,3.8 C9.7,3.8 9.3,4 9,4.3 C8.7,4.6 8.5,5.1 8.4,5.6 L11.6,5.6 L11.6,5.5 C11.6,4.9 11.4,4.5 11.2,4.2 C11,3.9 10.5,3.8 10.1,3.8 Z" id="Shape"></path>
                            <path d="M16.5,8.6 C16.9,8.6 17.2,8.5 17.5,8.2 C17.8,7.9 17.9,7.7 18,7.3 L19,7.3 C19,7.7 18.9,8 18.6,8.3 C18.3,8.6 18.1,8.9 17.7,9.1 C17.3,9.3 16.9,9.4 16.5,9.4 C15.6,9.4 15,9.1 14.4,8.5 C13.8,7.9 13.6,7.1 13.6,6.1 L13.6,5.9 C13.6,5.3 13.7,4.7 13.9,4.3 C14.1,3.9 14.5,3.4 14.9,3.2 C15.3,3 15.8,2.8 16.4,2.8 C17.1,2.8 17.7,3 18.2,3.4 C18.7,3.8 18.9,4.4 19,5.1 L18,5.1 C18,4.7 17.8,4.4 17.5,4.1 C17.2,3.8 16.9,3.7 16.5,3.7 C15.9,3.7 15.5,3.9 15.2,4.3 C14.9,4.7 14.7,5.3 14.7,6 L14.7,6.2 C14.7,6.9 14.9,7.5 15.2,7.9 C15.5,8.3 15.9,8.6 16.5,8.6 Z" id="Shape"></path>
                            <path d="M19.9,6.2 C19.9,5.6 20,5 20.3,4.5 C20.6,4 20.9,3.6 21.3,3.4 C21.7,3.2 22.2,3 22.8,3 C23.7,3 24.4,3.3 24.9,3.9 C25.4,4.5 25.7,5.3 25.7,6.3 L25.7,6.4 C25.7,7 25.6,7.6 25.3,8.1 C25,8.6 24.7,9 24.3,9.2 C23.9,9.4 23.4,9.6 22.8,9.6 C21.9,9.6 21.2,9.3 20.7,8.7 C20.2,8.1 19.9,7.2 19.9,6.2 L19.9,6.2 Z M21,6.3 C21,7 21.2,7.6 21.5,8 C21.8,8.4 22.3,8.6 22.8,8.6 C23.4,8.6 23.8,8.4 24.1,8 C24.4,7.6 24.6,7 24.6,6.2 C24.6,5.5 24.4,4.9 24.1,4.5 C23.8,4.1 23.3,3.9 22.8,3.9 C22.3,3.9 21.8,4.1 21.5,4.5 C21.2,4.9 21,5.5 21,6.3 Z" id="Shape"></path>
                            <path d="M28.1,3 L28.1,3.8 C28.6,3.2 29.2,2.9 30,2.9 C31.3,2.9 32,3.7 32,5.2 L32,9.4 L30.9,9.4 L30.9,5.2 C30.9,4.7 30.8,4.4 30.6,4.2 C30.4,4 30.1,3.9 29.6,3.9 C29.2,3.9 28.9,4 28.7,4.2 C28.5,4.4 28.2,4.6 28.1,4.9 L28.1,9.4 L27,9.4 L27,3 L28.1,3 Z" id="Shape"></path>
                            <path d="M33.4,6.2 C33.4,5.2 33.6,4.4 34.1,3.9 C34.6,3.4 35.2,3 35.9,3 C36.6,3 37.2,3.3 37.7,3.8 L37.7,0.5 L38.8,0.5 L38.8,9.5 L37.8,9.5 L37.7,8.8 C37.3,9.3 36.7,9.6 35.9,9.6 C35.2,9.6 34.6,9.3 34.1,8.7 C33.6,8.1 33.4,7.2 33.4,6.2 L33.4,6.2 Z M34.5,6.3 C34.5,7 34.6,7.6 34.9,8 C35.2,8.4 35.6,8.6 36.1,8.6 C36.8,8.6 37.3,8.3 37.6,7.7 L37.6,4.8 C37.3,4.2 36.8,3.9 36.1,3.9 C35.6,3.9 35.2,4.1 34.9,4.5 C34.6,4.9 34.5,5.5 34.5,6.3 Z" id="Shape"></path>
                            <path d="M44.3,9.4 C44.2,9.3 44.2,9.1 44.1,8.7 C43.6,9.2 43,9.5 42.3,9.5 C41.7,9.5 41.2,9.3 40.8,9 C40.4,8.7 40.2,8.2 40.2,7.7 C40.2,7 40.5,6.5 41,6.2 C41.5,5.9 42.2,5.7 43.1,5.7 L44.2,5.7 L44.2,5 C44.2,4.6 44.1,4.3 43.9,4.1 C43.7,3.9 43.3,3.8 42.9,3.8 C42.5,3.8 42.2,3.9 41.9,4.1 C41.6,4.3 41.5,4.5 41.5,4.8 L40.4,4.8 C40.4,4.5 40.5,4.2 40.7,3.9 C40.9,3.6 41.2,3.4 41.6,3.2 C42,3 42.4,2.9 42.9,2.9 C43.6,2.9 44.2,3.1 44.6,3.4 C45,3.7 45.2,4.3 45.2,4.9 L45.2,7.8 C45.2,8.4 45.3,8.8 45.4,9.2 L45.4,9.3 L44.3,9.3 L44.3,9.4 Z M42.5,8.6 C42.8,8.6 43.2,8.5 43.5,8.3 C43.8,8.1 44,7.9 44.2,7.6 L44.2,6.3 L43.4,6.3 C42.1,6.3 41.4,6.7 41.4,7.5 C41.4,7.8 41.5,8.1 41.7,8.3 C41.9,8.5 42.2,8.6 42.5,8.6 Z" id="Shape"></path>
                            <path d="M50,4 C49.8,4 49.7,4 49.5,4 C48.8,4 48.3,4.3 48.1,4.9 L48.1,9.4 L47,9.4 L47,3 L48.1,3 L48.1,3.7 C48.5,3.1 49,2.9 49.6,2.9 C49.8,2.9 50,2.9 50.1,3 L50.1,4 L50,4 Z" id="Shape"></path>
                            <path d="M53.1,7.8 L54.6,3 L55.8,3 L53.3,10.3 C52.9,11.4 52.3,11.9 51.4,11.9 L51.2,11.9 L50.8,11.8 L50.8,11 L51.1,11 C51.5,11 51.8,10.9 52,10.8 C52.2,10.7 52.4,10.4 52.5,10 L52.7,9.4 L50.4,3.1 L51.6,3.1 L53.1,7.8 Z" id="Shape"></path>
                        </g>
                    </g>
                </g>
                <g id="Group-2" transform="translate(445.000000, 51.000000)" fill-rule="nonzero">
                    <g id="Shape">
                        <g id="Group" transform="translate(12.000000, 0.000000)" fill="#616161">
                            <g id="Shape">
                                <path d="M0,10.3 L0,0.3 L3.4,0.3 C4.5,0.3 5.4,0.5 6,1 C6.6,1.5 6.9,2.1 6.9,3 C6.9,3.5 6.8,3.9 6.5,4.2 C6.2,4.5 5.9,4.8 5.4,5 C5.9,5.1 6.4,5.4 6.6,5.8 C6.9,6.2 7,6.7 7,7.3 C7,8.2 6.7,9 6.1,9.5 C5.5,10 4.6,10.3 3.5,10.3 L0,10.3 Z M1.8,4.5 L3.5,4.5 C4,4.5 4.5,4.4 4.8,4.1 C5.1,3.9 5.3,3.5 5.3,3.1 C5.3,2.6 5.2,2.3 4.9,2 C4.6,1.7 4.2,1.7 3.6,1.7 L1.9,1.7 L1.8,4.5 L1.8,4.5 Z M1.8,5.8 L1.8,8.9 L3.7,8.9 C4.2,8.9 4.7,8.8 5,8.5 C5.3,8.2 5.5,7.9 5.5,7.4 C5.5,6.4 5,5.8 3.9,5.8 L1.8,5.8 Z"></path>
                                <path d="M16.2,0.4 L16.2,7 C16.2,8.1 15.9,8.9 15.2,9.5 C14.5,10.1 13.6,10.4 12.5,10.4 C11.4,10.4 10.5,10.1 9.8,9.5 C9.1,8.9 8.8,8 8.8,7 L8.8,0.4 L10.5,0.4 L10.5,7 C10.5,7.7 10.7,8.2 11,8.5 C11.3,8.9 11.8,9 12.5,9 C13.8,9 14.5,8.3 14.5,6.9 L14.5,0.3 L16.2,0.4 L16.2,0.4 Z"></path>
                                <polygon points="25.2 1.7 22.1 1.7 22.1 10.3 20.4 10.3 20.4 1.7 17.3 1.7 17.3 0.3 25.2 0.3"></polygon>
                                <polygon points="33.8 1.7 30.7 1.7 30.7 10.3 29 10.3 29 1.7 25.9 1.7 25.9 0.3 33.8 0.3"></polygon>
                                <path d="M42.9,5.6 C42.9,6.6 42.7,7.4 42.4,8.2 C42.1,8.9 41.6,9.5 41,9.9 C40.4,10.3 39.7,10.5 38.8,10.5 C38,10.5 37.3,10.3 36.6,9.9 C36,9.5 35.5,8.9 35.1,8.2 C34.7,7.5 34.6,6.6 34.6,5.7 L34.6,5.1 C34.6,4.1 34.8,3.3 35.1,2.5 C35.4,1.7 35.9,1.2 36.6,0.8 C37.2,0.4 37.9,0.2 38.8,0.2 C39.6,0.2 40.3,0.4 41,0.8 C41.6,1.2 42.1,1.8 42.5,2.5 C42.8,3.2 43,4.1 43,5.1 L42.9,5.6 L42.9,5.6 Z M41.1,5.1 C41.1,4 40.9,3.2 40.5,2.6 C40.1,2 39.5,1.7 38.7,1.7 C38,1.7 37.4,2 36.9,2.6 C36.5,3.2 36.3,4 36.3,5.1 L36.3,5.7 C36.3,6.8 36.5,7.6 36.9,8.2 C37.3,8.8 37.9,9.1 38.7,9.1 C39.5,9.1 40.1,8.8 40.5,8.2 C40.9,7.6 41.1,6.8 41.1,5.6 L41.1,5.1 Z"></path>
                                <polygon points="52.5 10.3 50.8 10.3 46.4 3.2 46.4 10.3 44.7 10.3 44.7 0.3 46.4 0.3 50.9 7.4 50.9 0.3 52.6 0.3"></polygon>
                                <polygon points="64.8 1.7 61.7 1.7 61.7 10.3 60 10.3 60 1.7 56.9 1.7 56.9 0.3 64.8 0.3"></polygon>
                                <polygon points="71.9 5.9 67.8 5.9 67.8 9 72.6 9 72.6 10.4 66.1 10.4 66.1 0.4 72.6 0.4 72.6 1.8 67.9 1.8 67.9 4.5 72 4.5"></polygon>
                                <polygon points="77.4 3.9 79.5 0.3 81.5 0.3 78.5 5.2 81.6 10.2 79.6 10.2 77.5 6.5 75.4 10.2 73.4 10.2 76.5 5.2 73.5 0.3 75.5 0.3"></polygon>
                                <polygon points="90.1 1.7 87 1.7 87 10.3 85.2 10.3 85.2 1.7 82.2 1.7 82.2 0.3 90.1 0.3"></polygon>
                            </g>
                        </g>
                        <g id="Group" transform="translate(0.000000, 30.000000)" fill="#9E9E9E">
                            <polygon id="Shape" points="7 1.4 4.2 1.4 4.2 9 3.1 9 3.1 1.4 0.4 1.4 0.4 0.5 7 0.5"></polygon>
                            <path d="M10.7,9.1 C9.8,9.1 9.1,8.8 8.6,8.3 C8.1,7.7 7.8,7 7.8,6 L7.8,5.8 C7.8,5.2 7.9,4.6 8.2,4.1 C8.5,3.6 8.8,3.2 9.2,2.9 C9.6,2.6 10.1,2.5 10.6,2.5 C11.4,2.5 12.1,2.8 12.5,3.3 C12.9,3.8 13.2,4.6 13.2,5.6 L13.2,6.1 L8.9,6.1 C8.9,6.7 9.1,7.2 9.4,7.6 C9.7,8 10.2,8.2 10.7,8.2 C11.1,8.2 11.4,8.1 11.7,8 C12,7.9 12.2,7.6 12.4,7.4 L13.1,7.9 C12.5,8.7 11.8,9.1 10.7,9.1 Z M10.6,3.4 C10.2,3.4 9.8,3.6 9.5,3.9 C9.2,4.2 9,4.7 8.9,5.2 L12.1,5.2 L12.1,5.1 C12.1,4.5 11.9,4.1 11.7,3.8 C11.5,3.5 11,3.4 10.6,3.4 Z" id="Shape"></path>
                            <path d="M17.5,3.6 C17.3,3.6 17.2,3.6 17,3.6 C16.3,3.6 15.8,3.9 15.6,4.5 L15.6,9 L14.5,9 L14.5,2.7 L15.6,2.7 L15.6,3.4 C16,2.8 16.5,2.6 17.1,2.6 C17.3,2.6 17.5,2.6 17.6,2.7 L17.5,3.6 L17.5,3.6 Z" id="Shape"></path>
                            <path d="M20.2,1.1 L20.2,2.6 L21.4,2.6 L21.4,3.4 L20.2,3.4 L20.2,7.3 C20.2,7.6 20.3,7.7 20.4,7.9 C20.5,8 20.7,8.1 20.9,8.1 C21,8.1 21.2,8.1 21.4,8 L21.4,9 C21.1,9.1 20.8,9.1 20.6,9.1 C20.1,9.1 19.8,9 19.5,8.7 C19.2,8.4 19.1,8 19.1,7.5 L19.1,3.6 L17.9,3.6 L17.9,2.8 L19.1,2.8 L19.1,1.3 L20.2,1.3 L20.2,1.1 L20.2,1.1 Z" id="Shape"></path>
                            <path d="M22.7,0.9 C22.7,0.7 22.8,0.6 22.9,0.5 C23,0.4 23.2,0.3 23.4,0.3 C23.6,0.3 23.8,0.4 23.9,0.5 C24,0.6 24.1,0.8 24.1,0.9 C24.1,1 24,1.2 23.9,1.3 C23.8,1.4 23.6,1.5 23.4,1.5 C23.2,1.5 23,1.4 22.9,1.3 C22.8,1.2 22.7,1.1 22.7,0.9 Z M23.9,9 L22.8,9 L22.8,2.7 L23.9,2.7 L23.9,9 Z" id="Shape"></path>
                            <path d="M29.5,9 C29.4,8.9 29.4,8.7 29.3,8.3 C28.8,8.8 28.2,9.1 27.5,9.1 C26.9,9.1 26.4,8.9 26,8.6 C25.6,8.3 25.4,7.8 25.4,7.3 C25.4,6.6 25.7,6.1 26.2,5.8 C26.7,5.5 27.4,5.3 28.3,5.3 L29.4,5.3 L29.4,4.8 C29.4,4.4 29.3,4.1 29.1,3.9 C28.9,3.7 28.5,3.6 28.1,3.6 C27.7,3.6 27.4,3.7 27.1,3.9 C26.8,4.1 26.7,4.3 26.7,4.6 L25.6,4.6 C25.6,4.3 25.7,4 25.9,3.7 C26.1,3.4 26.4,3.2 26.8,3 C27.2,2.8 27.6,2.7 28.1,2.7 C28.8,2.7 29.4,2.9 29.8,3.2 C30.2,3.5 30.4,4.1 30.4,4.7 L30.4,7.6 C30.4,8.2 30.5,8.6 30.6,9 L30.6,9 L29.5,9 Z M27.7,8.1 C28,8.1 28.4,8 28.7,7.8 C29,7.6 29.2,7.4 29.4,7.1 L29.4,5.8 L28.6,5.8 C27.3,5.8 26.6,6.2 26.6,7 C26.6,7.3 26.7,7.6 26.9,7.8 C27.1,8 27.4,8.1 27.7,8.1 Z" id="Shape"></path>
                            <path d="M35.2,3.6 C35,3.6 34.9,3.6 34.7,3.6 C34,3.6 33.5,3.9 33.3,4.5 L33.3,9 L32.2,9 L32.2,2.7 L33.3,2.7 L33.3,3.4 C33.7,2.8 34.2,2.6 34.8,2.6 C35,2.6 35.2,2.6 35.3,2.7 L35.2,3.6 L35.2,3.6 Z" id="Shape"></path>
                            <path d="M38.3,7.4 L39.8,2.6 L41,2.6 L38.5,9.9 C38.1,11 37.5,11.5 36.6,11.5 L36.4,11.5 L36,11.4 L36,10.5 L36.3,10.5 C36.7,10.5 37,10.4 37.2,10.3 C37.4,10.2 37.6,9.9 37.7,9.5 L37.9,8.9 L35.6,2.6 L36.8,2.6 L38.3,7.4 Z" id="Shape"></path>
                        </g>
                    </g>
                    <g id="Shape" transform="translate(0.000000, 129.000000)">
                        <g id="Group" transform="translate(10.000000, 0.000000)" fill="#616161">
                            <path d="M101,5.7 L103.5,8.2 C103.6,8.3 103.8,8.4 104,8.4 C104.2,8.4 104.4,8.3 104.5,8.2 L107,5.7 C107.1,5.6 107.2,5.4 107.2,5.2 C107.2,5 107.1,4.8 107,4.7 C106.9,4.6 106.7,4.5 106.5,4.5 C106.3,4.5 106.1,4.6 106,4.7 L104,6.7 L102,4.7 C101.9,4.6 101.7,4.5 101.5,4.5 C101.3,4.5 101.1,4.6 101,4.7 C100.9,4.8 100.8,5 100.8,5.2 C100.7,5.3 100.8,5.5 101,5.7 Z" id="Shape"></path>
                            <g id="Shape">
                                <path d="M0.1,10.8 L0.1,0.8 L3.5,0.8 C4.6,0.8 5.5,1 6.1,1.5 C6.7,2 7,2.6 7,3.5 C7,4 6.9,4.4 6.6,4.7 C6.4,5.1 6,5.3 5.5,5.5 C6,5.6 6.5,5.9 6.7,6.3 C6.9,6.7 7.1,7.2 7.1,7.8 C7.1,8.7 6.8,9.5 6.2,10 C5.6,10.5 4.7,10.8 3.6,10.8 L0.1,10.8 Z M1.8,5.1 L3.5,5.1 C4,5.1 4.5,5 4.8,4.7 C5.1,4.5 5.3,4.1 5.3,3.7 C5.3,3.2 5.2,2.9 4.9,2.6 C4.6,2.3 4.2,2.3 3.6,2.3 L1.9,2.3 L1.9,5.1 L1.8,5.1 Z M1.8,6.3 L1.8,9.4 L3.7,9.4 C4.2,9.4 4.7,9.3 5,9 C5.3,8.7 5.5,8.4 5.5,7.9 C5.5,6.9 5,6.3 3.9,6.3 L1.8,6.3 Z"></path>
                                <path d="M16.2,0.9 L16.2,7.6 C16.2,8.7 15.9,9.5 15.2,10.1 C14.5,10.7 13.6,11 12.5,11 C11.4,11 10.5,10.7 9.8,10.1 C9.1,9.5 8.8,8.6 8.8,7.6 L8.8,1 L10.5,1 L10.5,7.7 C10.5,8.4 10.7,8.9 11,9.2 C11.3,9.6 11.8,9.7 12.5,9.7 C13.8,9.7 14.5,9 14.5,7.6 L14.5,1 L16.2,1 L16.2,0.9 Z"></path>
                                <polygon points="25.2 2.3 22.1 2.3 22.1 10.9 20.4 10.9 20.4 2.3 17.3 2.3 17.3 0.9 25.2 0.9"></polygon>
                                <polygon points="33.8 2.3 30.7 2.3 30.7 10.9 29 10.9 29 2.3 25.9 2.3 25.9 0.9 33.8 0.9"></polygon>
                                <path d="M42.9,6.1 C42.9,7.1 42.7,7.9 42.4,8.7 C42.1,9.4 41.6,10 41,10.4 C40.4,10.8 39.7,11 38.8,11 C38,11 37.3,10.8 36.6,10.4 C36,10 35.5,9.4 35.1,8.7 C34.8,8 34.6,7.1 34.6,6.2 L34.6,5.6 C34.6,4.6 34.8,3.8 35.1,3 C35.4,2.3 35.9,1.7 36.6,1.3 C37.2,0.9 37.9,0.7 38.8,0.7 C39.6,0.7 40.3,0.9 41,1.3 C41.6,1.7 42.1,2.3 42.5,3 C42.9,3.7 43,4.6 43,5.6 L43,6.1 L42.9,6.1 Z M41.2,5.6 C41.2,4.5 41,3.7 40.6,3.1 C40.2,2.5 39.6,2.2 38.8,2.2 C38.1,2.2 37.5,2.5 37,3.1 C36.6,3.7 36.4,4.5 36.4,5.6 L36.4,6.2 C36.4,7.3 36.6,8.1 37,8.7 C37.4,9.3 38,9.6 38.8,9.6 C39.6,9.6 40.2,9.3 40.6,8.7 C41,8.1 41.2,7.3 41.2,6.1 L41.2,5.6 Z"></path>
                                <polygon points="52.5 10.8 50.8 10.8 46.4 3.7 46.4 10.8 44.7 10.8 44.7 0.8 46.4 0.8 50.9 7.9 50.9 0.8 52.6 0.8 52.6 10.8"></polygon>
                                <polygon points="64.8 2.3 61.7 2.3 61.7 10.9 60 10.9 60 2.3 56.9 2.3 56.9 0.9 64.8 0.9"></polygon>
                                <polygon points="71.9 6.4 67.8 6.4 67.8 9.5 72.6 9.5 72.6 10.9 66.1 10.9 66.1 0.9 72.6 0.9 72.6 2.3 67.9 2.3 67.9 5 72 5 72 6.4"></polygon>
                                <polygon points="77.5 4.5 79.6 0.9 81.6 0.9 78.6 5.8 81.7 10.8 79.7 10.8 77.6 7.1 75.5 10.8 73.5 10.8 76.6 5.8 73.6 0.9 75.6 0.9"></polygon>
                                <polygon points="90.1 2.3 87 2.3 87 10.9 85.3 10.9 85.3 2.3 82.2 2.3 82.2 0.9 90.1 0.9"></polygon>
                            </g>
                        </g>
                        <g id="Group" transform="translate(0.000000, 31.000000)" fill="#9E9E9E">
                            <polygon id="Shape" points="7.3 1.8 4.6 1.8 4.6 9.4 3.5 9.4 3.5 1.8 0.8 1.8 0.8 0.9 7.4 0.9 7.4 1.8"></polygon>
                            <path d="M11,9.5 C10.1,9.5 9.4,9.2 8.9,8.7 C8.4,8.2 8.1,7.4 8.1,6.4 L8.1,6.2 C8.1,5.6 8.2,5 8.5,4.5 C8.8,4 9.1,3.6 9.5,3.3 C9.9,3 10.4,2.9 10.9,2.9 C11.7,2.9 12.4,3.2 12.8,3.7 C13.2,4.2 13.5,5 13.5,6 L13.5,6.5 L9.2,6.5 C9.2,7.1 9.4,7.6 9.7,8 C10,8.4 10.5,8.6 11,8.6 C11.4,8.6 11.7,8.5 12,8.4 C12.3,8.3 12.5,8 12.7,7.8 L13.4,8.3 C12.8,9.1 12,9.5 11,9.5 Z M10.8,3.8 C10.4,3.8 10,4 9.7,4.3 C9.4,4.6 9.2,5.1 9.1,5.6 L12.3,5.6 L12.3,5.5 C12.3,4.9 12.1,4.5 11.9,4.2 C11.7,3.9 11.3,3.8 10.8,3.8 Z" id="Shape"></path>
                            <path d="M17.8,4 C17.6,4 17.5,4 17.3,4 C16.6,4 16.1,4.3 15.9,4.9 L15.9,9.4 L14.8,9.4 L14.8,3 L15.9,3 L15.9,3.7 C16.3,3.1 16.8,2.9 17.4,2.9 C17.6,2.9 17.8,2.9 17.9,3 L17.9,4 L17.8,4 Z" id="Shape"></path>
                            <path d="M20.5,1.5 L20.5,3 L21.7,3 L21.7,3.8 L20.5,3.8 L20.5,7.7 C20.5,8 20.6,8.1 20.7,8.3 C20.8,8.5 21,8.5 21.2,8.5 C21.3,8.5 21.5,8.5 21.7,8.4 L21.7,9.3 C21.4,9.4 21.1,9.4 20.9,9.4 C20.4,9.4 20.1,9.3 19.8,9 C19.5,8.7 19.4,8.3 19.4,7.8 L19.4,3.9 L18.2,3.9 L18.2,3 L19.4,3 L19.4,1.5 L20.5,1.5 Z" id="Shape"></path>
                            <path d="M23,1.4 C23,1.2 23.1,1.1 23.2,1 C23.3,0.9 23.5,0.8 23.7,0.8 C23.9,0.8 24.1,0.9 24.2,1 C24.3,1.1 24.4,1.3 24.4,1.4 C24.4,1.5 24.3,1.7 24.2,1.8 C24.1,1.9 23.9,2 23.7,2 C23.5,2 23.3,1.9 23.2,1.8 C23.1,1.7 23,1.5 23,1.4 Z M24.2,9.4 L23.1,9.4 L23.1,3 L24.2,3 L24.2,9.4 Z" id="Shape"></path>
                            <path d="M29.8,9.4 C29.7,9.3 29.7,9.1 29.6,8.7 C29.1,9.2 28.5,9.5 27.8,9.5 C27.2,9.5 26.7,9.3 26.3,9 C25.9,8.7 25.7,8.2 25.7,7.7 C25.7,7 26,6.5 26.5,6.2 C27,5.9 27.7,5.7 28.6,5.7 L29.7,5.7 L29.7,5 C29.7,4.6 29.6,4.3 29.4,4.1 C29.2,3.9 28.8,3.8 28.4,3.8 C28,3.8 27.7,3.9 27.4,4.1 C27.1,4.3 27,4.5 27,4.8 L25.9,4.8 C25.9,4.5 26,4.2 26.2,3.9 C26.4,3.6 26.7,3.4 27.1,3.2 C27.5,3 27.9,2.9 28.4,2.9 C29.1,2.9 29.7,3.1 30.1,3.4 C30.5,3.7 30.7,4.3 30.7,4.9 L30.7,7.8 C30.7,8.4 30.8,8.8 30.9,9.2 L30.9,9.3 L29.8,9.3 L29.8,9.4 Z M28,8.6 C28.3,8.6 28.7,8.5 29,8.3 C29.3,8.1 29.5,7.9 29.7,7.6 L29.7,6.3 L28.9,6.3 C27.6,6.3 26.9,6.7 26.9,7.5 C26.9,7.8 27,8.1 27.2,8.3 C27.4,8.5 27.7,8.6 28,8.6 Z" id="Shape"></path>
                            <path d="M35.5,4 C35.3,4 35.2,4 35,4 C34.3,4 33.8,4.3 33.6,4.9 L33.6,9.4 L32.5,9.4 L32.5,3 L33.6,3 L33.6,3.7 C34,3.1 34.5,2.9 35.1,2.9 C35.3,2.9 35.5,2.9 35.6,3 L35.6,4 L35.5,4 Z" id="Shape"></path>
                            <path d="M38.6,7.8 L40.1,3 L41.3,3 L38.8,10.3 C38.4,11.4 37.8,11.9 36.9,11.9 L36.7,11.9 L36.3,11.8 L36.3,11 L36.6,11 C37,11 37.3,10.9 37.5,10.8 C37.7,10.7 37.9,10.4 38,10 L38.2,9.4 L35.9,3.1 L37.1,3.1 L38.6,7.8 Z" id="Shape"></path>
                        </g>
                    </g>
                </g>
                <path d="M4.3798828,7.246582 C3.1738221,6.8999006 2.2961453,6.4738795 1.7468262,5.9685059 C1.197507,5.4631322 0.9228516,4.8393592 0.9228516,4.097168 C0.9228516,3.25732 1.2585416,2.5627469 1.9299316,2.0134277 C2.6013217,1.4641086 3.4741157,1.1894531 4.5483398,1.1894531 C5.2807654,1.1894531 5.933835,1.3310533 6.5075684,1.6142578 C7.0813017,1.8974624 7.5256332,2.2880834 7.8405762,2.7861328 C8.1555192,3.2841822 8.3129883,3.8286103 8.3129883,4.4194336 L6.8994141,4.4194336 C6.8994141,3.7748991 6.694338,3.2683124 6.2841797,2.8996582 C5.8740214,2.531004 5.2954139,2.3466797 4.5483398,2.3466797 C3.854977,2.3466797 3.3142109,2.4992661 2.9260254,2.8044434 C2.5378399,3.1096207 2.34375,3.5332004 2.34375,4.0751953 C2.34375,4.5097678 2.5280743,4.8771958 2.8967285,5.1774902 C3.2653827,5.4777847 3.8928178,5.7524402 4.7790527,6.0014648 C5.6652876,6.2504895 6.3586401,6.525145 6.8591309,6.8254395 C7.3596216,7.1257339 7.7307117,7.4760722 7.9724121,7.8764648 C8.2141125,8.2768575 8.3349609,8.7480442 8.3349609,9.2900391 C8.3349609,10.1543012 7.9980502,10.8464329 7.3242188,11.3664551 C6.6503873,11.8864772 5.7495174,12.1464844 4.621582,12.1464844 C3.8891565,12.1464844 3.2055696,12.0061049 2.5708008,11.7253418 C1.936032,11.4445787 1.4465349,11.060061 1.1022949,10.5717773 C0.7580549,10.0834937 0.5859375,9.5293 0.5859375,8.9091797 L1.9995117,8.9091797 C1.9995117,9.5537142 2.2375464,10.0627423 2.713623,10.4362793 C3.1896996,10.8098163 3.8256796,10.996582 4.621582,10.996582 C5.3637732,10.996582 5.9326152,10.8452164 6.328125,10.5424805 C6.7236348,10.2397446 6.9213867,9.827151 6.9213867,9.3046875 C6.9213867,8.782224 6.7382831,8.3781753 6.3720703,8.0925293 C6.0058575,7.8068833 5.3418017,7.5249037 4.3798828,7.246582 Z M11.3964844,12 L10.0415039,12 L10.0415039,4.0751953 L11.3964844,4.0751953 L11.3964844,12 Z M9.9316406,1.9731445 C9.9316406,1.7534169 9.9987786,1.5678719 10.1330566,1.4165039 C10.2673347,1.265136 10.4663073,1.1894531 10.7299805,1.1894531 C10.9936537,1.1894531 11.193847,1.265136 11.3305664,1.4165039 C11.4672858,1.5678719 11.5356445,1.7534169 11.5356445,1.9731445 C11.5356445,2.1928722 11.4672858,2.3759758 11.3305664,2.5224609 C11.193847,2.668946 10.9936537,2.7421875 10.7299805,2.7421875 C10.4663073,2.7421875 10.2673347,2.668946 10.1330566,2.5224609 C9.9987786,2.3759758 9.9316406,2.1928722 9.9316406,1.9731445 Z M14.8388672,4.0751953 L14.8754883,4.9541016 C15.4565459,4.2705044 16.2402294,3.9287109 17.2265625,3.9287109 C18.3349665,3.9287109 19.0893535,4.3535114 19.4897461,5.203125 C19.7534193,4.8222637 20.0964334,4.5146496 20.5187988,4.2802734 C20.9411642,4.0458973 21.4404268,3.9287109 22.0166016,3.9287109 C23.7548915,3.9287109 24.6386717,4.8491119 24.6679688,6.6899414 L24.6679688,12 L23.3129883,12 L23.3129883,6.7705078 C23.3129883,6.2040987 23.183595,5.780519 22.9248047,5.4997559 C22.6660143,5.2189927 22.2314484,5.0786133 21.6210938,5.0786133 C21.1181615,5.0786133 20.7006853,5.2287583 20.3686523,5.5290527 C20.0366194,5.8293472 19.8437503,6.2333959 19.7900391,6.7412109 L19.7900391,12 L18.4277344,12 L18.4277344,6.8071289 C18.4277344,5.6547794 17.8637752,5.0786133 16.7358398,5.0786133 C15.8471635,5.0786133 15.2392594,5.4570275 14.9121094,6.2138672 L14.9121094,12 L13.5571289,12 L13.5571289,4.0751953 L14.8388672,4.0751953 Z M33.4057617,8.1254883 C33.4057617,9.331549 33.1298856,10.303219 32.578125,11.0405273 C32.0263644,11.7778357 31.2793016,12.1464844 30.3369141,12.1464844 C29.3749952,12.1464844 28.6181668,11.8413116 28.0664062,11.230957 L28.0664062,15.046875 L26.7114258,15.046875 L26.7114258,4.0751953 L27.9492188,4.0751953 L28.0151367,4.9541016 C28.5668973,4.2705044 29.3334912,3.9287109 30.3149414,3.9287109 C31.2670946,3.9287109 32.0202609,4.2875941 32.5744629,5.0053711 C33.1286649,5.7231481 33.4057617,6.7216733 33.4057617,8.0009766 L33.4057617,8.1254883 Z M32.0507812,7.9716797 C32.0507812,7.0781205 31.8603535,6.3725612 31.4794922,5.8549805 C31.0986309,5.3373998 30.5761752,5.0786133 29.9121094,5.0786133 C29.0917928,5.0786133 28.4765646,5.4423792 28.0664062,6.1699219 L28.0664062,9.956543 C28.4716817,10.6792028 29.0917927,11.0405273 29.9267578,11.0405273 C30.5761751,11.0405273 31.0925274,10.7829616 31.4758301,10.2678223 C31.8591328,9.752683 32.0507812,8.9873098 32.0507812,7.9716797 Z M36.5991211,12 L35.2441406,12 L35.2441406,0.75 L36.5991211,0.75 L36.5991211,12 Z M42.0556641,12.1464844 C40.9814399,12.1464844 40.1074252,11.7937047 39.4335938,11.0881348 C38.7597623,10.3825648 38.4228516,9.4389708 38.4228516,8.2573242 L38.4228516,8.0083008 C38.4228516,7.222164 38.5729965,6.5202668 38.873291,5.9025879 C39.1735855,5.284909 39.5935032,4.8015154 40.1330566,4.4523926 C40.6726101,4.1032697 41.2573211,3.9287109 41.887207,3.9287109 C42.9174856,3.9287109 43.7182589,4.268063 44.2895508,4.9467773 C44.8608427,5.6254917 45.1464844,6.5971616 45.1464844,7.8618164 L45.1464844,8.4257812 L39.777832,8.4257812 C39.7973634,9.2070352 40.0256326,9.8381324 40.4626465,10.3190918 C40.8996604,10.8000512 41.4550748,11.0405273 42.1289062,11.0405273 C42.6074243,11.0405273 43.0126937,10.9428721 43.3447266,10.7475586 C43.6767595,10.5522451 43.9672839,10.2934586 44.2163086,9.9711914 L45.0439453,10.6157227 C44.3798795,11.6362356 43.3837957,12.1464844 42.0556641,12.1464844 Z M41.887207,5.0419922 C41.3403293,5.0419922 40.8813495,5.2409648 40.5102539,5.638916 C40.1391583,6.0368672 39.9096684,6.594723 39.8217773,7.3125 L43.7915039,7.3125 L43.7915039,7.2099609 C43.7524412,6.5214809 43.5668962,5.988039 43.2348633,5.6096191 C42.9028304,5.2311993 42.4536161,5.0419922 41.887207,5.0419922 Z" id="Simple" fill="#424242" fill-rule="nonzero"></path>
            </g>
        </g>
    </g>
</svg>