<?xml version="1.0" encoding="UTF-8" standalone="no"?>
<svg width="432px" height="505px" viewBox="0 0 432 505" version="1.1" xmlns="http://www.w3.org/2000/svg" xmlns:xlink="http://www.w3.org/1999/xlink">
    <!-- Generator: Sketch 47.1 (45422) - http://www.bohemiancoding.com/sketch -->
    <title>drop-buttons-specs</title>
    <desc>Created with Sketch.</desc>
    <defs>
        <polygon id="path-1" points="7 3.5 0 7 0 0"></polygon>
        <circle id="path-2" cx="3.5" cy="3.5" r="3.5"></circle>
        <polygon id="path-3" points="7 3.5 0 7 0 0"></polygon>
        <circle id="path-4" cx="3.5" cy="3.5" r="3.5"></circle>
        <polygon id="path-5" points="7 3.5 0 7 0 0"></polygon>
        <circle id="path-6" cx="3.5" cy="3.5" r="3.5"></circle>
        <polygon id="path-7" points="7 3.5 0 7 0 0"></polygon>
        <circle id="path-8" cx="3.5" cy="3.5" r="3.5"></circle>
        <polygon id="path-9" points="7 3.5 0 7 0 0"></polygon>
        <circle id="path-10" cx="3.5" cy="3.5" r="3.5"></circle>
        <polygon id="path-11" points="7 3.5 0 7 0 0"></polygon>
        <circle id="path-12" cx="3.5" cy="3.5" r="3.5"></circle>
        <polygon id="path-13" points="7 3.5 0 7 0 0"></polygon>
        <circle id="path-14" cx="3.5" cy="3.5" r="3.5"></circle>
        <polygon id="path-15" points="7 3.5 0 7 0 0"></polygon>
        <circle id="path-16" cx="3.5" cy="3.5" r="3.5"></circle>
        <polygon id="path-17" points="7 3.5 0 7 0 0"></polygon>
        <circle id="path-18" cx="3.5" cy="3.5" r="3.5"></circle>
    </defs>
    <g id="Page-1" stroke="none" stroke-width="1" fill="none" fill-rule="evenodd">
        <g id="drop-buttons-specs">
            <g id="Button/Standard/Dropdown/Primary" transform="translate(131.000000, 54.000000)">
                <path d="M2,0.000109141311 L120,0.000109141311 L120,0.000109141311 C121.104569,0.000109141311 122,0.895539642 122,2.00010914 L122,19.9240716 L122,29.9998261 L122,29.9998261 C122,31.1043956 121.104569,31.9998261 120,31.9998261 L2,31.9998261 L2,31.9998261 C0.8954305,31.9998261 1.87533573e-15,31.1043956 -2.22044605e-16,29.9998261 L0,2.00010914 L0,2.00010914 C-1.3527075e-16,0.895539642 0.8954305,0.000109141311 2,0.000109141311 Z" id="Rectangle-2" fill="#0C7C84"></path>
                <g id="Group" stroke-width="1" transform="translate(9.000000, 6.000000)" fill="#FFFFFF">
                    <text id="Button-Text" font-family="Roboto-Medium, Roboto" font-size="14" font-weight="400" line-spacing="20">
                        <tspan x="2.17626953" y="13">Button Text </tspan>
                    </text>
                    <g id="arrow-down" transform="translate(86.000000, 6.000000)" fill-rule="nonzero">
                        <polygon id="Path-2-Copy-4" points="1.33864218 0.0843605184 0 1.30077713 6.96167104 8.96195704 14 1.21641661 12.6613578 0 6.96167104 6.27239144"></polygon>
                    </g>
                </g>
            </g>
            <rect id="Rectangle-3-Copy-24" fill="#F9CD94" transform="translate(137.500000, 70.000000) rotate(90.000000) translate(-137.500000, -70.000000) " x="120" y="64" width="35" height="12"></rect>
            <text id="12-px" transform="translate(137.500000, 70.500000) rotate(90.000000) translate(-137.500000, -70.500000) " font-family="Roboto-Regular, Roboto" font-size="6" font-weight="normal" fill="#333333">
                <tspan x="130" y="73">12 px</tspan>
            </text>
            <polygon id="Rectangle-3-Copy-24" fill="#F9CD94" points="226 52 226 86 214 86 214 52"></polygon>
            <text id="12-px" transform="translate(220.500000, 69.000000) rotate(90.000000) translate(-220.500000, -69.000000) " font-family="Roboto-Regular, Roboto" font-size="6" font-weight="normal" fill="#333333">
                <tspan x="213" y="71">12 px</tspan>
            </text>
            <polygon id="Rectangle-3-Copy-25" fill="#F9CD94" points="252 53 252 86 240 86 240 53"></polygon>
            <text id="12-px-copy" transform="translate(261.500000, 77.500000) rotate(-90.000000) translate(-261.500000, -77.500000) " font-family="Roboto-Regular, Roboto" font-size="6" font-weight="normal" fill="#333333">
                <tspan x="254" y="80">12 px</tspan>
            </text>
            <rect id="Rectangle-3-Copy-23" fill="#9CC2EB" transform="translate(263.000000, 70.000000) rotate(90.000000) translate(-263.000000, -70.000000) " x="247" y="60" width="32" height="20"></rect>
            <text id="20-px-copy" transform="translate(263.500000, 70.500000) rotate(90.000000) translate(-263.500000, -70.500000) " font-family="Roboto-Regular, Roboto" font-size="6" font-weight="normal" fill="#333333">
                <tspan x="256" y="73">20 px</tspan>
            </text>
            <rect id="Rectangle-3-Copy-22" fill="#9CC2EB" x="131" y="34" width="122" height="20"></rect>
            <text id="20-px" font-family="Roboto-Regular, Roboto" font-size="6" font-weight="normal" fill="#333333">
                <tspan x="170" y="47">20 px</tspan>
            </text>
            <rect id="Rectangle-3-Copy-22" fill="#9CC2EB" x="131" y="86" width="122" height="20"></rect>
            <text id="20-px" font-family="Roboto-Regular, Roboto" font-size="6" font-weight="normal" fill="#333333">
                <tspan x="178" y="99">20 px</tspan>
            </text>
            <rect id="Rectangle-3-Copy-22" fill="#9CC2EB" transform="translate(121.000000, 70.000000) rotate(-90.000000) translate(-121.000000, -70.000000) " x="105" y="60" width="32" height="20"></rect>
            <text id="20-px" transform="translate(120.500000, 70.500000) rotate(90.000000) translate(-120.500000, -70.500000) " font-family="Roboto-Regular, Roboto" font-size="6" font-weight="normal" fill="#333333">
                <tspan x="113" y="73">20 px</tspan>
            </text>
            <g id="specs-/-redlines-/-line-regular" transform="translate(169.000000, 101.500000) rotate(-90.000000) translate(-169.000000, -101.500000) translate(143.000000, 90.000000)">
                <path d="M3.5,22.5 L3.5,13 C3.5,7.75329488 7.75383113,3.5 12.9970063,3.5 L50.5,3.5" id="redline-line" stroke="#EC407A" stroke-width="1"></path>
                <g id="specs-/-redlines-/-line-end-/-arrow" transform="translate(45.000000, 0.000000)">
                    <g id="redline-end">
                        <use fill="#FFFFFF" fill-rule="evenodd" xlink:href="#path-1"></use>
                        <path stroke="#EC407A" stroke-width="1" d="M5.88196601,3.5 L0.5,0.809016994 L0.5,6.19098301 L5.88196601,3.5 Z"></path>
                    </g>
                </g>
                <g id="specs-/-redlines-/-line-end-/-circle" transform="translate(0.000000, 16.000000)">
                    <g id="redline-start">
                        <use fill="#FFFFFF" fill-rule="evenodd" xlink:href="#path-2"></use>
                        <circle stroke="#EC407A" stroke-width="1" cx="3.5" cy="3.5" r="3"></circle>
                    </g>
                </g>
            </g>
            <g id="specs-/-redlines-/-label" transform="translate(182.000000, 117.000000)" font-size="12" font-family="Roboto-Regular, Roboto" fill="#EC407A" font-weight="normal">
                <text id="redline-label">
                    <tspan x="0" y="11">Text size: 14 px, medium, vertically centered</tspan>
                </text>
            </g>
            <g id="specs-/-redlines-/-line-regular" transform="translate(143.500000, 29.500000) scale(1, -1) rotate(-90.000000) translate(-143.500000, -29.500000) translate(118.000000, 14.000000)">
                <path d="M3.5,30.5 L3.5,17 C3.5,9.54415588 9.53732989,3.5 16.9907035,3.5 L49.5,3.5" id="redline-line" stroke="#EC407A" stroke-width="1"></path>
                <g id="specs-/-redlines-/-line-end-/-arrow" transform="translate(44.000000, 0.000000)">
                    <g id="redline-end">
                        <use fill="#FFFFFF" fill-rule="evenodd" xlink:href="#path-3"></use>
                        <path stroke="#EC407A" stroke-width="1" d="M5.88196601,3.5 L0.5,0.809016994 L0.5,6.19098301 L5.88196601,3.5 Z"></path>
                    </g>
                </g>
                <g id="specs-/-redlines-/-line-end-/-circle" transform="translate(0.000000, 24.000000)">
                    <g id="redline-start">
                        <use fill="#FFFFFF" fill-rule="evenodd" xlink:href="#path-4"></use>
                        <circle stroke="#EC407A" stroke-width="1" cx="3.5" cy="3.5" r="3"></circle>
                    </g>
                </g>
            </g>
            <g id="specs-/-redlines-/-label" transform="translate(164.000000, 0.000000)" font-size="12" font-family="Roboto-Regular, Roboto" fill="#EC407A" font-weight="normal">
                <text id="redline-label">
                    <tspan x="0" y="11">Corner Radius 2px</tspan>
                </text>
            </g>
            <g id="specs-/-redlines-/-line-regular" transform="translate(246.000000, 43.500000) scale(1, -1) rotate(-90.000000) translate(-246.000000, -43.500000) translate(226.000000, 28.000000)">
                <path d="M3.5,30.5 L3.5,17 C3.5,9.54415588 9.53663418,3.5 17.0068778,3.5 L38.5,3.5" id="redline-line" stroke="#EC407A" stroke-width="1"></path>
                <g id="specs-/-redlines-/-line-end-/-arrow" transform="translate(33.000000, 0.000000)">
                    <g id="redline-end">
                        <use fill="#FFFFFF" fill-rule="evenodd" xlink:href="#path-5"></use>
                        <path stroke="#EC407A" stroke-width="1" d="M5.88196601,3.5 L0.5,0.809016994 L0.5,6.19098301 L5.88196601,3.5 Z"></path>
                    </g>
                </g>
                <g id="specs-/-redlines-/-line-end-/-circle" transform="translate(0.000000, 24.000000)">
                    <g id="redline-start">
                        <use fill="#FFFFFF" fill-rule="evenodd" xlink:href="#path-6"></use>
                        <circle stroke="#EC407A" stroke-width="1" cx="3.5" cy="3.5" r="3"></circle>
                    </g>
                </g>
            </g>
            <g id="specs-/-redlines-/-label" transform="translate(263.000000, 20.000000)" font-size="12" font-family="Roboto-Regular, Roboto" fill="#EC407A" font-weight="normal">
                <text id="redline-label">
                    <tspan x="0" y="11">Icon: Spinner, 12 px x 12 px</tspan>
                </text>
            </g>
            <g id="specs-/-redlines-/--measurement-/-vertical" transform="translate(275.000000, 54.000000)">
                <text id="label" font-family="Roboto-Regular, Roboto" font-size="12" font-weight="normal" line-spacing="19" fill="#EC407A">
                    <tspan x="26" y="17.5">32 px</tspan>
                </text>
                <g id="specs-/-redlines-/-curly-brace" stroke="#EC407A" stroke-width="1">
                    <path d="M0,0.105960265 C23.904595,0.105960265 0.077195982,16 24,16" id="Path-2"></path>
                    <path d="M0,16 C23.904595,16 0.077195982,31.8940397 24,31.8940397" id="Path-2-Copy" transform="translate(12.000000, 23.947020) scale(1, -1) translate(-12.000000, -23.947020) "></path>
                </g>
            </g>
            <g id="specs-/-redlines-/-label-title-sm" transform="translate(5.000000, 68.000000)" font-size="10" font-family="Roboto-Regular, Roboto" fill="#9E9E9E" font-weight="normal">
                <text id="SMALL-LABEL">
                    <tspan x="0" y="9">Standard Button</tspan>
                </text>
            </g>
            <g id="Button/Compact/Dropdown/Primary" transform="translate(128.000000, 432.000000)">
                <rect id="Rectangle-2" fill="#0C7C84" fill-rule="evenodd" x="0" y="0" width="109" height="20" rx="2"></rect>
                <text id="Button-Text" font-family="Roboto-Medium, Roboto" font-size="14" font-weight="400" line-spacing="20" fill="#FFFFFF">
                    <tspan x="7.17626953" y="13">Button Text </tspan>
                </text>
                <g id="arrow-down" stroke-width="1" fill-rule="evenodd" transform="translate(86.000000, 6.000000)" fill="#FFFFFF">
                    <polygon id="Path-2-Copy-4" fill-rule="nonzero" points="1.83864218 0.0843605184 0.5 1.30077713 7.46167104 8.96195704 14.5 1.21641661 13.1613578 0 7.46167104 6.27239144"></polygon>
                </g>
            </g>
            <rect id="Rectangle-3-Copy-24" fill="#F9CD94" transform="translate(132.000000, 442.000000) rotate(90.000000) translate(-132.000000, -442.000000) " x="121" y="438" width="22" height="8"></rect>
            <text id="8-px" transform="translate(132.000000, 442.500000) rotate(90.000000) translate(-132.000000, -442.500000) " font-family="Roboto-Regular, Roboto" font-size="6" font-weight="normal" fill="#333333">
                <tspan x="126" y="445">8 px</tspan>
            </text>
            <rect id="Rectangle-3-Copy-24" fill="#F9CD94" transform="translate(233.500000, 443.000000) rotate(90.000000) translate(-233.500000, -443.000000) " x="223" y="439" width="21" height="8"></rect>
            <text id="8-px" transform="translate(234.000000, 442.500000) rotate(90.000000) translate(-234.000000, -442.500000) " font-family="Roboto-Regular, Roboto" font-size="6" font-weight="normal" fill="#333333">
                <tspan x="228" y="445">8 px</tspan>
            </text>
            <rect id="Rectangle-3-Copy-26" fill="#F9CD94" transform="translate(210.000000, 442.000000) rotate(90.000000) translate(-210.000000, -442.000000) " x="200" y="438" width="20" height="8"></rect>
            <text id="8-px-copy" transform="translate(211.000000, 442.500000) rotate(90.000000) translate(-211.000000, -442.500000) " font-family="Roboto-Regular, Roboto" font-size="6" font-weight="normal" fill="#333333">
                <tspan x="205" y="445">8 px</tspan>
            </text>
            <rect id="Rectangle-3-Copy-21" fill="#9CC2EB" transform="translate(118.000000, 442.000000) rotate(90.000000) translate(-118.000000, -442.000000) " x="108" y="432" width="20" height="20"></rect>
            <text id="20-px" transform="translate(118.500000, 442.500000) rotate(90.000000) translate(-118.500000, -442.500000) " font-family="Roboto-Regular, Roboto" font-size="6" font-weight="normal" fill="#333333">
                <tspan x="111" y="445">20 px</tspan>
            </text>
            <rect id="Rectangle-3-Copy-21" fill="#9CC2EB" transform="translate(247.000000, 442.000000) rotate(90.000000) translate(-247.000000, -442.000000) " x="237" y="432" width="20" height="20"></rect>
            <text id="20-px" transform="translate(247.500000, 442.500000) rotate(90.000000) translate(-247.500000, -442.500000) " font-family="Roboto-Regular, Roboto" font-size="6" font-weight="normal" fill="#333333">
                <tspan x="240" y="445">20 px</tspan>
            </text>
            <rect id="Rectangle-3-Copy-22" fill="#9CC2EB" x="128" y="412" width="109" height="20"></rect>
            <text id="20-px" font-family="Roboto-Regular, Roboto" font-size="6" font-weight="normal" fill="#333333">
                <tspan x="168" y="425">20 px</tspan>
            </text>
            <rect id="Rectangle-3-Copy-22" fill="#9CC2EB" x="128" y="452" width="109" height="20"></rect>
            <text id="20-px" font-family="Roboto-Regular, Roboto" font-size="6" font-weight="normal" fill="#333333">
                <tspan x="168" y="465">20 px</tspan>
            </text>
            <g id="specs-/-redlines-/-line-regular" transform="translate(164.000000, 473.500000) rotate(-90.000000) translate(-164.000000, -473.500000) translate(138.000000, 462.000000)">
                <path d="M3.5,22.5 L3.5,13 C3.5,7.75329488 7.75383113,3.5 12.9970063,3.5 L50.5,3.5" id="redline-line" stroke="#EC407A" stroke-width="1"></path>
                <g id="specs-/-redlines-/-line-end-/-arrow" transform="translate(45.000000, 0.000000)">
                    <g id="redline-end">
                        <use fill="#FFFFFF" fill-rule="evenodd" xlink:href="#path-7"></use>
                        <path stroke="#EC407A" stroke-width="1" d="M5.88196601,3.5 L0.5,0.809016994 L0.5,6.19098301 L5.88196601,3.5 Z"></path>
                    </g>
                </g>
                <g id="specs-/-redlines-/-line-end-/-circle" transform="translate(0.000000, 16.000000)">
                    <g id="redline-start">
                        <use fill="#FFFFFF" fill-rule="evenodd" xlink:href="#path-8"></use>
                        <circle stroke="#EC407A" stroke-width="1" cx="3.5" cy="3.5" r="3"></circle>
                    </g>
                </g>
            </g>
            <g id="specs-/-redlines-/-label" transform="translate(177.000000, 489.000000)" font-size="12" font-family="Roboto-Regular, Roboto" fill="#EC407A" font-weight="normal">
                <text id="redline-label">
                    <tspan x="0" y="11">Text size: 14 px, medium vertically centered</tspan>
                </text>
            </g>
            <g id="specs-/-redlines-/--measurement-/-vertical" transform="translate(257.000000, 432.000000)">
                <text id="label" font-family="Roboto-Regular, Roboto" font-size="12" font-weight="normal" line-spacing="19" fill="#EC407A">
                    <tspan x="26" y="11.5">20 px</tspan>
                </text>
                <g id="specs-/-redlines-/-curly-brace" stroke="#EC407A" stroke-width="1">
                    <path d="M0,0.0662251656 C23.904595,0.0662251656 0.077195982,10 24,10" id="Path-2"></path>
                    <path d="M0,10 C23.904595,10 0.077195982,19.9337748 24,19.9337748" id="Path-2-Copy" transform="translate(12.000000, 14.966887) scale(1, -1) translate(-12.000000, -14.966887) "></path>
                </g>
            </g>
            <g id="specs-/-redlines-/-line-regular" transform="translate(141.000000, 407.500000) scale(1, -1) rotate(-90.000000) translate(-141.000000, -407.500000) translate(116.000000, 392.000000)">
                <path d="M3.5,30.5 L3.5,17 C3.5,9.54415588 9.5455361,3.5 17.0014838,3.5 L48.5,3.5" id="redline-line" stroke="#EC407A" stroke-width="1"></path>
                <g id="specs-/-redlines-/-line-end-/-arrow" transform="translate(43.000000, 0.000000)">
                    <g id="redline-end">
                        <use fill="#FFFFFF" fill-rule="evenodd" xlink:href="#path-9"></use>
                        <path stroke="#EC407A" stroke-width="1" d="M5.88196601,3.5 L0.5,0.809016994 L0.5,6.19098301 L5.88196601,3.5 Z"></path>
                    </g>
                </g>
                <g id="specs-/-redlines-/-line-end-/-circle" transform="translate(0.000000, 24.000000)">
                    <g id="redline-start">
                        <use fill="#FFFFFF" fill-rule="evenodd" xlink:href="#path-10"></use>
                        <circle stroke="#EC407A" stroke-width="1" cx="3.5" cy="3.5" r="3"></circle>
                    </g>
                </g>
            </g>
            <g id="specs-/-redlines-/-label" transform="translate(161.000000, 378.000000)" font-size="12" font-family="Roboto-Regular, Roboto" fill="#EC407A" font-weight="normal">
                <text id="redline-label">
                    <tspan x="0" y="11">Corner Radius 2px</tspan>
                </text>
            </g>
            <g id="specs-/-redlines-/-line-regular" transform="translate(234.000000, 420.500000) scale(1, -1) rotate(-90.000000) translate(-234.000000, -420.500000) translate(219.000000, 405.000000)">
                <path d="M3.5,30.5 L3.5,15.992289 C3.5,9.09298829 9.09492272,3.5 16,3.5 L28.5,3.5" id="redline-line" stroke="#EC407A" stroke-width="1"></path>
                <g id="specs-/-redlines-/-line-end-/-arrow" transform="translate(23.000000, 0.000000)">
                    <g id="redline-end">
                        <use fill="#FFFFFF" fill-rule="evenodd" xlink:href="#path-11"></use>
                        <path stroke="#EC407A" stroke-width="1" d="M5.88196601,3.5 L0.5,0.809016994 L0.5,6.19098301 L5.88196601,3.5 Z"></path>
                    </g>
                </g>
                <g id="specs-/-redlines-/-line-end-/-circle" transform="translate(0.000000, 24.000000)">
                    <g id="redline-start">
                        <use fill="#FFFFFF" fill-rule="evenodd" xlink:href="#path-12"></use>
                        <circle stroke="#EC407A" stroke-width="1" cx="3.5" cy="3.5" r="3"></circle>
                    </g>
                </g>
            </g>
            <g id="specs-/-redlines-/-label" transform="translate(251.000000, 402.000000)" font-size="12" font-family="Roboto-Regular, Roboto" fill="#EC407A" font-weight="normal">
                <text id="redline-label">
                    <tspan x="0" y="11">Icon: Spinner, 12 px x 12 px</tspan>
                </text>
            </g>
            <g id="specs-/-redlines-/-label-title-sm" transform="translate(5.000000, 438.000000)" font-size="10" font-family="Roboto-Regular, Roboto" fill="#9E9E9E" font-weight="normal">
                <text id="SMALL-LABEL">
                    <tspan x="0" y="9">Compact Button</tspan>
                </text>
            </g>
            <g id="Button/Large/Primary" transform="translate(130.000000, 239.000000)">
                <rect id="Rectangle-2" fill="#0C7C84" x="0" y="0" width="150" height="48" rx="2"></rect>
                <text id="Button-Text" font-family="Roboto-Medium, Roboto" font-size="16" font-weight="400" line-spacing="20" fill="#FFFFFF">
                    <tspan x="18.0585938" y="29">Button Text</tspan>
                    <tspan x="99.9414062" y="29" font-size="14"> </tspan>
                </text>
                <g id="arrow-down" transform="translate(117.000000, 19.000000)" fill-rule="nonzero" fill="#FFFFFF">
                    <polygon id="Path-2-Copy-4" points="1.52987678 0.096412021 0 1.48660244 7.95619547 10.2422366 16 1.39019042 14.4701232 0 7.95619547 7.16844736"></polygon>
                </g>
            </g>
            <rect id="Rectangle" fill="#F9CD94" x="263" y="239" width="16" height="48"></rect>
            <text id="16-px" transform="translate(272.500000, 263.500000) rotate(90.000000) translate(-272.500000, -263.500000) " font-family="Roboto-Regular, Roboto" font-size="6" font-weight="normal" fill="#333333">
                <tspan x="265" y="266">16 px</tspan>
            </text>
            <rect id="Rectangle-Copy" fill="#F9CD94" x="231" y="239" width="16" height="48"></rect>
            <text id="16-px-copy" transform="translate(239.500000, 263.500000) rotate(90.000000) translate(-239.500000, -263.500000) " font-family="Roboto-Regular, Roboto" font-size="6" font-weight="normal" fill="#333333">
                <tspan x="232" y="266">16 px</tspan>
            </text>
            <rect id="Rectangle" fill="#F9CD94" x="130" y="239" width="16" height="48"></rect>
            <text id="16-px" transform="translate(138.500000, 262.500000) rotate(90.000000) translate(-138.500000, -262.500000) " font-family="Roboto-Regular, Roboto" font-size="6" font-weight="normal" fill="#333333">
                <tspan x="131" y="265">16 px</tspan>
            </text>
            <rect id="Rectangle-3-Copy-5" fill="#9CC2EB" x="131" y="219" width="149" height="20"></rect>
            <text id="20-px" font-family="Roboto-Regular, Roboto" font-size="6" font-weight="normal" fill="#333333">
                <tspan x="179.240234" y="232">20 px</tspan>
            </text>
            <rect id="Rectangle-3-Copy-22" fill="#9CC2EB" x="130" y="287" width="150" height="20"></rect>
            <text id="20-px" font-family="Roboto-Regular, Roboto" font-size="6" font-weight="normal" fill="#333333">
                <tspan x="179" y="300">20 px</tspan>
            </text>
            <g id="specs-/-redlines-/-line-regular" transform="translate(176.000000, 294.500000) rotate(-90.000000) translate(-176.000000, -294.500000) translate(150.000000, 283.000000)">
                <path d="M3.5,22.5 L3.5,13 C3.5,7.75329488 7.75383113,3.5 12.9970063,3.5 L50.5,3.5" id="redline-line" stroke="#EC407A" stroke-width="1"></path>
                <g id="specs-/-redlines-/-line-end-/-arrow" transform="translate(45.000000, 0.000000)">
                    <g id="redline-end">
                        <use fill="#FFFFFF" fill-rule="evenodd" xlink:href="#path-13"></use>
                        <path stroke="#EC407A" stroke-width="1" d="M5.88196601,3.5 L0.5,0.809016994 L0.5,6.19098301 L5.88196601,3.5 Z"></path>
                    </g>
                </g>
                <g id="specs-/-redlines-/-line-end-/-circle" transform="translate(0.000000, 16.000000)">
                    <g id="redline-start">
                        <use fill="#FFFFFF" fill-rule="evenodd" xlink:href="#path-14"></use>
                        <circle stroke="#EC407A" stroke-width="1" cx="3.5" cy="3.5" r="3"></circle>
                    </g>
                </g>
            </g>
            <g id="specs-/-redlines-/-label" transform="translate(189.000000, 310.000000)" font-size="12" font-family="Roboto-Regular, Roboto" fill="#EC407A" font-weight="normal">
                <text id="redline-label">
                    <tspan x="0" y="11">Text size: 16 px, medium, vertically centered</tspan>
                </text>
            </g>
            <g id="specs-/-redlines-/--measurement-/-vertical" transform="translate(299.000000, 239.000000)">
                <text id="label" font-family="Roboto-Regular, Roboto" font-size="12" font-weight="normal" line-spacing="19" fill="#EC407A">
                    <tspan x="26" y="25.5">48 px</tspan>
                </text>
                <g id="specs-/-redlines-/-curly-brace" stroke="#EC407A" stroke-width="1">
                    <path d="M0,0.158940397 C23.904595,0.158940397 0.077195982,24 24,24" id="Path-2"></path>
                    <path d="M0,24 C23.904595,24 0.077195982,47.8410596 24,47.8410596" id="Path-2-Copy" transform="translate(12.000000, 35.920530) scale(1, -1) translate(-12.000000, -35.920530) "></path>
                </g>
            </g>
            <g id="specs-/-redlines-/-line-regular" transform="translate(142.500000, 214.500000) scale(1, -1) rotate(-90.000000) translate(-142.500000, -214.500000) translate(117.000000, 199.000000)">
                <path d="M3.5,30.5 L3.5,17 C3.5,9.54415588 9.53732989,3.5 16.9907035,3.5 L49.5,3.5" id="redline-line" stroke="#EC407A" stroke-width="1"></path>
                <g id="specs-/-redlines-/-line-end-/-arrow" transform="translate(44.000000, 0.000000)">
                    <g id="redline-end">
                        <use fill="#FFFFFF" fill-rule="evenodd" xlink:href="#path-15"></use>
                        <path stroke="#EC407A" stroke-width="1" d="M5.88196601,3.5 L0.5,0.809016994 L0.5,6.19098301 L5.88196601,3.5 Z"></path>
                    </g>
                </g>
                <g id="specs-/-redlines-/-line-end-/-circle" transform="translate(0.000000, 24.000000)">
                    <g id="redline-start">
                        <use fill="#FFFFFF" fill-rule="evenodd" xlink:href="#path-16"></use>
                        <circle stroke="#EC407A" stroke-width="1" cx="3.5" cy="3.5" r="3"></circle>
                    </g>
                </g>
            </g>
            <g id="specs-/-redlines-/-label" transform="translate(163.000000, 185.000000)" font-size="12" font-family="Roboto-Regular, Roboto" fill="#EC407A" font-weight="normal">
                <text id="redline-label">
                    <tspan x="0" y="11">Corner Radius 2px</tspan>
                </text>
            </g>
            <g id="specs-/-redlines-/-line-regular" transform="translate(267.000000, 231.500000) scale(1, -1) rotate(-90.000000) translate(-267.000000, -231.500000) translate(247.000000, 216.000000)">
                <path d="M3.5,30.5 L3.5,17 C3.5,9.54415588 9.53663418,3.5 17.0068778,3.5 L38.5,3.5" id="redline-line" stroke="#EC407A" stroke-width="1"></path>
                <g id="specs-/-redlines-/-line-end-/-arrow" transform="translate(33.000000, 0.000000)">
                    <g id="redline-end">
                        <use fill="#FFFFFF" fill-rule="evenodd" xlink:href="#path-17"></use>
                        <path stroke="#EC407A" stroke-width="1" d="M5.88196601,3.5 L0.5,0.809016994 L0.5,6.19098301 L5.88196601,3.5 Z"></path>
                    </g>
                </g>
                <g id="specs-/-redlines-/-line-end-/-circle" transform="translate(0.000000, 24.000000)">
                    <g id="redline-start">
                        <use fill="#FFFFFF" fill-rule="evenodd" xlink:href="#path-18"></use>
                        <circle stroke="#EC407A" stroke-width="1" cx="3.5" cy="3.5" r="3"></circle>
                    </g>
                </g>
            </g>
            <g id="specs-/-redlines-/-label" transform="translate(286.000000, 207.000000)" font-size="12" font-family="Roboto-Regular, Roboto" fill="#EC407A" font-weight="normal">
                <text id="redline-label">
                    <tspan x="0" y="9">Icon: Spinner, 14 px x 14 px</tspan>
                </text>
            </g>
            <g id="specs-/-redlines-/-label-title-sm" transform="translate(5.000000, 255.000000)" font-size="10" font-family="Roboto-Regular, Roboto" fill="#9E9E9E" font-weight="normal">
                <text id="SMALL-LABEL">
                    <tspan x="0" y="9">Large Button</tspan>
                </text>
            </g>
            <rect id="Rectangle-5" fill="#9CC2EB" x="110" y="239" width="20" height="48"></rect>
            <text id="20-px" transform="translate(120.500000, 263.500000) rotate(90.000000) translate(-120.500000, -263.500000) " font-family="Roboto-Regular, Roboto" font-size="6" font-weight="normal" fill="#333333">
                <tspan x="113" y="266">20 px</tspan>
            </text>
            <rect id="Rectangle-5-Copy" fill="#9CC2EB" x="280" y="239" width="20" height="48"></rect>
            <text id="20-px-copy-2" transform="translate(290.500000, 263.500000) rotate(90.000000) translate(-290.500000, -263.500000) " font-family="Roboto-Regular, Roboto" font-size="6" font-weight="normal" fill="#333333">
                <tspan x="283" y="266">20 px</tspan>
            </text>
            <text id="12-px" transform="translate(246.500000, 68.500000) rotate(90.000000) translate(-246.500000, -68.500000) " font-family="Roboto-Regular, Roboto" font-size="6" font-weight="normal" fill="#333333">
                <tspan x="239" y="70">12 px</tspan>
            </text>
        </g>
    </g>
</svg>