<?xml version="1.0" encoding="UTF-8" standalone="no"?>
<svg width="499px" height="505px" viewBox="0 0 499 505" version="1.1" xmlns="http://www.w3.org/2000/svg" xmlns:xlink="http://www.w3.org/1999/xlink">
    <!-- Generator: Sketch 47.1 (45422) - http://www.bohemiancoding.com/sketch -->
    <title>split-drop-buttons-specs</title>
    <desc>Created with Sketch.</desc>
    <defs>
        <polygon id="path-1" points="7 3.5 0 7 0 0"></polygon>
        <circle id="path-2" cx="3.5" cy="3.5" r="3.5"></circle>
        <polygon id="path-3" points="7 3.5 0 7 0 0"></polygon>
        <circle id="path-4" cx="3.5" cy="3.5" r="3.5"></circle>
        <polygon id="path-5" points="7 3.5 0 7 0 0"></polygon>
        <circle id="path-6" cx="3.5" cy="3.5" r="3.5"></circle>
        <polygon id="path-7" points="7 3.5 0 7 0 0"></polygon>
        <circle id="path-8" cx="3.5" cy="3.5" r="3.5"></circle>
        <polygon id="path-9" points="7 3.5 0 7 0 0"></polygon>
        <circle id="path-10" cx="3.5" cy="3.5" r="3.5"></circle>
        <polygon id="path-11" points="7 3.5 0 7 0 0"></polygon>
        <circle id="path-12" cx="3.5" cy="3.5" r="3.5"></circle>
        <polygon id="path-13" points="7 3.5 0 7 0 0"></polygon>
        <circle id="path-14" cx="3.5" cy="3.5" r="3.5"></circle>
        <polygon id="path-15" points="7 3.5 0 7 0 0"></polygon>
        <circle id="path-16" cx="3.5" cy="3.5" r="3.5"></circle>
        <polygon id="path-17" points="7 3.5 0 7 0 0"></polygon>
        <circle id="path-18" cx="3.5" cy="3.5" r="3.5"></circle>
        <polygon id="path-19" points="7 3.5 0 7 0 0"></polygon>
        <circle id="path-20" cx="3.5" cy="3.5" r="3.5"></circle>
        <polygon id="path-21" points="7 3.5 0 7 0 0"></polygon>
        <circle id="path-22" cx="3.5" cy="3.5" r="3.5"></circle>
        <polygon id="path-23" points="7 3.5 0 7 0 0"></polygon>
        <circle id="path-24" cx="3.5" cy="3.5" r="3.5"></circle>
    </defs>
    <g id="Page-1" stroke="none" stroke-width="1" fill="none" fill-rule="evenodd">
        <g id="split-drop-buttons-specs">
            <polygon id="Rectangle-3-Copy-5" fill="#9CC2EB" points="243 452 243 472 125 472 125 452"></polygon>
            <polygon id="Rectangle-3-Copy-6" fill="#9CC2EB" points="243 412 243 432 125 432 125 412"></polygon>
            <g id="Button/Standard/Primary" transform="translate(128.000000, 54.000000)">
                <rect id="Rectangle-2" fill="#0C7C84" x="0" y="0" width="134" height="32" rx="2"></rect>
                <path d="M12.1879883,21 L12.1879883,11.046875 L15.5991211,11.046875 C16.7247778,11.046875 17.58154,11.2724587 18.1694336,11.7236328 C18.7573272,12.1748069 19.0512695,12.8470007 19.0512695,13.7402344 C19.0512695,14.1959658 18.9282239,14.606118 18.6821289,14.9707031 C18.4360339,15.3352883 18.0760115,15.6178375 17.6020508,15.8183594 C18.1398139,15.9641934 18.5556626,16.2387675 18.8496094,16.6420898 C19.1435562,17.0454122 19.2905273,17.5296196 19.2905273,18.0947266 C19.2905273,19.028976 18.9908884,19.7467423 18.3916016,20.2480469 C17.7923147,20.7493515 16.9344131,21 15.8178711,21 L12.1879883,21 Z M13.9174805,16.5087891 L13.9174805,19.6191406 L15.8383789,19.6191406 C16.3806993,19.6191406 16.8045232,19.4847019 17.1098633,19.2158203 C17.4152033,18.9469388 17.5678711,18.5732446 17.5678711,18.0947266 C17.5678711,17.0602162 17.0392305,16.5315756 15.9819336,16.5087891 L13.9174805,16.5087891 Z M13.9174805,15.2373047 L15.612793,15.2373047 C16.1505561,15.2373047 16.570962,15.1153984 16.8740234,14.871582 C17.1770848,14.6277657 17.3286133,14.2825543 17.3286133,13.8359375 C17.3286133,13.3437475 17.188478,12.9882823 16.9082031,12.7695312 C16.6279283,12.5507802 16.191572,12.4414062 15.5991211,12.4414062 L13.9174805,12.4414062 L13.9174805,15.2373047 Z M25.340332,20.2753906 C24.8526994,20.8496122 24.159998,21.1367188 23.262207,21.1367188 C22.4601197,21.1367188 21.8528666,20.9020206 21.4404297,20.4326172 C21.0279927,19.9632138 20.8217773,19.2841841 20.8217773,18.3955078 L20.8217773,13.6035156 L22.4829102,13.6035156 L22.4829102,18.375 C22.4829102,19.3138068 22.8725547,19.7832031 23.6518555,19.7832031 C24.4585001,19.7832031 25.003091,19.493818 25.2856445,18.9150391 L25.2856445,13.6035156 L26.9467773,13.6035156 L26.9467773,21 L25.3813477,21 L25.340332,20.2753906 Z M30.7202148,11.8056641 L30.7202148,13.6035156 L32.0258789,13.6035156 L32.0258789,14.8339844 L30.7202148,14.8339844 L30.7202148,18.9628906 C30.7202148,19.2454441 30.7760411,19.4493809 30.8876953,19.574707 C30.9993495,19.7000332 31.198729,19.7626953 31.4858398,19.7626953 C31.6772471,19.7626953 31.87093,19.7399091 32.0668945,19.6943359 L32.0668945,20.9794922 C31.6886374,21.0843104 31.3240577,21.1367188 30.9731445,21.1367188 C29.6970965,21.1367188 29.059082,20.4326242 29.059082,19.0244141 L29.059082,14.8339844 L27.8422852,14.8339844 L27.8422852,13.6035156 L29.059082,13.6035156 L29.059082,11.8056641 L30.7202148,11.8056641 Z M35.3754883,11.8056641 L35.3754883,13.6035156 L36.6811523,13.6035156 L36.6811523,14.8339844 L35.3754883,14.8339844 L35.3754883,18.9628906 C35.3754883,19.2454441 35.4313145,19.4493809 35.5429688,19.574707 C35.654623,19.7000332 35.8540025,19.7626953 36.1411133,19.7626953 C36.3325205,19.7626953 36.5262034,19.7399091 36.722168,19.6943359 L36.722168,20.9794922 C36.3439109,21.0843104 35.9793312,21.1367188 35.628418,21.1367188 C34.3523699,21.1367188 33.7143555,20.4326242 33.7143555,19.0244141 L33.7143555,14.8339844 L32.4975586,14.8339844 L32.4975586,13.6035156 L33.7143555,13.6035156 L33.7143555,11.8056641 L35.3754883,11.8056641 Z M37.4331055,17.2333984 C37.4331055,16.5087854 37.5766587,15.8559599 37.8637695,15.2749023 C38.1508803,14.6938448 38.5541966,14.2472346 39.0737305,13.9350586 C39.5932643,13.6228826 40.1902636,13.4667969 40.8647461,13.4667969 C41.862798,13.4667969 42.6728485,13.7880827 43.2949219,14.4306641 C43.9169953,15.0732454 44.2530922,15.9254504 44.3032227,16.9873047 L44.3100586,17.3769531 C44.3100586,18.1061234 44.1699233,18.7578096 43.8896484,19.3320312 C43.6093736,19.9062529 43.2083359,20.3505844 42.6865234,20.6650391 C42.1647109,20.9794938 41.5620151,21.1367188 40.878418,21.1367188 C39.834793,21.1367188 38.9996776,20.7892287 38.3730469,20.0942383 C37.7464161,19.3992478 37.4331055,18.4729876 37.4331055,17.3154297 L37.4331055,17.2333984 Z M39.0942383,17.3769531 C39.0942383,18.1380246 39.2514633,18.7338846 39.565918,19.1645508 C39.8803727,19.595217 40.3178683,19.8105469 40.878418,19.8105469 C41.4389676,19.8105469 41.875324,19.5917991 42.1875,19.1542969 C42.499676,18.7167947 42.6557617,18.0765016 42.6557617,17.2333984 C42.6557617,16.4859989 42.4951188,15.8935569 42.1738281,15.4560547 C41.8525375,15.0185525 41.4161811,14.7998047 40.8647461,14.7998047 C40.3224257,14.7998047 39.8917659,15.0151346 39.5727539,15.4458008 C39.2537419,15.876467 39.0942383,16.520178 39.0942383,17.3769531 Z M47.2563477,13.6035156 L47.3041992,14.4580078 C47.851077,13.7971972 48.5688432,13.4667969 49.4575195,13.4667969 C50.9978918,13.4667969 51.7817381,14.348624 51.809082,16.1123047 L51.809082,21 L50.1479492,21 L50.1479492,16.2080078 C50.1479492,15.7386044 50.0465505,15.3911144 49.84375,15.1655273 C49.6409495,14.9399403 49.3094099,14.8271484 48.8491211,14.8271484 C48.1791959,14.8271484 47.6801774,15.1302053 47.3520508,15.7363281 L47.3520508,21 L45.690918,21 L45.690918,13.6035156 L47.2563477,13.6035156 Z M63.9291992,12.4414062 L60.8256836,12.4414062 L60.8256836,21 L59.1098633,21 L59.1098633,12.4414062 L56.0336914,12.4414062 L56.0336914,11.046875 L63.9291992,11.046875 L63.9291992,12.4414062 Z M67.7231445,21.1367188 C66.6704049,21.1367188 65.8170606,20.8051791 65.1630859,20.1420898 C64.5091113,19.4790006 64.1821289,18.5960342 64.1821289,17.4931641 L64.1821289,17.2880859 C64.1821289,16.549801 64.3245428,15.8901396 64.609375,15.309082 C64.8942072,14.7280244 65.2941055,14.2757178 65.809082,13.9521484 C66.3240586,13.6285791 66.8982716,13.4667969 67.5317383,13.4667969 C68.5389048,13.4667969 69.3170545,13.7880827 69.8662109,14.4306641 C70.4153673,15.0732454 70.6899414,15.982416 70.6899414,17.1582031 L70.6899414,17.828125 L65.8569336,17.828125 C65.9070641,18.4388051 66.1110008,18.9218732 66.46875,19.2773438 C66.8264992,19.6328143 67.2765272,19.8105469 67.8188477,19.8105469 C68.5799192,19.8105469 69.1997046,19.5029328 69.6782227,18.8876953 L70.5737305,19.7421875 C70.277505,20.184247 69.8821639,20.5271798 69.3876953,20.7709961 C68.8932267,21.0148124 68.338382,21.1367188 67.7231445,21.1367188 Z M67.5249023,14.7998047 C67.0691709,14.7998047 66.7011733,14.9593083 66.4208984,15.2783203 C66.1406236,15.5973323 65.9617517,16.0416638 65.8842773,16.6113281 L69.0493164,16.6113281 L69.0493164,16.4882812 C69.0128579,15.9322889 68.8647474,15.5118829 68.6049805,15.2270508 C68.3452135,14.9422186 67.9851911,14.7998047 67.5249023,14.7998047 Z M74.6342773,16.0371094 L76.0424805,13.6035156 L77.8881836,13.6035156 L75.6254883,17.2470703 L77.9633789,21 L76.1313477,21 L74.6547852,18.4707031 L73.1850586,21 L71.3393555,21 L73.6772461,17.2470703 L71.4213867,13.6035156 L73.253418,13.6035156 L74.6342773,16.0371094 Z M81.1010742,11.8056641 L81.1010742,13.6035156 L82.4067383,13.6035156 L82.4067383,14.8339844 L81.1010742,14.8339844 L81.1010742,18.9628906 C81.1010742,19.2454441 81.1569005,19.4493809 81.2685547,19.574707 C81.3802089,19.7000332 81.5795884,19.7626953 81.8666992,19.7626953 C82.0581064,19.7626953 82.2517894,19.7399091 82.4477539,19.6943359 L82.4477539,20.9794922 C82.0694968,21.0843104 81.7049171,21.1367188 81.3540039,21.1367188 C80.0779559,21.1367188 79.4399414,20.4326242 79.4399414,19.0244141 L79.4399414,14.8339844 L78.2231445,14.8339844 L78.2231445,13.6035156 L79.4399414,13.6035156 L79.4399414,11.8056641 L81.1010742,11.8056641 Z" id="Button-Text" fill="#FFFFFF"></path>
                <path d="M95.5,0 L95.5,32" id="Line-2" stroke="#FFFFFF"></path>
                <polygon id="Path-2-Copy-4" fill="#FFFFFF" fill-rule="nonzero" points="109.338642 12.0843605 108 13.3007771 114.961671 20.961957 122 13.2164166 120.661358 12 114.961671 18.2723914"></polygon>
            </g>
            <rect id="Rectangle-3-Copy-24" fill="#F9CD94" transform="translate(134.000000, 70.000000) rotate(90.000000) translate(-134.000000, -70.000000) " x="118" y="64" width="32" height="12"></rect>
            <text id="12-px" transform="translate(134.500000, 70.500000) rotate(90.000000) translate(-134.500000, -70.500000) " font-family="Roboto-Regular, Roboto" font-size="6" font-weight="normal" fill="#333333">
                <tspan x="127" y="73">12 px</tspan>
            </text>
            <rect id="Rectangle-3-Copy-24" fill="#F9CD94" transform="translate(230.000000, 70.000000) rotate(90.000000) translate(-230.000000, -70.000000) " x="213" y="64" width="34" height="12"></rect>
            <rect id="Rectangle-3-Copy-25" fill="#F9CD94" transform="translate(256.000000, 70.000000) rotate(90.000000) translate(-256.000000, -70.000000) " x="239" y="64" width="34" height="12"></rect>
            <text id="12-px" transform="translate(231.500000, 70.500000) rotate(90.000000) translate(-231.500000, -70.500000) " font-family="Roboto-Regular, Roboto" font-size="6" font-weight="normal" fill="#333333">
                <tspan x="224" y="73">12 px</tspan>
            </text>
            <text id="12-px-copy-3" transform="translate(257.500000, 70.500000) rotate(90.000000) translate(-257.500000, -70.500000) " font-family="Roboto-Regular, Roboto" font-size="6" font-weight="normal" fill="#333333">
                <tspan x="250" y="73">12 px</tspan>
            </text>
            <rect id="Rectangle-3-Copy-27" fill="#F9CD94" transform="translate(217.000000, 71.000000) rotate(90.000000) translate(-217.000000, -71.000000) " x="199" y="65" width="36" height="12"></rect>
            <text id="12-px-copy-2" transform="translate(217.500000, 70.500000) rotate(90.000000) translate(-217.500000, -70.500000) " font-family="Roboto-Regular, Roboto" font-size="6" font-weight="normal" fill="#333333">
                <tspan x="210" y="73">12 px</tspan>
            </text>
            <text id="12-px-copy" transform="translate(271.500000, 77.500000) rotate(-90.000000) translate(-271.500000, -77.500000) " font-family="Roboto-Regular, Roboto" font-size="6" font-weight="normal" fill="#333333">
                <tspan x="264" y="80">12 px</tspan>
            </text>
            <rect id="Rectangle-3-Copy-23" fill="#9CC2EB" transform="translate(272.000000, 70.000000) rotate(90.000000) translate(-272.000000, -70.000000) " x="256" y="60" width="32" height="20"></rect>
            <text id="20-px-copy" transform="translate(272.500000, 70.500000) rotate(90.000000) translate(-272.500000, -70.500000) " font-family="Roboto-Regular, Roboto" font-size="6" font-weight="normal" fill="#333333">
                <tspan x="265" y="73">20 px</tspan>
            </text>
            <rect id="Rectangle-3-Copy-22" fill="#9CC2EB" x="128" y="34" width="134" height="20"></rect>
            <text id="20-px" font-family="Roboto-Regular, Roboto" font-size="6" font-weight="normal" fill="#333333">
                <tspan x="167" y="47">20 px</tspan>
            </text>
            <rect id="Rectangle-3-Copy-22" fill="#9CC2EB" x="128" y="86" width="134" height="20"></rect>
            <text id="20-px" font-family="Roboto-Regular, Roboto" font-size="6" font-weight="normal" fill="#333333">
                <tspan x="167" y="99">20 px</tspan>
            </text>
            <rect id="Rectangle-3-Copy-22" fill="#9CC2EB" transform="translate(118.000000, 70.000000) rotate(-90.000000) translate(-118.000000, -70.000000) " x="102" y="60" width="32" height="20"></rect>
            <text id="20-px" transform="translate(118.500000, 70.500000) rotate(90.000000) translate(-118.500000, -70.500000) " font-family="Roboto-Regular, Roboto" font-size="6" font-weight="normal" fill="#333333">
                <tspan x="111" y="73">20 px</tspan>
            </text>
            <g id="specs-/-redlines-/-line-regular" transform="translate(166.000000, 101.500000) rotate(-90.000000) translate(-166.000000, -101.500000) translate(140.000000, 90.000000)">
                <path d="M3.5,22.5 L3.5,13 C3.5,7.75329488 7.75383113,3.5 12.9970063,3.5 L50.5,3.5" id="redline-line" stroke="#EC407A" stroke-width="1"></path>
                <g id="specs-/-redlines-/-line-end-/-arrow" transform="translate(45.000000, 0.000000)">
                    <g id="redline-end">
                        <use fill="#FFFFFF" fill-rule="evenodd" xlink:href="#path-1"></use>
                        <path stroke="#EC407A" stroke-width="1" d="M5.88196601,3.5 L0.5,0.809016994 L0.5,6.19098301 L5.88196601,3.5 Z"></path>
                    </g>
                </g>
                <g id="specs-/-redlines-/-line-end-/-circle" transform="translate(0.000000, 16.000000)">
                    <g id="redline-start">
                        <use fill="#FFFFFF" fill-rule="evenodd" xlink:href="#path-2"></use>
                        <circle stroke="#EC407A" stroke-width="1" cx="3.5" cy="3.5" r="3"></circle>
                    </g>
                </g>
            </g>
            <g id="specs-/-redlines-/-label" transform="translate(179.000000, 117.000000)" font-size="12" font-family="Roboto-Regular, Roboto" fill="#EC407A" font-weight="normal">
                <text id="redline-label">
                    <tspan x="0" y="11">Text size: 14 px, medium, vertically centered</tspan>
                </text>
            </g>
            <g id="specs-/-redlines-/-line-regular" transform="translate(140.500000, 29.500000) scale(1, -1) rotate(-90.000000) translate(-140.500000, -29.500000) translate(115.000000, 14.000000)">
                <path d="M3.5,30.5 L3.5,17 C3.5,9.54415588 9.53732989,3.5 16.9907035,3.5 L49.5,3.5" id="redline-line" stroke="#EC407A" stroke-width="1"></path>
                <g id="specs-/-redlines-/-line-end-/-arrow" transform="translate(44.000000, 0.000000)">
                    <g id="redline-end">
                        <use fill="#FFFFFF" fill-rule="evenodd" xlink:href="#path-3"></use>
                        <path stroke="#EC407A" stroke-width="1" d="M5.88196601,3.5 L0.5,0.809016994 L0.5,6.19098301 L5.88196601,3.5 Z"></path>
                    </g>
                </g>
                <g id="specs-/-redlines-/-line-end-/-circle" transform="translate(0.000000, 24.000000)">
                    <g id="redline-start">
                        <use fill="#FFFFFF" fill-rule="evenodd" xlink:href="#path-4"></use>
                        <circle stroke="#EC407A" stroke-width="1" cx="3.5" cy="3.5" r="3"></circle>
                    </g>
                </g>
            </g>
            <g id="specs-/-redlines-/-label" transform="translate(161.000000, 0.000000)" font-size="12" font-family="Roboto-Regular, Roboto" fill="#EC407A" font-weight="normal">
                <text id="redline-label">
                    <tspan x="0" y="11">Corner Radius 2px</tspan>
                </text>
            </g>
            <g id="specs-/-redlines-/-line-regular" transform="translate(255.000000, 51.500000) scale(1, -1) rotate(-90.000000) translate(-255.000000, -51.500000) translate(243.000000, 36.000000)">
                <path d="M3.5,30.5 L3.5,13.0002033 C3.5,7.75338589 7.75214127,3.5 13,3.5 L22.5,3.5" id="redline-line" stroke="#EC407A" stroke-width="1"></path>
                <g id="specs-/-redlines-/-line-end-/-arrow" transform="translate(17.000000, 0.000000)">
                    <g id="redline-end">
                        <use fill="#FFFFFF" fill-rule="evenodd" xlink:href="#path-5"></use>
                        <path stroke="#EC407A" stroke-width="1" d="M5.88196601,3.5 L0.5,0.809016994 L0.5,6.19098301 L5.88196601,3.5 Z"></path>
                    </g>
                </g>
                <g id="specs-/-redlines-/-line-end-/-circle" transform="translate(0.000000, 24.000000)">
                    <g id="redline-start">
                        <use fill="#FFFFFF" fill-rule="evenodd" xlink:href="#path-6"></use>
                        <circle stroke="#EC407A" stroke-width="1" cx="3.5" cy="3.5" r="3"></circle>
                    </g>
                </g>
            </g>
            <g id="specs-/-redlines-/-label" transform="translate(272.000000, 36.000000)" font-size="12" font-family="Roboto-Regular, Roboto" fill="#EC407A" font-weight="normal">
                <text id="redline-label">
                    <tspan x="0" y="11">Icon: arrow-down (e900), 14 px x 9 px</tspan>
                </text>
            </g>
            <g id="specs-/-redlines-/-line-regular" transform="translate(235.000000, 41.500000) scale(1, -1) rotate(-90.000000) translate(-235.000000, -41.500000) translate(215.000000, 26.000000)">
                <path d="M3.5,30.5 L3.5,17 C3.5,9.54415588 9.53663418,3.5 17.0068778,3.5 L38.5,3.5" id="redline-line" stroke="#EC407A" stroke-width="1"></path>
                <g id="specs-/-redlines-/-line-end-/-arrow" transform="translate(33.000000, 0.000000)">
                    <g id="redline-end">
                        <use fill="#FFFFFF" fill-rule="evenodd" xlink:href="#path-7"></use>
                        <path stroke="#EC407A" stroke-width="1" d="M5.88196601,3.5 L0.5,0.809016994 L0.5,6.19098301 L5.88196601,3.5 Z"></path>
                    </g>
                </g>
                <g id="specs-/-redlines-/-line-end-/-circle" transform="translate(0.000000, 24.000000)">
                    <g id="redline-start">
                        <use fill="#FFFFFF" fill-rule="evenodd" xlink:href="#path-8"></use>
                        <circle stroke="#EC407A" stroke-width="1" cx="3.5" cy="3.5" r="3"></circle>
                    </g>
                </g>
            </g>
            <g id="specs-/-redlines-/-label" transform="translate(252.000000, 18.000000)" font-size="12" font-family="Roboto-Regular, Roboto" fill="#EC407A" font-weight="normal">
                <text id="redline-label">
                    <tspan x="0" y="11">Line: 1px #ffffff (gray 0)</tspan>
                </text>
            </g>
            <g id="specs-/-redlines-/--measurement-/-vertical" transform="translate(284.000000, 54.000000)">
                <text id="label" font-family="Roboto-Regular, Roboto" font-size="12" font-weight="normal" line-spacing="19" fill="#EC407A">
                    <tspan x="26" y="17.5">32 px</tspan>
                </text>
                <g id="specs-/-redlines-/-curly-brace" stroke="#EC407A" stroke-width="1">
                    <path d="M0,0.105960265 C23.904595,0.105960265 0.077195982,16 24,16" id="Path-2"></path>
                    <path d="M0,16 C23.904595,16 0.077195982,31.8940397 24,31.8940397" id="Path-2-Copy" transform="translate(12.000000, 23.947020) scale(1, -1) translate(-12.000000, -23.947020) "></path>
                </g>
            </g>
            <g id="specs-/-redlines-/-label-title-sm" transform="translate(2.000000, 68.000000)" font-size="10" font-family="Roboto-Regular, Roboto" fill="#9E9E9E" font-weight="normal">
                <text id="SMALL-LABEL">
                    <tspan x="0" y="9">Standard Button</tspan>
                </text>
            </g>
            <g id="Button/Compact/Primary" transform="translate(125.000000, 432.000000)">
                <rect id="Rectangle-2" fill="#0C7C84" x="0" y="0" width="118" height="20" rx="2"></rect>
                <path d="M8.18798828,15 L8.18798828,5.046875 L11.5991211,5.046875 C12.7247778,5.046875 13.58154,5.27245868 14.1694336,5.72363281 C14.7573272,6.17480694 15.0512695,6.84700074 15.0512695,7.74023438 C15.0512695,8.19596582 14.9282239,8.60611797 14.6821289,8.97070312 C14.4360339,9.33528828 14.0760115,9.61783754 13.6020508,9.81835938 C14.1398139,9.96419344 14.5556626,10.2387675 14.8496094,10.6420898 C15.1435562,11.0454122 15.2905273,11.5296196 15.2905273,12.0947266 C15.2905273,13.028976 14.9908884,13.7467423 14.3916016,14.2480469 C13.7923147,14.7493515 12.9344131,15 11.8178711,15 L8.18798828,15 Z M9.91748047,10.5087891 L9.91748047,13.6191406 L11.8383789,13.6191406 C12.3806993,13.6191406 12.8045232,13.4847019 13.1098633,13.2158203 C13.4152033,12.9469388 13.5678711,12.5732446 13.5678711,12.0947266 C13.5678711,11.0602162 13.0392305,10.5315756 11.9819336,10.5087891 L9.91748047,10.5087891 Z M9.91748047,9.23730469 L11.612793,9.23730469 C12.1505561,9.23730469 12.570962,9.11539835 12.8740234,8.87158203 C13.1770848,8.62776571 13.3286133,8.28255432 13.3286133,7.8359375 C13.3286133,7.34374754 13.188478,6.98828234 12.9082031,6.76953125 C12.6279283,6.55078016 12.191572,6.44140625 11.5991211,6.44140625 L9.91748047,6.44140625 L9.91748047,9.23730469 Z M21.340332,14.2753906 C20.8526994,14.8496122 20.159998,15.1367188 19.262207,15.1367188 C18.4601197,15.1367188 17.8528666,14.9020206 17.4404297,14.4326172 C17.0279927,13.9632138 16.8217773,13.2841841 16.8217773,12.3955078 L16.8217773,7.60351562 L18.4829102,7.60351562 L18.4829102,12.375 C18.4829102,13.3138068 18.8725547,13.7832031 19.6518555,13.7832031 C20.4585001,13.7832031 21.003091,13.493818 21.2856445,12.9150391 L21.2856445,7.60351562 L22.9467773,7.60351562 L22.9467773,15 L21.3813477,15 L21.340332,14.2753906 Z M26.7202148,5.80566406 L26.7202148,7.60351562 L28.0258789,7.60351562 L28.0258789,8.83398438 L26.7202148,8.83398438 L26.7202148,12.9628906 C26.7202148,13.2454441 26.7760411,13.4493809 26.8876953,13.574707 C26.9993495,13.7000332 27.198729,13.7626953 27.4858398,13.7626953 C27.6772471,13.7626953 27.87093,13.7399091 28.0668945,13.6943359 L28.0668945,14.9794922 C27.6886374,15.0843104 27.3240577,15.1367188 26.9731445,15.1367188 C25.6970965,15.1367188 25.059082,14.4326242 25.059082,13.0244141 L25.059082,8.83398438 L23.8422852,8.83398438 L23.8422852,7.60351562 L25.059082,7.60351562 L25.059082,5.80566406 L26.7202148,5.80566406 Z M31.3754883,5.80566406 L31.3754883,7.60351562 L32.6811523,7.60351562 L32.6811523,8.83398438 L31.3754883,8.83398438 L31.3754883,12.9628906 C31.3754883,13.2454441 31.4313145,13.4493809 31.5429688,13.574707 C31.654623,13.7000332 31.8540025,13.7626953 32.1411133,13.7626953 C32.3325205,13.7626953 32.5262034,13.7399091 32.722168,13.6943359 L32.722168,14.9794922 C32.3439109,15.0843104 31.9793312,15.1367188 31.628418,15.1367188 C30.3523699,15.1367188 29.7143555,14.4326242 29.7143555,13.0244141 L29.7143555,8.83398438 L28.4975586,8.83398438 L28.4975586,7.60351562 L29.7143555,7.60351562 L29.7143555,5.80566406 L31.3754883,5.80566406 Z M33.4331055,11.2333984 C33.4331055,10.5087854 33.5766587,9.85595994 33.8637695,9.27490234 C34.1508803,8.69384475 34.5541966,8.24723463 35.0737305,7.93505859 C35.5932643,7.62288255 36.1902636,7.46679688 36.8647461,7.46679688 C37.862798,7.46679688 38.6728485,7.78808272 39.2949219,8.43066406 C39.9169953,9.0732454 40.2530922,9.92545042 40.3032227,10.9873047 L40.3100586,11.3769531 C40.3100586,12.1061234 40.1699233,12.7578096 39.8896484,13.3320312 C39.6093736,13.9062529 39.2083359,14.3505844 38.6865234,14.6650391 C38.1647109,14.9794938 37.5620151,15.1367188 36.878418,15.1367188 C35.834793,15.1367188 34.9996776,14.7892287 34.3730469,14.0942383 C33.7464161,13.3992478 33.4331055,12.4729876 33.4331055,11.3154297 L33.4331055,11.2333984 Z M35.0942383,11.3769531 C35.0942383,12.1380246 35.2514633,12.7338846 35.565918,13.1645508 C35.8803727,13.595217 36.3178683,13.8105469 36.878418,13.8105469 C37.4389676,13.8105469 37.875324,13.5917991 38.1875,13.1542969 C38.499676,12.7167947 38.6557617,12.0765016 38.6557617,11.2333984 C38.6557617,10.4859989 38.4951188,9.89355687 38.1738281,9.45605469 C37.8525375,9.0185525 37.4161811,8.79980469 36.8647461,8.79980469 C36.3224257,8.79980469 35.8917659,9.01513457 35.5727539,9.44580078 C35.2537419,9.876467 35.0942383,10.520178 35.0942383,11.3769531 Z M43.2563477,7.60351562 L43.3041992,8.45800781 C43.851077,7.79719722 44.5688432,7.46679688 45.4575195,7.46679688 C46.9978918,7.46679688 47.7817381,8.34862399 47.809082,10.1123047 L47.809082,15 L46.1479492,15 L46.1479492,10.2080078 C46.1479492,9.73860442 46.0465505,9.39111441 45.84375,9.16552734 C45.6409495,8.93994028 45.3094099,8.82714844 44.8491211,8.82714844 C44.1791959,8.82714844 43.6801774,9.1302053 43.3520508,9.73632812 L43.3520508,15 L41.690918,15 L41.690918,7.60351562 L43.2563477,7.60351562 Z M59.9291992,6.44140625 L56.8256836,6.44140625 L56.8256836,15 L55.1098633,15 L55.1098633,6.44140625 L52.0336914,6.44140625 L52.0336914,5.046875 L59.9291992,5.046875 L59.9291992,6.44140625 Z M63.7231445,15.1367188 C62.6704049,15.1367188 61.8170606,14.8051791 61.1630859,14.1420898 C60.5091113,13.4790006 60.1821289,12.5960342 60.1821289,11.4931641 L60.1821289,11.2880859 C60.1821289,10.549801 60.3245428,9.89013962 60.609375,9.30908203 C60.8942072,8.72802444 61.2941055,8.27571776 61.809082,7.95214844 C62.3240586,7.62857911 62.8982716,7.46679688 63.5317383,7.46679688 C64.5389048,7.46679688 65.3170545,7.78808272 65.8662109,8.43066406 C66.4153673,9.0732454 66.6899414,9.982416 66.6899414,11.1582031 L66.6899414,11.828125 L61.8569336,11.828125 C61.9070641,12.4388051 62.1110008,12.9218732 62.46875,13.2773438 C62.8264992,13.6328143 63.2765272,13.8105469 63.8188477,13.8105469 C64.5799192,13.8105469 65.1997046,13.5029328 65.6782227,12.8876953 L66.5737305,13.7421875 C66.277505,14.184247 65.8821639,14.5271798 65.3876953,14.7709961 C64.8932267,15.0148124 64.338382,15.1367188 63.7231445,15.1367188 Z M63.5249023,8.79980469 C63.0691709,8.79980469 62.7011733,8.9593083 62.4208984,9.27832031 C62.1406236,9.59733232 61.9617517,10.0416638 61.8842773,10.6113281 L65.0493164,10.6113281 L65.0493164,10.4882812 C65.0128579,9.93228889 64.8647474,9.51188293 64.6049805,9.22705078 C64.3452135,8.94221863 63.9851911,8.79980469 63.5249023,8.79980469 Z M70.6342773,10.0371094 L72.0424805,7.60351562 L73.8881836,7.60351562 L71.6254883,11.2470703 L73.9633789,15 L72.1313477,15 L70.6547852,12.4707031 L69.1850586,15 L67.3393555,15 L69.6772461,11.2470703 L67.4213867,7.60351562 L69.253418,7.60351562 L70.6342773,10.0371094 Z M77.1010742,5.80566406 L77.1010742,7.60351562 L78.4067383,7.60351562 L78.4067383,8.83398438 L77.1010742,8.83398438 L77.1010742,12.9628906 C77.1010742,13.2454441 77.1569005,13.4493809 77.2685547,13.574707 C77.3802089,13.7000332 77.5795884,13.7626953 77.8666992,13.7626953 C78.0581064,13.7626953 78.2517894,13.7399091 78.4477539,13.6943359 L78.4477539,14.9794922 C78.0694968,15.0843104 77.7049171,15.1367188 77.3540039,15.1367188 C76.0779559,15.1367188 75.4399414,14.4326242 75.4399414,13.0244141 L75.4399414,8.83398438 L74.2231445,8.83398438 L74.2231445,7.60351562 L75.4399414,7.60351562 L75.4399414,5.80566406 L77.1010742,5.80566406 Z" id="Button-Text" fill="#FFFFFF"></path>
                <rect id="Rectangle-3" fill="#FFFFFF" x="86" y="0" width="1" height="20"></rect>
                <polygon id="Path-2-Copy-4" fill="#FFFFFF" fill-rule="nonzero" points="96.8386422 5.58436052 95.5 6.80077713 102.461671 14.461957 109.5 6.71641661 108.161358 5.5 102.461671 11.7723914"></polygon>
            </g>
            <rect id="Rectangle-3-Copy-5" fill="#9CC2EB" transform="translate(115.000000, 442.000000) rotate(90.000000) translate(-115.000000, -442.000000) " x="105" y="432" width="20" height="20"></rect>
            <g id="specs-/-redlines-/-line-regular" transform="translate(161.000000, 473.500000) rotate(-90.000000) translate(-161.000000, -473.500000) translate(135.000000, 462.000000)">
                <path d="M3.5,22.5 L3.5,13 C3.5,7.75329488 7.75383113,3.5 12.9970063,3.5 L50.5,3.5" id="redline-line" stroke="#EC407A" stroke-width="1"></path>
                <g id="specs-/-redlines-/-line-end-/-arrow" transform="translate(45.000000, 0.000000)">
                    <g id="redline-end">
                        <use fill="#FFFFFF" fill-rule="evenodd" xlink:href="#path-9"></use>
                        <path stroke="#EC407A" stroke-width="1" d="M5.88196601,3.5 L0.5,0.809016994 L0.5,6.19098301 L5.88196601,3.5 Z"></path>
                    </g>
                </g>
                <g id="specs-/-redlines-/-line-end-/-circle" transform="translate(0.000000, 16.000000)">
                    <g id="redline-start">
                        <use fill="#FFFFFF" fill-rule="evenodd" xlink:href="#path-10"></use>
                        <circle stroke="#EC407A" stroke-width="1" cx="3.5" cy="3.5" r="3"></circle>
                    </g>
                </g>
            </g>
            <g id="specs-/-redlines-/-label" transform="translate(174.000000, 489.000000)" font-size="12" font-family="Roboto-Regular, Roboto" fill="#EC407A" font-weight="normal">
                <text id="redline-label">
                    <tspan x="0" y="11">Text size: 14 px, medium, vertically centered</tspan>
                </text>
            </g>
            <g id="specs-/-redlines-/--measurement-/-vertical" transform="translate(243.000000, 432.000000)">
                <text id="label" font-family="Roboto-Regular, Roboto" font-size="12" font-weight="normal" line-spacing="19" fill="#EC407A">
                    <tspan x="26" y="11.5">20 px</tspan>
                </text>
                <g id="specs-/-redlines-/-curly-brace" stroke="#EC407A" stroke-width="1">
                    <path d="M0,0.0662251656 C23.904595,0.0662251656 0.077195982,10 24,10" id="Path-2"></path>
                    <path d="M0,10 C23.904595,10 0.077195982,19.9337748 24,19.9337748" id="Path-2-Copy" transform="translate(12.000000, 14.966887) scale(1, -1) translate(-12.000000, -14.966887) "></path>
                </g>
            </g>
            <g id="specs-/-redlines-/-label" transform="translate(241.000000, 396.000000)" font-size="12" font-family="Roboto-Regular, Roboto" fill="#EC407A" font-weight="normal">
                <text id="redline-label">
                    <tspan x="0" y="11">Line: 1px #ffffff (gray 0)</tspan>
                </text>
            </g>
            <g id="specs-/-redlines-/-line-regular" transform="translate(138.000000, 407.500000) scale(1, -1) rotate(-90.000000) translate(-138.000000, -407.500000) translate(113.000000, 392.000000)">
                <path d="M3.5,30.5 L3.5,17 C3.5,9.54415588 9.5455361,3.5 17.0014838,3.5 L48.5,3.5" id="redline-line" stroke="#EC407A" stroke-width="1"></path>
                <g id="specs-/-redlines-/-line-end-/-arrow" transform="translate(43.000000, 0.000000)">
                    <g id="redline-end">
                        <use fill="#FFFFFF" fill-rule="evenodd" xlink:href="#path-11"></use>
                        <path stroke="#EC407A" stroke-width="1" d="M5.88196601,3.5 L0.5,0.809016994 L0.5,6.19098301 L5.88196601,3.5 Z"></path>
                    </g>
                </g>
                <g id="specs-/-redlines-/-line-end-/-circle" transform="translate(0.000000, 24.000000)">
                    <g id="redline-start">
                        <use fill="#FFFFFF" fill-rule="evenodd" xlink:href="#path-12"></use>
                        <circle stroke="#EC407A" stroke-width="1" cx="3.5" cy="3.5" r="3"></circle>
                    </g>
                </g>
            </g>
            <g id="specs-/-redlines-/-label" transform="translate(158.000000, 378.000000)" font-size="12" font-family="Roboto-Regular, Roboto" fill="#EC407A" font-weight="normal">
                <text id="redline-label">
                    <tspan x="0" y="11">Corner Radius 2px</tspan>
                </text>
            </g>
            <g id="specs-/-redlines-/-line-regular" transform="translate(240.000000, 425.500000) scale(1, -1) rotate(-90.000000) translate(-240.000000, -425.500000) translate(230.000000, 410.000000)">
                <path d="M3.5,30.5 L3.5,11.0030716 C3.5,6.85923958 6.86629279,3.5 11,3.5 L18.5,3.5" id="redline-line" stroke="#EC407A" stroke-width="1"></path>
                <g id="specs-/-redlines-/-line-end-/-arrow" transform="translate(13.000000, 0.000000)">
                    <g id="redline-end">
                        <use fill="#FFFFFF" fill-rule="evenodd" xlink:href="#path-13"></use>
                        <path stroke="#EC407A" stroke-width="1" d="M5.88196601,3.5 L0.5,0.809016994 L0.5,6.19098301 L5.88196601,3.5 Z"></path>
                    </g>
                </g>
                <g id="specs-/-redlines-/-line-end-/-circle" transform="translate(0.000000, 24.000000)">
                    <g id="redline-start">
                        <use fill="#FFFFFF" fill-rule="evenodd" xlink:href="#path-14"></use>
                        <circle stroke="#EC407A" stroke-width="1" cx="3.5" cy="3.5" r="3"></circle>
                    </g>
                </g>
            </g>
            <g id="specs-/-redlines-/-label" transform="translate(257.000000, 412.000000)" font-size="12" font-family="Roboto-Regular, Roboto" fill="#EC407A" font-weight="normal">
                <text id="redline-label">
                    <tspan x="0" y="11">Icon: arrow-down (e900), 14 px x 9 px</tspan>
                </text>
            </g>
            <g id="specs-/-redlines-/-label-title-sm" transform="translate(2.000000, 438.000000)" font-size="10" font-family="Roboto-Regular, Roboto" fill="#9E9E9E" font-weight="normal">
                <text id="SMALL-LABEL">
                    <tspan x="0" y="9">Compact Button</tspan>
                </text>
            </g>
            <g id="Button/Large/Primary" transform="translate(127.000000, 239.000000)">
                <rect id="Rectangle-2" fill="#0C7C84" x="0" y="0" width="162" height="48" rx="2"></rect>
                <path d="M113,0 L113,48" id="Line-2" stroke="#FFFFFF"></path>
                <path d="M16.2148438,29 L16.2148438,17.625 L20.1132812,17.625 C21.399746,17.625 22.3789029,17.8828099 23.0507812,18.3984375 C23.7226596,18.9140651 24.0585938,19.6822866 24.0585938,20.703125 C24.0585938,21.2239609 23.9179702,21.6927063 23.6367188,22.109375 C23.3554673,22.5260437 22.9440131,22.8489572 22.4023438,23.078125 C23.0169302,23.2447925 23.4921858,23.5585914 23.828125,24.0195312 C24.1640642,24.4804711 24.3320312,25.0338509 24.3320312,25.6796875 C24.3320312,26.7474012 23.9895868,27.5677055 23.3046875,28.140625 C22.6197882,28.7135445 21.6393293,29 20.3632812,29 L16.2148438,29 Z M18.1914062,23.8671875 L18.1914062,27.421875 L20.3867188,27.421875 C21.0065135,27.421875 21.4908837,27.2682307 21.8398438,26.9609375 C22.1888038,26.6536443 22.3632812,26.2265652 22.3632812,25.6796875 C22.3632812,24.4973899 21.7591206,23.8932293 20.5507812,23.8671875 L18.1914062,23.8671875 Z M18.1914062,22.4140625 L20.1289062,22.4140625 C20.7434927,22.4140625 21.2239566,22.274741 21.5703125,21.9960938 C21.9166684,21.7174465 22.0898438,21.3229192 22.0898438,20.8125 C22.0898438,20.2499972 21.9296891,19.8437513 21.609375,19.59375 C21.2890609,19.3437487 20.790368,19.21875 20.1132812,19.21875 L18.1914062,19.21875 L18.1914062,22.4140625 Z M31.2460938,28.171875 C30.6887993,28.8281283 29.8971405,29.15625 28.8710938,29.15625 C27.9544225,29.15625 27.260419,28.8880235 26.7890625,28.3515625 C26.317706,27.8151015 26.0820312,27.0390676 26.0820312,26.0234375 L26.0820312,20.546875 L27.9804688,20.546875 L27.9804688,26 C27.9804688,27.072922 28.4257768,27.609375 29.3164062,27.609375 C30.2382859,27.609375 30.8606755,27.2786491 31.1835938,26.6171875 L31.1835938,20.546875 L33.0820312,20.546875 L33.0820312,29 L31.2929688,29 L31.2460938,28.171875 Z M37.3945312,18.4921875 L37.3945312,20.546875 L38.8867188,20.546875 L38.8867188,21.953125 L37.3945312,21.953125 L37.3945312,26.671875 C37.3945312,26.9947933 37.4583327,27.2278639 37.5859375,27.3710938 C37.7135423,27.5143236 37.9414046,27.5859375 38.2695312,27.5859375 C38.4882823,27.5859375 38.7096343,27.5598961 38.9335938,27.5078125 L38.9335938,28.9765625 C38.5012999,29.0963548 38.0846374,29.15625 37.6835938,29.15625 C36.2252531,29.15625 35.4960938,28.3515705 35.4960938,26.7421875 L35.4960938,21.953125 L34.1054688,21.953125 L34.1054688,20.546875 L35.4960938,20.546875 L35.4960938,18.4921875 L37.3945312,18.4921875 Z M42.7148438,18.4921875 L42.7148438,20.546875 L44.2070312,20.546875 L44.2070312,21.953125 L42.7148438,21.953125 L42.7148438,26.671875 C42.7148438,26.9947933 42.7786452,27.2278639 42.90625,27.3710938 C43.0338548,27.5143236 43.2617171,27.5859375 43.5898438,27.5859375 C43.8085948,27.5859375 44.0299468,27.5598961 44.2539062,27.5078125 L44.2539062,28.9765625 C43.8216124,29.0963548 43.4049499,29.15625 43.0039062,29.15625 C41.5455656,29.15625 40.8164062,28.3515705 40.8164062,26.7421875 L40.8164062,21.953125 L39.4257812,21.953125 L39.4257812,20.546875 L40.8164062,20.546875 L40.8164062,18.4921875 L42.7148438,18.4921875 Z M45.0664062,24.6953125 C45.0664062,23.8671834 45.2304671,23.1210971 45.5585938,22.4570312 C45.8867204,21.7929654 46.3476533,21.2825539 46.9414062,20.9257812 C47.5351592,20.5690086 48.2174441,20.390625 48.9882812,20.390625 C50.128912,20.390625 51.0546839,20.7578088 51.765625,21.4921875 C52.4765661,22.2265662 52.8606768,23.2005148 52.9179688,24.4140625 L52.9257812,24.859375 C52.9257812,25.6927125 52.7656266,26.4374967 52.4453125,27.09375 C52.1249984,27.7500033 51.6666696,28.2578107 51.0703125,28.6171875 C50.4739554,28.9765643 49.7851602,29.15625 49.0039062,29.15625 C47.811192,29.15625 46.8567744,28.7591186 46.140625,27.9648438 C45.4244756,27.1705689 45.0664062,26.1119858 45.0664062,24.7890625 L45.0664062,24.6953125 Z M46.9648438,24.859375 C46.9648438,25.729171 47.1445295,26.4101538 47.5039062,26.9023438 C47.863283,27.3945337 48.363278,27.640625 49.0039062,27.640625 C49.6445345,27.640625 50.1432274,27.3906275 50.5,26.890625 C50.8567726,26.3906225 51.0351562,25.658859 51.0351562,24.6953125 C51.0351562,23.8411416 50.8515643,23.164065 50.484375,22.6640625 C50.1171857,22.16406 49.6184927,21.9140625 48.9882812,21.9140625 C48.3684865,21.9140625 47.8763039,22.1601538 47.5117188,22.6523438 C47.1471336,23.1445337 46.9648438,23.8802034 46.9648438,24.859375 Z M56.2929688,20.546875 L56.3476562,21.5234375 C56.9726594,20.7682254 57.7929637,20.390625 58.8085938,20.390625 C60.5690192,20.390625 61.4648436,21.3984274 61.4960938,23.4140625 L61.4960938,29 L59.5976562,29 L59.5976562,23.5234375 C59.5976562,22.9869765 59.481772,22.589845 59.25,22.3320312 C59.018228,22.0742175 58.6393255,21.9453125 58.1132812,21.9453125 C57.3476524,21.9453125 56.7773456,22.2916632 56.4023438,22.984375 L56.4023438,29 L54.5039062,29 L54.5039062,20.546875 L56.2929688,20.546875 Z M75.3476562,19.21875 L71.8007812,19.21875 L71.8007812,29 L69.8398438,29 L69.8398438,19.21875 L66.3242188,19.21875 L66.3242188,17.625 L75.3476562,17.625 L75.3476562,19.21875 Z M79.6835938,29.15625 C78.4804627,29.15625 77.5052121,28.7773475 76.7578125,28.0195312 C76.0104129,27.261715 75.6367188,26.2526105 75.6367188,24.9921875 L75.6367188,24.7578125 C75.6367188,23.9140583 75.7994775,23.1601596 76.125,22.4960938 C76.4505225,21.8320279 76.9075491,21.315106 77.4960938,20.9453125 C78.0846384,20.575519 78.7408818,20.390625 79.4648438,20.390625 C80.6158912,20.390625 81.5052052,20.7578088 82.1328125,21.4921875 C82.7604198,22.2265662 83.0742188,23.2656183 83.0742188,24.609375 L83.0742188,25.375 L77.5507812,25.375 C77.6080732,26.0729202 77.8411438,26.624998 78.25,27.03125 C78.6588562,27.437502 79.173174,27.640625 79.7929688,27.640625 C80.6627648,27.640625 81.371091,27.289066 81.9179688,26.5859375 L82.9414062,27.5625 C82.6028629,28.0677109 82.1510445,28.459634 81.5859375,28.7382812 C81.0208305,29.0169285 80.3867223,29.15625 79.6835938,29.15625 Z M79.4570312,21.9140625 C78.9361953,21.9140625 78.5156266,22.0963523 78.1953125,22.4609375 C77.8749984,22.8255227 77.6705734,23.3333301 77.5820312,23.984375 L81.1992188,23.984375 L81.1992188,23.84375 C81.1575519,23.2083302 80.9882827,22.7278662 80.6914062,22.4023438 C80.3945298,22.0768213 79.9830755,21.9140625 79.4570312,21.9140625 Z M87.5820312,23.328125 L89.1914062,20.546875 L91.3007812,20.546875 L88.7148438,24.7109375 L91.3867188,29 L89.2929688,29 L87.6054688,26.109375 L85.9257812,29 L83.8164062,29 L86.4882812,24.7109375 L83.9101562,20.546875 L86.0039062,20.546875 L87.5820312,23.328125 Z M94.9726562,18.4921875 L94.9726562,20.546875 L96.4648438,20.546875 L96.4648438,21.953125 L94.9726562,21.953125 L94.9726562,26.671875 C94.9726562,26.9947933 95.0364577,27.2278639 95.1640625,27.3710938 C95.2916673,27.5143236 95.5195296,27.5859375 95.8476562,27.5859375 C96.0664073,27.5859375 96.2877593,27.5598961 96.5117188,27.5078125 L96.5117188,28.9765625 C96.0794249,29.0963548 95.6627624,29.15625 95.2617188,29.15625 C93.8033781,29.15625 93.0742188,28.3515705 93.0742188,26.7421875 L93.0742188,21.953125 L91.6835938,21.953125 L91.6835938,20.546875 L93.0742188,20.546875 L93.0742188,18.4921875 L94.9726562,18.4921875 Z" id="Button-Text" fill="#FFFFFF"></path>
                <polygon id="Path-2-Copy-4" fill="#FFFFFF" fill-rule="nonzero" points="131.029877 19.596412 129.5 20.9866024 137.456195 29.7422366 145.5 20.8901904 143.970123 19.5 137.456195 26.6684474"></polygon>
            </g>
            <rect id="Rectangle" fill="#F9CD94" x="272" y="239" width="16" height="48"></rect>
            <text id="16-px" transform="translate(282.500000, 263.500000) rotate(90.000000) translate(-282.500000, -263.500000) " font-family="Roboto-Regular, Roboto" font-size="6" font-weight="normal" fill="#333333">
                <tspan x="275" y="266">16 px</tspan>
            </text>
            <rect id="Rectangle-Copy" fill="#F9CD94" x="241" y="239" width="16" height="48"></rect>
            <text id="16-px-copy" transform="translate(250.500000, 263.500000) rotate(90.000000) translate(-250.500000, -263.500000) " font-family="Roboto-Regular, Roboto" font-size="6" font-weight="normal" fill="#333333">
                <tspan x="243" y="266">16 px</tspan>
            </text>
            <rect id="Rectangle-Copy-2" fill="#F9CD94" x="224" y="239" width="16" height="48"></rect>
            <rect id="Rectangle-Copy-3" fill="#F9CD94" x="127" y="239" width="16" height="48"></rect>
            <text id="16-px-copy-2" transform="translate(233.500000, 263.500000) rotate(90.000000) translate(-233.500000, -263.500000) " font-family="Roboto-Regular, Roboto" font-size="6" font-weight="normal" fill="#333333">
                <tspan x="226" y="266">16 px</tspan>
            </text>
            <text id="16-px-copy-3" transform="translate(136.500000, 262.500000) rotate(90.000000) translate(-136.500000, -262.500000) " font-family="Roboto-Regular, Roboto" font-size="6" font-weight="normal" fill="#333333">
                <tspan x="129" y="265">16 px</tspan>
            </text>
            <rect id="Rectangle-3-Copy-5" fill="#9CC2EB" x="127" y="219" width="162" height="20"></rect>
            <g id="specs-/-redlines-/-line-regular" transform="translate(252.000000, 226.500000) scale(1, -1) rotate(-90.000000) translate(-252.000000, -226.500000) translate(232.000000, 211.000000)">
                <path d="M3.5,30.5 L3.5,17 C3.5,9.54415588 9.53663418,3.5 17.0068778,3.5 L38.5,3.5" id="redline-line" stroke="#EC407A" stroke-width="1"></path>
                <g id="specs-/-redlines-/-line-end-/-arrow" transform="translate(33.000000, 0.000000)">
                    <g id="redline-end">
                        <use fill="#FFFFFF" fill-rule="evenodd" xlink:href="#path-15"></use>
                        <path stroke="#EC407A" stroke-width="1" d="M5.88196601,3.5 L0.5,0.809016994 L0.5,6.19098301 L5.88196601,3.5 Z"></path>
                    </g>
                </g>
                <g id="specs-/-redlines-/-line-end-/-circle" transform="translate(0.000000, 24.000000)">
                    <g id="redline-start">
                        <use fill="#FFFFFF" fill-rule="evenodd" xlink:href="#path-16"></use>
                        <circle stroke="#EC407A" stroke-width="1" cx="3.5" cy="3.5" r="3"></circle>
                    </g>
                </g>
            </g>
            <g id="specs-/-redlines-/-label" transform="translate(269.000000, 203.000000)" font-size="12" font-family="Roboto-Regular, Roboto" fill="#EC407A" font-weight="normal">
                <text id="redline-label">
                    <tspan x="0" y="11">Line: 1px #ffffff (gray 0)</tspan>
                </text>
            </g>
            <text id="20-px" font-family="Roboto-Regular, Roboto" font-size="6" font-weight="normal" fill="#333333">
                <tspan x="176.240234" y="232">20 px</tspan>
            </text>
            <rect id="Rectangle-3-Copy-22" fill="#9CC2EB" x="127" y="287" width="162" height="20"></rect>
            <text id="20-px" font-family="Roboto-Regular, Roboto" font-size="6" font-weight="normal" fill="#333333">
                <tspan x="176" y="300">20 px</tspan>
            </text>
            <g id="specs-/-redlines-/-line-regular" transform="translate(173.000000, 294.500000) rotate(-90.000000) translate(-173.000000, -294.500000) translate(147.000000, 283.000000)">
                <path d="M3.5,22.5 L3.5,13 C3.5,7.75329488 7.75383113,3.5 12.9970063,3.5 L50.5,3.5" id="redline-line" stroke="#EC407A" stroke-width="1"></path>
                <g id="specs-/-redlines-/-line-end-/-arrow" transform="translate(45.000000, 0.000000)">
                    <g id="redline-end">
                        <use fill="#FFFFFF" fill-rule="evenodd" xlink:href="#path-17"></use>
                        <path stroke="#EC407A" stroke-width="1" d="M5.88196601,3.5 L0.5,0.809016994 L0.5,6.19098301 L5.88196601,3.5 Z"></path>
                    </g>
                </g>
                <g id="specs-/-redlines-/-line-end-/-circle" transform="translate(0.000000, 16.000000)">
                    <g id="redline-start">
                        <use fill="#FFFFFF" fill-rule="evenodd" xlink:href="#path-18"></use>
                        <circle stroke="#EC407A" stroke-width="1" cx="3.5" cy="3.5" r="3"></circle>
                    </g>
                </g>
            </g>
            <g id="specs-/-redlines-/-label" transform="translate(186.000000, 310.000000)" font-size="12" font-family="Roboto-Regular, Roboto" fill="#EC407A" font-weight="normal">
                <text id="redline-label">
                    <tspan x="0" y="11">Text size: 16 px, medium, vertically centered</tspan>
                </text>
            </g>
            <g id="specs-/-redlines-/--measurement-/-vertical" transform="translate(305.000000, 239.000000)">
                <text id="label" font-family="Roboto-Regular, Roboto" font-size="12" font-weight="normal" line-spacing="19" fill="#EC407A">
                    <tspan x="26" y="25.5">48 px</tspan>
                </text>
                <g id="specs-/-redlines-/-curly-brace" stroke="#EC407A" stroke-width="1">
                    <path d="M0,0.158940397 C23.904595,0.158940397 0.077195982,24 24,24" id="Path-2"></path>
                    <path d="M0,24 C23.904595,24 0.077195982,47.8410596 24,47.8410596" id="Path-2-Copy" transform="translate(12.000000, 35.920530) scale(1, -1) translate(-12.000000, -35.920530) "></path>
                </g>
            </g>
            <g id="specs-/-redlines-/-line-regular" transform="translate(139.500000, 214.500000) scale(1, -1) rotate(-90.000000) translate(-139.500000, -214.500000) translate(114.000000, 199.000000)">
                <path d="M3.5,30.5 L3.5,17 C3.5,9.54415588 9.53732989,3.5 16.9907035,3.5 L49.5,3.5" id="redline-line" stroke="#EC407A" stroke-width="1"></path>
                <g id="specs-/-redlines-/-line-end-/-arrow" transform="translate(44.000000, 0.000000)">
                    <g id="redline-end">
                        <use fill="#FFFFFF" fill-rule="evenodd" xlink:href="#path-19"></use>
                        <path stroke="#EC407A" stroke-width="1" d="M5.88196601,3.5 L0.5,0.809016994 L0.5,6.19098301 L5.88196601,3.5 Z"></path>
                    </g>
                </g>
                <g id="specs-/-redlines-/-line-end-/-circle" transform="translate(0.000000, 24.000000)">
                    <g id="redline-start">
                        <use fill="#FFFFFF" fill-rule="evenodd" xlink:href="#path-20"></use>
                        <circle stroke="#EC407A" stroke-width="1" cx="3.5" cy="3.5" r="3"></circle>
                    </g>
                </g>
            </g>
            <g id="specs-/-redlines-/-label" transform="translate(160.000000, 185.000000)" font-size="12" font-family="Roboto-Regular, Roboto" fill="#EC407A" font-weight="normal">
                <text id="redline-label">
                    <tspan x="0" y="11">Corner Radius 2px</tspan>
                </text>
            </g>
            <g id="specs-/-redlines-/-line-regular" transform="translate(277.000000, 236.500000) scale(1, -1) rotate(-90.000000) translate(-277.000000, -236.500000) translate(263.000000, 221.000000)">
                <path d="M3.5,30.5 L3.5,15.0091625 C3.5,8.65282755 8.64732891,3.5 15,3.5 L26.5,3.5" id="redline-line" stroke="#EC407A" stroke-width="1"></path>
                <g id="specs-/-redlines-/-line-end-/-arrow" transform="translate(21.000000, 0.000000)">
                    <g id="redline-end">
                        <use fill="#FFFFFF" fill-rule="evenodd" xlink:href="#path-21"></use>
                        <path stroke="#EC407A" stroke-width="1" d="M5.88196601,3.5 L0.5,0.809016994 L0.5,6.19098301 L5.88196601,3.5 Z"></path>
                    </g>
                </g>
                <g id="specs-/-redlines-/-line-end-/-circle" transform="translate(0.000000, 24.000000)">
                    <g id="redline-start">
                        <use fill="#FFFFFF" fill-rule="evenodd" xlink:href="#path-22"></use>
                        <circle stroke="#EC407A" stroke-width="1" cx="3.5" cy="3.5" r="3"></circle>
                    </g>
                </g>
            </g>
            <g id="specs-/-redlines-/-label" transform="translate(294.000000, 221.000000)" font-size="12" font-family="Roboto-Regular, Roboto" fill="#EC407A" font-weight="normal">
                <text id="redline-label">
                    <tspan x="0" y="9">Icon: arrow-down (e900), 16 px x 10 px</tspan>
                </text>
            </g>
            <g id="specs-/-redlines-/-label-title-sm" transform="translate(2.000000, 255.000000)" font-size="10" font-family="Roboto-Regular, Roboto" fill="#9E9E9E" font-weight="normal">
                <text id="SMALL-LABEL">
                    <tspan x="0" y="9">Large Button</tspan>
                </text>
            </g>
            <rect id="Rectangle-5" fill="#9CC2EB" x="107" y="239" width="20" height="48"></rect>
            <text id="20-px" transform="translate(117.500000, 263.500000) rotate(90.000000) translate(-117.500000, -263.500000) " font-family="Roboto-Regular, Roboto" font-size="6" font-weight="normal" fill="#333333">
                <tspan x="110" y="266">20 px</tspan>
            </text>
            <rect id="Rectangle-5-Copy" fill="#9CC2EB" x="289" y="239" width="20" height="48"></rect>
            <text id="20-px-copy-2" transform="translate(299.500000, 263.500000) rotate(90.000000) translate(-299.500000, -263.500000) " font-family="Roboto-Regular, Roboto" font-size="6" font-weight="normal" fill="#333333">
                <tspan x="292" y="266">20 px</tspan>
            </text>
            <g id="specs-/-spacing-/-internal-/-V-08px" transform="translate(125.000000, 432.000000)" fill="#F8CC96">
                <rect id="Rectangle-5-Copy-9" x="0" y="0" width="8" height="20"></rect>
            </g>
            <g id="specs-/-spacing-/-internal-/-V-08px-Copy" transform="translate(203.000000, 432.000000)" fill="#F8CC96">
                <rect id="Rectangle-5-Copy-9" x="0" y="0" width="8" height="20"></rect>
            </g>
            <g id="specs-/-spacing-/-internal-/-V-08px-Copy-2" transform="translate(212.000000, 432.000000)" fill="#F8CC96">
                <rect id="Rectangle-5-Copy-9" x="0" y="0" width="8" height="20"></rect>
            </g>
            <g id="specs-/-spacing-/-internal-/-V-08px-Copy-3" transform="translate(235.000000, 432.000000)" fill="#F8CC96">
                <rect id="Rectangle-5-Copy-9" x="0" y="0" width="8" height="20"></rect>
            </g>
            <g id="specs-/-redlines-/-line-regular" transform="translate(224.000000, 419.500000) scale(1, -1) rotate(-90.000000) translate(-224.000000, -419.500000) translate(204.000000, 404.000000)">
                <path d="M3.5,30.5 L3.5,17 C3.5,9.54415588 9.53663418,3.5 17.0068778,3.5 L38.5,3.5" id="redline-line" stroke="#EC407A" stroke-width="1"></path>
                <g id="specs-/-redlines-/-line-end-/-arrow" transform="translate(33.000000, 0.000000)">
                    <g id="redline-end">
                        <use fill="#FFFFFF" fill-rule="evenodd" xlink:href="#path-23"></use>
                        <path stroke="#EC407A" stroke-width="1" d="M5.88196601,3.5 L0.5,0.809016994 L0.5,6.19098301 L5.88196601,3.5 Z"></path>
                    </g>
                </g>
                <g id="specs-/-redlines-/-line-end-/-circle" transform="translate(0.000000, 24.000000)">
                    <g id="redline-start">
                        <use fill="#FFFFFF" fill-rule="evenodd" xlink:href="#path-24"></use>
                        <circle stroke="#EC407A" stroke-width="1" cx="3.5" cy="3.5" r="3"></circle>
                    </g>
                </g>
            </g>
            <text id="8-px" transform="translate(129.500000, 443.500000) rotate(90.000000) translate(-129.500000, -443.500000) " font-family="Roboto-Regular, Roboto" font-size="6" font-weight="normal" fill="#333333">
                <tspan x="122" y="446">8 px</tspan>
            </text>
            <text id="8-px-copy" transform="translate(207.500000, 443.500000) rotate(90.000000) translate(-207.500000, -443.500000) " font-family="Roboto-Regular, Roboto" font-size="6" font-weight="normal" fill="#333333">
                <tspan x="200" y="446">8 px</tspan>
            </text>
            <text id="8-px-copy-2" transform="translate(217.500000, 443.500000) rotate(90.000000) translate(-217.500000, -443.500000) " font-family="Roboto-Regular, Roboto" font-size="6" font-weight="normal" fill="#333333">
                <tspan x="210" y="446">8 px</tspan>
            </text>
            <text id="8-px-copy-3" transform="translate(239.500000, 443.500000) rotate(90.000000) translate(-239.500000, -443.500000) " font-family="Roboto-Regular, Roboto" font-size="6" font-weight="normal" fill="#333333">
                <tspan x="232" y="446">8 px</tspan>
            </text>
            <text id="20-px" transform="translate(115.500000, 442.500000) rotate(90.000000) translate(-115.500000, -442.500000) " font-family="Roboto-Regular, Roboto" font-size="6" font-weight="normal" fill="#333333">
                <tspan x="108" y="445">20 px</tspan>
            </text>
            <text id="20-px" font-family="Roboto-Regular, Roboto" font-size="6" font-weight="normal" fill="#333333">
                <tspan x="175" y="424">20 px</tspan>
            </text>
            <text id="20-px-copy-3" font-family="Roboto-Regular, Roboto" font-size="6" font-weight="normal" fill="#333333">
                <tspan x="175" y="464">20 px</tspan>
            </text>
        </g>
    </g>
</svg>