<?xml version="1.0" encoding="UTF-8" standalone="no"?>
<svg width="293px" height="195px" viewBox="0 0 293 195" version="1.1" xmlns="http://www.w3.org/2000/svg" xmlns:xlink="http://www.w3.org/1999/xlink">
    <!-- Generator: Sketch 46.2 (44496) - http://www.bohemiancoding.com/sketch -->
    <title>charts</title>
    <desc>Created with Sketch.</desc>
    <defs></defs>
    <g id="thumbnails" stroke="none" stroke-width="1" fill="none" fill-rule="evenodd">
        <g id="Desktop" transform="translate(-1162.000000, -582.000000)">
            <g id="charts" transform="translate(1162.000000, 582.000000)">
                <g id="Group-2">
                    <g id="card-grid">
                        <g id="application-frame">
                            <rect id="Rectangle" fill="#B6E3EB" fill-rule="evenodd" x="0" y="0" width="293" height="195"></rect>
                            <rect id="Rectangle-Copy" fill="#16B9D4" fill-rule="evenodd" x="0" y="0" width="48.8333333" height="195"></rect>
                            <rect id="Rectangle-Copy-2" fill="#0E94A6" fill-rule="evenodd" x="0" y="0" width="293" height="14.625"></rect>
                            <g id="overlay-/-hidden"></g>
                        </g>
                        <g id="box-/-content" transform="translate(73.250000, 39.000000)" fill="#FFFFFF">
                            <rect id="Rectangle" x="0" y="0" width="199" height="59"></rect>
                        </g>
                        <g id="box-/-content" transform="translate(73.000000, 112.000000)" fill="#FFFFFF">
                            <rect id="Rectangle" x="0" y="0" width="88" height="59"></rect>
                        </g>
                        <g id="box-/-content" transform="translate(179.000000, 112.000000)" fill="#FFFFFF">
                            <rect id="Rectangle" x="0" y="0" width="88" height="59"></rect>
                        </g>
                    </g>
                    <rect id="Rectangle-2" fill="#F57C00" x="99" y="61" width="9" height="27"></rect>
                    <rect id="Rectangle-2-Copy-3" fill="#F57C00" x="145" y="49" width="9" height="39"></rect>
                    <rect id="Rectangle-2-Copy-6" fill="#F57C00" x="206" y="49" width="9" height="39"></rect>
                    <rect id="Rectangle-2-Copy" fill="#F57C00" x="114" y="49" width="9" height="39"></rect>
                    <rect id="Rectangle-2-Copy-4" fill="#F57C00" x="160" y="68" width="9" height="20"></rect>
                    <rect id="Rectangle-2-Copy-7" fill="#F57C00" x="221" y="68" width="9" height="20"></rect>
                    <rect id="Rectangle-2-Copy-2" fill="#F57C00" x="130" y="61" width="9" height="27"></rect>
                    <rect id="Rectangle-2-Copy-8" fill="#F57C00" x="191" y="61" width="9" height="27"></rect>
                    <rect id="Rectangle-2-Copy-5" fill="#F57C00" x="176" y="61" width="9" height="27"></rect>
                    <rect id="Rectangle-2-Copy-9" fill="#F57C00" x="237" y="61" width="9" height="27"></rect>
                    <path d="" id="Path-2" stroke="#979797"></path>
                    <polyline id="Path-3" stroke="#F57C00" points="78 150.201649 83.6500532 153.619514 91.8106227 148.46442 95.3472405 147.02593 99.30135 146.325008 105.508986 143.741663 114.035557 137.961723 121.56757 139.740237 127.377661 139.740237 130.346954 136.48705 136.857968 133.229224 144.889579 130.012219 147.363913 126.181965 152.809395 125"></polyline>
                    <polyline id="Path-4" stroke="#E0E0E0" points="200.72507 162.339049 223.116507 141.257705 242.791573 162.339049"></polyline>
                    <path d="M223.134493,140.82424 L223.134493,116.519879" id="Path-5" stroke="#E0E0E0"></path>
                    <path d="M223.472263,141.126062 L248.180279,125.501186" id="Path-6" stroke="#E0E0E0"></path>
                    <path d="M223.276926,141.1498 L198.568909,124.408523" id="Path-7" stroke="#E0E0E0"></path>
                    <path d="M217.583333,149.457031 C224.353166,155.930965 234.458984,157.851562 236.463542,156.353516 C238.468099,154.855469 227.621094,142.714844 228.251302,140.723958 C228.88151,138.733073 232.471604,127.946615 231.203125,126.997396 C229.934646,126.048177 203.859375,121.895182 202.398438,123.777344 C200.9375,125.659505 210.813501,142.983097 217.583333,149.457031 Z" id="Path-8" stroke="#F57C00" fill-opacity="0.5" fill="#F57C00"></path>
                </g>
            </g>
        </g>
    </g>
</svg>