<?xml version="1.0" encoding="UTF-8" standalone="no"?>
<svg width="293px" height="195px" viewBox="0 0 293 195" version="1.1" xmlns="http://www.w3.org/2000/svg" xmlns:xlink="http://www.w3.org/1999/xlink">
    <!-- Generator: Sketch 46.2 (44496) - http://www.bohemiancoding.com/sketch -->
    <title>date-picker</title>
    <desc>Created with Sketch.</desc>
    <defs>
        <polygon id="path-1" points="0 1 27.3083091 1.04947551 37.3146616 1.12159677 65.0874726 1 65.0874726 61.6551796 0 60.8583046 0 28.5836704 0 12.6693992"></polygon>
        <filter x="-10.8%" y="-8.2%" width="121.5%" height="123.1%" filterUnits="objectBoundingBox" id="filter-2">
            <feOffset dx="0" dy="2" in="SourceAlpha" result="shadowOffsetOuter1"></feOffset>
            <feGaussianBlur stdDeviation="2" in="shadowOffsetOuter1" result="shadowBlurOuter1"></feGaussianBlur>
            <feColorMatrix values="0 0 0 0 0   0 0 0 0 0   0 0 0 0 0  0 0 0 0.5 0" type="matrix" in="shadowBlurOuter1"></feColorMatrix>
        </filter>
        <rect id="path-3" x="46" y="45" width="8" height="8"></rect>
    </defs>
    <g id="thumbnails" stroke="none" stroke-width="1" fill="none" fill-rule="evenodd">
        <g id="Family-Images-Helix" transform="translate(-1922.000000, -64.000000)">
            <g id="date-picker" transform="translate(1922.000000, 64.000000)">
                <g id="Group-2">
                    <g id="application-frame">
                        <rect id="Rectangle" fill="#B6E3EB" fill-rule="evenodd" x="0" y="0" width="293" height="195"></rect>
                        <rect id="Rectangle-Copy" fill="#16B9D4" fill-rule="evenodd" x="0" y="0" width="48.8333333" height="195"></rect>
                        <rect id="Rectangle-Copy-2" fill="#0E94A6" fill-rule="evenodd" x="0" y="0" width="293" height="14.625"></rect>
                        <g id="overlay-/-hidden"></g>
                    </g>
                    <g id="box-/-content" transform="translate(64.000000, 44.000000)" fill="#FFFFFF">
                        <rect id="Rectangle" x="0" y="0" width="215" height="151"></rect>
                    </g>
                    <rect id="Rectangle" stroke="#F57C00" x="76.5" y="76.5" width="70" height="9" rx="2"></rect>
                    <rect id="Rectangle-2" fill="#D8D8D8" x="75" y="53" width="92" height="14"></rect>
                    <path d="M139.357143,83.3571433 L140.160716,83.3571433 L140.160716,82.5535709 L139.357143,82.5535709 L139.357143,83.3571433 Z M140.339287,83.3571433 L141.232146,83.3571433 L141.232146,82.5535709 L140.339287,82.5535709 L140.339287,83.3571433 Z M139.357143,82.3749993 L140.160716,82.3749993 L140.160716,81.482141 L139.357143,81.482141 L139.357143,82.3749993 Z M140.339287,82.3749993 L141.232146,82.3749993 L141.232146,81.482141 L140.339287,81.482141 L140.339287,82.3749993 Z M139.357143,81.3035694 L140.160716,81.3035694 L140.160716,80.499997 L139.357143,80.499997 L139.357143,81.3035694 Z M141.410717,83.3571433 L142.303575,83.3571433 L142.303575,82.5535709 L141.410717,82.5535709 L141.410717,83.3571433 Z M140.339287,81.3035694 L141.232146,81.3035694 L141.232146,80.499997 L140.339287,80.499997 L140.339287,81.3035694 Z M142.482147,83.3571433 L143.285719,83.3571433 L143.285719,82.5535709 L142.482147,82.5535709 L142.482147,83.3571433 Z M141.410717,82.3749993 L142.303575,82.3749993 L142.303575,81.482141 L141.410717,81.482141 L141.410717,82.3749993 Z M140.428573,79.9642821 L140.428573,79.1607097 C140.428573,79.1132766 140.38672,79.0714239 140.339287,79.0714239 L140.160716,79.0714239 C140.113283,79.0714239 140.07143,79.1132766 140.07143,79.1607097 L140.07143,79.9642821 C140.07143,80.0117152 140.113283,80.0535679 140.160716,80.0535679 L140.339287,80.0535679 C140.38672,80.0535679 140.428573,80.0117152 140.428573,79.9642821 Z M142.482147,82.3749993 L143.285719,82.3749993 L143.285719,81.482141 L142.482147,81.482141 L142.482147,82.3749993 Z M141.410717,81.3035694 L142.303575,81.3035694 L142.303575,80.499997 L141.410717,80.499997 L141.410717,81.3035694 Z M142.482147,81.3035694 L143.285719,81.3035694 L143.285719,80.499997 L142.482147,80.499997 L142.482147,81.3035694 Z M142.571433,79.9642821 L142.571433,79.1607097 C142.571433,79.1132766 142.52958,79.0714239 142.482147,79.0714239 L142.303575,79.0714239 C142.256142,79.0714239 142.21429,79.1132766 142.21429,79.1607097 L142.21429,79.9642821 C142.21429,80.0117152 142.256142,80.0535679 142.303575,80.0535679 L142.482147,80.0535679 C142.52958,80.0535679 142.571433,80.0117152 142.571433,79.9642821 Z M143.642863,79.7857105 L143.642863,83.3571433 C143.642863,83.552456 143.481032,83.7142866 143.285719,83.7142866 L139.357143,83.7142866 C139.161831,83.7142866 139,83.552456 139,83.3571433 L139,79.7857105 C139,79.5903977 139.161831,79.4285672 139.357143,79.4285672 L139.714287,79.4285672 L139.714287,79.1607097 C139.714287,78.9151737 139.91518,78.7142806 140.160716,78.7142806 L140.339287,78.7142806 C140.584823,78.7142806 140.785716,78.9151737 140.785716,79.1607097 L140.785716,79.4285672 L141.857146,79.4285672 L141.857146,79.1607097 C141.857146,78.9151737 142.058039,78.7142806 142.303575,78.7142806 L142.482147,78.7142806 C142.727683,78.7142806 142.928576,78.9151737 142.928576,79.1607097 L142.928576,79.4285672 L143.285719,79.4285672 C143.481032,79.4285672 143.642863,79.5903977 143.642863,79.7857105 Z" id="ï³" fill="#F57C00"></path>
                    <g id="Group" transform="translate(82.000000, 87.000000)">
                        <g id="Rectangle">
                            <use fill="black" fill-opacity="1" filter="url(#filter-2)" xlink:href="#path-1"></use>
                            <use fill="#FFFFFF" fill-rule="evenodd" xlink:href="#path-1"></use>
                        </g>
                        <rect id="Rectangle-3-Copy-5" stroke="#E0E0E0" x="5.5" y="45.5" width="54" height="7"></rect>
                        <rect id="Rectangle-3-Copy-6" stroke="#E0E0E0" x="5.5" y="38.5" width="54" height="7"></rect>
                        <rect id="Rectangle-3-Copy-7" stroke="#E0E0E0" x="5.5" y="31.5" width="54" height="7"></rect>
                        <rect id="Rectangle-3-Copy-8" stroke="#E0E0E0" x="5.5" y="24.5" width="54" height="7"></rect>
                        <rect id="Rectangle-3-Copy-9" stroke="#E0E0E0" x="5.5" y="17.5" width="54" height="7"></rect>
                        <rect id="Rectangle-4" fill="#F57C00" x="0" y="0" width="65" height="11"></rect>
                        <rect id="Rectangle-3-Copy-10" fill="#FFFFFF" x="7" y="4" width="51" height="4" rx="2"></rect>
                        <g id="Rectangle-3">
                            <use fill-opacity="0.3" fill="#F57C00" fill-rule="evenodd" xlink:href="#path-3"></use>
                            <rect stroke="#F57C00" stroke-width="1" x="46.5" y="45.5" width="7" height="7"></rect>
                        </g>
                    </g>
                </g>
            </g>
        </g>
    </g>
</svg>