<?xml version="1.0" encoding="UTF-8" standalone="no"?>
<svg width="293px" height="195px" viewBox="0 0 293 195" version="1.1" xmlns="http://www.w3.org/2000/svg" xmlns:xlink="http://www.w3.org/1999/xlink">
    <!-- Generator: Sketch 47.1 (45422) - http://www.bohemiancoding.com/sketch -->
    <title>email-template</title>
    <desc>Created with Sketch.</desc>
    <defs></defs>
    <g id="thumbnails" stroke="none" stroke-width="1" fill="none" fill-rule="evenodd">
        <g id="Family-Images-Helix" transform="translate(-2658.000000, -699.000000)">
            <g id="email-template" transform="translate(2658.000000, 699.000000)">
                <g id="Group-8">
                    <g id="Group-6">
                        <g id="key-value-copy">
                            <g id="Group-5">
                                <g id="Group-4">
                                    <g id="Group-3">
                                        <g id="Group-2">
                                            <g id="application-frame">
                                                <rect id="Rectangle" fill="#B6E3EB" x="0" y="0" width="293" height="195"></rect>
                                                <rect id="Rectangle-Copy-2" fill="#0E94A6" x="0" y="0" width="293" height="14.625"></rect>
                                            </g>
                                        </g>
                                    </g>
                                </g>
                            </g>
                        </g>
                    </g>
                    <g id="Group-7" transform="translate(40.000000, 32.000000)">
                        <g id="box-/-content" fill="#FFFFFF">
                            <rect id="Rectangle" x="0" y="0" width="214" height="151"></rect>
                        </g>
                        <rect id="Rectangle-3-Copy-11" fill="#E0E0E0" x="12" y="9" width="63" height="8"></rect>
                        <rect id="Rectangle-3-Copy-13" fill="#E0E0E0" x="12" y="21" width="195" height="1"></rect>
                        <rect id="Rectangle-3-Copy-14" fill="#E0E0E0" x="12" y="38" width="195" height="1"></rect>
                        <rect id="Rectangle-3-Copy-15" fill="#9F9F9F" x="0" y="141" width="214" height="10"></rect>
                        <rect id="Rectangle-3-Copy-16" fill="#DFDFDF" x="0" y="122" width="214" height="19"></rect>
                        <rect id="Rectangle-3-Copy-17" fill="#E0E0E0" x="12" y="25" width="23" height="2"></rect>
                        <rect id="Rectangle-3-Copy-22" fill="#E0E0E0" x="12" y="29" width="32" height="6"></rect>
                        <path d="M123.745393,82.3511974 L124.815202,83.7574376 C124.961501,83.9596431 125.020934,84.1756321 124.993503,84.4054111 C124.966072,84.6351901 124.860921,84.823606 124.678047,84.9706645 C123.891687,85.5956633 122.735025,86.5009789 121.208025,87.6866384 C119.681026,88.8722979 118.341492,89.9108833 117.189384,90.8024257 C116.037277,91.6939681 115.424657,92.1673056 115.351507,92.2224526 C114.638298,92.8106868 114.089683,93.2518558 113.705648,93.5459729 C113.321612,93.8400899 112.768425,94.2169218 112.046072,94.6764797 C111.323719,95.1360377 110.624235,95.47151 109.947601,95.6829066 C109.270966,95.8943033 108.594342,96 107.917707,96 L107.862845,96 C107.18621,96 106.509586,95.8943033 105.832951,95.6829066 C105.156317,95.47151 104.461405,95.1360377 103.748195,94.6764797 C103.034986,94.2169218 102.477228,93.8354944 102.074904,93.5321862 C101.672581,93.2288779 101.123967,92.7923044 100.429045,92.2224526 C100.337608,92.1489233 99.7432752,91.6847768 98.6460298,90.829999 C97.5487844,89.9752212 96.2366814,88.9550179 94.7096816,87.7693584 C93.1826818,86.5836989 92.0625939,85.7151474 91.3493844,85.1636779 C91.1482227,85.0166194 91.033928,84.8282034 91.0064969,84.5984245 C90.9790658,84.3686455 91.038499,84.1526565 91.1847984,83.950451 L92.1997453,82.5166374 C92.3460447,82.3144319 92.5426315,82.1949486 92.7895118,82.158184 C93.036392,82.1214193 93.2604095,82.1857565 93.4615712,82.3511974 C95.180589,83.6931065 97.9785228,85.8621875 101.855457,88.8585053 C101.946894,88.9320346 102.344639,89.2537203 103.048705,89.8235721 C103.752771,90.393424 104.305957,90.8208065 104.70828,91.1057324 C105.110604,91.3906583 105.627216,91.6893665 106.258132,92.0018659 C106.889048,92.3143653 107.423947,92.4706126 107.862845,92.4706126 L107.917707,92.4706126 C108.356605,92.4706126 108.891504,92.3143653 109.52242,92.0018659 C110.153336,91.6893665 110.669948,91.3906583 111.072272,91.1057324 C111.474595,90.8208065 112.027781,90.393424 112.731847,89.8235721 C113.435913,89.2537203 113.833658,88.9320346 113.925096,88.8585053 C118.643251,85.2188064 121.50519,82.9945793 122.510998,82.1857573 C122.712159,82.0386988 122.931605,81.9789571 123.169342,82.0065306 C123.407078,82.0341041 123.599093,82.1489919 123.745393,82.3511974 Z M129,102.125 L129,76.75 C127.359367,75.2369716 125.910163,73.9700572 124.652344,72.9492188 C122.993481,71.6002537 119.447944,68.829448 114.015625,64.6367188 C113.960937,64.6002602 113.569014,64.281253 112.839844,63.6796875 C112.110673,63.078122 111.554689,62.6406264 111.171875,62.3671875 C110.789061,62.0937486 110.278649,61.7975276 109.640625,61.4785156 C109.002601,61.1595036 108.464846,61 108.027344,61 L107.972656,61 C107.535154,61 106.997399,61.1595036 106.359375,61.4785156 C105.721351,61.7975276 105.210939,62.0937486 104.828125,62.3671875 C104.445311,62.6406264 103.889327,63.078122 103.160156,63.6796875 C102.430986,64.281253 102.039063,64.6002602 101.984375,64.6367188 C98.0650846,67.6627755 95.1894623,69.9003834 93.3574219,71.3496094 C91.5253815,72.7988354 90.3450547,73.7467426 89.8164062,74.1933594 C89.2877578,74.6399762 88.5403694,75.3190059 87.5742188,76.2304688 C87.3190091,76.4492198 87.1276048,76.6223952 87,76.75 L87,102.125 C87,102.36198 87.0865877,102.567056 87.2597656,102.740234 C87.4329436,102.913412 87.6380196,103 87.875,103 L128.125,103 C128.36198,103 128.567056,102.913412 128.740234,102.740234 C128.913412,102.567056 129,102.36198 129,102.125 Z M132,76.25 L132,101.625 C132,102.828131 131.571619,103.858069 130.714844,104.714844 C129.858069,105.571619 128.828131,106 127.625,106 L87.375,106 C86.171869,106 85.1419314,105.571619 84.2851562,104.714844 C83.4283811,103.858069 83,102.828131 83,101.625 L83,76.25 C83,75.2291616 83.3736942,74.3723993 84.1210938,73.6796875 C86.3632925,71.6015521 89.5533647,68.9537921 93.6914062,65.7363281 C97.8294478,62.5188641 99.9531245,60.8645838 100.0625,60.7734375 C100.718753,60.2265598 101.256508,59.7936214 101.675781,59.4746094 C102.095054,59.1555974 102.655595,58.7727887 103.357422,58.3261719 C104.059248,57.8795551 104.75195,57.5468761 105.435547,57.328125 C106.119144,57.1093739 106.798174,57 107.472656,57 C108.201826,57 108.880856,57.1093739 109.564453,57.328125 C110.24805,57.5468761 110.940752,57.8795551 111.642578,58.3261719 C112.344405,58.7727887 112.904946,59.1555974 113.324219,59.4746094 C113.743492,59.7936214 114.281247,60.2265598 114.9375,60.7734375 C115.721358,61.4296908 117.143219,62.5416588 119.203125,64.109375 C121.263031,65.6770912 123.322906,67.2903563 125.382812,68.9492188 C127.442719,70.6080812 129.274732,72.1848884 130.878906,73.6796875 C131.626306,74.3723993 132,75.2291616 132,76.25 Z" id="" fill="#F57C00"></path>
                    </g>
                </g>
            </g>
        </g>
    </g>
</svg>