<?xml version="1.0" encoding="UTF-8"?>
<svg width="294px" height="196px" viewBox="0 0 294 196" version="1.1" xmlns="http://www.w3.org/2000/svg" xmlns:xlink="http://www.w3.org/1999/xlink">
    <!-- Generator: Sketch 51.2 (57519) - http://www.bohemiancoding.com/sketch -->
    <title>file-tiles copy</title>
    <desc>Created with Sketch.</desc>
    <defs>
        <path d="M2.14625433,1.82386364 L3.12498516,0.845132812 C3.21412649,0.755991477 3.21412649,0.61190625 3.12498516,0.522764915 C3.03584382,0.43362358 2.89175859,0.43362358 2.80261726,0.522764915 L1.82388643,1.50149574 L0.845155611,0.522764915 C0.756014276,0.43362358 0.611929048,0.43362358 0.522787713,0.522764915 C0.433646378,0.61190625 0.433646378,0.755991477 0.522787713,0.845132812 L1.50151854,1.82386364 L0.522787713,2.80259446 C0.433646378,2.8917358 0.433646378,3.03582102 0.522787713,3.12496236 C0.567244389,3.16941903 0.625608026,3.19176136 0.683971662,3.19176136 C0.742335298,3.19176136 0.800698935,3.16941903 0.845155611,3.12496236 L1.82388643,2.14623153 L2.80261726,3.12496236 C2.84707393,3.16941903 2.90543757,3.19176136 2.96380121,3.19176136 C3.02216484,3.19176136 3.08052848,3.16941903 3.12498516,3.12496236 C3.21412649,3.03582102 3.21412649,2.8917358 3.12498516,2.80259446 L2.14625433,1.82386364 Z" id="path-1"></path>
        <path d="M1.69028842,1.36789773 L2.66901925,0.389166903 C2.75816058,0.300025568 2.75816058,0.155940341 2.66901925,0.0667990057 C2.57987791,-0.0223423295 2.43579268,-0.0223423295 2.34665135,0.0667990057 L1.36792053,1.04552983 L0.389189702,0.0667990057 C0.300048366,-0.0223423295 0.155963139,-0.0223423295 0.066821804,0.0667990057 C-0.0223195312,0.155940341 -0.0223195312,0.300025568 0.066821804,0.389166903 L1.04555263,1.36789773 L0.066821804,2.34662855 C-0.0223195312,2.43576989 -0.0223195312,2.57985511 0.066821804,2.66899645 C0.11127848,2.71345312 0.169642116,2.73579545 0.228005753,2.73579545 C0.286369389,2.73579545 0.344733026,2.71345312 0.389189702,2.66899645 L1.36792053,1.69026562 L2.34665135,2.66899645 C2.39110803,2.71345312 2.44947166,2.73579545 2.5078353,2.73579545 C2.56619893,2.73579545 2.62456257,2.71345312 2.66901925,2.66899645 C2.75816058,2.57985511 2.75816058,2.43576989 2.66901925,2.34662855 L1.69028842,1.36789773 Z" id="path-3"></path>
        <path d="M0.434253247,0 L4.12540584,0 L5.21103896,1.03436711 L5.21103896,6.20620265 C5.21103896,6.43470872 5.01661716,6.61994949 4.77678571,6.61994949 L0.434253247,6.61994949 C0.194421801,6.61994949 0,6.43470872 0,6.20620265 L0,0.413746843 C0,0.185240772 0.194421801,4.19758844e-17 0.434253247,0 Z M4.77678571,1.24124053 L4.12540584,1.24124053 C3.98502753,1.24124053 3.90827922,1.16536074 3.90827922,1.03436711 L3.90827922,0.413746843 L0.434253247,0.413746843 L0.434253247,6.20620265 L4.77678571,6.20620265 L4.77678571,1.24124053 Z" id="path-5"></path>
        <path d="M2.14625433,1.82386364 L3.12498516,0.845132812 C3.21412649,0.755991477 3.21412649,0.61190625 3.12498516,0.522764915 C3.03584382,0.43362358 2.89175859,0.43362358 2.80261726,0.522764915 L1.82388643,1.50149574 L0.845155611,0.522764915 C0.756014276,0.43362358 0.611929048,0.43362358 0.522787713,0.522764915 C0.433646378,0.61190625 0.433646378,0.755991477 0.522787713,0.845132812 L1.50151854,1.82386364 L0.522787713,2.80259446 C0.433646378,2.8917358 0.433646378,3.03582102 0.522787713,3.12496236 C0.567244389,3.16941903 0.625608026,3.19176136 0.683971662,3.19176136 C0.742335298,3.19176136 0.800698935,3.16941903 0.845155611,3.12496236 L1.82388643,2.14623153 L2.80261726,3.12496236 C2.84707393,3.16941903 2.90543757,3.19176136 2.96380121,3.19176136 C3.02216484,3.19176136 3.08052848,3.16941903 3.12498516,3.12496236 C3.21412649,3.03582102 3.21412649,2.8917358 3.12498516,2.80259446 L2.14625433,1.82386364 Z" id="path-7"></path>
        <path d="M1.69028842,1.36789773 L2.66901925,0.389166903 C2.75816058,0.300025568 2.75816058,0.155940341 2.66901925,0.0667990057 C2.57987791,-0.0223423295 2.43579268,-0.0223423295 2.34665135,0.0667990057 L1.36792053,1.04552983 L0.389189702,0.0667990057 C0.300048366,-0.0223423295 0.155963139,-0.0223423295 0.066821804,0.0667990057 C-0.0223195312,0.155940341 -0.0223195312,0.300025568 0.066821804,0.389166903 L1.04555263,1.36789773 L0.066821804,2.34662855 C-0.0223195312,2.43576989 -0.0223195312,2.57985511 0.066821804,2.66899645 C0.11127848,2.71345312 0.169642116,2.73579545 0.228005753,2.73579545 C0.286369389,2.73579545 0.344733026,2.71345312 0.389189702,2.66899645 L1.36792053,1.69026562 L2.34665135,2.66899645 C2.39110803,2.71345312 2.44947166,2.73579545 2.5078353,2.73579545 C2.56619893,2.73579545 2.62456257,2.71345312 2.66901925,2.66899645 C2.75816058,2.57985511 2.75816058,2.43576989 2.66901925,2.34662855 L1.69028842,1.36789773 Z" id="path-9"></path>
        <path d="M0.434253247,0 L4.12540584,0 L5.21103896,1.03436711 L5.21103896,6.20620265 C5.21103896,6.43470872 5.01661716,6.61994949 4.77678571,6.61994949 L0.434253247,6.61994949 C0.194421801,6.61994949 0,6.43470872 0,6.20620265 L0,0.413746843 C0,0.185240772 0.194421801,4.19758844e-17 0.434253247,0 Z M4.77678571,1.24124053 L4.12540584,1.24124053 C3.98502753,1.24124053 3.90827922,1.16536074 3.90827922,1.03436711 L3.90827922,0.413746843 L0.434253247,0.413746843 L0.434253247,6.20620265 L4.77678571,6.20620265 L4.77678571,1.24124053 Z" id="path-11"></path>
        <path d="M2.14625433,1.82386364 L3.12498516,0.845132812 C3.21412649,0.755991477 3.21412649,0.61190625 3.12498516,0.522764915 C3.03584382,0.43362358 2.89175859,0.43362358 2.80261726,0.522764915 L1.82388643,1.50149574 L0.845155611,0.522764915 C0.756014276,0.43362358 0.611929048,0.43362358 0.522787713,0.522764915 C0.433646378,0.61190625 0.433646378,0.755991477 0.522787713,0.845132812 L1.50151854,1.82386364 L0.522787713,2.80259446 C0.433646378,2.8917358 0.433646378,3.03582102 0.522787713,3.12496236 C0.567244389,3.16941903 0.625608026,3.19176136 0.683971662,3.19176136 C0.742335298,3.19176136 0.800698935,3.16941903 0.845155611,3.12496236 L1.82388643,2.14623153 L2.80261726,3.12496236 C2.84707393,3.16941903 2.90543757,3.19176136 2.96380121,3.19176136 C3.02216484,3.19176136 3.08052848,3.16941903 3.12498516,3.12496236 C3.21412649,3.03582102 3.21412649,2.8917358 3.12498516,2.80259446 L2.14625433,1.82386364 Z" id="path-13"></path>
        <path d="M1.69028842,1.36789773 L2.66901925,0.389166903 C2.75816058,0.300025568 2.75816058,0.155940341 2.66901925,0.0667990057 C2.57987791,-0.0223423295 2.43579268,-0.0223423295 2.34665135,0.0667990057 L1.36792053,1.04552983 L0.389189702,0.0667990057 C0.300048366,-0.0223423295 0.155963139,-0.0223423295 0.066821804,0.0667990057 C-0.0223195312,0.155940341 -0.0223195312,0.300025568 0.066821804,0.389166903 L1.04555263,1.36789773 L0.066821804,2.34662855 C-0.0223195312,2.43576989 -0.0223195312,2.57985511 0.066821804,2.66899645 C0.11127848,2.71345312 0.169642116,2.73579545 0.228005753,2.73579545 C0.286369389,2.73579545 0.344733026,2.71345312 0.389189702,2.66899645 L1.36792053,1.69026562 L2.34665135,2.66899645 C2.39110803,2.71345312 2.44947166,2.73579545 2.5078353,2.73579545 C2.56619893,2.73579545 2.62456257,2.71345312 2.66901925,2.66899645 C2.75816058,2.57985511 2.75816058,2.43576989 2.66901925,2.34662855 L1.69028842,1.36789773 Z" id="path-15"></path>
        <path d="M0.434253247,0 L4.12540584,0 L5.21103896,1.03436711 L5.21103896,6.20620265 C5.21103896,6.43470872 5.01661716,6.61994949 4.77678571,6.61994949 L0.434253247,6.61994949 C0.194421801,6.61994949 0,6.43470872 0,6.20620265 L0,0.413746843 C0,0.185240772 0.194421801,4.19758844e-17 0.434253247,0 Z M4.77678571,1.24124053 L4.12540584,1.24124053 C3.98502753,1.24124053 3.90827922,1.16536074 3.90827922,1.03436711 L3.90827922,0.413746843 L0.434253247,0.413746843 L0.434253247,6.20620265 L4.77678571,6.20620265 L4.77678571,1.24124053 Z" id="path-17"></path>
        <path d="M2.14625433,1.82386364 L3.12498516,0.845132812 C3.21412649,0.755991477 3.21412649,0.61190625 3.12498516,0.522764915 C3.03584382,0.43362358 2.89175859,0.43362358 2.80261726,0.522764915 L1.82388643,1.50149574 L0.845155611,0.522764915 C0.756014276,0.43362358 0.611929048,0.43362358 0.522787713,0.522764915 C0.433646378,0.61190625 0.433646378,0.755991477 0.522787713,0.845132812 L1.50151854,1.82386364 L0.522787713,2.80259446 C0.433646378,2.8917358 0.433646378,3.03582102 0.522787713,3.12496236 C0.567244389,3.16941903 0.625608026,3.19176136 0.683971662,3.19176136 C0.742335298,3.19176136 0.800698935,3.16941903 0.845155611,3.12496236 L1.82388643,2.14623153 L2.80261726,3.12496236 C2.84707393,3.16941903 2.90543757,3.19176136 2.96380121,3.19176136 C3.02216484,3.19176136 3.08052848,3.16941903 3.12498516,3.12496236 C3.21412649,3.03582102 3.21412649,2.8917358 3.12498516,2.80259446 L2.14625433,1.82386364 Z" id="path-19"></path>
        <path d="M1.69028842,1.36789773 L2.66901925,0.389166903 C2.75816058,0.300025568 2.75816058,0.155940341 2.66901925,0.0667990057 C2.57987791,-0.0223423295 2.43579268,-0.0223423295 2.34665135,0.0667990057 L1.36792053,1.04552983 L0.389189702,0.0667990057 C0.300048366,-0.0223423295 0.155963139,-0.0223423295 0.066821804,0.0667990057 C-0.0223195312,0.155940341 -0.0223195312,0.300025568 0.066821804,0.389166903 L1.04555263,1.36789773 L0.066821804,2.34662855 C-0.0223195312,2.43576989 -0.0223195312,2.57985511 0.066821804,2.66899645 C0.11127848,2.71345312 0.169642116,2.73579545 0.228005753,2.73579545 C0.286369389,2.73579545 0.344733026,2.71345312 0.389189702,2.66899645 L1.36792053,1.69026562 L2.34665135,2.66899645 C2.39110803,2.71345312 2.44947166,2.73579545 2.5078353,2.73579545 C2.56619893,2.73579545 2.62456257,2.71345312 2.66901925,2.66899645 C2.75816058,2.57985511 2.75816058,2.43576989 2.66901925,2.34662855 L1.69028842,1.36789773 Z" id="path-21"></path>
        <path d="M0.434253247,0 L4.12540584,0 L5.21103896,1.03436711 L5.21103896,6.20620265 C5.21103896,6.43470872 5.01661716,6.61994949 4.77678571,6.61994949 L0.434253247,6.61994949 C0.194421801,6.61994949 0,6.43470872 0,6.20620265 L0,0.413746843 C0,0.185240772 0.194421801,4.19758844e-17 0.434253247,0 Z M4.77678571,1.24124053 L4.12540584,1.24124053 C3.98502753,1.24124053 3.90827922,1.16536074 3.90827922,1.03436711 L3.90827922,0.413746843 L0.434253247,0.413746843 L0.434253247,6.20620265 L4.77678571,6.20620265 L4.77678571,1.24124053 Z" id="path-23"></path>
    </defs>
    <g id="file-tiles-copy" stroke="none" stroke-width="1" fill="none" fill-rule="evenodd">
        <g id="Group-7">
            <g id="Group-6">
                <g id="Group-5">
                    <g id="help-link">
                        <g id="Group-2">
                            <g id="Group-3">
                                <g id="card-grid-copy">
                                    <g id="application-frame">
                                        <rect id="Rectangle" fill="#B6E3EB" fill-rule="evenodd" x="0" y="0" width="293" height="195"></rect>
                                        <rect id="Rectangle-Copy" fill="#16B9D4" fill-rule="evenodd" x="0" y="0" width="48.8333333" height="195"></rect>
                                        <rect id="Rectangle-Copy-2" fill="#0E94A6" fill-rule="evenodd" x="0" y="0" width="293" height="14.625"></rect>
                                        <g id="overlay-/-hidden"></g>
                                    </g>
                                </g>
                                <g id="box-/-content" transform="translate(48.000000, 15.000000)" fill="#FFFFFF">
                                    <rect id="Rectangle" x="0" y="0" width="174" height="180"></rect>
                                </g>
                                <g id="box-/-white-copy" transform="translate(157.500000, 14.000000)" fill="#F7F5F5">
                                    <rect id="Rectangle" x="0" y="0.756475639" width="135.793505" height="180.368524"></rect>
                                </g>
                            </g>
                        </g>
                    </g>
                </g>
                <g id="Group-4" transform="translate(54.000000, 34.000000)">
                    <path d="" id="Path-2" stroke="#979797"></path>
                    <rect id="Rectangle-2" stroke="#E0E0E0" x="0.5" y="22.5" width="95" height="13"></rect>
                    <rect id="Rectangle-2-Copy-2" stroke="#E0E0E0" x="0.5" y="48.5" width="95" height="13"></rect>
                    <rect id="Rectangle-2-Copy" stroke="#E0E0E0" x="0.5" y="35.5" width="95" height="13"></rect>
                    <rect id="Rectangle-2-Copy-3" stroke="#E0E0E0" x="0.5" y="60.5" width="95" height="13"></rect>
                    <rect id="Rectangle-2-Copy-4" stroke="#E0E0E0" x="0.5" y="73.5" width="95" height="13"></rect>
                    <rect id="Rectangle-3-Copy-3" stroke="#D8D8D8" fill="#FFFFFF" x="50.5" y="27.5" width="12" height="3" rx="1.5"></rect>
                    <rect id="Rectangle-3-Copy-13" fill="#E0E0E0" x="2" y="27" width="4" height="4"></rect>
                    <rect id="Rectangle-3-Copy-23" fill="#E0E0E0" x="14" y="27" width="28" height="4"></rect>
                    <rect id="Rectangle-3-Copy-5" stroke="#D8D8D8" fill="#FFFFFF" x="50.5" y="39.5" width="12" height="3" rx="1.5"></rect>
                    <rect id="Rectangle-3-Copy-14" fill="#E0E0E0" x="2" y="39" width="4" height="4"></rect>
                    <rect id="Rectangle-3-Copy-24" fill="#E0E0E0" x="14" y="39" width="28" height="4"></rect>
                    <rect id="Rectangle-3-Copy-7" stroke="#D8D8D8" fill="#FFFFFF" x="50.5" y="52.5" width="12" height="3" rx="1.5"></rect>
                    <rect id="Rectangle-3-Copy-15" fill="#E0E0E0" x="2" y="52" width="4" height="4"></rect>
                    <rect id="Rectangle-3-Copy-25" fill="#E0E0E0" x="14" y="52" width="28" height="4"></rect>
                    <rect id="Rectangle-3-Copy-9" stroke="#D8D8D8" fill="#FFFFFF" x="50.5" y="65.5" width="12" height="3" rx="1.5"></rect>
                    <rect id="Rectangle-3-Copy-16" fill="#E0E0E0" x="2" y="65" width="4" height="4" rx="1"></rect>
                    <rect id="Rectangle-3-Copy-26" fill="#E0E0E0" x="14" y="65" width="28" height="4"></rect>
                    <rect id="Rectangle-3-Copy-11" stroke="#D8D8D8" fill="#FFFFFF" x="50.5" y="78.5" width="12" height="3" rx="1.5"></rect>
                    <rect id="Rectangle-3-Copy-17" fill="#E0E0E0" x="2" y="78" width="4" height="4"></rect>
                    <rect id="Rectangle-3-Copy-27" fill="#E0E0E0" x="14" y="78" width="28" height="4"></rect>
                    <rect id="Rectangle-3-Copy-4" fill="#E0E0E0" x="69" y="27" width="19" height="4"></rect>
                    <rect id="Rectangle-3-Copy-6" fill="#E0E0E0" x="69" y="39" width="19" height="4"></rect>
                    <rect id="Rectangle-3-Copy-8" fill="#E0E0E0" x="69" y="52" width="19" height="4"></rect>
                    <rect id="Rectangle-3-Copy-10" fill="#E0E0E0" x="69" y="65" width="19" height="4"></rect>
                    <rect id="Rectangle-3-Copy-12" fill="#E0E0E0" x="69" y="78" width="19" height="4"></rect>
                </g>
            </g>
            <rect id="Rectangle-3-Copy-11" fill="#E0E0E0" x="54" y="22" width="38" height="8"></rect>
            <rect id="Rectangle-3-Copy-13" fill="#E0E0E0" x="54" y="53" width="96" height="1"></rect>
            <g id="Group" transform="translate(167.000000, 22.000000)">
                <rect id="Rectangle-3-Copy-28" fill="#E0E0E0" x="0" y="0" width="38" height="8"></rect>
                <rect id="Rectangle-3-Copy-18" fill="#D8D8D8" x="0" y="12" width="13" height="4" rx="2"></rect>
                <rect id="Rectangle-3-Copy-19" stroke="#D8D8D8" x="16.5" y="12.5" width="19" height="3" rx="1.5"></rect>
                <rect id="Rectangle-3" fill="#D8D8D8" x="1" y="33" width="59" height="7"></rect>
                <rect id="Rectangle-3-Copy-2" fill="#D8D8D8" x="1" y="46" width="30" height="7"></rect>
                <rect id="Rectangle-3-Copy-20" fill="#D8D8D8" x="35" y="46" width="36" height="7"></rect>
                <rect id="Rectangle-3-Copy" fill="#D8D8D8" x="63" y="33" width="32" height="7"></rect>
                <rect id="Rectangle-3-Copy-13" fill="#E0E0E0" x="1" y="26" width="97" height="1"></rect>
                <rect id="Rectangle-3-Copy-21" fill="#E0E0E0" x="1" y="59" width="97" height="1"></rect>
            </g>
        </g>
        <g id="FIle-tile-default" transform="translate(168.000000, 84.000000)">
            <g id="container" fill="#F2B577" stroke="#979797" stroke-opacity="0" stroke-width="2">
                <rect id="Rectangle-235-Copy-148" x="1" y="1" width="45.5555556" height="8.28846154" rx="1"></rect>
            </g>
            <g id="txt" transform="translate(10.000000, 2.000000)" fill="#F57C00">
                <rect id="Rectangle-3" x="0" y="0" width="27.4560117" height="2.18863636" rx="1.09431818"></rect>
                <rect id="Rectangle-3" x="0" y="3.28295455" width="7.09747242" height="2.18863636" rx="1.09431818"></rect>
            </g>
            <g id="x" transform="translate(42.000000, 4.000000)">
                <mask id="mask-2" fill="white">
                    <use xlink:href="#path-1"></use>
                </mask>
                <use id="Mask" fill="#000000" xlink:href="#path-1"></use>
                <g id="Fill" mask="url(#mask-2)">
                    <g transform="translate(0.455966, 0.455966)">
                        <mask id="mask-4" fill="white">
                            <use xlink:href="#path-3"></use>
                        </mask>
                        <use id="Mask" stroke="none" fill="#000000" fill-rule="evenodd" xlink:href="#path-3"></use>
                        <g id="Icon-Color" stroke="none" stroke-width="1" fill="none" fill-rule="evenodd" mask="url(#mask-4)">
                            <g transform="translate(-0.455966, -0.455966)" fill="#F57C00" id="Gray-900">
                                <rect x="0" y="0" width="3.64772727" height="3.64772727"></rect>
                            </g>
                        </g>
                    </g>
                </g>
            </g>
            <g id="icon" transform="translate(2.000000, 2.000000)">
                <g id="Attach_image">
                    <g id="file">
                        <mask id="mask-6" fill="white">
                            <use xlink:href="#path-5"></use>
                        </mask>
                        <use id="Mask" fill="#979797" fill-rule="nonzero" xlink:href="#path-5"></use>
                        <g id="Fill" mask="url(#mask-6)" fill="#F57C00">
                            <g transform="translate(-0.868506, 0.000000)" id="fill">
                                <rect x="0" y="0" width="6.94805195" height="6.61994949"></rect>
                            </g>
                        </g>
                    </g>
                    <rect id="Rectangle" fill="#F57C00" x="1.21590909" y="4.46846591" width="2.95292208" height="1.15849116" rx="0.579245581"></rect>
                    <g id="image" transform="translate(1.389610, 1.654987)" fill="#F57C00">
                        <rect id="Rectangle-4" x="0" y="0" width="2.42373905" height="2.28274121" rx="1"></rect>
                    </g>
                </g>
            </g>
        </g>
        <g id="FIle-tile-default-Copy-2" transform="translate(168.000000, 96.000000)">
            <g id="container" fill="#F2B577" stroke="#979797" stroke-opacity="0" stroke-width="2">
                <rect id="Rectangle-235-Copy-148" x="1" y="1" width="45.5555556" height="8.28846154" rx="1"></rect>
            </g>
            <g id="txt" transform="translate(10.000000, 2.000000)" fill="#F57C00">
                <rect id="Rectangle-3" x="0" y="0" width="27.4560117" height="2.18863636" rx="1.09431818"></rect>
                <rect id="Rectangle-3" x="0" y="3.28295455" width="7.09747242" height="2.18863636" rx="1.09431818"></rect>
            </g>
            <g id="x" transform="translate(42.000000, 4.000000)">
                <mask id="mask-8" fill="white">
                    <use xlink:href="#path-7"></use>
                </mask>
                <use id="Mask" fill="#000000" xlink:href="#path-7"></use>
                <g id="Fill" mask="url(#mask-8)">
                    <g transform="translate(0.455966, 0.455966)">
                        <mask id="mask-10" fill="white">
                            <use xlink:href="#path-9"></use>
                        </mask>
                        <use id="Mask" stroke="none" fill="#000000" fill-rule="evenodd" xlink:href="#path-9"></use>
                        <g id="Icon-Color" stroke="none" stroke-width="1" fill="none" fill-rule="evenodd" mask="url(#mask-10)">
                            <g transform="translate(-0.455966, -0.455966)" fill="#F57C00" id="Gray-900">
                                <rect x="0" y="0" width="3.64772727" height="3.64772727"></rect>
                            </g>
                        </g>
                    </g>
                </g>
            </g>
            <g id="icon" transform="translate(2.000000, 2.000000)">
                <g id="Attach_image">
                    <g id="file">
                        <mask id="mask-12" fill="white">
                            <use xlink:href="#path-11"></use>
                        </mask>
                        <use id="Mask" fill="#979797" fill-rule="nonzero" xlink:href="#path-11"></use>
                        <g id="Fill" mask="url(#mask-12)" fill="#F57C00">
                            <g transform="translate(-0.868506, 0.000000)" id="fill">
                                <rect x="0" y="0" width="6.94805195" height="6.61994949"></rect>
                            </g>
                        </g>
                    </g>
                    <rect id="Rectangle" fill="#F57C00" x="1.21590909" y="4.46846591" width="2.95292208" height="1.15849116" rx="0.579245581"></rect>
                    <g id="image" transform="translate(1.389610, 1.654987)" fill="#F57C00">
                        <rect id="Rectangle-4" x="0" y="0" width="2.42373905" height="2.28274121" rx="1"></rect>
                    </g>
                </g>
            </g>
        </g>
        <g id="FIle-tile-default-Copy" transform="translate(217.000000, 84.000000)">
            <g id="container" fill="#F2B577" stroke="#979797" stroke-opacity="0" stroke-width="2">
                <rect id="Rectangle-235-Copy-148" x="1" y="1" width="45.5555556" height="8.28846154" rx="1"></rect>
            </g>
            <g id="txt" transform="translate(10.000000, 2.000000)" fill="#F57C00">
                <rect id="Rectangle-3" x="0" y="0" width="27.4560117" height="2.18863636" rx="1.09431818"></rect>
                <rect id="Rectangle-3" x="0" y="3.28295455" width="7.09747242" height="2.18863636" rx="1.09431818"></rect>
            </g>
            <g id="x" transform="translate(42.000000, 4.000000)">
                <mask id="mask-14" fill="white">
                    <use xlink:href="#path-13"></use>
                </mask>
                <use id="Mask" fill="#000000" xlink:href="#path-13"></use>
                <g id="Fill" mask="url(#mask-14)">
                    <g transform="translate(0.455966, 0.455966)">
                        <mask id="mask-16" fill="white">
                            <use xlink:href="#path-15"></use>
                        </mask>
                        <use id="Mask" stroke="none" fill="#000000" fill-rule="evenodd" xlink:href="#path-15"></use>
                        <g id="Icon-Color" stroke="none" stroke-width="1" fill="none" fill-rule="evenodd" mask="url(#mask-16)">
                            <g transform="translate(-0.455966, -0.455966)" fill="#F57C00" id="Gray-900">
                                <rect x="0" y="0" width="3.64772727" height="3.64772727"></rect>
                            </g>
                        </g>
                    </g>
                </g>
            </g>
            <g id="icon" transform="translate(2.000000, 2.000000)">
                <g id="Attach_image">
                    <g id="file">
                        <mask id="mask-18" fill="white">
                            <use xlink:href="#path-17"></use>
                        </mask>
                        <use id="Mask" fill="#979797" fill-rule="nonzero" xlink:href="#path-17"></use>
                        <g id="Fill" mask="url(#mask-18)" fill="#F57C00">
                            <g transform="translate(-0.868506, 0.000000)" id="fill">
                                <rect x="0" y="0" width="6.94805195" height="6.61994949"></rect>
                            </g>
                        </g>
                    </g>
                    <rect id="Rectangle" fill="#F57C00" x="1.21590909" y="4.46846591" width="2.95292208" height="1.15849116" rx="0.579245581"></rect>
                    <g id="image" transform="translate(1.389610, 1.654987)" fill="#F57C00">
                        <rect id="Rectangle-4" x="0" y="0" width="2.42373905" height="2.28274121" rx="1"></rect>
                    </g>
                </g>
            </g>
        </g>
        <g id="FIle-tile-default-Copy-3" transform="translate(217.000000, 96.000000)">
            <g id="container" fill="#F2B577" stroke="#979797" stroke-opacity="0" stroke-width="2">
                <rect id="Rectangle-235-Copy-148" x="1" y="1" width="45.5555556" height="8.28846154" rx="1"></rect>
            </g>
            <g id="txt" transform="translate(10.000000, 2.000000)" fill="#F57C00">
                <rect id="Rectangle-3" x="0" y="0" width="27.4560117" height="2.18863636" rx="1.09431818"></rect>
                <rect id="Rectangle-3" x="0" y="3.28295455" width="7.09747242" height="2.18863636" rx="1.09431818"></rect>
            </g>
            <g id="x" transform="translate(42.000000, 4.000000)">
                <mask id="mask-20" fill="white">
                    <use xlink:href="#path-19"></use>
                </mask>
                <use id="Mask" fill="#000000" xlink:href="#path-19"></use>
                <g id="Fill" mask="url(#mask-20)">
                    <g transform="translate(0.455966, 0.455966)">
                        <mask id="mask-22" fill="white">
                            <use xlink:href="#path-21"></use>
                        </mask>
                        <use id="Mask" stroke="none" fill="#000000" fill-rule="evenodd" xlink:href="#path-21"></use>
                        <g id="Icon-Color" stroke="none" stroke-width="1" fill="none" fill-rule="evenodd" mask="url(#mask-22)">
                            <g transform="translate(-0.455966, -0.455966)" fill="#F57C00" id="Gray-900">
                                <rect x="0" y="0" width="3.64772727" height="3.64772727"></rect>
                            </g>
                        </g>
                    </g>
                </g>
            </g>
            <g id="icon" transform="translate(2.000000, 2.000000)">
                <g id="Attach_image">
                    <g id="file">
                        <mask id="mask-24" fill="white">
                            <use xlink:href="#path-23"></use>
                        </mask>
                        <use id="Mask" fill="#979797" fill-rule="nonzero" xlink:href="#path-23"></use>
                        <g id="Fill" mask="url(#mask-24)" fill="#F57C00">
                            <g transform="translate(-0.868506, 0.000000)" id="fill">
                                <rect x="0" y="0" width="6.94805195" height="6.61994949"></rect>
                            </g>
                        </g>
                    </g>
                    <rect id="Rectangle" fill="#F57C00" x="1.21590909" y="4.46846591" width="2.95292208" height="1.15849116" rx="0.579245581"></rect>
                    <g id="image" transform="translate(1.389610, 1.654987)" fill="#F57C00">
                        <rect id="Rectangle-4" x="0" y="0" width="2.42373905" height="2.28274121" rx="1"></rect>
                    </g>
                </g>
            </g>
        </g>
    </g>
</svg>