<?xml version="1.0" encoding="UTF-8"?>
<svg width="293px" height="195px" viewBox="0 0 293 195" version="1.1" xmlns="http://www.w3.org/2000/svg" xmlns:xlink="http://www.w3.org/1999/xlink">
    <!-- Generator: Sketch 49 (51002) - http://www.bohemiancoding.com/sketch -->
    <title>helix_thumbnail_placeholder</title>
    <desc>Created with Sketch.</desc>
    <defs></defs>
    <g stroke="none" stroke-width="1" fill="none" fill-rule="evenodd">
        <g>
            <rect fill="#F5F5F5" x="0" y="0" width="293" height="195"></rect>
            <path d="M194.647049,126.515681 L148.896739,152.635861 C148.046274,153.12138 146.998458,153.12138 146.147993,152.635861 L100.351094,126.515681 C99.5109628,126.025137 98.9967697,125.13099 99.0000153,124.166247 L99.0000153,71.8337531 C98.9967697,70.8690104 99.5109628,69.9748634 100.351094,69.4843189 L146.194582,43.3641393 C147.045047,42.8786202 148.092863,42.8786202 148.943328,43.3641393 L194.647049,69.4843189 C195.48718,69.9748634 196.001373,70.8690104 195.998128,71.8337531 L195.998128,124.074112 C196.035302,125.071529 195.516619,126.008853 194.647049,126.515681 Z" fill="#B3B3B3" fill-rule="nonzero"></path>
            <path d="M147.02306,42.9772065 C147.493275,42.9825102 147.954079,43.1085082 148.360532,43.342913 L193.696231,69.2623604 C194.527901,69.7491351 195.036916,70.6364106 195.033703,71.5937393 L195.033703,123.432634 C195.036916,124.389963 194.527901,125.277238 193.696231,125.764013 L148.406652,151.68346 C147.564752,152.165248 146.527488,152.165248 145.685588,151.68346 L100.349889,125.85544 C99.5182188,125.368665 99.009204,124.481389 99.0124169,123.524061 L99.0124169,71.5937393 C99.009204,70.6364106 99.5182188,69.7491351 100.349889,69.2623604 L145.731707,43.342913 C146.138161,43.1085082 146.598964,42.9825102 147.06918,42.9772065 L147.02306,42.9772065 Z M147.06918,39.0001484 C145.889549,38.9923524 144.728552,39.2918668 143.702439,39.8687013 L98.3667406,65.833862 C96.2896557,67.0224854 95.0072296,69.2164818 95,71.5937393 L95,123.432634 C95.0072296,125.809892 96.2896557,128.003888 98.3667406,129.192511 L143.656319,155.111959 C145.725396,156.296014 148.274604,156.296014 150.343681,155.111959 L195.633259,129.192511 C197.710344,128.003888 198.99277,125.809892 199,123.432634 L199,71.5937393 C198.99277,69.2164818 197.710344,67.0224854 195.633259,65.833862 L150.343681,39.8687013 C149.331153,39.299564 148.187068,39.000313 147.02306,39.0001484 L147.06918,39.0001484 Z" fill="#E1E1E1" fill-rule="nonzero"></path>
            <path d="M125,103.648257 C125.032293,104.272075 125.356651,104.845503 125.87751,105.199593 L170.12249,131.891705 C170.584337,132.165471 171,131.891705 171,131.389802 L171,121.351743 C170.967707,120.727925 170.643349,120.154497 170.12249,119.800407 L125.87751,93.1082946 C125.415663,92.8345294 125,93.1082946 125,93.6101976 L125,103.648257 Z" fill="#CACACA" fill-rule="nonzero"></path>
            <path d="M171,93.4886258 C170.967707,92.8648073 170.643349,92.2913796 170.12249,91.9372893 L125.87751,65.1082946 C125.415663,64.8345294 125,65.1082946 125,65.6101976 L125,75.6482569 C125.032293,76.2720753 125.356651,76.845503 125.87751,77.1995933 L170.12249,103.891705 C170.584337,104.165471 171,103.891705 171,103.389802 L171,93.4886258 Z" fill="#CACACA" fill-rule="nonzero"></path>
            <path d="M169.986987,65 L125.874875,91.0462633 L125,92.6192171 L125,102.797153 C125.039326,103.060648 125.133462,103.312863 125.276276,103.537367 C125.372132,103.711405 125.49669,103.867837 125.644645,104 C125.619043,103.909261 125.619043,103.813159 125.644645,103.72242 C125.65095,103.530594 125.755425,103.355647 125.920921,103.259786 L170.125125,77.2135231 C170.649925,76.8595666 170.974985,76.2751354 171,75.6405694 L171,65.5551601 L169.986987,65 Z" fill="#E1E1E1" fill-rule="nonzero"></path>
            <path d="M126.013013,131.884288 L170.125125,105.83784 C170.649925,105.483251 170.974985,104.897776 171,104.262076 L171,94.2049958 C170.960674,93.9410301 170.866538,93.6883646 170.723724,93.4634599 C170.627868,93.2891106 170.50331,93.132399 170.355355,93 C170.380957,93.0909011 170.380957,93.1871748 170.355355,93.278076 C170.34905,93.4702445 170.244575,93.645504 170.079079,93.7415359 L125.874875,119.83433 C125.350075,120.188919 125.025015,120.774394 125,121.410093 L125,131.28179 C125.138138,131.930634 125.506507,132.162364 126.013013,131.884288 Z" fill="#E1E1E1" fill-rule="nonzero"></path>
        </g>
    </g>
</svg>