<?xml version="1.0" encoding="UTF-8" standalone="no"?>
<svg width="293px" height="195px" viewBox="0 0 293 195" version="1.1" xmlns="http://www.w3.org/2000/svg" xmlns:xlink="http://www.w3.org/1999/xlink">
    <!-- Generator: Sketch 46.2 (44496) - http://www.bohemiancoding.com/sketch -->
    <title>Group</title>
    <desc>Created with Sketch.</desc>
    <defs></defs>
    <g id="thumbnails" stroke="none" stroke-width="1" fill="none" fill-rule="evenodd">
        <g id="Group">
            <g id="vertical-stepper-copy">
                <g id="application-frame">
                    <rect id="Rectangle" fill="#B6E3EB" fill-rule="evenodd" x="0" y="0" width="293" height="195"></rect>
                    <rect id="Rectangle-Copy" fill="#16B9D4" fill-rule="evenodd" x="0" y="0" width="48.8333333" height="195"></rect>
                    <rect id="Rectangle-Copy-2" fill="#0E94A6" fill-rule="evenodd" x="0" y="0" width="293" height="14.625"></rect>
                    <g id="overlay-/-hidden"></g>
                </g>
                <g id="box-/-content" transform="translate(116.610417, 56.610417) rotate(90.000000) translate(-116.610417, -56.610417) translate(116.000000, 49.297917)" fill="#FFFFFF">
                    <rect id="Rectangle" x="0" y="0" width="1" height="15"></rect>
                </g>
                <g id="box-/-content" transform="translate(171.610417, 55.610417) rotate(90.000000) translate(-171.610417, -55.610417) translate(171.000000, 48.297917)" fill="#FFFFFF">
                    <rect id="Rectangle" x="0" y="0" width="1" height="15"></rect>
                </g>
                <g id="pill-/-highlight" transform="translate(120.297917, 51.000000)" fill="#F57C00">
                    <rect id="Rectangle" x="0" y="0" width="10" height="10" rx="4.8"></rect>
                </g>
                <g id="pill-/-highlight-copy" transform="translate(66.000000, 51.000000)" fill="#F57C00">
                    <rect id="Rectangle" x="0" y="0" width="10" height="10" rx="4.8"></rect>
                </g>
                <g id="pill-/-highlight" transform="translate(135.297917, 54.000000)" fill="#F57C00">
                    <rect id="Rectangle" x="0" y="0" width="30" height="4" rx="2"></rect>
                </g>
                <g id="pill-/-highlight-copy-2" transform="translate(81.000000, 54.000000)" fill="#F57C00">
                    <rect id="Rectangle" x="0" y="0" width="30" height="4" rx="2"></rect>
                </g>
                <g id="pill-/-highlight-copy-3" transform="translate(189.297917, 54.000000)" fill="#F57C00">
                    <rect id="Rectangle" x="0" y="0" width="30" height="4" rx="2"></rect>
                </g>
                <g id="pill-/-highlight-copy-4" transform="translate(175.297917, 51.000000)" fill="#F57C00">
                    <rect id="Rectangle" x="0" y="0" width="10" height="10" rx="4.8"></rect>
                </g>
                <g id="box-/-content" transform="translate(69.000000, 66.000000)" fill="#FFFFFF">
                    <rect id="Rectangle" x="0" y="0" width="176" height="112"></rect>
                </g>
            </g>
        </g>
    </g>
</svg>