<?xml version="1.0" encoding="UTF-8" standalone="no"?>
<svg width="293px" height="195px" viewBox="0 0 293 195" version="1.1" xmlns="http://www.w3.org/2000/svg" xmlns:xlink="http://www.w3.org/1999/xlink">
    <!-- Generator: Sketch 46.2 (44496) - http://www.bohemiancoding.com/sketch -->
    <title>loading</title>
    <desc>Created with Sketch.</desc>
    <defs>
        <path d="M126.17325,93.474125 C119.98325,97.656125 111.50425,97.010125 106.02525,91.531125 C99.81025,85.316125 99.81025,75.240125 106.02525,69.025125 C112.24025,62.810125 122.31625,62.810125 128.53125,69.025125 C132.40025,72.894125 133.85925,78.258125 132.91125,83.256125 L134.25325,83.503125 C135.27825,78.079125 133.69425,72.258125 129.49625,68.061125 C122.74825,61.313125 111.80825,61.313125 105.06025,68.060125 C98.31325,74.808125 98.31325,85.748125 105.06025,92.496125 C111.01225,98.447125 120.22325,99.146125 126.94425,94.599125 L126.17325,93.474125 Z" id="path-1"></path>
        <path d="M235.17325,93.474125 C228.98325,97.656125 220.50425,97.010125 215.02525,91.531125 C208.81025,85.316125 208.81025,75.240125 215.02525,69.025125 C221.24025,62.810125 231.31625,62.810125 237.53125,69.025125 C241.40025,72.894125 242.85925,78.258125 241.91125,83.256125 L243.25325,83.503125 C244.27825,78.079125 242.69425,72.258125 238.49625,68.061125 C231.74825,61.313125 220.80825,61.313125 214.06025,68.060125 C207.31325,74.808125 207.31325,85.748125 214.06025,92.496125 C220.01225,98.447125 229.22325,99.146125 235.94425,94.599125 L235.17325,93.474125 Z" id="path-2"></path>
    </defs>
    <g id="thumbnails" stroke="none" stroke-width="1" fill="none" fill-rule="evenodd">
        <g id="Desktop" transform="translate(-1167.000000, -64.000000)">
            <g id="loading" transform="translate(1167.000000, 64.000000)">
                <g id="Group-4">
                    <g id="Group-3">
                        <g id="Group-2">
                            <g id="card-grid">
                                <g id="application-frame">
                                    <rect id="Rectangle" fill="#B6E3EB" fill-rule="evenodd" x="0" y="0" width="293" height="195"></rect>
                                    <rect id="Rectangle-Copy" fill="#16B9D4" fill-rule="evenodd" x="0" y="0" width="48.8333333" height="195"></rect>
                                    <rect id="Rectangle-Copy-2" fill="#0E94A6" fill-rule="evenodd" x="0" y="0" width="293" height="14.625"></rect>
                                    <g id="overlay-/-hidden"></g>
                                </g>
                                <g id="box-/-content" transform="translate(73.000000, 39.000000)" fill="#FFFFFF">
                                    <rect id="Rectangle" x="0" y="0" width="89" height="86"></rect>
                                </g>
                                <g id="Fill-22">
                                    <use fill="#F57C00" fill-rule="evenodd" xlink:href="#path-1"></use>
                                    <path stroke="#F57C00" stroke-width="1" d="M126.037358,94.160303 C119.616586,98.2213824 111.135645,97.3486266 105.671697,91.8846784 C99.2614345,85.4744163 99.2614345,75.0818338 105.671697,68.6715716 C112.081959,62.2613095 122.474541,62.2613095 128.884803,68.6715716 C132.651802,72.4385703 134.304173,77.7076459 133.488688,82.8540062 L133.847181,82.9199882 C134.683214,77.6547682 132.994647,72.2657113 129.142697,68.4146784 C122.590105,61.8620863 111.966667,61.861786 105.41383,68.4136522 C98.8620568,74.966396 98.8620568,85.589854 105.413774,92.1425419 C111.003193,97.7310225 119.68013,98.6200688 126.243197,94.4606513 L126.037358,94.160303 Z"></path>
                                </g>
                                <g id="box-/-content" transform="translate(182.000000, 39.000000)" fill="#FFFFFF">
                                    <rect id="Rectangle" x="0" y="0" width="89" height="86"></rect>
                                </g>
                                <g id="Fill-22" transform="translate(226.277616, 80.277245) scale(-1, -1) translate(-226.277616, -80.277245) ">
                                    <use fill="#F57C00" fill-rule="evenodd" xlink:href="#path-2"></use>
                                    <path stroke="#F57C00" stroke-width="1" d="M235.037358,94.160303 C228.616586,98.2213824 220.135645,97.3486266 214.671697,91.8846784 C208.261434,85.4744163 208.261434,75.0818338 214.671697,68.6715716 C221.081959,62.2613095 231.474541,62.2613095 237.884803,68.6715716 C241.651802,72.4385703 243.304173,77.7076459 242.488688,82.8540062 L242.847181,82.9199882 C243.683214,77.6547682 241.994647,72.2657113 238.142697,68.4146784 C231.590105,61.8620863 220.966667,61.861786 214.41383,68.4136522 C207.862057,74.966396 207.862057,85.589854 214.413774,92.1425419 C220.003193,97.7310225 228.68013,98.6200688 235.243197,94.4606513 L235.037358,94.160303 Z"></path>
                                </g>
                            </g>
                            <path d="" id="Path-2" stroke="#979797"></path>
                        </g>
                    </g>
                </g>
            </g>
        </g>
    </g>
</svg>