<?xml version="1.0" encoding="UTF-8"?>
<svg width="293px" height="196px" viewBox="0 0 293 196" version="1.1" xmlns="http://www.w3.org/2000/svg" xmlns:xlink="http://www.w3.org/1999/xlink">
    <!-- Generator: Sketch 48.2 (47327) - http://www.bohemiancoding.com/sketch -->
    <title>pills</title>
    <desc>Created with Sketch.</desc>
    <defs>
        <rect id="path-1" x="115" y="82" width="16" height="5" rx="2.5"></rect>
        <rect id="path-2" x="115" y="98" width="16" height="5" rx="2.5"></rect>
        <rect id="path-3" x="115" y="114" width="16" height="5" rx="2.5"></rect>
        <rect id="path-4" x="115" y="130" width="16" height="5" rx="2.5"></rect>
        <rect id="path-5" x="115" y="146" width="16" height="5" rx="2.5"></rect>
    </defs>
    <g id="Symbols" stroke="none" stroke-width="1" fill="none" fill-rule="evenodd">
        <g id="pills">
            <g id="Group-7">
                <g id="Group-6">
                    <g id="Group-5">
                        <g id="help-link">
                            <g id="Group-2">
                                <g id="Group-3">
                                    <g id="card-grid-copy">
                                        <g id="Group-8">
                                            <g id="application-frame">
                                                <rect id="Rectangle" fill="#B6E3EB" fill-rule="evenodd" x="0" y="0" width="293" height="195"></rect>
                                                <rect id="Rectangle-Copy" fill="#16B9D4" fill-rule="evenodd" x="0" y="0" width="48.8333333" height="195"></rect>
                                                <rect id="Rectangle-Copy-2" fill="#0E94A6" fill-rule="evenodd" x="0" y="0" width="293" height="14.625"></rect>
                                                <g id="overlay-/-hidden"></g>
                                            </g>
                                            <g id="box-/-content" transform="translate(47.000000, 15.000000)" fill="#FFFFFF">
                                                <rect id="Rectangle" x="0" y="0" width="174" height="180"></rect>
                                            </g>
                                            <rect id="Rectangle" fill="#F7F5F5" x="179" y="14.7564756" width="113.793505" height="180.368524"></rect>
                                            <rect id="Rectangle-3-Copy-11" fill="#E0E0E0" x="53" y="22" width="38" height="8"></rect>
                                            <rect id="Rectangle-3-Copy-28" fill="#E0E0E0" x="186" y="22" width="38" height="8"></rect>
                                            <rect id="Rectangle-3-Copy-13" fill="#E0E0E0" x="53" y="53" width="119" height="1"></rect>
                                            <path d="" id="Path-2" stroke="#979797"></path>
                                            <rect id="Rectangle-2" stroke="#E0E0E0" x="53.5" y="76.5" width="118" height="16"></rect>
                                            <rect id="Rectangle-2-Copy-2" stroke="#E0E0E0" x="53.5" y="108.5" width="118" height="16"></rect>
                                            <rect id="Rectangle-2-Copy" stroke="#E0E0E0" x="53.5" y="92.5" width="118" height="16"></rect>
                                            <rect id="Rectangle-2-Copy-3" stroke="#E0E0E0" x="53.5" y="124.5" width="118" height="16"></rect>
                                            <rect id="Rectangle-2-Copy-4" stroke="#E0E0E0" x="53.5" y="140.5" width="118" height="16"></rect>
                                            <g id="Rectangle-3-Copy-3">
                                                <use fill="#FFFFFF" fill-rule="evenodd" xlink:href="#path-1"></use>
                                                <rect stroke="#D8D8D8" stroke-width="1" x="115.5" y="82.5" width="15" height="4" rx="2"></rect>
                                            </g>
                                            <rect id="Rectangle-3-Copy-18" fill="#D8D8D8" x="187" y="34" width="16" height="5" rx="2.5"></rect>
                                            <rect id="Rectangle-3-Copy-19" stroke="#E0E0E0" x="207.5" y="34.5" width="24" height="4" rx="2"></rect>
                                            <rect id="Rectangle-3-Copy-13" fill="#E0E0E0" x="56" y="82" width="5" height="5"></rect>
                                            <rect id="Rectangle-3-Copy-23" fill="#E0E0E0" x="70" y="82" width="35" height="5"></rect>
                                            <g id="Rectangle-3-Copy-5">
                                                <use fill="#FFFFFF" fill-rule="evenodd" xlink:href="#path-2"></use>
                                                <rect stroke="#D8D8D8" stroke-width="1" x="115.5" y="98.5" width="15" height="4" rx="2"></rect>
                                            </g>
                                            <rect id="Rectangle-3-Copy-14" fill="#E0E0E0" x="56" y="98" width="5" height="5"></rect>
                                            <rect id="Rectangle-3-Copy-24" fill="#E0E0E0" x="70" y="98" width="35" height="5"></rect>
                                            <g id="Rectangle-3-Copy-7">
                                                <use fill="#FFFFFF" fill-rule="evenodd" xlink:href="#path-3"></use>
                                                <rect stroke="#D8D8D8" stroke-width="1" x="115.5" y="114.5" width="15" height="4" rx="2"></rect>
                                            </g>
                                            <rect id="Rectangle-3-Copy-15" fill="#E0E0E0" x="56" y="114" width="5" height="5"></rect>
                                            <rect id="Rectangle-3-Copy-25" fill="#E0E0E0" x="70" y="114" width="35" height="5"></rect>
                                            <g id="Rectangle-3-Copy-9">
                                                <use fill="#FFFFFF" fill-rule="evenodd" xlink:href="#path-4"></use>
                                                <rect stroke="#D8D8D8" stroke-width="1" x="115.5" y="130.5" width="15" height="4" rx="2"></rect>
                                            </g>
                                            <rect id="Rectangle-3-Copy-16" fill="#E0E0E0" x="56" y="130" width="5" height="5" rx="1"></rect>
                                            <rect id="Rectangle-3-Copy-26" fill="#E0E0E0" x="70" y="130" width="35" height="5"></rect>
                                            <g id="Rectangle-3-Copy-11">
                                                <use fill="#FFFFFF" fill-rule="evenodd" xlink:href="#path-5"></use>
                                                <rect stroke="#D8D8D8" stroke-width="1" x="115.5" y="146.5" width="15" height="4" rx="2"></rect>
                                            </g>
                                            <rect id="Rectangle-3-Copy-17" fill="#E0E0E0" x="56" y="146" width="5" height="5"></rect>
                                            <rect id="Rectangle-3-Copy-27" fill="#E0E0E0" x="70" y="146" width="35" height="5"></rect>
                                            <rect id="Rectangle-3-Copy-4" fill="#E0E0E0" x="139" y="82" width="23" height="5"></rect>
                                            <rect id="Rectangle-3-Copy-6" fill="#E0E0E0" x="139" y="98" width="23" height="5"></rect>
                                            <rect id="Rectangle-3-Copy-8" fill="#E0E0E0" x="139" y="114" width="23" height="5"></rect>
                                            <rect id="Rectangle-3-Copy-10" fill="#E0E0E0" x="139" y="130" width="23" height="5"></rect>
                                            <rect id="Rectangle-3-Copy-12" fill="#E0E0E0" x="139" y="146" width="23" height="5"></rect>
                                            <rect id="Rectangle-3" fill="#D8D8D8" x="187" y="55" width="59" height="7"></rect>
                                            <rect id="Rectangle-3-Copy-30" fill="#D8D8D8" x="187" y="121" width="59" height="7"></rect>
                                            <rect id="Rectangle-3-Copy-22" fill="#D8D8D8" x="187" y="88" width="38" height="7"></rect>
                                            <rect id="Rectangle-3-Copy-32" fill="#D8D8D8" x="187" y="154" width="38" height="7"></rect>
                                            <rect id="Rectangle-3-Copy-2" fill="#D8D8D8" x="187" y="68" width="30" height="7"></rect>
                                            <rect id="Rectangle-3-Copy-33" fill="#D8D8D8" x="187" y="134" width="30" height="7"></rect>
                                            <rect id="Rectangle-3-Copy-29" fill="#D8D8D8" x="187" y="101" width="30" height="7"></rect>
                                            <rect id="Rectangle-3-Copy-34" fill="#D8D8D8" x="187" y="167" width="30" height="7"></rect>
                                            <rect id="Rectangle-3-Copy-20" fill="#D8D8D8" x="221" y="68" width="36" height="7"></rect>
                                            <rect id="Rectangle-3-Copy-35" fill="#D8D8D8" x="221" y="134" width="36" height="7"></rect>
                                            <rect id="Rectangle-3-Copy" fill="#D8D8D8" x="249" y="55" width="32" height="7"></rect>
                                            <rect id="Rectangle-3-Copy-36" fill="#D8D8D8" x="249" y="121" width="32" height="7"></rect>
                                            <rect id="Rectangle-3-Copy-31" fill="#D8D8D8" x="228" y="88" width="53" height="7"></rect>
                                            <rect id="Rectangle-3-Copy-37" fill="#D8D8D8" x="228" y="154" width="53" height="7"></rect>
                                            <rect id="Rectangle-3-Copy-13" fill="#E0E0E0" x="187" y="48" width="97" height="1"></rect>
                                            <rect id="Rectangle-3-Copy-38" fill="#E0E0E0" x="187" y="114" width="97" height="1"></rect>
                                            <rect id="Rectangle-3-Copy-21" fill="#E0E0E0" x="187" y="81" width="97" height="1"></rect>
                                            <rect id="Rectangle-3-Copy-39" fill="#E0E0E0" x="187" y="147" width="97" height="1"></rect>
                                            <rect id="Rectangle" fill="#F57C00" x="54" y="63" width="24" height="7" rx="3.5"></rect>
                                            <path d="M73.7651167,66.5000234 L74.9450173,65.3201044 C75.0183276,65.246793 75.0183276,65.1282949 74.9450173,65.0549835 C74.8717071,64.9816722 74.7532108,64.9816722 74.6799006,65.0549835 L73.5,66.2349026 L72.3200994,65.0549835 C72.2467892,64.9816722 72.1282929,64.9816722 72.0549827,65.0549835 C71.9816724,65.1282949 71.9816724,65.246793 72.0549827,65.3201044 L73.2348833,66.5000234 L72.0549827,67.6799425 C71.9816724,67.7532539 71.9816724,67.871752 72.0549827,67.9450634 C72.091544,67.9816253 72.1395425,68 72.187541,68 C72.2355395,68 72.283538,67.9816253 72.3200994,67.9450634 L73.5,66.7651443 L74.6799006,67.9450634 C74.716462,67.9816253 74.7644605,68 74.812459,68 C74.8604575,68 74.908456,67.9816253 74.9450173,67.9450634 C75.0183276,67.871752 75.0183276,67.7532539 74.9450173,67.6799425 L73.7651167,66.5000234 Z" id="Fill-1" fill="#FFF0E0"></path>
                                            <rect id="Rectangle-4" fill="#FFFFFF" x="58" y="65" width="11" height="2"></rect>
                                            <rect id="Rectangle-Copy" fill="#F57C00" x="80" y="63" width="33" height="7" rx="3.5"></rect>
                                            <path d="M108.765117,66.5000234 L109.945017,65.3201044 C110.018328,65.246793 110.018328,65.1282949 109.945017,65.0549835 C109.871707,64.9816722 109.753211,64.9816722 109.679901,65.0549835 L108.5,66.2349026 L107.320099,65.0549835 C107.246789,64.9816722 107.128293,64.9816722 107.054983,65.0549835 C106.981672,65.1282949 106.981672,65.246793 107.054983,65.3201044 L108.234883,66.5000234 L107.054983,67.6799425 C106.981672,67.7532539 106.981672,67.871752 107.054983,67.9450634 C107.091544,67.9816253 107.139543,68 107.187541,68 C107.23554,68 107.283538,67.9816253 107.320099,67.9450634 L108.5,66.7651443 L109.679901,67.9450634 C109.716462,67.9816253 109.76446,68 109.812459,68 C109.860457,68 109.908456,67.9816253 109.945017,67.9450634 C110.018328,67.871752 110.018328,67.7532539 109.945017,67.6799425 L108.765117,66.5000234 Z" id="Fill-1-Copy" fill="#FFF0E0"></path>
                                            <rect id="Rectangle-4-Copy" fill="#FFFFFF" x="84" y="65" width="21" height="2"></rect>
                                            <rect id="Rectangle-Copy-2" fill="#F57C00" x="115" y="63" width="31" height="7" rx="3.5"></rect>
                                            <path d="M141.765117,66.5000234 L142.945017,65.3201044 C143.018328,65.246793 143.018328,65.1282949 142.945017,65.0549835 C142.871707,64.9816722 142.753211,64.9816722 142.679901,65.0549835 L141.5,66.2349026 L140.320099,65.0549835 C140.246789,64.9816722 140.128293,64.9816722 140.054983,65.0549835 C139.981672,65.1282949 139.981672,65.246793 140.054983,65.3201044 L141.234883,66.5000234 L140.054983,67.6799425 C139.981672,67.7532539 139.981672,67.871752 140.054983,67.9450634 C140.091544,67.9816253 140.139543,68 140.187541,68 C140.23554,68 140.283538,67.9816253 140.320099,67.9450634 L141.5,66.7651443 L142.679901,67.9450634 C142.716462,67.9816253 142.76446,68 142.812459,68 C142.860457,68 142.908456,67.9816253 142.945017,67.9450634 C143.018328,67.871752 143.018328,67.7532539 142.945017,67.6799425 L141.765117,66.5000234 Z" id="Fill-1-Copy-2" fill="#FFF0E0"></path>
                                            <rect id="Rectangle-4-Copy-2" fill="#FFFFFF" x="119" y="65" width="18" height="2"></rect>
                                        </g>
                                    </g>
                                    <g id="box-/-white-copy" transform="translate(179.000000, 14.000000)"></g>
                                </g>
                            </g>
                        </g>
                    </g>
                </g>
                <g id="Group-4" transform="translate(53.000000, 34.000000)"></g>
            </g>
        </g>
    </g>
</svg>