<?xml version="1.0" encoding="UTF-8" standalone="no"?>
<svg width="293px" height="195px" viewBox="0 0 293 195" version="1.1" xmlns="http://www.w3.org/2000/svg" xmlns:xlink="http://www.w3.org/1999/xlink">
    <!-- Generator: Sketch 46.2 (44496) - http://www.bohemiancoding.com/sketch -->
    <title>Popover</title>
    <desc>Created with Sketch.</desc>
    <defs></defs>
    <g id="thumbnails" stroke="none" stroke-width="1" fill="none" fill-rule="evenodd">
        <g id="Desktop" transform="translate(-446.000000, -841.000000)">
            <g id="Popover" transform="translate(446.000000, 841.000000)">
                <g id="Group-3">
                    <g id="card-grid-copy">
                        <g id="application-frame">
                            <rect id="Rectangle" fill="#B6E3EB" fill-rule="evenodd" x="0" y="0" width="293" height="195"></rect>
                            <rect id="Rectangle-Copy" fill="#16B9D4" fill-rule="evenodd" x="0" y="0" width="48.8333333" height="195"></rect>
                            <rect id="Rectangle-Copy-2" fill="#0E94A6" fill-rule="evenodd" x="0" y="0" width="293" height="14.625"></rect>
                            <g id="overlay-/-hidden"></g>
                        </g>
                    </g>
                    <g id="box-/-content" transform="translate(86.000000, 85.000000)" fill="#FFFFFF">
                        <rect id="Rectangle" x="0" y="0" width="119" height="67"></rect>
                    </g>
                    <g id="pill-/-highlight" transform="translate(95.000000, 136.000000)" fill="#F57C00">
                        <rect id="Rectangle" x="0" y="0" width="36" height="10" rx="2"></rect>
                    </g>
                    <g id="pill-/-highlight" transform="translate(134.000000, 136.000000)" stroke="#F57C00">
                        <rect id="Rectangle" x="0.5" y="0.5" width="35" height="9" rx="2"></rect>
                    </g>
                    <g id="pill-/-highlight" transform="translate(95.000000, 136.000000)" fill="#F57C00">
                        <rect id="Rectangle" x="0" y="0" width="36" height="10" rx="2"></rect>
                    </g>
                    <g id="pill-/-highlight" transform="translate(134.000000, 136.000000)" stroke="#F57C00">
                        <rect id="Rectangle" x="0.5" y="0.5" width="35" height="9" rx="2"></rect>
                    </g>
                    <g id="Group-2" transform="translate(85.000000, 69.000000)">
                        <path d="M9.812625,5.6875 L9.812625,3.8125 L8.750125,3.8125 C8.625125,3.375 8.437625,2.9375 8.187625,2.5625 L8.875125,1.875 L7.937625,0.9375 L7.187625,1.625 C6.812625,1.375 6.437625,1.1875 5.937625,1.0625 L5.937625,0 L4.062625,0 L4.062625,1.0625 C3.625125,1.1875 3.187625,1.375 2.812625,1.625 L2.125125,0.9375 L1.250125,1.875 L1.937625,2.5625 C1.687625,2.9375 1.500125,3.3125 1.375125,3.8125 L0.312625,3.8125 L0.312625,5.6875 L1.375125,5.6875 C1.500125,6.125 1.687625,6.5625 1.937625,6.9375 L1.250125,7.5625 L2.187625,8.5 L2.875125,7.8125 C3.250125,8.0625 3.625125,8.25 4.125125,8.375 L4.125125,9.4375 L6.000125,9.4375 L6.000125,8.375 C6.437625,8.25 6.875125,8.0625 7.250125,7.8125 L7.937625,8.5 L8.875125,7.5625 L8.187625,6.875 C8.437625,6.5 8.625125,6.125 8.750125,5.625 L9.812625,5.625 L9.812625,5.6875 Z" id="Fill-11" fill="#587579"></path>
                        <path d="M6.8124375,4.75 C6.8124375,3.6875 5.9999375,2.875 5.0624375,2.875 C4.0624375,2.875 3.3124375,3.75 3.3124375,4.75 C3.3124375,5.8125 4.1249375,6.625 5.0624375,6.625 C5.9999375,6.625 6.8124375,5.75 6.8124375,4.75 M6.8124375,4.75 C6.8124375,3.6875 5.9999375,2.875 5.0624375,2.875 C4.0624375,2.875 3.3124375,3.75 3.3124375,4.75 C3.3124375,5.8125 4.1249375,6.625 5.0624375,6.625 C5.9999375,6.625 6.8124375,5.75 6.8124375,4.75 M6.8124375,4.75 C6.8124375,3.6875 5.9999375,2.875 5.0624375,2.875 C4.0624375,2.875 3.3124375,3.75 3.3124375,4.75 C3.3124375,5.8125 4.1249375,6.625 5.0624375,6.625 C5.9999375,6.625 6.8124375,5.75 6.8124375,4.75" id="Fill-45" fill="#B6E3EB"></path>
                    </g>
                </g>
            </g>
        </g>
    </g>
</svg>