<?xml version="1.0" encoding="UTF-8"?>
<svg width="293px" height="196px" viewBox="0 0 293 196" version="1.1" xmlns="http://www.w3.org/2000/svg" xmlns:xlink="http://www.w3.org/1999/xlink">
    <!-- Generator: Sketch 49.3 (51167) - http://www.bohemiancoding.com/sketch -->
    <title>progress-bar</title>
    <desc>Created with Sketch.</desc>
    <defs></defs>
    <g id="progress-bar" stroke="none" stroke-width="1" fill="none" fill-rule="evenodd">
        <g id="Progress-bar">
            <g id="key-value-copy">
                <g id="Group-5">
                    <g id="Group-4">
                        <g id="Group-3">
                            <g id="Group-2">
                                <g id="application-frame">
                                    <rect id="Rectangle" fill="#B6E3EB" fill-rule="evenodd" x="0" y="0" width="293" height="195"></rect>
                                    <rect id="Rectangle-Copy" fill="#16B9D4" fill-rule="evenodd" x="0" y="0" width="48.8333333" height="195"></rect>
                                    <rect id="Rectangle-Copy-2" fill="#0E94A6" fill-rule="evenodd" x="0" y="0" width="293" height="14.625"></rect>
                                    <g id="overlay-/-hidden"></g>
                                </g>
                                <g id="box-/-content" transform="translate(64.000000, 44.000000)" fill="#FFFFFF">
                                    <rect id="Rectangle" x="0" y="0" width="215" height="151"></rect>
                                </g>
                            </g>
                        </g>
                        <rect id="Rectangle-3-Copy-11" fill="#E0E0E0" x="76" y="53" width="63" height="8"></rect>
                        <rect id="Rectangle-3-Copy-22" fill="#E0E0E0" x="89" y="146" width="63" height="6" rx="3"></rect>
                        <rect id="Rectangle-3-Copy-22" fill="#F57C00" x="89" y="146" width="36" height="6" rx="3"></rect>
                        <rect id="Rectangle-3-Copy-13" fill="#E0E0E0" x="89" y="75" width="63" height="2"></rect>
                        <rect id="Rectangle-3-Copy-17" fill="#E0E0E0" x="156" y="75" width="23" height="2"></rect>
                        <rect id="Rectangle-3-Copy-14" fill="#E0E0E0" x="89" y="91" width="38" height="2"></rect>
                        <rect id="Rectangle-3-Copy-20" fill="#E0E0E0" x="89" y="137" width="17" height="4"></rect>
                        <rect id="Rectangle-3-Copy-16" fill="#E0E0E0" x="131" y="91" width="38" height="2"></rect>
                        <rect id="Rectangle-3-Copy-21" stroke="#E0E0E0" x="110.5" y="137.5" width="16" height="3"></rect>
                        <rect id="Rectangle-3-Copy-12" fill="#E0E0E0" x="76" y="72" width="8" height="8" rx="4"></rect>
                        <rect id="Rectangle-3-Copy-15" fill="#E0E0E0" x="76" y="88" width="8" height="8" rx="4"></rect>
                    </g>
                </g>
            </g>
            <rect id="Rectangle-3-Copy" stroke="#E0E0E0" x="89.5" y="102.5" width="19" height="13"></rect>
            <rect id="Rectangle-3-Copy-2" stroke="#E0E0E0" x="135.5" y="102.5" width="19" height="13"></rect>
            <rect id="Rectangle-3-Copy-7" stroke="#E0E0E0" x="112.5" y="102.5" width="19" height="13"></rect>
            <rect id="Rectangle-3-Copy-8" stroke="#E0E0E0" x="158.5" y="102.5" width="19" height="13"></rect>
            <rect id="Rectangle-3-Copy-10" stroke="#E0E0E0" x="89.5" y="119.5" width="19" height="13"></rect>
            <rect id="Rectangle-3-Copy-18" stroke="#E0E0E0" x="135.5" y="119.5" width="19" height="13"></rect>
            <rect id="Rectangle-3-Copy-11" stroke="#E0E0E0" x="112.5" y="119.5" width="19" height="13"></rect>
            <rect id="Rectangle-3-Copy-19" stroke="#E0E0E0" x="158.5" y="119.5" width="19" height="13"></rect>
        </g>
    </g>
</svg>