<?xml version="1.0" encoding="UTF-8" standalone="no"?>
<svg width="293px" height="195px" viewBox="0 0 293 195" version="1.1" xmlns="http://www.w3.org/2000/svg" xmlns:xlink="http://www.w3.org/1999/xlink">
    <!-- Generator: Sketch 46.2 (44496) - http://www.bohemiancoding.com/sketch -->
    <title>radio-buttons</title>
    <desc>Created with Sketch.</desc>
    <defs>
        <path d="M12,26 C12,29.3428571 9.34285714,32 6,32 C2.65714286,32 0,29.3428571 0,26 C0,22.6571429 2.65714286,20 6,20 C9.34285714,20 12,22.6571429 12,26 Z" id="path-1"></path>
        <path d="M12,46 C12,49.3428571 9.34285714,52 6,52 C2.65714286,52 0,49.3428571 0,46 C0,42.6571429 2.65714286,40 6,40 C9.34285714,40 12,42.6571429 12,46 Z" id="path-2"></path>
        <path d="M12,6 C12,9.34285714 9.34285714,12 6,12 C2.65714286,12 0,9.34285714 0,6 C0,2.65714286 2.65714286,-7.26529947e-13 6,-7.26529947e-13 C9.34285714,-7.26529947e-13 12,2.65714286 12,6 Z" id="path-3"></path>
    </defs>
    <g id="thumbnails" stroke="none" stroke-width="1" fill="none" fill-rule="evenodd">
        <g id="Desktop" transform="translate(-1566.000000, -64.000000)">
            <g id="radio-buttons" transform="translate(1566.000000, 64.000000)">
                <g id="Group-2">
                    <g id="application-frame">
                        <rect id="Rectangle" fill="#B6E3EB" fill-rule="evenodd" x="0" y="0" width="293" height="195"></rect>
                        <rect id="Rectangle-Copy" fill="#16B9D4" fill-rule="evenodd" x="0" y="0" width="48.8333333" height="195"></rect>
                        <rect id="Rectangle-Copy-2" fill="#0E94A6" fill-rule="evenodd" x="0" y="0" width="293" height="14.625"></rect>
                        <g id="overlay-/-hidden"></g>
                    </g>
                    <g id="box-/-content" transform="translate(73.000000, 39.000000)" fill="#FFFFFF">
                        <rect id="Rectangle" x="0" y="0" width="204" height="156"></rect>
                    </g>
                    <g id="Group-4" transform="translate(84.000000, 80.000000)">
                        <g id="Shape-Copy-10" fill-rule="nonzero">
                            <use fill="#FFFFFF" fill-rule="evenodd" xlink:href="#path-1"></use>
                            <path stroke="#F57C00" stroke-width="1" d="M11.5,26 C11.5,22.9332852 9.06671477,20.5 6,20.5 C2.93328523,20.5 0.5,22.9332852 0.5,26 C0.5,29.0667148 2.93328523,31.5 6,31.5 C9.06671477,31.5 11.5,29.0667148 11.5,26 Z"></path>
                        </g>
                        <g id="Shape-Copy-11" fill-rule="nonzero">
                            <use fill="#FFFFFF" fill-rule="evenodd" xlink:href="#path-2"></use>
                            <path stroke="#F57C00" stroke-width="1" d="M11.5,46 C11.5,42.9332852 9.06671477,40.5 6,40.5 C2.93328523,40.5 0.5,42.9332852 0.5,46 C0.5,49.0667148 2.93328523,51.5 6,51.5 C9.06671477,51.5 11.5,49.0667148 11.5,46 Z"></path>
                        </g>
                        <circle id="Oval-Copy" fill="#F57C00" cx="6" cy="26" r="3"></circle>
                        <circle id="Oval-Copy-2" fill="#F57C00" cx="6" cy="46" r="3"></circle>
                        <g id="Shape-Copy-7" fill-rule="nonzero">
                            <use fill="#FFFFFF" fill-rule="evenodd" xlink:href="#path-3"></use>
                            <path stroke="#F57C00" stroke-width="1" d="M11.5,6 C11.5,2.93328523 9.06671477,0.5 6,0.5 C2.93328523,0.5 0.5,2.93328523 0.5,6 C0.5,9.06671477 2.93328523,11.5 6,11.5 C9.06671477,11.5 11.5,9.06671477 11.5,6 Z"></path>
                        </g>
                        <rect id="Rectangle-3-Copy-7" fill="#E0E0E0" x="16" y="22" width="51" height="8" rx="4"></rect>
                        <rect id="Rectangle-3-Copy-9" fill="#E0E0E0" x="16" y="42" width="51" height="8" rx="4"></rect>
                        <rect id="Rectangle-3-Copy-8" fill="#E0E0E0" x="16" y="2" width="51" height="8" rx="4"></rect>
                    </g>
                    <rect id="Rectangle-2" fill="#D8D8D8" x="83" y="50" width="92" height="14"></rect>
                </g>
            </g>
        </g>
    </g>
</svg>