<?xml version="1.0" encoding="UTF-8" standalone="no"?>
<svg width="294px" height="196px" viewBox="0 0 294 196" version="1.1" xmlns="http://www.w3.org/2000/svg" xmlns:xlink="http://www.w3.org/1999/xlink">
    <!-- Generator: Sketch 47.1 (45422) - http://www.bohemiancoding.com/sketch -->
    <title>search</title>
    <desc>Created with Sketch.</desc>
    <defs></defs>
    <g id="thumbnails" stroke="none" stroke-width="1" fill="none" fill-rule="evenodd">
        <g id="Family-Images-Helix" transform="translate(-2304.000000, -699.000000)">
            <g id="search" transform="translate(2304.000000, 699.000000)">
                <g id="Group-5">
                    <g id="help-link">
                        <g id="Group-2">
                            <g id="Group-3">
                                <g id="card-grid-copy">
                                    <g id="application-frame">
                                        <rect id="Rectangle" fill="#B6E3EB" fill-rule="evenodd" x="0" y="0" width="293" height="195"></rect>
                                        <rect id="Rectangle-Copy" fill="#16B9D4" fill-rule="evenodd" x="0" y="0" width="48.8333333" height="195"></rect>
                                        <rect id="Rectangle-Copy-2" fill="#0E94A6" fill-rule="evenodd" x="0" y="0" width="293" height="14.625"></rect>
                                        <g id="overlay-/-hidden"></g>
                                    </g>
                                </g>
                                <g id="box-/-content" transform="translate(63.000000, 37.000000)" fill="#FFFFFF">
                                    <rect id="Rectangle" x="0" y="0" width="164" height="158"></rect>
                                </g>
                                <g id="box-/-white-copy" transform="translate(226.500000, 37.000000)" fill="#F1EFEF">
                                    <rect id="Rectangle" x="0" y="0" width="67" height="158.125"></rect>
                                </g>
                            </g>
                        </g>
                    </g>
                    <rect id="Rectangle-5" fill="#F57C00" x="174" y="57" width="45" height="7" rx="1"></rect>
                    <path d="M181,62.5625 L179.575949,61.15625 C179.829114,60.8125 179.987342,60.40625 179.987342,59.96875 C179.987342,58.875 179.06962,58 177.993671,58 C176.886076,58 176,58.875 176,59.96875 C176,61.0625 176.886076,61.9375 177.993671,61.9375 C178.405063,61.9375 178.816456,61.8125 179.132911,61.59375 L180.556962,63 L181,62.5625 Z M176.632911,59.96875 C176.632911,59.21875 177.234177,58.625 177.993671,58.625 C178.753165,58.625 179.35443,59.21875 179.35443,59.96875 C179.35443,60.71875 178.753165,61.3125 177.993671,61.3125 C177.234177,61.3125 176.632911,60.71875 176.632911,59.96875 Z" id="Shape" fill="#FFFFFF" fill-rule="nonzero"></path>
                    <g id="Group-4" transform="translate(73.000000, 68.000000)">
                        <g id="Group-3">
                            <g id="Group-2" transform="translate(2.531792, 87.000000)" stroke="#979797">
                                <path d="" id="Path-2"></path>
                            </g>
                            <rect id="Rectangle-2" stroke="#E0E0E0" x="0.5" y="10.5" width="145" height="16"></rect>
                            <rect id="Rectangle-2-Copy-2" stroke="#E0E0E0" x="0.5" y="42.5" width="145" height="16"></rect>
                            <rect id="Rectangle-2-Copy" stroke="#E0E0E0" x="0.5" y="26.5" width="145" height="16"></rect>
                            <rect id="Rectangle-2-Copy-3" stroke="#E0E0E0" x="0.5" y="58.5" width="145" height="16"></rect>
                            <rect id="Rectangle-2-Copy-4" stroke="#E0E0E0" x="0.5" y="74.5" width="145" height="16"></rect>
                            <rect id="Rectangle-3" fill="#E0E0E0" x="21.0982659" y="0" width="24.4739884" height="5"></rect>
                            <rect id="Rectangle-3-Copy" fill="#E0E0E0" x="63.2947977" y="0" width="19.4104046" height="5"></rect>
                            <rect id="Rectangle-3-Copy-3" fill="#E0E0E0" x="63.2947977" y="16" width="19.4104046" height="5" rx="2.5"></rect>
                            <rect id="Rectangle-3-Copy-13" fill="#E0E0E0" x="4.21965318" y="16" width="4.21965318" height="5" rx="1"></rect>
                            <rect id="Rectangle-3-Copy-18" fill="#E0E0E0" x="12.6589595" y="16" width="4.21965318" height="5" rx="2.10982659"></rect>
                            <rect id="Rectangle-3-Copy-23" fill="#E0E0E0" x="21.0982659" y="16" width="24.4739884" height="5" rx="2.5"></rect>
                            <rect id="Rectangle-3-Copy-5" fill="#E0E0E0" x="63.2947977" y="32" width="19.4104046" height="5" rx="2.5"></rect>
                            <rect id="Rectangle-3-Copy-14" fill="#E0E0E0" x="4.21965318" y="32" width="4.21965318" height="5" rx="1"></rect>
                            <rect id="Rectangle-3-Copy-19" fill="#E0E0E0" x="12.6589595" y="32" width="4.21965318" height="5" rx="2.10982659"></rect>
                            <rect id="Rectangle-3-Copy-24" fill="#E0E0E0" x="21.0982659" y="32" width="24.4739884" height="5" rx="2.5"></rect>
                            <rect id="Rectangle-3-Copy-7" fill="#E0E0E0" x="63.2947977" y="48" width="19.4104046" height="5" rx="2.5"></rect>
                            <rect id="Rectangle-3-Copy-15" fill="#E0E0E0" x="4.21965318" y="48" width="4.21965318" height="5" rx="1"></rect>
                            <rect id="Rectangle-3-Copy-20" fill="#E0E0E0" x="12.6589595" y="48" width="4.21965318" height="5" rx="2.10982659"></rect>
                            <rect id="Rectangle-3-Copy-25" fill="#E0E0E0" x="21.0982659" y="48" width="24.4739884" height="5" rx="2.5"></rect>
                            <rect id="Rectangle-3-Copy-9" fill="#E0E0E0" x="63.2947977" y="64" width="19.4104046" height="5" rx="2.5"></rect>
                            <rect id="Rectangle-3-Copy-16" fill="#E0E0E0" x="4.21965318" y="64" width="4.21965318" height="5" rx="1"></rect>
                            <rect id="Rectangle-3-Copy-21" fill="#E0E0E0" x="12.6589595" y="64" width="4.21965318" height="5" rx="2.10982659"></rect>
                            <rect id="Rectangle-3-Copy-26" fill="#E0E0E0" x="21.0982659" y="64" width="24.4739884" height="5" rx="2.5"></rect>
                            <rect id="Rectangle-3-Copy-11" fill="#E0E0E0" x="63.2947977" y="80" width="19.4104046" height="5" rx="2.5"></rect>
                            <rect id="Rectangle-3-Copy-17" fill="#E0E0E0" x="4.21965318" y="80" width="4.21965318" height="5" rx="1"></rect>
                            <rect id="Rectangle-3-Copy-22" fill="#E0E0E0" x="12.6589595" y="80" width="4.21965318" height="5" rx="2.10982659"></rect>
                            <rect id="Rectangle-3-Copy-27" fill="#E0E0E0" x="21.0982659" y="80" width="24.4739884" height="5" rx="2.5"></rect>
                            <rect id="Rectangle-3-Copy-2" fill="#E0E0E0" x="105.491329" y="0" width="28.6936416" height="5"></rect>
                            <rect id="Rectangle-3-Copy-4" fill="#E0E0E0" x="105.491329" y="16" width="28.6936416" height="5" rx="2.5"></rect>
                            <rect id="Rectangle-3-Copy-6" fill="#E0E0E0" x="105.491329" y="32" width="28.6936416" height="5" rx="2.5"></rect>
                            <rect id="Rectangle-3-Copy-8" fill="#E0E0E0" x="105.491329" y="48" width="28.6936416" height="5" rx="2.5"></rect>
                            <rect id="Rectangle-3-Copy-10" fill="#E0E0E0" x="105.491329" y="64" width="28.6936416" height="5" rx="2.5"></rect>
                            <rect id="Rectangle-3-Copy-12" fill="#E0E0E0" x="105.491329" y="80" width="28.6936416" height="5" rx="2.5"></rect>
                        </g>
                    </g>
                </g>
            </g>
        </g>
    </g>
</svg>