<?xml version="1.0" encoding="UTF-8"?>
<svg width="293px" height="196px" viewBox="0 0 293 196" version="1.1" xmlns="http://www.w3.org/2000/svg" xmlns:xlink="http://www.w3.org/1999/xlink">
    <!-- Generator: Sketch 49 (51002) - http://www.bohemiancoding.com/sketch -->
    <title>select-filter</title>
    <desc>Created with Sketch.</desc>
    <defs></defs>
    <g id="thumbnails" stroke="none" stroke-width="1" fill="none" fill-rule="evenodd">
        <g id="Family-Images-Helix" transform="translate(-3057.000000, -1213.000000)">
            <g id="select-filter" transform="translate(3057.000000, 1213.000000)">
                <g id="application-frame">
                    <rect id="Rectangle" fill="#B6E3EB" fill-rule="evenodd" x="0" y="0" width="293" height="195"></rect>
                    <rect id="Rectangle-Copy" fill="#16B9D4" fill-rule="evenodd" x="0" y="0" width="48.8333333" height="195"></rect>
                    <rect id="Rectangle-Copy-2" fill="#0E94A6" fill-rule="evenodd" x="0" y="0" width="293" height="14.625"></rect>
                    <g id="overlay-/-hidden"></g>
                </g>
                <rect id="Rectangle" fill="#FAFAFA" fill-rule="evenodd" x="48" y="15" width="245" height="180.369995"></rect>
                <path d="" id="Path-2" stroke="#979797" stroke-width="1"></path>
                <rect id="Rectangle-2" stroke="#E0E0E0" stroke-width="1" x="64.5" y="60.5" width="215" height="18"></rect>
                <rect id="Rectangle-2-Copy-5" stroke="#E0E0E0" stroke-width="1" x="64.5" y="43.5" width="215" height="18"></rect>
                <rect id="Rectangle-2-Copy-2" stroke="#E0E0E0" stroke-width="1" x="64.5" y="95.5" width="215" height="18"></rect>
                <rect id="Rectangle-2-Copy" stroke="#E0E0E0" stroke-width="1" x="64.5" y="78.5" width="215" height="18"></rect>
                <rect id="Rectangle-2-Copy-3" stroke="#E0E0E0" stroke-width="1" x="64.5" y="113.5" width="215" height="18"></rect>
                <rect id="Rectangle-2-Copy-4" stroke="#E0E0E0" stroke-width="1" x="64.5" y="130.5" width="215" height="18"></rect>
                <rect id="Rectangle-3" fill="#E0E0E0" fill-rule="evenodd" x="95" y="49" width="36" height="5"></rect>
                <rect id="Rectangle-3-Copy-29" fill="#E0E0E0" fill-rule="evenodd" x="69" y="34" width="31" height="5"></rect>
                <rect id="Rectangle-3-Copy" fill="#E0E0E0" fill-rule="evenodd" x="157" y="49" width="29" height="5"></rect>
                <rect id="Rectangle-3-Copy-30" stroke="#E0E0E0" stroke-width="1" x="105.5" y="34.5" width="30" height="4"></rect>
                <rect id="Rectangle-3-Copy-31" stroke="#F57C00" stroke-width="1" x="210.5" y="34.5" width="30" height="4"></rect>
                <rect id="Rectangle-3-Copy-33" stroke="#E0E0E0" stroke-width="1" x="249.5" y="34.5" width="30" height="4"></rect>
                <rect id="Rectangle-3-Copy-3" fill="#E0E0E0" fill-rule="evenodd" x="157" y="67" width="29" height="5" rx="2.5"></rect>
                <rect id="Rectangle-3-Copy-13" fill="#E0E0E0" fill-rule="evenodd" x="70" y="67" width="6" height="5" rx="1"></rect>
                <rect id="Rectangle-3-Copy-28" fill="#E0E0E0" fill-rule="evenodd" x="70" y="49" width="6" height="5" rx="1"></rect>
                <rect id="Rectangle-3-Copy-18" fill="#E0E0E0" fill-rule="evenodd" x="82" y="67" width="6" height="5" rx="2.5"></rect>
                <rect id="Rectangle-3-Copy-32" fill="#E0E0E0" fill-rule="evenodd" x="82" y="49" width="6" height="5" rx="2.5"></rect>
                <rect id="Rectangle-3-Copy-23" fill="#E0E0E0" fill-rule="evenodd" x="95" y="67" width="36" height="5" rx="2.5"></rect>
                <rect id="Rectangle-3-Copy-5" fill="#E0E0E0" fill-rule="evenodd" x="157" y="84" width="29" height="5" rx="2.5"></rect>
                <rect id="Rectangle-3-Copy-14" fill="#E0E0E0" fill-rule="evenodd" x="70" y="84" width="6" height="5" rx="1"></rect>
                <rect id="Rectangle-3-Copy-19" fill="#E0E0E0" fill-rule="evenodd" x="82" y="84" width="6" height="5" rx="2.5"></rect>
                <rect id="Rectangle-3-Copy-24" fill="#E0E0E0" fill-rule="evenodd" x="95" y="84" width="36" height="5" rx="2.5"></rect>
                <rect id="Rectangle-3-Copy-7" fill="#E0E0E0" fill-rule="evenodd" x="157" y="102" width="29" height="5" rx="2.5"></rect>
                <rect id="Rectangle-3-Copy-15" fill="#E0E0E0" fill-rule="evenodd" x="70" y="102" width="6" height="5" rx="1"></rect>
                <rect id="Rectangle-3-Copy-20" fill="#E0E0E0" fill-rule="evenodd" x="82" y="102" width="6" height="5" rx="2.5"></rect>
                <rect id="Rectangle-3-Copy-25" fill="#E0E0E0" fill-rule="evenodd" x="95" y="102" width="36" height="5" rx="2.5"></rect>
                <rect id="Rectangle-3-Copy-9" fill="#E0E0E0" fill-rule="evenodd" x="157" y="119" width="29" height="5" rx="2.5"></rect>
                <rect id="Rectangle-3-Copy-16" fill="#E0E0E0" fill-rule="evenodd" x="70" y="119" width="6" height="5" rx="1"></rect>
                <rect id="Rectangle-3-Copy-21" fill="#E0E0E0" fill-rule="evenodd" x="82" y="119" width="6" height="5" rx="2.5"></rect>
                <rect id="Rectangle-3-Copy-26" fill="#E0E0E0" fill-rule="evenodd" x="95" y="119" width="36" height="5" rx="2.5"></rect>
                <rect id="Rectangle-3-Copy-11" fill="#E0E0E0" fill-rule="evenodd" x="157" y="137" width="29" height="5" rx="2.5"></rect>
                <rect id="Rectangle-3-Copy-17" fill="#E0E0E0" fill-rule="evenodd" x="70" y="137" width="6" height="5" rx="1"></rect>
                <rect id="Rectangle-3-Copy-22" fill="#E0E0E0" fill-rule="evenodd" x="82" y="137" width="6" height="5" rx="2.5"></rect>
                <rect id="Rectangle-3-Copy-27" fill="#E0E0E0" fill-rule="evenodd" x="95" y="137" width="36" height="5" rx="2.5"></rect>
                <rect id="Rectangle-3-Copy-2" fill="#E0E0E0" fill-rule="evenodd" x="220" y="49" width="43" height="5"></rect>
                <rect id="Rectangle-3-Copy-4" fill="#E0E0E0" fill-rule="evenodd" x="220" y="67" width="43" height="5" rx="2.5"></rect>
                <rect id="Rectangle-3-Copy-6" fill="#E0E0E0" fill-rule="evenodd" x="220" y="84" width="43" height="5" rx="2.5"></rect>
                <rect id="Rectangle-3-Copy-8" fill="#E0E0E0" fill-rule="evenodd" x="220" y="102" width="43" height="5" rx="2.5"></rect>
                <rect id="Rectangle-3-Copy-10" fill="#E0E0E0" fill-rule="evenodd" x="220" y="119" width="43" height="5" rx="2.5"></rect>
                <rect id="Rectangle-3-Copy-12" fill="#E0E0E0" fill-rule="evenodd" x="220" y="137" width="43" height="5" rx="2.5"></rect>
                <g id="box-/-content" transform="translate(81.000000, 45.000000)" fill="#FFFFFF" fill-rule="evenodd">
                    <rect id="Rectangle" x="0" y="0" width="170" height="67"></rect>
                </g>
                <rect id="Rectangle" fill="#D8D8D8" fill-rule="evenodd" x="90" y="96" width="36" height="10" rx="2"></rect>
                <rect id="Rectangle" stroke="#D8D8D8" stroke-width="1" x="129.5" y="96.5" width="35" height="9" rx="2"></rect>
                <rect id="Rectangle" stroke="#F57C00" stroke-width="1" x="90.5" y="52.5" width="9" height="9" rx="2"></rect>
                <rect id="Rectangle-Copy-3" stroke="#D8D8D8" stroke-width="1" x="90.5" y="66.5" width="9" height="9" rx="2"></rect>
                <rect id="Rectangle-Copy-4" stroke="#D8D8D8" stroke-width="1" x="90.5" y="79.5" width="9" height="9" rx="2"></rect>
                <rect id="Rectangle-2-Copy-2" fill="#F57C00" fill-rule="evenodd" x="109" y="54" width="50" height="6"></rect>
                <rect id="Rectangle-2-Copy-6" fill="#D8D8D8" fill-rule="evenodd" x="109" y="68" width="50" height="6"></rect>
                <rect id="Rectangle-2-Copy-7" fill="#D8D8D8" fill-rule="evenodd" x="109" y="81" width="50" height="6"></rect>
                <rect id="Rectangle-Copy-5" stroke="#D8D8D8" stroke-width="1" x="170.5" y="52.5" width="9" height="9" rx="2"></rect>
                <rect id="Rectangle-Copy-6" stroke="#D8D8D8" stroke-width="1" x="170.5" y="65.5" width="9" height="9" rx="2"></rect>
                <rect id="Rectangle-2-Copy-8" fill="#D8D8D8" fill-rule="evenodd" x="189" y="54" width="50" height="6"></rect>
                <rect id="Rectangle-2-Copy-9" fill="#D8D8D8" fill-rule="evenodd" x="189" y="67" width="50" height="6"></rect>
            </g>
        </g>
    </g>
</svg>