<?xml version="1.0" encoding="UTF-8" standalone="no"?>
<svg width="294px" height="196px" viewBox="0 0 294 196" version="1.1" xmlns="http://www.w3.org/2000/svg" xmlns:xlink="http://www.w3.org/1999/xlink">
    <!-- Generator: Sketch 47.1 (45422) - http://www.bohemiancoding.com/sketch -->
    <title>status-labels</title>
    <desc>Created with Sketch.</desc>
    <defs>
        <rect id="path-1" x="62" y="33" width="16" height="5" rx="2.5"></rect>
        <rect id="path-2" x="154" y="0" width="25" height="5" rx="2.5"></rect>
        <rect id="path-3" x="62" y="49" width="16" height="5" rx="2.5"></rect>
        <rect id="path-4" x="62" y="65" width="16" height="5" rx="2.5"></rect>
        <rect id="path-5" x="62" y="81" width="16" height="5" rx="2.5"></rect>
        <rect id="path-6" x="62" y="97" width="16" height="5" rx="2.5"></rect>
    </defs>
    <g id="thumbnails" stroke="none" stroke-width="1" fill="none" fill-rule="evenodd">
        <g id="Family-Images-Helix" transform="translate(-2658.000000, -958.000000)">
            <g id="status-labels" transform="translate(2658.000000, 958.000000)">
                <g id="Group-7">
                    <g id="Group-6">
                        <g id="Group-5">
                            <g id="help-link">
                                <g id="Group-2">
                                    <g id="Group-3">
                                        <g id="card-grid-copy">
                                            <g id="application-frame">
                                                <rect id="Rectangle" fill="#B6E3EB" fill-rule="evenodd" x="0" y="0" width="293" height="195"></rect>
                                                <rect id="Rectangle-Copy" fill="#16B9D4" fill-rule="evenodd" x="0" y="0" width="48.8333333" height="195"></rect>
                                                <rect id="Rectangle-Copy-2" fill="#0E94A6" fill-rule="evenodd" x="0" y="0" width="293" height="14.625"></rect>
                                                <g id="overlay-/-hidden"></g>
                                            </g>
                                        </g>
                                        <g id="box-/-content" transform="translate(48.000000, 15.000000)" fill="#FFFFFF">
                                            <rect id="Rectangle" x="0" y="0" width="174" height="180"></rect>
                                        </g>
                                        <g id="box-/-white-copy" transform="translate(179.500000, 14.000000)" fill="#F7F5F5">
                                            <rect id="Rectangle" x="0" y="0.756475639" width="113.793505" height="180.368524"></rect>
                                        </g>
                                    </g>
                                </g>
                            </g>
                        </g>
                    </g>
                    <rect id="Rectangle-3-Copy-11" fill="#E0E0E0" x="54" y="22" width="38" height="8"></rect>
                    <rect id="Rectangle-3-Copy-28" fill="#E0E0E0" x="187" y="22" width="38" height="8"></rect>
                    <rect id="Rectangle-3-Copy-13" fill="#E0E0E0" x="54" y="53" width="119" height="1"></rect>
                    <g id="Group-4" transform="translate(54.000000, 34.000000)">
                        <path d="" id="Path-2" stroke="#979797"></path>
                        <rect id="Rectangle-2" stroke="#E0E0E0" x="0.5" y="27.5" width="118" height="16"></rect>
                        <rect id="Rectangle-2-Copy-2" stroke="#E0E0E0" x="0.5" y="59.5" width="118" height="16"></rect>
                        <rect id="Rectangle-2-Copy" stroke="#E0E0E0" x="0.5" y="43.5" width="118" height="16"></rect>
                        <rect id="Rectangle-2-Copy-3" stroke="#E0E0E0" x="0.5" y="75.5" width="118" height="16"></rect>
                        <rect id="Rectangle-2-Copy-4" stroke="#E0E0E0" x="0.5" y="91.5" width="118" height="16"></rect>
                        <g id="Rectangle-3-Copy-3">
                            <use fill="#FFFFFF" fill-rule="evenodd" xlink:href="#path-1"></use>
                            <rect stroke="#F87E00" stroke-width="1" x="62.5" y="33.5" width="15" height="4" rx="2"></rect>
                        </g>
                        <rect id="Rectangle-3-Copy-18" fill="#F87E00" x="134" y="0" width="16" height="5" rx="2.5"></rect>
                        <g id="Rectangle-3-Copy-19">
                            <use fill="#FFFFFF" fill-rule="evenodd" xlink:href="#path-2"></use>
                            <rect stroke="#F87E00" stroke-width="1" x="154.5" y="0.5" width="24" height="4" rx="2"></rect>
                        </g>
                        <rect id="Rectangle-3-Copy-13" fill="#E0E0E0" x="3" y="33" width="5" height="5"></rect>
                        <rect id="Rectangle-3-Copy-23" fill="#E0E0E0" x="17" y="33" width="35" height="5"></rect>
                        <g id="Rectangle-3-Copy-5">
                            <use fill="#FFFFFF" fill-rule="evenodd" xlink:href="#path-3"></use>
                            <rect stroke="#F87E00" stroke-width="1" x="62.5" y="49.5" width="15" height="4" rx="2"></rect>
                        </g>
                        <rect id="Rectangle-3-Copy-14" fill="#E0E0E0" x="3" y="49" width="5" height="5"></rect>
                        <rect id="Rectangle-3-Copy-24" fill="#E0E0E0" x="17" y="49" width="35" height="5"></rect>
                        <g id="Rectangle-3-Copy-7">
                            <use fill="#FFFFFF" fill-rule="evenodd" xlink:href="#path-4"></use>
                            <rect stroke="#F87E00" stroke-width="1" x="62.5" y="65.5" width="15" height="4" rx="2"></rect>
                        </g>
                        <rect id="Rectangle-3-Copy-15" fill="#E0E0E0" x="3" y="65" width="5" height="5"></rect>
                        <rect id="Rectangle-3-Copy-25" fill="#E0E0E0" x="17" y="65" width="35" height="5"></rect>
                        <g id="Rectangle-3-Copy-9">
                            <use fill="#FFFFFF" fill-rule="evenodd" xlink:href="#path-5"></use>
                            <rect stroke="#F87E00" stroke-width="1" x="62.5" y="81.5" width="15" height="4" rx="2"></rect>
                        </g>
                        <rect id="Rectangle-3-Copy-16" fill="#E0E0E0" x="3" y="81" width="5" height="5" rx="1"></rect>
                        <rect id="Rectangle-3-Copy-26" fill="#E0E0E0" x="17" y="81" width="35" height="5"></rect>
                        <g id="Rectangle-3-Copy-11">
                            <use fill="#FFFFFF" fill-rule="evenodd" xlink:href="#path-6"></use>
                            <rect stroke="#F87E00" stroke-width="1" x="62.5" y="97.5" width="15" height="4" rx="2"></rect>
                        </g>
                        <rect id="Rectangle-3-Copy-17" fill="#E0E0E0" x="3" y="97" width="5" height="5"></rect>
                        <rect id="Rectangle-3-Copy-27" fill="#E0E0E0" x="17" y="97" width="35" height="5"></rect>
                        <rect id="Rectangle-3-Copy-4" fill="#E0E0E0" x="86" y="33" width="23" height="5"></rect>
                        <rect id="Rectangle-3-Copy-6" fill="#E0E0E0" x="86" y="49" width="23" height="5"></rect>
                        <rect id="Rectangle-3-Copy-8" fill="#E0E0E0" x="86" y="65" width="23" height="5"></rect>
                        <rect id="Rectangle-3-Copy-10" fill="#E0E0E0" x="86" y="81" width="23" height="5"></rect>
                        <rect id="Rectangle-3-Copy-12" fill="#E0E0E0" x="86" y="97" width="23" height="5"></rect>
                    </g>
                    <rect id="Rectangle-3" fill="#D8D8D8" x="188" y="55" width="59" height="7"></rect>
                    <rect id="Rectangle-3-Copy-30" fill="#D8D8D8" x="188" y="121" width="59" height="7"></rect>
                    <rect id="Rectangle-3-Copy-22" fill="#D8D8D8" x="188" y="88" width="38" height="7"></rect>
                    <rect id="Rectangle-3-Copy-32" fill="#D8D8D8" x="188" y="154" width="38" height="7"></rect>
                    <rect id="Rectangle-3-Copy-2" fill="#D8D8D8" x="188" y="68" width="30" height="7"></rect>
                    <rect id="Rectangle-3-Copy-33" fill="#D8D8D8" x="188" y="134" width="30" height="7"></rect>
                    <rect id="Rectangle-3-Copy-29" fill="#D8D8D8" x="188" y="101" width="30" height="7"></rect>
                    <rect id="Rectangle-3-Copy-34" fill="#D8D8D8" x="188" y="167" width="30" height="7"></rect>
                    <rect id="Rectangle-3-Copy-20" fill="#D8D8D8" x="222" y="68" width="36" height="7"></rect>
                    <rect id="Rectangle-3-Copy-35" fill="#D8D8D8" x="222" y="134" width="36" height="7"></rect>
                    <rect id="Rectangle-3-Copy" fill="#D8D8D8" x="250" y="55" width="32" height="7"></rect>
                    <rect id="Rectangle-3-Copy-36" fill="#D8D8D8" x="250" y="121" width="32" height="7"></rect>
                    <rect id="Rectangle-3-Copy-31" fill="#D8D8D8" x="229" y="88" width="53" height="7"></rect>
                    <rect id="Rectangle-3-Copy-37" fill="#D8D8D8" x="229" y="154" width="53" height="7"></rect>
                    <rect id="Rectangle-3-Copy-13" fill="#E0E0E0" x="188" y="48" width="97" height="1"></rect>
                    <rect id="Rectangle-3-Copy-38" fill="#E0E0E0" x="188" y="114" width="97" height="1"></rect>
                    <rect id="Rectangle-3-Copy-21" fill="#E0E0E0" x="188" y="81" width="97" height="1"></rect>
                    <rect id="Rectangle-3-Copy-39" fill="#E0E0E0" x="188" y="147" width="97" height="1"></rect>
                </g>
            </g>
        </g>
    </g>
</svg>