<?xml version="1.0" encoding="UTF-8" standalone="no"?>
<svg width="293px" height="195px" viewBox="0 0 293 195" version="1.1" xmlns="http://www.w3.org/2000/svg" xmlns:xlink="http://www.w3.org/1999/xlink">
    <!-- Generator: Sketch 47.1 (45422) - http://www.bohemiancoding.com/sketch -->
    <title>tables-controls</title>
    <desc>Created with Sketch.</desc>
    <defs></defs>
    <g id="thumbnails" stroke="none" stroke-width="1" fill="none" fill-rule="evenodd">
        <g id="Family-Images-Helix" transform="translate(-1922.000000, -958.000000)">
            <g id="tables-controls" transform="translate(1922.000000, 958.000000)">
                <g id="Group-3">
                    <g id="Group-2">
                        <g id="card-grid">
                            <g id="application-frame">
                                <rect id="Rectangle" fill="#B6E3EB" fill-rule="evenodd" x="0" y="0" width="293" height="195"></rect>
                                <rect id="Rectangle-Copy" fill="#16B9D4" fill-rule="evenodd" x="0" y="0" width="48.8333333" height="195"></rect>
                                <rect id="Rectangle-Copy-2" fill="#0E94A6" fill-rule="evenodd" x="0" y="0" width="293" height="14.625"></rect>
                                <g id="overlay-/-hidden"></g>
                            </g>
                            <g id="box-/-content" transform="translate(73.250000, 39.000000)" fill="#FFFFFF">
                                <rect id="Rectangle" x="0" y="0" width="199" height="156"></rect>
                            </g>
                        </g>
                        <path d="" id="Path-2" stroke="#979797"></path>
                    </g>
                    <rect id="Rectangle-2" stroke="#E0E0E0" x="88.5" y="87.5" width="172" height="16"></rect>
                    <rect id="Rectangle-2-Copy-5" stroke="#E0E0E0" x="88.5" y="71.5" width="172" height="16"></rect>
                    <rect id="Rectangle-2-Copy-2" stroke="#E0E0E0" x="88.5" y="119.5" width="172" height="16"></rect>
                    <rect id="Rectangle-2-Copy" stroke="#E0E0E0" x="88.5" y="103.5" width="172" height="16"></rect>
                    <rect id="Rectangle-2-Copy-3" stroke="#E0E0E0" x="88.5" y="135.5" width="172" height="16"></rect>
                    <rect id="Rectangle-2-Copy-4" stroke="#E0E0E0" x="88.5" y="151.5" width="172" height="16"></rect>
                    <rect id="Rectangle-3" fill="#E0E0E0" x="113" y="77" width="29" height="5"></rect>
                    <rect id="Rectangle-3-Copy-29" fill="#F57C00" x="92" y="63" width="25" height="5"></rect>
                    <rect id="Rectangle-3-Copy" fill="#E0E0E0" x="163" y="77" width="23" height="5"></rect>
                    <rect id="Rectangle-3-Copy-30" stroke="#F57C00" x="121.5" y="63.5" width="24" height="4"></rect>
                    <rect id="Rectangle-3-Copy-31" fill="#F57C00" x="150" y="64" width="23" height="3"></rect>
                    <rect id="Rectangle-3-Copy-3" fill="#E0E0E0" x="163" y="93" width="23" height="5" rx="2.5"></rect>
                    <rect id="Rectangle-3-Copy-13" fill="#E0E0E0" x="93" y="93" width="5" height="5" rx="1"></rect>
                    <rect id="Rectangle-3-Copy-28" fill="#F57C00" x="93" y="77" width="5" height="5" rx="1"></rect>
                    <rect id="Rectangle-3-Copy-18" fill="#E0E0E0" x="103" y="93" width="5" height="5" rx="2.5"></rect>
                    <rect id="Rectangle-3-Copy-32" fill="#F57C00" x="103" y="77" width="5" height="5" rx="2.5"></rect>
                    <rect id="Rectangle-3-Copy-23" fill="#E0E0E0" x="113" y="93" width="29" height="5" rx="2.5"></rect>
                    <rect id="Rectangle-3-Copy-5" fill="#E0E0E0" x="163" y="109" width="23" height="5" rx="2.5"></rect>
                    <rect id="Rectangle-3-Copy-14" fill="#E0E0E0" x="93" y="109" width="5" height="5" rx="1"></rect>
                    <rect id="Rectangle-3-Copy-19" fill="#E0E0E0" x="103" y="109" width="5" height="5" rx="2.5"></rect>
                    <rect id="Rectangle-3-Copy-24" fill="#E0E0E0" x="113" y="109" width="29" height="5" rx="2.5"></rect>
                    <rect id="Rectangle-3-Copy-7" fill="#E0E0E0" x="163" y="125" width="23" height="5" rx="2.5"></rect>
                    <rect id="Rectangle-3-Copy-15" fill="#E0E0E0" x="93" y="125" width="5" height="5" rx="1"></rect>
                    <rect id="Rectangle-3-Copy-20" fill="#E0E0E0" x="103" y="125" width="5" height="5" rx="2.5"></rect>
                    <rect id="Rectangle-3-Copy-25" fill="#E0E0E0" x="113" y="125" width="29" height="5" rx="2.5"></rect>
                    <rect id="Rectangle-3-Copy-9" fill="#E0E0E0" x="163" y="141" width="23" height="5" rx="2.5"></rect>
                    <rect id="Rectangle-3-Copy-16" fill="#E0E0E0" x="93" y="141" width="5" height="5" rx="1"></rect>
                    <rect id="Rectangle-3-Copy-21" fill="#E0E0E0" x="103" y="141" width="5" height="5" rx="2.5"></rect>
                    <rect id="Rectangle-3-Copy-26" fill="#E0E0E0" x="113" y="141" width="29" height="5" rx="2.5"></rect>
                    <rect id="Rectangle-3-Copy-11" fill="#E0E0E0" x="163" y="157" width="23" height="5" rx="2.5"></rect>
                    <rect id="Rectangle-3-Copy-17" fill="#E0E0E0" x="93" y="157" width="5" height="5" rx="1"></rect>
                    <rect id="Rectangle-3-Copy-22" fill="#E0E0E0" x="103" y="157" width="5" height="5" rx="2.5"></rect>
                    <rect id="Rectangle-3-Copy-27" fill="#E0E0E0" x="113" y="157" width="29" height="5" rx="2.5"></rect>
                    <rect id="Rectangle-3-Copy-2" fill="#E0E0E0" x="213" y="77" width="34" height="5"></rect>
                    <rect id="Rectangle-3-Copy-4" fill="#E0E0E0" x="213" y="93" width="34" height="5" rx="2.5"></rect>
                    <rect id="Rectangle-3-Copy-6" fill="#E0E0E0" x="213" y="109" width="34" height="5" rx="2.5"></rect>
                    <rect id="Rectangle-3-Copy-8" fill="#E0E0E0" x="213" y="125" width="34" height="5" rx="2.5"></rect>
                    <rect id="Rectangle-3-Copy-10" fill="#E0E0E0" x="213" y="141" width="34" height="5" rx="2.5"></rect>
                    <rect id="Rectangle-3-Copy-12" fill="#E0E0E0" x="213" y="157" width="34" height="5" rx="2.5"></rect>
                </g>
            </g>
        </g>
    </g>
</svg>