<?xml version="1.0" encoding="utf-8"?>
<!-- Generator: Adobe Illustrator 21.0.2, SVG Export Plug-In . SVG Version: 6.00 Build 0)  -->
<svg version="1.1" id="Layer_1" xmlns="http://www.w3.org/2000/svg" xmlns:xlink="http://www.w3.org/1999/xlink" x="0px" y="0px"
	 width="293px" height="195px" viewBox="0 0 293 195" style="enable-background:new 0 0 293 195;" xml:space="preserve">
<style type="text/css">
	.st0{fill:#B6E3EB;}
	.st1{fill:#16B9D4;}
	.st2{fill:#0E94A6;}
	.st3{fill:#FFFFFF;}
	.st4{fill:none;stroke:#E0E0E0;}
	.st5{fill:#E0E0E0;}
	.st6{fill:#F57C00;}
</style>
<title>tables</title>
<desc>Created with Sketch.</desc>
<g id="thumbnails">
	<g id="tables" transform="translate(1175.000000, 323.000000)">
		<g id="Group-3">
			<g id="Group-2">
				<g id="card-grid">
					<g id="application-frame">
						<rect id="Rectangle" x="-1175" y="-323" class="st0" width="293" height="195"/>
						<rect id="Rectangle-Copy" x="-1175" y="-323" class="st1" width="48.8" height="195"/>
						<rect id="Rectangle-Copy-2" x="-1175" y="-323" class="st2" width="293" height="14.6"/>
						<g id="overlay-_x2F_-hidden">
						</g>
					</g>
					<g id="box-_x2F_-content" transform="translate(73.250000, 39.000000)">
						<rect id="Rectangle_1_" x="-1175" y="-323" class="st3" width="199" height="156"/>
					</g>
				</g>
				<path id="Path-2" class="st3" d="M-1175-323"/>
			</g>
			<rect id="Rectangle-2" x="-1087.9" y="-249.5" class="st4" width="172" height="16"/>
			<rect id="Rectangle-2-Copy-2" x="-1087.9" y="-217.5" class="st4" width="172" height="16"/>
			<rect id="Rectangle-2-Copy" x="-1087.9" y="-233.5" class="st4" width="172" height="16"/>
			<rect id="Rectangle-2-Copy-3" x="-1087.9" y="-201.5" class="st4" width="172" height="16"/>
			<rect id="Rectangle-2-Copy-4" x="-1087.9" y="-185.5" class="st4" width="172" height="16"/>
			<rect id="Rectangle-3" x="-1063.4" y="-260" class="st5" width="29" height="5"/>
			<rect id="Rectangle-3-Copy" x="-1013.4" y="-260" class="st5" width="23" height="5"/>
			<path id="Rectangle-3-Copy-3" class="st5" d="M-1010.9-244h18c1.4,0,2.5,1.1,2.5,2.5l0,0c0,1.4-1.1,2.5-2.5,2.5h-18
				c-1.4,0-2.5-1.1-2.5-2.5l0,0C-1013.4-242.9-1012.3-244-1010.9-244z"/>
			<path id="Rectangle-3-Copy-13" class="st5" d="M-1082.4-244h3c0.6,0,1,0.4,1,1v3c0,0.6-0.4,1-1,1h-3c-0.6,0-1-0.4-1-1v-3
				C-1083.4-243.6-1083-244-1082.4-244z"/>
			<path id="Rectangle-3-Copy-18" class="st5" d="M-1070.9-244L-1070.9-244c1.4,0,2.5,1.1,2.5,2.5l0,0c0,1.4-1.1,2.5-2.5,2.5l0,0
				c-1.4,0-2.5-1.1-2.5-2.5l0,0C-1073.4-242.9-1072.3-244-1070.9-244z"/>
			<path id="Rectangle-3-Copy-23" class="st6" d="M-1060.9-244h24c1.4,0,2.5,1.1,2.5,2.5l0,0c0,1.4-1.1,2.5-2.5,2.5h-24
				c-1.4,0-2.5-1.1-2.5-2.5l0,0C-1063.4-242.9-1062.3-244-1060.9-244z"/>
			<path id="Rectangle-3-Copy-5" class="st5" d="M-1010.9-228h18c1.4,0,2.5,1.1,2.5,2.5l0,0c0,1.4-1.1,2.5-2.5,2.5h-18
				c-1.4,0-2.5-1.1-2.5-2.5l0,0C-1013.4-226.9-1012.3-228-1010.9-228z"/>
			<path id="Rectangle-3-Copy-14" class="st5" d="M-1082.4-228h3c0.6,0,1,0.4,1,1v3c0,0.6-0.4,1-1,1h-3c-0.6,0-1-0.4-1-1v-3
				C-1083.4-227.6-1083-228-1082.4-228z"/>
			<path id="Rectangle-3-Copy-19" class="st5" d="M-1070.9-228L-1070.9-228c1.4,0,2.5,1.1,2.5,2.5l0,0c0,1.4-1.1,2.5-2.5,2.5l0,0
				c-1.4,0-2.5-1.1-2.5-2.5l0,0C-1073.4-226.9-1072.3-228-1070.9-228z"/>
			<path id="Rectangle-3-Copy-24" class="st6" d="M-1060.9-228h24c1.4,0,2.5,1.1,2.5,2.5l0,0c0,1.4-1.1,2.5-2.5,2.5h-24
				c-1.4,0-2.5-1.1-2.5-2.5l0,0C-1063.4-226.9-1062.3-228-1060.9-228z"/>
			<path id="Rectangle-3-Copy-7" class="st5" d="M-1010.9-212h18c1.4,0,2.5,1.1,2.5,2.5l0,0c0,1.4-1.1,2.5-2.5,2.5h-18
				c-1.4,0-2.5-1.1-2.5-2.5l0,0C-1013.4-210.9-1012.3-212-1010.9-212z"/>
			<path id="Rectangle-3-Copy-15" class="st5" d="M-1082.4-212h3c0.6,0,1,0.4,1,1v3c0,0.6-0.4,1-1,1h-3c-0.6,0-1-0.4-1-1v-3
				C-1083.4-211.6-1083-212-1082.4-212z"/>
			<path id="Rectangle-3-Copy-20" class="st5" d="M-1070.9-212L-1070.9-212c1.4,0,2.5,1.1,2.5,2.5l0,0c0,1.4-1.1,2.5-2.5,2.5l0,0
				c-1.4,0-2.5-1.1-2.5-2.5l0,0C-1073.4-210.9-1072.3-212-1070.9-212z"/>
			<path id="Rectangle-3-Copy-25" class="st6" d="M-1060.9-212h24c1.4,0,2.5,1.1,2.5,2.5l0,0c0,1.4-1.1,2.5-2.5,2.5h-24
				c-1.4,0-2.5-1.1-2.5-2.5l0,0C-1063.4-210.9-1062.3-212-1060.9-212z"/>
			<path id="Rectangle-3-Copy-9" class="st5" d="M-1010.9-196h18c1.4,0,2.5,1.1,2.5,2.5l0,0c0,1.4-1.1,2.5-2.5,2.5h-18
				c-1.4,0-2.5-1.1-2.5-2.5l0,0C-1013.4-194.9-1012.3-196-1010.9-196z"/>
			<path id="Rectangle-3-Copy-16" class="st5" d="M-1082.4-196h3c0.6,0,1,0.4,1,1v3c0,0.6-0.4,1-1,1h-3c-0.6,0-1-0.4-1-1v-3
				C-1083.4-195.6-1083-196-1082.4-196z"/>
			<path id="Rectangle-3-Copy-21" class="st5" d="M-1070.9-196L-1070.9-196c1.4,0,2.5,1.1,2.5,2.5l0,0c0,1.4-1.1,2.5-2.5,2.5l0,0
				c-1.4,0-2.5-1.1-2.5-2.5l0,0C-1073.4-194.9-1072.3-196-1070.9-196z"/>
			<path id="Rectangle-3-Copy-26" class="st6" d="M-1060.9-196h24c1.4,0,2.5,1.1,2.5,2.5l0,0c0,1.4-1.1,2.5-2.5,2.5h-24
				c-1.4,0-2.5-1.1-2.5-2.5l0,0C-1063.4-194.9-1062.3-196-1060.9-196z"/>
			<path id="Rectangle-3-Copy-11" class="st5" d="M-1010.9-180h18c1.4,0,2.5,1.1,2.5,2.5l0,0c0,1.4-1.1,2.5-2.5,2.5h-18
				c-1.4,0-2.5-1.1-2.5-2.5l0,0C-1013.4-178.9-1012.3-180-1010.9-180z"/>
			<path id="Rectangle-3-Copy-17" class="st5" d="M-1082.4-180h3c0.6,0,1,0.4,1,1v3c0,0.6-0.4,1-1,1h-3c-0.6,0-1-0.4-1-1v-3
				C-1083.4-179.6-1083-180-1082.4-180z"/>
			<path id="Rectangle-3-Copy-22" class="st5" d="M-1070.9-180L-1070.9-180c1.4,0,2.5,1.1,2.5,2.5l0,0c0,1.4-1.1,2.5-2.5,2.5l0,0
				c-1.4,0-2.5-1.1-2.5-2.5l0,0C-1073.4-178.9-1072.3-180-1070.9-180z"/>
			<path id="Rectangle-3-Copy-27" class="st6" d="M-1060.9-180h24c1.4,0,2.5,1.1,2.5,2.5l0,0c0,1.4-1.1,2.5-2.5,2.5h-24
				c-1.4,0-2.5-1.1-2.5-2.5l0,0C-1063.4-178.9-1062.3-180-1060.9-180z"/>
			<rect id="Rectangle-3-Copy-2" x="-963.4" y="-260" class="st5" width="34" height="5"/>
			<path id="Rectangle-3-Copy-4" class="st5" d="M-960.9-244h29c1.4,0,2.5,1.1,2.5,2.5l0,0c0,1.4-1.1,2.5-2.5,2.5h-29
				c-1.4,0-2.5-1.1-2.5-2.5l0,0C-963.4-242.9-962.3-244-960.9-244z"/>
			<path id="Rectangle-3-Copy-6" class="st5" d="M-960.9-228h29c1.4,0,2.5,1.1,2.5,2.5l0,0c0,1.4-1.1,2.5-2.5,2.5h-29
				c-1.4,0-2.5-1.1-2.5-2.5l0,0C-963.4-226.9-962.3-228-960.9-228z"/>
			<path id="Rectangle-3-Copy-8" class="st5" d="M-960.9-212h29c1.4,0,2.5,1.1,2.5,2.5l0,0c0,1.4-1.1,2.5-2.5,2.5h-29
				c-1.4,0-2.5-1.1-2.5-2.5l0,0C-963.4-210.9-962.3-212-960.9-212z"/>
			<path id="Rectangle-3-Copy-10" class="st5" d="M-960.9-196h29c1.4,0,2.5,1.1,2.5,2.5l0,0c0,1.4-1.1,2.5-2.5,2.5h-29
				c-1.4,0-2.5-1.1-2.5-2.5l0,0C-963.4-194.9-962.3-196-960.9-196z"/>
			<path id="Rectangle-3-Copy-12" class="st5" d="M-960.9-180h29c1.4,0,2.5,1.1,2.5,2.5l0,0c0,1.4-1.1,2.5-2.5,2.5h-29
				c-1.4,0-2.5-1.1-2.5-2.5l0,0C-963.4-178.9-962.3-180-960.9-180z"/>
		</g>
	</g>
</g>
</svg>
