<?xml version="1.0" encoding="UTF-8" standalone="no"?>
<svg width="293px" height="195px" viewBox="0 0 293 195" version="1.1" xmlns="http://www.w3.org/2000/svg" xmlns:xlink="http://www.w3.org/1999/xlink">
    <!-- Generator: Sketch 47.1 (45422) - http://www.bohemiancoding.com/sketch -->
    <title>tables-nested</title>
    <desc>Created with Sketch.</desc>
    <defs></defs>
    <g id="thumbnails" stroke="none" stroke-width="1" fill="none" fill-rule="evenodd">
        <g id="Family-Images-Helix" transform="translate(-1924.000000, -700.000000)">
            <g id="tables-nested" transform="translate(1924.000000, 700.000000)">
                <g id="Group-4">
                    <g id="Group-3">
                        <g id="Group-2">
                            <g id="card-grid">
                                <g id="application-frame">
                                    <rect id="Rectangle" fill="#B6E3EB" fill-rule="evenodd" x="0" y="0" width="293" height="195"></rect>
                                    <rect id="Rectangle-Copy" fill="#16B9D4" fill-rule="evenodd" x="0" y="0" width="48.8333333" height="195"></rect>
                                    <rect id="Rectangle-Copy-2" fill="#0E94A6" fill-rule="evenodd" x="0" y="0" width="293" height="14.625"></rect>
                                    <g id="overlay-/-hidden"></g>
                                </g>
                                <g id="box-/-content" transform="translate(73.250000, 39.000000)" fill="#FFFFFF">
                                    <rect id="Rectangle" x="0" y="0" width="199" height="156"></rect>
                                </g>
                            </g>
                            <path d="" id="Path-2" stroke="#979797"></path>
                        </g>
                    </g>
                    <g id="Group-3" transform="translate(85.000000, 63.000000)">
                        <g id="Group-2" transform="translate(3.000000, 90.000000)" stroke="#979797">
                            <path d="" id="Path-2"></path>
                        </g>
                        <rect id="Rectangle-2" stroke="#E0E0E0" x="0.5" y="10.5" width="172" height="16"></rect>
                        <rect id="Rectangle-2-Copy-2" stroke="#E0E0E0" x="0.5" y="26.5" width="172" height="35"></rect>
                        <rect id="Rectangle-2-Copy-3" stroke="#E0E0E0" x="0.5" y="61.5" width="172" height="16"></rect>
                        <rect id="Rectangle-2-Copy-4" stroke="#E0E0E0" x="0.5" y="77.5" width="172" height="16"></rect>
                        <rect id="Rectangle-3" fill="#E0E0E0" x="25" y="0" width="29" height="5"></rect>
                        <rect id="Rectangle-3-Copy" fill="#E0E0E0" x="75" y="0" width="23" height="5"></rect>
                        <rect id="Rectangle-3-Copy-3" fill="#E0E0E0" x="75" y="16" width="23" height="5" rx="2.5"></rect>
                        <rect id="Rectangle-3-Copy-13" fill="#E0E0E0" x="5" y="16" width="5" height="5" rx="1"></rect>
                        <rect id="Rectangle-3-Copy-18" fill="#E0E0E0" x="15" y="16" width="5" height="5" rx="2.5"></rect>
                        <rect id="Rectangle-3-Copy-23" fill="#E0E0E0" x="25" y="16" width="29" height="5" rx="2.5"></rect>
                        <rect id="Rectangle-3-Copy-24" fill="#F57C00" x="25" y="32" width="39" height="5" rx="2.5"></rect>
                        <rect id="Rectangle-3-Copy-29" fill="#F57C00" x="25" y="50" width="39" height="5" rx="2.5"></rect>
                        <rect id="Rectangle-3-Copy-25" fill="#F57C00" x="68" y="32" width="34" height="5" rx="2.5"></rect>
                        <rect id="Rectangle-3-Copy-30" fill="#F57C00" x="68" y="50" width="34" height="5" rx="2.5"></rect>
                        <rect id="Rectangle-3-Copy-28" fill="#F57C00" x="106" y="32" width="29" height="5" rx="2.5"></rect>
                        <rect id="Rectangle-3-Copy-31" fill="#F57C00" x="106" y="50" width="29" height="5" rx="2.5"></rect>
                        <rect id="Rectangle-3-Copy-5" fill="#F57C00" x="25" y="41" width="23" height="5" rx="2.5"></rect>
                        <rect id="Rectangle-3-Copy-9" fill="#E0E0E0" x="75" y="67" width="23" height="5" rx="2.5"></rect>
                        <rect id="Rectangle-3-Copy-16" fill="#E0E0E0" x="5" y="67" width="5" height="5" rx="1"></rect>
                        <rect id="Rectangle-3-Copy-21" fill="#E0E0E0" x="15" y="67" width="5" height="5" rx="2.5"></rect>
                        <rect id="Rectangle-3-Copy-26" fill="#E0E0E0" x="25" y="67" width="29" height="5" rx="2.5"></rect>
                        <rect id="Rectangle-3-Copy-11" fill="#E0E0E0" x="75" y="83" width="23" height="5" rx="2.5"></rect>
                        <rect id="Rectangle-3-Copy-17" fill="#E0E0E0" x="5" y="83" width="5" height="5" rx="1"></rect>
                        <rect id="Rectangle-3-Copy-22" fill="#E0E0E0" x="15" y="83" width="5" height="5" rx="2.5"></rect>
                        <rect id="Rectangle-3-Copy-27" fill="#E0E0E0" x="25" y="83" width="29" height="5" rx="2.5"></rect>
                        <rect id="Rectangle-3-Copy-2" fill="#E0E0E0" x="125" y="0" width="34" height="5"></rect>
                        <rect id="Rectangle-3-Copy-4" fill="#E0E0E0" x="125" y="16" width="34" height="5" rx="2.5"></rect>
                        <rect id="Rectangle-3-Copy-6" fill="#F57C00" x="52" y="41" width="34" height="5" rx="2.5"></rect>
                        <rect id="Rectangle-3-Copy-7" fill="#F57C00" x="90" y="41" width="34" height="5" rx="2.5"></rect>
                        <rect id="Rectangle-3-Copy-10" fill="#E0E0E0" x="125" y="67" width="34" height="5" rx="2.5"></rect>
                        <rect id="Rectangle-3-Copy-12" fill="#E0E0E0" x="125" y="83" width="34" height="5" rx="2.5"></rect>
                        <polyline id="Path-3" stroke="#F57C00" points="163 17 165.268661 19.1264999 167.537323 17"></polyline>
                    </g>
                </g>
            </g>
        </g>
    </g>
</svg>