<?xml version="1.0" encoding="UTF-8" standalone="no"?>
<svg width="293px" height="195px" viewBox="0 0 293 195" version="1.1" xmlns="http://www.w3.org/2000/svg" xmlns:xlink="http://www.w3.org/1999/xlink">
    <!-- Generator: Sketch 46.2 (44496) - http://www.bohemiancoding.com/sketch -->
    <title>time-picker</title>
    <desc>Created with Sketch.</desc>
    <defs>
        <filter x="-7.8%" y="-4.5%" width="115.6%" height="117.9%" filterUnits="objectBoundingBox" id="filter-1">
            <feOffset dx="0" dy="3" in="SourceAlpha" result="shadowOffsetOuter1"></feOffset>
            <feGaussianBlur stdDeviation="1.5" in="shadowOffsetOuter1" result="shadowBlurOuter1"></feGaussianBlur>
            <feColorMatrix values="0 0 0 0 0   0 0 0 0 0   0 0 0 0 0  0 0 0 0.16 0" type="matrix" in="shadowBlurOuter1" result="shadowMatrixOuter1"></feColorMatrix>
            <feMerge>
                <feMergeNode in="shadowMatrixOuter1"></feMergeNode>
                <feMergeNode in="SourceGraphic"></feMergeNode>
            </feMerge>
        </filter>
        <rect id="path-2" x="76" y="107" width="77" height="7"></rect>
    </defs>
    <g id="thumbnails" stroke="none" stroke-width="1" fill="none" fill-rule="evenodd">
        <g id="Family-Images-Helix" transform="translate(-1566.000000, -841.000000)">
            <g id="time-picker" transform="translate(1566.000000, 841.000000)">
                <g id="Group-4">
                    <g id="Group-3">
                        <g id="Group-2">
                            <g id="tabs">
                                <g id="application-frame">
                                    <rect id="Rectangle" fill="#B6E3EB" fill-rule="evenodd" x="0" y="0" width="293" height="195"></rect>
                                    <rect id="Rectangle-Copy" fill="#16B9D4" fill-rule="evenodd" x="0" y="0" width="48.8333333" height="195"></rect>
                                    <rect id="Rectangle-Copy-2" fill="#0E94A6" fill-rule="evenodd" x="0" y="0" width="293" height="14.625"></rect>
                                    <g id="overlay-/-hidden"></g>
                                </g>
                                <g id="box-/-content" transform="translate(63.483333, 43.875000)" fill="#FFFFFF">
                                    <rect id="Rectangle" x="0" y="0" width="215" height="151"></rect>
                                </g>
                                <g id="box-/-white" filter="url(#filter-1)" transform="translate(76.000000, 90.000000)" fill="#FFFFFF">
                                    <rect id="Rectangle" x="0" y="0" width="77" height="67"></rect>
                                </g>
                                <rect id="Rectangle" stroke="#F57C00" x="76.5" y="76.5" width="70" height="10" rx="2"></rect>
                            </g>
                            <rect id="Rectangle-2" fill="#D8D8D8" x="75" y="53" width="92" height="14"></rect>
                        </g>
                        <path d="M157.500007,78.910707 L157.500007,81.6607103 C157.500007,81.7712015 157.414069,81.8571391 157.303578,81.8571391 L155.33929,81.8571391 C155.228798,81.8571391 155.142861,81.7712015 155.142861,81.6607103 L155.142861,81.2678527 C155.142861,81.1573615 155.228798,81.0714239 155.33929,81.0714239 L156.714291,81.0714239 L156.714291,78.910707 C156.714291,78.8002158 156.800229,78.7142782 156.91072,78.7142782 L157.303578,78.7142782 C157.414069,78.7142782 157.500007,78.8002158 157.500007,78.910707 Z M160.053581,81.0714239 C160.053581,79.2299038 158.555811,77.7321342 156.714291,77.7321342 C154.872771,77.7321342 153.375002,79.2299038 153.375002,81.0714239 C153.375002,82.9129439 154.872771,84.4107136 156.714291,84.4107136 C158.555811,84.4107136 160.053581,82.9129439 160.053581,81.0714239 Z M161.428583,81.0714239 C161.428583,83.6741056 159.316973,85.7857152 156.714291,85.7857152 C154.11161,85.7857152 152,83.6741056 152,81.0714239 C152,78.4687422 154.11161,76.3571326 156.714291,76.3571326 C159.316973,76.3571326 161.428583,78.4687422 161.428583,81.0714239 Z" id="" fill="#F57C00"></path>
                    </g>
                    <g id="Rectangle-3">
                        <use fill="#F57C00" fill-rule="evenodd" xlink:href="#path-2"></use>
                        <rect stroke="#F57C00" stroke-width="1" x="76.5" y="107.5" width="76" height="6"></rect>
                    </g>
                    <rect id="Rectangle-3-Copy-5" fill="#E0E0E0" x="79" y="118" width="54" height="3" rx="1.5"></rect>
                    <rect id="Rectangle-3-Copy-8" fill="#E0E0E0" x="79" y="95" width="54" height="3" rx="1.5"></rect>
                    <rect id="Rectangle-3-Copy-6" fill="#E0E0E0" x="79" y="125" width="39" height="3" rx="1.5"></rect>
                    <rect id="Rectangle-3-Copy-9" fill="#E0E0E0" x="79" y="102" width="39" height="3" rx="1.5"></rect>
                    <rect id="Rectangle-3-Copy-7" fill="#E0E0E0" x="79" y="132" width="51" height="3" rx="1.5"></rect>
                    <rect id="Rectangle-3-Copy-10" fill="#FFFFFF" x="79" y="109" width="51" height="3" rx="1.5"></rect>
                </g>
            </g>
        </g>
    </g>
</svg>