<?xml version="1.0" encoding="UTF-8" standalone="no"?>
<svg width="294px" height="196px" viewBox="0 0 294 196" version="1.1" xmlns="http://www.w3.org/2000/svg" xmlns:xlink="http://www.w3.org/1999/xlink">
    <!-- Generator: Sketch 47.1 (45422) - http://www.bohemiancoding.com/sketch -->
    <title>toast</title>
    <desc>Created with Sketch.</desc>
    <defs>
        <rect id="path-1" x="74" y="68" width="146" height="7" rx="1"></rect>
        <rect id="path-2" x="217" y="25" width="69" height="20"></rect>
        <filter x="-5.8%" y="-10.0%" width="111.6%" height="140.0%" filterUnits="objectBoundingBox" id="filter-3">
            <feOffset dx="0" dy="2" in="SourceAlpha" result="shadowOffsetOuter1"></feOffset>
            <feGaussianBlur stdDeviation="1" in="shadowOffsetOuter1" result="shadowBlurOuter1"></feGaussianBlur>
            <feColorMatrix values="0 0 0 0 0   0 0 0 0 0   0 0 0 0 0  0 0 0 0.32 0" type="matrix" in="shadowBlurOuter1"></feColorMatrix>
        </filter>
    </defs>
    <g id="thumbnails" stroke="none" stroke-width="1" fill="none" fill-rule="evenodd">
        <g id="Family-Images-Helix" transform="translate(-2303.000000, -1213.000000)">
            <g id="toast" transform="translate(2303.000000, 1213.000000)">
                <g id="Group-7">
                    <g id="Group-6">
                        <g id="Group-5">
                            <g id="help-link">
                                <g id="Group-2">
                                    <g id="Group-3">
                                        <g id="card-grid-copy">
                                            <g id="application-frame">
                                                <rect id="Rectangle" fill="#B6E3EB" fill-rule="evenodd" x="0" y="0" width="293" height="195"></rect>
                                                <rect id="Rectangle-Copy" fill="#16B9D4" fill-rule="evenodd" x="0" y="0" width="48.8333333" height="195"></rect>
                                                <rect id="Rectangle-Copy-2" fill="#0E94A6" fill-rule="evenodd" x="0" y="0" width="293" height="14.625"></rect>
                                                <g id="overlay-/-hidden"></g>
                                            </g>
                                        </g>
                                        <g id="box-/-content" transform="translate(63.000000, 37.000000)" fill="#FFFFFF">
                                            <rect id="Rectangle" x="0" y="0" width="164" height="158"></rect>
                                        </g>
                                        <g id="box-/-white-copy" transform="translate(226.500000, 37.000000)" fill="#F1EFEF">
                                            <rect id="Rectangle" x="0" y="0" width="67" height="158.125"></rect>
                                        </g>
                                    </g>
                                </g>
                            </g>
                            <g id="Rectangle-5">
                                <use fill="#E0E0E0" fill-rule="evenodd" xlink:href="#path-1"></use>
                                <rect stroke="#F1EFEF" stroke-width="1" x="74.5" y="68.5" width="145" height="6" rx="1"></rect>
                            </g>
                            <path d="M81,73.5625 L79.5759494,72.15625 C79.8291139,71.8125 79.9873418,71.40625 79.9873418,70.96875 C79.9873418,69.875 79.0696203,69 77.9936709,69 C76.8860759,69 76,69.875 76,70.96875 C76,72.0625 76.8860759,72.9375 77.9936709,72.9375 C78.4050633,72.9375 78.8164557,72.8125 79.1329114,72.59375 L80.556962,74 L81,73.5625 Z M76.6329114,70.96875 C76.6329114,70.21875 77.2341772,69.625 77.9936709,69.625 C78.7531646,69.625 79.3544304,70.21875 79.3544304,70.96875 C79.3544304,71.71875 78.7531646,72.3125 77.9936709,72.3125 C77.2341772,72.3125 76.6329114,71.71875 76.6329114,70.96875 Z" id="Shape" fill="#FFFFFF" fill-rule="nonzero"></path>
                            <g id="Group-4" transform="translate(74.000000, 79.000000)">
                                <g id="Group-3">
                                    <g id="Group-2" transform="translate(2.531792, 77.000000)" stroke="#979797">
                                        <path d="" id="Path-2"></path>
                                    </g>
                                    <rect id="Rectangle-2" stroke="#E0E0E0" x="0.5" y="0.5" width="145" height="16"></rect>
                                    <rect id="Rectangle-2-Copy-2" stroke="#E0E0E0" x="0.5" y="32.5" width="145" height="16"></rect>
                                    <rect id="Rectangle-2-Copy" stroke="#E0E0E0" x="0.5" y="16.5" width="145" height="16"></rect>
                                    <rect id="Rectangle-2-Copy-3" stroke="#E0E0E0" x="0.5" y="48.5" width="145" height="16"></rect>
                                    <rect id="Rectangle-2-Copy-4" stroke="#E0E0E0" x="0.5" y="64.5" width="145" height="16"></rect>
                                    <rect id="Rectangle-3-Copy-3" fill="#E0E0E0" x="68" y="6" width="19.4104046" height="5" rx="2.5"></rect>
                                    <rect id="Rectangle-3-Copy-5" fill="#E0E0E0" x="68" y="22" width="19.4104046" height="5" rx="2.5"></rect>
                                    <rect id="Rectangle-3-Copy-7" fill="#E0E0E0" x="68" y="38" width="19.4104046" height="5" rx="2.5"></rect>
                                    <rect id="Rectangle-3-Copy-25" fill="#E0E0E0" x="8" y="38" width="44.2921486" height="5" rx="2.5"></rect>
                                    <rect id="Rectangle-3-Copy-28" fill="#E0E0E0" x="8" y="6" width="44.2921486" height="5" rx="2.5"></rect>
                                    <rect id="Rectangle-3-Copy-9" fill="#E0E0E0" x="67.5895954" y="54" width="19.4104046" height="5" rx="2.5"></rect>
                                    <rect id="Rectangle-3-Copy-26" fill="#E0E0E0" x="8" y="54" width="44.2921486" height="5" rx="2.5"></rect>
                                    <rect id="Rectangle-3-Copy-29" fill="#E0E0E0" x="8" y="22" width="44.2921486" height="5" rx="2.5"></rect>
                                    <rect id="Rectangle-3-Copy-11" fill="#E0E0E0" x="67.5895954" y="70" width="19.4104046" height="5" rx="2.5"></rect>
                                    <rect id="Rectangle-3-Copy-27" fill="#E0E0E0" x="8" y="70" width="44.2921486" height="5" rx="2.5"></rect>
                                    <rect id="Rectangle-3-Copy-4" fill="#E0E0E0" x="105.491329" y="6" width="28.6936416" height="5" rx="2.5"></rect>
                                    <rect id="Rectangle-3-Copy-6" fill="#E0E0E0" x="105.491329" y="22" width="28.6936416" height="5" rx="2.5"></rect>
                                    <rect id="Rectangle-3-Copy-8" fill="#E0E0E0" x="105.491329" y="38" width="28.6936416" height="5" rx="2.5"></rect>
                                    <rect id="Rectangle-3-Copy-10" fill="#E0E0E0" x="105.491329" y="54" width="28.6936416" height="5" rx="2.5"></rect>
                                    <rect id="Rectangle-3-Copy-12" fill="#E0E0E0" x="105.491329" y="70" width="28.6936416" height="5" rx="2.5"></rect>
                                    <path d="M58.5,80.1173766 L58.5,0.0317321728" id="Path-3" stroke="#E0E0E0"></path>
                                    <path d="M95.5,80.1173766 L95.5,0.0317321728" id="Path-3-Copy" stroke="#E0E0E0"></path>
                                </g>
                            </g>
                        </g>
                    </g>
                    <g id="Rectangle-3">
                        <use fill="black" fill-opacity="1" filter="url(#filter-3)" xlink:href="#path-2"></use>
                        <use fill="#F57C00" fill-rule="evenodd" xlink:href="#path-2"></use>
                    </g>
                    <rect id="Rectangle-4" fill="#FFFFFF" x="217" y="25" width="3" height="20"></rect>
                    <rect id="Rectangle-6" fill="#FFFFFF" x="225" y="27" width="21" height="3"></rect>
                    <rect id="Rectangle-6-Copy" fill="#FFFFFF" x="225" y="33" width="14" height="2" rx="1"></rect>
                    <rect id="Rectangle-6-Copy-4" fill="#FFFFFF" x="225" y="36" width="24" height="2" rx="1"></rect>
                    <rect id="Rectangle-6-Copy-2" fill="#FFFFFF" x="240" y="33" width="32" height="2" rx="1"></rect>
                </g>
            </g>
        </g>
    </g>
</svg>