<?xml version="1.0" encoding="UTF-8" standalone="no"?>
<svg width="293px" height="195px" viewBox="0 0 293 195" version="1.1" xmlns="http://www.w3.org/2000/svg" xmlns:xlink="http://www.w3.org/1999/xlink">
    <!-- Generator: Sketch 46.2 (44496) - http://www.bohemiancoding.com/sketch -->
    <title>vertical-stepper</title>
    <desc>Created with Sketch.</desc>
    <defs></defs>
    <g id="thumbnails" stroke="none" stroke-width="1" fill="none" fill-rule="evenodd">
        <g id="Desktop" transform="translate(-280.000000, -20.000000)">
            <g id="thumbnails-/-vertical-stepper" transform="translate(280.000000, 20.000000)">
                <g id="application-frame">
                    <rect id="Rectangle" fill="#B6E3EB" fill-rule="evenodd" x="0" y="0" width="293" height="195"></rect>
                    <rect id="Rectangle-Copy" fill="#16B9D4" fill-rule="evenodd" x="0" y="0" width="48.8333333" height="195"></rect>
                    <rect id="Rectangle-Copy-2" fill="#0E94A6" fill-rule="evenodd" x="0" y="0" width="293" height="14.625"></rect>
                    <g id="overlay-/-hidden"></g>
                </g>
                <g id="pill-/-highlight" transform="translate(75.691667, 32.906250)" fill-rule="evenodd" fill="#F57C00">
                    <rect id="Rectangle" x="0" y="0" width="16" height="16" rx="8"></rect>
                </g>
                <g id="pill-/-highlight" transform="translate(75.691667, 65.812500)" fill-rule="evenodd" fill="#F57C00">
                    <rect id="Rectangle" x="0" y="0" width="16" height="16" rx="8"></rect>
                </g>
                <g id="pill-/-highlight" transform="translate(100.108333, 37.781250)" fill-rule="evenodd" fill="#F57C00">
                    <rect id="Rectangle" x="0" y="0" width="83" height="6" rx="3"></rect>
                </g>
                <g id="pill-/-highlight" transform="translate(100.108333, 70.687500)" fill-rule="evenodd" fill="#F57C00">
                    <rect id="Rectangle" x="0" y="0" width="83" height="6" rx="3"></rect>
                </g>
                <g id="pill-/-highlight" transform="translate(100.108333, 103.593750)" fill-rule="evenodd" fill="#F57C00">
                    <rect id="Rectangle" x="0" y="0" width="83" height="6" rx="3"></rect>
                </g>
                <g id="pill-/-highlight" transform="translate(100.108333, 136.500000)" fill-rule="evenodd" fill="#F57C00">
                    <rect id="Rectangle" x="0" y="0" width="83" height="6" rx="3"></rect>
                </g>
                <g id="pill-/-highlight" transform="translate(100.108333, 169.406250)" fill-rule="evenodd" fill="#F57C00">
                    <rect id="Rectangle" x="0" y="0" width="83" height="6" rx="3"></rect>
                </g>
                <g id="box-/-content" transform="translate(83.016667, 49.968750)" fill-rule="evenodd" fill="#FFFFFF">
                    <rect id="Rectangle" x="0" y="0" width="1" height="15"></rect>
                </g>
                <g id="box-/-content" transform="translate(83.016667, 82.875000)" fill-rule="evenodd" fill="#FFFFFF">
                    <rect id="Rectangle" x="0" y="0" width="1" height="15"></rect>
                </g>
                <g id="pill-/-highlight" transform="translate(75.691667, 98.718750)" fill-rule="evenodd" fill="#F57C00">
                    <rect id="Rectangle" x="0" y="0" width="16" height="16" rx="8"></rect>
                </g>
                <g id="box-/-content" transform="translate(83.016667, 115.781250)" fill-rule="evenodd" fill="#FFFFFF">
                    <rect id="Rectangle" x="0" y="0" width="1" height="15"></rect>
                </g>
                <g id="pill-/-highlight" transform="translate(75.691667, 131.625000)" fill-rule="evenodd" fill="#F57C00">
                    <rect id="Rectangle" x="0" y="0" width="16" height="16" rx="8"></rect>
                </g>
                <g id="box-/-content" transform="translate(83.016667, 148.687500)" fill-rule="evenodd" fill="#FFFFFF">
                    <rect id="Rectangle" x="0" y="0" width="1" height="15"></rect>
                </g>
                <g id="pill-/-highlight" transform="translate(75.691667, 164.531250)" fill-rule="evenodd" fill="#F57C00">
                    <rect id="Rectangle" x="0" y="0" width="16" height="16" rx="8"></rect>
                </g>
            </g>
        </g>
    </g>
</svg>