<?xml version="1.0" encoding="UTF-8" standalone="no"?>
<svg width="389px" height="51px" viewBox="0 0 389 51" version="1.1" xmlns="http://www.w3.org/2000/svg" xmlns:xlink="http://www.w3.org/1999/xlink">
    <!-- Generator: Sketch 47.1 (45422) - http://www.bohemiancoding.com/sketch -->
    <title>date-picker-date-range-selection-complete</title>
    <desc>Created with Sketch.</desc>
    <defs></defs>
    <g stroke="none" stroke-width="1" fill="none" fill-rule="evenodd">
        <g>
            <g transform="translate(2.000000, 20.000000)" fill="#FFFFFF">
                <rect x="0" y="0" width="122" height="30" rx="2"></rect>
            </g>
            <rect stroke="#BDBDBD" x="1.5" y="19.5" width="123" height="31" rx="2"></rect>
            <path d="M6.65136719,8.49121094 C6.65136719,8.03547949 6.48047046,7.65381013 6.13867187,7.34619141 C5.79687329,7.03857268 5.19075956,6.77994896 4.3203125,6.5703125 C3.26757286,6.31966021 2.44612925,5.95052327 1.85595703,5.46289062 C1.26578481,4.97525798 0.970703125,4.36230838 0.970703125,3.62402344 C0.970703125,2.84927998 1.28857104,2.20215104 1.92431641,1.68261719 C2.56006177,1.16308334 3.383784,0.903320312 4.39550781,0.903320312 C5.48470597,0.903320312 6.35172204,1.20181993 6.99658203,1.79882812 C7.64144203,2.39583632 7.95247407,3.08853772 7.9296875,3.87695312 L7.91601562,3.91796875 L6.63085937,3.91796875 C6.63085937,3.3346325 6.43831573,2.86295753 6.05322266,2.50292969 C5.66812958,2.14290185 5.1155635,1.96289062 4.39550781,1.96289062 C3.72558259,1.96289062 3.21175309,2.11441906 2.85400391,2.41748047 C2.49625472,2.72054188 2.31738281,3.11588298 2.31738281,3.60351562 C2.31738281,4.0364605 2.51106577,4.39762225 2.8984375,4.68701172 C3.28580923,4.97640119 3.91470919,5.23046766 4.78515625,5.44921875 C5.83333857,5.70898567 6.63085664,6.09179435 7.17773437,6.59765625 C7.72461211,7.10351815 7.99804687,7.73013949 7.99804687,8.47753906 C7.99804687,9.27962641 7.66992516,9.92447673 7.01367187,10.4121094 C6.35741859,10.899742 5.50065633,11.1435547 4.44335937,11.1435547 C3.44986482,11.1435547 2.57145564,10.8746772 1.80810547,10.3369141 C1.0447553,9.79915096 0.674479053,9.07910607 0.697265625,8.17675781 L0.7109375,8.13574219 L1.99609375,8.13574219 C1.99609375,8.77376621 2.23079192,9.25911292 2.70019531,9.59179688 C3.1695987,9.92448083 3.75064758,10.0908203 4.44335937,10.0908203 C5.12239923,10.0908203 5.66015427,9.94726706 6.05664062,9.66015625 C6.45312698,9.37304544 6.65136719,8.9834009 6.65136719,8.49121094 Z M12.7763672,11.1435547 C11.7464141,11.1435547 10.9272491,10.8006219 10.3188477,10.1147461 C9.71044618,9.42887027 9.40625,8.53906797 9.40625,7.4453125 L9.40625,7.14453125 C9.40625,6.09179161 9.71956067,5.21566105 10.3461914,4.51611328 C10.9728221,3.81656551 11.7145139,3.46679688 12.5712891,3.46679688 C13.5693409,3.46679688 14.3235652,3.76757512 14.8339844,4.36914062 C15.3444036,4.97070613 15.5996094,5.77278145 15.5996094,6.77539062 L15.5996094,7.61621094 L10.8007812,7.61621094 L10.7802734,7.65039062 C10.7939454,8.36133168 10.9739566,8.94579849 11.3203125,9.40380859 C11.6666684,9.8618187 12.1520151,10.0908203 12.7763672,10.0908203 C13.2320986,10.0908203 13.631997,10.0258796 13.9760742,9.89599609 C14.3201515,9.76611263 14.6175118,9.58724072 14.8681641,9.359375 L15.3945312,10.234375 C15.130207,10.4941419 14.7815777,10.7106111 14.3486328,10.8837891 C13.9156879,11.056967 13.3916046,11.1435547 12.7763672,11.1435547 Z M12.5712891,4.52636719 C12.1201149,4.52636719 11.7350276,4.71663221 11.4160156,5.09716797 C11.0970036,5.47770373 10.901042,5.95507525 10.828125,6.52929688 L10.8417969,6.56347656 L14.2529297,6.56347656 L14.2529297,6.38574219 C14.2529297,5.85709371 14.1116551,5.41504084 13.8291016,5.05957031 C13.5465481,4.70409979 13.1272814,4.52636719 12.5712891,4.52636719 Z M18.5664062,11 L17.2197266,11 L17.2197266,0.3359375 L18.5664062,0.3359375 L18.5664062,11 Z M23.7070312,11.1435547 C22.6770782,11.1435547 21.8579132,10.8006219 21.2495117,10.1147461 C20.6411102,9.42887027 20.3369141,8.53906797 20.3369141,7.4453125 L20.3369141,7.14453125 C20.3369141,6.09179161 20.6502247,5.21566105 21.2768555,4.51611328 C21.9034862,3.81656551 22.645178,3.46679688 23.5019531,3.46679688 C24.500005,3.46679688 25.2542292,3.76757512 25.7646484,4.36914062 C26.2750677,4.97070613 26.5302734,5.77278145 26.5302734,6.77539062 L26.5302734,7.61621094 L21.7314453,7.61621094 L21.7109375,7.65039062 C21.7246094,8.36133168 21.9046207,8.94579849 22.2509766,9.40380859 C22.5973325,9.8618187 23.0826792,10.0908203 23.7070312,10.0908203 C24.1627627,10.0908203 24.562661,10.0258796 24.9067383,9.89599609 C25.2508155,9.76611263 25.5481758,9.58724072 25.7988281,9.359375 L26.3251953,10.234375 C26.0608711,10.4941419 25.7122417,10.7106111 25.2792969,10.8837891 C24.846352,11.056967 24.3222687,11.1435547 23.7070312,11.1435547 Z M23.5019531,4.52636719 C23.050779,4.52636719 22.6656917,4.71663221 22.3466797,5.09716797 C22.0276677,5.47770373 21.8317061,5.95507525 21.7587891,6.52929688 L21.7724609,6.56347656 L25.1835937,6.56347656 L25.1835937,6.38574219 C25.1835937,5.85709371 25.0423191,5.41504084 24.7597656,5.05957031 C24.4772121,4.70409979 24.0579455,4.52636719 23.5019531,4.52636719 Z M31.0488281,10.0908203 C31.4954449,10.0908203 31.8885074,9.95296362 32.2280273,9.67724609 C32.5675473,9.40152857 32.7373047,9.06315305 32.7373047,8.66210938 L33.9472656,8.66210938 L33.9609375,8.703125 C33.9837241,9.34114902 33.7000355,9.90738685 33.1098633,10.4018555 C32.5196911,10.8963241 31.8326862,11.1435547 31.0488281,11.1435547 C29.9733019,11.1435547 29.150719,10.7926467 28.5810547,10.0908203 C28.0113904,9.38899389 27.7265625,8.50716677 27.7265625,7.4453125 L27.7265625,7.15820312 C27.7265625,6.10546349 28.0125297,5.2270543 28.5844727,4.52294922 C29.1564156,3.81884414 29.9778592,3.46679688 31.0488281,3.46679688 C31.9147179,3.46679688 32.6222303,3.72200266 33.1713867,4.23242188 C33.7205431,4.74284109 33.9860027,5.36946243 33.9677734,6.11230469 L33.9541016,6.15332031 L32.7373047,6.15332031 C32.7373047,5.70214618 32.5778011,5.3181982 32.2587891,5.00146484 C31.9397771,4.68473149 31.5364608,4.52636719 31.0488281,4.52636719 C30.3424444,4.52636719 29.8377294,4.78043366 29.534668,5.28857422 C29.2316066,5.79671478 29.0800781,6.41991818 29.0800781,7.15820312 L29.0800781,7.4453125 C29.0800781,8.2018267 29.2304672,8.83186597 29.53125,9.33544922 C29.8320328,9.83903247 30.3378871,10.0908203 31.0488281,10.0908203 Z M37.2490234,1.81933594 L37.2490234,3.60351562 L38.6503906,3.60351562 L38.6503906,4.6015625 L37.2490234,4.6015625 L37.2490234,9.09277344 C37.2490234,9.43912934 37.3208001,9.682942 37.4643555,9.82421875 C37.6079109,9.9654955 37.7981759,10.0361328 38.0351562,10.0361328 C38.1126306,10.0361328 38.198079,10.0270183 38.2915039,10.0087891 C38.3849289,9.9905598 38.4680986,9.96777357 38.5410156,9.94042969 L38.71875,10.8632812 C38.6184891,10.9453129 38.4715179,11.0125323 38.277832,11.0649414 C38.0841462,11.1173505 37.8893239,11.1435547 37.6933594,11.1435547 C37.1464816,11.1435547 36.7112646,10.9783545 36.3876953,10.6479492 C36.064126,10.3175439 35.9023437,9.79915718 35.9023437,9.09277344 L35.9023437,4.6015625 L34.7265625,4.6015625 L34.7265625,3.60351562 L35.9023437,3.60351562 L35.9023437,1.81933594 L37.2490234,1.81933594 Z M44.0439453,11 L44.0439453,1.046875 L47.0996094,1.046875 C48.4030013,1.046875 49.4488893,1.44677334 50.2373047,2.24658203 C51.0257201,3.04639072 51.4199219,4.07974627 51.4199219,5.34667969 L51.4199219,6.70703125 C51.4199219,7.97852198 51.0257201,9.01187753 50.2373047,9.80712891 C49.4488893,10.6023803 48.4030013,11 47.0996094,11 L44.0439453,11 Z M45.390625,2.10644531 L45.390625,9.94726562 L47.0996094,9.94726562 C48.0201869,9.94726562 48.7459283,9.64420876 49.2768555,9.03808594 C49.8077826,8.43196312 50.0732422,7.65495266 50.0732422,6.70703125 L50.0732422,5.33300781 C50.0732422,4.39420104 49.8077826,3.62174782 49.2768555,3.015625 C48.7459283,2.40950218 48.0201869,2.10644531 47.0996094,2.10644531 L45.390625,2.10644531 Z M57.5585938,11 C57.5130206,10.7766916 57.4777019,10.5795907 57.4526367,10.4086914 C57.4275715,10.2377921 57.4127604,10.0657561 57.4082031,9.89257812 C57.1575508,10.2480487 56.8305684,10.545409 56.4272461,10.784668 C56.0239238,11.023927 55.5898461,11.1435547 55.125,11.1435547 C54.3548139,11.1435547 53.7680684,10.9464538 53.3647461,10.5522461 C52.9614238,10.1580384 52.7597656,9.6145868 52.7597656,8.921875 C52.7597656,8.21549126 53.0457328,7.66292517 53.6176758,7.26416016 C54.1896187,6.86539514 54.9654899,6.66601562 55.9453125,6.66601562 L57.4082031,6.66601562 L57.4082031,5.93457031 C57.4082031,5.50162544 57.276043,5.15869267 57.0117188,4.90576172 C56.7473945,4.65283077 56.3737003,4.52636719 55.890625,4.52636719 C55.4576801,4.52636719 55.1056329,4.63688041 54.8344727,4.85791016 C54.5633124,5.07893991 54.4277344,5.34439949 54.4277344,5.65429688 L53.1425781,5.65429688 L53.1289062,5.61328125 C53.1015624,5.07551814 53.3556288,4.58333557 53.8911133,4.13671875 C54.4265977,3.69010193 55.1181598,3.46679688 55.9658203,3.46679688 C56.8043662,3.46679688 57.4788386,3.67984813 57.9892578,4.10595703 C58.499677,4.53206593 58.7548828,5.14615484 58.7548828,5.94824219 L58.7548828,9.50976562 C58.7548828,9.77408986 58.7685546,10.0292956 58.7958984,10.2753906 C58.8232423,10.5214856 58.873372,10.7630196 58.9462891,11 L57.5585938,11 Z M55.3232422,10.015625 C55.8108748,10.015625 56.2506491,9.89030073 56.6425781,9.63964844 C57.0345072,9.38899614 57.2897129,9.10188964 57.4082031,8.77832031 L57.4082031,7.57519531 L55.8974609,7.57519531 C55.3551405,7.57519531 54.9210628,7.7119127 54.5952148,7.98535156 C54.2693669,8.25879043 54.1064453,8.58007628 54.1064453,8.94921875 C54.1064453,9.27734539 54.2089833,9.53710842 54.4140625,9.72851562 C54.6191417,9.91992283 54.9221985,10.015625 55.3232422,10.015625 Z M62.4873047,1.81933594 L62.4873047,3.60351562 L63.8886719,3.60351562 L63.8886719,4.6015625 L62.4873047,4.6015625 L62.4873047,9.09277344 C62.4873047,9.43912934 62.5590813,9.682942 62.7026367,9.82421875 C62.8461921,9.9654955 63.0364571,10.0361328 63.2734375,10.0361328 C63.3509118,10.0361328 63.4363602,10.0270183 63.5297852,10.0087891 C63.6232101,9.9905598 63.7063798,9.96777357 63.7792969,9.94042969 L63.9570312,10.8632812 C63.8567703,10.9453129 63.7097991,11.0125323 63.5161133,11.0649414 C63.3224274,11.1173505 63.1276051,11.1435547 62.9316406,11.1435547 C62.3847629,11.1435547 61.9495459,10.9783545 61.6259766,10.6479492 C61.3024072,10.3175439 61.140625,9.79915718 61.140625,9.09277344 L61.140625,4.6015625 L59.9648438,4.6015625 L59.9648438,3.60351562 L61.140625,3.60351562 L61.140625,1.81933594 L62.4873047,1.81933594 Z M68.6191406,11.1435547 C67.5891876,11.1435547 66.7700226,10.8006219 66.1616211,10.1147461 C65.5532196,9.42887027 65.2490234,8.53906797 65.2490234,7.4453125 L65.2490234,7.14453125 C65.2490234,6.09179161 65.5623341,5.21566105 66.1889648,4.51611328 C66.8155956,3.81656551 67.5572874,3.46679688 68.4140625,3.46679688 C69.4121144,3.46679688 70.1663386,3.76757512 70.6767578,4.36914062 C71.187177,4.97070613 71.4423828,5.77278145 71.4423828,6.77539062 L71.4423828,7.61621094 L66.6435547,7.61621094 L66.6230469,7.65039062 C66.6367188,8.36133168 66.81673,8.94579849 67.1630859,9.40380859 C67.5094418,9.8618187 67.9947885,10.0908203 68.6191406,10.0908203 C69.0748721,10.0908203 69.4747704,10.0258796 69.8188477,9.89599609 C70.1629249,9.76611263 70.4602852,9.58724072 70.7109375,9.359375 L71.2373047,10.234375 C70.9729804,10.4941419 70.6243511,10.7106111 70.1914062,10.8837891 C69.7584614,11.056967 69.2343781,11.1435547 68.6191406,11.1435547 Z M68.4140625,4.52636719 C67.9628884,4.52636719 67.5778011,4.71663221 67.2587891,5.09716797 C66.9397771,5.47770373 66.7438155,5.95507525 66.6708984,6.52929688 L66.6845703,6.56347656 L70.0957031,6.56347656 L70.0957031,6.38574219 C70.0957031,5.85709371 69.9544285,5.41504084 69.671875,5.05957031 C69.3893215,4.70409979 68.9700549,4.52636719 68.4140625,4.52636719 Z M77.2529297,9.03808594 C77.2529297,8.7418605 77.1401378,8.49804783 76.9145508,8.30664062 C76.6889637,8.11523342 76.2617219,7.94889394 75.6328125,7.80761719 C74.7350216,7.61165267 74.0594098,7.34619308 73.605957,7.01123047 C73.1525042,6.67626786 72.9257812,6.21940394 72.9257812,5.640625 C72.9257812,5.03905949 73.180987,4.52636931 73.6914062,4.10253906 C74.2018255,3.67870882 74.8671834,3.46679688 75.6875,3.46679688 C76.5488324,3.46679688 77.2335587,3.68782331 77.7416992,4.12988281 C78.2498398,4.57194231 78.4925131,5.10969735 78.4697266,5.74316406 L78.4560547,5.78417969 L77.1708984,5.78417969 C77.1708984,5.46061036 77.0353204,5.17008592 76.7641602,4.91259766 C76.4929999,4.65510939 76.1341168,4.52636719 75.6875,4.52636719 C75.208982,4.52636719 74.8535168,4.63118385 74.6210938,4.84082031 C74.3886707,5.05045678 74.2724609,5.30338394 74.2724609,5.59960938 C74.2724609,5.8912775 74.374999,6.12141843 74.5800781,6.29003906 C74.7851573,6.4586597 75.2021453,6.60904882 75.8310547,6.74121094 C76.7653042,6.94173277 77.4602842,7.21402823 77.9160156,7.55810547 C78.3717471,7.90218271 78.5996094,8.36360388 78.5996094,8.94238281 C78.5996094,9.59863609 78.3341498,10.1295553 77.8032227,10.5351562 C77.2722955,10.9407572 76.5784548,11.1435547 75.7216797,11.1435547 C74.7783156,11.1435547 74.0354845,10.9042993 73.4931641,10.4257812 C72.9508436,9.94726323 72.6933592,9.38900059 72.7207031,8.75097656 L72.734375,8.70996094 L74.0195312,8.70996094 C74.0423178,9.18847896 74.2200504,9.53824759 74.5527344,9.75927734 C74.8854183,9.98030709 75.2750629,10.0908203 75.7216797,10.0908203 C76.2001977,10.0908203 76.5750312,9.99397883 76.8461914,9.80029297 C77.1173516,9.6066071 77.2529297,9.35254063 77.2529297,9.03808594 Z" fill="#616161"></path>
            <path d="M115.608696,29.2810458 L114.304348,29.2810458 L114.304348,28 L113,28 L113,31.2941177 L111.695652,31.2941177 L111.695652,29.2810458 L108.043478,29.2810458 L108.043478,28 L106.826087,28 L106.826087,31.2941177 L105.521739,31.2941177 L105.521739,29.2810458 L104.304348,29.2810458 C103.608696,29.2810458 103,29.9215686 103,30.6535948 L103,40.627451 C103,41.3594771 103.608696,42 104.304348,42 L115.695652,42 C116.391304,42 117,41.3594771 117,40.627451 L117,30.6535948 C116.913044,29.9215686 116.304348,29.2810458 115.608696,29.2810458 Z M107.117647,39.5294118 L104.647059,39.5294118 L104.647059,37.0588235 L107.117647,37.0588235 L107.117647,39.5294118 Z M107.117647,35.4117647 L104.647059,35.4117647 L104.647059,32.9411765 L107.117647,32.9411765 L107.117647,35.4117647 Z M111.235294,39.5294118 L108.764706,39.5294118 L108.764706,37.0588235 L111.152941,37.0588235 L111.152941,39.5294118 L111.235294,39.5294118 Z M111.235294,35.4117647 L108.764706,35.4117647 L108.764706,32.9411765 L111.152941,32.9411765 L111.152941,35.4117647 L111.235294,35.4117647 Z M115.352941,35.4117647 L112.882353,35.4117647 L112.882353,32.9411765 L115.352941,32.9411765 L115.352941,35.4117647 Z" fill="#757575" fill-rule="nonzero"></path>
            <path d="M14.3203125,42 L12.78125,42 L12.78125,32.125 L10.453125,32.15625 L10.453125,31.046875 L14.3203125,30.625 L14.3203125,42 Z M26.3046875,31.8359375 C24.9296806,33.4713623 24.0013045,34.9205666 23.5195312,36.1835938 C23.037758,37.4466209 22.6901052,38.9765535 22.4765625,40.7734375 L22.3515625,42 L20.8125,42 L20.9375,40.7734375 C21.1562511,38.9817619 21.580726,37.3802154 22.2109375,35.96875 C22.841149,34.5572846 23.7031195,33.1796942 24.796875,31.8359375 L18.609375,31.8359375 L18.609375,30.625 L26.3046875,30.625 L26.3046875,31.8359375 Z M28.453125,42.9765625 L27.140625,42.9765625 L31.890625,30.625 L33.1953125,30.625 L28.453125,42.9765625 Z M38.9765625,42 L37.4375,42 L37.4375,32.125 L35.109375,32.15625 L35.109375,31.046875 L38.9765625,30.625 L38.9765625,42 Z M50.7890625,37.6640625 C50.7890625,39.1171948 50.4674511,40.2304649 49.8242188,41.0039062 C49.1809864,41.7773476 48.2994848,42.1640625 47.1796875,42.1640625 C46.0598902,42.1640625 45.1744824,41.7760455 44.5234375,41 C43.8723926,40.2239545 43.546875,39.1119864 43.546875,37.6640625 L43.546875,34.96875 C43.546875,33.5208261 43.8710905,32.407556 44.5195312,31.6289062 C45.167972,30.8502565 46.0494736,30.4609375 47.1640625,30.4609375 C48.2838598,30.4609375 49.1679655,30.8502565 49.8164062,31.6289062 C50.464847,32.407556 50.7890625,33.5208261 50.7890625,34.96875 L50.7890625,37.6640625 Z M49.25,34.640625 C49.25,33.6562451 49.0716164,32.9153671 48.7148438,32.4179688 C48.3580711,31.9205704 47.8411492,31.671875 47.1640625,31.671875 C46.4869758,31.671875 45.9713559,31.9205704 45.6171875,32.4179688 C45.2630191,32.9153671 45.0859375,33.6562451 45.0859375,34.640625 L45.0859375,37.9765625 C45.0859375,38.9609424 45.2656232,39.7044246 45.625,40.2070312 C45.9843768,40.7096379 46.5026008,40.9609375 47.1796875,40.9609375 C47.8567742,40.9609375 48.371092,40.71094 48.7226562,40.2109375 C49.0742205,39.710935 49.25,38.9661508 49.25,37.9765625 L49.25,34.640625 Z M53.1171875,42.9765625 L51.8046875,42.9765625 L56.5546875,30.625 L57.859375,30.625 L53.1171875,42.9765625 Z M66.6171875,42 L59.2421875,42 L59.2421875,40.9453125 L62.96875,36.8046875 C63.63542,36.0598921 64.0872384,35.4687522 64.3242188,35.03125 C64.5611991,34.5937478 64.6796875,34.1458356 64.6796875,33.6875 C64.6796875,33.1197888 64.5143246,32.641929 64.1835938,32.2539062 C63.8528629,31.8658835 63.4140652,31.671875 62.8671875,31.671875 C62.0807252,31.671875 61.5013039,31.8736959 61.1289063,32.2773438 C60.7565086,32.6809916 60.5703125,33.2473922 60.5703125,33.9765625 L59.09375,33.9765625 L59.078125,33.9296875 C59.0520832,32.9505159 59.3776008,32.1276075 60.0546875,31.4609375 C60.7317742,30.7942675 61.6692648,30.4609375 62.8671875,30.4609375 C63.8880259,30.4609375 64.7018199,30.7591116 65.3085938,31.3554687 C65.9153676,31.9518259 66.21875,32.7109329 66.21875,33.6328125 C66.21875,34.2526073 66.0351581,34.8736948 65.6679688,35.4960938 C65.3007794,36.1184927 64.7864616,36.7864548 64.125,37.5 L61.1328125,40.7578125 L61.1484375,40.796875 L66.6171875,40.796875 L66.6171875,42 Z M75.453125,37.6640625 C75.453125,39.1171948 75.1315136,40.2304649 74.4882812,41.0039062 C73.8450489,41.7773476 72.9635473,42.1640625 71.84375,42.1640625 C70.7239527,42.1640625 69.8385449,41.7760455 69.1875,41 C68.5364551,40.2239545 68.2109375,39.1119864 68.2109375,37.6640625 L68.2109375,34.96875 C68.2109375,33.5208261 68.535153,32.407556 69.1835938,31.6289062 C69.8320345,30.8502565 70.7135361,30.4609375 71.828125,30.4609375 C72.9479223,30.4609375 73.832028,30.8502565 74.4804688,31.6289062 C75.1289095,32.407556 75.453125,33.5208261 75.453125,34.96875 L75.453125,37.6640625 Z M73.9140625,34.640625 C73.9140625,33.6562451 73.7356789,32.9153671 73.3789062,32.4179688 C73.0221336,31.9205704 72.5052117,31.671875 71.828125,31.671875 C71.1510383,31.671875 70.6354184,31.9205704 70.28125,32.4179688 C69.9270816,32.9153671 69.75,33.6562451 69.75,34.640625 L69.75,37.9765625 C69.75,38.9609424 69.9296857,39.7044246 70.2890625,40.2070312 C70.6484393,40.7096379 71.1666633,40.9609375 71.84375,40.9609375 C72.5208367,40.9609375 73.0351545,40.71094 73.3867188,40.2109375 C73.738283,39.710935 73.9140625,38.9661508 73.9140625,37.9765625 L73.9140625,34.640625 Z M81.6640625,42 L80.125,42 L80.125,32.125 L77.796875,32.15625 L77.796875,31.046875 L81.6640625,30.625 L81.6640625,42 Z M93.6484375,31.8359375 C92.2734306,33.4713623 91.3450545,34.9205666 90.8632812,36.1835938 C90.381508,37.4466209 90.0338552,38.9765535 89.8203125,40.7734375 L89.6953125,42 L88.15625,42 L88.28125,40.7734375 C88.5000011,38.9817619 88.924476,37.3802154 89.5546875,35.96875 C90.184899,34.5572846 91.0468695,33.1796942 92.140625,31.8359375 L85.953125,31.8359375 L85.953125,30.625 L93.6484375,30.625 L93.6484375,31.8359375 Z" fill="#616161"></path>
            <g transform="translate(134.000000, 20.000000)" fill="#FFFFFF">
                <rect x="0" y="0" width="122" height="30" rx="2"></rect>
            </g>
            <rect stroke="#BDBDBD" x="133.5" y="19.5" width="123" height="31" rx="2"></rect>
            <path d="M247.608696,29.2810458 L246.304348,29.2810458 L246.304348,28 L245,28 L245,31.2941177 L243.695652,31.2941177 L243.695652,29.2810458 L240.043478,29.2810458 L240.043478,28 L238.826087,28 L238.826087,31.2941177 L237.521739,31.2941177 L237.521739,29.2810458 L236.304348,29.2810458 C235.608696,29.2810458 235,29.9215686 235,30.6535948 L235,40.627451 C235,41.3594771 235.608696,42 236.304348,42 L247.695652,42 C248.391304,42 249,41.3594771 249,40.627451 L249,30.6535948 C248.913043,29.9215686 248.304348,29.2810458 247.608696,29.2810458 Z M239.117647,39.5294118 L236.647059,39.5294118 L236.647059,37.0588235 L239.117647,37.0588235 L239.117647,39.5294118 Z M239.117647,35.4117647 L236.647059,35.4117647 L236.647059,32.9411765 L239.117647,32.9411765 L239.117647,35.4117647 Z M243.235294,39.5294118 L240.764706,39.5294118 L240.764706,37.0588235 L243.152941,37.0588235 L243.152941,39.5294118 L243.235294,39.5294118 Z M243.235294,35.4117647 L240.764706,35.4117647 L240.764706,32.9411765 L243.152941,32.9411765 L243.152941,35.4117647 L243.235294,35.4117647 Z M247.352941,35.4117647 L244.882353,35.4117647 L244.882353,32.9411765 L247.352941,32.9411765 L247.352941,35.4117647 Z" fill="#757575" fill-rule="nonzero"></path>
            <path d="M146.320312,42 L144.78125,42 L144.78125,32.125 L142.453125,32.15625 L142.453125,31.046875 L146.320312,30.625 L146.320312,42 Z M151.375,36.8671875 L152.03125,30.625 L157.726562,30.625 L157.726562,31.9921875 L153.335938,31.9921875 L152.960938,35.1875 C153.200522,35.0104158 153.467446,34.8632818 153.761719,34.7460938 C154.055991,34.6289057 154.395831,34.5651042 154.78125,34.5546875 C155.82813,34.5442708 156.652341,34.8854132 157.253906,35.578125 C157.855472,36.2708368 158.15625,37.2031191 158.15625,38.375 C158.15625,39.5156307 157.850263,40.4322882 157.238281,41.125 C156.626299,41.8177118 155.734381,42.1640625 154.5625,42.1640625 C153.598954,42.1640625 152.796878,41.9010443 152.15625,41.375 C151.515622,40.8489557 151.208333,40.0755259 151.234375,39.0546875 L151.25,39.0078125 L152.640625,39.0078125 C152.640625,39.6276073 152.819009,40.1080712 153.175781,40.4492188 C153.532554,40.7903663 153.994789,40.9609375 154.5625,40.9609375 C155.213545,40.9609375 155.718748,40.7317731 156.078125,40.2734375 C156.437502,39.8151019 156.617188,39.187504 156.617188,38.390625 C156.617188,37.6614547 156.434898,37.0625023 156.070312,36.59375 C155.705727,36.1249977 155.203128,35.890625 154.5625,35.890625 C153.95833,35.890625 153.520835,35.9817699 153.25,36.1640625 C152.979165,36.3463551 152.781251,36.6249981 152.65625,37 L151.375,36.8671875 Z M160.453125,42.9765625 L159.140625,42.9765625 L163.890625,30.625 L165.195312,30.625 L160.453125,42.9765625 Z M170.976562,42 L169.4375,42 L169.4375,32.125 L167.109375,32.15625 L167.109375,31.046875 L170.976562,30.625 L170.976562,42 Z M182.960938,42 L175.585938,42 L175.585938,40.9453125 L179.3125,36.8046875 C179.97917,36.0598921 180.430988,35.4687522 180.667969,35.03125 C180.904949,34.5937478 181.023438,34.1458356 181.023438,33.6875 C181.023438,33.1197888 180.858075,32.641929 180.527344,32.2539062 C180.196613,31.8658835 179.757815,31.671875 179.210938,31.671875 C178.424475,31.671875 177.845054,31.8736959 177.472656,32.2773438 C177.100259,32.6809916 176.914062,33.2473922 176.914062,33.9765625 L175.4375,33.9765625 L175.421875,33.9296875 C175.395833,32.9505159 175.721351,32.1276075 176.398438,31.4609375 C177.075524,30.7942675 178.013015,30.4609375 179.210938,30.4609375 C180.231776,30.4609375 181.04557,30.7591116 181.652344,31.3554688 C182.259118,31.9518259 182.5625,32.7109329 182.5625,33.6328125 C182.5625,34.2526073 182.378908,34.8736948 182.011719,35.4960938 C181.644529,36.1184927 181.130212,36.7864548 180.46875,37.5 L177.476562,40.7578125 L177.492188,40.796875 L182.960938,40.796875 L182.960938,42 Z M185.109375,42.9765625 L183.796875,42.9765625 L188.546875,30.625 L189.851562,30.625 L185.109375,42.9765625 Z M198.609375,42 L191.234375,42 L191.234375,40.9453125 L194.960938,36.8046875 C195.627608,36.0598921 196.079426,35.4687522 196.316406,35.03125 C196.553387,34.5937478 196.671875,34.1458356 196.671875,33.6875 C196.671875,33.1197888 196.506512,32.641929 196.175781,32.2539062 C195.84505,31.8658835 195.406253,31.671875 194.859375,31.671875 C194.072913,31.671875 193.493491,31.8736959 193.121094,32.2773438 C192.748696,32.6809916 192.5625,33.2473922 192.5625,33.9765625 L191.085938,33.9765625 L191.070312,33.9296875 C191.044271,32.9505159 191.369788,32.1276075 192.046875,31.4609375 C192.723962,30.7942675 193.661452,30.4609375 194.859375,30.4609375 C195.880213,30.4609375 196.694007,30.7591116 197.300781,31.3554688 C197.907555,31.9518259 198.210938,32.7109329 198.210938,33.6328125 C198.210938,34.2526073 198.027346,34.8736948 197.660156,35.4960938 C197.292967,36.1184927 196.778649,36.7864548 196.117188,37.5 L193.125,40.7578125 L193.140625,40.796875 L198.609375,40.796875 L198.609375,42 Z M207.445312,37.6640625 C207.445312,39.1171948 207.123701,40.2304649 206.480469,41.0039062 C205.837236,41.7773476 204.955735,42.1640625 203.835938,42.1640625 C202.71614,42.1640625 201.830732,41.7760455 201.179688,41 C200.528643,40.2239545 200.203125,39.1119864 200.203125,37.6640625 L200.203125,34.96875 C200.203125,33.5208261 200.527341,32.407556 201.175781,31.6289062 C201.824222,30.8502565 202.705724,30.4609375 203.820312,30.4609375 C204.94011,30.4609375 205.824216,30.8502565 206.472656,31.6289062 C207.121097,32.407556 207.445312,33.5208261 207.445312,34.96875 L207.445312,37.6640625 Z M205.90625,34.640625 C205.90625,33.6562451 205.727866,32.9153671 205.371094,32.4179688 C205.014321,31.9205704 204.497399,31.671875 203.820312,31.671875 C203.143226,31.671875 202.627606,31.9205704 202.273438,32.4179688 C201.919269,32.9153671 201.742188,33.6562451 201.742188,34.640625 L201.742188,37.9765625 C201.742188,38.9609424 201.921873,39.7044246 202.28125,40.2070312 C202.640627,40.7096379 203.158851,40.9609375 203.835938,40.9609375 C204.513024,40.9609375 205.027342,40.71094 205.378906,40.2109375 C205.730471,39.710935 205.90625,38.9661508 205.90625,37.9765625 L205.90625,34.640625 Z M213.65625,42 L212.117188,42 L212.117188,32.125 L209.789062,32.15625 L209.789062,31.046875 L213.65625,30.625 L213.65625,42 Z M225.640625,31.8359375 C224.265618,33.4713623 223.337242,34.9205666 222.855469,36.1835938 C222.373696,37.4466209 222.026043,38.9765535 221.8125,40.7734375 L221.6875,42 L220.148438,42 L220.273438,40.7734375 C220.492189,38.9817619 220.916664,37.3802154 221.546875,35.96875 C222.177086,34.5572846 223.039057,33.1796942 224.132812,31.8359375 L217.945312,31.8359375 L217.945312,30.625 L225.640625,30.625 L225.640625,31.8359375 Z" fill="#616161"></path>
        </g>
    </g>
</svg>