<?xml version="1.0" encoding="UTF-8" standalone="no"?>
<svg width="351px" height="286px" viewBox="0 0 351 286" version="1.1" xmlns="http://www.w3.org/2000/svg" xmlns:xlink="http://www.w3.org/1999/xlink">
    <!-- Generator: Sketch 47.1 (45422) - http://www.bohemiancoding.com/sketch -->
    <title>date-picker-month-picker-specifications</title>
    <desc>Created with Sketch.</desc>
    <defs>
        <polygon id="path-1" points="0 280 256 280 256 0 0 0"></polygon>
        <filter x="-2.3%" y="-1.1%" width="104.7%" height="104.3%" filterUnits="objectBoundingBox" id="filter-2">
            <feOffset dx="0" dy="3" in="SourceAlpha" result="shadowOffsetOuter1"></feOffset>
            <feGaussianBlur stdDeviation="1.5" in="shadowOffsetOuter1" result="shadowBlurOuter1"></feGaussianBlur>
            <feColorMatrix values="0 0 0 0 0   0 0 0 0 0   0 0 0 0 0  0 0 0 0.16 0" type="matrix" in="shadowBlurOuter1"></feColorMatrix>
        </filter>
    </defs>
    <g stroke="none" stroke-width="1" fill="none" fill-rule="evenodd">
        <g transform="translate(3.000000, 0.000000)">
            <g>
                <polygon fill="#000000" fill-rule="nonzero" points="0 280 256 280 256 0 0 0"></polygon>
                <g>
                    <use fill="black" fill-opacity="1" filter="url(#filter-2)" xlink:href="#path-1"></use>
                    <use fill="#757575" fill-rule="evenodd" xlink:href="#path-1"></use>
                </g>
                <rect fill="#757575" x="0" y="65" width="256" height="31"></rect>
                <path d="M89.4375,84.2109375 C89.4375,83.5911427 89.2057315,83.0846374 88.7421875,82.6914062 C88.2786435,82.2981751 87.4713599,81.9505223 86.3203125,81.6484375 C85.0755146,81.3359359 84.1328157,80.92969 83.4921875,80.4296875 C82.8515593,79.929685 82.53125,79.2552126 82.53125,78.40625 C82.53125,77.536454 82.8893193,76.8281277 83.6054688,76.28125 C84.3216182,75.7343723 85.2421819,75.4609375 86.3671875,75.4609375 C87.5390684,75.4609375 88.4843714,75.7864551 89.203125,76.4375 C89.9218786,77.0885449 90.2708334,77.8828078 90.25,78.8203125 L90.2265625,78.8671875 L89.3671875,78.8671875 C89.3671875,78.106767 89.0976589,77.4817733 88.5585938,76.9921875 C88.0195286,76.5026017 87.2890671,76.2578125 86.3671875,76.2578125 C85.4557246,76.2578125 84.7434921,76.4609355 84.2304688,76.8671875 C83.7174454,77.2734395 83.4609375,77.7786428 83.4609375,78.3828125 C83.4609375,78.955732 83.6979143,79.4335918 84.171875,79.8164062 C84.6458357,80.1992207 85.4635359,80.5364569 86.625,80.828125 C87.8489645,81.1406266 88.7799447,81.5624973 89.4179688,82.09375 C90.0559928,82.6250027 90.375,83.3255165 90.375,84.1953125 C90.375,85.101567 90.00391,85.822914 89.2617188,86.359375 C88.5195275,86.895836 87.5729224,87.1640625 86.421875,87.1640625 C85.2864527,87.1640625 84.2955771,86.8789091 83.4492188,86.3085938 C82.6028604,85.7382784 82.1927082,84.9062555 82.21875,83.8125 L82.234375,83.765625 L83.09375,83.765625 C83.09375,84.6510461 83.4244759,85.3072895 84.0859375,85.734375 C84.7473991,86.1614605 85.5260372,86.375 86.421875,86.375 C87.3229212,86.375 88.0507785,86.1770853 88.6054688,85.78125 C89.160159,85.3854147 89.4375,84.8619824 89.4375,84.2109375 Z M95.4609375,87.1640625 C94.4036405,87.1640625 93.5247431,86.7734414 92.8242188,85.9921875 C92.1236944,85.2109336 91.7734375,84.2213602 91.7734375,83.0234375 L91.7734375,82.59375 C91.7734375,81.3854106 92.1210903,80.3828165 92.8164062,79.5859375 C93.5117222,78.7890585 94.3541617,78.390625 95.34375,78.390625 C96.3802135,78.390625 97.1953095,78.7187467 97.7890625,79.375 C98.3828155,80.0312533 98.6796875,80.9062445 98.6796875,82 L98.6796875,82.796875 L92.7109375,82.796875 L92.7109375,83.0234375 C92.7109375,83.9765673 92.9635391,84.7734343 93.46875,85.4140625 C93.9739609,86.0546907 94.6380167,86.375 95.4609375,86.375 C96.0442738,86.375 96.5416646,86.2942716 96.953125,86.1328125 C97.3645854,85.9713534 97.7161444,85.7395848 98.0078125,85.4375 L98.40625,86.078125 C98.0885401,86.41146 97.6862004,86.6757803 97.1992188,86.8710938 C96.7122371,87.0664072 96.1328159,87.1640625 95.4609375,87.1640625 Z M95.34375,79.1875 C94.6510382,79.1875 94.0703148,79.4518203 93.6015625,79.9804688 C93.1328102,80.5091172 92.8593754,81.171871 92.78125,81.96875 L92.796875,82.0078125 L97.75,82.0078125 L97.75,81.7734375 C97.75,81.0390588 97.5338563,80.4244816 97.1015625,79.9296875 C96.6692687,79.4348934 96.083337,79.1875 95.34375,79.1875 Z M101.578125,87 L100.648438,87 L100.648438,74.8125 L101.578125,74.8125 L101.578125,87 Z M107.335938,87.1640625 C106.278641,87.1640625 105.399743,86.7734414 104.699219,85.9921875 C103.998694,85.2109336 103.648438,84.2213602 103.648438,83.0234375 L103.648438,82.59375 C103.648438,81.3854106 103.99609,80.3828165 104.691406,79.5859375 C105.386722,78.7890585 106.229162,78.390625 107.21875,78.390625 C108.255214,78.390625 109.07031,78.7187467 109.664063,79.375 C110.257815,80.0312533 110.554688,80.9062445 110.554688,82 L110.554688,82.796875 L104.585938,82.796875 L104.585938,83.0234375 C104.585938,83.9765673 104.838539,84.7734343 105.34375,85.4140625 C105.848961,86.0546907 106.513017,86.375 107.335938,86.375 C107.919274,86.375 108.416665,86.2942716 108.828125,86.1328125 C109.239585,85.9713534 109.591144,85.7395848 109.882813,85.4375 L110.28125,86.078125 C109.96354,86.41146 109.5612,86.6757803 109.074219,86.8710938 C108.587237,87.0664072 108.007816,87.1640625 107.335938,87.1640625 Z M107.21875,79.1875 C106.526038,79.1875 105.945315,79.4518203 105.476562,79.9804688 C105.00781,80.5091172 104.734375,81.171871 104.65625,81.96875 L104.671875,82.0078125 L109.625,82.0078125 L109.625,81.7734375 C109.625,81.0390588 109.408856,80.4244816 108.976562,79.9296875 C108.544269,79.4348934 107.958337,79.1875 107.21875,79.1875 Z M115.539062,86.375 C116.158857,86.375 116.705727,86.1979184 117.179688,85.84375 C117.653648,85.4895816 117.890625,84.997399 117.890625,84.3671875 L118.71875,84.3671875 L118.734375,84.4140625 C118.760417,85.1953164 118.44792,85.8489557 117.796875,86.375 C117.14583,86.9010443 116.393233,87.1640625 115.539062,87.1640625 C114.388015,87.1640625 113.498701,86.7695352 112.871094,85.9804688 C112.243486,85.1914023 111.929688,84.1770895 111.929688,82.9375 L111.929688,82.609375 C111.929688,81.3802022 112.244789,80.3697956 112.875,79.578125 C113.505211,78.7864544 114.390619,78.390625 115.53125,78.390625 C116.458338,78.390625 117.230466,78.6640598 117.847656,79.2109375 C118.464847,79.7578152 118.763021,80.476558 118.742188,81.3671875 L118.726562,81.4140625 L117.890625,81.4140625 C117.890625,80.7369758 117.662763,80.1966166 117.207031,79.7929688 C116.7513,79.3893209 116.192712,79.1875 115.53125,79.1875 C114.624995,79.1875 113.954429,79.5117155 113.519531,80.1601562 C113.084633,80.808597 112.867188,81.6249951 112.867188,82.609375 L112.867188,82.9375 C112.867188,83.937505 113.083331,84.7604134 113.515625,85.40625 C113.947919,86.0520866 114.622391,86.375 115.539062,86.375 Z M122.164062,76.3828125 L122.164062,78.546875 L124.023438,78.546875 L124.023438,79.3125 L122.164062,79.3125 L122.164062,84.8203125 C122.164062,85.3723986 122.264322,85.7643218 122.464844,85.9960938 C122.665366,86.2278657 122.93229,86.34375 123.265625,86.34375 C123.416667,86.34375 123.563801,86.3372396 123.707031,86.3242188 C123.850261,86.3111979 124.015624,86.2890627 124.203125,86.2578125 L124.34375,86.953125 C124.187499,87.0208337 123.997397,87.0729165 123.773438,87.109375 C123.549478,87.1458335 123.325522,87.1640625 123.101562,87.1640625 C122.50781,87.1640625 122.045575,86.9765644 121.714844,86.6015625 C121.384113,86.2265606 121.21875,85.6328166 121.21875,84.8203125 L121.21875,79.3125 L119.757812,79.3125 L119.757812,78.546875 L121.21875,78.546875 L121.21875,76.3828125 L122.164062,76.3828125 Z M131.382812,75.625 L135.5625,85.640625 L135.609375,85.640625 L139.804688,75.625 L141.039062,75.625 L141.039062,87 L140.109375,87 L140.109375,81.9765625 L140.1875,77 L140.140625,76.984375 L135.914062,87 L135.265625,87 L131.046875,77.03125 L131,77.0390625 L131.085938,81.9765625 L131.085938,87 L130.15625,87 L130.15625,75.625 L131.382812,75.625 Z M143.242188,82.6484375 C143.242188,81.4036396 143.58333,80.3828165 144.265625,79.5859375 C144.94792,78.7890585 145.851557,78.390625 146.976562,78.390625 C148.106776,78.390625 149.013017,78.7890585 149.695312,79.5859375 C150.377608,80.3828165 150.71875,81.4036396 150.71875,82.6484375 L150.71875,82.90625 C150.71875,84.1562562 150.37891,85.1783814 149.699219,85.9726562 C149.019528,86.7669311 148.117193,87.1640625 146.992188,87.1640625 C145.856765,87.1640625 144.94792,86.7669311 144.265625,85.9726562 C143.58333,85.1783814 143.242188,84.1562562 143.242188,82.90625 L143.242188,82.6484375 Z M144.179688,82.90625 C144.179688,83.8854216 144.427081,84.70833 144.921875,85.375 C145.416669,86.04167 146.106766,86.375 146.992188,86.375 C147.861984,86.375 148.54557,86.04167 149.042969,85.375 C149.540367,84.70833 149.789062,83.8854216 149.789062,82.90625 L149.789062,82.6484375 C149.789062,81.684891 149.539065,80.8671909 149.039062,80.1953125 C148.53906,79.5234341 147.851567,79.1875 146.976562,79.1875 C146.101558,79.1875 145.416669,79.5234341 144.921875,80.1953125 C144.427081,80.8671909 144.179688,81.684891 144.179688,82.6484375 L144.179688,82.90625 Z M153.5,78.546875 L153.585938,80.0234375 C153.856772,79.5026016 154.222654,79.1002618 154.683594,78.8164062 C155.144534,78.5325507 155.690101,78.390625 156.320312,78.390625 C157.236984,78.390625 157.934893,78.6705701 158.414062,79.2304688 C158.893232,79.7903674 159.132812,80.6640566 159.132812,81.8515625 L159.132812,87 L158.195312,87 L158.195312,81.859375 C158.195312,80.8906202 158.014325,80.2057312 157.652344,79.8046875 C157.290363,79.4036438 156.776045,79.203125 156.109375,79.203125 C155.453122,79.203125 154.917971,79.3763004 154.503906,79.7226562 C154.089842,80.0690121 153.791668,80.528643 153.609375,81.1015625 L153.609375,87 L152.671875,87 L152.671875,78.546875 L153.5,78.546875 Z M163.046875,76.3828125 L163.046875,78.546875 L164.90625,78.546875 L164.90625,79.3125 L163.046875,79.3125 L163.046875,84.8203125 C163.046875,85.3723986 163.147134,85.7643218 163.347656,85.9960938 C163.548178,86.2278657 163.815102,86.34375 164.148438,86.34375 C164.29948,86.34375 164.446614,86.3372396 164.589844,86.3242188 C164.733074,86.3111979 164.898437,86.2890627 165.085938,86.2578125 L165.226562,86.953125 C165.070312,87.0208337 164.880209,87.0729165 164.65625,87.109375 C164.432291,87.1458335 164.208334,87.1640625 163.984375,87.1640625 C163.390622,87.1640625 162.928387,86.9765644 162.597656,86.6015625 C162.266925,86.2265606 162.101562,85.6328166 162.101562,84.8203125 L162.101562,79.3125 L160.640625,79.3125 L160.640625,78.546875 L162.101562,78.546875 L162.101562,76.3828125 L163.046875,76.3828125 Z M167.828125,79.9921875 C168.109376,79.4869766 168.484373,79.0937514 168.953125,78.8125 C169.421877,78.5312486 169.968747,78.390625 170.59375,78.390625 C171.484379,78.390625 172.167966,78.6666639 172.644531,79.21875 C173.121096,79.7708361 173.359375,80.6275984 173.359375,81.7890625 L173.359375,87 L172.421875,87 L172.421875,81.7734375 C172.421875,80.8567662 172.240887,80.1992207 171.878906,79.8007812 C171.516925,79.4023418 171.018232,79.203125 170.382812,79.203125 C169.742184,79.203125 169.207033,79.3710921 168.777344,79.7070312 C168.347654,80.0429704 168.031251,80.4895805 167.828125,81.046875 L167.828125,87 L166.890625,87 L166.890625,74.8125 L167.828125,74.8125 L167.828125,79.9921875 Z" fill="#FFFFFF"></path>
                <rect fill="#616161" x="220" y="0" width="36" height="64"></rect>
                <polygon fill="#FFFFFF" fill-rule="nonzero" transform="translate(238.000000, 31.840839) scale(-1, 1) rotate(90.000000) translate(-238.000000, -31.840839) " points="233.147407 28.0723093 232 29.1149521 237.967146 35.6816777 244 29.0426431 242.852592 28.0000002 237.967146 33.3763358"></polygon>
                <rect fill="#616161" x="0" y="0" width="36" height="64"></rect>
                <polygon fill="#FFFFFF" fill-rule="nonzero" transform="translate(18.000000, 31.840839) rotate(90.000000) translate(-18.000000, -31.840839) " points="13.1474078 28.0723093 12.0000002 29.1149521 17.9671468 35.6816777 24.0000002 29.0426431 22.8525927 28.0000002 17.9671468 33.3763358"></polygon>
                <path d="M77.4746094,23.7890625 L83.7441406,38.8125 L83.8144531,38.8125 L90.1074219,23.7890625 L91.9589844,23.7890625 L91.9589844,40.8515625 L90.5644531,40.8515625 L90.5644531,33.3164062 L90.6816406,25.8515625 L90.6113281,25.828125 L84.2714844,40.8515625 L83.2988281,40.8515625 L76.9707031,25.8984375 L76.9003906,25.9101562 L77.0292969,33.3164062 L77.0292969,40.8515625 L75.6347656,40.8515625 L75.6347656,23.7890625 L77.4746094,23.7890625 Z M105.810547,36.09375 L97.9941406,36.09375 L96.2363281,40.8515625 L94.7832031,40.8515625 L101.263672,23.7890625 L102.587891,23.7890625 L109.021484,40.8515625 L107.568359,40.8515625 L105.810547,36.09375 Z M98.4628906,34.8398438 L105.353516,34.8398438 L101.955078,25.6054688 L101.884766,25.6054688 L98.4628906,34.8398438 Z M115.560547,33.2695312 L120.845703,23.7890625 L122.474609,23.7890625 L116.251953,34.6171875 L116.251953,40.8515625 L114.857422,40.8515625 L114.857422,34.5351562 L108.681641,23.7890625 L110.310547,23.7890625 L115.560547,33.2695312 Z M140.908203,40.8515625 L130.314453,40.8515625 L130.314453,39.7734375 L135.904297,33.4335938 C136.935552,32.2695254 137.66406,31.2949258 138.089844,30.5097656 C138.515627,29.7246054 138.728516,28.9726598 138.728516,28.2539062 C138.728516,27.1914009 138.42969,26.339847 137.832031,25.6992188 C137.234372,25.0585905 136.388677,24.7382812 135.294922,24.7382812 C133.99804,24.7382812 133.013675,25.0976527 132.341797,25.8164062 C131.669919,26.5351598 131.333984,27.4960877 131.333984,28.6992188 L130.033203,28.6992188 L130.009766,28.6289062 C129.970703,27.2070241 130.431636,26.0039112 131.392578,25.0195312 C132.35352,24.0351513 133.654289,23.5429688 135.294922,23.5429688 C136.763679,23.5429688 137.939449,23.9648395 138.822266,24.8085938 C139.705083,25.652348 140.146484,26.7851491 140.146484,28.2070312 C140.146484,29.1445359 139.851565,30.0956983 139.261719,31.0605469 C138.671872,32.0253954 137.849615,33.1015566 136.794922,34.2890625 L132.095703,39.609375 L132.119141,39.6679688 L140.908203,39.6679688 L140.908203,40.8515625 Z M154.419922,34.2304688 C154.419922,36.4336048 153.943364,38.1289003 152.990234,39.3164062 C152.037105,40.5039122 150.712899,41.0976562 149.017578,41.0976562 C147.33007,41.0976562 146.003911,40.5019591 145.039062,39.3105469 C144.074214,38.1191347 143.591797,36.4257922 143.591797,34.2304688 L143.591797,30.421875 C143.591797,28.2265515 144.068355,26.531256 145.021484,25.3359375 C145.974614,24.140619 147.29882,23.5429688 148.994141,23.5429688 C150.689462,23.5429688 152.017573,24.140619 152.978516,25.3359375 C153.939458,26.531256 154.419922,28.2265515 154.419922,30.421875 L154.419922,34.2304688 Z M153.013672,30.1875 C153.013672,28.4374913 152.669925,27.0918016 151.982422,26.1503906 C151.294918,25.2089797 150.298835,24.7382812 148.994141,24.7382812 C147.689447,24.7382812 146.697269,25.2089797 146.017578,26.1503906 C145.337887,27.0918016 144.998047,28.4374913 144.998047,30.1875 L144.998047,34.4414062 C144.998047,36.1757899 145.343747,37.5214796 146.035156,38.4785156 C146.726566,39.4355517 147.720697,39.9140625 149.017578,39.9140625 C150.31446,39.9140625 151.304684,39.4375048 151.988281,38.484375 C152.671878,37.5312452 153.013672,36.1836025 153.013672,34.4414062 L153.013672,30.1875 Z M163.947266,40.9335938 L162.541016,40.9335938 L162.541016,25.2539062 L158.205078,25.7578125 L158.205078,24.7734375 L163.947266,23.7421875 L163.947266,40.9335938 Z M181.396484,24.984375 C179.552725,27.1718859 178.142583,29.3925669 177.166016,31.6464844 C176.189448,33.9004019 175.537111,36.4921729 175.208984,39.421875 L175.080078,40.8515625 L173.673828,40.8515625 L173.802734,39.421875 C174.130861,36.5312355 174.810542,33.9160273 175.841797,31.5761719 C176.873052,29.2363164 178.240226,27.0390728 179.943359,24.984375 L170.205078,24.984375 L170.205078,23.7890625 L181.396484,23.7890625 L181.396484,24.984375 Z" fill="#FFFFFF"></path>
                <path d="M189.003906,255 L189.003906,243.625 L192.308594,243.625 C193.699226,243.625 194.847652,244.088537 195.753906,245.015625 C196.660161,245.942713 197.113281,247.132805 197.113281,248.585938 L197.113281,250.046875 C197.113281,251.505216 196.660161,252.695308 195.753906,253.617188 C194.847652,254.539067 193.699226,255 192.308594,255 L189.003906,255 Z M189.933594,244.421875 L189.933594,254.210938 L192.308594,254.210938 C193.433599,254.210938 194.359371,253.817712 195.085938,253.03125 C195.812504,252.244788 196.175781,251.250006 196.175781,250.046875 L196.175781,248.5625 C196.175781,247.374994 195.811202,246.388025 195.082031,245.601562 C194.352861,244.8151 193.428391,244.421875 192.308594,244.421875 L189.933594,244.421875 Z M205.910156,249.492188 L200.433594,249.492188 L200.433594,254.210938 L206.707031,254.210938 L206.707031,255 L199.503906,255 L199.503906,243.625 L206.667969,243.625 L206.667969,244.421875 L200.433594,244.421875 L200.433594,248.695312 L205.910156,248.695312 L205.910156,249.492188 Z M216.558594,251.445312 L216.574219,251.492188 C216.47526,252.632818 216.069014,253.529945 215.355469,254.183594 C214.641924,254.837243 213.686204,255.164062 212.488281,255.164062 C211.22265,255.164062 210.201827,254.707036 209.425781,253.792969 C208.649736,252.878902 208.261719,251.69532 208.261719,250.242188 L208.261719,248.390625 C208.261719,246.942701 208.649736,245.759119 209.425781,244.839844 C210.201827,243.920568 211.22265,243.460938 212.488281,243.460938 C213.696621,243.460938 214.654944,243.781247 215.363281,244.421875 C216.071618,245.062503 216.47526,245.963536 216.574219,247.125 L216.558594,247.171875 L215.683594,247.171875 C215.558593,246.229162 215.234378,245.507815 214.710938,245.007812 C214.187497,244.50781 213.446619,244.257812 212.488281,244.257812 C211.493485,244.257812 210.695316,244.643225 210.09375,245.414062 C209.492185,246.1849 209.191406,247.171869 209.191406,248.375 L209.191406,250.242188 C209.191406,251.460944 209.492185,252.454423 210.09375,253.222656 C210.695316,253.990889 211.493485,254.375 212.488281,254.375 C213.446619,254.375 214.1888,254.130211 214.714844,253.640625 C215.240888,253.151039 215.563802,252.419276 215.683594,251.445312 L216.558594,251.445312 Z" fill="#FFFFFF"></path>
                <path d="M121.457031,255 L120.527344,255 L114.066406,245.21875 L114.019531,245.226562 L114.019531,255 L113.082031,255 L113.082031,243.625 L114.019531,243.625 L120.480469,253.390625 L120.527344,253.382812 L120.527344,243.625 L121.457031,243.625 L121.457031,255 Z M132.746094,250.242188 C132.746094,251.710945 132.343754,252.898433 131.539063,253.804688 C130.734371,254.710942 129.654955,255.164062 128.300781,255.164062 C126.967441,255.164062 125.90365,254.710942 125.109375,253.804688 C124.3151,252.898433 123.917969,251.710945 123.917969,250.242188 L123.917969,248.390625 C123.917969,246.927076 124.313798,245.739588 125.105469,244.828125 C125.897139,243.916662 126.959629,243.460938 128.292969,243.460938 C129.647142,243.460938 130.727861,243.916662 131.535156,244.828125 C132.342452,245.739588 132.746094,246.927076 132.746094,248.390625 L132.746094,250.242188 Z M131.816406,248.375 C131.816406,247.145827 131.505211,246.156254 130.882813,245.40625 C130.260414,244.656246 129.397141,244.28125 128.292969,244.28125 C127.20963,244.28125 126.365888,244.656246 125.761719,245.40625 C125.157549,246.156254 124.855469,247.145827 124.855469,248.375 L124.855469,250.242188 C124.855469,251.481777 125.158851,252.476559 125.765625,253.226562 C126.372399,253.976566 127.217443,254.351562 128.300781,254.351562 C129.410162,254.351562 130.273434,253.977868 130.890625,253.230469 C131.507816,252.483069 131.816406,251.486985 131.816406,250.242188 L131.816406,248.375 Z M138.230469,253.078125 L138.457031,253.835938 L138.503906,253.835938 L138.730469,253.078125 L142.144531,243.625 L143.160156,243.625 L138.917969,255 L138.035156,255 L133.792969,243.625 L134.808594,243.625 L138.230469,253.078125 Z" fill="#FFFFFF"></path>
                <path d="M48.1601562,250.242188 C48.1601562,251.710945 47.7578165,252.898433 46.953125,253.804688 C46.1484334,254.710942 45.0690171,255.164062 43.7148437,255.164062 C42.3815037,255.164062 41.3177123,254.710942 40.5234375,253.804688 C39.7291626,252.898433 39.3320312,251.710945 39.3320312,250.242188 L39.3320312,248.390625 C39.3320312,246.927076 39.7278606,245.739588 40.5195312,244.828125 C41.3112018,243.916662 42.3736912,243.460938 43.7070312,243.460938 C45.0612046,243.460938 46.141923,243.916662 46.9492187,244.828125 C47.7565144,245.739588 48.1601562,246.927076 48.1601562,248.390625 L48.1601562,250.242188 Z M47.2304687,248.375 C47.2304687,247.145827 46.9192739,246.156254 46.296875,245.40625 C45.674476,244.656246 44.8112034,244.28125 43.7070312,244.28125 C42.6236925,244.28125 41.7799509,244.656246 41.1757812,245.40625 C40.5716115,246.156254 40.2695312,247.145827 40.2695312,248.375 L40.2695312,250.242188 C40.2695312,251.481777 40.5729136,252.476559 41.1796875,253.226562 C41.7864613,253.976566 42.631505,254.351562 43.7148437,254.351562 C44.8242242,254.351562 45.6874969,253.977868 46.3046875,253.230469 C46.921878,252.483069 47.2304687,251.486985 47.2304687,250.242188 L47.2304687,248.375 Z M58.4570312,251.445312 L58.4726562,251.492188 C58.3736974,252.632818 57.9674514,253.529945 57.2539062,254.183594 C56.540361,254.837243 55.5846414,255.164062 54.3867187,255.164062 C53.1210874,255.164062 52.1002642,254.707036 51.3242187,253.792969 C50.5481732,252.878902 50.1601562,251.69532 50.1601562,250.242188 L50.1601562,248.390625 C50.1601562,246.942701 50.5481732,245.759119 51.3242187,244.839844 C52.1002642,243.920568 53.1210874,243.460938 54.3867187,243.460938 C55.5950581,243.460938 56.5533818,243.781247 57.2617187,244.421875 C57.9700556,245.062503 58.3736974,245.963536 58.4726562,247.125 L58.4570312,247.171875 L57.5820312,247.171875 C57.4570306,246.229162 57.1328151,245.507815 56.609375,245.007812 C56.0859348,244.50781 55.3450568,244.257812 54.3867187,244.257812 C53.3919221,244.257812 52.593753,244.643225 51.9921875,245.414062 C51.3906219,246.1849 51.0898437,247.171869 51.0898437,248.375 L51.0898437,250.242188 C51.0898437,251.460944 51.3906219,252.454423 51.9921875,253.222656 C52.593753,253.990889 53.3919221,254.375 54.3867187,254.375 C55.3450568,254.375 56.0872369,254.130211 56.6132812,253.640625 C57.1393255,253.151039 57.4622389,252.419276 57.5820312,251.445312 L58.4570312,251.445312 Z M68.2773437,244.421875 L64.3632812,244.421875 L64.3632812,255 L63.4257812,255 L63.4257812,244.421875 L59.5117187,244.421875 L59.5117187,243.625 L68.2773437,243.625 L68.2773437,244.421875 Z" fill="#FFFFFF"></path>
                <path d="M196.132812,212.210937 C196.132812,211.591143 195.901044,211.084637 195.4375,210.691406 C194.973956,210.298175 194.166672,209.950522 193.015625,209.648437 C191.770827,209.335936 190.828128,208.92969 190.1875,208.429687 C189.546872,207.929685 189.226562,207.255213 189.226562,206.40625 C189.226562,205.536454 189.584632,204.828128 190.300781,204.28125 C191.016931,203.734372 191.937494,203.460937 193.0625,203.460937 C194.234381,203.460937 195.179684,203.786455 195.898438,204.4375 C196.617191,205.088545 196.966146,205.882808 196.945312,206.820312 L196.921875,206.867187 L196.0625,206.867187 C196.0625,206.106767 195.792971,205.481773 195.253906,204.992187 C194.714841,204.502602 193.98438,204.257812 193.0625,204.257812 C192.151037,204.257812 191.438805,204.460935 190.925781,204.867187 C190.412758,205.27344 190.15625,205.778643 190.15625,206.382812 C190.15625,206.955732 190.393227,207.433592 190.867188,207.816406 C191.341148,208.199221 192.158848,208.536457 193.320312,208.828125 C194.544277,209.140627 195.475257,209.562497 196.113281,210.09375 C196.751305,210.625003 197.070312,211.325516 197.070312,212.195312 C197.070312,213.101567 196.699222,213.822914 195.957031,214.359375 C195.21484,214.895836 194.268235,215.164062 193.117188,215.164062 C191.981765,215.164062 190.99089,214.878909 190.144531,214.308594 C189.298173,213.738278 188.888021,212.906255 188.914062,211.8125 L188.929688,211.765625 L189.789062,211.765625 C189.789062,212.651046 190.119788,213.30729 190.78125,213.734375 C191.442712,214.16146 192.22135,214.375 193.117188,214.375 C194.018234,214.375 194.746091,214.177085 195.300781,213.78125 C195.855472,213.385415 196.132812,212.861982 196.132812,212.210937 Z M205.648438,209.492187 L200.171875,209.492187 L200.171875,214.210937 L206.445312,214.210937 L206.445312,215 L199.242188,215 L199.242188,203.625 L206.40625,203.625 L206.40625,204.421875 L200.171875,204.421875 L200.171875,208.695312 L205.648438,208.695312 L205.648438,209.492187 Z M209.390625,210.273437 L209.390625,215 L208.460938,215 L208.460938,203.625 L212.375,203.625 C213.567714,203.625 214.490882,203.928382 215.144531,204.535156 C215.79818,205.14193 216.125,205.945307 216.125,206.945312 C216.125,207.955734 215.79818,208.763018 215.144531,209.367187 C214.490882,209.971357 213.567714,210.273437 212.375,210.273437 L209.390625,210.273437 Z M209.390625,209.476562 L212.375,209.476562 C213.312505,209.476562 214.016925,209.238284 214.488281,208.761719 C214.959638,208.285154 215.195312,207.684899 215.195312,206.960937 C215.195312,206.231767 214.96094,205.626304 214.492188,205.144531 C214.023435,204.662758 213.317713,204.421875 212.375,204.421875 L209.390625,204.421875 L209.390625,209.476562 Z" fill="#FFFFFF"></path>
                <path d="M119.332031,211.828125 L114.121094,211.828125 L112.949219,215 L111.980469,215 L116.300781,203.625 L117.183594,203.625 L121.472656,215 L120.503906,215 L119.332031,211.828125 Z M114.433594,210.992187 L119.027344,210.992187 L116.761719,204.835937 L116.714844,204.835937 L114.433594,210.992187 Z M131.035156,203.625 L131.035156,211.335937 C131.035156,212.575527 130.656254,213.523434 129.898438,214.179687 C129.140621,214.835941 128.15235,215.164062 126.933594,215.164062 C125.730463,215.164062 124.756514,214.834639 124.011719,214.175781 C123.266923,213.516924 122.894531,212.570319 122.894531,211.335937 L122.894531,203.625 L123.832031,203.625 L123.832031,211.335937 C123.832031,212.304692 124.118487,213.053383 124.691406,213.582031 C125.264326,214.11068 126.011714,214.375 126.933594,214.375 C127.871098,214.375 128.634112,214.111982 129.222656,213.585937 C129.811201,213.059893 130.105469,212.309901 130.105469,211.335937 L130.105469,203.625 L131.035156,203.625 Z M141.933594,213.648437 C141.678384,214.018231 141.213545,214.36328 140.539063,214.683594 C139.86458,215.003908 139.014328,215.164062 137.988281,215.164062 C136.665358,215.164062 135.580733,214.713546 134.734375,213.8125 C133.888017,212.911454 133.464844,211.744799 133.464844,210.3125 L133.464844,208.226562 C133.464844,206.820305 133.867184,205.674484 134.671875,204.789062 C135.476567,203.903641 136.519525,203.460937 137.800781,203.460937 C139.024746,203.460937 139.981767,203.766924 140.671875,204.378906 C141.361983,204.990888 141.761718,205.786453 141.871094,206.765625 L141.855469,206.8125 L140.988281,206.8125 C140.852864,206.05208 140.532555,205.4362 140.027344,204.964844 C139.522133,204.493487 138.779953,204.257812 137.800781,204.257812 C136.779943,204.257812 135.958336,204.6276 135.335938,205.367187 C134.713539,206.106775 134.402344,207.054682 134.402344,208.210937 L134.402344,210.3125 C134.402344,211.500006 134.73307,212.473955 135.394531,213.234375 C136.055993,213.994795 136.920568,214.375 137.988281,214.375 C138.743493,214.375 139.385414,214.269532 139.914063,214.058594 C140.442711,213.847655 140.803385,213.617189 140.996094,213.367187 L140.996094,210.398437 L137.972656,210.398437 L137.972656,209.601562 L141.933594,209.601562 L141.933594,213.648437 Z" fill="#FFFFFF"></path>
                <path d="M45.9609375,203.625 L46.8984375,203.625 L46.8984375,211.773437 C46.8984375,212.809901 46.5898468,213.634112 45.9726563,214.246094 C45.3554657,214.858076 44.5572966,215.164062 43.578125,215.164062 C42.5104113,215.164062 41.6666698,214.888024 41.046875,214.335937 C40.4270802,213.783851 40.1302082,212.976568 40.15625,211.914062 L40.171875,211.867187 L41.046875,211.867187 C41.046875,212.690108 41.2656228,213.3138 41.703125,213.738281 C42.1406272,214.162763 42.7656209,214.375 43.578125,214.375 C44.2708368,214.375 44.8411436,214.139325 45.2890625,213.667969 C45.7369814,213.196612 45.9609375,212.565108 45.9609375,211.773437 L45.9609375,203.625 Z M57.765625,203.625 L57.765625,211.335937 C57.765625,212.575527 57.3867225,213.523434 56.6289063,214.179687 C55.87109,214.835941 54.8828186,215.164062 53.6640625,215.164062 C52.4609315,215.164062 51.4869829,214.834639 50.7421875,214.175781 C49.9973921,213.516924 49.625,212.570319 49.625,211.335937 L49.625,203.625 L50.5625,203.625 L50.5625,211.335937 C50.5625,212.304692 50.8489555,213.053383 51.421875,213.582031 C51.9947945,214.11068 52.7421829,214.375 53.6640625,214.375 C54.6015672,214.375 55.3645804,214.111982 55.953125,213.585937 C56.5416696,213.059893 56.8359375,212.309901 56.8359375,211.335937 L56.8359375,203.625 L57.765625,203.625 Z M61.484375,214.210937 L67.109375,214.210937 L67.109375,215 L60.546875,215 L60.546875,203.625 L61.484375,203.625 L61.484375,214.210937 Z" fill="#FFFFFF"></path>
                <path d="M193.496094,163.625 L194.433594,163.625 L194.433594,171.773438 C194.433594,172.809901 194.125003,173.634112 193.507812,174.246094 C192.890622,174.858076 192.092453,175.164062 191.113281,175.164062 C190.045568,175.164062 189.201826,174.888024 188.582031,174.335938 C187.962236,173.783851 187.665364,172.976568 187.691406,171.914062 L187.707031,171.867188 L188.582031,171.867188 C188.582031,172.690108 188.800779,173.3138 189.238281,173.738281 C189.675783,174.162763 190.300777,174.375 191.113281,174.375 C191.805993,174.375 192.3763,174.139325 192.824219,173.667969 C193.272138,173.196612 193.496094,172.565108 193.496094,171.773438 L193.496094,163.625 Z M205.300781,163.625 L205.300781,171.335938 C205.300781,172.575527 204.921879,173.523434 204.164062,174.179688 C203.406246,174.835941 202.417975,175.164062 201.199219,175.164062 C199.996088,175.164062 199.022139,174.834639 198.277344,174.175781 C197.532548,173.516924 197.160156,172.570319 197.160156,171.335938 L197.160156,163.625 L198.097656,163.625 L198.097656,171.335938 C198.097656,172.304692 198.384112,173.053383 198.957031,173.582031 C199.529951,174.11068 200.277339,174.375 201.199219,174.375 C202.136723,174.375 202.899737,174.111982 203.488281,173.585938 C204.076826,173.059893 204.371094,172.309901 204.371094,171.335938 L204.371094,163.625 L205.300781,163.625 Z M216.457031,175 L215.527344,175 L209.066406,165.21875 L209.019531,165.226562 L209.019531,175 L208.082031,175 L208.082031,163.625 L209.019531,163.625 L215.480469,173.390625 L215.527344,173.382812 L215.527344,163.625 L216.457031,163.625 L216.457031,175 Z" fill="#FFFFFF"></path>
                <path d="M113.726563,163.625 L117.90625,173.640625 L117.953125,173.640625 L122.148438,163.625 L123.382813,163.625 L123.382813,175 L122.453125,175 L122.453125,169.976562 L122.53125,165 L122.484375,164.984375 L118.257813,175 L117.609375,175 L113.390625,165.03125 L113.34375,165.039062 L113.429688,169.976562 L113.429688,175 L112.5,175 L112.5,163.625 L113.726563,163.625 Z M132.617188,171.828125 L127.40625,171.828125 L126.234375,175 L125.265625,175 L129.585938,163.625 L130.46875,163.625 L134.757812,175 L133.789062,175 L132.617188,171.828125 Z M127.71875,170.992188 L132.3125,170.992188 L130.046875,164.835938 L130,164.835938 L127.71875,170.992188 Z M139.117188,169.945312 L142.640625,163.625 L143.726562,163.625 L139.578125,170.84375 L139.578125,175 L138.648438,175 L138.648438,170.789062 L134.53125,163.625 L135.617188,163.625 L139.117188,169.945312 Z" fill="#FFFFFF"></path>
                <path d="M45.890625,171.828125 L40.6796875,171.828125 L39.5078125,175 L38.5390625,175 L42.859375,163.625 L43.7421875,163.625 L48.03125,175 L47.0625,175 L45.890625,171.828125 Z M40.9921875,170.992188 L45.5859375,170.992188 L43.3203125,164.835938 L43.2734375,164.835938 L40.9921875,170.992188 Z M50.703125,170.273438 L50.703125,175 L49.7734375,175 L49.7734375,163.625 L53.6875,163.625 C54.8802143,163.625 55.8033821,163.928382 56.4570312,164.535156 C57.1106804,165.14193 57.4375,165.945308 57.4375,166.945312 C57.4375,167.955734 57.1106804,168.763018 56.4570312,169.367188 C55.8033821,169.971357 54.8802143,170.273438 53.6875,170.273438 L50.703125,170.273438 Z M50.703125,169.476562 L53.6875,169.476562 C54.6250047,169.476562 55.3294247,169.238284 55.8007812,168.761719 C56.2721378,168.285154 56.5078125,167.684899 56.5078125,166.960938 C56.5078125,166.231767 56.2734398,165.626304 55.8046875,165.144531 C55.3359352,164.662758 54.630213,164.421875 53.6875,164.421875 L50.703125,164.421875 L50.703125,169.476562 Z M60.578125,169.859375 L60.578125,175 L59.6484375,175 L59.6484375,163.632812 L63.5,163.632812 C64.7187561,163.632812 65.6536426,163.899737 66.3046875,164.433594 C66.9557324,164.967451 67.28125,165.747391 67.28125,166.773438 C67.28125,167.377607 67.1067726,167.917966 66.7578125,168.394531 C66.4088524,168.871096 65.9166698,169.218749 65.28125,169.4375 C65.9843785,169.614584 66.4908839,169.930987 66.8007812,170.386719 C67.1106786,170.84245 67.265625,171.414059 67.265625,172.101562 L67.265625,173.171875 C67.265625,173.526043 67.3072912,173.843749 67.390625,174.125 C67.4739588,174.406251 67.6119782,174.635416 67.8046875,174.8125 L67.8046875,175 L66.8515625,175 C66.6588532,174.812499 66.5234379,174.549481 66.4453125,174.210938 C66.3671871,173.872394 66.328125,173.520835 66.328125,173.15625 L66.328125,172.117188 C66.328125,171.419267 66.1028668,170.868492 65.6523438,170.464844 C65.2018207,170.061196 64.5729207,169.859375 63.765625,169.859375 L60.578125,169.859375 Z M60.578125,169.0625 L63.3828125,169.0625 C64.4088593,169.0625 65.1588518,168.855471 65.6328125,168.441406 C66.1067732,168.027342 66.34375,167.468754 66.34375,166.765625 C66.34375,166.015621 66.1080753,165.438804 65.6367188,165.035156 C65.1653622,164.631508 64.4531298,164.429688 63.5,164.429688 L60.578125,164.429688 L60.578125,169.0625 Z" fill="#FFFFFF"></path>
                <path d="M187.953125,123.625 L192.132812,133.640625 L192.179688,133.640625 L196.375,123.625 L197.609375,123.625 L197.609375,135 L196.679688,135 L196.679688,129.976562 L196.757812,125 L196.710938,124.984375 L192.484375,135 L191.835938,135 L187.617188,125.03125 L187.570312,125.039062 L187.65625,129.976562 L187.65625,135 L186.726562,135 L186.726562,123.625 L187.953125,123.625 Z M206.84375,131.828125 L201.632812,131.828125 L200.460938,135 L199.492188,135 L203.8125,123.625 L204.695312,123.625 L208.984375,135 L208.015625,135 L206.84375,131.828125 Z M201.945312,130.992188 L206.539062,130.992188 L204.273438,124.835937 L204.226562,124.835937 L201.945312,130.992188 Z M211.632812,129.859375 L211.632812,135 L210.703125,135 L210.703125,123.632812 L214.554688,123.632812 C215.773444,123.632812 216.70833,123.899737 217.359375,124.433594 C218.01042,124.967451 218.335938,125.747391 218.335938,126.773437 C218.335938,127.377607 218.16146,127.917966 217.8125,128.394531 C217.46354,128.871096 216.971357,129.218749 216.335938,129.4375 C217.039066,129.614584 217.545571,129.930987 217.855469,130.386719 C218.165366,130.84245 218.320312,131.414059 218.320312,132.101562 L218.320312,133.171875 C218.320312,133.526043 218.361979,133.843749 218.445312,134.125 C218.528646,134.406251 218.666666,134.635416 218.859375,134.8125 L218.859375,135 L217.90625,135 C217.713541,134.812499 217.578125,134.549481 217.5,134.210938 C217.421875,133.872394 217.382812,133.520835 217.382812,133.15625 L217.382812,132.117188 C217.382812,131.419267 217.157554,130.868492 216.707031,130.464844 C216.256508,130.061196 215.627608,129.859375 214.820312,129.859375 L211.632812,129.859375 Z M211.632812,129.0625 L214.4375,129.0625 C215.463547,129.0625 216.213539,128.855471 216.6875,128.441406 C217.161461,128.027342 217.398438,127.468754 217.398438,126.765625 C217.398438,126.015621 217.162763,125.438804 216.691406,125.035156 C216.22005,124.631508 215.507817,124.429687 214.554688,124.429687 L211.632812,124.429687 L211.632812,129.0625 Z" fill="#FFFFFF"></path>
                <path d="M121.273438,129.671875 L115.742188,129.671875 L115.742188,135 L114.8125,135 L114.8125,123.625 L122.070312,123.625 L122.070312,124.421875 L115.742188,124.421875 L115.742188,128.867188 L121.273438,128.867188 L121.273438,129.671875 Z M130.445312,129.492188 L124.96875,129.492188 L124.96875,134.210938 L131.242188,134.210938 L131.242188,135 L124.039062,135 L124.039062,123.625 L131.203125,123.625 L131.203125,124.421875 L124.96875,124.421875 L124.96875,128.695312 L130.445312,128.695312 L130.445312,129.492188 Z M133.257812,135 L133.257812,123.625 L136.578125,123.625 C137.760423,123.625 138.680986,123.873695 139.339844,124.371094 C139.998701,124.868492 140.328125,125.617182 140.328125,126.617187 C140.328125,127.200524 140.162762,127.708331 139.832031,128.140625 C139.5013,128.572919 139.052086,128.872395 138.484375,129.039062 C139.177087,129.164063 139.739581,129.489581 140.171875,130.015625 C140.604169,130.541669 140.820312,131.148434 140.820312,131.835938 C140.820312,132.851568 140.490889,133.63281 139.832031,134.179688 C139.173174,134.726565 138.291672,135 137.1875,135 L133.257812,135 Z M134.1875,129.515625 L134.1875,134.210938 L137.1875,134.210938 C138.026046,134.210938 138.684893,134.003908 139.164062,133.589844 C139.643232,133.175779 139.882812,132.596358 139.882812,131.851562 C139.882812,131.169267 139.665367,130.609377 139.230469,130.171875 C138.795571,129.734373 138.164067,129.515625 137.335938,129.515625 L134.1875,129.515625 Z M134.1875,128.726562 L136.804688,128.726562 C137.627608,128.726562 138.264321,128.545575 138.714844,128.183594 C139.165367,127.821613 139.390625,127.289066 139.390625,126.585937 C139.390625,125.867184 139.151044,125.326825 138.671875,124.964844 C138.192706,124.602863 137.494796,124.421875 136.578125,124.421875 L134.1875,124.421875 L134.1875,128.726562 Z" fill="#FFFFFF"></path>
                <path d="M44.953125,123.625 L45.890625,123.625 L45.890625,131.773438 C45.890625,132.809901 45.5820343,133.634112 44.9648438,134.246094 C44.3476532,134.858076 43.5494841,135.164062 42.5703125,135.164062 C41.5025988,135.164062 40.6588573,134.888024 40.0390625,134.335938 C39.4192677,133.783851 39.1223957,132.976568 39.1484375,131.914062 L39.1640625,131.867188 L40.0390625,131.867188 C40.0390625,132.690108 40.2578103,133.3138 40.6953125,133.738281 C41.1328147,134.162763 41.7578084,134.375 42.5703125,134.375 C43.2630243,134.375 43.8333311,134.139325 44.28125,133.667969 C44.7291689,133.196612 44.953125,132.565108 44.953125,131.773438 L44.953125,123.625 Z M54.7421875,131.828125 L49.53125,131.828125 L48.359375,135 L47.390625,135 L51.7109375,123.625 L52.59375,123.625 L56.8828125,135 L55.9140625,135 L54.7421875,131.828125 Z M49.84375,130.992188 L54.4375,130.992188 L52.171875,124.835937 L52.125,124.835937 L49.84375,130.992188 Z M67,135 L66.0703125,135 L59.609375,125.21875 L59.5625,125.226562 L59.5625,135 L58.625,135 L58.625,123.625 L59.5625,123.625 L66.0234375,133.390625 L66.0703125,133.382812 L66.0703125,123.625 L67,123.625 L67,135 Z" fill="#FFFFFF"></path>
            </g>
            <rect fill="#F9CD94" x="16" y="96" width="224" height="12"></rect>
            <path d="M124.310234,107 L123.155937,107 L123.155937,99.59375 L121.409844,99.6171875 L121.409844,98.7851562 L124.310234,98.46875 L124.310234,107 Z M133.298516,107 L127.767266,107 L127.767266,106.208984 L130.562187,103.103516 C131.06219,102.544919 131.401054,102.101564 131.578789,101.773438 C131.756524,101.445311 131.845391,101.109377 131.845391,100.765625 C131.845391,100.339842 131.721368,99.9814468 131.47332,99.6904297 C131.225272,99.3994126 130.896174,99.2539062 130.486016,99.2539062 C129.896169,99.2539062 129.461603,99.4052719 129.182305,99.7080078 C128.903006,100.010744 128.763359,100.435544 128.763359,100.982422 L127.655937,100.982422 L127.644219,100.947266 C127.624687,100.212887 127.868826,99.5957056 128.376641,99.0957031 C128.884456,98.5957006 129.587574,98.3457031 130.486016,98.3457031 C131.251644,98.3457031 131.86199,98.5693337 132.31707,99.0166016 C132.772151,99.4638694 132.999687,100.0332 132.999687,100.724609 C132.999687,101.189455 132.861994,101.655271 132.586602,102.12207 C132.31121,102.58887 131.925471,103.089841 131.429375,103.625 L129.185234,106.068359 L129.196953,106.097656 L133.298516,106.097656 L133.298516,107 Z" fill="#000000"></path>
            <rect fill="#F9CD94" x="16" y="268" width="224" height="12"></rect>
            <path d="M116.310234,279 L115.155937,279 L115.155937,271.59375 L113.409844,271.617188 L113.409844,270.785156 L116.310234,270.46875 L116.310234,279 Z M125.298516,279 L119.767266,279 L119.767266,278.208984 L122.562187,275.103516 C123.06219,274.544919 123.401054,274.101564 123.578789,273.773438 C123.756524,273.445311 123.845391,273.109377 123.845391,272.765625 C123.845391,272.339842 123.721368,271.981447 123.47332,271.69043 C123.225272,271.399413 122.896174,271.253906 122.486016,271.253906 C121.896169,271.253906 121.461603,271.405272 121.182305,271.708008 C120.903006,272.010744 120.763359,272.435544 120.763359,272.982422 L119.655937,272.982422 L119.644219,272.947266 C119.624687,272.212887 119.868826,271.595706 120.376641,271.095703 C120.884456,270.595701 121.587574,270.345703 122.486016,270.345703 C123.251644,270.345703 123.86199,270.569334 124.31707,271.016602 C124.772151,271.463869 124.999687,272.0332 124.999687,272.724609 C124.999687,273.189455 124.861994,273.655271 124.586602,274.12207 C124.31121,274.58887 123.925471,275.089841 123.429375,275.625 L121.185234,278.068359 L121.196953,278.097656 L125.298516,278.097656 L125.298516,279 Z" fill="#000000"></path>
            <rect fill="#F8CC96" x="0" y="64" width="16" height="216"></rect>
            <path d="M4.99023438,177.5 L3.8359375,177.5 L3.8359375,170.09375 L2.08984375,170.117187 L2.08984375,169.285156 L4.99023438,168.96875 L4.99023438,177.5 Z M11.7109375,168.845703 C12.0039077,168.845703 12.2939439,168.878906 12.5810547,168.945312 C12.8681655,169.011719 13.1054678,169.095703 13.2929688,169.197266 L13.046875,170.082031 C12.8554678,169.984375 12.6552745,169.905274 12.4462891,169.844727 C12.2373036,169.784179 11.9921889,169.753906 11.7109375,169.753906 C11.1015595,169.753906 10.6103534,169.998044 10.2373047,170.486328 C9.86425595,170.974612 9.67773438,171.611324 9.67773438,172.396484 L9.67773438,172.53125 C9.92773563,172.312499 10.2138656,172.141602 10.5361328,172.018555 C10.8584,171.895507 11.2050763,171.833984 11.5761719,171.833984 C12.3378944,171.833984 12.9453102,172.097654 13.3984375,172.625 C13.8515648,173.152346 14.078125,173.820308 14.078125,174.628906 C14.078125,175.511723 13.8369165,176.231443 13.3544922,176.788086 C12.8720679,177.344729 12.2285196,177.623047 11.4238281,177.623047 C10.5878864,177.623047 9.89648711,177.320316 9.34960938,176.714844 C8.80273164,176.109372 8.52929688,175.255865 8.52929688,174.154297 L8.52929688,172.525391 C8.52929688,171.431635 8.83398133,170.544925 9.44335938,169.865234 C10.0527374,169.185543 10.8085892,168.845703 11.7109375,168.845703 Z M11.3183594,172.695312 C10.9238262,172.695312 10.587892,172.77539 10.3105469,172.935547 C10.0332017,173.095704 9.82226635,173.308592 9.67773438,173.574219 L9.67773438,174.265625 C9.67773438,175.050785 9.84374834,175.656248 10.1757812,176.082031 C10.5078142,176.507815 10.9238256,176.720703 11.4238281,176.720703 C11.8964867,176.720703 12.2646471,176.52051 12.5283203,176.120117 C12.7919935,175.719725 12.9238281,175.222659 12.9238281,174.628906 C12.9238281,174.066403 12.782228,173.603517 12.4990234,173.240234 C12.2158189,172.876951 11.8222681,172.695312 11.3183594,172.695312 Z" fill="#000000"></path>
            <rect fill="#F8CC96" x="240" y="64" width="16" height="216"></rect>
            <path d="M244.990234,177.5 L243.835938,177.5 L243.835938,170.09375 L242.089844,170.117187 L242.089844,169.285156 L244.990234,168.96875 L244.990234,177.5 Z M251.710938,168.845703 C252.003908,168.845703 252.293944,168.878906 252.581055,168.945312 C252.868165,169.011719 253.105468,169.095703 253.292969,169.197266 L253.046875,170.082031 C252.855468,169.984375 252.655274,169.905274 252.446289,169.844727 C252.237304,169.784179 251.992189,169.753906 251.710938,169.753906 C251.101559,169.753906 250.610353,169.998044 250.237305,170.486328 C249.864256,170.974612 249.677734,171.611324 249.677734,172.396484 L249.677734,172.53125 C249.927736,172.312499 250.213866,172.141602 250.536133,172.018555 C250.8584,171.895507 251.205076,171.833984 251.576172,171.833984 C252.337894,171.833984 252.94531,172.097654 253.398438,172.625 C253.851565,173.152346 254.078125,173.820308 254.078125,174.628906 C254.078125,175.511723 253.836916,176.231443 253.354492,176.788086 C252.872068,177.344729 252.22852,177.623047 251.423828,177.623047 C250.587886,177.623047 249.896487,177.320316 249.349609,176.714844 C248.802732,176.109372 248.529297,175.255865 248.529297,174.154297 L248.529297,172.525391 C248.529297,171.431635 248.833981,170.544925 249.443359,169.865234 C250.052737,169.185543 250.808589,168.845703 251.710938,168.845703 Z M251.318359,172.695312 C250.923826,172.695312 250.587892,172.77539 250.310547,172.935547 C250.033202,173.095704 249.822266,173.308592 249.677734,173.574219 L249.677734,174.265625 C249.677734,175.050785 249.843748,175.656248 250.175781,176.082031 C250.507814,176.507815 250.923826,176.720703 251.423828,176.720703 C251.896487,176.720703 252.264647,176.52051 252.52832,176.120117 C252.791994,175.719725 252.923828,175.222659 252.923828,174.628906 C252.923828,174.066403 252.782228,173.603517 252.499023,173.240234 C252.215819,172.876951 251.822268,172.695312 251.318359,172.695312 Z" fill="#000000"></path>
            <path d="M282.765625,202.046875 L282.923828,203.113281 L282.958984,203.119141 L283.1875,202.046875 L284.751953,196.46875 L285.771484,196.46875 L287.347656,202.046875 L287.582031,203.142578 L287.617188,203.142578 L287.787109,202.046875 L289.058594,196.46875 L290.212891,196.46875 L288.15625,205 L287.125,205 L285.443359,199.082031 L285.291016,198.314453 L285.255859,198.314453 L285.109375,199.082031 L283.398438,205 L282.367188,205 L280.316406,196.46875 L281.464844,196.46875 L282.765625,202.046875 Z M292.685547,205 L291.53125,205 L291.53125,198.660156 L292.685547,198.660156 L292.685547,205 Z M292.685547,197.037109 L291.53125,197.037109 L291.53125,195.859375 L292.685547,195.859375 L292.685547,197.037109 Z M294.197266,201.947266 C294.197266,200.927729 294.415037,200.105472 294.850586,199.480469 C295.286135,198.855466 295.89648,198.542969 296.681641,198.542969 C297.052736,198.542969 297.381835,198.611327 297.668945,198.748047 C297.956056,198.884766 298.201171,199.083983 298.404297,199.345703 L298.404297,195.859375 L299.558594,195.859375 L299.558594,205 L298.615234,205 L298.480469,204.220703 C298.273436,204.51758 298.019533,204.742187 297.71875,204.894531 C297.417967,205.046876 297.068361,205.123047 296.669922,205.123047 C295.896481,205.123047 295.291018,204.842776 294.853516,204.282227 C294.416013,203.721677 294.197266,202.98438 294.197266,202.070312 L294.197266,201.947266 Z M295.351562,202.070312 C295.351562,202.710941 295.482421,203.223631 295.744141,203.608398 C296.005861,203.993166 296.412107,204.185547 296.962891,204.185547 C297.306642,204.185547 297.595702,204.107423 297.830078,203.951172 C298.064454,203.794921 298.255859,203.576173 298.404297,203.294922 L298.404297,200.335938 C298.255859,200.074217 298.063478,199.866212 297.827148,199.711914 C297.590819,199.557616 297.306642,199.480469 296.974609,199.480469 C296.419919,199.480469 296.010744,199.708982 295.74707,200.166016 C295.483397,200.623049 295.351562,201.216793 295.351562,201.947266 L295.351562,202.070312 Z M302.804688,197.130859 L302.804688,198.660156 L304.005859,198.660156 L304.005859,199.515625 L302.804688,199.515625 L302.804688,203.365234 C302.804688,203.662111 302.86621,203.871093 302.989258,203.992188 C303.112305,204.113282 303.27539,204.173828 303.478516,204.173828 C303.544922,204.173828 303.618164,204.166016 303.698242,204.150391 C303.778321,204.134766 303.849609,204.115234 303.912109,204.091797 L304.064453,204.882812 C303.978515,204.953125 303.85254,205.010742 303.686523,205.055664 C303.520507,205.100586 303.353516,205.123047 303.185547,205.123047 C302.716795,205.123047 302.343751,204.981447 302.066406,204.698242 C301.789061,204.415038 301.650391,203.970706 301.650391,203.365234 L301.650391,199.515625 L300.642578,199.515625 L300.642578,198.660156 L301.650391,198.660156 L301.650391,197.130859 L302.804688,197.130859 Z M306.583984,199.509766 C306.802735,199.205077 307.071287,198.967774 307.389648,198.797852 C307.708009,198.627929 308.060545,198.542969 308.447266,198.542969 C309.12305,198.542969 309.649412,198.746092 310.026367,199.152344 C310.403322,199.558596 310.591797,200.18359 310.591797,201.027344 L310.591797,205 L309.4375,205 L309.4375,201.015625 C309.4375,200.492185 309.325196,200.10547 309.100586,199.855469 C308.875975,199.605468 308.541018,199.480469 308.095703,199.480469 C307.775389,199.480469 307.485353,199.555663 307.225586,199.706055 C306.965819,199.856446 306.751954,200.060546 306.583984,200.318359 L306.583984,205 L305.429688,205 L305.429688,195.859375 L306.583984,195.859375 L306.583984,199.509766 Z M313.509766,205 L312.355469,205 L312.355469,203.816406 L313.509766,203.816406 L313.509766,205 Z M313.509766,199.867188 L312.355469,199.867188 L312.355469,198.683594 L313.509766,198.683594 L313.509766,199.867188 Z M323.646484,197.376953 C322.615229,198.603522 321.918947,199.690425 321.557617,200.637695 C321.196287,201.584966 320.935548,202.732415 320.775391,204.080078 L320.681641,205 L319.527344,205 L319.621094,204.080078 C319.785157,202.736321 320.103513,201.535162 320.576172,200.476562 C321.04883,199.417963 321.695308,198.384771 322.515625,197.376953 L317.875,197.376953 L317.875,196.46875 L323.646484,196.46875 L323.646484,197.376953 Z M325.205078,201.150391 L325.697266,196.46875 L329.96875,196.46875 L329.96875,197.494141 L326.675781,197.494141 L326.394531,199.890625 C326.57422,199.757812 326.774413,199.647461 326.995117,199.55957 C327.215821,199.471679 327.470702,199.423828 327.759766,199.416016 C328.544926,199.408203 329.163084,199.66406 329.614258,200.183594 C330.065432,200.703128 330.291016,201.402339 330.291016,202.28125 C330.291016,203.136723 330.061526,203.824216 329.602539,204.34375 C329.143552,204.863284 328.474614,205.123047 327.595703,205.123047 C326.873043,205.123047 326.271487,204.925783 325.791016,204.53125 C325.310544,204.136717 325.080078,203.556644 325.099609,202.791016 L325.111328,202.755859 L326.154297,202.755859 C326.154297,203.220705 326.288085,203.581053 326.555664,203.836914 C326.823244,204.092775 327.16992,204.220703 327.595703,204.220703 C328.083987,204.220703 328.462889,204.04883 328.732422,203.705078 C329.001954,203.361326 329.136719,202.890628 329.136719,202.292969 C329.136719,201.746091 329.000001,201.296877 328.726562,200.945312 C328.453124,200.593748 328.076174,200.417969 327.595703,200.417969 C327.142576,200.417969 326.814454,200.486327 326.611328,200.623047 C326.408202,200.759766 326.259766,200.968749 326.166016,201.25 L325.205078,201.150391 Z M337.175781,202.070312 C337.175781,202.98438 336.957033,203.721677 336.519531,204.282227 C336.082029,204.842776 335.478519,205.123047 334.708984,205.123047 C334.318357,205.123047 333.975587,205.057618 333.680664,204.926758 C333.385741,204.795898 333.134767,204.599611 332.927734,204.337891 L332.927734,207.4375 L331.773438,207.4375 L331.773438,198.660156 L332.658203,198.660156 L332.839844,199.480469 C333.046876,199.17578 333.304686,198.94336 333.613281,198.783203 C333.921877,198.623046 334.281248,198.542969 334.691406,198.542969 C335.476566,198.542969 336.086912,198.854489 336.522461,199.477539 C336.95801,200.100589 337.175781,200.923823 337.175781,201.947266 L337.175781,202.070312 Z M336.021484,201.947266 C336.021484,201.228512 335.879884,200.637698 335.59668,200.174805 C335.313475,199.711912 334.896487,199.480469 334.345703,199.480469 C334.01367,199.480469 333.73047,199.555663 333.496094,199.706055 C333.261718,199.856446 333.072266,200.062499 332.927734,200.324219 L332.927734,203.388672 C333.072266,203.650392 333.261718,203.854491 333.496094,204.000977 C333.73047,204.147462 334.017576,204.220703 334.357422,204.220703 C334.9043,204.220703 335.318358,204.02051 335.599609,203.620117 C335.880861,203.219725 336.021484,202.703128 336.021484,202.070312 L336.021484,201.947266 Z M340.65625,200.998047 L342.003906,198.660156 L343.351562,198.660156 L341.294922,201.794922 L343.410156,205 L342.085938,205 L340.679688,202.603516 L339.273438,205 L337.9375,205 L340.052734,201.794922 L337.996094,198.660156 L339.326172,198.660156 L340.65625,200.998047 Z" fill="#EC407A"></path>
            <path d="M287.505859,221 L286.351562,221 L286.351562,217.232422 L282.208984,217.232422 L282.208984,221 L281.054688,221 L281.054688,212.46875 L282.208984,212.46875 L282.208984,216.324219 L286.351562,216.324219 L286.351562,212.46875 L287.505859,212.46875 L287.505859,221 Z M292.029297,221.123047 C291.14648,221.123047 290.444339,220.829105 289.922852,220.241211 C289.401365,219.653317 289.140625,218.89063 289.140625,217.953125 L289.140625,217.695312 C289.140625,216.792964 289.409177,216.041995 289.946289,215.442383 C290.483401,214.84277 291.119137,214.542969 291.853516,214.542969 C292.708989,214.542969 293.355467,214.800779 293.792969,215.316406 C294.230471,215.832034 294.449219,216.519527 294.449219,217.378906 L294.449219,218.099609 L290.335938,218.099609 L290.318359,218.128906 C290.330078,218.738284 290.484374,219.239256 290.78125,219.631836 C291.078126,220.024416 291.494138,220.220703 292.029297,220.220703 C292.419924,220.220703 292.762694,220.16504 293.057617,220.053711 C293.352541,219.942382 293.607421,219.789063 293.822266,219.59375 L294.273438,220.34375 C294.046874,220.566407 293.748049,220.751952 293.376953,220.900391 C293.005858,221.048829 292.556643,221.123047 292.029297,221.123047 Z M291.853516,215.451172 C291.466795,215.451172 291.13672,215.614256 290.863281,215.94043 C290.589842,216.266603 290.421875,216.675779 290.359375,217.167969 L290.371094,217.197266 L293.294922,217.197266 L293.294922,217.044922 C293.294922,216.591795 293.173829,216.212892 292.931641,215.908203 C292.689452,215.603514 292.330081,215.451172 291.853516,215.451172 Z M296.992188,221 L295.837891,221 L295.837891,214.660156 L296.992188,214.660156 L296.992188,221 Z M296.992188,213.037109 L295.837891,213.037109 L295.837891,211.859375 L296.992188,211.859375 L296.992188,213.037109 Z M298.515625,217.947266 C298.515625,216.927729 298.738279,216.105472 299.183594,215.480469 C299.628908,214.855466 300.244137,214.542969 301.029297,214.542969 C301.431643,214.542969 301.785155,214.624023 302.089844,214.786133 C302.394533,214.948243 302.648436,215.181639 302.851562,215.486328 L302.992188,214.660156 L303.912109,214.660156 L303.912109,221.035156 C303.912109,221.84766 303.675784,222.471678 303.203125,222.907227 C302.730466,223.342776 302.048833,223.560547 301.158203,223.560547 C300.853514,223.560547 300.524416,223.518555 300.170898,223.43457 C299.817381,223.350586 299.505861,223.236329 299.236328,223.091797 L299.529297,222.195312 C299.736329,222.312501 299.986327,222.407226 300.279297,222.479492 C300.572267,222.551758 300.861327,222.587891 301.146484,222.587891 C301.708987,222.587891 302.118163,222.459962 302.374023,222.204102 C302.629884,221.948241 302.757812,221.558596 302.757812,221.035156 L302.757812,220.320312 C302.55078,220.585939 302.302736,220.786132 302.013672,220.920898 C301.724608,221.055665 301.39258,221.123047 301.017578,221.123047 C300.24023,221.123047 299.628908,220.8418 299.183594,220.279297 C298.738279,219.716794 298.515625,218.980473 298.515625,218.070312 L298.515625,217.947266 Z M299.669922,218.070312 C299.669922,218.707034 299.804686,219.218748 300.074219,219.605469 C300.343751,219.992189 300.753903,220.185547 301.304688,220.185547 C301.652345,220.185547 301.943358,220.106446 302.177734,219.948242 C302.412111,219.790038 302.605468,219.566408 302.757812,219.277344 L302.757812,216.359375 C302.609374,216.089842 302.416017,215.875977 302.177734,215.717773 C301.939452,215.55957 301.652345,215.480469 301.316406,215.480469 C300.765622,215.480469 300.353517,215.710935 300.080078,216.171875 C299.806639,216.632815 299.669922,217.224606 299.669922,217.947266 L299.669922,218.070312 Z M306.742188,215.509766 C306.960939,215.205077 307.229491,214.967774 307.547852,214.797852 C307.866213,214.627929 308.218748,214.542969 308.605469,214.542969 C309.281253,214.542969 309.807615,214.746092 310.18457,215.152344 C310.561525,215.558596 310.75,216.18359 310.75,217.027344 L310.75,221 L309.595703,221 L309.595703,217.015625 C309.595703,216.492185 309.4834,216.10547 309.258789,215.855469 C309.034179,215.605468 308.699221,215.480469 308.253906,215.480469 C307.933592,215.480469 307.643556,215.555663 307.383789,215.706055 C307.124022,215.856446 306.910157,216.060546 306.742188,216.318359 L306.742188,221 L305.587891,221 L305.587891,211.859375 L306.742188,211.859375 L306.742188,215.509766 Z M313.931641,213.130859 L313.931641,214.660156 L315.132812,214.660156 L315.132812,215.515625 L313.931641,215.515625 L313.931641,219.365234 C313.931641,219.662111 313.993163,219.871093 314.116211,219.992188 C314.239258,220.113282 314.402343,220.173828 314.605469,220.173828 C314.671875,220.173828 314.745117,220.166016 314.825195,220.150391 C314.905274,220.134766 314.976562,220.115234 315.039062,220.091797 L315.191406,220.882812 C315.105468,220.953125 314.979493,221.010742 314.813477,221.055664 C314.64746,221.100586 314.48047,221.123047 314.3125,221.123047 C313.843748,221.123047 313.470705,220.981447 313.193359,220.698242 C312.916014,220.415038 312.777344,219.970706 312.777344,219.365234 L312.777344,215.515625 L311.769531,215.515625 L311.769531,214.660156 L312.777344,214.660156 L312.777344,213.130859 L313.931641,213.130859 Z M317.816406,221 L316.662109,221 L316.662109,219.816406 L317.816406,219.816406 L317.816406,221 Z M317.816406,215.867188 L316.662109,215.867188 L316.662109,214.683594 L317.816406,214.683594 L317.816406,215.867188 Z M327.033203,218.128906 L328.210938,218.128906 L328.210938,219.03125 L327.033203,219.03125 L327.033203,221 L325.884766,221 L325.884766,219.03125 L322.052734,219.03125 L322.052734,218.380859 L325.814453,212.46875 L327.033203,212.46875 L327.033203,218.128906 Z M323.283203,218.128906 L325.884766,218.128906 L325.884766,214.126953 L325.849609,214.121094 L325.738281,214.414062 L323.283203,218.128906 Z M334.580078,217.748047 C334.580078,218.837896 334.33887,219.672849 333.856445,220.25293 C333.374021,220.833011 332.712895,221.123047 331.873047,221.123047 C331.033199,221.123047 330.369143,220.832034 329.880859,220.25 C329.392576,219.667966 329.148438,218.83399 329.148438,217.748047 L329.148438,215.726562 C329.148438,214.64062 329.391599,213.805667 329.87793,213.22168 C330.36426,212.637692 331.025386,212.345703 331.861328,212.345703 C332.701176,212.345703 333.364255,212.637692 333.850586,213.22168 C334.336916,213.805667 334.580078,214.64062 334.580078,215.726562 L334.580078,217.748047 Z M333.425781,215.480469 C333.425781,214.742184 333.291994,214.186525 333.024414,213.813477 C332.756835,213.440428 332.369143,213.253906 331.861328,213.253906 C331.353513,213.253906 330.966798,213.440428 330.701172,213.813477 C330.435546,214.186525 330.302734,214.742184 330.302734,215.480469 L330.302734,217.982422 C330.302734,218.720707 330.437499,219.278318 330.707031,219.655273 C330.976564,220.032228 331.365232,220.220703 331.873047,220.220703 C332.380862,220.220703 332.7666,220.033205 333.030273,219.658203 C333.293947,219.283201 333.425781,218.724613 333.425781,217.982422 L333.425781,215.480469 Z M341.488281,218.070312 C341.488281,218.98438 341.269533,219.721677 340.832031,220.282227 C340.394529,220.842776 339.791019,221.123047 339.021484,221.123047 C338.630857,221.123047 338.288087,221.057618 337.993164,220.926758 C337.698241,220.795898 337.447267,220.599611 337.240234,220.337891 L337.240234,223.4375 L336.085938,223.4375 L336.085938,214.660156 L336.970703,214.660156 L337.152344,215.480469 C337.359376,215.17578 337.617186,214.94336 337.925781,214.783203 C338.234377,214.623046 338.593748,214.542969 339.003906,214.542969 C339.789066,214.542969 340.399412,214.854489 340.834961,215.477539 C341.27051,216.100589 341.488281,216.923823 341.488281,217.947266 L341.488281,218.070312 Z M340.333984,217.947266 C340.333984,217.228512 340.192384,216.637698 339.90918,216.174805 C339.625975,215.711912 339.208987,215.480469 338.658203,215.480469 C338.32617,215.480469 338.04297,215.555663 337.808594,215.706055 C337.574218,215.856446 337.384766,216.062499 337.240234,216.324219 L337.240234,219.388672 C337.384766,219.650392 337.574218,219.854491 337.808594,220.000977 C338.04297,220.147462 338.330076,220.220703 338.669922,220.220703 C339.2168,220.220703 339.630858,220.02051 339.912109,219.620117 C340.193361,219.219725 340.333984,218.703128 340.333984,218.070312 L340.333984,217.947266 Z M344.96875,216.998047 L346.316406,214.660156 L347.664062,214.660156 L345.607422,217.794922 L347.722656,221 L346.398438,221 L344.992188,218.603516 L343.585938,221 L342.25,221 L344.365234,217.794922 L342.308594,214.660156 L343.638672,214.660156 L344.96875,216.998047 Z" fill="#EC407A"></path>
            <g transform="translate(258.500000, 208.000000) rotate(180.000000) translate(-258.500000, -208.000000) translate(243.000000, 190.000000)">
                <path d="M1,17.82 L31,17.82" stroke="#EC407A"></path>
                <g transform="translate(24.000000, 14.320000)">
                    <g>
                        <g fill="#FFFFFF">
                            <polygon points="7 3.5 0 7 0 0"></polygon>
                        </g>
                        <polygon stroke="#EC407A" points="5.88196601 3.5 0.5 0.809016994 0.5 6.19098301"></polygon>
                    </g>
                </g>
                <path d="M0.803482587,0.18 L0.803482587,35.82" stroke="#F0367A" stroke-linecap="square"></path>
            </g>
            <rect stroke="#EC407A" x="165.5" y="188.5" width="74" height="39"></rect>
        </g>
    </g>
</svg>