<?xml version="1.0" encoding="UTF-8" standalone="no"?>
<svg width="275px" height="286px" viewBox="0 0 275 286" version="1.1" xmlns="http://www.w3.org/2000/svg" xmlns:xlink="http://www.w3.org/1999/xlink">
    <!-- Generator: Sketch 47.1 (45422) - http://www.bohemiancoding.com/sketch -->
    <title>date-picker-month-picker-2</title>
    <desc>Created with Sketch.</desc>
    <style>
      @import url("https://fonts.googleapis.com/css?family=Roboto:300,400");
      @import url("https://stackpath.bootstrapcdn.com/font-awesome/4.7.0/css/font-awesome.min.css")
    </style>
    <defs>
        <polygon id="path-1" points="0 280 256 280 256 0 0 0"></polygon>
        <filter x="-2.3%" y="-1.1%" width="104.7%" height="104.3%" filterUnits="objectBoundingBox" id="filter-2">
            <feOffset dx="0" dy="3" in="SourceAlpha" result="shadowOffsetOuter1"></feOffset>
            <feGaussianBlur stdDeviation="1.5" in="shadowOffsetOuter1" result="shadowBlurOuter1"></feGaussianBlur>
            <feColorMatrix values="0 0 0 0 0   0 0 0 0 0   0 0 0 0 0  0 0 0 0.16 0" type="matrix" in="shadowBlurOuter1"></feColorMatrix>
        </filter>
        <rect id="path-3" x="0" y="0" width="256" height="173"></rect>
    </defs>
    <g stroke="none" stroke-width="1" fill="none" fill-rule="evenodd">
        <g>
            <g transform="translate(10.000000, 0.000000)">
                <g>
                    <g fill="#000000" fill-rule="nonzero">
                        <polygon points="0 280 256 280 256 0 0 0"></polygon>
                    </g>
                    <g>
                        <g>
                            <use fill="black" fill-opacity="1" filter="url(#filter-2)" xlink:href="#path-1"></use>
                            <use fill="#FFFFFF" fill-rule="evenodd" xlink:href="#path-1"></use>
                        </g>
                    </g>
                </g>
                <g>
                    <rect fill="#616161" fill-rule="nonzero" x="0" y="0" width="256" height="64"></rect>
                    <text fill="#FFFFFF" font-family="Roboto-Light, Roboto" font-size="24" font-weight="300">
                        <tspan x="76" y="43">Oct 2017</tspan>
                    </text>
                </g>
                <rect fill="#616161" fill-rule="nonzero" x="0" y="0" width="36" height="64"></rect>
                <rect fill="#616161" fill-rule="nonzero" x="220" y="0" width="36" height="64"></rect>
                <polygon fill="#EEEEEE" fill-rule="nonzero" transform="translate(238.000000, 31.000000) rotate(-90.000000) translate(-238.000000, -31.000000) " points="233.147408 27.0753054 232 28.1611545 237.967147 35 244 28.0858491 242.852592 27 237.967147 32.5991265"></polygon>
                <polygon fill="#EEEEEE" fill-rule="nonzero" transform="translate(18.000000, 32.000000) rotate(90.000000) translate(-18.000000, -32.000000) " points="13.1474076 28.0753054 12 29.1611545 17.9671466 36 24 29.0858491 22.8525924 28 17.9671466 33.5991265"></polygon>
                <path d="M92.296875,194.054687 L91.359375,194.054687 L91.359375,183.601562 L88.46875,183.9375 L88.46875,183.28125 L92.296875,182.59375 L92.296875,194.054687 Z M97.34375,188.851562 L97.9765625,182.625 L103.5,182.625 L103.5,183.492187 L98.7734375,183.492187 L98.3515625,187.546875 C98.6380223,187.286457 98.9531233,187.085938 99.296875,186.945312 C99.6406267,186.804687 100.106768,186.726563 100.695312,186.710937 C101.664067,186.695312 102.44531,187.02083 103.039062,187.6875 C103.632815,188.35417 103.929688,189.249994 103.929688,190.375 C103.929688,191.526047 103.64193,192.445309 103.066406,193.132812 C102.490883,193.820316 101.625006,194.164062 100.46875,194.164062 C99.5312453,194.164062 98.7500031,193.902346 98.125,193.378906 C97.4999969,192.855466 97.2005207,192.080734 97.2265625,191.054687 L97.2421875,191.007812 L98.078125,191.007812 C98.078125,191.773441 98.2955707,192.359373 98.7304688,192.765625 C99.1653668,193.171877 99.744788,193.375 100.46875,193.375 C101.312504,193.375 101.944008,193.119794 102.363281,192.609375 C102.782554,192.098956 102.992188,191.35938 102.992188,190.390625 C102.992188,189.541662 102.782554,188.86068 102.363281,188.347656 C101.944008,187.834633 101.356775,187.578125 100.601562,187.578125 C99.8723922,187.578125 99.3164082,187.694009 98.9335938,187.925781 C98.5507793,188.157553 98.2734384,188.50781 98.1015625,188.976562 L97.34375,188.851562 Z" fill="#757575"></path>
                <path d="M156.296875,194.054687 L155.359375,194.054687 L155.359375,183.601562 L152.46875,183.9375 L152.46875,183.28125 L156.296875,182.59375 L156.296875,194.054687 Z M167.929688,183.421875 C166.700515,184.880216 165.76042,186.36067 165.109375,187.863281 C164.45833,189.365893 164.023439,191.09374 163.804688,193.046875 L163.71875,194 L162.78125,194 L162.867188,193.046875 C163.085939,191.119782 163.539059,189.37631 164.226562,187.816406 C164.914066,186.256503 165.825515,184.791674 166.960938,183.421875 L160.46875,183.421875 L160.46875,182.625 L167.929688,182.625 L167.929688,183.421875 Z" fill="#757575"></path>
                <path d="M124.296875,194.054687 L123.359375,194.054687 L123.359375,183.601562 L120.46875,183.9375 L120.46875,183.28125 L124.296875,182.59375 L124.296875,194.054687 Z M132.921875,182.460937 C133.312502,182.460937 133.697915,182.505208 134.078125,182.59375 C134.458335,182.682292 134.796874,182.809895 135.09375,182.976562 L134.851562,183.742187 C134.554686,183.57552 134.260418,183.453125 133.96875,183.375 C133.677082,183.296875 133.328127,183.257812 132.921875,183.257812 C132.078121,183.257812 131.378909,183.585934 130.824219,184.242187 C130.269528,184.898441 129.992188,185.760411 129.992188,186.828125 L129.992188,187.835937 C130.304689,187.429685 130.703123,187.104168 131.1875,186.859375 C131.671877,186.614582 132.20833,186.492187 132.796875,186.492187 C133.817713,186.492187 134.624997,186.843746 135.21875,187.546875 C135.812503,188.250004 136.109375,189.166661 136.109375,190.296875 C136.109375,191.416672 135.790368,192.341142 135.152344,193.070312 C134.51432,193.799483 133.684901,194.164062 132.664062,194.164062 C131.617182,194.164062 130.75391,193.773441 130.074219,192.992187 C129.394528,192.210934 129.054688,191.140632 129.054688,189.78125 L129.054688,186.914062 C129.054688,185.601556 129.42708,184.531254 130.171875,183.703125 C130.91667,182.874996 131.833328,182.460937 132.921875,182.460937 Z M132.609375,187.257812 C131.979164,187.257812 131.428388,187.421873 130.957031,187.75 C130.485675,188.078127 130.164063,188.499997 129.992188,189.015625 L129.992188,189.851562 C129.992188,190.94011 130.242185,191.799476 130.742188,192.429687 C131.24219,193.059899 131.882809,193.375 132.664062,193.375 C133.424483,193.375 134.03255,193.076826 134.488281,192.480469 C134.944013,191.884112 135.171875,191.156254 135.171875,190.296875 C135.171875,189.385412 134.950523,188.651044 134.507812,188.09375 C134.065102,187.536456 133.432296,187.257812 132.609375,187.257812 Z" fill="#757575"></path>
                <path d="M188.296875,195.054687 L187.359375,195.054687 L187.359375,184.601562 L184.46875,184.9375 L184.46875,184.28125 L188.296875,183.59375 L188.296875,195.054687 Z M199.648437,186.554687 C199.648437,187.169274 199.468752,187.707029 199.109375,188.167969 C198.749998,188.628909 198.270836,188.963541 197.671875,189.171875 C198.364587,189.385418 198.920571,189.740883 199.339844,190.238281 C199.759117,190.73568 199.96875,191.317705 199.96875,191.984375 C199.96875,193.005213 199.627608,193.790362 198.945312,194.339844 C198.263017,194.889326 197.385422,195.164062 196.3125,195.164062 C195.218745,195.164062 194.334639,194.890628 193.660156,194.34375 C192.985674,193.796872 192.648437,193.010422 192.648437,191.984375 C192.648437,191.312497 192.854165,190.727867 193.265625,190.230469 C193.677085,189.73307 194.229163,189.377605 194.921875,189.164062 C194.322914,188.955728 193.847658,188.622398 193.496094,188.164062 C193.144529,187.705727 192.96875,187.169274 192.96875,186.554687 C192.96875,185.575516 193.277341,184.815107 193.894531,184.273437 C194.511722,183.731768 195.312495,183.460937 196.296875,183.460937 C197.276047,183.460937 198.079424,183.73307 198.707031,184.277344 C199.334639,184.821617 199.648437,185.580724 199.648437,186.554687 Z M199.03125,191.992187 C199.03125,191.273434 198.770836,190.688804 198.25,190.238281 C197.729164,189.787758 197.078129,189.5625 196.296875,189.5625 C195.505204,189.5625 194.854169,189.787758 194.34375,190.238281 C193.833331,190.688804 193.578125,191.273434 193.578125,191.992187 C193.578125,192.736983 193.830727,193.32031 194.335937,193.742187 C194.841148,194.164065 195.499996,194.375 196.3125,194.375 C197.104171,194.375 197.755206,194.162763 198.265625,193.738281 C198.776044,193.3138 199.03125,192.731775 199.03125,191.992187 Z M198.710937,186.546875 C198.710937,185.890622 198.480471,185.345054 198.019531,184.910156 C197.558591,184.475258 196.984378,184.257812 196.296875,184.257812 C195.593746,184.257812 195.018231,184.466144 194.570312,184.882812 C194.122394,185.299481 193.898437,185.854163 193.898437,186.546875 C193.898437,187.218753 194.123696,187.756508 194.574219,188.160156 C195.024742,188.563804 195.604163,188.765625 196.3125,188.765625 C197.005212,188.765625 197.578123,188.563804 198.03125,188.160156 C198.484377,187.756508 198.710937,187.218753 198.710937,186.546875 Z" fill="#757575"></path>
                <path d="M220.296875,195.054687 L219.359375,195.054687 L219.359375,184.601562 L216.46875,184.9375 L216.46875,184.28125 L220.296875,183.59375 L220.296875,195.054687 Z M227.859375,194.375 C228.723963,194.375 229.411456,194.08594 229.921875,193.507812 C230.432294,192.929685 230.6875,192.101568 230.6875,191.023437 L230.6875,189.882812 C230.411457,190.361982 230.040367,190.73177 229.574219,190.992187 C229.108071,191.252605 228.588545,191.382812 228.015625,191.382812 C226.979161,191.382812 226.144534,191.023441 225.511719,190.304687 C224.878903,189.585934 224.5625,188.656256 224.5625,187.515625 C224.5625,186.364578 224.894528,185.401046 225.558594,184.625 C226.22266,183.848954 227.044266,183.460937 228.023438,183.460937 C229.122401,183.460937 230.002601,183.819007 230.664062,184.535156 C231.325524,185.251306 231.65625,186.29166 231.65625,187.65625 L231.65625,191.007812 C231.65625,192.325527 231.307295,193.347653 230.609375,194.074219 C229.911455,194.800785 228.994797,195.164062 227.859375,195.164062 C227.453123,195.164062 227.045575,195.125 226.636719,195.046875 C226.227863,194.96875 225.838544,194.848959 225.46875,194.6875 L225.640625,193.90625 C225.994793,194.072917 226.34505,194.192708 226.691406,194.265625 C227.037762,194.338542 227.427081,194.375 227.859375,194.375 Z M228.015625,190.59375 C228.692712,190.59375 229.259112,190.420575 229.714844,190.074219 C230.170575,189.727863 230.494791,189.299482 230.6875,188.789062 L230.6875,187.585937 C230.6875,186.507807 230.451825,185.683597 229.980469,185.113281 C229.509112,184.542966 228.869796,184.257812 228.0625,184.257812 C227.328121,184.257812 226.722659,184.575518 226.246094,185.210937 C225.769529,185.846357 225.53125,186.614579 225.53125,187.515625 C225.53125,188.390629 225.755206,189.122393 226.203125,189.710937 C226.651044,190.299482 227.255205,190.59375 228.015625,190.59375 Z" fill="#757575"></path>
                <path d="M60.296875,194.054687 L59.359375,194.054687 L59.359375,183.601562 L56.46875,183.9375 L56.46875,183.28125 L60.296875,182.59375 L60.296875,194.054687 Z M70.671875,190.335937 L72.453125,190.335937 L72.453125,191.125 L70.671875,191.125 L70.671875,194 L69.7421875,194 L69.7421875,191.125 L64.40625,191.125 L64.40625,190.59375 L69.6484375,182.625 L70.671875,182.625 L70.671875,190.335937 Z M65.515625,190.335937 L69.7421875,190.335937 L69.7421875,183.851562 L69.6953125,183.835937 L69.296875,184.6875 L65.515625,190.335937 Z" fill="#757575"></path>
                <path d="M28.296875,194.054687 L27.359375,194.054687 L27.359375,183.601562 L24.46875,183.9375 L24.46875,183.28125 L28.296875,182.59375 L28.296875,194.054687 Z M35.015625,187.804687 L36.1015625,187.804687 C36.9296916,187.804687 37.5572895,187.597658 37.984375,187.183594 C38.4114605,186.769529 38.625,186.236982 38.625,185.585937 C38.625,184.877601 38.4244812,184.312502 38.0234375,183.890625 C37.6223938,183.468748 37.0260456,183.257812 36.234375,183.257812 C35.5052047,183.257812 34.9075544,183.472654 34.4414062,183.902344 C33.9752581,184.332033 33.7421875,184.898434 33.7421875,185.601562 L32.8671875,185.601562 L32.8515625,185.554687 C32.8255207,184.669266 33.1354134,183.932295 33.78125,183.34375 C34.4270866,182.755205 35.2447867,182.460937 36.234375,182.460937 C37.2500051,182.460937 38.0585907,182.739581 38.6601562,183.296875 C39.2617218,183.854169 39.5625,184.627599 39.5625,185.617187 C39.5625,186.153649 39.395835,186.65755 39.0625,187.128906 C38.729165,187.600263 38.2604197,187.95052 37.65625,188.179687 C38.3645869,188.382814 38.8945295,188.725258 39.2460938,189.207031 C39.597658,189.688804 39.7734375,190.257809 39.7734375,190.914062 C39.7734375,191.924484 39.4466179,192.718747 38.7929688,193.296875 C38.1393196,193.875003 37.2994843,194.164062 36.2734375,194.164062 C35.2786409,194.164062 34.4244827,193.881513 33.7109375,193.316406 C32.9973923,192.751299 32.6536457,191.966151 32.6796875,190.960937 L32.6953125,190.914062 L33.5703125,190.914062 C33.5703125,191.638024 33.8216121,192.229164 34.3242188,192.6875 C34.8268254,193.145836 35.4765585,193.375 36.2734375,193.375 C37.0807332,193.375 37.7109352,193.165367 38.1640625,192.746094 C38.6171898,192.326821 38.84375,191.726566 38.84375,190.945312 C38.84375,190.148434 38.6067732,189.558596 38.1328125,189.175781 C37.6588518,188.792967 36.9817752,188.601562 36.1015625,188.601562 L35.015625,188.601562 L35.015625,187.804687 Z" fill="#757575"></path>
                <path d="M95.1328125,226 L88.0703125,226 L88.0703125,225.28125 L91.796875,221.054688 C92.4843784,220.278642 92.9700507,219.628909 93.2539062,219.105469 C93.5377618,218.582029 93.6796875,218.080732 93.6796875,217.601562 C93.6796875,216.893226 93.4804707,216.325523 93.0820312,215.898438 C92.6835918,215.471352 92.1197953,215.257812 91.390625,215.257812 C90.5260373,215.257812 89.8697939,215.497393 89.421875,215.976562 C88.9739561,216.455732 88.75,217.09635 88.75,217.898438 L87.8828125,217.898438 L87.8671875,217.851562 C87.8411457,216.903641 88.1484343,216.101566 88.7890625,215.445312 C89.4296907,214.789059 90.2968695,214.460938 91.390625,214.460938 C92.3697966,214.460938 93.1536429,214.742185 93.7421875,215.304688 C94.3307321,215.86719 94.625,216.622391 94.625,217.570312 C94.625,218.195316 94.4283874,218.829424 94.0351562,219.472656 C93.6419251,220.115889 93.0937535,220.833329 92.390625,221.625 L89.2578125,225.171875 L89.2734375,225.210938 L95.1328125,225.210938 L95.1328125,226 Z M104,226 L96.9375,226 L96.9375,225.28125 L100.664062,221.054688 C101.351566,220.278642 101.837238,219.628909 102.121094,219.105469 C102.404949,218.582029 102.546875,218.080732 102.546875,217.601562 C102.546875,216.893226 102.347658,216.325523 101.949219,215.898438 C101.550779,215.471352 100.986983,215.257812 100.257812,215.257812 C99.3932248,215.257812 98.7369814,215.497393 98.2890625,215.976562 C97.8411436,216.455732 97.6171875,217.09635 97.6171875,217.898438 L96.75,217.898438 L96.734375,217.851562 C96.7083332,216.903641 97.0156218,216.101566 97.65625,215.445312 C98.2968782,214.789059 99.164057,214.460938 100.257812,214.460938 C101.236984,214.460938 102.02083,214.742185 102.609375,215.304688 C103.19792,215.86719 103.492188,216.622391 103.492188,217.570312 C103.492188,218.195316 103.295575,218.829424 102.902344,219.472656 C102.509113,220.115889 101.960941,220.833329 101.257812,221.625 L98.125,225.171875 L98.140625,225.210938 L104,225.210938 L104,226 Z" fill="#757575"></path>
                <path d="M159.132812,226 L152.070312,226 L152.070312,225.28125 L155.796875,221.054688 C156.484378,220.278642 156.970051,219.628909 157.253906,219.105469 C157.537762,218.582029 157.679688,218.080732 157.679688,217.601562 C157.679688,216.893226 157.480471,216.325523 157.082031,215.898438 C156.683592,215.471352 156.119795,215.257812 155.390625,215.257812 C154.526037,215.257812 153.869794,215.497393 153.421875,215.976562 C152.973956,216.455732 152.75,217.09635 152.75,217.898438 L151.882812,217.898438 L151.867188,217.851562 C151.841146,216.903641 152.148434,216.101566 152.789062,215.445312 C153.429691,214.789059 154.29687,214.460938 155.390625,214.460938 C156.369797,214.460938 157.153643,214.742185 157.742188,215.304688 C158.330732,215.86719 158.625,216.622391 158.625,217.570312 C158.625,218.195316 158.428387,218.829424 158.035156,219.472656 C157.641925,220.115889 157.093754,220.833329 156.390625,221.625 L153.257812,225.171875 L153.273438,225.210938 L159.132812,225.210938 L159.132812,226 Z M166.671875,222.335938 L168.453125,222.335938 L168.453125,223.125 L166.671875,223.125 L166.671875,226 L165.742188,226 L165.742188,223.125 L160.40625,223.125 L160.40625,222.59375 L165.648438,214.625 L166.671875,214.625 L166.671875,222.335938 Z M161.515625,222.335938 L165.742188,222.335938 L165.742188,215.851562 L165.695312,215.835938 L165.296875,216.6875 L161.515625,222.335938 Z" fill="#757575"></path>
                <path d="M127.132812,226 L120.070312,226 L120.070312,225.28125 L123.796875,221.054688 C124.484378,220.278642 124.970051,219.628909 125.253906,219.105469 C125.537762,218.582029 125.679688,218.080732 125.679688,217.601562 C125.679688,216.893226 125.480471,216.325523 125.082031,215.898438 C124.683592,215.471352 124.119795,215.257812 123.390625,215.257812 C122.526037,215.257812 121.869794,215.497393 121.421875,215.976562 C120.973956,216.455732 120.75,217.09635 120.75,217.898438 L119.882812,217.898438 L119.867188,217.851562 C119.841146,216.903641 120.148434,216.101566 120.789062,215.445312 C121.429691,214.789059 122.29687,214.460938 123.390625,214.460938 C124.369797,214.460938 125.153643,214.742185 125.742188,215.304688 C126.330732,215.86719 126.625,216.622391 126.625,217.570312 C126.625,218.195316 126.428387,218.829424 126.035156,219.472656 C125.641925,220.115889 125.093754,220.833329 124.390625,221.625 L121.257812,225.171875 L121.273438,225.210938 L127.132812,225.210938 L127.132812,226 Z M131.015625,219.804688 L132.101562,219.804688 C132.929692,219.804688 133.55729,219.597658 133.984375,219.183594 C134.41146,218.769529 134.625,218.236982 134.625,217.585938 C134.625,216.877601 134.424481,216.312502 134.023438,215.890625 C133.622394,215.468748 133.026046,215.257812 132.234375,215.257812 C131.505205,215.257812 130.907554,215.472654 130.441406,215.902344 C129.975258,216.332033 129.742188,216.898434 129.742188,217.601562 L128.867188,217.601562 L128.851562,217.554688 C128.825521,216.669266 129.135413,215.932295 129.78125,215.34375 C130.427087,214.755205 131.244787,214.460938 132.234375,214.460938 C133.250005,214.460938 134.058591,214.739581 134.660156,215.296875 C135.261722,215.854169 135.5625,216.627599 135.5625,217.617188 C135.5625,218.153649 135.395835,218.65755 135.0625,219.128906 C134.729165,219.600263 134.26042,219.95052 133.65625,220.179688 C134.364587,220.382814 134.894529,220.725258 135.246094,221.207031 C135.597658,221.688804 135.773438,222.257809 135.773438,222.914062 C135.773438,223.924484 135.446618,224.718747 134.792969,225.296875 C134.13932,225.875003 133.299484,226.164062 132.273438,226.164062 C131.278641,226.164062 130.424483,225.881513 129.710938,225.316406 C128.997392,224.751299 128.653646,223.966151 128.679688,222.960938 L128.695312,222.914062 L129.570312,222.914062 C129.570312,223.638024 129.821612,224.229164 130.324219,224.6875 C130.826825,225.145836 131.476559,225.375 132.273438,225.375 C133.080733,225.375 133.710935,225.165367 134.164062,224.746094 C134.61719,224.326821 134.84375,223.726566 134.84375,222.945312 C134.84375,222.148434 134.606773,221.558596 134.132812,221.175781 C133.658852,220.792967 132.981775,220.601562 132.101562,220.601562 L131.015625,220.601562 L131.015625,219.804688 Z" fill="#757575"></path>
                <path d="M191.132812,227 L184.070312,227 L184.070312,226.28125 L187.796875,222.054688 C188.484378,221.278642 188.970051,220.628909 189.253906,220.105469 C189.537762,219.582029 189.679687,219.080732 189.679687,218.601562 C189.679687,217.893226 189.480471,217.325523 189.082031,216.898438 C188.683592,216.471352 188.119795,216.257812 187.390625,216.257812 C186.526037,216.257812 185.869794,216.497393 185.421875,216.976562 C184.973956,217.455732 184.75,218.09635 184.75,218.898438 L183.882812,218.898438 L183.867187,218.851562 C183.841146,217.903641 184.148434,217.101566 184.789062,216.445312 C185.429691,215.789059 186.29687,215.460938 187.390625,215.460938 C188.369797,215.460938 189.153643,215.742185 189.742187,216.304688 C190.330732,216.86719 190.625,217.622391 190.625,218.570312 C190.625,219.195316 190.428387,219.829424 190.035156,220.472656 C189.641925,221.115889 189.093754,221.833329 188.390625,222.625 L185.257812,226.171875 L185.273437,226.210938 L191.132812,226.210938 L191.132812,227 Z M193.34375,221.851562 L193.976562,215.625 L199.5,215.625 L199.5,216.492188 L194.773437,216.492188 L194.351562,220.546875 C194.638022,220.286457 194.953123,220.085938 195.296875,219.945312 C195.640627,219.804687 196.106768,219.726563 196.695312,219.710938 C197.664067,219.695312 198.44531,220.02083 199.039062,220.6875 C199.632815,221.35417 199.929687,222.249994 199.929687,223.375 C199.929687,224.526047 199.64193,225.445309 199.066406,226.132812 C198.490883,226.820316 197.625006,227.164062 196.46875,227.164062 C195.531245,227.164062 194.750003,226.902346 194.125,226.378906 C193.499997,225.855466 193.200521,225.080734 193.226562,224.054688 L193.242187,224.007812 L194.078125,224.007812 C194.078125,224.773441 194.295571,225.359373 194.730469,225.765625 C195.165367,226.171877 195.744788,226.375 196.46875,226.375 C197.312504,226.375 197.944008,226.119794 198.363281,225.609375 C198.782554,225.098956 198.992187,224.35938 198.992187,223.390625 C198.992187,222.541662 198.782554,221.86068 198.363281,221.347656 C197.944008,220.834633 197.356775,220.578125 196.601562,220.578125 C195.872392,220.578125 195.316408,220.694009 194.933594,220.925781 C194.550779,221.157553 194.273438,221.50781 194.101562,221.976562 L193.34375,221.851562 Z" fill="#757575"></path>
                <path d="M223.132812,227 L216.070312,227 L216.070312,226.28125 L219.796875,222.054688 C220.484378,221.278642 220.970051,220.628909 221.253906,220.105469 C221.537762,219.582029 221.679688,219.080732 221.679688,218.601562 C221.679688,217.893226 221.480471,217.325523 221.082031,216.898438 C220.683592,216.471352 220.119795,216.257812 219.390625,216.257812 C218.526037,216.257812 217.869794,216.497393 217.421875,216.976562 C216.973956,217.455732 216.75,218.09635 216.75,218.898438 L215.882812,218.898438 L215.867188,218.851562 C215.841146,217.903641 216.148434,217.101566 216.789062,216.445312 C217.429691,215.789059 218.29687,215.460938 219.390625,215.460938 C220.369797,215.460938 221.153643,215.742185 221.742188,216.304688 C222.330732,216.86719 222.625,217.622391 222.625,218.570312 C222.625,219.195316 222.428387,219.829424 222.035156,220.472656 C221.641925,221.115889 221.093754,221.833329 220.390625,222.625 L217.257812,226.171875 L217.273438,226.210938 L223.132812,226.210938 L223.132812,227 Z M228.921875,215.460938 C229.312502,215.460938 229.697915,215.505208 230.078125,215.59375 C230.458335,215.682292 230.796874,215.809895 231.09375,215.976562 L230.851562,216.742188 C230.554686,216.57552 230.260418,216.453125 229.96875,216.375 C229.677082,216.296875 229.328127,216.257812 228.921875,216.257812 C228.078121,216.257812 227.378909,216.585934 226.824219,217.242188 C226.269528,217.898441 225.992188,218.760411 225.992188,219.828125 L225.992188,220.835938 C226.304689,220.429685 226.703123,220.104168 227.1875,219.859375 C227.671877,219.614582 228.20833,219.492188 228.796875,219.492188 C229.817713,219.492188 230.624997,219.843746 231.21875,220.546875 C231.812503,221.250004 232.109375,222.166661 232.109375,223.296875 C232.109375,224.416672 231.790368,225.341142 231.152344,226.070312 C230.51432,226.799483 229.684901,227.164062 228.664062,227.164062 C227.617182,227.164062 226.75391,226.773441 226.074219,225.992188 C225.394528,225.210934 225.054688,224.140632 225.054688,222.78125 L225.054688,219.914062 C225.054688,218.601556 225.42708,217.531254 226.171875,216.703125 C226.91667,215.874996 227.833328,215.460938 228.921875,215.460938 Z M228.609375,220.257812 C227.979164,220.257812 227.428388,220.421873 226.957031,220.75 C226.485675,221.078127 226.164063,221.499997 225.992188,222.015625 L225.992188,222.851562 C225.992188,223.94011 226.242185,224.799476 226.742188,225.429688 C227.24219,226.059899 227.882809,226.375 228.664062,226.375 C229.424483,226.375 230.03255,226.076826 230.488281,225.480469 C230.944013,224.884112 231.171875,224.156254 231.171875,223.296875 C231.171875,222.385412 230.950523,221.651044 230.507812,221.09375 C230.065102,220.536456 229.432296,220.257812 228.609375,220.257812 Z" fill="#757575"></path>
                <path d="M63.1328125,226 L56.0703125,226 L56.0703125,225.28125 L59.796875,221.054688 C60.4843784,220.278642 60.9700507,219.628909 61.2539062,219.105469 C61.5377618,218.582029 61.6796875,218.080732 61.6796875,217.601562 C61.6796875,216.893226 61.4804707,216.325523 61.0820312,215.898438 C60.6835918,215.471352 60.1197953,215.257812 59.390625,215.257812 C58.5260373,215.257812 57.8697939,215.497393 57.421875,215.976562 C56.9739561,216.455732 56.75,217.09635 56.75,217.898438 L55.8828125,217.898438 L55.8671875,217.851562 C55.8411457,216.903641 56.1484343,216.101566 56.7890625,215.445312 C57.4296907,214.789059 58.2968695,214.460938 59.390625,214.460938 C60.3697966,214.460938 61.1536429,214.742185 61.7421875,215.304688 C62.3307321,215.86719 62.625,216.622391 62.625,217.570312 C62.625,218.195316 62.4283874,218.829424 62.0351562,219.472656 C61.6419251,220.115889 61.0937535,220.833329 60.390625,221.625 L57.2578125,225.171875 L57.2734375,225.210938 L63.1328125,225.210938 L63.1328125,226 Z M69.1640625,226.054688 L68.2265625,226.054688 L68.2265625,215.601562 L65.3359375,215.9375 L65.3359375,215.28125 L69.1640625,214.59375 L69.1640625,226.054688 Z" fill="#757575"></path>
                <path d="M31.1328125,226 L24.0703125,226 L24.0703125,225.28125 L27.796875,221.054688 C28.4843784,220.278642 28.9700507,219.628909 29.2539062,219.105469 C29.5377618,218.582029 29.6796875,218.080732 29.6796875,217.601562 C29.6796875,216.893226 29.4804707,216.325523 29.0820312,215.898438 C28.6835918,215.471352 28.1197953,215.257812 27.390625,215.257812 C26.5260373,215.257812 25.8697939,215.497393 25.421875,215.976562 C24.9739561,216.455732 24.75,217.09635 24.75,217.898438 L23.8828125,217.898438 L23.8671875,217.851562 C23.8411457,216.903641 24.1484343,216.101566 24.7890625,215.445312 C25.4296907,214.789059 26.2968695,214.460938 27.390625,214.460938 C28.3697966,214.460938 29.1536429,214.742185 29.7421875,215.304688 C30.3307321,215.86719 30.625,216.622391 30.625,217.570312 C30.625,218.195316 30.4283874,218.829424 30.0351562,219.472656 C29.6419251,220.115889 29.0937535,220.833329 28.390625,221.625 L25.2578125,225.171875 L25.2734375,225.210938 L31.1328125,225.210938 L31.1328125,226 Z M40.140625,221.585938 C40.140625,223.054695 39.8229198,224.184892 39.1875,224.976562 C38.5520802,225.768233 37.6692765,226.164062 36.5390625,226.164062 C35.4140569,226.164062 34.5299511,225.766931 33.8867188,224.972656 C33.2434864,224.178381 32.921875,223.049486 32.921875,221.585938 L32.921875,219.046875 C32.921875,217.583326 33.2395802,216.453129 33.875,215.65625 C34.5104198,214.859371 35.3932235,214.460938 36.5234375,214.460938 C37.6536515,214.460938 38.5390593,214.859371 39.1796875,215.65625 C39.8203157,216.453129 40.140625,217.583326 40.140625,219.046875 L40.140625,221.585938 Z M39.203125,218.890625 C39.203125,217.723952 38.9739606,216.826826 38.515625,216.199219 C38.0572894,215.571611 37.3932335,215.257812 36.5234375,215.257812 C35.6536415,215.257812 34.9921898,215.571611 34.5390625,216.199219 C34.0859352,216.826826 33.859375,217.723952 33.859375,218.890625 L33.859375,221.726562 C33.859375,222.882818 34.0898414,223.779945 34.5507812,224.417969 C35.0117211,225.055993 35.6744748,225.375 36.5390625,225.375 C37.4036502,225.375 38.0637998,225.057295 38.5195312,224.421875 C38.9752627,223.786455 39.203125,222.888027 39.203125,221.726562 L39.203125,218.890625 Z" fill="#757575"></path>
                <path d="M95.1328125,258 L88.0703125,258 L88.0703125,257.28125 L91.796875,253.054688 C92.4843784,252.278642 92.9700507,251.628909 93.2539062,251.105469 C93.5377618,250.582029 93.6796875,250.080732 93.6796875,249.601562 C93.6796875,248.893226 93.4804707,248.325523 93.0820312,247.898438 C92.6835918,247.471352 92.1197953,247.257812 91.390625,247.257812 C90.5260373,247.257812 89.8697939,247.497393 89.421875,247.976562 C88.9739561,248.455732 88.75,249.09635 88.75,249.898438 L87.8828125,249.898438 L87.8671875,249.851562 C87.8411457,248.903641 88.1484343,248.101566 88.7890625,247.445312 C89.4296907,246.789059 90.2968695,246.460938 91.390625,246.460938 C92.3697966,246.460938 93.1536429,246.742185 93.7421875,247.304688 C94.3307321,247.86719 94.625,248.622391 94.625,249.570312 C94.625,250.195316 94.4283874,250.829424 94.0351562,251.472656 C93.6419251,252.115889 93.0937535,252.833329 92.390625,253.625 L89.2578125,257.171875 L89.2734375,257.210938 L95.1328125,257.210938 L95.1328125,258 Z M99.859375,257.375 C100.723963,257.375 101.411456,257.08594 101.921875,256.507812 C102.432294,255.929685 102.6875,255.101568 102.6875,254.023438 L102.6875,252.882812 C102.411457,253.361982 102.040367,253.73177 101.574219,253.992188 C101.108071,254.252605 100.588545,254.382812 100.015625,254.382812 C98.9791615,254.382812 98.1445344,254.023441 97.5117188,253.304688 C96.8789031,252.585934 96.5625,251.656256 96.5625,250.515625 C96.5625,249.364578 96.8945279,248.401046 97.5585938,247.625 C98.2226596,246.848954 99.0442659,246.460938 100.023438,246.460938 C101.122401,246.460938 102.002601,246.819007 102.664062,247.535156 C103.325524,248.251306 103.65625,249.29166 103.65625,250.65625 L103.65625,254.007812 C103.65625,255.325527 103.307295,256.347653 102.609375,257.074219 C101.911455,257.800785 100.994797,258.164062 99.859375,258.164062 C99.453123,258.164062 99.045575,258.125 98.6367188,258.046875 C98.2278625,257.96875 97.8385435,257.848959 97.46875,257.6875 L97.640625,256.90625 C97.9947934,257.072918 98.3450504,257.192708 98.6914062,257.265625 C99.0377621,257.338542 99.4270812,257.375 99.859375,257.375 Z M100.015625,253.59375 C100.692712,253.59375 101.259112,253.420575 101.714844,253.074219 C102.170575,252.727863 102.494791,252.299482 102.6875,251.789062 L102.6875,250.585938 C102.6875,249.507807 102.451825,248.683597 101.980469,248.113281 C101.509112,247.542966 100.869796,247.257812 100.0625,247.257812 C99.3281213,247.257812 98.7226586,247.575518 98.2460938,248.210938 C97.7695289,248.846357 97.53125,249.614579 97.53125,250.515625 C97.53125,251.390629 97.7552061,252.122393 98.203125,252.710938 C98.6510439,253.299482 99.2552045,253.59375 100.015625,253.59375 Z" fill="#757575"></path>
                <path d="M154.148438,251.804688 L155.234375,251.804688 C156.062504,251.804688 156.690102,251.597658 157.117188,251.183594 C157.544273,250.769529 157.757812,250.236982 157.757812,249.585938 C157.757812,248.877601 157.557294,248.312502 157.15625,247.890625 C156.755206,247.468748 156.158858,247.257812 155.367188,247.257812 C154.638017,247.257812 154.040367,247.472654 153.574219,247.902344 C153.108071,248.332033 152.875,248.898434 152.875,249.601562 L152,249.601562 L151.984375,249.554688 C151.958333,248.669266 152.268226,247.932295 152.914062,247.34375 C153.559899,246.755205 154.377599,246.460938 155.367188,246.460938 C156.382818,246.460938 157.191403,246.739581 157.792969,247.296875 C158.394534,247.854169 158.695312,248.627599 158.695312,249.617188 C158.695312,250.153649 158.528648,250.65755 158.195312,251.128906 C157.861977,251.600263 157.393232,251.95052 156.789062,252.179688 C157.497399,252.382814 158.027342,252.725258 158.378906,253.207031 C158.730471,253.688804 158.90625,254.257809 158.90625,254.914062 C158.90625,255.924484 158.57943,256.718747 157.925781,257.296875 C157.272132,257.875003 156.432297,258.164062 155.40625,258.164062 C154.411453,258.164062 153.557295,257.881513 152.84375,257.316406 C152.130205,256.751299 151.786458,255.966151 151.8125,254.960938 L151.828125,254.914062 L152.703125,254.914062 C152.703125,255.638024 152.954425,256.229164 153.457031,256.6875 C153.959638,257.145836 154.609371,257.375 155.40625,257.375 C156.213546,257.375 156.843748,257.165367 157.296875,256.746094 C157.750002,256.326821 157.976562,255.726566 157.976562,254.945312 C157.976562,254.148434 157.739586,253.558596 157.265625,253.175781 C156.791664,252.792967 156.114588,252.601562 155.234375,252.601562 L154.148438,252.601562 L154.148438,251.804688 Z M165.164062,258.054688 L164.226562,258.054688 L164.226562,247.601562 L161.335938,247.9375 L161.335938,247.28125 L165.164062,246.59375 L165.164062,258.054688 Z" fill="#757575"></path>
                <path d="M122.148438,251.804688 L123.234375,251.804688 C124.062504,251.804688 124.690102,251.597658 125.117188,251.183594 C125.544273,250.769529 125.757812,250.236982 125.757812,249.585938 C125.757812,248.877601 125.557294,248.312502 125.15625,247.890625 C124.755206,247.468748 124.158858,247.257812 123.367188,247.257812 C122.638017,247.257812 122.040367,247.472654 121.574219,247.902344 C121.108071,248.332033 120.875,248.898434 120.875,249.601562 L120,249.601562 L119.984375,249.554688 C119.958333,248.669266 120.268226,247.932295 120.914062,247.34375 C121.559899,246.755205 122.377599,246.460938 123.367188,246.460938 C124.382818,246.460938 125.191403,246.739581 125.792969,247.296875 C126.394534,247.854169 126.695312,248.627599 126.695312,249.617188 C126.695312,250.153649 126.528648,250.65755 126.195312,251.128906 C125.861977,251.600263 125.393232,251.95052 124.789062,252.179688 C125.497399,252.382814 126.027342,252.725258 126.378906,253.207031 C126.730471,253.688804 126.90625,254.257809 126.90625,254.914062 C126.90625,255.924484 126.57943,256.718747 125.925781,257.296875 C125.272132,257.875003 124.432297,258.164062 123.40625,258.164062 C122.411453,258.164062 121.557295,257.881513 120.84375,257.316406 C120.130205,256.751299 119.786458,255.966151 119.8125,254.960938 L119.828125,254.914062 L120.703125,254.914062 C120.703125,255.638024 120.954425,256.229164 121.457031,256.6875 C121.959638,257.145836 122.609371,257.375 123.40625,257.375 C124.213546,257.375 124.843748,257.165367 125.296875,256.746094 C125.750002,256.326821 125.976562,255.726566 125.976562,254.945312 C125.976562,254.148434 125.739586,253.558596 125.265625,253.175781 C124.791664,252.792967 124.114588,252.601562 123.234375,252.601562 L122.148438,252.601562 L122.148438,251.804688 Z M136.140625,253.585938 C136.140625,255.054695 135.82292,256.184892 135.1875,256.976562 C134.55208,257.768233 133.669276,258.164062 132.539062,258.164062 C131.414057,258.164062 130.529951,257.766931 129.886719,256.972656 C129.243486,256.178381 128.921875,255.049486 128.921875,253.585938 L128.921875,251.046875 C128.921875,249.583326 129.23958,248.453129 129.875,247.65625 C130.51042,246.859371 131.393224,246.460938 132.523438,246.460938 C133.653651,246.460938 134.539059,246.859371 135.179688,247.65625 C135.820316,248.453129 136.140625,249.583326 136.140625,251.046875 L136.140625,253.585938 Z M135.203125,250.890625 C135.203125,249.723952 134.973961,248.826826 134.515625,248.199219 C134.057289,247.571611 133.393234,247.257812 132.523438,247.257812 C131.653641,247.257812 130.99219,247.571611 130.539062,248.199219 C130.085935,248.826826 129.859375,249.723952 129.859375,250.890625 L129.859375,253.726562 C129.859375,254.882818 130.089841,255.779945 130.550781,256.417969 C131.011721,257.055993 131.674475,257.375 132.539062,257.375 C133.40365,257.375 134.0638,257.057295 134.519531,256.421875 C134.975263,255.786455 135.203125,254.888027 135.203125,253.726562 L135.203125,250.890625 Z" fill="#757575"></path>
                <polygon fill="#BABABA" points="192.296875 259.054688 191.359375 259.054688 191.359375 248.601562 188.46875 248.9375 188.46875 248.28125 192.296875 247.59375"></polygon>
                <path d="M227.132812,259 L220.070312,259 L220.070312,258.28125 L223.796875,254.054688 C224.484378,253.278642 224.970051,252.628909 225.253906,252.105469 C225.537762,251.582029 225.679688,251.080732 225.679688,250.601562 C225.679688,249.893226 225.480471,249.325523 225.082031,248.898438 C224.683592,248.471352 224.119795,248.257812 223.390625,248.257812 C222.526037,248.257812 221.869794,248.497393 221.421875,248.976562 C220.973956,249.455732 220.75,250.09635 220.75,250.898438 L219.882812,250.898438 L219.867188,250.851562 C219.841146,249.903641 220.148434,249.101566 220.789062,248.445312 C221.429691,247.789059 222.29687,247.460938 223.390625,247.460938 C224.369797,247.460938 225.153643,247.742185 225.742188,248.304688 C226.330732,248.86719 226.625,249.622391 226.625,250.570312 C226.625,251.195316 226.428387,251.829424 226.035156,252.472656 C225.641925,253.115889 225.093754,253.833329 224.390625,254.625 L221.257812,258.171875 L221.273438,258.210938 L227.132812,258.210938 L227.132812,259 Z" fill="#BABABA"></path>
                <path d="M63.1328125,258 L56.0703125,258 L56.0703125,257.28125 L59.796875,253.054688 C60.4843784,252.278642 60.9700507,251.628909 61.2539062,251.105469 C61.5377618,250.582029 61.6796875,250.080732 61.6796875,249.601562 C61.6796875,248.893226 61.4804707,248.325523 61.0820312,247.898438 C60.6835918,247.471352 60.1197953,247.257812 59.390625,247.257812 C58.5260373,247.257812 57.8697939,247.497393 57.421875,247.976562 C56.9739561,248.455732 56.75,249.09635 56.75,249.898438 L55.8828125,249.898438 L55.8671875,249.851562 C55.8411457,248.903641 56.1484343,248.101566 56.7890625,247.445312 C57.4296907,246.789059 58.2968695,246.460938 59.390625,246.460938 C60.3697966,246.460938 61.1536429,246.742185 61.7421875,247.304688 C62.3307321,247.86719 62.625,248.622391 62.625,249.570312 C62.625,250.195316 62.4283874,250.829424 62.0351562,251.472656 C61.6419251,252.115889 61.0937535,252.833329 60.390625,253.625 L57.2578125,257.171875 L57.2734375,257.210938 L63.1328125,257.210938 L63.1328125,258 Z M71.6484375,249.554688 C71.6484375,250.169274 71.4687518,250.707029 71.109375,251.167969 C70.7499982,251.628909 70.2708363,251.963541 69.671875,252.171875 C70.3645868,252.385418 70.9205708,252.740883 71.3398438,253.238281 C71.7591167,253.73568 71.96875,254.317705 71.96875,254.984375 C71.96875,256.005213 71.6276076,256.790362 70.9453125,257.339844 C70.2630174,257.889326 69.385422,258.164062 68.3125,258.164062 C67.2187445,258.164062 66.3346388,257.890628 65.6601562,257.34375 C64.9856737,256.796872 64.6484375,256.010422 64.6484375,254.984375 C64.6484375,254.312497 64.8541646,253.727867 65.265625,253.230469 C65.6770854,252.73307 66.2291632,252.377605 66.921875,252.164062 C66.3229137,251.955728 65.847658,251.622398 65.4960938,251.164062 C65.1445295,250.705727 64.96875,250.169274 64.96875,249.554688 C64.96875,248.575516 65.2773407,247.815107 65.8945312,247.273438 C66.5117218,246.731768 67.3124951,246.460938 68.296875,246.460938 C69.2760466,246.460938 70.0794239,246.73307 70.7070312,247.277344 C71.3346386,247.821617 71.6484375,248.580724 71.6484375,249.554688 Z M71.03125,254.992188 C71.03125,254.273434 70.7708359,253.688804 70.25,253.238281 C69.7291641,252.787758 69.0781289,252.5625 68.296875,252.5625 C67.5052044,252.5625 66.8541692,252.787758 66.34375,253.238281 C65.8333308,253.688804 65.578125,254.273434 65.578125,254.992188 C65.578125,255.736983 65.8307266,256.32031 66.3359375,256.742188 C66.8411484,257.164065 67.4999959,257.375 68.3125,257.375 C69.1041706,257.375 69.7552058,257.162763 70.265625,256.738281 C70.7760442,256.3138 71.03125,255.731775 71.03125,254.992188 Z M70.7109375,249.546875 C70.7109375,248.890622 70.4804711,248.345054 70.0195312,247.910156 C69.5585914,247.475258 68.9843784,247.257812 68.296875,247.257812 C67.5937465,247.257812 67.0182314,247.466144 66.5703125,247.882812 C66.1223936,248.299481 65.8984375,248.854163 65.8984375,249.546875 C65.8984375,250.218753 66.1236957,250.756508 66.5742188,251.160156 C67.0247418,251.563804 67.6041631,251.765625 68.3125,251.765625 C69.0052118,251.765625 69.5781227,251.563804 70.03125,251.160156 C70.4843773,250.756508 70.7109375,250.218753 70.7109375,249.546875 Z" fill="#757575"></path>
                <path d="M31.1328125,258 L24.0703125,258 L24.0703125,257.28125 L27.796875,253.054688 C28.4843784,252.278642 28.9700507,251.628909 29.2539062,251.105469 C29.5377618,250.582029 29.6796875,250.080732 29.6796875,249.601562 C29.6796875,248.893226 29.4804707,248.325523 29.0820312,247.898438 C28.6835918,247.471352 28.1197953,247.257812 27.390625,247.257812 C26.5260373,247.257812 25.8697939,247.497393 25.421875,247.976562 C24.9739561,248.455732 24.75,249.09635 24.75,249.898438 L23.8828125,249.898438 L23.8671875,249.851562 C23.8411457,248.903641 24.1484343,248.101566 24.7890625,247.445312 C25.4296907,246.789059 26.2968695,246.460938 27.390625,246.460938 C28.3697966,246.460938 29.1536429,246.742185 29.7421875,247.304688 C30.3307321,247.86719 30.625,248.622391 30.625,249.570312 C30.625,250.195316 30.4283874,250.829424 30.0351562,251.472656 C29.6419251,252.115889 29.0937535,252.833329 28.390625,253.625 L25.2578125,257.171875 L25.2734375,257.210938 L31.1328125,257.210938 L31.1328125,258 Z M39.9296875,247.421875 C38.7005147,248.880216 37.7604199,250.36067 37.109375,251.863281 C36.4583301,253.365893 36.0234386,255.09374 35.8046875,257.046875 L35.71875,258 L34.78125,258 L34.8671875,257.046875 C35.0859386,255.119782 35.5390591,253.37631 36.2265625,251.816406 C36.9140659,250.256503 37.8255152,248.791674 38.9609375,247.421875 L32.46875,247.421875 L32.46875,246.625 L39.9296875,246.625 L39.9296875,247.421875 Z" fill="#757575"></path>
                <polygon fill="#EEEEEE" fill-rule="nonzero" transform="translate(238.000000, 31.000000) rotate(-90.000000) translate(-238.000000, -31.000000) " points="233.147408 27.0753054 232 28.1611545 237.967147 35 244 28.0858491 242.852592 27 237.967147 32.5991265"></polygon>
            </g>
            <g transform="translate(10.000000, 0.000000)">
                <g fill-rule="nonzero" fill="#D8D8D8">
                    <rect x="0" y="0" width="256" height="173"></rect>
                </g>
                <g>
                    <mask id="mask-4" fill="white">
                        <use xlink:href="#path-3"></use>
                    </mask>
                    <g></g>
                    <g mask="url(#mask-4)">
                        <g>
                            <g fill="#000000" fill-rule="nonzero">
                                <polygon points="0 280 256 280 256 0 0 0"></polygon>
                            </g>
                            <g fill="#757575">
                                <polygon points="0 280 256 280 256 0 0 0"></polygon>
                            </g>
                        </g>
                        <text fill="#FFFFFF" font-family="Roboto-Light, Roboto" font-size="16" font-weight="300">
                            <tspan x="81.4375" y="87">Select Month</tspan>
                        </text>
                        <rect fill="#616161" x="220" y="0" width="36" height="64"></rect>
                        <polygon fill="#FFFFFF" fill-rule="nonzero" transform="translate(238.000000, 31.840839) scale(-1, 1) rotate(90.000000) translate(-238.000000, -31.840839) " points="233.147407 28.0723093 232 29.1149521 237.967146 35.6816777 244 29.0426431 242.852592 28.0000002 237.967146 33.3763358"></polygon>
                        <rect fill="#616161" x="0" y="0" width="36" height="64"></rect>
                        <polygon fill="#FFFFFF" fill-rule="nonzero" transform="translate(18.000000, 31.840839) rotate(90.000000) translate(-18.000000, -31.840839) " points="13.1474078 28.0723093 12.0000002 29.1149521 17.9671468 35.6816777 24.0000002 29.0426431 22.8525927 28.0000002 17.9671468 33.3763358"></polygon>
                        <path d="M77.4746094,23.7890625 L83.7441406,38.8125 L83.8144531,38.8125 L90.1074219,23.7890625 L91.9589844,23.7890625 L91.9589844,40.8515625 L90.5644531,40.8515625 L90.5644531,33.3164062 L90.6816406,25.8515625 L90.6113281,25.828125 L84.2714844,40.8515625 L83.2988281,40.8515625 L76.9707031,25.8984375 L76.9003906,25.9101562 L77.0292969,33.3164062 L77.0292969,40.8515625 L75.6347656,40.8515625 L75.6347656,23.7890625 L77.4746094,23.7890625 Z M105.810547,36.09375 L97.9941406,36.09375 L96.2363281,40.8515625 L94.7832031,40.8515625 L101.263672,23.7890625 L102.587891,23.7890625 L109.021484,40.8515625 L107.568359,40.8515625 L105.810547,36.09375 Z M98.4628906,34.8398438 L105.353516,34.8398438 L101.955078,25.6054688 L101.884766,25.6054688 L98.4628906,34.8398438 Z M115.560547,33.2695312 L120.845703,23.7890625 L122.474609,23.7890625 L116.251953,34.6171875 L116.251953,40.8515625 L114.857422,40.8515625 L114.857422,34.5351562 L108.681641,23.7890625 L110.310547,23.7890625 L115.560547,33.2695312 Z M140.908203,40.8515625 L130.314453,40.8515625 L130.314453,39.7734375 L135.904297,33.4335938 C136.935552,32.2695254 137.66406,31.2949258 138.089844,30.5097656 C138.515627,29.7246054 138.728516,28.9726598 138.728516,28.2539062 C138.728516,27.1914009 138.42969,26.339847 137.832031,25.6992188 C137.234372,25.0585905 136.388677,24.7382812 135.294922,24.7382812 C133.99804,24.7382812 133.013675,25.0976527 132.341797,25.8164062 C131.669919,26.5351598 131.333984,27.4960877 131.333984,28.6992188 L130.033203,28.6992188 L130.009766,28.6289062 C129.970703,27.2070241 130.431636,26.0039112 131.392578,25.0195312 C132.35352,24.0351513 133.654289,23.5429688 135.294922,23.5429688 C136.763679,23.5429688 137.939449,23.9648395 138.822266,24.8085938 C139.705083,25.652348 140.146484,26.7851491 140.146484,28.2070312 C140.146484,29.1445359 139.851565,30.0956983 139.261719,31.0605469 C138.671872,32.0253954 137.849615,33.1015566 136.794922,34.2890625 L132.095703,39.609375 L132.119141,39.6679688 L140.908203,39.6679688 L140.908203,40.8515625 Z M154.419922,34.2304688 C154.419922,36.4336048 153.943364,38.1289003 152.990234,39.3164062 C152.037105,40.5039122 150.712899,41.0976562 149.017578,41.0976562 C147.33007,41.0976562 146.003911,40.5019591 145.039062,39.3105469 C144.074214,38.1191347 143.591797,36.4257922 143.591797,34.2304688 L143.591797,30.421875 C143.591797,28.2265515 144.068355,26.531256 145.021484,25.3359375 C145.974614,24.140619 147.29882,23.5429688 148.994141,23.5429688 C150.689462,23.5429688 152.017573,24.140619 152.978516,25.3359375 C153.939458,26.531256 154.419922,28.2265515 154.419922,30.421875 L154.419922,34.2304688 Z M153.013672,30.1875 C153.013672,28.4374913 152.669925,27.0918016 151.982422,26.1503906 C151.294918,25.2089797 150.298835,24.7382812 148.994141,24.7382812 C147.689447,24.7382812 146.697269,25.2089797 146.017578,26.1503906 C145.337887,27.0918016 144.998047,28.4374913 144.998047,30.1875 L144.998047,34.4414062 C144.998047,36.1757899 145.343747,37.5214796 146.035156,38.4785156 C146.726566,39.4355517 147.720697,39.9140625 149.017578,39.9140625 C150.31446,39.9140625 151.304684,39.4375048 151.988281,38.484375 C152.671878,37.5312452 153.013672,36.1836025 153.013672,34.4414062 L153.013672,30.1875 Z M163.947266,40.9335938 L162.541016,40.9335938 L162.541016,25.2539062 L158.205078,25.7578125 L158.205078,24.7734375 L163.947266,23.7421875 L163.947266,40.9335938 Z M181.396484,24.984375 C179.552725,27.1718859 178.142583,29.3925669 177.166016,31.6464844 C176.189448,33.9004019 175.537111,36.4921729 175.208984,39.421875 L175.080078,40.8515625 L173.673828,40.8515625 L173.802734,39.421875 C174.130861,36.5312355 174.810542,33.9160273 175.841797,31.5761719 C176.873052,29.2363164 178.240226,27.0390728 179.943359,24.984375 L170.205078,24.984375 L170.205078,23.7890625 L181.396484,23.7890625 L181.396484,24.984375 Z" fill="#FFFFFF"></path>
                        <path d="M193.496094,163.625 L194.433594,163.625 L194.433594,171.773438 C194.433594,172.809901 194.125003,173.634112 193.507812,174.246094 C192.890622,174.858076 192.092453,175.164062 191.113281,175.164062 C190.045568,175.164062 189.201826,174.888024 188.582031,174.335938 C187.962236,173.783851 187.665364,172.976568 187.691406,171.914062 L187.707031,171.867188 L188.582031,171.867188 C188.582031,172.690108 188.800779,173.3138 189.238281,173.738281 C189.675783,174.162763 190.300777,174.375 191.113281,174.375 C191.805993,174.375 192.3763,174.139325 192.824219,173.667969 C193.272138,173.196612 193.496094,172.565108 193.496094,171.773438 L193.496094,163.625 Z M205.300781,163.625 L205.300781,171.335938 C205.300781,172.575527 204.921879,173.523434 204.164062,174.179688 C203.406246,174.835941 202.417975,175.164062 201.199219,175.164062 C199.996088,175.164062 199.022139,174.834639 198.277344,174.175781 C197.532548,173.516924 197.160156,172.570319 197.160156,171.335938 L197.160156,163.625 L198.097656,163.625 L198.097656,171.335938 C198.097656,172.304692 198.384112,173.053383 198.957031,173.582031 C199.529951,174.11068 200.277339,174.375 201.199219,174.375 C202.136723,174.375 202.899737,174.111982 203.488281,173.585938 C204.076826,173.059893 204.371094,172.309901 204.371094,171.335938 L204.371094,163.625 L205.300781,163.625 Z M216.457031,175 L215.527344,175 L209.066406,165.21875 L209.019531,165.226562 L209.019531,175 L208.082031,175 L208.082031,163.625 L209.019531,163.625 L215.480469,173.390625 L215.527344,173.382812 L215.527344,163.625 L216.457031,163.625 L216.457031,175 Z" fill="#FFFFFF"></path>
                        <rect fill="#BDBDBD" x="90" y="148" width="75" height="40"></rect>
                        <path d="M113.726563,163.625 L117.90625,173.640625 L117.953125,173.640625 L122.148438,163.625 L123.382813,163.625 L123.382813,175 L122.453125,175 L122.453125,169.976562 L122.53125,165 L122.484375,164.984375 L118.257813,175 L117.609375,175 L113.390625,165.03125 L113.34375,165.039062 L113.429688,169.976562 L113.429688,175 L112.5,175 L112.5,163.625 L113.726563,163.625 Z M132.617188,171.828125 L127.40625,171.828125 L126.234375,175 L125.265625,175 L129.585938,163.625 L130.46875,163.625 L134.757812,175 L133.789062,175 L132.617188,171.828125 Z M127.71875,170.992188 L132.3125,170.992188 L130.046875,164.835938 L130,164.835938 L127.71875,170.992188 Z M139.117188,169.945312 L142.640625,163.625 L143.726562,163.625 L139.578125,170.84375 L139.578125,175 L138.648438,175 L138.648438,170.789062 L134.53125,163.625 L135.617188,163.625 L139.117188,169.945312 Z" fill="#212121"></path>
                        <path d="M45.890625,171.828125 L40.6796875,171.828125 L39.5078125,175 L38.5390625,175 L42.859375,163.625 L43.7421875,163.625 L48.03125,175 L47.0625,175 L45.890625,171.828125 Z M40.9921875,170.992188 L45.5859375,170.992188 L43.3203125,164.835938 L43.2734375,164.835938 L40.9921875,170.992188 Z M50.703125,170.273438 L50.703125,175 L49.7734375,175 L49.7734375,163.625 L53.6875,163.625 C54.8802143,163.625 55.8033821,163.928382 56.4570312,164.535156 C57.1106804,165.14193 57.4375,165.945308 57.4375,166.945312 C57.4375,167.955734 57.1106804,168.763018 56.4570312,169.367188 C55.8033821,169.971357 54.8802143,170.273438 53.6875,170.273438 L50.703125,170.273438 Z M50.703125,169.476562 L53.6875,169.476562 C54.6250047,169.476562 55.3294247,169.238284 55.8007812,168.761719 C56.2721378,168.285154 56.5078125,167.684899 56.5078125,166.960938 C56.5078125,166.231767 56.2734398,165.626304 55.8046875,165.144531 C55.3359352,164.662758 54.630213,164.421875 53.6875,164.421875 L50.703125,164.421875 L50.703125,169.476562 Z M60.578125,169.859375 L60.578125,175 L59.6484375,175 L59.6484375,163.632812 L63.5,163.632812 C64.7187561,163.632812 65.6536426,163.899737 66.3046875,164.433594 C66.9557324,164.967451 67.28125,165.747391 67.28125,166.773438 C67.28125,167.377607 67.1067726,167.917966 66.7578125,168.394531 C66.4088524,168.871096 65.9166698,169.218749 65.28125,169.4375 C65.9843785,169.614584 66.4908839,169.930987 66.8007812,170.386719 C67.1106786,170.84245 67.265625,171.414059 67.265625,172.101562 L67.265625,173.171875 C67.265625,173.526043 67.3072912,173.843749 67.390625,174.125 C67.4739588,174.406251 67.6119782,174.635416 67.8046875,174.8125 L67.8046875,175 L66.8515625,175 C66.6588532,174.812499 66.5234379,174.549481 66.4453125,174.210938 C66.3671871,173.872394 66.328125,173.520835 66.328125,173.15625 L66.328125,172.117188 C66.328125,171.419267 66.1028668,170.868492 65.6523438,170.464844 C65.2018207,170.061196 64.5729207,169.859375 63.765625,169.859375 L60.578125,169.859375 Z M60.578125,169.0625 L63.3828125,169.0625 C64.4088593,169.0625 65.1588518,168.855471 65.6328125,168.441406 C66.1067732,168.027342 66.34375,167.468754 66.34375,166.765625 C66.34375,166.015621 66.1080753,165.438804 65.6367188,165.035156 C65.1653622,164.631508 64.4531298,164.429688 63.5,164.429688 L60.578125,164.429688 L60.578125,169.0625 Z" fill="#FFFFFF"></path>
                        <path d="M187.953125,123.625 L192.132812,133.640625 L192.179688,133.640625 L196.375,123.625 L197.609375,123.625 L197.609375,135 L196.679688,135 L196.679688,129.976562 L196.757812,125 L196.710938,124.984375 L192.484375,135 L191.835938,135 L187.617188,125.03125 L187.570312,125.039062 L187.65625,129.976562 L187.65625,135 L186.726562,135 L186.726562,123.625 L187.953125,123.625 Z M206.84375,131.828125 L201.632812,131.828125 L200.460938,135 L199.492188,135 L203.8125,123.625 L204.695312,123.625 L208.984375,135 L208.015625,135 L206.84375,131.828125 Z M201.945312,130.992188 L206.539062,130.992188 L204.273438,124.835937 L204.226562,124.835937 L201.945312,130.992188 Z M211.632812,129.859375 L211.632812,135 L210.703125,135 L210.703125,123.632812 L214.554688,123.632812 C215.773444,123.632812 216.70833,123.899737 217.359375,124.433594 C218.01042,124.967451 218.335938,125.747391 218.335938,126.773437 C218.335938,127.377607 218.16146,127.917966 217.8125,128.394531 C217.46354,128.871096 216.971357,129.218749 216.335938,129.4375 C217.039066,129.614584 217.545571,129.930987 217.855469,130.386719 C218.165366,130.84245 218.320312,131.414059 218.320312,132.101562 L218.320312,133.171875 C218.320312,133.526043 218.361979,133.843749 218.445312,134.125 C218.528646,134.406251 218.666666,134.635416 218.859375,134.8125 L218.859375,135 L217.90625,135 C217.713541,134.812499 217.578125,134.549481 217.5,134.210938 C217.421875,133.872394 217.382812,133.520835 217.382812,133.15625 L217.382812,132.117188 C217.382812,131.419267 217.157554,130.868492 216.707031,130.464844 C216.256508,130.061196 215.627608,129.859375 214.820312,129.859375 L211.632812,129.859375 Z M211.632812,129.0625 L214.4375,129.0625 C215.463547,129.0625 216.213539,128.855471 216.6875,128.441406 C217.161461,128.027342 217.398438,127.468754 217.398438,126.765625 C217.398438,126.015621 217.162763,125.438804 216.691406,125.035156 C216.22005,124.631508 215.507817,124.429687 214.554688,124.429687 L211.632812,124.429687 L211.632812,129.0625 Z" fill="#FFFFFF"></path>
                        <path d="M121.273438,129.671875 L115.742188,129.671875 L115.742188,135 L114.8125,135 L114.8125,123.625 L122.070312,123.625 L122.070312,124.421875 L115.742188,124.421875 L115.742188,128.867188 L121.273438,128.867188 L121.273438,129.671875 Z M130.445312,129.492188 L124.96875,129.492188 L124.96875,134.210938 L131.242188,134.210938 L131.242188,135 L124.039062,135 L124.039062,123.625 L131.203125,123.625 L131.203125,124.421875 L124.96875,124.421875 L124.96875,128.695312 L130.445312,128.695312 L130.445312,129.492188 Z M133.257812,135 L133.257812,123.625 L136.578125,123.625 C137.760423,123.625 138.680986,123.873695 139.339844,124.371094 C139.998701,124.868492 140.328125,125.617182 140.328125,126.617187 C140.328125,127.200524 140.162762,127.708331 139.832031,128.140625 C139.5013,128.572919 139.052086,128.872395 138.484375,129.039062 C139.177087,129.164063 139.739581,129.489581 140.171875,130.015625 C140.604169,130.541669 140.820312,131.148434 140.820312,131.835938 C140.820312,132.851568 140.490889,133.63281 139.832031,134.179688 C139.173174,134.726565 138.291672,135 137.1875,135 L133.257812,135 Z M134.1875,129.515625 L134.1875,134.210938 L137.1875,134.210938 C138.026046,134.210938 138.684893,134.003908 139.164062,133.589844 C139.643232,133.175779 139.882812,132.596358 139.882812,131.851562 C139.882812,131.169267 139.665367,130.609377 139.230469,130.171875 C138.795571,129.734373 138.164067,129.515625 137.335938,129.515625 L134.1875,129.515625 Z M134.1875,128.726562 L136.804688,128.726562 C137.627608,128.726562 138.264321,128.545575 138.714844,128.183594 C139.165367,127.821613 139.390625,127.289066 139.390625,126.585937 C139.390625,125.867184 139.151044,125.326825 138.671875,124.964844 C138.192706,124.602863 137.494796,124.421875 136.578125,124.421875 L134.1875,124.421875 L134.1875,128.726562 Z" fill="#FFFFFF"></path>
                        <path d="M44.953125,123.625 L45.890625,123.625 L45.890625,131.773438 C45.890625,132.809901 45.5820343,133.634112 44.9648438,134.246094 C44.3476532,134.858076 43.5494841,135.164062 42.5703125,135.164062 C41.5025988,135.164062 40.6588573,134.888024 40.0390625,134.335938 C39.4192677,133.783851 39.1223957,132.976568 39.1484375,131.914062 L39.1640625,131.867188 L40.0390625,131.867188 C40.0390625,132.690108 40.2578103,133.3138 40.6953125,133.738281 C41.1328147,134.162763 41.7578084,134.375 42.5703125,134.375 C43.2630243,134.375 43.8333311,134.139325 44.28125,133.667969 C44.7291689,133.196612 44.953125,132.565108 44.953125,131.773438 L44.953125,123.625 Z M54.7421875,131.828125 L49.53125,131.828125 L48.359375,135 L47.390625,135 L51.7109375,123.625 L52.59375,123.625 L56.8828125,135 L55.9140625,135 L54.7421875,131.828125 Z M49.84375,130.992188 L54.4375,130.992188 L52.171875,124.835937 L52.125,124.835937 L49.84375,130.992188 Z M67,135 L66.0703125,135 L59.609375,125.21875 L59.5625,125.226562 L59.5625,135 L58.625,135 L58.625,123.625 L59.5625,123.625 L66.0234375,133.390625 L66.0703125,133.382812 L66.0703125,123.625 L67,123.625 L67,135 Z" fill="#FFFFFF"></path>
                    </g>
                </g>
            </g>
            <g transform="translate(153.000000, 49.000000)">
                <g transform="translate(1.000000, 1.000000)" fill="#000000" fill-rule="nonzero">
                    <path d="M3.876071,9.9999999 L2.980092,8.645328 C2.368309,7.7203456 1.065171,7.3828775 0.06839,7.8899647 L0.300648,7.7718095 C0.053276,7.8976533 -0.065341,8.2113864 0.03651,8.4721449 L1.276748,11.6474127 C1.473361,12.1507837 1.97551,12.8626936 2.391615,13.2203156 C2.391615,13.2203156 4.886636,15.2638557 4.886636,16.03003 L4.886636,16.9999999 L8.928895,16.9999999 L9.93946,14.9999999 L10.950024,16.9999999 L11.960589,17 L11.960589,16.0300301 C11.960589,15.2638558 13.485371,12.8506759 13.485371,12.8506759 C13.766054,12.3815967 14,11.5552351 14,11.0065898 L14,6.9718022 C13.981719,6.0784983 13.214363,5.3545388 12.267511,5.3545388 C11.793828,5.3545388 11.41015,5.7165185 11.41015,6.1634131 L11.41015,6.4865746 C11.41015,5.5932707 10.642794,4.8693112 9.695943,4.8693112 C9.22226,4.8693112 8.838582,5.231291 8.838582,5.6781855 L8.838582,6.0013471 C8.838582,5.1080432 8.071226,4.3840837 7.124375,4.3840837 C6.650692,4.3840837 6.267014,4.7460634 6.267014,5.192958 L6.267014,5.5161195 C6.267014,5.3725559 6.251508,5.258431 6.221549,5.1679905 L5.960038,1.0012141 C5.924675,0.4377609 5.444755,0 4.886636,0 C4.324625,0 3.876071,0.4476291 3.876071,0.9998075 L3.876071,5 L3.876071,9.9999999 Z M10.968306,9.0000001 L11.97887,9 L11.97887,12.9999998 L10.968306,13 L10.968306,9.0000001 L10.968306,9.0000001 Z M8.947176,9.0000001 L9.957741,9 L9.957741,12.9999998 L8.947176,13 L8.947176,9.0000001 L8.947176,9.0000001 Z M6.926047,9.0000001 L7.936611,9 L7.936611,12.9999998 L6.926047,13 L6.926047,9.0000001 L6.926047,9.0000001 Z"></path>
                </g>
                <g transform="translate(1.000000, 1.000000)" fill="#FFFFFF">
                    <path d="M3.876071,9.9999999 L2.980092,8.645328 C2.368309,7.7203456 1.065171,7.3828775 0.06839,7.8899647 L0.300648,7.7718095 C0.053276,7.8976533 -0.065341,8.2113864 0.03651,8.4721449 L1.276748,11.6474127 C1.473361,12.1507837 1.97551,12.8626936 2.391615,13.2203156 C2.391615,13.2203156 4.886636,15.2638557 4.886636,16.03003 L4.886636,16.9999999 L8.928895,16.9999999 L9.93946,14.9999999 L10.950024,16.9999999 L11.960589,17 L11.960589,16.0300301 C11.960589,15.2638558 13.485371,12.8506759 13.485371,12.8506759 C13.766054,12.3815967 14,11.5552351 14,11.0065898 L14,6.9718022 C13.981719,6.0784983 13.214363,5.3545388 12.267511,5.3545388 C11.793828,5.3545388 11.41015,5.7165185 11.41015,6.1634131 L11.41015,6.4865746 C11.41015,5.5932707 10.642794,4.8693112 9.695943,4.8693112 C9.22226,4.8693112 8.838582,5.231291 8.838582,5.6781855 L8.838582,6.0013471 C8.838582,5.1080432 8.071226,4.3840837 7.124375,4.3840837 C6.650692,4.3840837 6.267014,4.7460634 6.267014,5.192958 L6.267014,5.5161195 C6.267014,5.3725559 6.251508,5.258431 6.221549,5.1679905 L5.960038,1.0012141 C5.924675,0.4377609 5.444755,0 4.886636,0 C4.324625,0 3.876071,0.4476291 3.876071,0.9998075 L3.876071,5 L3.876071,9.9999999 Z M10.968306,9.0000001 L11.97887,9 L11.97887,12.9999998 L10.968306,13 L10.968306,9.0000001 L10.968306,9.0000001 Z M8.947176,9.0000001 L9.957741,9 L9.957741,12.9999998 L8.947176,13 L8.947176,9.0000001 L8.947176,9.0000001 Z M6.926047,9.0000001 L7.936611,9 L7.936611,12.9999998 L6.926047,13 L6.926047,9.0000001 L6.926047,9.0000001 Z"></path>
                </g>
                <path d="M0.857019,8.4744737 C0.89732,8.4385349 0.940686,8.4055332 0.986937,8.3759518 C1.014896,8.3580697 1.043909,8.3414375 1.073936,8.3261619 L1.527359,9.2174571 L1.295101,9.3356123 L0.841678,8.4443171 C0.889573,8.4199518 0.938016,8.3971694 0.986937,8.3759518 C1.017719,8.362601 1.04869,8.3498698 1.079833,8.3377535 C2.251125,7.8820496 3.664602,8.2962439 4.376071,9.3381688 L4.376071,6 L4.376071,1.9998075 C4.376071,1.1692498 5.050722,0.5 5.886636,0.5 C6.710934,0.5 7.407291,1.1450948 7.459056,1.9698952 L7.647179,4.9673474 C7.795973,4.9134709 7.956883,4.8840837 8.124375,4.8840837 C8.813809,4.8840837 9.432867,5.186258 9.839937,5.6621493 C10.074314,5.4786394 10.372886,5.3693112 10.695943,5.3693112 C11.385377,5.3693112 12.004435,5.6714856 12.411505,6.1473768 C12.645882,5.9638669 12.944455,5.8545388 13.267511,5.8545388 C14.478815,5.8545388 15.475885,6.7883421 15.5,7.9718022 L15.5,12.0065898 C15.5,12.6421943 15.243377,13.5576628 14.908062,14.117756 C14.862353,14.1900975 14.780951,14.3218484 14.675851,14.4969864 C14.500471,14.7892376 14.325127,15.0931759 14.161958,15.3924086 C14.088593,15.5269503 14.01928,15.6576902 13.954686,15.7836973 C13.644468,16.3888573 13.460589,16.8614472 13.460589,17.0300301 L13.460589,18.5000001 L11.642462,18.4999998 L10.93946,17.1086931 L10.236457,18.4999999 L5.386636,18.4999999 L5.386636,17.03003 C5.386636,16.9456567 5.128573,16.567889 4.698739,16.110252 C4.57434,15.977807 4.437581,15.8393202 4.290519,15.6962894 C4.02491,15.437962 3.739133,15.1775698 3.45323,14.9287692 C3.281828,14.7796106 3.149126,14.6680109 3.065714,14.5995107 C2.589618,14.1903288 2.038389,13.411452 1.811014,12.8293251 L0.570776,9.6540572 C0.408237,9.2379239 0.534455,8.7621233 0.857019,8.4744737 Z M12.47887,10.5 L12.978871,10.5 L12.47887,10 L12.47887,10.5 Z M12.47887,13.4999999 L12.47887,13.9999998 L12.97887,13.4999998 L12.47887,13.4999999 Z M12.468306,13.4999999 L11.968306,13.5 L12.468306,14 L12.468306,13.4999999 Z M12.468306,10.5 L12.468306,10.0000001 L11.968306,10.5000001 L12.468306,10.5 Z M12.468306,10.5 L12.47887,10.5 L12.47887,13.4999999 L12.468306,13.4999999 L12.468306,10.5 Z M10.457741,10.5 L10.957741,10.5 L10.457741,10 L10.457741,10.5 Z M10.457741,13.4999999 L10.457741,13.9999998 L10.957741,13.4999998 L10.457741,13.4999999 Z M10.447176,13.4999999 L9.947176,13.5 L10.447176,14 L10.447176,13.4999999 Z M10.447176,10.5 L10.447176,10.0000001 L9.947176,10.5000001 L10.447176,10.5 Z M10.447176,10.5 L10.457741,10.5 L10.457741,13.4999999 L10.447176,13.4999999 L10.447176,10.5 Z M8.436611,10.5 L8.936612,10.5 L8.436611,10 L8.436611,10.5 Z M8.436611,13.4999999 L8.436611,13.9999998 L8.936611,13.4999998 L8.436611,13.4999999 Z M8.426047,13.4999999 L7.926047,13.5 L8.426047,14 L8.426047,13.4999999 Z M8.426047,10.5 L8.426047,10.0000001 L7.926047,10.5000001 L8.426047,10.5 Z M8.426047,10.5 L8.436611,10.5 L8.436611,13.4999999 L8.426047,13.4999999 L8.426047,10.5 Z" stroke-opacity="0.8" stroke="#000000"></path>
            </g>
            <g transform="translate(271.500000, 120.000000) rotate(90.000000) translate(-271.500000, -120.000000) translate(215.500000, 116.000000)">
                <path d="M7,4.5 L109,4.5" stroke="#EC3F7A"></path>
                <g transform="translate(0.000000, 0.950000)">
                    <g>
                        <g fill="#FFFFFF">
                            <circle cx="3.5" cy="3.5" r="3.5"></circle>
                        </g>
                        <circle stroke="#EC407A" cx="3.5" cy="3.5" r="3"></circle>
                    </g>
                </g>
                <g transform="translate(105.000000, 0.950000)">
                    <g>
                        <g fill="#FFFFFF">
                            <polygon points="7 3.5 0 7 0 0"></polygon>
                        </g>
                        <polygon stroke="#EC407A" points="5.88196601 3.5 0.5 0.809016994 0.5 6.19098301"></polygon>
                    </g>
                </g>
            </g>
            <g transform="translate(4.500000, 120.000000) rotate(90.000000) translate(-4.500000, -120.000000) translate(-51.500000, 116.000000)">
                <path d="M7,4.5 L109,4.5" stroke="#EC3F7A"></path>
                <g transform="translate(0.000000, 0.950000)">
                    <g>
                        <g fill="#FFFFFF">
                            <circle cx="3.5" cy="3.5" r="3.5"></circle>
                        </g>
                        <circle stroke="#EC407A" cx="3.5" cy="3.5" r="3"></circle>
                    </g>
                </g>
                <g transform="translate(105.000000, 0.950000)">
                    <g>
                        <g fill="#FFFFFF">
                            <polygon points="7 3.5 0 7 0 0"></polygon>
                        </g>
                        <polygon stroke="#EC407A" points="5.88196601 3.5 0.5 0.809016994 0.5 6.19098301"></polygon>
                    </g>
                </g>
            </g>
        </g>
    </g>
</svg>
