<?xml version="1.0" encoding="UTF-8" standalone="no"?>
<svg width="389px" height="51px" viewBox="0 0 389 51" version="1.1" xmlns="http://www.w3.org/2000/svg" xmlns:xlink="http://www.w3.org/1999/xlink">
    <!-- Generator: Sketch 47.1 (45422) - http://www.bohemiancoding.com/sketch -->
    <title>date-picker-date-ranges-using-two-fields</title>
    <desc>Created with Sketch.</desc>
    <defs></defs>
    <g stroke="none" stroke-width="1" fill="none" fill-rule="evenodd">
        <g>
            <g transform="translate(2.000000, 20.000000)" fill="#FFFFFF">
                <rect x="0" y="0" width="122" height="30" rx="2"></rect>
            </g>
            <rect stroke="#BDBDBD" x="1.5" y="19.5" width="123" height="31" rx="2"></rect>
            <path d="M17.921875,38.390625 C18.0416673,37.7916637 17.9544286,37.3177101 17.6601562,36.96875 C17.3658839,36.6197899 16.773442,36.2812516 15.8828125,35.953125 C14.789057,35.5885398 14.0091169,35.1341173 13.5429688,34.5898438 C13.0768206,34.0455702 12.9453115,33.2656301 13.1484375,32.25 C13.3255217,31.3437455 13.7617153,30.6523461 14.4570312,30.1757812 C15.1523472,29.6992164 15.999995,29.4609375 17,29.4609375 C18.1145889,29.4609375 18.9804657,29.7721323 19.5976563,30.3945312 C20.2148468,31.0169302 20.4062512,31.8671821 20.171875,32.9453125 L20.15625,32.984375 L18.703125,32.984375 C18.8437507,32.2864548 18.7369809,31.7265646 18.3828125,31.3046875 C18.0286441,30.8828104 17.4869828,30.671875 16.7578125,30.671875 C16.2421849,30.671875 15.7851582,30.8216131 15.3867188,31.1210938 C14.9882793,31.4205744 14.7447921,31.7916645 14.65625,32.234375 C14.526041,32.8750032 14.5937487,33.3515609 14.859375,33.6640625 C15.1250013,33.9765641 15.729162,34.3124982 16.671875,34.671875 C17.7864639,35.0729187 18.5742164,35.5403619 19.0351563,36.0742188 C19.4960961,36.6080756 19.6276052,37.374995 19.4296875,38.375 C19.2421866,39.3229214 18.7942744,40.0247373 18.0859375,40.4804688 C17.3776006,40.9362002 16.5000052,41.1640625 15.453125,41.1640625 C14.3333277,41.1640625 13.3971392,40.8815132 12.6445312,40.3164062 C11.8919233,39.7512993 11.6484362,38.8776101 11.9140625,37.6953125 L11.9296875,37.6484375 L13.375,37.6484375 C13.1979158,38.5078168 13.3476539,39.1080712 13.8242188,39.4492188 C14.3007836,39.7903663 14.9244753,39.9609375 15.6953125,39.9609375 C16.2213568,39.9609375 16.7005187,39.8125015 17.1328125,39.515625 C17.5651063,39.2187485 17.8281245,38.8437523 17.921875,38.390625 Z M24.6171875,30.5078125 L24.203125,32.546875 L25.6640625,32.546875 L25.4375,33.6875 L23.9765625,33.6875 L22.953125,38.8203125 C22.8645829,39.2421896 22.8776036,39.527343 22.9921875,39.6757812 C23.1067714,39.8242195 23.2916654,39.8984375 23.546875,39.8984375 C23.6666673,39.8984375 23.8111971,39.8867189 23.9804688,39.8632812 C24.1497404,39.8398436 24.2838537,39.8151043 24.3828125,39.7890625 L24.375,40.84375 C24.2239576,40.9375005 24.009116,41.0143226 23.7304688,41.0742188 C23.4518215,41.1341149 23.1770847,41.1640625 22.90625,41.1640625 C22.3593723,41.1640625 21.9388036,40.9713561 21.6445312,40.5859375 C21.3502589,40.2005189 21.2838534,39.6119831 21.4453125,38.8203125 L22.46875,33.6875 L21.234375,33.6875 L21.4609375,32.546875 L22.6953125,32.546875 L23.109375,30.5078125 L24.6171875,30.5078125 Z M30.671875,41 C30.671875,40.7447904 30.6770833,40.5351571 30.6875,40.3710938 C30.6979167,40.2070304 30.7161457,40.0390634 30.7421875,39.8671875 C30.3932274,40.236981 29.9934918,40.5455717 29.5429688,40.7929688 C29.0924457,41.0403658 28.6406273,41.1640625 28.1875,41.1640625 C27.4166628,41.1640625 26.8476581,40.9335961 26.4804688,40.4726562 C26.1132794,40.0117164 26.0104159,39.3958372 26.171875,38.625 C26.3385425,37.7656207 26.7617154,37.1210959 27.4414062,36.6914062 C28.1210971,36.2617166 28.9921822,36.046875 30.0546875,36.046875 L31.5,36.046875 L31.6640625,35.2109375 C31.7682297,34.6848932 31.7109386,34.2851576 31.4921875,34.0117188 C31.2734364,33.7382799 30.9088567,33.6015625 30.3984375,33.6015625 C29.9609353,33.6015625 29.5651059,33.7304675 29.2109375,33.9882812 C28.8567691,34.246095 28.6458337,34.5468733 28.578125,34.890625 L27.1484375,34.890625 L27.1328125,34.84375 C27.2369797,34.1927051 27.6276008,33.6210962 28.3046875,33.1289062 C28.9817742,32.6367163 29.7890578,32.390625 30.7265625,32.390625 C31.5651084,32.390625 32.2278621,32.6393204 32.7148438,33.1367188 C33.2018254,33.6341171 33.3567717,34.3307247 33.1796875,35.2265625 L32.3671875,39.296875 C32.2994788,39.6145849 32.2526043,39.9088528 32.2265625,40.1796875 C32.2005207,40.4505222 32.2005207,40.723957 32.2265625,41 L30.671875,41 Z M28.671875,39.875 C29.0937521,39.875 29.5234353,39.7526054 29.9609375,39.5078125 C30.3984397,39.2630196 30.736978,38.97396 30.9765625,38.640625 L31.2890625,37.0859375 L29.796875,37.0859375 C29.2812474,37.0859375 28.8177104,37.2447901 28.40625,37.5625 C27.9947896,37.8802099 27.7500004,38.2447896 27.671875,38.65625 C27.5885412,39.0572937 27.6276034,39.3606761 27.7890625,39.5664062 C27.9505216,39.7721364 28.2447895,39.875 28.671875,39.875 Z M39.3828125,33.90625 L38.5546875,33.859375 C38.2109358,33.859375 37.8945327,33.9570303 37.6054688,34.1523438 C37.3164048,34.3476572 37.0651052,34.6223941 36.8515625,34.9765625 L35.6484375,41 L34.140625,41 L35.828125,32.546875 L37.1796875,32.546875 L37.0859375,33.6796875 C37.3776056,33.2682271 37.7070294,32.950522 38.0742188,32.7265625 C38.4414081,32.502603 38.8359354,32.390625 39.2578125,32.390625 C39.3619797,32.390625 39.4752598,32.3997395 39.5976562,32.4179688 C39.7200527,32.436198 39.8098955,32.4557291 39.8671875,32.4765625 L39.3828125,33.90625 Z M43.796875,30.5078125 L43.3828125,32.546875 L44.84375,32.546875 L44.6171875,33.6875 L43.15625,33.6875 L42.1328125,38.8203125 C42.0442704,39.2421896 42.0572911,39.527343 42.171875,39.6757812 C42.2864589,39.8242195 42.4713529,39.8984375 42.7265625,39.8984375 C42.8463548,39.8984375 42.9908846,39.8867189 43.1601562,39.8632812 C43.3294279,39.8398436 43.4635412,39.8151043 43.5625,39.7890625 L43.5546875,40.84375 C43.4036451,40.9375005 43.1888035,41.0143226 42.9101562,41.0742188 C42.631509,41.1341149 42.3567722,41.1640625 42.0859375,41.1640625 C41.5390598,41.1640625 41.1184911,40.9713561 40.8242188,40.5859375 C40.5299464,40.2005189 40.4635409,39.6119831 40.625,38.8203125 L41.6484375,33.6875 L40.4140625,33.6875 L40.640625,32.546875 L41.875,32.546875 L42.2890625,30.5078125 L43.796875,30.5078125 Z M49.34375,36.7734375 C49.6302098,35.3203052 50.0898406,34.2265662 50.7226562,33.4921875 C51.3554719,32.7578088 52.1692659,32.390625 53.1640625,32.390625 C53.5963563,32.390625 53.9882795,32.4804679 54.3398438,32.6601562 C54.691408,32.8398446 54.9791655,33.0937484 55.203125,33.421875 L56.125,28.8125 L57.6328125,28.8125 L55.1953125,41 L53.8984375,41 L53.953125,40.1875 C53.6406234,40.5104183 53.2955748,40.7539054 52.9179688,40.9179688 C52.5403627,41.0820321 52.1328147,41.1640625 51.6953125,41.1640625 C50.789058,41.1640625 50.1054711,40.7578166 49.6445312,39.9453125 C49.1835914,39.1328084 49.0729155,38.1302143 49.3125,36.9375 L49.34375,36.7734375 Z M50.828125,36.9375 C50.6458324,37.8333378 50.6796863,38.5533827 50.9296875,39.0976562 C51.1796887,39.6419298 51.6484341,39.9140625 52.3359375,39.9140625 C52.705731,39.9140625 53.0377589,39.8111989 53.3320312,39.6054688 C53.6263036,39.3997386 53.8958321,39.1067727 54.140625,38.7265625 L54.9375,34.734375 C54.8020827,34.40104 54.5976576,34.1354177 54.3242188,33.9375 C54.0507799,33.7395823 53.7109395,33.640625 53.3046875,33.640625 C52.6796844,33.640625 52.1627625,33.9231743 51.7539062,34.4882812 C51.34505,35.0533882 51.0468759,35.8150994 50.859375,36.7734375 L50.828125,36.9375 Z M62.203125,41 C62.203125,40.7447904 62.2083333,40.5351571 62.21875,40.3710938 C62.2291667,40.2070304 62.2473957,40.0390634 62.2734375,39.8671875 C61.9244774,40.236981 61.5247418,40.5455717 61.0742188,40.7929688 C60.6236957,41.0403658 60.1718773,41.1640625 59.71875,41.1640625 C58.9479128,41.1640625 58.3789081,40.9335961 58.0117188,40.4726562 C57.6445294,40.0117164 57.5416659,39.3958372 57.703125,38.625 C57.8697925,37.7656207 58.2929654,37.1210959 58.9726562,36.6914062 C59.6523471,36.2617166 60.5234322,36.046875 61.5859375,36.046875 L63.03125,36.046875 L63.1953125,35.2109375 C63.2994797,34.6848932 63.2421886,34.2851576 63.0234375,34.0117188 C62.8046864,33.7382799 62.4401067,33.6015625 61.9296875,33.6015625 C61.4921853,33.6015625 61.0963559,33.7304675 60.7421875,33.9882812 C60.3880191,34.246095 60.1770837,34.5468733 60.109375,34.890625 L58.6796875,34.890625 L58.6640625,34.84375 C58.7682297,34.1927051 59.1588508,33.6210962 59.8359375,33.1289062 C60.5130242,32.6367163 61.3203078,32.390625 62.2578125,32.390625 C63.0963584,32.390625 63.7591121,32.6393204 64.2460938,33.1367188 C64.7330754,33.6341171 64.8880217,34.3307247 64.7109375,35.2265625 L63.8984375,39.296875 C63.8307288,39.6145849 63.7838543,39.9088528 63.7578125,40.1796875 C63.7317707,40.4505222 63.7317707,40.723957 63.7578125,41 L62.203125,41 Z M60.203125,39.875 C60.6250021,39.875 61.0546853,39.7526054 61.4921875,39.5078125 C61.9296897,39.2630196 62.268228,38.97396 62.5078125,38.640625 L62.8203125,37.0859375 L61.328125,37.0859375 C60.8124974,37.0859375 60.3489604,37.2447901 59.9375,37.5625 C59.5260396,37.8802099 59.2812504,38.2447896 59.203125,38.65625 C59.1197912,39.0572937 59.1588534,39.3606761 59.3203125,39.5664062 C59.4817716,39.7721364 59.7760395,39.875 60.203125,39.875 Z M69.7734375,30.5078125 L69.359375,32.546875 L70.8203125,32.546875 L70.59375,33.6875 L69.1328125,33.6875 L68.109375,38.8203125 C68.0208329,39.2421896 68.0338536,39.527343 68.1484375,39.6757812 C68.2630214,39.8242195 68.4479154,39.8984375 68.703125,39.8984375 C68.8229173,39.8984375 68.9674471,39.8867189 69.1367188,39.8632812 C69.3059904,39.8398436 69.4401037,39.8151043 69.5390625,39.7890625 L69.53125,40.84375 C69.3802076,40.9375005 69.165366,41.0143226 68.8867188,41.0742188 C68.6080715,41.1341149 68.3333347,41.1640625 68.0625,41.1640625 C67.5156223,41.1640625 67.0950536,40.9713561 66.8007812,40.5859375 C66.5065089,40.2005189 66.4401034,39.6119831 66.6015625,38.8203125 L67.625,33.6875 L66.390625,33.6875 L66.6171875,32.546875 L67.8515625,32.546875 L68.265625,30.5078125 L69.7734375,30.5078125 Z M74.4140625,41.1640625 C73.3515572,41.1640625 72.5481798,40.7695352 72.0039062,39.9804688 C71.4596327,39.1914023 71.2864573,38.1770895 71.484375,36.9375 L71.5390625,36.59375 C71.7369802,35.3437438 72.2304648,34.330733 73.0195312,33.5546875 C73.8085977,32.778642 74.6614537,32.390625 75.578125,32.390625 C76.6145885,32.390625 77.3567686,32.7369757 77.8046875,33.4296875 C78.2526064,34.1223993 78.3880217,35.0364527 78.2109375,36.171875 L78.0546875,37.1328125 L72.9609375,37.1328125 C72.8463536,37.9974002 72.9257799,38.6848933 73.1992188,39.1953125 C73.4726576,39.7057317 73.9401009,39.9609375 74.6015625,39.9609375 C75.0598981,39.9609375 75.4895813,39.8841154 75.890625,39.7304688 C76.2916687,39.5768221 76.6406235,39.3750012 76.9375,39.125 L77.3671875,40.125 C77.0494776,40.4218765 76.6432316,40.6692698 76.1484375,40.8671875 C75.6536434,41.0651052 75.0755241,41.1640625 74.4140625,41.1640625 Z M75.390625,33.6015625 C74.9531228,33.6015625 74.52995,33.8203103 74.1210938,34.2578125 C73.7122375,34.6953147 73.4192717,35.2369759 73.2421875,35.8828125 L73.265625,35.9296875 L76.7421875,35.9296875 L76.7734375,35.7265625 C76.8723963,35.096351 76.8125011,34.5846374 76.59375,34.1914062 C76.3749989,33.7981751 75.9739613,33.6015625 75.390625,33.6015625 Z" fill="#9E9E9E"></path>
            <path d="M6.65136719,8.49121094 C6.65136719,8.03547949 6.48047046,7.65381013 6.13867187,7.34619141 C5.79687329,7.03857268 5.19075956,6.77994896 4.3203125,6.5703125 C3.26757286,6.31966021 2.44612925,5.95052327 1.85595703,5.46289062 C1.26578481,4.97525798 0.970703125,4.36230838 0.970703125,3.62402344 C0.970703125,2.84927998 1.28857104,2.20215104 1.92431641,1.68261719 C2.56006177,1.16308334 3.383784,0.903320312 4.39550781,0.903320312 C5.48470597,0.903320312 6.35172204,1.20181993 6.99658203,1.79882812 C7.64144203,2.39583632 7.95247407,3.08853772 7.9296875,3.87695312 L7.91601562,3.91796875 L6.63085937,3.91796875 C6.63085937,3.3346325 6.43831573,2.86295753 6.05322266,2.50292969 C5.66812958,2.14290185 5.1155635,1.96289062 4.39550781,1.96289062 C3.72558259,1.96289062 3.21175309,2.11441906 2.85400391,2.41748047 C2.49625472,2.72054188 2.31738281,3.11588298 2.31738281,3.60351562 C2.31738281,4.0364605 2.51106577,4.39762225 2.8984375,4.68701172 C3.28580923,4.97640119 3.91470919,5.23046766 4.78515625,5.44921875 C5.83333857,5.70898567 6.63085664,6.09179435 7.17773437,6.59765625 C7.72461211,7.10351815 7.99804687,7.73013949 7.99804687,8.47753906 C7.99804687,9.27962641 7.66992516,9.92447673 7.01367187,10.4121094 C6.35741859,10.899742 5.50065633,11.1435547 4.44335937,11.1435547 C3.44986482,11.1435547 2.57145564,10.8746772 1.80810547,10.3369141 C1.0447553,9.79915096 0.674479053,9.07910607 0.697265625,8.17675781 L0.7109375,8.13574219 L1.99609375,8.13574219 C1.99609375,8.77376621 2.23079192,9.25911292 2.70019531,9.59179688 C3.1695987,9.92448083 3.75064758,10.0908203 4.44335937,10.0908203 C5.12239923,10.0908203 5.66015427,9.94726706 6.05664062,9.66015625 C6.45312698,9.37304544 6.65136719,8.9834009 6.65136719,8.49121094 Z M12.7763672,11.1435547 C11.7464141,11.1435547 10.9272491,10.8006219 10.3188477,10.1147461 C9.71044618,9.42887027 9.40625,8.53906797 9.40625,7.4453125 L9.40625,7.14453125 C9.40625,6.09179161 9.71956067,5.21566105 10.3461914,4.51611328 C10.9728221,3.81656551 11.7145139,3.46679688 12.5712891,3.46679688 C13.5693409,3.46679688 14.3235652,3.76757512 14.8339844,4.36914062 C15.3444036,4.97070613 15.5996094,5.77278145 15.5996094,6.77539062 L15.5996094,7.61621094 L10.8007812,7.61621094 L10.7802734,7.65039062 C10.7939454,8.36133168 10.9739566,8.94579849 11.3203125,9.40380859 C11.6666684,9.8618187 12.1520151,10.0908203 12.7763672,10.0908203 C13.2320986,10.0908203 13.631997,10.0258796 13.9760742,9.89599609 C14.3201515,9.76611263 14.6175118,9.58724072 14.8681641,9.359375 L15.3945312,10.234375 C15.130207,10.4941419 14.7815777,10.7106111 14.3486328,10.8837891 C13.9156879,11.056967 13.3916046,11.1435547 12.7763672,11.1435547 Z M12.5712891,4.52636719 C12.1201149,4.52636719 11.7350276,4.71663221 11.4160156,5.09716797 C11.0970036,5.47770373 10.901042,5.95507525 10.828125,6.52929688 L10.8417969,6.56347656 L14.2529297,6.56347656 L14.2529297,6.38574219 C14.2529297,5.85709371 14.1116551,5.41504084 13.8291016,5.05957031 C13.5465481,4.70409979 13.1272814,4.52636719 12.5712891,4.52636719 Z M18.5664062,11 L17.2197266,11 L17.2197266,0.3359375 L18.5664062,0.3359375 L18.5664062,11 Z M23.7070312,11.1435547 C22.6770782,11.1435547 21.8579132,10.8006219 21.2495117,10.1147461 C20.6411102,9.42887027 20.3369141,8.53906797 20.3369141,7.4453125 L20.3369141,7.14453125 C20.3369141,6.09179161 20.6502247,5.21566105 21.2768555,4.51611328 C21.9034862,3.81656551 22.645178,3.46679688 23.5019531,3.46679688 C24.500005,3.46679688 25.2542292,3.76757512 25.7646484,4.36914062 C26.2750677,4.97070613 26.5302734,5.77278145 26.5302734,6.77539062 L26.5302734,7.61621094 L21.7314453,7.61621094 L21.7109375,7.65039062 C21.7246094,8.36133168 21.9046207,8.94579849 22.2509766,9.40380859 C22.5973325,9.8618187 23.0826792,10.0908203 23.7070312,10.0908203 C24.1627627,10.0908203 24.562661,10.0258796 24.9067383,9.89599609 C25.2508155,9.76611263 25.5481758,9.58724072 25.7988281,9.359375 L26.3251953,10.234375 C26.0608711,10.4941419 25.7122417,10.7106111 25.2792969,10.8837891 C24.846352,11.056967 24.3222687,11.1435547 23.7070312,11.1435547 Z M23.5019531,4.52636719 C23.050779,4.52636719 22.6656917,4.71663221 22.3466797,5.09716797 C22.0276677,5.47770373 21.8317061,5.95507525 21.7587891,6.52929688 L21.7724609,6.56347656 L25.1835937,6.56347656 L25.1835937,6.38574219 C25.1835937,5.85709371 25.0423191,5.41504084 24.7597656,5.05957031 C24.4772121,4.70409979 24.0579455,4.52636719 23.5019531,4.52636719 Z M31.0488281,10.0908203 C31.4954449,10.0908203 31.8885074,9.95296362 32.2280273,9.67724609 C32.5675473,9.40152857 32.7373047,9.06315305 32.7373047,8.66210938 L33.9472656,8.66210938 L33.9609375,8.703125 C33.9837241,9.34114902 33.7000355,9.90738685 33.1098633,10.4018555 C32.5196911,10.8963241 31.8326862,11.1435547 31.0488281,11.1435547 C29.9733019,11.1435547 29.150719,10.7926467 28.5810547,10.0908203 C28.0113904,9.38899389 27.7265625,8.50716677 27.7265625,7.4453125 L27.7265625,7.15820312 C27.7265625,6.10546349 28.0125297,5.2270543 28.5844727,4.52294922 C29.1564156,3.81884414 29.9778592,3.46679688 31.0488281,3.46679688 C31.9147179,3.46679688 32.6222303,3.72200266 33.1713867,4.23242188 C33.7205431,4.74284109 33.9860027,5.36946243 33.9677734,6.11230469 L33.9541016,6.15332031 L32.7373047,6.15332031 C32.7373047,5.70214618 32.5778011,5.3181982 32.2587891,5.00146484 C31.9397771,4.68473149 31.5364608,4.52636719 31.0488281,4.52636719 C30.3424444,4.52636719 29.8377294,4.78043366 29.534668,5.28857422 C29.2316066,5.79671478 29.0800781,6.41991818 29.0800781,7.15820312 L29.0800781,7.4453125 C29.0800781,8.2018267 29.2304672,8.83186597 29.53125,9.33544922 C29.8320328,9.83903247 30.3378871,10.0908203 31.0488281,10.0908203 Z M37.2490234,1.81933594 L37.2490234,3.60351562 L38.6503906,3.60351562 L38.6503906,4.6015625 L37.2490234,4.6015625 L37.2490234,9.09277344 C37.2490234,9.43912934 37.3208001,9.682942 37.4643555,9.82421875 C37.6079109,9.9654955 37.7981759,10.0361328 38.0351562,10.0361328 C38.1126306,10.0361328 38.198079,10.0270183 38.2915039,10.0087891 C38.3849289,9.9905598 38.4680986,9.96777357 38.5410156,9.94042969 L38.71875,10.8632812 C38.6184891,10.9453129 38.4715179,11.0125323 38.277832,11.0649414 C38.0841462,11.1173505 37.8893239,11.1435547 37.6933594,11.1435547 C37.1464816,11.1435547 36.7112646,10.9783545 36.3876953,10.6479492 C36.064126,10.3175439 35.9023437,9.79915718 35.9023437,9.09277344 L35.9023437,4.6015625 L34.7265625,4.6015625 L34.7265625,3.60351562 L35.9023437,3.60351562 L35.9023437,1.81933594 L37.2490234,1.81933594 Z M44.0439453,11 L44.0439453,1.046875 L47.0996094,1.046875 C48.4030013,1.046875 49.4488893,1.44677334 50.2373047,2.24658203 C51.0257201,3.04639072 51.4199219,4.07974627 51.4199219,5.34667969 L51.4199219,6.70703125 C51.4199219,7.97852198 51.0257201,9.01187753 50.2373047,9.80712891 C49.4488893,10.6023803 48.4030013,11 47.0996094,11 L44.0439453,11 Z M45.390625,2.10644531 L45.390625,9.94726562 L47.0996094,9.94726562 C48.0201869,9.94726562 48.7459283,9.64420876 49.2768555,9.03808594 C49.8077826,8.43196312 50.0732422,7.65495266 50.0732422,6.70703125 L50.0732422,5.33300781 C50.0732422,4.39420104 49.8077826,3.62174782 49.2768555,3.015625 C48.7459283,2.40950218 48.0201869,2.10644531 47.0996094,2.10644531 L45.390625,2.10644531 Z M57.5585938,11 C57.5130206,10.7766916 57.4777019,10.5795907 57.4526367,10.4086914 C57.4275715,10.2377921 57.4127604,10.0657561 57.4082031,9.89257812 C57.1575508,10.2480487 56.8305684,10.545409 56.4272461,10.784668 C56.0239238,11.023927 55.5898461,11.1435547 55.125,11.1435547 C54.3548139,11.1435547 53.7680684,10.9464538 53.3647461,10.5522461 C52.9614238,10.1580384 52.7597656,9.6145868 52.7597656,8.921875 C52.7597656,8.21549126 53.0457328,7.66292517 53.6176758,7.26416016 C54.1896187,6.86539514 54.9654899,6.66601562 55.9453125,6.66601562 L57.4082031,6.66601562 L57.4082031,5.93457031 C57.4082031,5.50162544 57.276043,5.15869267 57.0117188,4.90576172 C56.7473945,4.65283077 56.3737003,4.52636719 55.890625,4.52636719 C55.4576801,4.52636719 55.1056329,4.63688041 54.8344727,4.85791016 C54.5633124,5.07893991 54.4277344,5.34439949 54.4277344,5.65429688 L53.1425781,5.65429688 L53.1289062,5.61328125 C53.1015624,5.07551814 53.3556288,4.58333557 53.8911133,4.13671875 C54.4265977,3.69010193 55.1181598,3.46679688 55.9658203,3.46679688 C56.8043662,3.46679688 57.4788386,3.67984813 57.9892578,4.10595703 C58.499677,4.53206593 58.7548828,5.14615484 58.7548828,5.94824219 L58.7548828,9.50976562 C58.7548828,9.77408986 58.7685546,10.0292956 58.7958984,10.2753906 C58.8232423,10.5214856 58.873372,10.7630196 58.9462891,11 L57.5585938,11 Z M55.3232422,10.015625 C55.8108748,10.015625 56.2506491,9.89030073 56.6425781,9.63964844 C57.0345072,9.38899614 57.2897129,9.10188964 57.4082031,8.77832031 L57.4082031,7.57519531 L55.8974609,7.57519531 C55.3551405,7.57519531 54.9210628,7.7119127 54.5952148,7.98535156 C54.2693669,8.25879043 54.1064453,8.58007628 54.1064453,8.94921875 C54.1064453,9.27734539 54.2089833,9.53710842 54.4140625,9.72851562 C54.6191417,9.91992283 54.9221985,10.015625 55.3232422,10.015625 Z M62.4873047,1.81933594 L62.4873047,3.60351562 L63.8886719,3.60351562 L63.8886719,4.6015625 L62.4873047,4.6015625 L62.4873047,9.09277344 C62.4873047,9.43912934 62.5590813,9.682942 62.7026367,9.82421875 C62.8461921,9.9654955 63.0364571,10.0361328 63.2734375,10.0361328 C63.3509118,10.0361328 63.4363602,10.0270183 63.5297852,10.0087891 C63.6232101,9.9905598 63.7063798,9.96777357 63.7792969,9.94042969 L63.9570312,10.8632812 C63.8567703,10.9453129 63.7097991,11.0125323 63.5161133,11.0649414 C63.3224274,11.1173505 63.1276051,11.1435547 62.9316406,11.1435547 C62.3847629,11.1435547 61.9495459,10.9783545 61.6259766,10.6479492 C61.3024072,10.3175439 61.140625,9.79915718 61.140625,9.09277344 L61.140625,4.6015625 L59.9648438,4.6015625 L59.9648438,3.60351562 L61.140625,3.60351562 L61.140625,1.81933594 L62.4873047,1.81933594 Z M68.6191406,11.1435547 C67.5891876,11.1435547 66.7700226,10.8006219 66.1616211,10.1147461 C65.5532196,9.42887027 65.2490234,8.53906797 65.2490234,7.4453125 L65.2490234,7.14453125 C65.2490234,6.09179161 65.5623341,5.21566105 66.1889648,4.51611328 C66.8155956,3.81656551 67.5572874,3.46679688 68.4140625,3.46679688 C69.4121144,3.46679688 70.1663386,3.76757512 70.6767578,4.36914062 C71.187177,4.97070613 71.4423828,5.77278145 71.4423828,6.77539062 L71.4423828,7.61621094 L66.6435547,7.61621094 L66.6230469,7.65039062 C66.6367188,8.36133168 66.81673,8.94579849 67.1630859,9.40380859 C67.5094418,9.8618187 67.9947885,10.0908203 68.6191406,10.0908203 C69.0748721,10.0908203 69.4747704,10.0258796 69.8188477,9.89599609 C70.1629249,9.76611263 70.4602852,9.58724072 70.7109375,9.359375 L71.2373047,10.234375 C70.9729804,10.4941419 70.6243511,10.7106111 70.1914062,10.8837891 C69.7584614,11.056967 69.2343781,11.1435547 68.6191406,11.1435547 Z M68.4140625,4.52636719 C67.9628884,4.52636719 67.5778011,4.71663221 67.2587891,5.09716797 C66.9397771,5.47770373 66.7438155,5.95507525 66.6708984,6.52929688 L66.6845703,6.56347656 L70.0957031,6.56347656 L70.0957031,6.38574219 C70.0957031,5.85709371 69.9544285,5.41504084 69.671875,5.05957031 C69.3893215,4.70409979 68.9700549,4.52636719 68.4140625,4.52636719 Z M77.2529297,9.03808594 C77.2529297,8.7418605 77.1401378,8.49804783 76.9145508,8.30664062 C76.6889637,8.11523342 76.2617219,7.94889394 75.6328125,7.80761719 C74.7350216,7.61165267 74.0594098,7.34619308 73.605957,7.01123047 C73.1525042,6.67626786 72.9257812,6.21940394 72.9257812,5.640625 C72.9257812,5.03905949 73.180987,4.52636931 73.6914062,4.10253906 C74.2018255,3.67870882 74.8671834,3.46679688 75.6875,3.46679688 C76.5488324,3.46679688 77.2335587,3.68782331 77.7416992,4.12988281 C78.2498398,4.57194231 78.4925131,5.10969735 78.4697266,5.74316406 L78.4560547,5.78417969 L77.1708984,5.78417969 C77.1708984,5.46061036 77.0353204,5.17008592 76.7641602,4.91259766 C76.4929999,4.65510939 76.1341168,4.52636719 75.6875,4.52636719 C75.208982,4.52636719 74.8535168,4.63118385 74.6210938,4.84082031 C74.3886707,5.05045678 74.2724609,5.30338394 74.2724609,5.59960938 C74.2724609,5.8912775 74.374999,6.12141843 74.5800781,6.29003906 C74.7851573,6.4586597 75.2021453,6.60904882 75.8310547,6.74121094 C76.7653042,6.94173277 77.4602842,7.21402823 77.9160156,7.55810547 C78.3717471,7.90218271 78.5996094,8.36360388 78.5996094,8.94238281 C78.5996094,9.59863609 78.3341498,10.1295553 77.8032227,10.5351562 C77.2722955,10.9407572 76.5784548,11.1435547 75.7216797,11.1435547 C74.7783156,11.1435547 74.0354845,10.9042993 73.4931641,10.4257812 C72.9508436,9.94726323 72.6933592,9.38900059 72.7207031,8.75097656 L72.734375,8.70996094 L74.0195312,8.70996094 C74.0423178,9.18847896 74.2200504,9.53824759 74.5527344,9.75927734 C74.8854183,9.98030709 75.2750629,10.0908203 75.7216797,10.0908203 C76.2001977,10.0908203 76.5750312,9.99397883 76.8461914,9.80029297 C77.1173516,9.6066071 77.2529297,9.35254063 77.2529297,9.03808594 Z" fill="#616161"></path>
            <path d="M115.608696,29.2810458 L114.304348,29.2810458 L114.304348,28 L113,28 L113,31.2941177 L111.695652,31.2941177 L111.695652,29.2810458 L108.043478,29.2810458 L108.043478,28 L106.826087,28 L106.826087,31.2941177 L105.521739,31.2941177 L105.521739,29.2810458 L104.304348,29.2810458 C103.608696,29.2810458 103,29.9215686 103,30.6535948 L103,40.627451 C103,41.3594771 103.608696,42 104.304348,42 L115.695652,42 C116.391304,42 117,41.3594771 117,40.627451 L117,30.6535948 C116.913044,29.9215686 116.304348,29.2810458 115.608696,29.2810458 Z M107.117647,39.5294118 L104.647059,39.5294118 L104.647059,37.0588235 L107.117647,37.0588235 L107.117647,39.5294118 Z M107.117647,35.4117647 L104.647059,35.4117647 L104.647059,32.9411765 L107.117647,32.9411765 L107.117647,35.4117647 Z M111.235294,39.5294118 L108.764706,39.5294118 L108.764706,37.0588235 L111.152941,37.0588235 L111.152941,39.5294118 L111.235294,39.5294118 Z M111.235294,35.4117647 L108.764706,35.4117647 L108.764706,32.9411765 L111.152941,32.9411765 L111.152941,35.4117647 L111.235294,35.4117647 Z M115.352941,35.4117647 L112.882353,35.4117647 L112.882353,32.9411765 L115.352941,32.9411765 L115.352941,35.4117647 Z" fill="#757575" fill-rule="nonzero"></path>
            <g transform="translate(134.000000, 20.000000)" fill="#FFFFFF">
                <rect x="0" y="0" width="122" height="30" rx="2"></rect>
            </g>
            <rect stroke="#BDBDBD" x="133.5" y="19.5" width="123" height="31" rx="2"></rect>
            <path d="M151.046875,35.7265625 L146.234375,35.7265625 L145.421875,39.796875 L150.976562,39.796875 L150.734375,41 L143.671875,41 L145.945312,29.625 L152.921875,29.625 L152.679688,30.8359375 L147.210938,30.8359375 L146.476562,34.515625 L151.289062,34.515625 L151.046875,35.7265625 Z M155.09375,33.7109375 C155.437502,33.283852 155.826821,32.9570324 156.261719,32.7304688 C156.696617,32.5039051 157.16406,32.390625 157.664062,32.390625 C158.460941,32.390625 159.052081,32.6614556 159.4375,33.203125 C159.822919,33.7447944 159.906251,34.5650987 159.6875,35.6640625 L158.617188,41 L157.109375,41 L158.171875,35.6953125 C158.328126,34.9036419 158.307293,34.3632827 158.109375,34.0742188 C157.911457,33.7851548 157.526045,33.640625 156.953125,33.640625 C156.58854,33.640625 156.226564,33.751301 155.867188,33.9726562 C155.507811,34.1940115 155.19271,34.4895815 154.921875,34.859375 L153.695312,41 L152.1875,41 L153.875,32.546875 L155.226562,32.546875 L155.09375,33.7109375 Z M161.265625,36.7734375 C161.552085,35.3203052 162.011716,34.2265662 162.644531,33.4921875 C163.277347,32.7578088 164.091141,32.390625 165.085938,32.390625 C165.518231,32.390625 165.910154,32.4804679 166.261719,32.6601562 C166.613283,32.8398446 166.901041,33.0937484 167.125,33.421875 L168.046875,28.8125 L169.554688,28.8125 L167.117188,41 L165.820312,41 L165.875,40.1875 C165.562498,40.5104183 165.21745,40.7539054 164.839844,40.9179688 C164.462238,41.0820321 164.05469,41.1640625 163.617188,41.1640625 C162.710933,41.1640625 162.027346,40.7578166 161.566406,39.9453125 C161.105466,39.1328084 160.99479,38.1302143 161.234375,36.9375 L161.265625,36.7734375 Z M162.75,36.9375 C162.567707,37.8333378 162.601561,38.5533827 162.851562,39.0976562 C163.101564,39.6419298 163.570309,39.9140625 164.257812,39.9140625 C164.627606,39.9140625 164.959634,39.8111989 165.253906,39.6054688 C165.548179,39.3997386 165.817707,39.1067727 166.0625,38.7265625 L166.859375,34.734375 C166.723958,34.40104 166.519533,34.1354177 166.246094,33.9375 C165.972655,33.7395823 165.632815,33.640625 165.226562,33.640625 C164.601559,33.640625 164.084637,33.9231743 163.675781,34.4882812 C163.266925,35.0533882 162.968751,35.8150994 162.78125,36.7734375 L162.75,36.9375 Z M173.617188,36.7734375 C173.903647,35.3203052 174.363278,34.2265662 174.996094,33.4921875 C175.628909,32.7578088 176.442703,32.390625 177.4375,32.390625 C177.869794,32.390625 178.261717,32.4804679 178.613281,32.6601562 C178.964846,32.8398446 179.252603,33.0937484 179.476562,33.421875 L180.398438,28.8125 L181.90625,28.8125 L179.46875,41 L178.171875,41 L178.226562,40.1875 C177.914061,40.5104183 177.569012,40.7539054 177.191406,40.9179688 C176.8138,41.0820321 176.406252,41.1640625 175.96875,41.1640625 C175.062495,41.1640625 174.378909,40.7578166 173.917969,39.9453125 C173.457029,39.1328084 173.346353,38.1302143 173.585938,36.9375 L173.617188,36.7734375 Z M175.101562,36.9375 C174.91927,37.8333378 174.953124,38.5533827 175.203125,39.0976562 C175.453126,39.6419298 175.921872,39.9140625 176.609375,39.9140625 C176.979169,39.9140625 177.311196,39.8111989 177.605469,39.6054688 C177.899741,39.3997386 178.16927,39.1067727 178.414062,38.7265625 L179.210938,34.734375 C179.07552,34.40104 178.871095,34.1354177 178.597656,33.9375 C178.324217,33.7395823 177.984377,33.640625 177.578125,33.640625 C176.953122,33.640625 176.4362,33.9231743 176.027344,34.4882812 C175.618488,35.0533882 175.320313,35.8150994 175.132812,36.7734375 L175.101562,36.9375 Z M186.476562,41 C186.476562,40.7447904 186.481771,40.5351571 186.492188,40.3710938 C186.502604,40.2070304 186.520833,40.0390634 186.546875,39.8671875 C186.197915,40.236981 185.798179,40.5455717 185.347656,40.7929688 C184.897133,41.0403658 184.445315,41.1640625 183.992188,41.1640625 C183.22135,41.1640625 182.652346,40.9335961 182.285156,40.4726562 C181.917967,40.0117164 181.815103,39.3958372 181.976562,38.625 C182.14323,37.7656207 182.566403,37.1210959 183.246094,36.6914062 C183.925785,36.2617166 184.79687,36.046875 185.859375,36.046875 L187.304688,36.046875 L187.46875,35.2109375 C187.572917,34.6848932 187.515626,34.2851576 187.296875,34.0117188 C187.078124,33.7382799 186.713544,33.6015625 186.203125,33.6015625 C185.765623,33.6015625 185.369793,33.7304675 185.015625,33.9882812 C184.661457,34.246095 184.450521,34.5468733 184.382812,34.890625 L182.953125,34.890625 L182.9375,34.84375 C183.041667,34.1927051 183.432288,33.6210962 184.109375,33.1289062 C184.786462,32.6367163 185.593745,32.390625 186.53125,32.390625 C187.369796,32.390625 188.03255,32.6393204 188.519531,33.1367188 C189.006513,33.6341171 189.161459,34.3307247 188.984375,35.2265625 L188.171875,39.296875 C188.104166,39.6145849 188.057292,39.9088528 188.03125,40.1796875 C188.005208,40.4505222 188.005208,40.723957 188.03125,41 L186.476562,41 Z M184.476562,39.875 C184.89844,39.875 185.328123,39.7526054 185.765625,39.5078125 C186.203127,39.2630196 186.541665,38.97396 186.78125,38.640625 L187.09375,37.0859375 L185.601562,37.0859375 C185.085935,37.0859375 184.622398,37.2447901 184.210938,37.5625 C183.799477,37.8802099 183.554688,38.2447896 183.476562,38.65625 C183.393229,39.0572937 183.432291,39.3606761 183.59375,39.5664062 C183.755209,39.7721364 184.049477,39.875 184.476562,39.875 Z M194.046875,30.5078125 L193.632812,32.546875 L195.09375,32.546875 L194.867188,33.6875 L193.40625,33.6875 L192.382812,38.8203125 C192.29427,39.2421896 192.307291,39.527343 192.421875,39.6757812 C192.536459,39.8242195 192.721353,39.8984375 192.976562,39.8984375 C193.096355,39.8984375 193.240885,39.8867189 193.410156,39.8632812 C193.579428,39.8398436 193.713541,39.8151043 193.8125,39.7890625 L193.804688,40.84375 C193.653645,40.9375005 193.438803,41.0143226 193.160156,41.0742188 C192.881509,41.1341149 192.606772,41.1640625 192.335938,41.1640625 C191.78906,41.1640625 191.368491,40.9713561 191.074219,40.5859375 C190.779946,40.2005189 190.713541,39.6119831 190.875,38.8203125 L191.898438,33.6875 L190.664062,33.6875 L190.890625,32.546875 L192.125,32.546875 L192.539062,30.5078125 L194.046875,30.5078125 Z M198.6875,41.1640625 C197.624995,41.1640625 196.821617,40.7695352 196.277344,39.9804688 C195.73307,39.1914023 195.559895,38.1770895 195.757812,36.9375 L195.8125,36.59375 C196.010418,35.3437438 196.503902,34.330733 197.292969,33.5546875 C198.082035,32.778642 198.934891,32.390625 199.851562,32.390625 C200.888026,32.390625 201.630206,32.7369757 202.078125,33.4296875 C202.526044,34.1223993 202.661459,35.0364527 202.484375,36.171875 L202.328125,37.1328125 L197.234375,37.1328125 C197.119791,37.9974002 197.199217,38.6848933 197.472656,39.1953125 C197.746095,39.7057317 198.213538,39.9609375 198.875,39.9609375 C199.333336,39.9609375 199.763019,39.8841154 200.164062,39.7304688 C200.565106,39.5768221 200.914061,39.3750012 201.210938,39.125 L201.640625,40.125 C201.322915,40.4218765 200.916669,40.6692698 200.421875,40.8671875 C199.927081,41.0651052 199.348962,41.1640625 198.6875,41.1640625 Z M199.664062,33.6015625 C199.22656,33.6015625 198.803387,33.8203103 198.394531,34.2578125 C197.985675,34.6953147 197.692709,35.2369759 197.515625,35.8828125 L197.539062,35.9296875 L201.015625,35.9296875 L201.046875,35.7265625 C201.145834,35.096351 201.085939,34.5846374 200.867188,34.1914062 C200.648436,33.7981751 200.247399,33.6015625 199.664062,33.6015625 Z" fill="#9E9E9E"></path>
            <path d="M247.608696,29.2810458 L246.304348,29.2810458 L246.304348,28 L245,28 L245,31.2941177 L243.695652,31.2941177 L243.695652,29.2810458 L240.043478,29.2810458 L240.043478,28 L238.826087,28 L238.826087,31.2941177 L237.521739,31.2941177 L237.521739,29.2810458 L236.304348,29.2810458 C235.608696,29.2810458 235,29.9215686 235,30.6535948 L235,40.627451 C235,41.3594771 235.608696,42 236.304348,42 L247.695652,42 C248.391304,42 249,41.3594771 249,40.627451 L249,30.6535948 C248.913043,29.9215686 248.304348,29.2810458 247.608696,29.2810458 Z M239.117647,39.5294118 L236.647059,39.5294118 L236.647059,37.0588235 L239.117647,37.0588235 L239.117647,39.5294118 Z M239.117647,35.4117647 L236.647059,35.4117647 L236.647059,32.9411765 L239.117647,32.9411765 L239.117647,35.4117647 Z M243.235294,39.5294118 L240.764706,39.5294118 L240.764706,37.0588235 L243.152941,37.0588235 L243.152941,39.5294118 L243.235294,39.5294118 Z M243.235294,35.4117647 L240.764706,35.4117647 L240.764706,32.9411765 L243.152941,32.9411765 L243.152941,35.4117647 L243.235294,35.4117647 Z M247.352941,35.4117647 L244.882353,35.4117647 L244.882353,32.9411765 L247.352941,32.9411765 L247.352941,35.4117647 Z" fill="#757575" fill-rule="nonzero"></path>
        </g>
    </g>
</svg>