<?xml version="1.0" encoding="UTF-8" standalone="no"?>
<svg width="262px" height="286px" viewBox="0 0 262 286" version="1.1" xmlns="http://www.w3.org/2000/svg" xmlns:xlink="http://www.w3.org/1999/xlink">
    <!-- Generator: Sketch 47.1 (45422) - http://www.bohemiancoding.com/sketch -->
    <title>date-picker-month-picker-1</title>
    <desc>Created with Sketch.</desc>
    <defs>
        <polygon id="path-1" points="0 280 256 280 256 0 0 0"></polygon>
        <filter x="-2.3%" y="-1.1%" width="104.7%" height="104.3%" filterUnits="objectBoundingBox" id="filter-2">
            <feOffset dx="0" dy="3" in="SourceAlpha" result="shadowOffsetOuter1"></feOffset>
            <feGaussianBlur stdDeviation="1.5" in="shadowOffsetOuter1" result="shadowBlurOuter1"></feGaussianBlur>
            <feColorMatrix values="0 0 0 0 0   0 0 0 0 0   0 0 0 0 0  0 0 0 0.16 0" type="matrix" in="shadowBlurOuter1"></feColorMatrix>
        </filter>
    </defs>
    <g stroke="none" stroke-width="1" fill="none" fill-rule="evenodd">
        <g transform="translate(3.000000, 0.000000)">
            <g>
                <g>
                    <g fill="#000000" fill-rule="nonzero">
                        <polygon points="0 280 256 280 256 0 0 0"></polygon>
                    </g>
                    <g>
                        <g>
                            <use fill="black" fill-opacity="1" filter="url(#filter-2)" xlink:href="#path-1"></use>
                            <use fill="#FFFFFF" fill-rule="evenodd" xlink:href="#path-1"></use>
                        </g>
                    </g>
                </g>
                <rect fill="#DFDFDF" x="0" y="64" width="256" height="32"></rect>
                <path d="M26.0507812,123.804687 L27.1367188,123.804687 C27.9648479,123.804687 28.5924458,123.597658 29.0195312,123.183594 C29.4466167,122.769529 29.6601562,122.236982 29.6601562,121.585937 C29.6601562,120.877601 29.4596374,120.312502 29.0585938,119.890625 C28.6575501,119.468748 28.0612019,119.257812 27.2695312,119.257812 C26.5403609,119.257812 25.9427107,119.472654 25.4765625,119.902344 C25.0104143,120.332033 24.7773438,120.898434 24.7773438,121.601562 L23.9023438,121.601562 L23.8867188,121.554687 C23.860677,120.669266 24.1705697,119.932295 24.8164062,119.34375 C25.4622428,118.755205 26.279943,118.460937 27.2695312,118.460937 C28.2851613,118.460937 29.093747,118.739581 29.6953125,119.296875 C30.296878,119.854169 30.5976562,120.627599 30.5976562,121.617187 C30.5976562,122.153649 30.4309912,122.65755 30.0976562,123.128906 C29.7643213,123.600263 29.2955759,123.95052 28.6914062,124.179687 C29.3997431,124.382814 29.9296857,124.725258 30.28125,125.207031 C30.6328143,125.688804 30.8085938,126.257809 30.8085938,126.914062 C30.8085938,127.924484 30.4817741,128.718747 29.828125,129.296875 C29.1744759,129.875003 28.3346405,130.164062 27.3085938,130.164062 C26.3137971,130.164062 25.459639,129.881513 24.7460938,129.316406 C24.0325485,128.751299 23.688802,127.966151 23.7148438,126.960937 L23.7304688,126.914062 L24.6054688,126.914062 C24.6054688,127.638024 24.8567683,128.229164 25.359375,128.6875 C25.8619817,129.145836 26.5117148,129.375 27.3085938,129.375 C28.1158895,129.375 28.7460915,129.165367 29.1992188,128.746094 C29.652346,128.326821 29.8789062,127.726566 29.8789062,126.945312 C29.8789062,126.148434 29.6419295,125.558596 29.1679688,125.175781 C28.694008,124.792967 28.0169315,124.601562 27.1367188,124.601562 L26.0507812,124.601562 L26.0507812,123.804687 Z M40.0429688,125.585937 C40.0429688,127.054695 39.7252636,128.184892 39.0898438,128.976562 C38.4544239,129.768233 37.5716202,130.164062 36.4414062,130.164062 C35.3164006,130.164062 34.4322949,129.766931 33.7890625,128.972656 C33.1458301,128.178381 32.8242188,127.049486 32.8242188,125.585937 L32.8242188,123.046875 C32.8242188,121.583326 33.1419239,120.453129 33.7773438,119.65625 C34.4127636,118.859371 35.2955673,118.460937 36.4257812,118.460937 C37.5559952,118.460937 38.441403,118.859371 39.0820312,119.65625 C39.7226595,120.453129 40.0429688,121.583326 40.0429688,123.046875 L40.0429688,125.585937 Z M39.1054688,122.890625 C39.1054688,121.723952 38.8763044,120.826826 38.4179688,120.199219 C37.9596331,119.571611 37.2955773,119.257812 36.4257812,119.257812 C35.5559852,119.257812 34.8945335,119.571611 34.4414062,120.199219 C33.988279,120.826826 33.7617188,121.723952 33.7617188,122.890625 L33.7617188,125.726562 C33.7617188,126.882818 33.9921852,127.779945 34.453125,128.417969 C34.9140648,129.055993 35.5768186,129.375 36.4414062,129.375 C37.3059939,129.375 37.9661436,129.057295 38.421875,128.421875 C38.8776064,127.786455 39.1054688,126.888027 39.1054688,125.726562 L39.1054688,122.890625 Z" fill="#BDBDBD"></path>
                <path d="M32.6210937,150.460938 C33.0117207,150.460938 33.3971335,150.505208 33.7773437,150.59375 C34.1575539,150.682292 34.4960922,150.809895 34.7929687,150.976562 L34.5507812,151.742188 C34.2539047,151.57552 33.9596368,151.453125 33.6679687,151.375 C33.3763006,151.296875 33.0273457,151.257812 32.6210937,151.257812 C31.7773395,151.257812 31.0781277,151.585934 30.5234374,152.242188 C29.9687472,152.898441 29.6914062,153.760411 29.6914062,154.828125 L29.6914062,155.835938 C30.0039078,155.429685 30.4023413,155.104168 30.8867187,154.859375 C31.3710961,154.614582 31.9075491,154.492188 32.4960937,154.492188 C33.5169321,154.492188 34.3242157,154.843746 34.9179687,155.546875 C35.5117217,156.250004 35.8085937,157.166661 35.8085937,158.296875 C35.8085937,159.416672 35.4895865,160.341142 34.8515625,161.070312 C34.2135384,161.799483 33.3841196,162.164062 32.3632812,162.164062 C31.316401,162.164062 30.4531283,161.773441 29.7734374,160.992188 C29.0937466,160.210934 28.7539062,159.140632 28.7539062,157.78125 L28.7539062,154.914062 C28.7539062,153.601556 29.1262983,152.531254 29.8710937,151.703125 C30.6158891,150.874996 31.5325466,150.460938 32.6210937,150.460938 Z M32.3085937,155.257812 C31.6783822,155.257812 31.1276065,155.421873 30.6562499,155.75 C30.1848934,156.078127 29.8632821,156.499997 29.6914062,157.015625 L29.6914062,157.851562 C29.6914062,158.94011 29.9414037,159.799476 30.4414062,160.429688 C30.9414087,161.059899 31.5820273,161.375 32.3632812,161.375 C33.1237017,161.375 33.7317685,161.076826 34.1875,160.480469 C34.6432314,159.884112 34.8710937,159.156254 34.8710937,158.296875 C34.8710937,157.385412 34.6497417,156.651044 34.2070312,156.09375 C33.7643207,155.536456 33.1315145,155.257812 32.3085937,155.257812 Z" fill="#757575"></path>
                <path d="M58.28125,123.804687 L59.3671875,123.804687 C60.1953166,123.804687 60.8229145,123.597658 61.25,123.183594 C61.6770855,122.769529 61.890625,122.236982 61.890625,121.585937 C61.890625,120.877601 61.6901062,120.312502 61.2890625,119.890625 C60.8880188,119.468748 60.2916706,119.257812 59.5,119.257812 C58.7708297,119.257812 58.1731794,119.472654 57.7070312,119.902344 C57.2408831,120.332033 57.0078125,120.898434 57.0078125,121.601562 L56.1328125,121.601562 L56.1171875,121.554687 C56.0911457,120.669266 56.4010384,119.932295 57.046875,119.34375 C57.6927116,118.755205 58.5104117,118.460937 59.5,118.460937 C60.5156301,118.460937 61.3242157,118.739581 61.9257812,119.296875 C62.5273468,119.854169 62.828125,120.627599 62.828125,121.617187 C62.828125,122.153649 62.66146,122.65755 62.328125,123.128906 C61.99479,123.600263 61.5260447,123.95052 60.921875,124.179687 C61.6302119,124.382814 62.1601545,124.725258 62.5117188,125.207031 C62.863283,125.688804 63.0390625,126.257809 63.0390625,126.914062 C63.0390625,127.924484 62.7122429,128.718747 62.0585938,129.296875 C61.4049446,129.875003 60.5651093,130.164062 59.5390625,130.164062 C58.5442659,130.164062 57.6901077,129.881513 56.9765625,129.316406 C56.2630173,128.751299 55.9192707,127.966151 55.9453125,126.960937 L55.9609375,126.914062 L56.8359375,126.914062 C56.8359375,127.638024 57.0872371,128.229164 57.5898438,128.6875 C58.0924504,129.145836 58.7421835,129.375 59.5390625,129.375 C60.3463582,129.375 60.9765602,129.165367 61.4296875,128.746094 C61.8828148,128.326821 62.109375,127.726566 62.109375,126.945312 C62.109375,126.148434 61.8723982,125.558596 61.3984375,125.175781 C60.9244768,124.792967 60.2474002,124.601562 59.3671875,124.601562 L58.28125,124.601562 L58.28125,123.804687 Z M69.296875,130.054688 L68.359375,130.054688 L68.359375,119.601562 L65.46875,119.9375 L65.46875,119.28125 L69.296875,118.59375 L69.296875,130.054688 Z" fill="#BDBDBD"></path>
                <path d="M67.6289062,151.421875 C66.3997334,152.880216 65.4596386,154.36067 64.8085937,155.863281 C64.1575488,157.365893 63.7226573,159.09374 63.5039062,161.046875 L63.4179687,162 L62.4804687,162 L62.5664062,161.046875 C62.7851573,159.119782 63.2382778,157.37631 63.9257812,155.816406 C64.6132846,154.256503 65.5247339,152.791674 66.6601562,151.421875 L60.1679687,151.421875 L60.1679687,150.625 L67.6289062,150.625 L67.6289062,151.421875 Z" fill="#757575"></path>
                <polygon fill="#757575" points="96.8632812 130.054688 95.9257812 130.054688 95.9257812 119.601562 93.0351562 119.9375 93.0351562 119.28125 96.8632812 118.59375"></polygon>
                <path d="M99.3476562,153.554688 C99.3476562,154.169274 99.1679705,154.707029 98.8085937,155.167969 C98.4492169,155.628909 97.970055,155.963541 97.3710937,156.171875 C98.0638055,156.385418 98.6197895,156.740883 99.0390625,157.238281 C99.4583354,157.73568 99.6679687,158.317705 99.6679687,158.984375 C99.6679687,160.005213 99.3268263,160.790362 98.6445312,161.339844 C97.9622361,161.889326 97.0846407,162.164062 96.0117187,162.164062 C94.9179632,162.164062 94.0338575,161.890628 93.359375,161.34375 C92.6848924,160.796872 92.3476562,160.010422 92.3476562,158.984375 C92.3476562,158.312497 92.5533833,157.727867 92.9648437,157.230469 C93.3763041,156.73307 93.9283819,156.377605 94.6210937,156.164062 C94.0221324,155.955728 93.5468767,155.622398 93.1953125,155.164062 C92.8437482,154.705727 92.6679687,154.169274 92.6679687,153.554688 C92.6679687,152.575516 92.9765594,151.815107 93.59375,151.273438 C94.2109405,150.731768 95.0117138,150.460938 95.9960937,150.460938 C96.9752653,150.460938 97.7786426,150.73307 98.40625,151.277344 C99.0338573,151.821617 99.3476562,152.580724 99.3476562,153.554688 Z M98.7304687,158.992188 C98.7304687,158.273434 98.4700546,157.688804 97.9492187,157.238281 C97.4283828,156.787758 96.7773476,156.5625 95.9960937,156.5625 C95.2044231,156.5625 94.5533879,156.787758 94.0429687,157.238281 C93.5325495,157.688804 93.2773437,158.273434 93.2773437,158.992188 C93.2773437,159.736983 93.5299453,160.32031 94.0351562,160.742188 C94.5403671,161.164065 95.1992146,161.375 96.0117187,161.375 C96.8033893,161.375 97.4544245,161.162763 97.9648437,160.738281 C98.4752629,160.3138 98.7304687,159.731775 98.7304687,158.992188 Z M98.4101562,153.546875 C98.4101562,152.890622 98.1796898,152.345054 97.71875,151.910156 C97.2578101,151.475258 96.6835971,151.257812 95.9960937,151.257812 C95.2929652,151.257812 94.7174501,151.466144 94.2695312,151.882812 C93.8216123,152.299481 93.5976562,152.854163 93.5976562,153.546875 C93.5976562,154.218753 93.8229144,154.756508 94.2734375,155.160156 C94.7239605,155.563804 95.3033818,155.765625 96.0117187,155.765625 C96.7044305,155.765625 97.2773414,155.563804 97.7304687,155.160156 C98.183596,154.756508 98.4101562,154.218753 98.4101562,153.546875 Z" fill="#757575"></path>
                <path d="M131.699219,130 L124.636719,130 L124.636719,129.28125 L128.363281,125.054687 C129.050785,124.278642 129.536457,123.628909 129.820312,123.105469 C130.104168,122.582029 130.246094,122.080732 130.246094,121.601562 C130.246094,120.893226 130.046877,120.325523 129.648437,119.898437 C129.249998,119.471352 128.686202,119.257812 127.957031,119.257812 C127.092444,119.257812 126.4362,119.497393 125.988281,119.976562 C125.540362,120.455732 125.316406,121.09635 125.316406,121.898437 L124.449219,121.898437 L124.433594,121.851562 C124.407552,120.903641 124.71484,120.101566 125.355469,119.445312 C125.996097,118.789059 126.863276,118.460937 127.957031,118.460937 C128.936203,118.460937 129.720049,118.742185 130.308594,119.304687 C130.897138,119.86719 131.191406,120.622391 131.191406,121.570312 C131.191406,122.195316 130.994794,122.829424 130.601562,123.472656 C130.208331,124.115889 129.66016,124.833329 128.957031,125.625 L125.824219,129.171875 L125.839844,129.210938 L131.699219,129.210938 L131.699219,130 Z" fill="#757575"></path>
                <path d="M127.558594,161.375 C128.423181,161.375 129.110674,161.08594 129.621094,160.507812 C130.131513,159.929685 130.386719,159.101568 130.386719,158.023438 L130.386719,156.882812 C130.110676,157.361982 129.739586,157.73177 129.273437,157.992188 C128.807289,158.252605 128.287763,158.382812 127.714844,158.382812 C126.67838,158.382812 125.843753,158.023441 125.210937,157.304688 C124.578122,156.585934 124.261719,155.656256 124.261719,154.515625 C124.261719,153.364578 124.593747,152.401046 125.257812,151.625 C125.921878,150.848954 126.743485,150.460938 127.722656,150.460938 C128.82162,150.460938 129.70182,150.819007 130.363281,151.535156 C131.024743,152.251306 131.355469,153.29166 131.355469,154.65625 L131.355469,158.007812 C131.355469,159.325527 131.006514,160.347653 130.308594,161.074219 C129.610674,161.800785 128.694016,162.164062 127.558594,162.164062 C127.152342,162.164062 126.744794,162.125 126.335937,162.046875 C125.927081,161.96875 125.537762,161.848959 125.167969,161.6875 L125.339844,160.90625 C125.694012,161.072917 126.044269,161.192708 126.390625,161.265625 C126.736981,161.338542 127.1263,161.375 127.558594,161.375 Z M127.714844,157.59375 C128.39193,157.59375 128.958331,157.420575 129.414062,157.074219 C129.869794,156.727863 130.194009,156.299482 130.386719,155.789062 L130.386719,154.585938 C130.386719,153.507807 130.151044,152.683597 129.679687,152.113281 C129.208331,151.542966 128.569014,151.257812 127.761719,151.257812 C127.02734,151.257812 126.421877,151.575518 125.945312,152.210938 C125.468748,152.846357 125.230469,153.614579 125.230469,154.515625 C125.230469,155.390629 125.454425,156.122393 125.902344,156.710938 C126.350263,157.299482 126.954423,157.59375 127.714844,157.59375 Z" fill="#757575"></path>
                <path d="M158.714844,123.804687 L159.800781,123.804687 C160.62891,123.804687 161.256508,123.597658 161.683594,123.183594 C162.110679,122.769529 162.324219,122.236982 162.324219,121.585937 C162.324219,120.877601 162.1237,120.312502 161.722656,119.890625 C161.321613,119.468748 160.725264,119.257812 159.933594,119.257812 C159.204423,119.257812 158.606773,119.472654 158.140625,119.902344 C157.674477,120.332033 157.441406,120.898434 157.441406,121.601562 L156.566406,121.601562 L156.550781,121.554687 C156.524739,120.669266 156.834632,119.932295 157.480469,119.34375 C158.126305,118.755205 158.944005,118.460937 159.933594,118.460937 C160.949224,118.460937 161.757809,118.739581 162.359375,119.296875 C162.96094,119.854169 163.261719,120.627599 163.261719,121.617187 C163.261719,122.153649 163.095054,122.65755 162.761719,123.128906 C162.428384,123.600263 161.959638,123.95052 161.355469,124.179687 C162.063806,124.382814 162.593748,124.725258 162.945312,125.207031 C163.296877,125.688804 163.472656,126.257809 163.472656,126.914062 C163.472656,127.924484 163.145837,128.718747 162.492187,129.296875 C161.838538,129.875003 160.998703,130.164062 159.972656,130.164062 C158.97786,130.164062 158.123701,129.881513 157.410156,129.316406 C156.696611,128.751299 156.352864,127.966151 156.378906,126.960937 L156.394531,126.914062 L157.269531,126.914062 C157.269531,127.638024 157.520831,128.229164 158.023437,128.6875 C158.526044,129.145836 159.175777,129.375 159.972656,129.375 C160.779952,129.375 161.410154,129.165367 161.863281,128.746094 C162.316408,128.326821 162.542969,127.726566 162.542969,126.945312 C162.542969,126.148434 162.305992,125.558596 161.832031,125.175781 C161.35807,124.792967 160.680994,124.601562 159.800781,124.601562 L158.714844,124.601562 L158.714844,123.804687 Z" fill="#757575"></path>
                <path d="M156.199219,162.054688 L155.261719,162.054688 L155.261719,151.601562 L152.371094,151.9375 L152.371094,151.28125 L156.199219,150.59375 L156.199219,162.054688 Z M168.042969,157.585938 C168.042969,159.054695 167.725264,160.184892 167.089844,160.976562 C166.454424,161.768233 165.57162,162.164062 164.441406,162.164062 C163.316401,162.164062 162.432295,161.766931 161.789062,160.972656 C161.14583,160.178381 160.824219,159.049486 160.824219,157.585938 L160.824219,155.046875 C160.824219,153.583326 161.141924,152.453129 161.777344,151.65625 C162.412764,150.859371 163.295567,150.460938 164.425781,150.460938 C165.555995,150.460938 166.441403,150.859371 167.082031,151.65625 C167.722659,152.453129 168.042969,153.583326 168.042969,155.046875 L168.042969,157.585938 Z M167.105469,154.890625 C167.105469,153.723952 166.876304,152.826826 166.417969,152.199219 C165.959633,151.571611 165.295577,151.257812 164.425781,151.257812 C163.555985,151.257812 162.894534,151.571611 162.441406,152.199219 C161.988279,152.826826 161.761719,153.723952 161.761719,154.890625 L161.761719,157.726562 C161.761719,158.882818 161.992185,159.779945 162.453125,160.417969 C162.914065,161.055993 163.576819,161.375 164.441406,161.375 C165.305994,161.375 165.966144,161.057295 166.421875,160.421875 C166.877606,159.786455 167.105469,158.888027 167.105469,157.726562 L167.105469,154.890625 Z" fill="#757575"></path>
                <path d="M194.371094,126.335937 L196.152344,126.335937 L196.152344,127.125 L194.371094,127.125 L194.371094,130 L193.441406,130 L193.441406,127.125 L188.105469,127.125 L188.105469,126.59375 L193.347656,118.625 L194.371094,118.625 L194.371094,126.335937 Z M189.214844,126.335937 L193.441406,126.335937 L193.441406,119.851562 L193.394531,119.835937 L192.996094,120.6875 L189.214844,126.335937 Z" fill="#757575"></path>
                <path d="M188.429688,162.054688 L187.492188,162.054688 L187.492188,151.601562 L184.601562,151.9375 L184.601562,151.28125 L188.429688,150.59375 L188.429688,162.054688 Z M197.296875,162.054688 L196.359375,162.054688 L196.359375,151.601562 L193.46875,151.9375 L193.46875,151.28125 L197.296875,150.59375 L197.296875,162.054688 Z" fill="#757575"></path>
                <path d="M221.042969,124.851562 L221.675781,118.625 L227.199219,118.625 L227.199219,119.492187 L222.472656,119.492187 L222.050781,123.546875 C222.337241,123.286457 222.652342,123.085938 222.996094,122.945312 C223.339845,122.804687 223.805987,122.726563 224.394531,122.710937 C225.363286,122.695312 226.144528,123.02083 226.738281,123.6875 C227.332034,124.35417 227.628906,125.249994 227.628906,126.375 C227.628906,127.526047 227.341149,128.445309 226.765625,129.132812 C226.190101,129.820316 225.324224,130.164062 224.167969,130.164062 C223.230464,130.164062 222.449222,129.902346 221.824219,129.378906 C221.199216,128.855466 220.899739,128.080734 220.925781,127.054687 L220.941406,127.007812 L221.777344,127.007812 C221.777344,127.773441 221.994789,128.359373 222.429687,128.765625 C222.864585,129.171877 223.444007,129.375 224.167969,129.375 C225.011723,129.375 225.643227,129.119794 226.0625,128.609375 C226.481773,128.098956 226.691406,127.35938 226.691406,126.390625 C226.691406,125.541662 226.481773,124.86068 226.0625,124.347656 C225.643227,123.834633 225.055993,123.578125 224.300781,123.578125 C223.571611,123.578125 223.015627,123.694009 222.632812,123.925781 C222.249998,124.157553 221.972657,124.50781 221.800781,124.976562 L221.042969,124.851562 Z" fill="#757575"></path>
                <path d="M220.429688,162.054688 L219.492188,162.054688 L219.492188,151.601562 L216.601562,151.9375 L216.601562,151.28125 L220.429688,150.59375 L220.429688,162.054688 Z M232.132812,162 L225.070312,162 L225.070312,161.28125 L228.796875,157.054688 C229.484378,156.278642 229.970051,155.628909 230.253906,155.105469 C230.537762,154.582029 230.679688,154.080732 230.679688,153.601562 C230.679688,152.893226 230.480471,152.325523 230.082031,151.898438 C229.683592,151.471352 229.119795,151.257812 228.390625,151.257812 C227.526037,151.257812 226.869794,151.497393 226.421875,151.976562 C225.973956,152.455732 225.75,153.09635 225.75,153.898438 L224.882812,153.898438 L224.867188,153.851562 C224.841146,152.903641 225.148434,152.101566 225.789062,151.445312 C226.429691,150.789059 227.29687,150.460938 228.390625,150.460938 C229.369797,150.460938 230.153643,150.742185 230.742188,151.304688 C231.330732,151.86719 231.625,152.622391 231.625,153.570312 C231.625,154.195316 231.428387,154.829424 231.035156,155.472656 C230.641925,156.115889 230.093754,156.833329 229.390625,157.625 L226.257812,161.171875 L226.273438,161.210938 L232.132812,161.210938 L232.132812,162 Z" fill="#757575"></path>
                <path d="M28.4296875,194.054687 L27.4921875,194.054687 L27.4921875,183.601562 L24.6015625,183.9375 L24.6015625,183.28125 L28.4296875,182.59375 L28.4296875,194.054687 Z M35.1484375,187.804687 L36.234375,187.804687 C37.0625041,187.804687 37.690102,187.597658 38.1171875,187.183594 C38.544273,186.769529 38.7578125,186.236982 38.7578125,185.585937 C38.7578125,184.877601 38.5572937,184.312502 38.15625,183.890625 C37.7552063,183.468748 37.1588581,183.257812 36.3671875,183.257812 C35.6380172,183.257812 35.0403669,183.472654 34.5742188,183.902344 C34.1080706,184.332033 33.875,184.898434 33.875,185.601562 L33,185.601562 L32.984375,185.554687 C32.9583332,184.669266 33.2682259,183.932295 33.9140625,183.34375 C34.5598991,182.755205 35.3775992,182.460937 36.3671875,182.460937 C37.3828176,182.460937 38.1914032,182.739581 38.7929688,183.296875 C39.3945343,183.854169 39.6953125,184.627599 39.6953125,185.617187 C39.6953125,186.153649 39.5286475,186.65755 39.1953125,187.128906 C38.8619775,187.600263 38.3932322,187.95052 37.7890625,188.179687 C38.4973994,188.382814 39.027342,188.725258 39.3789062,189.207031 C39.7304705,189.688804 39.90625,190.257809 39.90625,190.914062 C39.90625,191.924484 39.5794304,192.718747 38.9257812,193.296875 C38.2721321,193.875003 37.4322968,194.164062 36.40625,194.164062 C35.4114534,194.164062 34.5572952,193.881513 33.84375,193.316406 C33.1302048,192.751299 32.7864582,191.966151 32.8125,190.960937 L32.828125,190.914062 L33.703125,190.914062 C33.703125,191.638024 33.9544246,192.229164 34.4570312,192.6875 C34.9596379,193.145836 35.609371,193.375 36.40625,193.375 C37.2135457,193.375 37.8437477,193.165367 38.296875,192.746094 C38.7500023,192.326821 38.9765625,191.726566 38.9765625,190.945312 C38.9765625,190.148434 38.7395857,189.558596 38.265625,189.175781 C37.7916643,188.792967 37.1145877,188.601562 36.234375,188.601562 L35.1484375,188.601562 L35.1484375,187.804687 Z" fill="#757575"></path>
                <path d="M60.4296875,194.054687 L59.4921875,194.054687 L59.4921875,183.601562 L56.6015625,183.9375 L56.6015625,183.28125 L60.4296875,182.59375 L60.4296875,194.054687 Z M70.8046875,190.335937 L72.5859375,190.335937 L72.5859375,191.125 L70.8046875,191.125 L70.8046875,194 L69.875,194 L69.875,191.125 L64.5390625,191.125 L64.5390625,190.59375 L69.78125,182.625 L70.8046875,182.625 L70.8046875,190.335937 Z M65.6484375,190.335937 L69.875,190.335937 L69.875,183.851562 L69.828125,183.835937 L69.4296875,184.6875 L65.6484375,190.335937 Z" fill="#757575"></path>
                <path d="M92.4296875,194.054687 L91.4921875,194.054687 L91.4921875,183.601562 L88.6015625,183.9375 L88.6015625,183.28125 L92.4296875,182.59375 L92.4296875,194.054687 Z M97.4765625,188.851562 L98.109375,182.625 L103.632812,182.625 L103.632812,183.492187 L98.90625,183.492187 L98.484375,187.546875 C98.7708348,187.286457 99.0859358,187.085938 99.4296875,186.945312 C99.7734392,186.804687 100.23958,186.726563 100.828125,186.710937 C101.79688,186.695312 102.578122,187.02083 103.171875,187.6875 C103.765628,188.35417 104.0625,189.249994 104.0625,190.375 C104.0625,191.526047 103.774742,192.445309 103.199219,193.132812 C102.623695,193.820316 101.757818,194.164062 100.601562,194.164062 C99.6640578,194.164062 98.8828156,193.902346 98.2578125,193.378906 C97.6328094,192.855466 97.3333332,192.080734 97.359375,191.054687 L97.375,191.007812 L98.2109375,191.007812 C98.2109375,191.773441 98.4283832,192.359373 98.8632812,192.765625 C99.2981793,193.171877 99.8776005,193.375 100.601562,193.375 C101.445317,193.375 102.076821,193.119794 102.496094,192.609375 C102.915367,192.098956 103.125,191.35938 103.125,190.390625 C103.125,189.541662 102.915367,188.86068 102.496094,188.347656 C102.076821,187.834633 101.489587,187.578125 100.734375,187.578125 C100.005205,187.578125 99.4492207,187.694009 99.0664062,187.925781 C98.6835918,188.157553 98.4062509,188.50781 98.234375,188.976562 L97.4765625,188.851562 Z" fill="#757575"></path>
                <path d="M124.429688,194.054687 L123.492188,194.054687 L123.492188,183.601562 L120.601562,183.9375 L120.601562,183.28125 L124.429688,182.59375 L124.429688,194.054687 Z M133.054688,182.460937 C133.445314,182.460937 133.830727,182.505208 134.210938,182.59375 C134.591148,182.682292 134.929686,182.809895 135.226562,182.976562 L134.984375,183.742187 C134.687499,183.57552 134.393231,183.453125 134.101562,183.375 C133.809894,183.296875 133.46094,183.257812 133.054688,183.257812 C132.210933,183.257812 131.511722,183.585934 130.957031,184.242187 C130.402341,184.898441 130.125,185.760411 130.125,186.828125 L130.125,187.835937 C130.437502,187.429685 130.835935,187.104168 131.320312,186.859375 C131.80469,186.614582 132.341143,186.492187 132.929688,186.492187 C133.950526,186.492187 134.75781,186.843746 135.351562,187.546875 C135.945315,188.250004 136.242188,189.166661 136.242188,190.296875 C136.242188,191.416672 135.92318,192.341142 135.285156,193.070312 C134.647132,193.799483 133.817713,194.164062 132.796875,194.164062 C131.749995,194.164062 130.886722,193.773441 130.207031,192.992187 C129.52734,192.210934 129.1875,191.140632 129.1875,189.78125 L129.1875,186.914062 C129.1875,185.601556 129.559892,184.531254 130.304688,183.703125 C131.049483,182.874996 131.96614,182.460937 133.054688,182.460937 Z M132.742188,187.257812 C132.111976,187.257812 131.5612,187.421873 131.089844,187.75 C130.618487,188.078127 130.296876,188.499997 130.125,189.015625 L130.125,189.851562 C130.125,190.94011 130.374998,191.799476 130.875,192.429687 C131.375002,193.059899 132.015621,193.375 132.796875,193.375 C133.557295,193.375 134.165362,193.076826 134.621094,192.480469 C135.076825,191.884112 135.304688,191.156254 135.304688,190.296875 C135.304688,189.385412 135.083336,188.651044 134.640625,188.09375 C134.197914,187.536456 133.565108,187.257812 132.742188,187.257812 Z" fill="#757575"></path>
                <path d="M156.429688,194.054687 L155.492188,194.054687 L155.492188,183.601562 L152.601562,183.9375 L152.601562,183.28125 L156.429688,182.59375 L156.429688,194.054687 Z M168.0625,183.421875 C166.833327,184.880216 165.893232,186.36067 165.242188,187.863281 C164.591143,189.365893 164.156251,191.09374 163.9375,193.046875 L163.851562,194 L162.914062,194 L163,193.046875 C163.218751,191.119782 163.671872,189.37631 164.359375,187.816406 C165.046878,186.256503 165.958328,184.791674 167.09375,183.421875 L160.601562,183.421875 L160.601562,182.625 L168.0625,182.625 L168.0625,183.421875 Z" fill="#757575"></path>
                <path d="M188.429688,194.054687 L187.492188,194.054687 L187.492188,183.601562 L184.601562,183.9375 L184.601562,183.28125 L188.429688,182.59375 L188.429688,194.054687 Z M199.78125,185.554687 C199.78125,186.169274 199.601564,186.707029 199.242188,187.167969 C198.882811,187.628909 198.403649,187.963541 197.804688,188.171875 C198.497399,188.385418 199.053383,188.740883 199.472656,189.238281 C199.891929,189.73568 200.101562,190.317705 200.101562,190.984375 C200.101562,192.005213 199.76042,192.790362 199.078125,193.339844 C198.39583,193.889326 197.518235,194.164062 196.445312,194.164062 C195.351557,194.164062 194.467451,193.890628 193.792969,193.34375 C193.118486,192.796872 192.78125,192.010422 192.78125,190.984375 C192.78125,190.312497 192.986977,189.727867 193.398438,189.230469 C193.809898,188.73307 194.361976,188.377605 195.054688,188.164062 C194.455726,187.955728 193.980471,187.622398 193.628906,187.164062 C193.277342,186.705727 193.101562,186.169274 193.101562,185.554687 C193.101562,184.575516 193.410153,183.815107 194.027344,183.273437 C194.644534,182.731768 195.445308,182.460937 196.429688,182.460937 C197.408859,182.460937 198.212236,182.73307 198.839844,183.277344 C199.467451,183.821617 199.78125,184.580724 199.78125,185.554687 Z M199.164062,190.992187 C199.164062,190.273434 198.903648,189.688804 198.382812,189.238281 C197.861977,188.787758 197.210941,188.5625 196.429688,188.5625 C195.638017,188.5625 194.986982,188.787758 194.476562,189.238281 C193.966143,189.688804 193.710938,190.273434 193.710938,190.992187 C193.710938,191.736983 193.963539,192.32031 194.46875,192.742187 C194.973961,193.164065 195.632808,193.375 196.445312,193.375 C197.236983,193.375 197.888018,193.162763 198.398438,192.738281 C198.908857,192.3138 199.164062,191.731775 199.164062,190.992187 Z M198.84375,185.546875 C198.84375,184.890622 198.613284,184.345054 198.152344,183.910156 C197.691404,183.475258 197.117191,183.257812 196.429688,183.257812 C195.726559,183.257812 195.151044,183.466144 194.703125,183.882812 C194.255206,184.299481 194.03125,184.854163 194.03125,185.546875 C194.03125,186.218753 194.256508,186.756508 194.707031,187.160156 C195.157554,187.563804 195.736976,187.765625 196.445312,187.765625 C197.138024,187.765625 197.710935,187.563804 198.164062,187.160156 C198.61719,186.756508 198.84375,186.218753 198.84375,185.546875 Z" fill="#757575"></path>
                <path d="M220.429688,194.054687 L219.492188,194.054687 L219.492188,183.601562 L216.601562,183.9375 L216.601562,183.28125 L220.429688,182.59375 L220.429688,194.054687 Z M227.992188,193.375 C228.856775,193.375 229.544268,193.08594 230.054688,192.507812 C230.565107,191.929685 230.820312,191.101568 230.820312,190.023437 L230.820312,188.882812 C230.544269,189.361982 230.173179,189.73177 229.707031,189.992187 C229.240883,190.252605 228.721357,190.382812 228.148438,190.382812 C227.111974,190.382812 226.277347,190.023441 225.644531,189.304687 C225.011716,188.585934 224.695312,187.656256 224.695312,186.515625 C224.695312,185.364578 225.02734,184.401046 225.691406,183.625 C226.355472,182.848954 227.177078,182.460937 228.15625,182.460937 C229.255214,182.460937 230.135413,182.819007 230.796875,183.535156 C231.458337,184.251306 231.789062,185.29166 231.789062,186.65625 L231.789062,190.007812 C231.789062,191.325527 231.440108,192.347653 230.742188,193.074219 C230.044267,193.800785 229.12761,194.164062 227.992188,194.164062 C227.585935,194.164062 227.178387,194.125 226.769531,194.046875 C226.360675,193.96875 225.971356,193.848959 225.601562,193.6875 L225.773438,192.90625 C226.127606,193.072917 226.477863,193.192708 226.824219,193.265625 C227.170575,193.338542 227.559894,193.375 227.992188,193.375 Z M228.148438,189.59375 C228.825524,189.59375 229.391925,189.420575 229.847656,189.074219 C230.303388,188.727863 230.627603,188.299482 230.820312,187.789062 L230.820312,186.585937 C230.820312,185.507807 230.584638,184.683597 230.113281,184.113281 C229.641925,183.542966 229.002608,183.257812 228.195312,183.257812 C227.460934,183.257812 226.855471,183.575518 226.378906,184.210937 C225.902341,184.846357 225.664062,185.614579 225.664062,186.515625 C225.664062,187.390629 225.888019,188.122393 226.335938,188.710937 C226.783856,189.299482 227.388017,189.59375 228.148438,189.59375 Z" fill="#757575"></path>
                <path d="M31.0351562,226 L23.9726562,226 L23.9726562,225.28125 L27.6992188,221.054688 C28.3867222,220.278642 28.8723944,219.628909 29.15625,219.105469 C29.4401056,218.582029 29.5820312,218.080732 29.5820312,217.601562 C29.5820312,216.893226 29.3828145,216.325523 28.984375,215.898438 C28.5859355,215.471352 28.0221391,215.257812 27.2929688,215.257812 C26.4283811,215.257812 25.7721377,215.497393 25.3242188,215.976562 C24.8762998,216.455732 24.6523438,217.09635 24.6523438,217.898438 L23.7851562,217.898438 L23.7695312,217.851562 C23.7434895,216.903641 24.050778,216.101566 24.6914062,215.445312 C25.3320345,214.789059 26.1992133,214.460938 27.2929688,214.460938 C28.2721403,214.460938 29.0559866,214.742185 29.6445312,215.304688 C30.2330759,215.86719 30.5273438,216.622391 30.5273438,217.570312 C30.5273438,218.195316 30.3307311,218.829424 29.9375,219.472656 C29.5442689,220.115889 28.9960973,220.833329 28.2929688,221.625 L25.1601562,225.171875 L25.1757812,225.210938 L31.0351562,225.210938 L31.0351562,226 Z M40.0429688,221.585938 C40.0429688,223.054695 39.7252636,224.184892 39.0898438,224.976562 C38.4544239,225.768233 37.5716202,226.164062 36.4414062,226.164062 C35.3164006,226.164062 34.4322949,225.766931 33.7890625,224.972656 C33.1458301,224.178381 32.8242188,223.049486 32.8242188,221.585938 L32.8242188,219.046875 C32.8242188,217.583326 33.1419239,216.453129 33.7773438,215.65625 C34.4127636,214.859371 35.2955673,214.460938 36.4257812,214.460938 C37.5559952,214.460938 38.441403,214.859371 39.0820312,215.65625 C39.7226595,216.453129 40.0429688,217.583326 40.0429688,219.046875 L40.0429688,221.585938 Z M39.1054688,218.890625 C39.1054688,217.723952 38.8763044,216.826826 38.4179688,216.199219 C37.9596331,215.571611 37.2955773,215.257812 36.4257812,215.257812 C35.5559852,215.257812 34.8945335,215.571611 34.4414062,216.199219 C33.988279,216.826826 33.7617188,217.723952 33.7617188,218.890625 L33.7617188,221.726562 C33.7617188,222.882818 33.9921852,223.779945 34.453125,224.417969 C34.9140648,225.055993 35.5768186,225.375 36.4414062,225.375 C37.3059939,225.375 37.9661436,225.057295 38.421875,224.421875 C38.8776064,223.786455 39.1054688,222.888027 39.1054688,221.726562 L39.1054688,218.890625 Z" fill="#757575"></path>
                <path d="M63.265625,226 L56.203125,226 L56.203125,225.28125 L59.9296875,221.054688 C60.6171909,220.278642 61.1028632,219.628909 61.3867188,219.105469 C61.6705743,218.582029 61.8125,218.080732 61.8125,217.601562 C61.8125,216.893226 61.6132832,216.325523 61.2148438,215.898438 C60.8164043,215.471352 60.2526078,215.257812 59.5234375,215.257812 C58.6588498,215.257812 58.0026064,215.497393 57.5546875,215.976562 C57.1067686,216.455732 56.8828125,217.09635 56.8828125,217.898438 L56.015625,217.898438 L56,217.851562 C55.9739582,216.903641 56.2812468,216.101566 56.921875,215.445312 C57.5625032,214.789059 58.429682,214.460938 59.5234375,214.460938 C60.5026091,214.460938 61.2864554,214.742185 61.875,215.304688 C62.4635446,215.86719 62.7578125,216.622391 62.7578125,217.570312 C62.7578125,218.195316 62.5611999,218.829424 62.1679688,219.472656 C61.7747376,220.115889 61.226566,220.833329 60.5234375,221.625 L57.390625,225.171875 L57.40625,225.210938 L63.265625,225.210938 L63.265625,226 Z M69.296875,226.054688 L68.359375,226.054688 L68.359375,215.601562 L65.46875,215.9375 L65.46875,215.28125 L69.296875,214.59375 L69.296875,226.054688 Z" fill="#757575"></path>
                <path d="M95.265625,226 L88.203125,226 L88.203125,225.28125 L91.9296875,221.054688 C92.6171909,220.278642 93.1028632,219.628909 93.3867188,219.105469 C93.6705743,218.582029 93.8125,218.080732 93.8125,217.601562 C93.8125,216.893226 93.6132832,216.325523 93.2148438,215.898438 C92.8164043,215.471352 92.2526078,215.257812 91.5234375,215.257812 C90.6588498,215.257812 90.0026064,215.497393 89.5546875,215.976562 C89.1067686,216.455732 88.8828125,217.09635 88.8828125,217.898438 L88.015625,217.898438 L88,217.851562 C87.9739582,216.903641 88.2812468,216.101566 88.921875,215.445312 C89.5625032,214.789059 90.429682,214.460938 91.5234375,214.460938 C92.5026091,214.460938 93.2864554,214.742185 93.875,215.304688 C94.4635446,215.86719 94.7578125,216.622391 94.7578125,217.570312 C94.7578125,218.195316 94.5611999,218.829424 94.1679688,219.472656 C93.7747376,220.115889 93.226566,220.833329 92.5234375,221.625 L89.390625,225.171875 L89.40625,225.210938 L95.265625,225.210938 L95.265625,226 Z M104.132812,226 L97.0703125,226 L97.0703125,225.28125 L100.796875,221.054688 C101.484378,220.278642 101.970051,219.628909 102.253906,219.105469 C102.537762,218.582029 102.679688,218.080732 102.679688,217.601562 C102.679688,216.893226 102.480471,216.325523 102.082031,215.898438 C101.683592,215.471352 101.119795,215.257812 100.390625,215.257812 C99.5260373,215.257812 98.8697939,215.497393 98.421875,215.976562 C97.9739561,216.455732 97.75,217.09635 97.75,217.898438 L96.8828125,217.898438 L96.8671875,217.851562 C96.8411457,216.903641 97.1484343,216.101566 97.7890625,215.445312 C98.4296907,214.789059 99.2968695,214.460938 100.390625,214.460938 C101.369797,214.460938 102.153643,214.742185 102.742188,215.304688 C103.330732,215.86719 103.625,216.622391 103.625,217.570312 C103.625,218.195316 103.428387,218.829424 103.035156,219.472656 C102.641925,220.115889 102.093754,220.833329 101.390625,221.625 L98.2578125,225.171875 L98.2734375,225.210938 L104.132812,225.210938 L104.132812,226 Z" fill="#757575"></path>
                <path d="M127.265625,226 L120.203125,226 L120.203125,225.28125 L123.929688,221.054688 C124.617191,220.278642 125.102863,219.628909 125.386719,219.105469 C125.670574,218.582029 125.8125,218.080732 125.8125,217.601562 C125.8125,216.893226 125.613283,216.325523 125.214844,215.898438 C124.816404,215.471352 124.252608,215.257812 123.523438,215.257812 C122.65885,215.257812 122.002606,215.497393 121.554688,215.976562 C121.106769,216.455732 120.882812,217.09635 120.882812,217.898438 L120.015625,217.898438 L120,217.851562 C119.973958,216.903641 120.281247,216.101566 120.921875,215.445312 C121.562503,214.789059 122.429682,214.460938 123.523438,214.460938 C124.502609,214.460938 125.286455,214.742185 125.875,215.304688 C126.463545,215.86719 126.757812,216.622391 126.757812,217.570312 C126.757812,218.195316 126.5612,218.829424 126.167969,219.472656 C125.774738,220.115889 125.226566,220.833329 124.523438,221.625 L121.390625,225.171875 L121.40625,225.210938 L127.265625,225.210938 L127.265625,226 Z M131.148438,219.804688 L132.234375,219.804688 C133.062504,219.804688 133.690102,219.597658 134.117188,219.183594 C134.544273,218.769529 134.757812,218.236982 134.757812,217.585938 C134.757812,216.877601 134.557294,216.312502 134.15625,215.890625 C133.755206,215.468748 133.158858,215.257812 132.367188,215.257812 C131.638017,215.257812 131.040367,215.472654 130.574219,215.902344 C130.108071,216.332033 129.875,216.898434 129.875,217.601562 L129,217.601562 L128.984375,217.554688 C128.958333,216.669266 129.268226,215.932295 129.914062,215.34375 C130.559899,214.755205 131.377599,214.460938 132.367188,214.460938 C133.382818,214.460938 134.191403,214.739581 134.792969,215.296875 C135.394534,215.854169 135.695312,216.627599 135.695312,217.617188 C135.695312,218.153649 135.528648,218.65755 135.195312,219.128906 C134.861977,219.600263 134.393232,219.95052 133.789062,220.179688 C134.497399,220.382814 135.027342,220.725258 135.378906,221.207031 C135.730471,221.688804 135.90625,222.257809 135.90625,222.914062 C135.90625,223.924484 135.57943,224.718747 134.925781,225.296875 C134.272132,225.875003 133.432297,226.164062 132.40625,226.164062 C131.411453,226.164062 130.557295,225.881513 129.84375,225.316406 C129.130205,224.751299 128.786458,223.966151 128.8125,222.960938 L128.828125,222.914062 L129.703125,222.914062 C129.703125,223.638024 129.954425,224.229164 130.457031,224.6875 C130.959638,225.145836 131.609371,225.375 132.40625,225.375 C133.213546,225.375 133.843748,225.165367 134.296875,224.746094 C134.750002,224.326821 134.976562,223.726566 134.976562,222.945312 C134.976562,222.148434 134.739586,221.558596 134.265625,221.175781 C133.791664,220.792967 133.114588,220.601562 132.234375,220.601562 L131.148438,220.601562 L131.148438,219.804688 Z" fill="#757575"></path>
                <path d="M159.265625,226 L152.203125,226 L152.203125,225.28125 L155.929688,221.054688 C156.617191,220.278642 157.102863,219.628909 157.386719,219.105469 C157.670574,218.582029 157.8125,218.080732 157.8125,217.601562 C157.8125,216.893226 157.613283,216.325523 157.214844,215.898438 C156.816404,215.471352 156.252608,215.257812 155.523438,215.257812 C154.65885,215.257812 154.002606,215.497393 153.554688,215.976562 C153.106769,216.455732 152.882812,217.09635 152.882812,217.898438 L152.015625,217.898438 L152,217.851562 C151.973958,216.903641 152.281247,216.101566 152.921875,215.445312 C153.562503,214.789059 154.429682,214.460938 155.523438,214.460938 C156.502609,214.460938 157.286455,214.742185 157.875,215.304688 C158.463545,215.86719 158.757812,216.622391 158.757812,217.570312 C158.757812,218.195316 158.5612,218.829424 158.167969,219.472656 C157.774738,220.115889 157.226566,220.833329 156.523438,221.625 L153.390625,225.171875 L153.40625,225.210938 L159.265625,225.210938 L159.265625,226 Z M166.804688,222.335938 L168.585938,222.335938 L168.585938,223.125 L166.804688,223.125 L166.804688,226 L165.875,226 L165.875,223.125 L160.539062,223.125 L160.539062,222.59375 L165.78125,214.625 L166.804688,214.625 L166.804688,222.335938 Z M161.648438,222.335938 L165.875,222.335938 L165.875,215.851562 L165.828125,215.835938 L165.429688,216.6875 L161.648438,222.335938 Z" fill="#757575"></path>
                <path d="M191.265625,226 L184.203125,226 L184.203125,225.28125 L187.929688,221.054688 C188.617191,220.278642 189.102863,219.628909 189.386719,219.105469 C189.670574,218.582029 189.8125,218.080732 189.8125,217.601562 C189.8125,216.893226 189.613283,216.325523 189.214844,215.898438 C188.816404,215.471352 188.252608,215.257812 187.523438,215.257812 C186.65885,215.257812 186.002606,215.497393 185.554688,215.976562 C185.106769,216.455732 184.882812,217.09635 184.882812,217.898438 L184.015625,217.898438 L184,217.851562 C183.973958,216.903641 184.281247,216.101566 184.921875,215.445312 C185.562503,214.789059 186.429682,214.460938 187.523438,214.460938 C188.502609,214.460938 189.286455,214.742185 189.875,215.304688 C190.463545,215.86719 190.757812,216.622391 190.757812,217.570312 C190.757812,218.195316 190.5612,218.829424 190.167969,219.472656 C189.774738,220.115889 189.226566,220.833329 188.523438,221.625 L185.390625,225.171875 L185.40625,225.210938 L191.265625,225.210938 L191.265625,226 Z M193.476562,220.851562 L194.109375,214.625 L199.632812,214.625 L199.632812,215.492188 L194.90625,215.492188 L194.484375,219.546875 C194.770835,219.286457 195.085936,219.085938 195.429688,218.945312 C195.773439,218.804687 196.23958,218.726563 196.828125,218.710938 C197.79688,218.695312 198.578122,219.02083 199.171875,219.6875 C199.765628,220.35417 200.0625,221.249994 200.0625,222.375 C200.0625,223.526047 199.774742,224.445309 199.199219,225.132812 C198.623695,225.820316 197.757818,226.164062 196.601562,226.164062 C195.664058,226.164062 194.882816,225.902346 194.257812,225.378906 C193.632809,224.855466 193.333333,224.080734 193.359375,223.054688 L193.375,223.007812 L194.210938,223.007812 C194.210938,223.773441 194.428383,224.359373 194.863281,224.765625 C195.298179,225.171877 195.877601,225.375 196.601562,225.375 C197.445317,225.375 198.076821,225.119794 198.496094,224.609375 C198.915367,224.098956 199.125,223.35938 199.125,222.390625 C199.125,221.541662 198.915367,220.86068 198.496094,220.347656 C198.076821,219.834633 197.489587,219.578125 196.734375,219.578125 C196.005205,219.578125 195.449221,219.694009 195.066406,219.925781 C194.683592,220.157553 194.406251,220.50781 194.234375,220.976562 L193.476562,220.851562 Z" fill="#757575"></path>
                <path d="M223.265625,226 L216.203125,226 L216.203125,225.28125 L219.929688,221.054688 C220.617191,220.278642 221.102863,219.628909 221.386719,219.105469 C221.670574,218.582029 221.8125,218.080732 221.8125,217.601562 C221.8125,216.893226 221.613283,216.325523 221.214844,215.898438 C220.816404,215.471352 220.252608,215.257812 219.523438,215.257812 C218.65885,215.257812 218.002606,215.497393 217.554688,215.976562 C217.106769,216.455732 216.882812,217.09635 216.882812,217.898438 L216.015625,217.898438 L216,217.851562 C215.973958,216.903641 216.281247,216.101566 216.921875,215.445312 C217.562503,214.789059 218.429682,214.460938 219.523438,214.460938 C220.502609,214.460938 221.286455,214.742185 221.875,215.304688 C222.463545,215.86719 222.757812,216.622391 222.757812,217.570312 C222.757812,218.195316 222.5612,218.829424 222.167969,219.472656 C221.774738,220.115889 221.226566,220.833329 220.523438,221.625 L217.390625,225.171875 L217.40625,225.210938 L223.265625,225.210938 L223.265625,226 Z M229.054688,214.460938 C229.445314,214.460938 229.830727,214.505208 230.210938,214.59375 C230.591148,214.682292 230.929686,214.809895 231.226562,214.976562 L230.984375,215.742188 C230.687499,215.57552 230.393231,215.453125 230.101562,215.375 C229.809894,215.296875 229.46094,215.257812 229.054688,215.257812 C228.210933,215.257812 227.511722,215.585934 226.957031,216.242188 C226.402341,216.898441 226.125,217.760411 226.125,218.828125 L226.125,219.835938 C226.437502,219.429685 226.835935,219.104168 227.320312,218.859375 C227.80469,218.614582 228.341143,218.492188 228.929688,218.492188 C229.950526,218.492188 230.75781,218.843746 231.351562,219.546875 C231.945315,220.250004 232.242188,221.166661 232.242188,222.296875 C232.242188,223.416672 231.92318,224.341142 231.285156,225.070312 C230.647132,225.799483 229.817713,226.164062 228.796875,226.164062 C227.749995,226.164062 226.886722,225.773441 226.207031,224.992188 C225.52734,224.210934 225.1875,223.140632 225.1875,221.78125 L225.1875,218.914062 C225.1875,217.601556 225.559892,216.531254 226.304688,215.703125 C227.049483,214.874996 227.96614,214.460938 229.054688,214.460938 Z M228.742188,219.257812 C228.111976,219.257812 227.5612,219.421873 227.089844,219.75 C226.618487,220.078127 226.296876,220.499997 226.125,221.015625 L226.125,221.851562 C226.125,222.94011 226.374998,223.799476 226.875,224.429688 C227.375002,225.059899 228.015621,225.375 228.796875,225.375 C229.557295,225.375 230.165362,225.076826 230.621094,224.480469 C231.076825,223.884112 231.304688,223.156254 231.304688,222.296875 C231.304688,221.385412 231.083336,220.651044 230.640625,220.09375 C230.197914,219.536456 229.565108,219.257812 228.742188,219.257812 Z" fill="#757575"></path>
                <path d="M31.265625,258 L24.203125,258 L24.203125,257.28125 L27.9296875,253.054688 C28.6171909,252.278642 29.1028632,251.628909 29.3867188,251.105469 C29.6705743,250.582029 29.8125,250.080732 29.8125,249.601562 C29.8125,248.893226 29.6132832,248.325523 29.2148438,247.898438 C28.8164043,247.471352 28.2526078,247.257812 27.5234375,247.257812 C26.6588498,247.257812 26.0026064,247.497393 25.5546875,247.976562 C25.1067686,248.455732 24.8828125,249.09635 24.8828125,249.898438 L24.015625,249.898438 L24,249.851562 C23.9739582,248.903641 24.2812468,248.101566 24.921875,247.445312 C25.5625032,246.789059 26.429682,246.460938 27.5234375,246.460938 C28.5026091,246.460938 29.2864554,246.742185 29.875,247.304688 C30.4635446,247.86719 30.7578125,248.622391 30.7578125,249.570312 C30.7578125,250.195316 30.5611999,250.829424 30.1679688,251.472656 C29.7747376,252.115889 29.226566,252.833329 28.5234375,253.625 L25.390625,257.171875 L25.40625,257.210938 L31.265625,257.210938 L31.265625,258 Z M40.0625,247.421875 C38.8333272,248.880216 37.8932324,250.36067 37.2421875,251.863281 C36.5911426,253.365893 36.1562511,255.09374 35.9375,257.046875 L35.8515625,258 L34.9140625,258 L35,257.046875 C35.2187511,255.119782 35.6718716,253.37631 36.359375,251.816406 C37.0468784,250.256503 37.9583277,248.791674 39.09375,247.421875 L32.6015625,247.421875 L32.6015625,246.625 L40.0625,246.625 L40.0625,247.421875 Z" fill="#757575"></path>
                <path d="M63.265625,258 L56.203125,258 L56.203125,257.28125 L59.9296875,253.054688 C60.6171909,252.278642 61.1028632,251.628909 61.3867188,251.105469 C61.6705743,250.582029 61.8125,250.080732 61.8125,249.601562 C61.8125,248.893226 61.6132832,248.325523 61.2148438,247.898438 C60.8164043,247.471352 60.2526078,247.257812 59.5234375,247.257812 C58.6588498,247.257812 58.0026064,247.497393 57.5546875,247.976562 C57.1067686,248.455732 56.8828125,249.09635 56.8828125,249.898438 L56.015625,249.898438 L56,249.851562 C55.9739582,248.903641 56.2812468,248.101566 56.921875,247.445312 C57.5625032,246.789059 58.429682,246.460938 59.5234375,246.460938 C60.5026091,246.460938 61.2864554,246.742185 61.875,247.304688 C62.4635446,247.86719 62.7578125,248.622391 62.7578125,249.570312 C62.7578125,250.195316 62.5611999,250.829424 62.1679688,251.472656 C61.7747376,252.115889 61.226566,252.833329 60.5234375,253.625 L57.390625,257.171875 L57.40625,257.210938 L63.265625,257.210938 L63.265625,258 Z M71.78125,249.554688 C71.78125,250.169274 71.6015643,250.707029 71.2421875,251.167969 C70.8828107,251.628909 70.4036488,251.963541 69.8046875,252.171875 C70.4973993,252.385418 71.0533833,252.740883 71.4726562,253.238281 C71.8919292,253.73568 72.1015625,254.317705 72.1015625,254.984375 C72.1015625,256.005213 71.7604201,256.790362 71.078125,257.339844 C70.3958299,257.889326 69.5182345,258.164062 68.4453125,258.164062 C67.351557,258.164062 66.4674513,257.890628 65.7929688,257.34375 C65.1184862,256.796872 64.78125,256.010422 64.78125,254.984375 C64.78125,254.312497 64.9869771,253.727867 65.3984375,253.230469 C65.8098979,252.73307 66.3619757,252.377605 67.0546875,252.164062 C66.4557262,251.955728 65.9804705,251.622398 65.6289062,251.164062 C65.277342,250.705727 65.1015625,250.169274 65.1015625,249.554688 C65.1015625,248.575516 65.4101532,247.815107 66.0273438,247.273438 C66.6445343,246.731768 67.4453076,246.460938 68.4296875,246.460938 C69.4088591,246.460938 70.2122364,246.73307 70.8398438,247.277344 C71.4674511,247.821617 71.78125,248.580724 71.78125,249.554688 Z M71.1640625,254.992188 C71.1640625,254.273434 70.9036484,253.688804 70.3828125,253.238281 C69.8619766,252.787758 69.2109414,252.5625 68.4296875,252.5625 C67.6380169,252.5625 66.9869817,252.787758 66.4765625,253.238281 C65.9661433,253.688804 65.7109375,254.273434 65.7109375,254.992188 C65.7109375,255.736983 65.9635391,256.32031 66.46875,256.742188 C66.9739609,257.164065 67.6328084,257.375 68.4453125,257.375 C69.2369831,257.375 69.8880183,257.162763 70.3984375,256.738281 C70.9088567,256.3138 71.1640625,255.731775 71.1640625,254.992188 Z M70.84375,249.546875 C70.84375,248.890622 70.6132836,248.345054 70.1523438,247.910156 C69.6914039,247.475258 69.1171909,247.257812 68.4296875,247.257812 C67.726559,247.257812 67.1510439,247.466144 66.703125,247.882812 C66.2552061,248.299481 66.03125,248.854163 66.03125,249.546875 C66.03125,250.218753 66.2565082,250.756508 66.7070312,251.160156 C67.1575543,251.563804 67.7369756,251.765625 68.4453125,251.765625 C69.1380243,251.765625 69.7109352,251.563804 70.1640625,251.160156 C70.6171898,250.756508 70.84375,250.218753 70.84375,249.546875 Z" fill="#757575"></path>
                <path d="M95.265625,258 L88.203125,258 L88.203125,257.28125 L91.9296875,253.054688 C92.6171909,252.278642 93.1028632,251.628909 93.3867188,251.105469 C93.6705743,250.582029 93.8125,250.080732 93.8125,249.601562 C93.8125,248.893226 93.6132832,248.325523 93.2148438,247.898438 C92.8164043,247.471352 92.2526078,247.257812 91.5234375,247.257812 C90.6588498,247.257812 90.0026064,247.497393 89.5546875,247.976562 C89.1067686,248.455732 88.8828125,249.09635 88.8828125,249.898438 L88.015625,249.898438 L88,249.851562 C87.9739582,248.903641 88.2812468,248.101566 88.921875,247.445312 C89.5625032,246.789059 90.429682,246.460938 91.5234375,246.460938 C92.5026091,246.460938 93.2864554,246.742185 93.875,247.304688 C94.4635446,247.86719 94.7578125,248.622391 94.7578125,249.570312 C94.7578125,250.195316 94.5611999,250.829424 94.1679688,251.472656 C93.7747376,252.115889 93.226566,252.833329 92.5234375,253.625 L89.390625,257.171875 L89.40625,257.210938 L95.265625,257.210938 L95.265625,258 Z M99.9921875,257.375 C100.856775,257.375 101.544268,257.08594 102.054688,256.507812 C102.565107,255.929685 102.820312,255.101568 102.820312,254.023438 L102.820312,252.882812 C102.544269,253.361982 102.173179,253.73177 101.707031,253.992188 C101.240883,254.252605 100.721357,254.382812 100.148438,254.382812 C99.111974,254.382812 98.2773469,254.023441 97.6445312,253.304688 C97.0117156,252.585934 96.6953125,251.656256 96.6953125,250.515625 C96.6953125,249.364578 97.0273404,248.401046 97.6914062,247.625 C98.3554721,246.848954 99.1770784,246.460938 100.15625,246.460938 C101.255214,246.460938 102.135413,246.819007 102.796875,247.535156 C103.458337,248.251306 103.789062,249.29166 103.789062,250.65625 L103.789062,254.007812 C103.789062,255.325527 103.440108,256.347653 102.742188,257.074219 C102.044267,257.800785 101.12761,258.164062 99.9921875,258.164062 C99.5859355,258.164062 99.1783875,258.125 98.7695312,258.046875 C98.360675,257.96875 97.971356,257.848959 97.6015625,257.6875 L97.7734375,256.90625 C98.1276059,257.072918 98.4778629,257.192708 98.8242188,257.265625 C99.1705746,257.338542 99.5598937,257.375 99.9921875,257.375 Z M100.148438,253.59375 C100.825524,253.59375 101.391925,253.420575 101.847656,253.074219 C102.303388,252.727863 102.627603,252.299482 102.820312,251.789062 L102.820312,250.585938 C102.820312,249.507807 102.584638,248.683597 102.113281,248.113281 C101.641925,247.542966 101.002608,247.257812 100.195312,247.257812 C99.4609338,247.257812 98.8554711,247.575518 98.3789062,248.210938 C97.9023414,248.846357 97.6640625,249.614579 97.6640625,250.515625 C97.6640625,251.390629 97.8880186,252.122393 98.3359375,252.710938 C98.7838564,253.299482 99.388017,253.59375 100.148438,253.59375 Z" fill="#757575"></path>
                <path d="M122.050781,251.804688 L123.136719,251.804688 C123.964848,251.804688 124.592446,251.597658 125.019531,251.183594 C125.446617,250.769529 125.660156,250.236982 125.660156,249.585938 C125.660156,248.877601 125.459637,248.312502 125.058594,247.890625 C124.65755,247.468748 124.061202,247.257812 123.269531,247.257812 C122.540361,247.257812 121.942711,247.472654 121.476562,247.902344 C121.010414,248.332033 120.777344,248.898434 120.777344,249.601562 L119.902344,249.601562 L119.886719,249.554688 C119.860677,248.669266 120.17057,247.932295 120.816406,247.34375 C121.462243,246.755205 122.279943,246.460938 123.269531,246.460938 C124.285161,246.460938 125.093747,246.739581 125.695312,247.296875 C126.296878,247.854169 126.597656,248.627599 126.597656,249.617188 C126.597656,250.153649 126.430991,250.65755 126.097656,251.128906 C125.764321,251.600263 125.295576,251.95052 124.691406,252.179688 C125.399743,252.382814 125.929686,252.725258 126.28125,253.207031 C126.632814,253.688804 126.808594,254.257809 126.808594,254.914062 C126.808594,255.924484 126.481774,256.718747 125.828125,257.296875 C125.174476,257.875003 124.334641,258.164062 123.308594,258.164062 C122.313797,258.164062 121.459639,257.881513 120.746094,257.316406 C120.032549,256.751299 119.688802,255.966151 119.714844,254.960938 L119.730469,254.914062 L120.605469,254.914062 C120.605469,255.638024 120.856768,256.229164 121.359375,256.6875 C121.861982,257.145836 122.511715,257.375 123.308594,257.375 C124.115889,257.375 124.746091,257.165367 125.199219,256.746094 C125.652346,256.326821 125.878906,255.726566 125.878906,254.945312 C125.878906,254.148434 125.641929,253.558596 125.167969,253.175781 C124.694008,252.792967 124.016931,252.601562 123.136719,252.601562 L122.050781,252.601562 L122.050781,251.804688 Z M136.042969,253.585938 C136.042969,255.054695 135.725264,256.184892 135.089844,256.976562 C134.454424,257.768233 133.57162,258.164062 132.441406,258.164062 C131.316401,258.164062 130.432295,257.766931 129.789062,256.972656 C129.14583,256.178381 128.824219,255.049486 128.824219,253.585938 L128.824219,251.046875 C128.824219,249.583326 129.141924,248.453129 129.777344,247.65625 C130.412764,246.859371 131.295567,246.460938 132.425781,246.460938 C133.555995,246.460938 134.441403,246.859371 135.082031,247.65625 C135.722659,248.453129 136.042969,249.583326 136.042969,251.046875 L136.042969,253.585938 Z M135.105469,250.890625 C135.105469,249.723952 134.876304,248.826826 134.417969,248.199219 C133.959633,247.571611 133.295577,247.257812 132.425781,247.257812 C131.555985,247.257812 130.894534,247.571611 130.441406,248.199219 C129.988279,248.826826 129.761719,249.723952 129.761719,250.890625 L129.761719,253.726562 C129.761719,254.882818 129.992185,255.779945 130.453125,256.417969 C130.914065,257.055993 131.576819,257.375 132.441406,257.375 C133.305994,257.375 133.966144,257.057295 134.421875,256.421875 C134.877606,255.786455 135.105469,254.888027 135.105469,253.726562 L135.105469,250.890625 Z" fill="#757575"></path>
                <path d="M154.28125,251.804688 L155.367188,251.804688 C156.195317,251.804688 156.822915,251.597658 157.25,251.183594 C157.677085,250.769529 157.890625,250.236982 157.890625,249.585938 C157.890625,248.877601 157.690106,248.312502 157.289062,247.890625 C156.888019,247.468748 156.291671,247.257812 155.5,247.257812 C154.77083,247.257812 154.173179,247.472654 153.707031,247.902344 C153.240883,248.332033 153.007812,248.898434 153.007812,249.601562 L152.132812,249.601562 L152.117188,249.554688 C152.091146,248.669266 152.401038,247.932295 153.046875,247.34375 C153.692712,246.755205 154.510412,246.460938 155.5,246.460938 C156.51563,246.460938 157.324216,246.739581 157.925781,247.296875 C158.527347,247.854169 158.828125,248.627599 158.828125,249.617188 C158.828125,250.153649 158.66146,250.65755 158.328125,251.128906 C157.99479,251.600263 157.526045,251.95052 156.921875,252.179688 C157.630212,252.382814 158.160154,252.725258 158.511719,253.207031 C158.863283,253.688804 159.039062,254.257809 159.039062,254.914062 C159.039062,255.924484 158.712243,256.718747 158.058594,257.296875 C157.404945,257.875003 156.565109,258.164062 155.539062,258.164062 C154.544266,258.164062 153.690108,257.881513 152.976562,257.316406 C152.263017,256.751299 151.919271,255.966151 151.945312,254.960938 L151.960938,254.914062 L152.835938,254.914062 C152.835938,255.638024 153.087237,256.229164 153.589844,256.6875 C154.09245,257.145836 154.742184,257.375 155.539062,257.375 C156.346358,257.375 156.97656,257.165367 157.429688,256.746094 C157.882815,256.326821 158.109375,255.726566 158.109375,254.945312 C158.109375,254.148434 157.872398,253.558596 157.398438,253.175781 C156.924477,252.792967 156.2474,252.601562 155.367188,252.601562 L154.28125,252.601562 L154.28125,251.804688 Z M165.296875,258.054688 L164.359375,258.054688 L164.359375,247.601562 L161.46875,247.9375 L161.46875,247.28125 L165.296875,246.59375 L165.296875,258.054688 Z" fill="#757575"></path>
                <polygon fill="#BDBDBD" points="192.863281 258.054688 191.925781 258.054688 191.925781 247.601562 189.035156 247.9375 189.035156 247.28125 192.863281 246.59375"></polygon>
                <path d="M227.699219,258 L220.636719,258 L220.636719,257.28125 L224.363281,253.054688 C225.050785,252.278642 225.536457,251.628909 225.820312,251.105469 C226.104168,250.582029 226.246094,250.080732 226.246094,249.601562 C226.246094,248.893226 226.046877,248.325523 225.648437,247.898438 C225.249998,247.471352 224.686202,247.257812 223.957031,247.257812 C223.092444,247.257812 222.4362,247.497393 221.988281,247.976562 C221.540362,248.455732 221.316406,249.09635 221.316406,249.898438 L220.449219,249.898438 L220.433594,249.851562 C220.407552,248.903641 220.71484,248.101566 221.355469,247.445312 C221.996097,246.789059 222.863276,246.460938 223.957031,246.460938 C224.936203,246.460938 225.720049,246.742185 226.308594,247.304688 C226.897138,247.86719 227.191406,248.622391 227.191406,249.570312 C227.191406,250.195316 226.994794,250.829424 226.601562,251.472656 C226.208331,252.115889 225.66016,252.833329 224.957031,253.625 L221.824219,257.171875 L221.839844,257.210938 L227.699219,257.210938 L227.699219,258 Z" fill="#BDBDBD"></path>
                <polygon fill="#424242" points="59.7851562 74.625 63.9648438 84.640625 64.0117188 84.640625 68.2070312 74.625 69.4414062 74.625 69.4414062 86 68.5117188 86 68.5117188 80.9765625 68.5898438 76 68.5429688 75.984375 64.3164062 86 63.6679688 86 59.4492188 76.03125 59.4023438 76.0390625 59.4882812 80.9765625 59.4882812 86 58.5585938 86 58.5585938 74.625"></polygon>
                <polygon fill="#424242" points="100.378906 75.421875 96.4648438 75.421875 96.4648438 86 95.5273438 86 95.5273438 75.421875 91.6132813 75.421875 91.6132813 74.625 100.378906 74.625"></polygon>
                <polygon fill="#424242" points="124.3125 82.78125 124.65625 84.5234375 124.703125 84.53125 125.132812 82.78125 127.539062 74.625 128.421875 74.625 130.828125 82.78125 131.242188 84.5390625 131.289062 84.53125 131.65625 82.78125 133.710938 74.625 134.664062 74.625 131.742188 86 130.859375 86 128.304688 77.2734375 128.007812 76.078125 127.960938 76.078125 127.671875 77.2734375 125.09375 86 124.203125 86 121.28125 74.625 122.242188 74.625"></polygon>
                <polygon fill="#424242" points="164.378906 75.421875 160.464844 75.421875 160.464844 86 159.527344 86 159.527344 75.421875 155.613281 75.421875 155.613281 74.625 164.378906 74.625"></polygon>
                <polygon fill="#424242" points="195.339844 80.671875 189.808594 80.671875 189.808594 86 188.878906 86 188.878906 74.625 196.136719 74.625 196.136719 75.421875 189.808594 75.421875 189.808594 79.8671875 195.339844 79.8671875"></polygon>
                <path d="M227.191406,83.2109375 C227.191406,82.5911427 226.959638,82.0846374 226.496094,81.6914062 C226.03255,81.2981751 225.225266,80.9505223 224.074219,80.6484375 C222.829421,80.3359359 221.886722,79.92969 221.246094,79.4296875 C220.605465,78.929685 220.285156,78.2552126 220.285156,77.40625 C220.285156,76.536454 220.643226,75.8281277 221.359375,75.28125 C222.075524,74.7343723 222.996088,74.4609375 224.121094,74.4609375 C225.292975,74.4609375 226.238278,74.7864551 226.957031,75.4375 C227.675785,76.0885449 228.02474,76.8828078 228.003906,77.8203125 L227.980469,77.8671875 L227.121094,77.8671875 C227.121094,77.106767 226.851565,76.4817733 226.3125,75.9921875 C225.773435,75.5026017 225.042973,75.2578125 224.121094,75.2578125 C223.209631,75.2578125 222.497398,75.4609355 221.984375,75.8671875 C221.471352,76.2734395 221.214844,76.7786428 221.214844,77.3828125 C221.214844,77.955732 221.45182,78.4335918 221.925781,78.8164062 C222.399742,79.1992207 223.217442,79.5364569 224.378906,79.828125 C225.602871,80.1406266 226.533851,80.5624973 227.171875,81.09375 C227.809899,81.6250027 228.128906,82.3255165 228.128906,83.1953125 C228.128906,84.101567 227.757816,84.822914 227.015625,85.359375 C226.273434,85.895836 225.326829,86.1640625 224.175781,86.1640625 C223.040359,86.1640625 222.049483,85.8789091 221.203125,85.3085938 C220.356767,84.7382784 219.946614,83.9062555 219.972656,82.8125 L219.988281,82.765625 L220.847656,82.765625 C220.847656,83.6510461 221.178382,84.3072895 221.839844,84.734375 C222.501305,85.1614605 223.279943,85.375 224.175781,85.375 C225.076827,85.375 225.804685,85.1770853 226.359375,84.78125 C226.914065,84.3854147 227.191406,83.8619824 227.191406,83.2109375 Z" fill="#424242"></path>
                <path d="M35.1914062,83.2109375 C35.1914062,82.5911427 34.9596377,82.0846374 34.4960937,81.6914062 C34.0325497,81.2981751 33.2252661,80.9505223 32.0742187,80.6484375 C30.8294208,80.3359359 29.8867219,79.92969 29.2460937,79.4296875 C28.6054655,78.929685 28.2851562,78.2552126 28.2851562,77.40625 C28.2851562,76.536454 28.6432255,75.8281277 29.3593749,75.28125 C30.0755244,74.7343723 30.9960881,74.4609375 32.1210937,74.4609375 C33.2929746,74.4609375 34.2382776,74.7864551 34.9570312,75.4375 C35.6757848,76.0885449 36.0247396,76.8828078 36.0039062,77.8203125 L35.9804687,77.8671875 L35.1210937,77.8671875 C35.1210937,77.106767 34.8515651,76.4817733 34.3125,75.9921875 C33.7734348,75.5026017 33.0429733,75.2578125 32.1210937,75.2578125 C31.2096308,75.2578125 30.4973983,75.4609355 29.9843749,75.8671875 C29.4713516,76.2734395 29.2148437,76.7786428 29.2148437,77.3828125 C29.2148437,77.955732 29.4518205,78.4335918 29.9257812,78.8164062 C30.3997419,79.1992207 31.2174421,79.5364569 32.3789062,79.828125 C33.6028707,80.1406266 34.5338509,80.5624973 35.171875,81.09375 C35.809899,81.6250027 36.1289062,82.3255165 36.1289062,83.1953125 C36.1289062,84.101567 35.7578162,84.822914 35.015625,85.359375 C34.2734337,85.895836 33.3268286,86.1640625 32.1757812,86.1640625 C31.0403589,86.1640625 30.0494833,85.8789091 29.2031249,85.3085938 C28.3567666,84.7382784 27.9466144,83.9062555 27.9726562,82.8125 L27.9882812,82.765625 L28.8476562,82.765625 C28.8476562,83.6510461 29.1783821,84.3072895 29.8398437,84.734375 C30.5013053,85.1614605 31.2799434,85.375 32.1757812,85.375 C33.0768274,85.375 33.8046847,85.1770853 34.359375,84.78125 C34.9140652,84.3854147 35.1914062,83.8619824 35.1914062,83.2109375 Z" fill="#424242"></path>
                <rect fill="#616161" x="220" y="0" width="36" height="64"></rect>
                <polygon fill="#FFFFFF" fill-rule="nonzero" transform="translate(238.000000, 31.840839) scale(-1, 1) rotate(90.000000) translate(-238.000000, -31.840839) " points="233.147407 28.0723093 232 29.1149521 237.967146 35.6816777 244 29.0426431 242.852592 28.0000002 237.967146 33.3763358"></polygon>
                <rect fill="#616161" x="0" y="0" width="36" height="64"></rect>
                <polygon fill="#FFFFFF" fill-rule="nonzero" transform="translate(18.000000, 31.840839) rotate(90.000000) translate(-18.000000, -31.840839) " points="13.1474078 28.0723093 12.0000002 29.1149521 17.9671468 35.6816777 24.0000002 29.0426431 22.8525927 28.0000002 17.9671468 33.3763358"></polygon>
                <rect fill="#9E9E9E" x="36" y="0" width="184" height="64"></rect>
                <path d="M77.4746094,23.7890625 L83.7441406,38.8125 L83.8144531,38.8125 L90.1074219,23.7890625 L91.9589844,23.7890625 L91.9589844,40.8515625 L90.5644531,40.8515625 L90.5644531,33.3164062 L90.6816406,25.8515625 L90.6113281,25.828125 L84.2714844,40.8515625 L83.2988281,40.8515625 L76.9707031,25.8984375 L76.9003906,25.9101562 L77.0292969,33.3164062 L77.0292969,40.8515625 L75.6347656,40.8515625 L75.6347656,23.7890625 L77.4746094,23.7890625 Z M105.810547,36.09375 L97.9941406,36.09375 L96.2363281,40.8515625 L94.7832031,40.8515625 L101.263672,23.7890625 L102.587891,23.7890625 L109.021484,40.8515625 L107.568359,40.8515625 L105.810547,36.09375 Z M98.4628906,34.8398438 L105.353516,34.8398438 L101.955078,25.6054688 L101.884766,25.6054688 L98.4628906,34.8398438 Z M115.560547,33.2695312 L120.845703,23.7890625 L122.474609,23.7890625 L116.251953,34.6171875 L116.251953,40.8515625 L114.857422,40.8515625 L114.857422,34.5351562 L108.681641,23.7890625 L110.310547,23.7890625 L115.560547,33.2695312 Z M140.908203,40.8515625 L130.314453,40.8515625 L130.314453,39.7734375 L135.904297,33.4335938 C136.935552,32.2695254 137.66406,31.2949258 138.089844,30.5097656 C138.515627,29.7246054 138.728516,28.9726598 138.728516,28.2539062 C138.728516,27.1914009 138.42969,26.339847 137.832031,25.6992188 C137.234372,25.0585905 136.388677,24.7382812 135.294922,24.7382812 C133.99804,24.7382812 133.013675,25.0976527 132.341797,25.8164062 C131.669919,26.5351598 131.333984,27.4960877 131.333984,28.6992188 L130.033203,28.6992188 L130.009766,28.6289062 C129.970703,27.2070241 130.431636,26.0039112 131.392578,25.0195312 C132.35352,24.0351513 133.654289,23.5429688 135.294922,23.5429688 C136.763679,23.5429688 137.939449,23.9648395 138.822266,24.8085938 C139.705083,25.652348 140.146484,26.7851491 140.146484,28.2070312 C140.146484,29.1445359 139.851565,30.0956983 139.261719,31.0605469 C138.671872,32.0253954 137.849615,33.1015566 136.794922,34.2890625 L132.095703,39.609375 L132.119141,39.6679688 L140.908203,39.6679688 L140.908203,40.8515625 Z M154.419922,34.2304688 C154.419922,36.4336048 153.943364,38.1289003 152.990234,39.3164062 C152.037105,40.5039122 150.712899,41.0976562 149.017578,41.0976562 C147.33007,41.0976562 146.003911,40.5019591 145.039062,39.3105469 C144.074214,38.1191347 143.591797,36.4257922 143.591797,34.2304688 L143.591797,30.421875 C143.591797,28.2265515 144.068355,26.531256 145.021484,25.3359375 C145.974614,24.140619 147.29882,23.5429688 148.994141,23.5429688 C150.689462,23.5429688 152.017573,24.140619 152.978516,25.3359375 C153.939458,26.531256 154.419922,28.2265515 154.419922,30.421875 L154.419922,34.2304688 Z M153.013672,30.1875 C153.013672,28.4374913 152.669925,27.0918016 151.982422,26.1503906 C151.294918,25.2089797 150.298835,24.7382812 148.994141,24.7382812 C147.689447,24.7382812 146.697269,25.2089797 146.017578,26.1503906 C145.337887,27.0918016 144.998047,28.4374913 144.998047,30.1875 L144.998047,34.4414062 C144.998047,36.1757899 145.343747,37.5214796 146.035156,38.4785156 C146.726566,39.4355517 147.720697,39.9140625 149.017578,39.9140625 C150.31446,39.9140625 151.304684,39.4375048 151.988281,38.484375 C152.671878,37.5312452 153.013672,36.1836025 153.013672,34.4414062 L153.013672,30.1875 Z M163.947266,40.9335938 L162.541016,40.9335938 L162.541016,25.2539062 L158.205078,25.7578125 L158.205078,24.7734375 L163.947266,23.7421875 L163.947266,40.9335938 Z M181.396484,24.984375 C179.552725,27.1718859 178.142583,29.3925669 177.166016,31.6464844 C176.189448,33.9004019 175.537111,36.4921729 175.208984,39.421875 L175.080078,40.8515625 L173.673828,40.8515625 L173.802734,39.421875 C174.130861,36.5312355 174.810542,33.9160273 175.841797,31.5761719 C176.873052,29.2363164 178.240226,27.0390728 179.943359,24.984375 L170.205078,24.984375 L170.205078,23.7890625 L181.396484,23.7890625 L181.396484,24.984375 Z" fill="#FFFFFF"></path>
            </g>
            <g transform="translate(183.000000, 44.000000)">
                <g transform="translate(1.000000, 1.000000)" fill="#000000" fill-rule="nonzero">
                    <path d="M3.876071,9.9999999 L2.980092,8.645328 C2.368309,7.7203456 1.065171,7.3828775 0.06839,7.8899647 L0.300648,7.7718095 C0.053276,7.8976533 -0.065341,8.2113864 0.03651,8.4721449 L1.276748,11.6474127 C1.473361,12.1507837 1.97551,12.8626936 2.391615,13.2203156 C2.391615,13.2203156 4.886636,15.2638557 4.886636,16.03003 L4.886636,16.9999999 L8.928895,16.9999999 L9.93946,14.9999999 L10.950024,16.9999999 L11.960589,17 L11.960589,16.0300301 C11.960589,15.2638558 13.485371,12.8506759 13.485371,12.8506759 C13.766054,12.3815967 14,11.5552351 14,11.0065898 L14,6.9718022 C13.981719,6.0784983 13.214363,5.3545388 12.267511,5.3545388 C11.793828,5.3545388 11.41015,5.7165185 11.41015,6.1634131 L11.41015,6.4865746 C11.41015,5.5932707 10.642794,4.8693112 9.695943,4.8693112 C9.22226,4.8693112 8.838582,5.231291 8.838582,5.6781855 L8.838582,6.0013471 C8.838582,5.1080432 8.071226,4.3840837 7.124375,4.3840837 C6.650692,4.3840837 6.267014,4.7460634 6.267014,5.192958 L6.267014,5.5161195 C6.267014,5.3725559 6.251508,5.258431 6.221549,5.1679905 L5.960038,1.0012141 C5.924675,0.4377609 5.444755,0 4.886636,0 C4.324625,0 3.876071,0.4476291 3.876071,0.9998075 L3.876071,5 L3.876071,9.9999999 Z M10.968306,9.0000001 L11.97887,9 L11.97887,12.9999998 L10.968306,13 L10.968306,9.0000001 L10.968306,9.0000001 Z M8.947176,9.0000001 L9.957741,9 L9.957741,12.9999998 L8.947176,13 L8.947176,9.0000001 L8.947176,9.0000001 Z M6.926047,9.0000001 L7.936611,9 L7.936611,12.9999998 L6.926047,13 L6.926047,9.0000001 L6.926047,9.0000001 Z"></path>
                </g>
                <g transform="translate(1.000000, 1.000000)" fill="#FFFFFF">
                    <path d="M3.876071,9.9999999 L2.980092,8.645328 C2.368309,7.7203456 1.065171,7.3828775 0.06839,7.8899647 L0.300648,7.7718095 C0.053276,7.8976533 -0.065341,8.2113864 0.03651,8.4721449 L1.276748,11.6474127 C1.473361,12.1507837 1.97551,12.8626936 2.391615,13.2203156 C2.391615,13.2203156 4.886636,15.2638557 4.886636,16.03003 L4.886636,16.9999999 L8.928895,16.9999999 L9.93946,14.9999999 L10.950024,16.9999999 L11.960589,17 L11.960589,16.0300301 C11.960589,15.2638558 13.485371,12.8506759 13.485371,12.8506759 C13.766054,12.3815967 14,11.5552351 14,11.0065898 L14,6.9718022 C13.981719,6.0784983 13.214363,5.3545388 12.267511,5.3545388 C11.793828,5.3545388 11.41015,5.7165185 11.41015,6.1634131 L11.41015,6.4865746 C11.41015,5.5932707 10.642794,4.8693112 9.695943,4.8693112 C9.22226,4.8693112 8.838582,5.231291 8.838582,5.6781855 L8.838582,6.0013471 C8.838582,5.1080432 8.071226,4.3840837 7.124375,4.3840837 C6.650692,4.3840837 6.267014,4.7460634 6.267014,5.192958 L6.267014,5.5161195 C6.267014,5.3725559 6.251508,5.258431 6.221549,5.1679905 L5.960038,1.0012141 C5.924675,0.4377609 5.444755,0 4.886636,0 C4.324625,0 3.876071,0.4476291 3.876071,0.9998075 L3.876071,5 L3.876071,9.9999999 Z M10.968306,9.0000001 L11.97887,9 L11.97887,12.9999998 L10.968306,13 L10.968306,9.0000001 L10.968306,9.0000001 Z M8.947176,9.0000001 L9.957741,9 L9.957741,12.9999998 L8.947176,13 L8.947176,9.0000001 L8.947176,9.0000001 Z M6.926047,9.0000001 L7.936611,9 L7.936611,12.9999998 L6.926047,13 L6.926047,9.0000001 L6.926047,9.0000001 Z"></path>
                </g>
                <path d="M0.857019,8.4744737 C0.89732,8.4385349 0.940686,8.4055332 0.986937,8.3759518 C1.014896,8.3580697 1.043909,8.3414375 1.073936,8.3261619 L1.527359,9.2174571 L1.295101,9.3356123 L0.841678,8.4443171 C0.889573,8.4199518 0.938016,8.3971694 0.986937,8.3759518 C1.017719,8.362601 1.04869,8.3498698 1.079833,8.3377535 C2.251125,7.8820496 3.664602,8.2962439 4.376071,9.3381688 L4.376071,6 L4.376071,1.9998075 C4.376071,1.1692498 5.050722,0.5 5.886636,0.5 C6.710934,0.5 7.407291,1.1450948 7.459056,1.9698952 L7.647179,4.9673474 C7.795973,4.9134709 7.956883,4.8840837 8.124375,4.8840837 C8.813809,4.8840837 9.432867,5.186258 9.839937,5.6621493 C10.074314,5.4786394 10.372886,5.3693112 10.695943,5.3693112 C11.385377,5.3693112 12.004435,5.6714856 12.411505,6.1473768 C12.645882,5.9638669 12.944455,5.8545388 13.267511,5.8545388 C14.478815,5.8545388 15.475885,6.7883421 15.5,7.9718022 L15.5,12.0065898 C15.5,12.6421943 15.243377,13.5576628 14.908062,14.117756 C14.862353,14.1900975 14.780951,14.3218484 14.675851,14.4969864 C14.500471,14.7892376 14.325127,15.0931759 14.161958,15.3924086 C14.088593,15.5269503 14.01928,15.6576902 13.954686,15.7836973 C13.644468,16.3888573 13.460589,16.8614472 13.460589,17.0300301 L13.460589,18.5000001 L11.642462,18.4999998 L10.93946,17.1086931 L10.236457,18.4999999 L5.386636,18.4999999 L5.386636,17.03003 C5.386636,16.9456567 5.128573,16.567889 4.698739,16.110252 C4.57434,15.977807 4.437581,15.8393202 4.290519,15.6962894 C4.02491,15.437962 3.739133,15.1775698 3.45323,14.9287692 C3.281828,14.7796106 3.149126,14.6680109 3.065714,14.5995107 C2.589618,14.1903288 2.038389,13.411452 1.811014,12.8293251 L0.570776,9.6540572 C0.408237,9.2379239 0.534455,8.7621233 0.857019,8.4744737 Z M12.47887,10.5 L12.978871,10.5 L12.47887,10 L12.47887,10.5 Z M12.47887,13.4999999 L12.47887,13.9999998 L12.97887,13.4999998 L12.47887,13.4999999 Z M12.468306,13.4999999 L11.968306,13.5 L12.468306,14 L12.468306,13.4999999 Z M12.468306,10.5 L12.468306,10.0000001 L11.968306,10.5000001 L12.468306,10.5 Z M12.468306,10.5 L12.47887,10.5 L12.47887,13.4999999 L12.468306,13.4999999 L12.468306,10.5 Z M10.457741,10.5 L10.957741,10.5 L10.457741,10 L10.457741,10.5 Z M10.457741,13.4999999 L10.457741,13.9999998 L10.957741,13.4999998 L10.457741,13.4999999 Z M10.447176,13.4999999 L9.947176,13.5 L10.447176,14 L10.447176,13.4999999 Z M10.447176,10.5 L10.447176,10.0000001 L9.947176,10.5000001 L10.447176,10.5 Z M10.447176,10.5 L10.457741,10.5 L10.457741,13.4999999 L10.447176,13.4999999 L10.447176,10.5 Z M8.436611,10.5 L8.936612,10.5 L8.436611,10 L8.436611,10.5 Z M8.436611,13.4999999 L8.436611,13.9999998 L8.936611,13.4999998 L8.436611,13.4999999 Z M8.426047,13.4999999 L7.926047,13.5 L8.426047,14 L8.426047,13.4999999 Z M8.426047,10.5 L8.426047,10.0000001 L7.926047,10.5000001 L8.426047,10.5 Z M8.426047,10.5 L8.436611,10.5 L8.436611,13.4999999 L8.426047,13.4999999 L8.426047,10.5 Z" stroke-opacity="0.8" stroke="#000000"></path>
            </g>
        </g>
    </g>
</svg>