<?xml version="1.0" encoding="UTF-8" standalone="no"?>
<svg width="262px" height="286px" viewBox="0 0 262 286" version="1.1" xmlns="http://www.w3.org/2000/svg" xmlns:xlink="http://www.w3.org/1999/xlink">
    <!-- Generator: Sketch 47.1 (45422) - http://www.bohemiancoding.com/sketch -->
    <title>date-picker-month-picker-3</title>
    <desc>Created with Sketch.</desc>
    <defs>
        <polygon id="path-1" points="0 280 256 280 256 0 0 0"></polygon>
        <filter x="-2.3%" y="-1.1%" width="104.7%" height="104.3%" filterUnits="objectBoundingBox" id="filter-2">
            <feOffset dx="0" dy="3" in="SourceAlpha" result="shadowOffsetOuter1"></feOffset>
            <feGaussianBlur stdDeviation="1.5" in="shadowOffsetOuter1" result="shadowBlurOuter1"></feGaussianBlur>
            <feColorMatrix values="0 0 0 0 0   0 0 0 0 0   0 0 0 0 0  0 0 0 0.16 0" type="matrix" in="shadowBlurOuter1"></feColorMatrix>
        </filter>
    </defs>
    <g stroke="none" stroke-width="1" fill="none" fill-rule="evenodd">
        <g transform="translate(3.000000, 0.000000)">
            <g>
                <g>
                    <g fill="#000000" fill-rule="nonzero">
                        <polygon points="0 280 256 280 256 0 0 0"></polygon>
                    </g>
                    <g>
                        <g>
                            <use fill="black" fill-opacity="1" filter="url(#filter-2)" xlink:href="#path-1"></use>
                            <use fill="#757575" fill-rule="evenodd" xlink:href="#path-1"></use>
                        </g>
                    </g>
                </g>
                <text fill="#FFFFFF" font-family="Roboto-Light, Roboto" font-size="16" font-weight="300">
                    <tspan x="81.4375" y="87">Select Month</tspan>
                </text>
                <rect fill="#616161" x="220" y="0" width="36" height="64"></rect>
                <polygon fill="#FFFFFF" fill-rule="nonzero" transform="translate(238.000000, 31.840839) scale(-1, 1) rotate(90.000000) translate(-238.000000, -31.840839) " points="233.147407 28.0723093 232 29.1149521 237.967146 35.6816777 244 29.0426431 242.852592 28.0000002 237.967146 33.3763358"></polygon>
                <rect fill="#616161" x="0" y="0" width="36" height="64"></rect>
                <polygon fill="#FFFFFF" fill-rule="nonzero" transform="translate(18.000000, 31.840839) rotate(90.000000) translate(-18.000000, -31.840839) " points="13.1474078 28.0723093 12.0000002 29.1149521 17.9671468 35.6816777 24.0000002 29.0426431 22.8525927 28.0000002 17.9671468 33.3763358"></polygon>
                <path d="M77.4746094,23.7890625 L83.7441406,38.8125 L83.8144531,38.8125 L90.1074219,23.7890625 L91.9589844,23.7890625 L91.9589844,40.8515625 L90.5644531,40.8515625 L90.5644531,33.3164062 L90.6816406,25.8515625 L90.6113281,25.828125 L84.2714844,40.8515625 L83.2988281,40.8515625 L76.9707031,25.8984375 L76.9003906,25.9101562 L77.0292969,33.3164062 L77.0292969,40.8515625 L75.6347656,40.8515625 L75.6347656,23.7890625 L77.4746094,23.7890625 Z M105.810547,36.09375 L97.9941406,36.09375 L96.2363281,40.8515625 L94.7832031,40.8515625 L101.263672,23.7890625 L102.587891,23.7890625 L109.021484,40.8515625 L107.568359,40.8515625 L105.810547,36.09375 Z M98.4628906,34.8398438 L105.353516,34.8398438 L101.955078,25.6054688 L101.884766,25.6054688 L98.4628906,34.8398438 Z M115.560547,33.2695312 L120.845703,23.7890625 L122.474609,23.7890625 L116.251953,34.6171875 L116.251953,40.8515625 L114.857422,40.8515625 L114.857422,34.5351562 L108.681641,23.7890625 L110.310547,23.7890625 L115.560547,33.2695312 Z M140.908203,40.8515625 L130.314453,40.8515625 L130.314453,39.7734375 L135.904297,33.4335938 C136.935552,32.2695254 137.66406,31.2949258 138.089844,30.5097656 C138.515627,29.7246054 138.728516,28.9726598 138.728516,28.2539062 C138.728516,27.1914009 138.42969,26.339847 137.832031,25.6992188 C137.234372,25.0585905 136.388677,24.7382812 135.294922,24.7382812 C133.99804,24.7382812 133.013675,25.0976527 132.341797,25.8164062 C131.669919,26.5351598 131.333984,27.4960877 131.333984,28.6992188 L130.033203,28.6992188 L130.009766,28.6289062 C129.970703,27.2070241 130.431636,26.0039112 131.392578,25.0195312 C132.35352,24.0351513 133.654289,23.5429688 135.294922,23.5429688 C136.763679,23.5429688 137.939449,23.9648395 138.822266,24.8085938 C139.705083,25.652348 140.146484,26.7851491 140.146484,28.2070312 C140.146484,29.1445359 139.851565,30.0956983 139.261719,31.0605469 C138.671872,32.0253954 137.849615,33.1015566 136.794922,34.2890625 L132.095703,39.609375 L132.119141,39.6679688 L140.908203,39.6679688 L140.908203,40.8515625 Z M154.419922,34.2304688 C154.419922,36.4336048 153.943364,38.1289003 152.990234,39.3164062 C152.037105,40.5039122 150.712899,41.0976562 149.017578,41.0976562 C147.33007,41.0976562 146.003911,40.5019591 145.039062,39.3105469 C144.074214,38.1191347 143.591797,36.4257922 143.591797,34.2304688 L143.591797,30.421875 C143.591797,28.2265515 144.068355,26.531256 145.021484,25.3359375 C145.974614,24.140619 147.29882,23.5429688 148.994141,23.5429688 C150.689462,23.5429688 152.017573,24.140619 152.978516,25.3359375 C153.939458,26.531256 154.419922,28.2265515 154.419922,30.421875 L154.419922,34.2304688 Z M153.013672,30.1875 C153.013672,28.4374913 152.669925,27.0918016 151.982422,26.1503906 C151.294918,25.2089797 150.298835,24.7382812 148.994141,24.7382812 C147.689447,24.7382812 146.697269,25.2089797 146.017578,26.1503906 C145.337887,27.0918016 144.998047,28.4374913 144.998047,30.1875 L144.998047,34.4414062 C144.998047,36.1757899 145.343747,37.5214796 146.035156,38.4785156 C146.726566,39.4355517 147.720697,39.9140625 149.017578,39.9140625 C150.31446,39.9140625 151.304684,39.4375048 151.988281,38.484375 C152.671878,37.5312452 153.013672,36.1836025 153.013672,34.4414062 L153.013672,30.1875 Z M163.947266,40.9335938 L162.541016,40.9335938 L162.541016,25.2539062 L158.205078,25.7578125 L158.205078,24.7734375 L163.947266,23.7421875 L163.947266,40.9335938 Z M181.396484,24.984375 C179.552725,27.1718859 178.142583,29.3925669 177.166016,31.6464844 C176.189448,33.9004019 175.537111,36.4921729 175.208984,39.421875 L175.080078,40.8515625 L173.673828,40.8515625 L173.802734,39.421875 C174.130861,36.5312355 174.810542,33.9160273 175.841797,31.5761719 C176.873052,29.2363164 178.240226,27.0390728 179.943359,24.984375 L170.205078,24.984375 L170.205078,23.7890625 L181.396484,23.7890625 L181.396484,24.984375 Z" fill="#FFFFFF"></path>
                <text fill="#FFFFFF" font-family="Roboto-Light, Roboto" font-size="16" font-weight="300">
                    <tspan x="187.511719" y="255">DEC</tspan>
                </text>
                <text fill="#FFFFFF" font-family="Roboto-Light, Roboto" font-size="16" font-weight="300">
                    <tspan x="111.589844" y="255">NOV</tspan>
                </text>
                <text fill="#FFFFFF" font-family="Roboto-Light, Roboto" font-size="16" font-weight="300">
                    <tspan x="38.3632812" y="255">OCT</tspan>
                </text>
                <text fill="#FFFFFF" font-family="Roboto-Light, Roboto" font-size="16" font-weight="300">
                    <tspan x="188.132812" y="215">SEP</tspan>
                </text>
                <text fill="#FFFFFF" font-family="Roboto-Light, Roboto" font-size="16" font-weight="300">
                    <tspan x="111.730469" y="215">AUG</tspan>
                </text>
                <rect fill="#616161" x="16" y="188" width="75" height="40"></rect>
                <text fill="#FFFFFF" font-family="Roboto-Light, Roboto" font-size="16" font-weight="300">
                    <tspan x="39.515625" y="215">JUL</tspan>
                </text>
                <text fill="#FFFFFF" font-family="Roboto-Light, Roboto" font-size="16" font-weight="300">
                    <tspan x="187.050781" y="175">JUN</tspan>
                </text>
                <rect fill="#BDBDBD" x="90" y="148" width="75" height="40"></rect>
                <text fill="#212121" font-family="Roboto-Light, Roboto" font-size="16" font-weight="300">
                    <tspan x="111.007813" y="175">MAY</tspan>
                </text>
                <text fill="#FFFFFF" font-family="Roboto-Light, Roboto" font-size="16" font-weight="300">
                    <tspan x="38.2890625" y="175">APR</tspan>
                </text>
                <text fill="#FFFFFF" font-family="Roboto-Light, Roboto" font-size="16" font-weight="300">
                    <tspan x="185.234375" y="135">MAR</tspan>
                </text>
                <text fill="#FFFFFF" font-family="Roboto-Light, Roboto" font-size="16" font-weight="300">
                    <tspan x="113.320312" y="135">FEB</tspan>
                </text>
                <text fill="#FFFFFF" font-family="Roboto-Light, Roboto" font-size="16" font-weight="300">
                    <tspan x="38.5078125" y="135">JAN</tspan>
                </text>
            </g>
            <g transform="translate(58.000000, 220.000000)">
                <g transform="translate(1.000000, 1.000000)" fill="#000000" fill-rule="nonzero">
                    <path d="M3.876071,10 L2.9800918,8.645328 C2.368309,7.720346 1.0651715,7.382878 0.0683896,7.889965 L0.3006475,7.771809 C0.0532761,7.897653 -0.0653405,8.211386 0.0365099,8.472145 L1.2767476,11.647413 C1.4733608,12.150784 1.9755102,12.862694 2.3916145,13.220316 C2.3916145,13.220316 4.8866358,15.263856 4.8866358,16.03003 L4.8866358,17 L8.9288948,17 L9.9394596,15 L10.9500244,17 L11.9605891,17 L11.9605891,16.03003 C11.9605891,15.263856 13.4853705,12.850676 13.4853705,12.850676 C13.7660536,12.381597 14,11.555235 14,11.00659 L14,6.971802 C13.9817185,6.078498 13.2143626,5.354539 12.2675112,5.354539 C11.7938283,5.354539 11.4101503,5.716519 11.4101503,6.163413 L11.4101503,6.486575 C11.4101503,5.593271 10.6427944,4.869311 9.6959429,4.869311 C9.2222601,4.869311 8.8385821,5.231291 8.8385821,5.678186 L8.8385821,6.001347 C8.8385821,5.108043 8.0712261,4.384084 7.1243747,4.384084 C6.6506919,4.384084 6.2670139,4.746063 6.2670139,5.192958 L6.2670139,5.51612 C6.2670139,5.372556 6.2515075,5.258431 6.2215486,5.16799 L5.9600377,1.001214 C5.9246748,0.437761 5.4447552,0 4.8866357,0 C4.3246251,0 3.876071,0.447629 3.876071,0.999807 L3.876071,5 L3.876071,10 Z M10.9683057,9 L11.9788705,9 L11.9788705,13 L10.9683057,13 L10.9683057,9 L10.9683057,9 Z M8.9471762,9 L9.957741,9 L9.957741,13 L8.9471762,13 L8.9471762,9 L8.9471762,9 Z M6.9260467,9 L7.9366114,9 L7.9366114,13 L6.9260467,13 L6.9260467,9 L6.9260467,9 Z"></path>
                </g>
                <g transform="translate(1.000000, 1.000000)" fill="#FFFFFF">
                    <path d="M3.876071,10 L2.9800918,8.645328 C2.368309,7.720346 1.0651715,7.382878 0.0683896,7.889965 L0.3006475,7.771809 C0.0532761,7.897653 -0.0653405,8.211386 0.0365099,8.472145 L1.2767476,11.647413 C1.4733608,12.150784 1.9755102,12.862694 2.3916145,13.220316 C2.3916145,13.220316 4.8866358,15.263856 4.8866358,16.03003 L4.8866358,17 L8.9288948,17 L9.9394596,15 L10.9500244,17 L11.9605891,17 L11.9605891,16.03003 C11.9605891,15.263856 13.4853705,12.850676 13.4853705,12.850676 C13.7660536,12.381597 14,11.555235 14,11.00659 L14,6.971802 C13.9817185,6.078498 13.2143626,5.354539 12.2675112,5.354539 C11.7938283,5.354539 11.4101503,5.716519 11.4101503,6.163413 L11.4101503,6.486575 C11.4101503,5.593271 10.6427944,4.869311 9.6959429,4.869311 C9.2222601,4.869311 8.8385821,5.231291 8.8385821,5.678186 L8.8385821,6.001347 C8.8385821,5.108043 8.0712261,4.384084 7.1243747,4.384084 C6.6506919,4.384084 6.2670139,4.746063 6.2670139,5.192958 L6.2670139,5.51612 C6.2670139,5.372556 6.2515075,5.258431 6.2215486,5.16799 L5.9600377,1.001214 C5.9246748,0.437761 5.4447552,0 4.8866357,0 C4.3246251,0 3.876071,0.447629 3.876071,0.999807 L3.876071,5 L3.876071,10 Z M10.9683057,9 L11.9788705,9 L11.9788705,13 L10.9683057,13 L10.9683057,9 L10.9683057,9 Z M8.9471762,9 L9.957741,9 L9.957741,13 L8.9471762,13 L8.9471762,9 L8.9471762,9 Z M6.9260467,9 L7.9366114,9 L7.9366114,13 L6.9260467,13 L6.9260467,9 L6.9260467,9 Z"></path>
                </g>
                <path d="M0.8570192,8.474474 C0.8973202,8.438535 0.9406862,8.405533 0.9869369,8.375952 C1.0148956,8.35807 1.0439085,8.341437 1.0739357,8.326162 L1.5273593,9.217457 L1.2951014,9.335612 L0.8416778,8.444317 C0.8895728,8.419952 0.9380162,8.397169 0.9869369,8.375952 C1.0177191,8.362601 1.0486903,8.34987 1.0798327,8.337754 C2.2511249,7.88205 3.6646015,8.296244 4.376071,9.338169 L4.376071,6 L4.376071,1.999807 C4.376071,1.16925 5.0507223,0.5 5.8866357,0.5 C6.7109341,0.5 7.4072905,1.145095 7.4590558,1.969895 L7.6471789,4.967347 C7.7959734,4.913471 7.9568835,4.884084 8.1243747,4.884084 C8.8138091,4.884084 9.4328666,5.186258 9.8399365,5.662149 C10.0743137,5.478639 10.3728864,5.369311 10.6959429,5.369311 C11.3853773,5.369311 12.0044348,5.671486 12.4115047,6.147377 C12.6458819,5.963867 12.9444546,5.854539 13.2675112,5.854539 C14.478815,5.854539 15.4758852,6.788342 15.5,7.971802 L15.5,12.00659 C15.5,12.642194 15.2433772,13.557663 14.9080622,14.117756 C14.8623527,14.190098 14.7809513,14.321848 14.6758508,14.496986 C14.5004706,14.789238 14.3251268,15.093176 14.1619576,15.392409 C14.0885932,15.52695 14.0192804,15.65769 13.9546864,15.783697 C13.6444682,16.388857 13.4605891,16.861447 13.4605891,17.03003 L13.4605891,18.5 L11.6424624,18.5 L10.9394596,17.108693 L10.2364568,18.5 L5.3866358,18.5 L5.3866358,17.03003 C5.3866358,16.945657 5.1285729,16.567889 4.6987387,16.110252 C4.5743402,15.977807 4.4375808,15.83932 4.2905186,15.696289 C4.0249103,15.437962 3.739133,15.17757 3.4532301,14.928769 C3.2818281,14.779611 3.1491264,14.668011 3.0657142,14.599511 C2.5896183,14.190329 2.0383886,13.411452 1.8110138,12.829325 L0.5707762,9.654057 C0.4082374,9.237924 0.5344546,8.762123 0.8570192,8.474474 Z M12.4788705,10.5 L12.9788705,10.5 L12.4788705,10 L12.4788705,10.5 Z M12.4788705,13.5 L12.4788705,14 L12.9788704,13.5 L12.4788705,13.5 Z M12.4683057,13.5 L11.9683057,13.5 L12.4683057,14 L12.4683057,13.5 Z M12.4683057,10.5 L12.4683057,10 L11.9683058,10.5 L12.4683057,10.5 Z M12.4683057,10.5 L12.4788705,10.5 L12.4788705,13.5 L12.4683057,13.5 L12.4683057,10.5 Z M10.457741,10.5 L10.957741,10.5 L10.457741,10 L10.457741,10.5 Z M10.457741,13.5 L10.457741,14 L10.9577409,13.5 L10.457741,13.5 Z M10.4471762,13.5 L9.9471761,13.5 L10.4471762,14 L10.4471762,13.5 Z M10.4471762,10.5 L10.4471762,10 L9.9471763,10.5 L10.4471762,10.5 Z M10.4471762,10.5 L10.457741,10.5 L10.457741,13.5 L10.4471762,13.5 L10.4471762,10.5 Z M8.4366114,10.5 L8.9366115,10.5 L8.4366114,10 L8.4366114,10.5 Z M8.4366114,13.5 L8.4366114,14 L8.9366114,13.5 L8.4366114,13.5 Z M8.4260467,13.5 L7.9260466,13.5 L8.4260467,14 L8.4260467,13.5 Z M8.4260467,10.5 L8.4260467,10 L7.9260467,10.5 L8.4260467,10.5 Z M8.4260467,10.5 L8.4366114,10.5 L8.4366114,13.5 L8.4260467,13.5 L8.4260467,10.5 Z" stroke-opacity="0.8" stroke="#000000"></path>
            </g>
        </g>
    </g>
</svg>