<?xml version="1.0" standalone="no"?>
<!DOCTYPE svg PUBLIC "-//W3C//DTD SVG 1.1//EN" "http://www.w3.org/Graphics/SVG/1.1/DTD/svg11.dtd" >
<svg xmlns="http://www.w3.org/2000/svg">
<metadata>Generated by IcoMoon</metadata>
<defs>
<font id="DS_icon_font" horiz-adv-x="1024">
<font-face units-per-em="1024" ascent="960" descent="-64" />
<missing-glyph horiz-adv-x="1024" />
<glyph unicode="&#x20;" horiz-adv-x="512" d="" />
<glyph unicode="&#xe900;" glyph-name="arrow-down" d="M512 121.6c-32 0-57.6 12.8-76.8 32l-428.8 460.8 153.6 147.2 352-377.6 345.6 371.2 153.6-147.2-428.8-460.8c-12.8-12.8-38.4-25.6-70.4-25.6z" />
<glyph unicode="&#xe901;" glyph-name="arrow-left" d="M678.4-57.6l-454.4 428.8c-25.6 19.2-38.4 44.8-38.4 76.8s12.8 57.6 32 76.8l460.8 428.8 147.2-153.6-377.6-352 371.2-345.6-140.8-160z" />
<glyph unicode="&#xe902;" glyph-name="arrow-right" d="M345.6-38.4l-140.8 153.6 364.8 332.8-364.8 332.8 140.8 153.6 454.4-409.6c19.2-19.2 32-44.8 32-76.8s-12.8-57.6-32-76.8l-454.4-409.6z" />
<glyph unicode="&#xe903;" glyph-name="arrow-up" d="M857.6 134.4l-345.6 377.6-345.6-371.2-153.6 147.2 428.8 460.8c38.4 44.8 115.2 44.8 153.6 0l428.8-460.8-166.4-153.6z" />
<glyph unicode="&#xe904;" glyph-name="calendar" d="M928 844.8h-96v89.6h-96v-230.4h-96v140.8h-268.8v89.6h-89.6v-230.4h-96v140.8h-89.6c-51.2 0-96-44.8-96-96v-697.6c0-51.2 44.8-96 96-96h838.4c51.2 0 96 44.8 96 96v697.6c-6.4 51.2-51.2 96-102.4 96zM326.4 96h-185.6v185.6h185.6v-185.6zM326.4 377.6h-185.6v185.6h185.6v-185.6zM608 96h-192v185.6h185.6v-185.6zM608 377.6h-192v185.6h185.6v-185.6zM883.2 377.6h-185.6v185.6h185.6v-185.6z" />
<glyph unicode="&#xe905;" glyph-name="check-box-selected" d="M896 960h-768c-70.4 0-128-57.6-128-128v-768c0-70.4 57.6-128 128-128h768c70.4 0 128 57.6 128 128v768c0 70.4-57.6 128-128 128zM755.2 569.6l-256-320c-12.8-12.8-32-25.6-51.2-25.6-12.8 0-32 6.4-44.8 19.2l-128 128c-12.8 12.8-19.2 25.6-19.2 44.8 0 12.8 6.4 32 19.2 44.8s25.6 19.2 44.8 19.2 32-6.4 44.8-19.2l76.8-76.8 211.2 262.4c12.8 19.2 32 25.6 51.2 25.6 12.8 0 25.6-6.4 38.4-12.8 19.2-12.8 25.6-32 25.6-51.2 0-12.8-6.4-25.6-12.8-38.4z" />
<glyph unicode="&#xe906;" glyph-name="check-box" d="M896 896c38.4 0 64-25.6 64-64v-768c0-38.4-25.6-64-64-64h-768c-38.4 0-64 25.6-64 64v768c0 38.4 25.6 64 64 64h768zM896 960h-768c-70.4 0-128-57.6-128-128v-768c0-70.4 57.6-128 128-128h768c70.4 0 128 57.6 128 128v768c0 70.4-57.6 128-128 128v0z" />
<glyph unicode="&#xe907;" glyph-name="close" d="M1004.8 851.2l-89.6 89.6-403.2-403.2-403.2 403.2-89.6-89.6 403.2-403.2-403.2-403.2 89.6-89.6 403.2 403.2 403.2-403.2 89.6 89.6-403.2 403.2z" />
<glyph unicode="&#xe908;" glyph-name="copy" d="M755.2 960h-377.6v-211.2h-230.4v-812.8h627.2v211.2h230.4v563.2l-249.6 249.6zM678.4 32h-435.2v620.8h230.4v-204.8h204.8v-416zM908.8 243.2h-134.4v256l-243.2 256h-57.6v108.8h230.4v-204.8h204.8v-416z" />
<glyph unicode="&#xe909;" glyph-name="delete" d="M672 851.2v108.8h-320v-108.8h-326.4v-108.8h972.8v108.8zM134.4 691.2v-646.4c0-57.6 51.2-108.8 108.8-108.8h537.6c57.6 0 108.8 51.2 108.8 108.8v646.4h-755.2zM460.8 153.6h-108.8v320h108.8v-320zM672 153.6h-108.8v320h108.8v-320z" />
<glyph unicode="&#xe90a;" glyph-name="download" d="M512 294.4c19.2 0 32 6.4 44.8 19.2l294.4 288-89.6 89.6-185.6-179.2v448h-128v-448l-185.6 179.2-89.6-89.6 294.4-288c12.8-12.8 25.6-19.2 44.8-19.2zM864 185.6v-115.2c0-6.4-6.4-6.4-12.8-6.4h-678.4c-6.4 0-12.8 6.4-12.8 6.4v115.2h-128v-115.2c0-76.8 64-134.4 140.8-134.4h684.8c76.8 0 140.8 64 140.8 134.4v115.2h-134.4z" />
<glyph unicode="&#xe90b;" glyph-name="edit" d="M122.792 353.271l438.906 439.030 289.669-289.587-438.906-439.030-289.669 289.587zM928 569.6l38.4 38.4c83.2 83.2 83.2 211.2 0 294.4s-211.2 83.2-294.4 0l-38.4-38.4 294.4-294.4zM326.4 6.4l-262.4-70.4c-19.2-6.4-38.4 0-51.2 12.8s-12.8 32-12.8 51.2l64 262.4 262.4-256z" />
<glyph unicode="&#xe90c;" glyph-name="export" d="M787.2-6.4h-652.8c-76.8 0-134.4 64-134.4 134.4v512c0 76.8 57.6 134.4 134.4 134.4h236.8v-128h-236.8c0 0-6.4 0-6.4-6.4v-512c0-6.4 6.4-6.4 6.4-6.4h652.8c6.4 0 6.4 6.4 6.4 6.4v108.8h128v-108.8c0-70.4-57.6-134.4-134.4-134.4zM1017.6 640l-249.6 249.6c-6.4 6.4-12.8 6.4-19.2 6.4s-6.4 0-12.8 0c-12.8-6.4-19.2-19.2-19.2-32v-128c-204.8 0-377.6-198.4-377.6-435.2 64 70.4 166.4 185.6 377.6 185.6v-128c0-12.8 6.4-25.6 19.2-32 6.4 0 6.4 0 12.8 0s19.2 0 19.2 6.4l249.6 249.6c6.4 25.6 6.4 44.8 0 57.6z" />
<glyph unicode="&#xe90d;" glyph-name="external-link" d="M953.6 960h-313.6v-128h160l-486.4-486.4 96-89.6 486.4 486.4v-179.2h128v332.8c-6.4 38.4-32 64-70.4 64zM819.2 70.4c0-6.4-6.4-6.4-6.4-6.4h-672c-6.4 0-6.4 6.4-6.4 6.4v672c0 6.4 6.4 6.4 6.4 6.4h371.2v128h-371.2c-76.8 0-134.4-64-134.4-134.4v-672c0-70.4 57.6-134.4 134.4-134.4h672c76.8 0 134.4 64 134.4 134.4v377.6h-128v-377.6z" />
<glyph unicode="&#xe90e;" glyph-name="filter" d="M1011.2 883.2l-358.4-358.4v-537.6c0-19.2-12.8-38.4-25.6-44.8s-19.2-6.4-19.2-6.4c-12.8 0-25.6 6.4-32 12.8l-192 185.6c-6.4 6.4-12.8 19.2-12.8 32v358.4l-358.4 358.4c-12.8 12.8-19.2 32-6.4 51.2 6.4 12.8 19.2 25.6 38.4 25.6h928c19.2 0 38.4-12.8 44.8-25.6 12.8-19.2 6.4-38.4-6.4-51.2z" />
<glyph unicode="&#xe90f;" glyph-name="help" d="M512-64c-281.6 0-512 230.4-512 512s230.4 512 512 512 512-230.4 512-512-230.4-512-512-512zM524.8 787.2c-108.8 0-192-44.8-249.6-140.8-6.4-6.4 0-19.2 6.4-25.6l89.6-64c6.4 0 6.4-6.4 12.8-6.4s12.8 0 19.2 6.4c32 38.4 44.8 51.2 57.6 64 12.8 6.4 32 12.8 57.6 12.8 44.8 0 83.2-25.6 83.2-57.6s-19.2-51.2-57.6-70.4c-51.2-19.2-115.2-76.8-115.2-140.8v-25.6c0-12.8 6.4-19.2 19.2-19.2h128c12.8 0 19.2 6.4 19.2 19.2s19.2 51.2 51.2 64c51.2 32 121.6 70.4 121.6 172.8 0 121.6-128 211.2-243.2 211.2zM595.2 256c0 12.8-6.4 19.2-19.2 19.2h-128c-12.8 0-19.2-6.4-19.2-19.2v-128c0-12.8 6.4-19.2 19.2-19.2h128c12.8 0 19.2 6.4 19.2 19.2v128z" />
<glyph unicode="&#xe910;" glyph-name="monitoring" d="M921.6 518.4c-38.4-38.4-64-70.4-96-96-83.2-83.2-51.2-44.8-134.4-128-19.2-19.2-32-19.2-51.2 0-32 38.4-76.8 76.8-115.2 115.2-76.8-83.2-153.6-160-230.4-236.8-38.4 38.4-76.8 76.8-115.2 115.2 0 0 6.4 6.4 12.8 12.8 102.4 102.4 198.4 198.4 300.8 300.8 25.6 25.6 32 25.6 57.6 0 38.4-38.4 76.8-76.8 108.8-108.8 89.6 89.6 51.2 44.8 147.2 140.8-12.8 12.8-38.4 32-57.6 51.2-6.4 6.4-12.8 19.2-12.8 25.6s19.2 12.8 25.6 12.8c76.8 0 147.2 0 224 0 25.6 0 32-12.8 32-32 0-76.8 0-147.2 0-224 0-6.4-6.4-19.2-12.8-25.6-6.4 0-19.2 6.4-25.6 12.8-12.8 12.8-32 38.4-57.6 64zM1024-64h-889.6c-70.4 0-134.4 64-134.4 134.4v889.6h128v-889.6c0 0 6.4-6.4 6.4-6.4h889.6v-128z" />
<glyph unicode="&#xe911;" glyph-name="notes" d="M428.8 544l140.8-140.8-172.8-38.4zM960 787.2c38.4 38.4 38.4 102.4 0 140.8s-102.4 38.4-140.8 0l-320-320 140.8-134.4 320 313.6zM819.2-64h-646.4c-76.8 0-134.4 57.6-134.4 134.4v652.8c0 76.8 57.6 134.4 134.4 134.4h313.6v-128h-313.6c-6.4 0-6.4-6.4-6.4-6.4v-652.8c0-6.4 6.4-6.4 6.4-6.4h652.8c6.4 0 6.4 6.4 6.4 6.4v326.4h128v-326.4c-6.4-76.8-64-134.4-140.8-134.4z" />
<glyph unicode="&#xe912;" glyph-name="radio-selected" d="M512 966.4c-281.6 0-512-230.4-512-512s230.4-512 512-512 512 230.4 512 512-230.4 512-512 512zM512 275.2c-96 0-179.2 76.8-179.2 179.2 0 96 76.8 179.2 179.2 179.2s179.2-76.8 179.2-179.2c0-96-83.2-179.2-179.2-179.2z" />
<glyph unicode="&#xe913;" glyph-name="radio" d="M512 902.4c249.6 0 448-198.4 448-448s-198.4-448-448-448-448 198.4-448 448 198.4 448 448 448zM512 966.4c-281.6 0-512-230.4-512-512s230.4-512 512-512 512 230.4 512 512-230.4 512-512 512v0z" />
<glyph unicode="&#xe914;" glyph-name="reload" d="M896 448c0-211.2-172.8-384-384-384s-384 172.8-384 384 172.8 384 384 384c102.4 0 198.4-38.4 268.8-108.8l-108.8-108.8h307.2v300.8l-102.4-102.4c-102.4 89.6-230.4 147.2-364.8 147.2-281.6 0-512-230.4-512-512s230.4-512 512-512 512 230.4 512 512h-128z" />
<glyph unicode="&#xe915;" glyph-name="remove-circle" d="M217.6 518.4h576v-128h-576v128zM505.6 832c211.2 0 384-172.8 384-384s-172.8-384-384-384-384 172.8-384 384 172.8 384 384 384zM505.6 960c-281.6 0-512-230.4-512-512s230.4-512 512-512c281.6 0 512 230.4 512 512s-230.4 512-512 512v0z" />
<glyph unicode="&#xe916;" glyph-name="remove" d="M0 512h1024v-128h-1024v128z" />
<glyph unicode="&#xe917;" glyph-name="search" d="M1017.6 25.6l-288 288c51.2 70.4 83.2 153.6 83.2 243.2 0 224-185.6 403.2-403.2 403.2-224 0-403.2-179.2-403.2-403.2s179.2-403.2 403.2-403.2c83.2 0 166.4 25.6 230.4 70.4l288-288 89.6 89.6zM134.4 556.8c0 153.6 121.6 275.2 275.2 275.2s275.2-121.6 275.2-275.2-121.6-275.2-275.2-275.2-275.2 121.6-275.2 275.2z" />
<glyph unicode="&#xe918;" glyph-name="servers" d="M1024 678.4h-1024v281.6h1024v-281.6zM1024 307.2h-1024v281.6h1024v-281.6zM1024-64h-1024v281.6h1024v-281.6zM659.2 774.4v89.6h-588.8v-96h588.8zM659.2 403.2v89.6h-588.8v-96h588.8zM659.2 25.6v96h-588.8v-96h588.8zM915.2 883.2c-38.4 0-64-25.6-64-64s25.6-64 64-64 64 25.6 64 64-32 64-64 64zM915.2 512c-38.4 0-64-25.6-64-64s25.6-64 64-64 64 25.6 64 64-32 64-64 64zM915.2 140.8c-38.4 0-64-25.6-64-64s25.6-64 64-64 64 25.6 64 64-32 64-64 64z" />
<glyph unicode="&#xe919;" glyph-name="sort-down" d="M307.2 729.6h-249.6c-12.8 0-25.6-6.4-38.4-12.8-6.4-6.4-12.8-12.8-12.8-19.2-12.8-19.2-6.4-44.8 6.4-57.6l460.8-460.8c19.2-19.2 57.6-19.2 76.8 0l460.8 460.8c12.8 12.8 19.2 38.4 12.8 57.6 0 6.4-6.4 12.8-12.8 19.2-12.8 12.8-25.6 12.8-38.4 12.8h-665.6z" />
<glyph unicode="&#xe91a;" glyph-name="sort-up" d="M716.8 166.4h249.6c12.8 0 25.6 6.4 38.4 12.8 6.4 6.4 6.4 12.8 12.8 19.2 6.4 19.2 6.4 44.8-12.8 57.6l-454.4 460.8c-19.2 19.2-57.6 19.2-76.8 0l-460.8-460.8c-12.8-12.8-19.2-38.4-12.8-57.6 0-6.4 6.4-12.8 12.8-19.2 12.8-12.8 25.6-12.8 38.4-12.8h665.6z" />
<glyph unicode="&#xe91b;" glyph-name="sort" d="M691.2 480h211.2c12.8 0 25.6 6.4 32 12.8s6.4 6.4 12.8 12.8c6.4 19.2 0 38.4-12.8 51.2l-390.4 390.4c-19.2 19.2-44.8 19.2-64 0l-390.4-390.4c-12.8-12.8-12.8-32-6.4-51.2 0-6.4 6.4-12.8 12.8-12.8 6.4-6.4 19.2-12.8 32-12.8h563.2zM339.2 416h-211.2c-12.8 0-25.6-6.4-32-12.8s-12.8-6.4-12.8-12.8c-6.4-19.2 0-38.4 12.8-51.2l390.4-390.4c19.2-19.2 44.8-19.2 64 0l390.4 390.4c12.8 12.8 19.2 32 12.8 51.2 0 6.4-6.4 12.8-12.8 12.8-6.4 6.4-19.2 12.8-32 12.8h-569.6z" />
<glyph unicode="&#xe91c;" glyph-name="support" d="M512-64c-281.6 0-512 230.4-512 512s230.4 512 512 512c281.6 0 512-230.4 512-512s-230.4-512-512-512zM294.4 448c0-121.6 96-217.6 217.6-217.6s224 102.4 217.6 224c0 121.6-102.4 217.6-217.6 217.6-121.6-6.4-217.6-102.4-217.6-224zM300.8 832c32-32 64-64 96-96 6.4-6.4 25.6-12.8 38.4-12.8 51.2 12.8 96 12.8 147.2 0 6.4 0 19.2-6.4 25.6 0 38.4 32 70.4 70.4 108.8 108.8-140.8 70.4-275.2 70.4-416 0zM300.8 64c140.8-70.4 275.2-70.4 416 0-38.4 38.4-70.4 70.4-102.4 102.4-6.4 6.4-12.8 6.4-19.2 6.4-57.6-12.8-108.8-12.8-166.4 0-6.4 0-19.2 0-19.2-6.4-38.4-38.4-70.4-70.4-108.8-102.4zM121.6 652.8c-70.4-140.8-70.4-275.2 0-416 38.4 38.4 70.4 70.4 102.4 102.4 6.4 6.4 6.4 19.2 0 25.6-12.8 51.2-12.8 102.4 0 153.6 0 6.4 0 19.2 0 25.6-32 44.8-64 76.8-102.4 108.8zM896 659.2c-38.4-38.4-70.4-70.4-102.4-102.4-6.4-6.4-6.4-19.2-6.4-25.6 12.8-57.6 12.8-108.8 0-166.4 0-6.4 0-19.2 6.4-19.2 32-32 64-64 102.4-102.4 70.4 140.8 70.4 275.2 0 416z" />
<glyph unicode="&#xe91d;" glyph-name="tag" d="M1011.2 384l-563.2 563.2c-12.8 6.4-25.6 12.8-38.4 12.8h-358.4c-25.6 0-51.2-25.6-51.2-51.2v-358.4c0-12.8 6.4-25.6 12.8-38.4l563.2-563.2c12.8-6.4 25.6-12.8 38.4-12.8s25.6 6.4 38.4 12.8l358.4 358.4c19.2 19.2 19.2 57.6 0 76.8zM256 601.6c-57.6 0-102.4 44.8-102.4 102.4s44.8 102.4 102.4 102.4c57.6 0 102.4-44.8 102.4-102.4s-44.8-102.4-102.4-102.4z" />
<glyph unicode="&#xe91e;" glyph-name="ticket" d="M262.4 32c44.8 64 44.8 121.6 0 166.4s-102.4 44.8-166.4 6.4c-25.6 25.6-57.6 51.2-76.8 76.8-25.6 32-25.6 70.4 0 96 6.4 6.4 12.8 12.8 19.2 19.2 172.8 179.2 345.6 352 518.4 524.8 51.2 51.2 89.6 51.2 140.8 0 19.2-19.2 38.4-38.4 64-57.6-25.6-32-44.8-64-32-102.4 6.4-25.6 19.2-51.2 38.4-64 38.4-44.8 102.4-44.8 160 0 32-25.6 64-51.2 89.6-83.2 12.8-38.4 6.4-76.8-19.2-108.8-44.8-44.8-89.6-96-140.8-140.8-128-134.4-262.4-262.4-390.4-396.8-51.2-51.2-89.6-51.2-140.8 0-19.2 25.6-38.4 44.8-64 64zM851.2 524.8c-6.4 12.8-12.8 25.6-25.6 32-64 70.4-134.4 140.8-198.4 211.2-32 25.6-44.8 25.6-76.8 0-115.2-121.6-236.8-243.2-358.4-364.8-25.6-25.6-25.6-38.4 0-64 70.4-70.4 134.4-140.8 204.8-204.8 25.6-25.6 44.8-25.6 70.4 0 121.6 121.6 243.2 243.2 358.4 364.8 12.8 0 19.2 12.8 25.6 25.6zM588.8 710.4c57.6-57.6 121.6-121.6 179.2-179.2-115.2-115.2-224-224-339.2-339.2-57.6 57.6-115.2 115.2-172.8 179.2 108.8 108.8 224 224 332.8 339.2z" />
<glyph unicode="&#xe91f;" glyph-name="user" d="M768 704c0-141.385-114.615-256-256-256s-256 114.615-256 256c0 141.385 114.615 256 256 256s256-114.615 256-256zM512 384c-300.8 0-512-160-512-384v-64h1024v64c0 224-211.2 384-512 384z" />
<glyph unicode="&#xe920;" glyph-name="warning" d="M1017.6 51.2l-441.6 870.4c-12.8 25.6-38.4 38.4-64 38.4s-51.2-12.8-64-38.4l-441.6-870.4c-12.8-25.6-12.8-51.2 0-76.8s38.4-38.4 64-38.4h876.8c25.6 0 51.2 12.8 64 38.4s19.2 51.2 6.4 76.8zM595.2 64c0-12.8-6.4-19.2-19.2-19.2h-128c-12.8 0-19.2 12.8-19.2 19.2v128c0 12.8 12.8 19.2 19.2 19.2h128c12.8 0 19.2-12.8 19.2-19.2v-128zM595.2 294.4c0-6.4-12.8-19.2-25.6-19.2h-121.6c-12.8 0-25.6 6.4-25.6 19.2l-6.4 416c0 6.4 0 6.4 6.4 12.8s12.8 6.4 19.2 6.4h147.2c6.4 0 12.8 0 19.2-6.4 6.4 0 6.4-6.4 6.4-12.8l-19.2-416z" />
<glyph unicode="&#xe921;" glyph-name="check-mark" d="M364.8 12.8c-25.6 0-51.2 12.8-70.4 25.6l-268.8 281.6c-38.4 38.4-38.4 96 0 134.4s102.4 32 140.8 0l198.4-198.4 492.8 595.2c32 38.4 96 44.8 134.4 12.8s44.8-96 12.8-134.4l-563.2-678.4c-19.2-25.6-44.8-32-76.8-38.4 6.4 0 6.4 0 0 0z" />
<glyph unicode="&#xe922;" glyph-name="error" d="M512 960c-281.6 0-512-230.4-512-512s230.4-512 512-512 512 230.4 512 512c0 281.6-230.4 512-512 512zM595.2 128c0-12.8-6.4-19.2-19.2-19.2h-128c-12.8 0-19.2 12.8-19.2 19.2v128c0 12.8 12.8 19.2 19.2 19.2h128c12.8 0 19.2-12.8 19.2-19.2v-128zM595.2 358.4c0-6.4-12.8-19.2-25.6-19.2h-121.6c-12.8 0-25.6 6.4-25.6 19.2l-6.4 416c0 6.4 0 6.4 6.4 12.8s12.8 6.4 19.2 6.4h147.2c6.4 0 12.8 0 19.2-6.4 6.4 0 6.4-6.4 6.4-12.8l-19.2-416z" />
</font>
</defs>
</svg>
