<?xml version="1.0" encoding="UTF-8" standalone="no"?>
<svg width="537px" height="270px" viewBox="0 0 537 270" version="1.1" xmlns="http://www.w3.org/2000/svg" xmlns:xlink="http://www.w3.org/1999/xlink">
    <!-- Generator: Sketch 46.2 (44496) - http://www.bohemiancoding.com/sketch -->
    <title>tabs-pressed-state</title>
    <desc>Created with Sketch.</desc>
    <style>
      @import url("https://fonts.googleapis.com/css?family=Roboto:300,400");
      @import url("https://stackpath.bootstrapcdn.com/font-awesome/4.7.0/css/font-awesome.min.css")
    </style>
    <defs></defs>
    <g stroke="none" stroke-width="1" fill="none" fill-rule="evenodd">
        <g>
            <path d="M261.702157,33.5 L536.500237,33.5" stroke="#E0E0E0" fill="#FFFFFF" fill-rule="nonzero"></path>
            <path d="M0.4997668,33.5 L163.667604,33.5" stroke="#E0E0E0" fill="#FFFFFF" fill-rule="nonzero"></path>
            <path d="M0.5,269.5 L535.5,269.5" stroke="#E0E0E0" stroke-linecap="square"></path>
            <text fill="#757575" font-family="Roboto-Regular, Roboto" font-size="14" font-weight="normal">
                <tspan x="20" y="22">Notes</tspan>
            </text>
            <text fill="#757575" font-family="Roboto-Regular, Roboto" font-size="14" font-weight="normal">
                <tspan x="81" y="22">Collections</tspan>
            </text>
            <text fill="#0E94A6" font-family="Roboto-Regular, Roboto" font-size="14" font-weight="normal">
                <tspan x="272" y="22">Failed CC Payments</tspan>
            </text>
            <path d="M261.5,33.4898462 L261.5,2.5307692 C261.5,1.4092064 260.803554,0.5 259.944444,0.5 L165.055556,0.5 C164.196446,0.5 163.5,1.4092064 163.5,2.5307692 L163.5,33.5" stroke="#D8D8D8" fill-rule="nonzero"></path>
            <text fill="#0C7C84" font-family="Roboto-Regular, Roboto" font-size="14" font-weight="normal">
                <tspan x="175" y="22">Transaction</tspan>
            </text>
            <path d="M384.5,45.5 L384.5,39.5 C384.5,36.1862915 387.176536,33.5 390.500659,33.5 L404.5,33.5" stroke="#EC407A" transform="translate(394.500000, 39.500000) rotate(-90.000000) translate(-394.500000, -39.500000) "></path>
            <polygon fill="#FFFFFF" transform="translate(388.500000, 32.500000) rotate(-90.000000) translate(-388.500000, -32.500000) " points="392 32.5 385 36 385 29"></polygon>
            <polygon stroke="#EC407A" transform="translate(388.500000, 32.809017) rotate(-90.000000) translate(-388.500000, -32.809017) " points="391.190983 32.809017 385.809017 30.118034 385.809017 35.5"></polygon>
            <circle fill="#FFFFFF" transform="translate(397.500000, 49.500000) rotate(-90.000000) translate(-397.500000, -49.500000) " cx="397.5" cy="49.5" r="3.5"></circle>
            <circle stroke="#EC407A" transform="translate(397.500000, 49.500000) rotate(-90.000000) translate(-397.500000, -49.500000) " cx="397.5" cy="49.5" r="3"></circle>
            <text fill="#EC407A" font-family="Roboto-Regular, Roboto" font-size="12" font-weight="normal">
                <tspan x="405" y="52">Pressed:</tspan>
            </text>
            <text fill="#EC407A" font-family="Roboto-Regular, Roboto" font-size="12" font-weight="normal">
                <tspan x="405" y="66">#0e94a6 (cyan 700)</tspan>
            </text>
            <path d="M367,32 L368,32 L368,30 L367,30 L367,32 L367,32 Z M368,29 L368,30 L370,30 L370,29 L368,29 L368,29 Z M372,32 L372,24 L371,24 L371,30 L370,30 L370,31 L371,31 L371,32 L372,32 L372,32 Z M372,24 L374,24 L374,23 L372,23 L372,24 L372,24 Z M375,28 L377,28 L377,27 L375,27 L375,24 L374,24 L374,30 L375,30 L375,28 L375,28 Z M378,30 L378,28 L377,28 L377,30 L378,30 L378,30 Z M378,28 L380,28 L380,27 L378,27 L378,28 L378,28 Z M381,29 L382,29 L382,28 L380,28 L380,29 L380,30 L381,30 L381,29 L381,29 Z M382,29 L382,36 L383,36 L383,29 L382,29 L382,29 Z M381,36 L381,38 L382,38 L382,36 L381,36 L381,36 Z M381,38 L373,38 L373,39 L381,39 L381,38 L381,38 Z M373,37 L372,37 L372,38 L373,38 L373,37 L373,37 Z M372,36 L371,36 L371,37 L372,37 L372,36 L372,36 Z M371,35 L370,35 L370,36 L371,36 L371,35 L371,35 Z M370,33 L369,33 L369,35 L370,35 L370,33 L370,33 Z M369,32 L368,32 L368,33 L369,33 L369,32 L369,32 Z" fill="#000000" fill-rule="nonzero"></path>
        </g>
    </g>
</svg>
