<?xml version="1.0" encoding="UTF-8"?>
<svg width="641px" height="399px" viewBox="0 0 641 399" version="1.1" xmlns="http://www.w3.org/2000/svg" xmlns:xlink="http://www.w3.org/1999/xlink">
    <!-- Generator: Sketch 46.2 (44496) - http://www.bohemiancoding.com/sketch -->
    <title>Group 6</title>
    <desc>Created with Sketch.</desc>
    <defs>
        <rect id="path-1" x="0" y="0" width="633" height="391"></rect>
        <filter x="-1.1%" y="-1.3%" width="102.2%" height="103.6%" filterUnits="objectBoundingBox" id="filter-2">
            <feOffset dx="0" dy="2" in="SourceAlpha" result="shadowOffsetOuter1"></feOffset>
            <feGaussianBlur stdDeviation="2" in="shadowOffsetOuter1" result="shadowBlurOuter1"></feGaussianBlur>
            <feColorMatrix values="0 0 0 0 0   0 0 0 0 0   0 0 0 0 0  0 0 0 0.2 0" type="matrix" in="shadowBlurOuter1"></feColorMatrix>
        </filter>
        <polygon id="path-3" points="7 3.5 0 7 0 0"></polygon>
        <circle id="path-4" cx="3.5" cy="3.5" r="3.5"></circle>
    </defs>
    <g id="**Document**" stroke="none" stroke-width="1" fill="none" fill-rule="evenodd">
        <g id="2)-Specs-&amp;-States" transform="translate(-354.000000, -1354.000000)">
            <g id="Group-6" transform="translate(358.000000, 1356.000000)">
                <g id="img-container-span-8-copy-2">
                    <use fill="black" fill-opacity="1" filter="url(#filter-2)" xlink:href="#path-1"></use>
                    <use fill="#FAFAFA" fill-rule="evenodd" xlink:href="#path-1"></use>
                </g>
                <rect id="Rectangle-Copy-8" fill="#FAFAFA" x="51" y="88" width="536" height="236"></rect>
                <rect id="Rectangle-Copy-7" fill="#FAFAFA" x="51" y="88" width="536" height="236"></rect>
                <path d="M51.4997668,88 L587.500237,88" id="Shape-Copy-7" stroke="#E0E0E0" fill="#FFFFFF" fill-rule="nonzero"></path>
                <path d="M51.5,324.5 L586.5,324.5" id="Line-Copy-4" stroke="#E0E0E0" stroke-linecap="square"></path>
                <text id="Notes-Copy-3" fill="#757575" font-family="Roboto-Medium, Roboto" font-size="14" font-weight="400">
                    <tspan x="71" y="77">Notes</tspan>
                </text>
                <text id="Collections-Copy-3" fill="#757575" font-family="Roboto-Medium, Roboto" font-size="14" font-weight="400">
                    <tspan x="132" y="77">Collections</tspan>
                </text>
                <text id="Failed-CC-Payments-Copy-3" fill="#16B9D4" font-family="Roboto-Medium, Roboto" font-size="14" font-weight="400">
                    <tspan x="323" y="77">Failed CC Payments</tspan>
                </text>
                <path d="M312,88.9898462 L312,58.0307692 C312,56.9092064 311.303554,56 310.444444,56 L215.555556,56 C214.696446,56 214,56.9092064 214,58.0307692 L214,89" id="Shape-Copy-6" stroke="#D8D8D8" fill="#FAFAFA" fill-rule="nonzero"></path>
                <text id="Transaction-Copy-3" fill="#0C7C84" font-family="Roboto-Medium, Roboto" font-size="14" font-weight="400">
                    <tspan x="226" y="77">Transaction</tspan>
                </text>
                <g id="specs-/-redlines-/-line-regular" transform="translate(444.000000, 96.000000) rotate(-90.000000) translate(-444.000000, -96.000000) translate(432.000000, 88.000000)">
                    <path d="M3.5,15.5 L3.5,9.5 C3.5,6.1862915 6.17653633,3.5 9.50065947,3.5 L23.5,3.5" id="redline-line" stroke="#EC407A" stroke-width="1"></path>
                    <g id="specs-/-redlines-/-line-end-/-arrow" transform="translate(17.000000, 0.000000)">
                        <g id="redline-end">
                            <use fill="#FFFFFF" fill-rule="evenodd" xlink:href="#path-3"></use>
                            <path stroke="#EC407A" stroke-width="1" d="M5.88196601,3.5 L0.5,0.809016994 L0.5,6.19098301 L5.88196601,3.5 Z"></path>
                        </g>
                    </g>
                    <g id="specs-/-redlines-/-line-end-/-circle" transform="translate(0.000000, 9.000000)">
                        <g id="redline-start">
                            <use fill="#FFFFFF" fill-rule="evenodd" xlink:href="#path-4"></use>
                            <circle stroke="#EC407A" stroke-width="1" cx="3.5" cy="3.5" r="3"></circle>
                        </g>
                    </g>
                </g>
                <g id="specs-/-redlines-/-label-copy-11" transform="translate(456.000000, 96.000000)" font-size="12" font-family="Roboto-Regular, Roboto" fill="#EC407A" font-weight="normal">
                    <text id="redline-label">
                        <tspan x="0" y="11">Hover state:</tspan>
                        <tspan x="0" y="25">Roboto, Medium, 14px</tspan>
                        <tspan x="0" y="39">#16b9d4 (cyan 500)</tspan>
                    </text>
                </g>
                <path d="M418,87 L419,87 L419,85 L418,85 L418,87 L418,87 Z M419,84 L419,85 L421,85 L421,84 L419,84 L419,84 Z M423,87 L423,79 L422,79 L422,85 L421,85 L421,86 L422,86 L422,87 L423,87 L423,87 Z M423,79 L425,79 L425,78 L423,78 L423,79 L423,79 Z M426,83 L428,83 L428,82 L426,82 L426,79 L425,79 L425,85 L426,85 L426,83 L426,83 Z M429,85 L429,83 L428,83 L428,85 L429,85 L429,85 Z M429,83 L431,83 L431,82 L429,82 L429,83 L429,83 Z M432,84 L433,84 L433,83 L431,83 L431,84 L431,85 L432,85 L432,84 L432,84 Z M433,84 L433,91 L434,91 L434,84 L433,84 L433,84 Z M432,91 L432,93 L433,93 L433,91 L432,91 L432,91 Z M432,93 L424,93 L424,94 L432,94 L432,93 L432,93 Z M424,92 L423,92 L423,93 L424,93 L424,92 L424,92 Z M423,91 L422,91 L422,92 L423,92 L423,91 L423,91 Z M422,90 L421,90 L421,91 L422,91 L422,90 L422,90 Z M421,88 L420,88 L420,90 L421,90 L421,88 L421,88 Z M420,87 L419,87 L419,88 L420,88 L420,87 L420,87 Z" id="Shape" fill="#000000"></path>
            </g>
        </g>
    </g>
</svg>