<?xml version="1.0" encoding="UTF-8" standalone="no"?>
<svg width="537px" height="251px" viewBox="0 0 537 251" version="1.1" xmlns="http://www.w3.org/2000/svg" xmlns:xlink="http://www.w3.org/1999/xlink">
    <!-- Generator: Sketch 46.2 (44496) - http://www.bohemiancoding.com/sketch -->
    <title>tabs-zero-state</title>
    <desc>Created with Sketch.</desc>
    <defs></defs>
    <g stroke="none" stroke-width="1" fill="none" fill-rule="evenodd">
        <g>
            <text fill="#333333" font-family="Roboto-Regular, Roboto" font-size="24" font-weight="normal">
                <tspan x="181.189453" y="105">No Transactions</tspan>
            </text>
            <text fill="#333333" font-family="Roboto-Regular, Roboto" font-size="16" font-weight="normal">
                <tspan x="141.555303" y="129">You don’t have any transactions yet!</tspan>
            </text>
            <rect fill="#0C7481" fill-rule="nonzero" x="189" y="151" width="160" height="48" rx="2"></rect>
            <text fill="#FFFFFF" font-family="Roboto-Regular, Roboto" font-size="16" font-weight="normal">
                <tspan x="205.09375" y="180">Make Transaction</tspan>
            </text>
            <text fill="#757575" font-family="Roboto-Regular, Roboto" font-size="14" font-weight="normal">
                <tspan x="19" y="23">Notes</tspan>
            </text>
            <text fill="#757575" font-family="Roboto-Regular, Roboto" font-size="14" font-weight="normal">
                <tspan x="80" y="23">Collections</tspan>
            </text>
            <text fill="#757575" font-family="Roboto-Regular, Roboto" font-size="14" font-weight="normal">
                <tspan x="271" y="23">Failed CC Payments</tspan>
            </text>
            <path d="M0.5,250.5 L535.5,250.5" stroke="#E0E0E0" stroke-linecap="square"></path>
            <path d="M260.48506,34.5 L536.500237,34.5" stroke="#E0E0E0" fill="#FFFFFF" fill-rule="nonzero"></path>
            <path d="M0.499766791,34.5 L162.775391,34.5" stroke="#E0E0E0" fill="#FFFFFF" fill-rule="nonzero"></path>
            <path d="M260.5,34.4895385 L260.5,2.59230769 C260.5,1.43675806 259.803554,0.5 258.944444,0.5 L164.055556,0.5 C163.196446,0.5 162.5,1.43675806 162.5,2.59230769 L162.5,34.5" stroke="#D8D8D8"></path>
            <text fill="#0C7C84" font-family="Roboto-Regular, Roboto" font-size="14" font-weight="normal">
                <tspan x="174" y="23">Transaction</tspan>
            </text>
            <text fill="#EC407A" font-family="Roboto-Regular, Roboto" font-size="12" font-weight="normal">
                <tspan x="52" y="147">Minimum container</tspan>
            </text>
            <text fill="#EC407A" font-family="Roboto-Regular, Roboto" font-size="12" font-weight="normal">
                <tspan x="52" y="161">height: 220px</tspan>
            </text>
            <path d="M16,34.7152318 C39.904595,34.7152318 16.077196,142 40,142" stroke="#EC407A"></path>
            <path d="M16,142 C39.904595,142 16.077196,249.284768 40,249.284768" stroke="#EC407A" transform="translate(28.000000, 195.642384) scale(-1, 1) rotate(-180.000000) translate(-28.000000, -195.642384) "></path>
        </g>
    </g>
</svg>