<?xml version="1.0" encoding="UTF-8" standalone="no"?>
<svg width="538px" height="295px" viewBox="0 0 538 295" version="1.1" xmlns="http://www.w3.org/2000/svg" xmlns:xlink="http://www.w3.org/1999/xlink">
    <!-- Generator: Sketch 46.2 (44496) - http://www.bohemiancoding.com/sketch -->
    <title>tabs-menu</title>
    <desc>Created with Sketch.</desc>
    <defs></defs>
    <g stroke="none" stroke-width="1" fill="none" fill-rule="evenodd">
        <g transform="translate(0.000000, -3.000000)">
            <path d="M261.183753,61.5 L536.500237,61.5" stroke="#E0E0E0" fill="#FFFFFF" fill-rule="nonzero"></path>
            <path d="M0.4997668,61.5 L163.788664,61.5" stroke="#E0E0E0" fill="#FFFFFF" fill-rule="nonzero"></path>
            <text fill="#757575" font-family="Roboto-Regular, Roboto" font-size="14" font-weight="normal">
                <tspan x="20" y="50">Notes</tspan>
            </text>
            <text fill="#757575" font-family="Roboto-Regular, Roboto" font-size="14" font-weight="normal">
                <tspan x="81" y="50">Collections</tspan>
            </text>
            <text fill="#757575" font-family="Roboto-Regular, Roboto" font-size="14" font-weight="normal">
                <tspan x="272" y="50">Failed CC Payments</tspan>
            </text>
            <path d="M261.5,61.4898462 L261.5,30.5307692 C261.5,29.4092064 260.803554,28.5 259.944444,28.5 L165.055556,28.5 C164.196446,28.5 163.5,29.4092064 163.5,30.5307692 L163.5,61.5" stroke="#D8D8D8" fill-rule="nonzero"></path>
            <text fill="#0C7C84" font-family="Roboto-Regular, Roboto" font-size="14" font-weight="normal">
                <tspan x="175" y="50">Transaction</tspan>
            </text>
            <rect fill="#F9CD94" x="9" y="29" width="60" height="12"></rect>
            <text fill="#333333" font-family="Roboto-Regular, Roboto" font-size="12" font-weight="normal">
                <tspan x="34.8" y="38">12</tspan>
            </text>
            <rect fill="#F9CD94" x="9" y="53" width="60" height="8"></rect>
            <text fill="#333333" font-family="Roboto-Regular, Roboto" font-size="10" font-weight="normal">
                <tspan x="36.6315789" y="59">8</tspan>
            </text>
            <path d="M1.5,297.5 L537.5,297.5" stroke="#E0E0E0" stroke-linecap="square"></path>
            <path d="M204.5,85.5 L204.5,79.5 C204.5,76.1862915 207.195734,73.5 210.500322,73.5 L251.5,73.5" stroke="#EC407A" transform="translate(228.000000, 79.500000) rotate(-90.000000) translate(-228.000000, -79.500000) "></path>
            <polygon fill="#FFFFFF" transform="translate(222.000000, 59.000000) rotate(-90.000000) translate(-222.000000, -59.000000) " points="225.5 59 218.5 62.5 218.5 55.5"></polygon>
            <polygon stroke="#EC407A" transform="translate(222.000000, 59.309017) rotate(-90.000000) translate(-222.000000, -59.309017) " points="224.690983 59.309017 219.309017 56.618034 219.309017 62"></polygon>
            <circle fill="#FFFFFF" transform="translate(231.000000, 103.000000) rotate(-90.000000) translate(-231.000000, -103.000000) " cx="231" cy="103" r="3.5"></circle>
            <circle stroke="#EC407A" transform="translate(231.000000, 103.000000) rotate(-90.000000) translate(-231.000000, -103.000000) " cx="231" cy="103" r="3"></circle>
            <path d="M9.5,86.5 L9.5,80.5 C9.5,77.1862915 12.1957337,74.5 15.5003217,74.5 L56.5,74.5" stroke="#EC407A" transform="translate(33.000000, 80.500000) rotate(-90.000000) translate(-33.000000, -80.500000) "></path>
            <polygon fill="#FFFFFF" transform="translate(27.000000, 60.000000) rotate(-90.000000) translate(-27.000000, -60.000000) " points="30.5 60 23.5 63.5 23.5 56.5"></polygon>
            <polygon stroke="#EC407A" transform="translate(27.000000, 60.309017) rotate(-90.000000) translate(-27.000000, -60.309017) " points="29.690983 60.309017 24.309017 57.618034 24.309017 63"></polygon>
            <circle fill="#FFFFFF" transform="translate(36.000000, 104.000000) rotate(-90.000000) translate(-36.000000, -104.000000) " cx="36" cy="104" r="3.5"></circle>
            <circle stroke="#EC407A" transform="translate(36.000000, 104.000000) rotate(-90.000000) translate(-36.000000, -104.000000) " cx="36" cy="104" r="3"></circle>
            <text fill="#EC407A" font-family="Roboto-Regular, Roboto" font-size="12" font-weight="normal">
                <tspan x="238" y="105">Selected tab:</tspan>
            </text>
            <text fill="#EC407A" font-family="Roboto-Regular, Roboto" font-size="12" font-weight="normal">
                <tspan x="238" y="119">Roboto, Medium, 14px</tspan>
            </text>
            <text fill="#EC407A" font-family="Roboto-Regular, Roboto" font-size="12" font-weight="normal">
                <tspan x="238" y="133">#0c7c84 (cyan 900)</tspan>
            </text>
            <text fill="#EC407A" font-family="Roboto-Regular, Roboto" font-size="12" font-weight="normal">
                <tspan x="43" y="105">Unselected tab:</tspan>
            </text>
            <text fill="#EC407A" font-family="Roboto-Regular, Roboto" font-size="12" font-weight="normal">
                <tspan x="43" y="119">Roboto, Medium, 14px</tspan>
            </text>
            <text fill="#EC407A" font-family="Roboto-Regular, Roboto" font-size="12" font-weight="normal">
                <tspan x="43" y="133">#757575 (gray 700)</tspan>
            </text>
            <text fill="#EC407A" font-family="Roboto-Regular, Roboto" font-size="12" font-weight="normal">
                <tspan x="189" y="13">Radius: 2</tspan>
            </text>
            <path d="M167.5,30.5 L167.5,16.0096201 C167.5,11.8621714 170.866293,8.5 175,8.5 L182.5,8.5" stroke="#EC407A" transform="translate(175.000000, 19.500000) scale(-1, 1) rotate(90.000000) translate(-175.000000, -19.500000) "></path>
            <polygon fill="#FFFFFF" transform="translate(164.000000, 24.000000) scale(-1, 1) rotate(90.000000) translate(-164.000000, -24.000000) " points="167.5 24 160.5 27.5 160.5 20.5"></polygon>
            <polygon stroke="#EC407A" transform="translate(164.000000, 23.690983) scale(-1, 1) rotate(90.000000) translate(-164.000000, -23.690983) " points="166.690983 23.690983 161.309017 21 161.309017 26.381966"></polygon>
            <circle fill="#FFFFFF" transform="translate(183.000000, 12.000000) scale(-1, 1) rotate(90.000000) translate(-183.000000, -12.000000) " cx="183" cy="12" r="3.5"></circle>
            <circle stroke="#EC407A" transform="translate(183.000000, 12.000000) scale(-1, 1) rotate(90.000000) translate(-183.000000, -12.000000) " cx="183" cy="12" r="3"></circle>
            <text fill="#EC407A" font-family="Roboto-Regular, Roboto" font-size="12" font-weight="normal">
                <tspan x="301" y="280">Line: 1px, #e0e0e0 (gray 300)</tspan>
            </text>
            <path d="M466.5,297.5 L466.5,283.00962 C466.5,278.862171 469.866293,275.5 474,275.5 L481.5,275.5" stroke="#EC407A" transform="translate(474.000000, 286.500000) rotate(90.000000) translate(-474.000000, -286.500000) "></path>
            <polygon fill="#FFFFFF" transform="translate(485.000000, 291.000000) rotate(90.000000) translate(-485.000000, -291.000000) " points="488.5 291 481.5 294.5 481.5 287.5"></polygon>
            <polygon stroke="#EC407A" transform="translate(485.000000, 290.690983) rotate(90.000000) translate(-485.000000, -290.690983) " points="487.690983 290.690983 482.309017 288 482.309017 293.381966"></polygon>
            <circle fill="#FFFFFF" transform="translate(466.000000, 279.000000) rotate(90.000000) translate(-466.000000, -279.000000) " cx="466" cy="279" r="3.5"></circle>
            <circle stroke="#EC407A" transform="translate(466.000000, 279.000000) rotate(90.000000) translate(-466.000000, -279.000000) " cx="466" cy="279" r="3"></circle>
            <path d="M366.5,182.5 L366.5,171.5 C366.5,165.424868 371.42032,160.5 377.494664,160.5 L581.5,160.5" stroke="#EC407A" transform="translate(474.000000, 171.500000) scale(-1, 1) rotate(-90.000000) translate(-474.000000, -171.500000) "></path>
            <polygon fill="#FFFFFF" transform="translate(485.000000, 67.000000) scale(-1, 1) rotate(-90.000000) translate(-485.000000, -67.000000) " points="488.5 67 481.5 70.5 481.5 63.5"></polygon>
            <polygon stroke="#EC407A" transform="translate(485.000000, 67.309017) scale(-1, 1) rotate(-90.000000) translate(-485.000000, -67.309017) " points="487.690983 67.309017 482.309017 64.618034 482.309017 70"></polygon>
            <circle fill="#FFFFFF" transform="translate(466.000000, 279.000000) scale(-1, 1) rotate(-90.000000) translate(-466.000000, -279.000000) " cx="466" cy="279" r="3.5"></circle>
            <circle stroke="#EC407A" transform="translate(466.000000, 279.000000) scale(-1, 1) rotate(-90.000000) translate(-466.000000, -279.000000) " cx="466" cy="279" r="3"></circle>
            <rect fill="#F8CC96" x="9" y="29" width="12" height="32"></rect>
            <text fill="#333333" font-family="Roboto-Regular, Roboto" font-size="12" font-weight="normal">
                <tspan x="8" y="48">12</tspan>
            </text>
            <rect fill="#F8CC96" x="57" y="29" width="12" height="32"></rect>
            <text fill="#333333" font-family="Roboto-Regular, Roboto" font-size="12" font-weight="normal">
                <tspan x="56" y="48">12</tspan>
            </text>
            <rect fill="#90D5B2" x="1" y="29" width="8" height="32"></rect>
            <text fill="#333333" font-family="Roboto-Regular, Roboto" font-size="12" font-weight="normal">
                <tspan x="2" y="47.36">8</tspan>
            </text>
        </g>
    </g>
</svg>