<?xml version="1.0" encoding="UTF-8"?>
<svg width="641px" height="399px" viewBox="0 0 641 399" version="1.1" xmlns="http://www.w3.org/2000/svg" xmlns:xlink="http://www.w3.org/1999/xlink">
    <!-- Generator: Sketch 46.2 (44496) - http://www.bohemiancoding.com/sketch -->
    <title>Group 7</title>
    <desc>Created with Sketch.</desc>
    <defs>
        <rect id="path-1" x="0" y="0" width="633" height="391"></rect>
        <filter x="-1.1%" y="-1.3%" width="102.2%" height="103.6%" filterUnits="objectBoundingBox" id="filter-2">
            <feOffset dx="0" dy="2" in="SourceAlpha" result="shadowOffsetOuter1"></feOffset>
            <feGaussianBlur stdDeviation="2" in="shadowOffsetOuter1" result="shadowBlurOuter1"></feGaussianBlur>
            <feColorMatrix values="0 0 0 0 0   0 0 0 0 0   0 0 0 0 0  0 0 0 0.2 0" type="matrix" in="shadowBlurOuter1"></feColorMatrix>
        </filter>
        <polygon id="path-3" points="7 3.5 0 7 0 0"></polygon>
        <circle id="path-4" cx="3.5" cy="3.5" r="3.5"></circle>
    </defs>
    <g id="**Document**" stroke="none" stroke-width="1" fill="none" fill-rule="evenodd">
        <g id="2)-Specs-&amp;-States" transform="translate(-355.000000, -1829.000000)">
            <g id="Group-7" transform="translate(359.000000, 1831.000000)">
                <g id="img-container-span-8">
                    <use fill="black" fill-opacity="1" filter="url(#filter-2)" xlink:href="#path-1"></use>
                    <use fill="#FAFAFA" fill-rule="evenodd" xlink:href="#path-1"></use>
                </g>
                <rect id="Rectangle-Copy-10" fill="#FAFAFA" x="50" y="93" width="536" height="236"></rect>
                <rect id="Rectangle-Copy-9" fill="#FAFAFA" x="50" y="93" width="536" height="236"></rect>
                <path d="M50.4997668,93 L586.500237,93" id="Shape-Copy-9" stroke="#E0E0E0" fill="#FFFFFF" fill-rule="nonzero"></path>
                <path d="M50.5,329.5 L585.5,329.5" id="Line-Copy-5" stroke="#E0E0E0" stroke-linecap="square"></path>
                <text id="Notes-Copy-4" fill="#757575" font-family="Roboto-Medium, Roboto" font-size="14" font-weight="400">
                    <tspan x="70" y="82">Notes</tspan>
                </text>
                <text id="Collections-Copy-4" fill="#757575" font-family="Roboto-Medium, Roboto" font-size="14" font-weight="400">
                    <tspan x="131" y="82">Collections</tspan>
                </text>
                <text id="Failed-CC-Payments-Copy-4" fill="#0E94A6" font-family="Roboto-Medium, Roboto" font-size="14" font-weight="400">
                    <tspan x="322" y="82">Failed CC Payments</tspan>
                </text>
                <path d="M311,93.9898462 L311,63.0307692 C311,61.9092064 310.303554,61 309.444444,61 L214.555556,61 C213.696446,61 213,61.9092064 213,63.0307692 L213,94" id="Shape-Copy-8" stroke="#D8D8D8" fill="#FAFAFA" fill-rule="nonzero"></path>
                <text id="Transaction-Copy-4" fill="#0C7C84" font-family="Roboto-Medium, Roboto" font-size="14" font-weight="400">
                    <tspan x="225" y="82">Transaction</tspan>
                </text>
                <g id="specs-/-redlines-/-line-regular" transform="translate(443.000000, 101.000000) rotate(-90.000000) translate(-443.000000, -101.000000) translate(431.000000, 93.000000)">
                    <path d="M3.5,15.5 L3.5,9.5 C3.5,6.1862915 6.17653633,3.5 9.50065947,3.5 L23.5,3.5" id="redline-line" stroke="#EC407A" stroke-width="1"></path>
                    <g id="specs-/-redlines-/-line-end-/-arrow" transform="translate(17.000000, 0.000000)">
                        <g id="redline-end">
                            <use fill="#FFFFFF" fill-rule="evenodd" xlink:href="#path-3"></use>
                            <path stroke="#EC407A" stroke-width="1" d="M5.88196601,3.5 L0.5,0.809016994 L0.5,6.19098301 L5.88196601,3.5 Z"></path>
                        </g>
                    </g>
                    <g id="specs-/-redlines-/-line-end-/-circle" transform="translate(0.000000, 9.000000)">
                        <g id="redline-start">
                            <use fill="#FFFFFF" fill-rule="evenodd" xlink:href="#path-4"></use>
                            <circle stroke="#EC407A" stroke-width="1" cx="3.5" cy="3.5" r="3"></circle>
                        </g>
                    </g>
                </g>
                <g id="specs-/-redlines-/-label-copy-12" transform="translate(455.000000, 101.000000)" font-size="12" font-family="Roboto-Regular, Roboto" fill="#EC407A" font-weight="normal">
                    <text id="redline-label">
                        <tspan x="0" y="11">Pressed:</tspan>
                        <tspan x="0" y="25">#0e94a6 (cyan 700)</tspan>
                    </text>
                </g>
                <path d="M417,92 L418,92 L418,90 L417,90 L417,92 L417,92 Z M418,89 L418,90 L420,90 L420,89 L418,89 L418,89 Z M422,92 L422,84 L421,84 L421,90 L420,90 L420,91 L421,91 L421,92 L422,92 L422,92 Z M422,84 L424,84 L424,83 L422,83 L422,84 L422,84 Z M425,88 L427,88 L427,87 L425,87 L425,84 L424,84 L424,90 L425,90 L425,88 L425,88 Z M428,90 L428,88 L427,88 L427,90 L428,90 L428,90 Z M428,88 L430,88 L430,87 L428,87 L428,88 L428,88 Z M431,89 L432,89 L432,88 L430,88 L430,89 L430,90 L431,90 L431,89 L431,89 Z M432,89 L432,96 L433,96 L433,89 L432,89 L432,89 Z M431,96 L431,98 L432,98 L432,96 L431,96 L431,96 Z M431,98 L423,98 L423,99 L431,99 L431,98 L431,98 Z M423,97 L422,97 L422,98 L423,98 L423,97 L423,97 Z M422,96 L421,96 L421,97 L422,97 L422,96 L422,96 Z M421,95 L420,95 L420,96 L421,96 L421,95 L421,95 Z M420,93 L419,93 L419,95 L420,95 L420,93 L420,93 Z M419,92 L418,92 L418,93 L419,93 L419,92 L419,92 Z" id="Shape-Copy-4" fill="#000000"></path>
            </g>
        </g>
    </g>
</svg>