<?xml version="1.0" encoding="UTF-8" standalone="no"?>
<svg width="522px" height="287px" viewBox="0 0 522 287" version="1.1" xmlns="http://www.w3.org/2000/svg" xmlns:xlink="http://www.w3.org/1999/xlink">
    <!-- Generator: Sketch 46.2 (44496) - http://www.bohemiancoding.com/sketch -->
    <title>Group</title>
    <desc>Created with Sketch.</desc>
    <style>
      @import url("https://fonts.googleapis.com/css?family=Roboto:300,400");
      @import url("https://stackpath.bootstrapcdn.com/font-awesome/4.7.0/css/font-awesome.min.css")
    </style>
    <defs>
        <rect id="path-1" x="70" y="0" width="56" height="28" rx="14"></rect>
        <polygon id="path-2" points="7 3.5 0 7 0 0"></polygon>
        <circle id="path-3" cx="3.5" cy="3.5" r="3.5"></circle>
        <polygon id="path-4" points="7 3.5 0 7 0 0"></polygon>
        <circle id="path-5" cx="3.5" cy="3.5" r="3.5"></circle>
    </defs>
    <g id="Page-1" stroke="none" stroke-width="1" fill="none" fill-rule="evenodd">
        <g id="Group" transform="translate(-47.000000, -54.000000)">
            <g id="Default-Layout-bg-&amp;-caption">
                <rect id="img-container-span-8" x="0" y="0" width="633" height="430"></rect>
            </g>
            <g id="Default-Layout-image" transform="translate(47.000000, 45.000000)">
                <g id="Without-Text">
                    <g id="specs-/-redlines-/-label-title-lg" font-size="20" font-family="Roboto-Regular, Roboto" fill="#9E9E9E" font-weight="normal">
                        <text id="LARGE-LABEL">
                            <tspan x="0" y="23.4230769">Without text</tspan>
                        </text>
                    </g>
                    <g id="State-2" transform="translate(145.000000, 76.000000)">
                        <path d="M2.91992188,13.8310547 C2.1158814,13.5999337 1.53076355,13.3159197 1.16455078,12.9790039 C0.798338013,12.6420882 0.615234375,12.2262395 0.615234375,11.7314453 C0.615234375,11.1715467 0.83902771,10.7084979 1.28662109,10.3422852 C1.73421448,9.97607239 2.31607715,9.79296875 3.03222656,9.79296875 C3.52051025,9.79296875 3.95589001,9.88736885 4.33837891,10.0761719 C4.7208678,10.2649749 5.01708879,10.525389 5.22705078,10.8574219 C5.43701277,11.1894548 5.54199219,11.5524069 5.54199219,11.9462891 L4.59960938,11.9462891 C4.59960938,11.5165994 4.46289199,11.1788749 4.18945312,10.9331055 C3.91601426,10.687336 3.53027593,10.5644531 3.03222656,10.5644531 C2.56998467,10.5644531 2.20947395,10.6661774 1.95068359,10.8696289 C1.69189324,11.0730804 1.5625,11.3554669 1.5625,11.7167969 C1.5625,12.0065119 1.68538289,12.2514638 1.93115234,12.4516602 C2.1769218,12.6518565 2.59521189,12.8349601 3.18603516,13.0009766 C3.77685842,13.166993 4.23909338,13.3500967 4.57275391,13.550293 C4.90641443,13.7504893 5.15380779,13.9840481 5.31494141,14.2509766 C5.47607502,14.517905 5.55664062,14.8320294 5.55664062,15.1933594 C5.55664062,15.7695341 5.3320335,16.2309553 4.8828125,16.5776367 C4.4335915,16.9243181 3.83301157,17.0976562 3.08105469,17.0976562 C2.592771,17.0976562 2.13704639,17.0040699 1.71386719,16.8168945 C1.29068799,16.6297191 0.964356616,16.373374 0.734863281,16.0478516 C0.505369946,15.7223291 0.390625,15.3528667 0.390625,14.9394531 L1.33300781,14.9394531 C1.33300781,15.3691428 1.49169763,15.7084948 1.80908203,15.9575195 C2.12646643,16.2065442 2.55045308,16.3310547 3.08105469,16.3310547 C3.57584883,16.3310547 3.95507681,16.2301442 4.21875,16.0283203 C4.48242319,15.8264964 4.61425781,15.551434 4.61425781,15.203125 C4.61425781,14.854816 4.49218872,14.5854502 4.24804688,14.3950195 C4.00390503,14.2045889 3.56120112,14.0166025 2.91992188,13.8310547 Z M11.6699219,10.6621094 L9.38476562,10.6621094 L9.38476562,17 L8.45214844,17 L8.45214844,10.6621094 L6.171875,10.6621094 L6.171875,9.890625 L11.6699219,9.890625 L11.6699219,10.6621094 Z M16.2646484,15.1445312 L13.2861328,15.1445312 L12.6171875,17 L11.6503906,17 L14.3652344,9.890625 L15.1855469,9.890625 L17.9052734,17 L16.9433594,17 L16.2646484,15.1445312 Z M13.5693359,14.3730469 L15.9863281,14.3730469 L14.7753906,11.0478516 L13.5693359,14.3730469 Z M23.1445312,10.6621094 L20.859375,10.6621094 L20.859375,17 L19.9267578,17 L19.9267578,10.6621094 L17.6464844,10.6621094 L17.6464844,9.890625 L23.1445312,9.890625 L23.1445312,10.6621094 Z M28.2177734,13.7138672 L25.1367188,13.7138672 L25.1367188,16.2333984 L28.7158203,16.2333984 L28.7158203,17 L24.1992188,17 L24.1992188,9.890625 L28.6669922,9.890625 L28.6669922,10.6621094 L25.1367188,10.6621094 L25.1367188,12.9472656 L28.2177734,12.9472656 L28.2177734,13.7138672 Z M36.7822266,17 L32.1240234,17 L32.1240234,16.3505859 L34.5849609,13.6162109 C34.9495461,13.2027974 35.2010084,12.8667005 35.3393555,12.6079102 C35.4777025,12.3491198 35.546875,12.0813816 35.546875,11.8046875 C35.546875,11.4335919 35.4345714,11.129233 35.2099609,10.8916016 C34.9853504,10.6539702 34.6858743,10.5351562 34.3115234,10.5351562 C33.8623024,10.5351562 33.5131848,10.6629219 33.2641602,10.918457 C33.0151355,11.1739922 32.890625,11.5296201 32.890625,11.9853516 L31.9873047,11.9853516 C31.9873047,11.3310514 32.1980773,10.8020854 32.6196289,10.3984375 C33.0411805,9.99478965 33.6051397,9.79296875 34.3115234,9.79296875 C34.972334,9.79296875 35.4947897,9.96630686 35.8789062,10.3129883 C36.2630228,10.6596697 36.4550781,11.1210909 36.4550781,11.6972656 C36.4550781,12.3971389 36.009119,13.2304639 35.1171875,14.1972656 L33.2128906,16.2626953 L36.7822266,16.2626953 L36.7822266,17 Z" id="STATE-2" fill="#9E9E9E"></path>
                        <g id="Rectangle-Copy">
                            <use fill="#FFFFFF" fill-rule="evenodd" xlink:href="#path-1"></use>
                            <rect stroke="#757575" stroke-width="2" x="71" y="1" width="54" height="26" rx="13"></rect>
                        </g>
                        <circle id="Oval-Copy" stroke="#757575" stroke-width="2" fill="#FFFFFF" cx="84" cy="14" r="13"></circle>
                    </g>
                    <g id="State-1" transform="translate(145.000000, 28.000000)">
                        <path d="M2.91992188,13.8310547 C2.1158814,13.5999337 1.53076355,13.3159197 1.16455078,12.9790039 C0.798338013,12.6420882 0.615234375,12.2262395 0.615234375,11.7314453 C0.615234375,11.1715467 0.83902771,10.7084979 1.28662109,10.3422852 C1.73421448,9.97607239 2.31607715,9.79296875 3.03222656,9.79296875 C3.52051025,9.79296875 3.95589001,9.88736885 4.33837891,10.0761719 C4.7208678,10.2649749 5.01708879,10.525389 5.22705078,10.8574219 C5.43701277,11.1894548 5.54199219,11.5524069 5.54199219,11.9462891 L4.59960938,11.9462891 C4.59960938,11.5165994 4.46289199,11.1788749 4.18945312,10.9331055 C3.91601426,10.687336 3.53027593,10.5644531 3.03222656,10.5644531 C2.56998467,10.5644531 2.20947395,10.6661774 1.95068359,10.8696289 C1.69189324,11.0730804 1.5625,11.3554669 1.5625,11.7167969 C1.5625,12.0065119 1.68538289,12.2514638 1.93115234,12.4516602 C2.1769218,12.6518565 2.59521189,12.8349601 3.18603516,13.0009766 C3.77685842,13.166993 4.23909338,13.3500967 4.57275391,13.550293 C4.90641443,13.7504893 5.15380779,13.9840481 5.31494141,14.2509766 C5.47607502,14.517905 5.55664062,14.8320294 5.55664062,15.1933594 C5.55664062,15.7695341 5.3320335,16.2309553 4.8828125,16.5776367 C4.4335915,16.9243181 3.83301157,17.0976562 3.08105469,17.0976562 C2.592771,17.0976562 2.13704639,17.0040699 1.71386719,16.8168945 C1.29068799,16.6297191 0.964356616,16.373374 0.734863281,16.0478516 C0.505369946,15.7223291 0.390625,15.3528667 0.390625,14.9394531 L1.33300781,14.9394531 C1.33300781,15.3691428 1.49169763,15.7084948 1.80908203,15.9575195 C2.12646643,16.2065442 2.55045308,16.3310547 3.08105469,16.3310547 C3.57584883,16.3310547 3.95507681,16.2301442 4.21875,16.0283203 C4.48242319,15.8264964 4.61425781,15.551434 4.61425781,15.203125 C4.61425781,14.854816 4.49218872,14.5854502 4.24804688,14.3950195 C4.00390503,14.2045889 3.56120112,14.0166025 2.91992188,13.8310547 Z M11.6699219,10.6621094 L9.38476562,10.6621094 L9.38476562,17 L8.45214844,17 L8.45214844,10.6621094 L6.171875,10.6621094 L6.171875,9.890625 L11.6699219,9.890625 L11.6699219,10.6621094 Z M16.2646484,15.1445312 L13.2861328,15.1445312 L12.6171875,17 L11.6503906,17 L14.3652344,9.890625 L15.1855469,9.890625 L17.9052734,17 L16.9433594,17 L16.2646484,15.1445312 Z M13.5693359,14.3730469 L15.9863281,14.3730469 L14.7753906,11.0478516 L13.5693359,14.3730469 Z M23.1445312,10.6621094 L20.859375,10.6621094 L20.859375,17 L19.9267578,17 L19.9267578,10.6621094 L17.6464844,10.6621094 L17.6464844,9.890625 L23.1445312,9.890625 L23.1445312,10.6621094 Z M28.2177734,13.7138672 L25.1367188,13.7138672 L25.1367188,16.2333984 L28.7158203,16.2333984 L28.7158203,17 L24.1992188,17 L24.1992188,9.890625 L28.6669922,9.890625 L28.6669922,10.6621094 L25.1367188,10.6621094 L25.1367188,12.9472656 L28.2177734,12.9472656 L28.2177734,13.7138672 Z M35.0927734,17 L34.1845703,17 L34.1845703,10.9794922 L32.3632812,11.6484375 L32.3632812,10.828125 L34.9511719,9.85644531 L35.0927734,9.85644531 L35.0927734,17 Z" id="STATE-1" fill="#9E9E9E"></path>
                        <rect id="Rectangle" fill="#0C7C84" transform="translate(98.000000, 14.000000) scale(-1, -1) translate(-98.000000, -14.000000) " x="70" y="0" width="56" height="28" rx="14"></rect>
                        <circle id="Oval" stroke="#0C7C84" stroke-width="2" fill="#FFFFFF" transform="translate(112.000000, 14.000000) scale(-1, -1) translate(-112.000000, -14.000000) " cx="112" cy="14" r="13"></circle>
                    </g>
                    <g id="Without-text-measurements" transform="translate(211.000000, 75.000000)">
                        <path d="M87.6191406,18 L82.0292969,18 L82.0292969,17.2207031 L84.9824219,13.9394531 C85.4199241,13.4433569 85.7216789,13.0400406 85.8876953,12.7294922 C86.0537118,12.4189438 86.1367188,12.0976579 86.1367188,11.765625 C86.1367188,11.3203103 86.0019545,10.9550796 85.7324219,10.6699219 C85.4628893,10.3847642 85.1035179,10.2421875 84.6542969,10.2421875 C84.1152317,10.2421875 83.6962906,10.3955063 83.3974609,10.7021484 C83.0986313,11.0087906 82.9492188,11.4355441 82.9492188,11.9824219 L81.8652344,11.9824219 C81.8652344,11.1972617 82.1181615,10.5625024 82.6240234,10.078125 C83.1298853,9.59374758 83.8066364,9.3515625 84.6542969,9.3515625 C85.4472696,9.3515625 86.0742164,9.55956823 86.5351562,9.97558594 C86.9960961,10.3916036 87.2265625,10.945309 87.2265625,11.6367188 C87.2265625,12.4765667 86.6914116,13.4765567 85.6210938,14.6367188 L83.3359375,17.1152344 L87.6191406,17.1152344 L87.6191406,18 Z M93.9414062,11.6953125 C93.9414062,12.1210959 93.8291027,12.4999983 93.6044922,12.8320312 C93.3798817,13.1640642 93.0761738,13.4238272 92.6933594,13.6113281 C93.1386741,13.8027353 93.4912096,14.0820294 93.7509766,14.4492188 C94.0107435,14.8164081 94.140625,15.2324196 94.140625,15.6972656 C94.140625,16.4355506 93.8916041,17.0234353 93.3935547,17.4609375 C92.8955053,17.8984397 92.2402384,18.1171875 91.4277344,18.1171875 C90.6074178,18.1171875 89.9501978,17.8974631 89.4560547,17.4580078 C88.9619116,17.0185525 88.7148438,16.4316443 88.7148438,15.6972656 C88.7148438,15.2363258 88.8408191,14.8203144 89.0927734,14.4492188 C89.3447278,14.0781231 89.6933571,13.796876 90.1386719,13.6054688 C89.7597637,13.4179678 89.4609386,13.1582048 89.2421875,12.8261719 C89.0234364,12.494139 88.9140625,12.1171896 88.9140625,11.6953125 C88.9140625,10.9765589 89.1445289,10.4062521 89.6054688,9.984375 C90.0664086,9.56249789 90.6738244,9.3515625 91.4277344,9.3515625 C92.1777381,9.3515625 92.7841774,9.56249789 93.2470703,9.984375 C93.7099633,10.4062521 93.9414062,10.9765589 93.9414062,11.6953125 Z M93.0566406,15.6738281 C93.0566406,15.1972632 92.905275,14.8085953 92.6025391,14.5078125 C92.2998032,14.2070297 91.9042993,14.0566406 91.4160156,14.0566406 C90.9277319,14.0566406 90.5361343,14.2050766 90.2412109,14.5019531 C89.9462876,14.7988296 89.7988281,15.1894507 89.7988281,15.6738281 C89.7988281,16.1582055 89.9423814,16.5390611 90.2294922,16.8164062 C90.516603,17.0937514 90.9160131,17.2324219 91.4277344,17.2324219 C91.9355494,17.2324219 92.3339829,17.0927748 92.6230469,16.8134766 C92.9121108,16.5341783 93.0566406,16.1542993 93.0566406,15.6738281 Z M91.4277344,10.2421875 C91.001951,10.2421875 90.6572279,10.3740221 90.3935547,10.6376953 C90.1298815,10.9013685 89.9980469,11.2597634 89.9980469,11.7128906 C89.9980469,12.1464865 90.1279284,12.497069 90.3876953,12.7646484 C90.6474622,13.0322279 90.9941385,13.1660156 91.4277344,13.1660156 C91.8613303,13.1660156 92.2080065,13.0322279 92.4677734,12.7646484 C92.7275404,12.497069 92.8574219,12.1464865 92.8574219,11.7128906 C92.8574219,11.2792947 92.7226576,10.9257826 92.453125,10.6523438 C92.1835924,10.3789049 91.8417989,10.2421875 91.4277344,10.2421875 Z M99.8828125,14.6601562 L99.8828125,18 L98.7578125,18 L98.7578125,9.46875 L101.904297,9.46875 C102.837895,9.46875 103.569333,9.70702887 104.098633,10.1835938 C104.627932,10.6601586 104.892578,11.2910117 104.892578,12.0761719 C104.892578,12.904301 104.633792,13.54199 104.116211,13.9892578 C103.59863,14.4365257 102.857427,14.6601562 101.892578,14.6601562 L99.8828125,14.6601562 Z M99.8828125,13.7402344 L101.904297,13.7402344 C102.505862,13.7402344 102.966795,13.5986342 103.287109,13.3154297 C103.607423,13.0322251 103.767578,12.6230496 103.767578,12.0878906 C103.767578,11.5800756 103.607423,11.1738296 103.287109,10.8691406 C102.966795,10.5644516 102.527347,10.4062501 101.96875,10.3945312 L99.8828125,10.3945312 L99.8828125,13.7402344 Z M108.929688,12.7382812 L110.974609,9.46875 L112.298828,9.46875 L109.603516,13.6992188 L112.363281,18 L111.027344,18 L108.929688,14.671875 L106.820312,18 L105.490234,18 L108.255859,13.6992188 L105.554688,9.46875 L106.873047,9.46875 L108.929688,12.7382812 Z" id="label-copy-2" fill="#EC407A"></path>
                        <g id="specs-/-redlines-/-curly-brace" transform="translate(65.000000, 0.000000)" stroke="#EC407A">
                            <path d="M0,0.0927152318 C11.9522975,0.0927152318 0.038597991,14 12,14" id="Path-2"></path>
                            <path d="M0,14 C11.9522975,14 0.038597991,27.9072848 12,27.9072848" id="Path-2-Copy" transform="translate(6.000000, 20.953642) scale(1, -1) translate(-6.000000, -20.953642) "></path>
                        </g>
                        <path d="M18.0273438,55.7226562 L18.4609375,51.46875 L22.8320312,51.46875 L22.8320312,52.4707031 L19.3808594,52.4707031 L19.1230469,54.796875 C19.5410177,54.55078 20.0156223,54.4277344 20.546875,54.4277344 C21.3242226,54.4277344 21.941404,54.6845677 22.3984375,55.1982422 C22.855471,55.7119166 23.0839844,56.4062456 23.0839844,57.28125 C23.0839844,58.1601606 22.8466821,58.8525365 22.3720703,59.3583984 C21.8974586,59.8642603 21.2343793,60.1171875 20.3828125,60.1171875 C19.6289025,60.1171875 19.0136743,59.9082052 18.5371094,59.4902344 C18.0605445,59.0722635 17.7890628,58.4941443 17.7226562,57.7558594 L18.7480469,57.7558594 C18.8144535,58.2441431 18.9882798,58.6123034 19.2695312,58.8603516 C19.5507827,59.1083997 19.9218727,59.2324219 20.3828125,59.2324219 C20.8867213,59.2324219 21.2822251,59.0605486 21.5693359,58.7167969 C21.8564467,58.3730452 22,57.8984405 22,57.2929688 C22,56.7226534 21.8447281,56.2646502 21.5341797,55.9189453 C21.2236313,55.5732405 20.8105495,55.4003906 20.2949219,55.4003906 C19.8222633,55.4003906 19.4511732,55.5039052 19.1816406,55.7109375 L18.8945312,55.9453125 L18.0273438,55.7226562 Z M28.5214844,51.4628906 L28.5214844,52.3828125 L28.3222656,52.3828125 C27.4785114,52.3984376 26.8066431,52.6484351 26.3066406,53.1328125 C25.8066381,53.6171899 25.5175785,54.2988237 25.4394531,55.1777344 C25.8886741,54.6621068 26.5019492,54.4042969 27.2792969,54.4042969 C28.0214881,54.4042969 28.6142556,54.666013 29.0576172,55.1894531 C29.5009788,55.7128932 29.7226562,56.3886677 29.7226562,57.2167969 C29.7226562,58.0957075 29.4834008,58.7988255 29.0048828,59.3261719 C28.5263648,59.8535183 27.8847696,60.1171875 27.0800781,60.1171875 C26.2636678,60.1171875 25.601565,59.8037141 25.09375,59.1767578 C24.585935,58.5498016 24.3320312,57.7421924 24.3320312,56.7539062 L24.3320312,56.3378906 C24.3320312,54.7675703 24.6669888,53.567387 25.3369141,52.7373047 C26.0068393,51.9072224 27.0038996,51.482422 28.328125,51.4628906 L28.5214844,51.4628906 Z M27.0976562,55.3066406 C26.7265606,55.3066406 26.3847672,55.4179676 26.0722656,55.640625 C25.7597641,55.8632824 25.5429694,56.1425764 25.421875,56.4785156 L25.421875,56.8769531 C25.421875,57.5800816 25.5800765,58.1464822 25.8964844,58.5761719 C26.2128922,59.0058615 26.6074195,59.2207031 27.0800781,59.2207031 C27.5683618,59.2207031 27.952147,59.0410174 28.2314453,58.6816406 C28.5107436,58.3222638 28.6503906,57.8515654 28.6503906,57.2695312 C28.6503906,56.6835908 28.5087905,56.2099627 28.2255859,55.8486328 C27.9423814,55.4873029 27.5664086,55.3066406 27.0976562,55.3066406 Z M35.3828125,56.6601562 L35.3828125,60 L34.2578125,60 L34.2578125,51.46875 L37.4042969,51.46875 C38.3378953,51.46875 39.0693333,51.7070289 39.5986328,52.1835938 C40.1279323,52.6601586 40.3925781,53.2910117 40.3925781,54.0761719 C40.3925781,54.904301 40.1337917,55.54199 39.6162109,55.9892578 C39.0986302,56.4365257 38.3574267,56.6601562 37.3925781,56.6601562 L35.3828125,56.6601562 Z M35.3828125,55.7402344 L37.4042969,55.7402344 C38.0058624,55.7402344 38.4667953,55.5986342 38.7871094,55.3154297 C39.1074235,55.0322251 39.2675781,54.6230496 39.2675781,54.0878906 C39.2675781,53.5800756 39.1074235,53.1738296 38.7871094,52.8691406 C38.4667953,52.5644516 38.0273465,52.4062501 37.46875,52.3945312 L35.3828125,52.3945312 L35.3828125,55.7402344 Z M44.4296875,54.7382812 L46.4746094,51.46875 L47.7988281,51.46875 L45.1035156,55.6992188 L47.8632812,60 L46.5273438,60 L44.4296875,56.671875 L42.3203125,60 L40.9902344,60 L43.7558594,55.6992188 L41.0546875,51.46875 L42.3730469,51.46875 L44.4296875,54.7382812 Z" id="label-copy-3" fill="#EC407A"></path>
                        <g id="specs-/-redlines-/-curly-brace" transform="translate(32.000000, 38.000000) rotate(-270.000000) translate(-32.000000, -38.000000) translate(22.000000, 10.000000)" stroke="#EC407A">
                            <path d="M0,0.185430464 C19.9204958,0.185430464 0.064329985,28 20,28" id="Path-2"></path>
                            <path d="M0,28 C19.9204958,28 0.064329985,55.8145695 20,55.8145695" id="Path-2-Copy" transform="translate(10.000000, 41.907285) scale(1, -1) translate(-10.000000, -41.907285) "></path>
                        </g>
                    </g>
                </g>
                <g id="With-text" transform="translate(0.000000, 163.000000)">
                    <g id="specs-/-redlines-/-label-title-lg" font-size="20" font-family="Roboto-Regular, Roboto" fill="#9E9E9E" font-weight="normal">
                        <text id="LARGE-LABEL">
                            <tspan x="0" y="23.4230769">With text</tspan>
                        </text>
                    </g>
                    <g id="State-2" transform="translate(145.000000, 76.000000)">
                        <path d="M133,14 C133,21.6729655 126.741908,28 119.021292,28 L78.9787077,28 C71.2580923,28 65,21.6729655 65,14 C65,6.32703448 71.2580923,0 78.9787077,0 L119.021292,0 C126.741908,0 133,6.32703448 133,14" id="Fill-228-Copy" stroke="#757575" stroke-width="2" fill="#FFFFFF"></path>
                        <path d="M65,14 C65,6.83142857 70.8314286,1 78,1 C85.1685714,1 91,6.83142857 91,14 C91,21.1685714 85.1685714,27 78,27 C70.8314286,27 65,21.1685714 65,14 Z" id="Fill-231-Copy" stroke="#757575" stroke-width="2" fill="#FFFFFF"></path>
                        <path d="M105.234375,14.609375 C105.234375,15.7239639 105.041669,16.7018187 104.65625,17.5429688 C104.270831,18.3841188 103.720056,19.0299457 103.003906,19.4804688 C102.287757,19.9309918 101.463546,20.15625 100.53125,20.15625 C99.6093704,20.15625 98.787764,19.9309918 98.0664062,19.4804688 C97.3450485,19.0299457 96.7877624,18.388025 96.3945312,17.5546875 C96.0013001,16.72135 95.8020834,15.7604221 95.796875,14.671875 L95.796875,14.03125 C95.796875,12.9218695 95.9934876,11.9427126 96.3867188,11.09375 C96.7799499,10.2447874 97.3346318,9.59505434 98.0507812,9.14453125 C98.7669307,8.69400816 99.588537,8.46875 100.515625,8.46875 C101.442713,8.46875 102.264319,8.69140402 102.980469,9.13671875 C103.696618,9.58203348 104.249998,10.2226521 104.640625,11.0585938 C105.031252,11.8945354 105.229167,12.867182 105.234375,13.9765625 L105.234375,14.609375 Z M103.257812,14.015625 C103.257812,12.755202 103.019534,11.7890659 102.542969,11.1171875 C102.066404,10.4453091 101.390629,10.109375 100.515625,10.109375 C99.6614541,10.109375 98.993492,10.4440071 98.5117188,11.1132812 C98.0299455,11.7825554 97.7838542,12.7291605 97.7734375,13.953125 L97.7734375,14.609375 C97.7734375,15.8593813 98.0169246,16.8255174 98.5039062,17.5078125 C98.9908879,18.1901076 99.6666623,18.53125 100.53125,18.53125 C101.406254,18.53125 102.079425,18.19792 102.550781,17.53125 C103.022138,16.86458 103.257812,15.8906314 103.257812,14.609375 L103.257812,14.015625 Z M113.757812,15.1796875 L109.179688,15.1796875 L109.179688,20 L107.203125,20 L107.203125,8.625 L114.429688,8.625 L114.429688,10.21875 L109.179688,10.21875 L109.179688,13.6015625 L113.757812,13.6015625 L113.757812,15.1796875 Z M122.546875,15.1796875 L117.96875,15.1796875 L117.96875,20 L115.992188,20 L115.992188,8.625 L123.21875,8.625 L123.21875,10.21875 L117.96875,10.21875 L117.96875,13.6015625 L122.546875,13.6015625 L122.546875,15.1796875 Z" id="OFF" fill="#757575"></path>
                        <path d="M2.91992188,14.8310547 C2.1158814,14.5999337 1.53076355,14.3159197 1.16455078,13.9790039 C0.798338013,13.6420882 0.615234375,13.2262395 0.615234375,12.7314453 C0.615234375,12.1715467 0.83902771,11.7084979 1.28662109,11.3422852 C1.73421448,10.9760724 2.31607715,10.7929688 3.03222656,10.7929688 C3.52051025,10.7929688 3.95589001,10.8873688 4.33837891,11.0761719 C4.7208678,11.2649749 5.01708879,11.525389 5.22705078,11.8574219 C5.43701277,12.1894548 5.54199219,12.5524069 5.54199219,12.9462891 L4.59960938,12.9462891 C4.59960938,12.5165994 4.46289199,12.1788749 4.18945312,11.9331055 C3.91601426,11.687336 3.53027593,11.5644531 3.03222656,11.5644531 C2.56998467,11.5644531 2.20947395,11.6661774 1.95068359,11.8696289 C1.69189324,12.0730804 1.5625,12.3554669 1.5625,12.7167969 C1.5625,13.0065119 1.68538289,13.2514638 1.93115234,13.4516602 C2.1769218,13.6518565 2.59521189,13.8349601 3.18603516,14.0009766 C3.77685842,14.166993 4.23909338,14.3500967 4.57275391,14.550293 C4.90641443,14.7504893 5.15380779,14.9840481 5.31494141,15.2509766 C5.47607502,15.517905 5.55664062,15.8320294 5.55664062,16.1933594 C5.55664062,16.7695341 5.3320335,17.2309553 4.8828125,17.5776367 C4.4335915,17.9243181 3.83301157,18.0976562 3.08105469,18.0976562 C2.592771,18.0976562 2.13704639,18.0040699 1.71386719,17.8168945 C1.29068799,17.6297191 0.964356616,17.373374 0.734863281,17.0478516 C0.505369946,16.7223291 0.390625,16.3528667 0.390625,15.9394531 L1.33300781,15.9394531 C1.33300781,16.3691428 1.49169763,16.7084948 1.80908203,16.9575195 C2.12646643,17.2065442 2.55045308,17.3310547 3.08105469,17.3310547 C3.57584883,17.3310547 3.95507681,17.2301442 4.21875,17.0283203 C4.48242319,16.8264964 4.61425781,16.551434 4.61425781,16.203125 C4.61425781,15.854816 4.49218872,15.5854502 4.24804688,15.3950195 C4.00390503,15.2045889 3.56120112,15.0166025 2.91992188,14.8310547 Z M11.6699219,11.6621094 L9.38476562,11.6621094 L9.38476562,18 L8.45214844,18 L8.45214844,11.6621094 L6.171875,11.6621094 L6.171875,10.890625 L11.6699219,10.890625 L11.6699219,11.6621094 Z M16.2646484,16.1445312 L13.2861328,16.1445312 L12.6171875,18 L11.6503906,18 L14.3652344,10.890625 L15.1855469,10.890625 L17.9052734,18 L16.9433594,18 L16.2646484,16.1445312 Z M13.5693359,15.3730469 L15.9863281,15.3730469 L14.7753906,12.0478516 L13.5693359,15.3730469 Z M23.1445312,11.6621094 L20.859375,11.6621094 L20.859375,18 L19.9267578,18 L19.9267578,11.6621094 L17.6464844,11.6621094 L17.6464844,10.890625 L23.1445312,10.890625 L23.1445312,11.6621094 Z M28.2177734,14.7138672 L25.1367188,14.7138672 L25.1367188,17.2333984 L28.7158203,17.2333984 L28.7158203,18 L24.1992188,18 L24.1992188,10.890625 L28.6669922,10.890625 L28.6669922,11.6621094 L25.1367188,11.6621094 L25.1367188,13.9472656 L28.2177734,13.9472656 L28.2177734,14.7138672 Z M36.7822266,18 L32.1240234,18 L32.1240234,17.3505859 L34.5849609,14.6162109 C34.9495461,14.2027974 35.2010084,13.8667005 35.3393555,13.6079102 C35.4777025,13.3491198 35.546875,13.0813816 35.546875,12.8046875 C35.546875,12.4335919 35.4345714,12.129233 35.2099609,11.8916016 C34.9853504,11.6539702 34.6858743,11.5351562 34.3115234,11.5351562 C33.8623024,11.5351562 33.5131848,11.6629219 33.2641602,11.918457 C33.0151355,12.1739922 32.890625,12.5296201 32.890625,12.9853516 L31.9873047,12.9853516 C31.9873047,12.3310514 32.1980773,11.8020854 32.6196289,11.3984375 C33.0411805,10.9947896 33.6051397,10.7929688 34.3115234,10.7929688 C34.972334,10.7929688 35.4947897,10.9663069 35.8789062,11.3129883 C36.2630228,11.6596697 36.4550781,12.1210909 36.4550781,12.6972656 C36.4550781,13.3971389 36.009119,14.2304639 35.1171875,15.1972656 L33.2128906,17.2626953 L36.7822266,17.2626953 L36.7822266,18 Z" id="STATE-2" fill="#9E9E9E"></path>
                    </g>
                    <g id="State-1" transform="translate(145.000000, 28.000000)">
                        <path d="M119.021292,28 L78.9787077,28 C71.2580923,28 65,21.6729655 65,14 C65,6.32703448 71.2580923,0 78.9787077,0 L119.021292,0 C126.741908,0 133,6.32703448 133,14 C133,21.6729655 126.741908,28 119.021292,28 Z" id="Fill-219-Copy" fill="#0C7C84"></path>
                        <path d="M106,14 C106,6.83142857 111.831429,1 119,1 C126.168571,1 132,6.83142857 132,14 C132,21.1685714 126.168571,27 119,27 C111.831429,27 106,21.1685714 106,14 Z" id="Fill-222-Copy" stroke="#0C7C84" stroke-width="2" fill="#FFFFFF"></path>
                        <path d="M89.234375,14.609375 C89.234375,15.7239639 89.0416686,16.7018187 88.65625,17.5429688 C88.2708314,18.3841188 87.7200557,19.0299457 87.0039062,19.4804688 C86.2877568,19.9309918 85.4635463,20.15625 84.53125,20.15625 C83.6093704,20.15625 82.787764,19.9309918 82.0664062,19.4804688 C81.3450485,19.0299457 80.7877624,18.388025 80.3945312,17.5546875 C80.0013001,16.72135 79.8020834,15.7604221 79.796875,14.671875 L79.796875,14.03125 C79.796875,12.9218695 79.9934876,11.9427126 80.3867188,11.09375 C80.7799499,10.2447874 81.3346318,9.59505434 82.0507812,9.14453125 C82.7669307,8.69400816 83.588537,8.46875 84.515625,8.46875 C85.442713,8.46875 86.2643193,8.69140402 86.9804688,9.13671875 C87.6966182,9.58203348 88.249998,10.2226521 88.640625,11.0585938 C89.031252,11.8945354 89.2291666,12.867182 89.234375,13.9765625 L89.234375,14.609375 Z M87.2578125,14.015625 C87.2578125,12.755202 87.0195336,11.7890659 86.5429688,11.1171875 C86.0664039,10.4453091 85.3906294,10.109375 84.515625,10.109375 C83.6614541,10.109375 82.993492,10.4440071 82.5117188,11.1132812 C82.0299455,11.7825554 81.7838542,12.7291605 81.7734375,13.953125 L81.7734375,14.609375 C81.7734375,15.8593813 82.0169246,16.8255174 82.5039062,17.5078125 C82.9908879,18.1901076 83.6666623,18.53125 84.53125,18.53125 C85.4062544,18.53125 86.0794247,18.19792 86.5507812,17.53125 C87.0221378,16.86458 87.2578125,15.8906314 87.2578125,14.609375 L87.2578125,14.015625 Z M100.226562,20 L98.25,20 L93.1796875,11.9296875 L93.1796875,20 L91.203125,20 L91.203125,8.625 L93.1796875,8.625 L98.265625,16.7265625 L98.265625,8.625 L100.226562,8.625 L100.226562,20 Z" id="ON" fill="#FFFFFF"></path>
                        <path d="M2.91992188,14.8310547 C2.1158814,14.5999337 1.53076355,14.3159197 1.16455078,13.9790039 C0.798338013,13.6420882 0.615234375,13.2262395 0.615234375,12.7314453 C0.615234375,12.1715467 0.83902771,11.7084979 1.28662109,11.3422852 C1.73421448,10.9760724 2.31607715,10.7929688 3.03222656,10.7929688 C3.52051025,10.7929688 3.95589001,10.8873688 4.33837891,11.0761719 C4.7208678,11.2649749 5.01708879,11.525389 5.22705078,11.8574219 C5.43701277,12.1894548 5.54199219,12.5524069 5.54199219,12.9462891 L4.59960938,12.9462891 C4.59960938,12.5165994 4.46289199,12.1788749 4.18945312,11.9331055 C3.91601426,11.687336 3.53027593,11.5644531 3.03222656,11.5644531 C2.56998467,11.5644531 2.20947395,11.6661774 1.95068359,11.8696289 C1.69189324,12.0730804 1.5625,12.3554669 1.5625,12.7167969 C1.5625,13.0065119 1.68538289,13.2514638 1.93115234,13.4516602 C2.1769218,13.6518565 2.59521189,13.8349601 3.18603516,14.0009766 C3.77685842,14.166993 4.23909338,14.3500967 4.57275391,14.550293 C4.90641443,14.7504893 5.15380779,14.9840481 5.31494141,15.2509766 C5.47607502,15.517905 5.55664062,15.8320294 5.55664062,16.1933594 C5.55664062,16.7695341 5.3320335,17.2309553 4.8828125,17.5776367 C4.4335915,17.9243181 3.83301157,18.0976562 3.08105469,18.0976562 C2.592771,18.0976562 2.13704639,18.0040699 1.71386719,17.8168945 C1.29068799,17.6297191 0.964356616,17.373374 0.734863281,17.0478516 C0.505369946,16.7223291 0.390625,16.3528667 0.390625,15.9394531 L1.33300781,15.9394531 C1.33300781,16.3691428 1.49169763,16.7084948 1.80908203,16.9575195 C2.12646643,17.2065442 2.55045308,17.3310547 3.08105469,17.3310547 C3.57584883,17.3310547 3.95507681,17.2301442 4.21875,17.0283203 C4.48242319,16.8264964 4.61425781,16.551434 4.61425781,16.203125 C4.61425781,15.854816 4.49218872,15.5854502 4.24804688,15.3950195 C4.00390503,15.2045889 3.56120112,15.0166025 2.91992188,14.8310547 Z M11.6699219,11.6621094 L9.38476562,11.6621094 L9.38476562,18 L8.45214844,18 L8.45214844,11.6621094 L6.171875,11.6621094 L6.171875,10.890625 L11.6699219,10.890625 L11.6699219,11.6621094 Z M16.2646484,16.1445312 L13.2861328,16.1445312 L12.6171875,18 L11.6503906,18 L14.3652344,10.890625 L15.1855469,10.890625 L17.9052734,18 L16.9433594,18 L16.2646484,16.1445312 Z M13.5693359,15.3730469 L15.9863281,15.3730469 L14.7753906,12.0478516 L13.5693359,15.3730469 Z M23.1445312,11.6621094 L20.859375,11.6621094 L20.859375,18 L19.9267578,18 L19.9267578,11.6621094 L17.6464844,11.6621094 L17.6464844,10.890625 L23.1445312,10.890625 L23.1445312,11.6621094 Z M28.2177734,14.7138672 L25.1367188,14.7138672 L25.1367188,17.2333984 L28.7158203,17.2333984 L28.7158203,18 L24.1992188,18 L24.1992188,10.890625 L28.6669922,10.890625 L28.6669922,11.6621094 L25.1367188,11.6621094 L25.1367188,13.9472656 L28.2177734,13.9472656 L28.2177734,14.7138672 Z M35.0927734,18 L34.1845703,18 L34.1845703,11.9794922 L32.3632812,12.6484375 L32.3632812,11.828125 L34.9511719,10.8564453 L35.0927734,10.8564453 L35.0927734,18 Z" id="STATE-1" fill="#9E9E9E"></path>
                    </g>
                    <g id="Measurements-state-2" transform="translate(210.000000, 55.000000)">
                        <path d="M23.7832031,68.4628906 L23.7832031,69.3828125 L23.5839844,69.3828125 C22.7402302,69.3984376 22.0683619,69.6484351 21.5683594,70.1328125 C21.0683569,70.6171899 20.7792973,71.2988237 20.7011719,72.1777344 C21.1503929,71.6621068 21.763668,71.4042969 22.5410156,71.4042969 C23.2832068,71.4042969 23.8759743,71.666013 24.3193359,72.1894531 C24.7626975,72.7128932 24.984375,73.3886677 24.984375,74.2167969 C24.984375,75.0957075 24.7451196,75.7988255 24.2666016,76.3261719 C23.7880835,76.8535183 23.1464884,77.1171875 22.3417969,77.1171875 C21.5253865,77.1171875 20.8632838,76.8037141 20.3554688,76.1767578 C19.8476537,75.5498016 19.59375,74.7421924 19.59375,73.7539062 L19.59375,73.3378906 C19.59375,71.7675703 19.9287076,70.567387 20.5986328,69.7373047 C21.268558,68.9072224 22.2656184,68.482422 23.5898438,68.4628906 L23.7832031,68.4628906 Z M22.359375,72.3066406 C21.9882794,72.3066406 21.6464859,72.4179676 21.3339844,72.640625 C21.0214828,72.8632824 20.8046881,73.1425764 20.6835938,73.4785156 L20.6835938,73.8769531 C20.6835938,74.5800816 20.8417953,75.1464822 21.1582031,75.5761719 C21.474611,76.0058615 21.8691383,76.2207031 22.3417969,76.2207031 C22.8300806,76.2207031 23.2138658,76.0410174 23.4931641,75.6816406 C23.7724623,75.3222638 23.9121094,74.8515654 23.9121094,74.2695312 C23.9121094,73.6835908 23.7705092,73.2099627 23.4873047,72.8486328 C23.2041001,72.4873029 22.8281273,72.3066406 22.359375,72.3066406 Z M31.4414062,70.6953125 C31.4414062,71.1210959 31.3291027,71.4999983 31.1044922,71.8320312 C30.8798817,72.1640642 30.5761738,72.4238272 30.1933594,72.6113281 C30.6386741,72.8027353 30.9912096,73.0820294 31.2509766,73.4492188 C31.5107435,73.8164081 31.640625,74.2324196 31.640625,74.6972656 C31.640625,75.4355506 31.3916041,76.0234353 30.8935547,76.4609375 C30.3955053,76.8984397 29.7402384,77.1171875 28.9277344,77.1171875 C28.1074178,77.1171875 27.4501978,76.8974631 26.9560547,76.4580078 C26.4619116,76.0185525 26.2148438,75.4316443 26.2148438,74.6972656 C26.2148438,74.2363258 26.3408191,73.8203144 26.5927734,73.4492188 C26.8447278,73.0781231 27.1933571,72.796876 27.6386719,72.6054688 C27.2597637,72.4179678 26.9609386,72.1582048 26.7421875,71.8261719 C26.5234364,71.494139 26.4140625,71.1171896 26.4140625,70.6953125 C26.4140625,69.9765589 26.6445289,69.4062521 27.1054688,68.984375 C27.5664086,68.5624979 28.1738244,68.3515625 28.9277344,68.3515625 C29.6777381,68.3515625 30.2841774,68.5624979 30.7470703,68.984375 C31.2099633,69.4062521 31.4414062,69.9765589 31.4414062,70.6953125 Z M30.5566406,74.6738281 C30.5566406,74.1972632 30.405275,73.8085953 30.1025391,73.5078125 C29.7998032,73.2070297 29.4042993,73.0566406 28.9160156,73.0566406 C28.4277319,73.0566406 28.0361343,73.2050766 27.7412109,73.5019531 C27.4462876,73.7988296 27.2988281,74.1894507 27.2988281,74.6738281 C27.2988281,75.1582055 27.4423814,75.5390611 27.7294922,75.8164062 C28.016603,76.0937514 28.4160131,76.2324219 28.9277344,76.2324219 C29.4355494,76.2324219 29.8339829,76.0927748 30.1230469,75.8134766 C30.4121108,75.5341783 30.5566406,75.1542993 30.5566406,74.6738281 Z M28.9277344,69.2421875 C28.501951,69.2421875 28.1572279,69.3740221 27.8935547,69.6376953 C27.6298815,69.9013685 27.4980469,70.2597634 27.4980469,70.7128906 C27.4980469,71.1464865 27.6279284,71.497069 27.8876953,71.7646484 C28.1474622,72.0322279 28.4941385,72.1660156 28.9277344,72.1660156 C29.3613303,72.1660156 29.7080065,72.0322279 29.9677734,71.7646484 C30.2275404,71.497069 30.3574219,71.1464865 30.3574219,70.7128906 C30.3574219,70.2792947 30.2226576,69.9257826 29.953125,69.6523438 C29.6835924,69.3789049 29.3417989,69.2421875 28.9277344,69.2421875 Z M37.3828125,73.6601562 L37.3828125,77 L36.2578125,77 L36.2578125,68.46875 L39.4042969,68.46875 C40.3378953,68.46875 41.0693333,68.7070289 41.5986328,69.1835938 C42.1279323,69.6601586 42.3925781,70.2910117 42.3925781,71.0761719 C42.3925781,71.904301 42.1337917,72.54199 41.6162109,72.9892578 C41.0986302,73.4365257 40.3574267,73.6601562 39.3925781,73.6601562 L37.3828125,73.6601562 Z M37.3828125,72.7402344 L39.4042969,72.7402344 C40.0058624,72.7402344 40.4667953,72.5986342 40.7871094,72.3154297 C41.1074235,72.0322251 41.2675781,71.6230496 41.2675781,71.0878906 C41.2675781,70.5800756 41.1074235,70.1738296 40.7871094,69.8691406 C40.4667953,69.5644516 40.0273465,69.4062501 39.46875,69.3945312 L37.3828125,69.3945312 L37.3828125,72.7402344 Z M46.4296875,71.7382812 L48.4746094,68.46875 L49.7988281,68.46875 L47.1035156,72.6992188 L49.8632812,77 L48.5273438,77 L46.4296875,73.671875 L44.3203125,77 L42.9902344,77 L45.7558594,72.6992188 L43.0546875,68.46875 L44.3730469,68.46875 L46.4296875,71.7382812 Z" id="label" fill="#EC407A"></path>
                        <g id="specs-/-redlines-/-curly-brace" transform="translate(34.500000, 57.500000) rotate(-270.000000) translate(-34.500000, -57.500000) translate(28.000000, 23.000000)" stroke="#EC407A">
                            <path d="M0,0.228476821 C12.9483223,0.228476821 0.0418144903,34.5 13,34.5" id="Path-2"></path>
                            <path d="M0,34.5 C12.9483223,34.5 0.0418144903,68.7715232 13,68.7715232" id="Path-2-Copy" transform="translate(6.500000, 51.635762) scale(1, -1) translate(-6.500000, -51.635762) "></path>
                        </g>
                        <path d="M104.775879,8.83642578 L102.938965,8.83642578 L102.938965,12 L101.902344,12 L101.902344,4.1796875 L104.491211,4.1796875 C105.372075,4.1796875 106.049721,4.38020633 106.52417,4.78125 C106.998619,5.18229367 107.23584,5.76594669 107.23584,6.53222656 C107.23584,7.01920816 107.104249,7.44352033 106.841064,7.80517578 C106.57788,8.16683124 106.211754,8.43717358 105.742676,8.61621094 L107.57959,11.9355469 L107.57959,12 L106.473145,12 L104.775879,8.83642578 Z M102.938965,7.99316406 L104.523438,7.99316406 C105.035484,7.99316406 105.442788,7.86067841 105.745361,7.59570312 C106.047934,7.33072784 106.199219,6.9762392 106.199219,6.53222656 C106.199219,6.04882571 106.055096,5.67822395 105.766846,5.42041016 C105.478596,5.16259637 105.06234,5.03190106 104.518066,5.02832031 L102.938965,5.02832031 L102.938965,7.99316406 Z M108.261719,9.04052734 C108.261719,8.47118856 108.373615,7.95914941 108.597412,7.50439453 C108.821209,7.04963965 109.132729,6.6987317 109.531982,6.45166016 C109.931236,6.20458861 110.386879,6.08105469 110.898926,6.08105469 C111.690271,6.08105469 112.33032,6.35497773 112.819092,6.90283203 C113.307864,7.45068633 113.552246,8.17935743 113.552246,9.08886719 L113.552246,9.15869141 C113.552246,9.72444944 113.44393,10.2320127 113.227295,10.6813965 C113.01066,11.1307802 112.70093,11.480793 112.298096,11.7314453 C111.895262,11.9820976 111.432457,12.1074219 110.909668,12.1074219 C110.121904,12.1074219 109.483645,11.8334988 108.994873,11.2856445 C108.506101,10.7377902 108.261719,10.0126998 108.261719,9.11035156 L108.261719,9.04052734 Z M109.260742,9.15869141 C109.260742,9.80322588 109.410236,10.3206361 109.709229,10.7109375 C110.008221,11.1012389 110.408363,11.2963867 110.909668,11.2963867 C111.414553,11.2963867 111.815591,11.0985534 112.112793,10.7028809 C112.409995,10.3072083 112.558594,9.75309601 112.558594,9.04052734 C112.558594,8.40315437 112.407309,7.88663935 112.104736,7.4909668 C111.802163,7.09529425 111.40023,6.89746094 110.898926,6.89746094 C110.408363,6.89746094 110.012697,7.09260873 109.711914,7.48291016 C109.411131,7.87321159 109.260742,8.43179975 109.260742,9.15869141 Z M119.718262,9.15869141 C119.718262,10.0467167 119.514162,10.7601698 119.105957,11.2990723 C118.697752,11.8379747 118.149906,12.1074219 117.462402,12.1074219 C116.728349,12.1074219 116.160809,11.8478216 115.759766,11.3286133 L115.711426,12 L114.79834,12 L114.79834,3.75 L115.791992,3.75 L115.791992,6.82763672 C116.193036,6.32991288 116.746253,6.08105469 117.45166,6.08105469 C118.157067,6.08105469 118.71118,6.34781634 119.114014,6.88134766 C119.516848,7.41487897 119.718262,8.14534042 119.718262,9.07275391 L119.718262,9.15869141 Z M118.724609,9.04589844 C118.724609,8.36913724 118.593914,7.84635601 118.33252,7.47753906 C118.071125,7.10872211 117.695152,6.92431641 117.20459,6.92431641 C116.549313,6.92431641 116.078452,7.22867534 115.791992,7.83740234 L115.791992,10.3510742 C116.096356,10.9598012 116.570798,11.2641602 117.215332,11.2641602 C117.691571,11.2641602 118.062173,11.0797544 118.327148,10.7109375 C118.592124,10.3421206 118.724609,9.78711308 118.724609,9.04589844 Z M120.706543,9.04052734 C120.706543,8.47118856 120.81844,7.95914941 121.042236,7.50439453 C121.266033,7.04963965 121.577553,6.6987317 121.976807,6.45166016 C122.37606,6.20458861 122.831703,6.08105469 123.34375,6.08105469 C124.135095,6.08105469 124.775144,6.35497773 125.263916,6.90283203 C125.752688,7.45068633 125.99707,8.17935743 125.99707,9.08886719 L125.99707,9.15869141 C125.99707,9.72444944 125.888754,10.2320127 125.672119,10.6813965 C125.455484,11.1307802 125.145754,11.480793 124.74292,11.7314453 C124.340086,11.9820976 123.877281,12.1074219 123.354492,12.1074219 C122.566728,12.1074219 121.928469,11.8334988 121.439697,11.2856445 C120.950925,10.7377902 120.706543,10.0126998 120.706543,9.11035156 L120.706543,9.04052734 Z M121.705566,9.15869141 C121.705566,9.80322588 121.85506,10.3206361 122.154053,10.7109375 C122.453045,11.1012389 122.853188,11.2963867 123.354492,11.2963867 C123.859378,11.2963867 124.260415,11.0985534 124.557617,10.7028809 C124.854819,10.3072083 125.003418,9.75309601 125.003418,9.04052734 C125.003418,8.40315437 124.852134,7.88663935 124.549561,7.4909668 C124.246987,7.09529425 123.845055,6.89746094 123.34375,6.89746094 C122.853188,6.89746094 122.457521,7.09260873 122.156738,7.48291016 C121.855956,7.87321159 121.705566,8.43179975 121.705566,9.15869141 Z M128.591309,4.78125 L128.591309,6.18847656 L129.67627,6.18847656 L129.67627,6.95654297 L128.591309,6.95654297 L128.591309,10.5605469 C128.591309,10.7932954 128.639648,10.9678542 128.736328,11.0842285 C128.833008,11.2006028 128.99772,11.2587891 129.230469,11.2587891 C129.345053,11.2587891 129.502603,11.2373049 129.703125,11.1943359 L129.703125,12 C129.44173,12.0716149 129.187501,12.1074219 128.94043,12.1074219 C128.496417,12.1074219 128.161622,11.9731459 127.936035,11.7045898 C127.710448,11.4360338 127.597656,11.05469 127.597656,10.5605469 L127.597656,6.95654297 L126.539551,6.95654297 L126.539551,6.18847656 L127.597656,6.18847656 L127.597656,4.78125 L128.591309,4.78125 Z M130.46582,9.04052734 C130.46582,8.47118856 130.577717,7.95914941 130.801514,7.50439453 C131.02531,7.04963965 131.336831,6.6987317 131.736084,6.45166016 C132.135337,6.20458861 132.590981,6.08105469 133.103027,6.08105469 C133.894372,6.08105469 134.534421,6.35497773 135.023193,6.90283203 C135.511965,7.45068633 135.756348,8.17935743 135.756348,9.08886719 L135.756348,9.15869141 C135.756348,9.72444944 135.648032,10.2320127 135.431396,10.6813965 C135.214761,11.1307802 134.905031,11.480793 134.502197,11.7314453 C134.099363,11.9820976 133.636559,12.1074219 133.11377,12.1074219 C132.326005,12.1074219 131.687747,11.8334988 131.198975,11.2856445 C130.710203,10.7377902 130.46582,10.0126998 130.46582,9.11035156 L130.46582,9.04052734 Z M131.464844,9.15869141 C131.464844,9.80322588 131.614338,10.3206361 131.91333,10.7109375 C132.212322,11.1012389 132.612465,11.2963867 133.11377,11.2963867 C133.618655,11.2963867 134.019693,11.0985534 134.316895,10.7028809 C134.614097,10.3072083 134.762695,9.75309601 134.762695,9.04052734 C134.762695,8.40315437 134.611411,7.88663935 134.308838,7.4909668 C134.006265,7.09529425 133.604332,6.89746094 133.103027,6.89746094 C132.612465,6.89746094 132.216798,7.09260873 131.916016,7.48291016 C131.615233,7.87321159 131.464844,8.43179975 131.464844,9.15869141 Z M136.970215,13.5576172 L136.40625,13.1708984 C136.74284,12.7018206 136.918294,12.218427 136.932617,11.7207031 L136.932617,10.8237305 L137.904785,10.8237305 L137.904785,11.6025391 C137.904785,11.9641945 137.816163,12.3258445 137.638916,12.6875 C137.461669,13.0491555 137.238771,13.3391916 136.970215,13.5576172 Z M143.372559,4.1796875 L145.929199,10.5605469 L148.48584,4.1796875 L149.823242,4.1796875 L149.823242,12 L148.791992,12 L148.791992,8.95458984 L148.888672,5.66748047 L146.321289,12 L145.531738,12 L142.969727,5.68359375 L143.071777,8.95458984 L143.071777,12 L142.040527,12 L142.040527,4.1796875 L143.372559,4.1796875 Z M153.899902,12.1074219 C153.112138,12.1074219 152.471194,11.8487168 151.977051,11.3312988 C151.482908,10.8138809 151.23584,10.1219119 151.23584,9.25537109 L151.23584,9.07275391 C151.23584,8.49625363 151.345946,7.98152896 151.566162,7.52856445 C151.786378,7.07559995 152.094318,6.72111131 152.48999,6.46508789 C152.885663,6.20906448 153.314451,6.08105469 153.776367,6.08105469 C154.531905,6.08105469 155.119139,6.32991288 155.538086,6.82763672 C155.957033,7.32536056 156.166504,8.03791854 156.166504,8.96533203 L156.166504,9.37890625 L152.229492,9.37890625 C152.243815,9.95182578 152.411213,10.4146304 152.731689,10.767334 C153.052166,11.1200376 153.45947,11.2963867 153.953613,11.2963867 C154.304526,11.2963867 154.601724,11.2247729 154.845215,11.081543 C155.088706,10.9383131 155.301757,10.7485363 155.484375,10.512207 L156.091309,10.9848633 C155.604327,11.7332394 154.873866,12.1074219 153.899902,12.1074219 Z M153.776367,6.89746094 C153.375324,6.89746094 153.038738,7.04337419 152.766602,7.33520508 C152.494465,7.62703596 152.326172,8.03613018 152.261719,8.5625 L155.172852,8.5625 L155.172852,8.48730469 C155.144206,7.98241935 155.008139,7.5912286 154.764648,7.3137207 C154.521158,7.03621281 154.191734,6.89746094 153.776367,6.89746094 Z M157.074219,9.04589844 C157.074219,8.15429242 157.28548,7.43725857 157.708008,6.89477539 C158.130536,6.35229221 158.683753,6.08105469 159.367676,6.08105469 C160.048018,6.08105469 160.586912,6.31379976 160.984375,6.77929688 L160.984375,3.75 L161.978027,3.75 L161.978027,12 L161.064941,12 L161.016602,11.3769531 C160.619139,11.8639347 160.065922,12.1074219 159.356934,12.1074219 C158.683753,12.1074219 158.135012,11.8317085 157.710693,11.2802734 C157.286375,10.7288384 157.074219,10.009119 157.074219,9.12109375 L157.074219,9.04589844 Z M158.067871,9.15869141 C158.067871,9.81754887 158.203937,10.3331687 158.476074,10.7055664 C158.748211,11.0779641 159.124184,11.2641602 159.604004,11.2641602 C160.234215,11.2641602 160.694334,10.9812854 160.984375,10.4155273 L160.984375,7.74609375 C160.687173,7.19823945 160.230635,6.92431641 159.614746,6.92431641 C159.127764,6.92431641 158.748211,7.11230281 158.476074,7.48828125 C158.203937,7.86425969 158.067871,8.42105751 158.067871,9.15869141 Z M164.599121,12 L163.605469,12 L163.605469,6.18847656 L164.599121,6.18847656 L164.599121,12 Z M163.524902,4.64697266 C163.524902,4.48583904 163.574137,4.34977269 163.672607,4.23876953 C163.771078,4.12776637 163.916991,4.07226562 164.110352,4.07226562 C164.303712,4.07226562 164.45052,4.12776637 164.550781,4.23876953 C164.651042,4.34977269 164.701172,4.48583904 164.701172,4.64697266 C164.701172,4.80810627 164.651042,4.94238228 164.550781,5.04980469 C164.45052,5.1572271 164.303712,5.2109375 164.110352,5.2109375 C163.916991,5.2109375 163.771078,5.1572271 163.672607,5.04980469 C163.574137,4.94238228 163.524902,4.80810627 163.524902,4.64697266 Z M169.776855,11.425293 C169.390135,11.8800478 168.822595,12.1074219 168.074219,12.1074219 C167.45475,12.1074219 166.982993,11.927492 166.658936,11.567627 C166.334878,11.2077619 166.171061,10.6751337 166.16748,9.96972656 L166.16748,6.18847656 L167.161133,6.18847656 L167.161133,9.94287109 C167.161133,10.8237349 167.519202,11.2641602 168.235352,11.2641602 C168.99447,11.2641602 169.499348,10.9812854 169.75,10.4155273 L169.75,6.18847656 L170.743652,6.18847656 L170.743652,12 L169.79834,12 L169.776855,11.425293 Z M173.1875,6.18847656 L173.214355,6.83300781 C173.640464,6.33170322 174.215166,6.08105469 174.938477,6.08105469 C175.751306,6.08105469 176.304523,6.39257501 176.598145,7.015625 C176.791505,6.73632673 177.043049,6.51074305 177.352783,6.33886719 C177.662518,6.16699133 178.028644,6.08105469 178.451172,6.08105469 C179.725918,6.08105469 180.374023,6.75601539 180.395508,8.10595703 L180.395508,12 L179.401855,12 L179.401855,8.16503906 C179.401855,7.7496724 179.306967,7.43904725 179.117188,7.2331543 C178.927408,7.02726134 178.608726,6.92431641 178.161133,6.92431641 C177.792316,6.92431641 177.486167,7.03442273 177.242676,7.25463867 C176.999185,7.47485462 176.857748,7.77115699 176.818359,8.14355469 L176.818359,12 L175.819336,12 L175.819336,8.19189453 C175.819336,7.34683822 175.405766,6.92431641 174.578613,6.92431641 C173.926917,6.92431641 173.481121,7.20182014 173.241211,7.75683594 L173.241211,12 L172.247559,12 L172.247559,6.18847656 L173.1875,6.18847656 Z M181.861816,13.5576172 L181.297852,13.1708984 C181.634442,12.7018206 181.809896,12.218427 181.824219,11.7207031 L181.824219,10.8237305 L182.796387,10.8237305 L182.796387,11.6025391 C182.796387,11.9641945 182.707765,12.3258445 182.530518,12.6875 C182.353271,13.0491555 182.130372,13.3391916 181.861816,13.5576172 Z M189.939941,12 L188.940918,12 L188.940918,5.37744141 L186.9375,6.11328125 L186.9375,5.2109375 L189.78418,4.14208984 L189.939941,4.14208984 L189.939941,12 Z M196.750488,4.17431641 L196.750488,5.01757812 L196.567871,5.01757812 C195.79443,5.03190111 195.17855,5.26106549 194.720215,5.70507812 C194.261879,6.14909076 193.996908,6.77392175 193.925293,7.57958984 C194.337079,7.10693123 194.899248,6.87060547 195.611816,6.87060547 C196.292158,6.87060547 196.835529,7.11051192 197.241943,7.59033203 C197.648358,8.07015214 197.851562,8.68961209 197.851562,9.44873047 C197.851562,10.2543986 197.632245,10.8989234 197.193604,11.3823242 C196.754962,11.8657251 196.166833,12.1074219 195.429199,12.1074219 C194.680823,12.1074219 194.073896,11.8200712 193.608398,11.2453613 C193.142901,10.6706514 192.910156,9.93034307 192.910156,9.02441406 L192.910156,8.64306641 C192.910156,7.20360608 193.217201,6.10343805 193.831299,5.3425293 C194.445397,4.58162054 195.359369,4.19222014 196.573242,4.17431641 L196.750488,4.17431641 Z M195.445312,7.69775391 C195.105142,7.69775391 194.791831,7.79980367 194.505371,8.00390625 C194.218911,8.20800883 194.020183,8.46402841 193.90918,8.77197266 L193.90918,9.13720703 C193.90918,9.7817415 194.054198,10.300942 194.344238,10.6948242 C194.634279,11.0887064 194.995929,11.2856445 195.429199,11.2856445 C195.876793,11.2856445 196.228596,11.1209326 196.484619,10.7915039 C196.740643,10.4620752 196.868652,10.0306016 196.868652,9.49707031 C196.868652,8.95995825 196.738852,8.52579918 196.479248,8.19458008 C196.219644,7.86336097 195.875002,7.69775391 195.445312,7.69775391 Z M204.039062,9.15869141 C204.039062,10.0431359 203.836753,10.7556939 203.432129,11.2963867 C203.027504,11.8370795 202.479658,12.1074219 201.788574,12.1074219 C201.083167,12.1074219 200.52816,11.8836285 200.123535,11.4360352 L200.123535,14.234375 L199.129883,14.234375 L199.129883,6.18847656 L200.037598,6.18847656 L200.085938,6.83300781 C200.490562,6.33170322 201.052731,6.08105469 201.772461,6.08105469 C202.470707,6.08105469 203.023029,6.34423565 203.429443,6.87060547 C203.835858,7.39697529 204.039062,8.12922708 204.039062,9.06738281 L204.039062,9.15869141 Z M203.04541,9.04589844 C203.04541,8.39062172 202.905763,7.87321153 202.626465,7.49365234 C202.347167,7.11409315 201.964032,6.92431641 201.477051,6.92431641 C200.875485,6.92431641 200.424318,7.19107806 200.123535,7.72460938 L200.123535,10.5014648 C200.420737,11.0314154 200.875485,11.2963867 201.487793,11.2963867 C201.964032,11.2963867 202.342691,11.1075051 202.623779,10.7297363 C202.904868,10.3519675 203.04541,9.79069383 203.04541,9.04589844 Z M207.250977,8.31005859 L208.540039,6.18847656 L209.700195,6.18847656 L207.798828,9.06201172 L209.759277,12 L208.609863,12 L207.26709,9.82470703 L205.924316,12 L204.769531,12 L206.72998,9.06201172 L204.828613,6.18847656 L205.978027,6.18847656 L207.250977,8.31005859 Z M210.720703,13.5576172 L210.156738,13.1708984 C210.493329,12.7018206 210.668782,12.218427 210.683105,11.7207031 L210.683105,10.8237305 L211.655273,10.8237305 L211.655273,11.6025391 C211.655273,11.9641945 211.566651,12.3258445 211.389404,12.6875 C211.212157,13.0491555 210.989259,13.3391916 210.720703,13.5576172 Z M218.992188,9.79785156 L217.574219,9.79785156 L217.144531,12 L216.376465,12 L216.806152,9.79785156 L215.522461,9.79785156 L215.522461,9.06201172 L216.945801,9.06201172 L217.316406,7.16064453 L215.930664,7.16064453 L215.930664,6.4140625 L217.461426,6.4140625 L217.901855,4.1796875 L218.669922,4.1796875 L218.229492,6.4140625 L219.647461,6.4140625 L220.087891,4.1796875 L220.861328,4.1796875 L220.420898,6.4140625 L221.516602,6.4140625 L221.516602,7.16064453 L220.275879,7.16064453 L219.905273,9.06201172 L221.11377,9.06201172 L221.11377,9.79785156 L219.765625,9.79785156 L219.335938,12 L218.5625,12 L218.992188,9.79785156 Z M217.713867,9.06201172 L219.131836,9.06201172 L219.502441,7.16064453 L218.084473,7.16064453 L217.713867,9.06201172 Z M227.35498,4.73828125 L224.116211,12 L223.074219,12 L226.302246,4.99609375 L222.069824,4.99609375 L222.069824,4.1796875 L227.35498,4.1796875 L227.35498,4.73828125 Z M228.939453,8.07910156 L229.336914,4.1796875 L233.34375,4.1796875 L233.34375,5.09814453 L230.180176,5.09814453 L229.943848,7.23046875 C230.326988,7.00488168 230.762042,6.89208984 231.249023,6.89208984 C231.961592,6.89208984 232.527342,7.12752043 232.946289,7.59838867 C233.365236,8.06925691 233.574707,8.70572516 233.574707,9.5078125 C233.574707,10.3134806 233.35718,10.9481585 232.922119,11.4118652 C232.487058,11.875572 231.879236,12.1074219 231.098633,12.1074219 C230.407549,12.1074219 229.843589,11.9158548 229.406738,11.5327148 C228.969887,11.1495749 228.721029,10.6196323 228.660156,9.94287109 L229.600098,9.94287109 C229.66097,10.3904645 229.820311,10.7279448 230.078125,10.9553223 C230.335939,11.1826997 230.676105,11.2963867 231.098633,11.2963867 C231.560549,11.2963867 231.923094,11.1388362 232.186279,10.8237305 C232.449464,10.5086247 232.581055,10.0735705 232.581055,9.51855469 C232.581055,8.99576562 232.438722,8.57592932 232.154053,8.2590332 C231.869383,7.94213709 231.490725,7.78369141 231.018066,7.78369141 C230.584796,7.78369141 230.24463,7.87857978 229.997559,8.06835938 L229.734375,8.28320312 L228.939453,8.07910156 Z M239.708496,4.73828125 L236.469727,12 L235.427734,12 L238.655762,4.99609375 L234.42334,4.99609375 L234.42334,4.1796875 L239.708496,4.1796875 L239.708496,4.73828125 Z M241.292969,8.07910156 L241.69043,4.1796875 L245.697266,4.1796875 L245.697266,5.09814453 L242.533691,5.09814453 L242.297363,7.23046875 C242.680503,7.00488168 243.115557,6.89208984 243.602539,6.89208984 C244.315108,6.89208984 244.880857,7.12752043 245.299805,7.59838867 C245.718752,8.06925691 245.928223,8.70572516 245.928223,9.5078125 C245.928223,10.3134806 245.710696,10.9481585 245.275635,11.4118652 C244.840574,11.875572 244.232751,12.1074219 243.452148,12.1074219 C242.761064,12.1074219 242.197105,11.9158548 241.760254,11.5327148 C241.323403,11.1495749 241.074545,10.6196323 241.013672,9.94287109 L241.953613,9.94287109 C242.014486,10.3904645 242.173827,10.7279448 242.431641,10.9553223 C242.689454,11.1826997 243.02962,11.2963867 243.452148,11.2963867 C243.914065,11.2963867 244.27661,11.1388362 244.539795,10.8237305 C244.80298,10.5086247 244.93457,10.0735705 244.93457,9.51855469 C244.93457,8.99576562 244.792238,8.57592932 244.507568,8.2590332 C244.222899,7.94213709 243.844241,7.78369141 243.371582,7.78369141 C242.938312,7.78369141 242.598146,7.87857978 242.351074,8.06835938 L242.087891,8.28320312 L241.292969,8.07910156 Z M252.062012,4.73828125 L248.823242,12 L247.78125,12 L251.009277,4.99609375 L246.776855,4.99609375 L246.776855,4.1796875 L252.062012,4.1796875 L252.062012,4.73828125 Z M253.646484,8.07910156 L254.043945,4.1796875 L258.050781,4.1796875 L258.050781,5.09814453 L254.887207,5.09814453 L254.650879,7.23046875 C255.034019,7.00488168 255.469073,6.89208984 255.956055,6.89208984 C256.668623,6.89208984 257.234373,7.12752043 257.65332,7.59838867 C258.072268,8.06925691 258.281738,8.70572516 258.281738,9.5078125 C258.281738,10.3134806 258.064211,10.9481585 257.62915,11.4118652 C257.19409,11.875572 256.586267,12.1074219 255.805664,12.1074219 C255.11458,12.1074219 254.550621,11.9158548 254.11377,11.5327148 C253.676918,11.1495749 253.42806,10.6196323 253.367188,9.94287109 L254.307129,9.94287109 C254.368002,10.3904645 254.527342,10.7279448 254.785156,10.9553223 C255.04297,11.1826997 255.383136,11.2963867 255.805664,11.2963867 C256.26758,11.2963867 256.630126,11.1388362 256.893311,10.8237305 C257.156495,10.5086247 257.288086,10.0735705 257.288086,9.51855469 C257.288086,8.99576562 257.145753,8.57592932 256.861084,8.2590332 C256.576415,7.94213709 256.197756,7.78369141 255.725098,7.78369141 C255.291827,7.78369141 254.951661,7.87857978 254.70459,8.06835938 L254.441406,8.28320312 L253.646484,8.07910156 Z M262.154297,8.82568359 C262.154297,8.01643476 262.262613,7.2394243 262.479248,6.49462891 C262.695883,5.74983352 263.019041,5.07308247 263.44873,4.46435547 C263.87842,3.85562847 264.324216,3.42594526 264.786133,3.17529297 L264.990234,3.83056641 C264.467445,4.23161008 264.038657,4.84390864 263.703857,5.66748047 C263.369058,6.49105229 263.185547,7.41308083 263.15332,8.43359375 L263.147949,8.89013672 C263.147949,10.2723051 263.400388,11.4718374 263.905273,12.4887695 C264.209637,13.0974965 264.571287,13.5737288 264.990234,13.9174805 L264.786133,14.5244141 C264.309893,14.2594388 263.855145,13.8154328 263.421875,13.1923828 C262.576819,11.9749288 262.154297,10.519377 262.154297,8.82568359 Z M271.881348,10.9741211 C271.616372,11.3536803 271.246666,11.6374502 270.772217,11.8254395 C270.297768,12.0134287 269.745446,12.1074219 269.115234,12.1074219 C268.477861,12.1074219 267.912112,11.9579279 267.417969,11.6589355 C266.923826,11.3599432 266.541587,10.9347358 266.27124,10.3833008 C266.000894,9.83186573 265.862142,9.19271197 265.85498,8.46582031 L265.85498,7.78369141 C265.85498,6.60562562 266.129799,5.69254881 266.679443,5.04443359 C267.229088,4.39631837 268.001623,4.07226562 268.99707,4.07226562 C269.813481,4.07226562 270.470538,4.28084101 270.968262,4.69799805 C271.465986,5.11515508 271.770344,5.70686466 271.881348,6.47314453 L270.850098,6.47314453 C270.656737,5.43830863 270.040858,4.92089844 269.002441,4.92089844 C268.311357,4.92089844 267.787681,5.16349041 267.431396,5.64868164 C267.075112,6.13387287 266.895182,6.83658394 266.891602,7.75683594 L266.891602,8.39599609 C266.891602,9.27327913 267.09212,9.97061916 267.493164,10.4880371 C267.894208,11.0054551 268.436683,11.2641602 269.120605,11.2641602 C269.507326,11.2641602 269.845702,11.2211918 270.135742,11.1352539 C270.425783,11.049316 270.665689,10.9042979 270.855469,10.7001953 L270.855469,8.94384766 L269.04541,8.94384766 L269.04541,8.10595703 L271.881348,8.10595703 L271.881348,10.9741211 Z M276.253418,7.08007812 C276.103027,7.0550129 275.940105,7.04248047 275.764648,7.04248047 C275.112952,7.04248047 274.670737,7.3199842 274.437988,7.875 L274.437988,12 L273.444336,12 L273.444336,6.18847656 L274.411133,6.18847656 L274.427246,6.85986328 C274.753094,6.34065496 275.215004,6.08105469 275.812988,6.08105469 C276.006349,6.08105469 276.153157,6.10611954 276.253418,6.15625 L276.253418,7.08007812 Z M280.539551,12 C280.482259,11.8854161 280.43571,11.6813166 280.399902,11.3876953 C279.937986,11.8675154 279.386559,12.1074219 278.745605,12.1074219 C278.172686,12.1074219 277.70272,11.9453955 277.335693,11.6213379 C276.968667,11.2972803 276.785156,10.8863957 276.785156,10.3886719 C276.785156,9.78352562 277.015216,9.31355962 277.475342,8.97875977 C277.935468,8.64395991 278.582678,8.4765625 279.416992,8.4765625 L280.383789,8.4765625 L280.383789,8.02001953 C280.383789,7.67268707 280.279949,7.3960785 280.072266,7.19018555 C279.864582,6.98429259 279.558433,6.88134766 279.153809,6.88134766 C278.799315,6.88134766 278.502117,6.97086499 278.262207,7.14990234 C278.022297,7.3289397 277.902344,7.54557165 277.902344,7.79980469 L276.90332,7.79980469 C276.90332,7.50976417 277.006265,7.22957492 277.212158,6.95922852 C277.418051,6.68888211 277.697345,6.47493568 278.050049,6.31738281 C278.402752,6.15982994 278.790362,6.08105469 279.212891,6.08105469 C279.88249,6.08105469 280.407062,6.2484521 280.786621,6.58325195 C281.16618,6.9180518 281.363118,7.37906607 281.377441,7.96630859 L281.377441,10.6411133 C281.377441,11.1746446 281.445475,11.5989568 281.581543,11.9140625 L281.581543,12 L280.539551,12 Z M278.890625,11.2426758 C279.20215,11.2426758 279.497557,11.1621102 279.776855,11.0009766 C280.056154,10.8398429 280.258463,10.6303724 280.383789,10.3725586 L280.383789,9.18017578 L279.60498,9.18017578 C278.387526,9.18017578 277.778809,9.53645477 277.778809,10.2490234 C277.778809,10.5605484 277.882649,10.8040356 278.090332,10.9794922 C278.298015,11.1549488 278.564777,11.2426758 278.890625,11.2426758 Z M284.836426,10.5444336 L286.189941,6.18847656 L287.253418,6.18847656 L284.916992,12.8969727 C284.555337,13.8637744 283.980635,14.347168 283.192871,14.347168 L283.004883,14.3310547 L282.634277,14.2612305 L282.634277,13.4555664 L282.902832,13.4770508 C283.239422,13.4770508 283.501708,13.4090176 283.689697,13.2729492 C283.877686,13.1368808 284.032551,12.8880226 284.154297,12.5263672 L284.374512,11.9355469 L282.30127,6.18847656 L283.38623,6.18847656 L284.836426,10.5444336 Z M295.80957,4.73828125 L292.570801,12 L291.528809,12 L294.756836,4.99609375 L290.524414,4.99609375 L290.524414,4.1796875 L295.80957,4.1796875 L295.80957,4.73828125 Z M301.841309,8.66455078 C301.841309,9.82829358 301.64258,10.693031 301.245117,11.2587891 C300.847654,11.8245471 300.226404,12.1074219 299.381348,12.1074219 C298.547034,12.1074219 297.929364,11.8308133 297.52832,11.2775879 C297.127277,10.7243625 296.919596,9.89811748 296.905273,8.79882812 L296.905273,7.47216797 C296.905273,6.32274816 297.104002,5.46875279 297.501465,4.91015625 C297.898928,4.35155971 298.521968,4.07226562 299.370605,4.07226562 C300.212081,4.07226562 300.831541,4.3417128 301.229004,4.88061523 C301.626467,5.41951767 301.830566,6.2511337 301.841309,7.37548828 L301.841309,8.66455078 Z M300.847656,7.30566406 C300.847656,6.4641885 300.729493,5.85099476 300.493164,5.46606445 C300.256835,5.08113414 299.882652,4.88867188 299.370605,4.88867188 C298.862139,4.88867188 298.491538,5.08023897 298.258789,5.46337891 C298.026041,5.84651884 297.906087,6.4355429 297.898926,7.23046875 L297.898926,8.8203125 C297.898926,9.66536881 298.021565,10.2893046 298.266846,10.6921387 C298.512127,11.0949727 298.883624,11.2963867 299.381348,11.2963867 C299.87191,11.2963867 300.236246,11.10661 300.474365,10.7270508 C300.712485,10.3474916 300.836914,9.7495158 300.847656,8.93310547 L300.847656,7.30566406 Z M308.018066,8.66455078 C308.018066,9.82829358 307.819338,10.693031 307.421875,11.2587891 C307.024412,11.8245471 306.403162,12.1074219 305.558105,12.1074219 C304.723791,12.1074219 304.106122,11.8308133 303.705078,11.2775879 C303.304034,10.7243625 303.096354,9.89811748 303.082031,8.79882812 L303.082031,7.47216797 C303.082031,6.32274816 303.28076,5.46875279 303.678223,4.91015625 C304.075686,4.35155971 304.698726,4.07226562 305.547363,4.07226562 C306.388839,4.07226562 307.008299,4.3417128 307.405762,4.88061523 C307.803225,5.41951767 308.007324,6.2511337 308.018066,7.37548828 L308.018066,8.66455078 Z M307.024414,7.30566406 C307.024414,6.4641885 306.906251,5.85099476 306.669922,5.46606445 C306.433593,5.08113414 306.05941,4.88867188 305.547363,4.88867188 C305.038897,4.88867188 304.668295,5.08023897 304.435547,5.46337891 C304.202798,5.84651884 304.082845,6.4355429 304.075684,7.23046875 L304.075684,8.8203125 C304.075684,9.66536881 304.198322,10.2893046 304.443604,10.6921387 C304.688885,11.0949727 305.060382,11.2963867 305.558105,11.2963867 C306.048668,11.2963867 306.413003,11.10661 306.651123,10.7270508 C306.889243,10.3474916 307.013672,9.7495158 307.024414,8.93310547 L307.024414,7.30566406 Z M311.686523,8.87939453 C311.686523,9.67790113 311.581788,10.4432743 311.372314,11.1755371 C311.162841,11.9077999 310.842369,12.5836558 310.410889,13.203125 C309.979409,13.8225942 309.527346,14.2630195 309.054688,14.5244141 L308.845215,13.9174805 C309.39665,13.4949523 309.839761,12.8387903 310.174561,11.9489746 C310.50936,11.059159 310.680339,10.0717828 310.6875,8.98681641 L310.6875,8.81494141 C310.6875,8.06298452 310.608725,7.36385414 310.451172,6.7175293 C310.293619,6.07120445 310.074302,5.4920273 309.793213,4.97998047 C309.512124,4.46793364 309.196128,4.06868633 308.845215,3.78222656 L309.054688,3.17529297 C309.527346,3.4366875 309.977618,3.87353209 310.405518,4.48583984 C310.833417,5.09814759 311.153889,5.77310829 311.366943,6.51074219 C311.579998,7.24837608 311.686523,8.03791897 311.686523,8.87939453 Z" id="Roboto,-Medium,-16px" fill="#EC407A"></path>
                        <g id="specs-/-redlines-/-line-regular" transform="translate(67.000000, 17.500000) scale(-1, 1) rotate(-270.000000) translate(-67.000000, -17.500000) translate(54.000000, -13.000000)">
                            <path d="M3.5,60.5 L3.5,14.4901733 C3.5,8.42046821 8.423532,3.5 14.5,3.5 L25.5,3.5" id="redline-line" stroke="#EC407A" stroke-width="1"></path>
                            <g id="specs-/-redlines-/-line-end-/-arrow" transform="translate(19.000000, 0.000000)">
                                <g id="redline-end">
                                    <use fill="#FFFFFF" fill-rule="evenodd" xlink:href="#path-2"></use>
                                    <path stroke="#EC407A" stroke-width="1" d="M5.88196601,3.5 L0.5,0.809016994 L0.5,6.19098301 L5.88196601,3.5 Z"></path>
                                </g>
                            </g>
                            <g id="specs-/-redlines-/-line-end-/-circle" transform="translate(0.000000, 54.000000)">
                                <g id="redline-start">
                                    <use fill="#FFFFFF" fill-rule="evenodd" xlink:href="#path-3"></use>
                                    <circle stroke="#EC407A" stroke-width="1" cx="3.5" cy="3.5" r="3"></circle>
                                </g>
                            </g>
                        </g>
                        <g id="specs-/-spacing-/-internal-/-V-08px" transform="translate(59.000000, 20.000000)">
                            <rect id="Rectangle-5-Copy-9" fill="#F8CC96" fill-rule="evenodd" x="0" y="0" width="8" height="17"></rect>
                            <text id="8-copy-10" font-family="Roboto-Regular, Roboto" font-size="12" font-weight="normal" fill="#333333">
                                <tspan x="1" y="13.5">8</tspan>
                            </text>
                        </g>
                        <g id="specs-/-spacing-/-internal-/-V-04px" transform="translate(26.000000, 20.000000)">
                            <rect id="Rectangle-5-Copy-8" fill="#F8CC96" fill-rule="evenodd" x="1" y="0" width="4" height="17"></rect>
                            <text id="4-copy-5" font-family="Roboto-Regular, Roboto" font-size="12" font-weight="normal" fill="#333333">
                                <tspan x="0" y="13.5">4</tspan>
                            </text>
                        </g>
                    </g>
                    <g id="Measurements-state-1" transform="translate(238.000000, 3.000000)">
                        <path d="M76.7758789,8.83642578 L74.9389648,8.83642578 L74.9389648,12 L73.9023438,12 L73.9023438,4.1796875 L76.4912109,4.1796875 C77.3720747,4.1796875 78.0497209,4.38020633 78.5241699,4.78125 C78.9986189,5.18229367 79.2358398,5.76594669 79.2358398,6.53222656 C79.2358398,7.01920816 79.1042494,7.44352033 78.8410645,7.80517578 C78.5778795,8.16683124 78.2117536,8.43717358 77.7426758,8.61621094 L79.5795898,11.9355469 L79.5795898,12 L78.4731445,12 L76.7758789,8.83642578 Z M74.9389648,7.99316406 L76.5234375,7.99316406 C77.0354843,7.99316406 77.4427882,7.86067841 77.7453613,7.59570312 C78.0479345,7.33072784 78.1992188,6.9762392 78.1992188,6.53222656 C78.1992188,6.04882571 78.0550958,5.67822395 77.7668457,5.42041016 C77.4785956,5.16259637 77.06234,5.03190106 76.5180664,5.02832031 L74.9389648,5.02832031 L74.9389648,7.99316406 Z M80.2617188,9.04052734 C80.2617188,8.47118856 80.3736154,7.95914941 80.5974121,7.50439453 C80.8212088,7.04963965 81.1327291,6.6987317 81.5319824,6.45166016 C81.9312357,6.20458861 82.386879,6.08105469 82.8989258,6.08105469 C83.6902709,6.08105469 84.3303198,6.35497773 84.8190918,6.90283203 C85.3078638,7.45068633 85.5522461,8.17935743 85.5522461,9.08886719 L85.5522461,9.15869141 C85.5522461,9.72444944 85.4439301,10.2320127 85.2272949,10.6813965 C85.0106597,11.1307802 84.7009297,11.480793 84.2980957,11.7314453 C83.8952617,11.9820976 83.432457,12.1074219 82.909668,12.1074219 C82.1219036,12.1074219 81.483645,11.8334988 80.994873,11.2856445 C80.5061011,10.7377902 80.2617188,10.0126998 80.2617188,9.11035156 L80.2617188,9.04052734 Z M81.2607422,9.15869141 C81.2607422,9.80322588 81.4102361,10.3206361 81.7092285,10.7109375 C82.0082209,11.1012389 82.4083634,11.2963867 82.909668,11.2963867 C83.4145533,11.2963867 83.815591,11.0985534 84.112793,10.7028809 C84.409995,10.3072083 84.5585938,9.75309601 84.5585938,9.04052734 C84.5585938,8.40315437 84.4073095,7.88663935 84.1047363,7.4909668 C83.8021632,7.09529425 83.4002304,6.89746094 82.8989258,6.89746094 C82.4083634,6.89746094 82.0126968,7.09260873 81.7119141,7.48291016 C81.4111313,7.87321159 81.2607422,8.43179975 81.2607422,9.15869141 Z M91.7182617,9.15869141 C91.7182617,10.0467167 91.5141622,10.7601698 91.105957,11.2990723 C90.6977519,11.8379747 90.1499058,12.1074219 89.4624023,12.1074219 C88.7283492,12.1074219 88.1608093,11.8478216 87.7597656,11.3286133 L87.7114258,12 L86.7983398,12 L86.7983398,3.75 L87.7919922,3.75 L87.7919922,6.82763672 C88.1930359,6.32991288 88.746253,6.08105469 89.4516602,6.08105469 C90.1570673,6.08105469 90.7111796,6.34781634 91.1140137,6.88134766 C91.5168477,7.41487897 91.7182617,8.14534042 91.7182617,9.07275391 L91.7182617,9.15869141 Z M90.7246094,9.04589844 C90.7246094,8.36913724 90.5939141,7.84635601 90.3325195,7.47753906 C90.071125,7.10872211 89.6951522,6.92431641 89.2045898,6.92431641 C88.5493131,6.92431641 88.078452,7.22867534 87.7919922,7.83740234 L87.7919922,10.3510742 C88.0963557,10.9598012 88.5707976,11.2641602 89.215332,11.2641602 C89.6915714,11.2641602 90.0621732,11.0797544 90.3271484,10.7109375 C90.5921237,10.3421206 90.7246094,9.78711308 90.7246094,9.04589844 Z M92.706543,9.04052734 C92.706543,8.47118856 92.8184396,7.95914941 93.0422363,7.50439453 C93.266033,7.04963965 93.5775533,6.6987317 93.9768066,6.45166016 C94.3760599,6.20458861 94.8317032,6.08105469 95.34375,6.08105469 C96.1350951,6.08105469 96.775144,6.35497773 97.263916,6.90283203 C97.752688,7.45068633 97.9970703,8.17935743 97.9970703,9.08886719 L97.9970703,9.15869141 C97.9970703,9.72444944 97.8887543,10.2320127 97.6721191,10.6813965 C97.4554839,11.1307802 97.145754,11.480793 96.7429199,11.7314453 C96.3400859,11.9820976 95.8772813,12.1074219 95.3544922,12.1074219 C94.5667278,12.1074219 93.9284692,11.8334988 93.4396973,11.2856445 C92.9509253,10.7377902 92.706543,10.0126998 92.706543,9.11035156 L92.706543,9.04052734 Z M93.7055664,9.15869141 C93.7055664,9.80322588 93.8550604,10.3206361 94.1540527,10.7109375 C94.4530451,11.1012389 94.8531876,11.2963867 95.3544922,11.2963867 C95.8593775,11.2963867 96.2604152,11.0985534 96.5576172,10.7028809 C96.8548192,10.3072083 97.003418,9.75309601 97.003418,9.04052734 C97.003418,8.40315437 96.8521337,7.88663935 96.5495605,7.4909668 C96.2469874,7.09529425 95.8450546,6.89746094 95.34375,6.89746094 C94.8531877,6.89746094 94.457521,7.09260873 94.1567383,7.48291016 C93.8559555,7.87321159 93.7055664,8.43179975 93.7055664,9.15869141 Z M100.591309,4.78125 L100.591309,6.18847656 L101.67627,6.18847656 L101.67627,6.95654297 L100.591309,6.95654297 L100.591309,10.5605469 C100.591309,10.7932954 100.639648,10.9678542 100.736328,11.0842285 C100.833008,11.2006028 100.99772,11.2587891 101.230469,11.2587891 C101.345053,11.2587891 101.502603,11.2373049 101.703125,11.1943359 L101.703125,12 C101.44173,12.0716149 101.187501,12.1074219 100.94043,12.1074219 C100.496417,12.1074219 100.161622,11.9731459 99.9360352,11.7045898 C99.7104481,11.4360338 99.5976562,11.05469 99.5976562,10.5605469 L99.5976562,6.95654297 L98.5395508,6.95654297 L98.5395508,6.18847656 L99.5976562,6.18847656 L99.5976562,4.78125 L100.591309,4.78125 Z M102.46582,9.04052734 C102.46582,8.47118856 102.577717,7.95914941 102.801514,7.50439453 C103.02531,7.04963965 103.336831,6.6987317 103.736084,6.45166016 C104.135337,6.20458861 104.590981,6.08105469 105.103027,6.08105469 C105.894372,6.08105469 106.534421,6.35497773 107.023193,6.90283203 C107.511965,7.45068633 107.756348,8.17935743 107.756348,9.08886719 L107.756348,9.15869141 C107.756348,9.72444944 107.648032,10.2320127 107.431396,10.6813965 C107.214761,11.1307802 106.905031,11.480793 106.502197,11.7314453 C106.099363,11.9820976 105.636559,12.1074219 105.11377,12.1074219 C104.326005,12.1074219 103.687747,11.8334988 103.198975,11.2856445 C102.710203,10.7377902 102.46582,10.0126998 102.46582,9.11035156 L102.46582,9.04052734 Z M103.464844,9.15869141 C103.464844,9.80322588 103.614338,10.3206361 103.91333,10.7109375 C104.212322,11.1012389 104.612465,11.2963867 105.11377,11.2963867 C105.618655,11.2963867 106.019693,11.0985534 106.316895,10.7028809 C106.614097,10.3072083 106.762695,9.75309601 106.762695,9.04052734 C106.762695,8.40315437 106.611411,7.88663935 106.308838,7.4909668 C106.006265,7.09529425 105.604332,6.89746094 105.103027,6.89746094 C104.612465,6.89746094 104.216798,7.09260873 103.916016,7.48291016 C103.615233,7.87321159 103.464844,8.43179975 103.464844,9.15869141 Z M108.970215,13.5576172 L108.40625,13.1708984 C108.74284,12.7018206 108.918294,12.218427 108.932617,11.7207031 L108.932617,10.8237305 L109.904785,10.8237305 L109.904785,11.6025391 C109.904785,11.9641945 109.816163,12.3258445 109.638916,12.6875 C109.461669,13.0491555 109.238771,13.3391916 108.970215,13.5576172 Z M115.372559,4.1796875 L117.929199,10.5605469 L120.48584,4.1796875 L121.823242,4.1796875 L121.823242,12 L120.791992,12 L120.791992,8.95458984 L120.888672,5.66748047 L118.321289,12 L117.531738,12 L114.969727,5.68359375 L115.071777,8.95458984 L115.071777,12 L114.040527,12 L114.040527,4.1796875 L115.372559,4.1796875 Z M125.899902,12.1074219 C125.112138,12.1074219 124.471194,11.8487168 123.977051,11.3312988 C123.482908,10.8138809 123.23584,10.1219119 123.23584,9.25537109 L123.23584,9.07275391 C123.23584,8.49625363 123.345946,7.98152896 123.566162,7.52856445 C123.786378,7.07559995 124.094318,6.72111131 124.48999,6.46508789 C124.885663,6.20906448 125.314451,6.08105469 125.776367,6.08105469 C126.531905,6.08105469 127.119139,6.32991288 127.538086,6.82763672 C127.957033,7.32536056 128.166504,8.03791854 128.166504,8.96533203 L128.166504,9.37890625 L124.229492,9.37890625 C124.243815,9.95182578 124.411213,10.4146304 124.731689,10.767334 C125.052166,11.1200376 125.45947,11.2963867 125.953613,11.2963867 C126.304526,11.2963867 126.601724,11.2247729 126.845215,11.081543 C127.088706,10.9383131 127.301757,10.7485363 127.484375,10.512207 L128.091309,10.9848633 C127.604327,11.7332394 126.873866,12.1074219 125.899902,12.1074219 Z M125.776367,6.89746094 C125.375324,6.89746094 125.038738,7.04337419 124.766602,7.33520508 C124.494465,7.62703596 124.326172,8.03613018 124.261719,8.5625 L127.172852,8.5625 L127.172852,8.48730469 C127.144206,7.98241935 127.008139,7.5912286 126.764648,7.3137207 C126.521158,7.03621281 126.191734,6.89746094 125.776367,6.89746094 Z M129.074219,9.04589844 C129.074219,8.15429242 129.28548,7.43725857 129.708008,6.89477539 C130.130536,6.35229221 130.683753,6.08105469 131.367676,6.08105469 C132.048018,6.08105469 132.586912,6.31379976 132.984375,6.77929688 L132.984375,3.75 L133.978027,3.75 L133.978027,12 L133.064941,12 L133.016602,11.3769531 C132.619139,11.8639347 132.065922,12.1074219 131.356934,12.1074219 C130.683753,12.1074219 130.135012,11.8317085 129.710693,11.2802734 C129.286375,10.7288384 129.074219,10.009119 129.074219,9.12109375 L129.074219,9.04589844 Z M130.067871,9.15869141 C130.067871,9.81754887 130.203937,10.3331687 130.476074,10.7055664 C130.748211,11.0779641 131.124184,11.2641602 131.604004,11.2641602 C132.234215,11.2641602 132.694334,10.9812854 132.984375,10.4155273 L132.984375,7.74609375 C132.687173,7.19823945 132.230635,6.92431641 131.614746,6.92431641 C131.127764,6.92431641 130.748211,7.11230281 130.476074,7.48828125 C130.203937,7.86425969 130.067871,8.42105751 130.067871,9.15869141 Z M136.599121,12 L135.605469,12 L135.605469,6.18847656 L136.599121,6.18847656 L136.599121,12 Z M135.524902,4.64697266 C135.524902,4.48583904 135.574137,4.34977269 135.672607,4.23876953 C135.771078,4.12776637 135.916991,4.07226562 136.110352,4.07226562 C136.303712,4.07226562 136.45052,4.12776637 136.550781,4.23876953 C136.651042,4.34977269 136.701172,4.48583904 136.701172,4.64697266 C136.701172,4.80810627 136.651042,4.94238228 136.550781,5.04980469 C136.45052,5.1572271 136.303712,5.2109375 136.110352,5.2109375 C135.916991,5.2109375 135.771078,5.1572271 135.672607,5.04980469 C135.574137,4.94238228 135.524902,4.80810627 135.524902,4.64697266 Z M141.776855,11.425293 C141.390135,11.8800478 140.822595,12.1074219 140.074219,12.1074219 C139.45475,12.1074219 138.982993,11.927492 138.658936,11.567627 C138.334878,11.2077619 138.171061,10.6751337 138.16748,9.96972656 L138.16748,6.18847656 L139.161133,6.18847656 L139.161133,9.94287109 C139.161133,10.8237349 139.519202,11.2641602 140.235352,11.2641602 C140.99447,11.2641602 141.499348,10.9812854 141.75,10.4155273 L141.75,6.18847656 L142.743652,6.18847656 L142.743652,12 L141.79834,12 L141.776855,11.425293 Z M145.1875,6.18847656 L145.214355,6.83300781 C145.640464,6.33170322 146.215166,6.08105469 146.938477,6.08105469 C147.751306,6.08105469 148.304523,6.39257501 148.598145,7.015625 C148.791505,6.73632673 149.043049,6.51074305 149.352783,6.33886719 C149.662518,6.16699133 150.028644,6.08105469 150.451172,6.08105469 C151.725918,6.08105469 152.374023,6.75601539 152.395508,8.10595703 L152.395508,12 L151.401855,12 L151.401855,8.16503906 C151.401855,7.7496724 151.306967,7.43904725 151.117188,7.2331543 C150.927408,7.02726134 150.608726,6.92431641 150.161133,6.92431641 C149.792316,6.92431641 149.486167,7.03442273 149.242676,7.25463867 C148.999185,7.47485462 148.857748,7.77115699 148.818359,8.14355469 L148.818359,12 L147.819336,12 L147.819336,8.19189453 C147.819336,7.34683822 147.405766,6.92431641 146.578613,6.92431641 C145.926917,6.92431641 145.481121,7.20182014 145.241211,7.75683594 L145.241211,12 L144.247559,12 L144.247559,6.18847656 L145.1875,6.18847656 Z M153.861816,13.5576172 L153.297852,13.1708984 C153.634442,12.7018206 153.809896,12.218427 153.824219,11.7207031 L153.824219,10.8237305 L154.796387,10.8237305 L154.796387,11.6025391 C154.796387,11.9641945 154.707765,12.3258445 154.530518,12.6875 C154.353271,13.0491555 154.130372,13.3391916 153.861816,13.5576172 Z M161.939941,12 L160.940918,12 L160.940918,5.37744141 L158.9375,6.11328125 L158.9375,5.2109375 L161.78418,4.14208984 L161.939941,4.14208984 L161.939941,12 Z M168.750488,4.17431641 L168.750488,5.01757812 L168.567871,5.01757812 C167.79443,5.03190111 167.17855,5.26106549 166.720215,5.70507812 C166.261879,6.14909076 165.996908,6.77392175 165.925293,7.57958984 C166.337079,7.10693123 166.899248,6.87060547 167.611816,6.87060547 C168.292158,6.87060547 168.835529,7.11051192 169.241943,7.59033203 C169.648358,8.07015214 169.851562,8.68961209 169.851562,9.44873047 C169.851562,10.2543986 169.632245,10.8989234 169.193604,11.3823242 C168.754962,11.8657251 168.166833,12.1074219 167.429199,12.1074219 C166.680823,12.1074219 166.073896,11.8200712 165.608398,11.2453613 C165.142901,10.6706514 164.910156,9.93034307 164.910156,9.02441406 L164.910156,8.64306641 C164.910156,7.20360608 165.217201,6.10343805 165.831299,5.3425293 C166.445397,4.58162054 167.359369,4.19222014 168.573242,4.17431641 L168.750488,4.17431641 Z M167.445312,7.69775391 C167.105142,7.69775391 166.791831,7.79980367 166.505371,8.00390625 C166.218911,8.20800883 166.020183,8.46402841 165.90918,8.77197266 L165.90918,9.13720703 C165.90918,9.7817415 166.054198,10.300942 166.344238,10.6948242 C166.634279,11.0887064 166.995929,11.2856445 167.429199,11.2856445 C167.876793,11.2856445 168.228596,11.1209326 168.484619,10.7915039 C168.740643,10.4620752 168.868652,10.0306016 168.868652,9.49707031 C168.868652,8.95995825 168.738852,8.52579918 168.479248,8.19458008 C168.219644,7.86336097 167.875002,7.69775391 167.445312,7.69775391 Z M176.039062,9.15869141 C176.039062,10.0431359 175.836753,10.7556939 175.432129,11.2963867 C175.027504,11.8370795 174.479658,12.1074219 173.788574,12.1074219 C173.083167,12.1074219 172.52816,11.8836285 172.123535,11.4360352 L172.123535,14.234375 L171.129883,14.234375 L171.129883,6.18847656 L172.037598,6.18847656 L172.085938,6.83300781 C172.490562,6.33170322 173.052731,6.08105469 173.772461,6.08105469 C174.470707,6.08105469 175.023029,6.34423565 175.429443,6.87060547 C175.835858,7.39697529 176.039062,8.12922708 176.039062,9.06738281 L176.039062,9.15869141 Z M175.04541,9.04589844 C175.04541,8.39062172 174.905763,7.87321153 174.626465,7.49365234 C174.347167,7.11409315 173.964032,6.92431641 173.477051,6.92431641 C172.875485,6.92431641 172.424318,7.19107806 172.123535,7.72460938 L172.123535,10.5014648 C172.420737,11.0314154 172.875485,11.2963867 173.487793,11.2963867 C173.964032,11.2963867 174.342691,11.1075051 174.623779,10.7297363 C174.904868,10.3519675 175.04541,9.79069383 175.04541,9.04589844 Z M179.250977,8.31005859 L180.540039,6.18847656 L181.700195,6.18847656 L179.798828,9.06201172 L181.759277,12 L180.609863,12 L179.26709,9.82470703 L177.924316,12 L176.769531,12 L178.72998,9.06201172 L176.828613,6.18847656 L177.978027,6.18847656 L179.250977,8.31005859 Z M182.720703,13.5576172 L182.156738,13.1708984 C182.493329,12.7018206 182.668782,12.218427 182.683105,11.7207031 L182.683105,10.8237305 L183.655273,10.8237305 L183.655273,11.6025391 C183.655273,11.9641945 183.566651,12.3258445 183.389404,12.6875 C183.212157,13.0491555 182.989259,13.3391916 182.720703,13.5576172 Z M190.992188,9.79785156 L189.574219,9.79785156 L189.144531,12 L188.376465,12 L188.806152,9.79785156 L187.522461,9.79785156 L187.522461,9.06201172 L188.945801,9.06201172 L189.316406,7.16064453 L187.930664,7.16064453 L187.930664,6.4140625 L189.461426,6.4140625 L189.901855,4.1796875 L190.669922,4.1796875 L190.229492,6.4140625 L191.647461,6.4140625 L192.087891,4.1796875 L192.861328,4.1796875 L192.420898,6.4140625 L193.516602,6.4140625 L193.516602,7.16064453 L192.275879,7.16064453 L191.905273,9.06201172 L193.11377,9.06201172 L193.11377,9.79785156 L191.765625,9.79785156 L191.335938,12 L190.5625,12 L190.992188,9.79785156 Z M189.713867,9.06201172 L191.131836,9.06201172 L191.502441,7.16064453 L190.084473,7.16064453 L189.713867,9.06201172 Z M194.896973,12 L194.896973,6.95654297 L193.978516,6.95654297 L193.978516,6.18847656 L194.896973,6.18847656 L194.896973,5.59228516 C194.896973,4.96923517 195.063475,4.48763191 195.396484,4.14746094 C195.729494,3.80728997 196.200355,3.63720703 196.809082,3.63720703 C197.03825,3.63720703 197.265624,3.66764292 197.491211,3.72851562 L197.4375,4.53417969 C197.269205,4.50195296 197.09017,4.48583984 196.900391,4.48583984 C196.578123,4.48583984 196.329265,4.57983304 196.153809,4.76782227 C195.978352,4.95581149 195.890625,5.22525866 195.890625,5.57617188 L195.890625,6.18847656 L197.131348,6.18847656 L197.131348,6.95654297 L195.890625,6.95654297 L195.890625,12 L194.896973,12 Z M198.71582,12 L198.71582,6.95654297 L197.797363,6.95654297 L197.797363,6.18847656 L198.71582,6.18847656 L198.71582,5.59228516 C198.71582,4.96923517 198.882323,4.48763191 199.215332,4.14746094 C199.548342,3.80728997 200.019203,3.63720703 200.62793,3.63720703 C200.857098,3.63720703 201.084472,3.66764292 201.310059,3.72851562 L201.256348,4.53417969 C201.088053,4.50195296 200.909018,4.48583984 200.719238,4.48583984 C200.396971,4.48583984 200.148113,4.57983304 199.972656,4.76782227 C199.7972,4.95581149 199.709473,5.22525866 199.709473,5.57617188 L199.709473,6.18847656 L200.950195,6.18847656 L200.950195,6.95654297 L199.709473,6.95654297 L199.709473,12 L198.71582,12 Z M202.534668,12 L202.534668,6.95654297 L201.616211,6.95654297 L201.616211,6.18847656 L202.534668,6.18847656 L202.534668,5.59228516 C202.534668,4.96923517 202.70117,4.48763191 203.03418,4.14746094 C203.367189,3.80728997 203.83805,3.63720703 204.446777,3.63720703 C204.675945,3.63720703 204.903319,3.66764292 205.128906,3.72851562 L205.075195,4.53417969 C204.9069,4.50195296 204.727866,4.48583984 204.538086,4.48583984 C204.215819,4.48583984 203.966961,4.57983304 203.791504,4.76782227 C203.616047,4.95581149 203.52832,5.22525866 203.52832,5.57617188 L203.52832,6.18847656 L204.769043,6.18847656 L204.769043,6.95654297 L203.52832,6.95654297 L203.52832,12 L202.534668,12 Z M206.353516,12 L206.353516,6.95654297 L205.435059,6.95654297 L205.435059,6.18847656 L206.353516,6.18847656 L206.353516,5.59228516 C206.353516,4.96923517 206.520018,4.48763191 206.853027,4.14746094 C207.186037,3.80728997 207.656898,3.63720703 208.265625,3.63720703 C208.494793,3.63720703 208.722167,3.66764292 208.947754,3.72851562 L208.894043,4.53417969 C208.725748,4.50195296 208.546713,4.48583984 208.356934,4.48583984 C208.034666,4.48583984 207.785808,4.57983304 207.610352,4.76782227 C207.434895,4.95581149 207.347168,5.22525866 207.347168,5.57617188 L207.347168,6.18847656 L208.587891,6.18847656 L208.587891,6.95654297 L207.347168,6.95654297 L207.347168,12 L206.353516,12 Z M210.172363,12 L210.172363,6.95654297 L209.253906,6.95654297 L209.253906,6.18847656 L210.172363,6.18847656 L210.172363,5.59228516 C210.172363,4.96923517 210.338866,4.48763191 210.671875,4.14746094 C211.004884,3.80728997 211.475746,3.63720703 212.084473,3.63720703 C212.31364,3.63720703 212.541014,3.66764292 212.766602,3.72851562 L212.712891,4.53417969 C212.544596,4.50195296 212.365561,4.48583984 212.175781,4.48583984 C211.853514,4.48583984 211.604656,4.57983304 211.429199,4.76782227 C211.253743,4.95581149 211.166016,5.22525866 211.166016,5.57617188 L211.166016,6.18847656 L212.406738,6.18847656 L212.406738,6.95654297 L211.166016,6.95654297 L211.166016,12 L210.172363,12 Z M213.991211,12 L213.991211,6.95654297 L213.072754,6.95654297 L213.072754,6.18847656 L213.991211,6.18847656 L213.991211,5.59228516 C213.991211,4.96923517 214.157713,4.48763191 214.490723,4.14746094 C214.823732,3.80728997 215.294593,3.63720703 215.90332,3.63720703 C216.132488,3.63720703 216.359862,3.66764292 216.585449,3.72851562 L216.531738,4.53417969 C216.363443,4.50195296 216.184409,4.48583984 215.994629,4.48583984 C215.672362,4.48583984 215.423503,4.57983304 215.248047,4.76782227 C215.07259,4.95581149 214.984863,5.22525866 214.984863,5.57617188 L214.984863,6.18847656 L216.225586,6.18847656 L216.225586,6.95654297 L214.984863,6.95654297 L214.984863,12 L213.991211,12 Z M220.006836,8.82568359 C220.006836,8.01643476 220.115152,7.2394243 220.331787,6.49462891 C220.548422,5.74983352 220.87158,5.07308247 221.30127,4.46435547 C221.730959,3.85562847 222.176756,3.42594526 222.638672,3.17529297 L222.842773,3.83056641 C222.319984,4.23161008 221.891196,4.84390864 221.556396,5.66748047 C221.221597,6.49105229 221.038086,7.41308083 221.005859,8.43359375 L221.000488,8.89013672 C221.000488,10.2723051 221.252927,11.4718374 221.757812,12.4887695 C222.062176,13.0974965 222.423826,13.5737288 222.842773,13.9174805 L222.638672,14.5244141 C222.162433,14.2594388 221.707684,13.8154328 221.274414,13.1923828 C220.429358,11.9749288 220.006836,10.519377 220.006836,8.82568359 Z M229.733887,10.9741211 C229.468911,11.3536803 229.099205,11.6374502 228.624756,11.8254395 C228.150307,12.0134287 227.597985,12.1074219 226.967773,12.1074219 C226.3304,12.1074219 225.764651,11.9579279 225.270508,11.6589355 C224.776365,11.3599432 224.394126,10.9347358 224.123779,10.3833008 C223.853433,9.83186573 223.714681,9.19271197 223.70752,8.46582031 L223.70752,7.78369141 C223.70752,6.60562562 223.982338,5.69254881 224.531982,5.04443359 C225.081627,4.39631837 225.854162,4.07226562 226.849609,4.07226562 C227.66602,4.07226562 228.323077,4.28084101 228.820801,4.69799805 C229.318525,5.11515508 229.622884,5.70686466 229.733887,6.47314453 L228.702637,6.47314453 C228.509276,5.43830863 227.893397,4.92089844 226.85498,4.92089844 C226.163896,4.92089844 225.64022,5.16349041 225.283936,5.64868164 C224.927651,6.13387287 224.747721,6.83658394 224.744141,7.75683594 L224.744141,8.39599609 C224.744141,9.27327913 224.944659,9.97061916 225.345703,10.4880371 C225.746747,11.0054551 226.289222,11.2641602 226.973145,11.2641602 C227.359865,11.2641602 227.698241,11.2211918 227.988281,11.1352539 C228.278322,11.049316 228.518228,10.9042979 228.708008,10.7001953 L228.708008,8.94384766 L226.897949,8.94384766 L226.897949,8.10595703 L229.733887,8.10595703 L229.733887,10.9741211 Z M234.105957,7.08007812 C233.955566,7.0550129 233.792644,7.04248047 233.617188,7.04248047 C232.965492,7.04248047 232.523276,7.3199842 232.290527,7.875 L232.290527,12 L231.296875,12 L231.296875,6.18847656 L232.263672,6.18847656 L232.279785,6.85986328 C232.605633,6.34065496 233.067543,6.08105469 233.665527,6.08105469 C233.858888,6.08105469 234.005696,6.10611954 234.105957,6.15625 L234.105957,7.08007812 Z M238.39209,12 C238.334798,11.8854161 238.288249,11.6813166 238.252441,11.3876953 C237.790525,11.8675154 237.239098,12.1074219 236.598145,12.1074219 C236.025225,12.1074219 235.555259,11.9453955 235.188232,11.6213379 C234.821206,11.2972803 234.637695,10.8863957 234.637695,10.3886719 C234.637695,9.78352562 234.867755,9.31355962 235.327881,8.97875977 C235.788007,8.64395991 236.435217,8.4765625 237.269531,8.4765625 L238.236328,8.4765625 L238.236328,8.02001953 C238.236328,7.67268707 238.132488,7.3960785 237.924805,7.19018555 C237.717121,6.98429259 237.410972,6.88134766 237.006348,6.88134766 C236.651854,6.88134766 236.354656,6.97086499 236.114746,7.14990234 C235.874836,7.3289397 235.754883,7.54557165 235.754883,7.79980469 L234.755859,7.79980469 C234.755859,7.50976417 234.858804,7.22957492 235.064697,6.95922852 C235.27059,6.68888211 235.549884,6.47493568 235.902588,6.31738281 C236.255291,6.15982994 236.642902,6.08105469 237.06543,6.08105469 C237.735029,6.08105469 238.259601,6.2484521 238.63916,6.58325195 C239.018719,6.9180518 239.215657,7.37906607 239.22998,7.96630859 L239.22998,10.6411133 C239.22998,11.1746446 239.298014,11.5989568 239.434082,11.9140625 L239.434082,12 L238.39209,12 Z M236.743164,11.2426758 C237.054689,11.2426758 237.350096,11.1621102 237.629395,11.0009766 C237.908693,10.8398429 238.111002,10.6303724 238.236328,10.3725586 L238.236328,9.18017578 L237.45752,9.18017578 C236.240066,9.18017578 235.631348,9.53645477 235.631348,10.2490234 C235.631348,10.5605484 235.735188,10.8040356 235.942871,10.9794922 C236.150554,11.1549488 236.417316,11.2426758 236.743164,11.2426758 Z M242.688965,10.5444336 L244.04248,6.18847656 L245.105957,6.18847656 L242.769531,12.8969727 C242.407876,13.8637744 241.833175,14.347168 241.04541,14.347168 L240.857422,14.3310547 L240.486816,14.2612305 L240.486816,13.4555664 L240.755371,13.4770508 C241.091961,13.4770508 241.354247,13.4090176 241.542236,13.2729492 C241.730226,13.1368808 241.885091,12.8880226 242.006836,12.5263672 L242.227051,11.9355469 L240.153809,6.18847656 L241.23877,6.18847656 L242.688965,10.5444336 Z M253.51709,8.66455078 C253.51709,9.82829358 253.318361,10.693031 252.920898,11.2587891 C252.523436,11.8245471 251.902185,12.1074219 251.057129,12.1074219 C250.222815,12.1074219 249.605145,11.8308133 249.204102,11.2775879 C248.803058,10.7243625 248.595378,9.89811748 248.581055,8.79882812 L248.581055,7.47216797 C248.581055,6.32274816 248.779783,5.46875279 249.177246,4.91015625 C249.574709,4.35155971 250.19775,4.07226562 251.046387,4.07226562 C251.887862,4.07226562 252.507322,4.3417128 252.904785,4.88061523 C253.302248,5.41951767 253.506348,6.2511337 253.51709,7.37548828 L253.51709,8.66455078 Z M252.523438,7.30566406 C252.523438,6.4641885 252.405275,5.85099476 252.168945,5.46606445 C251.932616,5.08113414 251.558434,4.88867188 251.046387,4.88867188 C250.537921,4.88867188 250.167319,5.08023897 249.93457,5.46337891 C249.701822,5.84651884 249.581869,6.4355429 249.574707,7.23046875 L249.574707,8.8203125 C249.574707,9.66536881 249.697346,10.2893046 249.942627,10.6921387 C250.187908,11.0949727 250.559405,11.2963867 251.057129,11.2963867 C251.547691,11.2963867 251.912027,11.10661 252.150146,10.7270508 C252.388266,10.3474916 252.512695,9.7495158 252.523438,8.93310547 L252.523438,7.30566406 Z M257.185547,8.87939453 C257.185547,9.67790113 257.080812,10.4432743 256.871338,11.1755371 C256.661864,11.9077999 256.341392,12.5836558 255.909912,13.203125 C255.478432,13.8225942 255.02637,14.2630195 254.553711,14.5244141 L254.344238,13.9174805 C254.895673,13.4949523 255.338784,12.8387903 255.673584,11.9489746 C256.008384,11.059159 256.179362,10.0717828 256.186523,8.98681641 L256.186523,8.81494141 C256.186523,8.06298452 256.107748,7.36385414 255.950195,6.7175293 C255.792642,6.07120445 255.573325,5.4920273 255.292236,4.97998047 C255.011148,4.46793364 254.695151,4.06868633 254.344238,3.78222656 L254.553711,3.17529297 C255.02637,3.4366875 255.476642,3.87353209 255.904541,4.48583984 C256.33244,5.09814759 256.652912,5.77310829 256.865967,6.51074219 C257.079021,7.24837608 257.185547,8.03791897 257.185547,8.87939453 Z" id="Roboto,-Medium,-16px" fill="#EC407A"></path>
                        <g id="specs-/-redlines-/-line-regular" transform="translate(35.000000, 18.500000) scale(-1, 1) rotate(-270.000000) translate(-35.000000, -18.500000) translate(22.000000, -16.000000)">
                            <path d="M3.5,68.5 L3.5,14.5079719 C3.5,8.42843689 8.423532,3.5 14.5,3.5 L25.5,3.5" id="redline-line" stroke="#EC407A" stroke-width="1"></path>
                            <g id="specs-/-redlines-/-line-end-/-arrow" transform="translate(19.000000, 0.000000)">
                                <g id="redline-end">
                                    <use fill="#FFFFFF" fill-rule="evenodd" xlink:href="#path-4"></use>
                                    <path stroke="#EC407A" stroke-width="1" d="M5.88196601,3.5 L0.5,0.809016994 L0.5,6.19098301 L5.88196601,3.5 Z"></path>
                                </g>
                            </g>
                            <g id="specs-/-redlines-/-line-end-/-circle" transform="translate(0.000000, 62.000000)">
                                <g id="redline-start">
                                    <use fill="#FFFFFF" fill-rule="evenodd" xlink:href="#path-5"></use>
                                    <circle stroke="#EC407A" stroke-width="1" cx="3.5" cy="3.5" r="3"></circle>
                                </g>
                            </g>
                        </g>
                    </g>
                </g>
            </g>
        </g>
    </g>
</svg>
