<?xml version="1.0" encoding="UTF-8" standalone="no"?>
<svg width="635px" height="235px" viewBox="0 0 635 235" version="1.1" xmlns="http://www.w3.org/2000/svg" xmlns:xlink="http://www.w3.org/1999/xlink">
    <!-- Generator: Sketch 47 (45396) - http://www.bohemiancoding.com/sketch -->
    <title>switch-hero</title>
    <desc>Created with Sketch.</desc>
    <defs>
        <rect id="path-1" x="281" y="138" width="68" height="28" rx="14"></rect>
    </defs>
    <g id="Page-1" stroke="none" stroke-width="1" fill="none" fill-rule="evenodd">
        <g id="switch-hero">
            <rect id="Rectangle-Copy-19" fill="#0C7C84" x="281" y="76" width="68" height="28" rx="14"></rect>
            <circle id="Oval-Copy-19" stroke="#0C7C84" stroke-width="2" fill="#FFFFFF" cx="335" cy="90" r="13"></circle>
            <path d="M301.234375,88.609375 C301.234375,89.7239639 301.041669,90.7018187 300.65625,91.5429688 C300.270831,92.3841188 299.720056,93.0299457 299.003906,93.4804688 C298.287757,93.9309918 297.463546,94.15625 296.53125,94.15625 C295.60937,94.15625 294.787764,93.9309918 294.066406,93.4804688 C293.345048,93.0299457 292.787762,92.388025 292.394531,91.5546875 C292.0013,90.72135 291.802083,89.7604221 291.796875,88.671875 L291.796875,88.03125 C291.796875,86.9218695 291.993488,85.9427126 292.386719,85.09375 C292.77995,84.2447874 293.334632,83.5950543 294.050781,83.1445312 C294.766931,82.6940082 295.588537,82.46875 296.515625,82.46875 C297.442713,82.46875 298.264319,82.691404 298.980469,83.1367188 C299.696618,83.5820335 300.249998,84.2226521 300.640625,85.0585938 C301.031252,85.8945354 301.229167,86.867182 301.234375,87.9765625 L301.234375,88.609375 Z M299.257812,88.015625 C299.257812,86.755202 299.019534,85.7890659 298.542969,85.1171875 C298.066404,84.4453091 297.390629,84.109375 296.515625,84.109375 C295.661454,84.109375 294.993492,84.4440071 294.511719,85.1132812 C294.029946,85.7825554 293.783854,86.7291605 293.773438,87.953125 L293.773438,88.609375 C293.773438,89.8593812 294.016925,90.8255174 294.503906,91.5078125 C294.990888,92.1901076 295.666662,92.53125 296.53125,92.53125 C297.406254,92.53125 298.079425,92.19792 298.550781,91.53125 C299.022138,90.86458 299.257812,89.8906314 299.257812,88.609375 L299.257812,88.015625 Z M312.226562,94 L310.25,94 L305.179688,85.9296875 L305.179688,94 L303.203125,94 L303.203125,82.625 L305.179688,82.625 L310.265625,90.7265625 L310.265625,82.625 L312.226562,82.625 L312.226562,94 Z" id="ON-Copy-5" fill="#FFFFFF"></path>
            <g id="Rectangle-Copy-49">
                <use fill="#FFFFFF" fill-rule="evenodd" xlink:href="#path-1"></use>
                <rect stroke="#757575" stroke-width="2" x="282" y="139" width="66" height="26" rx="13"></rect>
            </g>
            <circle id="Oval-Copy-49" stroke="#757575" stroke-width="2" fill="#FFFFFF" cx="295" cy="152" r="13"></circle>
            <path d="M322.234375,150.609375 C322.234375,151.723964 322.041669,152.701819 321.65625,153.542969 C321.270831,154.384119 320.720056,155.029946 320.003906,155.480469 C319.287757,155.930992 318.463546,156.15625 317.53125,156.15625 C316.60937,156.15625 315.787764,155.930992 315.066406,155.480469 C314.345048,155.029946 313.787762,154.388025 313.394531,153.554688 C313.0013,152.72135 312.802083,151.760422 312.796875,150.671875 L312.796875,150.03125 C312.796875,148.921869 312.993488,147.942713 313.386719,147.09375 C313.77995,146.244787 314.334632,145.595054 315.050781,145.144531 C315.766931,144.694008 316.588537,144.46875 317.515625,144.46875 C318.442713,144.46875 319.264319,144.691404 319.980469,145.136719 C320.696618,145.582033 321.249998,146.222652 321.640625,147.058594 C322.031252,147.894535 322.229167,148.867182 322.234375,149.976562 L322.234375,150.609375 Z M320.257812,150.015625 C320.257812,148.755202 320.019534,147.789066 319.542969,147.117188 C319.066404,146.445309 318.390629,146.109375 317.515625,146.109375 C316.661454,146.109375 315.993492,146.444007 315.511719,147.113281 C315.029946,147.782555 314.783854,148.729161 314.773438,149.953125 L314.773438,150.609375 C314.773438,151.859381 315.016925,152.825517 315.503906,153.507812 C315.990888,154.190108 316.666662,154.53125 317.53125,154.53125 C318.406254,154.53125 319.079425,154.19792 319.550781,153.53125 C320.022138,152.86458 320.257812,151.890631 320.257812,150.609375 L320.257812,150.015625 Z M330.757812,151.179688 L326.179688,151.179688 L326.179688,156 L324.203125,156 L324.203125,144.625 L331.429688,144.625 L331.429688,146.21875 L326.179688,146.21875 L326.179688,149.601562 L330.757812,149.601562 L330.757812,151.179688 Z M339.546875,151.179688 L334.96875,151.179688 L334.96875,156 L332.992188,156 L332.992188,144.625 L340.21875,144.625 L340.21875,146.21875 L334.96875,146.21875 L334.96875,149.601562 L339.546875,149.601562 L339.546875,151.179688 Z" id="OFF-Copy-7" fill="#757575"></path>
        </g>
    </g>
</svg>