<?xml version="1.0" encoding="UTF-8" standalone="no"?>
<svg width="635px" height="235px" viewBox="0 0 635 235" version="1.1" xmlns="http://www.w3.org/2000/svg" xmlns:xlink="http://www.w3.org/1999/xlink">
    <!-- Generator: Sketch 47.1 (45422) - http://www.bohemiancoding.com/sketch -->
    <title>switch-hero</title>
    <desc>Created with Sketch.</desc>
    <defs></defs>
    <g id="Page-1" stroke="none" stroke-width="1" fill="none" fill-rule="evenodd">
        <g id="switch-hero" transform="translate(284.000000, 73.000000)">
            <rect id="Rectangle-Copy-19" fill="#0C7C84" fill-rule="nonzero" x="0" y="0" width="68" height="28" rx="14"></rect>
            <circle id="Oval-Copy-19" stroke="#0C7C84" stroke-width="2" fill="#FFFFFF" fill-rule="nonzero" cx="54" cy="14" r="13"></circle>
            <path d="M20.4375,14.140625 C20.4375,15.2552139 20.244794,16.2330687 19.859375,17.0742188 C19.473956,17.9153688 18.923181,18.5611957 18.207031,19.0117188 C17.490882,19.4622418 16.666671,19.6875 15.734375,19.6875 C14.812495,19.6875 13.990889,19.4622418 13.269531,19.0117188 C12.548173,18.5611957 11.990887,17.919275 11.597656,17.0859375 C11.204425,16.2526 11.005208,15.2916721 11,14.203125 L11,13.5625 C11,12.4531195 11.196613,11.4739626 11.589844,10.625 C11.983075,9.7760374 12.537757,9.1263043 13.253906,8.6757812 C13.970056,8.2252582 14.791662,8 15.71875,8 C16.645838,8 17.467444,8.222654 18.183594,8.6679688 C18.899743,9.1132835 19.453123,9.7539021 19.84375,10.5898438 C20.234377,11.4257854 20.432292,12.398432 20.4375,13.5078125 L20.4375,14.140625 Z M18.460937,13.546875 C18.460937,12.286452 18.222659,11.3203159 17.746094,10.6484375 C17.269529,9.9765591 16.593754,9.640625 15.71875,9.640625 C14.864579,9.640625 14.196617,9.9752571 13.714844,10.6445312 C13.233071,11.3138054 12.986979,12.2604105 12.976563,13.484375 L12.976563,14.140625 C12.976563,15.3906312 13.22005,16.3567674 13.707031,17.0390625 C14.194013,17.7213576 14.869787,18.0625 15.734375,18.0625 C16.609379,18.0625 17.28255,17.72917 17.753906,17.0625 C18.225263,16.39583 18.460937,15.4218814 18.460937,14.140625 L18.460937,13.546875 Z M31.429687,19.53125 L29.453125,19.53125 L24.382813,11.4609375 L24.382813,19.53125 L22.40625,19.53125 L22.40625,8.15625 L24.382813,8.15625 L29.46875,16.2578125 L29.46875,8.15625 L31.429687,8.15625 L31.429687,19.53125 Z" id="ON-Copy-5" fill="#FFFFFF" fill-rule="nonzero"></path>
            <g id="Rectangle-Copy-49" transform="translate(0.000000, 62.000000)">
                <g id="path-1-link" fill="#FFFFFF">
                    <rect id="path-1" x="0" y="0" width="68" height="28" rx="14"></rect>
                </g>
                <rect id="Rectangle-path" stroke="#757575" stroke-width="2" x="1" y="1" width="66" height="26" rx="13"></rect>
            </g>
            <circle id="Oval-Copy-49" stroke="#757575" stroke-width="2" fill="#FFFFFF" fill-rule="nonzero" cx="14" cy="76" r="13"></circle>
            <path d="M41.4375,76.140625 C41.4375,77.255214 41.244794,78.233069 40.859375,79.074219 C40.473956,79.915369 39.923181,80.561196 39.207031,81.011719 C38.490882,81.462242 37.666671,81.6875 36.734375,81.6875 C35.812495,81.6875 34.990889,81.462242 34.269531,81.011719 C33.548173,80.561196 32.990887,79.919275 32.597656,79.085938 C32.204425,78.2526 32.005208,77.291672 32,76.203125 L32,75.5625 C32,74.453119 32.196613,73.473963 32.589844,72.625 C32.983075,71.776037 33.537757,71.126304 34.253906,70.675781 C34.970056,70.225258 35.791662,70 36.71875,70 C37.645838,70 38.467444,70.222654 39.183594,70.667969 C39.899743,71.113283 40.453123,71.753902 40.84375,72.589844 C41.234377,73.425785 41.432292,74.398432 41.4375,75.507812 L41.4375,76.140625 Z M39.460937,75.546875 C39.460937,74.286452 39.222659,73.320316 38.746094,72.648438 C38.269529,71.976559 37.593754,71.640625 36.71875,71.640625 C35.864579,71.640625 35.196617,71.975257 34.714844,72.644531 C34.233071,73.313805 33.986979,74.260411 33.976563,75.484375 L33.976563,76.140625 C33.976563,77.390631 34.22005,78.356767 34.707031,79.039062 C35.194013,79.721358 35.869787,80.0625 36.734375,80.0625 C37.609379,80.0625 38.28255,79.72917 38.753906,79.0625 C39.225263,78.39583 39.460937,77.421881 39.460937,76.140625 L39.460937,75.546875 Z M49.960937,76.710938 L45.382813,76.710938 L45.382813,81.53125 L43.40625,81.53125 L43.40625,70.15625 L50.632813,70.15625 L50.632813,71.75 L45.382813,71.75 L45.382813,75.132812 L49.960937,75.132812 L49.960937,76.710938 Z M58.75,76.710938 L54.171875,76.710938 L54.171875,81.53125 L52.195313,81.53125 L52.195313,70.15625 L59.421875,70.15625 L59.421875,71.75 L54.171875,71.75 L54.171875,75.132812 L58.75,75.132812 L58.75,76.710938 Z" id="OFF-Copy-7" fill="#757575" fill-rule="nonzero"></path>
        </g>
        <g id="switch-hero"></g>
    </g>
</svg>