<?xml version="1.0" encoding="UTF-8" standalone="no"?>
<svg width="601px" height="285px" viewBox="0 0 601 285" version="1.1" xmlns="http://www.w3.org/2000/svg" xmlns:xlink="http://www.w3.org/1999/xlink">
    <!-- Generator: Sketch 47.1 (45422) - http://www.bohemiancoding.com/sketch -->
    <title>checkbox-default</title>
    <desc>Created with Sketch.</desc>
    <defs></defs>
    <g id="Page-1" stroke="none" stroke-width="1" fill="none" fill-rule="evenodd">
        <g id="checkbox-default">
            <g transform="translate(122.000000, 101.000000)" id="Composition-Image">
                <g transform="translate(0.000000, -0.000000)">
                    <g id="Group" transform="translate(116.000000, 0.000000)" fill-rule="nonzero">
                        <g transform="translate(24.000000, 27.000000)" id="Shape" fill="#424242">
                            <path d="M10.1,6.7 C10.1,7.8 9.9,8.8 9.5,9.6 C9.1,10.4 8.6,11.1 7.9,11.5 C7.2,11.9 6.4,12.2 5.5,12.2 C4.6,12.2 3.8,12 3.1,11.5 C2.4,11.1 1.9,10.4 1.5,9.6 C1.1,8.8 0.9,7.8 0.9,6.8 L0.9,6 C0.9,4.9 1.1,3.9 1.5,3.1 C1.9,2.3 2.4,1.6 3.1,1.2 C3.8,0.8 4.6,0.5 5.5,0.5 C6.4,0.5 7.2,0.7 7.9,1.2 C8.6,1.7 9.1,2.3 9.5,3.1 C9.9,3.9 10.1,4.9 10.1,6 L10.1,6.7 Z M8.6,5.9 C8.6,4.6 8.3,3.5 7.8,2.8 C7.3,2.1 6.5,1.7 5.5,1.7 C4.6,1.7 3.8,2.1 3.3,2.8 C2.8,3.5 2.5,4.5 2.5,5.8 L2.5,6.6 C2.5,7.9 2.8,8.9 3.3,9.7 C3.8,10.4 4.6,10.8 5.6,10.8 C6.6,10.8 7.3,10.4 7.8,9.7 C8.3,9 8.6,8 8.6,6.7 L8.6,5.9 Z"></path>
                        </g>
                        <g transform="translate(36.000000, 27.000000)" id="Shape" fill="#424242">
                            <path d="M7.2,7.9 C7.2,9.2 6.9,10.2 6.3,11 C5.7,11.8 4.9,12.2 3.9,12.2 C2.9,12.2 2.1,11.9 1.5,11.2 L1.5,15.3 L0.1,15.3 L0.1,3.5 L1.4,3.5 L1.5,4.4 C2.1,3.7 2.9,3.3 4,3.3 C5,3.3 5.8,3.7 6.4,4.4 C7,5.2 7.3,6.2 7.3,7.6 L7.3,7.9 L7.2,7.9 Z M5.8,7.7 C5.8,6.7 5.6,6 5.2,5.4 C4.8,4.8 4.2,4.6 3.5,4.6 C2.6,4.6 2,5 1.5,5.8 L1.5,9.8 C1.9,10.6 2.6,11 3.5,11 C4.2,11 4.7,10.7 5.2,10.2 C5.6,9.6 5.8,8.8 5.8,7.7 Z"></path>
                            <path d="M11,1.5 L11,3.5 L12.6,3.5 L12.6,4.6 L11,4.6 L11,9.8 C11,10.1 11.1,10.4 11.2,10.6 C11.3,10.8 11.6,10.9 11.9,10.9 C12.1,10.9 12.3,10.9 12.6,10.8 L12.6,12 C12.2,12.1 11.8,12.2 11.5,12.2 C10.9,12.2 10.4,12 10,11.6 C9.6,11.2 9.5,10.7 9.5,9.9 L9.5,4.7 L8,4.7 L8,3.6 L9.5,3.6 L9.5,1.6 L11,1.6 L11,1.5 Z"></path>
                            <path d="M14.3,1.3 C14.3,1.1 14.4,0.9 14.5,0.7 C14.6,0.5 14.9,0.5 15.1,0.5 C15.3,0.5 15.6,0.6 15.7,0.7 C15.8,0.9 15.9,1.1 15.9,1.3 C15.9,1.5 15.8,1.7 15.7,1.9 C15.6,2.1 15.3,2.1 15.1,2.1 C14.9,2.1 14.6,2 14.5,1.9 C14.4,1.7 14.3,1.5 14.3,1.3 Z M15.9,12 L14.5,12 L14.5,3.5 L15.9,3.5 L15.9,12 Z"></path>
                            <path d="M17.8,7.7 C17.8,6.9 18,6.1 18.3,5.5 C18.6,4.8 19.1,4.3 19.7,4 C20.3,3.6 20.9,3.5 21.7,3.5 C22.9,3.5 23.8,3.9 24.5,4.7 C25.2,5.5 25.6,6.6 25.6,7.9 L25.6,8 C25.6,8.8 25.4,9.6 25.1,10.2 C24.8,10.9 24.3,11.4 23.7,11.7 C23.1,12 22.4,12.2 21.7,12.2 C20.6,12.2 19.6,11.8 18.9,11 C18.2,10.2 17.8,9.1 17.8,7.8 L17.8,7.7 Z M19.2,7.9 C19.2,8.8 19.4,9.6 19.9,10.2 C20.3,10.8 20.9,11.1 21.6,11.1 C22.3,11.1 22.9,10.8 23.4,10.2 C23.8,9.6 24,8.8 24,7.8 C24,6.9 23.8,6.1 23.3,5.5 C22.9,4.9 22.3,4.6 21.5,4.6 C20.8,4.6 20.2,4.9 19.8,5.5 C19.4,6.1 19.2,6.8 19.2,7.9 Z"></path>
                            <path d="M28.7,3.5 L28.7,4.6 C29.3,3.8 30.2,3.4 31.2,3.4 C33,3.4 33.9,4.4 33.9,6.4 L33.9,12 L32.5,12 L32.5,6.4 C32.5,5.8 32.4,5.3 32.1,5 C31.8,4.7 31.4,4.6 30.8,4.6 C30.3,4.6 29.9,4.7 29.6,5 C29.2,5.2 29,5.6 28.8,6 L28.8,12 L27.4,12 L27.4,3.5 L28.7,3.5 Z"></path>
                        </g>
                        <g transform="translate(76.000000, 27.000000)" id="Shape" fill="#424242">
                            <polygon points="4.7 12 3.2 12 3.2 2.4 0.3 3.5 0.3 2.2 4.4 0.6 4.6 0.6 4.6 12"></polygon>
                        </g>
                        <g transform="translate(24.000000, 50.000000)" id="Shape" fill="#424242">
                            <path d="M10.1,6.7 C10.1,7.8 9.9,8.8 9.5,9.6 C9.1,10.4 8.6,11.1 7.9,11.5 C7.2,11.9 6.4,12.2 5.5,12.2 C4.6,12.2 3.8,12 3.1,11.5 C2.4,11.1 1.9,10.4 1.5,9.6 C1.1,8.8 0.9,7.8 0.9,6.8 L0.9,6 C0.9,4.9 1.1,3.9 1.5,3.1 C1.9,2.3 2.4,1.6 3.1,1.2 C3.8,0.8 4.6,0.5 5.5,0.5 C6.4,0.5 7.2,0.7 7.9,1.2 C8.6,1.7 9.1,2.3 9.5,3.1 C9.9,3.9 10.1,4.9 10.1,6 L10.1,6.7 Z M8.6,5.9 C8.6,4.6 8.3,3.5 7.8,2.8 C7.3,2.1 6.5,1.7 5.5,1.7 C4.6,1.7 3.8,2.1 3.3,2.8 C2.8,3.5 2.5,4.5 2.5,5.8 L2.5,6.6 C2.5,7.9 2.8,8.9 3.3,9.7 C3.8,10.4 4.6,10.8 5.6,10.8 C6.6,10.8 7.3,10.4 7.8,9.7 C8.3,9 8.6,8 8.6,6.7 L8.6,5.9 Z"></path>
                        </g>
                        <g transform="translate(36.000000, 50.000000)" id="Shape" fill="#424242">
                            <path d="M7.2,7.9 C7.2,9.2 6.9,10.2 6.3,11 C5.7,11.8 4.9,12.2 3.9,12.2 C2.9,12.2 2.1,11.9 1.5,11.2 L1.5,15.3 L0.1,15.3 L0.1,3.5 L1.4,3.5 L1.5,4.4 C2.1,3.7 2.9,3.3 4,3.3 C5,3.3 5.8,3.7 6.4,4.4 C7,5.2 7.3,6.2 7.3,7.6 L7.3,7.9 L7.2,7.9 Z M5.8,7.7 C5.8,6.7 5.6,6 5.2,5.4 C4.8,4.8 4.2,4.6 3.5,4.6 C2.6,4.6 2,5 1.5,5.8 L1.5,9.8 C1.9,10.6 2.6,11 3.5,11 C4.2,11 4.7,10.7 5.2,10.2 C5.6,9.6 5.8,8.8 5.8,7.7 Z"></path>
                            <path d="M11,1.5 L11,3.5 L12.6,3.5 L12.6,4.6 L11,4.6 L11,9.8 C11,10.1 11.1,10.4 11.2,10.6 C11.3,10.8 11.6,10.9 11.9,10.9 C12.1,10.9 12.3,10.9 12.6,10.8 L12.6,12 C12.2,12.1 11.8,12.2 11.5,12.2 C10.9,12.2 10.4,12 10,11.6 C9.6,11.2 9.5,10.7 9.5,9.9 L9.5,4.7 L8,4.7 L8,3.6 L9.5,3.6 L9.5,1.6 L11,1.6 L11,1.5 Z"></path>
                            <path d="M14.3,1.3 C14.3,1.1 14.4,0.9 14.5,0.7 C14.6,0.5 14.9,0.5 15.1,0.5 C15.3,0.5 15.6,0.6 15.7,0.7 C15.8,0.9 15.9,1.1 15.9,1.3 C15.9,1.5 15.8,1.7 15.7,1.9 C15.6,2.1 15.3,2.1 15.1,2.1 C14.9,2.1 14.6,2 14.5,1.9 C14.4,1.7 14.3,1.5 14.3,1.3 Z M15.9,12 L14.5,12 L14.5,3.5 L15.9,3.5 L15.9,12 Z"></path>
                            <path d="M17.8,7.7 C17.8,6.9 18,6.1 18.3,5.5 C18.6,4.8 19.1,4.3 19.7,4 C20.3,3.6 20.9,3.5 21.7,3.5 C22.9,3.5 23.8,3.9 24.5,4.7 C25.2,5.5 25.6,6.6 25.6,7.9 L25.6,8 C25.6,8.8 25.4,9.6 25.1,10.2 C24.8,10.9 24.3,11.4 23.7,11.7 C23.1,12 22.4,12.2 21.7,12.2 C20.6,12.2 19.6,11.8 18.9,11 C18.2,10.2 17.8,9.1 17.8,7.8 L17.8,7.7 Z M19.2,7.9 C19.2,8.8 19.4,9.6 19.9,10.2 C20.3,10.8 20.9,11.1 21.6,11.1 C22.3,11.1 22.9,10.8 23.4,10.2 C23.8,9.6 24,8.8 24,7.8 C24,6.9 23.8,6.1 23.3,5.5 C22.9,4.9 22.3,4.6 21.5,4.6 C20.8,4.6 20.2,4.9 19.8,5.5 C19.4,6.1 19.2,6.8 19.2,7.9 Z"></path>
                            <path d="M28.7,3.5 L28.7,4.6 C29.3,3.8 30.2,3.4 31.2,3.4 C33,3.4 33.9,4.4 33.9,6.4 L33.9,12 L32.5,12 L32.5,6.4 C32.5,5.8 32.4,5.3 32.1,5 C31.8,4.7 31.4,4.6 30.8,4.6 C30.3,4.6 29.9,4.7 29.6,5 C29.2,5.2 29,5.6 28.8,6 L28.8,12 L27.4,12 L27.4,3.5 L28.7,3.5 Z"></path>
                        </g>
                        <g transform="translate(75.000000, 50.000000)" id="Shape" fill="#424242">
                            <path d="M8.4,12 L1,12 L1,11 L4.9,6.6 C5.5,5.9 5.9,5.4 6.1,5 C6.3,4.6 6.4,4.2 6.4,3.7 C6.4,3.1 6.2,2.6 5.9,2.2 C5.6,1.8 5.1,1.6 4.5,1.6 C3.8,1.6 3.2,1.8 2.8,2.2 C2.4,2.6 2.2,3.2 2.2,3.9 L0.8,3.9 C0.8,2.9 1.1,2 1.8,1.4 C2.5,0.8 3.4,0.4 4.5,0.4 C5.6,0.4 6.4,0.7 7,1.2 C7.6,1.7 7.9,2.5 7.9,3.4 C7.9,4.5 7.2,5.9 5.8,7.4 L2.8,10.7 L8.5,10.7 L8.5,12 L8.4,12 Z"></path>
                        </g>
                        <g transform="translate(24.000000, 74.000000)" id="Shape" fill="#424242">
                            <path d="M10.1,6.7 C10.1,7.8 9.9,8.8 9.5,9.6 C9.1,10.4 8.6,11.1 7.9,11.5 C7.2,11.9 6.4,12.2 5.5,12.2 C4.6,12.2 3.8,12 3.1,11.5 C2.4,11.1 1.9,10.4 1.5,9.6 C1.1,8.8 0.9,7.8 0.9,6.8 L0.9,6 C0.9,4.9 1.1,3.9 1.5,3.1 C1.9,2.3 2.4,1.6 3.1,1.2 C3.8,0.8 4.6,0.5 5.5,0.5 C6.4,0.5 7.2,0.7 7.9,1.2 C8.6,1.7 9.1,2.3 9.5,3.1 C9.9,3.9 10.1,4.9 10.1,6 L10.1,6.7 Z M8.6,5.9 C8.6,4.6 8.3,3.5 7.8,2.8 C7.3,2.1 6.5,1.7 5.5,1.7 C4.6,1.7 3.8,2.1 3.3,2.8 C2.8,3.5 2.5,4.5 2.5,5.8 L2.5,6.6 C2.5,7.9 2.8,8.9 3.3,9.7 C3.8,10.4 4.6,10.8 5.6,10.8 C6.6,10.8 7.3,10.4 7.8,9.7 C8.3,9 8.6,8 8.6,6.7 L8.6,5.9 Z"></path>
                        </g>
                        <g transform="translate(36.000000, 74.000000)" id="Shape" fill="#424242">
                            <path d="M7.2,7.9 C7.2,9.2 6.9,10.2 6.3,11 C5.7,11.8 4.9,12.2 3.9,12.2 C2.9,12.2 2.1,11.9 1.5,11.2 L1.5,15.3 L0.1,15.3 L0.1,3.5 L1.4,3.5 L1.5,4.4 C2.1,3.7 2.9,3.3 4,3.3 C5,3.3 5.8,3.7 6.4,4.4 C7,5.2 7.3,6.2 7.3,7.6 L7.3,7.9 L7.2,7.9 Z M5.8,7.7 C5.8,6.7 5.6,6 5.2,5.4 C4.8,4.8 4.2,4.6 3.5,4.6 C2.6,4.6 2,5 1.5,5.8 L1.5,9.8 C1.9,10.6 2.6,11 3.5,11 C4.2,11 4.7,10.7 5.2,10.2 C5.6,9.6 5.8,8.8 5.8,7.7 Z"></path>
                            <path d="M11,1.5 L11,3.5 L12.6,3.5 L12.6,4.6 L11,4.6 L11,9.8 C11,10.1 11.1,10.4 11.2,10.6 C11.3,10.8 11.6,10.9 11.9,10.9 C12.1,10.9 12.3,10.9 12.6,10.8 L12.6,12 C12.2,12.1 11.8,12.2 11.5,12.2 C10.9,12.2 10.4,12 10,11.6 C9.6,11.2 9.5,10.7 9.5,9.9 L9.5,4.7 L8,4.7 L8,3.6 L9.5,3.6 L9.5,1.6 L11,1.6 L11,1.5 Z"></path>
                            <path d="M14.3,1.3 C14.3,1.1 14.4,0.9 14.5,0.7 C14.6,0.5 14.9,0.5 15.1,0.5 C15.3,0.5 15.6,0.6 15.7,0.7 C15.8,0.9 15.9,1.1 15.9,1.3 C15.9,1.5 15.8,1.7 15.7,1.9 C15.6,2.1 15.3,2.1 15.1,2.1 C14.9,2.1 14.6,2 14.5,1.9 C14.4,1.7 14.3,1.5 14.3,1.3 Z M15.9,12 L14.5,12 L14.5,3.5 L15.9,3.5 L15.9,12 Z"></path>
                            <path d="M17.8,7.7 C17.8,6.9 18,6.1 18.3,5.5 C18.6,4.8 19.1,4.3 19.7,4 C20.3,3.6 20.9,3.5 21.7,3.5 C22.9,3.5 23.8,3.9 24.5,4.7 C25.2,5.5 25.6,6.6 25.6,7.9 L25.6,8 C25.6,8.8 25.4,9.6 25.1,10.2 C24.8,10.9 24.3,11.4 23.7,11.7 C23.1,12 22.4,12.2 21.7,12.2 C20.6,12.2 19.6,11.8 18.9,11 C18.2,10.2 17.8,9.1 17.8,7.8 L17.8,7.7 Z M19.2,7.9 C19.2,8.8 19.4,9.6 19.9,10.2 C20.3,10.8 20.9,11.1 21.6,11.1 C22.3,11.1 22.9,10.8 23.4,10.2 C23.8,9.6 24,8.8 24,7.8 C24,6.9 23.8,6.1 23.3,5.5 C22.9,4.9 22.3,4.6 21.5,4.6 C20.8,4.6 20.2,4.9 19.8,5.5 C19.4,6.1 19.2,6.8 19.2,7.9 Z"></path>
                            <path d="M28.7,3.5 L28.7,4.6 C29.3,3.8 30.2,3.4 31.2,3.4 C33,3.4 33.9,4.4 33.9,6.4 L33.9,12 L32.5,12 L32.5,6.4 C32.5,5.8 32.4,5.3 32.1,5 C31.8,4.7 31.4,4.6 30.8,4.6 C30.3,4.6 29.9,4.7 29.6,5 C29.2,5.2 29,5.6 28.8,6 L28.8,12 L27.4,12 L27.4,3.5 L28.7,3.5 Z"></path>
                        </g>
                        <g transform="translate(75.000000, 74.000000)" id="Shape" fill="#424242">
                            <path d="M3.1,5.6 L4.2,5.6 C4.9,5.6 5.4,5.4 5.8,5.1 C6.2,4.8 6.4,4.3 6.4,3.7 C6.4,2.4 5.7,1.7 4.4,1.7 C3.8,1.7 3.3,1.9 2.9,2.2 C2.5,2.5 2.3,3 2.3,3.6 L0.9,3.6 C0.9,2.7 1.2,2 1.9,1.4 C2.6,0.8 3.4,0.5 4.4,0.5 C5.5,0.5 6.3,0.8 6.9,1.4 C7.5,2 7.8,2.8 7.8,3.8 C7.8,4.3 7.6,4.8 7.3,5.2 C7,5.6 6.5,6 6,6.2 C6.6,6.4 7.1,6.7 7.4,7.2 C7.7,7.7 7.9,8.2 7.9,8.9 C7.9,9.9 7.6,10.7 6.9,11.3 C6.2,11.9 5.4,12.2 4.3,12.2 C3.2,12.2 2.4,11.9 1.7,11.3 C1,10.7 0.7,10 0.7,9 L2.2,9 C2.2,9.6 2.4,10.1 2.8,10.4 C3.2,10.7 3.7,10.9 4.4,10.9 C5.1,10.9 5.6,10.7 6,10.4 C6.4,10.1 6.6,9.5 6.6,8.8 C6.6,8.1 6.4,7.6 6,7.3 C5.6,7 5,6.8 4.2,6.8 L3.1,6.8 L3.1,5.6 Z"></path>
                        </g>
                        <path d="M2.5,62 C1.7,62 1,61.3 1,60.5 L1,48.5 C1,47.7 1.7,47 2.5,47 L14.5,47 C15.3,47 16,47.7 16,48.5 L16,60.5 C16,61.3 15.3,62 14.5,62 L2.5,62 Z" id="Fill-60-Copy-2" stroke="#BDBDBD" fill="#FFFFFF"></path>
                        <path d="M2.5,40 C1.7,40 1,39.3 1,38.5 L1,26.5 C1,25.7 1.7,25 2.5,25 L14.5,25 C15.3,25 16,25.7 16,26.5 L16,38.5 C16,39.3 15.3,40 14.5,40 L2.5,40 Z" id="Fill-60-Copy-3" stroke="#BDBDBD" fill="#FFFFFF"></path>
                        <path d="M2.5,86 C1.7,86 1,85.3 1,84.5 L1,72.5 C1,71.7 1.7,71 2.5,71 L14.5,71 C15.3,71 16,71.7 16,72.5 L16,84.5 C16,85.3 15.3,86 14.5,86 L2.5,86 Z" id="Fill-60-Copy-4" stroke="#BDBDBD" fill="#FFFFFF"></path>
                        <g id="Shape" fill="#424242">
                            <path d="M7.1,9.1 C7.1,8.6 6.9,8.2 6.6,7.9 C6.3,7.6 5.6,7.4 4.7,7.1 C3.8,6.8 3.1,6.5 2.5,6.2 C1.5,5.5 0.9,4.7 0.9,3.7 C0.9,2.8 1.3,2 2,1.4 C2.8,0.8 3.8,0.5 5,0.5 C5.8,0.5 6.5,0.6 7.1,0.9 C7.7,1.2 8.2,1.6 8.6,2.1 C9,2.6 9.1,3.2 9.1,3.9 L7.1,3.9 C7.1,3.3 6.9,2.8 6.5,2.5 C6.2,2.2 5.6,2 4.9,2 C4.3,2 3.8,2.2 3.4,2.5 C3.1,2.7 2.9,3.1 2.9,3.6 C2.9,4 3.1,4.4 3.5,4.6 C3.9,4.9 4.5,5.1 5.4,5.4 C6.3,5.7 7,6 7.5,6.4 C8,6.7 8.4,7.1 8.7,7.6 C9,8.1 9.1,8.5 9.1,9.1 C9.1,10 8.7,10.8 8,11.4 C7.3,12 6.3,12.2 5,12.2 C4.2,12.2 3.4,12 2.7,11.7 C2,11.4 1.5,11 1.1,10.4 C0.7,9.8 0.5,9.2 0.5,8.5 L2.5,8.5 C2.5,9.1 2.7,9.6 3.1,10 C3.5,10.4 4.1,10.5 4.9,10.5 C5.6,10.5 6.1,10.4 6.5,10.1 C6.9,9.9 7.1,9.5 7.1,9.1 Z"></path>
                            <path d="M14.4,12.2 C13.2,12.2 12.2,11.8 11.5,11.1 C10.8,10.3 10.4,9.3 10.4,8.1 L10.4,7.9 C10.4,7.1 10.6,6.3 10.9,5.6 C11.2,4.9 11.7,4.4 12.3,4 C12.9,3.6 13.5,3.4 14.3,3.4 C15.5,3.4 16.3,3.8 17,4.5 C17.6,5.2 17.9,6.3 17.9,7.6 L17.9,8.4 L12.4,8.4 C12.5,9.1 12.7,9.6 13.1,10.1 C13.5,10.5 14,10.7 14.6,10.7 C15.5,10.7 16.2,10.3 16.7,9.6 L17.7,10.6 C17.4,11.1 16.9,11.5 16.3,11.8 C15.8,12 15.2,12.2 14.4,12.2 Z M14.2,4.9 C13.7,4.9 13.3,5.1 12.9,5.4 C12.5,5.7 12.4,6.3 12.3,6.9 L16,6.9 L16,6.8 C16,6.2 15.8,5.7 15.5,5.4 C15.2,5.1 14.7,4.9 14.2,4.9 Z"></path>
                            <polygon points="21.4 12 19.5 12 19.5 0 21.4 0"></polygon>
                            <path d="M27.3,12.2 C26.1,12.2 25.1,11.8 24.4,11.1 C23.7,10.3 23.3,9.3 23.3,8.1 L23.3,7.9 C23.3,7.1 23.5,6.3 23.8,5.6 C24.1,4.9 24.6,4.4 25.2,4 C25.8,3.6 26.4,3.4 27.2,3.4 C28.4,3.4 29.2,3.8 29.9,4.5 C30.5,5.2 30.8,6.3 30.8,7.6 L30.8,8.4 L25.3,8.4 C25.4,9.1 25.6,9.6 26,10.1 C26.4,10.5 26.9,10.7 27.5,10.7 C28.4,10.7 29.1,10.3 29.6,9.6 L30.6,10.6 C30.3,11.1 29.8,11.5 29.2,11.8 C28.6,12 28,12.2 27.3,12.2 Z M27.1,4.9 C26.6,4.9 26.2,5.1 25.8,5.4 C25.4,5.7 25.3,6.3 25.2,6.9 L28.8,6.9 L28.8,6.8 C28.8,6.2 28.6,5.7 28.3,5.4 C28,5.1 27.6,4.9 27.1,4.9 Z"></path>
                            <path d="M35.7,10.6 C36.2,10.6 36.6,10.5 36.9,10.2 C37.2,9.9 37.4,9.6 37.4,9.2 L39.2,9.2 C39.2,9.7 39,10.2 38.7,10.7 C38.4,11.2 38,11.5 37.5,11.8 C37,12.1 36.4,12.2 35.8,12.2 C34.6,12.2 33.7,11.8 33,11.1 C32.3,10.3 32,9.3 32,7.9 L32,7.7 C32,6.4 32.3,5.4 33,4.6 C33.7,3.8 34.6,3.4 35.8,3.4 C36.8,3.4 37.6,3.7 38.3,4.3 C39,4.9 39.3,5.7 39.3,6.6 L37.5,6.6 C37.5,6.1 37.3,5.7 37,5.4 C36.7,5.1 36.3,4.9 35.8,4.9 C35.2,4.9 34.7,5.1 34.4,5.6 C34.1,6 33.9,6.7 33.9,7.6 L33.9,7.9 C33.9,8.8 34.1,9.5 34.4,10 C34.6,10.4 35.1,10.6 35.7,10.6 Z"></path>
                            <path d="M43.1,1.5 L43.1,3.6 L44.6,3.6 L44.6,5 L43.1,5 L43.1,9.7 C43.1,10 43.2,10.3 43.3,10.4 C43.4,10.5 43.7,10.6 44,10.6 C44.2,10.6 44.4,10.6 44.7,10.5 L44.7,12 C44.3,12.1 43.9,12.2 43.5,12.2 C42,12.2 41.3,11.4 41.3,9.8 L41.3,5 L39.9,5 L39.9,3.5 L41.3,3.5 L41.3,1.5 L43.1,1.5 Z"></path>
                            <path d="M45.6,7.7 C45.6,6.9 45.8,6.1 46.1,5.5 C46.4,4.9 46.9,4.3 47.5,4 C48.1,3.7 48.8,3.5 49.5,3.5 C50.6,3.5 51.6,3.9 52.3,4.6 C53,5.3 53.4,6.3 53.5,7.5 L53.5,7.9 C53.5,8.7 53.3,9.5 53,10.1 C52.7,10.7 52.2,11.3 51.6,11.6 C51,12 50.3,12.1 49.5,12.1 C48.3,12.1 47.4,11.7 46.6,10.9 C45.9,10.2 45.6,9.1 45.6,7.7 L45.6,7.7 Z M47.5,7.9 C47.5,8.8 47.7,9.5 48,9.9 C48.3,10.3 48.9,10.6 49.5,10.6 C50.1,10.6 50.6,10.4 51,9.8 C51.4,9.3 51.5,8.6 51.5,7.6 C51.5,6.7 51.3,6.1 50.9,5.6 C50.5,5.1 50,4.8 49.4,4.8 C48.8,4.8 48.3,5 47.9,5.5 C47.6,6.1 47.5,6.9 47.5,7.9 Z"></path>
                            <path d="M59.6,5.3 C59.4,5.3 59.1,5.2 58.8,5.2 C57.9,5.2 57.3,5.5 57,6.2 L57,12 L55.1,12 L55.1,3.5 L56.9,3.5 L56.9,4.4 C57.4,3.7 58,3.3 58.8,3.3 C59.1,3.3 59.3,3.3 59.5,3.4 L59.6,5.3 Z"></path>
                            <polygon points="72.9 2.2 69.4 2.2 69.4 12 67.4 12 67.4 2.2 63.9 2.2 63.9 0.6 72.9 0.6"></polygon>
                            <path d="M74.3,1.4 C74.3,1.1 74.4,0.9 74.6,0.7 C74.8,0.5 75,0.4 75.4,0.4 C75.8,0.4 76,0.5 76.2,0.7 C76.4,0.9 76.5,1.1 76.5,1.4 C76.5,1.7 76.4,1.9 76.2,2.1 C76,2.3 75.7,2.4 75.4,2.4 C75.1,2.4 74.8,2.3 74.6,2.1 C74.4,1.9 74.3,1.6 74.3,1.4 Z M76.3,12 L74.4,12 L74.4,3.5 L76.3,3.5 L76.3,12 Z"></path>
                            <path d="M80.8,1.5 L80.8,3.6 L82.3,3.6 L82.3,5 L80.8,5 L80.8,9.7 C80.8,10 80.9,10.3 81,10.4 C81.1,10.5 81.4,10.6 81.7,10.6 C81.9,10.6 82.1,10.6 82.4,10.5 L82.4,12 C82,12.1 81.6,12.2 81.2,12.2 C79.7,12.2 79,11.4 79,9.8 L79,5 L77.6,5 L77.6,3.5 L79,3.5 L79,1.5 L80.8,1.5 Z"></path>
                            <polygon points="85.9 12 84 12 84 0 85.9 0"></polygon>
                            <path d="M91.8,12.2 C90.6,12.2 89.6,11.8 88.9,11.1 C88.2,10.3 87.8,9.3 87.8,8.1 L87.8,7.9 C87.8,7.1 88,6.3 88.3,5.6 C88.6,4.9 89.1,4.4 89.7,4 C90.3,3.6 90.9,3.4 91.7,3.4 C92.9,3.4 93.7,3.8 94.4,4.5 C95,5.2 95.3,6.3 95.3,7.6 L95.3,8.4 L89.8,8.4 C89.9,9.1 90.1,9.6 90.5,10.1 C90.9,10.5 91.4,10.7 92,10.7 C92.9,10.7 93.6,10.3 94.1,9.6 L95.1,10.6 C94.8,11.1 94.3,11.5 93.7,11.8 C93.1,12 92.5,12.2 91.8,12.2 Z M91.5,4.9 C91,4.9 90.6,5.1 90.2,5.4 C89.8,5.7 89.7,6.3 89.6,6.9 L93.2,6.9 L93.2,6.8 C93.2,6.2 93,5.7 92.7,5.4 C92.4,5.1 92.1,4.9 91.5,4.9 Z"></path>
                        </g>
                    </g>
                    <g id="Annotation">
                        <g id="specs-_x2F_-redlines-_x2F_-line-straight" transform="translate(241.000000, 6.000000) scale(-1, 1) translate(-241.000000, -6.000000) translate(215.000000, 1.000000)" stroke="#EC3F7A">
                            <path d="M10,5 L52,5" id="Stroke-8"></path>
                            <path d="M5,0 C7.8,0 10,2.2 10,5 C10,7.8 7.8,10 5,10 C2.2,10 0,7.8 0,5 C0,2.2 2.2,0 5,0" id="Path" fill-opacity="0.3" fill="#F03F7B" fill-rule="nonzero"></path>
                        </g>
                        <g id="specs-_x2F_-redlines-_x2F_-line-straight_1_" transform="translate(235.000000, 32.000000) rotate(-180.000000) translate(-235.000000, -32.000000) translate(209.000000, 27.000000)" stroke="#EC3F7A">
                            <path d="M10,5 L52,5" id="Stroke-8_1_"></path>
                            <path d="M5,0 C7.8,0 10,2.2 10,5 C10,7.8 7.8,10 5,10 C2.2,10 0,7.8 0,5 C0,2.2 2.2,0 5,0" id="Path_1_" fill-opacity="0.3" fill="#F03F7B" fill-rule="nonzero"></path>
                        </g>
                        <g id="specs-_x2F_-redlines-_x2F_-label" transform="translate(275.000000, 0.000000)" fill-rule="nonzero" fill="#EC407A">
                            <g id="Group">
                                <path d="M3.5,5.9 C2.5,5.6 1.8,5.3 1.4,4.9 C1,4.5 0.7,4 0.7,3.4 C0.7,2.7 1,2.2 1.5,1.7 C2,1.2 2.8,1 3.6,1 C4.2,1 4.7,1.1 5.2,1.3 C5.7,1.5 6,1.9 6.3,2.3 C6.6,2.7 6.7,3.1 6.7,3.6 L5.5,3.6 C5.5,3.1 5.3,2.7 5,2.4 C4.7,2.1 4.2,2 3.6,2 C3,2 2.6,2.1 2.3,2.4 C2,2.6 1.9,2.9 1.9,3.3 C1.9,3.7 2,4 2.3,4.2 C2.6,4.4 3.1,4.7 3.8,4.9 C4.5,5.1 5.1,5.3 5.5,5.6 C5.9,5.9 6.2,6.1 6.4,6.4 C6.6,6.7 6.7,7.1 6.7,7.5 C6.7,8.2 6.4,8.7 5.9,9.2 C5.4,9.7 4.6,9.8 3.7,9.8 C3.1,9.8 2.6,9.7 2.1,9.5 C1.6,9.3 1.2,9 0.9,8.6 C0.6,8.2 0.5,7.7 0.5,7.2 L1.6,7.2 C1.6,7.7 1.8,8.1 2.2,8.4 C2.6,8.7 3.1,8.8 3.7,8.8 C4.3,8.8 4.7,8.7 5.1,8.4 C5.5,8.1 5.6,7.8 5.6,7.4 C5.6,7 5.5,6.7 5.2,6.4 C4.9,6.1 4.3,6.1 3.5,5.9 Z" id="Shape"></path>
                                <path d="M10.6,9.8 C9.7,9.8 9,9.5 8.5,9 C8,8.5 7.7,7.6 7.7,6.7 L7.7,6.5 C7.7,5.9 7.8,5.3 8.1,4.8 C8.4,4.3 8.7,3.9 9.1,3.6 C9.5,3.3 10,3.2 10.5,3.2 C11.3,3.2 12,3.5 12.4,4 C12.8,4.5 13,5.4 13,6.4 L13,6.9 L8.7,6.9 C8.7,7.5 8.9,8 9.2,8.4 C9.5,8.8 10,9 10.5,9 C10.9,9 11.2,8.9 11.5,8.8 C11.8,8.7 12,8.4 12.2,8.2 L12.9,8.7 C12.4,9.4 11.6,9.8 10.6,9.8 Z M10.4,4.1 C10,4.1 9.6,4.3 9.3,4.6 C9,4.9 8.9,5.4 8.8,5.9 L12,5.9 L12,5.9 C12,5.3 11.8,4.9 11.6,4.6 C11.4,4.3 10.9,4.1 10.4,4.1 Z" id="Shape"></path>
                                <path d="M16.8,8.9 C17.2,8.9 17.5,8.8 17.8,8.5 C18.1,8.2 18.2,8 18.3,7.6 L19.3,7.6 C19.3,8 19.2,8.3 18.9,8.6 C18.6,8.9 18.4,9.2 18,9.4 C17.6,9.6 17.2,9.7 16.8,9.7 C15.9,9.7 15.3,9.4 14.7,8.8 C14.1,8.2 14,7.6 14,6.6 L14,6.4 C14,5.8 14.1,5.2 14.3,4.8 C14.5,4.4 14.9,3.9 15.3,3.7 C15.7,3.5 16.2,3.3 16.8,3.3 C17.5,3.3 18.1,3.5 18.6,3.9 C19.1,4.3 19.3,4.9 19.4,5.6 L18.4,5.6 C18.4,5.2 18.2,4.9 17.9,4.6 C17.6,4.3 17.3,4.2 16.9,4.2 C16.3,4.2 15.9,4.4 15.6,4.8 C15.3,5.2 15.1,5.8 15.1,6.5 L15.1,6.7 C15.1,7.4 15.3,8 15.6,8.4 C15.9,8.8 16.3,8.9 16.8,8.9 Z" id="Shape"></path>
                                <path d="M22,1.8 L22,3.3 L23.2,3.3 L23.2,4.1 L22,4.1 L22,8 C22,8.3 22.1,8.4 22.2,8.6 C22.3,8.8 22.5,8.8 22.7,8.8 C22.8,8.8 23,8.8 23.2,8.7 L23.2,9.6 C22.9,9.7 22.6,9.7 22.4,9.7 C21.9,9.7 21.6,9.6 21.3,9.3 C21,9 21,8.7 21,8.1 L21,4.2 L19.8,4.2 L19.8,3.3 L21,3.3 L21,1.8 L22,1.8 Z" id="Shape"></path>
                                <path d="M24.5,1.7 C24.5,1.5 24.6,1.4 24.7,1.3 C24.8,1.2 24.9,1 25.1,1 C25.3,1 25.5,1.1 25.6,1.2 C25.7,1.3 25.8,1.5 25.8,1.6 C25.8,1.7 25.7,2 25.6,2.1 C25.5,2.2 25.3,2.3 25.1,2.3 C24.9,2.3 24.7,2.2 24.6,2.1 C24.5,2 24.5,1.8 24.5,1.7 Z M25.7,9.7 L24.6,9.7 L24.6,3.3 L25.7,3.3 L25.7,9.7 Z" id="Shape"></path>
                                <path d="M27.1,6.5 C27.1,5.9 27.2,5.3 27.5,4.8 C27.8,4.3 28.1,3.9 28.5,3.7 C28.9,3.5 29.4,3.3 30,3.3 C30.9,3.3 31.6,3.6 32.1,4.2 C32.6,4.8 32.9,5.6 32.9,6.6 L32.9,6.7 C32.9,7.3 32.8,7.9 32.5,8.4 C32.2,8.9 31.9,9.3 31.5,9.5 C31.1,9.7 30.6,9.9 30,9.9 C29.1,9.9 28.4,9.6 27.9,9 C27.4,8.4 27.1,7.5 27.1,6.5 L27.1,6.5 Z M28.2,6.6 C28.2,7.3 28.4,7.9 28.7,8.3 C29,8.7 29.5,8.9 30,8.9 C30.6,8.9 31,8.7 31.3,8.3 C31.6,7.9 31.8,7.3 31.8,6.5 C31.8,5.8 31.6,5.2 31.3,4.8 C31,4.4 30.5,4.1 30,4.1 C29.5,4.1 29,4.3 28.7,4.7 C28.4,5.1 28.2,5.8 28.2,6.6 Z" id="Shape"></path>
                                <path d="M35.3,3.3 L35.3,4.1 C35.8,3.5 36.4,3.2 37.2,3.2 C38.5,3.2 39.2,4 39.2,5.5 L39.2,9.7 L38.1,9.7 L38.1,5.5 C38.1,5 38,4.7 37.8,4.5 C37.6,4.3 37.3,4.2 36.8,4.2 C36.4,4.2 36.1,4.3 35.9,4.5 C35.7,4.7 35.4,4.9 35.3,5.2 L35.3,9.7 L34.2,9.7 L34.2,3.3 L35.3,3.3 Z" id="Shape"></path>
                                <polygon id="Shape" points="45.1 8.8 49.1 8.8 49.1 9.7 44 9.7 44 1.2 45.1 1.2"></polygon>
                                <path d="M54.2,9.7 C54.1,9.6 54.1,9.4 54,9 C53.5,9.5 52.9,9.8 52.2,9.8 C51.6,9.8 51.1,9.6 50.7,9.3 C50.3,9 50.1,8.5 50.1,8 C50.1,7.3 50.4,6.8 50.9,6.5 C51.4,6.2 52.1,6 53,6 L54,6 L54,5.3 C54,4.9 53.9,4.6 53.7,4.4 C53.5,4.2 53.1,4.1 52.7,4.1 C52.3,4.1 52,4.2 51.7,4.4 C51.4,4.6 51.3,4.8 51.3,5.1 L50.2,5.1 C50.2,4.8 50.3,4.5 50.5,4.2 C50.7,3.9 51,3.7 51.4,3.5 C51.8,3.3 52.2,3.2 52.7,3.2 C53.4,3.2 54,3.4 54.4,3.7 C54.8,4 55,4.6 55,5.2 L55,8.1 C55,8.7 55.1,9.1 55.2,9.5 L55.2,9.6 L54.2,9.6 L54.2,9.7 Z M52.4,8.9 C52.7,8.9 53.1,8.8 53.4,8.6 C53.7,8.4 53.9,8.2 54.1,7.9 L54.1,6.6 L53.3,6.6 C52,6.6 51.3,7 51.3,7.8 C51.3,8.1 51.4,8.4 51.6,8.6 C51.8,8.8 52.1,8.9 52.4,8.9 Z" id="Shape"></path>
                                <path d="M62.2,6.6 C62.2,7.6 62,8.3 61.5,8.9 C61,9.5 60.5,9.8 59.7,9.8 C58.9,9.8 58.3,9.5 57.8,9 L57.7,9.7 L56.7,9.7 L56.7,0.7 L57.8,0.7 L57.8,4 C58.2,3.5 58.8,3.2 59.6,3.2 C60.4,3.2 61,3.5 61.4,4.1 C61.8,4.7 62.2,5.5 62.2,6.6 L62.2,6.6 Z M61.1,6.5 C61.1,5.8 61,5.2 60.7,4.8 C60.4,4.4 60,4.2 59.5,4.2 C58.8,4.2 58.3,4.5 58,5.2 L58,7.9 C58.3,8.6 58.8,8.9 59.6,8.9 C60.1,8.9 60.5,8.7 60.8,8.3 C61.1,7.9 61.1,7.3 61.1,6.5 Z" id="Shape"></path>
                                <path d="M66.2,9.8 C65.3,9.8 64.6,9.5 64.1,9 C63.6,8.5 63.3,7.7 63.3,6.7 L63.3,6.5 C63.3,5.9 63.4,5.3 63.7,4.8 C64,4.3 64.3,3.9 64.7,3.6 C65.1,3.3 65.6,3.2 66.1,3.2 C66.9,3.2 67.6,3.5 68,4 C68.4,4.5 68.7,5.3 68.7,6.3 L68.7,6.8 L64.4,6.8 C64.4,7.4 64.6,7.9 64.9,8.3 C65.2,8.7 65.7,8.9 66.2,8.9 C66.6,8.9 66.9,8.8 67.2,8.7 C67.5,8.6 67.7,8.3 67.9,8.1 L68.6,8.6 C68.1,9.4 67.3,9.8 66.2,9.8 Z M66.1,4.1 C65.7,4.1 65.3,4.3 65,4.6 C64.7,4.9 64.5,5.4 64.4,5.9 L67.6,5.9 L67.6,5.9 C67.6,5.3 67.4,4.9 67.2,4.6 C67,4.3 66.5,4.1 66.1,4.1 Z" id="Shape"></path>
                                <polygon id="Shape" points="71.1 9.7 70 9.7 70 0.7 71.1 0.7"></polygon>
                            </g>
                        </g>
                        <g id="specs-_x2F_-redlines-_x2F_-label_1_" transform="translate(269.000000, 26.000000)" fill-rule="nonzero" fill="#EC407A">
                            <g id="Group">
                                <path d="M7.3,7 C7.2,7.9 6.9,8.6 6.3,9.1 C5.7,9.6 5,9.8 4,9.8 C3,9.8 2.2,9.4 1.6,8.7 C1,8 0.7,7 0.7,5.8 L0.7,5 C0.7,4.2 0.8,3.5 1.1,2.9 C1.4,2.3 1.8,1.8 2.3,1.5 C2.8,1.2 3.4,1 4.1,1 C5,1 5.8,1.3 6.3,1.8 C6.8,2.3 7.2,3 7.3,3.9 L6.1,3.9 C6,3.2 5.8,2.7 5.5,2.4 C5.2,2.1 4.7,2 4.1,2 C3.4,2 2.8,2.2 2.4,2.8 C2,3.3 1.8,4 1.8,5 L1.8,5.8 C1.8,6.7 2,7.5 2.4,8 C2.8,8.5 3.3,8.8 4,8.8 C4.6,8.8 5.1,8.7 5.4,8.4 C5.7,8.1 6,7.7 6.1,7 L7.3,7 Z" id="Shape"></path>
                                <path d="M9.7,4.1 C10.2,3.5 10.8,3.2 11.6,3.2 C12.9,3.2 13.6,4 13.6,5.5 L13.6,9.7 L12.5,9.7 L12.5,5.5 C12.5,5 12.4,4.7 12.2,4.5 C12,4.3 11.7,4.2 11.2,4.2 C10.8,4.2 10.5,4.3 10.3,4.5 C10.1,4.7 9.9,4.9 9.7,5.2 L9.7,9.7 L8.6,9.7 L8.6,0.7 L9.7,0.7 L9.7,4.1 Z" id="Shape"></path>
                                <path d="M17.9,9.8 C17,9.8 16.3,9.5 15.8,9 C15.3,8.5 15,7.6 15,6.7 L15,6.5 C15,5.9 15.1,5.3 15.4,4.8 C15.7,4.3 16,3.9 16.4,3.6 C16.8,3.3 17.3,3.2 17.8,3.2 C18.6,3.2 19.3,3.5 19.7,4 C20.1,4.5 20.4,5.3 20.4,6.3 L20.4,6.8 L16,6.8 C16,7.4 16.2,7.9 16.5,8.3 C16.8,8.7 17.3,8.9 17.8,8.9 C18.2,8.9 18.5,8.8 18.8,8.7 C19.1,8.6 19.3,8.3 19.5,8.1 L20.2,8.6 C19.7,9.4 18.9,9.8 17.9,9.8 Z M17.7,4.1 C17.3,4.1 16.9,4.3 16.6,4.6 C16.3,4.9 16.1,5.4 16,5.9 L19.2,5.9 L19.2,5.9 C19.2,5.3 19,4.9 18.8,4.6 C18.6,4.3 18.2,4.1 17.7,4.1 Z" id="Shape"></path>
                                <path d="M24.1,8.9 C24.5,8.9 24.8,8.8 25.1,8.5 C25.4,8.2 25.5,8 25.6,7.6 L26.6,7.6 C26.6,8 26.5,8.3 26.2,8.6 C25.9,8.9 25.7,9.2 25.3,9.4 C24.9,9.6 24.5,9.7 24.1,9.7 C23.2,9.7 22.6,9.4 22,8.8 C21.4,8.2 21.2,7.4 21.2,6.4 L21.2,6.4 C21.2,5.8 21.3,5.2 21.5,4.8 C21.7,4.4 22.1,3.9 22.5,3.7 C22.9,3.5 23.4,3.3 24,3.3 C24.7,3.3 25.3,3.5 25.8,3.9 C26.3,4.3 26.5,4.9 26.6,5.6 L25.6,5.6 C25.6,5.2 25.4,4.9 25.1,4.6 C24.8,4.3 24.5,4.2 24.1,4.2 C23.5,4.2 23.1,4.4 22.8,4.8 C22.5,5.2 22.3,5.8 22.3,6.5 L22.3,6.7 C22.3,7.4 22.5,8 22.8,8.4 C23.1,8.8 23.6,8.9 24.1,8.9 Z" id="Shape"></path>
                                <polygon id="Shape" points="29.6 6.8 29 7.5 29 9.7 27.9 9.7 27.9 0.7 29 0.7 29 6.1 29.6 5.4 31.6 3.3 32.9 3.3 30.4 6 33.2 9.7 31.9 9.7"></polygon>
                                <path d="M39.3,6.6 C39.3,7.6 39.1,8.3 38.6,8.9 C38.1,9.5 37.6,9.8 36.8,9.8 C36,9.8 35.4,9.5 34.9,9 L35,9.7 L34,9.7 L34,0.7 L35,0.7 L35,4 C35.4,3.5 36,3.2 36.8,3.2 C37.6,3.2 38.2,3.5 38.6,4.1 C39,4.7 39.3,5.5 39.3,6.6 L39.3,6.6 Z M38.2,6.5 C38.2,5.8 38.1,5.2 37.8,4.8 C37.5,4.4 37.1,4.2 36.6,4.2 C35.9,4.2 35.4,4.5 35.1,5.2 L35.1,7.9 C35.4,8.6 35.9,8.9 36.7,8.9 C37.2,8.9 37.6,8.7 37.9,8.3 C38.2,7.9 38.2,7.3 38.2,6.5 Z" id="Shape"></path>
                                <path d="M40.4,6.5 C40.4,5.9 40.5,5.3 40.8,4.8 C41.1,4.3 41.4,3.9 41.8,3.7 C42.2,3.5 42.7,3.3 43.3,3.3 C44.2,3.3 44.9,3.6 45.4,4.2 C45.9,4.8 46.2,5.6 46.2,6.6 L46.2,6.7 C46.2,7.3 46.1,7.9 45.8,8.4 C45.5,8.9 45.2,9.3 44.8,9.5 C44.4,9.7 43.9,9.9 43.3,9.9 C42.4,9.9 41.7,9.6 41.2,9 C40.7,8.4 40.4,7.5 40.4,6.5 L40.4,6.5 Z M41.5,6.6 C41.5,7.3 41.7,7.9 42,8.3 C42.3,8.7 42.8,8.9 43.3,8.9 C43.9,8.9 44.3,8.7 44.6,8.3 C44.9,7.9 45.1,7.3 45.1,6.5 C45.1,5.8 44.9,5.2 44.6,4.8 C44.3,4.4 43.8,4.2 43.3,4.2 C42.8,4.2 42.3,4.4 42,4.8 C41.7,5.2 41.5,5.8 41.5,6.6 Z" id="Shape"></path>
                                <polygon id="Shape" points="49.5 5.7 50.9 3.4 52.2 3.4 50.1 6.5 52.2 9.7 51 9.7 49.5 7.3 48 9.7 46.7 9.7 49 6.5 46.9 3.4 48.2 3.4"></polygon>
                                <polygon id="Shape" points="57.6 8.8 61.6 8.8 61.6 9.7 56.4 9.7 56.4 1.2 57.5 1.2 57.5 8.8"></polygon>
                                <path d="M66.7,9.7 C66.6,9.6 66.6,9.4 66.5,9 C66,9.5 65.4,9.8 64.7,9.8 C64.1,9.8 63.6,9.6 63.2,9.3 C62.8,9 62.6,8.5 62.6,8 C62.6,7.3 62.9,6.8 63.4,6.5 C63.9,6.2 64.6,6 65.5,6 L66.6,6 L66.6,5.3 C66.6,4.9 66.5,4.6 66.3,4.4 C66.1,4.2 65.7,4.1 65.3,4.1 C64.9,4.1 64.6,4.2 64.3,4.4 C64,4.6 63.9,4.8 63.9,5.1 L62.8,5.1 C62.8,4.8 62.9,4.5 63.1,4.2 C63.3,3.9 63.6,3.7 64,3.5 C64.4,3.3 64.8,3.2 65.3,3.2 C66,3.2 66.6,3.4 67,3.7 C67.4,4 67.6,4.6 67.6,5.2 L67.6,8.1 C67.6,8.7 67.7,9.1 67.8,9.5 L67.8,9.6 L66.7,9.6 L66.7,9.7 Z M64.9,8.9 C65.2,8.9 65.6,8.8 65.9,8.6 C66.2,8.4 66.4,8.2 66.6,7.9 L66.6,6.6 L65.8,6.6 C64.5,6.6 63.8,7 63.8,7.8 C63.8,8.1 63.9,8.4 64.1,8.6 C64.3,8.8 64.5,8.9 64.9,8.9 Z" id="Shape"></path>
                                <path d="M74.7,6.6 C74.7,7.6 74.5,8.3 74,8.9 C73.5,9.5 73,9.8 72.2,9.8 C71.4,9.8 70.8,9.5 70.3,9 L70.2,9.7 L69.2,9.7 L69.2,0.7 L70.3,0.7 L70.3,4 C70.7,3.5 71.3,3.2 72.1,3.2 C72.9,3.2 73.5,3.5 73.9,4.1 C74.3,4.7 74.7,5.5 74.7,6.6 L74.7,6.6 Z M73.6,6.5 C73.6,5.8 73.5,5.2 73.2,4.8 C72.9,4.4 72.5,4.2 72,4.2 C71.3,4.2 70.8,4.5 70.5,5.2 L70.5,7.9 C70.8,8.6 71.3,8.9 72.1,8.9 C72.6,8.9 73,8.7 73.3,8.3 C73.6,7.9 73.6,7.3 73.6,6.5 Z" id="Shape"></path>
                                <path d="M78.7,9.8 C77.8,9.8 77.1,9.5 76.6,9 C76.1,8.5 75.8,7.7 75.8,6.7 L75.8,6.5 C75.8,5.9 75.9,5.3 76.2,4.8 C76.5,4.3 76.8,3.9 77.2,3.6 C77.6,3.3 78.1,3.2 78.6,3.2 C79.4,3.2 80.1,3.5 80.5,4 C80.9,4.5 81.2,5.3 81.2,6.3 L81.2,6.8 L76.9,6.8 C76.9,7.4 77.1,7.9 77.4,8.3 C77.7,8.7 78.2,8.9 78.7,8.9 C79.1,8.9 79.4,8.8 79.7,8.7 C80,8.6 80.2,8.3 80.4,8.1 L81.1,8.6 C80.5,9.4 79.7,9.8 78.7,9.8 Z M78.5,4.1 C78.1,4.1 77.7,4.3 77.4,4.6 C77.1,4.9 77,5.4 76.9,5.9 L80.1,5.9 L80.1,5.9 C80.1,5.3 79.9,4.9 79.7,4.6 C79.5,4.3 79,4.1 78.5,4.1 Z" id="Shape"></path>
                                <polygon id="Shape" points="83.6 9.7 82.5 9.7 82.5 0.7 83.6 0.7"></polygon>
                            </g>
                        </g>
                        <g id="specs-_x2F_-redlines-_x2F_-line-straight_2_" transform="translate(61.000000, 28.000000)" stroke="#EC3F7A">
                            <path d="M10,5 L52,5" id="Stroke-8_2_"></path>
                            <path d="M5,0 C7.8,0 10,2.2 10,5 C10,7.8 7.8,10 5,10 C2.2,10 0,7.8 0,5 C0,2.2 2.2,0 5,0" id="Path_2_" fill-opacity="0.3" fill="#F03F7B" fill-rule="nonzero"></path>
                        </g>
                        <g id="specs-_x2F_-redlines-_x2F_-label_2_" transform="translate(0.000000, 29.000000)" fill-rule="nonzero" fill="#EC407A">
                            <g id="Group">
                                <path d="M7.3,7 C7.2,7.9 6.9,8.6 6.3,9.1 C5.7,9.6 5,9.8 4,9.8 C3,9.8 2.2,9.4 1.6,8.7 C1,8 0.7,7 0.7,5.8 L0.7,5 C0.7,4.2 0.8,3.5 1.1,2.9 C1.4,2.3 1.8,1.8 2.3,1.5 C2.8,1.2 3.4,1 4.1,1 C5,1 5.8,1.3 6.3,1.8 C6.8,2.3 7.2,3 7.3,3.9 L6.1,3.9 C6,3.2 5.8,2.7 5.5,2.4 C5.2,2.1 4.7,2 4.1,2 C3.4,2 2.8,2.2 2.4,2.8 C2,3.3 1.8,4 1.8,5 L1.8,5.8 C1.8,6.7 2,7.5 2.4,8 C2.8,8.5 3.3,8.8 4,8.8 C4.6,8.8 5.1,8.7 5.4,8.4 C5.7,8.1 6,7.7 6.1,7 L7.3,7 Z" id="Shape"></path>
                                <path d="M9.7,4.1 C10.2,3.5 10.8,3.2 11.6,3.2 C12.9,3.2 13.6,4 13.6,5.5 L13.6,9.7 L12.5,9.7 L12.5,5.5 C12.5,5 12.4,4.7 12.2,4.5 C12,4.3 11.7,4.2 11.2,4.2 C10.8,4.2 10.5,4.3 10.3,4.5 C10.1,4.7 9.9,4.9 9.7,5.2 L9.7,9.7 L8.6,9.7 L8.6,0.7 L9.7,0.7 L9.7,4.1 Z" id="Shape"></path>
                                <path d="M17.9,9.8 C17,9.8 16.3,9.5 15.8,9 C15.3,8.5 15,7.6 15,6.7 L15,6.5 C15,5.9 15.1,5.3 15.4,4.8 C15.7,4.3 16,3.9 16.4,3.6 C16.8,3.3 17.3,3.2 17.8,3.2 C18.6,3.2 19.3,3.5 19.7,4 C20.1,4.5 20.4,5.3 20.4,6.3 L20.4,6.8 L16,6.8 C16,7.4 16.2,7.9 16.5,8.3 C16.8,8.7 17.3,8.9 17.8,8.9 C18.2,8.9 18.5,8.8 18.8,8.7 C19.1,8.6 19.3,8.3 19.5,8.1 L20.2,8.6 C19.7,9.4 18.9,9.8 17.9,9.8 Z M17.7,4.1 C17.3,4.1 16.9,4.3 16.6,4.6 C16.3,4.9 16.1,5.4 16,5.9 L19.2,5.9 L19.2,5.9 C19.2,5.3 19,4.9 18.8,4.6 C18.6,4.3 18.2,4.1 17.7,4.1 Z" id="Shape"></path>
                                <path d="M24.1,8.9 C24.5,8.9 24.8,8.8 25.1,8.5 C25.4,8.2 25.5,8 25.6,7.6 L26.6,7.6 C26.6,8 26.5,8.3 26.2,8.6 C25.9,8.9 25.7,9.2 25.3,9.4 C24.9,9.6 24.5,9.7 24.1,9.7 C23.2,9.7 22.6,9.4 22,8.8 C21.4,8.2 21.2,7.4 21.2,6.4 L21.2,6.4 C21.2,5.8 21.3,5.2 21.5,4.8 C21.7,4.4 22.1,3.9 22.5,3.7 C22.9,3.5 23.4,3.3 24,3.3 C24.7,3.3 25.3,3.5 25.8,3.9 C26.3,4.3 26.5,4.9 26.6,5.6 L25.6,5.6 C25.6,5.2 25.4,4.9 25.1,4.6 C24.8,4.3 24.5,4.2 24.1,4.2 C23.5,4.2 23.1,4.4 22.8,4.8 C22.5,5.2 22.3,5.8 22.3,6.5 L22.3,6.7 C22.3,7.4 22.5,8 22.8,8.4 C23.1,8.8 23.6,8.9 24.1,8.9 Z" id="Shape"></path>
                                <polygon id="Shape" points="29.6 6.8 29 7.5 29 9.7 27.9 9.7 27.9 0.7 29 0.7 29 6.1 29.6 5.4 31.6 3.3 32.9 3.3 30.4 6 33.2 9.7 31.9 9.7"></polygon>
                                <path d="M39.3,6.6 C39.3,7.6 39.1,8.3 38.6,8.9 C38.1,9.5 37.6,9.8 36.8,9.8 C36,9.8 35.4,9.5 34.9,9 L35,9.7 L34,9.7 L34,0.7 L35,0.7 L35,4 C35.4,3.5 36,3.2 36.8,3.2 C37.6,3.2 38.2,3.5 38.6,4.1 C39,4.7 39.3,5.5 39.3,6.6 L39.3,6.6 Z M38.2,6.5 C38.2,5.8 38.1,5.2 37.8,4.8 C37.5,4.4 37.1,4.2 36.6,4.2 C35.9,4.2 35.4,4.5 35.1,5.2 L35.1,7.9 C35.4,8.6 35.9,8.9 36.7,8.9 C37.2,8.9 37.6,8.7 37.9,8.3 C38.2,7.9 38.2,7.3 38.2,6.5 Z" id="Shape"></path>
                                <path d="M40.4,6.5 C40.4,5.9 40.5,5.3 40.8,4.8 C41.1,4.3 41.4,3.9 41.8,3.7 C42.2,3.5 42.7,3.3 43.3,3.3 C44.2,3.3 44.9,3.6 45.4,4.2 C45.9,4.8 46.2,5.6 46.2,6.6 L46.2,6.7 C46.2,7.3 46.1,7.9 45.8,8.4 C45.5,8.9 45.2,9.3 44.8,9.5 C44.4,9.7 43.9,9.9 43.3,9.9 C42.4,9.9 41.7,9.6 41.2,9 C40.7,8.4 40.4,7.5 40.4,6.5 L40.4,6.5 Z M41.5,6.6 C41.5,7.3 41.7,7.9 42,8.3 C42.3,8.7 42.8,8.9 43.3,8.9 C43.9,8.9 44.3,8.7 44.6,8.3 C44.9,7.9 45.1,7.3 45.1,6.5 C45.1,5.8 44.9,5.2 44.6,4.8 C44.3,4.4 43.8,4.2 43.3,4.2 C42.8,4.2 42.3,4.4 42,4.8 C41.7,5.2 41.5,5.8 41.5,6.6 Z" id="Shape"></path>
                                <polygon id="Shape" points="49.5 5.7 50.9 3.4 52.2 3.4 50.1 6.5 52.2 9.7 51 9.7 49.5 7.3 48 9.7 46.7 9.7 49 6.5 46.9 3.4 48.2 3.4"></polygon>
                            </g>
                        </g>
                    </g>
                </g>
            </g>
        </g>
    </g>
</svg>