<?xml version="1.0" encoding="UTF-8" standalone="no"?>
<svg width="634px" height="375px" viewBox="0 0 634 375" version="1.1" xmlns="http://www.w3.org/2000/svg" xmlns:xlink="http://www.w3.org/1999/xlink">
    <!-- Generator: Sketch 47.1 (45422) - http://www.bohemiancoding.com/sketch -->
    <title>checkbox-indeterminate-image</title>
    <desc>Created with Sketch.</desc>
    <defs></defs>
    <g id="Page-1" stroke="none" stroke-width="1" fill="none" fill-rule="evenodd">
        <g id="checkbox-indeterminate-image" transform="translate(7.000000, 22.000000)">
            <g id="Tables_x2F_Unbounded-Table">
                <path d="M611.9,94 L0,94" id="Stroke-8" stroke="#E0E0E0"></path>
                <g id="Group" transform="translate(287.000000, 56.000000)" fill-rule="nonzero" fill="#616262">
                    <polygon id="Shape" points="1.8 10.8 7.2 10.8 7.2 12 0.3 12 0.3 0.6 1.8 0.6"></polygon>
                    <path d="M8.3,7.7 C8.3,6.9 8.5,6.1 8.8,5.5 C9.1,4.8 9.6,4.3 10.2,4 C10.8,3.6 11.4,3.5 12.2,3.5 C13.4,3.5 14.3,3.9 15,4.7 C15.7,5.5 16.1,6.6 16.1,7.9 L16.1,8 C16.1,8.8 15.9,9.6 15.6,10.2 C15.3,10.9 14.8,11.4 14.2,11.7 C13.6,12 12.9,12.2 12.2,12.2 C11.1,12.2 10.1,11.8 9.4,11 C8.7,10.2 8.3,9.1 8.3,7.8 L8.3,7.7 Z M9.8,7.9 C9.8,8.8 10,9.6 10.5,10.2 C10.9,10.8 11.5,11.1 12.2,11.1 C12.9,11.1 13.5,10.8 14,10.2 C14.4,9.6 14.6,8.8 14.6,7.8 C14.6,6.9 14.4,6.1 13.9,5.5 C13.5,4.9 12.9,4.6 12.1,4.6 C11.4,4.6 10.8,4.9 10.4,5.5 C10,6.1 9.8,6.8 9.8,7.9 Z" id="Shape"></path>
                </g>
                <g id="Group" transform="translate(304.000000, 59.000000)" fill-rule="nonzero" fill="#616262">
                    <path d="M4.9,1.8 C4.7,1.8 4.4,1.7 4.2,1.7 C3.3,1.7 2.6,2.1 2.3,2.9 L2.3,8.9 L0.9,8.9 L0.9,0.4 L2.3,0.4 L2.3,1.4 C2.8,0.6 3.4,0.3 4.3,0.3 C4.6,0.3 4.8,0.3 4.9,0.4 L4.9,1.8 L4.9,1.8 Z" id="Shape"></path>
                </g>
                <g id="Group" transform="translate(309.000000, 56.000000)" fill-rule="nonzero" fill="#616262">
                    <path d="M4.6,12.2 C3.5,12.2 2.5,11.8 1.8,11.1 C1.1,10.4 0.7,9.3 0.7,8.1 L0.7,7.8 C0.7,7 0.9,6.2 1.2,5.6 C1.5,5 2,4.4 2.5,4.1 C3.1,3.7 3.7,3.5 4.4,3.5 C5.5,3.5 6.4,3.9 7,4.6 C7.6,5.3 7.9,6.4 7.9,7.7 L7.9,8.3 L2.2,8.3 C2.2,9.1 2.5,9.8 2.9,10.3 C3.4,10.8 4,11.1 4.7,11.1 C5.2,11.1 5.6,11 6,10.8 C6.4,10.6 6.7,10.3 6.9,10 L7.8,10.7 C7.1,11.6 6,12.2 4.6,12.2 Z M4.4,4.6 C3.8,4.6 3.3,4.8 2.9,5.2 C2.5,5.6 2.3,6.2 2.2,7 L6.4,7 L6.4,6.9 C6.4,6.2 6.2,5.6 5.8,5.2 C5.5,4.8 5,4.6 4.4,4.6 Z" id="Shape"></path>
                    <path d="M10.9,3.5 L10.9,4.4 C11.5,3.7 12.4,3.3 13.4,3.3 C14.6,3.3 15.4,3.8 15.8,4.7 C16.1,4.3 16.4,4 16.9,3.7 C17.4,3.5 17.9,3.3 18.5,3.3 C20.4,3.3 21.3,4.3 21.3,6.2 L21.3,12 L20,12 L20,6.4 C20,5.8 19.9,5.3 19.6,5 C19.3,4.7 18.9,4.6 18.2,4.6 C17.7,4.6 17.2,4.8 16.9,5.1 C16.5,5.4 16.3,5.9 16.3,6.4 L16.3,12 L14.8,12 L14.8,6.5 C14.8,5.3 14.2,4.7 13,4.7 C12.1,4.7 11.4,5.1 11.1,5.9 L11.1,12 L9.7,12 L9.7,3.5 L10.9,3.5 Z" id="Shape"></path>
                    <path d="M27.6,1.3 C27.6,1.1 27.7,0.9 27.8,0.7 C27.9,0.5 28.2,0.5 28.4,0.5 C28.6,0.5 28.9,0.6 29,0.7 C29.1,0.9 29.2,1.1 29.2,1.3 C29.2,1.5 29.1,1.7 29,1.9 C28.9,2.1 28.6,2.1 28.4,2.1 C28.2,2.1 27.9,2 27.8,1.9 C27.6,1.7 27.6,1.5 27.6,1.3 Z M29.1,12 L27.7,12 L27.7,3.5 L29.1,3.5 L29.1,12 Z" id="Shape"></path>
                    <path d="M38.6,7.9 C38.6,9.2 38.3,10.2 37.7,11 C37.1,11.8 36.3,12.2 35.3,12.2 C34.3,12.2 33.5,11.9 32.9,11.2 L32.9,15.3 L31.5,15.3 L31.5,3.5 L32.8,3.5 L32.9,4.4 C33.5,3.7 34.3,3.3 35.4,3.3 C36.4,3.3 37.2,3.7 37.8,4.4 C38.4,5.2 38.7,6.2 38.7,7.6 L38.7,7.9 L38.6,7.9 Z M37.1,7.7 C37.1,6.7 36.9,6 36.5,5.4 C36.1,4.8 35.5,4.6 34.8,4.6 C33.9,4.6 33.3,5 32.8,5.8 L32.8,9.8 C33.2,10.6 33.9,11 34.8,11 C35.5,11 36,10.7 36.5,10.2 C36.9,9.6 37.1,8.8 37.1,7.7 Z" id="Shape"></path>
                    <path d="M45.3,9.8 C45.3,9.4 45.2,9.1 44.9,8.9 C44.6,8.7 44.1,8.5 43.4,8.3 C42.7,8.1 42.1,8 41.7,7.7 C41.3,7.4 41,7.2 40.7,6.9 C40.5,6.6 40.4,6.2 40.4,5.8 C40.4,5.1 40.7,4.5 41.3,4 C41.9,3.5 42.6,3.3 43.5,3.3 C44.5,3.3 45.2,3.5 45.8,4 C46.4,4.5 46.7,5.1 46.7,5.9 L45.2,5.9 C45.2,5.5 45,5.2 44.7,4.9 C44.4,4.6 43.9,4.5 43.4,4.5 C42.9,4.5 42.5,4.6 42.2,4.8 C41.9,5 41.8,5.3 41.8,5.7 C41.8,6 41.9,6.3 42.2,6.5 C42.5,6.7 43,6.8 43.7,7 C44.4,7.2 45,7.4 45.5,7.6 C45.9,7.8 46.3,8.1 46.5,8.4 C46.7,8.7 46.8,9.1 46.8,9.6 C46.8,10.4 46.5,11 45.9,11.4 C45.3,11.9 44.5,12.1 43.5,12.1 C42.8,12.1 42.2,12 41.7,11.7 C41.2,11.5 40.8,11.1 40.5,10.7 C40.2,10.3 40.1,9.8 40.1,9.3 L41.5,9.3 C41.5,9.8 41.7,10.2 42.1,10.5 C42.5,10.8 42.9,10.9 43.5,10.9 C44,10.9 44.5,10.8 44.8,10.6 C45.2,10.4 45.3,10.1 45.3,9.8 Z" id="Shape"></path>
                    <path d="M53.9,11.2 C53.3,11.9 52.5,12.2 51.4,12.2 C50.5,12.2 49.8,11.9 49.3,11.4 C48.8,10.9 48.6,10.1 48.6,9.1 L48.6,3.6 L50,3.6 L50,9 C50,10.3 50.5,10.9 51.6,10.9 C52.7,10.9 53.4,10.5 53.8,9.7 L53.8,3.6 L55.2,3.6 L55.2,12 L53.8,12 L53.9,11.2 Z" id="Shape"></path>
                    <path d="M58.9,3.5 L58.9,4.4 C59.5,3.7 60.4,3.3 61.4,3.3 C62.6,3.3 63.4,3.8 63.8,4.7 C64.1,4.3 64.4,4 64.9,3.7 C65.4,3.5 65.9,3.3 66.5,3.3 C68.4,3.3 69.3,4.3 69.3,6.2 L69.3,12 L67.9,12 L67.9,6.4 C67.9,5.8 67.8,5.3 67.5,5 C67.2,4.7 66.8,4.6 66.1,4.6 C65.6,4.6 65.1,4.8 64.8,5.1 C64.4,5.4 64.2,5.9 64.2,6.4 L64.2,12 L62.7,12 L62.7,6.5 C62.7,5.3 62.1,4.7 60.9,4.7 C60,4.7 59.3,5.1 59,5.9 L59,12 L57.6,12 L57.6,3.5 L58.9,3.5 Z" id="Shape"></path>
                    <path d="M75.1,7.7 C75.1,6.4 75.4,5.4 76,4.6 C76.6,3.8 77.4,3.4 78.4,3.4 C79.4,3.4 80.2,3.7 80.8,4.4 L80.8,0 L82.2,0 L82.2,12 L80.9,12 L80.8,11.1 C80.2,11.8 79.4,12.2 78.4,12.2 C77.4,12.2 76.6,11.8 76,11 C75.4,10.2 75.1,9.2 75.1,7.9 L75.1,7.7 L75.1,7.7 Z M76.6,7.9 C76.6,8.9 76.8,9.6 77.2,10.1 C77.6,10.6 78.1,10.9 78.8,10.9 C79.7,10.9 80.4,10.5 80.8,9.7 L80.8,5.8 C80.4,5 79.7,4.6 78.8,4.6 C78.1,4.6 77.5,4.9 77.1,5.4 C76.8,6 76.6,6.8 76.6,7.9 Z" id="Shape"></path>
                    <path d="M84.1,7.7 C84.1,6.9 84.3,6.1 84.6,5.5 C84.9,4.8 85.4,4.3 86,4 C86.6,3.6 87.2,3.5 88,3.5 C89.2,3.5 90.1,3.9 90.8,4.7 C91.5,5.5 91.9,6.6 91.9,7.9 L91.9,8 C91.9,8.8 91.7,9.6 91.4,10.2 C91.1,10.9 90.6,11.4 90,11.7 C89.4,12 88.7,12.2 88,12.2 C86.9,12.2 85.9,11.8 85.2,11 C84.5,10.2 84.1,9.1 84.1,7.8 L84.1,7.7 Z M85.6,7.9 C85.6,8.8 85.8,9.6 86.3,10.2 C86.7,10.8 87.3,11.1 88,11.1 C88.7,11.1 89.3,10.8 89.8,10.2 C90.2,9.6 90.4,8.8 90.4,7.8 C90.4,6.9 90.2,6.1 89.7,5.5 C89.3,4.9 88.7,4.6 87.9,4.6 C87.2,4.6 86.6,4.9 86.2,5.5 C85.8,6.1 85.6,6.8 85.6,7.9 Z" id="Shape"></path>
                    <polygon id="Shape" points="95.2 12 93.8 12 93.8 0 95.2 0"></polygon>
                    <path d="M97.1,7.7 C97.1,6.9 97.3,6.1 97.6,5.5 C97.9,4.8 98.4,4.3 99,4 C99.6,3.6 100.2,3.5 101,3.5 C102.2,3.5 103.1,3.9 103.8,4.7 C104.5,5.5 104.9,6.6 104.9,7.9 L104.9,8 C104.9,8.8 104.7,9.6 104.4,10.2 C104.1,10.9 103.6,11.4 103,11.7 C102.4,12 101.7,12.2 101,12.2 C99.9,12.2 98.9,11.8 98.2,11 C97.5,10.2 97.1,9.1 97.1,7.8 L97.1,7.7 Z M98.6,7.9 C98.6,8.8 98.8,9.6 99.3,10.2 C99.7,10.8 100.3,11.1 101,11.1 C101.7,11.1 102.3,10.8 102.8,10.2 C103.2,9.6 103.4,8.8 103.4,7.8 C103.4,6.9 103.2,6.1 102.7,5.5 C102.3,4.9 101.7,4.6 100.9,4.6 C100.2,4.6 99.6,4.9 99.2,5.5 C98.8,6.1 98.6,6.8 98.6,7.9 Z" id="Shape"></path>
                    <path d="M110.7,4.8 C110.5,4.8 110.2,4.7 110,4.7 C109.1,4.7 108.4,5.1 108.1,5.9 L108.1,11.9 L106.7,11.9 L106.7,3.4 L108.1,3.4 L108.1,4.4 C108.6,3.6 109.2,3.3 110.1,3.3 C110.4,3.3 110.6,3.3 110.7,3.4 L110.7,4.8 L110.7,4.8 Z" id="Shape"></path>
                    <path d="M120.9,9.8 C120.9,9.4 120.8,9.1 120.5,8.9 C120.2,8.7 119.7,8.5 119,8.3 C118.3,8.1 117.7,8 117.3,7.7 C116.9,7.4 116.6,7.2 116.3,6.9 C116.1,6.6 116,6.2 116,5.8 C116,5.1 116.3,4.5 116.9,4 C117.5,3.5 118.2,3.3 119.1,3.3 C120.1,3.3 120.8,3.5 121.4,4 C122,4.5 122.3,5.1 122.3,5.9 L120.8,5.9 C120.8,5.5 120.6,5.2 120.3,4.9 C120,4.6 119.5,4.5 119,4.5 C118.5,4.5 118.1,4.6 117.8,4.8 C117.5,5 117.4,5.3 117.4,5.7 C117.4,6 117.5,6.3 117.8,6.5 C118.1,6.7 118.6,6.8 119.3,7 C120,7.2 120.6,7.4 121.1,7.6 C121.5,7.8 121.9,8.1 122.1,8.4 C122.3,8.7 122.4,9.1 122.4,9.6 C122.4,10.4 122.1,11 121.5,11.4 C120.9,11.9 120.1,12.1 119.1,12.1 C118.4,12.1 117.8,12 117.3,11.7 C116.8,11.5 116.4,11.1 116.1,10.7 C115.8,10.3 115.7,9.8 115.7,9.3 L117.1,9.3 C117.1,9.8 117.3,10.2 117.7,10.5 C118.1,10.8 118.5,10.9 119.1,10.9 C119.6,10.9 120.1,10.8 120.4,10.6 C120.8,10.4 120.9,10.1 120.9,9.8 Z" id="Shape"></path>
                    <path d="M124.3,1.3 C124.3,1.1 124.4,0.9 124.5,0.7 C124.6,0.5 124.9,0.5 125.1,0.5 C125.3,0.5 125.6,0.6 125.7,0.7 C125.8,0.9 125.9,1.1 125.9,1.3 C125.9,1.5 125.8,1.7 125.7,1.9 C125.6,2.1 125.3,2.1 125.1,2.1 C124.9,2.1 124.6,2 124.5,1.9 C124.3,1.7 124.3,1.5 124.3,1.3 Z M125.8,12 L124.4,12 L124.4,3.5 L125.8,3.5 L125.8,12 Z" id="Shape"></path>
                    <path d="M130.1,1.5 L130.1,3.5 L131.7,3.5 L131.7,4.6 L130.1,4.6 L130.1,9.8 C130.1,10.1 130.2,10.4 130.3,10.6 C130.4,10.8 130.7,10.9 131,10.9 C131.2,10.9 131.4,10.9 131.7,10.8 L131.7,12 C131.3,12.1 130.9,12.2 130.6,12.2 C130,12.2 129.5,12 129.1,11.6 C128.7,11.2 128.6,10.7 128.6,9.9 L128.6,4.7 L127.1,4.7 L127.1,3.6 L128.6,3.6 L128.6,1.6 L130.1,1.6 L130.1,1.5 Z" id="Shape"></path>
                    <path d="M142.6,12 C142.5,11.8 142.4,11.5 142.4,11.1 C141.7,11.8 140.9,12.1 140,12.1 C139.2,12.1 138.5,11.9 137.9,11.4 C137.4,10.9 137.1,10.3 137.1,9.6 C137.1,8.7 137.4,8 138.1,7.5 C138.8,7 139.7,6.8 140.9,6.8 L142.3,6.8 L142.3,6.1 C142.3,5.6 142.1,5.2 141.8,4.9 C141.5,4.6 141.1,4.5 140.5,4.5 C140,4.5 139.6,4.6 139.2,4.9 C138.9,5.2 138.7,5.5 138.7,5.8 L137.2,5.8 C137.2,5.4 137.3,5 137.6,4.6 C137.9,4.2 138.3,3.9 138.8,3.7 C139.3,3.5 139.9,3.4 140.5,3.4 C141.5,3.4 142.2,3.6 142.8,4.1 C143.4,4.6 143.6,5.3 143.7,6.1 L143.7,10 C143.7,10.8 143.8,11.4 144,11.9 L144,12 L142.6,12 Z M140.2,10.9 C140.7,10.9 141.1,10.8 141.5,10.5 C141.9,10.2 142.2,10 142.4,9.6 L142.4,7.9 L141.3,7.9 C139.5,7.9 138.6,8.4 138.6,9.5 C138.6,10 138.8,10.3 139.1,10.6 C139.3,10.8 139.7,10.9 140.2,10.9 Z" id="Shape"></path>
                    <path d="M147.4,3.5 L147.4,4.4 C148,3.7 148.9,3.3 149.9,3.3 C151.1,3.3 151.9,3.8 152.3,4.7 C152.6,4.3 152.9,4 153.4,3.7 C153.9,3.5 154.4,3.3 155,3.3 C156.9,3.3 157.8,4.3 157.8,6.2 L157.8,12 L156.4,12 L156.4,6.4 C156.4,5.8 156.3,5.3 156,5 C155.7,4.7 155.3,4.6 154.6,4.6 C154.1,4.6 153.6,4.8 153.3,5.1 C152.9,5.4 152.7,5.9 152.7,6.4 L152.7,12 L151.2,12 L151.2,6.5 C151.2,5.3 150.6,4.7 149.4,4.7 C148.5,4.7 147.8,5.1 147.5,5.9 L147.5,12 L146,12 L146,3.5 L147.4,3.5 Z" id="Shape"></path>
                    <path d="M163.6,12.2 C162.5,12.2 161.5,11.8 160.8,11.1 C160.1,10.4 159.7,9.3 159.7,8.1 L159.7,7.8 C159.7,7 159.9,6.2 160.2,5.6 C160.5,5 161,4.4 161.5,4.1 C162.1,3.7 162.7,3.5 163.4,3.5 C164.5,3.5 165.4,3.9 166,4.6 C166.6,5.3 166.9,6.4 166.9,7.7 L166.9,8.3 L161.2,8.3 C161.2,9.1 161.5,9.8 161.9,10.3 C162.4,10.8 163,11.1 163.7,11.1 C164.2,11.1 164.6,11 165,10.8 C165.4,10.6 165.7,10.3 165.9,10 L166.8,10.7 C166,11.6 165,12.2 163.6,12.2 Z M163.4,4.6 C162.8,4.6 162.3,4.8 161.9,5.2 C161.5,5.6 161.3,6.2 161.2,7 L165.4,7 L165.4,6.9 C165.4,6.2 165.2,5.6 164.8,5.2 C164.5,4.8 164,4.6 163.4,4.6 Z" id="Shape"></path>
                    <path d="M170.5,1.5 L170.5,3.5 L172.1,3.5 L172.1,4.6 L170.5,4.6 L170.5,9.8 C170.5,10.1 170.6,10.4 170.7,10.6 C170.8,10.8 171.1,10.9 171.4,10.9 C171.6,10.9 171.8,10.9 172.1,10.8 L172.1,12 C171.7,12.1 171.3,12.2 171,12.2 C170.4,12.2 169.9,12 169.5,11.6 C169.1,11.2 169,10.7 169,9.9 L169,4.7 L167.5,4.7 L167.5,3.6 L169,3.6 L169,1.6 L170.5,1.6 L170.5,1.5 Z" id="Shape"></path>
                </g>
                <g id="Group" transform="translate(55.000000, 57.000000)" fill-rule="nonzero" fill="#0A7C83">
                    <polygon id="Shape" points="2.3 0.6 6 9.9 9.7 0.6 11.6 0.6 11.6 12 10.1 12 10.1 7.6 10.2 2.8 6.5 12 5.4 12 1.7 2.8 1.8 7.6 1.8 12 0.3 12 0.3 0.6"></polygon>
                    <path d="M16.8,9.9 L18.8,3.6 L20.3,3.6 L16.9,13.4 C16.4,14.8 15.5,15.5 14.4,15.5 L14.1,15.5 L13.6,15.4 L13.6,14.2 L14,14.2 C14.5,14.2 14.9,14.1 15.1,13.9 C15.3,13.7 15.6,13.3 15.8,12.8 L16.1,11.9 L13.1,3.5 L14.7,3.5 L16.8,9.9 Z" id="Shape"></path>
                    <path d="M34.2,8.4 C34.1,9.6 33.6,10.5 32.9,11.2 C32.2,11.9 31.2,12.2 29.9,12.2 C28.6,12.2 27.5,11.7 26.7,10.8 C25.9,9.8 25.5,8.5 25.5,6.9 L25.5,5.8 C25.5,4.7 25.7,3.8 26.1,3 C26.5,2.2 27,1.6 27.7,1.2 C28.4,0.8 29.2,0.6 30.1,0.6 C31.3,0.6 32.3,0.9 33,1.6 C33.7,2.3 34.2,3.2 34.3,4.4 L32.8,4.4 C32.7,3.5 32.4,2.8 32,2.4 C31.6,2 31,1.8 30.2,1.8 C29.2,1.8 28.5,2.2 27.9,2.9 C27.4,3.6 27.1,4.6 27.1,5.9 L27.1,7 C27.1,8.2 27.4,9.2 27.9,9.9 C28.4,10.6 29.1,11 30.1,11 C30.9,11 31.6,10.8 32,10.4 C32.4,10 32.7,9.4 32.9,8.4 L34.2,8.4 Z" id="Shape"></path>
                    <polygon id="Shape" points="37.6 12 36.2 12 36.2 0 37.6 0"></polygon>
                    <path d="M39.5,7.7 C39.5,6.9 39.7,6.1 40,5.5 C40.3,4.8 40.8,4.3 41.4,4 C42,3.6 42.6,3.5 43.4,3.5 C44.6,3.5 45.5,3.9 46.2,4.7 C46.9,5.5 47.3,6.6 47.3,7.9 L47.3,8 C47.3,8.8 47.1,9.6 46.8,10.2 C46.5,10.9 46,11.4 45.4,11.7 C44.8,12 44.1,12.2 43.4,12.2 C42.3,12.2 41.3,11.8 40.6,11 C39.9,10.2 39.5,9.1 39.5,7.8 L39.5,7.7 Z M41,7.9 C41,8.8 41.2,9.6 41.7,10.2 C42.1,10.8 42.7,11.1 43.4,11.1 C44.1,11.1 44.7,10.8 45.2,10.2 C45.6,9.6 45.8,8.8 45.8,7.8 C45.8,6.9 45.6,6.1 45.1,5.5 C44.7,4.9 44.1,4.6 43.3,4.6 C42.6,4.6 42,4.9 41.6,5.5 C41.2,6.1 41,6.8 41,7.9 Z" id="Shape"></path>
                    <path d="M54.2,11.2 C53.6,11.9 52.8,12.2 51.7,12.2 C50.8,12.2 50.1,11.9 49.6,11.4 C49.1,10.9 48.9,10.1 48.9,9.1 L48.9,3.6 L50.3,3.6 L50.3,9 C50.3,10.3 50.8,10.9 51.9,10.9 C53,10.9 53.7,10.5 54.1,9.7 L54.1,3.6 L55.5,3.6 L55.5,12 L54.1,12 L54.2,11.2 Z" id="Shape"></path>
                    <path d="M57.5,7.7 C57.5,6.4 57.8,5.4 58.4,4.6 C59,3.8 59.8,3.4 60.8,3.4 C61.8,3.4 62.6,3.7 63.2,4.4 L63.2,0 L64.6,0 L64.6,12 L63.3,12 L63.2,11.1 C62.6,11.8 61.8,12.2 60.8,12.2 C59.8,12.2 59,11.8 58.4,11 C57.8,10.2 57.5,9.2 57.5,7.9 L57.5,7.7 L57.5,7.7 Z M58.9,7.9 C58.9,8.9 59.1,9.6 59.5,10.1 C59.9,10.6 60.4,10.9 61.1,10.9 C62,10.9 62.7,10.5 63.1,9.7 L63.1,5.8 C62.7,5 62,4.6 61.1,4.6 C60.4,4.6 59.8,4.9 59.4,5.4 C59.1,6 58.9,6.8 58.9,7.9 Z" id="Shape"></path>
                    <path d="M74.4,6.9 C73.1,6.5 72.2,6.1 71.6,5.5 C71,4.9 70.7,4.3 70.7,3.5 C70.7,2.6 71.1,1.9 71.8,1.3 C72.5,0.7 73.4,0.4 74.6,0.4 C75.4,0.4 76.1,0.6 76.7,0.9 C77.3,1.2 77.8,1.6 78.1,2.1 C78.4,2.6 78.6,3.2 78.6,3.8 L77.1,3.8 C77.1,3.1 76.9,2.6 76.4,2.2 C75.9,1.8 75.3,1.6 74.5,1.6 C73.8,1.6 73.2,1.8 72.8,2.1 C72.4,2.4 72.2,2.9 72.2,3.5 C72.2,4 72.4,4.4 72.8,4.7 C73.2,5 73.9,5.3 74.8,5.6 C75.7,5.9 76.5,6.2 77,6.5 C77.5,6.8 77.9,7.2 78.2,7.6 C78.5,8 78.6,8.5 78.6,9.1 C78.6,10 78.2,10.8 77.5,11.3 C76.8,11.8 75.8,12.1 74.6,12.1 C73.8,12.1 73.1,12 72.4,11.7 C71.7,11.4 71.2,11 70.8,10.5 C70.4,10 70.2,9.4 70.2,8.7 L71.7,8.7 C71.7,9.4 72,9.9 72.5,10.3 C73,10.7 73.7,10.9 74.5,10.9 C75.3,10.9 75.9,10.7 76.3,10.4 C76.7,10.1 76.9,9.6 76.9,9.1 C76.9,8.6 76.7,8.1 76.3,7.8 C75.9,7.5 75.4,7.2 74.4,6.9 Z" id="Shape"></path>
                    <path d="M83.8,12.2 C82.7,12.2 81.7,11.8 81,11.1 C80.3,10.4 79.9,9.3 79.9,8.1 L79.9,7.8 C79.9,7 80.1,6.2 80.4,5.6 C80.7,5 81.2,4.4 81.7,4.1 C82.3,3.7 82.9,3.5 83.6,3.5 C84.7,3.5 85.6,3.9 86.2,4.6 C86.8,5.3 87.1,6.4 87.1,7.7 L87.1,8.3 L81.4,8.3 C81.4,9.1 81.7,9.8 82.1,10.3 C82.6,10.8 83.2,11.1 83.9,11.1 C84.4,11.1 84.8,11 85.2,10.8 C85.6,10.6 85.9,10.3 86.1,10 L87,10.7 C86.3,11.6 85.2,12.2 83.8,12.2 Z M83.6,4.6 C83,4.6 82.5,4.8 82.1,5.2 C81.7,5.6 81.5,6.2 81.4,7 L85.6,7 L85.6,6.9 C85.6,6.2 85.4,5.6 85,5.2 C84.7,4.8 84.2,4.6 83.6,4.6 Z" id="Shape"></path>
                </g>
                <g id="Group" transform="translate(143.000000, 60.000000)" fill-rule="nonzero" fill="#0A7C83">
                    <path d="M4.9,1.8 C4.7,1.8 4.4,1.7 4.2,1.7 C3.3,1.7 2.6,2.1 2.3,2.9 L2.3,8.9 L0.9,8.9 L0.9,0.4 L2.3,0.4 L2.3,1.4 C2.8,0.6 3.4,0.3 4.3,0.3 C4.6,0.3 4.8,0.3 4.9,0.4 L4.9,1.8 Z" id="Shape"></path>
                </g>
                <g id="Group" transform="translate(148.000000, 60.000000)" fill-rule="nonzero" fill="#0A7C83">
                    <polygon id="Shape" points="4.3 7 6.4 0.5 7.9 0.5 4.9 9 3.8 9 0.7 0.5 2.2 0.5"></polygon>
                </g>
                <g id="Group" transform="translate(156.000000, 57.000000)" fill-rule="nonzero" fill="#0A7C83">
                    <path d="M4.6,12.2 C3.5,12.2 2.5,11.8 1.8,11.1 C1.1,10.4 0.7,9.3 0.7,8.1 L0.7,7.8 C0.7,7 0.9,6.2 1.2,5.6 C1.5,5 2,4.4 2.5,4.1 C3.1,3.7 3.7,3.5 4.4,3.5 C5.5,3.5 6.4,3.9 7,4.6 C7.6,5.3 7.9,6.4 7.9,7.7 L7.9,8.3 L2.2,8.3 C2.2,9.1 2.5,9.8 2.9,10.3 C3.4,10.8 4,11.1 4.7,11.1 C5.2,11.1 5.6,11 6,10.8 C6.4,10.6 6.7,10.3 6.9,10 L7.8,10.7 C7.1,11.6 6.1,12.2 4.6,12.2 Z M4.5,4.6 C3.9,4.6 3.4,4.8 3,5.2 C2.6,5.6 2.4,6.2 2.3,7 L6.5,7 L6.5,6.9 C6.5,6.2 6.3,5.6 5.9,5.2 C5.5,4.8 5.1,4.6 4.5,4.6 Z" id="Shape"></path>
                    <path d="M13.7,4.8 C13.5,4.8 13.2,4.7 13,4.7 C12.1,4.7 11.4,5.1 11.1,5.9 L11.1,11.9 L9.7,11.9 L9.7,3.4 L11.1,3.4 L11.1,4.4 C11.6,3.6 12.2,3.3 13.1,3.3 C13.4,3.3 13.6,3.3 13.7,3.4 L13.7,4.8 Z" id="Shape"></path>
                    <polygon id="Shape" points="18 7.8 14.2 7.8 14.2 6.6 18 6.6"></polygon>
                    <path d="M26.4,7.1 C26.4,8.8 26.1,10.1 25.5,10.9 C24.9,11.7 24,12.1 22.8,12.1 C21.6,12.1 20.7,11.7 20.1,10.9 C19.5,10.1 19.2,8.9 19.2,7.3 L19.2,5.4 C19.2,3.7 19.5,2.5 20.1,1.7 C20.7,0.9 21.6,0.5 22.8,0.5 C24,0.5 24.9,0.9 25.5,1.7 C26.1,2.5 26.4,3.7 26.4,5.3 L26.4,7.1 Z M25,5.2 C25,4 24.8,3.1 24.5,2.5 C24.2,1.9 23.6,1.7 22.9,1.7 C22.2,1.7 21.6,2 21.3,2.5 C21,3.1 20.8,3.9 20.8,5.1 L20.8,7.4 C20.8,8.6 21,9.5 21.3,10.1 C21.7,10.7 22.2,11 22.9,11 C23.6,11 24.1,10.7 24.5,10.2 C24.8,9.6 25,8.8 25,7.6 L25,5.2 Z" id="Shape"></path>
                    <path d="M33.9,0.6 L33.9,1.8 L33.6,1.8 C32.5,1.8 31.6,2.2 30.9,2.8 C30.2,3.4 29.8,4.4 29.7,5.5 C30.3,4.8 31.1,4.5 32.2,4.5 C33.2,4.5 34,4.8 34.6,5.5 C35.2,6.2 35.5,7.1 35.5,8.2 C35.5,9.4 35.2,10.3 34.5,11 C33.9,11.7 33,12.1 31.9,12.1 C30.8,12.1 29.9,11.7 29.3,10.8 C28.6,10 28.3,8.9 28.3,7.6 L28.3,7 C28.3,4.9 28.7,3.3 29.6,2.2 C30.5,1.1 31.8,0.5 33.6,0.5 L33.9,0.5 L33.9,0.6 Z M32,5.7 C31.5,5.7 31,5.8 30.6,6.1 C30.2,6.4 29.9,6.8 29.7,7.2 L29.7,7.7 C29.7,8.6 29.9,9.4 30.3,10 C30.7,10.6 31.2,10.9 31.9,10.9 C32.6,10.9 33.1,10.7 33.4,10.2 C33.8,9.7 34,9.1 34,8.3 C34,7.5 33.8,6.9 33.4,6.4 C33.2,6 32.7,5.7 32,5.7 Z" id="Shape"></path>
                </g>
                <path d="M0,34 L611.4,34" id="Stroke-15" stroke="#E0E0E0"></path>
                <path d="M611.9,154 L0,154" id="Stroke-8-Copy" stroke="#E0E0E0"></path>
                <g id="Group" transform="translate(287.000000, 117.000000)" fill-rule="nonzero" fill="#616262">
                    <polygon id="Shape" points="1.8 10.3 7.2 10.3 7.2 11.5 0.3 11.5 0.3 0.1 1.8 0.1"></polygon>
                    <path d="M8.3,7.2 C8.3,6.4 8.5,5.6 8.8,5 C9.1,4.3 9.6,3.8 10.2,3.5 C10.8,3.1 11.4,3 12.2,3 C13.4,3 14.3,3.4 15,4.2 C15.7,5 16.1,6.1 16.1,7.4 L16.1,7.5 C16.1,8.3 15.9,9.1 15.6,9.7 C15.3,10.4 14.8,10.9 14.2,11.2 C13.6,11.5 12.9,11.7 12.2,11.7 C11.1,11.7 10.1,11.3 9.4,10.5 C8.7,9.7 8.3,8.6 8.3,7.3 L8.3,7.2 Z M9.8,7.4 C9.8,8.3 10,9.1 10.5,9.7 C10.9,10.3 11.5,10.6 12.2,10.6 C12.9,10.6 13.5,10.3 14,9.7 C14.4,9.1 14.6,8.3 14.6,7.3 C14.6,6.4 14.4,5.6 13.9,5 C13.5,4.4 12.9,4.1 12.1,4.1 C11.4,4.1 10.8,4.4 10.4,5 C10,5.6 9.8,6.3 9.8,7.4 Z" id="Shape"></path>
                </g>
                <g id="Group" transform="translate(304.000000, 119.000000)" fill-rule="nonzero" fill="#616262">
                    <path d="M4.9,2.3 C4.7,2.3 4.4,2.2 4.2,2.2 C3.3,2.2 2.6,2.6 2.3,3.4 L2.3,9.4 L0.9,9.4 L0.9,1 L2.3,1 L2.3,2 C2.8,1.2 3.4,0.9 4.3,0.9 C4.6,0.9 4.8,0.9 4.9,1 L4.9,2.3 L4.9,2.3 Z" id="Shape"></path>
                </g>
                <g id="Group" transform="translate(309.000000, 116.000000)" fill-rule="nonzero" fill="#616262">
                    <path d="M4.6,12.7 C3.5,12.7 2.5,12.3 1.8,11.6 C1.1,10.9 0.7,9.8 0.7,8.6 L0.7,8.3 C0.7,7.5 0.9,6.7 1.2,6.1 C1.5,5.5 2,4.9 2.5,4.6 C3.1,4.2 3.7,4 4.4,4 C5.5,4 6.4,4.4 7,5.1 C7.6,5.8 7.9,6.9 7.9,8.2 L7.9,8.8 L2.2,8.8 C2.2,9.6 2.5,10.3 2.9,10.8 C3.4,11.3 4,11.6 4.7,11.6 C5.2,11.6 5.6,11.5 6,11.3 C6.4,11.1 6.7,10.8 6.9,10.5 L7.8,11.2 C7.1,12.1 6,12.7 4.6,12.7 Z M4.4,5.1 C3.8,5.1 3.3,5.3 2.9,5.7 C2.5,6.1 2.3,6.7 2.2,7.5 L6.4,7.5 L6.4,7.4 C6.4,6.7 6.2,6.1 5.8,5.7 C5.5,5.3 5,5.1 4.4,5.1 Z" id="Shape"></path>
                    <path d="M10.9,4 L10.9,4.9 C11.5,4.2 12.4,3.8 13.4,3.8 C14.6,3.8 15.4,4.3 15.8,5.2 C16.1,4.8 16.4,4.5 16.9,4.2 C17.4,4 17.9,3.8 18.5,3.8 C20.4,3.8 21.3,4.8 21.3,6.7 L21.3,12.4 L20,12.4 L20,6.8 C20,6.2 19.9,5.7 19.6,5.4 C19.3,5.1 18.9,5 18.2,5 C17.7,5 17.2,5.2 16.9,5.5 C16.5,5.8 16.3,6.3 16.3,6.8 L16.3,12.4 L14.8,12.4 L14.8,7 C14.8,5.8 14.2,5.2 13,5.2 C12.1,5.2 11.4,5.6 11.1,6.4 L11.1,12.6 L9.7,12.6 L9.7,4 L10.9,4 Z" id="Shape"></path>
                    <path d="M27.6,1.8 C27.6,1.6 27.7,1.4 27.8,1.2 C27.9,1 28.2,1 28.4,1 C28.6,1 28.9,1.1 29,1.2 C29.1,1.4 29.2,1.6 29.2,1.8 C29.2,2 29.1,2.2 29,2.4 C28.9,2.6 28.6,2.6 28.4,2.6 C28.2,2.6 27.9,2.5 27.8,2.4 C27.6,2.2 27.6,2 27.6,1.8 Z M29.1,12.5 L27.7,12.5 L27.7,4 L29.1,4 L29.1,12.5 Z" id="Shape"></path>
                    <path d="M38.6,8.4 C38.6,9.7 38.3,10.7 37.7,11.5 C37.1,12.3 36.3,12.7 35.3,12.7 C34.3,12.7 33.5,12.4 32.9,11.7 L32.9,15.8 L31.5,15.8 L31.5,4 L32.8,4 L32.9,4.9 C33.5,4.2 34.3,3.8 35.4,3.8 C36.4,3.8 37.2,4.2 37.8,4.9 C38.4,5.7 38.7,6.7 38.7,8.1 L38.7,8.4 L38.6,8.4 Z M37.1,8.2 C37.1,7.2 36.9,6.5 36.5,5.9 C36.1,5.3 35.5,5.1 34.8,5.1 C33.9,5.1 33.3,5.5 32.8,6.3 L32.8,10.3 C33.2,11.1 33.9,11.5 34.8,11.5 C35.5,11.5 36,11.2 36.5,10.7 C36.9,10.1 37.1,9.3 37.1,8.2 Z" id="Shape"></path>
                    <path d="M45.3,10.3 C45.3,9.9 45.2,9.6 44.9,9.4 C44.6,9.2 44.1,9 43.4,8.8 C42.7,8.6 42.1,8.5 41.7,8.2 C41.3,7.9 41,7.7 40.7,7.4 C40.5,7.1 40.4,6.7 40.4,6.3 C40.4,5.6 40.7,5 41.3,4.5 C41.9,4 42.6,3.8 43.5,3.8 C44.5,3.8 45.2,4 45.8,4.5 C46.4,5 46.7,5.6 46.7,6.4 L45.2,6.4 C45.2,6 45,5.7 44.7,5.4 C44.4,5.1 43.9,5 43.4,5 C42.9,5 42.5,5.1 42.2,5.3 C41.9,5.5 41.8,5.8 41.8,6.2 C41.8,6.5 41.9,6.8 42.2,7 C42.5,7.2 43,7.3 43.7,7.5 C44.4,7.7 45,7.9 45.5,8.1 C45.9,8.3 46.3,8.6 46.5,8.9 C46.7,9.2 46.8,9.6 46.8,10.1 C46.8,10.9 46.5,11.5 45.9,11.9 C45.3,12.4 44.5,12.6 43.5,12.6 C42.8,12.6 42.2,12.5 41.7,12.2 C41.2,12 40.8,11.6 40.5,11.2 C40.2,10.8 40.1,10.3 40.1,9.8 L41.5,9.8 C41.5,10.3 41.7,10.7 42.1,11 C42.5,11.3 42.9,11.4 43.5,11.4 C44,11.4 44.5,11.3 44.8,11.1 C45.2,10.9 45.3,10.6 45.3,10.3 Z" id="Shape"></path>
                    <path d="M53.9,11.7 C53.3,12.4 52.5,12.7 51.4,12.7 C50.5,12.7 49.8,12.4 49.3,11.9 C48.8,11.4 48.6,10.6 48.6,9.6 L48.6,4 L50,4 L50,9.5 C50,10.8 50.5,11.4 51.6,11.4 C52.7,11.4 53.4,11 53.8,10.2 L53.8,4 L55.2,4 L55.2,12.5 L53.8,12.5 L53.9,11.7 Z" id="Shape"></path>
                    <path d="M58.9,4 L58.9,4.9 C59.5,4.2 60.4,3.8 61.4,3.8 C62.6,3.8 63.4,4.3 63.8,5.2 C64.1,4.8 64.4,4.5 64.9,4.2 C65.4,4 65.9,3.8 66.5,3.8 C68.4,3.8 69.3,4.8 69.3,6.7 L69.3,12.4 L67.9,12.4 L67.9,6.8 C67.9,6.2 67.8,5.7 67.5,5.4 C67.2,5.1 66.8,5 66.1,5 C65.6,5 65.1,5.2 64.8,5.5 C64.4,5.8 64.2,6.3 64.2,6.8 L64.2,12.4 L62.7,12.4 L62.7,7 C62.7,5.8 62.1,5.2 60.9,5.2 C60,5.2 59.3,5.6 59,6.4 L59,12.6 L57.6,12.6 L57.6,4 L58.9,4 Z" id="Shape"></path>
                    <path d="M75.1,8.2 C75.1,6.9 75.4,5.9 76,5.1 C76.6,4.3 77.4,3.9 78.4,3.9 C79.4,3.9 80.2,4.2 80.8,4.9 L80.8,0.5 L82.2,0.5 L82.2,12.5 L80.9,12.5 L80.8,11.6 C80.2,12.3 79.4,12.7 78.4,12.7 C77.4,12.7 76.6,12.3 76,11.5 C75.4,10.7 75.1,9.7 75.1,8.4 L75.1,8.2 L75.1,8.2 Z M76.6,8.4 C76.6,9.4 76.8,10.1 77.2,10.6 C77.6,11.1 78.1,11.4 78.8,11.4 C79.7,11.4 80.4,11 80.8,10.2 L80.8,6.3 C80.4,5.5 79.7,5.1 78.8,5.1 C78.1,5.1 77.5,5.4 77.1,5.9 C76.8,6.5 76.6,7.3 76.6,8.4 Z" id="Shape"></path>
                    <path d="M84.1,8.2 C84.1,7.4 84.3,6.6 84.6,6 C84.9,5.3 85.4,4.8 86,4.5 C86.6,4.1 87.2,4 88,4 C89.2,4 90.1,4.4 90.8,5.2 C91.5,6 91.9,7.1 91.9,8.4 L91.9,8.5 C91.9,9.3 91.7,10.1 91.4,10.7 C91.1,11.4 90.6,11.9 90,12.2 C89.4,12.5 88.7,12.7 88,12.7 C86.9,12.7 85.9,12.3 85.2,11.5 C84.5,10.7 84.1,9.6 84.1,8.3 L84.1,8.2 Z M85.6,8.4 C85.6,9.3 85.8,10.1 86.3,10.7 C86.7,11.3 87.3,11.6 88,11.6 C88.7,11.6 89.3,11.3 89.8,10.7 C90.2,10.1 90.4,9.3 90.4,8.3 C90.4,7.4 90.2,6.6 89.7,6 C89.3,5.4 88.7,5.1 87.9,5.1 C87.2,5.1 86.6,5.4 86.2,6 C85.8,6.6 85.6,7.3 85.6,8.4 Z" id="Shape"></path>
                    <polygon id="Shape" points="95.2 12.5 93.8 12.5 93.8 0.5 95.2 0.5"></polygon>
                    <path d="M97.1,8.2 C97.1,7.4 97.3,6.6 97.6,6 C97.9,5.3 98.4,4.8 99,4.5 C99.6,4.1 100.2,4 101,4 C102.2,4 103.1,4.4 103.8,5.2 C104.5,6 104.9,7.1 104.9,8.4 L104.9,8.5 C104.9,9.3 104.7,10.1 104.4,10.7 C104.1,11.4 103.6,11.9 103,12.2 C102.4,12.5 101.7,12.7 101,12.7 C99.9,12.7 98.9,12.3 98.2,11.5 C97.5,10.7 97.1,9.6 97.1,8.3 L97.1,8.2 Z M98.6,8.4 C98.6,9.3 98.8,10.1 99.3,10.7 C99.7,11.3 100.3,11.6 101,11.6 C101.7,11.6 102.3,11.3 102.8,10.7 C103.2,10.1 103.4,9.3 103.4,8.3 C103.4,7.4 103.2,6.6 102.7,6 C102.3,5.4 101.7,5.1 100.9,5.1 C100.2,5.1 99.6,5.4 99.2,6 C98.8,6.6 98.6,7.3 98.6,8.4 Z" id="Shape"></path>
                    <path d="M110.7,5.3 C110.5,5.3 110.2,5.2 110,5.2 C109.1,5.2 108.4,5.6 108.1,6.4 L108.1,12.4 L106.7,12.4 L106.7,4 L108.1,4 L108.1,5 C108.6,4.2 109.2,3.9 110.1,3.9 C110.4,3.9 110.6,3.9 110.7,4 L110.7,5.3 L110.7,5.3 Z" id="Shape"></path>
                    <path d="M120.9,10.3 C120.9,9.9 120.8,9.6 120.5,9.4 C120.2,9.2 119.7,9 119,8.8 C118.3,8.6 117.7,8.5 117.3,8.2 C116.9,7.9 116.6,7.7 116.3,7.4 C116.1,7.1 116,6.7 116,6.3 C116,5.6 116.3,5 116.9,4.5 C117.5,4 118.2,3.8 119.1,3.8 C120.1,3.8 120.8,4 121.4,4.5 C122,5 122.3,5.6 122.3,6.4 L120.8,6.4 C120.8,6 120.6,5.7 120.3,5.4 C120,5.1 119.5,5 119,5 C118.5,5 118.1,5.1 117.8,5.3 C117.5,5.5 117.4,5.8 117.4,6.2 C117.4,6.5 117.5,6.8 117.8,7 C118.1,7.2 118.6,7.3 119.3,7.5 C120,7.7 120.6,7.9 121.1,8.1 C121.5,8.3 121.9,8.6 122.1,8.9 C122.3,9.2 122.4,9.6 122.4,10.1 C122.4,10.9 122.1,11.5 121.5,11.9 C120.9,12.4 120.1,12.6 119.1,12.6 C118.4,12.6 117.8,12.5 117.3,12.2 C116.8,12 116.4,11.6 116.1,11.2 C115.8,10.8 115.7,10.3 115.7,9.8 L117.1,9.8 C117.1,10.3 117.3,10.7 117.7,11 C118.1,11.3 118.5,11.4 119.1,11.4 C119.6,11.4 120.1,11.3 120.4,11.1 C120.8,10.9 120.9,10.6 120.9,10.3 Z" id="Shape"></path>
                    <path d="M124.3,1.8 C124.3,1.6 124.4,1.4 124.5,1.2 C124.6,1 124.9,1 125.1,1 C125.3,1 125.6,1.1 125.7,1.2 C125.8,1.4 125.9,1.6 125.9,1.8 C125.9,2 125.8,2.2 125.7,2.4 C125.6,2.6 125.3,2.6 125.1,2.6 C124.9,2.6 124.6,2.5 124.5,2.4 C124.3,2.2 124.3,2 124.3,1.8 Z M125.8,12.5 L124.4,12.5 L124.4,4 L125.8,4 L125.8,12.5 Z" id="Shape"></path>
                    <path d="M130.1,2 L130.1,4 L131.7,4 L131.7,5.1 L130.1,5.1 L130.1,10.3 C130.1,10.6 130.2,10.9 130.3,11.1 C130.4,11.3 130.7,11.4 131,11.4 C131.2,11.4 131.4,11.4 131.7,11.3 L131.7,12.5 C131.3,12.6 130.9,12.7 130.6,12.7 C130,12.7 129.5,12.5 129.1,12.1 C128.7,11.7 128.6,11.2 128.6,10.4 L128.6,5.2 L127.1,5.2 L127.1,4 L128.6,4 L128.6,2 L130.1,2 Z" id="Shape"></path>
                    <path d="M142.6,12.5 C142.5,12.3 142.4,12 142.4,11.6 C141.7,12.3 140.9,12.6 140,12.6 C139.2,12.6 138.5,12.4 137.9,11.9 C137.4,11.4 137.1,10.8 137.1,10.1 C137.1,9.2 137.4,8.5 138.1,8 C138.8,7.5 139.7,7.3 140.9,7.3 L142.3,7.3 L142.3,6.6 C142.3,6.1 142.1,5.7 141.8,5.4 C141.5,5.1 141.1,5 140.5,5 C140,5 139.6,5.1 139.2,5.4 C138.9,5.7 138.7,6 138.7,6.3 L137.2,6.3 C137.2,5.9 137.3,5.5 137.6,5.1 C137.9,4.7 138.3,4.4 138.8,4.2 C139.3,4 139.9,3.9 140.5,3.9 C141.5,3.9 142.2,4.1 142.8,4.6 C143.4,5.1 143.6,5.8 143.7,6.6 L143.7,10.5 C143.7,11.3 143.8,11.9 144,12.4 L144,12.5 L142.6,12.5 Z M140.2,11.4 C140.7,11.4 141.1,11.3 141.5,11 C141.9,10.7 142.2,10.5 142.4,10.1 L142.4,8.4 L141.3,8.4 C139.5,8.4 138.6,8.9 138.6,10 C138.6,10.5 138.8,10.8 139.1,11.1 C139.3,11.3 139.7,11.4 140.2,11.4 Z" id="Shape"></path>
                    <path d="M147.4,4 L147.4,4.9 C148,4.2 148.9,3.8 149.9,3.8 C151.1,3.8 151.9,4.3 152.3,5.2 C152.6,4.8 152.9,4.5 153.4,4.2 C153.9,4 154.4,3.8 155,3.8 C156.9,3.8 157.8,4.8 157.8,6.7 L157.8,12.4 L156.4,12.4 L156.4,6.8 C156.4,6.2 156.3,5.7 156,5.4 C155.7,5.1 155.3,5 154.6,5 C154.1,5 153.6,5.2 153.3,5.5 C152.9,5.8 152.7,6.3 152.7,6.8 L152.7,12.4 L151.2,12.4 L151.2,7 C151.2,5.8 150.6,5.2 149.4,5.2 C148.5,5.2 147.8,5.6 147.5,6.4 L147.5,12.6 L146,12.6 L146,4 L147.4,4 Z" id="Shape"></path>
                    <path d="M163.6,12.7 C162.5,12.7 161.5,12.3 160.8,11.6 C160.1,10.9 159.7,9.8 159.7,8.6 L159.7,8.3 C159.7,7.5 159.9,6.7 160.2,6.1 C160.5,5.5 161,4.9 161.5,4.6 C162.1,4.2 162.7,4 163.4,4 C164.5,4 165.4,4.4 166,5.1 C166.6,5.8 166.9,6.9 166.9,8.2 L166.9,8.8 L161.2,8.8 C161.2,9.6 161.5,10.3 161.9,10.8 C162.4,11.3 163,11.6 163.7,11.6 C164.2,11.6 164.6,11.5 165,11.3 C165.4,11.1 165.7,10.8 165.9,10.5 L166.8,11.2 C166,12.1 165,12.7 163.6,12.7 Z M163.4,5.1 C162.8,5.1 162.3,5.3 161.9,5.7 C161.5,6.1 161.3,6.7 161.2,7.5 L165.4,7.5 L165.4,7.4 C165.4,6.7 165.2,6.1 164.8,5.7 C164.5,5.3 164,5.1 163.4,5.1 Z" id="Shape"></path>
                    <path d="M170.5,2 L170.5,4 L172.1,4 L172.1,5.1 L170.5,5.1 L170.5,10.3 C170.5,10.6 170.6,10.9 170.7,11.1 C170.8,11.3 171.1,11.4 171.4,11.4 C171.6,11.4 171.8,11.4 172.1,11.3 L172.1,12.5 C171.7,12.6 171.3,12.7 171,12.7 C170.4,12.7 169.9,12.5 169.5,12.1 C169.1,11.7 169,11.2 169,10.4 L169,5.2 L167.5,5.2 L167.5,4 L169,4 L169,2 L170.5,2 Z" id="Shape"></path>
                </g>
                <g id="Group" transform="translate(55.000000, 117.000000)" fill-rule="nonzero" fill="#0A7C83">
                    <polygon id="Shape" points="2.3 1.1 6 10.4 9.7 1.1 11.6 1.1 11.6 12.5 10.1 12.5 10.1 8.1 10.2 3.3 6.5 12.5 5.4 12.5 1.7 3.3 1.8 8.1 1.8 12.5 0.3 12.5 0.3 1.1"></polygon>
                    <path d="M16.8,10.4 L18.8,4.1 L20.3,4.1 L16.9,13.9 C16.4,15.3 15.5,16 14.4,16 L14.1,16 L13.6,15.9 L13.6,14.7 L14,14.7 C14.5,14.7 14.9,14.6 15.1,14.4 C15.3,14.2 15.6,13.8 15.8,13.3 L16.1,12.4 L13.1,4 L14.7,4 L16.8,10.4 Z" id="Shape"></path>
                    <path d="M34.2,8.9 C34.1,10.1 33.6,11 32.9,11.7 C32.2,12.4 31.2,12.7 29.9,12.7 C28.6,12.7 27.5,12.2 26.7,11.3 C25.9,10.3 25.5,9 25.5,7.4 L25.5,6.3 C25.5,5.2 25.7,4.3 26.1,3.5 C26.5,2.7 27,2.1 27.7,1.7 C28.4,1.3 29.2,1.1 30.1,1.1 C31.3,1.1 32.3,1.4 33,2.1 C33.7,2.8 34.2,3.7 34.3,4.9 L32.8,4.9 C32.7,4 32.4,3.3 32,2.9 C31.6,2.5 31,2.3 30.2,2.3 C29.2,2.3 28.5,2.7 27.9,3.4 C27.4,4.1 27.1,5.1 27.1,6.4 L27.1,7.5 C27.1,8.7 27.4,9.7 27.9,10.4 C28.4,11.1 29.1,11.5 30.1,11.5 C30.9,11.5 31.6,11.3 32,10.9 C32.4,10.5 32.7,9.9 32.9,8.9 L34.2,8.9 L34.2,8.9 Z" id="Shape"></path>
                    <polygon id="Shape" points="37.6 12.5 36.2 12.5 36.2 0.5 37.6 0.5"></polygon>
                    <path d="M39.5,8.2 C39.5,7.4 39.7,6.6 40,6 C40.3,5.3 40.8,4.8 41.4,4.5 C42,4.1 42.6,4 43.4,4 C44.6,4 45.5,4.4 46.2,5.2 C46.9,6 47.3,7.1 47.3,8.4 L47.3,8.5 C47.3,9.3 47.1,10.1 46.8,10.7 C46.5,11.4 46,11.9 45.4,12.2 C44.8,12.5 44.1,12.7 43.4,12.7 C42.3,12.7 41.3,12.3 40.6,11.5 C39.9,10.7 39.5,9.6 39.5,8.3 L39.5,8.2 Z M41,8.4 C41,9.3 41.2,10.1 41.7,10.7 C42.1,11.3 42.7,11.6 43.4,11.6 C44.1,11.6 44.7,11.3 45.2,10.7 C45.6,10.1 45.8,9.3 45.8,8.3 C45.8,7.4 45.6,6.6 45.1,6 C44.7,5.4 44.1,5.1 43.3,5.1 C42.6,5.1 42,5.4 41.6,6 C41.2,6.6 41,7.3 41,8.4 Z" id="Shape"></path>
                    <path d="M54.2,11.7 C53.6,12.4 52.8,12.7 51.7,12.7 C50.8,12.7 50.1,12.4 49.6,11.9 C49.1,11.4 48.9,10.6 48.9,9.6 L48.9,4 L50.3,4 L50.3,9.5 C50.3,10.8 50.8,11.4 51.9,11.4 C53,11.4 53.7,11 54.1,10.2 L54.1,4 L55.5,4 L55.5,12.5 L54.1,12.5 L54.2,11.7 Z" id="Shape"></path>
                    <path d="M57.5,8.2 C57.5,6.9 57.8,5.9 58.4,5.1 C59,4.3 59.8,3.9 60.8,3.9 C61.8,3.9 62.6,4.2 63.2,4.9 L63.2,0.5 L64.6,0.5 L64.6,12.5 L63.3,12.5 L63.2,11.6 C62.6,12.3 61.8,12.7 60.8,12.7 C59.8,12.7 59,12.3 58.4,11.5 C57.8,10.7 57.5,9.7 57.5,8.4 L57.5,8.2 L57.5,8.2 Z M58.9,8.4 C58.9,9.4 59.1,10.1 59.5,10.6 C59.9,11.1 60.4,11.4 61.1,11.4 C62,11.4 62.7,11 63.1,10.2 L63.1,6.3 C62.7,5.5 62,5.1 61.1,5.1 C60.4,5.1 59.8,5.4 59.4,5.9 C59.1,6.5 58.9,7.3 58.9,8.4 Z" id="Shape"></path>
                    <path d="M74.4,7.4 C73.1,7 72.2,6.6 71.6,6 C71,5.4 70.7,4.8 70.7,4 C70.7,3.1 71.1,2.4 71.8,1.8 C72.5,1.2 73.4,0.9 74.6,0.9 C75.4,0.9 76.1,1.1 76.7,1.4 C77.3,1.7 77.8,2.1 78.1,2.6 C78.4,3.1 78.6,3.7 78.6,4.3 L77.1,4.3 C77.1,3.6 76.9,3.1 76.4,2.7 C75.9,2.3 75.3,2.1 74.5,2.1 C73.8,2.1 73.2,2.3 72.8,2.6 C72.4,2.9 72.2,3.4 72.2,4 C72.2,4.5 72.4,4.9 72.8,5.2 C73.2,5.5 73.9,5.8 74.8,6.1 C75.7,6.4 76.5,6.7 77,7 C77.5,7.3 77.9,7.7 78.2,8.1 C78.5,8.5 78.6,9 78.6,9.6 C78.6,10.5 78.2,11.3 77.5,11.8 C76.8,12.3 75.8,12.6 74.6,12.6 C73.8,12.6 73.1,12.5 72.4,12.2 C71.7,11.9 71.2,11.5 70.8,11 C70.4,10.5 70.2,9.9 70.2,9.2 L71.7,9.2 C71.7,9.9 72,10.4 72.5,10.8 C73,11.2 73.7,11.4 74.5,11.4 C75.3,11.4 75.9,11.2 76.3,10.9 C76.7,10.6 76.9,10.1 76.9,9.6 C76.9,9.1 76.7,8.6 76.3,8.3 C75.9,8 75.4,7.7 74.4,7.4 Z" id="Shape"></path>
                    <path d="M83.8,12.7 C82.7,12.7 81.7,12.3 81,11.6 C80.3,10.9 79.9,9.8 79.9,8.6 L79.9,8.3 C79.9,7.5 80.1,6.7 80.4,6.1 C80.7,5.5 81.2,4.9 81.7,4.6 C82.3,4.2 82.9,4 83.6,4 C84.7,4 85.6,4.4 86.2,5.1 C86.8,5.8 87.1,6.9 87.1,8.2 L87.1,8.8 L81.4,8.8 C81.4,9.6 81.7,10.3 82.1,10.8 C82.6,11.3 83.2,11.6 83.9,11.6 C84.4,11.6 84.8,11.5 85.2,11.3 C85.6,11.1 85.9,10.8 86.1,10.5 L87,11.2 C86.3,12.1 85.2,12.7 83.8,12.7 Z M83.6,5.1 C83,5.1 82.5,5.3 82.1,5.7 C81.7,6.1 81.5,6.7 81.4,7.5 L85.6,7.5 L85.6,7.4 C85.6,6.7 85.4,6.1 85,5.7 C84.7,5.3 84.2,5.1 83.6,5.1 Z" id="Shape"></path>
                </g>
                <g id="Group" transform="translate(143.000000, 120.000000)" fill-rule="nonzero" fill="#0A7C83">
                    <path d="M4.9,2.3 C4.7,2.3 4.4,2.2 4.2,2.2 C3.3,2.2 2.6,2.6 2.3,3.4 L2.3,9.4 L0.9,9.4 L0.9,1 L2.3,1 L2.3,2 C2.8,1.2 3.4,0.9 4.3,0.9 C4.6,0.9 4.8,0.9 4.9,1 L4.9,2.3 Z" id="Shape"></path>
                </g>
                <g id="Group" transform="translate(148.000000, 121.000000)" fill-rule="nonzero" fill="#0A7C83">
                    <polygon id="Shape" points="4.3 6.5 6.4 0 7.9 0 4.9 8.5 3.8 8.5 0.7 0 2.2 0"></polygon>
                </g>
                <g id="Group" transform="translate(156.000000, 118.000000)" fill-rule="nonzero" fill="#0A7C83">
                    <path d="M4.6,11.7 C3.5,11.7 2.5,11.3 1.8,10.6 C1.1,9.9 0.7,8.8 0.7,7.6 L0.7,7.3 C0.7,6.5 0.9,5.7 1.2,5.1 C1.5,4.5 2,3.9 2.5,3.6 C3.1,3.2 3.7,3 4.4,3 C5.5,3 6.4,3.4 7,4.1 C7.6,4.8 7.9,5.9 7.9,7.2 L7.9,7.8 L2.2,7.8 C2.2,8.6 2.5,9.3 2.9,9.8 C3.4,10.3 4,10.6 4.7,10.6 C5.2,10.6 5.6,10.5 6,10.3 C6.4,10.1 6.7,9.8 6.9,9.5 L7.8,10.2 C7.1,11.1 6.1,11.7 4.6,11.7 Z M4.5,4.1 C3.9,4.1 3.4,4.3 3,4.7 C2.6,5.1 2.4,5.7 2.3,6.5 L6.5,6.5 L6.5,6.4 C6.5,5.7 6.3,5.1 5.9,4.7 C5.5,4.3 5.1,4.1 4.5,4.1 Z" id="Shape"></path>
                    <path d="M13.7,4.3 C13.5,4.3 13.2,4.2 13,4.2 C12.1,4.2 11.4,4.6 11.1,5.4 L11.1,11.4 L9.7,11.4 L9.7,3 L11.1,3 L11.1,4 C11.6,3.2 12.2,2.9 13.1,2.9 C13.4,2.9 13.6,2.9 13.7,3 L13.7,4.3 Z" id="Shape"></path>
                    <polygon id="Shape" points="18 7.3 14.2 7.3 14.2 6.1 18 6.1"></polygon>
                    <path d="M26.4,6.6 C26.4,8.3 26.1,9.6 25.5,10.4 C24.9,11.2 24,11.6 22.8,11.6 C21.6,11.6 20.7,11.2 20.1,10.4 C19.5,9.6 19.2,8.4 19.2,6.8 L19.2,4.9 C19.2,3.2 19.5,2 20.1,1.2 C20.7,0.4 21.6,0 22.8,0 C24,0 24.9,0.4 25.5,1.2 C26.1,2 26.4,3.2 26.4,4.8 L26.4,6.6 Z M25,4.7 C25,3.5 24.8,2.6 24.5,2 C24.2,1.4 23.6,1.2 22.9,1.2 C22.2,1.2 21.6,1.5 21.3,2 C21,2.6 20.8,3.4 20.8,4.6 L20.8,6.9 C20.8,8.1 21,9 21.3,9.6 C21.7,10.2 22.2,10.5 22.9,10.5 C23.6,10.5 24.1,10.2 24.5,9.7 C24.8,9.1 25,8.3 25,7.1 L25,4.7 Z" id="Shape"></path>
                    <path d="M33.9,0.1 L33.9,1.3 L33.6,1.3 C32.5,1.3 31.6,1.7 30.9,2.3 C30.2,2.9 29.8,3.9 29.7,5 C30.3,4.3 31.1,4 32.2,4 C33.2,4 34,4.3 34.6,5 C35.2,5.7 35.5,6.6 35.5,7.7 C35.5,8.9 35.2,9.8 34.5,10.5 C33.9,11.2 33,11.6 31.9,11.6 C30.8,11.6 29.9,11.2 29.3,10.3 C28.6,9.5 28.3,8.4 28.3,7.1 L28.3,6.5 C28.3,4.4 28.7,2.8 29.6,1.7 C30.5,0.6 31.8,-1.42108547e-14 33.6,-1.42108547e-14 L33.9,-1.42108547e-14 L33.9,0.1 Z M32,5.2 C31.5,5.2 31,5.3 30.6,5.6 C30.2,5.9 29.9,6.3 29.7,6.7 L29.7,7.2 C29.7,8.1 29.9,8.9 30.3,9.5 C30.7,10.1 31.2,10.4 31.9,10.4 C32.6,10.4 33.1,10.2 33.4,9.7 C33.8,9.2 34,8.6 34,7.8 C34,7 33.8,6.4 33.4,5.9 C33.2,5.5 32.7,5.2 32,5.2 Z" id="Shape"></path>
                </g>
                <path d="M611.9,214 L0,214" id="Stroke-8-Copy-2" stroke="#E0E0E0"></path>
                <g id="Group" transform="translate(287.000000, 177.000000)" fill-rule="nonzero" fill="#616262">
                    <polygon id="Shape" points="1.8 10.3 7.2 10.3 7.2 11.5 0.3 11.5 0.3 0.1 1.8 0.1"></polygon>
                    <path d="M8.3,7.2 C8.3,6.4 8.5,5.6 8.8,5 C9.1,4.3 9.6,3.8 10.2,3.5 C10.8,3.1 11.4,3 12.2,3 C13.4,3 14.3,3.4 15,4.2 C15.7,5 16.1,6.1 16.1,7.4 L16.1,7.5 C16.1,8.3 15.9,9.1 15.6,9.7 C15.3,10.4 14.8,10.9 14.2,11.2 C13.6,11.5 12.9,11.7 12.2,11.7 C11.1,11.7 10.1,11.3 9.4,10.5 C8.7,9.7 8.3,8.6 8.3,7.3 L8.3,7.2 Z M9.8,7.4 C9.8,8.3 10,9.1 10.5,9.7 C10.9,10.3 11.5,10.6 12.2,10.6 C12.9,10.6 13.5,10.3 14,9.7 C14.4,9.1 14.6,8.3 14.6,7.3 C14.6,6.4 14.4,5.6 13.9,5 C13.5,4.4 12.9,4.1 12.1,4.1 C11.4,4.1 10.8,4.4 10.4,5 C10,5.6 9.8,6.3 9.8,7.4 Z" id="Shape"></path>
                </g>
                <g id="Group" transform="translate(304.000000, 179.000000)" fill-rule="nonzero" fill="#616262">
                    <path d="M4.9,2.3 C4.7,2.3 4.4,2.2 4.2,2.2 C3.3,2.2 2.6,2.6 2.3,3.4 L2.3,9.4 L0.9,9.4 L0.9,1 L2.3,1 L2.3,2 C2.8,1.2 3.4,0.9 4.3,0.9 C4.6,0.9 4.8,0.9 4.9,1 L4.9,2.3 L4.9,2.3 Z" id="Shape"></path>
                </g>
                <g id="Group" transform="translate(309.000000, 176.000000)" fill-rule="nonzero" fill="#616262">
                    <path d="M4.6,12.7 C3.5,12.7 2.5,12.3 1.8,11.6 C1.1,10.9 0.7,9.8 0.7,8.6 L0.7,8.3 C0.7,7.5 0.9,6.7 1.2,6.1 C1.5,5.5 2,4.9 2.5,4.6 C3.1,4.2 3.7,4 4.4,4 C5.5,4 6.4,4.4 7,5.1 C7.6,5.8 7.9,6.9 7.9,8.2 L7.9,8.8 L2.2,8.8 C2.2,9.6 2.5,10.3 2.9,10.8 C3.4,11.3 4,11.6 4.7,11.6 C5.2,11.6 5.6,11.5 6,11.3 C6.4,11.1 6.7,10.8 6.9,10.5 L7.8,11.2 C7.1,12.1 6,12.7 4.6,12.7 Z M4.4,5.1 C3.8,5.1 3.3,5.3 2.9,5.7 C2.5,6.1 2.3,6.7 2.2,7.5 L6.4,7.5 L6.4,7.4 C6.4,6.7 6.2,6.1 5.8,5.7 C5.5,5.3 5,5.1 4.4,5.1 Z" id="Shape"></path>
                    <path d="M10.9,4 L10.9,4.9 C11.5,4.2 12.4,3.8 13.4,3.8 C14.6,3.8 15.4,4.3 15.8,5.2 C16.1,4.8 16.4,4.5 16.9,4.2 C17.4,4 17.9,3.8 18.5,3.8 C20.4,3.8 21.3,4.8 21.3,6.7 L21.3,12.4 L20,12.4 L20,6.8 C20,6.2 19.9,5.7 19.6,5.4 C19.3,5.1 18.9,5 18.2,5 C17.7,5 17.2,5.2 16.9,5.5 C16.5,5.8 16.3,6.3 16.3,6.8 L16.3,12.4 L14.8,12.4 L14.8,7 C14.8,5.8 14.2,5.2 13,5.2 C12.1,5.2 11.4,5.6 11.1,6.4 L11.1,12.6 L9.7,12.6 L9.7,4 L10.9,4 Z" id="Shape"></path>
                    <path d="M27.6,1.8 C27.6,1.6 27.7,1.4 27.8,1.2 C27.9,1 28.2,1 28.4,1 C28.6,1 28.9,1.1 29,1.2 C29.1,1.4 29.2,1.6 29.2,1.8 C29.2,2 29.1,2.2 29,2.4 C28.9,2.6 28.6,2.6 28.4,2.6 C28.2,2.6 27.9,2.5 27.8,2.4 C27.6,2.2 27.6,2 27.6,1.8 Z M29.1,12.5 L27.7,12.5 L27.7,4 L29.1,4 L29.1,12.5 Z" id="Shape"></path>
                    <path d="M38.6,8.4 C38.6,9.7 38.3,10.7 37.7,11.5 C37.1,12.3 36.3,12.7 35.3,12.7 C34.3,12.7 33.5,12.4 32.9,11.7 L32.9,15.8 L31.5,15.8 L31.5,4 L32.8,4 L32.9,4.9 C33.5,4.2 34.3,3.8 35.4,3.8 C36.4,3.8 37.2,4.2 37.8,4.9 C38.4,5.7 38.7,6.7 38.7,8.1 L38.7,8.4 L38.6,8.4 Z M37.1,8.2 C37.1,7.2 36.9,6.5 36.5,5.9 C36.1,5.3 35.5,5.1 34.8,5.1 C33.9,5.1 33.3,5.5 32.8,6.3 L32.8,10.3 C33.2,11.1 33.9,11.5 34.8,11.5 C35.5,11.5 36,11.2 36.5,10.7 C36.9,10.1 37.1,9.3 37.1,8.2 Z" id="Shape"></path>
                    <path d="M45.3,10.3 C45.3,9.9 45.2,9.6 44.9,9.4 C44.6,9.2 44.1,9 43.4,8.8 C42.7,8.6 42.1,8.5 41.7,8.2 C41.3,7.9 41,7.7 40.7,7.4 C40.5,7.1 40.4,6.7 40.4,6.3 C40.4,5.6 40.7,5 41.3,4.5 C41.9,4 42.6,3.8 43.5,3.8 C44.5,3.8 45.2,4 45.8,4.5 C46.4,5 46.7,5.6 46.7,6.4 L45.2,6.4 C45.2,6 45,5.7 44.7,5.4 C44.4,5.1 43.9,5 43.4,5 C42.9,5 42.5,5.1 42.2,5.3 C41.9,5.5 41.8,5.8 41.8,6.2 C41.8,6.5 41.9,6.8 42.2,7 C42.5,7.2 43,7.3 43.7,7.5 C44.4,7.7 45,7.9 45.5,8.1 C45.9,8.3 46.3,8.6 46.5,8.9 C46.7,9.2 46.8,9.6 46.8,10.1 C46.8,10.9 46.5,11.5 45.9,11.9 C45.3,12.4 44.5,12.6 43.5,12.6 C42.8,12.6 42.2,12.5 41.7,12.2 C41.2,12 40.8,11.6 40.5,11.2 C40.2,10.8 40.1,10.3 40.1,9.8 L41.5,9.8 C41.5,10.3 41.7,10.7 42.1,11 C42.5,11.3 42.9,11.4 43.5,11.4 C44,11.4 44.5,11.3 44.8,11.1 C45.2,10.9 45.3,10.6 45.3,10.3 Z" id="Shape"></path>
                    <path d="M53.9,11.7 C53.3,12.4 52.5,12.7 51.4,12.7 C50.5,12.7 49.8,12.4 49.3,11.9 C48.8,11.4 48.6,10.6 48.6,9.6 L48.6,4 L50,4 L50,9.5 C50,10.8 50.5,11.4 51.6,11.4 C52.7,11.4 53.4,11 53.8,10.2 L53.8,4 L55.2,4 L55.2,12.5 L53.8,12.5 L53.9,11.7 Z" id="Shape"></path>
                    <path d="M58.9,4 L58.9,4.9 C59.5,4.2 60.4,3.8 61.4,3.8 C62.6,3.8 63.4,4.3 63.8,5.2 C64.1,4.8 64.4,4.5 64.9,4.2 C65.4,4 65.9,3.8 66.5,3.8 C68.4,3.8 69.3,4.8 69.3,6.7 L69.3,12.4 L67.9,12.4 L67.9,6.8 C67.9,6.2 67.8,5.7 67.5,5.4 C67.2,5.1 66.8,5 66.1,5 C65.6,5 65.1,5.2 64.8,5.5 C64.4,5.8 64.2,6.3 64.2,6.8 L64.2,12.4 L62.7,12.4 L62.7,7 C62.7,5.8 62.1,5.2 60.9,5.2 C60,5.2 59.3,5.6 59,6.4 L59,12.6 L57.6,12.6 L57.6,4 L58.9,4 Z" id="Shape"></path>
                    <path d="M75.1,8.2 C75.1,6.9 75.4,5.9 76,5.1 C76.6,4.3 77.4,3.9 78.4,3.9 C79.4,3.9 80.2,4.2 80.8,4.9 L80.8,0.5 L82.2,0.5 L82.2,12.5 L80.9,12.5 L80.8,11.6 C80.2,12.3 79.4,12.7 78.4,12.7 C77.4,12.7 76.6,12.3 76,11.5 C75.4,10.7 75.1,9.7 75.1,8.4 L75.1,8.2 L75.1,8.2 Z M76.6,8.4 C76.6,9.4 76.8,10.1 77.2,10.6 C77.6,11.1 78.1,11.4 78.8,11.4 C79.7,11.4 80.4,11 80.8,10.2 L80.8,6.3 C80.4,5.5 79.7,5.1 78.8,5.1 C78.1,5.1 77.5,5.4 77.1,5.9 C76.8,6.5 76.6,7.3 76.6,8.4 Z" id="Shape"></path>
                    <path d="M84.1,8.2 C84.1,7.4 84.3,6.6 84.6,6 C84.9,5.3 85.4,4.8 86,4.5 C86.6,4.1 87.2,4 88,4 C89.2,4 90.1,4.4 90.8,5.2 C91.5,6 91.9,7.1 91.9,8.4 L91.9,8.5 C91.9,9.3 91.7,10.1 91.4,10.7 C91.1,11.4 90.6,11.9 90,12.2 C89.4,12.5 88.7,12.7 88,12.7 C86.9,12.7 85.9,12.3 85.2,11.5 C84.5,10.7 84.1,9.6 84.1,8.3 L84.1,8.2 Z M85.6,8.4 C85.6,9.3 85.8,10.1 86.3,10.7 C86.7,11.3 87.3,11.6 88,11.6 C88.7,11.6 89.3,11.3 89.8,10.7 C90.2,10.1 90.4,9.3 90.4,8.3 C90.4,7.4 90.2,6.6 89.7,6 C89.3,5.4 88.7,5.1 87.9,5.1 C87.2,5.1 86.6,5.4 86.2,6 C85.8,6.6 85.6,7.3 85.6,8.4 Z" id="Shape"></path>
                    <polygon id="Shape" points="95.2 12.5 93.8 12.5 93.8 0.5 95.2 0.5"></polygon>
                    <path d="M97.1,8.2 C97.1,7.4 97.3,6.6 97.6,6 C97.9,5.3 98.4,4.8 99,4.5 C99.6,4.1 100.2,4 101,4 C102.2,4 103.1,4.4 103.8,5.2 C104.5,6 104.9,7.1 104.9,8.4 L104.9,8.5 C104.9,9.3 104.7,10.1 104.4,10.7 C104.1,11.4 103.6,11.9 103,12.2 C102.4,12.5 101.7,12.7 101,12.7 C99.9,12.7 98.9,12.3 98.2,11.5 C97.5,10.7 97.1,9.6 97.1,8.3 L97.1,8.2 Z M98.6,8.4 C98.6,9.3 98.8,10.1 99.3,10.7 C99.7,11.3 100.3,11.6 101,11.6 C101.7,11.6 102.3,11.3 102.8,10.7 C103.2,10.1 103.4,9.3 103.4,8.3 C103.4,7.4 103.2,6.6 102.7,6 C102.3,5.4 101.7,5.1 100.9,5.1 C100.2,5.1 99.6,5.4 99.2,6 C98.8,6.6 98.6,7.3 98.6,8.4 Z" id="Shape"></path>
                    <path d="M110.7,5.3 C110.5,5.3 110.2,5.2 110,5.2 C109.1,5.2 108.4,5.6 108.1,6.4 L108.1,12.4 L106.7,12.4 L106.7,4 L108.1,4 L108.1,5 C108.6,4.2 109.2,3.9 110.1,3.9 C110.4,3.9 110.6,3.9 110.7,4 L110.7,5.3 L110.7,5.3 Z" id="Shape"></path>
                    <path d="M120.9,10.3 C120.9,9.9 120.8,9.6 120.5,9.4 C120.2,9.2 119.7,9 119,8.8 C118.3,8.6 117.7,8.5 117.3,8.2 C116.9,7.9 116.6,7.7 116.3,7.4 C116.1,7.1 116,6.7 116,6.3 C116,5.6 116.3,5 116.9,4.5 C117.5,4 118.2,3.8 119.1,3.8 C120.1,3.8 120.8,4 121.4,4.5 C122,5 122.3,5.6 122.3,6.4 L120.8,6.4 C120.8,6 120.6,5.7 120.3,5.4 C120,5.1 119.5,5 119,5 C118.5,5 118.1,5.1 117.8,5.3 C117.5,5.5 117.4,5.8 117.4,6.2 C117.4,6.5 117.5,6.8 117.8,7 C118.1,7.2 118.6,7.3 119.3,7.5 C120,7.7 120.6,7.9 121.1,8.1 C121.5,8.3 121.9,8.6 122.1,8.9 C122.3,9.2 122.4,9.6 122.4,10.1 C122.4,10.9 122.1,11.5 121.5,11.9 C120.9,12.4 120.1,12.6 119.1,12.6 C118.4,12.6 117.8,12.5 117.3,12.2 C116.8,12 116.4,11.6 116.1,11.2 C115.8,10.8 115.7,10.3 115.7,9.8 L117.1,9.8 C117.1,10.3 117.3,10.7 117.7,11 C118.1,11.3 118.5,11.4 119.1,11.4 C119.6,11.4 120.1,11.3 120.4,11.1 C120.8,10.9 120.9,10.6 120.9,10.3 Z" id="Shape"></path>
                    <path d="M124.3,1.8 C124.3,1.6 124.4,1.4 124.5,1.2 C124.6,1 124.9,1 125.1,1 C125.3,1 125.6,1.1 125.7,1.2 C125.8,1.4 125.9,1.6 125.9,1.8 C125.9,2 125.8,2.2 125.7,2.4 C125.6,2.6 125.3,2.6 125.1,2.6 C124.9,2.6 124.6,2.5 124.5,2.4 C124.3,2.2 124.3,2 124.3,1.8 Z M125.8,12.5 L124.4,12.5 L124.4,4 L125.8,4 L125.8,12.5 Z" id="Shape"></path>
                    <path d="M130.1,2 L130.1,4 L131.7,4 L131.7,5.1 L130.1,5.1 L130.1,10.3 C130.1,10.6 130.2,10.9 130.3,11.1 C130.4,11.3 130.7,11.4 131,11.4 C131.2,11.4 131.4,11.4 131.7,11.3 L131.7,12.5 C131.3,12.6 130.9,12.7 130.6,12.7 C130,12.7 129.5,12.5 129.1,12.1 C128.7,11.7 128.6,11.2 128.6,10.4 L128.6,5.2 L127.1,5.2 L127.1,4 L128.6,4 L128.6,2 L130.1,2 Z" id="Shape"></path>
                    <path d="M142.6,12.5 C142.5,12.3 142.4,12 142.4,11.6 C141.7,12.3 140.9,12.6 140,12.6 C139.2,12.6 138.5,12.4 137.9,11.9 C137.4,11.4 137.1,10.8 137.1,10.1 C137.1,9.2 137.4,8.5 138.1,8 C138.8,7.5 139.7,7.3 140.9,7.3 L142.3,7.3 L142.3,6.6 C142.3,6.1 142.1,5.7 141.8,5.4 C141.5,5.1 141.1,5 140.5,5 C140,5 139.6,5.1 139.2,5.4 C138.9,5.7 138.7,6 138.7,6.3 L137.2,6.3 C137.2,5.9 137.3,5.5 137.6,5.1 C137.9,4.7 138.3,4.4 138.8,4.2 C139.3,4 139.9,3.9 140.5,3.9 C141.5,3.9 142.2,4.1 142.8,4.6 C143.4,5.1 143.6,5.8 143.7,6.6 L143.7,10.5 C143.7,11.3 143.8,11.9 144,12.4 L144,12.5 L142.6,12.5 L142.6,12.5 Z M140.2,11.4 C140.7,11.4 141.1,11.3 141.5,11 C141.9,10.7 142.2,10.5 142.4,10.1 L142.4,8.4 L141.3,8.4 C139.5,8.4 138.6,8.9 138.6,10 C138.6,10.5 138.8,10.8 139.1,11.1 C139.3,11.3 139.7,11.4 140.2,11.4 Z" id="Shape"></path>
                    <path d="M147.4,4 L147.4,4.9 C148,4.2 148.9,3.8 149.9,3.8 C151.1,3.8 151.9,4.3 152.3,5.2 C152.6,4.8 152.9,4.5 153.4,4.2 C153.9,4 154.4,3.8 155,3.8 C156.9,3.8 157.8,4.8 157.8,6.7 L157.8,12.4 L156.4,12.4 L156.4,6.8 C156.4,6.2 156.3,5.7 156,5.4 C155.7,5.1 155.3,5 154.6,5 C154.1,5 153.6,5.2 153.3,5.5 C152.9,5.8 152.7,6.3 152.7,6.8 L152.7,12.4 L151.2,12.4 L151.2,7 C151.2,5.8 150.6,5.2 149.4,5.2 C148.5,5.2 147.8,5.6 147.5,6.4 L147.5,12.6 L146,12.6 L146,4 L147.4,4 Z" id="Shape"></path>
                    <path d="M163.6,12.7 C162.5,12.7 161.5,12.3 160.8,11.6 C160.1,10.9 159.7,9.8 159.7,8.6 L159.7,8.3 C159.7,7.5 159.9,6.7 160.2,6.1 C160.5,5.5 161,4.9 161.5,4.6 C162.1,4.2 162.7,4 163.4,4 C164.5,4 165.4,4.4 166,5.1 C166.6,5.8 166.9,6.9 166.9,8.2 L166.9,8.8 L161.2,8.8 C161.2,9.6 161.5,10.3 161.9,10.8 C162.4,11.3 163,11.6 163.7,11.6 C164.2,11.6 164.6,11.5 165,11.3 C165.4,11.1 165.7,10.8 165.9,10.5 L166.8,11.2 C166,12.1 165,12.7 163.6,12.7 Z M163.4,5.1 C162.8,5.1 162.3,5.3 161.9,5.7 C161.5,6.1 161.3,6.7 161.2,7.5 L165.4,7.5 L165.4,7.4 C165.4,6.7 165.2,6.1 164.8,5.7 C164.5,5.3 164,5.1 163.4,5.1 Z" id="Shape"></path>
                    <path d="M170.5,2 L170.5,4 L172.1,4 L172.1,5.1 L170.5,5.1 L170.5,10.3 C170.5,10.6 170.6,10.9 170.7,11.1 C170.8,11.3 171.1,11.4 171.4,11.4 C171.6,11.4 171.8,11.4 172.1,11.3 L172.1,12.5 C171.7,12.6 171.3,12.7 171,12.7 C170.4,12.7 169.9,12.5 169.5,12.1 C169.1,11.7 169,11.2 169,10.4 L169,5.2 L167.5,5.2 L167.5,4 L169,4 L169,2 L170.5,2 Z" id="Shape"></path>
                </g>
                <g id="Group" transform="translate(55.000000, 177.000000)" fill-rule="nonzero" fill="#0A7C83">
                    <polygon id="Shape" points="2.3 1.1 6 10.4 9.7 1.1 11.6 1.1 11.6 12.5 10.1 12.5 10.1 8.1 10.2 3.3 6.5 12.5 5.4 12.5 1.7 3.3 1.8 8.1 1.8 12.5 0.3 12.5 0.3 1.1"></polygon>
                    <path d="M16.8,10.4 L18.8,4.1 L20.3,4.1 L16.9,13.9 C16.4,15.3 15.5,16 14.4,16 L14.1,16 L13.6,15.9 L13.6,14.7 L14,14.7 C14.5,14.7 14.9,14.6 15.1,14.4 C15.3,14.2 15.6,13.8 15.8,13.3 L16.1,12.4 L13.1,4 L14.7,4 L16.8,10.4 Z" id="Shape"></path>
                    <path d="M34.2,8.9 C34.1,10.1 33.6,11 32.9,11.7 C32.2,12.4 31.2,12.7 29.9,12.7 C28.6,12.7 27.5,12.2 26.7,11.3 C25.9,10.3 25.5,9 25.5,7.4 L25.5,6.3 C25.5,5.2 25.7,4.3 26.1,3.5 C26.5,2.7 27,2.1 27.7,1.7 C28.4,1.3 29.2,1.1 30.1,1.1 C31.3,1.1 32.3,1.4 33,2.1 C33.7,2.8 34.2,3.7 34.3,4.9 L32.8,4.9 C32.7,4 32.4,3.3 32,2.9 C31.6,2.5 31,2.3 30.2,2.3 C29.2,2.3 28.5,2.7 27.9,3.4 C27.4,4.1 27.1,5.1 27.1,6.4 L27.1,7.5 C27.1,8.7 27.4,9.7 27.9,10.4 C28.4,11.1 29.1,11.5 30.1,11.5 C30.9,11.5 31.6,11.3 32,10.9 C32.4,10.5 32.7,9.9 32.9,8.9 L34.2,8.9 Z" id="Shape"></path>
                    <polygon id="Shape" points="37.6 12.5 36.2 12.5 36.2 0.5 37.6 0.5"></polygon>
                    <path d="M39.5,8.2 C39.5,7.4 39.7,6.6 40,6 C40.3,5.3 40.8,4.8 41.4,4.5 C42,4.1 42.6,4 43.4,4 C44.6,4 45.5,4.4 46.2,5.2 C46.9,6 47.3,7.1 47.3,8.4 L47.3,8.5 C47.3,9.3 47.1,10.1 46.8,10.7 C46.5,11.4 46,11.9 45.4,12.2 C44.8,12.5 44.1,12.7 43.4,12.7 C42.3,12.7 41.3,12.3 40.6,11.5 C39.9,10.7 39.5,9.6 39.5,8.3 L39.5,8.2 Z M41,8.4 C41,9.3 41.2,10.1 41.7,10.7 C42.1,11.3 42.7,11.6 43.4,11.6 C44.1,11.6 44.7,11.3 45.2,10.7 C45.6,10.1 45.8,9.3 45.8,8.3 C45.8,7.4 45.6,6.6 45.1,6 C44.7,5.4 44.1,5.1 43.3,5.1 C42.6,5.1 42,5.4 41.6,6 C41.2,6.6 41,7.3 41,8.4 Z" id="Shape"></path>
                    <path d="M54.2,11.7 C53.6,12.4 52.8,12.7 51.7,12.7 C50.8,12.7 50.1,12.4 49.6,11.9 C49.1,11.4 48.9,10.6 48.9,9.6 L48.9,4 L50.3,4 L50.3,9.5 C50.3,10.8 50.8,11.4 51.9,11.4 C53,11.4 53.7,11 54.1,10.2 L54.1,4 L55.5,4 L55.5,12.5 L54.1,12.5 L54.2,11.7 Z" id="Shape"></path>
                    <path d="M57.5,8.2 C57.5,6.9 57.8,5.9 58.4,5.1 C59,4.3 59.8,3.9 60.8,3.9 C61.8,3.9 62.6,4.2 63.2,4.9 L63.2,0.5 L64.6,0.5 L64.6,12.5 L63.3,12.5 L63.2,11.6 C62.6,12.3 61.8,12.7 60.8,12.7 C59.8,12.7 59,12.3 58.4,11.5 C57.8,10.7 57.5,9.7 57.5,8.4 L57.5,8.2 L57.5,8.2 Z M58.9,8.4 C58.9,9.4 59.1,10.1 59.5,10.6 C59.9,11.1 60.4,11.4 61.1,11.4 C62,11.4 62.7,11 63.1,10.2 L63.1,6.3 C62.7,5.5 62,5.1 61.1,5.1 C60.4,5.1 59.8,5.4 59.4,5.9 C59.1,6.5 58.9,7.3 58.9,8.4 Z" id="Shape"></path>
                    <path d="M74.4,7.4 C73.1,7 72.2,6.6 71.6,6 C71,5.4 70.7,4.8 70.7,4 C70.7,3.1 71.1,2.4 71.8,1.8 C72.5,1.2 73.4,0.9 74.6,0.9 C75.4,0.9 76.1,1.1 76.7,1.4 C77.3,1.7 77.8,2.1 78.1,2.6 C78.4,3.1 78.6,3.7 78.6,4.3 L77.1,4.3 C77.1,3.6 76.9,3.1 76.4,2.7 C75.9,2.3 75.3,2.1 74.5,2.1 C73.8,2.1 73.2,2.3 72.8,2.6 C72.4,2.9 72.2,3.4 72.2,4 C72.2,4.5 72.4,4.9 72.8,5.2 C73.2,5.5 73.9,5.8 74.8,6.1 C75.7,6.4 76.5,6.7 77,7 C77.5,7.3 77.9,7.7 78.2,8.1 C78.5,8.5 78.6,9 78.6,9.6 C78.6,10.5 78.2,11.3 77.5,11.8 C76.8,12.3 75.8,12.6 74.6,12.6 C73.8,12.6 73.1,12.5 72.4,12.2 C71.7,11.9 71.2,11.5 70.8,11 C70.4,10.5 70.2,9.9 70.2,9.2 L71.7,9.2 C71.7,9.9 72,10.4 72.5,10.8 C73,11.2 73.7,11.4 74.5,11.4 C75.3,11.4 75.9,11.2 76.3,10.9 C76.7,10.6 76.9,10.1 76.9,9.6 C76.9,9.1 76.7,8.6 76.3,8.3 C75.9,8 75.4,7.7 74.4,7.4 Z" id="Shape"></path>
                    <path d="M83.8,12.7 C82.7,12.7 81.7,12.3 81,11.6 C80.3,10.9 79.9,9.8 79.9,8.6 L79.9,8.3 C79.9,7.5 80.1,6.7 80.4,6.1 C80.7,5.5 81.2,4.9 81.7,4.6 C82.3,4.2 82.9,4 83.6,4 C84.7,4 85.6,4.4 86.2,5.1 C86.8,5.8 87.1,6.9 87.1,8.2 L87.1,8.8 L81.4,8.8 C81.4,9.6 81.7,10.3 82.1,10.8 C82.6,11.3 83.2,11.6 83.9,11.6 C84.4,11.6 84.8,11.5 85.2,11.3 C85.6,11.1 85.9,10.8 86.1,10.5 L87,11.2 C86.3,12.1 85.2,12.7 83.8,12.7 Z M83.6,5.1 C83,5.1 82.5,5.3 82.1,5.7 C81.7,6.1 81.5,6.7 81.4,7.5 L85.6,7.5 L85.6,7.4 C85.6,6.7 85.4,6.1 85,5.7 C84.7,5.3 84.2,5.1 83.6,5.1 Z" id="Shape"></path>
                </g>
                <g id="Group" transform="translate(143.000000, 180.000000)" fill-rule="nonzero" fill="#0A7C83">
                    <path d="M4.9,2.3 C4.7,2.3 4.4,2.2 4.2,2.2 C3.3,2.2 2.6,2.6 2.3,3.4 L2.3,9.4 L0.9,9.4 L0.9,1 L2.3,1 L2.3,2 C2.8,1.2 3.4,0.9 4.3,0.9 C4.6,0.9 4.8,0.9 4.9,1 L4.9,2.3 Z" id="Shape"></path>
                </g>
                <g id="Group" transform="translate(148.000000, 181.000000)" fill-rule="nonzero" fill="#0A7C83">
                    <polygon id="Shape" points="4.3 6.5 6.4 0 7.9 0 4.9 8.5 3.8 8.5 0.7 0 2.2 0"></polygon>
                </g>
                <g id="Group" transform="translate(156.000000, 178.000000)" fill-rule="nonzero" fill="#0A7C83">
                    <path d="M4.6,11.7 C3.5,11.7 2.5,11.3 1.8,10.6 C1.1,9.9 0.7,8.8 0.7,7.6 L0.7,7.3 C0.7,6.5 0.9,5.7 1.2,5.1 C1.5,4.5 2,3.9 2.5,3.6 C3.1,3.2 3.7,3 4.4,3 C5.5,3 6.4,3.4 7,4.1 C7.6,4.8 7.9,5.9 7.9,7.2 L7.9,7.8 L2.2,7.8 C2.2,8.6 2.5,9.3 2.9,9.8 C3.4,10.3 4,10.6 4.7,10.6 C5.2,10.6 5.6,10.5 6,10.3 C6.4,10.1 6.7,9.8 6.9,9.5 L7.8,10.2 C7.1,11.1 6.1,11.7 4.6,11.7 Z M4.5,4.1 C3.9,4.1 3.4,4.3 3,4.7 C2.6,5.1 2.4,5.7 2.3,6.5 L6.5,6.5 L6.5,6.4 C6.5,5.7 6.3,5.1 5.9,4.7 C5.5,4.3 5.1,4.1 4.5,4.1 Z" id="Shape"></path>
                    <path d="M13.7,4.3 C13.5,4.3 13.2,4.2 13,4.2 C12.1,4.2 11.4,4.6 11.1,5.4 L11.1,11.4 L9.7,11.4 L9.7,3 L11.1,3 L11.1,4 C11.6,3.2 12.2,2.9 13.1,2.9 C13.4,2.9 13.6,2.9 13.7,3 L13.7,4.3 Z" id="Shape"></path>
                    <polygon id="Shape" points="18 7.3 14.2 7.3 14.2 6.1 18 6.1"></polygon>
                    <path d="M26.4,6.6 C26.4,8.3 26.1,9.6 25.5,10.4 C24.9,11.2 24,11.6 22.8,11.6 C21.6,11.6 20.7,11.2 20.1,10.4 C19.5,9.6 19.2,8.4 19.2,6.8 L19.2,4.9 C19.2,3.2 19.5,2 20.1,1.2 C20.7,0.4 21.6,2.84217094e-14 22.8,2.84217094e-14 C24,2.84217094e-14 24.9,0.4 25.5,1.2 C26.1,2 26.4,3.2 26.4,4.8 L26.4,6.6 Z M25,4.7 C25,3.5 24.8,2.6 24.5,2 C24.2,1.4 23.6,1.2 22.9,1.2 C22.2,1.2 21.6,1.5 21.3,2 C21,2.6 20.8,3.4 20.8,4.6 L20.8,6.9 C20.8,8.1 21,9 21.3,9.6 C21.7,10.2 22.2,10.5 22.9,10.5 C23.6,10.5 24.1,10.2 24.5,9.7 C24.8,9.1 25,8.3 25,7.1 L25,4.7 Z" id="Shape"></path>
                    <path d="M33.9,0.1 L33.9,1.3 L33.6,1.3 C32.5,1.3 31.6,1.7 30.9,2.3 C30.2,2.9 29.8,3.9 29.7,5 C30.3,4.3 31.1,4 32.2,4 C33.2,4 34,4.3 34.6,5 C35.2,5.7 35.5,6.6 35.5,7.7 C35.5,8.9 35.2,9.8 34.5,10.5 C33.9,11.2 33,11.6 31.9,11.6 C30.8,11.6 29.9,11.2 29.3,10.3 C28.6,9.5 28.3,8.4 28.3,7.1 L28.3,6.5 C28.3,4.4 28.7,2.8 29.6,1.7 C30.5,0.6 31.8,-2.84217094e-14 33.6,-2.84217094e-14 L33.9,-2.84217094e-14 L33.9,0.1 Z M32,5.2 C31.5,5.2 31,5.3 30.6,5.6 C30.2,5.9 29.9,6.3 29.7,6.7 L29.7,7.2 C29.7,8.1 29.9,8.9 30.3,9.5 C30.7,10.1 31.2,10.4 31.9,10.4 C32.6,10.4 33.1,10.2 33.4,9.7 C33.8,9.2 34,8.6 34,7.8 C34,7 33.8,6.4 33.4,5.9 C33.2,5.5 32.7,5.2 32,5.2 Z" id="Shape"></path>
                </g>
                <path d="M611.9,275 L0,275" id="Stroke-8-Copy-3" stroke="#E0E0E0"></path>
                <g id="Group" transform="translate(287.000000, 237.000000)" fill-rule="nonzero" fill="#616262">
                    <polygon id="Shape" points="1.8 10.8 7.2 10.8 7.2 12 0.3 12 0.3 0.6 1.8 0.6"></polygon>
                    <path d="M8.3,7.7 C8.3,6.9 8.5,6.1 8.8,5.5 C9.1,4.8 9.6,4.3 10.2,4 C10.8,3.6 11.4,3.5 12.2,3.5 C13.4,3.5 14.3,3.9 15,4.7 C15.7,5.5 16.1,6.6 16.1,7.9 L16.1,8 C16.1,8.8 15.9,9.6 15.6,10.2 C15.3,10.9 14.8,11.4 14.2,11.7 C13.6,12 12.9,12.2 12.2,12.2 C11.1,12.2 10.1,11.8 9.4,11 C8.7,10.2 8.3,9.1 8.3,7.8 L8.3,7.7 Z M9.8,7.9 C9.8,8.8 10,9.6 10.5,10.2 C10.9,10.8 11.5,11.1 12.2,11.1 C12.9,11.1 13.5,10.8 14,10.2 C14.4,9.6 14.6,8.8 14.6,7.8 C14.6,6.9 14.4,6.1 13.9,5.5 C13.5,4.9 12.9,4.6 12.1,4.6 C11.4,4.6 10.8,4.9 10.4,5.5 C10,6.1 9.8,6.8 9.8,7.9 Z" id="Shape"></path>
                </g>
                <g id="Group" transform="translate(304.000000, 240.000000)" fill-rule="nonzero" fill="#616262">
                    <path d="M4.9,1.8 C4.7,1.8 4.4,1.7 4.2,1.7 C3.3,1.7 2.6,2.1 2.3,2.9 L2.3,8.9 L0.9,8.9 L0.9,0.4 L2.3,0.4 L2.3,1.4 C2.8,0.6 3.4,0.3 4.3,0.3 C4.6,0.3 4.8,0.3 4.9,0.4 L4.9,1.8 L4.9,1.8 Z" id="Shape"></path>
                </g>
                <g id="Group" transform="translate(309.000000, 237.000000)" fill-rule="nonzero" fill="#616262">
                    <path d="M4.6,12.2 C3.5,12.2 2.5,11.8 1.8,11.1 C1.1,10.4 0.7,9.3 0.7,8.1 L0.7,7.8 C0.7,7 0.9,6.2 1.2,5.6 C1.5,5 2,4.4 2.5,4.1 C3.1,3.7 3.7,3.5 4.4,3.5 C5.5,3.5 6.4,3.9 7,4.6 C7.6,5.3 7.9,6.4 7.9,7.7 L7.9,8.3 L2.2,8.3 C2.2,9.1 2.5,9.8 2.9,10.3 C3.4,10.8 4,11.1 4.7,11.1 C5.2,11.1 5.6,11 6,10.8 C6.4,10.6 6.7,10.3 6.9,10 L7.8,10.7 C7.1,11.6 6,12.2 4.6,12.2 Z M4.4,4.6 C3.8,4.6 3.3,4.8 2.9,5.2 C2.5,5.6 2.3,6.2 2.2,7 L6.4,7 L6.4,6.9 C6.4,6.2 6.2,5.6 5.8,5.2 C5.5,4.8 5,4.6 4.4,4.6 Z" id="Shape"></path>
                    <path d="M10.9,3.5 L10.9,4.4 C11.5,3.7 12.4,3.3 13.4,3.3 C14.6,3.3 15.4,3.8 15.8,4.7 C16.1,4.3 16.4,4 16.9,3.7 C17.4,3.5 17.9,3.3 18.5,3.3 C20.4,3.3 21.3,4.3 21.3,6.2 L21.3,11.9 L20,11.9 L20,6.3 C20,5.7 19.9,5.2 19.6,4.9 C19.3,4.6 18.9,4.5 18.2,4.5 C17.7,4.5 17.2,4.7 16.9,5 C16.5,5.3 16.3,5.8 16.3,6.3 L16.3,11.9 L14.8,11.9 L14.8,6.4 C14.8,5.2 14.2,4.6 13,4.6 C12.1,4.6 11.4,5 11.1,5.8 L11.1,12 L9.7,12 L9.7,3.5 L10.9,3.5 L10.9,3.5 Z" id="Shape"></path>
                    <path d="M27.6,1.3 C27.6,1.1 27.7,0.9 27.8,0.7 C27.9,0.5 28.2,0.5 28.4,0.5 C28.6,0.5 28.9,0.6 29,0.7 C29.1,0.9 29.2,1.1 29.2,1.3 C29.2,1.5 29.1,1.7 29,1.9 C28.9,2.1 28.6,2.1 28.4,2.1 C28.2,2.1 27.9,2 27.8,1.9 C27.6,1.7 27.6,1.5 27.6,1.3 Z M29.1,12 L27.7,12 L27.7,3.5 L29.1,3.5 L29.1,12 Z" id="Shape"></path>
                    <path d="M38.6,7.9 C38.6,9.2 38.3,10.2 37.7,11 C37.1,11.8 36.3,12.2 35.3,12.2 C34.3,12.2 33.5,11.9 32.9,11.2 L32.9,15.3 L31.5,15.3 L31.5,3.6 L32.8,3.6 L32.9,4.5 C33.5,3.8 34.3,3.4 35.4,3.4 C36.4,3.4 37.2,3.8 37.8,4.5 C38.4,5.3 38.7,6.3 38.7,7.7 L38.7,7.9 L38.6,7.9 Z M37.1,7.7 C37.1,6.7 36.9,6 36.5,5.4 C36.1,4.8 35.5,4.6 34.8,4.6 C33.9,4.6 33.3,5 32.8,5.8 L32.8,9.8 C33.2,10.6 33.9,11 34.8,11 C35.5,11 36,10.7 36.5,10.2 C36.9,9.6 37.1,8.8 37.1,7.7 Z" id="Shape"></path>
                    <path d="M45.3,9.8 C45.3,9.4 45.2,9.1 44.9,8.9 C44.6,8.7 44.1,8.5 43.4,8.3 C42.7,8.1 42.1,8 41.7,7.7 C41.3,7.4 41,7.2 40.7,6.9 C40.5,6.6 40.4,6.2 40.4,5.8 C40.4,5.1 40.7,4.5 41.3,4 C41.9,3.5 42.6,3.3 43.5,3.3 C44.5,3.3 45.2,3.5 45.8,4 C46.4,4.5 46.7,5.1 46.7,5.9 L45.2,5.9 C45.2,5.5 45,5.2 44.7,4.9 C44.4,4.6 43.9,4.5 43.4,4.5 C42.9,4.5 42.5,4.6 42.2,4.8 C41.9,5 41.8,5.3 41.8,5.7 C41.8,6 41.9,6.3 42.2,6.5 C42.5,6.7 43,6.8 43.7,7 C44.4,7.2 45,7.4 45.5,7.6 C45.9,7.8 46.3,8.1 46.5,8.4 C46.7,8.7 46.8,9.1 46.8,9.6 C46.8,10.4 46.5,11 45.9,11.4 C45.3,11.9 44.5,12.1 43.5,12.1 C42.8,12.1 42.2,12 41.7,11.7 C41.2,11.5 40.8,11.1 40.5,10.7 C40.2,10.3 40.1,9.8 40.1,9.3 L41.5,9.3 C41.5,9.8 41.7,10.2 42.1,10.5 C42.5,10.8 42.9,10.9 43.5,10.9 C44,10.9 44.5,10.8 44.8,10.6 C45.2,10.4 45.3,10.1 45.3,9.8 Z" id="Shape"></path>
                    <path d="M53.9,11.2 C53.3,11.9 52.5,12.2 51.4,12.2 C50.5,12.2 49.8,11.9 49.3,11.4 C48.8,10.9 48.6,10.1 48.6,9.1 L48.6,3.6 L50,3.6 L50,9.1 C50,10.4 50.5,11 51.6,11 C52.7,11 53.4,10.6 53.8,9.8 L53.8,3.7 L55.2,3.7 L55.2,12.2 L53.8,12.2 L53.9,11.2 Z" id="Shape"></path>
                    <path d="M58.9,3.5 L58.9,4.4 C59.5,3.7 60.4,3.3 61.4,3.3 C62.6,3.3 63.4,3.8 63.8,4.7 C64.1,4.3 64.4,4 64.9,3.7 C65.4,3.5 65.9,3.3 66.5,3.3 C68.4,3.3 69.3,4.3 69.3,6.2 L69.3,11.9 L67.9,11.9 L67.9,6.3 C67.9,5.7 67.8,5.2 67.5,4.9 C67.2,4.6 66.8,4.5 66.1,4.5 C65.6,4.5 65.1,4.7 64.8,5 C64.4,5.3 64.2,5.8 64.2,6.3 L64.2,11.9 L62.7,11.9 L62.7,6.4 C62.7,5.2 62.1,4.6 60.9,4.6 C60,4.6 59.3,5 59,5.8 L59,12 L57.6,12 L57.6,3.5 L58.9,3.5 L58.9,3.5 Z" id="Shape"></path>
                    <path d="M75.1,7.7 C75.1,6.4 75.4,5.4 76,4.6 C76.6,3.8 77.4,3.4 78.4,3.4 C79.4,3.4 80.2,3.7 80.8,4.4 L80.8,0 L82.2,0 L82.2,12 L80.9,12 L80.8,11.1 C80.2,11.8 79.4,12.2 78.4,12.2 C77.4,12.2 76.6,11.8 76,11 C75.4,10.2 75.1,9.2 75.1,7.9 L75.1,7.7 L75.1,7.7 Z M76.6,7.9 C76.6,8.9 76.8,9.6 77.2,10.1 C77.6,10.6 78.1,10.9 78.8,10.9 C79.7,10.9 80.4,10.5 80.8,9.7 L80.8,5.8 C80.4,5 79.7,4.6 78.8,4.6 C78.1,4.6 77.5,4.9 77.1,5.4 C76.8,6 76.6,6.8 76.6,7.9 Z" id="Shape"></path>
                    <path d="M84.1,7.7 C84.1,6.9 84.3,6.1 84.6,5.5 C84.9,4.8 85.4,4.3 86,4 C86.6,3.6 87.2,3.5 88,3.5 C89.2,3.5 90.1,3.9 90.8,4.7 C91.5,5.5 91.9,6.6 91.9,7.9 L91.9,8 C91.9,8.8 91.7,9.6 91.4,10.2 C91.1,10.9 90.6,11.4 90,11.7 C89.4,12 88.7,12.2 88,12.2 C86.9,12.2 85.9,11.8 85.2,11 C84.5,10.2 84.1,9.1 84.1,7.8 L84.1,7.7 Z M85.6,7.9 C85.6,8.8 85.8,9.6 86.3,10.2 C86.7,10.8 87.3,11.1 88,11.1 C88.7,11.1 89.3,10.8 89.8,10.2 C90.2,9.6 90.4,8.8 90.4,7.8 C90.4,6.9 90.2,6.1 89.7,5.5 C89.3,4.9 88.7,4.6 87.9,4.6 C87.2,4.6 86.6,4.9 86.2,5.5 C85.8,6.1 85.6,6.8 85.6,7.9 Z" id="Shape"></path>
                    <polygon id="Shape" points="95.2 12 93.8 12 93.8 0 95.2 0"></polygon>
                    <path d="M97.1,7.7 C97.1,6.9 97.3,6.1 97.6,5.5 C97.9,4.8 98.4,4.3 99,4 C99.6,3.6 100.2,3.5 101,3.5 C102.2,3.5 103.1,3.9 103.8,4.7 C104.5,5.5 104.9,6.6 104.9,7.9 L104.9,8 C104.9,8.8 104.7,9.6 104.4,10.2 C104.1,10.9 103.6,11.4 103,11.7 C102.4,12 101.7,12.2 101,12.2 C99.9,12.2 98.9,11.8 98.2,11 C97.5,10.2 97.1,9.1 97.1,7.8 L97.1,7.7 Z M98.6,7.9 C98.6,8.8 98.8,9.6 99.3,10.2 C99.7,10.8 100.3,11.1 101,11.1 C101.7,11.1 102.3,10.8 102.8,10.2 C103.2,9.6 103.4,8.8 103.4,7.8 C103.4,6.9 103.2,6.1 102.7,5.5 C102.3,4.9 101.7,4.6 100.9,4.6 C100.2,4.6 99.6,4.9 99.2,5.5 C98.8,6.1 98.6,6.8 98.6,7.9 Z" id="Shape"></path>
                    <path d="M110.7,4.8 C110.5,4.8 110.2,4.7 110,4.7 C109.1,4.7 108.4,5.1 108.1,5.9 L108.1,11.9 L106.7,11.9 L106.7,3.4 L108.1,3.4 L108.1,4.4 C108.6,3.6 109.2,3.3 110.1,3.3 C110.4,3.3 110.6,3.3 110.7,3.4 L110.7,4.8 L110.7,4.8 Z" id="Shape"></path>
                    <path d="M120.9,9.8 C120.9,9.4 120.8,9.1 120.5,8.9 C120.2,8.7 119.7,8.5 119,8.3 C118.3,8.1 117.7,8 117.3,7.7 C116.9,7.4 116.6,7.2 116.3,6.9 C116.1,6.6 116,6.2 116,5.8 C116,5.1 116.3,4.5 116.9,4 C117.5,3.5 118.2,3.3 119.1,3.3 C120.1,3.3 120.8,3.5 121.4,4 C122,4.5 122.3,5.1 122.3,5.9 L120.8,5.9 C120.8,5.5 120.6,5.2 120.3,4.9 C120,4.6 119.5,4.5 119,4.5 C118.5,4.5 118.1,4.6 117.8,4.8 C117.5,5 117.4,5.3 117.4,5.7 C117.4,6 117.5,6.3 117.8,6.5 C118.1,6.7 118.6,6.8 119.3,7 C120,7.2 120.6,7.4 121.1,7.6 C121.5,7.8 121.9,8.1 122.1,8.4 C122.3,8.7 122.4,9.1 122.4,9.6 C122.4,10.4 122.1,11 121.5,11.4 C120.9,11.9 120.1,12.1 119.1,12.1 C118.4,12.1 117.8,12 117.3,11.7 C116.8,11.5 116.4,11.1 116.1,10.7 C115.8,10.3 115.7,9.8 115.7,9.3 L117.1,9.3 C117.1,9.8 117.3,10.2 117.7,10.5 C118.1,10.8 118.5,10.9 119.1,10.9 C119.6,10.9 120.1,10.8 120.4,10.6 C120.8,10.4 120.9,10.1 120.9,9.8 Z" id="Shape"></path>
                    <path d="M124.3,1.3 C124.3,1.1 124.4,0.9 124.5,0.7 C124.6,0.5 124.9,0.5 125.1,0.5 C125.3,0.5 125.6,0.6 125.7,0.7 C125.8,0.9 125.9,1.1 125.9,1.3 C125.9,1.5 125.8,1.7 125.7,1.9 C125.6,2.1 125.3,2.1 125.1,2.1 C124.9,2.1 124.6,2 124.5,1.9 C124.3,1.7 124.3,1.5 124.3,1.3 Z M125.8,12 L124.4,12 L124.4,3.5 L125.8,3.5 L125.8,12 Z" id="Shape"></path>
                    <path d="M130.1,1.5 L130.1,3.5 L131.7,3.5 L131.7,4.6 L130.1,4.6 L130.1,9.8 C130.1,10.1 130.2,10.4 130.3,10.6 C130.4,10.8 130.7,10.9 131,10.9 C131.2,10.9 131.4,10.9 131.7,10.8 L131.7,12 C131.3,12.1 130.9,12.2 130.6,12.2 C130,12.2 129.5,12 129.1,11.6 C128.7,11.2 128.6,10.7 128.6,9.9 L128.6,4.7 L127.1,4.7 L127.1,3.6 L128.6,3.6 L128.6,1.6 L130.1,1.6 L130.1,1.5 Z" id="Shape"></path>
                    <path d="M142.6,12 C142.5,11.8 142.4,11.5 142.4,11.1 C141.7,11.8 140.9,12.1 140,12.1 C139.2,12.1 138.5,11.9 137.9,11.4 C137.4,10.9 137.1,10.3 137.1,9.6 C137.1,8.7 137.4,8 138.1,7.5 C138.8,7 139.7,6.8 140.9,6.8 L142.3,6.8 L142.3,6.1 C142.3,5.6 142.1,5.2 141.8,4.9 C141.5,4.6 141.1,4.5 140.5,4.5 C140,4.5 139.6,4.6 139.2,4.9 C138.9,5.2 138.7,5.5 138.7,5.8 L137.2,5.8 C137.2,5.4 137.3,5 137.6,4.6 C137.9,4.2 138.3,3.9 138.8,3.7 C139.3,3.5 139.9,3.4 140.5,3.4 C141.5,3.4 142.2,3.6 142.8,4.1 C143.4,4.6 143.6,5.3 143.7,6.1 L143.7,10 C143.7,10.8 143.8,11.4 144,11.9 L144,12 L142.6,12 L142.6,12 Z M140.2,10.9 C140.7,10.9 141.1,10.8 141.5,10.5 C141.9,10.2 142.2,10 142.4,9.6 L142.4,7.9 L141.3,7.9 C139.5,7.9 138.6,8.4 138.6,9.5 C138.6,10 138.8,10.3 139.1,10.6 C139.3,10.8 139.7,10.9 140.2,10.9 Z" id="Shape"></path>
                    <path d="M147.4,3.5 L147.4,4.4 C148,3.7 148.9,3.3 149.9,3.3 C151.1,3.3 151.9,3.8 152.3,4.7 C152.6,4.3 152.9,4 153.4,3.7 C153.9,3.5 154.4,3.3 155,3.3 C156.9,3.3 157.8,4.3 157.8,6.2 L157.8,11.9 L156.4,11.9 L156.4,6.3 C156.4,5.7 156.3,5.2 156,4.9 C155.7,4.6 155.3,4.5 154.6,4.5 C154.1,4.5 153.6,4.7 153.3,5 C152.9,5.3 152.7,5.8 152.7,6.3 L152.7,11.9 L151.2,11.9 L151.2,6.4 C151.2,5.2 150.6,4.6 149.4,4.6 C148.5,4.6 147.8,5 147.5,5.8 L147.5,12 L146,12 L146,3.5 L147.4,3.5 L147.4,3.5 Z" id="Shape"></path>
                    <path d="M163.6,12.2 C162.5,12.2 161.5,11.8 160.8,11.1 C160.1,10.4 159.7,9.3 159.7,8.1 L159.7,7.8 C159.7,7 159.9,6.2 160.2,5.6 C160.5,5 161,4.4 161.5,4.1 C162.1,3.7 162.7,3.5 163.4,3.5 C164.5,3.5 165.4,3.9 166,4.6 C166.6,5.3 166.9,6.4 166.9,7.7 L166.9,8.3 L161.2,8.3 C161.2,9.1 161.5,9.8 161.9,10.3 C162.4,10.8 163,11.1 163.7,11.1 C164.2,11.1 164.6,11 165,10.8 C165.4,10.6 165.7,10.3 165.9,10 L166.8,10.7 C166,11.6 165,12.2 163.6,12.2 Z M163.4,4.6 C162.8,4.6 162.3,4.8 161.9,5.2 C161.5,5.6 161.3,6.2 161.2,7 L165.4,7 L165.4,6.9 C165.4,6.2 165.2,5.6 164.8,5.2 C164.5,4.8 164,4.6 163.4,4.6 Z" id="Shape"></path>
                    <path d="M170.5,1.5 L170.5,3.5 L172.1,3.5 L172.1,4.6 L170.5,4.6 L170.5,9.8 C170.5,10.1 170.6,10.4 170.7,10.6 C170.8,10.8 171.1,10.9 171.4,10.9 C171.6,10.9 171.8,10.9 172.1,10.8 L172.1,12 C171.7,12.1 171.3,12.2 171,12.2 C170.4,12.2 169.9,12 169.5,11.6 C169.1,11.2 169,10.7 169,9.9 L169,4.7 L167.5,4.7 L167.5,3.6 L169,3.6 L169,1.6 L170.5,1.6 L170.5,1.5 Z" id="Shape"></path>
                </g>
                <g id="Group" transform="translate(55.000000, 238.000000)" fill-rule="nonzero" fill="#0A7C83">
                    <polygon id="Shape" points="2.3 0.6 6 9.9 9.7 0.6 11.6 0.6 11.6 12 10.1 12 10.1 7.6 10.2 2.8 6.5 12 5.4 12 1.7 2.8 1.8 7.6 1.8 12 0.3 12 0.3 0.6"></polygon>
                    <path d="M16.8,9.9 L18.8,3.6 L20.3,3.6 L16.9,13.4 C16.4,14.8 15.5,15.5 14.4,15.5 L14.1,15.5 L13.6,15.4 L13.6,14.2 L14,14.2 C14.5,14.2 14.9,14.1 15.1,13.9 C15.3,13.7 15.6,13.3 15.8,12.8 L16.1,11.9 L13.1,3.5 L14.7,3.5 L16.8,9.9 Z" id="Shape"></path>
                    <path d="M34.2,8.4 C34.1,9.6 33.6,10.5 32.9,11.2 C32.2,11.9 31.2,12.2 29.9,12.2 C28.6,12.2 27.5,11.7 26.7,10.8 C25.9,9.8 25.5,8.5 25.5,6.9 L25.5,5.8 C25.5,4.7 25.7,3.8 26.1,3 C26.5,2.2 27,1.6 27.7,1.2 C28.4,0.8 29.2,0.6 30.1,0.6 C31.3,0.6 32.3,0.9 33,1.6 C33.7,2.3 34.2,3.2 34.3,4.4 L32.8,4.4 C32.7,3.5 32.4,2.8 32,2.4 C31.6,2 31,1.8 30.2,1.8 C29.2,1.8 28.5,2.2 27.9,2.9 C27.4,3.6 27.1,4.6 27.1,5.9 L27.1,7 C27.1,8.2 27.4,9.2 27.9,9.9 C28.4,10.6 29.1,11 30.1,11 C30.9,11 31.6,10.8 32,10.4 C32.4,10 32.7,9.4 32.9,8.4 L34.2,8.4 Z" id="Shape"></path>
                    <polygon id="Shape" points="37.6 12 36.2 12 36.2 0 37.6 0"></polygon>
                    <path d="M39.5,7.7 C39.5,6.9 39.7,6.1 40,5.5 C40.3,4.8 40.8,4.3 41.4,4 C42,3.6 42.6,3.5 43.4,3.5 C44.6,3.5 45.5,3.9 46.2,4.7 C46.9,5.5 47.3,6.6 47.3,7.9 L47.3,8 C47.3,8.8 47.1,9.6 46.8,10.2 C46.5,10.9 46,11.4 45.4,11.7 C44.8,12 44.1,12.2 43.4,12.2 C42.3,12.2 41.3,11.8 40.6,11 C39.9,10.2 39.5,9.1 39.5,7.8 L39.5,7.7 Z M41,7.9 C41,8.8 41.2,9.6 41.7,10.2 C42.1,10.8 42.7,11.1 43.4,11.1 C44.1,11.1 44.7,10.8 45.2,10.2 C45.6,9.6 45.8,8.8 45.8,7.8 C45.8,6.9 45.6,6.1 45.1,5.5 C44.7,4.9 44.1,4.6 43.3,4.6 C42.6,4.6 42,4.9 41.6,5.5 C41.2,6.1 41,6.8 41,7.9 Z" id="Shape"></path>
                    <path d="M54.2,11.2 C53.6,11.9 52.8,12.2 51.7,12.2 C50.8,12.2 50.1,11.9 49.6,11.4 C49.1,10.9 48.9,10.1 48.9,9.1 L48.9,3.6 L50.3,3.6 L50.3,9.1 C50.3,10.4 50.8,11 51.9,11 C53,11 53.7,10.6 54.1,9.8 L54.1,3.7 L55.5,3.7 L55.5,12.2 L54.1,12.2 L54.2,11.2 Z" id="Shape"></path>
                    <path d="M57.5,7.7 C57.5,6.4 57.8,5.4 58.4,4.6 C59,3.8 59.8,3.4 60.8,3.4 C61.8,3.4 62.6,3.7 63.2,4.4 L63.2,0 L64.6,0 L64.6,12 L63.3,12 L63.2,11.1 C62.6,11.8 61.8,12.2 60.8,12.2 C59.8,12.2 59,11.8 58.4,11 C57.8,10.2 57.5,9.2 57.5,7.9 L57.5,7.7 L57.5,7.7 Z M58.9,7.9 C58.9,8.9 59.1,9.6 59.5,10.1 C59.9,10.6 60.4,10.9 61.1,10.9 C62,10.9 62.7,10.5 63.1,9.7 L63.1,5.8 C62.7,5 62,4.6 61.1,4.6 C60.4,4.6 59.8,4.9 59.4,5.4 C59.1,6 58.9,6.8 58.9,7.9 Z" id="Shape"></path>
                    <path d="M74.4,6.9 C73.1,6.5 72.2,6.1 71.6,5.5 C71,4.9 70.7,4.3 70.7,3.5 C70.7,2.6 71.1,1.9 71.8,1.3 C72.5,0.7 73.4,0.4 74.6,0.4 C75.4,0.4 76.1,0.6 76.7,0.9 C77.3,1.2 77.8,1.6 78.1,2.1 C78.4,2.6 78.6,3.2 78.6,3.8 L77.1,3.8 C77.1,3.1 76.9,2.6 76.4,2.2 C75.9,1.8 75.3,1.6 74.5,1.6 C73.8,1.6 73.2,1.8 72.8,2.1 C72.4,2.4 72.2,2.9 72.2,3.5 C72.2,4 72.4,4.4 72.8,4.7 C73.2,5 73.9,5.3 74.8,5.6 C75.7,5.9 76.5,6.2 77,6.5 C77.5,6.8 77.9,7.2 78.2,7.6 C78.5,8 78.6,8.5 78.6,9.1 C78.6,10 78.2,10.8 77.5,11.3 C76.8,11.8 75.8,12.1 74.6,12.1 C73.8,12.1 73.1,12 72.4,11.7 C71.7,11.4 71.2,11 70.8,10.5 C70.4,10 70.2,9.4 70.2,8.7 L71.7,8.7 C71.7,9.4 72,9.9 72.5,10.3 C73,10.7 73.7,10.9 74.5,10.9 C75.3,10.9 75.9,10.7 76.3,10.4 C76.7,10.1 76.9,9.6 76.9,9.1 C76.9,8.6 76.7,8.1 76.3,7.8 C75.9,7.5 75.4,7.2 74.4,6.9 Z" id="Shape"></path>
                    <path d="M83.8,12.2 C82.7,12.2 81.7,11.8 81,11.1 C80.3,10.4 79.9,9.3 79.9,8.1 L79.9,7.8 C79.9,7 80.1,6.2 80.4,5.6 C80.7,5 81.2,4.4 81.7,4.1 C82.3,3.7 82.9,3.5 83.6,3.5 C84.7,3.5 85.6,3.9 86.2,4.6 C86.8,5.3 87.1,6.4 87.1,7.7 L87.1,8.3 L81.4,8.3 C81.4,9.1 81.7,9.8 82.1,10.3 C82.6,10.8 83.2,11.1 83.9,11.1 C84.4,11.1 84.8,11 85.2,10.8 C85.6,10.6 85.9,10.3 86.1,10 L87,10.7 C86.3,11.6 85.2,12.2 83.8,12.2 Z M83.6,4.6 C83,4.6 82.5,4.8 82.1,5.2 C81.7,5.6 81.5,6.2 81.4,7 L85.6,7 L85.6,6.9 C85.6,6.2 85.4,5.6 85,5.2 C84.7,4.8 84.2,4.6 83.6,4.6 Z" id="Shape"></path>
                </g>
                <g id="Group" transform="translate(143.000000, 241.000000)" fill-rule="nonzero" fill="#0A7C83">
                    <path d="M4.9,1.8 C4.7,1.8 4.4,1.7 4.2,1.7 C3.3,1.7 2.6,2.1 2.3,2.9 L2.3,8.9 L0.9,8.9 L0.9,0.4 L2.3,0.4 L2.3,1.4 C2.8,0.6 3.4,0.3 4.3,0.3 C4.6,0.3 4.8,0.3 4.9,0.4 L4.9,1.8 Z" id="Shape"></path>
                </g>
                <g id="Group" transform="translate(148.000000, 241.000000)" fill-rule="nonzero" fill="#0A7C83">
                    <polygon id="Shape" points="4.3 7 6.4 0.5 7.9 0.5 4.9 9 3.8 9 0.7 0.5 2.2 0.5"></polygon>
                </g>
                <g id="Group" transform="translate(156.000000, 238.000000)" fill-rule="nonzero" fill="#0A7C83">
                    <path d="M4.6,12.2 C3.5,12.2 2.5,11.8 1.8,11.1 C1.1,10.4 0.7,9.3 0.7,8.1 L0.7,7.8 C0.7,7 0.9,6.2 1.2,5.6 C1.5,5 2,4.4 2.5,4.1 C3.1,3.7 3.7,3.5 4.4,3.5 C5.5,3.5 6.4,3.9 7,4.6 C7.6,5.3 7.9,6.4 7.9,7.7 L7.9,8.3 L2.2,8.3 C2.2,9.1 2.5,9.8 2.9,10.3 C3.4,10.8 4,11.1 4.7,11.1 C5.2,11.1 5.6,11 6,10.8 C6.4,10.6 6.7,10.3 6.9,10 L7.8,10.7 C7.1,11.6 6.1,12.2 4.6,12.2 Z M4.5,4.6 C3.9,4.6 3.4,4.8 3,5.2 C2.6,5.6 2.4,6.2 2.3,7 L6.5,7 L6.5,6.9 C6.5,6.2 6.3,5.6 5.9,5.2 C5.5,4.8 5.1,4.6 4.5,4.6 Z" id="Shape"></path>
                    <path d="M13.7,4.8 C13.5,4.8 13.2,4.7 13,4.7 C12.1,4.7 11.4,5.1 11.1,5.9 L11.1,11.9 L9.7,11.9 L9.7,3.4 L11.1,3.4 L11.1,4.4 C11.6,3.6 12.2,3.3 13.1,3.3 C13.4,3.3 13.6,3.3 13.7,3.4 L13.7,4.8 Z" id="Shape"></path>
                    <polygon id="Shape" points="18 7.8 14.2 7.8 14.2 6.6 18 6.6"></polygon>
                    <path d="M26.4,7.1 C26.4,8.8 26.1,10.1 25.5,10.9 C24.9,11.7 24,12.1 22.8,12.1 C21.6,12.1 20.7,11.7 20.1,10.9 C19.5,10.1 19.2,8.9 19.2,7.3 L19.2,5.4 C19.2,3.7 19.5,2.5 20.1,1.7 C20.7,0.9 21.6,0.5 22.8,0.5 C24,0.5 24.9,0.9 25.5,1.7 C26.1,2.5 26.4,3.7 26.4,5.3 L26.4,7.1 Z M25,5.2 C25,4 24.8,3.1 24.5,2.5 C24.2,1.9 23.6,1.7 22.9,1.7 C22.2,1.7 21.6,2 21.3,2.5 C21,3.1 20.8,3.9 20.8,5.1 L20.8,7.4 C20.8,8.6 21,9.5 21.3,10.1 C21.7,10.7 22.2,11 22.9,11 C23.6,11 24.1,10.7 24.5,10.2 C24.8,9.6 25,8.8 25,7.6 L25,5.2 Z" id="Shape"></path>
                    <path d="M33.9,0.6 L33.9,1.8 L33.6,1.8 C32.5,1.8 31.6,2.2 30.9,2.8 C30.2,3.4 29.8,4.4 29.7,5.5 C30.3,4.8 31.1,4.5 32.2,4.5 C33.2,4.5 34,4.8 34.6,5.5 C35.2,6.2 35.5,7.1 35.5,8.2 C35.5,9.4 35.2,10.3 34.5,11 C33.9,11.7 33,12.1 31.9,12.1 C30.8,12.1 29.9,11.7 29.3,10.8 C28.6,10 28.3,8.9 28.3,7.6 L28.3,7 C28.3,4.9 28.7,3.3 29.6,2.2 C30.5,1.1 31.8,0.5 33.6,0.5 L33.9,0.5 L33.9,0.6 Z M32,5.7 C31.5,5.7 31,5.8 30.6,6.1 C30.2,6.4 29.9,6.8 29.7,7.2 L29.7,7.7 C29.7,8.6 29.9,9.4 30.3,10 C30.7,10.6 31.2,10.9 31.9,10.9 C32.6,10.9 33.1,10.7 33.4,10.2 C33.8,9.7 34,9.1 34,8.3 C34,7.5 33.8,6.9 33.4,6.4 C33.2,6 32.7,5.7 32,5.7 Z" id="Shape"></path>
                </g>
                <path d="M611.9,335 L0,335" id="Stroke-8-Copy-4" stroke="#E0E0E0"></path>
                <g id="Group" transform="translate(287.000000, 297.000000)" fill-rule="nonzero" fill="#616262">
                    <polygon id="Shape" points="1.8 10.8 7.2 10.8 7.2 12 0.3 12 0.3 0.6 1.8 0.6"></polygon>
                    <path d="M8.3,7.7 C8.3,6.9 8.5,6.1 8.8,5.5 C9.1,4.8 9.6,4.3 10.2,4 C10.8,3.6 11.4,3.5 12.2,3.5 C13.4,3.5 14.3,3.9 15,4.7 C15.7,5.5 16.1,6.6 16.1,7.9 L16.1,8 C16.1,8.8 15.9,9.6 15.6,10.2 C15.3,10.9 14.8,11.4 14.2,11.7 C13.6,12 12.9,12.2 12.2,12.2 C11.1,12.2 10.1,11.8 9.4,11 C8.7,10.2 8.3,9.1 8.3,7.8 L8.3,7.7 Z M9.8,7.9 C9.8,8.8 10,9.6 10.5,10.2 C10.9,10.8 11.5,11.1 12.2,11.1 C12.9,11.1 13.5,10.8 14,10.2 C14.4,9.6 14.6,8.8 14.6,7.8 C14.6,6.9 14.4,6.1 13.9,5.5 C13.5,4.9 12.9,4.6 12.1,4.6 C11.4,4.6 10.8,4.9 10.4,5.5 C10,6.1 9.8,6.8 9.8,7.9 Z" id="Shape"></path>
                </g>
                <g id="Group" transform="translate(304.000000, 300.000000)" fill-rule="nonzero" fill="#616262">
                    <path d="M4.9,1.8 C4.7,1.8 4.4,1.7 4.2,1.7 C3.3,1.7 2.6,2.1 2.3,2.9 L2.3,8.9 L0.9,8.9 L0.9,0.4 L2.3,0.4 L2.3,1.4 C2.8,0.6 3.4,0.3 4.3,0.3 C4.6,0.3 4.8,0.3 4.9,0.4 L4.9,1.8 L4.9,1.8 Z" id="Shape"></path>
                </g>
                <g id="Group" transform="translate(309.000000, 297.000000)" fill-rule="nonzero" fill="#616262">
                    <path d="M4.6,12.2 C3.5,12.2 2.5,11.8 1.8,11.1 C1.1,10.4 0.7,9.3 0.7,8.1 L0.7,7.8 C0.7,7 0.9,6.2 1.2,5.6 C1.5,5 2,4.4 2.5,4.1 C3.1,3.7 3.7,3.5 4.4,3.5 C5.5,3.5 6.4,3.9 7,4.6 C7.6,5.3 7.9,6.4 7.9,7.7 L7.9,8.3 L2.2,8.3 C2.2,9.1 2.5,9.8 2.9,10.3 C3.4,10.8 4,11.1 4.7,11.1 C5.2,11.1 5.6,11 6,10.8 C6.4,10.6 6.7,10.3 6.9,10 L7.8,10.7 C7.1,11.6 6,12.2 4.6,12.2 Z M4.4,4.6 C3.8,4.6 3.3,4.8 2.9,5.2 C2.5,5.6 2.3,6.2 2.2,7 L6.4,7 L6.4,6.9 C6.4,6.2 6.2,5.6 5.8,5.2 C5.5,4.8 5,4.6 4.4,4.6 Z" id="Shape"></path>
                    <path d="M10.9,3.5 L10.9,4.4 C11.5,3.7 12.4,3.3 13.4,3.3 C14.6,3.3 15.4,3.8 15.8,4.7 C16.1,4.3 16.4,4 16.9,3.7 C17.4,3.5 17.9,3.3 18.5,3.3 C20.4,3.3 21.3,4.3 21.3,6.2 L21.3,11.9 L20,11.9 L20,6.3 C20,5.7 19.9,5.2 19.6,4.9 C19.3,4.6 18.9,4.5 18.2,4.5 C17.7,4.5 17.2,4.7 16.9,5 C16.5,5.3 16.3,5.8 16.3,6.3 L16.3,11.9 L14.8,11.9 L14.8,6.4 C14.8,5.2 14.2,4.6 13,4.6 C12.1,4.6 11.4,5 11.1,5.8 L11.1,12 L9.7,12 L9.7,3.5 L10.9,3.5 L10.9,3.5 Z" id="Shape"></path>
                    <path d="M27.6,1.3 C27.6,1.1 27.7,0.9 27.8,0.7 C27.9,0.5 28.2,0.5 28.4,0.5 C28.6,0.5 28.9,0.6 29,0.7 C29.1,0.9 29.2,1.1 29.2,1.3 C29.2,1.5 29.1,1.7 29,1.9 C28.9,2.1 28.6,2.1 28.4,2.1 C28.2,2.1 27.9,2 27.8,1.9 C27.6,1.7 27.6,1.5 27.6,1.3 Z M29.1,12 L27.7,12 L27.7,3.5 L29.1,3.5 L29.1,12 Z" id="Shape"></path>
                    <path d="M38.6,7.9 C38.6,9.2 38.3,10.2 37.7,11 C37.1,11.8 36.3,12.2 35.3,12.2 C34.3,12.2 33.5,11.9 32.9,11.2 L32.9,15.3 L31.5,15.3 L31.5,3.6 L32.8,3.6 L32.9,4.5 C33.5,3.8 34.3,3.4 35.4,3.4 C36.4,3.4 37.2,3.8 37.8,4.5 C38.4,5.3 38.7,6.3 38.7,7.7 L38.7,7.9 L38.6,7.9 Z M37.1,7.7 C37.1,6.7 36.9,6 36.5,5.4 C36.1,4.8 35.5,4.6 34.8,4.6 C33.9,4.6 33.3,5 32.8,5.8 L32.8,9.8 C33.2,10.6 33.9,11 34.8,11 C35.5,11 36,10.7 36.5,10.2 C36.9,9.6 37.1,8.8 37.1,7.7 Z" id="Shape"></path>
                    <path d="M45.3,9.8 C45.3,9.4 45.2,9.1 44.9,8.9 C44.6,8.7 44.1,8.5 43.4,8.3 C42.7,8.1 42.1,8 41.7,7.7 C41.3,7.4 41,7.2 40.7,6.9 C40.5,6.6 40.4,6.2 40.4,5.8 C40.4,5.1 40.7,4.5 41.3,4 C41.9,3.5 42.6,3.3 43.5,3.3 C44.5,3.3 45.2,3.5 45.8,4 C46.4,4.5 46.7,5.1 46.7,5.9 L45.2,5.9 C45.2,5.5 45,5.2 44.7,4.9 C44.4,4.6 43.9,4.5 43.4,4.5 C42.9,4.5 42.5,4.6 42.2,4.8 C41.9,5 41.8,5.3 41.8,5.7 C41.8,6 41.9,6.3 42.2,6.5 C42.5,6.7 43,6.8 43.7,7 C44.4,7.2 45,7.4 45.5,7.6 C45.9,7.8 46.3,8.1 46.5,8.4 C46.7,8.7 46.8,9.1 46.8,9.6 C46.8,10.4 46.5,11 45.9,11.4 C45.3,11.9 44.5,12.1 43.5,12.1 C42.8,12.1 42.2,12 41.7,11.7 C41.2,11.5 40.8,11.1 40.5,10.7 C40.2,10.3 40.1,9.8 40.1,9.3 L41.5,9.3 C41.5,9.8 41.7,10.2 42.1,10.5 C42.5,10.8 42.9,10.9 43.5,10.9 C44,10.9 44.5,10.8 44.8,10.6 C45.2,10.4 45.3,10.1 45.3,9.8 Z" id="Shape"></path>
                    <path d="M53.9,11.2 C53.3,11.9 52.5,12.2 51.4,12.2 C50.5,12.2 49.8,11.9 49.3,11.4 C48.8,10.9 48.6,10.1 48.6,9.1 L48.6,3.6 L50,3.6 L50,9.1 C50,10.4 50.5,11 51.6,11 C52.7,11 53.4,10.6 53.8,9.8 L53.8,3.7 L55.2,3.7 L55.2,12.2 L53.8,12.2 L53.9,11.2 Z" id="Shape"></path>
                    <path d="M58.9,3.5 L58.9,4.4 C59.5,3.7 60.4,3.3 61.4,3.3 C62.6,3.3 63.4,3.8 63.8,4.7 C64.1,4.3 64.4,4 64.9,3.7 C65.4,3.5 65.9,3.3 66.5,3.3 C68.4,3.3 69.3,4.3 69.3,6.2 L69.3,11.9 L67.9,11.9 L67.9,6.3 C67.9,5.7 67.8,5.2 67.5,4.9 C67.2,4.6 66.8,4.5 66.1,4.5 C65.6,4.5 65.1,4.7 64.8,5 C64.4,5.3 64.2,5.8 64.2,6.3 L64.2,11.9 L62.7,11.9 L62.7,6.4 C62.7,5.2 62.1,4.6 60.9,4.6 C60,4.6 59.3,5 59,5.8 L59,12 L57.6,12 L57.6,3.5 L58.9,3.5 L58.9,3.5 Z" id="Shape"></path>
                    <path d="M75.1,7.7 C75.1,6.4 75.4,5.4 76,4.6 C76.6,3.8 77.4,3.4 78.4,3.4 C79.4,3.4 80.2,3.7 80.8,4.4 L80.8,0 L82.2,0 L82.2,12 L80.9,12 L80.8,11.1 C80.2,11.8 79.4,12.2 78.4,12.2 C77.4,12.2 76.6,11.8 76,11 C75.4,10.2 75.1,9.2 75.1,7.9 L75.1,7.7 L75.1,7.7 Z M76.6,7.9 C76.6,8.9 76.8,9.6 77.2,10.1 C77.6,10.6 78.1,10.9 78.8,10.9 C79.7,10.9 80.4,10.5 80.8,9.7 L80.8,5.8 C80.4,5 79.7,4.6 78.8,4.6 C78.1,4.6 77.5,4.9 77.1,5.4 C76.8,6 76.6,6.8 76.6,7.9 Z" id="Shape"></path>
                    <path d="M84.1,7.7 C84.1,6.9 84.3,6.1 84.6,5.5 C84.9,4.8 85.4,4.3 86,4 C86.6,3.6 87.2,3.5 88,3.5 C89.2,3.5 90.1,3.9 90.8,4.7 C91.5,5.5 91.9,6.6 91.9,7.9 L91.9,8 C91.9,8.8 91.7,9.6 91.4,10.2 C91.1,10.9 90.6,11.4 90,11.7 C89.4,12 88.7,12.2 88,12.2 C86.9,12.2 85.9,11.8 85.2,11 C84.5,10.2 84.1,9.1 84.1,7.8 L84.1,7.7 Z M85.6,7.9 C85.6,8.8 85.8,9.6 86.3,10.2 C86.7,10.8 87.3,11.1 88,11.1 C88.7,11.1 89.3,10.8 89.8,10.2 C90.2,9.6 90.4,8.8 90.4,7.8 C90.4,6.9 90.2,6.1 89.7,5.5 C89.3,4.9 88.7,4.6 87.9,4.6 C87.2,4.6 86.6,4.9 86.2,5.5 C85.8,6.1 85.6,6.8 85.6,7.9 Z" id="Shape"></path>
                    <polygon id="Shape" points="95.2 12 93.8 12 93.8 0 95.2 0"></polygon>
                    <path d="M97.1,7.7 C97.1,6.9 97.3,6.1 97.6,5.5 C97.9,4.8 98.4,4.3 99,4 C99.6,3.6 100.2,3.5 101,3.5 C102.2,3.5 103.1,3.9 103.8,4.7 C104.5,5.5 104.9,6.6 104.9,7.9 L104.9,8 C104.9,8.8 104.7,9.6 104.4,10.2 C104.1,10.9 103.6,11.4 103,11.7 C102.4,12 101.7,12.2 101,12.2 C99.9,12.2 98.9,11.8 98.2,11 C97.5,10.2 97.1,9.1 97.1,7.8 L97.1,7.7 Z M98.6,7.9 C98.6,8.8 98.8,9.6 99.3,10.2 C99.7,10.8 100.3,11.1 101,11.1 C101.7,11.1 102.3,10.8 102.8,10.2 C103.2,9.6 103.4,8.8 103.4,7.8 C103.4,6.9 103.2,6.1 102.7,5.5 C102.3,4.9 101.7,4.6 100.9,4.6 C100.2,4.6 99.6,4.9 99.2,5.5 C98.8,6.1 98.6,6.8 98.6,7.9 Z" id="Shape"></path>
                    <path d="M110.7,4.8 C110.5,4.8 110.2,4.7 110,4.7 C109.1,4.7 108.4,5.1 108.1,5.9 L108.1,11.9 L106.7,11.9 L106.7,3.4 L108.1,3.4 L108.1,4.4 C108.6,3.6 109.2,3.3 110.1,3.3 C110.4,3.3 110.6,3.3 110.7,3.4 L110.7,4.8 L110.7,4.8 Z" id="Shape"></path>
                    <path d="M120.9,9.8 C120.9,9.4 120.8,9.1 120.5,8.9 C120.2,8.7 119.7,8.5 119,8.3 C118.3,8.1 117.7,8 117.3,7.7 C116.9,7.4 116.6,7.2 116.3,6.9 C116.1,6.6 116,6.2 116,5.8 C116,5.1 116.3,4.5 116.9,4 C117.5,3.5 118.2,3.3 119.1,3.3 C120.1,3.3 120.8,3.5 121.4,4 C122,4.5 122.3,5.1 122.3,5.9 L120.8,5.9 C120.8,5.5 120.6,5.2 120.3,4.9 C120,4.6 119.5,4.5 119,4.5 C118.5,4.5 118.1,4.6 117.8,4.8 C117.5,5 117.4,5.3 117.4,5.7 C117.4,6 117.5,6.3 117.8,6.5 C118.1,6.7 118.6,6.8 119.3,7 C120,7.2 120.6,7.4 121.1,7.6 C121.5,7.8 121.9,8.1 122.1,8.4 C122.3,8.7 122.4,9.1 122.4,9.6 C122.4,10.4 122.1,11 121.5,11.4 C120.9,11.9 120.1,12.1 119.1,12.1 C118.4,12.1 117.8,12 117.3,11.7 C116.8,11.5 116.4,11.1 116.1,10.7 C115.8,10.3 115.7,9.8 115.7,9.3 L117.1,9.3 C117.1,9.8 117.3,10.2 117.7,10.5 C118.1,10.8 118.5,10.9 119.1,10.9 C119.6,10.9 120.1,10.8 120.4,10.6 C120.8,10.4 120.9,10.1 120.9,9.8 Z" id="Shape"></path>
                    <path d="M124.3,1.3 C124.3,1.1 124.4,0.9 124.5,0.7 C124.6,0.5 124.9,0.5 125.1,0.5 C125.3,0.5 125.6,0.6 125.7,0.7 C125.8,0.9 125.9,1.1 125.9,1.3 C125.9,1.5 125.8,1.7 125.7,1.9 C125.6,2.1 125.3,2.1 125.1,2.1 C124.9,2.1 124.6,2 124.5,1.9 C124.3,1.7 124.3,1.5 124.3,1.3 Z M125.8,12 L124.4,12 L124.4,3.5 L125.8,3.5 L125.8,12 Z" id="Shape"></path>
                    <path d="M130.1,1.5 L130.1,3.5 L131.7,3.5 L131.7,4.6 L130.1,4.6 L130.1,9.8 C130.1,10.1 130.2,10.4 130.3,10.6 C130.4,10.8 130.7,10.9 131,10.9 C131.2,10.9 131.4,10.9 131.7,10.8 L131.7,12 C131.3,12.1 130.9,12.2 130.6,12.2 C130,12.2 129.5,12 129.1,11.6 C128.7,11.2 128.6,10.7 128.6,9.9 L128.6,4.7 L127.1,4.7 L127.1,3.6 L128.6,3.6 L128.6,1.6 L130.1,1.6 L130.1,1.5 Z" id="Shape"></path>
                    <path d="M142.6,12 C142.5,11.8 142.4,11.5 142.4,11.1 C141.7,11.8 140.9,12.1 140,12.1 C139.2,12.1 138.5,11.9 137.9,11.4 C137.4,10.9 137.1,10.3 137.1,9.6 C137.1,8.7 137.4,8 138.1,7.5 C138.8,7 139.7,6.8 140.9,6.8 L142.3,6.8 L142.3,6.1 C142.3,5.6 142.1,5.2 141.8,4.9 C141.5,4.6 141.1,4.5 140.5,4.5 C140,4.5 139.6,4.6 139.2,4.9 C138.9,5.2 138.7,5.5 138.7,5.8 L137.2,5.8 C137.2,5.4 137.3,5 137.6,4.6 C137.9,4.2 138.3,3.9 138.8,3.7 C139.3,3.5 139.9,3.4 140.5,3.4 C141.5,3.4 142.2,3.6 142.8,4.1 C143.4,4.6 143.6,5.3 143.7,6.1 L143.7,10 C143.7,10.8 143.8,11.4 144,11.9 L144,12 L142.6,12 Z M140.2,10.9 C140.7,10.9 141.1,10.8 141.5,10.5 C141.9,10.2 142.2,10 142.4,9.6 L142.4,7.9 L141.3,7.9 C139.5,7.9 138.6,8.4 138.6,9.5 C138.6,10 138.8,10.3 139.1,10.6 C139.3,10.8 139.7,10.9 140.2,10.9 Z" id="Shape"></path>
                    <path d="M147.4,3.5 L147.4,4.4 C148,3.7 148.9,3.3 149.9,3.3 C151.1,3.3 151.9,3.8 152.3,4.7 C152.6,4.3 152.9,4 153.4,3.7 C153.9,3.5 154.4,3.3 155,3.3 C156.9,3.3 157.8,4.3 157.8,6.2 L157.8,11.9 L156.4,11.9 L156.4,6.3 C156.4,5.7 156.3,5.2 156,4.9 C155.7,4.6 155.3,4.5 154.6,4.5 C154.1,4.5 153.6,4.7 153.3,5 C152.9,5.3 152.7,5.8 152.7,6.3 L152.7,11.9 L151.2,11.9 L151.2,6.4 C151.2,5.2 150.6,4.6 149.4,4.6 C148.5,4.6 147.8,5 147.5,5.8 L147.5,12 L146,12 L146,3.5 L147.4,3.5 L147.4,3.5 Z" id="Shape"></path>
                    <path d="M163.6,12.2 C162.5,12.2 161.5,11.8 160.8,11.1 C160.1,10.4 159.7,9.3 159.7,8.1 L159.7,7.8 C159.7,7 159.9,6.2 160.2,5.6 C160.5,5 161,4.4 161.5,4.1 C162.1,3.7 162.7,3.5 163.4,3.5 C164.5,3.5 165.4,3.9 166,4.6 C166.6,5.3 166.9,6.4 166.9,7.7 L166.9,8.3 L161.2,8.3 C161.2,9.1 161.5,9.8 161.9,10.3 C162.4,10.8 163,11.1 163.7,11.1 C164.2,11.1 164.6,11 165,10.8 C165.4,10.6 165.7,10.3 165.9,10 L166.8,10.7 C166,11.6 165,12.2 163.6,12.2 Z M163.4,4.6 C162.8,4.6 162.3,4.8 161.9,5.2 C161.5,5.6 161.3,6.2 161.2,7 L165.4,7 L165.4,6.9 C165.4,6.2 165.2,5.6 164.8,5.2 C164.5,4.8 164,4.6 163.4,4.6 Z" id="Shape"></path>
                    <path d="M170.5,1.5 L170.5,3.5 L172.1,3.5 L172.1,4.6 L170.5,4.6 L170.5,9.8 C170.5,10.1 170.6,10.4 170.7,10.6 C170.8,10.8 171.1,10.9 171.4,10.9 C171.6,10.9 171.8,10.9 172.1,10.8 L172.1,12 C171.7,12.1 171.3,12.2 171,12.2 C170.4,12.2 169.9,12 169.5,11.6 C169.1,11.2 169,10.7 169,9.9 L169,4.7 L167.5,4.7 L167.5,3.6 L169,3.6 L169,1.6 L170.5,1.6 L170.5,1.5 Z" id="Shape"></path>
                </g>
                <g id="Group" transform="translate(55.000000, 298.000000)" fill-rule="nonzero" fill="#0A7C83">
                    <polygon id="Shape" points="2.3 0.6 6 9.9 9.7 0.6 11.6 0.6 11.6 12 10.1 12 10.1 7.6 10.2 2.8 6.5 12 5.4 12 1.7 2.8 1.8 7.6 1.8 12 0.3 12 0.3 0.6"></polygon>
                    <path d="M16.8,9.9 L18.8,3.6 L20.3,3.6 L16.9,13.4 C16.4,14.8 15.5,15.5 14.4,15.5 L14.1,15.5 L13.6,15.4 L13.6,14.2 L14,14.2 C14.5,14.2 14.9,14.1 15.1,13.9 C15.3,13.7 15.6,13.3 15.8,12.8 L16.1,11.9 L13.1,3.5 L14.7,3.5 L16.8,9.9 Z" id="Shape"></path>
                    <path d="M34.2,8.4 C34.1,9.6 33.6,10.5 32.9,11.2 C32.2,11.9 31.2,12.2 29.9,12.2 C28.6,12.2 27.5,11.7 26.7,10.8 C25.9,9.8 25.5,8.5 25.5,6.9 L25.5,5.8 C25.5,4.7 25.7,3.8 26.1,3 C26.5,2.2 27,1.6 27.7,1.2 C28.4,0.8 29.2,0.6 30.1,0.6 C31.3,0.6 32.3,0.9 33,1.6 C33.7,2.3 34.2,3.2 34.3,4.4 L32.8,4.4 C32.7,3.5 32.4,2.8 32,2.4 C31.6,2 31,1.8 30.2,1.8 C29.2,1.8 28.5,2.2 27.9,2.9 C27.4,3.6 27.1,4.6 27.1,5.9 L27.1,7 C27.1,8.2 27.4,9.2 27.9,9.9 C28.4,10.6 29.1,11 30.1,11 C30.9,11 31.6,10.8 32,10.4 C32.4,10 32.7,9.4 32.9,8.4 L34.2,8.4 Z" id="Shape"></path>
                    <polygon id="Shape" points="37.6 12 36.2 12 36.2 0 37.6 0"></polygon>
                    <path d="M39.5,7.7 C39.5,6.9 39.7,6.1 40,5.5 C40.3,4.8 40.8,4.3 41.4,4 C42,3.6 42.6,3.5 43.4,3.5 C44.6,3.5 45.5,3.9 46.2,4.7 C46.9,5.5 47.3,6.6 47.3,7.9 L47.3,8 C47.3,8.8 47.1,9.6 46.8,10.2 C46.5,10.9 46,11.4 45.4,11.7 C44.8,12 44.1,12.2 43.4,12.2 C42.3,12.2 41.3,11.8 40.6,11 C39.9,10.2 39.5,9.1 39.5,7.8 L39.5,7.7 Z M41,7.9 C41,8.8 41.2,9.6 41.7,10.2 C42.1,10.8 42.7,11.1 43.4,11.1 C44.1,11.1 44.7,10.8 45.2,10.2 C45.6,9.6 45.8,8.8 45.8,7.8 C45.8,6.9 45.6,6.1 45.1,5.5 C44.7,4.9 44.1,4.6 43.3,4.6 C42.6,4.6 42,4.9 41.6,5.5 C41.2,6.1 41,6.8 41,7.9 Z" id="Shape"></path>
                    <path d="M54.2,11.2 C53.6,11.9 52.8,12.2 51.7,12.2 C50.8,12.2 50.1,11.9 49.6,11.4 C49.1,10.9 48.9,10.1 48.9,9.1 L48.9,3.6 L50.3,3.6 L50.3,9.1 C50.3,10.4 50.8,11 51.9,11 C53,11 53.7,10.6 54.1,9.8 L54.1,3.7 L55.5,3.7 L55.5,12.2 L54.1,12.2 L54.2,11.2 Z" id="Shape"></path>
                    <path d="M57.5,7.7 C57.5,6.4 57.8,5.4 58.4,4.6 C59,3.8 59.8,3.4 60.8,3.4 C61.8,3.4 62.6,3.7 63.2,4.4 L63.2,0 L64.6,0 L64.6,12 L63.3,12 L63.2,11.1 C62.6,11.8 61.8,12.2 60.8,12.2 C59.8,12.2 59,11.8 58.4,11 C57.8,10.2 57.5,9.2 57.5,7.9 L57.5,7.7 L57.5,7.7 Z M58.9,7.9 C58.9,8.9 59.1,9.6 59.5,10.1 C59.9,10.6 60.4,10.9 61.1,10.9 C62,10.9 62.7,10.5 63.1,9.7 L63.1,5.8 C62.7,5 62,4.6 61.1,4.6 C60.4,4.6 59.8,4.9 59.4,5.4 C59.1,6 58.9,6.8 58.9,7.9 Z" id="Shape"></path>
                    <path d="M74.4,6.9 C73.1,6.5 72.2,6.1 71.6,5.5 C71,4.9 70.7,4.3 70.7,3.5 C70.7,2.6 71.1,1.9 71.8,1.3 C72.5,0.7 73.4,0.4 74.6,0.4 C75.4,0.4 76.1,0.6 76.7,0.9 C77.3,1.2 77.8,1.6 78.1,2.1 C78.4,2.6 78.6,3.2 78.6,3.8 L77.1,3.8 C77.1,3.1 76.9,2.6 76.4,2.2 C75.9,1.8 75.3,1.6 74.5,1.6 C73.8,1.6 73.2,1.8 72.8,2.1 C72.4,2.4 72.2,2.9 72.2,3.5 C72.2,4 72.4,4.4 72.8,4.7 C73.2,5 73.9,5.3 74.8,5.6 C75.7,5.9 76.5,6.2 77,6.5 C77.5,6.8 77.9,7.2 78.2,7.6 C78.5,8 78.6,8.5 78.6,9.1 C78.6,10 78.2,10.8 77.5,11.3 C76.8,11.8 75.8,12.1 74.6,12.1 C73.8,12.1 73.1,12 72.4,11.7 C71.7,11.4 71.2,11 70.8,10.5 C70.4,10 70.2,9.4 70.2,8.7 L71.7,8.7 C71.7,9.4 72,9.9 72.5,10.3 C73,10.7 73.7,10.9 74.5,10.9 C75.3,10.9 75.9,10.7 76.3,10.4 C76.7,10.1 76.9,9.6 76.9,9.1 C76.9,8.6 76.7,8.1 76.3,7.8 C75.9,7.5 75.4,7.2 74.4,6.9 Z" id="Shape"></path>
                    <path d="M83.8,12.2 C82.7,12.2 81.7,11.8 81,11.1 C80.3,10.4 79.9,9.3 79.9,8.1 L79.9,7.8 C79.9,7 80.1,6.2 80.4,5.6 C80.7,5 81.2,4.4 81.7,4.1 C82.3,3.7 82.9,3.5 83.6,3.5 C84.7,3.5 85.6,3.9 86.2,4.6 C86.8,5.3 87.1,6.4 87.1,7.7 L87.1,8.3 L81.4,8.3 C81.4,9.1 81.7,9.8 82.1,10.3 C82.6,10.8 83.2,11.1 83.9,11.1 C84.4,11.1 84.8,11 85.2,10.8 C85.6,10.6 85.9,10.3 86.1,10 L87,10.7 C86.3,11.6 85.2,12.2 83.8,12.2 Z M83.6,4.6 C83,4.6 82.5,4.8 82.1,5.2 C81.7,5.6 81.5,6.2 81.4,7 L85.6,7 L85.6,6.9 C85.6,6.2 85.4,5.6 85,5.2 C84.7,4.8 84.2,4.6 83.6,4.6 Z" id="Shape"></path>
                </g>
                <g id="Group" transform="translate(143.000000, 301.000000)" fill-rule="nonzero" fill="#0A7C83">
                    <path d="M4.9,1.8 C4.7,1.8 4.4,1.7 4.2,1.7 C3.3,1.7 2.6,2.1 2.3,2.9 L2.3,8.9 L0.9,8.9 L0.9,0.4 L2.3,0.4 L2.3,1.4 C2.8,0.6 3.4,0.3 4.3,0.3 C4.6,0.3 4.8,0.3 4.9,0.4 L4.9,1.8 Z" id="Shape"></path>
                </g>
                <g id="Group" transform="translate(148.000000, 301.000000)" fill-rule="nonzero" fill="#0A7C83">
                    <polygon id="Shape" points="4.3 7 6.4 0.5 7.9 0.5 4.9 9 3.8 9 0.7 0.5 2.2 0.5"></polygon>
                </g>
                <g id="Group" transform="translate(156.000000, 298.000000)" fill-rule="nonzero" fill="#0A7C83">
                    <path d="M4.6,12.2 C3.5,12.2 2.5,11.8 1.8,11.1 C1.1,10.4 0.7,9.3 0.7,8.1 L0.7,7.8 C0.7,7 0.9,6.2 1.2,5.6 C1.5,5 2,4.4 2.5,4.1 C3.1,3.7 3.7,3.5 4.4,3.5 C5.5,3.5 6.4,3.9 7,4.6 C7.6,5.3 7.9,6.4 7.9,7.7 L7.9,8.3 L2.2,8.3 C2.2,9.1 2.5,9.8 2.9,10.3 C3.4,10.8 4,11.1 4.7,11.1 C5.2,11.1 5.6,11 6,10.8 C6.4,10.6 6.7,10.3 6.9,10 L7.8,10.7 C7.1,11.6 6.1,12.2 4.6,12.2 Z M4.5,4.6 C3.9,4.6 3.4,4.8 3,5.2 C2.6,5.6 2.4,6.2 2.3,7 L6.5,7 L6.5,6.9 C6.5,6.2 6.3,5.6 5.9,5.2 C5.5,4.8 5.1,4.6 4.5,4.6 Z" id="Shape"></path>
                    <path d="M13.7,4.8 C13.5,4.8 13.2,4.7 13,4.7 C12.1,4.7 11.4,5.1 11.1,5.9 L11.1,11.9 L9.7,11.9 L9.7,3.4 L11.1,3.4 L11.1,4.4 C11.6,3.6 12.2,3.3 13.1,3.3 C13.4,3.3 13.6,3.3 13.7,3.4 L13.7,4.8 Z" id="Shape"></path>
                    <polygon id="Shape" points="18 7.8 14.2 7.8 14.2 6.6 18 6.6"></polygon>
                    <path d="M26.4,7.1 C26.4,8.8 26.1,10.1 25.5,10.9 C24.9,11.7 24,12.1 22.8,12.1 C21.6,12.1 20.7,11.7 20.1,10.9 C19.5,10.1 19.2,8.9 19.2,7.3 L19.2,5.4 C19.2,3.7 19.5,2.5 20.1,1.7 C20.7,0.9 21.6,0.5 22.8,0.5 C24,0.5 24.9,0.9 25.5,1.7 C26.1,2.5 26.4,3.7 26.4,5.3 L26.4,7.1 Z M25,5.2 C25,4 24.8,3.1 24.5,2.5 C24.2,1.9 23.6,1.7 22.9,1.7 C22.2,1.7 21.6,2 21.3,2.5 C21,3.1 20.8,3.9 20.8,5.1 L20.8,7.4 C20.8,8.6 21,9.5 21.3,10.1 C21.7,10.7 22.2,11 22.9,11 C23.6,11 24.1,10.7 24.5,10.2 C24.8,9.6 25,8.8 25,7.6 L25,5.2 Z" id="Shape"></path>
                    <path d="M33.9,0.6 L33.9,1.8 L33.6,1.8 C32.5,1.8 31.6,2.2 30.9,2.8 C30.2,3.4 29.8,4.4 29.7,5.5 C30.3,4.8 31.1,4.5 32.2,4.5 C33.2,4.5 34,4.8 34.6,5.5 C35.2,6.2 35.5,7.1 35.5,8.2 C35.5,9.4 35.2,10.3 34.5,11 C33.9,11.7 33,12.1 31.9,12.1 C30.8,12.1 29.9,11.7 29.3,10.8 C28.6,10 28.3,8.9 28.3,7.6 L28.3,7 C28.3,4.9 28.7,3.3 29.6,2.2 C30.5,1.1 31.8,0.5 33.6,0.5 L33.9,0.5 L33.9,0.6 Z M32,5.7 C31.5,5.7 31,5.8 30.6,6.1 C30.2,6.4 29.9,6.8 29.7,7.2 L29.7,7.7 C29.7,8.6 29.9,9.4 30.3,10 C30.7,10.6 31.2,10.9 31.9,10.9 C32.6,10.9 33.1,10.7 33.4,10.2 C33.8,9.7 34,9.1 34,8.3 C34,7.5 33.8,6.9 33.4,6.4 C33.2,6 32.7,5.7 32,5.7 Z" id="Shape"></path>
                </g>
                <g id="Group" transform="translate(51.000000, 5.000000)" fill-rule="nonzero" fill="#424243">
                    <polygon id="Shape" points="7.9 10 6.2 10 1.8 2.9 1.8 10 0 10 0 0 1.7 0 6.2 7.1 6.2 0 7.9 0 7.9 10"></polygon>
                </g>
                <g id="Group" transform="translate(60.000000, 5.000000)" fill-rule="nonzero" fill="#424243">
                    <path d="M6.6,7.7 L2.7,7.7 L2,10 L0.2,10 L4,0 L5.6,0 L9.4,10 L7.6,10 L6.6,7.7 Z M3.3,6.3 L6.2,6.3 L4.8,2.2 L3.3,6.3 Z" id="Shape"></path>
                    <polygon id="Shape" points="12.7 0 15.6 7.6 18.5 0 20.7 0 20.7 10 19 10 19 6.7 19.2 2.3 16.2 10 15 10 12.1 2.3 12.3 6.7 12.3 10 10.6 10 10.6 0"></polygon>
                    <polygon id="Shape" points="28.7 5.6 24.6 5.6 24.6 8.7 29.4 8.7 29.4 10 22.9 10 22.9 0 29.4 0 29.4 1.4 24.7 1.4 24.7 4.1 28.8 4.1 28.8 5.6"></polygon>
                </g>
                <g id="Group" transform="translate(286.000000, 5.000000)" fill-rule="nonzero" fill="#616262">
                    <polygon id="Shape" points="8.2 1.4 5.1 1.4 5.1 10 3.4 10 3.4 1.4 0.3 1.4 0.3 0 8.2 0 8.2 1.4"></polygon>
                </g>
                <g id="Group" transform="translate(293.000000, 5.000000)" fill-rule="nonzero" fill="#616262">
                    <path d="M7.2,7.7 L3.3,7.7 L2.5,10 L0.7,10 L4.5,0 L6.1,0 L9.9,10 L8,10 L7.2,7.7 Z M3.8,6.3 L6.7,6.3 L5.3,2.2 L3.8,6.3 Z" id="Shape"></path>
                </g>
                <g id="Group" transform="translate(304.000000, 4.000000)" fill-rule="nonzero" fill="#616262">
                    <path d="M8.2,9.7 C7.8,10.2 7.3,10.5 6.7,10.8 C6.1,11 5.3,11.2 4.5,11.2 C3.7,11.2 2.9,11 2.3,10.6 C1.7,10.2 1.2,9.7 0.8,9 C0.5,8.3 0.3,7.5 0.3,6.5 L0.3,5.7 C0.3,4.2 0.7,3 1.4,2.2 C2.1,1.4 3.1,0.9 4.4,0.9 C5.5,0.9 6.4,1.2 7,1.7 C7.7,2.2 8,3 8.2,4.1 L6.5,4.1 C6.3,2.9 5.6,2.3 4.4,2.3 C3.6,2.3 3,2.6 2.6,3.1 C2.2,3.7 2,4.5 2,5.6 L2,6.4 C2,7.5 2.2,8.3 2.7,8.9 C3.2,9.5 3.8,9.8 4.6,9.8 C5.5,9.8 6.1,9.6 6.5,9.2 L6.5,7.3 L4.4,7.3 L4.4,5.9 L8.2,5.9 L8.2,9.7 L8.2,9.7 Z" id="Shape"></path>
                </g>
                <g id="Group-24" transform="translate(96.000000, 5.000000)" fill-rule="nonzero" fill="#767676">
                    <path d="M7.8,5.1 L5.5,7.3 L5.5,0.3 L3.7,0.3 L3.7,7.3 L1.4,5.1 L0.2,6.4 L4,10 C4.2,10.2 4.4,10.2 4.6,10.2 C4.8,10.2 5,10.1 5.2,10 L9,6.4 L7.8,5.1 Z" id="Fill-22"></path>
                </g>
                <path d="M18.5,70 C17.7,70 17,69.3 17,68.5 L17,56.5 C17,55.7 17.7,55 18.5,55 L30.5,55 C31.3,55 32,55.7 32,56.5 L32,68.5 C32,69.3 31.3,70 30.5,70 L18.5,70 Z" id="Fill-31" stroke="#BDBDBD" fill="#FFFFFF" fill-rule="nonzero"></path>
                <path d="M18.5,311 C17.7,311 17,310.3 17,309.5 L17,297.5 C17,296.7 17.7,296 18.5,296 L30.5,296 C31.3,296 32,296.7 32,297.5 L32,309.5 C32,310.3 31.3,311 30.5,311 L18.5,311 Z" id="Fill-31-Copy" stroke="#BDBDBD" fill="#FFFFFF" fill-rule="nonzero"></path>
                <path d="M18.5,190 C17.7,190 17,189.3 17,188.5 L17,176.5 C17,175.7 17.7,175 18.5,175 L30.5,175 C31.3,175 32,175.7 32,176.5 L32,188.5 C32,189.3 31.3,190 30.5,190 L18.5,190 Z" id="Fill-31-Copy-2" stroke="#BDBDBD" fill="#FFFFFF" fill-rule="nonzero"></path>
                <g id="Indeterminate" transform="translate(17.000000, 0.000000)">
                    <g id="Rectangle-Copy-3">
                        <path d="M2,0 L14,0 C15.1,0 16,0.9 16,2 L16,14 C16,15.1 15.1,16 14,16 L2,16 C0.9,16 0,15.1 0,14 L0,2 C0,0.9 0.9,0 2,0 Z" id="path-5" fill="#FFFFFF" fill-rule="nonzero"></path>
                        <path d="M2.5,0.5 L13.5,0.5 C14.6,0.5 15.5,1.4 15.5,2.5 L15.5,13.5 C15.5,14.6 14.6,15.5 13.5,15.5 L2.5,15.5 C1.4,15.5 0.5,14.6 0.5,13.5 L0.5,2.5 C0.5,1.4 1.4,0.5 2.5,0.5 Z" id="Shape" stroke="#0C7C84"></path>
                    </g>
                    <path d="M4,8 L12,8" id="Stroke-19-Copy-2" stroke="#0C7481" stroke-width="3" stroke-linecap="round"></path>
                </g>
                <g id="Selected" transform="translate(18.000000, 235.000000)">
                    <g id="Rectangle-Copy-3_1_">
                        <path d="M2,0 L14,0 C15.1,0 16,0.9 16,2 L16,14 C16,15.1 15.1,16 14,16 L2,16 C0.9,16 0,15.1 0,14 L0,2 C0,0.9 0.9,0 2,0 Z" id="path-6" fill="#FFFFFF" fill-rule="nonzero"></path>
                        <path d="M2.5,0.5 L13.5,0.5 C14.6,0.5 15.5,1.4 15.5,2.5 L15.5,13.5 C15.5,14.6 14.6,15.5 13.5,15.5 L2.5,15.5 C1.4,15.5 0.5,14.6 0.5,13.5 L0.5,2.5 C0.5,1.4 1.4,0.5 2.5,0.5 Z" id="Shape" stroke="#0C7C84"></path>
                    </g>
                    <path d="M6.8,12.4 C6.8,12.4 6.8,12.4 6.8,12.4 C7.2,12.4 7.6,12.2 7.8,11.9 L12.8,5.7 C12.9,5.4 13,5.2 13,4.9 C13,4.5 12.8,4.2 12.5,3.9 C12.3,3.7 12,3.6 11.7,3.6 C11.3,3.6 11,3.8 10.7,4.1 L6.6,9.3 L5.1,7.7 C4.9,7.5 4.6,7.4 4.2,7.4 C3.8,7.4 3.6,7.5 3.4,7.7 C3.2,7.9 3,8.3 3,8.6 C3,8.9 3.1,9.2 3.4,9.5 L5.9,12 C6.1,12.2 6.4,12.4 6.8,12.4" id="Fill-23-Copy" fill="#0C7C84" fill-rule="nonzero"></path>
                </g>
                <g id="Selected-Copy-2" transform="translate(18.000000, 114.000000)">
                    <g id="Rectangle-Copy-3_2_">
                        <path d="M2,0 L14,0 C15.1,0 16,0.9 16,2 L16,14 C16,15.1 15.1,16 14,16 L2,16 C0.9,16 0,15.1 0,14 L0,2 C0,0.9 0.9,0 2,0 Z" id="path-7" fill="#FFFFFF" fill-rule="nonzero"></path>
                        <path d="M2.5,0.5 L13.5,0.5 C14.6,0.5 15.5,1.4 15.5,2.5 L15.5,13.5 C15.5,14.6 14.6,15.5 13.5,15.5 L2.5,15.5 C1.4,15.5 0.5,14.6 0.5,13.5 L0.5,2.5 C0.5,1.4 1.4,0.5 2.5,0.5 Z" id="Shape" stroke="#0C7C84"></path>
                    </g>
                    <path d="M6.8,12.4 C6.8,12.4 6.8,12.4 6.8,12.4 C7.2,12.4 7.6,12.2 7.8,11.9 L12.8,5.7 C12.9,5.4 13,5.2 13,4.9 C13,4.5 12.8,4.2 12.5,3.9 C12.3,3.7 12,3.6 11.7,3.6 C11.3,3.6 11,3.8 10.7,4.1 L6.6,9.3 L5.1,7.7 C4.9,7.5 4.6,7.4 4.2,7.4 C3.8,7.4 3.6,7.5 3.4,7.7 C3.2,7.9 3,8.3 3,8.6 C3,8.9 3.1,9.2 3.4,9.5 L5.9,12 C6.1,12.2 6.4,12.4 6.8,12.4" id="Fill-23-Copy_1_" fill="#0C7C84" fill-rule="nonzero"></path>
                </g>
            </g>
        </g>
        <g id="checkbox-indeterminate-image"></g>
    </g>
</svg>