<?xml version="1.0" encoding="UTF-8" standalone="no"?>
<svg width="610px" height="314px" viewBox="0 0 610 314" version="1.1" xmlns="http://www.w3.org/2000/svg" xmlns:xlink="http://www.w3.org/1999/xlink">
    <!-- Generator: Sketch 47.1 (45422) - http://www.bohemiancoding.com/sketch -->
    <title>checkbox-required-group-image</title>
    <desc>Created with Sketch.</desc>
    <defs></defs>
    <g id="Page-1" stroke="none" stroke-width="1" fill="none" fill-rule="evenodd">
        <g id="checkbox-required-group-image">
            <g transform="translate(153.000000, 75.000000)" id="Checkbox-Group">
                <g>
                    <g id="Checkbox" transform="translate(14.000000, 116.000000)" fill-rule="nonzero">
                        <g id="Group" transform="translate(23.000000, 3.000000)" fill="#424242">
                            <path d="M10.1,6.7 C10.1,7.8 9.9,8.8 9.5,9.6 C9.1,10.4 8.6,11.1 7.9,11.5 C7.2,11.9 6.4,12.2 5.5,12.2 C4.6,12.2 3.8,12 3.1,11.5 C2.4,11.1 1.9,10.4 1.5,9.6 C1.1,8.8 0.9,7.8 0.9,6.8 L0.9,6 C0.9,4.9 1.1,3.9 1.5,3.1 C1.9,2.3 2.4,1.6 3.1,1.2 C3.8,0.8 4.6,0.5 5.5,0.5 C6.4,0.5 7.2,0.7 7.9,1.2 C8.6,1.7 9.1,2.3 9.5,3.1 C9.9,3.9 10.1,4.9 10.1,6 L10.1,6.7 Z M8.6,5.9 C8.6,4.6 8.3,3.5 7.8,2.8 C7.3,2.1 6.5,1.7 5.5,1.7 C4.6,1.7 3.8,2.1 3.3,2.8 C2.8,3.5 2.5,4.5 2.5,5.8 L2.5,6.6 C2.5,7.9 2.8,8.9 3.3,9.7 C3.8,10.4 4.6,10.8 5.6,10.8 C6.6,10.8 7.3,10.4 7.8,9.7 C8.3,9 8.6,8 8.6,6.7 L8.6,5.9 Z" id="Shape"></path>
                        </g>
                        <g id="Group" transform="translate(35.000000, 3.000000)" fill="#424242">
                            <path d="M7.2,7.9 C7.2,9.2 6.9,10.2 6.3,11 C5.7,11.8 4.9,12.2 3.9,12.2 C2.9,12.2 2.1,11.9 1.5,11.2 L1.5,15.3 L0.1,15.3 L0.1,3.5 L1.4,3.5 L1.5,4.4 C2.1,3.7 2.9,3.3 4,3.3 C5,3.3 5.8,3.7 6.4,4.4 C7,5.2 7.3,6.2 7.3,7.6 L7.3,7.9 L7.2,7.9 Z M5.8,7.7 C5.8,6.7 5.6,6 5.2,5.4 C4.8,4.8 4.2,4.6 3.5,4.6 C2.6,4.6 2,5 1.5,5.8 L1.5,9.8 C1.9,10.6 2.6,11 3.5,11 C4.2,11 4.7,10.7 5.2,10.2 C5.6,9.6 5.8,8.8 5.8,7.7 Z" id="Shape"></path>
                            <path d="M11,1.5 L11,3.5 L12.6,3.5 L12.6,4.6 L11,4.6 L11,9.8 C11,10.1 11.1,10.4 11.2,10.6 C11.3,10.8 11.6,10.9 11.9,10.9 C12.1,10.9 12.3,10.9 12.6,10.8 L12.6,12 C12.2,12.1 11.8,12.2 11.5,12.2 C10.9,12.2 10.4,12 10,11.6 C9.6,11.2 9.5,10.7 9.5,9.9 L9.5,4.7 L8,4.7 L8,3.5 L9.5,3.5 L9.5,1.5 L11,1.5 Z" id="Shape"></path>
                            <path d="M14.3,1.3 C14.3,1.1 14.4,0.9 14.5,0.7 C14.6,0.5 14.9,0.5 15.1,0.5 C15.3,0.5 15.6,0.6 15.7,0.7 C15.9,0.9 16,1.1 16,1.3 C16,1.5 15.9,1.7 15.8,1.9 C15.7,2.1 15.4,2.1 15.2,2.1 C15,2.1 14.7,2 14.5,1.9 C14.4,1.7 14.3,1.5 14.3,1.3 Z M15.9,12 L14.5,12 L14.5,3.5 L15.9,3.5 L15.9,12 Z" id="Shape"></path>
                            <path d="M17.8,7.7 C17.8,6.9 18,6.1 18.3,5.5 C18.6,4.8 19.1,4.3 19.7,4 C20.3,3.6 20.9,3.5 21.7,3.5 C22.9,3.5 23.8,3.9 24.5,4.7 C25.2,5.5 25.6,6.6 25.6,7.9 L25.6,8 C25.6,8.8 25.4,9.6 25.1,10.2 C24.8,10.9 24.3,11.4 23.7,11.7 C23.1,12 22.4,12.2 21.7,12.2 C20.6,12.2 19.6,11.8 18.9,11 C18.2,10.2 17.8,9.1 17.8,7.8 L17.8,7.7 Z M19.2,7.9 C19.2,8.8 19.4,9.6 19.9,10.2 C20.3,10.8 20.9,11.1 21.6,11.1 C22.3,11.1 22.9,10.8 23.4,10.2 C23.8,9.6 24,8.8 24,7.8 C24,6.9 23.8,6.1 23.3,5.5 C22.9,4.9 22.3,4.6 21.5,4.6 C20.8,4.6 20.2,4.9 19.8,5.5 C19.4,6.1 19.2,6.8 19.2,7.9 Z" id="Shape"></path>
                            <path d="M28.7,3.5 L28.7,4.6 C29.3,3.8 30.2,3.4 31.2,3.4 C33,3.4 33.9,4.4 33.9,6.4 L33.9,12 L32.5,12 L32.5,6.4 C32.5,5.8 32.4,5.3 32.1,5 C31.8,4.7 31.4,4.6 30.8,4.6 C30.3,4.6 29.9,4.7 29.6,5 C29.2,5.2 29,5.6 28.8,6 L28.8,12 L27.4,12 L27.4,3.5 L28.7,3.5 Z" id="Shape"></path>
                        </g>
                        <g id="Group" transform="translate(74.000000, 3.000000)" fill="#424242">
                            <path d="M3.1,5.6 L4.2,5.6 C4.9,5.6 5.4,5.4 5.8,5.1 C6.2,4.8 6.4,4.3 6.4,3.7 C6.4,2.4 5.7,1.7 4.4,1.7 C3.8,1.7 3.3,1.9 2.9,2.2 C2.5,2.6 2.3,3 2.3,3.6 L0.9,3.6 C0.9,2.7 1.2,2 1.9,1.4 C2.6,0.8 3.4,0.5 4.4,0.5 C5.5,0.5 6.3,0.8 6.9,1.4 C7.5,2 7.8,2.8 7.8,3.8 C7.8,4.3 7.6,4.8 7.3,5.2 C7,5.6 6.5,6 6,6.2 C6.6,6.4 7.1,6.7 7.4,7.2 C7.7,7.7 7.9,8.2 7.9,8.9 C7.9,9.9 7.6,10.7 6.9,11.3 C6.2,11.9 5.4,12.2 4.3,12.2 C3.2,12.2 2.4,11.9 1.7,11.3 C1,10.7 0.7,10 0.7,9 L2.2,9 C2.2,9.6 2.4,10.1 2.8,10.4 C3.2,10.7 3.7,10.9 4.4,10.9 C5.1,10.9 5.6,10.7 6,10.4 C6.4,10 6.6,9.5 6.6,8.8 C6.6,8.1 6.4,7.6 6,7.3 C5.6,7 5,6.8 4.2,6.8 L3.1,6.8 L3.1,5.6 Z" id="Shape"></path>
                        </g>
                        <path d="M1.5,15 C0.7,15 0,14.3 0,13.5 L0,1.5 C0,0.7 0.7,0 1.5,0 L13.5,0 C14.3,0 15,0.7 15,1.5 L15,13.5 C15,14.3 14.3,15 13.5,15 L1.5,15 Z" id="Fill-60-Copy" stroke="#BDBDBD" fill="#FFFFFF"></path>
                    </g>
                    <g id="Group" transform="translate(0.000000, 47.000000)" fill-rule="nonzero" fill="#CD382F">
                        <polygon id="Shape" points="3.1 4.3 0.7 3.6 1.1 2.4 3.5 3.3 3.4 0.6 4.6 0.6 4.5 3.3 6.8 2.4 7.2 3.6 4.8 4.3 6.3 6.4 5.3 7.1 3.9 5 2.5 7.2 1.5 6.5"></polygon>
                    </g>
                    <g id="Group" transform="translate(12.000000, 47.000000)" fill-rule="nonzero" fill="#333333">
                        <path d="M4.2,6.9 C2.9,6.5 2,6.1 1.4,5.5 C0.8,4.9 0.5,4.3 0.5,3.5 C0.5,2.6 0.9,1.9 1.6,1.3 C2.3,0.7 3.2,0.4 4.4,0.4 C5.2,0.4 5.9,0.6 6.5,0.9 C7.1,1.2 7.6,1.6 7.9,2.1 C8.2,2.6 8.4,3.2 8.4,3.8 L6.9,3.8 C6.9,3.1 6.7,2.6 6.2,2.2 C5.7,1.8 5.1,1.6 4.3,1.6 C3.6,1.6 3,1.8 2.6,2.1 C2.2,2.4 2,3 2,3.5 C2,4 2.2,4.4 2.6,4.7 C3,5 3.7,5.3 4.6,5.6 C5.5,5.9 6.3,6.2 6.8,6.5 C7.3,6.8 7.7,7.2 8,7.6 C8.3,8 8.4,8.5 8.4,9.1 C8.4,10 8,10.8 7.3,11.3 C6.6,11.8 5.6,12.1 4.4,12.1 C3.6,12.1 2.9,12 2.2,11.7 C1.5,11.4 1,11 0.6,10.5 C0.2,10 0,9.4 0,8.7 L1.5,8.7 C1.5,9.4 1.8,9.9 2.3,10.3 C2.8,10.7 3.5,10.9 4.3,10.9 C5.1,10.9 5.7,10.7 6.1,10.4 C6.5,10.1 6.7,9.6 6.7,9.1 C6.7,8.6 6.5,8.1 6.1,7.8 C5.7,7.5 5.2,7.2 4.2,6.9 Z" id="Shape"></path>
                        <path d="M13.7,12.2 C12.6,12.2 11.6,11.8 10.9,11.1 C10.2,10.4 9.8,9.3 9.8,8.1 L9.8,7.8 C9.8,7 10,6.2 10.3,5.6 C10.6,5 11.1,4.4 11.6,4.1 C12.2,3.7 12.8,3.5 13.5,3.5 C14.6,3.5 15.5,3.9 16.1,4.6 C16.7,5.3 17,6.4 17,7.7 L17,8.3 L11.3,8.3 C11.3,9.1 11.6,9.8 12,10.3 C12.5,10.8 13.1,11.1 13.8,11.1 C14.3,11.1 14.7,11 15.1,10.8 C15.5,10.6 15.8,10.3 16,10 L16.9,10.7 C16.2,11.6 15.1,12.2 13.7,12.2 Z M13.6,4.6 C13,4.6 12.5,4.8 12.1,5.2 C11.7,5.6 11.5,6.2 11.4,7 L15.6,7 L15.6,6.9 C15.6,6.2 15.4,5.6 15,5.2 C14.6,4.8 14.2,4.6 13.6,4.6 Z" id="Shape"></path>
                        <polygon id="Shape" points="20.4 12 19 12 19 0 20.4 0"></polygon>
                        <path d="M26.3,12.2 C25.2,12.2 24.2,11.8 23.5,11.1 C22.8,10.4 22.4,9.3 22.4,8.1 L22.4,7.8 C22.4,7 22.6,6.2 22.9,5.6 C23.2,5 23.7,4.4 24.2,4.1 C24.8,3.7 25.4,3.5 26.1,3.5 C27.2,3.5 28.1,3.9 28.7,4.6 C29.3,5.3 29.6,6.4 29.6,7.7 L29.6,8.3 L23.9,8.3 C23.9,9.1 24.2,9.8 24.6,10.3 C25.1,10.8 25.7,11.1 26.4,11.1 C26.9,11.1 27.3,11 27.7,10.8 C28.1,10.6 28.4,10.3 28.6,10 L29.5,10.7 C28.8,11.6 27.7,12.2 26.3,12.2 Z M26.1,4.6 C25.5,4.6 25,4.8 24.6,5.2 C24.2,5.6 24,6.2 23.9,7 L28.1,7 L28.1,6.9 C28.1,6.2 27.9,5.6 27.5,5.2 C27.2,4.8 26.7,4.6 26.1,4.6 Z" id="Shape"></path>
                        <path d="M34.7,11 C35.2,11 35.7,10.8 36.1,10.5 C36.5,10.2 36.7,9.8 36.7,9.3 L38.1,9.3 C38.1,9.8 37.9,10.2 37.6,10.7 C37.3,11.1 36.9,11.5 36.4,11.7 C35.9,12 35.3,12.1 34.8,12.1 C33.6,12.1 32.7,11.7 32.1,10.9 C31.5,10.1 31.1,9.1 31.1,7.7 L31.1,7.5 C31.1,6.7 31.3,5.9 31.6,5.3 C31.9,4.7 32.3,4.2 32.9,3.8 C33.5,3.4 34.1,3.3 34.9,3.3 C35.8,3.3 36.6,3.6 37.3,4.2 C37.9,4.8 38.3,5.5 38.3,6.4 L36.9,6.4 C36.9,5.9 36.7,5.4 36.3,5.1 C35.9,4.7 35.5,4.6 34.9,4.6 C34.2,4.6 33.6,4.9 33.2,5.4 C32.8,5.9 32.6,6.7 32.6,7.7 L32.6,8 C32.6,9 32.8,9.7 33.2,10.2 C33.4,10.7 34,11 34.7,11 Z" id="Shape"></path>
                        <path d="M41.8,1.5 L41.8,3.5 L43.4,3.5 L43.4,4.6 L41.8,4.6 L41.8,9.8 C41.8,10.1 41.9,10.4 42,10.6 C42.1,10.8 42.4,10.9 42.7,10.9 C42.9,10.9 43.1,10.9 43.4,10.8 L43.4,12 C43,12.1 42.6,12.2 42.3,12.2 C41.7,12.2 41.2,12 40.8,11.6 C40.4,11.2 40.3,10.7 40.3,9.9 L40.3,4.7 L38.8,4.7 L38.8,3.6 L40.3,3.6 L40.3,1.6 L41.8,1.6 L41.8,1.5 Z" id="Shape"></path>
                        <path d="M44.6,7.7 C44.6,6.9 44.8,6.1 45.1,5.5 C45.4,4.8 45.9,4.3 46.5,4 C47.1,3.6 47.7,3.5 48.5,3.5 C49.7,3.5 50.6,3.9 51.3,4.7 C52,5.5 52.4,6.6 52.4,7.9 L52.4,8 C52.4,8.8 52.2,9.6 51.9,10.2 C51.6,10.9 51.1,11.4 50.5,11.7 C49.9,12 49.2,12.2 48.5,12.2 C47.4,12.2 46.4,11.8 45.7,11 C45,10.2 44.6,9.1 44.6,7.8 L44.6,7.7 L44.6,7.7 Z M46.1,7.9 C46.1,8.8 46.3,9.6 46.8,10.2 C47.2,10.8 47.8,11.1 48.5,11.1 C49.2,11.1 49.8,10.8 50.3,10.2 C50.7,9.6 50.9,8.8 50.9,7.8 C50.9,6.9 50.7,6.1 50.2,5.5 C49.8,4.9 49.2,4.6 48.4,4.6 C47.7,4.6 47.1,4.9 46.7,5.5 C46.3,6.1 46.1,6.8 46.1,7.9 Z" id="Shape"></path>
                        <path d="M58.3,4.8 C58.1,4.8 57.8,4.7 57.6,4.7 C56.7,4.7 56,5.1 55.7,5.9 L55.7,11.9 L54.3,11.9 L54.3,3.4 L55.7,3.4 L55.7,4.4 C56.2,3.6 56.8,3.3 57.7,3.3 C58,3.3 58.2,3.3 58.3,3.4 L58.3,4.8 L58.3,4.8 Z" id="Shape"></path>
                        <polygon id="Shape" points="71.5 1.9 67.8 1.9 67.8 12 66.3 12 66.3 1.9 62.7 1.9 62.7 0.7 71.5 0.7"></polygon>
                        <path d="M73.1,1.3 C73.1,1.1 73.2,0.9 73.3,0.7 C73.4,0.5 73.7,0.5 73.9,0.5 C74.1,0.5 74.4,0.6 74.5,0.7 C74.6,0.9 74.7,1.1 74.7,1.3 C74.7,1.5 74.6,1.7 74.5,1.9 C74.4,2.1 74.1,2.1 73.9,2.1 C73.7,2.1 73.4,2 73.3,1.9 C73.2,1.7 73.1,1.5 73.1,1.3 Z M74.7,12 L73.3,12 L73.3,3.5 L74.7,3.5 L74.7,12 Z" id="Shape"></path>
                        <path d="M79,1.5 L79,3.5 L80.6,3.5 L80.6,4.6 L79,4.6 L79,9.8 C79,10.1 79.1,10.4 79.2,10.6 C79.3,10.8 79.6,10.9 79.9,10.9 C80.1,10.9 80.3,10.9 80.6,10.8 L80.6,12 C80.2,12.1 79.8,12.2 79.5,12.2 C78.9,12.2 78.4,12 78,11.6 C77.6,11.2 77.5,10.7 77.5,9.9 L77.5,4.7 L76,4.7 L76,3.6 L77.5,3.6 L77.5,1.6 L79,1.6 L79,1.5 Z" id="Shape"></path>
                        <polygon id="Shape" points="84 12 82.6 12 82.6 0 84 0"></polygon>
                        <path d="M89.9,12.2 C88.8,12.2 87.8,11.8 87.1,11.1 C86.4,10.4 86,9.3 86,8 L86,7.7 C86,6.9 86.2,6.1 86.5,5.5 C86.8,4.9 87.3,4.3 87.8,4 C88.4,3.6 89,3.4 89.7,3.4 C90.8,3.4 91.7,3.8 92.3,4.5 C92.9,5.2 93.2,6.3 93.2,7.6 L93.2,8.2 L87.5,8.2 C87.5,9 87.8,9.7 88.2,10.2 C88.7,10.7 89.3,11 90,11 C90.5,11 90.9,10.9 91.3,10.7 C91.7,10.5 92,10.2 92.2,9.9 L93.1,10.6 C92.4,11.6 91.3,12.2 89.9,12.2 Z M89.7,4.6 C89.1,4.6 88.6,4.8 88.2,5.2 C87.8,5.6 87.6,6.2 87.5,7 L91.7,7 L91.7,6.9 C91.7,6.2 91.5,5.6 91.1,5.2 C90.8,4.8 90.3,4.6 89.7,4.6 Z" id="Shape"></path>
                    </g>
                    <g id="Group-12">
                        <g id="Group" transform="translate(157.000000, 0.000000)" fill-rule="nonzero" fill="#EC407A">
                            <path d="M4.7,10 C4.6,9.9 4.6,9.7 4.5,9.3 C4,9.8 3.4,10.1 2.7,10.1 C2.1,10.1 1.6,9.9 1.2,9.6 C0.8,9.3 0.6,8.8 0.6,8.3 C0.6,7.6 0.9,7.1 1.4,6.8 C1.9,6.5 2.6,6.3 3.5,6.3 L4.6,6.3 L4.6,5.7 C4.6,5.3 4.5,5 4.3,4.8 C4.1,4.6 3.7,4.5 3.3,4.5 C2.9,4.5 2.6,4.6 2.3,4.8 C2,5 1.9,5.2 1.9,5.5 L0.8,5.5 C0.8,5.2 0.9,4.9 1.1,4.6 C1.3,4.3 1.6,4.1 2,3.9 C2.4,3.7 2.8,3.6 3.3,3.6 C4,3.6 4.6,3.8 5,4.1 C5.4,4.4 5.6,5 5.6,5.6 L5.6,8.5 C5.6,9.1 5.7,9.5 5.8,9.9 L5.8,10 L4.7,10 Z M2.9,9.2 C3.2,9.2 3.6,9.1 3.9,8.9 C4.2,8.7 4.4,8.5 4.6,8.2 L4.6,6.9 L3.8,6.9 C2.5,6.9 1.8,7.3 1.8,8.1 C1.8,8.4 1.9,8.7 2.1,8.9 C2.3,9.1 2.6,9.2 2.9,9.2 Z" id="Shape"></path>
                            <path d="M11,8.3 C11,8 10.9,7.8 10.7,7.6 C10.5,7.4 10.1,7.3 9.5,7.2 C8.9,7.1 8.5,6.9 8.2,6.8 C7.9,6.7 7.6,6.4 7.5,6.2 C7.4,6 7.3,5.7 7.3,5.4 C7.3,4.9 7.5,4.4 8,4.1 C8.5,3.8 9,3.6 9.7,3.6 C10.4,3.6 11,3.8 11.4,4.2 C11.8,4.6 12.1,5 12.1,5.6 L11,5.6 C11,5.3 10.9,5 10.6,4.8 C10.3,4.6 10,4.5 9.6,4.5 C9.2,4.5 8.9,4.6 8.7,4.8 C8.5,5 8.4,5.2 8.4,5.5 C8.4,5.8 8.5,6 8.7,6.1 C8.9,6.2 9.3,6.4 9.8,6.5 C10.3,6.6 10.8,6.8 11.1,6.9 C11.4,7 11.7,7.3 11.8,7.5 C11.9,7.7 12,8 12,8.4 C12,9 11.8,9.4 11.3,9.8 C10.8,10.2 10.3,10.3 9.5,10.3 C9,10.3 8.5,10.2 8.2,10 C7.9,9.8 7.5,9.6 7.3,9.2 C7.1,8.8 7,8.5 7,8.2 L8.1,8.2 C8.1,8.6 8.3,8.9 8.5,9.1 C8.7,9.3 9.1,9.4 9.6,9.4 C10,9.4 10.3,9.3 10.6,9.2 C10.9,9.1 11,8.6 11,8.3 Z" id="Shape"></path>
                            <path d="M15,2.1 L15,3.6 L16.2,3.6 L16.2,4.4 L15,4.4 L15,8.3 C15,8.6 15.1,8.7 15.2,8.9 C15.3,9.1 15.5,9.1 15.7,9.1 C15.8,9.1 16,9.1 16.2,9 L16.2,10 C15.9,10.1 15.6,10.1 15.4,10.1 C14.9,10.1 14.6,10 14.3,9.7 C14,9.4 13.9,9 13.9,8.5 L13.9,4.5 L12.7,4.5 L12.7,3.7 L13.9,3.7 L13.9,2.1 L15,2.1 Z" id="Shape"></path>
                            <path d="M20.1,10.1 C19.2,10.1 18.5,9.8 18,9.3 C17.5,8.8 17.2,8 17.2,7 L17.2,6.8 C17.2,6.2 17.3,5.6 17.6,5.1 C17.9,4.6 18.2,4.2 18.6,3.9 C19,3.6 19.5,3.5 20,3.5 C20.8,3.5 21.5,3.8 21.9,4.3 C22.3,4.8 22.6,5.6 22.6,6.6 L22.6,7.1 L18.3,7.1 C18.3,7.7 18.5,8.2 18.8,8.6 C19.1,9 19.6,9.2 20.1,9.2 C20.5,9.2 20.8,9.1 21.1,9 C21.4,8.9 21.6,8.6 21.8,8.4 L22.5,8.9 C21.9,9.7 21.1,10.1 20.1,10.1 Z M20,4.4 C19.6,4.4 19.2,4.6 18.9,4.9 C18.6,5.2 18.4,5.7 18.3,6.2 L21.5,6.2 L21.5,6.2 C21.5,5.6 21.3,5.2 21.1,4.9 C20.9,4.6 20.4,4.4 20,4.4 Z" id="Shape"></path>
                            <path d="M26.9,4.6 C26.7,4.6 26.6,4.6 26.4,4.6 C25.7,4.6 25.2,4.9 25,5.5 L25,10 L23.9,10 L23.9,3.7 L25,3.7 L25,4.4 C25.4,3.8 25.9,3.6 26.5,3.6 C26.7,3.6 26.9,3.6 27,3.7 L27,4.6 L26.9,4.6 Z" id="Shape"></path>
                            <path d="M27.9,2 C27.9,1.8 28,1.7 28.1,1.6 C28.2,1.5 28.4,1.4 28.6,1.4 C28.8,1.4 29,1.5 29.1,1.6 C29.2,1.7 29.3,1.9 29.3,2 C29.3,2.1 29.2,2.3 29.1,2.4 C29,2.5 28.8,2.6 28.6,2.6 C28.4,2.6 28.2,2.5 28.1,2.4 C28,2.3 27.9,2.2 27.9,2 Z M29.1,10 L28,10 L28,3.7 L29.1,3.7 L29.1,10 Z" id="Shape"></path>
                            <path d="M34.5,8.3 C34.5,8 34.4,7.8 34.2,7.6 C34,7.4 33.6,7.3 33,7.2 C32.4,7.1 32,6.9 31.7,6.8 C31.4,6.7 31.1,6.4 31,6.2 C30.9,6 30.8,5.7 30.8,5.4 C30.8,4.9 31,4.4 31.5,4.1 C32,3.8 32.5,3.6 33.2,3.6 C33.9,3.6 34.5,3.8 34.9,4.2 C35.3,4.6 35.6,5 35.6,5.6 L34.5,5.6 C34.5,5.3 34.4,5 34.1,4.8 C33.8,4.6 33.5,4.5 33.1,4.5 C32.7,4.5 32.4,4.6 32.2,4.8 C32,5 31.9,5.2 31.9,5.5 C31.9,5.8 32,6 32.2,6.1 C32.4,6.2 32.8,6.4 33.3,6.5 C33.8,6.6 34.3,6.8 34.6,6.9 C34.9,7 35.2,7.3 35.3,7.5 C35.4,7.7 35.5,8 35.5,8.4 C35.5,9 35.3,9.4 34.8,9.8 C34.3,10.2 33.8,10.3 33,10.3 C32.5,10.3 32,10.2 31.7,10 C31.4,9.8 31,9.6 30.8,9.2 C30.6,8.8 30.5,8.5 30.5,8.2 L31.6,8.2 C31.6,8.6 31.8,8.9 32,9.1 C32.2,9.3 32.6,9.4 33.1,9.4 C33.5,9.4 33.8,9.3 34.1,9.2 C34.4,9.1 34.5,8.6 34.5,8.3 Z" id="Shape"></path>
                            <polygon id="Shape" points="38.7 7.1 38 7.8 38 10 37 10 37 1 38.1 1 38.1 6.4 38.7 5.7 40.7 3.6 42 3.6 39.5 6.2 42.3 9.9 41 9.9"></polygon>
                            <path d="M48.6,9.2 C49,9.2 49.3,9.1 49.6,8.8 C49.9,8.5 50,8.3 50.1,7.9 L51.1,7.9 C51.1,8.3 51,8.6 50.7,8.9 C50.4,9.2 50.2,9.5 49.8,9.7 C49.4,9.9 49,10 48.6,10 C47.7,10 47.1,9.7 46.5,9.1 C45.9,8.5 45.7,7.7 45.7,6.7 L45.7,6.7 C45.7,6.1 45.8,5.5 46,5.1 C46.2,4.7 46.6,4.2 47,4 C47.4,3.8 47.9,3.6 48.5,3.6 C49.2,3.6 49.8,3.8 50.3,4.2 C50.8,4.6 51,5.2 51.1,5.9 L50.1,5.9 C50.1,5.5 49.9,5.2 49.6,4.9 C49.3,4.6 49,4.5 48.6,4.5 C48,4.5 47.6,4.7 47.3,5.1 C47,5.5 46.8,6.1 46.8,6.8 L46.8,7 C46.8,7.7 47,8.3 47.3,8.7 C47.6,9.1 48,9.2 48.6,9.2 Z" id="Shape"></path>
                            <path d="M52,6.8 C52,6.2 52.1,5.6 52.4,5.1 C52.7,4.6 53,4.2 53.4,4 C53.8,3.8 54.3,3.6 54.9,3.6 C55.8,3.6 56.5,3.9 57,4.5 C57.5,5.1 57.8,5.9 57.8,6.9 L57.8,7 C57.8,7.6 57.7,8.2 57.4,8.7 C57.1,9.2 56.8,9.6 56.4,9.8 C56,10 55.5,10.2 54.9,10.2 C54,10.2 53.3,9.9 52.8,9.3 C52.3,8.7 52,7.8 52,6.8 L52,6.8 Z M53.1,6.9 C53.1,7.6 53.3,8.2 53.6,8.6 C53.9,9 54.4,9.2 54.9,9.2 C55.5,9.2 55.9,9 56.2,8.6 C56.5,8.2 56.7,7.6 56.7,6.8 C56.7,6.1 56.5,5.5 56.2,5.1 C55.9,4.7 55.4,4.5 54.9,4.5 C54.4,4.5 53.9,4.7 53.6,5.1 C53.3,5.5 53.1,6.1 53.1,6.9 Z" id="Shape"></path>
                            <polygon id="Shape" points="60.3 10 59.2 10 59.2 1 60.3 1"></polygon>
                            <path d="M61.8,6.8 C61.8,6.2 61.9,5.6 62.2,5.1 C62.5,4.6 62.8,4.2 63.2,4 C63.6,3.8 64.1,3.6 64.7,3.6 C65.6,3.6 66.3,3.9 66.8,4.5 C67.3,5.1 67.6,5.9 67.6,6.9 L67.6,7 C67.6,7.6 67.5,8.2 67.2,8.7 C66.9,9.2 66.6,9.6 66.2,9.8 C65.8,10 65.3,10.2 64.7,10.2 C63.8,10.2 63.1,9.9 62.6,9.3 C62.1,8.7 61.8,7.8 61.8,6.8 L61.8,6.8 Z M62.9,6.9 C62.9,7.6 63.1,8.2 63.4,8.6 C63.7,9 64.2,9.2 64.7,9.2 C65.3,9.2 65.7,9 66,8.6 C66.3,8.2 66.5,7.6 66.5,6.8 C66.5,6.1 66.3,5.5 66,5.1 C65.7,4.7 65.2,4.5 64.7,4.5 C64.2,4.5 63.7,4.7 63.4,5.1 C63.1,5.5 62.9,6.1 62.9,6.9 Z" id="Shape"></path>
                            <path d="M72,4.6 C71.8,4.6 71.7,4.6 71.5,4.6 C70.8,4.6 70.3,4.9 70.1,5.5 L70.1,10 L69,10 L69,3.7 L70.1,3.7 L70.1,4.4 C70.5,3.8 71,3.6 71.6,3.6 C71.8,3.6 72,3.6 72.1,3.7 L72.1,4.6 L72,4.6 Z" id="Shape"></path>
                            <path d="M72.9,9.4 C72.9,9.2 73,9.1 73.1,8.9 C73.2,8.7 73.4,8.7 73.6,8.7 C73.8,8.7 74,8.8 74.1,8.9 C74.2,9 74.3,9.2 74.3,9.4 C74.3,9.6 74.2,9.7 74.1,9.9 C74,10.1 73.8,10.1 73.6,10.1 C73.4,10.1 73.2,10 73.1,9.9 C73,9.8 72.9,9.6 72.9,9.4 Z M72.9,4.3 C72.9,4.1 73,4 73.1,3.8 C73.2,3.6 73.4,3.6 73.6,3.6 C73.8,3.6 74,3.7 74.1,3.8 C74.2,3.9 74.3,4.1 74.3,4.3 C74.3,4.5 74.2,4.6 74.1,4.8 C74,5 73.8,5 73.6,5 C73.4,5 73.2,4.9 73.1,4.8 C73,4.7 72.9,4.4 72.9,4.3 Z" id="Shape"></path>
                            <path d="M82.5,7.6 L81,7.6 L80.5,10 L79.7,10 L80.2,7.6 L78.8,7.6 L78.8,6.8 L80.4,6.8 L80.8,4.7 L79.3,4.7 L79.3,3.9 L81,3.9 L81.5,1.5 L82.3,1.5 L81.8,3.9 L83.3,3.9 L83.8,1.5 L84.6,1.5 L84.1,3.9 L85.3,3.9 L85.3,4.7 L83.9,4.7 L83.5,6.8 L84.8,6.8 L84.8,7.6 L83.3,7.6 L82.8,10 L82,10 L82.5,7.6 Z M81.1,6.8 L82.6,6.8 L83,4.7 L81.5,4.7 L81.1,6.8 Z" id="Shape"></path>
                            <path d="M86,6.8 C86,5.8 86.2,5 86.7,4.5 C87.2,4 87.8,3.6 88.5,3.6 C89.2,3.6 89.8,3.9 90.3,4.4 L90.3,1 L91.4,1 L91.4,10 L90.4,10 L90.3,9.3 C89.9,9.8 89.3,10.1 88.5,10.1 C87.8,10.1 87.2,9.8 86.7,9.2 C86.2,8.6 86,7.8 86,6.8 L86,6.8 Z M87.1,6.9 C87.1,7.6 87.2,8.2 87.5,8.6 C87.8,9 88.2,9.2 88.7,9.2 C89.4,9.2 89.9,8.9 90.2,8.3 L90.2,5.4 C89.9,4.8 89.4,4.5 88.7,4.5 C88.2,4.5 87.8,4.7 87.5,5.1 C87.2,5.5 87.1,6.1 87.1,6.9 Z" id="Shape"></path>
                            <path d="M94.5,5.2 L95.3,5.2 C95.8,5.2 96.2,5.1 96.5,4.8 C96.8,4.5 96.9,4.2 96.9,3.7 C96.9,2.7 96.4,2.2 95.4,2.2 C94.9,2.2 94.6,2.3 94.3,2.6 C94,2.9 93.9,3.2 93.9,3.7 L92.8,3.7 C92.8,3 93,2.5 93.5,2 C94,1.5 94.6,1.3 95.4,1.3 C96.2,1.3 96.8,1.5 97.3,1.9 C97.8,2.3 98,2.9 98,3.7 C98,4.1 97.9,4.4 97.6,4.8 C97.3,5.2 97,5.4 96.6,5.6 C97.1,5.7 97.4,6 97.7,6.3 C98,6.6 98.1,7.1 98.1,7.6 C98.1,8.4 97.9,9 97.3,9.4 C96.7,9.8 96.1,10.1 95.3,10.1 C94.5,10.1 93.8,9.9 93.3,9.4 C92.8,8.9 92.5,8.4 92.5,7.7 L93.6,7.7 C93.6,8.1 93.7,8.5 94,8.8 C94.3,9.1 94.7,9.2 95.2,9.2 C95.7,9.2 96.1,9.1 96.4,8.8 C96.7,8.5 96.8,8.1 96.8,7.6 C96.8,7.1 96.6,6.7 96.3,6.5 C96,6.3 95.6,6.1 95,6.1 L94.2,6.1 L94.2,5.2 L94.5,5.2 Z" id="Shape"></path>
                            <path d="M105.2,10 L99.6,10 L99.6,9.2 L102.6,5.9 C103,5.4 103.3,5 103.5,4.7 C103.7,4.4 103.7,4.1 103.7,3.7 C103.7,3.3 103.6,2.9 103.3,2.6 C103,2.3 102.7,2.2 102.2,2.2 C101.7,2.2 101.2,2.4 100.9,2.7 C100.6,3 100.5,3.4 100.5,4 L99.4,4 C99.4,3.2 99.7,2.6 100.2,2.1 C100.7,1.6 101.4,1.4 102.2,1.4 C103,1.4 103.6,1.6 104.1,2 C104.6,2.4 104.8,3 104.8,3.7 C104.8,4.5 104.3,5.5 103.2,6.7 L100.9,9.2 L105.2,9.2 L105.2,10 L105.2,10 Z" id="Shape"></path>
                            <path d="M107,10 L107,4.5 L106,4.5 L106,3.7 L107,3.7 L107,3 C107,2.3 107.2,1.8 107.5,1.4 C107.8,1 108.4,0.8 109,0.8 C109.2,0.8 109.5,0.8 109.7,0.9 L109.6,1.8 C109.4,1.8 109.2,1.7 109,1.7 C108.6,1.7 108.4,1.8 108.2,2 C108,2.2 107.9,2.5 107.9,2.9 L107.9,3.6 L109.3,3.6 L109.3,4.4 L107.9,4.4 L107.9,10 L107,10 Z" id="Shape"></path>
                            <path d="M116.1,10 L110.5,10 L110.5,9.2 L113.5,5.9 C113.9,5.4 114.2,5 114.4,4.7 C114.6,4.4 114.6,4.1 114.6,3.7 C114.6,3.3 114.5,2.9 114.2,2.6 C113.9,2.3 113.6,2.2 113.1,2.2 C112.6,2.2 112.1,2.4 111.8,2.7 C111.5,3 111.4,3.4 111.4,4 L110.3,4 C110.3,3.2 110.6,2.6 111.1,2.1 C111.6,1.6 112.3,1.4 113.1,1.4 C113.9,1.4 114.5,1.6 115,2 C115.5,2.4 115.7,3 115.7,3.7 C115.7,4.5 115.2,5.5 114.1,6.7 L111.8,9.2 L116.1,9.2 L116.1,10 L116.1,10 Z" id="Shape"></path>
                            <path d="M117.9,10 L117.9,4.5 L116.9,4.5 L116.9,3.7 L117.9,3.7 L117.9,3 C117.9,2.3 118.1,1.8 118.4,1.4 C118.7,1 119.3,0.8 119.9,0.8 C120.1,0.8 120.4,0.8 120.6,0.9 L120.5,1.8 C120.3,1.8 120.1,1.7 119.9,1.7 C119.5,1.7 119.3,1.8 119.1,2 C118.9,2.2 119,2.6 119,3 L119,3.7 L120.4,3.7 L120.4,4.5 L119,4.5 L119,10 L117.9,10 Z" id="Shape"></path>
                            <path d="M124.5,6.5 C124.5,5.6 124.6,4.8 124.9,4 C125.2,3.2 125.5,2.4 126,1.8 C126.5,1.2 127,0.7 127.5,0.4 L127.7,1.1 C127.1,1.5 126.7,2.2 126.3,3.1 C125.9,4 125.7,5 125.7,6.1 L125.7,6.6 C125.7,8.1 126,9.4 126.5,10.5 C126.8,11.2 127.2,11.7 127.7,12.1 L127.5,12.8 C127,12.5 126.5,12 126,11.3 C124.9,10 124.5,8.4 124.5,6.5 Z" id="Shape"></path>
                            <path d="M131.7,4.6 C131.5,4.6 131.4,4.6 131.2,4.6 C130.5,4.6 130,4.9 129.8,5.5 L129.8,10 L128.7,10 L128.7,3.7 L129.8,3.7 L129.8,4.4 C130.2,3.8 130.7,3.6 131.3,3.6 C131.5,3.6 131.7,3.6 131.8,3.7 L131.8,4.6 L131.7,4.6 Z" id="Shape"></path>
                            <path d="M135.3,10.1 C134.4,10.1 133.7,9.8 133.2,9.3 C132.7,8.8 132.4,8 132.4,7 L132.4,6.8 C132.4,6.2 132.5,5.6 132.8,5.1 C133.1,4.6 133.4,4.2 133.8,3.9 C134.2,3.6 134.7,3.5 135.2,3.5 C136,3.5 136.7,3.8 137.1,4.3 C137.5,4.8 137.8,5.6 137.8,6.6 L137.8,7.1 L133.5,7.1 C133.5,7.7 133.7,8.2 134,8.6 C134.3,9 134.8,9.2 135.3,9.2 C135.7,9.2 136,9.1 136.3,9 C136.6,8.9 136.8,8.6 137,8.4 L137.7,8.9 C137.2,9.7 136.4,10.1 135.3,10.1 Z M135.2,4.4 C134.8,4.4 134.4,4.6 134.1,4.9 C133.8,5.2 133.6,5.7 133.5,6.2 L136.7,6.2 L136.7,6.2 C136.7,5.6 136.5,5.2 136.3,4.9 C136.1,4.6 135.6,4.4 135.2,4.4 Z" id="Shape"></path>
                            <path d="M138.8,6.8 C138.8,5.8 139,5 139.5,4.5 C140,4 140.6,3.6 141.3,3.6 C142,3.6 142.6,3.9 143.1,4.4 L143.1,1 L144.2,1 L144.2,10 L143.2,10 L143.1,9.3 C142.7,9.8 142.1,10.1 141.3,10.1 C140.6,10.1 140,9.8 139.5,9.2 C139,8.6 138.8,7.8 138.8,6.8 L138.8,6.8 Z M139.9,6.9 C139.9,7.6 140,8.2 140.3,8.6 C140.6,9 141,9.2 141.5,9.2 C142.2,9.2 142.7,8.9 143,8.3 L143,5.4 C142.7,4.8 142.2,4.5 141.5,4.5 C141,4.5 140.6,4.7 140.3,5.1 C140,5.5 139.9,6.1 139.9,6.9 Z" id="Shape"></path>
                            <path d="M152.8,6.2 C152.6,6.5 152.3,6.7 152,6.9 C151.7,7.1 151.3,7.1 151,7.1 C150.5,7.1 150.1,7 149.7,6.7 C149.3,6.4 149.1,6.1 148.9,5.7 C148.7,5.3 148.6,4.8 148.6,4.2 C148.6,3.6 148.7,3.1 148.9,2.7 C149.1,2.3 149.4,1.9 149.8,1.7 C150.2,1.5 150.7,1.3 151.2,1.3 C152,1.3 152.7,1.6 153.2,2.2 C153.7,2.8 153.9,3.7 153.9,4.8 L153.9,5.1 C153.9,6.8 153.6,8 152.9,8.7 C152.2,9.4 151.3,9.9 149.9,9.9 L149.7,9.9 L149.7,9 L149.9,9 C150.8,9 151.5,8.8 152,8.3 C152.5,7.9 152.8,7.2 152.8,6.2 Z M151.1,6.2 C151.5,6.2 151.8,6.1 152.1,5.9 C152.4,5.7 152.6,5.4 152.8,5.1 L152.8,4.7 C152.8,4 152.6,3.4 152.3,3 C152,2.6 151.6,2.3 151.1,2.3 C150.6,2.3 150.2,2.5 150,2.8 C149.8,3.1 149.6,3.6 149.6,4.2 C149.6,4.8 149.7,5.3 150,5.6 C150.3,5.9 150.7,6.2 151.1,6.2 Z" id="Shape"></path>
                            <path d="M160.8,6.4 C160.8,7.7 160.6,8.6 160.1,9.2 C159.6,9.8 159,10.1 158.1,10.1 C157.2,10.1 156.5,9.8 156.1,9.2 C155.7,8.6 155.4,7.7 155.4,6.5 L155.4,5.1 C155.4,3.8 155.6,2.9 156.1,2.3 C156.6,1.7 157.2,1.4 158.1,1.4 C159,1.4 159.7,1.7 160.1,2.3 C160.5,2.9 160.8,3.8 160.8,5 L160.8,6.4 Z M159.7,4.9 C159.7,4 159.6,3.3 159.3,2.9 C159,2.5 158.6,2.3 158.1,2.3 C157.5,2.3 157.1,2.5 156.9,2.9 C156.7,3.3 156.5,4 156.5,4.8 L156.5,6.5 C156.5,7.4 156.6,8.1 156.9,8.5 C157.2,8.9 157.6,9.2 158.1,9.2 C158.6,9.2 159,9 159.3,8.6 C159.6,8.2 159.7,7.5 159.7,6.6 L159.7,4.9 Z" id="Shape"></path>
                            <path d="M167.5,6.4 C167.5,7.7 167.3,8.6 166.8,9.2 C166.3,9.8 165.7,10.1 164.8,10.1 C163.9,10.1 163.2,9.8 162.8,9.2 C162.4,8.6 162.1,7.7 162.1,6.5 L162.1,5.1 C162.1,3.8 162.3,2.9 162.8,2.3 C163.3,1.7 163.9,1.4 164.8,1.4 C165.7,1.4 166.4,1.7 166.8,2.3 C167.2,2.9 167.5,3.8 167.5,5 L167.5,6.4 Z M166.4,4.9 C166.4,4 166.3,3.3 166,2.9 C165.7,2.5 165.3,2.3 164.8,2.3 C164.2,2.3 163.8,2.5 163.6,2.9 C163.4,3.3 163.2,4 163.2,4.8 L163.2,6.5 C163.2,7.4 163.3,8.1 163.6,8.5 C163.9,8.9 164.3,9.2 164.8,9.2 C165.3,9.2 165.7,9 166,8.6 C166.3,8.2 166.4,7.5 166.4,6.6 L166.4,4.9 Z" id="Shape"></path>
                            <path d="M171.5,6.6 C171.5,7.5 171.4,8.3 171.2,9.1 C171,9.9 170.6,10.6 170.2,11.3 C169.8,12 169.2,12.5 168.7,12.7 L168.5,12 C169.1,11.5 169.6,10.8 170,9.9 C170.4,9 170.6,7.9 170.6,6.7 L170.6,6.5 C170.6,5.7 170.5,4.9 170.3,4.2 C170.1,3.5 169.9,2.9 169.6,2.3 C169.3,1.7 168.9,1.3 168.6,1 L168.8,0.3 C169.3,0.6 169.8,1.1 170.3,1.7 C170.8,2.3 171.1,3.1 171.3,3.9 C171.5,4.7 171.5,5.7 171.5,6.6 Z" id="Shape"></path>
                        </g>
                        <g id="specs-_x2F_-redlines-_x2F_-line-regular" transform="translate(75.000000, 20.000000) scale(-1, 1) rotate(90.000000) translate(-75.000000, -20.000000) translate(56.000000, -55.000000)">
                            <path d="M3.5,149.5 L3.5,20.5 C3.5,11.1 11.1,3.5 20.5,3.5 L37.5,3.5" id="redline-line" stroke="#EC407A"></path>
                            <g id="specs-_x2F_-redlines-_x2F_-line-end-_x2F_-arrow" transform="translate(31.000000, 0.000000)">
                                <g id="redline-end">
                                    <polygon id="path-3" fill="#FFFFFF" fill-rule="nonzero" points="7 3.5 0 7 0 0"></polygon>
                                    <polygon id="Shape" stroke="#EC407A" points="5.9 3.5 0.5 0.8 0.5 6.2"></polygon>
                                </g>
                            </g>
                            <g id="specs-_x2F_-redlines-_x2F_-line-end-_x2F_-circle" transform="translate(0.000000, 143.000000)">
                                <g id="redline-start">
                                    <circle id="path-4" fill="#FFFFFF" fill-rule="nonzero" cx="3.5" cy="3.5" r="3.5"></circle>
                                    <circle id="Oval" stroke="#EC407A" cx="3.5" cy="3.5" r="3"></circle>
                                </g>
                            </g>
                        </g>
                    </g>
                    <g id="Checkbox_1_" transform="translate(13.000000, 69.000000)">
                        <g id="Group" transform="translate(24.000000, 5.000000)" fill-rule="nonzero" fill="#424242">
                            <path d="M10.1,6.7 C10.1,7.8 9.9,8.8 9.5,9.6 C9.1,10.4 8.6,11.1 7.9,11.5 C7.2,11.9 6.4,12.2 5.5,12.2 C4.6,12.2 3.8,12 3.1,11.5 C2.4,11.1 1.9,10.4 1.5,9.6 C1.1,8.8 0.9,7.8 0.9,6.8 L0.9,6 C0.9,4.9 1.1,3.9 1.5,3.1 C1.9,2.3 2.4,1.6 3.1,1.2 C3.8,0.8 4.6,0.5 5.5,0.5 C6.4,0.5 7.2,0.7 7.9,1.2 C8.6,1.7 9.1,2.3 9.5,3.1 C9.9,3.9 10.1,4.9 10.1,6 L10.1,6.7 Z M8.6,5.9 C8.6,4.6 8.3,3.5 7.8,2.8 C7.3,2.1 6.5,1.7 5.5,1.7 C4.6,1.7 3.8,2.1 3.3,2.8 C2.8,3.5 2.5,4.5 2.5,5.8 L2.5,6.6 C2.5,7.9 2.8,8.9 3.3,9.7 C3.8,10.4 4.6,10.8 5.6,10.8 C6.6,10.8 7.3,10.4 7.8,9.7 C8.3,9 8.6,8 8.6,6.7 L8.6,5.9 Z" id="Shape"></path>
                        </g>
                        <g id="Group" transform="translate(36.000000, 5.000000)" fill-rule="nonzero" fill="#424242">
                            <path d="M7.2,7.9 C7.2,9.2 6.9,10.2 6.3,11 C5.7,11.8 4.9,12.2 3.9,12.2 C2.9,12.2 2.1,11.9 1.5,11.2 L1.5,15.3 L0.1,15.3 L0.1,3.5 L1.4,3.5 L1.5,4.4 C2.1,3.7 2.9,3.3 4,3.3 C5,3.3 5.8,3.7 6.4,4.4 C7,5.2 7.3,6.2 7.3,7.6 L7.3,7.9 L7.2,7.9 Z M5.8,7.7 C5.8,6.7 5.6,6 5.2,5.4 C4.8,4.8 4.2,4.6 3.5,4.6 C2.6,4.6 2,5 1.5,5.8 L1.5,9.8 C1.9,10.6 2.6,11 3.5,11 C4.2,11 4.7,10.7 5.2,10.2 C5.6,9.6 5.8,8.8 5.8,7.7 Z" id="Shape"></path>
                            <path d="M11,1.5 L11,3.5 L12.6,3.5 L12.6,4.6 L11,4.6 L11,9.8 C11,10.1 11.1,10.4 11.2,10.6 C11.3,10.8 11.6,10.9 11.9,10.9 C12.1,10.9 12.3,10.9 12.6,10.8 L12.6,12 C12.2,12.1 11.8,12.2 11.5,12.2 C10.9,12.2 10.4,12 10,11.6 C9.6,11.2 9.5,10.7 9.5,9.9 L9.5,4.7 L8,4.7 L8,3.5 L9.5,3.5 L9.5,1.5 L11,1.5 Z" id="Shape"></path>
                            <path d="M14.3,1.3 C14.3,1.1 14.4,0.9 14.5,0.7 C14.6,0.5 14.9,0.5 15.1,0.5 C15.3,0.5 15.6,0.6 15.7,0.7 C15.9,0.9 16,1.1 16,1.3 C16,1.5 15.9,1.7 15.8,1.9 C15.7,2.1 15.4,2.1 15.2,2.1 C15,2.1 14.7,2 14.5,1.9 C14.4,1.7 14.3,1.5 14.3,1.3 Z M15.9,12 L14.5,12 L14.5,3.5 L15.9,3.5 L15.9,12 Z" id="Shape"></path>
                            <path d="M17.8,7.7 C17.8,6.9 18,6.1 18.3,5.5 C18.6,4.8 19.1,4.3 19.7,4 C20.3,3.6 20.9,3.5 21.7,3.5 C22.9,3.5 23.8,3.9 24.5,4.7 C25.2,5.5 25.6,6.6 25.6,7.9 L25.6,8 C25.6,8.8 25.4,9.6 25.1,10.2 C24.8,10.9 24.3,11.4 23.7,11.7 C23.1,12 22.4,12.2 21.7,12.2 C20.6,12.2 19.6,11.8 18.9,11 C18.2,10.2 17.8,9.1 17.8,7.8 L17.8,7.7 Z M19.2,7.9 C19.2,8.8 19.4,9.6 19.9,10.2 C20.3,10.8 20.9,11.1 21.6,11.1 C22.3,11.1 22.9,10.8 23.4,10.2 C23.8,9.6 24,8.8 24,7.8 C24,6.9 23.8,6.1 23.3,5.5 C22.9,4.9 22.3,4.6 21.5,4.6 C20.8,4.6 20.2,4.9 19.8,5.5 C19.4,6.1 19.2,6.8 19.2,7.9 Z" id="Shape"></path>
                            <path d="M28.7,3.5 L28.7,4.6 C29.3,3.8 30.2,3.4 31.2,3.4 C33,3.4 33.9,4.4 33.9,6.4 L33.9,12 L32.5,12 L32.5,6.4 C32.5,5.8 32.4,5.3 32.1,5 C31.8,4.7 31.4,4.6 30.8,4.6 C30.3,4.6 29.9,4.7 29.6,5 C29.2,5.2 29,5.6 28.8,6 L28.8,12 L27.4,12 L27.4,3.5 L28.7,3.5 Z" id="Shape"></path>
                        </g>
                        <g id="Group" transform="translate(76.000000, 5.000000)" fill-rule="nonzero" fill="#424242">
                            <polygon id="Shape" points="4.7 12 3.2 12 3.2 2.4 0.3 3.5 0.3 2.1 4.4 0.5 4.6 0.5 4.6 12"></polygon>
                        </g>
                        <g id="Selected-Copy" stroke="#BDBDBD">
                            <path d="M14,16 L2,16 C0.9,16 0,15.1 0,14 L0,2 C0,0.9 0.9,0 2,0 L14,0 C15.1,0 16,0.9 16,2 L16,14 C16,15.1 15.1,16 14,16" id="Fill-26"></path>
                        </g>
                    </g>
                    <g id="Checkbox_2_" transform="translate(13.000000, 91.000000)">
                        <g id="Group" transform="translate(24.000000, 5.000000)" fill-rule="nonzero" fill="#424242">
                            <path d="M10.1,6.7 C10.1,7.8 9.9,8.8 9.5,9.6 C9.1,10.4 8.6,11.1 7.9,11.5 C7.2,11.9 6.4,12.2 5.5,12.2 C4.6,12.2 3.8,12 3.1,11.5 C2.4,11.1 1.9,10.4 1.5,9.6 C1.1,8.8 0.9,7.8 0.9,6.8 L0.9,6 C0.9,4.9 1.1,3.9 1.5,3.1 C1.9,2.3 2.4,1.6 3.1,1.2 C3.8,0.8 4.6,0.5 5.5,0.5 C6.4,0.5 7.2,0.7 7.9,1.2 C8.6,1.7 9.1,2.3 9.5,3.1 C9.9,3.9 10.1,4.9 10.1,6 L10.1,6.7 Z M8.6,5.9 C8.6,4.6 8.3,3.5 7.8,2.8 C7.3,2.1 6.5,1.7 5.5,1.7 C4.6,1.7 3.8,2.1 3.3,2.8 C2.8,3.5 2.5,4.5 2.5,5.8 L2.5,6.6 C2.5,7.9 2.8,8.9 3.3,9.7 C3.8,10.4 4.6,10.8 5.6,10.8 C6.6,10.8 7.3,10.4 7.8,9.7 C8.3,9 8.6,8 8.6,6.7 L8.6,5.9 Z" id="Shape"></path>
                        </g>
                        <g id="Group" transform="translate(36.000000, 5.000000)" fill-rule="nonzero" fill="#424242">
                            <path d="M7.2,7.9 C7.2,9.2 6.9,10.2 6.3,11 C5.7,11.8 4.9,12.2 3.9,12.2 C2.9,12.2 2.1,11.9 1.5,11.2 L1.5,15.3 L0.1,15.3 L0.1,3.5 L1.4,3.5 L1.5,4.4 C2.1,3.7 2.9,3.3 4,3.3 C5,3.3 5.8,3.7 6.4,4.4 C7,5.2 7.3,6.2 7.3,7.6 L7.3,7.9 L7.2,7.9 Z M5.8,7.7 C5.8,6.7 5.6,6 5.2,5.4 C4.8,4.8 4.2,4.6 3.5,4.6 C2.6,4.6 2,5 1.5,5.8 L1.5,9.8 C1.9,10.6 2.6,11 3.5,11 C4.2,11 4.7,10.7 5.2,10.2 C5.6,9.6 5.8,8.8 5.8,7.7 Z" id="Shape"></path>
                            <path d="M11,1.5 L11,3.5 L12.6,3.5 L12.6,4.6 L11,4.6 L11,9.8 C11,10.1 11.1,10.4 11.2,10.6 C11.3,10.8 11.6,10.9 11.9,10.9 C12.1,10.9 12.3,10.9 12.6,10.8 L12.6,12 C12.2,12.1 11.8,12.2 11.5,12.2 C10.9,12.2 10.4,12 10,11.6 C9.6,11.2 9.5,10.7 9.5,9.9 L9.5,4.7 L8,4.7 L8,3.5 L9.5,3.5 L9.5,1.5 L11,1.5 Z" id="Shape"></path>
                            <path d="M14.3,1.3 C14.3,1.1 14.4,0.9 14.5,0.7 C14.6,0.5 14.9,0.5 15.1,0.5 C15.3,0.5 15.6,0.6 15.7,0.7 C15.9,0.9 16,1.1 16,1.3 C16,1.5 15.9,1.7 15.8,1.9 C15.7,2.1 15.4,2.1 15.2,2.1 C15,2.1 14.7,2 14.5,1.9 C14.4,1.7 14.3,1.5 14.3,1.3 Z M15.9,12 L14.5,12 L14.5,3.5 L15.9,3.5 L15.9,12 Z" id="Shape"></path>
                            <path d="M17.8,7.7 C17.8,6.9 18,6.1 18.3,5.5 C18.6,4.8 19.1,4.3 19.7,4 C20.3,3.6 20.9,3.5 21.7,3.5 C22.9,3.5 23.8,3.9 24.5,4.7 C25.2,5.5 25.6,6.6 25.6,7.9 L25.6,8 C25.6,8.8 25.4,9.6 25.1,10.2 C24.8,10.9 24.3,11.4 23.7,11.7 C23.1,12 22.4,12.2 21.7,12.2 C20.6,12.2 19.6,11.8 18.9,11 C18.2,10.2 17.8,9.1 17.8,7.8 L17.8,7.7 Z M19.2,7.9 C19.2,8.8 19.4,9.6 19.9,10.2 C20.3,10.8 20.9,11.1 21.6,11.1 C22.3,11.1 22.9,10.8 23.4,10.2 C23.8,9.6 24,8.8 24,7.8 C24,6.9 23.8,6.1 23.3,5.5 C22.9,4.9 22.3,4.6 21.5,4.6 C20.8,4.6 20.2,4.9 19.8,5.5 C19.4,6.1 19.2,6.8 19.2,7.9 Z" id="Shape"></path>
                            <path d="M28.7,3.5 L28.7,4.6 C29.3,3.8 30.2,3.4 31.2,3.4 C33,3.4 33.9,4.4 33.9,6.4 L33.9,12 L32.5,12 L32.5,6.4 C32.5,5.8 32.4,5.3 32.1,5 C31.8,4.7 31.4,4.6 30.8,4.6 C30.3,4.6 29.9,4.7 29.6,5 C29.2,5.2 29,5.6 28.8,6 L28.8,12 L27.4,12 L27.4,3.5 L28.7,3.5 Z" id="Shape"></path>
                        </g>
                        <g id="Group" transform="translate(71.000000, 5.000000)" fill-rule="nonzero" fill="#424242">
                            <path d="M8.5,12 L1,12 L1,11 L4.9,6.6 C5.5,5.9 5.9,5.4 6.1,5 C6.3,4.6 6.4,4.2 6.4,3.7 C6.4,3.1 6.2,2.6 5.9,2.2 C5.6,1.8 5.1,1.6 4.5,1.6 C3.8,1.6 3.2,1.8 2.8,2.2 C2.4,2.6 2.2,3.2 2.2,3.9 L0.8,3.9 C0.8,2.9 1.1,2 1.8,1.4 C2.5,0.8 3.4,0.4 4.5,0.4 C5.6,0.4 6.4,0.7 7,1.2 C7.6,1.8 7.9,2.5 7.9,3.4 C7.9,4.5 7.2,5.9 5.8,7.4 L2.8,10.7 L8.5,10.7 L8.5,12 L8.5,12 Z" id="Shape"></path>
                        </g>
                        <g id="Selected-Disabled-Copy-4" stroke="#BDBDBD">
                            <path d="M14.1,16.7 L2.1,16.7 C1,16.7 0.1,15.8 0.1,14.7 L0.1,2.7 C0.1,1.6 1,0.7 2.1,0.7 L14.1,0.7 C15.2,0.7 16.1,1.6 16.1,2.7 L16.1,14.7 C16.1,15.8 15.2,16.7 14.1,16.7" id="Fill-21"></path>
                        </g>
                    </g>
                </g>
            </g>
        </g>
    </g>
</svg>