<?xml version="1.0" encoding="UTF-8" standalone="no"?>
<svg width="614px" height="390px" viewBox="0 0 614 390" version="1.1" xmlns="http://www.w3.org/2000/svg" xmlns:xlink="http://www.w3.org/1999/xlink">
    <!-- Generator: Sketch 46.2 (44496) - http://www.bohemiancoding.com/sketch -->
    <title>Hero Image</title>
    <desc>Created with Sketch.</desc>
    <defs></defs>
    <g id="*Document*" stroke="none" stroke-width="1" fill="none" fill-rule="evenodd">
        <g id="1)-Overview" transform="translate(-205.000000, -556.000000)">
            <g id="Section-Hero-Image" transform="translate(0.000000, 523.000000)">
                <g id="Hero-Image" transform="translate(205.000000, 33.000000)">
                    <g id="Section-Hero-Image-Copy">
                        <g id="hero-image">
                            <g id="Page-1">
                                <polygon id="Fill-1" fill="#B5E2EB" points="0 389.125208 612.42037 389.125208 612.42037 0 0 0"></polygon>
                                <polygon id="Fill-2" fill="#16B9D4" points="0.860140969 387.895625 123.159744 387.895625 123.159744 1.22416667 0.860140969 1.22416667"></polygon>
                                <polygon id="Fill-3" fill="#0E94A6" points="1.18742731 26.2383333 613.018141 26.2383333 613.018141 0.993958333 1.18742731 0.993958333"></polygon>
                            </g>
                        </g>
                    </g>
                    <g id="Group-2" transform="translate(154.000000, 58.000000)">
                        <rect id="Rectangle-3-Copy" fill="#70C2D3" x="0" y="69" width="141" height="16"></rect>
                        <rect id="Rectangle-3-Copy" fill="#70C2D3" x="0" y="95" width="95" height="16"></rect>
                        <rect id="Rectangle-3-Copy-4" fill="#F57C00" x="0" y="125" width="8" height="8"></rect>
                        <rect id="Rectangle-3-Copy-7" fill="#F57C00" x="0" y="136" width="8" height="8"></rect>
                        <rect id="Rectangle-3-Copy-8" fill="#F57C00" x="0" y="146.5" width="8" height="8"></rect>
                        <rect id="Rectangle-3-Copy-5" fill="#70C2D3" x="101" y="95" width="40" height="16"></rect>
                        <rect id="Rectangle-3-Copy-2" fill="#70C2D3" x="0" y="160" width="40" height="16" rx="2"></rect>
                        <rect id="Rectangle-3-Copy-3" stroke="#70C2D3" x="48.5" y="160.5" width="39" height="15" rx="2"></rect>
                        <path d="M96.5,168 L128.5,168" id="Line-2" stroke="#70C2D3" stroke-width="4" stroke-linecap="round"></path>
                        <path d="M3.5,1 L103.5,1" id="Line-2-Copy" stroke="#70C2D3" stroke-width="10" stroke-linecap="round"></path>
                        <g id="Group-3" transform="translate(0.000000, 38.000000)">
                            <rect id="Rectangle-3-Copy-6" fill="#70C2D3" x="0" y="5" width="141" height="16"></rect>
                            <path d="M2,1.5 L102,1.5" id="Line-2-Copy-2" stroke="#70C2D3" stroke-width="3" stroke-linecap="round"></path>
                        </g>
                        <path d="M2,66 L72,66" id="Line-2-Copy-3" stroke="#70C2D3" stroke-width="3" stroke-linecap="round"></path>
                        <path d="M2,92 L72,92" id="Line-2-Copy-4" stroke="#70C2D3" stroke-width="3" stroke-linecap="round"></path>
                        <path d="M2,118.5 L72,118.5" id="Line-2-Copy-6" stroke="#F57C00" stroke-width="3" stroke-linecap="round"></path>
                        <path d="M12.5,129 L82.5,129" id="Line-2-Copy-7" stroke="#F57C00" stroke-width="3" stroke-linecap="round"></path>
                        <path d="M12.5,140 L82.5,140" id="Line-2-Copy-8" stroke="#F57C00" stroke-width="3" stroke-linecap="round"></path>
                        <path d="M12.5,150 L82.5,150" id="Line-2-Copy-9" stroke="#F57C00" stroke-width="3" stroke-linecap="round"></path>
                        <path d="M103,92 L123,92" id="Line-2-Copy-5" stroke="#70C2D3" stroke-width="3" stroke-linecap="round"></path>
                    </g>
                </g>
            </g>
        </g>
    </g>
</svg>