<?xml version="1.0" encoding="UTF-8" standalone="no"?>
<svg width="489px" height="177px" viewBox="0 0 489 177" version="1.1" xmlns="http://www.w3.org/2000/svg" xmlns:xlink="http://www.w3.org/1999/xlink">
    <!-- Generator: Sketch 47.1 (45422) - http://www.bohemiancoding.com/sketch -->
    <title>checkbox-group-with-error-image</title>
    <desc>Created with Sketch.</desc>
    <style>
      @import url("https://fonts.googleapis.com/css?family=Roboto:300,400");
      @import url("https://stackpath.bootstrapcdn.com/font-awesome/4.7.0/css/font-awesome.min.css")
    </style>
    <defs>
        <rect id="path-1" x="0" y="0" width="16" height="16" rx="2"></rect>
        <polygon id="path-2" points="7 3.5 0 7 0 0"></polygon>
    </defs>
    <g id="Page-1" stroke="none" stroke-width="1" fill="none" fill-rule="evenodd">
        <g id="checkbox-group-with-error-image">
            <g id="Error-State" transform="translate(19.000000, 14.000000)">
                <g id="Group-with-error-image">
                    <g id="Error-Group-Image" transform="translate(0.500000, 0.000000)">
                        <text id="*-Selector-Title" font-family="Roboto-Regular, Roboto" font-size="14" font-weight="normal" letter-spacing="0.0839999989">
                            <tspan x="0" y="13" fill="#D32F2F">*</tspan>
                            <tspan x="6.11329687" y="13" letter-spacing="0.0734999999" fill="#CF3628"> </tspan>
                            <tspan x="9.65261719" y="13" letter-spacing="0.0734999999" fill="#616161">Selector</tspan>
                            <tspan x="61.2640547" y="13" letter-spacing="0.0734999999" fill="#333333"> </tspan>
                            <tspan x="64.5299375" y="13" letter-spacing="0.0734999999" fill="#616161">Title</tspan>
                        </text>
                        <text id="There-is-an-error-wi" font-family="Roboto-Regular, Roboto" font-size="13" font-weight="normal" line-spacing="15" fill="#D32F2F">
                            <tspan x="11" y="110">There is an error with the response </tspan>
                            <tspan x="11" y="125">to this question</tspan>
                        </text>
                        <g id="Checkbox---Error---Deselected" transform="translate(11.000000, 23.000000)">
                            <text id="Option-1-Copy-5" font-family="Roboto-Regular, Roboto" font-size="16" font-weight="normal" letter-spacing="-0.003" fill="#424242">
                                <tspan x="24" y="15">O</tspan>
                                <tspan x="34.997" y="15" letter-spacing="0.005">ption</tspan>
                                <tspan x="71.0610625" y="15"> </tspan>
                                <tspan x="75.019" y="15" letter-spacing="0.005">1</tspan>
                            </text>
                            <path d="M14.1316,18.1584 L2.1316,18.1584 C1.0266,18.1584 0.1316,17.2634 0.1316,16.1584 L0.1316,4.1584 C0.1316,3.0534 1.0266,2.1584 2.1316,2.1584 L14.1316,2.1584 C15.2366,2.1584 16.1316,3.0534 16.1316,4.1584 L16.1316,16.1584 C16.1316,17.2634 15.2366,18.1584 14.1316,18.1584" id="Fill-21-Copy" stroke="#BDBDBD"></path>
                        </g>
                        <g id="Checkbox---Error---Deselected" transform="translate(11.000000, 47.000000)">
                            <text id="Option-2-Copy" font-family="Roboto-Regular, Roboto" font-size="16" font-weight="normal" letter-spacing="-0.003" fill="#424242">
                                <tspan x="24" y="15">O</tspan>
                                <tspan x="34.997" y="15" letter-spacing="0.005">ption</tspan>
                                <tspan x="71.0610625" y="15"> 2</tspan>
                            </text>
                            <path d="M2,17.5 C1.173,17.5 0.5,16.827 0.5,16 L0.5,4 C0.5,3.173 1.173,2.5 2,2.5 L14,2.5 C14.827,2.5 15.5,3.173 15.5,4 L15.5,16 C15.5,16.827 14.827,17.5 14,17.5 L2,17.5 Z" id="Fill-60-Copy-8" stroke="#BDBDBD" fill="#FFFFFF"></path>
                        </g>
                        <g id="Checkbox---Error---Selected" transform="translate(11.000000, 70.000000)">
                            <text id="Option-3-Copy" font-family="Roboto-Regular, Roboto" font-size="16" font-weight="normal" letter-spacing="-0.003" fill="#424242">
                                <tspan x="24" y="15">O</tspan>
                                <tspan x="34.997" y="15" letter-spacing="0.005">ption</tspan>
                                <tspan x="71.0610625" y="15"> </tspan>
                                <tspan x="75.019" y="15" letter-spacing="0.005">3</tspan>
                            </text>
                            <g id="Checkbox---error---selected" transform="translate(0.000000, 2.000000)">
                                <g id="Rectangle-Copy-8">
                                    <use fill="#FFFFFF" fill-rule="evenodd" xlink:href="#path-1"></use>
                                    <rect stroke="#D32F2F" stroke-width="2" x="1" y="1" width="14" height="14" rx="2"></rect>
                                </g>
                                <path d="M6.81875,12.37375 C7.17375,12.35375 7.50375,12.18375 7.72625,11.90625 L12.72625,5.65625 C12.91,5.425 13,5.15 13,4.875 C13,4.50875 12.84,4.14625 12.53125,3.89875 C12.3,3.715 12.025,3.625 11.75,3.625 C11.38375,3.625 11.02125,3.78625 10.77375,4.09375 L6.64625,9.25375 L5.13375,7.74125 C4.89,7.4975 4.57,7.375 4.25,7.375 C3.93,7.375 3.61,7.4975 3.36625,7.74125 C3.1225,7.985 3,8.305 3,8.625 C3,8.945 3.12125,9.265 3.36625,9.50875 L5.86625,12.00875 C6.10125,12.24375 6.42,12.375 6.75,12.375 C6.7725,12.375 6.79625,12.375 6.81875,12.37375 Z" id="Fill-23" fill="#D32F2F"></path>
                            </g>
                        </g>
                    </g>
                    <g id="Annotation" transform="translate(10.000000, 88.000000)">
                        <g id="specs-/-spacing-/-stack-/-H-12px" transform="translate(0.500000, 0.000000)">
                            <rect id="Rectangle-3-Copy" fill="#9CC2EB" fill-rule="evenodd" x="0" y="0" width="100" height="12"></rect>
                            <text id="12" font-family="Roboto-Regular, Roboto" font-size="12" font-weight="normal" fill="#333333">
                                <tspan x="43" y="9">12</tspan>
                            </text>
                        </g>
                        <g id="specs-/-spacing-/-internal-/-H-20px" transform="translate(1.500000, 41.000000)">
                            <rect id="Rectangle-3-Copy-5" fill="#F9CD94" fill-rule="evenodd" x="0" y="0" width="84" height="20"></rect>
                            <text id="20" font-family="Roboto-Regular, Roboto" font-size="12" font-weight="normal" fill="#333333">
                                <tspan x="36.12" y="13">20</tspan>
                            </text>
                        </g>
                        <text id="Text:-13px,-#d32f2f" font-family="Roboto-Regular, Roboto" font-size="12" font-weight="normal" fill="#EC407A">
                            <tspan x="281" y="23">Text: 13px,  #d32f2f (red 900) </tspan>
                        </text>
                        <g id="specs-/-redlines-/-line-inclusive" transform="translate(238.000000, 19.000000) scale(-1, 1) translate(-238.000000, -19.000000) translate(208.500000, 5.000000)">
                            <path d="M0,13.86 L59,13.86" id="redline-line" stroke="#EC407A" stroke-width="1"></path>
                            <g id="specs-/-redlines-/-line-end-/-arrow" transform="translate(52.000000, 10.360000)">
                                <g id="redline-end">
                                    <use fill="#FFFFFF" fill-rule="evenodd" xlink:href="#path-2"></use>
                                    <path stroke="#EC407A" stroke-width="1" d="M5.88196601,3.5 L0.5,0.809016994 L0.5,6.19098301 L5.88196601,3.5 Z"></path>
                                </g>
                            </g>
                            <path d="M0.092039801,0.14 L0.092039801,27.86" id="Line" stroke="#F0367A" stroke-width="1" stroke-linecap="square"></path>
                        </g>
                    </g>
                </g>
            </g>
        </g>
    </g>
</svg>
