<?xml version="1.0" encoding="UTF-8" standalone="no"?>
<svg width="630px" height="330px" viewBox="0 0 630 330" version="1.1" xmlns="http://www.w3.org/2000/svg" xmlns:xlink="http://www.w3.org/1999/xlink">
    <!-- Generator: Sketch 47.1 (45422) - http://www.bohemiancoding.com/sketch -->
    <title>checkbox-group-with-error-image</title>
    <desc>Created with Sketch.</desc>
    <defs></defs>
    <g id="Page-1" stroke="none" stroke-width="1" fill="none" fill-rule="evenodd">
        <g id="checkbox-group-with-error-image">
            <g transform="translate(158.000000, 90.000000)">
                <g id="Error-Group-Image" transform="translate(0.500000, 0.000000)">
                    <g id="*-Selector-Title" font-size="16" font-family="Roboto-Regular, Roboto" font-weight="normal">
                        <text id="*" fill="#D32F2F">
                            <tspan x="0" y="15">*</tspan>
                        </text>
                        <text id="Selector-Title" fill="#333333">
                            <tspan x="11.0435625" y="15">Selector Title</tspan>
                        </text>
                    </g>
                    <g id="There-is-an-error-wi" transform="translate(11.000000, 100.000000)" font-size="13" font-family="Roboto-Regular, Roboto" fill="#D32F2F" font-weight="normal">
                        <text id="There-is-an-error-with-the-response">
                            <tspan x="0" y="12">There is an error with the response</tspan>
                        </text>
                        <text id="to-this-question">
                            <tspan x="0" y="27">to this question</tspan>
                        </text>
                    </g>
                    <g id="Checkbox---Error---Deselected" transform="translate(11.000000, 25.000000)">
                        <g id="Option-1-Copy-5" transform="translate(24.000000, 0.000000)" font-size="16" font-family="Roboto-Regular, Roboto" fill="#424242" font-weight="normal">
                            <text id="O">
                                <tspan x="0" y="15">O</tspan>
                            </text>
                            <text id="ption">
                                <tspan x="10.997" y="15">ption</tspan>
                            </text>
                            <text id="1">
                                <tspan x="51.019" y="15">1</tspan>
                            </text>
                        </g>
                        <path d="M14.1316,16.1584 L2.1316,16.1584 C1.0266,16.1584 0.1316,15.2634 0.1316,14.1584 L0.1316,2.1584 C0.1316,1.0534 1.0266,0.1584 2.1316,0.1584 L14.1316,0.1584 C15.2366,0.1584 16.1316,1.0534 16.1316,2.1584 L16.1316,14.1584 C16.1316,15.2634 15.2366,16.1584 14.1316,16.1584" id="Fill-21-Copy" stroke="#BDBDBD"></path>
                    </g>
                    <g id="Checkbox---Error---Deselected" transform="translate(11.000000, 49.000000)">
                        <g id="Option-2-Copy" transform="translate(24.000000, 0.000000)" font-size="16" font-family="Roboto-Regular, Roboto" fill="#424242" font-weight="normal">
                            <text id="O">
                                <tspan x="0" y="15">O</tspan>
                            </text>
                            <text id="ption">
                                <tspan x="10.997" y="15">ption</tspan>
                            </text>
                            <text id="2">
                                <tspan x="47.0610625" y="15">2</tspan>
                            </text>
                        </g>
                        <path d="M2,15.5 C1.173,15.5 0.5,14.827 0.5,14 L0.5,2 C0.5,1.173 1.173,0.5 2,0.5 L14,0.5 C14.827,0.5 15.5,1.173 15.5,2 L15.5,14 C15.5,14.827 14.827,15.5 14,15.5 L2,15.5 Z" id="Fill-60-Copy-8" stroke="#BDBDBD" fill="#FFFFFF" fill-rule="nonzero"></path>
                    </g>
                    <g id="Checkbox---Error---Selected" transform="translate(11.000000, 72.000000)">
                        <g id="Option-3-Copy" transform="translate(24.000000, 0.000000)" font-size="16" font-family="Roboto-Regular, Roboto" fill="#424242" font-weight="normal">
                            <text id="O">
                                <tspan x="0" y="15">O</tspan>
                            </text>
                            <text id="ption">
                                <tspan x="10.997" y="15">ption</tspan>
                            </text>
                            <text id="3">
                                <tspan x="51.019" y="15">3</tspan>
                            </text>
                        </g>
                        <g id="Checkbox---error---selected">
                            <g id="Rectangle-Copy-8">
                                <g id="path-3-link" fill="#FFFFFF">
                                    <rect id="path-3" x="0" y="0" width="16" height="16" rx="2"></rect>
                                </g>
                                <rect id="Rectangle-path" stroke="#D32F2F" stroke-width="2" x="1" y="1" width="14" height="14" rx="2"></rect>
                            </g>
                            <path d="M6.81875,12.37375 C7.17375,12.35375 7.50375,12.18375 7.72625,11.90625 L12.72625,5.65625 C12.91,5.425 13,5.15 13,4.875 C13,4.50875 12.84,4.14625 12.53125,3.89875 C12.3,3.715 12.025,3.625 11.75,3.625 C11.38375,3.625 11.02125,3.78625 10.77375,4.09375 L6.64625,9.25375 L5.13375,7.74125 C4.89,7.4975 4.57,7.375 4.25,7.375 C3.93,7.375 3.61,7.4975 3.36625,7.74125 C3.1225,7.985 3,8.305 3,8.625 C3,8.945 3.12125,9.265 3.36625,9.50875 L5.86625,12.00875 C6.10125,12.24375 6.42,12.375 6.75,12.375 C6.7725,12.375 6.79625,12.375 6.81875,12.37375 Z" id="Fill-23" fill="#D32F2F" fill-rule="nonzero"></path>
                        </g>
                    </g>
                </g>
                <g id="Annotation" transform="translate(10.000000, 88.000000)">
                    <g id="specs-/-spacing-/-stack-/-H-12px" transform="translate(0.500000, 0.000000)">
                        <rect id="Rectangle-3-Copy" fill="#9CC2EB" x="0" y="0" width="100" height="12"></rect>
                        <g id="12" transform="translate(43.000000, 0.000000)" font-size="12" font-family="Roboto-Regular, Roboto" fill="#333333" font-weight="normal">
                            <text>
                                <tspan x="0" y="11">12</tspan>
                            </text>
                        </g>
                    </g>
                    <g id="specs-/-spacing-/-internal-/-H-20px" transform="translate(1.500000, 41.000000)">
                        <rect id="Rectangle-3-Copy-5" fill="#F9CD94" x="0" y="0" width="84" height="20"></rect>
                        <g id="20" transform="translate(36.000000, 4.000000)" font-size="12" font-family="Roboto-Regular, Roboto" fill="#333333" font-weight="normal">
                            <text>
                                <tspan x="0.12" y="11">20</tspan>
                            </text>
                        </g>
                    </g>
                    <g id="Text:-13px,-#d32f2f" transform="translate(281.000000, 14.000000)" font-size="12" font-family="Roboto-Regular, Roboto" fill="#EC407A" font-weight="normal">
                        <text id="Text:-13px,-#d32f2f-(red-900)">
                            <tspan x="0" y="11">Text: 13px, #d32f2f (red 900)</tspan>
                        </text>
                    </g>
                    <g id="specs-/-redlines-/-line-inclusive" transform="translate(238.000000, 19.000000) scale(-1, 1) translate(-238.000000, -19.000000) translate(208.500000, 5.000000)">
                        <path d="M0,13.86 L59,13.86" id="redline-line" stroke="#EC407A"></path>
                        <g id="specs-/-redlines-/-line-end-/-arrow" transform="translate(52.000000, 10.360000)">
                            <g id="redline-end">
                                <g id="path-4-link" fill="#FFFFFF">
                                    <polygon id="path-4" points="7 3.5 0 7 0 0"></polygon>
                                </g>
                                <polygon id="Shape" stroke="#EC407A" points="5.88196601 3.5 0.5 0.809016994 0.5 6.19098301"></polygon>
                            </g>
                        </g>
                        <path d="M0.092039801,0.14 L0.092039801,27.86" id="Line" stroke="#F0367A" stroke-linecap="square"></path>
                    </g>
                </g>
            </g>
        </g>
    </g>
</svg>