<?xml version="1.0" encoding="UTF-8" standalone="no"?>
<svg width="395px" height="169px" viewBox="0 0 395 169" version="1.1" xmlns="http://www.w3.org/2000/svg" xmlns:xlink="http://www.w3.org/1999/xlink">
    <!-- Generator: Sketch 47.1 (45422) - http://www.bohemiancoding.com/sketch -->
    <title>checkbox-required-group-image</title>
    <desc>Created with Sketch.</desc>
    <defs>
        <polygon id="path-1" points="7 3.5 0 7 0 0"></polygon>
        <circle id="path-2" cx="3.5" cy="3.5" r="3.5"></circle>
    </defs>
    <g id="Page-1" stroke="none" stroke-width="1" fill="none" fill-rule="evenodd">
        <g id="checkbox-required-group-image">
            <g id="Required-group" transform="translate(31.000000, 16.000000)">
                <g id="Required-group-image">
                    <g id="Checkbox-Group">
                        <g id="Checkbox" transform="translate(11.000000, 117.000000)">
                            <text id="Option-3" font-family="Roboto-Regular, Roboto" font-size="16" font-weight="normal" letter-spacing="-0.003" fill="#424242">
                                <tspan x="23" y="15">O</tspan>
                                <tspan x="33.997" y="15" letter-spacing="0.005">ption</tspan>
                                <tspan x="70.0610625" y="15"> </tspan>
                                <tspan x="74.019" y="15" letter-spacing="0.005">3</tspan>
                            </text>
                            <path d="M1.5,17 C0.673,17 0,16.327 0,15.5 L0,3.5 C0,2.673 0.673,2 1.5,2 L13.5,2 C14.327,2 15,2.673 15,3.5 L15,15.5 C15,16.327 14.327,17 13.5,17 L1.5,17 Z" id="Fill-60-Copy" stroke="#BDBDBD" fill="#FFFFFF"></path>
                        </g>
                        <text id="*-Selector-Title" font-family="Roboto-Regular, Roboto" font-size="14" font-weight="normal" letter-spacing="0.0839999989">
                            <tspan x="0" y="60" fill="#CD382F">* </tspan>
                            <tspan x="9.66311719" y="60" letter-spacing="0.0734999999" fill="#616161">Selector Title</tspan>
                        </text>
                        <g id="Group-12">
                            <text id="asterisk-color:-#d32" font-family="Roboto-Regular, Roboto" font-size="12" font-weight="normal" fill="#EC407A">
                                <tspan x="157" y="11">asterisk color: #d32f2f (red 900) </tspan>
                            </text>
                            <g id="specs-/-redlines-/-line-regular" transform="translate(75.000000, 23.000000) scale(-1, 1) rotate(-270.000000) translate(-75.000000, -23.000000) translate(56.000000, -52.000000)">
                                <path d="M3.5,149.5 L3.5,20.4979712 C3.5,11.1102509 11.1090949,3.5 20.5,3.5 L37.5,3.5" id="redline-line" stroke="#EC407A" stroke-width="1"></path>
                                <g id="specs-/-redlines-/-line-end-/-arrow" transform="translate(31.000000, 0.000000)">
                                    <g id="redline-end">
                                        <use fill="#FFFFFF" fill-rule="evenodd" xlink:href="#path-1"></use>
                                        <path stroke="#EC407A" stroke-width="1" d="M5.88196601,3.5 L0.5,0.809016994 L0.5,6.19098301 L5.88196601,3.5 Z"></path>
                                    </g>
                                </g>
                                <g id="specs-/-redlines-/-line-end-/-circle" transform="translate(0.000000, 143.000000)">
                                    <g id="redline-start">
                                        <use fill="#FFFFFF" fill-rule="evenodd" xlink:href="#path-2"></use>
                                        <circle stroke="#EC407A" stroke-width="1" cx="3.5" cy="3.5" r="3"></circle>
                                    </g>
                                </g>
                            </g>
                        </g>
                        <g id="Checkbox" transform="translate(10.000000, 72.000000)">
                            <text id="Option-1" font-family="Roboto-Regular, Roboto" font-size="16" font-weight="normal" letter-spacing="-0.003" fill="#424242">
                                <tspan x="24" y="15">O</tspan>
                                <tspan x="34.997" y="15" letter-spacing="0.005">ption</tspan>
                                <tspan x="71.0610625" y="15"> </tspan>
                                <tspan x="75.019" y="15" letter-spacing="0.005">1</tspan>
                            </text>
                            <g id="Selected-Copy" stroke="#BDBDBD">
                                <path d="M14,16 L2,16 C0.895,16 0,15.105 0,14 L0,2 C0,0.895 0.895,0 2,0 L14,0 C15.105,0 16,0.895 16,2 L16,14 C16,15.105 15.105,16 14,16" id="Fill-26"></path>
                            </g>
                        </g>
                        <g id="Checkbox" transform="translate(10.000000, 94.000000)">
                            <text id="Option-2" font-family="Roboto-Regular, Roboto" font-size="16" font-weight="normal" letter-spacing="-0.003" fill="#424242">
                                <tspan x="24" y="15">O</tspan>
                                <tspan x="34.997" y="15" letter-spacing="0.005">ption</tspan>
                                <tspan x="71.0610625" y="15"> 2</tspan>
                            </text>
                            <g id="Selected-Disabled-Copy-4" stroke="#BDBDBD">
                                <path d="M14.1316,16.6584 L2.1316,16.6584 C1.0266,16.6584 0.1316,15.7634 0.1316,14.6584 L0.1316,2.6584 C0.1316,1.5534 1.0266,0.6584 2.1316,0.6584 L14.1316,0.6584 C15.2366,0.6584 16.1316,1.5534 16.1316,2.6584 L16.1316,14.6584 C16.1316,15.7634 15.2366,16.6584 14.1316,16.6584" id="Fill-21"></path>
                            </g>
                        </g>
                    </g>
                </g>
            </g>
        </g>
    </g>
</svg>