<?xml version="1.0" encoding="UTF-8" standalone="no"?>
<svg width="633px" height="332px" viewBox="0 0 633 332" version="1.1" xmlns="http://www.w3.org/2000/svg" xmlns:xlink="http://www.w3.org/1999/xlink">
    <!-- Generator: Sketch 47.1 (45422) - http://www.bohemiancoding.com/sketch -->
    <title>checkbox-group-image</title>
    <desc>Created with Sketch.</desc>
    <defs></defs>
    <g id="Page-1" stroke="none" stroke-width="1" fill="none" fill-rule="evenodd">
        <g id="checkbox-group-image">
            <g transform="translate(168.000000, 83.000000)">
                <g id="Checkbox-Group" transform="translate(3.000000, 20.000000)" fill-rule="nonzero">
                    <g id="Group" transform="translate(25.000000, 23.000000)" fill="#333333">
                        <path d="M9.6,6.7 C9.6,7.8 9.4,8.8 9,9.6 C8.6,10.4 8.1,11.1 7.4,11.5 C6.7,11.9 5.9,12.2 5,12.2 C4.1,12.2 3.3,12 2.6,11.5 C1.9,11.1 1.4,10.4 1,9.6 C0.6,8.8 0.4,7.8 0.4,6.8 L0.4,6 C0.4,4.9 0.6,3.9 1,3.1 C1.4,2.3 1.9,1.6 2.6,1.2 C3.3,0.8 4.1,0.5 5,0.5 C5.9,0.5 6.7,0.7 7.4,1.2 C8.1,1.7 8.6,2.3 9,3.1 C9.4,3.9 9.6,4.9 9.6,6 L9.6,6.7 Z M8.1,5.9 C8.1,4.6 7.8,3.5 7.3,2.8 C6.8,2.1 6,1.7 5,1.7 C4.1,1.7 3.3,2.1 2.8,2.8 C2.3,3.5 2,4.5 2,5.8 L2,6.6 C2,7.9 2.3,8.9 2.8,9.7 C3.3,10.4 4.1,10.8 5.1,10.8 C6.1,10.8 6.8,10.4 7.3,9.7 C7.8,9 8.1,8 8.1,6.7 L8.1,5.9 Z" id="Shape"></path>
                    </g>
                    <g id="Group" transform="translate(36.000000, 23.000000)" fill="#333333">
                        <path d="M7.7,7.9 C7.7,9.2 7.4,10.2 6.8,11 C6.2,11.8 5.4,12.2 4.4,12.2 C3.4,12.2 2.6,11.9 2,11.2 L2,15.3 L0.6,15.3 L0.6,3.5 L1.9,3.5 L2,4.4 C2.6,3.7 3.4,3.3 4.5,3.3 C5.5,3.3 6.3,3.7 6.9,4.4 C7.5,5.2 7.8,6.2 7.8,7.6 L7.8,7.9 L7.7,7.9 Z M6.3,7.7 C6.3,6.7 6.1,6 5.7,5.4 C5.3,4.8 4.7,4.6 4,4.6 C3.1,4.6 2.5,5 2,5.8 L2,9.8 C2.4,10.6 3.1,11 4,11 C4.7,11 5.2,10.7 5.7,10.2 C6.1,9.6 6.3,8.8 6.3,7.7 Z" id="Shape"></path>
                        <path d="M11.5,1.5 L11.5,3.5 L13.1,3.5 L13.1,4.6 L11.5,4.6 L11.5,9.8 C11.5,10.1 11.6,10.4 11.7,10.6 C11.8,10.8 12.1,10.9 12.4,10.9 C12.6,10.9 12.8,10.9 13.1,10.8 L13.1,12 C12.7,12.1 12.3,12.2 12,12.2 C11.4,12.2 10.9,12 10.5,11.6 C10.1,11.2 10,10.7 10,9.9 L10,4.7 L8.5,4.7 L8.5,3.6 L10,3.6 L10,1.6 L11.5,1.6 L11.5,1.5 Z" id="Shape"></path>
                        <path d="M14.8,1.3 C14.8,1.1 14.9,0.9 15,0.7 C15.1,0.5 15.4,0.5 15.6,0.5 C15.8,0.5 16.1,0.6 16.2,0.7 C16.3,0.9 16.4,1.1 16.4,1.3 C16.4,1.5 16.3,1.7 16.2,1.9 C16.1,2.1 15.8,2.1 15.6,2.1 C15.4,2.1 15.2,2 15,1.9 C14.9,1.7 14.8,1.5 14.8,1.3 Z M16.4,12 L15,12 L15,3.5 L16.4,3.5 L16.4,12 Z" id="Shape"></path>
                        <path d="M18.3,7.7 C18.3,6.9 18.5,6.1 18.8,5.5 C19.1,4.8 19.6,4.3 20.2,4 C20.8,3.6 21.4,3.5 22.2,3.5 C23.4,3.5 24.3,3.9 25,4.7 C25.7,5.5 26.1,6.6 26.1,7.9 L26.1,8 C26.1,8.8 25.9,9.6 25.6,10.2 C25.3,10.9 24.8,11.4 24.2,11.7 C23.6,12 22.9,12.2 22.2,12.2 C21.1,12.2 20.1,11.8 19.4,11 C18.7,10.2 18.3,9.1 18.3,7.8 L18.3,7.7 Z M19.7,7.9 C19.7,8.8 19.9,9.6 20.4,10.2 C20.8,10.8 21.4,11.1 22.1,11.1 C22.8,11.1 23.4,10.8 23.9,10.2 C24.3,9.6 24.5,8.8 24.5,7.8 C24.5,6.9 24.3,6.1 23.8,5.5 C23.4,4.9 22.8,4.6 22,4.6 C21.3,4.6 20.7,4.9 20.3,5.5 C19.9,6.1 19.7,6.8 19.7,7.9 Z" id="Shape"></path>
                        <path d="M29.2,3.5 L29.2,4.6 C29.8,3.8 30.7,3.4 31.7,3.4 C33.5,3.4 34.4,4.4 34.4,6.4 L34.4,12 L33,12 L33,6.4 C33,5.8 32.9,5.3 32.6,5 C32.3,4.7 31.9,4.6 31.3,4.6 C30.8,4.6 30.4,4.7 30.1,5 C29.7,5.2 29.5,5.6 29.3,6 L29.3,12 L27.9,12 L27.9,3.5 L29.2,3.5 Z" id="Shape"></path>
                    </g>
                    <g id="Group" transform="translate(76.000000, 23.000000)" fill="#333333">
                        <polygon id="Shape" points="5.2 12 3.7 12 3.7 2.4 0.8 3.5 0.8 2.2 4.9 0.6 5.1 0.6 5.1 12"></polygon>
                    </g>
                    <g id="Group" transform="translate(25.000000, 55.000000)" fill="#333333">
                        <path d="M9.6,6.7 C9.6,7.8 9.4,8.8 9,9.6 C8.6,10.4 8.1,11.1 7.4,11.5 C6.7,11.9 5.9,12.2 5,12.2 C4.1,12.2 3.3,12 2.6,11.5 C1.9,11.1 1.4,10.4 1,9.6 C0.6,8.8 0.4,7.8 0.4,6.8 L0.4,6 C0.4,4.9 0.6,3.9 1,3.1 C1.4,2.3 1.9,1.6 2.6,1.2 C3.3,0.8 4.1,0.5 5,0.5 C5.9,0.5 6.7,0.7 7.4,1.2 C8.1,1.7 8.6,2.3 9,3.1 C9.4,3.9 9.6,4.9 9.6,6 L9.6,6.7 Z M8.1,5.9 C8.1,4.6 7.8,3.5 7.3,2.8 C6.8,2.1 6,1.7 5,1.7 C4.1,1.7 3.3,2.1 2.8,2.8 C2.3,3.5 2,4.5 2,5.8 L2,6.6 C2,7.9 2.3,8.9 2.8,9.7 C3.3,10.4 4.1,10.8 5.1,10.8 C6.1,10.8 6.8,10.4 7.3,9.7 C7.8,9 8.1,8 8.1,6.7 L8.1,5.9 Z" id="Shape"></path>
                    </g>
                    <g id="Group" transform="translate(36.000000, 55.000000)" fill="#333333">
                        <path d="M7.7,7.9 C7.7,9.2 7.4,10.2 6.8,11 C6.2,11.8 5.4,12.2 4.4,12.2 C3.4,12.2 2.6,11.9 2,11.2 L2,15.3 L0.6,15.3 L0.6,3.5 L1.9,3.5 L2,4.4 C2.6,3.7 3.4,3.3 4.5,3.3 C5.5,3.3 6.3,3.7 6.9,4.4 C7.5,5.2 7.8,6.2 7.8,7.6 L7.8,7.9 L7.7,7.9 Z M6.3,7.7 C6.3,6.7 6.1,6 5.7,5.4 C5.3,4.8 4.7,4.6 4,4.6 C3.1,4.6 2.5,5 2,5.8 L2,9.8 C2.4,10.6 3.1,11 4,11 C4.7,11 5.2,10.7 5.7,10.2 C6.1,9.6 6.3,8.8 6.3,7.7 Z" id="Shape"></path>
                        <path d="M11.5,1.5 L11.5,3.5 L13.1,3.5 L13.1,4.6 L11.5,4.6 L11.5,9.8 C11.5,10.1 11.6,10.4 11.7,10.6 C11.8,10.8 12.1,10.9 12.4,10.9 C12.6,10.9 12.8,10.9 13.1,10.8 L13.1,12 C12.7,12.1 12.3,12.2 12,12.2 C11.4,12.2 10.9,12 10.5,11.6 C10.1,11.2 10,10.7 10,9.9 L10,4.7 L8.5,4.7 L8.5,3.6 L10,3.6 L10,1.6 L11.5,1.6 L11.5,1.5 Z" id="Shape"></path>
                        <path d="M14.8,1.3 C14.8,1.1 14.9,0.9 15,0.7 C15.1,0.5 15.4,0.5 15.6,0.5 C15.8,0.5 16.1,0.6 16.2,0.7 C16.3,0.9 16.4,1.1 16.4,1.3 C16.4,1.5 16.3,1.7 16.2,1.9 C16.1,2.1 15.8,2.1 15.6,2.1 C15.4,2.1 15.2,2 15,1.9 C14.9,1.7 14.8,1.5 14.8,1.3 Z M16.4,12 L15,12 L15,3.5 L16.4,3.5 L16.4,12 Z" id="Shape"></path>
                        <path d="M18.3,7.7 C18.3,6.9 18.5,6.1 18.8,5.5 C19.1,4.8 19.6,4.3 20.2,4 C20.8,3.6 21.4,3.5 22.2,3.5 C23.4,3.5 24.3,3.9 25,4.7 C25.7,5.5 26.1,6.6 26.1,7.9 L26.1,8 C26.1,8.8 25.9,9.6 25.6,10.2 C25.3,10.9 24.8,11.4 24.2,11.7 C23.6,12 22.9,12.2 22.2,12.2 C21.1,12.2 20.1,11.8 19.4,11 C18.7,10.2 18.3,9.1 18.3,7.8 L18.3,7.7 Z M19.7,7.9 C19.7,8.8 19.9,9.6 20.4,10.2 C20.8,10.8 21.4,11.1 22.1,11.1 C22.8,11.1 23.4,10.8 23.9,10.2 C24.3,9.6 24.5,8.8 24.5,7.8 C24.5,6.9 24.3,6.1 23.8,5.5 C23.4,4.9 22.8,4.6 22,4.6 C21.3,4.6 20.7,4.9 20.3,5.5 C19.9,6.1 19.7,6.8 19.7,7.9 Z" id="Shape"></path>
                        <path d="M29.2,3.5 L29.2,4.6 C29.8,3.8 30.7,3.4 31.7,3.4 C33.5,3.4 34.4,4.4 34.4,6.4 L34.4,12 L33,12 L33,6.4 C33,5.8 32.9,5.3 32.6,5 C32.3,4.7 31.9,4.6 31.3,4.6 C30.8,4.6 30.4,4.7 30.1,5 C29.7,5.2 29.5,5.6 29.3,6 L29.3,12 L27.9,12 L27.9,3.5 L29.2,3.5 Z" id="Shape"></path>
                    </g>
                    <g id="Group" transform="translate(76.000000, 55.000000)" fill="#333333">
                        <polygon id="Shape" points="5.2 12 3.7 12 3.7 2.4 0.8 3.5 0.8 2.2 4.9 0.6 5.1 0.6 5.1 12"></polygon>
                    </g>
                    <g id="Group" transform="translate(25.000000, 75.000000)" fill="#333333">
                        <path d="M9.6,6.7 C9.6,7.8 9.4,8.8 9,9.6 C8.6,10.4 8.1,11.1 7.4,11.5 C6.7,11.9 5.9,12.2 5,12.2 C4.1,12.2 3.3,12 2.6,11.5 C1.9,11.1 1.4,10.4 1,9.6 C0.6,8.8 0.4,7.8 0.4,6.8 L0.4,6 C0.4,4.9 0.6,3.9 1,3.1 C1.4,2.3 1.9,1.6 2.6,1.2 C3.3,0.8 4.1,0.5 5,0.5 C5.9,0.5 6.7,0.7 7.4,1.2 C8.1,1.7 8.6,2.3 9,3.1 C9.4,3.9 9.6,4.9 9.6,6 L9.6,6.7 Z M8.1,5.9 C8.1,4.6 7.8,3.5 7.3,2.8 C6.8,2.1 6,1.7 5,1.7 C4.1,1.7 3.3,2.1 2.8,2.8 C2.3,3.5 2,4.5 2,5.8 L2,6.6 C2,7.9 2.3,8.9 2.8,9.7 C3.3,10.4 4.1,10.8 5.1,10.8 C6.1,10.8 6.8,10.4 7.3,9.7 C7.8,9 8.1,8 8.1,6.7 L8.1,5.9 Z" id="Shape"></path>
                    </g>
                    <g id="Group" transform="translate(36.000000, 75.000000)" fill="#333333">
                        <path d="M7.7,7.9 C7.7,9.2 7.4,10.2 6.8,11 C6.2,11.8 5.4,12.2 4.4,12.2 C3.4,12.2 2.6,11.9 2,11.2 L2,15.3 L0.6,15.3 L0.6,3.5 L1.9,3.5 L2,4.4 C2.6,3.7 3.4,3.3 4.5,3.3 C5.5,3.3 6.3,3.7 6.9,4.4 C7.5,5.2 7.8,6.2 7.8,7.6 L7.8,7.9 L7.7,7.9 Z M6.3,7.7 C6.3,6.7 6.1,6 5.7,5.4 C5.3,4.8 4.7,4.6 4,4.6 C3.1,4.6 2.5,5 2,5.8 L2,9.8 C2.4,10.6 3.1,11 4,11 C4.7,11 5.2,10.7 5.7,10.2 C6.1,9.6 6.3,8.8 6.3,7.7 Z" id="Shape"></path>
                        <path d="M11.5,1.5 L11.5,3.5 L13.1,3.5 L13.1,4.6 L11.5,4.6 L11.5,9.8 C11.5,10.1 11.6,10.4 11.7,10.6 C11.8,10.8 12.1,10.9 12.4,10.9 C12.6,10.9 12.8,10.9 13.1,10.8 L13.1,12 C12.7,12.1 12.3,12.2 12,12.2 C11.4,12.2 10.9,12 10.5,11.6 C10.1,11.2 10,10.7 10,9.9 L10,4.7 L8.5,4.7 L8.5,3.6 L10,3.6 L10,1.6 L11.5,1.6 L11.5,1.5 Z" id="Shape"></path>
                        <path d="M14.8,1.3 C14.8,1.1 14.9,0.9 15,0.7 C15.1,0.5 15.4,0.5 15.6,0.5 C15.8,0.5 16.1,0.6 16.2,0.7 C16.3,0.9 16.4,1.1 16.4,1.3 C16.4,1.5 16.3,1.7 16.2,1.9 C16.1,2.1 15.8,2.1 15.6,2.1 C15.4,2.1 15.2,2 15,1.9 C14.9,1.7 14.8,1.5 14.8,1.3 Z M16.4,12 L15,12 L15,3.5 L16.4,3.5 L16.4,12 Z" id="Shape"></path>
                        <path d="M18.3,7.7 C18.3,6.9 18.5,6.1 18.8,5.5 C19.1,4.8 19.6,4.3 20.2,4 C20.8,3.6 21.4,3.5 22.2,3.5 C23.4,3.5 24.3,3.9 25,4.7 C25.7,5.5 26.1,6.6 26.1,7.9 L26.1,8 C26.1,8.8 25.9,9.6 25.6,10.2 C25.3,10.9 24.8,11.4 24.2,11.7 C23.6,12 22.9,12.2 22.2,12.2 C21.1,12.2 20.1,11.8 19.4,11 C18.7,10.2 18.3,9.1 18.3,7.8 L18.3,7.7 Z M19.7,7.9 C19.7,8.8 19.9,9.6 20.4,10.2 C20.8,10.8 21.4,11.1 22.1,11.1 C22.8,11.1 23.4,10.8 23.9,10.2 C24.3,9.6 24.5,8.8 24.5,7.8 C24.5,6.9 24.3,6.1 23.8,5.5 C23.4,4.9 22.8,4.6 22,4.6 C21.3,4.6 20.7,4.9 20.3,5.5 C19.9,6.1 19.7,6.8 19.7,7.9 Z" id="Shape"></path>
                        <path d="M29.2,3.5 L29.2,4.6 C29.8,3.8 30.7,3.4 31.7,3.4 C33.5,3.4 34.4,4.4 34.4,6.4 L34.4,12 L33,12 L33,6.4 C33,5.8 32.9,5.3 32.6,5 C32.3,4.7 31.9,4.6 31.3,4.6 C30.8,4.6 30.4,4.7 30.1,5 C29.7,5.2 29.5,5.6 29.3,6 L29.3,12 L27.9,12 L27.9,3.5 L29.2,3.5 Z" id="Shape"></path>
                    </g>
                    <g id="Group" transform="translate(76.000000, 75.000000)" fill="#333333">
                        <polygon id="Shape" points="5.2 12 3.7 12 3.7 2.4 0.8 3.5 0.8 2.2 4.9 0.6 5.1 0.6 5.1 12"></polygon>
                    </g>
                    <path d="M3,87.5 C2.2,87.5 1.5,86.8 1.5,86 L1.5,74 C1.5,73.2 2.2,72.5 3,72.5 L15,72.5 C15.8,72.5 16.5,73.2 16.5,74 L16.5,86 C16.5,86.8 15.8,87.5 15,87.5 L3,87.5 Z" id="Fill-60" stroke="#BDBDBD" fill="#FFFFFF"></path>
                    <path d="M3,67.5 C2.2,67.5 1.5,66.8 1.5,66 L1.5,54 C1.5,53.2 2.2,52.5 3,52.5 L15,52.5 C15.8,52.5 16.5,53.2 16.5,54 L16.5,66 C16.5,66.8 15.8,67.5 15,67.5 L3,67.5 Z" id="Fill-60-Copy-5" stroke="#BDBDBD" fill="#FFFFFF"></path>
                    <path d="M3,35.5 C2.2,35.5 1.5,34.8 1.5,34 L1.5,22 C1.5,21.2 2.2,20.5 3,20.5 L15,20.5 C15.8,20.5 16.5,21.2 16.5,22 L16.5,34 C16.5,34.8 15.8,35.5 15,35.5 L3,35.5 Z" id="Fill-60-Copy-6" stroke="#BDBDBD" fill="#FFFFFF"></path>
                    <g id="Group" transform="translate(26.000000, 39.000000)" fill="#6B6B6B">
                        <path d="M7.1,5 C7.1,5.8 7,6.6 6.7,7.2 C6.4,7.8 6,8.3 5.5,8.6 C5,8.9 4.4,9.1 3.7,9.1 C3,9.1 2.4,8.9 1.9,8.6 C1.4,8.3 1,7.8 0.7,7.2 C0.4,6.6 0.3,5.9 0.3,5.1 L0.3,4.5 C0.3,3.7 0.4,3 0.7,2.3 C1,1.6 1.4,1.2 1.9,0.9 C2.4,0.6 3,0.4 3.7,0.4 C4.4,0.4 5,0.6 5.5,0.9 C6,1.2 6.4,1.7 6.7,2.3 C7,2.9 7.1,3.7 7.1,4.5 L7.1,5 Z M5.9,4.5 C5.9,3.5 5.7,2.7 5.3,2.2 C4.9,1.7 4.3,1.4 3.6,1.4 C2.9,1.4 2.3,1.7 1.9,2.2 C1.5,2.7 1.3,3.5 1.3,4.5 L1.3,5 C1.3,6 1.5,6.8 1.9,7.3 C2.3,7.8 2.9,8.1 3.6,8.1 C4.3,8.1 4.9,7.8 5.3,7.3 C5.7,6.8 5.9,6 5.9,5 L5.9,4.5 Z" id="Shape"></path>
                    </g>
                    <g id="Group" transform="translate(34.000000, 39.000000)" fill="#6B6B6B">
                        <path d="M5.9,5.9 C5.9,6.9 5.7,7.6 5.2,8.2 C4.7,8.8 4.2,9.1 3.4,9.1 C2.6,9.1 2,8.9 1.6,8.4 L1.6,11.5 L0.5,11.5 L0.5,2.7 L1.5,2.7 L1.6,3.4 C2,2.9 2.7,2.6 3.4,2.6 C4.2,2.6 4.8,2.9 5.2,3.5 C5.6,4.1 5.9,4.8 5.9,5.9 L5.9,5.9 Z M4.8,5.8 C4.8,5.1 4.6,4.5 4.3,4.1 C4,3.7 3.6,3.5 3,3.5 C2.3,3.5 1.9,3.8 1.5,4.4 L1.5,7.4 C1.8,8 2.3,8.3 3,8.3 C3.5,8.3 3.9,8.1 4.2,7.7 C4.5,7.3 4.8,6.6 4.8,5.8 Z" id="Shape"></path>
                        <path d="M8.8,1.1 L8.8,2.6 L10,2.6 L10,3.4 L8.8,3.4 L8.8,7.3 C8.8,7.6 8.9,7.7 9,7.9 C9.1,8.1 9.3,8.1 9.5,8.1 C9.6,8.1 9.8,8.1 10,8 L10,9 C9.7,9.1 9.4,9.1 9.2,9.1 C8.7,9.1 8.4,9 8.1,8.7 C7.8,8.4 7.7,8 7.7,7.5 L7.7,3.6 L6.5,3.6 L6.5,2.8 L7.7,2.8 L7.7,1.3 L8.8,1.3 L8.8,1.1 Z" id="Shape"></path>
                        <path d="M11.2,1 C11.2,0.8 11.3,0.7 11.4,0.6 C11.5,0.5 11.7,0.4 11.9,0.4 C12.1,0.4 12.3,0.5 12.4,0.6 C12.5,0.7 12.6,0.9 12.6,1 C12.6,1.1 12.5,1.3 12.4,1.4 C12.3,1.5 12.1,1.6 11.9,1.6 C11.7,1.6 11.5,1.5 11.4,1.4 C11.3,1.3 11.2,1.2 11.2,1 Z M12.4,9 L11.3,9 L11.3,2.7 L12.4,2.7 L12.4,9 Z" id="Shape"></path>
                        <path d="M13.8,5.8 C13.8,5.2 13.9,4.6 14.2,4.1 C14.5,3.6 14.8,3.2 15.2,3 C15.6,2.8 16.1,2.6 16.7,2.6 C17.6,2.6 18.3,2.9 18.8,3.5 C19.3,4.1 19.6,4.9 19.6,5.9 L19.6,6 C19.6,6.6 19.5,7.2 19.2,7.7 C18.9,8.2 18.6,8.6 18.2,8.8 C17.8,9 17.3,9.2 16.7,9.2 C15.8,9.2 15.1,8.9 14.6,8.3 C14.1,7.7 13.8,6.8 13.8,5.8 L13.8,5.8 Z M14.9,5.9 C14.9,6.6 15.1,7.2 15.4,7.6 C15.7,8 16.2,8.2 16.7,8.2 C17.3,8.2 17.7,8 18,7.6 C18.3,7.2 18.5,6.6 18.5,5.8 C18.5,5.1 18.3,4.5 18,4.1 C17.7,3.7 17.2,3.5 16.7,3.5 C16.2,3.5 15.7,3.7 15.4,4.1 C15.1,4.5 14.9,5.1 14.9,5.9 Z" id="Shape"></path>
                        <path d="M22,2.7 L22,3.5 C22.5,2.9 23.1,2.6 23.9,2.6 C25.2,2.6 25.9,3.4 25.9,4.9 L25.9,9 L24.8,9 L24.8,4.8 C24.8,4.3 24.7,4 24.5,3.8 C24.3,3.6 24,3.5 23.5,3.5 C23.1,3.5 22.8,3.6 22.6,3.8 C22.4,4 22.1,4.2 22,4.5 L22,9 L21,9 L21,2.7 L22,2.7 Z" id="Shape"></path>
                    </g>
                    <g id="Group" transform="translate(64.000000, 39.000000)" fill="#6B6B6B">
                        <polygon id="Shape" points="4.1 9 3 9 3 1.8 0.8 2.6 0.8 1.6 3.9 0.4 4.1 0.4"></polygon>
                    </g>
                    <g id="Group" transform="translate(74.000000, 41.000000)" fill="#6B6B6B">
                        <path d="M4,5.3 C4,5 3.9,4.8 3.7,4.6 C3.5,4.4 3.1,4.3 2.5,4.2 C1.9,4.1 1.5,3.9 1.2,3.8 C0.9,3.7 0.6,3.4 0.5,3.2 C0.4,3 0.3,2.7 0.3,2.4 C0.3,1.9 0.5,1.4 1,1.1 C1.5,0.8 2,0.6 2.7,0.6 C3.4,0.6 4,0.8 4.4,1.2 C4.8,1.6 5.1,2 5.1,2.6 L4,2.6 C4,2.3 3.9,2 3.6,1.8 C3.3,1.6 3,1.5 2.6,1.5 C2.2,1.5 1.9,1.6 1.7,1.8 C1.5,2 1.4,2.2 1.4,2.5 C1.4,2.8 1.5,3 1.7,3.1 C1.9,3.2 2.3,3.4 2.8,3.5 C3.3,3.6 3.8,3.8 4.1,3.9 C4.4,4 4.7,4.3 4.8,4.5 C4.9,4.7 5,5 5,5.4 C5,6 4.8,6.4 4.3,6.8 C3.8,7.2 3.3,7.3 2.5,7.3 C2,7.3 1.5,7.2 1.2,7 C0.9,6.8 0.5,6.6 0.3,6.2 C0.1,5.8 0,5.4 0,5 L1.1,5 C1.1,5.4 1.3,5.7 1.5,5.9 C1.7,6.1 2.1,6.2 2.6,6.2 C3,6.2 3.3,6.1 3.6,6 C3.9,5.9 4,5.6 4,5.3 Z" id="Shape"></path>
                    </g>
                    <g id="Group" transform="translate(80.000000, 41.000000)" fill="#6B6B6B">
                        <path d="M4.4,6.4 C4,6.9 3.4,7.1 2.5,7.1 C1.8,7.1 1.3,6.9 1,6.5 C0.7,6.1 0.5,5.5 0.5,4.8 L0.5,0.7 L1.6,0.7 L1.6,4.8 C1.6,5.8 2,6.2 2.8,6.2 C3.6,6.2 4.2,5.9 4.5,5.3 L4.5,0.7 L5.6,0.7 L5.6,7 L4.6,7 L4.4,6.4 Z" id="Shape"></path>
                        <path d="M12.5,3.9 C12.5,4.9 12.3,5.6 11.8,6.2 C11.3,6.8 10.8,7.1 10,7.1 C9.2,7.1 8.6,6.9 8.2,6.4 L8.2,9.5 L7.1,9.5 L7.1,0.7 L8.1,0.7 L8.2,1.4 C8.6,0.9 9.3,0.6 10,0.6 C10.8,0.6 11.4,0.9 11.8,1.5 C12.2,2.1 12.5,2.8 12.5,3.9 L12.5,3.9 Z M11.4,3.8 C11.4,3.1 11.2,2.5 10.9,2.1 C10.6,1.7 10.2,1.5 9.6,1.5 C8.9,1.5 8.5,1.8 8.1,2.4 L8.1,5.4 C8.4,6 8.9,6.3 9.6,6.3 C10.1,6.3 10.5,6.1 10.8,5.7 C11.1,5.3 11.4,4.6 11.4,3.8 Z" id="Shape"></path>
                        <path d="M19.2,3.9 C19.2,4.9 19,5.6 18.5,6.2 C18,6.8 17.5,7.1 16.7,7.1 C15.9,7.1 15.3,6.9 14.9,6.4 L14.9,9.5 L13.8,9.5 L13.8,0.7 L14.8,0.7 L14.9,1.4 C15.3,0.9 16,0.6 16.7,0.6 C17.5,0.6 18.1,0.9 18.5,1.5 C18.9,2.1 19.2,2.8 19.2,3.9 L19.2,3.9 Z M18.1,3.8 C18.1,3.1 17.9,2.5 17.6,2.1 C17.3,1.7 16.9,1.5 16.3,1.5 C15.6,1.5 15.2,1.8 14.8,2.4 L14.8,5.4 C15.1,6 15.6,6.3 16.3,6.3 C16.8,6.3 17.2,6.1 17.5,5.7 C17.8,5.3 18.1,4.6 18.1,3.8 Z" id="Shape"></path>
                        <path d="M20.3,3.8 C20.3,3.2 20.4,2.6 20.7,2.1 C21,1.6 21.3,1.2 21.7,1 C22.1,0.8 22.6,0.6 23.2,0.6 C24.1,0.6 24.8,0.9 25.3,1.5 C25.8,2.1 26.1,2.9 26.1,3.9 L26.1,4 C26.1,4.6 26,5.2 25.7,5.7 C25.4,6.2 25.1,6.6 24.7,6.8 C24.3,7 23.8,7.2 23.2,7.2 C22.3,7.2 21.6,6.9 21.1,6.3 C20.6,5.7 20.3,4.8 20.3,3.8 L20.3,3.8 Z M21.4,3.9 C21.4,4.6 21.6,5.2 21.9,5.6 C22.2,6 22.7,6.2 23.2,6.2 C23.8,6.2 24.2,6 24.5,5.6 C24.8,5.2 25,4.6 25,3.8 C25,3.1 24.8,2.5 24.5,2.1 C24.2,1.7 23.7,1.5 23.2,1.5 C22.7,1.5 22.2,1.7 21.9,2.1 C21.6,2.5 21.4,3.1 21.4,3.9 Z" id="Shape"></path>
                    </g>
                    <g id="Group" transform="translate(107.000000, 41.000000)" fill="#6B6B6B">
                        <path d="M3.5,1.6 C3.3,1.6 3.2,1.6 3,1.6 C2.3,1.6 1.8,1.9 1.6,2.5 L1.6,7 L0.5,7 L0.5,0.7 L1.6,0.7 L1.6,1.4 C2,0.8 2.5,0.6 3.1,0.6 C3.3,0.6 3.5,0.6 3.6,0.7 L3.6,1.6 L3.5,1.6 Z" id="Shape"></path>
                    </g>
                    <g id="Group" transform="translate(111.000000, 40.000000)" fill="#6B6B6B">
                        <path d="M2.6,0.1 L2.6,1.6 L3.8,1.6 L3.8,2.4 L2.6,2.4 L2.6,6.3 C2.6,6.6 2.7,6.7 2.8,6.9 C2.9,7.1 3.1,7.1 3.3,7.1 C3.4,7.1 3.6,7.1 3.8,7 L3.8,8 C3.5,8.1 3.2,8.1 3,8.1 C2.5,8.1 2.2,8 1.9,7.7 C1.6,7.4 1.5,7 1.5,6.5 L1.5,2.6 L0.3,2.6 L0.3,1.8 L1.5,1.8 L1.5,0.3 L2.6,0.3 L2.6,0.1 Z" id="Shape"></path>
                        <path d="M9.5,0.1 L9.5,1.6 L10.7,1.6 L10.7,2.4 L9.5,2.4 L9.5,6.3 C9.5,6.6 9.6,6.7 9.7,6.9 C9.8,7.1 10,7.1 10.2,7.1 C10.3,7.1 10.5,7.1 10.7,7 L10.7,8 C10.4,8.1 10.1,8.1 9.9,8.1 C9.4,8.1 9.1,8 8.8,7.7 C8.5,7.4 8.4,7 8.4,6.5 L8.4,2.6 L7.2,2.6 L7.2,1.8 L8.4,1.8 L8.4,0.3 L9.5,0.3 L9.5,0.1 Z" id="Shape"></path>
                        <path d="M14.5,8.1 C13.6,8.1 12.9,7.8 12.4,7.3 C11.9,6.8 11.6,6 11.6,5 L11.6,4.8 C11.6,4.2 11.7,3.6 12,3.1 C12.3,2.6 12.6,2.2 13,1.9 C13.4,1.6 13.9,1.5 14.4,1.5 C15.2,1.5 15.9,1.8 16.3,2.3 C16.7,2.8 17,3.6 17,4.6 L17,5.1 L12.7,5.1 C12.7,5.7 12.9,6.2 13.2,6.6 C13.5,7 14,7.2 14.5,7.2 C14.9,7.2 15.2,7.1 15.5,7 C15.8,6.9 16,6.6 16.2,6.4 L16.9,6.9 C16.4,7.7 15.6,8.1 14.5,8.1 Z M14.4,2.4 C14,2.4 13.6,2.6 13.3,2.9 C13,3.2 12.8,3.7 12.7,4.2 L15.9,4.2 L15.9,4.1 C15.9,3.5 15.7,3.1 15.5,2.8 C15.3,2.5 14.9,2.4 14.4,2.4 Z" id="Shape"></path>
                        <polygon id="Shape" points="20.4 4 21.8 1.7 23.1 1.7 21 4.8 23.1 8 21.8 8 20.3 5.6 18.8 8 17.5 8 19.6 4.8 17.5 1.7 18.8 1.7"></polygon>
                        <path d="M25.7,0.1 L25.7,1.6 L26.9,1.6 L26.9,2.4 L25.7,2.4 L25.7,6.3 C25.7,6.6 25.8,6.7 25.9,6.9 C26,7.1 26.2,7.1 26.4,7.1 C26.5,7.1 26.7,7.1 26.9,7 L26.9,8 C26.6,8.1 26.3,8.1 26.1,8.1 C25.6,8.1 25.3,8 25,7.7 C24.7,7.4 24.6,7 24.6,6.5 L24.6,2.6 L23.4,2.6 L23.4,1.8 L24.6,1.8 L24.6,0.3 L25.7,0.3 L25.7,0.1 Z" id="Shape"></path>
                    </g>
                    <g id="Group" fill="#424242">
                        <path d="M7.1,9.1 C7.1,8.6 6.9,8.2 6.6,7.9 C6.3,7.6 5.6,7.4 4.7,7.1 C3.8,6.8 3.1,6.5 2.5,6.2 C1.5,5.5 0.9,4.7 0.9,3.7 C0.9,2.8 1.3,2 2,1.4 C2.8,0.8 3.8,0.5 5,0.5 C5.8,0.5 6.5,0.6 7.1,0.9 C7.7,1.2 8.2,1.6 8.6,2.1 C9,2.6 9.1,3.2 9.1,3.9 L7.1,3.9 C7.1,3.3 6.9,2.8 6.5,2.5 C6.2,2.2 5.6,2 4.9,2 C4.3,2 3.8,2.2 3.4,2.5 C3.1,2.7 2.9,3.1 2.9,3.6 C2.9,4 3.1,4.4 3.5,4.6 C3.9,4.9 4.5,5.1 5.4,5.4 C6.3,5.7 7,6 7.5,6.4 C8,6.7 8.4,7.1 8.7,7.6 C9,8.1 9.1,8.5 9.1,9.1 C9.1,10 8.7,10.8 8,11.4 C7.3,12 6.3,12.2 5,12.2 C4.2,12.2 3.4,12 2.7,11.7 C2,11.4 1.5,11 1.1,10.4 C0.7,9.8 0.5,9.2 0.5,8.5 L2.5,8.5 C2.5,9.1 2.7,9.6 3.1,10 C3.5,10.4 4.1,10.5 4.9,10.5 C5.6,10.5 6.1,10.4 6.5,10.1 C6.9,9.9 7.1,9.5 7.1,9.1 Z" id="Shape"></path>
                        <path d="M14.4,12.2 C13.2,12.2 12.2,11.8 11.5,11.1 C10.8,10.3 10.4,9.3 10.4,8.1 L10.4,7.9 C10.4,7.1 10.6,6.3 10.9,5.6 C11.2,4.9 11.7,4.4 12.3,4 C12.9,3.6 13.5,3.4 14.3,3.4 C15.5,3.4 16.3,3.8 17,4.5 C17.6,5.2 17.9,6.3 17.9,7.6 L17.9,8.4 L12.4,8.4 C12.5,9.1 12.7,9.6 13.1,10.1 C13.5,10.5 14,10.7 14.6,10.7 C15.5,10.7 16.2,10.3 16.7,9.6 L17.7,10.6 C17.4,11.1 16.9,11.5 16.3,11.8 C15.8,12 15.2,12.2 14.4,12.2 Z M14.2,4.9 C13.7,4.9 13.3,5.1 12.9,5.4 C12.5,5.7 12.4,6.3 12.3,6.9 L16,6.9 L16,6.8 C16,6.2 15.8,5.7 15.5,5.4 C15.2,5.1 14.7,4.9 14.2,4.9 Z" id="Shape"></path>
                        <polygon id="Shape" points="21.4 12 19.5 12 19.5 0 21.4 0"></polygon>
                        <path d="M27.3,12.2 C26.1,12.2 25.1,11.8 24.4,11.1 C23.7,10.3 23.3,9.3 23.3,8.1 L23.3,7.9 C23.3,7.1 23.5,6.3 23.8,5.6 C24.1,4.9 24.6,4.4 25.2,4 C25.8,3.6 26.4,3.4 27.2,3.4 C28.4,3.4 29.2,3.8 29.9,4.5 C30.5,5.2 30.8,6.3 30.8,7.6 L30.8,8.4 L25.3,8.4 C25.4,9.1 25.6,9.6 26,10.1 C26.4,10.5 26.9,10.7 27.5,10.7 C28.4,10.7 29.1,10.3 29.6,9.6 L30.6,10.6 C30.3,11.1 29.8,11.5 29.2,11.8 C28.6,12 28,12.2 27.3,12.2 Z M27.1,4.9 C26.6,4.9 26.2,5.1 25.8,5.4 C25.4,5.7 25.3,6.3 25.2,6.9 L28.8,6.9 L28.8,6.8 C28.8,6.2 28.6,5.7 28.3,5.4 C28,5.1 27.6,4.9 27.1,4.9 Z" id="Shape"></path>
                        <path d="M35.7,10.6 C36.2,10.6 36.6,10.5 36.9,10.2 C37.2,9.9 37.4,9.6 37.4,9.2 L39.2,9.2 C39.2,9.7 39,10.2 38.7,10.7 C38.4,11.2 38,11.5 37.5,11.8 C37,12.1 36.4,12.2 35.8,12.2 C34.6,12.2 33.7,11.8 33,11.1 C32.3,10.3 32,9.3 32,7.9 L32,7.7 C32,6.4 32.3,5.4 33,4.6 C33.7,3.8 34.6,3.4 35.8,3.4 C36.8,3.4 37.6,3.7 38.3,4.3 C39,4.9 39.3,5.7 39.3,6.6 L37.5,6.6 C37.5,6.1 37.3,5.7 37,5.4 C36.7,5.1 36.3,4.9 35.8,4.9 C35.2,4.9 34.7,5.1 34.4,5.6 C34.1,6 33.9,6.7 33.9,7.6 L33.9,7.9 C33.9,8.8 34.1,9.5 34.4,10 C34.6,10.4 35.1,10.6 35.7,10.6 Z" id="Shape"></path>
                        <path d="M43.1,1.5 L43.1,3.6 L44.6,3.6 L44.6,5 L43.1,5 L43.1,9.7 C43.1,10 43.2,10.3 43.3,10.4 C43.4,10.5 43.7,10.6 44,10.6 C44.2,10.6 44.4,10.6 44.7,10.5 L44.7,12 C44.3,12.1 43.9,12.2 43.5,12.2 C42,12.2 41.3,11.4 41.3,9.8 L41.3,5 L39.9,5 L39.9,3.5 L41.3,3.5 L41.3,1.5 L43.1,1.5 Z" id="Shape"></path>
                        <path d="M45.6,7.7 C45.6,6.9 45.8,6.1 46.1,5.5 C46.4,4.9 46.9,4.3 47.5,4 C48.1,3.7 48.8,3.5 49.5,3.5 C50.6,3.5 51.6,3.9 52.3,4.6 C53,5.3 53.4,6.3 53.5,7.5 L53.5,7.9 C53.5,8.7 53.3,9.5 53,10.1 C52.7,10.7 52.2,11.3 51.6,11.6 C51,12 50.3,12.1 49.5,12.1 C48.3,12.1 47.4,11.7 46.6,10.9 C45.9,10.2 45.6,9.1 45.6,7.7 L45.6,7.7 Z M47.5,7.9 C47.5,8.8 47.7,9.5 48,9.9 C48.3,10.3 48.9,10.6 49.5,10.6 C50.1,10.6 50.6,10.4 51,9.8 C51.4,9.3 51.5,8.6 51.5,7.6 C51.5,6.7 51.3,6.1 50.9,5.6 C50.5,5.1 50,4.8 49.4,4.8 C48.8,4.8 48.3,5 47.9,5.5 C47.6,6.1 47.5,6.9 47.5,7.9 Z" id="Shape"></path>
                        <path d="M59.6,5.3 C59.4,5.3 59.1,5.2 58.8,5.2 C57.9,5.2 57.3,5.5 57,6.2 L57,12 L55.1,12 L55.1,3.5 L56.9,3.5 L56.9,4.4 C57.4,3.7 58,3.3 58.8,3.3 C59.1,3.3 59.3,3.3 59.5,3.4 L59.6,5.3 Z" id="Shape"></path>
                        <polygon id="Shape" points="72.9 2.2 69.4 2.2 69.4 12 67.4 12 67.4 2.2 63.9 2.2 63.9 0.6 72.9 0.6"></polygon>
                        <path d="M74.3,1.4 C74.3,1.1 74.4,0.9 74.6,0.7 C74.8,0.5 75,0.4 75.4,0.4 C75.8,0.4 76,0.5 76.2,0.7 C76.4,0.9 76.5,1.1 76.5,1.4 C76.5,1.7 76.4,1.9 76.2,2.1 C76,2.3 75.7,2.4 75.4,2.4 C75.1,2.4 74.8,2.3 74.6,2.1 C74.4,1.9 74.3,1.6 74.3,1.4 Z M76.3,12 L74.4,12 L74.4,3.5 L76.3,3.5 L76.3,12 Z" id="Shape"></path>
                        <path d="M80.8,1.5 L80.8,3.6 L82.3,3.6 L82.3,5 L80.8,5 L80.8,9.7 C80.8,10 80.9,10.3 81,10.4 C81.1,10.5 81.4,10.6 81.7,10.6 C81.9,10.6 82.1,10.6 82.4,10.5 L82.4,12 C82,12.1 81.6,12.2 81.2,12.2 C79.7,12.2 79,11.4 79,9.8 L79,5 L77.6,5 L77.6,3.5 L79,3.5 L79,1.5 L80.8,1.5 Z" id="Shape"></path>
                        <polygon id="Shape" points="85.9 12 84 12 84 0 85.9 0"></polygon>
                        <path d="M91.8,12.2 C90.6,12.2 89.6,11.8 88.9,11.1 C88.2,10.3 87.8,9.3 87.8,8.1 L87.8,7.9 C87.8,7.1 88,6.3 88.3,5.6 C88.6,4.9 89.1,4.4 89.7,4 C90.3,3.6 90.9,3.4 91.7,3.4 C92.9,3.4 93.7,3.8 94.4,4.5 C95,5.2 95.3,6.3 95.3,7.6 L95.3,8.4 L89.8,8.4 C89.9,9.1 90.1,9.6 90.5,10.1 C90.9,10.5 91.4,10.7 92,10.7 C92.9,10.7 93.6,10.3 94.1,9.6 L95.1,10.6 C94.8,11.1 94.3,11.5 93.7,11.8 C93.1,12 92.5,12.2 91.8,12.2 Z M91.5,4.9 C91,4.9 90.6,5.1 90.2,5.4 C89.8,5.7 89.7,6.3 89.6,6.9 L93.2,6.9 L93.2,6.8 C93.2,6.2 93,5.7 92.7,5.4 C92.4,5.1 92.1,4.9 91.5,4.9 Z" id="Shape"></path>
                    </g>
                </g>
                <g id="Annotation">
                    <g id="Group" transform="translate(4.000000, 144.000000)" fill-rule="nonzero" fill="#9E9E9E">
                        <polygon id="Shape" points="4.3 7.5 6.7 0.5 8 0.5 4.8 9 3.8 9 0.6 0.5 1.8 0.5"></polygon>
                    </g>
                    <g id="Group" transform="translate(12.000000, 146.000000)" fill-rule="nonzero" fill="#9E9E9E">
                        <path d="M3.3,7.1 C2.4,7.1 1.7,6.8 1.2,6.3 C0.7,5.8 0.4,5 0.4,4 L0.4,3.8 C0.4,3.2 0.5,2.6 0.8,2.1 C1.1,1.6 1.4,1.2 1.8,0.9 C2.2,0.6 2.7,0.5 3.2,0.5 C4,0.5 4.7,0.8 5.1,1.3 C5.5,1.8 5.8,2.6 5.8,3.6 L5.8,4.1 L1.5,4.1 C1.5,4.7 1.7,5.2 2,5.6 C2.3,6 2.8,6.2 3.3,6.2 C3.7,6.2 4,6.1 4.3,6 C4.6,5.9 4.8,5.6 5,5.4 L5.7,5.9 C5.2,6.7 4.4,7.1 3.3,7.1 Z M3.2,1.4 C2.8,1.4 2.4,1.6 2.1,1.9 C1.8,2.2 1.6,2.7 1.5,3.2 L4.7,3.2 L4.7,3.1 C4.7,2.5 4.5,2.1 4.3,1.8 C4.1,1.5 3.6,1.4 3.2,1.4 Z" id="Shape"></path>
                    </g>
                    <g id="Group" transform="translate(19.000000, 146.000000)" fill-rule="nonzero" fill="#9E9E9E">
                        <path d="M3.1,1.6 C2.9,1.6 2.8,1.6 2.6,1.6 C1.9,1.6 1.4,1.9 1.2,2.5 L1.2,7 L0.1,7 L0.1,0.7 L1.2,0.7 L1.2,1.4 C1.6,0.8 2.1,0.6 2.7,0.6 C2.9,0.6 3.1,0.6 3.2,0.7 L3.2,1.6 L3.1,1.6 Z" id="Shape"></path>
                    </g>
                    <g id="Group" transform="translate(22.000000, 144.000000)" fill-rule="nonzero" fill="#9E9E9E">
                        <path d="M3.2,1.1 L3.2,2.6 L4.4,2.6 L4.4,3.4 L3.2,3.4 L3.2,7.3 C3.2,7.6 3.3,7.7 3.4,7.9 C3.5,8.1 3.7,8.1 3.9,8.1 C4,8.1 4.2,8.1 4.4,8 L4.4,8.9 C4.1,9 3.8,9 3.6,9 C3.1,9 2.8,8.9 2.5,8.6 C2.2,8.3 2.1,7.9 2.1,7.4 L2.1,3.5 L0.9,3.5 L0.9,2.7 L2.1,2.7 L2.1,1.2 L3.2,1.2 L3.2,1.1 Z" id="Shape"></path>
                        <path d="M5.4,1 C5.4,0.8 5.5,0.7 5.6,0.6 C5.7,0.5 5.9,0.4 6.1,0.4 C6.3,0.4 6.5,0.5 6.6,0.6 C6.7,0.7 6.8,0.9 6.8,1 C6.8,1.1 6.7,1.3 6.6,1.4 C6.5,1.5 6.3,1.6 6.1,1.6 C5.9,1.6 5.7,1.5 5.6,1.4 C5.5,1.3 5.4,1.2 5.4,1 Z M6.6,9 L5.5,9 L5.5,2.7 L6.6,2.7 L6.6,9 Z" id="Shape"></path>
                        <path d="M10.6,8.2 C11,8.2 11.3,8.1 11.6,7.8 C11.9,7.5 12,7.3 12.1,6.9 L13.1,6.9 C13.1,7.3 13,7.6 12.7,7.9 C12.4,8.2 12.2,8.5 11.8,8.7 C11.4,8.9 11,9 10.6,9 C9.7,9 9.1,8.7 8.5,8.1 C7.9,7.5 7.7,6.7 7.7,5.7 L7.7,5.5 C7.7,4.9 7.8,4.3 8,3.9 C8.2,3.5 8.6,3 9,2.8 C9.4,2.6 9.9,2.4 10.5,2.4 C11.2,2.4 11.8,2.6 12.3,3 C12.8,3.4 13,4 13.1,4.7 L12.1,4.7 C12.1,4.3 11.9,4 11.6,3.7 C11.3,3.4 11,3.3 10.6,3.3 C10,3.3 9.6,3.5 9.3,3.9 C9,4.3 8.8,4.9 8.8,5.6 L8.8,5.8 C8.8,6.5 9,7.1 9.3,7.5 C9.6,7.9 10,8.2 10.6,8.2 Z" id="Shape"></path>
                        <path d="M18,9 C17.9,8.9 17.9,8.7 17.8,8.3 C17.3,8.8 16.7,9.1 16,9.1 C15.4,9.1 14.9,8.9 14.5,8.6 C14.1,8.3 13.9,7.8 13.9,7.3 C13.9,6.6 14.2,6.1 14.7,5.8 C15.2,5.5 15.9,5.3 16.8,5.3 L17.9,5.3 L17.9,4.8 C17.9,4.4 17.8,4.1 17.6,3.9 C17.4,3.7 17,3.6 16.6,3.6 C16.2,3.6 15.9,3.7 15.6,3.9 C15.3,4.1 15.2,4.3 15.2,4.6 L14,4.6 C14,4.3 14.1,4 14.3,3.7 C14.5,3.4 14.8,3.2 15.2,3 C15.6,2.8 16,2.7 16.5,2.7 C17.2,2.7 17.8,2.9 18.2,3.2 C18.6,3.5 18.8,4.1 18.8,4.7 L18.8,7.6 C18.8,8.2 18.9,8.6 19,9 L19,9.1 L18,9.1 L18,9 Z M16.2,8.2 C16.5,8.2 16.9,8.1 17.2,7.9 C17.5,7.7 17.7,7.5 17.9,7.2 L17.9,5.9 L17,5.9 C15.7,5.9 15,6.3 15,7.1 C15,7.4 15.1,7.7 15.3,7.9 C15.5,8.1 15.8,8.2 16.2,8.2 Z" id="Shape"></path>
                        <polygon id="Shape" points="21.5 9 20.4 9 20.4 0 21.5 0"></polygon>
                        <path d="M28.4,5.2 C27.4,4.9 26.7,4.6 26.3,4.2 C25.9,3.8 25.6,3.3 25.6,2.7 C25.6,2 25.9,1.5 26.4,1 C26.9,0.5 27.6,0.3 28.5,0.3 C29.1,0.3 29.6,0.4 30.1,0.6 C30.6,0.8 30.9,1.1 31.2,1.5 C31.5,1.9 31.6,2.3 31.6,2.8 L30.5,2.8 C30.5,2.3 30.3,1.9 30,1.6 C29.7,1.3 29.2,1.2 28.6,1.2 C28,1.2 27.6,1.3 27.3,1.6 C27,1.8 26.8,2.2 26.8,2.6 C26.8,2.9 26.9,3.2 27.2,3.5 C27.5,3.7 28,4 28.7,4.2 C29.4,4.4 30,4.6 30.4,4.9 C30.8,5.2 31.1,5.4 31.3,5.7 C31.5,6 31.6,6.4 31.6,6.8 C31.6,7.5 31.3,8 30.8,8.5 C30.3,9 29.5,9.1 28.6,9.1 C28,9.1 27.5,9 27,8.8 C26.5,8.6 26.1,8.3 25.8,7.9 C25.5,7.5 25.4,7.1 25.4,6.6 L26.5,6.6 C26.5,7.1 26.7,7.5 27.1,7.8 C27.5,8.1 28,8.2 28.6,8.2 C29.2,8.2 29.6,8.1 30,7.8 C30.4,7.5 30.5,7.2 30.5,6.8 C30.5,6.4 30.4,6.1 30.1,5.8 C29.8,5.5 29.2,5.4 28.4,5.2 Z" id="Shape"></path>
                        <path d="M37.9,5.9 C37.9,6.9 37.7,7.6 37.2,8.2 C36.7,8.8 36.2,9.1 35.4,9.1 C34.6,9.1 34,8.9 33.6,8.4 L33.6,11.5 L32.5,11.5 L32.5,2.7 L33.5,2.7 L33.6,3.4 C34,2.9 34.7,2.6 35.4,2.6 C36.2,2.6 36.8,2.9 37.2,3.5 C37.6,4.1 37.9,4.8 37.9,5.9 L37.9,5.9 Z M36.9,5.8 C36.9,5.1 36.7,4.5 36.4,4.1 C36.1,3.7 35.7,3.5 35.1,3.5 C34.4,3.5 34,3.8 33.6,4.4 L33.6,7.4 C33.9,8 34.4,8.3 35.1,8.3 C35.6,8.3 36,8.1 36.3,7.7 C36.6,7.3 36.9,6.6 36.9,5.8 Z" id="Shape"></path>
                        <path d="M43,9 C42.9,8.9 42.9,8.7 42.8,8.3 C42.3,8.8 41.7,9.1 41,9.1 C40.4,9.1 39.9,8.9 39.5,8.6 C39.1,8.3 38.9,7.8 38.9,7.3 C38.9,6.6 39.2,6.1 39.7,5.8 C40.2,5.5 40.9,5.3 41.8,5.3 L42.9,5.3 L42.9,4.8 C42.9,4.4 42.8,4.1 42.6,3.9 C42.4,3.7 42,3.6 41.6,3.6 C41.2,3.6 40.9,3.7 40.6,3.9 C40.3,4.1 40.2,4.3 40.2,4.6 L39,4.6 C39,4.3 39.1,4 39.3,3.7 C39.5,3.4 39.8,3.2 40.2,3 C40.6,2.8 41,2.7 41.5,2.7 C42.2,2.7 42.8,2.9 43.2,3.2 C43.6,3.5 43.8,4.1 43.8,4.7 L43.8,7.6 C43.8,8.2 43.9,8.6 44,9 L44,9.1 L43,9.1 L43,9 Z M41.2,8.2 C41.5,8.2 41.9,8.1 42.2,7.9 C42.5,7.7 42.7,7.5 42.9,7.2 L42.9,5.9 L42,5.9 C40.7,5.9 40,6.3 40,7.1 C40,7.4 40.1,7.7 40.3,7.9 C40.5,8.1 40.8,8.2 41.2,8.2 Z" id="Shape"></path>
                        <path d="M47.9,8.2 C48.3,8.2 48.6,8.1 48.9,7.8 C49.2,7.5 49.3,7.3 49.4,6.9 L50.4,6.9 C50.4,7.3 50.3,7.6 50,7.9 C49.7,8.2 49.5,8.5 49.1,8.7 C48.7,8.9 48.3,9 47.9,9 C47,9 46.4,8.7 45.8,8.1 C45.2,7.5 45,6.7 45,5.7 L45,5.5 C45,4.9 45.1,4.3 45.3,3.9 C45.5,3.5 45.9,3 46.3,2.8 C46.7,2.6 47.2,2.4 47.8,2.4 C48.5,2.4 49.1,2.6 49.6,3 C50.1,3.4 50.3,4 50.4,4.7 L49.4,4.7 C49.4,4.3 49.2,4 48.9,3.7 C48.6,3.4 48.3,3.3 47.9,3.3 C47.3,3.3 46.9,3.5 46.6,3.9 C46.3,4.3 46.1,4.9 46.1,5.6 L46.1,5.8 C46.1,6.5 46.3,7.1 46.6,7.5 C46.9,7.9 47.3,8.2 47.9,8.2 Z" id="Shape"></path>
                        <path d="M51.4,1 C51.4,0.8 51.5,0.7 51.6,0.6 C51.7,0.5 51.9,0.4 52.1,0.4 C52.3,0.4 52.5,0.5 52.6,0.6 C52.7,0.7 52.8,0.9 52.8,1 C52.8,1.1 52.7,1.3 52.6,1.4 C52.5,1.5 52.3,1.6 52.1,1.6 C51.9,1.6 51.7,1.5 51.6,1.4 C51.5,1.3 51.4,1.2 51.4,1 Z M52.6,9 L51.5,9 L51.5,2.7 L52.6,2.7 L52.6,9 Z" id="Shape"></path>
                        <path d="M55.1,2.7 L55.1,3.5 C55.6,2.9 56.2,2.6 57,2.6 C58.3,2.6 59,3.4 59,4.9 L59,9.1 L57.9,9.1 L57.9,4.9 C57.9,4.4 57.8,4.1 57.6,3.9 C57.4,3.7 57.1,3.6 56.6,3.6 C56.2,3.6 55.9,3.7 55.7,3.9 C55.5,4.1 55.2,4.3 55.1,4.6 L55.1,9.1 L54,9.1 L54,2.8 L55.1,2.8 L55.1,2.7 Z" id="Shape"></path>
                        <path d="M60.1,5.8 C60.1,4.8 60.3,4 60.8,3.4 C61.3,2.8 61.9,2.5 62.6,2.5 C63.4,2.5 64,2.8 64.4,3.3 L64.5,2.6 L65.5,2.6 L65.5,8.8 C65.5,9.6 65.3,10.3 64.8,10.7 C64.3,11.1 63.7,11.4 62.8,11.4 C62.3,11.4 61.9,11.3 61.5,11.1 C61.1,10.9 60.7,10.6 60.5,10.3 L61.1,9.6 C61.6,10.2 62.1,10.5 62.8,10.5 C63.3,10.5 63.7,10.4 64,10.1 C64.3,9.8 64.4,9.4 64.4,8.8 L64.4,8.3 C64,8.8 63.4,9.1 62.6,9.1 C61.9,9.1 61.3,8.8 60.8,8.2 C60.3,7.6 60.1,6.8 60.1,5.8 Z M61.2,5.9 C61.2,6.6 61.3,7.2 61.6,7.6 C61.9,8 62.3,8.2 62.8,8.2 C63.5,8.2 64,7.9 64.3,7.3 L64.3,4.4 C64,3.8 63.5,3.5 62.8,3.5 C62.3,3.5 61.9,3.7 61.6,4.1 C61.3,4.5 61.2,5.1 61.2,5.9 Z" id="Shape"></path>
                        <polygon id="Shape" points="75.2 7.5 76.4 2.7 77.5 2.7 75.7 9 74.8 9 73.3 4.2 71.8 9 70.9 9 69.1 2.7 70.2 2.7 71.4 7.4 72.9 2.7 73.8 2.7"></polygon>
                        <path d="M78.4,1 C78.4,0.8 78.5,0.7 78.6,0.6 C78.7,0.5 78.9,0.4 79.1,0.4 C79.3,0.4 79.5,0.5 79.6,0.6 C79.7,0.7 79.8,0.9 79.8,1 C79.8,1.1 79.7,1.3 79.6,1.4 C79.5,1.5 79.3,1.6 79.1,1.6 C78.9,1.6 78.7,1.5 78.6,1.4 C78.5,1.3 78.4,1.2 78.4,1 Z M79.5,9 L78.4,9 L78.4,2.7 L79.5,2.7 L79.5,9 Z" id="Shape"></path>
                        <path d="M82.5,1.1 L82.5,2.6 L83.7,2.6 L83.7,3.4 L82.5,3.4 L82.5,7.3 C82.5,7.6 82.6,7.7 82.7,7.9 C82.8,8.1 83,8.1 83.2,8.1 C83.3,8.1 83.5,8.1 83.7,8 L83.7,8.9 C83.4,9 83.1,9 82.9,9 C82.4,9 82.1,8.9 81.8,8.6 C81.5,8.3 81.4,7.9 81.4,7.4 L81.4,3.5 L80.2,3.5 L80.2,2.7 L81.4,2.7 L81.4,1.2 L82.5,1.2 L82.5,1.1 Z" id="Shape"></path>
                        <path d="M85.8,3.4 C86.3,2.8 86.9,2.5 87.7,2.5 C89,2.5 89.7,3.3 89.7,4.8 L89.7,9 L88.6,9 L88.6,4.8 C88.6,4.3 88.5,4 88.3,3.8 C88.1,3.6 87.8,3.5 87.3,3.5 C86.9,3.5 86.6,3.6 86.4,3.8 C86.2,4 85.9,4.2 85.8,4.5 L85.8,9 L84.7,9 L84.7,0 L85.8,0 L85.8,3.4 L85.8,3.4 Z" id="Shape"></path>
                    </g>
                    <g id="Group" transform="translate(5.000000, 160.000000)" fill-rule="nonzero" fill="#9E9E9E">
                        <path d="M0,5.8 C0,5.2 0.1,4.6 0.4,4.1 C0.7,3.6 1,3.2 1.4,3 C1.8,2.8 2.3,2.6 2.9,2.6 C3.8,2.6 4.5,2.9 5,3.5 C5.5,4.1 5.8,4.9 5.8,5.9 L5.8,6 C5.8,6.6 5.7,7.2 5.4,7.7 C5.1,8.2 4.8,8.6 4.4,8.8 C4,9 3.5,9.2 2.9,9.2 C2,9.2 1.3,8.9 0.8,8.3 C0.3,7.7 0,6.8 0,5.8 L0,5.8 Z M1.1,5.9 C1.1,6.6 1.3,7.2 1.6,7.6 C1.9,8 2.4,8.2 2.9,8.2 C3.5,8.2 3.9,8 4.2,7.6 C4.5,7.2 4.7,6.6 4.7,5.8 C4.7,5.1 4.5,4.5 4.2,4.1 C3.9,3.7 3.4,3.5 2.9,3.5 C2.4,3.5 1.9,3.7 1.6,4.1 C1.3,4.5 1.1,5.1 1.1,5.9 Z" id="Shape"></path>
                        <path d="M12.3,5.9 C12.3,6.9 12.1,7.6 11.6,8.2 C11.1,8.8 10.6,9.1 9.8,9.1 C9,9.1 8.4,8.9 8,8.4 L8,11.5 L6.9,11.5 L6.9,2.7 L7.9,2.7 L8,3.4 C8.4,2.9 9.1,2.6 9.8,2.6 C10.6,2.6 11.2,2.9 11.6,3.5 C12,4.1 12.3,4.8 12.3,5.9 L12.3,5.9 Z M11.2,5.8 C11.2,5.1 11,4.5 10.7,4.1 C10.4,3.7 10,3.5 9.4,3.5 C8.7,3.5 8.3,3.8 7.9,4.4 L7.9,7.4 C8.2,8 8.7,8.3 9.4,8.3 C9.9,8.3 10.3,8.1 10.6,7.7 C10.9,7.3 11.2,6.6 11.2,5.8 Z" id="Shape"></path>
                        <path d="M14.9,1.1 L14.9,2.6 L16,2.6 L16,3.4 L14.8,3.4 L14.8,7.3 C14.8,7.6 14.9,7.7 15,7.9 C15.1,8.1 15.3,8.1 15.5,8.1 C15.6,8.1 15.8,8.1 16,8 L16,8.9 C15.7,9 15.4,9 15.2,9 C14.7,9 14.4,8.9 14.1,8.6 C13.8,8.3 13.7,7.9 13.7,7.4 L13.7,3.5 L12.5,3.5 L12.5,2.7 L13.7,2.7 L13.7,1.2 L14.9,1.2 L14.9,1.1 Z" id="Shape"></path>
                        <path d="M17.1,1 C17.1,0.8 17.2,0.7 17.3,0.6 C17.4,0.5 17.6,0.4 17.8,0.4 C18,0.4 18.2,0.5 18.3,0.6 C18.4,0.7 18.5,0.9 18.5,1 C18.5,1.1 18.4,1.3 18.3,1.4 C18.2,1.5 18,1.6 17.8,1.6 C17.6,1.6 17.4,1.5 17.3,1.4 C17.2,1.3 17.1,1.2 17.1,1 Z M18.2,9 L17.1,9 L17.1,2.7 L18.2,2.7 L18.2,9 Z" id="Shape"></path>
                        <path d="M19.4,5.8 C19.4,5.2 19.5,4.6 19.8,4.1 C20.1,3.6 20.4,3.2 20.8,3 C21.2,2.8 21.7,2.6 22.3,2.6 C23.2,2.6 23.9,2.9 24.4,3.5 C24.9,4.1 25.2,4.9 25.2,5.9 L25.2,6 C25.2,6.6 25.1,7.2 24.8,7.7 C24.5,8.2 24.2,8.6 23.8,8.8 C23.4,9 22.9,9.2 22.3,9.2 C21.4,9.2 20.7,8.9 20.2,8.3 C19.7,7.7 19.4,6.8 19.4,5.8 L19.4,5.8 Z M20.5,5.9 C20.5,6.6 20.7,7.2 21,7.6 C21.3,8 21.8,8.2 22.3,8.2 C22.9,8.2 23.3,8 23.6,7.6 C23.9,7.2 24.1,6.6 24.1,5.8 C24.1,5.1 23.9,4.5 23.6,4.1 C23.3,3.7 22.8,3.5 22.3,3.5 C21.8,3.5 21.3,3.7 21,4.1 C20.7,4.5 20.5,5.1 20.5,5.9 Z" id="Shape"></path>
                        <path d="M27.3,2.7 L27.3,3.5 C27.8,2.9 28.4,2.6 29.2,2.6 C30.5,2.6 31.2,3.4 31.2,4.9 L31.2,9.1 L30.1,9.1 L30.1,4.9 C30.1,4.4 30,4.1 29.8,3.9 C29.6,3.7 29.3,3.6 28.8,3.6 C28.4,3.6 28.1,3.7 27.9,3.9 C27.7,4.1 27.4,4.3 27.3,4.6 L27.3,9.1 L26.2,9.1 L26.2,2.8 L27.3,2.8 L27.3,2.7 Z" id="Shape"></path>
                        <path d="M36.6,9 C36.5,8.9 36.5,8.7 36.4,8.3 C35.9,8.8 35.3,9.1 34.6,9.1 C34,9.1 33.5,8.9 33.1,8.6 C32.7,8.3 32.5,7.8 32.5,7.3 C32.5,6.6 32.8,6.1 33.3,5.8 C33.8,5.5 34.5,5.3 35.4,5.3 L36.5,5.3 L36.5,4.8 C36.5,4.4 36.4,4.1 36.2,3.9 C36,3.7 35.6,3.6 35.2,3.6 C34.8,3.6 34.5,3.7 34.2,3.9 C33.9,4.1 33.8,4.3 33.8,4.6 L32.7,4.6 C32.7,4.3 32.8,4 33,3.7 C33.2,3.4 33.5,3.2 33.9,3 C34.3,2.8 34.7,2.7 35.2,2.7 C35.9,2.7 36.5,2.9 36.9,3.2 C37.3,3.5 37.5,4.1 37.5,4.7 L37.5,7.6 C37.5,8.2 37.6,8.6 37.7,9 L37.7,9.1 L36.6,9.1 L36.6,9 Z M34.8,8.2 C35.1,8.2 35.5,8.1 35.8,7.9 C36.1,7.7 36.3,7.5 36.5,7.2 L36.5,5.9 L35.7,5.9 C34.4,5.9 33.7,6.3 33.7,7.1 C33.7,7.4 33.8,7.7 34,7.9 C34.2,8.1 34.4,8.2 34.8,8.2 Z" id="Shape"></path>
                        <polygon id="Shape" points="40.1 9 39 9 39 0 40.1 0"></polygon>
                        <path d="M44.1,5.8 C44.1,4.8 44.3,4 44.8,3.5 C45.3,3 45.9,2.6 46.6,2.6 C47.3,2.6 47.9,2.9 48.4,3.4 L48.4,0 L49.5,0 L49.5,9 L48.5,9 L48.4,8.3 C48,8.8 47.4,9.1 46.6,9.1 C45.9,9.1 45.3,8.8 44.8,8.2 C44.3,7.6 44.1,6.8 44.1,5.8 L44.1,5.8 Z M45.2,5.9 C45.2,6.6 45.3,7.2 45.6,7.6 C45.9,8 46.3,8.2 46.8,8.2 C47.5,8.2 48,7.9 48.3,7.3 L48.3,4.4 C48,3.8 47.5,3.5 46.8,3.5 C46.3,3.5 45.9,3.7 45.6,4.1 C45.3,4.5 45.2,5.1 45.2,5.9 Z" id="Shape"></path>
                        <path d="M53.5,9.1 C52.6,9.1 51.9,8.8 51.4,8.3 C50.9,7.8 50.6,7 50.6,6 L50.6,5.8 C50.6,5.2 50.7,4.6 51,4.1 C51.3,3.6 51.6,3.2 52,2.9 C52.4,2.6 52.9,2.5 53.4,2.5 C54.2,2.5 54.9,2.8 55.3,3.3 C55.7,3.8 56,4.6 56,5.6 L56,6.1 L51.7,6.1 C51.7,6.7 51.9,7.2 52.2,7.6 C52.5,8 53,8.2 53.5,8.2 C53.9,8.2 54.2,8.1 54.5,8 C54.8,7.9 55,7.6 55.2,7.4 L55.9,7.9 C55.3,8.7 54.5,9.1 53.5,9.1 Z M53.3,3.4 C52.9,3.4 52.5,3.6 52.2,3.9 C51.9,4.2 51.7,4.7 51.6,5.2 L54.8,5.2 L54.8,5.1 C54.8,4.5 54.6,4.1 54.4,3.8 C54.2,3.5 53.8,3.4 53.3,3.4 Z" id="Shape"></path>
                        <path d="M60.6,7.3 C60.6,7 60.5,6.8 60.3,6.6 C60.1,6.4 59.7,6.3 59.1,6.2 C58.5,6.1 58.1,5.9 57.8,5.8 C57.5,5.7 57.2,5.4 57.1,5.2 C57,5 56.9,4.7 56.9,4.4 C56.9,3.9 57.1,3.4 57.6,3.1 C58.1,2.8 58.6,2.6 59.3,2.6 C60,2.6 60.6,2.8 61,3.2 C61.4,3.6 61.7,4 61.7,4.6 L60.6,4.6 C60.6,4.3 60.5,4 60.2,3.8 C59.9,3.6 59.6,3.5 59.2,3.5 C58.8,3.5 58.5,3.6 58.3,3.8 C58.1,4 58,4.2 58,4.5 C58,4.8 58.1,5 58.3,5.1 C58.5,5.2 58.9,5.4 59.4,5.5 C59.9,5.6 60.4,5.8 60.7,5.9 C61,6 61.3,6.3 61.4,6.5 C61.5,6.7 61.6,7 61.6,7.4 C61.6,8 61.4,8.4 60.9,8.8 C60.4,9.2 59.9,9.3 59.1,9.3 C58.6,9.3 58.1,9.2 57.8,9 C57.5,8.8 57.1,8.6 56.9,8.2 C56.7,7.8 56.6,7.5 56.6,7.2 L57.7,7.2 C57.7,7.6 57.9,7.9 58.1,8.1 C58.3,8.3 58.7,8.4 59.2,8.4 C59.6,8.4 59.9,8.3 60.2,8.2 C60.5,8.1 60.6,7.6 60.6,7.3 Z" id="Shape"></path>
                        <path d="M65.4,8.2 C65.8,8.2 66.1,8.1 66.4,7.8 C66.7,7.5 66.8,7.3 66.9,6.9 L67.9,6.9 C67.9,7.3 67.8,7.6 67.5,7.9 C67.2,8.2 67,8.5 66.6,8.7 C66.2,8.9 65.8,9 65.4,9 C64.5,9 63.9,8.7 63.3,8.1 C62.7,7.5 62.5,6.7 62.5,5.7 L62.5,5.5 C62.5,4.9 62.6,4.3 62.8,3.9 C63,3.5 63.4,3 63.8,2.8 C64.2,2.6 64.7,2.4 65.3,2.4 C66,2.4 66.6,2.6 67.1,3 C67.6,3.4 67.8,4 67.9,4.7 L66.9,4.7 C66.9,4.3 66.7,4 66.4,3.7 C66.1,3.4 65.8,3.3 65.4,3.3 C64.8,3.3 64.4,3.5 64.1,3.9 C63.8,4.3 63.6,4.9 63.6,5.6 L63.6,5.8 C63.6,6.5 63.8,7.1 64.1,7.5 C64.4,7.9 64.9,8.2 65.4,8.2 Z" id="Shape"></path>
                        <path d="M72,3.6 C71.8,3.6 71.7,3.6 71.5,3.6 C70.8,3.6 70.3,3.9 70.1,4.5 L70.1,9 L69,9 L69,2.7 L70,2.7 L70,3.4 C70.4,2.8 70.9,2.6 71.5,2.6 C71.7,2.6 71.9,2.6 72,2.7 L72,3.6 Z" id="Shape"></path>
                        <path d="M72.7,1 C72.7,0.8 72.8,0.7 72.9,0.6 C73,0.5 73.2,0.4 73.4,0.4 C73.6,0.4 73.8,0.5 73.9,0.6 C74,0.7 74.1,0.9 74.1,1 C74.1,1.1 74,1.3 73.9,1.4 C73.8,1.5 73.6,1.6 73.4,1.6 C73.2,1.6 73,1.5 72.9,1.4 C72.8,1.3 72.7,1.2 72.7,1 Z M73.9,9 L72.8,9 L72.8,2.7 L73.9,2.7 L73.9,9 Z" id="Shape"></path>
                        <path d="M80.7,5.9 C80.7,6.9 80.5,7.6 80,8.2 C79.5,8.8 79,9.1 78.2,9.1 C77.4,9.1 76.8,8.9 76.4,8.4 L76.4,11.5 L75.3,11.5 L75.3,2.7 L76.3,2.7 L76.4,3.4 C76.8,2.9 77.5,2.6 78.2,2.6 C79,2.6 79.6,2.9 80,3.5 C80.4,4.1 80.7,4.8 80.7,5.9 L80.7,5.9 Z M79.7,5.8 C79.7,5.1 79.5,4.5 79.2,4.1 C78.9,3.7 78.5,3.5 77.9,3.5 C77.2,3.5 76.8,3.8 76.4,4.4 L76.4,7.4 C76.7,8 77.2,8.3 77.9,8.3 C78.4,8.3 78.8,8.1 79.1,7.7 C79.4,7.3 79.7,6.6 79.7,5.8 Z" id="Shape"></path>
                        <path d="M83.3,1.1 L83.3,2.6 L84.5,2.6 L84.5,3.4 L83.3,3.4 L83.3,7.3 C83.3,7.6 83.4,7.7 83.5,7.9 C83.6,8.1 83.8,8.1 84,8.1 C84.1,8.1 84.3,8.1 84.5,8 L84.5,8.9 C84.2,9 83.9,9 83.7,9 C83.2,9 82.9,8.9 82.6,8.6 C82.3,8.3 82.2,7.9 82.2,7.4 L82.2,3.5 L81,3.5 L81,2.7 L82.2,2.7 L82.2,1.2 L83.3,1.2 L83.3,1.1 Z" id="Shape"></path>
                        <path d="M85.5,1 C85.5,0.8 85.6,0.7 85.7,0.6 C85.8,0.5 86,0.4 86.2,0.4 C86.4,0.4 86.6,0.5 86.7,0.6 C86.8,0.7 86.9,0.9 86.9,1 C86.9,1.1 86.8,1.3 86.7,1.4 C86.6,1.5 86.4,1.6 86.2,1.6 C86,1.6 85.8,1.5 85.7,1.4 C85.6,1.3 85.5,1.2 85.5,1 Z M86.7,9 L85.6,9 L85.6,2.7 L86.7,2.7 L86.7,9 Z" id="Shape"></path>
                        <path d="M87.9,5.8 C87.9,5.2 88,4.6 88.3,4.1 C88.6,3.6 88.9,3.2 89.3,3 C89.7,2.8 90.2,2.6 90.8,2.6 C91.7,2.6 92.4,2.9 92.9,3.5 C93.4,4.1 93.7,4.9 93.7,5.9 L93.7,6 C93.7,6.6 93.6,7.2 93.3,7.7 C93,8.2 92.7,8.6 92.3,8.8 C91.9,9 91.4,9.2 90.8,9.2 C89.9,9.2 89.2,8.9 88.7,8.3 C88.2,7.7 87.9,6.8 87.9,5.8 L87.9,5.8 Z M89,5.9 C89,6.6 89.2,7.2 89.5,7.6 C89.8,8 90.3,8.2 90.8,8.2 C91.4,8.2 91.8,8 92.1,7.6 C92.4,7.2 92.6,6.6 92.6,5.8 C92.6,5.1 92.4,4.5 92.1,4.1 C91.8,3.7 91.3,3.5 90.8,3.5 C90.3,3.5 89.8,3.7 89.5,4.1 C89.2,4.5 89,5.1 89,5.9 Z" id="Shape"></path>
                        <path d="M95.8,2.7 L95.8,3.5 C96.3,2.9 96.9,2.6 97.7,2.6 C99,2.6 99.7,3.4 99.7,4.9 L99.7,9.1 L98.6,9.1 L98.6,4.9 C98.6,4.4 98.5,4.1 98.3,3.9 C98.1,3.7 97.8,3.6 97.3,3.6 C96.9,3.6 96.6,3.7 96.4,3.9 C96.2,4.1 95.9,4.3 95.8,4.6 L95.8,9.1 L94.7,9.1 L94.7,2.8 L95.8,2.8 L95.8,2.7 Z" id="Shape"></path>
                    </g>
                    <g id="specs-_x2F_-spacing-_x2F_-inline-_x2F_-V-08px" transform="translate(20.500000, 40.500000)" fill-rule="nonzero">
                        <rect id="Rectangle-5-Copy-19" fill="#90D5B2" x="0" y="0" width="8" height="16"></rect>
                        <g id="Group" transform="translate(1.000000, 4.000000)" fill="#333333">
                            <path d="M5.9,2.4 C5.9,2.8 5.8,3.2 5.6,3.5 C5.4,3.8 5,4.1 4.6,4.3 C5,4.5 5.4,4.8 5.7,5.1 C6,5.4 6.1,5.9 6.1,6.3 C6.1,7 5.9,7.6 5.4,8.1 C4.9,8.6 4.2,8.8 3.4,8.8 C2.6,8.8 1.9,8.6 1.4,8.1 C0.9,7.6 0.7,7.1 0.7,6.3 C0.7,5.8 0.8,5.4 1.1,5.1 C1.4,4.8 1.7,4.4 2.1,4.3 C1.7,4.1 1.4,3.8 1.2,3.5 C1,3.2 0.9,2.8 0.9,2.4 C0.9,1.7 1.1,1.1 1.6,0.7 C2.1,0.3 2.6,0 3.4,0 C4.2,0 4.8,0.2 5.2,0.6 C5.6,1 5.9,1.7 5.9,2.4 Z M5,6.4 C5,5.9 4.8,5.5 4.5,5.2 C4.2,4.9 3.8,4.7 3.4,4.7 C3,4.7 2.5,4.9 2.2,5.2 C1.9,5.5 1.8,5.9 1.8,6.4 C1.8,6.9 1.9,7.3 2.2,7.5 C2.5,7.7 2.9,7.9 3.4,7.9 C3.9,7.9 4.3,7.8 4.6,7.5 C4.9,7.2 5,6.8 5,6.4 Z M3.4,0.9 C3,0.9 2.6,1 2.4,1.3 C2.2,1.6 1.9,1.9 1.9,2.4 C1.9,2.8 2,3.2 2.3,3.5 C2.6,3.8 2.9,3.9 3.3,3.9 C3.7,3.9 4.1,3.8 4.3,3.5 C4.5,3.2 4.7,2.9 4.7,2.4 C4.7,1.9 4.7,1.6 4.4,1.3 C4.1,1 3.8,0.9 3.4,0.9 Z" id="Shape"></path>
                        </g>
                    </g>
                    <g id="specs-_x2F_-spacing-_x2F_-inline-_x2F_-V-08px_1_" transform="translate(20.500000, 72.500000)" fill-rule="nonzero">
                        <rect id="Rectangle-5-Copy-19_1_" fill="#90D5B2" x="0" y="0" width="8" height="16"></rect>
                        <g id="Group" transform="translate(1.000000, 4.000000)" fill="#333333">
                            <path d="M5.9,2.4 C5.9,2.8 5.8,3.2 5.6,3.5 C5.4,3.8 5,4.1 4.6,4.3 C5,4.5 5.4,4.8 5.7,5.1 C6,5.4 6.1,5.9 6.1,6.3 C6.1,7 5.9,7.6 5.4,8.1 C4.9,8.6 4.2,8.8 3.4,8.8 C2.6,8.8 1.9,8.6 1.4,8.1 C0.9,7.6 0.7,7.1 0.7,6.3 C0.7,5.8 0.8,5.4 1.1,5.1 C1.4,4.8 1.7,4.4 2.1,4.3 C1.7,4.1 1.4,3.8 1.2,3.5 C1,3.2 0.9,2.8 0.9,2.4 C0.9,1.7 1.1,1.1 1.6,0.7 C2.1,0.3 2.6,0 3.4,0 C4.2,0 4.8,0.2 5.2,0.6 C5.6,1 5.9,1.7 5.9,2.4 Z M5,6.4 C5,5.9 4.8,5.5 4.5,5.2 C4.2,4.9 3.8,4.7 3.4,4.7 C3,4.7 2.5,4.9 2.2,5.2 C1.9,5.5 1.8,5.9 1.8,6.4 C1.8,6.9 1.9,7.3 2.2,7.5 C2.5,7.7 2.9,7.9 3.4,7.9 C3.9,7.9 4.3,7.8 4.6,7.5 C4.9,7.2 5,6.8 5,6.4 Z M3.4,0.9 C3,0.9 2.6,1 2.4,1.3 C2.2,1.6 1.9,1.9 1.9,2.4 C1.9,2.8 2,3.2 2.3,3.5 C2.6,3.8 2.9,3.9 3.3,3.9 C3.7,3.9 4.1,3.8 4.3,3.5 C4.5,3.2 4.7,2.9 4.7,2.4 C4.7,1.9 4.7,1.6 4.4,1.3 C4.1,1 3.8,0.9 3.4,0.9 Z" id="Shape"></path>
                        </g>
                    </g>
                    <g id="specs-_x2F_-spacing-_x2F_-inline-_x2F_-V-08px_2_" transform="translate(20.500000, 92.500000)" fill-rule="nonzero">
                        <rect id="Rectangle-5-Copy-19_2_" fill="#90D5B2" x="0" y="0" width="8" height="16"></rect>
                        <g id="Group" transform="translate(1.000000, 4.000000)" fill="#333333">
                            <path d="M5.9,2.4 C5.9,2.8 5.8,3.2 5.6,3.5 C5.4,3.8 5,4.1 4.6,4.3 C5,4.5 5.4,4.8 5.7,5.1 C6,5.4 6.1,5.9 6.1,6.3 C6.1,7 5.9,7.6 5.4,8.1 C4.9,8.6 4.2,8.8 3.4,8.8 C2.6,8.8 1.9,8.6 1.4,8.1 C0.9,7.6 0.7,7.1 0.7,6.3 C0.7,5.8 0.8,5.4 1.1,5.1 C1.4,4.8 1.7,4.4 2.1,4.3 C1.7,4.1 1.4,3.8 1.2,3.5 C1,3.2 0.9,2.8 0.9,2.4 C0.9,1.7 1.1,1.1 1.6,0.7 C2.1,0.3 2.6,0 3.4,0 C4.2,0 4.8,0.2 5.2,0.6 C5.6,1 5.9,1.7 5.9,2.4 Z M5,6.4 C5,5.9 4.8,5.5 4.5,5.2 C4.2,4.9 3.8,4.7 3.4,4.7 C3,4.7 2.5,4.9 2.2,5.2 C1.9,5.5 1.8,5.9 1.8,6.4 C1.8,6.9 1.9,7.3 2.2,7.5 C2.5,7.7 2.9,7.9 3.4,7.9 C3.9,7.9 4.3,7.8 4.6,7.5 C4.9,7.2 5,6.8 5,6.4 Z M3.4,0.9 C3,0.9 2.6,1 2.4,1.3 C2.2,1.6 1.9,1.9 1.9,2.4 C1.9,2.8 2,3.2 2.3,3.5 C2.6,3.8 2.9,3.9 3.3,3.9 C3.7,3.9 4.1,3.8 4.3,3.5 C4.5,3.2 4.7,2.9 4.7,2.4 C4.7,1.9 4.7,1.6 4.4,1.3 C4.1,1 3.8,0.9 3.4,0.9 Z" id="Shape"></path>
                        </g>
                    </g>
                    <g id="specs-_x2F_-spacing-_x2F_-stack-_x2F_-H-04px" transform="translate(4.500000, 67.000000)" fill-rule="nonzero">
                        <rect id="Rectangle-3-Copy-6" fill="#9CC2EB" x="0" y="1" width="85" height="4"></rect>
                        <g id="Group" transform="translate(38.000000, 0.000000)" fill="#333333">
                            <path d="M3.5,4.1 L4.3,4.1 L4.3,4.7 L3.5,4.7 L3.5,6 L2.8,6 L2.8,4.7 L0.2,4.7 L0.2,4.3 L2.7,0.4 L3.5,0.4 L3.5,4.1 L3.5,4.1 Z M1.1,4.1 L2.9,4.1 L2.9,1.3 L2.8,1.5 L1.1,4.1 Z" id="Shape"></path>
                        </g>
                    </g>
                    <g id="specs-_x2F_-spacing-_x2F_-stack-_x2F_-H-04px_1_" transform="translate(4.500000, 87.000000)" fill-rule="nonzero">
                        <rect id="Rectangle-3-Copy-6_1_" fill="#9CC2EB" x="0" y="1" width="85" height="4"></rect>
                        <g id="Group" transform="translate(38.000000, 0.000000)" fill="#333333">
                            <path d="M3.5,4.1 L4.3,4.1 L4.3,4.7 L3.5,4.7 L3.5,6 L2.8,6 L2.8,4.7 L0.2,4.7 L0.2,4.3 L2.7,0.4 L3.5,0.4 L3.5,4.1 L3.5,4.1 Z M1.1,4.1 L2.9,4.1 L2.9,1.3 L2.8,1.5 L1.1,4.1 Z" id="Shape"></path>
                        </g>
                    </g>
                    <g id="specs-_x2F_-spacing-_x2F_-internal-_x2F_-H-20px" transform="translate(4.500000, 108.000000)" fill-rule="nonzero">
                        <rect id="Rectangle-3-Copy-5" fill="#F9CD94" x="0" y="0" width="84" height="20"></rect>
                        <g id="Group" transform="translate(36.000000, 6.000000)" fill="#333333">
                            <path d="M6.4,9 L0.8,9 L0.8,8.2 L3.8,4.9 C4.2,4.4 4.5,4 4.7,3.7 C4.9,3.4 4.9,3.1 4.9,2.7 C4.9,2.3 4.8,1.9 4.5,1.6 C4.2,1.3 3.9,1.2 3.4,1.2 C2.9,1.2 2.4,1.4 2.1,1.7 C1.8,2 1.7,2.4 1.7,3 L0.6,3 C0.6,2.2 0.9,1.6 1.4,1.1 C1.9,0.6 2.6,0.4 3.4,0.4 C4.2,0.4 4.8,0.6 5.3,1 C5.8,1.4 6,2 6,2.7 C6,3.5 5.5,4.5 4.4,5.7 L2.1,8.2 L6.4,8.2 L6.4,9 Z" id="Shape"></path>
                            <path d="M12.9,5.4 C12.9,6.7 12.7,7.6 12.2,8.2 C11.7,8.8 11.1,9.1 10.2,9.1 C9.3,9.1 8.6,8.8 8.2,8.2 C7.8,7.6 7.5,6.7 7.5,5.5 L7.5,4.1 C7.5,2.8 7.7,1.9 8.2,1.3 C8.7,0.7 9.3,0.4 10.2,0.4 C11.1,0.4 11.8,0.7 12.2,1.3 C12.6,1.9 12.9,2.8 12.9,4 L12.9,5.4 Z M11.8,3.9 C11.8,3 11.7,2.3 11.4,1.9 C11.1,1.5 10.7,1.3 10.2,1.3 C9.6,1.3 9.2,1.5 9,1.9 C8.8,2.3 8.6,3 8.6,3.8 L8.6,5.5 C8.6,6.4 8.7,7.1 9,7.5 C9.3,7.9 9.7,8.2 10.2,8.2 C10.7,8.2 11.1,8 11.4,7.6 C11.7,7.2 11.8,6.5 11.8,5.6 L11.8,3.9 Z" id="Shape"></path>
                        </g>
                    </g>
                    <g id="specs-_x2F_-spacing-_x2F_-internal-_x2F_-H-20px_1_" transform="translate(4.500000, 0.000000)" fill-rule="nonzero">
                        <rect id="Rectangle-3-Copy-5_1_" fill="#F9CD94" x="0" y="0" width="84" height="20"></rect>
                        <g id="Group" transform="translate(36.000000, 6.000000)" fill="#333333">
                            <path d="M6.4,9 L0.8,9 L0.8,8.2 L3.8,4.9 C4.2,4.4 4.5,4 4.7,3.7 C4.9,3.4 4.9,3.1 4.9,2.7 C4.9,2.3 4.8,1.9 4.5,1.6 C4.2,1.3 3.9,1.2 3.4,1.2 C2.9,1.2 2.4,1.4 2.1,1.7 C1.8,2 1.7,2.4 1.7,3 L0.6,3 C0.6,2.2 0.9,1.6 1.4,1.1 C1.9,0.6 2.6,0.4 3.4,0.4 C4.2,0.4 4.8,0.6 5.3,1 C5.8,1.4 6,2 6,2.7 C6,3.5 5.5,4.5 4.4,5.7 L2.1,8.2 L6.4,8.2 L6.4,9 Z" id="Shape"></path>
                            <path d="M12.9,5.4 C12.9,6.7 12.7,7.6 12.2,8.2 C11.7,8.8 11.1,9.1 10.2,9.1 C9.3,9.1 8.6,8.8 8.2,8.2 C7.8,7.6 7.5,6.7 7.5,5.5 L7.5,4.1 C7.5,2.8 7.7,1.9 8.2,1.3 C8.7,0.7 9.3,0.4 10.2,0.4 C11.1,0.4 11.8,0.7 12.2,1.3 C12.6,1.9 12.9,2.8 12.9,4 L12.9,5.4 Z M11.8,3.9 C11.8,3 11.7,2.3 11.4,1.9 C11.1,1.5 10.7,1.3 10.2,1.3 C9.6,1.3 9.2,1.5 9,1.9 C8.8,2.3 8.6,3 8.6,3.8 L8.6,5.5 C8.6,6.4 8.7,7.1 9,7.5 C9.3,7.9 9.7,8.2 10.2,8.2 C10.7,8.2 11.1,8 11.4,7.6 C11.7,7.2 11.8,6.5 11.8,5.6 L11.8,3.9 Z" id="Shape"></path>
                        </g>
                    </g>
                    <g id="specs-_x2F_-spacing-_x2F_-stack-_x2F_-H-08px" transform="translate(4.500000, 32.000000)" fill-rule="nonzero">
                        <rect id="Rectangle-3" fill="#9CC2EB" x="0" y="0" width="85" height="8"></rect>
                        <g id="Group" transform="translate(39.000000, 0.000000)" fill="#333333">
                            <path d="M5,2.7 C5,3.1 4.9,3.4 4.7,3.6 C4.6,4 4.3,4.2 4,4.3 C4.4,4.5 4.7,4.7 4.9,5 C5.1,5.3 5.2,5.7 5.2,6 C5.2,6.6 5,7.1 4.6,7.5 C4.2,7.9 3.6,8 3,8 C2.3,8 1.8,7.8 1.4,7.5 C1,7.1 0.8,6.6 0.8,6 C0.8,5.6 0.9,5.3 1.1,5 C1.3,4.7 1.6,4.5 2,4.3 C1.7,4.1 1.4,3.9 1.3,3.7 C1.1,3.4 1,3.1 1,2.8 C1,2.2 1.2,1.7 1.6,1.4 C1.8,1 2.3,0.8 3,0.8 C3.6,0.8 4.1,1 4.5,1.3 C4.9,1.6 5,2.1 5,2.7 Z M4.3,6.1 C4.3,5.7 4.2,5.4 3.9,5.1 C3.6,4.8 3.3,4.7 2.9,4.7 C2.5,4.7 2.2,4.8 1.9,5.1 C1.7,5.3 1.5,5.7 1.5,6.1 C1.5,6.5 1.6,6.8 1.9,7.1 C2.2,7.4 2.5,7.4 2.9,7.4 C3.3,7.4 3.7,7.3 3.9,7.1 C4.2,6.8 4.3,6.5 4.3,6.1 Z M3,1.5 C2.6,1.5 2.4,1.6 2.1,1.8 C1.9,2 1.8,2.3 1.8,2.7 C1.8,3.1 1.9,3.4 2.1,3.6 C2.3,3.9 2.6,4 3,4 C3.4,4 3.7,3.9 3.9,3.7 C4.1,3.5 4.2,3.2 4.2,2.8 C4.2,2.4 4,2.1 3.8,1.9 C3.6,1.7 3.3,1.5 3,1.5 Z" id="Shape"></path>
                        </g>
                    </g>
                    <g id="Support-Text-Annotation" transform="translate(0.500000, 54.000000)" fill-rule="nonzero">
                        <g id="Group" fill="#333333">
                            <polygon id="Shape" points="2.8 6 2.1 6 2.1 1.2 0.7 1.7 0.7 1.1 2.8 0.3 2.9 0.3 2.9 6"></polygon>
                        </g>
                        <polygon id="Fill-103" fill="#9CC2EB" points="4 3 89 3 89 2 4 2"></polygon>
                    </g>
                    <g id="Group-2" transform="translate(102.000000, 14.000000)">
                        <g id="specs-_x2F_-redlines-_x2F_-line-inclusive" transform="translate(40.000000, 14.000000) scale(-1, 1) translate(-40.000000, -14.000000) translate(0.500000, 0.000000)">
                            <path d="M0,13.9 L79,13.9" id="redline-line" stroke="#EC407A"></path>
                            <g id="specs-_x2F_-redlines-_x2F_-line-end-_x2F_-arrow" transform="translate(72.000000, 10.360000)">
                                <g id="redline-end">
                                    <polygon id="path-3" fill="#FFFFFF" fill-rule="nonzero" points="7 3.5 0 7 0 0"></polygon>
                                    <polygon id="Shape" stroke="#EC407A" points="5.9 3.5 0.5 0.8 0.5 6.2"></polygon>
                                </g>
                            </g>
                            <path d="M0.3,0.1 L0.3,27.8" id="Line" stroke="#F0367A" stroke-linecap="square"></path>
                        </g>
                    </g>
                    <g id="Group-2-Copy" transform="translate(144.000000, 18.000000)">
                        <g id="specs-_x2F_-redlines-_x2F_-line-inclusive_1_" transform="translate(50.500000, 45.000000) scale(-1, 1) translate(-50.500000, -45.000000) translate(0.500000, 31.000000)">
                            <path d="M0,13.9 L100,13.9" id="redline-line_1_" stroke="#EC407A"></path>
                            <g id="specs-_x2F_-redlines-_x2F_-line-end-_x2F_-arrow_1_" transform="translate(93.000000, 10.360000)">
                                <g id="redline-end_1_">
                                    <polygon id="path-4" fill="#FFFFFF" fill-rule="nonzero" points="7 3.5 0 7 0 0"></polygon>
                                    <polygon id="Shape" stroke="#EC407A" points="5.9 3.5 0.5 0.8 0.5 6.2"></polygon>
                                </g>
                            </g>
                            <path d="M0.5,0.1 L0.5,27.8" id="Line_1_" stroke="#F0367A" stroke-linecap="square"></path>
                        </g>
                        <g id="specs-_x2F_-redlines-_x2F_-label" transform="translate(107.500000, 32.000000)" fill-rule="nonzero" fill="#EC407A">
                            <g id="Group">
                                <polygon id="Shape" points="2 10 0.9 10 0.9 1 2 1"></polygon>
                                <path d="M7.6,10 C7.5,9.9 7.5,9.7 7.4,9.3 C6.9,9.8 6.3,10.1 5.6,10.1 C5,10.1 4.5,9.9 4.1,9.6 C3.7,9.3 3.5,8.8 3.5,8.3 C3.5,7.6 3.8,7.1 4.3,6.8 C4.8,6.5 5.5,6.3 6.4,6.3 L7.5,6.3 L7.5,5.7 C7.5,5.3 7.4,5 7.2,4.8 C7,4.6 6.6,4.5 6.2,4.5 C5.8,4.5 5.5,4.6 5.2,4.8 C4.9,5 4.8,5.1 4.8,5.4 L3.7,5.4 C3.7,5.1 3.8,4.8 4,4.5 C4.2,4.2 4.5,4 4.9,3.8 C5.3,3.6 5.7,3.5 6.2,3.5 C6.9,3.5 7.5,3.7 7.9,4 C8.3,4.3 8.5,5 8.6,5.6 L8.6,8.5 C8.6,9.1 8.7,9.5 8.8,9.9 L8.8,10 L7.6,10 Z M5.8,9.2 C6.1,9.2 6.5,9.1 6.8,8.9 C7.1,8.7 7.3,8.5 7.5,8.2 L7.5,6.9 L6.6,6.9 C5.3,6.9 4.6,7.3 4.6,8.1 C4.6,8.4 4.7,8.7 4.9,8.9 C5.1,9.1 5.5,9.2 5.8,9.2 Z" id="Shape"></path>
                                <path d="M15.6,6.9 C15.6,7.9 15.4,8.6 14.9,9.2 C14.4,9.8 13.9,10.1 13.1,10.1 C12.3,10.1 11.7,9.8 11.2,9.3 L11.3,10 L10.3,10 L10.3,1 L11.4,1 L11.4,4.4 C11.8,3.9 12.4,3.6 13.2,3.6 C14,3.6 14.6,3.9 15,4.5 C15.4,5.1 15.6,5.8 15.6,6.9 L15.6,6.9 Z M14.5,6.8 C14.5,6.1 14.4,5.5 14.1,5.1 C13.8,4.7 13.4,4.5 12.9,4.5 C12.2,4.5 11.7,4.8 11.4,5.5 L11.4,8.2 C11.7,8.9 12.2,9.2 13,9.2 C13.5,9.2 13.9,9 14.2,8.6 C14.5,8.2 14.5,7.6 14.5,6.8 Z" id="Shape"></path>
                                <path d="M19.6,10.1 C18.7,10.1 18,9.8 17.5,9.3 C17,8.8 16.7,8 16.7,7 L16.7,6.8 C16.7,6.2 16.8,5.6 17.1,5.1 C17.4,4.6 17.7,4.2 18.1,3.9 C18.5,3.6 19,3.5 19.5,3.5 C20.3,3.5 21,3.8 21.4,4.3 C21.8,4.8 22.1,5.6 22.1,6.6 L22.1,7.1 L17.8,7.1 C17.8,7.7 18,8.2 18.3,8.6 C18.6,9 19.1,9.2 19.6,9.2 C20,9.2 20.3,9.1 20.6,9 C20.9,8.9 21.1,8.6 21.3,8.4 L22,8.9 C21.5,9.7 20.7,10.1 19.6,10.1 Z M19.5,4.4 C19.1,4.4 18.7,4.6 18.4,4.9 C18.1,5.2 17.9,5.7 17.8,6.2 L21,6.2 L21,6.2 C21,5.6 20.8,5.2 20.6,4.9 C20.4,4.6 19.9,4.4 19.5,4.4 Z" id="Shape"></path>
                                <polygon id="Shape" points="24.5 10 23.4 10 23.4 1 24.5 1"></polygon>
                                <path d="M29.8,10 L29.8,4.5 L28.8,4.5 L28.8,3.7 L29.8,3.7 L29.8,3 C29.8,2.3 30,1.8 30.3,1.4 C30.6,1 31.2,0.8 31.8,0.8 C32,0.8 32.3,0.8 32.5,0.9 L32.4,1.8 C32.2,1.8 32,1.7 31.8,1.7 C31.4,1.7 31.2,1.8 31,2 C30.8,2.2 30.8,2.6 30.8,3 L30.8,3.7 L32.2,3.7 L32.2,4.5 L30.8,4.5 L30.8,10 L29.8,10 Z" id="Shape"></path>
                                <path d="M33.1,6.8 C33.1,6.2 33.2,5.6 33.5,5.1 C33.8,4.6 34.1,4.2 34.5,4 C34.9,3.8 35.4,3.6 36,3.6 C36.9,3.6 37.6,3.9 38.1,4.5 C38.6,5.1 38.9,5.9 38.9,6.9 L38.9,7 C38.9,7.6 38.8,8.2 38.5,8.7 C38.2,9.2 37.9,9.6 37.5,9.8 C37.1,10 36.6,10.2 36,10.2 C35.1,10.2 34.4,9.9 33.9,9.3 C33.4,8.7 33.1,7.8 33.1,6.8 L33.1,6.8 Z M34.2,6.9 C34.2,7.6 34.4,8.2 34.7,8.6 C35,9 35.5,9.2 36,9.2 C36.6,9.2 37,9 37.3,8.6 C37.6,8.2 37.8,7.6 37.8,6.8 C37.8,6.1 37.6,5.5 37.3,5.1 C37,4.7 36.5,4.4 36,4.4 C35.5,4.4 35,4.6 34.7,5 C34.4,5.4 34.2,6.1 34.2,6.9 Z" id="Shape"></path>
                                <path d="M41.3,3.7 L41.3,4.5 C41.8,3.9 42.4,3.6 43.2,3.6 C44.5,3.6 45.2,4.4 45.2,5.9 L45.2,10 L44.1,10 L44.1,5.8 C44.1,5.3 44,5 43.8,4.8 C43.6,4.6 43.3,4.5 42.8,4.5 C42.4,4.5 42.1,4.6 41.9,4.8 C41.7,5 41.4,5.2 41.3,5.5 L41.3,10 L40.2,10 L40.2,3.7 L41.3,3.7 Z" id="Shape"></path>
                                <path d="M48.3,2.1 L48.3,3.6 L49.5,3.6 L49.5,4.4 L48.3,4.4 L48.3,8.3 C48.3,8.6 48.4,8.7 48.5,8.9 C48.6,9.1 48.8,9.1 49,9.1 C49.1,9.1 49.3,9.1 49.5,9 L49.5,10 C49.2,10.1 48.9,10.1 48.7,10.1 C48.2,10.1 47.9,10 47.6,9.7 C47.3,9.4 47.2,9 47.2,8.5 L47.2,4.5 L46,4.5 L46,3.7 L47.2,3.7 L47.2,2.1 L48.3,2.1 Z" id="Shape"></path>
                                <path d="M50.7,9.4 C50.7,9.2 50.8,9.1 50.9,8.9 C51,8.7 51.2,8.7 51.4,8.7 C51.6,8.7 51.8,8.8 51.9,8.9 C52,9 52.1,9.2 52.1,9.4 C52.1,9.6 52,9.7 51.9,9.9 C51.8,10.1 51.6,10.1 51.4,10.1 C51.2,10.1 51,10 50.9,9.9 C50.8,9.8 50.7,9.6 50.7,9.4 Z M50.8,4.3 C50.8,4.1 50.9,4 51,3.8 C51.1,3.6 51.3,3.6 51.5,3.6 C51.7,3.6 51.9,3.7 52,3.8 C52.1,3.9 52.2,4.1 52.2,4.3 C52.2,4.5 52.1,4.6 52,4.8 C51.9,5 51.7,5 51.5,5 C51.3,5 51,4.8 50.9,4.7 C50.8,4.6 50.8,4.4 50.8,4.3 Z" id="Shape"></path>
                                <path d="M59.7,4.6 C59.5,4.6 59.4,4.6 59.2,4.6 C58.5,4.6 58,4.9 57.8,5.5 L57.8,10 L56.7,10 L56.7,3.7 L57.8,3.7 L57.8,4.4 C58.2,3.8 58.7,3.6 59.3,3.6 C59.5,3.6 59.7,3.6 59.8,3.7 L59.8,4.6 L59.7,4.6 Z" id="Shape"></path>
                                <path d="M60.3,6.8 C60.3,6.2 60.4,5.6 60.7,5.1 C61,4.6 61.3,4.2 61.7,4 C62.1,3.8 62.6,3.6 63.2,3.6 C64.1,3.6 64.8,3.9 65.3,4.5 C65.8,5.1 66.1,5.9 66.1,6.9 L66.1,7 C66.1,7.6 66,8.2 65.7,8.7 C65.4,9.2 65.1,9.6 64.7,9.8 C64.3,10 63.8,10.2 63.2,10.2 C62.3,10.2 61.6,9.9 61.1,9.3 C60.6,8.7 60.3,7.8 60.3,6.8 L60.3,6.8 Z M61.4,6.9 C61.4,7.6 61.6,8.2 61.9,8.6 C62.2,9 62.7,9.2 63.2,9.2 C63.8,9.2 64.2,9 64.5,8.6 C64.8,8.2 65,7.6 65,6.8 C65,6.1 64.8,5.5 64.5,5.1 C64.2,4.7 63.7,4.5 63.2,4.5 C62.7,4.5 62.2,4.7 61.9,5.1 C61.6,5.5 61.4,6.1 61.4,6.9 Z" id="Shape"></path>
                                <path d="M72.8,6.9 C72.8,7.9 72.6,8.6 72.1,9.2 C71.6,9.8 71.1,10.1 70.3,10.1 C69.5,10.1 68.9,9.8 68.4,9.3 L68.4,10 L67.4,10 L67.4,1 L68.5,1 L68.5,4.4 C68.9,3.9 69.5,3.6 70.3,3.6 C71.1,3.6 71.7,3.9 72.1,4.5 C72.5,5.1 72.8,5.8 72.8,6.9 L72.8,6.9 Z M71.7,6.8 C71.7,6.1 71.6,5.5 71.3,5.1 C71,4.7 70.6,4.5 70.1,4.5 C69.4,4.5 68.9,4.8 68.6,5.5 L68.6,8.2 C68.9,8.9 69.4,9.2 70.2,9.2 C70.7,9.2 71.1,9 71.4,8.6 C71.7,8.2 71.7,7.6 71.7,6.8 Z" id="Shape"></path>
                                <path d="M73.9,6.8 C73.9,6.2 74,5.6 74.3,5.1 C74.6,4.6 74.9,4.2 75.3,4 C75.7,3.8 76.2,3.6 76.8,3.6 C77.7,3.6 78.4,3.9 78.9,4.5 C79.4,5.1 79.7,5.9 79.7,6.9 L79.7,7 C79.7,7.6 79.6,8.2 79.3,8.7 C79,9.2 78.7,9.6 78.3,9.8 C77.9,10 77.4,10.2 76.8,10.2 C75.9,10.2 75.2,9.9 74.7,9.3 C74.2,8.7 73.9,7.8 73.9,6.8 L73.9,6.8 Z M75,6.9 C75,7.6 75.2,8.2 75.5,8.6 C75.8,9 76.3,9.2 76.8,9.2 C77.4,9.2 77.8,9 78.1,8.6 C78.4,8.2 78.6,7.6 78.6,6.8 C78.6,6.1 78.4,5.5 78.1,5.1 C77.8,4.7 77.3,4.5 76.8,4.5 C76.3,4.5 75.8,4.7 75.5,5.1 C75.2,5.5 75,6.1 75,6.9 Z" id="Shape"></path>
                                <path d="M82.5,2.1 L82.5,3.6 L83.7,3.6 L83.7,4.4 L82.5,4.4 L82.5,8.3 C82.5,8.6 82.6,8.7 82.7,8.9 C82.8,9.1 83,9.1 83.2,9.1 C83.3,9.1 83.5,9.1 83.7,9 L83.7,10 C83.4,10.1 83.1,10.1 82.9,10.1 C82.4,10.1 82.1,10 81.8,9.7 C81.5,9.4 81.4,9 81.4,8.5 L81.4,4.5 L80.2,4.5 L80.2,3.7 L81.4,3.7 L81.4,2.1 L82.5,2.1 Z" id="Shape"></path>
                                <path d="M84.5,6.8 C84.5,6.2 84.6,5.6 84.9,5.1 C85.2,4.6 85.5,4.2 85.9,4 C86.3,3.8 86.8,3.6 87.4,3.6 C88.3,3.6 89,3.9 89.5,4.5 C90,5.1 90.3,5.9 90.3,6.9 L90.3,7 C90.3,7.6 90.2,8.2 89.9,8.7 C89.6,9.2 89.3,9.6 88.9,9.8 C88.5,10 88,10.2 87.4,10.2 C86.5,10.2 85.8,9.9 85.3,9.3 C84.8,8.7 84.5,7.8 84.5,6.8 L84.5,6.8 Z M85.6,6.9 C85.6,7.6 85.8,8.2 86.1,8.6 C86.4,9 86.9,9.2 87.4,9.2 C88,9.2 88.4,9 88.7,8.6 C89,8.2 89.2,7.6 89.2,6.8 C89.2,6.1 89,5.5 88.7,5.1 C88.4,4.7 88,4.4 87.4,4.4 C86.9,4.4 86.4,4.6 86.1,5 C85.8,5.4 85.6,6.1 85.6,6.9 Z" id="Shape"></path>
                                <path d="M91.6,11.7 L91,11.3 C91.4,10.8 91.6,10.3 91.6,9.7 L91.6,8.7 L92.7,8.7 L92.7,9.5 C92.7,9.9 92.6,10.3 92.4,10.7 C92.2,11.1 91.9,11.5 91.6,11.7 Z" id="Shape"></path>
                                <path d="M100.1,4.6 C99.9,4.6 99.8,4.6 99.6,4.6 C98.9,4.6 98.4,4.9 98.2,5.5 L98.2,10 L97,10 L97,3.7 L98.1,3.7 L98.1,4.4 C98.5,3.8 99,3.6 99.6,3.6 C99.8,3.6 100,3.6 100.1,3.7 L100.1,4.6 Z" id="Shape"></path>
                                <path d="M103.7,10.1 C102.8,10.1 102.1,9.8 101.6,9.3 C101.1,8.8 100.8,8 100.8,7 L100.8,6.8 C100.8,6.2 100.9,5.6 101.2,5.1 C101.5,4.6 101.8,4.2 102.2,3.9 C102.6,3.6 103.1,3.5 103.6,3.5 C104.4,3.5 105.1,3.8 105.5,4.3 C105.9,4.8 106.2,5.6 106.2,6.6 L106.2,7.1 L101.9,7.1 C101.9,7.7 102.1,8.2 102.4,8.6 C102.7,9 103.2,9.2 103.7,9.2 C104.1,9.2 104.4,9.1 104.7,9 C105,8.9 105.2,8.6 105.4,8.4 L106.1,8.9 C105.5,9.7 104.8,10.1 103.7,10.1 Z M103.6,4.4 C103.2,4.4 102.8,4.6 102.5,4.9 C102.2,5.2 102,5.7 101.9,6.2 L105.1,6.2 L105.1,6.2 C105.1,5.6 104.9,5.2 104.7,4.9 C104.5,4.6 104,4.4 103.6,4.4 Z" id="Shape"></path>
                                <path d="M107.2,6.8 C107.2,5.8 107.4,5 107.9,4.4 C108.4,3.8 109,3.5 109.7,3.5 C110.5,3.5 111.1,3.8 111.5,4.3 L111.6,3.6 L112.6,3.6 L112.6,9.8 C112.6,10.6 112.4,11.3 111.9,11.7 C111.4,12.1 110.8,12.4 109.9,12.4 C109.4,12.4 109,12.3 108.6,12.1 C108.2,11.9 107.8,11.6 107.6,11.3 L108.2,10.6 C108.7,11.2 109.2,11.5 109.9,11.5 C110.4,11.5 110.8,11.4 111.1,11.1 C111.4,10.8 111.5,10.4 111.5,9.8 L111.5,9.3 C111.1,9.8 110.5,10.1 109.7,10.1 C109,10.1 108.4,9.8 107.9,9.2 C107.4,8.6 107.2,7.8 107.2,6.8 Z M108.2,6.9 C108.2,7.6 108.3,8.2 108.6,8.6 C108.9,9 109.3,9.2 109.8,9.2 C110.5,9.2 111,8.9 111.3,8.3 L111.3,5.4 C111,4.8 110.5,4.5 109.8,4.5 C109.3,4.5 108.9,4.7 108.6,5.1 C108.3,5.5 108.2,6.1 108.2,6.9 Z" id="Shape"></path>
                                <path d="M118.1,9.4 C117.7,9.9 117.1,10.1 116.2,10.1 C115.5,10.1 115,9.9 114.7,9.5 C114.4,9.1 114.2,8.5 114.2,7.8 L114.2,3.7 L115.3,3.7 L115.3,7.8 C115.3,8.8 115.7,9.2 116.5,9.2 C117.3,9.2 117.9,8.9 118.2,8.3 L118.2,3.7 L119.3,3.7 L119.3,10 L118.3,10 L118.1,9.4 Z" id="Shape"></path>
                                <polygon id="Shape" points="121.9 10 120.8 10 120.8 1 121.9 1"></polygon>
                                <path d="M127.6,10 C127.5,9.9 127.5,9.7 127.4,9.3 C126.9,9.8 126.3,10.1 125.6,10.1 C125,10.1 124.5,9.9 124.1,9.6 C123.7,9.3 123.5,8.8 123.5,8.3 C123.5,7.6 123.8,7.1 124.3,6.8 C124.8,6.5 125.5,6.3 126.4,6.3 L127.5,6.3 L127.5,5.7 C127.5,5.3 127.4,5 127.2,4.8 C127,4.6 126.6,4.5 126.2,4.5 C125.8,4.5 125.5,4.6 125.2,4.8 C124.9,5 124.8,5.2 124.8,5.5 L123.7,5.5 C123.7,5.2 123.8,4.9 124,4.6 C124.2,4.3 124.5,4.1 124.9,3.9 C125.3,3.7 125.7,3.6 126.2,3.6 C126.9,3.6 127.5,3.8 127.9,4.1 C128.3,4.4 128.5,5 128.5,5.6 L128.5,8.5 C128.5,9.1 128.6,9.5 128.7,9.9 L128.7,10 L127.6,10 Z M125.8,9.2 C126.1,9.2 126.5,9.1 126.8,8.9 C127.1,8.7 127.3,8.5 127.5,8.2 L127.5,6.9 L126.7,6.9 C125.4,6.9 124.7,7.3 124.7,8.1 C124.7,8.4 124.8,8.7 125,8.9 C125.2,9.1 125.4,9.2 125.8,9.2 Z" id="Shape"></path>
                                <path d="M133.3,4.6 C133.1,4.6 133,4.6 132.8,4.6 C132.1,4.6 131.6,4.9 131.4,5.5 L131.4,10 L130.3,10 L130.3,3.7 L131.4,3.7 L131.4,4.4 C131.8,3.8 132.3,3.6 132.9,3.6 C133.1,3.6 133.3,3.6 133.4,3.7 L133.4,4.6 L133.3,4.6 Z" id="Shape"></path>
                                <path d="M133.5,11.7 L132.9,11.3 C133.3,10.8 133.5,10.3 133.5,9.7 L133.5,8.7 L134.6,8.7 L134.6,9.5 C134.6,9.9 134.5,10.3 134.3,10.7 C134.1,11.1 133.8,11.5 133.5,11.7 Z" id="Shape"></path>
                                <polygon id="Shape" points="142.3 10 141.2 10 141.2 2.8 139 3.6 139 2.6 142.1 1.4 142.3 1.4 142.3 10"></polygon>
                                <path d="M151.1,10 L145.5,10 L145.5,9.2 L148.5,5.9 C148.9,5.4 149.2,5 149.4,4.7 C149.6,4.4 149.6,4.1 149.6,3.7 C149.6,3.3 149.5,2.9 149.2,2.6 C148.9,2.3 148.6,2.2 148.1,2.2 C147.6,2.2 147.1,2.4 146.8,2.7 C146.5,3 146.4,3.4 146.4,4 L145.3,4 C145.3,3.2 145.6,2.6 146.1,2.1 C146.6,1.6 147.3,1.4 148.1,1.4 C148.9,1.4 149.5,1.6 150,2 C150.5,2.4 150.7,3 150.7,3.7 C150.7,4.5 150.2,5.5 149.1,6.7 L146.8,9.2 L151.1,9.2 L151.1,10 Z" id="Shape"></path>
                                <path d="M160.7,6.9 C160.7,7.9 160.5,8.6 160,9.2 C159.5,9.8 159,10.1 158.2,10.1 C157.4,10.1 156.8,9.9 156.4,9.4 L156.4,12.5 L155.3,12.5 L155.3,3.7 L156.3,3.7 L156.4,4.4 C156.8,3.9 157.5,3.6 158.2,3.6 C159,3.6 159.6,3.9 160,4.5 C160.4,5.1 160.7,5.8 160.7,6.9 L160.7,6.9 Z M159.6,6.8 C159.6,6.1 159.4,5.5 159.1,5.1 C158.8,4.7 158.4,4.5 157.8,4.5 C157.1,4.5 156.7,4.8 156.3,5.4 L156.3,8.4 C156.6,9 157.1,9.3 157.8,9.3 C158.3,9.3 158.7,9.1 159,8.7 C159.3,8.3 159.6,7.6 159.6,6.8 Z" id="Shape"></path>
                                <polygon id="Shape" points="164.2 6 165.6 3.7 166.9 3.7 164.8 6.8 166.9 10 165.6 10 164.1 7.6 162.6 10 161.3 10 163.4 6.8 161.3 3.7 162.6 3.7"></polygon>
                            </g>
                        </g>
                        <g id="specs-_x2F_-redlines-_x2F_-label_1_" transform="translate(107.500000, 44.000000)" fill-rule="nonzero" fill="#EC407A">
                            <g id="Group">
                                <path d="M4.5,7.6 L2.9,7.6 L2.5,10 L1.6,10 L2.1,7.6 L0.7,7.6 L0.7,6.8 L2.3,6.8 L2.7,4.7 L1.1,4.7 L1.1,3.9 L2.8,3.9 L3.3,1.5 L4.1,1.5 L3.7,3.9 L5.2,3.9 L5.7,1.5 L6.5,1.5 L6,3.9 L7.2,3.9 L7.2,4.7 L5.9,4.7 L5.5,6.8 L6.8,6.8 L6.8,7.6 L5.3,7.6 L4.9,10 L4,10 L4.5,7.6 Z M3.1,6.8 L4.6,6.8 L5,4.7 L3.5,4.7 L3.1,6.8 Z" id="Shape"></path>
                                <path d="M12.4,1.5 L12.4,2.4 L12.2,2.4 C11.4,2.4 10.7,2.7 10.2,3.2 C9.7,3.7 9.4,4.4 9.3,5.2 C9.7,4.7 10.4,4.4 11.1,4.4 C11.8,4.4 12.4,4.7 12.9,5.2 C13.4,5.7 13.6,6.4 13.6,7.2 C13.6,8.1 13.4,8.8 12.9,9.3 C12.4,9.8 11.8,10.1 11,10.1 C10.2,10.1 9.5,9.8 9,9.2 C8.5,8.6 8.2,7.8 8.2,6.8 L8.2,6.3 C8.2,4.7 8.5,3.5 9.2,2.7 C9.9,1.9 10.9,1.4 12.2,1.4 L12.4,1.4 L12.4,1.5 Z M10.9,5.3 C10.5,5.3 10.2,5.4 9.9,5.6 C9.6,5.8 9.4,6.1 9.3,6.5 L9.3,6.9 C9.3,7.6 9.5,8.2 9.8,8.6 C10.1,9 10.5,9.2 11,9.2 C11.5,9.2 11.9,9 12.2,8.7 C12.5,8.4 12.6,7.9 12.6,7.3 C12.6,6.7 12.5,6.2 12.2,5.9 C11.9,5.6 11.4,5.3 10.9,5.3 Z" id="Shape"></path>
                                <path d="M20.3,6.9 C20.3,7.9 20.1,8.6 19.6,9.2 C19.1,9.8 18.6,10.1 17.8,10.1 C17,10.1 16.4,9.8 15.9,9.3 L15.9,10 L14.9,10 L14.9,1 L16,1 L16,4.4 C16.4,3.9 17,3.6 17.8,3.6 C18.6,3.6 19.2,3.9 19.6,4.5 C20,5.1 20.3,5.8 20.3,6.9 L20.3,6.9 Z M19.2,6.8 C19.2,6.1 19.1,5.5 18.8,5.1 C18.5,4.7 18.1,4.5 17.6,4.5 C16.9,4.5 16.4,4.8 16.1,5.5 L16.1,8.2 C16.4,8.9 16.9,9.2 17.7,9.2 C18.2,9.2 18.6,9 18.9,8.6 C19.2,8.2 19.2,7.6 19.2,6.8 Z" id="Shape"></path>
                                <path d="M25.8,1.5 L25.8,2.4 L25.6,2.4 C24.8,2.4 24.1,2.7 23.6,3.2 C23.1,3.7 22.8,4.4 22.7,5.2 C23.1,4.7 23.8,4.4 24.5,4.4 C25.2,4.4 25.8,4.7 26.3,5.2 C26.8,5.7 27,6.4 27,7.2 C27,8.1 26.8,8.8 26.3,9.3 C25.8,9.8 25.2,10.1 24.4,10.1 C23.6,10.1 22.9,9.8 22.4,9.2 C21.9,8.6 21.6,7.8 21.6,6.8 L21.6,6.3 C21.6,4.7 21.9,3.5 22.6,2.7 C23.3,1.9 24.3,1.4 25.6,1.4 L25.8,1.4 L25.8,1.5 Z M24.4,5.3 C24,5.3 23.7,5.4 23.4,5.6 C23.1,5.8 22.9,6.1 22.7,6.4 L22.7,6.8 C22.7,7.5 22.9,8.1 23.2,8.5 C23.5,8.9 23.9,9.1 24.4,9.1 C24.9,9.1 25.3,8.9 25.6,8.6 C25.9,8.3 26,7.8 26,7.2 C26,6.6 25.9,6.1 25.6,5.8 C25.3,5.5 24.9,5.3 24.4,5.3 Z" id="Shape"></path>
                                <path d="M33.8,6.9 C33.8,7.9 33.6,8.6 33.1,9.2 C32.6,9.8 32.1,10.1 31.3,10.1 C30.5,10.1 29.9,9.8 29.4,9.3 L29.4,10 L28.4,10 L28.4,1 L29.5,1 L29.5,4.4 C29.9,3.9 30.5,3.6 31.3,3.6 C32.1,3.6 32.7,3.9 33.1,4.5 C33.5,5.1 33.8,5.8 33.8,6.9 L33.8,6.9 Z M32.7,6.8 C32.7,6.1 32.6,5.5 32.3,5.1 C32,4.7 31.6,4.5 31,4.5 C30.3,4.5 29.8,4.8 29.5,5.5 L29.5,8.2 C29.8,8.9 30.3,9.2 31.1,9.2 C31.6,9.2 32,9 32.3,8.6 C32.6,8.2 32.7,7.6 32.7,6.8 Z" id="Shape"></path>
                                <path d="M39.3,1.5 L39.3,2.4 L39.1,2.4 C38.3,2.4 37.6,2.7 37.1,3.2 C36.6,3.7 36.3,4.4 36.2,5.2 C36.6,4.7 37.3,4.4 38,4.4 C38.7,4.4 39.3,4.7 39.8,5.2 C40.3,5.7 40.5,6.4 40.5,7.2 C40.5,8.1 40.3,8.8 39.8,9.3 C39.3,9.8 38.7,10.1 37.9,10.1 C37.1,10.1 36.4,9.8 35.9,9.2 C35.4,8.6 35.1,7.8 35.1,6.8 L35.1,6.3 C35.1,4.7 35.4,3.5 36.1,2.7 C36.8,1.9 37.8,1.4 39.1,1.4 L39.3,1.4 L39.3,1.5 Z M37.9,5.3 C37.5,5.3 37.2,5.4 36.9,5.6 C36.6,5.8 36.4,6.1 36.2,6.4 L36.2,6.8 C36.2,7.5 36.4,8.1 36.7,8.5 C37,8.9 37.4,9.1 37.9,9.1 C38.4,9.1 38.8,8.9 39.1,8.6 C39.4,8.3 39.5,7.8 39.5,7.2 C39.5,6.6 39.4,6.1 39.1,5.8 C38.8,5.5 38.3,5.3 37.9,5.3 Z" id="Shape"></path>
                                <path d="M47.3,6.9 C47.3,7.9 47.1,8.6 46.6,9.2 C46.1,9.8 45.6,10.1 44.8,10.1 C44,10.1 43.4,9.8 42.9,9.3 L42.9,10 L41.9,10 L41.9,1 L43,1 L43,4.4 C43.4,3.9 44,3.6 44.8,3.6 C45.6,3.6 46.2,3.9 46.6,4.5 C47,5.1 47.3,5.8 47.3,6.9 L47.3,6.9 Z M46.2,6.8 C46.2,6.1 46.1,5.5 45.8,5.1 C45.5,4.7 45,4.5 44.5,4.5 C43.8,4.5 43.3,4.8 43,5.5 L43,8.2 C43.3,8.9 43.8,9.2 44.6,9.2 C45.1,9.2 45.5,9 45.8,8.6 C46.1,8.2 46.2,7.6 46.2,6.8 Z" id="Shape"></path>
                                <path d="M51.6,6.5 C51.6,5.6 51.7,4.8 52,4 C52.3,3.2 52.6,2.4 53.1,1.8 C53.6,1.2 54.1,0.7 54.6,0.4 L54.8,1.1 C54.2,1.5 53.8,2.2 53.4,3.1 C53,4 52.8,5 52.8,6.1 L52.8,6.6 C52.8,8.1 53.1,9.4 53.6,10.5 C53.9,11.2 54.3,11.7 54.8,12.1 L54.6,12.8 C54.1,12.5 53.6,12 53.1,11.3 C52,10 51.6,8.4 51.6,6.5 Z" id="Shape"></path>
                                <path d="M55.4,6.8 C55.4,5.8 55.6,5 56.1,4.4 C56.6,3.8 57.2,3.5 57.9,3.5 C58.7,3.5 59.3,3.8 59.7,4.3 L59.8,3.6 L60.8,3.6 L60.8,9.8 C60.8,10.6 60.6,11.3 60.1,11.7 C59.6,12.1 59,12.4 58.1,12.4 C57.6,12.4 57.2,12.3 56.8,12.1 C56.4,11.9 56,11.6 55.8,11.3 L56.4,10.6 C56.9,11.2 57.4,11.5 58.1,11.5 C58.6,11.5 59,11.4 59.3,11.1 C59.6,10.8 59.7,10.4 59.7,9.8 L59.7,9.3 C59.3,9.8 58.7,10.1 57.9,10.1 C57.2,10.1 56.6,9.8 56.1,9.2 C55.6,8.6 55.4,7.8 55.4,6.8 Z M56.5,6.9 C56.5,7.6 56.6,8.2 56.9,8.6 C57.2,9 57.6,9.2 58.1,9.2 C58.8,9.2 59.3,8.9 59.6,8.3 L59.6,5.4 C59.3,4.8 58.8,4.5 58.1,4.5 C57.6,4.5 57.2,4.7 56.9,5.1 C56.6,5.5 56.5,6.1 56.5,6.9 Z" id="Shape"></path>
                                <path d="M65.5,4.6 C65.3,4.6 65.2,4.6 65,4.6 C64.3,4.6 63.8,4.9 63.6,5.5 L63.6,10 L62.5,10 L62.5,3.7 L63.6,3.7 L63.6,4.4 C64,3.8 64.5,3.6 65.1,3.6 C65.3,3.6 65.5,3.6 65.6,3.7 L65.6,4.6 L65.5,4.6 Z" id="Shape"></path>
                                <path d="M70.2,10 C70.1,9.9 70.1,9.7 70,9.3 C69.5,9.8 68.9,10.1 68.2,10.1 C67.6,10.1 67.1,9.9 66.7,9.6 C66.3,9.3 66.1,8.8 66.1,8.3 C66.1,7.6 66.4,7.1 66.9,6.8 C67.4,6.5 68.1,6.3 69,6.3 L70,6.3 L70,5.7 C70,5.3 69.9,5 69.7,4.8 C69.5,4.6 69.1,4.5 68.7,4.5 C68.3,4.5 68,4.6 67.7,4.8 C67.4,5 67.3,5.2 67.3,5.5 L66.2,5.5 C66.2,5.2 66.3,4.9 66.5,4.6 C66.7,4.3 67,4.1 67.4,3.9 C67.8,3.7 68.2,3.6 68.7,3.6 C69.4,3.6 70,3.8 70.4,4.1 C70.8,4.4 71,5 71,5.6 L71,8.5 C71,9.1 71.1,9.5 71.2,9.9 L71.2,10 L70.2,10 Z M68.4,9.2 C68.7,9.2 69.1,9.1 69.4,8.9 C69.7,8.7 69.9,8.5 70.1,8.2 L70.1,6.9 L69.3,6.9 C68,6.9 67.3,7.3 67.3,8.1 C67.3,8.4 67.4,8.7 67.6,8.9 C67.8,9.1 68,9.2 68.4,9.2 Z" id="Shape"></path>
                                <path d="M74.9,8.4 L76.4,3.6 L77.6,3.6 L74.9,11 C74.5,12.1 73.9,12.6 73,12.6 L72.8,12.6 L72.4,12.5 L72.4,11.6 L72.7,11.6 C73.1,11.6 73.4,11.5 73.6,11.4 C73.8,11.3 74,11 74.1,10.6 L74.3,10 L72,3.7 L73.2,3.7 L74.9,8.4 Z" id="Shape"></path>
                                <polygon id="Shape" points="86.8 2.1 83.3 10 82.2 10 85.7 2.4 81.1 2.4 81.1 1.5 86.9 1.5 86.9 2.1"></polygon>
                                <path d="M88.6,5.7 L89,1.5 L93.4,1.5 L93.4,2.5 L89.9,2.5 L89.6,4.8 C90,4.6 90.5,4.4 91,4.4 C91.8,4.4 92.4,4.7 92.9,5.2 C93.4,5.7 93.6,6.4 93.6,7.3 C93.6,8.2 93.4,8.9 92.9,9.4 C92.4,9.9 91.8,10.2 90.9,10.2 C90.1,10.2 89.5,10 89.1,9.6 C88.7,9.2 88.4,8.6 88.3,7.9 L89.3,7.9 C89.4,8.4 89.5,8.8 89.8,9 C90.1,9.2 90.5,9.4 90.9,9.4 C91.4,9.4 91.8,9.2 92.1,8.9 C92.4,8.6 92.5,8.1 92.5,7.5 C92.5,6.9 92.3,6.5 92,6.1 C91.7,5.7 91.3,5.6 90.8,5.6 C90.3,5.6 90,5.7 89.7,5.9 L89.4,6.1 L88.6,5.7 Z" id="Shape"></path>
                                <path d="M100.1,6.4 C100.1,7.7 99.9,8.6 99.4,9.2 C98.9,9.8 98.3,10.1 97.4,10.1 C96.5,10.1 95.8,9.8 95.4,9.2 C95,8.6 94.7,7.7 94.7,6.5 L94.7,5.1 C94.7,3.8 94.9,2.9 95.4,2.3 C95.9,1.7 96.5,1.4 97.4,1.4 C98.3,1.4 99,1.7 99.4,2.3 C99.8,2.9 100.1,3.8 100.1,5 L100.1,6.4 Z M99.1,4.9 C99.1,4 99,3.3 98.7,2.9 C98.4,2.5 98,2.2 97.4,2.2 C96.8,2.2 96.4,2.4 96.2,2.8 C96,3.2 95.8,3.9 95.8,4.7 L95.8,6.4 C95.8,7.3 95.9,8 96.2,8.4 C96.5,8.8 96.9,9.1 97.4,9.1 C97.9,9.1 98.3,8.9 98.6,8.5 C98.9,8.1 99,7.4 99,6.5 L99,4.9 L99.1,4.9 Z" id="Shape"></path>
                                <path d="M104.1,6.6 C104.1,7.5 104,8.3 103.8,9.1 C103.6,9.9 103.2,10.6 102.8,11.3 C102.4,12 101.8,12.5 101.3,12.7 L101.1,12 C101.7,11.5 102.2,10.8 102.6,9.9 C103,9 103.2,7.9 103.2,6.7 L103.2,6.5 C103.2,5.7 103.1,4.9 102.9,4.2 C102.7,3.5 102.5,2.9 102.2,2.3 C101.9,1.7 101.5,1.3 101.2,1 L101.4,0.3 C101.9,0.6 102.4,1.1 102.9,1.7 C103.4,2.3 103.7,3.1 103.9,3.9 C104.1,4.7 104.1,5.7 104.1,6.6 Z" id="Shape"></path>
                            </g>
                        </g>
                        <g id="Group" transform="translate(47.000000, 0.000000)" fill-rule="nonzero" fill="#EC407A">
                            <polygon id="Shape" points="2 9.5 0.9 9.5 0.9 0.5 2 0.5"></polygon>
                            <path d="M7.6,9.5 C7.5,9.4 7.5,9.2 7.4,8.8 C6.9,9.3 6.3,9.6 5.6,9.6 C5,9.6 4.5,9.4 4.1,9.1 C3.7,8.8 3.5,8.3 3.5,7.8 C3.5,7.1 3.8,6.6 4.3,6.3 C4.8,6 5.5,5.8 6.4,5.8 L7.5,5.8 L7.5,5.2 C7.5,4.8 7.4,4.5 7.2,4.3 C7,4.1 6.6,4 6.2,4 C5.8,4 5.5,4.1 5.2,4.3 C4.9,4.5 4.8,4.7 4.8,5 L3.7,5 C3.7,4.7 3.8,4.4 4,4.1 C4.2,3.8 4.5,3.6 4.9,3.4 C5.3,3.2 5.7,3 6.2,3 C6.9,3 7.5,3.2 7.9,3.5 C8.3,3.8 8.5,4.4 8.5,5 L8.5,8 C8.5,8.6 8.6,9 8.7,9.4 L8.7,9.5 L7.6,9.5 Z M5.8,8.7 C6.1,8.7 6.5,8.6 6.8,8.4 C7.1,8.2 7.3,8 7.5,7.7 L7.5,6.4 L6.7,6.4 C5.4,6.4 4.7,6.8 4.7,7.6 C4.7,7.9 4.8,8.2 5,8.4 C5.2,8.6 5.5,8.7 5.8,8.7 Z" id="Shape"></path>
                            <path d="M15.6,6.4 C15.6,7.4 15.4,8.1 14.9,8.7 C14.4,9.3 13.9,9.6 13.1,9.6 C12.3,9.6 11.7,9.3 11.2,8.8 L11.1,9.5 L10.1,9.5 L10.1,0.5 L11.2,0.5 L11.2,3.9 C11.6,3.4 12.2,3.1 13,3.1 C13.8,3.1 14.4,3.4 14.8,4 C15.2,4.6 15.6,5.3 15.6,6.4 L15.6,6.4 Z M14.5,6.3 C14.5,5.6 14.4,5 14.1,4.6 C13.8,4.2 13.4,4 12.9,4 C12.2,4 11.7,4.3 11.4,5 L11.4,7.7 C11.7,8.4 12.2,8.7 13,8.7 C13.5,8.7 13.9,8.5 14.2,8.1 C14.5,7.7 14.5,7.1 14.5,6.3 Z" id="Shape"></path>
                            <path d="M19.6,9.6 C18.7,9.6 18,9.3 17.5,8.8 C17,8.3 16.7,7.5 16.7,6.5 L16.7,6.3 C16.7,5.7 16.8,5.1 17.1,4.6 C17.4,4.1 17.7,3.7 18.1,3.4 C18.5,3.1 19,3 19.5,3 C20.3,3 21,3.3 21.4,3.8 C21.8,4.3 22.1,5.1 22.1,6.1 L22.1,6.6 L17.8,6.6 C17.8,7.2 18,7.7 18.3,8.1 C18.6,8.5 19.1,8.7 19.6,8.7 C20,8.7 20.3,8.6 20.6,8.5 C20.9,8.4 21.1,8.1 21.3,7.9 L22,8.4 C21.5,9.2 20.7,9.6 19.6,9.6 Z M19.5,3.9 C19.1,3.9 18.7,4.1 18.4,4.4 C18.1,4.7 17.9,5.2 17.8,5.7 L21,5.7 L21,5.7 C21,5.1 20.8,4.7 20.6,4.4 C20.4,4.1 19.9,3.9 19.5,3.9 Z" id="Shape"></path>
                            <polygon id="Shape" points="24.5 9.5 23.4 9.5 23.4 0.5 24.5 0.5"></polygon>
                            <path d="M29.8,9.5 L29.8,4 L28.8,4 L28.8,3.2 L29.8,3.2 L29.8,2.5 C29.8,1.8 30,1.3 30.3,0.9 C30.6,0.5 31.2,0.3 31.8,0.3 C32,0.3 32.3,0.3 32.5,0.4 L32.4,1.3 C32.2,1.3 32,1.2 31.8,1.2 C31.4,1.2 31.2,1.3 31,1.5 C30.8,1.7 30.7,2 30.7,2.4 L30.7,3.1 L32.1,3.1 L32.1,4 L30.7,4 L30.7,9.5 L29.8,9.5 Z" id="Shape"></path>
                            <path d="M33.1,6.3 C33.1,5.7 33.2,5.1 33.5,4.6 C33.8,4.1 34.1,3.7 34.5,3.5 C34.9,3.3 35.4,3 36,3 C36.9,3 37.6,3.3 38.1,3.9 C38.6,4.5 38.9,5.3 38.9,6.3 L38.9,6.4 C38.9,7 38.8,7.6 38.5,8.1 C38.2,8.6 37.9,9 37.5,9.2 C37.1,9.4 36.6,9.6 36,9.6 C35.1,9.6 34.4,9.3 33.9,8.7 C33.4,8.1 33.1,7.3 33.1,6.3 L33.1,6.3 Z M34.2,6.4 C34.2,7.1 34.4,7.7 34.7,8.1 C35,8.5 35.5,8.7 36,8.7 C36.6,8.7 37,8.5 37.3,8.1 C37.6,7.7 37.8,7.1 37.8,6.3 C37.8,5.6 37.6,5 37.3,4.6 C37,4.2 36.5,3.9 36,3.9 C35.5,3.9 35,4.1 34.7,4.5 C34.4,4.9 34.2,5.6 34.2,6.4 Z" id="Shape"></path>
                            <path d="M41.3,3.2 L41.3,4 C41.8,3.3 42.4,3 43.2,3 C44.5,3 45.2,3.8 45.2,5.3 L45.2,9.5 L44.1,9.5 L44.1,5.3 C44.1,4.8 44,4.5 43.8,4.3 C43.6,4.1 43.3,4 42.9,4 C42.5,4 42.2,4.1 42,4.3 C41.8,4.5 41.5,4.7 41.3,5 L41.3,9.5 L40.2,9.5 L40.2,3.2 L41.3,3.2 Z" id="Shape"></path>
                            <path d="M48.3,1.6 L48.3,3.1 L49.5,3.1 L49.5,4 L48.3,4 L48.3,7.9 C48.3,8.2 48.4,8.3 48.5,8.5 C48.6,8.7 48.8,8.7 49,8.7 C49.1,8.7 49.3,8.7 49.5,8.6 L49.5,9.5 C49.2,9.6 48.9,9.6 48.7,9.6 C48.2,9.6 47.9,9.5 47.6,9.2 C47.3,8.9 47.2,8.5 47.2,8 L47.2,4 L46,4 L46,3.2 L47.2,3.2 L47.2,1.6 L48.3,1.6 Z" id="Shape"></path>
                            <path d="M50.7,8.9 C50.7,8.7 50.8,8.6 50.9,8.4 C51,8.2 51.2,8.2 51.4,8.2 C51.6,8.2 51.8,8.3 51.9,8.4 C52,8.5 52.1,8.7 52.1,8.9 C52.1,9.1 52,9.2 51.9,9.4 C51.8,9.6 51.6,9.6 51.4,9.6 C51.2,9.6 51,9.5 50.9,9.4 C50.8,9.3 50.7,9.1 50.7,8.9 Z M50.8,3.8 C50.8,3.6 50.9,3.5 51,3.3 C51.1,3.1 51.3,3.1 51.5,3.1 C51.7,3.1 51.9,3.2 52,3.3 C52.1,3.4 52.2,3.6 52.2,3.8 C52.2,4 52.1,4.1 52,4.3 C51.9,4.5 51.7,4.5 51.5,4.5 C51.3,4.5 51,4.3 50.9,4.2 C50.8,4.1 50.8,3.9 50.8,3.8 Z" id="Shape"></path>
                            <path d="M59.7,4.1 C59.5,4.1 59.4,4.1 59.2,4.1 C58.5,4.1 58,4.4 57.8,5 L57.8,9.5 L56.7,9.5 L56.7,3.2 L57.8,3.2 L57.8,3.9 C58.2,3.3 58.7,3.1 59.3,3.1 C59.5,3.1 59.7,3.1 59.8,3.2 L59.8,4.1 L59.7,4.1 Z" id="Shape"></path>
                            <path d="M60.3,6.3 C60.3,5.7 60.4,5.1 60.7,4.6 C61,4.1 61.3,3.7 61.7,3.5 C62.1,3.3 62.6,3.1 63.2,3.1 C64.1,3.1 64.8,3.4 65.3,4 C65.8,4.6 66.1,5.4 66.1,6.4 L66.1,6.5 C66.1,7.1 66,7.7 65.7,8.2 C65.4,8.7 65.1,9.1 64.7,9.3 C64.3,9.5 63.8,9.7 63.2,9.7 C62.3,9.7 61.6,9.4 61.1,8.8 C60.6,8.2 60.3,7.3 60.3,6.3 L60.3,6.3 Z M61.4,6.4 C61.4,7.1 61.6,7.7 61.9,8.1 C62.2,8.5 62.7,8.7 63.2,8.7 C63.8,8.7 64.2,8.5 64.5,8.1 C64.8,7.7 65,7.1 65,6.3 C65,5.6 64.8,5 64.5,4.6 C64.2,4.2 63.7,4 63.2,4 C62.7,4 62.2,4.2 61.9,4.6 C61.6,5 61.4,5.6 61.4,6.4 Z" id="Shape"></path>
                            <path d="M72.8,6.4 C72.8,7.4 72.6,8.1 72.1,8.7 C71.6,9.3 71.1,9.6 70.3,9.6 C69.5,9.6 68.9,9.3 68.4,8.8 L68.3,9.5 L67.3,9.5 L67.3,0.5 L68.4,0.5 L68.4,3.9 C68.8,3.4 69.4,3.1 70.2,3.1 C71,3.1 71.6,3.4 72,4 C72.4,4.6 72.8,5.3 72.8,6.4 L72.8,6.4 Z M71.7,6.3 C71.7,5.6 71.6,5 71.3,4.6 C71,4.2 70.6,4 70.1,4 C69.4,4 68.9,4.3 68.6,5 L68.6,7.7 C68.9,8.4 69.4,8.7 70.2,8.7 C70.7,8.7 71.1,8.5 71.4,8.1 C71.7,7.7 71.7,7.1 71.7,6.3 Z" id="Shape"></path>
                            <path d="M73.9,6.3 C73.9,5.7 74,5.1 74.3,4.6 C74.6,4.1 74.9,3.7 75.3,3.5 C75.7,3.3 76.2,3.1 76.8,3.1 C77.7,3.1 78.4,3.4 78.9,4 C79.4,4.6 79.7,5.4 79.7,6.4 L79.7,6.5 C79.7,7.1 79.6,7.7 79.3,8.2 C79,8.7 78.7,9.1 78.3,9.3 C77.9,9.5 77.4,9.7 76.8,9.7 C75.9,9.7 75.2,9.4 74.7,8.8 C74.2,8.2 73.9,7.3 73.9,6.3 L73.9,6.3 Z M75,6.4 C75,7.1 75.2,7.7 75.5,8.1 C75.8,8.5 76.3,8.7 76.8,8.7 C77.4,8.7 77.8,8.5 78.1,8.1 C78.4,7.7 78.6,7.1 78.6,6.3 C78.6,5.6 78.4,5 78.1,4.6 C77.8,4.2 77.3,4 76.8,4 C76.3,4 75.8,4.2 75.5,4.6 C75.2,5 75,5.6 75,6.4 Z" id="Shape"></path>
                            <path d="M82.5,1.6 L82.5,3.1 L83.7,3.1 L83.7,4 L82.5,4 L82.5,7.9 C82.5,8.2 82.6,8.3 82.7,8.5 C82.8,8.7 83,8.7 83.2,8.7 C83.3,8.7 83.5,8.7 83.7,8.6 L83.7,9.5 C83.4,9.6 83.1,9.6 82.9,9.6 C82.4,9.6 82.1,9.5 81.8,9.2 C81.5,8.9 81.4,8.5 81.4,8 L81.4,4 L80.2,4 L80.2,3.2 L81.4,3.2 L81.4,1.6 L82.5,1.6 Z" id="Shape"></path>
                            <path d="M84.5,6.3 C84.5,5.7 84.6,5.1 84.9,4.6 C85.2,4.1 85.5,3.7 85.9,3.5 C86.3,3.3 86.8,3.1 87.4,3.1 C88.3,3.1 89,3.4 89.5,4 C90,4.6 90.3,5.4 90.3,6.4 L90.3,6.5 C90.3,7.1 90.2,7.7 89.9,8.2 C89.6,8.7 89.3,9.1 88.9,9.3 C88.5,9.5 88,9.7 87.4,9.7 C86.5,9.7 85.8,9.4 85.3,8.8 C84.8,8.2 84.5,7.3 84.5,6.3 L84.5,6.3 Z M85.6,6.4 C85.6,7.1 85.8,7.7 86.1,8.1 C86.4,8.5 86.9,8.7 87.4,8.7 C88,8.7 88.4,8.5 88.7,8.1 C89,7.7 89.2,7.1 89.2,6.3 C89.2,5.6 89,5 88.7,4.6 C88.4,4.2 87.9,4 87.4,4 C86.9,4 86.4,4.2 86.1,4.6 C85.8,5 85.6,5.6 85.6,6.4 Z" id="Shape"></path>
                            <path d="M91.6,11.2 L91,10.8 C91.4,10.3 91.6,9.8 91.6,9.2 L91.6,8.2 L92.7,8.2 L92.7,9 C92.7,9.4 92.6,9.8 92.4,10.2 C92.2,10.6 91.9,11 91.6,11.2 Z" id="Shape"></path>
                            <path d="M98,3.2 L98,3.9 C98.5,3.4 99.1,3.1 99.9,3.1 C100.8,3.1 101.4,3.4 101.7,4.1 C101.9,3.8 102.2,3.5 102.5,3.4 C102.8,3.3 103.2,3.1 103.7,3.1 C105.1,3.1 105.8,3.8 105.8,5.3 L105.8,9.5 L104.7,9.5 L104.7,5.3 C104.7,4.8 104.6,4.5 104.4,4.3 C104.2,4.1 103.8,4 103.4,4 C103,4 102.7,4.1 102.4,4.4 C102.1,4.7 102,5 101.9,5.4 L101.9,9.6 L100.8,9.6 L100.8,5.3 C100.8,4.4 100.3,3.9 99.4,3.9 C98.7,3.9 98.2,4.2 97.9,4.8 L97.9,9.4 L97,9.4 L97,3.2 L98,3.2 Z" id="Shape"></path>
                            <path d="M110.1,9.6 C109.2,9.6 108.5,9.3 108,8.8 C107.5,8.3 107.2,7.5 107.2,6.5 L107.2,6.3 C107.2,5.7 107.3,5.1 107.6,4.6 C107.9,4.1 108.2,3.7 108.6,3.4 C109,3.1 109.5,3 110,3 C110.8,3 111.5,3.3 111.9,3.8 C112.3,4.3 112.6,5.1 112.6,6.1 L112.6,6.6 L108.3,6.6 C108.3,7.2 108.5,7.7 108.8,8.1 C109.1,8.5 109.6,8.7 110.1,8.7 C110.5,8.7 110.8,8.6 111.1,8.5 C111.4,8.4 111.6,8.1 111.8,7.9 L112.5,8.4 C112,9.2 111.2,9.6 110.1,9.6 Z M110,3.9 C109.6,3.9 109.2,4.1 108.9,4.4 C108.6,4.7 108.4,5.2 108.3,5.7 L111.5,5.7 L111.5,5.7 C111.5,5.1 111.3,4.7 111.1,4.4 C110.9,4.1 110.5,3.9 110,3.9 Z" id="Shape"></path>
                            <path d="M113.6,6.3 C113.6,5.3 113.8,4.5 114.3,4 C114.8,3.5 115.4,3.1 116.1,3.1 C116.8,3.1 117.4,3.4 117.9,3.9 L117.9,0.5 L119,0.5 L119,9.5 L118,9.5 L117.9,8.8 C117.5,9.3 116.9,9.6 116.1,9.6 C115.4,9.6 114.8,9.3 114.3,8.7 C113.8,8.1 113.6,7.3 113.6,6.3 L113.6,6.3 Z M114.7,6.4 C114.7,7.1 114.8,7.7 115.1,8.1 C115.4,8.5 115.8,8.7 116.3,8.7 C117,8.7 117.5,8.4 117.8,7.8 L117.8,4.9 C117.5,4.3 117,4 116.3,4 C115.8,4 115.4,4.2 115.1,4.6 C114.8,5 114.7,5.6 114.7,6.4 Z" id="Shape"></path>
                            <path d="M120.6,1.5 C120.6,1.3 120.7,1.2 120.8,1.1 C120.9,1 121.1,0.9 121.3,0.9 C121.5,0.9 121.7,1 121.8,1.1 C121.9,1.2 122,1.4 122,1.5 C122,1.6 121.9,1.8 121.8,1.9 C121.7,2 121.5,2.1 121.3,2.1 C121.1,2.1 120.9,2 120.8,1.9 C120.7,1.8 120.6,1.7 120.6,1.5 Z M121.8,9.5 L120.7,9.5 L120.7,3.2 L121.8,3.2 L121.8,9.5 Z" id="Shape"></path>
                            <path d="M127.5,8.9 C127.1,9.4 126.5,9.6 125.6,9.6 C124.9,9.6 124.4,9.4 124.1,9 C123.8,8.6 123.6,8 123.6,7.3 L123.6,3.2 L124.7,3.2 L124.7,7.3 C124.7,8.3 125.1,8.7 125.9,8.7 C126.7,8.7 127.3,8.4 127.6,7.8 L127.6,3.2 L128.7,3.2 L128.7,9.5 L127.7,9.5 L127.5,8.9 Z" id="Shape"></path>
                            <path d="M131.2,3.2 L131.2,3.9 C131.7,3.4 132.3,3.1 133.1,3.1 C134,3.1 134.6,3.4 134.9,4.1 C135.1,3.8 135.4,3.5 135.7,3.4 C136,3.3 136.4,3.1 136.9,3.1 C138.3,3.1 139,3.8 139,5.3 L139,9.5 L138,9.5 L138,5.3 C138,4.8 137.9,4.5 137.7,4.3 C137.5,4.1 137.1,4 136.7,4 C136.3,4 136,4.1 135.7,4.4 C135.4,4.7 135.3,5 135.2,5.4 L135.2,9.6 L134.1,9.6 L134.1,5.3 C134.1,4.4 133.6,3.9 132.7,3.9 C132,3.9 131.5,4.2 131.2,4.8 L131.2,9.4 L130.1,9.4 L130.1,3.2 L131.2,3.2 Z" id="Shape"></path>
                            <polygon id="Shape" points="147.1 9.5 146 9.5 146 2.3 143.8 3.1 143.8 2.1 146.9 0.9 147.1 0.9"></polygon>
                            <path d="M154.5,1 L154.5,1.9 L154.3,1.9 C153.5,1.9 152.8,2.2 152.3,2.7 C151.8,3.2 151.5,3.9 151.4,4.7 C151.8,4.2 152.5,3.9 153.2,3.9 C153.9,3.9 154.5,4.2 155,4.7 C155.5,5.2 155.7,5.9 155.7,6.7 C155.7,7.6 155.5,8.3 155,8.8 C154.5,9.3 153.9,9.6 153.1,9.6 C152.3,9.6 151.6,9.3 151.1,8.7 C150.6,8.1 150.3,7.3 150.3,6.3 L150.3,5.8 C150.3,4.2 150.6,3 151.3,2.2 C152,1.4 153,0.9 154.3,0.9 L154.5,0.9 L154.5,1 Z M153.1,4.8 C152.7,4.8 152.4,4.9 152.1,5.1 C151.8,5.3 151.6,5.6 151.4,5.9 L151.4,6.3 C151.4,7 151.6,7.6 151.9,8 C152.2,8.4 152.6,8.6 153.1,8.6 C153.6,8.6 154,8.4 154.3,8.1 C154.6,7.8 154.7,7.3 154.7,6.7 C154.7,6.1 154.6,5.6 154.3,5.3 C154,5 153.6,4.8 153.1,4.8 Z" id="Shape"></path>
                            <path d="M162.5,6.4 C162.5,7.4 162.3,8.1 161.8,8.7 C161.3,9.3 160.8,9.6 160,9.6 C159.2,9.6 158.6,9.4 158.2,8.9 L158.2,12 L157.1,12 L157.1,3.2 L158.1,3.2 L158.2,3.9 C158.6,3.4 159.3,3.1 160,3.1 C160.8,3.1 161.4,3.4 161.8,4 C162.2,4.6 162.5,5.3 162.5,6.4 L162.5,6.4 Z M161.4,6.3 C161.4,5.6 161.2,5 160.9,4.6 C160.6,4.2 160.2,4 159.7,4 C159,4 158.6,4.3 158.2,4.9 L158.2,7.9 C158.5,8.5 159,8.8 159.7,8.8 C160.2,8.8 160.6,8.6 160.9,8.2 C161.2,7.8 161.4,7.1 161.4,6.3 Z" id="Shape"></path>
                            <path d="M165.3,1.6 L165.3,3.1 L166.5,3.1 L166.5,4 L165.3,4 L165.3,7.9 C165.3,8.2 165.4,8.3 165.5,8.5 C165.6,8.7 165.8,8.7 166,8.7 C166.1,8.7 166.3,8.7 166.5,8.6 L166.5,9.5 C166.2,9.6 165.9,9.6 165.7,9.6 C165.2,9.6 164.9,9.5 164.6,9.2 C164.3,8.9 164.2,8.5 164.2,8 L164.2,4 L163,4 L163,3.2 L164.2,3.2 L164.2,1.6 L165.3,1.6 Z" id="Shape"></path>
                        </g>
                        <g id="Group" transform="translate(47.000000, 15.000000)" fill-rule="nonzero" fill="#EC407A">
                            <polygon id="Shape" points="2 10.5 0.9 10.5 0.9 1.5 2 1.5"></polygon>
                            <path d="M7.6,10.5 C7.5,10.4 7.5,10.2 7.4,9.8 C6.9,10.3 6.3,10.6 5.6,10.6 C5,10.6 4.5,10.4 4.1,10.1 C3.7,9.8 3.5,9.3 3.5,8.8 C3.5,8.1 3.8,7.6 4.3,7.3 C4.8,7 5.5,6.8 6.4,6.8 L7.5,6.8 L7.5,6.3 C7.5,5.9 7.4,5.6 7.2,5.4 C7,5.2 6.6,5.1 6.2,5.1 C5.8,5.1 5.5,5.2 5.2,5.4 C4.9,5.6 4.8,5.8 4.8,6.1 L3.7,6.1 C3.7,5.8 3.8,5.5 4,5.2 C4.2,4.9 4.5,4.7 4.9,4.5 C5.3,4.3 5.7,4.2 6.2,4.2 C6.9,4.2 7.5,4.4 7.9,4.7 C8.3,5 8.5,5.6 8.5,6.2 L8.5,9 C8.5,9.6 8.6,10 8.7,10.4 L8.7,10.5 L7.6,10.5 Z M5.8,9.7 C6.1,9.7 6.5,9.6 6.8,9.4 C7.1,9.2 7.3,9 7.5,8.7 L7.5,7.4 L6.7,7.4 C5.4,7.4 4.7,7.8 4.7,8.6 C4.7,8.9 4.8,9.2 5,9.4 C5.2,9.6 5.5,9.7 5.8,9.7 Z" id="Shape"></path>
                            <path d="M15.6,7.4 C15.6,8.4 15.4,9.1 14.9,9.7 C14.4,10.3 13.9,10.6 13.1,10.6 C12.3,10.6 11.7,10.3 11.2,9.8 L11.1,10.5 L10.1,10.5 L10.1,1.5 L11.2,1.5 L11.2,4.9 C11.6,4.4 12.2,4.1 13,4.1 C13.8,4.1 14.4,4.4 14.8,5 C15.2,5.6 15.6,6.3 15.6,7.4 L15.6,7.4 Z M14.5,7.3 C14.5,6.6 14.4,6 14.1,5.6 C13.8,5.2 13.4,5 12.9,5 C12.2,5 11.7,5.3 11.4,6 L11.4,8.7 C11.7,9.4 12.2,9.7 13,9.7 C13.5,9.7 13.9,9.5 14.2,9.1 C14.5,8.7 14.5,8.1 14.5,7.3 Z" id="Shape"></path>
                            <path d="M19.6,10.6 C18.7,10.6 18,10.3 17.5,9.8 C17,9.3 16.7,8.5 16.7,7.5 L16.7,7.3 C16.7,6.7 16.8,6.1 17.1,5.6 C17.4,5.1 17.7,4.7 18.1,4.4 C18.5,4.1 19,4 19.5,4 C20.3,4 21,4.3 21.4,4.8 C21.8,5.3 22.1,6.1 22.1,7.1 L22.1,7.6 L17.8,7.6 C17.8,8.2 18,8.7 18.3,9.1 C18.6,9.5 19.1,9.7 19.6,9.7 C20,9.7 20.3,9.6 20.6,9.5 C20.9,9.4 21.1,9.1 21.3,8.9 L22,9.4 C21.5,10.2 20.7,10.6 19.6,10.6 Z M19.5,4.9 C19.1,4.9 18.7,5.1 18.4,5.4 C18.1,5.7 17.9,6.2 17.8,6.7 L21,6.7 L21,6.6 C21,6 20.8,5.6 20.6,5.3 C20.4,5 19.9,4.9 19.5,4.9 Z" id="Shape"></path>
                            <polygon id="Shape" points="24.5 10.5 23.4 10.5 23.4 1.5 24.5 1.5"></polygon>
                            <path d="M31.8,9.7 C32.2,9.7 32.5,9.6 32.8,9.3 C33.1,9 33.2,8.8 33.3,8.4 L34.3,8.4 C34.3,8.8 34.2,9.1 33.9,9.4 C33.6,9.7 33.4,10 33,10.2 C32.6,10.4 32.2,10.5 31.8,10.5 C30.9,10.5 30.3,10.2 29.7,9.6 C29.1,9 29,8.4 29,7.4 L29,7.2 C29,6.6 29.1,6 29.3,5.6 C29.5,5.2 29.9,4.7 30.3,4.5 C30.7,4.3 31.2,4.1 31.8,4.1 C32.5,4.1 33.1,4.3 33.6,4.7 C34.1,5.1 34.3,5.7 34.4,6.4 L33.4,6.4 C33.4,6 33.2,5.7 32.9,5.4 C32.6,5.1 32.3,5 31.9,5 C31.3,5 30.9,5.2 30.6,5.6 C30.3,6 30.1,6.6 30.1,7.3 L30.1,7.5 C30.1,8.2 30.3,8.8 30.6,9.2 C30.9,9.6 31.2,9.7 31.8,9.7 Z" id="Shape"></path>
                            <path d="M35.2,7.3 C35.2,6.7 35.3,6.1 35.6,5.6 C35.9,5.1 36.2,4.7 36.6,4.5 C37,4.3 37.5,4.1 38.1,4.1 C39,4.1 39.7,4.4 40.2,5 C40.7,5.6 41,6.4 41,7.4 L41,7.5 C41,8.1 40.9,8.7 40.6,9.2 C40.3,9.7 40,10.1 39.6,10.3 C39.2,10.5 38.7,10.7 38.1,10.7 C37.2,10.7 36.5,10.4 36,9.8 C35.5,9.2 35.2,8.3 35.2,7.3 L35.2,7.3 Z M36.3,7.4 C36.3,8.1 36.5,8.7 36.8,9.1 C37.1,9.5 37.6,9.7 38.1,9.7 C38.7,9.7 39.1,9.5 39.4,9.1 C39.7,8.7 39.9,8.1 39.9,7.3 C39.9,6.6 39.7,6 39.4,5.6 C39.1,5.2 38.6,5 38.1,5 C37.6,5 37.1,5.2 36.8,5.6 C36.5,6 36.3,6.6 36.3,7.4 Z" id="Shape"></path>
                            <polygon id="Shape" points="43.5 10.5 42.4 10.5 42.4 1.5 43.5 1.5"></polygon>
                            <path d="M45,7.3 C45,6.7 45.1,6.1 45.4,5.6 C45.7,5.1 46,4.7 46.4,4.5 C46.8,4.3 47.3,4.1 47.9,4.1 C48.8,4.1 49.5,4.4 50,5 C50.5,5.6 50.8,6.4 50.8,7.4 L50.8,7.5 C50.8,8.1 50.7,8.7 50.4,9.2 C50.1,9.7 49.8,10.1 49.4,10.3 C49,10.5 48.5,10.7 47.9,10.7 C47,10.7 46.3,10.4 45.8,9.8 C45.3,9.2 45,8.3 45,7.3 L45,7.3 Z M46.1,7.4 C46.1,8.1 46.3,8.7 46.6,9.1 C46.9,9.5 47.4,9.7 47.9,9.7 C48.5,9.7 48.9,9.5 49.2,9.1 C49.5,8.7 49.7,8.1 49.7,7.3 C49.7,6.6 49.5,6 49.2,5.6 C48.9,5.2 48.4,5 47.9,5 C47.4,5 46.9,5.2 46.6,5.6 C46.3,6 46.1,6.6 46.1,7.4 Z" id="Shape"></path>
                            <path d="M55.2,5.1 C55,5.1 54.9,5.1 54.7,5.1 C54,5.1 53.5,5.4 53.3,6 L53.3,10.5 L52.2,10.5 L52.2,4.2 L53.3,4.2 L53.3,4.9 C53.7,4.3 54.2,4.1 54.8,4.1 C55,4.1 55.2,4.1 55.3,4.2 L55.3,5.1 L55.2,5.1 Z" id="Shape"></path>
                            <path d="M62.8,8.1 L61.3,8.1 L60.8,10.5 L60,10.5 L60.5,8.1 L59,8.1 L59,7.3 L60.6,7.3 L61,5.2 L59.5,5.2 L59.5,4.4 L61.2,4.4 L61.7,2 L62.5,2 L62,4.4 L63.5,4.4 L64,2 L64.8,2 L64.3,4.4 L65.5,4.4 L65.5,5.2 L64.1,5.2 L63.7,7.3 L65,7.3 L65,8.1 L63.5,8.1 L63,10.5 L62.2,10.5 L62.8,8.1 Z M61.4,7.3 L62.9,7.3 L63.3,5.2 L61.8,5.2 L61.4,7.3 Z" id="Shape"></path>
                            <path d="M71,7.6 L72.2,7.6 L72.2,8.5 L71,8.5 L71,10.5 L69.9,10.5 L69.9,8.5 L66,8.5 L66,7.9 L69.8,2 L71,2 L71,7.6 Z M67.3,7.6 L70,7.6 L70,3.4 L69.9,3.6 L67.3,7.6 Z" id="Shape"></path>
                            <path d="M78.8,10.5 L73.2,10.5 L73.2,9.7 L76.2,6.4 C76.6,5.9 76.9,5.5 77.1,5.2 C77.3,4.9 77.3,4.6 77.3,4.2 C77.3,3.8 77.2,3.4 76.9,3.1 C76.6,2.8 76.3,2.7 75.8,2.7 C75.3,2.7 74.8,2.9 74.5,3.2 C74.2,3.5 74.1,3.9 74.1,4.5 L73,4.5 C73,3.7 73.3,3.1 73.8,2.6 C74.3,2.1 75,1.9 75.8,1.9 C76.6,1.9 77.2,2.1 77.7,2.5 C78.2,2.9 78.4,3.5 78.4,4.2 C78.4,5 77.9,6 76.8,7.2 L74.5,9.7 L78.8,9.7 L78.8,10.5 L78.8,10.5 Z" id="Shape"></path>
                            <path d="M84.5,7.6 L85.7,7.6 L85.7,8.5 L84.5,8.5 L84.5,10.5 L83.4,10.5 L83.4,8.5 L79.5,8.5 L79.5,7.9 L83.3,2 L84.5,2 L84.5,7.6 Z M80.7,7.6 L83.4,7.6 L83.4,3.4 L83.3,3.6 L80.7,7.6 Z" id="Shape"></path>
                            <path d="M92.2,10.5 L86.6,10.5 L86.6,9.7 L89.6,6.4 C90,5.9 90.3,5.5 90.5,5.2 C90.7,4.9 90.7,4.6 90.7,4.2 C90.7,3.8 90.6,3.4 90.3,3.1 C90,2.8 89.7,2.7 89.2,2.7 C88.7,2.7 88.2,2.9 87.9,3.2 C87.6,3.5 87.5,3.9 87.5,4.5 L86.4,4.5 C86.4,3.7 86.7,3.1 87.2,2.6 C87.7,2.1 88.4,1.9 89.2,1.9 C90,1.9 90.6,2.1 91.1,2.5 C91.6,2.9 91.8,3.5 91.8,4.2 C91.8,5 91.3,6 90.2,7.2 L87.9,9.7 L92.2,9.7 L92.2,10.5 Z" id="Shape"></path>
                            <path d="M98,7.6 L99.2,7.6 L99.2,8.5 L98,8.5 L98,10.5 L96.9,10.5 L96.9,8.5 L93,8.5 L93,7.9 L96.8,2 L98,2 L98,7.6 Z M94.2,7.6 L96.9,7.6 L96.9,3.4 L96.8,3.6 L94.2,7.6 Z" id="Shape"></path>
                            <path d="M105.7,10.5 L100.1,10.5 L100.1,9.7 L103.1,6.4 C103.5,5.9 103.8,5.5 104,5.2 C104.2,4.9 104.2,4.6 104.2,4.2 C104.2,3.8 104.1,3.4 103.8,3.1 C103.5,2.8 103.2,2.7 102.7,2.7 C102.2,2.7 101.7,2.9 101.4,3.2 C101.1,3.5 101,3.9 101,4.5 L99.9,4.5 C99.9,3.7 100.2,3.1 100.7,2.6 C101.2,2.1 101.9,1.9 102.7,1.9 C103.5,1.9 104.1,2.1 104.6,2.5 C105.1,2.9 105.3,3.5 105.3,4.2 C105.3,5 104.8,6 103.7,7.2 L101.4,9.7 L105.7,9.7 L105.7,10.5 Z" id="Shape"></path>
                            <path d="M109.9,7 C109.9,6.1 110,5.3 110.3,4.5 C110.6,3.7 110.9,2.9 111.4,2.3 C111.9,1.7 112.4,1.2 112.9,0.9 L113.1,1.6 C112.5,2 112.1,2.7 111.7,3.6 C111.3,4.5 111.1,5.5 111.1,6.6 L111.1,7.1 C111.1,8.6 111.4,9.9 111.9,11 C112.2,11.7 112.6,12.2 113.1,12.6 L112.9,13.3 C112.4,13 111.9,12.5 111.4,11.8 C110.4,10.5 109.9,8.9 109.9,7 Z" id="Shape"></path>
                            <path d="M113.8,7.3 C113.8,6.3 114,5.5 114.5,4.9 C115,4.3 115.6,4 116.3,4 C117.1,4 117.7,4.3 118.1,4.8 L118.2,4.1 L119.2,4.1 L119.2,10.3 C119.2,11.1 119,11.8 118.5,12.2 C118,12.6 117.4,12.9 116.5,12.9 C116,12.9 115.6,12.8 115.2,12.6 C114.8,12.4 114.4,12.1 114.2,11.8 L114.8,11.1 C115.3,11.7 115.8,12 116.5,12 C117,12 117.4,11.9 117.7,11.6 C118,11.3 118.1,10.9 118.1,10.3 L118.1,9.8 C117.7,10.3 117.1,10.6 116.3,10.6 C115.6,10.6 115,10.3 114.5,9.7 C114,9.1 113.8,8.3 113.8,7.3 Z M114.9,7.4 C114.9,8.1 115,8.7 115.3,9.1 C115.6,9.5 116,9.7 116.5,9.7 C117.2,9.7 117.7,9.4 118,8.8 L118,5.9 C117.7,5.3 117.2,5 116.5,5 C116,5 115.6,5.2 115.3,5.6 C115,6 114.9,6.6 114.9,7.4 Z" id="Shape"></path>
                            <path d="M123.8,5.1 C123.6,5.1 123.5,5.1 123.3,5.1 C122.6,5.1 122.1,5.4 121.9,6 L121.9,10.5 L120.8,10.5 L120.8,4.2 L121.9,4.2 L121.9,4.9 C122.3,4.3 122.8,4.1 123.4,4.1 C123.6,4.1 123.8,4.1 123.9,4.2 L123.9,5.1 L123.8,5.1 Z" id="Shape"></path>
                            <path d="M128.5,10.5 C128.4,10.4 128.4,10.2 128.3,9.8 C127.8,10.3 127.2,10.6 126.5,10.6 C125.9,10.6 125.4,10.4 125,10.1 C124.6,9.8 124.4,9.3 124.4,8.8 C124.4,8.1 124.7,7.6 125.2,7.3 C125.7,7 126.4,6.8 127.3,6.8 L128.4,6.8 L128.4,6.3 C128.4,5.9 128.3,5.6 128.1,5.4 C127.9,5.2 127.5,5.1 127.1,5.1 C126.7,5.1 126.4,5.2 126.1,5.4 C125.8,5.6 125.7,5.8 125.7,6.1 L124.6,6.1 C124.6,5.8 124.7,5.5 124.9,5.2 C125.1,4.9 125.4,4.7 125.8,4.5 C126.2,4.3 126.6,4.2 127.1,4.2 C127.8,4.2 128.4,4.4 128.8,4.7 C129.2,5 129.4,5.6 129.4,6.2 L129.4,9 C129.4,9.6 129.5,10 129.6,10.4 L129.6,10.5 L128.5,10.5 Z M126.7,9.7 C127,9.7 127.4,9.6 127.7,9.4 C128,9.2 128.2,9 128.4,8.7 L128.4,7.4 L127.6,7.4 C126.3,7.4 125.6,7.8 125.6,8.6 C125.6,8.9 125.7,9.2 125.9,9.4 C126.1,9.6 126.4,9.7 126.7,9.7 Z" id="Shape"></path>
                            <path d="M133.2,8.9 L134.7,4.1 L135.9,4.1 L133.4,11.4 C133,12.5 132.4,13 131.5,13 L131.3,13 L130.9,12.9 L130.9,12 L131.2,12 C131.6,12 131.9,11.9 132.1,11.8 C132.3,11.7 132.5,11.4 132.6,11 L132.8,10.4 L130.5,4.1 L131.7,4.1 L133.2,8.9 Z" id="Shape"></path>
                            <path d="M143.8,6.8 C143.6,7.1 143.3,7.3 143,7.5 C142.7,7.7 142.3,7.7 142,7.7 C141.5,7.7 141.1,7.6 140.7,7.3 C140.3,7 140.1,6.7 139.9,6.3 C139.7,5.9 139.6,5.4 139.6,4.8 C139.6,4.2 139.7,3.7 139.9,3.3 C140.1,2.9 140.4,2.5 140.8,2.3 C141.2,2.1 141.7,1.9 142.2,1.9 C143,1.9 143.7,2.2 144.2,2.8 C144.7,3.4 144.9,4.3 144.9,5.4 L144.9,5.7 C144.9,7.4 144.6,8.6 143.9,9.3 C143.2,10 142.3,10.5 140.9,10.5 L140.7,10.5 L140.7,9.6 L140.9,9.6 C141.8,9.6 142.5,9.4 143,8.9 C143.5,8.4 143.8,7.7 143.8,6.8 Z M142.1,6.8 C142.5,6.8 142.8,6.7 143.1,6.5 C143.4,6.3 143.6,6 143.8,5.7 L143.8,5.3 C143.8,4.6 143.6,4 143.3,3.6 C143,3.2 142.6,2.9 142.1,2.9 C141.6,2.9 141.2,3.1 141,3.4 C140.8,3.7 140.6,4.2 140.6,4.8 C140.6,5.4 140.7,5.9 141,6.2 C141.3,6.5 141.7,6.8 142.1,6.8 Z" id="Shape"></path>
                            <path d="M151.7,6.9 C151.7,8.2 151.5,9.1 151,9.7 C150.5,10.3 149.9,10.6 149,10.6 C148.1,10.6 147.4,10.3 147,9.7 C146.6,9.1 146.3,8.2 146.3,7 L146.3,5.6 C146.3,4.3 146.5,3.4 147,2.8 C147.5,2.2 148.1,1.9 149,1.9 C149.9,1.9 150.6,2.2 151,2.8 C151.4,3.4 151.7,4.3 151.7,5.5 L151.7,6.9 Z M150.7,5.4 C150.7,4.5 150.6,3.8 150.3,3.4 C150,3 149.6,2.8 149.1,2.8 C148.5,2.8 148.1,3 147.9,3.4 C147.7,3.8 147.5,4.5 147.5,5.3 L147.5,7 C147.5,7.9 147.6,8.6 147.9,9 C148.2,9.4 148.6,9.7 149.1,9.7 C149.6,9.7 150,9.5 150.3,9.1 C150.6,8.7 150.7,8 150.7,7.1 L150.7,5.4 Z" id="Shape"></path>
                            <path d="M158.5,6.9 C158.5,8.2 158.3,9.1 157.8,9.7 C157.3,10.3 156.7,10.6 155.8,10.6 C154.9,10.6 154.2,10.3 153.8,9.7 C153.4,9.1 153.1,8.2 153.1,7 L153.1,5.6 C153.1,4.3 153.3,3.4 153.8,2.8 C154.3,2.2 154.9,1.9 155.8,1.9 C156.7,1.9 157.4,2.2 157.8,2.8 C158.2,3.4 158.5,4.3 158.5,5.5 L158.5,6.9 Z M157.4,5.4 C157.4,4.5 157.3,3.8 157,3.4 C156.7,3 156.3,2.8 155.8,2.8 C155.2,2.8 154.8,3 154.6,3.4 C154.4,3.8 154.2,4.5 154.2,5.3 L154.2,7 C154.2,7.9 154.3,8.6 154.6,9 C154.9,9.4 155.3,9.7 155.8,9.7 C156.3,9.7 156.7,9.5 157,9.1 C157.3,8.7 157.4,8 157.4,7.1 L157.4,5.4 Z" id="Shape"></path>
                            <path d="M162.5,7.1 C162.5,8 162.4,8.8 162.2,9.6 C162,10.4 161.6,11.1 161.2,11.8 C160.8,12.5 160.2,13 159.7,13.2 L159.5,12.5 C160.1,12 160.6,11.3 161,10.4 C161.4,9.5 161.6,8.4 161.6,7.2 L161.6,7 C161.6,6.2 161.5,5.4 161.3,4.7 C161.1,4 160.9,3.4 160.6,2.8 C160.3,2.2 159.9,1.8 159.6,1.5 L159.8,0.8 C160.3,1.1 160.8,1.6 161.3,2.2 C161.8,2.8 162.1,3.6 162.3,4.4 C162.5,5.2 162.5,6.2 162.5,7.1 Z" id="Shape"></path>
                        </g>
                    </g>
                </g>
            </g>
        </g>
    </g>
</svg>