<?xml version="1.0" encoding="UTF-8" standalone="no"?>
<svg width="434px" height="160px" viewBox="0 0 434 160" version="1.1" xmlns="http://www.w3.org/2000/svg" xmlns:xlink="http://www.w3.org/1999/xlink">
    <!-- Generator: Sketch 47.1 (45422) - http://www.bohemiancoding.com/sketch -->
    <title>checkbox-default</title>
    <desc>Created with Sketch.</desc>
    <style>
      @import url("https://fonts.googleapis.com/css?family=Roboto:300,400");
      @import url("https://stackpath.bootstrapcdn.com/font-awesome/4.7.0/css/font-awesome.min.css")
    </style>
    <defs></defs>
    <g id="Page-1" stroke="none" stroke-width="1" fill="none" fill-rule="evenodd">
        <g id="checkbox-default">
            <g id="Default-Layout-Image" transform="translate(38.000000, 34.000000)">
                <g id="Composition-Image">
                    <g id="Group" transform="translate(116.000000, 0.000000)">
                        <text id="Option-1" font-family="Roboto-Regular, Roboto" font-size="16" font-weight="normal" letter-spacing="-0.003" fill="#424242">
                            <tspan x="24" y="40">O</tspan>
                            <tspan x="34.997" y="40" letter-spacing="0.005">ption</tspan>
                            <tspan x="71.0610625" y="40"> </tspan>
                            <tspan x="75.019" y="40" letter-spacing="0.005">1</tspan>
                        </text>
                        <text id="Option-2" font-family="Roboto-Regular, Roboto" font-size="16" font-weight="normal" letter-spacing="-0.003" fill="#424242">
                            <tspan x="24" y="63">O</tspan>
                            <tspan x="34.997" y="63" letter-spacing="0.005">ption</tspan>
                            <tspan x="71.0610625" y="63"> </tspan>
                            <tspan x="75.019" y="63" letter-spacing="0.005">2</tspan>
                        </text>
                        <text id="Option-3" font-family="Roboto-Regular, Roboto" font-size="16" font-weight="normal" letter-spacing="-0.003" fill="#424242">
                            <tspan x="24" y="87">O</tspan>
                            <tspan x="34.997" y="87" letter-spacing="0.005">ption</tspan>
                            <tspan x="71.0610625" y="87"> </tspan>
                            <tspan x="75.019" y="87" letter-spacing="0.005">3</tspan>
                        </text>
                        <path d="M2.5,65 C1.673,65 1,64.327 1,63.5 L1,51.5 C1,50.673 1.673,50 2.5,50 L14.5,50 C15.327,50 16,50.673 16,51.5 L16,63.5 C16,64.327 15.327,65 14.5,65 L2.5,65 Z" id="Fill-60-Copy-2" stroke="#BDBDBD" fill="#FFFFFF"></path>
                        <path d="M2.5,43 C1.673,43 1,42.327 1,41.5 L1,29.5 C1,28.673 1.673,28 2.5,28 L14.5,28 C15.327,28 16,28.673 16,29.5 L16,41.5 C16,42.327 15.327,43 14.5,43 L2.5,43 Z" id="Fill-60-Copy-3" stroke="#BDBDBD" fill="#FFFFFF"></path>
                        <path d="M2.5,89 C1.673,89 1,88.327 1,87.5 L1,75.5 C1,74.673 1.673,74 2.5,74 L14.5,74 C15.327,74 16,74.673 16,75.5 L16,87.5 C16,88.327 15.327,89 14.5,89 L2.5,89 Z" id="Fill-60-Copy-4" stroke="#BDBDBD" fill="#FFFFFF"></path>
                        <text id="Selector-Title" font-family="Roboto-Regular, Roboto" font-size="14" font-weight="normal" letter-spacing="0.0839999989" fill="#616161">
                            <tspan x="0" y="13">Selector Title</tspan>
                        </text>
                    </g>
                    <g id="Annotation" transform="translate(0.000000, 1.000000)">
                        <g id="specs-/-redlines-/-line-straight" transform="translate(241.000000, 8.000000) scale(-1, 1) translate(-241.000000, -8.000000) translate(215.000000, 3.000000)" stroke="#EC3F7A">
                            <path d="M10,5 L52,5" id="Stroke-8"></path>
                            <path d="M5.00099983,0 C7.76299974,0 10.0009997,2.239 9.99999967,5 C9.99999967,7.762 7.76199974,10 4.99999983,10 C2.23799993,10 0,7.761 0,5 C0.000999999967,2.238 2.23899992,0 5.00099983,0" id="Path" fill-opacity="0.3" fill="#F03F7B" fill-rule="evenodd"></path>
                        </g>
                        <g id="specs-/-redlines-/-line-straight" transform="translate(235.000000, 34.000000) rotate(-180.000000) translate(-235.000000, -34.000000) translate(209.000000, 29.000000)" stroke="#EC3F7A">
                            <path d="M10,5 L52,5" id="Stroke-8"></path>
                            <path d="M5.00099983,0 C7.76299974,0 10.0009997,2.239 9.99999967,5 C9.99999967,7.762 7.76199974,10 4.99999983,10 C2.23799993,10 0,7.761 0,5 C0.000999999967,2.238 2.23899992,0 5.00099983,0" id="Path" fill-opacity="0.3" fill="#F03F7B" fill-rule="evenodd"></path>
                        </g>
                        <g id="specs-/-redlines-/-label" transform="translate(275.000000, 0.000000)" font-size="12" font-family="Roboto-Regular, Roboto" fill="#EC407A" font-weight="normal">
                            <text id="redline-label">
                                <tspan x="0" y="9.5">Section Label</tspan>
                            </text>
                        </g>
                        <g id="specs-/-redlines-/-label" transform="translate(269.000000, 26.000000)" font-size="12" font-family="Roboto-Regular, Roboto" fill="#EC407A" font-weight="normal">
                            <text id="redline-label">
                                <tspan x="0" y="9.5">Checkbox Label</tspan>
                            </text>
                        </g>
                        <g id="specs-/-redlines-/-line-straight" transform="translate(61.000000, 30.000000)" stroke="#EC3F7A">
                            <path d="M10,5 L52,5" id="Stroke-8"></path>
                            <path d="M5.00099983,0 C7.76299974,0 10.0009997,2.239 9.99999967,5 C9.99999967,7.762 7.76199974,10 4.99999983,10 C2.23799993,10 0,7.761 0,5 C0.000999999967,2.238 2.23899992,0 5.00099983,0" id="Path" fill-opacity="0.3" fill="#F03F7B" fill-rule="evenodd"></path>
                        </g>
                        <g id="specs-/-redlines-/-label" transform="translate(0.000000, 29.000000)" font-size="12" font-family="Roboto-Regular, Roboto" fill="#EC407A" font-weight="normal">
                            <text id="redline-label">
                                <tspan x="0" y="9.5">Checkbox</tspan>
                            </text>
                        </g>
                    </g>
                </g>
            </g>
        </g>
    </g>
</svg>
