<?xml version="1.0" encoding="UTF-8"?>
<svg width="633px" height="246px" viewBox="0 0 633 246" version="1.1" xmlns="http://www.w3.org/2000/svg" xmlns:xlink="http://www.w3.org/1999/xlink">
    <!-- Generator: Sketch 47.1 (45422) - http://www.bohemiancoding.com/sketch -->
    <title>Custom Preset</title>
    <desc>Created with Sketch.</desc>
    <defs>
        <path d="M27.0084,30.4974 C20.8184,34.6794 12.3394,34.0334 6.8604,28.5544 C0.6454,22.3394 0.6454,12.2634 6.8604,6.0484 C13.0754,-0.1666 23.1514,-0.1666 29.3664,6.0484 C33.2354,9.9174 34.6944,15.2814 33.7464,20.2794 L35.0884,20.5264 C36.1134,15.1024 34.5294,9.2814 30.3314,5.0844 C23.5834,-1.6636 12.6434,-1.6636 5.8954,5.0834 C-0.8516,11.8314 -0.8516,22.7714 5.8954,29.5194 C11.8474,35.4704 21.0584,36.1694 27.7794,31.6224 L27.0084,30.4974 Z" id="path-1"></path>
    </defs>
    <g id="Document" stroke="none" stroke-width="1" fill="none" fill-rule="evenodd">
        <g id="3)-Examples" transform="translate(-63.000000, -524.000000)"></g>
        <g id="Custom-Preset">
            <g id="Loading/Circle/Indeterminate-6" transform="translate(123.000000, 97.000000)" fill="#9E9E9E">
                <path d="M27.0084,30.4974 C20.8184,34.6794 12.3394,34.0334 6.8604,28.5544 C0.6454,22.3394 0.6454,12.2634 6.8604,6.0484 C13.0754,-0.1666 23.1514,-0.1666 29.3664,6.0484 C33.2354,9.9174 34.6944,15.2814 33.7464,20.2794 L35.0884,20.5264 C36.1134,15.1024 34.5294,9.2814 30.3314,5.0844 C23.5834,-1.6636 12.6434,-1.6636 5.8954,5.0834 C-0.8516,11.8314 -0.8516,22.7714 5.8954,29.5194 C11.8474,35.4704 21.0584,36.1694 27.7794,31.6224 L27.0084,30.4974 Z" id="Fill-22"></path>
            </g>
            <g id="Loading/Circle/Indeterminate-6" transform="translate(446.000000, 89.000000)">
                <g id="Fill-22">
                    <use fill="#9E9E9E" fill-rule="evenodd" xlink:href="#path-1"></use>
                    <path stroke="#9E9E9E" stroke-width="1" d="M26.8725085,31.183578 C20.4517361,35.2446574 11.9707948,34.3719016 6.50684661,28.9079534 C0.0965844635,22.4976912 0.0965844635,12.1051088 6.50684661,5.69484661 C12.9171088,-0.715415536 23.3096912,-0.715415536 29.7199534,5.69484661 C33.4869521,9.46184533 35.1393229,14.7309209 34.3238384,19.8772812 L34.6823312,19.9432632 C35.5183639,14.6780432 33.8297971,9.28898627 29.9778466,5.43795339 C23.4252545,-1.11463868 12.8018168,-1.11493898 6.24897959,5.43692719 C-0.302793196,11.989671 -0.302793196,22.613129 6.24892369,29.1658169 C11.8383434,34.7542975 20.5152804,35.6433438 27.0783472,31.4839263 L26.8725085,31.183578 Z"></path>
                </g>
            </g>
            <rect id="Rectangle-4" stroke="#E0E0E0" x="91.5" y="65.5" width="99" height="99"></rect>
            <g id="specs-/-redlines-/-line-straight" transform="translate(141.500000, 82.000000) rotate(-270.000000) translate(-141.500000, -82.000000) translate(125.500000, 80.500000)" stroke="#EC3F7A">
                <path d="M0.484848485,2 L31.5151515,2" id="Stroke-8"></path>
            </g>
            <g id="specs-/-redlines-/-line-straight" transform="translate(107.000000, 113.500000) rotate(-360.000000) translate(-107.000000, -113.500000) translate(91.000000, 112.000000)" stroke="#EC3F7A">
                <path d="M0.484848485,2 L31.5151515,2" id="Stroke-8"></path>
            </g>
            <path d="M91.4848485,114 L122.515152,114" id="Stroke-8" stroke="#EC3F7A"></path>
            <g id="specs-/-redlines-/-line-straight" transform="translate(175.000000, 113.500000) rotate(-360.000000) translate(-175.000000, -113.500000) translate(159.000000, 112.000000)" stroke="#EC3F7A">
                <path d="M0.484848485,2 L31.5151515,2" id="Stroke-8"></path>
            </g>
            <path d="M159.484848,114 L190.515152,114" id="Stroke-8" stroke="#EC3F7A"></path>
            <g id="specs-/-redlines-/-line-straight" transform="translate(141.500000, 148.500000) rotate(-270.000000) translate(-141.500000, -148.500000) translate(125.000000, 147.000000)" stroke="#EC3F7A">
                <path d="M0.5,2 L32.5,2" id="Stroke-8"></path>
            </g>
            <g id="specs-/-redlines-/-line-straight" transform="translate(464.500000, 143.000000) rotate(-90.000000) translate(-464.500000, -143.000000) translate(447.000000, 138.000000)" stroke="#EC3F7A">
                <path d="M10,5 L34.5,5" id="Stroke-8"></path>
                <path d="M5.00099983,0 C7.76299974,0 10.0009997,2.239 9.99999967,5 C9.99999967,7.762 7.76199974,10 4.99999983,10 C2.23799993,10 0,7.761 0,5 C0.000999999967,2.238 2.23899992,0 5.00099983,0" id="Path" fill-opacity="0.3" fill="#F03F7B"></path>
            </g>
            <g id="Group-17" transform="translate(476.000000, 146.000000)" font-size="12" font-family=".AppleSystemUIFont" fill="#EC407A" font-weight="normal">
                <g id="specs-/-redlines-/-label-copy-4">
                    <text id="redline-label">
                        <tspan x="0" y="12">Stroke-width: 1px</tspan>
                    </text>
                </g>
            </g>
        </g>
    </g>
</svg>