<?xml version="1.0" encoding="UTF-8"?>
<svg width="633px" height="246px" viewBox="0 0 633 246" version="1.1" xmlns="http://www.w3.org/2000/svg" xmlns:xlink="http://www.w3.org/1999/xlink">
    <!-- Generator: Sketch 47.1 (45422) - http://www.bohemiancoding.com/sketch -->
    <title>Custom Preset</title>
    <desc>Created with Sketch.</desc>
    <defs>
        <path d="M13.0663567,7.07887333 C13.0234067,10.3840267 10.31117,13.0666033 7.00233333,13.0666033 C3.65615333,13.0666033 0.933643333,10.3448233 0.933643333,6.99953333 C0.933643333,3.66077667 3.65055,0.93993 6.99019667,0.933396667 L6.98833,0 C3.13518,0.00746666667 0,3.14741 0,6.99953333 C0,10.8600567 3.14078,14 7.00233333,14 C10.8246733,14 13.9570533,10.8973933 14,7.07887333 L13.0663567,7.07887333 Z" id="path-1"></path>
        <path d="M14.932979,8.09014095 C14.8838933,11.867459 11.7841943,14.933261 8.00266667,14.933261 C4.17846095,14.933261 1.06702095,11.8226552 1.06702095,7.99946667 C1.06702095,4.18374476 4.17205714,1.07420571 7.98879619,1.06673905 L7.98666286,0 C3.58306286,0.00853333333 0,3.59704 0,7.99946667 C0,12.4114933 3.58946286,16 8.00266667,16 C12.3710552,16 15.9509181,12.4541638 16,8.09014095 L14.932979,8.09014095 Z" id="path-2"></path>
        <path d="M11.1997343,6.06760571 C11.16292,8.90059429 8.83814571,11.1999457 6.002,11.1999457 C3.13384571,11.1999457 0.800265714,8.86699143 0.800265714,5.9996 C0.800265714,3.13780857 3.12904286,0.805654286 5.99159714,0.800054286 L5.98999714,0 C2.68729714,0.0064 0,2.69778 0,5.9996 C0,9.30862 2.69209714,12 6.002,12 C9.27829143,12 11.9631886,9.34062286 12,6.06760571 L11.1997343,6.06760571 Z" id="path-3"></path>
    </defs>
    <g id="Document" stroke="none" stroke-width="1" fill="none" fill-rule="evenodd">
        <g id="3)-Examples" transform="translate(-63.000000, -524.000000)"></g>
        <g id="Custom-Preset">
            <g id="Group" transform="translate(246.000000, 89.000000)" fill-rule="nonzero">
                <g id="Fill-5-Copy">
                    <use fill="#D8D8D8" fill-rule="evenodd" xlink:href="#path-1"></use>
                    <path stroke="#9E9E9E" stroke-width="1" d="M13.4747067,7.57887333 L13.541419,7.57887333 L14,7.57887333 L13.5000316,7.07325022 C13.4997354,7.09958461 13.4992809,7.12588229 13.498669,7.15214235 C13.495327,7.29555727 13.4872899,7.43785018 13.4747067,7.57887333 C13.1793264,10.8892778 10.3789002,13.5 7.00233333,13.5 C3.41689275,13.5 0.5,10.5838847 0.5,6.99953333 C0.5,3.59143721 3.14442954,0.782609487 6.489369,0.520035233 C6.63248534,0.50880075 6.77688406,0.502227529 6.92241289,0.50046807 C6.94468195,0.500198834 6.96697747,0.500042316 6.9892989,0.499999061 L6.488331,0.000999930148 L6.49019767,0.934396597 L6.98921852,0.433397623 C6.96708558,0.433440922 6.94497794,0.433594306 6.92289614,0.433857256 C6.7771678,0.435592586 6.63256444,0.442099828 6.4892354,0.453229448 C3.10654106,0.715898505 0.433643333,3.55324377 0.433643333,6.99953333 C0.433643333,10.6209945 3.38003976,13.5666033 7.00233333,13.5666033 C10.4172407,13.5666033 13.2460398,10.9284133 13.541419,7.57887333 C13.5542255,7.43365071 13.5622698,7.28709093 13.5653932,7.13935103 C13.5657732,7.1213748 13.5660804,7.1033811 13.5663145,7.08537021 L13.0663567,7.57887333 L13.4747067,7.57887333 Z"></path>
                </g>
            </g>
            <g id="Group-17" transform="translate(89.000000, 131.000000)" font-size="12" font-family=".AppleSystemUIFont" fill="#EC407A" font-weight="normal">
                <g id="specs-/-redlines-/-label-copy-4">
                    <text id="redline-label">
                        <tspan x="0" y="12">Sm. Icon:</tspan>
                        <tspan x="0" y="27">12 px x 12 px</tspan>
                    </text>
                </g>
            </g>
            <g id="Group-17" transform="translate(227.000000, 131.000000)" font-size="12" font-family=".AppleSystemUIFont" fill="#EC407A" font-weight="normal">
                <g id="specs-/-redlines-/-label-copy-4">
                    <text id="redline-label">
                        <tspan x="0" y="12">Md. Icon:</tspan>
                        <tspan x="0" y="27">14 px x 14 px</tspan>
                    </text>
                </g>
            </g>
            <g id="Group-17" transform="translate(360.000000, 131.000000)" font-size="12" font-family=".AppleSystemUIFont" fill="#EC407A" font-weight="normal">
                <g id="specs-/-redlines-/-label-copy-4">
                    <text id="redline-label">
                        <tspan x="0" y="12">Lg. Icon: </tspan>
                        <tspan x="0" y="27">16 px x 16 px</tspan>
                    </text>
                </g>
            </g>
            <g id="Group-17" transform="translate(491.000000, 131.000000)" font-size="12" font-family=".AppleSystemUIFont" fill="#EC407A" font-weight="normal">
                <g id="specs-/-redlines-/-label-copy-4">
                    <text id="redline-label">
                        <tspan x="0" y="12">XL. Icon:</tspan>
                        <tspan x="0" y="27">22 px x 22 px</tspan>
                    </text>
                </g>
            </g>
            <g id="Group" transform="translate(389.000000, 96.000000) rotate(180.000000) translate(-389.000000, -96.000000) translate(381.000000, 88.000000)" fill-rule="nonzero">
                <g id="Fill-5-Copy">
                    <use fill="#D8D8D8" fill-rule="evenodd" xlink:href="#path-2"></use>
                    <path stroke="#979797" stroke-width="1" d="M15.4102091,8.59014095 C15.1069812,12.4125191 11.890233,15.433261 8.00266667,15.433261 C3.90234722,15.433261 0.567020952,12.0988263 0.567020952,7.99946667 C0.567020952,4.07603967 3.627573,0.849704942 7.4878305,0.584360743 L7.48769674,0.517476337 C3.59179288,0.783111831 0.5,4.04086416 0.5,7.99946667 C0.5,12.1353214 3.86557564,15.5 8.00266667,15.5 C11.9252856,15.5 15.1737842,12.4467793 15.4773443,8.59014095 L15.4102091,8.59014095 Z"></path>
                </g>
            </g>
            <g id="Group" transform="translate(507.000000, 85.000000)" stroke="#9E9E9E" fill-rule="nonzero">
                <path d="M21.0143216,11.6239438 C20.6893142,16.8643741 16.309003,21.0332338 11.0036667,21.0332338 C5.4692696,21.0332338 0.96715381,16.5323215 0.96715381,10.9992667 C0.96715381,5.64463297 5.19113878,1.25162741 10.4836204,0.980057462 L10.4826858,0.51273878 C4.93445759,0.785283216 0.5,5.38940214 0.5,10.9992667 C0.5,16.7896314 5.2116243,21.5 11.0036667,21.5 C16.5641692,21.5 21.1564533,17.1187113 21.4822256,11.6239497 L21.0143216,11.6239438 Z" id="Fill-5-Copy"></path>
            </g>
            <g id="Group" transform="translate(113.000000, 97.000000) rotate(-80.000000) translate(-113.000000, -97.000000) translate(107.000000, 91.000000)" fill-rule="nonzero">
                <g id="Fill-5-Copy">
                    <use fill="#9E9E9E" fill-rule="evenodd" xlink:href="#path-3"></use>
                    <path stroke="#9E9E9E" stroke-width="1" d="M11.471099,6.56760571 L12,6.56760571 L11.5000316,6.0619826 C11.499219,6.13423615 11.4969975,6.20616324 11.4933936,6.27773769 C11.4884945,6.37503392 11.4810408,6.47167851 11.471099,6.56760571 C11.1846394,9.33159434 8.83242545,11.5 6.002,11.5 C2.96820986,11.5 0.5,9.03244796 0.5,5.9996 C0.5,3.1420952 2.69724787,0.782324455 5.49104314,0.523534212 C5.5891041,0.514450791 5.68789998,0.507955733 5.78736159,0.504118365 C5.85492974,0.50151149 5.92280513,0.500131144 5.99096605,0.499999061 L5.48999814,0.000999930148 L5.49159814,0.801054216 L5.990619,0.300055242 C5.92480869,0.300183987 5.85925623,0.301433923 5.79397974,0.303786904 C5.69217284,0.307456674 5.59103722,0.313809524 5.49064165,0.322776607 C2.58564609,0.582243599 0.300265714,3.03051023 0.300265714,5.9996 C0.300265714,9.14316277 2.8577323,11.6999457 6.002,11.6999457 C8.94418579,11.6999457 11.3849505,9.44417278 11.6719637,6.56760571 C11.6821688,6.46532574 11.6896511,6.36226092 11.6943362,6.25848476 C11.6970999,6.19726655 11.6988903,6.1358008 11.6996921,6.0741026 L11.1997343,6.56760571 L11.471099,6.56760571 Z"></path>
                </g>
            </g>
        </g>
    </g>
</svg>