<?xml version="1.0" encoding="UTF-8"?>
<svg width="633px" height="246px" viewBox="0 0 633 246" version="1.1" xmlns="http://www.w3.org/2000/svg" xmlns:xlink="http://www.w3.org/1999/xlink">
    <!-- Generator: Sketch 47.1 (45422) - http://www.bohemiancoding.com/sketch -->
    <title>Custom Preset</title>
    <desc>Created with Sketch.</desc>
    <defs></defs>
    <g id="Document" stroke="none" stroke-width="1" fill="none" fill-rule="evenodd">
        <g id="3)-Examples" transform="translate(-63.000000, -524.000000)"></g>
        <g id="Custom-Preset">
            <g id="documentation-/-img-with-caption" transform="translate(84.000000, 79.000000)">
                <g id="Group-5">
                    <g id="Loading/Circle/Indeterminate-6" transform="translate(37.000000, 12.000000)" fill="#9E9E9E">
                        <path d="M27.0084,30.4974 C20.8184,34.6794 12.3394,34.0334 6.8604,28.5544 C0.6454,22.3394 0.6454,12.2634 6.8604,6.0484 C13.0754,-0.1666 23.1514,-0.1666 29.3664,6.0484 C33.2354,9.9174 34.6944,15.2814 33.7464,20.2794 L35.0884,20.5264 C36.1134,15.1024 34.5294,9.2814 30.3314,5.0844 C23.5834,-1.6636 12.6434,-1.6636 5.8954,5.0834 C-0.8516,11.8314 -0.8516,22.7714 5.8954,29.5194 C11.8474,35.4704 21.0584,36.1694 27.7794,31.6224 L27.0084,30.4974 Z" id="Fill-22"></path>
                    </g>
                    <g id="Group-17" transform="translate(0.000000, 73.000000)" font-size="12" font-family=".AppleSystemUIFont" fill="#EC407A" font-weight="normal">
                        <g id="specs-/-redlines-/-label-copy-4">
                            <text id="redline-label">
                                <tspan x="0" y="12">360 degrees/0.8 secs </tspan>
                            </text>
                        </g>
                    </g>
                    <path d="M83.2694432,40.066238 C84.3899305,36.9197491 85,33.5311192 85,30 C85,13.4314575 71.5685425,0 55,0 C38.4314575,0 25,13.4314575 25,30 C25,46.5685425 38.4314575,60 55,60 L55,60 C64.4720208,60 72.9187605,55.6102497 78.4167957,48.7541725" id="Oval" stroke="#EC3F7A"></path>
                </g>
            </g>
            <g id="Loading/Circle/Indeterminate-6" transform="translate(443.000000, 91.000000)" fill="#9E9E9E">
                <path d="M27.0084,30.4974 C20.8184,34.6794 12.3394,34.0334 6.8604,28.5544 C0.6454,22.3394 0.6454,12.2634 6.8604,6.0484 C13.0754,-0.1666 23.1514,-0.1666 29.3664,6.0484 C33.2354,9.9174 34.6944,15.2814 33.7464,20.2794 L35.0884,20.5264 C36.1134,15.1024 34.5294,9.2814 30.3314,5.0844 C23.5834,-1.6636 12.6434,-1.6636 5.8954,5.0834 C-0.8516,11.8314 -0.8516,22.7714 5.8954,29.5194 C11.8474,35.4704 21.0584,36.1694 27.7794,31.6224 L27.0084,30.4974 Z" id="Fill-22"></path>
            </g>
            <g id="Group-17" transform="translate(413.000000, 152.000000)" font-size="12" font-family=".AppleSystemUIFont" fill="#EC407A" font-weight="normal">
                <g id="specs-/-redlines-/-label-copy-4">
                    <text id="redline-label">
                        <tspan x="0" y="12">Rotates clockwise</tspan>
                    </text>
                </g>
            </g>
            <path d="M489.269443,119.066238 C490.389931,115.919749 491,112.531119 491,109 C491,92.4314575 477.568542,79 461,79 C444.431458,79 431,92.4314575 431,109 C431,125.568542 444.431458,139 461,139 L461,139 C470.472021,139 478.91876,134.61025 484.416796,127.754173" id="Oval" stroke="#EC3F7A"></path>
        </g>
    </g>
</svg>