<?xml version="1.0" encoding="utf-8"?>
<!-- Generator: Adobe Illustrator 21.0.2, SVG Export Plug-In . SVG Version: 6.00 Build 0)  -->
<svg version="1.1" id="Layer_1" xmlns="http://www.w3.org/2000/svg" xmlns:xlink="http://www.w3.org/1999/xlink" x="0px" y="0px"
	 width="641px" height="288px" viewBox="0 0 641 288" style="enable-background:new 0 0 641 288;" xml:space="preserve">
<style type="text/css">
	.st0{filter:url(#filter-2);}
	.st1{fill:#FFFFFF;}
	.st2{enable-background:new    ;}
	.st3{fill:#424242;}
	.st4{fill:#FFFFFF;stroke:#BDBDBD;}
	.st5{fill:none;stroke:#EC3F7A;}
	.st6{fill:#F03F7B;fill-opacity:0.3;stroke:#EC3F7A;}
	.st7{fill:#EC407A;}
</style>
<filter  filterUnits="objectBoundingBox" height="105.0%" id="filter-2" width="102.2%" x="-1.1%" y="-1.8%">
	<feOffset  dx="0" dy="2" in="SourceAlpha" result="shadowOffsetOuter1"></feOffset>
	<feGaussianBlur  in="shadowOffsetOuter1" result="shadowBlurOuter1" stdDeviation="2"></feGaussianBlur>
	<feColorMatrix  in="shadowBlurOuter1" type="matrix" values="0 0 0 0 0   0 0 0 0 0   0 0 0 0 0  0 0 0 0.2 0"></feColorMatrix>
</filter>
<title>Default-Layout-Image</title>
<desc>Created with Sketch.</desc>
<g id="_x2A_Document_x2A_">
	<g id="_x32__x29_-Specs-_x26_-States" transform="translate(-355.000000, -346.000000)">
		<g id="Default-Layout" transform="translate(0.000000, 348.000000)">
			<g id="Default-Layout-Image" transform="translate(359.000000, 0.000000)">
				<g id="img-container-span-8">
					<g class="st0">
						<rect id="path-1_2_" width="633" height="280"/>
					</g>
					<g>
						<rect id="path-1_1_" class="st1" width="633" height="280"/>
					</g>
				</g>
				<g id="Composition-Image" transform="translate(153.000000, 94.000000)">
					<g id="Group" transform="translate(116.000000, 0.000000)">
						<g class="st2">
							<path class="st3" d="M34.1,38.7c0,1.1-0.2,2.1-0.6,2.9s-0.9,1.5-1.6,1.9s-1.5,0.7-2.4,0.7c-0.9,0-1.7-0.2-2.4-0.7
								c-0.7-0.4-1.2-1.1-1.6-1.9s-0.6-1.8-0.6-2.8V38c0-1.1,0.2-2.1,0.6-2.9c0.4-0.8,0.9-1.5,1.6-1.9s1.5-0.7,2.4-0.7
								c0.9,0,1.7,0.2,2.4,0.7s1.2,1.1,1.6,1.9s0.6,1.8,0.6,2.9V38.7z M32.6,37.9c0-1.3-0.3-2.4-0.8-3.1c-0.5-0.7-1.3-1.1-2.3-1.1
								c-0.9,0-1.7,0.4-2.2,1.1c-0.5,0.7-0.8,1.7-0.8,3v0.8c0,1.3,0.3,2.3,0.8,3.1c0.5,0.7,1.3,1.1,2.3,1.1c1,0,1.7-0.4,2.2-1.1
								s0.8-1.7,0.8-3V37.9z"/>
						</g>
						<g class="st2">
							<path class="st3" d="M43.2,39.9c0,1.3-0.3,2.3-0.9,3.1c-0.6,0.8-1.4,1.2-2.4,1.2c-1,0-1.8-0.3-2.4-1v4.1h-1.4V35.5h1.3
								l0.1,0.9c0.6-0.7,1.4-1.1,2.5-1.1c1,0,1.8,0.4,2.4,1.1c0.6,0.8,0.9,1.8,0.9,3.2V39.9z M41.8,39.7c0-1-0.2-1.7-0.6-2.3
								s-1-0.8-1.7-0.8c-0.9,0-1.5,0.4-2,1.2v4c0.4,0.8,1.1,1.2,2,1.2c0.7,0,1.2-0.3,1.7-0.8C41.6,41.6,41.8,40.8,41.8,39.7z"/>
							<path class="st3" d="M47,33.5v2h1.6v1.1H47v5.2c0,0.3,0.1,0.6,0.2,0.8c0.1,0.2,0.4,0.3,0.7,0.3c0.2,0,0.4,0,0.7-0.1V44
								c-0.4,0.1-0.8,0.2-1.1,0.2c-0.6,0-1.1-0.2-1.5-0.6s-0.5-0.9-0.5-1.7v-5.2H44v-1.1h1.5v-2H47z"/>
							<path class="st3" d="M50.3,33.3c0-0.2,0.1-0.4,0.2-0.6c0.1-0.2,0.4-0.2,0.6-0.2s0.5,0.1,0.6,0.2c0.1,0.2,0.2,0.4,0.2,0.6
								s-0.1,0.4-0.2,0.6c-0.1,0.2-0.4,0.2-0.6,0.2s-0.5-0.1-0.6-0.2C50.4,33.7,50.3,33.5,50.3,33.3z M51.9,44h-1.4v-8.5h1.4V44z"/>
							<path class="st3" d="M53.8,39.7c0-0.8,0.2-1.6,0.5-2.2c0.3-0.7,0.8-1.2,1.4-1.5c0.6-0.4,1.2-0.5,2-0.5c1.2,0,2.1,0.4,2.8,1.2
								s1.1,1.9,1.1,3.2v0.1c0,0.8-0.2,1.6-0.5,2.2c-0.3,0.7-0.8,1.2-1.4,1.5s-1.3,0.5-2,0.5c-1.1,0-2.1-0.4-2.8-1.2
								s-1.1-1.9-1.1-3.2V39.7z M55.2,39.9c0,0.9,0.2,1.7,0.7,2.3c0.4,0.6,1,0.9,1.7,0.9c0.7,0,1.3-0.3,1.8-0.9
								c0.4-0.6,0.6-1.4,0.6-2.4c0-0.9-0.2-1.7-0.7-2.3c-0.4-0.6-1-0.9-1.8-0.9c-0.7,0-1.3,0.3-1.7,0.9S55.2,38.8,55.2,39.9z"/>
							<path class="st3" d="M64.7,35.5l0,1.1c0.6-0.8,1.5-1.2,2.5-1.2c1.8,0,2.7,1,2.7,3V44h-1.4v-5.6c0-0.6-0.1-1.1-0.4-1.4
								s-0.7-0.4-1.3-0.4c-0.5,0-0.9,0.1-1.2,0.4c-0.4,0.2-0.6,0.6-0.8,1v6h-1.4v-8.5H64.7z"/>
						</g>
						<g class="st2">
							<path class="st3" d="M80.7,44h-1.5v-9.6l-2.9,1.1v-1.3l4.1-1.6h0.2V44z"/>
						</g>
						<g class="st2">
							<path class="st3" d="M34.1,61.7c0,1.1-0.2,2.1-0.6,2.9s-0.9,1.5-1.6,1.9s-1.5,0.7-2.4,0.7c-0.9,0-1.7-0.2-2.4-0.7
								c-0.7-0.4-1.2-1.1-1.6-1.9s-0.6-1.8-0.6-2.8V61c0-1.1,0.2-2.1,0.6-2.9c0.4-0.8,0.9-1.5,1.6-1.9s1.5-0.7,2.4-0.7
								c0.9,0,1.7,0.2,2.4,0.7s1.2,1.1,1.6,1.9s0.6,1.8,0.6,2.9V61.7z M32.6,60.9c0-1.3-0.3-2.4-0.8-3.1c-0.5-0.7-1.3-1.1-2.3-1.1
								c-0.9,0-1.7,0.4-2.2,1.1c-0.5,0.7-0.8,1.7-0.8,3v0.8c0,1.3,0.3,2.3,0.8,3.1c0.5,0.7,1.3,1.1,2.3,1.1c1,0,1.7-0.4,2.2-1.1
								s0.8-1.7,0.8-3V60.9z"/>
						</g>
						<g class="st2">
							<path class="st3" d="M43.2,62.9c0,1.3-0.3,2.3-0.9,3.1c-0.6,0.8-1.4,1.2-2.4,1.2c-1,0-1.8-0.3-2.4-1v4.1h-1.4V58.5h1.3
								l0.1,0.9c0.6-0.7,1.4-1.1,2.5-1.1c1,0,1.8,0.4,2.4,1.1c0.6,0.8,0.9,1.8,0.9,3.2V62.9z M41.8,62.7c0-1-0.2-1.7-0.6-2.3
								s-1-0.8-1.7-0.8c-0.9,0-1.5,0.4-2,1.2v4c0.4,0.8,1.1,1.2,2,1.2c0.7,0,1.2-0.3,1.7-0.8C41.6,64.6,41.8,63.8,41.8,62.7z"/>
							<path class="st3" d="M47,56.5v2h1.6v1.1H47v5.2c0,0.3,0.1,0.6,0.2,0.8c0.1,0.2,0.4,0.3,0.7,0.3c0.2,0,0.4,0,0.7-0.1V67
								c-0.4,0.1-0.8,0.2-1.1,0.2c-0.6,0-1.1-0.2-1.5-0.6s-0.5-0.9-0.5-1.7v-5.2H44v-1.1h1.5v-2H47z"/>
							<path class="st3" d="M50.3,56.3c0-0.2,0.1-0.4,0.2-0.6c0.1-0.2,0.4-0.2,0.6-0.2s0.5,0.1,0.6,0.2c0.1,0.2,0.2,0.4,0.2,0.6
								s-0.1,0.4-0.2,0.6c-0.1,0.2-0.4,0.2-0.6,0.2s-0.5-0.1-0.6-0.2C50.4,56.7,50.3,56.5,50.3,56.3z M51.9,67h-1.4v-8.5h1.4V67z"/>
							<path class="st3" d="M53.8,62.7c0-0.8,0.2-1.6,0.5-2.2c0.3-0.7,0.8-1.2,1.4-1.5c0.6-0.4,1.2-0.5,2-0.5c1.2,0,2.1,0.4,2.8,1.2
								s1.1,1.9,1.1,3.2v0.1c0,0.8-0.2,1.6-0.5,2.2c-0.3,0.7-0.8,1.2-1.4,1.5s-1.3,0.5-2,0.5c-1.1,0-2.1-0.4-2.8-1.2
								s-1.1-1.9-1.1-3.2V62.7z M55.2,62.9c0,0.9,0.2,1.7,0.7,2.3c0.4,0.6,1,0.9,1.7,0.9c0.7,0,1.3-0.3,1.8-0.9
								c0.4-0.6,0.6-1.4,0.6-2.4c0-0.9-0.2-1.7-0.7-2.3c-0.4-0.6-1-0.9-1.8-0.9c-0.7,0-1.3,0.3-1.7,0.9S55.2,61.8,55.2,62.9z"/>
							<path class="st3" d="M64.7,58.5l0,1.1c0.6-0.8,1.5-1.2,2.5-1.2c1.8,0,2.7,1,2.7,3V67h-1.4v-5.6c0-0.6-0.1-1.1-0.4-1.4
								s-0.7-0.4-1.3-0.4c-0.5,0-0.9,0.1-1.2,0.4c-0.4,0.2-0.6,0.6-0.8,1v6h-1.4v-8.5H64.7z"/>
						</g>
						<g class="st2">
							<path class="st3" d="M83.4,67H76v-1l3.9-4.4c0.6-0.7,1-1.2,1.2-1.6s0.3-0.8,0.3-1.3c0-0.6-0.2-1.1-0.5-1.5s-0.8-0.6-1.4-0.6
								c-0.7,0-1.3,0.2-1.7,0.6s-0.6,1-0.6,1.7h-1.4c0-1,0.3-1.9,1-2.5s1.6-1,2.7-1c1.1,0,1.9,0.3,2.5,0.8s0.9,1.3,0.9,2.2
								c0,1.1-0.7,2.5-2.1,4l-3,3.3h5.7V67z"/>
						</g>
						<g class="st2">
							<path class="st3" d="M34.1,85.7c0,1.1-0.2,2.1-0.6,2.9s-0.9,1.5-1.6,1.9s-1.5,0.7-2.4,0.7c-0.9,0-1.7-0.2-2.4-0.7
								c-0.7-0.4-1.2-1.1-1.6-1.9s-0.6-1.8-0.6-2.8V85c0-1.1,0.2-2.1,0.6-2.9c0.4-0.8,0.9-1.5,1.6-1.9s1.5-0.7,2.4-0.7
								c0.9,0,1.7,0.2,2.4,0.7s1.2,1.1,1.6,1.9s0.6,1.8,0.6,2.9V85.7z M32.6,84.9c0-1.3-0.3-2.4-0.8-3.1c-0.5-0.7-1.3-1.1-2.3-1.1
								c-0.9,0-1.7,0.4-2.2,1.1c-0.5,0.7-0.8,1.7-0.8,3v0.8c0,1.3,0.3,2.3,0.8,3.1c0.5,0.7,1.3,1.1,2.3,1.1c1,0,1.7-0.4,2.2-1.1
								s0.8-1.7,0.8-3V84.9z"/>
						</g>
						<g class="st2">
							<path class="st3" d="M43.2,86.9c0,1.3-0.3,2.3-0.9,3.1c-0.6,0.8-1.4,1.2-2.4,1.2c-1,0-1.8-0.3-2.4-1v4.1h-1.4V82.5h1.3
								l0.1,0.9c0.6-0.7,1.4-1.1,2.5-1.1c1,0,1.8,0.4,2.4,1.1c0.6,0.8,0.9,1.8,0.9,3.2V86.9z M41.8,86.7c0-1-0.2-1.7-0.6-2.3
								s-1-0.8-1.7-0.8c-0.9,0-1.5,0.4-2,1.2v4c0.4,0.8,1.1,1.2,2,1.2c0.7,0,1.2-0.3,1.7-0.8C41.6,88.6,41.8,87.8,41.8,86.7z"/>
							<path class="st3" d="M47,80.5v2h1.6v1.1H47v5.2c0,0.3,0.1,0.6,0.2,0.8c0.1,0.2,0.4,0.3,0.7,0.3c0.2,0,0.4,0,0.7-0.1V91
								c-0.4,0.1-0.8,0.2-1.1,0.2c-0.6,0-1.1-0.2-1.5-0.6s-0.5-0.9-0.5-1.7v-5.2H44v-1.1h1.5v-2H47z"/>
							<path class="st3" d="M50.3,80.3c0-0.2,0.1-0.4,0.2-0.6c0.1-0.2,0.4-0.2,0.6-0.2s0.5,0.1,0.6,0.2c0.1,0.2,0.2,0.4,0.2,0.6
								s-0.1,0.4-0.2,0.6c-0.1,0.2-0.4,0.2-0.6,0.2s-0.5-0.1-0.6-0.2C50.4,80.7,50.3,80.5,50.3,80.3z M51.9,91h-1.4v-8.5h1.4V91z"/>
							<path class="st3" d="M53.8,86.7c0-0.8,0.2-1.6,0.5-2.2c0.3-0.7,0.8-1.2,1.4-1.5c0.6-0.4,1.2-0.5,2-0.5c1.2,0,2.1,0.4,2.8,1.2
								s1.1,1.9,1.1,3.2v0.1c0,0.8-0.2,1.6-0.5,2.2c-0.3,0.7-0.8,1.2-1.4,1.5s-1.3,0.5-2,0.5c-1.1,0-2.1-0.4-2.8-1.2
								s-1.1-1.9-1.1-3.2V86.7z M55.2,86.9c0,0.9,0.2,1.7,0.7,2.3c0.4,0.6,1,0.9,1.7,0.9c0.7,0,1.3-0.3,1.8-0.9
								c0.4-0.6,0.6-1.4,0.6-2.4c0-0.9-0.2-1.7-0.7-2.3c-0.4-0.6-1-0.9-1.8-0.9c-0.7,0-1.3,0.3-1.7,0.9S55.2,85.8,55.2,86.9z"/>
							<path class="st3" d="M64.7,82.5l0,1.1c0.6-0.8,1.5-1.2,2.5-1.2c1.8,0,2.7,1,2.7,3V91h-1.4v-5.6c0-0.6-0.1-1.1-0.4-1.4
								s-0.7-0.4-1.3-0.4c-0.5,0-0.9,0.1-1.2,0.4c-0.4,0.2-0.6,0.6-0.8,1v6h-1.4v-8.5H64.7z"/>
						</g>
						<g class="st2">
							<path class="st3" d="M78.1,84.6h1.1c0.7,0,1.2-0.2,1.6-0.5s0.6-0.8,0.6-1.4c0-1.3-0.7-2-2-2c-0.6,0-1.1,0.2-1.5,0.5
								s-0.6,0.8-0.6,1.4h-1.4c0-0.9,0.3-1.6,1-2.2s1.5-0.9,2.5-0.9c1.1,0,1.9,0.3,2.5,0.9s0.9,1.4,0.9,2.4c0,0.5-0.2,1-0.5,1.4
								s-0.8,0.8-1.3,1c0.6,0.2,1.1,0.5,1.4,1s0.5,1,0.5,1.7c0,1-0.3,1.8-1,2.4s-1.5,0.9-2.6,0.9s-1.9-0.3-2.6-0.9s-1-1.3-1-2.3h1.5
								c0,0.6,0.2,1.1,0.6,1.4s0.9,0.5,1.6,0.5c0.7,0,1.2-0.2,1.6-0.5s0.6-0.9,0.6-1.6c0-0.7-0.2-1.2-0.6-1.5s-1-0.5-1.8-0.5h-1.1
								V84.6z"/>
						</g>
						<path id="Fill-60-Copy-2" class="st4" d="M2.5,67C1.7,67,1,66.3,1,65.5v-12C1,52.7,1.7,52,2.5,52h12c0.8,0,1.5,0.7,1.5,1.5v12
							c0,0.8-0.7,1.5-1.5,1.5H2.5z"/>
						<path id="Fill-60-Copy-3" class="st4" d="M2.5,45C1.7,45,1,44.3,1,43.5v-12C1,30.7,1.7,30,2.5,30h12c0.8,0,1.5,0.7,1.5,1.5v12
							c0,0.8-0.7,1.5-1.5,1.5H2.5z"/>
						<path id="Fill-60-Copy-4" class="st4" d="M2.5,91C1.7,91,1,90.3,1,89.5v-12C1,76.7,1.7,76,2.5,76h12c0.8,0,1.5,0.7,1.5,1.5v12
							c0,0.8-0.7,1.5-1.5,1.5H2.5z"/>
						<g class="st2">
							<path class="st3" d="M7.1,14.1c0-0.5-0.2-0.9-0.5-1.2s-1-0.5-1.9-0.8c-0.9-0.3-1.6-0.6-2.2-0.9c-1-0.7-1.6-1.5-1.6-2.5
								c0-0.9,0.4-1.7,1.1-2.3C2.8,5.8,3.8,5.5,5,5.5c0.8,0,1.5,0.1,2.1,0.4c0.6,0.3,1.1,0.7,1.5,1.2c0.4,0.5,0.5,1.1,0.5,1.8h-2
								c0-0.6-0.2-1.1-0.6-1.4C6.2,7.2,5.6,7,4.9,7C4.3,7,3.8,7.2,3.4,7.5C3.1,7.7,2.9,8.1,2.9,8.6c0,0.4,0.2,0.8,0.6,1
								c0.4,0.3,1,0.5,1.9,0.8C6.3,10.7,7,11,7.5,11.4c0.5,0.3,0.9,0.7,1.2,1.2s0.4,0.9,0.4,1.5c0,0.9-0.4,1.7-1.1,2.3
								s-1.7,0.8-3,0.8c-0.8,0-1.6-0.2-2.3-0.5c-0.7-0.3-1.2-0.7-1.6-1.3s-0.6-1.2-0.6-1.9h2c0,0.6,0.2,1.1,0.6,1.5
								c0.4,0.4,1,0.5,1.8,0.5c0.7,0,1.2-0.1,1.6-0.4C6.9,14.9,7.1,14.5,7.1,14.1z"/>
							<path class="st3" d="M14.4,17.2c-1.2,0-2.2-0.4-2.9-1.1c-0.7-0.8-1.1-1.8-1.1-3v-0.2c0-0.8,0.2-1.6,0.5-2.3
								c0.3-0.7,0.8-1.2,1.4-1.6c0.6-0.4,1.2-0.6,2-0.6c1.2,0,2,0.4,2.7,1.1c0.6,0.7,0.9,1.8,0.9,3.1v0.8h-5.5
								c0.1,0.7,0.3,1.2,0.7,1.7c0.4,0.4,0.9,0.6,1.5,0.6c0.9,0,1.6-0.4,2.1-1.1l1,1c-0.3,0.5-0.8,0.9-1.4,1.2
								C15.8,17,15.2,17.2,14.4,17.2z M14.2,9.9c-0.5,0-0.9,0.2-1.3,0.5s-0.5,0.9-0.6,1.5H16v-0.1c0-0.6-0.2-1.1-0.5-1.4
								S14.7,9.9,14.2,9.9z"/>
							<path class="st3" d="M21.4,17h-1.9V5h1.9V17z"/>
							<path class="st3" d="M27.3,17.2c-1.2,0-2.2-0.4-2.9-1.1c-0.7-0.8-1.1-1.8-1.1-3v-0.2c0-0.8,0.2-1.6,0.5-2.3
								c0.3-0.7,0.8-1.2,1.4-1.6c0.6-0.4,1.2-0.6,2-0.6c1.2,0,2,0.4,2.7,1.1c0.6,0.7,0.9,1.8,0.9,3.1v0.8h-5.5
								c0.1,0.7,0.3,1.2,0.7,1.7c0.4,0.4,0.9,0.6,1.5,0.6c0.9,0,1.6-0.4,2.1-1.1l1,1c-0.3,0.5-0.8,0.9-1.4,1.2
								C28.6,17,28,17.2,27.3,17.2z M27.1,9.9c-0.5,0-0.9,0.2-1.3,0.5s-0.5,0.9-0.6,1.5h3.6v-0.1c0-0.6-0.2-1.1-0.5-1.4
								S27.6,9.9,27.1,9.9z"/>
							<path class="st3" d="M35.7,15.6c0.5,0,0.9-0.1,1.2-0.4s0.5-0.6,0.5-1h1.8c0,0.5-0.2,1-0.5,1.5c-0.3,0.5-0.7,0.8-1.2,1.1
								c-0.5,0.3-1.1,0.4-1.7,0.4c-1.2,0-2.1-0.4-2.8-1.1c-0.7-0.8-1-1.8-1-3.2v-0.2c0-1.3,0.3-2.3,1-3.1s1.6-1.2,2.8-1.2
								c1,0,1.8,0.3,2.5,0.9s1,1.4,1,2.3h-1.8c0-0.5-0.2-0.9-0.5-1.2c-0.3-0.3-0.7-0.5-1.2-0.5c-0.6,0-1.1,0.2-1.4,0.7
								c-0.3,0.4-0.5,1.1-0.5,2v0.3c0,0.9,0.2,1.6,0.5,2.1C34.6,15.4,35.1,15.6,35.7,15.6z"/>
							<path class="st3" d="M43.1,6.5v2.1h1.5V10h-1.5v4.7c0,0.3,0.1,0.6,0.2,0.7c0.1,0.1,0.4,0.2,0.7,0.2c0.2,0,0.4,0,0.7-0.1V17
								c-0.4,0.1-0.8,0.2-1.2,0.2c-1.5,0-2.2-0.8-2.2-2.4V10h-1.4V8.5h1.4V6.5H43.1z"/>
							<path class="st3" d="M45.6,12.7c0-0.8,0.2-1.6,0.5-2.2s0.8-1.2,1.4-1.5s1.3-0.5,2-0.5c1.1,0,2.1,0.4,2.8,1.1s1.1,1.7,1.2,2.9
								l0,0.4c0,0.8-0.2,1.6-0.5,2.2s-0.8,1.2-1.4,1.5c-0.6,0.4-1.3,0.5-2.1,0.5c-1.2,0-2.1-0.4-2.9-1.2
								C45.9,15.2,45.6,14.1,45.6,12.7L45.6,12.7z M47.5,12.9c0,0.9,0.2,1.6,0.5,2s0.9,0.7,1.5,0.7s1.1-0.2,1.5-0.8
								c0.4-0.5,0.5-1.2,0.5-2.2c0-0.9-0.2-1.5-0.6-2s-0.9-0.8-1.5-0.8c-0.6,0-1.1,0.2-1.5,0.7C47.6,11.1,47.5,11.9,47.5,12.9z"/>
							<path class="st3" d="M59.6,10.3c-0.2,0-0.5-0.1-0.8-0.1c-0.9,0-1.5,0.3-1.8,1V17h-1.9V8.5h1.8l0,0.9c0.5-0.7,1.1-1.1,1.9-1.1
								c0.3,0,0.5,0,0.7,0.1L59.6,10.3z"/>
							<path class="st3" d="M72.9,7.2h-3.5V17h-2V7.2h-3.5V5.6h9V7.2z"/>
							<path class="st3" d="M74.3,6.4c0-0.3,0.1-0.5,0.3-0.7s0.4-0.3,0.8-0.3s0.6,0.1,0.8,0.3s0.3,0.4,0.3,0.7
								c0,0.3-0.1,0.5-0.3,0.7s-0.5,0.3-0.8,0.3s-0.6-0.1-0.8-0.3S74.3,6.6,74.3,6.4z M76.3,17h-1.9V8.5h1.9V17z"/>
							<path class="st3" d="M80.8,6.5v2.1h1.5V10h-1.5v4.7c0,0.3,0.1,0.6,0.2,0.7c0.1,0.1,0.4,0.2,0.7,0.2c0.2,0,0.4,0,0.7-0.1V17
								c-0.4,0.1-0.8,0.2-1.2,0.2c-1.5,0-2.2-0.8-2.2-2.4V10h-1.4V8.5h1.4V6.5H80.8z"/>
							<path class="st3" d="M85.9,17H84V5h1.9V17z"/>
							<path class="st3" d="M91.8,17.2c-1.2,0-2.2-0.4-2.9-1.1c-0.7-0.8-1.1-1.8-1.1-3v-0.2c0-0.8,0.2-1.6,0.5-2.3
								c0.3-0.7,0.8-1.2,1.4-1.6c0.6-0.4,1.2-0.6,2-0.6c1.2,0,2,0.4,2.7,1.1c0.6,0.7,0.9,1.8,0.9,3.1v0.8h-5.5
								c0.1,0.7,0.3,1.2,0.7,1.7c0.4,0.4,0.9,0.6,1.5,0.6c0.9,0,1.6-0.4,2.1-1.1l1,1c-0.3,0.5-0.8,0.9-1.4,1.2
								C93.1,17,92.5,17.2,91.8,17.2z M91.5,9.9c-0.5,0-0.9,0.2-1.3,0.5s-0.5,0.9-0.6,1.5h3.6v-0.1c0-0.6-0.2-1.1-0.5-1.4
								S92.1,9.9,91.5,9.9z"/>
						</g>
					</g>
					<g id="Annotation" transform="translate(0.000000, 3.000000)">
						
							<g id="specs-_x2F_-redlines-_x2F_-line-straight" transform="translate(241.000000, 8.000000) scale(-1, 1) translate(-241.000000, -8.000000) translate(215.000000, 3.000000)">
							<path id="Stroke-8" class="st5" d="M10,5h42"/>
							<path id="Path" class="st6" d="M5,0c2.8,0,5,2.2,5,5c0,2.8-2.2,5-5,5S0,7.8,0,5C0,2.2,2.2,0,5,0"/>
						</g>
						
							<g id="specs-_x2F_-redlines-_x2F_-line-straight_1_" transform="translate(235.000000, 34.000000) rotate(-180.000000) translate(-235.000000, -34.000000) translate(209.000000, 29.000000)">
							<path id="Stroke-8_1_" class="st5" d="M10,5h42"/>
							<path id="Path_1_" class="st6" d="M5,0c2.8,0,5,2.2,5,5c0,2.8-2.2,5-5,5S0,7.8,0,5C0,2.2,2.2,0,5,0"/>
						</g>
						<g id="specs-_x2F_-redlines-_x2F_-label" transform="translate(275.000000, 0.000000)">
							<g class="st2">
								<path class="st7" d="M3.5,7.9c-1-0.3-1.7-0.6-2.1-1S0.7,6,0.7,5.4c0-0.7,0.3-1.2,0.8-1.7S2.8,3,3.6,3c0.6,0,1.1,0.1,1.6,0.3
									S6,3.9,6.3,4.3s0.4,0.8,0.4,1.3H5.5c0-0.5-0.2-0.9-0.5-1.2S4.2,4,3.6,4c-0.6,0-1,0.1-1.3,0.4C2,4.6,1.9,4.9,1.9,5.3
									C1.9,5.7,2,6,2.3,6.2c0.3,0.2,0.8,0.5,1.5,0.7c0.7,0.2,1.3,0.4,1.7,0.7s0.7,0.5,0.9,0.8s0.3,0.7,0.3,1.1
									c0,0.7-0.3,1.2-0.8,1.7s-1.3,0.6-2.2,0.6c-0.6,0-1.1-0.1-1.6-0.3s-0.9-0.5-1.2-0.9S0.5,9.7,0.5,9.2h1.1
									c0,0.5,0.2,0.9,0.6,1.2s0.9,0.4,1.5,0.4c0.6,0,1-0.1,1.4-0.4s0.5-0.6,0.5-1s-0.1-0.7-0.4-1S4.3,8.1,3.5,7.9z"/>
								<path class="st7" d="M10.6,11.8c-0.9,0-1.6-0.3-2.1-0.8S7.7,9.6,7.7,8.7V8.5c0-0.6,0.1-1.2,0.4-1.7s0.6-0.9,1-1.2
									s0.9-0.4,1.4-0.4c0.8,0,1.5,0.3,1.9,0.8S13,7.4,13,8.4v0.5H8.7c0,0.6,0.2,1.1,0.5,1.5s0.8,0.6,1.3,0.6c0.4,0,0.7-0.1,1-0.2
									s0.5-0.4,0.7-0.6l0.7,0.5C12.4,11.4,11.6,11.8,10.6,11.8z M10.4,6.1c-0.4,0-0.8,0.2-1.1,0.5S8.9,7.4,8.8,7.9H12V7.9
									c0-0.6-0.2-1-0.4-1.3S10.9,6.1,10.4,6.1z"/>
								<path class="st7" d="M16.8,10.9c0.4,0,0.7-0.1,1-0.4s0.4-0.5,0.5-0.9h1c0,0.4-0.1,0.7-0.4,1s-0.5,0.6-0.9,0.8
									s-0.8,0.3-1.2,0.3c-0.9,0-1.5-0.3-2.1-0.9S14,9.6,14,8.6V8.4c0-0.6,0.1-1.2,0.3-1.6s0.6-0.9,1-1.1s0.9-0.4,1.5-0.4
									c0.7,0,1.3,0.2,1.8,0.6s0.7,1,0.8,1.7h-1c0-0.4-0.2-0.7-0.5-1s-0.6-0.4-1-0.4c-0.6,0-1,0.2-1.3,0.6s-0.5,1-0.5,1.7v0.2
									c0,0.7,0.2,1.3,0.5,1.7S16.3,10.9,16.8,10.9z"/>
								<path class="st7" d="M22,3.8v1.5h1.2v0.8H22v3.9c0,0.3,0.1,0.4,0.2,0.6s0.3,0.2,0.5,0.2c0.1,0,0.3,0,0.5-0.1v0.9
									c-0.3,0.1-0.6,0.1-0.8,0.1c-0.5,0-0.8-0.1-1.1-0.4S21,10.7,21,10.1V6.2h-1.2V5.3H21V3.8H22z"/>
								<path class="st7" d="M24.5,3.7c0-0.2,0.1-0.3,0.2-0.4S24.9,3,25.1,3s0.4,0.1,0.5,0.2s0.2,0.3,0.2,0.4S25.7,4,25.6,4.1
									s-0.3,0.2-0.5,0.2s-0.4-0.1-0.5-0.2S24.5,3.8,24.5,3.7z M25.7,11.7h-1.1V5.3h1.1V11.7z"/>
								<path class="st7" d="M27.1,8.5c0-0.6,0.1-1.2,0.4-1.7s0.6-0.9,1-1.1s0.9-0.4,1.5-0.4c0.9,0,1.6,0.3,2.1,0.9s0.8,1.4,0.8,2.4
									v0.1c0,0.6-0.1,1.2-0.4,1.7s-0.6,0.9-1,1.1s-0.9,0.4-1.5,0.4c-0.9,0-1.6-0.3-2.1-0.9S27.1,9.5,27.1,8.5L27.1,8.5z M28.2,8.6
									c0,0.7,0.2,1.3,0.5,1.7s0.8,0.6,1.3,0.6c0.6,0,1-0.2,1.3-0.6s0.5-1,0.5-1.8c0-0.7-0.2-1.3-0.5-1.7S30.5,6.1,30,6.1
									c-0.5,0-1,0.2-1.3,0.6S28.2,7.8,28.2,8.6z"/>
								<path class="st7" d="M35.3,5.3l0,0.8c0.5-0.6,1.1-0.9,1.9-0.9c1.3,0,2,0.8,2,2.3v4.2h-1.1V7.5c0-0.5-0.1-0.8-0.3-1
									s-0.5-0.3-1-0.3c-0.4,0-0.7,0.1-0.9,0.3s-0.5,0.4-0.6,0.7v4.5h-1.1V5.3H35.3z"/>
								<path class="st7" d="M45.1,10.8h4v0.9H44V3.2h1.1V10.8z"/>
								<path class="st7" d="M54.2,11.7c-0.1-0.1-0.1-0.3-0.2-0.7c-0.5,0.5-1.1,0.8-1.8,0.8c-0.6,0-1.1-0.2-1.5-0.5
									s-0.6-0.8-0.6-1.3c0-0.7,0.3-1.2,0.8-1.5s1.2-0.5,2.1-0.5H54V7.3c0-0.4-0.1-0.7-0.3-0.9s-0.6-0.3-1-0.3
									c-0.4,0-0.7,0.1-1,0.3s-0.4,0.4-0.4,0.7h-1.1c0-0.3,0.1-0.6,0.3-0.9s0.5-0.5,0.9-0.7s0.8-0.3,1.3-0.3c0.7,0,1.3,0.2,1.7,0.5
									s0.6,0.9,0.6,1.5v2.9c0,0.6,0.1,1,0.2,1.4v0.1H54.2z M52.4,10.9c0.3,0,0.7-0.1,1-0.3s0.5-0.4,0.7-0.7V8.6h-0.8
									c-1.3,0-2,0.4-2,1.2c0,0.3,0.1,0.6,0.3,0.8S52.1,10.9,52.4,10.9z"/>
								<path class="st7" d="M62.2,8.6c0,1-0.2,1.7-0.7,2.3s-1,0.9-1.8,0.9c-0.8,0-1.4-0.3-1.9-0.8l-0.1,0.7h-1v-9h1.1V6
									c0.4-0.5,1-0.8,1.8-0.8s1.4,0.3,1.8,0.9S62.2,7.5,62.2,8.6L62.2,8.6z M61.1,8.5c0-0.7-0.1-1.3-0.4-1.7S60,6.2,59.5,6.2
									c-0.7,0-1.2,0.3-1.5,1v2.7c0.3,0.7,0.8,1,1.6,1c0.5,0,0.9-0.2,1.2-0.6S61.1,9.3,61.1,8.5z"/>
								<path class="st7" d="M66.2,11.8c-0.9,0-1.6-0.3-2.1-0.8s-0.8-1.3-0.8-2.3V8.5c0-0.6,0.1-1.2,0.4-1.7s0.6-0.9,1-1.2
									s0.9-0.4,1.4-0.4c0.8,0,1.5,0.3,1.9,0.8s0.7,1.3,0.7,2.3v0.5h-4.3c0,0.6,0.2,1.1,0.5,1.5s0.8,0.6,1.3,0.6
									c0.4,0,0.7-0.1,1-0.2s0.5-0.4,0.7-0.6l0.7,0.5C68.1,11.4,67.3,11.8,66.2,11.8z M66.1,6.1c-0.4,0-0.8,0.2-1.1,0.5
									s-0.5,0.8-0.6,1.3h3.2V7.9c0-0.6-0.2-1-0.4-1.3S66.5,6.1,66.1,6.1z"/>
								<path class="st7" d="M71.1,11.7H70v-9h1.1V11.7z"/>
							</g>
						</g>
						<g id="specs-_x2F_-redlines-_x2F_-label_1_" transform="translate(269.000000, 26.000000)">
							<g class="st2">
								<path class="st7" d="M7.3,9c-0.1,0.9-0.4,1.6-1,2.1S5,11.8,4,11.8c-1,0-1.8-0.4-2.4-1.1S0.7,9,0.7,7.8V7
									c0-0.8,0.1-1.5,0.4-2.1s0.7-1.1,1.2-1.4S3.4,3,4.1,3C5,3,5.8,3.3,6.3,3.8s0.9,1.2,1,2.1H6.1C6,5.2,5.8,4.7,5.5,4.4
									S4.7,4,4.1,4C3.4,4,2.8,4.2,2.4,4.8C2,5.3,1.8,6,1.8,7v0.8c0,0.9,0.2,1.7,0.6,2.2c0.4,0.5,0.9,0.8,1.6,0.8
									c0.6,0,1.1-0.1,1.4-0.4S6,9.7,6.1,9H7.3z"/>
								<path class="st7" d="M9.7,6.1c0.5-0.6,1.1-0.9,1.9-0.9c1.3,0,2,0.8,2,2.3v4.2h-1.1V7.5c0-0.5-0.1-0.8-0.3-1s-0.5-0.3-1-0.3
									c-0.4,0-0.7,0.1-0.9,0.3S9.9,6.9,9.7,7.2v4.5H8.6v-9h1.1V6.1z"/>
								<path class="st7" d="M17.9,11.8c-0.9,0-1.6-0.3-2.1-0.8S15,9.6,15,8.7V8.5c0-0.6,0.1-1.2,0.4-1.7s0.6-0.9,1-1.2
									s0.9-0.4,1.4-0.4c0.8,0,1.5,0.3,1.9,0.8s0.7,1.3,0.7,2.3v0.5H16c0,0.6,0.2,1.1,0.5,1.5s0.8,0.6,1.3,0.6c0.4,0,0.7-0.1,1-0.2
									s0.5-0.4,0.7-0.6l0.7,0.5C19.7,11.4,18.9,11.8,17.9,11.8z M17.7,6.1c-0.4,0-0.8,0.2-1.1,0.5s-0.5,0.8-0.6,1.3h3.2V7.9
									c0-0.6-0.2-1-0.4-1.3S18.2,6.1,17.7,6.1z"/>
								<path class="st7" d="M24.1,10.9c0.4,0,0.7-0.1,1-0.4s0.4-0.5,0.5-0.9h1c0,0.4-0.1,0.7-0.4,1s-0.5,0.6-0.9,0.8
									s-0.8,0.3-1.2,0.3c-0.9,0-1.5-0.3-2.1-0.9s-0.8-1.4-0.8-2.4V8.4c0-0.6,0.1-1.2,0.3-1.6s0.6-0.9,1-1.1s0.9-0.4,1.5-0.4
									c0.7,0,1.3,0.2,1.8,0.6s0.7,1,0.8,1.7h-1c0-0.4-0.2-0.7-0.5-1s-0.6-0.4-1-0.4c-0.6,0-1,0.2-1.3,0.6s-0.5,1-0.5,1.7v0.2
									c0,0.7,0.2,1.3,0.5,1.7S23.6,10.9,24.1,10.9z"/>
								<path class="st7" d="M29.6,8.8L29,9.5v2.2h-1.1v-9H29v5.4l0.6-0.7l2-2.1h1.3L30.4,8l2.8,3.7h-1.3L29.6,8.8z"/>
								<path class="st7" d="M39.3,8.6c0,1-0.2,1.7-0.7,2.3s-1,0.9-1.8,0.9c-0.8,0-1.4-0.3-1.9-0.8L35,11.7h-1v-9H35V6
									c0.4-0.5,1-0.8,1.8-0.8s1.4,0.3,1.8,0.9S39.3,7.5,39.3,8.6L39.3,8.6z M38.2,8.5c0-0.7-0.1-1.3-0.4-1.7s-0.7-0.6-1.2-0.6
									c-0.7,0-1.2,0.3-1.5,1v2.7c0.3,0.7,0.8,1,1.6,1c0.5,0,0.9-0.2,1.2-0.6S38.2,9.3,38.2,8.5z"/>
								<path class="st7" d="M40.4,8.5c0-0.6,0.1-1.2,0.4-1.7s0.6-0.9,1-1.1s0.9-0.4,1.5-0.4c0.9,0,1.6,0.3,2.1,0.9s0.8,1.4,0.8,2.4
									v0.1c0,0.6-0.1,1.2-0.4,1.7s-0.6,0.9-1,1.1s-0.9,0.4-1.5,0.4c-0.9,0-1.6-0.3-2.1-0.9S40.4,9.5,40.4,8.5L40.4,8.5z M41.5,8.6
									c0,0.7,0.2,1.3,0.5,1.7s0.8,0.6,1.3,0.6c0.6,0,1-0.2,1.3-0.6s0.5-1,0.5-1.8c0-0.7-0.2-1.3-0.5-1.7s-0.8-0.6-1.3-0.6
									c-0.5,0-1,0.2-1.3,0.6S41.5,7.8,41.5,8.6z"/>
								<path class="st7" d="M49.5,7.7l1.4-2.3h1.3l-2.1,3.1l2.1,3.2H51l-1.5-2.4l-1.5,2.4h-1.3L49,8.5l-2.1-3.1h1.3L49.5,7.7z"/>
								<path class="st7" d="M57.6,10.8h4v0.9h-5.2V3.2h1.1V10.8z"/>
								<path class="st7" d="M66.7,11.7c-0.1-0.1-0.1-0.3-0.2-0.7c-0.5,0.5-1.1,0.8-1.8,0.8c-0.6,0-1.1-0.2-1.5-0.5
									s-0.6-0.8-0.6-1.3c0-0.7,0.3-1.2,0.8-1.5s1.2-0.5,2.1-0.5h1.1V7.3c0-0.4-0.1-0.7-0.3-0.9s-0.6-0.3-1-0.3
									c-0.4,0-0.7,0.1-1,0.3s-0.4,0.4-0.4,0.7h-1.1c0-0.3,0.1-0.6,0.3-0.9s0.5-0.5,0.9-0.7s0.8-0.3,1.3-0.3c0.7,0,1.3,0.2,1.7,0.5
									s0.6,0.9,0.6,1.5v2.9c0,0.6,0.1,1,0.2,1.4v0.1H66.7z M64.9,10.9c0.3,0,0.7-0.1,1-0.3s0.5-0.4,0.7-0.7V8.6h-0.8
									c-1.3,0-2,0.4-2,1.2c0,0.3,0.1,0.6,0.3,0.8S64.5,10.9,64.9,10.9z"/>
								<path class="st7" d="M74.7,8.6c0,1-0.2,1.7-0.7,2.3s-1,0.9-1.8,0.9c-0.8,0-1.4-0.3-1.9-0.8l-0.1,0.7h-1v-9h1.1V6
									c0.4-0.5,1-0.8,1.8-0.8s1.4,0.3,1.8,0.9S74.7,7.5,74.7,8.6L74.7,8.6z M73.6,8.5c0-0.7-0.1-1.3-0.4-1.7s-0.7-0.6-1.2-0.6
									c-0.7,0-1.2,0.3-1.5,1v2.7c0.3,0.7,0.8,1,1.6,1c0.5,0,0.9-0.2,1.2-0.6S73.6,9.3,73.6,8.5z"/>
								<path class="st7" d="M78.7,11.8c-0.9,0-1.6-0.3-2.1-0.8s-0.8-1.3-0.8-2.3V8.5c0-0.6,0.1-1.2,0.4-1.7s0.6-0.9,1-1.2
									s0.9-0.4,1.4-0.4c0.8,0,1.5,0.3,1.9,0.8s0.7,1.3,0.7,2.3v0.5h-4.3c0,0.6,0.2,1.1,0.5,1.5s0.8,0.6,1.3,0.6
									c0.4,0,0.7-0.1,1-0.2s0.5-0.4,0.7-0.6l0.7,0.5C80.5,11.4,79.7,11.8,78.7,11.8z M78.5,6.1c-0.4,0-0.8,0.2-1.1,0.5
									S77,7.4,76.9,7.9h3.2V7.9c0-0.6-0.2-1-0.4-1.3S79,6.1,78.5,6.1z"/>
								<path class="st7" d="M83.6,11.7h-1.1v-9h1.1V11.7z"/>
							</g>
						</g>
						<g id="specs-_x2F_-redlines-_x2F_-line-straight_2_" transform="translate(61.000000, 30.000000)">
							<path id="Stroke-8_2_" class="st5" d="M10,5h42"/>
							<path id="Path_2_" class="st6" d="M5,0c2.8,0,5,2.2,5,5c0,2.8-2.2,5-5,5S0,7.8,0,5C0,2.2,2.2,0,5,0"/>
						</g>
						<g id="specs-_x2F_-redlines-_x2F_-label_2_" transform="translate(0.000000, 29.000000)">
							<g class="st2">
								<path class="st7" d="M7.3,9c-0.1,0.9-0.4,1.6-1,2.1S5,11.8,4,11.8c-1,0-1.8-0.4-2.4-1.1S0.7,9,0.7,7.8V7
									c0-0.8,0.1-1.5,0.4-2.1s0.7-1.1,1.2-1.4S3.4,3,4.1,3C5,3,5.8,3.3,6.3,3.8s0.9,1.2,1,2.1H6.1C6,5.2,5.8,4.7,5.5,4.4
									S4.7,4,4.1,4C3.4,4,2.8,4.2,2.4,4.8C2,5.3,1.8,6,1.8,7v0.8c0,0.9,0.2,1.7,0.6,2.2c0.4,0.5,0.9,0.8,1.6,0.8
									c0.6,0,1.1-0.1,1.4-0.4S6,9.7,6.1,9H7.3z"/>
								<path class="st7" d="M9.7,6.1c0.5-0.6,1.1-0.9,1.9-0.9c1.3,0,2,0.8,2,2.3v4.2h-1.1V7.5c0-0.5-0.1-0.8-0.3-1s-0.5-0.3-1-0.3
									c-0.4,0-0.7,0.1-0.9,0.3S9.9,6.9,9.7,7.2v4.5H8.6v-9h1.1V6.1z"/>
								<path class="st7" d="M17.9,11.8c-0.9,0-1.6-0.3-2.1-0.8S15,9.6,15,8.7V8.5c0-0.6,0.1-1.2,0.4-1.7s0.6-0.9,1-1.2
									s0.9-0.4,1.4-0.4c0.8,0,1.5,0.3,1.9,0.8s0.7,1.3,0.7,2.3v0.5H16c0,0.6,0.2,1.1,0.5,1.5s0.8,0.6,1.3,0.6c0.4,0,0.7-0.1,1-0.2
									s0.5-0.4,0.7-0.6l0.7,0.5C19.7,11.4,18.9,11.8,17.9,11.8z M17.7,6.1c-0.4,0-0.8,0.2-1.1,0.5s-0.5,0.8-0.6,1.3h3.2V7.9
									c0-0.6-0.2-1-0.4-1.3S18.2,6.1,17.7,6.1z"/>
								<path class="st7" d="M24.1,10.9c0.4,0,0.7-0.1,1-0.4s0.4-0.5,0.5-0.9h1c0,0.4-0.1,0.7-0.4,1s-0.5,0.6-0.9,0.8
									s-0.8,0.3-1.2,0.3c-0.9,0-1.5-0.3-2.1-0.9s-0.8-1.4-0.8-2.4V8.4c0-0.6,0.1-1.2,0.3-1.6s0.6-0.9,1-1.1s0.9-0.4,1.5-0.4
									c0.7,0,1.3,0.2,1.8,0.6s0.7,1,0.8,1.7h-1c0-0.4-0.2-0.7-0.5-1s-0.6-0.4-1-0.4c-0.6,0-1,0.2-1.3,0.6s-0.5,1-0.5,1.7v0.2
									c0,0.7,0.2,1.3,0.5,1.7S23.6,10.9,24.1,10.9z"/>
								<path class="st7" d="M29.6,8.8L29,9.5v2.2h-1.1v-9H29v5.4l0.6-0.7l2-2.1h1.3L30.4,8l2.8,3.7h-1.3L29.6,8.8z"/>
								<path class="st7" d="M39.3,8.6c0,1-0.2,1.7-0.7,2.3s-1,0.9-1.8,0.9c-0.8,0-1.4-0.3-1.9-0.8L35,11.7h-1v-9H35V6
									c0.4-0.5,1-0.8,1.8-0.8s1.4,0.3,1.8,0.9S39.3,7.5,39.3,8.6L39.3,8.6z M38.2,8.5c0-0.7-0.1-1.3-0.4-1.7s-0.7-0.6-1.2-0.6
									c-0.7,0-1.2,0.3-1.5,1v2.7c0.3,0.7,0.8,1,1.6,1c0.5,0,0.9-0.2,1.2-0.6S38.2,9.3,38.2,8.5z"/>
								<path class="st7" d="M40.4,8.5c0-0.6,0.1-1.2,0.4-1.7s0.6-0.9,1-1.1s0.9-0.4,1.5-0.4c0.9,0,1.6,0.3,2.1,0.9s0.8,1.4,0.8,2.4
									v0.1c0,0.6-0.1,1.2-0.4,1.7s-0.6,0.9-1,1.1s-0.9,0.4-1.5,0.4c-0.9,0-1.6-0.3-2.1-0.9S40.4,9.5,40.4,8.5L40.4,8.5z M41.5,8.6
									c0,0.7,0.2,1.3,0.5,1.7s0.8,0.6,1.3,0.6c0.6,0,1-0.2,1.3-0.6s0.5-1,0.5-1.8c0-0.7-0.2-1.3-0.5-1.7s-0.8-0.6-1.3-0.6
									c-0.5,0-1,0.2-1.3,0.6S41.5,7.8,41.5,8.6z"/>
								<path class="st7" d="M49.5,7.7l1.4-2.3h1.3l-2.1,3.1l2.1,3.2H51l-1.5-2.4l-1.5,2.4h-1.3L49,8.5l-2.1-3.1h1.3L49.5,7.7z"/>
							</g>
						</g>
					</g>
				</g>
			</g>
		</g>
	</g>
</g>
</svg>
