<?xml version="1.0" encoding="utf-8"?>
<!-- Generator: Adobe Illustrator 21.0.2, SVG Export Plug-In . SVG Version: 6.00 Build 0)  -->
<svg version="1.1" id="Layer_1" xmlns="http://www.w3.org/2000/svg" xmlns:xlink="http://www.w3.org/1999/xlink" x="0px" y="0px"
	 width="641px" height="336px" viewBox="0 0 641 336" style="enable-background:new 0 0 641 336;" xml:space="preserve">
<style type="text/css">
	.st0{filter:url(#filter-2);}
	.st1{fill:#FFFFFF;}
	.st2{enable-background:new    ;}
	.st3{fill:#333333;}
	.st4{fill:#FFFFFF;stroke:#BDBDBD;}
	.st5{fill:#6B6B6B;}
	.st6{fill:#424242;}
	.st7{fill:#9E9E9E;}
	.st8{fill:#90D5B2;}
	.st9{fill:#9CC2EB;}
	.st10{fill:#F9CD94;}
	.st11{fill:none;stroke:#EC407A;}
	.st12{fill:none;stroke:#F0367A;stroke-linecap:square;}
	.st13{fill:#EC407A;}
</style>
<filter  filterUnits="objectBoundingBox" height="104.3%" id="filter-2" width="102.2%" x="-1.1%" y="-1.5%">
	<feOffset  dx="0" dy="2" in="SourceAlpha" result="shadowOffsetOuter1"></feOffset>
	<feGaussianBlur  in="shadowOffsetOuter1" result="shadowBlurOuter1" stdDeviation="2"></feGaussianBlur>
	<feColorMatrix  in="shadowBlurOuter1" type="matrix" values="0 0 0 0 0   0 0 0 0 0   0 0 0 0 0  0 0 0 0.2 0"></feColorMatrix>
</filter>
<title>Checkbox-Group-Image</title>
<desc>Created with Sketch.</desc>
<g id="_x2A_Document_x2A_">
	<g id="_x32__x29_-Specs-_x26_-States" transform="translate(-355.000000, -716.000000)">
		<g id="Checkbox-Group-Specs" transform="translate(0.000000, 715.000000)">
			<g id="Checkbox-Group-Image" transform="translate(359.000000, 3.000000)">
				<g id="documentation-_x2F_-img-container">
					<g id="img-container-span-8">
						<g class="st0">
							<rect id="path-1_2_" width="633" height="328"/>
						</g>
						<g>
							<rect id="path-1_1_" class="st1" width="633" height="328"/>
						</g>
					</g>
				</g>
				<g id="Checkbox-Group" transform="translate(170.000000, 96.000000)">
					<g class="st2">
						<path class="st3" d="M34.6,34.7c0,1.1-0.2,2.1-0.6,2.9s-0.9,1.5-1.6,1.9s-1.5,0.7-2.4,0.7c-0.9,0-1.7-0.2-2.4-0.7
							c-0.7-0.4-1.2-1.1-1.6-1.9s-0.6-1.8-0.6-2.8V34c0-1.1,0.2-2.1,0.6-2.9c0.4-0.8,0.9-1.5,1.6-1.9s1.5-0.7,2.4-0.7
							c0.9,0,1.7,0.2,2.4,0.7s1.2,1.1,1.6,1.9s0.6,1.8,0.6,2.9V34.7z M33.1,33.9c0-1.3-0.3-2.4-0.8-3.1c-0.5-0.7-1.3-1.1-2.3-1.1
							c-0.9,0-1.7,0.4-2.2,1.1c-0.5,0.7-0.8,1.7-0.8,3v0.8c0,1.3,0.3,2.3,0.8,3.1c0.5,0.7,1.3,1.1,2.3,1.1c1,0,1.7-0.4,2.2-1.1
							s0.8-1.7,0.8-3V33.9z"/>
					</g>
					<g class="st2">
						<path class="st3" d="M43.7,35.9c0,1.3-0.3,2.3-0.9,3.1c-0.6,0.8-1.4,1.2-2.4,1.2c-1,0-1.8-0.3-2.4-1v4.1h-1.4V31.5h1.3
							l0.1,0.9c0.6-0.7,1.4-1.1,2.5-1.1c1,0,1.8,0.4,2.4,1.1c0.6,0.8,0.9,1.8,0.9,3.2V35.9z M42.3,35.7c0-1-0.2-1.7-0.6-2.3
							s-1-0.8-1.7-0.8c-0.9,0-1.5,0.4-2,1.2v4c0.4,0.8,1.1,1.2,2,1.2c0.7,0,1.2-0.3,1.7-0.8C42.1,37.6,42.3,36.8,42.3,35.7z"/>
						<path class="st3" d="M47.5,29.5v2h1.6v1.1h-1.6v5.2c0,0.3,0.1,0.6,0.2,0.8c0.1,0.2,0.4,0.3,0.7,0.3c0.2,0,0.4,0,0.7-0.1V40
							c-0.4,0.1-0.8,0.2-1.1,0.2c-0.6,0-1.1-0.2-1.5-0.6s-0.5-0.9-0.5-1.7v-5.2h-1.5v-1.1h1.5v-2H47.5z"/>
						<path class="st3" d="M50.8,29.3c0-0.2,0.1-0.4,0.2-0.6c0.1-0.2,0.4-0.2,0.6-0.2s0.5,0.1,0.6,0.2c0.1,0.2,0.2,0.4,0.2,0.6
							s-0.1,0.4-0.2,0.6c-0.1,0.2-0.4,0.2-0.6,0.2S51.2,30,51,29.9C50.9,29.7,50.8,29.5,50.8,29.3z M52.4,40h-1.4v-8.5h1.4V40z"/>
						<path class="st3" d="M54.3,35.7c0-0.8,0.2-1.6,0.5-2.2c0.3-0.7,0.8-1.2,1.4-1.5c0.6-0.4,1.2-0.5,2-0.5c1.2,0,2.1,0.4,2.8,1.2
							s1.1,1.9,1.1,3.2v0.1c0,0.8-0.2,1.6-0.5,2.2c-0.3,0.7-0.8,1.2-1.4,1.5s-1.3,0.5-2,0.5c-1.1,0-2.1-0.4-2.8-1.2
							s-1.1-1.9-1.1-3.2V35.7z M55.7,35.9c0,0.9,0.2,1.7,0.7,2.3c0.4,0.6,1,0.9,1.7,0.9c0.7,0,1.3-0.3,1.8-0.9
							c0.4-0.6,0.6-1.4,0.6-2.4c0-0.9-0.2-1.7-0.7-2.3c-0.4-0.6-1-0.9-1.8-0.9c-0.7,0-1.3,0.3-1.7,0.9S55.7,34.8,55.7,35.9z"/>
						<path class="st3" d="M65.2,31.5l0,1.1c0.6-0.8,1.5-1.2,2.5-1.2c1.8,0,2.7,1,2.7,3V40H69v-5.6c0-0.6-0.1-1.1-0.4-1.4
							s-0.7-0.4-1.3-0.4c-0.5,0-0.9,0.1-1.2,0.4c-0.4,0.2-0.6,0.6-0.8,1v6h-1.4v-8.5H65.2z"/>
					</g>
					<g class="st2">
						<path class="st3" d="M81.2,40h-1.5v-9.6l-2.9,1.1v-1.3l4.1-1.6h0.2V40z"/>
					</g>
					<g class="st2">
						<path class="st3" d="M34.6,66.7c0,1.1-0.2,2.1-0.6,2.9s-0.9,1.5-1.6,1.9s-1.5,0.7-2.4,0.7c-0.9,0-1.7-0.2-2.4-0.7
							c-0.7-0.4-1.2-1.1-1.6-1.9s-0.6-1.8-0.6-2.8V66c0-1.1,0.2-2.1,0.6-2.9c0.4-0.8,0.9-1.5,1.6-1.9s1.5-0.7,2.4-0.7
							c0.9,0,1.7,0.2,2.4,0.7s1.2,1.1,1.6,1.9s0.6,1.8,0.6,2.9V66.7z M33.1,65.9c0-1.3-0.3-2.4-0.8-3.1c-0.5-0.7-1.3-1.1-2.3-1.1
							c-0.9,0-1.7,0.4-2.2,1.1c-0.5,0.7-0.8,1.7-0.8,3v0.8c0,1.3,0.3,2.3,0.8,3.1c0.5,0.7,1.3,1.1,2.3,1.1c1,0,1.7-0.4,2.2-1.1
							s0.8-1.7,0.8-3V65.9z"/>
					</g>
					<g class="st2">
						<path class="st3" d="M43.7,67.9c0,1.3-0.3,2.3-0.9,3.1c-0.6,0.8-1.4,1.2-2.4,1.2c-1,0-1.8-0.3-2.4-1v4.1h-1.4V63.5h1.3
							l0.1,0.9c0.6-0.7,1.4-1.1,2.5-1.1c1,0,1.8,0.4,2.4,1.1c0.6,0.8,0.9,1.8,0.9,3.2V67.9z M42.3,67.7c0-1-0.2-1.7-0.6-2.3
							s-1-0.8-1.7-0.8c-0.9,0-1.5,0.4-2,1.2v4c0.4,0.8,1.1,1.2,2,1.2c0.7,0,1.2-0.3,1.7-0.8C42.1,69.6,42.3,68.8,42.3,67.7z"/>
						<path class="st3" d="M47.5,61.5v2h1.6v1.1h-1.6v5.2c0,0.3,0.1,0.6,0.2,0.8c0.1,0.2,0.4,0.3,0.7,0.3c0.2,0,0.4,0,0.7-0.1V72
							c-0.4,0.1-0.8,0.2-1.1,0.2c-0.6,0-1.1-0.2-1.5-0.6s-0.5-0.9-0.5-1.7v-5.2h-1.5v-1.1h1.5v-2H47.5z"/>
						<path class="st3" d="M50.8,61.3c0-0.2,0.1-0.4,0.2-0.6c0.1-0.2,0.4-0.2,0.6-0.2s0.5,0.1,0.6,0.2c0.1,0.2,0.2,0.4,0.2,0.6
							s-0.1,0.4-0.2,0.6c-0.1,0.2-0.4,0.2-0.6,0.2S51.2,62,51,61.9C50.9,61.7,50.8,61.5,50.8,61.3z M52.4,72h-1.4v-8.5h1.4V72z"/>
						<path class="st3" d="M54.3,67.7c0-0.8,0.2-1.6,0.5-2.2c0.3-0.7,0.8-1.2,1.4-1.5c0.6-0.4,1.2-0.5,2-0.5c1.2,0,2.1,0.4,2.8,1.2
							s1.1,1.9,1.1,3.2v0.1c0,0.8-0.2,1.6-0.5,2.2c-0.3,0.7-0.8,1.2-1.4,1.5s-1.3,0.5-2,0.5c-1.1,0-2.1-0.4-2.8-1.2
							s-1.1-1.9-1.1-3.2V67.7z M55.7,67.9c0,0.9,0.2,1.7,0.7,2.3c0.4,0.6,1,0.9,1.7,0.9c0.7,0,1.3-0.3,1.8-0.9
							c0.4-0.6,0.6-1.4,0.6-2.4c0-0.9-0.2-1.7-0.7-2.3c-0.4-0.6-1-0.9-1.8-0.9c-0.7,0-1.3,0.3-1.7,0.9S55.7,66.8,55.7,67.9z"/>
						<path class="st3" d="M65.2,63.5l0,1.1c0.6-0.8,1.5-1.2,2.5-1.2c1.8,0,2.7,1,2.7,3V72H69v-5.6c0-0.6-0.1-1.1-0.4-1.4
							s-0.7-0.4-1.3-0.4c-0.5,0-0.9,0.1-1.2,0.4c-0.4,0.2-0.6,0.6-0.8,1v6h-1.4v-8.5H65.2z"/>
					</g>
					<g class="st2">
						<path class="st3" d="M81.2,72h-1.5v-9.6l-2.9,1.1v-1.3l4.1-1.6h0.2V72z"/>
					</g>
					<g class="st2">
						<path class="st3" d="M34.6,86.7c0,1.1-0.2,2.1-0.6,2.9s-0.9,1.5-1.6,1.9s-1.5,0.7-2.4,0.7c-0.9,0-1.7-0.2-2.4-0.7
							c-0.7-0.4-1.2-1.1-1.6-1.9s-0.6-1.8-0.6-2.8V86c0-1.1,0.2-2.1,0.6-2.9c0.4-0.8,0.9-1.5,1.6-1.9s1.5-0.7,2.4-0.7
							c0.9,0,1.7,0.2,2.4,0.7s1.2,1.1,1.6,1.9s0.6,1.8,0.6,2.9V86.7z M33.1,85.9c0-1.3-0.3-2.4-0.8-3.1c-0.5-0.7-1.3-1.1-2.3-1.1
							c-0.9,0-1.7,0.4-2.2,1.1c-0.5,0.7-0.8,1.7-0.8,3v0.8c0,1.3,0.3,2.3,0.8,3.1c0.5,0.7,1.3,1.1,2.3,1.1c1,0,1.7-0.4,2.2-1.1
							s0.8-1.7,0.8-3V85.9z"/>
					</g>
					<g class="st2">
						<path class="st3" d="M43.7,87.9c0,1.3-0.3,2.3-0.9,3.1c-0.6,0.8-1.4,1.2-2.4,1.2c-1,0-1.8-0.3-2.4-1v4.1h-1.4V83.5h1.3
							l0.1,0.9c0.6-0.7,1.4-1.1,2.5-1.1c1,0,1.8,0.4,2.4,1.1c0.6,0.8,0.9,1.8,0.9,3.2V87.9z M42.3,87.7c0-1-0.2-1.7-0.6-2.3
							s-1-0.8-1.7-0.8c-0.9,0-1.5,0.4-2,1.2v4c0.4,0.8,1.1,1.2,2,1.2c0.7,0,1.2-0.3,1.7-0.8C42.1,89.6,42.3,88.8,42.3,87.7z"/>
						<path class="st3" d="M47.5,81.5v2h1.6v1.1h-1.6v5.2c0,0.3,0.1,0.6,0.2,0.8c0.1,0.2,0.4,0.3,0.7,0.3c0.2,0,0.4,0,0.7-0.1V92
							c-0.4,0.1-0.8,0.2-1.1,0.2c-0.6,0-1.1-0.2-1.5-0.6s-0.5-0.9-0.5-1.7v-5.2h-1.5v-1.1h1.5v-2H47.5z"/>
						<path class="st3" d="M50.8,81.3c0-0.2,0.1-0.4,0.2-0.6c0.1-0.2,0.4-0.2,0.6-0.2s0.5,0.1,0.6,0.2c0.1,0.2,0.2,0.4,0.2,0.6
							s-0.1,0.4-0.2,0.6c-0.1,0.2-0.4,0.2-0.6,0.2S51.2,82,51,81.9C50.9,81.7,50.8,81.5,50.8,81.3z M52.4,92h-1.4v-8.5h1.4V92z"/>
						<path class="st3" d="M54.3,87.7c0-0.8,0.2-1.6,0.5-2.2c0.3-0.7,0.8-1.2,1.4-1.5c0.6-0.4,1.2-0.5,2-0.5c1.2,0,2.1,0.4,2.8,1.2
							s1.1,1.9,1.1,3.2v0.1c0,0.8-0.2,1.6-0.5,2.2c-0.3,0.7-0.8,1.2-1.4,1.5s-1.3,0.5-2,0.5c-1.1,0-2.1-0.4-2.8-1.2
							s-1.1-1.9-1.1-3.2V87.7z M55.7,87.9c0,0.9,0.2,1.7,0.7,2.3c0.4,0.6,1,0.9,1.7,0.9c0.7,0,1.3-0.3,1.8-0.9
							c0.4-0.6,0.6-1.4,0.6-2.4c0-0.9-0.2-1.7-0.7-2.3c-0.4-0.6-1-0.9-1.8-0.9c-0.7,0-1.3,0.3-1.7,0.9S55.7,86.8,55.7,87.9z"/>
						<path class="st3" d="M65.2,83.5l0,1.1c0.6-0.8,1.5-1.2,2.5-1.2c1.8,0,2.7,1,2.7,3V92H69v-5.6c0-0.6-0.1-1.1-0.4-1.4
							s-0.7-0.4-1.3-0.4c-0.5,0-0.9,0.1-1.2,0.4c-0.4,0.2-0.6,0.6-0.8,1v6h-1.4v-8.5H65.2z"/>
					</g>
					<g class="st2">
						<path class="st3" d="M81.2,92h-1.5v-9.6l-2.9,1.1v-1.3l4.1-1.6h0.2V92z"/>
					</g>
					<path id="Fill-60" class="st4" d="M3,92.5c-0.8,0-1.5-0.7-1.5-1.5V79c0-0.8,0.7-1.5,1.5-1.5h12c0.8,0,1.5,0.7,1.5,1.5v12
						c0,0.8-0.7,1.5-1.5,1.5H3z"/>
					<path id="Fill-60-Copy-5" class="st4" d="M3,72.5c-0.8,0-1.5-0.7-1.5-1.5V59c0-0.8,0.7-1.5,1.5-1.5h12c0.8,0,1.5,0.7,1.5,1.5
						v12c0,0.8-0.7,1.5-1.5,1.5H3z"/>
					<path id="Fill-60-Copy-6" class="st4" d="M3,40.5c-0.8,0-1.5-0.7-1.5-1.5V27c0-0.8,0.7-1.5,1.5-1.5h12c0.8,0,1.5,0.7,1.5,1.5
						v12c0,0.8-0.7,1.5-1.5,1.5H3z"/>
					<g class="st2">
						<path class="st5" d="M33.1,49c0,0.8-0.1,1.6-0.4,2.2s-0.7,1.1-1.2,1.4s-1.1,0.5-1.8,0.5c-0.7,0-1.3-0.2-1.8-0.5
							s-0.9-0.8-1.2-1.4s-0.4-1.3-0.4-2.1v-0.6c0-0.8,0.1-1.5,0.4-2.2s0.7-1.1,1.2-1.4s1.1-0.5,1.8-0.5c0.7,0,1.3,0.2,1.8,0.5
							s0.9,0.8,1.2,1.4s0.4,1.4,0.4,2.2V49z M31.9,48.5c0-1-0.2-1.8-0.6-2.3s-1-0.8-1.7-0.8c-0.7,0-1.3,0.3-1.7,0.8
							s-0.6,1.3-0.6,2.3V49c0,1,0.2,1.8,0.6,2.3s1,0.8,1.7,0.8c0.7,0,1.3-0.3,1.7-0.8s0.6-1.3,0.6-2.3V48.5z"/>
					</g>
					<g class="st2">
						<path class="st5" d="M39.9,49.9c0,1-0.2,1.7-0.7,2.3s-1,0.9-1.8,0.9c-0.8,0-1.4-0.2-1.8-0.7v3.1h-1.1v-8.8h1l0.1,0.7
							c0.4-0.5,1.1-0.8,1.8-0.8c0.8,0,1.4,0.3,1.8,0.9S39.9,48.8,39.9,49.9L39.9,49.9z M38.8,49.8c0-0.7-0.2-1.3-0.5-1.7
							s-0.7-0.6-1.3-0.6c-0.7,0-1.1,0.3-1.5,0.9v3c0.3,0.6,0.8,0.9,1.5,0.9c0.5,0,0.9-0.2,1.2-0.6S38.8,50.6,38.8,49.8z"/>
						<path class="st5" d="M42.8,45.1v1.5H44v0.8h-1.2v3.9c0,0.3,0.1,0.4,0.2,0.6s0.3,0.2,0.5,0.2c0.1,0,0.3,0,0.5-0.1V53
							c-0.3,0.1-0.6,0.1-0.8,0.1c-0.5,0-0.8-0.1-1.1-0.4s-0.4-0.7-0.4-1.2v-3.9h-1.2v-0.8h1.2v-1.5H42.8z"/>
						<path class="st5" d="M45.2,45c0-0.2,0.1-0.3,0.2-0.4s0.3-0.2,0.5-0.2s0.4,0.1,0.5,0.2s0.2,0.3,0.2,0.4s-0.1,0.3-0.2,0.4
							s-0.3,0.2-0.5,0.2s-0.4-0.1-0.5-0.2S45.2,45.2,45.2,45z M46.4,53h-1.1v-6.3h1.1V53z"/>
						<path class="st5" d="M47.8,49.8c0-0.6,0.1-1.2,0.4-1.7s0.6-0.9,1-1.1s0.9-0.4,1.5-0.4c0.9,0,1.6,0.3,2.1,0.9s0.8,1.4,0.8,2.4
							v0.1c0,0.6-0.1,1.2-0.4,1.7s-0.6,0.9-1,1.1s-0.9,0.4-1.5,0.4c-0.9,0-1.6-0.3-2.1-0.9S47.8,50.8,47.8,49.8L47.8,49.8z
							 M48.9,49.9c0,0.7,0.2,1.3,0.5,1.7s0.8,0.6,1.3,0.6c0.6,0,1-0.2,1.3-0.6s0.5-1,0.5-1.8c0-0.7-0.2-1.3-0.5-1.7
							s-0.8-0.6-1.3-0.6c-0.5,0-1,0.2-1.3,0.6S48.9,49.1,48.9,49.9z"/>
						<path class="st5" d="M56,46.7l0,0.8c0.5-0.6,1.1-0.9,1.9-0.9c1.3,0,2,0.8,2,2.3V53h-1.1v-4.2c0-0.5-0.1-0.8-0.3-1
							s-0.5-0.3-1-0.3c-0.4,0-0.7,0.1-0.9,0.3s-0.5,0.4-0.6,0.7V53H55v-6.3H56z"/>
					</g>
					<g class="st2">
						<path class="st5" d="M68.1,53H67v-7.2l-2.2,0.8v-1l3.1-1.2h0.2V53z"/>
					</g>
					<g class="st2">
						<path class="st5" d="M78,51.3c0-0.3-0.1-0.5-0.3-0.7s-0.6-0.3-1.2-0.4s-1-0.3-1.3-0.4s-0.6-0.4-0.7-0.6s-0.2-0.5-0.2-0.8
							c0-0.5,0.2-1,0.7-1.3s1-0.5,1.7-0.5c0.7,0,1.3,0.2,1.7,0.6s0.7,0.8,0.7,1.4h-1.1c0-0.3-0.1-0.6-0.4-0.8s-0.6-0.3-1-0.3
							c-0.4,0-0.7,0.1-0.9,0.3s-0.3,0.4-0.3,0.7c0,0.3,0.1,0.5,0.3,0.6s0.6,0.3,1.1,0.4s1,0.3,1.3,0.4s0.6,0.4,0.7,0.6
							s0.2,0.5,0.2,0.9c0,0.6-0.2,1-0.7,1.4s-1,0.5-1.8,0.5c-0.5,0-1-0.1-1.3-0.3s-0.7-0.4-0.9-0.8S74,51.4,74,51h1.1
							c0,0.4,0.2,0.7,0.4,0.9s0.6,0.3,1.1,0.3c0.4,0,0.7-0.1,1-0.2S78,51.6,78,51.3z"/>
					</g>
					<g class="st2">
						<path class="st5" d="M84.4,52.4c-0.4,0.5-1,0.7-1.9,0.7c-0.7,0-1.2-0.2-1.5-0.6s-0.5-1-0.5-1.7v-4.1h1.1v4.1
							c0,1,0.4,1.4,1.2,1.4c0.8,0,1.4-0.3,1.7-0.9v-4.6h1.1V53h-1L84.4,52.4z"/>
						<path class="st5" d="M92.5,49.9c0,1-0.2,1.7-0.7,2.3s-1,0.9-1.8,0.9c-0.8,0-1.4-0.2-1.8-0.7v3.1h-1.1v-8.8h1l0.1,0.7
							c0.4-0.5,1.1-0.8,1.8-0.8c0.8,0,1.4,0.3,1.8,0.9S92.5,48.8,92.5,49.9L92.5,49.9z M91.4,49.8c0-0.7-0.2-1.3-0.5-1.7
							s-0.7-0.6-1.3-0.6c-0.7,0-1.1,0.3-1.5,0.9v3c0.3,0.6,0.8,0.9,1.5,0.9c0.5,0,0.9-0.2,1.2-0.6S91.4,50.6,91.4,49.8z"/>
						<path class="st5" d="M99.2,49.9c0,1-0.2,1.7-0.7,2.3s-1,0.9-1.8,0.9c-0.8,0-1.4-0.2-1.8-0.7v3.1h-1.1v-8.8h1l0.1,0.7
							c0.4-0.5,1.1-0.8,1.8-0.8c0.8,0,1.4,0.3,1.8,0.9S99.2,48.8,99.2,49.9L99.2,49.9z M98.1,49.8c0-0.7-0.2-1.3-0.5-1.7
							s-0.7-0.6-1.3-0.6c-0.7,0-1.1,0.3-1.5,0.9v3c0.3,0.6,0.8,0.9,1.5,0.9c0.5,0,0.9-0.2,1.2-0.6S98.1,50.6,98.1,49.8z"/>
						<path class="st5" d="M100.3,49.8c0-0.6,0.1-1.2,0.4-1.7s0.6-0.9,1-1.1s0.9-0.4,1.5-0.4c0.9,0,1.6,0.3,2.1,0.9s0.8,1.4,0.8,2.4
							v0.1c0,0.6-0.1,1.2-0.4,1.7s-0.6,0.9-1,1.1s-0.9,0.4-1.5,0.4c-0.9,0-1.6-0.3-2.1-0.9S100.3,50.8,100.3,49.8L100.3,49.8z
							 M101.4,49.9c0,0.7,0.2,1.3,0.5,1.7s0.8,0.6,1.3,0.6c0.6,0,1-0.2,1.3-0.6s0.5-1,0.5-1.8c0-0.7-0.2-1.3-0.5-1.7
							s-0.8-0.6-1.3-0.6c-0.5,0-1,0.2-1.3,0.6S101.4,49.1,101.4,49.9z"/>
					</g>
					<g class="st2">
						<path class="st5" d="M110.5,47.6c-0.2,0-0.3,0-0.5,0c-0.7,0-1.2,0.3-1.4,0.9V53h-1.1v-6.3h1.1l0,0.7c0.4-0.6,0.9-0.8,1.5-0.8
							c0.2,0,0.4,0,0.5,0.1V47.6z"/>
					</g>
					<g class="st2">
						<path class="st5" d="M113.6,45.1v1.5h1.2v0.8h-1.2v3.9c0,0.3,0.1,0.4,0.2,0.6s0.3,0.2,0.5,0.2c0.1,0,0.3,0,0.5-0.1V53
							c-0.3,0.1-0.6,0.1-0.8,0.1c-0.5,0-0.8-0.1-1.1-0.4s-0.4-0.7-0.4-1.2v-3.9h-1.2v-0.8h1.2v-1.5H113.6z"/>
						<path class="st5" d="M120.5,45.1v1.5h1.2v0.8h-1.2v3.9c0,0.3,0.1,0.4,0.2,0.6s0.3,0.2,0.5,0.2c0.1,0,0.3,0,0.5-0.1V53
							c-0.3,0.1-0.6,0.1-0.8,0.1c-0.5,0-0.8-0.1-1.1-0.4s-0.4-0.7-0.4-1.2v-3.9h-1.2v-0.8h1.2v-1.5H120.5z"/>
						<path class="st5" d="M125.5,53.1c-0.9,0-1.6-0.3-2.1-0.8s-0.8-1.3-0.8-2.3v-0.2c0-0.6,0.1-1.2,0.4-1.7s0.6-0.9,1-1.2
							s0.9-0.4,1.4-0.4c0.8,0,1.5,0.3,1.9,0.8s0.7,1.3,0.7,2.3v0.5h-4.3c0,0.6,0.2,1.1,0.5,1.5s0.8,0.6,1.3,0.6c0.4,0,0.7-0.1,1-0.2
							s0.5-0.4,0.7-0.6l0.7,0.5C127.4,52.7,126.6,53.1,125.5,53.1z M125.4,47.4c-0.4,0-0.8,0.2-1.1,0.5s-0.5,0.8-0.6,1.3h3.2v-0.1
							c0-0.6-0.2-1-0.4-1.3S125.9,47.4,125.4,47.4z"/>
						<path class="st5" d="M131.4,49l1.4-2.3h1.3l-2.1,3.1l2.1,3.2h-1.3l-1.5-2.4l-1.5,2.4h-1.3l2.1-3.2l-2.1-3.1h1.3L131.4,49z"/>
						<path class="st5" d="M136.7,45.1v1.5h1.2v0.8h-1.2v3.9c0,0.3,0.1,0.4,0.2,0.6s0.3,0.2,0.5,0.2c0.1,0,0.3,0,0.5-0.1V53
							c-0.3,0.1-0.6,0.1-0.8,0.1c-0.5,0-0.8-0.1-1.1-0.4s-0.4-0.7-0.4-1.2v-3.9h-1.2v-0.8h1.2v-1.5H136.7z"/>
					</g>
					<g class="st2">
						<path class="st6" d="M7.1,14.1c0-0.5-0.2-0.9-0.5-1.2s-1-0.5-1.9-0.8c-0.9-0.3-1.6-0.6-2.2-0.9c-1-0.7-1.6-1.5-1.6-2.5
							c0-0.9,0.4-1.7,1.1-2.3C2.8,5.8,3.8,5.5,5,5.5c0.8,0,1.5,0.1,2.1,0.4c0.6,0.3,1.1,0.7,1.5,1.2c0.4,0.5,0.5,1.1,0.5,1.8h-2
							c0-0.6-0.2-1.1-0.6-1.4C6.2,7.2,5.6,7,4.9,7C4.3,7,3.8,7.2,3.4,7.5C3.1,7.7,2.9,8.1,2.9,8.6c0,0.4,0.2,0.8,0.6,1
							c0.4,0.3,1,0.5,1.9,0.8C6.3,10.7,7,11,7.5,11.4c0.5,0.3,0.9,0.7,1.2,1.2s0.4,0.9,0.4,1.5c0,0.9-0.4,1.7-1.1,2.3
							s-1.7,0.8-3,0.8c-0.8,0-1.6-0.2-2.3-0.5c-0.7-0.3-1.2-0.7-1.6-1.3s-0.6-1.2-0.6-1.9h2c0,0.6,0.2,1.1,0.6,1.5
							c0.4,0.4,1,0.5,1.8,0.5c0.7,0,1.2-0.1,1.6-0.4C6.9,14.9,7.1,14.5,7.1,14.1z"/>
						<path class="st6" d="M14.4,17.2c-1.2,0-2.2-0.4-2.9-1.1c-0.7-0.8-1.1-1.8-1.1-3v-0.2c0-0.8,0.2-1.6,0.5-2.3
							c0.3-0.7,0.8-1.2,1.4-1.6c0.6-0.4,1.2-0.6,2-0.6c1.2,0,2,0.4,2.7,1.1c0.6,0.7,0.9,1.8,0.9,3.1v0.8h-5.5
							c0.1,0.7,0.3,1.2,0.7,1.7c0.4,0.4,0.9,0.6,1.5,0.6c0.9,0,1.6-0.4,2.1-1.1l1,1c-0.3,0.5-0.8,0.9-1.4,1.2
							C15.8,17,15.2,17.2,14.4,17.2z M14.2,9.9c-0.5,0-0.9,0.2-1.3,0.5s-0.5,0.9-0.6,1.5H16v-0.1c0-0.6-0.2-1.1-0.5-1.4
							S14.7,9.9,14.2,9.9z"/>
						<path class="st6" d="M21.4,17h-1.9V5h1.9V17z"/>
						<path class="st6" d="M27.3,17.2c-1.2,0-2.2-0.4-2.9-1.1c-0.7-0.8-1.1-1.8-1.1-3v-0.2c0-0.8,0.2-1.6,0.5-2.3
							c0.3-0.7,0.8-1.2,1.4-1.6c0.6-0.4,1.2-0.6,2-0.6c1.2,0,2,0.4,2.7,1.1c0.6,0.7,0.9,1.8,0.9,3.1v0.8h-5.5
							c0.1,0.7,0.3,1.2,0.7,1.7c0.4,0.4,0.9,0.6,1.5,0.6c0.9,0,1.6-0.4,2.1-1.1l1,1c-0.3,0.5-0.8,0.9-1.4,1.2
							C28.6,17,28,17.2,27.3,17.2z M27.1,9.9c-0.5,0-0.9,0.2-1.3,0.5s-0.5,0.9-0.6,1.5h3.6v-0.1c0-0.6-0.2-1.1-0.5-1.4
							S27.6,9.9,27.1,9.9z"/>
						<path class="st6" d="M35.7,15.6c0.5,0,0.9-0.1,1.2-0.4s0.5-0.6,0.5-1h1.8c0,0.5-0.2,1-0.5,1.5c-0.3,0.5-0.7,0.8-1.2,1.1
							c-0.5,0.3-1.1,0.4-1.7,0.4c-1.2,0-2.1-0.4-2.8-1.1c-0.7-0.8-1-1.8-1-3.2v-0.2c0-1.3,0.3-2.3,1-3.1s1.6-1.2,2.8-1.2
							c1,0,1.8,0.3,2.5,0.9s1,1.4,1,2.3h-1.8c0-0.5-0.2-0.9-0.5-1.2c-0.3-0.3-0.7-0.5-1.2-0.5c-0.6,0-1.1,0.2-1.4,0.7
							c-0.3,0.4-0.5,1.1-0.5,2v0.3c0,0.9,0.2,1.6,0.5,2.1C34.6,15.4,35.1,15.6,35.7,15.6z"/>
						<path class="st6" d="M43.1,6.5v2.1h1.5V10h-1.5v4.7c0,0.3,0.1,0.6,0.2,0.7c0.1,0.1,0.4,0.2,0.7,0.2c0.2,0,0.4,0,0.7-0.1V17
							c-0.4,0.1-0.8,0.2-1.2,0.2c-1.5,0-2.2-0.8-2.2-2.4V10h-1.4V8.5h1.4V6.5H43.1z"/>
						<path class="st6" d="M45.6,12.7c0-0.8,0.2-1.6,0.5-2.2s0.8-1.2,1.4-1.5s1.3-0.5,2-0.5c1.1,0,2.1,0.4,2.8,1.1s1.1,1.7,1.2,2.9
							l0,0.4c0,0.8-0.2,1.6-0.5,2.2s-0.8,1.2-1.4,1.5c-0.6,0.4-1.3,0.5-2.1,0.5c-1.2,0-2.1-0.4-2.9-1.2
							C45.9,15.2,45.6,14.1,45.6,12.7L45.6,12.7z M47.5,12.9c0,0.9,0.2,1.6,0.5,2s0.9,0.7,1.5,0.7s1.1-0.2,1.5-0.8
							c0.4-0.5,0.5-1.2,0.5-2.2c0-0.9-0.2-1.5-0.6-2s-0.9-0.8-1.5-0.8c-0.6,0-1.1,0.2-1.5,0.7C47.6,11.1,47.5,11.9,47.5,12.9z"/>
						<path class="st6" d="M59.6,10.3c-0.2,0-0.5-0.1-0.8-0.1c-0.9,0-1.5,0.3-1.8,1V17h-1.9V8.5h1.8l0,0.9c0.5-0.7,1.1-1.1,1.9-1.1
							c0.3,0,0.5,0,0.7,0.1L59.6,10.3z"/>
						<path class="st6" d="M72.9,7.2h-3.5V17h-2V7.2h-3.5V5.6h9V7.2z"/>
						<path class="st6" d="M74.3,6.4c0-0.3,0.1-0.5,0.3-0.7c0.2-0.2,0.4-0.3,0.8-0.3s0.6,0.1,0.8,0.3s0.3,0.4,0.3,0.7
							c0,0.3-0.1,0.5-0.3,0.7s-0.5,0.3-0.8,0.3s-0.6-0.1-0.8-0.3C74.4,6.9,74.3,6.6,74.3,6.4z M76.3,17h-1.9V8.5h1.9V17z"/>
						<path class="st6" d="M80.8,6.5v2.1h1.5V10h-1.5v4.7c0,0.3,0.1,0.6,0.2,0.7c0.1,0.1,0.4,0.2,0.7,0.2c0.2,0,0.4,0,0.7-0.1V17
							c-0.4,0.1-0.8,0.2-1.2,0.2c-1.5,0-2.2-0.8-2.2-2.4V10h-1.4V8.5h1.4V6.5H80.8z"/>
						<path class="st6" d="M85.9,17H84V5h1.9V17z"/>
						<path class="st6" d="M91.8,17.2c-1.2,0-2.2-0.4-2.9-1.1c-0.7-0.8-1.1-1.8-1.1-3v-0.2c0-0.8,0.2-1.6,0.5-2.3
							c0.3-0.7,0.8-1.2,1.4-1.6c0.6-0.4,1.2-0.6,2-0.6c1.2,0,2,0.4,2.7,1.1c0.6,0.7,0.9,1.8,0.9,3.1v0.8h-5.5
							c0.1,0.7,0.3,1.2,0.7,1.7c0.4,0.4,0.9,0.6,1.5,0.6c0.9,0,1.6-0.4,2.1-1.1l1,1c-0.3,0.5-0.8,0.9-1.4,1.2
							C93.1,17,92.5,17.2,91.8,17.2z M91.5,9.9c-0.5,0-0.9,0.2-1.3,0.5s-0.5,0.9-0.6,1.5h3.6v-0.1c0-0.6-0.2-1.1-0.5-1.4
							S92.1,9.9,91.5,9.9z"/>
					</g>
				</g>
				<g id="Annotation" transform="translate(167.000000, 81.000000)">
					<g class="st2">
						<path class="st7" d="M8.3,151.5l2.4-7H12L8.8,153h-1l-3.2-8.5h1.2L8.3,151.5z"/>
					</g>
					<g class="st2">
						<path class="st7" d="M15.3,153.1c-0.9,0-1.6-0.3-2.1-0.8s-0.8-1.3-0.8-2.3v-0.2c0-0.6,0.1-1.2,0.4-1.7s0.6-0.9,1-1.2
							s0.9-0.4,1.4-0.4c0.8,0,1.5,0.3,1.9,0.8s0.7,1.3,0.7,2.3v0.5h-4.3c0,0.6,0.2,1.1,0.5,1.5s0.8,0.6,1.3,0.6c0.4,0,0.7-0.1,1-0.2
							s0.5-0.4,0.7-0.6l0.7,0.5C17.2,152.7,16.4,153.1,15.3,153.1z M15.2,147.4c-0.4,0-0.8,0.2-1.1,0.5s-0.5,0.8-0.6,1.3h3.2v-0.1
							c0-0.6-0.2-1-0.4-1.3S15.6,147.4,15.2,147.4z"/>
					</g>
					<g class="st2">
						<path class="st7" d="M22.1,147.6c-0.2,0-0.3,0-0.5,0c-0.7,0-1.2,0.3-1.4,0.9v4.5h-1.1v-6.3h1.1l0,0.7c0.4-0.6,0.9-0.8,1.5-0.8
							c0.2,0,0.4,0,0.5,0.1V147.6z"/>
					</g>
					<g class="st2">
						<path class="st7" d="M25.2,145.1v1.5h1.2v0.8h-1.2v3.9c0,0.3,0.1,0.4,0.2,0.6s0.3,0.2,0.5,0.2c0.1,0,0.3,0,0.5-0.1v0.9
							c-0.3,0.1-0.6,0.1-0.8,0.1c-0.5,0-0.8-0.1-1.1-0.4s-0.4-0.7-0.4-1.2v-3.9h-1.2v-0.8h1.2v-1.5H25.2z"/>
						<path class="st7" d="M27.4,145c0-0.2,0.1-0.3,0.2-0.4s0.3-0.2,0.5-0.2s0.4,0.1,0.5,0.2s0.2,0.3,0.2,0.4s-0.1,0.3-0.2,0.4
							s-0.3,0.2-0.5,0.2s-0.4-0.1-0.5-0.2S27.4,145.2,27.4,145z M28.6,153h-1.1v-6.3h1.1V153z"/>
						<path class="st7" d="M32.6,152.2c0.4,0,0.7-0.1,1-0.4s0.4-0.5,0.5-0.9h1c0,0.4-0.1,0.7-0.4,1s-0.5,0.6-0.9,0.8
							s-0.8,0.3-1.2,0.3c-0.9,0-1.5-0.3-2.1-0.9s-0.8-1.4-0.8-2.4v-0.2c0-0.6,0.1-1.2,0.3-1.6s0.6-0.9,1-1.1s0.9-0.4,1.5-0.4
							c0.7,0,1.3,0.2,1.8,0.6s0.7,1,0.8,1.7h-1c0-0.4-0.2-0.7-0.5-1s-0.6-0.4-1-0.4c-0.6,0-1,0.2-1.3,0.6s-0.5,1-0.5,1.7v0.2
							c0,0.7,0.2,1.3,0.5,1.7S32,152.2,32.6,152.2z"/>
						<path class="st7" d="M40,153c-0.1-0.1-0.1-0.3-0.2-0.7c-0.5,0.5-1.1,0.8-1.8,0.8c-0.6,0-1.1-0.2-1.5-0.5s-0.6-0.8-0.6-1.3
							c0-0.7,0.3-1.2,0.8-1.5s1.2-0.5,2.1-0.5h1.1v-0.5c0-0.4-0.1-0.7-0.3-0.9s-0.6-0.3-1-0.3c-0.4,0-0.7,0.1-1,0.3
							s-0.4,0.4-0.4,0.7H36c0-0.3,0.1-0.6,0.3-0.9s0.5-0.5,0.9-0.7s0.8-0.3,1.3-0.3c0.7,0,1.3,0.2,1.7,0.5s0.6,0.9,0.6,1.5v2.9
							c0,0.6,0.1,1,0.2,1.4v0.1H40z M38.2,152.2c0.3,0,0.7-0.1,1-0.3s0.5-0.4,0.7-0.7v-1.3H39c-1.3,0-2,0.4-2,1.2
							c0,0.3,0.1,0.6,0.3,0.8S37.8,152.2,38.2,152.2z"/>
						<path class="st7" d="M43.5,153h-1.1v-9h1.1V153z"/>
						<path class="st7" d="M50.4,149.2c-1-0.3-1.7-0.6-2.1-1s-0.7-0.9-0.7-1.5c0-0.7,0.3-1.2,0.8-1.7s1.2-0.7,2.1-0.7
							c0.6,0,1.1,0.1,1.6,0.3s0.8,0.5,1.1,0.9s0.4,0.8,0.4,1.3h-1.1c0-0.5-0.2-0.9-0.5-1.2s-0.8-0.4-1.4-0.4c-0.6,0-1,0.1-1.3,0.4
							c-0.3,0.2-0.5,0.6-0.5,1c0,0.3,0.1,0.6,0.4,0.9c0.3,0.2,0.8,0.5,1.5,0.7c0.7,0.2,1.3,0.4,1.7,0.7s0.7,0.5,0.9,0.8
							s0.3,0.7,0.3,1.1c0,0.7-0.3,1.2-0.8,1.7s-1.3,0.6-2.2,0.6c-0.6,0-1.1-0.1-1.6-0.3s-0.9-0.5-1.2-0.9s-0.4-0.8-0.4-1.3h1.1
							c0,0.5,0.2,0.9,0.6,1.2s0.9,0.4,1.5,0.4c0.6,0,1-0.1,1.4-0.4s0.5-0.6,0.5-1s-0.1-0.7-0.4-1S51.2,149.4,50.4,149.2z"/>
						<path class="st7" d="M59.9,149.9c0,1-0.2,1.7-0.7,2.3s-1,0.9-1.8,0.9c-0.8,0-1.4-0.2-1.8-0.7v3.1h-1.1v-8.8h1l0.1,0.7
							c0.4-0.5,1.1-0.8,1.8-0.8c0.8,0,1.4,0.3,1.8,0.9S59.9,148.8,59.9,149.9L59.9,149.9z M58.9,149.8c0-0.7-0.2-1.3-0.5-1.7
							s-0.7-0.6-1.3-0.6c-0.7,0-1.1,0.3-1.5,0.9v3c0.3,0.6,0.8,0.9,1.5,0.9c0.5,0,0.9-0.2,1.2-0.6S58.9,150.6,58.9,149.8z"/>
						<path class="st7" d="M65,153c-0.1-0.1-0.1-0.3-0.2-0.7c-0.5,0.5-1.1,0.8-1.8,0.8c-0.6,0-1.1-0.2-1.5-0.5s-0.6-0.8-0.6-1.3
							c0-0.7,0.3-1.2,0.8-1.5s1.2-0.5,2.1-0.5h1.1v-0.5c0-0.4-0.1-0.7-0.3-0.9s-0.6-0.3-1-0.3c-0.4,0-0.7,0.1-1,0.3
							s-0.4,0.4-0.4,0.7H61c0-0.3,0.1-0.6,0.3-0.9s0.5-0.5,0.9-0.7s0.8-0.3,1.3-0.3c0.7,0,1.3,0.2,1.7,0.5s0.6,0.9,0.6,1.5v2.9
							c0,0.6,0.1,1,0.2,1.4v0.1H65z M63.2,152.2c0.3,0,0.7-0.1,1-0.3s0.5-0.4,0.7-0.7v-1.3H64c-1.3,0-2,0.4-2,1.2
							c0,0.3,0.1,0.6,0.3,0.8S62.8,152.2,63.2,152.2z"/>
						<path class="st7" d="M69.9,152.2c0.4,0,0.7-0.1,1-0.4s0.4-0.5,0.5-0.9h1c0,0.4-0.1,0.7-0.4,1s-0.5,0.6-0.9,0.8
							s-0.8,0.3-1.2,0.3c-0.9,0-1.5-0.3-2.1-0.9s-0.8-1.4-0.8-2.4v-0.2c0-0.6,0.1-1.2,0.3-1.6s0.6-0.9,1-1.1s0.9-0.4,1.5-0.4
							c0.7,0,1.3,0.2,1.8,0.6s0.7,1,0.8,1.7h-1c0-0.4-0.2-0.7-0.5-1s-0.6-0.4-1-0.4c-0.6,0-1,0.2-1.3,0.6s-0.5,1-0.5,1.7v0.2
							c0,0.7,0.2,1.3,0.5,1.7S69.3,152.2,69.9,152.2z"/>
						<path class="st7" d="M73.4,145c0-0.2,0.1-0.3,0.2-0.4s0.3-0.2,0.5-0.2s0.4,0.1,0.5,0.2s0.2,0.3,0.2,0.4s-0.1,0.3-0.2,0.4
							s-0.3,0.2-0.5,0.2s-0.4-0.1-0.5-0.2S73.4,145.2,73.4,145z M74.6,153h-1.1v-6.3h1.1V153z"/>
						<path class="st7" d="M77.1,146.7l0,0.8c0.5-0.6,1.1-0.9,1.9-0.9c1.3,0,2,0.8,2,2.3v4.2h-1.1v-4.2c0-0.5-0.1-0.8-0.3-1
							s-0.5-0.3-1-0.3c-0.4,0-0.7,0.1-0.9,0.3s-0.5,0.4-0.6,0.7v4.5H76v-6.3H77.1z"/>
						<path class="st7" d="M82.1,149.8c0-1,0.2-1.8,0.7-2.4s1.1-0.9,1.8-0.9c0.8,0,1.4,0.3,1.8,0.8l0.1-0.7h1v6.2
							c0,0.8-0.2,1.5-0.7,1.9s-1.1,0.7-2,0.7c-0.5,0-0.9-0.1-1.3-0.3s-0.8-0.5-1-0.8l0.6-0.7c0.5,0.6,1,0.9,1.7,0.9
							c0.5,0,0.9-0.1,1.2-0.4s0.4-0.7,0.4-1.3v-0.5c-0.4,0.5-1,0.8-1.8,0.8c-0.7,0-1.3-0.3-1.8-0.9S82.1,150.8,82.1,149.8z
							 M83.2,149.9c0,0.7,0.1,1.3,0.4,1.7s0.7,0.6,1.2,0.6c0.7,0,1.2-0.3,1.5-0.9v-2.9c-0.3-0.6-0.8-0.9-1.5-0.9
							c-0.5,0-0.9,0.2-1.2,0.6S83.2,149.1,83.2,149.9z"/>
						<path class="st7" d="M97.2,151.5l1.2-4.8h1.1l-1.8,6.3h-0.9l-1.5-4.8l-1.5,4.8h-0.9l-1.8-6.3h1.1l1.2,4.7l1.5-4.7h0.9
							L97.2,151.5z"/>
						<path class="st7" d="M100.4,145c0-0.2,0.1-0.3,0.2-0.4s0.3-0.2,0.5-0.2s0.4,0.1,0.5,0.2s0.2,0.3,0.2,0.4s-0.1,0.3-0.2,0.4
							s-0.3,0.2-0.5,0.2s-0.4-0.1-0.5-0.2S100.4,145.2,100.4,145z M101.5,153h-1.1v-6.3h1.1V153z"/>
						<path class="st7" d="M104.5,145.1v1.5h1.2v0.8h-1.2v3.9c0,0.3,0.1,0.4,0.2,0.6s0.3,0.2,0.5,0.2c0.1,0,0.3,0,0.5-0.1v0.9
							c-0.3,0.1-0.6,0.1-0.8,0.1c-0.5,0-0.8-0.1-1.1-0.4s-0.4-0.7-0.4-1.2v-3.9h-1.2v-0.8h1.2v-1.5H104.5z"/>
						<path class="st7" d="M107.8,147.4c0.5-0.6,1.1-0.9,1.9-0.9c1.3,0,2,0.8,2,2.3v4.2h-1.1v-4.2c0-0.5-0.1-0.8-0.3-1
							s-0.5-0.3-1-0.3c-0.4,0-0.7,0.1-0.9,0.3s-0.5,0.4-0.6,0.7v4.5h-1.1v-9h1.1V147.4z"/>
					</g>
					<g class="st2">
						<path class="st7" d="M5,165.8c0-0.6,0.1-1.2,0.4-1.7s0.6-0.9,1-1.1s0.9-0.4,1.5-0.4c0.9,0,1.6,0.3,2.1,0.9s0.8,1.4,0.8,2.4
							v0.1c0,0.6-0.1,1.2-0.4,1.7s-0.6,0.9-1,1.1s-0.9,0.4-1.5,0.4c-0.9,0-1.6-0.3-2.1-0.9S5,166.8,5,165.8L5,165.8z M6.1,165.9
							c0,0.7,0.2,1.3,0.5,1.7s0.8,0.6,1.3,0.6c0.6,0,1-0.2,1.3-0.6s0.5-1,0.5-1.8c0-0.7-0.2-1.3-0.5-1.7s-0.8-0.6-1.3-0.6
							c-0.5,0-1,0.2-1.3,0.6S6.1,165.1,6.1,165.9z"/>
						<path class="st7" d="M17.3,165.9c0,1-0.2,1.7-0.7,2.3s-1,0.9-1.8,0.9c-0.8,0-1.4-0.2-1.8-0.7v3.1h-1.1v-8.8h1l0.1,0.7
							c0.4-0.5,1.1-0.8,1.8-0.8c0.8,0,1.4,0.3,1.8,0.9S17.3,164.8,17.3,165.9L17.3,165.9z M16.2,165.8c0-0.7-0.2-1.3-0.5-1.7
							s-0.7-0.6-1.3-0.6c-0.7,0-1.1,0.3-1.5,0.9v3c0.3,0.6,0.8,0.9,1.5,0.9c0.5,0,0.9-0.2,1.2-0.6S16.2,166.6,16.2,165.8z"/>
						<path class="st7" d="M19.9,161.1v1.5H21v0.8h-1.2v3.9c0,0.3,0.1,0.4,0.2,0.6s0.3,0.2,0.5,0.2c0.1,0,0.3,0,0.5-0.1v0.9
							c-0.3,0.1-0.6,0.1-0.8,0.1c-0.5,0-0.8-0.1-1.1-0.4s-0.4-0.7-0.4-1.2v-3.9h-1.2v-0.8h1.2v-1.5H19.9z"/>
						<path class="st7" d="M22.1,161c0-0.2,0.1-0.3,0.2-0.4s0.3-0.2,0.5-0.2s0.4,0.1,0.5,0.2s0.2,0.3,0.2,0.4s-0.1,0.3-0.2,0.4
							s-0.3,0.2-0.5,0.2s-0.4-0.1-0.5-0.2S22.1,161.2,22.1,161z M23.2,169h-1.1v-6.3h1.1V169z"/>
						<path class="st7" d="M24.4,165.8c0-0.6,0.1-1.2,0.4-1.7s0.6-0.9,1-1.1s0.9-0.4,1.5-0.4c0.9,0,1.6,0.3,2.1,0.9s0.8,1.4,0.8,2.4
							v0.1c0,0.6-0.1,1.2-0.4,1.7s-0.6,0.9-1,1.1s-0.9,0.4-1.5,0.4c-0.9,0-1.6-0.3-2.1-0.9S24.4,166.8,24.4,165.8L24.4,165.8z
							 M25.5,165.9c0,0.7,0.2,1.3,0.5,1.7s0.8,0.6,1.3,0.6c0.6,0,1-0.2,1.3-0.6s0.5-1,0.5-1.8c0-0.7-0.2-1.3-0.5-1.7
							s-0.8-0.6-1.3-0.6c-0.5,0-1,0.2-1.3,0.6S25.5,165.1,25.5,165.9z"/>
						<path class="st7" d="M32.3,162.7l0,0.8c0.5-0.6,1.1-0.9,1.9-0.9c1.3,0,2,0.8,2,2.3v4.2h-1.1v-4.2c0-0.5-0.1-0.8-0.3-1
							s-0.5-0.3-1-0.3c-0.4,0-0.7,0.1-0.9,0.3s-0.5,0.4-0.6,0.7v4.5h-1.1v-6.3H32.3z"/>
						<path class="st7" d="M41.6,169c-0.1-0.1-0.1-0.3-0.2-0.7c-0.5,0.5-1.1,0.8-1.8,0.8c-0.6,0-1.1-0.2-1.5-0.5s-0.6-0.8-0.6-1.3
							c0-0.7,0.3-1.2,0.8-1.5s1.2-0.5,2.1-0.5h1.1v-0.5c0-0.4-0.1-0.7-0.3-0.9s-0.6-0.3-1-0.3c-0.4,0-0.7,0.1-1,0.3
							s-0.4,0.4-0.4,0.7h-1.1c0-0.3,0.1-0.6,0.3-0.9s0.5-0.5,0.9-0.7s0.8-0.3,1.3-0.3c0.7,0,1.3,0.2,1.7,0.5s0.6,0.9,0.6,1.5v2.9
							c0,0.6,0.1,1,0.2,1.4v0.1H41.6z M39.8,168.2c0.3,0,0.7-0.1,1-0.3s0.5-0.4,0.7-0.7v-1.3h-0.8c-1.3,0-2,0.4-2,1.2
							c0,0.3,0.1,0.6,0.3,0.8S39.4,168.2,39.8,168.2z"/>
						<path class="st7" d="M45.1,169h-1.1v-9h1.1V169z"/>
						<path class="st7" d="M49.1,165.8c0-1,0.2-1.8,0.7-2.3s1.1-0.9,1.8-0.9c0.7,0,1.3,0.3,1.8,0.8V160h1.1v9h-1l-0.1-0.7
							c-0.4,0.5-1,0.8-1.8,0.8c-0.7,0-1.3-0.3-1.8-0.9S49.1,166.8,49.1,165.8L49.1,165.8z M50.2,165.9c0,0.7,0.1,1.3,0.4,1.7
							s0.7,0.6,1.2,0.6c0.7,0,1.2-0.3,1.5-0.9v-2.9c-0.3-0.6-0.8-0.9-1.5-0.9c-0.5,0-0.9,0.2-1.2,0.6S50.2,165.1,50.2,165.9z"/>
						<path class="st7" d="M58.5,169.1c-0.9,0-1.6-0.3-2.1-0.8s-0.8-1.3-0.8-2.3v-0.2c0-0.6,0.1-1.2,0.4-1.7s0.6-0.9,1-1.2
							s0.9-0.4,1.4-0.4c0.8,0,1.5,0.3,1.9,0.8s0.7,1.3,0.7,2.3v0.5h-4.3c0,0.6,0.2,1.1,0.5,1.5s0.8,0.6,1.3,0.6c0.4,0,0.7-0.1,1-0.2
							s0.5-0.4,0.7-0.6l0.7,0.5C60.3,168.7,59.5,169.1,58.5,169.1z M58.3,163.4c-0.4,0-0.8,0.2-1.1,0.5s-0.5,0.8-0.6,1.3h3.2v-0.1
							c0-0.6-0.2-1-0.4-1.3S58.8,163.4,58.3,163.4z"/>
						<path class="st7" d="M65.6,167.3c0-0.3-0.1-0.5-0.3-0.7s-0.6-0.3-1.2-0.4s-1-0.3-1.3-0.4s-0.6-0.4-0.7-0.6s-0.2-0.5-0.2-0.8
							c0-0.5,0.2-1,0.7-1.3s1-0.5,1.7-0.5c0.7,0,1.3,0.2,1.7,0.6s0.7,0.8,0.7,1.4h-1.1c0-0.3-0.1-0.6-0.4-0.8s-0.6-0.3-1-0.3
							c-0.4,0-0.7,0.1-0.9,0.3s-0.3,0.4-0.3,0.7c0,0.3,0.1,0.5,0.3,0.6s0.6,0.3,1.1,0.4s1,0.3,1.3,0.4s0.6,0.4,0.7,0.6
							s0.2,0.5,0.2,0.9c0,0.6-0.2,1-0.7,1.4s-1,0.5-1.8,0.5c-0.5,0-1-0.1-1.3-0.3s-0.7-0.4-0.9-0.8s-0.3-0.7-0.3-1h1.1
							c0,0.4,0.2,0.7,0.4,0.9s0.6,0.3,1.1,0.3c0.4,0,0.7-0.1,1-0.2S65.6,167.6,65.6,167.3z"/>
						<path class="st7" d="M70.4,168.2c0.4,0,0.7-0.1,1-0.4s0.4-0.5,0.5-0.9h1c0,0.4-0.1,0.7-0.4,1s-0.5,0.6-0.9,0.8
							s-0.8,0.3-1.2,0.3c-0.9,0-1.5-0.3-2.1-0.9s-0.8-1.4-0.8-2.4v-0.2c0-0.6,0.1-1.2,0.3-1.6s0.6-0.9,1-1.1s0.9-0.4,1.5-0.4
							c0.7,0,1.3,0.2,1.8,0.6s0.7,1,0.8,1.7h-1c0-0.4-0.2-0.7-0.5-1s-0.6-0.4-1-0.4c-0.6,0-1,0.2-1.3,0.6s-0.5,1-0.5,1.7v0.2
							c0,0.7,0.2,1.3,0.5,1.7S69.9,168.2,70.4,168.2z"/>
						<path class="st7" d="M77,163.6c-0.2,0-0.3,0-0.5,0c-0.7,0-1.2,0.3-1.4,0.9v4.5h-1.1v-6.3H75l0,0.7c0.4-0.6,0.9-0.8,1.5-0.8
							c0.2,0,0.4,0,0.5,0.1V163.6z"/>
						<path class="st7" d="M77.7,161c0-0.2,0.1-0.3,0.2-0.4s0.3-0.2,0.5-0.2s0.4,0.1,0.5,0.2s0.2,0.3,0.2,0.4s-0.1,0.3-0.2,0.4
							s-0.3,0.2-0.5,0.2s-0.4-0.1-0.5-0.2S77.7,161.2,77.7,161z M78.9,169h-1.1v-6.3h1.1V169z"/>
						<path class="st7" d="M85.7,165.9c0,1-0.2,1.7-0.7,2.3s-1,0.9-1.8,0.9c-0.8,0-1.4-0.2-1.8-0.7v3.1h-1.1v-8.8h1l0.1,0.7
							c0.4-0.5,1.1-0.8,1.8-0.8c0.8,0,1.4,0.3,1.8,0.9S85.7,164.8,85.7,165.9L85.7,165.9z M84.7,165.8c0-0.7-0.2-1.3-0.5-1.7
							s-0.7-0.6-1.3-0.6c-0.7,0-1.1,0.3-1.5,0.9v3c0.3,0.6,0.8,0.9,1.5,0.9c0.5,0,0.9-0.2,1.2-0.6S84.7,166.6,84.7,165.8z"/>
						<path class="st7" d="M88.3,161.1v1.5h1.2v0.8h-1.2v3.9c0,0.3,0.1,0.4,0.2,0.6s0.3,0.2,0.5,0.2c0.1,0,0.3,0,0.5-0.1v0.9
							c-0.3,0.1-0.6,0.1-0.8,0.1c-0.5,0-0.8-0.1-1.1-0.4s-0.4-0.7-0.4-1.2v-3.9h-1.2v-0.8h1.2v-1.5H88.3z"/>
						<path class="st7" d="M90.5,161c0-0.2,0.1-0.3,0.2-0.4s0.3-0.2,0.5-0.2s0.4,0.1,0.5,0.2s0.2,0.3,0.2,0.4s-0.1,0.3-0.2,0.4
							s-0.3,0.2-0.5,0.2s-0.4-0.1-0.5-0.2S90.5,161.2,90.5,161z M91.7,169h-1.1v-6.3h1.1V169z"/>
						<path class="st7" d="M92.9,165.8c0-0.6,0.1-1.2,0.4-1.7s0.6-0.9,1-1.1s0.9-0.4,1.5-0.4c0.9,0,1.6,0.3,2.1,0.9s0.8,1.4,0.8,2.4
							v0.1c0,0.6-0.1,1.2-0.4,1.7s-0.6,0.9-1,1.1s-0.9,0.4-1.5,0.4c-0.9,0-1.6-0.3-2.1-0.9S92.9,166.8,92.9,165.8L92.9,165.8z
							 M94,165.9c0,0.7,0.2,1.3,0.5,1.7s0.8,0.6,1.3,0.6c0.6,0,1-0.2,1.3-0.6s0.5-1,0.5-1.8c0-0.7-0.2-1.3-0.5-1.7s-0.8-0.6-1.3-0.6
							c-0.5,0-1,0.2-1.3,0.6S94,165.1,94,165.9z"/>
						<path class="st7" d="M100.8,162.7l0,0.8c0.5-0.6,1.1-0.9,1.9-0.9c1.3,0,2,0.8,2,2.3v4.2h-1.1v-4.2c0-0.5-0.1-0.8-0.3-1
							s-0.5-0.3-1-0.3c-0.4,0-0.7,0.1-0.9,0.3s-0.5,0.4-0.6,0.7v4.5h-1.1v-6.3H100.8z"/>
					</g>
					<g id="specs-_x2F_-spacing-_x2F_-inline-_x2F_-V-08px" transform="translate(20.500000, 40.500000)">
						<rect id="Rectangle-5-Copy-19" class="st8" width="8" height="16"/>
						<g class="st2">
							<path class="st3" d="M6.9,6.4c0,0.4-0.1,0.8-0.3,1.1S6,8.1,5.6,8.3c0.4,0.2,0.8,0.5,1.1,0.8s0.4,0.8,0.4,1.2
								c0,0.7-0.2,1.3-0.7,1.8s-1.2,0.7-2,0.7c-0.8,0-1.5-0.2-2-0.7s-0.7-1-0.7-1.8c0-0.5,0.1-0.9,0.4-1.2s0.6-0.7,1-0.8
								C2.7,8.1,2.4,7.8,2.2,7.5S1.9,6.8,1.9,6.4c0-0.7,0.2-1.3,0.7-1.7S3.6,4,4.4,4c0.8,0,1.4,0.2,1.8,0.6S6.9,5.7,6.9,6.4z
								 M6,10.4c0-0.5-0.2-0.9-0.5-1.2S4.8,8.7,4.4,8.7S3.5,8.9,3.2,9.2s-0.4,0.7-0.4,1.2s0.1,0.9,0.4,1.1s0.7,0.4,1.2,0.4
								c0.5,0,0.9-0.1,1.2-0.4S6,10.8,6,10.4z M4.4,4.9c-0.4,0-0.8,0.1-1,0.4S2.9,5.9,2.9,6.4c0,0.4,0.1,0.8,0.4,1.1s0.6,0.4,1,0.4
								s0.8-0.1,1-0.4s0.4-0.6,0.4-1.1S5.7,5.6,5.4,5.3S4.8,4.9,4.4,4.9z"/>
						</g>
					</g>
					<g id="specs-_x2F_-spacing-_x2F_-inline-_x2F_-V-08px_1_" transform="translate(20.500000, 72.500000)">
						<rect id="Rectangle-5-Copy-19_1_" class="st8" width="8" height="16"/>
						<g class="st2">
							<path class="st3" d="M6.9,6.4c0,0.4-0.1,0.8-0.3,1.1S6,8.1,5.6,8.3c0.4,0.2,0.8,0.5,1.1,0.8s0.4,0.8,0.4,1.2
								c0,0.7-0.2,1.3-0.7,1.8s-1.2,0.7-2,0.7c-0.8,0-1.5-0.2-2-0.7s-0.7-1-0.7-1.8c0-0.5,0.1-0.9,0.4-1.2s0.6-0.7,1-0.8
								C2.7,8.1,2.4,7.8,2.2,7.5S1.9,6.8,1.9,6.4c0-0.7,0.2-1.3,0.7-1.7S3.6,4,4.4,4c0.8,0,1.4,0.2,1.8,0.6S6.9,5.7,6.9,6.4z
								 M6,10.4c0-0.5-0.2-0.9-0.5-1.2S4.8,8.7,4.4,8.7S3.5,8.9,3.2,9.2s-0.4,0.7-0.4,1.2s0.1,0.9,0.4,1.1s0.7,0.4,1.2,0.4
								c0.5,0,0.9-0.1,1.2-0.4S6,10.8,6,10.4z M4.4,4.9c-0.4,0-0.8,0.1-1,0.4S2.9,5.9,2.9,6.4c0,0.4,0.1,0.8,0.4,1.1s0.6,0.4,1,0.4
								s0.8-0.1,1-0.4s0.4-0.6,0.4-1.1S5.7,5.6,5.4,5.3S4.8,4.9,4.4,4.9z"/>
						</g>
					</g>
					<g id="specs-_x2F_-spacing-_x2F_-inline-_x2F_-V-08px_2_" transform="translate(20.500000, 92.500000)">
						<rect id="Rectangle-5-Copy-19_2_" class="st8" width="8" height="16"/>
						<g class="st2">
							<path class="st3" d="M6.9,6.4c0,0.4-0.1,0.8-0.3,1.1S6,8.1,5.6,8.3c0.4,0.2,0.8,0.5,1.1,0.8s0.4,0.8,0.4,1.2
								c0,0.7-0.2,1.3-0.7,1.8s-1.2,0.7-2,0.7c-0.8,0-1.5-0.2-2-0.7s-0.7-1-0.7-1.8c0-0.5,0.1-0.9,0.4-1.2s0.6-0.7,1-0.8
								C2.7,8.1,2.4,7.8,2.2,7.5S1.9,6.8,1.9,6.4c0-0.7,0.2-1.3,0.7-1.7S3.6,4,4.4,4c0.8,0,1.4,0.2,1.8,0.6S6.9,5.7,6.9,6.4z
								 M6,10.4c0-0.5-0.2-0.9-0.5-1.2S4.8,8.7,4.4,8.7S3.5,8.9,3.2,9.2s-0.4,0.7-0.4,1.2s0.1,0.9,0.4,1.1s0.7,0.4,1.2,0.4
								c0.5,0,0.9-0.1,1.2-0.4S6,10.8,6,10.4z M4.4,4.9c-0.4,0-0.8,0.1-1,0.4S2.9,5.9,2.9,6.4c0,0.4,0.1,0.8,0.4,1.1s0.6,0.4,1,0.4
								s0.8-0.1,1-0.4s0.4-0.6,0.4-1.1S5.7,5.6,5.4,5.3S4.8,4.9,4.4,4.9z"/>
						</g>
					</g>
					<g id="specs-_x2F_-spacing-_x2F_-stack-_x2F_-H-04px" transform="translate(4.500000, 65.000000)">
						<rect id="Rectangle-3-Copy-6" y="3" class="st9" width="85" height="4"/>
						<g class="st2">
							<path class="st3" d="M41.5,6.1h0.8v0.6h-0.8V8h-0.7V6.7h-2.6V6.3l2.5-3.9h0.8V6.1z M39.1,6.1h1.8V3.3l-0.1,0.2L39.1,6.1z"/>
						</g>
					</g>
					<g id="specs-_x2F_-spacing-_x2F_-stack-_x2F_-H-04px_1_" transform="translate(4.500000, 85.000000)">
						<rect id="Rectangle-3-Copy-6_1_" y="3" class="st9" width="85" height="4"/>
						<g class="st2">
							<path class="st3" d="M41.5,6.1h0.8v0.6h-0.8V8h-0.7V6.7h-2.6V6.3l2.5-3.9h0.8V6.1z M39.1,6.1h1.8V3.3l-0.1,0.2L39.1,6.1z"/>
						</g>
					</g>
					<g id="specs-_x2F_-spacing-_x2F_-internal-_x2F_-H-20px" transform="translate(4.500000, 108.000000)">
						<rect id="Rectangle-3-Copy-5" class="st10" width="84" height="20"/>
						<g class="st2">
							<path class="st3" d="M42.4,15h-5.6v-0.8l3-3.3c0.4-0.5,0.7-0.9,0.9-1.2s0.2-0.6,0.2-1c0-0.4-0.1-0.8-0.4-1.1
								s-0.6-0.4-1.1-0.4c-0.5,0-1,0.2-1.3,0.5S37.7,8.4,37.7,9h-1.1c0-0.8,0.3-1.4,0.8-1.9s1.2-0.7,2-0.7c0.8,0,1.4,0.2,1.9,0.6
								s0.7,1,0.7,1.7c0,0.8-0.5,1.8-1.6,3l-2.3,2.5h4.3V15z"/>
							<path class="st3" d="M48.9,11.4c0,1.3-0.2,2.2-0.7,2.8s-1.1,0.9-2,0.9c-0.9,0-1.6-0.3-2-0.9s-0.7-1.5-0.7-2.7v-1.4
								c0-1.3,0.2-2.2,0.7-2.8s1.1-0.9,2-0.9c0.9,0,1.6,0.3,2,0.9s0.7,1.5,0.7,2.7V11.4z M47.8,9.9c0-0.9-0.1-1.6-0.4-2
								s-0.7-0.6-1.2-0.6c-0.6,0-1,0.2-1.2,0.6s-0.4,1.1-0.4,1.9v1.7c0,0.9,0.1,1.6,0.4,2s0.7,0.7,1.2,0.7c0.5,0,0.9-0.2,1.2-0.6
								s0.4-1.1,0.4-2V9.9z"/>
						</g>
					</g>
					<g id="specs-_x2F_-spacing-_x2F_-internal-_x2F_-H-20px_1_" transform="translate(4.500000, 0.000000)">
						<rect id="Rectangle-3-Copy-5_1_" class="st10" width="84" height="20"/>
						<g class="st2">
							<path class="st3" d="M42.4,15h-5.6v-0.8l3-3.3c0.4-0.5,0.7-0.9,0.9-1.2s0.2-0.6,0.2-1c0-0.4-0.1-0.8-0.4-1.1
								s-0.6-0.4-1.1-0.4c-0.5,0-1,0.2-1.3,0.5S37.7,8.4,37.7,9h-1.1c0-0.8,0.3-1.4,0.8-1.9s1.2-0.7,2-0.7c0.8,0,1.4,0.2,1.9,0.6
								s0.7,1,0.7,1.7c0,0.8-0.5,1.8-1.6,3l-2.3,2.5h4.3V15z"/>
							<path class="st3" d="M48.9,11.4c0,1.3-0.2,2.2-0.7,2.8s-1.1,0.9-2,0.9c-0.9,0-1.6-0.3-2-0.9s-0.7-1.5-0.7-2.7v-1.4
								c0-1.3,0.2-2.2,0.7-2.8s1.1-0.9,2-0.9c0.9,0,1.6,0.3,2,0.9s0.7,1.5,0.7,2.7V11.4z M47.8,9.9c0-0.9-0.1-1.6-0.4-2
								s-0.7-0.6-1.2-0.6c-0.6,0-1,0.2-1.2,0.6s-0.4,1.1-0.4,1.9v1.7c0,0.9,0.1,1.6,0.4,2s0.7,0.7,1.2,0.7c0.5,0,0.9-0.2,1.2-0.6
								s0.4-1.1,0.4-2V9.9z"/>
						</g>
					</g>
					<g id="specs-_x2F_-spacing-_x2F_-stack-_x2F_-H-08px" transform="translate(4.500000, 29.000000)">
						<rect id="Rectangle-3" y="3" class="st9" width="85" height="8"/>
						<g class="st2">
							<path class="st3" d="M44,5.7c0,0.4-0.1,0.7-0.3,0.9C43.6,7,43.3,7.2,43,7.3c0.4,0.2,0.7,0.4,0.9,0.7c0.2,0.3,0.3,0.7,0.3,1
								c0,0.6-0.2,1.1-0.6,1.5s-1,0.5-1.6,0.5c-0.7,0-1.2-0.2-1.6-0.5c-0.4-0.4-0.6-0.9-0.6-1.5c0-0.4,0.1-0.7,0.3-1
								s0.5-0.5,0.9-0.7c-0.3-0.2-0.6-0.4-0.7-0.6c-0.2-0.3-0.3-0.6-0.3-0.9c0-0.6,0.2-1.1,0.6-1.4C40.8,4,41.3,3.8,42,3.8
								c0.6,0,1.1,0.2,1.5,0.5S44,5.1,44,5.7z M43.3,9.1c0-0.4-0.1-0.7-0.4-1c-0.3-0.3-0.6-0.4-1-0.4c-0.4,0-0.7,0.1-1,0.4
								c-0.2,0.2-0.4,0.6-0.4,1s0.1,0.7,0.4,1s0.6,0.3,1,0.3c0.4,0,0.8-0.1,1-0.3C43.2,9.8,43.3,9.5,43.3,9.1z M42,4.5
								c-0.4,0-0.6,0.1-0.9,0.3c-0.2,0.2-0.3,0.5-0.3,0.9c0,0.4,0.1,0.7,0.3,0.9C41.3,6.9,41.6,7,42,7s0.7-0.1,0.9-0.3
								c0.2-0.2,0.3-0.5,0.3-0.9S43,5.1,42.8,4.9S42.3,4.5,42,4.5z"/>
						</g>
					</g>
					<g id="Horizonal-Spacing" transform="translate(20.500000, 40.000000)">
					</g>
					<g id="Support-Text-Annotation" transform="translate(0.500000, 52.000000)">
						<g class="st2">
							<path class="st3" d="M2.8,8H2.1V3.2L0.7,3.7V3.1l2.1-0.8h0.1V8z"/>
						</g>
						<polygon id="Fill-103" class="st9" points="4,5 89,5 89,4 4,4 						"/>
					</g>
					<g id="Group-2" transform="translate(102.000000, 14.000000)">
						
							<g id="specs-_x2F_-redlines-_x2F_-line-inclusive" transform="translate(40.000000, 14.000000) scale(-1, 1) translate(-40.000000, -14.000000) translate(0.500000, 0.000000)">
							<path id="redline-line" class="st11" d="M0,13.9h79"/>
							<g id="specs-_x2F_-redlines-_x2F_-line-end-_x2F_-arrow" transform="translate(72.000000, 10.360000)">
								<g id="redline-end">
									<g>
										<polygon id="path-3" class="st1" points="7,3.5 0,7 0,0 										"/>
									</g>
									<path class="st11" d="M5.9,3.5L0.5,0.8v5.4L5.9,3.5z"/>
								</g>
							</g>
							<path id="Line" class="st12" d="M0.3,0.1v27.7"/>
						</g>
					</g>
					<g id="Group-2-Copy" transform="translate(144.000000, 14.000000)">
						
							<g id="specs-_x2F_-redlines-_x2F_-line-inclusive_1_" transform="translate(50.500000, 49.000000) scale(-1, 1) translate(-50.500000, -49.000000) translate(0.500000, 35.000000)">
							<path id="redline-line_1_" class="st11" d="M0,13.9h100"/>
							<g id="specs-_x2F_-redlines-_x2F_-line-end-_x2F_-arrow_1_" transform="translate(93.000000, 10.360000)">
								<g id="redline-end_1_">
									<g>
										<polygon id="path-4" class="st1" points="7,3.5 0,7 0,0 										"/>
									</g>
									<path class="st11" d="M5.9,3.5L0.5,0.8v5.4L5.9,3.5z"/>
								</g>
							</g>
							<path id="Line_1_" class="st12" d="M0.5,0.1v27.7"/>
						</g>
						<g id="specs-_x2F_-redlines-_x2F_-label" transform="translate(107.500000, 33.000000)">
							<g class="st2">
								<path class="st13" d="M2,13H0.9V4H2V13z"/>
								<path class="st13" d="M7.6,13c-0.1-0.1-0.1-0.3-0.2-0.7c-0.5,0.5-1.1,0.8-1.8,0.8c-0.6,0-1.1-0.2-1.5-0.5s-0.6-0.8-0.6-1.3
									c0-0.7,0.3-1.2,0.8-1.5s1.2-0.5,2.1-0.5h1.1V8.7c0-0.4-0.1-0.7-0.3-0.9s-0.6-0.3-1-0.3c-0.4,0-0.7,0.1-1,0.3
									S4.8,8.1,4.8,8.4H3.7c0-0.3,0.1-0.6,0.3-0.9S4.5,7,4.9,6.8s0.8-0.3,1.3-0.3c0.7,0,1.3,0.2,1.7,0.5S8.5,8,8.6,8.6v2.9
									c0,0.6,0.1,1,0.2,1.4V13H7.6z M5.8,12.2c0.3,0,0.7-0.1,1-0.3s0.5-0.4,0.7-0.7V9.9H6.6c-1.3,0-2,0.4-2,1.2
									c0,0.3,0.1,0.6,0.3,0.8S5.5,12.2,5.8,12.2z"/>
								<path class="st13" d="M15.6,9.9c0,1-0.2,1.7-0.7,2.3s-1,0.9-1.8,0.9c-0.8,0-1.4-0.3-1.9-0.8L11.3,13h-1V4h1.1v3.4
									c0.4-0.5,1-0.8,1.8-0.8s1.4,0.3,1.8,0.9S15.6,8.8,15.6,9.9L15.6,9.9z M14.5,9.8c0-0.7-0.1-1.3-0.4-1.7s-0.7-0.6-1.2-0.6
									c-0.7,0-1.2,0.3-1.5,1v2.7c0.3,0.7,0.8,1,1.6,1c0.5,0,0.9-0.2,1.2-0.6S14.5,10.6,14.5,9.8z"/>
								<path class="st13" d="M19.6,13.1c-0.9,0-1.6-0.3-2.1-0.8S16.7,11,16.7,10V9.8c0-0.6,0.1-1.2,0.4-1.7s0.6-0.9,1-1.2
									s0.9-0.4,1.4-0.4c0.8,0,1.5,0.3,1.9,0.8s0.7,1.3,0.7,2.3v0.5h-4.3c0,0.6,0.2,1.1,0.5,1.5s0.8,0.6,1.3,0.6
									c0.4,0,0.7-0.1,1-0.2s0.5-0.4,0.7-0.6l0.7,0.5C21.5,12.7,20.7,13.1,19.6,13.1z M19.5,7.4c-0.4,0-0.8,0.2-1.1,0.5
									s-0.5,0.8-0.6,1.3H21V9.2c0-0.6-0.2-1-0.4-1.3S19.9,7.4,19.5,7.4z"/>
								<path class="st13" d="M24.5,13h-1.1V4h1.1V13z"/>
								<path class="st13" d="M29.8,13V7.5h-1V6.7h1V6c0-0.7,0.2-1.2,0.5-1.6s0.9-0.6,1.5-0.6c0.2,0,0.5,0,0.7,0.1l-0.1,0.9
									c-0.2,0-0.4-0.1-0.6-0.1c-0.4,0-0.6,0.1-0.8,0.3S30.8,5.6,30.8,6v0.7h1.4v0.8h-1.4V13H29.8z"/>
								<path class="st13" d="M33.1,9.8c0-0.6,0.1-1.2,0.4-1.7s0.6-0.9,1-1.1s0.9-0.4,1.5-0.4c0.9,0,1.6,0.3,2.1,0.9
									s0.8,1.4,0.8,2.4v0.1c0,0.6-0.1,1.2-0.4,1.7s-0.6,0.9-1,1.1s-0.9,0.4-1.5,0.4c-0.9,0-1.6-0.3-2.1-0.9S33.1,10.8,33.1,9.8
									L33.1,9.8z M34.2,9.9c0,0.7,0.2,1.3,0.5,1.7s0.8,0.6,1.3,0.6c0.6,0,1-0.2,1.3-0.6s0.5-1,0.5-1.8c0-0.7-0.2-1.3-0.5-1.7
									S36.5,7.4,36,7.4c-0.5,0-1,0.2-1.3,0.6S34.2,9.1,34.2,9.9z"/>
								<path class="st13" d="M41.3,6.7l0,0.8c0.5-0.6,1.1-0.9,1.9-0.9c1.3,0,2,0.8,2,2.3V13h-1.1V8.8c0-0.5-0.1-0.8-0.3-1
									s-0.5-0.3-1-0.3c-0.4,0-0.7,0.1-0.9,0.3s-0.5,0.4-0.6,0.7V13h-1.1V6.7H41.3z"/>
								<path class="st13" d="M48.3,5.1v1.5h1.2v0.8h-1.2v3.9c0,0.3,0.1,0.4,0.2,0.6s0.3,0.2,0.5,0.2c0.1,0,0.3,0,0.5-0.1V13
									c-0.3,0.1-0.6,0.1-0.8,0.1c-0.5,0-0.8-0.1-1.1-0.4s-0.4-0.7-0.4-1.2V7.5h-1.2V6.7h1.2V5.1H48.3z"/>
								<path class="st13" d="M50.7,12.4c0-0.2,0.1-0.3,0.2-0.5s0.3-0.2,0.5-0.2s0.4,0.1,0.5,0.2s0.2,0.3,0.2,0.5
									c0,0.2-0.1,0.3-0.2,0.5s-0.3,0.2-0.5,0.2S51,13,50.9,12.9S50.7,12.6,50.7,12.4z M50.8,7.3c0-0.2,0.1-0.3,0.2-0.5
									s0.3-0.2,0.5-0.2s0.4,0.1,0.5,0.2s0.2,0.3,0.2,0.5c0,0.2-0.1,0.3-0.2,0.5s-0.3,0.2-0.5,0.2S51,7.8,50.9,7.7
									S50.8,7.4,50.8,7.3z"/>
								<path class="st13" d="M59.7,7.6c-0.2,0-0.3,0-0.5,0c-0.7,0-1.2,0.3-1.4,0.9V13h-1.1V6.7h1.1l0,0.7c0.4-0.6,0.9-0.8,1.5-0.8
									c0.2,0,0.4,0,0.5,0.1V7.6z"/>
								<path class="st13" d="M60.3,9.8c0-0.6,0.1-1.2,0.4-1.7s0.6-0.9,1-1.1s0.9-0.4,1.5-0.4c0.9,0,1.6,0.3,2.1,0.9
									s0.8,1.4,0.8,2.4v0.1c0,0.6-0.1,1.2-0.4,1.7s-0.6,0.9-1,1.1s-0.9,0.4-1.5,0.4c-0.9,0-1.6-0.3-2.1-0.9S60.3,10.8,60.3,9.8
									L60.3,9.8z M61.4,9.9c0,0.7,0.2,1.3,0.5,1.7s0.8,0.6,1.3,0.6c0.6,0,1-0.2,1.3-0.6s0.5-1,0.5-1.8c0-0.7-0.2-1.3-0.5-1.7
									s-0.8-0.6-1.3-0.6c-0.5,0-1,0.2-1.3,0.6S61.4,9.1,61.4,9.9z"/>
								<path class="st13" d="M72.8,9.9c0,1-0.2,1.7-0.7,2.3s-1,0.9-1.8,0.9c-0.8,0-1.4-0.3-1.9-0.8L68.4,13h-1V4h1.1v3.4
									c0.4-0.5,1-0.8,1.8-0.8s1.4,0.3,1.8,0.9S72.8,8.8,72.8,9.9L72.8,9.9z M71.7,9.8c0-0.7-0.1-1.3-0.4-1.7s-0.7-0.6-1.2-0.6
									c-0.7,0-1.2,0.3-1.5,1v2.7c0.3,0.7,0.8,1,1.6,1c0.5,0,0.9-0.2,1.2-0.6S71.7,10.6,71.7,9.8z"/>
								<path class="st13" d="M73.9,9.8c0-0.6,0.1-1.2,0.4-1.7s0.6-0.9,1-1.1s0.9-0.4,1.5-0.4c0.9,0,1.6,0.3,2.1,0.9
									s0.8,1.4,0.8,2.4v0.1c0,0.6-0.1,1.2-0.4,1.7s-0.6,0.9-1,1.1s-0.9,0.4-1.5,0.4c-0.9,0-1.6-0.3-2.1-0.9S73.9,10.8,73.9,9.8
									L73.9,9.8z M75,9.9c0,0.7,0.2,1.3,0.5,1.7s0.8,0.6,1.3,0.6c0.6,0,1-0.2,1.3-0.6s0.5-1,0.5-1.8c0-0.7-0.2-1.3-0.5-1.7
									s-0.8-0.6-1.3-0.6c-0.5,0-1,0.2-1.3,0.6S75,9.1,75,9.9z"/>
								<path class="st13" d="M82.5,5.1v1.5h1.2v0.8h-1.2v3.9c0,0.3,0.1,0.4,0.2,0.6s0.3,0.2,0.5,0.2c0.1,0,0.3,0,0.5-0.1V13
									c-0.3,0.1-0.6,0.1-0.8,0.1c-0.5,0-0.8-0.1-1.1-0.4s-0.4-0.7-0.4-1.2V7.5h-1.2V6.7h1.2V5.1H82.5z"/>
								<path class="st13" d="M84.5,9.8c0-0.6,0.1-1.2,0.4-1.7s0.6-0.9,1-1.1s0.9-0.4,1.5-0.4c0.9,0,1.6,0.3,2.1,0.9
									s0.8,1.4,0.8,2.4v0.1c0,0.6-0.1,1.2-0.4,1.7s-0.6,0.9-1,1.1s-0.9,0.4-1.5,0.4c-0.9,0-1.6-0.3-2.1-0.9S84.5,10.8,84.5,9.8
									L84.5,9.8z M85.6,9.9c0,0.7,0.2,1.3,0.5,1.7s0.8,0.6,1.3,0.6c0.6,0,1-0.2,1.3-0.6s0.5-1,0.5-1.8c0-0.7-0.2-1.3-0.5-1.7
									S88,7.4,87.4,7.4c-0.5,0-1,0.2-1.3,0.6S85.6,9.1,85.6,9.9z"/>
								<path class="st13" d="M91.6,14.7L91,14.3c0.4-0.5,0.6-1,0.6-1.6v-1h1.1v0.8c0,0.4-0.1,0.8-0.3,1.2S91.9,14.5,91.6,14.7z"/>
								<path class="st13" d="M100.1,7.6c-0.2,0-0.3,0-0.5,0c-0.7,0-1.2,0.3-1.4,0.9V13H97V6.7h1.1l0,0.7c0.4-0.6,0.9-0.8,1.5-0.8
									c0.2,0,0.4,0,0.5,0.1V7.6z"/>
								<path class="st13" d="M103.7,13.1c-0.9,0-1.6-0.3-2.1-0.8s-0.8-1.3-0.8-2.3V9.8c0-0.6,0.1-1.2,0.4-1.7s0.6-0.9,1-1.2
									s0.9-0.4,1.4-0.4c0.8,0,1.5,0.3,1.9,0.8s0.7,1.3,0.7,2.3v0.5h-4.3c0,0.6,0.2,1.1,0.5,1.5s0.8,0.6,1.3,0.6
									c0.4,0,0.7-0.1,1-0.2s0.5-0.4,0.7-0.6l0.7,0.5C105.5,12.7,104.8,13.1,103.7,13.1z M103.6,7.4c-0.4,0-0.8,0.2-1.1,0.5
									s-0.5,0.8-0.6,1.3h3.2V9.2c0-0.6-0.2-1-0.4-1.3S104,7.4,103.6,7.4z"/>
								<path class="st13" d="M107.2,9.8c0-1,0.2-1.8,0.7-2.4s1.1-0.9,1.8-0.9c0.8,0,1.4,0.3,1.8,0.8l0.1-0.7h1v6.2
									c0,0.8-0.2,1.5-0.7,1.9s-1.1,0.7-2,0.7c-0.5,0-0.9-0.1-1.3-0.3s-0.8-0.5-1-0.8l0.6-0.7c0.5,0.6,1,0.9,1.7,0.9
									c0.5,0,0.9-0.1,1.2-0.4s0.4-0.7,0.4-1.3v-0.5c-0.4,0.5-1,0.8-1.8,0.8c-0.7,0-1.3-0.3-1.8-0.9S107.2,10.8,107.2,9.8z
									 M108.2,9.9c0,0.7,0.1,1.3,0.4,1.7s0.7,0.6,1.2,0.6c0.7,0,1.2-0.3,1.5-0.9V8.4c-0.3-0.6-0.8-0.9-1.5-0.9
									c-0.5,0-0.9,0.2-1.2,0.6S108.2,9.1,108.2,9.9z"/>
								<path class="st13" d="M118.1,12.4c-0.4,0.5-1,0.7-1.9,0.7c-0.7,0-1.2-0.2-1.5-0.6s-0.5-1-0.5-1.7V6.7h1.1v4.1
									c0,1,0.4,1.4,1.2,1.4c0.8,0,1.4-0.3,1.7-0.9V6.7h1.1V13h-1L118.1,12.4z"/>
								<path class="st13" d="M121.9,13h-1.1V4h1.1V13z"/>
								<path class="st13" d="M127.6,13c-0.1-0.1-0.1-0.3-0.2-0.7c-0.5,0.5-1.1,0.8-1.8,0.8c-0.6,0-1.1-0.2-1.5-0.5
									s-0.6-0.8-0.6-1.3c0-0.7,0.3-1.2,0.8-1.5s1.2-0.5,2.1-0.5h1.1V8.7c0-0.4-0.1-0.7-0.3-0.9s-0.6-0.3-1-0.3
									c-0.4,0-0.7,0.1-1,0.3s-0.4,0.4-0.4,0.7h-1.1c0-0.3,0.1-0.6,0.3-0.9s0.5-0.5,0.9-0.7s0.8-0.3,1.3-0.3c0.7,0,1.3,0.2,1.7,0.5
									s0.6,0.9,0.6,1.5v2.9c0,0.6,0.1,1,0.2,1.4V13H127.6z M125.8,12.2c0.3,0,0.7-0.1,1-0.3s0.5-0.4,0.7-0.7V9.9h-0.8
									c-1.3,0-2,0.4-2,1.2c0,0.3,0.1,0.6,0.3,0.8S125.4,12.2,125.8,12.2z"/>
								<path class="st13" d="M133.3,7.6c-0.2,0-0.3,0-0.5,0c-0.7,0-1.2,0.3-1.4,0.9V13h-1.1V6.7h1.1l0,0.7c0.4-0.6,0.9-0.8,1.5-0.8
									c0.2,0,0.4,0,0.5,0.1V7.6z"/>
								<path class="st13" d="M133.5,14.7l-0.6-0.4c0.4-0.5,0.6-1,0.6-1.6v-1h1.1v0.8c0,0.4-0.1,0.8-0.3,1.2S133.8,14.5,133.5,14.7z
									"/>
								<path class="st13" d="M142.3,13h-1.1V5.8L139,6.6v-1l3.1-1.2h0.2V13z"/>
								<path class="st13" d="M151.1,13h-5.6v-0.8l3-3.3c0.4-0.5,0.7-0.9,0.9-1.2s0.2-0.6,0.2-1c0-0.4-0.1-0.8-0.4-1.1
									s-0.6-0.4-1.1-0.4c-0.5,0-1,0.2-1.3,0.5s-0.4,0.7-0.4,1.3h-1.1c0-0.8,0.3-1.4,0.8-1.9s1.2-0.7,2-0.7c0.8,0,1.4,0.2,1.9,0.6
									s0.7,1,0.7,1.7c0,0.8-0.5,1.8-1.6,3l-2.3,2.5h4.3V13z"/>
								<path class="st13" d="M160.7,9.9c0,1-0.2,1.7-0.7,2.3s-1,0.9-1.8,0.9c-0.8,0-1.4-0.2-1.8-0.7v3.1h-1.1V6.7h1l0.1,0.7
									c0.4-0.5,1.1-0.8,1.8-0.8c0.8,0,1.4,0.3,1.8,0.9S160.7,8.8,160.7,9.9L160.7,9.9z M159.6,9.8c0-0.7-0.2-1.3-0.5-1.7
									s-0.7-0.6-1.3-0.6c-0.7,0-1.1,0.3-1.5,0.9v3c0.3,0.6,0.8,0.9,1.5,0.9c0.5,0,0.9-0.2,1.2-0.6S159.6,10.6,159.6,9.8z"/>
								<path class="st13" d="M164.2,9l1.4-2.3h1.3l-2.1,3.1l2.1,3.2h-1.3l-1.5-2.4l-1.5,2.4h-1.3l2.1-3.2l-2.1-3.1h1.3L164.2,9z"/>
							</g>
						</g>
						<g id="specs-_x2F_-redlines-_x2F_-label_1_" transform="translate(107.500000, 45.000000)">
							<g class="st2">
								<path class="st13" d="M4.5,10.6H2.9L2.5,13H1.6l0.5-2.4H0.7V9.8h1.6l0.4-2.1H1.1V6.9h1.7l0.5-2.4h0.8L3.7,6.9h1.5l0.5-2.4
									h0.8L6,6.9h1.2v0.8H5.9L5.5,9.8h1.3v0.8H5.3L4.9,13H4L4.5,10.6z M3.1,9.8h1.5L5,7.7H3.5L3.1,9.8z"/>
								<path class="st13" d="M12.4,4.5v0.9h-0.2c-0.8,0-1.5,0.3-2,0.8s-0.8,1.2-0.9,2c0.4-0.5,1.1-0.8,1.8-0.8
									c0.7,0,1.3,0.3,1.8,0.8s0.7,1.2,0.7,2c0,0.9-0.2,1.6-0.7,2.1s-1.1,0.8-1.9,0.8c-0.8,0-1.5-0.3-2-0.9s-0.8-1.4-0.8-2.4V9.3
									c0-1.6,0.3-2.8,1-3.6s1.7-1.3,3-1.3H12.4z M10.9,8.3c-0.4,0-0.7,0.1-1,0.3S9.4,9.1,9.3,9.5v0.4c0,0.7,0.2,1.3,0.5,1.7
									s0.7,0.6,1.2,0.6c0.5,0,0.9-0.2,1.2-0.5s0.4-0.8,0.4-1.4c0-0.6-0.1-1.1-0.4-1.4S11.4,8.3,10.9,8.3z"/>
								<path class="st13" d="M20.3,9.9c0,1-0.2,1.7-0.7,2.3s-1,0.9-1.8,0.9c-0.8,0-1.4-0.3-1.9-0.8L15.9,13h-1V4H16v3.4
									c0.4-0.5,1-0.8,1.8-0.8s1.4,0.3,1.8,0.9S20.3,8.8,20.3,9.9L20.3,9.9z M19.2,9.8c0-0.7-0.1-1.3-0.4-1.7s-0.7-0.6-1.2-0.6
									c-0.7,0-1.2,0.3-1.5,1v2.7c0.3,0.7,0.8,1,1.6,1c0.5,0,0.9-0.2,1.2-0.6S19.2,10.6,19.2,9.8z"/>
								<path class="st13" d="M25.8,4.5v0.9h-0.2c-0.8,0-1.5,0.3-2,0.8s-0.8,1.2-0.9,2c0.4-0.5,1.1-0.8,1.8-0.8
									c0.7,0,1.3,0.3,1.8,0.8s0.7,1.2,0.7,2c0,0.9-0.2,1.6-0.7,2.1s-1.1,0.8-1.9,0.8c-0.8,0-1.5-0.3-2-0.9s-0.8-1.4-0.8-2.4V9.3
									c0-1.6,0.3-2.8,1-3.6s1.7-1.3,3-1.3H25.8z M24.4,8.3c-0.4,0-0.7,0.1-1,0.3s-0.5,0.5-0.7,0.8v0.4c0,0.7,0.2,1.3,0.5,1.7
									s0.7,0.6,1.2,0.6c0.5,0,0.9-0.2,1.2-0.5s0.4-0.8,0.4-1.4c0-0.6-0.1-1.1-0.4-1.4S24.9,8.3,24.4,8.3z"/>
								<path class="st13" d="M33.8,9.9c0,1-0.2,1.7-0.7,2.3s-1,0.9-1.8,0.9c-0.8,0-1.4-0.3-1.9-0.8L29.4,13h-1V4h1.1v3.4
									c0.4-0.5,1-0.8,1.8-0.8s1.4,0.3,1.8,0.9S33.8,8.8,33.8,9.9L33.8,9.9z M32.7,9.8c0-0.7-0.1-1.3-0.4-1.7S31.6,7.5,31,7.5
									c-0.7,0-1.2,0.3-1.5,1v2.7c0.3,0.7,0.8,1,1.6,1c0.5,0,0.9-0.2,1.2-0.6S32.7,10.6,32.7,9.8z"/>
								<path class="st13" d="M39.3,4.5v0.9h-0.2c-0.8,0-1.5,0.3-2,0.8s-0.8,1.2-0.9,2c0.4-0.5,1.1-0.8,1.8-0.8
									c0.7,0,1.3,0.3,1.8,0.8s0.7,1.2,0.7,2c0,0.9-0.2,1.6-0.7,2.1s-1.1,0.8-1.9,0.8c-0.8,0-1.5-0.3-2-0.9s-0.8-1.4-0.8-2.4V9.3
									c0-1.6,0.3-2.8,1-3.6s1.7-1.3,3-1.3H39.3z M37.9,8.3c-0.4,0-0.7,0.1-1,0.3s-0.5,0.5-0.7,0.8v0.4c0,0.7,0.2,1.3,0.5,1.7
									s0.7,0.6,1.2,0.6c0.5,0,0.9-0.2,1.2-0.5s0.4-0.8,0.4-1.4c0-0.6-0.1-1.1-0.4-1.4S38.3,8.3,37.9,8.3z"/>
								<path class="st13" d="M47.3,9.9c0,1-0.2,1.7-0.7,2.3s-1,0.9-1.8,0.9c-0.8,0-1.4-0.3-1.9-0.8L42.9,13h-1V4H43v3.4
									c0.4-0.5,1-0.8,1.8-0.8s1.4,0.3,1.8,0.9S47.3,8.8,47.3,9.9L47.3,9.9z M46.2,9.8c0-0.7-0.1-1.3-0.4-1.7S45,7.5,44.5,7.5
									c-0.7,0-1.2,0.3-1.5,1v2.7c0.3,0.7,0.8,1,1.6,1c0.5,0,0.9-0.2,1.2-0.6S46.2,10.6,46.2,9.8z"/>
								<path class="st13" d="M51.6,9.5c0-0.9,0.1-1.7,0.4-2.5s0.6-1.6,1.1-2.2s1-1.1,1.5-1.4l0.2,0.7c-0.6,0.4-1,1.1-1.4,2
									s-0.6,1.9-0.6,3l0,0.5c0,1.5,0.3,2.8,0.8,3.9c0.3,0.7,0.7,1.2,1.2,1.6l-0.2,0.7c-0.5-0.3-1-0.8-1.5-1.5
									C52,13,51.6,11.4,51.6,9.5z"/>
								<path class="st13" d="M55.4,9.8c0-1,0.2-1.8,0.7-2.4s1.1-0.9,1.8-0.9c0.8,0,1.4,0.3,1.8,0.8l0.1-0.7h1v6.2
									c0,0.8-0.2,1.5-0.7,1.9s-1.1,0.7-2,0.7c-0.5,0-0.9-0.1-1.3-0.3s-0.8-0.5-1-0.8l0.6-0.7c0.5,0.6,1,0.9,1.7,0.9
									c0.5,0,0.9-0.1,1.2-0.4s0.4-0.7,0.4-1.3v-0.5c-0.4,0.5-1,0.8-1.8,0.8c-0.7,0-1.3-0.3-1.8-0.9S55.4,10.8,55.4,9.8z M56.5,9.9
									c0,0.7,0.1,1.3,0.4,1.7s0.7,0.6,1.2,0.6c0.7,0,1.2-0.3,1.5-0.9V8.4c-0.3-0.6-0.8-0.9-1.5-0.9c-0.5,0-0.9,0.2-1.2,0.6
									S56.5,9.1,56.5,9.9z"/>
								<path class="st13" d="M65.5,7.6c-0.2,0-0.3,0-0.5,0c-0.7,0-1.2,0.3-1.4,0.9V13h-1.1V6.7h1.1l0,0.7c0.4-0.6,0.9-0.8,1.5-0.8
									c0.2,0,0.4,0,0.5,0.1V7.6z"/>
								<path class="st13" d="M70.2,13c-0.1-0.1-0.1-0.3-0.2-0.7c-0.5,0.5-1.1,0.8-1.8,0.8c-0.6,0-1.1-0.2-1.5-0.5s-0.6-0.8-0.6-1.3
									c0-0.7,0.3-1.2,0.8-1.5s1.2-0.5,2.1-0.5H70V8.7c0-0.4-0.1-0.7-0.3-0.9s-0.6-0.3-1-0.3c-0.4,0-0.7,0.1-1,0.3
									s-0.4,0.4-0.4,0.7h-1.1c0-0.3,0.1-0.6,0.3-0.9s0.5-0.5,0.9-0.7s0.8-0.3,1.3-0.3c0.7,0,1.3,0.2,1.7,0.5s0.6,0.9,0.6,1.5v2.9
									c0,0.6,0.1,1,0.2,1.4V13H70.2z M68.4,12.2c0.3,0,0.7-0.1,1-0.3s0.5-0.4,0.7-0.7V9.9h-0.8c-1.3,0-2,0.4-2,1.2
									c0,0.3,0.1,0.6,0.3,0.8S68,12.2,68.4,12.2z"/>
								<path class="st13" d="M74.9,11.4l1.5-4.8h1.2L74.9,14c-0.4,1.1-1,1.6-1.9,1.6l-0.2,0l-0.4-0.1v-0.9l0.3,0
									c0.4,0,0.7-0.1,0.9-0.2s0.4-0.4,0.5-0.8l0.2-0.6l-2.3-6.3h1.2L74.9,11.4z"/>
								<path class="st13" d="M86.8,5.1L83.3,13h-1.1l3.5-7.6h-4.6V4.5h5.8V5.1z"/>
								<path class="st13" d="M88.6,8.7L89,4.5h4.4v1h-3.5l-0.3,2.3c0.4-0.2,0.9-0.4,1.4-0.4c0.8,0,1.4,0.3,1.9,0.8s0.7,1.2,0.7,2.1
									c0,0.9-0.2,1.6-0.7,2.1s-1.1,0.8-2,0.8c-0.8,0-1.4-0.2-1.8-0.6s-0.7-1-0.8-1.7h1c0.1,0.5,0.2,0.9,0.5,1.1s0.7,0.4,1.1,0.4
									c0.5,0,0.9-0.2,1.2-0.5s0.4-0.8,0.4-1.4c0-0.6-0.2-1-0.5-1.4s-0.7-0.5-1.2-0.5c-0.5,0-0.8,0.1-1.1,0.3l-0.3,0.2L88.6,8.7z"
									/>
								<path class="st13" d="M100.1,9.4c0,1.3-0.2,2.2-0.7,2.8s-1.1,0.9-2,0.9c-0.9,0-1.6-0.3-2-0.9s-0.7-1.5-0.7-2.7V8.1
									c0-1.3,0.2-2.2,0.7-2.8s1.1-0.9,2-0.9c0.9,0,1.6,0.3,2,0.9s0.7,1.5,0.7,2.7V9.4z M99.1,7.9c0-0.9-0.1-1.6-0.4-2
									S98,5.2,97.4,5.2c-0.6,0-1,0.2-1.2,0.6s-0.4,1.1-0.4,1.9v1.7c0,0.9,0.1,1.6,0.4,2s0.7,0.7,1.2,0.7c0.5,0,0.9-0.2,1.2-0.6
									s0.4-1.1,0.4-2V7.9z"/>
								<path class="st13" d="M104.1,9.6c0,0.9-0.1,1.7-0.3,2.5s-0.6,1.5-1,2.2s-1,1.2-1.5,1.4l-0.2-0.7c0.6-0.5,1.1-1.2,1.5-2.1
									s0.6-2,0.6-3.2V9.5c0-0.8-0.1-1.6-0.3-2.3s-0.4-1.3-0.7-1.9s-0.7-1-1-1.3l0.2-0.7c0.5,0.3,1,0.8,1.5,1.4s0.8,1.4,1,2.2
									S104.1,8.7,104.1,9.6z"/>
							</g>
						</g>
						<g class="st2">
							<path class="st13" d="M49,13.5h-1.1v-9H49V13.5z"/>
							<path class="st13" d="M54.6,13.5c-0.1-0.1-0.1-0.3-0.2-0.7c-0.5,0.5-1.1,0.8-1.8,0.8c-0.6,0-1.1-0.2-1.5-0.5
								s-0.6-0.8-0.6-1.3c0-0.7,0.3-1.2,0.8-1.5s1.2-0.5,2.1-0.5h1.1V9.2c0-0.4-0.1-0.7-0.3-0.9s-0.6-0.3-1-0.3
								c-0.4,0-0.7,0.1-1,0.3s-0.4,0.4-0.4,0.7h-1.1c0-0.3,0.1-0.6,0.3-0.9s0.5-0.5,0.9-0.7S52.7,7,53.2,7c0.7,0,1.3,0.2,1.7,0.5
								s0.6,0.9,0.6,1.5V12c0,0.6,0.1,1,0.2,1.4v0.1H54.6z M52.8,12.7c0.3,0,0.7-0.1,1-0.3s0.5-0.4,0.7-0.7v-1.3h-0.8
								c-1.3,0-2,0.4-2,1.2c0,0.3,0.1,0.6,0.3,0.8S52.5,12.7,52.8,12.7z"/>
							<path class="st13" d="M62.6,10.4c0,1-0.2,1.7-0.7,2.3s-1,0.9-1.8,0.9c-0.8,0-1.4-0.3-1.9-0.8l-0.1,0.7h-1v-9h1.1v3.4
								c0.4-0.5,1-0.8,1.8-0.8s1.4,0.3,1.8,0.9S62.6,9.3,62.6,10.4L62.6,10.4z M61.5,10.3c0-0.7-0.1-1.3-0.4-1.7S60.4,8,59.9,8
								c-0.7,0-1.2,0.3-1.5,1v2.7c0.3,0.7,0.8,1,1.6,1c0.5,0,0.9-0.2,1.2-0.6S61.5,11.1,61.5,10.3z"/>
							<path class="st13" d="M66.6,13.6c-0.9,0-1.6-0.3-2.1-0.8s-0.8-1.3-0.8-2.3v-0.2c0-0.6,0.1-1.2,0.4-1.7s0.6-0.9,1-1.2
								S66,7,66.5,7c0.8,0,1.5,0.3,1.9,0.8s0.7,1.3,0.7,2.3v0.5h-4.3c0,0.6,0.2,1.1,0.5,1.5s0.8,0.6,1.3,0.6c0.4,0,0.7-0.1,1-0.2
								s0.5-0.4,0.7-0.6l0.7,0.5C68.5,13.2,67.7,13.6,66.6,13.6z M66.5,7.9c-0.4,0-0.8,0.2-1.1,0.5s-0.5,0.8-0.6,1.3H68V9.7
								c0-0.6-0.2-1-0.4-1.3S66.9,7.9,66.5,7.9z"/>
							<path class="st13" d="M71.5,13.5h-1.1v-9h1.1V13.5z"/>
							<path class="st13" d="M76.8,13.5V8h-1V7.2h1V6.5c0-0.7,0.2-1.2,0.5-1.6s0.9-0.6,1.5-0.6c0.2,0,0.5,0,0.7,0.1l-0.1,0.9
								c-0.2,0-0.4-0.1-0.6-0.1c-0.4,0-0.6,0.1-0.8,0.3s-0.3,0.5-0.3,0.9v0.7h1.4V8h-1.4v5.5H76.8z"/>
							<path class="st13" d="M80.1,10.3c0-0.6,0.1-1.2,0.4-1.7s0.6-0.9,1-1.1S82.4,7,83,7c0.9,0,1.6,0.3,2.1,0.9s0.8,1.4,0.8,2.4
								v0.1c0,0.6-0.1,1.2-0.4,1.7s-0.6,0.9-1,1.1s-0.9,0.4-1.5,0.4c-0.9,0-1.6-0.3-2.1-0.9S80.1,11.3,80.1,10.3L80.1,10.3z
								 M81.2,10.4c0,0.7,0.2,1.3,0.5,1.7s0.8,0.6,1.3,0.6c0.6,0,1-0.2,1.3-0.6s0.5-1,0.5-1.8c0-0.7-0.2-1.3-0.5-1.7
								S83.5,7.9,83,7.9c-0.5,0-1,0.2-1.3,0.6S81.2,9.6,81.2,10.4z"/>
							<path class="st13" d="M88.3,7.2l0,0.8C88.8,7.3,89.4,7,90.2,7c1.3,0,2,0.8,2,2.3v4.2h-1.1V9.3c0-0.5-0.1-0.8-0.3-1
								S90.3,8,89.9,8c-0.4,0-0.7,0.1-0.9,0.3S88.5,8.7,88.3,9v4.5h-1.1V7.2H88.3z"/>
							<path class="st13" d="M95.3,5.6v1.5h1.2V8h-1.2v3.9c0,0.3,0.1,0.4,0.2,0.6s0.3,0.2,0.5,0.2c0.1,0,0.3,0,0.5-0.1v0.9
								c-0.3,0.1-0.6,0.1-0.8,0.1c-0.5,0-0.8-0.1-1.1-0.4s-0.4-0.7-0.4-1.2V8h-1.2V7.2h1.2V5.6H95.3z"/>
							<path class="st13" d="M97.7,12.9c0-0.2,0.1-0.3,0.2-0.5s0.3-0.2,0.5-0.2s0.4,0.1,0.5,0.2s0.2,0.3,0.2,0.5
								c0,0.2-0.1,0.3-0.2,0.5s-0.3,0.2-0.5,0.2s-0.4-0.1-0.5-0.2S97.7,13.1,97.7,12.9z M97.8,7.8c0-0.2,0.1-0.3,0.2-0.5
								s0.3-0.2,0.5-0.2s0.4,0.1,0.5,0.2s0.2,0.3,0.2,0.5c0,0.2-0.1,0.3-0.2,0.5s-0.3,0.2-0.5,0.2S98,8.3,97.9,8.2
								S97.8,7.9,97.8,7.8z"/>
							<path class="st13" d="M106.7,8.1c-0.2,0-0.3,0-0.5,0c-0.7,0-1.2,0.3-1.4,0.9v4.5h-1.1V7.2h1.1l0,0.7c0.4-0.6,0.9-0.8,1.5-0.8
								c0.2,0,0.4,0,0.5,0.1V8.1z"/>
							<path class="st13" d="M107.3,10.3c0-0.6,0.1-1.2,0.4-1.7s0.6-0.9,1-1.1s0.9-0.4,1.5-0.4c0.9,0,1.6,0.3,2.1,0.9
								s0.8,1.4,0.8,2.4v0.1c0,0.6-0.1,1.2-0.4,1.7s-0.6,0.9-1,1.1s-0.9,0.4-1.5,0.4c-0.9,0-1.6-0.3-2.1-0.9S107.3,11.3,107.3,10.3
								L107.3,10.3z M108.4,10.4c0,0.7,0.2,1.3,0.5,1.7s0.8,0.6,1.3,0.6c0.6,0,1-0.2,1.3-0.6s0.5-1,0.5-1.8c0-0.7-0.2-1.3-0.5-1.7
								s-0.8-0.6-1.3-0.6c-0.5,0-1,0.2-1.3,0.6S108.4,9.6,108.4,10.4z"/>
							<path class="st13" d="M119.8,10.4c0,1-0.2,1.7-0.7,2.3s-1,0.9-1.8,0.9c-0.8,0-1.4-0.3-1.9-0.8l-0.1,0.7h-1v-9h1.1v3.4
								c0.4-0.5,1-0.8,1.8-0.8s1.4,0.3,1.8,0.9S119.8,9.3,119.8,10.4L119.8,10.4z M118.7,10.3c0-0.7-0.1-1.3-0.4-1.7
								S117.6,8,117.1,8c-0.7,0-1.2,0.3-1.5,1v2.7c0.3,0.7,0.8,1,1.6,1c0.5,0,0.9-0.2,1.2-0.6S118.7,11.1,118.7,10.3z"/>
							<path class="st13" d="M120.9,10.3c0-0.6,0.1-1.2,0.4-1.7s0.6-0.9,1-1.1s0.9-0.4,1.5-0.4c0.9,0,1.6,0.3,2.1,0.9
								s0.8,1.4,0.8,2.4v0.1c0,0.6-0.1,1.2-0.4,1.7s-0.6,0.9-1,1.1s-0.9,0.4-1.5,0.4c-0.9,0-1.6-0.3-2.1-0.9S120.9,11.3,120.9,10.3
								L120.9,10.3z M122,10.4c0,0.7,0.2,1.3,0.5,1.7s0.8,0.6,1.3,0.6c0.6,0,1-0.2,1.3-0.6s0.5-1,0.5-1.8c0-0.7-0.2-1.3-0.5-1.7
								s-0.8-0.6-1.3-0.6c-0.5,0-1,0.2-1.3,0.6S122,9.6,122,10.4z"/>
							<path class="st13" d="M129.5,5.6v1.5h1.2V8h-1.2v3.9c0,0.3,0.1,0.4,0.2,0.6s0.3,0.2,0.5,0.2c0.1,0,0.3,0,0.5-0.1v0.9
								c-0.3,0.1-0.6,0.1-0.8,0.1c-0.5,0-0.8-0.1-1.1-0.4s-0.4-0.7-0.4-1.2V8h-1.2V7.2h1.2V5.6H129.5z"/>
							<path class="st13" d="M131.5,10.3c0-0.6,0.1-1.2,0.4-1.7s0.6-0.9,1-1.1s0.9-0.4,1.5-0.4c0.9,0,1.6,0.3,2.1,0.9
								s0.8,1.4,0.8,2.4v0.1c0,0.6-0.1,1.2-0.4,1.7s-0.6,0.9-1,1.1s-0.9,0.4-1.5,0.4c-0.9,0-1.6-0.3-2.1-0.9S131.5,11.3,131.5,10.3
								L131.5,10.3z M132.6,10.4c0,0.7,0.2,1.3,0.5,1.7s0.8,0.6,1.3,0.6c0.6,0,1-0.2,1.3-0.6s0.5-1,0.5-1.8c0-0.7-0.2-1.3-0.5-1.7
								s-0.8-0.6-1.3-0.6c-0.5,0-1,0.2-1.3,0.6S132.6,9.6,132.6,10.4z"/>
							<path class="st13" d="M138.6,15.2l-0.6-0.4c0.4-0.5,0.6-1,0.6-1.6v-1h1.1v0.8c0,0.4-0.1,0.8-0.3,1.2S138.9,15,138.6,15.2z"/>
							<path class="st13" d="M145,7.2l0,0.7c0.5-0.5,1.1-0.8,1.9-0.8c0.9,0,1.5,0.3,1.8,1c0.2-0.3,0.5-0.6,0.8-0.7s0.7-0.3,1.2-0.3
								c1.4,0,2.1,0.7,2.1,2.2v4.2h-1.1V9.3c0-0.5-0.1-0.8-0.3-1s-0.6-0.3-1-0.3c-0.4,0-0.7,0.1-1,0.4s-0.4,0.6-0.5,1v4.2h-1.1V9.3
								c0-0.9-0.5-1.4-1.4-1.4c-0.7,0-1.2,0.3-1.5,0.9v4.6H144V7.2H145z"/>
							<path class="st13" d="M157.1,13.6c-0.9,0-1.6-0.3-2.1-0.8s-0.8-1.3-0.8-2.3v-0.2c0-0.6,0.1-1.2,0.4-1.7s0.6-0.9,1-1.2
								S156.5,7,157,7c0.8,0,1.5,0.3,1.9,0.8s0.7,1.3,0.7,2.3v0.5h-4.3c0,0.6,0.2,1.1,0.5,1.5s0.8,0.6,1.3,0.6c0.4,0,0.7-0.1,1-0.2
								s0.5-0.4,0.7-0.6l0.7,0.5C159,13.2,158.2,13.6,157.1,13.6z M157,7.9c-0.4,0-0.8,0.2-1.1,0.5s-0.5,0.8-0.6,1.3h3.2V9.7
								c0-0.6-0.2-1-0.4-1.3S157.5,7.9,157,7.9z"/>
							<path class="st13" d="M160.6,10.3c0-1,0.2-1.8,0.7-2.3s1.1-0.9,1.8-0.9c0.7,0,1.3,0.3,1.8,0.8V4.5h1.1v9h-1l-0.1-0.7
								c-0.4,0.5-1,0.8-1.8,0.8c-0.7,0-1.3-0.3-1.8-0.9S160.6,11.3,160.6,10.3L160.6,10.3z M161.7,10.4c0,0.7,0.1,1.3,0.4,1.7
								s0.7,0.6,1.2,0.6c0.7,0,1.2-0.3,1.5-0.9V8.9c-0.3-0.6-0.8-0.9-1.5-0.9c-0.5,0-0.9,0.2-1.2,0.6S161.7,9.6,161.7,10.4z"/>
							<path class="st13" d="M167.6,5.5c0-0.2,0.1-0.3,0.2-0.4s0.3-0.2,0.5-0.2s0.4,0.1,0.5,0.2s0.2,0.3,0.2,0.4s-0.1,0.3-0.2,0.4
								s-0.3,0.2-0.5,0.2s-0.4-0.1-0.5-0.2S167.6,5.7,167.6,5.5z M168.8,13.5h-1.1V7.2h1.1V13.5z"/>
							<path class="st13" d="M174.5,12.9c-0.4,0.5-1,0.7-1.9,0.7c-0.7,0-1.2-0.2-1.5-0.6s-0.5-1-0.5-1.7V7.2h1.1v4.1
								c0,1,0.4,1.4,1.2,1.4c0.8,0,1.4-0.3,1.7-0.9V7.2h1.1v6.3h-1L174.5,12.9z"/>
							<path class="st13" d="M178.2,7.2l0,0.7c0.5-0.5,1.1-0.8,1.9-0.8c0.9,0,1.5,0.3,1.8,1c0.2-0.3,0.5-0.6,0.8-0.7
								s0.7-0.3,1.2-0.3c1.4,0,2.1,0.7,2.1,2.2v4.2H185V9.3c0-0.5-0.1-0.8-0.3-1s-0.6-0.3-1-0.3c-0.4,0-0.7,0.1-1,0.4
								s-0.4,0.6-0.5,1v4.2h-1.1V9.3c0-0.9-0.5-1.4-1.4-1.4c-0.7,0-1.2,0.3-1.5,0.9v4.6h-1.1V7.2H178.2z"/>
							<path class="st13" d="M194.1,13.5H193V6.3l-2.2,0.8v-1l3.1-1.2h0.2V13.5z"/>
							<path class="st13" d="M201.5,5v0.9h-0.2c-0.8,0-1.5,0.3-2,0.8s-0.8,1.2-0.9,2c0.4-0.5,1.1-0.8,1.8-0.8c0.7,0,1.3,0.3,1.8,0.8
								s0.7,1.2,0.7,2c0,0.9-0.2,1.6-0.7,2.1s-1.1,0.8-1.9,0.8c-0.8,0-1.5-0.3-2-0.9s-0.8-1.4-0.8-2.4V9.8c0-1.6,0.3-2.8,1-3.6
								s1.7-1.3,3-1.3H201.5z M200.1,8.8c-0.4,0-0.7,0.1-1,0.3s-0.5,0.5-0.7,0.8v0.4c0,0.7,0.2,1.3,0.5,1.7s0.7,0.6,1.2,0.6
								c0.5,0,0.9-0.2,1.2-0.5s0.4-0.8,0.4-1.4c0-0.6-0.1-1.1-0.4-1.4S200.6,8.8,200.1,8.8z"/>
							<path class="st13" d="M209.5,10.4c0,1-0.2,1.7-0.7,2.3s-1,0.9-1.8,0.9c-0.8,0-1.4-0.2-1.8-0.7v3.1h-1.1V7.2h1l0.1,0.7
								c0.4-0.5,1.1-0.8,1.8-0.8c0.8,0,1.4,0.3,1.8,0.9S209.5,9.3,209.5,10.4L209.5,10.4z M208.4,10.3c0-0.7-0.2-1.3-0.5-1.7
								S207.2,8,206.7,8c-0.7,0-1.1,0.3-1.5,0.9v3c0.3,0.6,0.8,0.9,1.5,0.9c0.5,0,0.9-0.2,1.2-0.6S208.4,11.1,208.4,10.3z"/>
							<path class="st13" d="M212.3,5.6v1.5h1.2V8h-1.2v3.9c0,0.3,0.1,0.4,0.2,0.6s0.3,0.2,0.5,0.2c0.1,0,0.3,0,0.5-0.1v0.9
								c-0.3,0.1-0.6,0.1-0.8,0.1c-0.5,0-0.8-0.1-1.1-0.4s-0.4-0.7-0.4-1.2V8h-1.2V7.2h1.2V5.6H212.3z"/>
						</g>
						<g class="st2">
							<path class="st13" d="M49,29.5h-1.1v-9H49V29.5z"/>
							<path class="st13" d="M54.6,29.5c-0.1-0.1-0.1-0.3-0.2-0.7c-0.5,0.5-1.1,0.8-1.8,0.8c-0.6,0-1.1-0.2-1.5-0.5
								s-0.6-0.8-0.6-1.3c0-0.7,0.3-1.2,0.8-1.5s1.2-0.5,2.1-0.5h1.1v-0.5c0-0.4-0.1-0.7-0.3-0.9s-0.6-0.3-1-0.3
								c-0.4,0-0.7,0.1-1,0.3s-0.4,0.4-0.4,0.7h-1.1c0-0.3,0.1-0.6,0.3-0.9s0.5-0.5,0.9-0.7s0.8-0.3,1.3-0.3c0.7,0,1.3,0.2,1.7,0.5
								s0.6,0.9,0.6,1.5V28c0,0.6,0.1,1,0.2,1.4v0.1H54.6z M52.8,28.7c0.3,0,0.7-0.1,1-0.3s0.5-0.4,0.7-0.7v-1.3h-0.8
								c-1.3,0-2,0.4-2,1.2c0,0.3,0.1,0.6,0.3,0.8S52.5,28.7,52.8,28.7z"/>
							<path class="st13" d="M62.6,26.4c0,1-0.2,1.7-0.7,2.3s-1,0.9-1.8,0.9c-0.8,0-1.4-0.3-1.9-0.8l-0.1,0.7h-1v-9h1.1v3.4
								c0.4-0.5,1-0.8,1.8-0.8s1.4,0.3,1.8,0.9S62.6,25.3,62.6,26.4L62.6,26.4z M61.5,26.3c0-0.7-0.1-1.3-0.4-1.7S60.4,24,59.9,24
								c-0.7,0-1.2,0.3-1.5,1v2.7c0.3,0.7,0.8,1,1.6,1c0.5,0,0.9-0.2,1.2-0.6S61.5,27.1,61.5,26.3z"/>
							<path class="st13" d="M66.6,29.6c-0.9,0-1.6-0.3-2.1-0.8s-0.8-1.3-0.8-2.3v-0.2c0-0.6,0.1-1.2,0.4-1.7s0.6-0.9,1-1.2
								S66,23,66.5,23c0.8,0,1.5,0.3,1.9,0.8s0.7,1.3,0.7,2.3v0.5h-4.3c0,0.6,0.2,1.1,0.5,1.5s0.8,0.6,1.3,0.6c0.4,0,0.7-0.1,1-0.2
								s0.5-0.4,0.7-0.6l0.7,0.5C68.5,29.2,67.7,29.6,66.6,29.6z M66.5,23.9c-0.4,0-0.8,0.2-1.1,0.5s-0.5,0.8-0.6,1.3H68v-0.1
								c0-0.6-0.2-1-0.4-1.3S66.9,23.9,66.5,23.9z"/>
							<path class="st13" d="M71.5,29.5h-1.1v-9h1.1V29.5z"/>
							<path class="st13" d="M78.8,28.7c0.4,0,0.7-0.1,1-0.4s0.4-0.5,0.5-0.9h1c0,0.4-0.1,0.7-0.4,1s-0.5,0.6-0.9,0.8
								s-0.8,0.3-1.2,0.3c-0.9,0-1.5-0.3-2.1-0.9S76,27.4,76,26.4v-0.2c0-0.6,0.1-1.2,0.3-1.6s0.6-0.9,1-1.1s0.9-0.4,1.5-0.4
								c0.7,0,1.3,0.2,1.8,0.6s0.7,1,0.8,1.7h-1c0-0.4-0.2-0.7-0.5-1s-0.6-0.4-1-0.4c-0.6,0-1,0.2-1.3,0.6s-0.5,1-0.5,1.7v0.2
								c0,0.7,0.2,1.3,0.5,1.7S78.2,28.7,78.8,28.7z"/>
							<path class="st13" d="M82.2,26.3c0-0.6,0.1-1.2,0.4-1.7s0.6-0.9,1-1.1s0.9-0.4,1.5-0.4c0.9,0,1.6,0.3,2.1,0.9
								s0.8,1.4,0.8,2.4v0.1c0,0.6-0.1,1.2-0.4,1.7s-0.6,0.9-1,1.1s-0.9,0.4-1.5,0.4c-0.9,0-1.6-0.3-2.1-0.9S82.2,27.3,82.2,26.3
								L82.2,26.3z M83.3,26.4c0,0.7,0.2,1.3,0.5,1.7s0.8,0.6,1.3,0.6c0.6,0,1-0.2,1.3-0.6s0.5-1,0.5-1.8c0-0.7-0.2-1.3-0.5-1.7
								s-0.8-0.6-1.3-0.6c-0.5,0-1,0.2-1.3,0.6S83.3,25.6,83.3,26.4z"/>
							<path class="st13" d="M90.5,29.5h-1.1v-9h1.1V29.5z"/>
							<path class="st13" d="M92,26.3c0-0.6,0.1-1.2,0.4-1.7s0.6-0.9,1-1.1s0.9-0.4,1.5-0.4c0.9,0,1.6,0.3,2.1,0.9s0.8,1.4,0.8,2.4
								v0.1c0,0.6-0.1,1.2-0.4,1.7s-0.6,0.9-1,1.1s-0.9,0.4-1.5,0.4c-0.9,0-1.6-0.3-2.1-0.9S92,27.3,92,26.3L92,26.3z M93.1,26.4
								c0,0.7,0.2,1.3,0.5,1.7s0.8,0.6,1.3,0.6c0.6,0,1-0.2,1.3-0.6s0.5-1,0.5-1.8c0-0.7-0.2-1.3-0.5-1.7s-0.8-0.6-1.3-0.6
								c-0.5,0-1,0.2-1.3,0.6S93.1,25.6,93.1,26.4z"/>
							<path class="st13" d="M102.2,24.1c-0.2,0-0.3,0-0.5,0c-0.7,0-1.2,0.3-1.4,0.9v4.5h-1.1v-6.3h1.1l0,0.7
								c0.4-0.6,0.9-0.8,1.5-0.8c0.2,0,0.4,0,0.5,0.1V24.1z"/>
							<path class="st13" d="M109.8,27.1h-1.5l-0.5,2.4H107l0.5-2.4H106v-0.8h1.6l0.4-2.1h-1.5v-0.8h1.7l0.5-2.4h0.8l-0.5,2.4h1.5
								L111,21h0.8l-0.5,2.4h1.2v0.8h-1.4l-0.4,2.1h1.3v0.8h-1.5l-0.5,2.4h-0.8L109.8,27.1z M108.4,26.3h1.5l0.4-2.1h-1.5
								L108.4,26.3z"/>
							<path class="st13" d="M118,26.6h1.2v0.9H118v2h-1.1v-2H113v-0.6l3.8-5.9h1.2V26.6z M114.3,26.6h2.7v-4.2l-0.1,0.2L114.3,26.6
								z"/>
							<path class="st13" d="M125.8,29.5h-5.6v-0.8l3-3.3c0.4-0.5,0.7-0.9,0.9-1.2s0.2-0.6,0.2-1c0-0.4-0.1-0.8-0.4-1.1
								s-0.6-0.4-1.1-0.4c-0.5,0-1,0.2-1.3,0.5s-0.4,0.7-0.4,1.3H120c0-0.8,0.3-1.4,0.8-1.9s1.2-0.7,2-0.7c0.8,0,1.4,0.2,1.9,0.6
								s0.7,1,0.7,1.7c0,0.8-0.5,1.8-1.6,3l-2.3,2.5h4.3V29.5z"/>
							<path class="st13" d="M131.5,26.6h1.2v0.9h-1.2v2h-1.1v-2h-3.9v-0.6l3.8-5.9h1.2V26.6z M127.7,26.6h2.7v-4.2l-0.1,0.2
								L127.7,26.6z"/>
							<path class="st13" d="M139.2,29.5h-5.6v-0.8l3-3.3c0.4-0.5,0.7-0.9,0.9-1.2s0.2-0.6,0.2-1c0-0.4-0.1-0.8-0.4-1.1
								s-0.6-0.4-1.1-0.4c-0.5,0-1,0.2-1.3,0.5s-0.4,0.7-0.4,1.3h-1.1c0-0.8,0.3-1.4,0.8-1.9s1.2-0.7,2-0.7c0.8,0,1.4,0.2,1.9,0.6
								s0.7,1,0.7,1.7c0,0.8-0.5,1.8-1.6,3l-2.3,2.5h4.3V29.5z"/>
							<path class="st13" d="M145,26.6h1.2v0.9H145v2h-1.1v-2H140v-0.6l3.8-5.9h1.2V26.6z M141.2,26.6h2.7v-4.2l-0.1,0.2L141.2,26.6
								z"/>
							<path class="st13" d="M152.7,29.5h-5.6v-0.8l3-3.3c0.4-0.5,0.7-0.9,0.9-1.2s0.2-0.6,0.2-1c0-0.4-0.1-0.8-0.4-1.1
								s-0.6-0.4-1.1-0.4c-0.5,0-1,0.2-1.3,0.5s-0.4,0.7-0.4,1.3h-1.1c0-0.8,0.3-1.4,0.8-1.9s1.2-0.7,2-0.7c0.8,0,1.4,0.2,1.9,0.6
								s0.7,1,0.7,1.7c0,0.8-0.5,1.8-1.6,3l-2.3,2.5h4.3V29.5z"/>
							<path class="st13" d="M156.9,26c0-0.9,0.1-1.7,0.4-2.5s0.6-1.6,1.1-2.2s1-1.1,1.5-1.4l0.2,0.7c-0.6,0.4-1,1.1-1.4,2
								s-0.6,1.9-0.6,3l0,0.5c0,1.5,0.3,2.8,0.8,3.9c0.3,0.7,0.7,1.2,1.2,1.6l-0.2,0.7c-0.5-0.3-1-0.8-1.5-1.5
								C157.4,29.5,156.9,27.9,156.9,26z"/>
							<path class="st13" d="M160.8,26.3c0-1,0.2-1.8,0.7-2.4s1.1-0.9,1.8-0.9c0.8,0,1.4,0.3,1.8,0.8l0.1-0.7h1v6.2
								c0,0.8-0.2,1.5-0.7,1.9s-1.1,0.7-2,0.7c-0.5,0-0.9-0.1-1.3-0.3s-0.8-0.5-1-0.8l0.6-0.7c0.5,0.6,1,0.9,1.7,0.9
								c0.5,0,0.9-0.1,1.2-0.4s0.4-0.7,0.4-1.3v-0.5c-0.4,0.5-1,0.8-1.8,0.8c-0.7,0-1.3-0.3-1.8-0.9S160.8,27.3,160.8,26.3z
								 M161.9,26.4c0,0.7,0.1,1.3,0.4,1.7s0.7,0.6,1.2,0.6c0.7,0,1.2-0.3,1.5-0.9v-2.9c-0.3-0.6-0.8-0.9-1.5-0.9
								c-0.5,0-0.9,0.2-1.2,0.6S161.9,25.6,161.9,26.4z"/>
							<path class="st13" d="M170.8,24.1c-0.2,0-0.3,0-0.5,0c-0.7,0-1.2,0.3-1.4,0.9v4.5h-1.1v-6.3h1.1l0,0.7
								c0.4-0.6,0.9-0.8,1.5-0.8c0.2,0,0.4,0,0.5,0.1V24.1z"/>
							<path class="st13" d="M175.5,29.5c-0.1-0.1-0.1-0.3-0.2-0.7c-0.5,0.5-1.1,0.8-1.8,0.8c-0.6,0-1.1-0.2-1.5-0.5
								s-0.6-0.8-0.6-1.3c0-0.7,0.3-1.2,0.8-1.5s1.2-0.5,2.1-0.5h1.1v-0.5c0-0.4-0.1-0.7-0.3-0.9s-0.6-0.3-1-0.3
								c-0.4,0-0.7,0.1-1,0.3s-0.4,0.4-0.4,0.7h-1.1c0-0.3,0.1-0.6,0.3-0.9s0.5-0.5,0.9-0.7s0.8-0.3,1.3-0.3c0.7,0,1.3,0.2,1.7,0.5
								s0.6,0.9,0.6,1.5V28c0,0.6,0.1,1,0.2,1.4v0.1H175.5z M173.7,28.7c0.3,0,0.7-0.1,1-0.3s0.5-0.4,0.7-0.7v-1.3h-0.8
								c-1.3,0-2,0.4-2,1.2c0,0.3,0.1,0.6,0.3,0.8S173.4,28.7,173.7,28.7z"/>
							<path class="st13" d="M180.2,27.9l1.5-4.8h1.2l-2.5,7.3c-0.4,1.1-1,1.6-1.9,1.6l-0.2,0l-0.4-0.1v-0.9l0.3,0
								c0.4,0,0.7-0.1,0.9-0.2s0.4-0.4,0.5-0.8l0.2-0.6l-2.3-6.3h1.2L180.2,27.9z"/>
							<path class="st13" d="M190.8,25.8c-0.2,0.3-0.5,0.5-0.8,0.7s-0.7,0.2-1,0.2c-0.5,0-0.9-0.1-1.3-0.4s-0.6-0.6-0.8-1
								s-0.3-0.9-0.3-1.5c0-0.6,0.1-1.1,0.3-1.5s0.5-0.8,0.9-1s0.9-0.4,1.4-0.4c0.8,0,1.5,0.3,2,0.9s0.7,1.5,0.7,2.6v0.3
								c0,1.7-0.3,2.9-1,3.6s-1.6,1.2-3,1.2h-0.2v-0.9h0.2c0.9,0,1.6-0.2,2.1-0.7C190.5,27.4,190.8,26.7,190.8,25.8z M189.1,25.8
								c0.4,0,0.7-0.1,1-0.3s0.5-0.5,0.7-0.8v-0.4c0-0.7-0.2-1.3-0.5-1.7s-0.7-0.7-1.2-0.7c-0.5,0-0.9,0.2-1.1,0.5s-0.4,0.8-0.4,1.4
								c0,0.6,0.1,1.1,0.4,1.4S188.7,25.8,189.1,25.8z"/>
							<path class="st13" d="M198.7,25.9c0,1.3-0.2,2.2-0.7,2.8s-1.1,0.9-2,0.9c-0.9,0-1.6-0.3-2-0.9s-0.7-1.5-0.7-2.7v-1.4
								c0-1.3,0.2-2.2,0.7-2.8s1.1-0.9,2-0.9c0.9,0,1.6,0.3,2,0.9s0.7,1.5,0.7,2.7V25.9z M197.7,24.4c0-0.9-0.1-1.6-0.4-2
								s-0.7-0.6-1.2-0.6c-0.6,0-1,0.2-1.2,0.6s-0.4,1.1-0.4,1.9V26c0,0.9,0.1,1.6,0.4,2s0.7,0.7,1.2,0.7c0.5,0,0.9-0.2,1.2-0.6
								s0.4-1.1,0.4-2V24.4z"/>
							<path class="st13" d="M205.5,25.9c0,1.3-0.2,2.2-0.7,2.8s-1.1,0.9-2,0.9c-0.9,0-1.6-0.3-2-0.9s-0.7-1.5-0.7-2.7v-1.4
								c0-1.3,0.2-2.2,0.7-2.8s1.1-0.9,2-0.9c0.9,0,1.6,0.3,2,0.9s0.7,1.5,0.7,2.7V25.9z M204.4,24.4c0-0.9-0.1-1.6-0.4-2
								s-0.7-0.6-1.2-0.6c-0.6,0-1,0.2-1.2,0.6s-0.4,1.1-0.4,1.9V26c0,0.9,0.1,1.6,0.4,2s0.7,0.7,1.2,0.7c0.5,0,0.9-0.2,1.2-0.6
								s0.4-1.1,0.4-2V24.4z"/>
							<path class="st13" d="M209.5,26.1c0,0.9-0.1,1.7-0.3,2.5s-0.6,1.5-1,2.2s-1,1.2-1.5,1.4l-0.2-0.7c0.6-0.5,1.1-1.2,1.5-2.1
								s0.6-2,0.6-3.2V26c0-0.8-0.1-1.6-0.3-2.3s-0.4-1.3-0.7-1.9s-0.7-1-1-1.3l0.2-0.7c0.5,0.3,1,0.8,1.5,1.4s0.8,1.4,1,2.2
								S209.5,25.2,209.5,26.1z"/>
						</g>
					</g>
				</g>
			</g>
		</g>
	</g>
</g>
</svg>
