<?xml version="1.0" encoding="utf-8"?>
<!-- Generator: Adobe Illustrator 21.0.2, SVG Export Plug-In . SVG Version: 6.00 Build 0)  -->
<svg version="1.1" id="Layer_1" xmlns="http://www.w3.org/2000/svg" xmlns:xlink="http://www.w3.org/1999/xlink" x="0px" y="0px"
	 width="641px" height="336px" viewBox="0 0 641 336" style="enable-background:new 0 0 641 336;" xml:space="preserve">
<style type="text/css">
	.st0{filter:url(#filter-2);}
	.st1{fill:#FFFFFF;}
	.st2{enable-background:new    ;}
	.st3{fill:#424242;}
	.st4{fill:#FFFFFF;stroke:#BDBDBD;}
	.st5{fill:#CD382F;}
	.st6{fill:#333333;}
	.st7{fill:#EC407A;}
	.st8{fill:none;stroke:#EC407A;}
	.st9{fill:none;stroke:#BDBDBD;}
</style>
<filter  filterUnits="objectBoundingBox" height="104.3%" id="filter-2" width="102.2%" x="-1.1%" y="-1.5%">
	<feOffset  dx="0" dy="2" in="SourceAlpha" result="shadowOffsetOuter1"></feOffset>
	<feGaussianBlur  in="shadowOffsetOuter1" result="shadowBlurOuter1" stdDeviation="2"></feGaussianBlur>
	<feColorMatrix  in="shadowBlurOuter1" type="matrix" values="0 0 0 0 0   0 0 0 0 0   0 0 0 0 0  0 0 0 0.2 0"></feColorMatrix>
</filter>
<title>Required-group-image</title>
<desc>Created with Sketch.</desc>
<g id="_x2A_Document_x2A_">
	<g id="_x32__x29_-Specs-_x26_-States" transform="translate(-355.000000, -2259.000000)">
		<g id="Required-group" transform="translate(0.000000, 2261.000000)">
			<g id="Required-group-image" transform="translate(359.000000, 0.000000)">
				<g id="documentation-_x2F_-img-container">
					<g id="img-container-span-8">
						<g class="st0">
							<rect id="path-1_2_" width="633" height="328"/>
						</g>
						<g>
							<rect id="path-1_1_" class="st1" width="633" height="328"/>
						</g>
					</g>
				</g>
				<g id="Checkbox-Group" transform="translate(159.000000, 70.000000)">
					<g id="Checkbox" transform="translate(14.000000, 117.000000)">
						<g class="st2">
							<path class="st3" d="M33.1,11.7c0,1.1-0.2,2.1-0.6,2.9s-0.9,1.5-1.6,1.9s-1.5,0.7-2.4,0.7c-0.9,0-1.7-0.2-2.4-0.7
								c-0.7-0.4-1.2-1.1-1.6-1.9s-0.6-1.8-0.6-2.8V11c0-1.1,0.2-2.1,0.6-2.9c0.4-0.8,0.9-1.5,1.6-1.9s1.5-0.7,2.4-0.7
								c0.9,0,1.7,0.2,2.4,0.7s1.2,1.1,1.6,1.9s0.6,1.8,0.6,2.9V11.7z M31.6,10.9c0-1.3-0.3-2.4-0.8-3.1c-0.5-0.7-1.3-1.1-2.3-1.1
								c-0.9,0-1.7,0.4-2.2,1.1c-0.5,0.7-0.8,1.7-0.8,3v0.8c0,1.3,0.3,2.3,0.8,3.1c0.5,0.7,1.3,1.1,2.3,1.1c1,0,1.7-0.4,2.2-1.1
								s0.8-1.7,0.8-3V10.9z"/>
						</g>
						<g class="st2">
							<path class="st3" d="M42.2,12.9c0,1.3-0.3,2.3-0.9,3.1c-0.6,0.8-1.4,1.2-2.4,1.2c-1,0-1.8-0.3-2.4-1v4.1h-1.4V8.5h1.3
								l0.1,0.9c0.6-0.7,1.4-1.1,2.5-1.1c1,0,1.8,0.4,2.4,1.1c0.6,0.8,0.9,1.8,0.9,3.2V12.9z M40.8,12.7c0-1-0.2-1.7-0.6-2.3
								s-1-0.8-1.7-0.8c-0.9,0-1.5,0.4-2,1.2v4c0.4,0.8,1.1,1.2,2,1.2c0.7,0,1.2-0.3,1.7-0.8C40.6,14.6,40.8,13.8,40.8,12.7z"/>
							<path class="st3" d="M46,6.5v2h1.6v1.1H46v5.2c0,0.3,0.1,0.6,0.2,0.8c0.1,0.2,0.4,0.3,0.7,0.3c0.2,0,0.4,0,0.7-0.1V17
								c-0.4,0.1-0.8,0.2-1.1,0.2c-0.6,0-1.1-0.2-1.5-0.6s-0.5-0.9-0.5-1.7V9.7H43V8.5h1.5v-2H46z"/>
							<path class="st3" d="M49.3,6.3c0-0.2,0.1-0.4,0.2-0.6c0.1-0.2,0.4-0.2,0.6-0.2s0.5,0.1,0.6,0.2C50.9,5.9,51,6.1,51,6.3
								s-0.1,0.4-0.2,0.6c-0.1,0.2-0.4,0.2-0.6,0.2S49.7,7,49.5,6.9C49.4,6.7,49.3,6.5,49.3,6.3z M50.9,17h-1.4V8.5h1.4V17z"/>
							<path class="st3" d="M52.8,12.7c0-0.8,0.2-1.6,0.5-2.2c0.3-0.7,0.8-1.2,1.4-1.5c0.6-0.4,1.2-0.5,2-0.5c1.2,0,2.1,0.4,2.8,1.2
								s1.1,1.9,1.1,3.2v0.1c0,0.8-0.2,1.6-0.5,2.2c-0.3,0.7-0.8,1.2-1.4,1.5s-1.3,0.5-2,0.5c-1.1,0-2.1-0.4-2.8-1.2
								s-1.1-1.9-1.1-3.2V12.7z M54.2,12.9c0,0.9,0.2,1.7,0.7,2.3c0.4,0.6,1,0.9,1.7,0.9c0.7,0,1.3-0.3,1.8-0.9
								c0.4-0.6,0.6-1.4,0.6-2.4c0-0.9-0.2-1.7-0.7-2.3c-0.4-0.6-1-0.9-1.8-0.9c-0.7,0-1.3,0.3-1.7,0.9S54.2,11.8,54.2,12.9z"/>
							<path class="st3" d="M63.7,8.5l0,1.1c0.6-0.8,1.5-1.2,2.5-1.2c1.8,0,2.7,1,2.7,3V17h-1.4v-5.6c0-0.6-0.1-1.1-0.4-1.4
								s-0.7-0.4-1.3-0.4c-0.5,0-0.9,0.1-1.2,0.4c-0.4,0.2-0.6,0.6-0.8,1v6h-1.4V8.5H63.7z"/>
						</g>
						<g class="st2">
							<path class="st3" d="M77.1,10.6h1.1c0.7,0,1.2-0.2,1.6-0.5s0.6-0.8,0.6-1.4c0-1.3-0.7-2-2-2c-0.6,0-1.1,0.2-1.5,0.5
								c-0.4,0.4-0.6,0.8-0.6,1.4h-1.4c0-0.9,0.3-1.6,1-2.2c0.7-0.6,1.5-0.9,2.5-0.9c1.1,0,1.9,0.3,2.5,0.9s0.9,1.4,0.9,2.4
								c0,0.5-0.2,1-0.5,1.4s-0.8,0.8-1.3,1c0.6,0.2,1.1,0.5,1.4,1c0.3,0.5,0.5,1,0.5,1.7c0,1-0.3,1.8-1,2.4
								c-0.7,0.6-1.5,0.9-2.6,0.9c-1.1,0-1.9-0.3-2.6-0.9c-0.7-0.6-1-1.3-1-2.3h1.5c0,0.6,0.2,1.1,0.6,1.4s0.9,0.5,1.6,0.5
								c0.7,0,1.2-0.2,1.6-0.5c0.4-0.4,0.6-0.9,0.6-1.6c0-0.7-0.2-1.2-0.6-1.5s-1-0.5-1.8-0.5h-1.1V10.6z"/>
						</g>
						<path id="Fill-60-Copy" class="st4" d="M1.5,17C0.7,17,0,16.3,0,15.5v-12C0,2.7,0.7,2,1.5,2h12C14.3,2,15,2.7,15,3.5v12
							c0,0.8-0.7,1.5-1.5,1.5H1.5z"/>
					</g>
					<g class="st2">
						<path class="st5" d="M3.1,54.3l-2.4-0.7l0.4-1.2l2.4,0.9l-0.1-2.7h1.2l-0.1,2.7l2.3-0.9l0.4,1.2l-2.4,0.7l1.5,2.1l-1,0.7
							L3.9,55l-1.4,2.2l-1-0.7L3.1,54.3z"/>
					</g>
					<g class="st2">
						<path class="st6" d="M16.2,56.9c-1.3-0.4-2.2-0.8-2.8-1.4s-0.9-1.2-0.9-2c0-0.9,0.4-1.6,1.1-2.2c0.7-0.6,1.6-0.9,2.8-0.9
							c0.8,0,1.5,0.2,2.1,0.5c0.6,0.3,1.1,0.7,1.4,1.2s0.5,1.1,0.5,1.7h-1.5c0-0.7-0.2-1.2-0.7-1.6s-1.1-0.6-1.9-0.6
							c-0.7,0-1.3,0.2-1.7,0.5S14,53,14,53.5c0,0.5,0.2,0.9,0.6,1.2c0.4,0.3,1.1,0.6,2,0.9c0.9,0.3,1.7,0.6,2.2,0.9
							c0.5,0.3,0.9,0.7,1.2,1.1s0.4,0.9,0.4,1.5c0,0.9-0.4,1.7-1.1,2.2s-1.7,0.8-2.9,0.8c-0.8,0-1.5-0.1-2.2-0.4
							c-0.7-0.3-1.2-0.7-1.6-1.2s-0.6-1.1-0.6-1.8h1.5c0,0.7,0.3,1.2,0.8,1.6s1.2,0.6,2,0.6c0.8,0,1.4-0.2,1.8-0.5s0.6-0.8,0.6-1.3
							s-0.2-1-0.6-1.3S17.2,57.2,16.2,56.9z"/>
						<path class="st6" d="M25.7,62.2c-1.1,0-2.1-0.4-2.8-1.1s-1.1-1.8-1.1-3v-0.3c0-0.8,0.2-1.6,0.5-2.2s0.8-1.2,1.3-1.5
							c0.6-0.4,1.2-0.6,1.9-0.6c1.1,0,2,0.4,2.6,1.1s0.9,1.8,0.9,3.1v0.6h-5.7c0,0.8,0.3,1.5,0.7,2c0.5,0.5,1.1,0.8,1.8,0.8
							c0.5,0,0.9-0.1,1.3-0.3c0.4-0.2,0.7-0.5,0.9-0.8l0.9,0.7C28.2,61.6,27.1,62.2,25.7,62.2z M25.6,54.6c-0.6,0-1.1,0.2-1.5,0.6
							c-0.4,0.4-0.6,1-0.7,1.8h4.2v-0.1c0-0.7-0.2-1.3-0.6-1.7C26.6,54.8,26.2,54.6,25.6,54.6z"/>
						<path class="st6" d="M32.4,62h-1.4V50h1.4V62z"/>
						<path class="st6" d="M38.3,62.2c-1.1,0-2.1-0.4-2.8-1.1s-1.1-1.8-1.1-3v-0.3c0-0.8,0.2-1.6,0.5-2.2s0.8-1.2,1.3-1.5
							c0.6-0.4,1.2-0.6,1.9-0.6c1.1,0,2,0.4,2.6,1.1s0.9,1.8,0.9,3.1v0.6h-5.7c0,0.8,0.3,1.5,0.7,2c0.5,0.5,1.1,0.8,1.8,0.8
							c0.5,0,0.9-0.1,1.3-0.3c0.4-0.2,0.7-0.5,0.9-0.8l0.9,0.7C40.8,61.6,39.7,62.2,38.3,62.2z M38.1,54.6c-0.6,0-1.1,0.2-1.5,0.6
							c-0.4,0.4-0.6,1-0.7,1.8h4.2v-0.1c0-0.7-0.2-1.3-0.6-1.7C39.2,54.8,38.7,54.6,38.1,54.6z"/>
						<path class="st6" d="M46.7,61c0.5,0,1-0.2,1.4-0.5c0.4-0.3,0.6-0.7,0.6-1.2h1.4c0,0.5-0.2,0.9-0.5,1.4c-0.3,0.4-0.7,0.8-1.2,1
							c-0.5,0.3-1.1,0.4-1.6,0.4c-1.2,0-2.1-0.4-2.7-1.2s-1-1.8-1-3.2v-0.2c0-0.8,0.2-1.6,0.5-2.2c0.3-0.6,0.7-1.1,1.3-1.5
							c0.6-0.4,1.2-0.5,2-0.5c0.9,0,1.7,0.3,2.4,0.9c0.6,0.6,1,1.3,1,2.2h-1.4c0-0.5-0.2-1-0.6-1.3c-0.4-0.4-0.8-0.5-1.4-0.5
							c-0.7,0-1.3,0.3-1.7,0.8c-0.4,0.5-0.6,1.3-0.6,2.3v0.3c0,1,0.2,1.7,0.6,2.2C45.4,60.7,46,61,46.7,61z"/>
						<path class="st6" d="M53.8,51.5v2h1.6v1.1h-1.6v5.2c0,0.3,0.1,0.6,0.2,0.8c0.1,0.2,0.4,0.3,0.7,0.3c0.2,0,0.4,0,0.7-0.1V62
							c-0.4,0.1-0.8,0.2-1.1,0.2c-0.6,0-1.1-0.2-1.5-0.6s-0.5-0.9-0.5-1.7v-5.2h-1.5v-1.1h1.5v-2H53.8z"/>
						<path class="st6" d="M56.6,57.7c0-0.8,0.2-1.6,0.5-2.2c0.3-0.7,0.8-1.2,1.4-1.5c0.6-0.4,1.2-0.5,2-0.5c1.2,0,2.1,0.4,2.8,1.2
							s1.1,1.9,1.1,3.2v0.1c0,0.8-0.2,1.6-0.5,2.2c-0.3,0.7-0.8,1.2-1.4,1.5s-1.3,0.5-2,0.5c-1.1,0-2.1-0.4-2.8-1.2
							s-1.1-1.9-1.1-3.2V57.7z M58.1,57.9c0,0.9,0.2,1.7,0.7,2.3c0.4,0.6,1,0.9,1.7,0.9c0.7,0,1.3-0.3,1.8-0.9
							c0.4-0.6,0.6-1.4,0.6-2.4c0-0.9-0.2-1.7-0.7-2.3c-0.4-0.6-1-0.9-1.8-0.9c-0.7,0-1.3,0.3-1.7,0.9S58.1,56.8,58.1,57.9z"/>
						<path class="st6" d="M70.3,54.8c-0.2,0-0.5-0.1-0.7-0.1c-0.9,0-1.6,0.4-1.9,1.2v6h-1.4v-8.5h1.4l0,1c0.5-0.8,1.1-1.1,2-1.1
							c0.3,0,0.5,0,0.6,0.1V54.8z"/>
						<path class="st6" d="M83.5,51.9h-3.7V62h-1.5V51.9h-3.6v-1.2h8.8V51.9z"/>
						<path class="st6" d="M85.1,51.3c0-0.2,0.1-0.4,0.2-0.6c0.1-0.2,0.4-0.2,0.6-0.2s0.5,0.1,0.6,0.2c0.1,0.2,0.2,0.4,0.2,0.6
							s-0.1,0.4-0.2,0.6c-0.1,0.2-0.4,0.2-0.6,0.2s-0.5-0.1-0.6-0.2C85.2,51.7,85.1,51.5,85.1,51.3z M86.7,62h-1.4v-8.5h1.4V62z"/>
						<path class="st6" d="M91,51.5v2h1.6v1.1H91v5.2c0,0.3,0.1,0.6,0.2,0.8c0.1,0.2,0.4,0.3,0.7,0.3c0.2,0,0.4,0,0.7-0.1V62
							c-0.4,0.1-0.8,0.2-1.1,0.2c-0.6,0-1.1-0.2-1.5-0.6s-0.5-0.9-0.5-1.7v-5.2h-1.5v-1.1h1.5v-2H91z"/>
						<path class="st6" d="M96,62h-1.4V50H96V62z"/>
						<path class="st6" d="M101.9,62.2c-1.1,0-2.1-0.4-2.8-1.1S98,59.3,98,58v-0.3c0-0.8,0.2-1.6,0.5-2.2s0.8-1.2,1.3-1.5
							c0.6-0.4,1.2-0.6,1.9-0.6c1.1,0,2,0.4,2.6,1.1s0.9,1.8,0.9,3.1v0.6h-5.7c0,0.8,0.3,1.5,0.7,2c0.5,0.5,1.1,0.8,1.8,0.8
							c0.5,0,0.9-0.1,1.3-0.3c0.4-0.2,0.7-0.5,0.9-0.8l0.9,0.7C104.4,61.6,103.3,62.2,101.9,62.2z M101.7,54.6
							c-0.6,0-1.1,0.2-1.5,0.6c-0.4,0.4-0.6,1-0.7,1.8h4.2v-0.1c0-0.7-0.2-1.3-0.6-1.7C102.8,54.8,102.3,54.6,101.7,54.6z"/>
					</g>
					<g id="Group-12">
						<g class="st2">
							<path class="st7" d="M161.7,13c-0.1-0.1-0.1-0.3-0.2-0.7c-0.5,0.5-1.1,0.8-1.8,0.8c-0.6,0-1.1-0.2-1.5-0.5s-0.6-0.8-0.6-1.3
								c0-0.7,0.3-1.2,0.8-1.5s1.2-0.5,2.1-0.5h1.1V8.7c0-0.4-0.1-0.7-0.3-0.9s-0.6-0.3-1-0.3c-0.4,0-0.7,0.1-1,0.3
								s-0.4,0.4-0.4,0.7h-1.1c0-0.3,0.1-0.6,0.3-0.9s0.5-0.5,0.9-0.7s0.8-0.3,1.3-0.3c0.7,0,1.3,0.2,1.7,0.5s0.6,0.9,0.6,1.5v2.9
								c0,0.6,0.1,1,0.2,1.4V13H161.7z M159.9,12.2c0.3,0,0.7-0.1,1-0.3s0.5-0.4,0.7-0.7V9.9h-0.8c-1.3,0-2,0.4-2,1.2
								c0,0.3,0.1,0.6,0.3,0.8S159.6,12.2,159.9,12.2z"/>
							<path class="st7" d="M168,11.3c0-0.3-0.1-0.5-0.3-0.7s-0.6-0.3-1.2-0.4s-1-0.3-1.3-0.4s-0.6-0.4-0.7-0.6s-0.2-0.5-0.2-0.8
								c0-0.5,0.2-1,0.7-1.3s1-0.5,1.7-0.5c0.7,0,1.3,0.2,1.7,0.6s0.7,0.8,0.7,1.4H168c0-0.3-0.1-0.6-0.4-0.8s-0.6-0.3-1-0.3
								c-0.4,0-0.7,0.1-0.9,0.3s-0.3,0.4-0.3,0.7c0,0.3,0.1,0.5,0.3,0.6s0.6,0.3,1.1,0.4s1,0.3,1.3,0.4s0.6,0.4,0.7,0.6
								s0.2,0.5,0.2,0.9c0,0.6-0.2,1-0.7,1.4s-1,0.5-1.8,0.5c-0.5,0-1-0.1-1.3-0.3s-0.7-0.4-0.9-0.8s-0.3-0.7-0.3-1h1.1
								c0,0.4,0.2,0.7,0.4,0.9s0.6,0.3,1.1,0.3c0.4,0,0.7-0.1,1-0.2S168,11.6,168,11.3z"/>
							<path class="st7" d="M172,5.1v1.5h1.2v0.8H172v3.9c0,0.3,0.1,0.4,0.2,0.6s0.3,0.2,0.5,0.2c0.1,0,0.3,0,0.5-0.1V13
								c-0.3,0.1-0.6,0.1-0.8,0.1c-0.5,0-0.8-0.1-1.1-0.4s-0.4-0.7-0.4-1.2V7.5h-1.2V6.7h1.2V5.1H172z"/>
							<path class="st7" d="M177.1,13.1c-0.9,0-1.6-0.3-2.1-0.8s-0.8-1.3-0.8-2.3V9.8c0-0.6,0.1-1.2,0.4-1.7s0.6-0.9,1-1.2
								s0.9-0.4,1.4-0.4c0.8,0,1.5,0.3,1.9,0.8s0.7,1.3,0.7,2.3v0.5h-4.3c0,0.6,0.2,1.1,0.5,1.5s0.8,0.6,1.3,0.6
								c0.4,0,0.7-0.1,1-0.2s0.5-0.4,0.7-0.6l0.7,0.5C178.9,12.7,178.1,13.1,177.1,13.1z M177,7.4c-0.4,0-0.8,0.2-1.1,0.5
								s-0.5,0.8-0.6,1.3h3.2V9.2c0-0.6-0.2-1-0.4-1.3S177.4,7.4,177,7.4z"/>
							<path class="st7" d="M183.9,7.6c-0.2,0-0.3,0-0.5,0c-0.7,0-1.2,0.3-1.4,0.9V13h-1.1V6.7h1.1l0,0.7c0.4-0.6,0.9-0.8,1.5-0.8
								c0.2,0,0.4,0,0.5,0.1V7.6z"/>
							<path class="st7" d="M184.9,5c0-0.2,0.1-0.3,0.2-0.4s0.3-0.2,0.5-0.2s0.4,0.1,0.5,0.2s0.2,0.3,0.2,0.4s-0.1,0.3-0.2,0.4
								s-0.3,0.2-0.5,0.2s-0.4-0.1-0.5-0.2S184.9,5.2,184.9,5z M186.1,13H185V6.7h1.1V13z"/>
							<path class="st7" d="M191.5,11.3c0-0.3-0.1-0.5-0.3-0.7s-0.6-0.3-1.2-0.4s-1-0.3-1.3-0.4s-0.6-0.4-0.7-0.6s-0.2-0.5-0.2-0.8
								c0-0.5,0.2-1,0.7-1.3s1-0.5,1.7-0.5c0.7,0,1.3,0.2,1.7,0.6s0.7,0.8,0.7,1.4h-1.1c0-0.3-0.1-0.6-0.4-0.8s-0.6-0.3-1-0.3
								c-0.4,0-0.7,0.1-0.9,0.3s-0.3,0.4-0.3,0.7c0,0.3,0.1,0.5,0.3,0.6s0.6,0.3,1.1,0.4s1,0.3,1.3,0.4s0.6,0.4,0.7,0.6
								s0.2,0.5,0.2,0.9c0,0.6-0.2,1-0.7,1.4s-1,0.5-1.8,0.5c-0.5,0-1-0.1-1.3-0.3s-0.7-0.4-0.9-0.8s-0.3-0.7-0.3-1h1.1
								c0,0.4,0.2,0.7,0.4,0.9s0.6,0.3,1.1,0.3c0.4,0,0.7-0.1,1-0.2S191.5,11.6,191.5,11.3z"/>
							<path class="st7" d="M195.7,10.1l-0.7,0.7V13H194V4h1.1v5.4l0.6-0.7l2-2.1h1.3l-2.5,2.6l2.8,3.7H198L195.7,10.1z"/>
							<path class="st7" d="M205.6,12.2c0.4,0,0.7-0.1,1-0.4s0.4-0.5,0.5-0.9h1c0,0.4-0.1,0.7-0.4,1s-0.5,0.6-0.9,0.8
								s-0.8,0.3-1.2,0.3c-0.9,0-1.5-0.3-2.1-0.9s-0.8-1.4-0.8-2.4V9.7c0-0.6,0.1-1.2,0.3-1.6s0.6-0.9,1-1.1s0.9-0.4,1.5-0.4
								c0.7,0,1.3,0.2,1.8,0.6s0.7,1,0.8,1.7h-1c0-0.4-0.2-0.7-0.5-1s-0.6-0.4-1-0.4c-0.6,0-1,0.2-1.3,0.6s-0.5,1-0.5,1.7V10
								c0,0.7,0.2,1.3,0.5,1.7S205,12.2,205.6,12.2z"/>
							<path class="st7" d="M209,9.8c0-0.6,0.1-1.2,0.4-1.7s0.6-0.9,1-1.1s0.9-0.4,1.5-0.4c0.9,0,1.6,0.3,2.1,0.9s0.8,1.4,0.8,2.4
								v0.1c0,0.6-0.1,1.2-0.4,1.7s-0.6,0.9-1,1.1s-0.9,0.4-1.5,0.4c-0.9,0-1.6-0.3-2.1-0.9S209,10.8,209,9.8L209,9.8z M210.1,9.9
								c0,0.7,0.2,1.3,0.5,1.7s0.8,0.6,1.3,0.6c0.6,0,1-0.2,1.3-0.6s0.5-1,0.5-1.8c0-0.7-0.2-1.3-0.5-1.7s-0.8-0.6-1.3-0.6
								c-0.5,0-1,0.2-1.3,0.6S210.1,9.1,210.1,9.9z"/>
							<path class="st7" d="M217.3,13h-1.1V4h1.1V13z"/>
							<path class="st7" d="M218.8,9.8c0-0.6,0.1-1.2,0.4-1.7s0.6-0.9,1-1.1s0.9-0.4,1.5-0.4c0.9,0,1.6,0.3,2.1,0.9s0.8,1.4,0.8,2.4
								v0.1c0,0.6-0.1,1.2-0.4,1.7s-0.6,0.9-1,1.1s-0.9,0.4-1.5,0.4c-0.9,0-1.6-0.3-2.1-0.9S218.8,10.8,218.8,9.8L218.8,9.8z
								 M219.9,9.9c0,0.7,0.2,1.3,0.5,1.7s0.8,0.6,1.3,0.6c0.6,0,1-0.2,1.3-0.6s0.5-1,0.5-1.8c0-0.7-0.2-1.3-0.5-1.7
								s-0.8-0.6-1.3-0.6c-0.5,0-1,0.2-1.3,0.6S219.9,9.1,219.9,9.9z"/>
							<path class="st7" d="M229,7.6c-0.2,0-0.3,0-0.5,0c-0.7,0-1.2,0.3-1.4,0.9V13h-1.1V6.7h1.1l0,0.7c0.4-0.6,0.9-0.8,1.5-0.8
								c0.2,0,0.4,0,0.5,0.1V7.6z"/>
							<path class="st7" d="M229.9,12.4c0-0.2,0.1-0.3,0.2-0.5s0.3-0.2,0.5-0.2s0.4,0.1,0.5,0.2s0.2,0.3,0.2,0.5
								c0,0.2-0.1,0.3-0.2,0.5s-0.3,0.2-0.5,0.2s-0.4-0.1-0.5-0.2S229.9,12.6,229.9,12.4z M229.9,7.3c0-0.2,0.1-0.3,0.2-0.5
								s0.3-0.2,0.5-0.2s0.4,0.1,0.5,0.2s0.2,0.3,0.2,0.5c0,0.2-0.1,0.3-0.2,0.5s-0.3,0.2-0.5,0.2s-0.4-0.1-0.5-0.2
								S229.9,7.4,229.9,7.3z"/>
							<path class="st7" d="M239.5,10.6H238l-0.5,2.4h-0.8l0.5-2.4h-1.4V9.8h1.6l0.4-2.1h-1.5V6.9h1.7l0.5-2.4h0.8l-0.5,2.4h1.5
								l0.5-2.4h0.8l-0.5,2.4h1.2v0.8h-1.4l-0.4,2.1h1.3v0.8h-1.5l-0.5,2.4H239L239.5,10.6z M238.1,9.8h1.5l0.4-2.1h-1.5L238.1,9.8z
								"/>
							<path class="st7" d="M243,9.8c0-1,0.2-1.8,0.7-2.3s1.1-0.9,1.8-0.9c0.7,0,1.3,0.3,1.8,0.8V4h1.1v9h-1l-0.1-0.7
								c-0.4,0.5-1,0.8-1.8,0.8c-0.7,0-1.3-0.3-1.8-0.9S243,10.8,243,9.8L243,9.8z M244.1,9.9c0,0.7,0.1,1.3,0.4,1.7
								s0.7,0.6,1.2,0.6c0.7,0,1.2-0.3,1.5-0.9V8.4c-0.3-0.6-0.8-0.9-1.5-0.9c-0.5,0-0.9,0.2-1.2,0.6S244.1,9.1,244.1,9.9z"/>
							<path class="st7" d="M251.5,8.2h0.8c0.5,0,0.9-0.1,1.2-0.4s0.4-0.6,0.4-1.1c0-1-0.5-1.5-1.5-1.5c-0.5,0-0.8,0.1-1.1,0.4
								s-0.4,0.6-0.4,1.1h-1.1c0-0.7,0.2-1.2,0.7-1.7s1.1-0.7,1.9-0.7c0.8,0,1.4,0.2,1.9,0.6s0.7,1,0.7,1.8c0,0.4-0.1,0.7-0.4,1.1
								s-0.6,0.6-1,0.8c0.5,0.1,0.8,0.4,1.1,0.7s0.4,0.8,0.4,1.3c0,0.8-0.2,1.4-0.8,1.8s-1.2,0.7-2,0.7s-1.5-0.2-2-0.7
								s-0.8-1-0.8-1.7h1.1c0,0.4,0.1,0.8,0.4,1.1s0.7,0.4,1.2,0.4c0.5,0,0.9-0.1,1.2-0.4s0.4-0.7,0.4-1.2c0-0.5-0.2-0.9-0.5-1.1
								s-0.7-0.4-1.3-0.4h-0.8V8.2z"/>
							<path class="st7" d="M262.2,13h-5.6v-0.8l3-3.3c0.4-0.5,0.7-0.9,0.9-1.2s0.2-0.6,0.2-1c0-0.4-0.1-0.8-0.4-1.1
								s-0.6-0.4-1.1-0.4c-0.5,0-1,0.2-1.3,0.5s-0.4,0.7-0.4,1.3h-1.1c0-0.8,0.3-1.4,0.8-1.9s1.2-0.7,2-0.7c0.8,0,1.4,0.2,1.9,0.6
								s0.7,1,0.7,1.7c0,0.8-0.5,1.8-1.6,3l-2.3,2.5h4.3V13z"/>
							<path class="st7" d="M264,13V7.5h-1V6.7h1V6c0-0.7,0.2-1.2,0.5-1.6s0.9-0.6,1.5-0.6c0.2,0,0.5,0,0.7,0.1l-0.1,0.9
								c-0.2,0-0.4-0.1-0.6-0.1c-0.4,0-0.6,0.1-0.8,0.3s-0.3,0.5-0.3,0.9v0.7h1.4v0.8h-1.4V13H264z"/>
							<path class="st7" d="M273.1,13h-5.6v-0.8l3-3.3c0.4-0.5,0.7-0.9,0.9-1.2s0.2-0.6,0.2-1c0-0.4-0.1-0.8-0.4-1.1
								s-0.6-0.4-1.1-0.4c-0.5,0-1,0.2-1.3,0.5s-0.4,0.7-0.4,1.3h-1.1c0-0.8,0.3-1.4,0.8-1.9s1.2-0.7,2-0.7c0.8,0,1.4,0.2,1.9,0.6
								s0.7,1,0.7,1.7c0,0.8-0.5,1.8-1.6,3l-2.3,2.5h4.3V13z"/>
							<path class="st7" d="M274.9,13V7.5h-1V6.7h1V6c0-0.7,0.2-1.2,0.5-1.6s0.9-0.6,1.5-0.6c0.2,0,0.5,0,0.7,0.1l-0.1,0.9
								c-0.2,0-0.4-0.1-0.6-0.1c-0.4,0-0.6,0.1-0.8,0.3S276,5.6,276,6v0.7h1.4v0.8H276V13H274.9z"/>
							<path class="st7" d="M281.5,9.5c0-0.9,0.1-1.7,0.4-2.5s0.6-1.6,1.1-2.2s1-1.1,1.5-1.4l0.2,0.7c-0.6,0.4-1,1.1-1.4,2
								s-0.6,1.9-0.6,3l0,0.5c0,1.5,0.3,2.8,0.8,3.9c0.3,0.7,0.7,1.2,1.2,1.6l-0.2,0.7c-0.5-0.3-1-0.8-1.5-1.5
								C281.9,13,281.5,11.4,281.5,9.5z"/>
							<path class="st7" d="M288.7,7.6c-0.2,0-0.3,0-0.5,0c-0.7,0-1.2,0.3-1.4,0.9V13h-1.1V6.7h1.1l0,0.7c0.4-0.6,0.9-0.8,1.5-0.8
								c0.2,0,0.4,0,0.5,0.1V7.6z"/>
							<path class="st7" d="M292.3,13.1c-0.9,0-1.6-0.3-2.1-0.8s-0.8-1.3-0.8-2.3V9.8c0-0.6,0.1-1.2,0.4-1.7s0.6-0.9,1-1.2
								s0.9-0.4,1.4-0.4c0.8,0,1.5,0.3,1.9,0.8s0.7,1.3,0.7,2.3v0.5h-4.3c0,0.6,0.2,1.1,0.5,1.5s0.8,0.6,1.3,0.6
								c0.4,0,0.7-0.1,1-0.2s0.5-0.4,0.7-0.6l0.7,0.5C294.2,12.7,293.4,13.1,292.3,13.1z M292.2,7.4c-0.4,0-0.8,0.2-1.1,0.5
								s-0.5,0.8-0.6,1.3h3.2V9.2c0-0.6-0.2-1-0.4-1.3S292.6,7.4,292.2,7.4z"/>
							<path class="st7" d="M295.8,9.8c0-1,0.2-1.8,0.7-2.3s1.1-0.9,1.8-0.9c0.7,0,1.3,0.3,1.8,0.8V4h1.1v9h-1l-0.1-0.7
								c-0.4,0.5-1,0.8-1.8,0.8c-0.7,0-1.3-0.3-1.8-0.9S295.8,10.8,295.8,9.8L295.8,9.8z M296.9,9.9c0,0.7,0.1,1.3,0.4,1.7
								s0.7,0.6,1.2,0.6c0.7,0,1.2-0.3,1.5-0.9V8.4c-0.3-0.6-0.8-0.9-1.5-0.9c-0.5,0-0.9,0.2-1.2,0.6S296.9,9.1,296.9,9.9z"/>
							<path class="st7" d="M309.8,9.2c-0.2,0.3-0.5,0.5-0.8,0.7s-0.7,0.2-1,0.2c-0.5,0-0.9-0.1-1.3-0.4s-0.6-0.6-0.8-1
								s-0.3-0.9-0.3-1.5c0-0.6,0.1-1.1,0.3-1.5s0.5-0.8,0.9-1s0.9-0.4,1.4-0.4c0.8,0,1.5,0.3,2,0.9s0.7,1.5,0.7,2.6v0.3
								c0,1.7-0.3,2.9-1,3.6s-1.6,1.2-3,1.2h-0.2v-0.9h0.2c0.9,0,1.6-0.2,2.1-0.7C309.5,10.9,309.8,10.2,309.8,9.2z M308.1,9.2
								c0.4,0,0.7-0.1,1-0.3s0.5-0.5,0.7-0.8V7.7c0-0.7-0.2-1.3-0.5-1.7s-0.7-0.7-1.2-0.7c-0.5,0-0.9,0.2-1.1,0.5s-0.4,0.8-0.4,1.4
								c0,0.6,0.1,1.1,0.4,1.4S307.7,9.2,308.1,9.2z"/>
							<path class="st7" d="M317.8,9.4c0,1.3-0.2,2.2-0.7,2.8s-1.1,0.9-2,0.9c-0.9,0-1.6-0.3-2-0.9s-0.7-1.5-0.7-2.7V8.1
								c0-1.3,0.2-2.2,0.7-2.8s1.1-0.9,2-0.9c0.9,0,1.6,0.3,2,0.9s0.7,1.5,0.7,2.7V9.4z M316.7,7.9c0-0.9-0.1-1.6-0.4-2
								s-0.7-0.6-1.2-0.6c-0.6,0-1,0.2-1.2,0.6s-0.4,1.1-0.4,1.9v1.7c0,0.9,0.1,1.6,0.4,2s0.7,0.7,1.2,0.7c0.5,0,0.9-0.2,1.2-0.6
								s0.4-1.1,0.4-2V7.9z"/>
							<path class="st7" d="M324.5,9.4c0,1.3-0.2,2.2-0.7,2.8s-1.1,0.9-2,0.9c-0.9,0-1.6-0.3-2-0.9s-0.7-1.5-0.7-2.7V8.1
								c0-1.3,0.2-2.2,0.7-2.8s1.1-0.9,2-0.9c0.9,0,1.6,0.3,2,0.9s0.7,1.5,0.7,2.7V9.4z M323.4,7.9c0-0.9-0.1-1.6-0.4-2
								s-0.7-0.6-1.2-0.6c-0.6,0-1,0.2-1.2,0.6s-0.4,1.1-0.4,1.9v1.7c0,0.9,0.1,1.6,0.4,2s0.7,0.7,1.2,0.7c0.5,0,0.9-0.2,1.2-0.6
								s0.4-1.1,0.4-2V7.9z"/>
							<path class="st7" d="M328.5,9.6c0,0.9-0.1,1.7-0.3,2.5s-0.6,1.5-1,2.2s-1,1.2-1.5,1.4l-0.2-0.7c0.6-0.5,1.1-1.2,1.5-2.1
								s0.6-2,0.6-3.2V9.5c0-0.8-0.1-1.6-0.3-2.3s-0.4-1.3-0.7-1.9s-0.7-1-1-1.3l0.2-0.7c0.5,0.3,1,0.8,1.5,1.4s0.8,1.4,1,2.2
								S328.5,8.7,328.5,9.6z"/>
						</g>
						
							<g id="specs-_x2F_-redlines-_x2F_-line-regular" transform="translate(75.000000, 23.000000) scale(-1, 1) rotate(-270.000000) translate(-75.000000, -23.000000) translate(56.000000, -52.000000)">
							<path id="redline-line" class="st8" d="M3.5,149.5v-129c0-9.4,7.6-17,17-17h17"/>
							<g id="specs-_x2F_-redlines-_x2F_-line-end-_x2F_-arrow" transform="translate(31.000000, 0.000000)">
								<g id="redline-end">
									<g>
										<polygon id="path-3" class="st1" points="7,3.5 0,7 0,0 										"/>
									</g>
									<path class="st8" d="M5.9,3.5L0.5,0.8v5.4L5.9,3.5z"/>
								</g>
							</g>
							<g id="specs-_x2F_-redlines-_x2F_-line-end-_x2F_-circle" transform="translate(0.000000, 143.000000)">
								<g id="redline-start">
									<g>
										<circle id="path-4" class="st1" cx="3.5" cy="3.5" r="3.5"/>
									</g>
									<circle class="st8" cx="3.5" cy="3.5" r="3"/>
								</g>
							</g>
						</g>
					</g>
					<g id="Checkbox_1_" transform="translate(13.000000, 72.000000)">
						<g class="st2">
							<path class="st3" d="M34.1,11.7c0,1.1-0.2,2.1-0.6,2.9s-0.9,1.5-1.6,1.9s-1.5,0.7-2.4,0.7c-0.9,0-1.7-0.2-2.4-0.7
								c-0.7-0.4-1.2-1.1-1.6-1.9s-0.6-1.8-0.6-2.8V11c0-1.1,0.2-2.1,0.6-2.9c0.4-0.8,0.9-1.5,1.6-1.9s1.5-0.7,2.4-0.7
								c0.9,0,1.7,0.2,2.4,0.7s1.2,1.1,1.6,1.9s0.6,1.8,0.6,2.9V11.7z M32.6,10.9c0-1.3-0.3-2.4-0.8-3.1c-0.5-0.7-1.3-1.1-2.3-1.1
								c-0.9,0-1.7,0.4-2.2,1.1c-0.5,0.7-0.8,1.7-0.8,3v0.8c0,1.3,0.3,2.3,0.8,3.1c0.5,0.7,1.3,1.1,2.3,1.1c1,0,1.7-0.4,2.2-1.1
								s0.8-1.7,0.8-3V10.9z"/>
						</g>
						<g class="st2">
							<path class="st3" d="M43.2,12.9c0,1.3-0.3,2.3-0.9,3.1c-0.6,0.8-1.4,1.2-2.4,1.2c-1,0-1.8-0.3-2.4-1v4.1h-1.4V8.5h1.3
								l0.1,0.9c0.6-0.7,1.4-1.1,2.5-1.1c1,0,1.8,0.4,2.4,1.1c0.6,0.8,0.9,1.8,0.9,3.2V12.9z M41.8,12.7c0-1-0.2-1.7-0.6-2.3
								s-1-0.8-1.7-0.8c-0.9,0-1.5,0.4-2,1.2v4c0.4,0.8,1.1,1.2,2,1.2c0.7,0,1.2-0.3,1.7-0.8C41.6,14.6,41.8,13.8,41.8,12.7z"/>
							<path class="st3" d="M47,6.5v2h1.6v1.1H47v5.2c0,0.3,0.1,0.6,0.2,0.8c0.1,0.2,0.4,0.3,0.7,0.3c0.2,0,0.4,0,0.7-0.1V17
								c-0.4,0.1-0.8,0.2-1.1,0.2c-0.6,0-1.1-0.2-1.5-0.6s-0.5-0.9-0.5-1.7V9.7H44V8.5h1.5v-2H47z"/>
							<path class="st3" d="M50.3,6.3c0-0.2,0.1-0.4,0.2-0.6c0.1-0.2,0.4-0.2,0.6-0.2s0.5,0.1,0.6,0.2C51.9,5.9,52,6.1,52,6.3
								s-0.1,0.4-0.2,0.6c-0.1,0.2-0.4,0.2-0.6,0.2S50.7,7,50.5,6.9C50.4,6.7,50.3,6.5,50.3,6.3z M51.9,17h-1.4V8.5h1.4V17z"/>
							<path class="st3" d="M53.8,12.7c0-0.8,0.2-1.6,0.5-2.2c0.3-0.7,0.8-1.2,1.4-1.5c0.6-0.4,1.2-0.5,2-0.5c1.2,0,2.1,0.4,2.8,1.2
								s1.1,1.9,1.1,3.2v0.1c0,0.8-0.2,1.6-0.5,2.2c-0.3,0.7-0.8,1.2-1.4,1.5s-1.3,0.5-2,0.5c-1.1,0-2.1-0.4-2.8-1.2
								s-1.1-1.9-1.1-3.2V12.7z M55.2,12.9c0,0.9,0.2,1.7,0.7,2.3c0.4,0.6,1,0.9,1.7,0.9c0.7,0,1.3-0.3,1.8-0.9
								c0.4-0.6,0.6-1.4,0.6-2.4c0-0.9-0.2-1.7-0.7-2.3c-0.4-0.6-1-0.9-1.8-0.9c-0.7,0-1.3,0.3-1.7,0.9S55.2,11.8,55.2,12.9z"/>
							<path class="st3" d="M64.7,8.5l0,1.1c0.6-0.8,1.5-1.2,2.5-1.2c1.8,0,2.7,1,2.7,3V17h-1.4v-5.6c0-0.6-0.1-1.1-0.4-1.4
								s-0.7-0.4-1.3-0.4c-0.5,0-0.9,0.1-1.2,0.4c-0.4,0.2-0.6,0.6-0.8,1v6h-1.4V8.5H64.7z"/>
						</g>
						<g class="st2">
							<path class="st3" d="M80.7,17h-1.5V7.4l-2.9,1.1V7.1l4.1-1.6h0.2V17z"/>
						</g>
						<g id="Selected-Copy">
							<path id="Fill-26" class="st9" d="M14,16H2c-1.1,0-2-0.9-2-2V2c0-1.1,0.9-2,2-2h12c1.1,0,2,0.9,2,2v12C16,15.1,15.1,16,14,16
								"/>
						</g>
					</g>
					<g id="Checkbox_2_" transform="translate(13.000000, 94.000000)">
						<g class="st2">
							<path class="st3" d="M34.1,11.7c0,1.1-0.2,2.1-0.6,2.9s-0.9,1.5-1.6,1.9s-1.5,0.7-2.4,0.7c-0.9,0-1.7-0.2-2.4-0.7
								c-0.7-0.4-1.2-1.1-1.6-1.9s-0.6-1.8-0.6-2.8V11c0-1.1,0.2-2.1,0.6-2.9c0.4-0.8,0.9-1.5,1.6-1.9s1.5-0.7,2.4-0.7
								c0.9,0,1.7,0.2,2.4,0.7s1.2,1.1,1.6,1.9s0.6,1.8,0.6,2.9V11.7z M32.6,10.9c0-1.3-0.3-2.4-0.8-3.1c-0.5-0.7-1.3-1.1-2.3-1.1
								c-0.9,0-1.7,0.4-2.2,1.1c-0.5,0.7-0.8,1.7-0.8,3v0.8c0,1.3,0.3,2.3,0.8,3.1c0.5,0.7,1.3,1.1,2.3,1.1c1,0,1.7-0.4,2.2-1.1
								s0.8-1.7,0.8-3V10.9z"/>
						</g>
						<g class="st2">
							<path class="st3" d="M43.2,12.9c0,1.3-0.3,2.3-0.9,3.1c-0.6,0.8-1.4,1.2-2.4,1.2c-1,0-1.8-0.3-2.4-1v4.1h-1.4V8.5h1.3
								l0.1,0.9c0.6-0.7,1.4-1.1,2.5-1.1c1,0,1.8,0.4,2.4,1.1c0.6,0.8,0.9,1.8,0.9,3.2V12.9z M41.8,12.7c0-1-0.2-1.7-0.6-2.3
								s-1-0.8-1.7-0.8c-0.9,0-1.5,0.4-2,1.2v4c0.4,0.8,1.1,1.2,2,1.2c0.7,0,1.2-0.3,1.7-0.8C41.6,14.6,41.8,13.8,41.8,12.7z"/>
							<path class="st3" d="M47,6.5v2h1.6v1.1H47v5.2c0,0.3,0.1,0.6,0.2,0.8c0.1,0.2,0.4,0.3,0.7,0.3c0.2,0,0.4,0,0.7-0.1V17
								c-0.4,0.1-0.8,0.2-1.1,0.2c-0.6,0-1.1-0.2-1.5-0.6s-0.5-0.9-0.5-1.7V9.7H44V8.5h1.5v-2H47z"/>
							<path class="st3" d="M50.3,6.3c0-0.2,0.1-0.4,0.2-0.6c0.1-0.2,0.4-0.2,0.6-0.2s0.5,0.1,0.6,0.2C51.9,5.9,52,6.1,52,6.3
								s-0.1,0.4-0.2,0.6c-0.1,0.2-0.4,0.2-0.6,0.2S50.7,7,50.5,6.9C50.4,6.7,50.3,6.5,50.3,6.3z M51.9,17h-1.4V8.5h1.4V17z"/>
							<path class="st3" d="M53.8,12.7c0-0.8,0.2-1.6,0.5-2.2c0.3-0.7,0.8-1.2,1.4-1.5c0.6-0.4,1.2-0.5,2-0.5c1.2,0,2.1,0.4,2.8,1.2
								s1.1,1.9,1.1,3.2v0.1c0,0.8-0.2,1.6-0.5,2.2c-0.3,0.7-0.8,1.2-1.4,1.5s-1.3,0.5-2,0.5c-1.1,0-2.1-0.4-2.8-1.2
								s-1.1-1.9-1.1-3.2V12.7z M55.2,12.9c0,0.9,0.2,1.7,0.7,2.3c0.4,0.6,1,0.9,1.7,0.9c0.7,0,1.3-0.3,1.8-0.9
								c0.4-0.6,0.6-1.4,0.6-2.4c0-0.9-0.2-1.7-0.7-2.3c-0.4-0.6-1-0.9-1.8-0.9c-0.7,0-1.3,0.3-1.7,0.9S55.2,11.8,55.2,12.9z"/>
							<path class="st3" d="M64.7,8.5l0,1.1c0.6-0.8,1.5-1.2,2.5-1.2c1.8,0,2.7,1,2.7,3V17h-1.4v-5.6c0-0.6-0.1-1.1-0.4-1.4
								s-0.7-0.4-1.3-0.4c-0.5,0-0.9,0.1-1.2,0.4c-0.4,0.2-0.6,0.6-0.8,1v6h-1.4V8.5H64.7z"/>
						</g>
						<g class="st2">
							<path class="st3" d="M79.5,17H72v-1l3.9-4.4c0.6-0.7,1-1.2,1.2-1.6c0.2-0.4,0.3-0.8,0.3-1.3c0-0.6-0.2-1.1-0.5-1.5
								s-0.8-0.6-1.4-0.6c-0.7,0-1.3,0.2-1.7,0.6s-0.6,1-0.6,1.7h-1.4c0-1,0.3-1.9,1-2.5c0.7-0.6,1.6-1,2.7-1c1.1,0,1.9,0.3,2.5,0.8
								c0.6,0.6,0.9,1.3,0.9,2.2c0,1.1-0.7,2.5-2.1,4l-3,3.3h5.7V17z"/>
						</g>
						<g id="Selected-Disabled-Copy-4">
							<path id="Fill-21" class="st9" d="M14.1,16.7h-12c-1.1,0-2-0.9-2-2v-12c0-1.1,0.9-2,2-2h12c1.1,0,2,0.9,2,2v12
								C16.1,15.8,15.2,16.7,14.1,16.7"/>
						</g>
					</g>
				</g>
			</g>
		</g>
	</g>
</g>
</svg>
