<?xml version="1.0" encoding="UTF-8" standalone="no"?>
<svg width="634px" height="392px" viewBox="0 0 634 392" version="1.1" xmlns="http://www.w3.org/2000/svg" xmlns:xlink="http://www.w3.org/1999/xlink">
    <!-- Generator: Sketch 46.2 (44496) - http://www.bohemiancoding.com/sketch -->
    <title>name-abbrev</title>
    <desc>Created with Sketch.</desc>
    <style>
      @import url("https://fonts.googleapis.com/css?family=Roboto:300,400");
      @import url("https://stackpath.bootstrapcdn.com/font-awesome/4.7.0/css/font-awesome.min.css")
    </style>
    <defs>
        <rect id="path-1" x="0" y="0" width="633" height="391"></rect>
        <filter x="-1.1%" y="-1.3%" width="102.2%" height="103.6%" filterUnits="objectBoundingBox" id="filter-3">
            <feOffset dx="0" dy="2" in="SourceAlpha" result="shadowOffsetOuter1"></feOffset>
            <feGaussianBlur stdDeviation="2" in="shadowOffsetOuter1" result="shadowBlurOuter1"></feGaussianBlur>
            <feColorMatrix values="0 0 0 0 0   0 0 0 0 0   0 0 0 0 0  0 0 0 0.2 0" type="matrix" in="shadowBlurOuter1"></feColorMatrix>
        </filter>
        <filter x="-40.0%" y="-3.6%" width="180.0%" height="108.1%" filterUnits="objectBoundingBox" id="filter-4">
            <feOffset dx="0" dy="2" in="SourceAlpha" result="shadowOffsetOuter1"></feOffset>
            <feGaussianBlur stdDeviation="5" in="shadowOffsetOuter1" result="shadowBlurOuter1"></feGaussianBlur>
            <feColorMatrix values="0 0 0 0 0   0 0 0 0 0   0 0 0 0 0  0 0 0 0.5 0" type="matrix" in="shadowBlurOuter1" result="shadowMatrixOuter1"></feColorMatrix>
            <feMerge>
                <feMergeNode in="shadowMatrixOuter1"></feMergeNode>
                <feMergeNode in="SourceGraphic"></feMergeNode>
            </feMerge>
        </filter>
    </defs>
    <g id="Explorations" stroke="none" stroke-width="1" fill="none" fill-rule="evenodd">
        <g id="name-abbrev">
            <g id="Group-+-laptop-minimum-Mask" transform="translate(0.000000, 1.000000)">
                <mask id="mask-2" fill="white">
                    <use xlink:href="#path-1"></use>
                </mask>
                <g id="Mask">
                    <use fill="black" fill-opacity="1" filter="url(#filter-3)" xlink:href="#path-1"></use>
                    <use fill="#FFFFFF" fill-rule="evenodd" xlink:href="#path-1"></use>
                </g>
                <g id="Group-8" mask="url(#mask-2)">
                    <g transform="translate(39.000000, 0.000000)">
                        <g id="Group">
                            <rect id="Rectangle-Copy" fill="#212121" x="0" y="0" width="160" height="204.986308"></rect>
                        </g>
                        <g id="laptop-minimum">
                            <rect id="background" fill="#000000" x="0" y="0" width="1024" height="56"></rect>
                            <g id="global-navigation-/-rackspace-/-default">
                                <g id="pilot-/-item-/-background-/-default" fill="#000000">
                                    <rect id="Rectangle-14-Copy" x="0" y="0" width="160" height="56"></rect>
                                </g>
                                <g id="Group" stroke-width="1" transform="translate(11.944444, 12.000000)" fill="#D8D8D8">
                                    <path d="M21.1609405,3.79271523 L21.1609405,3.79271523 L21.1609405,3.79271523 C20.70092,5.16357616 19.8728832,6.71721854 19.0908485,7.90529801 C17.3887728,10.3728477 14.9966665,11.9721854 13.7086093,11.3781457 C12.420552,10.8298013 12.7425663,8.36225166 14.3986399,5.89470199 C14.7666563,5.34635762 15.1806747,4.84370861 15.6406951,4.38675497 L15.6406951,4.38675497 C15.6406951,4.38675497 15.6406951,4.38675497 15.5946931,4.38675497 L15.5946931,4.38675497 C15.0886706,4.4781457 14.5366461,4.56953642 13.9846215,4.70662252 L13.9846215,4.70662252 C8.28036802,11.6066225 5.8882617,20.6086093 6.21027601,28.6509934 L6.21027601,28.6509934 L6.21027601,28.6509934 C2.85212676,27.3258278 0.414018401,24.081457 0.138006134,20.0145695 L0.138006134,19.9688742 C-0.276012267,12.7490066 5.52024534,5.30066225 13.1105827,3.42715232 C16.0547135,2.65033113 18.8608383,2.87880795 21.1609405,3.79271523 L21.1609405,3.79271523 Z M14.5366461,7.90529801 C13.9846215,9.04768212 14.2146318,9.9615894 15.0426686,10.0072848 C15.8707054,10.0072848 16.9747544,9.09337748 17.4807769,7.95099338 C18.0328015,6.80860927 17.8027912,5.84900662 17.0207565,5.84900662 C16.1927197,5.84900662 15.0886706,6.76291391 14.5366461,7.90529801 L14.5366461,7.90529801 Z" id="Shape"></path>
                                    <path d="M18.9988444,23.3046358 C18.4468199,23.6701987 17.8947953,24.0357616 17.2507667,24.3556291 L17.2507667,24.3556291 C17.2507667,24.3556291 17.2507667,24.3556291 17.2047647,24.3556291 C17.1127606,22.6192053 16.6987422,20.9284768 16.0547135,19.5119205 C14.3066359,15.7649007 11.2705009,15.4907285 9.24641095,18.8721854 C8.00435575,20.9284768 7.45233121,23.8986755 7.59033735,26.7774834 L7.59033735,26.7774834 C9.7064314,27.4172185 12.1905418,27.5086093 14.7666563,26.8688742 C22.3569936,24.9496689 28.1532513,17.5470199 27.7392329,10.3271523 C27.3712165,3.97549669 22.3109916,-0.137086093 15.9627095,0.228476821 L15.9627095,0.228476821 C15.3646829,0.868211921 14.7666563,1.46225166 14.2146318,2.10198675 L14.2146318,2.10198675 L14.2146318,2.10198675 L14.2146318,2.10198675 C17.9407974,1.64503311 20.9309303,2.37615894 22.8630161,3.92980132 L22.8630161,3.92980132 L22.8630161,3.92980132 C16.3307258,13.4344371 17.1587626,18.7807947 18.9988444,23.3046358 L18.9988444,23.3046358 L18.9988444,23.3046358 L18.9988444,23.3046358 Z" id="Shape"></path>
                                    <path d="M105.574692,25.7721854 L105.574692,25.7721854 L105.896707,24.1271523 C105.896707,24.081457 105.896707,24.081457 105.850704,24.081457 L105.804702,24.081457 C105.114672,25.2695364 103.688608,26.0463576 102.124539,26.0463576 C99.5484244,26.0463576 98.3983733,23.8072848 98.3983733,21.5225166 C98.3983733,18.9635762 99.4104182,16.4046358 101.112494,14.7139073 C102.538557,13.297351 104.378639,12.5662252 106.448731,12.5662252 C108.012801,12.5662252 109.162852,13.0231788 109.898884,13.8913907 C110.956931,15.1708609 110.864927,17.1357616 110.634917,18.5523179 L109.254856,25.7721854 L109.254856,25.7721854 L105.574692,25.7721854 L105.574692,25.7721854 L105.574692,25.7721854 Z M104.148629,16.2218543 C103.136584,17.2271523 102.354549,19.192053 102.354549,20.7456954 C102.354549,22.1165563 102.860572,22.9390728 103.73461,22.9390728 C105.114672,22.9390728 106.356727,21.4768212 106.770745,19.3291391 C106.862749,18.8721854 106.954754,18.3695364 107.046758,17.9582781 C107.09276,17.5470199 107.138762,17.1357616 107.138762,16.8615894 C107.09276,15.9476821 106.632739,15.4450331 105.7587,15.4450331 C105.206676,15.4907285 104.654651,15.7649007 104.148629,16.2218543 L104.148629,16.2218543 Z" id="Shape"></path>
                                    <path d="M81.6536291,12.5662252 C83.2637006,12.5662252 84.4137517,12.9317881 84.9657763,13.2059603 L84.9657763,13.2059603 L84.4137517,16.0390728 L84.4137517,16.0390728 L84.4137517,16.0390728 C83.7697231,15.6735099 82.665674,15.307947 81.4696209,15.307947 C80.4575759,15.307947 79.8135473,15.7192053 79.8135473,16.4046358 C79.8135473,16.9072848 80.3195698,17.3642384 81.3776168,17.8668874 C82.7576781,18.5523179 84.2757456,19.5576159 84.2757456,21.3854305 C84.2757456,22.5735099 83.8617272,23.5788079 83.0796924,24.3556291 C82.0216454,25.4066225 80.3195698,25.9549669 78.2954798,25.9549669 C76.7314103,25.9549669 75.1213387,25.5437086 74.339304,24.9496689 L74.339304,24.9496689 L74.8913285,22.0708609 L74.8913285,22.0708609 L74.8913285,22.0708609 C75.7653673,22.6192053 77.421441,23.1675497 78.6634962,23.1675497 C79.6295391,23.1675497 80.2735677,22.710596 80.2735677,22.0251656 C80.2735677,21.3854305 79.8135473,20.9284768 78.6634962,20.3801325 C76.8234144,19.4662252 75.9033735,18.3238411 75.9033735,16.9529801 C75.9493755,14.3940397 78.2494778,12.5662252 81.6536291,12.5662252 L81.6536291,12.5662252 Z" id="Shape"></path>
                                    <path d="M119.789324,12.6119205 C120.755367,12.6119205 121.767412,12.794702 122.457443,13.0688742 L122.457443,13.0688742 L121.859416,16.1304636 L121.859416,16.1304636 L121.859416,16.1304636 C121.261389,15.810596 120.571359,15.6278146 119.743322,15.6278146 C116.983199,15.6278146 115.373128,18.0039735 115.373128,20.2887417 C115.373128,22.207947 116.661185,22.9390728 117.90324,22.9390728 C119.007289,22.9390728 119.92733,22.710596 121.077381,22.1165563 L121.077381,22.1165563 L121.077381,22.1165563 L120.479355,25.2695364 L120.479355,25.2695364 C119.605316,25.6807947 118.225254,25.9549669 116.799191,25.9549669 C113.487044,25.9549669 111.324948,23.8986755 111.324948,20.6543046 C111.278946,16.0847682 114.959109,12.6119205 119.789324,12.6119205 L119.789324,12.6119205 Z" id="Shape"></path>
                                    <path d="M60.2626783,12.6119205 C61.2287213,12.6119205 62.2407663,12.794702 62.9307969,13.0688742 L62.9307969,13.0688742 L62.3327703,16.1304636 L62.3327703,16.1304636 L62.3327703,16.1304636 C61.7347438,15.810596 61.0447131,15.6278146 60.2166763,15.6278146 C57.4565536,15.6278146 55.8464821,18.0039735 55.8464821,20.2887417 C55.8464821,22.207947 57.1345393,22.9390728 58.3765945,22.9390728 C59.4806436,22.9390728 60.4006845,22.710596 61.5507356,22.1165563 L61.5507356,22.1165563 L61.5507356,22.1165563 L60.952709,25.2695364 L60.952709,25.2695364 C60.0786702,25.6807947 58.6986088,25.9549669 57.2725454,25.9549669 C53.9603982,25.9549669 51.7983021,23.8986755 51.7983021,20.6543046 C51.7983021,16.0847682 55.4324637,12.6119205 60.2626783,12.6119205 L60.2626783,12.6119205 Z" id="Shape"></path>
                                    <path d="M39.6077603,12.5662252 C39.8377706,12.5662252 40.1137828,12.5662252 40.3437931,12.6119205 L40.3437931,12.6119205 L40.3437931,12.6119205 L39.6077603,16.313245 L39.6077603,16.313245 L39.6077603,16.313245 C39.4697542,16.2675497 39.239744,16.2675497 39.0097338,16.2675497 C36.3876172,16.2675497 35.3755722,18.8264901 34.9615538,20.9284768 L34.041513,25.8635762 C34.041513,25.8635762 34.041513,25.8635762 33.9955109,25.8635762 L30.1773412,25.8635762 L30.1773412,25.8635762 L30.1773412,25.8635762 L32.6614516,12.8403974 L32.6614516,12.8403974 L36.0196009,12.8403974 L36.0196009,12.8403974 L36.0196009,12.8403974 L35.6055825,15.0794702 C35.6055825,15.0794702 35.6055825,15.1251656 35.6515845,15.1251656 L35.6975866,15.1251656 C36.6636295,13.4801325 38.0896929,12.5662252 39.6077603,12.5662252 L39.6077603,12.5662252 Z" id="Shape"></path>
                                    <path d="M46.0940486,25.7721854 L46.0940486,25.7721854 L46.4160629,24.1271523 C46.4160629,24.081457 46.4160629,24.081457 46.3700609,24.081457 L46.3240588,24.081457 C45.6340282,25.2695364 44.2079648,26.0463576 42.6898973,26.0463576 C40.1137828,26.0463576 38.9637317,23.8072848 38.9637317,21.5225166 C38.9637317,18.9635762 39.9757767,16.4046358 41.6778523,14.7139073 C43.1039157,13.297351 44.9439975,12.5662252 47.0140895,12.5662252 C48.578159,12.5662252 49.7282101,13.0231788 50.4642429,13.8913907 C51.5222899,15.1708609 51.4302858,17.1357616 51.2002756,18.5523179 L49.8202142,25.7721854 L49.8202142,25.7721854 L46.0940486,25.7721854 L46.0940486,25.7721854 L46.0940486,25.7721854 Z M44.6679852,16.2218543 C43.6559403,17.2271523 42.8739055,19.192053 42.8739055,20.7456954 C42.8739055,22.1165563 43.379928,22.9390728 44.2539668,22.9390728 C45.6340282,22.9390728 46.8760834,21.4768212 47.2901018,19.3291391 C47.3821059,18.8721854 47.47411,18.3695364 47.566114,17.9582781 C47.6581181,17.5470199 47.6581181,17.1357616 47.6581181,16.8615894 C47.6121161,15.9476821 47.1520956,15.4450331 46.2780568,15.4450331 C45.7260323,15.4907285 45.1740077,15.7649007 44.6679852,16.2218543 L44.6679852,16.2218543 Z" id="Shape"></path>
                                    <path d="M93.982177,12.5662252 C96.5122894,12.5662252 98.168363,14.4854305 98.168363,17.5013245 C98.168363,20.6543046 96.6502956,23.8529801 93.9361749,25.3152318 C91.4520645,26.6403974 89.2439664,26.0463576 88.5079337,25.0410596 L88.5079337,25.0410596 L87.5878928,29.9304636 L87.5878928,29.9304636 L83.7697231,29.9304636 L83.7697231,29.9304636 L83.7697231,29.9304636 L87.0358683,12.794702 L87.0358683,12.794702 L90.3940175,12.794702 L90.3940175,12.794702 L90.3940175,12.794702 L90.0720032,14.5311258 L90.0720032,14.5768212 L90.1180052,14.5768212 L90.1180052,14.5768212 C91.1300502,13.2516556 92.5561136,12.5662252 93.982177,12.5662252 L93.982177,12.5662252 Z M90.6700298,23.1675497 C92.6941197,23.1675497 94.1661852,20.3344371 94.1661852,17.7754967 C94.1661852,17.181457 94.028179,15.6735099 92.6021156,15.6735099 C91.1760523,15.6735099 89.9339971,17.318543 89.4739766,19.7860927 C89.3359705,20.6086093 88.9219521,23.1675497 90.6700298,23.1675497 L90.6700298,23.1675497 Z" id="Shape"></path>
                                    <path d="M65.4149073,8.31655629 L69.187075,8.31655629 L69.187075,8.31655629 L69.187075,8.31655629 L67.2089871,18.6437086 L67.2089871,18.6437086 L67.2089871,18.6437086 L72.315214,12.794702 L72.315214,12.794702 L76.455398,12.794702 L76.455398,12.794702 L76.455398,12.794702 L76.455398,12.794702 L71.1651629,18.689404 L74.385306,25.6350993 L74.385306,25.6350993 L74.385306,25.6350993 L74.385306,25.6350993 L70.291124,25.6350993 L70.291124,25.6350993 L67.162985,18.7807947 L67.162985,18.7807947 L67.162985,18.7807947 L65.8289257,25.6350993 L65.8289257,25.6350993 L62.0567581,25.6350993 L62.0567581,25.6350993 L62.0567581,25.6350993 L65.4149073,8.31655629 C65.3689053,8.31655629 65.3689053,8.31655629 65.4149073,8.31655629 L65.4149073,8.31655629 Z" id="Shape"></path>
                                    <path d="M129.265745,12.5662252 C131.979866,12.5662252 133.773946,14.1198675 133.773946,16.4503311 C133.773946,17.5013245 133.405929,18.4152318 132.715898,19.1006623 C131.427841,20.3344371 129.081737,20.8827815 125.401573,20.7913907 L125.355571,20.7913907 L125.355571,20.8370861 C125.355571,21.202649 125.493577,21.7509934 125.723588,22.0708609 C126.22961,22.710596 127.103649,23.0304636 128.207698,23.0304636 C129.81777,23.0304636 131.197831,22.6192053 132.715898,21.7966887 L132.715898,21.7966887 L132.715898,21.7966887 L132.117872,24.9496689 L132.117872,24.9496689 C130.27779,25.8635762 128.115694,25.9549669 127.287657,25.9549669 C123.699498,25.9549669 121.675408,23.9900662 121.675408,20.5172185 C121.675408,18.5066225 122.411441,16.5417219 123.699498,15.0337748 C125.125561,13.4801325 127.103649,12.5662252 129.265745,12.5662252 L129.265745,12.5662252 Z M130.185786,16.4503311 C130.185786,15.7649007 129.633762,15.3536424 128.805725,15.3536424 C127.149651,15.3536424 126.091604,16.6788079 125.815592,17.9125828 L125.815592,17.9582781 L125.815592,17.9582781 L125.815592,17.9582781 L125.861594,17.9582781 C128.115694,17.9582781 129.357749,17.7298013 129.909774,17.2271523 C130.093782,17.0443709 130.185786,16.7701987 130.185786,16.4503311 L130.185786,16.4503311 Z" id="Shape"></path>
                                    <path d="M135.292013,23.6701987 L135.108005,23.6701987 L135.062003,24.0357616 L135.016001,24.4013245 L135.200009,24.4013245 L135.246011,24.4013245 L135.430019,24.4013245 C135.476021,24.4013245 135.522023,24.4013245 135.568025,24.3556291 C135.752033,24.3099338 135.844038,24.1728477 135.89004,24.0357616 C135.936042,23.8529801 135.844038,23.7615894 135.706031,23.715894 C135.660029,23.715894 135.614027,23.715894 135.568025,23.6701987 L135.292013,23.6701987 L135.292013,23.6701987 L135.292013,23.6701987 Z M134.923997,23.3960265 L134.923997,23.3960265 L135.338015,23.3960265 L135.338015,23.3960265 L135.568025,23.3960265 C135.660029,23.3960265 135.706031,23.3960265 135.752033,23.4417219 C135.982044,23.4874172 136.074048,23.6701987 136.074048,23.8986755 L136.074048,23.9900662 C136.028046,24.2642384 135.844038,24.4470199 135.568025,24.5384106 L135.844038,25.3152318 L135.844038,25.3152318 L135.844038,25.3152318 L135.844038,25.3152318 L135.568025,25.3152318 L135.568025,25.3152318 L135.292013,24.584106 L135.108005,24.584106 L135.108005,24.584106 L134.923997,24.584106 L134.78599,25.3152318 L134.78599,25.3152318 L134.55598,25.3152318 L134.55598,25.3152318 L134.55598,25.3152318 L134.693986,24.584106 L134.693986,24.584106 L134.78599,23.9900662 L134.923997,23.3960265 L134.923997,23.3960265 Z M133.589937,24.4013245 C133.681941,23.4874172 134.509978,22.710596 135.430019,22.710596 C136.35006,22.710596 137.040091,23.4417219 136.948087,24.4013245 C136.856082,25.3152318 136.028046,26.0463576 135.108005,26.0463576 C134.187964,26.0463576 133.497933,25.3152318 133.589937,24.4013245 L133.589937,24.4013245 Z M133.819948,24.4013245 C133.727943,25.1781457 134.32597,25.8178808 135.108005,25.8178808 C135.936042,25.8178808 136.626072,25.1781457 136.718076,24.3556291 C136.81008,23.5788079 136.212054,22.9390728 135.430019,22.9390728 C134.601982,22.9390728 133.911952,23.6245033 133.819948,24.4013245 L133.819948,24.4013245 Z" id="Shape"></path>
                                </g>
                            </g>
                        </g>
                        <g id="Group" transform="translate(183.000000, 69.000000)">
                            <text id="FIRST" font-family="Roboto-Medium, Roboto" font-size="12" font-weight="400" fill="#0D74D1">
                                <tspan x="0" y="13">FIRST</tspan>
                            </text>
                            <text id="OVERVIEW" font-family="Roboto-Medium, Roboto" font-size="12" font-weight="400" fill="#9E9E9E">
                                <tspan x="124" y="13">OVERVIEW</tspan>
                            </text>
                            <text id="SECOND" font-family="Roboto-Medium, Roboto" font-size="12" font-weight="400" fill="#3391FF">
                                <tspan x="55" y="13">SECOND</tspan>
                            </text>
                            <path d="M40.5897914,3.55836972 L40.1598521,4.18499401 L43.2661547,7.08062407 L40.1598521,9.97705646 L40.5897914,10.6036808 L44.0320594,7.39433738 C44.1136411,7.31851664 44.1614886,7.20257911 44.1614886,7.08062407 C44.1614886,6.95907019 44.1136411,6.84353383 44.0320594,6.76771309 L40.5897914,3.55836972 Z" id="Fill-480" fill="#9E9E9E"></path>
                            <path d="M109.589791,3.55836972 L109.159852,4.18499401 L112.266155,7.08062407 L109.159852,9.97705646 L109.589791,10.6036808 L113.032059,7.39433738 C113.113641,7.31851664 113.161489,7.20257911 113.161489,7.08062407 C113.161489,6.95907019 113.113641,6.84353383 113.032059,6.76771309 L109.589791,3.55836972 Z" id="Fill-480" fill="#9E9E9E"></path>
                        </g>
                        <g id="Frame"></g>
                    </g>
                </g>
                <g id="Group-8" mask="url(#mask-2)">
                    <g transform="translate(39.000000, 195.000000)">
                        <g id="Group">
                            <rect id="Rectangle-Copy" fill="#212121" x="0" y="0" width="160" height="204.986308"></rect>
                        </g>
                        <g id="laptop-minimum">
                            <rect id="background" fill="#000000" x="0" y="0" width="1024" height="56"></rect>
                            <g id="global-navigation-/-rackspace-/-default">
                                <g id="pilot-/-item-/-background-/-default" fill="#000000">
                                    <rect id="Rectangle-14-Copy" x="0" y="0" width="160" height="56"></rect>
                                </g>
                                <g id="Group" stroke-width="1" transform="translate(11.944444, 12.000000)" fill="#D8D8D8">
                                    <path d="M21.1609405,3.79271523 L21.1609405,3.79271523 L21.1609405,3.79271523 C20.70092,5.16357616 19.8728832,6.71721854 19.0908485,7.90529801 C17.3887728,10.3728477 14.9966665,11.9721854 13.7086093,11.3781457 C12.420552,10.8298013 12.7425663,8.36225166 14.3986399,5.89470199 C14.7666563,5.34635762 15.1806747,4.84370861 15.6406951,4.38675497 L15.6406951,4.38675497 C15.6406951,4.38675497 15.6406951,4.38675497 15.5946931,4.38675497 L15.5946931,4.38675497 C15.0886706,4.4781457 14.5366461,4.56953642 13.9846215,4.70662252 L13.9846215,4.70662252 C8.28036802,11.6066225 5.8882617,20.6086093 6.21027601,28.6509934 L6.21027601,28.6509934 L6.21027601,28.6509934 C2.85212676,27.3258278 0.414018401,24.081457 0.138006134,20.0145695 L0.138006134,19.9688742 C-0.276012267,12.7490066 5.52024534,5.30066225 13.1105827,3.42715232 C16.0547135,2.65033113 18.8608383,2.87880795 21.1609405,3.79271523 L21.1609405,3.79271523 Z M14.5366461,7.90529801 C13.9846215,9.04768212 14.2146318,9.9615894 15.0426686,10.0072848 C15.8707054,10.0072848 16.9747544,9.09337748 17.4807769,7.95099338 C18.0328015,6.80860927 17.8027912,5.84900662 17.0207565,5.84900662 C16.1927197,5.84900662 15.0886706,6.76291391 14.5366461,7.90529801 L14.5366461,7.90529801 Z" id="Shape"></path>
                                    <path d="M18.9988444,23.3046358 C18.4468199,23.6701987 17.8947953,24.0357616 17.2507667,24.3556291 L17.2507667,24.3556291 C17.2507667,24.3556291 17.2507667,24.3556291 17.2047647,24.3556291 C17.1127606,22.6192053 16.6987422,20.9284768 16.0547135,19.5119205 C14.3066359,15.7649007 11.2705009,15.4907285 9.24641095,18.8721854 C8.00435575,20.9284768 7.45233121,23.8986755 7.59033735,26.7774834 L7.59033735,26.7774834 C9.7064314,27.4172185 12.1905418,27.5086093 14.7666563,26.8688742 C22.3569936,24.9496689 28.1532513,17.5470199 27.7392329,10.3271523 C27.3712165,3.97549669 22.3109916,-0.137086093 15.9627095,0.228476821 L15.9627095,0.228476821 C15.3646829,0.868211921 14.7666563,1.46225166 14.2146318,2.10198675 L14.2146318,2.10198675 L14.2146318,2.10198675 L14.2146318,2.10198675 C17.9407974,1.64503311 20.9309303,2.37615894 22.8630161,3.92980132 L22.8630161,3.92980132 L22.8630161,3.92980132 C16.3307258,13.4344371 17.1587626,18.7807947 18.9988444,23.3046358 L18.9988444,23.3046358 L18.9988444,23.3046358 L18.9988444,23.3046358 Z" id="Shape"></path>
                                    <path d="M105.574692,25.7721854 L105.574692,25.7721854 L105.896707,24.1271523 C105.896707,24.081457 105.896707,24.081457 105.850704,24.081457 L105.804702,24.081457 C105.114672,25.2695364 103.688608,26.0463576 102.124539,26.0463576 C99.5484244,26.0463576 98.3983733,23.8072848 98.3983733,21.5225166 C98.3983733,18.9635762 99.4104182,16.4046358 101.112494,14.7139073 C102.538557,13.297351 104.378639,12.5662252 106.448731,12.5662252 C108.012801,12.5662252 109.162852,13.0231788 109.898884,13.8913907 C110.956931,15.1708609 110.864927,17.1357616 110.634917,18.5523179 L109.254856,25.7721854 L109.254856,25.7721854 L105.574692,25.7721854 L105.574692,25.7721854 L105.574692,25.7721854 Z M104.148629,16.2218543 C103.136584,17.2271523 102.354549,19.192053 102.354549,20.7456954 C102.354549,22.1165563 102.860572,22.9390728 103.73461,22.9390728 C105.114672,22.9390728 106.356727,21.4768212 106.770745,19.3291391 C106.862749,18.8721854 106.954754,18.3695364 107.046758,17.9582781 C107.09276,17.5470199 107.138762,17.1357616 107.138762,16.8615894 C107.09276,15.9476821 106.632739,15.4450331 105.7587,15.4450331 C105.206676,15.4907285 104.654651,15.7649007 104.148629,16.2218543 L104.148629,16.2218543 Z" id="Shape"></path>
                                    <path d="M81.6536291,12.5662252 C83.2637006,12.5662252 84.4137517,12.9317881 84.9657763,13.2059603 L84.9657763,13.2059603 L84.4137517,16.0390728 L84.4137517,16.0390728 L84.4137517,16.0390728 C83.7697231,15.6735099 82.665674,15.307947 81.4696209,15.307947 C80.4575759,15.307947 79.8135473,15.7192053 79.8135473,16.4046358 C79.8135473,16.9072848 80.3195698,17.3642384 81.3776168,17.8668874 C82.7576781,18.5523179 84.2757456,19.5576159 84.2757456,21.3854305 C84.2757456,22.5735099 83.8617272,23.5788079 83.0796924,24.3556291 C82.0216454,25.4066225 80.3195698,25.9549669 78.2954798,25.9549669 C76.7314103,25.9549669 75.1213387,25.5437086 74.339304,24.9496689 L74.339304,24.9496689 L74.8913285,22.0708609 L74.8913285,22.0708609 L74.8913285,22.0708609 C75.7653673,22.6192053 77.421441,23.1675497 78.6634962,23.1675497 C79.6295391,23.1675497 80.2735677,22.710596 80.2735677,22.0251656 C80.2735677,21.3854305 79.8135473,20.9284768 78.6634962,20.3801325 C76.8234144,19.4662252 75.9033735,18.3238411 75.9033735,16.9529801 C75.9493755,14.3940397 78.2494778,12.5662252 81.6536291,12.5662252 L81.6536291,12.5662252 Z" id="Shape"></path>
                                    <path d="M119.789324,12.6119205 C120.755367,12.6119205 121.767412,12.794702 122.457443,13.0688742 L122.457443,13.0688742 L121.859416,16.1304636 L121.859416,16.1304636 L121.859416,16.1304636 C121.261389,15.810596 120.571359,15.6278146 119.743322,15.6278146 C116.983199,15.6278146 115.373128,18.0039735 115.373128,20.2887417 C115.373128,22.207947 116.661185,22.9390728 117.90324,22.9390728 C119.007289,22.9390728 119.92733,22.710596 121.077381,22.1165563 L121.077381,22.1165563 L121.077381,22.1165563 L120.479355,25.2695364 L120.479355,25.2695364 C119.605316,25.6807947 118.225254,25.9549669 116.799191,25.9549669 C113.487044,25.9549669 111.324948,23.8986755 111.324948,20.6543046 C111.278946,16.0847682 114.959109,12.6119205 119.789324,12.6119205 L119.789324,12.6119205 Z" id="Shape"></path>
                                    <path d="M60.2626783,12.6119205 C61.2287213,12.6119205 62.2407663,12.794702 62.9307969,13.0688742 L62.9307969,13.0688742 L62.3327703,16.1304636 L62.3327703,16.1304636 L62.3327703,16.1304636 C61.7347438,15.810596 61.0447131,15.6278146 60.2166763,15.6278146 C57.4565536,15.6278146 55.8464821,18.0039735 55.8464821,20.2887417 C55.8464821,22.207947 57.1345393,22.9390728 58.3765945,22.9390728 C59.4806436,22.9390728 60.4006845,22.710596 61.5507356,22.1165563 L61.5507356,22.1165563 L61.5507356,22.1165563 L60.952709,25.2695364 L60.952709,25.2695364 C60.0786702,25.6807947 58.6986088,25.9549669 57.2725454,25.9549669 C53.9603982,25.9549669 51.7983021,23.8986755 51.7983021,20.6543046 C51.7983021,16.0847682 55.4324637,12.6119205 60.2626783,12.6119205 L60.2626783,12.6119205 Z" id="Shape"></path>
                                    <path d="M39.6077603,12.5662252 C39.8377706,12.5662252 40.1137828,12.5662252 40.3437931,12.6119205 L40.3437931,12.6119205 L40.3437931,12.6119205 L39.6077603,16.313245 L39.6077603,16.313245 L39.6077603,16.313245 C39.4697542,16.2675497 39.239744,16.2675497 39.0097338,16.2675497 C36.3876172,16.2675497 35.3755722,18.8264901 34.9615538,20.9284768 L34.041513,25.8635762 C34.041513,25.8635762 34.041513,25.8635762 33.9955109,25.8635762 L30.1773412,25.8635762 L30.1773412,25.8635762 L30.1773412,25.8635762 L32.6614516,12.8403974 L32.6614516,12.8403974 L36.0196009,12.8403974 L36.0196009,12.8403974 L36.0196009,12.8403974 L35.6055825,15.0794702 C35.6055825,15.0794702 35.6055825,15.1251656 35.6515845,15.1251656 L35.6975866,15.1251656 C36.6636295,13.4801325 38.0896929,12.5662252 39.6077603,12.5662252 L39.6077603,12.5662252 Z" id="Shape"></path>
                                    <path d="M46.0940486,25.7721854 L46.0940486,25.7721854 L46.4160629,24.1271523 C46.4160629,24.081457 46.4160629,24.081457 46.3700609,24.081457 L46.3240588,24.081457 C45.6340282,25.2695364 44.2079648,26.0463576 42.6898973,26.0463576 C40.1137828,26.0463576 38.9637317,23.8072848 38.9637317,21.5225166 C38.9637317,18.9635762 39.9757767,16.4046358 41.6778523,14.7139073 C43.1039157,13.297351 44.9439975,12.5662252 47.0140895,12.5662252 C48.578159,12.5662252 49.7282101,13.0231788 50.4642429,13.8913907 C51.5222899,15.1708609 51.4302858,17.1357616 51.2002756,18.5523179 L49.8202142,25.7721854 L49.8202142,25.7721854 L46.0940486,25.7721854 L46.0940486,25.7721854 L46.0940486,25.7721854 Z M44.6679852,16.2218543 C43.6559403,17.2271523 42.8739055,19.192053 42.8739055,20.7456954 C42.8739055,22.1165563 43.379928,22.9390728 44.2539668,22.9390728 C45.6340282,22.9390728 46.8760834,21.4768212 47.2901018,19.3291391 C47.3821059,18.8721854 47.47411,18.3695364 47.566114,17.9582781 C47.6581181,17.5470199 47.6581181,17.1357616 47.6581181,16.8615894 C47.6121161,15.9476821 47.1520956,15.4450331 46.2780568,15.4450331 C45.7260323,15.4907285 45.1740077,15.7649007 44.6679852,16.2218543 L44.6679852,16.2218543 Z" id="Shape"></path>
                                    <path d="M93.982177,12.5662252 C96.5122894,12.5662252 98.168363,14.4854305 98.168363,17.5013245 C98.168363,20.6543046 96.6502956,23.8529801 93.9361749,25.3152318 C91.4520645,26.6403974 89.2439664,26.0463576 88.5079337,25.0410596 L88.5079337,25.0410596 L87.5878928,29.9304636 L87.5878928,29.9304636 L83.7697231,29.9304636 L83.7697231,29.9304636 L83.7697231,29.9304636 L87.0358683,12.794702 L87.0358683,12.794702 L90.3940175,12.794702 L90.3940175,12.794702 L90.3940175,12.794702 L90.0720032,14.5311258 L90.0720032,14.5768212 L90.1180052,14.5768212 L90.1180052,14.5768212 C91.1300502,13.2516556 92.5561136,12.5662252 93.982177,12.5662252 L93.982177,12.5662252 Z M90.6700298,23.1675497 C92.6941197,23.1675497 94.1661852,20.3344371 94.1661852,17.7754967 C94.1661852,17.181457 94.028179,15.6735099 92.6021156,15.6735099 C91.1760523,15.6735099 89.9339971,17.318543 89.4739766,19.7860927 C89.3359705,20.6086093 88.9219521,23.1675497 90.6700298,23.1675497 L90.6700298,23.1675497 Z" id="Shape"></path>
                                    <path d="M65.4149073,8.31655629 L69.187075,8.31655629 L69.187075,8.31655629 L69.187075,8.31655629 L67.2089871,18.6437086 L67.2089871,18.6437086 L67.2089871,18.6437086 L72.315214,12.794702 L72.315214,12.794702 L76.455398,12.794702 L76.455398,12.794702 L76.455398,12.794702 L76.455398,12.794702 L71.1651629,18.689404 L74.385306,25.6350993 L74.385306,25.6350993 L74.385306,25.6350993 L74.385306,25.6350993 L70.291124,25.6350993 L70.291124,25.6350993 L67.162985,18.7807947 L67.162985,18.7807947 L67.162985,18.7807947 L65.8289257,25.6350993 L65.8289257,25.6350993 L62.0567581,25.6350993 L62.0567581,25.6350993 L62.0567581,25.6350993 L65.4149073,8.31655629 C65.3689053,8.31655629 65.3689053,8.31655629 65.4149073,8.31655629 L65.4149073,8.31655629 Z" id="Shape"></path>
                                    <path d="M129.265745,12.5662252 C131.979866,12.5662252 133.773946,14.1198675 133.773946,16.4503311 C133.773946,17.5013245 133.405929,18.4152318 132.715898,19.1006623 C131.427841,20.3344371 129.081737,20.8827815 125.401573,20.7913907 L125.355571,20.7913907 L125.355571,20.8370861 C125.355571,21.202649 125.493577,21.7509934 125.723588,22.0708609 C126.22961,22.710596 127.103649,23.0304636 128.207698,23.0304636 C129.81777,23.0304636 131.197831,22.6192053 132.715898,21.7966887 L132.715898,21.7966887 L132.715898,21.7966887 L132.117872,24.9496689 L132.117872,24.9496689 C130.27779,25.8635762 128.115694,25.9549669 127.287657,25.9549669 C123.699498,25.9549669 121.675408,23.9900662 121.675408,20.5172185 C121.675408,18.5066225 122.411441,16.5417219 123.699498,15.0337748 C125.125561,13.4801325 127.103649,12.5662252 129.265745,12.5662252 L129.265745,12.5662252 Z M130.185786,16.4503311 C130.185786,15.7649007 129.633762,15.3536424 128.805725,15.3536424 C127.149651,15.3536424 126.091604,16.6788079 125.815592,17.9125828 L125.815592,17.9582781 L125.815592,17.9582781 L125.815592,17.9582781 L125.861594,17.9582781 C128.115694,17.9582781 129.357749,17.7298013 129.909774,17.2271523 C130.093782,17.0443709 130.185786,16.7701987 130.185786,16.4503311 L130.185786,16.4503311 Z" id="Shape"></path>
                                    <path d="M135.292013,23.6701987 L135.108005,23.6701987 L135.062003,24.0357616 L135.016001,24.4013245 L135.200009,24.4013245 L135.246011,24.4013245 L135.430019,24.4013245 C135.476021,24.4013245 135.522023,24.4013245 135.568025,24.3556291 C135.752033,24.3099338 135.844038,24.1728477 135.89004,24.0357616 C135.936042,23.8529801 135.844038,23.7615894 135.706031,23.715894 C135.660029,23.715894 135.614027,23.715894 135.568025,23.6701987 L135.292013,23.6701987 L135.292013,23.6701987 L135.292013,23.6701987 Z M134.923997,23.3960265 L134.923997,23.3960265 L135.338015,23.3960265 L135.338015,23.3960265 L135.568025,23.3960265 C135.660029,23.3960265 135.706031,23.3960265 135.752033,23.4417219 C135.982044,23.4874172 136.074048,23.6701987 136.074048,23.8986755 L136.074048,23.9900662 C136.028046,24.2642384 135.844038,24.4470199 135.568025,24.5384106 L135.844038,25.3152318 L135.844038,25.3152318 L135.844038,25.3152318 L135.844038,25.3152318 L135.568025,25.3152318 L135.568025,25.3152318 L135.292013,24.584106 L135.108005,24.584106 L135.108005,24.584106 L134.923997,24.584106 L134.78599,25.3152318 L134.78599,25.3152318 L134.55598,25.3152318 L134.55598,25.3152318 L134.55598,25.3152318 L134.693986,24.584106 L134.693986,24.584106 L134.78599,23.9900662 L134.923997,23.3960265 L134.923997,23.3960265 Z M133.589937,24.4013245 C133.681941,23.4874172 134.509978,22.710596 135.430019,22.710596 C136.35006,22.710596 137.040091,23.4417219 136.948087,24.4013245 C136.856082,25.3152318 136.028046,26.0463576 135.108005,26.0463576 C134.187964,26.0463576 133.497933,25.3152318 133.589937,24.4013245 L133.589937,24.4013245 Z M133.819948,24.4013245 C133.727943,25.1781457 134.32597,25.8178808 135.108005,25.8178808 C135.936042,25.8178808 136.626072,25.1781457 136.718076,24.3556291 C136.81008,23.5788079 136.212054,22.9390728 135.430019,22.9390728 C134.601982,22.9390728 133.911952,23.6245033 133.819948,24.4013245 L133.819948,24.4013245 Z" id="Shape"></path>
                                </g>
                            </g>
                        </g>
                        <g id="Group" transform="translate(303.000000, 69.000000)" font-size="12" font-family="Roboto-Medium, Roboto" font-weight="400">
                            <text id="FANATICAL-SUPPORT-FO" fill="#9E9E9E">
                                <tspan x="0" y="13">FANATICAL SUPPORT FOR AWS ACCOUNT SPEND OVERVIEW</tspan>
                            </text>
                        </g>
                        <g id="Frame"></g>
                    </g>
                </g>
                <g id="Group-9" filter="url(#filter-4)" mask="url(#mask-2)">
                    <g transform="translate(0.000000, -1.000000)">
                        <rect id="Rectangle-6" fill="#00CC09" x="0" y="0" width="39" height="196.161298"></rect>
                        <polygon id="Fill-37" fill="#FFFFFF" points="16.6499079 105.286195 11.2643915 99.9017713 13.1969251 97.9692377 16.5559046 101.328217 26.5224438 90.3648054 28.5446085 92.2022426"></polygon>
                        <g id="Group-11" stroke-width="1" fill="none" transform="translate(0.000000, 196.000000)">
                            <rect id="Rectangle-6-Copy" fill="#D41111" x="0" y="0" width="39.00431" height="196.161298"></rect>
                            <polygon id="Fill-38" fill="#FFFFFF" points="28.828 91.828 26 89 19.414 95.587 12.828 89 10 91.828 16.586 98.414 10 105 12.828 107.828 19.414 101.242 26 107.828 28.828 105 22.242 98.414"></polygon>
                        </g>
                    </g>
                </g>
                <g id="Group" mask="url(#mask-2)">
                    <g transform="translate(219.000000, 264.000000)">
                        <text id="FIRST" fill="none" font-family="Roboto-Medium, Roboto" font-size="12" font-weight="400">
                            <tspan x="0" y="13" fill="#0D74D1">FIRST</tspan>
                        </text>
                        <text id="SECOND" fill="none" font-family="Roboto-Medium, Roboto" font-size="12" font-weight="400">
                            <tspan x="55" y="13" fill="#3391FF">SECOND</tspan>
                        </text>
                        <path d="M40.5897914,3.55836972 L40.1598521,4.18499401 L43.2661547,7.08062407 L40.1598521,9.97705646 L40.5897914,10.6036808 L44.0320594,7.39433738 C44.1136411,7.31851664 44.1614886,7.20257911 44.1614886,7.08062407 C44.1614886,6.95907019 44.1136411,6.84353383 44.0320594,6.76771309 L40.5897914,3.55836972 Z" id="Fill-480" fill="#9E9E9E" fill-rule="evenodd"></path>
                        <path d="M109.589791,3.55836972 L109.159852,4.18499401 L112.266155,7.08062407 L109.159852,9.97705646 L109.589791,10.6036808 L113.032059,7.39433738 C113.113641,7.31851664 113.161489,7.20257911 113.161489,7.08062407 C113.161489,6.95907019 113.113641,6.84353383 113.032059,6.76771309 L109.589791,3.55836972 Z" id="Fill-480" fill="#9E9E9E" fill-rule="evenodd"></path>
                    </g>
                </g>
            </g>
        </g>
    </g>
</svg>
