<?xml version="1.0" encoding="UTF-8" standalone="no"?>
<svg width="635px" height="402px" viewBox="0 0 635 402" version="1.1" xmlns="http://www.w3.org/2000/svg" xmlns:xlink="http://www.w3.org/1999/xlink">
    <!-- Generator: Sketch 47.1 (45422) - http://www.bohemiancoding.com/sketch -->
    <title>type-context-title</title>
    <desc>Created with Sketch.</desc>
    <defs>
        <path d="M185,200 L269,200 L269,200 C270.104569,200 271,200.895431 271,202 L271,232 L183,232 L183,202 L183,202 C183,200.895431 183.895431,200 185,200 Z" id="path-1"></path>
        <polygon id="path-2" points="7 3.5 0 7 0 0"></polygon>
    </defs>
    <g id="Page-1" stroke="none" stroke-width="1" fill="none" fill-rule="evenodd">
        <g id="type-context-title">
            <g id="typography-context-title" transform="translate(2.000000, 10.000000)">
                <text id="Context-Title" font-family="Roboto-Medium, Roboto" font-size="14" font-weight="400" line-spacing="21" fill="#6B6B6B">
                    <tspan x="21" y="23">Context Title</tspan>
                </text>
                <g id="bar" transform="translate(20.000000, 40.000000)" fill="#EAEAEA">
                    <rect id="Rectangle" x="0" y="0" width="197" height="34" rx="17"></rect>
                </g>
                <g id="bar" transform="translate(21.000000, 144.000000)" fill="#EAEAEA">
                    <rect id="Rectangle" x="0" y="0" width="171" height="24" rx="12"></rect>
                </g>
                <rect id="Rectangle-8-Copy" fill="#E0E0E0" x="0" y="111" width="633" height="1"></rect>
                <g id="bar" transform="translate(117.000000, 212.000000)" fill="#EAEAEA">
                    <rect id="Rectangle" x="0" y="0" width="53" height="10" rx="5"></rect>
                </g>
                <g id="bar" transform="translate(283.000000, 212.000000)" fill="#EAEAEA">
                    <rect id="Rectangle" x="0" y="0" width="53" height="10" rx="5"></rect>
                </g>
                <g id="bar" transform="translate(40.000000, 212.000000)" fill="#EAEAEA">
                    <rect id="Rectangle" x="0" y="0" width="53" height="10" rx="5"></rect>
                </g>
                <g id="bar" transform="translate(42.000000, 262.000000)" fill="#EAEAEA">
                    <rect id="Rectangle" x="0" y="0" width="155" height="17" rx="8.5"></rect>
                </g>
                <rect id="Rectangle-2-Copy-2" fill="#E5E5E5" x="42" y="334" width="332" height="14" rx="7"></rect>
                <rect id="Rectangle-2-Copy" fill="#E5E5E5" x="42" y="310" width="524" height="13" rx="6.5"></rect>
                <rect id="Rectangle-8" fill="#E0E0E0" x="21" y="231" width="592" height="1"></rect>
                <g id="Rectangle-9">
                    <use fill="#FAFAFA" fill-rule="evenodd" xlink:href="#path-1"></use>
                    <path stroke="#E0E0E0" stroke-width="1" d="M183.5,231.5 L270.5,231.5 L270.5,202 C270.5,201.171573 269.828427,200.5 269,200.5 L185,200.5 C184.171573,200.5 183.5,201.171573 183.5,202 L183.5,231.5 Z"></path>
                </g>
                <rect id="Rectangle" fill-opacity="0.400000006" fill="#0C7C84" x="197" y="212" width="61" height="10" rx="5"></rect>
                <rect id="Rectangle-10" fill="#FAFAFA" x="184" y="231" width="86" height="1"></rect>
                <g id="bar" transform="translate(556.000000, 65.000000)" fill="#EAEAEA">
                    <rect id="Rectangle" x="0" y="0" width="52" height="9" rx="4.5"></rect>
                </g>
                <g id="bar" transform="translate(558.000000, 9.000000)" fill="#EAEAEA">
                    <rect id="Rectangle" x="0" y="0" width="48" height="48" rx="24"></rect>
                </g>
                <g id="specs-/-redlines-/-line-inclusive" transform="translate(176.500000, 22.000000) scale(-1, 1) translate(-176.500000, -22.000000) translate(111.000000, 6.000000)">
                    <path d="M1,15.84 L131,15.84" id="redline-line" stroke="#EC407A" stroke-width="1"></path>
                    <g id="specs-/-redlines-/-line-end-/-arrow" transform="translate(124.000000, 12.340000)">
                        <g id="redline-end">
                            <use fill="#FFFFFF" fill-rule="evenodd" xlink:href="#path-2"></use>
                            <path stroke="#EC407A" stroke-width="1" d="M5.88196601,3.5 L0.5,0.809016994 L0.5,6.19098301 L5.88196601,3.5 Z"></path>
                        </g>
                    </g>
                    <path d="M0.808457711,0.16 L0.808457711,31.84" id="Line" stroke="#F0367A" stroke-width="1" stroke-linecap="square"></path>
                </g>
                <text id="Typeface:-Roboto-Wei" font-family="Roboto-Regular, Roboto" font-size="12" font-weight="normal" letter-spacing="0.328125" fill="#EC407A">
                    <tspan x="250" y="11">Typeface: Roboto</tspan>
                    <tspan x="250" y="25">Weight: Medium (500)</tspan>
                    <tspan x="250" y="39">Size: 14px / 0.875rem</tspan>
                    <tspan x="250" y="53">Color: Gray 750, #6b6b6b</tspan>
                    <tspan x="250" y="67">Line Height: 1.5</tspan>
                </text>
            </g>
        </g>
    </g>
</svg>