<?xml version="1.0" encoding="UTF-8" standalone="no"?>
<svg width="635px" height="395px" viewBox="0 0 635 395" version="1.1" xmlns="http://www.w3.org/2000/svg" xmlns:xlink="http://www.w3.org/1999/xlink">
    <!-- Generator: Sketch 47.1 (45422) - http://www.bohemiancoding.com/sketch -->
    <title>type-body</title>
    <desc>Created with Sketch.</desc>
    <defs>
        <path d="M164,67 L248,67 L248,67 C249.104569,67 250,67.8954305 250,69 L250,99 L162,99 L162,69 L162,69 C162,67.8954305 162.895431,67 164,67 Z" id="path-1"></path>
        <polygon id="path-2" points="7 3.5 0 7 0 0"></polygon>
    </defs>
    <g id="Page-1" stroke="none" stroke-width="1" fill="none" fill-rule="evenodd">
        <g id="type-body">
            <g id="typography-body-paragraph" transform="translate(23.000000, 21.000000)">
                <g id="bar" transform="translate(0.000000, 11.000000)" fill="#EAEAEA">
                    <rect id="Rectangle" x="0" y="0" width="171" height="24" rx="12"></rect>
                </g>
                <g id="bar" transform="translate(96.000000, 79.000000)" fill="#EAEAEA">
                    <rect id="Rectangle" x="0" y="0" width="53" height="10" rx="5"></rect>
                </g>
                <g id="bar" transform="translate(262.000000, 79.000000)" fill="#EAEAEA">
                    <rect id="Rectangle" x="0" y="0" width="53" height="10" rx="5"></rect>
                </g>
                <g id="bar" transform="translate(19.000000, 79.000000)" fill="#EAEAEA">
                    <rect id="Rectangle" x="0" y="0" width="53" height="10" rx="5"></rect>
                </g>
                <g id="bar" transform="translate(21.000000, 129.000000)" fill="#EAEAEA">
                    <rect id="Rectangle" x="0" y="0" width="155" height="17" rx="8.5"></rect>
                </g>
                <rect id="Rectangle-2-Copy-13" fill="#E5E5E5" x="21" y="286" width="138" height="12" rx="6"></rect>
                <rect id="Rectangle-2-Copy-14" fill="#E5E5E5" x="350" y="286" width="138" height="12" rx="6"></rect>
                <rect id="Rectangle-2-Copy" fill="#E5E5E5" opacity="0.5" x="44" y="326" width="58" height="12" rx="6"></rect>
                <rect id="Rectangle-2-Copy-5" fill="#E5E5E5" opacity="0.5" x="44" y="355" width="58" height="12" rx="6"></rect>
                <rect id="Rectangle-2-Copy-3" fill="#B2D1ED" x="20" y="246" width="129" height="12" rx="6"></rect>
                <rect id="Rectangle-2-Copy-6" fill="#E5E5E5" x="113" y="326" width="162" height="12" rx="6"></rect>
                <rect id="Rectangle-2-Copy-9" fill="#E5E5E5" x="113" y="355" width="162" height="12" rx="6"></rect>
                <text id="This-is-body-text-in" font-family="Roboto-Regular, Roboto" font-size="16" font-weight="normal" line-spacing="24" fill="#424242">
                    <tspan x="21" y="187">This is body text in a paragraph. In order to create a server, please see our help </tspan>
                    <tspan x="21" y="211">guide to select the best model for your business needs.</tspan>
                </text>
                <g id="specs-/-padding" transform="translate(21.000000, 220.000000)">
                    <rect id="Rectangle-2-Copy" fill="#FBC02D" fill-rule="evenodd" x="0" y="0" width="538" height="20"></rect>
                    <text id="label" font-family="Roboto-Medium, Roboto" font-size="12" font-weight="400" line-spacing="11" fill="#FFFFFF">
                        <tspan x="247.039062" y="13.2428385">20px</tspan>
                    </text>
                </g>
                <rect id="Rectangle-8" fill="#E0E0E0" x="0" y="98" width="592" height="1"></rect>
                <g id="Rectangle-9">
                    <use fill="#FAFAFA" fill-rule="evenodd" xlink:href="#path-1"></use>
                    <path stroke="#E0E0E0" stroke-width="1" d="M162.5,98.5 L249.5,98.5 L249.5,69 C249.5,68.1715729 248.828427,67.5 248,67.5 L164,67.5 C163.171573,67.5 162.5,68.1715729 162.5,69 L162.5,98.5 Z"></path>
                </g>
                <rect id="Rectangle" fill-opacity="0.400000006" fill="#0C7C84" x="176" y="79" width="61" height="10" rx="5"></rect>
                <rect id="Rectangle-10" fill="#FAFAFA" x="163" y="98" width="86" height="1"></rect>
                <rect id="Rectangle-11" fill="#E5E5E5" x="349" y="324" width="223" height="48"></rect>
                <text id="Typeface:-Roboto-Wei" font-family="Roboto-Regular, Roboto" font-size="12" font-weight="normal" letter-spacing="0.328125" fill="#EC407A">
                    <tspan x="377" y="11">Typeface: Roboto</tspan>
                    <tspan x="377" y="25">Weight: Regular (400)</tspan>
                    <tspan x="377" y="39">Size: 16px / 1rem</tspan>
                    <tspan x="377" y="53">Color: Gray 900, #424242</tspan>
                    <tspan x="377" y="67">Line Height: 1.5</tspan>
                </text>
                <g id="specs-/-redlines-/-line-inclusive" transform="translate(456.500000, 130.000000) rotate(-270.000000) translate(-456.500000, -130.000000) translate(411.500000, 49.500000)">
                    <path d="M1,79.695 L90,79.695" id="redline-line" stroke="#EC407A" stroke-width="1"></path>
                    <g id="specs-/-redlines-/-line-end-/-arrow" transform="translate(83.000000, 76.195000)">
                        <g id="redline-end">
                            <use fill="#FFFFFF" fill-rule="evenodd" xlink:href="#path-2"></use>
                            <path stroke="#EC407A" stroke-width="1" d="M5.88196601,3.5 L0.5,0.809016994 L0.5,6.19098301 L5.88196601,3.5 Z"></path>
                        </g>
                    </g>
                    <path d="M0.400497512,0.805 L0.400497512,160.195" id="Line" stroke="#F0367A" stroke-width="1" stroke-linecap="square"></path>
                </g>
            </g>
        </g>
    </g>
</svg>