<?xml version="1.0" encoding="UTF-8" standalone="no"?>
<svg width="635px" height="392px" viewBox="0 0 635 392" version="1.1" xmlns="http://www.w3.org/2000/svg" xmlns:xlink="http://www.w3.org/1999/xlink">
    <!-- Generator: Sketch 47.1 (45422) - http://www.bohemiancoding.com/sketch -->
    <title>type-container-title</title>
    <desc>Created with Sketch.</desc>
    <defs>
        <path d="M185,191 L269,191 L269,191 C270.104569,191 271,191.895431 271,193 L271,223 L183,223 L183,193 L183,193 C183,191.895431 183.895431,191 185,191 Z" id="path-1"></path>
        <polygon id="path-2" points="7 3.5 0 7 0 0"></polygon>
    </defs>
    <g id="Page-1" stroke="none" stroke-width="1" fill="none" fill-rule="evenodd">
        <g id="type-container-title">
            <g id="typography-container-title" transform="translate(2.000000, 20.000000)">
                <rect id="context-title-bar" fill="#E5E5E5" x="22" y="7" width="80" height="10" rx="5"></rect>
                <g id="bar" transform="translate(20.000000, 31.000000)" fill="#EAEAEA">
                    <rect id="Rectangle" x="0" y="0" width="197" height="34" rx="17"></rect>
                </g>
                <g id="bar" transform="translate(22.000000, 7.000000)" fill="#EAEAEA">
                    <rect id="Rectangle" x="0" y="0" width="80" height="10" rx="5"></rect>
                </g>
                <g id="bar" transform="translate(21.000000, 135.000000)" fill="#EAEAEA">
                    <rect id="Rectangle" x="0" y="0" width="171" height="24" rx="12"></rect>
                </g>
                <rect id="Rectangle-8-Copy" fill="#E0E0E0" x="0" y="102" width="633" height="1"></rect>
                <g id="bar" transform="translate(117.000000, 203.000000)" fill="#EAEAEA">
                    <rect id="Rectangle" x="0" y="0" width="53" height="10" rx="5"></rect>
                </g>
                <g id="bar" transform="translate(283.000000, 203.000000)" fill="#EAEAEA">
                    <rect id="Rectangle" x="0" y="0" width="53" height="10" rx="5"></rect>
                </g>
                <g id="bar" transform="translate(40.000000, 203.000000)" fill="#EAEAEA">
                    <rect id="Rectangle" x="0" y="0" width="53" height="10" rx="5"></rect>
                </g>
                <text id="Container-Title" font-family="Roboto-Regular, Roboto" font-size="24" font-weight="normal" line-spacing="24" fill="#424242">
                    <tspan x="41" y="271">Container Title</tspan>
                </text>
                <rect id="Rectangle-2-Copy-2" fill="#E5E5E5" x="42" y="325" width="332" height="14" rx="7"></rect>
                <rect id="Rectangle-2-Copy" fill="#E5E5E5" x="42" y="301" width="332" height="13" rx="6.5"></rect>
                <rect id="Rectangle-8" fill="#E0E0E0" x="21" y="222" width="592" height="1"></rect>
                <g id="Rectangle-9">
                    <use fill="#FAFAFA" fill-rule="evenodd" xlink:href="#path-1"></use>
                    <path stroke="#E0E0E0" stroke-width="1" d="M183.5,222.5 L270.5,222.5 L270.5,193 C270.5,192.171573 269.828427,191.5 269,191.5 L185,191.5 C184.171573,191.5 183.5,192.171573 183.5,193 L183.5,222.5 Z"></path>
                </g>
                <rect id="Rectangle" fill-opacity="0.400000006" fill="#0C7C84" x="197" y="203" width="61" height="10" rx="5"></rect>
                <rect id="Rectangle-10" fill="#FAFAFA" x="184" y="222" width="86" height="1"></rect>
                <g id="bar" transform="translate(556.000000, 56.000000)" fill="#EAEAEA">
                    <rect id="Rectangle" x="0" y="0" width="52" height="9" rx="4.5"></rect>
                </g>
                <g id="bar" transform="translate(558.000000, 0.000000)" fill="#EAEAEA">
                    <rect id="Rectangle" x="0" y="0" width="48" height="48" rx="24"></rect>
                </g>
                <g id="Group-12" transform="translate(41.000000, 273.000000)">
                    <g id="specs-/-padding">
                        <rect id="Rectangle-2-Copy" fill="#FBC02D" fill-rule="evenodd" x="0" y="0" width="155" height="24"></rect>
                        <text id="label" font-family="Roboto-Medium, Roboto" font-size="12" font-weight="400" line-spacing="11" fill="#FFFFFF">
                            <tspan x="55.5390625" y="15.3261719">24px</tspan>
                        </text>
                    </g>
                </g>
                <g id="specs-/-redlines-/-line-inclusive" transform="translate(293.500000, 261.500000) scale(-1, -1) translate(-293.500000, -261.500000) translate(201.000000, 214.000000)">
                    <path d="M1,47.025 L185,47.025" id="redline-line" stroke="#EC407A" stroke-width="1"></path>
                    <g id="specs-/-redlines-/-line-end-/-arrow" transform="translate(178.000000, 43.525000)">
                        <g id="redline-end">
                            <use fill="#FFFFFF" fill-rule="evenodd" xlink:href="#path-2"></use>
                            <path stroke="#EC407A" stroke-width="1" d="M5.88196601,3.5 L0.5,0.809016994 L0.5,6.19098301 L5.88196601,3.5 Z"></path>
                        </g>
                    </g>
                    <path d="M1.34577114,0.475 L1.34577114,94.525" id="Line" stroke="#F0367A" stroke-width="1" stroke-linecap="square"></path>
                </g>
                <text id="Typeface:-Roboto-Wei" font-family="Roboto-Regular, Roboto" font-size="12" font-weight="normal" letter-spacing="0.328125" fill="#EC407A">
                    <tspan x="390" y="224">Typeface: Roboto</tspan>
                    <tspan x="390" y="238">Weight: Regular (400)</tspan>
                    <tspan x="390" y="252">Size: 24px / 1.5rem</tspan>
                    <tspan x="390" y="266">Color: Gray 900, #424242</tspan>
                    <tspan x="390" y="280">Line Height: 1</tspan>
                    <tspan x="390" y="294">Bottom Spacing: 24px / 1.5rem</tspan>
                </text>
            </g>
        </g>
    </g>
</svg>