<?xml version="1.0" encoding="UTF-8" standalone="no"?>
<svg width="635px" height="385px" viewBox="0 0 635 385" version="1.1" xmlns="http://www.w3.org/2000/svg" xmlns:xlink="http://www.w3.org/1999/xlink">
    <!-- Generator: Sketch 47.1 (45422) - http://www.bohemiancoding.com/sketch -->
    <title>type-unordered-list</title>
    <desc>Created with Sketch.</desc>
    <defs>
        <path d="M164,0 L248,0 L248,0 C249.104569,-2.02906125e-16 250,0.8954305 250,2 L250,32 L162,32 L162,2 L162,2 C162,0.8954305 162.895431,2.02906125e-16 164,0 Z" id="path-1"></path>
        <polygon id="path-2" points="7 3.5 0 7 0 0"></polygon>
        <polygon id="path-3" points="7 3.5 0 7 0 0"></polygon>
    </defs>
    <g id="Page-1" stroke="none" stroke-width="1" fill="none" fill-rule="evenodd">
        <g id="type-unordered-list">
            <g id="typography-subdued-copy" transform="translate(23.000000, 15.000000)">
                <g id="Group-3" transform="translate(20.000000, 174.000000)">
                    <text id="Rackspace" font-family="Roboto-Medium, Roboto" font-size="16" font-weight="400" letter-spacing="0.255208343" fill="#424242">
                        <tspan x="0" y="15">Rackspace</tspan>
                    </text>
                    <text id="List-Item-1" font-family="Roboto-Regular, Roboto" font-size="16" font-weight="normal" letter-spacing="0.255208343" fill="#424242">
                        <tspan x="21" y="43">List Item 1</tspan>
                    </text>
                    <text id="List-Item-2" font-family="Roboto-Regular, Roboto" font-size="16" font-weight="normal" letter-spacing="0.255208343" fill="#424242">
                        <tspan x="21" y="67">List Item 2</tspan>
                    </text>
                    <text id="List-Item-3" font-family="Roboto-Regular, Roboto" font-size="16" font-weight="normal" letter-spacing="0.255208343" fill="#424242">
                        <tspan x="21" y="91">List Item 3</tspan>
                    </text>
                    <text id="List-Item-3a" font-family="Roboto-Regular, Roboto" font-size="16" font-weight="normal" letter-spacing="0.255208343" fill="#424242">
                        <tspan x="37" y="115">List Item 3a</tspan>
                    </text>
                    <text id="List-Item-3b" font-family="Roboto-Regular, Roboto" font-size="16" font-weight="normal" letter-spacing="0.255208343" fill="#424242">
                        <tspan x="37" y="139">List Item 3b</tspan>
                    </text>
                    <text id="List-Item-3c" font-family="Roboto-Regular, Roboto" font-size="16" font-weight="normal" letter-spacing="0.255208343" fill="#424242">
                        <tspan x="37" y="163">List Item 3c</tspan>
                    </text>
                    <rect id="Rectangle" fill="#424242" x="8" y="37" width="5" height="5"></rect>
                    <rect id="Rectangle-Copy" fill="#424242" x="8" y="61" width="5" height="5"></rect>
                    <rect id="Rectangle-Copy-2" fill="#424242" x="8" y="85" width="5" height="5"></rect>
                    <rect id="Rectangle-Copy-3" stroke="#424242" x="24.5" y="109.5" width="4" height="4"></rect>
                    <rect id="Rectangle-Copy-4" stroke="#424242" x="24.5" y="133.5" width="4" height="4"></rect>
                    <rect id="Rectangle-Copy-5" stroke="#424242" x="24.5" y="157.5" width="4" height="4"></rect>
                </g>
                <g id="specs-/-margins" transform="translate(20.000000, 204.000000)" fill="#16B9D4">
                    <rect id="Rectangle-2-Copy" x="0" y="0" width="8" height="19"></rect>
                </g>
                <g id="specs-/-margins-copy" transform="translate(33.000000, 204.000000)" fill="#16B9D4">
                    <rect id="Rectangle-2-Copy" x="0" y="0" width="8" height="19"></rect>
                </g>
                <g id="bar" transform="translate(96.000000, 12.000000)" fill="#EAEAEA">
                    <rect id="Rectangle" x="0" y="0" width="53" height="10" rx="5"></rect>
                </g>
                <g id="bar" transform="translate(262.000000, 12.000000)" fill="#EAEAEA">
                    <rect id="Rectangle" x="0" y="0" width="53" height="10" rx="5"></rect>
                </g>
                <g id="bar" transform="translate(19.000000, 12.000000)" fill="#EAEAEA">
                    <rect id="Rectangle" x="0" y="0" width="53" height="10" rx="5"></rect>
                </g>
                <g id="bar" transform="translate(21.000000, 62.000000)" fill="#EAEAEA">
                    <rect id="Rectangle" x="0" y="0" width="155" height="17" rx="8.5"></rect>
                </g>
                <rect id="Rectangle-2-Copy-14" fill="#E5E5E5" x="350" y="219" width="138" height="12" rx="6"></rect>
                <rect id="Rectangle-2-Copy-2" fill="#E5E5E5" x="21" y="134" width="332" height="14" rx="7"></rect>
                <rect id="Rectangle-2-Copy" fill="#E5E5E5" x="21" y="110" width="524" height="13" rx="6.5"></rect>
                <rect id="Rectangle-8" fill="#E0E0E0" x="0" y="31" width="592" height="1"></rect>
                <g id="Rectangle-9">
                    <use fill="#FAFAFA" fill-rule="evenodd" xlink:href="#path-1"></use>
                    <path stroke="#E0E0E0" stroke-width="1" d="M162.5,31.5 L249.5,31.5 L249.5,2 C249.5,1.17157288 248.828427,0.5 248,0.5 L164,0.5 C163.171573,0.5 162.5,1.17157288 162.5,2 L162.5,31.5 Z"></path>
                </g>
                <rect id="Rectangle" fill-opacity="0.400000006" fill="#0C7C84" x="176" y="12" width="61" height="10" rx="5"></rect>
                <rect id="Rectangle-10" fill="#FAFAFA" x="163" y="31" width="86" height="1"></rect>
                <rect id="Rectangle-11" fill="#E5E5E5" x="349" y="257" width="223" height="119"></rect>
                <text id="Height:-5px-Width:-5" font-family="Roboto-Regular, Roboto" font-size="12" font-weight="normal" letter-spacing="0.328125" fill="#EC407A">
                    <tspan x="200" y="189">Height: 5px</tspan>
                    <tspan x="200" y="203">Width: 5px</tspan>
                    <tspan x="200" y="217">Margin: auto 8px</tspan>
                    <tspan x="200" y="231">Background: #424242</tspan>
                </text>
                <text id="Height:-5px-Width:-5" font-family="Roboto-Regular, Roboto" font-size="12" font-weight="normal" letter-spacing="0.328125" fill="#EC407A">
                    <tspan x="218" y="263">Height: 5px</tspan>
                    <tspan x="218" y="277">Width: 5px</tspan>
                    <tspan x="218" y="291">Margin: auto 8px</tspan>
                    <tspan x="218" y="305">Border: 1px solid #424242</tspan>
                </text>
                <g id="specs-/-redlines-/-line-regular" transform="translate(111.000000, 212.500000) scale(-1, 1) rotate(-270.000000) translate(-111.000000, -212.500000) translate(77.500000, 127.500000)">
                    <path d="M12.5,168.5 L12.5,11.9949907 C12.5,7.30333689 16.3151318,3.5 21,3.5 L29.5,3.5" id="redline-line" stroke="#EC407A"></path>
                    <path d="M1,168.25 L66,168.25" id="Line" stroke="#EC407A" stroke-linecap="square"></path>
                    <g id="specs-/-redlines-/-line-end-/-arrow" transform="translate(23.000000, 0.000000)">
                        <g id="redline-end">
                            <use fill="#FFFFFF" fill-rule="evenodd" xlink:href="#path-2"></use>
                            <path stroke="#EC407A" stroke-width="1" d="M5.88196601,3.5 L0.5,0.809016994 L0.5,6.19098301 L5.88196601,3.5 Z"></path>
                        </g>
                    </g>
                </g>
                <g id="specs-/-redlines-/-line-regular-copy" transform="translate(128.500000, 285.500000) scale(-1, 1) rotate(-270.000000) translate(-128.500000, -285.500000) translate(95.000000, 200.500000)">
                    <path d="M12.5,168.5 L12.5,11.9949907 C12.5,7.30333689 16.3151318,3.5 21,3.5 L29.5,3.5" id="redline-line" stroke="#EC407A"></path>
                    <path d="M1,168.25 L66,168.25" id="Line" stroke="#EC407A" stroke-linecap="square"></path>
                    <g id="specs-/-redlines-/-line-end-/-arrow" transform="translate(23.000000, 0.000000)">
                        <g id="redline-end">
                            <use fill="#FFFFFF" fill-rule="evenodd" xlink:href="#path-3"></use>
                            <path stroke="#EC407A" stroke-width="1" d="M5.88196601,3.5 L0.5,0.809016994 L0.5,6.19098301 L5.88196601,3.5 Z"></path>
                        </g>
                    </g>
                </g>
            </g>
        </g>
    </g>
</svg>