<?xml version="1.0" encoding="UTF-8" standalone="no"?>
<svg width="635px" height="395px" viewBox="0 0 635 395" version="1.1" xmlns="http://www.w3.org/2000/svg" xmlns:xlink="http://www.w3.org/1999/xlink">
    <!-- Generator: Sketch 47.1 (45422) - http://www.bohemiancoding.com/sketch -->
    <title>type-subdued</title>
    <desc>Created with Sketch.</desc>
    <defs>
        <path d="M164,0 L248,0 L248,0 C249.104569,-2.02906125e-16 250,0.8954305 250,2 L250,32 L162,32 L162,2 L162,2 C162,0.8954305 162.895431,2.02906125e-16 164,0 Z" id="path-1"></path>
        <polygon id="path-2" points="7 3.5 0 7 0 0"></polygon>
        <circle id="path-3" cx="3.5" cy="3.5" r="3.5"></circle>
    </defs>
    <g id="Page-1" stroke="none" stroke-width="1" fill="none" fill-rule="evenodd">
        <g id="type-subdued">
            <g id="typography-subdued" transform="translate(23.000000, 17.000000)">
                <g id="bar" transform="translate(96.000000, 12.000000)" fill="#EAEAEA">
                    <rect id="Rectangle" x="0" y="0" width="53" height="10" rx="5"></rect>
                </g>
                <g id="bar" transform="translate(262.000000, 12.000000)" fill="#EAEAEA">
                    <rect id="Rectangle" x="0" y="0" width="53" height="10" rx="5"></rect>
                </g>
                <g id="bar" transform="translate(19.000000, 12.000000)" fill="#EAEAEA">
                    <rect id="Rectangle" x="0" y="0" width="53" height="10" rx="5"></rect>
                </g>
                <g id="bar" transform="translate(21.000000, 62.000000)" fill="#EAEAEA">
                    <rect id="Rectangle" x="0" y="0" width="155" height="17" rx="8.5"></rect>
                </g>
                <rect id="Rectangle-2-Copy-13" fill="#E5E5E5" x="21" y="219" width="138" height="12" rx="6"></rect>
                <rect id="Rectangle-2-Copy-14" fill="#E5E5E5" x="350" y="219" width="138" height="12" rx="6"></rect>
                <rect id="Rectangle-2-Copy-3" fill="#B2D1ED" x="20" y="179" width="129" height="12" rx="6"></rect>
                <text id="Key" font-family="Roboto-Regular, Roboto" font-size="16" font-weight="normal" fill="#6B6B6B">
                    <tspan x="75.921875" y="269">Key</tspan>
                </text>
                <text id="Key-Copy" font-family="Roboto-Regular, Roboto" font-size="16" font-weight="normal" fill="#6B6B6B">
                    <tspan x="75.921875" y="298">Key</tspan>
                </text>
                <text id="Key-Copy-2" font-family="Roboto-Regular, Roboto" font-size="16" font-weight="normal" fill="#6B6B6B">
                    <tspan x="75.921875" y="327">Key</tspan>
                </text>
                <text id="Value" font-family="Roboto-Regular, Roboto" font-size="16" font-weight="normal" fill="#424242">
                    <tspan x="113" y="269">Value</tspan>
                </text>
                <text id="Value-Copy" font-family="Roboto-Regular, Roboto" font-size="16" font-weight="normal" fill="#424242">
                    <tspan x="113" y="298">Value</tspan>
                </text>
                <text id="Value-Copy-2" font-family="Roboto-Regular, Roboto" font-size="16" font-weight="normal" fill="#424242">
                    <tspan x="113" y="327">Value</tspan>
                </text>
                <rect id="Rectangle-2-Copy-2" fill="#E5E5E5" x="21" y="134" width="332" height="14" rx="7"></rect>
                <rect id="Rectangle-2-Copy" fill="#E5E5E5" x="21" y="110" width="524" height="13" rx="6.5"></rect>
                <rect id="Rectangle-8" fill="#E0E0E0" x="0" y="31" width="592" height="1"></rect>
                <g id="Rectangle-9">
                    <use fill="#FAFAFA" fill-rule="evenodd" xlink:href="#path-1"></use>
                    <path stroke="#E0E0E0" stroke-width="1" d="M162.5,31.5 L249.5,31.5 L249.5,2 C249.5,1.17157288 248.828427,0.5 248,0.5 L164,0.5 C163.171573,0.5 162.5,1.17157288 162.5,2 L162.5,31.5 Z"></path>
                </g>
                <rect id="Rectangle" fill-opacity="0.400000006" fill="#0C7C84" x="176" y="12" width="61" height="10" rx="5"></rect>
                <rect id="Rectangle-10" fill="#FAFAFA" x="163" y="31" width="86" height="1"></rect>
                <rect id="Rectangle-11" fill="#E5E5E5" x="349" y="257" width="223" height="119"></rect>
                <text id="#6B6B6B-(gray-750)" font-family="Roboto-Regular, Roboto" font-size="12" font-weight="normal" letter-spacing="0.328125" fill="#EC407A">
                    <tspan x="190" y="243">#6B6B6B (gray 750)</tspan>
                </text>
                <g id="specs-/-redlines-/-line-regular" transform="translate(137.000000, 248.500000) scale(-1, 1) rotate(-270.000000) translate(-137.000000, -248.500000) translate(126.500000, 198.500000)">
                    <path d="M3.5,99.5 L3.5,11.9982926 C3.5,7.30481519 7.31513183,3.5 12,3.5 L20.5,3.5" id="redline-line" stroke="#EC407A" stroke-width="1"></path>
                    <g id="specs-/-redlines-/-line-end-/-arrow" transform="translate(14.000000, 0.000000)">
                        <g id="redline-end">
                            <use fill="#FFFFFF" fill-rule="evenodd" xlink:href="#path-2"></use>
                            <path stroke="#EC407A" stroke-width="1" d="M5.88196601,3.5 L0.5,0.809016994 L0.5,6.19098301 L5.88196601,3.5 Z"></path>
                        </g>
                    </g>
                    <g id="specs-/-redlines-/-line-end-/-circle" transform="translate(0.000000, 93.000000)">
                        <g id="redline-start">
                            <use fill="#FFFFFF" fill-rule="evenodd" xlink:href="#path-3"></use>
                            <circle stroke="#EC407A" stroke-width="1" cx="3.5" cy="3.5" r="3"></circle>
                        </g>
                    </g>
                </g>
            </g>
        </g>
    </g>
</svg>