<?xml version="1.0" encoding="UTF-8" standalone="no"?>
<svg width="635px" height="389px" viewBox="0 0 635 389" version="1.1" xmlns="http://www.w3.org/2000/svg" xmlns:xlink="http://www.w3.org/1999/xlink">
    <!-- Generator: Sketch 47.1 (45422) - http://www.bohemiancoding.com/sketch -->
    <title>type-sub-body</title>
    <desc>Created with Sketch.</desc>
    <defs>
        <path d="M185,191 L269,191 L269,191 C270.104569,191 271,191.895431 271,193 L271,223 L183,223 L183,193 L183,193 C183,191.895431 183.895431,191 185,191 Z" id="path-1"></path>
        <polygon id="path-2" points="7 3.5 0 7 0 0"></polygon>
    </defs>
    <g id="Page-1" stroke="none" stroke-width="1" fill="none" fill-rule="evenodd">
        <g id="type-sub-body">
            <g id="typography-sub-body" transform="translate(2.000000, 20.000000)">
                <rect id="context-title-bar" fill="#E5E5E5" x="22" y="7" width="80" height="10" rx="5"></rect>
                <g id="bar" transform="translate(20.000000, 31.000000)" fill="#EAEAEA">
                    <rect id="Rectangle" x="0" y="0" width="197" height="34" rx="17"></rect>
                </g>
                <g id="bar" transform="translate(22.000000, 7.000000)" fill="#EAEAEA">
                    <rect id="Rectangle" x="0" y="0" width="80" height="10" rx="5"></rect>
                </g>
                <g id="bar" transform="translate(21.000000, 135.000000)" fill="#EAEAEA">
                    <rect id="Rectangle" x="0" y="0" width="171" height="24" rx="12"></rect>
                </g>
                <rect id="Rectangle-8-Copy" fill="#E0E0E0" x="0" y="102" width="633" height="1"></rect>
                <g id="bar" transform="translate(117.000000, 203.000000)" fill="#EAEAEA">
                    <rect id="Rectangle" x="0" y="0" width="53" height="10" rx="5"></rect>
                </g>
                <g id="bar" transform="translate(283.000000, 203.000000)" fill="#EAEAEA">
                    <rect id="Rectangle" x="0" y="0" width="53" height="10" rx="5"></rect>
                </g>
                <g id="bar" transform="translate(40.000000, 203.000000)" fill="#EAEAEA">
                    <rect id="Rectangle" x="0" y="0" width="53" height="10" rx="5"></rect>
                </g>
                <g id="bar" transform="translate(42.000000, 253.000000)" fill="#EAEAEA">
                    <rect id="Rectangle" x="0" y="0" width="155" height="17" rx="8.5"></rect>
                </g>
                <rect id="Rectangle-2-Copy-2" fill="#E5E5E5" x="42" y="325" width="332" height="14" rx="7"></rect>
                <rect id="Rectangle-2-Copy" fill="#E5E5E5" x="42" y="301" width="524" height="13" rx="6.5"></rect>
                <rect id="Rectangle-8" fill="#E0E0E0" x="21" y="222" width="592" height="1"></rect>
                <g id="Rectangle-9">
                    <use fill="#FAFAFA" fill-rule="evenodd" xlink:href="#path-1"></use>
                    <path stroke="#E0E0E0" stroke-width="1" d="M183.5,222.5 L270.5,222.5 L270.5,193 C270.5,192.171573 269.828427,191.5 269,191.5 L185,191.5 C184.171573,191.5 183.5,192.171573 183.5,193 L183.5,222.5 Z"></path>
                </g>
                <rect id="Rectangle" fill-opacity="0.400000006" fill="#0C7C84" x="197" y="203" width="61" height="10" rx="5"></rect>
                <rect id="Rectangle-10" fill="#FAFAFA" x="184" y="222" width="86" height="1"></rect>
                <text id="Sub-Body" font-family="Roboto-Regular, Roboto" font-size="12" font-weight="normal" fill="#424242">
                    <tspan x="556.731445" y="63">Sub-Body</tspan>
                </text>
                <g id="bar" transform="translate(558.000000, 0.000000)" fill="#EAEAEA">
                    <rect id="Rectangle" x="0" y="0" width="48" height="48" rx="24"></rect>
                </g>
                <text id="Typeface:-Roboto-Wei" font-family="Roboto-Regular, Roboto" font-size="12" font-weight="normal" line-spacing="18" fill="#EC407A">
                    <tspan x="309" y="24">Typeface: Roboto</tspan>
                    <tspan x="309" y="42">Weight: Regular (400)</tspan>
                    <tspan x="309" y="60">Size: 12px / 0.75rem</tspan>
                    <tspan x="309" y="78">Color: Gray 900, #424242</tspan>
                    <tspan x="309" y="96">Line Height:1.5</tspan>
                </text>
                <g id="specs-/-redlines-/-line-inclusive" transform="translate(449.000000, 15.000000)">
                    <path d="M1,44.55 L100,44.55" id="redline-line" stroke="#EC407A" stroke-width="1"></path>
                    <g id="specs-/-redlines-/-line-end-/-arrow" transform="translate(93.000000, 41.050000)">
                        <g id="redline-end">
                            <use fill="#FFFFFF" fill-rule="evenodd" xlink:href="#path-2"></use>
                            <path stroke="#EC407A" stroke-width="1" d="M5.88196601,3.5 L0.5,0.809016994 L0.5,6.19098301 L5.88196601,3.5 Z"></path>
                        </g>
                    </g>
                    <path d="M0.5,0.45 L0.5,89.55" id="Line" stroke="#F0367A" stroke-width="1" stroke-linecap="square"></path>
                </g>
            </g>
        </g>
    </g>
</svg>