<?xml version="1.0" encoding="UTF-8" standalone="no"?>
<svg width="635px" height="392px" viewBox="0 0 635 392" version="1.1" xmlns="http://www.w3.org/2000/svg" xmlns:xlink="http://www.w3.org/1999/xlink">
    <!-- Generator: Sketch 47.1 (45422) - http://www.bohemiancoding.com/sketch -->
    <title>type-link</title>
    <desc>Created with Sketch.</desc>
    <defs>
        <path d="M164,56 L248,56 L248,56 C249.104569,56 250,56.8954305 250,58 L250,88 L162,88 L162,58 L162,58 C162,56.8954305 162.895431,56 164,56 Z" id="path-1"></path>
        <polygon id="path-2" points="7 3.5 0 7 0 0"></polygon>
        <circle id="path-3" cx="3.5" cy="3.5" r="3.5"></circle>
    </defs>
    <g id="Page-1" stroke="none" stroke-width="1" fill="none" fill-rule="evenodd">
        <g id="type-link">
            <g id="typography-link" transform="translate(23.000000, 31.000000)">
                <g id="bar" fill="#EAEAEA">
                    <rect id="Rectangle" x="0" y="0" width="171" height="24" rx="12"></rect>
                </g>
                <text id="see-our-help-guide" font-family="Roboto-Regular, Roboto" font-size="16" font-weight="normal" line-spacing="24" fill="#0D74D1">
                    <tspan x="19" y="244">see our help guide</tspan>
                </text>
                <g id="bar" transform="translate(96.000000, 68.000000)" fill="#EAEAEA">
                    <rect id="Rectangle" x="0" y="0" width="53" height="10" rx="5"></rect>
                </g>
                <g id="bar" transform="translate(262.000000, 68.000000)" fill="#EAEAEA">
                    <rect id="Rectangle" x="0" y="0" width="53" height="10" rx="5"></rect>
                </g>
                <g id="bar" transform="translate(19.000000, 68.000000)" fill="#EAEAEA">
                    <rect id="Rectangle" x="0" y="0" width="53" height="10" rx="5"></rect>
                </g>
                <g id="bar" transform="translate(21.000000, 118.000000)" fill="#EAEAEA">
                    <rect id="Rectangle" x="0" y="0" width="155" height="17" rx="8.5"></rect>
                </g>
                <rect id="Rectangle-2-Copy-13" fill="#E5E5E5" x="21" y="275" width="138" height="12" rx="6"></rect>
                <rect id="Rectangle-2-Copy-14" fill="#E5E5E5" x="350" y="275" width="138" height="12" rx="6"></rect>
                <rect id="Rectangle-2-Copy" fill="#E5E5E5" opacity="0.5" x="44" y="315" width="58" height="12" rx="6"></rect>
                <rect id="Rectangle-2-Copy-5" fill="#E5E5E5" opacity="0.5" x="44" y="344" width="58" height="12" rx="6"></rect>
                <rect id="Rectangle-2-Copy-6" fill="#E5E5E5" x="113" y="315" width="162" height="12" rx="6"></rect>
                <rect id="Rectangle-2-Copy-9" fill="#E5E5E5" x="113" y="344" width="162" height="12" rx="6"></rect>
                <rect id="Rectangle-2-Copy-2" fill="#E5E5E5" x="21" y="190" width="332" height="14" rx="7"></rect>
                <rect id="Rectangle-2-Copy" fill="#E5E5E5" x="21" y="166" width="524" height="13" rx="6.5"></rect>
                <rect id="Rectangle-8" fill="#E0E0E0" x="0" y="87" width="592" height="1"></rect>
                <g id="Rectangle-9">
                    <use fill="#FAFAFA" fill-rule="evenodd" xlink:href="#path-1"></use>
                    <path stroke="#E0E0E0" stroke-width="1" d="M162.5,87.5 L249.5,87.5 L249.5,58 C249.5,57.1715729 248.828427,56.5 248,56.5 L164,56.5 C163.171573,56.5 162.5,57.1715729 162.5,58 L162.5,87.5 Z"></path>
                </g>
                <rect id="Rectangle" fill-opacity="0.400000006" fill="#0C7C84" x="176" y="68" width="61" height="10" rx="5"></rect>
                <rect id="Rectangle-10" fill="#FAFAFA" x="163" y="87" width="86" height="1"></rect>
                <rect id="Rectangle-11" fill="#E0E0E0" x="349" y="313" width="223" height="48"></rect>
                <text id="Default:-#0D74D1-(bl" font-family="Roboto-Regular, Roboto" font-size="12" font-weight="normal" line-spacing="18" fill="#EC407A">
                    <tspan x="184" y="243">Default: #0D74D1 (blue 700)</tspan>
                    <tspan x="184" y="261">Hover: #3391ff (blue 500)</tspan>
                    <tspan x="184" y="279">Active: #3391ff (blue 500)</tspan>
                    <tspan x="184" y="297">Disabled: #616161 (gray 800)</tspan>
                </text>
                <g id="specs-/-redlines-/-line-regular" transform="translate(166.000000, 242.500000) scale(-1, 1) translate(-166.000000, -242.500000) translate(153.000000, 239.000000)">
                    <path d="M3.5,6.5 L3.5,5 C3.5,4.17157288 4.17042869,3.5 4.99485322,3.5 L25.5,3.5" id="redline-line" stroke="#EC407A" stroke-width="1"></path>
                    <g id="specs-/-redlines-/-line-end-/-arrow" transform="translate(19.000000, 0.000000)">
                        <g id="redline-end">
                            <use fill="#FFFFFF" fill-rule="evenodd" xlink:href="#path-2"></use>
                            <path stroke="#EC407A" stroke-width="1" d="M5.88196601,3.5 L0.5,0.809016994 L0.5,6.19098301 L5.88196601,3.5 Z"></path>
                        </g>
                    </g>
                    <g id="specs-/-redlines-/-line-end-/-circle">
                        <g id="redline-start">
                            <use fill="#FFFFFF" fill-rule="evenodd" xlink:href="#path-3"></use>
                            <circle stroke="#EC407A" stroke-width="1" cx="3.5" cy="3.5" r="3"></circle>
                        </g>
                    </g>
                </g>
            </g>
        </g>
    </g>
</svg>