<svg xmlns="http://www.w3.org/2000/svg" width="828" height="466" viewBox="0 0 828 466">
  <g fill="none" fill-rule="evenodd" transform="translate(1)">
    <text fill="#424242" font-family="Helvetica" font-size="48">
      <tspan x="26" y="125">Support Tickets</tspan>
    </text>
    <g transform="translate(493 91)">
      <path fill="#0C7481" d="M152.011683,34.2879194 L2.79235268,34.2879194 C1.26449554,34.2879194 0.0244955357,33.2763065 0.0244955357,32.0298548 L0.0244955357,2.67275806 C0.0244955357,1.42630645 1.26449554,0.414693548 2.79235268,0.414693548 L152.011683,0.414693548 C153.540924,0.414693548 154.77954,1.42630645 154.77954,2.67275806 L154.77954,32.0298548 C154.77954,33.2763065 153.540924,34.2879194 152.011683,34.2879194"/>
      <text fill="#FFF" font-family="Helvetica" font-size="14" transform="translate(34 7)">
        <tspan x=".926" y="14.25">Create Ticket</tspan>
      </text>
    </g>
    <g fill="#0C7481" transform="translate(656 91)">
      <path fill-rule="nonzero" d="M147.10808,0.5508 L2.70227679,0.5508 C1.22370536,0.5508 0.0237053571,1.59015484 0.0237053571,2.87338065 L0.0237053571,33.0680903 C0.0237053571,34.3513161 1.22370536,35.390671 2.70227679,35.390671 L147.10808,35.390671 C148.587991,35.390671 149.786652,34.3513161 149.786652,33.0680903 L149.786652,2.87338065 C149.786652,1.59015484 148.587991,0.5508 147.10808,0.5508 M147.10808,1.71209032 C147.846027,1.71209032 148.447366,2.23234839 148.447366,2.87338065 L148.447366,33.0680903 C148.447366,33.7091226 147.846027,34.2293806 147.10808,34.2293806 L2.70227679,34.2293806 C1.96433036,34.2293806 1.36299107,33.7091226 1.36299107,33.0680903 L1.36299107,2.87338065 C1.36299107,2.23234839 1.96433036,1.71209032 2.70227679,1.71209032 L147.10808,1.71209032"/>
      <text font-family="Helvetica" font-size="14">
        <tspan x="43.336" y="21.836">Actions</tspan>
      </text>
      <path fill-rule="nonzero" d="M1.88181818,13.0909091 L0,11.0454545 L4.90909091,6.54545455 L0,2.04545455 L1.88181818,0 L7.93636364,5.48181818 C8.18181818,5.80909091 8.42727273,6.13636364 8.42727273,6.54545455 C8.42727273,6.95454545 8.18181818,7.28181818 7.93636364,7.60909091 L1.88181818,13.0909091 Z" transform="rotate(90 54.295 67.795)"/>
    </g>
    <g transform="translate(0 256)">
      <rect width="826" height="70" fill="#E7F8FB" fill-rule="nonzero"/>
      <g transform="translate(2 15)">
        <g transform="translate(514 12)">
          <rect width="120" height="12" x=".5" y=".5" stroke="#0E94A6" rx="6" transform="translate(0 2)"/>
          <text fill="#1D93A3" font-family="Helvetica" font-size="10" transform="translate(19)">
            <tspan x=".709" y="10">Pending customer</tspan>
          </text>
        </g>
        <text fill="#333" font-family="Helvetica" font-size="14" transform="translate(700 19)">
          <tspan x=".309" y="14">Today @ 3:34 PM</tspan>
        </text>
        <text fill="#333" font-family="Helvetica" font-size="16" transform="translate(64)">
          <tspan x="0" y="15">Add VPN user</tspan>
        </text>
        <path fill="#FFF" fill-rule="nonzero" stroke="#BDBDBD" stroke-width="1.5" d="M14.8571429,0 C15.5428571,0 16,0.45714286 16,1.14285714 L16,14.8571429 C16,15.5428571 15.5428571,16 14.8571429,16 L1.14285714,16 C0.45714286,16 0,15.5428571 0,14.8571429 L0,1.14285714 C0,0.45714286 0.45714286,0 1.14285714,0 L14.8571429,0 L14.8571429,0 Z" transform="translate(16 12)"/>
        <g fill="#333" transform="translate(727)">
          <text font-family="Helvetica" font-size="14">
            <tspan x=".884" y="14">Jim Smith</tspan>
          </text>
          <rect width="13.578" height="14" transform="translate(68 3)"/>
        </g>
        <text fill="#333" font-family="Helvetica" font-size="14" transform="translate(306 19)">
          <tspan x="0" y="14">24442-web1.mywebsite.com</tspan>
        </text>
        <text fill="#333" font-family="Helvetica" font-size="14" transform="translate(306)">
          <tspan x="0" y="14">Smith Enterprises (322244)</tspan>
        </text>
        <path stroke="#E0E0E0" d="M0,54 L824.970496,54"/>
      </g>
      <g transform="translate(2 85)">
        <g transform="translate(514 12)">
          <rect width="121" height="13" fill="#D4D4D4" rx="6.5" transform="translate(0 2)"/>
          <text fill="#FFF" font-family="Helvetica" font-size="10" transform="translate(18)">
            <tspan x=".244" y="10">pending rackspace</tspan>
          </text>
        </g>
        <text fill="#333" font-family="Helvetica" font-size="14" transform="translate(700 19)">
          <tspan x=".309" y="14">Today @ 3:34 PM</tspan>
        </text>
        <g fill="#333" font-family="Helvetica" font-size="16" transform="translate(64)">
          <text>
            <tspan x="0" y="15">Getting errors in the apache</tspan>
          </text>
          <text>
            <tspan x="0" y="33">logs</tspan>
          </text>
        </g>
        <path fill="#FFF" fill-rule="nonzero" stroke="#BDBDBD" stroke-width="1.5" d="M14.8571429,0 C15.5428571,0 16,0.45714286 16,1.14285714 L16,14.8571429 C16,15.5428571 15.5428571,16 14.8571429,16 L1.14285714,16 C0.45714286,16 0,15.5428571 0,14.8571429 L0,1.14285714 C0,0.45714286 0.45714286,0 1.14285714,0 L14.8571429,0 L14.8571429,0 Z" transform="translate(16 12)"/>
        <g fill="#333" font-size="14" transform="translate(727)">
          <text font-family="Helvetica">
            <tspan x=".884" y="14">Jim Smith</tspan>
          </text>
          <text font-family="LastResort, .LastResort" transform="translate(70 1)">
            <tspan x="0" y="12"></tspan>
          </text>
        </g>
        <text fill="#333" font-family="Helvetica" font-size="14" transform="translate(306 19)">
          <tspan x="0" y="14">24244-db1.mywebsite.com</tspan>
        </text>
        <text fill="#333" font-family="Helvetica" font-size="14" transform="translate(306)">
          <tspan x="0" y="14">Smith Enterprises (322244)</tspan>
        </text>
        <path stroke="#E0E0E0" d="M0,54 L824.970496,54"/>
      </g>
      <g transform="translate(2 155)">
        <g transform="translate(514 12)">
          <rect width="121" height="13" fill="#D4D4D4" rx="6.5" transform="translate(0 2)"/>
          <text fill="#FFF" font-family="Helvetica" font-size="10" transform="translate(18)">
            <tspan x=".244" y="10">pending rackspace</tspan>
          </text>
        </g>
        <text fill="#333" font-family="Helvetica" font-size="14" transform="translate(693 19)">
          <tspan x=".35" y="14">July 12 @ 2:17 PM</tspan>
        </text>
        <text fill="#333" font-family="Helvetica" font-size="16" transform="translate(64)">
          <tspan x="0" y="15">RCN on recent outage</tspan>
        </text>
        <path fill="#FFF" fill-rule="nonzero" stroke="#BDBDBD" stroke-width="1.5" d="M14.8571429,0 C15.5428571,0 16,0.45714286 16,1.14285714 L16,14.8571429 C16,15.5428571 15.5428571,16 14.8571429,16 L1.14285714,16 C0.45714286,16 0,15.5428571 0,14.8571429 L0,1.14285714 C0,0.45714286 0.45714286,0 1.14285714,0 L14.8571429,0 L14.8571429,0 Z" transform="translate(16 12)"/>
        <g fill="#333" transform="translate(727)">
          <text font-family="Helvetica" font-size="14">
            <tspan x=".884" y="14">Jim Smith</tspan>
          </text>
          <rect width="13.578" height="14" transform="translate(68 3)"/>
        </g>
        <text fill="#333" font-family="Helvetica" font-size="14" transform="translate(306 19)">
          <tspan x="0" y="14">24442-web1.mywebsite.com</tspan>
        </text>
        <text fill="#333" font-family="Helvetica" font-size="14" transform="translate(306)">
          <tspan x="0" y="14">Smith Enterprises (322244)</tspan>
        </text>
        <path stroke="#E0E0E0" d="M0,54 L824.970496,54"/>
      </g>
    </g>
    <g fill="#000" fill-rule="nonzero">
      <polygon points=".85 56 812 56 812 0 .85 0"/>
      <polygon points="369.85 56 549.85 56 549.85 0 369.85 0"/>
    </g>
    <g transform="translate(0 222)">
      <text fill="#333" font-family="Helvetica" font-size="14" transform="translate(709)">
        <tspan x=".833" y="14.467">LAST MODIFIED</tspan>
      </text>
      <text fill="#333" font-family="Helvetica" font-size="14" transform="translate(514)">
        <tspan x="0" y="14.467">STATUS</tspan>
      </text>
      <text fill="#333" font-family="Helvetica" font-size="14" transform="translate(307)">
        <tspan x="0" y="14.467">ACCOUNT / DEVICE</tspan>
      </text>
      <text fill="#333" font-family="Helvetica" font-size="14" transform="translate(60 1)">
        <tspan x="0" y="14">SUBJECT</tspan>
      </text>
      <path fill="#FFF" fill-rule="nonzero" stroke="#BDBDBD" stroke-width="1.5" d="M14.8571429,0 C15.5428571,0 16,0.45714286 16,1.14285714 L16,14.8571429 C16,15.5428571 15.5428571,16 14.8571429,16 L1.14285714,16 C0.45714286,16 0,15.5428571 0,14.8571429 L0,1.14285714 C0,0.45714286 0.45714286,0 1.14285714,0 L14.8571429,0 L14.8571429,0 Z" transform="translate(17 3.483)"/>
      <path stroke="#E0E0E0" stroke-linecap="square" d="M0,32.9833333 L826,32.9833333"/>
    </g>
    <g transform="translate(24 166)">
      <path fill="#757575" d="M15.9,14.6 L11.4,10.1 C12.2,9 12.7,7.7 12.7,6.3 C12.7,2.8 9.8,0 6.4,0 C2.9,0 0.1,2.8 0.1,6.3 C0.1,9.8 2.9,12.6 6.4,12.6 C7.7,12.6 9,12.2 10,11.5 L14.5,16 L15.9,14.6 Z M2.1,6.3 C2.1,3.9 4,2 6.4,2 C8.8,2 10.7,3.9 10.7,6.3 C10.7,8.7 8.8,10.6 6.4,10.6 C4,10.6 2.1,8.7 2.1,6.3 Z" transform="translate(8 9)"/>
      <polygon fill="#9B9B9B" fill-rule="nonzero" points="775 22.597 772.597 25 767.001 19.404 761.405 25 759.002 22.597 764.596 16.999 759 11.402 761.403 9 766.999 14.597 772.595 9 774.998 11.402 769.404 16.999"/>
      <rect width="782" height="33" x=".5" y=".5" stroke="#BDBDBD" rx="5"/>
    </g>
    <g transform="translate(55 171)">
      <rect width="288" height="25" fill="#D8D8D8" fill-rule="nonzero" rx="11"/>
      <text fill="#333" font-family="Helvetica" font-size="16" transform="translate(8 5)">
        <tspan x="0" y="15">account:</tspan>
      </text>
      <text fill="#333" font-family="Helvetica" font-size="16" transform="translate(86 5)">
        <tspan x="0" y="15">Smith Enterprises (322244)</tspan>
      </text>
    </g>
  </g>
</svg>
