<?xml version="1.0" encoding="UTF-8" standalone="no"?>
<svg width="633px" height="255px" viewBox="0 0 633 255" version="1.1" xmlns="http://www.w3.org/2000/svg" xmlns:xlink="http://www.w3.org/1999/xlink">
    <!-- Generator: Sketch 47.1 (45422) - http://www.bohemiancoding.com/sketch -->
    <title>search-basic</title>
    <desc>Created with Sketch.</desc>
    <style type="text/css">@import url('https://fonts.googleapis.com/css?family=Roboto:300,400,500');</style>
    <defs>
        <polygon id="path-1" points="7 3.5 0 7 0 0"></polygon>
        <polygon id="path-2" points="7 3.5 0 7 0 0"></polygon>
    </defs>
    <g id="Page-1" stroke="none" stroke-width="1" fill="none" fill-rule="evenodd">
        <g id="Basic-Search-Bar" transform="translate(54.000000, 17.000000)">
            <text id="VARIABLE-WIDTH" font-family="Roboto-Regular, Roboto" font-size="12" font-weight="normal" line-spacing="19" fill="#666666">
                <tspan x="0" y="11">VARIABLE WIDTH</tspan>
            </text>
            <g id="Min-Search-Bar" transform="translate(0.000000, 128.000000)">
                <g id="_redline" transform="translate(1.000000, 65.000000)">
                    <g id="specs-/-redlines-/-line-inclusive" transform="translate(146.000000, 8.000000) rotate(-270.000000) translate(-146.000000, -8.000000) translate(138.000000, -138.000000)">
                        <path d="M2,146.5 L14,146.5" id="redline-line" stroke="#EC407A"></path>
                        <g id="specs-/-redlines-/-line-end-/-arrow" transform="translate(9.000000, 143.000000)">
                            <g id="redline-end">
                                <use fill="#FFFFFF" fill-rule="evenodd" xlink:href="#path-1"></use>
                                <path stroke="#EC407A" stroke-width="1" d="M5.88196601,3.5 L0.5,0.809016994 L0.5,6.19098301 L5.88196601,3.5 Z"></path>
                            </g>
                        </g>
                        <path d="M1.75,0.5 L1.75,291.5" id="Line" stroke="#F0367A" stroke-linecap="square"></path>
                    </g>
                    <text id="294px" font-family="Roboto-Regular, Roboto" font-size="12" font-weight="normal" line-spacing="14" fill="#EC407A">
                        <tspan x="130" y="28">294px</tspan>
                    </text>
                </g>
                <text id="MINIMUM-WIDTH" font-family="Roboto-Regular, Roboto" font-size="12" font-weight="normal" line-spacing="19" fill="#666666">
                    <tspan x="0" y="11">MINIMUM WIDTH</tspan>
                </text>
                <g id="Search-Icon" transform="translate(1.000000, 29.000000)">
                    <path d="M1.79141104,32 C0.801656442,32 0,31.0442667 0,29.8666667 L0,2.13333333 C0,0.955733333 0.801656442,0 1.79141104,0 L290.208589,0 C291.198344,0 292,0.955733333 292,2.13333333 L292,29.8666667 C292,31.0442667 291.198344,32 290.208589,32 L1.79141104,32 Z" id="Stroke-6" stroke="#BDBDBD"></path>
                    <text id="Search…" font-family="Roboto-Regular, Roboto" font-size="16" font-weight="normal" fill="#9E9E9E">
                        <tspan x="42" y="20">Search…</tspan>
                    </text>
                    <g id="Icons/Search" transform="translate(12.000000, 7.000000)" fill="#757575">
                        <g id="search">
                            <g id="Layer_1" fill-rule="nonzero">
                                <path d="M15.9,14.6 L11.4,10.1 C12.2,9 12.7,7.7 12.7,6.3 C12.7,2.8 9.8,0 6.4,0 C2.9,0 0.1,2.8 0.1,6.3 C0.1,9.8 2.9,12.6 6.4,12.6 C7.7,12.6 9,12.2 10,11.5 L14.5,16 L15.9,14.6 Z M2.1,6.3 C2.1,3.9 4,2 6.4,2 C8.8,2 10.7,3.9 10.7,6.3 C10.7,8.7 8.8,10.6 6.4,10.6 C4,10.6 2.1,8.7 2.1,6.3 Z" id="Shape"></path>
                            </g>
                        </g>
                    </g>
                </g>
            </g>
            <g id="Search-Bar" transform="translate(1.000000, 35.000000)">
                <g id="_redline" transform="translate(2.000000, 37.000000)">
                    <g id="specs-/-redlines-/-line-inclusive" transform="translate(265.500000, 8.000000) rotate(-270.000000) translate(-265.500000, -8.000000) translate(257.500000, -257.500000)">
                        <path d="M2,258.5 L14,258.5" id="redline-line" stroke="#EC407A"></path>
                        <g id="specs-/-redlines-/-line-end-/-arrow" transform="translate(9.000000, 255.000000)">
                            <g id="redline-end">
                                <use fill="#FFFFFF" fill-rule="evenodd" xlink:href="#path-2"></use>
                                <path stroke="#EC407A" stroke-width="1" d="M5.88196601,3.5 L0.5,0.809016994 L0.5,6.19098301 L5.88196601,3.5 Z"></path>
                            </g>
                        </g>
                        <path d="M1.75,0.5 L1.75,530.5" id="Line" stroke="#F0367A" stroke-linecap="square"></path>
                    </g>
                    <text id="Width-=-container-si" font-family="Roboto-Regular, Roboto" font-size="12" font-weight="normal" line-spacing="14" fill="#EC407A">
                        <tspan x="207" y="27">Width = container size</tspan>
                    </text>
                </g>
                <path d="M3.26993865,32 C1.46329755,32 0,31.0442667 0,29.8666667 L0,2.13333333 C0,0.955733333 1.46329755,0 3.26993865,0 L529.730061,0 C531.536702,0 533,0.955733333 533,2.13333333 L533,29.8666667 C533,31.0442667 531.536702,32 529.730061,32 L3.26993865,32 Z" id="Stroke-6" stroke="#BDBDBD"></path>
                <g id="Search-Icon" transform="translate(12.000000, 5.000000)">
                    <text id="Search…" font-family="Roboto-Regular, Roboto" font-size="16" font-weight="normal" fill="#9E9E9E">
                        <tspan x="30" y="15">Search…</tspan>
                    </text>
                    <g id="Icons/Search" transform="translate(0.000000, 2.000000)" fill="#757575">
                        <g id="search">
                            <g id="Layer_1" fill-rule="nonzero">
                                <path d="M15.9,14.6 L11.4,10.1 C12.2,9 12.7,7.7 12.7,6.3 C12.7,2.8 9.8,0 6.4,0 C2.9,0 0.1,2.8 0.1,6.3 C0.1,9.8 2.9,12.6 6.4,12.6 C7.7,12.6 9,12.2 10,11.5 L14.5,16 L15.9,14.6 Z M2.1,6.3 C2.1,3.9 4,2 6.4,2 C8.8,2 10.7,3.9 10.7,6.3 C10.7,8.7 8.8,10.6 6.4,10.6 C4,10.6 2.1,8.7 2.1,6.3 Z" id="Shape"></path>
                            </g>
                        </g>
                    </g>
                </g>
            </g>
        </g>
        <g id="search-basic"></g>
    </g>
</svg>