<?xml version="1.0" encoding="UTF-8" standalone="no"?>
<svg width="628px" height="173px" viewBox="0 0 628 173" version="1.1" xmlns="http://www.w3.org/2000/svg" xmlns:xlink="http://www.w3.org/1999/xlink">
    <!-- Generator: Sketch 47.1 (45422) - http://www.bohemiancoding.com/sketch -->
    <title>search-no-results</title>
    <desc>Created with Sketch.</desc>
    <defs></defs>
    <g id="Page-1" stroke="none" stroke-width="1" fill="none" fill-rule="evenodd">
        <g id="search-no-results">
            <text id="No-Results-Text---Fo" font-family="Roboto-Regular, Roboto" font-size="12" font-weight="normal" line-spacing="14" fill="#EC407A">
                <tspan x="24" y="136">No Results Text -</tspan>
                <tspan x="24" y="150">Font: Roboto Regular, 16px</tspan>
                <tspan x="24" y="164">Color: #6B6B6B (gray 750)</tspan>
            </text>
            <polyline id="Path-2" stroke="#EC407A" transform="translate(29.500000, 92.500000) scale(-1, -1) rotate(-180.000000) translate(-29.500000, -92.500000) " points="34 62 25 62 25 123"></polyline>
            <g id="Group-7" transform="translate(45.000000, 20.000000)">
                <path d="M3.76993865,32 C1.96329755,32 0.5,31.0442667 0.5,29.8666667 L0.5,2.13333333 C0.5,0.955733333 1.96329755,0 3.76993865,0 L530.230061,0 C532.036702,0 533.5,0.955733333 533.5,2.13333333 L533.5,29.8666667 C533.5,31.0442667 532.036702,32 530.230061,32 L3.76993865,32 Z" id="Stroke-6" stroke="#BDBDBD"></path>
                <text id="No-results-found-for" font-family="Roboto-Regular, Roboto" font-size="12" font-weight="normal" fill="#6B6B6B">
                    <tspan x="1" y="47">No results found for your search term. Try another.</tspan>
                </text>
                <text id="Term-You-Searched" font-family="Roboto-Regular, Roboto" font-size="16" font-weight="normal" fill="#424242">
                    <tspan x="33" y="20.5">Term You Searched</tspan>
                </text>
                <g id="Icons/Search" transform="translate(10.000000, 8.000000)" fill="#757575">
                    <g id="search">
                        <g id="Layer_1" fill-rule="nonzero">
                            <path d="M15.9,14.6 L11.4,10.1 C12.2,9 12.7,7.7 12.7,6.3 C12.7,2.8 9.8,0 6.4,0 C2.9,0 0.1,2.8 0.1,6.3 C0.1,9.8 2.9,12.6 6.4,12.6 C7.7,12.6 9,12.2 10,11.5 L14.5,16 L15.9,14.6 Z M2.1,6.3 C2.1,3.9 4,2 6.4,2 C8.8,2 10.7,3.9 10.7,6.3 C10.7,8.7 8.8,10.6 6.4,10.6 C4,10.6 2.1,8.7 2.1,6.3 Z" id="Shape"></path>
                        </g>
                    </g>
                </g>
                <g id="Icons/Close" transform="translate(505.000000, 10.000000)" fill="#757575">
                    <polygon id="Fill-270" points="12.322725 0.890088423 11.3483366 -0.0843 6.322725 4.94131158 1.29711342 -0.0843 0.322725 0.890088423 5.34833658 5.9157 0.322725 10.9413116 1.29711342 11.9157 6.322725 6.89008842 11.3483366 11.9157 12.322725 10.9413116 7.29711342 5.9157"></polygon>
                </g>
            </g>
        </g>
    </g>
</svg>