<?xml version="1.0" encoding="UTF-8"?>
<svg width="32px" height="32px" viewBox="0 0 32 32" version="1.1" xmlns="http://www.w3.org/2000/svg" xmlns:xlink="http://www.w3.org/1999/xlink">
    <!-- Generator: Sketch 49.3 (51167) - http://www.bohemiancoding.com/sketch -->
    <title>codepen</title>
    <desc>Created with Sketch.</desc>
    <defs></defs>
    <g id="codepen" stroke="none" stroke-width="1" fill="none" fill-rule="evenodd">
        <g id="Button-Black" transform="translate(0.915110, -0.802564)" fill="#1A1919">
            <path d="M15.0111552,29.4768768 C8.0933312,29.4768768 2.4654272,23.8487808 2.4654272,16.9311488 C2.4654272,10.0135808 8.0933312,4.3854208 15.0111552,4.3854208 C21.9287232,4.3854208 27.5566272,10.0135808 27.5566272,16.9311488 C27.5566272,23.8487808 21.9287232,29.4768768 15.0111552,29.4768768 M15.0111552,1.9200128 C6.7205312,1.9200128 1.92e-05,8.6405888 1.92e-05,16.9311488 C1.92e-05,25.2217728 6.7205312,31.9420928 15.0111552,31.9420928 C23.3015232,31.9420928 30.0220352,25.2217728 30.0220352,16.9311488 C30.0220352,8.6405888 23.3015232,1.9200128 15.0111552,1.9200128" id="Fill-1"></path>
            <path d="M22.697248,18.2660608 L20.701728,16.9311488 L22.697248,15.5963008 L22.697248,18.2660608 Z M15.808736,23.9244288 L15.808736,20.2039168 L19.266976,17.8910848 L22.058592,19.7580928 L15.808736,23.9244288 Z M15.011168,18.8182528 L12.189792,16.9311488 L15.011168,15.0440448 L17.832288,16.9311488 L15.011168,18.8182528 Z M14.213344,23.9244288 L7.963424,19.7580928 L10.755296,17.8910848 L14.213344,20.2039168 L14.213344,23.9244288 Z M7.324832,15.5963008 L9.320544,16.9311488 L7.324832,18.2660608 L7.324832,15.5963008 Z M14.213344,9.9378688 L14.213344,13.6583808 L10.755296,15.9717248 L7.963424,14.1041408 L14.213344,9.9378688 Z M15.808736,9.9378688 L22.058592,14.1041408 L19.266976,15.9717248 L15.808736,13.6583808 L15.808736,9.9378688 Z M24.285536,13.9991808 C24.283872,13.9874688 24.280928,13.9762688 24.279008,13.9645568 C24.27504,13.9420288 24.270944,13.9195648 24.265056,13.8976128 C24.2616,13.8844288 24.256736,13.8717568 24.25264,13.8590848 C24.24624,13.8395008 24.239904,13.8199808 24.232096,13.8009728 C24.226656,13.7877888 24.220384,13.7746048 24.214304,13.7619328 C24.20592,13.7438208 24.197216,13.7262208 24.187168,13.7091968 C24.179872,13.6964608 24.172064,13.6842368 24.164512,13.6720768 C24.15376,13.6554368 24.142752,13.6393088 24.13072,13.6236928 C24.122016,13.6119808 24.112736,13.6002688 24.103456,13.5890048 C24.09072,13.5744128 24.077536,13.5597568 24.063648,13.5460608 C24.053216,13.5353728 24.042848,13.5246208 24.031904,13.5148288 C24.017248,13.5016448 24.002144,13.4889088 23.98672,13.4767488 C23.974816,13.4674688 23.96304,13.4581888 23.950624,13.4494208 C23.945952,13.4464768 23.941856,13.4425728 23.93744,13.4396288 L15.453472,7.7836928 C15.185504,7.6050048 14.836576,7.6050048 14.568544,7.7836928 L6.08464,13.4396288 C6.080224,13.4425728 6.076064,13.4464768 6.071456,13.4494208 C6.058976,13.4581888 6.047264,13.4674688 6.035552,13.4767488 C6.019936,13.4889088 6.004768,13.5016448 5.990432,13.5148288 C5.979168,13.5246208 5.968928,13.5353728 5.958432,13.5460608 C5.944544,13.5597568 5.93136,13.5744128 5.91888,13.5890048 C5.909344,13.6002688 5.900064,13.6119808 5.891296,13.6236928 C5.879584,13.6393088 5.86832,13.6554368 5.857824,13.6720768 C5.84976,13.6842368 5.842208,13.6964608 5.834912,13.7091968 C5.82512,13.7262208 5.816352,13.7438208 5.807776,13.7619328 C5.801696,13.7746048 5.79536,13.7877888 5.789984,13.8009728 C5.782176,13.8199808 5.77584,13.8395008 5.76944,13.8590848 C5.76528,13.8717568 5.760672,13.8844288 5.757024,13.8976128 C5.751136,13.9195648 5.747232,13.9420288 5.743072,13.9645568 C5.741152,13.9762688 5.738208,13.9874688 5.736736,13.9991808 C5.732064,14.0333568 5.72944,14.0680448 5.72944,14.1031808 L5.72944,19.7591168 C5.72944,19.7942528 5.732064,19.8289408 5.736736,19.8636288 C5.738208,19.8748928 5.741152,19.8865408 5.743072,19.8977408 C5.747232,19.9202688 5.751136,19.9426688 5.757024,19.9646848 C5.760672,19.9778688 5.76528,19.9905408 5.76944,20.0032768 C5.77584,20.0227328 5.782176,20.0423168 5.789984,20.0618368 C5.79536,20.0750848 5.801696,20.0877568 5.807776,20.1004288 C5.816352,20.1184128 5.82512,20.1360128 5.834912,20.1536128 C5.842208,20.1659008 5.84976,20.1779968 5.857824,20.1902208 C5.86832,20.2068608 5.879584,20.2229888 5.891296,20.2386048 C5.900064,20.2508288 5.909344,20.2620288 5.91888,20.2732288 C5.93136,20.2878848 5.944544,20.3025408 5.958432,20.3162368 C5.968928,20.3269248 5.979168,20.3376768 5.990432,20.3474048 C6.004768,20.3607168 6.019936,20.3733888 6.035552,20.3855488 C6.047264,20.3948928 6.058976,20.4041088 6.071456,20.4128768 C6.076064,20.4158208 6.080224,20.4197248 6.08464,20.4226048 L14.568544,26.0786048 C14.70256,26.1679488 14.856864,26.2128768 15.011168,26.2128768 C15.165216,26.2128768 15.319456,26.1679488 15.453472,26.0786048 L23.93744,20.4226048 C23.941856,20.4197248 23.945952,20.4158208 23.950624,20.4128768 C23.96304,20.4041088 23.974816,20.3948928 23.98672,20.3855488 C24.002144,20.3733888 24.017248,20.3607168 24.031904,20.3474048 C24.042848,20.3376768 24.053216,20.3269248 24.063648,20.3162368 C24.077536,20.3025408 24.09072,20.2878848 24.103456,20.2732288 C24.112736,20.2620288 24.122016,20.2508288 24.13072,20.2386048 C24.142752,20.2229888 24.15376,20.2068608 24.164512,20.1902208 C24.172064,20.1779968 24.179872,20.1659008 24.187168,20.1536128 C24.197216,20.1360128 24.20592,20.1184128 24.214304,20.1004288 C24.220384,20.0877568 24.226656,20.0750848 24.232096,20.0618368 C24.239904,20.0423168 24.24624,20.0227328 24.25264,20.0032768 C24.256736,19.9905408 24.2616,19.9778688 24.265056,19.9646848 C24.270944,19.9426688 24.27504,19.9202688 24.279008,19.8977408 C24.280928,19.8865408 24.283872,19.8748928 24.285536,19.8636288 C24.289952,19.8289408 24.292704,19.7942528 24.292704,19.7591168 L24.292704,14.1031808 C24.292704,14.0680448 24.289952,14.0333568 24.285536,13.9991808 Z" id="Fill-3"></path>
        </g>
    </g>
</svg>