<?xml version="1.0" encoding="UTF-8" standalone="no"?>
<!-- Generator: Adobe Illustrator 21.0.2, SVG Export Plug-In . SVG Version: 6.00 Build 0)  -->

<svg
   xmlns:dc="http://purl.org/dc/elements/1.1/"
   xmlns:cc="http://creativecommons.org/ns#"
   xmlns:rdf="http://www.w3.org/1999/02/22-rdf-syntax-ns#"
   xmlns:svg="http://www.w3.org/2000/svg"
   xmlns="http://www.w3.org/2000/svg"
   xmlns:sodipodi="http://sodipodi.sourceforge.net/DTD/sodipodi-0.dtd"
   xmlns:inkscape="http://www.inkscape.org/namespaces/inkscape"
   version="1.1"
   id="Layer_1"
   x="0px"
   y="0px"
   viewBox="0 0 53.4 53.200001"
   xml:space="preserve"
   inkscape:version="0.91 r13725"
   sodipodi:docname="For_Designers_Icon.svg"
   width="53.400002"
   height="53.200001"><metadata
     id="metadata79"><rdf:RDF><cc:Work
         rdf:about=""><dc:format>image/svg+xml</dc:format><dc:type
           rdf:resource="http://purl.org/dc/dcmitype/StillImage" /><dc:title></dc:title></cc:Work></rdf:RDF></metadata><defs
     id="defs77" /><sodipodi:namedview
     pagecolor="#ffffff"
     bordercolor="#666666"
     borderopacity="1"
     objecttolerance="10"
     gridtolerance="10"
     guidetolerance="10"
     inkscape:pageopacity="0"
     inkscape:pageshadow="2"
     inkscape:window-width="1822"
     inkscape:window-height="936"
     id="namedview75"
     showgrid="false"
     showguides="false"
     inkscape:zoom="2.1454545"
     inkscape:cx="-18.495761"
     inkscape:cy="45.444068"
     inkscape:window-x="55"
     inkscape:window-y="0"
     inkscape:window-maximized="0"
     inkscape:current-layer="layer2"
     fit-margin-top="0"
     fit-margin-left="0"
     fit-margin-right="0"
     fit-margin-bottom="0"><inkscape:grid
       type="xygrid"
       id="grid3407"
       originx="-32.899999"
       originy="-28.2" /></sodipodi:namedview><style
     type="text/css"
     id="style3">
	.st0{fill:#B5E2EB;}
	.st1{fill:#282D33;}
	.st2{fill:#424242;}
	.st3{fill:#FFFFFF;}
</style><g
     inkscape:groupmode="layer"
     id="layer2"
     inkscape:label="Layer 1"
     style="display:inline"
     transform="translate(-32.9,-28.6)"><g
       id="g5"><g
         id="g7"><circle
           class="st0"
           cx="54.400002"
           cy="49.700001"
           r="7.5"
           id="circle9"
           style="fill:#b5e2eb" /><g
           id="g11"><g
             id="g13"><g
               id="g15"><rect
                 x="67.900002"
                 y="63.799999"
                 class="st1"
                 width="2.2"
                 height="2.2"
                 id="rect17"
                 style="fill:#282d33" /></g><g
               id="g19"><path
                 class="st2"
                 d="m 65.7,66 -2.2,0 0,-2.2 2.2,0 0,2.2 z m -4.4,0 -2.2,0 0,-2.2 2.2,0 0,2.2 z m -4.4,0 -2.2,0 0,-2.2 2.2,0 0,2.2 z m -4.4,0 -2.2,0 0,-2.2 2.2,0 0,2.2 z m -4.4,0 -2.2,0 0,-2.2 2.2,0 0,2.2 z m -4.4,0 -2.2,0 0,-2.2 2.2,0 0,2.2 z"
                 id="path21"
                 inkscape:connector-curvature="0"
                 style="fill:#424242" /></g><g
               id="g23"><rect
                 x="37.099998"
                 y="63.799999"
                 class="st1"
                 width="2.2"
                 height="2.2"
                 id="rect25"
                 style="fill:#282d33" /></g><g
               id="g27"><path
                 class="st2"
                 d="m 39.3,61.6 -2.2,0 0,-2.2 2.2,0 0,2.2 z m 0,-4.4 -2.2,0 0,-2.2 2.2,0 0,2.2 z m 0,-4.4 -2.2,0 0,-2.2 2.2,0 0,2.2 z m 0,-4.4 -2.2,0 0,-2.2 2.2,0 0,2.2 z m 0,-4.4 -2.2,0 0,-2.2 2.2,0 0,2.2 z m 0,-4.3 -2.2,0 0,-2.2 2.2,0 0,2.2 z"
                 id="path29"
                 inkscape:connector-curvature="0"
                 style="fill:#424242" /></g><g
               id="g31"><rect
                 x="37.099998"
                 y="33"
                 class="st1"
                 width="2.2"
                 height="2.2"
                 id="rect33"
                 style="fill:#282d33" /></g><g
               id="g35"><path
                 class="st2"
                 d="m 65.7,35.3 -2.2,0 0,-2.3 2.2,0 0,2.3 z m -4.4,0 -2.2,0 0,-2.3 2.2,0 0,2.3 z m -4.4,0 -2.2,0 0,-2.3 2.2,0 0,2.3 z m -4.4,0 -2.2,0 0,-2.3 2.2,0 0,2.3 z m -4.4,0 -2.2,0 0,-2.3 2.2,0 0,2.3 z m -4.4,0 -2.2,0 0,-2.3 2.2,0 0,2.3 z"
                 id="path37"
                 inkscape:connector-curvature="0"
                 style="fill:#424242" /></g><g
               id="g39"><rect
                 x="67.900002"
                 y="33"
                 class="st1"
                 width="2.2"
                 height="2.2"
                 id="rect41"
                 style="fill:#282d33" /></g><g
               id="g43"><path
                 class="st2"
                 d="m 70.1,61.6 -2.2,0 0,-2.2 2.2,0 0,2.2 z m 0,-4.4 -2.2,0 0,-2.2 2.2,0 0,2.2 z m 0,-4.4 -2.2,0 0,-2.2 2.2,0 0,2.2 z m 0,-4.4 -2.2,0 0,-2.2 2.2,0 0,2.2 z m 0,-4.4 -2.2,0 0,-2.2 2.2,0 0,2.2 z m 0,-4.3 -2.2,0 0,-2.2 2.2,0 0,2.2 z"
                 id="path45"
                 inkscape:connector-curvature="0"
                 style="fill:#424242" /></g></g><g
             id="g47"><g
               id="g49"><rect
                 x="34"
                 y="29.700001"
                 class="st3"
                 width="9.8999996"
                 height="9.8999996"
                 id="rect51"
                 style="fill:#ffffff" /><path
                 class="st2"
                 d="m 45,40.7 -12.1,0 0,-12.1 12.1,0 0,12.1 z m -9.9,-2.3 7.6,0 0,-7.6 -7.6,0 0,7.6 z"
                 id="path53"
                 inkscape:connector-curvature="0"
                 style="fill:#424242" /></g><g
               id="g55"><rect
                 x="63.299999"
                 y="29.700001"
                 class="st3"
                 width="9.8999996"
                 height="9.8999996"
                 id="rect57"
                 style="fill:#ffffff" /><path
                 class="st2"
                 d="m 74.3,40.7 -12.1,0 0,-12.1 12.1,0 0,12.1 z m -9.8,-2.3 7.6,0 0,-7.6 -7.6,0 0,7.6 z"
                 id="path59"
                 inkscape:connector-curvature="0"
                 style="fill:#424242" /></g><g
               id="g61"><rect
                 x="34"
                 y="59.5"
                 class="st3"
                 width="9.8999996"
                 height="9.8999996"
                 id="rect63"
                 style="fill:#ffffff" /><path
                 class="st2"
                 d="m 45,70.5 -12.1,0 0,-12.1 12.1,0 0,12.1 z m -9.9,-2.2 7.6,0 0,-7.6 -7.6,0 0,7.6 z"
                 id="path65"
                 inkscape:connector-curvature="0"
                 style="fill:#424242" /></g></g></g><g
           id="g67"><polygon
             class="st3"
             points="60.6,56.3 64.5,67.8 68.3,79.2 71.1,72 78.8,79.7 83.9,74.6 76.2,66.9 83.4,64.1 72,60.2 "
             id="polygon69"
             style="fill:#ffffff" /><g
             id="g71"><path
               class="st2"
               d="m 68.6,81.8 -9,-26.7 26.7,9 -8.3,3.3 7.4,7.4 -6.3,6.3 -7.4,-7.4 -3.1,8.1 z m 2.3,-11.5 7.7,7.7 3.7,-3.7 -7.7,-7.7 5.8,-2.2 -17.7,-6 6,17.7 2.2,-5.8 z"
               id="path73"
               inkscape:connector-curvature="0"
               style="fill:#424242" /></g></g></g></g></g></svg>