<?xml version="1.0" encoding="UTF-8" standalone="no"?>
<!-- Generator: Adobe Illustrator 21.0.2, SVG Export Plug-In . SVG Version: 6.00 Build 0)  -->

<svg
   xmlns:dc="http://purl.org/dc/elements/1.1/"
   xmlns:cc="http://creativecommons.org/ns#"
   xmlns:rdf="http://www.w3.org/1999/02/22-rdf-syntax-ns#"
   xmlns:svg="http://www.w3.org/2000/svg"
   xmlns="http://www.w3.org/2000/svg"
   xmlns:sodipodi="http://sodipodi.sourceforge.net/DTD/sodipodi-0.dtd"
   xmlns:inkscape="http://www.inkscape.org/namespaces/inkscape"
   version="1.1"
   id="Layer_1"
   x="0px"
   y="0px"
   viewBox="0 0 53.999999 43.599998"
   xml:space="preserve"
   inkscape:version="0.91 r13725"
   sodipodi:docname="For_Developers_Icon.svg"
   width="54"
   height="43.599998"><metadata
     id="metadata59"><rdf:RDF><cc:Work
         rdf:about=""><dc:format>image/svg+xml</dc:format><dc:type
           rdf:resource="http://purl.org/dc/dcmitype/StillImage" /><dc:title /></cc:Work></rdf:RDF></metadata><defs
     id="defs57" /><sodipodi:namedview
     pagecolor="#ffffff"
     bordercolor="#666666"
     borderopacity="1"
     objecttolerance="10"
     gridtolerance="10"
     guidetolerance="10"
     inkscape:pageopacity="0"
     inkscape:pageshadow="2"
     inkscape:window-width="1392"
     inkscape:window-height="842"
     id="namedview55"
     showgrid="false"
     fit-margin-top="0"
     fit-margin-left="0"
     fit-margin-right="0"
     fit-margin-bottom="0"
     inkscape:zoom="24.273047"
     inkscape:cx="11.896994"
     inkscape:cy="31.306508"
     inkscape:window-x="53"
     inkscape:window-y="190"
     inkscape:window-maximized="0"
     inkscape:current-layer="Layer_1" /><style
     type="text/css"
     id="style3">
	.st0{fill:#FFFFFF;}
	.st1{fill:#424242;}
	.st2{fill:#B5E2EB;}
</style><g
     id="g5"
     transform="translate(-33.3,-33.4)"><g
       id="g7"><g
         id="g9"><g
           id="g11"><rect
             x="34.299999"
             y="34.599998"
             class="st0"
             width="52"
             height="41.400002"
             id="rect13"
             style="fill:none" /><path
             class="st1"
             d="m 85.3,35.6 0,39.4 -50,0 0,-39.4 50,0 m 2,-2 -54,0 0,43.4 54,0 0,-43.4 0,0 z"
             id="path15"
             inkscape:connector-curvature="0"
             style="fill:#424242" /></g><circle
           class="st2"
           cx="60.299999"
           cy="57.299999"
           r="12.1"
           id="circle17"
           style="fill:#b5e2eb" /><g
           id="g19"><g
             id="g21"><g
               id="g23"><path
                 class="st0"
                 d="m 34.3,40.6 0,-6.2 52,0 0,6.2 -52,0 z m 0.1,-0.1 51.8,0 0,-6 -51.8,0 0,6 z"
                 id="path25"
                 inkscape:connector-curvature="0"
                 style="fill:#ffffff" /><path
                 class="st1"
                 d="m 87.3,33.4 -54,0 0,8.2 54,0 0,-8.2 0,0 z m -51.9,6.1 0,-4 49.8,0 0,4 -49.8,0 0,0 z"
                 id="path27"
                 inkscape:connector-curvature="0"
                 style="fill:#424242" /></g></g><g
             id="g29"><rect
               x="37.400002"
               y="36.5"
               class="st1"
               width="1.7"
               height="1.8"
               id="rect31"
               style="fill:#424242" /></g><g
             id="g33"><rect
               x="40.299999"
               y="36.5"
               class="st1"
               width="1.7"
               height="1.8"
               id="rect35"
               style="fill:#424242" /></g><g
             id="g37"><rect
               x="43.200001"
               y="36.5"
               class="st1"
               width="1.7"
               height="1.8"
               id="rect39"
               style="fill:#424242" /></g></g><g
           id="g41"><g
             id="g43"><polygon
               class="st1"
               points="55.4,53.1 50,57.5 55.4,61.8 54.1,63.4 46.6,57.5 54.1,51.5 "
               id="polygon45"
               style="fill:#424242" /></g><g
             id="g47"><polygon
               class="st1"
               points="65.2,53.1 66.5,51.5 74,57.5 66.5,63.4 65.2,61.8 70.6,57.5 "
               id="polygon49"
               style="fill:#424242" /></g><g
             id="g51"><rect
               x="52.200001"
               y="56.400002"
               transform="matrix(0.2795,-0.9601,0.9601,0.2795,-11.5573,99.5123)"
               class="st1"
               width="16.700001"
               height="2.0999999"
               id="rect53"
               style="fill:#424242" /></g></g></g></g></g></svg>