<?xml version="1.0" encoding="UTF-8" standalone="no"?>
<!-- Generator: Adobe Illustrator 21.0.2, SVG Export Plug-In . SVG Version: 6.00 Build 0)  -->

<svg
   xmlns:dc="http://purl.org/dc/elements/1.1/"
   xmlns:cc="http://creativecommons.org/ns#"
   xmlns:rdf="http://www.w3.org/1999/02/22-rdf-syntax-ns#"
   xmlns:svg="http://www.w3.org/2000/svg"
   xmlns="http://www.w3.org/2000/svg"
   xmlns:sodipodi="http://sodipodi.sourceforge.net/DTD/sodipodi-0.dtd"
   xmlns:inkscape="http://www.inkscape.org/namespaces/inkscape"
   version="1.1"
   id="Layer_1"
   x="0px"
   y="0px"
   viewBox="0 0 269.5 64"
   xml:space="preserve"
   inkscape:version="0.91 r13725"
   sodipodi:docname="Helix_Logo_Homepage.svg"
   width="269.5"
   height="64"><metadata
     id="metadata45"><rdf:RDF><cc:Work
         rdf:about=""><dc:format>image/svg+xml</dc:format><dc:type
           rdf:resource="http://purl.org/dc/dcmitype/StillImage" /><dc:title></dc:title></cc:Work></rdf:RDF></metadata><defs
     id="defs43" /><sodipodi:namedview
     pagecolor="#ffffff"
     bordercolor="#666666"
     borderopacity="1"
     objecttolerance="10"
     gridtolerance="10"
     guidetolerance="10"
     inkscape:pageopacity="0"
     inkscape:pageshadow="2"
     inkscape:window-width="1021"
     inkscape:window-height="671"
     id="namedview41"
     showgrid="false"
     fit-margin-top="0"
     fit-margin-left="0"
     fit-margin-right="0"
     fit-margin-bottom="0"
     inkscape:zoom="0.82035928"
     inkscape:cx="21.478102"
     inkscape:cy="33"
     inkscape:window-x="83"
     inkscape:window-y="180"
     inkscape:window-maximized="0"
     inkscape:current-layer="Layer_1" /><style
     type="text/css"
     id="style3">
	.st0{fill:#16B9D4;}
	.st1{opacity:0.92;}
	.st2{fill:#0E94A6;}
</style><g
     id="g5"
     transform="translate(-28.5,-23.5)"><g
       id="g7"><path
         d="m 138.9,74.4 -3.2,0 0,-18 -21.5,0 0,18 -3.2,0 0,-37.6 3.2,0 0,16.9 21.5,0 0,-16.9 3.2,0 0,37.6 z"
         id="path9"
         inkscape:connector-curvature="0" /><path
         d="m 182,56.4 -17.6,0 0,15.3 20.2,0 0,2.7 -23.4,0 0,-37.6 23.3,0 0,2.7 -20.1,0 0,14.2 17.6,0 0,2.7 z"
         id="path11"
         inkscape:connector-curvature="0" /><path
         d="m 207.2,71.7 18.6,0 0,2.7 -21.8,0 0,-37.6 3.2,0 0,34.9 z"
         id="path13"
         inkscape:connector-curvature="0" /><path
         d="m 248.4,74.4 -3.2,0 0,-37.6 3.2,0 0,37.6 z"
         id="path15"
         inkscape:connector-curvature="0" /><path
         d="m 283.2,52.7 10.6,-15.9 3.8,0 -12.5,18.6 12.9,19 -3.8,0 -11,-16.4 -11,16.4 -3.8,0 12.9,-19.1 -12.5,-18.6 3.8,0 10.6,16 z"
         id="path17"
         inkscape:connector-curvature="0" /></g><g
       id="g19"><g
         id="g21"><g
           id="g23"><g
             id="g25"><path
               d="M 82,70.9 57.4,85.1 c -0.5,0.3 -1,0.3 -1.5,0 L 31.4,70.9 c -0.5,-0.3 -0.7,-0.7 -0.7,-1.3 l 0,-28.4 c 0,-0.5 0.3,-1 0.7,-1.3 L 56,25.7 c 0.5,-0.3 1,-0.3 1.5,0 L 82,40 c 0.5,0.3 0.7,0.7 0.7,1.3 l 0,28.4 c 0,0.5 -0.3,1 -0.7,1.2 z"
               id="path27"
               inkscape:connector-curvature="0" /></g><path
             class="st0"
             d="m 56.7,25.6 c 0.3,0 0.5,0.1 0.7,0.2 L 82,40 c 0.5,0.3 0.7,0.7 0.7,1.3 l 0,28.4 c 0,0.5 -0.3,1 -0.7,1.3 L 57.4,85.1 c -0.2,0.1 -0.5,0.2 -0.7,0.2 -0.3,0 -0.5,-0.1 -0.7,-0.2 L 31.4,70.9 c -0.5,-0.3 -0.7,-0.7 -0.7,-1.3 l 0,-28.4 c 0,-0.5 0.3,-1 0.7,-1.3 L 56,25.7 c 0.2,0 0.4,-0.1 0.7,-0.1 m 0,-2.1 c -0.6,0 -1.3,0.2 -1.8,0.5 L 30.3,38.1 c -1.1,0.6 -1.8,1.9 -1.8,3.1 l 0,28.4 c 0,1.3 0.7,2.5 1.8,3.1 L 54.9,87 c 0.6,0.3 1.2,0.5 1.8,0.5 0.6,0 1.3,-0.2 1.8,-0.5 L 83.1,72.8 c 1.1,-0.6 1.8,-1.9 1.8,-3.1 l 0,-28.4 c 0,-1.3 -0.7,-2.5 -1.8,-3.1 L 58.5,24 c -0.6,-0.4 -1.2,-0.5 -1.8,-0.5 l 0,0 z"
             id="path29"
             inkscape:connector-curvature="0"
             style="fill:#16b9d4" /></g><g
           class="st1"
           id="g31"
           style="opacity:0.92000002"><path
             class="st2"
             d="m 44.4,58.3 c 0,0.3 0.2,0.7 0.5,0.8 l 24,14.6 c 0.3,0.2 0.5,0 0.5,-0.3 l 0,-5.4 c 0,-0.3 -0.2,-0.7 -0.5,-0.8 l -24,-14.6 c -0.3,-0.2 -0.5,0 -0.5,0.3 l 0,5.4 z"
             id="path33"
             inkscape:connector-curvature="0"
             style="fill:#0e94a6" /><path
             class="st2"
             d="m 69.3,53.4 c 0,-0.3 -0.2,-0.7 -0.5,-0.8 L 44.8,38 c -0.3,-0.2 -0.5,0 -0.5,0.3 l 0,5.5 c 0,0.3 0.2,0.7 0.5,0.8 l 24,14.6 c 0.3,0.2 0.5,0 0.5,-0.3 l 0,-5.5 z"
             id="path35"
             inkscape:connector-curvature="0"
             style="fill:#0e94a6" /></g></g><path
         class="st0"
         d="M 68.8,37.9 44.8,52 c -0.3,0.2 -0.5,0.5 -0.5,0.8 l 0,5.5 c 0,0 0,0 0,0 l 0,0 c 0,0 0,0 0,0 0,0 0,0.1 0,0.1 0,0.1 0.1,0.2 0.1,0.4 0.1,0.1 0.2,0.2 0.2,0.3 0,0 0,0 0,0 0,0 0,-0.1 0,-0.2 0,-0.1 0.1,-0.2 0.1,-0.3 l 0,0 c 0,0 24,-14.1 24,-14.1 0.3,-0.2 0.5,-0.5 0.5,-0.8 l 0,-5.5 C 69.3,37.9 69,37.7 68.8,37.9 Z"
         id="path37"
         inkscape:connector-curvature="0"
         style="fill:#16b9d4" /><path
         class="st0"
         d="M 44.8,73.8 68.7,59.7 c 0.3,-0.2 0.5,-0.5 0.5,-0.8 l 0,-5.5 c 0,0 0,0 0,0 l 0,0 c 0,0 0,0 0,0 0,0 0,-0.1 0,-0.1 0,-0.1 -0.1,-0.2 -0.1,-0.4 -0.1,-0.1 -0.2,-0.2 -0.2,-0.3 0,0 0,0 0,0 0,0 0,0.1 0,0.2 0,0.1 -0.1,0.2 -0.1,0.3 l 0,0 c 0,0 -24,14.1 -24,14.1 -0.3,0.2 -0.5,0.5 -0.5,0.8 l 0,5.5 c 0.1,0.3 0.3,0.4 0.5,0.3 z"
         id="path39"
         inkscape:connector-curvature="0"
         style="fill:#16b9d4" /></g></g></svg>