<?xml version="1.0" encoding="utf-8"?>
<!-- Generator: Adobe Illustrator 21.0.2, SVG Export Plug-In . SVG Version: 6.00 Build 0)  -->
<svg version="1.1" id="Layer_1" xmlns="http://www.w3.org/2000/svg" xmlns:xlink="http://www.w3.org/1999/xlink" x="0px" y="0px"
	 viewBox="0 0 1280 1190" style="enable-background:new 0 0 1280 1190;" xml:space="preserve">
<style type="text/css">
	.st0{fill:#FAFAFA;}
	.st1{opacity:0.15;fill:#FFFFFF;}
	.st2{opacity:0.21;fill:#FFFFFF;}
	.st3{opacity:0.38;fill:#FFFFFF;}
	.st4{opacity:6.000000e-02;fill:#FFFFFF;}
	.st5{opacity:5.000000e-02;fill:#1CD2E5;}
	.st6{opacity:0.2;fill:#B5E2EB;}
	.st7{opacity:0.4;fill:#B5E2EB;}
	.st8{opacity:0.11;fill:#B5E2EB;}
	.st9{opacity:7.000000e-02;fill:#1CD2E5;}
	.st10{clip-path:url(#SVGID_2_);}
	.st11{opacity:0.74;fill:url(#SVGID_3_);}
	.st12{opacity:0.12;fill:#1CD2E5;}
	.st13{opacity:0.2;}
	.st14{fill:#1CD2E5;}
	.st15{opacity:0.9;fill:#B5E2EB;}
	.st16{opacity:6.000000e-02;}
	.st17{fill:#B5E2EB;}
	.st18{opacity:5.000000e-02;}
	.st19{opacity:0.1;fill:#FFFFFF;}
	.st20{opacity:0.15;fill:#1CD2E5;}
	.st21{opacity:0.22;fill:#1CD2E5;}
	.st22{opacity:0.22;fill:#B5E2EB;}
	.st23{opacity:0.23;fill:#FFFFFF;}
	.st24{opacity:5.000000e-02;fill:#FFFFFF;}
	.st25{opacity:0.16;fill:#B5E2EB;}
	.st26{opacity:0.14;fill:#1CD2E5;}
	.st27{opacity:0.12;fill:#FFFFFF;}
	.st28{opacity:9.000000e-02;fill:#1CD2E5;}
	.st29{opacity:0.34;}
	.st30{fill:#FFFFFF;}
	.st31{opacity:4.000000e-02;fill:#1CD2E5;}
	.st32{opacity:0.19;fill:#1CD2E5;}
	.st33{opacity:0.72;fill:#B5E2EB;}
	.st34{opacity:0.34;fill:#FFFFFF;}
	.st35{opacity:4.000000e-02;fill:#B5E2EB;}
	.st36{opacity:0.33;fill:#FFFFFF;}
	.st37{opacity:0.15;fill:#B5E2EB;}
	.st38{opacity:0.36;fill:#FFFFFF;}
	.st39{opacity:0.1;fill:#B5E2EB;}
	.st40{opacity:0.18;fill:#FFFFFF;}
	.st41{opacity:5.000000e-02;fill:#B5E2EB;}
	.st42{opacity:2.000000e-02;fill:#1CD2E5;}
	.st43{opacity:0.17;fill:#B5E2EB;}
	.st44{opacity:0.22;}
	.st45{fill:none;stroke:url(#SVGID_4_);stroke-miterlimit:10;}
	.st46{fill:none;stroke:url(#SVGID_5_);stroke-miterlimit:10;stroke-dasharray:3.9126,3.9126;}
	.st47{fill:none;stroke:url(#SVGID_6_);stroke-miterlimit:10;}
	.st48{fill:none;stroke:url(#SVGID_7_);stroke-miterlimit:10;stroke-dasharray:3.8565,3.8565;}
	.st49{fill:none;stroke:url(#SVGID_8_);stroke-miterlimit:10;}
	.st50{fill:none;stroke:url(#SVGID_9_);stroke-miterlimit:10;stroke-dasharray:3.8846,3.8846;}
	.st51{fill:none;stroke:url(#SVGID_10_);stroke-miterlimit:10;}
	.st52{fill:none;stroke:url(#SVGID_11_);stroke-miterlimit:10;stroke-dasharray:3.8846,3.8846;}
	.st53{fill:none;stroke:url(#SVGID_12_);stroke-miterlimit:10;}
	.st54{fill:none;stroke:url(#SVGID_13_);stroke-miterlimit:10;stroke-dasharray:3.8845,3.8845;}
	.st55{fill:none;stroke:url(#SVGID_14_);stroke-miterlimit:10;}
	.st56{fill:none;stroke:url(#SVGID_15_);stroke-miterlimit:10;stroke-dasharray:3.8566,3.8566;}
</style>
<rect x="1" y="1" class="st0" width="1279.5" height="1187"/>
<polygon class="st1" points="890,150.6 860.4,133.5 860.4,100.9 860.4,99.1 890.2,81.9 919.8,99 919.8,133.4 "/>
<polygon class="st2" points="1161.2,411.6 1131.5,394.5 1131.5,360.1 1161.4,342.8 1191,359.9 1191,394.4 "/>
<polygon class="st3" points="1161.7,412.2 1191.5,395 1221.1,412.1 1221.1,446.5 1191.3,463.8 1161.7,446.7 "/>
<polygon class="st4" points="1101.2,412.4 1101.3,412.3 1131.2,395 1160.8,412.1 1160.8,446.6 1131,463.8 1101.2,446.6 "/>
<polygon class="st1" points="1251.5,463.8 1221.9,446.7 1221.9,412.2 1251.7,395 1281.3,412.1 1281.4,446.5 "/>
<polygon class="st4" points="1010.8,360.2 1010.9,360.2 1040.8,342.9 1070.5,359.9 1070.5,394.4 1040.6,411.6 1010.8,394.4 "/>
<polygon class="st1" points="1191.6,464.5 1191.6,464.5 1221.6,447.2 1251.2,464.3 1251.2,498.7 1221.4,515.9 1191.6,498.7 "/>
<polygon class="st5" points="1101.4,99.1 1131.2,81.9 1160.9,99 1160.9,133.4 1131,150.6 1101.4,133.5 "/>
<polygon class="st6" points="1071,47 1100.6,64.1 1100.6,98.6 1070.8,115.8 1041.2,98.7 1041.2,64.3 "/>
<polygon class="st7" points="1192,116.5 1221.6,133.6 1221.6,168.1 1191.8,185.3 1162.2,168.2 1162.2,133.8 "/>
<polygon class="st6" points="1251.8,47 1281.4,64.1 1281.4,98.6 1251.6,115.8 1222,98.7 1222,64.3 "/>
<polygon class="st8" points="1251.7,151.4 1281.4,168.5 1281.4,202.9 1251.5,220.1 1221.9,203.1 1221.9,168.6 "/>
<polygon class="st9" points="1101.1,29.7 1130.7,46.8 1130.7,81.2 1100.9,98.4 1071.3,81.3 1071.3,46.9 "/>
<polygon class="st9" points="1251.8,186.3 1281.4,203.4 1281.4,237.8 1251.6,255 1221.9,237.9 1221.9,203.5 "/>
<g>
	<defs>
		<rect id="SVGID_1_" x="240.6" y="1.1" width="1039.6" height="358.6"/>
	</defs>
	<clipPath id="SVGID_2_">
		<use xlink:href="#SVGID_1_"  style="overflow:visible;"/>
	</clipPath>
	<g class="st10">
		<g>
			<linearGradient id="SVGID_3_" gradientUnits="userSpaceOnUse" x1="869.3013" y1="80.6822" x2="1151.3014" y2="-142.3179">
				<stop  offset="0.3802" style="stop-color:#FAFAFA"/>
				<stop  offset="0.5412" style="stop-color:#DDF0F4"/>
				<stop  offset="0.7027" style="stop-color:#C7E8EF"/>
				<stop  offset="0.8583" style="stop-color:#B9E4EC"/>
				<stop  offset="1" style="stop-color:#B5E2EB"/>
			</linearGradient>
			<path class="st11" d="M1462.8,98.6l-29.9-17.3l0-34.8l-30.5-17.6l-30.2,17.4l-29.8-17.2l0-34.8L1312-23.3l-30.2,17.4l-29.8-17.2
				l0-34.8l-30.5-17.6l-30.2,17.4l-29.8-17.2l0-34.8l-30.5-17.6l-30.2,17.4l-29.8-17.2l0-34.8l-30.5-17.6l-30.5,17.6l0,34.8
				l-29.8,17.2L951-127.3l0-34.8l-30.5-17.6l-30.2,17.4l-29.8-17.2l0-34.8l-30.5-17.6L800-214.5l-29.8-17.2l0-34.8L739.8-284
				l-30.2,17.4l-29.8-17.2l0-34.8l-30.5-17.6l-30.2,17.4L589.5-336l0-34.8L559-388.4l-30.5,17.6l0,34.8l-30.1,17.4l0,34.8
				l-30.1,17.4l0,34.8l-30.1,17.4l0,34.8L408-162.1l0,34.8l-30.1,17.4v34.8l-30.1,17.4l0,34.8L317.6-5.5l0,35.2L347.6,47l0,34.8
				L378,99.4L408.2,82L438,99.2V134l30.5,17.6l30.2-17.4l29.8,17.2l0,34.8l30.5,17.6l30.2-17.4l29.8,17.2l0,34.8l30.5,17.6
				l30.2-17.4l29.8,17.2l60.9,0l29.8-17.2l29.6,17.1l60.6,35l29.8,17.2l0,34.8l30.5,17.6l30.2-17.4l29.8,17.2v34.8l30.5,17.6
				l30.2-17.4l29.8,17.2v34.8l30.5,17.6l30.2-17.4l29.8,17.2v34.8l30.5,17.6l30.5-17.6l0-0.2l0-34.6l30.1-17.4l0-0.2l0-34.6
				l30.1-17.4l0-0.2l0-34.6l30.1-17.4l0-0.2l0-34.6l30.1-17.4l0-0.2l0-34.6l30.1-17.4l0-0.2l0-34.6l30.1-17.4l0-0.2l0-34.6
				l30.1-17.4l0-0.2L1462.8,98.6z M1402.2,202.8l-29.6-17.1l0-34.4l29.8-17.2l29.6,17.1l0,34.4L1402.2,202.8z M1372.1,255
				l-29.6-17.1l0-34.4l29.8-17.2l29.6,17.1l0,34.4L1372.1,255z M1311.5,290l-29.8,17.2l-29.6-17.1l0-34.4l29.8-17.2l29.6,17.1
				L1311.5,290z M1282.2,237.9l0-34.4l29.8-17.2l29.6,17.1l0,34.4l-29.8,17.2L1282.2,237.9z M528.7-58l-29.6-17.1l0-34.4l29.8-17.2
				l29.6,17.1l0,34.4L528.7-58z M559-74.5l29.6,17.1l0,34.4L558.8-5.8l-29.6-17.1l0-34.4L559-74.5z M529.2-161.7l29.8-17.2
				l29.6,17.1l0,34.4l-29.8,17.2l-29.6-17.1L529.2-161.7z M589.1-126.7l29.6,17.1l0,34.4L588.9-58l-29.6-17.1l0-34.4L589.1-126.7z
				 M619.3-74.5l29.6,17.1l0,34.4L619.1-5.8l-29.6-17.1l0-34.4L619.3-74.5z M649.4-22.3L679-5.2l0,34.4l-29.8,17.2l-29.6-17.1
				l0-34.4L649.4-22.3z M619.6-109.5l29.8-17.2l29.6,17.1l0,34.4L649.2-58l-29.6-17.1L619.6-109.5z M679.5-74.5l29.6,17.1l0,34.4
				L679.3-5.8l-29.6-17.1l0-34.4L679.5-74.5z M709.6-22.3l29.6,17.1l0,34.4l-29.8,17.2l-29.6-17.1l0-34.4L709.6-22.3z M739.8,29.8
				l29.6,17.1l0,34.4l-29.8,17.2L710,81.5l0-34.4L739.8,29.8z M710-22.9l0-34.4l29.8-17.2l29.6,17.1l0,34.4L739.6-5.8L710-22.9z
				 M769.9-22.3l29.6,17.1l0,34.4l-29.8,17.2l-29.6-17.1l0-34.4L769.9-22.3z M800,29.8l29.6,17.1l0,34.4l-29.8,17.2l-29.6-17.1
				l0-34.4L800,29.8z M920.2,98.4l-29.6-17.1l0-34.4l29.8-17.2L950,46.8l0,34.4L920.2,98.4z M920.7,99.1l29.8-17.2L980.1,99l0,34.4
				l-29.8,17.2l-29.6-17.1L920.7,99.1z M800.3,133.7l0-34.4L830.2,82l29.6,17.1v34.4L830,150.8L800.3,133.7z M800.3-5.1l29.8-17.2
				l29.6,17.1l0,34.4L830,46.4l-29.6-17.1L800.3-5.1z M860.3,29.8l29.6,17.1l0,34.4l-29.8,17.2l-29.6-17.1l0-34.4L860.3,29.8z
				 M980.1-5.4l0,34.4l-29.8,17.2l-29.6-17.1l0-34.4l29.8-17.2L980.1-5.4z M980.6,29.7l29.6,17.1l0,34.4l-29.8,17.2l-29.6-17.1
				l0-34.4L980.6,29.7z M1010.7,81.9l29.6,17.1l0,34.4l-29.8,17.2l-29.6-17.1l0-34.4L1010.7,81.9z M1040.9,134.1l29.6,17.1l0,34.4
				l-29.8,17.2l-29.6-17.1l0-34.4L1040.9,134.1z M1011.1,46.9l29.8-17.2l29.6,17.1l0,34.4l-29.8,17.2l-29.6-17.1L1011.1,46.9z
				 M1071,81.9l29.6,17.1l0,34.4l-29.8,17.2l-29.6-17.1l0-34.4L1071,81.9z M1101.1,134.1l29.6,17.1l0,34.4l-29.8,17.2l-29.6-17.1
				l0-34.4L1101.1,134.1z M1131.2,186.3l29.6,17.1v34.4L1131,255l-29.6-17.1l0-34.4L1131.2,186.3z M1101.4,99.1l29.8-17.2l29.6,17.1
				l0,34.4l-29.8,17.2l-29.6-17.1L1101.4,99.1z M1161.4,134.1l29.6,17.1l0,34.4l-29.8,17.2l-29.6-17.1l0-34.4L1161.4,134.1z
				 M1191.5,186.3l29.6,17.1l0,34.4l-29.8,17.2l-29.6-17.1v-34.4L1191.5,186.3z M1221.6,238.5l29.6,17.1l0,34.4l-29.8,17.2
				l-29.6-17.1l0-34.4L1221.6,238.5z M1191.8,185.7l0-34.4l29.8-17.2l29.6,17.1l0,34.4l-29.8,17.2L1191.8,185.7z M1251.8,186.3
				l29.6,17.1l0,34.4l-29.8,17.2l-29.6-17.1l0-34.4L1251.8,186.3z M1281.4,342.2l-29.8,17.2l-29.6-17.1l0-34.4l29.8-17.2l29.6,17.1
				L1281.4,342.2z M1251.2,394.3l-29.8,17.2l-29.6-17.1l0-34.4l29.8-17.2l29.6,17.1L1251.2,394.3z M1191.3,359.4l-29.6-17.1l0-34.4
				l29.8-17.2l29.6,17.1l0,34.4L1191.3,359.4z M1161.2,307.2l-29.6-17.1l0-34.4l29.8-17.2l29.6,17.1l0,34.4L1161.2,307.2z
				 M1160.8,342.2l-29.8,17.2l-29.6-17.1l0-34.4l29.8-17.2l29.6,17.1L1160.8,342.2z M1100.9,307.2l-29.6-17.1l0-34.4l29.8-17.2
				l29.6,17.1l0,34.4L1100.9,307.2z M1070.8,255l-29.6-17.1l0-34.4l29.8-17.2l29.6,17.1l0,34.4L1070.8,255z M1070.5,290l-29.8,17.2
				l-29.6-17.1l0-34.4l29.8-17.2l29.6,17.1L1070.5,290z M1010.5,255l-29.6-17.1l0-34.4l29.8-17.2l29.6,17.1l0,34.4L1010.5,255z
				 M980.4,202.8l-29.6-17.1l0-34.4l29.8-17.2l29.6,17.1l0,34.4L980.4,202.8z M980.1,237.8L950.3,255l-29.6-17.1l0-34.4l29.8-17.2
				l29.6,17.1L980.1,237.8z M920.2,202.8l-29.6-17.1l0-34.4l29.8-17.2l29.6,17.1l0,34.4L920.2,202.8z M890,150.6l-29.6-17.1l0-32.6
				v-1.8l29.8-17.2L919.8,99l0,34.4L890,150.6z M889.7,151.2l0,34.4l-29.8,17.2l-29.6-17.1l0-34.4l29.8-17.2L889.7,151.2z
				 M770.2,185.9l0-34.4l29.8-17.2l29.6,17.1l0,34.4l-29.8,17.2L770.2,185.9z M769.7,150.8l-29.6-17.1l0-34.4L769.9,82l29.6,17.1
				l0,34.4L769.7,150.8z M769.4,185.7l-29.8,17.2l-29.6-17.1l0-34.4l29.8-17.2l29.6,17.1L769.4,185.7z M709.4,150.8l-29.6-17.1
				l0-34.4L709.6,82l29.6,17.1l0,34.4L709.4,150.8z M679.3,98.6l-29.6-17.1l0-34.4l29.8-17.2l29.6,17.1l0,34.4L679.3,98.6z
				 M679,133.6l-29.8,17.2l-29.6-17.1l0-34.4L649.4,82L679,99.1L679,133.6z M619.1,98.6l-29.6-17.1l0-34.4l29.8-17.2L648.9,47
				l0,34.4L619.1,98.6z M588.9,46.4l-29.6-17.1l0-34.4l29.8-17.2l29.6,17.1l0,34.4L588.9,46.4z M588.6,81.4l-29.8,17.2l-29.6-17.1
				l0-34.4L559,29.9L588.6,47L588.6,81.4z M528.7,46.4l-29.6-17.1l0-34.4l29.8-17.2l29.6,17.1l0,34.4L528.7,46.4z M498.5-5.8
				l-29.6-17.1l0-34.4l29.8-17.2l29.6,17.1l0,34.4L498.5-5.8z M498.2,29.2l-29.8,17.2l-29.6-17.1l0-34.4l29.8-17.2l29.6,17.1
				L498.2,29.2z M438.3-5.8l-29.6-17.1l0-34.4l29.8-17.2l29.6,17.1l0,34.4L438.3-5.8z M438.8-75.1l0-34.4l29.8-17.2l29.6,17.1
				l0,34.4L468.4-58L438.8-75.1z M469-127.3l0-34.4l29.8-17.2l29.6,17.1l0,34.4l-29.8,17.2L469-127.3z M499.1-179.4l0-34.4
				l29.8-17.2l29.6,17.1l0,34.4l-29.8,17.2L499.1-179.4z M529.2-231.6l0-34.4l29.8-17.2l29.6,17.1l0,34.4l-29.8,17.2L529.2-231.6z
				 M589.1-231.1l29.6,17.1l0,34.4l-29.8,17.2l-29.6-17.1l0-34.4L589.1-231.1z M619.3-178.9l29.6,17.1l0,34.4l-29.8,17.2l-29.6-17.1
				l0-34.4L619.3-178.9z M619.6-213.9l29.8-17.2L679-214l0,34.4l-29.8,17.2l-29.6-17.1L619.6-213.9z M679.5-178.9l29.6,17.1l0,34.4
				l-29.8,17.2l-29.6-17.1l0-34.4L679.5-178.9z M709.7-126.7l29.6,17.1l0,34.4L709.5-58l-29.6-17.1l0-34.4L709.7-126.7z M710-161.7
				l29.8-17.2l29.6,17.1l0,34.4l-29.8,17.2L710-127.3L710-161.7z M769.9-126.7l29.6,17.1l0,34.4L769.7-58l-29.6-17.1l0-34.4
				L769.9-126.7z M800-74.5l29.6,17.1l0,34.4L799.8-5.8l-29.6-17.1l0-34.4L800-74.5z M800.4-109.5l29.8-17.2l29.6,17.1l0,34.4
				L830-58l-29.6-17.1L800.4-109.5z M860.3-74.6l29.6,17.1l0,34.4L860.1-5.8l-29.6-17.1l0-34.4L860.3-74.6z M890.4-22.4L920-5.3
				l0,34.4l-29.8,17.2l-29.6-17.1l0-34.4L890.4-22.4z M890.7-57.3l29.8-17.2l29.6,17.1l0,34.4L920.4-5.8l-29.6-17.1L890.7-57.3z
				 M1010.2-57.6l0,34.4L980.4-5.9L950.8-23l0-34.4l29.8-17.2L1010.2-57.6z M1010.8-22.5l29.6,17.1l0,34.4l-29.8,17.2l-29.6-17.1
				l0-34.4L1010.8-22.5z M1011.1-23l0-34.4l29.8-17.2l29.6,17.1l0,34.4l-29.8,17.2L1011.1-23z M1071-22.5l29.6,17.1l0,34.4
				l-29.8,17.2l-29.6-17.1l0-34.4L1071-22.5z M1101.1,29.7l29.6,17.1l0,34.4l-29.8,17.2l-29.6-17.1l0-34.4L1101.1,29.7z M1101.5-5.3
				l29.8-17.2l29.6,17.1l0,34.4l-29.8,17.2l-29.6-17.1L1101.5-5.3z M1161.4,29.7l29.6,17.1l0,34.4l-29.8,17.2l-29.6-17.1l0-34.4
				L1161.4,29.7z M1191.5,81.9l29.6,17.1l0,34.4l-29.8,17.2l-29.6-17.1l0-34.4L1191.5,81.9z M1191.8,46.9l29.8-17.2l29.6,17.1
				l0,34.4l-29.8,17.2l-29.6-17.1L1191.8,46.9z M1251.8,81.9l29.6,17.1l0,34.4l-29.8,17.2l-29.6-17.1l0-34.4L1251.8,81.9z
				 M1281.9,134.1l29.6,17.1l0,34.4l-29.8,17.2l-29.6-17.1l0-34.4L1281.9,134.1z M1282.2,99.1l29.8-17.2l29.6,17.1l0,34.4
				l-29.8,17.2l-29.6-17.1L1282.2,99.1z M1342.1,134.1l29.6,17.1l0,34.4l-29.8,17.2l-29.6-17.1l0-34.4L1342.1,134.1z M1341.9,307.2
				l-29.6-17.1l0-34.4l29.8-17.2l29.6,17.1l0,34.4L1341.9,307.2z M1311.8,359.4l-29.6-17.1l0-34.4l29.8-17.2l29.6,17.1l0,34.4
				L1311.8,359.4z M1281.7,411.6l-29.6-17.1l0-34.4l29.8-17.2l29.6,17.1l0,34.4L1281.7,411.6z M1251.5,463.8l-29.6-17.1l0-34.4
				l29.8-17.2l29.6,17.1l0,34.4L1251.5,463.8z M1191.6,464.5L1191.6,464.5l30-17.3l29.6,17.1l0,34.4l-29.8,17.2l-29.8-17.2
				L1191.6,464.5z M1161.7,412.2l29.8-17.2l29.6,17.1l0,34.4l-29.8,17.2l-29.6-17.1L1161.7,412.2z M1161.2,411.6l-29.6-17.1l0-34.4
				l29.8-17.2l29.6,17.1l0,34.4L1161.2,411.6z M1101.2,412.4L1101.2,412.4l30-17.3l29.6,17.1l0,34.4l-29.8,17.2l-29.8-17.2
				L1101.2,412.4z M1071.3,394.5l0-34.4l29.8-17.2l29.6,17.1l0,34.4l-29.8,17.2L1071.3,394.5z M1070.8,359.4l-29.6-17.1l0-34.4
				l29.8-17.2l29.6,17.1l0,34.4L1070.8,359.4z M1010.8,360.2L1010.8,360.2l30-17.3l29.6,17.1l0,34.4l-29.8,17.2l-29.8-17.2
				L1010.8,360.2z M980.9,307.9l29.8-17.2l29.6,17.1l0,34.4l-29.8,17.2l-29.6-17.1L980.9,307.9z M980.4,307.2l-29.6-17.1l0-34.4
				l29.8-17.2l29.6,17.1l0,34.4L980.4,307.2z M920.5,308L920.5,308l30-17.3l29.6,17.1l0,34.4l-29.8,17.2l-29.8-17.2L920.5,308z
				 M890.5,255.7l29.8-17.2l29.6,17.1l0,34.4l-29.8,17.2l-29.6-17.1L890.5,255.7z M890,255l-29.6-17.1l0-34.4l29.8-17.2l29.6,17.1
				l0,34.4L890,255z M800.1,237.9l0-34.4l29.8-17.2l29.6,17.1l0,34.4L829.7,255L800.1,237.9z M769.7,255.1L740.1,238l0-34.4
				l29.8-17.2l29.6,17.1l0,34.4L769.7,255.1z M679.8,203.6l29.8-17.2l29.6,17.1l0,34.4l-29.8,17.2L679.8,238L679.8,203.6z
				 M679.3,203l-29.6-17.1l0-34.4l29.8-17.2l29.6,17.1l0,34.4L679.3,203z M619.4,203.8L619.4,203.8l30-17.3l29.6,17.1l0,34.4
				l-29.8,17.2l-29.8-17.2L619.4,203.8z M589.4,185.9l0-34.4l29.8-17.2l29.6,17.1l0,34.4L619,203L589.4,185.9z M588.9,150.8
				l-29.6-17.1l0-34.4l29.8-17.2l29.6,17.1l0,34.4L588.9,150.8z M529,151.6L529,151.6l30-17.3l29.6,17.1l0,34.4L558.8,203L529,185.8
				L529,151.6z M499,99.3l29.8-17.2l29.6,17.1l0,34.4l-29.8,17.2L499,133.7L499,99.3z M498.5,98.6l-29.6-17.1l0-34.4l29.8-17.2
				L528.4,47l0,34.4L498.5,98.6z M438.6,99.4L438.6,99.4l30-17.3l29.6,17.1l0,34.4l-29.8,17.2l-29.8-17.2L438.6,99.4z M408.7,47.1
				l29.8-17.2L468.1,47l0,34.4l-29.8,17.2l-29.6-17.1L408.7,47.1z M408.2,46.4l-29.6-17.1l0-34.4l29.8-17.2L438-5.2l0,34.4
				L408.2,46.4z M348.2,81.4l0-34.2l0,0l30-17.3L407.8,47l0,34.4L378,98.6L348.2,81.4z M348.1-22.3l29.6,17.1l0,34.4l-29.8,17.2
				l-29.6-17.1l0-34.4L348.1-22.3z M378.2-74.5l29.6,17.1l0,34.4L378-5.8l-29.6-17.1l0-34.4L378.2-74.5z M408.4-126.7l29.6,17.1
				l0,34.4L408.2-58l-29.6-17.1l0-34.4L408.4-126.7z M438.5-178.9l29.6,17.1l0,34.4l-29.8,17.2l-29.6-17.1l0-34.4L438.5-178.9z
				 M468.6-231.1l29.6,17.1l0,34.4l-29.8,17.2l-29.6-17.1l0-34.4L468.6-231.1z M498.8-283.3l29.6,17.1l0,34.4l-29.8,17.2L469-231.6
				l0-34.4L498.8-283.3z M528.9-335.5l29.6,17.1l0,34.4l-29.8,17.2l-29.6-17.1l0-34.4L528.9-335.5z M588.8-370.5l0,34.2l0,0
				l-30,17.3L529.2-336l0-34.4l29.8-17.2L588.8-370.5z M618.8-284L589-266.7l-29.6-17.1l0-34.4l29.8-17.2l29.6,17.1L618.8-284z
				 M619.3-283.3l29.6,17.1l0,34.4l-29.8,17.2l-29.6-17.1l0-34.4L619.3-283.3z M679.2-284.1L679.2-284.1l-30,17.3l-29.6-17.1l0-34.4
				l29.8-17.2l29.8,17.2L679.2-284.1z M709.2-231.8l-29.8,17.2l-29.6-17.1l0-34.4l29.8-17.2l29.6,17.1L709.2-231.8z M709.7-231.1
				l29.6,17.1l0,34.4l-29.8,17.2l-29.6-17.1l0-34.4L709.7-231.1z M769.6-231.9L769.6-231.9l-30,17.3L710-231.7l0-34.4l29.8-17.2
				l29.8,17.2L769.6-231.9z M799.5-179.6l-29.8,17.2l-29.6-17.1l0-34.4l29.8-17.2l29.6,17.1L799.5-179.6z M800-178.9l29.6,17.1
				l0,34.4l-29.8,17.2l-29.6-17.1l0-34.4L800-178.9z M860-179.7L860-179.7l-30,17.3l-29.6-17.1l0-34.4l29.8-17.2l29.8,17.2
				L860-179.7z M889.9-127.4l-29.8,17.2l-29.6-17.1l0-34.4l29.8-17.2l29.6,17.1L889.9-127.4z M890.4-126.7l29.6,17.1l0,34.4
				L890.2-58l-29.6-17.1l0-34.4L890.4-126.7z M950.4-127.5L950.4-127.5l-30,17.3l-29.6-17.1l0-34.4l29.8-17.2l29.8,17.2L950.4-127.5
				z M980.3-109.7l0,34.4L950.5-58l-29.6-17.1l0-34.4l29.8-17.2L980.3-109.7z M1010.8-126.9l29.6,17.1l0,34.4l-29.8,17.2l-29.6-17.1
				l0-34.4L1010.8-126.9z M1070.7-161.8l0,34.2l0,0l-30,17.3l-29.6-17.1l0-34.4l29.8-17.2L1070.7-161.8z M1100.6-75.3l-29.8,17.2
				l-29.6-17.1l0-34.4l29.8-17.2l29.6,17.1L1100.6-75.3z M1101.1-74.7l29.6,17.1l0,34.4L1100.9-6L1071.3-23l0-34.4L1101.1-74.7z
				 M1161.1-75.5L1161.1-75.5l-30,17.3l-29.6-17.1l0-34.4l29.8-17.2l29.8,17.2L1161.1-75.5z M1191-23.2L1161.2-6L1131.6-23l0-34.4
				l29.8-17.2l29.6,17.1L1191-23.2z M1191.5-22.5l29.6,17.1l0,34.4l-29.8,17.2l-29.6-17.1l0-34.4L1191.5-22.5z M1251.5-23.3
				L1251.5-23.3l-30,17.3l-29.6-17.1l0-34.4l29.8-17.2l29.8,17.2L1251.5-23.3z M1281.4,29l-29.8,17.2L1222,29.1l0-34.4l29.8-17.2
				l29.6,17.1V29z M1281.9,29.7l29.6,17.1l0,34.4l-29.8,17.2l-29.6-17.1l0-34.4L1281.9,29.7z M1341.8,28.9L1341.8,28.9l-30,17.3
				l-29.6-17.1V-5.3l29.8-17.2l29.8,17.2L1341.8,28.9z M1371.8,81.2L1342,98.4l-29.6-17.1l0-34.4l29.8-17.2l29.6,17.1L1371.8,81.2z
				 M1372.3,81.9l29.6,17.1l0,34.4l-29.8,17.2l-31.6-17.1l2-34.4L1372.3,81.9z M1432.2,81.1L1432.2,81.1l-30,17.3l-29.6-17.1l0-34.4
				l29.8-17.2l29.8,17.2V81.1z M1462.2,133.4l-29.8,17.2l-29.6-17.1l0-34.4l29.8-17.2l29.6,17.1L1462.2,133.4z"/>
			<polygon class="st12" points="528.7,46.4 499.1,29.3 499.1,-5.1 528.9,-22.3 558.5,-5.2 558.5,29.2 			"/>
			<g class="st13">
				<polygon class="st14" points="588.9,46.4 559.3,29.3 559.3,-5.1 589.1,-22.3 618.7,-5.2 618.7,29.2 				"/>
			</g>
			<polygon class="st15" points="619.3,-74.5 648.9,-57.4 648.9,-23 619.1,-5.8 589.4,-22.9 589.4,-57.3 			"/>
			<g class="st16">
				<polygon class="st17" points="588.6,81.4 558.8,98.6 529.2,81.5 529.2,47.1 559,29.9 588.6,47 				"/>
			</g>
			<polygon class="st9" points="559,-74.5 588.6,-57.4 588.6,-23 558.8,-5.8 529.2,-22.9 529.2,-57.3 			"/>
			<g class="st18">
				<polygon class="st14" points="679.3,98.6 649.7,81.5 649.7,47.1 679.5,29.8 709.1,46.9 709.1,81.4 				"/>
			</g>
			<polygon class="st19" points="679,133.6 649.2,150.8 619.6,133.7 619.6,99.3 649.4,82 679,99.1 			"/>
			<polygon class="st20" points="498.2,29.2 468.4,46.4 438.8,29.3 438.8,-5.1 468.6,-22.3 498.2,-5.2 			"/>
			<polygon class="st0" points="739.8,29.8 769.4,46.9 769.4,81.4 739.6,98.6 710,81.5 710,47.1 			"/>
			<polygon class="st21" points="709.6,-22.3 739.2,-5.3 739.2,29.2 709.4,46.4 679.8,29.3 679.8,-5.1 			"/>
			<polygon class="st9" points="438.3,-5.8 408.7,-22.9 408.7,-57.3 438.5,-74.5 468.1,-57.4 468.1,-23 			"/>
			<polygon class="st9" points="619.1,98.6 589.4,81.5 589.4,47.1 619.3,29.9 648.9,47 648.9,81.4 			"/>
			<polygon class="st22" points="498.5,98.6 468.9,81.5 468.9,47.1 498.7,29.9 528.4,47 528.4,81.4 			"/>
			<polygon class="st9" points="649.4,-22.3 679,-5.2 679,29.2 649.2,46.4 619.6,29.3 619.6,-5.1 			"/>
			<polygon class="st9" points="348.2,81.4 348.2,47.2 348.3,47.2 378.2,29.9 407.8,47 407.8,81.4 378,98.6 			"/>
			<polygon class="st9" points="438.6,99.4 438.6,99.4 468.6,82.1 498.2,99.2 498.2,133.6 468.4,150.8 438.6,133.6 			"/>
			<polygon class="st3" points="499,99.3 528.9,82.1 558.5,99.1 558.5,133.6 528.7,150.8 499,133.7 			"/>
			<polygon class="st3" points="589.9,150.8 560.3,133.7 560.3,99.3 590.1,82.1 619.7,99.1 619.7,133.6 			"/>
			<polygon class="st9" points="408.2,46.4 378.6,29.3 378.6,-5.1 408.4,-22.3 438,-5.2 438,29.2 			"/>
			<polygon class="st23" points="709.4,150.8 679.8,133.7 679.8,99.3 709.6,82 739.2,99.1 739.2,133.6 			"/>
			<polygon class="st24" points="769.7,150.8 740.1,133.7 740.1,99.2 769.9,82 799.5,99.1 799.5,133.5 			"/>
			<polygon class="st25" points="800,29.8 829.6,46.9 829.6,81.4 799.8,98.6 770.2,81.5 770.2,47 			"/>
			<polygon class="st26" points="769.9,-22.3 799.5,-5.3 799.5,29.2 769.7,46.4 740.1,29.3 740.1,-5.1 			"/>
			<polygon class="st27" points="800.3,133.7 800.3,99.2 830.2,82 859.8,99.1 859.8,133.5 830,150.8 			"/>
			<polygon class="st5" points="860.3,29.8 889.9,46.9 889.9,81.4 860.1,98.6 830.5,81.5 830.5,47 			"/>
			<polygon class="st28" points="800.3,-5.1 830.2,-22.4 859.8,-5.3 859.8,29.2 830,46.4 800.3,29.3 			"/>
			<polygon class="st9" points="800,-74.5 829.7,-57.4 829.7,-23 799.8,-5.8 770.2,-22.9 770.2,-57.3 			"/>
			<g class="st29">
				<polygon class="st30" points="408.7,47.1 438.5,29.9 468.1,47 468.1,81.4 438.3,98.6 408.7,81.5 				"/>
			</g>
			<polygon class="st12" points="890.4,-22.4 920,-5.3 920,29.2 890.2,46.4 860.6,29.3 860.6,-5.1 			"/>
			<polygon class="st31" points="529,151.6 529,151.5 559,134.2 588.6,151.3 588.6,185.8 558.8,203 529,185.8 			"/>
			<polygon class="st26" points="920.2,98.4 890.5,81.4 890.5,46.9 920.4,29.7 950,46.8 950,81.2 			"/>
			<polygon class="st9" points="980.1,-5.4 980.1,29 950.3,46.3 920.7,29.2 920.7,-5.3 950.5,-22.5 			"/>
			<polygon class="st9" points="379.4,-5.4 379.4,29 349.6,46.3 320,29.2 320,-5.3 349.8,-22.5 			"/>
			<polygon class="st9" points="920.7,99.1 950.5,81.9 980.1,99 980.1,133.4 950.3,150.6 920.7,133.5 			"/>
			<polygon class="st32" points="679.5,-74.5 709.1,-57.4 709.1,-23 679.3,-5.8 649.7,-22.9 649.7,-57.3 			"/>
			<polygon class="st33" points="860.3,-74.6 889.9,-57.5 889.9,-23 860.1,-5.8 830.5,-22.9 830.5,-57.3 			"/>
			<polygon class="st26" points="890.7,-57.3 920.6,-74.6 950.2,-57.5 950.2,-23 920.4,-5.8 890.7,-22.9 			"/>
			<polygon class="st32" points="378.2,-74.5 407.8,-57.4 407.8,-23 378,-5.8 348.4,-22.9 348.4,-57.3 			"/>
			<polygon class="st32" points="498.5,-5.8 468.9,-22.9 468.9,-57.3 498.7,-74.5 528.4,-57.4 528.4,-23 			"/>
			<polygon class="st20" points="710,-22.9 710,-57.3 739.8,-74.5 769.4,-57.4 769.4,-23 739.6,-5.8 			"/>
			<polygon class="st33" points="1010.2,-57.6 1010.2,-23.1 980.4,-5.9 950.8,-23 950.8,-57.5 980.6,-74.7 			"/>
			<polygon class="st34" points="348.1,-22.3 377.7,-5.2 377.7,29.2 347.9,46.4 318.3,29.3 318.3,-5.1 			"/>
			<polygon class="st25" points="289.4,-22.3 319,-5.2 319,29.2 289.2,46.4 259.6,29.3 259.6,-5.1 			"/>
			<polygon class="st35" points="289.4,172 319,189.1 319,223.5 289.2,240.8 259.6,223.7 259.6,189.2 			"/>
			<polygon class="st25" points="319.5,98.6 349.1,115.7 349.1,150.1 319.3,167.3 289.7,150.2 289.7,115.8 			"/>
			<polygon class="st34" points="980.6,29.7 1010.2,46.8 1010.2,81.2 980.4,98.4 950.8,81.4 950.8,46.9 			"/>
			<polygon class="st26" points="1071,-22.5 1100.6,-5.4 1100.6,29 1070.8,46.2 1041.2,29.1 1041.2,-5.3 			"/>
			<polygon class="st15" points="1010.8,-22.5 1040.4,-5.4 1040.4,29 1010.6,46.3 980.9,29.2 980.9,-5.3 			"/>
			<polygon class="st26" points="1011.1,-23 1011.1,-57.5 1040.9,-74.7 1070.5,-57.6 1070.5,-23.1 1040.7,-5.9 			"/>
			<polygon class="st33" points="1101.1,-74.7 1130.7,-57.6 1130.7,-23.2 1100.9,-6 1071.3,-23 1071.3,-57.5 			"/>
			<polygon class="st33" points="1101.5,-5.3 1131.3,-22.5 1160.9,-5.4 1160.9,29 1131.1,46.2 1101.5,29.1 			"/>
			<polygon class="st25" points="1191.5,-22.5 1221.1,-5.4 1221.1,29 1191.3,46.2 1161.7,29.1 1161.7,-5.3 			"/>
			<polygon class="st33" points="1191,-23.2 1161.2,-6 1131.6,-23 1131.6,-57.5 1161.4,-74.7 1191,-57.6 			"/>
			<polygon class="st9" points="1191.5,-22.5 1221.1,-5.4 1221.1,29 1191.3,46.2 1161.7,29.1 1161.7,-5.3 			"/>
			<polygon class="st26" points="1251.5,-23.3 1251.4,-23.3 1221.4,-6 1191.8,-23.1 1191.8,-57.5 1221.7,-74.7 1251.5,-57.5 			"/>
			<polygon class="st1" points="1161.4,29.7 1191,46.8 1191,81.2 1161.2,98.4 1131.6,81.3 1131.6,46.9 			"/>
			<polygon class="st26" points="1071,81.9 1100.6,99 1100.6,133.4 1070.8,150.6 1041.2,133.5 1041.2,99.1 			"/>
			<polygon class="st36" points="1161.4,134.1 1191,151.2 1191,185.6 1161.2,202.8 1131.6,185.7 1131.6,151.3 			"/>
			<polygon class="st9" points="1101.1,29.7 1130.7,46.8 1130.7,81.2 1100.9,98.4 1071.3,81.3 1071.3,46.9 			"/>
			<polygon class="st5" points="950.5,12.6 980.1,29.7 980.1,64.2 950.3,81.4 920.7,64.3 920.7,29.8 			"/>
			<polygon class="st9" points="1191.8,46.9 1221.7,29.7 1251.3,46.8 1251.3,81.2 1221.4,98.4 1191.8,81.3 			"/>
			<polygon class="st5" points="1281.4,29 1251.6,46.2 1222,29.1 1222,-5.3 1251.8,-22.5 1281.4,-5.4 			"/>
			<polygon class="st33" points="1281.9,29.7 1311.5,46.8 1311.5,81.2 1281.7,98.4 1252.1,81.3 1252.1,46.9 			"/>
			<polygon class="st37" points="980.1,237.8 950.3,255 920.7,237.9 920.7,203.5 950.5,186.3 980.1,203.4 			"/>
			<polygon class="st26" points="1040.9,134.1 1070.5,151.2 1070.5,185.6 1040.7,202.8 1011.1,185.7 1011.1,151.3 			"/>
			<polygon class="st23" points="769.4,185.7 739.6,202.9 709.9,185.9 709.9,151.4 739.8,134.2 769.4,151.3 			"/>
			<polygon class="st38" points="800.1,237.9 800.1,203.5 830,186.3 859.6,203.4 859.6,237.8 829.7,255 			"/>
			<polygon class="st1" points="619.4,203.8 619.4,203.7 649.4,186.4 679,203.5 679,237.9 649.2,255.2 619.4,237.9 			"/>
			<polygon class="st1" points="980.4,307.2 950.8,290.1 950.8,255.7 980.6,238.5 1010.2,255.6 1010.2,290 			"/>
			<polygon class="st38" points="1281.4,342.2 1251.5,359.4 1221.9,342.3 1221.9,307.8 1251.7,290.6 1281.4,307.7 			"/>
			<polygon class="st39" points="1070.8,359.4 1041.2,342.3 1041.2,307.9 1071,290.7 1100.6,307.8 1100.6,342.2 			"/>
			<polygon class="st40" points="1100.9,307.2 1071.3,290.1 1071.3,255.7 1101.1,238.5 1130.7,255.6 1130.7,290 			"/>
			<polygon class="st41" points="920.5,308 920.5,308 950.5,290.7 980.1,307.8 980.1,342.2 950.3,359.4 920.5,342.2 			"/>
			<polygon class="st9" points="1281.9,134.1 1311.5,151.2 1311.5,185.6 1281.7,202.8 1252.1,185.7 1252.1,151.3 			"/>
			<polygon class="st42" points="1161.2,307.2 1131.5,290.1 1131.5,255.7 1161.4,238.5 1191,255.5 1191,290 			"/>
			<path class="st25" d="M1492.9,115.9L1463,98.7l0-34.8l-30.5-17.6l-30.2,17.4l-29.8-17.2l0-34.8l-30.5-17.6L1312,11.5l-29.8-17.2
				l0-34.8l-30.5-17.6l-30.2,17.4l-29.8-17.2l0-34.8l-30.5-17.6l-30.2,17.4l-29.8-17.2l0-34.8l-30.5-17.6l-30.5,17.6l0,34.8
				l-29.8,17.2L981.1-110l0-34.8l-30.5-17.6L920.5-145l-29.8-17.2l0-34.8l-30.5-17.6l-30.2,17.4l-29.8-17.2l0-34.8l-30.5-17.6
				l-30.2,17.4L710-266.5l0-34.8l-30.5-17.6l-30.2,17.4l-29.8-17.2l0-34.8l-30.5-17.6l-30.5,17.6l0,34.8l-30.1,17.4l0,34.8
				l-30.1,17.4l0,34.8l-30.1,17.4l0,34.8l-30.1,17.4l0,34.8L408-92.5v34.8l-30.1,17.4l0,34.8l-30.1,17.4l0,35.2l29.9,17.3l0,34.8
				l30.5,17.6l30.2-17.4l29.8,17.2v34.8l30.5,17.6l30.2-17.4l29.8,17.2l0,34.8l30.5,17.6l30.2-17.4l29.8,17.2l0,34.8l30.5,17.6
				l30.2-17.4l29.8,17.2l60.9,0l29.8-17.2l29.6,17.1l60.6,35l29.8,17.2l0,34.8l30.5,17.6l30.2-17.4l29.8,17.2v34.8l30.5,17.6
				l30.2-17.4l29.8,17.2v34.8l30.5,17.6l30.2-17.4l29.8,17.2v34.8l30.5,17.6l30.5-17.6l0-0.2l0-34.6l30.1-17.4l0-0.2l0-34.6
				l30.1-17.4l0-0.2l0-34.6l30.1-17.4l0-0.2l0-34.6l30.1-17.4l0-0.2l0-34.6l30.1-17.4l0-0.2l0-34.6l30.1-17.4l0-0.2l0-34.6
				l30.1-17.4l0-0.2L1492.9,115.9z M1432.3,220.1l-29.6-17.1l0-34.4l29.8-17.2l29.6,17.1l0,34.4L1432.3,220.1z M1402.2,272.3
				l-29.6-17.1l0-34.4l29.8-17.2l29.6,17.1l0,34.4L1402.2,272.3z M1341.6,307.3l-29.8,17.2l-29.6-17.1l0-34.4l29.8-17.2l29.6,17.1
				L1341.6,307.3z M1312.3,255.2l0-34.4l29.8-17.2l29.6,17.1l0,34.4l-29.8,17.2L1312.3,255.2z M558.8-40.6l-29.6-17.1l0-34.4
				l29.8-17.2l29.6,17.1l0,34.4L558.8-40.6z M589.1-57.2l29.6,17.1l0,34.4l-29.8,17.2L559.3-5.5l0-34.4L589.1-57.2z M559.3-144.3
				l29.8-17.2l29.6,17.1l0,34.4l-29.8,17.2l-29.6-17.1L559.3-144.3z M619.3-109.4l29.6,17.1l0,34.4l-29.8,17.2l-29.6-17.1l0-34.4
				L619.3-109.4z M649.4-57.2L679-40.1l0,34.4l-29.8,17.2L619.6-5.5l0-34.4L649.4-57.2z M679.5-5l29.6,17.1l0,34.4l-29.8,17.2
				l-29.6-17.1l0-34.4L679.5-5z M649.7-92.2l29.8-17.2l29.6,17.1l0,34.4l-29.8,17.2l-29.6-17.1L649.7-92.2z M709.6-57.2l29.6,17.1
				l0,34.4l-29.8,17.2L679.8-5.5l0-34.4L709.6-57.2z M739.8-5l29.6,17.1l0,34.4l-29.8,17.2l-29.6-17.1l0-34.4L739.8-5z M769.9,47.2
				l29.6,17.1l0,34.4l-29.8,17.2l-29.6-17.1l0-34.4L769.9,47.2z M740.1-5.6l0-34.4l29.8-17.2l29.6,17.1l0,34.4l-29.8,17.2L740.1-5.6
				z M800-5l29.6,17.1l0,34.4l-29.8,17.2l-29.6-17.1l0-34.4L800-5z M830.1,47.2l29.6,17.1l0,34.4l-29.8,17.2l-29.6-17.1l0-34.4
				L830.1,47.2z M950.3,115.8l-29.6-17.1l0-34.4l29.8-17.2l29.6,17.1l0,34.4L950.3,115.8z M950.8,116.5l29.8-17.2l29.6,17.1l0,34.4
				L980.4,168l-29.6-17.1L950.8,116.5z M830.5,151l0-34.4l29.8-17.2l29.6,17.1l0,34.4l-29.8,17.2L830.5,151z M830.5,12.2L860.3-5
				l29.6,17.1l0,34.4l-29.8,17.2l-29.6-17.1L830.5,12.2z M890.4,47.2L920,64.3l0,34.4l-29.8,17.2l-29.6-17.1l0-34.4L890.4,47.2z
				 M1010.2,12l0,34.4l-29.8,17.2l-29.6-17.1l0-34.4l29.8-17.2L1010.2,12z M1010.7,47.1l29.6,17.1l0,34.4l-29.8,17.2l-29.6-17.1
				l0-34.4L1010.7,47.1z M1040.9,99.2l29.6,17.1l0,34.4l-29.8,17.2l-29.6-17.1l0-34.4L1040.9,99.2z M1071,151.4l29.6,17.1l0,34.4
				l-29.8,17.2l-29.6-17.1l0-34.4L1071,151.4z M1041.2,64.3l29.8-17.2l29.6,17.1l0,34.4l-29.8,17.2l-29.6-17.1L1041.2,64.3z
				 M1101.1,99.2l29.6,17.1l0,34.4l-29.8,17.2l-29.6-17.1l0-34.4L1101.1,99.2z M1131.2,151.4l29.6,17.1l0,34.4l-29.8,17.2
				l-29.6-17.1l0-34.4L1131.2,151.4z M1161.4,203.6l29.6,17.1l0,34.4l-29.8,17.2l-29.6-17.1l0-34.4L1161.4,203.6z M1131.6,116.4
				l29.8-17.2l29.6,17.1l0,34.4l-29.8,17.2l-29.6-17.1L1131.6,116.4z M1191.5,151.4l29.6,17.1l0,34.4l-29.8,17.2l-29.6-17.1l0-34.4
				L1191.5,151.4z M1221.6,203.6l29.6,17.1l0,34.4l-29.8,17.2l-29.6-17.1v-34.4L1221.6,203.6z M1251.7,255.8l29.6,17.1l0,34.4
				l-29.8,17.2l-29.6-17.1l0-34.4L1251.7,255.8z M1221.9,203.1v-34.4l29.8-17.2l29.6,17.1l0,34.4l-29.8,17.2L1221.9,203.1z
				 M1281.9,203.6l29.6,17.1l0,34.4l-29.8,17.2l-29.6-17.1l0-34.4L1281.9,203.6z M1311.5,359.5l-29.8,17.2l-29.6-17.1l0-34.4
				l29.8-17.2l29.6,17.1L1311.5,359.5z M1281.3,411.7l-29.8,17.2l-29.6-17.1l0-34.4l29.8-17.2l29.6,17.1L1281.3,411.7z
				 M1221.4,376.7l-29.6-17.1l0-34.4l29.8-17.2l29.6,17.1l0,34.4L1221.4,376.7z M1191.3,324.5l-29.6-17.1V273l29.8-17.2l29.6,17.1
				l0,34.4L1191.3,324.5z M1191,359.5l-29.8,17.2l-29.6-17.1l0-34.4l29.8-17.2l29.6,17.1L1191,359.5z M1131,324.5l-29.6-17.1l0-34.4
				l29.8-17.2l29.6,17.1l0,34.4L1131,324.5z M1100.9,272.4l-29.6-17.1l0-34.4l29.8-17.2l29.6,17.1l0,34.4L1100.9,272.4z
				 M1100.6,307.3l-29.8,17.2l-29.6-17.1l0-34.4l29.8-17.2l29.6,17.1L1100.6,307.3z M1040.7,272.4l-29.6-17.1l0-34.4l29.8-17.2
				l29.6,17.1l0,34.4L1040.7,272.4z M1010.5,220.2l-29.6-17.1l0-34.4l29.8-17.2l29.6,17.1l0,34.4L1010.5,220.2z M1010.2,255.2
				l-29.8,17.2l-29.6-17.1l0-34.4l29.8-17.2l29.6,17.1L1010.2,255.2z M950.3,220.2l-29.6-17.1l0-34.4l29.8-17.2l29.6,17.1l0,34.4
				L950.3,220.2z M920.1,168l-29.6-17.1l0-32.6v-1.8l29.8-17.2l29.6,17.1l0,34.4L920.1,168z M919.8,168.5l0,34.4L890,220.2
				l-29.6-17.1l0-34.4l29.8-17.2L919.8,168.5z M800.3,203.2l0-34.4l29.8-17.2l29.6,17.1l0,34.4l-29.8,17.2L800.3,203.2z
				 M799.8,168.1L770.2,151l0-34.4L800,99.4l29.6,17.1l0,34.4L799.8,168.1z M799.5,203.1l-29.8,17.2l-29.6-17.1l0-34.4l29.8-17.2
				l29.6,17.1L799.5,203.1z M739.6,168.1L709.9,151l0-34.4l29.8-17.2l29.6,17.1l0,34.4L739.6,168.1z M709.4,115.9l-29.6-17.1l0-34.4
				l29.8-17.2l29.6,17.1l0,34.4L709.4,115.9z M709.1,150.9l-29.8,17.2L649.7,151l0-34.4l29.8-17.2l29.6,17.1L709.1,150.9z
				 M649.2,115.9l-29.6-17.1l0-34.4l29.8-17.2L679,64.3l0,34.4L649.2,115.9z M619,63.7l-29.6-17.1l0-34.4L619.2-5l29.6,17.1l0,34.4
				L619,63.7z M618.7,98.7l-29.8,17.2l-29.6-17.1l0-34.4l29.8-17.2l29.6,17.1L618.7,98.7z M558.8,63.8l-29.6-17.1l0-34.4L559-5
				l29.6,17.1l0,34.4L558.8,63.8z M528.7,11.6L499.1-5.5l0-34.4l29.8-17.2l29.6,17.1l0,34.4L528.7,11.6z M528.3,46.5l-29.8,17.2
				l-29.6-17.1l0-34.4L498.7-5l29.6,17.1L528.3,46.5z M468.4,11.6L438.8-5.5l0-34.4l29.8-17.2l29.6,17.1l0,34.4L468.4,11.6z
				 M468.9-57.7l0-34.4l29.8-17.2l29.6,17.1l0,34.4l-29.8,17.2L468.9-57.7z M499.1-109.9l0-34.4l29.8-17.2l29.6,17.1l0,34.4
				l-29.8,17.2L499.1-109.9z M529.2-162.1l0-34.4l29.8-17.2l29.6,17.1l0,34.4L558.8-145L529.2-162.1z M559.3-214.3l0-34.4l29.8-17.2
				l29.6,17.1l0,34.4L589-197.2L559.3-214.3z M619.3-213.8l29.6,17.1l0,34.4L619.1-145l-29.6-17.1l0-34.4L619.3-213.8z M649.4-161.6
				l29.6,17.1l0,34.4l-29.8,17.2l-29.6-17.1l0-34.4L649.4-161.6z M649.7-196.5l29.8-17.2l29.6,17.1l0,34.4L679.3-145l-29.6-17.1
				L649.7-196.5z M709.6-161.6l29.6,17.1l0,34.4l-29.8,17.2l-29.6-17.1l0-34.4L709.6-161.6z M739.8-109.4l29.6,17.1l0,34.4
				l-29.8,17.2L710-57.7l0-34.4L739.8-109.4z M740.1-144.4l29.8-17.2l29.6,17.1l0,34.4l-29.8,17.2l-29.6-17.1L740.1-144.4z
				 M800-109.4l29.6,17.1l0,34.4l-29.8,17.2l-29.6-17.1l0-34.4L800-109.4z M830.2-57.2l29.6,17.1l0,34.4L830,11.5L800.4-5.6l0-34.4
				L830.2-57.2z M830.5-92.2l29.8-17.2l29.6,17.1l0,34.4l-29.8,17.2l-29.6-17.1L830.5-92.2z M890.4-57.2L920-40.1l0,34.4l-29.8,17.2
				L860.6-5.6l0-34.4L890.4-57.2z M920.5-5l29.6,17.1v34.4l-29.8,17.2l-29.6-17.1l0-34.4L920.5-5z M920.9-40l29.8-17.2l29.6,17.1
				l0,34.4l-29.8,17.2L920.9-5.6L920.9-40z M1040.4-40.2l0,34.4l-29.8,17.2L980.9-5.7l0-34.4l29.8-17.2L1040.4-40.2z M1040.9-5.1
				l29.6,17.1l0,34.4l-29.8,17.2l-29.6-17.1l0-34.4L1040.9-5.1z M1041.2-5.7l0-34.4l29.8-17.2l29.6,17.1l0,34.4l-29.8,17.2
				L1041.2-5.7z M1101.1-5.1l29.6,17.1l0,34.4l-29.8,17.2l-29.6-17.1l0-34.4L1101.1-5.1z M1131.3,47.1l29.6,17.1l0,34.4l-29.8,17.2
				l-29.6-17.1l0-34.4L1131.3,47.1z M1131.6,12.1l29.8-17.2L1191,12l0,34.4l-29.8,17.2l-29.6-17.1L1131.6,12.1z M1191.5,47
				l29.6,17.1l0,34.4l-29.8,17.2l-29.6-17.1l0-34.4L1191.5,47z M1221.6,99.2l29.6,17.1v34.4l-29.8,17.2l-29.6-17.1l0-34.4
				L1221.6,99.2z M1222,64.3l29.8-17.2l29.6,17.1l0,34.4l-29.8,17.2L1222,98.7L1222,64.3z M1281.9,99.2l29.6,17.1l0,34.4l-29.8,17.2
				l-29.6-17.1l0-34.4L1281.9,99.2z M1312,151.4l29.6,17.1l0,34.4l-29.8,17.2l-29.6-17.1l0-34.4L1312,151.4z M1312.3,116.4
				l29.8-17.2l29.6,17.1l0,34.4l-29.8,17.2l-29.6-17.1L1312.3,116.4z M1372.3,151.4l29.6,17.1l0,34.4l-29.8,17.2l-29.6-17.1l0-34.4
				L1372.3,151.4z M1372.1,324.5l-29.6-17.1l0-34.4l29.8-17.2l29.6,17.1l0,34.4L1372.1,324.5z M1341.9,376.7l-29.6-17.1l0-34.4
				l29.8-17.2l29.6,17.1l0,34.4L1341.9,376.7z M1311.8,428.9l-29.6-17.1l0-34.4l29.8-17.2l29.6,17.1l0,34.4L1311.8,428.9z
				 M1281.7,481.1l-29.6-17.1l0-34.4l29.8-17.2l29.6,17.1l0,34.4L1281.7,481.1z M1221.7,481.9L1221.7,481.9l30-17.3l29.6,17.1
				l0,34.4l-29.8,17.2l-29.8-17.2L1221.7,481.9z M1191.8,429.6l29.8-17.2l29.6,17.1l0,34.4l-29.8,17.2l-29.6-17.1L1191.8,429.6z
				 M1191.3,428.9l-29.6-17.1l0-34.4l29.8-17.2l29.6,17.1l0,34.4L1191.3,428.9z M1131.3,429.7L1131.3,429.7l30-17.3l29.6,17.1
				l0,34.4l-29.8,17.2l-29.8-17.2L1131.3,429.7z M1101.4,411.8l0-34.4l29.8-17.2l29.6,17.1l0,34.4l-29.8,17.2L1101.4,411.8z
				 M1100.9,376.7l-29.6-17.1l0-34.4l29.8-17.2l29.6,17.1l0,34.4L1100.9,376.7z M1041,377.5L1041,377.5l30-17.3l29.6,17.1l0,34.4
				l-29.8,17.2l-29.8-17.2L1041,377.5z M1011,325.2l29.8-17.2l29.6,17.1l0,34.4l-29.8,17.2l-29.6-17.1L1011,325.2z M1010.5,324.6
				l-29.6-17.1l0-34.4l29.8-17.2l29.6,17.1l0,34.4L1010.5,324.6z M950.6,325.3L950.6,325.3l30-17.3l29.6,17.1l0,34.4l-29.8,17.2
				l-29.8-17.2L950.6,325.3z M920.6,273l29.8-17.2l29.6,17.1l0,34.4l-29.8,17.2l-29.6-17.1L920.6,273z M920.1,272.4l-29.6-17.1
				l0-34.4l29.8-17.2l29.6,17.1l0,34.4L920.1,272.4z M830.3,255.3l0-34.4l29.8-17.2l29.6,17.1l0,34.4l-29.8,17.2L830.3,255.3z
				 M799.8,272.5l-29.6-17.1l0-34.4l29.8-17.2l29.6,17.1l0,34.4L799.8,272.5z M709.9,221l29.8-17.2l29.6,17.1l0,34.4l-29.8,17.2
				l-29.6-17.1L709.9,221z M709.4,220.3l-29.6-17.1l0-34.4l29.8-17.2l29.6,17.1l0,34.4L709.4,220.3z M649.5,221.1L649.5,221.1
				l30-17.3l29.6,17.1l0,34.4l-29.8,17.2l-29.8-17.2L649.5,221.1z M619.5,203.2l0-34.4l29.8-17.2l29.6,17.1l0,34.4l-29.8,17.2
				L619.5,203.2z M619,168.1L589.4,151l0-34.4l29.8-17.2l29.6,17.1l0,34.4L619,168.1z M559.1,168.9L559.1,168.9l30-17.3l29.6,17.1
				l0,34.4l-29.8,17.2l-29.8-17.2L559.1,168.9z M529.2,116.6L559,99.4l29.6,17.1l0,34.4l-29.8,17.2L529.2,151L529.2,116.6z
				 M528.7,115.9l-29.6-17.1l0-34.4l29.8-17.2l29.6,17.1l0,34.4L528.7,115.9z M468.7,116.7L468.7,116.7l30-17.3l29.6,17.1l0,34.4
				l-29.8,17.2l-29.8-17.2L468.7,116.7z M438.8,64.4l29.8-17.2l29.6,17.1l0,34.4l-29.8,17.2l-29.6-17.1L438.8,64.4z M438.3,63.8
				l-29.6-17.1l0-34.4L438.5-5l29.6,17.1l0,34.4L438.3,63.8z M378.3,98.7l0-34.2l0,0l30-17.3L438,64.3l0,34.4L408.1,116L378.3,98.7z
				 M378.2-5l29.6,17.1l0,34.4L378,63.8l-29.6-17.1l0-34.4L378.2-5z M408.4-57.2L438-40.1l0,34.4l-29.8,17.2L378.5-5.5l0-34.4
				L408.4-57.2z M438.5-109.4l29.6,17.1l0,34.4l-29.8,17.2l-29.6-17.1l0-34.4L438.5-109.4z M468.6-161.5l29.6,17.1l0,34.4
				l-29.8,17.2l-29.6-17.1l0-34.4L468.6-161.5z M498.8-213.7l29.6,17.1l0,34.4L498.6-145l-29.6-17.1l0-34.4L498.8-213.7z
				 M528.9-265.9l29.6,17.1l0,34.4l-29.8,17.2l-29.6-17.1l0-34.4L528.9-265.9z M559-318.1l29.6,17.1l0,34.4l-29.8,17.2l-29.6-17.1
				l0-34.4L559-318.1z M619-353.1l0,34.2l0,0l-30,17.3l-29.6-17.1l0-34.4l29.8-17.2L619-353.1z M648.9-266.6l-29.8,17.2l-29.6-17.1
				l0-34.4l29.8-17.2l29.6,17.1L648.9-266.6z M649.4-265.9l29.6,17.1l0,34.4l-29.8,17.2l-29.6-17.1l0-34.4L649.4-265.9z
				 M709.3-266.7L709.3-266.7l-30,17.3l-29.6-17.1l0-34.4l29.8-17.2l29.8,17.2L709.3-266.7z M739.3-214.4l-29.8,17.2l-29.6-17.1
				l0-34.4l29.8-17.2l29.6,17.1L739.3-214.4z M739.8-213.8l29.6,17.1l0,34.4L739.6-145L710-162.1l0-34.4L739.8-213.8z M799.7-214.6
				L799.7-214.6l-30,17.3l-29.6-17.1l0-34.4l29.8-17.2l29.8,17.2L799.7-214.6z M829.7-162.2L799.8-145l-29.6-17.1l0-34.4l29.8-17.2
				l29.6,17.1V-162.2z M830.2-161.6l29.6,17.1l0,34.4L830-92.9l-29.6-17.1l0-34.4L830.2-161.6z M890.1-162.4L890.1-162.4l-30,17.3
				l-29.6-17.1l0-34.4l29.8-17.2l29.8,17.2L890.1-162.4z M920-110.1l-29.8,17.2l-29.6-17.1l0-34.4l29.8-17.2l29.6,17.1L920-110.1z
				 M920.5-109.4l29.6,17.1l0,34.4l-29.8,17.2l-29.6-17.1l0-34.4L920.5-109.4z M980.5-110.2L980.5-110.2l-30,17.3L920.9-110l0-34.4
				l29.8-17.2l29.8,17.2L980.5-110.2z M1010.4-92.3l0,34.4l-29.8,17.2L951-57.8l0-34.4l29.8-17.2L1010.4-92.3z M1040.9-109.5
				l29.6,17.1l0,34.4l-29.8,17.2l-29.6-17.1l0-34.4L1040.9-109.5z M1100.8-144.5l0,34.2l0,0l-30,17.3l-29.6-17.1v-34.4l29.8-17.2
				L1100.8-144.5z M1130.8-58l-29.8,17.2l-29.6-17.1l0-34.4l29.8-17.2l29.6,17.1L1130.8-58z M1131.3-57.3l29.6,17.1l0,34.4
				l-29.8,17.2l-29.6-17.1l0-34.4L1131.3-57.3z M1191.2-58.1L1191.2-58.1l-30,17.3l-29.6-17.1l0-34.4l29.8-17.2l29.8,17.2
				L1191.2-58.1z M1221.1-5.8l-29.8,17.2l-29.6-17.1l0-34.4l29.8-17.2l29.6,17.1L1221.1-5.8z M1221.6-5.2l29.6,17.1l0,34.4
				l-29.8,17.2l-29.6-17.1l0-34.4L1221.6-5.2z M1281.6-5.9L1281.6-5.9l-30,17.3L1222-5.7l0-34.4l29.8-17.2l29.8,17.2L1281.6-5.9z
				 M1311.5,46.4l-29.8,17.2l-29.6-17.1l0-34.4l29.8-17.2l29.6,17.1V46.4z M1312,47l29.6,17.1l0,34.4l-29.8,17.2l-29.6-17.1l0-34.4
				L1312,47z M1372,46.2L1372,46.2l-30,17.3l-29.6-17.1V12l29.8-17.2L1372,12L1372,46.2z M1401.9,98.5l-29.8,17.2l-29.6-17.1l0-34.4
				l29.8-17.2l29.6,17.1L1401.9,98.5z M1402.4,99.2l29.6,17.1l0,34.4l-29.8,17.2l-29.6-17.1l0-34.4L1402.4,99.2z M1462.3,98.4
				L1462.3,98.4l-30,17.3l-29.6-17.1l0-34.4l29.8-17.2l29.8,17.2L1462.3,98.4z M1492.3,150.7l-29.8,17.2l-29.6-17.1l0-34.4
				l29.8-17.2l29.6,17.1L1492.3,150.7z"/>
		</g>
		<polygon class="st43" points="1190.9,116.4 1191,116.3 1252,81.1 1312.2,115.9 1312.2,185.9 1251.6,220.9 1190.9,185.9 		"/>
		<polygon class="st43" points="1130.9,11.9 1131,11.8 1192,-23.4 1252.2,11.4 1252.2,81.4 1191.6,116.4 1130.9,81.4 		"/>
		<g class="st44">
			<g>
				<linearGradient id="SVGID_4_" gradientUnits="userSpaceOnUse" x1="1071.8562" y1="256.1869" x2="1010.9071" y2="150.6199">
					<stop  offset="0" style="stop-color:#FFFFFF"/>
					<stop  offset="0.2269" style="stop-color:#F2F2F2"/>
					<stop  offset="0.6478" style="stop-color:#CFCFCF"/>
					<stop  offset="0.8377" style="stop-color:#BDBDBD"/>
				</linearGradient>
				<polyline class="st45" points="1010.9,153.2 1010.9,151.2 1011,151.1 1012.6,150.2 				"/>
				<linearGradient id="SVGID_5_" gradientUnits="userSpaceOnUse" x1="1102.9915" y1="238.2109" x2="1042.0424" y2="132.644">
					<stop  offset="0" style="stop-color:#FFFFFF"/>
					<stop  offset="0.2269" style="stop-color:#F2F2F2"/>
					<stop  offset="0.6478" style="stop-color:#CFCFCF"/>
					<stop  offset="0.8377" style="stop-color:#BDBDBD"/>
				</linearGradient>
				<line class="st46" x1="1016" y1="148.2" x2="1068.6" y2="117.9"/>
				<linearGradient id="SVGID_6_" gradientUnits="userSpaceOnUse" x1="1132.4324" y1="221.2132" x2="1071.4833" y2="115.6462">
					<stop  offset="0" style="stop-color:#FFFFFF"/>
					<stop  offset="0.2269" style="stop-color:#F2F2F2"/>
					<stop  offset="0.6478" style="stop-color:#CFCFCF"/>
					<stop  offset="0.8377" style="stop-color:#BDBDBD"/>
				</linearGradient>
				<polyline class="st47" points="1070.2,116.9 1072,115.9 1073.7,116.9 				"/>
				<linearGradient id="SVGID_7_" gradientUnits="userSpaceOnUse" x1="1148.1558" y1="212.1353" x2="1087.2067" y2="106.5683">
					<stop  offset="0" style="stop-color:#FFFFFF"/>
					<stop  offset="0.2269" style="stop-color:#F2F2F2"/>
					<stop  offset="0.6478" style="stop-color:#CFCFCF"/>
					<stop  offset="0.8377" style="stop-color:#BDBDBD"/>
				</linearGradient>
				<line class="st48" x1="1077.1" y1="118.9" x2="1128.8" y2="148.8"/>
				<linearGradient id="SVGID_8_" gradientUnits="userSpaceOnUse" x1="1162.4282" y1="203.8951" x2="1101.4791" y2="98.3282">
					<stop  offset="0" style="stop-color:#FFFFFF"/>
					<stop  offset="0.2269" style="stop-color:#F2F2F2"/>
					<stop  offset="0.6478" style="stop-color:#CFCFCF"/>
					<stop  offset="0.8377" style="stop-color:#BDBDBD"/>
				</linearGradient>
				<polyline class="st49" points="1130.5,149.7 1132.2,150.7 1132.2,152.7 				"/>
				<linearGradient id="SVGID_9_" gradientUnits="userSpaceOnUse" x1="1147.2145" y1="212.6787" x2="1086.2654" y2="107.1118">
					<stop  offset="0" style="stop-color:#FFFFFF"/>
					<stop  offset="0.2269" style="stop-color:#F2F2F2"/>
					<stop  offset="0.6478" style="stop-color:#CFCFCF"/>
					<stop  offset="0.8377" style="stop-color:#BDBDBD"/>
				</linearGradient>
				<line class="st50" x1="1132.2" y1="156.6" x2="1132.2" y2="216.8"/>
				<linearGradient id="SVGID_10_" gradientUnits="userSpaceOnUse" x1="1132.2256" y1="221.3322" x2="1071.2765" y2="115.7653">
					<stop  offset="0" style="stop-color:#FFFFFF"/>
					<stop  offset="0.2269" style="stop-color:#F2F2F2"/>
					<stop  offset="0.6478" style="stop-color:#CFCFCF"/>
					<stop  offset="0.8377" style="stop-color:#BDBDBD"/>
				</linearGradient>
				<polyline class="st51" points="1132.2,218.8 1132.2,220.8 1130.5,221.8 				"/>
				<linearGradient id="SVGID_11_" gradientUnits="userSpaceOnUse" x1="1101.303" y1="239.1857" x2="1040.3539" y2="133.6188">
					<stop  offset="0" style="stop-color:#FFFFFF"/>
					<stop  offset="0.2269" style="stop-color:#F2F2F2"/>
					<stop  offset="0.6478" style="stop-color:#CFCFCF"/>
					<stop  offset="0.8377" style="stop-color:#BDBDBD"/>
				</linearGradient>
				<line class="st52" x1="1127.1" y1="223.7" x2="1075" y2="253.8"/>
				<linearGradient id="SVGID_12_" gradientUnits="userSpaceOnUse" x1="1072.0623" y1="256.0679" x2="1011.1132" y2="150.5009">
					<stop  offset="0" style="stop-color:#FFFFFF"/>
					<stop  offset="0.2269" style="stop-color:#F2F2F2"/>
					<stop  offset="0.6478" style="stop-color:#CFCFCF"/>
					<stop  offset="0.8377" style="stop-color:#BDBDBD"/>
				</linearGradient>
				<polyline class="st53" points="1073.3,254.8 1071.6,255.8 1069.8,254.8 				"/>
				<linearGradient id="SVGID_13_" gradientUnits="userSpaceOnUse" x1="1056.2327" y1="265.2071" x2="995.2836" y2="159.6401">
					<stop  offset="0" style="stop-color:#FFFFFF"/>
					<stop  offset="0.2269" style="stop-color:#F2F2F2"/>
					<stop  offset="0.6478" style="stop-color:#CFCFCF"/>
					<stop  offset="0.8377" style="stop-color:#BDBDBD"/>
				</linearGradient>
				<line class="st54" x1="1066.5" y1="252.8" x2="1014.3" y2="222.7"/>
				<linearGradient id="SVGID_14_" gradientUnits="userSpaceOnUse" x1="1041.8604" y1="273.505" x2="980.9112" y2="167.938">
					<stop  offset="0" style="stop-color:#FFFFFF"/>
					<stop  offset="0.2269" style="stop-color:#F2F2F2"/>
					<stop  offset="0.6478" style="stop-color:#CFCFCF"/>
					<stop  offset="0.8377" style="stop-color:#BDBDBD"/>
				</linearGradient>
				<polyline class="st55" points="1012.6,221.8 1010.9,220.8 1010.9,218.8 				"/>
				<linearGradient id="SVGID_15_" gradientUnits="userSpaceOnUse" x1="1056.9678" y1="264.7827" x2="996.0186" y2="159.2158">
					<stop  offset="0" style="stop-color:#FFFFFF"/>
					<stop  offset="0.2269" style="stop-color:#F2F2F2"/>
					<stop  offset="0.6478" style="stop-color:#CFCFCF"/>
					<stop  offset="0.8377" style="stop-color:#BDBDBD"/>
				</linearGradient>
				<line class="st56" x1="1010.9" y1="214.9" x2="1010.9" y2="155.1"/>
			</g>
		</g>
	</g>
</g>
<polygon class="st0" points="889.9,324.7 860.3,307.6 860.3,273.2 890.1,256 919.7,273.1 919.7,307.5 "/>
<polygon class="st0" points="769.5,324.8 739.9,307.7 739.9,273.3 769.8,256.1 799.4,273.2 799.4,307.6 "/>
</svg>
