<?xml version="1.0" encoding="UTF-8" standalone="no"?>
<svg width="1000px" height="555px" viewBox="0 0 1000 555" version="1.1" xmlns="http://www.w3.org/2000/svg" xmlns:xlink="http://www.w3.org/1999/xlink">
    <!-- Generator: Sketch 47.1 (45422) - http://www.bohemiancoding.com/sketch -->
    <title>tables-nested-ixd</title>
    <desc>Created with Sketch.</desc>
    <defs>
        <rect id="path-1" x="23.04" y="57.9" width="17.76" height="17.76"></rect>
        <rect id="path-2" x="23.04" y="293.22" width="17.76" height="17.76"></rect>
        <rect id="path-3" x="23.04" y="0.18" width="17.76" height="17.76"></rect>
        <path d="M7.36653304,18.4999999 L5.72630017,15.9938568 C4.60633416,14.2826394 2.220733,13.6583235 0.395964803,14.5964348 L0.821149901,14.3778476 C0.368297091,14.6106587 0.151150422,15.1910649 0.337603918,15.673468 L2.60805675,21.5477136 C2.96798861,22.4789499 3.88725333,23.7959833 4.64899861,24.4575838 C4.64899861,24.4575838 9.21653304,28.2381331 9.21653304,29.6555556 L9.21653304,31.4499999 L16.616533,31.4499999 L18.466533,27.7499999 L20.316533,31.4499999 L22.166533,31.4500001 L22.166533,29.6555558 C22.166533,28.2381334 24.9578886,23.7737505 24.9578886,23.7737505 C25.4717239,22.9059539 25.9,21.3771849 25.9,20.3621912 L25.9,12.8978341 C25.8665329,11.2452218 24.4617654,9.90589673 22.7284028,9.90589673 C21.8612508,9.90589673 21.158867,10.5755593 21.158867,11.4023142 L21.158867,12.0001631 C21.158867,10.3475508 19.7540995,9.00822576 18.020737,9.00822576 C17.1535849,9.00822576 16.4512012,9.6778883 16.4512012,10.5046433 L16.4512012,11.1024921 C16.4512012,9.44987987 15.0464337,8.11055479 13.3130711,8.11055479 C12.4459191,8.11055479 11.7435353,8.78021733 11.7435353,9.60697229 L11.7435353,10.2048212 C11.7435353,9.93922844 11.7151484,9.72809734 11.6603039,9.56078244 L11.1815664,1.85224608 C11.116829,0.809857696 10.2382597,0 9.21653289,0 C8.18768281,0 7.36653289,0.828113764 7.36653289,1.84964386 L7.36653288,9.25 L7.36653304,18.4999999 Z M20.35,16.6500002 L22.2,16.65 L22.2,24.0499998 L20.35,24.05 L20.35,16.6500002 L20.35,16.6500002 Z M16.65,16.6500002 L18.5,16.65 L18.5,24.0499998 L16.65,24.05 L16.65,16.6500002 L16.65,16.6500002 Z M12.95,16.6500002 L14.8,16.65 L14.8,24.0499998 L12.95,24.05 L12.95,16.6500002 L12.95,16.6500002 Z" id="path-4"></path>
        <filter x="-46.2%" y="-31.3%" width="192.5%" height="175.4%" filterUnits="objectBoundingBox" id="filter-5">
            <feMorphology radius="1.85" operator="dilate" in="SourceAlpha" result="shadowSpreadOuter1"></feMorphology>
            <feOffset dx="0" dy="2" in="shadowSpreadOuter1" result="shadowOffsetOuter1"></feOffset>
            <feGaussianBlur stdDeviation="3" in="shadowOffsetOuter1" result="shadowBlurOuter1"></feGaussianBlur>
            <feComposite in="shadowBlurOuter1" in2="SourceAlpha" operator="out" result="shadowBlurOuter1"></feComposite>
            <feColorMatrix values="0 0 0 0 0   0 0 0 0 0   0 0 0 0 0  0 0 0 0.2 0" type="matrix" in="shadowBlurOuter1"></feColorMatrix>
        </filter>
        <path d="M7.36653304,18.4999999 L5.72630017,15.9938568 C4.60633416,14.2826394 2.220733,13.6583235 0.395964803,14.5964348 L0.821149901,14.3778476 C0.368297091,14.6106587 0.151150422,15.1910649 0.337603918,15.673468 L2.60805675,21.5477136 C2.96798861,22.4789499 3.88725333,23.7959833 4.64899861,24.4575838 C4.64899861,24.4575838 9.21653304,28.2381331 9.21653304,29.6555556 L9.21653304,31.4499999 L16.616533,31.4499999 L18.466533,27.7499999 L20.316533,31.4499999 L22.166533,31.4500001 L22.166533,29.6555558 C22.166533,28.2381334 24.9578886,23.7737505 24.9578886,23.7737505 C25.4717239,22.9059539 25.9,21.3771849 25.9,20.3621912 L25.9,12.8978341 C25.8665329,11.2452218 24.4617654,9.90589673 22.7284028,9.90589673 C21.8612508,9.90589673 21.158867,10.5755593 21.158867,11.4023142 L21.158867,12.0001631 C21.158867,10.3475508 19.7540995,9.00822576 18.020737,9.00822576 C17.1535849,9.00822576 16.4512012,9.6778883 16.4512012,10.5046433 L16.4512012,11.1024921 C16.4512012,9.44987987 15.0464337,8.11055479 13.3130711,8.11055479 C12.4459191,8.11055479 11.7435353,8.78021733 11.7435353,9.60697229 L11.7435353,10.2048212 C11.7435353,9.93922844 11.7151484,9.72809734 11.6603039,9.56078244 L11.1815664,1.85224608 C11.116829,0.809857696 10.2382597,0 9.21653289,0 C8.18768281,0 7.36653289,0.828113764 7.36653289,1.84964386 L7.36653288,9.25 L7.36653304,18.4999999 Z M20.35,16.6500002 L22.2,16.65 L22.2,24.0499998 L20.35,24.05 L20.35,16.6500002 L20.35,16.6500002 Z M16.65,16.6500002 L18.5,16.65 L18.5,24.0499998 L16.65,24.05 L16.65,16.6500002 L16.65,16.6500002 Z M12.95,16.6500002 L14.8,16.65 L14.8,24.0499998 L12.95,24.05 L12.95,16.6500002 L12.95,16.6500002 Z" id="path-6"></path>
        <filter x="-46.2%" y="-31.3%" width="192.5%" height="175.4%" filterUnits="objectBoundingBox" id="filter-7">
            <feMorphology radius="1.85" operator="dilate" in="SourceAlpha" result="shadowSpreadOuter1"></feMorphology>
            <feOffset dx="0" dy="2" in="shadowSpreadOuter1" result="shadowOffsetOuter1"></feOffset>
            <feGaussianBlur stdDeviation="3" in="shadowOffsetOuter1" result="shadowBlurOuter1"></feGaussianBlur>
            <feComposite in="shadowBlurOuter1" in2="SourceAlpha" operator="out" result="shadowBlurOuter1"></feComposite>
            <feColorMatrix values="0 0 0 0 0   0 0 0 0 0   0 0 0 0 0  0 0 0 0.2 0" type="matrix" in="shadowBlurOuter1"></feColorMatrix>
        </filter>
        <path d="M7.36653304,18.4999999 L5.72630017,15.9938568 C4.60633416,14.2826394 2.220733,13.6583235 0.395964803,14.5964348 L0.821149901,14.3778476 C0.368297091,14.6106587 0.151150422,15.1910649 0.337603918,15.673468 L2.60805675,21.5477136 C2.96798861,22.4789499 3.88725333,23.7959833 4.64899861,24.4575838 C4.64899861,24.4575838 9.21653304,28.2381331 9.21653304,29.6555556 L9.21653304,31.4499999 L16.616533,31.4499999 L18.466533,27.7499999 L20.316533,31.4499999 L22.166533,31.4500001 L22.166533,29.6555558 C22.166533,28.2381334 24.9578886,23.7737505 24.9578886,23.7737505 C25.4717239,22.9059539 25.9,21.3771849 25.9,20.3621912 L25.9,12.8978341 C25.8665329,11.2452218 24.4617654,9.90589673 22.7284028,9.90589673 C21.8612508,9.90589673 21.158867,10.5755593 21.158867,11.4023142 L21.158867,12.0001631 C21.158867,10.3475508 19.7540995,9.00822576 18.020737,9.00822576 C17.1535849,9.00822576 16.4512012,9.6778883 16.4512012,10.5046433 L16.4512012,11.1024921 C16.4512012,9.44987987 15.0464337,8.11055479 13.3130711,8.11055479 C12.4459191,8.11055479 11.7435353,8.78021733 11.7435353,9.60697229 L11.7435353,10.2048212 C11.7435353,9.93922844 11.7151484,9.72809734 11.6603039,9.56078244 L11.1815664,1.85224608 C11.116829,0.809857696 10.2382597,0 9.21653289,0 C8.18768281,0 7.36653289,0.828113764 7.36653289,1.84964386 L7.36653288,9.25 L7.36653304,18.4999999 Z M20.35,16.6500002 L22.2,16.65 L22.2,24.0499998 L20.35,24.05 L20.35,16.6500002 L20.35,16.6500002 Z M16.65,16.6500002 L18.5,16.65 L18.5,24.0499998 L16.65,24.05 L16.65,16.6500002 L16.65,16.6500002 Z M12.95,16.6500002 L14.8,16.65 L14.8,24.0499998 L12.95,24.05 L12.95,16.6500002 L12.95,16.6500002 Z" id="path-8"></path>
        <filter x="-46.2%" y="-31.3%" width="192.5%" height="175.4%" filterUnits="objectBoundingBox" id="filter-9">
            <feMorphology radius="1.85" operator="dilate" in="SourceAlpha" result="shadowSpreadOuter1"></feMorphology>
            <feOffset dx="0" dy="2" in="shadowSpreadOuter1" result="shadowOffsetOuter1"></feOffset>
            <feGaussianBlur stdDeviation="3" in="shadowOffsetOuter1" result="shadowBlurOuter1"></feGaussianBlur>
            <feComposite in="shadowBlurOuter1" in2="SourceAlpha" operator="out" result="shadowBlurOuter1"></feComposite>
            <feColorMatrix values="0 0 0 0 0   0 0 0 0 0   0 0 0 0 0  0 0 0 0.2 0" type="matrix" in="shadowBlurOuter1"></feColorMatrix>
        </filter>
        <path d="M7.36653304,18.4999999 L5.72630017,15.9938568 C4.60633416,14.2826394 2.220733,13.6583235 0.395964803,14.5964348 L0.821149901,14.3778476 C0.368297091,14.6106587 0.151150422,15.1910649 0.337603918,15.673468 L2.60805675,21.5477136 C2.96798861,22.4789499 3.88725333,23.7959833 4.64899861,24.4575838 C4.64899861,24.4575838 9.21653304,28.2381331 9.21653304,29.6555556 L9.21653304,31.4499999 L16.616533,31.4499999 L18.466533,27.7499999 L20.316533,31.4499999 L22.166533,31.4500001 L22.166533,29.6555558 C22.166533,28.2381334 24.9578886,23.7737505 24.9578886,23.7737505 C25.4717239,22.9059539 25.9,21.3771849 25.9,20.3621912 L25.9,12.8978341 C25.8665329,11.2452218 24.4617654,9.90589673 22.7284028,9.90589673 C21.8612508,9.90589673 21.158867,10.5755593 21.158867,11.4023142 L21.158867,12.0001631 C21.158867,10.3475508 19.7540995,9.00822576 18.020737,9.00822576 C17.1535849,9.00822576 16.4512012,9.6778883 16.4512012,10.5046433 L16.4512012,11.1024921 C16.4512012,9.44987987 15.0464337,8.11055479 13.3130711,8.11055479 C12.4459191,8.11055479 11.7435353,8.78021733 11.7435353,9.60697229 L11.7435353,10.2048212 C11.7435353,9.93922844 11.7151484,9.72809734 11.6603039,9.56078244 L11.1815664,1.85224608 C11.116829,0.809857696 10.2382597,0 9.21653289,0 C8.18768281,0 7.36653289,0.828113764 7.36653289,1.84964386 L7.36653288,9.25 L7.36653304,18.4999999 Z M20.35,16.6500002 L22.2,16.65 L22.2,24.0499998 L20.35,24.05 L20.35,16.6500002 L20.35,16.6500002 Z M16.65,16.6500002 L18.5,16.65 L18.5,24.0499998 L16.65,24.05 L16.65,16.6500002 L16.65,16.6500002 Z M12.95,16.6500002 L14.8,16.65 L14.8,24.0499998 L12.95,24.05 L12.95,16.6500002 L12.95,16.6500002 Z" id="path-10"></path>
        <filter x="-46.2%" y="-31.3%" width="192.5%" height="175.4%" filterUnits="objectBoundingBox" id="filter-11">
            <feMorphology radius="1.85" operator="dilate" in="SourceAlpha" result="shadowSpreadOuter1"></feMorphology>
            <feOffset dx="0" dy="2" in="shadowSpreadOuter1" result="shadowOffsetOuter1"></feOffset>
            <feGaussianBlur stdDeviation="3" in="shadowOffsetOuter1" result="shadowBlurOuter1"></feGaussianBlur>
            <feComposite in="shadowBlurOuter1" in2="SourceAlpha" operator="out" result="shadowBlurOuter1"></feComposite>
            <feColorMatrix values="0 0 0 0 0   0 0 0 0 0   0 0 0 0 0  0 0 0 0.2 0" type="matrix" in="shadowBlurOuter1"></feColorMatrix>
        </filter>
    </defs>
    <g id="Page-1" stroke="none" stroke-width="1" fill="none" fill-rule="evenodd">
        <g id="tables-nested-ixd">
            <g id="Group-33" transform="translate(33.000000, 27.000000)">
                <text id="Expand-Interaction:" font-family="Roboto-Regular, Roboto" font-size="13.32" font-weight="normal" fill="#EC407A">
                    <tspan x="477.4" y="452.3">Expand Interaction:</tspan>
                    <tspan x="477.4" y="467.3">A ) Clicking anywhere </tspan>
                    <tspan x="477.4" y="482.3">in the row that is not a </tspan>
                    <tspan x="477.4" y="497.3">link</tspan>
                </text>
                <text id="Expand-Interaction:" font-family="Roboto-Regular, Roboto" font-size="13.32" font-weight="normal" fill="#EC407A">
                    <tspan x="785" y="463">Expand Interaction:</tspan>
                    <tspan x="785" y="478">B ) Clicking the down </tspan>
                    <tspan x="785" y="493">pointing carat icon</tspan>
                </text>
                <g id="Group-25" transform="translate(0.000000, 62.350000)">
                    <g id="Group-18" transform="translate(0.000000, -0.000000)">
                        <rect id="Rectangle-8" fill-opacity="0.2" fill="#EC407A" x="229.5" y="272.5" width="688.2" height="61.05"></rect>
                        <rect id="Rectangle-8-Copy-3" fill-opacity="0.2" fill="#EC407A" x="0.1" y="33.85" width="917.6" height="61.05"></rect>
                        <rect id="Rectangle-8" fill-opacity="0.2" fill="#EC407A" x="862.2" y="272.5" width="55.5" height="61.05"></rect>
                        <rect id="Rectangle-8-Copy-4" fill-opacity="0.2" fill="#EC407A" x="862.2" y="33.85" width="55.5" height="61.05"></rect>
                        <g id="Group-2-Copy-10" transform="translate(326.070000, 53.460000)"></g>
                        <g id="Group-2-Copy-11" transform="translate(327.180000, 289.890000)"></g>
                        <text id="First-Column-Copy" font-family="Roboto-Regular, Roboto" font-size="17.76" font-weight="normal" line-spacing="17.76" fill="#0D74D1">
                            <tspan x="64.11" y="73.9">My Cloud Server-01</tspan>
                        </text>
                        <text id="Second-Column-Copy" font-family="Roboto-Regular, Roboto" font-size="17.76" font-weight="normal" line-spacing="22.2" fill="#333333">
                            <tspan x="286.11" y="71.68">Production</tspan>
                        </text>
                        <text id="Third-Column-Copy" font-family="Roboto-Regular, Roboto" font-size="17.76" font-weight="normal" line-spacing="22.2" fill="#333333">
                            <tspan x="508.11" y="71.68">Chicago (ORD)</tspan>
                        </text>
                        <text id="Last-Column-Copy" font-family="Roboto-Regular, Roboto" font-size="17.76" font-weight="normal" line-spacing="22.2" fill="#333333">
                            <tspan x="794.741484" y="71.68">256 GB</tspan>
                        </text>
                        <path d="M0.84,272.040484 L917.7,272.040484" id="Stroke-11-Copy-2" stroke="#E0E0E0" stroke-width="1.11"></path>
                        <g id="Rectangle-Copy-2">
                            <use fill="#ECECEC" fill-rule="evenodd" xlink:href="#path-1"></use>
                            <rect stroke="#979797" stroke-width="1.11" x="23.595" y="58.455" width="16.65" height="16.65"></rect>
                        </g>
                        <text id="First-Column-Copy-2" font-family="Roboto-Regular, Roboto" font-size="17.76" font-weight="normal" line-spacing="17.76" fill="#0D74D1">
                            <tspan x="64.11" y="309.22">My Cloud Server-01</tspan>
                        </text>
                        <text id="Second-Column-Copy-2" font-family="Roboto-Regular, Roboto" font-size="17.76" font-weight="normal" line-spacing="22.2" fill="#333333">
                            <tspan x="286.11" y="307">Production</tspan>
                        </text>
                        <text id="Third-Column-Copy-2" font-family="Roboto-Regular, Roboto" font-size="17.76" font-weight="normal" line-spacing="22.2" fill="#333333">
                            <tspan x="508.11" y="307">Chicago (ORD)</tspan>
                        </text>
                        <text id="Last-Column-Copy-2" font-family="Roboto-Regular, Roboto" font-size="17.76" font-weight="normal" line-spacing="22.2" fill="#333333">
                            <tspan x="795.851484" y="307">256 GB</tspan>
                        </text>
                        <path d="M0.84,333.090484 L917.7,333.090484" id="Stroke-11-Copy-3" stroke="#E0E0E0" stroke-width="1.11"></path>
                        <g id="Rectangle-Copy-4">
                            <use fill="#ECECEC" fill-rule="evenodd" xlink:href="#path-2"></use>
                            <rect stroke="#979797" stroke-width="1.11" x="23.595" y="293.775" width="16.65" height="16.65"></rect>
                        </g>
                        <text id="Column-4-Label-Copy" font-family="Roboto-Regular, Roboto" font-size="15.54" font-weight="normal" line-spacing="17.76" fill="#333333">
                            <tspan x="719.086963" y="11.5273926">Column heading 4</tspan>
                        </text>
                        <text id="Column-3-Label-Copy" font-family="Roboto-Regular, Roboto" font-size="15.54" font-weight="normal" line-spacing="17.76" fill="#333333">
                            <tspan x="507" y="14.18">Column heading 3</tspan>
                        </text>
                        <text id="Column-2-Label-Copy-2" font-family="Roboto-Regular, Roboto" font-size="15.54" font-weight="normal" line-spacing="17.76" fill="#333333">
                            <tspan x="285" y="14.18">Column Heading 2</tspan>
                        </text>
                        <text id="Column-1-Label-Copy-2" font-family="Roboto-Regular, Roboto" font-size="15.54" font-weight="normal" line-spacing="17.76" fill="#333333">
                            <tspan x="63" y="14.18">Column heading 1</tspan>
                        </text>
                        <path d="M0.84,35.7 L917.7,35.7" id="Line-Copy" stroke="#E0E0E0" stroke-width="1.11" stroke-linecap="square"></path>
                        <g id="Rectangle-Copy-5">
                            <use fill="#ECECEC" fill-rule="evenodd" xlink:href="#path-3"></use>
                            <rect stroke="#979797" stroke-width="1.11" x="23.595" y="0.735" width="16.65" height="16.65"></rect>
                        </g>
                        <polygon id="Path-2-Copy-28" fill="#000000" fill-rule="nonzero" points="882.237487 298.853589 881.07 300.058882 887.141572 307.65 893.28 299.975292 892.112513 298.77 887.141572 304.98503"></polygon>
                        <polygon id="Path-2-Copy-29" fill="#000000" fill-rule="nonzero" transform="translate(887.175000, 66.780000) scale(1, -1) translate(-887.175000, -66.780000) " points="882.237487 62.423589 881.07 63.6288815 887.141572 71.22 893.28 63.5452925 892.112513 62.34 887.141572 68.5550305"></polygon>
                        <text id="Last-Updated:-Sep-14,-2016---4:31-PM-CDT-Copy" font-family="Roboto-Regular, Roboto" font-size="17.76" font-weight="normal" fill="#9D9D9D">
                            <tspan x="63" y="242.62">Last Updated: Sep 14, 2016 - 4:31 PM CDT</tspan>
                        </text>
                        <text id="Lorem-ipsum-dolor-si-Copy" font-family="Roboto-Regular, Roboto" font-size="15.54" font-weight="normal" fill-opacity="0.2" fill="#333333">
                            <tspan x="63" y="132.95">Lorem ipsum dolor sit amet, consectetur adipiscing elit. Cras ac tortor ut dolor viverra placerat sit amet eu tellus. </tspan>
                            <tspan x="63" y="150.95">Pellentesque habitant morbi tristique senectus et netus et malesuada fames ac turpis egestas. Phasellus </tspan>
                            <tspan x="63" y="168.95">consectetur et velit faucibus facilisis. Donec ut dui nec metus lobortis feugiat eu vel felis. Sed in tellus vel ex </tspan>
                            <tspan x="63" y="186.95">blandit aliquet ac vitae nunc</tspan>
                        </text>
                    </g>
                </g>
                <g id="Cursor-/-Pointer" transform="translate(399.700000, 364.450000)">
                    <g id="Imported-Layers-Copy-4">
                        <use fill="black" fill-opacity="1" filter="url(#filter-5)" xlink:href="#path-4"></use>
                        <use fill="#FFFFFF" fill-rule="evenodd" xlink:href="#path-4"></use>
                        <path stroke-opacity="0.8" stroke="#000000" stroke-width="1.85" d="M0.00135182614,13.8288529 C0.0750018658,13.762709 0.154239062,13.7019211 0.238743766,13.6473681 C0.289990574,13.6142851 0.343174594,13.583495 0.398224535,13.5551939 L1.24407527,15.2005013 L0.81889017,15.4190885 L-0.0269605628,13.7737811 C0.0606512895,13.7287399 0.149262541,13.6866135 0.238743766,13.6473681 C0.295218586,13.6225989 0.352039945,13.5989773 0.409175305,13.5764948 C2.5494529,12.7343063 5.1303485,13.4905732 6.44153299,15.3997052 L6.44153288,9.25 L6.44153289,1.84964386 C6.44153289,0.315294999 7.6787673,-0.925 9.21653289,-0.925 C10.7328223,-0.925 12.010132,0.27078267 12.1047876,1.79490955 L12.4488516,7.33495925 C12.7186253,7.23825465 13.0099023,7.18555479 13.3130711,7.18555479 C14.5758441,7.18555479 15.708935,7.74225902 16.4556636,8.61872113 C16.8849022,8.2831383 17.4302643,8.08322576 18.020737,8.08322576 C19.28351,8.08322576 20.4166009,8.63992999 21.1633294,9.5163921 C21.5925681,9.18080927 22.1379301,8.98089673 22.7284028,8.98089673 C24.953149,8.98089673 26.780899,10.7107556 26.825,12.8978341 L26.825,20.3621912 C26.825,21.5364746 26.3555832,23.2287499 25.7421989,24.2641405 C25.6585143,24.3979823 25.5094891,24.6417325 25.317078,24.9657512 C24.9960012,25.506442 24.6749899,26.0687565 24.3762625,26.6223747 C24.2419445,26.8713002 24.1150432,27.1131941 23.9967793,27.3463354 C23.4283037,28.4670084 23.091533,29.3416911 23.091533,29.6555558 L23.091533,32.3750002 L19.7448516,32.3749998 L18.466533,29.8183627 L17.1882145,32.3749999 L8.29153304,32.3749999 L8.29153304,29.6555556 C8.29153304,29.4965878 7.81929406,28.7979933 7.03153865,27.9504229 C6.80385266,27.7054485 6.55354049,27.4492969 6.28436914,27.1847383 C5.79821145,26.7069119 5.27513111,26.2252606 4.75182169,25.7650513 C4.43809917,25.4891571 4.19522172,25.2827437 4.04244407,25.1559509 C3.1704394,24.3985865 2.16133023,22.9576711 1.74526085,21.8811926 L-0.525191987,16.006947 C-0.821923554,15.2392261 -0.590980986,14.3608178 0.00135182614,13.8288529 Z M21.275,23.1249999 L21.275,20.35 L21.275,23.5874998 L21.275,23.1249999 L20.3499999,23.125 L21.275,24.05 Z M21.275,17.5750001 L22.2000001,17.575 L21.275,16.65 L21.275,17.1125002 L21.275,16.6500002 L20.3500001,17.5750002 L21.275,17.5750001 L21.275,17.1125002 L21.275,20.35 L21.275,17.5750001 Z M21.275,24.0499998 L22.1999999,23.1249998 L21.275,23.1249999 L21.275,20.35 L21.275,23.5874998 L21.275,23.1249999 L20.3499999,23.125 L21.275,24.05 Z M17.575,17.5750001 L18.5000001,17.575 L17.575,16.65 L17.575,17.5750001 Z M17.575,23.1249999 L17.575,24.0499998 L18.4999999,23.1249998 L17.575,23.1249999 Z M17.575,23.1249999 L16.6499999,23.125 L17.575,24.05 L17.575,23.1249999 Z M17.575,17.5750001 L17.575,16.6500002 L16.6500001,17.5750002 L17.575,17.5750001 Z M17.575,17.5750001 L17.575,23.1249999 L17.575,17.5750001 Z M13.875,23.1249999 L12.9499999,23.125 L13.875,24.05 L13.875,23.5874998 L13.875,24.0499998 L14.7999999,23.1249998 L13.875,23.1249999 L13.875,20.35 L13.875,23.1249999 Z M13.875,20.35 L13.875,17.1125002 L13.875,20.35 Z M12.9500001,17.5750002 L13.875,17.5750001 L13.875,17.1125002 L13.875,20.35 L13.875,17.5750001 Z"></path>
                    </g>
                </g>
                <g id="Cursor-/-Pointer-Copy-2" transform="translate(310.900000, 131.350000)">
                    <g id="Imported-Layers-Copy-4">
                        <use fill="black" fill-opacity="1" filter="url(#filter-7)" xlink:href="#path-6"></use>
                        <use fill="#FFFFFF" fill-rule="evenodd" xlink:href="#path-6"></use>
                        <path stroke-opacity="0.8" stroke="#000000" stroke-width="1.85" d="M0.00135182614,13.8288529 C0.0750018658,13.762709 0.154239062,13.7019211 0.238743766,13.6473681 C0.289990574,13.6142851 0.343174594,13.583495 0.398224535,13.5551939 L1.24407527,15.2005013 L0.81889017,15.4190885 L-0.0269605628,13.7737811 C0.0606512895,13.7287399 0.149262541,13.6866135 0.238743766,13.6473681 C0.295218586,13.6225989 0.352039945,13.5989773 0.409175305,13.5764948 C2.5494529,12.7343063 5.1303485,13.4905732 6.44153299,15.3997052 L6.44153288,9.25 L6.44153289,1.84964386 C6.44153289,0.315294999 7.6787673,-0.925 9.21653289,-0.925 C10.7328223,-0.925 12.010132,0.27078267 12.1047876,1.79490955 L12.4488516,7.33495925 C12.7186253,7.23825465 13.0099023,7.18555479 13.3130711,7.18555479 C14.5758441,7.18555479 15.708935,7.74225902 16.4556636,8.61872113 C16.8849022,8.2831383 17.4302643,8.08322576 18.020737,8.08322576 C19.28351,8.08322576 20.4166009,8.63992999 21.1633294,9.5163921 C21.5925681,9.18080927 22.1379301,8.98089673 22.7284028,8.98089673 C24.953149,8.98089673 26.780899,10.7107556 26.825,12.8978341 L26.825,20.3621912 C26.825,21.5364746 26.3555832,23.2287499 25.7421989,24.2641405 C25.6585143,24.3979823 25.5094891,24.6417325 25.317078,24.9657512 C24.9960012,25.506442 24.6749899,26.0687565 24.3762625,26.6223747 C24.2419445,26.8713002 24.1150432,27.1131941 23.9967793,27.3463354 C23.4283037,28.4670084 23.091533,29.3416911 23.091533,29.6555558 L23.091533,32.3750002 L19.7448516,32.3749998 L18.466533,29.8183627 L17.1882145,32.3749999 L8.29153304,32.3749999 L8.29153304,29.6555556 C8.29153304,29.4965878 7.81929406,28.7979933 7.03153865,27.9504229 C6.80385266,27.7054485 6.55354049,27.4492969 6.28436914,27.1847383 C5.79821145,26.7069119 5.27513111,26.2252606 4.75182169,25.7650513 C4.43809917,25.4891571 4.19522172,25.2827437 4.04244407,25.1559509 C3.1704394,24.3985865 2.16133023,22.9576711 1.74526085,21.8811926 L-0.525191987,16.006947 C-0.821923554,15.2392261 -0.590980986,14.3608178 0.00135182614,13.8288529 Z M21.275,23.1249999 L21.275,20.35 L21.275,23.5874998 L21.275,23.1249999 L20.3499999,23.125 L21.275,24.05 Z M21.275,17.5750001 L22.2000001,17.575 L21.275,16.65 L21.275,17.1125002 L21.275,16.6500002 L20.3500001,17.5750002 L21.275,17.5750001 L21.275,17.1125002 L21.275,20.35 L21.275,17.5750001 Z M21.275,24.0499998 L22.1999999,23.1249998 L21.275,23.1249999 L21.275,20.35 L21.275,23.5874998 L21.275,23.1249999 L20.3499999,23.125 L21.275,24.05 Z M17.575,17.5750001 L18.5000001,17.575 L17.575,16.65 L17.575,17.5750001 Z M17.575,23.1249999 L17.575,24.0499998 L18.4999999,23.1249998 L17.575,23.1249999 Z M17.575,23.1249999 L16.6499999,23.125 L17.575,24.05 L17.575,23.1249999 Z M17.575,17.5750001 L17.575,16.6500002 L16.6500001,17.5750002 L17.575,17.5750001 Z M17.575,17.5750001 L17.575,23.1249999 L17.575,17.5750001 Z M13.875,20.35 L13.875,17.1125002 L13.875,20.35 Z M13.875,23.1249999 L12.9499999,23.125 L13.875,24.05 L13.875,23.5874998 L13.875,24.0499998 L14.7999999,23.1249998 L13.875,23.1249999 L13.875,20.35 L13.875,23.1249999 Z M12.9500001,17.5750002 L13.875,17.5750001 L13.875,17.1125002 L13.875,20.35 L13.875,17.5750001 Z"></path>
                    </g>
                </g>
                <g id="Cursor-/-Pointer-Copy" transform="translate(877.000000, 364.450000)">
                    <g id="Imported-Layers-Copy-4">
                        <use fill="black" fill-opacity="1" filter="url(#filter-9)" xlink:href="#path-8"></use>
                        <use fill="#FFFFFF" fill-rule="evenodd" xlink:href="#path-8"></use>
                        <path stroke-opacity="0.8" stroke="#000000" stroke-width="1.85" d="M0.00135182614,13.8288529 C0.0750018658,13.762709 0.154239062,13.7019211 0.238743766,13.6473681 C0.289990574,13.6142851 0.343174594,13.583495 0.398224535,13.5551939 L1.24407527,15.2005013 L0.81889017,15.4190885 L-0.0269605628,13.7737811 C0.0606512895,13.7287399 0.149262541,13.6866135 0.238743766,13.6473681 C0.295218586,13.6225989 0.352039945,13.5989773 0.409175305,13.5764948 C2.5494529,12.7343063 5.1303485,13.4905732 6.44153299,15.3997052 L6.44153288,9.25 L6.44153289,1.84964386 C6.44153289,0.315294999 7.6787673,-0.925 9.21653289,-0.925 C10.7328223,-0.925 12.010132,0.27078267 12.1047876,1.79490955 L12.4488516,7.33495925 C12.7186253,7.23825465 13.0099023,7.18555479 13.3130711,7.18555479 C14.5758441,7.18555479 15.708935,7.74225902 16.4556636,8.61872113 C16.8849022,8.2831383 17.4302643,8.08322576 18.020737,8.08322576 C19.28351,8.08322576 20.4166009,8.63992999 21.1633294,9.5163921 C21.5925681,9.18080927 22.1379301,8.98089673 22.7284028,8.98089673 C24.953149,8.98089673 26.780899,10.7107556 26.825,12.8978341 L26.825,20.3621912 C26.825,21.5364746 26.3555832,23.2287499 25.7421989,24.2641405 C25.6585143,24.3979823 25.5094891,24.6417325 25.317078,24.9657512 C24.9960012,25.506442 24.6749899,26.0687565 24.3762625,26.6223747 C24.2419445,26.8713002 24.1150432,27.1131941 23.9967793,27.3463354 C23.4283037,28.4670084 23.091533,29.3416911 23.091533,29.6555558 L23.091533,32.3750002 L19.7448516,32.3749998 L18.466533,29.8183627 L17.1882145,32.3749999 L8.29153304,32.3749999 L8.29153304,29.6555556 C8.29153304,29.4965878 7.81929406,28.7979933 7.03153865,27.9504229 C6.80385266,27.7054485 6.55354049,27.4492969 6.28436914,27.1847383 C5.79821145,26.7069119 5.27513111,26.2252606 4.75182169,25.7650513 C4.43809917,25.4891571 4.19522172,25.2827437 4.04244407,25.1559509 C3.1704394,24.3985865 2.16133023,22.9576711 1.74526085,21.8811926 L-0.525191987,16.006947 C-0.821923554,15.2392261 -0.590980986,14.3608178 0.00135182614,13.8288529 Z M21.275,23.1249999 L21.275,20.35 L21.275,23.5874998 L21.275,23.1249999 L20.3499999,23.125 L21.275,24.05 Z M21.275,17.5750001 L22.2000001,17.575 L21.275,16.65 L21.275,17.1125002 L21.275,16.6500002 L20.3500001,17.5750002 L21.275,17.5750001 L21.275,17.1125002 L21.275,20.35 L21.275,17.5750001 Z M21.275,24.0499998 L22.1999999,23.1249998 L21.275,23.1249999 L21.275,20.35 L21.275,23.5874998 L21.275,23.1249999 L20.3499999,23.125 L21.275,24.05 Z M17.575,17.5750001 L18.5000001,17.575 L17.575,16.65 L17.575,17.5750001 Z M17.575,23.1249999 L17.575,24.0499998 L18.4999999,23.1249998 L17.575,23.1249999 Z M17.575,23.1249999 L16.6499999,23.125 L17.575,24.05 L17.575,23.1249999 Z M17.575,17.5750001 L17.575,16.6500002 L16.6500001,17.5750002 L17.575,17.5750001 Z M17.575,17.5750001 L17.575,23.1249999 L17.575,17.5750001 Z M13.875,20.35 L13.875,17.1125002 L13.875,20.35 Z M13.875,23.1249999 L12.9499999,23.125 L13.875,24.05 L13.875,23.5874998 L13.875,24.0499998 L14.7999999,23.1249998 L13.875,23.1249999 L13.875,20.35 L13.875,23.1249999 Z M12.9500001,17.5750002 L13.875,17.5750001 L13.875,17.1125002 L13.875,20.35 L13.875,17.5750001 Z"></path>
                    </g>
                </g>
                <g id="Cursor-/-Pointer-Copy-3" transform="translate(877.000000, 131.350000)">
                    <g id="Imported-Layers-Copy-4">
                        <use fill="black" fill-opacity="1" filter="url(#filter-11)" xlink:href="#path-10"></use>
                        <use fill="#FFFFFF" fill-rule="evenodd" xlink:href="#path-10"></use>
                        <path stroke-opacity="0.8" stroke="#000000" stroke-width="1.85" d="M0.00135182614,13.8288529 C0.0750018658,13.762709 0.154239062,13.7019211 0.238743766,13.6473681 C0.289990574,13.6142851 0.343174594,13.583495 0.398224535,13.5551939 L1.24407527,15.2005013 L0.81889017,15.4190885 L-0.0269605628,13.7737811 C0.0606512895,13.7287399 0.149262541,13.6866135 0.238743766,13.6473681 C0.295218586,13.6225989 0.352039945,13.5989773 0.409175305,13.5764948 C2.5494529,12.7343063 5.1303485,13.4905732 6.44153299,15.3997052 L6.44153288,9.25 L6.44153289,1.84964386 C6.44153289,0.315294999 7.6787673,-0.925 9.21653289,-0.925 C10.7328223,-0.925 12.010132,0.27078267 12.1047876,1.79490955 L12.4488516,7.33495925 C12.7186253,7.23825465 13.0099023,7.18555479 13.3130711,7.18555479 C14.5758441,7.18555479 15.708935,7.74225902 16.4556636,8.61872113 C16.8849022,8.2831383 17.4302643,8.08322576 18.020737,8.08322576 C19.28351,8.08322576 20.4166009,8.63992999 21.1633294,9.5163921 C21.5925681,9.18080927 22.1379301,8.98089673 22.7284028,8.98089673 C24.953149,8.98089673 26.780899,10.7107556 26.825,12.8978341 L26.825,20.3621912 C26.825,21.5364746 26.3555832,23.2287499 25.7421989,24.2641405 C25.6585143,24.3979823 25.5094891,24.6417325 25.317078,24.9657512 C24.9960012,25.506442 24.6749899,26.0687565 24.3762625,26.6223747 C24.2419445,26.8713002 24.1150432,27.1131941 23.9967793,27.3463354 C23.4283037,28.4670084 23.091533,29.3416911 23.091533,29.6555558 L23.091533,32.3750002 L19.7448516,32.3749998 L18.466533,29.8183627 L17.1882145,32.3749999 L8.29153304,32.3749999 L8.29153304,29.6555556 C8.29153304,29.4965878 7.81929406,28.7979933 7.03153865,27.9504229 C6.80385266,27.7054485 6.55354049,27.4492969 6.28436914,27.1847383 C5.79821145,26.7069119 5.27513111,26.2252606 4.75182169,25.7650513 C4.43809917,25.4891571 4.19522172,25.2827437 4.04244407,25.1559509 C3.1704394,24.3985865 2.16133023,22.9576711 1.74526085,21.8811926 L-0.525191987,16.006947 C-0.821923554,15.2392261 -0.590980986,14.3608178 0.00135182614,13.8288529 Z M21.275,23.1249999 L21.275,20.35 L21.275,23.5874998 L21.275,23.1249999 L20.3499999,23.125 L21.275,24.05 Z M21.275,17.5750001 L22.2000001,17.575 L21.275,16.65 L21.275,17.1125002 L21.275,16.6500002 L20.3500001,17.5750002 L21.275,17.5750001 L21.275,17.1125002 L21.275,20.35 L21.275,17.5750001 Z M21.275,24.0499998 L22.1999999,23.1249998 L21.275,23.1249999 L21.275,20.35 L21.275,23.5874998 L21.275,23.1249999 L20.3499999,23.125 L21.275,24.05 Z M17.575,17.5750001 L18.5000001,17.575 L17.575,16.65 L17.575,17.5750001 Z M17.575,23.1249999 L17.575,24.0499998 L18.4999999,23.1249998 L17.575,23.1249999 Z M17.575,23.1249999 L16.6499999,23.125 L17.575,24.05 L17.575,23.1249999 Z M17.575,17.5750001 L17.575,16.6500002 L16.6500001,17.5750002 L17.575,17.5750001 Z M17.575,17.5750001 L17.575,23.1249999 L17.575,17.5750001 Z M13.875,23.1249999 L12.9499999,23.125 L13.875,24.05 L13.875,23.5874998 L13.875,24.0499998 L14.7999999,23.1249998 L13.875,23.1249999 L13.875,20.35 L13.875,23.1249999 Z M13.875,20.35 L13.875,17.1125002 L13.875,20.35 Z M12.9500001,17.5750002 L13.875,17.5750001 L13.875,17.1125002 L13.875,20.35 L13.875,17.5750001 Z"></path>
                    </g>
                </g>
                <path d="M371.690524,422.178758 L475.785772,424.886379" id="Stroke-8-Copy-13" stroke="#EC3F7A" stroke-width="0.925" transform="translate(423.738148, 423.532568) rotate(33.000000) translate(-423.738148, -423.532568) "></path>
                <path d="M859.425285,403.187701 L901.72276,432.701556" id="Stroke-8-Copy-20" stroke="#EC3F7A" stroke-width="0.925" transform="translate(880.574023, 417.944629) scale(-1, 1) rotate(33.000000) translate(-880.574023, -417.944629) "></path>
                <text id="Collapse-Interaction" font-family="Roboto-Regular, Roboto" font-size="13.32" font-weight="normal" fill="#EC407A">
                    <tspan x="438.55" y="12">Collapse Interaction:</tspan>
                    <tspan x="438.55" y="27">A ) Clicking anywhere </tspan>
                    <tspan x="438.55" y="42">in the parent row)</tspan>
                </text>
                <text id="Collapse-Interaction" font-family="Roboto-Regular, Roboto" font-size="13.32" font-weight="normal" fill="#EC407A">
                    <tspan x="785" y="223">Collapse Interaction:</tspan>
                    <tspan x="785" y="238">B ) Clicking directly on </tspan>
                    <tspan x="785" y="253">the collapse icon </tspan>
                </text>
                <path d="M330.990524,85.4787582 L435.085772,88.1863785" id="Stroke-8-Copy-21" stroke="#EC3F7A" stroke-width="0.925" transform="translate(383.038148, 86.832568) scale(1, -1) rotate(33.000000) translate(-383.038148, -86.832568) "></path>
                <path d="M859.425285,162.8 L901.72276,192.313855" id="Stroke-8-Copy-22" stroke="#EC3F7A" stroke-width="0.925" transform="translate(880.574023, 177.556928) scale(-1, 1) rotate(33.000000) translate(-880.574023, -177.556928) "></path>
            </g>
        </g>
    </g>
</svg>