<?xml version="1.0" encoding="UTF-8" standalone="no"?>
<svg width="628px" height="527px" viewBox="0 0 628 527" version="1.1" xmlns="http://www.w3.org/2000/svg" xmlns:xlink="http://www.w3.org/1999/xlink">
    <!-- Generator: Sketch 47.1 (45422) - http://www.bohemiancoding.com/sketch -->
    <title>search-assisted-default</title>
    <desc>Created with Sketch.</desc>
    <defs>
        <rect id="path-1" x="0" y="0" width="548" height="254" rx="5"></rect>
        <polygon id="path-2" points="0 2.083 0 3.33333333 9.17333333 3.33333333 9.17333333 2.083 9.17333333 0.832666667 0 0.832666667"></polygon>
        <rect id="path-4" x="0" y="0" width="548" height="35" rx="3"></rect>
    </defs>
    <g id="Page-1" stroke="none" stroke-width="1" fill="none" fill-rule="evenodd">
        <g id="Default-Layout" transform="translate(-361.000000, 8.000000)">
            <g id="Assisted-Search:-Default" transform="translate(402.000000, 80.000000)">
                <g id="Assisted-Search-Dropdown" transform="translate(0.000000, 37.000000)">
                    <g id="Dropdown-Background">
                        <use fill="#FFFFFF" fill-rule="evenodd" xlink:href="#path-1"></use>
                        <rect stroke="#DDDDDD" stroke-width="1" x="0.5" y="0.5" width="547" height="253" rx="5"></rect>
                    </g>
                    <path d="M529.50001,116.5 L12.5575658,116.5" id="Divider" stroke="#D8D8D8" stroke-linecap="square"></path>
                    <path d="M528.942444,209.5 L12,209.5" id="Divider" stroke="#D8D8D8" stroke-linecap="square"></path>
                    <text id="after:-date-before:" font-family="Roboto-Bold, Roboto" font-size="16" font-weight="bold" line-spacing="24">
                        <tspan x="10" y="142" fill="#424242">after: </tspan>
                        <tspan x="52.703125" y="142" font-family="Roboto-Regular, Roboto" font-weight="normal" fill="#616161">date</tspan>
                        <tspan x="84.1328125" y="142" fill="#424242"></tspan>
                        <tspan x="10" y="166" fill="#424242">before: </tspan>
                        <tspan x="65.2734375" y="166" font-family="Roboto-Regular, Roboto" font-weight="normal" fill="#616161">date</tspan>
                        <tspan x="96.703125" y="166" fill="#424242"></tspan>
                        <tspan x="10" y="190" fill="#424242">on: </tspan>
                        <tspan x="36.5078125" y="190" font-family="Roboto-Regular, Roboto" font-weight="normal" fill="#616161">date, month, or year</tspan>
                    </text>
                    <text id="device:-id-or-name-d" font-family="Roboto-Bold, Roboto" font-size="16" font-weight="bold" line-spacing="24">
                        <tspan x="10" y="49" fill="#424242">device: </tspan>
                        <tspan x="65.3828125" y="49" font-family="Roboto-Regular, Roboto" font-weight="normal" fill="#616161">id or name</tspan>
                        <tspan x="140.78125" y="49" fill="#424242"></tspan>
                        <tspan x="10" y="73" fill="#424242">device type: </tspan>
                        <tspan x="100.460938" y="73" font-family="Roboto-Regular, Roboto" font-weight="normal" fill="#616161">ex: Server, Firewall or Storage</tspan>
                        <tspan x="308.273438" y="73" fill="#424242"></tspan>
                        <tspan x="10" y="97" fill="#424242">region: </tspan>
                        <tspan x="64.21875" y="97" font-family="Roboto-Regular, Roboto" font-weight="normal" fill="#616161">ex: ORD</tspan>
                        <tspan x="119.804688" y="97" fill="#424242"> </tspan>
                    </text>
                    <text id="narrow-your-search" font-family="Roboto-Regular, Roboto" font-size="12" font-weight="normal" line-spacing="18" fill="#616161">
                        <tspan x="10" y="16.6000061">narrow your search</tspan>
                    </text>
                    <g id="Helper-Text" transform="translate(10.000000, 221.000000)">
                        <text id="More-tips…" font-family="Roboto-Regular, Roboto" font-size="14" font-weight="normal" fill="#1D94A5">
                            <tspan x="352" y="13">More tips…</tspan>
                        </text>
                        <g id="Search-Help-Text">
                            <text id="Include-a-before-you" font-family="Roboto-Regular, Roboto" font-size="14" font-weight="normal" fill="#424242">
                                <tspan x="0" y="13">Include a     before your search to exclude from results.</tspan>
                            </text>
                            <g id="Minus-Icon" transform="translate(61.000000, 9.000000)">
                                <mask id="mask-3" fill="white">
                                    <use xlink:href="#path-2"></use>
                                </mask>
                                <g id="Clip-2"></g>
                                <path d="M8.99166667,1.01266667 C8.87,0.892666667 8.72166667,0.832666667 8.54833333,0.832666667 L0.625,0.832666667 C0.451666667,0.832666667 0.303333333,0.892666667 0.183333333,1.01266667 C0.0616666667,1.13433333 0,1.28266667 0,1.45766667 L0,2.70766667 C0,2.881 0.0616666667,3.02766667 0.183333333,3.14933333 C0.303333333,3.271 0.451666667,3.33433333 0.625,3.33433333 L8.54833333,3.33433333 C8.72166667,3.33433333 8.87,3.271 8.99166667,3.14933333 C9.11333333,3.02766667 9.17333333,2.881 9.17333333,2.70766667 L9.17333333,1.45766667 C9.17333333,1.28266667 9.11333333,1.13433333 8.99166667,1.01266667" id="Fill-1" fill="#616161" mask="url(#mask-3)"></path>
                            </g>
                        </g>
                    </g>
                </g>
                <g id="Search-Box">
                    <g id="Rectangle-7">
                        <g>
                            <use fill="#FFFFFF" fill-rule="evenodd" xlink:href="#path-4"></use>
                            <rect stroke="#E6E6E5" stroke-width="1" x="0.5" y="0.5" width="547" height="34" rx="3"></rect>
                        </g>
                    </g>
                    <g id="Search-Icon-Group" transform="translate(13.000000, 9.000000)">
                        <path d="M30.0453135,9.3296875 C28.7588488,8.95989398 27.8226602,8.50547145 27.2367198,7.96640625 C26.6507793,7.42734105 26.3578135,6.76198312 26.3578135,5.9703125 C26.3578135,5.07447469 26.7158829,4.33359668 27.4320323,3.74765625 C28.1481817,3.16171582 29.079162,2.86875 30.225001,2.86875 C31.0062549,2.86875 31.7028626,3.01979016 32.3148448,3.321875 C32.926827,3.62395984 33.4007806,4.04062234 33.7367198,4.571875 C34.072659,5.10312766 34.240626,5.68385102 34.240626,6.3140625 L32.7328135,6.3140625 C32.7328135,5.62655906 32.5140657,5.08619988 32.0765635,4.69296875 C31.6390613,4.29973762 31.02188,4.103125 30.225001,4.103125 C29.485414,4.103125 28.9085968,4.26588379 28.4945323,4.59140625 C28.0804677,4.91692871 27.8734385,5.36874711 27.8734385,5.946875 C27.8734385,6.41041898 28.0700511,6.80234215 28.4632823,7.12265625 C28.8565134,7.44297035 29.5257776,7.73593617 30.4710948,8.0015625 C31.416412,8.26718883 32.1559879,8.56015465 32.6898448,8.88046875 C33.2237016,9.20078285 33.619531,9.57447703 33.8773448,10.0015625 C34.1351586,10.428648 34.2640635,10.9312471 34.2640635,11.509375 C34.2640635,12.4312546 33.9046921,13.1695285 33.1859385,13.7242187 C32.4671849,14.278909 31.506257,14.55625 30.303126,14.55625 C29.5218721,14.55625 28.7927127,14.4065119 28.115626,14.1070312 C27.4385393,13.8075506 26.9164091,13.3973984 26.5492198,12.8765625 C26.1820304,12.3557266 25.9984385,11.7645866 25.9984385,11.103125 L27.506251,11.103125 C27.506251,11.7906284 27.7601547,12.3335918 28.2679698,12.7320312 C28.7757848,13.1304707 29.4541635,13.3296875 30.303126,13.3296875 C31.0947967,13.3296875 31.7015614,13.1682308 32.1234385,12.8453125 C32.5453156,12.5223942 32.756251,12.0822945 32.756251,11.525 C32.756251,10.9677055 32.5609405,10.5367203 32.1703135,10.2320312 C31.7796866,9.92734223 31.0713603,9.62656398 30.0453135,9.3296875 Z M39.4671885,14.55625 C38.3213495,14.55625 37.3890671,14.1799517 36.6703135,13.4273437 C35.9515599,12.6747358 35.5921885,11.6682355 35.5921885,10.4078125 L35.5921885,10.1421875 C35.5921885,9.30364164 35.7523432,8.55495121 36.0726573,7.89609375 C36.3929714,7.23723629 36.8408836,6.72161645 37.4164073,6.34921875 C37.991931,5.97682105 38.6156227,5.790625 39.287501,5.790625 C40.3864649,5.790625 41.240623,6.15260055 41.850001,6.8765625 C42.4593791,7.60052445 42.7640635,8.63697242 42.7640635,9.9859375 L42.7640635,10.5875 L37.037501,10.5875 C37.0583345,11.4208375 37.3018216,12.0940079 37.7679698,12.6070312 C38.2341179,13.1200546 38.8265599,13.3765625 39.5453135,13.3765625 C40.0557327,13.3765625 40.4880201,13.2723969 40.8421885,13.0640625 C41.196357,12.8557281 41.5062497,12.5796892 41.771876,12.2359375 L42.6546885,12.9234375 C41.9463517,14.0119846 40.8838623,14.55625 39.4671885,14.55625 Z M39.287501,6.978125 C38.7041648,6.978125 38.2145863,7.19036246 37.818751,7.61484375 C37.4229157,8.03932504 37.1781265,8.63437117 37.084376,9.4 L41.318751,9.4 L41.318751,9.290625 C41.2770842,8.55624633 41.0791695,7.9872416 40.725001,7.58359375 C40.3708326,7.1799459 39.8916707,6.978125 39.287501,6.978125 Z M49.6546885,14.4 C49.5713548,14.2333325 49.5036471,13.9364605 49.4515635,13.509375 C48.7796852,14.2072952 47.9776099,14.55625 47.0453135,14.55625 C46.211976,14.55625 45.5283891,14.3205753 44.9945323,13.8492187 C44.4606754,13.3778622 44.193751,12.780212 44.193751,12.05625 C44.193751,11.1760373 44.5283831,10.4924504 45.1976573,10.0054687 C45.8669315,9.51848715 46.8083283,9.275 48.021876,9.275 L49.428126,9.275 L49.428126,8.6109375 C49.428126,8.10572664 49.2770859,7.70338691 48.975001,7.40390625 C48.6729162,7.10442559 48.2276081,6.9546875 47.6390635,6.9546875 C47.123436,6.9546875 46.6911486,7.08489453 46.3421885,7.3453125 C45.9932285,7.60573047 45.818751,7.92083148 45.818751,8.290625 L44.365626,8.290625 C44.365626,7.86874789 44.5153641,7.46119988 44.8148448,7.06796875 C45.1143254,6.67473762 45.5205714,6.36354281 46.0335948,6.134375 C46.5466182,5.90520719 47.1104146,5.790625 47.725001,5.790625 C48.6989642,5.790625 49.4619774,6.03411215 50.0140635,6.52109375 C50.5661496,7.00807535 50.8526051,7.67864156 50.8734385,8.5328125 L50.8734385,12.4234375 C50.8734385,13.199483 50.9723959,13.8166644 51.1703135,14.275 L51.1703135,14.4 L49.6546885,14.4 Z M47.256251,13.2984375 C47.7093783,13.2984375 48.1390615,13.1812512 48.5453135,12.946875 C48.9515656,12.7124988 49.2458335,12.4078144 49.428126,12.0328125 L49.428126,10.2984375 L48.2953135,10.2984375 C46.5244713,10.2984375 45.6390635,10.8166615 45.6390635,11.853125 C45.6390635,12.3062523 45.7901037,12.6604154 46.0921885,12.915625 C46.3942734,13.1708346 46.7822903,13.2984375 47.256251,13.2984375 Z M57.225001,7.24375 C57.0062499,7.20729148 56.7692731,7.1890625 56.5140635,7.1890625 C55.5661421,7.1890625 54.9229194,7.5927043 54.584376,8.4 L54.584376,14.4 L53.1390635,14.4 L53.1390635,5.946875 L54.5453135,5.946875 L54.568751,6.9234375 C55.0427117,6.16822539 55.71458,5.790625 56.584376,5.790625 C56.8656274,5.790625 57.079167,5.82708297 57.225001,5.9 L57.225001,7.24375 Z M61.7953135,13.3765625 C62.3109411,13.3765625 62.7614574,13.2203141 63.146876,12.9078125 C63.5322946,12.5953109 63.7458342,12.2046898 63.787501,11.7359375 L65.1546885,11.7359375 C65.1286467,12.2203149 64.9619817,12.6812478 64.6546885,13.11875 C64.3473953,13.5562522 63.9372432,13.905207 63.4242198,14.165625 C62.9111964,14.426043 62.3682331,14.55625 61.7953135,14.55625 C60.6442661,14.55625 59.7289107,14.1721393 59.0492198,13.4039062 C58.3695289,12.6356732 58.0296885,11.5849025 58.0296885,10.2515625 L58.0296885,10.009375 C58.0296885,9.18645422 58.1807287,8.4546907 58.4828135,7.8140625 C58.7848984,7.1734343 59.2184878,6.67604344 59.7835948,6.321875 C60.3487018,5.96770656 61.0166638,5.790625 61.787501,5.790625 C62.7354224,5.790625 63.523175,6.07447633 64.1507823,6.6421875 C64.7783896,7.20989867 65.1130217,7.94687047 65.1546885,8.853125 L63.787501,8.853125 C63.7458342,8.30624727 63.538805,7.85703301 63.1664073,7.50546875 C62.7940096,7.15390449 62.3343788,6.978125 61.787501,6.978125 C61.0531224,6.978125 60.4841176,7.24244527 60.0804698,7.77109375 C59.6768219,8.29974223 59.475001,9.0640575 59.475001,10.0640625 L59.475001,10.3375 C59.475001,11.3114632 59.6755199,12.0614557 60.0765635,12.5875 C60.4776072,13.1135443 61.0505181,13.3765625 61.7953135,13.3765625 Z M68.225001,6.9703125 C68.8656292,6.18385023 69.6989542,5.790625 70.725001,5.790625 C72.5114683,5.790625 73.412501,6.79842742 73.428126,8.8140625 L73.428126,14.4 L71.9828135,14.4 L71.9828135,8.80625 C71.9776052,8.19687195 71.8382836,7.74635562 71.5648448,7.4546875 C71.2914059,7.16301937 70.8656289,7.0171875 70.287501,7.0171875 C69.8187487,7.0171875 69.4072945,7.14218625 69.053126,7.3921875 C68.6989576,7.64218875 68.4229187,7.97031047 68.225001,8.3765625 L68.225001,14.4 L66.7796885,14.4 L66.7796885,2.4 L68.225001,2.4 L68.225001,6.9703125 Z" id="Search" fill="#9B9B9B"></path>
                        <path d="M22.5,0.5 L22.5,16.5" id="Line" stroke="#333333" stroke-linecap="square"></path>
                        <g id="Icons/Search" fill="#757575">
                            <g id="search">
                                <g id="Layer_1" fill-rule="nonzero">
                                    <path d="M16.89375,15.5125 L12.1125,10.73125 C12.9625,9.5625 13.49375,8.18125 13.49375,6.69375 C13.49375,2.975 10.4125,0 6.8,0 C3.08125,0 0.10625,2.975 0.10625,6.69375 C0.10625,10.4125 3.08125,13.3875 6.8,13.3875 C8.18125,13.3875 9.5625,12.9625 10.625,12.21875 L15.40625,17 L16.89375,15.5125 Z M2.23125,6.69375 C2.23125,4.14375 4.25,2.125 6.8,2.125 C9.35,2.125 11.36875,4.14375 11.36875,6.69375 C11.36875,9.24375 9.35,11.2625 6.8,11.2625 C4.25,11.2625 2.23125,9.24375 2.23125,6.69375 Z" id="Shape"></path>
                                </g>
                            </g>
                        </g>
                    </g>
                </g>
            </g>
            <g id="_redline-spec" transform="translate(383.000000, 3.000000)">
                <polyline id="Path-2" stroke="#EC407A" transform="translate(9.500000, 70.477246) scale(1, -1) translate(-9.500000, -70.477246) " points="14 9.95449223 5 9.95449223 5 131"></polyline>
                <path d="M9.99999967,5 C9.99999967,7.762 7.76199974,10 4.99999983,10 C2.23799993,10 0,7.761 0,5 C0.000999999967,2.238 2.23899992,0 5.00099983,0 C7.76299974,0 10.0009997,2.239 9.99999967,5 Z" id="Path" stroke="#EC3F7A" fill-opacity="0.3" fill="#F03F7B"></path>
            </g>
            <g id="_redline-spec" transform="translate(383.000000, 281.000000)">
                <polyline id="Path-2" stroke="#EC407A" points="14 0.237797069 5 0.237797069 5 107.03273"></polyline>
                <path d="M9.99999967,112 C9.99999967,114.762 7.76199974,117 4.99999983,117 C2.23799993,117 0,114.761 0,112 C0.000999999967,109.238 2.23899992,107 5.00099983,107 C7.76299974,107 10.0009997,109.239 9.99999967,112 Z" id="Path" stroke="#EC3F7A" fill-opacity="0.3" fill="#F03F7B"></path>
            </g>
            <g id="_redline-spec" transform="translate(955.000000, 33.000000)">
                <polyline id="Path-2" stroke="#EC407A" transform="translate(4.500000, 151.860525) scale(-1, -1) translate(-4.500000, -151.860525) " points="9 9.91886972 0 9.91886972 0 293.802181"></polyline>
                <path d="M13.9999997,5 C13.9999997,7.762 11.7619997,10 8.99999983,10 C6.23799993,10 4,7.761 4,5 C4.001,2.238 6.23899992,0 9.00099983,0 C11.7629997,0 14.0009997,2.239 13.9999997,5 Z" id="Path" stroke="#EC3F7A" fill-opacity="0.3" fill="#F03F7B"></path>
            </g>
            <text id="Category-Title:-font" font-family="Roboto-Regular, Roboto" font-size="12" font-weight="normal" line-spacing="14" fill="#EC407A">
                <tspan x="403" y="11">Category Title:</tspan>
                <tspan x="403" y="25">font-family: Roboto Regular</tspan>
                <tspan x="403" y="39">font-size: 12px</tspan>
                <tspan x="403" y="53">text-transform: Uppercase</tspan>
                <tspan x="403" y="67">color: #616161 (gray 600)</tspan>
            </text>
            <text id="Key:-font-family:-Ro" font-family="Roboto-Regular, Roboto" font-size="12" font-weight="normal" line-spacing="14" fill="#EC407A">
                <tspan x="403" y="397">Key:</tspan>
                <tspan x="403" y="411">font-family: Roboto Bold </tspan>
                <tspan x="403" y="425">font-size: 16px</tspan>
                <tspan x="403" y="439">color: #424242 (Gray 900)</tspan>
                <tspan x="403" y="453"></tspan>
                <tspan x="403" y="467">Value:</tspan>
                <tspan x="403" y="481">font-family: Roboto Regular</tspan>
                <tspan x="403" y="495">font-size: 16px</tspan>
                <tspan x="403" y="509">color: #616161 (Gray 800)</tspan>
            </text>
            <text id="Divider:-border:-1px" font-family="Roboto-Regular, Roboto" font-size="12" font-weight="normal" line-spacing="14" fill="#EC407A">
                <tspan x="909.402344" y="41">Divider:</tspan>
                <tspan x="747.759766" y="55">border: 1px solid #D8D8D8 (Gray 400) </tspan>
                <tspan x="867.115234" y="69">margin: 16px  0</tspan>
            </text>
            <g id="16px" transform="translate(403.000000, 327.000000)">
                <rect id="label-bg" fill="#16B9D4" opacity="0.5" x="0" y="0" width="546" height="16"></rect>
                <text font-family="Roboto-Medium, Roboto" font-size="8" font-weight="400" line-spacing="11" fill="#FFFFFF">
                    <tspan x="264.21875" y="10">16px</tspan>
                </text>
            </g>
            <g id="16px" transform="translate(403.000000, 310.000000)">
                <rect id="label-bg" fill="#16B9D4" opacity="0.5" x="0" y="0" width="546" height="16"></rect>
                <text font-family="Roboto-Medium, Roboto" font-size="8" font-weight="400" line-spacing="11" fill="#FFFFFF">
                    <tspan x="264.21875" y="10">16px</tspan>
                </text>
            </g>
            <g id="12px" transform="translate(403.000000, 193.000000)">
                <rect id="label-bg" fill="#16B9D4" opacity="0.5" x="0" y="0" width="546" height="12"></rect>
                <text font-family="Roboto-Medium, Roboto" font-size="8" font-weight="400" line-spacing="11" fill="#FFFFFF">
                    <tspan x="264.21875" y="7">12px</tspan>
                </text>
            </g>
            <g id="12px" transform="translate(403.000000, 169.000000)">
                <rect id="label-bg" fill="#16B9D4" opacity="0.5" x="0" y="0" width="546" height="12"></rect>
                <text font-family="Roboto-Medium, Roboto" font-size="8" font-weight="400" line-spacing="11" fill="#FFFFFF">
                    <tspan x="264.21875" y="7">12px</tspan>
                </text>
            </g>
            <g id="20px" transform="translate(403.000000, 136.599976)">
                <rect id="label-bg" fill="#16B9D4" opacity="0.5" x="0" y="0" width="546" height="20"></rect>
                <text font-family="Roboto-Medium, Roboto" font-size="8" font-weight="400" line-spacing="11" fill="#FFFFFF">
                    <tspan x="264.21875" y="11">20px</tspan>
                </text>
            </g>
            <g id="10px" transform="translate(403.000000, 117.000000)">
                <rect id="label-bg" fill="#16B9D4" opacity="0.5" x="0" y="1" width="546" height="10"></rect>
                <text font-family="Roboto-Medium, Roboto" font-size="8" font-weight="400" line-spacing="11" fill="#FFFFFF">
                    <tspan x="264.21875" y="7">10px</tspan>
                </text>
            </g>
            <g id="specs-/-padding-copy" transform="translate(408.000000, 244.000000) rotate(-90.000000) translate(-408.000000, -244.000000) translate(282.000000, 239.000000)">
                <rect id="Rectangle-2-Copy" fill="#FBC02D" x="0" y="0" width="252" height="10"></rect>
                <text id="10-PX" font-family="Roboto-Medium, Roboto" font-size="9" font-weight="400" line-spacing="8" fill="#000000">
                    <tspan x="109.529297" y="6.49462891">10px</tspan>
                </text>
            </g>
        </g>
        <g id="search-assisted-default"></g>
    </g>
</svg>