<?xml version="1.0" encoding="UTF-8" standalone="no"?>
<svg width="628px" height="456px" viewBox="0 0 628 456" version="1.1" xmlns="http://www.w3.org/2000/svg" xmlns:xlink="http://www.w3.org/1999/xlink">
    <!-- Generator: Sketch 47.1 (45422) - http://www.bohemiancoding.com/sketch -->
    <title>search-assisted-loading</title>
    <desc>Created with Sketch.</desc>
    <style type="text/css">@import url('https://fonts.googleapis.com/css?family=Roboto:300,400,500');</style>
    <defs>
        <rect id="path-1" x="5.68434189e-14" y="38" width="548" height="247" rx="5"></rect>
        <rect id="path-2" x="0" y="0" width="548" height="35" rx="3"></rect>
    </defs>
    <g id="Page-1" stroke="none" stroke-width="1" fill="none" fill-rule="evenodd">
        <g id="search-assisted-loading">
            <g id="Loading-/-Processing" transform="translate(41.000000, 126.000000)">
                <g id="Dropdown">
                    <use fill="#FFFFFF" fill-rule="evenodd" xlink:href="#path-1"></use>
                    <rect stroke="#DDDDDD" stroke-width="1" x="0.5" y="38.5" width="547" height="246" rx="5"></rect>
                </g>
                <path d="M284.014322,181.623944 C283.689314,186.864374 279.309003,191.033234 274.003667,191.033234 C268.46927,191.033234 263.967154,186.532321 263.967154,180.999267 C263.967154,175.644633 268.191139,171.251627 273.48362,170.980057 L273.482686,170.512739 C267.934458,170.785283 263.5,175.389402 263.5,180.999267 C263.5,186.789631 268.211624,191.5 274.003667,191.5 C279.564169,191.5 284.156453,187.118711 284.482226,181.62395 L284.014322,181.623944 Z" id="Loading-Spinner" stroke="#9E9E9E" fill-rule="nonzero"></path>
                <g id="CENTER-Loader" transform="translate(27.000000, 104.000000)" stroke="#EC407A">
                    <g id="Left" transform="translate(110.000000, 75.500000) rotate(90.000000) translate(-110.000000, -75.500000) translate(99.500000, -34.500000)">
                        <path d="M10,0 L10,219 L10,0 Z" id="Path-2" transform="translate(10.500000, 109.500000) scale(-1, 1) translate(-10.500000, -109.500000) "></path>
                        <path d="M10,-10 L10,11 L10,-10 Z" id="Path-2" transform="translate(10.500000, 0.500000) rotate(90.000000) translate(-10.500000, -0.500000) "></path>
                        <path d="M10,209 L10,230 L10,209 Z" id="Path-2" transform="translate(10.500000, 219.500000) rotate(90.000000) translate(-10.500000, -219.500000) "></path>
                    </g>
                    <g id="Bottom" transform="translate(237.000000, 104.000000)">
                        <path d="M10,0 L10,49 L10,0 Z" id="Path-2" transform="translate(10.500000, 24.500000) scale(-1, 1) translate(-10.500000, -24.500000) "></path>
                        <path d="M10,-10 L10,11 L10,-10 Z" id="Path-2" transform="translate(10.500000, 0.500000) rotate(90.000000) translate(-10.500000, -0.500000) "></path>
                        <path d="M10,39 L10,60 L10,39 Z" id="Path-2" transform="translate(10.500000, 49.500000) rotate(90.000000) translate(-10.500000, -49.500000) "></path>
                    </g>
                    <g id="Right" transform="translate(384.000000, 75.500000) rotate(90.000000) translate(-384.000000, -75.500000) translate(373.500000, -34.500000)">
                        <path d="M10,0 L10,219 L10,0 Z" id="Path-2" transform="translate(10.500000, 109.500000) scale(-1, 1) translate(-10.500000, -109.500000) "></path>
                        <path d="M10,-10 L10,11 L10,-10 Z" id="Path-2" transform="translate(10.500000, 0.500000) rotate(90.000000) translate(-10.500000, -0.500000) "></path>
                        <path d="M10,209 L10,230 L10,209 Z" id="Path-2" transform="translate(10.500000, 219.500000) rotate(90.000000) translate(-10.500000, -219.500000) "></path>
                    </g>
                    <g id="Top" transform="translate(237.000000, 0.000000)">
                        <path d="M10,0 L10,49 L10,0 Z" id="Path-2" transform="translate(10.500000, 24.500000) scale(-1, 1) translate(-10.500000, -24.500000) "></path>
                        <path d="M10,-10 L10,11 L10,-10 Z" id="Path-2" transform="translate(10.500000, 0.500000) rotate(90.000000) translate(-10.500000, -0.500000) "></path>
                        <path d="M10,39 L10,60 L10,39 Z" id="Path-2" transform="translate(10.500000, 49.500000) rotate(90.000000) translate(-10.500000, -49.500000) "></path>
                    </g>
                </g>
                <path d="M529.5,76.9000244 L13,77" id="Divider" stroke="#D8D8D8" stroke-linecap="square"></path>
                <g id="Enter-Group" transform="translate(483.000000, 45.000000)">
                    <polygon id="subdirectory-arrow-left---MaterialIcons-Regular" fill="#616161" points="41.1135146 7.24242424 42.0510146 8.15151515 39.6447646 10.4848485 45.7697646 10.4848485 45.7697646 4 47.1135146 4 47.1135146 11.7575758 39.6447646 11.7575758 42.0510146 14.0909091 41.1135146 15 37.1135146 11.1212121"></polygon>
                    <text id="enter" font-family="Roboto-Regular, Roboto" font-size="12" font-weight="normal" line-spacing="18" fill="#424242">
                        <tspan x="0" y="11.2999992">enter</tspan>
                    </text>
                </g>
                <text id="Search-for-“ORD”" font-family="Roboto-Regular, Roboto" font-size="16" font-weight="normal" line-spacing="18" fill="#9E9E9E">
                    <tspan x="13" y="60.5">Search for “ORD”</tspan>
                </text>
                <g id="Search-Box">
                    <g id="Rectangle-7">
                        <g>
                            <use fill="#FFFFFF" fill-rule="evenodd" xlink:href="#path-2"></use>
                            <rect stroke="#E6E6E5" stroke-width="1" x="0.5" y="0.5" width="547" height="34" rx="3"></rect>
                        </g>
                    </g>
                    <g id="Search-Box-Text" transform="translate(13.000000, 9.000000)">
                        <path d="M35.443751,9.0796875 C35.443751,10.1942764 35.2562529,11.1669229 34.881251,11.9976562 C34.5062492,12.8283896 33.9750045,13.4624978 33.287501,13.9 C32.5999976,14.3375022 31.7979223,14.55625 30.881251,14.55625 C29.9854132,14.55625 29.1911503,14.3362001 28.4984385,13.8960937 C27.8057267,13.4559874 27.2679717,12.8283895 26.8851573,12.0132812 C26.5023429,11.198173 26.3057302,10.254172 26.2953135,9.18125 L26.2953135,8.3609375 C26.2953135,7.26718203 26.4854158,6.30104586 26.865626,5.4625 C27.2458363,4.62395414 27.7835913,3.98203348 28.4789073,3.53671875 C29.1742233,3.09140402 29.9697882,2.86875 30.865626,2.86875 C31.7770889,2.86875 32.5804663,3.08879988 33.2757823,3.52890625 C33.9710983,3.96901262 34.5062492,4.60702707 34.881251,5.44296875 C35.2562529,6.27891043 35.443751,7.25155695 35.443751,8.3609375 L35.443751,9.0796875 Z M33.9515635,8.3453125 C33.9515635,6.99634742 33.6807329,5.96120152 33.1390635,5.23984375 C32.5973942,4.51848598 31.8395892,4.1578125 30.865626,4.1578125 C29.9177046,4.1578125 29.1716183,4.51848598 28.6273448,5.23984375 C28.0830712,5.96120152 27.8031261,6.96249359 27.787501,8.24375 L27.787501,9.0796875 C27.787501,10.3869857 28.0622379,11.4143192 28.6117198,12.1617187 C29.1612017,12.9091183 29.9177045,13.2828125 30.881251,13.2828125 C31.8500059,13.2828125 32.5999984,12.9299514 33.131251,12.2242187 C33.6625037,11.5184861 33.9359385,10.5067774 33.9515635,9.1890625 L33.9515635,8.3453125 Z M41.865626,9.7984375 L39.193751,9.7984375 L39.193751,14.4 L37.6859385,14.4 L37.6859385,3.025 L41.4515635,3.025 C42.7328199,3.025 43.7184872,3.31666375 44.4085948,3.9 C45.0987024,4.48333625 45.443751,5.33228609 45.443751,6.446875 C45.443751,7.15521187 45.2523467,7.7723932 44.8695323,8.2984375 C44.4867179,8.8244818 43.9541711,9.21770703 43.271876,9.478125 L45.943751,14.30625 L45.943751,14.4 L44.334376,14.4 L41.865626,9.7984375 Z M39.193751,8.571875 L41.4984385,8.571875 C42.2432339,8.571875 42.8356759,8.37916859 43.2757823,7.99375 C43.7158886,7.60833141 43.9359385,7.09271156 43.9359385,6.446875 C43.9359385,5.74374648 43.7263052,5.20468937 43.3070323,4.8296875 C42.8877593,4.45468562 42.2822967,4.26458336 41.490626,4.259375 L39.193751,4.259375 L39.193751,8.571875 Z M47.5453135,14.4 L47.5453135,3.025 L50.756251,3.025 C51.7458393,3.025 52.6208306,3.24374781 53.381251,3.68125 C54.1416715,4.11875219 54.7289052,4.7411418 55.1429698,5.5484375 C55.5570343,6.3557332 55.7666677,7.28280727 55.771876,8.3296875 L55.771876,9.05625 C55.771876,10.129172 55.5648468,11.0692668 55.1507823,11.8765625 C54.7367177,12.6838582 54.1455778,13.3036437 53.3773448,13.7359375 C52.6091118,14.1682313 51.7145895,14.3895833 50.693751,14.4 L47.5453135,14.4 Z M49.0453135,4.259375 L49.0453135,13.1734375 L50.6234385,13.1734375 C51.7796943,13.1734375 52.6794249,12.8140661 53.3226573,12.0953125 C53.9658897,11.3765589 54.287501,10.3531316 54.287501,9.025 L54.287501,8.3609375 C54.287501,7.06926437 53.9841186,6.06536816 53.3773448,5.34921875 C52.7705709,4.63306934 51.9099024,4.26979172 50.7953135,4.259375 L49.0453135,4.259375 Z" id="ORD" fill="#333333"></path>
                        <g id="Icons/Search" fill="#757575">
                            <g id="search">
                                <g id="Layer_1" fill-rule="nonzero">
                                    <path d="M16.89375,15.5125 L12.1125,10.73125 C12.9625,9.5625 13.49375,8.18125 13.49375,6.69375 C13.49375,2.975 10.4125,0 6.8,0 C3.08125,0 0.10625,2.975 0.10625,6.69375 C0.10625,10.4125 3.08125,13.3875 6.8,13.3875 C8.18125,13.3875 9.5625,12.9625 10.625,12.21875 L15.40625,17 L16.89375,15.5125 Z M2.23125,6.69375 C2.23125,4.14375 4.25,2.125 6.8,2.125 C9.35,2.125 11.36875,4.14375 11.36875,6.69375 C11.36875,9.24375 9.35,11.2625 6.8,11.2625 C4.25,11.2625 2.23125,9.24375 2.23125,6.69375 Z" id="Shape"></path>
                                </g>
                            </g>
                        </g>
                        <g id="Icons/Close" transform="translate(512.000000, 2.000000)" fill="#757575">
                            <polygon id="Fill-270" points="12.322725 0.890088423 11.3483366 -0.0843 6.322725 4.94131158 1.29711342 -0.0843 0.322725 0.890088423 5.34833658 5.9157 0.322725 10.9413116 1.29711342 11.9157 6.322725 6.89008842 11.3483366 11.9157 12.322725 10.9413116 7.29711342 5.9157"></polygon>
                        </g>
                    </g>
                </g>
                <g id="16px" transform="translate(1.000000, 77.500000)">
                    <rect id="label-bg" fill="#16B9D4" opacity="0.5" x="0" y="0" width="546" height="16"></rect>
                    <text font-family="Roboto-Medium, Roboto" font-size="8" font-weight="400" line-spacing="11" fill="#FFFFFF">
                        <tspan x="264.21875" y="10">16px</tspan>
                    </text>
                </g>
                <g id="16px" transform="translate(1.000000, 60.300049)">
                    <rect id="label-bg" fill="#16B9D4" opacity="0.5" x="0" y="0" width="546" height="16"></rect>
                    <text font-family="Roboto-Medium, Roboto" font-size="8" font-weight="400" line-spacing="11" fill="#FFFFFF">
                        <tspan x="264.21875" y="10">16px</tspan>
                    </text>
                </g>
                <g id="10px" transform="translate(1.000000, 38.000000)">
                    <rect id="label-bg" fill="#16B9D4" opacity="0.5" x="0" y="1" width="546" height="10"></rect>
                    <text font-family="Roboto-Medium, Roboto" font-size="8" font-weight="400" line-spacing="11" fill="#FFFFFF">
                        <tspan x="264.21875" y="7">10px</tspan>
                    </text>
                </g>
            </g>
            <g id="_sepcs" transform="translate(22.000000, 6.000000)">
                <g id="_redline-spec" transform="translate(49.000000, 390.000000)">
                    <text id="Vertically-&amp;-horizon" font-family="Roboto-Regular, Roboto" font-size="12" font-weight="normal" line-spacing="14" fill="#EC407A">
                        <tspan x="20" y="42">Vertically &amp; horizontally center loading spinner after divider </tspan>
                    </text>
                    <path d="M4.49528344,32.5611909 L4.49528344,0" id="Stroke-8" stroke="#EC3F7A" transform="translate(4.995283, 16.500000) scale(-1, -1) translate(-4.995283, -16.500000) "></path>
                    <path d="M5.60100594,33 C8.36300584,33 10.6010058,35.239 10.6000058,38 C10.6000058,40.762 8.36200584,43 5.60000594,43 C2.83800603,43 0.600006104,40.761 0.600006104,38 C0.601006103,35.238 2.83900603,33 5.60100594,33" id="Path" stroke="#EC3F7A" fill-opacity="0.3" fill="#F03F7B"></path>
                </g>
                <g id="_redline-spec" transform="translate(0.000000, 54.000000)">
                    <g id="Group-2" transform="translate(0.000000, 4.000000)">
                        <polyline id="Path-2" stroke="#EC407A" transform="translate(9.500000, 63.858031) scale(1, -1) translate(-9.500000, -63.858031) " points="14 10.0441875 5 10.0441875 5 117.671875"></polyline>
                        <path d="M9.99999967,5 C9.99999967,7.762 7.76199974,10 4.99999983,10 C2.23799993,10 0,7.761 0,5 C0.000999999967,2.238 2.23899992,0 5.00099983,0 C7.76299974,0 10.0009997,2.239 9.99999967,5 Z" id="Path" stroke="#EC3F7A" fill-opacity="0.3" fill="#F03F7B"></path>
                    </g>
                    <text id="Search-Label:-font-f" font-family="Roboto-Regular, Roboto" font-size="12" font-weight="normal" line-spacing="14" fill="#EC407A">
                        <tspan x="19" y="11">Search Label:</tspan>
                        <tspan x="19" y="25">font-family: Roboto Regular </tspan>
                        <tspan x="19" y="39">font-size: 16px</tspan>
                        <tspan x="19" y="53">color: #9E9E9E (Gray 600)</tspan>
                    </text>
                </g>
                <g id="_redline-spec" transform="translate(419.000000, 0.000000)">
                    <g id="Group-2" transform="translate(159.000000, 89.500000) scale(-1, 1) translate(-159.000000, -89.500000) translate(152.000000, 3.000000)">
                        <polyline id="Path-2" stroke="#EC407A" transform="translate(9.500000, 91.256957) scale(1, -1) translate(-9.500000, -91.256957) " points="14 9.84203899 5 9.84203899 5 172.671875"></polyline>
                        <path d="M9.99999967,5 C9.99999967,7.762 7.76199974,10 4.99999983,10 C2.23799993,10 0,7.761 0,5 C0.000999999967,2.238 2.23899992,0 5.00099983,0 C7.76299974,0 10.0009997,2.239 9.99999967,5 Z" id="Path" stroke="#EC3F7A" fill-opacity="0.3" fill="#F03F7B"></path>
                    </g>
                    <text id="Helper-Text:-font-fa" font-family="Roboto-Regular, Roboto" font-size="12" font-weight="normal" line-spacing="14" fill="#EC407A">
                        <tspan x="84.578125" y="11">Helper Text:</tspan>
                        <tspan x="2.52929688" y="25">font-family: Roboto Regular</tspan>
                        <tspan x="69.8828125" y="39">font-size: 12px</tspan>
                        <tspan x="8.38867188" y="53">color: #424242 (Gary 900)</tspan>
                        <tspan x="148" y="67"></tspan>
                        <tspan x="91.3339844" y="81">Enter Icon:</tspan>
                        <tspan x="56.7871094" y="95">size: 10px x 11px</tspan>
                        <tspan x="8.81640625" y="109">color: #616161 (Gray 800) </tspan>
                    </text>
                </g>
            </g>
        </g>
    </g>
</svg>