<?xml version="1.0" encoding="utf-8"?>
<!-- Generator: Adobe Illustrator 19.2.1, SVG Export Plug-In . SVG Version: 6.00 Build 0)  -->
<svg version="1.1" id="Layer_1" xmlns="http://www.w3.org/2000/svg" xmlns:xlink="http://www.w3.org/1999/xlink" x="0px" y="0px"
	 viewBox="0 0 236 80" style="enable-background:new 0 0 236 80;" xml:space="preserve">
<style type="text/css">
	.st0{fill:#767677;}
	.st1{fill:#0F95A7;}
	.st2{fill:#FFFFFF;}
	.st3{fill:none;stroke:#0F95A7;stroke-width:0.9151;stroke-miterlimit:10;}
	.st4{fill:#D8D9D8;}
	.st5{fill:#616262;}
	.st6{fill:#0E7C84;}
</style>
<rect x="924" y="231.9" style="fill:none;" width="224.6" height="77.9"/>
<text transform="matrix(1.0139 0 0 1 923.9639 247.8113)"><tspan x="0" y="0" class="st0" style="font-family:'Roboto-Regular'; font-size:20.9035px;">ABCDEFGHIJKLMNO</tspan><tspan x="208.2" y="0" class="st0" style="font-family:'Roboto-Regular'; font-size:20.9035px;">P</tspan><tspan x="0" y="26.9" class="st0" style="font-family:'Roboto-Regular'; font-size:20.9035px; letter-spacing:1;">QRSTUVWXYZabcde</tspan><tspan x="214.6" y="26.9" class="st0" style="font-family:'Roboto-Regular'; font-size:20.9035px;">f</tspan><tspan x="0" y="53.8" class="st0" style="font-family:'Roboto-Regular'; font-size:20.9035px; letter-spacing:1;">ghijklmnopqrstuvwx</tspan><tspan x="211" y="53.8" class="st0" style="font-family:'Roboto-Regular'; font-size:20.9035px;">y</tspan></text>
<g>
	<path class="st1" d="M103.8,34.8H1.9c-1,0-1.9-0.8-1.9-1.9V8.3c0-1,0.8-1.9,1.9-1.9h101.9c1,0,1.9,0.8,1.9,1.9v24.6
		C105.7,33.9,104.9,34.8,103.8,34.8z"/>
	<g>
		<g>
			<path class="st2" d="M10.7,25.7v-9.4h3.1c1,0,1.9,0.2,2.4,0.6s0.9,1.1,0.9,1.9c0,0.4-0.1,0.8-0.4,1.1c-0.2,0.3-0.6,0.6-1,0.8
				c0.6,0.1,1.1,0.4,1.4,0.8s0.5,0.9,0.5,1.5c0,0.9-0.3,1.6-0.9,2c-0.6,0.5-1.4,0.7-2.4,0.7H10.7z M12.3,20.3H14
				c0.5,0,0.9-0.1,1.2-0.3s0.4-0.6,0.4-1c0-0.5-0.1-0.8-0.4-1s-0.7-0.3-1.3-0.3h-1.5V20.3z M12.3,24.5h2.1c0.5,0,1-0.1,1.3-0.4
				c0.3-0.2,0.4-0.6,0.4-1.1c0-0.5-0.1-0.9-0.4-1.1c-0.3-0.3-0.7-0.4-1.2-0.4h-0.1h-2.1V24.5z"/>
			<path class="st2" d="M18.9,22.5v-6.2h1.6v6.2c0,0.7,0.2,1.2,0.6,1.5c0.4,0.4,0.9,0.5,1.5,0.5c0.6,0,1.2-0.2,1.5-0.5
				c0.4-0.4,0.6-0.9,0.6-1.5v-6.2h1.6v6.2c0,1-0.3,1.9-1,2.5s-1.6,0.9-2.7,0.9c-1.1,0-1.9-0.3-2.6-0.9
				C19.3,24.4,18.9,23.6,18.9,22.5z"/>
			<path class="st2" d="M27.2,17.6v-1.3h7.3v1.3h-2.9v8.1h-1.6v-8.1H27.2z"/>
			<path class="st2" d="M35.2,17.6v-1.3h7.3v1.3h-2.9v8.1h-1.6v-8.1H35.2z"/>
			<path class="st2" d="M43.6,21.9v-1.7c0-1.1,0.4-2.1,1.1-2.9c0.7-0.8,1.6-1.1,2.8-1.1c1.2,0,2.1,0.4,2.8,1.1s1.1,1.7,1.1,2.9v1.7
				c0,1.2-0.4,2.1-1.1,2.9c-0.7,0.8-1.7,1.1-2.8,1.1c-1.1,0-2-0.4-2.7-1.1C44,24,43.6,23,43.6,21.9z M45.2,21.9
				c0,0.8,0.2,1.4,0.6,1.9c0.4,0.5,0.9,0.8,1.6,0.8c0.7,0,1.3-0.3,1.7-0.8c0.4-0.5,0.6-1.2,0.6-2v-1.7c0-0.8-0.2-1.4-0.6-1.9
				c-0.4-0.5-1-0.8-1.7-0.8c-0.7,0-1.2,0.3-1.6,0.8c-0.4,0.5-0.6,1.1-0.6,1.9V21.9z"/>
			<path class="st2" d="M52.7,25.7v-9.4h1.6l4.2,6.8l0,0v-6.8H60v9.4h-1.6l-4.2-6.8l0,0v6.8H52.7z"/>
			<path class="st2" d="M64.5,17.6v-1.3h7.3v1.3h-2.9v8.1h-1.6v-8.1H64.5z"/>
			<path class="st2" d="M73.2,25.7v-9.4h5.9v1.3h-4.3v2.7h3.7v1.3h-3.7v3h4.3v1.3H73.2z"/>
			<path class="st2" d="M79.9,25.7l3-4.7l-2.9-4.7h1.8l2,3.5l2-3.5h1.9L84.7,21l3,4.7h-1.9l-2-3.5l-2,3.5H79.9z"/>
			<path class="st2" d="M88,17.6v-1.3h7.3v1.3h-2.9v8.1h-1.6v-8.1H88z"/>
		</g>
	</g>
</g>
<g>
	<path class="st3" d="M101,74.5H2.3c-1,0-1.8-0.8-1.8-1.8V48.8c0-1,0.8-1.8,1.8-1.8H101c1,0,1.8,0.8,1.8,1.8v23.8
		C102.8,73.6,102,74.5,101,74.5z"/>
	<g>
		<path class="st1" d="M11,65.7v-9.1h3c1,0,1.8,0.2,2.4,0.6c0.6,0.4,0.9,1,0.9,1.9c0,0.4-0.1,0.8-0.3,1.1c-0.2,0.3-0.5,0.6-0.9,0.7
			c0.6,0.1,1,0.3,1.3,0.8c0.3,0.4,0.5,0.9,0.5,1.4c0,0.9-0.3,1.5-0.8,1.9s-1.3,0.7-2.3,0.7H11z M12.6,60.4h1.6
			c0.5,0,0.8-0.1,1.1-0.3c0.3-0.2,0.4-0.5,0.4-0.9c0-0.5-0.1-0.8-0.4-1c-0.3-0.2-0.7-0.3-1.3-0.3h-1.5V60.4z M12.6,64.5h2.1
			c0.5,0,0.9-0.1,1.2-0.4c0.3-0.2,0.4-0.6,0.4-1c0-0.5-0.1-0.8-0.4-1.1c-0.3-0.3-0.7-0.4-1.2-0.4h-0.1h-2V64.5z"/>
		<path class="st1" d="M19,62.6v-6h1.5v6c0,0.6,0.2,1.1,0.5,1.5s0.8,0.5,1.4,0.5c0.6,0,1.1-0.2,1.5-0.5c0.4-0.4,0.6-0.9,0.6-1.5v-6
			h1.5v6c0,1-0.3,1.8-1,2.4s-1.5,0.9-2.6,0.9c-1,0-1.9-0.3-2.5-0.9S19,63.6,19,62.6z"/>
		<path class="st1" d="M27,57.8v-1.2h7.1v1.2h-2.8v7.9h-1.5v-7.9H27z"/>
		<path class="st1" d="M34.7,57.8v-1.2h7.1v1.2H39v7.9h-1.5v-7.9H34.7z"/>
		<path class="st1" d="M42.9,62v-1.6c0-1.1,0.3-2,1-2.8c0.7-0.7,1.6-1.1,2.7-1.1c1.1,0,2,0.4,2.7,1.1s1.1,1.7,1.1,2.8V62
			c0,1.1-0.3,2-1,2.8c-0.7,0.7-1.6,1.1-2.7,1.1c-1.1,0-2-0.4-2.7-1.1C43.2,64,42.9,63.1,42.9,62z M44.4,62c0,0.8,0.2,1.4,0.6,1.9
			c0.4,0.5,0.9,0.7,1.6,0.7c0.7,0,1.2-0.2,1.6-0.7c0.4-0.5,0.6-1.1,0.6-1.9v-1.7c0-0.8-0.2-1.4-0.6-1.9c-0.4-0.5-1-0.7-1.6-0.7
			c-0.7,0-1.2,0.2-1.6,0.7c-0.4,0.5-0.6,1.1-0.6,1.9V62z"/>
		<path class="st1" d="M51.7,65.7v-9.1h1.5l4,6.6l0,0v-6.5h1.5v9.1h-1.5l-4-6.6l0,0v6.5H51.7z"/>
		<path class="st1" d="M63,57.8v-1.2h7.1v1.2h-2.8v7.9h-1.5v-7.9H63z"/>
		<path class="st1" d="M71.5,65.7v-9.1h5.7v1.2h-4.2v2.6h3.6v1.2h-3.6v2.9h4.2v1.2H71.5z"/>
		<path class="st1" d="M78,65.7l2.9-4.6L78,56.6h1.8l1.9,3.4l1.9-3.4h1.8l-2.8,4.5l2.9,4.6h-1.8l-2-3.4l-2,3.4H78z"/>
		<path class="st1" d="M85.9,57.8v-1.2H93v1.2h-2.8v7.9h-1.5v-7.9H85.9z"/>
	</g>
</g>
<g>
	<path class="st4" d="M234.1,34.6H133.2c-1,0-1.9-0.8-1.9-1.9V8.4c0-1,0.8-1.9,1.9-1.9h100.9c1,0,1.9,0.8,1.9,1.9v24.3
		C236,33.8,235.2,34.6,234.1,34.6z"/>
	<g>
		<g>
			<path class="st5" d="M141,25.3v-9.3h3.1c1,0,1.8,0.2,2.4,0.6c0.6,0.4,0.9,1.1,0.9,1.9c0,0.4-0.1,0.8-0.3,1.1
				c-0.2,0.3-0.6,0.6-1,0.7c0.6,0.1,1.1,0.4,1.4,0.8s0.5,0.9,0.5,1.5c0,0.9-0.3,1.5-0.9,2c-0.6,0.5-1.4,0.7-2.4,0.7H141z
				 M142.5,19.9h1.7c0.5,0,0.9-0.1,1.1-0.3c0.3-0.2,0.4-0.6,0.4-1c0-0.5-0.1-0.8-0.4-1c-0.3-0.2-0.7-0.3-1.3-0.3h-1.5V19.9z
				 M142.5,24h2.1c0.5,0,1-0.1,1.2-0.4c0.3-0.2,0.4-0.6,0.4-1.1c0-0.5-0.1-0.8-0.4-1.1s-0.7-0.4-1.2-0.4h-0.1h-2.1V24z"/>
			<path class="st5" d="M149.1,22.1v-6.1h1.6v6.1c0,0.7,0.2,1.2,0.6,1.5c0.4,0.4,0.9,0.5,1.5,0.5c0.6,0,1.1-0.2,1.5-0.5
				c0.4-0.4,0.6-0.9,0.6-1.5v-6.1h1.6v6.1c0,1-0.3,1.8-1,2.4c-0.7,0.6-1.6,0.9-2.6,0.9c-1.1,0-1.9-0.3-2.6-0.9
				C149.4,23.9,149.1,23.1,149.1,22.1z"/>
			<path class="st5" d="M157.3,17.2v-1.2h7.3v1.2h-2.9v8.1h-1.6v-8.1H157.3z"/>
			<path class="st5" d="M165.2,17.2v-1.2h7.3v1.2h-2.9v8.1H168v-8.1H165.2z"/>
			<path class="st5" d="M173.5,21.4v-1.7c0-1.1,0.3-2.1,1-2.8s1.6-1.1,2.7-1.1c1.1,0,2.1,0.4,2.8,1.1s1.1,1.7,1.1,2.8v1.7
				c0,1.1-0.4,2.1-1.1,2.8c-0.7,0.7-1.6,1.1-2.8,1.1c-1.1,0-2-0.4-2.7-1.1C173.9,23.5,173.5,22.6,173.5,21.4z M175.1,21.4
				c0,0.8,0.2,1.4,0.6,1.9c0.4,0.5,0.9,0.8,1.6,0.8c0.7,0,1.3-0.2,1.7-0.7c0.4-0.5,0.6-1.1,0.6-1.9v-1.7c0-0.8-0.2-1.4-0.6-1.9
				c-0.4-0.5-1-0.7-1.7-0.7c-0.7,0-1.2,0.2-1.6,0.7c-0.4,0.5-0.6,1.1-0.6,1.9V21.4z"/>
			<path class="st5" d="M182.5,25.3v-9.3h1.6l4.1,6.7l0,0v-6.7h1.6v9.3h-1.6l-4.1-6.7l0,0v6.7H182.5z"/>
			<path class="st5" d="M194.2,17.2v-1.2h7.3v1.2h-2.9v8.1H197v-8.1H194.2z"/>
			<path class="st5" d="M202.8,25.3v-9.3h5.8v1.2h-4.3v2.6h3.6v1.2h-3.6v3h4.3v1.2H202.8z"/>
			<path class="st5" d="M209.4,25.3l2.9-4.7l-2.9-4.6h1.8l1.9,3.4l2-3.4h1.8l-2.9,4.6l3,4.7h-1.9l-2-3.5l-2,3.5H209.4z"/>
			<path class="st5" d="M217.5,17.2v-1.2h7.3v1.2h-2.9v8.1h-1.6v-8.1H217.5z"/>
		</g>
	</g>
</g>
<g>
	<g>
		<g>
			<path class="st6" d="M141,65.4v-9.3h3.1c1,0,1.8,0.2,2.4,0.6c0.6,0.4,0.9,1.1,0.9,1.9c0,0.4-0.1,0.8-0.3,1.1
				c-0.2,0.3-0.6,0.6-1,0.7c0.6,0.1,1.1,0.4,1.4,0.8s0.5,0.9,0.5,1.5c0,0.9-0.3,1.5-0.9,2c-0.6,0.5-1.4,0.7-2.4,0.7H141z M142.5,60
				h1.7c0.5,0,0.9-0.1,1.1-0.3s0.4-0.6,0.4-1c0-0.5-0.1-0.8-0.4-1c-0.3-0.2-0.7-0.3-1.3-0.3h-1.5V60z M142.5,64.2h2.1
				c0.5,0,1-0.1,1.2-0.4s0.4-0.6,0.4-1.1c0-0.5-0.1-0.8-0.4-1.1c-0.3-0.3-0.7-0.4-1.2-0.4h-0.1h-2.1V64.2z"/>
			<path class="st6" d="M149.1,62.2v-6.1h1.6v6.1c0,0.7,0.2,1.2,0.6,1.5s0.9,0.5,1.5,0.5c0.6,0,1.1-0.2,1.5-0.5s0.6-0.9,0.6-1.5
				v-6.1h1.6v6.1c0,1-0.3,1.8-1,2.4c-0.7,0.6-1.6,0.9-2.6,0.9c-1.1,0-1.9-0.3-2.6-0.9C149.4,64.1,149.1,63.3,149.1,62.2z"/>
			<path class="st6" d="M157.3,57.4v-1.2h7.3v1.2h-2.9v8.1h-1.6v-8.1H157.3z"/>
			<path class="st6" d="M165.2,57.4v-1.2h7.3v1.2h-2.9v8.1H168v-8.1H165.2z"/>
			<path class="st6" d="M173.5,61.6v-1.7c0-1.1,0.3-2.1,1-2.8c0.7-0.8,1.6-1.1,2.7-1.1c1.1,0,2.1,0.4,2.8,1.1
				c0.7,0.8,1.1,1.7,1.1,2.8v1.7c0,1.1-0.4,2.1-1.1,2.8c-0.7,0.7-1.6,1.1-2.8,1.1c-1.1,0-2-0.4-2.7-1.1
				C173.9,63.7,173.5,62.7,173.5,61.6z M175.1,61.6c0,0.8,0.2,1.4,0.6,1.9s0.9,0.8,1.6,0.8c0.7,0,1.3-0.2,1.7-0.7
				c0.4-0.5,0.6-1.1,0.6-1.9v-1.7c0-0.8-0.2-1.4-0.6-1.9s-1-0.7-1.7-0.7c-0.7,0-1.2,0.2-1.6,0.7s-0.6,1.1-0.6,1.9V61.6z"/>
			<path class="st6" d="M182.5,65.4v-9.3h1.6l4.1,6.7l0,0v-6.7h1.6v9.3h-1.6l-4.1-6.7l0,0v6.7H182.5z"/>
			<path class="st6" d="M194.2,57.4v-1.2h7.3v1.2h-2.9v8.1H197v-8.1H194.2z"/>
			<path class="st6" d="M202.8,65.4v-9.3h5.8v1.2h-4.3V60h3.6v1.2h-3.6v3h4.3v1.2H202.8z"/>
			<path class="st6" d="M209.4,65.4l2.9-4.7l-2.9-4.6h1.8l1.9,3.4l2-3.4h1.8l-2.9,4.6l3,4.7h-1.9l-2-3.5l-2,3.5H209.4z"/>
			<path class="st6" d="M217.5,57.4v-1.2h7.3v1.2h-2.9v8.1h-1.6v-8.1H217.5z"/>
		</g>
	</g>
</g>
</svg>
