<?xml version="1.0" encoding="utf-8"?>
<!-- Generator: Adobe Illustrator 19.2.1, SVG Export Plug-In . SVG Version: 6.00 Build 0)  -->
<svg version="1.1" id="Layer_5" xmlns="http://www.w3.org/2000/svg" xmlns:xlink="http://www.w3.org/1999/xlink" x="0px" y="0px"
	 viewBox="0 0 96 96" style="enable-background:new 0 0 96 96;" xml:space="preserve">
<style type="text/css">
	.st0{fill:#FFFFFF;}
	.st1{fill:#BDBDBD;}
	.st2{fill:#616262;}
	.st3{font-family:'Roboto-Regular';}
	.st4{font-size:14.5615px;}
	.st5{fill:#0F95A7;}
	.st6{fill:#F04B29;}
</style>
<g>
	<g>
		<path class="st0" d="M2.1,24.6c-0.6,0-1.1-0.5-1.1-1.1V1.8c0-0.6,0.5-1.1,1.1-1.1h92.1c0.6,0,1.1,0.5,1.1,1.1v21.6
			c0,0.6-0.5,1.1-1.1,1.1H2.1z"/>
		<path class="st1" d="M94.2,1.4c0.3,0,0.5,0.2,0.5,0.5v21.6c0,0.3-0.2,0.5-0.5,0.5H2.1c-0.3,0-0.5-0.2-0.5-0.5V1.8
			c0-0.3,0.2-0.5,0.5-0.5H94.2 M94.2,0H2.1c-1,0-1.8,0.8-1.8,1.8v21.6c0,1,0.8,1.8,1.8,1.8h92.1c1,0,1.8-0.8,1.8-1.8V1.8
			C96,0.8,95.2,0,94.2,0L94.2,0z"/>
	</g>
	<text transform="matrix(1.0008 0 0 1 12.1675 18.4292)" class="st2 st3 st4">Text Inputs</text>
</g>
<g>
	<g>
		<path class="st0" d="M1.8,59.6c-0.6,0-1.1-0.5-1.1-1.1V36.9c0-0.6,0.5-1.1,1.1-1.1h92.1c0.6,0,1.1,0.5,1.1,1.1v21.6
			c0,0.6-0.5,1.1-1.1,1.1H1.8z"/>
		<path class="st5" d="M93.9,36.4c0.3,0,0.5,0.2,0.5,0.5v21.6c0,0.3-0.2,0.5-0.5,0.5H1.8c-0.3,0-0.5-0.2-0.5-0.5V36.9
			c0-0.3,0.2-0.5,0.5-0.5H93.9 M93.9,35H1.8c-1,0-1.8,0.8-1.8,1.8v21.6c0,1,0.8,1.8,1.8,1.8h92.1c1,0,1.8-0.8,1.8-1.8V36.9
			C95.7,35.9,94.9,35,93.9,35L93.9,35z"/>
	</g>
	<text transform="matrix(1.0008 0 0 1 12.1665 51.1855)" class="st2 st3 st4">Text Inputs</text>
</g>
<g>
	<g>
		<path class="st0" d="M2.1,95.3c-0.6,0-1.1-0.5-1.1-1.1V72.6c0-0.6,0.5-1.1,1.1-1.1h92.1c0.6,0,1.1,0.5,1.1,1.1v21.6
			c0,0.6-0.5,1.1-1.1,1.1H2.1z"/>
		<path class="st6" d="M94.2,72.1c0.3,0,0.5,0.2,0.5,0.5v21.6c0,0.3-0.2,0.5-0.5,0.5H2.1c-0.3,0-0.5-0.2-0.5-0.5V72.6
			c0-0.3,0.2-0.5,0.5-0.5H94.2 M94.2,70.8H2.1c-1,0-1.8,0.8-1.8,1.8v21.6c0,1,0.8,1.8,1.8,1.8h92.1c1,0,1.8-0.8,1.8-1.8V72.6
			C96,71.6,95.2,70.8,94.2,70.8L94.2,70.8z"/>
	</g>
	<g>
		<text transform="matrix(1.0008 0 0 1 12.1665 88.5732)" class="st2 st3 st4">Text Inputs</text>
	</g>
</g>
</svg>
