<?xml version="1.0" encoding="utf-8"?>
<!-- Generator: Adobe Illustrator 19.2.1, SVG Export Plug-In . SVG Version: 6.00 Build 0)  -->
<svg version="1.1" id="Layer_1" xmlns="http://www.w3.org/2000/svg" xmlns:xlink="http://www.w3.org/1999/xlink" x="0px" y="0px"
	 viewBox="0 0 96 96" style="enable-background:new 0 0 96 96;" xml:space="preserve">
<style type="text/css">
	.st0{fill:#0F95A7;}
	.st1{fill:#FFFFFF;}
	.st2{font-family:'Roboto-Medium';}
	.st3{font-size:12.1546px;}
	.st4{fill:#D8D9D8;}
	.st5{fill:#757576;}
	.st6{font-size:12.0352px;}
</style>
<g>
	<path class="st0" d="M94.4,26H1.6c-1,0-1.7-0.8-1.7-1.7V1.7c0-1,0.8-1.7,1.7-1.7h92.8c1,0,1.7,0.8,1.7,1.7v22.6
		C96.1,25.3,95.3,26,94.4,26z"/>
	<g>
		<text transform="matrix(0.9911 0 0 1 8.5387 17.7388)" class="st1 st2 st3">button text</text>
	</g>
</g>
<g>
	<g>
		<path class="st0" d="M94.4,35.6c0.5,0,0.9,0.4,0.9,0.9v22.6c0,0.5-0.4,0.9-0.9,0.9H1.6c-0.5,0-0.9-0.4-0.9-0.9V36.5
			c0-0.5,0.4-0.9,0.9-0.9H94.4 M94.4,34.8H1.6c-1,0-1.7,0.8-1.7,1.7v22.6c0,1,0.8,1.7,1.7,1.7h92.8c1,0,1.7-0.8,1.7-1.7V36.5
			C96.1,35.5,95.3,34.8,94.4,34.8L94.4,34.8z"/>
	</g>
	<text transform="matrix(0.9911 0 0 1 8.7028 52.5078)" class="st0 st2 st3">button text</text>
</g>
<g>
	<path class="st4" d="M93.9,96H2.1c-0.9,0-1.7-0.8-1.7-1.7V71.9c0-0.9,0.8-1.7,1.7-1.7h91.9c0.9,0,1.7,0.8,1.7,1.7v22.4
		C95.6,95.2,94.9,96,93.9,96z"/>
	<g>
		<text transform="matrix(0.9911 0 0 1 8.0226 87.4023)" class="st5 st2 st6">button text</text>
	</g>
</g>
</svg>
