<?xml version="1.0" encoding="utf-8"?>
<!-- Generator: Adobe Illustrator 19.2.1, SVG Export Plug-In . SVG Version: 6.00 Build 0)  -->
<svg version="1.1" id="Layer_1" xmlns="http://www.w3.org/2000/svg" xmlns:xlink="http://www.w3.org/1999/xlink" x="0px" y="0px"
	 viewBox="0 0 236 80" style="enable-background:new 0 0 236 80;" xml:space="preserve">
<style type="text/css">
	.st0{fill:#F47C20;}
	.st1{fill:#616262;}
	.st2{fill:#FFFFFF;}
	.st3{fill:#BDBDBD;}
	.st4{fill:#9D9D9D;}
	.st5{fill:#0F95A7;}
</style>
<path class="st0" d="M1.1,40.9l0.3-1.1L3,40.5L3,38.7h1.2l-0.1,1.8l1.6-0.6L6,41l-1.6,0.5l1,1.4l-0.9,0.7l-1-1.5l-1,1.4l-0.9-0.6
	l1.1-1.4L1.1,40.9z"/>
<path class="st1" d="M11.1,46.1v-10h3.8c1.1,0,1.9,0.3,2.5,0.8c0.6,0.5,0.9,1.3,0.9,2.2c0,0.9-0.3,1.6-0.9,2.2
	c-0.6,0.5-1.4,0.8-2.5,0.8h-2.5v4H11.1z M12.5,41.1h2.5c0.7,0,1.2-0.2,1.5-0.5c0.3-0.4,0.5-0.8,0.5-1.4s-0.2-1-0.5-1.4
	c-0.3-0.4-0.8-0.6-1.5-0.6h-2.5V41.1z"/>
<path class="st1" d="M18.6,44.1c0-0.7,0.3-1.3,0.9-1.7c0.6-0.4,1.3-0.6,2.3-0.6h1.5v-0.7c0-0.4-0.1-0.8-0.4-1
	c-0.3-0.3-0.6-0.4-1.1-0.4c-0.4,0-0.8,0.1-1.1,0.3s-0.4,0.5-0.4,0.8l-1.3,0l0,0c0,0,0-0.1,0-0.1c0-0.5,0.3-1,0.8-1.4
	c0.5-0.4,1.2-0.7,2.1-0.7c0.8,0,1.5,0.2,2,0.6c0.5,0.4,0.8,1,0.8,1.8v3.6c0,0.3,0,0.5,0,0.8c0,0.2,0.1,0.5,0.1,0.7h-1.4
	c0-0.2-0.1-0.4-0.1-0.6c0-0.2,0-0.3,0-0.5c-0.2,0.4-0.6,0.7-1,0.9c-0.4,0.2-0.8,0.4-1.3,0.4c-0.8,0-1.4-0.2-1.8-0.6
	C18.8,45.3,18.6,44.7,18.6,44.1z M20,44.1c0,0.3,0.1,0.6,0.3,0.8c0.2,0.2,0.5,0.3,0.9,0.3c0.5,0,0.9-0.1,1.3-0.4
	c0.4-0.3,0.6-0.5,0.8-0.9v-1.2h-1.5c-0.5,0-1,0.1-1.3,0.4C20.1,43.4,20,43.7,20,44.1z"/>
<path class="st1" d="M25.8,43.9L25.8,43.9l1.3,0c0,0.5,0.2,0.8,0.5,1c0.3,0.2,0.7,0.3,1.2,0.3c0.5,0,0.9-0.1,1.1-0.3
	c0.3-0.2,0.4-0.5,0.4-0.8c0-0.3-0.1-0.5-0.3-0.7c-0.2-0.2-0.7-0.4-1.3-0.5c-0.9-0.2-1.5-0.4-2-0.8c-0.5-0.3-0.7-0.8-0.7-1.4
	c0-0.6,0.3-1.1,0.8-1.5c0.5-0.4,1.2-0.6,2-0.6c0.9,0,1.6,0.2,2.1,0.7c0.5,0.4,0.8,0.9,0.8,1.5c0,0,0,0.1,0,0.1l0,0h-1.4
	c0-0.3-0.1-0.6-0.4-0.9c-0.3-0.3-0.6-0.4-1.1-0.4c-0.5,0-0.8,0.1-1.1,0.3c-0.2,0.2-0.4,0.5-0.4,0.8c0,0.3,0.1,0.5,0.3,0.7
	c0.2,0.2,0.6,0.3,1.3,0.4c0.9,0.2,1.6,0.5,2.1,0.8c0.5,0.4,0.7,0.8,0.7,1.4c0,0.7-0.3,1.2-0.8,1.6c-0.5,0.4-1.2,0.6-2.1,0.6
	c-0.9,0-1.7-0.2-2.2-0.7C26.1,45.1,25.8,44.6,25.8,43.9C25.8,43.9,25.8,43.9,25.8,43.9z"/>
<path class="st1" d="M32.7,43.9L32.7,43.9l1.3,0c0,0.5,0.2,0.8,0.5,1c0.3,0.2,0.7,0.3,1.2,0.3c0.5,0,0.9-0.1,1.1-0.3
	c0.3-0.2,0.4-0.5,0.4-0.8c0-0.3-0.1-0.5-0.3-0.7s-0.7-0.4-1.3-0.5c-0.9-0.2-1.5-0.4-2-0.8s-0.7-0.8-0.7-1.4c0-0.6,0.3-1.1,0.8-1.5
	c0.5-0.4,1.2-0.6,2-0.6c0.9,0,1.6,0.2,2.1,0.7c0.5,0.4,0.8,0.9,0.8,1.5c0,0,0,0.1,0,0.1l0,0h-1.4c0-0.3-0.1-0.6-0.4-0.9
	c-0.3-0.3-0.6-0.4-1.1-0.4c-0.5,0-0.8,0.1-1.1,0.3c-0.2,0.2-0.4,0.5-0.4,0.8c0,0.3,0.1,0.5,0.3,0.7c0.2,0.2,0.6,0.3,1.3,0.4
	c0.9,0.2,1.6,0.5,2.1,0.8c0.5,0.4,0.7,0.8,0.7,1.4c0,0.7-0.3,1.2-0.8,1.6c-0.5,0.4-1.2,0.6-2.1,0.6c-0.9,0-1.7-0.2-2.2-0.7
	C33,45.1,32.7,44.6,32.7,43.9C32.7,43.9,32.7,43.9,32.7,43.9z"/>
<path class="st1" d="M39.1,38.7h1.4l1.2,4.7l0.2,1h0l0.2-1l1.5-4.7h1.1l1.5,4.7l0.2,1.1h0l0.2-1.1l1.1-4.7H49l-2.1,7.4h-1.1
	l-1.5-4.5L44,40.4h0l-0.3,1.2l-1.4,4.5h-1.1L39.1,38.7z"/>
<path class="st1" d="M49.5,42.5v-0.2c0-1.1,0.3-2,0.9-2.7c0.6-0.7,1.4-1.1,2.4-1.1c1,0,1.8,0.4,2.4,1.1c0.6,0.7,0.9,1.6,0.9,2.7v0.2
	c0,1.1-0.3,2-0.9,2.7c-0.6,0.7-1.4,1.1-2.4,1.1c-1,0-1.8-0.4-2.4-1.1C49.8,44.5,49.5,43.6,49.5,42.5z M50.8,42.5
	c0,0.8,0.2,1.4,0.5,1.9c0.3,0.5,0.8,0.8,1.5,0.8c0.6,0,1.1-0.3,1.5-0.8s0.5-1.2,0.5-1.9v-0.2c0-0.8-0.2-1.4-0.5-1.9
	c-0.3-0.5-0.8-0.8-1.5-0.8c-0.6,0-1.1,0.3-1.5,0.8c-0.3,0.5-0.5,1.2-0.5,1.9V42.5z"/>
<path class="st1" d="M57.4,46.1v-7.4h1.2l0.1,1.1c0.2-0.4,0.5-0.7,0.8-0.9c0.3-0.2,0.7-0.3,1.1-0.3c0.1,0,0.2,0,0.3,0
	c0.1,0,0.2,0,0.2,0.1l-0.2,1.3l-0.7,0c-0.4,0-0.7,0.1-0.9,0.3s-0.4,0.4-0.6,0.7v5.3H57.4z"/>
<path class="st1" d="M61.7,42.7v-0.1c0-1.2,0.3-2.1,0.8-2.9c0.5-0.7,1.2-1.1,2.1-1.1c0.4,0,0.8,0.1,1.1,0.2c0.3,0.2,0.6,0.4,0.9,0.7
	v-4.1h1.3v10.7h-1l-0.2-0.9c-0.2,0.4-0.5,0.6-0.9,0.8c-0.4,0.2-0.8,0.3-1.2,0.3c-0.9,0-1.6-0.3-2.1-1C61.9,44.6,61.7,43.8,61.7,42.7
	z M63,42.7c0,0.7,0.2,1.3,0.5,1.8c0.3,0.4,0.8,0.7,1.4,0.7c0.4,0,0.7-0.1,1-0.3c0.3-0.2,0.5-0.4,0.7-0.8v-3.5
	c-0.2-0.3-0.4-0.5-0.7-0.7s-0.6-0.3-1-0.3c-0.6,0-1.1,0.3-1.4,0.8C63.2,41,63,41.7,63,42.6V42.7z"/>
<path class="st2" d="M232.7,25.5H3.3c-1.6,0-2.8-1.3-2.8-2.8V3.3c0-1.6,1.3-2.8,2.8-2.8h229.4c1.6,0,2.8,1.3,2.8,2.8v19.3
	C235.5,24.2,234.2,25.5,232.7,25.5z"/>
<path class="st3" d="M232.7,26H3.3C1.5,26,0,24.5,0,22.7V3.3C0,1.5,1.5,0,3.3,0h229.4c1.8,0,3.3,1.5,3.3,3.3v19.3
	C236,24.5,234.5,26,232.7,26z M3.3,1C2,1,1,2,1,3.3v19.3C1,24,2,25,3.3,25h229.4c1.3,0,2.4-1.1,2.4-2.4V3.3C235,2,234,1,232.7,1H3.3
	z"/>
<path class="st4" d="M12.9,18.4l1.6-10.3h4.2c1.1,0,2,0.3,2.5,0.9c0.5,0.5,0.7,1,0.7,1.7c0,0.2,0,0.3,0,0.5c-0.2,1-0.6,1.7-1.3,2.3
	c-0.7,0.5-1.7,0.8-2.8,0.8H15l-0.6,4.1H12.9z M15.2,13.2h2.7c0.7,0,1.3-0.2,1.7-0.6c0.4-0.4,0.7-0.8,0.8-1.4c0-0.1,0-0.3,0-0.4
	c0-0.4-0.1-0.8-0.3-1c-0.3-0.4-0.8-0.6-1.6-0.6h-2.7L15.2,13.2z"/>
<path class="st4" d="M21.4,18.4l1.7-11h1.5l-1.7,11H21.4z"/>
<path class="st4" d="M24.9,16.2c0.1-0.8,0.5-1.3,1.2-1.7c0.7-0.4,1.6-0.6,2.7-0.6h1.6l0.1-0.8c0-0.1,0-0.2,0-0.3
	c0-0.3-0.1-0.6-0.3-0.8c-0.2-0.3-0.6-0.4-1.2-0.4c-0.5,0-0.9,0.1-1.2,0.3c-0.3,0.2-0.5,0.5-0.6,0.8l-1.4,0l0,0
	c0.1-0.6,0.4-1.1,1.1-1.5c0.7-0.4,1.4-0.7,2.4-0.7c0.9,0,1.6,0.2,2.1,0.7c0.4,0.4,0.6,0.8,0.6,1.5c0,0.1,0,0.3,0,0.5l-0.6,3.6
	c0,0.3-0.1,0.6-0.1,0.8c0,0,0,0.1,0,0.1c0,0.2,0,0.4,0.1,0.6h-1.5c0-0.3,0-0.5,0-0.6s0-0.3,0-0.5c-0.3,0.4-0.7,0.7-1.2,0.9
	c-0.5,0.2-1,0.4-1.5,0.4c-0.8,0-1.4-0.2-1.8-0.6c-0.3-0.3-0.5-0.7-0.5-1.2C24.8,16.5,24.9,16.4,24.9,16.2z M26.3,16.3
	c0,0.1,0,0.2,0,0.2c0,0.2,0.1,0.4,0.2,0.6c0.2,0.2,0.5,0.3,1,0.3c0.5,0,1-0.1,1.5-0.4c0.5-0.3,0.8-0.6,1-0.9l0.2-1.2h-1.7
	c-0.6,0-1.1,0.1-1.5,0.4C26.6,15.6,26.4,15.9,26.3,16.3z"/>
<path class="st4" d="M33,14.7l0-0.3c0.2-1.1,0.6-2,1.4-2.7s1.7-1.1,2.8-1.1c0.9,0,1.6,0.3,2.1,0.8c0.4,0.4,0.6,0.9,0.6,1.5
	c0,0.2,0,0.3,0,0.5l0,0h-1.3c0-0.1,0-0.2,0-0.3c0-0.4-0.1-0.7-0.3-0.9c-0.3-0.3-0.6-0.5-1.1-0.5c-0.7,0-1.3,0.3-1.7,0.8
	c-0.4,0.5-0.7,1.2-0.8,1.9l0,0.3c0,0.3-0.1,0.5-0.1,0.8c0,0.5,0.1,0.9,0.2,1.2c0.2,0.5,0.7,0.8,1.5,0.8c0.4,0,0.8-0.1,1.2-0.4
	c0.4-0.3,0.6-0.6,0.7-1h1.3l0,0c-0.1,0.7-0.5,1.3-1.2,1.8c-0.7,0.5-1.4,0.7-2.3,0.7c-1.1,0-1.9-0.4-2.4-1.1c-0.4-0.6-0.6-1.2-0.6-2
	C33,15.2,33,15,33,14.7z"/>
<path class="st4" d="M40.5,14.7l0.1-0.3c0.2-1.1,0.6-2.1,1.4-2.7c0.8-0.7,1.7-1,2.6-1c1,0,1.8,0.3,2.2,1c0.3,0.5,0.5,1.1,0.5,1.7
	c0,0.2,0,0.5-0.1,0.8l-0.1,0.7H42c0,0.2-0.1,0.4-0.1,0.7c0,0.5,0.1,0.9,0.3,1.3c0.3,0.5,0.8,0.7,1.5,0.7c0.5,0,0.9-0.1,1.3-0.2
	c0.4-0.1,0.8-0.3,1.1-0.5l0.4,0.9c-0.3,0.3-0.7,0.5-1.2,0.7c-0.5,0.2-1.1,0.3-1.8,0.3c-1.1,0-2-0.4-2.5-1.1c-0.4-0.5-0.6-1.2-0.6-2
	C40.4,15.2,40.5,15,40.5,14.7z M42.2,13.7L42.2,13.7l3.7,0l0-0.1c0-0.2,0-0.3,0-0.5c0-0.4-0.1-0.7-0.2-0.9c-0.2-0.4-0.6-0.5-1.3-0.5
	c-0.5,0-0.9,0.2-1.3,0.6C42.7,12.6,42.4,13.1,42.2,13.7z"/>
<path class="st4" d="M47.8,18.4l1.7-11H51l-0.7,4.3c0.3-0.4,0.7-0.6,1.2-0.8c0.4-0.2,0.9-0.3,1.4-0.3c0.8,0,1.5,0.2,1.9,0.7
	c0.3,0.4,0.5,0.9,0.4,1.5c0,0.2,0,0.5-0.1,0.8l-0.8,4.8h-1.5l0.8-4.8c0-0.2,0-0.4,0-0.5c0-0.4-0.1-0.7-0.2-0.9
	c-0.2-0.3-0.6-0.4-1.2-0.4c-0.4,0-0.8,0.1-1.2,0.3c-0.4,0.2-0.7,0.4-0.9,0.7l-0.9,5.7H47.8z"/>
<path class="st4" d="M56,14.6l0-0.2c0.2-1.2,0.7-2.1,1.4-2.8c0.8-0.7,1.7-1.1,2.8-1.1c1.1,0,1.9,0.4,2.4,1.1c0.4,0.6,0.6,1.2,0.6,2
	c0,0.2,0,0.5-0.1,0.8l0,0.2c-0.2,1.2-0.7,2.1-1.4,2.8c-0.8,0.7-1.7,1.1-2.8,1.1c-1.1,0-1.9-0.4-2.4-1.1c-0.4-0.6-0.6-1.2-0.6-2
	C55.9,15.2,56,14.9,56,14.6z M57.5,14.6c0,0.3-0.1,0.5-0.1,0.8c0,0.5,0.1,0.9,0.3,1.3c0.3,0.5,0.8,0.8,1.5,0.8
	c0.7,0,1.2-0.3,1.7-0.8c0.5-0.5,0.8-1.2,0.9-2l0-0.2c0-0.3,0.1-0.5,0.1-0.7c0-0.5-0.1-0.9-0.3-1.3c-0.3-0.5-0.8-0.8-1.5-0.8
	c-0.7,0-1.2,0.3-1.7,0.8c-0.5,0.5-0.8,1.2-0.9,2L57.5,14.6z"/>
<path class="st4" d="M63.2,18.4l1.7-11h1.5l-1.7,11H63.2z"/>
<path class="st4" d="M67.1,14.8l0-0.1c0.2-1.3,0.6-2.3,1.3-3c0.7-0.7,1.5-1.1,2.5-1.1c0.5,0,0.9,0.1,1.2,0.3s0.6,0.4,0.8,0.8
	l0.7-4.2h1.5l-1.7,11h-1.1l-0.1-1c-0.3,0.4-0.7,0.6-1.1,0.8c-0.4,0.2-0.9,0.3-1.4,0.3c-1,0-1.7-0.3-2.1-1C67.2,17,67,16.4,67,15.7
	C67,15.4,67,15.1,67.1,14.8z M68.6,14.8c0,0.3-0.1,0.5-0.1,0.7c0,0.5,0.1,0.8,0.3,1.1c0.3,0.5,0.7,0.7,1.5,0.7
	c0.4,0,0.8-0.1,1.1-0.3c0.3-0.2,0.6-0.5,0.9-0.8l0.6-3.5c-0.1-0.3-0.3-0.6-0.6-0.8s-0.6-0.3-1-0.3c-0.7,0-1.2,0.3-1.7,0.8
	c-0.4,0.6-0.7,1.3-0.9,2.1L68.6,14.8z"/>
<path class="st4" d="M75.2,14.7l0.1-0.3c0.2-1.1,0.6-2.1,1.4-2.7c0.8-0.7,1.7-1,2.6-1c1,0,1.8,0.3,2.2,1c0.3,0.5,0.5,1.1,0.5,1.7
	c0,0.2,0,0.5-0.1,0.8l-0.1,0.7h-5.2c0,0.2-0.1,0.4-0.1,0.7c0,0.5,0.1,0.9,0.3,1.3c0.3,0.5,0.8,0.7,1.5,0.7c0.5,0,0.9-0.1,1.3-0.2
	c0.4-0.1,0.8-0.3,1.1-0.5l0.4,0.9c-0.3,0.3-0.7,0.5-1.2,0.7c-0.5,0.2-1.1,0.3-1.8,0.3c-1.1,0-2-0.4-2.5-1.1c-0.4-0.5-0.6-1.2-0.6-2
	C75.1,15.2,75.1,15,75.2,14.7z M76.9,13.7L76.9,13.7l3.7,0l0-0.1c0-0.2,0-0.3,0-0.5c0-0.4-0.1-0.7-0.2-0.9c-0.2-0.4-0.6-0.5-1.3-0.5
	c-0.5,0-0.9,0.2-1.3,0.6C77.4,12.6,77.1,13.1,76.9,13.7z"/>
<path class="st4" d="M81.8,18.4l1.2-7.6h1.3l0,1.1c0.3-0.4,0.6-0.7,1-0.9c0.4-0.2,0.8-0.3,1.2-0.3c0.1,0,0.2,0,0.3,0
	c0.1,0,0.2,0,0.2,0.1L86.7,12l-0.7,0c-0.4,0-0.7,0.1-1,0.3c-0.3,0.2-0.5,0.4-0.7,0.8l-0.9,5.4H81.8z"/>
<path class="st4" d="M91.7,9.2l0.2-1.1h8.6l-0.2,1.1h-3.6l-1.5,9.2h-1.5l1.5-9.2H91.7z"/>
<path class="st4" d="M97.7,14.7l0.1-0.3c0.2-1.1,0.6-2.1,1.4-2.7c0.8-0.7,1.7-1,2.6-1c1,0,1.8,0.3,2.2,1c0.3,0.5,0.5,1.1,0.5,1.7
	c0,0.2,0,0.5-0.1,0.8l-0.1,0.7h-5.2c0,0.2-0.1,0.4-0.1,0.7c0,0.5,0.1,0.9,0.3,1.3c0.3,0.5,0.8,0.7,1.5,0.7c0.5,0,0.9-0.1,1.3-0.2
	c0.4-0.1,0.8-0.3,1.1-0.5l0.4,0.9c-0.3,0.3-0.7,0.5-1.2,0.7c-0.5,0.2-1.1,0.3-1.8,0.3c-1.1,0-2-0.4-2.5-1.1c-0.4-0.5-0.6-1.2-0.6-2
	C97.7,15.2,97.7,15,97.7,14.7z M99.5,13.7L99.5,13.7l3.7,0l0-0.1c0-0.2,0-0.3,0-0.5c0-0.4-0.1-0.7-0.2-0.9c-0.2-0.4-0.6-0.5-1.3-0.5
	c-0.5,0-0.9,0.2-1.3,0.6C99.9,12.6,99.6,13.1,99.5,13.7z"/>
<path class="st4" d="M104.1,18.3l3.3-3.8l-2-3.8h1.7l1.2,2.8l2.2-2.8h1.7l0,0l-3.2,3.7l2.1,3.9h-1.7l-1.3-2.9l-2.2,2.9L104.1,18.3
	L104.1,18.3z"/>
<path class="st4" d="M112.8,11.8l0.2-1h1.3l0.3-1.8h1.5l-0.3,1.8h1.5l-0.2,1h-1.5l-0.7,4.6c0,0.1,0,0.2,0,0.3c0,0.2,0.1,0.4,0.1,0.5
	c0.1,0.1,0.3,0.2,0.6,0.2c0.1,0,0.2,0,0.3,0c0.1,0,0.2,0,0.3-0.1l0.1,0.9c-0.1,0.1-0.3,0.2-0.5,0.2c-0.2,0.1-0.4,0.1-0.6,0.1
	c-0.6,0-1-0.2-1.3-0.5c-0.2-0.2-0.3-0.6-0.3-1c0-0.2,0-0.4,0.1-0.6l0.7-4.6H112.8z"/>
<path class="st2" d="M232.7,79.1H3.3c-1.6,0-2.8-1.3-2.8-2.8V56.9c0-1.6,1.3-2.8,2.8-2.8h229.4c1.6,0,2.8,1.3,2.8,2.8v19.3
	C235.5,77.8,234.2,79.1,232.7,79.1z"/>
<path class="st5" d="M232.7,79.6H3.3c-1.8,0-3.3-1.5-3.3-3.3V56.9c0-1.8,1.5-3.3,3.3-3.3h229.4c1.8,0,3.3,1.5,3.3,3.3v19.3
	C236,78.1,234.5,79.6,232.7,79.6z M3.3,54.6C2,54.6,1,55.6,1,56.9v19.3c0,1.3,1.1,2.4,2.4,2.4h229.4c1.3,0,2.4-1.1,2.4-2.4V56.9
	c0-1.3-1.1-2.4-2.4-2.4H3.3z"/>
<path class="st1" d="M10.7,66.8v-0.4c0-0.4,0.1-0.8,0.4-1c0.3-0.3,0.7-0.4,1.1-0.4c0.5,0,0.9,0.1,1.1,0.4c0.3,0.3,0.4,0.6,0.4,1v0.4
	c0,0.4-0.1,0.8-0.4,1c-0.3,0.3-0.7,0.4-1.1,0.4s-0.8-0.1-1.1-0.4C10.8,67.6,10.7,67.2,10.7,66.8z"/>
<path class="st1" d="M15.9,66.8v-0.4c0-0.4,0.1-0.8,0.4-1c0.3-0.3,0.7-0.4,1.1-0.4c0.5,0,0.9,0.1,1.1,0.4c0.3,0.3,0.4,0.6,0.4,1v0.4
	c0,0.4-0.1,0.8-0.4,1s-0.7,0.4-1.1,0.4s-0.8-0.1-1.1-0.4C16,67.6,15.9,67.2,15.9,66.8z"/>
<path class="st1" d="M21.1,66.8v-0.4c0-0.4,0.1-0.8,0.4-1c0.3-0.3,0.7-0.4,1.1-0.4c0.5,0,0.9,0.1,1.1,0.4c0.3,0.3,0.4,0.6,0.4,1v0.4
	c0,0.4-0.1,0.8-0.4,1c-0.3,0.3-0.7,0.4-1.1,0.4c-0.5,0-0.8-0.1-1.1-0.4C21.2,67.6,21.1,67.2,21.1,66.8z"/>
<path class="st1" d="M26.2,66.8v-0.4c0-0.4,0.1-0.8,0.4-1c0.3-0.3,0.7-0.4,1.1-0.4c0.5,0,0.9,0.1,1.1,0.4c0.3,0.3,0.4,0.6,0.4,1v0.4
	c0,0.4-0.1,0.8-0.4,1c-0.3,0.3-0.7,0.4-1.1,0.4c-0.5,0-0.8-0.1-1.1-0.4C26.4,67.6,26.2,67.2,26.2,66.8z"/>
<path class="st1" d="M31.4,66.8v-0.4c0-0.4,0.1-0.8,0.4-1c0.3-0.3,0.7-0.4,1.1-0.4c0.5,0,0.9,0.1,1.1,0.4c0.3,0.3,0.4,0.6,0.4,1v0.4
	c0,0.4-0.1,0.8-0.4,1c-0.3,0.3-0.7,0.4-1.1,0.4c-0.5,0-0.8-0.1-1.1-0.4C31.6,67.6,31.4,67.2,31.4,66.8z"/>
<path class="st1" d="M36.6,66.8v-0.4c0-0.4,0.1-0.8,0.4-1c0.3-0.3,0.7-0.4,1.1-0.4c0.5,0,0.9,0.1,1.1,0.4c0.3,0.3,0.4,0.6,0.4,1v0.4
	c0,0.4-0.1,0.8-0.4,1s-0.7,0.4-1.1,0.4s-0.8-0.1-1.1-0.4C36.8,67.6,36.6,67.2,36.6,66.8z"/>
<path class="st1" d="M41.8,66.8v-0.4c0-0.4,0.1-0.8,0.4-1c0.3-0.3,0.7-0.4,1.1-0.4c0.5,0,0.9,0.1,1.1,0.4c0.3,0.3,0.4,0.6,0.4,1v0.4
	c0,0.4-0.1,0.8-0.4,1c-0.3,0.3-0.7,0.4-1.1,0.4c-0.5,0-0.8-0.1-1.1-0.4C42,67.6,41.8,67.2,41.8,66.8z"/>
<path class="st1" d="M47,66.8v-0.4c0-0.4,0.1-0.8,0.4-1c0.3-0.3,0.7-0.4,1.1-0.4c0.5,0,0.9,0.1,1.1,0.4c0.3,0.3,0.4,0.6,0.4,1v0.4
	c0,0.4-0.1,0.8-0.4,1s-0.7,0.4-1.1,0.4s-0.8-0.1-1.1-0.4C47.2,67.6,47,67.2,47,66.8z"/>
<path class="st1" d="M52.2,66.8v-0.4c0-0.4,0.1-0.8,0.4-1c0.3-0.3,0.7-0.4,1.1-0.4c0.5,0,0.9,0.1,1.1,0.4c0.3,0.3,0.4,0.6,0.4,1v0.4
	c0,0.4-0.1,0.8-0.4,1c-0.3,0.3-0.7,0.4-1.1,0.4c-0.5,0-0.8-0.1-1.1-0.4C52.4,67.6,52.2,67.2,52.2,66.8z"/>
<path class="st1" d="M57.4,66.8v-0.4c0-0.4,0.1-0.8,0.4-1c0.3-0.3,0.7-0.4,1.1-0.4c0.5,0,0.9,0.1,1.1,0.4c0.3,0.3,0.4,0.6,0.4,1v0.4
	c0,0.4-0.1,0.8-0.4,1c-0.3,0.3-0.7,0.4-1.1,0.4c-0.5,0-0.8-0.1-1.1-0.4C57.5,67.6,57.4,67.2,57.4,66.8z"/>
<path class="st1" d="M62.6,66.8v-0.4c0-0.4,0.1-0.8,0.4-1c0.3-0.3,0.7-0.4,1.1-0.4c0.5,0,0.9,0.1,1.1,0.4c0.3,0.3,0.4,0.6,0.4,1v0.4
	c0,0.4-0.1,0.8-0.4,1c-0.3,0.3-0.7,0.4-1.1,0.4c-0.5,0-0.8-0.1-1.1-0.4C62.7,67.6,62.6,67.2,62.6,66.8z"/>
<path class="st1" d="M67.8,66.8v-0.4c0-0.4,0.1-0.8,0.4-1c0.3-0.3,0.7-0.4,1.1-0.4c0.5,0,0.9,0.1,1.1,0.4c0.3,0.3,0.4,0.6,0.4,1v0.4
	c0,0.4-0.1,0.8-0.4,1s-0.7,0.4-1.1,0.4s-0.8-0.1-1.1-0.4C67.9,67.6,67.8,67.2,67.8,66.8z"/>
<path class="st1" d="M73,66.8v-0.4c0-0.4,0.1-0.8,0.4-1c0.3-0.3,0.7-0.4,1.1-0.4c0.5,0,0.9,0.1,1.1,0.4c0.3,0.3,0.4,0.6,0.4,1v0.4
	c0,0.4-0.1,0.8-0.4,1s-0.7,0.4-1.1,0.4s-0.8-0.1-1.1-0.4C73.1,67.6,73,67.2,73,66.8z"/>
<path class="st1" d="M78.2,66.8v-0.4c0-0.4,0.1-0.8,0.4-1c0.3-0.3,0.7-0.4,1.1-0.4c0.5,0,0.9,0.1,1.1,0.4c0.3,0.3,0.4,0.6,0.4,1v0.4
	c0,0.4-0.1,0.8-0.4,1s-0.7,0.4-1.1,0.4s-0.8-0.1-1.1-0.4C78.3,67.6,78.2,67.2,78.2,66.8z"/>
<path class="st1" d="M83.4,66.8v-0.4c0-0.4,0.1-0.8,0.4-1c0.3-0.3,0.7-0.4,1.1-0.4c0.5,0,0.9,0.1,1.1,0.4c0.3,0.3,0.4,0.6,0.4,1v0.4
	c0,0.4-0.1,0.8-0.4,1c-0.3,0.3-0.7,0.4-1.1,0.4c-0.5,0-0.8-0.1-1.1-0.4C83.5,67.6,83.4,67.2,83.4,66.8z"/>
</svg>
