<?xml version="1.0" encoding="utf-8"?>
<!-- Generator: Adobe Illustrator 19.2.1, SVG Export Plug-In . SVG Version: 6.00 Build 0)  -->
<svg version="1.1" id="Layer_1" xmlns="http://www.w3.org/2000/svg" xmlns:xlink="http://www.w3.org/1999/xlink" x="0px" y="0px"
	 viewBox="0 0 1790.1 351.8" style="enable-background:new 0 0 1790.1 351.8;" xml:space="preserve">
<style type="text/css">
	.st0{fill:#EF4F23;}
	.st1{fill:#2E3192;}
	.st2{fill:#EB1069;}
	.st3{fill:#CF3728;}
	.st4{fill:#ED1C24;}
	.st5{fill:#EB155C;}
	.st6{fill:#0D94A6;}
	.st7{fill:#5B6A40;}
	.st8{fill:#166DB6;}
	.st9{fill:#594A9E;}
	.st10{fill:#E41F26;}
	.st11{fill:#E31072;}
	.st12{fill:#00A3AD;}
	.st13{fill:#00A5CF;}
	.st14{fill:#40499F;}
	.st15{fill:#6B8BC7;}
	.st16{fill:#0089CC;}
	.st17{fill:#CDA1CA;}
	.st18{fill:#5488C6;}
	.st19{fill:#C21E5C;}
	.st20{opacity:0.1;fill:#5488C6;enable-background:new    ;}
	.st21{fill:none;}
	.st22{fill:#EE2A24;}
	.st23{fill:#EC407A;}
	.st24{fill:#00A4C6;}
	.st25{fill:#5487C6;}
	.st26{fill:#14B9D4;}
	.st27{fill:#ADB7DD;}
	.st28{fill:#3073BA;}
	.st29{fill:#F47A20;}
	.st30{fill:#005EAD;}
	.st31{fill:#5CB2E4;}
	.st32{fill:#E9008A;}
	.st33{fill:#A5228E;}
	.st34{fill:#F9EDEA;}
	.st35{fill:#B21E8E;}
	.st36{fill:#722B90;}
	.st37{fill:#E6F1F7;}
	.st38{fill:#E2A225;}
	.st39{fill:#15489E;}
	.st40{fill:#006FBA;}
	.st41{fill:#4B2F92;}
	.st42{fill:#AED582;}
	.st43{fill:#532E91;}
	.st44{fill:#BFDD9F;}
	.st45{fill:#B6D449;}
	.st46{fill:#0085A1;}
	.st47{fill:#00A5C7;}
	.st48{fill:#007888;}
	.st49{fill:#D78C2A;}
	.st50{fill:#E08B27;}
	.st51{fill:#847A3D;}
	.st52{fill:#C8E5C9;}
	.st53{opacity:0.1;fill:#C21E5C;enable-background:new    ;}
	.st54{fill:#EB008B;}
	.st55{fill:#F1F5D0;}
	.st56{fill:#FCEEEE;}
	.st57{fill:#EF4966;}
	.st58{fill:#CCDFD9;}
	.st59{fill:#EE255F;}
	.st60{fill:#CCDDD2;}
	.st61{fill:#FFF39E;}
	.st62{fill:#D1DA9C;}
	.st63{fill:#E8F6FE;}
	.st64{fill:#E5EBF7;}
	.st65{fill:#40499E;}
	.st66{fill:#00A2E1;}
	.st67{fill:#23C4F4;}
	.st68{fill:#EB519D;}
	.st69{fill:#BCE6FB;}
	.st70{opacity:0.1;fill:#40499E;enable-background:new    ;}
	.st71{fill:#3558A8;}
	.st72{fill:#22BDEB;}
	.st73{fill:#F04F67;}
	.st74{fill:#ED135D;}
	.st75{fill:#A9E0FA;}
	.st76{fill:#ADE1FA;}
	.st77{fill:#D6A3CB;}
	.st78{fill:#E9F6F9;}
	.st79{fill:#0E7C84;}
	.st80{fill:#1EA8C2;}
	.st81{fill:#E7F5F9;}
	.st82{fill:#00A5C1;}
	.st83{fill:#0096D7;}
	.st84{opacity:0.1;fill:#0E7C84;enable-background:new    ;}
	.st85{fill:#0099D9;}
	.st86{fill:#0099A6;}
	.st87{fill:#F4F8EF;}
	.st88{fill:#F3F0A5;}
	.st89{fill:#009BDB;}
	.st90{fill:#7AD2F3;}
	.st91{fill:#006DB8;}
	.st92{fill:#2D54A5;}
	.st93{fill:#E1EFEA;}
	.st94{fill:#F47C20;}
	.st95{fill:#D6ECF5;}
	.st96{fill:#FDDD72;}
	.st97{fill:#73CEF0;}
	.st98{fill:#492F92;}
	.st99{fill:#DAEACF;}
	.st100{fill:#F04A23;}
	.st101{fill:#EDCA19;}
	.st102{fill:#E3F2FB;}
	.st103{fill:#007747;}
	.st104{fill:#40C7F4;}
	.st105{fill:#95DAF8;}
	.st106{fill:#E6F4F6;}
	.st107{fill:#144A9E;}
	.st108{fill:#00C1F3;}
	.st109{fill:#64CBF4;}
	.st110{fill:#85D5F7;}
	.st111{fill:#ECF5FC;}
	.st112{fill:#EEF6FC;}
	.st113{fill:#E6F6FD;}
	.st114{fill:#3558A7;}
	.st115{fill:#325DAB;}
	.st116{fill:#3F4BA0;}
	.st117{fill:#F4ACCD;}
	.st118{fill:#CEA1CA;}
	.st119{fill:#469AD4;}
	.st120{fill:#4F8FCC;}
	.st121{fill:#FEE2B5;}
	.st122{fill:#1C439C;}
	.st123{fill:none;stroke:#333333;stroke-width:3;stroke-miterlimit:10;}
	.st124{fill:#434343;}
</style>
<polygon class="st0" points="240.4,53.4 240.4,81.7 290,53.8 242.5,25.8 242.5,0 239.7,0 192.9,25.6 "/>
<g>
	<polygon class="st1" points="1682,25.1 1682,11 1669.8,18.1 	"/>
	<polyline class="st2" points="1542.2,105.3 1542.3,105.2 1542.4,105.3 1588.7,132 1588.7,161.5 1627.3,139.9 1627.3,129 
		1636.4,123.7 1636.4,105.2 1588.8,78.5 1588.8,65 1588.7,65 1542.3,91.8 1542.3,105.1 	"/>
	<polygon class="st3" points="1636.4,122.7 1626.3,129 1626.3,139.9 1635.4,134.7 	"/>
	<polygon class="st4" points="1635.4,80.7 1635.3,80.6 1635.3,80.8 1596.9,58.7 1587,64.4 1587,78.5 1635.4,106.2 1683.5,78.5 
		1683.5,53.2 1683.5,53 	"/>
	<polygon class="st5" points="1541.1,103.7 1541,103.7 1540.9,103.7 1540.9,103.8 1541,103.9 1541,134.8 1588.7,161.5 1590,131.9 	
		"/>
	<polyline class="st6" points="239.6,80.9 239.6,109.9 289.5,81 289.7,80.9 289.7,52.1 	"/>
	<polygon class="st7" points="195,79.1 147.1,106.7 195,134 242.4,106.6 	"/>
	<polygon class="st8" points="1216.2,26.9 1217.6,27 1217.2,0 1169.8,0 	"/>
	<polygon class="st9" points="1542.3,106.3 1542.3,93 1494.9,66.2 1494.9,78.5 	"/>
	<polygon class="st10" points="287.9,0 287.9,0 287.9,27.1 333.1,0 	"/>
	<polygon class="st11" points="333.1,0 287.9,26.1 287.9,53.2 334.5,26.3 335.3,0 	"/>
	<polygon class="st12" points="173,39.3 148.8,25 124.6,39.4 148.5,53.7 	"/>
	<polygon class="st6" points="195,26.2 147.7,53.2 147.5,81.9 195,54.1 195,53.1 	"/>
	<polygon class="st6" points="103,52.1 55.6,79.9 55.6,133.6 102,160.4 148.5,133.6 148.5,133.1 103.4,106.4 	"/>
	<polygon class="st13" points="472.7,52 472.7,79.8 427.3,106.7 473.7,133.8 520.2,106.9 520.2,79.7 	"/>
	<polygon class="st14" points="1262,0.1 1262,0.1 1310.6,27.8 1310.6,0 	"/>
	<polygon class="st14" points="1404,25.5 1449.4,51.7 1460.2,45 1404,11.6 1309,65.4 1309,79.5 1356.7,106.2 1402.9,79.7 
		1449.8,106.2 1450.4,79.6 1404,53.1 	"/>
	<polygon class="st15" points="1639.4,-0.1 1631.8,-0.1 1589,24.6 1588.8,24.5 1588.8,24.7 1588.8,24.9 1588.8,54 1598.3,59.5 
		1598.5,59.4 1670.1,18.1 	"/>
	<polygon class="st16" points="1171.2,0 1165.7,0 1120.7,26.1 1169.7,53.6 1216.3,25.9 	"/>
	<polygon class="st17" points="1496.1,23.6 1496.1,25.6 1495.9,25.8 1495.9,25.8 1495.9,25.9 1495.9,55 1542.2,81.7 1543.3,81.7 
		1543.3,50.4 	"/>
	<path class="st18" d="M844.5-0.1L844.5-0.1L844.5-0.1z"/>
	<polyline class="st19" points="1495.8,-0.1 1495.8,-0.1 1495.9,-0.1 	"/>
	<polyline class="st20" points="1495.8,-0.1 1495.8,-0.1 1495.9,-0.1 	"/>
	<path class="st18" d="M1495.8-0.1L1495.8-0.1L1495.8-0.1z"/>
	<path class="st20" d="M1495.8-0.1L1495.8-0.1L1495.8-0.1z"/>
	<path class="st20" d="M1452.8-0.1"/>
	<path class="st21" d="M1542.2,105.3L1542.2,105.3L1542.2,105.3z"/>
	<polygon class="st22" points="1728.1,104.1 1703.1,118.7 1672.8,101.2 1651.5,113.5 1635.4,105.2 1635.4,134.7 1681.7,161.4 
		1719.2,140.1 1728.6,134.7 	"/>
	<polygon class="st23" points="1123.3,13.1 1123.3,12.9 1123.3,12.9 	"/>
	<polygon class="st18" points="844.5,13.2 844.5,13.2 844.5,-0.1 844.5,-0.1 844.5,-0.1 	"/>
	<polygon class="st18" points="844.5,13.2 844.5,-0.1 844.5,-0.1 	"/>
	<polygon class="st24" points="844.5,0 844.5,13.3 867.5,0 	"/>
	<polygon class="st23" points="357.5,39.5 380.8,26.1 335.6,0 334.3,0 334.3,26.1 	"/>
	<polygon class="st25" points="55.6,79.9 102,53.1 102,26.1 56.8,0 9.1,0 9.1,53 	"/>
	<polygon class="st26" points="473.7,132.8 427.3,106.7 427.3,133.6 473.7,160.4 520.2,133.6 520.2,105.9 	"/>
	<polygon class="st27" points="334.3,160.5 287.9,186.9 333.1,213 380.8,186.9 	"/>
	<polygon class="st28" points="520.2,53.1 520.2,53.5 521.6,53.3 521.5,0 517.6,0 472.5,26 	"/>
	<polygon class="st29" points="195,26.2 241.2,0 195,0 195,26 	"/>
	<polygon class="st30" points="56.8,0 102,26.1 102.1,0 	"/>
	<polygon class="st31" points="565.8,0 565.8,13.9 566.6,13.4 589.7,0 	"/>
	<polygon class="st32" points="380.8,186.9 427.3,160.5 427.3,133.6 380.8,160.4 	"/>
	<polygon class="st33" points="380.8,160.4 333.3,132.6 333.3,160.5 380.8,186.9 	"/>
	<polygon class="st34" points="287.9,160.4 241.4,133.6 241.4,160.5 287.9,186.9 	"/>
	<polygon class="st35" points="334.3,133.6 287.9,160.4 287.9,186.9 334.3,160.5 	"/>
	<polygon class="st36" points="287.7,80 241.4,106.8 241.4,133.6 286.6,159.6 287.9,160.4 334.3,133.6 	"/>
	<polygon class="st37" points="148.5,133.6 148.5,160.5 195,187.3 241.4,160.5 241.4,133.6 195,160.4 	"/>
	<polygon class="st38" points="195,133.2 171.9,119.9 148.8,133.2 148.5,133.1 148.5,133.6 195,160.4 241.4,133.6 241.4,106.8 
		241,106.6 	"/>
	<polygon class="st6" points="149.5,0 195,26.2 195,0 	"/>
	<polygon class="st28" points="450.7,66.2 427.3,79.8 427.3,79.9 450.9,66.3 	"/>
	<polygon class="st39" points="426.3,51.8 427.3,79.8 450.7,66.2 	"/>
	<polygon class="st28" points="473.7,53 450.7,66.2 450.9,66.3 473.7,53.1 	"/>
	<polygon class="st6" points="450.9,66.3 427.3,79.9 427.3,106.7 473.7,79.5 473.7,53.1 	"/>
	<polygon class="st28" points="425,0 380.9,26.1 427.3,53.5 427.8,53.1 428.5,0 	"/>
	<polygon class="st40" points="429.8,0 427.8,0 427.3,53.5 474.5,26 	"/>
	<polygon class="st1" points="520.8,52.2 473.5,26 427.3,52.8 450.7,66.2 473.7,53 497.1,66.6 520.2,79.8 	"/>
	<polygon class="st41" points="380.8,0 380.8,25.9 380.8,26 380.8,26.1 380.9,26.1 381.1,26 426,0 	"/>
	<polygon class="st19" points="380.8,0 335.6,0 380.8,26.1 380.8,26.1 380.8,26.1 380.8,26.1 380.8,26 380.8,25.9 	"/>
	<polygon class="st1" points="380.9,26.1 380.8,26.1 380.8,26.3 380.8,53 380.8,53.1 427.3,79.9 427.3,79.8 427.3,52.8 	"/>
	<polygon class="st42" points="380.8,53.1 380.8,79.9 427,106.6 427.3,106.7 427.3,106.4 427.3,79.9 	"/>
	<polygon class="st43" points="287.9,53.2 287.9,79.9 287.7,80 287.7,80.1 287.7,106.4 334.3,133.6 334.3,106.8 334.3,106.5 
		334.4,79.9 	"/>
	<polygon class="st5" points="357.5,39.5 334.3,26.1 287.9,53.2 334.4,79.9 380.8,53.1 380.8,26.1 	"/>
	<polygon class="st44" points="380.8,79.9 380.8,53.1 380.6,53.3 334.4,79.9 334.3,106.5 334.3,106.9 380.6,80.2 380.6,106.4 
		357.5,119.8 357.4,119.8 334.3,133.6 380.8,160.4 427.3,133.6 427.3,106.7 	"/>
	<polygon class="st45" points="334.3,106.8 334.3,133.6 357.4,119.8 357.5,119.8 380.6,106.4 380.6,80.2 	"/>
	<polygon class="st27" points="148.5,106.7 148.5,106.7 148.5,106.7 148.5,133.1 148.5,133.1 148.5,106.8 	"/>
	<polygon class="st46" points="102.1,78.9 102.4,106.4 148.5,133.1 148.5,105.7 	"/>
	<polygon class="st47" points="149.5,0 102.1,0 102,53.1 148.5,79.9 148.5,52.8 148.5,52.7 125.6,39.4 148.8,26 172,39.3 195,26.2 	
		"/>
	<polygon class="st48" points="102,53.1 102.1,79.9 148.5,106.7 148.5,79.9 	"/>
	<polygon class="st49" points="171.9,119.9 148.5,106.7 148.5,106.7 148.5,133.1 148.8,133.2 	"/>
	<polygon class="st28" points="287.9,26.1 287.9,26.3 287.9,52.7 287.9,52.7 	"/>
	<path class="st28" d="M287.7,53.1L287.7,53.1L287.7,53.1z"/>
	<polygon class="st4" points="243,0 241.5,0 241.5,26.4 287.9,53.2 288.2,0 	"/>
	<path class="st28" d="M287.9,53.2L287.9,53.2L287.9,53.2z"/>
	<polygon class="st4" points="195,26.2 195,52.7 195,53 195,53.1 195.3,53.3 241.4,79.9 241.4,79.8 241.4,52.8 	"/>
	<polygon class="st50" points="195.3,53.3 195,53.1 195,79.9 241.4,106.8 241.4,79.9 	"/>
	<polygon class="st51" points="148.5,79.9 148.5,106.7 195,79.9 195,53.1 	"/>
	<polygon class="st52" points="1077.1,106.6 1076.8,106.7 1076.8,106.8 1077.2,106.6 	"/>
	<polygon class="st18" points="844.5,26 844.5,13.2 844.5,13.2 	"/>
	<polygon class="st53" points="844.5,26 844.5,13.2 844.5,13.2 	"/>
	<polygon class="st3" points="1076.8,106.4 1076.8,106.7 1077.1,106.6 	"/>
	<polygon class="st54" points="1123.6,173.4 1123.3,161.1 1076.8,134.3 1076.8,160.5 1123.3,187.3 1135.2,180.4 	"/>
	<polygon class="st55" points="1122.5,132.8 1077.2,106.6 1077.1,106.6 1076.8,106.7 1076.8,106.7 1076.8,134.3 1122.5,160.6 
		1123,160.9 1123,133.1 	"/>
	<polygon class="st56" points="983.9,106.7 983.9,160.3 1030.4,187.1 1076.8,160.3 1076.8,106.7 1030.4,79.9 	"/>
	<path class="st3" d="M1030.4,0.1"/>
	<path class="st53" d="M1030.4,0.1"/>
	<polygon class="st57" points="984.9,0 982.8,0 937.5,0 937.5,26 983.9,52.8 1030.3,25.9 	"/>
	<polygon class="st58" points="892,0 891.8,0 890.2,0 889.9,0 867.5,0 844.5,13.3 844.5,26.1 891,52.8 937.5,26 937.5,0 	"/>
	<polygon class="st21" points="1077.1,106.6 1077.2,106.6 1122.5,132.8 1123,133.1 1123.3,79.9 	"/>
	<polygon class="st59" points="937.5,26 937.5,53.7 983.9,80.5 983.9,52.8 	"/>
	<polygon class="st60" points="891,52.8 891,80.3 937.5,53.7 937.5,26 	"/>
	<polygon class="st61" points="891,106.7 844.5,79.9 844.5,133.2 844.5,133.2 	"/>
	<polygon class="st62" points="891,80.3 891,52.8 844.5,26.1 844.5,53.6 	"/>
	<polygon class="st63" points="1262.7,188.4 1262.7,161.3 1262.7,160.1 1262,160.5 1216.2,186.9 1216.2,214.5 1262,242.1 
		1262.7,241.6 1262.7,200.9 	"/>
	<line class="st21" x1="1309.3" y1="-0.1" x2="1309.1" y2="-0.1"/>
	<polygon class="st64" points="1262,134.5 1262,134.5 1216.2,160.9 1169.8,134.1 1169.8,160.1 1216.2,186.9 1216.2,186.9 
		1216.2,160.9 	"/>
	<polygon class="st65" points="1170.1,106.3 1169.8,106.5 1169.8,106.7 1170.3,106.4 	"/>
	<polygon class="st66" points="1170.1,106.3 1169.8,106.5 1169.8,106.7 1170.3,106.4 	"/>
	<line class="st21" x1="1262" y1="134.5" x2="1262" y2="134.5"/>
	<line class="st21" x1="1262" y1="134.5" x2="1262" y2="134.5"/>
	<polygon class="st67" points="1262,134.5 1216.2,160.9 1216.2,186.9 1262,160.5 1262.7,160.1 1262.7,134.1 	"/>
	<polygon class="st68" points="1169.8,134.3 1123.3,161.1 1123,160.9 1123,174 1134.7,180.7 1169.8,160.4 	"/>
	<polygon class="st69" points="1169.8,106.4 1123.3,133.2 1123,133.1 1123,160.9 1123.3,161.1 1169.8,134.3 	"/>
	<polygon class="st66" points="1262.7,134.1 1262.7,107.2 1262.7,106.9 1262.7,106.7 1262.6,106.7 1262.6,106.5 1262.3,106.3 
		1262.1,106.4 1262,106.4 1216.2,132.9 1170.3,106.4 1169.8,106.7 1169.8,134.1 1216.2,160.9 1262,134.5 	"/>
	<polygon class="st65" points="1262,80.1 1262,80.1 1216.2,53.7 1216.2,53.7 	"/>
	<polygon class="st70" points="1262,80.1 1262,80.1 1216.2,53.7 1216.2,53.7 	"/>
	<polygon class="st70" points="1216.2,53.7 1169.7,80.5 1169.7,80.5 	"/>
	<polygon class="st14" points="1216.2,0 1216.2,26.9 1262.6,0 	"/>
	<polygon class="st71" points="1309.9,25.2 1263.4,0 1261.5,0 1216.2,25.9 1260,52.6 1260,83.6 1312.8,53.2 1312.8,23.6 	"/>
	<polygon class="st66" points="1216.2,53.7 1216.2,53.7 1216.2,53.7 1216.2,53.7 1216.2,53.7 1169.7,80.5 1169.8,106 1169.8,106.5 
		1170.1,106.3 1216.2,79.7 1216.2,79.7 1216.2,79.7 1262.6,106.7 1262.7,106.7 1262.7,80.5 	"/>
	<polygon class="st65" points="1262,80.1 1262,80.1 1262.6,80.5 1262.6,80.5 	"/>
	<polygon class="st70" points="1262,80.1 1262,80.1 1262.6,80.5 1262.6,80.5 	"/>
	<polygon class="st72" points="1262,106.1 1216.2,79.7 1216.2,79.7 1216.2,79.7 1170.1,106.3 1170.3,106.4 1216.2,132.9 1262,106.4 
		1262.1,106.4 1262.3,106.3 	"/>
	<polygon class="st9" points="1145.9,0 1144.6,0 1123.3,11.9 1123.3,26.1 1123.4,26.1 1168.5,0 	"/>
	<polygon class="st73" points="1123.3,26.1 1123.3,25.1 1076.2,51.8 1076.3,81.2 1123.3,54.3 	"/>
	<polygon class="st74" points="1099.4,0 1077.9,-0.1 984.9,-0.1 1030.3,25.9 1030.4,53.7 1076.8,80.5 1076.8,52.8 1123.3,26.1 
		1123.3,13.1 	"/>
	<polygon class="st14" points="1216.2,25.9 1169.8,52.8 1123.3,26.1 1123.3,53.7 1169.7,80.5 1216.2,53.7 1262,80.1 1262.6,80.5 
		1262.6,52.8 	"/>
	<polygon class="st75" points="1169.7,80.5 1123.3,53.7 1123.3,53.9 1123.3,79.9 1169.5,106.6 1169.8,106.4 	"/>
	<polygon class="st61" points="1076.8,80.5 1076.8,106.4 1076.8,106.7 1077.1,106.6 1123.3,79.9 1123.3,53.7 	"/>
	<polygon class="st76" points="1123.3,79.9 1123,133.1 1123.3,133.2 1169.5,106.6 	"/>
	<polygon class="st18" points="1123.3,0 1123.3,0.1 1123.3,12.9 1145.6,0 	"/>
	<polygon class="st77" points="1122.5,13.4 1123.3,12.9 1123.3,0 1123.3,0 1099.4,0 	"/>
	<polygon class="st78" points="611.9,0 565.8,25.6 612.4,53.2 612.4,80.3 658.7,53.7 658.7,26.1 613.5,0 	"/>
	<polygon class="st31" points="799.1,-0.1 797,-0.1 751.6,26.1 751.6,53.5 798,80.4 798.1,80.3 798.1,52.8 844.5,26.1 	"/>
	<polygon class="st79" points="704,-0.1 658.7,26.1 658.7,53.7 705.1,80.5 751.6,53.7 751.6,26.1 706.2,-0.1 	"/>
	<polygon class="st80" points="704,-0.1 658.7,26.1 658.7,53.7 705.1,80.5 751.6,53.7 751.6,26.1 706.2,-0.1 	"/>
	<polygon class="st81" points="658.7,26.1 658.7,0 613.5,0 	"/>
	<polygon class="st82" points="658.7,26.1 704,-0.1 658.7,0 	"/>
	<polygon class="st83" points="844.5,-0.1 820.6,-0.1 799.1,-0.1 844.5,26.1 844.5,13.2 	"/>
	<polygon class="st79" points="751.6,26.1 751.6,26.1 751.6,26.1 751.6,-0.1 751.6,-0.1 751.3,-0.1 751.6,0.1 	"/>
	<polygon class="st84" points="751.6,26.1 751.6,26.1 751.6,26.1 751.6,-0.1 751.6,-0.1 751.3,-0.1 751.6,0.1 	"/>
	<polygon class="st79" points="751.6,26.1 797,-0.1 751.6,-0.1 751.6,-0.1 	"/>
	<polygon class="st85" points="751.6,26.1 797,-0.1 751.6,-0.1 751.6,-0.1 	"/>
	<polygon class="st79" points="751.6,26.1 751.6,0.1 751.3,-0.1 706.2,-0.1 	"/>
	<polygon class="st86" points="751.6,26.1 751.6,0.1 751.3,-0.1 706.2,-0.1 	"/>
	<polygon class="st87" points="705.1,106.5 705.1,160.1 751.6,186.9 798,160.1 798,106.5 751.6,79.7 	"/>
	<g>
		<polygon class="st88" points="891,80.3 844.5,53.6 844.5,79.9 891,106.7 		"/>
		<polygon class="st88" points="798.1,80.3 798.1,106.4 844.5,133.2 844.5,133.2 844.5,53.6 		"/>
	</g>
	<polygon class="st89" points="798.1,52.8 798.1,80.3 844.5,53.6 844.5,26.1 	"/>
	<polygon class="st90" points="589.7,0 566.6,13.4 565.8,13.9 565.8,25.6 611.9,0 	"/>
	<polygon class="st91" points="523.2,0 520.6,0 520.2,79.8 565.7,53.5 565.8,24.6 	"/>
	<polygon class="st92" points="521.5,0 565.8,25.6 565.8,13.9 565.8,0 	"/>
	<polygon class="st37" points="565.8,25.6 565.8,53.5 565.8,53.7 612.2,80.5 612.4,80.3 612.4,53.2 	"/>
	<polygon class="st18" points="1542.1,105.2 1541.9,105.3 1542.1,105.3 1542.2,105.3 1542.2,105.3 	"/>
	<polygon class="st93" points="1310.7,321.4 1357.2,348.2 1391.5,328.3 1310.7,281.9 	"/>
	<polyline class="st23" points="1542.2,105.3 1542.2,105.3 1542.2,105.3 	"/>
	<line class="st21" x1="1542.1" y1="105.2" x2="1542.2" y2="105.3"/>
	<path class="st94" d="M1635.5,105.2L1635.5,105.2L1635.5,105.2z"/>
	<polygon class="st95" points="1774.6,24.6 1728.1,51.5 1728.1,51.5 1728.1,80.6 1774.6,54.2 	"/>
	<polygon class="st37" points="1728.1,80.6 1728.1,105.1 1774.6,78.5 1774.6,54.2 	"/>
	<polygon class="st96" points="1681.7,161.4 1635.4,134.7 1626.3,139.9 1626.3,164.4 1635.2,159.2 1681.7,186 1681.7,204.3 
		1697.8,194.9 1681.7,186 	"/>
	<polygon class="st32" points="1541.2,241.9 1540.6,253.8 1530.6,259.8 1542.3,266.5 1588.7,239.7 1588.7,215.5 1542.2,242.4 	"/>
	<polygon class="st44" points="1542.3,212.4 1541.6,212 1541.6,242.1 1542.2,242.4 1588.7,215.5 1588.7,186 	"/>
	<polygon class="st34" points="1635.2,159.2 1626.3,164.4 1588.7,186 1588.7,239.7 1635.2,266.5 1681.7,239.7 1681.7,204.3 
		1681.7,186 	"/>
	<polygon class="st95" points="1774.6,24.6 1774.6,-0.1 1731.7,-0.1 	"/>
	<polygon class="st97" points="1731.7,-0.1 1724.6,-0.1 1681.7,24.7 1728.1,51.5 1774.6,24.6 	"/>
	<polygon class="st52" points="1495.9,67.2 1495.9,66.3 1495.9,66.3 	"/>
	<polygon class="st98" points="1681.7,24.7 1670.1,18.1 1670.1,18.1 1623.9,44.7 1598.5,59.4 1598.3,59.5 1635.3,80.8 1635.3,80.6 
		1635.4,80.7 1681.7,54 1681.7,54 	"/>
	<polygon class="st99" points="1681.7,24.7 1681.7,24.7 1681.7,54 1681.7,54 1681.7,54 1728.1,80.6 1728.1,80.4 1728.1,51.5 	"/>
	<polygon class="st100" points="1681.7,54 1681.7,54 1681.7,54.2 1681.7,78.5 1635.4,105.2 1651.4,114.5 1672.8,102.2 1703.1,119.7 
		1727.9,105.2 1728.1,105.1 1728.1,80.6 	"/>
	<polygon class="st19" points="1542.2,105.3 1542.2,105.4 1542.2,105.4 	"/>
	<polygon class="st19" points="1542.2,105.4 1542.2,105.3 1542.1,105.3 	"/>
	<polygon class="st44" points="1542.3,134.7 1542.3,134.9 1542.3,159.1 1541.6,159.5 1541.6,159.6 1542.3,159.2 1588.7,186 
		1588.7,161.7 1588.7,161.5 	"/>
	<path class="st19" d="M1542.2,105.3L1542.2,105.3L1542.2,105.3z"/>
	<polygon class="st19" points="1542.2,105.3 1542.2,105.3 1542.3,105.3 1542.4,105.3 1542.3,105.2 	"/>
	<polygon class="st19" points="1542.3,134.7 1542.3,105.5 1542.2,105.4 1542.2,134.7 	"/>
	<polygon class="st45" points="1542.3,212.4 1588.7,186 1542.3,159.2 1541.6,159.6 1541.6,212 	"/>
	<polygon class="st37" points="1719.2,140.1 1719.2,182.6 1697.8,194.9 1728.2,212.4 1774.6,185.6 1774.6,132 1728.1,105.1 
		1728.6,134.7 	"/>
	<polygon class="st101" points="1719.2,140.1 1681.7,161.4 1681.7,186 1697.8,194.9 1719.2,182.6 	"/>
	<polygon class="st102" points="1308.4,228.1 1308,227.8 1297.8,221.8 1262.7,241.6 1262.7,242.1 1272.9,248.1 1308.4,269 
		1310.7,267.7 1310.7,240.1 1310.7,226.8 	"/>
	<polygon class="st103" points="1262.7,200.9 1262.7,241.6 1297.8,221.8 	"/>
	<polygon class="st70" points="1262.7,200.9 1262.7,241.6 1297.8,221.8 	"/>
	<polygon class="st104" points="1262.7,200.9 1262.7,241.6 1297.8,221.8 	"/>
	<polygon class="st105" points="1286.5,174.6 1262.7,161.3 1262.7,188.4 1262.7,200.9 1297.8,221.8 1309.2,215.3 1309.2,187.3 	"/>
	<polygon class="st70" points="1273.6,141 1262.7,134.7 1262.7,147.3 1262.7,161.3 1286.5,174.6 1308.4,161.8 1309.2,162.2 
		1309.2,161.5 	"/>
	<polygon class="st106" points="1308.4,161.8 1286.5,174.6 1309.2,187.3 1309.2,162.2 	"/>
	<polygon class="st70" points="1308.4,161.8 1286.5,174.6 1309.2,187.3 1309.2,162.2 	"/>
	<polygon class="st70" points="1308.4,161.8 1286.5,174.6 1309.2,187.3 1309.2,162.2 	"/>
	<polygon class="st107" points="1262.7,105.7 1262.7,105.7 1262.7,107.1 1310,79.8 1310,65.4 1262.7,92.6 	"/>
	<polygon class="st14" points="1262.7,93.6 1262.7,93.6 1262.7,93.6 1310.5,66.2 1310.5,53 1262.7,80.5 	"/>
	<polygon class="st106" points="1403.6,240.1 1403.6,267.8 1403.6,280.5 1403.6,321.4 1401.8,322.4 1402.3,322.8 1448.9,295.9 
		1448.9,265.8 1403.6,239.7 	"/>
	<polygon class="st63" points="1403.6,240.1 1403.6,267.8 1403.6,280.5 1403.6,321.4 1401.8,322.4 1402.3,322.8 1448.9,295.9 
		1448.9,265.8 1403.6,239.7 	"/>
	<polygon class="st102" points="1366.3,302 1357.2,307.3 1310.7,280.5 1310.7,281.9 1391.5,328.3 1401.8,322.4 	"/>
	<polygon class="st108" points="1403.6,280.5 1366.3,302 1401.8,322.4 1403.6,321.4 	"/>
	<polygon class="st109" points="1334.6,253.9 1310.7,240.1 1310.7,267.7 1310.7,267.8 1334.7,253.9 	"/>
	<polygon class="st110" points="1403.6,267.8 1403.6,240.1 1379.6,253.9 	"/>
	<polygon class="st111" points="1355.8,266.1 1334.7,253.9 1310.7,267.8 1310.7,280.5 1357.2,307.3 1366.3,302 1355.8,295.9 	"/>
	<polygon class="st110" points="1403.6,267.8 1379.6,253.9 1357.2,266.9 1355.8,266.1 1355.8,295.9 1366.3,302 1403.6,280.5 	"/>
	<polygon class="st18" points="1449.4,80.6 1449.4,80.5 1449.4,80.5 1449.4,80.7 	"/>
	<polygon class="st70" points="1449.4,80.6 1449.4,80.5 1449.4,80.5 1449.4,80.7 	"/>
	<polygon class="st112" points="1319.4,221.2 1310.7,216.2 1309.2,215.3 1297.8,221.8 1308,227.8 1308.4,228.1 1310.7,226.8 
		1319.8,221.5 	"/>
	<polygon class="st102" points="1354.9,241.7 1319.9,221.5 1319.8,221.5 1310.7,226.8 1310.7,226.8 1310.7,240.1 1334.6,253.9 
		1334.7,253.9 1355.3,242 	"/>
	<line class="st21" x1="1403" y1="24.5" x2="1403" y2="24.5"/>
	<line class="st21" x1="1403" y1="24.5" x2="1403" y2="24.5"/>
	<line class="st21" x1="1320.5" y1="60.4" x2="1320.5" y2="60.4"/>
	<line class="st21" x1="1320.5" y1="60.4" x2="1320.5" y2="60.4"/>
	<polygon class="st65" points="1403.6,216 1403.6,226.8 1403.6,239.7 1448.9,265.8 1448.9,242.2 	"/>
	<polygon class="st67" points="1403.6,216 1403.6,226.8 1403.6,239.7 1448.9,265.8 1448.9,242.2 	"/>
	<polygon class="st113" points="1403,215.7 1403,215.5 1402.4,215.2 1402.3,215.2 1392.9,220.7 1357.4,241.1 1355.8,242.1 
		1355.8,242.2 1355.8,266.1 1357.2,266.9 1379.6,253.9 1403.6,240.1 1403.6,239.7 1403.6,226.8 1403.6,216 	"/>
	<polygon class="st68" points="1541.6,242.1 1495.6,215.3 1495.8,239.3 1531.4,260.2 1541.6,254.3 	"/>
	<polygon class="st69" points="1496.2,185.8 1496.1,185.8 1495.9,185.9 1495.8,185.9 1495.6,185.8 1495.6,185.7 1495.6,215.3 
		1449,242.2 1448.9,242.2 1448.9,265.8 1449.4,266.1 1495.8,239.3 1495.6,215.3 1495.6,215.3 1541.6,242.1 1541.6,212 	"/>
	<path class="st26" d="M1448.9,105.1L1448.9,105.1L1448.9,105.1z"/>
	<path class="st70" d="M1448.9,105.1L1448.9,105.1L1448.9,105.1z"/>
	<polygon class="st26" points="1403,54.1 1402.9,54 1402.9,54.1 1403,54.2 	"/>
	<polygon class="st70" points="1403,54.1 1402.9,54 1402.9,54.1 1403,54.2 	"/>
	<polygon class="st8" points="1495.9,66.2 1484.3,59.5 1449.4,79.5 1449.4,105.8 1495.9,79.5 	"/>
	<polygon class="st114" points="1459.8,44.8 1449.4,51.3 1403,24.5 1403,24.9 1403,54.1 1449.4,80.5 1449.4,80.5 1485.2,60.5 	"/>
	<polygon class="st106" points="1355.8,134.6 1356.5,135.1 1356.5,135.1 	"/>
	<polygon class="st70" points="1355.8,134.6 1356.5,135.1 1356.5,135.1 	"/>
	<polygon class="st115" points="1402.9,78.7 1356.5,105.3 1310,78.5 1262.7,106.7 1262.7,106.7 1262.7,106.7 1262.7,134.7 
		1310.7,162.2 1355.8,135.6 1403.6,162.8 1403.6,132 1450.6,105.3 	"/>
	<polygon class="st116" points="1403,185.2 1403,161.2 1355.8,134.6 1309.2,161.5 1309.2,215.3 1355.8,242.2 1355.8,242.1 
		1403,215.5 1403,186.4 1403,186.1 1403,185.9 1403,185.7 1403.3,185.5 	"/>
	<polygon class="st66" points="1495.6,185.7 1495.6,185.5 1495.5,185.5 1495.3,185.6 1449.4,212.1 1403.6,185.6 1403.5,185.6 
		1403.3,185.5 1403,185.7 1403,185.9 1403,186.1 1403,186.4 1403,215.5 1403,215.7 1403.6,216 1448.9,242.2 1449.1,242.1 
		1495.6,215.3 	"/>
	<polygon class="st14" points="1449.4,158.9 1449.4,158.8 1449.4,158.9 1403.6,185.3 1403.6,185.5 1403.6,185.6 1449.4,212.1 
		1495.3,185.6 1495.5,185.5 	"/>
	<polygon class="st66" points="1449.4,134.9 1449.4,134.9 1449,134.7 1449,134.7 1449,134.6 1448.9,134.7 1448.9,134.7 
		1403.6,160.9 1403,161.2 1403,185.2 1403.3,185.5 1403.6,185.3 1449.4,158.9 1449.4,158.8 1449.4,158.9 1495.5,185.5 1495.6,185.5 
		1495.6,185.4 1495.6,161.6 	"/>
	<polygon class="st65" points="1403,161.2 1403,161.2 1403.6,160.9 1403.6,160.8 	"/>
	<polygon class="st70" points="1403,161.2 1403,161.2 1403.6,160.9 1403.6,160.8 	"/>
	<polygon class="st65" points="1403.5,185.6 1403.6,185.6 1403.6,185.5 	"/>
	<polygon class="st70" points="1403.5,185.6 1403.6,185.6 1403.6,185.5 	"/>
	<polygon class="st65" points="1403.3,185.5 1403.5,185.6 1403.6,185.5 1403.6,185.3 	"/>
	<polygon class="st70" points="1403.3,185.5 1403.5,185.6 1403.6,185.5 1403.6,185.3 	"/>
	<polygon class="st14" points="1542.1,105.3 1541.9,105.3 1542.1,105.2 1541.6,104.9 1495.9,78.5 1449.4,104.8 1449.4,104.8 
		1449.4,104.8 1403,131.6 1403,131.9 1403,132 1403,161.2 1403.6,160.8 1403.6,160.9 1448.9,134.7 1448.9,134.7 1449,134.6 
		1449,134.7 1449,134.7 1449.4,134.9 1449.4,134.9 1495.6,161.6 1495.6,161.6 1495.8,161.4 1495.9,161.4 1541.6,135 1542.2,134.7 
		1542.2,105.4 	"/>
	<polygon class="st75" points="1542.2,134.7 1541.6,135 1495.9,161.4 1495.8,161.4 1495.6,161.6 1495.6,161.6 1495.6,185.4 
		1495.6,185.5 1495.6,185.7 1495.6,185.8 1495.8,185.9 1495.9,185.9 1496.1,185.8 1541.6,159.5 1542.3,159.1 1542.3,134.9 
		1542.3,134.7 	"/>
	<polygon class="st76" points="1496.1,185.8 1496.2,185.8 1541.6,212 1541.6,159.6 1541.6,159.5 	"/>
	<polygon class="st117" points="1588.7,54 1542.3,80.8 1542.3,91.8 1588.7,65 1588.8,65 1588.8,54 	"/>
	<polygon class="st94" points="1588.8,54 1588.8,54 1588.8,65 1598.3,59.5 	"/>
	<polygon class="st20" points="1588.8,54 1588.8,54 1588.8,65 1598.3,59.5 	"/>
	<polygon class="st118" points="1495.9,-0.1 1495.8,0.9 1495.9,25.8 1496.1,25.6 1496.1,25.6 1538.9,-0.1 	"/>
	<polygon class="st77" points="1588.8,24.8 1588.8,24.8 1588.5,24.6 1545.7,-0.1 1545.7,-0.1 1538.9,-0.1 1538.9,-0.1 1496.1,24.6 
		1496.1,24.6 1496.1,24.6 1542.3,51.4 1542.3,80.7 1542.3,80.8 1588.7,54 1588.8,54 1588.8,24.9 1588.8,24.9 1588.8,24.7 	"/>
	<polygon class="st25" points="1545.7,0 1588.8,25.9 1632.8,0 	"/>
	<polygon class="st94" points="1681.7,11.4 1681.7,-0.1 1638.7,-0.1 1670.1,18.1 	"/>
	<polygon class="st25" points="1681.7,11.4 1681.7,-0.1 1638.7,-0.1 1670.1,18.1 	"/>
	<polygon class="st72" points="1682.5,-0.1 1682.3,-0.1 1681.8,-0.1 1681.7,-0.1 1681.7,11.4 1681.7,11.4 1681.7,24.7 1724.6,-0.1 	
		"/>
	<polygon class="st52" points="1495.9,54.2 1495.9,54.2 1495.9,54 1495.9,54 	"/>
	<polygon class="st20" points="1495.9,54.2 1495.9,54.2 1495.9,54 1495.9,54 	"/>
	<polygon class="st52" points="1495.9,54 1495.9,54 1495.9,24.9 	"/>
	<polygon class="st20" points="1495.9,54 1495.9,54 1495.9,24.9 	"/>
	<polygon class="st52" points="1495.9,66.3 1495.9,66.3 1495.9,54.2 1495.9,54.2 	"/>
	<polygon class="st20" points="1495.9,66.3 1495.9,66.3 1495.9,54.2 1495.9,54.2 	"/>
	<polygon class="st25" points="1452.8,0 1402,0 1402.4,13.3 1459.5,46.2 1496.6,25.7 	"/>
	<polygon class="st119" points="1495.9,53.9 1484.2,60.5 1496.7,67.2 	"/>
	<polygon class="st120" points="1495.9,24.9 1495.9,24.8 1495.9,24.8 1495.9,24.8 1495.6,24.6 1495.6,24.6 1458.8,45.8 1484.2,60.5 
		1495.9,54 	"/>
	<polygon class="st120" points="1495.9,25.9 1495.8,0 1451.8,0 	"/>
	<path class="st52" d="M1495.6,24.6L1495.6,24.6L1495.6,24.6z"/>
	<path class="st20" d="M1495.6,24.6L1495.6,24.6L1495.6,24.6z"/>
	<polygon class="st15" points="1542.2,80.7 1495.9,54 1495.9,54.2 1495.9,66.3 1495.9,67.2 1542.3,94 1542.3,91.8 1542.3,80.8 
		1542.3,80.7 	"/>
	<polygon class="st52" points="1495.9,24.9 1495.9,24.8 1495.9,24.8 	"/>
	<polygon class="st20" points="1495.9,24.9 1495.9,24.8 1495.9,24.8 	"/>
	<polygon class="st1" points="1310,0 1310,66.4 1402.4,13.3 1402.4,13.3 1402.4,-0.1 	"/>
	<polygon class="st121" points="1076.8,80.7 1076.8,80.5 1076.8,80.5 1030.4,53.7 1030.4,79.9 1076.8,106.7 1076.8,106.7 
		1076.8,106.4 	"/>
	<polygon class="st122" points="473.8,0 428.5,0 473.5,26 518.9,0 	"/>
</g>
<rect x="741.9" y="126.8" class="st123" width="293.1" height="90.8"/>
<g>
	<path class="st124" d="M776,194.9v-47.6h3.9v22.4H807v-22.4h3.9v47.6H807V173h-27.1v21.9H776z"/>
	<path class="st124" d="M834,194.9v-47.6h28.5v3.3H838v17.9h21.4v3.3H838v19.8h24.7v3.3H834z"/>
	<path class="st124" d="M884.3,194.9v-47.6h3.9v44.3h24.6v3.3H884.3z"/>
	<path class="st124" d="M935.2,194.9v-47.6h3.9v47.6H935.2z"/>
	<path class="st124" d="M963.5,194.9l16.4-24.1L964,147.2h4.7l13.4,20.3l13.4-20.3h4.7l-15.8,23.5l16.4,24.1h-4.7l-14-21l-13.9,21
		L963.5,194.9L963.5,194.9z"/>
</g>
</svg>
