<?xml version="1.0" encoding="utf-8"?>
<!-- Generator: Adobe Illustrator 19.2.1, SVG Export Plug-In . SVG Version: 6.00 Build 0)  -->
<svg version="1.1" id="Layer_1" xmlns="http://www.w3.org/2000/svg" xmlns:xlink="http://www.w3.org/1999/xlink" x="0px" y="0px"
	 viewBox="0 0 1790.1 351.8" style="enable-background:new 0 0 1790.1 351.8;" xml:space="preserve">
<style type="text/css">
	.st0{fill:#5488C6;}
	.st1{fill:#C21E5C;}
	.st2{opacity:0.1;fill:#5488C6;}
	.st3{fill:none;}
	.st4{fill:#EC407A;}
	.st5{fill:#00A4C6;}
	.st6{fill:#F47C20;}
	.st7{fill:#14B9D4;}
	.st8{fill:#5487C6;}
	.st9{fill:#ADB7DD;}
	.st10{fill:#5588C6;}
	.st11{fill:#F9BF2C;}
	.st12{fill:#0D94A6;}
	.st13{fill:#3073BA;}
	.st14{fill:#F47A20;}
	.st15{fill:#005EAD;}
	.st16{fill:#F04F23;}
	.st17{fill:#5E75B9;}
	.st18{fill:#00A6C7;}
	.st19{fill:#5CB2E4;}
	.st20{fill:#E9008A;}
	.st21{fill:#A5228E;}
	.st22{fill:#BFDD9F;}
	.st23{fill:#F9EDEA;}
	.st24{fill:#B21E8E;}
	.st25{fill:#722B90;}
	.st26{fill:#E6F1F7;}
	.st27{fill:#E2A225;}
	.st28{fill:#00A5C7;}
	.st29{fill:#BEDDF4;}
	.st30{fill:#1C439C;}
	.st31{fill:#15489E;}
	.st32{fill:#2E3192;}
	.st33{fill:#00A3AD;}
	.st34{fill:#00A4C8;}
	.st35{fill:#006FBA;}
	.st36{fill:#00A5CF;}
	.st37{fill:#4B2F92;}
	.st38{fill:#AED582;}
	.st39{fill:#EB155C;}
	.st40{fill:#532E91;}
	.st41{fill:#B6D449;}
	.st42{fill:#0085A1;}
	.st43{fill:#007888;}
	.st44{fill:#D78C2A;}
	.st45{fill:#E41F26;}
	.st46{fill:#ED1C24;}
	.st47{fill:#E31072;}
	.st48{fill:#0E7C84;}
	.st49{fill:#5B6A40;}
	.st50{fill:#E08B27;}
	.st51{fill:#847A3D;}
	.st52{opacity:0.1;fill:#C21E5C;}
	.st53{fill:#F47E75;}
	.st54{fill:#C8E5C9;}
	.st55{fill:#CF3728;}
	.st56{fill:#FEE2B5;}
	.st57{fill:#EB008B;}
	.st58{fill:#F1F5D0;}
	.st59{fill:#FCEEEE;}
	.st60{fill:#F04F67;}
	.st61{fill:#ED135D;}
	.st62{fill:#EF4966;}
	.st63{fill:#CCDFD9;}
	.st64{fill:#F1F1A9;}
	.st65{fill:#EE255F;}
	.st66{fill:#E6F2F9;}
	.st67{fill:#CCDDD2;}
	.st68{fill:#FFF39E;}
	.st69{fill:#317E3D;}
	.st70{fill:#D1DA9C;}
	.st71{fill:#E8F6FE;}
	.st72{fill:#14499E;}
	.st73{opacity:0.1;fill:#40499E;}
	.st74{fill:#40499E;}
	.st75{fill:#E5EBF7;}
	.st76{fill:#00A2E1;}
	.st77{fill:#23C4F4;}
	.st78{fill:#EB519D;}
	.st79{fill:#BCE6FB;}
	.st80{fill:#40499F;}
	.st81{fill:#166DB6;}
	.st82{fill:#325BA9;}
	.st83{fill:#3558A8;}
	.st84{fill:#0089CC;}
	.st85{fill:#22BDEB;}
	.st86{fill:#594A9E;}
	.st87{fill:#A9E0FA;}
	.st88{fill:#EB1069;}
	.st89{fill:#ADE1FA;}
	.st90{fill:#D6A3CB;}
	.st91{fill:#E6F4F6;}
	.st92{fill:#E9F6F9;}
	.st93{fill:#1EA8C2;}
	.st94{opacity:0.1;fill:#0E7C84;}
	.st95{fill:#E7F5F9;}
	.st96{fill:#00A5C1;}
	.st97{fill:#0096D7;}
	.st98{fill:#0099D9;}
	.st99{fill:#0099A6;}
	.st100{fill:#4DAF50;}
	.st101{fill:#F4F8EF;}
	.st102{fill:#F3F0A5;}
	.st103{fill:#009BDB;}
	.st104{fill:#2D54A5;}
	.st105{fill:#7AD2F3;}
	.st106{fill:#006DB8;}
	.st107{fill:#B7E3EB;fill-opacity:0.13;}
	.st108{fill:#E1EFEA;}
	.st109{fill:#F2F7F9;}
	.st110{fill:#D6ECF5;}
	.st111{fill:#FDDD72;}
	.st112{fill:#73CEF0;}
	.st113{fill:#492F92;}
	.st114{fill:#DAEACF;}
	.st115{fill:#F04A23;}
	.st116{fill:#EE2A24;}
	.st117{fill:#EDCA19;}
	.st118{fill:#007747;}
	.st119{fill:#E3F2FB;}
	.st120{fill:#40C7F4;}
	.st121{fill:#95DAF8;}
	.st122{fill:#144A9E;}
	.st123{fill:#00C1F3;}
	.st124{fill:#64CBF4;}
	.st125{fill:#85D5F7;}
	.st126{fill:#ECF5FC;}
	.st127{fill:#EEF6FC;}
	.st128{fill:#FAFAFD;}
	.st129{fill:#2F73BA;}
	.st130{fill:#E6F6FD;}
	.st131{fill:#3558A7;}
	.st132{fill:#325DAB;}
	.st133{fill:#3F4BA0;}
	.st134{fill:#F4ACCD;}
	.st135{fill:#6B8BC7;}
	.st136{fill:#CEA1CA;}
	.st137{fill:#469AD4;}
	.st138{fill:#4F8FCC;}
	.st139{fill:#CDA1CA;}
	.st140{fill:none;stroke:#333333;stroke-width:3;stroke-miterlimit:10;}
	.st141{fill:#434343;}
</style>
<g>
	<polygon class="st0" points="844.5,-0.1 844.5,-0.1 844.5,-0.1 844.5,-0.1 	"/>
	<polyline class="st1" points="1495.8,-0.1 1495.8,-0.1 1495.9,-0.1 	"/>
	<polyline class="st2" points="1495.8,-0.1 1495.8,-0.1 1495.9,-0.1 	"/>
	<polygon class="st0" points="1495.8,-0.1 1495.8,-0.1 1495.8,-0.1 	"/>
	<polygon class="st2" points="1495.8,-0.1 1495.8,-0.1 1495.8,-0.1 	"/>
	<path class="st2" d="M1452.8-0.1"/>
	<polygon class="st3" points="1635.4,105.2 1635.4,123.7 1635.5,123.7 1635.5,105.2 	"/>
	<polygon class="st3" points="1542.2,105.3 1542.2,105.3 1542.2,105.3 	"/>
	<polygon class="st4" points="1123.3,13.1 1123.3,12.9 1123.3,12.9 1123.3,13.1 	"/>
	<polygon class="st0" points="844.5,13.2 844.5,13.2 844.5,-0.1 844.5,-0.1 844.5,-0.1 	"/>
	<polygon class="st0" points="844.5,13.2 844.5,-0.1 844.5,-0.1 844.5,13.2 	"/>
	<polygon class="st5" points="844.5,-0.1 844.5,13.2 867.5,-0.1 	"/>
	<polygon class="st4" points="357.5,39.5 380.7,26.1 335.4,-0.1 334.3,-0.1 334.3,26.1 	"/>
	<polygon class="st6" points="195.2,26.1 240.6,-0.1 240.4,-0.1 195.1,26.1 	"/>
	<polygon class="st7" points="102.3,26 102.1,26.1 102.1,26.3 102.4,26.1 	"/>
	<polygon class="st7" points="194.7,26.1 194.9,26.1 194.7,26 194.6,26.1 	"/>
	<polygon class="st8" points="55.6,79.9 102,53.1 102,26.1 56.6,-0.1 9.1,-0.1 9.1,53 	"/>
	<polygon class="st7" points="519.5,106.4 473.7,132.9 427.9,106.4 427.3,106.7 427.3,133.6 473.7,160.4 520.2,133.6 520.2,107.2 
		519.5,106.8 	"/>
	<polygon class="st9" points="334.4,133.6 334.4,133.1 334.3,133.1 334.3,133.6 334.3,160.5 288.2,187.1 333.1,213 379.2,186.4 
		334.4,160.5 	"/>
	<polygon class="st10" points="287.7,80 241.5,106.7 241.5,106.8 287.7,80.1 	"/>
	<polygon class="st11" points="241,106.6 241.4,106.8 241.4,106.7 241.2,106.6 	"/>
	<polygon class="st12" points="102.4,80.1 102.1,79.9 102.1,53.1 102,53.1 55.6,79.9 55.6,133.6 102,160.4 148.5,133.6 148.5,133.1 
		102.4,106.4 	"/>
	<polygon class="st13" points="520.2,52.4 520.2,52.8 520.6,52.6 520.6,-0.1 519.1,-0.1 474.2,25.9 	"/>
	<polygon class="st7" points="194.9,26 195,26 195,26 195,-0.1 194.9,-0.1 194.9,25.9 	"/>
	<polygon class="st14" points="195.1,26.1 240.4,-0.1 195,-0.1 195,26 	"/>
	<polygon class="st7" points="194.9,26 194.9,25.9 194.7,26 194.9,26.1 	"/>
	<polygon class="st0" points="102.1,-0.1 102,-0.1 102,26.1 102,26.1 102.1,26.1 102.1,25.9 	"/>
	<polygon class="st0" points="102.1,25.9 102.1,26.1 102.3,26 	"/>
	<polygon class="st15" points="56.6,-0.1 102,26.1 102,-0.1 	"/>
	<polygon class="st11" points="287.7,53.2 287.7,53.1 287.7,53.1 241.4,79.8 241.4,79.8 241.4,79.9 241.4,106.4 241.4,106.7 
		241.4,106.7 241.5,106.7 241.5,79.9 	"/>
	<polygon class="st16" points="241.4,52.8 241.4,79.8 241.4,79.8 287.7,53.1 241.5,26.4 241.5,-0.1 240.6,-0.1 195.2,26.1 	"/>
	<polygon class="st17" points="287.7,53.2 241.5,79.9 241.5,106.7 287.7,80 	"/>
	<polygon class="st11" points="241.2,106.6 241.4,106.7 241.4,106.4 	"/>
	<polygon class="st18" points="102.4,52.8 125.6,39.4 102.4,26.1 102.1,26.3 102,53.1 102.4,53.3 	"/>
	<polygon class="st12" points="194.6,26.1 171.8,39.2 171.9,39.3 194.7,26.1 	"/>
	<polygon class="st12" points="102.4,80.1 102.4,53.3 102.1,53.1 102.1,79.9 	"/>
	<polygon class="st19" points="566.6,-0.1 566,-0.1 565.8,0 565.8,13.9 566.6,13.4 589.9,-0.1 	"/>
	<polygon class="st20" points="379.5,159.6 379.5,186.2 379.2,186.4 380.8,187.3 427.3,160.5 427.3,133.6 380.8,160.4 	"/>
	<polygon class="st21" points="379.5,159.6 334.4,133.6 334.4,160.5 379.2,186.4 379.5,186.2 	"/>
	<polygon class="st22" points="427,106.6 426.9,106.6 380.8,133.2 357.5,119.8 357.4,119.8 379.5,132.6 379.5,159.6 380.8,160.4 
		427.3,133.6 427.3,106.8 427.3,106.7 	"/>
	<polygon class="st22" points="334.4,133.6 379.5,159.6 379.5,132.6 357.4,119.8 334.4,133.1 	"/>
	<polygon class="st23" points="286.6,159.6 241.5,133.6 241.5,160.5 287.9,187.3 288.2,187.1 286.6,186.2 	"/>
	<polygon class="st24" points="334.3,133.6 287.9,160.4 286.6,159.6 286.6,186.2 288.2,187.1 334.3,160.5 	"/>
	<polygon class="st25" points="286.6,132.6 309.8,119.2 287.7,106.4 287.7,80.1 241.5,106.8 241.5,133.6 286.6,159.6 	"/>
	<polygon class="st25" points="309.8,119.2 286.6,132.6 286.6,159.6 287.9,160.4 334.3,133.6 334.3,133.1 334.1,133.2 	"/>
	<polygon class="st26" points="148.5,133.6 148.5,160.5 195,187.3 241.4,160.5 241.4,133.6 195,160.4 	"/>
	<polygon class="st27" points="195,133.2 171.9,119.9 148.8,133.2 148.5,133.1 148.5,133.6 195,160.4 241.4,133.6 241.4,106.8 
		241,106.6 	"/>
	<polygon class="st12" points="194.7,26 149.6,-0.1 149.3,-0.1 194.6,26.1 	"/>
	<polygon class="st12" points="194.7,26 194.9,25.9 194.9,-0.1 149.6,-0.1 	"/>
	<polygon class="st28" points="149.3,-0.1 147.7,-0.1 147.5,-0.1 102.1,-0.1 102.1,25.9 102.3,26 102.4,26.1 125.6,39.4 148.8,26 
		171.8,39.2 194.6,26.1 	"/>
	<polygon class="st29" points="519.5,106.4 519.5,106.8 520.2,107.2 520.2,106 	"/>
	<polygon class="st30" points="473.8,-0.1 473.8,25.6 473.8,26.1 474.2,25.9 519.1,-0.1 	"/>
	<polygon class="st13" points="450.7,66.2 427.3,79.8 427.3,79.9 450.9,66.3 	"/>
	<polygon class="st31" points="427.8,53 427.8,52.4 427.3,52.8 427.3,79.8 450.7,66.2 	"/>
	<polygon class="st13" points="473.7,53 450.7,66.2 450.9,66.3 473.7,53.1 	"/>
	<polygon class="st32" points="473.8,53 473.8,26.1 473.7,26.1 473.7,26.1 473.5,26 473.4,26.1 427.8,52.4 427.8,53 450.7,66.2 
		473.7,53 473.7,53.1 473.7,53.1 497.1,66.6 497.2,66.5 	"/>
	<polygon class="st33" points="450.9,66.3 427.3,79.9 427.3,106.7 427.9,106.4 473.7,79.9 473.7,79.5 	"/>
	<polygon class="st34" points="450.9,66.3 473.7,79.5 473.7,53.1 	"/>
	<polygon class="st30" points="473.7,-0.1 428.3,-0.1 473.3,25.9 473.5,26 473.7,26.1 473.7,26.1 473.8,26.1 473.8,25.6 473.8,-0.1 
			"/>
	<polygon class="st13" points="426.5,-0.1 426.2,-0.1 381.1,26 380.9,26.1 381.1,26.1 427.3,52.8 427.8,52.4 427.8,52.2 427.8,-0.1 
			"/>
	<polygon class="st35" points="473.3,25.9 428.3,-0.1 428.1,-0.1 427.8,-0.1 427.8,52.2 427.8,52.4 473.4,26.1 473.5,26 	"/>
	<polygon class="st36" points="519.5,79.4 497.2,66.5 497.1,66.6 473.7,53.1 473.7,53.1 473.7,79.5 473.7,79.9 427.9,106.4 
		473.7,132.9 519.5,106.4 520.2,106 520.2,79.9 520.2,79.8 	"/>
	<polygon class="st32" points="474.2,25.9 473.8,26.1 473.8,53 497.2,66.5 519.5,79.4 520.2,79.8 520.2,53.3 520.2,52.8 520.2,52.4 
			"/>
	<polygon class="st37" points="380.8,-0.1 380.8,25.9 380.8,26 380.8,26.1 380.9,26.1 381.1,26 426.2,-0.1 	"/>
	<polygon class="st1" points="380.8,-0.1 335.4,-0.1 380.7,26.1 380.8,26.1 380.8,26.1 380.8,26.1 380.8,26 380.8,25.9 380.8,-0.1 	
		"/>
	<polygon class="st32" points="381.1,26.1 380.9,26.1 380.8,26.1 380.8,26.3 380.8,53 380.8,53.1 427.3,79.9 427.3,79.8 427.3,52.8 
			"/>
	<polygon class="st38" points="380.8,53.1 380.8,79.9 427,106.6 427.3,106.7 427.3,106.4 427.3,79.9 	"/>
	<polygon class="st1" points="334.4,79.9 334.4,79.8 334.4,79.8 288.1,53.1 287.9,53.2 334.3,79.9 334.3,106.5 334.4,106.5 
		334.4,106.4 	"/>
	<polygon class="st39" points="288.1,53.1 334.4,79.8 334.4,79.8 334.4,52.8 357.5,39.5 334.3,26.1 334.3,26.4 	"/>
	<polygon class="st1" points="334.4,106.5 334.3,106.5 334.3,106.8 334.3,133.1 334.4,133.1 334.4,106.8 	"/>
	<polygon class="st1" points="334.4,106.5 334.6,106.7 334.7,106.6 334.4,106.4 	"/>
	<polygon class="st1" points="334.4,106.8 334.6,106.7 334.4,106.5 	"/>
	<polygon class="st40" points="332.8,106 333.1,105.8 334.3,106.5 334.3,79.9 287.9,53.2 287.9,53.2 287.9,53.2 287.9,79.9 
		287.7,80 287.7,80.1 287.9,80 	"/>
	<polygon class="st1" points="332.8,106 334.3,106.8 334.3,106.5 333.1,105.8 	"/>
	<polygon class="st1" points="287.7,53.1 287.7,53.2 287.8,53.2 	"/>
	<polygon class="st1" points="287.9,53.2 287.8,53.2 287.7,53.2 287.7,80 287.9,79.9 	"/>
	<polygon class="st1" points="334.6,106.7 357.4,119.8 357.5,119.8 334.7,106.6 	"/>
	<polygon class="st41" points="334.4,106.8 334.4,133.1 357.4,119.8 334.6,106.7 	"/>
	<polygon class="st40" points="287.9,80 287.7,80.1 287.7,106.4 309.8,119.2 332.8,106 	"/>
	<polygon class="st40" points="332.8,106 309.8,119.2 334.1,133.2 334.3,133.1 334.3,106.8 	"/>
	<polygon class="st39" points="380.8,26.1 380.8,26.1 380.7,26.1 357.5,39.5 334.4,52.8 334.4,79.8 334.4,79.9 380.6,53.3 
		380.8,53.1 380.8,53.1 380.8,53 380.8,26.3 380.8,26.1 	"/>
	<polygon class="st22" points="380.8,79.9 380.8,53.1 380.8,53.1 380.6,53.3 334.4,79.9 334.4,106.4 334.7,106.6 380.6,80.2 
		380.6,106.4 357.5,119.8 380.8,133.2 426.9,106.6 427,106.6 	"/>
	<polygon class="st41" points="380.6,80.2 334.7,106.6 357.5,119.8 380.6,106.4 	"/>
	<polygon class="st9" points="148.5,106.7 148.5,106.7 148.5,106.7 148.5,133.1 148.5,133.1 148.5,106.8 	"/>
	<polygon class="st9" points="148.5,106.7 148.5,106.8 148.9,106.6 148.8,106.6 	"/>
	<polygon class="st42" points="102.4,80.1 102.4,106.4 148.5,133.1 148.5,106.7 	"/>
	<polygon class="st9" points="148.5,79.9 148.5,79.8 148.5,79.8 102.4,53.2 102.4,53.3 148.5,79.9 148.5,106.7 148.5,106.7 
		148.5,106.7 148.5,106.4 	"/>
	<polygon class="st28" points="148.5,79.8 148.5,52.8 171.9,39.3 171.8,39.2 148.5,52.7 125.6,39.4 102.4,52.8 102.4,53.3 
		148.5,79.8 	"/>
	<polygon class="st9" points="148.5,106.4 148.5,106.7 148.8,106.6 	"/>
	<polygon class="st43" points="102.4,53.3 102.4,80.1 148.5,106.7 148.5,79.9 	"/>
	<polygon class="st44" points="171.9,119.9 148.9,106.6 148.5,106.8 148.5,133.1 148.8,133.2 	"/>
	<polygon class="st33" points="171.8,39.2 148.8,26 125.6,39.4 148.5,52.7 	"/>
	<polygon class="st13" points="287.9,26.1 287.9,26.3 287.9,52.7 287.9,52.7 287.9,26.1 287.9,26.1 	"/>
	<polygon class="st45" points="287.9,-0.1 287.9,-0.1 287.9,26.1 287.9,26.1 287.9,26.1 333.3,-0.1 	"/>
	<polygon class="st46" points="287.9,-0.1 242.5,-0.1 287.9,26.1 	"/>
	<polygon class="st13" points="287.7,53.1 287.7,53.1 287.7,53.1 	"/>
	<polygon class="st46" points="242.5,-0.1 242.2,-0.1 241.5,-0.1 241.5,26.4 287.7,53.1 287.7,53.1 287.7,52.8 287.9,52.7 
		287.9,26.3 287.9,26.1 	"/>
	<polygon class="st13" points="287.9,53 287.9,53.1 287.9,53.1 287.9,53.2 288.1,53.1 287.9,53 287.9,52.7 287.9,52.7 	"/>
	<polygon class="st47" points="333.3,-0.1 287.9,26.1 287.9,52.7 287.9,53 288.1,53.1 334.3,26.4 334.3,26.1 334.3,-0.1 	"/>
	<polygon class="st13" points="287.9,53.1 287.9,53.2 287.9,53.2 287.9,53.2 287.9,53.1 	"/>
	<polygon class="st13" points="287.9,53.1 287.9,53 287.7,53.1 287.7,53.1 287.8,53.2 	"/>
	<polygon class="st13" points="287.7,52.8 287.7,53.1 287.9,53 287.9,52.7 	"/>
	<polygon class="st13" points="287.8,53.2 287.9,53.2 287.9,53.1 	"/>
	<polygon class="st48" points="195,26.1 194.9,26.1 194.9,26.3 194.9,52.6 195,52.7 195,26.3 195,26.1 	"/>
	<polygon class="st48" points="195,26.3 195.2,26.1 195.1,26.1 195,26.1 	"/>
	<polygon class="st48" points="194.9,26.1 194.9,26.1 194.7,26.1 194.9,26.3 	"/>
	<polygon class="st48" points="195.3,80.2 241,106.6 241.2,106.6 195.3,80 	"/>
	<polygon class="st48" points="195,26.1 195,26.1 195,26 195,26 194.9,26 194.9,26.1 	"/>
	<polygon class="st48" points="195.1,26.1 195,26 195,26.1 	"/>
	<polygon class="st48" points="194.9,26.1 194.9,26 194.9,26.1 	"/>
	<polygon class="st49" points="195.3,106.4 171.9,119.9 195,133.2 241,106.6 195.3,80.2 	"/>
	<polygon class="st48" points="194.9,53 194.9,53.1 195,53.1 195,53.1 195,53 195,52.7 194.9,52.6 	"/>
	<polygon class="st48" points="195.3,80.2 195.3,80 195,79.9 195,53.1 195,53.1 194.9,53.1 194.9,79.9 148.8,106.6 148.9,106.6 
		195,80 	"/>
	<polygon class="st46" points="195.2,26.1 195,26.3 195,52.7 195,53 195,53.1 195.3,53.3 241.4,79.9 241.4,79.8 241.4,52.8 	"/>
	<polygon class="st50" points="195.3,53.3 195,53.1 195,79.9 195.3,80 241.2,106.6 241.4,106.4 241.4,79.9 	"/>
	<polygon class="st48" points="148.5,79.8 148.5,79.9 194.9,53.1 194.9,53 	"/>
	<polygon class="st12" points="194.7,26.1 171.9,39.3 148.5,52.8 148.5,79.8 194.9,53 194.9,52.6 194.9,26.3 	"/>
	<polygon class="st51" points="148.5,106.4 148.8,106.6 194.9,79.9 194.9,53.1 148.5,79.9 	"/>
	<polygon class="st49" points="195.3,80.2 195,80 148.9,106.6 171.9,119.9 195.3,106.4 	"/>
	<polygon class="st4" points="1030.6,26 1030.4,26.1 1030.4,26.3 1030.7,26.1 	"/>
	<polygon class="st52" points="1030.6,26 1030.4,26.1 1030.4,26.3 1030.7,26.1 	"/>
	<polygon class="st6" points="983.9,52.7 937.7,26 937.5,26.1 983.9,52.8 983.9,80.5 983.9,80.5 1030.3,53.7 1030.3,26.1 1030.1,26 
			"/>
	<polygon class="st53" points="983.9,52.7 937.7,26 937.5,26.1 983.9,52.8 983.9,80.5 983.9,80.5 1030.3,53.7 1030.3,26.1 
		1030.1,26 	"/>
	<polygon class="st7" points="937.3,26.1 937.2,26 937,26.1 937.2,26.1 	"/>
	<polygon class="st52" points="937.3,26.1 937.2,26 937,26.1 937.2,26.1 	"/>
	<polygon class="st54" points="1077.1,106.6 1076.8,106.7 1076.8,106.8 1077.2,106.6 	"/>
	<polygon class="st6" points="1030.3,25.9 1030.3,26.1 1030.4,26.1 1030.4,26.1 1030.4,25.9 1030.4,0.1 1030.4,-0.1 1030.3,-0.1 
		1030.3,0.1 	"/>
	<polygon class="st52" points="1030.3,25.9 1030.3,26.1 1030.4,26.1 1030.4,26.1 1030.4,25.9 1030.4,0.1 1030.4,-0.1 1030.3,-0.1 
		1030.3,0.1 	"/>
	<polygon class="st6" points="1030.4,25.9 1030.4,26.1 1030.6,26 	"/>
	<polygon class="st52" points="1030.4,25.9 1030.4,26.1 1030.6,26 	"/>
	<polygon class="st6" points="1030.1,26 1030.3,26.1 1030.3,25.9 	"/>
	<polygon class="st52" points="1030.1,26 1030.3,26.1 1030.3,25.9 	"/>
	<polygon class="st7" points="937.4,25.9 937.4,26 937.4,26 937.5,26 937.5,25.9 937.5,0.1 937.5,-0.1 937.4,-0.1 937.4,25.9 	"/>
	<polygon class="st52" points="937.4,25.9 937.4,26 937.4,26 937.5,26 937.5,25.9 937.5,0.1 937.5,-0.1 937.4,-0.1 937.4,25.9 	"/>
	<polygon class="st7" points="937.7,26 937.5,25.9 937.5,26 937.5,26.1 	"/>
	<polygon class="st52" points="937.7,26 937.5,25.9 937.5,26 937.5,26.1 	"/>
	<polygon class="st7" points="937.3,26.1 937.4,26 937.4,25.9 937.2,26 	"/>
	<polygon class="st52" points="937.3,26.1 937.4,26 937.4,25.9 937.2,26 	"/>
	<polygon class="st0" points="844.5,26 844.5,13.2 844.5,13.2 844.5,26 	"/>
	<polygon class="st52" points="844.5,26 844.5,13.2 844.5,13.2 844.5,26 	"/>
	<polygon class="st55" points="1076.8,80.7 1076.8,80.5 1076.8,80.5 1030.4,53.7 1030.4,79.9 1076.8,106.7 1076.8,106.7 
		1076.8,106.4 	"/>
	<polygon class="st56" points="1076.8,80.7 1076.8,80.5 1076.8,80.5 1030.4,53.7 1030.4,79.9 1076.8,106.7 1076.8,106.7 
		1076.8,106.4 	"/>
	<polygon class="st55" points="1076.8,106.4 1076.8,106.7 1077.1,106.6 	"/>
	<polygon class="st12" points="891,80.3 890.9,80.4 890.9,106.4 890.7,106.6 891,106.7 891.2,106.6 891,106.4 	"/>
	<polygon class="st52" points="891,80.3 890.9,80.4 890.9,106.4 890.7,106.6 891,106.7 891.2,106.6 891,106.4 	"/>
	<polygon class="st57" points="1123,174 1123,160.9 1122.5,160.6 1076.8,134.3 1076.8,160.5 1111.4,180.4 1123.3,187.3 
		1134.7,180.7 	"/>
	<polygon class="st58" points="1122.5,132.8 1077.2,106.6 1077.1,106.6 1076.8,106.7 1076.8,106.7 1076.8,134.3 1122.5,160.6 
		1123,160.9 1123,133.1 	"/>
	<polygon class="st59" points="983.9,106.7 983.9,160.3 1030.4,187.1 1076.8,160.3 1076.8,106.7 1030.4,79.9 	"/>
	<polygon class="st55" points="1030.7,-0.1 1030.4,-0.1 1030.4,0.1 	"/>
	<polygon class="st52" points="1030.7,-0.1 1030.4,-0.1 1030.4,0.1 	"/>
	<polygon class="st11" points="982.8,-0.1 937.7,26 983.9,52.7 1030.1,26 984.9,-0.1 	"/>
	<polygon class="st60" points="982.8,-0.1 937.7,26 983.9,52.7 1030.1,26 984.9,-0.1 	"/>
	<polygon class="st11" points="1030.3,0.1 1030.3,-0.1 1030.1,-0.1 	"/>
	<polygon class="st52" points="1030.3,0.1 1030.3,-0.1 1030.1,-0.1 	"/>
	<polygon class="st11" points="1030.1,26 1030.3,25.9 1030.3,0.1 1030.1,-0.1 984.9,-0.1 	"/>
	<polygon class="st61" points="1030.1,26 1030.3,25.9 1030.3,0.1 1030.1,-0.1 984.9,-0.1 	"/>
	<polygon class="st11" points="937.7,-0.1 937.5,-0.1 937.5,0.1 	"/>
	<polygon class="st52" points="937.7,-0.1 937.5,-0.1 937.5,0.1 	"/>
	<polygon class="st11" points="982.8,-0.1 937.7,-0.1 937.5,0.1 937.5,25.9 937.7,26 	"/>
	<polygon class="st62" points="982.8,-0.1 937.7,-0.1 937.5,0.1 937.5,25.9 937.7,26 	"/>
	<polygon class="st12" points="937.4,-0.1 937.4,25.9 937.4,25.9 937.4,-0.1 937.3,-0.1 	"/>
	<polygon class="st52" points="937.4,-0.1 937.4,25.9 937.4,25.9 937.4,-0.1 937.3,-0.1 	"/>
	<polygon class="st63" points="937.3,-0.1 892,-0.1 891.8,-0.1 890.2,-0.1 889.9,-0.1 867.5,-0.1 844.5,13.2 844.5,25.9 844.8,26 
		844.9,26.1 891,52.8 937,26.1 937.2,26 937.4,25.9 937.4,-0.1 	"/>
	<polygon class="st64" points="1077.1,106.6 1077.2,106.6 1122.5,132.8 1123,133.1 1123.3,79.9 	"/>
	<polygon class="st48" points="937.5,26.1 937.5,26.1 937.5,53.7 983.9,80.5 983.9,52.8 	"/>
	<polygon class="st65" points="937.5,26.1 937.5,26.1 937.5,53.7 983.9,80.5 983.9,52.8 	"/>
	<polygon class="st48" points="937.2,26.1 937.4,26.3 937.4,26.1 937.3,26.1 	"/>
	<polygon class="st52" points="937.2,26.1 937.4,26.3 937.4,26.1 937.3,26.1 	"/>
	<polygon class="st48" points="937.4,26.1 937.5,26.1 937.5,26 937.4,26 937.4,26 937.4,26.1 	"/>
	<polygon class="st52" points="937.4,26.1 937.5,26.1 937.5,26 937.4,26 937.4,26 937.4,26.1 	"/>
	<polygon class="st48" points="937.5,26.1 937.5,26 937.5,26.1 	"/>
	<polygon class="st52" points="937.5,26.1 937.5,26 937.5,26.1 	"/>
	<polygon class="st48" points="937.4,26.1 937.4,26 937.3,26.1 	"/>
	<polygon class="st52" points="937.4,26.1 937.4,26 937.3,26.1 	"/>
	<polygon class="st48" points="937.4,26.3 937.4,26.3 937.4,53.6 891,80.3 891,106.4 891.2,106.6 937.4,79.9 	"/>
	<polygon class="st66" points="937.4,26.3 937.4,26.3 937.4,53.6 891,80.3 891,106.4 891.2,106.6 937.4,79.9 	"/>
	<polygon class="st48" points="891,52.8 891,80.3 937.4,53.6 937.4,26.3 937.2,26.1 	"/>
	<polygon class="st67" points="891,52.8 891,80.3 937.4,53.6 937.4,26.3 937.2,26.1 	"/>
	<polygon class="st68" points="890.7,106.6 844.5,79.9 844.5,133.2 844.5,133.2 	"/>
	<polygon class="st69" points="844.8,26.1 844.6,26.1 844.5,26.1 844.5,26.1 844.5,53.6 844.5,53.6 844.5,26.3 	"/>
	<polygon class="st52" points="844.8,26.1 844.6,26.1 844.5,26.1 844.5,26.1 844.5,53.6 844.5,53.6 844.5,26.3 	"/>
	<polygon class="st69" points="844.5,26 844.5,26.1 844.5,26.1 844.5,26 	"/>
	<polygon class="st52" points="844.5,26 844.5,26.1 844.5,26.1 844.5,26 	"/>
	<polygon class="st69" points="844.6,26.1 844.5,26 844.5,26 844.5,26.1 844.5,26.1 	"/>
	<polygon class="st52" points="844.6,26.1 844.5,26 844.5,26 844.5,26.1 844.5,26.1 	"/>
	<polygon class="st69" points="844.4,26.1 844.5,26.1 844.5,26 	"/>
	<polygon class="st52" points="844.4,26.1 844.5,26.1 844.5,26 	"/>
	<polygon class="st70" points="890.9,80.4 891,52.8 844.8,26.1 844.5,26.3 844.5,53.6 890.9,80.4 	"/>
	<polygon class="st71" points="1262.7,188.4 1262.7,161.3 1262.7,160.1 1262,160.5 1216.2,186.9 1216.2,214.5 1262,242.1 
		1262.7,241.6 1262.7,200.9 	"/>
	<line class="st72" x1="1309.3" y1="-0.1" x2="1309.1" y2="-0.1"/>
	<line class="st73" x1="1309.3" y1="-0.1" x2="1309.1" y2="-0.1"/>
	<polygon class="st74" points="1262,134.5 1262,134.5 1216.2,160.9 1169.8,134.1 1169.8,160.1 1216.2,186.9 1216.2,186.9 
		1216.2,160.9 	"/>
	<polygon class="st75" points="1262,134.5 1262,134.5 1216.2,160.9 1169.8,134.1 1169.8,160.1 1216.2,186.9 1216.2,186.9 
		1216.2,160.9 	"/>
	<polygon class="st74" points="1170.1,106.3 1169.8,106.5 1169.8,106.7 1170.3,106.4 	"/>
	<polygon class="st76" points="1170.1,106.3 1169.8,106.5 1169.8,106.7 1170.3,106.4 	"/>
	<line class="st74" x1="1262" y1="134.5" x2="1262" y2="134.5"/>
	<line class="st73" x1="1262" y1="134.5" x2="1262" y2="134.5"/>
	<polygon class="st77" points="1262,134.5 1216.2,160.9 1216.2,186.9 1262,160.5 1262.7,160.1 1262.7,134.1 	"/>
	<polygon class="st78" points="1169.8,134.3 1123.3,161.1 1123,160.9 1123,174 1134.7,180.7 1169.8,160.4 	"/>
	<polygon class="st79" points="1169.8,106.4 1123.3,133.2 1123,133.1 1123,160.9 1123.3,161.1 1169.8,134.3 	"/>
	<polyline class="st80" points="1309.1,-0.1 1309.1,-0.1 1308.8,-0.1 1263.7,-0.1 1263.4,-0.1 1308.7,26.1 1310,26.7 1310,-0.1 
		1309.3,-0.1 	"/>
	<polygon class="st81" points="1216,26 1216.2,25.9 1216.2,-0.1 1215.9,-0.1 1170.8,-0.1 	"/>
	<polygon class="st82" points="1308.7,26.1 1262.7,52.7 1262.6,52.7 1262.6,52.8 1262.6,80.5 1262.6,80.5 1262.7,80.5 1262.7,80.5 
		1310,53.2 1310,26.7 	"/>
	<polygon class="st76" points="1262.7,134.1 1262.7,107.2 1262.7,106.9 1262.7,106.7 1262.6,106.7 1262.6,106.5 1262.3,106.3 
		1262.1,106.4 1262,106.4 1216.2,132.9 1170.3,106.4 1169.8,106.7 1169.8,134.1 1216.2,160.9 1262,134.5 	"/>
	<polygon class="st74" points="1262,80.1 1262,80.1 1216.2,53.7 1216.2,53.7 	"/>
	<polygon class="st73" points="1262,80.1 1262,80.1 1216.2,53.7 1216.2,53.7 	"/>
	<polygon class="st74" points="1216,26 1215.8,26.1 1169.8,52.8 1169.7,80.5 1216.2,53.7 1216.2,53.7 1216.2,26.3 1216.2,26.1 
		1216.2,25.9 	"/>
	<polygon class="st73" points="1216.2,53.7 1169.7,80.5 1169.7,80.5 1216.2,53.7 	"/>
	<polygon class="st80" points="1216.5,-0.1 1216.2,-0.1 1216.2,-0.1 1216.2,-0.1 1216.2,0.1 1216.2,25.6 1216.2,25.9 1216.2,26.1 
		1216.2,26.1 1216.2,26.1 1216.5,26 1216.7,25.9 1261.6,-0.1 	"/>
	<polygon class="st83" points="1263.4,-0.1 1261.9,-0.1 1261.6,-0.1 1216.7,25.9 1216.5,26 1216.6,26.1 1262.6,52.7 1262.7,52.7 
		1308.7,26.1 	"/>
	<polygon class="st84" points="1170.8,-0.1 1168.7,-0.1 1123.3,26.1 1169.8,52.8 1216,26 	"/>
	<polygon class="st76" points="1262.6,80.5 1262,80.1 1216.2,53.7 1216.2,53.7 1216.2,53.7 1216.2,53.7 1216.2,53.7 1169.7,80.5 
		1169.8,106 1169.8,106.5 1170.1,106.3 1216.2,79.7 1216.2,79.7 1216.2,79.7 1262,106.1 1262.3,106.3 1262.6,106.5 1262.6,106.7 
		1262.7,106.7 1262.7,80.5 	"/>
	<polygon class="st80" points="1216.6,26.1 1216.5,26 1216.2,26.1 1216.2,26.1 1216.2,26.1 1216.2,26.3 1216.2,53.7 1216.2,53.7 
		1216.2,53.7 1262,80.1 1262.6,80.5 1262.6,52.8 1262.6,52.7 	"/>
	<polygon class="st74" points="1262,80.1 1262,80.1 1262.6,80.5 1262.6,80.5 	"/>
	<polygon class="st73" points="1262,80.1 1262,80.1 1262.6,80.5 1262.6,80.5 	"/>
	<polygon class="st85" points="1262,106.1 1216.2,79.7 1216.2,79.7 1216.2,79.7 1170.1,106.3 1170.3,106.4 1216.2,132.9 1262,106.4 
		1262.1,106.4 1262.3,106.3 	"/>
	<polygon class="st86" points="1146.1,-0.1 1145.8,-0.1 1123.3,12.9 1123.3,13.1 1123.3,25.9 1123.3,26 1123.3,26.1 1123.4,26.1 
		1123.5,26 1168.7,-0.1 	"/>
	<polygon class="st61" points="1123.3,13.1 1123.3,12.9 1122.5,13.4 1099.2,-0.1 1099.2,-0.1 1077.9,-0.1 1077.6,-0.1 1076,-0.1 
		1075.8,-0.1 1030.7,-0.1 1030.4,0.1 1030.4,25.9 1030.6,26 1030.7,26.1 1030.4,26.3 1030.4,53.7 1076.8,80.5 1076.8,80.5 
		1076.8,52.8 1122.5,26.5 1123,26.2 1123,26.1 1123.2,26.1 1123.3,26.1 1123.3,26.1 1123.3,26.1 1123.3,26 1123.3,25.9 1123.3,13.1 
			"/>
	<polygon class="st80" points="1123.3,26.1 1123.3,53.7 1169.7,80.5 1169.8,52.8 	"/>
	<polygon class="st87" points="1169.7,80.5 1123.3,53.7 1123.3,53.9 1123.3,79.9 1169.5,106.6 1169.8,106.4 	"/>
	<polygon class="st88" points="1123.3,26.1 1123.3,26.1 1123.2,26.1 1123,26.1 1123,26.2 1122.5,26.5 1076.8,52.8 1076.8,80.5 
		1122.5,54.2 1123,53.9 1123.3,53.7 1123.3,53.7 1123.3,26.3 1123.3,26.1 	"/>
	<polygon class="st68" points="1076.8,80.5 1076.8,106.4 1076.8,106.7 1077.1,106.6 1123.3,79.9 1123.3,53.7 	"/>
	<polygon class="st89" points="1123.3,79.9 1123,133.1 1123.3,133.2 1169.5,106.6 	"/>
	<polygon class="st0" points="1123.3,12.9 1123.3,12.9 1123.3,0.1 1123.3,-0.1 1123.3,-0.1 1123.3,0.1 	"/>
	<polygon class="st0" points="1123.6,-0.1 1123.3,-0.1 1123.3,0.1 	"/>
	<polygon class="st0" points="1123.6,-0.1 1123.3,0.1 1123.3,12.9 1145.8,-0.1 	"/>
	<polygon class="st0" points="1123.3,0.1 1123.3,-0.1 1123,-0.1 	"/>
	<polygon class="st90" points="1122.5,13.4 1123.3,12.9 1123.3,0.1 1123,-0.1 1099.2,-0.1 	"/>
	<polygon class="st91" points="612.1,-0.1 566.7,26.1 566.6,26.1 566.6,26.8 612.4,53.2 612.4,80.3 658.6,53.7 658.6,26.1 
		613.3,-0.1 	"/>
	<polygon class="st92" points="612.1,-0.1 566.7,26.1 566.6,26.1 566.6,26.8 612.4,53.2 612.4,80.3 658.6,53.7 658.6,26.1 
		613.3,-0.1 	"/>
	<polygon class="st19" points="844.2,25.9 844.1,25.9 799.1,-0.1 797,-0.1 751.6,26.1 751.6,53.5 798,80.4 798.1,80.3 798.1,52.8 
		844.1,26.2 844.2,26.2 844.4,26.1 	"/>
	<polygon class="st48" points="704,-0.1 658.7,26.1 658.7,53.7 705.1,80.5 751.6,53.7 751.6,26.1 706.2,-0.1 	"/>
	<polygon class="st93" points="704,-0.1 658.7,26.1 658.7,53.7 705.1,80.5 751.6,53.7 751.6,26.1 706.2,-0.1 	"/>
	<polygon class="st91" points="658.6,26.1 658.7,26.1 658.7,26.1 658.7,0.1 659,-0.1 658.4,-0.1 658.6,0 	"/>
	<polygon class="st94" points="658.6,26.1 658.7,26.1 658.7,26.1 658.7,0.1 659,-0.1 658.4,-0.1 658.6,0 	"/>
	<polygon class="st91" points="658.6,26.1 658.6,0 658.4,-0.1 613.3,-0.1 	"/>
	<polygon class="st95" points="658.6,26.1 658.6,0 658.4,-0.1 613.3,-0.1 	"/>
	<polygon class="st91" points="658.7,26.1 704,-0.1 659,-0.1 658.7,0.1 	"/>
	<polygon class="st96" points="658.7,26.1 704,-0.1 659,-0.1 658.7,0.1 	"/>
	<polygon class="st97" points="844.5,-0.1 820.6,-0.1 799.1,-0.1 844.1,25.9 844.2,25.9 844.4,26.1 844.5,26 844.5,13.2 844.5,-0.1 
			"/>
	<polygon class="st48" points="751.6,26.1 751.6,26.1 751.6,26.1 751.6,-0.1 751.6,-0.1 751.3,-0.1 751.6,0.1 	"/>
	<polygon class="st94" points="751.6,26.1 751.6,26.1 751.6,26.1 751.6,-0.1 751.6,-0.1 751.3,-0.1 751.6,0.1 	"/>
	<polygon class="st48" points="751.6,26.1 797,-0.1 751.6,-0.1 751.6,-0.1 	"/>
	<polygon class="st98" points="751.6,26.1 797,-0.1 751.6,-0.1 751.6,-0.1 	"/>
	<polygon class="st48" points="751.6,26.1 751.6,0.1 751.3,-0.1 706.2,-0.1 	"/>
	<polygon class="st99" points="751.6,26.1 751.6,0.1 751.3,-0.1 706.2,-0.1 	"/>
	<polygon class="st100" points="705.1,106.5 705.1,160.1 751.6,186.9 798,160.1 798,106.5 751.6,79.7 	"/>
	<polygon class="st101" points="705.1,106.5 705.1,160.1 751.6,186.9 798,160.1 798,106.5 751.6,79.7 	"/>
	<g>
		<polygon class="st102" points="890.9,80.4 844.5,53.6 844.5,79.9 890.7,106.6 890.9,106.4 890.9,80.4 		"/>
		<polygon class="st102" points="798.1,80.3 798.1,106.4 844.5,133.2 844.5,133.2 844.5,53.6 		"/>
	</g>
	<polygon class="st103" points="844.4,26.1 844.2,26.2 844.1,26.2 798.1,52.8 798.1,80.3 844.5,53.6 844.5,26.1 	"/>
	<polygon class="st35" points="565.7,25.6 521.3,-0.1 520.6,-0.1 520.6,52.6 565.7,26.5 565.8,26.5 565.8,25.6 	"/>
	<polygon class="st104" points="521.3,-0.1 565.7,25.6 565.8,25.6 565.8,13.9 565.8,0 566,-0.1 	"/>
	<polygon class="st105" points="589.9,-0.1 566.6,13.4 565.8,13.9 565.8,25.6 566.6,26.1 566.7,26.1 612.1,-0.1 	"/>
	<polygon class="st106" points="565.7,26.5 520.6,52.6 520.2,52.8 520.2,53.3 520.2,79.8 520.2,79.8 565.7,53.5 565.8,53.5 
		565.8,26.5 	"/>
	<polygon class="st26" points="566.6,26.8 566,26.4 565.8,26.5 565.8,53.5 565.8,53.7 612.2,80.5 612.4,80.3 612.4,53.2 	"/>
	<polygon class="st107" points="1774.6,24.6 1774.6,24.6 1774.6,24.6 1774.6,54.2 1775.3,53.8 1775.3,0 1775.1,-0.1 1774.6,-0.1 	
		"/>
	<polygon class="st0" points="1542.1,105.2 1541.9,105.3 1542.1,105.3 1542.2,105.3 1542.2,105.3 	"/>
	<polygon class="st6" points="1635.5,105.2 1635.5,105.2 1635.5,123.7 1651.5,114.4 	"/>
	<polygon class="st6" points="1703.1,119.7 1728.1,105.3 1727.9,105.2 1703,119.6 	"/>
	<polygon class="st6" points="1728.6,105.5 1728.6,105.1 1728.3,105.3 	"/>
	<polygon class="st54" points="1588.4,185.8 1588.7,186 1588.7,215.5 1588.8,215.5 1588.8,161.7 1588.7,161.7 1588.7,185.6 	"/>
	<polygon class="st108" points="1310.7,321.4 1357.2,348.2 1391.5,328.3 1310.7,281.9 	"/>
	<polyline class="st4" points="1542.2,105.3 1542.2,105.3 1542.2,105.3 	"/>
	<line class="st4" x1="1542.1" y1="105.2" x2="1542.2" y2="105.3"/>
	<polyline class="st88" points="1542.2,105.3 1542.3,105.2 1542.4,105.3 1588.7,132 1588.7,161.5 1588.8,161.6 1626.3,139.9 
		1626.3,129 1635.4,123.7 1635.4,105.2 1635.2,105.3 1588.8,78.5 1588.8,65 1588.7,65 1542.3,91.8 1542.3,105.1 	"/>
	<polygon class="st6" points="1635.5,105.2 1635.4,105.1 1635.4,105.2 1635.5,105.2 	"/>
	<polygon class="st6" points="1635.5,105.2 1635.5,105.2 1635.5,105.2 	"/>
	<polygon class="st109" points="1728.1,80.4 1728.1,80.6 1728.6,80.9 1728.6,105.1 1774.6,78.5 1774.6,54.2 1728.7,80.7 	"/>
	<polygon class="st110" points="1774.6,24.6 1728.1,51.5 1728.1,51.5 1728.1,80.4 1728.7,80.7 1774.6,54.2 1774.6,24.6 	"/>
	<polygon class="st7" points="1728.1,80.6 1728.1,105.1 1727.9,105.2 1728.1,105.3 1728.2,105.2 1728.3,105.3 1728.6,105.1 
		1728.6,80.9 	"/>
	<polygon class="st111" points="1681.7,161.4 1635.5,134.7 1635.5,123.7 1635.4,123.7 1635.4,134.7 1626.3,139.9 1626.3,164.4 
		1635.2,159.2 1681.7,186 1681.7,204.3 1697.8,194.9 1681.7,185.6 	"/>
	<polygon class="st55" points="1635.4,123.7 1626.3,129 1626.3,139.9 1635.4,134.7 	"/>
	<polygon class="st46" points="1681.7,131.9 1651.5,114.4 1635.5,123.7 1635.5,134.7 1681.7,161.4 1681.7,132 1703.1,119.7 
		1703,119.6 	"/>
	<polygon class="st20" points="1541.6,242.1 1541.6,254.3 1531.4,260.2 1542.3,266.5 1588.7,239.7 1588.7,215.5 1542.2,242.4 	"/>
	<polygon class="st22" points="1588.4,185.8 1542.3,212.4 1541.6,212 1541.6,242.1 1542.2,242.4 1588.7,215.5 1588.7,186 	"/>
	<polygon class="st23" points="1626.3,182.6 1626.3,164.4 1588.8,186 1588.8,239.7 1635.2,266.5 1681.7,239.7 1681.7,204.3 
		1672.8,209.4 	"/>
	<polygon class="st23" points="1635.2,159.2 1626.3,164.4 1626.3,182.6 1672.8,209.4 1681.7,204.3 1681.7,186 	"/>
	<polygon class="st32" points="1681.7,24.7 1681.7,11.4 1670.1,18.1 1681.7,24.7 	"/>
	<polygon class="st110" points="1774.6,24.6 1774.6,-0.1 1731.8,-0.1 1774.6,24.6 	"/>
	<polygon class="st112" points="1731.7,-0.1 1724.6,-0.1 1714.1,6 1698.2,15.2 1682.1,24.5 1682,24.6 1681.9,24.6 1681.8,24.7 
		1682,24.8 1682,24.8 1682.1,24.9 1703.4,37.2 1723,48.6 1728.1,51.5 1774.5,24.6 	"/>
	<polygon class="st7" points="1724.7,-0.1 1724.6,-0.1 1714.2,6 	"/>
	<polygon class="st54" points="1495.9,67.2 1495.9,66.3 1495.9,66.3 1495.9,67.2 	"/>
	<polygon class="st11" points="1681.7,54.2 1681.8,54.1 1681.8,54 1681.7,54 	"/>
	<polygon class="st16" points="1681.8,54.1 1681.7,54.2 1681.7,78.5 1635.5,105.2 1651.5,114.4 1672.8,102.2 1703,119.6 
		1727.9,105.2 1681.8,78.5 	"/>
	<polygon class="st113" points="1681.8,24.7 1681.7,24.8 1681.6,24.7 1681.7,24.7 1670.1,18.1 1670,18.1 1623.9,44.7 1598.5,59.4 
		1598.3,59.5 1635.3,80.8 1635.3,80.6 1635.4,80.7 1681.7,54 1681.8,54 1681.8,24.7 1681.8,24.7 	"/>
	<polygon class="st46" points="1635.4,80.7 1635.3,80.6 1635.3,80.8 1598.3,59.5 1588.8,65 1588.8,78.5 1635.2,105.3 1635.4,105.2 
		1635.4,105.1 1635.5,105.2 1635.5,105.2 1681.7,78.5 1681.7,54.2 1681.7,54 	"/>
	<polygon class="st114" points="1723.2,48.6 1682.1,24.9 1682,24.8 1681.8,24.7 1681.8,24.7 1681.8,54 1681.8,54.1 1682,54 
		1728.1,80.6 1728.1,80.4 1728.1,51.5 	"/>
	<polygon class="st115" points="1681.8,54.1 1681.8,78.5 1727.9,105.2 1728.1,105.1 1728.1,80.6 1682,54 	"/>
	<polygon class="st46" points="1703,119.6 1672.8,102.2 1651.5,114.4 1681.7,131.9 	"/>
	<polygon class="st11" points="1723.2,48.6 1728.1,51.5 1728.1,51.4 	"/>
	<polygon class="st32" points="1402.2,-0.1 1378.1,-0.1 1359.9,-0.1 1359.6,-0.1 1353.3,-0.1 1310,-0.1 1310,25.6 1310,27.3 
		1310,66.4 1320.5,60.4 1320.5,60.4 1320.6,60.3 1344,46.9 1346.4,45.5 1392.6,19 1392.7,18.9 1401.3,14 1402.4,13.3 1402.4,13.3 
		1402.4,12.2 1402.4,0.1 1402.4,0 1402.4,-0.1 	"/>
	<polygon class="st1" points="1542.2,105.3 1542.2,105.4 1542.2,105.4 1542.2,105.3 1542.2,105.3 	"/>
	<polygon class="st1" points="1542.2,105.4 1542.2,105.3 1542.1,105.3 	"/>
	<polygon class="st39" points="1542.4,105.3 1542.3,105.3 1542.2,105.3 1542.2,105.4 1542.3,105.5 1542.3,134.7 1588.7,161.5 
		1588.7,132 	"/>
	<polygon class="st22" points="1542.3,134.7 1542.3,134.9 1542.3,159.1 1541.6,159.5 1541.6,159.6 1542.3,159.2 1588.4,185.8 
		1588.7,185.6 1588.7,161.7 1588.7,161.5 	"/>
	<polygon class="st1" points="1542.2,105.3 1542.2,105.3 1542.2,105.3 	"/>
	<polygon class="st1" points="1542.2,105.3 1542.2,105.3 1542.3,105.3 1542.4,105.3 1542.3,105.2 	"/>
	<polygon class="st1" points="1542.3,134.7 1542.3,105.5 1542.2,105.4 1542.2,134.7 	"/>
	<polygon class="st41" points="1542.3,212.4 1588.4,185.8 1542.3,159.2 1541.6,159.6 1541.6,212 	"/>
	<polygon class="st26" points="1719.2,140.1 1719.2,182.6 1697.8,194.9 1728.2,212.4 1774.6,185.6 1774.6,132 1728.6,105.5 
		1728.6,134.7 	"/>
	<polygon class="st116" points="1728.2,105.3 1728.1,105.3 1703.1,119.7 1719.2,129 1719.2,140.1 1728.6,134.7 1728.6,105.5 
		1728.3,105.3 	"/>
	<polygon class="st48" points="1728.3,105.3 1728.2,105.2 1728.1,105.3 1728.2,105.3 	"/>
	<polygon class="st117" points="1719.2,140.1 1682,161.6 1681.7,161.4 1681.7,185.6 1697.8,194.9 1719.2,182.6 	"/>
	<polygon class="st116" points="1681.7,161.4 1682,161.6 1719.2,140.1 1719.2,129 1703.1,119.7 1681.7,132 	"/>
	<polygon class="st118" points="1310.7,226.8 1310.7,226.8 1308.4,228.1 1308,227.8 1272.9,248.1 1308.4,269 1310.7,267.7 
		1310.7,240.1 	"/>
	<polygon class="st119" points="1310.7,226.8 1310.7,226.8 1308.4,228.1 1308,227.8 1272.9,248.1 1308.4,269 1310.7,267.7 
		1310.7,240.1 	"/>
	<polygon class="st118" points="1297.8,221.8 1262.7,241.6 1262.7,242.1 1272.9,248.1 1308,227.8 	"/>
	<polygon class="st73" points="1297.8,221.8 1262.7,241.6 1262.7,242.1 1272.9,248.1 1308,227.8 	"/>
	<polygon class="st119" points="1297.8,221.8 1262.7,241.6 1262.7,242.1 1272.9,248.1 1308,227.8 	"/>
	<polygon class="st118" points="1262.7,200.9 1262.7,241.6 1297.8,221.8 	"/>
	<polygon class="st73" points="1262.7,200.9 1262.7,241.6 1297.8,221.8 	"/>
	<polygon class="st120" points="1262.7,200.9 1262.7,241.6 1297.8,221.8 	"/>
	<polygon class="st69" points="1262.7,161.3 1262.7,188.4 1286.5,174.6 	"/>
	<polygon class="st73" points="1262.7,161.3 1262.7,188.4 1286.5,174.6 	"/>
	<polygon class="st69" points="1309.2,187.3 1286.5,174.6 1262.7,188.4 1262.7,200.9 1297.8,221.8 1309.2,215.3 	"/>
	<polygon class="st73" points="1309.2,187.3 1286.5,174.6 1262.7,188.4 1262.7,200.9 1297.8,221.8 1309.2,215.3 	"/>
	<polygon class="st121" points="1286.5,174.6 1262.7,161.3 1262.7,188.4 1262.7,200.9 1297.8,221.8 1309.2,215.3 1309.2,187.3 	"/>
	<polygon class="st73" points="1273.6,141 1262.7,134.7 1262.7,147.3 1262.7,161.3 1286.5,174.6 1308.4,161.8 1309.2,162.2 
		1309.2,161.5 	"/>
	<polygon class="st91" points="1308.4,161.8 1286.5,174.6 1309.2,187.3 1309.2,162.2 	"/>
	<polygon class="st73" points="1308.4,161.8 1286.5,174.6 1309.2,187.3 1309.2,162.2 	"/>
	<polygon class="st73" points="1308.4,161.8 1286.5,174.6 1309.2,187.3 1309.2,162.2 	"/>
	<polygon class="st122" points="1262.7,106.7 1262.7,106.7 1262.7,106.7 1310,79.4 1310,66.4 1262.7,93.6 	"/>
	<polygon class="st83" points="1262.7,93.6 1262.7,93.6 1262.7,93.6 1310,66.4 1310,53.2 1262.7,80.5 	"/>
	<polygon class="st91" points="1403.6,240.1 1403.6,267.8 1403.6,280.5 1403.6,321.4 1401.8,322.4 1402.3,322.8 1448.9,295.9 
		1448.9,265.8 1403.6,239.7 	"/>
	<polygon class="st71" points="1403.6,240.1 1403.6,267.8 1403.6,280.5 1403.6,321.4 1401.8,322.4 1402.3,322.8 1448.9,295.9 
		1448.9,265.8 1403.6,239.7 	"/>
	<polygon class="st118" points="1366.3,302 1357.2,307.3 1310.7,280.5 1310.7,281.9 1391.5,328.3 1401.8,322.4 	"/>
	<polygon class="st119" points="1366.3,302 1357.2,307.3 1310.7,280.5 1310.7,281.9 1391.5,328.3 1401.8,322.4 	"/>
	<polygon class="st118" points="1403.6,280.5 1366.3,302 1401.8,322.4 1403.6,321.4 	"/>
	<polygon class="st123" points="1403.6,280.5 1366.3,302 1401.8,322.4 1403.6,321.4 	"/>
	<polygon class="st124" points="1334.6,253.9 1310.7,240.1 1310.7,267.7 1310.7,267.8 1334.7,253.9 	"/>
	<polygon class="st69" points="1403.6,267.8 1403.6,240.1 1379.6,253.9 	"/>
	<polygon class="st125" points="1403.6,267.8 1403.6,240.1 1379.6,253.9 	"/>
	<polygon class="st69" points="1355.8,266.1 1334.7,253.9 1310.7,267.8 1310.7,280.5 1357.2,307.3 1366.3,302 1355.8,295.9 	"/>
	<polygon class="st126" points="1355.8,266.1 1334.7,253.9 1310.7,267.8 1310.7,280.5 1357.2,307.3 1366.3,302 1355.8,295.9 	"/>
	<polygon class="st69" points="1403.6,267.8 1379.6,253.9 1357.2,266.9 1355.8,266.1 1355.8,295.9 1366.3,302 1403.6,280.5 	"/>
	<polygon class="st125" points="1403.6,267.8 1379.6,253.9 1357.2,266.9 1355.8,266.1 1355.8,295.9 1366.3,302 1403.6,280.5 	"/>
	<polygon class="st0" points="1449.4,80.6 1449.4,80.5 1449.4,80.5 1449.4,80.7 	"/>
	<polygon class="st73" points="1449.4,80.6 1449.4,80.5 1449.4,80.5 1449.4,80.7 	"/>
	<polygon class="st127" points="1319.4,221.2 1310.7,216.2 1309.2,215.3 1297.8,221.8 1308,227.8 1308.4,228.1 1310.7,226.8 
		1319.8,221.5 	"/>
	<polygon class="st119" points="1354.9,241.7 1319.9,221.5 1319.8,221.5 1310.7,226.8 1310.7,226.8 1310.7,240.1 1334.6,253.9 
		1334.7,253.9 1355.3,242 	"/>
	<polygon class="st91" points="1355.3,242 1334.7,253.9 1355.8,266.1 1355.8,242.2 	"/>
	<polygon class="st128" points="1355.3,242 1334.7,253.9 1355.8,266.1 1355.8,242.2 	"/>
	<line class="st129" x1="1403" y1="24.5" x2="1403" y2="24.5"/>
	<line class="st73" x1="1403" y1="24.5" x2="1403" y2="24.5"/>
	<line class="st72" x1="1320.5" y1="60.4" x2="1320.5" y2="60.4"/>
	<line class="st73" x1="1320.5" y1="60.4" x2="1320.5" y2="60.4"/>
	<polygon class="st74" points="1403.6,216 1403.6,226.8 1403.6,239.7 1448.9,265.8 1448.9,242.2 	"/>
	<polygon class="st77" points="1403.6,216 1403.6,226.8 1403.6,239.7 1448.9,265.8 1448.9,242.2 	"/>
	<polygon class="st130" points="1403,215.7 1403,215.5 1402.4,215.2 1402.3,215.2 1392.9,220.7 1357.4,241.1 1355.8,242.1 
		1355.8,242.2 1355.8,266.1 1357.2,266.9 1379.6,253.9 1403.6,240.1 1403.6,239.7 1403.6,226.8 1403.6,216 	"/>
	<polygon class="st78" points="1541.6,242.1 1495.6,215.3 1495.8,239.3 1531.4,260.2 1541.6,254.3 	"/>
	<polygon class="st79" points="1496.2,185.8 1496.1,185.8 1495.9,185.9 1495.8,185.9 1495.6,185.8 1495.6,185.7 1495.6,215.3 
		1449,242.2 1448.9,242.2 1448.9,265.8 1449.4,266.1 1495.8,239.3 1495.6,215.3 1495.6,215.3 1541.6,242.1 1541.6,212 	"/>
	<polygon class="st0" points="1458.8,45.8 1412.7,19.2 1403.3,24.7 1449.4,51.3 	"/>
	<polygon class="st80" points="1458.8,45.8 1412.7,19.2 1403.3,24.7 1449.4,51.3 	"/>
	<polygon class="st80" points="1412.6,19.2 1403,13.6 1403,24.5 1403,24.5 1403.2,24.6 1403.3,24.7 1412.7,19.2 	"/>
	<polygon class="st7" points="1448.9,105.1 1448.9,105.1 1448.9,105.1 	"/>
	<polygon class="st73" points="1448.9,105.1 1448.9,105.1 1448.9,105.1 	"/>
	<polygon class="st7" points="1403,54.1 1402.9,54 1402.9,54.1 1403,54.2 	"/>
	<polygon class="st73" points="1403,54.1 1402.9,54 1402.9,54.1 1403,54.2 	"/>
	<polygon class="st81" points="1495.9,67.2 1484.3,60.5 1484.2,60.5 1449.4,80.5 1449.4,80.6 1449.4,104.8 1449.8,105.1 
		1495.9,78.5 	"/>
	<polygon class="st131" points="1458.8,45.8 1449.4,51.3 1403,24.5 1403,24.9 1403,54.1 1421.3,64.8 1449,80.7 1449.4,80.5 
		1449.4,80.5 1484.2,60.5 	"/>
	<polygon class="st86" points="1542.3,105.3 1542.3,94 1495.9,67.2 1495.9,78.5 	"/>
	<polygon class="st91" points="1355.8,134.6 1356.5,135.1 1356.5,135.1 	"/>
	<polygon class="st73" points="1355.8,134.6 1356.5,135.1 1356.5,135.1 	"/>
	<polygon class="st132" points="1402.9,78.7 1401.3,79.6 1356.8,105.3 1356.7,105.2 1356.5,105.3 1355.6,104.9 1355.6,104.8 
		1355.6,104.8 1354.9,104.4 1310,78.5 1309.1,79.9 1262.7,106.7 1262.7,106.7 1262.7,106.7 1262.7,106.9 1262.7,107.2 1262.7,134.7 
		1273.6,141 1309.2,161.5 1309.8,161.2 1310.7,160.6 1344,141.4 1354.9,135.2 1355.8,134.6 1356.5,135.1 1356.5,135.1 1401.3,161 
		1402.3,161.6 1402.4,161.6 1403,161.2 1403,161.2 1403,132 1403,131.9 1403,131.6 1448.8,105.2 	"/>
	<polygon class="st133" points="1403,185.2 1403,161.2 1402.4,161.6 1402.3,161.6 1401.3,161 1356.5,135.1 1355.8,134.6 
		1354.9,135.2 1344,141.4 1310.7,160.6 1309.8,161.2 1309.2,161.5 1309.2,162.2 1309.2,187.3 1309.2,215.3 1310.7,216.2 
		1319.4,221.2 1319.8,221.5 1319.9,221.5 1354.9,241.7 1355.3,242 1355.8,242.2 1355.8,242.1 1357.4,241.1 1392.9,220.7 
		1402.3,215.2 1402.4,215.2 1403,215.5 1403,186.4 1403,186.1 1403,185.9 1403,185.7 1403.3,185.5 	"/>
	<polygon class="st76" points="1495.6,185.7 1495.6,185.5 1495.5,185.5 1495.3,185.6 1449.4,212.1 1403.6,185.6 1403.5,185.6 
		1403.3,185.5 1403,185.7 1403,185.9 1403,186.1 1403,186.4 1403,215.5 1403,215.7 1403.6,216 1448.9,242.2 1449.1,242.1 
		1495.6,215.3 	"/>
	<polygon class="st80" points="1449.4,80.6 1449.4,80.7 1449.4,80.5 1449,80.7 1421.3,64.8 1403,54.1 1403,13.6 1402.5,13.3 
		1402.4,13.3 1402.4,13.3 1401.3,14 1392.7,18.9 1392.6,19 1320.6,60.3 1320.5,60.4 1310,66.4 1310,78.5 1354.9,104.4 1355.6,104.8 
		1355.6,104.8 1355.6,104.9 1356.5,105.3 1356.7,105.2 1356.8,105.3 1401.3,79.6 1402.9,78.7 1448.8,105.2 1448.9,105.1 
		1448.9,105.1 1448.9,105.1 1449,105 1449.4,104.8 1449.4,104.8 1449.4,104.8 	"/>
	<polygon class="st80" points="1449.4,158.9 1449.4,158.8 1449.4,158.9 1403.6,185.3 1403.6,185.5 1403.6,185.6 1449.4,212.1 
		1495.3,185.6 1495.5,185.5 	"/>
	<polygon class="st76" points="1449.4,134.9 1449.4,134.9 1449,134.7 1449,134.7 1449,134.6 1448.9,134.7 1448.9,134.7 
		1403.6,160.9 1403,161.2 1403,185.2 1403.3,185.5 1403.6,185.3 1449.4,158.9 1449.4,158.8 1449.4,158.9 1495.5,185.5 1495.6,185.5 
		1495.6,185.4 1495.6,161.6 	"/>
	<polygon class="st74" points="1403,161.2 1403,161.2 1403.6,160.9 1403.6,160.8 	"/>
	<polygon class="st73" points="1403,161.2 1403,161.2 1403.6,160.9 1403.6,160.8 	"/>
	<polygon class="st74" points="1403.5,185.6 1403.6,185.6 1403.6,185.5 	"/>
	<polygon class="st73" points="1403.5,185.6 1403.6,185.6 1403.6,185.5 	"/>
	<polygon class="st74" points="1403.3,185.5 1403.5,185.6 1403.6,185.5 1403.6,185.3 	"/>
	<polygon class="st73" points="1403.3,185.5 1403.5,185.6 1403.6,185.5 1403.6,185.3 	"/>
	<polygon class="st80" points="1542.1,105.3 1541.9,105.3 1542.1,105.2 1541.6,104.9 1495.9,78.5 1495.9,67.2 1495.9,67.2 
		1495.9,78.5 1449.8,105.1 1449.4,104.8 1449.4,104.8 1449.4,104.8 1449,105 1448.9,105.1 1448.9,105.1 1448.8,105.2 1403,131.6 
		1403,131.9 1403,132 1403,161.2 1403.6,160.8 1403.6,160.9 1448.9,134.7 1448.9,134.7 1449,134.6 1449,134.7 1449,134.7 
		1449.4,134.9 1449.4,134.9 1495.6,161.6 1495.6,161.6 1495.8,161.4 1495.9,161.4 1541.6,135 1542.2,134.7 1542.2,105.4 	"/>
	<polygon class="st87" points="1542.2,134.7 1541.6,135 1495.9,161.4 1495.8,161.4 1495.6,161.6 1495.6,161.6 1495.6,185.4 
		1495.6,185.5 1495.6,185.7 1495.6,185.8 1495.8,185.9 1495.9,185.9 1496.1,185.8 1541.6,159.5 1542.3,159.1 1542.3,134.9 
		1542.3,134.7 	"/>
	<polygon class="st89" points="1496.1,185.8 1496.2,185.8 1541.6,212 1541.6,159.6 1541.6,159.5 	"/>
	<polygon class="st134" points="1588.7,54 1542.3,80.8 1542.3,91.8 1588.7,65 1588.8,65 1588.8,54 	"/>
	<polygon class="st135" points="1589.2,24.7 1589,24.6 1588.8,24.5 1588.8,24.7 1588.8,24.9 1588.8,24.9 1588.8,54 1588.8,54 
		1598.3,59.5 1598.5,59.4 1623.9,44.7 	"/>
	<polygon class="st6" points="1588.8,54 1588.8,54 1588.8,65 1598.3,59.5 	"/>
	<polygon class="st2" points="1588.8,54 1588.8,54 1588.8,65 1598.3,59.5 	"/>
	<polygon class="st8" points="1452.8,-0.1 1446,-0.1 1413.7,18.7 1412.7,19.2 1458.8,45.8 1459.7,45.4 1495.6,24.6 	"/>
	<polygon class="st136" points="1495.9,-0.1 1495.8,-0.1 1495.9,24.8 1496.1,24.6 1496.1,24.6 1538.9,-0.1 	"/>
	<polygon class="st8" points="1588.8,-0.1 1588.6,-0.1 1545.7,-0.1 1588.5,24.6 1588.8,24.8 1588.8,24.8 1588.8,0 	"/>
	<polygon class="st90" points="1588.8,24.8 1588.8,24.8 1588.5,24.6 1545.7,-0.1 1545.7,-0.1 1538.9,-0.1 1538.9,-0.1 1496.1,24.6 
		1496.1,24.6 1496.1,24.6 1542.3,51.4 1542.3,80.7 1542.3,80.8 1588.7,54 1588.8,54 1588.8,24.9 1588.8,24.9 1588.8,24.7 	"/>
	<polygon class="st8" points="1589.1,-0.1 1588.8,-0.1 1588.8,0 1588.8,24.8 1588.8,24.7 1588.8,24.5 1589,24.6 1631.8,-0.1 	"/>
	<polygon class="st6" points="1681.7,11.4 1681.7,-0.1 1638.7,-0.1 1670.1,18.1 	"/>
	<polygon class="st8" points="1681.7,11.4 1681.7,-0.1 1638.7,-0.1 1670.1,18.1 	"/>
	<polygon class="st135" points="1638.7,-0.1 1638.4,-0.1 1632.1,-0.1 1631.8,-0.1 1589,24.6 1589.2,24.7 1623.9,44.7 1670,18.1 
		1670.1,18.1 	"/>
	<polygon class="st85" points="1682.5,-0.1 1682.3,-0.1 1681.8,-0.1 1681.7,-0.1 1681.7,11.4 1681.7,11.4 1681.7,24.7 1681.7,24.8 
		1681.8,24.7 1714.2,6 1724.6,-0.1 	"/>
	<polygon class="st54" points="1495.9,54.2 1495.9,54.2 1495.9,54 1495.9,54 	"/>
	<polygon class="st2" points="1495.9,54.2 1495.9,54.2 1495.9,54 1495.9,54 	"/>
	<polygon class="st54" points="1495.9,54 1495.9,54 1495.9,24.9 	"/>
	<polygon class="st2" points="1495.9,54 1495.9,54 1495.9,24.9 	"/>
	<polygon class="st54" points="1495.9,66.3 1495.9,66.3 1495.9,54.2 1495.9,54.2 	"/>
	<polygon class="st2" points="1495.9,66.3 1495.9,66.3 1495.9,54.2 1495.9,54.2 	"/>
	<polygon class="st137" points="1495.9,66.3 1495.9,54.2 1495.9,54 1495.6,53.8 1495.6,53.9 1484.9,60 1484.2,60.5 1484.3,60.5 
		1495.9,67.2 	"/>
	<polygon class="st138" points="1495.9,24.9 1495.9,24.8 1495.9,24.8 1495.9,24.8 1495.6,24.6 1495.6,24.6 1459.7,45.4 1458.8,45.8 
		1484.2,60.5 1484.9,60 1495.6,53.9 1495.6,53.8 1495.9,54 	"/>
	<polygon class="st138" points="1495.9,24.8 1495.8,-0.1 1495.3,-0.1 1452.8,-0.1 1452.8,-0.1 1495.6,24.6 1495.6,24.6 1495.6,24.6 
		1495.9,24.8 	"/>
	<polygon class="st54" points="1495.6,24.6 1495.6,24.6 1495.6,24.6 	"/>
	<polygon class="st2" points="1495.6,24.6 1495.6,24.6 1495.6,24.6 	"/>
	<polygon class="st139" points="1496.1,24.6 1496.1,24.6 1495.9,24.8 1495.9,24.8 1495.9,24.9 1495.9,54 1542.2,80.7 1542.3,80.7 
		1542.3,51.4 	"/>
	<polygon class="st135" points="1542.2,80.7 1495.9,54 1495.9,54.2 1495.9,66.3 1495.9,67.2 1542.3,94 1542.3,91.8 1542.3,80.8 
		1542.3,80.7 	"/>
	<polygon class="st54" points="1495.9,24.9 1495.9,24.8 1495.9,24.8 	"/>
	<polygon class="st2" points="1495.9,24.9 1495.9,24.8 1495.9,24.8 	"/>
	<polygon class="st8" points="1446,-0.1 1403,-0.1 1402.6,-0.1 1402.4,-0.1 1402.4,0 1402.4,0.1 1402.4,12.2 1402.4,13.3 
		1402.5,13.3 1403,13.6 1412.6,19.2 1412.7,19.2 1413.7,18.7 1446,-0.1 	"/>
</g>
<rect x="741.9" y="126.8" class="st140" width="293.1" height="90.8"/>
<g>
	<path class="st141" d="M776,194.9v-47.6h3.9v22.4H807v-22.4h3.9v47.6H807v-21.9h-27.1v21.9H776z"/>
	<path class="st141" d="M834,194.9v-47.6h28.5v3.3h-24.5v17.9h21.4v3.3h-21.4v19.8h24.7v3.3H834z"/>
	<path class="st141" d="M884.3,194.9v-47.6h3.9v44.3h24.6v3.3H884.3z"/>
	<path class="st141" d="M935.2,194.9v-47.6h3.9v47.6H935.2z"/>
	<path class="st141" d="M963.5,194.9l16.4-24.1L964,147.2h4.7l13.4,20.3l13.4-20.3h4.7l-15.8,23.5l16.4,24.1h-4.7l-14-21l-13.9,21
		H963.5z"/>
</g>
</svg>
