<svg id="Layer_1" data-name="Layer 1" xmlns="http://www.w3.org/2000/svg" xmlns:xlink="http://www.w3.org/1999/xlink" viewBox="0 0 68 68"><defs><style>.cls-1,.cls-4{fill:none;stroke:#9d9d9d;stroke-miterlimit:10;stroke-width:2px;}.cls-1,.cls-2{clip-rule:evenodd;}.cls-2,.cls-3{fill:#9d9d9d;}.cls-2{clip-path:url(#clip-path);}.cls-3,.cls-4{fill-rule:evenodd;}</style><clipPath id="clip-path"><path class="cls-1" d="M34,1A33,33,0,1,0,67,34,33,33,0,0,0,34,1h0Z"/></clipPath><clipPath id="clip-path-2"><path class="cls-2" d="M21.25,16a5.25,5.25,0,1,0,5.25,5.25A5.25,5.25,0,0,0,21.25,16h0Z"/></clipPath></defs><title>overview</title><path class="cls-3" d="M21.25,16a5.25,5.25,0,1,0,5.25,5.25A5.25,5.25,0,0,0,21.25,16h0Z"/><path class="cls-3" d="M46.75,16A5.25,5.25,0,1,0,52,21.25,5.25,5.25,0,0,0,46.75,16h0Z"/><path class="cls-4" d="M34,1A33,33,0,1,0,67,34,33,33,0,0,0,34,1h0Z"/><path class="cls-4" d="M9.13,31.75h0a1.5,1.5,0,0,0-1.38,1.5c0,14.87,11.75,27,26.25,27s26.25-12.13,26.25-27a1.5,1.5,0,0,0-1.36-1.5H9.13Z"/></svg>