<svg id="Layer_1" data-name="Layer 1" xmlns="http://www.w3.org/2000/svg" viewBox="0 0 90 55.32"><defs><style>.cls-1{fill:#fff;stroke:#9d9d9d;stroke-miterlimit:10;stroke-width:2px;}</style></defs><title>overview</title><path class="cls-1" d="M1.95,6.63c-2.57,5.29.25,11.95,6.3,14.88,0.42,0.2,47.66,21.83,47.66,21.83a6,6,0,0,0,7.67-2.66L20.77,20.87a7.36,7.36,0,0,0,3.08-3.61c2.57-5.29-.25-11.95-6.3-14.88S4.52,1.35,1.95,6.63Zm17.84,8.64a6.39,6.39,0,0,1-4.52,3.38h0A8.28,8.28,0,0,1,10,18c-3.81-1.84-5.58-6-4-9.36s6-4.54,9.83-2.7S21.41,11.95,19.79,15.28Z"/><path class="cls-1" d="M17.55,52.94c6-2.93,8.87-9.6,6.3-14.88a7.64,7.64,0,0,0-3.16-3.66L63.58,14a6.09,6.09,0,0,0-7.74-2.68L8.25,33.8c-6,2.93-8.87,9.6-6.3,14.88S11.5,55.88,17.55,52.94ZM15.84,49.4C12,51.24,7.63,50,6,46.7s0.15-7.52,4-9.36a8.28,8.28,0,0,1,5.32-.68h0A6.39,6.39,0,0,1,19.79,40C21.41,43.37,19.64,47.56,15.84,49.4Z"/><line class="cls-1" x1="52.3" y1="27.89" x2="61.64" y2="27.89"/><line class="cls-1" x1="66.49" y1="27.89" x2="75.82" y2="27.89"/><line class="cls-1" x1="80.67" y1="27.89" x2="90" y2="27.89"/></svg>