<svg id="Layer_1" data-name="Layer 1" xmlns="http://www.w3.org/2000/svg" viewBox="0 0 69.94 69.7"><defs><style>.cls-1{fill:none;stroke:#9d9d9d;stroke-miterlimit:10;stroke-width:2px;}.cls-2{fill:#9d9d9d;fill-rule:evenodd;}</style></defs><title>overview</title><path class="cls-1" d="M5.48,55.35A38.6,38.6,0,0,1,1,37.82a34,34,0,1,1,48,31"/><line class="cls-1" x1="9.36" y1="37.82" x2="1.6" y2="37.82"/><line class="cls-1" x1="12.8" y1="24.99" x2="6.09" y2="21.11"/><line class="cls-1" x1="22.21" y1="15.62" x2="18.34" y2="8.89"/><line class="cls-1" x1="35.04" y1="12.21" x2="35.07" y2="4.45"/><line class="cls-1" x1="47.86" y1="15.69" x2="51.77" y2="8.99"/><line class="cls-1" x1="57.22" y1="25.12" x2="63.95" y2="21.27"/><line class="cls-1" x1="12.3" y1="50.37" x2="5.55" y2="54.17"/><path class="cls-2" d="M41.59,0L29.21,42.05l4.2,1.1,4.19,1.11L45.77,1.1,41.59,0h0ZM33.91,34.48a2.25,2.25,0,0,1,3.13.7,2.31,2.31,0,0,1-.82,3.13,2.24,2.24,0,0,1-3.11-.71,2.3,2.3,0,0,1,.81-3.12h0Z"/><path class="cls-2" d="M68.62,34.83l-8.79,1.05a23.36,23.36,0,0,1,.19,3C60,48.35,55,57,44.66,61.34l3.91,7.72c13.91-6.4,21.82-20.4,20.05-34.24h0Z"/></svg>