<?xml version="1.0" encoding="utf-8"?>
<!-- Generator: Adobe Illustrator 19.2.1, SVG Export Plug-In . SVG Version: 6.00 Build 0)  -->
<svg version="1.1" id="Layer_1" xmlns="http://www.w3.org/2000/svg" xmlns:xlink="http://www.w3.org/1999/xlink" x="0px" y="0px"
	 viewBox="0 0 236 80" style="enable-background:new 0 0 236 80;" xml:space="preserve">
<style type="text/css">
	.st0{fill:#767677;}
</style>
<g>
	<g>
		<path class="st0" d="M8.8,42.2c0.3,0,0.6-0.1,0.8-0.3l5-5.1l-1.5-1.6L10,38.4v-7.9H7.7v7.9l-3.2-3.2L3,36.9l5,5.1
			C8.3,42.1,8.6,42.2,8.8,42.2z"/>
		<path class="st0" d="M14.9,44.2v2c0,0.1-0.1,0.2-0.2,0.2H2.9c-0.1,0-0.2-0.1-0.2-0.2v-2H0.5v2c0,1.3,1.1,2.4,2.4,2.4h11.8
			c1.3,0,2.4-1.1,2.4-2.4v-2H14.9z"/>
	</g>
	<path class="st0" d="M52.6,32.5H51v-1.6h-1.6V35h-1.6v-2.5H43v-1.6h-1.6V35h-1.6v-2.5h-1.6c-0.9,0-1.6,0.7-1.6,1.6v12.4
		c0,0.9,0.7,1.6,1.6,1.6h14.5c0.9,0,1.6-0.7,1.6-1.6V34.2C54.2,33.3,53.5,32.5,52.6,32.5z M42.1,45.7h-3.2v-3.3h3.2V45.7z
		 M42.1,40.8h-3.2v-3.3h3.2V40.8z M47,45.7h-3.2v-3.3H47V45.7z M47,40.8h-3.2v-3.3H47V40.8z M51.8,40.8h-3.2v-3.3h3.2V40.8z"/>
	<g>
		<path class="st0" d="M17.7,5H0V0.1h17.7V5z M17.7,11.6H0V6.6h17.7V11.6z M17.7,18.2H0v-4.9h17.7V18.2z M11.4,3.4V1.7H1.3v1.6H11.4
			z M11.4,9.9V8.3H1.3v1.6H11.4z M11.4,16.5v-1.6H1.3v1.6H11.4z M15.8,1.4c-0.6,0-1.1,0.5-1.1,1.1s0.5,1.1,1.1,1.1s1.1-0.5,1.1-1.1
			S16.4,1.4,15.8,1.4z M15.8,8c-0.6,0-1.1,0.5-1.1,1.1s0.5,1.1,1.1,1.1s1.1-0.5,1.1-1.1S16.4,8,15.8,8z M15.8,14.6
			c-0.6,0-1.1,0.5-1.1,1.1c0,0.6,0.5,1.1,1.1,1.1s1.1-0.5,1.1-1.1C16.9,15.1,16.4,14.6,15.8,14.6z"/>
	</g>
	<path class="st0" d="M54,16.1L46.5,0.8c-0.2-0.4-0.6-0.7-1.1-0.7s-0.9,0.3-1.1,0.7l-7.6,15.3c-0.2,0.4-0.2,0.9,0,1.4
		c0.2,0.4,0.6,0.7,1.1,0.7h15.2c0.4,0,0.9-0.3,1.1-0.7C54.3,17.1,54.3,16.6,54,16.1z M46.8,15.9c0,0.2-0.2,0.4-0.4,0.4h-2.2
		c-0.2,0-0.4-0.2-0.4-0.4v-2.2c0-0.2,0.2-0.4,0.4-0.4h2.2c0.2,0,0.4,0.2,0.4,0.4V15.9z M46.8,11.8c0,0.2-0.2,0.3-0.4,0.3h-2.1
		c-0.2,0-0.4-0.1-0.4-0.3l-0.2-7.3c0-0.1,0-0.2,0.1-0.2c0.1-0.1,0.2-0.1,0.3-0.1h2.5c0.1,0,0.2,0,0.3,0.1C47,4.4,47,4.4,47,4.5
		L46.8,11.8z"/>
	<polygon class="st0" points="90.4,32.4 88.8,30.8 81.9,37.9 74.9,30.8 73.4,32.4 80.3,39.6 73.4,46.7 74.9,48.3 81.9,41.2 
		88.8,48.3 90.4,46.7 83.4,39.6 	"/>
	<g>
		<g>
			<polygon class="st0" points="80.4,7.4 82.9,9.9 79.8,10.6 			"/>
			<path class="st0" d="M89.6,3.1c0.7-0.7,0.7-1.8,0-2.5c-0.7-0.7-1.8-0.7-2.4,0l-5.5,5.6l2.4,2.5L89.6,3.1z"/>
		</g>
		<path class="st0" d="M87.2,18.2H76c-1.3,0-2.3-1.1-2.3-2.4V4.3c0-1.3,1-2.4,2.3-2.4h5.4v2.3H76c-0.1,0-0.1,0.1-0.1,0.1v11.5
			c0,0.1,0.1,0.1,0.1,0.1h11.2c0.1,0,0.1-0.1,0.1-0.1V10h2.2v5.8C89.5,17.1,88.5,18.2,87.2,18.2z"/>
	</g>
	<g>
		<polygon class="st0" points="11.6,63.7 11.6,61.8 6.1,61.8 6.1,63.7 0.5,63.7 0.5,65.6 17.2,65.6 17.2,63.7 		"/>
		<path class="st0" d="M2.3,66.6V78c0,1.1,0.8,1.9,1.9,1.9h9.3c1,0,1.9-0.9,1.9-1.9V66.6H2.3z M7.9,76.1H6.1v-5.7h1.9V76.1z
			 M11.6,76.1H9.8v-5.7h1.9V76.1z"/>
	</g>
	<path class="st0" d="M53.9,72l-9.7-10c-0.2-0.2-0.4-0.3-0.6-0.3h-6.2c-0.5,0-0.9,0.4-0.9,0.9v6.3c0,0.2,0.1,0.5,0.3,0.6l9.7,10
		c0.2,0.2,0.4,0.3,0.6,0.3c0.2,0,0.5-0.1,0.6-0.3l6.2-6.3C54.3,73,54.3,72.4,53.9,72z M40.9,68.2c-1,0-1.8-0.8-1.8-1.8
		c0-1,0.8-1.8,1.8-1.8c1,0,1.8,0.8,1.8,1.8C42.7,67.3,41.9,68.2,40.9,68.2z"/>
	<path class="st0" d="M81.9,79.9c-4.9,0-8.9-4.1-8.8-9.1c0-5,4-9.1,8.9-9c4.8,0,8.8,4.1,8.8,9C90.7,75.8,86.7,79.9,81.9,79.9z
		 M78.1,70.9c0,2.1,1.7,3.9,3.8,3.9c2.1,0,3.8-1.8,3.8-3.9c0-2.1-1.7-3.9-3.8-3.9C79.8,67,78.1,68.8,78.1,70.9z M78.3,64
		c0.6,0.6,1.1,1.1,1.7,1.6c0.2,0.1,0.5,0.2,0.7,0.2c0.9-0.2,1.7-0.2,2.5,0c0.1,0,0.4,0.1,0.4,0c0.6-0.6,1.2-1.2,1.8-1.9
		C83,62.8,80.7,62.8,78.3,64z M78.3,77.7c2.4,1.2,4.8,1.2,7.2,0c-0.6-0.6-1.2-1.2-1.8-1.8c-0.1-0.1-0.3-0.1-0.4-0.1
		c-1,0.3-1.9,0.3-2.9,0c-0.1,0-0.3,0-0.4,0.1C79.5,76.5,78.9,77.1,78.3,77.7z M75.2,67.2c-1.2,2.5-1.2,4.8,0,7.3
		c0.6-0.6,1.2-1.2,1.8-1.8c0.1-0.1,0.1-0.3,0.1-0.5c-0.2-0.9-0.2-1.8,0-2.7c0-0.2,0-0.4-0.1-0.5C76.4,68.4,75.8,67.9,75.2,67.2z
		 M88.5,67.2c-0.6,0.7-1.2,1.2-1.7,1.8c-0.1,0.1-0.1,0.3-0.1,0.4c0.3,1,0.3,2,0,2.9c0,0.1,0,0.3,0.1,0.4c0.6,0.6,1.1,1.2,1.7,1.8
		C89.7,72.1,89.7,69.7,88.5,67.2z"/>
	<g>
		<path class="st0" d="M127,63.2l-6.2,6.4v9.6c0,0.3-0.2,0.6-0.5,0.8c-0.1,0-0.2,0.1-0.3,0.1c-0.2,0-0.4-0.1-0.6-0.2l-3.2-3.3
			c-0.2-0.2-0.2-0.4-0.2-0.6v-6.3l-6.2-6.4c-0.2-0.2-0.3-0.6-0.2-0.9c0.1-0.3,0.4-0.5,0.7-0.5h16.2c0.3,0,0.6,0.2,0.7,0.5
			C127.3,62.6,127.3,62.9,127,63.2z"/>
	</g>
	<path class="st0" d="M127.3,41.4v-3.6h-2c-0.2-0.8-0.6-1.6-1-2.3l1.3-1.3l-1.8-1.8l-1.3,1.3c-0.7-0.5-1.5-0.9-2.3-1.1v-2.1h-3.6
		v2.1c-0.8,0.2-1.6,0.6-2.3,1.1l-1.3-1.3l-1.8,1.8l1.3,1.3c-0.5,0.7-0.8,1.5-1,2.3h-2v3.6h2c0.2,0.8,0.6,1.6,1,2.3l-1.3,1.3l1.8,1.8
		l1.3-1.3c0.7,0.5,1.5,0.9,2.3,1.1v2.1h3.6v-2.1c0.8-0.2,1.6-0.6,2.3-1.1l1.3,1.3l1.8-1.8l-1.3-1.3c0.5-0.7,0.8-1.5,1-2.3H127.3z
		 M118.4,43.2c-1.8,0-3.3-1.6-3.3-3.6c0-2,1.5-3.6,3.3-3.6s3.3,1.6,3.3,3.6C121.7,41.6,120.2,43.2,118.4,43.2z"/>
	<g>
		<path class="st0" d="M196.2,17.2h-11.3c-1.3,0-2.4-1.1-2.4-2.4V5.7c0-1.3,1.1-2.4,2.4-2.4h4.2v2.3h-4.2c-0.1,0-0.1,0.1-0.1,0.1
			v9.1c0,0.1,0.1,0.1,0.1,0.1h11.3c0.1,0,0.1-0.1,0.1-0.1v-2h2.2v2C198.5,16.1,197.5,17.2,196.2,17.2z"/>
		<path class="st0" d="M200.1,5.7l-4.3-4.5c-0.1-0.1-0.2-0.2-0.4-0.2c-0.1,0-0.1,0-0.2,0c-0.2,0.1-0.3,0.3-0.3,0.5v2.2
			c-3.6,0-6.5,3.5-6.5,7.8c1.1-1.3,2.9-3.3,6.5-3.3v2.2c0,0.2,0.1,0.4,0.3,0.5c0.1,0,0.1,0,0.2,0c0.1,0,0.3-0.1,0.4-0.2l4.3-4.5
			C200.3,6.3,200.3,5.9,200.1,5.7z"/>
	</g>
	<g>
		<g>
			<ellipse class="st0" cx="154.9" cy="66.3" rx="4.5" ry="4.6"/>
			<path class="st0" d="M154.9,72c-5.2,0-8.9,2.8-8.9,6.8V80h17.8v-1.1C163.8,74.8,160.1,72,154.9,72z"/>
		</g>
	</g>
	<g>
		<path class="st0" d="M157.9,0h-6.5v3.8h-4v0v14.5h10.9v-3.8h4V4.4L157.9,0z M156.6,16.5h-7.5V5.5h2.3h1.7v3.6h0h3.6v3.6v1.7V16.5z
			 M160.6,12.8h-2.3V8.2L156.1,6L154,3.8h-0.9V1.7h4v3.6h3.6V12.8z"/>
	</g>
	<g>
		<g>
			<path class="st0" d="M162.1,38.3c-0.6,0.6-1.1,1.2-1.6,1.7c-1.5,1.5-0.9,0.8-2.3,2.3c-0.3,0.3-0.6,0.4-0.9,0
				c-0.7-0.7-1.4-1.4-2.1-2.1c-1.4,1.4-2.7,2.8-4,4.2c-0.7-0.7-1.3-1.4-2-2c0,0,0.1-0.1,0.2-0.2c1.7-1.8,3.5-3.6,5.2-5.4
				c0.5-0.5,0.5-0.5,1,0c0.7,0.7,1.3,1.4,1.9,2c1.5-1.6,0.9-0.8,2.5-2.5c-0.2-0.2-0.6-0.5-1-0.9c-0.1-0.1-0.2-0.4-0.2-0.5
				c0.1-0.1,0.3-0.2,0.5-0.2c1.3,0,2.6,0,3.9,0c0.4,0,0.5,0.2,0.5,0.6c0,1.3,0,2.7,0,4c0,0.2-0.1,0.4-0.2,0.5
				c-0.1,0.1-0.3-0.1-0.4-0.2C162.8,39.2,162.5,38.8,162.1,38.3z"/>
		</g>
		<path class="st0" d="M163.8,48.7h-15.4c-1.3,0-2.4-1.1-2.4-2.4V30.4h2.2v15.8c0,0.1,0.1,0.1,0.1,0.1h15.4V48.7z"/>
	</g>
	<g>
		<path class="st0" d="M127.2,5h-17.8V0h17.8V5z M127.2,11.6h-17.8v-5h17.8V11.6z M127.2,18.2h-17.8v-5h17.8V18.2z M120.9,3.3V1.7
			h-10.2v1.7H120.9z M120.9,10V8.3h-10.2V10H120.9z M120.9,16.6v-1.7h-10.2v1.7H120.9z M125.3,1.3c-0.6,0-1.1,0.5-1.1,1.1
			s0.5,1.1,1.1,1.1c0.6,0,1.1-0.5,1.1-1.1S126,1.3,125.3,1.3z M125.3,8c-0.6,0-1.1,0.5-1.1,1.1s0.5,1.1,1.1,1.1
			c0.6,0,1.1-0.5,1.1-1.1S126,8,125.3,8z M125.3,14.6c-0.6,0-1.1,0.5-1.1,1.1s0.5,1.1,1.1,1.1c0.6,0,1.1-0.5,1.1-1.1
			S126,14.6,125.3,14.6z"/>
	</g>
	<path class="st0" d="M199.5,46.2l-4.6-4.6c0.8-1.1,1.3-2.4,1.3-3.8c0-3.5-2.9-6.4-6.4-6.4c-3.5,0-6.4,2.9-6.4,6.4
		c0,3.5,2.9,6.4,6.4,6.4c1.4,0,2.6-0.4,3.7-1.2l4.6,4.6L199.5,46.2z M185.4,37.8c0-2.4,2-4.4,4.4-4.4c2.4,0,4.4,2,4.4,4.4
		c0,2.4-2,4.4-4.4,4.4C187.4,42.2,185.4,40.2,185.4,37.8z"/>
	<g>
		<path class="st0" d="M187.4,77.5c0.7-1,0.7-1.9,0-2.6c-0.7-0.7-1.6-0.8-2.7-0.1c-0.4-0.4-0.9-0.8-1.3-1.3c-0.4-0.5-0.4-1.1,0-1.6
			c0.1-0.1,0.2-0.2,0.3-0.3c2.8-2.8,5.5-5.5,8.3-8.2c0.8-0.8,1.4-0.8,2.2,0c0.3,0.3,0.7,0.6,1,0.9c-0.4,0.5-0.7,1.1-0.5,1.6
			c0.1,0.4,0.3,0.8,0.6,1.1c0.7,0.7,1.6,0.7,2.5,0c0.5,0.4,1,0.9,1.4,1.3c0.4,0.5,0.3,1.1-0.2,1.6c-0.7,0.7-1.5,1.5-2.2,2.2
			c-2.1,2.1-4.2,4.2-6.2,6.3c-0.8,0.8-1.4,0.8-2.2,0C188.1,78.1,187.8,77.8,187.4,77.5z M196.8,69.6c-0.1-0.2-0.2-0.4-0.4-0.6
			c-1.1-1.1-2.1-2.2-3.2-3.2c-0.4-0.4-0.7-0.4-1.1,0c-1.9,1.9-3.8,3.8-5.7,5.7c-0.4,0.4-0.4,0.7,0,1.1c1.1,1.1,2.2,2.2,3.3,3.3
			c0.4,0.4,0.7,0.4,1.1,0c1.9-1.9,3.8-3.8,5.7-5.7C196.5,70,196.6,69.8,196.8,69.6z"/>
		<path class="st0" d="M192.6,66.8c0.9,0.9,1.9,1.9,2.9,2.9c-1.8,1.8-3.6,3.6-5.4,5.4c-1-1-1.9-1.9-2.9-2.9
			C189,70.4,190.8,68.6,192.6,66.8z"/>
	</g>
	<polygon class="st0" points="236,69.9 228.9,69.9 228.9,62.7 226.9,62.7 226.9,69.9 219.7,69.9 219.7,71.9 226.9,71.9 226.9,79 
		228.9,79 228.9,71.9 236,71.9 	"/>
	<g>
		<rect x="223.3" y="8" class="st0" width="9.1" height="2"/>
		<path class="st0" d="M227.9,3.1c3.3,0,6.1,2.7,6.1,6.1s-2.7,6.1-6.1,6.1s-6.1-2.7-6.1-6.1S224.5,3.1,227.9,3.1 M227.9,1
			c-4.5,0-8.1,3.6-8.1,8.1c0,4.5,3.6,8.1,8.1,8.1c4.5,0,8.1-3.6,8.1-8.1C236,4.6,232.4,1,227.9,1L227.9,1z"/>
	</g>
	<g>
		<path class="st0" d="M235,31.4h-5v2h2.6l-7.7,7.7l1.4,1.4l7.7-7.7v2.9h2v-5.3C236,31.9,235.5,31.4,235,31.4z"/>
		<path class="st0" d="M232.9,45.5c0,0.1-0.1,0.1-0.1,0.1h-10.6c-0.1,0-0.1-0.1-0.1-0.1V34.9c0-0.1,0.1-0.1,0.1-0.1h5.8v-2h-5.8
			c-1.2,0-2.2,1-2.2,2.2v10.6c0,1.2,1,2.2,2.2,2.2h10.6c1.2,0,2.2-1,2.2-2.2v-6h-2V45.5z"/>
	</g>
</g>
</svg>
