<?xml version="1.0" encoding="UTF-8" standalone="no"?>
<svg width="633px" height="391px" viewBox="0 0 633 391" version="1.1" xmlns="http://www.w3.org/2000/svg" xmlns:xlink="http://www.w3.org/1999/xlink">
    <!-- Generator: Sketch 47.1 (45422) - http://www.bohemiancoding.com/sketch -->
    <title>modal-loading</title>
    <desc>Created with Sketch.</desc>
    <defs>
        <rect id="path-1" x="0" y="0" width="633" height="391"></rect>
        <rect id="path-2" x="0" y="0" width="632" height="391"></rect>
        <polygon id="path-4" points="58 310 576 310 576 82 58 82"></polygon>
        <filter x="-3.4%" y="-4.6%" width="106.8%" height="115.4%" filterUnits="objectBoundingBox" id="filter-5">
            <feMorphology radius="0.5" operator="dilate" in="SourceAlpha" result="shadowSpreadOuter1"></feMorphology>
            <feOffset dx="0" dy="7" in="shadowSpreadOuter1" result="shadowOffsetOuter1"></feOffset>
            <feGaussianBlur stdDeviation="4.5" in="shadowOffsetOuter1" result="shadowBlurOuter1"></feGaussianBlur>
            <feComposite in="shadowBlurOuter1" in2="SourceAlpha" operator="out" result="shadowBlurOuter1"></feComposite>
            <feColorMatrix values="0 0 0 0 0   0 0 0 0 0   0 0 0 0 0  0 0 0 0.3 0" type="matrix" in="shadowBlurOuter1"></feColorMatrix>
        </filter>
        <path d="M325.17325,208.474125 C318.98325,212.656125 310.50425,212.010125 305.02525,206.531125 C298.81025,200.316125 298.81025,190.240125 305.02525,184.025125 C311.24025,177.810125 321.31625,177.810125 327.53125,184.025125 C331.40025,187.894125 332.85925,193.258125 331.91125,198.256125 L333.25325,198.503125 C334.27825,193.079125 332.69425,187.258125 328.49625,183.061125 C321.74825,176.313125 310.80825,176.313125 304.06025,183.060125 C297.31325,189.808125 297.31325,200.748125 304.06025,207.496125 C310.01225,213.447125 319.22325,214.146125 325.94425,209.599125 L325.17325,208.474125 Z" id="path-6"></path>
        <style type="text/css">@import url('https://fonts.googleapis.com/css?family=Roboto:300,400,500');</style>
    </defs>
    <g stroke="none" stroke-width="1" fill="none" fill-rule="evenodd">
        <g transform="translate(-359.000000, -1887.000000)">
            <g transform="translate(359.000000, 1887.000000)">
                <g>
                    <g>
                        <g>
                            <use fill="#FAFAFA" fill-rule="evenodd" xlink:href="#path-1"></use>
                            <rect stroke="#E0E0E0" stroke-width="1" x="0.5" y="0.5" width="632" height="390"></rect>
                        </g>
                    </g>
                    <g stroke-width="1" fill-rule="evenodd">
                        <mask id="mask-3" fill="white">
                            <use xlink:href="#path-2"></use>
                        </mask>
                        <use fill="#D8D8D8" xlink:href="#path-2"></use>
                        <g mask="url(#mask-3)">
                            <g transform="translate(-43.000000, 4.000000)">
                                <path d="M250.835866,1 L134.164134,1 C132.969532,1 132,1.896 132,3 L132,29.002 C132,30.106 132.969532,31.002 134.164134,31.002 L250.835866,31.002 C252.03155,31.002 253,30.106 253,29.002 L253,3 C253,1.896 252.03155,1 250.835866,1 M250.835866,2 C251.432085,2 251.917933,2.449 251.917933,3 L251.917933,29.002 C251.917933,29.553 251.432085,30.002 250.835866,30.002 L134.164134,30.002 C133.567915,30.002 133.082067,29.553 133.082067,29.002 L133.082067,3 C133.082067,2.449 133.567915,2 134.164134,2 L250.835866,2" stroke="none" fill="#147D83" fill-rule="evenodd"></path>
                                <text stroke="none" fill="none" font-family="Roboto-Medium, Roboto" font-size="14" font-weight="400">
                                    <tspan x="143" y="21" fill="#107D83">Delete Selected</tspan>
                                </text>
                                <text stroke="none" fill="none" font-family="Roboto-Medium, Roboto" font-size="16" font-weight="400" letter-spacing="0.1408">
                                    <tspan x="20" y="72" fill="#424243">N</tspan>
                                    <tspan x="31.5158" y="72" fill="#424243">AME</tspan>
                                </text>
                                <text stroke="none" fill="none" font-family="Roboto-Regular, Roboto" font-size="16" font-weight="normal">
                                    <tspan x="286" y="130" fill="#616363">p</tspan>
                                    <tspan x="295.09375" y="130" letter-spacing="-0.1488" fill="#616363">r</tspan>
                                    <tspan x="300.273075" y="130" fill="#616363">oduction, moni</tspan>
                                    <tspan x="407.13245" y="130" letter-spacing="-0.1552" fill="#616363">t</tspan>
                                    <tspan x="412.5085" y="130" fill="#616363">o</tspan>
                                    <tspan x="421.60225" y="130" letter-spacing="-0.1376" fill="#616363">r</tspan>
                                    <tspan x="426.800588" y="130" fill="#616363">ed</tspan>
                                </text>
                                <text stroke="none" fill="none" font-family="Roboto-Regular, Roboto" font-size="16" font-weight="normal">
                                    <tspan x="20" y="130" fill="#424243">My Cloud Se</tspan>
                                    <tspan x="109.9375" y="130" letter-spacing="0.1376" fill="#424243">r</tspan>
                                    <tspan x="115.7001" y="130" letter-spacing="-0.096" fill="#424243">v</tspan>
                                    <tspan x="123.549413" y="130" fill="#424243">er-01 </tspan>
                                </text>
                                <text stroke="none" fill="none" font-family="Roboto-Regular, Roboto" font-size="16" font-weight="normal">
                                    <tspan x="20" y="189" fill="#424243">My Cloud Se</tspan>
                                    <tspan x="109.9375" y="189" letter-spacing="0.1376" fill="#424243">r</tspan>
                                    <tspan x="115.7001" y="189" letter-spacing="-0.096" fill="#424243">v</tspan>
                                    <tspan x="123.549413" y="189" fill="#424243">er-02 </tspan>
                                </text>
                                <text stroke="none" fill="none" font-family="Roboto-Regular, Roboto" font-size="16" font-weight="normal">
                                    <tspan x="286" y="245" fill="#616363">agent installed</tspan>
                                </text>
                                <text stroke="none" fill="none" font-family="Roboto-Regular, Roboto" font-size="16" font-weight="normal">
                                    <tspan x="286" y="303" fill="#616363">agent installed</tspan>
                                </text>
                                <text stroke="none" fill="none" font-family="Roboto-Regular, Roboto" font-size="16" font-weight="normal">
                                    <tspan x="286" y="361" fill="#616363">agent installed</tspan>
                                </text>
                                <text stroke="none" fill="none" font-family="Roboto-Regular, Roboto" font-size="16" font-weight="normal">
                                    <tspan x="20" y="245" fill="#424243">My Cloud Se</tspan>
                                    <tspan x="109.9375" y="245" letter-spacing="0.1376" fill="#424243">r</tspan>
                                    <tspan x="115.7001" y="245" letter-spacing="-0.096" fill="#424243">v</tspan>
                                    <tspan x="123.549413" y="245" fill="#424243">er-03</tspan>
                                </text>
                                <text stroke="none" fill="none" font-family="Roboto-Regular, Roboto" font-size="16" font-weight="normal">
                                    <tspan x="20" y="303" fill="#424243">My Cloud Se</tspan>
                                    <tspan x="109.9375" y="303" letter-spacing="0.1376" fill="#424243">r</tspan>
                                    <tspan x="115.7001" y="303" letter-spacing="-0.096" fill="#424243">v</tspan>
                                    <tspan x="123.549413" y="303" fill="#424243">er-04</tspan>
                                </text>
                                <text stroke="none" fill="none" font-family="Roboto-Regular, Roboto" font-size="16" font-weight="normal">
                                    <tspan x="20" y="362" fill="#424243">My Cloud Se</tspan>
                                    <tspan x="109.9375" y="362" letter-spacing="0.1376" fill="#424243">r</tspan>
                                    <tspan x="115.7001" y="362" letter-spacing="-0.096" fill="#424243">v</tspan>
                                    <tspan x="123.549413" y="362" fill="#424243">er-05</tspan>
                                </text>
                                <path d="M110.5714,30.8251 L2.7484,30.8251 C1.6444,30.8251 0.7484,29.9291 0.7484,28.8251 L0.7484,2.8231 C0.7484,1.7191 1.6444,0.8231 2.7484,0.8231 L110.5714,0.8231 C111.6764,0.8231 112.5714,1.7191 112.5714,2.8231 L112.5714,28.8251 C112.5714,29.9291 111.6764,30.8251 110.5714,30.8251" stroke="none" fill="#107D83" fill-rule="evenodd"></path>
                                <text stroke="none" fill="none" font-family="Roboto-Medium, Roboto" font-size="14" font-weight="400">
                                    <tspan x="2" y="21" fill="#FFFFFF">Create Category</tspan>
                                </text>
                                <polygon stroke="none" fill="none" points="733.323 212.9529 733.323 213.9529 0.4585 213.9529 0.4585 212.9529 733.323 212.9529"></polygon>
                                <path d="M-5.68434189e-14,212 L676,212" stroke="#E0E0E0" stroke-width="1" fill="none"></path>
                                <polygon stroke="none" fill="none" points="733.323 270.2998 733.323 271.2998 0.4585 271.2998 0.4585 270.2998 733.323 270.2998"></polygon>
                                <path d="M-5.68434189e-14,270 L676,270" stroke="#E0E0E0" stroke-width="1" fill="none"></path>
                                <polygon stroke="none" fill="none" points="733.323 328.6475 733.323 329.6475 0.4585 329.6475 0.4585 328.6475 733.323 328.6475"></polygon>
                                <path d="M-5.68434189e-14,328 L676,328" stroke="#E0E0E0" stroke-width="1" fill="none"></path>
                                <polygon stroke="none" fill="none" points="733.323 386.9952 733.323 387.9952 0.4585 387.9952 0.4585 386.9952 733.323 386.9952"></polygon>
                                <path d="M-5.68434189e-14,386 L676,386" stroke="#E0E0E0" stroke-width="1" fill="none"></path>
                                <polygon stroke="none" fill="none" points="733.323 154.6052 733.323 155.6052 0.4585 155.6052 0.4585 154.6052 733.323 154.6052"></polygon>
                                <path d="M-5.68434189e-14,154 L676,154" stroke="#E0E0E0" stroke-width="1" fill="none"></path>
                                <polygon stroke="none" fill="none" points="733.323 96.7671 733.323 97.7671 0.4585 97.7671 0.4585 96.7671 733.323 96.7671"></polygon>
                                <path d="M-5.68434189e-14,96 L676,96" stroke="#E0E0E0" stroke-width="1" fill="none"></path>
                                <text stroke="none" fill="none" font-family="Roboto-Medium, Roboto" font-size="16" font-weight="400" letter-spacing="-0.059">
                                    <tspan x="286" y="72" fill="#616363">T</tspan>
                                    <tspan x="294.3785" y="72" letter-spacing="0.7122" fill="#616363">A</tspan>
                                    <tspan x="305.4032" y="72" fill="#616363">G</tspan>
                                </text>
                                <text stroke="none" fill="none" font-family="Roboto-Medium, Roboto" font-size="16" font-weight="400">
                                    <tspan x="557" y="73" fill="#616363">REGION</tspan>
                                </text>
                                <text stroke="none" fill="none" font-family="Roboto-Regular, Roboto" font-size="16" font-weight="normal">
                                    <tspan x="557" y="128" fill="#616363">Chicago (ORD)</tspan>
                                </text>
                                <text stroke="none" fill="none" font-family="Roboto-Regular, Roboto" font-size="16" font-weight="normal">
                                    <tspan x="557" y="190" fill="#616363">Chicago (ORD)</tspan>
                                </text>
                                <text stroke="none" fill="none" font-family="Roboto-Regular, Roboto" font-size="16" font-weight="normal">
                                    <tspan x="557" y="246" fill="#616363">Chicago (ORD)</tspan>
                                </text>
                                <text stroke="none" fill="none" font-family="Roboto-Regular, Roboto" font-size="16" font-weight="normal">
                                    <tspan x="557" y="303" fill="#616363">Chicago (ORD)</tspan>
                                </text>
                                <text stroke="none" fill="none" font-family="Roboto-Regular, Roboto" font-size="16" font-weight="normal">
                                    <tspan x="557" y="362" fill="#616363">Chicago (ORD)</tspan>
                                </text>
                            </g>
                        </g>
                    </g>
                    <polygon fill-opacity="0.6" fill="#000000" fill-rule="evenodd" points="0 391 633 391 633 0 0 0"></polygon>
                </g>
                <g>
                    <use fill="black" fill-opacity="1" filter="url(#filter-5)" xlink:href="#path-4"></use>
                    <use stroke="#EDEDED" stroke-width="1" fill="#FFFFFF" fill-rule="evenodd" xlink:href="#path-4"></use>
                </g>
                <g>
                    <use fill="#9E9E9E" fill-rule="evenodd" xlink:href="#path-6"></use>
                    <path stroke="#9E9E9E" stroke-width="1" d="M325.037358,209.160303 C318.616586,213.221382 310.135645,212.348627 304.671697,206.884678 C298.261434,200.474416 298.261434,190.081834 304.671697,183.671572 C311.081959,177.261309 321.474541,177.261309 327.884803,183.671572 C331.651802,187.43857 333.304173,192.707646 332.488688,197.854006 L332.847181,197.919988 C333.683214,192.654768 331.994647,187.265711 328.142697,183.414678 C321.590105,176.862086 310.966667,176.861786 304.41383,183.413652 C297.862057,189.966396 297.862057,200.589854 304.413774,207.142542 C310.003193,212.731023 318.68013,213.620069 325.243197,209.460651 L325.037358,209.160303 Z"></path>
                </g>
            </g>
        </g>
    </g>
</svg>