<?xml version="1.0" encoding="UTF-8" standalone="no"?>
<svg width="293px" height="158px" viewBox="0 0 293 158" version="1.1" xmlns="http://www.w3.org/2000/svg" xmlns:xlink="http://www.w3.org/1999/xlink">
    <!-- Generator: Sketch 47.1 (45422) - http://www.bohemiancoding.com/sketch -->
    <title>time-picker-hero-image</title>
    <desc>Created with Sketch.</desc>
    <defs>
        <path d="M2,1.77635684e-15 L122,1.77635684e-15 L122,1.77635684e-15 C123.104569,1.5734484e-15 124,0.8954305 124,2 L124,30 L124,30 C124,31.1045695 123.104569,32 122,32 L86.4534679,32 L2,32 L2,32 C0.8954305,32 1.3527075e-16,31.1045695 0,30 L0,2 L0,2 C-1.3527075e-16,0.8954305 0.8954305,1.97926528e-15 2,1.77635684e-15 Z" id="path-1"></path>
        <filter x="-4.8%" y="-18.8%" width="109.7%" height="137.5%" filterUnits="objectBoundingBox" id="filter-2">
            <feOffset dx="0" dy="0" in="SourceAlpha" result="shadowOffsetOuter1"></feOffset>
            <feGaussianBlur stdDeviation="2" in="shadowOffsetOuter1" result="shadowBlurOuter1"></feGaussianBlur>
            <feColorMatrix values="0 0 0 0 0.0549019608   0 0 0 0 0.580392157   0 0 0 0 0.650980392  0 0 0 0.5 0" type="matrix" in="shadowBlurOuter1"></feColorMatrix>
        </filter>
        <path d="M2,0.000360168204 L122,0.000360168204 L122,0.000360168204 C123.104569,0.000360168204 124,0.895790669 124,2.00036017 L124,98.0003602 L124,98.0003602 C124,99.1049297 123.104569,100.00036 122,100.00036 L86.4534679,100.00036 L2,100.00036 L2,100.00036 C0.8954305,100.00036 1.3527075e-16,99.1049297 0,98.0003602 L0,2.00036017 L0,2.00036017 C-1.3527075e-16,0.895790669 0.8954305,0.000360168204 2,0.000360168204 Z" id="path-3"></path>
        <filter x="-6.0%" y="-4.5%" width="112.1%" height="115.0%" filterUnits="objectBoundingBox" id="filter-4">
            <feOffset dx="0" dy="3" in="SourceAlpha" result="shadowOffsetOuter1"></feOffset>
            <feGaussianBlur stdDeviation="2" in="shadowOffsetOuter1" result="shadowBlurOuter1"></feGaussianBlur>
            <feColorMatrix values="0 0 0 0 0   0 0 0 0 0   0 0 0 0 0  0 0 0 0.16 0" type="matrix" in="shadowBlurOuter1"></feColorMatrix>
        </filter>
    </defs>
    <g stroke="none" stroke-width="1" fill="none" fill-rule="evenodd">
        <g transform="translate(0.000000, -4.000000)">
            <g>
                <g transform="translate(1.000000, 0.000000)" fill="#6B6B6B">
                    <path d="M6.65136719,12.4912109 C6.65136719,12.0354795 6.48047046,11.6538101 6.13867188,11.3461914 C5.79687329,11.0385727 5.19075956,10.779949 4.3203125,10.5703125 C3.26757286,10.3196602 2.44612925,9.95052327 1.85595703,9.46289062 C1.26578481,8.97525798 0.970703125,8.36230838 0.970703125,7.62402344 C0.970703125,6.84927998 1.28857104,6.20215104 1.92431641,5.68261719 C2.56006177,5.16308334 3.383784,4.90332031 4.39550781,4.90332031 C5.48470597,4.90332031 6.35172204,5.20181993 6.99658203,5.79882812 C7.64144203,6.39583632 7.95247407,7.08853772 7.9296875,7.87695312 L7.91601562,7.91796875 L6.63085938,7.91796875 C6.63085938,7.3346325 6.43831573,6.86295753 6.05322266,6.50292969 C5.66812958,6.14290185 5.1155635,5.96289062 4.39550781,5.96289062 C3.72558259,5.96289062 3.21175309,6.11441906 2.85400391,6.41748047 C2.49625472,6.72054188 2.31738281,7.11588298 2.31738281,7.60351562 C2.31738281,8.0364605 2.51106577,8.39762225 2.8984375,8.68701172 C3.28580923,8.97640119 3.91470919,9.23046766 4.78515625,9.44921875 C5.83333857,9.70898567 6.63085664,10.0917943 7.17773438,10.5976562 C7.72461211,11.1035182 7.99804688,11.7301395 7.99804688,12.4775391 C7.99804688,13.2796264 7.66992516,13.9244767 7.01367188,14.4121094 C6.35741859,14.899742 5.50065633,15.1435547 4.44335937,15.1435547 C3.44986482,15.1435547 2.57145564,14.8746772 1.80810547,14.3369141 C1.0447553,13.799151 0.674479053,13.0791061 0.697265625,12.1767578 L0.7109375,12.1357422 L1.99609375,12.1357422 C1.99609375,12.7737662 2.23079192,13.2591129 2.70019531,13.5917969 C3.1695987,13.9244808 3.75064758,14.0908203 4.44335937,14.0908203 C5.12239923,14.0908203 5.66015427,13.9472671 6.05664062,13.6601562 C6.45312698,13.3730454 6.65136719,12.9834009 6.65136719,12.4912109 Z M12.7763672,15.1435547 C11.7464141,15.1435547 10.9272491,14.8006219 10.3188477,14.1147461 C9.71044618,13.4288703 9.40625,12.539068 9.40625,11.4453125 L9.40625,11.1445312 C9.40625,10.0917916 9.71956067,9.21566105 10.3461914,8.51611328 C10.9728221,7.81656551 11.7145139,7.46679688 12.5712891,7.46679688 C13.5693409,7.46679688 14.3235652,7.76757512 14.8339844,8.36914062 C15.3444036,8.97070613 15.5996094,9.77278145 15.5996094,10.7753906 L15.5996094,11.6162109 L10.8007812,11.6162109 L10.7802734,11.6503906 C10.7939454,12.3613317 10.9739566,12.9457985 11.3203125,13.4038086 C11.6666684,13.8618187 12.1520151,14.0908203 12.7763672,14.0908203 C13.2320986,14.0908203 13.631997,14.0258796 13.9760742,13.8959961 C14.3201515,13.7661126 14.6175118,13.5872407 14.8681641,13.359375 L15.3945312,14.234375 C15.130207,14.4941419 14.7815777,14.7106111 14.3486328,14.8837891 C13.9156879,15.056967 13.3916046,15.1435547 12.7763672,15.1435547 Z M12.5712891,8.52636719 C12.1201149,8.52636719 11.7350276,8.71663221 11.4160156,9.09716797 C11.0970036,9.47770373 10.901042,9.95507525 10.828125,10.5292969 L10.8417969,10.5634766 L14.2529297,10.5634766 L14.2529297,10.3857422 C14.2529297,9.85709371 14.1116551,9.41504084 13.8291016,9.05957031 C13.5465481,8.70409979 13.1272814,8.52636719 12.5712891,8.52636719 Z M18.5664062,15 L17.2197266,15 L17.2197266,4.3359375 L18.5664062,4.3359375 L18.5664062,15 Z M23.7070312,15.1435547 C22.6770782,15.1435547 21.8579132,14.8006219 21.2495117,14.1147461 C20.6411102,13.4288703 20.3369141,12.539068 20.3369141,11.4453125 L20.3369141,11.1445312 C20.3369141,10.0917916 20.6502247,9.21566105 21.2768555,8.51611328 C21.9034862,7.81656551 22.645178,7.46679688 23.5019531,7.46679688 C24.500005,7.46679688 25.2542292,7.76757512 25.7646484,8.36914062 C26.2750677,8.97070613 26.5302734,9.77278145 26.5302734,10.7753906 L26.5302734,11.6162109 L21.7314453,11.6162109 L21.7109375,11.6503906 C21.7246094,12.3613317 21.9046207,12.9457985 22.2509766,13.4038086 C22.5973325,13.8618187 23.0826792,14.0908203 23.7070312,14.0908203 C24.1627627,14.0908203 24.562661,14.0258796 24.9067383,13.8959961 C25.2508155,13.7661126 25.5481758,13.5872407 25.7988281,13.359375 L26.3251953,14.234375 C26.0608711,14.4941419 25.7122417,14.7106111 25.2792969,14.8837891 C24.846352,15.056967 24.3222687,15.1435547 23.7070312,15.1435547 Z M23.5019531,8.52636719 C23.050779,8.52636719 22.6656917,8.71663221 22.3466797,9.09716797 C22.0276677,9.47770373 21.8317061,9.95507525 21.7587891,10.5292969 L21.7724609,10.5634766 L25.1835938,10.5634766 L25.1835938,10.3857422 C25.1835938,9.85709371 25.0423191,9.41504084 24.7597656,9.05957031 C24.4772121,8.70409979 24.0579455,8.52636719 23.5019531,8.52636719 Z M31.0488281,14.0908203 C31.4954449,14.0908203 31.8885074,13.9529636 32.2280273,13.6772461 C32.5675473,13.4015286 32.7373047,13.063153 32.7373047,12.6621094 L33.9472656,12.6621094 L33.9609375,12.703125 C33.9837241,13.341149 33.7000355,13.9073869 33.1098633,14.4018555 C32.5196911,14.8963241 31.8326862,15.1435547 31.0488281,15.1435547 C29.9733019,15.1435547 29.150719,14.7926467 28.5810547,14.0908203 C28.0113904,13.3889939 27.7265625,12.5071668 27.7265625,11.4453125 L27.7265625,11.1582031 C27.7265625,10.1054635 28.0125297,9.2270543 28.5844727,8.52294922 C29.1564156,7.81884414 29.9778592,7.46679688 31.0488281,7.46679688 C31.9147179,7.46679688 32.6222303,7.72200266 33.1713867,8.23242188 C33.7205431,8.74284109 33.9860027,9.36946243 33.9677734,10.1123047 L33.9541016,10.1533203 L32.7373047,10.1533203 C32.7373047,9.70214618 32.5778011,9.3181982 32.2587891,9.00146484 C31.9397771,8.68473149 31.5364608,8.52636719 31.0488281,8.52636719 C30.3424444,8.52636719 29.8377294,8.78043366 29.534668,9.28857422 C29.2316066,9.79671478 29.0800781,10.4199182 29.0800781,11.1582031 L29.0800781,11.4453125 C29.0800781,12.2018267 29.2304672,12.831866 29.53125,13.3354492 C29.8320328,13.8390325 30.3378871,14.0908203 31.0488281,14.0908203 Z M37.2490234,5.81933594 L37.2490234,7.60351562 L38.6503906,7.60351562 L38.6503906,8.6015625 L37.2490234,8.6015625 L37.2490234,13.0927734 C37.2490234,13.4391293 37.3208001,13.682942 37.4643555,13.8242188 C37.6079109,13.9654955 37.7981759,14.0361328 38.0351562,14.0361328 C38.1126306,14.0361328 38.198079,14.0270183 38.2915039,14.0087891 C38.3849289,13.9905598 38.4680986,13.9677736 38.5410156,13.9404297 L38.71875,14.8632812 C38.6184891,14.9453129 38.4715179,15.0125323 38.277832,15.0649414 C38.0841462,15.1173505 37.8893239,15.1435547 37.6933594,15.1435547 C37.1464816,15.1435547 36.7112646,14.9783545 36.3876953,14.6479492 C36.064126,14.3175439 35.9023438,13.7991572 35.9023438,13.0927734 L35.9023438,8.6015625 L34.7265625,8.6015625 L34.7265625,7.60351562 L35.9023438,7.60351562 L35.9023438,5.81933594 L37.2490234,5.81933594 Z M50.7841797,6.10644531 L47.5849609,6.10644531 L47.5849609,15 L46.2382812,15 L46.2382812,6.10644531 L43.0458984,6.10644531 L43.0458984,5.046875 L50.7841797,5.046875 L50.7841797,6.10644531 Z M53.4501953,15 L52.1035156,15 L52.1035156,7.60351562 L53.4501953,7.60351562 L53.4501953,15 Z M53.4501953,5.70996094 L52.1035156,5.70996094 L52.1035156,4.3359375 L53.4501953,4.3359375 L53.4501953,5.70996094 Z M56.7246094,7.60351562 L56.8203125,8.57421875 C57.0618502,8.22330554 57.368325,7.95101008 57.7397461,7.75732422 C58.1111672,7.56363835 58.5429663,7.46679688 59.0351562,7.46679688 C59.5273462,7.46679688 59.9500308,7.58072803 60.3032227,7.80859375 C60.6564145,8.03645947 60.9218741,8.37825293 61.0996094,8.83398438 C61.3320324,8.41471145 61.6396465,8.08203248 62.0224609,7.8359375 C62.4052754,7.58984252 62.8518855,7.46679688 63.3623047,7.46679688 C64.1142616,7.46679688 64.7089822,7.72542059 65.1464844,8.24267578 C65.5839866,8.75993097 65.8027344,9.53808074 65.8027344,10.5771484 L65.8027344,15 L64.4560547,15 L64.4560547,10.5634766 C64.4560547,9.83430625 64.3307304,9.31819813 64.0800781,9.01513672 C63.8294258,8.71207531 63.4557317,8.56054688 62.9589844,8.56054688 C62.4986956,8.56054688 62.1261407,8.72005049 61.8413086,9.0390625 C61.5564764,9.35807451 61.3889976,9.76139079 61.3388672,10.2490234 L61.3388672,15 L59.9853516,15 L59.9853516,10.5634766 C59.9853516,9.87076477 59.8566094,9.36377114 59.5991211,9.04248047 C59.3416328,8.7211898 58.9713566,8.56054688 58.4882812,8.56054688 C58.0781229,8.56054688 57.7408867,8.64485593 57.4765625,8.81347656 C57.2122383,8.9820972 57.0094408,9.21907399 56.8681641,9.52441406 L56.8681641,15 L55.5214844,15 L55.5214844,7.60351562 L56.7246094,7.60351562 Z M70.8271484,15.1435547 C69.7971954,15.1435547 68.9780304,14.8006219 68.3696289,14.1147461 C67.7612274,13.4288703 67.4570312,12.539068 67.4570312,11.4453125 L67.4570312,11.1445312 C67.4570312,10.0917916 67.7703419,9.21566105 68.3969727,8.51611328 C69.0236034,7.81656551 69.7652952,7.46679688 70.6220703,7.46679688 C71.6201222,7.46679688 72.3743464,7.76757512 72.8847656,8.36914062 C73.3951848,8.97070613 73.6503906,9.77278145 73.6503906,10.7753906 L73.6503906,11.6162109 L68.8515625,11.6162109 L68.8310547,11.6503906 C68.8447266,12.3613317 69.0247379,12.9457985 69.3710938,13.4038086 C69.7174496,13.8618187 70.2027964,14.0908203 70.8271484,14.0908203 C71.2828799,14.0908203 71.6827782,14.0258796 72.0268555,13.8959961 C72.3709327,13.7661126 72.668293,13.5872407 72.9189453,13.359375 L73.4453125,14.234375 C73.1809883,14.4941419 72.8323589,14.7106111 72.3994141,14.8837891 C71.9664692,15.056967 71.4423859,15.1435547 70.8271484,15.1435547 Z M70.6220703,8.52636719 C70.1708962,8.52636719 69.7858089,8.71663221 69.4667969,9.09716797 C69.1477849,9.47770373 68.9518233,9.95507525 68.8789062,10.5292969 L68.8925781,10.5634766 L72.3037109,10.5634766 L72.3037109,10.3857422 C72.3037109,9.85709371 72.1624363,9.41504084 71.8798828,9.05957031 C71.5973293,8.70409979 71.1780627,8.52636719 70.6220703,8.52636719 Z"></path>
                </g>
                <g transform="translate(1.000000, 23.000000)">
                    <g fill="#FFFFFF">
                        <path d="M2,0 L122,0 L122,0 C123.104569,0 124,0.8954305 124,2 L124,30 L124,30 C124,31.1045695 123.104569,32 122,32 L86.4534679,32 L2,32 L2,32 C0.8954305,32 0,31.1045695 0,30 L0,2 L0,2 C0,0.8954305 0.8954305,0 2,0 Z"></path>
                    </g>
                    <path d="M2,0.5 C1.17157288,0.5 0.5,1.1715729 0.5,2 L0.5,30 C0.5,30.8284271 1.17157288,31.5 2,31.5 L122,31.5 C122.828427,31.5 123.5,30.8284271 123.5,30 L123.5,2 C123.5,1.1715729 122.828427,0.5 122,0.5 L2,0.5 Z" stroke="#BDBDBD"></path>
                </g>
                <path d="M21.0930233,38.1176471 C21.0930233,34.7447843 18.3808269,32 15.0465116,32 C11.7121964,32 9,34.7447843 9,38.1176471 C9,41.4905098 11.7128682,44.2352941 15.0465116,44.2352941 C18.380155,44.2352941 21.0930233,41.4905098 21.0930233,38.1176471 Z M16.6891473,40.0426667 L14.374677,38.4813072 L14.374677,34.7189542 L15.7183463,34.7189542 L15.7183463,37.7539869 L17.4348837,38.9115817 L16.6891473,40.0426667 Z M24.049987,43.1058824 L25,44.0770084 L21.1650113,48 L18.6744186,45.4515674 L19.6251034,44.4804414 L21.1650113,46.0563734 L24.049987,43.1058824 Z" fill="#616161" fill-rule="nonzero"></path>
                <g transform="translate(33.000000, 37.000000)" fill="#616161">
                    <path d="M6.8359375,3.9375 L0.3125,3.9375 L0.3125,2.7265625 L6.8359375,2.7265625 L6.8359375,3.9375 Z M15.9765625,3.9375 L9.453125,3.9375 L9.453125,2.7265625 L15.9765625,2.7265625 L15.9765625,3.9375 Z M24.0546875,9 L22.515625,9 L22.515625,7.421875 L24.0546875,7.421875 L24.0546875,9 Z M24.0546875,2.15625 L22.515625,2.15625 L22.515625,0.578125 L24.0546875,0.578125 L24.0546875,2.15625 Z M37.109375,3.9375 L30.5859375,3.9375 L30.5859375,2.7265625 L37.109375,2.7265625 L37.109375,3.9375 Z M46.25,3.9375 L39.7265625,3.9375 L39.7265625,2.7265625 L46.25,2.7265625 L46.25,3.9375 Z"></path>
                </g>
                <g transform="translate(0.000000, 55.000000)" fill="#9E9E9E">
                    <path d="M7.51171875,9.49609375 C7.51171875,10.5390677 7.18847979,11.4042934 6.54199219,12.0917969 C5.89550458,12.7793003 5.05664578,13.1230469 4.02539062,13.1230469 C3.02929189,13.1230469 2.21972968,12.7793003 1.59667969,12.0917969 C0.973629697,11.4042934 0.662109375,10.5390677 0.662109375,9.49609375 L0.662109375,7.97851562 C0.662109375,6.93944793 0.973629697,6.07422221 1.59667969,5.3828125 C2.21972968,4.69140279 3.02929189,4.34570312 4.02539062,4.34570312 C5.05664578,4.34570312 5.89550458,4.69042624 6.54199219,5.37988281 C7.18847979,6.06933938 7.51171875,6.93554166 7.51171875,7.97851562 L7.51171875,9.49609375 Z M6.35742188,7.96679688 C6.35742188,7.18554297 6.14648648,6.54492437 5.72460938,6.04492188 C5.30273227,5.54491937 4.73633168,5.29492188 4.02539062,5.29492188 C3.35351227,5.29492188 2.81738481,5.54491937 2.41699219,6.04492188 C2.01659956,6.54492437 1.81640625,7.18554297 1.81640625,7.96679688 L1.81640625,9.49609375 C1.81640625,10.2851602 2.01659956,10.929685 2.41699219,11.4296875 C2.81738481,11.92969 3.35351227,12.1796875 4.02539062,12.1796875 C4.74023795,12.1796875 5.30761509,11.9306666 5.72753906,11.4326172 C6.14746304,10.9345678 6.35742188,10.2890665 6.35742188,9.49609375 L6.35742188,7.96679688 Z M14.4199219,10.0703125 C14.4199219,10.9843796 14.2011741,11.7216769 13.7636719,12.2822266 C13.3261697,12.8427762 12.7226601,13.1230469 11.953125,13.1230469 C11.562498,13.1230469 11.219728,13.0576178 10.9248047,12.9267578 C10.6298813,12.7958978 10.3789073,12.5996107 10.171875,12.3378906 L10.171875,15.4375 L9.01757812,15.4375 L9.01757812,6.66015625 L9.90234375,6.66015625 L10.0839844,7.48046875 C10.2910167,7.17577973 10.5488266,6.94336018 10.8574219,6.78320312 C11.1660172,6.62304607 11.5253886,6.54296875 11.9355469,6.54296875 C12.7207071,6.54296875 13.3310525,6.85448907 13.7666016,7.47753906 C14.2021506,8.10058905 14.4199219,8.92382301 14.4199219,9.94726562 L14.4199219,10.0703125 Z M13.265625,9.94726562 C13.265625,9.22851203 13.1240249,8.63769763 12.8408203,8.17480469 C12.5576158,7.71191175 12.1406278,7.48046875 11.5898438,7.48046875 C11.2578108,7.48046875 10.9746105,7.55566331 10.7402344,7.70605469 C10.5058582,7.85644606 10.316407,8.06249869 10.171875,8.32421875 L10.171875,11.3886719 C10.316407,11.6503919 10.5058582,11.8544915 10.7402344,12.0009766 C10.9746105,12.1474617 11.2617171,12.2207031 11.6015625,12.2207031 C12.1484402,12.2207031 12.5624986,12.0205098 12.84375,11.6201172 C13.1250014,11.2197246 13.265625,10.7031282 13.265625,10.0703125 L13.265625,9.94726562 Z M17.3613281,5.13085938 L17.3613281,6.66015625 L18.5625,6.66015625 L18.5625,7.515625 L17.3613281,7.515625 L17.3613281,11.3652344 C17.3613281,11.6621109 17.4228509,11.8710931 17.5458984,11.9921875 C17.6689459,12.1132819 17.8320302,12.1738281 18.0351563,12.1738281 C18.1015628,12.1738281 18.1748043,12.1660157 18.2548828,12.1503906 C18.3349613,12.1347655 18.4062497,12.1152345 18.46875,12.0917969 L18.6210938,12.8828125 C18.5351558,12.9531254 18.4091805,13.010742 18.2431641,13.0556641 C18.0771476,13.1005862 17.9101571,13.1230469 17.7421875,13.1230469 C17.2734352,13.1230469 16.900392,12.9814467 16.6230469,12.6982422 C16.3457017,12.4150376 16.2070313,11.9707062 16.2070313,11.3652344 L16.2070313,7.515625 L15.1992188,7.515625 L15.1992188,6.66015625 L16.2070313,6.66015625 L16.2070313,5.13085938 L17.3613281,5.13085938 Z M21.234375,13 L20.0800781,13 L20.0800781,6.66015625 L21.234375,6.66015625 L21.234375,13 Z M21.234375,5.03710938 L20.0800781,5.03710938 L20.0800781,3.859375 L21.234375,3.859375 L21.234375,5.03710938 Z M22.7402344,9.77148438 C22.7402344,8.83397969 22.9941381,8.06152647 23.5019531,7.45410156 C24.0097682,6.84667665 24.6992144,6.54296875 25.5703125,6.54296875 C26.4492231,6.54296875 27.1435521,6.8457001 27.6533203,7.45117188 C28.1630885,8.05664365 28.4179688,8.83007342 28.4179688,9.77148438 L28.4179688,9.90039062 C28.4179688,10.8457079 28.164065,11.6191376 27.65625,12.2207031 C27.148435,12.8222686 26.4570356,13.1230469 25.5820312,13.1230469 C24.7070269,13.1230469 24.014651,12.8212921 23.5048828,12.2177734 C22.9951146,11.6142548 22.7402344,10.8418016 22.7402344,9.90039062 L22.7402344,9.77148438 Z M23.8945312,9.90039062 C23.8945312,10.572269 24.0361314,11.1269509 24.3193359,11.5644531 C24.6025405,12.0019553 25.0234347,12.2207031 25.5820312,12.2207031 C26.1328153,12.2207031 26.5507798,12.0019553 26.8359375,11.5644531 C27.1210952,11.1269509 27.2636719,10.572269 27.2636719,9.90039062 L27.2636719,9.77148438 C27.2636719,9.10741855 27.1201186,8.55468971 26.8330078,8.11328125 C26.545897,7.67187279 26.1250028,7.45117188 25.5703125,7.45117188 C25.0195285,7.45117188 24.6025405,7.67187279 24.3193359,8.11328125 C24.0361314,8.55468971 23.8945312,9.10741855 23.8945312,9.77148438 L23.8945312,9.90039062 Z M30.8613281,6.66015625 L30.9433594,7.60351562 C31.1542979,7.26757645 31.4189437,7.00683687 31.7373047,6.82128906 C32.0556657,6.63574126 32.4179667,6.54296875 32.8242188,6.54296875 C33.5078159,6.54296875 34.0371075,6.74316206 34.4121094,7.14355469 C34.7871113,7.54394731 34.9746094,8.1621052 34.9746094,8.99804688 L34.9746094,13 L33.8203125,13 L33.8203125,9.02148438 C33.8203125,8.46288783 33.709962,8.06640742 33.4892578,7.83203125 C33.2685536,7.59765508 32.9316429,7.48046875 32.4785156,7.48046875 C32.1464827,7.48046875 31.8525403,7.56054607 31.5966797,7.72070312 C31.340819,7.88086018 31.1367195,8.09960799 30.984375,8.37695312 L30.984375,13 L29.8300781,13 L29.8300781,6.66015625 L30.8613281,6.66015625 Z M40.546875,13 C40.5078123,12.8085928 40.4775392,12.6396492 40.4560547,12.4931641 C40.4345702,12.346679 40.421875,12.1992195 40.4179688,12.0507812 C40.2031239,12.3554703 39.9228533,12.6103505 39.5771484,12.8154297 C39.2314436,13.0205088 38.859377,13.1230469 38.4609375,13.1230469 C37.8007779,13.1230469 37.2978533,12.9541033 36.9521484,12.6162109 C36.6064436,12.2783186 36.4335938,11.812503 36.4335938,11.21875 C36.4335938,10.6132782 36.6787085,10.1396501 37.1689453,9.79785156 C37.6591821,9.45605298 38.3242146,9.28515625 39.1640625,9.28515625 L40.4179688,9.28515625 L40.4179688,8.65820312 C40.4179688,8.28710752 40.3046886,7.99316515 40.078125,7.77636719 C39.8515614,7.55956923 39.5312521,7.45117188 39.1171875,7.45117188 C38.7460919,7.45117188 38.4443371,7.54589749 38.2119141,7.73535156 C37.979491,7.92480563 37.8632812,8.15234242 37.8632812,8.41796875 L36.7617188,8.41796875 L36.75,8.3828125 C36.7265624,7.9218727 36.9443336,7.50000191 37.4033203,7.1171875 C37.862307,6.73437309 38.4550745,6.54296875 39.1816406,6.54296875 C39.9003942,6.54296875 40.4785134,6.72558411 40.9160156,7.09082031 C41.3535178,7.45605651 41.5722656,7.98241844 41.5722656,8.66992188 L41.5722656,11.7226562 C41.5722656,11.9492199 41.5839843,12.1679677 41.6074219,12.3789062 C41.6308595,12.5898448 41.6738278,12.796874 41.7363281,13 L40.546875,13 Z M38.6308594,12.15625 C39.0488302,12.15625 39.4257796,12.0488292 39.7617188,11.8339844 C40.0976579,11.6191396 40.3164057,11.3730483 40.4179688,11.0957031 L40.4179688,10.0644531 L39.1230469,10.0644531 C38.6582008,10.0644531 38.2861342,10.1816395 38.0068359,10.4160156 C37.7275377,10.6503918 37.5878906,10.9257797 37.5878906,11.2421875 C37.5878906,11.5234389 37.6757804,11.7460929 37.8515625,11.9101562 C38.0273446,12.0742196 38.2871077,12.15625 38.6308594,12.15625 Z M44.4960938,13 L43.3417969,13 L43.3417969,3.859375 L44.4960938,3.859375 L44.4960938,13 Z M50.4082031,7.50976562 C50.6269542,7.2050766 50.8955062,6.96777429 51.2138672,6.79785156 C51.5322282,6.62792884 51.8847637,6.54296875 52.2714844,6.54296875 C52.947269,6.54296875 53.4736309,6.74609172 53.8505859,7.15234375 C54.2275409,7.55859578 54.4160156,8.18358953 54.4160156,9.02734375 L54.4160156,13 L53.2617188,13 L53.2617188,9.015625 C53.2617188,8.49218488 53.1494152,8.10547 52.9248047,7.85546875 C52.7001942,7.6054675 52.3652366,7.48046875 51.9199219,7.48046875 C51.5996078,7.48046875 51.3095716,7.55566331 51.0498047,7.70605469 C50.7900378,7.85644606 50.5761727,8.06054559 50.4082031,8.31835938 L50.4082031,13 L49.2539063,13 L49.2539063,3.859375 L50.4082031,3.859375 L50.4082031,7.50976562 Z M58.7050781,13.1230469 C57.8222612,13.1230469 57.1201198,12.8291045 56.5986328,12.2412109 C56.0771458,11.6533174 55.8164063,10.8906297 55.8164063,9.953125 L55.8164063,9.6953125 C55.8164063,8.79296424 56.0849583,8.04199519 56.6220703,7.44238281 C57.1591824,6.84277044 57.7949182,6.54296875 58.5292969,6.54296875 C59.3847699,6.54296875 60.0312478,6.80077867 60.46875,7.31640625 C60.9062522,7.83203383 61.125,8.51952695 61.125,9.37890625 L61.125,10.0996094 L57.0117188,10.0996094 L56.9941406,10.1289062 C57.0058594,10.7382843 57.1601548,11.2392558 57.4570313,11.6318359 C57.7539077,12.024416 58.1699192,12.2207031 58.7050781,12.2207031 C59.0957051,12.2207031 59.4384751,12.1650396 59.7333984,12.0537109 C60.0283218,11.9423823 60.2832021,11.7890635 60.4980469,11.59375 L60.9492188,12.34375 C60.7226551,12.5664074 60.42383,12.7519524 60.0527344,12.9003906 C59.6816388,13.0488289 59.2324245,13.1230469 58.7050781,13.1230469 Z M58.5292969,7.45117188 C58.1425762,7.45117188 57.8125014,7.61425618 57.5390625,7.94042969 C57.2656236,8.26660319 57.0976566,8.67577879 57.0351563,9.16796875 L57.046875,9.19726562 L59.9707031,9.19726562 L59.9707031,9.04492188 C59.9707031,8.59179461 59.8496106,8.21289215 59.6074219,7.90820312 C59.3652332,7.6035141 59.0058618,7.45117188 58.5292969,7.45117188 Z M63.6679688,13 L62.5136719,13 L62.5136719,3.859375 L63.6679688,3.859375 L63.6679688,13 Z M70.8457031,10.0703125 C70.8457031,10.9843796 70.6269553,11.7216769 70.1894531,12.2822266 C69.7519509,12.8427762 69.1484413,13.1230469 68.3789062,13.1230469 C67.9882793,13.1230469 67.6455093,13.0576178 67.3505859,12.9267578 C67.0556626,12.7958978 66.8046885,12.5996107 66.5976562,12.3378906 L66.5976562,15.4375 L65.4433594,15.4375 L65.4433594,6.66015625 L66.328125,6.66015625 L66.5097656,7.48046875 C66.7167979,7.17577973 66.9746078,6.94336018 67.2832031,6.78320312 C67.5917984,6.62304607 67.9511698,6.54296875 68.3613281,6.54296875 C69.1464883,6.54296875 69.7568338,6.85448907 70.1923828,7.47753906 C70.6279319,8.10058905 70.8457031,8.92382301 70.8457031,9.94726562 L70.8457031,10.0703125 Z M69.6914062,9.94726562 C69.6914062,9.22851203 69.5498061,8.63769763 69.2666016,8.17480469 C68.983397,7.71191175 68.566409,7.48046875 68.015625,7.48046875 C67.6835921,7.48046875 67.4003918,7.55566331 67.1660156,7.70605469 C66.9316395,7.85644606 66.7421882,8.06249869 66.5976562,8.32421875 L66.5976562,11.3886719 C66.7421882,11.6503919 66.9316395,11.8544915 67.1660156,12.0009766 C67.4003918,12.1474617 67.6874983,12.2207031 68.0273438,12.2207031 C68.5742215,12.2207031 68.9882798,12.0205098 69.2695312,11.6201172 C69.5507827,11.2197246 69.6914062,10.7031282 69.6914062,10.0703125 L69.6914062,9.94726562 Z M74.8945312,13.1230469 C74.0117143,13.1230469 73.3095729,12.8291045 72.7880859,12.2412109 C72.266599,11.6533174 72.0058594,10.8906297 72.0058594,9.953125 L72.0058594,9.6953125 C72.0058594,8.79296424 72.2744114,8.04199519 72.8115234,7.44238281 C73.3486355,6.84277044 73.9843713,6.54296875 74.71875,6.54296875 C75.574223,6.54296875 76.2207009,6.80077867 76.6582031,7.31640625 C77.0957053,7.83203383 77.3144531,8.51952695 77.3144531,9.37890625 L77.3144531,10.0996094 L73.2011719,10.0996094 L73.1835938,10.1289062 C73.1953126,10.7382843 73.3496079,11.2392558 73.6464844,11.6318359 C73.9433609,12.024416 74.3593723,12.2207031 74.8945312,12.2207031 C75.2851582,12.2207031 75.6279282,12.1650396 75.9228516,12.0537109 C76.2177749,11.9423823 76.4726552,11.7890635 76.6875,11.59375 L77.1386719,12.34375 C76.9121082,12.5664074 76.6132831,12.7519524 76.2421875,12.9003906 C75.8710919,13.0488289 75.4218776,13.1230469 74.8945312,13.1230469 Z M74.71875,7.45117188 C74.3320293,7.45117188 74.0019545,7.61425618 73.7285156,7.94042969 C73.4550768,8.26660319 73.2871097,8.67577879 73.2246094,9.16796875 L73.2363281,9.19726562 L76.1601562,9.19726562 L76.1601562,9.04492188 C76.1601562,8.59179461 76.0390637,8.21289215 75.796875,7.90820312 C75.5546863,7.6035141 75.1953149,7.45117188 74.71875,7.45117188 Z M81.609375,7.6796875 L81.0175781,7.64453125 C80.7128891,7.64453125 80.4560557,7.71679615 80.2470703,7.86132812 C80.0380849,8.0058601 79.8769537,8.20898307 79.7636719,8.47070312 L79.7636719,13 L78.609375,13 L78.609375,6.66015625 L79.640625,6.66015625 L79.7519531,7.5859375 C79.9316415,7.25781086 80.153319,7.00195404 80.4169922,6.81835938 C80.6806654,6.63476471 80.9843733,6.54296875 81.328125,6.54296875 C81.4140629,6.54296875 81.4960934,6.54980462 81.5742188,6.56347656 C81.6523441,6.57714851 81.7167966,6.5917968 81.7675781,6.60742188 L81.609375,7.6796875 Z M87.2285156,5.13085938 L87.2285156,6.66015625 L88.4296875,6.66015625 L88.4296875,7.515625 L87.2285156,7.515625 L87.2285156,11.3652344 C87.2285156,11.6621109 87.2900384,11.8710931 87.4130859,11.9921875 C87.5361334,12.1132819 87.6992177,12.1738281 87.9023438,12.1738281 C87.9687503,12.1738281 88.0419918,12.1660157 88.1220703,12.1503906 C88.2021488,12.1347655 88.2734372,12.1152345 88.3359375,12.0917969 L88.4882812,12.8828125 C88.4023433,12.9531254 88.276368,13.010742 88.1103516,13.0556641 C87.9443351,13.1005862 87.7773446,13.1230469 87.609375,13.1230469 C87.1406227,13.1230469 86.7675795,12.9814467 86.4902344,12.6982422 C86.2128892,12.4150376 86.0742188,11.9707062 86.0742188,11.3652344 L86.0742188,7.515625 L85.0664062,7.515625 L85.0664062,6.66015625 L86.0742188,6.66015625 L86.0742188,5.13085938 L87.2285156,5.13085938 Z M92.484375,13.1230469 C91.6015581,13.1230469 90.8994167,12.8291045 90.3779297,12.2412109 C89.8564427,11.6533174 89.5957031,10.8906297 89.5957031,9.953125 L89.5957031,9.6953125 C89.5957031,8.79296424 89.8642551,8.04199519 90.4013672,7.44238281 C90.9384792,6.84277044 91.5742151,6.54296875 92.3085938,6.54296875 C93.1640668,6.54296875 93.8105447,6.80077867 94.2480469,7.31640625 C94.6855491,7.83203383 94.9042969,8.51952695 94.9042969,9.37890625 L94.9042969,10.0996094 L90.7910156,10.0996094 L90.7734375,10.1289062 C90.7851563,10.7382843 90.9394516,11.2392558 91.2363281,11.6318359 C91.5332046,12.024416 91.9492161,12.2207031 92.484375,12.2207031 C92.875002,12.2207031 93.217772,12.1650396 93.5126953,12.0537109 C93.8076187,11.9423823 94.0624989,11.7890635 94.2773438,11.59375 L94.7285156,12.34375 C94.501952,12.5664074 94.2031269,12.7519524 93.8320312,12.9003906 C93.4609356,13.0488289 93.0117214,13.1230469 92.484375,13.1230469 Z M92.3085938,7.45117188 C91.9218731,7.45117188 91.5917982,7.61425618 91.3183594,7.94042969 C91.0449205,8.26660319 90.8769534,8.67577879 90.8144531,9.16796875 L90.8261719,9.19726562 L93.75,9.19726562 L93.75,9.04492188 C93.75,8.59179461 93.6289075,8.21289215 93.3867188,7.90820312 C93.14453,7.6035141 92.7851586,7.45117188 92.3085938,7.45117188 Z M98.3496094,8.99804688 L99.6972656,6.66015625 L101.044922,6.66015625 L98.9882812,9.79492188 L101.103516,13 L99.7792969,13 L98.3730469,10.6035156 L96.9667969,13 L95.6308594,13 L97.7460938,9.79492188 L95.6894531,6.66015625 L97.0195312,6.66015625 L98.3496094,8.99804688 Z M103.757813,5.13085938 L103.757813,6.66015625 L104.958984,6.66015625 L104.958984,7.515625 L103.757813,7.515625 L103.757813,11.3652344 C103.757813,11.6621109 103.819335,11.8710931 103.942383,11.9921875 C104.06543,12.1132819 104.228515,12.1738281 104.431641,12.1738281 C104.498047,12.1738281 104.571289,12.1660157 104.651367,12.1503906 C104.731446,12.1347655 104.802734,12.1152345 104.865234,12.0917969 L105.017578,12.8828125 C104.93164,12.9531254 104.805665,13.010742 104.639648,13.0556641 C104.473632,13.1005862 104.306641,13.1230469 104.138672,13.1230469 C103.66992,13.1230469 103.296876,12.9814467 103.019531,12.6982422 C102.742186,12.4150376 102.603516,11.9707062 102.603516,11.3652344 L102.603516,7.515625 L101.595703,7.515625 L101.595703,6.66015625 L102.603516,6.66015625 L102.603516,5.13085938 L103.757813,5.13085938 Z"></path>
                </g>
            </g>
            <g transform="translate(165.000000, 0.000000)">
                <g transform="translate(0.000000, 23.000000)">
                    <g>
                        <g fill="#000000" fill-rule="nonzero">
                            <path d="M2,1.77635684e-15 L122,1.77635684e-15 L122,1.77635684e-15 C123.104569,1.5734484e-15 124,0.8954305 124,2 L124,30 L124,30 C124,31.1045695 123.104569,32 122,32 L86.4534679,32 L2,32 L2,32 C0.8954305,32 1.3527075e-16,31.1045695 0,30 L0,2 L0,2 C-1.3527075e-16,0.8954305 0.8954305,1.97926528e-15 2,1.77635684e-15 Z"></path>
                        </g>
                        <g>
                            <g>
                                <use fill="black" fill-opacity="1" filter="url(#filter-2)" xlink:href="#path-1"></use>
                                <use fill="#FFFFFF" fill-rule="evenodd" xlink:href="#path-1"></use>
                            </g>
                        </g>
                        <path d="M2,0.5 C1.17157288,0.5 0.5,1.17157288 0.5,2 L0.5,30 C0.5,30.8284271 1.17157288,31.5 2,31.5 L122,31.5 C122.828427,31.5 123.5,30.8284271 123.5,30 L123.5,2 C123.5,1.17157288 122.828427,0.5 122,0.5 L2,0.5 Z" stroke="#0E94A6"></path>
                    </g>
                    <g transform="translate(32.000000, 5.000000)" fill="#616161">
                        <path d="M7.8359375,11.9375 L1.3125,11.9375 L1.3125,10.7265625 L7.8359375,10.7265625 L7.8359375,11.9375 Z M16.9765625,11.9375 L10.453125,11.9375 L10.453125,10.7265625 L16.9765625,10.7265625 L16.9765625,11.9375 Z M25.0546875,17 L23.515625,17 L23.515625,15.421875 L25.0546875,15.421875 L25.0546875,17 Z M25.0546875,10.15625 L23.515625,10.15625 L23.515625,8.578125 L25.0546875,8.578125 L25.0546875,10.15625 Z M38.109375,11.9375 L31.5859375,11.9375 L31.5859375,10.7265625 L38.109375,10.7265625 L38.109375,11.9375 Z M47.25,11.9375 L40.7265625,11.9375 L40.7265625,10.7265625 L47.25,10.7265625 L47.25,11.9375 Z"></path>
                    </g>
                    <path d="M21.0930233,14.1176471 C21.0930233,10.7447843 18.3808269,8 15.0465116,8 C11.7121964,8 9,10.7447843 9,14.1176471 C9,17.4905098 11.7128682,20.2352941 15.0465116,20.2352941 C18.380155,20.2352941 21.0930233,17.4905098 21.0930233,14.1176471 Z M16.6891473,16.0426667 L14.374677,14.4813072 L14.374677,10.7189542 L15.7183463,10.7189542 L15.7183463,13.7539869 L17.4348837,14.9115817 L16.6891473,16.0426667 Z M24.049987,19.1058824 L25,20.0770084 L21.1650113,24 L18.6744186,21.4515674 L19.6251034,20.4804414 L21.1650113,22.0563734 L24.049987,19.1058824 Z" fill="#616161" fill-rule="nonzero"></path>
                </g>
                <g transform="translate(0.000000, 55.000000)">
                    <g>
                        <g fill="#000000" fill-rule="nonzero">
                            <path d="M2,0.000360168204 L122,0.000360168204 L122,0.000360168204 C123.104569,0.000360168204 124,0.895790669 124,2.00036017 L124,98.0003602 L124,98.0003602 C124,99.1049297 123.104569,100.00036 122,100.00036 L86.4534679,100.00036 L2,100.00036 L2,100.00036 C0.8954305,100.00036 1.3527075e-16,99.1049297 0,98.0003602 L0,2.00036017 L0,2.00036017 C-1.3527075e-16,0.895790669 0.8954305,0.000360168204 2,0.000360168204 Z"></path>
                        </g>
                        <g>
                            <g>
                                <use fill="black" fill-opacity="1" filter="url(#filter-4)" xlink:href="#path-3"></use>
                                <use fill="#FAFAFA" fill-rule="evenodd" xlink:href="#path-3"></use>
                            </g>
                        </g>
                        <path d="M2,0.500360168 C1.17157288,0.500360168 0.5,1.17193304 0.5,2.00036017 L0.5,98.0003602 C0.5,98.8287873 1.17157288,99.5003602 2,99.5003602 L122,99.5003602 C122.828427,99.5003602 123.5,98.8287873 123.5,98.0003602 L123.5,2.00036017 C123.5,1.17193304 122.828427,0.500360168 122,0.500360168 L2,0.500360168 Z" stroke="#BDBDBD"></path>
                    </g>
                    <g transform="translate(8.750000, 3.000000)" fill="#616161">
                        <g>
                            <path d="M5.3203125,17 L3.78125,17 L3.78125,7.125 L1.453125,7.15625 L1.453125,6.046875 L5.3203125,5.625 L5.3203125,17 Z M17.3046875,17 L9.9296875,17 L9.9296875,15.9453125 L13.65625,11.8046875 C14.32292,11.0598921 14.7747384,10.4687522 15.0117188,10.03125 C15.2486991,9.59374781 15.3671875,9.14583563 15.3671875,8.6875 C15.3671875,8.11978883 15.2018246,7.64192902 14.8710938,7.25390625 C14.5403629,6.86588348 14.1015652,6.671875 13.5546875,6.671875 C12.7682252,6.671875 12.1888039,6.8736959 11.8164062,7.27734375 C11.4440086,7.6809916 11.2578125,8.24739219 11.2578125,8.9765625 L9.78125,8.9765625 L9.765625,8.9296875 C9.7395832,7.95051594 10.0651008,7.1276075 10.7421875,6.4609375 C11.4192742,5.7942675 12.3567648,5.4609375 13.5546875,5.4609375 C14.5755259,5.4609375 15.3893199,5.7591116 15.9960938,6.35546875 C16.6028676,6.9518259 16.90625,7.71093289 16.90625,8.6328125 C16.90625,9.25260727 16.7226581,9.8736948 16.3554688,10.4960938 C15.9882794,11.1184927 15.4739616,11.7864548 14.8125,12.5 L11.8203125,15.7578125 L11.8359375,15.796875 L17.3046875,15.796875 L17.3046875,17 Z M24.7890625,17 L23.25,17 L23.25,15.421875 L24.7890625,15.421875 L24.7890625,17 Z M24.7890625,10.15625 L23.25,10.15625 L23.25,8.578125 L24.7890625,8.578125 L24.7890625,10.15625 Z M38.1328125,12.6640625 C38.1328125,14.1171948 37.8112011,15.2304649 37.1679688,16.0039062 C36.5247364,16.7773476 35.6432348,17.1640625 34.5234375,17.1640625 C33.4036402,17.1640625 32.5182324,16.7760455 31.8671875,16 C31.2161426,15.2239545 30.890625,14.1119864 30.890625,12.6640625 L30.890625,9.96875 C30.890625,8.52082609 31.2148405,7.40755598 31.8632812,6.62890625 C32.511722,5.85025652 33.3932236,5.4609375 34.5078125,5.4609375 C35.6276098,5.4609375 36.5117155,5.85025652 37.1601562,6.62890625 C37.808597,7.40755598 38.1328125,8.52082609 38.1328125,9.96875 L38.1328125,12.6640625 Z M36.59375,9.640625 C36.59375,8.65624508 36.4153664,7.91536707 36.0585938,7.41796875 C35.7018211,6.92057043 35.1848992,6.671875 34.5078125,6.671875 C33.8307258,6.671875 33.3151059,6.92057043 32.9609375,7.41796875 C32.6067691,7.91536707 32.4296875,8.65624508 32.4296875,9.640625 L32.4296875,12.9765625 C32.4296875,13.9609424 32.6093732,14.7044246 32.96875,15.2070312 C33.3281268,15.7096379 33.8463508,15.9609375 34.5234375,15.9609375 C35.2005242,15.9609375 35.714842,15.71094 36.0664062,15.2109375 C36.4179705,14.710935 36.59375,13.9661508 36.59375,12.9765625 L36.59375,9.640625 Z M47.1484375,12.6640625 C47.1484375,14.1171948 46.8268261,15.2304649 46.1835938,16.0039062 C45.5403614,16.7773476 44.6588598,17.1640625 43.5390625,17.1640625 C42.4192652,17.1640625 41.5338574,16.7760455 40.8828125,16 C40.2317676,15.2239545 39.90625,14.1119864 39.90625,12.6640625 L39.90625,9.96875 C39.90625,8.52082609 40.2304655,7.40755598 40.8789062,6.62890625 C41.527347,5.85025652 42.4088486,5.4609375 43.5234375,5.4609375 C44.6432348,5.4609375 45.5273405,5.85025652 46.1757812,6.62890625 C46.824222,7.40755598 47.1484375,8.52082609 47.1484375,9.96875 L47.1484375,12.6640625 Z M45.609375,9.640625 C45.609375,8.65624508 45.4309914,7.91536707 45.0742188,7.41796875 C44.7174461,6.92057043 44.2005242,6.671875 43.5234375,6.671875 C42.8463508,6.671875 42.3307309,6.92057043 41.9765625,7.41796875 C41.6223941,7.91536707 41.4453125,8.65624508 41.4453125,9.640625 L41.4453125,12.9765625 C41.4453125,13.9609424 41.6249982,14.7044246 41.984375,15.2070312 C42.3437518,15.7096379 42.8619758,15.9609375 43.5390625,15.9609375 C44.2161492,15.9609375 44.730467,15.71094 45.0820312,15.2109375 C45.4335955,14.710935 45.609375,13.9661508 45.609375,12.9765625 L45.609375,9.640625 Z M54.9609375,12.4375 L54.9609375,17 L53.421875,17 L53.421875,5.625 L57.7734375,5.625 C58.9869852,5.625 59.9296841,5.93749688 60.6015625,6.5625 C61.2734409,7.18750312 61.609375,8.01041156 61.609375,9.03125 C61.609375,10.0677135 61.2734409,10.8945282 60.6015625,11.5117188 C59.9296841,12.1289093 58.9869852,12.4375 57.7734375,12.4375 L54.9609375,12.4375 Z M54.9609375,11.234375 L57.7734375,11.234375 C58.5442747,11.234375 59.1197898,11.0273458 59.5,10.6132812 C59.8802102,10.1992167 60.0703125,9.67708648 60.0703125,9.046875 C60.0703125,8.41666352 59.8789082,7.89062711 59.4960938,7.46875 C59.1132793,7.04687289 58.5390663,6.8359375 57.7734375,6.8359375 L54.9609375,6.8359375 L54.9609375,11.234375 Z M65.640625,5.625 L69.265625,14.8671875 L69.3125,14.8671875 L72.9375,5.625 L74.90625,5.625 L74.90625,17 L73.3671875,17 L73.3671875,12.5 L73.5234375,7.875 L73.484375,7.8671875 L69.796875,17 L68.7734375,17 L65.1015625,7.890625 L65.0625,7.8984375 L65.2109375,12.5 L65.2109375,17 L63.671875,17 L63.671875,5.625 L65.640625,5.625 Z"></path>
                        </g>
                        <g transform="translate(0.000000, 48.000000)">
                            <path d="M8.125,12.6640625 C8.125,14.1171948 7.80338863,15.2304649 7.16015625,16.0039062 C6.51692387,16.7773476 5.63542227,17.1640625 4.515625,17.1640625 C3.39582773,17.1640625 2.51041992,16.7760455 1.859375,16 C1.20833008,15.2239545 0.8828125,14.1119864 0.8828125,12.6640625 L0.8828125,9.96875 C0.8828125,8.52082609 1.20702801,7.40755598 1.85546875,6.62890625 C2.50390949,5.85025652 3.38541109,5.4609375 4.5,5.4609375 C5.61979727,5.4609375 6.50390301,5.85025652 7.15234375,6.62890625 C7.80078449,7.40755598 8.125,8.52082609 8.125,9.96875 L8.125,12.6640625 Z M6.5859375,9.640625 C6.5859375,8.65624508 6.40755387,7.91536707 6.05078125,7.41796875 C5.69400863,6.92057043 5.17708672,6.671875 4.5,6.671875 C3.82291328,6.671875 3.30729344,6.92057043 2.953125,7.41796875 C2.59895656,7.91536707 2.421875,8.65624508 2.421875,9.640625 L2.421875,12.9765625 C2.421875,13.9609424 2.6015607,14.7044246 2.9609375,15.2070312 C3.3203143,15.7096379 3.83853828,15.9609375 4.515625,15.9609375 C5.19271172,15.9609375 5.70702949,15.71094 6.05859375,15.2109375 C6.41015801,14.710935 6.5859375,13.9661508 6.5859375,12.9765625 L6.5859375,9.640625 Z M17.3125,17 L9.9375,17 L9.9375,15.9453125 L13.6640625,11.8046875 C14.3307325,11.0598921 14.7825509,10.4687522 15.0195312,10.03125 C15.2565116,9.59374781 15.375,9.14583563 15.375,8.6875 C15.375,8.11978883 15.2096371,7.64192902 14.8789062,7.25390625 C14.5481754,6.86588348 14.1093777,6.671875 13.5625,6.671875 C12.7760377,6.671875 12.1966164,6.8736959 11.8242188,7.27734375 C11.4518211,7.6809916 11.265625,8.24739219 11.265625,8.9765625 L9.7890625,8.9765625 L9.7734375,8.9296875 C9.7473957,7.95051594 10.0729133,7.1276075 10.75,6.4609375 C11.4270867,5.7942675 12.3645773,5.4609375 13.5625,5.4609375 C14.5833384,5.4609375 15.3971324,5.7591116 16.0039062,6.35546875 C16.6106801,6.9518259 16.9140625,7.71093289 16.9140625,8.6328125 C16.9140625,9.25260727 16.7304706,9.8736948 16.3632812,10.4960938 C15.9960919,11.1184927 15.4817741,11.7864548 14.8203125,12.5 L11.828125,15.7578125 L11.84375,15.796875 L17.3125,15.796875 L17.3125,17 Z M24.796875,17 L23.2578125,17 L23.2578125,15.421875 L24.796875,15.421875 L24.796875,17 Z M24.796875,10.15625 L23.2578125,10.15625 L23.2578125,8.578125 L24.796875,8.578125 L24.796875,10.15625 Z M38.140625,12.6640625 C38.140625,14.1171948 37.8190136,15.2304649 37.1757812,16.0039062 C36.5325489,16.7773476 35.6510473,17.1640625 34.53125,17.1640625 C33.4114527,17.1640625 32.5260449,16.7760455 31.875,16 C31.2239551,15.2239545 30.8984375,14.1119864 30.8984375,12.6640625 L30.8984375,9.96875 C30.8984375,8.52082609 31.222653,7.40755598 31.8710938,6.62890625 C32.5195345,5.85025652 33.4010361,5.4609375 34.515625,5.4609375 C35.6354223,5.4609375 36.519528,5.85025652 37.1679688,6.62890625 C37.8164095,7.40755598 38.140625,8.52082609 38.140625,9.96875 L38.140625,12.6640625 Z M36.6015625,9.640625 C36.6015625,8.65624508 36.4231789,7.91536707 36.0664062,7.41796875 C35.7096336,6.92057043 35.1927117,6.671875 34.515625,6.671875 C33.8385383,6.671875 33.3229184,6.92057043 32.96875,7.41796875 C32.6145816,7.91536707 32.4375,8.65624508 32.4375,9.640625 L32.4375,12.9765625 C32.4375,13.9609424 32.6171857,14.7044246 32.9765625,15.2070312 C33.3359393,15.7096379 33.8541633,15.9609375 34.53125,15.9609375 C35.2083367,15.9609375 35.7226545,15.71094 36.0742188,15.2109375 C36.425783,14.710935 36.6015625,13.9661508 36.6015625,12.9765625 L36.6015625,9.640625 Z M47.15625,12.6640625 C47.15625,14.1171948 46.8346386,15.2304649 46.1914062,16.0039062 C45.5481739,16.7773476 44.6666723,17.1640625 43.546875,17.1640625 C42.4270777,17.1640625 41.5416699,16.7760455 40.890625,16 C40.2395801,15.2239545 39.9140625,14.1119864 39.9140625,12.6640625 L39.9140625,9.96875 C39.9140625,8.52082609 40.238278,7.40755598 40.8867188,6.62890625 C41.5351595,5.85025652 42.4166611,5.4609375 43.53125,5.4609375 C44.6510473,5.4609375 45.535153,5.85025652 46.1835938,6.62890625 C46.8320345,7.40755598 47.15625,8.52082609 47.15625,9.96875 L47.15625,12.6640625 Z M45.6171875,9.640625 C45.6171875,8.65624508 45.4388039,7.91536707 45.0820312,7.41796875 C44.7252586,6.92057043 44.2083367,6.671875 43.53125,6.671875 C42.8541633,6.671875 42.3385434,6.92057043 41.984375,7.41796875 C41.6302066,7.91536707 41.453125,8.65624508 41.453125,9.640625 L41.453125,12.9765625 C41.453125,13.9609424 41.6328107,14.7044246 41.9921875,15.2070312 C42.3515643,15.7096379 42.8697883,15.9609375 43.546875,15.9609375 C44.2239617,15.9609375 44.7382795,15.71094 45.0898438,15.2109375 C45.441408,14.710935 45.6171875,13.9661508 45.6171875,12.9765625 L45.6171875,9.640625 Z M54.96875,12.4375 L54.96875,17 L53.4296875,17 L53.4296875,5.625 L57.78125,5.625 C58.9947977,5.625 59.9374966,5.93749688 60.609375,6.5625 C61.2812534,7.18750312 61.6171875,8.01041156 61.6171875,9.03125 C61.6171875,10.0677135 61.2812534,10.8945282 60.609375,11.5117188 C59.9374966,12.1289093 58.9947977,12.4375 57.78125,12.4375 L54.96875,12.4375 Z M54.96875,11.234375 L57.78125,11.234375 C58.5520872,11.234375 59.1276023,11.0273458 59.5078125,10.6132812 C59.8880227,10.1992167 60.078125,9.67708648 60.078125,9.046875 C60.078125,8.41666352 59.8867207,7.89062711 59.5039062,7.46875 C59.1210918,7.04687289 58.5468788,6.8359375 57.78125,6.8359375 L54.96875,6.8359375 L54.96875,11.234375 Z M65.6484375,5.625 L69.2734375,14.8671875 L69.3203125,14.8671875 L72.9453125,5.625 L74.9140625,5.625 L74.9140625,17 L73.375,17 L73.375,12.5 L73.53125,7.875 L73.4921875,7.8671875 L69.8046875,17 L68.78125,17 L65.109375,7.890625 L65.0703125,7.8984375 L65.21875,12.5 L65.21875,17 L63.6796875,17 L63.6796875,5.625 L65.6484375,5.625 Z"></path>
                        </g>
                        <g transform="translate(0.000000, 72.000000)">
                            <path d="M8.125,12.6640625 C8.125,14.1171948 7.80338863,15.2304649 7.16015625,16.0039062 C6.51692387,16.7773476 5.63542227,17.1640625 4.515625,17.1640625 C3.39582773,17.1640625 2.51041992,16.7760455 1.859375,16 C1.20833008,15.2239545 0.8828125,14.1119864 0.8828125,12.6640625 L0.8828125,9.96875 C0.8828125,8.52082609 1.20702801,7.40755598 1.85546875,6.62890625 C2.50390949,5.85025652 3.38541109,5.4609375 4.5,5.4609375 C5.61979727,5.4609375 6.50390301,5.85025652 7.15234375,6.62890625 C7.80078449,7.40755598 8.125,8.52082609 8.125,9.96875 L8.125,12.6640625 Z M6.5859375,9.640625 C6.5859375,8.65624508 6.40755387,7.91536707 6.05078125,7.41796875 C5.69400863,6.92057043 5.17708672,6.671875 4.5,6.671875 C3.82291328,6.671875 3.30729344,6.92057043 2.953125,7.41796875 C2.59895656,7.91536707 2.421875,8.65624508 2.421875,9.640625 L2.421875,12.9765625 C2.421875,13.9609424 2.6015607,14.7044246 2.9609375,15.2070312 C3.3203143,15.7096379 3.83853828,15.9609375 4.515625,15.9609375 C5.19271172,15.9609375 5.70702949,15.71094 6.05859375,15.2109375 C6.41015801,14.710935 6.5859375,13.9661508 6.5859375,12.9765625 L6.5859375,9.640625 Z M12.046875,10.6015625 L13.390625,10.6015625 C14.0729201,10.6015625 14.5559882,10.4309913 14.8398438,10.0898438 C15.1236993,9.74869621 15.265625,9.27344055 15.265625,8.6640625 C15.265625,8.01301758 15.1041683,7.51823086 14.78125,7.1796875 C14.4583317,6.84114414 13.981774,6.671875 13.3515625,6.671875 C12.7526012,6.671875 12.2721372,6.84765449 11.9101562,7.19921875 C11.5481753,7.55078301 11.3671875,8.01822625 11.3671875,8.6015625 L9.890625,8.6015625 L9.875,8.5546875 C9.8489582,7.6953082 10.160153,6.96484676 10.8085938,6.36328125 C11.4570345,5.76171574 12.3046823,5.4609375 13.3515625,5.4609375 C14.4036511,5.4609375 15.2421844,5.74088262 15.8671875,6.30078125 C16.4921906,6.86067988 16.8046875,7.65884898 16.8046875,8.6953125 C16.8046875,9.16406484 16.6627618,9.63150809 16.3789062,10.0976562 C16.0950507,10.5638044 15.6692737,10.9192696 15.1015625,11.1640625 C15.7838576,11.388022 16.2669257,11.7395809 16.5507812,12.21875 C16.8346368,12.6979191 16.9765625,13.234372 16.9765625,13.828125 C16.9765625,14.8645885 16.6367221,15.6796845 15.9570312,16.2734375 C15.2773404,16.8671905 14.4088595,17.1640625 13.3515625,17.1640625 C12.315099,17.1640625 11.4570346,16.8841174 10.7773438,16.3242188 C10.0976529,15.7643201 9.7708332,15.0052131 9.796875,14.046875 L9.8203125,14 L11.2890625,14 C11.2890625,14.5989613 11.4726544,15.0755191 11.8398438,15.4296875 C12.2070331,15.7838559 12.7109343,15.9609375 13.3515625,15.9609375 C14.0026074,15.9609375 14.513019,15.7838559 14.8828125,15.4296875 C15.252606,15.0755191 15.4375,14.5520868 15.4375,13.859375 C15.4375,13.1562465 15.2734391,12.6380225 14.9453125,12.3046875 C14.6171859,11.9713525 14.0989619,11.8046875 13.390625,11.8046875 L12.046875,11.8046875 L12.046875,10.6015625 Z M24.796875,17 L23.2578125,17 L23.2578125,15.421875 L24.796875,15.421875 L24.796875,17 Z M24.796875,10.15625 L23.2578125,10.15625 L23.2578125,8.578125 L24.796875,8.578125 L24.796875,10.15625 Z M38.140625,12.6640625 C38.140625,14.1171948 37.8190136,15.2304649 37.1757812,16.0039062 C36.5325489,16.7773476 35.6510473,17.1640625 34.53125,17.1640625 C33.4114527,17.1640625 32.5260449,16.7760455 31.875,16 C31.2239551,15.2239545 30.8984375,14.1119864 30.8984375,12.6640625 L30.8984375,9.96875 C30.8984375,8.52082609 31.222653,7.40755598 31.8710938,6.62890625 C32.5195345,5.85025652 33.4010361,5.4609375 34.515625,5.4609375 C35.6354223,5.4609375 36.519528,5.85025652 37.1679688,6.62890625 C37.8164095,7.40755598 38.140625,8.52082609 38.140625,9.96875 L38.140625,12.6640625 Z M36.6015625,9.640625 C36.6015625,8.65624508 36.4231789,7.91536707 36.0664062,7.41796875 C35.7096336,6.92057043 35.1927117,6.671875 34.515625,6.671875 C33.8385383,6.671875 33.3229184,6.92057043 32.96875,7.41796875 C32.6145816,7.91536707 32.4375,8.65624508 32.4375,9.640625 L32.4375,12.9765625 C32.4375,13.9609424 32.6171857,14.7044246 32.9765625,15.2070312 C33.3359393,15.7096379 33.8541633,15.9609375 34.53125,15.9609375 C35.2083367,15.9609375 35.7226545,15.71094 36.0742188,15.2109375 C36.425783,14.710935 36.6015625,13.9661508 36.6015625,12.9765625 L36.6015625,9.640625 Z M47.15625,12.6640625 C47.15625,14.1171948 46.8346386,15.2304649 46.1914062,16.0039062 C45.5481739,16.7773476 44.6666723,17.1640625 43.546875,17.1640625 C42.4270777,17.1640625 41.5416699,16.7760455 40.890625,16 C40.2395801,15.2239545 39.9140625,14.1119864 39.9140625,12.6640625 L39.9140625,9.96875 C39.9140625,8.52082609 40.238278,7.40755598 40.8867188,6.62890625 C41.5351595,5.85025652 42.4166611,5.4609375 43.53125,5.4609375 C44.6510473,5.4609375 45.535153,5.85025652 46.1835938,6.62890625 C46.8320345,7.40755598 47.15625,8.52082609 47.15625,9.96875 L47.15625,12.6640625 Z M45.6171875,9.640625 C45.6171875,8.65624508 45.4388039,7.91536707 45.0820312,7.41796875 C44.7252586,6.92057043 44.2083367,6.671875 43.53125,6.671875 C42.8541633,6.671875 42.3385434,6.92057043 41.984375,7.41796875 C41.6302066,7.91536707 41.453125,8.65624508 41.453125,9.640625 L41.453125,12.9765625 C41.453125,13.9609424 41.6328107,14.7044246 41.9921875,15.2070312 C42.3515643,15.7096379 42.8697883,15.9609375 43.546875,15.9609375 C44.2239617,15.9609375 44.7382795,15.71094 45.0898438,15.2109375 C45.441408,14.710935 45.6171875,13.9661508 45.6171875,12.9765625 L45.6171875,9.640625 Z M54.96875,12.4375 L54.96875,17 L53.4296875,17 L53.4296875,5.625 L57.78125,5.625 C58.9947977,5.625 59.9374966,5.93749688 60.609375,6.5625 C61.2812534,7.18750312 61.6171875,8.01041156 61.6171875,9.03125 C61.6171875,10.0677135 61.2812534,10.8945282 60.609375,11.5117188 C59.9374966,12.1289093 58.9947977,12.4375 57.78125,12.4375 L54.96875,12.4375 Z M54.96875,11.234375 L57.78125,11.234375 C58.5520872,11.234375 59.1276023,11.0273458 59.5078125,10.6132812 C59.8880227,10.1992167 60.078125,9.67708648 60.078125,9.046875 C60.078125,8.41666352 59.8867207,7.89062711 59.5039062,7.46875 C59.1210918,7.04687289 58.5468788,6.8359375 57.78125,6.8359375 L54.96875,6.8359375 L54.96875,11.234375 Z M65.6484375,5.625 L69.2734375,14.8671875 L69.3203125,14.8671875 L72.9453125,5.625 L74.9140625,5.625 L74.9140625,17 L73.375,17 L73.375,12.5 L73.53125,7.875 L73.4921875,7.8671875 L69.8046875,17 L68.78125,17 L65.109375,7.890625 L65.0703125,7.8984375 L65.21875,12.5 L65.21875,17 L63.6796875,17 L63.6796875,5.625 L65.6484375,5.625 Z"></path>
                        </g>
                        <g transform="translate(0.000000, 24.000000)">
                            <path d="M8.125,12.6640625 C8.125,14.1171948 7.80338863,15.2304649 7.16015625,16.0039062 C6.51692387,16.7773476 5.63542227,17.1640625 4.515625,17.1640625 C3.39582773,17.1640625 2.51041992,16.7760455 1.859375,16 C1.20833008,15.2239545 0.8828125,14.1119864 0.8828125,12.6640625 L0.8828125,9.96875 C0.8828125,8.52082609 1.20702801,7.40755598 1.85546875,6.62890625 C2.50390949,5.85025652 3.38541109,5.4609375 4.5,5.4609375 C5.61979727,5.4609375 6.50390301,5.85025652 7.15234375,6.62890625 C7.80078449,7.40755598 8.125,8.52082609 8.125,9.96875 L8.125,12.6640625 Z M6.5859375,9.640625 C6.5859375,8.65624508 6.40755387,7.91536707 6.05078125,7.41796875 C5.69400863,6.92057043 5.17708672,6.671875 4.5,6.671875 C3.82291328,6.671875 3.30729344,6.92057043 2.953125,7.41796875 C2.59895656,7.91536707 2.421875,8.65624508 2.421875,9.640625 L2.421875,12.9765625 C2.421875,13.9609424 2.6015607,14.7044246 2.9609375,15.2070312 C3.3203143,15.7096379 3.83853828,15.9609375 4.515625,15.9609375 C5.19271172,15.9609375 5.70702949,15.71094 6.05859375,15.2109375 C6.41015801,14.710935 6.5859375,13.9661508 6.5859375,12.9765625 L6.5859375,9.640625 Z M14.3359375,17 L12.796875,17 L12.796875,7.125 L10.46875,7.15625 L10.46875,6.046875 L14.3359375,5.625 L14.3359375,17 Z M24.796875,17 L23.2578125,17 L23.2578125,15.421875 L24.796875,15.421875 L24.796875,17 Z M24.796875,10.15625 L23.2578125,10.15625 L23.2578125,8.578125 L24.796875,8.578125 L24.796875,10.15625 Z M38.140625,12.6640625 C38.140625,14.1171948 37.8190136,15.2304649 37.1757812,16.0039062 C36.5325489,16.7773476 35.6510473,17.1640625 34.53125,17.1640625 C33.4114527,17.1640625 32.5260449,16.7760455 31.875,16 C31.2239551,15.2239545 30.8984375,14.1119864 30.8984375,12.6640625 L30.8984375,9.96875 C30.8984375,8.52082609 31.222653,7.40755598 31.8710938,6.62890625 C32.5195345,5.85025652 33.4010361,5.4609375 34.515625,5.4609375 C35.6354223,5.4609375 36.519528,5.85025652 37.1679688,6.62890625 C37.8164095,7.40755598 38.140625,8.52082609 38.140625,9.96875 L38.140625,12.6640625 Z M36.6015625,9.640625 C36.6015625,8.65624508 36.4231789,7.91536707 36.0664062,7.41796875 C35.7096336,6.92057043 35.1927117,6.671875 34.515625,6.671875 C33.8385383,6.671875 33.3229184,6.92057043 32.96875,7.41796875 C32.6145816,7.91536707 32.4375,8.65624508 32.4375,9.640625 L32.4375,12.9765625 C32.4375,13.9609424 32.6171857,14.7044246 32.9765625,15.2070312 C33.3359393,15.7096379 33.8541633,15.9609375 34.53125,15.9609375 C35.2083367,15.9609375 35.7226545,15.71094 36.0742188,15.2109375 C36.425783,14.710935 36.6015625,13.9661508 36.6015625,12.9765625 L36.6015625,9.640625 Z M47.15625,12.6640625 C47.15625,14.1171948 46.8346386,15.2304649 46.1914062,16.0039062 C45.5481739,16.7773476 44.6666723,17.1640625 43.546875,17.1640625 C42.4270777,17.1640625 41.5416699,16.7760455 40.890625,16 C40.2395801,15.2239545 39.9140625,14.1119864 39.9140625,12.6640625 L39.9140625,9.96875 C39.9140625,8.52082609 40.238278,7.40755598 40.8867188,6.62890625 C41.5351595,5.85025652 42.4166611,5.4609375 43.53125,5.4609375 C44.6510473,5.4609375 45.535153,5.85025652 46.1835938,6.62890625 C46.8320345,7.40755598 47.15625,8.52082609 47.15625,9.96875 L47.15625,12.6640625 Z M45.6171875,9.640625 C45.6171875,8.65624508 45.4388039,7.91536707 45.0820312,7.41796875 C44.7252586,6.92057043 44.2083367,6.671875 43.53125,6.671875 C42.8541633,6.671875 42.3385434,6.92057043 41.984375,7.41796875 C41.6302066,7.91536707 41.453125,8.65624508 41.453125,9.640625 L41.453125,12.9765625 C41.453125,13.9609424 41.6328107,14.7044246 41.9921875,15.2070312 C42.3515643,15.7096379 42.8697883,15.9609375 43.546875,15.9609375 C44.2239617,15.9609375 44.7382795,15.71094 45.0898438,15.2109375 C45.441408,14.710935 45.6171875,13.9661508 45.6171875,12.9765625 L45.6171875,9.640625 Z M54.96875,12.4375 L54.96875,17 L53.4296875,17 L53.4296875,5.625 L57.78125,5.625 C58.9947977,5.625 59.9374966,5.93749688 60.609375,6.5625 C61.2812534,7.18750312 61.6171875,8.01041156 61.6171875,9.03125 C61.6171875,10.0677135 61.2812534,10.8945282 60.609375,11.5117188 C59.9374966,12.1289093 58.9947977,12.4375 57.78125,12.4375 L54.96875,12.4375 Z M54.96875,11.234375 L57.78125,11.234375 C58.5520872,11.234375 59.1276023,11.0273458 59.5078125,10.6132812 C59.8880227,10.1992167 60.078125,9.67708648 60.078125,9.046875 C60.078125,8.41666352 59.8867207,7.89062711 59.5039062,7.46875 C59.1210918,7.04687289 58.5468788,6.8359375 57.78125,6.8359375 L54.96875,6.8359375 L54.96875,11.234375 Z M65.6484375,5.625 L69.2734375,14.8671875 L69.3203125,14.8671875 L72.9453125,5.625 L74.9140625,5.625 L74.9140625,17 L73.375,17 L73.375,12.5 L73.53125,7.875 L73.4921875,7.8671875 L69.8046875,17 L68.78125,17 L65.109375,7.890625 L65.0703125,7.8984375 L65.21875,12.5 L65.21875,17 L63.6796875,17 L63.6796875,5.625 L65.6484375,5.625 Z"></path>
                        </g>
                    </g>
                </g>
                <g fill="#6B6B6B">
                    <path d="M6.65136719,12.4912109 C6.65136719,12.0354795 6.48047046,11.6538101 6.13867188,11.3461914 C5.79687329,11.0385727 5.19075956,10.779949 4.3203125,10.5703125 C3.26757286,10.3196602 2.44612925,9.95052327 1.85595703,9.46289062 C1.26578481,8.97525798 0.970703125,8.36230838 0.970703125,7.62402344 C0.970703125,6.84927998 1.28857104,6.20215104 1.92431641,5.68261719 C2.56006177,5.16308334 3.383784,4.90332031 4.39550781,4.90332031 C5.48470597,4.90332031 6.35172204,5.20181993 6.99658203,5.79882812 C7.64144203,6.39583632 7.95247407,7.08853772 7.9296875,7.87695312 L7.91601562,7.91796875 L6.63085938,7.91796875 C6.63085938,7.3346325 6.43831573,6.86295753 6.05322266,6.50292969 C5.66812958,6.14290185 5.1155635,5.96289062 4.39550781,5.96289062 C3.72558259,5.96289062 3.21175309,6.11441906 2.85400391,6.41748047 C2.49625472,6.72054188 2.31738281,7.11588298 2.31738281,7.60351562 C2.31738281,8.0364605 2.51106577,8.39762225 2.8984375,8.68701172 C3.28580923,8.97640119 3.91470919,9.23046766 4.78515625,9.44921875 C5.83333857,9.70898567 6.63085664,10.0917943 7.17773438,10.5976562 C7.72461211,11.1035182 7.99804688,11.7301395 7.99804688,12.4775391 C7.99804688,13.2796264 7.66992516,13.9244767 7.01367188,14.4121094 C6.35741859,14.899742 5.50065633,15.1435547 4.44335937,15.1435547 C3.44986482,15.1435547 2.57145564,14.8746772 1.80810547,14.3369141 C1.0447553,13.799151 0.674479053,13.0791061 0.697265625,12.1767578 L0.7109375,12.1357422 L1.99609375,12.1357422 C1.99609375,12.7737662 2.23079192,13.2591129 2.70019531,13.5917969 C3.1695987,13.9244808 3.75064758,14.0908203 4.44335937,14.0908203 C5.12239923,14.0908203 5.66015427,13.9472671 6.05664062,13.6601562 C6.45312698,13.3730454 6.65136719,12.9834009 6.65136719,12.4912109 Z M12.7763672,15.1435547 C11.7464141,15.1435547 10.9272491,14.8006219 10.3188477,14.1147461 C9.71044618,13.4288703 9.40625,12.539068 9.40625,11.4453125 L9.40625,11.1445312 C9.40625,10.0917916 9.71956067,9.21566105 10.3461914,8.51611328 C10.9728221,7.81656551 11.7145139,7.46679688 12.5712891,7.46679688 C13.5693409,7.46679688 14.3235652,7.76757512 14.8339844,8.36914062 C15.3444036,8.97070613 15.5996094,9.77278145 15.5996094,10.7753906 L15.5996094,11.6162109 L10.8007812,11.6162109 L10.7802734,11.6503906 C10.7939454,12.3613317 10.9739566,12.9457985 11.3203125,13.4038086 C11.6666684,13.8618187 12.1520151,14.0908203 12.7763672,14.0908203 C13.2320986,14.0908203 13.631997,14.0258796 13.9760742,13.8959961 C14.3201515,13.7661126 14.6175118,13.5872407 14.8681641,13.359375 L15.3945312,14.234375 C15.130207,14.4941419 14.7815777,14.7106111 14.3486328,14.8837891 C13.9156879,15.056967 13.3916046,15.1435547 12.7763672,15.1435547 Z M12.5712891,8.52636719 C12.1201149,8.52636719 11.7350276,8.71663221 11.4160156,9.09716797 C11.0970036,9.47770373 10.901042,9.95507525 10.828125,10.5292969 L10.8417969,10.5634766 L14.2529297,10.5634766 L14.2529297,10.3857422 C14.2529297,9.85709371 14.1116551,9.41504084 13.8291016,9.05957031 C13.5465481,8.70409979 13.1272814,8.52636719 12.5712891,8.52636719 Z M18.5664062,15 L17.2197266,15 L17.2197266,4.3359375 L18.5664062,4.3359375 L18.5664062,15 Z M23.7070312,15.1435547 C22.6770782,15.1435547 21.8579132,14.8006219 21.2495117,14.1147461 C20.6411102,13.4288703 20.3369141,12.539068 20.3369141,11.4453125 L20.3369141,11.1445312 C20.3369141,10.0917916 20.6502247,9.21566105 21.2768555,8.51611328 C21.9034862,7.81656551 22.645178,7.46679688 23.5019531,7.46679688 C24.500005,7.46679688 25.2542292,7.76757512 25.7646484,8.36914062 C26.2750677,8.97070613 26.5302734,9.77278145 26.5302734,10.7753906 L26.5302734,11.6162109 L21.7314453,11.6162109 L21.7109375,11.6503906 C21.7246094,12.3613317 21.9046207,12.9457985 22.2509766,13.4038086 C22.5973325,13.8618187 23.0826792,14.0908203 23.7070312,14.0908203 C24.1627627,14.0908203 24.562661,14.0258796 24.9067383,13.8959961 C25.2508155,13.7661126 25.5481758,13.5872407 25.7988281,13.359375 L26.3251953,14.234375 C26.0608711,14.4941419 25.7122417,14.7106111 25.2792969,14.8837891 C24.846352,15.056967 24.3222687,15.1435547 23.7070312,15.1435547 Z M23.5019531,8.52636719 C23.050779,8.52636719 22.6656917,8.71663221 22.3466797,9.09716797 C22.0276677,9.47770373 21.8317061,9.95507525 21.7587891,10.5292969 L21.7724609,10.5634766 L25.1835938,10.5634766 L25.1835938,10.3857422 C25.1835938,9.85709371 25.0423191,9.41504084 24.7597656,9.05957031 C24.4772121,8.70409979 24.0579455,8.52636719 23.5019531,8.52636719 Z M31.0488281,14.0908203 C31.4954449,14.0908203 31.8885074,13.9529636 32.2280273,13.6772461 C32.5675473,13.4015286 32.7373047,13.063153 32.7373047,12.6621094 L33.9472656,12.6621094 L33.9609375,12.703125 C33.9837241,13.341149 33.7000355,13.9073869 33.1098633,14.4018555 C32.5196911,14.8963241 31.8326862,15.1435547 31.0488281,15.1435547 C29.9733019,15.1435547 29.150719,14.7926467 28.5810547,14.0908203 C28.0113904,13.3889939 27.7265625,12.5071668 27.7265625,11.4453125 L27.7265625,11.1582031 C27.7265625,10.1054635 28.0125297,9.2270543 28.5844727,8.52294922 C29.1564156,7.81884414 29.9778592,7.46679688 31.0488281,7.46679688 C31.9147179,7.46679688 32.6222303,7.72200266 33.1713867,8.23242188 C33.7205431,8.74284109 33.9860027,9.36946243 33.9677734,10.1123047 L33.9541016,10.1533203 L32.7373047,10.1533203 C32.7373047,9.70214618 32.5778011,9.3181982 32.2587891,9.00146484 C31.9397771,8.68473149 31.5364608,8.52636719 31.0488281,8.52636719 C30.3424444,8.52636719 29.8377294,8.78043366 29.534668,9.28857422 C29.2316066,9.79671478 29.0800781,10.4199182 29.0800781,11.1582031 L29.0800781,11.4453125 C29.0800781,12.2018267 29.2304672,12.831866 29.53125,13.3354492 C29.8320328,13.8390325 30.3378871,14.0908203 31.0488281,14.0908203 Z M37.2490234,5.81933594 L37.2490234,7.60351562 L38.6503906,7.60351562 L38.6503906,8.6015625 L37.2490234,8.6015625 L37.2490234,13.0927734 C37.2490234,13.4391293 37.3208001,13.682942 37.4643555,13.8242188 C37.6079109,13.9654955 37.7981759,14.0361328 38.0351562,14.0361328 C38.1126306,14.0361328 38.198079,14.0270183 38.2915039,14.0087891 C38.3849289,13.9905598 38.4680986,13.9677736 38.5410156,13.9404297 L38.71875,14.8632812 C38.6184891,14.9453129 38.4715179,15.0125323 38.277832,15.0649414 C38.0841462,15.1173505 37.8893239,15.1435547 37.6933594,15.1435547 C37.1464816,15.1435547 36.7112646,14.9783545 36.3876953,14.6479492 C36.064126,14.3175439 35.9023438,13.7991572 35.9023438,13.0927734 L35.9023438,8.6015625 L34.7265625,8.6015625 L34.7265625,7.60351562 L35.9023438,7.60351562 L35.9023438,5.81933594 L37.2490234,5.81933594 Z M50.7841797,6.10644531 L47.5849609,6.10644531 L47.5849609,15 L46.2382812,15 L46.2382812,6.10644531 L43.0458984,6.10644531 L43.0458984,5.046875 L50.7841797,5.046875 L50.7841797,6.10644531 Z M53.4501953,15 L52.1035156,15 L52.1035156,7.60351562 L53.4501953,7.60351562 L53.4501953,15 Z M53.4501953,5.70996094 L52.1035156,5.70996094 L52.1035156,4.3359375 L53.4501953,4.3359375 L53.4501953,5.70996094 Z M56.7246094,7.60351562 L56.8203125,8.57421875 C57.0618502,8.22330554 57.368325,7.95101008 57.7397461,7.75732422 C58.1111672,7.56363835 58.5429663,7.46679688 59.0351562,7.46679688 C59.5273462,7.46679688 59.9500308,7.58072803 60.3032227,7.80859375 C60.6564145,8.03645947 60.9218741,8.37825293 61.0996094,8.83398438 C61.3320324,8.41471145 61.6396465,8.08203248 62.0224609,7.8359375 C62.4052754,7.58984252 62.8518855,7.46679688 63.3623047,7.46679688 C64.1142616,7.46679688 64.7089822,7.72542059 65.1464844,8.24267578 C65.5839866,8.75993097 65.8027344,9.53808074 65.8027344,10.5771484 L65.8027344,15 L64.4560547,15 L64.4560547,10.5634766 C64.4560547,9.83430625 64.3307304,9.31819813 64.0800781,9.01513672 C63.8294258,8.71207531 63.4557317,8.56054688 62.9589844,8.56054688 C62.4986956,8.56054688 62.1261407,8.72005049 61.8413086,9.0390625 C61.5564764,9.35807451 61.3889976,9.76139079 61.3388672,10.2490234 L61.3388672,15 L59.9853516,15 L59.9853516,10.5634766 C59.9853516,9.87076477 59.8566094,9.36377114 59.5991211,9.04248047 C59.3416328,8.7211898 58.9713566,8.56054688 58.4882812,8.56054688 C58.0781229,8.56054688 57.7408867,8.64485593 57.4765625,8.81347656 C57.2122383,8.9820972 57.0094408,9.21907399 56.8681641,9.52441406 L56.8681641,15 L55.5214844,15 L55.5214844,7.60351562 L56.7246094,7.60351562 Z M70.8271484,15.1435547 C69.7971954,15.1435547 68.9780304,14.8006219 68.3696289,14.1147461 C67.7612274,13.4288703 67.4570312,12.539068 67.4570312,11.4453125 L67.4570312,11.1445312 C67.4570312,10.0917916 67.7703419,9.21566105 68.3969727,8.51611328 C69.0236034,7.81656551 69.7652952,7.46679688 70.6220703,7.46679688 C71.6201222,7.46679688 72.3743464,7.76757512 72.8847656,8.36914062 C73.3951848,8.97070613 73.6503906,9.77278145 73.6503906,10.7753906 L73.6503906,11.6162109 L68.8515625,11.6162109 L68.8310547,11.6503906 C68.8447266,12.3613317 69.0247379,12.9457985 69.3710938,13.4038086 C69.7174496,13.8618187 70.2027964,14.0908203 70.8271484,14.0908203 C71.2828799,14.0908203 71.6827782,14.0258796 72.0268555,13.8959961 C72.3709327,13.7661126 72.668293,13.5872407 72.9189453,13.359375 L73.4453125,14.234375 C73.1809883,14.4941419 72.8323589,14.7106111 72.3994141,14.8837891 C71.9664692,15.056967 71.4423859,15.1435547 70.8271484,15.1435547 Z M70.6220703,8.52636719 C70.1708962,8.52636719 69.7858089,8.71663221 69.4667969,9.09716797 C69.1477849,9.47770373 68.9518233,9.95507525 68.8789062,10.5292969 L68.8925781,10.5634766 L72.3037109,10.5634766 L72.3037109,10.3857422 C72.3037109,9.85709371 72.1624363,9.41504084 71.8798828,9.05957031 C71.5973293,8.70409979 71.1780627,8.52636719 70.6220703,8.52636719 Z"></path>
                </g>
            </g>
        </g>
    </g>
</svg>