<?xml version="1.0" encoding="UTF-8" standalone="no"?>
<svg width="200px" height="157px" viewBox="0 0 200 157" version="1.1" xmlns="http://www.w3.org/2000/svg" xmlns:xlink="http://www.w3.org/1999/xlink">
    <!-- Generator: Sketch 47.1 (45422) - http://www.bohemiancoding.com/sketch -->
    <title>time-picker-with-utc-offsets</title>
    <desc>Created with Sketch.</desc>
    <defs>
        <path d="M2,1.77638394e-15 L190,1.77638394e-15 L190,1.77635684e-15 C191.104569,1.5734484e-15 192,0.8954305 192,2 L192,30 L192,30 C192,31.1045695 191.104569,32 190,32 L133.863434,32 L2,32 L2,32 C0.8954305,32 1.3527075e-16,31.1045695 0,30 L0,2 L0,2 C-1.3527075e-16,0.8954305 0.8954305,1.97926528e-15 2,1.77638394e-15 Z" id="path-1"></path>
        <filter x="-3.1%" y="-18.8%" width="106.2%" height="137.5%" filterUnits="objectBoundingBox" id="filter-2">
            <feOffset dx="0" dy="0" in="SourceAlpha" result="shadowOffsetOuter1"></feOffset>
            <feGaussianBlur stdDeviation="2" in="shadowOffsetOuter1" result="shadowBlurOuter1"></feGaussianBlur>
            <feColorMatrix values="0 0 0 0 0.0549019608   0 0 0 0 0.580392157   0 0 0 0 0.650980392  0 0 0 0.5 0" type="matrix" in="shadowBlurOuter1"></feColorMatrix>
        </filter>
        <path d="M2,0.000360168204 L190,0.000360168204 L190,0.000360168204 C191.104569,0.000360168204 192,0.895790669 192,2.00036017 L192,98.0003602 L192,98.0003602 C192,99.1049297 191.104569,100.00036 190,100.00036 L133.863434,100.00036 L2,100.00036 L2,100.00036 C0.8954305,100.00036 7.98370909e-15,99.1049297 0,98.0003602 L0,2.00036017 L-2.22044605e-16,2.00036017 C-3.57315355e-16,0.895790669 0.8954305,0.000360168204 2,0.000360168204 Z" id="path-3"></path>
        <filter x="-3.1%" y="-3.0%" width="106.2%" height="112.0%" filterUnits="objectBoundingBox" id="filter-4">
            <feOffset dx="0" dy="3" in="SourceAlpha" result="shadowOffsetOuter1"></feOffset>
            <feGaussianBlur stdDeviation="1.5" in="shadowOffsetOuter1" result="shadowBlurOuter1"></feGaussianBlur>
            <feColorMatrix values="0 0 0 0 0   0 0 0 0 0   0 0 0 0 0  0 0 0 0.16 0" type="matrix" in="shadowBlurOuter1"></feColorMatrix>
        </filter>
    </defs>
    <g stroke="none" stroke-width="1" fill="none" fill-rule="evenodd">
        <g transform="translate(4.000000, -4.000000)">
            <g transform="translate(0.000000, 23.000000)">
                <g>
                    <g fill="#000000" fill-rule="nonzero">
                        <path d="M2,1.77638394e-15 L190,1.77638394e-15 L190,1.77635684e-15 C191.104569,1.5734484e-15 192,0.8954305 192,2 L192,30 L192,30 C192,31.1045695 191.104569,32 190,32 L133.863434,32 L2,32 L2,32 C0.8954305,32 1.3527075e-16,31.1045695 0,30 L0,2 L0,2 C-1.3527075e-16,0.8954305 0.8954305,1.97926528e-15 2,1.77638394e-15 Z"></path>
                    </g>
                    <g>
                        <g>
                            <use fill="black" fill-opacity="1" filter="url(#filter-2)" xlink:href="#path-1"></use>
                            <use fill="#FFFFFF" fill-rule="evenodd" xlink:href="#path-1"></use>
                        </g>
                    </g>
                    <path d="M2,0.5 C1.17157288,0.5 0.5,1.17157288 0.5,2 L0.5,30 C0.5,30.8284271 1.17157288,31.5 2,31.5 L190,31.5 C190.828427,31.5 191.5,30.8284271 191.5,30 L191.5,2 C191.5,1.17157288 190.828427,0.5 190,0.5 L2,0.5 Z" stroke="#0E94A6"></path>
                </g>
                <g transform="translate(31.000000, 5.000000)" fill="#616161">
                    <path d="M7.8359375,11.9375 L1.3125,11.9375 L1.3125,10.7265625 L7.8359375,10.7265625 L7.8359375,11.9375 Z M16.9765625,11.9375 L10.453125,11.9375 L10.453125,10.7265625 L16.9765625,10.7265625 L16.9765625,11.9375 Z M25.0546875,17 L23.515625,17 L23.515625,15.421875 L25.0546875,15.421875 L25.0546875,17 Z M25.0546875,10.15625 L23.515625,10.15625 L23.515625,8.578125 L25.0546875,8.578125 L25.0546875,10.15625 Z M38.109375,11.9375 L31.5859375,11.9375 L31.5859375,10.7265625 L38.109375,10.7265625 L38.109375,11.9375 Z M47.25,11.9375 L40.7265625,11.9375 L40.7265625,10.7265625 L47.25,10.7265625 L47.25,11.9375 Z"></path>
                </g>
                <path d="M20.0930233,14.1176471 C20.0930233,10.7447843 17.3808269,8 14.0465116,8 C10.7121964,8 8,10.7447843 8,14.1176471 C8,17.4905098 10.7128682,20.2352941 14.0465116,20.2352941 C17.380155,20.2352941 20.0930233,17.4905098 20.0930233,14.1176471 Z M15.6891473,16.0426667 L13.374677,14.4813072 L13.374677,10.7189542 L14.7183463,10.7189542 L14.7183463,13.7539869 L16.4348837,14.9115817 L15.6891473,16.0426667 Z M23.049987,19.1058824 L24,20.0770084 L20.1650113,24 L17.6744186,21.4515674 L18.6251034,20.4804414 L20.1650113,22.0563734 L23.049987,19.1058824 Z" fill="#616161" fill-rule="nonzero"></path>
            </g>
            <g fill="#6B6B6B">
                <path d="M6.65136719,12.4912109 C6.65136719,12.0354795 6.48047046,11.6538101 6.13867188,11.3461914 C5.79687329,11.0385727 5.19075956,10.779949 4.3203125,10.5703125 C3.26757286,10.3196602 2.44612925,9.95052327 1.85595703,9.46289062 C1.26578481,8.97525798 0.970703125,8.36230838 0.970703125,7.62402344 C0.970703125,6.84927998 1.28857104,6.20215104 1.92431641,5.68261719 C2.56006177,5.16308334 3.383784,4.90332031 4.39550781,4.90332031 C5.48470597,4.90332031 6.35172204,5.20181993 6.99658203,5.79882812 C7.64144203,6.39583632 7.95247407,7.08853772 7.9296875,7.87695312 L7.91601562,7.91796875 L6.63085938,7.91796875 C6.63085938,7.3346325 6.43831573,6.86295753 6.05322266,6.50292969 C5.66812958,6.14290185 5.1155635,5.96289062 4.39550781,5.96289062 C3.72558259,5.96289062 3.21175309,6.11441906 2.85400391,6.41748047 C2.49625472,6.72054188 2.31738281,7.11588298 2.31738281,7.60351562 C2.31738281,8.0364605 2.51106577,8.39762225 2.8984375,8.68701172 C3.28580923,8.97640119 3.91470919,9.23046766 4.78515625,9.44921875 C5.83333857,9.70898567 6.63085664,10.0917943 7.17773438,10.5976562 C7.72461211,11.1035182 7.99804688,11.7301395 7.99804688,12.4775391 C7.99804688,13.2796264 7.66992516,13.9244767 7.01367188,14.4121094 C6.35741859,14.899742 5.50065633,15.1435547 4.44335937,15.1435547 C3.44986482,15.1435547 2.57145564,14.8746772 1.80810547,14.3369141 C1.0447553,13.799151 0.674479053,13.0791061 0.697265625,12.1767578 L0.7109375,12.1357422 L1.99609375,12.1357422 C1.99609375,12.7737662 2.23079192,13.2591129 2.70019531,13.5917969 C3.1695987,13.9244808 3.75064758,14.0908203 4.44335937,14.0908203 C5.12239923,14.0908203 5.66015427,13.9472671 6.05664062,13.6601562 C6.45312698,13.3730454 6.65136719,12.9834009 6.65136719,12.4912109 Z M12.7763672,15.1435547 C11.7464141,15.1435547 10.9272491,14.8006219 10.3188477,14.1147461 C9.71044618,13.4288703 9.40625,12.539068 9.40625,11.4453125 L9.40625,11.1445312 C9.40625,10.0917916 9.71956067,9.21566105 10.3461914,8.51611328 C10.9728221,7.81656551 11.7145139,7.46679688 12.5712891,7.46679688 C13.5693409,7.46679688 14.3235652,7.76757512 14.8339844,8.36914062 C15.3444036,8.97070613 15.5996094,9.77278145 15.5996094,10.7753906 L15.5996094,11.6162109 L10.8007812,11.6162109 L10.7802734,11.6503906 C10.7939454,12.3613317 10.9739566,12.9457985 11.3203125,13.4038086 C11.6666684,13.8618187 12.1520151,14.0908203 12.7763672,14.0908203 C13.2320986,14.0908203 13.631997,14.0258796 13.9760742,13.8959961 C14.3201515,13.7661126 14.6175118,13.5872407 14.8681641,13.359375 L15.3945312,14.234375 C15.130207,14.4941419 14.7815777,14.7106111 14.3486328,14.8837891 C13.9156879,15.056967 13.3916046,15.1435547 12.7763672,15.1435547 Z M12.5712891,8.52636719 C12.1201149,8.52636719 11.7350276,8.71663221 11.4160156,9.09716797 C11.0970036,9.47770373 10.901042,9.95507525 10.828125,10.5292969 L10.8417969,10.5634766 L14.2529297,10.5634766 L14.2529297,10.3857422 C14.2529297,9.85709371 14.1116551,9.41504084 13.8291016,9.05957031 C13.5465481,8.70409979 13.1272814,8.52636719 12.5712891,8.52636719 Z M18.5664062,15 L17.2197266,15 L17.2197266,4.3359375 L18.5664062,4.3359375 L18.5664062,15 Z M23.7070312,15.1435547 C22.6770782,15.1435547 21.8579132,14.8006219 21.2495117,14.1147461 C20.6411102,13.4288703 20.3369141,12.539068 20.3369141,11.4453125 L20.3369141,11.1445312 C20.3369141,10.0917916 20.6502247,9.21566105 21.2768555,8.51611328 C21.9034862,7.81656551 22.645178,7.46679688 23.5019531,7.46679688 C24.500005,7.46679688 25.2542292,7.76757512 25.7646484,8.36914062 C26.2750677,8.97070613 26.5302734,9.77278145 26.5302734,10.7753906 L26.5302734,11.6162109 L21.7314453,11.6162109 L21.7109375,11.6503906 C21.7246094,12.3613317 21.9046207,12.9457985 22.2509766,13.4038086 C22.5973325,13.8618187 23.0826792,14.0908203 23.7070312,14.0908203 C24.1627627,14.0908203 24.562661,14.0258796 24.9067383,13.8959961 C25.2508155,13.7661126 25.5481758,13.5872407 25.7988281,13.359375 L26.3251953,14.234375 C26.0608711,14.4941419 25.7122417,14.7106111 25.2792969,14.8837891 C24.846352,15.056967 24.3222687,15.1435547 23.7070312,15.1435547 Z M23.5019531,8.52636719 C23.050779,8.52636719 22.6656917,8.71663221 22.3466797,9.09716797 C22.0276677,9.47770373 21.8317061,9.95507525 21.7587891,10.5292969 L21.7724609,10.5634766 L25.1835938,10.5634766 L25.1835938,10.3857422 C25.1835938,9.85709371 25.0423191,9.41504084 24.7597656,9.05957031 C24.4772121,8.70409979 24.0579455,8.52636719 23.5019531,8.52636719 Z M31.0488281,14.0908203 C31.4954449,14.0908203 31.8885074,13.9529636 32.2280273,13.6772461 C32.5675473,13.4015286 32.7373047,13.063153 32.7373047,12.6621094 L33.9472656,12.6621094 L33.9609375,12.703125 C33.9837241,13.341149 33.7000355,13.9073869 33.1098633,14.4018555 C32.5196911,14.8963241 31.8326862,15.1435547 31.0488281,15.1435547 C29.9733019,15.1435547 29.150719,14.7926467 28.5810547,14.0908203 C28.0113904,13.3889939 27.7265625,12.5071668 27.7265625,11.4453125 L27.7265625,11.1582031 C27.7265625,10.1054635 28.0125297,9.2270543 28.5844727,8.52294922 C29.1564156,7.81884414 29.9778592,7.46679688 31.0488281,7.46679688 C31.9147179,7.46679688 32.6222303,7.72200266 33.1713867,8.23242188 C33.7205431,8.74284109 33.9860027,9.36946243 33.9677734,10.1123047 L33.9541016,10.1533203 L32.7373047,10.1533203 C32.7373047,9.70214618 32.5778011,9.3181982 32.2587891,9.00146484 C31.9397771,8.68473149 31.5364608,8.52636719 31.0488281,8.52636719 C30.3424444,8.52636719 29.8377294,8.78043366 29.534668,9.28857422 C29.2316066,9.79671478 29.0800781,10.4199182 29.0800781,11.1582031 L29.0800781,11.4453125 C29.0800781,12.2018267 29.2304672,12.831866 29.53125,13.3354492 C29.8320328,13.8390325 30.3378871,14.0908203 31.0488281,14.0908203 Z M37.2490234,5.81933594 L37.2490234,7.60351562 L38.6503906,7.60351562 L38.6503906,8.6015625 L37.2490234,8.6015625 L37.2490234,13.0927734 C37.2490234,13.4391293 37.3208001,13.682942 37.4643555,13.8242188 C37.6079109,13.9654955 37.7981759,14.0361328 38.0351562,14.0361328 C38.1126306,14.0361328 38.198079,14.0270183 38.2915039,14.0087891 C38.3849289,13.9905598 38.4680986,13.9677736 38.5410156,13.9404297 L38.71875,14.8632812 C38.6184891,14.9453129 38.4715179,15.0125323 38.277832,15.0649414 C38.0841462,15.1173505 37.8893239,15.1435547 37.6933594,15.1435547 C37.1464816,15.1435547 36.7112646,14.9783545 36.3876953,14.6479492 C36.064126,14.3175439 35.9023438,13.7991572 35.9023438,13.0927734 L35.9023438,8.6015625 L34.7265625,8.6015625 L34.7265625,7.60351562 L35.9023438,7.60351562 L35.9023438,5.81933594 L37.2490234,5.81933594 Z M50.7841797,6.10644531 L47.5849609,6.10644531 L47.5849609,15 L46.2382812,15 L46.2382812,6.10644531 L43.0458984,6.10644531 L43.0458984,5.046875 L50.7841797,5.046875 L50.7841797,6.10644531 Z M53.4501953,15 L52.1035156,15 L52.1035156,7.60351562 L53.4501953,7.60351562 L53.4501953,15 Z M53.4501953,5.70996094 L52.1035156,5.70996094 L52.1035156,4.3359375 L53.4501953,4.3359375 L53.4501953,5.70996094 Z M56.7246094,7.60351562 L56.8203125,8.57421875 C57.0618502,8.22330554 57.368325,7.95101008 57.7397461,7.75732422 C58.1111672,7.56363835 58.5429663,7.46679688 59.0351562,7.46679688 C59.5273462,7.46679688 59.9500308,7.58072803 60.3032227,7.80859375 C60.6564145,8.03645947 60.9218741,8.37825293 61.0996094,8.83398438 C61.3320324,8.41471145 61.6396465,8.08203248 62.0224609,7.8359375 C62.4052754,7.58984252 62.8518855,7.46679688 63.3623047,7.46679688 C64.1142616,7.46679688 64.7089822,7.72542059 65.1464844,8.24267578 C65.5839866,8.75993097 65.8027344,9.53808074 65.8027344,10.5771484 L65.8027344,15 L64.4560547,15 L64.4560547,10.5634766 C64.4560547,9.83430625 64.3307304,9.31819813 64.0800781,9.01513672 C63.8294258,8.71207531 63.4557317,8.56054688 62.9589844,8.56054688 C62.4986956,8.56054688 62.1261407,8.72005049 61.8413086,9.0390625 C61.5564764,9.35807451 61.3889976,9.76139079 61.3388672,10.2490234 L61.3388672,15 L59.9853516,15 L59.9853516,10.5634766 C59.9853516,9.87076477 59.8566094,9.36377114 59.5991211,9.04248047 C59.3416328,8.7211898 58.9713566,8.56054688 58.4882812,8.56054688 C58.0781229,8.56054688 57.7408867,8.64485593 57.4765625,8.81347656 C57.2122383,8.9820972 57.0094408,9.21907399 56.8681641,9.52441406 L56.8681641,15 L55.5214844,15 L55.5214844,7.60351562 L56.7246094,7.60351562 Z M70.8271484,15.1435547 C69.7971954,15.1435547 68.9780304,14.8006219 68.3696289,14.1147461 C67.7612274,13.4288703 67.4570312,12.539068 67.4570312,11.4453125 L67.4570312,11.1445312 C67.4570312,10.0917916 67.7703419,9.21566105 68.3969727,8.51611328 C69.0236034,7.81656551 69.7652952,7.46679688 70.6220703,7.46679688 C71.6201222,7.46679688 72.3743464,7.76757512 72.8847656,8.36914062 C73.3951848,8.97070613 73.6503906,9.77278145 73.6503906,10.7753906 L73.6503906,11.6162109 L68.8515625,11.6162109 L68.8310547,11.6503906 C68.8447266,12.3613317 69.0247379,12.9457985 69.3710938,13.4038086 C69.7174496,13.8618187 70.2027964,14.0908203 70.8271484,14.0908203 C71.2828799,14.0908203 71.6827782,14.0258796 72.0268555,13.8959961 C72.3709327,13.7661126 72.668293,13.5872407 72.9189453,13.359375 L73.4453125,14.234375 C73.1809883,14.4941419 72.8323589,14.7106111 72.3994141,14.8837891 C71.9664692,15.056967 71.4423859,15.1435547 70.8271484,15.1435547 Z M70.6220703,8.52636719 C70.1708962,8.52636719 69.7858089,8.71663221 69.4667969,9.09716797 C69.1477849,9.47770373 68.9518233,9.95507525 68.8789062,10.5292969 L68.8925781,10.5634766 L72.3037109,10.5634766 L72.3037109,10.3857422 C72.3037109,9.85709371 72.1624363,9.41504084 71.8798828,9.05957031 C71.5973293,8.70409979 71.1780627,8.52636719 70.6220703,8.52636719 Z"></path>
            </g>
            <g transform="translate(0.000000, 55.000000)">
                <g>
                    <g fill="#000000" fill-rule="nonzero">
                        <path d="M2,0.000360168204 L190,0.000360168204 L190,0.000360168204 C191.104569,0.000360168204 192,0.895790669 192,2.00036017 L192,98.0003602 L192,98.0003602 C192,99.1049297 191.104569,100.00036 190,100.00036 L133.863434,100.00036 L2,100.00036 L2,100.00036 C0.8954305,100.00036 7.98370909e-15,99.1049297 0,98.0003602 L0,2.00036017 L-2.22044605e-16,2.00036017 C-3.57315355e-16,0.895790669 0.8954305,0.000360168204 2,0.000360168204 Z"></path>
                    </g>
                    <g>
                        <g>
                            <use fill="black" fill-opacity="1" filter="url(#filter-4)" xlink:href="#path-3"></use>
                            <use fill="#FAFAFA" fill-rule="evenodd" xlink:href="#path-3"></use>
                        </g>
                    </g>
                    <path d="M2,0.500360168 C1.17157288,0.500360168 0.5,1.17193304 0.5,2.00036017 L0.5,98.0003602 C0.5,98.8287873 1.17157288,99.5003602 2,99.5003602 L190,99.5003602 C190.828427,99.5003602 191.5,98.8287873 191.5,98.0003602 L191.5,2.00036017 C191.5,1.17193304 190.828427,0.500360168 190,0.500360168 L2,0.500360168 Z" stroke="#BDBDBD"></path>
                </g>
                <g transform="translate(7.750000, 3.000000)" fill="#616161">
                    <g>
                        <path d="M5.3203125,17 L3.78125,17 L3.78125,7.125 L1.453125,7.15625 L1.453125,6.046875 L5.3203125,5.625 L5.3203125,17 Z M17.3046875,17 L9.9296875,17 L9.9296875,15.9453125 L13.65625,11.8046875 C14.32292,11.0598921 14.7747384,10.4687522 15.0117188,10.03125 C15.2486991,9.59374781 15.3671875,9.14583563 15.3671875,8.6875 C15.3671875,8.11978883 15.2018246,7.64192902 14.8710938,7.25390625 C14.5403629,6.86588348 14.1015652,6.671875 13.5546875,6.671875 C12.7682252,6.671875 12.1888039,6.8736959 11.8164062,7.27734375 C11.4440086,7.6809916 11.2578125,8.24739219 11.2578125,8.9765625 L9.78125,8.9765625 L9.765625,8.9296875 C9.7395832,7.95051594 10.0651008,7.1276075 10.7421875,6.4609375 C11.4192742,5.7942675 12.3567648,5.4609375 13.5546875,5.4609375 C14.5755259,5.4609375 15.3893199,5.7591116 15.9960938,6.35546875 C16.6028676,6.9518259 16.90625,7.71093289 16.90625,8.6328125 C16.90625,9.25260727 16.7226581,9.8736948 16.3554688,10.4960938 C15.9882794,11.1184927 15.4739616,11.7864548 14.8125,12.5 L11.8203125,15.7578125 L11.8359375,15.796875 L17.3046875,15.796875 L17.3046875,17 Z M24.7890625,17 L23.25,17 L23.25,15.421875 L24.7890625,15.421875 L24.7890625,17 Z M24.7890625,10.15625 L23.25,10.15625 L23.25,8.578125 L24.7890625,8.578125 L24.7890625,10.15625 Z M38.1328125,12.6640625 C38.1328125,14.1171948 37.8112011,15.2304649 37.1679687,16.0039062 C36.5247364,16.7773476 35.6432348,17.1640625 34.5234375,17.1640625 C33.4036402,17.1640625 32.5182324,16.7760455 31.8671875,16 C31.2161426,15.2239545 30.890625,14.1119864 30.890625,12.6640625 L30.890625,9.96875 C30.890625,8.52082609 31.2148405,7.40755598 31.8632812,6.62890625 C32.511722,5.85025652 33.3932236,5.4609375 34.5078125,5.4609375 C35.6276098,5.4609375 36.5117155,5.85025652 37.1601562,6.62890625 C37.808597,7.40755598 38.1328125,8.52082609 38.1328125,9.96875 L38.1328125,12.6640625 Z M36.59375,9.640625 C36.59375,8.65624508 36.4153664,7.91536707 36.0585937,7.41796875 C35.7018211,6.92057043 35.1848992,6.671875 34.5078125,6.671875 C33.8307258,6.671875 33.3151059,6.92057043 32.9609375,7.41796875 C32.6067691,7.91536707 32.4296875,8.65624508 32.4296875,9.640625 L32.4296875,12.9765625 C32.4296875,13.9609424 32.6093732,14.7044246 32.96875,15.2070312 C33.3281268,15.7096379 33.8463508,15.9609375 34.5234375,15.9609375 C35.2005242,15.9609375 35.714842,15.71094 36.0664062,15.2109375 C36.4179705,14.710935 36.59375,13.9661508 36.59375,12.9765625 L36.59375,9.640625 Z M47.1484375,12.6640625 C47.1484375,14.1171948 46.8268261,15.2304649 46.1835938,16.0039062 C45.5403614,16.7773476 44.6588598,17.1640625 43.5390625,17.1640625 C42.4192652,17.1640625 41.5338574,16.7760455 40.8828125,16 C40.2317676,15.2239545 39.90625,14.1119864 39.90625,12.6640625 L39.90625,9.96875 C39.90625,8.52082609 40.2304655,7.40755598 40.8789062,6.62890625 C41.527347,5.85025652 42.4088486,5.4609375 43.5234375,5.4609375 C44.6432348,5.4609375 45.5273405,5.85025652 46.1757812,6.62890625 C46.824222,7.40755598 47.1484375,8.52082609 47.1484375,9.96875 L47.1484375,12.6640625 Z M45.609375,9.640625 C45.609375,8.65624508 45.4309914,7.91536707 45.0742188,7.41796875 C44.7174461,6.92057043 44.2005242,6.671875 43.5234375,6.671875 C42.8463508,6.671875 42.3307309,6.92057043 41.9765625,7.41796875 C41.6223941,7.91536707 41.4453125,8.65624508 41.4453125,9.640625 L41.4453125,12.9765625 C41.4453125,13.9609424 41.6249982,14.7044246 41.984375,15.2070312 C42.3437518,15.7096379 42.8619758,15.9609375 43.5390625,15.9609375 C44.2161492,15.9609375 44.730467,15.71094 45.0820312,15.2109375 C45.4335955,14.710935 45.609375,13.9661508 45.609375,12.9765625 L45.609375,9.640625 Z M54.9609375,12.4375 L54.9609375,17 L53.421875,17 L53.421875,5.625 L57.7734375,5.625 C58.9869852,5.625 59.9296841,5.93749688 60.6015625,6.5625 C61.2734409,7.18750312 61.609375,8.01041156 61.609375,9.03125 C61.609375,10.0677135 61.2734409,10.8945282 60.6015625,11.5117188 C59.9296841,12.1289093 58.9869852,12.4375 57.7734375,12.4375 L54.9609375,12.4375 Z M54.9609375,11.234375 L57.7734375,11.234375 C58.5442747,11.234375 59.1197898,11.0273458 59.5,10.6132812 C59.8802102,10.1992167 60.0703125,9.67708648 60.0703125,9.046875 C60.0703125,8.41666352 59.8789082,7.89062711 59.4960938,7.46875 C59.1132793,7.04687289 58.5390663,6.8359375 57.7734375,6.8359375 L54.9609375,6.8359375 L54.9609375,11.234375 Z M65.640625,5.625 L69.265625,14.8671875 L69.3125,14.8671875 L72.9375,5.625 L74.90625,5.625 L74.90625,17 L73.3671875,17 L73.3671875,12.5 L73.5234375,7.875 L73.484375,7.8671875 L69.796875,17 L68.7734375,17 L65.1015625,7.890625 L65.0625,7.8984375 L65.2109375,12.5 L65.2109375,17 L63.671875,17 L63.671875,5.625 L65.640625,5.625 Z M81.328125,12.3828125 C81.328125,10.3307189 81.7421834,8.57813227 82.5703125,7.125 C83.3984416,5.67186773 84.2682246,4.70312742 85.1796875,4.21875 L85.2265625,4.2265625 L85.5234375,5.1328125 C84.8098923,5.69010695 84.1888047,6.58332719 83.6601562,7.8125 C83.1315078,9.04167281 82.8671875,10.5598868 82.8671875,12.3671875 L82.8671875,12.46875 C82.8671875,14.2760507 83.1302057,15.7942647 83.65625,17.0234375 C84.1822943,18.2526103 84.8046839,19.1692678 85.5234375,19.7734375 L85.2265625,20.6171875 L85.1796875,20.6171875 C84.2682246,20.1328101 83.3984416,19.1653718 82.5703125,17.7148438 C81.7421834,16.2643157 81.328125,14.510427 81.328125,12.453125 L81.328125,12.3828125 Z M95.3203125,5.625 L95.3203125,13.3359375 C95.3203125,14.575527 94.9179728,15.5234342 94.1132812,16.1796875 C93.3085897,16.8359408 92.257819,17.1640625 90.9609375,17.1640625 C89.7109313,17.1640625 88.6966185,16.8346387 87.9179688,16.1757812 C87.139319,15.5169238 86.75,14.5703187 86.75,13.3359375 L86.75,5.625 L88.2890625,5.625 L88.2890625,13.3359375 C88.2890625,14.1953168 88.5338517,14.847654 89.0234375,15.2929687 C89.5130233,15.7382835 90.1588502,15.9609375 90.9609375,15.9609375 C91.8046917,15.9609375 92.4856745,15.7382835 93.0039062,15.2929687 C93.522138,14.847654 93.78125,14.1953168 93.78125,13.3359375 L93.78125,5.625 L95.3203125,5.625 Z M105.539062,6.8359375 L101.882812,6.8359375 L101.882812,17 L100.34375,17 L100.34375,6.8359375 L96.6953125,6.8359375 L96.6953125,5.625 L105.539062,5.625 L105.539062,6.8359375 Z M115.03125,13.359375 L115.046875,13.40625 C115.067708,14.4739637 114.692712,15.3671839 113.921875,16.0859375 C113.151038,16.8046911 112.132819,17.1640625 110.867188,17.1640625 C109.580723,17.1640625 108.532556,16.7083379 107.722656,15.796875 C106.912756,14.8854121 106.507812,13.7291737 106.507812,12.328125 L106.507812,10.3046875 C106.507812,8.90363883 106.912756,7.74609832 107.722656,6.83203125 C108.532556,5.91796418 109.580723,5.4609375 110.867188,5.4609375 C112.153652,5.4609375 113.17708,5.80338199 113.9375,6.48828125 C114.69792,7.17318051 115.067708,8.08072352 115.046875,9.2109375 L115.03125,9.2578125 L113.554688,9.2578125 C113.554688,8.46093352 113.320315,7.83073148 112.851562,7.3671875 C112.38281,6.90364352 111.721358,6.671875 110.867188,6.671875 C110.007808,6.671875 109.322919,7.0182257 108.8125,7.7109375 C108.302081,8.4036493 108.046875,9.2630157 108.046875,10.2890625 L108.046875,12.328125 C108.046875,13.3645885 108.302081,14.2291632 108.8125,14.921875 C109.322919,15.6145868 110.007808,15.9609375 110.867188,15.9609375 C111.721358,15.9609375 112.38281,15.7304711 112.851562,15.2695312 C113.320315,14.8085914 113.554688,14.1718791 113.554688,13.359375 L115.03125,13.359375 Z M121.007812,10.8828125 L124.125,10.8828125 L124.125,12.2734375 L121.007812,12.2734375 L121.007812,15.859375 L119.46875,15.859375 L119.46875,12.2734375 L116.328125,12.2734375 L116.328125,10.8828125 L119.46875,10.8828125 L119.46875,7.578125 L121.007812,7.578125 L121.007812,10.8828125 Z M132.921875,12.6640625 C132.921875,14.1171948 132.600264,15.2304649 131.957031,16.0039062 C131.313799,16.7773476 130.432297,17.1640625 129.3125,17.1640625 C128.192703,17.1640625 127.307295,16.7760455 126.65625,16 C126.005205,15.2239545 125.679687,14.1119864 125.679687,12.6640625 L125.679687,9.96875 C125.679687,8.52082609 126.003903,7.40755598 126.652344,6.62890625 C127.300784,5.85025652 128.182286,5.4609375 129.296875,5.4609375 C130.416672,5.4609375 131.300778,5.85025652 131.949219,6.62890625 C132.597659,7.40755598 132.921875,8.52082609 132.921875,9.96875 L132.921875,12.6640625 Z M131.382812,9.640625 C131.382812,8.65624508 131.204429,7.91536707 130.847656,7.41796875 C130.490884,6.92057043 129.973962,6.671875 129.296875,6.671875 C128.619788,6.671875 128.104168,6.92057043 127.75,7.41796875 C127.395832,7.91536707 127.21875,8.65624508 127.21875,9.640625 L127.21875,12.9765625 C127.21875,13.9609424 127.398436,14.7044246 127.757812,15.2070312 C128.117189,15.7096379 128.635413,15.9609375 129.3125,15.9609375 C129.989587,15.9609375 130.503904,15.71094 130.855469,15.2109375 C131.207033,14.710935 131.382812,13.9661508 131.382812,12.9765625 L131.382812,9.640625 Z M135.179688,11.8671875 L135.835938,5.625 L141.53125,5.625 L141.53125,6.9921875 L137.140625,6.9921875 L136.765625,10.1875 C137.00521,10.0104158 137.272134,9.86328184 137.566406,9.74609375 C137.860679,9.62890566 138.200519,9.56510422 138.585938,9.5546875 C139.632818,9.54427078 140.457028,9.8854132 141.058594,10.578125 C141.660159,11.2708368 141.960938,12.2031191 141.960938,13.375 C141.960938,14.5156307 141.654951,15.4322882 141.042969,16.125 C140.430987,16.8177118 139.539068,17.1640625 138.367188,17.1640625 C137.403641,17.1640625 136.601566,16.9010443 135.960938,16.375 C135.320309,15.8489557 135.013021,15.0755259 135.039062,14.0546875 L135.054688,14.0078125 L136.445312,14.0078125 C136.445312,14.6276073 136.623696,15.1080712 136.980469,15.4492187 C137.337241,15.7903663 137.799476,15.9609375 138.367188,15.9609375 C139.018232,15.9609375 139.523436,15.7317731 139.882812,15.2734375 C140.242189,14.8151019 140.421875,14.187504 140.421875,13.390625 C140.421875,12.6614547 140.239585,12.0625023 139.875,11.59375 C139.510415,11.1249977 139.007816,10.890625 138.367188,10.890625 C137.763018,10.890625 137.325522,10.9817699 137.054688,11.1640625 C136.783853,11.3463551 136.585938,11.6249981 136.460938,12 L135.179688,11.8671875 Z M145.617188,17 L144.078125,17 L144.078125,15.421875 L145.617188,15.421875 L145.617188,17 Z M145.617188,10.15625 L144.078125,10.15625 L144.078125,8.578125 L145.617188,8.578125 L145.617188,10.15625 Z M154.984375,12.6640625 C154.984375,14.1171948 154.662764,15.2304649 154.019531,16.0039062 C153.376299,16.7773476 152.494797,17.1640625 151.375,17.1640625 C150.255203,17.1640625 149.369795,16.7760455 148.71875,16 C148.067705,15.2239545 147.742188,14.1119864 147.742188,12.6640625 L147.742188,9.96875 C147.742188,8.52082609 148.066403,7.40755598 148.714844,6.62890625 C149.363284,5.85025652 150.244786,5.4609375 151.359375,5.4609375 C152.479172,5.4609375 153.363278,5.85025652 154.011719,6.62890625 C154.660159,7.40755598 154.984375,8.52082609 154.984375,9.96875 L154.984375,12.6640625 Z M153.445312,9.640625 C153.445312,8.65624508 153.266929,7.91536707 152.910156,7.41796875 C152.553384,6.92057043 152.036462,6.671875 151.359375,6.671875 C150.682288,6.671875 150.166668,6.92057043 149.8125,7.41796875 C149.458332,7.91536707 149.28125,8.65624508 149.28125,9.640625 L149.28125,12.9765625 C149.28125,13.9609424 149.460936,14.7044246 149.820312,15.2070312 C150.179689,15.7096379 150.697913,15.9609375 151.375,15.9609375 C152.052087,15.9609375 152.566404,15.71094 152.917969,15.2109375 C153.269533,14.710935 153.445312,13.9661508 153.445312,12.9765625 L153.445312,9.640625 Z M164,12.6640625 C164,14.1171948 163.678389,15.2304649 163.035156,16.0039062 C162.391924,16.7773476 161.510422,17.1640625 160.390625,17.1640625 C159.270828,17.1640625 158.38542,16.7760455 157.734375,16 C157.08333,15.2239545 156.757812,14.1119864 156.757812,12.6640625 L156.757812,9.96875 C156.757812,8.52082609 157.082028,7.40755598 157.730469,6.62890625 C158.378909,5.85025652 159.260411,5.4609375 160.375,5.4609375 C161.494797,5.4609375 162.378903,5.85025652 163.027344,6.62890625 C163.675784,7.40755598 164,8.52082609 164,9.96875 L164,12.6640625 Z M162.460938,9.640625 C162.460938,8.65624508 162.282554,7.91536707 161.925781,7.41796875 C161.569009,6.92057043 161.052087,6.671875 160.375,6.671875 C159.697913,6.671875 159.182293,6.92057043 158.828125,7.41796875 C158.473957,7.91536707 158.296875,8.65624508 158.296875,9.640625 L158.296875,12.9765625 C158.296875,13.9609424 158.476561,14.7044246 158.835938,15.2070312 C159.195314,15.7096379 159.713538,15.9609375 160.390625,15.9609375 C161.067712,15.9609375 161.582029,15.71094 161.933594,15.2109375 C162.285158,14.710935 162.460938,13.9661508 162.460938,12.9765625 L162.460938,9.640625 Z M169.132812,12.453125 C169.132812,14.510427 168.717452,16.2643157 167.886719,17.7148438 C167.055985,19.1653718 166.187505,20.1328101 165.28125,20.6171875 L165.234375,20.6171875 L164.9375,19.7734375 C165.640629,19.2265598 166.259112,18.3268292 166.792969,17.0742188 C167.326826,15.8216083 167.59375,14.2864674 167.59375,12.46875 L167.59375,12.3671875 C167.59375,10.5859286 167.319013,9.06641254 166.769531,7.80859375 C166.220049,6.55077496 165.609378,5.63541953 164.9375,5.0625 L165.234375,4.21875 L165.28125,4.21875 C166.187505,4.70312742 167.055985,5.67186773 167.886719,7.125 C168.717452,8.57813227 169.132812,10.3307189 169.132812,12.3828125 L169.132812,12.453125 Z"></path>
                    </g>
                    <g transform="translate(0.000000, 48.000000)">
                        <path d="M8.125,12.6640625 C8.125,14.1171948 7.80338863,15.2304649 7.16015625,16.0039062 C6.51692387,16.7773476 5.63542227,17.1640625 4.515625,17.1640625 C3.39582773,17.1640625 2.51041992,16.7760455 1.859375,16 C1.20833008,15.2239545 0.8828125,14.1119864 0.8828125,12.6640625 L0.8828125,9.96875 C0.8828125,8.52082609 1.20702801,7.40755598 1.85546875,6.62890625 C2.50390949,5.85025652 3.38541109,5.4609375 4.5,5.4609375 C5.61979727,5.4609375 6.50390301,5.85025652 7.15234375,6.62890625 C7.80078449,7.40755598 8.125,8.52082609 8.125,9.96875 L8.125,12.6640625 Z M6.5859375,9.640625 C6.5859375,8.65624508 6.40755387,7.91536707 6.05078125,7.41796875 C5.69400863,6.92057043 5.17708672,6.671875 4.5,6.671875 C3.82291328,6.671875 3.30729344,6.92057043 2.953125,7.41796875 C2.59895656,7.91536707 2.421875,8.65624508 2.421875,9.640625 L2.421875,12.9765625 C2.421875,13.9609424 2.6015607,14.7044246 2.9609375,15.2070312 C3.3203143,15.7096379 3.83853828,15.9609375 4.515625,15.9609375 C5.19271172,15.9609375 5.70702949,15.71094 6.05859375,15.2109375 C6.41015801,14.710935 6.5859375,13.9661508 6.5859375,12.9765625 L6.5859375,9.640625 Z M17.3125,17 L9.9375,17 L9.9375,15.9453125 L13.6640625,11.8046875 C14.3307325,11.0598921 14.7825509,10.4687522 15.0195312,10.03125 C15.2565116,9.59374781 15.375,9.14583563 15.375,8.6875 C15.375,8.11978883 15.2096371,7.64192902 14.8789062,7.25390625 C14.5481754,6.86588348 14.1093777,6.671875 13.5625,6.671875 C12.7760377,6.671875 12.1966164,6.8736959 11.8242188,7.27734375 C11.4518211,7.6809916 11.265625,8.24739219 11.265625,8.9765625 L9.7890625,8.9765625 L9.7734375,8.9296875 C9.7473957,7.95051594 10.0729133,7.1276075 10.75,6.4609375 C11.4270867,5.7942675 12.3645773,5.4609375 13.5625,5.4609375 C14.5833384,5.4609375 15.3971324,5.7591116 16.0039062,6.35546875 C16.6106801,6.9518259 16.9140625,7.71093289 16.9140625,8.6328125 C16.9140625,9.25260727 16.7304706,9.8736948 16.3632812,10.4960938 C15.9960919,11.1184927 15.4817741,11.7864548 14.8203125,12.5 L11.828125,15.7578125 L11.84375,15.796875 L17.3125,15.796875 L17.3125,17 Z M24.796875,17 L23.2578125,17 L23.2578125,15.421875 L24.796875,15.421875 L24.796875,17 Z M24.796875,10.15625 L23.2578125,10.15625 L23.2578125,8.578125 L24.796875,8.578125 L24.796875,10.15625 Z M38.140625,12.6640625 C38.140625,14.1171948 37.8190136,15.2304649 37.1757812,16.0039062 C36.5325489,16.7773476 35.6510473,17.1640625 34.53125,17.1640625 C33.4114527,17.1640625 32.5260449,16.7760455 31.875,16 C31.2239551,15.2239545 30.8984375,14.1119864 30.8984375,12.6640625 L30.8984375,9.96875 C30.8984375,8.52082609 31.222653,7.40755598 31.8710938,6.62890625 C32.5195345,5.85025652 33.4010361,5.4609375 34.515625,5.4609375 C35.6354223,5.4609375 36.519528,5.85025652 37.1679688,6.62890625 C37.8164095,7.40755598 38.140625,8.52082609 38.140625,9.96875 L38.140625,12.6640625 Z M36.6015625,9.640625 C36.6015625,8.65624508 36.4231789,7.91536707 36.0664062,7.41796875 C35.7096336,6.92057043 35.1927117,6.671875 34.515625,6.671875 C33.8385383,6.671875 33.3229184,6.92057043 32.96875,7.41796875 C32.6145816,7.91536707 32.4375,8.65624508 32.4375,9.640625 L32.4375,12.9765625 C32.4375,13.9609424 32.6171857,14.7044246 32.9765625,15.2070312 C33.3359393,15.7096379 33.8541633,15.9609375 34.53125,15.9609375 C35.2083367,15.9609375 35.7226545,15.71094 36.0742188,15.2109375 C36.425783,14.710935 36.6015625,13.9661508 36.6015625,12.9765625 L36.6015625,9.640625 Z M47.15625,12.6640625 C47.15625,14.1171948 46.8346386,15.2304649 46.1914062,16.0039062 C45.5481739,16.7773476 44.6666723,17.1640625 43.546875,17.1640625 C42.4270777,17.1640625 41.5416699,16.7760455 40.890625,16 C40.2395801,15.2239545 39.9140625,14.1119864 39.9140625,12.6640625 L39.9140625,9.96875 C39.9140625,8.52082609 40.238278,7.40755598 40.8867188,6.62890625 C41.5351595,5.85025652 42.4166611,5.4609375 43.53125,5.4609375 C44.6510473,5.4609375 45.535153,5.85025652 46.1835938,6.62890625 C46.8320345,7.40755598 47.15625,8.52082609 47.15625,9.96875 L47.15625,12.6640625 Z M45.6171875,9.640625 C45.6171875,8.65624508 45.4388039,7.91536707 45.0820312,7.41796875 C44.7252586,6.92057043 44.2083367,6.671875 43.53125,6.671875 C42.8541633,6.671875 42.3385434,6.92057043 41.984375,7.41796875 C41.6302066,7.91536707 41.453125,8.65624508 41.453125,9.640625 L41.453125,12.9765625 C41.453125,13.9609424 41.6328107,14.7044246 41.9921875,15.2070312 C42.3515643,15.7096379 42.8697883,15.9609375 43.546875,15.9609375 C44.2239617,15.9609375 44.7382795,15.71094 45.0898438,15.2109375 C45.441408,14.710935 45.6171875,13.9661508 45.6171875,12.9765625 L45.6171875,9.640625 Z M54.96875,12.4375 L54.96875,17 L53.4296875,17 L53.4296875,5.625 L57.78125,5.625 C58.9947977,5.625 59.9374966,5.93749688 60.609375,6.5625 C61.2812534,7.18750312 61.6171875,8.01041156 61.6171875,9.03125 C61.6171875,10.0677135 61.2812534,10.8945282 60.609375,11.5117188 C59.9374966,12.1289093 58.9947977,12.4375 57.78125,12.4375 L54.96875,12.4375 Z M54.96875,11.234375 L57.78125,11.234375 C58.5520872,11.234375 59.1276023,11.0273458 59.5078125,10.6132812 C59.8880227,10.1992167 60.078125,9.67708648 60.078125,9.046875 C60.078125,8.41666352 59.8867207,7.89062711 59.5039062,7.46875 C59.1210918,7.04687289 58.5468788,6.8359375 57.78125,6.8359375 L54.96875,6.8359375 L54.96875,11.234375 Z M65.6484375,5.625 L69.2734375,14.8671875 L69.3203125,14.8671875 L72.9453125,5.625 L74.9140625,5.625 L74.9140625,17 L73.375,17 L73.375,12.5 L73.53125,7.875 L73.4921875,7.8671875 L69.8046875,17 L68.78125,17 L65.109375,7.890625 L65.0703125,7.8984375 L65.21875,12.5 L65.21875,17 L63.6796875,17 L63.6796875,5.625 L65.6484375,5.625 Z M81.3359375,12.3828125 C81.3359375,10.3307189 81.7499959,8.57813227 82.578125,7.125 C83.4062541,5.67186773 84.2760371,4.70312742 85.1875,4.21875 L85.234375,4.2265625 L85.53125,5.1328125 C84.8177048,5.69010695 84.1966172,6.58332719 83.6679688,7.8125 C83.1393203,9.04167281 82.875,10.5598868 82.875,12.3671875 L82.875,12.46875 C82.875,14.2760507 83.1380182,15.7942647 83.6640625,17.0234375 C84.1901068,18.2526103 84.8124964,19.1692678 85.53125,19.7734375 L85.234375,20.6171875 L85.1875,20.6171875 C84.2760371,20.1328101 83.4062541,19.1653718 82.578125,17.7148438 C81.7499959,16.2643157 81.3359375,14.510427 81.3359375,12.453125 L81.3359375,12.3828125 Z M95.328125,5.625 L95.328125,13.3359375 C95.328125,14.575527 94.9257853,15.5234342 94.1210938,16.1796875 C93.3164022,16.8359408 92.2656315,17.1640625 90.96875,17.1640625 C89.7187438,17.1640625 88.704431,16.8346387 87.9257812,16.1757812 C87.1471315,15.5169238 86.7578125,14.5703187 86.7578125,13.3359375 L86.7578125,5.625 L88.296875,5.625 L88.296875,13.3359375 C88.296875,14.1953168 88.5416642,14.847654 89.03125,15.2929687 C89.5208358,15.7382835 90.1666627,15.9609375 90.96875,15.9609375 C91.8125042,15.9609375 92.493487,15.7382835 93.0117188,15.2929687 C93.5299505,14.847654 93.7890625,14.1953168 93.7890625,13.3359375 L93.7890625,5.625 L95.328125,5.625 Z M105.546875,6.8359375 L101.890625,6.8359375 L101.890625,17 L100.351562,17 L100.351562,6.8359375 L96.703125,6.8359375 L96.703125,5.625 L105.546875,5.625 L105.546875,6.8359375 Z M115.039062,13.359375 L115.054688,13.40625 C115.075521,14.4739637 114.700525,15.3671839 113.929688,16.0859375 C113.15885,16.8046911 112.140631,17.1640625 110.875,17.1640625 C109.588535,17.1640625 108.540369,16.7083379 107.730469,15.796875 C106.920569,14.8854121 106.515625,13.7291737 106.515625,12.328125 L106.515625,10.3046875 C106.515625,8.90363883 106.920569,7.74609832 107.730469,6.83203125 C108.540369,5.91796418 109.588535,5.4609375 110.875,5.4609375 C112.161465,5.4609375 113.184892,5.80338199 113.945312,6.48828125 C114.705733,7.17318051 115.075521,8.08072352 115.054688,9.2109375 L115.039062,9.2578125 L113.5625,9.2578125 C113.5625,8.46093352 113.328127,7.83073148 112.859375,7.3671875 C112.390623,6.90364352 111.729171,6.671875 110.875,6.671875 C110.015621,6.671875 109.330732,7.0182257 108.820312,7.7109375 C108.309893,8.4036493 108.054688,9.2630157 108.054688,10.2890625 L108.054688,12.328125 C108.054688,13.3645885 108.309893,14.2291632 108.820312,14.921875 C109.330732,15.6145868 110.015621,15.9609375 110.875,15.9609375 C111.729171,15.9609375 112.390623,15.7304711 112.859375,15.2695312 C113.328127,14.8085914 113.5625,14.1718791 113.5625,13.359375 L115.039062,13.359375 Z M121.015625,10.8828125 L124.132812,10.8828125 L124.132812,12.2734375 L121.015625,12.2734375 L121.015625,15.859375 L119.476562,15.859375 L119.476562,12.2734375 L116.335938,12.2734375 L116.335938,10.8828125 L119.476562,10.8828125 L119.476562,7.578125 L121.015625,7.578125 L121.015625,10.8828125 Z M132.929688,12.6640625 C132.929688,14.1171948 132.608076,15.2304649 131.964844,16.0039062 C131.321611,16.7773476 130.44011,17.1640625 129.320312,17.1640625 C128.200515,17.1640625 127.315107,16.7760455 126.664062,16 C126.013018,15.2239545 125.6875,14.1119864 125.6875,12.6640625 L125.6875,9.96875 C125.6875,8.52082609 126.011716,7.40755598 126.660156,6.62890625 C127.308597,5.85025652 128.190099,5.4609375 129.304688,5.4609375 C130.424485,5.4609375 131.308591,5.85025652 131.957031,6.62890625 C132.605472,7.40755598 132.929688,8.52082609 132.929688,9.96875 L132.929688,12.6640625 Z M131.390625,9.640625 C131.390625,8.65624508 131.212241,7.91536707 130.855469,7.41796875 C130.498696,6.92057043 129.981774,6.671875 129.304688,6.671875 C128.627601,6.671875 128.111981,6.92057043 127.757812,7.41796875 C127.403644,7.91536707 127.226562,8.65624508 127.226562,9.640625 L127.226562,12.9765625 C127.226562,13.9609424 127.406248,14.7044246 127.765625,15.2070312 C128.125002,15.7096379 128.643226,15.9609375 129.320312,15.9609375 C129.997399,15.9609375 130.511717,15.71094 130.863281,15.2109375 C131.214846,14.710935 131.390625,13.9661508 131.390625,12.9765625 L131.390625,9.640625 Z M142.117188,6.8359375 C140.742181,8.47136234 139.813804,9.9205666 139.332031,11.1835938 C138.850258,12.4466209 138.502605,13.9765535 138.289062,15.7734375 L138.164062,17 L136.625,17 L136.75,15.7734375 C136.968751,13.9817619 137.393226,12.3802154 138.023438,10.96875 C138.653649,9.55728461 139.51562,8.17969422 140.609375,6.8359375 L134.421875,6.8359375 L134.421875,5.625 L142.117188,5.625 L142.117188,6.8359375 Z M145.625,17 L144.085938,17 L144.085938,15.421875 L145.625,15.421875 L145.625,17 Z M145.625,10.15625 L144.085938,10.15625 L144.085938,8.578125 L145.625,8.578125 L145.625,10.15625 Z M154.992188,12.6640625 C154.992188,14.1171948 154.670576,15.2304649 154.027344,16.0039062 C153.384111,16.7773476 152.50261,17.1640625 151.382812,17.1640625 C150.263015,17.1640625 149.377607,16.7760455 148.726562,16 C148.075518,15.2239545 147.75,14.1119864 147.75,12.6640625 L147.75,9.96875 C147.75,8.52082609 148.074216,7.40755598 148.722656,6.62890625 C149.371097,5.85025652 150.252599,5.4609375 151.367188,5.4609375 C152.486985,5.4609375 153.371091,5.85025652 154.019531,6.62890625 C154.667972,7.40755598 154.992188,8.52082609 154.992188,9.96875 L154.992188,12.6640625 Z M153.453125,9.640625 C153.453125,8.65624508 153.274741,7.91536707 152.917969,7.41796875 C152.561196,6.92057043 152.044274,6.671875 151.367188,6.671875 C150.690101,6.671875 150.174481,6.92057043 149.820312,7.41796875 C149.466144,7.91536707 149.289062,8.65624508 149.289062,9.640625 L149.289062,12.9765625 C149.289062,13.9609424 149.468748,14.7044246 149.828125,15.2070312 C150.187502,15.7096379 150.705726,15.9609375 151.382812,15.9609375 C152.059899,15.9609375 152.574217,15.71094 152.925781,15.2109375 C153.277346,14.710935 153.453125,13.9661508 153.453125,12.9765625 L153.453125,9.640625 Z M164.007812,12.6640625 C164.007812,14.1171948 163.686201,15.2304649 163.042969,16.0039062 C162.399736,16.7773476 161.518235,17.1640625 160.398438,17.1640625 C159.27864,17.1640625 158.393232,16.7760455 157.742188,16 C157.091143,15.2239545 156.765625,14.1119864 156.765625,12.6640625 L156.765625,9.96875 C156.765625,8.52082609 157.089841,7.40755598 157.738281,6.62890625 C158.386722,5.85025652 159.268224,5.4609375 160.382812,5.4609375 C161.50261,5.4609375 162.386716,5.85025652 163.035156,6.62890625 C163.683597,7.40755598 164.007812,8.52082609 164.007812,9.96875 L164.007812,12.6640625 Z M162.46875,9.640625 C162.46875,8.65624508 162.290366,7.91536707 161.933594,7.41796875 C161.576821,6.92057043 161.059899,6.671875 160.382812,6.671875 C159.705726,6.671875 159.190106,6.92057043 158.835938,7.41796875 C158.481769,7.91536707 158.304688,8.65624508 158.304688,9.640625 L158.304688,12.9765625 C158.304688,13.9609424 158.484373,14.7044246 158.84375,15.2070312 C159.203127,15.7096379 159.721351,15.9609375 160.398438,15.9609375 C161.075524,15.9609375 161.589842,15.71094 161.941406,15.2109375 C162.292971,14.710935 162.46875,13.9661508 162.46875,12.9765625 L162.46875,9.640625 Z M169.140625,12.453125 C169.140625,14.510427 168.725265,16.2643157 167.894531,17.7148438 C167.063798,19.1653718 166.195317,20.1328101 165.289062,20.6171875 L165.242188,20.6171875 L164.945312,19.7734375 C165.648441,19.2265598 166.266924,18.3268292 166.800781,17.0742188 C167.334638,15.8216083 167.601562,14.2864674 167.601562,12.46875 L167.601562,12.3671875 C167.601562,10.5859286 167.326826,9.06641254 166.777344,7.80859375 C166.227862,6.55077496 165.617191,5.63541953 164.945312,5.0625 L165.242188,4.21875 L165.289062,4.21875 C166.195317,4.70312742 167.063798,5.67186773 167.894531,7.125 C168.725265,8.57813227 169.140625,10.3307189 169.140625,12.3828125 L169.140625,12.453125 Z"></path>
                    </g>
                    <g transform="translate(0.000000, 72.000000)">
                        <path d="M8.125,12.6640625 C8.125,14.1171948 7.80338863,15.2304649 7.16015625,16.0039062 C6.51692387,16.7773476 5.63542227,17.1640625 4.515625,17.1640625 C3.39582773,17.1640625 2.51041992,16.7760455 1.859375,16 C1.20833008,15.2239545 0.8828125,14.1119864 0.8828125,12.6640625 L0.8828125,9.96875 C0.8828125,8.52082609 1.20702801,7.40755598 1.85546875,6.62890625 C2.50390949,5.85025652 3.38541109,5.4609375 4.5,5.4609375 C5.61979727,5.4609375 6.50390301,5.85025652 7.15234375,6.62890625 C7.80078449,7.40755598 8.125,8.52082609 8.125,9.96875 L8.125,12.6640625 Z M6.5859375,9.640625 C6.5859375,8.65624508 6.40755387,7.91536707 6.05078125,7.41796875 C5.69400863,6.92057043 5.17708672,6.671875 4.5,6.671875 C3.82291328,6.671875 3.30729344,6.92057043 2.953125,7.41796875 C2.59895656,7.91536707 2.421875,8.65624508 2.421875,9.640625 L2.421875,12.9765625 C2.421875,13.9609424 2.6015607,14.7044246 2.9609375,15.2070312 C3.3203143,15.7096379 3.83853828,15.9609375 4.515625,15.9609375 C5.19271172,15.9609375 5.70702949,15.71094 6.05859375,15.2109375 C6.41015801,14.710935 6.5859375,13.9661508 6.5859375,12.9765625 L6.5859375,9.640625 Z M12.046875,10.6015625 L13.390625,10.6015625 C14.0729201,10.6015625 14.5559882,10.4309913 14.8398438,10.0898438 C15.1236993,9.74869621 15.265625,9.27344055 15.265625,8.6640625 C15.265625,8.01301758 15.1041683,7.51823086 14.78125,7.1796875 C14.4583317,6.84114414 13.981774,6.671875 13.3515625,6.671875 C12.7526012,6.671875 12.2721372,6.84765449 11.9101562,7.19921875 C11.5481753,7.55078301 11.3671875,8.01822625 11.3671875,8.6015625 L9.890625,8.6015625 L9.875,8.5546875 C9.8489582,7.6953082 10.160153,6.96484676 10.8085938,6.36328125 C11.4570345,5.76171574 12.3046823,5.4609375 13.3515625,5.4609375 C14.4036511,5.4609375 15.2421844,5.74088262 15.8671875,6.30078125 C16.4921906,6.86067988 16.8046875,7.65884898 16.8046875,8.6953125 C16.8046875,9.16406484 16.6627618,9.63150809 16.3789062,10.0976562 C16.0950507,10.5638044 15.6692737,10.9192696 15.1015625,11.1640625 C15.7838576,11.388022 16.2669257,11.7395809 16.5507812,12.21875 C16.8346368,12.6979191 16.9765625,13.234372 16.9765625,13.828125 C16.9765625,14.8645885 16.6367221,15.6796845 15.9570312,16.2734375 C15.2773404,16.8671905 14.4088595,17.1640625 13.3515625,17.1640625 C12.315099,17.1640625 11.4570346,16.8841174 10.7773438,16.3242188 C10.0976529,15.7643201 9.7708332,15.0052131 9.796875,14.046875 L9.8203125,14 L11.2890625,14 C11.2890625,14.5989613 11.4726544,15.0755191 11.8398438,15.4296875 C12.2070331,15.7838559 12.7109343,15.9609375 13.3515625,15.9609375 C14.0026074,15.9609375 14.513019,15.7838559 14.8828125,15.4296875 C15.252606,15.0755191 15.4375,14.5520868 15.4375,13.859375 C15.4375,13.1562465 15.2734391,12.6380225 14.9453125,12.3046875 C14.6171859,11.9713525 14.0989619,11.8046875 13.390625,11.8046875 L12.046875,11.8046875 L12.046875,10.6015625 Z M24.796875,17 L23.2578125,17 L23.2578125,15.421875 L24.796875,15.421875 L24.796875,17 Z M24.796875,10.15625 L23.2578125,10.15625 L23.2578125,8.578125 L24.796875,8.578125 L24.796875,10.15625 Z M38.140625,12.6640625 C38.140625,14.1171948 37.8190136,15.2304649 37.1757812,16.0039062 C36.5325489,16.7773476 35.6510473,17.1640625 34.53125,17.1640625 C33.4114527,17.1640625 32.5260449,16.7760455 31.875,16 C31.2239551,15.2239545 30.8984375,14.1119864 30.8984375,12.6640625 L30.8984375,9.96875 C30.8984375,8.52082609 31.222653,7.40755598 31.8710938,6.62890625 C32.5195345,5.85025652 33.4010361,5.4609375 34.515625,5.4609375 C35.6354223,5.4609375 36.519528,5.85025652 37.1679688,6.62890625 C37.8164095,7.40755598 38.140625,8.52082609 38.140625,9.96875 L38.140625,12.6640625 Z M36.6015625,9.640625 C36.6015625,8.65624508 36.4231789,7.91536707 36.0664062,7.41796875 C35.7096336,6.92057043 35.1927117,6.671875 34.515625,6.671875 C33.8385383,6.671875 33.3229184,6.92057043 32.96875,7.41796875 C32.6145816,7.91536707 32.4375,8.65624508 32.4375,9.640625 L32.4375,12.9765625 C32.4375,13.9609424 32.6171857,14.7044246 32.9765625,15.2070312 C33.3359393,15.7096379 33.8541633,15.9609375 34.53125,15.9609375 C35.2083367,15.9609375 35.7226545,15.71094 36.0742188,15.2109375 C36.425783,14.710935 36.6015625,13.9661508 36.6015625,12.9765625 L36.6015625,9.640625 Z M47.15625,12.6640625 C47.15625,14.1171948 46.8346386,15.2304649 46.1914062,16.0039062 C45.5481739,16.7773476 44.6666723,17.1640625 43.546875,17.1640625 C42.4270777,17.1640625 41.5416699,16.7760455 40.890625,16 C40.2395801,15.2239545 39.9140625,14.1119864 39.9140625,12.6640625 L39.9140625,9.96875 C39.9140625,8.52082609 40.238278,7.40755598 40.8867188,6.62890625 C41.5351595,5.85025652 42.4166611,5.4609375 43.53125,5.4609375 C44.6510473,5.4609375 45.535153,5.85025652 46.1835938,6.62890625 C46.8320345,7.40755598 47.15625,8.52082609 47.15625,9.96875 L47.15625,12.6640625 Z M45.6171875,9.640625 C45.6171875,8.65624508 45.4388039,7.91536707 45.0820312,7.41796875 C44.7252586,6.92057043 44.2083367,6.671875 43.53125,6.671875 C42.8541633,6.671875 42.3385434,6.92057043 41.984375,7.41796875 C41.6302066,7.91536707 41.453125,8.65624508 41.453125,9.640625 L41.453125,12.9765625 C41.453125,13.9609424 41.6328107,14.7044246 41.9921875,15.2070312 C42.3515643,15.7096379 42.8697883,15.9609375 43.546875,15.9609375 C44.2239617,15.9609375 44.7382795,15.71094 45.0898438,15.2109375 C45.441408,14.710935 45.6171875,13.9661508 45.6171875,12.9765625 L45.6171875,9.640625 Z M54.96875,12.4375 L54.96875,17 L53.4296875,17 L53.4296875,5.625 L57.78125,5.625 C58.9947977,5.625 59.9374966,5.93749688 60.609375,6.5625 C61.2812534,7.18750312 61.6171875,8.01041156 61.6171875,9.03125 C61.6171875,10.0677135 61.2812534,10.8945282 60.609375,11.5117188 C59.9374966,12.1289093 58.9947977,12.4375 57.78125,12.4375 L54.96875,12.4375 Z M54.96875,11.234375 L57.78125,11.234375 C58.5520872,11.234375 59.1276023,11.0273458 59.5078125,10.6132812 C59.8880227,10.1992167 60.078125,9.67708648 60.078125,9.046875 C60.078125,8.41666352 59.8867207,7.89062711 59.5039062,7.46875 C59.1210918,7.04687289 58.5468788,6.8359375 57.78125,6.8359375 L54.96875,6.8359375 L54.96875,11.234375 Z M65.6484375,5.625 L69.2734375,14.8671875 L69.3203125,14.8671875 L72.9453125,5.625 L74.9140625,5.625 L74.9140625,17 L73.375,17 L73.375,12.5 L73.53125,7.875 L73.4921875,7.8671875 L69.8046875,17 L68.78125,17 L65.109375,7.890625 L65.0703125,7.8984375 L65.21875,12.5 L65.21875,17 L63.6796875,17 L63.6796875,5.625 L65.6484375,5.625 Z M81.3359375,12.3828125 C81.3359375,10.3307189 81.7499959,8.57813227 82.578125,7.125 C83.4062541,5.67186773 84.2760371,4.70312742 85.1875,4.21875 L85.234375,4.2265625 L85.53125,5.1328125 C84.8177048,5.69010695 84.1966172,6.58332719 83.6679688,7.8125 C83.1393203,9.04167281 82.875,10.5598868 82.875,12.3671875 L82.875,12.46875 C82.875,14.2760507 83.1380182,15.7942647 83.6640625,17.0234375 C84.1901068,18.2526103 84.8124964,19.1692678 85.53125,19.7734375 L85.234375,20.6171875 L85.1875,20.6171875 C84.2760371,20.1328101 83.4062541,19.1653718 82.578125,17.7148438 C81.7499959,16.2643157 81.3359375,14.510427 81.3359375,12.453125 L81.3359375,12.3828125 Z M95.328125,5.625 L95.328125,13.3359375 C95.328125,14.575527 94.9257853,15.5234342 94.1210938,16.1796875 C93.3164022,16.8359408 92.2656315,17.1640625 90.96875,17.1640625 C89.7187438,17.1640625 88.704431,16.8346387 87.9257812,16.1757812 C87.1471315,15.5169238 86.7578125,14.5703187 86.7578125,13.3359375 L86.7578125,5.625 L88.296875,5.625 L88.296875,13.3359375 C88.296875,14.1953168 88.5416642,14.847654 89.03125,15.2929687 C89.5208358,15.7382835 90.1666627,15.9609375 90.96875,15.9609375 C91.8125042,15.9609375 92.493487,15.7382835 93.0117188,15.2929687 C93.5299505,14.847654 93.7890625,14.1953168 93.7890625,13.3359375 L93.7890625,5.625 L95.328125,5.625 Z M105.546875,6.8359375 L101.890625,6.8359375 L101.890625,17 L100.351562,17 L100.351562,6.8359375 L96.703125,6.8359375 L96.703125,5.625 L105.546875,5.625 L105.546875,6.8359375 Z M115.039062,13.359375 L115.054688,13.40625 C115.075521,14.4739637 114.700525,15.3671839 113.929688,16.0859375 C113.15885,16.8046911 112.140631,17.1640625 110.875,17.1640625 C109.588535,17.1640625 108.540369,16.7083379 107.730469,15.796875 C106.920569,14.8854121 106.515625,13.7291737 106.515625,12.328125 L106.515625,10.3046875 C106.515625,8.90363883 106.920569,7.74609832 107.730469,6.83203125 C108.540369,5.91796418 109.588535,5.4609375 110.875,5.4609375 C112.161465,5.4609375 113.184892,5.80338199 113.945312,6.48828125 C114.705733,7.17318051 115.075521,8.08072352 115.054688,9.2109375 L115.039062,9.2578125 L113.5625,9.2578125 C113.5625,8.46093352 113.328127,7.83073148 112.859375,7.3671875 C112.390623,6.90364352 111.729171,6.671875 110.875,6.671875 C110.015621,6.671875 109.330732,7.0182257 108.820312,7.7109375 C108.309893,8.4036493 108.054688,9.2630157 108.054688,10.2890625 L108.054688,12.328125 C108.054688,13.3645885 108.309893,14.2291632 108.820312,14.921875 C109.330732,15.6145868 110.015621,15.9609375 110.875,15.9609375 C111.729171,15.9609375 112.390623,15.7304711 112.859375,15.2695312 C113.328127,14.8085914 113.5625,14.1718791 113.5625,13.359375 L115.039062,13.359375 Z M121.015625,10.8828125 L124.132812,10.8828125 L124.132812,12.2734375 L121.015625,12.2734375 L121.015625,15.859375 L119.476562,15.859375 L119.476562,12.2734375 L116.335938,12.2734375 L116.335938,10.8828125 L119.476562,10.8828125 L119.476562,7.578125 L121.015625,7.578125 L121.015625,10.8828125 Z M132.929688,12.6640625 C132.929688,14.1171948 132.608076,15.2304649 131.964844,16.0039062 C131.321611,16.7773476 130.44011,17.1640625 129.320312,17.1640625 C128.200515,17.1640625 127.315107,16.7760455 126.664062,16 C126.013018,15.2239545 125.6875,14.1119864 125.6875,12.6640625 L125.6875,9.96875 C125.6875,8.52082609 126.011716,7.40755598 126.660156,6.62890625 C127.308597,5.85025652 128.190099,5.4609375 129.304688,5.4609375 C130.424485,5.4609375 131.308591,5.85025652 131.957031,6.62890625 C132.605472,7.40755598 132.929688,8.52082609 132.929688,9.96875 L132.929688,12.6640625 Z M131.390625,9.640625 C131.390625,8.65624508 131.212241,7.91536707 130.855469,7.41796875 C130.498696,6.92057043 129.981774,6.671875 129.304688,6.671875 C128.627601,6.671875 128.111981,6.92057043 127.757812,7.41796875 C127.403644,7.91536707 127.226562,8.65624508 127.226562,9.640625 L127.226562,12.9765625 C127.226562,13.9609424 127.406248,14.7044246 127.765625,15.2070312 C128.125002,15.7096379 128.643226,15.9609375 129.320312,15.9609375 C129.997399,15.9609375 130.511717,15.71094 130.863281,15.2109375 C131.214846,14.710935 131.390625,13.9661508 131.390625,12.9765625 L131.390625,9.640625 Z M141.710938,8.59375 C141.710938,9.18750297 141.544273,9.70702902 141.210938,10.1523438 C140.877602,10.5976585 140.427086,10.9296864 139.859375,11.1484375 C140.515628,11.3776053 141.040363,11.7369767 141.433594,12.2265625 C141.826825,12.7161483 142.023438,13.2812468 142.023438,13.921875 C142.023438,14.9739636 141.680993,15.777341 140.996094,16.3320312 C140.311194,16.8867215 139.42188,17.1640625 138.328125,17.1640625 C137.213536,17.1640625 136.31641,16.8867215 135.636719,16.3320312 C134.957028,15.777341 134.617188,14.9739636 134.617188,13.921875 C134.617188,13.2812468 134.809894,12.7161483 135.195312,12.2265625 C135.580731,11.7369767 136.101559,11.3776053 136.757812,11.1484375 C136.190101,10.9296864 135.744793,10.5976585 135.421875,10.1523438 C135.098957,9.70702902 134.9375,9.18750297 134.9375,8.59375 C134.9375,7.593745 135.246091,6.8216173 135.863281,6.27734375 C136.480472,5.7330702 137.29687,5.4609375 138.3125,5.4609375 C139.312505,5.4609375 140.128903,5.7330702 140.761719,6.27734375 C141.394534,6.8216173 141.710938,7.593745 141.710938,8.59375 Z M140.492188,13.890625 C140.492188,13.2656219 140.28646,12.7526062 139.875,12.3515625 C139.46354,11.9505188 138.942711,11.75 138.3125,11.75 C137.671872,11.75 137.152346,11.9505188 136.753906,12.3515625 C136.355467,12.7526062 136.15625,13.2656219 136.15625,13.890625 C136.15625,14.5364616 136.354165,15.0429669 136.75,15.4101562 C137.145835,15.7773456 137.671872,15.9609375 138.328125,15.9609375 C138.968753,15.9609375 139.489581,15.7760435 139.890625,15.40625 C140.291669,15.0364565 140.492188,14.5312532 140.492188,13.890625 Z M140.171875,8.625 C140.171875,8.06249719 139.996096,7.59635602 139.644531,7.2265625 C139.292967,6.85676898 138.848961,6.671875 138.3125,6.671875 C137.765622,6.671875 137.322918,6.85025863 136.984375,7.20703125 C136.645832,7.56380387 136.476562,8.03645539 136.476562,8.625 C136.476562,9.20312789 136.647134,9.66666492 136.988281,10.015625 C137.329429,10.3645851 137.776039,10.5390625 138.328125,10.5390625 C138.869794,10.5390625 139.312498,10.3645851 139.65625,10.015625 C140.000002,9.66666492 140.171875,9.20312789 140.171875,8.625 Z M145.625,17 L144.085938,17 L144.085938,15.421875 L145.625,15.421875 L145.625,17 Z M145.625,10.15625 L144.085938,10.15625 L144.085938,8.578125 L145.625,8.578125 L145.625,10.15625 Z M154.992188,12.6640625 C154.992188,14.1171948 154.670576,15.2304649 154.027344,16.0039062 C153.384111,16.7773476 152.50261,17.1640625 151.382812,17.1640625 C150.263015,17.1640625 149.377607,16.7760455 148.726562,16 C148.075518,15.2239545 147.75,14.1119864 147.75,12.6640625 L147.75,9.96875 C147.75,8.52082609 148.074216,7.40755598 148.722656,6.62890625 C149.371097,5.85025652 150.252599,5.4609375 151.367188,5.4609375 C152.486985,5.4609375 153.371091,5.85025652 154.019531,6.62890625 C154.667972,7.40755598 154.992188,8.52082609 154.992188,9.96875 L154.992188,12.6640625 Z M153.453125,9.640625 C153.453125,8.65624508 153.274741,7.91536707 152.917969,7.41796875 C152.561196,6.92057043 152.044274,6.671875 151.367188,6.671875 C150.690101,6.671875 150.174481,6.92057043 149.820312,7.41796875 C149.466144,7.91536707 149.289062,8.65624508 149.289062,9.640625 L149.289062,12.9765625 C149.289062,13.9609424 149.468748,14.7044246 149.828125,15.2070312 C150.187502,15.7096379 150.705726,15.9609375 151.382812,15.9609375 C152.059899,15.9609375 152.574217,15.71094 152.925781,15.2109375 C153.277346,14.710935 153.453125,13.9661508 153.453125,12.9765625 L153.453125,9.640625 Z M164.007812,12.6640625 C164.007812,14.1171948 163.686201,15.2304649 163.042969,16.0039062 C162.399736,16.7773476 161.518235,17.1640625 160.398438,17.1640625 C159.27864,17.1640625 158.393232,16.7760455 157.742188,16 C157.091143,15.2239545 156.765625,14.1119864 156.765625,12.6640625 L156.765625,9.96875 C156.765625,8.52082609 157.089841,7.40755598 157.738281,6.62890625 C158.386722,5.85025652 159.268224,5.4609375 160.382812,5.4609375 C161.50261,5.4609375 162.386716,5.85025652 163.035156,6.62890625 C163.683597,7.40755598 164.007812,8.52082609 164.007812,9.96875 L164.007812,12.6640625 Z M162.46875,9.640625 C162.46875,8.65624508 162.290366,7.91536707 161.933594,7.41796875 C161.576821,6.92057043 161.059899,6.671875 160.382812,6.671875 C159.705726,6.671875 159.190106,6.92057043 158.835938,7.41796875 C158.481769,7.91536707 158.304688,8.65624508 158.304688,9.640625 L158.304688,12.9765625 C158.304688,13.9609424 158.484373,14.7044246 158.84375,15.2070312 C159.203127,15.7096379 159.721351,15.9609375 160.398438,15.9609375 C161.075524,15.9609375 161.589842,15.71094 161.941406,15.2109375 C162.292971,14.710935 162.46875,13.9661508 162.46875,12.9765625 L162.46875,9.640625 Z M169.140625,12.453125 C169.140625,14.510427 168.725265,16.2643157 167.894531,17.7148438 C167.063798,19.1653718 166.195317,20.1328101 165.289062,20.6171875 L165.242188,20.6171875 L164.945312,19.7734375 C165.648441,19.2265598 166.266924,18.3268292 166.800781,17.0742188 C167.334638,15.8216083 167.601562,14.2864674 167.601562,12.46875 L167.601562,12.3671875 C167.601562,10.5859286 167.326826,9.06641254 166.777344,7.80859375 C166.227862,6.55077496 165.617191,5.63541953 164.945312,5.0625 L165.242188,4.21875 L165.289062,4.21875 C166.195317,4.70312742 167.063798,5.67186773 167.894531,7.125 C168.725265,8.57813227 169.140625,10.3307189 169.140625,12.3828125 L169.140625,12.453125 Z"></path>
                    </g>
                    <g transform="translate(0.000000, 24.000000)">
                        <path d="M8.125,12.6640625 C8.125,14.1171948 7.80338863,15.2304649 7.16015625,16.0039062 C6.51692387,16.7773476 5.63542227,17.1640625 4.515625,17.1640625 C3.39582773,17.1640625 2.51041992,16.7760455 1.859375,16 C1.20833008,15.2239545 0.8828125,14.1119864 0.8828125,12.6640625 L0.8828125,9.96875 C0.8828125,8.52082609 1.20702801,7.40755598 1.85546875,6.62890625 C2.50390949,5.85025652 3.38541109,5.4609375 4.5,5.4609375 C5.61979727,5.4609375 6.50390301,5.85025652 7.15234375,6.62890625 C7.80078449,7.40755598 8.125,8.52082609 8.125,9.96875 L8.125,12.6640625 Z M6.5859375,9.640625 C6.5859375,8.65624508 6.40755387,7.91536707 6.05078125,7.41796875 C5.69400863,6.92057043 5.17708672,6.671875 4.5,6.671875 C3.82291328,6.671875 3.30729344,6.92057043 2.953125,7.41796875 C2.59895656,7.91536707 2.421875,8.65624508 2.421875,9.640625 L2.421875,12.9765625 C2.421875,13.9609424 2.6015607,14.7044246 2.9609375,15.2070312 C3.3203143,15.7096379 3.83853828,15.9609375 4.515625,15.9609375 C5.19271172,15.9609375 5.70702949,15.71094 6.05859375,15.2109375 C6.41015801,14.710935 6.5859375,13.9661508 6.5859375,12.9765625 L6.5859375,9.640625 Z M14.3359375,17 L12.796875,17 L12.796875,7.125 L10.46875,7.15625 L10.46875,6.046875 L14.3359375,5.625 L14.3359375,17 Z M24.796875,17 L23.2578125,17 L23.2578125,15.421875 L24.796875,15.421875 L24.796875,17 Z M24.796875,10.15625 L23.2578125,10.15625 L23.2578125,8.578125 L24.796875,8.578125 L24.796875,10.15625 Z M38.140625,12.6640625 C38.140625,14.1171948 37.8190136,15.2304649 37.1757812,16.0039062 C36.5325489,16.7773476 35.6510473,17.1640625 34.53125,17.1640625 C33.4114527,17.1640625 32.5260449,16.7760455 31.875,16 C31.2239551,15.2239545 30.8984375,14.1119864 30.8984375,12.6640625 L30.8984375,9.96875 C30.8984375,8.52082609 31.222653,7.40755598 31.8710938,6.62890625 C32.5195345,5.85025652 33.4010361,5.4609375 34.515625,5.4609375 C35.6354223,5.4609375 36.519528,5.85025652 37.1679688,6.62890625 C37.8164095,7.40755598 38.140625,8.52082609 38.140625,9.96875 L38.140625,12.6640625 Z M36.6015625,9.640625 C36.6015625,8.65624508 36.4231789,7.91536707 36.0664062,7.41796875 C35.7096336,6.92057043 35.1927117,6.671875 34.515625,6.671875 C33.8385383,6.671875 33.3229184,6.92057043 32.96875,7.41796875 C32.6145816,7.91536707 32.4375,8.65624508 32.4375,9.640625 L32.4375,12.9765625 C32.4375,13.9609424 32.6171857,14.7044246 32.9765625,15.2070312 C33.3359393,15.7096379 33.8541633,15.9609375 34.53125,15.9609375 C35.2083367,15.9609375 35.7226545,15.71094 36.0742188,15.2109375 C36.425783,14.710935 36.6015625,13.9661508 36.6015625,12.9765625 L36.6015625,9.640625 Z M47.15625,12.6640625 C47.15625,14.1171948 46.8346386,15.2304649 46.1914062,16.0039062 C45.5481739,16.7773476 44.6666723,17.1640625 43.546875,17.1640625 C42.4270777,17.1640625 41.5416699,16.7760455 40.890625,16 C40.2395801,15.2239545 39.9140625,14.1119864 39.9140625,12.6640625 L39.9140625,9.96875 C39.9140625,8.52082609 40.238278,7.40755598 40.8867188,6.62890625 C41.5351595,5.85025652 42.4166611,5.4609375 43.53125,5.4609375 C44.6510473,5.4609375 45.535153,5.85025652 46.1835938,6.62890625 C46.8320345,7.40755598 47.15625,8.52082609 47.15625,9.96875 L47.15625,12.6640625 Z M45.6171875,9.640625 C45.6171875,8.65624508 45.4388039,7.91536707 45.0820312,7.41796875 C44.7252586,6.92057043 44.2083367,6.671875 43.53125,6.671875 C42.8541633,6.671875 42.3385434,6.92057043 41.984375,7.41796875 C41.6302066,7.91536707 41.453125,8.65624508 41.453125,9.640625 L41.453125,12.9765625 C41.453125,13.9609424 41.6328107,14.7044246 41.9921875,15.2070312 C42.3515643,15.7096379 42.8697883,15.9609375 43.546875,15.9609375 C44.2239617,15.9609375 44.7382795,15.71094 45.0898438,15.2109375 C45.441408,14.710935 45.6171875,13.9661508 45.6171875,12.9765625 L45.6171875,9.640625 Z M54.96875,12.4375 L54.96875,17 L53.4296875,17 L53.4296875,5.625 L57.78125,5.625 C58.9947977,5.625 59.9374966,5.93749688 60.609375,6.5625 C61.2812534,7.18750312 61.6171875,8.01041156 61.6171875,9.03125 C61.6171875,10.0677135 61.2812534,10.8945282 60.609375,11.5117188 C59.9374966,12.1289093 58.9947977,12.4375 57.78125,12.4375 L54.96875,12.4375 Z M54.96875,11.234375 L57.78125,11.234375 C58.5520872,11.234375 59.1276023,11.0273458 59.5078125,10.6132812 C59.8880227,10.1992167 60.078125,9.67708648 60.078125,9.046875 C60.078125,8.41666352 59.8867207,7.89062711 59.5039062,7.46875 C59.1210918,7.04687289 58.5468788,6.8359375 57.78125,6.8359375 L54.96875,6.8359375 L54.96875,11.234375 Z M65.6484375,5.625 L69.2734375,14.8671875 L69.3203125,14.8671875 L72.9453125,5.625 L74.9140625,5.625 L74.9140625,17 L73.375,17 L73.375,12.5 L73.53125,7.875 L73.4921875,7.8671875 L69.8046875,17 L68.78125,17 L65.109375,7.890625 L65.0703125,7.8984375 L65.21875,12.5 L65.21875,17 L63.6796875,17 L63.6796875,5.625 L65.6484375,5.625 Z M81.3359375,12.3828125 C81.3359375,10.3307189 81.7499959,8.57813227 82.578125,7.125 C83.4062541,5.67186773 84.2760371,4.70312742 85.1875,4.21875 L85.234375,4.2265625 L85.53125,5.1328125 C84.8177048,5.69010695 84.1966172,6.58332719 83.6679688,7.8125 C83.1393203,9.04167281 82.875,10.5598868 82.875,12.3671875 L82.875,12.46875 C82.875,14.2760507 83.1380182,15.7942647 83.6640625,17.0234375 C84.1901068,18.2526103 84.8124964,19.1692678 85.53125,19.7734375 L85.234375,20.6171875 L85.1875,20.6171875 C84.2760371,20.1328101 83.4062541,19.1653718 82.578125,17.7148438 C81.7499959,16.2643157 81.3359375,14.510427 81.3359375,12.453125 L81.3359375,12.3828125 Z M95.328125,5.625 L95.328125,13.3359375 C95.328125,14.575527 94.9257853,15.5234342 94.1210938,16.1796875 C93.3164022,16.8359408 92.2656315,17.1640625 90.96875,17.1640625 C89.7187438,17.1640625 88.704431,16.8346387 87.9257812,16.1757812 C87.1471315,15.5169238 86.7578125,14.5703187 86.7578125,13.3359375 L86.7578125,5.625 L88.296875,5.625 L88.296875,13.3359375 C88.296875,14.1953168 88.5416642,14.847654 89.03125,15.2929687 C89.5208358,15.7382835 90.1666627,15.9609375 90.96875,15.9609375 C91.8125042,15.9609375 92.493487,15.7382835 93.0117188,15.2929687 C93.5299505,14.847654 93.7890625,14.1953168 93.7890625,13.3359375 L93.7890625,5.625 L95.328125,5.625 Z M105.546875,6.8359375 L101.890625,6.8359375 L101.890625,17 L100.351562,17 L100.351562,6.8359375 L96.703125,6.8359375 L96.703125,5.625 L105.546875,5.625 L105.546875,6.8359375 Z M115.039062,13.359375 L115.054688,13.40625 C115.075521,14.4739637 114.700525,15.3671839 113.929688,16.0859375 C113.15885,16.8046911 112.140631,17.1640625 110.875,17.1640625 C109.588535,17.1640625 108.540369,16.7083379 107.730469,15.796875 C106.920569,14.8854121 106.515625,13.7291737 106.515625,12.328125 L106.515625,10.3046875 C106.515625,8.90363883 106.920569,7.74609832 107.730469,6.83203125 C108.540369,5.91796418 109.588535,5.4609375 110.875,5.4609375 C112.161465,5.4609375 113.184892,5.80338199 113.945312,6.48828125 C114.705733,7.17318051 115.075521,8.08072352 115.054688,9.2109375 L115.039062,9.2578125 L113.5625,9.2578125 C113.5625,8.46093352 113.328127,7.83073148 112.859375,7.3671875 C112.390623,6.90364352 111.729171,6.671875 110.875,6.671875 C110.015621,6.671875 109.330732,7.0182257 108.820312,7.7109375 C108.309893,8.4036493 108.054688,9.2630157 108.054688,10.2890625 L108.054688,12.328125 C108.054688,13.3645885 108.309893,14.2291632 108.820312,14.921875 C109.330732,15.6145868 110.015621,15.9609375 110.875,15.9609375 C111.729171,15.9609375 112.390623,15.7304711 112.859375,15.2695312 C113.328127,14.8085914 113.5625,14.1718791 113.5625,13.359375 L115.039062,13.359375 Z M121.015625,10.8828125 L124.132812,10.8828125 L124.132812,12.2734375 L121.015625,12.2734375 L121.015625,15.859375 L119.476562,15.859375 L119.476562,12.2734375 L116.335938,12.2734375 L116.335938,10.8828125 L119.476562,10.8828125 L119.476562,7.578125 L121.015625,7.578125 L121.015625,10.8828125 Z M132.929688,12.6640625 C132.929688,14.1171948 132.608076,15.2304649 131.964844,16.0039062 C131.321611,16.7773476 130.44011,17.1640625 129.320312,17.1640625 C128.200515,17.1640625 127.315107,16.7760455 126.664062,16 C126.013018,15.2239545 125.6875,14.1119864 125.6875,12.6640625 L125.6875,9.96875 C125.6875,8.52082609 126.011716,7.40755598 126.660156,6.62890625 C127.308597,5.85025652 128.190099,5.4609375 129.304688,5.4609375 C130.424485,5.4609375 131.308591,5.85025652 131.957031,6.62890625 C132.605472,7.40755598 132.929688,8.52082609 132.929688,9.96875 L132.929688,12.6640625 Z M131.390625,9.640625 C131.390625,8.65624508 131.212241,7.91536707 130.855469,7.41796875 C130.498696,6.92057043 129.981774,6.671875 129.304688,6.671875 C128.627601,6.671875 128.111981,6.92057043 127.757812,7.41796875 C127.403644,7.91536707 127.226562,8.65624508 127.226562,9.640625 L127.226562,12.9765625 C127.226562,13.9609424 127.406248,14.7044246 127.765625,15.2070312 C128.125002,15.7096379 128.643226,15.9609375 129.320312,15.9609375 C129.997399,15.9609375 130.511717,15.71094 130.863281,15.2109375 C131.214846,14.710935 131.390625,13.9661508 131.390625,12.9765625 L131.390625,9.640625 Z M139.09375,5.4609375 C139.484377,5.4609375 139.871092,5.50520789 140.253906,5.59375 C140.636721,5.68229211 140.953124,5.79427016 141.203125,5.9296875 L140.875,7.109375 C140.61979,6.97916602 140.352866,6.87369832 140.074219,6.79296875 C139.795572,6.71223918 139.468752,6.671875 139.09375,6.671875 C138.281246,6.671875 137.626305,6.99739258 137.128906,7.6484375 C136.631508,8.29948242 136.382812,9.14843227 136.382812,10.1953125 L136.382812,10.375 C136.716148,10.0833319 137.097654,9.85546957 137.527344,9.69140625 C137.957033,9.52734293 138.419268,9.4453125 138.914062,9.4453125 C139.929693,9.4453125 140.73958,9.79687148 141.34375,10.5 C141.94792,11.2031285 142.25,12.0937446 142.25,13.171875 C142.25,14.3489642 141.928389,15.30859 141.285156,16.0507812 C140.641924,16.7929725 139.78386,17.1640625 138.710938,17.1640625 C137.596349,17.1640625 136.674483,16.7604207 135.945312,15.953125 C135.216142,15.1458293 134.851562,14.0078198 134.851562,12.5390625 L134.851562,10.3671875 C134.851562,8.90884687 135.257808,7.72656703 136.070312,6.8203125 C136.882817,5.91405797 137.890619,5.4609375 139.09375,5.4609375 Z M138.570312,10.59375 C138.044268,10.59375 137.596356,10.7005198 137.226562,10.9140625 C136.856769,11.1276052 136.575522,11.4114566 136.382812,11.765625 L136.382812,12.6875 C136.382812,13.7343802 136.604164,14.5416638 137.046875,15.109375 C137.489586,15.6770862 138.044267,15.9609375 138.710938,15.9609375 C139.341149,15.9609375 139.832029,15.6940131 140.183594,15.1601562 C140.535158,14.6262994 140.710938,13.9635456 140.710938,13.171875 C140.710938,12.4218712 140.522137,11.8046899 140.144531,11.3203125 C139.766925,10.8359351 139.242191,10.59375 138.570312,10.59375 Z M145.625,17 L144.085938,17 L144.085938,15.421875 L145.625,15.421875 L145.625,17 Z M145.625,10.15625 L144.085938,10.15625 L144.085938,8.578125 L145.625,8.578125 L145.625,10.15625 Z M154.992188,12.6640625 C154.992188,14.1171948 154.670576,15.2304649 154.027344,16.0039062 C153.384111,16.7773476 152.50261,17.1640625 151.382812,17.1640625 C150.263015,17.1640625 149.377607,16.7760455 148.726562,16 C148.075518,15.2239545 147.75,14.1119864 147.75,12.6640625 L147.75,9.96875 C147.75,8.52082609 148.074216,7.40755598 148.722656,6.62890625 C149.371097,5.85025652 150.252599,5.4609375 151.367188,5.4609375 C152.486985,5.4609375 153.371091,5.85025652 154.019531,6.62890625 C154.667972,7.40755598 154.992188,8.52082609 154.992188,9.96875 L154.992188,12.6640625 Z M153.453125,9.640625 C153.453125,8.65624508 153.274741,7.91536707 152.917969,7.41796875 C152.561196,6.92057043 152.044274,6.671875 151.367188,6.671875 C150.690101,6.671875 150.174481,6.92057043 149.820312,7.41796875 C149.466144,7.91536707 149.289062,8.65624508 149.289062,9.640625 L149.289062,12.9765625 C149.289062,13.9609424 149.468748,14.7044246 149.828125,15.2070312 C150.187502,15.7096379 150.705726,15.9609375 151.382812,15.9609375 C152.059899,15.9609375 152.574217,15.71094 152.925781,15.2109375 C153.277346,14.710935 153.453125,13.9661508 153.453125,12.9765625 L153.453125,9.640625 Z M164.007812,12.6640625 C164.007812,14.1171948 163.686201,15.2304649 163.042969,16.0039062 C162.399736,16.7773476 161.518235,17.1640625 160.398438,17.1640625 C159.27864,17.1640625 158.393232,16.7760455 157.742188,16 C157.091143,15.2239545 156.765625,14.1119864 156.765625,12.6640625 L156.765625,9.96875 C156.765625,8.52082609 157.089841,7.40755598 157.738281,6.62890625 C158.386722,5.85025652 159.268224,5.4609375 160.382812,5.4609375 C161.50261,5.4609375 162.386716,5.85025652 163.035156,6.62890625 C163.683597,7.40755598 164.007812,8.52082609 164.007812,9.96875 L164.007812,12.6640625 Z M162.46875,9.640625 C162.46875,8.65624508 162.290366,7.91536707 161.933594,7.41796875 C161.576821,6.92057043 161.059899,6.671875 160.382812,6.671875 C159.705726,6.671875 159.190106,6.92057043 158.835938,7.41796875 C158.481769,7.91536707 158.304688,8.65624508 158.304688,9.640625 L158.304688,12.9765625 C158.304688,13.9609424 158.484373,14.7044246 158.84375,15.2070312 C159.203127,15.7096379 159.721351,15.9609375 160.398438,15.9609375 C161.075524,15.9609375 161.589842,15.71094 161.941406,15.2109375 C162.292971,14.710935 162.46875,13.9661508 162.46875,12.9765625 L162.46875,9.640625 Z M169.140625,12.453125 C169.140625,14.510427 168.725265,16.2643157 167.894531,17.7148438 C167.063798,19.1653718 166.195317,20.1328101 165.289062,20.6171875 L165.242188,20.6171875 L164.945312,19.7734375 C165.648441,19.2265598 166.266924,18.3268292 166.800781,17.0742188 C167.334638,15.8216083 167.601562,14.2864674 167.601562,12.46875 L167.601562,12.3671875 C167.601562,10.5859286 167.326826,9.06641254 166.777344,7.80859375 C166.227862,6.55077496 165.617191,5.63541953 164.945312,5.0625 L165.242188,4.21875 L165.289062,4.21875 C166.195317,4.70312742 167.063798,5.67186773 167.894531,7.125 C168.725265,8.57813227 169.140625,10.3307189 169.140625,12.3828125 L169.140625,12.453125 Z"></path>
                    </g>
                </g>
            </g>
        </g>
    </g>
</svg>