<?xml version="1.0" encoding="UTF-8" standalone="no"?>
<svg width="467px" height="185px" viewBox="0 0 467 185" version="1.1" xmlns="http://www.w3.org/2000/svg" xmlns:xlink="http://www.w3.org/1999/xlink">
    <!-- Generator: Sketch 46.2 (44496) - http://www.bohemiancoding.com/sketch -->
    <title>Artboard</title>
    <desc>Created with Sketch.</desc>
    <defs>
        <path d="M10,2.13162821e-14 L216.192383,2.13162821e-14 L216.192383,2.30926389e-14 C217.296952,5.42834862e-14 218.192383,0.8954305 218.192383,2 L218.192383,57.9790039 L218.192383,57.9790039 C218.192383,59.0835734 217.296952,59.9790039 216.192383,59.9790039 L10,59.9790039 L10,59.9790039 C8.8954305,59.9790039 8,59.0835734 8,57.9790039 L8,28.2348633 L0.998901367,20 L8,12 L8,2 L8,2 C8,0.8954305 8.8954305,2.15191882e-14 10,2.13162821e-14 Z" id="path-1"></path>
        <path d="M2,7 L40,7 L48,0 L55.9609375,7 L67,7 L67,7 C68.1045695,7 69,7.8954305 69,9 L69,43 L69,43 C69,44.1045695 68.1045695,45 67,45 L2,45 L2,45 C0.8954305,45 -1.60045965e-14,44.1045695 -1.61398672e-14,43 L-1.71523637e-15,9 L-1.26287869e-15,9 C-4.17094648e-16,7.8954305 0.8954305,7 2,7 Z" id="path-2"></path>
        <filter x="-8.7%" y="-6.7%" width="117.4%" height="126.7%" filterUnits="objectBoundingBox" id="filter-3">
            <feOffset dx="0" dy="3" in="SourceAlpha" result="shadowOffsetOuter1"></feOffset>
            <feGaussianBlur stdDeviation="1.5" in="shadowOffsetOuter1" result="shadowBlurOuter1"></feGaussianBlur>
            <feComposite in="shadowBlurOuter1" in2="SourceAlpha" operator="out" result="shadowBlurOuter1"></feComposite>
            <feColorMatrix values="0 0 0 0 0   0 0 0 0 0   0 0 0 0 0  0 0 0 0.16 0" type="matrix" in="shadowBlurOuter1"></feColorMatrix>
        </filter>
    </defs>
    <g id="Page-1" stroke="none" stroke-width="1" fill="none" fill-rule="evenodd">
        <g id="Artboard">
            <g id="RL-2-lines-padding" transform="translate(223.000000, 61.000000)">
                <g id="RL-2-lines-box">
                    <g id="Rectangle-3">
                        <use fill="#FFFFFF" fill-rule="evenodd" xlink:href="#path-1"></use>
                        <path stroke="#E0E0E0" stroke-width="1" d="M1.65919599,20.0047246 L8.5,28.0510455 L8.5,57.9790039 C8.5,58.807431 9.17157288,59.4790039 10,59.4790039 L216.192383,59.4790039 C217.02081,59.4790039 217.692383,58.807431 217.692383,57.9790039 L217.692383,2 C217.692383,1.17157288 217.02081,0.5 216.192383,0.5 L10,0.5 C9.17157288,0.5 8.5,1.17157288 8.5,2 L8.5,12.1878897 L1.65919599,20.0047246 Z"></path>
                    </g>
                    <path d="M29.0454102,25 L27.3227539,25 L27.3227539,20.5771484 L22.8725586,20.5771484 L22.8725586,25 L21.1430664,25 L21.1430664,15.046875 L22.8725586,15.046875 L22.8725586,19.1894531 L27.3227539,19.1894531 L27.3227539,15.046875 L29.0454102,15.046875 L29.0454102,25 Z M32.8188477,21.3017578 L32.8188477,25 L31.0893555,25 L31.0893555,15.046875 L34.8969727,15.046875 C36.0089574,15.046875 36.8919238,15.3362601 37.5458984,15.9150391 C38.1998731,16.493818 38.5268555,17.2594353 38.5268555,18.2119141 C38.5268555,19.1871794 38.2067089,19.9459608 37.5664062,20.4882812 C36.9261036,21.0306017 36.0294654,21.3017578 34.8764648,21.3017578 L32.8188477,21.3017578 Z M32.8188477,19.9140625 L34.8969727,19.9140625 C35.5122101,19.9140625 35.9816065,19.7693699 36.3051758,19.4799805 C36.6287451,19.190591 36.7905273,18.7724637 36.7905273,18.2255859 C36.7905273,17.6878228 36.6264665,17.2583024 36.2983398,16.9370117 C35.9702132,16.615721 35.5190458,16.4505209 34.9448242,16.4414062 L32.8188477,16.4414062 L32.8188477,19.9140625 Z M43.5239258,25 L43.5239258,15.046875 L46.4633789,15.046875 C47.3429406,15.046875 48.123369,15.2428366 48.8046875,15.6347656 C49.486006,16.0266947 50.0135072,16.5826787 50.387207,17.3027344 C50.7609068,18.0227901 50.9477539,18.8476516 50.9477539,19.7773438 L50.9477539,20.2763672 C50.9477539,21.2197313 50.7597675,22.0491501 50.3837891,22.7646484 C50.0078106,23.4801468 49.4723342,24.0315736 48.7773438,24.4189453 C48.0823533,24.806317 47.2859745,25 46.3881836,25 L43.5239258,25 Z M45.253418,16.4414062 L45.253418,23.6191406 L46.3813477,23.6191406 C47.2882532,23.6191406 47.9843726,23.3354521 48.4697266,22.7680664 C48.9550806,22.2006808 49.2023112,21.386073 49.2114258,20.3242188 L49.2114258,19.7705078 C49.2114258,18.6904243 48.9767276,17.8655627 48.5073242,17.2958984 C48.0379208,16.7262341 47.3566125,16.4414062 46.4633789,16.4414062 L45.253418,16.4414062 Z M54.3999023,23.6191406 L58.918457,23.6191406 L58.918457,25 L52.6704102,25 L52.6704102,15.046875 L54.3999023,15.046875 L54.3999023,23.6191406 Z M65.3852539,19.2646484 L66.3969727,19.2646484 C66.9073919,19.2600911 67.3118475,19.127931 67.6103516,18.8681641 C67.9088557,18.6083971 68.0581055,18.2324243 68.0581055,17.7402344 C68.0581055,17.2662737 67.9339205,16.898276 67.6855469,16.6362305 C67.4371732,16.3741849 67.0577825,16.2431641 66.5473633,16.2431641 C66.1007465,16.2431641 65.7338882,16.3719063 65.4467773,16.6293945 C65.1596665,16.8868828 65.0161133,17.2229797 65.0161133,17.6376953 L63.3549805,17.6376953 C63.3549805,17.1272761 63.4905585,16.662437 63.7617188,16.2431641 C64.032879,15.8238911 64.4111304,15.4969087 64.8964844,15.262207 C65.3818384,15.0275053 65.92529,14.9101562 66.5268555,14.9101562 C67.52035,14.9101562 68.3007784,15.1596655 68.8681641,15.6586914 C69.4355497,16.1577173 69.7192383,16.8515581 69.7192383,17.7402344 C69.7192383,18.1868512 69.5768243,18.6072571 69.2919922,19.0014648 C69.00716,19.3956725 68.6391624,19.6930329 68.1879883,19.8935547 C68.734866,20.0804046 69.1507147,20.374347 69.4355469,20.7753906 C69.720379,21.1764343 69.862793,21.6549451 69.862793,22.2109375 C69.862793,23.1041711 69.5563182,23.8151015 68.9433594,24.34375 C68.3304006,24.8723985 67.5249073,25.1367188 66.5268555,25.1367188 C65.5698194,25.1367188 64.7859731,24.881513 64.175293,24.3710938 C63.5646128,23.8606745 63.2592773,23.1816449 63.2592773,22.3339844 L64.9204102,22.3339844 C64.9204102,22.7714866 65.0673813,23.1269518 65.3613281,23.4003906 C65.6552749,23.6738295 66.050616,23.8105469 66.5473633,23.8105469 C67.0623398,23.8105469 67.4679347,23.6738295 67.7641602,23.4003906 C68.0603856,23.1269518 68.2084961,22.7304713 68.2084961,22.2109375 C68.2084961,21.6868463 68.0535497,21.2835301 67.7436523,21.0009766 C67.433755,20.7184231 66.9734731,20.5771484 66.362793,20.5771484 L65.3852539,20.5771484 L65.3852539,19.2646484 Z M77.6899414,17.671875 C77.6899414,18.1595076 77.5646171,18.5935853 77.3139648,18.9741211 C77.0633125,19.3546569 76.7215191,19.6542958 76.2885742,19.8730469 C76.8081081,20.1145845 77.2080064,20.4449849 77.4882812,20.8642578 C77.7685561,21.2835307 77.9086914,21.7574843 77.9086914,22.2861328 C77.9086914,23.1611372 77.6124704,23.8549779 77.0200195,24.3676758 C76.4275687,24.8803737 75.6391651,25.1367188 74.6547852,25.1367188 C73.6658479,25.1367188 72.8740264,24.8792343 72.2792969,24.3642578 C71.6845673,23.8492813 71.387207,23.1565799 71.387207,22.2861328 C71.387207,21.752927 71.5284817,21.2744162 71.8110352,20.8505859 C72.0935887,20.4267557 72.4900691,20.1009126 73.0004883,19.8730469 C72.5721007,19.6542958 72.2337252,19.3546569 71.9853516,18.9741211 C71.7369779,18.5935853 71.612793,18.1595076 71.612793,17.671875 C71.612793,16.8242145 71.8862277,16.1520207 72.4331055,15.6552734 C72.9799832,15.1585262 73.7182571,14.9101562 74.6479492,14.9101562 C75.5821987,14.9101562 76.3227512,15.1585262 76.8696289,15.6552734 C77.4165066,16.1520207 77.6899414,16.8242145 77.6899414,17.671875 Z M76.2475586,22.2041016 C76.2475586,21.7119116 76.1005874,21.3142919 75.8066406,21.0112305 C75.5126938,20.7081691 75.1241886,20.5566406 74.6411133,20.5566406 C74.1580379,20.5566406 73.7718113,20.7070297 73.4824219,21.0078125 C73.1930324,21.3085953 73.0483398,21.7073543 73.0483398,22.2041016 C73.0483398,22.6917342 73.1907538,23.0813787 73.4755859,23.3730469 C73.7604181,23.664715 74.1534806,23.8105469 74.6547852,23.8105469 C75.1560897,23.8105469 75.5468736,23.6692722 75.8271484,23.3867188 C76.1074233,23.1041653 76.2475586,22.7099635 76.2475586,22.2041016 Z M76.0356445,17.7333984 C76.0356445,17.3004536 75.9103203,16.9438491 75.659668,16.6635742 C75.4090157,16.3832994 75.0717795,16.2431641 74.6479492,16.2431641 C74.224119,16.2431641 73.8891614,16.3764635 73.6430664,16.6430664 C73.3969714,16.9096693 73.2739258,17.2731097 73.2739258,17.7333984 C73.2739258,18.1891299 73.3981107,18.5514309 73.6464844,18.8203125 C73.894858,19.0891941 74.2309549,19.2236328 74.6547852,19.2236328 C75.0786154,19.2236328 75.4147123,19.0891941 75.6630859,18.8203125 C75.9114596,18.5514309 76.0356445,18.1891299 76.0356445,17.7333984 Z M79.8227539,20.0644531 L80.362793,15.046875 L85.7084961,15.046875 L85.7084961,16.4824219 L81.7436523,16.4824219 L81.4702148,18.8613281 C81.9305036,18.5970039 82.4500297,18.4648438 83.0288086,18.4648438 C83.97673,18.4648438 84.7138646,18.7679006 85.2402344,19.3740234 C85.7666042,19.9801463 86.0297852,20.7958933 86.0297852,21.8212891 C86.0297852,22.8330129 85.7381214,23.6385061 85.1547852,24.237793 C84.5714489,24.8370798 83.7716522,25.1367188 82.7553711,25.1367188 C81.8439082,25.1367188 81.0885447,24.878095 80.4892578,24.3608398 C79.889971,23.8435847 79.5652672,23.1611371 79.5151367,22.3134766 L81.121582,22.3134766 C81.1853844,22.7965519 81.3585598,23.1668281 81.6411133,23.4243164 C81.9236668,23.6818047 82.2928037,23.8105469 82.7485352,23.8105469 C83.2589544,23.8105469 83.6565741,23.628257 83.9414062,23.2636719 C84.2262384,22.8990867 84.3686523,22.4023469 84.3686523,21.7734375 C84.3686523,21.1673147 84.2114274,20.6876645 83.8969727,20.3344727 C83.582518,19.9812808 83.1495796,19.8046875 82.5981445,19.8046875 C82.2973618,19.8046875 82.042156,19.8445634 81.8325195,19.9243164 C81.6228831,20.0040694 81.3950208,20.1601551 81.1489258,20.3925781 L79.8227539,20.0644531 Z M98.7172852,23.7080078 C98.3572573,24.1774112 97.8582389,24.5328764 97.2202148,24.7744141 C96.5821908,25.0159517 95.8575887,25.1367188 95.0463867,25.1367188 C94.2123982,25.1367188 93.4741243,24.947593 92.831543,24.5693359 C92.1889616,24.1910788 91.6933611,23.6499059 91.3447266,22.9458008 C90.996092,22.2416957 90.8149415,21.4202521 90.8012695,20.4814453 L90.8012695,19.7021484 C90.8012695,18.1982347 91.161292,17.0236045 91.8813477,16.1782227 C92.6014033,15.3328408 93.6062761,14.9101562 94.8959961,14.9101562 C96.0034235,14.9101562 96.882972,15.183591 97.534668,15.7304688 C98.1863639,16.2773465 98.5782871,17.0657501 98.7104492,18.0957031 L97.0151367,18.0957031 C96.8237295,16.8971294 96.1287495,16.2978516 94.9301758,16.2978516 C94.1554323,16.2978516 93.5664083,16.5769829 93.1630859,17.1352539 C92.7597636,17.6935249 92.5512696,18.5126899 92.5375977,19.5927734 L92.5375977,20.3583984 C92.5375977,21.4339246 92.7643206,22.26904 93.2177734,22.8637695 C93.6712262,23.4584991 94.3012655,23.7558594 95.1079102,23.7558594 C95.9920292,23.7558594 96.6209291,23.5553405 96.9946289,23.1542969 L96.9946289,21.2060547 L94.9438477,21.2060547 L94.9438477,19.8935547 L98.7172852,19.8935547 L98.7172852,23.7080078 Z M107.043457,25 L100.351074,25 L100.351074,23.8583984 L103.666504,20.2421875 C104.145022,19.7089817 104.485676,19.2635109 104.688477,18.9057617 C104.891277,18.5480125 104.992676,18.1891294 104.992676,17.8291016 C104.992676,17.3551409 104.859376,16.9723322 104.592773,16.6806641 C104.326171,16.3889959 103.967287,16.2431641 103.516113,16.2431641 C102.97835,16.2431641 102.561362,16.4072249 102.265137,16.7353516 C101.968911,17.0634782 101.820801,17.5123669 101.820801,18.0820312 L100.159668,18.0820312 C100.159668,17.4759084 100.297525,16.9301782 100.573242,16.4448242 C100.84896,15.9594702 101.243161,15.5823581 101.755859,15.3134766 C102.268557,15.044595 102.85986,14.9101562 103.529785,14.9101562 C104.495936,14.9101562 105.258135,15.1528296 105.816406,15.6381836 C106.374677,16.1235376 106.653809,16.7945921 106.653809,17.6513672 C106.653809,18.1481145 106.513673,18.6687798 106.233398,19.2133789 C105.953124,19.757978 105.493981,20.3766241 104.855957,21.0693359 L102.422363,23.6738281 L107.043457,23.6738281 L107.043457,25 Z M119.963379,25 L118.240723,25 L118.240723,20.5771484 L113.790527,20.5771484 L113.790527,25 L112.061035,25 L112.061035,15.046875 L113.790527,15.046875 L113.790527,19.1894531 L118.240723,19.1894531 L118.240723,15.046875 L119.963379,15.046875 L119.963379,25 Z M124.434082,22.6210938 L125.937988,17.6035156 L127.708496,17.6035156 L124.769043,26.1210938 C124.317869,27.3652406 123.552251,27.9873047 122.472168,27.9873047 C122.23063,27.9873047 121.964031,27.9462895 121.672363,27.8642578 L121.672363,26.5791016 L121.986816,26.5996094 C122.406089,26.5996094 122.721679,26.5232755 122.933594,26.3706055 C123.145509,26.2179354 123.312988,25.9615903 123.436035,25.6015625 L123.675293,24.9658203 L121.077637,17.6035156 L122.868652,17.6035156 L124.434082,22.6210938 Z M135.13916,21.3769531 C135.13916,22.5208391 134.879397,23.4334276 134.359863,24.1147461 C133.840329,24.7960646 133.143071,25.1367188 132.268066,25.1367188 C131.456864,25.1367188 130.807457,24.8701199 130.319824,24.3369141 L130.319824,27.84375 L128.658691,27.84375 L128.658691,17.6035156 L130.189941,17.6035156 L130.258301,18.3554688 C130.745933,17.7630179 131.409013,17.4667969 132.247559,17.4667969 C133.149907,17.4667969 133.857419,17.8028938 134.370117,18.4750977 C134.882815,19.1473015 135.13916,20.0803977 135.13916,21.2744141 L135.13916,21.3769531 Z M133.484863,21.2333984 C133.484863,20.4951135 133.337892,19.9095074 133.043945,19.4765625 C132.749999,19.0436176 132.329593,18.8271484 131.782715,18.8271484 C131.103675,18.8271484 130.61605,19.1074191 130.319824,19.6679688 L130.319824,22.9492188 C130.620607,23.5234404 131.11279,23.8105469 131.796387,23.8105469 C132.325035,23.8105469 132.738605,23.5974956 133.037109,23.1713867 C133.335613,22.7452778 133.484863,22.0992882 133.484863,21.2333984 Z M139.80127,25.1367188 C138.74853,25.1367188 137.895186,24.8051791 137.241211,24.1420898 C136.587236,23.4790006 136.260254,22.5960342 136.260254,21.4931641 L136.260254,21.2880859 C136.260254,20.549801 136.402668,19.8901396 136.6875,19.309082 C136.972332,18.7280244 137.37223,18.2757178 137.887207,17.9521484 C138.402184,17.6285791 138.976397,17.4667969 139.609863,17.4667969 C140.61703,17.4667969 141.39518,17.7880827 141.944336,18.4306641 C142.493492,19.0732454 142.768066,19.982416 142.768066,21.1582031 L142.768066,21.828125 L137.935059,21.828125 C137.985189,22.4388051 138.189126,22.9218732 138.546875,23.2773438 C138.904624,23.6328143 139.354652,23.8105469 139.896973,23.8105469 C140.658044,23.8105469 141.27783,23.5029328 141.756348,22.8876953 L142.651855,23.7421875 C142.35563,24.184247 141.960289,24.5271798 141.46582,24.7709961 C140.971352,25.0148124 140.416507,25.1367188 139.80127,25.1367188 Z M139.603027,18.7998047 C139.147296,18.7998047 138.779298,18.9593083 138.499023,19.2783203 C138.218749,19.5973323 138.039877,20.0416638 137.962402,20.6113281 L141.127441,20.6113281 L141.127441,20.4882812 C141.090983,19.9322889 140.942872,19.5118829 140.683105,19.2270508 C140.423339,18.9422186 140.063316,18.7998047 139.603027,18.7998047 Z M147.929199,19.1210938 C147.710448,19.0846352 147.484864,19.0664062 147.252441,19.0664062 C146.49137,19.0664062 145.97868,19.35807 145.714355,19.9414062 L145.714355,25 L144.053223,25 L144.053223,17.6035156 L145.63916,17.6035156 L145.680176,18.4306641 C146.081219,17.7880827 146.637203,17.4667969 147.348145,17.4667969 C147.585125,17.4667969 147.781086,17.4986976 147.936035,17.5625 L147.929199,19.1210938 Z M151.709473,22.8945312 L153.274902,17.6035156 L154.990723,17.6035156 L152.427246,25 L150.984863,25 L148.400879,17.6035156 L150.123535,17.6035156 L151.709473,22.8945312 Z M157.793457,25 L156.132324,25 L156.132324,17.6035156 L157.793457,17.6035156 L157.793457,25 Z M156.029785,15.6826172 C156.029785,15.4274076 156.110676,15.2154956 156.272461,15.046875 C156.434246,14.8782544 156.665526,14.7939453 156.966309,14.7939453 C157.267091,14.7939453 157.499511,14.8782544 157.663574,15.046875 C157.827638,15.2154956 157.909668,15.4274076 157.909668,15.6826172 C157.909668,15.9332695 157.827638,16.1417635 157.663574,16.3081055 C157.499511,16.4744474 157.267091,16.5576172 156.966309,16.5576172 C156.665526,16.5576172 156.434246,16.4744474 156.272461,16.3081055 C156.110676,16.1417635 156.029785,15.9332695 156.029785,15.6826172 Z M163.747559,22.9902344 C163.747559,22.6940089 163.625652,22.4684253 163.381836,22.3134766 C163.13802,22.1585279 162.733564,22.0218105 162.168457,21.9033203 C161.60335,21.7848301 161.131675,21.634441 160.753418,21.4521484 C159.923987,21.0511048 159.509277,20.4700559 159.509277,19.7089844 C159.509277,19.0709604 159.778155,18.5377626 160.315918,18.109375 C160.853681,17.6809874 161.537268,17.4667969 162.366699,17.4667969 C163.250818,17.4667969 163.965167,17.6855447 164.509766,18.1230469 C165.054365,18.5605491 165.32666,19.1279262 165.32666,19.8251953 L163.665527,19.8251953 C163.665527,19.5061833 163.547039,19.2407237 163.310059,19.0288086 C163.073078,18.8168935 162.758628,18.7109375 162.366699,18.7109375 C162.002114,18.7109375 161.704754,18.7952466 161.474609,18.9638672 C161.244465,19.1324878 161.129395,19.3580715 161.129395,19.640625 C161.129395,19.8958346 161.23649,20.0940748 161.450684,20.2353516 C161.664877,20.3766283 162.097816,20.5190423 162.749512,20.6625977 C163.401208,20.8061531 163.912759,20.9770498 164.28418,21.175293 C164.655601,21.3735361 164.931314,21.6116523 165.111328,21.8896484 C165.291342,22.1676446 165.381348,22.5048808 165.381348,22.9013672 C165.381348,23.5667351 165.105634,24.1056294 164.554199,24.5180664 C164.002764,24.9305034 163.280441,25.1367188 162.387207,25.1367188 C161.781084,25.1367188 161.241051,25.0273448 160.76709,24.8085938 C160.293129,24.5898427 159.923992,24.2890644 159.659668,23.90625 C159.395344,23.5234356 159.263184,23.1110048 159.263184,22.6689453 L160.876465,22.6689453 C160.899251,23.0608744 161.047362,23.3627919 161.320801,23.574707 C161.59424,23.7866222 161.956541,23.8925781 162.407715,23.8925781 C162.845217,23.8925781 163.177896,23.8094084 163.405762,23.6430664 C163.633627,23.4767244 163.747559,23.2591159 163.747559,22.9902344 Z M166.516113,21.2333984 C166.516113,20.5087854 166.659667,19.8559599 166.946777,19.2749023 C167.233888,18.6938448 167.637204,18.2472346 168.156738,17.9350586 C168.676272,17.6228826 169.273271,17.4667969 169.947754,17.4667969 C170.945806,17.4667969 171.755856,17.7880827 172.37793,18.4306641 C173.000003,19.0732454 173.3361,19.9254504 173.38623,20.9873047 L173.393066,21.3769531 C173.393066,22.1061234 173.252931,22.7578096 172.972656,23.3320312 C172.692381,23.9062529 172.291344,24.3505844 171.769531,24.6650391 C171.247719,24.9794938 170.645023,25.1367188 169.961426,25.1367188 C168.917801,25.1367188 168.082685,24.7892287 167.456055,24.0942383 C166.829424,23.3992478 166.516113,22.4729876 166.516113,21.3154297 L166.516113,21.2333984 Z M168.177246,21.3769531 C168.177246,22.1380246 168.334471,22.7338846 168.648926,23.1645508 C168.96338,23.595217 169.400876,23.8105469 169.961426,23.8105469 C170.521975,23.8105469 170.958332,23.5917991 171.270508,23.1542969 C171.582684,22.7167947 171.73877,22.0765016 171.73877,21.2333984 C171.73877,20.4859989 171.578127,19.8935569 171.256836,19.4560547 C170.935545,19.0185525 170.499189,18.7998047 169.947754,18.7998047 C169.405433,18.7998047 168.974774,19.0151346 168.655762,19.4458008 C168.33675,19.876467 168.177246,20.520178 168.177246,21.3769531 Z M178.67041,19.1210938 C178.451659,19.0846352 178.226075,19.0664062 177.993652,19.0664062 C177.232581,19.0664062 176.719891,19.35807 176.455566,19.9414062 L176.455566,25 L174.794434,25 L174.794434,17.6035156 L176.380371,17.6035156 L176.421387,18.4306641 C176.82243,17.7880827 177.378414,17.4667969 178.089355,17.4667969 C178.326336,17.4667969 178.522297,17.4986976 178.677246,17.5625 L178.67041,19.1210938 Z" id="HP-DL-385-G2-Hypervi" fill="#424242"></path>
                    <path d="M22.4135742,42.1035156 L22.4135742,46 L21.1010742,46 L21.1010742,36.046875 L24.7719727,36.046875 C25.8611708,36.046875 26.7145151,36.324867 27.3320312,36.8808594 C27.9495474,37.4368517 28.2583008,38.172847 28.2583008,39.0888672 C28.2583008,40.0550179 27.9563832,40.7989883 27.3525391,41.3208008 C26.7486949,41.8426133 25.8839575,42.1035156 24.7583008,42.1035156 L22.4135742,42.1035156 Z M22.4135742,41.0302734 L24.7719727,41.0302734 C25.4737991,41.0302734 26.0115541,40.8650733 26.3852539,40.534668 C26.7589537,40.2042627 26.9458008,39.7268911 26.9458008,39.1025391 C26.9458008,38.5100882 26.7589537,38.0361346 26.3852539,37.6806641 C26.0115541,37.3251935 25.4988639,37.1406251 24.847168,37.1269531 L22.4135742,37.1269531 L22.4135742,41.0302734 Z M29.3110352,42.2333984 C29.3110352,41.5087854 29.4534491,40.8570992 29.7382812,40.2783203 C30.0231134,39.6995414 30.4195938,39.2529313 30.9277344,38.9384766 C31.4358749,38.6240219 32.0157845,38.4667969 32.6674805,38.4667969 C33.674647,38.4667969 34.4892547,38.8154262 35.1113281,39.5126953 C35.7334015,40.2099644 36.0444336,41.137364 36.0444336,42.2949219 L36.0444336,42.3837891 C36.0444336,43.1038447 35.9065769,43.7498344 35.6308594,44.3217773 C35.3551419,44.8937203 34.9609401,45.3391911 34.4482422,45.6582031 C33.9355443,45.9772151 33.3465203,46.1367188 32.6811523,46.1367188 C31.6785432,46.1367188 30.866214,45.7880894 30.2441406,45.0908203 C29.6220672,44.3935512 29.3110352,43.4707089 29.3110352,42.3222656 L29.3110352,42.2333984 Z M30.5825195,42.3837891 C30.5825195,43.2041057 30.7727846,43.8626277 31.1533203,44.359375 C31.5338561,44.8561223 32.0431283,45.1044922 32.6811523,45.1044922 C33.3237337,45.1044922 33.8341452,44.8527043 34.2124023,44.3491211 C34.5906594,43.8455378 34.7797852,43.140304 34.7797852,42.2333984 C34.7797852,41.4221965 34.5872415,40.7648137 34.2021484,40.2612305 C33.8170554,39.7576472 33.3055045,39.5058594 32.6674805,39.5058594 C32.0431284,39.5058594 31.5395527,39.7542293 31.1567383,40.2509766 C30.7739239,40.7477238 30.5825195,41.4586542 30.5825195,42.3837891 Z M41.2055664,39.7382812 C41.0141592,39.70638 40.8068045,39.6904297 40.5834961,39.6904297 C39.7540649,39.6904297 39.191245,40.0436163 38.8950195,40.75 L38.8950195,46 L37.6303711,46 L37.6303711,38.6035156 L38.8608398,38.6035156 L38.8813477,39.4580078 C39.2960633,38.7971972 39.883948,38.4667969 40.6450195,38.4667969 C40.8911145,38.4667969 41.0779616,38.4986976 41.2055664,38.5625 L41.2055664,39.7382812 Z M44.425293,36.8125 L44.425293,38.6035156 L45.8061523,38.6035156 L45.8061523,39.5810547 L44.425293,39.5810547 L44.425293,44.1679688 C44.425293,44.4641942 44.4868158,44.6863599 44.6098633,44.8344727 C44.7329108,44.9825854 44.9425441,45.0566406 45.2387695,45.0566406 C45.3846036,45.0566406 45.5851224,45.0292971 45.840332,44.9746094 L45.840332,46 C45.5076481,46.0911463 45.1840836,46.1367188 44.8696289,46.1367188 C44.3045219,46.1367188 43.8784194,45.965822 43.5913086,45.6240234 C43.3041978,45.2822249 43.1606445,44.7968781 43.1606445,44.1679688 L43.1606445,39.5810547 L41.8139648,39.5810547 L41.8139648,38.6035156 L43.1606445,38.6035156 L43.1606445,36.8125 L44.425293,36.8125 Z M51.8491211,46 C51.7762041,45.8541659 51.7169599,45.5944029 51.6713867,45.2207031 C51.0834932,45.8313833 50.3816773,46.1367188 49.565918,46.1367188 C48.8367477,46.1367188 48.2386091,45.9305034 47.7714844,45.5180664 C47.3043596,45.1056294 47.0708008,44.5826855 47.0708008,43.9492188 C47.0708008,43.1790326 47.3636038,42.5808941 47.9492188,42.1547852 C48.5348337,41.7286763 49.3585559,41.515625 50.4204102,41.515625 L51.6508789,41.515625 L51.6508789,40.9345703 C51.6508789,40.4925108 51.5187188,40.1404635 51.2543945,39.878418 C50.9900703,39.6163724 50.6004258,39.4853516 50.0854492,39.4853516 C49.6342751,39.4853516 49.2560237,39.5992827 48.9506836,39.8271484 C48.6453435,40.0550142 48.4926758,40.3307275 48.4926758,40.6542969 L47.2211914,40.6542969 C47.2211914,40.2851544 47.3522122,39.9285499 47.6142578,39.5844727 C47.8763034,39.2403954 48.2317686,38.9681 48.6806641,38.7675781 C49.1295595,38.5670563 49.6228814,38.4667969 50.1606445,38.4667969 C51.0128623,38.4667969 51.6804989,38.6798481 52.1635742,39.105957 C52.6466496,39.5320659 52.8972981,40.1188114 52.9155273,40.8662109 L52.9155273,44.2705078 C52.9155273,44.9495477 53.002115,45.4895813 53.175293,45.890625 L53.175293,46 L51.8491211,46 Z M49.7504883,45.0361328 C50.1469746,45.0361328 50.5229474,44.9335948 50.878418,44.7285156 C51.2338885,44.5234365 51.4913729,44.2568376 51.6508789,43.9287109 L51.6508789,42.4111328 L50.659668,42.4111328 C49.1101811,42.4111328 48.3354492,42.8645788 48.3354492,43.7714844 C48.3354492,44.1679707 48.4676094,44.4778635 48.7319336,44.7011719 C48.9962578,44.9244803 49.3357727,45.0361328 49.7504883,45.0361328 Z M56.2719727,46 L55.0073242,46 L55.0073242,35.5 L56.2719727,35.5 L56.2719727,46 Z M68.5629883,37.1269531 L65.3637695,37.1269531 L65.3637695,46 L64.0581055,46 L64.0581055,37.1269531 L60.8657227,37.1269531 L60.8657227,36.046875 L68.5629883,36.046875 L68.5629883,37.1269531 Z M72.9106445,46.1367188 C71.9080354,46.1367188 71.0922883,45.8074577 70.4633789,45.1489258 C69.8344695,44.4903938 69.5200195,43.609706 69.5200195,42.5068359 L69.5200195,42.2744141 C69.5200195,41.5406864 69.6601548,40.8855823 69.9404297,40.309082 C70.2207045,39.7325818 70.6126277,39.2814144 71.1162109,38.9555664 C71.6197942,38.6297184 72.1655244,38.4667969 72.753418,38.4667969 C73.7150113,38.4667969 74.4623997,38.7835255 74.9956055,39.4169922 C75.5288113,40.0504589 75.7954102,40.9573509 75.7954102,42.1376953 L75.7954102,42.6640625 L70.784668,42.6640625 C70.8028972,43.3932328 71.0159485,43.9822569 71.4238281,44.4311523 C71.8317078,44.8800478 72.3500945,45.1044922 72.9790039,45.1044922 C73.4256207,45.1044922 73.8038721,45.0133473 74.1137695,44.8310547 C74.4236669,44.6487621 74.6948231,44.4072281 74.9272461,44.1064453 L75.699707,44.7080078 C75.0799123,45.6604865 74.1502341,46.1367188 72.9106445,46.1367188 Z M72.753418,39.5058594 C72.2429987,39.5058594 71.8146176,39.6915672 71.4682617,40.0629883 C71.1219058,40.4344094 70.9077153,40.9550748 70.8256836,41.625 L74.5307617,41.625 L74.5307617,41.5292969 C74.4943032,40.8867155 74.3211279,40.3888364 74.0112305,40.0356445 C73.7013331,39.6824527 73.2820664,39.5058594 72.753418,39.5058594 Z M81.5649414,44.0380859 C81.5649414,43.6962874 81.4361992,43.4308278 81.1787109,43.2416992 C80.9212227,43.0525707 80.4723339,42.8896491 79.8320312,42.7529297 C79.1917286,42.6162103 78.6835956,42.4521494 78.3076172,42.2607422 C77.9316387,42.069335 77.6536467,41.8414727 77.4736328,41.5771484 C77.2936189,41.3128242 77.2036133,40.9983742 77.2036133,40.6337891 C77.2036133,40.0276662 77.4599584,39.5149761 77.9726562,39.0957031 C78.4853541,38.6764302 79.1404583,38.4667969 79.9379883,38.4667969 C80.7765341,38.4667969 81.4567031,38.6832661 81.9785156,39.1162109 C82.5003281,39.5491558 82.7612305,40.1028612 82.7612305,40.7773438 L81.4897461,40.7773438 C81.4897461,40.4309879 81.3427749,40.1324882 81.0488281,39.8818359 C80.7548813,39.6311836 80.3846051,39.5058594 79.9379883,39.5058594 C79.4776995,39.5058594 79.1176771,39.6061188 78.8579102,39.8066406 C78.5981432,40.0071625 78.4682617,40.2692041 78.4682617,40.5927734 C78.4682617,40.8981135 78.5890287,41.1282544 78.8305664,41.2832031 C79.0721041,41.4381518 79.5084604,41.5862623 80.1396484,41.7275391 C80.7708365,41.8688158 81.2823874,42.0374339 81.6743164,42.2333984 C82.0662454,42.429363 82.3567699,42.6652004 82.5458984,42.940918 C82.735027,43.2166355 82.8295898,43.5527324 82.8295898,43.9492188 C82.8295898,44.6100293 82.5652696,45.1398092 82.0366211,45.5385742 C81.5079726,45.9373392 80.8221071,46.1367188 79.9790039,46.1367188 C79.386553,46.1367188 78.8624697,46.0319021 78.4067383,45.8222656 C77.9510068,45.6126292 77.5944023,45.3198261 77.3369141,44.9438477 C77.0794258,44.5678692 76.9506836,44.161135 76.9506836,43.7236328 L78.215332,43.7236328 C78.2381186,44.1474631 78.407876,44.48356 78.7246094,44.7319336 C79.0413427,44.9803072 79.4594701,45.1044922 79.9790039,45.1044922 C80.4575219,45.1044922 80.8414699,45.0076507 81.1308594,44.8139648 C81.4202488,44.620279 81.5649414,44.3616553 81.5649414,44.0380859 Z M86.1928711,36.8125 L86.1928711,38.6035156 L87.5737305,38.6035156 L87.5737305,39.5810547 L86.1928711,39.5810547 L86.1928711,44.1679688 C86.1928711,44.4641942 86.2543939,44.6863599 86.3774414,44.8344727 C86.5004889,44.9825854 86.7101222,45.0566406 87.0063477,45.0566406 C87.1521817,45.0566406 87.3527005,45.0292971 87.6079102,44.9746094 L87.6079102,46 C87.2752262,46.0911463 86.9516617,46.1367188 86.637207,46.1367188 C86.0721,46.1367188 85.6459975,45.965822 85.3588867,45.6240234 C85.0717759,45.2822249 84.9282227,44.7968781 84.9282227,44.1679688 L84.9282227,39.5810547 L83.581543,39.5810547 L83.581543,38.6035156 L84.9282227,38.6035156 L84.9282227,36.8125 L86.1928711,36.8125 Z M100.035645,42.8417969 C99.912597,43.8945365 99.5240918,44.7068656 98.8701172,45.2788086 C98.2161426,45.8507516 97.3468479,46.1367188 96.262207,46.1367188 C95.0864199,46.1367188 94.1442093,45.7151735 93.4355469,44.8720703 C92.7268845,44.0289671 92.3725586,42.9010487 92.3725586,41.4882812 L92.3725586,40.53125 C92.3725586,39.6061152 92.5377588,38.7926467 92.8681641,38.0908203 C93.1985694,37.3889939 93.6668264,36.8500995 94.2729492,36.4741211 C94.879072,36.0981427 95.5808879,35.9101562 96.378418,35.9101562 C97.4357149,35.9101562 98.2833627,36.2052379 98.9213867,36.7954102 C99.5594107,37.3855824 99.9308263,38.2024687 100.035645,39.2460938 L98.7163086,39.2460938 C98.6023757,38.453121 98.3551451,37.878908 97.9746094,37.5234375 C97.5940736,37.167967 97.0620151,36.9902344 96.378418,36.9902344 C95.5398721,36.9902344 94.8824894,37.3001271 94.40625,37.9199219 C93.9300106,38.5397166 93.6918945,39.4215438 93.6918945,40.5654297 L93.6918945,41.5292969 C93.6918945,42.6093804 93.9174782,43.4684213 94.3686523,44.1064453 C94.8198265,44.7444693 95.4510051,45.0634766 96.262207,45.0634766 C96.9913773,45.0634766 97.5507793,44.8982764 97.9404297,44.5678711 C98.3300801,44.2374658 98.5887038,43.6621135 98.7163086,42.8417969 L100.035645,42.8417969 Z M103.002441,46 L101.737793,46 L101.737793,35.5 L103.002441,35.5 L103.002441,46 Z M109.592285,45.2685547 C109.100095,45.8473336 108.377772,46.1367188 107.425293,46.1367188 C106.636878,46.1367188 106.03646,45.9077171 105.624023,45.449707 C105.211586,44.9916969 105.003092,44.3138066 104.998535,43.4160156 L104.998535,38.6035156 L106.263184,38.6035156 L106.263184,43.3818359 C106.263184,44.5029353 106.718908,45.0634766 107.630371,45.0634766 C108.596522,45.0634766 109.239093,44.7034541 109.558105,43.9833984 L109.558105,38.6035156 L110.822754,38.6035156 L110.822754,46 L109.619629,46 L109.592285,45.2685547 Z M117.050293,44.0380859 C117.050293,43.6962874 116.921551,43.4308278 116.664062,43.2416992 C116.406574,43.0525707 115.957685,42.8896491 115.317383,42.7529297 C114.67708,42.6162103 114.168947,42.4521494 113.792969,42.2607422 C113.41699,42.069335 113.138998,41.8414727 112.958984,41.5771484 C112.77897,41.3128242 112.688965,40.9983742 112.688965,40.6337891 C112.688965,40.0276662 112.94531,39.5149761 113.458008,39.0957031 C113.970706,38.6764302 114.62581,38.4667969 115.42334,38.4667969 C116.261886,38.4667969 116.942055,38.6832661 117.463867,39.1162109 C117.98568,39.5491558 118.246582,40.1028612 118.246582,40.7773438 L116.975098,40.7773438 C116.975098,40.4309879 116.828126,40.1324882 116.53418,39.8818359 C116.240233,39.6311836 115.869957,39.5058594 115.42334,39.5058594 C114.963051,39.5058594 114.603029,39.6061188 114.343262,39.8066406 C114.083495,40.0071625 113.953613,40.2692041 113.953613,40.5927734 C113.953613,40.8981135 114.07438,41.1282544 114.315918,41.2832031 C114.557456,41.4381518 114.993812,41.5862623 115.625,41.7275391 C116.256188,41.8688158 116.767739,42.0374339 117.159668,42.2333984 C117.551597,42.429363 117.842121,42.6652004 118.03125,42.940918 C118.220379,43.2166355 118.314941,43.5527324 118.314941,43.9492188 C118.314941,44.6100293 118.050621,45.1398092 117.521973,45.5385742 C116.993324,45.9373392 116.307459,46.1367188 115.464355,46.1367188 C114.871905,46.1367188 114.347821,46.0319021 113.89209,45.8222656 C113.436358,45.6126292 113.079754,45.3198261 112.822266,44.9438477 C112.564777,44.5678692 112.436035,44.161135 112.436035,43.7236328 L113.700684,43.7236328 C113.72347,44.1474631 113.893228,44.48356 114.209961,44.7319336 C114.526694,44.9803072 114.944822,45.1044922 115.464355,45.1044922 C115.942873,45.1044922 116.326821,45.0076507 116.616211,44.8139648 C116.9056,44.620279 117.050293,44.3616553 117.050293,44.0380859 Z M121.678223,36.8125 L121.678223,38.6035156 L123.059082,38.6035156 L123.059082,39.5810547 L121.678223,39.5810547 L121.678223,44.1679688 C121.678223,44.4641942 121.739745,44.6863599 121.862793,44.8344727 C121.98584,44.9825854 122.195474,45.0566406 122.491699,45.0566406 C122.637533,45.0566406 122.838052,45.0292971 123.093262,44.9746094 L123.093262,46 C122.760578,46.0911463 122.437013,46.1367188 122.122559,46.1367188 C121.557452,46.1367188 121.131349,45.965822 120.844238,45.6240234 C120.557127,45.2822249 120.413574,44.7968781 120.413574,44.1679688 L120.413574,39.5810547 L119.066895,39.5810547 L119.066895,38.6035156 L120.413574,38.6035156 L120.413574,36.8125 L121.678223,36.8125 Z M127.60498,46.1367188 C126.602371,46.1367188 125.786624,45.8074577 125.157715,45.1489258 C124.528805,44.4903938 124.214355,43.609706 124.214355,42.5068359 L124.214355,42.2744141 C124.214355,41.5406864 124.354491,40.8855823 124.634766,40.309082 C124.91504,39.7325818 125.306964,39.2814144 125.810547,38.9555664 C126.31413,38.6297184 126.85986,38.4667969 127.447754,38.4667969 C128.409347,38.4667969 129.156736,38.7835255 129.689941,39.4169922 C130.223147,40.0504589 130.489746,40.9573509 130.489746,42.1376953 L130.489746,42.6640625 L125.479004,42.6640625 C125.497233,43.3932328 125.710284,43.9822569 126.118164,44.4311523 C126.526044,44.8800478 127.04443,45.1044922 127.67334,45.1044922 C128.119957,45.1044922 128.498208,45.0133473 128.808105,44.8310547 C129.118003,44.6487621 129.389159,44.4072281 129.621582,44.1064453 L130.394043,44.7080078 C129.774248,45.6604865 128.84457,46.1367188 127.60498,46.1367188 Z M127.447754,39.5058594 C126.937335,39.5058594 126.508954,39.6915672 126.162598,40.0629883 C125.816242,40.4344094 125.602051,40.9550748 125.52002,41.625 L129.225098,41.625 L129.225098,41.5292969 C129.188639,40.8867155 129.015464,40.3888364 128.705566,40.0356445 C128.395669,39.6824527 127.976402,39.5058594 127.447754,39.5058594 Z M135.527832,39.7382812 C135.336425,39.70638 135.12907,39.6904297 134.905762,39.6904297 C134.07633,39.6904297 133.513511,40.0436163 133.217285,40.75 L133.217285,46 L131.952637,46 L131.952637,38.6035156 L133.183105,38.6035156 L133.203613,39.4580078 C133.618329,38.7971972 134.206214,38.4667969 134.967285,38.4667969 C135.21338,38.4667969 135.400227,38.4986976 135.527832,38.5625 L135.527832,39.7382812 Z M148.003418,46 L146.684082,46 L146.684082,41.3994141 L141.666504,41.3994141 L141.666504,46 L140.354004,46 L140.354004,36.046875 L141.666504,36.046875 L141.666504,40.3261719 L146.684082,40.3261719 L146.684082,36.046875 L148.003418,36.046875 L148.003418,46 Z M152.556152,44.1474609 L154.278809,38.6035156 L155.632324,38.6035156 L152.658691,47.1416016 C152.198403,48.3720765 151.466965,48.9873047 150.464355,48.9873047 L150.225098,48.9667969 L149.753418,48.8779297 L149.753418,47.8525391 L150.095215,47.8798828 C150.523602,47.8798828 150.857421,47.7932951 151.09668,47.6201172 C151.335939,47.4469392 151.53304,47.1302106 151.687988,46.6699219 L151.968262,45.9179688 L149.32959,38.6035156 L150.710449,38.6035156 L152.556152,44.1474609 Z M163.008301,42.3837891 C163.008301,43.5094457 162.750816,44.4163377 162.23584,45.1044922 C161.720863,45.7926467 161.023605,46.1367188 160.144043,46.1367188 C159.246252,46.1367188 158.539879,45.8518909 158.024902,45.2822266 L158.024902,48.84375 L156.760254,48.84375 L156.760254,38.6035156 L157.915527,38.6035156 L157.977051,39.4238281 C158.492027,38.7858041 159.207515,38.4667969 160.123535,38.4667969 C161.012211,38.4667969 161.715167,38.8017545 162.232422,39.4716797 C162.749677,40.1416049 163.008301,41.0735617 163.008301,42.2675781 L163.008301,42.3837891 Z M161.743652,42.2402344 C161.743652,41.4062458 161.56592,40.7477238 161.210449,40.2646484 C160.854979,39.7815731 160.367353,39.5400391 159.747559,39.5400391 C158.98193,39.5400391 158.407717,39.8795539 158.024902,40.5585938 L158.024902,44.0927734 C158.403159,44.767256 158.98193,45.1044922 159.76123,45.1044922 C160.367353,45.1044922 160.849282,44.8640975 161.207031,44.3833008 C161.56478,43.9025041 161.743652,43.1881558 161.743652,42.2402344 Z M167.684082,46.1367188 C166.681473,46.1367188 165.865726,45.8074577 165.236816,45.1489258 C164.607907,44.4903938 164.293457,43.609706 164.293457,42.5068359 L164.293457,42.2744141 C164.293457,41.5406864 164.433592,40.8855823 164.713867,40.309082 C164.994142,39.7325818 165.386065,39.2814144 165.889648,38.9555664 C166.393232,38.6297184 166.938962,38.4667969 167.526855,38.4667969 C168.488449,38.4667969 169.235837,38.7835255 169.769043,39.4169922 C170.302249,40.0504589 170.568848,40.9573509 170.568848,42.1376953 L170.568848,42.6640625 L165.558105,42.6640625 C165.576335,43.3932328 165.789386,43.9822569 166.197266,44.4311523 C166.605145,44.8800478 167.123532,45.1044922 167.752441,45.1044922 C168.199058,45.1044922 168.57731,45.0133473 168.887207,44.8310547 C169.197104,44.6487621 169.468261,44.4072281 169.700684,44.1064453 L170.473145,44.7080078 C169.85335,45.6604865 168.923672,46.1367188 167.684082,46.1367188 Z M167.526855,39.5058594 C167.016436,39.5058594 166.588055,39.6915672 166.241699,40.0629883 C165.895343,40.4344094 165.681153,40.9550748 165.599121,41.625 L169.304199,41.625 L169.304199,41.5292969 C169.267741,40.8867155 169.094565,40.3888364 168.784668,40.0356445 C168.474771,39.6824527 168.055504,39.5058594 167.526855,39.5058594 Z M175.606934,39.7382812 C175.415526,39.70638 175.208172,39.6904297 174.984863,39.6904297 C174.155432,39.6904297 173.592612,40.0436163 173.296387,40.75 L173.296387,46 L172.031738,46 L172.031738,38.6035156 L173.262207,38.6035156 L173.282715,39.4580078 C173.69743,38.7971972 174.285315,38.4667969 175.046387,38.4667969 C175.292482,38.4667969 175.479329,38.4986976 175.606934,38.5625 L175.606934,39.7382812 Z M179.33252,44.2841797 L181.164551,38.6035156 L182.456543,38.6035156 L179.804199,46 L178.840332,46 L176.160645,38.6035156 L177.452637,38.6035156 L179.33252,44.2841797 Z M185.047363,46 L183.782715,46 L183.782715,38.6035156 L185.047363,38.6035156 L185.047363,46 Z M183.680176,36.6416016 C183.680176,36.4365224 183.742838,36.2633471 183.868164,36.1220703 C183.99349,35.9807936 184.179198,35.9101562 184.425293,35.9101562 C184.671388,35.9101562 184.858235,35.9807936 184.98584,36.1220703 C185.113445,36.2633471 185.177246,36.4365224 185.177246,36.6416016 C185.177246,36.8466807 185.113445,37.0175774 184.98584,37.1542969 C184.858235,37.2910163 184.671388,37.359375 184.425293,37.359375 C184.179198,37.359375 183.99349,37.2910163 183.868164,37.1542969 C183.742838,37.0175774 183.680176,36.8466807 183.680176,36.6416016 Z M191.377441,44.0380859 C191.377441,43.6962874 191.248699,43.4308278 190.991211,43.2416992 C190.733723,43.0525707 190.284834,42.8896491 189.644531,42.7529297 C189.004229,42.6162103 188.496096,42.4521494 188.120117,42.2607422 C187.744139,42.069335 187.466147,41.8414727 187.286133,41.5771484 C187.106119,41.3128242 187.016113,40.9983742 187.016113,40.6337891 C187.016113,40.0276662 187.272458,39.5149761 187.785156,39.0957031 C188.297854,38.6764302 188.952958,38.4667969 189.750488,38.4667969 C190.589034,38.4667969 191.269203,38.6832661 191.791016,39.1162109 C192.312828,39.5491558 192.57373,40.1028612 192.57373,40.7773438 L191.302246,40.7773438 C191.302246,40.4309879 191.155275,40.1324882 190.861328,39.8818359 C190.567381,39.6311836 190.197105,39.5058594 189.750488,39.5058594 C189.2902,39.5058594 188.930177,39.6061188 188.67041,39.8066406 C188.410643,40.0071625 188.280762,40.2692041 188.280762,40.5927734 C188.280762,40.8981135 188.401529,41.1282544 188.643066,41.2832031 C188.884604,41.4381518 189.32096,41.5862623 189.952148,41.7275391 C190.583336,41.8688158 191.094887,42.0374339 191.486816,42.2333984 C191.878745,42.429363 192.16927,42.6652004 192.358398,42.940918 C192.547527,43.2166355 192.64209,43.5527324 192.64209,43.9492188 C192.64209,44.6100293 192.37777,45.1398092 191.849121,45.5385742 C191.320473,45.9373392 190.634607,46.1367188 189.791504,46.1367188 C189.199053,46.1367188 188.67497,46.0319021 188.219238,45.8222656 C187.763507,45.6126292 187.406902,45.3198261 187.149414,44.9438477 C186.891926,44.5678692 186.763184,44.161135 186.763184,43.7236328 L188.027832,43.7236328 C188.050619,44.1474631 188.220376,44.48356 188.537109,44.7319336 C188.853843,44.9803072 189.27197,45.1044922 189.791504,45.1044922 C190.270022,45.1044922 190.65397,45.0076507 190.943359,44.8139648 C191.232749,44.620279 191.377441,44.3616553 191.377441,44.0380859 Z M193.95459,42.2333984 C193.95459,41.5087854 194.097004,40.8570992 194.381836,40.2783203 C194.666668,39.6995414 195.063149,39.2529313 195.571289,38.9384766 C196.07943,38.6240219 196.659339,38.4667969 197.311035,38.4667969 C198.318202,38.4667969 199.132809,38.8154262 199.754883,39.5126953 C200.376956,40.2099644 200.687988,41.137364 200.687988,42.2949219 L200.687988,42.3837891 C200.687988,43.1038447 200.550132,43.7498344 200.274414,44.3217773 C199.998697,44.8937203 199.604495,45.3391911 199.091797,45.6582031 C198.579099,45.9772151 197.990075,46.1367188 197.324707,46.1367188 C196.322098,46.1367188 195.509769,45.7880894 194.887695,45.0908203 C194.265622,44.3935512 193.95459,43.4707089 193.95459,42.3222656 L193.95459,42.2333984 Z M195.226074,42.3837891 C195.226074,43.2041057 195.416339,43.8626277 195.796875,44.359375 C196.177411,44.8561223 196.686683,45.1044922 197.324707,45.1044922 C197.967288,45.1044922 198.4777,44.8527043 198.855957,44.3491211 C199.234214,43.8455378 199.42334,43.140304 199.42334,42.2333984 C199.42334,41.4221965 199.230796,40.7648137 198.845703,40.2612305 C198.46061,39.7576472 197.949059,39.5058594 197.311035,39.5058594 C196.686683,39.5058594 196.183107,39.7542293 195.800293,40.2509766 C195.417479,40.7477238 195.226074,41.4586542 195.226074,42.3837891 Z M205.849121,39.7382812 C205.657714,39.70638 205.450359,39.6904297 205.227051,39.6904297 C204.39762,39.6904297 203.8348,40.0436163 203.538574,40.75 L203.538574,46 L202.273926,46 L202.273926,38.6035156 L203.504395,38.6035156 L203.524902,39.4580078 C203.939618,38.7971972 204.527503,38.4667969 205.288574,38.4667969 C205.534669,38.4667969 205.721516,38.4986976 205.849121,38.5625 L205.849121,39.7382812 Z" id="Portal-Test-Cluster" fill="#424242"></path>
                </g>
                <g transform="translate(8.000000, 1.000000)">
                    <g id="specs-/-spacing-/-internal-/-H-12px" transform="translate(10.000000, 0.000000)">
                        <rect id="Rectangle-3-Copy" fill="#F9CD94" fill-rule="evenodd" x="0" y="0" width="190" height="12"></rect>
                        <text id="12" font-family="Roboto-Regular, Roboto" font-size="12" font-weight="normal" fill="#333333">
                            <tspan x="81.7" y="11">12</tspan>
                        </text>
                    </g>
                    <g id="specs-/-spacing-/-internal-/-H-12px" transform="translate(10.000000, 46.000000)">
                        <rect id="Rectangle-3-Copy" fill="#F9CD94" fill-rule="evenodd" x="0" y="0" width="190" height="12"></rect>
                        <text id="12" font-family="Roboto-Regular, Roboto" font-size="12" font-weight="normal" fill="#333333">
                            <tspan x="81.7" y="11">12</tspan>
                        </text>
                    </g>
                    <g id="specs-/-spacing-/-internal-/-V-12px" transform="translate(196.000000, 0.000000)">
                        <rect id="Rectangle-5-Copy-10" fill="#F8CC96" fill-rule="evenodd" x="1" y="0" width="12" height="58"></rect>
                        <text id="12-copy-4" font-family="Roboto-Regular, Roboto" font-size="12" font-weight="normal" fill="#333333">
                            <tspan x="0" y="34">12</tspan>
                        </text>
                    </g>
                    <g id="specs-/-spacing-/-internal-/-V-12px">
                        <rect id="Rectangle-5-Copy-10" fill="#F8CC96" fill-rule="evenodd" x="1" y="0" width="12" height="58"></rect>
                        <text id="12-copy-4" font-family="Roboto-Regular, Roboto" font-size="12" font-weight="normal" fill="#333333">
                            <tspan x="0" y="34">12</tspan>
                        </text>
                    </g>
                    <g id="specs-/-spacing-/-stack-/-H-08px" transform="translate(13.000000, 22.000000)">
                        <rect id="Rectangle-3" fill="#9CC2EB" fill-rule="evenodd" x="0" y="3" width="184" height="8"></rect>
                        <text id="8" font-family="Roboto-Regular, Roboto" font-size="10" font-weight="normal" fill="#333333">
                            <tspan x="84.7368421" y="10">8</tspan>
                        </text>
                    </g>
                </g>
            </g>
            <g id="RL-Padding-Private-single-word" transform="translate(39.000000, 68.000000)">
                <g id="RL-Private-tip-box">
                    <g id="Rectangle-3">
                        <use fill="black" fill-opacity="1" filter="url(#filter-3)" xlink:href="#path-2"></use>
                        <use fill="#FFFFFF" fill-rule="evenodd" xlink:href="#path-2"></use>
                        <path stroke="#E0E0E0" stroke-width="1" d="M47.9991931,0.665090171 L40.1878676,7.5 L2,7.5 C1.17157288,7.5 0.5,8.17157288 0.5,9 L0.5,43 C0.5,43.8284271 1.17157288,44.5 2,44.5 L67,44.5 C67.8284271,44.5 68.5,43.8284271 68.5,43 L68.5,9 C68.5,8.17157288 67.8284271,7.5 67,7.5 L55.7723774,7.5 L47.9991931,0.665090171 Z"></path>
                    </g>
                    <path d="M15.8422852,27.1035156 L15.8422852,31 L14.5297852,31 L14.5297852,21.046875 L18.2006836,21.046875 C19.2898817,21.046875 20.1432261,21.324867 20.7607422,21.8808594 C21.3782583,22.4368517 21.6870117,23.172847 21.6870117,24.0888672 C21.6870117,25.0550179 21.3850942,25.7989883 20.78125,26.3208008 C20.1774058,26.8426133 19.3126684,27.1035156 18.1870117,27.1035156 L15.8422852,27.1035156 Z M15.8422852,26.0302734 L18.2006836,26.0302734 C18.90251,26.0302734 19.4402651,25.8650733 19.8139648,25.534668 C20.1876646,25.2042627 20.3745117,24.7268911 20.3745117,24.1025391 C20.3745117,23.5100882 20.1876646,23.0361346 19.8139648,22.6806641 C19.4402651,22.3251935 18.9275749,22.1406251 18.2758789,22.1269531 L15.8422852,22.1269531 L15.8422852,26.0302734 Z M26.7387695,24.7382812 C26.5473623,24.70638 26.3400076,24.6904297 26.1166992,24.6904297 C25.287268,24.6904297 24.7244481,25.0436163 24.4282227,25.75 L24.4282227,31 L23.1635742,31 L23.1635742,23.6035156 L24.394043,23.6035156 L24.4145508,24.4580078 C24.8292664,23.7971972 25.4171511,23.4667969 26.1782227,23.4667969 C26.4243176,23.4667969 26.6111647,23.4986976 26.7387695,23.5625 L26.7387695,24.7382812 Z M29.2749023,31 L28.0102539,31 L28.0102539,23.6035156 L29.2749023,23.6035156 L29.2749023,31 Z M27.9077148,21.6416016 C27.9077148,21.4365224 27.970377,21.2633471 28.0957031,21.1220703 C28.2210293,20.9807936 28.4067371,20.9101562 28.652832,20.9101562 C28.898927,20.9101562 29.0857741,20.9807936 29.2133789,21.1220703 C29.3409837,21.2633471 29.4047852,21.4365224 29.4047852,21.6416016 C29.4047852,21.8466807 29.3409837,22.0175774 29.2133789,22.1542969 C29.0857741,22.2910163 28.898927,22.359375 28.652832,22.359375 C28.4067371,22.359375 28.2210293,22.2910163 28.0957031,22.1542969 C27.970377,22.0175774 27.9077148,21.8466807 27.9077148,21.6416016 Z M33.7387695,29.2841797 L35.5708008,23.6035156 L36.862793,23.6035156 L34.2104492,31 L33.246582,31 L30.5668945,23.6035156 L31.8588867,23.6035156 L33.7387695,29.2841797 Z M42.543457,31 C42.47054,30.8541659 42.4112958,30.5944029 42.3657227,30.2207031 C41.7778291,30.8313833 41.0760132,31.1367188 40.2602539,31.1367188 C39.5310836,31.1367188 38.932945,30.9305034 38.4658203,30.5180664 C37.9986956,30.1056294 37.7651367,29.5826855 37.7651367,28.9492188 C37.7651367,28.1790326 38.0579398,27.5808941 38.6435547,27.1547852 C39.2291696,26.7286763 40.0528918,26.515625 41.1147461,26.515625 L42.3452148,26.515625 L42.3452148,25.9345703 C42.3452148,25.4925108 42.2130547,25.1404635 41.9487305,24.878418 C41.6844062,24.6163724 41.2947617,24.4853516 40.7797852,24.4853516 C40.328611,24.4853516 39.9503596,24.5992827 39.6450195,24.8271484 C39.3396795,25.0550142 39.1870117,25.3307275 39.1870117,25.6542969 L37.9155273,25.6542969 C37.9155273,25.2851544 38.0465482,24.9285499 38.3085938,24.5844727 C38.5706393,24.2403954 38.9261045,23.9681 39.375,23.7675781 C39.8238955,23.5670563 40.3172174,23.4667969 40.8549805,23.4667969 C41.7071983,23.4667969 42.3748348,23.6798481 42.8579102,24.105957 C43.3409855,24.5320659 43.591634,25.1188114 43.6098633,25.8662109 L43.6098633,29.2705078 C43.6098633,29.9495477 43.696451,30.4895813 43.8696289,30.890625 L43.8696289,31 L42.543457,31 Z M40.4448242,30.0361328 C40.8413106,30.0361328 41.2172834,29.9335948 41.5727539,29.7285156 C41.9282244,29.5234365 42.1857088,29.2568376 42.3452148,28.9287109 L42.3452148,27.4111328 L41.3540039,27.4111328 C39.804517,27.4111328 39.0297852,27.8645788 39.0297852,28.7714844 C39.0297852,29.1679707 39.1619453,29.4778635 39.4262695,29.7011719 C39.6905938,29.9244803 40.0301086,30.0361328 40.4448242,30.0361328 Z M47.3081055,21.8125 L47.3081055,23.6035156 L48.6889648,23.6035156 L48.6889648,24.5810547 L47.3081055,24.5810547 L47.3081055,29.1679688 C47.3081055,29.4641942 47.3696283,29.6863599 47.4926758,29.8344727 C47.6157233,29.9825854 47.8253566,30.0566406 48.121582,30.0566406 C48.2674161,30.0566406 48.4679349,30.0292971 48.7231445,29.9746094 L48.7231445,31 C48.3904606,31.0911463 48.0668961,31.1367188 47.7524414,31.1367188 C47.1873344,31.1367188 46.7612319,30.965822 46.4741211,30.6240234 C46.1870103,30.2822249 46.043457,29.7968781 46.043457,29.1679688 L46.043457,24.5810547 L44.6967773,24.5810547 L44.6967773,23.6035156 L46.043457,23.6035156 L46.043457,21.8125 L47.3081055,21.8125 Z M53.2348633,31.1367188 C52.2322541,31.1367188 51.4165071,30.8074577 50.7875977,30.1489258 C50.1586883,29.4903938 49.8442383,28.609706 49.8442383,27.5068359 L49.8442383,27.2744141 C49.8442383,26.5406864 49.9843736,25.8855823 50.2646484,25.309082 C50.5449233,24.7325818 50.9368464,24.2814144 51.4404297,23.9555664 C51.9440129,23.6297184 52.4897432,23.4667969 53.0776367,23.4667969 C54.0392301,23.4667969 54.7866184,23.7835255 55.3198242,24.4169922 C55.85303,25.0504589 56.1196289,25.9573509 56.1196289,27.1376953 L56.1196289,27.6640625 L51.1088867,27.6640625 C51.127116,28.3932328 51.3401672,28.9822569 51.7480469,29.4311523 C52.1559265,29.8800478 52.6743133,30.1044922 53.3032227,30.1044922 C53.7498395,30.1044922 54.1280909,30.0133473 54.4379883,29.8310547 C54.7478857,29.6487621 55.0190418,29.4072281 55.2514648,29.1064453 L56.0239258,29.7080078 C55.404131,30.6604865 54.4744528,31.1367188 53.2348633,31.1367188 Z M53.0776367,24.5058594 C52.5672175,24.5058594 52.1388364,24.6915672 51.7924805,25.0629883 C51.4461246,25.4344094 51.231934,25.9550748 51.1499023,26.625 L54.8549805,26.625 L54.8549805,26.5292969 C54.818522,25.8867155 54.6453466,25.3888364 54.3354492,25.0356445 C54.0255518,24.6824527 53.6062852,24.5058594 53.0776367,24.5058594 Z" id="Private" fill="#424242"></path>
                </g>
                <g id="RL-Private-tip-Padding" transform="translate(0.000000, 8.000000)">
                    <g id="specs-/-spacing-/-internal-/-V-12px" transform="translate(55.000000, 0.000000)">
                        <rect id="Rectangle-5-Copy-10" fill="#F8CC96" fill-rule="evenodd" x="1" y="0" width="12" height="36"></rect>
                        <text id="12-copy-4" font-family="Roboto-Regular, Roboto" font-size="12" font-weight="normal" fill="#333333">
                            <tspan x="0" y="23">12</tspan>
                        </text>
                    </g>
                    <g id="specs-/-spacing-/-internal-/-H-12px" transform="translate(1.000000, 24.000000)">
                        <rect id="Rectangle-3-Copy" fill="#F9CD94" fill-rule="evenodd" x="0" y="0" width="67" height="12"></rect>
                        <text id="12" font-family="Roboto-Regular, Roboto" font-size="12" font-weight="normal" fill="#333333">
                            <tspan x="28.81" y="11">12</tspan>
                        </text>
                    </g>
                    <g id="specs-/-spacing-/-internal-/-H-12px" transform="translate(1.000000, 0.000000)">
                        <rect id="Rectangle-3-Copy" fill="#F9CD94" fill-rule="evenodd" x="0" y="0" width="67" height="12"></rect>
                        <text id="12" font-family="Roboto-Regular, Roboto" font-size="12" font-weight="normal" fill="#333333">
                            <tspan x="28.81" y="11">12</tspan>
                        </text>
                    </g>
                    <g id="specs-/-spacing-/-internal-/-V-12px">
                        <rect id="Rectangle-5-Copy-10" fill="#F8CC96" fill-rule="evenodd" x="1" y="0" width="12" height="36"></rect>
                        <text id="12-copy-4" font-family="Roboto-Regular, Roboto" font-size="12" font-weight="normal" fill="#333333">
                            <tspan x="0" y="23">12</tspan>
                        </text>
                    </g>
                </g>
            </g>
        </g>
    </g>
</svg>