<?xml version="1.0" encoding="utf-8"?>
<!-- Generator: Adobe Illustrator 21.0.2, SVG Export Plug-In . SVG Version: 6.00 Build 0)  -->
<svg version="1.1" id="Layer_1" xmlns="http://www.w3.org/2000/svg" xmlns:xlink="http://www.w3.org/1999/xlink" x="0px" y="0px"
	 width="467px" height="322.7px" viewBox="0 0 467 322.7" style="enable-background:new 0 0 467 322.7;" xml:space="preserve">
<style type="text/css">
	.st0{fill:none;}
	.st1{fill:#FFFFFF;}
	.st2{fill:none;stroke:#E0E0E0;}
	.st3{fill:#0D74D1;}
</style>
<title>Tooltip-Text-Conventions-1</title>
<desc>Created with Sketch.</desc>
<g id="Page-1">
	<g id="Tooltip-Text-Conventions-1" transform="translate(-127.000000, -46.000000)">
		<g id="documentation-_x2F_-img-container">
			<rect id="img-container-span-8" x="48.5" y="21.4" class="st0" width="633" height="391"/>
		</g>
		<g id="_x33_-HP-DL" transform="translate(211.000000, 131.000000)">
			<g id="HPDL-top">
				<g id="Rectangle-3">
					<g id="path-1-link">
						<path id="path-1" d="M50.5,28.4h179.2l8-7l8,7h11.1l0,0c1.1,0,2,0.9,2,2v56l0,0c0,1.1-0.9,2-2,2H50.5l0,0c-1.1,0-2-0.9-2-2
							v-56l0,0C48.5,29.3,49.4,28.4,50.5,28.4z"/>
					</g>
					<g id="path-1-link_1_">
						<path id="path-1_1_" class="st1" d="M50.5,28.4h179.2l8-7l8,7h11.1l0,0c1.1,0,2,0.9,2,2v56l0,0c0,1.1-0.9,2-2,2H50.5l0,0
							c-1.1,0-2-0.9-2-2v-56l0,0C48.5,29.3,49.4,28.4,50.5,28.4z"/>
					</g>
					<path id="Shape" class="st2" d="M237.7,22l-7.8,6.8H50.5c-0.8,0-1.5,0.7-1.5,1.5v56c0,0.8,0.7,1.5,1.5,1.5h206.2
						c0.8,0,1.5-0.7,1.5-1.5v-56c0-0.8-0.7-1.5-1.5-1.5h-11.2L237.7,22z"/>
				</g>
				<path id="HP-DL-385-G2-Hypervisor" d="M69.4,53.4h-1.3v-4.6h-5v4.6h-1.3v-10h1.3v4.3h5v-4.3h1.3V53.4z M73.1,49.5v3.9h-1.3v-10
					h3.7c1.1,0,1.9,0.3,2.6,0.8s0.9,1.3,0.9,2.2c0,1-0.3,1.7-0.9,2.2s-1.5,0.8-2.6,0.8H73.1z M73.1,48.4h2.4c0.7,0,1.2-0.2,1.6-0.5
					s0.6-0.8,0.6-1.4c0-0.6-0.2-1.1-0.6-1.4c-0.4-0.4-0.9-0.5-1.5-0.6h-2.4V48.4z M84.1,53.4v-10h2.8c0.9,0,1.6,0.2,2.3,0.6
					c0.7,0.4,1.2,0.9,1.5,1.6c0.4,0.7,0.5,1.5,0.6,2.4v0.6c0,0.9-0.2,1.8-0.5,2.5c-0.4,0.7-0.9,1.2-1.6,1.6s-1.5,0.6-2.3,0.6H84.1z
					 M85.4,44.5v7.8h1.4c1,0,1.8-0.3,2.4-0.9s0.8-1.5,0.8-2.7v-0.6c0-1.1-0.3-2-0.8-2.6c-0.5-0.6-1.3-0.9-2.3-1H85.4z M94.6,52.3
					h4.7v1.1h-6v-10h1.3V52.3z M105.8,47.8h1c0.6,0,1.1-0.2,1.4-0.5s0.5-0.7,0.5-1.2c0-1.2-0.6-1.8-1.7-1.8c-0.5,0-1,0.2-1.3,0.5
					s-0.5,0.7-0.5,1.2h-1.3c0-0.8,0.3-1.4,0.9-2s1.3-0.8,2.2-0.8c0.9,0,1.7,0.2,2.2,0.7c0.5,0.5,0.8,1.2,0.8,2.1
					c0,0.4-0.1,0.9-0.4,1.3s-0.7,0.7-1.1,0.9c0.5,0.2,1,0.5,1.3,0.9s0.4,0.9,0.4,1.5c0,0.9-0.3,1.6-0.9,2.1
					c-0.6,0.5-1.3,0.8-2.3,0.8s-1.7-0.3-2.3-0.8c-0.6-0.5-0.9-1.2-0.9-2h1.3c0,0.5,0.2,0.9,0.5,1.3c0.3,0.3,0.8,0.5,1.4,0.5
					c0.6,0,1.1-0.2,1.4-0.5s0.5-0.8,0.5-1.4c0-0.6-0.2-1-0.5-1.3c-0.4-0.3-0.9-0.5-1.5-0.5h-1V47.8z M117.8,46
					c0,0.5-0.1,0.9-0.4,1.3s-0.6,0.7-1.1,0.9c0.5,0.2,0.9,0.5,1.2,1s0.5,0.9,0.5,1.5c0,0.9-0.3,1.5-0.9,2.1
					c-0.6,0.5-1.3,0.8-2.3,0.8c-1,0-1.7-0.3-2.3-0.8c-0.6-0.5-0.9-1.2-0.9-2.1c0-0.5,0.1-1,0.4-1.5s0.7-0.8,1.2-1
					c-0.4-0.2-0.8-0.5-1-0.9s-0.4-0.8-0.4-1.3c0-0.8,0.3-1.5,0.8-2c0.5-0.5,1.2-0.7,2.1-0.7c0.9,0,1.6,0.2,2.1,0.7
					C117.5,44.5,117.8,45.2,117.8,46z M116.8,50.7c0-0.6-0.2-1-0.5-1.4s-0.8-0.5-1.4-0.5s-1,0.2-1.4,0.5s-0.5,0.8-0.5,1.4
					c0,0.6,0.2,1,0.5,1.3s0.8,0.5,1.4,0.5c0.6,0,1.1-0.2,1.4-0.5S116.8,51.2,116.8,50.7z M114.9,44.3c-0.5,0-0.9,0.2-1.2,0.5
					c-0.3,0.3-0.5,0.7-0.5,1.3c0,0.5,0.2,0.9,0.5,1.2s0.7,0.5,1.2,0.5s0.9-0.2,1.2-0.5s0.5-0.7,0.5-1.2c0-0.5-0.2-0.9-0.5-1.2
					S115.4,44.3,114.9,44.3z M120.2,48.4l0.5-5h5.1v1.2h-4l-0.3,2.7c0.5-0.3,1-0.4,1.7-0.4c0.9,0,1.6,0.3,2.2,0.9
					c0.5,0.6,0.8,1.4,0.8,2.4c0,1-0.3,1.8-0.8,2.4s-1.3,0.9-2.3,0.9c-0.9,0-1.6-0.2-2.2-0.7s-0.9-1.2-1-2h1.2c0.1,0.6,0.3,1,0.6,1.3
					c0.3,0.3,0.8,0.4,1.3,0.4c0.6,0,1-0.2,1.4-0.6s0.5-1,0.5-1.7c0-0.7-0.2-1.2-0.5-1.6c-0.4-0.4-0.8-0.6-1.4-0.6
					c-0.6,0-1,0.1-1.3,0.4l-0.3,0.3L120.2,48.4z M138.6,52.1c-0.3,0.5-0.8,0.8-1.4,1.1s-1.3,0.4-2.1,0.4c-0.8,0-1.5-0.2-2.2-0.6
					s-1.1-0.9-1.5-1.6c-0.3-0.7-0.5-1.5-0.5-2.4V48c0-1.5,0.3-2.7,1-3.5s1.7-1.2,2.9-1.2c1,0,1.9,0.3,2.5,0.8c0.6,0.5,1,1.3,1.2,2.3
					h-1.3c-0.2-1.3-1-2-2.4-2c-0.9,0-1.5,0.3-2,0.9s-0.7,1.5-0.7,2.7v0.8c0,1.1,0.3,2,0.8,2.7s1.2,1,2.1,1c0.5,0,0.9-0.1,1.3-0.2
					s0.7-0.3,0.9-0.6v-2.2H135v-1.1h3.6V52.1z M147,53.4h-6.5v-0.9l3.4-3.8c0.5-0.6,0.9-1,1.1-1.4c0.2-0.4,0.3-0.7,0.3-1.1
					c0-0.5-0.2-0.9-0.5-1.3s-0.7-0.5-1.3-0.5c-0.6,0-1.1,0.2-1.5,0.5s-0.5,0.9-0.5,1.5h-1.3c0-0.9,0.3-1.7,0.9-2.2
					c0.6-0.6,1.4-0.8,2.4-0.8c0.9,0,1.7,0.2,2.2,0.7c0.5,0.5,0.8,1.1,0.8,1.9c0,1-0.6,2.1-1.9,3.5l-2.7,2.9h5V53.4z M159.8,53.4
					h-1.3v-4.6h-5v4.6h-1.3v-10h1.3v4.3h5v-4.3h1.3V53.4z M164.4,51.5l1.7-5.5h1.4l-3,8.5c-0.5,1.2-1.2,1.8-2.2,1.8l-0.2,0l-0.5-0.1
					v-1l0.3,0c0.4,0,0.8-0.1,1-0.3s0.4-0.5,0.6-1l0.3-0.8l-2.6-7.3h1.4L164.4,51.5z M174.8,49.8c0,1.1-0.3,2-0.8,2.7
					c-0.5,0.7-1.2,1-2.1,1c-0.9,0-1.6-0.3-2.1-0.9v3.6h-1.3V46h1.2l0.1,0.8c0.5-0.6,1.2-1,2.1-1c0.9,0,1.6,0.3,2.1,1
					s0.8,1.6,0.8,2.8V49.8z M173.5,49.6c0-0.8-0.2-1.5-0.5-2c-0.4-0.5-0.8-0.7-1.5-0.7c-0.8,0-1.3,0.3-1.7,1v3.5c0.4,0.7,1,1,1.7,1
					c0.6,0,1.1-0.2,1.4-0.7S173.5,50.6,173.5,49.6z M179.5,53.5c-1,0-1.8-0.3-2.4-1s-0.9-1.5-0.9-2.6v-0.2c0-0.7,0.1-1.4,0.4-2
					s0.7-1,1.2-1.4s1-0.5,1.6-0.5c1,0,1.7,0.3,2.2,1c0.5,0.6,0.8,1.5,0.8,2.7V50h-5c0,0.7,0.2,1.3,0.6,1.8c0.4,0.4,0.9,0.7,1.6,0.7
					c0.4,0,0.8-0.1,1.1-0.3s0.6-0.4,0.8-0.7l0.8,0.6C181.7,53,180.7,53.5,179.5,53.5z M179.3,46.9c-0.5,0-0.9,0.2-1.3,0.6
					s-0.6,0.9-0.6,1.6h3.7v-0.1c0-0.6-0.2-1.1-0.5-1.5S179.9,46.9,179.3,46.9z M187.4,47.1c-0.2,0-0.4,0-0.6,0
					c-0.8,0-1.4,0.4-1.7,1.1v5.2h-1.3V46h1.2l0,0.9c0.4-0.7,1-1,1.8-1c0.2,0,0.4,0,0.6,0.1V47.1z M191.1,51.7L193,46h1.3l-2.7,7.4
					h-1L188,46h1.3L191.1,51.7z M196.9,53.4h-1.3V46h1.3V53.4z M195.5,44c0-0.2,0.1-0.4,0.2-0.5s0.3-0.2,0.6-0.2s0.4,0.1,0.6,0.2
					s0.2,0.3,0.2,0.5c0,0.2-0.1,0.4-0.2,0.5s-0.3,0.2-0.6,0.2s-0.4-0.1-0.6-0.2S195.5,44.2,195.5,44z M203.2,51.4
					c0-0.3-0.1-0.6-0.4-0.8s-0.7-0.4-1.3-0.5s-1.1-0.3-1.5-0.5c-0.4-0.2-0.7-0.4-0.8-0.7s-0.3-0.6-0.3-0.9c0-0.6,0.3-1.1,0.8-1.5
					s1.2-0.6,2-0.6c0.8,0,1.5,0.2,2,0.6c0.5,0.4,0.8,1,0.8,1.7h-1.3c0-0.3-0.1-0.6-0.4-0.9s-0.7-0.4-1.1-0.4c-0.5,0-0.8,0.1-1.1,0.3
					c-0.3,0.2-0.4,0.5-0.4,0.8c0,0.3,0.1,0.5,0.4,0.7s0.7,0.3,1.3,0.4s1.1,0.3,1.5,0.5s0.7,0.4,0.9,0.7c0.2,0.3,0.3,0.6,0.3,1
					c0,0.7-0.3,1.2-0.8,1.6c-0.5,0.4-1.2,0.6-2.1,0.6c-0.6,0-1.1-0.1-1.6-0.3s-0.8-0.5-1.1-0.9c-0.3-0.4-0.4-0.8-0.4-1.2h1.3
					c0,0.4,0.2,0.8,0.5,1c0.3,0.2,0.7,0.4,1.3,0.4c0.5,0,0.9-0.1,1.2-0.3C203,52,203.2,51.7,203.2,51.4z M205.8,49.6
					c0-0.7,0.1-1.4,0.4-2c0.3-0.6,0.7-1,1.2-1.3c0.5-0.3,1.1-0.5,1.7-0.5c1,0,1.8,0.3,2.4,1s0.9,1.6,0.9,2.8v0.1
					c0,0.7-0.1,1.4-0.4,1.9c-0.3,0.6-0.7,1-1.2,1.3s-1.1,0.5-1.8,0.5c-1,0-1.8-0.3-2.4-1S205.8,50.8,205.8,49.6L205.8,49.6z
					 M207,49.8c0,0.8,0.2,1.5,0.6,2c0.4,0.5,0.9,0.7,1.5,0.7c0.6,0,1.2-0.3,1.5-0.8c0.4-0.5,0.6-1.2,0.6-2.1c0-0.8-0.2-1.5-0.6-2
					c-0.4-0.5-0.9-0.8-1.5-0.8c-0.6,0-1.1,0.2-1.5,0.7C207.2,48.1,207,48.8,207,49.8z M217.7,47.1c-0.2,0-0.4,0-0.6,0
					c-0.8,0-1.4,0.4-1.7,1.1v5.2h-1.3V46h1.2l0,0.9c0.4-0.7,1-1,1.8-1c0.2,0,0.4,0,0.6,0.1V47.1z"/>
				<path id="Portal-Test-Cluster-Hypervisor" d="M62.9,70.5v3.9h-1.3v-10h3.7c1.1,0,1.9,0.3,2.6,0.8s0.9,1.3,0.9,2.2
					c0,1-0.3,1.7-0.9,2.2s-1.5,0.8-2.6,0.8H62.9z M62.9,69.4h2.4c0.7,0,1.2-0.2,1.6-0.5s0.6-0.8,0.6-1.4c0-0.6-0.2-1.1-0.6-1.4
					s-0.9-0.5-1.5-0.6h-2.4V69.4z M69.8,70.6c0-0.7,0.1-1.4,0.4-2c0.3-0.6,0.7-1,1.2-1.3s1.1-0.5,1.7-0.5c1,0,1.8,0.3,2.4,1
					c0.6,0.7,0.9,1.6,0.9,2.8v0.1c0,0.7-0.1,1.4-0.4,1.9c-0.3,0.6-0.7,1-1.2,1.3c-0.5,0.3-1.1,0.5-1.8,0.5c-1,0-1.8-0.3-2.4-1
					C70.1,72.8,69.8,71.8,69.8,70.6L69.8,70.6z M71.1,70.8c0,0.8,0.2,1.5,0.6,2c0.4,0.5,0.9,0.7,1.5,0.7c0.6,0,1.2-0.3,1.5-0.8
					c0.4-0.5,0.6-1.2,0.6-2.1c0-0.8-0.2-1.5-0.6-2c-0.4-0.5-0.9-0.8-1.5-0.8c-0.6,0-1.1,0.2-1.5,0.7C71.3,69.1,71.1,69.8,71.1,70.8z
					 M81.7,68.1c-0.2,0-0.4,0-0.6,0c-0.8,0-1.4,0.4-1.7,1.1v5.2h-1.3V67h1.2l0,0.9c0.4-0.7,1-1,1.8-1c0.2,0,0.4,0,0.6,0.1V68.1z
					 M84.9,65.2V67h1.4v1h-1.4v4.6c0,0.3,0.1,0.5,0.2,0.7c0.1,0.1,0.3,0.2,0.6,0.2c0.1,0,0.3,0,0.6-0.1v1c-0.3,0.1-0.7,0.1-1,0.1
					c-0.6,0-1-0.2-1.3-0.5s-0.4-0.8-0.4-1.5V68h-1.3v-1h1.3v-1.8H84.9z M92.3,74.4c-0.1-0.1-0.1-0.4-0.2-0.8
					c-0.6,0.6-1.3,0.9-2.1,0.9c-0.7,0-1.3-0.2-1.8-0.6s-0.7-0.9-0.7-1.6c0-0.8,0.3-1.4,0.9-1.8s1.4-0.6,2.5-0.6h1.2v-0.6
					c0-0.4-0.1-0.8-0.4-1.1s-0.7-0.4-1.2-0.4c-0.5,0-0.8,0.1-1.1,0.3S89,68.7,89,69h-1.3c0-0.4,0.1-0.7,0.4-1.1s0.6-0.6,1.1-0.8
					s0.9-0.3,1.5-0.3c0.9,0,1.5,0.2,2,0.6s0.7,1,0.8,1.8v3.4c0,0.7,0.1,1.2,0.3,1.6v0.1H92.3z M90.3,73.4c0.4,0,0.8-0.1,1.1-0.3
					s0.6-0.5,0.8-0.8v-1.5h-1c-1.5,0-2.3,0.5-2.3,1.4c0,0.4,0.1,0.7,0.4,0.9C89.5,73.3,89.8,73.4,90.3,73.4z M96.8,74.4h-1.3V63.9
					h1.3V74.4z M109.1,65.5h-3.2v8.9h-1.3v-8.9h-3.2v-1.1h7.7V65.5z M113.4,74.5c-1,0-1.8-0.3-2.4-1S110,72,110,70.9v-0.2
					c0-0.7,0.1-1.4,0.4-2s0.7-1,1.2-1.4c0.5-0.3,1-0.5,1.6-0.5c1,0,1.7,0.3,2.2,1c0.5,0.6,0.8,1.5,0.8,2.7V71h-5
					c0,0.7,0.2,1.3,0.6,1.8c0.4,0.4,0.9,0.7,1.6,0.7c0.4,0,0.8-0.1,1.1-0.3c0.3-0.2,0.6-0.4,0.8-0.7l0.8,0.6
					C115.6,74,114.7,74.5,113.4,74.5z M113.3,67.9c-0.5,0-0.9,0.2-1.3,0.6s-0.6,0.9-0.6,1.6h3.7v-0.1c0-0.6-0.2-1.1-0.5-1.5
					C114.2,68.1,113.8,67.9,113.3,67.9z M122.1,72.4c0-0.3-0.1-0.6-0.4-0.8c-0.3-0.2-0.7-0.4-1.3-0.5s-1.1-0.3-1.5-0.5
					s-0.7-0.4-0.8-0.7c-0.2-0.3-0.3-0.6-0.3-0.9c0-0.6,0.3-1.1,0.8-1.5s1.2-0.6,2-0.6c0.8,0,1.5,0.2,2,0.6s0.8,1,0.8,1.7H122
					c0-0.3-0.1-0.6-0.4-0.9c-0.3-0.3-0.7-0.4-1.1-0.4c-0.5,0-0.8,0.1-1.1,0.3S119,68.6,119,69c0,0.3,0.1,0.5,0.4,0.7
					c0.2,0.2,0.7,0.3,1.3,0.4c0.6,0.1,1.1,0.3,1.5,0.5c0.4,0.2,0.7,0.4,0.9,0.7s0.3,0.6,0.3,1c0,0.7-0.3,1.2-0.8,1.6
					s-1.2,0.6-2.1,0.6c-0.6,0-1.1-0.1-1.6-0.3c-0.5-0.2-0.8-0.5-1.1-0.9c-0.3-0.4-0.4-0.8-0.4-1.2h1.3c0,0.4,0.2,0.8,0.5,1
					s0.7,0.4,1.3,0.4c0.5,0,0.9-0.1,1.2-0.3S122.1,72.7,122.1,72.4z M126.7,65.2V67h1.4v1h-1.4v4.6c0,0.3,0.1,0.5,0.2,0.7
					c0.1,0.1,0.3,0.2,0.6,0.2c0.1,0,0.3,0,0.6-0.1v1c-0.3,0.1-0.7,0.1-1,0.1c-0.6,0-1-0.2-1.3-0.5s-0.4-0.8-0.4-1.5V68h-1.3v-1h1.3
					v-1.8H126.7z M140.5,71.2c-0.1,1.1-0.5,1.9-1.2,2.4c-0.7,0.6-1.5,0.9-2.6,0.9c-1.2,0-2.1-0.4-2.8-1.3s-1.1-2-1.1-3.4v-1
					c0-0.9,0.2-1.7,0.5-2.4s0.8-1.2,1.4-1.6s1.3-0.6,2.1-0.6c1.1,0,1.9,0.3,2.5,0.9s1,1.4,1.1,2.5h-1.3c-0.1-0.8-0.4-1.4-0.7-1.7
					s-0.9-0.5-1.6-0.5c-0.8,0-1.5,0.3-2,0.9c-0.5,0.6-0.7,1.5-0.7,2.6v1c0,1.1,0.2,1.9,0.7,2.6s1.1,1,1.9,1c0.7,0,1.3-0.2,1.7-0.5
					s0.6-0.9,0.8-1.7H140.5z M143.5,74.4h-1.3V63.9h1.3V74.4z M150.1,73.6c-0.5,0.6-1.2,0.9-2.2,0.9c-0.8,0-1.4-0.2-1.8-0.7
					c-0.4-0.5-0.6-1.1-0.6-2V67h1.3v4.8c0,1.1,0.5,1.7,1.4,1.7c1,0,1.6-0.4,1.9-1.1V67h1.3v7.4h-1.2L150.1,73.6z M157.6,72.4
					c0-0.3-0.1-0.6-0.4-0.8c-0.3-0.2-0.7-0.4-1.3-0.5s-1.1-0.3-1.5-0.5s-0.7-0.4-0.8-0.7c-0.2-0.3-0.3-0.6-0.3-0.9
					c0-0.6,0.3-1.1,0.8-1.5s1.2-0.6,2-0.6c0.8,0,1.5,0.2,2,0.6s0.8,1,0.8,1.7h-1.3c0-0.3-0.1-0.6-0.4-0.9c-0.3-0.3-0.7-0.4-1.1-0.4
					c-0.5,0-0.8,0.1-1.1,0.3s-0.4,0.5-0.4,0.8c0,0.3,0.1,0.5,0.4,0.7c0.2,0.2,0.7,0.3,1.3,0.4c0.6,0.1,1.1,0.3,1.5,0.5
					c0.4,0.2,0.7,0.4,0.9,0.7s0.3,0.6,0.3,1c0,0.7-0.3,1.2-0.8,1.6s-1.2,0.6-2.1,0.6c-0.6,0-1.1-0.1-1.6-0.3
					c-0.5-0.2-0.8-0.5-1.1-0.9s-0.4-0.8-0.4-1.2h1.3c0,0.4,0.2,0.8,0.5,1s0.7,0.4,1.3,0.4c0.5,0,0.9-0.1,1.2-0.3
					S157.6,72.7,157.6,72.4z M162.2,65.2V67h1.4v1h-1.4v4.6c0,0.3,0.1,0.5,0.2,0.7c0.1,0.1,0.3,0.2,0.6,0.2c0.1,0,0.3,0,0.6-0.1v1
					c-0.3,0.1-0.7,0.1-1,0.1c-0.6,0-1-0.2-1.3-0.5s-0.4-0.8-0.4-1.5V68h-1.3v-1h1.3v-1.8H162.2z M168.1,74.5c-1,0-1.8-0.3-2.4-1
					s-0.9-1.5-0.9-2.6v-0.2c0-0.7,0.1-1.4,0.4-2s0.7-1,1.2-1.4c0.5-0.3,1-0.5,1.6-0.5c1,0,1.7,0.3,2.2,1c0.5,0.6,0.8,1.5,0.8,2.7V71
					h-5c0,0.7,0.2,1.3,0.6,1.8c0.4,0.4,0.9,0.7,1.6,0.7c0.4,0,0.8-0.1,1.1-0.3c0.3-0.2,0.6-0.4,0.8-0.7l0.8,0.6
					C170.3,74,169.3,74.5,168.1,74.5z M167.9,67.9c-0.5,0-0.9,0.2-1.3,0.6s-0.6,0.9-0.6,1.6h3.7v-0.1c0-0.6-0.2-1.1-0.5-1.5
					C168.9,68.1,168.5,67.9,167.9,67.9z M176,68.1c-0.2,0-0.4,0-0.6,0c-0.8,0-1.4,0.4-1.7,1.1v5.2h-1.3V67h1.2l0,0.9
					c0.4-0.7,1-1,1.8-1c0.2,0,0.4,0,0.6,0.1V68.1z M188.5,74.4h-1.3v-4.6h-5v4.6h-1.3v-10h1.3v4.3h5v-4.3h1.3V74.4z M193.1,72.5
					l1.7-5.5h1.4l-3,8.5c-0.5,1.2-1.2,1.8-2.2,1.8l-0.2,0l-0.5-0.1v-1l0.3,0c0.4,0,0.8-0.1,1-0.3s0.4-0.5,0.6-1l0.3-0.8l-2.6-7.3
					h1.4L193.1,72.5z M203.5,70.8c0,1.1-0.3,2-0.8,2.7c-0.5,0.7-1.2,1-2.1,1c-0.9,0-1.6-0.3-2.1-0.9v3.6h-1.3V67h1.2l0.1,0.8
					c0.5-0.6,1.2-1,2.1-1c0.9,0,1.6,0.3,2.1,1c0.5,0.7,0.8,1.6,0.8,2.8V70.8z M202.2,70.6c0-0.8-0.2-1.5-0.5-2
					c-0.4-0.5-0.8-0.7-1.5-0.7c-0.8,0-1.3,0.3-1.7,1v3.5c0.4,0.7,1,1,1.7,1c0.6,0,1.1-0.2,1.4-0.7S202.2,71.6,202.2,70.6z
					 M208.2,74.5c-1,0-1.8-0.3-2.4-1s-0.9-1.5-0.9-2.6v-0.2c0-0.7,0.1-1.4,0.4-2s0.7-1,1.2-1.4c0.5-0.3,1-0.5,1.6-0.5
					c1,0,1.7,0.3,2.2,1c0.5,0.6,0.8,1.5,0.8,2.7V71h-5c0,0.7,0.2,1.3,0.6,1.8c0.4,0.4,0.9,0.7,1.6,0.7c0.4,0,0.8-0.1,1.1-0.3
					c0.3-0.2,0.6-0.4,0.8-0.7l0.8,0.6C210.4,74,209.4,74.5,208.2,74.5z M208,67.9c-0.5,0-0.9,0.2-1.3,0.6s-0.6,0.9-0.6,1.6h3.7v-0.1
					c0-0.6-0.2-1.1-0.5-1.5C209,68.1,208.6,67.9,208,67.9z M216.1,68.1c-0.2,0-0.4,0-0.6,0c-0.8,0-1.4,0.4-1.7,1.1v5.2h-1.3V67h1.2
					l0,0.9c0.4-0.7,1-1,1.8-1c0.2,0,0.4,0,0.6,0.1V68.1z M219.8,72.7l1.8-5.7h1.3l-2.7,7.4h-1l-2.7-7.4h1.3L219.8,72.7z M225.5,74.4
					h-1.3V67h1.3V74.4z M224.2,65c0-0.2,0.1-0.4,0.2-0.5c0.1-0.1,0.3-0.2,0.6-0.2s0.4,0.1,0.6,0.2c0.1,0.1,0.2,0.3,0.2,0.5
					s-0.1,0.4-0.2,0.5s-0.3,0.2-0.6,0.2s-0.4-0.1-0.6-0.2S224.2,65.2,224.2,65z M231.9,72.4c0-0.3-0.1-0.6-0.4-0.8
					c-0.3-0.2-0.7-0.4-1.3-0.5s-1.1-0.3-1.5-0.5s-0.7-0.4-0.8-0.7c-0.2-0.3-0.3-0.6-0.3-0.9c0-0.6,0.3-1.1,0.8-1.5s1.2-0.6,2-0.6
					c0.8,0,1.5,0.2,2,0.6c0.5,0.4,0.8,1,0.8,1.7h-1.3c0-0.3-0.1-0.6-0.4-0.9c-0.3-0.3-0.7-0.4-1.1-0.4c-0.5,0-0.8,0.1-1.1,0.3
					s-0.4,0.5-0.4,0.8c0,0.3,0.1,0.5,0.4,0.7c0.2,0.2,0.7,0.3,1.3,0.4c0.6,0.1,1.1,0.3,1.5,0.5c0.4,0.2,0.7,0.4,0.9,0.7
					s0.3,0.6,0.3,1c0,0.7-0.3,1.2-0.8,1.6c-0.5,0.4-1.2,0.6-2.1,0.6c-0.6,0-1.1-0.1-1.6-0.3c-0.5-0.2-0.8-0.5-1.1-0.9
					s-0.4-0.8-0.4-1.2h1.3c0,0.4,0.2,0.8,0.5,1s0.7,0.4,1.3,0.4c0.5,0,0.9-0.1,1.2-0.3S231.9,72.7,231.9,72.4z M234.5,70.6
					c0-0.7,0.1-1.4,0.4-2c0.3-0.6,0.7-1,1.2-1.3c0.5-0.3,1.1-0.5,1.7-0.5c1,0,1.8,0.3,2.4,1c0.6,0.7,0.9,1.6,0.9,2.8v0.1
					c0,0.7-0.1,1.4-0.4,1.9c-0.3,0.6-0.7,1-1.2,1.3c-0.5,0.3-1.1,0.5-1.8,0.5c-1,0-1.8-0.3-2.4-1C234.8,72.8,234.5,71.8,234.5,70.6
					L234.5,70.6z M235.7,70.8c0,0.8,0.2,1.5,0.6,2c0.4,0.5,0.9,0.7,1.5,0.7c0.6,0,1.2-0.3,1.5-0.8c0.4-0.5,0.6-1.2,0.6-2.1
					c0-0.8-0.2-1.5-0.6-2c-0.4-0.5-0.9-0.8-1.5-0.8c-0.6,0-1.1,0.2-1.5,0.7C235.9,69.1,235.7,69.8,235.7,70.8z M246.3,68.1
					c-0.2,0-0.4,0-0.6,0c-0.8,0-1.4,0.4-1.7,1.1v5.2h-1.3V67h1.2l0,0.9c0.4-0.7,1-1,1.8-1c0.2,0,0.4,0,0.6,0.1V68.1z"/>
			</g>
		</g>
		<g id="Firewall-top" transform="translate(246.000000, 46.000000)">
			<g id="Rectangle-3_1_">
				<g id="path-3-link">
					<path id="path-3" d="M50.7,28.4h110l8-7l8,7h11.1l0,0c1.1,0,2,0.9,2,2v34l0,0c0,1.1-0.9,2-2,2h-137l0,0c-1.1,0-2-0.9-2-2v-34
						l0,0C48.7,29.3,49.6,28.4,50.7,28.4z"/>
				</g>
				<g id="path-3-link_1_">
					<path id="path-3_1_" class="st1" d="M50.7,28.4h110l8-7l8,7h11.1l0,0c1.1,0,2,0.9,2,2v34l0,0c0,1.1-0.9,2-2,2h-137l0,0
						c-1.1,0-2-0.9-2-2v-34l0,0C48.7,29.3,49.6,28.4,50.7,28.4z"/>
				</g>
				<path id="Shape_1_" class="st2" d="M168.7,22l-7.8,6.8H50.7c-0.8,0-1.5,0.7-1.5,1.5v34c0,0.8,0.7,1.5,1.5,1.5h137
					c0.8,0,1.5-0.7,1.5-1.5v-34c0-0.8-0.7-1.5-1.5-1.5h-11.2L168.7,22z"/>
			</g>
			<g id="Firewall---CiscoP-X" transform="translate(12.000000, 16.000000)">
				<path d="M55.4,32h-4.2v4.4h-1.3v-10h6.2v1.1h-4.9v3.4h4.2V32z M58.8,36.4h-1.3V29h1.3V36.4z M57.4,27c0-0.2,0.1-0.4,0.2-0.5
					c0.1-0.1,0.3-0.2,0.6-0.2s0.4,0.1,0.6,0.2c0.1,0.1,0.2,0.3,0.2,0.5c0,0.2-0.1,0.4-0.2,0.5c-0.1,0.1-0.3,0.2-0.6,0.2
					s-0.4-0.1-0.6-0.2C57.5,27.4,57.4,27.2,57.4,27z M64.4,30.1c-0.2,0-0.4,0-0.6,0c-0.8,0-1.4,0.4-1.7,1.1v5.2h-1.3V29h1.2l0,0.9
					c0.4-0.7,1-1,1.8-1c0.2,0,0.4,0,0.6,0.1V30.1z M68.6,36.5c-1,0-1.8-0.3-2.4-1c-0.6-0.7-0.9-1.5-0.9-2.6v-0.2
					c0-0.7,0.1-1.4,0.4-2s0.7-1,1.2-1.4c0.5-0.3,1-0.5,1.6-0.5c1,0,1.7,0.3,2.2,1s0.8,1.5,0.8,2.7V33h-5c0,0.7,0.2,1.3,0.6,1.8
					c0.4,0.4,0.9,0.7,1.6,0.7c0.4,0,0.8-0.1,1.1-0.3s0.6-0.4,0.8-0.7l0.8,0.6C70.8,36,69.9,36.5,68.6,36.5z M68.5,29.9
					c-0.5,0-0.9,0.2-1.3,0.6c-0.3,0.4-0.6,0.9-0.6,1.6h3.7v-0.1c0-0.6-0.2-1.1-0.5-1.5C69.4,30.1,69,29.9,68.5,29.9z M79.5,34.6
					L81,29h1.3l-2.2,7.4h-1l-1.8-5.6l-1.8,5.6h-1L72.3,29h1.3l1.5,5.5l1.7-5.5h1L79.5,34.6z M88.1,36.4c-0.1-0.1-0.1-0.4-0.2-0.8
					c-0.6,0.6-1.3,0.9-2.1,0.9c-0.7,0-1.3-0.2-1.8-0.6s-0.7-0.9-0.7-1.6c0-0.8,0.3-1.4,0.9-1.8s1.4-0.6,2.5-0.6h1.2v-0.6
					c0-0.4-0.1-0.8-0.4-1.1c-0.3-0.3-0.7-0.4-1.2-0.4c-0.5,0-0.8,0.1-1.1,0.3c-0.3,0.2-0.5,0.5-0.5,0.8h-1.3c0-0.4,0.1-0.7,0.4-1.1
					c0.3-0.3,0.6-0.6,1.1-0.8c0.4-0.2,0.9-0.3,1.5-0.3c0.9,0,1.5,0.2,2,0.6s0.7,1,0.8,1.8v3.4c0,0.7,0.1,1.2,0.3,1.6v0.1H88.1z
					 M86,35.4c0.4,0,0.8-0.1,1.1-0.3c0.4-0.2,0.6-0.5,0.8-0.8v-1.5h-1c-1.5,0-2.3,0.5-2.3,1.4c0,0.4,0.1,0.7,0.4,0.9
					S85.6,35.4,86,35.4z M92.5,36.4h-1.3V25.9h1.3V36.4z M95.9,36.4h-1.3V25.9h1.3V36.4z M104,32.7h-3.3v-1h3.3V32.7z M116.2,33.2
					c-0.1,1.1-0.5,1.9-1.2,2.4c-0.7,0.6-1.5,0.9-2.6,0.9c-1.2,0-2.1-0.4-2.8-1.3c-0.7-0.8-1.1-2-1.1-3.4v-1c0-0.9,0.2-1.7,0.5-2.4
					c0.3-0.7,0.8-1.2,1.4-1.6s1.3-0.6,2.1-0.6c1.1,0,1.9,0.3,2.5,0.9c0.6,0.6,1,1.4,1.1,2.5h-1.3c-0.1-0.8-0.4-1.4-0.7-1.7
					s-0.9-0.5-1.6-0.5c-0.8,0-1.5,0.3-2,0.9s-0.7,1.5-0.7,2.6v1c0,1.1,0.2,1.9,0.7,2.6c0.5,0.6,1.1,1,1.9,1c0.7,0,1.3-0.2,1.7-0.5
					c0.4-0.3,0.6-0.9,0.8-1.7H116.2z M119.2,36.4h-1.3V29h1.3V36.4z M117.8,27c0-0.2,0.1-0.4,0.2-0.5c0.1-0.1,0.3-0.2,0.6-0.2
					s0.4,0.1,0.6,0.2c0.1,0.1,0.2,0.3,0.2,0.5c0,0.2-0.1,0.4-0.2,0.5c-0.1,0.1-0.3,0.2-0.6,0.2s-0.4-0.1-0.6-0.2
					C117.9,27.4,117.8,27.2,117.8,27z M125.5,34.4c0-0.3-0.1-0.6-0.4-0.8c-0.3-0.2-0.7-0.4-1.3-0.5c-0.6-0.1-1.1-0.3-1.5-0.5
					c-0.4-0.2-0.7-0.4-0.8-0.7c-0.2-0.3-0.3-0.6-0.3-0.9c0-0.6,0.3-1.1,0.8-1.5s1.2-0.6,2-0.6c0.8,0,1.5,0.2,2,0.6s0.8,1,0.8,1.7
					h-1.3c0-0.3-0.1-0.6-0.4-0.9s-0.7-0.4-1.1-0.4c-0.5,0-0.8,0.1-1.1,0.3s-0.4,0.5-0.4,0.8c0,0.3,0.1,0.5,0.4,0.7
					c0.2,0.2,0.7,0.3,1.3,0.4c0.6,0.1,1.1,0.3,1.5,0.5s0.7,0.4,0.9,0.7c0.2,0.3,0.3,0.6,0.3,1c0,0.7-0.3,1.2-0.8,1.6
					c-0.5,0.4-1.2,0.6-2.1,0.6c-0.6,0-1.1-0.1-1.6-0.3s-0.8-0.5-1.1-0.9c-0.3-0.4-0.4-0.8-0.4-1.2h1.3c0,0.4,0.2,0.8,0.5,1
					c0.3,0.2,0.7,0.4,1.3,0.4c0.5,0,0.9-0.1,1.2-0.3C125.4,35,125.5,34.7,125.5,34.4z M131.4,35.5c0.5,0,0.8-0.1,1.2-0.4
					c0.3-0.3,0.5-0.6,0.6-1h1.2c0,0.4-0.2,0.8-0.4,1.2c-0.3,0.4-0.6,0.7-1.1,0.9c-0.4,0.2-0.9,0.3-1.4,0.3c-1,0-1.8-0.3-2.4-1
					c-0.6-0.7-0.9-1.6-0.9-2.8v-0.2c0-0.7,0.1-1.4,0.4-1.9c0.3-0.6,0.6-1,1.1-1.3c0.5-0.3,1.1-0.5,1.8-0.5c0.8,0,1.5,0.2,2.1,0.7
					c0.5,0.5,0.8,1.1,0.9,1.9h-1.2c0-0.5-0.2-0.9-0.5-1.2s-0.7-0.5-1.2-0.5c-0.6,0-1.1,0.2-1.5,0.7c-0.4,0.5-0.5,1.1-0.5,2v0.2
					c0,0.9,0.2,1.5,0.5,2S130.8,35.5,131.4,35.5z M135.4,32.6c0-0.7,0.1-1.4,0.4-2s0.7-1,1.2-1.3s1.1-0.5,1.7-0.5c1,0,1.8,0.3,2.4,1
					s0.9,1.6,0.9,2.8v0.1c0,0.7-0.1,1.4-0.4,1.9c-0.3,0.6-0.7,1-1.2,1.3s-1.1,0.5-1.8,0.5c-1,0-1.8-0.3-2.4-1S135.4,33.8,135.4,32.6
					L135.4,32.6z M136.7,32.8c0,0.8,0.2,1.5,0.6,2c0.4,0.5,0.9,0.7,1.5,0.7c0.6,0,1.2-0.3,1.5-0.8c0.4-0.5,0.6-1.2,0.6-2.1
					c0-0.8-0.2-1.5-0.6-2c-0.4-0.5-0.9-0.8-1.5-0.8c-0.6,0-1.1,0.2-1.5,0.7C136.9,31.1,136.7,31.8,136.7,32.8z M145.3,32.5v3.9h-1.3
					v-10h3.7c1.1,0,1.9,0.3,2.6,0.8c0.6,0.6,0.9,1.3,0.9,2.2c0,1-0.3,1.7-0.9,2.2c-0.6,0.5-1.5,0.8-2.6,0.8H145.3z M145.3,31.4h2.4
					c0.7,0,1.2-0.2,1.6-0.5c0.4-0.3,0.6-0.8,0.6-1.4c0-0.6-0.2-1.1-0.6-1.4s-0.9-0.5-1.5-0.6h-2.4V31.4z M155.2,32.7h-3.3v-1h3.3
					V32.7z M159.9,30.2l2.4-3.8h1.5l-3.1,4.9l3.2,5h-1.6l-2.4-3.9l-2.5,3.9h-1.6l3.2-5l-3.2-4.9h1.5L159.9,30.2z"/>
			</g>
		</g>
		<g id="Group-20-Copy-2" transform="translate(127.000000, 241.000000)">
			<g id="_x34_-Unlike-Cloud">
				<g id="Unlike-Cloud-bottom">
					<g id="Rectangle-3_2_">
						<g id="path-5-link">
							<path id="path-5" d="M50.5,22.2h366l0,0c1.1,0,2,0.9,2,2v72.9l0,0c0,1.1-0.9,2-2,2h-11l-8,7.3l-8-7.3h-339l0,0
								c-1.1,0-2-0.9-2-2V24.2l0,0C48.5,23.1,49.4,22.2,50.5,22.2L50.5,22.2z"/>
						</g>
						<g id="path-5-link_1_">
							<path id="path-5_1_" class="st1" d="M50.5,22.2h366l0,0c1.1,0,2,0.9,2,2v72.9l0,0c0,1.1-0.9,2-2,2h-11l-8,7.3l-8-7.3h-339
								l0,0c-1.1,0-2-0.9-2-2V24.2l0,0C48.5,23.1,49.4,22.2,50.5,22.2L50.5,22.2z"/>
						</g>
						<path id="Shape_2_" class="st2" d="M397.5,105.7l7.8-7.1h11.2c0.8,0,1.5-0.7,1.5-1.5V24.2c0-0.8-0.7-1.5-1.5-1.5h-366
							c-0.8,0-1.5,0.7-1.5,1.5v72.9c0,0.8,0.7,1.5,1.5,1.5h339.2L397.5,105.7z"/>
					</g>
					<path id="Unlike-Cloud-Servers_x2C_-these-instances-are-specifically" d="M68.7,36.4v6.8c0,0.9-0.3,1.7-0.9,2.3
						s-1.4,0.9-2.4,1l-0.3,0c-1.1,0-2-0.3-2.6-0.9s-1-1.4-1-2.4v-6.8h1.3v6.7c0,0.7,0.2,1.3,0.6,1.7s1,0.6,1.7,0.6
						c0.7,0,1.3-0.2,1.7-0.6c0.4-0.4,0.6-1,0.6-1.7v-6.7H68.7z M71.7,39l0,0.9c0.6-0.7,1.3-1.1,2.2-1.1c1.6,0,2.4,0.9,2.4,2.6v4.9
						h-1.3v-4.9c0-0.5-0.1-0.9-0.4-1.2c-0.2-0.3-0.6-0.4-1.1-0.4c-0.4,0-0.8,0.1-1.1,0.3c-0.3,0.2-0.6,0.5-0.7,0.9v5.3h-1.3V39H71.7
						z M79.6,46.4h-1.3V35.9h1.3V46.4z M83,46.4h-1.3V39H83V46.4z M81.7,37c0-0.2,0.1-0.4,0.2-0.5c0.1-0.1,0.3-0.2,0.6-0.2
						s0.4,0.1,0.6,0.2c0.1,0.1,0.2,0.3,0.2,0.5c0,0.2-0.1,0.4-0.2,0.5s-0.3,0.2-0.6,0.2s-0.4-0.1-0.6-0.2
						C81.7,37.4,81.7,37.2,81.7,37z M87.1,42.9l-0.8,0.8v2.6h-1.3V35.9h1.3v6.4l0.7-0.8l2.3-2.4h1.5L88,42.1l3.2,4.3h-1.5L87.1,42.9
						z M95.2,46.5c-1,0-1.8-0.3-2.4-1s-0.9-1.5-0.9-2.6v-0.2c0-0.7,0.1-1.4,0.4-2s0.7-1,1.2-1.4s1-0.5,1.6-0.5c1,0,1.7,0.3,2.2,1
						c0.5,0.6,0.8,1.5,0.8,2.7V43h-5c0,0.7,0.2,1.3,0.6,1.8c0.4,0.4,0.9,0.7,1.6,0.7c0.4,0,0.8-0.1,1.1-0.3s0.6-0.4,0.8-0.7l0.8,0.6
						C97.4,46,96.5,46.5,95.2,46.5z M95.1,39.9c-0.5,0-0.9,0.2-1.3,0.6s-0.6,0.9-0.6,1.6h3.7v-0.1c0-0.6-0.2-1.1-0.5-1.5
						S95.6,39.9,95.1,39.9z M110.6,43.2c-0.1,1.1-0.5,1.9-1.2,2.4c-0.7,0.6-1.5,0.9-2.6,0.9c-1.2,0-2.1-0.4-2.8-1.3
						c-0.7-0.8-1.1-2-1.1-3.4v-1c0-0.9,0.2-1.7,0.5-2.4c0.3-0.7,0.8-1.2,1.4-1.6c0.6-0.4,1.3-0.6,2.1-0.6c1.1,0,1.9,0.3,2.5,0.9
						s1,1.4,1.1,2.5h-1.3c-0.1-0.8-0.4-1.4-0.7-1.7c-0.4-0.4-0.9-0.5-1.6-0.5c-0.8,0-1.5,0.3-2,0.9c-0.5,0.6-0.7,1.5-0.7,2.6v1
						c0,1.1,0.2,1.9,0.7,2.6s1.1,1,1.9,1c0.7,0,1.3-0.2,1.7-0.5s0.6-0.9,0.8-1.7H110.6z M113.5,46.4h-1.3V35.9h1.3V46.4z
						 M115.2,42.6c0-0.7,0.1-1.4,0.4-2c0.3-0.6,0.7-1,1.2-1.3c0.5-0.3,1.1-0.5,1.7-0.5c1,0,1.8,0.3,2.4,1s0.9,1.6,0.9,2.8v0.1
						c0,0.7-0.1,1.4-0.4,1.9c-0.3,0.6-0.7,1-1.2,1.3s-1.1,0.5-1.8,0.5c-1,0-1.8-0.3-2.4-1S115.2,43.8,115.2,42.6L115.2,42.6z
						 M116.5,42.8c0,0.8,0.2,1.5,0.6,2c0.4,0.5,0.9,0.7,1.5,0.7c0.6,0,1.2-0.3,1.5-0.8c0.4-0.5,0.6-1.2,0.6-2.1c0-0.8-0.2-1.5-0.6-2
						c-0.4-0.5-0.9-0.8-1.5-0.8c-0.6,0-1.1,0.2-1.5,0.7C116.7,41.1,116.5,41.8,116.5,42.8z M128.1,45.6c-0.5,0.6-1.2,0.9-2.2,0.9
						c-0.8,0-1.4-0.2-1.8-0.7c-0.4-0.5-0.6-1.1-0.6-2V39h1.3v4.8c0,1.1,0.5,1.7,1.4,1.7c1,0,1.6-0.4,1.9-1.1V39h1.3v7.4h-1.2
						L128.1,45.6z M130.9,42.6c0-1.1,0.3-2,0.8-2.7s1.2-1,2.1-1c0.9,0,1.6,0.3,2.1,0.9v-3.9h1.3v10.5H136l-0.1-0.8
						c-0.5,0.6-1.2,0.9-2.1,0.9c-0.9,0-1.6-0.4-2.1-1.1C131.2,44.8,130.9,43.8,130.9,42.6L130.9,42.6z M132.2,42.8
						c0,0.8,0.2,1.5,0.5,2s0.8,0.7,1.4,0.7c0.8,0,1.4-0.4,1.8-1.1V41c-0.4-0.7-1-1-1.7-1c-0.6,0-1.1,0.2-1.4,0.7
						C132.4,41.1,132.2,41.8,132.2,42.8z M145.7,41.9c-1.1-0.3-1.9-0.7-2.5-1.2c-0.5-0.5-0.8-1.1-0.8-1.7c0-0.8,0.3-1.4,0.9-1.9
						c0.6-0.5,1.4-0.8,2.4-0.8c0.7,0,1.3,0.1,1.8,0.4s1,0.6,1.2,1.1c0.3,0.5,0.4,1,0.4,1.5h-1.3c0-0.6-0.2-1.1-0.6-1.4
						s-0.9-0.5-1.6-0.5c-0.6,0-1.2,0.1-1.5,0.4s-0.5,0.7-0.5,1.2c0,0.4,0.2,0.7,0.5,1c0.3,0.3,0.9,0.5,1.8,0.8
						c0.8,0.2,1.5,0.5,1.9,0.8c0.5,0.3,0.8,0.6,1,1s0.3,0.8,0.3,1.3c0,0.8-0.3,1.5-0.9,1.9c-0.6,0.5-1.5,0.7-2.5,0.7
						c-0.7,0-1.3-0.1-1.9-0.4c-0.6-0.3-1-0.6-1.4-1.1c-0.3-0.5-0.5-1-0.5-1.6h1.3c0,0.6,0.2,1.1,0.7,1.4c0.4,0.3,1,0.5,1.8,0.5
						c0.7,0,1.2-0.1,1.6-0.4c0.4-0.3,0.6-0.7,0.6-1.2s-0.2-0.9-0.5-1.1C147.3,42.5,146.6,42.2,145.7,41.9z M154,46.5
						c-1,0-1.8-0.3-2.4-1s-0.9-1.5-0.9-2.6v-0.2c0-0.7,0.1-1.4,0.4-2s0.7-1,1.2-1.4s1-0.5,1.6-0.5c1,0,1.7,0.3,2.2,1
						c0.5,0.6,0.8,1.5,0.8,2.7V43h-5c0,0.7,0.2,1.3,0.6,1.8c0.4,0.4,0.9,0.7,1.6,0.7c0.4,0,0.8-0.1,1.1-0.3s0.6-0.4,0.8-0.7l0.8,0.6
						C156.2,46,155.2,46.5,154,46.5z M153.8,39.9c-0.5,0-0.9,0.2-1.3,0.6s-0.6,0.9-0.6,1.6h3.7v-0.1c0-0.6-0.2-1.1-0.5-1.5
						S154.4,39.9,153.8,39.9z M161.9,40.1c-0.2,0-0.4,0-0.6,0c-0.8,0-1.4,0.4-1.7,1.1v5.2h-1.3V39h1.2l0,0.9c0.4-0.7,1-1,1.8-1
						c0.2,0,0.4,0,0.6,0.1V40.1z M165.6,44.7l1.8-5.7h1.3l-2.7,7.4h-1l-2.7-7.4h1.3L165.6,44.7z M173,46.5c-1,0-1.8-0.3-2.4-1
						s-0.9-1.5-0.9-2.6v-0.2c0-0.7,0.1-1.4,0.4-2s0.7-1,1.2-1.4s1-0.5,1.6-0.5c1,0,1.7,0.3,2.2,1c0.5,0.6,0.8,1.5,0.8,2.7V43h-5
						c0,0.7,0.2,1.3,0.6,1.8c0.4,0.4,0.9,0.7,1.6,0.7c0.4,0,0.8-0.1,1.1-0.3s0.6-0.4,0.8-0.7l0.8,0.6C175.2,46,174.3,46.5,173,46.5z
						 M172.9,39.9c-0.5,0-0.9,0.2-1.3,0.6S171,41.3,171,42h3.7v-0.1c0-0.6-0.2-1.1-0.5-1.5S173.4,39.9,172.9,39.9z M181,40.1
						c-0.2,0-0.4,0-0.6,0c-0.8,0-1.4,0.4-1.7,1.1v5.2h-1.3V39h1.2l0,0.9c0.4-0.7,1-1,1.8-1c0.2,0,0.4,0,0.6,0.1V40.1z M186.4,44.4
						c0-0.3-0.1-0.6-0.4-0.8s-0.7-0.4-1.3-0.5s-1.1-0.3-1.5-0.5c-0.4-0.2-0.7-0.4-0.8-0.7s-0.3-0.6-0.3-0.9c0-0.6,0.3-1.1,0.8-1.5
						s1.2-0.6,2-0.6c0.8,0,1.5,0.2,2,0.6c0.5,0.4,0.8,1,0.8,1.7h-1.3c0-0.3-0.1-0.6-0.4-0.9s-0.7-0.4-1.1-0.4
						c-0.5,0-0.8,0.1-1.1,0.3c-0.3,0.2-0.4,0.5-0.4,0.8c0,0.3,0.1,0.5,0.4,0.7s0.7,0.3,1.3,0.4s1.1,0.3,1.5,0.5s0.7,0.4,0.9,0.7
						c0.2,0.3,0.3,0.6,0.3,1c0,0.7-0.3,1.2-0.8,1.6c-0.5,0.4-1.2,0.6-2.1,0.6c-0.6,0-1.1-0.1-1.6-0.3s-0.8-0.5-1.1-0.9
						c-0.3-0.4-0.4-0.8-0.4-1.2h1.3c0,0.4,0.2,0.8,0.5,1c0.3,0.2,0.7,0.4,1.3,0.4c0.5,0,0.9-0.1,1.2-0.3
						C186.3,45,186.4,44.7,186.4,44.4z M189.3,48.4l-0.7-0.5c0.4-0.6,0.7-1.2,0.7-1.8v-1.1h1.2v1c0,0.5-0.1,0.9-0.3,1.4
						S189.6,48.1,189.3,48.4z M197.3,37.2V39h1.4v1h-1.4v4.6c0,0.3,0.1,0.5,0.2,0.7s0.3,0.2,0.6,0.2c0.1,0,0.3,0,0.6-0.1v1
						c-0.3,0.1-0.7,0.1-1,0.1c-0.6,0-1-0.2-1.3-0.5c-0.3-0.3-0.4-0.8-0.4-1.5V40h-1.3v-1h1.3v-1.8H197.3z M201.4,39.9
						c0.6-0.7,1.3-1,2.2-1c1.6,0,2.4,0.9,2.4,2.6v4.9h-1.3v-4.9c0-0.5-0.1-0.9-0.4-1.2c-0.2-0.3-0.6-0.4-1.1-0.4
						c-0.4,0-0.8,0.1-1.1,0.3c-0.3,0.2-0.6,0.5-0.7,0.9v5.3h-1.3V35.9h1.3V39.9z M210.9,46.5c-1,0-1.8-0.3-2.4-1s-0.9-1.5-0.9-2.6
						v-0.2c0-0.7,0.1-1.4,0.4-2s0.7-1,1.2-1.4s1-0.5,1.6-0.5c1,0,1.7,0.3,2.2,1c0.5,0.6,0.8,1.5,0.8,2.7V43h-5
						c0,0.7,0.2,1.3,0.6,1.8c0.4,0.4,0.9,0.7,1.6,0.7c0.4,0,0.8-0.1,1.1-0.3s0.6-0.4,0.8-0.7l0.8,0.6
						C213.1,46,212.2,46.5,210.9,46.5z M210.8,39.9c-0.5,0-0.9,0.2-1.3,0.6s-0.6,0.9-0.6,1.6h3.7v-0.1c0-0.6-0.2-1.1-0.5-1.5
						S211.3,39.9,210.8,39.9z M219.6,44.4c0-0.3-0.1-0.6-0.4-0.8s-0.7-0.4-1.3-0.5s-1.1-0.3-1.5-0.5c-0.4-0.2-0.7-0.4-0.8-0.7
						s-0.3-0.6-0.3-0.9c0-0.6,0.3-1.1,0.8-1.5s1.2-0.6,2-0.6c0.8,0,1.5,0.2,2,0.6c0.5,0.4,0.8,1,0.8,1.7h-1.3c0-0.3-0.1-0.6-0.4-0.9
						s-0.7-0.4-1.1-0.4c-0.5,0-0.8,0.1-1.1,0.3c-0.3,0.2-0.4,0.5-0.4,0.8c0,0.3,0.1,0.5,0.4,0.7s0.7,0.3,1.3,0.4s1.1,0.3,1.5,0.5
						s0.7,0.4,0.9,0.7c0.2,0.3,0.3,0.6,0.3,1c0,0.7-0.3,1.2-0.8,1.6c-0.5,0.4-1.2,0.6-2.1,0.6c-0.6,0-1.1-0.1-1.6-0.3
						s-0.8-0.5-1.1-0.9c-0.3-0.4-0.4-0.8-0.4-1.2h1.3c0,0.4,0.2,0.8,0.5,1c0.3,0.2,0.7,0.4,1.3,0.4c0.5,0,0.9-0.1,1.2-0.3
						C219.4,45,219.6,44.7,219.6,44.4z M225.5,46.5c-1,0-1.8-0.3-2.4-1s-0.9-1.5-0.9-2.6v-0.2c0-0.7,0.1-1.4,0.4-2s0.7-1,1.2-1.4
						s1-0.5,1.6-0.5c1,0,1.7,0.3,2.2,1c0.5,0.6,0.8,1.5,0.8,2.7V43h-5c0,0.7,0.2,1.3,0.6,1.8c0.4,0.4,0.9,0.7,1.6,0.7
						c0.4,0,0.8-0.1,1.1-0.3s0.6-0.4,0.8-0.7l0.8,0.6C227.7,46,226.8,46.5,225.5,46.5z M225.4,39.9c-0.5,0-0.9,0.2-1.3,0.6
						s-0.6,0.9-0.6,1.6h3.7v-0.1c0-0.6-0.2-1.1-0.5-1.5S225.9,39.9,225.4,39.9z M234.7,46.4h-1.3V39h1.3V46.4z M233.4,37
						c0-0.2,0.1-0.4,0.2-0.5c0.1-0.1,0.3-0.2,0.6-0.2s0.4,0.1,0.6,0.2c0.1,0.1,0.2,0.3,0.2,0.5c0,0.2-0.1,0.4-0.2,0.5
						s-0.3,0.2-0.6,0.2s-0.4-0.1-0.6-0.2S233.4,37.2,233.4,37z M238,39l0,0.9c0.6-0.7,1.3-1.1,2.2-1.1c1.6,0,2.4,0.9,2.4,2.6v4.9
						h-1.3v-4.9c0-0.5-0.1-0.9-0.4-1.2c-0.2-0.3-0.6-0.4-1.1-0.4c-0.4,0-0.8,0.1-1.1,0.3c-0.3,0.2-0.6,0.5-0.7,0.9v5.3h-1.3V39H238z
						 M248.8,44.4c0-0.3-0.1-0.6-0.4-0.8s-0.7-0.4-1.3-0.5s-1.1-0.3-1.5-0.5c-0.4-0.2-0.7-0.4-0.8-0.7s-0.3-0.6-0.3-0.9
						c0-0.6,0.3-1.1,0.8-1.5s1.2-0.6,2-0.6c0.8,0,1.5,0.2,2,0.6c0.5,0.4,0.8,1,0.8,1.7h-1.3c0-0.3-0.1-0.6-0.4-0.9s-0.7-0.4-1.1-0.4
						c-0.5,0-0.8,0.1-1.1,0.3c-0.3,0.2-0.4,0.5-0.4,0.8c0,0.3,0.1,0.5,0.4,0.7s0.7,0.3,1.3,0.4s1.1,0.3,1.5,0.5s0.7,0.4,0.9,0.7
						c0.2,0.3,0.3,0.6,0.3,1c0,0.7-0.3,1.2-0.8,1.6c-0.5,0.4-1.2,0.6-2.1,0.6c-0.6,0-1.1-0.1-1.6-0.3s-0.8-0.5-1.1-0.9
						c-0.3-0.4-0.4-0.8-0.4-1.2h1.3c0,0.4,0.2,0.8,0.5,1c0.3,0.2,0.7,0.4,1.3,0.4c0.5,0,0.9-0.1,1.2-0.3
						C248.6,45,248.8,44.7,248.8,44.4z M253.4,37.2V39h1.4v1h-1.4v4.6c0,0.3,0.1,0.5,0.2,0.7s0.3,0.2,0.6,0.2c0.1,0,0.3,0,0.6-0.1v1
						c-0.3,0.1-0.7,0.1-1,0.1c-0.6,0-1-0.2-1.3-0.5c-0.3-0.3-0.4-0.8-0.4-1.5V40h-1.3v-1h1.3v-1.8H253.4z M260.8,46.4
						c-0.1-0.1-0.1-0.4-0.2-0.8c-0.6,0.6-1.3,0.9-2.1,0.9c-0.7,0-1.3-0.2-1.8-0.6s-0.7-0.9-0.7-1.6c0-0.8,0.3-1.4,0.9-1.8
						s1.4-0.6,2.5-0.6h1.2v-0.6c0-0.4-0.1-0.8-0.4-1.1c-0.3-0.3-0.7-0.4-1.2-0.4c-0.5,0-0.8,0.1-1.1,0.3c-0.3,0.2-0.5,0.5-0.5,0.8
						h-1.3c0-0.4,0.1-0.7,0.4-1.1s0.6-0.6,1.1-0.8c0.4-0.2,0.9-0.3,1.5-0.3c0.9,0,1.5,0.2,2,0.6s0.7,1,0.8,1.8v3.4
						c0,0.7,0.1,1.2,0.3,1.6v0.1H260.8z M258.7,45.4c0.4,0,0.8-0.1,1.1-0.3c0.4-0.2,0.6-0.5,0.8-0.8v-1.5h-1c-1.5,0-2.3,0.5-2.3,1.4
						c0,0.4,0.1,0.7,0.4,0.9S258.3,45.4,258.7,45.4z M265.1,39l0,0.9c0.6-0.7,1.3-1.1,2.2-1.1c1.6,0,2.4,0.9,2.4,2.6v4.9h-1.3v-4.9
						c0-0.5-0.1-0.9-0.4-1.2c-0.2-0.3-0.6-0.4-1.1-0.4c-0.4,0-0.8,0.1-1.1,0.3c-0.3,0.2-0.6,0.5-0.7,0.9v5.3h-1.3V39H265.1z
						 M274.6,45.5c0.5,0,0.8-0.1,1.2-0.4c0.3-0.3,0.5-0.6,0.6-1h1.2c0,0.4-0.2,0.8-0.4,1.2c-0.3,0.4-0.6,0.7-1.1,0.9
						c-0.4,0.2-0.9,0.3-1.4,0.3c-1,0-1.8-0.3-2.4-1s-0.9-1.6-0.9-2.8v-0.2c0-0.7,0.1-1.4,0.4-1.9c0.3-0.6,0.6-1,1.1-1.3
						c0.5-0.3,1.1-0.5,1.8-0.5c0.8,0,1.5,0.2,2.1,0.7c0.5,0.5,0.8,1.1,0.9,1.9h-1.2c0-0.5-0.2-0.9-0.5-1.2c-0.3-0.3-0.7-0.5-1.2-0.5
						c-0.6,0-1.1,0.2-1.5,0.7c-0.4,0.5-0.5,1.1-0.5,2v0.2c0,0.9,0.2,1.5,0.5,2S273.9,45.5,274.6,45.5z M282,46.5c-1,0-1.8-0.3-2.4-1
						s-0.9-1.5-0.9-2.6v-0.2c0-0.7,0.1-1.4,0.4-2s0.7-1,1.2-1.4s1-0.5,1.6-0.5c1,0,1.7,0.3,2.2,1c0.5,0.6,0.8,1.5,0.8,2.7V43h-5
						c0,0.7,0.2,1.3,0.6,1.8c0.4,0.4,0.9,0.7,1.6,0.7c0.4,0,0.8-0.1,1.1-0.3s0.6-0.4,0.8-0.7l0.8,0.6C284.2,46,283.3,46.5,282,46.5z
						 M281.9,39.9c-0.5,0-0.9,0.2-1.3,0.6s-0.6,0.9-0.6,1.6h3.7v-0.1c0-0.6-0.2-1.1-0.5-1.5S282.4,39.9,281.9,39.9z M290.7,44.4
						c0-0.3-0.1-0.6-0.4-0.8s-0.7-0.4-1.3-0.5s-1.1-0.3-1.5-0.5c-0.4-0.2-0.7-0.4-0.8-0.7s-0.3-0.6-0.3-0.9c0-0.6,0.3-1.1,0.8-1.5
						s1.2-0.6,2-0.6c0.8,0,1.5,0.2,2,0.6c0.5,0.4,0.8,1,0.8,1.7h-1.3c0-0.3-0.1-0.6-0.4-0.9s-0.7-0.4-1.1-0.4
						c-0.5,0-0.8,0.1-1.1,0.3c-0.3,0.2-0.4,0.5-0.4,0.8c0,0.3,0.1,0.5,0.4,0.7s0.7,0.3,1.3,0.4s1.1,0.3,1.5,0.5s0.7,0.4,0.9,0.7
						c0.2,0.3,0.3,0.6,0.3,1c0,0.7-0.3,1.2-0.8,1.6c-0.5,0.4-1.2,0.6-2.1,0.6c-0.6,0-1.1-0.1-1.6-0.3s-0.8-0.5-1.1-0.9
						c-0.3-0.4-0.4-0.8-0.4-1.2h1.3c0,0.4,0.2,0.8,0.5,1c0.3,0.2,0.7,0.4,1.3,0.4c0.5,0,0.9-0.1,1.2-0.3
						C290.5,45,290.7,44.7,290.7,44.4z M301.6,46.4c-0.1-0.1-0.1-0.4-0.2-0.8c-0.6,0.6-1.3,0.9-2.1,0.9c-0.7,0-1.3-0.2-1.8-0.6
						c-0.5-0.4-0.7-0.9-0.7-1.6c0-0.8,0.3-1.4,0.9-1.8s1.4-0.6,2.5-0.6h1.2v-0.6c0-0.4-0.1-0.8-0.4-1.1c-0.3-0.3-0.7-0.4-1.2-0.4
						c-0.5,0-0.8,0.1-1.1,0.3c-0.3,0.2-0.5,0.5-0.5,0.8H297c0-0.4,0.1-0.7,0.4-1.1s0.6-0.6,1.1-0.8c0.4-0.2,0.9-0.3,1.5-0.3
						c0.9,0,1.5,0.2,2,0.6s0.7,1,0.8,1.8v3.4c0,0.7,0.1,1.2,0.3,1.6v0.1H301.6z M299.5,45.4c0.4,0,0.8-0.1,1.1-0.3
						c0.4-0.2,0.6-0.5,0.8-0.8v-1.5h-1c-1.5,0-2.3,0.5-2.3,1.4c0,0.4,0.1,0.7,0.4,0.9S299.1,45.4,299.5,45.4z M308.2,40.1
						c-0.2,0-0.4,0-0.6,0c-0.8,0-1.4,0.4-1.7,1.1v5.2h-1.3V39h1.2l0,0.9c0.4-0.7,1-1,1.8-1c0.2,0,0.4,0,0.6,0.1V40.1z M312.5,46.5
						c-1,0-1.8-0.3-2.4-1s-0.9-1.5-0.9-2.6v-0.2c0-0.7,0.1-1.4,0.4-2s0.7-1,1.2-1.4s1-0.5,1.6-0.5c1,0,1.7,0.3,2.2,1
						c0.5,0.6,0.8,1.5,0.8,2.7V43h-5c0,0.7,0.2,1.3,0.6,1.8c0.4,0.4,0.9,0.7,1.6,0.7c0.4,0,0.8-0.1,1.1-0.3s0.6-0.4,0.8-0.7l0.8,0.6
						C314.6,46,313.7,46.5,312.5,46.5z M312.3,39.9c-0.5,0-0.9,0.2-1.3,0.6s-0.6,0.9-0.6,1.6h3.7v-0.1c0-0.6-0.2-1.1-0.5-1.5
						S312.8,39.9,312.3,39.9z M324.6,44.4c0-0.3-0.1-0.6-0.4-0.8s-0.7-0.4-1.3-0.5s-1.1-0.3-1.5-0.5c-0.4-0.2-0.7-0.4-0.8-0.7
						s-0.3-0.6-0.3-0.9c0-0.6,0.3-1.1,0.8-1.5s1.2-0.6,2-0.6c0.8,0,1.5,0.2,2,0.6s0.8,1,0.8,1.7h-1.3c0-0.3-0.1-0.6-0.4-0.9
						s-0.7-0.4-1.1-0.4c-0.5,0-0.8,0.1-1.1,0.3c-0.3,0.2-0.4,0.5-0.4,0.8c0,0.3,0.1,0.5,0.4,0.7s0.7,0.3,1.3,0.4s1.1,0.3,1.5,0.5
						s0.7,0.4,0.9,0.7c0.2,0.3,0.3,0.6,0.3,1c0,0.7-0.3,1.2-0.8,1.6s-1.2,0.6-2.1,0.6c-0.6,0-1.1-0.1-1.6-0.3s-0.8-0.5-1.1-0.9
						c-0.3-0.4-0.4-0.8-0.4-1.2h1.3c0,0.4,0.2,0.8,0.5,1c0.3,0.2,0.7,0.4,1.3,0.4c0.5,0,0.9-0.1,1.2-0.3
						C324.4,45,324.6,44.7,324.6,44.4z M333.7,42.8c0,1.1-0.3,2-0.8,2.7c-0.5,0.7-1.2,1-2.1,1c-0.9,0-1.6-0.3-2.1-0.9v3.6h-1.3V39
						h1.2l0.1,0.8c0.5-0.6,1.2-1,2.1-1c0.9,0,1.6,0.3,2.1,1s0.8,1.6,0.8,2.8V42.8z M332.5,42.6c0-0.8-0.2-1.5-0.5-2
						c-0.4-0.5-0.8-0.7-1.5-0.7c-0.8,0-1.3,0.3-1.7,1v3.5c0.4,0.7,1,1,1.7,1c0.6,0,1.1-0.2,1.4-0.7S332.5,43.6,332.5,42.6z
						 M338.4,46.5c-1,0-1.8-0.3-2.4-1S335,44,335,42.9v-0.2c0-0.7,0.1-1.4,0.4-2s0.7-1,1.2-1.4s1-0.5,1.6-0.5c1,0,1.7,0.3,2.2,1
						c0.5,0.6,0.8,1.5,0.8,2.7V43h-5c0,0.7,0.2,1.3,0.6,1.8c0.4,0.4,0.9,0.7,1.6,0.7c0.4,0,0.8-0.1,1.1-0.3s0.6-0.4,0.8-0.7l0.8,0.6
						C340.6,46,339.7,46.5,338.4,46.5z M338.3,39.9c-0.5,0-0.9,0.2-1.3,0.6s-0.6,0.9-0.6,1.6h3.7v-0.1c0-0.6-0.2-1.1-0.5-1.5
						S338.8,39.9,338.3,39.9z M345.7,45.5c0.5,0,0.8-0.1,1.2-0.4c0.3-0.3,0.5-0.6,0.6-1h1.2c0,0.4-0.2,0.8-0.4,1.2
						c-0.3,0.4-0.6,0.7-1.1,0.9c-0.4,0.2-0.9,0.3-1.4,0.3c-1,0-1.8-0.3-2.4-1s-0.9-1.6-0.9-2.8v-0.2c0-0.7,0.1-1.4,0.4-1.9
						c0.3-0.6,0.6-1,1.1-1.3s1.1-0.5,1.8-0.5c0.8,0,1.5,0.2,2.1,0.7c0.5,0.5,0.8,1.1,0.9,1.9h-1.2c0-0.5-0.2-0.9-0.5-1.2
						c-0.3-0.3-0.7-0.5-1.2-0.5c-0.6,0-1.1,0.2-1.5,0.7c-0.4,0.5-0.5,1.1-0.5,2v0.2c0,0.9,0.2,1.5,0.5,2S345.1,45.5,345.7,45.5z
						 M351.5,46.4h-1.3V39h1.3V46.4z M350.1,37c0-0.2,0.1-0.4,0.2-0.5c0.1-0.1,0.3-0.2,0.6-0.2s0.4,0.1,0.6,0.2
						c0.1,0.1,0.2,0.3,0.2,0.5c0,0.2-0.1,0.4-0.2,0.5s-0.3,0.2-0.6,0.2s-0.4-0.1-0.6-0.2S350.1,37.2,350.1,37z M354.1,46.4V40h-1.2
						v-1h1.2v-0.8c0-0.8,0.2-1.4,0.6-1.8s1-0.6,1.8-0.6c0.3,0,0.6,0,0.9,0.1l-0.1,1c-0.2,0-0.4-0.1-0.7-0.1c-0.4,0-0.7,0.1-1,0.4
						c-0.2,0.2-0.3,0.6-0.3,1V39h1.6v1h-1.6v6.4H354.1z M359.7,46.4h-1.3V39h1.3V46.4z M358.4,37c0-0.2,0.1-0.4,0.2-0.5
						c0.1-0.1,0.3-0.2,0.6-0.2s0.4,0.1,0.6,0.2c0.1,0.1,0.2,0.3,0.2,0.5c0,0.2-0.1,0.4-0.2,0.5s-0.3,0.2-0.6,0.2s-0.4-0.1-0.6-0.2
						S358.4,37.2,358.4,37z M364.7,45.5c0.5,0,0.8-0.1,1.2-0.4c0.3-0.3,0.5-0.6,0.6-1h1.2c0,0.4-0.2,0.8-0.4,1.2
						c-0.3,0.4-0.6,0.7-1.1,0.9c-0.4,0.2-0.9,0.3-1.4,0.3c-1,0-1.8-0.3-2.4-1s-0.9-1.6-0.9-2.8v-0.2c0-0.7,0.1-1.4,0.4-1.9
						c0.3-0.6,0.6-1,1.1-1.3s1.1-0.5,1.8-0.5c0.8,0,1.5,0.2,2.1,0.7c0.5,0.5,0.8,1.1,0.9,1.9h-1.2c0-0.5-0.2-0.9-0.5-1.2
						c-0.3-0.3-0.7-0.5-1.2-0.5c-0.6,0-1.1,0.2-1.5,0.7c-0.4,0.5-0.5,1.1-0.5,2v0.2c0,0.9,0.2,1.5,0.5,2S364.1,45.5,364.7,45.5z
						 M373.6,46.4c-0.1-0.1-0.1-0.4-0.2-0.8c-0.6,0.6-1.3,0.9-2.1,0.9c-0.7,0-1.3-0.2-1.8-0.6s-0.7-0.9-0.7-1.6
						c0-0.8,0.3-1.4,0.9-1.8s1.4-0.6,2.5-0.6h1.2v-0.6c0-0.4-0.1-0.8-0.4-1.1c-0.3-0.3-0.7-0.4-1.2-0.4c-0.5,0-0.8,0.1-1.1,0.3
						c-0.3,0.2-0.5,0.5-0.5,0.8H369c0-0.4,0.1-0.7,0.4-1.1s0.6-0.6,1.1-0.8c0.4-0.2,0.9-0.3,1.5-0.3c0.9,0,1.5,0.2,2,0.6
						s0.7,1,0.8,1.8v3.4c0,0.7,0.1,1.2,0.3,1.6v0.1H373.6z M371.5,45.4c0.4,0,0.8-0.1,1.1-0.3c0.4-0.2,0.6-0.5,0.8-0.8v-1.5h-1
						c-1.5,0-2.3,0.5-2.3,1.4c0,0.4,0.1,0.7,0.4,0.9S371.1,45.4,371.5,45.4z M378.1,46.4h-1.3V35.9h1.3V46.4z M381.5,46.4h-1.3V35.9
						h1.3V46.4z M385.9,44.5l1.7-5.5h1.4l-3,8.5c-0.5,1.2-1.2,1.8-2.2,1.8l-0.2,0l-0.5-0.1v-1l0.3,0c0.4,0,0.8-0.1,1-0.3
						c0.2-0.2,0.4-0.5,0.6-1l0.3-0.8l-2.6-7.3h1.4L385.9,44.5z"/>
					<path id="optimized-for-running-databases-in-cloud-environments." d="M61.1,61.6c0-0.7,0.1-1.4,0.4-2s0.7-1,1.2-1.3
						s1.1-0.5,1.7-0.5c1,0,1.8,0.3,2.4,1s0.9,1.6,0.9,2.8v0.1c0,0.7-0.1,1.4-0.4,1.9c-0.3,0.6-0.7,1-1.2,1.3
						c-0.5,0.3-1.1,0.5-1.8,0.5c-1,0-1.8-0.3-2.4-1C61.4,63.8,61.1,62.8,61.1,61.6L61.1,61.6z M62.4,61.8c0,0.8,0.2,1.5,0.6,2
						c0.4,0.5,0.9,0.7,1.5,0.7c0.6,0,1.2-0.3,1.5-0.8c0.4-0.5,0.6-1.2,0.6-2.1c0-0.8-0.2-1.5-0.6-2s-0.9-0.8-1.5-0.8
						c-0.6,0-1.1,0.2-1.5,0.7S62.4,60.8,62.4,61.8z M75.7,61.8c0,1.1-0.3,2-0.8,2.7s-1.2,1-2.1,1c-0.9,0-1.6-0.3-2.1-0.9v3.6h-1.3
						V58h1.2l0.1,0.8c0.5-0.6,1.2-1,2.1-1c0.9,0,1.6,0.3,2.1,1s0.8,1.6,0.8,2.8V61.8z M74.4,61.6c0-0.8-0.2-1.5-0.5-2
						s-0.8-0.7-1.5-0.7c-0.8,0-1.3,0.3-1.7,1v3.5c0.4,0.7,1,1,1.7,1c0.6,0,1.1-0.2,1.4-0.7S74.4,62.6,74.4,61.6z M79,56.2V58h1.4v1
						H79v4.6c0,0.3,0.1,0.5,0.2,0.7c0.1,0.1,0.3,0.2,0.6,0.2c0.1,0,0.3,0,0.6-0.1v1c-0.3,0.1-0.7,0.1-1,0.1c-0.6,0-1-0.2-1.3-0.5
						s-0.4-0.8-0.4-1.5V59h-1.3v-1h1.3v-1.8H79z M83.2,65.4H82V58h1.3V65.4z M81.9,56c0-0.2,0.1-0.4,0.2-0.5s0.3-0.2,0.6-0.2
						s0.4,0.1,0.6,0.2s0.2,0.3,0.2,0.5s-0.1,0.4-0.2,0.5s-0.3,0.2-0.6,0.2s-0.4-0.1-0.6-0.2S81.9,56.2,81.9,56z M86.5,58l0,0.8
						c0.5-0.6,1.3-1,2.2-1c1,0,1.7,0.4,2.1,1.2c0.2-0.4,0.6-0.6,1-0.9s0.9-0.3,1.4-0.3c1.6,0,2.4,0.9,2.5,2.6v5h-1.3v-4.9
						c0-0.5-0.1-0.9-0.4-1.2s-0.6-0.4-1.2-0.4c-0.5,0-0.9,0.1-1.2,0.4s-0.5,0.7-0.5,1.1v4.9h-1.3v-4.8c0-1.1-0.5-1.6-1.6-1.6
						c-0.8,0-1.4,0.4-1.7,1.1v5.4h-1.3V58H86.5z M98.9,65.4h-1.3V58h1.3V65.4z M97.5,56c0-0.2,0.1-0.4,0.2-0.5
						c0.1-0.1,0.3-0.2,0.6-0.2s0.4,0.1,0.6,0.2S99,55.8,99,56s-0.1,0.4-0.2,0.5s-0.3,0.2-0.6,0.2s-0.4-0.1-0.6-0.2
						C97.6,56.4,97.5,56.2,97.5,56z M102.1,64.3h4.3v1h-5.9v-0.9l4.1-5.4h-4v-1h5.6v0.9L102.1,64.3z M110.9,65.5c-1,0-1.8-0.3-2.4-1
						s-0.9-1.5-0.9-2.6v-0.2c0-0.7,0.1-1.4,0.4-2s0.7-1,1.2-1.4s1-0.5,1.6-0.5c1,0,1.7,0.3,2.2,1s0.8,1.5,0.8,2.7V62h-5
						c0,0.7,0.2,1.3,0.6,1.8c0.4,0.4,0.9,0.7,1.6,0.7c0.4,0,0.8-0.1,1.1-0.3c0.3-0.2,0.6-0.4,0.8-0.7l0.8,0.6
						C113.1,65,112.2,65.5,110.9,65.5z M110.8,58.9c-0.5,0-0.9,0.2-1.3,0.6s-0.6,0.9-0.6,1.6h3.7v-0.1c0-0.6-0.2-1.1-0.5-1.5
						S111.3,58.9,110.8,58.9z M115,61.6c0-1.1,0.3-2,0.8-2.7s1.2-1,2.1-1c0.9,0,1.6,0.3,2.1,0.9v-3.9h1.3v10.5h-1.2l-0.1-0.8
						c-0.5,0.6-1.2,0.9-2.1,0.9c-0.9,0-1.6-0.4-2.1-1.1S115,62.8,115,61.6L115,61.6z M116.2,61.8c0,0.8,0.2,1.5,0.5,2
						s0.8,0.7,1.4,0.7c0.8,0,1.4-0.4,1.8-1.1V60c-0.4-0.7-1-1-1.7-1c-0.6,0-1.1,0.2-1.4,0.7S116.2,60.8,116.2,61.8z M127.3,65.4V59
						h-1.2v-1h1.2v-0.8c0-0.8,0.2-1.4,0.6-1.8s1-0.6,1.8-0.6c0.3,0,0.6,0,0.9,0.1l-0.1,1c-0.2,0-0.4-0.1-0.7-0.1
						c-0.4,0-0.7,0.1-1,0.4s-0.3,0.6-0.3,1V58h1.6v1h-1.6v6.4H127.3z M131.2,61.6c0-0.7,0.1-1.4,0.4-2s0.7-1,1.2-1.3
						s1.1-0.5,1.7-0.5c1,0,1.8,0.3,2.4,1s0.9,1.6,0.9,2.8v0.1c0,0.7-0.1,1.4-0.4,1.9c-0.3,0.6-0.7,1-1.2,1.3
						c-0.5,0.3-1.1,0.5-1.8,0.5c-1,0-1.8-0.3-2.4-1C131.5,63.8,131.2,62.8,131.2,61.6L131.2,61.6z M132.4,61.8c0,0.8,0.2,1.5,0.6,2
						c0.4,0.5,0.9,0.7,1.5,0.7c0.6,0,1.2-0.3,1.5-0.8c0.4-0.5,0.6-1.2,0.6-2.1c0-0.8-0.2-1.5-0.6-2s-0.9-0.8-1.5-0.8
						c-0.6,0-1.1,0.2-1.5,0.7S132.4,60.8,132.4,61.8z M143.1,59.1c-0.2,0-0.4,0-0.6,0c-0.8,0-1.4,0.4-1.7,1.1v5.2h-1.3V58h1.2l0,0.9
						c0.4-0.7,1-1,1.8-1c0.2,0,0.4,0,0.6,0.1V59.1z M151.3,59.1c-0.2,0-0.4,0-0.6,0c-0.8,0-1.4,0.4-1.7,1.1v5.2h-1.3V58h1.2l0,0.9
						c0.4-0.7,1-1,1.8-1c0.2,0,0.4,0,0.6,0.1V59.1z M157,64.6c-0.5,0.6-1.2,0.9-2.2,0.9c-0.8,0-1.4-0.2-1.8-0.7
						c-0.4-0.5-0.6-1.1-0.6-2V58h1.3v4.8c0,1.1,0.5,1.7,1.4,1.7c1,0,1.6-0.4,1.9-1.1V58h1.3v7.4H157L157,64.6z M161.4,58l0,0.9
						c0.6-0.7,1.3-1.1,2.2-1.1c1.6,0,2.4,0.9,2.4,2.6v4.9h-1.3v-4.9c0-0.5-0.1-0.9-0.4-1.2s-0.6-0.4-1.1-0.4c-0.4,0-0.8,0.1-1.1,0.3
						s-0.6,0.5-0.7,0.9v5.3h-1.3V58H161.4z M169.1,58l0,0.9c0.6-0.7,1.3-1.1,2.2-1.1c1.6,0,2.4,0.9,2.4,2.6v4.9h-1.3v-4.9
						c0-0.5-0.1-0.9-0.4-1.2s-0.6-0.4-1.1-0.4c-0.4,0-0.8,0.1-1.1,0.3s-0.6,0.5-0.7,0.9v5.3h-1.3V58H169.1z M177,65.4h-1.3V58h1.3
						V65.4z M175.6,56c0-0.2,0.1-0.4,0.2-0.5s0.3-0.2,0.6-0.2s0.4,0.1,0.6,0.2s0.2,0.3,0.2,0.5s-0.1,0.4-0.2,0.5s-0.3,0.2-0.6,0.2
						s-0.4-0.1-0.6-0.2S175.6,56.2,175.6,56z M180.2,58l0,0.9c0.6-0.7,1.3-1.1,2.2-1.1c1.6,0,2.4,0.9,2.4,2.6v4.9h-1.3v-4.9
						c0-0.5-0.1-0.9-0.4-1.2s-0.6-0.4-1.1-0.4c-0.4,0-0.8,0.1-1.1,0.3s-0.6,0.5-0.7,0.9v5.3H179V58H180.2z M186.4,61.6
						c0-1.2,0.3-2.1,0.8-2.8s1.2-1,2.1-1c0.9,0,1.6,0.3,2.1,1l0.1-0.8h1.2v7.2c0,1-0.3,1.7-0.9,2.3c-0.6,0.6-1.3,0.8-2.3,0.8
						c-0.5,0-1.1-0.1-1.6-0.3s-0.9-0.5-1.2-0.9l0.7-0.8c0.5,0.7,1.2,1,2,1c0.6,0,1.1-0.2,1.4-0.5c0.3-0.3,0.5-0.8,0.5-1.5v-0.6
						c-0.5,0.6-1.2,0.9-2.1,0.9c-0.9,0-1.6-0.3-2.1-1C186.7,63.8,186.4,62.8,186.4,61.6z M187.7,61.8c0,0.8,0.2,1.5,0.5,2
						c0.3,0.5,0.8,0.7,1.4,0.7c0.8,0,1.4-0.4,1.8-1.1V60c-0.4-0.7-1-1.1-1.7-1.1c-0.6,0-1.1,0.2-1.4,0.7S187.7,60.8,187.7,61.8z
						 M197.7,61.6c0-1.1,0.3-2,0.8-2.7s1.2-1,2.1-1c0.9,0,1.6,0.3,2.1,0.9v-3.9h1.3v10.5h-1.2l-0.1-0.8c-0.5,0.6-1.2,0.9-2.1,0.9
						c-0.9,0-1.6-0.4-2.1-1.1S197.7,62.8,197.7,61.6L197.7,61.6z M199,61.8c0,0.8,0.2,1.5,0.5,2s0.8,0.7,1.4,0.7
						c0.8,0,1.4-0.4,1.8-1.1V60c-0.4-0.7-1-1-1.7-1c-0.6,0-1.1,0.2-1.4,0.7S199,60.8,199,61.8z M210.5,65.4
						c-0.1-0.1-0.1-0.4-0.2-0.8c-0.6,0.6-1.3,0.9-2.1,0.9c-0.7,0-1.3-0.2-1.8-0.6c-0.5-0.4-0.7-0.9-0.7-1.6c0-0.8,0.3-1.4,0.9-1.8
						s1.4-0.6,2.5-0.6h1.2v-0.6c0-0.4-0.1-0.8-0.4-1.1s-0.7-0.4-1.2-0.4c-0.5,0-0.8,0.1-1.1,0.3s-0.5,0.5-0.5,0.8h-1.3
						c0-0.4,0.1-0.7,0.4-1.1s0.6-0.6,1.1-0.8s0.9-0.3,1.5-0.3c0.9,0,1.5,0.2,2,0.6s0.7,1,0.8,1.8v3.4c0,0.7,0.1,1.2,0.3,1.6v0.1
						H210.5z M208.4,64.4c0.4,0,0.8-0.1,1.1-0.3s0.6-0.5,0.8-0.8v-1.5h-1c-1.5,0-2.3,0.5-2.3,1.4c0,0.4,0.1,0.7,0.4,0.9
						C207.7,64.3,208,64.4,208.4,64.4z M215.3,56.2V58h1.4v1h-1.4v4.6c0,0.3,0.1,0.5,0.2,0.7c0.1,0.1,0.3,0.2,0.6,0.2
						c0.1,0,0.3,0,0.6-0.1v1c-0.3,0.1-0.7,0.1-1,0.1c-0.6,0-1-0.2-1.3-0.5s-0.4-0.8-0.4-1.5V59h-1.3v-1h1.3v-1.8H215.3z M222.7,65.4
						c-0.1-0.1-0.1-0.4-0.2-0.8c-0.6,0.6-1.3,0.9-2.1,0.9c-0.7,0-1.3-0.2-1.8-0.6s-0.7-0.9-0.7-1.6c0-0.8,0.3-1.4,0.9-1.8
						s1.4-0.6,2.5-0.6h1.2v-0.6c0-0.4-0.1-0.8-0.4-1.1s-0.7-0.4-1.2-0.4c-0.5,0-0.8,0.1-1.1,0.3s-0.5,0.5-0.5,0.8h-1.3
						c0-0.4,0.1-0.7,0.4-1.1s0.6-0.6,1.1-0.8s0.9-0.3,1.5-0.3c0.9,0,1.5,0.2,2,0.6s0.7,1,0.8,1.8v3.4c0,0.7,0.1,1.2,0.3,1.6v0.1
						H222.7z M220.6,64.4c0.4,0,0.8-0.1,1.1-0.3s0.6-0.5,0.8-0.8v-1.5h-1c-1.5,0-2.3,0.5-2.3,1.4c0,0.4,0.1,0.7,0.4,0.9
						C219.8,64.3,220.2,64.4,220.6,64.4z M232,61.8c0,1.1-0.3,2-0.8,2.7s-1.2,1-2.1,1c-0.9,0-1.7-0.3-2.2-1l-0.1,0.9h-1.2V54.9h1.3
						v3.9c0.5-0.6,1.2-1,2.1-1s1.6,0.3,2.1,1s0.8,1.6,0.8,2.8V61.8z M230.7,61.6c0-0.9-0.2-1.5-0.5-2s-0.8-0.7-1.4-0.7
						c-0.8,0-1.4,0.4-1.8,1.2v3.2c0.4,0.8,1,1.2,1.8,1.2c0.6,0,1.1-0.2,1.4-0.7C230.6,63.3,230.7,62.6,230.7,61.6z M238.2,65.4
						c-0.1-0.1-0.1-0.4-0.2-0.8c-0.6,0.6-1.3,0.9-2.1,0.9c-0.7,0-1.3-0.2-1.8-0.6c-0.5-0.4-0.7-0.9-0.7-1.6c0-0.8,0.3-1.4,0.9-1.8
						s1.4-0.6,2.5-0.6h1.2v-0.6c0-0.4-0.1-0.8-0.4-1.1s-0.7-0.4-1.2-0.4c-0.5,0-0.8,0.1-1.1,0.3s-0.5,0.5-0.5,0.8h-1.3
						c0-0.4,0.1-0.7,0.4-1.1s0.6-0.6,1.1-0.8s0.9-0.3,1.5-0.3c0.9,0,1.5,0.2,2,0.6s0.7,1,0.8,1.8v3.4c0,0.7,0.1,1.2,0.3,1.6v0.1
						H238.2z M236.1,64.4c0.4,0,0.8-0.1,1.1-0.3s0.6-0.5,0.8-0.8v-1.5h-1c-1.5,0-2.3,0.5-2.3,1.4c0,0.4,0.1,0.7,0.4,0.9
						C235.3,64.3,235.7,64.4,236.1,64.4z M245.5,63.4c0-0.3-0.1-0.6-0.4-0.8s-0.7-0.4-1.3-0.5s-1.1-0.3-1.5-0.5s-0.7-0.4-0.8-0.7
						s-0.3-0.6-0.3-0.9c0-0.6,0.3-1.1,0.8-1.5s1.2-0.6,2-0.6c0.8,0,1.5,0.2,2,0.6c0.5,0.4,0.8,1,0.8,1.7h-1.3c0-0.3-0.1-0.6-0.4-0.9
						s-0.7-0.4-1.1-0.4c-0.5,0-0.8,0.1-1.1,0.3s-0.4,0.5-0.4,0.8c0,0.3,0.1,0.5,0.4,0.7s0.7,0.3,1.3,0.4s1.1,0.3,1.5,0.5
						s0.7,0.4,0.9,0.7s0.3,0.6,0.3,1c0,0.7-0.3,1.2-0.8,1.6c-0.5,0.4-1.2,0.6-2.1,0.6c-0.6,0-1.1-0.1-1.6-0.3
						c-0.5-0.2-0.8-0.5-1.1-0.9s-0.4-0.8-0.4-1.2h1.3c0,0.4,0.2,0.8,0.5,1s0.7,0.4,1.3,0.4c0.5,0,0.9-0.1,1.2-0.3
						S245.5,63.7,245.5,63.4z M251.5,65.5c-1,0-1.8-0.3-2.4-1s-0.9-1.5-0.9-2.6v-0.2c0-0.7,0.1-1.4,0.4-2s0.7-1,1.2-1.4
						s1-0.5,1.6-0.5c1,0,1.7,0.3,2.2,1s0.8,1.5,0.8,2.7V62h-5c0,0.7,0.2,1.3,0.6,1.8c0.4,0.4,0.9,0.7,1.6,0.7c0.4,0,0.8-0.1,1.1-0.3
						c0.3-0.2,0.6-0.4,0.8-0.7l0.8,0.6C253.7,65,252.7,65.5,251.5,65.5z M251.3,58.9c-0.5,0-0.9,0.2-1.3,0.6s-0.6,0.9-0.6,1.6h3.7
						v-0.1c0-0.6-0.2-1.1-0.5-1.5S251.9,58.9,251.3,58.9z M260.2,63.4c0-0.3-0.1-0.6-0.4-0.8s-0.7-0.4-1.3-0.5s-1.1-0.3-1.5-0.5
						s-0.7-0.4-0.8-0.7c-0.2-0.3-0.3-0.6-0.3-0.9c0-0.6,0.3-1.1,0.8-1.5s1.2-0.6,2-0.6c0.8,0,1.5,0.2,2,0.6c0.5,0.4,0.8,1,0.8,1.7
						h-1.3c0-0.3-0.1-0.6-0.4-0.9s-0.7-0.4-1.1-0.4c-0.5,0-0.8,0.1-1.1,0.3s-0.4,0.5-0.4,0.8c0,0.3,0.1,0.5,0.4,0.7s0.7,0.3,1.3,0.4
						s1.1,0.3,1.5,0.5s0.7,0.4,0.9,0.7s0.3,0.6,0.3,1c0,0.7-0.3,1.2-0.8,1.6c-0.5,0.4-1.2,0.6-2.1,0.6c-0.6,0-1.1-0.1-1.6-0.3
						c-0.5-0.2-0.8-0.5-1.1-0.9c-0.3-0.4-0.4-0.8-0.4-1.2h1.3c0,0.4,0.2,0.8,0.5,1s0.7,0.4,1.3,0.4c0.5,0,0.9-0.1,1.2-0.3
						S260.2,63.7,260.2,63.4z M267.9,65.4h-1.3V58h1.3V65.4z M266.5,56c0-0.2,0.1-0.4,0.2-0.5s0.3-0.2,0.6-0.2s0.4,0.1,0.6,0.2
						s0.2,0.3,0.2,0.5s-0.1,0.4-0.2,0.5s-0.3,0.2-0.6,0.2s-0.4-0.1-0.6-0.2S266.5,56.2,266.5,56z M271.1,58l0,0.9
						c0.6-0.7,1.3-1.1,2.2-1.1c1.6,0,2.4,0.9,2.4,2.6v4.9h-1.3v-4.9c0-0.5-0.1-0.9-0.4-1.2s-0.6-0.4-1.1-0.4c-0.4,0-0.8,0.1-1.1,0.3
						s-0.6,0.5-0.7,0.9v5.3h-1.3V58H271.1z M284.1,64.5c0.5,0,0.8-0.1,1.2-0.4s0.5-0.6,0.6-1h1.2c0,0.4-0.2,0.8-0.4,1.2
						c-0.3,0.4-0.6,0.7-1.1,0.9s-0.9,0.3-1.4,0.3c-1,0-1.8-0.3-2.4-1s-0.9-1.6-0.9-2.8v-0.2c0-0.7,0.1-1.4,0.4-1.9s0.6-1,1.1-1.3
						c0.5-0.3,1.1-0.5,1.8-0.5c0.8,0,1.5,0.2,2.1,0.7s0.8,1.1,0.9,1.9h-1.2c0-0.5-0.2-0.9-0.5-1.2s-0.7-0.5-1.2-0.5
						c-0.6,0-1.1,0.2-1.5,0.7s-0.5,1.1-0.5,2v0.2c0,0.9,0.2,1.5,0.5,2S283.4,64.5,284.1,64.5z M289.8,65.4h-1.3V54.9h1.3V65.4z
						 M291.5,61.6c0-0.7,0.1-1.4,0.4-2s0.7-1,1.2-1.3c0.5-0.3,1.1-0.5,1.7-0.5c1,0,1.8,0.3,2.4,1s0.9,1.6,0.9,2.8v0.1
						c0,0.7-0.1,1.4-0.4,1.9c-0.3,0.6-0.7,1-1.2,1.3c-0.5,0.3-1.1,0.5-1.8,0.5c-1,0-1.8-0.3-2.4-1C291.8,63.8,291.5,62.8,291.5,61.6
						L291.5,61.6z M292.8,61.8c0,0.8,0.2,1.5,0.6,2c0.4,0.5,0.9,0.7,1.5,0.7c0.6,0,1.2-0.3,1.5-0.8c0.4-0.5,0.6-1.2,0.6-2.1
						c0-0.8-0.2-1.5-0.6-2s-0.9-0.8-1.5-0.8c-0.6,0-1.1,0.2-1.5,0.7S292.8,60.8,292.8,61.8z M304.4,64.6c-0.5,0.6-1.2,0.9-2.2,0.9
						c-0.8,0-1.4-0.2-1.8-0.7c-0.4-0.5-0.6-1.1-0.6-2V58h1.3v4.8c0,1.1,0.5,1.7,1.4,1.7c1,0,1.6-0.4,1.9-1.1V58h1.3v7.4h-1.2
						L304.4,64.6z M307.2,61.6c0-1.1,0.3-2,0.8-2.7s1.2-1,2.1-1c0.9,0,1.6,0.3,2.1,0.9v-3.9h1.3v10.5h-1.2l-0.1-0.8
						c-0.5,0.6-1.2,0.9-2.1,0.9c-0.9,0-1.6-0.4-2.1-1.1S307.2,62.8,307.2,61.6L307.2,61.6z M308.5,61.8c0,0.8,0.2,1.5,0.5,2
						s0.8,0.7,1.4,0.7c0.8,0,1.4-0.4,1.8-1.1V60c-0.4-0.7-1-1-1.7-1c-0.6,0-1.1,0.2-1.4,0.7S308.5,60.8,308.5,61.8z M322,65.5
						c-1,0-1.8-0.3-2.4-1s-0.9-1.5-0.9-2.6v-0.2c0-0.7,0.1-1.4,0.4-2s0.7-1,1.2-1.4s1-0.5,1.6-0.5c1,0,1.7,0.3,2.2,1
						s0.8,1.5,0.8,2.7V62h-5c0,0.7,0.2,1.3,0.6,1.8c0.4,0.4,0.9,0.7,1.6,0.7c0.4,0,0.8-0.1,1.1-0.3c0.3-0.2,0.6-0.4,0.8-0.7l0.8,0.6
						C324.2,65,323.2,65.5,322,65.5z M321.8,58.9c-0.5,0-0.9,0.2-1.3,0.6s-0.6,0.9-0.6,1.6h3.7v-0.1c0-0.6-0.2-1.1-0.5-1.5
						S322.4,58.9,321.8,58.9z M327.5,58l0,0.9c0.6-0.7,1.3-1.1,2.2-1.1c1.6,0,2.4,0.9,2.4,2.6v4.9h-1.3v-4.9c0-0.5-0.1-0.9-0.4-1.2
						s-0.6-0.4-1.1-0.4c-0.4,0-0.8,0.1-1.1,0.3s-0.6,0.5-0.7,0.9v5.3h-1.3V58H327.5z M336.5,63.7l1.8-5.7h1.3l-2.7,7.4h-1l-2.7-7.4
						h1.3L336.5,63.7z M342.2,65.4h-1.3V58h1.3V65.4z M340.8,56c0-0.2,0.1-0.4,0.2-0.5s0.3-0.2,0.6-0.2s0.4,0.1,0.6,0.2
						s0.2,0.3,0.2,0.5s-0.1,0.4-0.2,0.5s-0.3,0.2-0.6,0.2s-0.4-0.1-0.6-0.2S340.8,56.2,340.8,56z M347.8,59.1c-0.2,0-0.4,0-0.6,0
						c-0.8,0-1.4,0.4-1.7,1.1v5.2h-1.3V58h1.2l0,0.9c0.4-0.7,1-1,1.8-1c0.2,0,0.4,0,0.6,0.1V59.1z M348.5,61.6c0-0.7,0.1-1.4,0.4-2
						s0.7-1,1.2-1.3s1.1-0.5,1.7-0.5c1,0,1.8,0.3,2.4,1s0.9,1.6,0.9,2.8v0.1c0,0.7-0.1,1.4-0.4,1.9c-0.3,0.6-0.7,1-1.2,1.3
						c-0.5,0.3-1.1,0.5-1.8,0.5c-1,0-1.8-0.3-2.4-1C348.8,63.8,348.5,62.8,348.5,61.6L348.5,61.6z M349.8,61.8c0,0.8,0.2,1.5,0.6,2
						c0.4,0.5,0.9,0.7,1.5,0.7c0.6,0,1.2-0.3,1.5-0.8c0.4-0.5,0.6-1.2,0.6-2.1c0-0.8-0.2-1.5-0.6-2s-0.9-0.8-1.5-0.8
						c-0.6,0-1.1,0.2-1.5,0.7S349.8,60.8,349.8,61.8z M358,58l0,0.9c0.6-0.7,1.3-1.1,2.2-1.1c1.6,0,2.4,0.9,2.4,2.6v4.9h-1.3v-4.9
						c0-0.5-0.1-0.9-0.4-1.2s-0.6-0.4-1.1-0.4c-0.4,0-0.8,0.1-1.1,0.3s-0.6,0.5-0.7,0.9v5.3h-1.3V58H358z M365.7,58l0,0.8
						c0.5-0.6,1.3-1,2.2-1c1,0,1.7,0.4,2.1,1.2c0.2-0.4,0.6-0.6,1-0.9s0.9-0.3,1.4-0.3c1.6,0,2.4,0.9,2.5,2.6v5h-1.3v-4.9
						c0-0.5-0.1-0.9-0.4-1.2s-0.6-0.4-1.2-0.4c-0.5,0-0.9,0.1-1.2,0.4s-0.5,0.7-0.5,1.1v4.9h-1.3v-4.8c0-1.1-0.5-1.6-1.6-1.6
						c-0.8,0-1.4,0.4-1.7,1.1v5.4h-1.3V58H365.7z M379.9,65.5c-1,0-1.8-0.3-2.4-1s-0.9-1.5-0.9-2.6v-0.2c0-0.7,0.1-1.4,0.4-2
						s0.7-1,1.2-1.4s1-0.5,1.6-0.5c1,0,1.7,0.3,2.2,1s0.8,1.5,0.8,2.7V62h-5c0,0.7,0.2,1.3,0.6,1.8c0.4,0.4,0.9,0.7,1.6,0.7
						c0.4,0,0.8-0.1,1.1-0.3c0.3-0.2,0.6-0.4,0.8-0.7l0.8,0.6C382.1,65,381.1,65.5,379.9,65.5z M379.7,58.9c-0.5,0-0.9,0.2-1.3,0.6
						s-0.6,0.9-0.6,1.6h3.7v-0.1c0-0.6-0.2-1.1-0.5-1.5S380.3,58.9,379.7,58.9z M385.4,58l0,0.9c0.6-0.7,1.3-1.1,2.2-1.1
						c1.6,0,2.4,0.9,2.4,2.6v4.9h-1.3v-4.9c0-0.5-0.1-0.9-0.4-1.2s-0.6-0.4-1.1-0.4c-0.4,0-0.8,0.1-1.1,0.3s-0.6,0.5-0.7,0.9v5.3
						h-1.3V58H385.4z M393.7,56.2V58h1.4v1h-1.4v4.6c0,0.3,0.1,0.5,0.2,0.7c0.1,0.1,0.3,0.2,0.6,0.2c0.1,0,0.3,0,0.6-0.1v1
						c-0.3,0.1-0.7,0.1-1,0.1c-0.6,0-1-0.2-1.3-0.5s-0.4-0.8-0.4-1.5V59h-1.3v-1h1.3v-1.8H393.7z M400.8,63.4c0-0.3-0.1-0.6-0.4-0.8
						s-0.7-0.4-1.3-0.5s-1.1-0.3-1.5-0.5s-0.7-0.4-0.8-0.7s-0.3-0.6-0.3-0.9c0-0.6,0.3-1.1,0.8-1.5s1.2-0.6,2-0.6
						c0.8,0,1.5,0.2,2,0.6s0.8,1,0.8,1.7h-1.3c0-0.3-0.1-0.6-0.4-0.9s-0.7-0.4-1.1-0.4c-0.5,0-0.8,0.1-1.1,0.3s-0.4,0.5-0.4,0.8
						c0,0.3,0.1,0.5,0.4,0.7s0.7,0.3,1.3,0.4s1.1,0.3,1.5,0.5s0.7,0.4,0.9,0.7s0.3,0.6,0.3,1c0,0.7-0.3,1.2-0.8,1.6
						s-1.2,0.6-2.1,0.6c-0.6,0-1.1-0.1-1.6-0.3c-0.5-0.2-0.8-0.5-1.1-0.9s-0.4-0.8-0.4-1.2h1.3c0,0.4,0.2,0.8,0.5,1s0.7,0.4,1.3,0.4
						c0.5,0,0.9-0.1,1.2-0.3S400.8,63.7,400.8,63.4z M403.8,64.7c0-0.2,0.1-0.4,0.2-0.5s0.3-0.2,0.6-0.2s0.5,0.1,0.6,0.2
						s0.2,0.3,0.2,0.5c0,0.2-0.1,0.4-0.2,0.5c-0.1,0.1-0.3,0.2-0.6,0.2s-0.5-0.1-0.6-0.2C403.8,65.1,403.8,64.9,403.8,64.7z"/>
					<g id="Group-18" transform="translate(12.000000, 52.000000)">
						<g id="More-info-about-Clou">
							<path id="More-info-about-Cloud-Databases" d="M51.7,26.4l3.3,8.1l3.3-8.1h1.7v10h-1.3v-3.9l0.1-4.2l-3.3,8.1h-1l-3.3-8
								l0.1,4.2v3.9H50v-10H51.7z M61.7,32.6c0-0.7,0.1-1.4,0.4-2s0.7-1,1.2-1.3s1.1-0.5,1.7-0.5c1,0,1.8,0.3,2.4,1s0.9,1.6,0.9,2.8
								v0.1c0,0.7-0.1,1.4-0.4,1.9c-0.3,0.6-0.7,1-1.2,1.3s-1.1,0.5-1.8,0.5c-1,0-1.8-0.3-2.4-1S61.7,33.8,61.7,32.6L61.7,32.6z
								 M62.9,32.8c0,0.8,0.2,1.5,0.6,2c0.4,0.5,0.9,0.7,1.5,0.7c0.6,0,1.2-0.3,1.5-0.8c0.4-0.5,0.6-1.2,0.6-2.1
								c0-0.8-0.2-1.5-0.6-2c-0.4-0.5-0.9-0.8-1.5-0.8c-0.6,0-1.1,0.2-1.5,0.7C63.1,31.1,62.9,31.8,62.9,32.8z M73.6,30.1
								c-0.2,0-0.4,0-0.6,0c-0.8,0-1.4,0.4-1.7,1.1v5.2H70V29h1.2l0,0.9c0.4-0.7,1-1,1.8-1c0.2,0,0.4,0,0.6,0.1V30.1z M77.8,36.5
								c-1,0-1.8-0.3-2.4-1c-0.6-0.7-0.9-1.5-0.9-2.6v-0.2c0-0.7,0.1-1.4,0.4-2s0.7-1,1.2-1.4c0.5-0.3,1-0.5,1.6-0.5
								c1,0,1.7,0.3,2.2,1s0.8,1.5,0.8,2.7V33h-5c0,0.7,0.2,1.3,0.6,1.8c0.4,0.4,0.9,0.7,1.6,0.7c0.4,0,0.8-0.1,1.1-0.3
								s0.6-0.4,0.8-0.7l0.8,0.6C80,36,79,36.5,77.8,36.5z M77.6,29.9c-0.5,0-0.9,0.2-1.3,0.6c-0.3,0.4-0.6,0.9-0.6,1.6h3.7v-0.1
								c0-0.6-0.2-1.1-0.5-1.5C78.6,30.1,78.2,29.9,77.6,29.9z M87,36.4h-1.3V29H87V36.4z M85.6,27c0-0.2,0.1-0.4,0.2-0.5
								c0.1-0.1,0.3-0.2,0.6-0.2s0.4,0.1,0.6,0.2c0.1,0.1,0.2,0.3,0.2,0.5c0,0.2-0.1,0.4-0.2,0.5c-0.1,0.1-0.3,0.2-0.6,0.2
								s-0.4-0.1-0.6-0.2C85.7,27.4,85.6,27.2,85.6,27z M90.2,29l0,0.9c0.6-0.7,1.3-1.1,2.2-1.1c1.6,0,2.4,0.9,2.4,2.6v4.9h-1.3
								v-4.9c0-0.5-0.1-0.9-0.4-1.2c-0.2-0.3-0.6-0.4-1.1-0.4c-0.4,0-0.8,0.1-1.1,0.3c-0.3,0.2-0.6,0.5-0.7,0.9v5.3H89V29H90.2z
								 M97.4,36.4V30h-1.2v-1h1.2v-0.8c0-0.8,0.2-1.4,0.6-1.8c0.4-0.4,1-0.6,1.8-0.6c0.3,0,0.6,0,0.9,0.1l-0.1,1
								c-0.2,0-0.4-0.1-0.7-0.1c-0.4,0-0.7,0.1-1,0.4c-0.2,0.2-0.3,0.6-0.3,1V29h1.6v1h-1.6v6.4H97.4z M101.3,32.6
								c0-0.7,0.1-1.4,0.4-2s0.7-1,1.2-1.3s1.1-0.5,1.7-0.5c1,0,1.8,0.3,2.4,1s0.9,1.6,0.9,2.8v0.1c0,0.7-0.1,1.4-0.4,1.9
								c-0.3,0.6-0.7,1-1.2,1.3s-1.1,0.5-1.8,0.5c-1,0-1.8-0.3-2.4-1S101.3,33.8,101.3,32.6L101.3,32.6z M102.5,32.8
								c0,0.8,0.2,1.5,0.6,2c0.4,0.5,0.9,0.7,1.5,0.7c0.6,0,1.2-0.3,1.5-0.8c0.4-0.5,0.6-1.2,0.6-2.1c0-0.8-0.2-1.5-0.6-2
								c-0.4-0.5-0.9-0.8-1.5-0.8c-0.6,0-1.1,0.2-1.5,0.7C102.7,31.1,102.5,31.8,102.5,32.8z M117.6,36.4c-0.1-0.1-0.1-0.4-0.2-0.8
								c-0.6,0.6-1.3,0.9-2.1,0.9c-0.7,0-1.3-0.2-1.8-0.6s-0.7-0.9-0.7-1.6c0-0.8,0.3-1.4,0.9-1.8s1.4-0.6,2.5-0.6h1.2v-0.6
								c0-0.4-0.1-0.8-0.4-1.1c-0.3-0.3-0.7-0.4-1.2-0.4c-0.5,0-0.8,0.1-1.1,0.3c-0.3,0.2-0.5,0.5-0.5,0.8H113
								c0-0.4,0.1-0.7,0.4-1.1c0.3-0.3,0.6-0.6,1.1-0.8c0.4-0.2,0.9-0.3,1.5-0.3c0.9,0,1.5,0.2,2,0.6s0.7,1,0.8,1.8v3.4
								c0,0.7,0.1,1.2,0.3,1.6v0.1H117.6z M115.5,35.4c0.4,0,0.8-0.1,1.1-0.3c0.4-0.2,0.6-0.5,0.8-0.8v-1.5h-1
								c-1.5,0-2.3,0.5-2.3,1.4c0,0.4,0.1,0.7,0.4,0.9S115.1,35.4,115.5,35.4z M126.9,32.8c0,1.1-0.3,2-0.8,2.7
								c-0.5,0.7-1.2,1-2.1,1c-0.9,0-1.7-0.3-2.2-1l-0.1,0.9h-1.2V25.9h1.3v3.9c0.5-0.6,1.2-1,2.1-1s1.6,0.3,2.1,1
								c0.5,0.7,0.8,1.6,0.8,2.8V32.8z M125.7,32.6c0-0.9-0.2-1.5-0.5-2c-0.3-0.5-0.8-0.7-1.4-0.7c-0.8,0-1.4,0.4-1.8,1.2v3.2
								c0.4,0.8,1,1.2,1.8,1.2c0.6,0,1.1-0.2,1.4-0.7C125.5,34.3,125.7,33.6,125.7,32.6z M128.2,32.6c0-0.7,0.1-1.4,0.4-2
								s0.7-1,1.2-1.3s1.1-0.5,1.7-0.5c1,0,1.8,0.3,2.4,1s0.9,1.6,0.9,2.8v0.1c0,0.7-0.1,1.4-0.4,1.9c-0.3,0.6-0.7,1-1.2,1.3
								s-1.1,0.5-1.8,0.5c-1,0-1.8-0.3-2.4-1S128.2,33.8,128.2,32.6L128.2,32.6z M129.4,32.8c0,0.8,0.2,1.5,0.6,2
								c0.4,0.5,0.9,0.7,1.5,0.7c0.6,0,1.2-0.3,1.5-0.8c0.4-0.5,0.6-1.2,0.6-2.1c0-0.8-0.2-1.5-0.6-2c-0.4-0.5-0.9-0.8-1.5-0.8
								c-0.6,0-1.1,0.2-1.5,0.7C129.6,31.1,129.4,31.8,129.4,32.8z M141.1,35.6c-0.5,0.6-1.2,0.9-2.2,0.9c-0.8,0-1.4-0.2-1.8-0.7
								c-0.4-0.5-0.6-1.1-0.6-2V29h1.3v4.8c0,1.1,0.5,1.7,1.4,1.7c1,0,1.6-0.4,1.9-1.1V29h1.3v7.4h-1.2L141.1,35.6z M145.9,27.2V29
								h1.4v1h-1.4v4.6c0,0.3,0.1,0.5,0.2,0.7c0.1,0.1,0.3,0.2,0.6,0.2c0.1,0,0.3,0,0.6-0.1v1c-0.3,0.1-0.7,0.1-1,0.1
								c-0.6,0-1-0.2-1.3-0.5c-0.3-0.3-0.4-0.8-0.4-1.5V30h-1.3v-1h1.3v-1.8H145.9z M159.8,33.2c-0.1,1.1-0.5,1.9-1.2,2.4
								c-0.7,0.6-1.5,0.9-2.6,0.9c-1.2,0-2.1-0.4-2.8-1.3c-0.7-0.8-1.1-2-1.1-3.4v-1c0-0.9,0.2-1.7,0.5-2.4c0.3-0.7,0.8-1.2,1.4-1.6
								s1.3-0.6,2.1-0.6c1.1,0,1.9,0.3,2.5,0.9c0.6,0.6,1,1.4,1.1,2.5h-1.3c-0.1-0.8-0.4-1.4-0.7-1.7s-0.9-0.5-1.6-0.5
								c-0.8,0-1.5,0.3-2,0.9s-0.7,1.5-0.7,2.6v1c0,1.1,0.2,1.9,0.7,2.6c0.5,0.6,1.1,1,1.9,1c0.7,0,1.3-0.2,1.7-0.5
								c0.4-0.3,0.6-0.9,0.8-1.7H159.8z M162.7,36.4h-1.3V25.9h1.3V36.4z M164.4,32.6c0-0.7,0.1-1.4,0.4-2s0.7-1,1.2-1.3
								s1.1-0.5,1.7-0.5c1,0,1.8,0.3,2.4,1s0.9,1.6,0.9,2.8v0.1c0,0.7-0.1,1.4-0.4,1.9c-0.3,0.6-0.7,1-1.2,1.3s-1.1,0.5-1.8,0.5
								c-1,0-1.8-0.3-2.4-1S164.4,33.8,164.4,32.6L164.4,32.6z M165.7,32.8c0,0.8,0.2,1.5,0.6,2c0.4,0.5,0.9,0.7,1.5,0.7
								c0.6,0,1.2-0.3,1.5-0.8c0.4-0.5,0.6-1.2,0.6-2.1c0-0.8-0.2-1.5-0.6-2c-0.4-0.5-0.9-0.8-1.5-0.8c-0.6,0-1.1,0.2-1.5,0.7
								C165.9,31.1,165.7,31.8,165.7,32.8z M177.3,35.6c-0.5,0.6-1.2,0.9-2.2,0.9c-0.8,0-1.4-0.2-1.8-0.7c-0.4-0.5-0.6-1.1-0.6-2V29
								h1.3v4.8c0,1.1,0.5,1.7,1.4,1.7c1,0,1.6-0.4,1.9-1.1V29h1.3v7.4h-1.2L177.3,35.6z M180.2,32.6c0-1.1,0.3-2,0.8-2.7
								s1.2-1,2.1-1c0.9,0,1.6,0.3,2.1,0.9v-3.9h1.3v10.5h-1.2l-0.1-0.8c-0.5,0.6-1.2,0.9-2.1,0.9c-0.9,0-1.6-0.4-2.1-1.1
								C180.4,34.8,180.2,33.8,180.2,32.6L180.2,32.6z M181.4,32.8c0,0.8,0.2,1.5,0.5,2s0.8,0.7,1.4,0.7c0.8,0,1.4-0.4,1.8-1.1V31
								c-0.4-0.7-1-1-1.7-1c-0.6,0-1.1,0.2-1.4,0.7C181.6,31.1,181.4,31.8,181.4,32.8z M192,36.4v-10h2.8c0.9,0,1.6,0.2,2.3,0.6
								s1.2,0.9,1.5,1.6c0.4,0.7,0.5,1.5,0.6,2.4v0.6c0,0.9-0.2,1.8-0.5,2.5c-0.4,0.7-0.9,1.2-1.6,1.6c-0.7,0.4-1.5,0.6-2.3,0.6H192
								z M193.3,27.5v7.8h1.4c1,0,1.8-0.3,2.4-0.9c0.6-0.6,0.8-1.5,0.8-2.7v-0.6c0-1.1-0.3-2-0.8-2.6s-1.3-0.9-2.3-1H193.3z
								 M205.6,36.4c-0.1-0.1-0.1-0.4-0.2-0.8c-0.6,0.6-1.3,0.9-2.1,0.9c-0.7,0-1.3-0.2-1.8-0.6s-0.7-0.9-0.7-1.6
								c0-0.8,0.3-1.4,0.9-1.8s1.4-0.6,2.5-0.6h1.2v-0.6c0-0.4-0.1-0.8-0.4-1.1c-0.3-0.3-0.7-0.4-1.2-0.4c-0.5,0-0.8,0.1-1.1,0.3
								c-0.3,0.2-0.5,0.5-0.5,0.8h-1.3c0-0.4,0.1-0.7,0.4-1.1c0.3-0.3,0.6-0.6,1.1-0.8c0.4-0.2,0.9-0.3,1.5-0.3c0.9,0,1.5,0.2,2,0.6
								s0.7,1,0.8,1.8v3.4c0,0.7,0.1,1.2,0.3,1.6v0.1H205.6z M203.5,35.4c0.4,0,0.8-0.1,1.1-0.3c0.4-0.2,0.6-0.5,0.8-0.8v-1.5h-1
								c-1.5,0-2.3,0.5-2.3,1.4c0,0.4,0.1,0.7,0.4,0.9S203.1,35.4,203.5,35.4z M210.3,27.2V29h1.4v1h-1.4v4.6c0,0.3,0.1,0.5,0.2,0.7
								c0.1,0.1,0.3,0.2,0.6,0.2c0.1,0,0.3,0,0.6-0.1v1c-0.3,0.1-0.7,0.1-1,0.1c-0.6,0-1-0.2-1.3-0.5c-0.3-0.3-0.4-0.8-0.4-1.5V30
								h-1.3v-1h1.3v-1.8H210.3z M217.8,36.4c-0.1-0.1-0.1-0.4-0.2-0.8c-0.6,0.6-1.3,0.9-2.1,0.9c-0.7,0-1.3-0.2-1.8-0.6
								c-0.5-0.4-0.7-0.9-0.7-1.6c0-0.8,0.3-1.4,0.9-1.8s1.4-0.6,2.5-0.6h1.2v-0.6c0-0.4-0.1-0.8-0.4-1.1c-0.3-0.3-0.7-0.4-1.2-0.4
								c-0.5,0-0.8,0.1-1.1,0.3c-0.3,0.2-0.5,0.5-0.5,0.8h-1.3c0-0.4,0.1-0.7,0.4-1.1c0.3-0.3,0.6-0.6,1.1-0.8
								c0.4-0.2,0.9-0.3,1.5-0.3c0.9,0,1.5,0.2,2,0.6s0.7,1,0.8,1.8v3.4c0,0.7,0.1,1.2,0.3,1.6v0.1H217.8z M215.7,35.4
								c0.4,0,0.8-0.1,1.1-0.3c0.4-0.2,0.6-0.5,0.8-0.8v-1.5h-1c-1.5,0-2.3,0.5-2.3,1.4c0,0.4,0.1,0.7,0.4,0.9
								S215.2,35.4,215.7,35.4z M227.1,32.8c0,1.1-0.3,2-0.8,2.7c-0.5,0.7-1.2,1-2.1,1c-0.9,0-1.7-0.3-2.2-1l-0.1,0.9h-1.2V25.9h1.3
								v3.9c0.5-0.6,1.2-1,2.1-1s1.6,0.3,2.1,1c0.5,0.7,0.8,1.6,0.8,2.8V32.8z M225.8,32.6c0-0.9-0.2-1.5-0.5-2
								c-0.3-0.5-0.8-0.7-1.4-0.7c-0.8,0-1.4,0.4-1.8,1.2v3.2c0.4,0.8,1,1.2,1.8,1.2c0.6,0,1.1-0.2,1.4-0.7
								C225.6,34.3,225.8,33.6,225.8,32.6z M233.2,36.4c-0.1-0.1-0.1-0.4-0.2-0.8c-0.6,0.6-1.3,0.9-2.1,0.9c-0.7,0-1.3-0.2-1.8-0.6
								s-0.7-0.9-0.7-1.6c0-0.8,0.3-1.4,0.9-1.8s1.4-0.6,2.5-0.6h1.2v-0.6c0-0.4-0.1-0.8-0.4-1.1c-0.3-0.3-0.7-0.4-1.2-0.4
								c-0.5,0-0.8,0.1-1.1,0.3c-0.3,0.2-0.5,0.5-0.5,0.8h-1.3c0-0.4,0.1-0.7,0.4-1.1c0.3-0.3,0.6-0.6,1.1-0.8
								c0.4-0.2,0.9-0.3,1.5-0.3c0.9,0,1.5,0.2,2,0.6s0.7,1,0.8,1.8v3.4c0,0.7,0.1,1.2,0.3,1.6v0.1H233.2z M231.1,35.4
								c0.4,0,0.8-0.1,1.1-0.3c0.4-0.2,0.6-0.5,0.8-0.8v-1.5h-1c-1.5,0-2.3,0.5-2.3,1.4c0,0.4,0.1,0.7,0.4,0.9
								S230.7,35.4,231.1,35.4z M240.6,34.4c0-0.3-0.1-0.6-0.4-0.8s-0.7-0.4-1.3-0.5c-0.6-0.1-1.1-0.3-1.5-0.5
								c-0.4-0.2-0.7-0.4-0.8-0.7c-0.2-0.3-0.3-0.6-0.3-0.9c0-0.6,0.3-1.1,0.8-1.5s1.2-0.6,2-0.6c0.8,0,1.5,0.2,2,0.6
								c0.5,0.4,0.8,1,0.8,1.7h-1.3c0-0.3-0.1-0.6-0.4-0.9s-0.7-0.4-1.1-0.4c-0.5,0-0.8,0.1-1.1,0.3s-0.4,0.5-0.4,0.8
								c0,0.3,0.1,0.5,0.4,0.7c0.2,0.2,0.7,0.3,1.3,0.4c0.6,0.1,1.1,0.3,1.5,0.5s0.7,0.4,0.9,0.7c0.2,0.3,0.3,0.6,0.3,1
								c0,0.7-0.3,1.2-0.8,1.6c-0.5,0.4-1.2,0.6-2.1,0.6c-0.6,0-1.1-0.1-1.6-0.3s-0.8-0.5-1.1-0.9c-0.3-0.4-0.4-0.8-0.4-1.2h1.3
								c0,0.4,0.2,0.8,0.5,1c0.3,0.2,0.7,0.4,1.3,0.4c0.5,0,0.9-0.1,1.2-0.3C240.4,35,240.6,34.7,240.6,34.4z M246.6,36.5
								c-1,0-1.8-0.3-2.4-1c-0.6-0.7-0.9-1.5-0.9-2.6v-0.2c0-0.7,0.1-1.4,0.4-2s0.7-1,1.2-1.4c0.5-0.3,1-0.5,1.6-0.5
								c1,0,1.7,0.3,2.2,1s0.8,1.5,0.8,2.7V33h-5c0,0.7,0.2,1.3,0.6,1.8c0.4,0.4,0.9,0.7,1.6,0.7c0.4,0,0.8-0.1,1.1-0.3
								s0.6-0.4,0.8-0.7l0.8,0.6C248.7,36,247.8,36.5,246.6,36.5z M246.4,29.9c-0.5,0-0.9,0.2-1.3,0.6c-0.3,0.4-0.6,0.9-0.6,1.6h3.7
								v-0.1c0-0.6-0.2-1.1-0.5-1.5C247.4,30.1,246.9,29.9,246.4,29.9z M255.2,34.4c0-0.3-0.1-0.6-0.4-0.8s-0.7-0.4-1.3-0.5
								c-0.6-0.1-1.1-0.3-1.5-0.5c-0.4-0.2-0.7-0.4-0.8-0.7c-0.2-0.3-0.3-0.6-0.3-0.9c0-0.6,0.3-1.1,0.8-1.5s1.2-0.6,2-0.6
								c0.8,0,1.5,0.2,2,0.6c0.5,0.4,0.8,1,0.8,1.7h-1.3c0-0.3-0.1-0.6-0.4-0.9s-0.7-0.4-1.1-0.4c-0.5,0-0.8,0.1-1.1,0.3
								s-0.4,0.5-0.4,0.8c0,0.3,0.1,0.5,0.4,0.7c0.2,0.2,0.7,0.3,1.3,0.4c0.6,0.1,1.1,0.3,1.5,0.5s0.7,0.4,0.9,0.7
								c0.2,0.3,0.3,0.6,0.3,1c0,0.7-0.3,1.2-0.8,1.6c-0.5,0.4-1.2,0.6-2.1,0.6c-0.6,0-1.1-0.1-1.6-0.3s-0.8-0.5-1.1-0.9
								c-0.3-0.4-0.4-0.8-0.4-1.2h1.3c0,0.4,0.2,0.8,0.5,1c0.3,0.2,0.7,0.4,1.3,0.4c0.5,0,0.9-0.1,1.2-0.3
								C255.1,35,255.2,34.7,255.2,34.4z"/>
						</g>
					</g>
				</g>
			</g>
			<g id="external-link" transform="translate(226.000000, 57.000000)">
				<g id="Layer_1_1_">
					<g id="Group">
						<path id="Shape_3_" class="st3" d="M57.8,21.4h-3.1v1.2h1.6l-4.8,4.8l0.9,0.9l4.8-4.8v1.8h1.2V22
							C58.4,21.6,58.2,21.4,57.8,21.4z"/>
						<path id="Shape_4_" class="st3" d="M56.5,30.1C56.5,30.1,56.4,30.1,56.5,30.1l-6.6,0.1c-0.1,0-0.1-0.1-0.1-0.1v-6.6
							c0-0.1,0.1-0.1,0.1-0.1h3.6v-1.2h-3.6c-0.8,0-1.3,0.6-1.3,1.3v6.6c0,0.7,0.6,1.3,1.3,1.3h6.6c0.8,0,1.3-0.6,1.3-1.3v-3.7h-1.2
							V30.1L56.5,30.1z"/>
					</g>
				</g>
			</g>
		</g>
	</g>
</g>
</svg>
