<?xml version="1.0" encoding="utf-8"?>
<!-- Generator: Adobe Illustrator 21.0.2, SVG Export Plug-In . SVG Version: 6.00 Build 0)  -->
<svg version="1.1" id="Layer_1" xmlns="http://www.w3.org/2000/svg" xmlns:xlink="http://www.w3.org/1999/xlink" x="0px" y="0px"
	 width="467px" height="233px" viewBox="0 0 467 233" style="enable-background:new 0 0 467 233;" xml:space="preserve">
<style type="text/css">
	.st0{fill:none;}
	.st1{fill:#9E9E9E;}
	.st2{font-family:'Roboto-Regular';}
	.st3{font-size:10px;}
	.st4{fill:#0D74D1;}
	.st5{filter:url(#filter-2);}
	.st6{fill:#FFFFFF;}
	.st7{fill:none;stroke:#E0E0E0;}
	.st8{fill:#424242;}
	.st9{fill:#9CC2EB;}
	.st10{fill:#333333;}
	.st11{fill:#90D5B2;}
	.st12{font-size:12px;}
</style>
<filter  filterUnits="objectBoundingBox" height="114.3%" id="filter-2" width="103.2%" x="-1.6%" y="-3.6%">
	<feOffset  dx="0" dy="3" in="SourceAlpha" result="shadowOffsetOuter1"></feOffset>
	<feGaussianBlur  in="shadowOffsetOuter1" result="shadowBlurOuter1" stdDeviation="1.5"></feGaussianBlur>
	<feComposite  in="shadowBlurOuter1" in2="SourceAlpha" operator="out" result="shadowBlurOuter1"></feComposite>
	<feColorMatrix  in="shadowBlurOuter1" type="matrix" values="0 0 0 0 0   0 0 0 0 0   0 0 0 0 0  0 0 0 0.16 0"></feColorMatrix>
</filter>
<title>Group 2</title>
<desc>Created with Sketch.</desc>
<g id="Page-1">
	<g id="Group-42-Copy" transform="translate(-129.000000, -46.000000)">
		<g id="Group-2">
			<g id="documentation-_x2F_-img-container">
				<rect id="img-container-span-8" x="45.5" y="24.5" class="st0" width="633" height="262"/>
			</g>
			<g id="specs-_x2F_-redlines-_x2F_-label-title-sm" transform="translate(138.000000, 217.000000)">
				<text transform="matrix(1 0 0 1 45.5 34.5)" class="st1 st2 st3">EXTERNAL LINK ICON (NOT TO SCALE)</text>
			</g>
			<g id="external-link" transform="translate(137.000000, 176.000000)">
				<g id="Layer_1_1_">
					<g id="Group">
						<path id="Shape" class="st4" d="M75.3,24.5h-9.8v4h5L55.3,43.7l3,2.8l15.2-15.2v5.6h4V26.5C77.3,25.3,76.5,24.5,75.3,24.5z"/>
						<path id="Shape_1_" class="st4" d="M71.1,52.3c0,0.2-0.2,0.2-0.2,0.2h-21c-0.2,0-0.2-0.2-0.2-0.2v-21c0-0.2,0.2-0.2,0.2-0.2
							h11.6v-4H49.9c-2.4,0-4.2,2-4.2,4.2v21c0,2.2,1.8,4.2,4.2,4.2h21c2.4,0,4.2-2,4.2-4.2V40.5h-4V52.3L71.1,52.3z"/>
					</g>
				</g>
			</g>
			<g id="Group-20" transform="translate(132.000000, 46.000000)">
				<g id="_x34_-Unlike-Cloud">
					<g id="Unlike-Cloud-bottom">
						<g id="Rectangle-3">
							<g class="st5">
								<path id="path-1_2_" d="M47.5,25.3h366l0,0c1.1,0,2,0.9,2,2v72.9l0,0c0,1.1-0.9,2-2,2h-11l-8,7.3l-8-7.3h-339l0,0
									c-1.1,0-2-0.9-2-2V27.3l0,0C45.5,26.2,46.4,25.3,47.5,25.3z"/>
							</g>
							<g>
								<path id="path-1_1_" class="st6" d="M47.5,25.3h366l0,0c1.1,0,2,0.9,2,2v72.9l0,0c0,1.1-0.9,2-2,2h-11l-8,7.3l-8-7.3h-339
									l0,0c-1.1,0-2-0.9-2-2V27.3l0,0C45.5,26.2,46.4,25.3,47.5,25.3z"/>
							</g>
							<path class="st7" d="M394.5,108.8l7.8-7.1h11.2c0.8,0,1.5-0.7,1.5-1.5V27.3c0-0.8-0.7-1.5-1.5-1.5h-366
								c-0.8,0-1.5,0.7-1.5,1.5v72.9c0,0.8,0.7,1.5,1.5,1.5h339.2L394.5,108.8z"/>
						</g>
						<path id="Unlike-Cloud-Servers" class="st8" d="M65.7,39.5v6.8c0,0.9-0.3,1.7-0.9,2.3s-1.4,0.9-2.4,1l-0.3,0
							c-1.1,0-2-0.3-2.6-0.9s-1-1.4-1-2.4v-6.8h1.3v6.7c0,0.7,0.2,1.3,0.6,1.7s1,0.6,1.7,0.6c0.7,0,1.3-0.2,1.7-0.6
							c0.4-0.4,0.6-1,0.6-1.7v-6.7H65.7z M68.7,42.1l0,0.9c0.6-0.7,1.3-1.1,2.2-1.1c1.6,0,2.4,0.9,2.4,2.6v4.9h-1.3v-4.9
							c0-0.5-0.1-0.9-0.4-1.2S71.1,43,70.6,43c-0.4,0-0.8,0.1-1.1,0.3s-0.6,0.5-0.7,0.9v5.3h-1.3v-7.4H68.7z M76.6,49.5h-1.3V39h1.3
							V49.5z M80,49.5h-1.3v-7.4H80V49.5z M78.7,40.1c0-0.2,0.1-0.4,0.2-0.5c0.1-0.1,0.3-0.2,0.6-0.2s0.4,0.1,0.6,0.2
							s0.2,0.3,0.2,0.5s-0.1,0.4-0.2,0.5s-0.3,0.2-0.6,0.2s-0.4-0.1-0.6-0.2C78.7,40.5,78.7,40.3,78.7,40.1z M84.1,46.1l-0.8,0.8
							v2.6h-1.3V39h1.3v6.4l0.7-0.8l2.3-2.4h1.5L85,45.2l3.2,4.3h-1.5L84.1,46.1z M92.2,49.6c-1,0-1.8-0.3-2.4-1s-0.9-1.5-0.9-2.6
							v-0.2c0-0.7,0.1-1.4,0.4-2s0.7-1,1.2-1.4s1-0.5,1.6-0.5c1,0,1.7,0.3,2.2,1s0.8,1.5,0.8,2.7v0.5h-5c0,0.7,0.2,1.3,0.6,1.8
							c0.4,0.4,0.9,0.7,1.6,0.7c0.4,0,0.8-0.1,1.1-0.3s0.6-0.4,0.8-0.7l0.8,0.6C94.4,49.2,93.5,49.6,92.2,49.6z M92.1,43
							c-0.5,0-0.9,0.2-1.3,0.6s-0.6,0.9-0.6,1.6h3.7V45c0-0.6-0.2-1.1-0.5-1.5S92.6,43,92.1,43z M107.6,46.3
							c-0.1,1.1-0.5,1.9-1.2,2.4s-1.5,0.9-2.6,0.9c-1.2,0-2.1-0.4-2.8-1.3s-1.1-2-1.1-3.4v-1c0-0.9,0.2-1.7,0.5-2.4s0.8-1.2,1.4-1.6
							s1.3-0.6,2.1-0.6c1.1,0,1.9,0.3,2.5,0.9s1,1.4,1.1,2.5h-1.3c-0.1-0.8-0.4-1.4-0.7-1.7s-0.9-0.5-1.6-0.5c-0.8,0-1.5,0.3-2,0.9
							s-0.7,1.5-0.7,2.6v1c0,1.1,0.2,1.9,0.7,2.6s1.1,1,1.9,1c0.7,0,1.3-0.2,1.7-0.5s0.6-0.9,0.8-1.7H107.6z M110.5,49.5h-1.3V39
							h1.3V49.5z M112.2,45.7c0-0.7,0.1-1.4,0.4-2s0.7-1,1.2-1.3s1.1-0.5,1.7-0.5c1,0,1.8,0.3,2.4,1s0.9,1.6,0.9,2.8v0.1
							c0,0.7-0.1,1.4-0.4,1.9s-0.7,1-1.2,1.3s-1.1,0.5-1.8,0.5c-1,0-1.8-0.3-2.4-1S112.2,47,112.2,45.7L112.2,45.7z M113.5,45.9
							c0,0.8,0.2,1.5,0.6,2s0.9,0.7,1.5,0.7c0.6,0,1.2-0.3,1.5-0.8s0.6-1.2,0.6-2.1c0-0.8-0.2-1.5-0.6-2s-0.9-0.8-1.5-0.8
							c-0.6,0-1.1,0.2-1.5,0.7S113.5,45,113.5,45.9z M125.1,48.8c-0.5,0.6-1.2,0.9-2.2,0.9c-0.8,0-1.4-0.2-1.8-0.7s-0.6-1.1-0.6-2
							v-4.8h1.3v4.8c0,1.1,0.5,1.7,1.4,1.7c1,0,1.6-0.4,1.9-1.1v-5.4h1.3v7.4h-1.2L125.1,48.8z M127.9,45.7c0-1.1,0.3-2,0.8-2.7
							s1.2-1,2.1-1c0.9,0,1.6,0.3,2.1,0.9V39h1.3v10.5H133l-0.1-0.8c-0.5,0.6-1.2,0.9-2.1,0.9c-0.9,0-1.6-0.4-2.1-1.1
							S127.9,47,127.9,45.7L127.9,45.7z M129.2,45.9c0,0.8,0.2,1.5,0.5,2s0.8,0.7,1.4,0.7c0.8,0,1.4-0.4,1.8-1.1v-3.4
							c-0.4-0.7-1-1-1.7-1c-0.6,0-1.1,0.2-1.4,0.7S129.2,44.9,129.2,45.9z M142.7,45.1c-1.1-0.3-1.9-0.7-2.5-1.2s-0.8-1.1-0.8-1.7
							c0-0.8,0.3-1.4,0.9-1.9c0.6-0.5,1.4-0.8,2.4-0.8c0.7,0,1.3,0.1,1.8,0.4s1,0.6,1.2,1.1s0.4,1,0.4,1.5h-1.3
							c0-0.6-0.2-1.1-0.6-1.4s-0.9-0.5-1.6-0.5c-0.6,0-1.2,0.1-1.5,0.4s-0.5,0.7-0.5,1.2c0,0.4,0.2,0.7,0.5,1s0.9,0.5,1.8,0.8
							s1.5,0.5,1.9,0.8s0.8,0.6,1,1s0.3,0.8,0.3,1.3c0,0.8-0.3,1.5-0.9,1.9s-1.5,0.7-2.5,0.7c-0.7,0-1.3-0.1-1.9-0.4s-1-0.6-1.4-1.1
							s-0.5-1-0.5-1.6h1.3c0,0.6,0.2,1.1,0.7,1.4s1,0.5,1.8,0.5c0.7,0,1.2-0.1,1.6-0.4s0.6-0.7,0.6-1.2s-0.2-0.9-0.5-1.1
							S143.6,45.3,142.7,45.1z M151,49.6c-1,0-1.8-0.3-2.4-1s-0.9-1.5-0.9-2.6v-0.2c0-0.7,0.1-1.4,0.4-2s0.7-1,1.2-1.4
							s1-0.5,1.6-0.5c1,0,1.7,0.3,2.2,1s0.8,1.5,0.8,2.7v0.5h-5c0,0.7,0.2,1.3,0.6,1.8c0.4,0.4,0.9,0.7,1.6,0.7
							c0.4,0,0.8-0.1,1.1-0.3s0.6-0.4,0.8-0.7l0.8,0.6C153.2,49.2,152.2,49.6,151,49.6z M150.8,43c-0.5,0-0.9,0.2-1.3,0.6
							s-0.6,0.9-0.6,1.6h3.7V45c0-0.6-0.2-1.1-0.5-1.5S151.4,43,150.8,43z M158.9,43.2c-0.2,0-0.4,0-0.6,0c-0.8,0-1.4,0.4-1.7,1.1
							v5.2h-1.3v-7.4h1.2l0,0.9c0.4-0.7,1-1,1.8-1c0.2,0,0.4,0,0.6,0.1V43.2z M162.6,47.8l1.8-5.7h1.3l-2.7,7.4h-1l-2.7-7.4h1.3
							L162.6,47.8z M170,49.6c-1,0-1.8-0.3-2.4-1s-0.9-1.5-0.9-2.6v-0.2c0-0.7,0.1-1.4,0.4-2s0.7-1,1.2-1.4s1-0.5,1.6-0.5
							c1,0,1.7,0.3,2.2,1s0.8,1.5,0.8,2.7v0.5h-5c0,0.7,0.2,1.3,0.6,1.8c0.4,0.4,0.9,0.7,1.6,0.7c0.4,0,0.8-0.1,1.1-0.3
							s0.6-0.4,0.8-0.7l0.8,0.6C172.2,49.2,171.3,49.6,170,49.6z M169.9,43c-0.5,0-0.9,0.2-1.3,0.6s-0.6,0.9-0.6,1.6h3.7V45
							c0-0.6-0.2-1.1-0.5-1.5S170.4,43,169.9,43z M178,43.2c-0.2,0-0.4,0-0.6,0c-0.8,0-1.4,0.4-1.7,1.1v5.2h-1.3v-7.4h1.2l0,0.9
							c0.4-0.7,1-1,1.8-1c0.2,0,0.4,0,0.6,0.1V43.2z M183.4,47.5c0-0.3-0.1-0.6-0.4-0.8s-0.7-0.4-1.3-0.5s-1.1-0.3-1.5-0.5
							s-0.7-0.4-0.8-0.7s-0.3-0.6-0.3-0.9c0-0.6,0.3-1.1,0.8-1.5s1.2-0.6,2-0.6c0.8,0,1.5,0.2,2,0.6c0.5,0.4,0.8,1,0.8,1.7h-1.3
							c0-0.3-0.1-0.6-0.4-0.9s-0.7-0.4-1.1-0.4c-0.5,0-0.8,0.1-1.1,0.3s-0.4,0.5-0.4,0.8c0,0.3,0.1,0.5,0.4,0.7s0.7,0.3,1.3,0.4
							s1.1,0.3,1.5,0.5s0.7,0.4,0.9,0.7s0.3,0.6,0.3,1c0,0.7-0.3,1.2-0.8,1.6c-0.5,0.4-1.2,0.6-2.1,0.6c-0.6,0-1.1-0.1-1.6-0.3
							s-0.8-0.5-1.1-0.9s-0.4-0.8-0.4-1.2h1.3c0,0.4,0.2,0.8,0.5,1s0.7,0.4,1.3,0.4c0.5,0,0.9-0.1,1.2-0.3S183.4,47.9,183.4,47.5z
							 M186.3,51.5l-0.7-0.5c0.4-0.6,0.7-1.2,0.7-1.8V48h1.2v1c0,0.5-0.1,0.9-0.3,1.4S186.6,51.2,186.3,51.5z M194.3,40.3v1.8h1.4v1
							h-1.4v4.6c0,0.3,0.1,0.5,0.2,0.7s0.3,0.2,0.6,0.2c0.1,0,0.3,0,0.6-0.1v1c-0.3,0.1-0.7,0.1-1,0.1c-0.6,0-1-0.2-1.3-0.5
							s-0.4-0.8-0.4-1.5v-4.6h-1.3v-1h1.3v-1.8H194.3z M198.4,43c0.6-0.7,1.3-1,2.2-1c1.6,0,2.4,0.9,2.4,2.6v4.9h-1.3v-4.9
							c0-0.5-0.1-0.9-0.4-1.2s-0.6-0.4-1.1-0.4c-0.4,0-0.8,0.1-1.1,0.3s-0.6,0.5-0.7,0.9v5.3h-1.3V39h1.3V43z M207.9,49.6
							c-1,0-1.8-0.3-2.4-1s-0.9-1.5-0.9-2.6v-0.2c0-0.7,0.1-1.4,0.4-2s0.7-1,1.2-1.4s1-0.5,1.6-0.5c1,0,1.7,0.3,2.2,1
							s0.8,1.5,0.8,2.7v0.5h-5c0,0.7,0.2,1.3,0.6,1.8c0.4,0.4,0.9,0.7,1.6,0.7c0.4,0,0.8-0.1,1.1-0.3s0.6-0.4,0.8-0.7l0.8,0.6
							C210.1,49.2,209.2,49.6,207.9,49.6z M207.8,43c-0.5,0-0.9,0.2-1.3,0.6s-0.6,0.9-0.6,1.6h3.7V45c0-0.6-0.2-1.1-0.5-1.5
							S208.3,43,207.8,43z M216.6,47.5c0-0.3-0.1-0.6-0.4-0.8s-0.7-0.4-1.3-0.5s-1.1-0.3-1.5-0.5s-0.7-0.4-0.8-0.7s-0.3-0.6-0.3-0.9
							c0-0.6,0.3-1.1,0.8-1.5s1.2-0.6,2-0.6c0.8,0,1.5,0.2,2,0.6c0.5,0.4,0.8,1,0.8,1.7h-1.3c0-0.3-0.1-0.6-0.4-0.9
							s-0.7-0.4-1.1-0.4c-0.5,0-0.8,0.1-1.1,0.3s-0.4,0.5-0.4,0.8c0,0.3,0.1,0.5,0.4,0.7s0.7,0.3,1.3,0.4s1.1,0.3,1.5,0.5
							s0.7,0.4,0.9,0.7s0.3,0.6,0.3,1c0,0.7-0.3,1.2-0.8,1.6c-0.5,0.4-1.2,0.6-2.1,0.6c-0.6,0-1.1-0.1-1.6-0.3s-0.8-0.5-1.1-0.9
							s-0.4-0.8-0.4-1.2h1.3c0,0.4,0.2,0.8,0.5,1s0.7,0.4,1.3,0.4c0.5,0,0.9-0.1,1.2-0.3S216.6,47.9,216.6,47.5z M222.5,49.6
							c-1,0-1.8-0.3-2.4-1s-0.9-1.5-0.9-2.6v-0.2c0-0.7,0.1-1.4,0.4-2s0.7-1,1.2-1.4s1-0.5,1.6-0.5c1,0,1.7,0.3,2.2,1
							s0.8,1.5,0.8,2.7v0.5h-5c0,0.7,0.2,1.3,0.6,1.8c0.4,0.4,0.9,0.7,1.6,0.7c0.4,0,0.8-0.1,1.1-0.3s0.6-0.4,0.8-0.7l0.8,0.6
							C224.7,49.2,223.8,49.6,222.5,49.6z M222.4,43c-0.5,0-0.9,0.2-1.3,0.6s-0.6,0.9-0.6,1.6h3.7V45c0-0.6-0.2-1.1-0.5-1.5
							S222.9,43,222.4,43z M231.7,49.5h-1.3v-7.4h1.3V49.5z M230.4,40.1c0-0.2,0.1-0.4,0.2-0.5s0.3-0.2,0.6-0.2s0.4,0.1,0.6,0.2
							s0.2,0.3,0.2,0.5s-0.1,0.4-0.2,0.5s-0.3,0.2-0.6,0.2s-0.4-0.1-0.6-0.2S230.4,40.3,230.4,40.1z M235,42.1l0,0.9
							c0.6-0.7,1.3-1.1,2.2-1.1c1.6,0,2.4,0.9,2.4,2.6v4.9h-1.3v-4.9c0-0.5-0.1-0.9-0.4-1.2s-0.6-0.4-1.1-0.4
							c-0.4,0-0.8,0.1-1.1,0.3s-0.6,0.5-0.7,0.9v5.3h-1.3v-7.4H235z M245.8,47.5c0-0.3-0.1-0.6-0.4-0.8s-0.7-0.4-1.3-0.5
							s-1.1-0.3-1.5-0.5s-0.7-0.4-0.8-0.7s-0.3-0.6-0.3-0.9c0-0.6,0.3-1.1,0.8-1.5s1.2-0.6,2-0.6c0.8,0,1.5,0.2,2,0.6
							c0.5,0.4,0.8,1,0.8,1.7h-1.3c0-0.3-0.1-0.6-0.4-0.9s-0.7-0.4-1.1-0.4c-0.5,0-0.8,0.1-1.1,0.3s-0.4,0.5-0.4,0.8
							c0,0.3,0.1,0.5,0.4,0.7s0.7,0.3,1.3,0.4s1.1,0.3,1.5,0.5s0.7,0.4,0.9,0.7s0.3,0.6,0.3,1c0,0.7-0.3,1.2-0.8,1.6
							c-0.5,0.4-1.2,0.6-2.1,0.6c-0.6,0-1.1-0.1-1.6-0.3s-0.8-0.5-1.1-0.9s-0.4-0.8-0.4-1.2h1.3c0,0.4,0.2,0.8,0.5,1
							s0.7,0.4,1.3,0.4c0.5,0,0.9-0.1,1.2-0.3S245.8,47.9,245.8,47.5z M250.4,40.3v1.8h1.4v1h-1.4v4.6c0,0.3,0.1,0.5,0.2,0.7
							s0.3,0.2,0.6,0.2c0.1,0,0.3,0,0.6-0.1v1c-0.3,0.1-0.7,0.1-1,0.1c-0.6,0-1-0.2-1.3-0.5s-0.4-0.8-0.4-1.5v-4.6h-1.3v-1h1.3v-1.8
							H250.4z M257.8,49.5c-0.1-0.1-0.1-0.4-0.2-0.8c-0.6,0.6-1.3,0.9-2.1,0.9c-0.7,0-1.3-0.2-1.8-0.6s-0.7-0.9-0.7-1.6
							c0-0.8,0.3-1.4,0.9-1.8s1.4-0.6,2.5-0.6h1.2v-0.6c0-0.4-0.1-0.8-0.4-1.1s-0.7-0.4-1.2-0.4c-0.5,0-0.8,0.1-1.1,0.3
							s-0.5,0.5-0.5,0.8h-1.3c0-0.4,0.1-0.7,0.4-1.1s0.6-0.6,1.1-0.8s0.9-0.3,1.5-0.3c0.9,0,1.5,0.2,2,0.6s0.7,1,0.8,1.8v3.4
							c0,0.7,0.1,1.2,0.3,1.6v0.1H257.8z M255.7,48.5c0.4,0,0.8-0.1,1.1-0.3s0.6-0.5,0.8-0.8v-1.5h-1c-1.5,0-2.3,0.5-2.3,1.4
							c0,0.4,0.1,0.7,0.4,0.9S255.3,48.5,255.7,48.5z M262.1,42.1l0,0.9c0.6-0.7,1.3-1.1,2.2-1.1c1.6,0,2.4,0.9,2.4,2.6v4.9h-1.3
							v-4.9c0-0.5-0.1-0.9-0.4-1.2S264.5,43,264,43c-0.4,0-0.8,0.1-1.1,0.3s-0.6,0.5-0.7,0.9v5.3h-1.3v-7.4H262.1z M271.6,48.6
							c0.5,0,0.8-0.1,1.2-0.4s0.5-0.6,0.6-1h1.2c0,0.4-0.2,0.8-0.4,1.2s-0.6,0.7-1.1,0.9s-0.9,0.3-1.4,0.3c-1,0-1.8-0.3-2.4-1
							s-0.9-1.6-0.9-2.8v-0.2c0-0.7,0.1-1.4,0.4-1.9s0.6-1,1.1-1.3c0.5-0.3,1.1-0.5,1.8-0.5c0.8,0,1.5,0.2,2.1,0.7
							c0.5,0.5,0.8,1.1,0.9,1.9h-1.2c0-0.5-0.2-0.9-0.5-1.2s-0.7-0.5-1.2-0.5c-0.6,0-1.1,0.2-1.5,0.7s-0.5,1.1-0.5,2v0.2
							c0,0.9,0.2,1.5,0.5,2S270.9,48.6,271.6,48.6z M279,49.6c-1,0-1.8-0.3-2.4-1s-0.9-1.5-0.9-2.6v-0.2c0-0.7,0.1-1.4,0.4-2
							s0.7-1,1.2-1.4s1-0.5,1.6-0.5c1,0,1.7,0.3,2.2,1s0.8,1.5,0.8,2.7v0.5h-5c0,0.7,0.2,1.3,0.6,1.8c0.4,0.4,0.9,0.7,1.6,0.7
							c0.4,0,0.8-0.1,1.1-0.3s0.6-0.4,0.8-0.7l0.8,0.6C281.2,49.2,280.3,49.6,279,49.6z M278.9,43c-0.5,0-0.9,0.2-1.3,0.6
							s-0.6,0.9-0.6,1.6h3.7V45c0-0.6-0.2-1.1-0.5-1.5S279.4,43,278.9,43z M287.7,47.5c0-0.3-0.1-0.6-0.4-0.8s-0.7-0.4-1.3-0.5
							s-1.1-0.3-1.5-0.5s-0.7-0.4-0.8-0.7s-0.3-0.6-0.3-0.9c0-0.6,0.3-1.1,0.8-1.5s1.2-0.6,2-0.6c0.8,0,1.5,0.2,2,0.6
							c0.5,0.4,0.8,1,0.8,1.7h-1.3c0-0.3-0.1-0.6-0.4-0.9S286.5,43,286,43c-0.5,0-0.8,0.1-1.1,0.3s-0.4,0.5-0.4,0.8
							c0,0.3,0.1,0.5,0.4,0.7s0.7,0.3,1.3,0.4s1.1,0.3,1.5,0.5s0.7,0.4,0.9,0.7s0.3,0.6,0.3,1c0,0.7-0.3,1.2-0.8,1.6
							c-0.5,0.4-1.2,0.6-2.1,0.6c-0.6,0-1.1-0.1-1.6-0.3s-0.8-0.5-1.1-0.9s-0.4-0.8-0.4-1.2h1.3c0,0.4,0.2,0.8,0.5,1
							s0.7,0.4,1.3,0.4c0.5,0,0.9-0.1,1.2-0.3S287.7,47.9,287.7,47.5z M298.6,49.5c-0.1-0.1-0.1-0.4-0.2-0.8
							c-0.6,0.6-1.3,0.9-2.1,0.9c-0.7,0-1.3-0.2-1.8-0.6c-0.5-0.4-0.7-0.9-0.7-1.6c0-0.8,0.3-1.4,0.9-1.8s1.4-0.6,2.5-0.6h1.2v-0.6
							c0-0.4-0.1-0.8-0.4-1.1s-0.7-0.4-1.2-0.4c-0.5,0-0.8,0.1-1.1,0.3s-0.5,0.5-0.5,0.8H294c0-0.4,0.1-0.7,0.4-1.1s0.6-0.6,1.1-0.8
							s0.9-0.3,1.5-0.3c0.9,0,1.5,0.2,2,0.6s0.7,1,0.8,1.8v3.4c0,0.7,0.1,1.2,0.3,1.6v0.1H298.6z M296.5,48.5c0.4,0,0.8-0.1,1.1-0.3
							s0.6-0.5,0.8-0.8v-1.5h-1c-1.5,0-2.3,0.5-2.3,1.4c0,0.4,0.1,0.7,0.4,0.9S296.1,48.5,296.5,48.5z M305.2,43.2
							c-0.2,0-0.4,0-0.6,0c-0.8,0-1.4,0.4-1.7,1.1v5.2h-1.3v-7.4h1.2l0,0.9c0.4-0.7,1-1,1.8-1c0.2,0,0.4,0,0.6,0.1V43.2z
							 M309.5,49.6c-1,0-1.8-0.3-2.4-1s-0.9-1.5-0.9-2.6v-0.2c0-0.7,0.1-1.4,0.4-2s0.7-1,1.2-1.4s1-0.5,1.6-0.5c1,0,1.7,0.3,2.2,1
							s0.8,1.5,0.8,2.7v0.5h-5c0,0.7,0.2,1.3,0.6,1.8c0.4,0.4,0.9,0.7,1.6,0.7c0.4,0,0.8-0.1,1.1-0.3s0.6-0.4,0.8-0.7l0.8,0.6
							C311.6,49.2,310.7,49.6,309.5,49.6z M309.3,43c-0.5,0-0.9,0.2-1.3,0.6s-0.6,0.9-0.6,1.6h3.7V45c0-0.6-0.2-1.1-0.5-1.5
							S309.8,43,309.3,43z M321.6,47.5c0-0.3-0.1-0.6-0.4-0.8s-0.7-0.4-1.3-0.5s-1.1-0.3-1.5-0.5s-0.7-0.4-0.8-0.7s-0.3-0.6-0.3-0.9
							c0-0.6,0.3-1.1,0.8-1.5s1.2-0.6,2-0.6c0.8,0,1.5,0.2,2,0.6s0.8,1,0.8,1.7h-1.3c0-0.3-0.1-0.6-0.4-0.9S320.4,43,320,43
							c-0.5,0-0.8,0.1-1.1,0.3s-0.4,0.5-0.4,0.8c0,0.3,0.1,0.5,0.4,0.7s0.7,0.3,1.3,0.4s1.1,0.3,1.5,0.5s0.7,0.4,0.9,0.7
							s0.3,0.6,0.3,1c0,0.7-0.3,1.2-0.8,1.6s-1.2,0.6-2.1,0.6c-0.6,0-1.1-0.1-1.6-0.3s-0.8-0.5-1.1-0.9s-0.4-0.8-0.4-1.2h1.3
							c0,0.4,0.2,0.8,0.5,1s0.7,0.4,1.3,0.4c0.5,0,0.9-0.1,1.2-0.3S321.6,47.9,321.6,47.5z M330.7,45.9c0,1.1-0.3,2-0.8,2.7
							s-1.2,1-2.1,1c-0.9,0-1.6-0.3-2.1-0.9v3.6h-1.3V42.1h1.2l0.1,0.8c0.5-0.6,1.2-1,2.1-1c0.9,0,1.6,0.3,2.1,1s0.8,1.6,0.8,2.8
							V45.9z M329.5,45.7c0-0.8-0.2-1.5-0.5-2s-0.8-0.7-1.5-0.7c-0.8,0-1.3,0.3-1.7,1v3.5c0.4,0.7,1,1,1.7,1c0.6,0,1.1-0.2,1.4-0.7
							S329.5,46.7,329.5,45.7z M335.4,49.6c-1,0-1.8-0.3-2.4-1S332,47.1,332,46v-0.2c0-0.7,0.1-1.4,0.4-2s0.7-1,1.2-1.4
							s1-0.5,1.6-0.5c1,0,1.7,0.3,2.2,1s0.8,1.5,0.8,2.7v0.5h-5c0,0.7,0.2,1.3,0.6,1.8c0.4,0.4,0.9,0.7,1.6,0.7
							c0.4,0,0.8-0.1,1.1-0.3s0.6-0.4,0.8-0.7l0.8,0.6C337.6,49.2,336.7,49.6,335.4,49.6z M335.3,43c-0.5,0-0.9,0.2-1.3,0.6
							s-0.6,0.9-0.6,1.6h3.7V45c0-0.6-0.2-1.1-0.5-1.5S335.8,43,335.3,43z M342.7,48.6c0.5,0,0.8-0.1,1.2-0.4s0.5-0.6,0.6-1h1.2
							c0,0.4-0.2,0.8-0.4,1.2s-0.6,0.7-1.1,0.9s-0.9,0.3-1.4,0.3c-1,0-1.8-0.3-2.4-1s-0.9-1.6-0.9-2.8v-0.2c0-0.7,0.1-1.4,0.4-1.9
							s0.6-1,1.1-1.3s1.1-0.5,1.8-0.5c0.8,0,1.5,0.2,2.1,0.7s0.8,1.1,0.9,1.9h-1.2c0-0.5-0.2-0.9-0.5-1.2s-0.7-0.5-1.2-0.5
							c-0.6,0-1.1,0.2-1.5,0.7s-0.5,1.1-0.5,2v0.2c0,0.9,0.2,1.5,0.5,2S342.1,48.6,342.7,48.6z M348.5,49.5h-1.3v-7.4h1.3V49.5z
							 M347.1,40.1c0-0.2,0.1-0.4,0.2-0.5s0.3-0.2,0.6-0.2s0.4,0.1,0.6,0.2s0.2,0.3,0.2,0.5s-0.1,0.4-0.2,0.5s-0.3,0.2-0.6,0.2
							s-0.4-0.1-0.6-0.2S347.1,40.3,347.1,40.1z M350.9,49.5v-6.4h-1.2v-1h1.2v-0.6c0-0.8,0.2-1.5,0.7-1.9s1.1-0.7,2-0.7
							c0.5,0,1.2,0.1,1.9,0.4l-0.2,1.1c-0.6-0.2-1.1-0.3-1.6-0.3c-0.5,0-0.9,0.1-1.2,0.4s-0.4,0.6-0.4,1.1v0.6h1.5v1h-1.5v6.4H350.9
							z M356.2,49.5h-1.3v-7.4h1.3V49.5z M361.2,48.6c0.5,0,0.8-0.1,1.2-0.4s0.5-0.6,0.6-1h1.2c0,0.4-0.2,0.8-0.4,1.2
							s-0.6,0.7-1.1,0.9s-0.9,0.3-1.4,0.3c-1,0-1.8-0.3-2.4-1s-0.9-1.6-0.9-2.8v-0.2c0-0.7,0.1-1.4,0.4-1.9s0.6-1,1.1-1.3
							s1.1-0.5,1.8-0.5c0.8,0,1.5,0.2,2.1,0.7s0.8,1.1,0.9,1.9H363c0-0.5-0.2-0.9-0.5-1.2s-0.7-0.5-1.2-0.5c-0.6,0-1.1,0.2-1.5,0.7
							s-0.5,1.1-0.5,2v0.2c0,0.9,0.2,1.5,0.5,2S360.6,48.6,361.2,48.6z M370.1,49.5c-0.1-0.1-0.1-0.4-0.2-0.8
							c-0.6,0.6-1.3,0.9-2.1,0.9c-0.7,0-1.3-0.2-1.8-0.6s-0.7-0.9-0.7-1.6c0-0.8,0.3-1.4,0.9-1.8s1.4-0.6,2.5-0.6h1.2v-0.6
							c0-0.4-0.1-0.8-0.4-1.1s-0.7-0.4-1.2-0.4c-0.5,0-0.8,0.1-1.1,0.3s-0.5,0.5-0.5,0.8h-1.3c0-0.4,0.1-0.7,0.4-1.1
							s0.6-0.6,1.1-0.8s0.9-0.3,1.5-0.3c0.9,0,1.5,0.2,2,0.6s0.7,1,0.8,1.8v3.4c0,0.7,0.1,1.2,0.3,1.6v0.1H370.1z M368,48.5
							c0.4,0,0.8-0.1,1.1-0.3s0.6-0.5,0.8-0.8v-1.5h-1c-1.5,0-2.3,0.5-2.3,1.4c0,0.4,0.1,0.7,0.4,0.9S367.6,48.5,368,48.5z
							 M374.6,49.5h-1.3V39h1.3V49.5z M378,49.5h-1.3V39h1.3V49.5z M382.4,47.6l1.7-5.5h1.4l-3,8.5c-0.5,1.2-1.2,1.8-2.2,1.8l-0.2,0
							l-0.5-0.1v-1l0.3,0c0.4,0,0.8-0.1,1-0.3s0.4-0.5,0.6-1l0.3-0.8l-2.6-7.3h1.4L382.4,47.6z M58.1,64.7c0-0.7,0.1-1.4,0.4-2
							s0.7-1,1.2-1.3s1.1-0.5,1.7-0.5c1,0,1.8,0.3,2.4,1c0.6,0.7,0.9,1.6,0.9,2.8v0.1c0,0.7-0.1,1.4-0.4,1.9s-0.7,1-1.2,1.3
							s-1.1,0.5-1.8,0.5c-1,0-1.8-0.3-2.4-1S58.1,66,58.1,64.7L58.1,64.7z M59.4,64.9c0,0.8,0.2,1.5,0.6,2s0.9,0.7,1.5,0.7
							c0.6,0,1.2-0.3,1.5-0.8s0.6-1.2,0.6-2.1c0-0.8-0.2-1.5-0.6-2S62.1,62,61.5,62c-0.6,0-1.1,0.2-1.5,0.7S59.4,64,59.4,64.9z
							 M72.7,64.9c0,1.1-0.3,2-0.8,2.7s-1.2,1-2.1,1c-0.9,0-1.6-0.3-2.1-0.9v3.6h-1.3V61.1h1.2l0.1,0.8c0.5-0.6,1.2-1,2.1-1
							c0.9,0,1.6,0.3,2.1,1s0.8,1.6,0.8,2.8V64.9z M71.4,64.7c0-0.8-0.2-1.5-0.5-2S70,62,69.4,62c-0.8,0-1.3,0.3-1.7,1v3.5
							c0.4,0.7,1,1,1.7,1c0.6,0,1.1-0.2,1.4-0.7S71.4,65.7,71.4,64.7z M76,59.3v1.8h1.4v1H76v4.6c0,0.3,0.1,0.5,0.2,0.7
							s0.3,0.2,0.6,0.2c0.1,0,0.3,0,0.6-0.1v1c-0.3,0.1-0.7,0.1-1,0.1c-0.6,0-1-0.2-1.3-0.5s-0.4-0.8-0.4-1.5v-4.6h-1.3v-1h1.3v-1.8
							H76z M80.2,68.5H79v-7.4h1.3V68.5z M78.9,59.1c0-0.2,0.1-0.4,0.2-0.5s0.3-0.2,0.6-0.2s0.4,0.1,0.6,0.2s0.2,0.3,0.2,0.5
							s-0.1,0.4-0.2,0.5s-0.3,0.2-0.6,0.2s-0.4-0.1-0.6-0.2S78.9,59.3,78.9,59.1z M83.5,61.1l0,0.8c0.5-0.6,1.3-1,2.2-1
							c1,0,1.7,0.4,2.1,1.2c0.2-0.4,0.6-0.6,1-0.9s0.9-0.3,1.4-0.3c1.6,0,2.4,0.9,2.5,2.6v5h-1.3v-4.9c0-0.5-0.1-0.9-0.4-1.2
							S90.4,62,89.8,62c-0.5,0-0.9,0.1-1.2,0.4s-0.5,0.7-0.5,1.1v4.9h-1.3v-4.8c0-1.1-0.5-1.6-1.6-1.6c-0.8,0-1.4,0.4-1.7,1.1v5.4
							h-1.3v-7.4H83.5z M95.9,68.5h-1.3v-7.4h1.3V68.5z M94.5,59.1c0-0.2,0.1-0.4,0.2-0.5c0.1-0.1,0.3-0.2,0.6-0.2s0.4,0.1,0.6,0.2
							s0.2,0.3,0.2,0.5s-0.1,0.4-0.2,0.5s-0.3,0.2-0.6,0.2s-0.4-0.1-0.6-0.2C94.6,59.5,94.5,59.3,94.5,59.1z M99.1,67.5h4.3v1h-5.9
							v-0.9l4.1-5.4h-4v-1h5.6V62L99.1,67.5z M107.9,68.6c-1,0-1.8-0.3-2.4-1s-0.9-1.5-0.9-2.6v-0.2c0-0.7,0.1-1.4,0.4-2
							s0.7-1,1.2-1.4s1-0.5,1.6-0.5c1,0,1.7,0.3,2.2,1s0.8,1.5,0.8,2.7v0.5h-5c0,0.7,0.2,1.3,0.6,1.8s0.9,0.7,1.6,0.7
							c0.4,0,0.8-0.1,1.1-0.3s0.6-0.4,0.8-0.7l0.8,0.6C110.1,68.2,109.2,68.6,107.9,68.6z M107.8,62c-0.5,0-0.9,0.2-1.3,0.6
							s-0.6,0.9-0.6,1.6h3.7V64c0-0.6-0.2-1.1-0.5-1.5S108.3,62,107.8,62z M112,64.7c0-1.1,0.3-2,0.8-2.7s1.2-1,2.1-1
							c0.9,0,1.6,0.3,2.1,0.9V58h1.3v10.5h-1.2l-0.1-0.8c-0.5,0.6-1.2,0.9-2.1,0.9c-0.9,0-1.6-0.4-2.1-1.1S112,66,112,64.7L112,64.7
							z M113.2,64.9c0,0.8,0.2,1.5,0.5,2s0.8,0.7,1.4,0.7c0.8,0,1.4-0.4,1.8-1.1v-3.4c-0.4-0.7-1-1-1.7-1c-0.6,0-1.1,0.2-1.4,0.7
							S113.2,63.9,113.2,64.9z M124.3,68.5v-6.4h-1.2v-1h1.2v-0.8c0-0.8,0.2-1.4,0.6-1.8s1-0.6,1.8-0.6c0.3,0,0.6,0,0.9,0.1l-0.1,1
							c-0.2,0-0.4-0.1-0.7-0.1c-0.4,0-0.7,0.1-1,0.4s-0.3,0.6-0.3,1v0.8h1.6v1h-1.6v6.4H124.3z M128.2,64.7c0-0.7,0.1-1.4,0.4-2
							s0.7-1,1.2-1.3s1.1-0.5,1.7-0.5c1,0,1.8,0.3,2.4,1s0.9,1.6,0.9,2.8v0.1c0,0.7-0.1,1.4-0.4,1.9s-0.7,1-1.2,1.3
							s-1.1,0.5-1.8,0.5c-1,0-1.8-0.3-2.4-1S128.2,66,128.2,64.7L128.2,64.7z M129.4,64.9c0,0.8,0.2,1.5,0.6,2s0.9,0.7,1.5,0.7
							c0.6,0,1.2-0.3,1.5-0.8s0.6-1.2,0.6-2.1c0-0.8-0.2-1.5-0.6-2s-0.9-0.8-1.5-0.8c-0.6,0-1.1,0.2-1.5,0.7S129.4,64,129.4,64.9z
							 M140.1,62.2c-0.2,0-0.4,0-0.6,0c-0.8,0-1.4,0.4-1.7,1.1v5.2h-1.3v-7.4h1.2l0,0.9c0.4-0.7,1-1,1.8-1c0.2,0,0.4,0,0.6,0.1V62.2
							z M148.3,62.2c-0.2,0-0.4,0-0.6,0c-0.8,0-1.4,0.4-1.7,1.1v5.2h-1.3v-7.4h1.2l0,0.9c0.4-0.7,1-1,1.8-1c0.2,0,0.4,0,0.6,0.1
							V62.2z M154,67.8c-0.5,0.6-1.2,0.9-2.2,0.9c-0.8,0-1.4-0.2-1.8-0.7s-0.6-1.1-0.6-2v-4.8h1.3v4.8c0,1.1,0.5,1.7,1.4,1.7
							c1,0,1.6-0.4,1.9-1.1v-5.4h1.3v7.4H154L154,67.8z M158.4,61.1l0,0.9c0.6-0.7,1.3-1.1,2.2-1.1c1.6,0,2.4,0.9,2.4,2.6v4.9h-1.3
							v-4.9c0-0.5-0.1-0.9-0.4-1.2s-0.6-0.4-1.1-0.4c-0.4,0-0.8,0.1-1.1,0.3s-0.6,0.5-0.7,0.9v5.3h-1.3v-7.4H158.4z M166.1,61.1
							l0,0.9c0.6-0.7,1.3-1.1,2.2-1.1c1.6,0,2.4,0.9,2.4,2.6v4.9h-1.3v-4.9c0-0.5-0.1-0.9-0.4-1.2s-0.6-0.4-1.1-0.4
							c-0.4,0-0.8,0.1-1.1,0.3s-0.6,0.5-0.7,0.9v5.3h-1.3v-7.4H166.1z M174,68.5h-1.3v-7.4h1.3V68.5z M172.6,59.1
							c0-0.2,0.1-0.4,0.2-0.5s0.3-0.2,0.6-0.2s0.4,0.1,0.6,0.2s0.2,0.3,0.2,0.5s-0.1,0.4-0.2,0.5s-0.3,0.2-0.6,0.2s-0.4-0.1-0.6-0.2
							S172.6,59.3,172.6,59.1z M177.2,61.1l0,0.9c0.6-0.7,1.3-1.1,2.2-1.1c1.6,0,2.4,0.9,2.4,2.6v4.9h-1.3v-4.9
							c0-0.5-0.1-0.9-0.4-1.2s-0.6-0.4-1.1-0.4c-0.4,0-0.8,0.1-1.1,0.3s-0.6,0.5-0.7,0.9v5.3H176v-7.4H177.2z M183.4,64.7
							c0-1.2,0.3-2.1,0.8-2.8s1.2-1,2.1-1c0.9,0,1.6,0.3,2.1,1l0.1-0.8h1.2v7.2c0,1-0.3,1.7-0.9,2.3s-1.3,0.8-2.3,0.8
							c-0.5,0-1.1-0.1-1.6-0.3s-0.9-0.5-1.2-0.9l0.7-0.8c0.5,0.7,1.2,1,2,1c0.6,0,1.1-0.2,1.4-0.5s0.5-0.8,0.5-1.5v-0.6
							c-0.5,0.6-1.2,0.9-2.1,0.9c-0.9,0-1.6-0.3-2.1-1S183.4,65.9,183.4,64.7z M184.7,64.9c0,0.8,0.2,1.5,0.5,2s0.8,0.7,1.4,0.7
							c0.8,0,1.4-0.4,1.8-1.1v-3.4c-0.4-0.7-1-1.1-1.7-1.1c-0.6,0-1.1,0.2-1.4,0.7S184.7,63.9,184.7,64.9z M194.7,64.7
							c0-1.1,0.3-2,0.8-2.7s1.2-1,2.1-1c0.9,0,1.6,0.3,2.1,0.9V58h1.3v10.5h-1.2l-0.1-0.8c-0.5,0.6-1.2,0.9-2.1,0.9
							c-0.9,0-1.6-0.4-2.1-1.1S194.7,66,194.7,64.7L194.7,64.7z M196,64.9c0,0.8,0.2,1.5,0.5,2s0.8,0.7,1.4,0.7
							c0.8,0,1.4-0.4,1.8-1.1v-3.4c-0.4-0.7-1-1-1.7-1c-0.6,0-1.1,0.2-1.4,0.7S196,63.9,196,64.9z M207.5,68.5
							c-0.1-0.1-0.1-0.4-0.2-0.8c-0.6,0.6-1.3,0.9-2.1,0.9c-0.7,0-1.3-0.2-1.8-0.6c-0.5-0.4-0.7-0.9-0.7-1.6c0-0.8,0.3-1.4,0.9-1.8
							s1.4-0.6,2.5-0.6h1.2v-0.6c0-0.4-0.1-0.8-0.4-1.1s-0.7-0.4-1.2-0.4c-0.5,0-0.8,0.1-1.1,0.3s-0.5,0.5-0.5,0.8h-1.3
							c0-0.4,0.1-0.7,0.4-1.1s0.6-0.6,1.1-0.8s0.9-0.3,1.5-0.3c0.9,0,1.5,0.2,2,0.6s0.7,1,0.8,1.8v3.4c0,0.7,0.1,1.2,0.3,1.6v0.1
							H207.5z M205.4,67.5c0.4,0,0.8-0.1,1.1-0.3s0.6-0.5,0.8-0.8v-1.5h-1c-1.5,0-2.3,0.5-2.3,1.4c0,0.4,0.1,0.7,0.4,0.9
							S205,67.5,205.4,67.5z M212.3,59.3v1.8h1.4v1h-1.4v4.6c0,0.3,0.1,0.5,0.2,0.7s0.3,0.2,0.6,0.2c0.1,0,0.3,0,0.6-0.1v1
							c-0.3,0.1-0.7,0.1-1,0.1c-0.6,0-1-0.2-1.3-0.5s-0.4-0.8-0.4-1.5v-4.6h-1.3v-1h1.3v-1.8H212.3z M219.7,68.5
							c-0.1-0.1-0.1-0.4-0.2-0.8c-0.6,0.6-1.3,0.9-2.1,0.9c-0.7,0-1.3-0.2-1.8-0.6s-0.7-0.9-0.7-1.6c0-0.8,0.3-1.4,0.9-1.8
							s1.4-0.6,2.5-0.6h1.2v-0.6c0-0.4-0.1-0.8-0.4-1.1s-0.7-0.4-1.2-0.4c-0.5,0-0.8,0.1-1.1,0.3s-0.5,0.5-0.5,0.8h-1.3
							c0-0.4,0.1-0.7,0.4-1.1s0.6-0.6,1.1-0.8s0.9-0.3,1.5-0.3c0.9,0,1.5,0.2,2,0.6s0.7,1,0.8,1.8v3.4c0,0.7,0.1,1.2,0.3,1.6v0.1
							H219.7z M217.6,67.5c0.4,0,0.8-0.1,1.1-0.3s0.6-0.5,0.8-0.8v-1.5h-1c-1.5,0-2.3,0.5-2.3,1.4c0,0.4,0.1,0.7,0.4,0.9
							S217.2,67.5,217.6,67.5z M229,64.9c0,1.1-0.3,2-0.8,2.7s-1.2,1-2.1,1c-0.9,0-1.7-0.3-2.2-1l-0.1,0.9h-1.2V58h1.3v3.9
							c0.5-0.6,1.2-1,2.1-1s1.6,0.3,2.1,1s0.8,1.6,0.8,2.8V64.9z M227.7,64.7c0-0.9-0.2-1.5-0.5-2s-0.8-0.7-1.4-0.7
							c-0.8,0-1.4,0.4-1.8,1.2v3.2c0.4,0.8,1,1.2,1.8,1.2c0.6,0,1.1-0.2,1.4-0.7S227.7,65.7,227.7,64.7z M235.2,68.5
							c-0.1-0.1-0.1-0.4-0.2-0.8c-0.6,0.6-1.3,0.9-2.1,0.9c-0.7,0-1.3-0.2-1.8-0.6c-0.5-0.4-0.7-0.9-0.7-1.6c0-0.8,0.3-1.4,0.9-1.8
							s1.4-0.6,2.5-0.6h1.2v-0.6c0-0.4-0.1-0.8-0.4-1.1s-0.7-0.4-1.2-0.4c-0.5,0-0.8,0.1-1.1,0.3s-0.5,0.5-0.5,0.8h-1.3
							c0-0.4,0.1-0.7,0.4-1.1s0.6-0.6,1.1-0.8s0.9-0.3,1.5-0.3c0.9,0,1.5,0.2,2,0.6s0.7,1,0.8,1.8v3.4c0,0.7,0.1,1.2,0.3,1.6v0.1
							H235.2z M233.1,67.5c0.4,0,0.8-0.1,1.1-0.3s0.6-0.5,0.8-0.8v-1.5h-1c-1.5,0-2.3,0.5-2.3,1.4c0,0.4,0.1,0.7,0.4,0.9
							S232.7,67.5,233.1,67.5z M242.5,66.5c0-0.3-0.1-0.6-0.4-0.8s-0.7-0.4-1.3-0.5s-1.1-0.3-1.5-0.5s-0.7-0.4-0.8-0.7
							c-0.2-0.3-0.3-0.6-0.3-0.9c0-0.6,0.3-1.1,0.8-1.5s1.2-0.6,2-0.6c0.8,0,1.5,0.2,2,0.6c0.5,0.4,0.8,1,0.8,1.7h-1.3
							c0-0.3-0.1-0.6-0.4-0.9s-0.7-0.4-1.1-0.4c-0.5,0-0.8,0.1-1.1,0.3s-0.4,0.5-0.4,0.8c0,0.3,0.1,0.5,0.4,0.7s0.7,0.3,1.3,0.4
							s1.1,0.3,1.5,0.5s0.7,0.4,0.9,0.7s0.3,0.6,0.3,1c0,0.7-0.3,1.2-0.8,1.6c-0.5,0.4-1.2,0.6-2.1,0.6c-0.6,0-1.1-0.1-1.6-0.3
							s-0.8-0.5-1.1-0.9s-0.4-0.8-0.4-1.2h1.3c0,0.4,0.2,0.8,0.5,1s0.7,0.4,1.3,0.4c0.5,0,0.9-0.1,1.2-0.3S242.5,66.9,242.5,66.5z
							 M248.5,68.6c-1,0-1.8-0.3-2.4-1s-0.9-1.5-0.9-2.6v-0.2c0-0.7,0.1-1.4,0.4-2s0.7-1,1.2-1.4s1-0.5,1.6-0.5c1,0,1.7,0.3,2.2,1
							s0.8,1.5,0.8,2.7v0.5h-5c0,0.7,0.2,1.3,0.6,1.8s0.9,0.7,1.6,0.7c0.4,0,0.8-0.1,1.1-0.3s0.6-0.4,0.8-0.7l0.8,0.6
							C250.7,68.2,249.7,68.6,248.5,68.6z M248.3,62c-0.5,0-0.9,0.2-1.3,0.6s-0.6,0.9-0.6,1.6h3.7V64c0-0.6-0.2-1.1-0.5-1.5
							S248.9,62,248.3,62z M257.2,66.5c0-0.3-0.1-0.6-0.4-0.8s-0.7-0.4-1.3-0.5c-0.6-0.1-1.1-0.3-1.5-0.5s-0.7-0.4-0.8-0.7
							c-0.2-0.3-0.3-0.6-0.3-0.9c0-0.6,0.3-1.1,0.8-1.5s1.2-0.6,2-0.6c0.8,0,1.5,0.2,2,0.6c0.5,0.4,0.8,1,0.8,1.7h-1.3
							c0-0.3-0.1-0.6-0.4-0.9S256,62,255.5,62c-0.5,0-0.8,0.1-1.1,0.3s-0.4,0.5-0.4,0.8c0,0.3,0.1,0.5,0.4,0.7s0.7,0.3,1.3,0.4
							s1.1,0.3,1.5,0.5s0.7,0.4,0.9,0.7s0.3,0.6,0.3,1c0,0.7-0.3,1.2-0.8,1.6c-0.5,0.4-1.2,0.6-2.1,0.6c-0.6,0-1.1-0.1-1.6-0.3
							s-0.8-0.5-1.1-0.9s-0.4-0.8-0.4-1.2h1.3c0,0.4,0.2,0.8,0.5,1s0.7,0.4,1.3,0.4c0.5,0,0.9-0.1,1.2-0.3S257.2,66.9,257.2,66.5z
							 M264.9,68.5h-1.3v-7.4h1.3V68.5z M263.5,59.1c0-0.2,0.1-0.4,0.2-0.5s0.3-0.2,0.6-0.2s0.4,0.1,0.6,0.2s0.2,0.3,0.2,0.5
							s-0.1,0.4-0.2,0.5s-0.3,0.2-0.6,0.2s-0.4-0.1-0.6-0.2S263.5,59.3,263.5,59.1z M268.1,61.1l0,0.9c0.6-0.7,1.3-1.1,2.2-1.1
							c1.6,0,2.4,0.9,2.4,2.6v4.9h-1.3v-4.9c0-0.5-0.1-0.9-0.4-1.2S270.5,62,270,62c-0.4,0-0.8,0.1-1.1,0.3s-0.6,0.5-0.7,0.9v5.3
							h-1.3v-7.4H268.1z M281.1,67.6c0.5,0,0.8-0.1,1.2-0.4s0.5-0.6,0.6-1h1.2c0,0.4-0.2,0.8-0.4,1.2s-0.6,0.7-1.1,0.9
							s-0.9,0.3-1.4,0.3c-1,0-1.8-0.3-2.4-1s-0.9-1.6-0.9-2.8v-0.2c0-0.7,0.1-1.4,0.4-1.9s0.6-1,1.1-1.3c0.5-0.3,1.1-0.5,1.8-0.5
							c0.8,0,1.5,0.2,2.1,0.7s0.8,1.1,0.9,1.9h-1.2c0-0.5-0.2-0.9-0.5-1.2s-0.7-0.5-1.2-0.5c-0.6,0-1.1,0.2-1.5,0.7s-0.5,1.1-0.5,2
							v0.2c0,0.9,0.2,1.5,0.5,2S280.4,67.6,281.1,67.6z M286.8,68.5h-1.3V58h1.3V68.5z M288.5,64.7c0-0.7,0.1-1.4,0.4-2
							s0.7-1,1.2-1.3c0.5-0.3,1.1-0.5,1.7-0.5c1,0,1.8,0.3,2.4,1s0.9,1.6,0.9,2.8v0.1c0,0.7-0.1,1.4-0.4,1.9s-0.7,1-1.2,1.3
							s-1.1,0.5-1.8,0.5c-1,0-1.8-0.3-2.4-1S288.5,66,288.5,64.7L288.5,64.7z M289.8,64.9c0,0.8,0.2,1.5,0.6,2s0.9,0.7,1.5,0.7
							c0.6,0,1.2-0.3,1.5-0.8s0.6-1.2,0.6-2.1c0-0.8-0.2-1.5-0.6-2s-0.9-0.8-1.5-0.8c-0.6,0-1.1,0.2-1.5,0.7S289.8,64,289.8,64.9z
							 M301.4,67.8c-0.5,0.6-1.2,0.9-2.2,0.9c-0.8,0-1.4-0.2-1.8-0.7s-0.6-1.1-0.6-2v-4.8h1.3v4.8c0,1.1,0.5,1.7,1.4,1.7
							c1,0,1.6-0.4,1.9-1.1v-5.4h1.3v7.4h-1.2L301.4,67.8z M304.2,64.7c0-1.1,0.3-2,0.8-2.7s1.2-1,2.1-1c0.9,0,1.6,0.3,2.1,0.9V58
							h1.3v10.5h-1.2l-0.1-0.8c-0.5,0.6-1.2,0.9-2.1,0.9c-0.9,0-1.6-0.4-2.1-1.1S304.2,66,304.2,64.7L304.2,64.7z M305.5,64.9
							c0,0.8,0.2,1.5,0.5,2s0.8,0.7,1.4,0.7c0.8,0,1.4-0.4,1.8-1.1v-3.4c-0.4-0.7-1-1-1.7-1c-0.6,0-1.1,0.2-1.4,0.7
							S305.5,63.9,305.5,64.9z M319,68.6c-1,0-1.8-0.3-2.4-1s-0.9-1.5-0.9-2.6v-0.2c0-0.7,0.1-1.4,0.4-2s0.7-1,1.2-1.4
							s1-0.5,1.6-0.5c1,0,1.7,0.3,2.2,1s0.8,1.5,0.8,2.7v0.5h-5c0,0.7,0.2,1.3,0.6,1.8s0.9,0.7,1.6,0.7c0.4,0,0.8-0.1,1.1-0.3
							s0.6-0.4,0.8-0.7l0.8,0.6C321.2,68.2,320.2,68.6,319,68.6z M318.8,62c-0.5,0-0.9,0.2-1.3,0.6s-0.6,0.9-0.6,1.6h3.7V64
							c0-0.6-0.2-1.1-0.5-1.5S319.4,62,318.8,62z M324.5,61.1l0,0.9c0.6-0.7,1.3-1.1,2.2-1.1c1.6,0,2.4,0.9,2.4,2.6v4.9h-1.3v-4.9
							c0-0.5-0.1-0.9-0.4-1.2s-0.6-0.4-1.1-0.4c-0.4,0-0.8,0.1-1.1,0.3s-0.6,0.5-0.7,0.9v5.3h-1.3v-7.4H324.5z M333.5,66.8l1.8-5.7
							h1.3l-2.7,7.4h-1l-2.7-7.4h1.3L333.5,66.8z M339.2,68.5h-1.3v-7.4h1.3V68.5z M337.8,59.1c0-0.2,0.1-0.4,0.2-0.5
							s0.3-0.2,0.6-0.2s0.4,0.1,0.6,0.2s0.2,0.3,0.2,0.5s-0.1,0.4-0.2,0.5s-0.3,0.2-0.6,0.2s-0.4-0.1-0.6-0.2S337.8,59.3,337.8,59.1
							z M344.8,62.2c-0.2,0-0.4,0-0.6,0c-0.8,0-1.4,0.4-1.7,1.1v5.2h-1.3v-7.4h1.2l0,0.9c0.4-0.7,1-1,1.8-1c0.2,0,0.4,0,0.6,0.1
							V62.2z M345.5,64.7c0-0.7,0.1-1.4,0.4-2s0.7-1,1.2-1.3s1.1-0.5,1.7-0.5c1,0,1.8,0.3,2.4,1s0.9,1.6,0.9,2.8v0.1
							c0,0.7-0.1,1.4-0.4,1.9s-0.7,1-1.2,1.3s-1.1,0.5-1.8,0.5c-1,0-1.8-0.3-2.4-1S345.5,66,345.5,64.7L345.5,64.7z M346.8,64.9
							c0,0.8,0.2,1.5,0.6,2s0.9,0.7,1.5,0.7c0.6,0,1.2-0.3,1.5-0.8s0.6-1.2,0.6-2.1c0-0.8-0.2-1.5-0.6-2s-0.9-0.8-1.5-0.8
							c-0.6,0-1.1,0.2-1.5,0.7S346.8,64,346.8,64.9z M355,61.1l0,0.9c0.6-0.7,1.3-1.1,2.2-1.1c1.6,0,2.4,0.9,2.4,2.6v4.9h-1.3v-4.9
							c0-0.5-0.1-0.9-0.4-1.2s-0.6-0.4-1.1-0.4c-0.4,0-0.8,0.1-1.1,0.3s-0.6,0.5-0.7,0.9v5.3h-1.3v-7.4H355z M362.7,61.1l0,0.8
							c0.5-0.6,1.3-1,2.2-1c1,0,1.7,0.4,2.1,1.2c0.2-0.4,0.6-0.6,1-0.9s0.9-0.3,1.4-0.3c1.6,0,2.4,0.9,2.5,2.6v5h-1.3v-4.9
							c0-0.5-0.1-0.9-0.4-1.2s-0.6-0.4-1.2-0.4c-0.5,0-0.9,0.1-1.2,0.4s-0.5,0.7-0.5,1.1v4.9h-1.3v-4.8c0-1.1-0.5-1.6-1.6-1.6
							c-0.8,0-1.4,0.4-1.7,1.1v5.4h-1.3v-7.4H362.7z M376.9,68.6c-1,0-1.8-0.3-2.4-1s-0.9-1.5-0.9-2.6v-0.2c0-0.7,0.1-1.4,0.4-2
							s0.7-1,1.2-1.4s1-0.5,1.6-0.5c1,0,1.7,0.3,2.2,1s0.8,1.5,0.8,2.7v0.5h-5c0,0.7,0.2,1.3,0.6,1.8s0.9,0.7,1.6,0.7
							c0.4,0,0.8-0.1,1.1-0.3s0.6-0.4,0.8-0.7l0.8,0.6C379.1,68.2,378.1,68.6,376.9,68.6z M376.7,62c-0.5,0-0.9,0.2-1.3,0.6
							s-0.6,0.9-0.6,1.6h3.7V64c0-0.6-0.2-1.1-0.5-1.5S377.3,62,376.7,62z M382.4,61.1l0,0.9c0.6-0.7,1.3-1.1,2.2-1.1
							c1.6,0,2.4,0.9,2.4,2.6v4.9h-1.3v-4.9c0-0.5-0.1-0.9-0.4-1.2s-0.6-0.4-1.1-0.4c-0.4,0-0.8,0.1-1.1,0.3s-0.6,0.5-0.7,0.9v5.3
							h-1.3v-7.4H382.4z M390.7,59.3v1.8h1.4v1h-1.4v4.6c0,0.3,0.1,0.5,0.2,0.7s0.3,0.2,0.6,0.2c0.1,0,0.3,0,0.6-0.1v1
							c-0.3,0.1-0.7,0.1-1,0.1c-0.6,0-1-0.2-1.3-0.5s-0.4-0.8-0.4-1.5v-4.6h-1.3v-1h1.3v-1.8H390.7z M397.8,66.5
							c0-0.3-0.1-0.6-0.4-0.8s-0.7-0.4-1.3-0.5s-1.1-0.3-1.5-0.5s-0.7-0.4-0.8-0.7c-0.2-0.3-0.3-0.6-0.3-0.9c0-0.6,0.3-1.1,0.8-1.5
							s1.2-0.6,2-0.6c0.8,0,1.5,0.2,2,0.6s0.8,1,0.8,1.7h-1.3c0-0.3-0.1-0.6-0.4-0.9s-0.7-0.4-1.1-0.4c-0.5,0-0.8,0.1-1.1,0.3
							s-0.4,0.5-0.4,0.8c0,0.3,0.1,0.5,0.4,0.7s0.7,0.3,1.3,0.4s1.1,0.3,1.5,0.5s0.7,0.4,0.9,0.7s0.3,0.6,0.3,1
							c0,0.7-0.3,1.2-0.8,1.6s-1.2,0.6-2.1,0.6c-0.6,0-1.1-0.1-1.6-0.3s-0.8-0.5-1.1-0.9s-0.4-0.8-0.4-1.2h1.3c0,0.4,0.2,0.8,0.5,1
							s0.7,0.4,1.3,0.4c0.5,0,0.9-0.1,1.2-0.3S397.8,66.9,397.8,66.5z M400.8,67.8c0-0.2,0.1-0.4,0.2-0.5s0.3-0.2,0.6-0.2
							s0.5,0.1,0.6,0.2s0.2,0.3,0.2,0.5c0,0.2-0.1,0.4-0.2,0.5s-0.3,0.2-0.6,0.2s-0.5-0.1-0.6-0.2S400.8,68,400.8,67.8z"/>
						<g id="Group-18" transform="translate(13.000000, 56.000000)">
							<path id="More-info-about-Clou" class="st4" d="M47.7,25.5l3.3,8.1l3.3-8.1h1.7v10h-1.3v-3.9l0.1-4.2l-3.3,8.1h-1l-3.3-8
								l0.1,4.2v3.9H46v-10H47.7z M57.7,31.7c0-0.7,0.1-1.4,0.4-2s0.7-1,1.2-1.3S60.4,28,61,28c1,0,1.8,0.3,2.4,1
								c0.6,0.7,0.9,1.6,0.9,2.8v0.1c0,0.7-0.1,1.4-0.4,1.9s-0.7,1-1.2,1.3s-1.1,0.5-1.8,0.5c-1,0-1.8-0.3-2.4-1S57.7,33,57.7,31.7
								L57.7,31.7z M58.9,31.9c0,0.8,0.2,1.5,0.6,2s0.9,0.7,1.5,0.7c0.6,0,1.2-0.3,1.5-0.8s0.6-1.2,0.6-2.1c0-0.8-0.2-1.5-0.6-2
								S61.7,29,61,29c-0.6,0-1.1,0.2-1.5,0.7S58.9,31,58.9,31.9z M69.6,29.2c-0.2,0-0.4,0-0.6,0c-0.8,0-1.4,0.4-1.7,1.1v5.2H66
								v-7.4h1.2l0,0.9c0.4-0.7,1-1,1.8-1c0.2,0,0.4,0,0.6,0.1V29.2z M73.8,35.6c-1,0-1.8-0.3-2.4-1s-0.9-1.5-0.9-2.6v-0.2
								c0-0.7,0.1-1.4,0.4-2s0.7-1,1.2-1.4s1-0.5,1.6-0.5c1,0,1.7,0.3,2.2,1s0.8,1.5,0.8,2.7v0.5h-5c0,0.7,0.2,1.3,0.6,1.8
								s0.9,0.7,1.6,0.7c0.4,0,0.8-0.1,1.1-0.3s0.6-0.4,0.8-0.7l0.8,0.6C76,35.2,75,35.6,73.8,35.6z M73.6,29
								c-0.5,0-0.9,0.2-1.3,0.6s-0.6,0.9-0.6,1.6h3.7V31c0-0.6-0.2-1.1-0.5-1.5S74.2,29,73.6,29z M83,35.5h-1.3v-7.4H83V35.5z
								 M81.6,26.1c0-0.2,0.1-0.4,0.2-0.5c0.1-0.1,0.3-0.2,0.6-0.2s0.4,0.1,0.6,0.2s0.2,0.3,0.2,0.5s-0.1,0.4-0.2,0.5
								s-0.3,0.2-0.6,0.2s-0.4-0.1-0.6-0.2C81.7,26.5,81.6,26.3,81.6,26.1z M86.2,28.1l0,0.9c0.6-0.7,1.3-1.1,2.2-1.1
								c1.6,0,2.4,0.9,2.4,2.6v4.9h-1.3v-4.9c0-0.5-0.1-0.9-0.4-1.2S88.6,29,88.1,29c-0.4,0-0.8,0.1-1.1,0.3s-0.6,0.5-0.7,0.9v5.3
								H85v-7.4H86.2z M93.4,35.5v-6.4h-1.2v-1h1.2v-0.8c0-0.8,0.2-1.4,0.6-1.8s1-0.6,1.8-0.6c0.3,0,0.6,0,0.9,0.1l-0.1,1
								c-0.2,0-0.4-0.1-0.7-0.1c-0.4,0-0.7,0.1-1,0.4s-0.3,0.6-0.3,1v0.8h1.6v1h-1.6v6.4H93.4z M97.3,31.7c0-0.7,0.1-1.4,0.4-2
								s0.7-1,1.2-1.3s1.1-0.5,1.7-0.5c1,0,1.8,0.3,2.4,1s0.9,1.6,0.9,2.8v0.1c0,0.7-0.1,1.4-0.4,1.9s-0.7,1-1.2,1.3
								s-1.1,0.5-1.8,0.5c-1,0-1.8-0.3-2.4-1S97.3,33,97.3,31.7L97.3,31.7z M98.5,31.9c0,0.8,0.2,1.5,0.6,2s0.9,0.7,1.5,0.7
								c0.6,0,1.2-0.3,1.5-0.8s0.6-1.2,0.6-2.1c0-0.8-0.2-1.5-0.6-2s-0.9-0.8-1.5-0.8c-0.6,0-1.1,0.2-1.5,0.7S98.5,31,98.5,31.9z
								 M113.6,35.5c-0.1-0.1-0.1-0.4-0.2-0.8c-0.6,0.6-1.3,0.9-2.1,0.9c-0.7,0-1.3-0.2-1.8-0.6s-0.7-0.9-0.7-1.6
								c0-0.8,0.3-1.4,0.9-1.8s1.4-0.6,2.5-0.6h1.2v-0.6c0-0.4-0.1-0.8-0.4-1.1s-0.7-0.4-1.2-0.4c-0.5,0-0.8,0.1-1.1,0.3
								s-0.5,0.5-0.5,0.8H109c0-0.4,0.1-0.7,0.4-1.1s0.6-0.6,1.1-0.8s0.9-0.3,1.5-0.3c0.9,0,1.5,0.2,2,0.6s0.7,1,0.8,1.8v3.4
								c0,0.7,0.1,1.2,0.3,1.6v0.1H113.6z M111.5,34.5c0.4,0,0.8-0.1,1.1-0.3s0.6-0.5,0.8-0.8v-1.5h-1c-1.5,0-2.3,0.5-2.3,1.4
								c0,0.4,0.1,0.7,0.4,0.9S111.1,34.5,111.5,34.5z M122.9,31.9c0,1.1-0.3,2-0.8,2.7s-1.2,1-2.1,1c-0.9,0-1.7-0.3-2.2-1l-0.1,0.9
								h-1.2V25h1.3v3.9c0.5-0.6,1.2-1,2.1-1s1.6,0.3,2.1,1s0.8,1.6,0.8,2.8V31.9z M121.7,31.7c0-0.9-0.2-1.5-0.5-2
								s-0.8-0.7-1.4-0.7c-0.8,0-1.4,0.4-1.8,1.2v3.2c0.4,0.8,1,1.2,1.8,1.2c0.6,0,1.1-0.2,1.4-0.7S121.7,32.7,121.7,31.7z
								 M124.2,31.7c0-0.7,0.1-1.4,0.4-2s0.7-1,1.2-1.3s1.1-0.5,1.7-0.5c1,0,1.8,0.3,2.4,1s0.9,1.6,0.9,2.8v0.1
								c0,0.7-0.1,1.4-0.4,1.9s-0.7,1-1.2,1.3s-1.1,0.5-1.8,0.5c-1,0-1.8-0.3-2.4-1S124.2,33,124.2,31.7L124.2,31.7z M125.4,31.9
								c0,0.8,0.2,1.5,0.6,2s0.9,0.7,1.5,0.7c0.6,0,1.2-0.3,1.5-0.8s0.6-1.2,0.6-2.1c0-0.8-0.2-1.5-0.6-2s-0.9-0.8-1.5-0.8
								c-0.6,0-1.1,0.2-1.5,0.7S125.4,31,125.4,31.9z M137.1,34.8c-0.5,0.6-1.2,0.9-2.2,0.9c-0.8,0-1.4-0.2-1.8-0.7s-0.6-1.1-0.6-2
								v-4.8h1.3v4.8c0,1.1,0.5,1.7,1.4,1.7c1,0,1.6-0.4,1.9-1.1v-5.4h1.3v7.4h-1.2L137.1,34.8z M141.9,26.3v1.8h1.4v1h-1.4v4.6
								c0,0.3,0.1,0.5,0.2,0.7s0.3,0.2,0.6,0.2c0.1,0,0.3,0,0.6-0.1v1c-0.3,0.1-0.7,0.1-1,0.1c-0.6,0-1-0.2-1.3-0.5
								s-0.4-0.8-0.4-1.5v-4.6h-1.3v-1h1.3v-1.8H141.9z M155.8,32.3c-0.1,1.1-0.5,1.9-1.2,2.4s-1.5,0.9-2.6,0.9
								c-1.2,0-2.1-0.4-2.8-1.3s-1.1-2-1.1-3.4v-1c0-0.9,0.2-1.7,0.5-2.4s0.8-1.2,1.4-1.6s1.3-0.6,2.1-0.6c1.1,0,1.9,0.3,2.5,0.9
								s1,1.4,1.1,2.5h-1.3c-0.1-0.8-0.4-1.4-0.7-1.7s-0.9-0.5-1.6-0.5c-0.8,0-1.5,0.3-2,0.9s-0.7,1.5-0.7,2.6v1
								c0,1.1,0.2,1.9,0.7,2.6s1.1,1,1.9,1c0.7,0,1.3-0.2,1.7-0.5s0.6-0.9,0.8-1.7H155.8z M158.7,35.5h-1.3V25h1.3V35.5z
								 M160.4,31.7c0-0.7,0.1-1.4,0.4-2s0.7-1,1.2-1.3s1.1-0.5,1.7-0.5c1,0,1.8,0.3,2.4,1s0.9,1.6,0.9,2.8v0.1
								c0,0.7-0.1,1.4-0.4,1.9s-0.7,1-1.2,1.3s-1.1,0.5-1.8,0.5c-1,0-1.8-0.3-2.4-1S160.4,33,160.4,31.7L160.4,31.7z M161.7,31.9
								c0,0.8,0.2,1.5,0.6,2s0.9,0.7,1.5,0.7c0.6,0,1.2-0.3,1.5-0.8s0.6-1.2,0.6-2.1c0-0.8-0.2-1.5-0.6-2s-0.9-0.8-1.5-0.8
								c-0.6,0-1.1,0.2-1.5,0.7S161.7,31,161.7,31.9z M173.3,34.8c-0.5,0.6-1.2,0.9-2.2,0.9c-0.8,0-1.4-0.2-1.8-0.7s-0.6-1.1-0.6-2
								v-4.8h1.3v4.8c0,1.1,0.5,1.7,1.4,1.7c1,0,1.6-0.4,1.9-1.1v-5.4h1.3v7.4h-1.2L173.3,34.8z M176.2,31.7c0-1.1,0.3-2,0.8-2.7
								s1.2-1,2.1-1c0.9,0,1.6,0.3,2.1,0.9V25h1.3v10.5h-1.2l-0.1-0.8c-0.5,0.6-1.2,0.9-2.1,0.9c-0.9,0-1.6-0.4-2.1-1.1
								S176.2,33,176.2,31.7L176.2,31.7z M177.4,31.9c0,0.8,0.2,1.5,0.5,2s0.8,0.7,1.4,0.7c0.8,0,1.4-0.4,1.8-1.1v-3.4
								c-0.4-0.7-1-1-1.7-1c-0.6,0-1.1,0.2-1.4,0.7S177.4,30.9,177.4,31.9z M188,35.5v-10h2.8c0.9,0,1.6,0.2,2.3,0.6
								s1.2,0.9,1.5,1.6s0.5,1.5,0.6,2.4v0.6c0,0.9-0.2,1.8-0.5,2.5s-0.9,1.2-1.6,1.6s-1.5,0.6-2.3,0.6H188z M189.3,26.6v7.8h1.4
								c1,0,1.8-0.3,2.4-0.9s0.8-1.5,0.8-2.7v-0.6c0-1.1-0.3-2-0.8-2.6s-1.3-0.9-2.3-1H189.3z M201.6,35.5c-0.1-0.1-0.1-0.4-0.2-0.8
								c-0.6,0.6-1.3,0.9-2.1,0.9c-0.7,0-1.3-0.2-1.8-0.6s-0.7-0.9-0.7-1.6c0-0.8,0.3-1.4,0.9-1.8s1.4-0.6,2.5-0.6h1.2v-0.6
								c0-0.4-0.1-0.8-0.4-1.1s-0.7-0.4-1.2-0.4c-0.5,0-0.8,0.1-1.1,0.3s-0.5,0.5-0.5,0.8h-1.3c0-0.4,0.1-0.7,0.4-1.1
								s0.6-0.6,1.1-0.8s0.9-0.3,1.5-0.3c0.9,0,1.5,0.2,2,0.6s0.7,1,0.8,1.8v3.4c0,0.7,0.1,1.2,0.3,1.6v0.1H201.6z M199.5,34.5
								c0.4,0,0.8-0.1,1.1-0.3s0.6-0.5,0.8-0.8v-1.5h-1c-1.5,0-2.3,0.5-2.3,1.4c0,0.4,0.1,0.7,0.4,0.9S199.1,34.5,199.5,34.5z
								 M206.3,26.3v1.8h1.4v1h-1.4v4.6c0,0.3,0.1,0.5,0.2,0.7s0.3,0.2,0.6,0.2c0.1,0,0.3,0,0.6-0.1v1c-0.3,0.1-0.7,0.1-1,0.1
								c-0.6,0-1-0.2-1.3-0.5s-0.4-0.8-0.4-1.5v-4.6h-1.3v-1h1.3v-1.8H206.3z M213.8,35.5c-0.1-0.1-0.1-0.4-0.2-0.8
								c-0.6,0.6-1.3,0.9-2.1,0.9c-0.7,0-1.3-0.2-1.8-0.6c-0.5-0.4-0.7-0.9-0.7-1.6c0-0.8,0.3-1.4,0.9-1.8s1.4-0.6,2.5-0.6h1.2v-0.6
								c0-0.4-0.1-0.8-0.4-1.1S212.5,29,212,29c-0.5,0-0.8,0.1-1.1,0.3s-0.5,0.5-0.5,0.8h-1.3c0-0.4,0.1-0.7,0.4-1.1
								s0.6-0.6,1.1-0.8s0.9-0.3,1.5-0.3c0.9,0,1.5,0.2,2,0.6s0.7,1,0.8,1.8v3.4c0,0.7,0.1,1.2,0.3,1.6v0.1H213.8z M211.7,34.5
								c0.4,0,0.8-0.1,1.1-0.3s0.6-0.5,0.8-0.8v-1.5h-1c-1.5,0-2.3,0.5-2.3,1.4c0,0.4,0.1,0.7,0.4,0.9S211.2,34.5,211.7,34.5z
								 M223.1,31.9c0,1.1-0.3,2-0.8,2.7s-1.2,1-2.1,1c-0.9,0-1.7-0.3-2.2-1l-0.1,0.9h-1.2V25h1.3v3.9c0.5-0.6,1.2-1,2.1-1
								s1.6,0.3,2.1,1s0.8,1.6,0.8,2.8V31.9z M221.8,31.7c0-0.9-0.2-1.5-0.5-2s-0.8-0.7-1.4-0.7c-0.8,0-1.4,0.4-1.8,1.2v3.2
								c0.4,0.8,1,1.2,1.8,1.2c0.6,0,1.1-0.2,1.4-0.7S221.8,32.7,221.8,31.7z M229.2,35.5c-0.1-0.1-0.1-0.4-0.2-0.8
								c-0.6,0.6-1.3,0.9-2.1,0.9c-0.7,0-1.3-0.2-1.8-0.6s-0.7-0.9-0.7-1.6c0-0.8,0.3-1.4,0.9-1.8s1.4-0.6,2.5-0.6h1.2v-0.6
								c0-0.4-0.1-0.8-0.4-1.1S228,29,227.5,29c-0.5,0-0.8,0.1-1.1,0.3s-0.5,0.5-0.5,0.8h-1.3c0-0.4,0.1-0.7,0.4-1.1
								s0.6-0.6,1.1-0.8s0.9-0.3,1.5-0.3c0.9,0,1.5,0.2,2,0.6s0.7,1,0.8,1.8v3.4c0,0.7,0.1,1.2,0.3,1.6v0.1H229.2z M227.1,34.5
								c0.4,0,0.8-0.1,1.1-0.3s0.6-0.5,0.8-0.8v-1.5h-1c-1.5,0-2.3,0.5-2.3,1.4c0,0.4,0.1,0.7,0.4,0.9S226.7,34.5,227.1,34.5z
								 M236.6,33.5c0-0.3-0.1-0.6-0.4-0.8s-0.7-0.4-1.3-0.5s-1.1-0.3-1.5-0.5s-0.7-0.4-0.8-0.7s-0.3-0.6-0.3-0.9
								c0-0.6,0.3-1.1,0.8-1.5s1.2-0.6,2-0.6c0.8,0,1.5,0.2,2,0.6c0.5,0.4,0.8,1,0.8,1.7h-1.3c0-0.3-0.1-0.6-0.4-0.9
								S235.4,29,235,29c-0.5,0-0.8,0.1-1.1,0.3s-0.4,0.5-0.4,0.8c0,0.3,0.1,0.5,0.4,0.7s0.7,0.3,1.3,0.4s1.1,0.3,1.5,0.5
								s0.7,0.4,0.9,0.7s0.3,0.6,0.3,1c0,0.7-0.3,1.2-0.8,1.6c-0.5,0.4-1.2,0.6-2.1,0.6c-0.6,0-1.1-0.1-1.6-0.3s-0.8-0.5-1.1-0.9
								s-0.4-0.8-0.4-1.2h1.3c0,0.4,0.2,0.8,0.5,1s0.7,0.4,1.3,0.4c0.5,0,0.9-0.1,1.2-0.3S236.6,33.9,236.6,33.5z M242.6,35.6
								c-1,0-1.8-0.3-2.4-1s-0.9-1.5-0.9-2.6v-0.2c0-0.7,0.1-1.4,0.4-2s0.7-1,1.2-1.4s1-0.5,1.6-0.5c1,0,1.7,0.3,2.2,1
								s0.8,1.5,0.8,2.7v0.5h-5c0,0.7,0.2,1.3,0.6,1.8s0.9,0.7,1.6,0.7c0.4,0,0.8-0.1,1.1-0.3s0.6-0.4,0.8-0.7l0.8,0.6
								C244.7,35.2,243.8,35.6,242.6,35.6z M242.4,29c-0.5,0-0.9,0.2-1.3,0.6s-0.6,0.9-0.6,1.6h3.7V31c0-0.6-0.2-1.1-0.5-1.5
								S242.9,29,242.4,29z M251.2,33.5c0-0.3-0.1-0.6-0.4-0.8s-0.7-0.4-1.3-0.5s-1.1-0.3-1.5-0.5s-0.7-0.4-0.8-0.7
								s-0.3-0.6-0.3-0.9c0-0.6,0.3-1.1,0.8-1.5s1.2-0.6,2-0.6c0.8,0,1.5,0.2,2,0.6c0.5,0.4,0.8,1,0.8,1.7h-1.3
								c0-0.3-0.1-0.6-0.4-0.9S250,29,249.6,29c-0.5,0-0.8,0.1-1.1,0.3s-0.4,0.5-0.4,0.8c0,0.3,0.1,0.5,0.4,0.7s0.7,0.3,1.3,0.4
								s1.1,0.3,1.5,0.5s0.7,0.4,0.9,0.7s0.3,0.6,0.3,1c0,0.7-0.3,1.2-0.8,1.6c-0.5,0.4-1.2,0.6-2.1,0.6c-0.6,0-1.1-0.1-1.6-0.3
								s-0.8-0.5-1.1-0.9s-0.4-0.8-0.4-1.2h1.3c0,0.4,0.2,0.8,0.5,1s0.7,0.4,1.3,0.4c0.5,0,0.9-0.1,1.2-0.3S251.2,33.9,251.2,33.5z"
								/>
						</g>
						<g id="RL-2-lines-padding" transform="translate(13.000000, 45.000000)">
							<g id="specs-_x2F_-spacing-_x2F_-stack-_x2F_-H-08px">
								<rect id="Rectangle-3_1_" x="45.5" y="27.5" class="st9" width="345" height="8"/>
								<text transform="matrix(1 0 0 1 204.3816 34.5)" class="st10 st2 st3">8</text>
							</g>
						</g>
					</g>
				</g>
				<g id="external-link_1_" transform="translate(226.000000, 57.000000)">
					<g id="Layer_1_2_">
						<g id="Group_1_">
							<path id="Shape_2_" class="st4" d="M54.8,24.5h-3.1v1.2h1.6l-4.8,4.8l0.9,0.9l4.8-4.8v1.8h1.2v-3.2
								C55.4,24.8,55.2,24.5,54.8,24.5z"/>
							<path id="Shape_3_" class="st4" d="M53.5,33.2C53.5,33.2,53.4,33.2,53.5,33.2l-6.6,0.1c-0.1,0-0.1-0.1-0.1-0.1v-6.6
								c0-0.1,0.1-0.1,0.1-0.1h3.6v-1.2h-3.6c-0.8,0-1.3,0.6-1.3,1.3v6.6c0,0.7,0.6,1.3,1.3,1.3h6.6c0.8,0,1.3-0.6,1.3-1.3v-3.7
								h-1.2V33.2L53.5,33.2z"/>
						</g>
					</g>
				</g>
				<g id="specs-_x2F_-spacing-_x2F_-inline-_x2F_-V-04px" transform="translate(220.000000, 56.000000)">
					<rect id="Rectangle-5-Copy-17" x="46.7" y="24.5" class="st11" width="4.8" height="21"/>
					<text transform="matrix(1 0 0 1 45.5 39.58)" class="st10 st2 st12">4</text>
				</g>
			</g>
		</g>
	</g>
</g>
</svg>
