<?xml version="1.0" encoding="UTF-8" standalone="no"?>
<svg width="613px" height="269px" viewBox="0 0 613 269" version="1.1" xmlns="http://www.w3.org/2000/svg" xmlns:xlink="http://www.w3.org/1999/xlink">
    <!-- Generator: Sketch 47.1 (45422) - http://www.bohemiancoding.com/sketch -->
    <title>Artboard 5</title>
    <desc>Created with Sketch.</desc>
    <style type="text/css">@import url('https://fonts.googleapis.com/css?family=Roboto:300,400,500');</style>
    <defs>
        <rect id="path-1" x="0" y="0" width="123" height="167"></rect>
        <filter x="-4.9%" y="-1.8%" width="109.8%" height="107.2%" filterUnits="objectBoundingBox" id="filter-2">
            <feOffset dx="0" dy="3" in="SourceAlpha" result="shadowOffsetOuter1"></feOffset>
            <feGaussianBlur stdDeviation="1.5" in="shadowOffsetOuter1" result="shadowBlurOuter1"></feGaussianBlur>
            <feComposite in="shadowBlurOuter1" in2="SourceAlpha" operator="out" result="shadowBlurOuter1"></feComposite>
            <feColorMatrix values="0 0 0 0 0   0 0 0 0 0   0 0 0 0 0  0 0 0 0.16 0" type="matrix" in="shadowBlurOuter1"></feColorMatrix>
        </filter>
        <filter x="-4.9%" y="-1.8%" width="109.8%" height="107.2%" filterUnits="objectBoundingBox" id="filter-3">
            <feOffset dx="0" dy="3" in="SourceAlpha" result="shadowOffsetOuter1"></feOffset>
            <feGaussianBlur stdDeviation="1.5" in="shadowOffsetOuter1" result="shadowBlurOuter1"></feGaussianBlur>
            <feColorMatrix values="0 0 0 0 0   0 0 0 0 0   0 0 0 0 0  0 0 0 0.16 0" type="matrix" in="shadowBlurOuter1" result="shadowMatrixOuter1"></feColorMatrix>
            <feMerge>
                <feMergeNode in="shadowMatrixOuter1"></feMergeNode>
                <feMergeNode in="SourceGraphic"></feMergeNode>
            </feMerge>
        </filter>
        <rect id="path-4" x="0" y="0" width="123" height="167"></rect>
    </defs>
    <g id="Page-1" stroke="none" stroke-width="1" fill="none" fill-rule="evenodd">
        <g id="Artboard-5">
            <g id="Actions-Button-Advanced-Annotated" transform="translate(344.000000, 30.000000)">
                <g id="Flyout" transform="translate(1.000000, 33.000000)">
                    <g id="Rectangle">
                        <use fill="black" fill-opacity="1" filter="url(#filter-2)" xlink:href="#path-1"></use>
                        <use fill="#F9FAFB" fill-rule="evenodd" xlink:href="#path-1"></use>
                        <rect stroke="#E0E0E0" stroke-width="1" x="0.5" y="0.5" width="122" height="166"></rect>
                    </g>
                    <text id="TITLE" font-family="Roboto-Medium, Roboto" font-size="14" font-weight="400" fill="#9D9D9D">
                        <tspan x="13" y="21">TITLE</tspan>
                    </text>
                    <text id="Action-1-Action-2-Ac" font-family="Roboto-Regular, Roboto" font-size="14" font-weight="normal" fill="#0D74D1">
                        <tspan x="13" y="38">Action 1</tspan>
                        <tspan x="13" y="54">Action 2</tspan>
                        <tspan x="13" y="70">Action 3</tspan>
                    </text>
                    <text id="TITLE" font-family="Roboto-Medium, Roboto" font-size="14" font-weight="400" fill="#9D9D9D">
                        <tspan x="13" y="99">TITLE</tspan>
                    </text>
                    <text id="Action-1-Action-2-Ac" font-family="Roboto-Regular, Roboto" font-size="14" font-weight="normal" fill="#0D74D1">
                        <tspan x="13" y="116">Action 1</tspan>
                        <tspan x="13" y="132">Action 2</tspan>
                        <tspan x="13" y="148">Action 3</tspan>
                    </text>
                </g>
                <g id="Button" transform="translate(1.000000, 0.000000)" fill="#0C7481">
                    <path d="M120.800095,0 L2.19990521,0 C0.985557533,0 0,0.954634846 0,2.13326222 L0,29.8667378 C0,31.0453652 0.985557533,32 2.19990521,32 L120.800095,32 C122.015542,32 123,31.0453652 123,29.8667378 L123,2.13326222 C123,0.954634846 122.015542,0 120.800095,0 M120.898227,1 C121.505304,1 122,1.47998286 122,2.07139031 L122,29.9286097 C122,30.5200171 121.505304,31 120.898227,31 L2.10177285,31 C1.49469601,31 1,30.5200171 1,29.9286097 L1,2.07139031 C1,1.47998286 1.49469601,1 2.10177285,1 L120.898227,1" id="Fill-27"></path>
                    <g id="button-text-/-icons" transform="translate(13.000000, 7.000000)" font-size="14">
                        <text id="" font-family="FontAwesome" font-weight="normal">
                            <tspan x="0" y="15"></tspan>
                        </text>
                        <text id="ACTIONS" font-family="Roboto-Medium, Roboto" font-weight="400">
                            <tspan x="20" y="13">ACTIONS</tspan>
                        </text>
                    </g>
                </g>
                <g id="specs-/-padding" transform="translate(0.000000, 1.000000)">
                    <g id="button---spacing" transform="translate(14.000000, 0.000000)">
                        <g id="specs-/-spacing-/-inline-/-V-08px" transform="translate(12.000000, 0.000000)">
                            <rect id="Rectangle-5-Copy-19" fill="#90D5B2" fill-rule="evenodd" x="0" y="0" width="8" height="30"></rect>
                            <text id="8-copy-12" font-family="Roboto-Regular, Roboto" font-size="12" font-weight="normal" fill="#333333">
                                <tspan x="1" y="17.4">8</tspan>
                            </text>
                        </g>
                        <g id="specs-/-spacing-/-inline-/-V-08px" transform="translate(0.000000, 113.000000)">
                            <rect id="Rectangle-5-Copy-19" fill="#90D5B2" fill-rule="evenodd" x="0" y="0" width="107" height="10"></rect>
                            <text id="8-copy-12" font-family="Roboto-Regular, Roboto" font-size="12" font-weight="normal" fill="#333333">
                                <tspan x="13.375" y="7.8">            8</tspan>
                            </text>
                        </g>
                        <g id="specs-/-spacing-/-inline-/-V-08px" transform="translate(78.000000, 0.000000)">
                            <rect id="Rectangle-5-Copy-19" fill="#90D5B2" fill-rule="evenodd" x="0" y="0" width="8" height="30"></rect>
                            <text id="8-copy-12" font-family="Roboto-Regular, Roboto" font-size="12" font-weight="normal" fill="#333333">
                                <tspan x="1" y="17.4">8</tspan>
                            </text>
                        </g>
                    </g>
                    <g id="button---left-padding">
                        <rect id="Rectangle-2-Copy" fill="#F7CF91" x="2" y="0" width="12" height="30"></rect>
                        <text id="12" font-family="Roboto-Medium, Roboto" font-size="12" font-weight="400" line-spacing="11" fill="#333333">
                            <tspan x="0" y="21">12</tspan>
                        </text>
                    </g>
                    <g id="button---right-padding" transform="translate(109.000000, 0.000000)">
                        <rect id="Rectangle-2-Copy-2" fill="#F7CF91" x="2" y="0" width="12" height="30"></rect>
                        <text id="12-copy" font-family="Roboto-Medium, Roboto" font-size="12" font-weight="400" line-spacing="11" fill="#333333">
                            <tspan x="0" y="20">12</tspan>
                        </text>
                    </g>
                    <g id="flyout---left-padding" transform="translate(0.000000, 33.000000)">
                        <rect id="Rectangle-2-Copy-3" fill="#F7CF91" x="2" y="0" width="12" height="165"></rect>
                        <text id="12-copy-2" font-family="Roboto-Medium, Roboto" font-size="12" font-weight="400" line-spacing="11" fill="#333333">
                            <tspan x="0" y="40">12</tspan>
                        </text>
                    </g>
                    <g id="flyout---top-padding" transform="translate(10.000000, 33.000000)">
                        <rect id="Rectangle-2-Copy-4" fill="#F7CF91" x="0" y="0" width="113" height="12"></rect>
                        <text id="12-copy-3" font-family="Roboto-Medium, Roboto" font-size="12" font-weight="400" line-spacing="11" fill="#333333">
                            <tspan x="46" y="11">12</tspan>
                        </text>
                    </g>
                </g>
                <polygon id="Path-2-Copy-8" fill="#1F7482" fill-rule="nonzero" points="100.070914 13.0753054 99 14.1611545 104.569337 21 110.2 14.0858491 109.129086 13 104.569337 18.5991265"></polygon>
            </g>
            <g id="Actions-Button-Advanced" transform="translate(142.000000, 30.000000)">
                <g id="Flyout" filter="url(#filter-3)" transform="translate(1.000000, 33.000000)">
                    <g id="Rectangle">
                        <use fill="#F9FAFB" fill-rule="evenodd" xlink:href="#path-4"></use>
                        <rect stroke="#E0E0E0" stroke-width="1" x="0.5" y="0.5" width="122" height="166"></rect>
                    </g>
                    <text id="TITLE" font-family="Roboto-Medium, Roboto" font-size="14" font-weight="400" fill="#9D9D9D">
                        <tspan x="13" y="21">TITLE</tspan>
                    </text>
                    <text id="Action-1-Action-2-Ac" font-family="Roboto-Regular, Roboto" font-size="14" font-weight="normal" fill="#0D74D1">
                        <tspan x="13" y="38">Action 1</tspan>
                        <tspan x="13" y="54">Action 2</tspan>
                        <tspan x="13" y="70">Action 3</tspan>
                    </text>
                    <text id="TITLE" font-family="Roboto-Medium, Roboto" font-size="14" font-weight="400" fill="#9D9D9D">
                        <tspan x="13" y="99">TITLE</tspan>
                    </text>
                    <text id="Action-1-Action-2-Ac" font-family="Roboto-Regular, Roboto" font-size="14" font-weight="normal" fill="#0D74D1">
                        <tspan x="13" y="116">Action 1</tspan>
                        <tspan x="13" y="132">Action 2</tspan>
                        <tspan x="13" y="148">Action 3</tspan>
                    </text>
                </g>
                <g id="Button" transform="translate(1.000000, 0.000000)" fill="#0C7481">
                    <path d="M120.800095,0 L2.19990521,0 C0.985557533,0 0,0.954634846 0,2.13326222 L0,29.8667378 C0,31.0453652 0.985557533,32 2.19990521,32 L120.800095,32 C122.015542,32 123,31.0453652 123,29.8667378 L123,2.13326222 C123,0.954634846 122.015542,0 120.800095,0 M120.898227,1 C121.505304,1 122,1.47998286 122,2.07139031 L122,29.9286097 C122,30.5200171 121.505304,31 120.898227,31 L2.10177285,31 C1.49469601,31 1,30.5200171 1,29.9286097 L1,2.07139031 C1,1.47998286 1.49469601,1 2.10177285,1 L120.898227,1" id="Fill-27"></path>
                    <g id="button-text-/-icons" transform="translate(13.000000, 7.000000)" font-size="14">
                        <text id="" font-family="FontAwesome" font-weight="normal">
                            <tspan x="0" y="15"></tspan>
                        </text>
                        <text id="ACTIONS" font-family="Roboto-Medium, Roboto" font-weight="400">
                            <tspan x="20" y="13">ACTIONS</tspan>
                        </text>
                    </g>
                </g>
            </g>
            <polygon id="Path-2-Copy-8" fill="#1F7482" fill-rule="nonzero" points="242.05179 44.0753054 241 45.1611545 246.469884 52 252 45.0858491 250.94821 44 246.469884 49.5991265"></polygon>
        </g>
    </g>
</svg>