<?xml version="1.0" encoding="UTF-8" standalone="no"?>
<svg width="402px" height="65px" viewBox="0 0 402 65" version="1.1" xmlns="http://www.w3.org/2000/svg" xmlns:xlink="http://www.w3.org/1999/xlink">
    <!-- Generator: Sketch 47.1 (45422) - http://www.bohemiancoding.com/sketch -->
    <title>text-inputs-text-input-password-redaction</title>
    <desc>Created with Sketch.</desc>
    <defs></defs>
    <g stroke="none" stroke-width="1" fill="none" fill-rule="evenodd">
        <g transform="translate(-1.000000, -4.000000)">
            <g>
                <g transform="translate(1.000000, 21.000000)">
                    <g fill="#FFFFFF">
                        <rect x="0" y="0" width="178" height="32" rx="2"></rect>
                    </g>
                    <rect stroke="#BDBDBD" x="0.5" y="0.5" width="177" height="31" rx="2"></rect>
                </g>
                <path d="M7.13671875,10.3857422 L2.57714844,10.3857422 L2.57714844,13.9472656 L7.83398438,13.9472656 L7.83398438,15 L1.23046875,15 L1.23046875,5.046875 L7.75878906,5.046875 L7.75878906,6.10644531 L2.57714844,6.10644531 L2.57714844,9.32617188 L7.13671875,9.32617188 L7.13671875,10.3857422 Z M10.3632812,7.60351562 L10.4589844,8.70410156 C10.7050794,8.31217252 11.0138328,8.00797634 11.3852539,7.79150391 C11.756675,7.57503147 12.1793596,7.46679688 12.6533203,7.46679688 C13.4508503,7.46679688 14.0683572,7.70035574 14.5058594,8.16748047 C14.9433616,8.6346052 15.1621094,9.35578939 15.1621094,10.3310547 L15.1621094,15 L13.8154297,15 L13.8154297,10.3583984 C13.8154297,9.70670247 13.6866875,9.24414199 13.4291992,8.97070312 C13.171711,8.69726426 12.7786485,8.56054688 12.25,8.56054688 C11.8626283,8.56054688 11.5196955,8.65397042 11.2211914,8.84082031 C10.9226873,9.02767021 10.6845712,9.28287599 10.5068359,9.60644531 L10.5068359,15 L9.16015625,15 L9.16015625,7.60351562 L10.3632812,7.60351562 Z M18.8945312,5.81933594 L18.8945312,7.60351562 L20.2958984,7.60351562 L20.2958984,8.6015625 L18.8945312,8.6015625 L18.8945312,13.0927734 C18.8945312,13.4391293 18.9663079,13.682942 19.1098633,13.8242188 C19.2534187,13.9654955 19.4436837,14.0361328 19.6806641,14.0361328 C19.7581384,14.0361328 19.8435868,14.0270183 19.9370117,14.0087891 C20.0304367,13.9905598 20.1136064,13.9677736 20.1865234,13.9404297 L20.3642578,14.8632812 C20.2639969,14.9453129 20.1170257,15.0125323 19.9233398,15.0649414 C19.729654,15.1173505 19.5348317,15.1435547 19.3388672,15.1435547 C18.7919895,15.1435547 18.3567725,14.9783545 18.0332031,14.6479492 C17.7096338,14.3175439 17.5478516,13.7991572 17.5478516,13.0927734 L17.5478516,8.6015625 L16.3720703,8.6015625 L16.3720703,7.60351562 L17.5478516,7.60351562 L17.5478516,5.81933594 L18.8945312,5.81933594 Z M25.0263672,15.1435547 C23.9964141,15.1435547 23.1772491,14.8006219 22.5688477,14.1147461 C21.9604462,13.4288703 21.65625,12.539068 21.65625,11.4453125 L21.65625,11.1445312 C21.65625,10.0917916 21.9695607,9.21566105 22.5961914,8.51611328 C23.2228221,7.81656551 23.9645139,7.46679688 24.8212891,7.46679688 C25.8193409,7.46679688 26.5735652,7.76757512 27.0839844,8.36914062 C27.5944036,8.97070613 27.8496094,9.77278145 27.8496094,10.7753906 L27.8496094,11.6162109 L23.0507812,11.6162109 L23.0302734,11.6503906 C23.0439454,12.3613317 23.2239566,12.9457985 23.5703125,13.4038086 C23.9166684,13.8618187 24.4020151,14.0908203 25.0263672,14.0908203 C25.4820986,14.0908203 25.881997,14.0258796 26.2260742,13.8959961 C26.5701515,13.7661126 26.8675118,13.5872407 27.1181641,13.359375 L27.6445312,14.234375 C27.380207,14.4941419 27.0315777,14.7106111 26.5986328,14.8837891 C26.1656879,15.056967 25.6416046,15.1435547 25.0263672,15.1435547 Z M24.8212891,8.52636719 C24.3701149,8.52636719 23.9850276,8.71663221 23.6660156,9.09716797 C23.3470036,9.47770373 23.151042,9.95507525 23.078125,10.5292969 L23.0917969,10.5634766 L26.5029297,10.5634766 L26.5029297,10.3857422 C26.5029297,9.85709371 26.3616551,9.41504084 26.0791016,9.05957031 C25.7965481,8.70409979 25.3772814,8.52636719 24.8212891,8.52636719 Z M32.8603516,8.79296875 L32.1699219,8.75195312 C31.8144513,8.75195312 31.5148124,8.83626218 31.2709961,9.00488281 C31.0271798,9.17350345 30.8391934,9.41048024 30.7070312,9.71582031 L30.7070312,15 L29.3603516,15 L29.3603516,7.60351562 L30.5634766,7.60351562 L30.6933594,8.68359375 C30.9029958,8.30077934 31.1616196,8.00227972 31.4692383,7.78808594 C31.776857,7.57389216 32.1311829,7.46679688 32.5322266,7.46679688 C32.6324875,7.46679688 32.7281896,7.47477206 32.8193359,7.49072266 C32.9104822,7.50667326 32.9856768,7.52376293 33.0449219,7.54199219 L32.8603516,8.79296875 Z M39.9013672,12.2587891 L40.140625,13.1884766 L40.1816406,13.1884766 L42,7.60351562 L43.4970703,7.60351562 L40.3867188,16.1347656 C40.1998689,16.6315129 39.9321306,17.0644513 39.5834961,17.4335938 C39.2348615,17.8027362 38.7643259,17.9873047 38.171875,17.9873047 C38.0624995,17.9873047 37.9235034,17.9747723 37.7548828,17.949707 C37.5862622,17.9246418 37.4563807,17.9007163 37.3652344,17.8779297 L37.5019531,16.8183594 C37.4746092,16.8138021 37.5555004,16.8183593 37.7446289,16.8320312 C37.9337575,16.8457032 38.0533852,16.8525391 38.1035156,16.8525391 C38.3906264,16.8525391 38.6253246,16.7249362 38.8076172,16.4697266 C38.9899098,16.214517 39.1425775,15.9319677 39.265625,15.6220703 L39.5869141,14.8496094 L36.8388672,7.60351562 L38.3427734,7.60351562 L39.9013672,12.2587891 Z M44.2626953,11.2333984 C44.2626953,10.139643 44.5589163,9.23844755 45.1513672,8.52978516 C45.7438181,7.82112276 46.548172,7.46679688 47.5644531,7.46679688 C48.5898489,7.46679688 49.3998994,7.81998345 49.9946289,8.52636719 C50.5893584,9.23275093 50.8867187,10.1350857 50.8867187,11.2333984 L50.8867187,11.3837891 C50.8867187,12.4866592 50.5904978,13.3889939 49.9980469,14.0908203 C49.405596,14.7926467 48.5989634,15.1435547 47.578125,15.1435547 C46.5572866,15.1435547 45.7495147,14.7915074 45.1547852,14.0874023 C44.5600556,13.3832973 44.2626953,12.4821018 44.2626953,11.3837891 L44.2626953,11.2333984 Z M45.609375,11.3837891 C45.609375,12.1676471 45.7745752,12.8147761 46.1049805,13.3251953 C46.4353858,13.8356145 46.926429,14.0908203 47.578125,14.0908203 C48.2207063,14.0908203 48.7083317,13.8356145 49.0410156,13.3251953 C49.3736996,12.8147761 49.5400391,12.1676471 49.5400391,11.3837891 L49.5400391,11.2333984 C49.5400391,10.458655 49.3725603,9.81380466 49.0375977,9.29882812 C48.702635,8.78385159 48.2115918,8.52636719 47.5644531,8.52636719 C46.9218718,8.52636719 46.4353858,8.78385159 46.1049805,9.29882812 C45.7745752,9.81380466 45.609375,10.458655 45.609375,11.2333984 L45.609375,11.3837891 Z M57.2304687,13.90625 C56.9980457,14.3027364 56.6995461,14.6080718 56.3349609,14.8222656 C55.9703758,15.0364594 55.5488305,15.1435547 55.0703125,15.1435547 C54.2636678,15.1435547 53.6347679,14.8860703 53.1835937,14.3710938 C52.7324196,13.8561172 52.5068359,13.0540419 52.5068359,11.9648438 L52.5068359,7.60351562 L53.8535156,7.60351562 L53.8535156,11.9785156 C53.8535156,12.766931 53.9697254,13.3092433 54.2021484,13.6054688 C54.4345715,13.9016942 54.7968725,14.0498047 55.2890625,14.0498047 C55.7675805,14.0498047 56.1629216,13.9529632 56.4750977,13.7592773 C56.7872737,13.5655915 57.0231112,13.2910174 57.1826172,12.9355469 L57.1826172,7.60351562 L58.5292969,7.60351562 L58.5292969,15 L57.3193359,15 L57.2304687,13.90625 Z M63.9912109,8.79296875 L63.3007812,8.75195312 C62.9453107,8.75195312 62.6456718,8.83626218 62.4018555,9.00488281 C62.1580391,9.17350345 61.9700527,9.41048024 61.8378906,9.71582031 L61.8378906,15 L60.4912109,15 L60.4912109,7.60351562 L61.6943359,7.60351562 L61.8242187,8.68359375 C62.0338552,8.30077934 62.2924789,8.00227972 62.6000977,7.78808594 C62.9077164,7.57389216 63.2620423,7.46679688 63.6630859,7.46679688 C63.7633469,7.46679688 63.859049,7.47477206 63.9501953,7.49072266 C64.0413416,7.50667326 64.1165362,7.52376293 64.1757812,7.54199219 L63.9912109,8.79296875 Z M75.0722656,11.5820312 C75.0722656,12.6484428 74.8170598,13.508623 74.3066406,14.1625977 C73.7962214,14.8165723 73.0921269,15.1435547 72.1943359,15.1435547 C71.7386045,15.1435547 71.3387061,15.0672208 70.9946289,14.9145508 C70.6505517,14.7618807 70.3577486,14.5328791 70.1162109,14.2275391 L70.1162109,17.84375 L68.7695312,17.84375 L68.7695312,7.60351562 L69.8017578,7.60351562 L70.0136719,8.56054688 C70.2552095,8.20507635 70.5559878,7.93392021 70.9160156,7.74707031 C71.2760435,7.56022042 71.6953101,7.46679688 72.1738281,7.46679688 C73.0898483,7.46679688 73.801918,7.83023725 74.3100586,8.55712891 C74.8181992,9.28402056 75.0722656,10.2444602 75.0722656,11.4384766 L75.0722656,11.5820312 Z M73.7255859,11.4384766 C73.7255859,10.5999307 73.5603858,9.91064723 73.2299805,9.37060547 C72.8995752,8.83056371 72.4130892,8.56054688 71.7705078,8.56054688 C71.3831361,8.56054688 71.0527357,8.64827386 70.7792969,8.82373047 C70.505858,8.99918708 70.2848316,9.23958181 70.1162109,9.54492188 L70.1162109,13.1201172 C70.2848316,13.4254573 70.505858,13.6635734 70.7792969,13.8344727 C71.0527357,14.0053719 71.3876933,14.0908203 71.7841797,14.0908203 C72.4222037,14.0908203 72.9052718,13.8572615 73.2333984,13.3901367 C73.5615251,12.923012 73.7255859,12.3203162 73.7255859,11.5820312 L73.7255859,11.4384766 Z M81.2724609,15 C81.2268878,14.7766916 81.1915691,14.5795907 81.1665039,14.4086914 C81.1414387,14.2377921 81.1266276,14.0657561 81.1220703,13.8925781 C80.871418,14.2480487 80.5444356,14.545409 80.1411133,14.784668 C79.737791,15.023927 79.3037133,15.1435547 78.8388672,15.1435547 C78.068681,15.1435547 77.4819356,14.9464538 77.0786133,14.5522461 C76.675291,14.1580384 76.4736328,13.6145868 76.4736328,12.921875 C76.4736328,12.2154913 76.7596,11.6629252 77.331543,11.2641602 C77.9034859,10.8653951 78.6793571,10.6660156 79.6591797,10.6660156 L81.1220703,10.6660156 L81.1220703,9.93457031 C81.1220703,9.50162544 80.9899102,9.15869267 80.7255859,8.90576172 C80.4612617,8.65283077 80.0875675,8.52636719 79.6044922,8.52636719 C79.1715473,8.52636719 78.8195001,8.63688041 78.5483398,8.85791016 C78.2771796,9.07893991 78.1416016,9.34439949 78.1416016,9.65429688 L76.8564453,9.65429688 L76.8427734,9.61328125 C76.8154296,9.07551814 77.069496,8.58333557 77.6049805,8.13671875 C78.1404649,7.69010193 78.832027,7.46679688 79.6796875,7.46679688 C80.5182334,7.46679688 81.1927058,7.67984813 81.703125,8.10595703 C82.2135442,8.53206593 82.46875,9.14615484 82.46875,9.94824219 L82.46875,13.5097656 C82.46875,13.7740899 82.4824217,14.0292956 82.5097656,14.2753906 C82.5371095,14.5214856 82.5872392,14.7630196 82.6601562,15 L81.2724609,15 Z M79.0371094,14.015625 C79.524742,14.015625 79.9645163,13.8903007 80.3564453,13.6396484 C80.7483744,13.3889961 81.0035801,13.1018896 81.1220703,12.7783203 L81.1220703,11.5751953 L79.6113281,11.5751953 C79.0690077,11.5751953 78.63493,11.7119127 78.309082,11.9853516 C77.983234,12.2587904 77.8203125,12.5800763 77.8203125,12.9492188 C77.8203125,13.2773454 77.9228505,13.5371084 78.1279297,13.7285156 C78.3330088,13.9199228 78.6360657,14.015625 79.0371094,14.015625 Z M88.7236328,13.0380859 C88.7236328,12.7418605 88.610841,12.4980478 88.3852539,12.3066406 C88.1596668,12.1152334 87.732425,11.9488939 87.1035156,11.8076172 C86.2057247,11.6116527 85.5301129,11.3461931 85.0766602,11.0112305 C84.6232074,10.6762679 84.3964844,10.2194039 84.3964844,9.640625 C84.3964844,9.03905949 84.6516902,8.52636931 85.1621094,8.10253906 C85.6725286,7.67870882 86.3378865,7.46679688 87.1582031,7.46679688 C88.0195356,7.46679688 88.7042618,7.68782331 89.2124023,8.12988281 C89.7205429,8.57194231 89.9632163,9.10969735 89.9404297,9.74316406 L89.9267578,9.78417969 L88.6416016,9.78417969 C88.6416016,9.46061036 88.5060235,9.17008592 88.2348633,8.91259766 C87.9637031,8.65510939 87.6048199,8.52636719 87.1582031,8.52636719 C86.6796851,8.52636719 86.3242199,8.63118385 86.0917969,8.84082031 C85.8593738,9.05045678 85.7431641,9.30338394 85.7431641,9.59960938 C85.7431641,9.8912775 85.8457021,10.1214184 86.0507812,10.2900391 C86.2558604,10.4586597 86.6728484,10.6090488 87.3017578,10.7412109 C88.2360073,10.9417328 88.9309873,11.2140282 89.3867187,11.5581055 C89.8424502,11.9021827 90.0703125,12.3636039 90.0703125,12.9423828 C90.0703125,13.5986361 89.8048529,14.1295553 89.2739258,14.5351562 C88.7429986,14.9407572 88.0491579,15.1435547 87.1923828,15.1435547 C86.2490187,15.1435547 85.5061876,14.9042993 84.9638672,14.4257812 C84.4215468,13.9472632 84.1640624,13.3890006 84.1914062,12.7509766 L84.2050781,12.7099609 L85.4902344,12.7099609 C85.5130209,13.188479 85.6907535,13.5382476 86.0234375,13.7592773 C86.3561215,13.9803071 86.745766,14.0908203 87.1923828,14.0908203 C87.6709008,14.0908203 88.0457343,13.9939788 88.3168945,13.800293 C88.5880547,13.6066071 88.7236328,13.3525406 88.7236328,13.0380859 Z M96.0449219,13.0380859 C96.0449219,12.7418605 95.93213,12.4980478 95.706543,12.3066406 C95.4809559,12.1152334 95.0537141,11.9488939 94.4248047,11.8076172 C93.5270137,11.6116527 92.851402,11.3461931 92.3979492,11.0112305 C91.9444964,10.6762679 91.7177734,10.2194039 91.7177734,9.640625 C91.7177734,9.03905949 91.9729792,8.52636931 92.4833984,8.10253906 C92.9938177,7.67870882 93.6591756,7.46679688 94.4794922,7.46679688 C95.3408246,7.46679688 96.0255508,7.68782331 96.5336914,8.12988281 C97.041832,8.57194231 97.2845053,9.10969735 97.2617187,9.74316406 L97.2480469,9.78417969 L95.9628906,9.78417969 C95.9628906,9.46061036 95.8273126,9.17008592 95.5561523,8.91259766 C95.2849921,8.65510939 94.926109,8.52636719 94.4794922,8.52636719 C94.0009742,8.52636719 93.645509,8.63118385 93.4130859,8.84082031 C93.1806629,9.05045678 93.0644531,9.30338394 93.0644531,9.59960938 C93.0644531,9.8912775 93.1669912,10.1214184 93.3720703,10.2900391 C93.5771495,10.4586597 93.9941375,10.6090488 94.6230469,10.7412109 C95.5572963,10.9417328 96.2522764,11.2140282 96.7080078,11.5581055 C97.1637393,11.9021827 97.3916016,12.3636039 97.3916016,12.9423828 C97.3916016,13.5986361 97.126142,14.1295553 96.5952148,14.5351562 C96.0642877,14.9407572 95.370447,15.1435547 94.5136719,15.1435547 C93.5703078,15.1435547 92.8274767,14.9042993 92.2851562,14.4257812 C91.7428358,13.9472632 91.4853514,13.3890006 91.5126953,12.7509766 L91.5263672,12.7099609 L92.8115234,12.7099609 C92.83431,13.188479 93.0120426,13.5382476 93.3447266,13.7592773 C93.6774105,13.9803071 94.0670551,14.0908203 94.5136719,14.0908203 C94.9921899,14.0908203 95.3670234,13.9939788 95.6381836,13.800293 C95.9093438,13.6066071 96.0449219,13.3525406 96.0449219,13.0380859 Z M100.959961,12.3066406 L101.117187,13.2021484 L101.158203,13.2021484 L101.349609,12.3066406 L102.826172,7.60351562 L103.90625,7.60351562 L105.389648,12.3066406 L105.601562,13.3046875 L105.642578,13.3046875 L105.84082,12.3066406 L107.00293,7.60351562 L108.342773,7.60351562 L106.196289,15 L105.109375,15 L103.680664,10.4951172 L103.373047,9.23730469 L103.332031,9.24414062 L103.038086,10.4951172 L101.629883,15 L100.542969,15 L98.3964844,7.60351562 L99.7363281,7.60351562 L100.959961,12.3066406 Z M109.347656,11.2333984 C109.347656,10.139643 109.643877,9.23844755 110.236328,8.52978516 C110.828779,7.82112276 111.633133,7.46679688 112.649414,7.46679688 C113.67481,7.46679688 114.48486,7.81998345 115.07959,8.52636719 C115.674319,9.23275093 115.97168,10.1350857 115.97168,11.2333984 L115.97168,11.3837891 C115.97168,12.4866592 115.675459,13.3889939 115.083008,14.0908203 C114.490557,14.7926467 113.683924,15.1435547 112.663086,15.1435547 C111.642247,15.1435547 110.834476,14.7915074 110.239746,14.0874023 C109.645017,13.3832973 109.347656,12.4821018 109.347656,11.3837891 L109.347656,11.2333984 Z M110.694336,11.3837891 C110.694336,12.1676471 110.859536,12.8147761 111.189941,13.3251953 C111.520347,13.8356145 112.01139,14.0908203 112.663086,14.0908203 C113.305667,14.0908203 113.793293,13.8356145 114.125977,13.3251953 C114.458661,12.8147761 114.625,12.1676471 114.625,11.3837891 L114.625,11.2333984 C114.625,10.458655 114.457521,9.81380466 114.122559,9.29882812 C113.787596,8.78385159 113.296553,8.52636719 112.649414,8.52636719 C112.006833,8.52636719 111.520347,8.78385159 111.189941,9.29882812 C110.859536,9.81380466 110.694336,10.458655 110.694336,11.2333984 L110.694336,11.3837891 Z M121.119141,8.79296875 L120.428711,8.75195312 C120.07324,8.75195312 119.773601,8.83626218 119.529785,9.00488281 C119.285969,9.17350345 119.097982,9.41048024 118.96582,9.71582031 L118.96582,15 L117.619141,15 L117.619141,7.60351562 L118.822266,7.60351562 L118.952148,8.68359375 C119.161785,8.30077934 119.420409,8.00227972 119.728027,7.78808594 C120.035646,7.57389216 120.389972,7.46679688 120.791016,7.46679688 C120.891277,7.46679688 120.986979,7.47477206 121.078125,7.49072266 C121.169271,7.50667326 121.244466,7.52376293 121.303711,7.54199219 L121.119141,8.79296875 Z M121.980469,11.4384766 C121.980469,10.2490175 122.234535,9.28971719 122.742676,8.56054688 C123.250816,7.83137656 123.962886,7.46679688 124.878906,7.46679688 C125.311851,7.46679688 125.695799,7.54654868 126.030762,7.70605469 C126.365724,7.86556069 126.651692,8.09798024 126.888672,8.40332031 L126.888672,4.3359375 L128.235352,4.3359375 L128.235352,15 L127.134766,15 L126.977539,14.0908203 C126.736001,14.4371762 126.43978,14.6992179 126.088867,14.8769531 C125.737954,15.0546884 125.33008,15.1435547 124.865234,15.1435547 C123.962886,15.1435547 123.256513,14.8165723 122.746094,14.1625977 C122.235675,13.508623 121.980469,12.6484428 121.980469,11.5820312 L121.980469,11.4384766 Z M123.327148,11.5820312 C123.327148,12.3294308 123.479816,12.9275694 123.785156,13.3764648 C124.090496,13.8253603 124.56445,14.0498047 125.207031,14.0498047 C125.608075,14.0498047 125.945311,13.9586598 126.21875,13.7763672 C126.492189,13.5940746 126.715494,13.3388688 126.888672,13.0107422 L126.888672,9.55859375 C126.715494,9.25325368 126.49105,9.01058033 126.215332,8.83056641 C125.939615,8.65055249 125.608075,8.56054688 125.220703,8.56054688 C124.573564,8.56054688 124.096193,8.82714577 123.788574,9.36035156 C123.480955,9.89355735 123.327148,10.5862588 123.327148,11.4384766 L123.327148,11.5820312 Z" fill="#616161"></path>
                <path d="M6.67773438,65.8027344 L3.10351562,65.8027344 L2.29492188,68 L1.1171875,68 L4.41601562,59.46875 L5.40625,59.46875 L8.65234375,68 L7.47460937,68 L6.67773438,65.8027344 Z M3.4609375,64.8359375 L6.33203125,64.8359375 L4.92578125,60.9511719 L4.890625,60.9511719 L3.4609375,64.8359375 Z M11.03125,60.1308594 L11.03125,61.6601562 L12.2324219,61.6601562 L12.2324219,62.515625 L11.03125,62.515625 L11.03125,66.3652344 C11.03125,66.6621109 11.0927728,66.8710931 11.2158203,66.9921875 C11.3388678,67.1132819 11.5019521,67.1738281 11.7050781,67.1738281 C11.7714847,67.1738281 11.8447262,67.1660157 11.9248047,67.1503906 C12.0048832,67.1347655 12.0761716,67.1152345 12.1386719,67.0917969 L12.2910156,67.8828125 C12.2050777,67.9531254 12.0791024,68.010742 11.9130859,68.0556641 C11.7470695,68.1005862 11.580079,68.1230469 11.4121094,68.1230469 C10.943357,68.1230469 10.5703139,67.9814467 10.2929688,67.6982422 C10.0156236,67.4150376 9.87695312,66.9707062 9.87695312,66.3652344 L9.87695312,62.515625 L8.86914062,62.515625 L8.86914062,61.6601562 L9.87695312,61.6601562 L9.87695312,60.1308594 L11.03125,60.1308594 Z M17.8867188,68 L16.7324219,68 L16.7324219,58.859375 L17.8867188,58.859375 L17.8867188,68 Z M22.2929688,68.1230469 C21.4101518,68.1230469 20.7080104,67.8291045 20.1865234,67.2412109 C19.6650365,66.6533174 19.4042969,65.8906297 19.4042969,64.953125 L19.4042969,64.6953125 C19.4042969,63.7929642 19.6728489,63.0419952 20.2099609,62.4423828 C20.747073,61.8427704 21.3828088,61.5429688 22.1171875,61.5429688 C22.9726605,61.5429688 23.6191384,61.8007787 24.0566406,62.3164062 C24.4941428,62.8320338 24.7128906,63.519527 24.7128906,64.3789062 L24.7128906,65.0996094 L20.5996094,65.0996094 L20.5820312,65.1289062 C20.5937501,65.7382843 20.7480454,66.2392558 21.0449219,66.6318359 C21.3417984,67.024416 21.7578098,67.2207031 22.2929688,67.2207031 C22.6835957,67.2207031 23.0263657,67.1650396 23.3212891,67.0537109 C23.6162124,66.9423823 23.8710927,66.7890635 24.0859375,66.59375 L24.5371094,67.34375 C24.3105457,67.5664074 24.0117206,67.7519524 23.640625,67.9003906 C23.2695294,68.0488289 22.8203151,68.1230469 22.2929688,68.1230469 Z M22.1171875,62.4511719 C21.7304668,62.4511719 21.400392,62.6142562 21.1269531,62.9404297 C20.8535143,63.2666032 20.6855472,63.6757788 20.6230469,64.1679688 L20.6347656,64.1972656 L23.5585938,64.1972656 L23.5585938,64.0449219 C23.5585938,63.5917946 23.4375012,63.2128921 23.1953125,62.9082031 C22.9531238,62.6035141 22.5937524,62.4511719 22.1171875,62.4511719 Z M29.9042969,68 C29.8652342,67.8085928 29.834961,67.6396492 29.8134766,67.4931641 C29.7919921,67.346679 29.7792969,67.1992195 29.7753906,67.0507812 C29.5605458,67.3554703 29.2802752,67.6103505 28.9345703,67.8154297 C28.5888655,68.0205088 28.2167989,68.1230469 27.8183594,68.1230469 C27.1581998,68.1230469 26.6552752,67.9541033 26.3095703,67.6162109 C25.9638655,67.2783186 25.7910156,66.812503 25.7910156,66.21875 C25.7910156,65.6132782 26.0361304,65.1396501 26.5263672,64.7978516 C27.016604,64.456053 27.6816364,64.2851562 28.5214844,64.2851562 L29.7753906,64.2851562 L29.7753906,63.6582031 C29.7753906,63.2871075 29.6621105,62.9931651 29.4355469,62.7763672 C29.2089832,62.5595692 28.8886739,62.4511719 28.4746094,62.4511719 C28.1035138,62.4511719 27.801759,62.5458975 27.5693359,62.7353516 C27.3369129,62.9248056 27.2207031,63.1523424 27.2207031,63.4179688 L26.1191406,63.4179688 L26.1074219,63.3828125 C26.0839843,62.9218727 26.3017555,62.5000019 26.7607422,62.1171875 C27.2197289,61.7343731 27.8124964,61.5429688 28.5390625,61.5429688 C29.2578161,61.5429688 29.8359353,61.7255841 30.2734375,62.0908203 C30.7109397,62.4560565 30.9296875,62.9824184 30.9296875,63.6699219 L30.9296875,66.7226562 C30.9296875,66.9492199 30.9414061,67.1679677 30.9648438,67.3789062 C30.9882814,67.5898448 31.0312497,67.796874 31.09375,68 L29.9042969,68 Z M27.9882812,67.15625 C28.4062521,67.15625 28.7832014,67.0488292 29.1191406,66.8339844 C29.4550798,66.6191396 29.6738276,66.3730483 29.7753906,66.0957031 L29.7753906,65.0644531 L28.4804688,65.0644531 C28.0156227,65.0644531 27.6435561,65.1816395 27.3642578,65.4160156 C27.0849595,65.6503918 26.9453125,65.9257797 26.9453125,66.2421875 C26.9453125,66.5234389 27.0332022,66.7460929 27.2089844,66.9101562 C27.3847665,67.0742196 27.6445295,67.15625 27.9882812,67.15625 Z M36.2910156,66.3183594 C36.2910156,66.0644519 36.1943369,65.8554696 36.0009766,65.6914062 C35.8076162,65.5273429 35.4414089,65.3847662 34.9023438,65.2636719 C34.1328087,65.0957023 33.5537129,64.8681655 33.1650391,64.5810547 C32.7763652,64.2939439 32.5820312,63.9023462 32.5820312,63.40625 C32.5820312,62.8906224 32.8007791,62.4511737 33.2382812,62.0878906 C33.6757834,61.7246076 34.2460902,61.5429688 34.9492188,61.5429688 C35.6875037,61.5429688 36.2744119,61.73242 36.7099609,62.1113281 C37.14551,62.4902363 37.3535157,62.9511692 37.3339844,63.4941406 L37.3222656,63.5292969 L36.2207031,63.5292969 C36.2207031,63.2519517 36.1044933,63.0029308 35.8720703,62.7822266 C35.6396473,62.5615223 35.3320332,62.4511719 34.9492188,62.4511719 C34.5390604,62.4511719 34.234376,62.5410147 34.0351562,62.7207031 C33.8359365,62.9003915 33.7363281,63.1171862 33.7363281,63.3710938 C33.7363281,63.621095 33.8242179,63.8183587 34,63.9628906 C34.1757821,64.1074226 34.5332004,64.2363276 35.0722656,64.3496094 C35.8730509,64.5214852 36.468748,64.7548813 36.859375,65.0498047 C37.250002,65.344728 37.4453125,65.7402319 37.4453125,66.2363281 C37.4453125,66.7988309 37.2177757,67.2539045 36.7626953,67.6015625 C36.3076149,67.9492205 35.7128943,68.1230469 34.9785156,68.1230469 C34.1699178,68.1230469 33.5332054,67.9179708 33.0683594,67.5078125 C32.6035133,67.0976542 32.3828124,66.6191434 32.40625,66.0722656 L32.4179688,66.0371094 L33.5195312,66.0371094 C33.5390626,66.4472677 33.6914048,66.7470694 33.9765625,66.9365234 C34.2617202,67.1259775 34.5957012,67.2207031 34.9785156,67.2207031 C35.3886739,67.2207031 35.7099598,67.1376961 35.9423828,66.9716797 C36.1748058,66.8056632 36.2910156,66.587892 36.2910156,66.3183594 Z M40.4042969,60.1308594 L40.4042969,61.6601562 L41.6054688,61.6601562 L41.6054688,62.515625 L40.4042969,62.515625 L40.4042969,66.3652344 C40.4042969,66.6621109 40.4658197,66.8710931 40.5888672,66.9921875 C40.7119147,67.1132819 40.874999,67.1738281 41.078125,67.1738281 C41.1445316,67.1738281 41.217773,67.1660157 41.2978516,67.1503906 C41.3779301,67.1347655 41.4492184,67.1152345 41.5117188,67.0917969 L41.6640625,67.8828125 C41.5781246,67.9531254 41.4521493,68.010742 41.2861328,68.0556641 C41.1201164,68.1005862 40.9531258,68.1230469 40.7851562,68.1230469 C40.3164039,68.1230469 39.9433608,67.9814467 39.6660156,67.6982422 C39.3886705,67.4150376 39.25,66.9707062 39.25,66.3652344 L39.25,62.515625 L38.2421875,62.515625 L38.2421875,61.6601562 L39.25,61.6601562 L39.25,60.1308594 L40.4042969,60.1308594 Z M51.0917969,61.6953125 C51.0917969,62.1406272 50.9667981,62.5302718 50.7167969,62.8642578 C50.4667956,63.1982439 50.1289084,63.4472648 49.703125,63.6113281 C50.195315,63.783204 50.5888657,64.0527325 50.8837891,64.4199219 C51.1787124,64.7871112 51.3261719,65.2109351 51.3261719,65.6914062 C51.3261719,66.4804727 51.0693385,67.0830057 50.5556641,67.4990234 C50.0419896,67.9150411 49.3750041,68.1230469 48.5546875,68.1230469 C47.7187458,68.1230469 47.045901,67.9150411 46.5361328,67.4990234 C46.0263646,67.0830057 45.7714844,66.4804727 45.7714844,65.6914062 C45.7714844,65.2109351 45.9160142,64.7871112 46.2050781,64.4199219 C46.4941421,64.0527325 46.8847632,63.783204 47.3769531,63.6113281 C46.9511697,63.4472648 46.6171887,63.1982439 46.375,62.8642578 C46.1328113,62.5302718 46.0117188,62.1406272 46.0117188,61.6953125 C46.0117188,60.9453087 46.2431617,60.366213 46.7060547,59.9580078 C47.1689476,59.5498026 47.7812462,59.3457031 48.5429688,59.3457031 C49.2929725,59.3457031 49.9052711,59.5498026 50.3798828,59.9580078 C50.8544946,60.366213 51.0917969,60.9453087 51.0917969,61.6953125 Z M50.1777344,65.6679688 C50.1777344,65.1992164 50.023439,64.8144546 49.7148438,64.5136719 C49.4062485,64.2128891 49.0156274,64.0625 48.5429688,64.0625 C48.0624976,64.0625 47.6728531,64.2128891 47.3740234,64.5136719 C47.0751938,64.8144546 46.9257812,65.1992164 46.9257812,65.6679688 C46.9257812,66.1523462 47.0742173,66.5322252 47.3710938,66.8076172 C47.6679702,67.0830092 48.0624975,67.2207031 48.5546875,67.2207031 C49.0351587,67.2207031 49.4257797,67.0820326 49.7265625,66.8046875 C50.0273453,66.5273424 50.1777344,66.1484399 50.1777344,65.6679688 Z M49.9375,61.71875 C49.9375,61.2968729 49.8056654,60.947267 49.5419922,60.6699219 C49.278319,60.3925767 48.9453145,60.2539062 48.5429688,60.2539062 C48.1328104,60.2539062 47.8007825,60.387694 47.546875,60.6552734 C47.2929675,60.9228529 47.1660156,61.2773415 47.1660156,61.71875 C47.1660156,62.1523459 47.293944,62.4999987 47.5498047,62.7617188 C47.8056653,63.0234388 48.1406229,63.1542969 48.5546875,63.1542969 C48.9609395,63.1542969 49.2929675,63.0234388 49.5507812,62.7617188 C49.808595,62.4999987 49.9375,62.1523459 49.9375,61.71875 Z M58.328125,67.2207031 C58.7109394,67.2207031 59.0478501,67.1025402 59.3388672,66.8662109 C59.6298843,66.6298816 59.7753906,66.3398455 59.7753906,65.9960938 L60.8125,65.9960938 L60.8242188,66.03125 C60.8437501,66.5781277 60.6005885,67.0634744 60.0947266,67.4873047 C59.5888647,67.9111349 59.0000034,68.1230469 58.328125,68.1230469 C57.4062454,68.1230469 56.7011743,67.8222686 56.2128906,67.2207031 C55.7246069,66.6191376 55.4804688,65.8632858 55.4804688,64.953125 L55.4804688,64.7070312 C55.4804688,63.804683 55.7255835,63.0517608 56.2158203,62.4482422 C56.7060571,61.8447235 57.4101517,61.5429688 58.328125,61.5429688 C59.0703162,61.5429688 59.6767555,61.7617166 60.1474609,62.1992188 C60.6181664,62.6367209 60.8457032,63.1738249 60.8300781,63.8105469 L60.8183594,63.8457031 L59.7753906,63.8457031 C59.7753906,63.4589824 59.6386732,63.1298842 59.3652344,62.8583984 C59.0917955,62.5869127 58.7460958,62.4511719 58.328125,62.4511719 C57.7226532,62.4511719 57.2900404,62.6689431 57.0302734,63.1044922 C56.7705065,63.5400412 56.640625,64.0742156 56.640625,64.7070312 L56.640625,64.953125 C56.640625,65.6015657 56.76953,66.1415994 57.0273438,66.5732422 C57.2851575,67.004885 57.718747,67.2207031 58.328125,67.2207031 Z M63.2734375,62.5097656 C63.4921886,62.2050766 63.7607406,61.9677743 64.0791016,61.7978516 C64.3974625,61.6279288 64.7499981,61.5429688 65.1367188,61.5429688 C65.8125034,61.5429688 66.3388653,61.7460917 66.7158203,62.1523438 C67.0927753,62.5585958 67.28125,63.1835895 67.28125,64.0273438 L67.28125,68 L66.1269531,68 L66.1269531,64.015625 C66.1269531,63.4921849 66.0146496,63.10547 65.7900391,62.8554688 C65.5654286,62.6054675 65.230471,62.4804688 64.7851562,62.4804688 C64.4648421,62.4804688 64.174806,62.5556633 63.9150391,62.7060547 C63.6552721,62.8564461 63.4414071,63.0605456 63.2734375,63.3183594 L63.2734375,68 L62.1191406,68 L62.1191406,58.859375 L63.2734375,58.859375 L63.2734375,62.5097656 Z M72.8359375,68 C72.7968748,67.8085928 72.7666017,67.6396492 72.7451172,67.4931641 C72.7236327,67.346679 72.7109375,67.1992195 72.7070312,67.0507812 C72.4921864,67.3554703 72.2119158,67.6103505 71.8662109,67.8154297 C71.5205061,68.0205088 71.1484395,68.1230469 70.75,68.1230469 C70.0898404,68.1230469 69.5869158,67.9541033 69.2412109,67.6162109 C68.8955061,67.2783186 68.7226562,66.812503 68.7226562,66.21875 C68.7226562,65.6132782 68.967771,65.1396501 69.4580078,64.7978516 C69.9482446,64.456053 70.6132771,64.2851562 71.453125,64.2851562 L72.7070312,64.2851562 L72.7070312,63.6582031 C72.7070312,63.2871075 72.5937511,62.9931651 72.3671875,62.7763672 C72.1406239,62.5595692 71.8203146,62.4511719 71.40625,62.4511719 C71.0351544,62.4511719 70.7333996,62.5458975 70.5009766,62.7353516 C70.2685535,62.9248056 70.1523438,63.1523424 70.1523438,63.4179688 L69.0507812,63.4179688 L69.0390625,63.3828125 C69.0156249,62.9218727 69.2333961,62.5000019 69.6923828,62.1171875 C70.1513695,61.7343731 70.744137,61.5429688 71.4707031,61.5429688 C72.1894567,61.5429688 72.7675759,61.7255841 73.2050781,62.0908203 C73.6425803,62.4560565 73.8613281,62.9824184 73.8613281,63.6699219 L73.8613281,66.7226562 C73.8613281,66.9492199 73.8730468,67.1679677 73.8964844,67.3789062 C73.919922,67.5898448 73.9628903,67.796874 74.0253906,68 L72.8359375,68 Z M70.9199219,67.15625 C71.3378927,67.15625 71.7148421,67.0488292 72.0507812,66.8339844 C72.3867204,66.6191396 72.6054682,66.3730483 72.7070312,66.0957031 L72.7070312,65.0644531 L71.4121094,65.0644531 C70.9472633,65.0644531 70.5751967,65.1816395 70.2958984,65.4160156 C70.0166002,65.6503918 69.8769531,65.9257797 69.8769531,66.2421875 C69.8769531,66.5234389 69.9648429,66.7460929 70.140625,66.9101562 C70.3164071,67.0742196 70.5761702,67.15625 70.9199219,67.15625 Z M78.5371094,62.6796875 L77.9453125,62.6445312 C77.6406235,62.6445312 77.3837901,62.7167962 77.1748047,62.8613281 C76.9658193,63.0058601 76.8046881,63.2089831 76.6914062,63.4707031 L76.6914062,68 L75.5371094,68 L75.5371094,61.6601562 L76.5683594,61.6601562 L76.6796875,62.5859375 C76.8593759,62.2578109 77.0810534,62.001954 77.3447266,61.8183594 C77.6083998,61.6347647 77.9121077,61.5429688 78.2558594,61.5429688 C78.3417973,61.5429688 78.4238277,61.5498046 78.5019531,61.5634766 C78.5800785,61.5771485 78.644531,61.5917968 78.6953125,61.6074219 L78.5371094,62.6796875 Z M83.546875,68 C83.5078123,67.8085928 83.4775392,67.6396492 83.4560547,67.4931641 C83.4345702,67.346679 83.421875,67.1992195 83.4179688,67.0507812 C83.2031239,67.3554703 82.9228533,67.6103505 82.5771484,67.8154297 C82.2314436,68.0205088 81.859377,68.1230469 81.4609375,68.1230469 C80.8007779,68.1230469 80.2978533,67.9541033 79.9521484,67.6162109 C79.6064436,67.2783186 79.4335938,66.812503 79.4335938,66.21875 C79.4335938,65.6132782 79.6787085,65.1396501 80.1689453,64.7978516 C80.6591821,64.456053 81.3242146,64.2851562 82.1640625,64.2851562 L83.4179688,64.2851562 L83.4179688,63.6582031 C83.4179688,63.2871075 83.3046886,62.9931651 83.078125,62.7763672 C82.8515614,62.5595692 82.5312521,62.4511719 82.1171875,62.4511719 C81.7460919,62.4511719 81.4443371,62.5458975 81.2119141,62.7353516 C80.979491,62.9248056 80.8632812,63.1523424 80.8632812,63.4179688 L79.7617188,63.4179688 L79.75,63.3828125 C79.7265624,62.9218727 79.9443336,62.5000019 80.4033203,62.1171875 C80.862307,61.7343731 81.4550745,61.5429688 82.1816406,61.5429688 C82.9003942,61.5429688 83.4785134,61.7255841 83.9160156,62.0908203 C84.3535178,62.4560565 84.5722656,62.9824184 84.5722656,63.6699219 L84.5722656,66.7226562 C84.5722656,66.9492199 84.5839843,67.1679677 84.6074219,67.3789062 C84.6308595,67.5898448 84.6738278,67.796874 84.7363281,68 L83.546875,68 Z M81.6308594,67.15625 C82.0488302,67.15625 82.4257796,67.0488292 82.7617188,66.8339844 C83.0976579,66.6191396 83.3164057,66.3730483 83.4179688,66.0957031 L83.4179688,65.0644531 L82.1230469,65.0644531 C81.6582008,65.0644531 81.2861342,65.1816395 81.0068359,65.4160156 C80.7275377,65.6503918 80.5878906,65.9257797 80.5878906,66.2421875 C80.5878906,66.5234389 80.6757804,66.7460929 80.8515625,66.9101562 C81.0273446,67.0742196 81.2871077,67.15625 81.6308594,67.15625 Z M88.8261719,67.2207031 C89.2089863,67.2207031 89.545897,67.1025402 89.8369141,66.8662109 C90.1279311,66.6298816 90.2734375,66.3398455 90.2734375,65.9960938 L91.3105469,65.9960938 L91.3222656,66.03125 C91.341797,66.5781277 91.0986353,67.0634744 90.5927734,67.4873047 C90.0869115,67.9111349 89.4980502,68.1230469 88.8261719,68.1230469 C87.9042923,68.1230469 87.1992212,67.8222686 86.7109375,67.2207031 C86.2226538,66.6191376 85.9785156,65.8632858 85.9785156,64.953125 L85.9785156,64.7070312 C85.9785156,63.804683 86.2236304,63.0517608 86.7138672,62.4482422 C87.204104,61.8447235 87.9081985,61.5429688 88.8261719,61.5429688 C89.5683631,61.5429688 90.1748023,61.7617166 90.6455078,62.1992188 C91.1162133,62.6367209 91.3437501,63.1738249 91.328125,63.8105469 L91.3164062,63.8457031 L90.2734375,63.8457031 C90.2734375,63.4589824 90.1367201,63.1298842 89.8632812,62.8583984 C89.5898424,62.5869127 89.2441427,62.4511719 88.8261719,62.4511719 C88.2207001,62.4511719 87.7880872,62.6689431 87.5283203,63.1044922 C87.2685534,63.5400412 87.1386719,64.0742156 87.1386719,64.7070312 L87.1386719,64.953125 C87.1386719,65.6015657 87.2675768,66.1415994 87.5253906,66.5732422 C87.7832044,67.004885 88.2167938,67.2207031 88.8261719,67.2207031 Z M94.140625,60.1308594 L94.140625,61.6601562 L95.3417969,61.6601562 L95.3417969,62.515625 L94.140625,62.515625 L94.140625,66.3652344 C94.140625,66.6621109 94.2021478,66.8710931 94.3251953,66.9921875 C94.4482428,67.1132819 94.6113271,67.1738281 94.8144531,67.1738281 C94.8808597,67.1738281 94.9541012,67.1660157 95.0341797,67.1503906 C95.1142582,67.1347655 95.1855466,67.1152345 95.2480469,67.0917969 L95.4003906,67.8828125 C95.3144527,67.9531254 95.1884774,68.010742 95.0224609,68.0556641 C94.8564445,68.1005862 94.689454,68.1230469 94.5214844,68.1230469 C94.052732,68.1230469 93.6796889,67.9814467 93.4023438,67.6982422 C93.1249986,67.4150376 92.9863281,66.9707062 92.9863281,66.3652344 L92.9863281,62.515625 L91.9785156,62.515625 L91.9785156,61.6601562 L92.9863281,61.6601562 L92.9863281,60.1308594 L94.140625,60.1308594 Z M99.3964844,68.1230469 C98.5136675,68.1230469 97.811526,67.8291045 97.2900391,67.2412109 C96.7685521,66.6533174 96.5078125,65.8906297 96.5078125,64.953125 L96.5078125,64.6953125 C96.5078125,63.7929642 96.7763645,63.0419952 97.3134766,62.4423828 C97.8505886,61.8427704 98.4863245,61.5429688 99.2207031,61.5429688 C100.076176,61.5429688 100.722654,61.8007787 101.160156,62.3164062 C101.597658,62.8320338 101.816406,63.519527 101.816406,64.3789062 L101.816406,65.0996094 L97.703125,65.0996094 L97.6855469,65.1289062 C97.6972657,65.7382843 97.851561,66.2392558 98.1484375,66.6318359 C98.445314,67.024416 98.8613254,67.2207031 99.3964844,67.2207031 C99.7871113,67.2207031 100.129881,67.1650396 100.424805,67.0537109 C100.719728,66.9423823 100.974608,66.7890635 101.189453,66.59375 L101.640625,67.34375 C101.414061,67.5664074 101.115236,67.7519524 100.744141,67.9003906 C100.373045,68.0488289 99.9238308,68.1230469 99.3964844,68.1230469 Z M99.2207031,62.4511719 C98.8339824,62.4511719 98.5039076,62.6142562 98.2304688,62.9404297 C97.9570299,63.2666032 97.7890628,63.6757788 97.7265625,64.1679688 L97.7382812,64.1972656 L100.662109,64.1972656 L100.662109,64.0449219 C100.662109,63.5917946 100.541017,63.2128921 100.298828,62.9082031 C100.056639,62.6035141 99.697268,62.4511719 99.2207031,62.4511719 Z M106.111328,62.6796875 L105.519531,62.6445312 C105.214842,62.6445312 104.958009,62.7167962 104.749023,62.8613281 C104.540038,63.0058601 104.378907,63.2089831 104.265625,63.4707031 L104.265625,68 L103.111328,68 L103.111328,61.6601562 L104.142578,61.6601562 L104.253906,62.5859375 C104.433595,62.2578109 104.655272,62.001954 104.918945,61.8183594 C105.182619,61.6347647 105.486326,61.5429688 105.830078,61.5429688 C105.916016,61.5429688 105.998046,61.5498046 106.076172,61.5634766 C106.154297,61.5771485 106.21875,61.5917968 106.269531,61.6074219 L106.111328,62.6796875 Z M110.910156,66.3183594 C110.910156,66.0644519 110.813478,65.8554696 110.620117,65.6914062 C110.426757,65.5273429 110.06055,65.3847662 109.521484,65.2636719 C108.751949,65.0957023 108.172854,64.8681655 107.78418,64.5810547 C107.395506,64.2939439 107.201172,63.9023462 107.201172,63.40625 C107.201172,62.8906224 107.41992,62.4511737 107.857422,62.0878906 C108.294924,61.7246076 108.865231,61.5429688 109.568359,61.5429688 C110.306644,61.5429688 110.893553,61.73242 111.329102,62.1113281 C111.764651,62.4902363 111.972656,62.9511692 111.953125,63.4941406 L111.941406,63.5292969 L110.839844,63.5292969 C110.839844,63.2519517 110.723634,63.0029308 110.491211,62.7822266 C110.258788,62.5615223 109.951174,62.4511719 109.568359,62.4511719 C109.158201,62.4511719 108.853517,62.5410147 108.654297,62.7207031 C108.455077,62.9003915 108.355469,63.1171862 108.355469,63.3710938 C108.355469,63.621095 108.443358,63.8183587 108.619141,63.9628906 C108.794923,64.1074226 109.152341,64.2363276 109.691406,64.3496094 C110.492192,64.5214852 111.087889,64.7548813 111.478516,65.0498047 C111.869143,65.344728 112.064453,65.7402319 112.064453,66.2363281 C112.064453,66.7988309 111.836916,67.2539045 111.381836,67.6015625 C110.926756,67.9492205 110.332035,68.1230469 109.597656,68.1230469 C108.789058,68.1230469 108.152346,67.9179708 107.6875,67.5078125 C107.222654,67.0976542 107.001953,66.6191434 107.025391,66.0722656 L107.037109,66.0371094 L108.138672,66.0371094 C108.158203,66.4472677 108.310545,66.7470694 108.595703,66.9365234 C108.880861,67.1259775 109.214842,67.2207031 109.597656,67.2207031 C110.007815,67.2207031 110.3291,67.1376961 110.561523,66.9716797 C110.793946,66.8056632 110.910156,66.587892 110.910156,66.3183594 Z" fill="#9E9E9E"></path>
            </g>
            <g transform="translate(10.000000, 27.000000)" fill="#333333">
                <g>
                    <path d="M4.578125,13.359375 C3.69791227,13.359375 2.94010734,13.0364616 2.3046875,12.390625 C1.66926766,11.7447884 1.3515625,10.976567 1.3515625,10.0859375 C1.3515625,9.17968297 1.6718718,8.4062532 2.3125,7.765625 C2.9531282,7.1249968 3.72655797,6.8046875 4.6328125,6.8046875 C5.53906703,6.8046875 6.31119473,7.12629887 6.94921875,7.76953125 C7.58724277,8.41276363 7.90625,9.19270375 7.90625,10.109375 C7.90625,11.0104212 7.58203449,11.7773406 6.93359375,12.4101562 C6.28515301,13.0429719 5.50000461,13.359375 4.578125,13.359375 Z M13.828125,13.359375 C12.9479123,13.359375 12.1901073,13.0364616 11.5546875,12.390625 C10.9192677,11.7447884 10.6015625,10.976567 10.6015625,10.0859375 C10.6015625,9.17968297 10.9218718,8.4062532 11.5625,7.765625 C12.2031282,7.1249968 12.976558,6.8046875 13.8828125,6.8046875 C14.789067,6.8046875 15.5611947,7.12629887 16.1992188,7.76953125 C16.8372428,8.41276363 17.15625,9.19270375 17.15625,10.109375 C17.15625,11.0104212 16.8320345,11.7773406 16.1835938,12.4101562 C15.535153,13.0429719 14.7500046,13.359375 13.828125,13.359375 Z M23.078125,13.359375 C22.1979123,13.359375 21.4401073,13.0364616 20.8046875,12.390625 C20.1692677,11.7447884 19.8515625,10.976567 19.8515625,10.0859375 C19.8515625,9.17968297 20.1718718,8.4062532 20.8125,7.765625 C21.4531282,7.1249968 22.226558,6.8046875 23.1328125,6.8046875 C24.039067,6.8046875 24.8111947,7.12629887 25.4492188,7.76953125 C26.0872428,8.41276363 26.40625,9.19270375 26.40625,10.109375 C26.40625,11.0104212 26.0820345,11.7773406 25.4335938,12.4101562 C24.785153,13.0429719 24.0000046,13.359375 23.078125,13.359375 Z M32.328125,13.359375 C31.4479123,13.359375 30.6901073,13.0364616 30.0546875,12.390625 C29.4192677,11.7447884 29.1015625,10.976567 29.1015625,10.0859375 C29.1015625,9.17968297 29.4218718,8.4062532 30.0625,7.765625 C30.7031282,7.1249968 31.476558,6.8046875 32.3828125,6.8046875 C33.289067,6.8046875 34.0611947,7.12629887 34.6992188,7.76953125 C35.3372428,8.41276363 35.65625,9.19270375 35.65625,10.109375 C35.65625,11.0104212 35.3320345,11.7773406 34.6835938,12.4101562 C34.035153,13.0429719 33.2500046,13.359375 32.328125,13.359375 Z M41.578125,13.359375 C40.6979123,13.359375 39.9401073,13.0364616 39.3046875,12.390625 C38.6692677,11.7447884 38.3515625,10.976567 38.3515625,10.0859375 C38.3515625,9.17968297 38.6718718,8.4062532 39.3125,7.765625 C39.9531282,7.1249968 40.726558,6.8046875 41.6328125,6.8046875 C42.539067,6.8046875 43.3111947,7.12629887 43.9492188,7.76953125 C44.5872428,8.41276363 44.90625,9.19270375 44.90625,10.109375 C44.90625,11.0104212 44.5820345,11.7773406 43.9335938,12.4101562 C43.285153,13.0429719 42.5000046,13.359375 41.578125,13.359375 Z M50.828125,13.359375 C49.9479123,13.359375 49.1901073,13.0364616 48.5546875,12.390625 C47.9192677,11.7447884 47.6015625,10.976567 47.6015625,10.0859375 C47.6015625,9.17968297 47.9218718,8.4062532 48.5625,7.765625 C49.2031282,7.1249968 49.976558,6.8046875 50.8828125,6.8046875 C51.789067,6.8046875 52.5611947,7.12629887 53.1992188,7.76953125 C53.8372428,8.41276363 54.15625,9.19270375 54.15625,10.109375 C54.15625,11.0104212 53.8320345,11.7773406 53.1835938,12.4101562 C52.535153,13.0429719 51.7500046,13.359375 50.828125,13.359375 Z M60.078125,13.359375 C59.1979123,13.359375 58.4401073,13.0364616 57.8046875,12.390625 C57.1692677,11.7447884 56.8515625,10.976567 56.8515625,10.0859375 C56.8515625,9.17968297 57.1718718,8.4062532 57.8125,7.765625 C58.4531282,7.1249968 59.226558,6.8046875 60.1328125,6.8046875 C61.039067,6.8046875 61.8111947,7.12629887 62.4492188,7.76953125 C63.0872428,8.41276363 63.40625,9.19270375 63.40625,10.109375 C63.40625,11.0104212 63.0820345,11.7773406 62.4335938,12.4101562 C61.785153,13.0429719 61.0000046,13.359375 60.078125,13.359375 Z M69.328125,13.359375 C68.4479123,13.359375 67.6901073,13.0364616 67.0546875,12.390625 C66.4192677,11.7447884 66.1015625,10.976567 66.1015625,10.0859375 C66.1015625,9.17968297 66.4218718,8.4062532 67.0625,7.765625 C67.7031282,7.1249968 68.476558,6.8046875 69.3828125,6.8046875 C70.289067,6.8046875 71.0611947,7.12629887 71.6992188,7.76953125 C72.3372428,8.41276363 72.65625,9.19270375 72.65625,10.109375 C72.65625,11.0104212 72.3320345,11.7773406 71.6835938,12.4101562 C71.035153,13.0429719 70.2500046,13.359375 69.328125,13.359375 Z M78.578125,13.359375 C77.6979123,13.359375 76.9401073,13.0364616 76.3046875,12.390625 C75.6692677,11.7447884 75.3515625,10.976567 75.3515625,10.0859375 C75.3515625,9.17968297 75.6718718,8.4062532 76.3125,7.765625 C76.9531282,7.1249968 77.726558,6.8046875 78.6328125,6.8046875 C79.539067,6.8046875 80.3111947,7.12629887 80.9492188,7.76953125 C81.5872428,8.41276363 81.90625,9.19270375 81.90625,10.109375 C81.90625,11.0104212 81.5820345,11.7773406 80.9335938,12.4101562 C80.285153,13.0429719 79.5000046,13.359375 78.578125,13.359375 Z"></path>
                </g>
            </g>
            <g transform="translate(245.000000, 28.000000)" font-size="12" font-family="Roboto-Regular, Roboto" fill="#EC407A" font-weight="normal">
                <text>
                    <tspan x="0" y="13">Bullets are vertically centered</tspan>
                </text>
            </g>
            <g transform="translate(167.000000, 37.500000) scale(-1, 1) translate(-167.000000, -37.500000) translate(97.000000, 34.000000)">
                <path d="M3.5,6.5 L3.5,5 C3.5,4.17157288 4.1676029,3.5 5.00408295,3.5 L139.5,3.5" stroke="#EC407A"></path>
                <g transform="translate(133.000000, 0.000000)">
                    <g>
                        <g fill="#FFFFFF">
                            <polygon points="7 3.5 0 7 0 0"></polygon>
                        </g>
                        <polygon stroke="#EC407A" points="5.88196601 3.5 0.5 0.809016994 0.5 6.19098301"></polygon>
                    </g>
                </g>
                <g>
                    <g>
                        <g fill="#FFFFFF">
                            <circle cx="3.5" cy="3.5" r="3.5"></circle>
                        </g>
                        <circle stroke="#EC407A" cx="3.5" cy="3.5" r="3"></circle>
                    </g>
                </g>
            </g>
        </g>
    </g>
</svg>