<?xml version="1.0" encoding="UTF-8"?>
<svg width="477px" height="84px" viewBox="0 0 477 84" version="1.1" xmlns="http://www.w3.org/2000/svg" xmlns:xlink="http://www.w3.org/1999/xlink">
    <!-- Generator: Sketch 49.1 (51147) - http://www.bohemiancoding.com/sketch -->
    <title>text-fields-text-input-placeholder-text</title>
    <desc>Created with Sketch.</desc>
    <defs>
        <rect id="path-1" x="1" y="21" width="208" height="30" rx="2"></rect>
        <polygon id="path-2" points="7 3.5 0 7 0 0"></polygon>
    </defs>
    <g id="text-fields-text-input-placeholder-text" stroke="none" stroke-width="1" fill="none" fill-rule="evenodd">
        <g id="Basic-Field-w-Label" transform="translate(1.000000, 9.000000)">
            <g id="Rectangle-4">
                <use fill="#FFFFFF" fill-rule="evenodd" xlink:href="#path-1"></use>
                <rect stroke="#BDBDBD" stroke-width="1" x="0.5" y="20.5" width="209" height="31" rx="2"></rect>
            </g>
            <path d="M13.703125,35.546875 L12.9296875,40 L11.4609375,40 L13.4375,28.625 L17.234375,28.6328125 C18.4062559,28.6328125 19.3098927,28.9440073 19.9453125,29.5664062 C20.5807323,30.1888052 20.8541671,31.0156198 20.765625,32.046875 C20.6718745,33.1354221 20.2382851,33.9921844 19.4648438,34.6171875 C18.6914024,35.2421906 17.6718813,35.5546875 16.40625,35.5546875 L13.703125,35.546875 Z M13.9140625,34.3203125 L16.4453125,34.328125 C17.2421915,34.328125 17.8958308,34.1276062 18.40625,33.7265625 C18.9166692,33.3255188 19.2161454,32.7682327 19.3046875,32.0546875 C19.3880213,31.4140593 19.2552101,30.8945332 18.90625,30.4960938 C18.5572899,30.0976543 18.0494825,29.8880209 17.3828125,29.8671875 L14.6875,29.859375 L13.9140625,34.3203125 Z M22.640625,40 L21.234375,40 L23.3125,28 L24.7265625,28 L22.640625,40 Z M30.125,40 C30.0885415,39.8489576 30.0703125,39.7005216 30.0703125,39.5546875 L30.09375,39.109375 C29.3177045,39.8281286 28.494796,40.1770834 27.625,40.15625 C26.8802046,40.1458333 26.2747419,39.9101586 25.8085938,39.4492188 C25.3424456,38.9882789 25.1302081,38.4114618 25.171875,37.71875 C25.2239586,36.8229122 25.6158818,36.1237004 26.3476562,35.6210938 C27.0794307,35.1184871 28.0416607,34.8671875 29.234375,34.8671875 L30.7109375,34.875 L30.8046875,34.203125 C30.8567711,33.6979141 30.7591158,33.2981786 30.5117187,33.0039062 C30.2643217,32.7096339 29.8932316,32.5572917 29.3984375,32.546875 C28.9140601,32.5364583 28.4856789,32.6549467 28.1132812,32.9023438 C27.7408836,33.1497408 27.5130212,33.4765605 27.4296875,33.8828125 L26.0078125,33.890625 C26.0546877,33.3958309 26.2473941,32.9570332 26.5859375,32.5742188 C26.9244809,32.1914043 27.3593723,31.8945323 27.890625,31.6835938 C28.4218777,31.4726552 28.9713513,31.3723958 29.5390625,31.3828125 C30.4192752,31.4036459 31.1041642,31.6705704 31.59375,32.1835938 C32.0833358,32.6966171 32.2890629,33.3775999 32.2109375,34.2265625 L31.5234375,38.4140625 L31.484375,39.015625 C31.4739583,39.3020848 31.505208,39.5859361 31.578125,39.8671875 L31.5625,40 L30.125,40 Z M27.90625,38.90625 C28.3593773,38.9166667 28.7877584,38.8085949 29.1914062,38.5820312 C29.5950541,38.3554676 29.9427069,38.0416687 30.234375,37.640625 L30.5390625,35.8984375 L29.46875,35.890625 C28.5781205,35.890625 27.8958357,36.0312486 27.421875,36.3125 C26.9479143,36.5937514 26.6796878,36.9921849 26.6171875,37.5078125 C26.5703123,37.9036478 26.6627593,38.2330716 26.8945312,38.4960938 C27.1263032,38.7591159 27.4635395,38.8958333 27.90625,38.90625 Z M37.046875,38.984375 C37.5520859,38.9947917 38.0078105,38.8476578 38.4140625,38.5429688 C38.8203145,38.2382797 39.0859369,37.8385441 39.2109375,37.34375 L40.546875,37.3359375 C40.4687496,37.8671902 40.2565121,38.3515603 39.9101562,38.7890625 C39.5638004,39.2265647 39.1276068,39.5677071 38.6015625,39.8125 C38.0755182,40.0572929 37.5364611,40.1718751 36.984375,40.15625 C36.2812465,40.1458333 35.6862004,39.9622414 35.1992188,39.6054688 C34.7122371,39.2486961 34.3541678,38.7513053 34.125,38.1132812 C33.8958322,37.4752572 33.817708,36.7578165 33.890625,35.9609375 L33.9296875,35.5703125 C34.0286463,34.7578084 34.2656231,34.0312532 34.640625,33.390625 C35.0156269,32.7499968 35.5052053,32.2513039 36.109375,31.8945312 C36.7135447,31.5377586 37.3802047,31.3697916 38.109375,31.390625 C38.9947961,31.4114584 39.7031223,31.7083305 40.234375,32.28125 C40.7656277,32.8541695 41.03125,33.5807248 41.03125,34.4609375 L39.7109375,34.453125 C39.7005208,33.9010389 39.5468765,33.4544288 39.25,33.1132812 C38.9531235,32.7721337 38.5520859,32.5911459 38.046875,32.5703125 C37.3124963,32.5546874 36.7018254,32.8281222 36.2148438,33.390625 C35.7278621,33.9531278 35.4244798,34.7395783 35.3046875,35.75 L35.28125,35.953125 C35.2499998,36.28646 35.2447916,36.6302066 35.265625,36.984375 C35.3020835,37.593753 35.4739568,38.0755191 35.78125,38.4296875 C36.0885432,38.7838559 36.510414,38.9687499 37.046875,38.984375 Z M45.3359375,40.15625 C44.2838489,40.1354166 43.4609405,39.7473996 42.8671875,38.9921875 C42.2734345,38.2369754 42.023437,37.2708392 42.1171875,36.09375 L42.15625,35.7578125 C42.2447921,34.9192666 42.4934875,34.1536493 42.9023438,33.4609375 C43.3112,32.7682257 43.8098929,32.2460955 44.3984375,31.8945312 C44.9869821,31.542967 45.6223924,31.3749999 46.3046875,31.390625 C47.1744835,31.4114584 47.8567684,31.700518 48.3515625,32.2578125 C48.8463566,32.815107 49.1171873,33.5703077 49.1640625,34.5234375 C49.1796876,34.8619809 49.169271,35.2005191 49.1328125,35.5390625 L49.046875,36.1875 L43.5234375,36.1875 C43.429687,36.9531288 43.5559879,37.604164 43.9023438,38.140625 C44.2486996,38.677086 44.7656216,38.9557291 45.453125,38.9765625 C46.2864625,38.9973959 47.0572881,38.6223997 47.765625,37.8515625 L48.578125,38.5390625 C48.2239566,39.0494817 47.7669299,39.4492173 47.2070312,39.7382812 C46.6471326,40.0273452 46.0234409,40.1666667 45.3359375,40.15625 Z M46.234375,32.5703125 C45.6510387,32.5546874 45.1419293,32.7526021 44.7070312,33.1640625 C44.2721332,33.5755229 43.9270846,34.1874959 43.671875,35 L47.78125,35.0078125 L47.8125,34.8828125 C47.8958338,34.2265592 47.7903661,33.6809918 47.4960938,33.2460938 C47.2018214,32.8111957 46.7812527,32.5859376 46.234375,32.5703125 Z M52.6171875,32.578125 C53.3567745,31.7708293 54.2083285,31.3776041 55.171875,31.3984375 C55.9635456,31.4088542 56.5507793,31.6809869 56.9335938,32.2148438 C57.3164082,32.7487006 57.4583338,33.497391 57.359375,34.4609375 L56.4375,40 L55.0234375,40 L55.953125,34.4375 C55.9843752,34.1822904 55.9869793,33.9453136 55.9609375,33.7265625 C55.8723954,32.9973922 55.4427122,32.6250001 54.671875,32.609375 C53.8072873,32.5885416 53.0625031,33.041662 52.4375,33.96875 L51.390625,40 L49.9765625,40 L52.0625,28 L53.4765625,28 L52.6171875,32.578125 Z M63.296875,31.390625 C64.0052119,31.4010417 64.6119766,31.5937481 65.1171875,31.96875 C65.6223984,32.3437519 65.9960925,32.8606738 66.2382812,33.5195312 C66.48047,34.1783887 66.5625004,34.8984336 66.484375,35.6796875 L66.46875,35.8515625 C66.3697912,36.6744833 66.125002,37.4179654 65.734375,38.0820312 C65.343748,38.7460971 64.8385448,39.263019 64.21875,39.6328125 C63.5989552,40.002606 62.9192745,40.1770834 62.1796875,40.15625 C61.476559,40.1458333 60.8710963,39.9531269 60.3632812,39.578125 C59.8554662,39.2031231 59.4843762,38.6927116 59.25,38.046875 C59.0156238,37.4010384 58.9322913,36.690108 59,35.9140625 C59.0781254,35.0390581 59.3151022,34.2526077 59.7109375,33.5546875 C60.1067728,32.8567673 60.6158823,32.3164082 61.2382812,31.9335938 C61.8606802,31.5507793 62.5468712,31.3697916 63.296875,31.390625 Z M60.421875,35.921875 C60.3854165,36.2500016 60.3854165,36.5911441 60.421875,36.9453125 C60.4739586,37.5598989 60.6575505,38.0494773 60.9726562,38.4140625 C61.287762,38.7786477 61.7083307,38.9687499 62.234375,38.984375 C62.7031273,39.0000001 63.1354147,38.8841158 63.53125,38.6367188 C63.9270853,38.3893217 64.2604153,38.0156275 64.53125,37.515625 C64.8020847,37.0156225 64.9765621,36.4609405 65.0546875,35.8515625 C65.0963544,35.3723934 65.1041668,34.9687516 65.078125,34.640625 C65.0156247,34.0104135 64.8255224,33.5130227 64.5078125,33.1484375 C64.1901026,32.7838523 63.7682318,32.5911459 63.2421875,32.5703125 C62.5130172,32.5546874 61.8932317,32.8411429 61.3828125,33.4296875 C60.8723933,34.0182321 60.5572923,34.7890577 60.4375,35.7421875 L60.421875,35.921875 Z M69.0625,40 L67.65625,40 L69.734375,28 L71.1484375,28 L69.0625,40 Z M71.78125,35.7578125 C71.8854172,34.8984332 72.122394,34.1223993 72.4921875,33.4296875 C72.861981,32.7369757 73.3177056,32.2187517 73.859375,31.875 C74.4010444,31.5312483 74.9973926,31.3671874 75.6484375,31.3828125 C76.5911505,31.4036459 77.3151016,31.7473925 77.8203125,32.4140625 L78.6328125,28 L80.046875,28 L77.96875,40 L76.6796875,40 L76.828125,39.09375 C76.161455,39.8229203 75.3385466,40.1770834 74.359375,40.15625 C73.5781211,40.1354166 72.9557315,39.82943 72.4921875,39.2382812 C72.0286435,38.6471325 71.778646,37.8541716 71.7421875,36.859375 C71.7265624,36.5520818 71.7395831,36.184898 71.78125,35.7578125 Z M73.140625,36.5703125 C73.1249999,37.3151079 73.2578111,37.8932271 73.5390625,38.3046875 C73.8203139,38.7161479 74.2317681,38.9270833 74.7734375,38.9375 C75.5911499,38.9739585 76.3177052,38.5625043 76.953125,37.703125 L77.625,33.796875 C77.3124984,33.0260378 76.7447958,32.6302084 75.921875,32.609375 C75.3645805,32.5937499 74.8737,32.761717 74.4492188,33.1132812 C74.0247375,33.4648455 73.701824,33.9570281 73.4804688,34.5898438 C73.2591135,35.2226594 73.1458334,35.8828091 73.140625,36.5703125 Z M83.859375,40.15625 C82.8072864,40.1354166 81.984378,39.7473996 81.390625,38.9921875 C80.796872,38.2369754 80.5468745,37.2708392 80.640625,36.09375 L80.6796875,35.7578125 C80.7682296,34.9192666 81.016925,34.1536493 81.4257812,33.4609375 C81.8346375,32.7682257 82.3333304,32.2460955 82.921875,31.8945312 C83.5104196,31.542967 84.1458299,31.3749999 84.828125,31.390625 C85.697921,31.4114584 86.3802059,31.700518 86.875,32.2578125 C87.3697941,32.815107 87.6406248,33.5703077 87.6875,34.5234375 C87.7031251,34.8619809 87.6927085,35.2005191 87.65625,35.5390625 L87.5703125,36.1875 L82.046875,36.1875 C81.9531245,36.9531288 82.0794254,37.604164 82.4257812,38.140625 C82.7721371,38.677086 83.2890591,38.9557291 83.9765625,38.9765625 C84.8099,38.9973959 85.5807256,38.6223997 86.2890625,37.8515625 L87.1015625,38.5390625 C86.7473941,39.0494817 86.2903674,39.4492173 85.7304687,39.7382812 C85.1705701,40.0273452 84.5468784,40.1666667 83.859375,40.15625 Z M84.7578125,32.5703125 C84.1744762,32.5546874 83.6653668,32.7526021 83.2304688,33.1640625 C82.7955707,33.5755229 82.4505221,34.1874959 82.1953125,35 L86.3046875,35.0078125 L86.3359375,34.8828125 C86.4192713,34.2265592 86.3138036,33.6809918 86.0195312,33.2460938 C85.7252589,32.8111957 85.3046902,32.5859376 84.7578125,32.5703125 Z M93.7578125,32.8359375 L93.09375,32.765625 C92.1874955,32.765625 91.4739609,33.1744751 90.953125,33.9921875 L89.9140625,40 L88.5,40 L89.96875,31.546875 L91.3359375,31.5390625 L91.125,32.5234375 C91.7239613,31.7369752 92.4296834,31.3541666 93.2421875,31.375 C93.4140634,31.375 93.6380195,31.4140621 93.9140625,31.4921875 L93.7578125,32.8359375 Z" id="Placeholder" fill="#6B6B6B"></path>
            <g id="label" fill="#616161">
                <path d="M2.47460938,10.9267578 L7.19140625,10.9267578 L7.19140625,12 L1.15527344,12 L1.15527344,2.046875 L2.47460938,2.046875 L2.47460938,10.9267578 Z M13.0566406,12 C12.9837236,11.8541659 12.9244794,11.5944029 12.8789062,11.2207031 C12.2910127,11.8313833 11.5891968,12.1367188 10.7734375,12.1367188 C10.0442672,12.1367188 9.44612864,11.9305034 8.97900391,11.5180664 C8.51187917,11.1056294 8.27832031,10.5826855 8.27832031,9.94921875 C8.27832031,9.17903261 8.57112337,8.58089406 9.15673828,8.15478516 C9.74235319,7.72867625 10.5660754,7.515625 11.6279297,7.515625 L12.8583984,7.515625 L12.8583984,6.93457031 C12.8583984,6.49251081 12.7262383,6.14046355 12.4619141,5.87841797 C12.1975898,5.61637239 11.8079453,5.48535156 11.2929688,5.48535156 C10.8417946,5.48535156 10.4635432,5.59928271 10.1582031,5.82714844 C9.85286306,6.05501416 9.70019531,6.33072755 9.70019531,6.65429688 L8.42871094,6.65429688 C8.42871094,6.2851544 8.55973176,5.9285499 8.82177734,5.58447266 C9.08382292,5.24039542 9.43928812,4.96809996 9.88818359,4.76757812 C10.3370791,4.56705629 10.830401,4.46679688 11.3681641,4.46679688 C12.2203819,4.46679688 12.8880184,4.67984813 13.3710938,5.10595703 C13.8541691,5.53206593 14.1048176,6.11881137 14.1230469,6.86621094 L14.1230469,10.2705078 C14.1230469,10.9495477 14.2096346,11.4895813 14.3828125,11.890625 L14.3828125,12 L13.0566406,12 Z M10.9580078,11.0361328 C11.3544942,11.0361328 11.730467,10.9335948 12.0859375,10.7285156 C12.441408,10.5234365 12.6988924,10.2568376 12.8583984,9.92871094 L12.8583984,8.41113281 L11.8671875,8.41113281 C10.3177006,8.41113281 9.54296875,8.8645788 9.54296875,9.77148438 C9.54296875,10.1679707 9.67512889,10.4778635 9.93945312,10.7011719 C10.2037774,10.9244803 10.5432922,11.0361328 10.9580078,11.0361328 Z M22.3671875,8.38378906 C22.3671875,9.51400305 22.1074245,10.4220343 21.5878906,11.1079102 C21.0683568,11.793786 20.3710981,12.1367188 19.4960938,12.1367188 C18.5618443,12.1367188 17.8395208,11.8063184 17.3291016,11.1455078 L17.2675781,12 L16.1054688,12 L16.1054688,1.5 L17.3701172,1.5 L17.3701172,5.41699219 C17.8805364,4.78352548 18.5846309,4.46679688 19.4824219,4.46679688 C20.3802128,4.46679688 21.0854467,4.80631171 21.5981445,5.48535156 C22.1108424,6.16439142 22.3671875,7.09406962 22.3671875,8.27441406 L22.3671875,8.38378906 Z M21.1025391,8.24023438 C21.1025391,7.37890194 20.9361996,6.71354401 20.6035156,6.24414062 C20.2708317,5.77473724 19.7923208,5.54003906 19.1679687,5.54003906 C18.3339802,5.54003906 17.7347023,5.92740498 17.3701172,6.70214844 L17.3701172,9.90136719 C17.7574889,10.6761106 18.361324,11.0634766 19.1816406,11.0634766 C19.7877634,11.0634766 20.2594384,10.8287784 20.5966797,10.359375 C20.933921,9.88997161 21.1025391,9.18359847 21.1025391,8.24023438 Z M27.0292969,12.1367188 C26.0266877,12.1367188 25.2109406,11.8074577 24.5820312,11.1489258 C23.9531219,10.4903938 23.6386719,9.60970604 23.6386719,8.50683594 L23.6386719,8.27441406 C23.6386719,7.54068644 23.7788072,6.88558231 24.059082,6.30908203 C24.3393569,5.73258175 24.73128,5.28141439 25.2348633,4.95556641 C25.7384465,4.62971842 26.2841767,4.46679688 26.8720703,4.46679688 C27.8336637,4.46679688 28.581052,4.78352548 29.1142578,5.41699219 C29.6474636,6.0504589 29.9140625,6.95735087 29.9140625,8.13769531 L29.9140625,8.6640625 L24.9033203,8.6640625 C24.9215496,9.39323281 25.1346008,9.98225687 25.5424805,10.4311523 C25.9503601,10.8800478 26.4687469,11.1044922 27.0976562,11.1044922 C27.5442731,11.1044922 27.9225245,11.0133473 28.2324219,10.8310547 C28.5423193,10.6487621 28.8134754,10.4072281 29.0458984,10.1064453 L29.8183594,10.7080078 C29.1985646,11.6604865 28.2688864,12.1367188 27.0292969,12.1367188 Z M26.8720703,5.50585938 C26.3616511,5.50585938 25.93327,5.69156715 25.5869141,6.06298828 C25.2405582,6.43440941 25.0263676,6.95507478 24.9443359,7.625 L28.6494141,7.625 L28.6494141,7.52929688 C28.6129555,6.88671554 28.4397802,6.3888364 28.1298828,6.03564453 C27.8199854,5.68245266 27.4007188,5.50585938 26.8720703,5.50585938 Z M32.7509766,12 L31.4863281,12 L31.4863281,1.5 L32.7509766,1.5 L32.7509766,12 Z" id="Label"></path>
            </g>
        </g>
        <path d="M248.420985,27.6893252 L248.420985,31.0463804 L247.293592,31.0463804 L247.293592,22.4711656 L250.44677,22.4711656 C251.382355,22.4711656 252.115349,22.7106725 252.645775,23.1896933 C253.1762,23.6687141 253.441409,24.3028181 253.441409,25.0920245 C253.441409,25.9244213 253.182072,26.5653965 252.66339,27.0149693 C252.144708,27.4645421 251.401928,27.6893252 250.435027,27.6893252 L248.420985,27.6893252 Z M248.420985,26.7646626 L250.44677,26.7646626 C251.049616,26.7646626 251.511529,26.6223327 251.832525,26.3376687 C252.15352,26.0530047 252.314016,25.6417205 252.314016,25.1038037 C252.314016,24.5933717 252.15352,24.1850322 251.832525,23.878773 C251.511529,23.5725138 251.071146,23.413497 250.511361,23.4017178 L248.420985,23.4017178 L248.420985,26.7646626 Z M255.889967,31.0463804 L254.803676,31.0463804 L254.803676,22 L255.889967,22 L255.889967,31.0463804 Z M261.550421,31.0463804 C261.487788,30.9207356 261.436899,30.6969341 261.397753,30.3749693 C260.892773,30.9011069 260.289936,31.1641718 259.589226,31.1641718 C258.962894,31.1641718 258.449113,30.9865048 258.047868,30.6311656 C257.646624,30.2758264 257.446005,29.8252788 257.446005,29.2795092 C257.446005,28.6159476 257.697513,28.1006153 258.200536,27.7334969 C258.70356,27.3663785 259.411109,27.1828221 260.323207,27.1828221 L261.380138,27.1828221 L261.380138,26.6822086 C261.380138,26.3013478 261.266617,25.9980379 261.039571,25.7722699 C260.812525,25.5465019 260.477834,25.4336196 260.035486,25.4336196 C259.647943,25.4336196 259.323038,25.5317782 259.060761,25.7280982 C258.798484,25.9244182 258.667347,26.1619618 258.667347,26.4407362 L257.575185,26.4407362 C257.575185,26.1226978 257.687728,25.8154616 257.912816,25.5190184 C258.137904,25.2225752 258.443237,24.9879763 258.828823,24.8152147 C259.214409,24.6424531 259.638156,24.5560736 260.100077,24.5560736 C260.832103,24.5560736 261.40558,24.7396301 261.820526,25.1067485 C262.235471,25.4738669 262.45077,25.9793833 262.466428,26.6233129 L262.466428,29.556319 C262.466428,30.1413526 262.540804,30.606624 262.689558,30.9521472 L262.689558,31.0463804 L261.550421,31.0463804 Z M259.747766,30.2159509 C260.088335,30.2159509 260.411283,30.1276082 260.71662,29.9509202 C261.021957,29.7742322 261.243128,29.5445413 261.380138,29.2618405 L261.380138,27.9543558 L260.528721,27.9543558 C259.197764,27.9543558 258.532295,28.3450268 258.532295,29.1263804 C258.532295,29.4679772 258.645816,29.7349684 258.872862,29.927362 C259.099908,30.1197556 259.391539,30.2159509 259.747766,30.2159509 Z M266.717641,30.2748466 C267.105184,30.2748466 267.443791,30.1570564 267.733469,29.9214724 C268.023148,29.6858884 268.183644,29.3914128 268.21496,29.0380368 L269.242533,29.0380368 C269.22296,29.403192 269.097695,29.7506732 268.866735,30.0804908 C268.635775,30.4103084 268.327506,30.6733733 267.94192,30.8696933 C267.556334,31.0660133 267.148245,31.1641718 266.717641,31.1641718 C265.852519,31.1641718 265.164542,30.8746041 264.653689,30.2954601 C264.142836,29.7163161 263.887414,28.9241768 263.887414,27.9190184 L263.887414,27.7364417 C263.887414,27.1160705 264.000935,26.5644196 264.227981,26.0814724 C264.455026,25.5985252 264.78091,25.2235596 265.205642,24.9565644 C265.630374,24.6895692 266.132411,24.5560736 266.711769,24.5560736 C267.424223,24.5560736 268.016294,24.7700592 268.488001,25.1980368 C268.959708,25.6260144 269.211216,26.1815917 269.242533,26.8647853 L268.21496,26.8647853 C268.183644,26.4525133 268.028042,26.1138664 267.748149,25.8488344 C267.468257,25.5838024 267.1228,25.4512883 266.711769,25.4512883 C266.159813,25.4512883 265.732152,25.6505502 265.428772,26.0490798 C265.125392,26.4476094 264.973704,27.0237999 264.973704,27.7776687 L264.973704,27.9838037 C264.973704,28.7180405 265.124413,29.2834336 265.425836,29.68 C265.727259,30.0765664 266.157856,30.2748466 266.717641,30.2748466 Z M273.100332,31.1641718 C272.239124,31.1641718 271.538425,30.8804936 270.998213,30.3131288 C270.458001,29.745764 270.187899,28.9869986 270.187899,28.0368098 L270.187899,27.8365644 C270.187899,27.204414 270.30827,26.6400025 270.549017,26.1433129 C270.789764,25.6466233 271.126413,25.2579155 271.558974,24.9771779 C271.991535,24.6964403 272.460299,24.5560736 272.96528,24.5560736 C273.791256,24.5560736 274.433237,24.8289543 274.891243,25.3747239 C275.349249,25.9204935 275.578249,26.7018354 275.578249,27.718773 L275.578249,28.1722699 L271.274189,28.1722699 C271.289848,28.8004939 271.472852,29.3079735 271.823207,29.6947239 C272.173561,30.0814743 272.618838,30.2748466 273.15905,30.2748466 C273.542679,30.2748466 273.867584,30.1963198 274.133776,30.0392638 C274.399967,29.8822078 274.632881,29.6741117 274.832525,29.4149693 L275.496043,29.9332515 C274.96366,30.7538691 274.165098,31.1641718 273.100332,31.1641718 Z M272.96528,25.4512883 C272.526847,25.4512883 272.158882,25.6112867 271.861374,25.9312883 C271.563865,26.2512899 271.379883,26.6998744 271.30942,27.2770552 L274.491958,27.2770552 L274.491958,27.1946012 C274.460641,26.6409788 274.31189,26.2120261 274.045698,25.9077301 C273.779507,25.6034341 273.419371,25.4512883 272.96528,25.4512883 Z M277.921113,25.4453988 C278.402606,24.8525124 279.02893,24.5560736 279.800102,24.5560736 C281.142803,24.5560736 281.820015,25.3158206 281.831759,26.8353374 L281.831759,31.0463804 L280.745468,31.0463804 L280.745468,26.8294479 C280.741554,26.3700591 280.63684,26.0304305 280.431325,25.8105521 C280.22581,25.5906737 279.905797,25.4807362 279.471279,25.4807362 C279.118967,25.4807362 278.80972,25.5749684 278.543528,25.7634356 C278.277337,25.9519028 278.069867,26.1992623 277.921113,26.5055215 L277.921113,31.0463804 L276.834823,31.0463804 L276.834823,22 L277.921113,22 L277.921113,25.4453988 Z M283.170539,27.801227 C283.170539,27.1769294 283.292867,26.6154626 283.537529,26.1168098 C283.78219,25.618157 284.122753,25.2333756 284.559229,24.962454 C284.995705,24.6915324 285.493828,24.5560736 286.053612,24.5560736 C286.918735,24.5560736 287.618455,24.8564387 288.152796,25.4571779 C288.687136,26.0579171 288.954302,26.8569275 288.954302,27.8542331 L288.954302,27.9307975 C288.954302,28.5511687 288.835887,29.1077276 288.599055,29.6004908 C288.362223,30.093254 288.023617,30.4770538 287.583227,30.7519018 C287.142837,31.0267498 286.636885,31.1641718 286.065356,31.1641718 C285.204149,31.1641718 284.506385,30.8638067 283.972045,30.2630675 C283.437705,29.6623283 283.170539,28.8672442 283.170539,27.8777914 L283.170539,27.801227 Z M284.262701,27.9307975 C284.262701,28.6375495 284.426132,29.2049058 284.753,29.6328834 C285.079867,30.060861 285.517315,30.2748466 286.065356,30.2748466 C286.617312,30.2748466 287.055738,30.0579163 287.380648,29.6240491 C287.705559,29.1901819 287.868011,28.5825806 287.868011,27.801227 C287.868011,27.1023278 287.702623,26.5359531 287.371841,26.1020859 C287.041059,25.6682187 286.601654,25.4512883 286.053612,25.4512883 C285.517315,25.4512883 285.08476,25.6652739 284.755936,26.0932515 C284.427111,26.5212291 284.262701,27.1337383 284.262701,27.9307975 Z M291.496809,31.0463804 L290.410518,31.0463804 L290.410518,22 L291.496809,22 L291.496809,31.0463804 Z M292.970641,27.8071166 C292.970641,26.829443 293.201598,26.0431932 293.663518,25.4483436 C294.125438,24.853494 294.730232,24.5560736 295.477917,24.5560736 C296.221687,24.5560736 296.810822,24.8112858 297.245341,25.3217178 L297.245341,22 L298.331631,22 L298.331631,31.0463804 L297.333418,31.0463804 L297.280572,30.3631902 C296.846053,30.8971806 296.24126,31.1641718 295.466173,31.1641718 C294.730232,31.1641718 294.130332,30.8618435 293.666454,30.2571779 C293.202576,29.6525123 292.970641,28.8633178 292.970641,27.8895706 L292.970641,27.8071166 Z M294.056931,27.9307975 C294.056931,28.6532551 294.205683,29.2186483 294.503191,29.6269939 C294.800699,30.0353395 295.211724,30.2395092 295.736278,30.2395092 C296.425244,30.2395092 296.92826,29.9293283 297.245341,29.3089571 L297.245341,26.3818405 C296.920431,25.7811013 296.421329,25.4807362 295.748021,25.4807362 C295.215639,25.4807362 294.800699,25.6868691 294.503191,26.0991411 C294.205683,26.5114131 294.056931,27.1219591 294.056931,27.9307975 Z M302.653306,31.1641718 C301.792098,31.1641718 301.091399,30.8804936 300.551187,30.3131288 C300.010975,29.745764 299.740873,28.9869986 299.740873,28.0368098 L299.740873,27.8365644 C299.740873,27.204414 299.861245,26.6400025 300.101991,26.1433129 C300.342738,25.6466233 300.679387,25.2579155 301.111948,24.9771779 C301.544509,24.6964403 302.013273,24.5560736 302.518254,24.5560736 C303.34423,24.5560736 303.986212,24.8289543 304.444218,25.3747239 C304.902223,25.9204935 305.131223,26.7018354 305.131223,27.718773 L305.131223,28.1722699 L300.827164,28.1722699 C300.842822,28.8004939 301.025826,29.3079735 301.376181,29.6947239 C301.726536,30.0814743 302.171812,30.2748466 302.712025,30.2748466 C303.095653,30.2748466 303.420559,30.1963198 303.68675,30.0392638 C303.952942,29.8822078 304.185856,29.6741117 304.385499,29.4149693 L305.049017,29.9332515 C304.516634,30.7538691 303.718072,31.1641718 302.653306,31.1641718 Z M302.518254,25.4512883 C302.079821,25.4512883 301.711856,25.6112867 301.414348,25.9312883 C301.11684,26.2512899 300.932857,26.6998744 300.862395,27.2770552 L304.044932,27.2770552 L304.044932,27.1946012 C304.013616,26.6409788 303.864864,26.2120261 303.598672,25.9077301 C303.332481,25.6034341 302.972345,25.4512883 302.518254,25.4512883 Z M309.458769,25.6515337 C309.294357,25.6240489 309.116246,25.6103067 308.924432,25.6103067 C308.211978,25.6103067 307.728535,25.9145982 307.474087,26.5231902 L307.474087,31.0463804 L306.387797,31.0463804 L306.387797,24.673865 L307.444728,24.673865 L307.462344,25.4100613 C307.81857,24.8407333 308.323544,24.5560736 308.977279,24.5560736 C309.188666,24.5560736 309.349161,24.583558 309.458769,24.6385276 L309.458769,25.6515337 Z M319.276487,23.4017178 L316.528466,23.4017178 L316.528466,31.0463804 L315.406944,31.0463804 L315.406944,23.4017178 L312.664794,23.4017178 L312.664794,22.4711656 L319.276487,22.4711656 L319.276487,23.4017178 Z M322.429666,31.1641718 C321.568458,31.1641718 320.867759,30.8804936 320.327547,30.3131288 C319.787335,29.745764 319.517233,28.9869986 319.517233,28.0368098 L319.517233,27.8365644 C319.517233,27.204414 319.637604,26.6400025 319.878351,26.1433129 C320.119097,25.6466233 320.455746,25.2579155 320.888307,24.9771779 C321.320868,24.6964403 321.789632,24.5560736 322.294613,24.5560736 C323.12059,24.5560736 323.762571,24.8289543 324.220577,25.3747239 C324.678583,25.9204935 324.907582,26.7018354 324.907582,27.718773 L324.907582,28.1722699 L320.603523,28.1722699 C320.619181,28.8004939 320.802185,29.3079735 321.15254,29.6947239 C321.502895,30.0814743 321.948172,30.2748466 322.488384,30.2748466 C322.872013,30.2748466 323.196918,30.1963198 323.46311,30.0392638 C323.729301,29.8822078 323.962215,29.6741117 324.161859,29.4149693 L324.825377,29.9332515 C324.292994,30.7538691 323.494431,31.1641718 322.429666,31.1641718 Z M322.294613,25.4512883 C321.85618,25.4512883 321.488215,25.6112867 321.190707,25.9312883 C320.893199,26.2512899 320.709217,26.6998744 320.638754,27.2770552 L323.821292,27.2770552 L323.821292,27.1946012 C323.789975,26.6409788 323.641223,26.2120261 323.375032,25.9077301 C323.10884,25.6034341 322.748705,25.4512883 322.294613,25.4512883 Z M328.295634,27.0002454 L329.704876,24.673865 L330.973194,24.673865 L328.894562,27.8247853 L331.037784,31.0463804 L329.78121,31.0463804 L328.31325,28.6611043 L326.84529,31.0463804 L325.582844,31.0463804 L327.726066,27.8247853 L325.647434,24.673865 L326.904008,24.673865 L328.295634,27.0002454 Z M333.597907,23.1307975 L333.597907,24.673865 L334.784018,24.673865 L334.784018,25.5160736 L333.597907,25.5160736 L333.597907,29.4679755 C333.597907,29.7231915 333.650753,29.9146006 333.756446,30.0422086 C333.86214,30.1698166 334.042208,30.2336196 334.296656,30.2336196 C334.421922,30.2336196 334.594161,30.2100616 334.813378,30.1629448 L334.813378,31.0463804 C334.527613,31.1249084 334.249682,31.1641718 333.979576,31.1641718 C333.494168,31.1641718 333.128161,31.016934 332.881542,30.722454 C332.634923,30.427974 332.511616,30.0098187 332.511616,29.4679755 L332.511616,25.5160736 L331.354863,25.5160736 L331.354863,24.673865 L332.511616,24.673865 L332.511616,23.1307975 L333.597907,23.1307975 Z M252.00868,45.3521472 L248.420985,45.3521472 L248.420985,49.1391411 L247.293592,49.1391411 L247.293592,40.5639264 L252.589992,40.5639264 L252.589992,41.4944785 L248.420985,41.4944785 L248.420985,44.4274847 L252.00868,44.4274847 L252.00868,45.3521472 Z M253.359203,45.8939877 C253.359203,45.2696901 253.481532,44.7082234 253.726194,44.2095706 C253.970855,43.7109178 254.311418,43.3261363 254.747894,43.0552147 C255.184369,42.7842931 255.682492,42.6488344 256.242277,42.6488344 C257.107399,42.6488344 257.80712,42.9491995 258.34146,43.5499387 C258.8758,44.1506779 259.142967,44.9496883 259.142967,45.9469939 L259.142967,46.0235583 C259.142967,46.6439295 259.024552,47.2004883 258.78772,47.6932515 C258.550888,48.1860147 258.212282,48.5698146 257.771892,48.8446626 C257.331501,49.1195106 256.82555,49.2569325 256.254021,49.2569325 C255.392813,49.2569325 254.69505,48.9565674 254.16071,48.3558282 C253.62637,47.755089 253.359203,46.9600049 253.359203,45.9705521 L253.359203,45.8939877 Z M254.451366,46.0235583 C254.451366,46.7303103 254.614797,47.2976666 254.941665,47.7256442 C255.268532,48.1536218 255.70598,48.3676074 256.254021,48.3676074 C256.805977,48.3676074 257.244403,48.150677 257.569313,47.7168098 C257.894223,47.2829426 258.056676,46.6753413 258.056676,45.8939877 C258.056676,45.1950885 257.891288,44.6287138 257.560505,44.1948466 C257.229723,43.7609794 256.790318,43.5440491 256.242277,43.5440491 C255.70598,43.5440491 255.273425,43.7580347 254.9446,44.1860123 C254.615776,44.6139899 254.451366,45.2264991 254.451366,46.0235583 Z M261.532806,42.7666258 L261.568037,43.5676074 C262.053445,42.955089 262.687597,42.6488344 263.470513,42.6488344 C264.813214,42.6488344 265.490426,43.4085814 265.50217,44.9280982 L265.50217,49.1391411 L264.415879,49.1391411 L264.415879,44.9222086 C264.411965,44.4628198 264.307251,44.1231913 264.101736,43.9033129 C263.896221,43.6834345 263.576208,43.5734969 263.14169,43.5734969 C262.789378,43.5734969 262.480131,43.6677291 262.213939,43.8561963 C261.947748,44.0446635 261.740278,44.292023 261.591524,44.5982822 L261.591524,49.1391411 L260.505234,49.1391411 L260.505234,42.7666258 L261.532806,42.7666258 Z M268.614246,41.2235583 L268.614246,42.7666258 L269.800357,42.7666258 L269.800357,43.6088344 L268.614246,43.6088344 L268.614246,47.5607362 C268.614246,47.8159522 268.667092,48.0073613 268.772785,48.1349693 C268.878479,48.2625773 269.058547,48.3263804 269.312995,48.3263804 C269.438261,48.3263804 269.6105,48.3028223 269.829717,48.2557055 L269.829717,49.1391411 C269.543952,49.2176691 269.266021,49.2569325 268.995915,49.2569325 C268.510507,49.2569325 268.1445,49.1096947 267.897881,48.8152147 C267.651262,48.5207347 267.527955,48.1025794 267.527955,47.5607362 L267.527955,43.6088344 L266.371202,43.6088344 L266.371202,42.7666258 L267.527955,42.7666258 L267.527955,41.2235583 L268.614246,41.2235583 Z M271.033444,48.5678528 C271.033444,48.3793856 271.089226,48.2223319 271.200791,48.0966871 C271.312357,47.9710423 271.479703,47.9082209 271.702834,47.9082209 C271.925965,47.9082209 272.095268,47.9710423 272.210748,48.0966871 C272.326228,48.2223319 272.383967,48.3793856 272.383967,48.5678528 C272.383967,48.7484672 272.326228,48.8996313 272.210748,49.0213497 C272.095268,49.1430681 271.925965,49.2039264 271.702834,49.2039264 C271.479703,49.2039264 271.312357,49.1430681 271.200791,49.0213497 C271.089226,48.8996313 271.033444,48.7484672 271.033444,48.5678528 Z M271.039316,43.367362 C271.039316,43.1788948 271.095098,43.0218411 271.206663,42.8961963 C271.318229,42.7705515 271.485575,42.7077301 271.708706,42.7077301 C271.931837,42.7077301 272.10114,42.7705515 272.21662,42.8961963 C272.3321,43.0218411 272.389839,43.1788948 272.389839,43.367362 C272.389839,43.5479764 272.3321,43.6991405 272.21662,43.8208589 C272.10114,43.9425773 271.931837,44.0034356 271.708706,44.0034356 C271.485575,44.0034356 271.318229,43.9425773 271.206663,43.8208589 C271.095098,43.6991405 271.039316,43.5479764 271.039316,43.367362 Z M280.263978,45.670184 L278.255808,45.670184 L278.255808,49.1391411 L277.122543,49.1391411 L277.122543,40.5639264 L279.95277,40.5639264 C280.915757,40.5639264 281.65658,40.7838015 282.175262,41.2235583 C282.693944,41.6633151 282.953281,42.3033087 282.953281,43.1435583 C282.953281,43.6775487 282.809422,44.1428201 282.5217,44.5393865 C282.233979,44.9359529 281.833719,45.2323917 281.320909,45.4287117 L283.329078,49.0684663 L283.329078,49.1391411 L282.119479,49.1391411 L280.263978,45.670184 Z M278.255808,44.7455215 L279.988001,44.7455215 C280.547786,44.7455215 280.993063,44.6002469 281.323845,44.3096933 C281.654627,44.0191397 281.820015,43.6304319 281.820015,43.1435583 C281.820015,42.6134943 281.662456,42.207118 281.347332,41.9244172 C281.032208,41.6417164 280.577145,41.4984049 279.982129,41.4944785 L278.255808,41.4944785 L278.255808,44.7455215 Z M284.074802,45.8939877 C284.074802,45.2696901 284.197131,44.7082234 284.441792,44.2095706 C284.686453,43.7109178 285.027017,43.3261363 285.463492,43.0552147 C285.899968,42.7842931 286.398091,42.6488344 286.957876,42.6488344 C287.822998,42.6488344 288.522719,42.9491995 289.057059,43.5499387 C289.591399,44.1506779 289.858565,44.9496883 289.858565,45.9469939 L289.858565,46.0235583 C289.858565,46.6439295 289.740151,47.2004883 289.503319,47.6932515 C289.266487,48.1860147 288.927881,48.5698146 288.48749,48.8446626 C288.0471,49.1195106 287.541148,49.2569325 286.96962,49.2569325 C286.108412,49.2569325 285.410649,48.9565674 284.876308,48.3558282 C284.341968,47.755089 284.074802,46.9600049 284.074802,45.9705521 L284.074802,45.8939877 Z M285.166965,46.0235583 C285.166965,46.7303103 285.330396,47.2976666 285.657263,47.7256442 C285.984131,48.1536218 286.421578,48.3676074 286.96962,48.3676074 C287.521575,48.3676074 287.960002,48.150677 288.284912,47.7168098 C288.609822,47.2829426 288.772275,46.6753413 288.772275,45.8939877 C288.772275,45.1950885 288.606886,44.6287138 288.276104,44.1948466 C287.945322,43.7609794 287.505917,43.5440491 286.957876,43.5440491 C286.421578,43.5440491 285.989024,43.7580347 285.660199,44.1860123 C285.331374,44.6139899 285.166965,45.2264991 285.166965,46.0235583 Z M296.599438,46.0235583 C296.599438,46.9973055 296.376311,47.7796289 295.930049,48.3705521 C295.483786,48.9614753 294.884865,49.2569325 294.133265,49.2569325 C293.330776,49.2569325 292.710325,48.9722728 292.271892,48.4029448 L292.219045,49.1391411 L291.220832,49.1391411 L291.220832,40.0927607 L292.307123,40.0927607 L292.307123,43.4674847 C292.745556,42.9217151 293.350349,42.6488344 294.121522,42.6488344 C294.892694,42.6488344 295.498466,42.9413468 295.938856,43.5263804 C296.379247,44.111414 296.599438,44.9123876 296.599438,45.9293252 L296.599438,46.0235583 Z M295.513148,45.8998773 C295.513148,45.1577877 295.370268,44.5845419 295.084503,44.1801227 C294.798739,43.7757035 294.387714,43.5734969 293.851417,43.5734969 C293.135049,43.5734969 292.620289,43.9072359 292.307123,44.5747239 L292.307123,47.3310429 C292.639862,47.9985309 293.158536,48.3322699 293.863161,48.3322699 C294.3838,48.3322699 294.788953,48.1300634 295.078632,47.7256442 C295.368311,47.321225 295.513148,46.7126421 295.513148,45.8998773 Z M297.679857,45.8939877 C297.679857,45.2696901 297.802186,44.7082234 298.046847,44.2095706 C298.291508,43.7109178 298.632072,43.3261363 299.068547,43.0552147 C299.505023,42.7842931 300.003146,42.6488344 300.562931,42.6488344 C301.428053,42.6488344 302.127774,42.9491995 302.662114,43.5499387 C303.196454,44.1506779 303.46362,44.9496883 303.46362,45.9469939 L303.46362,46.0235583 C303.46362,46.6439295 303.345206,47.2004883 303.108374,47.6932515 C302.871542,48.1860147 302.532936,48.5698146 302.092545,48.8446626 C301.652155,49.1195106 301.146203,49.2569325 300.574674,49.2569325 C299.713467,49.2569325 299.015703,48.9565674 298.481363,48.3558282 C297.947023,47.755089 297.679857,46.9600049 297.679857,45.9705521 L297.679857,45.8939877 Z M298.772019,46.0235583 C298.772019,46.7303103 298.935451,47.2976666 299.262318,47.7256442 C299.589186,48.1536218 300.026633,48.3676074 300.574674,48.3676074 C301.12663,48.3676074 301.565057,48.150677 301.889967,47.7168098 C302.214877,47.2829426 302.37733,46.6753413 302.37733,45.8939877 C302.37733,45.1950885 302.211941,44.6287138 301.881159,44.1948466 C301.550377,43.7609794 301.110972,43.5440491 300.562931,43.5440491 C300.026633,43.5440491 299.594079,43.7580347 299.265254,44.1860123 C298.936429,44.6139899 298.772019,45.2264991 298.772019,46.0235583 Z M306.299719,41.2235583 L306.299719,42.7666258 L307.485831,42.7666258 L307.485831,43.6088344 L306.299719,43.6088344 L306.299719,47.5607362 C306.299719,47.8159522 306.352565,48.0073613 306.458259,48.1349693 C306.563953,48.2625773 306.744021,48.3263804 306.998468,48.3263804 C307.123735,48.3263804 307.295974,48.3028223 307.51519,48.2557055 L307.51519,49.1391411 C307.229426,49.2176691 306.951495,49.2569325 306.681389,49.2569325 C306.195981,49.2569325 305.829973,49.1096947 305.583355,48.8152147 C305.336736,48.5207347 305.213429,48.1025794 305.213429,47.5607362 L305.213429,43.6088344 L304.056676,43.6088344 L304.056676,42.7666258 L305.213429,42.7666258 L305.213429,41.2235583 L306.299719,41.2235583 Z M308.348992,45.8939877 C308.348992,45.2696901 308.47132,44.7082234 308.715982,44.2095706 C308.960643,43.7109178 309.301206,43.3261363 309.737682,43.0552147 C310.174158,42.7842931 310.67228,42.6488344 311.232065,42.6488344 C312.097188,42.6488344 312.796908,42.9491995 313.331248,43.5499387 C313.865589,44.1506779 314.132755,44.9496883 314.132755,45.9469939 L314.132755,46.0235583 C314.132755,46.6439295 314.01434,47.2004883 313.777508,47.6932515 C313.540676,48.1860147 313.20207,48.5698146 312.76168,48.8446626 C312.32129,49.1195106 311.815338,49.2569325 311.243809,49.2569325 C310.382601,49.2569325 309.684838,48.9565674 309.150498,48.3558282 C308.616158,47.755089 308.348992,46.9600049 308.348992,45.9705521 L308.348992,45.8939877 Z M309.441154,46.0235583 C309.441154,46.7303103 309.604585,47.2976666 309.931453,47.7256442 C310.25832,48.1536218 310.695768,48.3676074 311.243809,48.3676074 C311.795765,48.3676074 312.234191,48.150677 312.559101,47.7168098 C312.884011,47.2829426 313.046464,46.6753413 313.046464,45.8939877 C313.046464,45.1950885 312.881076,44.6287138 312.550294,44.1948466 C312.219512,43.7609794 311.780107,43.5440491 311.232065,43.5440491 C310.695768,43.5440491 310.263213,43.7580347 309.934389,44.1860123 C309.605564,44.6139899 309.441154,45.2264991 309.441154,46.0235583 Z M319.851927,49.1391411 L318.724534,49.1391411 L318.724534,40.5639264 L319.851927,40.5639264 L319.851927,49.1391411 Z M323.216492,41.2235583 L323.216492,42.7666258 L324.402604,42.7666258 L324.402604,43.6088344 L323.216492,43.6088344 L323.216492,47.5607362 C323.216492,47.8159522 323.269338,48.0073613 323.375032,48.1349693 C323.480726,48.2625773 323.660794,48.3263804 323.915241,48.3263804 C324.040508,48.3263804 324.212747,48.3028223 324.431963,48.2557055 L324.431963,49.1391411 C324.146199,49.2176691 323.868268,49.2569325 323.598162,49.2569325 C323.112754,49.2569325 322.746746,49.1096947 322.500128,48.8152147 C322.253509,48.5207347 322.130202,48.1025794 322.130202,47.5607362 L322.130202,43.6088344 L320.973449,43.6088344 L320.973449,42.7666258 L322.130202,42.7666258 L322.130202,41.2235583 L323.216492,41.2235583 Z M329.593311,49.1391411 C329.530678,49.0134963 329.479789,48.7896949 329.440643,48.4677301 C328.935663,48.9938677 328.332826,49.2569325 327.632116,49.2569325 C327.005784,49.2569325 326.492003,49.0792656 326.090758,48.7239264 C325.689514,48.3685872 325.488895,47.9180395 325.488895,47.3722699 C325.488895,46.7087083 325.740403,46.1933761 326.243426,45.8262577 C326.74645,45.4591393 327.453999,45.2755828 328.366097,45.2755828 L329.423028,45.2755828 L329.423028,44.7749693 C329.423028,44.3941085 329.309507,44.0907987 329.082461,43.8650307 C328.855415,43.6392627 328.520724,43.5263804 328.078376,43.5263804 C327.690833,43.5263804 327.365928,43.6245389 327.103651,43.8208589 C326.841374,44.0171789 326.710237,44.2547225 326.710237,44.5334969 L325.618075,44.5334969 C325.618075,44.2154585 325.730618,43.9082223 325.955706,43.6117791 C326.180794,43.3153359 326.486127,43.0807371 326.871713,42.9079755 C327.257299,42.7352139 327.681046,42.6488344 328.142967,42.6488344 C328.874993,42.6488344 329.44847,42.8323908 329.863416,43.1995092 C330.278361,43.5666276 330.49366,44.072144 330.509318,44.7160736 L330.509318,47.6490798 C330.509318,48.2341134 330.583694,48.6993848 330.732448,49.044908 L330.732448,49.1391411 L329.593311,49.1391411 Z M327.790656,48.3087117 C328.131225,48.3087117 328.454173,48.220369 328.75951,48.043681 C329.064847,47.866993 329.286018,47.637302 329.423028,47.3546012 L329.423028,46.0471166 L328.571611,46.0471166 C327.240654,46.0471166 326.575185,46.4377875 326.575185,47.2191411 C326.575185,47.5607379 326.688706,47.8277291 326.915752,48.0201227 C327.142797,48.2125163 327.434429,48.3087117 327.790656,48.3087117 Z M333.392392,49.1391411 L332.306102,49.1391411 L332.306102,40.0927607 L333.392392,40.0927607 L333.392392,49.1391411 Z M336.310697,49.1391411 L335.224406,49.1391411 L335.224406,42.7666258 L336.310697,42.7666258 L336.310697,49.1391411 Z M335.136329,41.076319 C335.136329,40.899631 335.190153,40.7504301 335.297804,40.6287117 C335.405455,40.5069933 335.564972,40.446135 335.776359,40.446135 C335.987747,40.446135 336.148242,40.5069933 336.25785,40.6287117 C336.367459,40.7504301 336.422262,40.899631 336.422262,41.076319 C336.422262,41.253007 336.367459,41.4002448 336.25785,41.5180368 C336.148242,41.6358288 335.987747,41.6947239 335.776359,41.6947239 C335.564972,41.6947239 335.405455,41.6358288 335.297804,41.5180368 C335.190153,41.4002448 335.136329,41.253007 335.136329,41.076319 Z M340.597141,48.3676074 C340.984684,48.3676074 341.32329,48.2498171 341.612969,48.0142331 C341.902648,47.7786491 342.063143,47.4841735 342.09446,47.1307975 L343.122032,47.1307975 C343.102459,47.4959527 342.977195,47.8434339 342.746234,48.1732515 C342.515274,48.5030691 342.207006,48.766134 341.821419,48.962454 C341.435833,49.158774 341.027744,49.2569325 340.597141,49.2569325 C339.732018,49.2569325 339.044041,48.9673649 338.533189,48.3882209 C338.022336,47.8090769 337.766913,47.0169375 337.766913,46.0117791 L337.766913,45.8292025 C337.766913,45.2088313 337.880435,44.6571803 338.10748,44.1742331 C338.334526,43.6912859 338.66041,43.3163204 339.085142,43.0493252 C339.509874,42.78233 340.011911,42.6488344 340.591269,42.6488344 C341.303722,42.6488344 341.895794,42.8628199 342.367501,43.2907975 C342.839208,43.7187751 343.090716,44.2743524 343.122032,44.957546 L342.09446,44.957546 C342.063143,44.545274 341.907541,44.2066271 341.627649,43.9415951 C341.347756,43.6765631 341.0023,43.5440491 340.591269,43.5440491 C340.039313,43.5440491 339.611652,43.7433109 339.308272,44.1418405 C339.004892,44.5403701 338.853204,45.1165606 338.853204,45.8704294 L338.853204,46.0765644 C338.853204,46.8108012 339.003913,47.3761943 339.305336,47.7727607 C339.606758,48.1693271 340.037356,48.3676074 340.597141,48.3676074 Z M344.308144,50.8471166 L343.691601,50.4230675 C344.059571,49.9087091 344.251383,49.378653 344.267041,48.8328834 L344.267041,47.8493252 L345.329844,47.8493252 L345.329844,48.7033129 C345.329844,49.0998793 345.23296,49.4964397 345.039188,49.8930061 C344.845416,50.2895725 344.601737,50.6076062 344.308144,50.8471166 Z M353.139392,49.1391411 L352.04723,49.1391411 L352.04723,41.8773006 L349.857033,42.6841718 L349.857033,41.6947239 L352.969109,40.5226994 L353.139392,40.5226994 L353.139392,49.1391411 Z M360.584886,40.5580368 L360.584886,41.4826994 L360.385244,41.4826994 C359.539695,41.498405 358.866397,41.7496908 358.365331,42.2365644 C357.864264,42.723438 357.57459,43.4085845 357.496298,44.2920245 C357.946475,43.7737397 358.561055,43.5146012 359.340056,43.5146012 C360.083826,43.5146012 360.677855,43.7776661 361.12216,44.3038037 C361.566465,44.8299413 361.788614,45.5091983 361.788614,46.3415951 C361.788614,47.2250351 361.548849,47.9317765 361.069313,48.4618405 C360.589777,48.9919045 359.946817,49.2569325 359.140414,49.2569325 C358.322266,49.2569325 357.658755,48.9418436 357.14986,48.3116564 C356.640964,47.6814692 356.38652,46.8696982 356.38652,45.876319 L356.38652,45.4581595 C356.38652,43.8797467 356.72219,42.6733784 357.393541,41.8390184 C358.064891,41.0046584 359.064073,40.5776688 360.391116,40.5580368 L360.584886,40.5580368 Z M359.158029,44.4215951 C358.786144,44.4215951 358.443623,44.5334958 358.130457,44.7573006 C357.817291,44.9811054 357.600035,45.2618388 357.478683,45.5995092 L357.478683,46 C357.478683,46.706752 357.637221,47.2760715 357.954302,47.7079755 C358.271383,48.1398795 358.666749,48.3558282 359.140414,48.3558282 C359.629736,48.3558282 360.014338,48.1752165 360.29423,47.8139877 C360.574123,47.4527589 360.714067,46.9796348 360.714067,46.3946012 C360.714067,45.8056412 360.572165,45.3295724 360.288358,44.9663804 C360.004551,44.6031884 359.627779,44.4215951 359.158029,44.4215951 Z M368.552974,46.0235583 C368.552974,46.9933791 368.331804,47.774721 367.889456,48.3676074 C367.447109,48.9604938 366.848187,49.2569325 366.092673,49.2569325 C365.321501,49.2569325 364.71475,49.0115362 364.272402,48.5207362 L364.272402,51.5892025 L363.186112,51.5892025 L363.186112,42.7666258 L364.178453,42.7666258 L364.231299,43.4733742 C364.673647,42.9236782 365.288227,42.6488344 366.075057,42.6488344 C366.838401,42.6488344 367.442215,42.9374204 367.88652,43.5146012 C368.330825,44.091782 368.552974,44.8947188 368.552974,45.9234356 L368.552974,46.0235583 Z M367.466684,45.8998773 C367.466684,45.1813461 367.314017,44.6139898 367.00868,44.1977914 C366.703343,43.781593 366.284489,43.5734969 365.752106,43.5734969 C365.094457,43.5734969 364.601227,43.8660093 364.272402,44.4510429 L364.272402,47.4959509 C364.597312,48.0770581 365.094457,48.3676074 365.76385,48.3676074 C366.284489,48.3676074 366.69845,48.1604929 367.005744,47.7462577 C367.313039,47.3320225 367.466684,46.7165685 367.466684,45.8998773 Z M371.976257,45.0930061 L373.385499,42.7666258 L374.653817,42.7666258 L372.575185,45.917546 L374.718407,49.1391411 L373.461833,49.1391411 L371.993873,46.753865 L370.525913,49.1391411 L369.263467,49.1391411 L371.406689,45.917546 L369.328057,42.7666258 L370.584631,42.7666258 L371.976257,45.0930061 Z M253.582333,64.5109202 C253.47664,65.4179186 253.142927,66.1177889 252.581185,66.6105521 C252.019442,67.1033153 251.272747,67.3496933 250.341077,67.3496933 C249.331116,67.3496933 248.521788,66.9865067 247.913071,66.2601227 C247.304354,65.5337387 247,64.5619693 247,63.3447853 L247,62.5202454 C247,61.7231862 247.141901,61.0223343 247.425708,60.4176687 C247.709516,59.8130031 248.111733,59.3487133 248.632372,59.0247853 C249.153011,58.7008573 249.755847,58.5388957 250.440899,58.5388957 C251.349081,58.5388957 252.077182,58.7931263 252.625223,59.3015951 C253.173265,59.8100639 253.492298,60.5138605 253.582333,61.4130061 L252.449068,61.4130061 C252.351204,60.7298125 252.138841,60.2350936 251.811973,59.9288344 C251.485106,59.6225752 251.028086,59.4694479 250.440899,59.4694479 C249.720616,59.4694479 249.155946,59.736439 248.746873,60.2704294 C248.337799,60.8044198 248.133265,61.5641669 248.133265,62.5496933 L248.133265,63.3801227 C248.133265,64.3106795 248.327034,65.0507948 248.714577,65.6004908 C249.102121,66.1501868 249.644282,66.4250307 250.341077,66.4250307 C250.96741,66.4250307 251.447918,66.2827008 251.782614,65.9980368 C252.117311,65.7133728 252.33946,65.2176722 252.449068,64.5109202 L253.582333,64.5109202 Z M254.662752,63.9867485 C254.662752,63.3624509 254.785081,62.8009841 255.029742,62.3023313 C255.274403,61.8036785 255.614967,61.4188971 256.051442,61.1479755 C256.487918,60.8770539 256.986041,60.7415951 257.545826,60.7415951 C258.410948,60.7415951 259.110669,61.0419602 259.645009,61.6426994 C260.179349,62.2434386 260.446515,63.042449 260.446515,64.0397546 L260.446515,64.116319 C260.446515,64.7366902 260.328101,65.2932491 260.091269,65.7860123 C259.854437,66.2787755 259.515831,66.6625753 259.07544,66.9374233 C258.63505,67.2122713 258.129098,67.3496933 257.55757,67.3496933 C256.696362,67.3496933 255.998599,67.0493282 255.464258,66.448589 C254.929918,65.8478498 254.662752,65.0527657 254.662752,64.0633129 L254.662752,63.9867485 Z M255.754914,64.116319 C255.754914,64.823071 255.918346,65.3904273 256.245213,65.8184049 C256.572081,66.2463825 257.009528,66.4603681 257.55757,66.4603681 C258.109525,66.4603681 258.547952,66.2434378 258.872862,65.8095706 C259.197772,65.3757034 259.360225,64.7681021 259.360225,63.9867485 C259.360225,63.2878493 259.194836,62.7214746 258.864054,62.2876074 C258.533272,61.8537402 258.093867,61.6368098 257.545826,61.6368098 C257.009528,61.6368098 256.576974,61.8507954 256.248149,62.278773 C255.919324,62.7067506 255.754914,63.3192598 255.754914,64.116319 Z M262.989022,67.2319018 L261.902732,67.2319018 L261.902732,58.1855215 L262.989022,58.1855215 L262.989022,67.2319018 Z M264.439367,63.9867485 C264.439367,63.3624509 264.561696,62.8009841 264.806357,62.3023313 C265.051018,61.8036785 265.391582,61.4188971 265.828057,61.1479755 C266.264533,60.8770539 266.762656,60.7415951 267.322441,60.7415951 C268.187563,60.7415951 268.887284,61.0419602 269.421624,61.6426994 C269.955964,62.2434386 270.22313,63.042449 270.22313,64.0397546 L270.22313,64.116319 C270.22313,64.7366902 270.104716,65.2932491 269.867884,65.7860123 C269.631051,66.2787755 269.292445,66.6625753 268.852055,66.9374233 C268.411665,67.2122713 267.905713,67.3496933 267.334184,67.3496933 C266.472977,67.3496933 265.775213,67.0493282 265.240873,66.448589 C264.706533,65.8478498 264.439367,65.0527657 264.439367,64.0633129 L264.439367,63.9867485 Z M265.531529,64.116319 C265.531529,64.823071 265.69496,65.3904273 266.021828,65.8184049 C266.348695,66.2463825 266.786143,66.4603681 267.334184,66.4603681 C267.88614,66.4603681 268.324566,66.2434378 268.649477,65.8095706 C268.974387,65.3757034 269.136839,64.7681021 269.136839,63.9867485 C269.136839,63.2878493 268.971451,62.7214746 268.640669,62.2876074 C268.309887,61.8537402 267.870482,61.6368098 267.322441,61.6368098 C266.786143,61.6368098 266.353589,61.8507954 266.024764,62.278773 C265.695939,62.7067506 265.531529,63.3192598 265.531529,64.116319 Z M274.65637,61.8370552 C274.491957,61.8095704 274.313847,61.7958282 274.122032,61.7958282 C273.409579,61.7958282 272.926135,62.1001197 272.671688,62.7087117 L272.671688,67.2319018 L271.585397,67.2319018 L271.585397,60.8593865 L272.642328,60.8593865 L272.659944,61.5955828 C273.016171,61.0262548 273.521144,60.7415951 274.174879,60.7415951 C274.386266,60.7415951 274.546761,60.7690795 274.65637,60.8240491 L274.65637,61.8370552 Z M275.619352,66.6606135 C275.619352,66.4721463 275.675133,66.3150927 275.786699,66.1894479 C275.898265,66.0638031 276.06561,66.0009816 276.288741,66.0009816 C276.511872,66.0009816 276.681175,66.0638031 276.796656,66.1894479 C276.912136,66.3150927 276.969875,66.4721463 276.969875,66.6606135 C276.969875,66.8412279 276.912136,66.992392 276.796656,67.1141104 C276.681175,67.2358288 276.511872,67.2966871 276.288741,67.2966871 C276.06561,67.2966871 275.898265,67.2358288 275.786699,67.1141104 C275.675133,66.992392 275.619352,66.8412279 275.619352,66.6606135 Z M275.625223,61.4601227 C275.625223,61.2716555 275.681005,61.1146019 275.792571,60.9889571 C275.904136,60.8633123 276.071482,60.8004908 276.294613,60.8004908 C276.517744,60.8004908 276.687047,60.8633123 276.802527,60.9889571 C276.918008,61.1146019 276.975747,61.2716555 276.975747,61.4601227 C276.975747,61.6407371 276.918008,61.7919012 276.802527,61.9136196 C276.687047,62.035338 276.517744,62.0961963 276.294613,62.0961963 C276.071482,62.0961963 275.904136,62.035338 275.792571,61.9136196 C275.681005,61.7919012 275.625223,61.6407371 275.625223,61.4601227 Z M285.213939,64.8171779 L283.663773,64.8171779 L283.194026,67.2319018 L282.354353,67.2319018 L282.8241,64.8171779 L281.42073,64.8171779 L281.42073,64.0103067 L282.976768,64.0103067 L283.381925,61.9253988 L281.86699,61.9253988 L281.86699,61.1067485 L283.540465,61.1067485 L284.021956,58.6566871 L284.861629,58.6566871 L284.380138,61.1067485 L285.930304,61.1067485 L286.411795,58.6566871 L287.25734,58.6566871 L286.775849,61.1067485 L287.973704,61.1067485 L287.973704,61.9253988 L286.617309,61.9253988 L286.212152,64.0103067 L287.533316,64.0103067 L287.533316,64.8171779 L286.059484,64.8171779 L285.589737,67.2319018 L284.744192,67.2319018 L285.213939,64.8171779 Z M283.816441,64.0103067 L285.366607,64.0103067 L285.771764,61.9253988 L284.221598,61.9253988 L283.816441,64.0103067 Z M293.099821,58.6507975 L293.099821,59.5754601 L292.900179,59.5754601 C292.054629,59.5911657 291.381332,59.8424516 290.880266,60.3293252 C290.379199,60.8161988 290.089525,61.5013453 290.011233,62.3847853 C290.46141,61.8665005 291.07599,61.607362 291.854991,61.607362 C292.598761,61.607362 293.19279,61.8704268 293.637095,62.3965644 C294.0814,62.922702 294.303549,63.601959 294.303549,64.4343558 C294.303549,65.3177958 294.063784,66.0245372 293.584248,66.5546012 C293.104712,67.0846652 292.461752,67.3496933 291.655348,67.3496933 C290.837201,67.3496933 290.17369,67.0346044 289.664794,66.4044172 C289.155899,65.77423 288.901455,64.962459 288.901455,63.9690798 L288.901455,63.5509202 C288.901455,61.9725074 289.237125,60.7661391 289.908476,59.9317791 C290.579826,59.0974191 291.579008,58.6704295 292.906051,58.6507975 L293.099821,58.6507975 Z M291.672964,62.5143558 C291.301079,62.5143558 290.958558,62.6262565 290.645392,62.8500613 C290.332225,63.0738661 290.11497,63.3545995 289.993618,63.6922699 L289.993618,64.0927607 C289.993618,64.7995127 290.152156,65.3688322 290.469237,65.8007362 C290.786318,66.2326402 291.181684,66.448589 291.655348,66.448589 C292.144671,66.448589 292.529273,66.2679773 292.809165,65.9067485 C293.089058,65.5455197 293.229002,65.0723956 293.229002,64.487362 C293.229002,63.898402 293.0871,63.4223331 292.803293,63.0591411 C292.519486,62.6959491 292.142714,62.5143558 291.672964,62.5143558 Z M301.079653,64.116319 C301.079653,65.0900662 300.856525,65.8723897 300.410263,66.4633129 C299.964001,67.0542361 299.365079,67.3496933 298.61348,67.3496933 C297.810991,67.3496933 297.190539,67.0650335 296.752106,66.4957055 L296.69926,67.2319018 L295.701047,67.2319018 L295.701047,58.1855215 L296.787337,58.1855215 L296.787337,61.5602454 C297.22577,61.0144758 297.830564,60.7415951 298.601736,60.7415951 C299.372908,60.7415951 299.97868,61.0341075 300.419071,61.6191411 C300.859461,62.2041747 301.079653,63.0051483 301.079653,64.0220859 L301.079653,64.116319 Z M299.993362,63.992638 C299.993362,63.2505484 299.850482,62.6773026 299.564718,62.2728834 C299.278954,61.8684642 298.867929,61.6662577 298.331631,61.6662577 C297.615263,61.6662577 297.100504,61.9999967 296.787337,62.6674847 L296.787337,65.4238037 C297.120077,66.0912917 297.638751,66.4250307 298.343375,66.4250307 C298.864014,66.4250307 299.269167,66.2228241 299.558846,65.8184049 C299.848525,65.4139857 299.993362,64.8054028 299.993362,63.992638 Z M306.599183,58.6507975 L306.599183,59.5754601 L306.39954,59.5754601 C305.553991,59.5911657 304.880694,59.8424516 304.379627,60.3293252 C303.878561,60.8161988 303.588886,61.5013453 303.510595,62.3847853 C303.960772,61.8665005 304.575351,61.607362 305.354353,61.607362 C306.098123,61.607362 306.692152,61.8704268 307.136456,62.3965644 C307.580761,62.922702 307.80291,63.601959 307.80291,64.4343558 C307.80291,65.3177958 307.563146,66.0245372 307.08361,66.5546012 C306.604074,67.0846652 305.961114,67.3496933 305.15471,67.3496933 C304.336563,67.3496933 303.673052,67.0346044 303.164156,66.4044172 C302.655261,65.77423 302.400817,64.962459 302.400817,63.9690798 L302.400817,63.5509202 C302.400817,61.9725074 302.736487,60.7661391 303.407838,59.9317791 C304.079188,59.0974191 305.07837,58.6704295 306.405412,58.6507975 L306.599183,58.6507975 Z M305.172326,62.5143558 C304.800441,62.5143558 304.45792,62.6262565 304.144754,62.8500613 C303.831587,63.0738661 303.614331,63.3545995 303.492979,63.6922699 L303.492979,64.0927607 C303.492979,64.7995127 303.651517,65.3688322 303.968598,65.8007362 C304.285679,66.2326402 304.681046,66.448589 305.15471,66.448589 C305.644033,66.448589 306.028634,66.2679773 306.308527,65.9067485 C306.588419,65.5455197 306.728364,65.0723956 306.728364,64.487362 C306.728364,63.898402 306.586462,63.4223331 306.302655,63.0591411 C306.018848,62.6959491 305.642075,62.5143558 305.172326,62.5143558 Z M314.579015,64.116319 C314.579015,65.0900662 314.355887,65.8723897 313.909625,66.4633129 C313.463363,67.0542361 312.864441,67.3496933 312.112841,67.3496933 C311.310353,67.3496933 310.689901,67.0650335 310.251468,66.4957055 L310.198621,67.2319018 L309.200408,67.2319018 L309.200408,58.1855215 L310.286699,58.1855215 L310.286699,61.5602454 C310.725132,61.0144758 311.329926,60.7415951 312.101098,60.7415951 C312.87227,60.7415951 313.478042,61.0341075 313.918432,61.6191411 C314.358823,62.2041747 314.579015,63.0051483 314.579015,64.0220859 L314.579015,64.116319 Z M313.492724,63.992638 C313.492724,63.2505484 313.349844,62.6773026 313.06408,62.2728834 C312.778315,61.8684642 312.367291,61.6662577 311.830993,61.6662577 C311.114625,61.6662577 310.599865,61.9999967 310.286699,62.6674847 L310.286699,65.4238037 C310.619438,66.0912917 311.138112,66.4250307 311.842737,66.4250307 C312.363376,66.4250307 312.768529,66.2228241 313.058208,65.8184049 C313.347887,65.4139857 313.492724,64.8054028 313.492724,63.992638 Z M320.098545,58.6507975 L320.098545,59.5754601 L319.898902,59.5754601 C319.053353,59.5911657 318.380055,59.8424516 317.878989,60.3293252 C317.377923,60.8161988 317.088248,61.5013453 317.009957,62.3847853 C317.460133,61.8665005 318.074713,61.607362 318.853715,61.607362 C319.597485,61.607362 320.191513,61.8704268 320.635818,62.3965644 C321.080123,62.922702 321.302272,63.601959 321.302272,64.4343558 C321.302272,65.3177958 321.062508,66.0245372 320.582972,66.5546012 C320.103436,67.0846652 319.460475,67.3496933 318.654072,67.3496933 C317.835925,67.3496933 317.172413,67.0346044 316.663518,66.4044172 C316.154623,65.77423 315.900179,64.962459 315.900179,63.9690798 L315.900179,63.5509202 C315.900179,61.9725074 316.235849,60.7661391 316.907199,59.9317791 C317.57855,59.0974191 318.577731,58.6704295 319.904774,58.6507975 L320.098545,58.6507975 Z M318.671688,62.5143558 C318.299802,62.5143558 317.957282,62.6262565 317.644115,62.8500613 C317.330949,63.0738661 317.113693,63.3545995 316.992341,63.6922699 L316.992341,64.0927607 C316.992341,64.7995127 317.150879,65.3688322 317.46796,65.8007362 C317.785041,66.2326402 318.180408,66.448589 318.654072,66.448589 C319.143394,66.448589 319.527996,66.2679773 319.807889,65.9067485 C320.087781,65.5455197 320.227725,65.0723956 320.227725,64.487362 C320.227725,63.898402 320.085824,63.4223331 319.802017,63.0591411 C319.51821,62.6959491 319.141437,62.5143558 318.671688,62.5143558 Z M328.078376,64.116319 C328.078376,65.0900662 327.855249,65.8723897 327.408986,66.4633129 C326.962724,67.0542361 326.363803,67.3496933 325.612203,67.3496933 C324.809714,67.3496933 324.189263,67.0650335 323.75083,66.4957055 L323.697983,67.2319018 L322.69977,67.2319018 L322.69977,58.1855215 L323.786061,58.1855215 L323.786061,61.5602454 C324.224494,61.0144758 324.829287,60.7415951 325.60046,60.7415951 C326.371632,60.7415951 326.977404,61.0341075 327.417794,61.6191411 C327.858184,62.2041747 328.078376,63.0051483 328.078376,64.0220859 L328.078376,64.116319 Z M326.992086,63.992638 C326.992086,63.2505484 326.849206,62.6773026 326.563441,62.2728834 C326.277677,61.8684642 325.866652,61.6662577 325.330355,61.6662577 C324.613987,61.6662577 324.099227,61.9999967 323.786061,62.6674847 L323.786061,65.4238037 C324.1188,66.0912917 324.637474,66.4250307 325.342099,66.4250307 C325.862738,66.4250307 326.267891,66.2228241 326.55757,65.8184049 C326.847248,65.4139857 326.992086,64.8054028 326.992086,63.992638 Z M332.382436,63.7511656 C332.382436,62.8637992 332.50085,62.0117832 332.737682,61.195092 C332.974514,60.3784008 333.3278,59.6363224 333.797549,58.9688344 C334.267299,58.3013464 334.754657,57.8301854 335.259637,57.5553374 L335.482767,58.273865 C334.911239,58.7136218 334.442475,59.3850262 334.076462,60.2880982 C333.710448,61.1911702 333.509829,62.202203 333.474598,63.321227 L333.468726,63.8218405 C333.468726,65.3374309 333.7447,66.6527552 334.296656,67.7678528 C334.629395,68.4353408 335.024762,68.9575441 335.482767,69.3344785 L335.259637,70 C334.738998,69.7094464 334.241854,69.2225801 333.76819,68.5393865 C332.844349,67.2044105 332.382436,65.6083528 332.382436,63.7511656 Z M336.275466,63.992638 C336.275466,62.9992588 336.504465,62.2090827 336.962471,61.6220859 C337.420477,61.0350891 338.027228,60.7415951 338.782742,60.7415951 C339.557829,60.7415951 340.162622,61.016439 340.597141,61.566135 L340.649987,60.8593865 L341.642328,60.8593865 L341.642328,67.078773 C341.642328,67.903317 341.398649,68.5531265 340.911284,69.0282209 C340.423919,69.5033153 339.769215,69.7408589 338.947153,69.7408589 C338.489148,69.7408589 338.040935,69.6427004 337.602502,69.4463804 C337.164069,69.2500604 336.829377,68.981106 336.598417,68.6395092 L337.162114,67.9857669 C337.627949,68.5629477 338.197512,68.8515337 338.87082,68.8515337 C339.399288,68.8515337 339.811291,68.7023328 340.106842,68.4039264 C340.402393,68.10552 340.550166,67.6854015 340.550166,67.1435583 L340.550166,66.5958282 C340.115648,67.0984074 339.522598,67.3496933 338.770998,67.3496933 C338.027228,67.3496933 337.42537,67.0493282 336.965407,66.448589 C336.505444,65.8478498 336.275466,65.0292076 336.275466,63.992638 Z M337.367628,64.116319 C337.367628,64.8348502 337.514423,65.3992618 337.808016,65.8095706 C338.10161,66.2198794 338.512635,66.4250307 339.041103,66.4250307 C339.726154,66.4250307 340.22917,66.1128866 340.550166,65.488589 L340.550166,62.5791411 C340.217427,61.9705491 339.718325,61.6662577 339.052847,61.6662577 C338.524378,61.6662577 338.111396,61.8723906 337.813888,62.2846626 C337.51638,62.6969346 337.367628,63.3074806 337.367628,64.116319 Z M346.351545,61.8370552 C346.187132,61.8095704 346.009021,61.7958282 345.817207,61.7958282 C345.104753,61.7958282 344.62131,62.1001197 344.366862,62.7087117 L344.366862,67.2319018 L343.280572,67.2319018 L343.280572,60.8593865 L344.337503,60.8593865 L344.355119,61.5955828 C344.711345,61.0262548 345.216319,60.7415951 345.870054,60.7415951 C346.081441,60.7415951 346.241936,60.7690795 346.351545,60.8240491 L346.351545,61.8370552 Z M351.037273,67.2319018 C350.97464,67.106257 350.923751,66.8824556 350.884606,66.5604908 C350.379625,67.0866284 349.776788,67.3496933 349.076079,67.3496933 C348.449746,67.3496933 347.935965,67.1720263 347.53472,66.8166871 C347.133476,66.4613479 346.932857,66.0108003 346.932857,65.4650307 C346.932857,64.8014691 347.184365,64.2861368 347.687388,63.9190184 C348.190412,63.5519 348.897962,63.3683436 349.810059,63.3683436 L350.86699,63.3683436 L350.86699,62.8677301 C350.86699,62.4868693 350.753469,62.1835594 350.526423,61.9577914 C350.299378,61.7320234 349.964686,61.6191411 349.522339,61.6191411 C349.134795,61.6191411 348.80989,61.7172996 348.547613,61.9136196 C348.285336,62.1099396 348.1542,62.3474833 348.1542,62.6262577 L347.062037,62.6262577 C347.062037,62.3082193 347.17458,62.0009831 347.399668,61.7045399 C347.624756,61.4080967 347.930089,61.1734978 348.315675,61.0007362 C348.701261,60.8279746 349.125008,60.7415951 349.586929,60.7415951 C350.318955,60.7415951 350.892433,60.9251515 351.307378,61.2922699 C351.722324,61.6593883 351.937622,62.1649048 351.953281,62.8088344 L351.953281,65.7418405 C351.953281,66.3268741 352.027656,66.7921455 352.176411,67.1376687 L352.176411,67.2319018 L351.037273,67.2319018 Z M349.234618,66.4014724 C349.575187,66.4014724 349.898135,66.3131297 350.203472,66.1364417 C350.508809,65.9597537 350.72998,65.7300628 350.86699,65.447362 L350.86699,64.1398773 L350.015573,64.1398773 C348.684616,64.1398773 348.019147,64.5305482 348.019147,65.3119018 C348.019147,65.6534986 348.132668,65.9204898 348.359714,66.1128834 C348.58676,66.305277 348.878392,66.4014724 349.234618,66.4014724 Z M355.646668,65.6358282 L357.126372,60.8593865 L358.288997,60.8593865 L355.734746,68.2154601 C355.339373,69.2755881 354.711093,69.8056442 353.849885,69.8056442 L353.644371,69.7879755 L353.239214,69.711411 L353.239214,68.8279755 L353.532806,68.8515337 C353.900776,68.8515337 354.187515,68.7769333 354.39303,68.6277301 C354.598546,68.4785269 354.767849,68.2056462 354.900945,67.8090798 L355.14169,67.161227 L352.87516,60.8593865 L354.061271,60.8593865 L355.646668,65.6358282 Z M367.642839,59.2692025 L364.102119,67.2319018 L362.962982,67.2319018 L366.491958,59.5519018 L361.864948,59.5519018 L361.864948,58.6566871 L367.642839,58.6566871 L367.642839,59.2692025 Z M369.375032,62.9325153 L369.809548,58.6566871 L374.189941,58.6566871 L374.189941,59.6638037 L370.731427,59.6638037 L370.473066,62.0019632 C370.891926,61.7546 371.367541,61.6309202 371.899923,61.6309202 C372.678925,61.6309202 373.297419,61.8890772 373.755425,62.4053988 C374.213431,62.9217204 374.44243,63.6196275 374.44243,64.4991411 C374.44243,65.3825811 374.204623,66.0785251 373.729002,66.5869939 C373.25338,67.0954627 372.58889,67.3496933 371.735512,67.3496933 C370.979998,67.3496933 370.363461,67.139634 369.885882,66.7195092 C369.408303,66.2993844 369.136244,65.7182859 369.069696,64.9761963 L370.097268,64.9761963 C370.163816,65.4669963 370.338012,65.837054 370.619862,66.0863804 C370.901712,66.3357068 371.273591,66.4603681 371.735512,66.4603681 C372.240493,66.4603681 372.636838,66.2876091 372.92456,65.9420859 C373.212281,65.5965627 373.35614,65.1195122 373.35614,64.5109202 C373.35614,63.9376658 373.200538,63.4773024 372.889329,63.129816 C372.578119,62.7823296 372.164159,62.608589 371.647434,62.608589 C371.17377,62.608589 370.801891,62.712637 370.531785,62.9207362 L370.244064,63.156319 L369.375032,62.9325153 Z M380.989533,63.5744785 C380.989533,64.8505585 380.772277,65.7987699 380.337758,66.4191411 C379.90324,67.0395123 379.224071,67.3496933 378.30023,67.3496933 C377.388133,67.3496933 376.712878,67.0463834 376.274445,66.4397546 C375.836012,65.8331258 375.60897,64.9271226 375.593311,63.7217178 L375.593311,62.2669939 C375.593311,61.0066195 375.810567,60.0701871 376.245086,59.4576687 C376.679604,58.8451503 377.360731,58.5388957 378.288486,58.5388957 C379.208412,58.5388957 379.885625,58.8343529 380.320143,59.4252761 C380.754661,60.0161993 380.977789,60.928092 380.989533,62.1609816 L380.989533,63.5744785 Z M379.903242,62.0844172 C379.903242,61.1617132 379.774063,60.4893273 379.515701,60.0672393 C379.257339,59.6451513 378.848271,59.4341104 378.288486,59.4341104 C377.732616,59.4341104 377.327463,59.6441697 377.073015,60.0642945 C376.818567,60.4844193 376.687431,61.1303024 376.679602,62.0019632 L376.679602,63.7452761 C376.679602,64.6719065 376.813674,65.3560714 377.081823,65.7977914 C377.349972,66.2395114 377.756103,66.4603681 378.30023,66.4603681 C378.836527,66.4603681 379.23483,66.252272 379.495149,65.8360736 C379.755469,65.4198752 379.891499,64.7641763 379.903242,63.8689571 L379.903242,62.0844172 Z M385,63.8100613 C385,64.6856485 384.8855,65.524904 384.656497,66.3278528 C384.427494,67.1308016 384.077145,67.8718984 383.605438,68.5511656 C383.133731,69.2304328 382.639523,69.7133728 382.122798,70 L381.893796,69.3344785 C382.496642,68.8711633 382.981064,68.1516613 383.347077,67.1759509 C383.71309,66.2002405 383.900008,65.117552 383.907838,63.9278528 L383.907838,63.7393865 C383.907838,62.9148425 383.821718,62.1482244 383.649477,61.4395092 C383.477235,60.730794 383.237471,60.0957083 382.930176,59.5342331 C382.622882,58.9727579 382.277425,58.5349709 381.893796,58.2208589 L382.122798,57.5553374 C382.639523,57.8419646 383.131774,58.3209782 383.599566,58.9923926 C384.067358,59.663807 384.417708,60.4039223 384.650625,61.2127607 C384.883543,62.0215991 385,62.8873573 385,63.8100613 Z" id="Placeholder-Text-Fon" fill="#EC407A"></path>
        <g id="specs-/-redlines-/-line-inclusive" transform="translate(168.000000, 46.000000) scale(-1, 1) translate(-168.000000, -46.000000) translate(97.000000, 21.000000)">
            <path d="M0,24.75 L142,24.75" id="redline-line" stroke="#EC407A" stroke-width="1"></path>
            <g id="specs-/-redlines-/-line-end-/-arrow" transform="translate(135.000000, 21.250000)">
                <g id="redline-end">
                    <use fill="#FFFFFF" fill-rule="evenodd" xlink:href="#path-2"></use>
                    <path stroke="#EC407A" stroke-width="1" d="M5.88196601,3.5 L0.5,0.809016994 L0.5,6.19098301 L5.88196601,3.5 Z"></path>
                </g>
            </g>
            <path d="M0.5,0.5 L0.5,49.5" id="Line" stroke="#F0367A" stroke-width="1" stroke-linecap="square"></path>
        </g>
    </g>
</svg>