<?xml version="1.0" encoding="UTF-8" standalone="no"?>
<svg width="383px" height="58px" viewBox="0 0 383 58" version="1.1" xmlns="http://www.w3.org/2000/svg" xmlns:xlink="http://www.w3.org/1999/xlink">
    <!-- Generator: Sketch 47.1 (45422) - http://www.bohemiancoding.com/sketch -->
    <title>text-inputs-text-input-placeholder-text</title>
    <desc>Created with Sketch.</desc>
    <defs></defs>
    <g stroke="none" stroke-width="1" fill="none" fill-rule="evenodd">
        <g transform="translate(-1.000000, -4.000000)">
            <g>
                <g transform="translate(1.000000, 20.000000)">
                    <g transform="translate(1.000000, 1.000000)" fill="#FFFFFF">
                        <rect x="0" y="0" width="208" height="30" rx="2"></rect>
                    </g>
                    <rect stroke="#BDBDBD" x="0.5" y="0.5" width="209" height="31" rx="2"></rect>
                </g>
                <path d="M15.0859375,37.4375 L14.1796875,42 L12.671875,42 L14.9453125,30.625 L19.046875,30.625 C20.0989636,30.625 20.8945286,30.9427052 21.4335938,31.578125 C21.9726589,32.2135448 22.1432302,33.031245 21.9453125,34.03125 C21.721353,35.1302138 21.2434932,35.9726533 20.5117188,36.5585937 C19.7799443,37.1445342 18.8385474,37.4375 17.6875,37.4375 L15.0859375,37.4375 Z M15.328125,36.234375 L17.9296875,36.234375 C18.5755241,36.234375 19.1236957,36.0234396 19.5742188,35.6015625 C20.0247418,35.1796854 20.3124994,34.6614614 20.4375,34.046875 C20.567709,33.380205 20.5039075,32.8450541 20.2460938,32.4414062 C19.98828,32.0377584 19.507816,31.8359375 18.8046875,31.8359375 L16.2109375,31.8359375 L15.328125,36.234375 Z M23.6796875,42 L22.171875,42 L24.609375,29.8125 L26.1171875,29.8125 L23.6796875,42 Z M30.7421875,42 C30.7421875,41.7447904 30.7473958,41.5351571 30.7578125,41.3710937 C30.7682292,41.2070304 30.7864582,41.0390634 30.8125,40.8671875 C30.4635399,41.236981 30.0638043,41.5455717 29.6132812,41.7929687 C29.1627582,42.0403658 28.7109398,42.1640625 28.2578125,42.1640625 C27.4869753,42.1640625 26.9179706,41.9335961 26.5507812,41.4726562 C26.1835919,41.0117164 26.0807284,40.3958372 26.2421875,39.625 C26.408855,38.7656207 26.8320279,38.1210959 27.5117188,37.6914062 C28.1914096,37.2617166 29.0624947,37.046875 30.125,37.046875 L31.5703125,37.046875 L31.734375,36.2109375 C31.8385422,35.6848932 31.7812511,35.2851576 31.5625,35.0117187 C31.3437489,34.7382799 30.9791692,34.6015625 30.46875,34.6015625 C30.0312478,34.6015625 29.6354184,34.7304675 29.28125,34.9882812 C28.9270816,35.246095 28.7161462,35.5468733 28.6484375,35.890625 L27.21875,35.890625 L27.203125,35.84375 C27.3072922,35.1927051 27.6979133,34.6210962 28.375,34.1289062 C29.0520867,33.6367163 29.8593703,33.390625 30.796875,33.390625 C31.6354209,33.390625 32.2981746,33.6393204 32.7851562,34.1367187 C33.2721379,34.6341171 33.4270842,35.3307247 33.25,36.2265625 L32.4375,40.296875 C32.3697913,40.6145849 32.3229168,40.9088528 32.296875,41.1796875 C32.2708332,41.4505222 32.2708332,41.723957 32.296875,42 L30.7421875,42 Z M28.7421875,40.875 C29.1640646,40.875 29.5937478,40.7526054 30.03125,40.5078125 C30.4687522,40.2630196 30.8072905,39.97396 31.046875,39.640625 L31.359375,38.0859375 L29.8671875,38.0859375 C29.3515599,38.0859375 28.8880229,38.2447901 28.4765625,38.5625 C28.0651021,38.8802099 27.8203129,39.2447896 27.7421875,39.65625 C27.6588537,40.0572937 27.6979159,40.3606761 27.859375,40.5664062 C28.0208341,40.7721364 28.315102,40.875 28.7421875,40.875 Z M37.7265625,40.9609375 C38.1744814,40.9609375 38.6028625,40.8020849 39.0117188,40.484375 C39.420575,40.1666651 39.661458,39.7812523 39.734375,39.328125 L41.0859375,39.328125 L41.1015625,39.375 C40.9973953,40.1354205 40.5911494,40.7903618 39.8828125,41.3398437 C39.1744756,41.8893257 38.3932334,42.1640625 37.5390625,42.1640625 C36.4348903,42.1640625 35.6302109,41.7578166 35.125,40.9453125 C34.6197891,40.1328084 34.4635407,39.1302143 34.65625,37.9375 L34.7109375,37.609375 C34.9036468,36.3645771 35.3658818,35.3502643 36.0976562,34.5664062 C36.8294307,33.7825482 37.7760359,33.390625 38.9375,33.390625 C39.8333378,33.390625 40.5351537,33.6835908 41.0429688,34.2695312 C41.5507838,34.8554717 41.7265633,35.5729124 41.5703125,36.421875 L41.5546875,36.4609375 L40.1875,36.4609375 C40.2760421,35.9192681 40.1875013,35.4739601 39.921875,35.125 C39.6562487,34.7760399 39.2656276,34.6015625 38.75,34.6015625 C38.0416631,34.6015625 37.4765646,34.8958304 37.0546875,35.484375 C36.6328104,36.0729196 36.3567715,36.7812459 36.2265625,37.609375 L36.171875,37.9375 C36.0312493,38.8333378 36.0677073,39.5611951 36.28125,40.1210937 C36.4947927,40.6809924 36.9765588,40.9609375 37.7265625,40.9609375 Z M45.609375,42.1640625 C44.5468697,42.1640625 43.7434923,41.7695352 43.1992188,40.9804687 C42.6549452,40.1914023 42.4817698,39.1770895 42.6796875,37.9375 L42.734375,37.59375 C42.9322927,36.3437437 43.4257773,35.330733 44.2148438,34.5546875 C45.0039102,33.778642 45.8567662,33.390625 46.7734375,33.390625 C47.809901,33.390625 48.5520811,33.7369757 49,34.4296875 C49.4479189,35.1223993 49.5833342,36.0364527 49.40625,37.171875 L49.25,38.1328125 L44.15625,38.1328125 C44.0416661,38.9974002 44.1210924,39.6848933 44.3945312,40.1953125 C44.6679701,40.7057317 45.1354134,40.9609375 45.796875,40.9609375 C46.2552106,40.9609375 46.6848938,40.8841154 47.0859375,40.7304687 C47.4869812,40.5768221 47.835936,40.3750012 48.1328125,40.125 L48.5625,41.125 C48.2447901,41.4218765 47.8385441,41.6692698 47.34375,41.8671875 C46.8489559,42.0651052 46.2708366,42.1640625 45.609375,42.1640625 Z M46.5859375,34.6015625 C46.1484353,34.6015625 45.7252625,34.8203103 45.3164062,35.2578125 C44.90755,35.6953147 44.6145842,36.2369759 44.4375,36.8828125 L44.4609375,36.9296875 L47.9375,36.9296875 L47.96875,36.7265625 C48.0677088,36.096351 48.0078136,35.5846374 47.7890625,35.1914062 C47.5703114,34.7981751 47.1692738,34.6015625 46.5859375,34.6015625 Z M53.1796875,34.5703125 C53.5286476,34.1901023 53.9153625,33.8984385 54.3398438,33.6953125 C54.764325,33.4921865 55.2135393,33.390625 55.6875,33.390625 C56.4791706,33.390625 57.0677064,33.6666639 57.453125,34.21875 C57.8385436,34.7708361 57.9218761,35.5989528 57.703125,36.703125 L56.640625,42 L55.1328125,42 L56.1953125,36.6875 C56.3411466,35.947913 56.312501,35.4218766 56.109375,35.109375 C55.906249,34.7968734 55.5260445,34.640625 54.96875,34.640625 C54.6197899,34.640625 54.2656268,34.7434886 53.90625,34.9492187 C53.5468732,35.1549489 53.2239598,35.4296858 52.9375,35.7734375 L51.6953125,42 L50.1875,42 L52.625,29.8125 L54.1328125,29.8125 L53.1796875,34.5703125 Z M59.2421875,37.6953125 C59.4505219,36.3932227 59.9283817,35.3502643 60.6757813,34.5664062 C61.4231808,33.7825482 62.3463487,33.390625 63.4453125,33.390625 C64.4974011,33.390625 65.2851536,33.798173 65.8085938,34.6132812 C66.3320339,35.4283895 66.4947927,36.455723 66.296875,37.6953125 L66.2734375,37.8671875 C66.0598948,39.1744857 65.5794308,40.217444 64.8320313,40.9960937 C64.0846317,41.7747435 63.1614638,42.1640625 62.0625,42.1640625 C61.0104114,42.1640625 60.2226589,41.7578166 59.6992188,40.9453125 C59.1757786,40.1328084 59.015624,39.106777 59.21875,37.8671875 L59.2421875,37.6953125 Z M60.7265625,37.8671875 C60.5755201,38.7994838 60.6210925,39.5481743 60.8632812,40.1132812 C61.10547,40.6783882 61.5677049,40.9609375 62.25,40.9609375 C62.8854198,40.9609375 63.4270811,40.6653675 63.875,40.0742187 C64.3229189,39.48307 64.6171868,38.7474002 64.7578125,37.8671875 L64.78125,37.6953125 C64.9270841,36.7786412 64.8776054,36.033857 64.6328125,35.4609375 C64.3880196,34.888018 63.9296909,34.6015625 63.2578125,34.6015625 C62.6171843,34.6015625 62.074221,34.8984345 61.6289062,35.4921875 C61.1835915,36.0859405 60.8906257,36.8203081 60.75,37.6953125 L60.7265625,37.8671875 Z M68.9375,42 L67.4296875,42 L69.8671875,29.8125 L71.375,29.8125 L68.9375,42 Z M71.703125,37.7734375 C71.9895848,36.3203052 72.4492156,35.2265662 73.0820312,34.4921875 C73.7148469,33.7578088 74.5286409,33.390625 75.5234375,33.390625 C75.9557313,33.390625 76.3476545,33.4804679 76.6992188,33.6601562 C77.050783,33.8398446 77.3385405,34.0937484 77.5625,34.421875 L78.484375,29.8125 L79.9921875,29.8125 L77.5546875,42 L76.2578125,42 L76.3125,41.1875 C75.9999984,41.5104183 75.6549498,41.7539054 75.2773438,41.9179687 C74.8997377,42.0820321 74.4921897,42.1640625 74.0546875,42.1640625 C73.148433,42.1640625 72.4648461,41.7578166 72.0039062,40.9453125 C71.5429664,40.1328084 71.4322905,39.1302143 71.671875,37.9375 L71.703125,37.7734375 Z M73.1875,37.9375 C73.0052074,38.8333378 73.0390613,39.5533827 73.2890625,40.0976562 C73.5390638,40.6419298 74.0078091,40.9140625 74.6953125,40.9140625 C75.065106,40.9140625 75.3971339,40.8111989 75.6914062,40.6054687 C75.9856786,40.3997386 76.2552071,40.1067727 76.5,39.7265625 L77.296875,35.734375 C77.1614577,35.40104 76.9570326,35.1354177 76.6835938,34.9375 C76.4101549,34.7395823 76.0703145,34.640625 75.6640625,34.640625 C75.0390594,34.640625 74.5221375,34.9231743 74.1132812,35.4882812 C73.704425,36.0533882 73.4062509,36.8150994 73.21875,37.7734375 L73.1875,37.9375 Z M83.1484375,42.1640625 C82.0859322,42.1640625 81.2825548,41.7695352 80.7382812,40.9804687 C80.1940077,40.1914023 80.0208323,39.1770895 80.21875,37.9375 L80.2734375,37.59375 C80.4713552,36.3437437 80.9648398,35.330733 81.7539062,34.5546875 C82.5429727,33.778642 83.3958287,33.390625 84.3125,33.390625 C85.3489635,33.390625 86.0911436,33.7369757 86.5390625,34.4296875 C86.9869814,35.1223993 87.1223967,36.0364527 86.9453125,37.171875 L86.7890625,38.1328125 L81.6953125,38.1328125 C81.5807286,38.9974002 81.6601549,39.6848933 81.9335938,40.1953125 C82.2070326,40.7057317 82.6744759,40.9609375 83.3359375,40.9609375 C83.7942731,40.9609375 84.2239563,40.8841154 84.625,40.7304687 C85.0260437,40.5768221 85.3749985,40.3750012 85.671875,40.125 L86.1015625,41.125 C85.7838526,41.4218765 85.3776066,41.6692698 84.8828125,41.8671875 C84.3880184,42.0651052 83.8098991,42.1640625 83.1484375,42.1640625 Z M84.125,34.6015625 C83.6874978,34.6015625 83.264325,34.8203103 82.8554688,35.2578125 C82.4466125,35.6953147 82.1536467,36.2369759 81.9765625,36.8828125 L82,36.9296875 L85.4765625,36.9296875 L85.5078125,36.7265625 C85.6067713,36.096351 85.5468761,35.5846374 85.328125,35.1914062 C85.1093739,34.7981751 84.7083363,34.6015625 84.125,34.6015625 Z M92.96875,34.90625 L92.140625,34.859375 C91.7968733,34.859375 91.4804702,34.9570303 91.1914062,35.1523437 C90.9023423,35.3476572 90.6510427,35.6223941 90.4375,35.9765625 L89.234375,42 L87.7265625,42 L89.4140625,33.546875 L90.765625,33.546875 L90.671875,34.6796875 C90.9635431,34.2682271 91.2929669,33.950522 91.6601562,33.7265625 C92.0273456,33.502603 92.4218729,33.390625 92.84375,33.390625 C92.9479172,33.390625 93.0611973,33.3997395 93.1835938,33.4179687 C93.3059902,33.436198 93.395833,33.4557291 93.453125,33.4765625 L92.96875,34.90625 Z" fill="#9E9E9E"></path>
                <path d="M2.57714844,13.9472656 L7.28710937,13.9472656 L7.28710937,15 L1.23046875,15 L1.23046875,5.046875 L2.57714844,5.046875 L2.57714844,13.9472656 Z M13.0839844,15 C13.0384112,14.7766916 13.0030926,14.5795907 12.9780273,14.4086914 C12.9529621,14.2377921 12.9381511,14.0657561 12.9335938,13.8925781 C12.6829415,14.2480487 12.355959,14.545409 11.9526367,14.784668 C11.5493144,15.023927 11.1152367,15.1435547 10.6503906,15.1435547 C9.88020448,15.1435547 9.29345905,14.9464538 8.89013672,14.5522461 C8.48681439,14.1580384 8.28515625,13.6145868 8.28515625,12.921875 C8.28515625,12.2154913 8.57112344,11.6629252 9.14306641,11.2641602 C9.71500937,10.8653951 10.4908805,10.6660156 11.4707031,10.6660156 L12.9335938,10.6660156 L12.9335938,9.93457031 C12.9335938,9.50162544 12.8014336,9.15869267 12.5371094,8.90576172 C12.2727851,8.65283077 11.899091,8.52636719 11.4160156,8.52636719 C10.9830708,8.52636719 10.6310235,8.63688041 10.3598633,8.85791016 C10.0887031,9.07893991 9.953125,9.34439949 9.953125,9.65429688 L8.66796875,9.65429688 L8.65429688,9.61328125 C8.62695299,9.07551814 8.88101946,8.58333557 9.41650391,8.13671875 C9.95198835,7.69010193 10.6435504,7.46679688 11.4912109,7.46679688 C12.3297568,7.46679688 13.0042292,7.67984813 13.5146484,8.10595703 C14.0250677,8.53206593 14.2802734,9.14615484 14.2802734,9.94824219 L14.2802734,13.5097656 C14.2802734,13.7740899 14.2939452,14.0292956 14.3212891,14.2753906 C14.3486329,14.5214856 14.3987627,14.7630196 14.4716797,15 L13.0839844,15 Z M10.8486328,14.015625 C11.3362655,14.015625 11.7760397,13.8903007 12.1679688,13.6396484 C12.5598978,13.3889961 12.8151036,13.1018896 12.9335938,12.7783203 L12.9335938,11.5751953 L11.4228516,11.5751953 C10.8805311,11.5751953 10.4464535,11.7119127 10.1206055,11.9853516 C9.79475749,12.2587904 9.63183594,12.5800763 9.63183594,12.9492188 C9.63183594,13.2773454 9.73437397,13.5371084 9.93945312,13.7285156 C10.1445323,13.9199228 10.4475891,14.015625 10.8486328,14.015625 Z M22.5517578,11.5820312 C22.5517578,12.6484428 22.2954127,13.508623 21.7827148,14.1625977 C21.270017,14.8165723 20.5647831,15.1435547 19.6669922,15.1435547 C19.1793595,15.1435547 18.7555357,15.0489918 18.3955078,14.8598633 C18.03548,14.6707347 17.7369804,14.3916034 17.5,14.0224609 L17.3359375,15 L16.2353516,15 L16.2353516,4.3359375 L17.5820312,4.3359375 L17.5820312,8.47851562 C17.8144543,8.15038898 18.1027001,7.89974045 18.4467773,7.7265625 C18.7908546,7.55338455 19.1930316,7.46679688 19.6533203,7.46679688 C20.5647832,7.46679688 21.2757136,7.83137656 21.7861328,8.56054688 C22.296552,9.28971719 22.5517578,10.2490175 22.5517578,11.4384766 L22.5517578,11.5820312 Z M21.2050781,11.4384766 C21.2050781,10.5908161 21.0489924,9.89925398 20.7368164,9.36376953 C20.4246404,8.82828508 19.9495475,8.56054688 19.3115234,8.56054688 C18.8968078,8.56054688 18.5470392,8.6619456 18.262207,8.86474609 C17.9773749,9.06754659 17.7506519,9.33984204 17.5820312,9.68164062 L17.5820312,12.8876953 C17.7552092,13.2522805 17.9819322,13.5371083 18.262207,13.7421875 C18.5424819,13.9472667 18.8968078,14.0498047 19.3251953,14.0498047 C19.958662,14.0498047 20.430337,13.824221 20.7402344,13.3730469 C21.0501318,12.9218727 21.2050781,12.3248735 21.2050781,11.5820312 L21.2050781,11.4384766 Z M27.2617188,15.1435547 C26.2317657,15.1435547 25.4126007,14.8006219 24.8041992,14.1147461 C24.1957977,13.4288703 23.8916016,12.539068 23.8916016,11.4453125 L23.8916016,11.1445312 C23.8916016,10.0917916 24.2049122,9.21566105 24.831543,8.51611328 C25.4581737,7.81656551 26.1998655,7.46679688 27.0566406,7.46679688 C28.0546925,7.46679688 28.8089167,7.76757512 29.3193359,8.36914062 C29.8297552,8.97070613 30.0849609,9.77278145 30.0849609,10.7753906 L30.0849609,11.6162109 L25.2861328,11.6162109 L25.265625,11.6503906 C25.2792969,12.3613317 25.4593082,12.9457985 25.8056641,13.4038086 C26.15202,13.8618187 26.6373667,14.0908203 27.2617188,14.0908203 C27.7174502,14.0908203 28.1173485,14.0258796 28.4614258,13.8959961 C28.805503,13.7661126 29.1028633,13.5872407 29.3535156,13.359375 L29.8798828,14.234375 C29.6155586,14.4941419 29.2669292,14.7106111 28.8339844,14.8837891 C28.4010395,15.056967 27.8769562,15.1435547 27.2617188,15.1435547 Z M27.0566406,8.52636719 C26.6054665,8.52636719 26.2203792,8.71663221 25.9013672,9.09716797 C25.5823552,9.47770373 25.3863936,9.95507525 25.3134766,10.5292969 L25.3271484,10.5634766 L28.7382812,10.5634766 L28.7382812,10.3857422 C28.7382812,9.85709371 28.5970066,9.41504084 28.3144531,9.05957031 C28.0318996,8.70409979 27.612633,8.52636719 27.0566406,8.52636719 Z M33.0517578,15 L31.7050781,15 L31.7050781,4.3359375 L33.0517578,4.3359375 L33.0517578,15 Z" fill="#6B6B6B"></path>
            </g>
            <g transform="translate(246.000000, 9.000000)" fill="#EC407A">
                <path d="M2.20898438,9.578125 L2.20898438,13 L1.0546875,13 L1.0546875,4.46875 L4.31835938,4.46875 C5.22852018,4.46875 5.93554436,4.70312266 6.43945312,5.171875 C6.94336189,5.64062734 7.1953125,6.25780867 7.1953125,7.0234375 C7.1953125,7.80078514 6.94336189,8.42089612 6.43945312,8.88378906 C5.93554436,9.346682 5.22852018,9.578125 4.31835938,9.578125 L2.20898438,9.578125 Z M2.20898438,8.67578125 L4.31835938,8.67578125 C4.89648727,8.67578125 5.32812357,8.52050937 5.61328125,8.20996094 C5.89843893,7.89941251 6.04101562,7.50781486 6.04101562,7.03515625 C6.04101562,6.56249764 5.89746237,6.16797033 5.61035156,5.8515625 C5.32324075,5.53515467 4.892581,5.37695312 4.31835938,5.37695312 L2.20898438,5.37695312 L2.20898438,8.67578125 Z M9.7734375,13 L8.61914062,13 L8.61914062,3.859375 L9.7734375,3.859375 L9.7734375,13 Z M15.4453125,13 C15.4062498,12.8085928 15.3759767,12.6396492 15.3544922,12.4931641 C15.3330077,12.346679 15.3203125,12.1992195 15.3164062,12.0507812 C15.1015614,12.3554703 14.8212908,12.6103505 14.4755859,12.8154297 C14.1298811,13.0205088 13.7578145,13.1230469 13.359375,13.1230469 C12.6992154,13.1230469 12.1962908,12.9541033 11.8505859,12.6162109 C11.5048811,12.2783186 11.3320312,11.812503 11.3320312,11.21875 C11.3320312,10.6132782 11.577146,10.1396501 12.0673828,9.79785156 C12.5576196,9.45605298 13.2226521,9.28515625 14.0625,9.28515625 L15.3164062,9.28515625 L15.3164062,8.65820312 C15.3164062,8.28710752 15.2031261,7.99316515 14.9765625,7.77636719 C14.7499989,7.55956923 14.4296896,7.45117188 14.015625,7.45117188 C13.6445294,7.45117188 13.3427746,7.54589749 13.1103516,7.73535156 C12.8779285,7.92480563 12.7617188,8.15234242 12.7617188,8.41796875 L11.6601562,8.41796875 L11.6484375,8.3828125 C11.6249999,7.9218727 11.8427711,7.50000191 12.3017578,7.1171875 C12.7607445,6.73437309 13.353512,6.54296875 14.0800781,6.54296875 C14.7988317,6.54296875 15.3769509,6.72558411 15.8144531,7.09082031 C16.2519553,7.45605651 16.4707031,7.98241844 16.4707031,8.66992188 L16.4707031,11.7226562 C16.4707031,11.9492199 16.4824218,12.1679677 16.5058594,12.3789062 C16.529297,12.5898448 16.5722653,12.796874 16.6347656,13 L15.4453125,13 Z M13.5292969,12.15625 C13.9472677,12.15625 14.3242171,12.0488292 14.6601562,11.8339844 C14.9960954,11.6191396 15.2148432,11.3730483 15.3164062,11.0957031 L15.3164062,10.0644531 L14.0214844,10.0644531 C13.5566383,10.0644531 13.1845717,10.1816395 12.9052734,10.4160156 C12.6259752,10.6503918 12.4863281,10.9257797 12.4863281,11.2421875 C12.4863281,11.5234389 12.5742179,11.7460929 12.75,11.9101562 C12.9257821,12.0742196 13.1855452,12.15625 13.5292969,12.15625 Z M20.7246094,12.2207031 C21.1074238,12.2207031 21.4443345,12.1025402 21.7353516,11.8662109 C22.0263686,11.6298816 22.171875,11.3398455 22.171875,10.9960938 L23.2089844,10.9960938 L23.2207031,11.03125 C23.2402345,11.5781277 22.9970728,12.0634744 22.4912109,12.4873047 C21.985349,12.9111349 21.3964877,13.1230469 20.7246094,13.1230469 C19.8027298,13.1230469 19.0976587,12.8222686 18.609375,12.2207031 C18.1210913,11.6191376 17.8769531,10.8632858 17.8769531,9.953125 L17.8769531,9.70703125 C17.8769531,8.80468299 18.1220679,8.05176083 18.6123047,7.44824219 C19.1025415,6.84472354 19.806636,6.54296875 20.7246094,6.54296875 C21.4668006,6.54296875 22.0732398,6.76171656 22.5439453,7.19921875 C23.0146508,7.63672094 23.2421876,8.17382494 23.2265625,8.81054688 L23.2148438,8.84570312 L22.171875,8.84570312 C22.171875,8.45898244 22.0351576,8.12988417 21.7617188,7.85839844 C21.4882799,7.58691271 21.1425802,7.45117188 20.7246094,7.45117188 C20.1191376,7.45117188 19.6865247,7.66894313 19.4267578,8.10449219 C19.1669909,8.54004124 19.0371094,9.07421559 19.0371094,9.70703125 L19.0371094,9.953125 C19.0371094,10.6015657 19.1660143,11.1415994 19.4238281,11.5732422 C19.6816419,12.004885 20.1152313,12.2207031 20.7246094,12.2207031 Z M27.1464844,13.1230469 C26.2636675,13.1230469 25.561526,12.8291045 25.0400391,12.2412109 C24.5185521,11.6533174 24.2578125,10.8906297 24.2578125,9.953125 L24.2578125,9.6953125 C24.2578125,8.79296424 24.5263645,8.04199519 25.0634766,7.44238281 C25.6005886,6.84277044 26.2363245,6.54296875 26.9707031,6.54296875 C27.8261762,6.54296875 28.4726541,6.80077867 28.9101562,7.31640625 C29.3476584,7.83203383 29.5664062,8.51952695 29.5664062,9.37890625 L29.5664062,10.0996094 L25.453125,10.0996094 L25.4355469,10.1289062 C25.4472657,10.7382843 25.601561,11.2392558 25.8984375,11.6318359 C26.195314,12.024416 26.6113254,12.2207031 27.1464844,12.2207031 C27.5371113,12.2207031 27.8798813,12.1650396 28.1748047,12.0537109 C28.469728,11.9423823 28.7246083,11.7890635 28.9394531,11.59375 L29.390625,12.34375 C29.1640614,12.5664074 28.8652362,12.7519524 28.4941406,12.9003906 C28.123045,13.0488289 27.6738308,13.1230469 27.1464844,13.1230469 Z M26.9707031,7.45117188 C26.5839824,7.45117188 26.2539076,7.61425618 25.9804688,7.94042969 C25.7070299,8.26660319 25.5390628,8.67577879 25.4765625,9.16796875 L25.4882813,9.19726562 L28.4121094,9.19726562 L28.4121094,9.04492188 C28.4121094,8.59179461 28.2910168,8.21289215 28.0488281,7.90820312 C27.8066394,7.6035141 27.447268,7.45117188 26.9707031,7.45117188 Z M32.015625,7.50976562 C32.2343761,7.2050766 32.5029281,6.96777429 32.8212891,6.79785156 C33.13965,6.62792884 33.4921856,6.54296875 33.8789062,6.54296875 C34.5546909,6.54296875 35.0810528,6.74609172 35.4580078,7.15234375 C35.8349628,7.55859578 36.0234375,8.18358953 36.0234375,9.02734375 L36.0234375,13 L34.8691406,13 L34.8691406,9.015625 C34.8691406,8.49218488 34.7568371,8.10547 34.5322266,7.85546875 C34.3076161,7.6054675 33.9726585,7.48046875 33.5273438,7.48046875 C33.2070296,7.48046875 32.9169935,7.55566331 32.6572266,7.70605469 C32.3974596,7.85644606 32.1835946,8.06054559 32.015625,8.31835938 L32.015625,13 L30.8613281,13 L30.8613281,3.859375 L32.015625,3.859375 L32.015625,7.50976562 Z M37.4121094,9.77148438 C37.4121094,8.83397969 37.6660131,8.06152647 38.1738281,7.45410156 C38.6816432,6.84667665 39.3710894,6.54296875 40.2421875,6.54296875 C41.1210981,6.54296875 41.8154271,6.8457001 42.3251953,7.45117188 C42.8349635,8.05664365 43.0898438,8.83007342 43.0898438,9.77148438 L43.0898438,9.90039062 C43.0898438,10.8457079 42.83594,11.6191376 42.328125,12.2207031 C41.82031,12.8222686 41.1289106,13.1230469 40.2539062,13.1230469 C39.3789019,13.1230469 38.686526,12.8212921 38.1767578,12.2177734 C37.6669896,11.6142548 37.4121094,10.8418016 37.4121094,9.90039062 L37.4121094,9.77148438 Z M38.5664062,9.90039062 C38.5664062,10.572269 38.7080064,11.1269509 38.9912109,11.5644531 C39.2744155,12.0019553 39.6953097,12.2207031 40.2539062,12.2207031 C40.8046903,12.2207031 41.2226548,12.0019553 41.5078125,11.5644531 C41.7929702,11.1269509 41.9355469,10.572269 41.9355469,9.90039062 L41.9355469,9.77148438 C41.9355469,9.10741855 41.7919936,8.55468971 41.5048828,8.11328125 C41.217772,7.67187279 40.7968778,7.45117188 40.2421875,7.45117188 C39.6914035,7.45117188 39.2744155,7.67187279 38.9912109,8.11328125 C38.7080064,8.55468971 38.5664062,9.10741855 38.5664062,9.77148438 L38.5664062,9.90039062 Z M45.75,13 L44.5957031,13 L44.5957031,3.859375 L45.75,3.859375 L45.75,13 Z M47.2617188,9.94726562 C47.2617188,8.92772928 47.47949,8.10547187 47.9150391,7.48046875 C48.3505881,6.85546563 48.9609336,6.54296875 49.7460938,6.54296875 C50.1171894,6.54296875 50.4462876,6.61132744 50.7333984,6.74804688 C51.0205092,6.88476631 51.265624,7.08398307 51.46875,7.34570312 L51.46875,3.859375 L52.6230469,3.859375 L52.6230469,13 L51.6796875,13 L51.5449219,12.2207031 C51.3378896,12.5175796 51.0839859,12.7421867 50.7832031,12.8945312 C50.4824204,13.0468758 50.1328145,13.1230469 49.734375,13.1230469 C48.9609336,13.1230469 48.3554709,12.8427762 47.9179688,12.2822266 C47.4804666,11.7216769 47.2617188,10.9843796 47.2617188,10.0703125 L47.2617188,9.94726562 Z M48.4160156,10.0703125 C48.4160156,10.7109407 48.5468737,11.2236309 48.8085938,11.6083984 C49.0703138,11.993166 49.4765597,12.1855469 50.0273438,12.1855469 C50.3710955,12.1855469 50.6601551,12.1074227 50.8945313,11.9511719 C51.1289074,11.7949211 51.3203118,11.5761733 51.46875,11.2949219 L51.46875,8.3359375 C51.3203118,8.07421744 51.1279309,7.86621171 50.8916016,7.71191406 C50.6552723,7.55761642 50.3710954,7.48046875 50.0390625,7.48046875 C49.4843722,7.48046875 49.0751966,7.70898209 48.8115234,8.16601562 C48.5478502,8.62304916 48.4160156,9.21679322 48.4160156,9.94726562 L48.4160156,10.0703125 Z M56.9765625,13.1230469 C56.0937456,13.1230469 55.3916042,12.8291045 54.8701172,12.2412109 C54.3486302,11.6533174 54.0878906,10.8906297 54.0878906,9.953125 L54.0878906,9.6953125 C54.0878906,8.79296424 54.3564426,8.04199519 54.8935547,7.44238281 C55.4306667,6.84277044 56.0664026,6.54296875 56.8007813,6.54296875 C57.6562543,6.54296875 58.3027322,6.80077867 58.7402344,7.31640625 C59.1777366,7.83203383 59.3964844,8.51952695 59.3964844,9.37890625 L59.3964844,10.0996094 L55.2832031,10.0996094 L55.265625,10.1289062 C55.2773438,10.7382843 55.4316391,11.2392558 55.7285156,11.6318359 C56.0253921,12.024416 56.4414036,12.2207031 56.9765625,12.2207031 C57.3671895,12.2207031 57.7099595,12.1650396 58.0048828,12.0537109 C58.2998062,11.9423823 58.5546864,11.7890635 58.7695313,11.59375 L59.2207031,12.34375 C58.9941395,12.5664074 58.6953144,12.7519524 58.3242188,12.9003906 C57.9531231,13.0488289 57.5039089,13.1230469 56.9765625,13.1230469 Z M56.8007813,7.45117188 C56.4140606,7.45117188 56.0839857,7.61425618 55.8105469,7.94042969 C55.537108,8.26660319 55.3691409,8.67577879 55.3066406,9.16796875 L55.3183594,9.19726562 L58.2421875,9.19726562 L58.2421875,9.04492188 C58.2421875,8.59179461 58.121095,8.21289215 57.8789063,7.90820312 C57.6367175,7.6035141 57.2773461,7.45117188 56.8007813,7.45117188 Z M63.6914063,7.6796875 L63.0996094,7.64453125 C62.7949204,7.64453125 62.538087,7.71679615 62.3291016,7.86132812 C62.1201161,8.0058601 61.9589849,8.20898307 61.8457031,8.47070312 L61.8457031,13 L60.6914063,13 L60.6914063,6.66015625 L61.7226563,6.66015625 L61.8339844,7.5859375 C62.0136728,7.25781086 62.2353502,7.00195404 62.4990234,6.81835938 C62.7626966,6.63476471 63.0664045,6.54296875 63.4101563,6.54296875 C63.4960942,6.54296875 63.5781246,6.54980462 63.65625,6.56347656 C63.7343754,6.57714851 63.7988279,6.5917968 63.8496094,6.60742188 L63.6914063,7.6796875 Z M73.78125,5.37695312 L71.0390625,5.37695312 L71.0390625,13 L69.8847656,13 L69.8847656,5.37695312 L67.1484375,5.37695312 L67.1484375,4.46875 L73.78125,4.46875 L73.78125,5.37695312 Z M76.9277344,13.1230469 C76.0449175,13.1230469 75.342776,12.8291045 74.8212891,12.2412109 C74.2998021,11.6533174 74.0390625,10.8906297 74.0390625,9.953125 L74.0390625,9.6953125 C74.0390625,8.79296424 74.3076145,8.04199519 74.8447266,7.44238281 C75.3818386,6.84277044 76.0175745,6.54296875 76.7519531,6.54296875 C77.6074262,6.54296875 78.2539041,6.80077867 78.6914062,7.31640625 C79.1289084,7.83203383 79.3476562,8.51952695 79.3476562,9.37890625 L79.3476562,10.0996094 L75.234375,10.0996094 L75.2167969,10.1289062 C75.2285157,10.7382843 75.382811,11.2392558 75.6796875,11.6318359 C75.976564,12.024416 76.3925754,12.2207031 76.9277344,12.2207031 C77.3183613,12.2207031 77.6611313,12.1650396 77.9560547,12.0537109 C78.250978,11.9423823 78.5058583,11.7890635 78.7207031,11.59375 L79.171875,12.34375 C78.9453114,12.5664074 78.6464862,12.7519524 78.2753906,12.9003906 C77.904295,13.0488289 77.4550808,13.1230469 76.9277344,13.1230469 Z M76.7519531,7.45117188 C76.3652324,7.45117188 76.0351576,7.61425618 75.7617188,7.94042969 C75.4882799,8.26660319 75.3203128,8.67577879 75.2578125,9.16796875 L75.2695312,9.19726562 L78.1933594,9.19726562 L78.1933594,9.04492188 C78.1933594,8.59179461 78.0722668,8.21289215 77.8300781,7.90820312 C77.5878894,7.6035141 77.228518,7.45117188 76.7519531,7.45117188 Z M82.7929688,8.99804688 L84.140625,6.66015625 L85.4882812,6.66015625 L83.4316406,9.79492188 L85.546875,13 L84.2226562,13 L82.8164062,10.6035156 L81.4101562,13 L80.0742188,13 L82.1894531,9.79492188 L80.1328125,6.66015625 L81.4628906,6.66015625 L82.7929688,8.99804688 Z M88.2011719,5.13085938 L88.2011719,6.66015625 L89.4023438,6.66015625 L89.4023438,7.515625 L88.2011719,7.515625 L88.2011719,11.3652344 C88.2011719,11.6621109 88.2626947,11.8710931 88.3857422,11.9921875 C88.5087897,12.1132819 88.671874,12.1738281 88.875,12.1738281 C88.9414066,12.1738281 89.014648,12.1660157 89.0947266,12.1503906 C89.1748051,12.1347655 89.2460934,12.1152345 89.3085938,12.0917969 L89.4609375,12.8828125 C89.3749996,12.9531254 89.2490243,13.010742 89.0830078,13.0556641 C88.9169914,13.1005862 88.7500008,13.1230469 88.5820312,13.1230469 C88.1132789,13.1230469 87.7402358,12.9814467 87.4628906,12.6982422 C87.1855455,12.4150376 87.046875,11.9707062 87.046875,11.3652344 L87.046875,7.515625 L86.0390625,7.515625 L86.0390625,6.66015625 L87.046875,6.66015625 L87.046875,5.13085938 L88.2011719,5.13085938 Z"></path>
                <path d="M6.09960938,27.2265625 L2.20898438,27.2265625 L2.20898438,31 L1.0546875,31 L1.0546875,22.46875 L6.69726562,22.46875 L6.69726562,23.3769531 L2.20898438,23.3769531 L2.20898438,26.3183594 L6.09960938,26.3183594 L6.09960938,27.2265625 Z M7.43554688,27.7714844 C7.43554688,26.8339797 7.68945059,26.0615265 8.19726562,25.4541016 C8.70508066,24.8466767 9.39452689,24.5429687 10.265625,24.5429687 C11.1445356,24.5429687 11.8388646,24.8457001 12.3486328,25.4511719 C12.858401,26.0566437 13.1132812,26.8300734 13.1132812,27.7714844 L13.1132812,27.9003906 C13.1132812,28.8457079 12.8593775,29.6191376 12.3515625,30.2207031 C11.8437475,30.8222686 11.1523481,31.1230469 10.2773438,31.1230469 C9.40233938,31.1230469 8.70996349,30.8212921 8.20019531,30.2177734 C7.69042714,29.6142548 7.43554688,28.8418016 7.43554688,27.9003906 L7.43554688,27.7714844 Z M8.58984375,27.9003906 C8.58984375,28.572269 8.7314439,29.1269509 9.01464844,29.5644531 C9.29785298,30.0019553 9.71874721,30.2207031 10.2773438,30.2207031 C10.8281278,30.2207031 11.2460923,30.0019553 11.53125,29.5644531 C11.8164077,29.1269509 11.9589844,28.572269 11.9589844,27.9003906 L11.9589844,27.7714844 C11.9589844,27.1074186 11.8154311,26.5546897 11.5283203,26.1132812 C11.2412095,25.6718728 10.8203153,25.4511719 10.265625,25.4511719 C9.714841,25.4511719 9.29785298,25.6718728 9.01464844,26.1132812 C8.7314439,26.5546897 8.58984375,27.1074186 8.58984375,27.7714844 L8.58984375,27.9003906 Z M15.5566406,24.6601562 L15.6386719,25.6035156 C15.8496104,25.2675764 16.1142562,25.0068369 16.4326172,24.8212891 C16.7509782,24.6357413 17.1132792,24.5429687 17.5195312,24.5429687 C18.2031284,24.5429687 18.73242,24.7431621 19.1074219,25.1435547 C19.4824237,25.5439473 19.6699219,26.1621052 19.6699219,26.9980469 L19.6699219,31 L18.515625,31 L18.515625,27.0214844 C18.515625,26.4628878 18.4052745,26.0664074 18.1845703,25.8320312 C17.9638661,25.5976551 17.6269554,25.4804687 17.1738281,25.4804687 C16.8417952,25.4804687 16.5478528,25.5605461 16.2919922,25.7207031 C16.0361315,25.8808602 15.832032,26.099608 15.6796875,26.3769531 L15.6796875,31 L14.5253906,31 L14.5253906,24.6601562 L15.5566406,24.6601562 Z M22.8691406,23.1308594 L22.8691406,24.6601562 L24.0703125,24.6601562 L24.0703125,25.515625 L22.8691406,25.515625 L22.8691406,29.3652344 C22.8691406,29.6621109 22.9306634,29.8710931 23.0537109,29.9921875 C23.1767584,30.1132819 23.3398427,30.1738281 23.5429688,30.1738281 C23.6093753,30.1738281 23.6826168,30.1660157 23.7626953,30.1503906 C23.8427738,30.1347655 23.9140622,30.1152345 23.9765625,30.0917969 L24.1289062,30.8828125 C24.0429683,30.9531254 23.916993,31.010742 23.7509766,31.0556641 C23.5849601,31.1005862 23.4179696,31.1230469 23.25,31.1230469 C22.7812477,31.1230469 22.4082045,30.9814467 22.1308594,30.6982422 C21.8535142,30.4150376 21.7148438,29.9707062 21.7148438,29.3652344 L21.7148438,25.515625 L20.7070312,25.515625 L20.7070312,24.6601562 L21.7148438,24.6601562 L21.7148438,23.1308594 L22.8691406,23.1308594 Z M26.7539062,31 L25.5996094,31 L25.5996094,29.8164062 L26.7539062,29.8164062 L26.7539062,31 Z M26.7539062,25.8671875 L25.5996094,25.8671875 L25.5996094,24.6835937 L26.7539062,24.6835937 L26.7539062,25.8671875 Z M32.8769531,27.3027344 L32.8769531,31 L31.7226562,31 L31.7226562,22.4746094 L34.8105469,22.4746094 C35.7441453,22.4746094 36.4570288,22.6816386 36.9492188,23.0957031 C37.4414087,23.5097677 37.6875,24.1113242 37.6875,24.9003906 C37.6875,25.3378928 37.5732433,25.7187484 37.3447266,26.0429687 C37.1162098,26.3671891 36.7832053,26.624999 36.3457031,26.8164062 C36.8144555,26.9687508 37.1513662,27.2158186 37.3564453,27.5576172 C37.5615245,27.8994158 37.6640625,28.3222631 37.6640625,28.8261719 L37.6640625,29.6289062 C37.6640625,29.8945326 37.6933591,30.1328114 37.7519531,30.34375 C37.8105472,30.5546886 37.9121087,30.7265618 38.0566406,30.859375 L38.0566406,31 L36.8671875,31 C36.714843,30.8671868 36.6171877,30.6718763 36.5742188,30.4140625 C36.5312498,30.1562487 36.5097656,29.8906264 36.5097656,29.6171875 L36.5097656,28.8378906 C36.5097656,28.3769508 36.3750013,28.0058608 36.1054688,27.7246094 C35.8359362,27.443358 35.4746116,27.3027344 35.0214844,27.3027344 L32.8769531,27.3027344 Z M32.8769531,26.3945312 L34.6933594,26.3945312 C35.3457064,26.3945312 35.8154283,26.2705091 36.1025391,26.0224609 C36.3896499,25.7744128 36.5332031,25.3964869 36.5332031,24.8886719 C36.5332031,24.4082007 36.3935561,24.0361341 36.1142578,23.7724609 C35.8349595,23.5087877 35.4003936,23.3769531 34.8105469,23.3769531 L32.8769531,23.3769531 L32.8769531,26.3945312 Z M39.1875,27.7714844 C39.1875,26.8339797 39.4414037,26.0615265 39.9492188,25.4541016 C40.4570338,24.8466767 41.14648,24.5429687 42.0175781,24.5429687 C42.8964888,24.5429687 43.5908178,24.8457001 44.1005859,25.4511719 C44.6103541,26.0566437 44.8652344,26.8300734 44.8652344,27.7714844 L44.8652344,27.9003906 C44.8652344,28.8457079 44.6113307,29.6191376 44.1035156,30.2207031 C43.5957006,30.8222686 42.9043013,31.1230469 42.0292969,31.1230469 C41.1542925,31.1230469 40.4619166,30.8212921 39.9521484,30.2177734 C39.4423803,29.6142548 39.1875,28.8418016 39.1875,27.9003906 L39.1875,27.7714844 Z M40.3417969,27.9003906 C40.3417969,28.572269 40.483397,29.1269509 40.7666016,29.5644531 C41.0498061,30.0019553 41.4707003,30.2207031 42.0292969,30.2207031 C42.5800809,30.2207031 42.9980454,30.0019553 43.2832031,29.5644531 C43.5683608,29.1269509 43.7109375,28.572269 43.7109375,27.9003906 L43.7109375,27.7714844 C43.7109375,27.1074186 43.5673842,26.5546897 43.2802734,26.1132812 C42.9931626,25.6718728 42.5722684,25.4511719 42.0175781,25.4511719 C41.4667941,25.4511719 41.0498061,25.6718728 40.7666016,26.1132812 C40.483397,26.5546897 40.3417969,27.1074186 40.3417969,27.7714844 L40.3417969,27.9003906 Z M51.6914062,28.0703125 C51.6914062,28.9843796 51.4716819,29.7216769 51.0322266,30.2822266 C50.5927712,30.8427762 49.9882851,31.1230469 49.21875,31.1230469 C48.8007792,31.1230469 48.4375015,31.041993 48.1289062,30.8798828 C47.820311,30.7177726 47.5644541,30.4785172 47.3613281,30.1621094 L47.2207031,31 L46.2773438,31 L46.2773438,21.859375 L47.4316406,21.859375 L47.4316406,25.4101562 C47.6308604,25.1289048 47.8779282,24.9140632 48.1728516,24.765625 C48.4677749,24.6171868 48.812498,24.5429687 49.2070312,24.5429687 C49.9882852,24.5429687 50.5976541,24.8554656 51.0351562,25.4804687 C51.4726584,26.1054719 51.6914062,26.9277293 51.6914062,27.9472656 L51.6914062,28.0703125 Z M50.5371094,27.9472656 C50.5371094,27.2206995 50.4033217,26.627932 50.1357422,26.1689453 C49.8681627,25.7099586 49.4609402,25.4804687 48.9140625,25.4804687 C48.558592,25.4804687 48.2587903,25.5673819 48.0146484,25.7412109 C47.7705066,25.9150399 47.5761726,26.148436 47.4316406,26.4414062 L47.4316406,29.1894531 C47.5800789,29.5019547 47.7744129,29.7460929 48.0146484,29.921875 C48.254884,30.0976571 48.5585919,30.1855469 48.9257812,30.1855469 C49.4687527,30.1855469 49.8730455,29.9921894 50.1386719,29.6054687 C50.4042982,29.2187481 50.5371094,28.7070344 50.5371094,28.0703125 L50.5371094,27.9472656 Z M52.828125,27.7714844 C52.828125,26.8339797 53.0820287,26.0615265 53.5898438,25.4541016 C54.0976588,24.8466767 54.787105,24.5429687 55.6582031,24.5429687 C56.5371138,24.5429687 57.2314428,24.8457001 57.7412109,25.4511719 C58.2509791,26.0566437 58.5058594,26.8300734 58.5058594,27.7714844 L58.5058594,27.9003906 C58.5058594,28.8457079 58.2519557,29.6191376 57.7441406,30.2207031 C57.2363256,30.8222686 56.5449263,31.1230469 55.6699219,31.1230469 C54.7949175,31.1230469 54.1025416,30.8212921 53.5927734,30.2177734 C53.0830053,29.6142548 52.828125,28.8418016 52.828125,27.9003906 L52.828125,27.7714844 Z M53.9824219,27.9003906 C53.9824219,28.572269 54.124022,29.1269509 54.4072266,29.5644531 C54.6904311,30.0019553 55.1113253,30.2207031 55.6699219,30.2207031 C56.2207059,30.2207031 56.6386704,30.0019553 56.9238281,29.5644531 C57.2089858,29.1269509 57.3515625,28.572269 57.3515625,27.9003906 L57.3515625,27.7714844 C57.3515625,27.1074186 57.2080092,26.5546897 56.9208984,26.1132812 C56.6337876,25.6718728 56.2128934,25.4511719 55.6582031,25.4511719 C55.1074191,25.4511719 54.6904311,25.6718728 54.4072266,26.1132812 C54.124022,26.5546897 53.9824219,27.1074186 53.9824219,27.7714844 L53.9824219,27.9003906 Z M61.4414062,23.1308594 L61.4414062,24.6601562 L62.6425781,24.6601562 L62.6425781,25.515625 L61.4414062,25.515625 L61.4414062,29.3652344 C61.4414062,29.6621109 61.5029291,29.8710931 61.6259766,29.9921875 C61.7490241,30.1132819 61.9121084,30.1738281 62.1152344,30.1738281 C62.181641,30.1738281 62.2548824,30.1660157 62.3349609,30.1503906 C62.4150395,30.1347655 62.4863278,30.1152345 62.5488281,30.0917969 L62.7011719,30.8828125 C62.6152339,30.9531254 62.4892586,31.010742 62.3232422,31.0556641 C62.1572257,31.1005862 61.9902352,31.1230469 61.8222656,31.1230469 C61.3535133,31.1230469 60.9804701,30.9814467 60.703125,30.6982422 C60.4257799,30.4150376 60.2871094,29.9707062 60.2871094,29.3652344 L60.2871094,25.515625 L59.2792969,25.515625 L59.2792969,24.6601562 L60.2871094,24.6601562 L60.2871094,23.1308594 L61.4414062,23.1308594 Z M63.796875,27.7714844 C63.796875,26.8339797 64.0507787,26.0615265 64.5585938,25.4541016 C65.0664088,24.8466767 65.755855,24.5429687 66.6269531,24.5429687 C67.5058638,24.5429687 68.2001928,24.8457001 68.7099609,25.4511719 C69.2197291,26.0566437 69.4746094,26.8300734 69.4746094,27.7714844 L69.4746094,27.9003906 C69.4746094,28.8457079 69.2207057,29.6191376 68.7128906,30.2207031 C68.2050756,30.8222686 67.5136763,31.1230469 66.6386719,31.1230469 C65.7636675,31.1230469 65.0712916,30.8212921 64.5615234,30.2177734 C64.0517553,29.6142548 63.796875,28.8418016 63.796875,27.9003906 L63.796875,27.7714844 Z M64.9511719,27.9003906 C64.9511719,28.572269 65.092772,29.1269509 65.3759766,29.5644531 C65.6591811,30.0019553 66.0800753,30.2207031 66.6386719,30.2207031 C67.1894559,30.2207031 67.6074204,30.0019553 67.8925781,29.5644531 C68.1777358,29.1269509 68.3203125,28.572269 68.3203125,27.9003906 L68.3203125,27.7714844 C68.3203125,27.1074186 68.1767592,26.5546897 67.8896484,26.1132812 C67.6025376,25.6718728 67.1816434,25.4511719 66.6269531,25.4511719 C66.0761691,25.4511719 65.6591811,25.6718728 65.3759766,26.1132812 C65.092772,26.5546897 64.9511719,27.1074186 64.9511719,27.7714844 L64.9511719,27.9003906 Z M75.3046875,31 L74.1445312,31 L74.1445312,22.46875 L75.3046875,22.46875 L75.3046875,31 Z M78.7851562,23.1308594 L78.7851562,24.6601562 L79.9863281,24.6601562 L79.9863281,25.515625 L78.7851562,25.515625 L78.7851562,29.3652344 C78.7851562,29.6621109 78.8466791,29.8710931 78.9697266,29.9921875 C79.0927741,30.1132819 79.2558584,30.1738281 79.4589844,30.1738281 C79.525391,30.1738281 79.5986324,30.1660157 79.6787109,30.1503906 C79.7587895,30.1347655 79.8300778,30.1152345 79.8925781,30.0917969 L80.0449219,30.8828125 C79.9589839,30.9531254 79.8330086,31.010742 79.6669922,31.0556641 C79.5009757,31.1005862 79.3339852,31.1230469 79.1660156,31.1230469 C78.6972633,31.1230469 78.3242201,30.9814467 78.046875,30.6982422 C77.7695299,30.4150376 77.6308594,29.9707062 77.6308594,29.3652344 L77.6308594,25.515625 L76.6230469,25.515625 L76.6230469,24.6601562 L77.6308594,24.6601562 L77.6308594,23.1308594 L78.7851562,23.1308594 Z M85.3066406,31 C85.2675779,30.8085928 85.2373048,30.6396492 85.2158203,30.4931641 C85.1943358,30.346679 85.1816406,30.1992195 85.1777344,30.0507812 C84.9628896,30.3554703 84.6826189,30.6103505 84.3369141,30.8154297 C83.9912092,31.0205088 83.6191426,31.1230469 83.2207031,31.1230469 C82.5605436,31.1230469 82.0576189,30.9541033 81.7119141,30.6162109 C81.3662092,30.2783186 81.1933594,29.812503 81.1933594,29.21875 C81.1933594,28.6132782 81.4384741,28.1396501 81.9287109,27.7978516 C82.4189478,27.456053 83.0839802,27.2851562 83.9238281,27.2851562 L85.1777344,27.2851562 L85.1777344,26.6582031 C85.1777344,26.2871075 85.0644543,25.9931651 84.8378906,25.7763672 C84.611327,25.5595692 84.2910177,25.4511719 83.8769531,25.4511719 C83.5058575,25.4511719 83.2041027,25.5458975 82.9716797,25.7353516 C82.7392567,25.9248056 82.6230469,26.1523424 82.6230469,26.4179687 L81.5214844,26.4179687 L81.5097656,26.3828125 C81.486328,25.9218727 81.7040993,25.5000019 82.1630859,25.1171875 C82.6220726,24.7343731 83.2148401,24.5429687 83.9414062,24.5429687 C84.6601598,24.5429687 85.2382791,24.7255841 85.6757812,25.0908203 C86.1132834,25.4560565 86.3320312,25.9824184 86.3320312,26.6699219 L86.3320312,29.7226562 C86.3320312,29.9492199 86.3437499,30.1679677 86.3671875,30.3789062 C86.3906251,30.5898448 86.4335934,30.796874 86.4960938,31 L85.3066406,31 Z M83.390625,30.15625 C83.8085958,30.15625 84.1855452,30.0488292 84.5214844,29.8339844 C84.8574236,29.6191396 85.0761714,29.3730483 85.1777344,29.0957031 L85.1777344,28.0644531 L83.8828125,28.0644531 C83.4179664,28.0644531 83.0458998,28.1816395 82.7666016,28.4160156 C82.4873033,28.6503918 82.3476562,28.9257797 82.3476562,29.2421875 C82.3476562,29.5234389 82.435546,29.7460929 82.6113281,29.9101562 C82.7871103,30.0742196 83.0468733,30.15625 83.390625,30.15625 Z M89.2558594,31 L88.1015625,31 L88.1015625,21.859375 L89.2558594,21.859375 L89.2558594,31 Z M92.2792969,31 L91.125,31 L91.125,24.6601562 L92.2792969,24.6601562 L92.2792969,31 Z M92.2792969,23.0371094 L91.125,23.0371094 L91.125,21.859375 L92.2792969,21.859375 L92.2792969,23.0371094 Z M96.6328125,30.2207031 C97.0156269,30.2207031 97.3525376,30.1025402 97.6435547,29.8662109 C97.9345718,29.6298816 98.0800781,29.3398455 98.0800781,28.9960937 L99.1171875,28.9960937 L99.1289062,29.03125 C99.1484376,29.5781277 98.905276,30.0634744 98.3994141,30.4873047 C97.8935522,30.9111349 97.3046909,31.1230469 96.6328125,31.1230469 C95.7109329,31.1230469 95.0058618,30.8222686 94.5175781,30.2207031 C94.0292944,29.6191376 93.7851562,28.8632858 93.7851562,27.953125 L93.7851562,27.7070312 C93.7851562,26.804683 94.030271,26.0517608 94.5205078,25.4482422 C95.0107446,24.8447235 95.7148392,24.5429687 96.6328125,24.5429687 C97.3750037,24.5429687 97.981443,24.7617166 98.4521484,25.1992187 C98.9228539,25.6367209 99.1503907,26.1738249 99.1347656,26.8105469 L99.1230469,26.8457031 L98.0800781,26.8457031 C98.0800781,26.4589824 97.9433607,26.1298842 97.6699219,25.8583984 C97.396483,25.5869127 97.0507833,25.4511719 96.6328125,25.4511719 C96.0273407,25.4511719 95.5947279,25.6689431 95.3349609,26.1044922 C95.075194,26.5400412 94.9453125,27.0742156 94.9453125,27.7070312 L94.9453125,27.953125 C94.9453125,28.6015657 95.0742175,29.1415994 95.3320312,29.5732422 C95.589845,30.004885 96.0234345,30.2207031 96.6328125,30.2207031 Z M101.431641,30.71875 L100.552734,32.5117187 L99.8671875,32.5117187 L100.277344,30.6601562 L100.277344,29.7050781 L101.431641,29.7050781 L101.431641,30.71875 Z M108.925781,31 L107.771484,31 L107.771484,23.59375 L106.025391,23.6171875 L106.025391,22.7851562 L108.925781,22.46875 L108.925781,31 Z M115.646484,22.3457031 C115.939455,22.3457031 116.229491,22.3789059 116.516602,22.4453125 C116.803712,22.5117191 117.041015,22.5957026 117.228516,22.6972656 L116.982422,23.5820312 C116.791015,23.4843745 116.590821,23.4052737 116.381836,23.3447266 C116.172851,23.2841794 115.927736,23.2539062 115.646484,23.2539062 C115.037106,23.2539062 114.5459,23.4980444 114.172852,23.9863281 C113.799803,24.4746118 113.613281,25.1113242 113.613281,25.8964844 L113.613281,26.03125 C113.863282,25.8124989 114.149412,25.6416022 114.47168,25.5185547 C114.793947,25.3955072 115.140623,25.3339844 115.511719,25.3339844 C116.273441,25.3339844 116.880857,25.5976536 117.333984,26.125 C117.787112,26.6523464 118.013672,27.3203085 118.013672,28.1289062 C118.013672,29.0117232 117.772463,29.7314425 117.290039,30.2880859 C116.807615,30.8447293 116.164067,31.1230469 115.359375,31.1230469 C114.523433,31.1230469 113.832034,30.8203155 113.285156,30.2148437 C112.738279,29.609372 112.464844,28.7558649 112.464844,27.6542969 L112.464844,26.0253906 C112.464844,24.9316352 112.769528,24.0449253 113.378906,23.3652344 C113.988284,22.6855435 114.744136,22.3457031 115.646484,22.3457031 Z M115.253906,26.1953125 C114.859373,26.1953125 114.523439,26.2753898 114.246094,26.4355469 C113.968749,26.5957039 113.757813,26.8085924 113.613281,27.0742187 L113.613281,27.765625 C113.613281,28.5507852 113.779295,29.1562479 114.111328,29.5820312 C114.443361,30.0078146 114.859373,30.2207031 115.359375,30.2207031 C115.832034,30.2207031 116.200194,30.0205098 116.463867,29.6201172 C116.72754,29.2197246 116.859375,28.7226592 116.859375,28.1289062 C116.859375,27.5664034 116.717775,27.1035174 116.43457,26.7402344 C116.151366,26.3769513 115.757815,26.1953125 115.253906,26.1953125 Z M124.6875,28.0703125 C124.6875,28.9843796 124.468752,29.7216769 124.03125,30.2822266 C123.593748,30.8427762 122.990238,31.1230469 122.220703,31.1230469 C121.830076,31.1230469 121.487306,31.0576178 121.192383,30.9267578 C120.897459,30.7958978 120.646485,30.5996107 120.439453,30.3378906 L120.439453,33.4375 L119.285156,33.4375 L119.285156,24.6601562 L120.169922,24.6601562 L120.351562,25.4804687 C120.558595,25.1757797 120.816405,24.9433602 121.125,24.7832031 C121.433595,24.6230461 121.792967,24.5429687 122.203125,24.5429687 C122.988285,24.5429687 123.598631,24.8544891 124.03418,25.4775391 C124.469729,26.1005891 124.6875,26.923823 124.6875,27.9472656 L124.6875,28.0703125 Z M123.533203,27.9472656 C123.533203,27.228512 123.391603,26.6376976 123.108398,26.1748047 C122.825194,25.7119117 122.408206,25.4804687 121.857422,25.4804687 C121.525389,25.4804687 121.242189,25.5556633 121.007812,25.7060547 C120.773436,25.8564461 120.583985,26.0624987 120.439453,26.3242187 L120.439453,29.3886719 C120.583985,29.6503919 120.773436,29.8544915 121.007812,30.0009766 C121.242189,30.1474617 121.529295,30.2207031 121.869141,30.2207031 C122.416018,30.2207031 122.830077,30.0205098 123.111328,29.6201172 C123.39258,29.2197246 123.533203,28.7031282 123.533203,28.0703125 L123.533203,27.9472656 Z M128.167969,26.9980469 L129.515625,24.6601562 L130.863281,24.6601562 L128.806641,27.7949219 L130.921875,31 L129.597656,31 L128.191406,28.6035156 L126.785156,31 L125.449219,31 L127.564453,27.7949219 L125.507812,24.6601562 L126.837891,24.6601562 L128.167969,26.9980469 Z"></path>
                <path d="M7.08398438,46.2695312 L7.09570313,46.3046875 C7.1113282,47.1054728 6.83008102,47.7753879 6.25195313,48.3144531 C5.67382523,48.8535183 4.910161,49.1230469 3.9609375,49.1230469 C2.99608893,49.1230469 2.20996397,48.7812534 1.60253906,48.0976562 C0.99511415,47.4140591 0.69140625,46.5468803 0.69140625,45.4960937 L0.69140625,43.9785156 C0.69140625,42.9277291 0.99511415,42.0595737 1.60253906,41.3740234 C2.20996397,40.6884731 2.99608893,40.3457031 3.9609375,40.3457031 C4.92578607,40.3457031 5.69335652,40.6025365 6.26367188,41.1162109 C6.83398723,41.6298854 7.1113282,42.3105426 7.09570313,43.1582031 L7.08398438,43.1933594 L5.9765625,43.1933594 C5.9765625,42.5957001 5.80078301,42.1230486 5.44921875,41.7753906 C5.09765449,41.4277326 4.6015657,41.2539062 3.9609375,41.2539062 C3.31640303,41.2539062 2.80273629,41.5136693 2.41992188,42.0332031 C2.03710746,42.552737 1.84570313,43.1972618 1.84570313,43.9667969 L1.84570313,45.4960937 C1.84570313,46.2734414 2.03710746,46.9218724 2.41992188,47.4414062 C2.80273629,47.9609401 3.31640303,48.2207031 3.9609375,48.2207031 C4.6015657,48.2207031 5.09765449,48.0478533 5.44921875,47.7021484 C5.80078301,47.3564436 5.9765625,46.8789093 5.9765625,46.2695312 L7.08398438,46.2695312 Z M8.16796875,45.7714844 C8.16796875,44.8339797 8.42187246,44.0615265 8.9296875,43.4541016 C9.43750254,42.8466767 10.1269488,42.5429687 10.9980469,42.5429687 C11.8769575,42.5429687 12.5712865,42.8457001 13.0810547,43.4511719 C13.5908229,44.0566437 13.8457031,44.8300734 13.8457031,45.7714844 L13.8457031,45.9003906 C13.8457031,46.8457079 13.5917994,47.6191376 13.0839844,48.2207031 C12.5761693,48.8222686 11.88477,49.1230469 11.0097656,49.1230469 C10.1347613,49.1230469 9.44238536,48.8212921 8.93261719,48.2177734 C8.42284901,47.6142548 8.16796875,46.8418016 8.16796875,45.9003906 L8.16796875,45.7714844 Z M9.32226562,45.9003906 C9.32226562,46.572269 9.46386577,47.1269509 9.74707031,47.5644531 C10.0302749,48.0019553 10.4511691,48.2207031 11.0097656,48.2207031 C11.5605496,48.2207031 11.9785142,48.0019553 12.2636719,47.5644531 C12.5488296,47.1269509 12.6914062,46.572269 12.6914062,45.9003906 L12.6914062,45.7714844 C12.6914062,45.1074186 12.547853,44.5546897 12.2607422,44.1132812 C11.9736314,43.6718728 11.5527371,43.4511719 10.9980469,43.4511719 C10.4472629,43.4511719 10.0302749,43.6718728 9.74707031,44.1132812 C9.46386577,44.5546897 9.32226562,45.1074186 9.32226562,45.7714844 L9.32226562,45.9003906 Z M16.5058594,49 L15.3515625,49 L15.3515625,39.859375 L16.5058594,39.859375 L16.5058594,49 Z M18.0117188,45.7714844 C18.0117188,44.8339797 18.2656225,44.0615265 18.7734375,43.4541016 C19.2812525,42.8466767 19.9706988,42.5429687 20.8417969,42.5429687 C21.7207075,42.5429687 22.4150365,42.8457001 22.9248047,43.4511719 C23.4345729,44.0566437 23.6894531,44.8300734 23.6894531,45.7714844 L23.6894531,45.9003906 C23.6894531,46.8457079 23.4355494,47.6191376 22.9277344,48.2207031 C22.4199193,48.8222686 21.72852,49.1230469 20.8535156,49.1230469 C19.9785113,49.1230469 19.2861354,48.8212921 18.7763672,48.2177734 C18.266599,47.6142548 18.0117188,46.8418016 18.0117188,45.9003906 L18.0117188,45.7714844 Z M19.1660156,45.9003906 C19.1660156,46.572269 19.3076158,47.1269509 19.5908203,47.5644531 C19.8740249,48.0019553 20.2949191,48.2207031 20.8535156,48.2207031 C21.4042996,48.2207031 21.8222642,48.0019553 22.1074219,47.5644531 C22.3925796,47.1269509 22.5351562,46.572269 22.5351562,45.9003906 L22.5351562,45.7714844 C22.5351562,45.1074186 22.391603,44.5546897 22.1044922,44.1132812 C21.8173814,43.6718728 21.3964871,43.4511719 20.8417969,43.4511719 C20.2910129,43.4511719 19.8740249,43.6718728 19.5908203,44.1132812 C19.3076158,44.5546897 19.1660156,45.1074186 19.1660156,45.7714844 L19.1660156,45.9003906 Z M28.1015625,43.6796875 L27.5097656,43.6445312 C27.2050766,43.6445312 26.9482432,43.7167962 26.7392578,43.8613281 C26.5302724,44.0058601 26.3691412,44.2089831 26.2558594,44.4707031 L26.2558594,49 L25.1015625,49 L25.1015625,42.6601562 L26.1328125,42.6601562 L26.2441406,43.5859375 C26.423829,43.2578109 26.6455065,43.001954 26.9091797,42.8183594 C27.1728529,42.6347647 27.4765608,42.5429687 27.8203125,42.5429687 C27.9062504,42.5429687 27.9882809,42.5498046 28.0664062,42.5634766 C28.1445316,42.5771485 28.2089841,42.5917968 28.2597656,42.6074219 L28.1015625,43.6796875 Z M29.4667969,49 L28.3125,49 L28.3125,47.8164062 L29.4667969,47.8164062 L29.4667969,49 Z M29.4667969,43.8671875 L28.3125,43.8671875 L28.3125,42.6835937 L29.4667969,42.6835937 L29.4667969,43.8671875 Z M37.5527344,46.5976562 L36.0585938,46.5976562 L35.5898438,49 L34.7050781,49 L35.1738281,46.5976562 L33.7910156,46.5976562 L33.7910156,45.7773437 L35.3378906,45.7773437 L35.7363281,43.7382812 L34.2363281,43.7382812 L34.2363281,42.90625 L35.9003906,42.90625 L36.3808594,40.46875 L37.265625,40.46875 L36.7851562,42.90625 L38.2792969,42.90625 L38.7597656,40.46875 L39.6445312,40.46875 L39.1640625,42.90625 L40.3300781,42.90625 L40.3300781,43.7382812 L39.0058594,43.7382812 L38.6074219,45.7773437 L39.890625,45.7773437 L39.890625,46.5976562 L38.4433594,46.5976562 L37.9746094,49 L37.0839844,49 L37.5527344,46.5976562 Z M36.2226562,45.7773437 L37.7167969,45.7773437 L38.1152344,43.7382812 L36.6210938,43.7382812 L36.2226562,45.7773437 Z M43.8515625,48.2207031 C44.4140653,48.2207031 44.8642561,48.0078146 45.2021484,47.5820312 C45.5400408,47.1562479 45.7089844,46.5234417 45.7089844,45.6835937 L45.7089844,45.296875 C45.5175772,45.5742201 45.2783217,45.784179 44.9912109,45.9267578 C44.7041001,46.0693367 44.3847674,46.140625 44.0332031,46.140625 C43.2089803,46.140625 42.5546899,45.8857447 42.0703125,45.3759766 C41.5859351,44.8662084 41.34375,44.164067 41.34375,43.2695312 C41.34375,42.4140582 41.6005834,41.7128934 42.1142578,41.1660156 C42.6279323,40.6191379 43.2519495,40.3457031 43.9863281,40.3457031 C44.8769576,40.3457031 45.579099,40.6240207 46.0927734,41.1806641 C46.6064479,41.7373075 46.8632812,42.5566352 46.8632812,43.6386719 L46.8632812,45.671875 C46.8632812,46.7851618 46.5849637,47.6386689 46.0283203,48.2324219 C45.4716769,48.8261748 44.7460982,49.1230469 43.8515625,49.1230469 C43.5507797,49.1230469 43.2451187,49.0947268 42.9345703,49.0380859 C42.6240219,48.981445 42.3457044,48.8945318 42.0996094,48.7773437 L42.2753906,47.8925781 C42.5058605,48.0136725 42.7451159,48.0986326 42.9931641,48.1474609 C43.2412122,48.1962893 43.5273421,48.2207031 43.8515625,48.2207031 Z M44.0332031,45.2382812 C44.4589865,45.2382812 44.8134751,45.1464853 45.0966797,44.9628906 C45.3798842,44.779296 45.5839838,44.5449233 45.7089844,44.2597656 L45.7089844,43.5214844 C45.7089844,42.7753869 45.5654311,42.2109394 45.2783203,41.828125 C44.9912095,41.4453106 44.5722684,41.2539062 44.0214844,41.2539062 C43.5996073,41.2539062 43.2402359,41.4423809 42.9433594,41.8193359 C42.6464829,42.1962909 42.4980469,42.6796846 42.4980469,43.2695312 C42.4980469,43.8554717 42.6357408,44.3300763 42.9111328,44.6933594 C43.1865248,45.0566424 43.5605445,45.2382812 44.0332031,45.2382812 Z M51.0820312,49.1230469 C50.1992143,49.1230469 49.4970729,48.8291045 48.9755859,48.2412109 C48.454099,47.6533174 48.1933594,46.8906297 48.1933594,45.953125 L48.1933594,45.6953125 C48.1933594,44.7929642 48.4619114,44.0419952 48.9990234,43.4423828 C49.5361355,42.8427704 50.1718713,42.5429687 50.90625,42.5429687 C51.761723,42.5429687 52.4082009,42.8007787 52.8457031,43.3164062 C53.2832053,43.8320338 53.5019531,44.519527 53.5019531,45.3789062 L53.5019531,46.0996094 L49.3886719,46.0996094 L49.3710938,46.1289062 C49.3828126,46.7382843 49.5371079,47.2392558 49.8339844,47.6318359 C50.1308609,48.024416 50.5468723,48.2207031 51.0820312,48.2207031 C51.4726582,48.2207031 51.8154282,48.1650396 52.1103516,48.0537109 C52.4052749,47.9423823 52.6601552,47.7890635 52.875,47.59375 L53.3261719,48.34375 C53.0996082,48.5664074 52.8007831,48.7519524 52.4296875,48.9003906 C52.0585919,49.0488289 51.6093776,49.1230469 51.0820312,49.1230469 Z M50.90625,43.4511719 C50.5195293,43.4511719 50.1894545,43.6142562 49.9160156,43.9404297 C49.6425768,44.2666032 49.4746097,44.6757788 49.4121094,45.1679687 L49.4238281,45.1972656 L52.3476562,45.1972656 L52.3476562,45.0449219 C52.3476562,44.5917946 52.2265637,44.2128921 51.984375,43.9082031 C51.7421863,43.6035141 51.3828149,43.4511719 50.90625,43.4511719 Z M56.953125,48.2207031 C57.5156278,48.2207031 57.9658186,48.0078146 58.3037109,47.5820312 C58.6416033,47.1562479 58.8105469,46.5234417 58.8105469,45.6835937 L58.8105469,45.296875 C58.6191397,45.5742201 58.3798842,45.784179 58.0927734,45.9267578 C57.8056626,46.0693367 57.4863299,46.140625 57.1347656,46.140625 C56.3105428,46.140625 55.6562524,45.8857447 55.171875,45.3759766 C54.6874976,44.8662084 54.4453125,44.164067 54.4453125,43.2695312 C54.4453125,42.4140582 54.7021459,41.7128934 55.2158203,41.1660156 C55.7294948,40.6191379 56.353512,40.3457031 57.0878906,40.3457031 C57.9785201,40.3457031 58.6806615,40.6240207 59.1943359,41.1806641 C59.7080104,41.7373075 59.9648438,42.5566352 59.9648438,43.6386719 L59.9648438,45.671875 C59.9648438,46.7851618 59.6865262,47.6386689 59.1298828,48.2324219 C58.5732394,48.8261748 57.8476607,49.1230469 56.953125,49.1230469 C56.6523422,49.1230469 56.3466812,49.0947268 56.0361328,49.0380859 C55.7255844,48.981445 55.4472669,48.8945318 55.2011719,48.7773437 L55.3769531,47.8925781 C55.607423,48.0136725 55.8466784,48.0986326 56.0947266,48.1474609 C56.3427747,48.1962893 56.6289046,48.2207031 56.953125,48.2207031 Z M57.1347656,45.2382812 C57.560549,45.2382812 57.9150376,45.1464853 58.1982422,44.9628906 C58.4814467,44.779296 58.6855463,44.5449233 58.8105469,44.2597656 L58.8105469,43.5214844 C58.8105469,42.7753869 58.6669936,42.2109394 58.3798828,41.828125 C58.092772,41.4453106 57.6738309,41.2539062 57.1230469,41.2539062 C56.7011698,41.2539062 56.3417984,41.4423809 56.0449219,41.8193359 C55.7480454,42.1962909 55.5996094,42.6796846 55.5996094,43.2695312 C55.5996094,43.8554717 55.7373033,44.3300763 56.0126953,44.6933594 C56.2880873,45.0566424 56.662107,45.2382812 57.1347656,45.2382812 Z M64.1835938,49.1230469 C63.3007768,49.1230469 62.5986354,48.8291045 62.0771484,48.2412109 C61.5556615,47.6533174 61.2949219,46.8906297 61.2949219,45.953125 L61.2949219,45.6953125 C61.2949219,44.7929642 61.5634739,44.0419952 62.1005859,43.4423828 C62.637698,42.8427704 63.2734338,42.5429687 64.0078125,42.5429687 C64.8632855,42.5429687 65.5097634,42.8007787 65.9472656,43.3164062 C66.3847678,43.8320338 66.6035156,44.519527 66.6035156,45.3789062 L66.6035156,46.0996094 L62.4902344,46.0996094 L62.4726562,46.1289062 C62.4843751,46.7382843 62.6386704,47.2392558 62.9355469,47.6318359 C63.2324234,48.024416 63.6484348,48.2207031 64.1835938,48.2207031 C64.5742207,48.2207031 64.9169907,48.1650396 65.2119141,48.0537109 C65.5068374,47.9423823 65.7617177,47.7890635 65.9765625,47.59375 L66.4277344,48.34375 C66.2011707,48.5664074 65.9023456,48.7519524 65.53125,48.9003906 C65.1601544,49.0488289 64.7109401,49.1230469 64.1835938,49.1230469 Z M64.0078125,43.4511719 C63.6210918,43.4511719 63.291017,43.6142562 63.0175781,43.9404297 C62.7441393,44.2666032 62.5761722,44.6757788 62.5136719,45.1679687 L62.5253906,45.1972656 L65.4492188,45.1972656 L65.4492188,45.0449219 C65.4492188,44.5917946 65.3281262,44.2128921 65.0859375,43.9082031 C64.8437488,43.6035141 64.4843774,43.4511719 64.0078125,43.4511719 Z M70.0546875,48.2207031 C70.6171903,48.2207031 71.0673811,48.0078146 71.4052734,47.5820312 C71.7431658,47.1562479 71.9121094,46.5234417 71.9121094,45.6835937 L71.9121094,45.296875 C71.7207022,45.5742201 71.4814467,45.784179 71.1943359,45.9267578 C70.9072251,46.0693367 70.5878924,46.140625 70.2363281,46.140625 C69.4121053,46.140625 68.7578149,45.8857447 68.2734375,45.3759766 C67.7890601,44.8662084 67.546875,44.164067 67.546875,43.2695312 C67.546875,42.4140582 67.8037084,41.7128934 68.3173828,41.1660156 C68.8310573,40.6191379 69.4550745,40.3457031 70.1894531,40.3457031 C71.0800826,40.3457031 71.782224,40.6240207 72.2958984,41.1806641 C72.8095729,41.7373075 73.0664062,42.5566352 73.0664062,43.6386719 L73.0664062,45.671875 C73.0664062,46.7851618 72.7880887,47.6386689 72.2314453,48.2324219 C71.6748019,48.8261748 70.9492232,49.1230469 70.0546875,49.1230469 C69.7539047,49.1230469 69.4482437,49.0947268 69.1376953,49.0380859 C68.8271469,48.981445 68.5488294,48.8945318 68.3027344,48.7773437 L68.4785156,47.8925781 C68.7089855,48.0136725 68.9482409,48.0986326 69.1962891,48.1474609 C69.4443372,48.1962893 69.7304671,48.2207031 70.0546875,48.2207031 Z M70.2363281,45.2382812 C70.6621115,45.2382812 71.0166001,45.1464853 71.2998047,44.9628906 C71.5830092,44.779296 71.7871088,44.5449233 71.9121094,44.2597656 L71.9121094,43.5214844 C71.9121094,42.7753869 71.7685561,42.2109394 71.4814453,41.828125 C71.1943345,41.4453106 70.7753934,41.2539062 70.2246094,41.2539062 C69.8027323,41.2539062 69.4433609,41.4423809 69.1464844,41.8193359 C68.8496079,42.1962909 68.7011719,42.6796846 68.7011719,43.2695312 C68.7011719,43.8554717 68.8388658,44.3300763 69.1142578,44.6933594 C69.3896498,45.0566424 69.7636695,45.2382812 70.2363281,45.2382812 Z M77.2851562,49.1230469 C76.4023393,49.1230469 75.7001979,48.8291045 75.1787109,48.2412109 C74.657224,47.6533174 74.3964844,46.8906297 74.3964844,45.953125 L74.3964844,45.6953125 C74.3964844,44.7929642 74.6650364,44.0419952 75.2021484,43.4423828 C75.7392605,42.8427704 76.3749963,42.5429687 77.109375,42.5429687 C77.964848,42.5429687 78.6113259,42.8007787 79.0488281,43.3164062 C79.4863303,43.8320338 79.7050781,44.519527 79.7050781,45.3789062 L79.7050781,46.0996094 L75.5917969,46.0996094 L75.5742188,46.1289062 C75.5859376,46.7382843 75.7402329,47.2392558 76.0371094,47.6318359 C76.3339859,48.024416 76.7499973,48.2207031 77.2851562,48.2207031 C77.6757832,48.2207031 78.0185532,48.1650396 78.3134766,48.0537109 C78.6083999,47.9423823 78.8632802,47.7890635 79.078125,47.59375 L79.5292969,48.34375 C79.3027332,48.5664074 79.0039081,48.7519524 78.6328125,48.9003906 C78.2617169,49.0488289 77.8125026,49.1230469 77.2851562,49.1230469 Z M77.109375,43.4511719 C76.7226543,43.4511719 76.3925795,43.6142562 76.1191406,43.9404297 C75.8457018,44.2666032 75.6777347,44.6757788 75.6152344,45.1679687 L75.6269531,45.1972656 L78.5507812,45.1972656 L78.5507812,45.0449219 C78.5507812,44.5917946 78.4296887,44.2128921 78.1875,43.9082031 C77.9453113,43.6035141 77.5859399,43.4511719 77.109375,43.4511719 Z M83.9179688,45.5371094 C83.9179688,43.9980392 84.2285125,42.6835992 84.8496094,41.59375 C85.4707062,40.5039008 86.1230435,39.7773456 86.8066406,39.4140625 L86.8417969,39.4199219 L87.0644531,40.0996094 C86.5292942,40.5175802 86.0634785,41.1874954 85.6669922,42.109375 C85.2705058,43.0312546 85.0722656,44.1699151 85.0722656,45.5253906 L85.0722656,45.6015625 C85.0722656,46.957038 85.2695293,48.0956985 85.6640625,49.0175781 C86.0585957,49.9394577 86.5253879,50.6269509 87.0644531,51.0800781 L86.8417969,51.7128906 L86.8066406,51.7128906 C86.1230435,51.3496076 85.4707062,50.6240289 84.8496094,49.5361328 C84.2285125,48.4482367 83.9179688,47.1328202 83.9179688,45.5898437 L83.9179688,45.5371094 Z M87.7089844,45.9472656 C87.7089844,44.9277293 87.9316384,44.1054719 88.3769531,43.4804687 C88.8222679,42.8554656 89.4374961,42.5429687 90.2226562,42.5429687 C90.625002,42.5429687 90.9785141,42.6240226 91.2832031,42.7861328 C91.5878921,42.948243 91.8417959,43.1816391 92.0449219,43.4863281 L92.1855469,42.6601562 L93.1054688,42.6601562 L93.1054688,49.0351562 C93.1054688,49.8476603 92.869143,50.4716775 92.3964844,50.9072266 C91.9238258,51.3427756 91.242192,51.5605469 90.3515625,51.5605469 C90.0468735,51.5605469 89.7177752,51.5185551 89.3642578,51.4345703 C89.0107404,51.3505855 88.6992201,51.2363288 88.4296875,51.0917969 L88.7226562,50.1953125 C88.9296885,50.3125006 89.179686,50.4072262 89.4726562,50.4794922 C89.7656265,50.5517582 90.0546861,50.5878906 90.3398438,50.5878906 C90.9023466,50.5878906 91.3115222,50.4599622 91.5673828,50.2041016 C91.8232435,49.9482409 91.9511719,49.5585964 91.9511719,49.0351562 L91.9511719,48.3203125 C91.7441396,48.5859388 91.4960952,48.7861321 91.2070312,48.9208984 C90.9179673,49.0556647 90.5859394,49.1230469 90.2109375,49.1230469 C89.4335899,49.1230469 88.8222679,48.8417997 88.3769531,48.2792969 C87.9316384,47.7167941 87.7089844,46.9804733 87.7089844,46.0703125 L87.7089844,45.9472656 Z M88.8632812,46.0703125 C88.8632812,46.7070344 88.9980455,47.2187481 89.2675781,47.6054687 C89.5371107,47.9921894 89.9472629,48.1855469 90.4980469,48.1855469 C90.8457049,48.1855469 91.1367176,48.1064461 91.3710938,47.9482422 C91.6054699,47.7900383 91.7988274,47.5664077 91.9511719,47.2773437 L91.9511719,44.359375 C91.8027336,44.0898424 91.6093762,43.8759774 91.3710938,43.7177734 C91.1328113,43.5595695 90.8457048,43.4804687 90.5097656,43.4804687 C89.9589816,43.4804687 89.5468764,43.7109352 89.2734375,44.171875 C88.9999986,44.6328148 88.8632812,45.2246058 88.8632812,45.9472656 L88.8632812,46.0703125 Z M97.78125,43.6796875 L97.1894531,43.6445312 C96.8847641,43.6445312 96.6279307,43.7167962 96.4189453,43.8613281 C96.2099599,44.0058601 96.0488287,44.2089831 95.9355469,44.4707031 L95.9355469,49 L94.78125,49 L94.78125,42.6601562 L95.8125,42.6601562 L95.9238281,43.5859375 C96.1035165,43.2578109 96.325194,43.001954 96.5888672,42.8183594 C96.8525404,42.6347647 97.1562483,42.5429687 97.5,42.5429687 C97.5859379,42.5429687 97.6679684,42.5498046 97.7460938,42.5634766 C97.8242191,42.5771485 97.8886716,42.5917968 97.9394531,42.6074219 L97.78125,43.6796875 Z M102.791016,49 C102.751953,48.8085928 102.72168,48.6396492 102.700195,48.4931641 C102.678711,48.346679 102.666016,48.1992195 102.662109,48.0507812 C102.447265,48.3554703 102.166994,48.6103505 101.821289,48.8154297 C101.475584,49.0205088 101.103518,49.1230469 100.705078,49.1230469 C100.044919,49.1230469 99.5419939,48.9541033 99.1962891,48.6162109 C98.8505842,48.2783186 98.6777344,47.812503 98.6777344,47.21875 C98.6777344,46.6132782 98.9228491,46.1396501 99.4130859,45.7978516 C99.9033228,45.456053 100.568355,45.2851562 101.408203,45.2851562 L102.662109,45.2851562 L102.662109,44.6582031 C102.662109,44.2871075 102.548829,43.9931651 102.322266,43.7763672 C102.095702,43.5595692 101.775393,43.4511719 101.361328,43.4511719 C100.990233,43.4511719 100.688478,43.5458975 100.456055,43.7353516 C100.223632,43.9248056 100.107422,44.1523424 100.107422,44.4179687 L99.0058594,44.4179687 L98.9941406,44.3828125 C98.970703,43.9218727 99.1884743,43.5000019 99.6474609,43.1171875 C100.106448,42.7343731 100.699215,42.5429687 101.425781,42.5429687 C102.144535,42.5429687 102.722654,42.7255841 103.160156,43.0908203 C103.597658,43.4560565 103.816406,43.9824184 103.816406,44.6699219 L103.816406,47.7226562 C103.816406,47.9492199 103.828125,48.1679677 103.851562,48.3789062 C103.875,48.5898448 103.917968,48.796874 103.980469,49 L102.791016,49 Z M100.875,48.15625 C101.292971,48.15625 101.66992,48.0488292 102.005859,47.8339844 C102.341799,47.6191396 102.560546,47.3730483 102.662109,47.0957031 L102.662109,46.0644531 L101.367188,46.0644531 C100.902341,46.0644531 100.530275,46.1816395 100.250977,46.4160156 C99.9716783,46.6503918 99.8320312,46.9257797 99.8320312,47.2421875 C99.8320312,47.5234389 99.919921,47.7460929 100.095703,47.9101562 C100.271485,48.0742196 100.531248,48.15625 100.875,48.15625 Z M107.34375,46.6503906 L107.548828,47.4472656 L107.583984,47.4472656 L109.142578,42.6601562 L110.425781,42.6601562 L107.759766,49.9726562 C107.599609,50.3984396 107.370119,50.7695297 107.071289,51.0859375 C106.772459,51.4023453 106.369143,51.5605469 105.861328,51.5605469 C105.767578,51.5605469 105.648438,51.5498048 105.503906,51.5283203 C105.359374,51.5068358 105.248047,51.4863282 105.169922,51.4667969 L105.287109,50.5585937 C105.263672,50.5546875 105.333007,50.5585937 105.495117,50.5703125 C105.657227,50.5820313 105.759765,50.5878906 105.802734,50.5878906 C106.048829,50.5878906 106.249999,50.4785167 106.40625,50.2597656 C106.562501,50.0410145 106.693359,49.7988295 106.798828,49.5332031 L107.074219,48.8710937 L104.71875,42.6601562 L106.007812,42.6601562 L107.34375,46.6503906 Z M117.539062,40.3457031 C117.832033,40.3457031 118.122069,40.3789059 118.40918,40.4453125 C118.69629,40.5117191 118.933593,40.5957026 119.121094,40.6972656 L118.875,41.5820312 C118.683593,41.4843745 118.483399,41.4052737 118.274414,41.3447266 C118.065429,41.2841794 117.820314,41.2539062 117.539062,41.2539062 C116.929684,41.2539062 116.438478,41.4980444 116.06543,41.9863281 C115.692381,42.4746118 115.505859,43.1113242 115.505859,43.8964844 L115.505859,44.03125 C115.755861,43.8124989 116.041991,43.6416022 116.364258,43.5185547 C116.686525,43.3955072 117.033201,43.3339844 117.404297,43.3339844 C118.166019,43.3339844 118.773435,43.5976536 119.226562,44.125 C119.67969,44.6523464 119.90625,45.3203085 119.90625,46.1289062 C119.90625,47.0117232 119.665041,47.7314425 119.182617,48.2880859 C118.700193,48.8447293 118.056645,49.1230469 117.251953,49.1230469 C116.416011,49.1230469 115.724612,48.8203155 115.177734,48.2148437 C114.630857,47.609372 114.357422,46.7558649 114.357422,45.6542969 L114.357422,44.0253906 C114.357422,42.9316352 114.662106,42.0449253 115.271484,41.3652344 C115.880862,40.6855435 116.636714,40.3457031 117.539062,40.3457031 Z M117.146484,44.1953125 C116.751951,44.1953125 116.416017,44.2753898 116.138672,44.4355469 C115.861327,44.5957039 115.650391,44.8085924 115.505859,45.0742187 L115.505859,45.765625 C115.505859,46.5507852 115.671873,47.1562479 116.003906,47.5820312 C116.335939,48.0078146 116.751951,48.2207031 117.251953,48.2207031 C117.724612,48.2207031 118.092772,48.0205098 118.356445,47.6201172 C118.620119,47.2197246 118.751953,46.7226592 118.751953,46.1289062 C118.751953,45.5664034 118.610353,45.1035174 118.327148,44.7402344 C118.043944,44.3769513 117.650393,44.1953125 117.146484,44.1953125 Z M126.433594,45.7480469 C126.433594,46.8378961 126.192385,47.6728487 125.709961,48.2529297 C125.227537,48.8330107 124.56641,49.1230469 123.726562,49.1230469 C122.886715,49.1230469 122.222659,48.8320342 121.734375,48.25 C121.246091,47.6679658 121.001953,46.8339898 121.001953,45.7480469 L121.001953,43.7265625 C121.001953,42.6406196 121.245115,41.805667 121.731445,41.2216797 C122.217776,40.6376924 122.878902,40.3457031 123.714844,40.3457031 C124.554692,40.3457031 125.217771,40.6376924 125.704102,41.2216797 C126.190432,41.805667 126.433594,42.6406196 126.433594,43.7265625 L126.433594,45.7480469 Z M125.279297,43.4804687 C125.279297,42.7421838 125.145509,42.1865253 124.87793,41.8134766 C124.61035,41.4404278 124.222659,41.2539062 123.714844,41.2539062 C123.207029,41.2539062 122.820314,41.4404278 122.554688,41.8134766 C122.289061,42.1865253 122.15625,42.7421838 122.15625,43.4804687 L122.15625,45.9824219 C122.15625,46.7207068 122.291014,47.2783184 122.560547,47.6552734 C122.830079,48.0322284 123.218747,48.2207031 123.726562,48.2207031 C124.234378,48.2207031 124.620116,48.033205 124.883789,47.6582031 C125.147462,47.2832012 125.279297,46.7246131 125.279297,45.9824219 L125.279297,43.4804687 Z M133.195312,45.7480469 C133.195312,46.8378961 132.954104,47.6728487 132.47168,48.2529297 C131.989255,48.8330107 131.328129,49.1230469 130.488281,49.1230469 C129.648433,49.1230469 128.984377,48.8320342 128.496094,48.25 C128.00781,47.6679658 127.763672,46.8339898 127.763672,45.7480469 L127.763672,43.7265625 C127.763672,42.6406196 128.006834,41.805667 128.493164,41.2216797 C128.979495,40.6376924 129.640621,40.3457031 130.476562,40.3457031 C131.31641,40.3457031 131.97949,40.6376924 132.46582,41.2216797 C132.952151,41.805667 133.195312,42.6406196 133.195312,43.7265625 L133.195312,45.7480469 Z M132.041016,43.4804687 C132.041016,42.7421838 131.907228,42.1865253 131.639648,41.8134766 C131.372069,41.4404278 130.984378,41.2539062 130.476562,41.2539062 C129.968747,41.2539062 129.582033,41.4404278 129.316406,41.8134766 C129.05078,42.1865253 128.917969,42.7421838 128.917969,43.4804687 L128.917969,45.9824219 C128.917969,46.7207068 129.052733,47.2783184 129.322266,47.6552734 C129.591798,48.0322284 129.980466,48.2207031 130.488281,48.2207031 C130.996096,48.2207031 131.381835,48.033205 131.645508,47.6582031 C131.909181,47.2832012 132.041016,46.7246131 132.041016,45.9824219 L132.041016,43.4804687 Z M137.044922,45.5898437 C137.044922,47.1328202 136.733402,48.4482367 136.110352,49.5361328 C135.487302,50.6240289 134.835941,51.3496076 134.15625,51.7128906 L134.121094,51.7128906 L133.898438,51.0800781 C134.425784,50.6699198 134.889646,49.9951219 135.290039,49.0556641 C135.690432,48.1162062 135.890625,46.9648506 135.890625,45.6015625 L135.890625,45.5253906 C135.890625,44.1894464 135.684572,43.0498094 135.272461,42.1064453 C134.86035,41.1630812 134.402346,40.4765646 133.898438,40.046875 L134.121094,39.4140625 L134.15625,39.4140625 C134.835941,39.7773456 135.487302,40.5039008 136.110352,41.59375 C136.733402,42.6835992 137.044922,43.9980392 137.044922,45.5371094 L137.044922,45.5898437 Z"></path>
            </g>
            <g transform="translate(168.000000, 37.000000) scale(-1, 1) translate(-168.000000, -37.000000) translate(97.000000, 12.000000)">
                <path d="M0,24.75 L142,24.75" stroke="#EC407A"></path>
                <g transform="translate(135.000000, 21.250000)">
                    <g>
                        <g fill="#FFFFFF">
                            <polygon points="7 3.5 0 7 0 0"></polygon>
                        </g>
                        <polygon stroke="#EC407A" points="5.88196601 3.5 0.5 0.809016994 0.5 6.19098301"></polygon>
                    </g>
                </g>
                <path d="M0.5,0.5 L0.5,49.5" stroke="#F0367A" stroke-linecap="square"></path>
            </g>
        </g>
    </g>
</svg>