<?xml version="1.0" encoding="UTF-8" standalone="no"?>
<svg width="390px" height="147px" viewBox="0 0 390 147" version="1.1" xmlns="http://www.w3.org/2000/svg" xmlns:xlink="http://www.w3.org/1999/xlink">
    <!-- Generator: Sketch 47.1 (45422) - http://www.bohemiancoding.com/sketch -->
    <title>text-inputs-prefixes-and-suffixes</title>
    <desc>Created with Sketch.</desc>
    <defs></defs>
    <g stroke="none" stroke-width="1" fill="none" fill-rule="evenodd">
        <g>
            <g transform="translate(182.000000, 110.000000)" fill="#616161">
                <path d="M9.6484375,10.4921875 C9.37760281,10.9088562 8.90755543,11.2916649 8.23828125,11.640625 C7.56900707,11.9895851 6.70313031,12.1640625 5.640625,12.1640625 C4.2812432,12.1640625 3.15755652,11.729171 2.26953125,10.859375 C1.38150598,9.98957898 0.9375,8.86459023 0.9375,7.484375 L0.9375,5.140625 C0.9375,3.76040977 1.35155836,2.63542102 2.1796875,1.765625 C3.00781664,0.895828984 4.0755143,0.4609375 5.3828125,0.4609375 C6.68490234,0.4609375 7.70832961,0.781246797 8.453125,1.421875 C9.19792039,2.0625032 9.57812492,2.88801578 9.59375,3.8984375 L9.578125,3.9453125 L8.109375,3.9453125 C8.06249977,3.28385086 7.8112002,2.73958547 7.35546875,2.3125 C6.8997373,1.88541453 6.2421918,1.671875 5.3828125,1.671875 C4.51301648,1.671875 3.81250266,1.99739258 3.28125,2.6484375 C2.74999734,3.29948242 2.484375,4.124995 2.484375,5.125 L2.484375,7.484375 C2.484375,8.49479672 2.78124703,9.32681965 3.375,9.98046875 C3.96875297,10.6341179 4.72395375,10.9609375 5.640625,10.9609375 C6.28646156,10.9609375 6.81510211,10.8750009 7.2265625,10.703125 C7.63802289,10.5312491 7.93229078,10.3359386 8.109375,10.1171875 L8.109375,7.53125 L5.6171875,7.53125 L5.6171875,6.3203125 L9.6484375,6.3203125 L9.6484375,10.4921875 Z M12.3125,12 L12.3125,0.625 L16.0234375,0.625 C17.2109434,0.625 18.1406216,0.881507852 18.8125,1.39453125 C19.4843784,1.90755465 19.8203125,2.6770782 19.8203125,3.703125 C19.8203125,4.20833586 19.6588558,4.66015426 19.3359375,5.05859375 C19.0130192,5.45703324 18.5885443,5.7526032 18.0625,5.9453125 C18.7500034,6.09114656 19.2903626,6.4270807 19.6835938,6.953125 C20.0768249,7.4791693 20.2734375,8.09114234 20.2734375,8.7890625 C20.2734375,9.83073438 19.9362013,10.6262993 19.2617188,11.1757812 C18.5872362,11.7252632 17.6718808,12 16.515625,12 L12.3125,12 Z M13.8515625,6.6640625 L13.8515625,10.796875 L16.515625,10.796875 C17.2135452,10.796875 17.7578105,10.6236996 18.1484375,10.2773438 C18.5390645,9.93098785 18.734375,9.44010734 18.734375,8.8046875 C18.734375,8.1380175 18.5716162,7.61458523 18.2460938,7.234375 C17.9205713,6.85416477 17.4192742,6.6640625 16.7421875,6.6640625 L13.8515625,6.6640625 Z M13.8515625,5.4609375 L16.34375,5.4609375 C16.9166695,5.4609375 17.3828107,5.30338699 17.7421875,4.98828125 C18.1015643,4.67317551 18.28125,4.23437781 18.28125,3.671875 C18.28125,3.05728859 18.0872415,2.59765777 17.6992188,2.29296875 C17.311196,1.98827973 16.7526078,1.8359375 16.0234375,1.8359375 L13.8515625,1.8359375 L13.8515625,5.4609375 Z"></path>
            </g>
            <g transform="translate(0.000000, 82.000000)">
                <g>
                    <g transform="translate(0.000000, 17.000000)">
                        <g fill="#FFFFFF">
                            <rect x="0.995260664" y="0" width="178" height="32" rx="2"></rect>
                        </g>
                        <rect stroke="#BDBDBD" x="1.49526066" y="0.5" width="177" height="31" rx="2"></rect>
                    </g>
                    <path d="M8.75683594,11 L7.41015625,11 L7.41015625,6.60449219 L2.57714844,6.60449219 L2.57714844,11 L1.23046875,11 L1.23046875,1.046875 L2.57714844,1.046875 L2.57714844,5.54492188 L7.41015625,5.54492188 L7.41015625,1.046875 L8.75683594,1.046875 L8.75683594,11 Z M11.2177734,11 L11.2177734,1.046875 L14.2734375,1.046875 C15.5768294,1.046875 16.6227174,1.44677334 17.4111328,2.24658203 C18.1995482,3.04639072 18.59375,4.07974627 18.59375,5.34667969 L18.59375,6.70703125 C18.59375,7.97852198 18.1995482,9.01187753 17.4111328,9.80712891 C16.6227174,10.6023803 15.5768294,11 14.2734375,11 L11.2177734,11 Z M12.5644531,2.10644531 L12.5644531,9.94726562 L14.2734375,9.94726562 C15.194015,9.94726562 15.9197565,9.64420876 16.4506836,9.03808594 C16.9816107,8.43196312 17.2470703,7.65495266 17.2470703,6.70703125 L17.2470703,5.33300781 C17.2470703,4.39420104 16.9816107,3.62174782 16.4506836,3.015625 C15.9197565,2.40950218 15.194015,2.10644531 14.2734375,2.10644531 L12.5644531,2.10644531 Z M20.4394531,11 L20.4394531,1.046875 L23.4951172,1.046875 C24.7985091,1.046875 25.8443971,1.44677334 26.6328125,2.24658203 C27.4212279,3.04639072 27.8154297,4.07974627 27.8154297,5.34667969 L27.8154297,6.70703125 C27.8154297,7.97852198 27.4212279,9.01187753 26.6328125,9.80712891 C25.8443971,10.6023803 24.7985091,11 23.4951172,11 L20.4394531,11 Z M21.7861328,2.10644531 L21.7861328,9.94726562 L23.4951172,9.94726562 C24.4156947,9.94726562 25.1414361,9.64420876 25.6723633,9.03808594 C26.2032904,8.43196312 26.46875,7.65495266 26.46875,6.70703125 L26.46875,5.33300781 C26.46875,4.39420104 26.2032904,3.62174782 25.6723633,3.015625 C25.1414361,2.40950218 24.4156947,2.10644531 23.4951172,2.10644531 L21.7861328,2.10644531 Z M40.1748047,7.81445312 L40.1884766,7.85546875 C40.2067058,8.78971821 39.8785841,9.57128592 39.2041016,10.2001953 C38.529619,10.8291047 37.6386774,11.1435547 36.53125,11.1435547 C35.4055933,11.1435547 34.4884476,10.7447957 33.7797852,9.94726562 C33.0711228,9.1497356 32.7167969,8.13802696 32.7167969,6.91210938 L32.7167969,5.14160156 C32.7167969,3.91568397 33.0711228,2.90283603 33.7797852,2.10302734 C34.4884476,1.30321866 35.4055933,0.903320312 36.53125,0.903320312 C37.6569067,0.903320312 38.5524055,1.20295924 39.2177734,1.80224609 C39.8831413,2.40153294 40.2067058,3.19563308 40.1884766,4.18457031 L40.1748047,4.22558594 L38.8828125,4.22558594 C38.8828125,3.52831683 38.6777364,2.97689005 38.2675781,2.57128906 C37.8574198,2.16568808 37.2786496,1.96289062 36.53125,1.96289062 C35.7792931,1.96289062 35.1800153,2.26594749 34.7333984,2.87207031 C34.2867816,3.47819313 34.0634766,4.23013874 34.0634766,5.12792969 L34.0634766,6.91210938 C34.0634766,7.81901495 34.2867816,8.5755178 34.7333984,9.18164062 C35.1800153,9.78776345 35.7792931,10.0908203 36.53125,10.0908203 C37.2786496,10.0908203 37.8574198,9.88916217 38.2675781,9.48583984 C38.6777364,9.08251751 38.8828125,8.52539418 38.8828125,7.81445312 L40.1748047,7.81445312 Z M46.2998047,11 C46.2542315,10.7766916 46.2189129,10.5795907 46.1938477,10.4086914 C46.1687824,10.2377921 46.1539714,10.0657561 46.1494141,9.89257812 C45.8987618,10.2480487 45.5717794,10.545409 45.168457,10.784668 C44.7651347,11.023927 44.331057,11.1435547 43.8662109,11.1435547 C43.0960248,11.1435547 42.5092794,10.9464538 42.105957,10.5522461 C41.7026347,10.1580384 41.5009766,9.6145868 41.5009766,8.921875 C41.5009766,8.21549126 41.7869438,7.66292517 42.3588867,7.26416016 C42.9308297,6.86539514 43.7067008,6.66601562 44.6865234,6.66601562 L46.1494141,6.66601562 L46.1494141,5.93457031 C46.1494141,5.50162544 46.0172539,5.15869267 45.7529297,4.90576172 C45.4886054,4.65283077 45.1149113,4.52636719 44.6318359,4.52636719 C44.1988911,4.52636719 43.8468438,4.63688041 43.5756836,4.85791016 C43.3045234,5.07893991 43.1689453,5.34439949 43.1689453,5.65429688 L41.8837891,5.65429688 L41.8701172,5.61328125 C41.8427733,5.07551814 42.0968398,4.58333557 42.6323242,4.13671875 C43.1678087,3.69010193 43.8593708,3.46679688 44.7070312,3.46679688 C45.5455771,3.46679688 46.2200495,3.67984813 46.7304688,4.10595703 C47.240888,4.53206593 47.4960938,5.14615484 47.4960938,5.94824219 L47.4960938,9.50976562 C47.4960938,9.77408986 47.5097655,10.0292956 47.5371094,10.2753906 C47.5644533,10.5214856 47.614583,10.7630196 47.6875,11 L46.2998047,11 Z M44.0644531,10.015625 C44.5520858,10.015625 44.99186,9.89030073 45.3837891,9.63964844 C45.7757181,9.38899614 46.0309239,9.10188964 46.1494141,8.77832031 L46.1494141,7.57519531 L44.6386719,7.57519531 C44.0963515,7.57519531 43.6622738,7.7119127 43.3364258,7.98535156 C43.0105778,8.25879043 42.8476562,8.58007628 42.8476562,8.94921875 C42.8476562,9.27734539 42.9501943,9.53710842 43.1552734,9.72851562 C43.3603526,9.91992283 43.6634095,10.015625 44.0644531,10.015625 Z M55.7539062,7.58203125 C55.7539062,8.64844283 55.4987005,9.50862303 54.9882812,10.1625977 C54.477862,10.8165723 53.7737675,11.1435547 52.8759766,11.1435547 C52.4202451,11.1435547 52.0203468,11.0672208 51.6762695,10.9145508 C51.3321923,10.7618807 51.0393892,10.5328791 50.7978516,10.2275391 L50.7978516,13.84375 L49.4511719,13.84375 L49.4511719,3.60351562 L50.4833984,3.60351562 L50.6953125,4.56054688 C50.9368502,4.20507635 51.2376284,3.93392021 51.5976562,3.74707031 C51.9576841,3.56022042 52.3769507,3.46679688 52.8554688,3.46679688 C53.771489,3.46679688 54.4835587,3.83023725 54.9916992,4.55712891 C55.4998398,5.28402056 55.7539062,6.24446018 55.7539062,7.43847656 L55.7539062,7.58203125 Z M54.4072266,7.43847656 C54.4072266,6.5999307 54.2420264,5.91064723 53.9116211,5.37060547 C53.5812158,4.83056371 53.0947298,4.56054688 52.4521484,4.56054688 C52.0647767,4.56054688 51.7343764,4.64827386 51.4609375,4.82373047 C51.1874986,4.99918708 50.9664722,5.23958181 50.7978516,5.54492188 L50.7978516,9.12011719 C50.9664722,9.42545726 51.1874986,9.66357336 51.4609375,9.83447266 C51.7343764,10.0053719 52.069334,10.0908203 52.4658203,10.0908203 C53.1038443,10.0908203 53.5869124,9.85726145 53.9150391,9.39013672 C54.2431657,8.92301199 54.4072266,8.32031619 54.4072266,7.58203125 L54.4072266,7.43847656 Z M61.9541016,11 C61.9085284,10.7766916 61.8732098,10.5795907 61.8481445,10.4086914 C61.8230793,10.2377921 61.8082683,10.0657561 61.8037109,9.89257812 C61.5530586,10.2480487 61.2260762,10.545409 60.8227539,10.784668 C60.4194316,11.023927 59.9853539,11.1435547 59.5205078,11.1435547 C58.7503217,11.1435547 58.1635762,10.9464538 57.7602539,10.5522461 C57.3569316,10.1580384 57.1552734,9.6145868 57.1552734,8.921875 C57.1552734,8.21549126 57.4412406,7.66292517 58.0131836,7.26416016 C58.5851266,6.86539514 59.3609977,6.66601562 60.3408203,6.66601562 L61.8037109,6.66601562 L61.8037109,5.93457031 C61.8037109,5.50162544 61.6715508,5.15869267 61.4072266,4.90576172 C61.1429023,4.65283077 60.7692081,4.52636719 60.2861328,4.52636719 C59.8531879,4.52636719 59.5011407,4.63688041 59.2299805,4.85791016 C58.9588203,5.07893991 58.8232422,5.34439949 58.8232422,5.65429688 L57.5380859,5.65429688 L57.5244141,5.61328125 C57.4970702,5.07551814 57.7511366,4.58333557 58.2866211,4.13671875 C58.8221055,3.69010193 59.5136676,3.46679688 60.3613281,3.46679688 C61.199874,3.46679688 61.8743464,3.67984813 62.3847656,4.10595703 C62.8951848,4.53206593 63.1503906,5.14615484 63.1503906,5.94824219 L63.1503906,9.50976562 C63.1503906,9.77408986 63.1640624,10.0292956 63.1914062,10.2753906 C63.2187501,10.5214856 63.2688798,10.7630196 63.3417969,11 L61.9541016,11 Z M59.71875,10.015625 C60.2063826,10.015625 60.6461569,9.89030073 61.0380859,9.63964844 C61.430015,9.38899614 61.6852208,9.10188964 61.8037109,8.77832031 L61.8037109,7.57519531 L60.2929687,7.57519531 C59.7506483,7.57519531 59.3165706,7.7119127 58.9907227,7.98535156 C58.6648747,8.25879043 58.5019531,8.58007628 58.5019531,8.94921875 C58.5019531,9.27734539 58.6044912,9.53710842 58.8095703,9.72851562 C59.0146495,9.91992283 59.3177063,10.015625 59.71875,10.015625 Z M68.1132812,10.0908203 C68.5598981,10.0908203 68.9529605,9.95296362 69.2924805,9.67724609 C69.6320004,9.40152857 69.8017578,9.06315305 69.8017578,8.66210938 L71.0117187,8.66210938 L71.0253906,8.703125 C71.0481772,9.34114902 70.7644886,9.90738685 70.1743164,10.4018555 C69.5841442,10.8963241 68.8971393,11.1435547 68.1132812,11.1435547 C67.037755,11.1435547 66.2151721,10.7926467 65.6455078,10.0908203 C65.0758435,9.38899389 64.7910156,8.50716677 64.7910156,7.4453125 L64.7910156,7.15820312 C64.7910156,6.10546349 65.0769828,5.2270543 65.6489258,4.52294922 C66.2208687,3.81884414 67.0423124,3.46679688 68.1132812,3.46679688 C68.979171,3.46679688 69.6866835,3.72200266 70.2358398,4.23242188 C70.7849962,4.74284109 71.0504558,5.36946243 71.0322266,6.11230469 L71.0185547,6.15332031 L69.8017578,6.15332031 C69.8017578,5.70214618 69.6422542,5.3181982 69.3232422,5.00146484 C69.0042302,4.68473149 68.6009139,4.52636719 68.1132812,4.52636719 C67.4068975,4.52636719 66.9021825,4.78043366 66.5991211,5.28857422 C66.2960597,5.79671478 66.1445312,6.41991818 66.1445312,7.15820312 L66.1445312,7.4453125 C66.1445312,8.2018267 66.2949204,8.83186597 66.5957031,9.33544922 C66.8964859,9.83903247 67.4023402,10.0908203 68.1132812,10.0908203 Z M73.9921875,11 L72.6455078,11 L72.6455078,3.60351562 L73.9921875,3.60351562 L73.9921875,11 Z M73.9921875,1.70996094 L72.6455078,1.70996094 L72.6455078,0.3359375 L73.9921875,0.3359375 L73.9921875,1.70996094 Z M77.8408203,1.81933594 L77.8408203,3.60351562 L79.2421875,3.60351562 L79.2421875,4.6015625 L77.8408203,4.6015625 L77.8408203,9.09277344 C77.8408203,9.43912934 77.9125969,9.682942 78.0561523,9.82421875 C78.1997077,9.9654955 78.3899728,10.0361328 78.6269531,10.0361328 C78.7044275,10.0361328 78.7898758,10.0270183 78.8833008,10.0087891 C78.9767257,9.9905598 79.0598955,9.96777357 79.1328125,9.94042969 L79.3105469,10.8632812 C79.210286,10.9453129 79.0633148,11.0125323 78.8696289,11.0649414 C78.675943,11.1173505 78.4811208,11.1435547 78.2851562,11.1435547 C77.7382785,11.1435547 77.3030615,10.9783545 76.9794922,10.6479492 C76.6559229,10.3175439 76.4941406,9.79915718 76.4941406,9.09277344 L76.4941406,4.6015625 L75.3183594,4.6015625 L75.3183594,3.60351562 L76.4941406,3.60351562 L76.4941406,1.81933594 L77.8408203,1.81933594 Z M83.1660156,8.25878906 L83.4052734,9.18847656 L83.4462891,9.18847656 L85.2646484,3.60351562 L86.7617188,3.60351562 L83.6513672,12.1347656 C83.4645173,12.6315129 83.1967791,13.0644513 82.8481445,13.4335938 C82.49951,13.8027362 82.0289743,13.9873047 81.4365234,13.9873047 C81.3271479,13.9873047 81.1881519,13.9747723 81.0195312,13.949707 C80.8509106,13.9246418 80.7210291,13.9007163 80.6298828,13.8779297 L80.7666016,12.8183594 C80.7392577,12.8138021 80.8201488,12.8183593 81.0092773,12.8320312 C81.1984059,12.8457032 81.3180336,12.8525391 81.3681641,12.8525391 C81.6552749,12.8525391 81.889973,12.7249362 82.0722656,12.4697266 C82.2545582,12.214517 82.4072259,11.9319677 82.5302734,11.6220703 L82.8515625,10.8496094 L80.1035156,3.60351562 L81.6074219,3.60351562 L83.1660156,8.25878906 Z" fill="#616161"></path>
                </g>
            </g>
            <g transform="translate(171.000000, 131.000000)" fill="#EC407A">
                <g>
                    <path d="M5.54101557,10.1289062 L6.71874995,10.1289062 L6.71874995,11.03125 L5.54101557,11.03125 L5.54101557,13 L4.39257807,13 L4.39257807,11.03125 L0.560546825,11.03125 L0.560546825,10.3808594 L4.32226557,4.46875 L5.54101557,4.46875 L5.54101557,10.1289062 Z M1.79101557,10.1289062 L4.39257807,10.1289062 L4.39257807,6.12695312 L4.35742182,6.12109375 L4.2460937,6.4140625 L1.79101557,10.1289062 Z M13.2343749,10.0703125 C13.2343749,10.9843796 13.0156271,11.7216769 12.5781249,12.2822266 C12.1406228,12.8427762 11.5371132,13.1230469 10.7675781,13.1230469 C10.3769511,13.1230469 10.0341811,13.0576178 9.73925776,12.9267578 C9.44433441,12.7958978 9.19336036,12.5996107 8.98632807,12.3378906 L8.98632807,15.4375 L7.8320312,15.4375 L7.8320312,6.66015625 L8.71679682,6.66015625 L8.89843745,7.48046875 C9.10546974,7.17577973 9.36327966,6.94336018 9.67187495,6.78320312 C9.98047024,6.62304607 10.3398416,6.54296875 10.7499999,6.54296875 C11.5351601,6.54296875 12.1455056,6.85448907 12.5810546,7.47753906 C13.0166037,8.10058905 13.2343749,8.92382301 13.2343749,9.94726562 L13.2343749,10.0703125 Z M12.0800781,9.94726562 C12.0800781,9.22851203 11.9384779,8.63769763 11.6552734,8.17480469 C11.3720688,7.71191175 10.9550808,7.48046875 10.4042968,7.48046875 C10.0722639,7.48046875 9.78906362,7.55566331 9.55468745,7.70605469 C9.32031128,7.85644606 9.13086005,8.06249869 8.98632807,8.32421875 L8.98632807,11.3886719 C9.13086005,11.6503919 9.32031128,11.8544915 9.55468745,12.0009766 C9.78906362,12.1474617 10.0761701,12.2207031 10.4160156,12.2207031 C10.9628933,12.2207031 11.3769517,12.0205098 11.6582031,11.6201172 C11.9394545,11.2197246 12.0800781,10.7031282 12.0800781,10.0703125 L12.0800781,9.94726562 Z M16.7148437,8.99804688 L18.0624999,6.66015625 L19.4101562,6.66015625 L17.3535156,9.79492188 L19.4687499,13 L18.1445312,13 L16.7382812,10.6035156 L15.3320312,13 L13.9960937,13 L16.1113281,9.79492188 L14.0546874,6.66015625 L15.3847656,6.66015625 L16.7148437,8.99804688 Z"></path>
                </g>
            </g>
            <g transform="translate(179.000000, 99.000000)" fill-rule="nonzero" fill="#EF779F">
                <rect x="0" y="0" width="4" height="32"></rect>
            </g>
            <g transform="translate(2.000000, 0.000000)">
                <g transform="translate(12.000000, 15.000000)">
                    <g transform="translate(1.000000, 1.000000)" fill="#FFFFFF">
                        <rect x="0" y="0" width="163" height="30" rx="2"></rect>
                    </g>
                    <rect stroke="#BDBDBD" x="0.5" y="0.5" width="164" height="31" rx="2"></rect>
                </g>
                <g fill="#616161">
                    <path d="M6.62402344,7.43652344 L2.45410156,7.43652344 L1.51074219,10 L0.13671875,10 L3.98535156,0.046875 L5.140625,0.046875 L8.92773437,10 L7.55371094,10 L6.62402344,7.43652344 Z M2.87109375,6.30859375 L6.22070312,6.30859375 L4.58007812,1.77636719 L4.5390625,1.77636719 L2.87109375,6.30859375 Z M11.2451172,2.60351562 L11.3408203,3.57421875 C11.582358,3.22330554 11.8888328,2.95101008 12.2602539,2.75732422 C12.631675,2.56363835 13.0634741,2.46679688 13.5556641,2.46679688 C14.047854,2.46679688 14.4705386,2.58072803 14.8237305,2.80859375 C15.1769223,3.03645947 15.4423819,3.37825293 15.6201172,3.83398438 C15.8525402,3.41471145 16.1601543,3.08203248 16.5429688,2.8359375 C16.9257832,2.58984252 17.3723933,2.46679688 17.8828125,2.46679688 C18.6347694,2.46679688 19.22949,2.72542059 19.6669922,3.24267578 C20.1044944,3.75993097 20.3232422,4.53808074 20.3232422,5.57714844 L20.3232422,10 L18.9765625,10 L18.9765625,5.56347656 C18.9765625,4.83430625 18.8512382,4.31819813 18.6005859,4.01513672 C18.3499336,3.71207531 17.9762395,3.56054688 17.4794922,3.56054688 C17.0192034,3.56054688 16.6466486,3.72005049 16.3618164,4.0390625 C16.0769843,4.35807451 15.9095055,4.76139079 15.859375,5.24902344 L15.859375,10 L14.5058594,10 L14.5058594,5.56347656 C14.5058594,4.87076477 14.3771172,4.36377114 14.1196289,4.04248047 C13.8621406,3.7211898 13.4918644,3.56054688 13.0087891,3.56054688 C12.5986308,3.56054688 12.2613946,3.64485593 11.9970703,3.81347656 C11.7327461,3.9820972 11.5299486,4.21907399 11.3886719,4.52441406 L11.3886719,10 L10.0419922,10 L10.0419922,2.60351562 L11.2451172,2.60351562 Z M21.9638672,6.23339844 C21.9638672,5.13964297 22.2600882,4.23844755 22.8525391,3.52978516 C23.4449899,2.82112276 24.2493439,2.46679688 25.265625,2.46679688 C26.2910208,2.46679688 27.1010712,2.81998345 27.6958008,3.52636719 C28.2905303,4.23275093 28.5878906,5.13508565 28.5878906,6.23339844 L28.5878906,6.38378906 C28.5878906,7.48665916 28.2916696,8.38899389 27.6992188,9.09082031 C27.1067679,9.79264674 26.3001353,10.1435547 25.2792969,10.1435547 C24.2584584,10.1435547 23.4506866,9.79150743 22.855957,9.08740234 C22.2612275,8.38329726 21.9638672,7.48210185 21.9638672,6.38378906 L21.9638672,6.23339844 Z M23.3105469,6.38378906 C23.3105469,7.16764715 23.475747,7.81477609 23.8061523,8.32519531 C24.1365576,8.83561453 24.6276009,9.09082031 25.2792969,9.09082031 C25.9218782,9.09082031 26.4095035,8.83561453 26.7421875,8.32519531 C27.0748715,7.81477609 27.2412109,7.16764715 27.2412109,6.38378906 L27.2412109,6.23339844 C27.2412109,5.45865498 27.0737321,4.81380466 26.7387695,4.29882812 C26.4038069,3.78385159 25.9127637,3.52636719 25.265625,3.52636719 C24.6230437,3.52636719 24.1365576,3.78385159 23.8061523,4.29882812 C23.475747,4.81380466 23.3105469,5.45865498 23.3105469,6.23339844 L23.3105469,6.38378906 Z M34.9316406,8.90625 C34.6992176,9.30273636 34.400718,9.60807185 34.0361328,9.82226562 C33.6715477,10.0364594 33.2500024,10.1435547 32.7714844,10.1435547 C31.9648397,10.1435547 31.3359398,9.88607028 30.8847656,9.37109375 C30.4335915,8.85611722 30.2080078,8.0540419 30.2080078,6.96484375 L30.2080078,2.60351562 L31.5546875,2.60351562 L31.5546875,6.97851562 C31.5546875,7.76693103 31.6708973,8.30924331 31.9033203,8.60546875 C32.1357433,8.90169419 32.4980444,9.04980469 32.9902344,9.04980469 C33.4687524,9.04980469 33.8640935,8.95296321 34.1762695,8.75927734 C34.4884456,8.56559148 34.7242831,8.2910174 34.8837891,7.93554688 L34.8837891,2.60351562 L36.2304687,2.60351562 L36.2304687,10 L35.0205078,10 L34.9316406,8.90625 Z M39.3955078,2.60351562 L39.4912109,3.70410156 C39.7373059,3.31217252 40.0460593,3.00797634 40.4174805,2.79150391 C40.7889016,2.57503147 41.2115862,2.46679688 41.6855469,2.46679688 C42.4830769,2.46679688 43.1005837,2.70035574 43.5380859,3.16748047 C43.9755881,3.6346052 44.1943359,4.35578939 44.1943359,5.33105469 L44.1943359,10 L42.8476562,10 L42.8476562,5.35839844 C42.8476562,4.70670247 42.718914,4.24414199 42.4614258,3.97070312 C42.2039375,3.69726426 41.810875,3.56054688 41.2822266,3.56054688 C40.8948548,3.56054688 40.5519221,3.65397042 40.253418,3.84082031 C39.9549139,4.02767021 39.7167978,4.28287599 39.5390625,4.60644531 L39.5390625,10 L38.1923828,10 L38.1923828,2.60351562 L39.3955078,2.60351562 Z M47.9267578,0.819335938 L47.9267578,2.60351562 L49.328125,2.60351562 L49.328125,3.6015625 L47.9267578,3.6015625 L47.9267578,8.09277344 C47.9267578,8.43912934 47.9985344,8.682942 48.1420898,8.82421875 C48.2856452,8.9654955 48.4759103,9.03613281 48.7128906,9.03613281 C48.790365,9.03613281 48.8758133,9.02701832 48.9692383,9.00878906 C49.0626632,8.9905598 49.145833,8.96777357 49.21875,8.94042969 L49.3964844,9.86328125 C49.2962235,9.94531291 49.1492523,10.0125323 48.9555664,10.0649414 C48.7618805,10.1173505 48.5670583,10.1435547 48.3710938,10.1435547 C47.824216,10.1435547 47.388999,9.97835452 47.0654297,9.64794922 C46.7418604,9.31754392 46.5800781,8.79915718 46.5800781,8.09277344 L46.5800781,3.6015625 L45.4042969,3.6015625 L45.4042969,2.60351562 L46.5800781,2.60351562 L46.5800781,0.819335938 L47.9267578,0.819335938 Z"></path>
                </g>
                <g transform="translate(0.000000, 24.000000)" fill="#616161">
                    <path d="M6.625,11.0625 C6.625,10.598956 6.458335,10.2005225 6.125,9.8671875 C5.791665,9.5338525 5.24479547,9.23698047 4.484375,8.9765625 C3.43228641,8.65885258 2.63802352,8.23437766 2.1015625,7.703125 C1.56510148,7.17187234 1.296875,6.46354609 1.296875,5.578125 C1.296875,4.7187457 1.54296629,4.01823187 2.03515625,3.4765625 C2.52734621,2.93489313 3.20572484,2.60937555 4.0703125,2.5 L4.0703125,0.7734375 L5.3046875,0.7734375 L5.3046875,2.5078125 C6.17969187,2.63281313 6.85807051,3.0065073 7.33984375,3.62890625 C7.82161699,4.2513052 8.0625,5.08593227 8.0625,6.1328125 L6.53125,6.1328125 C6.53125,5.42447563 6.36718914,4.85156469 6.0390625,4.4140625 C5.71093586,3.97656031 5.25521125,3.7578125 4.671875,3.7578125 C4.05728859,3.7578125 3.59765777,3.91796715 3.29296875,4.23828125 C2.98827973,4.55859535 2.8359375,4.99739305 2.8359375,5.5546875 C2.8359375,6.05989836 2.99348801,6.46874844 3.30859375,6.78125 C3.62369949,7.09375156 4.19270422,7.39062359 5.015625,7.671875 C6.08333867,8.01562672 6.87499742,8.44400785 7.390625,8.95703125 C7.90625258,9.47005465 8.1640625,10.1666623 8.1640625,11.046875 C8.1640625,11.9427128 7.89583602,12.6549453 7.359375,13.1835938 C6.82291398,13.7122422 6.08594219,14.0260412 5.1484375,14.125 L5.1484375,15.625 L3.921875,15.625 L3.921875,14.1328125 C3.02603719,14.039062 2.29166953,13.7122424 1.71875,13.1523438 C1.14583047,12.5924451 0.869791562,11.7708387 0.890625,10.6875 L0.90625,10.6484375 L2.390625,10.6484375 C2.390625,11.4505248 2.5924459,12.0221337 2.99609375,12.3632812 C3.3997416,12.7044288 3.89583039,12.875 4.484375,12.875 C5.15625336,12.875 5.6809877,12.7148454 6.05859375,12.3945312 C6.4361998,12.0742171 6.625,11.6302112 6.625,11.0625 Z"></path>
                </g>
            </g>
            <g transform="translate(2.000000, 48.000000)" fill="#EC407A">
                <g>
                    <path d="M5.54101557,10.1289062 L6.71874995,10.1289062 L6.71874995,11.03125 L5.54101557,11.03125 L5.54101557,13 L4.39257807,13 L4.39257807,11.03125 L0.560546825,11.03125 L0.560546825,10.3808594 L4.32226557,4.46875 L5.54101557,4.46875 L5.54101557,10.1289062 Z M1.79101557,10.1289062 L4.39257807,10.1289062 L4.39257807,6.12695312 L4.35742182,6.12109375 L4.2460937,6.4140625 L1.79101557,10.1289062 Z M13.2343749,10.0703125 C13.2343749,10.9843796 13.0156271,11.7216769 12.5781249,12.2822266 C12.1406228,12.8427762 11.5371132,13.1230469 10.7675781,13.1230469 C10.3769511,13.1230469 10.0341811,13.0576178 9.73925776,12.9267578 C9.44433441,12.7958978 9.19336036,12.5996107 8.98632807,12.3378906 L8.98632807,15.4375 L7.8320312,15.4375 L7.8320312,6.66015625 L8.71679682,6.66015625 L8.89843745,7.48046875 C9.10546974,7.17577973 9.36327966,6.94336018 9.67187495,6.78320312 C9.98047024,6.62304607 10.3398416,6.54296875 10.7499999,6.54296875 C11.5351601,6.54296875 12.1455056,6.85448907 12.5810546,7.47753906 C13.0166037,8.10058905 13.2343749,8.92382301 13.2343749,9.94726562 L13.2343749,10.0703125 Z M12.0800781,9.94726562 C12.0800781,9.22851203 11.9384779,8.63769763 11.6552734,8.17480469 C11.3720688,7.71191175 10.9550808,7.48046875 10.4042968,7.48046875 C10.0722639,7.48046875 9.78906362,7.55566331 9.55468745,7.70605469 C9.32031128,7.85644606 9.13086005,8.06249869 8.98632807,8.32421875 L8.98632807,11.3886719 C9.13086005,11.6503919 9.32031128,11.8544915 9.55468745,12.0009766 C9.78906362,12.1474617 10.0761701,12.2207031 10.4160156,12.2207031 C10.9628933,12.2207031 11.3769517,12.0205098 11.6582031,11.6201172 C11.9394545,11.2197246 12.0800781,10.7031282 12.0800781,10.0703125 L12.0800781,9.94726562 Z M16.7148437,8.99804688 L18.0624999,6.66015625 L19.4101562,6.66015625 L17.3535156,9.79492188 L19.4687499,13 L18.1445312,13 L16.7382812,10.6035156 L15.3320312,13 L13.9960937,13 L16.1113281,9.79492188 L14.0546874,6.66015625 L15.3847656,6.66015625 L16.7148437,8.99804688 Z"></path>
                </g>
            </g>
            <g transform="translate(10.000000, 16.000000)" fill-rule="nonzero" fill="#EF779F">
                <rect x="0" y="0" width="4" height="32"></rect>
            </g>
            <g transform="translate(245.000000, 43.000000)" fill="#EC407A">
                <path d="M2.20898438,9.578125 L2.20898438,13 L1.0546875,13 L1.0546875,4.46875 L4.31835937,4.46875 C5.22852018,4.46875 5.93554436,4.70312266 6.43945312,5.171875 C6.94336189,5.64062734 7.1953125,6.25780867 7.1953125,7.0234375 C7.1953125,7.80078514 6.94336189,8.42089612 6.43945312,8.88378906 C5.93554436,9.346682 5.22852018,9.578125 4.31835937,9.578125 L2.20898438,9.578125 Z M2.20898438,8.67578125 L4.31835938,8.67578125 C4.89648727,8.67578125 5.32812357,8.52050937 5.61328125,8.20996094 C5.89843893,7.89941251 6.04101562,7.50781486 6.04101562,7.03515625 C6.04101562,6.56249764 5.89746237,6.16797033 5.61035156,5.8515625 C5.32324075,5.53515467 4.892581,5.37695312 4.31835938,5.37695312 L2.20898438,5.37695312 L2.20898438,8.67578125 Z M11.5253906,7.6796875 L10.9335938,7.64453125 C10.6289047,7.64453125 10.3720714,7.71679615 10.1630859,7.86132812 C9.95410052,8.0058601 9.79296932,8.20898307 9.6796875,8.47070312 L9.6796875,13 L8.52539062,13 L8.52539062,6.66015625 L9.55664062,6.66015625 L9.66796875,7.5859375 C9.84765715,7.25781086 10.0693346,7.00195404 10.3330078,6.81835938 C10.596681,6.63476471 10.9003889,6.54296875 11.2441406,6.54296875 C11.3300786,6.54296875 11.412109,6.54980462 11.4902344,6.56347656 C11.5683598,6.57714851 11.6328122,6.5917968 11.6835938,6.60742188 L11.5253906,7.6796875 Z M15.1582031,13.1230469 C14.2753862,13.1230469 13.5732448,12.8291045 13.0517578,12.2412109 C12.5302708,11.6533174 12.2695312,10.8906297 12.2695312,9.953125 L12.2695312,9.6953125 C12.2695312,8.79296424 12.5380833,8.04199519 13.0751953,7.44238281 C13.6123074,6.84277044 14.2480432,6.54296875 14.9824219,6.54296875 C15.8378949,6.54296875 16.4843728,6.80077867 16.921875,7.31640625 C17.3593772,7.83203383 17.578125,8.51952695 17.578125,9.37890625 L17.578125,10.0996094 L13.4648438,10.0996094 L13.4472656,10.1289062 C13.4589844,10.7382843 13.6132798,11.2392558 13.9101562,11.6318359 C14.2070327,12.024416 14.6230442,12.2207031 15.1582031,12.2207031 C15.5488301,12.2207031 15.8916001,12.1650396 16.1865234,12.0537109 C16.4814468,11.9423823 16.7363271,11.7890635 16.9511719,11.59375 L17.4023438,12.34375 C17.1757801,12.5664074 16.876955,12.7519524 16.5058594,12.9003906 C16.1347638,13.0488289 15.6855495,13.1230469 15.1582031,13.1230469 Z M14.9824219,7.45117188 C14.5957012,7.45117188 14.2656264,7.61425618 13.9921875,7.94042969 C13.7187486,8.26660319 13.5507816,8.67577879 13.4882813,9.16796875 L13.5,9.19726562 L16.4238281,9.19726562 L16.4238281,9.04492188 C16.4238281,8.59179461 16.3027356,8.21289215 16.0605469,7.90820312 C15.8183582,7.6035141 15.4589868,7.45117188 14.9824219,7.45117188 Z M19.3535156,13 L19.3535156,7.515625 L18.3632812,7.515625 L18.3632812,6.66015625 L19.3535156,6.66015625 L19.3535156,5.85742188 C19.3535156,5.18163725 19.5302717,4.65918153 19.8837891,4.29003906 C20.2373065,3.92089659 20.7304656,3.73632812 21.3632812,3.73632812 C21.4960944,3.73632812 21.6298821,3.74707021 21.7646484,3.76855469 C21.8994147,3.79003917 22.0488273,3.8203123 22.2128906,3.859375 L22.0722656,4.73828125 C22.0019528,4.72265617 21.9169927,4.70898443 21.8173828,4.69726562 C21.7177729,4.68554682 21.6132818,4.6796875 21.5039062,4.6796875 C21.1679671,4.6796875 20.9179696,4.78027243 20.7539062,4.98144531 C20.5898429,5.18261819 20.5078125,5.47460746 20.5078125,5.85742188 L20.5078125,6.66015625 L21.8261719,6.66015625 L21.8261719,7.515625 L20.5078125,7.515625 L20.5078125,13 L19.3535156,13 Z M24.2636719,13 L23.109375,13 L23.109375,6.66015625 L24.2636719,6.66015625 L24.2636719,13 Z M24.2636719,5.03710938 L23.109375,5.03710938 L23.109375,3.859375 L24.2636719,3.859375 L24.2636719,5.03710938 Z M28.1894531,8.99804688 L29.5371094,6.66015625 L30.8847656,6.66015625 L28.828125,9.79492188 L30.9433594,13 L29.6191406,13 L28.2128906,10.6035156 L26.8066406,13 L25.4707031,13 L27.5859375,9.79492188 L25.5292969,6.66015625 L26.859375,6.66015625 L28.1894531,8.99804688 Z M32.3144531,13.7324219 L31.3300781,13.7324219 L34.8925781,4.46875 L35.8710938,4.46875 L32.3144531,13.7324219 Z M41.9179688,10.8496094 C41.9179688,10.4589824 41.7714858,10.1318373 41.4785156,9.86816406 C41.1855454,9.60449087 40.6660194,9.3828134 39.9199219,9.203125 C39.0175736,8.98828018 38.3134791,8.67187709 37.8076172,8.25390625 C37.3017553,7.83593541 37.0488281,7.31055004 37.0488281,6.67773438 C37.0488281,6.01366855 37.3212863,5.4589866 37.8662109,5.01367188 C38.4111355,4.56835715 39.1171832,4.34570312 39.984375,4.34570312 C40.9179734,4.34570312 41.66113,4.60155994 42.2138672,5.11328125 C42.7666043,5.62500256 43.0332032,6.21874662 43.0136719,6.89453125 L43.0019531,6.9296875 L41.9003906,6.9296875 C41.9003906,6.429685 41.7353532,6.02539217 41.4052734,5.71679688 C41.0751937,5.40820158 40.6015656,5.25390625 39.984375,5.25390625 C39.4101534,5.25390625 38.9697281,5.38378776 38.6630859,5.64355469 C38.3564438,5.90332161 38.203125,6.24218541 38.203125,6.66015625 C38.203125,7.03125186 38.369139,7.34081907 38.7011719,7.58886719 C39.0332048,7.8369153 39.5722619,8.05468656 40.3183594,8.2421875 C41.2168014,8.46484486 41.9003883,8.79296658 42.3691406,9.2265625 C42.837893,9.66015842 43.0722656,10.1972624 43.0722656,10.8378906 C43.0722656,11.5253941 42.7910184,12.0781229 42.2285156,12.4960938 C41.6660128,12.9140646 40.9316452,13.1230469 40.0253906,13.1230469 C39.1738239,13.1230469 38.4209017,12.8925804 37.7666016,12.4316406 C37.1123014,11.9707008 36.7949218,11.3535195 36.8144531,10.5800781 L36.8261719,10.5449219 L37.9277344,10.5449219 C37.9277344,11.0917996 38.1289042,11.5078111 38.53125,11.7929688 C38.9335958,12.0781264 39.4316377,12.2207031 40.0253906,12.2207031 C40.6074248,12.2207031 41.0683577,12.0976575 41.4082031,11.8515625 C41.7480486,11.6054675 41.9179688,11.2714865 41.9179688,10.8496094 Z M48.5625,12.0625 C48.3632803,12.4023454 48.1074234,12.6640616 47.7949219,12.8476562 C47.4824203,13.0312509 47.1210958,13.1230469 46.7109375,13.1230469 C46.0195278,13.1230469 45.4804707,12.902346 45.09375,12.4609375 C44.7070293,12.019529 44.5136719,11.3320359 44.5136719,10.3984375 L44.5136719,6.66015625 L45.6679688,6.66015625 L45.6679688,10.4101562 C45.6679688,11.0859409 45.7675771,11.55078 45.9667969,11.8046875 C46.1660166,12.058595 46.4765604,12.1855469 46.8984375,12.1855469 C47.3085958,12.1855469 47.6474596,12.1025399 47.9150391,11.9365234 C48.1826185,11.770507 48.3847649,11.5351578 48.5214844,11.2304688 L48.5214844,6.66015625 L49.6757812,6.66015625 L49.6757812,13 L48.6386719,13 L48.5625,12.0625 Z M51.8378906,13 L51.8378906,7.515625 L50.8476563,7.515625 L50.8476563,6.66015625 L51.8378906,6.66015625 L51.8378906,5.85742188 C51.8378906,5.18163725 52.0146467,4.65918153 52.3681641,4.29003906 C52.7216815,3.92089659 53.2148406,3.73632812 53.8476563,3.73632812 C53.9804694,3.73632812 54.1142571,3.74707021 54.2490234,3.76855469 C54.3837897,3.79003917 54.5332023,3.8203123 54.6972656,3.859375 L54.5566406,4.73828125 C54.4863278,4.72265617 54.4013677,4.70898443 54.3017578,4.69726562 C54.2021479,4.68554682 54.0976568,4.6796875 53.9882813,4.6796875 C53.6523421,4.6796875 53.4023446,4.78027243 53.2382813,4.98144531 C53.0742179,5.18261819 52.9921875,5.47460746 52.9921875,5.85742188 L52.9921875,6.66015625 L54.3105469,6.66015625 L54.3105469,7.515625 L52.9921875,7.515625 L52.9921875,13 L51.8378906,13 Z M55.9804688,13 L55.9804688,7.515625 L54.9902344,7.515625 L54.9902344,6.66015625 L55.9804688,6.66015625 L55.9804688,5.85742188 C55.9804688,5.18163725 56.1572248,4.65918153 56.5107422,4.29003906 C56.8642596,3.92089659 57.3574187,3.73632812 57.9902344,3.73632812 C58.1230475,3.73632812 58.2568353,3.74707021 58.3916016,3.76855469 C58.5263679,3.79003917 58.6757804,3.8203123 58.8398438,3.859375 L58.6992188,4.73828125 C58.6289059,4.72265617 58.5439458,4.70898443 58.4443359,4.69726562 C58.3447261,4.68554682 58.2402349,4.6796875 58.1308594,4.6796875 C57.7949202,4.6796875 57.5449227,4.78027243 57.3808594,4.98144531 C57.2167961,5.18261819 57.1347656,5.47460746 57.1347656,5.85742188 L57.1347656,6.66015625 L58.453125,6.66015625 L58.453125,7.515625 L57.1347656,7.515625 L57.1347656,13 L55.9804688,13 Z M60.890625,13 L59.7363281,13 L59.7363281,6.66015625 L60.890625,6.66015625 L60.890625,13 Z M60.890625,5.03710938 L59.7363281,5.03710938 L59.7363281,3.859375 L60.890625,3.859375 L60.890625,5.03710938 Z M64.8164062,8.99804688 L66.1640625,6.66015625 L67.5117188,6.66015625 L65.4550781,9.79492188 L67.5703125,13 L66.2460938,13 L64.8398438,10.6035156 L63.4335938,13 L62.0976563,13 L64.2128906,9.79492188 L62.15625,6.66015625 L63.4863281,6.66015625 L64.8164062,8.99804688 Z M77.9296875,10.2695312 L77.9414062,10.3046875 C77.9570313,11.1054728 77.6757841,11.7753879 77.0976562,12.3144531 C76.5195284,12.8535183 75.7558641,13.1230469 74.8066406,13.1230469 C73.8417921,13.1230469 73.0556671,12.7812534 72.4482422,12.0976562 C71.8408173,11.4140591 71.5371094,10.5468803 71.5371094,9.49609375 L71.5371094,7.97851562 C71.5371094,6.92772912 71.8408173,6.05957374 72.4482422,5.37402344 C73.0556671,4.68847313 73.8417921,4.34570312 74.8066406,4.34570312 C75.7714892,4.34570312 76.5390596,4.60253649 77.109375,5.11621094 C77.6796904,5.62988538 77.9570313,6.31054264 77.9414062,7.15820312 L77.9296875,7.19335938 L76.8222656,7.19335938 C76.8222656,6.59570014 76.6464861,6.12304861 76.2949219,5.77539062 C75.9433576,5.42773264 75.4472688,5.25390625 74.8066406,5.25390625 C74.1621062,5.25390625 73.6484394,5.51366928 73.265625,6.03320312 C72.8828106,6.55273697 72.6914062,7.19726178 72.6914062,7.96679688 L72.6914062,9.49609375 C72.6914062,10.2734414 72.8828106,10.9218724 73.265625,11.4414062 C73.6484394,11.9609401 74.1621062,12.2207031 74.8066406,12.2207031 C75.4472688,12.2207031 75.9433576,12.0478533 76.2949219,11.7021484 C76.6464861,11.3564436 76.8222656,10.8789093 76.8222656,10.2695312 L77.9296875,10.2695312 Z M80.4375,7.50976562 C80.6562511,7.2050766 80.9248031,6.96777429 81.2431641,6.79785156 C81.561525,6.62792884 81.9140606,6.54296875 82.3007812,6.54296875 C82.9765659,6.54296875 83.5029278,6.74609172 83.8798828,7.15234375 C84.2568378,7.55859578 84.4453125,8.18358953 84.4453125,9.02734375 L84.4453125,13 L83.2910156,13 L83.2910156,9.015625 C83.2910156,8.49218488 83.1787121,8.10547 82.9541016,7.85546875 C82.7294911,7.6054675 82.3945335,7.48046875 81.9492188,7.48046875 C81.6289046,7.48046875 81.3388685,7.55566331 81.0791016,7.70605469 C80.8193346,7.85644606 80.6054696,8.06054559 80.4375,8.31835938 L80.4375,13 L79.2832031,13 L79.2832031,3.859375 L80.4375,3.859375 L80.4375,7.50976562 Z M90,13 C89.9609373,12.8085928 89.9306642,12.6396492 89.9091797,12.4931641 C89.8876952,12.346679 89.875,12.1992195 89.8710938,12.0507812 C89.6562489,12.3554703 89.3759783,12.6103505 89.0302734,12.8154297 C88.6845686,13.0205088 88.312502,13.1230469 87.9140625,13.1230469 C87.2539029,13.1230469 86.7509783,12.9541033 86.4052734,12.6162109 C86.0595686,12.2783186 85.8867188,11.812503 85.8867188,11.21875 C85.8867188,10.6132782 86.1318335,10.1396501 86.6220703,9.79785156 C87.1123071,9.45605298 87.7773396,9.28515625 88.6171875,9.28515625 L89.8710938,9.28515625 L89.8710938,8.65820312 C89.8710938,8.28710752 89.7578136,7.99316515 89.53125,7.77636719 C89.3046864,7.55956923 88.9843771,7.45117188 88.5703125,7.45117188 C88.1992169,7.45117188 87.8974621,7.54589749 87.6650391,7.73535156 C87.432616,7.92480563 87.3164062,8.15234242 87.3164062,8.41796875 L86.2148438,8.41796875 L86.203125,8.3828125 C86.1796874,7.9218727 86.3974586,7.50000191 86.8564453,7.1171875 C87.315432,6.73437309 87.9081995,6.54296875 88.6347656,6.54296875 C89.3535192,6.54296875 89.9316384,6.72558411 90.3691406,7.09082031 C90.8066428,7.45605651 91.0253906,7.98241844 91.0253906,8.66992188 L91.0253906,11.7226562 C91.0253906,11.9492199 91.0371093,12.1679677 91.0605469,12.3789062 C91.0839845,12.5898448 91.1269528,12.796874 91.1894531,13 L90,13 Z M88.0839844,12.15625 C88.5019552,12.15625 88.8789046,12.0488292 89.2148438,11.8339844 C89.5507829,11.6191396 89.7695307,11.3730483 89.8710938,11.0957031 L89.8710938,10.0644531 L88.5761719,10.0644531 C88.1113258,10.0644531 87.7392592,10.1816395 87.4599609,10.4160156 C87.1806627,10.6503918 87.0410156,10.9257797 87.0410156,11.2421875 C87.0410156,11.5234389 87.1289054,11.7460929 87.3046875,11.9101562 C87.4804696,12.0742196 87.7402327,12.15625 88.0839844,12.15625 Z M95.7011719,7.6796875 L95.109375,7.64453125 C94.804686,7.64453125 94.5478526,7.71679615 94.3388672,7.86132812 C94.1298818,8.0058601 93.9687506,8.20898307 93.8554688,8.47070312 L93.8554688,13 L92.7011719,13 L92.7011719,6.66015625 L93.7324219,6.66015625 L93.84375,7.5859375 C94.0234384,7.25781086 94.2451159,7.00195404 94.5087891,6.81835938 C94.7724623,6.63476471 95.0761702,6.54296875 95.4199219,6.54296875 C95.5058598,6.54296875 95.5878902,6.54980462 95.6660156,6.56347656 C95.744141,6.57714851 95.8085935,6.5917968 95.859375,6.60742188 L95.7011719,7.6796875 Z M100.710938,13 C100.671875,12.8085928 100.641602,12.6396492 100.620117,12.4931641 C100.598633,12.346679 100.585938,12.1992195 100.582031,12.0507812 C100.367186,12.3554703 100.086916,12.6103505 99.7412109,12.8154297 C99.3955061,13.0205088 99.0234395,13.1230469 98.625,13.1230469 C97.9648404,13.1230469 97.4619158,12.9541033 97.1162109,12.6162109 C96.7705061,12.2783186 96.5976563,11.812503 96.5976563,11.21875 C96.5976563,10.6132782 96.842771,10.1396501 97.3330078,9.79785156 C97.8232446,9.45605298 98.4882771,9.28515625 99.328125,9.28515625 L100.582031,9.28515625 L100.582031,8.65820312 C100.582031,8.28710752 100.468751,7.99316515 100.242188,7.77636719 C100.015624,7.55956923 99.6953146,7.45117188 99.28125,7.45117188 C98.9101544,7.45117188 98.6083996,7.54589749 98.3759766,7.73535156 C98.1435535,7.92480563 98.0273438,8.15234242 98.0273438,8.41796875 L96.9257813,8.41796875 L96.9140625,8.3828125 C96.8906249,7.9218727 97.1083961,7.50000191 97.5673828,7.1171875 C98.0263695,6.73437309 98.619137,6.54296875 99.3457031,6.54296875 C100.064457,6.54296875 100.642576,6.72558411 101.080078,7.09082031 C101.51758,7.45605651 101.736328,7.98241844 101.736328,8.66992188 L101.736328,11.7226562 C101.736328,11.9492199 101.748047,12.1679677 101.771484,12.3789062 C101.794922,12.5898448 101.83789,12.796874 101.900391,13 L100.710938,13 Z M98.7949219,12.15625 C99.2128927,12.15625 99.5898421,12.0488292 99.9257813,11.8339844 C100.26172,11.6191396 100.480468,11.3730483 100.582031,11.0957031 L100.582031,10.0644531 L99.2871094,10.0644531 C98.8222633,10.0644531 98.4501967,10.1816395 98.1708984,10.4160156 C97.8916002,10.6503918 97.7519531,10.9257797 97.7519531,11.2421875 C97.7519531,11.5234389 97.8398429,11.7460929 98.015625,11.9101562 C98.1914071,12.0742196 98.4511702,12.15625 98.7949219,12.15625 Z M105.990234,12.2207031 C106.373049,12.2207031 106.709959,12.1025402 107.000977,11.8662109 C107.291994,11.6298816 107.4375,11.3398455 107.4375,10.9960938 L108.474609,10.9960938 L108.486328,11.03125 C108.505859,11.5781277 108.262698,12.0634744 107.756836,12.4873047 C107.250974,12.9111349 106.662113,13.1230469 105.990234,13.1230469 C105.068355,13.1230469 104.363284,12.8222686 103.875,12.2207031 C103.386716,11.6191376 103.142578,10.8632858 103.142578,9.953125 L103.142578,9.70703125 C103.142578,8.80468299 103.387693,8.05176083 103.87793,7.44824219 C104.368167,6.84472354 105.072261,6.54296875 105.990234,6.54296875 C106.732426,6.54296875 107.338865,6.76171656 107.80957,7.19921875 C108.280276,7.63672094 108.507813,8.17382494 108.492188,8.81054688 L108.480469,8.84570312 L107.4375,8.84570312 C107.4375,8.45898244 107.300783,8.12988417 107.027344,7.85839844 C106.753905,7.58691271 106.408205,7.45117188 105.990234,7.45117188 C105.384763,7.45117188 104.95215,7.66894313 104.692383,8.10449219 C104.432616,8.54004124 104.302734,9.07421559 104.302734,9.70703125 L104.302734,9.953125 C104.302734,10.6015657 104.431639,11.1415994 104.689453,11.5732422 C104.947267,12.004885 105.380856,12.2207031 105.990234,12.2207031 Z M111.304688,5.13085938 L111.304688,6.66015625 L112.505859,6.66015625 L112.505859,7.515625 L111.304688,7.515625 L111.304688,11.3652344 C111.304688,11.6621109 111.36621,11.8710931 111.489258,11.9921875 C111.612305,12.1132819 111.77539,12.1738281 111.978516,12.1738281 C112.044922,12.1738281 112.118164,12.1660157 112.198242,12.1503906 C112.278321,12.1347655 112.349609,12.1152345 112.412109,12.0917969 L112.564453,12.8828125 C112.478515,12.9531254 112.35254,13.010742 112.186523,13.0556641 C112.020507,13.1005862 111.853516,13.1230469 111.685547,13.1230469 C111.216795,13.1230469 110.843751,12.9814467 110.566406,12.6982422 C110.289061,12.4150376 110.150391,11.9707062 110.150391,11.3652344 L110.150391,7.515625 L109.142578,7.515625 L109.142578,6.66015625 L110.150391,6.66015625 L110.150391,5.13085938 L111.304688,5.13085938 Z M116.560547,13.1230469 C115.67773,13.1230469 114.975589,12.8291045 114.454102,12.2412109 C113.932615,11.6533174 113.671875,10.8906297 113.671875,9.953125 L113.671875,9.6953125 C113.671875,8.79296424 113.940427,8.04199519 114.477539,7.44238281 C115.014651,6.84277044 115.650387,6.54296875 116.384766,6.54296875 C117.240239,6.54296875 117.886717,6.80077867 118.324219,7.31640625 C118.761721,7.83203383 118.980469,8.51952695 118.980469,9.37890625 L118.980469,10.0996094 L114.867188,10.0996094 L114.849609,10.1289062 C114.861328,10.7382843 115.015624,11.2392558 115.3125,11.6318359 C115.609376,12.024416 116.025388,12.2207031 116.560547,12.2207031 C116.951174,12.2207031 117.293944,12.1650396 117.588867,12.0537109 C117.883791,11.9423823 118.138671,11.7890635 118.353516,11.59375 L118.804688,12.34375 C118.578124,12.5664074 118.279299,12.7519524 117.908203,12.9003906 C117.537108,13.0488289 117.087893,13.1230469 116.560547,13.1230469 Z M116.384766,7.45117188 C115.998045,7.45117188 115.66797,7.61425618 115.394531,7.94042969 C115.121092,8.26660319 114.953125,8.67577879 114.890625,9.16796875 L114.902344,9.19726562 L117.826172,9.19726562 L117.826172,9.04492188 C117.826172,8.59179461 117.705079,8.21289215 117.462891,7.90820312 C117.220702,7.6035141 116.861331,7.45117188 116.384766,7.45117188 Z M123.275391,7.6796875 L122.683594,7.64453125 C122.378905,7.64453125 122.122071,7.71679615 121.913086,7.86132812 C121.704101,8.0058601 121.542969,8.20898307 121.429688,8.47070312 L121.429688,13 L120.275391,13 L120.275391,6.66015625 L121.306641,6.66015625 L121.417969,7.5859375 C121.597657,7.25781086 121.819335,7.00195404 122.083008,6.81835938 C122.346681,6.63476471 122.650389,6.54296875 122.994141,6.54296875 C123.080079,6.54296875 123.162109,6.54980462 123.240234,6.56347656 C123.31836,6.57714851 123.382812,6.5917968 123.433594,6.60742188 L123.275391,7.6796875 Z"></path>
                <path d="M6.09960938,27.2265625 L2.20898438,27.2265625 L2.20898438,31 L1.0546875,31 L1.0546875,22.46875 L6.69726562,22.46875 L6.69726562,23.3769531 L2.20898438,23.3769531 L2.20898438,26.3183594 L6.09960938,26.3183594 L6.09960938,27.2265625 Z M7.43554688,27.7714844 C7.43554688,26.8339797 7.68945059,26.0615265 8.19726562,25.4541016 C8.70508066,24.8466767 9.39452689,24.5429687 10.265625,24.5429687 C11.1445356,24.5429687 11.8388646,24.8457001 12.3486328,25.4511719 C12.858401,26.0566437 13.1132812,26.8300734 13.1132812,27.7714844 L13.1132812,27.9003906 C13.1132812,28.8457079 12.8593775,29.6191376 12.3515625,30.2207031 C11.8437475,30.8222686 11.1523481,31.1230469 10.2773438,31.1230469 C9.40233938,31.1230469 8.70996349,30.8212921 8.20019531,30.2177734 C7.69042714,29.6142548 7.43554688,28.8418016 7.43554688,27.9003906 L7.43554688,27.7714844 Z M8.58984375,27.9003906 C8.58984375,28.572269 8.7314439,29.1269509 9.01464844,29.5644531 C9.29785298,30.0019553 9.71874721,30.2207031 10.2773438,30.2207031 C10.8281278,30.2207031 11.2460923,30.0019553 11.53125,29.5644531 C11.8164077,29.1269509 11.9589844,28.572269 11.9589844,27.9003906 L11.9589844,27.7714844 C11.9589844,27.1074186 11.8154311,26.5546897 11.5283203,26.1132812 C11.2412095,25.6718728 10.8203153,25.4511719 10.265625,25.4511719 C9.714841,25.4511719 9.29785298,25.6718728 9.01464844,26.1132812 C8.7314439,26.5546897 8.58984375,27.1074186 8.58984375,27.7714844 L8.58984375,27.9003906 Z M15.5566406,24.6601562 L15.6386719,25.6035156 C15.8496104,25.2675764 16.1142562,25.0068369 16.4326172,24.8212891 C16.7509782,24.6357413 17.1132792,24.5429687 17.5195312,24.5429687 C18.2031284,24.5429687 18.73242,24.7431621 19.1074219,25.1435547 C19.4824237,25.5439473 19.6699219,26.1621052 19.6699219,26.9980469 L19.6699219,31 L18.515625,31 L18.515625,27.0214844 C18.515625,26.4628878 18.4052745,26.0664074 18.1845703,25.8320312 C17.9638661,25.5976551 17.6269554,25.4804687 17.1738281,25.4804687 C16.8417952,25.4804687 16.5478528,25.5605461 16.2919922,25.7207031 C16.0361315,25.8808602 15.832032,26.099608 15.6796875,26.3769531 L15.6796875,31 L14.5253906,31 L14.5253906,24.6601562 L15.5566406,24.6601562 Z M22.8691406,23.1308594 L22.8691406,24.6601562 L24.0703125,24.6601562 L24.0703125,25.515625 L22.8691406,25.515625 L22.8691406,29.3652344 C22.8691406,29.6621109 22.9306634,29.8710931 23.0537109,29.9921875 C23.1767584,30.1132819 23.3398427,30.1738281 23.5429688,30.1738281 C23.6093753,30.1738281 23.6826168,30.1660157 23.7626953,30.1503906 C23.8427738,30.1347655 23.9140622,30.1152345 23.9765625,30.0917969 L24.1289062,30.8828125 C24.0429683,30.9531254 23.916993,31.010742 23.7509766,31.0556641 C23.5849601,31.1005862 23.4179696,31.1230469 23.25,31.1230469 C22.7812477,31.1230469 22.4082045,30.9814467 22.1308594,30.6982422 C21.8535142,30.4150376 21.7148438,29.9707062 21.7148438,29.3652344 L21.7148438,25.515625 L20.7070312,25.515625 L20.7070312,24.6601562 L21.7148438,24.6601562 L21.7148438,23.1308594 L22.8691406,23.1308594 Z M26.7539062,31 L25.5996094,31 L25.5996094,29.8164062 L26.7539062,29.8164062 L26.7539062,31 Z M26.7539062,25.8671875 L25.5996094,25.8671875 L25.5996094,24.6835937 L26.7539062,24.6835937 L26.7539062,25.8671875 Z M32.8769531,27.3027344 L32.8769531,31 L31.7226562,31 L31.7226562,22.4746094 L34.8105469,22.4746094 C35.7441453,22.4746094 36.4570288,22.6816386 36.9492188,23.0957031 C37.4414087,23.5097677 37.6875,24.1113242 37.6875,24.9003906 C37.6875,25.3378928 37.5732433,25.7187484 37.3447266,26.0429687 C37.1162098,26.3671891 36.7832053,26.624999 36.3457031,26.8164062 C36.8144555,26.9687508 37.1513662,27.2158186 37.3564453,27.5576172 C37.5615245,27.8994158 37.6640625,28.3222631 37.6640625,28.8261719 L37.6640625,29.6289062 C37.6640625,29.8945326 37.6933591,30.1328114 37.7519531,30.34375 C37.8105472,30.5546886 37.9121087,30.7265618 38.0566406,30.859375 L38.0566406,31 L36.8671875,31 C36.714843,30.8671868 36.6171877,30.6718763 36.5742188,30.4140625 C36.5312498,30.1562487 36.5097656,29.8906264 36.5097656,29.6171875 L36.5097656,28.8378906 C36.5097656,28.3769508 36.3750013,28.0058608 36.1054688,27.7246094 C35.8359362,27.443358 35.4746116,27.3027344 35.0214844,27.3027344 L32.8769531,27.3027344 Z M32.8769531,26.3945312 L34.6933594,26.3945312 C35.3457064,26.3945312 35.8154283,26.2705091 36.1025391,26.0224609 C36.3896499,25.7744128 36.5332031,25.3964869 36.5332031,24.8886719 C36.5332031,24.4082007 36.3935561,24.0361341 36.1142578,23.7724609 C35.8349595,23.5087877 35.4003936,23.3769531 34.8105469,23.3769531 L32.8769531,23.3769531 L32.8769531,26.3945312 Z M39.1875,27.7714844 C39.1875,26.8339797 39.4414037,26.0615265 39.9492188,25.4541016 C40.4570338,24.8466767 41.14648,24.5429687 42.0175781,24.5429687 C42.8964888,24.5429687 43.5908178,24.8457001 44.1005859,25.4511719 C44.6103541,26.0566437 44.8652344,26.8300734 44.8652344,27.7714844 L44.8652344,27.9003906 C44.8652344,28.8457079 44.6113307,29.6191376 44.1035156,30.2207031 C43.5957006,30.8222686 42.9043013,31.1230469 42.0292969,31.1230469 C41.1542925,31.1230469 40.4619166,30.8212921 39.9521484,30.2177734 C39.4423803,29.6142548 39.1875,28.8418016 39.1875,27.9003906 L39.1875,27.7714844 Z M40.3417969,27.9003906 C40.3417969,28.572269 40.483397,29.1269509 40.7666016,29.5644531 C41.0498061,30.0019553 41.4707003,30.2207031 42.0292969,30.2207031 C42.5800809,30.2207031 42.9980454,30.0019553 43.2832031,29.5644531 C43.5683608,29.1269509 43.7109375,28.572269 43.7109375,27.9003906 L43.7109375,27.7714844 C43.7109375,27.1074186 43.5673842,26.5546897 43.2802734,26.1132812 C42.9931626,25.6718728 42.5722684,25.4511719 42.0175781,25.4511719 C41.4667941,25.4511719 41.0498061,25.6718728 40.7666016,26.1132812 C40.483397,26.5546897 40.3417969,27.1074186 40.3417969,27.7714844 L40.3417969,27.9003906 Z M51.6914062,28.0703125 C51.6914062,28.9843796 51.4716819,29.7216769 51.0322266,30.2822266 C50.5927712,30.8427762 49.9882851,31.1230469 49.21875,31.1230469 C48.8007792,31.1230469 48.4375015,31.041993 48.1289062,30.8798828 C47.820311,30.7177726 47.5644541,30.4785172 47.3613281,30.1621094 L47.2207031,31 L46.2773438,31 L46.2773438,21.859375 L47.4316406,21.859375 L47.4316406,25.4101562 C47.6308604,25.1289048 47.8779282,24.9140632 48.1728516,24.765625 C48.4677749,24.6171868 48.812498,24.5429687 49.2070312,24.5429687 C49.9882852,24.5429687 50.5976541,24.8554656 51.0351562,25.4804687 C51.4726584,26.1054719 51.6914062,26.9277293 51.6914062,27.9472656 L51.6914062,28.0703125 Z M50.5371094,27.9472656 C50.5371094,27.2206995 50.4033217,26.627932 50.1357422,26.1689453 C49.8681627,25.7099586 49.4609402,25.4804687 48.9140625,25.4804687 C48.558592,25.4804687 48.2587903,25.5673819 48.0146484,25.7412109 C47.7705066,25.9150399 47.5761726,26.148436 47.4316406,26.4414062 L47.4316406,29.1894531 C47.5800789,29.5019547 47.7744129,29.7460929 48.0146484,29.921875 C48.254884,30.0976571 48.5585919,30.1855469 48.9257812,30.1855469 C49.4687527,30.1855469 49.8730455,29.9921894 50.1386719,29.6054687 C50.4042982,29.2187481 50.5371094,28.7070344 50.5371094,28.0703125 L50.5371094,27.9472656 Z M52.828125,27.7714844 C52.828125,26.8339797 53.0820287,26.0615265 53.5898438,25.4541016 C54.0976588,24.8466767 54.787105,24.5429687 55.6582031,24.5429687 C56.5371138,24.5429687 57.2314428,24.8457001 57.7412109,25.4511719 C58.2509791,26.0566437 58.5058594,26.8300734 58.5058594,27.7714844 L58.5058594,27.9003906 C58.5058594,28.8457079 58.2519557,29.6191376 57.7441406,30.2207031 C57.2363256,30.8222686 56.5449263,31.1230469 55.6699219,31.1230469 C54.7949175,31.1230469 54.1025416,30.8212921 53.5927734,30.2177734 C53.0830053,29.6142548 52.828125,28.8418016 52.828125,27.9003906 L52.828125,27.7714844 Z M53.9824219,27.9003906 C53.9824219,28.572269 54.124022,29.1269509 54.4072266,29.5644531 C54.6904311,30.0019553 55.1113253,30.2207031 55.6699219,30.2207031 C56.2207059,30.2207031 56.6386704,30.0019553 56.9238281,29.5644531 C57.2089858,29.1269509 57.3515625,28.572269 57.3515625,27.9003906 L57.3515625,27.7714844 C57.3515625,27.1074186 57.2080092,26.5546897 56.9208984,26.1132812 C56.6337876,25.6718728 56.2128934,25.4511719 55.6582031,25.4511719 C55.1074191,25.4511719 54.6904311,25.6718728 54.4072266,26.1132812 C54.124022,26.5546897 53.9824219,27.1074186 53.9824219,27.7714844 L53.9824219,27.9003906 Z M61.4414062,23.1308594 L61.4414062,24.6601562 L62.6425781,24.6601562 L62.6425781,25.515625 L61.4414062,25.515625 L61.4414062,29.3652344 C61.4414062,29.6621109 61.5029291,29.8710931 61.6259766,29.9921875 C61.7490241,30.1132819 61.9121084,30.1738281 62.1152344,30.1738281 C62.181641,30.1738281 62.2548824,30.1660157 62.3349609,30.1503906 C62.4150395,30.1347655 62.4863278,30.1152345 62.5488281,30.0917969 L62.7011719,30.8828125 C62.6152339,30.9531254 62.4892586,31.010742 62.3232422,31.0556641 C62.1572257,31.1005862 61.9902352,31.1230469 61.8222656,31.1230469 C61.3535133,31.1230469 60.9804701,30.9814467 60.703125,30.6982422 C60.4257799,30.4150376 60.2871094,29.9707062 60.2871094,29.3652344 L60.2871094,25.515625 L59.2792969,25.515625 L59.2792969,24.6601562 L60.2871094,24.6601562 L60.2871094,23.1308594 L61.4414062,23.1308594 Z M63.796875,27.7714844 C63.796875,26.8339797 64.0507787,26.0615265 64.5585937,25.4541016 C65.0664088,24.8466767 65.755855,24.5429687 66.6269531,24.5429687 C67.5058638,24.5429687 68.2001928,24.8457001 68.7099609,25.4511719 C69.2197291,26.0566437 69.4746094,26.8300734 69.4746094,27.7714844 L69.4746094,27.9003906 C69.4746094,28.8457079 69.2207057,29.6191376 68.7128906,30.2207031 C68.2050756,30.8222686 67.5136762,31.1230469 66.6386719,31.1230469 C65.7636675,31.1230469 65.0712916,30.8212921 64.5615234,30.2177734 C64.0517553,29.6142548 63.796875,28.8418016 63.796875,27.9003906 L63.796875,27.7714844 Z M64.9511719,27.9003906 C64.9511719,28.572269 65.092772,29.1269509 65.3759766,29.5644531 C65.6591811,30.0019553 66.0800753,30.2207031 66.6386719,30.2207031 C67.1894559,30.2207031 67.6074204,30.0019553 67.8925781,29.5644531 C68.1777358,29.1269509 68.3203125,28.572269 68.3203125,27.9003906 L68.3203125,27.7714844 C68.3203125,27.1074186 68.1767592,26.5546897 67.8896484,26.1132812 C67.6025376,25.6718728 67.1816434,25.4511719 66.6269531,25.4511719 C66.0761691,25.4511719 65.6591811,25.6718728 65.3759766,26.1132812 C65.092772,26.5546897 64.9511719,27.1074186 64.9511719,27.7714844 L64.9511719,27.9003906 Z M75.2402344,27.3027344 L75.2402344,31 L74.0859375,31 L74.0859375,22.4746094 L77.1738281,22.4746094 C78.1074265,22.4746094 78.82031,22.6816386 79.3125,23.0957031 C79.80469,23.5097677 80.0507812,24.1113242 80.0507812,24.9003906 C80.0507812,25.3378928 79.9365246,25.7187484 79.7080078,26.0429687 C79.479491,26.3671891 79.1464866,26.624999 78.7089844,26.8164062 C79.1777367,26.9687508 79.5146474,27.2158186 79.7197266,27.5576172 C79.9248057,27.8994158 80.0273438,28.3222631 80.0273438,28.8261719 L80.0273438,29.6289062 C80.0273438,29.8945326 80.0566403,30.1328114 80.1152344,30.34375 C80.1738284,30.5546886 80.2753899,30.7265618 80.4199219,30.859375 L80.4199219,31 L79.2304688,31 C79.0781242,30.8671868 78.980469,30.6718763 78.9375,30.4140625 C78.894531,30.1562487 78.8730469,29.8906264 78.8730469,29.6171875 L78.8730469,28.8378906 C78.8730469,28.3769508 78.7382826,28.0058608 78.46875,27.7246094 C78.1992174,27.443358 77.8378929,27.3027344 77.3847656,27.3027344 L75.2402344,27.3027344 Z M75.2402344,26.3945312 L77.0566406,26.3945312 C77.7089876,26.3945312 78.1787095,26.2705091 78.4658203,26.0224609 C78.7529311,25.7744128 78.8964844,25.3964869 78.8964844,24.8886719 C78.8964844,24.4082007 78.7568373,24.0361341 78.4775391,23.7724609 C78.1982408,23.5087877 77.7636748,23.3769531 77.1738281,23.3769531 L75.2402344,23.3769531 L75.2402344,26.3945312 Z M84.4511719,31.1230469 C83.568355,31.1230469 82.8662135,30.8291045 82.3447266,30.2412109 C81.8232396,29.6533174 81.5625,28.8906297 81.5625,27.953125 L81.5625,27.6953125 C81.5625,26.7929642 81.831052,26.0419952 82.3681641,25.4423828 C82.9052761,24.8427704 83.541012,24.5429687 84.2753906,24.5429687 C85.1308637,24.5429687 85.7773416,24.8007787 86.2148438,25.3164062 C86.6523459,25.8320338 86.8710938,26.519527 86.8710938,27.3789062 L86.8710938,28.0996094 L82.7578125,28.0996094 L82.7402344,28.1289062 C82.7519532,28.7382843 82.9062485,29.2392558 83.203125,29.6318359 C83.5000015,30.024416 83.9160129,30.2207031 84.4511719,30.2207031 C84.8417988,30.2207031 85.1845688,30.1650396 85.4794922,30.0537109 C85.7744155,29.9423823 86.0292958,29.7890635 86.2441406,29.59375 L86.6953125,30.34375 C86.4687489,30.5664074 86.1699237,30.7519524 85.7988281,30.9003906 C85.4277325,31.0488289 84.9785183,31.1230469 84.4511719,31.1230469 Z M84.2753906,25.4511719 C83.8886699,25.4511719 83.5585951,25.6142562 83.2851562,25.9404297 C83.0117174,26.2666032 82.8437503,26.6757788 82.78125,27.1679687 L82.7929688,27.1972656 L85.7167969,27.1972656 L85.7167969,27.0449219 C85.7167969,26.5917946 85.5957043,26.2128921 85.3535156,25.9082031 C85.1113269,25.6035141 84.7519555,25.4511719 84.2753906,25.4511719 Z M87.9140625,27.9472656 C87.9140625,26.9277293 88.1367165,26.1054719 88.5820312,25.4804687 C89.027346,24.8554656 89.6425742,24.5429687 90.4277344,24.5429687 C90.8300801,24.5429687 91.1835922,24.6240226 91.4882812,24.7861328 C91.7929703,24.948243 92.046874,25.1816391 92.25,25.4863281 L92.390625,24.6601562 L93.3105469,24.6601562 L93.3105469,31.0351562 C93.3105469,31.8476603 93.0742211,32.4716775 92.6015625,32.9072266 C92.1289039,33.3427756 91.4472701,33.5605469 90.5566406,33.5605469 C90.2519516,33.5605469 89.9228533,33.5185551 89.5693359,33.4345703 C89.2158185,33.3505855 88.9042982,33.2363288 88.6347656,33.0917969 L88.9277344,32.1953125 C89.1347667,32.3125006 89.3847642,32.4072262 89.6777344,32.4794922 C89.9707046,32.5517582 90.2597642,32.5878906 90.5449219,32.5878906 C91.1074247,32.5878906 91.5166003,32.4599622 91.7724609,32.2041016 C92.0283216,31.9482409 92.15625,31.5585964 92.15625,31.0351562 L92.15625,30.3203125 C91.9492177,30.5859388 91.7011733,30.7861321 91.4121094,30.9208984 C91.1230454,31.0556647 90.7910175,31.1230469 90.4160156,31.1230469 C89.638668,31.1230469 89.027346,30.8417997 88.5820312,30.2792969 C88.1367165,29.7167941 87.9140625,28.9804733 87.9140625,28.0703125 L87.9140625,27.9472656 Z M89.0683594,28.0703125 C89.0683594,28.7070344 89.2031237,29.2187481 89.4726562,29.6054687 C89.7421888,29.9921894 90.152341,30.1855469 90.703125,30.1855469 C91.050783,30.1855469 91.3417957,30.1064461 91.5761719,29.9482422 C91.810548,29.7900383 92.0039055,29.5664077 92.15625,29.2773437 L92.15625,26.359375 C92.0078118,26.0898424 91.8144543,25.8759774 91.5761719,25.7177734 C91.3378894,25.5595695 91.0507829,25.4804687 90.7148438,25.4804687 C90.1640597,25.4804687 89.7519545,25.7109352 89.4785156,26.171875 C89.2050768,26.6328148 89.0683594,27.2246058 89.0683594,27.9472656 L89.0683594,28.0703125 Z M99.0117188,30.0625 C98.812499,30.4023454 98.5566422,30.6640616 98.2441406,30.8476562 C97.9316391,31.0312509 97.5703146,31.1230469 97.1601562,31.1230469 C96.4687465,31.1230469 95.9296894,30.902346 95.5429688,30.4609375 C95.1562481,30.019529 94.9628906,29.3320359 94.9628906,28.3984375 L94.9628906,24.6601562 L96.1171875,24.6601562 L96.1171875,28.4101562 C96.1171875,29.0859409 96.2167959,29.55078 96.4160156,29.8046875 C96.6152354,30.058595 96.9257791,30.1855469 97.3476562,30.1855469 C97.7578146,30.1855469 98.0966783,30.1025399 98.3642578,29.9365234 C98.6318373,29.770507 98.8339837,29.5351578 98.9707031,29.2304687 L98.9707031,24.6601562 L100.125,24.6601562 L100.125,31 L99.0878906,31 L99.0117188,30.0625 Z M103.054688,31 L101.900391,31 L101.900391,21.859375 L103.054688,21.859375 L103.054688,31 Z M108.726562,31 C108.6875,30.8085928 108.657227,30.6396492 108.635742,30.4931641 C108.614258,30.346679 108.601563,30.1992195 108.597656,30.0507812 C108.382811,30.3554703 108.102541,30.6103505 107.756836,30.8154297 C107.411131,31.0205088 107.039064,31.1230469 106.640625,31.1230469 C105.980465,31.1230469 105.477541,30.9541033 105.131836,30.6162109 C104.786131,30.2783186 104.613281,29.812503 104.613281,29.21875 C104.613281,28.6132782 104.858396,28.1396501 105.348633,27.7978516 C105.83887,27.456053 106.503902,27.2851562 107.34375,27.2851562 L108.597656,27.2851562 L108.597656,26.6582031 C108.597656,26.2871075 108.484376,25.9931651 108.257812,25.7763672 C108.031249,25.5595692 107.71094,25.4511719 107.296875,25.4511719 C106.925779,25.4511719 106.624025,25.5458975 106.391602,25.7353516 C106.159179,25.9248056 106.042969,26.1523424 106.042969,26.4179687 L104.941406,26.4179687 L104.929688,26.3828125 C104.90625,25.9218727 105.124021,25.5000019 105.583008,25.1171875 C106.041994,24.7343731 106.634762,24.5429687 107.361328,24.5429687 C108.080082,24.5429687 108.658201,24.7255841 109.095703,25.0908203 C109.533205,25.4560565 109.751953,25.9824184 109.751953,26.6699219 L109.751953,29.7226562 C109.751953,29.9492199 109.763672,30.1679677 109.787109,30.3789062 C109.810547,30.5898448 109.853515,30.796874 109.916016,31 L108.726562,31 Z M106.810547,30.15625 C107.228518,30.15625 107.605467,30.0488292 107.941406,29.8339844 C108.277345,29.6191396 108.496093,29.3730483 108.597656,29.0957031 L108.597656,28.0644531 L107.302734,28.0644531 C106.837888,28.0644531 106.465822,28.1816395 106.186523,28.4160156 C105.907225,28.6503918 105.767578,28.9257797 105.767578,29.2421875 C105.767578,29.5234389 105.855468,29.7460929 106.03125,29.9101562 C106.207032,30.0742196 106.466795,30.15625 106.810547,30.15625 Z M114.427734,25.6796875 L113.835938,25.6445312 C113.531248,25.6445312 113.274415,25.7167962 113.06543,25.8613281 C112.856444,26.0058601 112.695313,26.2089831 112.582031,26.4707031 L112.582031,31 L111.427734,31 L111.427734,24.6601562 L112.458984,24.6601562 L112.570312,25.5859375 C112.750001,25.2578109 112.971678,25.001954 113.235352,24.8183594 C113.499025,24.6347647 113.802733,24.5429687 114.146484,24.5429687 C114.232422,24.5429687 114.314453,24.5498046 114.392578,24.5634766 C114.470704,24.5771485 114.535156,24.5917968 114.585938,24.6074219 L114.427734,25.6796875 Z M115.541016,30.71875 L114.662109,32.5117187 L113.976562,32.5117187 L114.386719,30.6601562 L114.386719,29.7050781 L115.541016,29.7050781 L115.541016,30.71875 Z M123.035156,31 L121.880859,31 L121.880859,23.59375 L120.134766,23.6171875 L120.134766,22.7851562 L123.035156,22.46875 L123.035156,31 Z M129.755859,22.3457031 C130.04883,22.3457031 130.338866,22.3789059 130.625977,22.4453125 C130.913087,22.5117191 131.15039,22.5957026 131.337891,22.6972656 L131.091797,23.5820312 C130.90039,23.4843745 130.700196,23.4052737 130.491211,23.3447266 C130.282226,23.2841794 130.037111,23.2539062 129.755859,23.2539062 C129.146481,23.2539062 128.655275,23.4980444 128.282227,23.9863281 C127.909178,24.4746118 127.722656,25.1113242 127.722656,25.8964844 L127.722656,26.03125 C127.972657,25.8124989 128.258787,25.6416022 128.581055,25.5185547 C128.903322,25.3955072 129.249998,25.3339844 129.621094,25.3339844 C130.382816,25.3339844 130.990232,25.5976536 131.443359,26.125 C131.896487,26.6523464 132.123047,27.3203085 132.123047,28.1289062 C132.123047,29.0117232 131.881838,29.7314425 131.399414,30.2880859 C130.91699,30.8447293 130.273442,31.1230469 129.46875,31.1230469 C128.632808,31.1230469 127.941409,30.8203155 127.394531,30.2148437 C126.847654,29.609372 126.574219,28.7558649 126.574219,27.6542969 L126.574219,26.0253906 C126.574219,24.9316352 126.878903,24.0449253 127.488281,23.3652344 C128.097659,22.6855435 128.853511,22.3457031 129.755859,22.3457031 Z M129.363281,26.1953125 C128.968748,26.1953125 128.632814,26.2753898 128.355469,26.4355469 C128.078124,26.5957039 127.867188,26.8085924 127.722656,27.0742187 L127.722656,27.765625 C127.722656,28.5507852 127.88867,29.1562479 128.220703,29.5820312 C128.552736,30.0078146 128.968748,30.2207031 129.46875,30.2207031 C129.941409,30.2207031 130.309569,30.0205098 130.573242,29.6201172 C130.836915,29.2197246 130.96875,28.7226592 130.96875,28.1289062 C130.96875,27.5664034 130.82715,27.1035174 130.543945,26.7402344 C130.260741,26.3769513 129.86719,26.1953125 129.363281,26.1953125 Z M138.796875,28.0703125 C138.796875,28.9843796 138.578127,29.7216769 138.140625,30.2822266 C137.703123,30.8427762 137.099613,31.1230469 136.330078,31.1230469 C135.939451,31.1230469 135.596681,31.0576178 135.301758,30.9267578 C135.006834,30.7958978 134.75586,30.5996107 134.548828,30.3378906 L134.548828,33.4375 L133.394531,33.4375 L133.394531,24.6601562 L134.279297,24.6601562 L134.460938,25.4804687 C134.66797,25.1757797 134.92578,24.9433602 135.234375,24.7832031 C135.54297,24.6230461 135.902342,24.5429687 136.3125,24.5429687 C137.09766,24.5429687 137.708006,24.8544891 138.143555,25.4775391 C138.579104,26.1005891 138.796875,26.923823 138.796875,27.9472656 L138.796875,28.0703125 Z M137.642578,27.9472656 C137.642578,27.228512 137.500978,26.6376976 137.217773,26.1748047 C136.934569,25.7119117 136.517581,25.4804687 135.966797,25.4804687 C135.634764,25.4804687 135.351564,25.5556633 135.117188,25.7060547 C134.882811,25.8564461 134.69336,26.0624987 134.548828,26.3242187 L134.548828,29.3886719 C134.69336,29.6503919 134.882811,29.8544915 135.117188,30.0009766 C135.351564,30.1474617 135.63867,30.2207031 135.978516,30.2207031 C136.525393,30.2207031 136.939452,30.0205098 137.220703,29.6201172 C137.501955,29.2197246 137.642578,28.7031282 137.642578,28.0703125 L137.642578,27.9472656 Z M142.277344,26.9980469 L143.625,24.6601562 L144.972656,24.6601562 L142.916016,27.7949219 L145.03125,31 L143.707031,31 L142.300781,28.6035156 L140.894531,31 L139.558594,31 L141.673828,27.7949219 L139.617188,24.6601562 L140.947266,24.6601562 L142.277344,26.9980469 Z"></path>
                <path d="M7.08398438,46.2695312 L7.09570313,46.3046875 C7.1113282,47.1054728 6.83008102,47.7753879 6.25195313,48.3144531 C5.67382523,48.8535183 4.910161,49.1230469 3.9609375,49.1230469 C2.99608893,49.1230469 2.20996397,48.7812534 1.60253906,48.0976562 C0.99511415,47.4140591 0.69140625,46.5468803 0.69140625,45.4960937 L0.69140625,43.9785156 C0.69140625,42.9277291 0.99511415,42.0595737 1.60253906,41.3740234 C2.20996397,40.6884731 2.99608893,40.3457031 3.9609375,40.3457031 C4.92578607,40.3457031 5.69335652,40.6025365 6.26367188,41.1162109 C6.83398723,41.6298854 7.1113282,42.3105426 7.09570313,43.1582031 L7.08398438,43.1933594 L5.9765625,43.1933594 C5.9765625,42.5957001 5.80078301,42.1230486 5.44921875,41.7753906 C5.09765449,41.4277326 4.6015657,41.2539062 3.9609375,41.2539062 C3.31640303,41.2539062 2.80273629,41.5136693 2.41992188,42.0332031 C2.03710746,42.552737 1.84570313,43.1972618 1.84570313,43.9667969 L1.84570313,45.4960937 C1.84570313,46.2734414 2.03710746,46.9218724 2.41992188,47.4414062 C2.80273629,47.9609401 3.31640303,48.2207031 3.9609375,48.2207031 C4.6015657,48.2207031 5.09765449,48.0478533 5.44921875,47.7021484 C5.80078301,47.3564436 5.9765625,46.8789093 5.9765625,46.2695312 L7.08398438,46.2695312 Z M8.16796875,45.7714844 C8.16796875,44.8339797 8.42187246,44.0615265 8.9296875,43.4541016 C9.43750254,42.8466767 10.1269488,42.5429687 10.9980469,42.5429687 C11.8769575,42.5429687 12.5712865,42.8457001 13.0810547,43.4511719 C13.5908229,44.0566437 13.8457031,44.8300734 13.8457031,45.7714844 L13.8457031,45.9003906 C13.8457031,46.8457079 13.5917994,47.6191376 13.0839844,48.2207031 C12.5761693,48.8222686 11.88477,49.1230469 11.0097656,49.1230469 C10.1347613,49.1230469 9.44238536,48.8212921 8.93261719,48.2177734 C8.42284901,47.6142548 8.16796875,46.8418016 8.16796875,45.9003906 L8.16796875,45.7714844 Z M9.32226562,45.9003906 C9.32226562,46.572269 9.46386577,47.1269509 9.74707031,47.5644531 C10.0302749,48.0019553 10.4511691,48.2207031 11.0097656,48.2207031 C11.5605496,48.2207031 11.9785142,48.0019553 12.2636719,47.5644531 C12.5488296,47.1269509 12.6914062,46.572269 12.6914062,45.9003906 L12.6914062,45.7714844 C12.6914062,45.1074186 12.547853,44.5546897 12.2607422,44.1132812 C11.9736314,43.6718728 11.5527371,43.4511719 10.9980469,43.4511719 C10.4472629,43.4511719 10.0302749,43.6718728 9.74707031,44.1132812 C9.46386577,44.5546897 9.32226562,45.1074186 9.32226562,45.7714844 L9.32226562,45.9003906 Z M16.5058594,49 L15.3515625,49 L15.3515625,39.859375 L16.5058594,39.859375 L16.5058594,49 Z M18.0117188,45.7714844 C18.0117188,44.8339797 18.2656225,44.0615265 18.7734375,43.4541016 C19.2812525,42.8466767 19.9706988,42.5429687 20.8417969,42.5429687 C21.7207075,42.5429687 22.4150365,42.8457001 22.9248047,43.4511719 C23.4345729,44.0566437 23.6894531,44.8300734 23.6894531,45.7714844 L23.6894531,45.9003906 C23.6894531,46.8457079 23.4355494,47.6191376 22.9277344,48.2207031 C22.4199193,48.8222686 21.72852,49.1230469 20.8535156,49.1230469 C19.9785113,49.1230469 19.2861354,48.8212921 18.7763672,48.2177734 C18.266599,47.6142548 18.0117188,46.8418016 18.0117188,45.9003906 L18.0117188,45.7714844 Z M19.1660156,45.9003906 C19.1660156,46.572269 19.3076158,47.1269509 19.5908203,47.5644531 C19.8740249,48.0019553 20.2949191,48.2207031 20.8535156,48.2207031 C21.4042996,48.2207031 21.8222642,48.0019553 22.1074219,47.5644531 C22.3925796,47.1269509 22.5351562,46.572269 22.5351562,45.9003906 L22.5351562,45.7714844 C22.5351562,45.1074186 22.391603,44.5546897 22.1044922,44.1132812 C21.8173814,43.6718728 21.3964871,43.4511719 20.8417969,43.4511719 C20.2910129,43.4511719 19.8740249,43.6718728 19.5908203,44.1132812 C19.3076158,44.5546897 19.1660156,45.1074186 19.1660156,45.7714844 L19.1660156,45.9003906 Z M28.1015625,43.6796875 L27.5097656,43.6445312 C27.2050766,43.6445312 26.9482432,43.7167962 26.7392578,43.8613281 C26.5302724,44.0058601 26.3691412,44.2089831 26.2558594,44.4707031 L26.2558594,49 L25.1015625,49 L25.1015625,42.6601562 L26.1328125,42.6601562 L26.2441406,43.5859375 C26.423829,43.2578109 26.6455065,43.001954 26.9091797,42.8183594 C27.1728529,42.6347647 27.4765608,42.5429687 27.8203125,42.5429687 C27.9062504,42.5429687 27.9882809,42.5498046 28.0664062,42.5634766 C28.1445316,42.5771485 28.2089841,42.5917968 28.2597656,42.6074219 L28.1015625,43.6796875 Z M29.4667969,49 L28.3125,49 L28.3125,47.8164062 L29.4667969,47.8164062 L29.4667969,49 Z M29.4667969,43.8671875 L28.3125,43.8671875 L28.3125,42.6835937 L29.4667969,42.6835937 L29.4667969,43.8671875 Z M37.5527344,46.5976562 L36.0585938,46.5976562 L35.5898438,49 L34.7050781,49 L35.1738281,46.5976562 L33.7910156,46.5976562 L33.7910156,45.7773437 L35.3378906,45.7773437 L35.7363281,43.7382812 L34.2363281,43.7382812 L34.2363281,42.90625 L35.9003906,42.90625 L36.3808594,40.46875 L37.265625,40.46875 L36.7851562,42.90625 L38.2792969,42.90625 L38.7597656,40.46875 L39.6445312,40.46875 L39.1640625,42.90625 L40.3300781,42.90625 L40.3300781,43.7382812 L39.0058594,43.7382812 L38.6074219,45.7773437 L39.890625,45.7773437 L39.890625,46.5976562 L38.4433594,46.5976562 L37.9746094,49 L37.0839844,49 L37.5527344,46.5976562 Z M36.2226562,45.7773437 L37.7167969,45.7773437 L38.1152344,43.7382812 L36.6210938,43.7382812 L36.2226562,45.7773437 Z M44.8125,40.3457031 C45.1054702,40.3457031 45.3955064,40.3789059 45.6826172,40.4453125 C45.969728,40.5117191 46.2070303,40.5957026 46.3945312,40.6972656 L46.1484375,41.5820312 C45.9570303,41.4843745 45.756837,41.4052737 45.5478516,41.3447266 C45.3388661,41.2841794 45.0937514,41.2539062 44.8125,41.2539062 C44.203122,41.2539062 43.7119159,41.4980444 43.3388672,41.9863281 C42.9658184,42.4746118 42.7792969,43.1113242 42.7792969,43.8964844 L42.7792969,44.03125 C43.0292981,43.8124989 43.3154281,43.6416022 43.6376953,43.5185547 C43.9599625,43.3955072 44.3066388,43.3339844 44.6777344,43.3339844 C45.4394569,43.3339844 46.0468727,43.5976536 46.5,44.125 C46.9531273,44.6523464 47.1796875,45.3203085 47.1796875,46.1289062 C47.1796875,47.0117232 46.938479,47.7314425 46.4560547,48.2880859 C45.9736304,48.8447293 45.3300821,49.1230469 44.5253906,49.1230469 C43.6894489,49.1230469 42.9980496,48.8203155 42.4511719,48.2148437 C41.9042941,47.609372 41.6308594,46.7558649 41.6308594,45.6542969 L41.6308594,44.0253906 C41.6308594,42.9316352 41.9355438,42.0449253 42.5449219,41.3652344 C43.1542999,40.6855435 43.9101517,40.3457031 44.8125,40.3457031 Z M44.4199219,44.1953125 C44.0253887,44.1953125 43.6894545,44.2753898 43.4121094,44.4355469 C43.1347642,44.5957039 42.9238288,44.8085924 42.7792969,45.0742187 L42.7792969,45.765625 C42.7792969,46.5507852 42.9453108,47.1562479 43.2773438,47.5820312 C43.6093767,48.0078146 44.0253881,48.2207031 44.5253906,48.2207031 C44.9980492,48.2207031 45.3662096,48.0205098 45.6298828,47.6201172 C45.893556,47.2197246 46.0253906,46.7226592 46.0253906,46.1289062 C46.0253906,45.5664034 45.8837905,45.1035174 45.6005859,44.7402344 C45.3173814,44.3769513 44.9238306,44.1953125 44.4199219,44.1953125 Z M51.6035156,49 L50.4492188,49 L50.4492188,41.59375 L48.703125,41.6171875 L48.703125,40.7851562 L51.6035156,40.46875 L51.6035156,49 Z M58.3242188,40.3457031 C58.617189,40.3457031 58.9072251,40.3789059 59.1943359,40.4453125 C59.4814467,40.5117191 59.7187491,40.5957026 59.90625,40.6972656 L59.6601562,41.5820312 C59.468749,41.4843745 59.2685557,41.4052737 59.0595703,41.3447266 C58.8505849,41.2841794 58.6054702,41.2539062 58.3242188,41.2539062 C57.7148407,41.2539062 57.2236347,41.4980444 56.8505859,41.9863281 C56.4775372,42.4746118 56.2910156,43.1113242 56.2910156,43.8964844 L56.2910156,44.03125 C56.5410169,43.8124989 56.8271468,43.6416022 57.1494141,43.5185547 C57.4716813,43.3955072 57.8183575,43.3339844 58.1894531,43.3339844 C58.9511757,43.3339844 59.5585915,43.5976536 60.0117188,44.125 C60.464846,44.6523464 60.6914062,45.3203085 60.6914062,46.1289062 C60.6914062,47.0117232 60.4501977,47.7314425 59.9677734,48.2880859 C59.4853492,48.8447293 58.8418009,49.1230469 58.0371094,49.1230469 C57.2011677,49.1230469 56.5097684,48.8203155 55.9628906,48.2148437 C55.4160129,47.609372 55.1425781,46.7558649 55.1425781,45.6542969 L55.1425781,44.0253906 C55.1425781,42.9316352 55.4472626,42.0449253 56.0566406,41.3652344 C56.6660187,40.6855435 57.4218705,40.3457031 58.3242188,40.3457031 Z M57.9316406,44.1953125 C57.5371074,44.1953125 57.2011733,44.2753898 56.9238281,44.4355469 C56.646483,44.5957039 56.4355476,44.8085924 56.2910156,45.0742187 L56.2910156,45.765625 C56.2910156,46.5507852 56.4570296,47.1562479 56.7890625,47.5820312 C57.1210954,48.0078146 57.5371069,48.2207031 58.0371094,48.2207031 C58.509768,48.2207031 58.8779284,48.0205098 59.1416016,47.6201172 C59.4052748,47.2197246 59.5371094,46.7226592 59.5371094,46.1289062 C59.5371094,45.5664034 59.3955092,45.1035174 59.1123047,44.7402344 C58.8291001,44.3769513 58.4355494,44.1953125 57.9316406,44.1953125 Z M65.1152344,49 L63.9609375,49 L63.9609375,41.59375 L62.2148438,41.6171875 L62.2148438,40.7851562 L65.1152344,40.46875 L65.1152344,49 Z M71.8359375,40.3457031 C72.1289077,40.3457031 72.4189439,40.3789059 72.7060547,40.4453125 C72.9931655,40.5117191 73.2304678,40.5957026 73.4179688,40.6972656 L73.171875,41.5820312 C72.9804678,41.4843745 72.7802745,41.4052737 72.5712891,41.3447266 C72.3623036,41.2841794 72.1171889,41.2539062 71.8359375,41.2539062 C71.2265595,41.2539062 70.7353534,41.4980444 70.3623047,41.9863281 C69.9892559,42.4746118 69.8027344,43.1113242 69.8027344,43.8964844 L69.8027344,44.03125 C70.0527356,43.8124989 70.3388656,43.6416022 70.6611328,43.5185547 C70.9834,43.3955072 71.3300763,43.3339844 71.7011719,43.3339844 C72.4628944,43.3339844 73.0703102,43.5976536 73.5234375,44.125 C73.9765648,44.6523464 74.203125,45.3203085 74.203125,46.1289062 C74.203125,47.0117232 73.9619165,47.7314425 73.4794922,48.2880859 C72.9970679,48.8447293 72.3535196,49.1230469 71.5488281,49.1230469 C70.7128864,49.1230469 70.0214871,48.8203155 69.4746094,48.2148437 C68.9277316,47.609372 68.6542969,46.7558649 68.6542969,45.6542969 L68.6542969,44.0253906 C68.6542969,42.9316352 68.9589813,42.0449253 69.5683594,41.3652344 C70.1777374,40.6855435 70.9335892,40.3457031 71.8359375,40.3457031 Z M71.4433594,44.1953125 C71.0488262,44.1953125 70.712892,44.2753898 70.4355469,44.4355469 C70.1582017,44.5957039 69.9472663,44.8085924 69.8027344,45.0742187 L69.8027344,45.765625 C69.8027344,46.5507852 69.9687483,47.1562479 70.3007812,47.5820312 C70.6328142,48.0078146 71.0488256,48.2207031 71.5488281,48.2207031 C72.0214867,48.2207031 72.3896471,48.0205098 72.6533203,47.6201172 C72.9169935,47.2197246 73.0488281,46.7226592 73.0488281,46.1289062 C73.0488281,45.5664034 72.907228,45.1035174 72.6240234,44.7402344 C72.3408189,44.3769513 71.9472681,44.1953125 71.4433594,44.1953125 Z M78.6269531,49 L77.4726562,49 L77.4726562,41.59375 L75.7265625,41.6171875 L75.7265625,40.7851562 L78.6269531,40.46875 L78.6269531,49 Z M85.1484375,45.5371094 C85.1484375,43.9980392 85.4589813,42.6835992 86.0800781,41.59375 C86.701175,40.5039008 87.3535122,39.7773456 88.0371094,39.4140625 L88.0722656,39.4199219 L88.2949219,40.0996094 C87.7597629,40.5175802 87.2939473,41.1874954 86.8974609,42.109375 C86.5009746,43.0312546 86.3027344,44.1699151 86.3027344,45.5253906 L86.3027344,45.6015625 C86.3027344,46.957038 86.499998,48.0956985 86.8945312,49.0175781 C87.2890645,49.9394577 87.7558567,50.6269509 88.2949219,51.0800781 L88.0722656,51.7128906 L88.0371094,51.7128906 C87.3535122,51.3496076 86.701175,50.6240289 86.0800781,49.5361328 C85.4589813,48.4482367 85.1484375,47.1328202 85.1484375,45.5898437 L85.1484375,45.5371094 Z M88.9394531,45.9472656 C88.9394531,44.9277293 89.1621071,44.1054719 89.6074219,43.4804687 C90.0527366,42.8554656 90.6679648,42.5429687 91.453125,42.5429687 C91.8554708,42.5429687 92.2089829,42.6240226 92.5136719,42.7861328 C92.8183609,42.948243 93.0722646,43.1816391 93.2753906,43.4863281 L93.4160156,42.6601562 L94.3359375,42.6601562 L94.3359375,49.0351562 C94.3359375,49.8476603 94.0996117,50.4716775 93.6269531,50.9072266 C93.1542945,51.3427756 92.4726607,51.5605469 91.5820312,51.5605469 C91.2773422,51.5605469 90.948244,51.5185551 90.5947266,51.4345703 C90.2412092,51.3505855 89.9296888,51.2363288 89.6601562,51.0917969 L89.953125,50.1953125 C90.1601573,50.3125006 90.4101548,50.4072262 90.703125,50.4794922 C90.9960952,50.5517582 91.2851548,50.5878906 91.5703125,50.5878906 C92.1328153,50.5878906 92.5419909,50.4599622 92.7978516,50.2041016 C93.0537122,49.9482409 93.1816406,49.5585964 93.1816406,49.0351562 L93.1816406,48.3203125 C92.9746083,48.5859388 92.7265639,48.7861321 92.4375,48.9208984 C92.1484361,49.0556647 91.8164081,49.1230469 91.4414062,49.1230469 C90.6640586,49.1230469 90.0527366,48.8417997 89.6074219,48.2792969 C89.1621071,47.7167941 88.9394531,46.9804733 88.9394531,46.0703125 L88.9394531,45.9472656 Z M90.09375,46.0703125 C90.09375,46.7070344 90.2285143,47.2187481 90.4980469,47.6054687 C90.7675795,47.9921894 91.1777316,48.1855469 91.7285156,48.1855469 C92.0761736,48.1855469 92.3671863,48.1064461 92.6015625,47.9482422 C92.8359387,47.7900383 93.0292961,47.5664077 93.1816406,47.2773437 L93.1816406,44.359375 C93.0332024,44.0898424 92.8398449,43.8759774 92.6015625,43.7177734 C92.3632801,43.5595695 92.0761736,43.4804687 91.7402344,43.4804687 C91.1894504,43.4804687 90.7773451,43.7109352 90.5039062,44.171875 C90.2304674,44.6328148 90.09375,45.2246058 90.09375,45.9472656 L90.09375,46.0703125 Z M99.0117188,43.6796875 L98.4199219,43.6445312 C98.1152329,43.6445312 97.8583995,43.7167962 97.6494141,43.8613281 C97.4404286,44.0058601 97.2792974,44.2089831 97.1660156,44.4707031 L97.1660156,49 L96.0117188,49 L96.0117188,42.6601562 L97.0429688,42.6601562 L97.1542969,43.5859375 C97.3339853,43.2578109 97.5556627,43.001954 97.8193359,42.8183594 C98.0830091,42.6347647 98.386717,42.5429687 98.7304688,42.5429687 C98.8164067,42.5429687 98.8984371,42.5498046 98.9765625,42.5634766 C99.0546879,42.5771485 99.1191404,42.5917968 99.1699219,42.6074219 L99.0117188,43.6796875 Z M104.021484,49 C103.982422,48.8085928 103.952149,48.6396492 103.930664,48.4931641 C103.90918,48.346679 103.896484,48.1992195 103.892578,48.0507812 C103.677733,48.3554703 103.397463,48.6103505 103.051758,48.8154297 C102.706053,49.0205088 102.333986,49.1230469 101.935547,49.1230469 C101.275387,49.1230469 100.772463,48.9541033 100.426758,48.6162109 C100.081053,48.2783186 99.9082031,47.812503 99.9082031,47.21875 C99.9082031,46.6132782 100.153318,46.1396501 100.643555,45.7978516 C101.133792,45.456053 101.798824,45.2851562 102.638672,45.2851562 L103.892578,45.2851562 L103.892578,44.6582031 C103.892578,44.2871075 103.779298,43.9931651 103.552734,43.7763672 C103.326171,43.5595692 103.005861,43.4511719 102.591797,43.4511719 C102.220701,43.4511719 101.918946,43.5458975 101.686523,43.7353516 C101.4541,43.9248056 101.337891,44.1523424 101.337891,44.4179687 L100.236328,44.4179687 L100.224609,44.3828125 C100.201172,43.9218727 100.418943,43.5000019 100.87793,43.1171875 C101.336916,42.7343731 101.929684,42.5429687 102.65625,42.5429687 C103.375004,42.5429687 103.953123,42.7255841 104.390625,43.0908203 C104.828127,43.4560565 105.046875,43.9824184 105.046875,44.6699219 L105.046875,47.7226562 C105.046875,47.9492199 105.058594,48.1679677 105.082031,48.3789062 C105.105469,48.5898448 105.148437,48.796874 105.210938,49 L104.021484,49 Z M102.105469,48.15625 C102.52344,48.15625 102.900389,48.0488292 103.236328,47.8339844 C103.572267,47.6191396 103.791015,47.3730483 103.892578,47.0957031 L103.892578,46.0644531 L102.597656,46.0644531 C102.13281,46.0644531 101.760744,46.1816395 101.481445,46.4160156 C101.202147,46.6503918 101.0625,46.9257797 101.0625,47.2421875 C101.0625,47.5234389 101.15039,47.7460929 101.326172,47.9101562 C101.501954,48.0742196 101.761717,48.15625 102.105469,48.15625 Z M108.574219,46.6503906 L108.779297,47.4472656 L108.814453,47.4472656 L110.373047,42.6601562 L111.65625,42.6601562 L108.990234,49.9726562 C108.830077,50.3984396 108.600587,50.7695297 108.301758,51.0859375 C108.002928,51.4023453 107.599612,51.5605469 107.091797,51.5605469 C106.998046,51.5605469 106.878907,51.5498048 106.734375,51.5283203 C106.589843,51.5068358 106.478516,51.4863282 106.400391,51.4667969 L106.517578,50.5585937 C106.494141,50.5546875 106.563476,50.5585937 106.725586,50.5703125 C106.887696,50.5820313 106.990234,50.5878906 107.033203,50.5878906 C107.279298,50.5878906 107.480468,50.4785167 107.636719,50.2597656 C107.79297,50.0410145 107.923828,49.7988295 108.029297,49.5332031 L108.304688,48.8710937 L105.949219,42.6601562 L107.238281,42.6601562 L108.574219,46.6503906 Z M120.732422,42.6953125 C120.732422,43.1406272 120.607423,43.5302718 120.357422,43.8642578 C120.107421,44.1982439 119.769533,44.4472648 119.34375,44.6113281 C119.83594,44.783204 120.229491,45.0527325 120.524414,45.4199219 C120.819337,45.7871112 120.966797,46.2109351 120.966797,46.6914062 C120.966797,47.4804727 120.709964,48.0830057 120.196289,48.4990234 C119.682615,48.9150411 119.015629,49.1230469 118.195312,49.1230469 C117.359371,49.1230469 116.686526,48.9150411 116.176758,48.4990234 C115.66699,48.0830057 115.412109,47.4804727 115.412109,46.6914062 C115.412109,46.2109351 115.556639,45.7871112 115.845703,45.4199219 C116.134767,45.0527325 116.525388,44.783204 117.017578,44.6113281 C116.591795,44.4472648 116.257814,44.1982439 116.015625,43.8642578 C115.773436,43.5302718 115.652344,43.1406272 115.652344,42.6953125 C115.652344,41.9453087 115.883787,41.366213 116.34668,40.9580078 C116.809573,40.5498026 117.421871,40.3457031 118.183594,40.3457031 C118.933598,40.3457031 119.545896,40.5498026 120.020508,40.9580078 C120.49512,41.366213 120.732422,41.9453087 120.732422,42.6953125 Z M119.818359,46.6679687 C119.818359,46.1992164 119.664064,45.8144546 119.355469,45.5136719 C119.046873,45.2128891 118.656252,45.0625 118.183594,45.0625 C117.703123,45.0625 117.313478,45.2128891 117.014648,45.5136719 C116.715819,45.8144546 116.566406,46.1992164 116.566406,46.6679687 C116.566406,47.1523462 116.714842,47.5322252 117.011719,47.8076172 C117.308595,48.0830092 117.703123,48.2207031 118.195312,48.2207031 C118.675784,48.2207031 119.066405,48.0820326 119.367188,47.8046875 C119.66797,47.5273424 119.818359,47.1484399 119.818359,46.6679687 Z M119.578125,42.71875 C119.578125,42.2968729 119.44629,41.947267 119.182617,41.6699219 C118.918944,41.3925767 118.58594,41.2539062 118.183594,41.2539062 C117.773435,41.2539062 117.441408,41.387694 117.1875,41.6552734 C116.933592,41.9228529 116.806641,42.2773415 116.806641,42.71875 C116.806641,43.1523459 116.934569,43.4999987 117.19043,43.7617187 C117.44629,44.0234388 117.781248,44.1542969 118.195312,44.1542969 C118.601565,44.1542969 118.933592,44.0234388 119.191406,43.7617187 C119.44922,43.4999987 119.578125,43.1523459 119.578125,42.71875 Z M127.664062,45.7480469 C127.664062,46.8378961 127.422854,47.6728487 126.94043,48.2529297 C126.458005,48.8330107 125.796879,49.1230469 124.957031,49.1230469 C124.117183,49.1230469 123.453127,48.8320342 122.964844,48.25 C122.47656,47.6679658 122.232422,46.8339898 122.232422,45.7480469 L122.232422,43.7265625 C122.232422,42.6406196 122.475584,41.805667 122.961914,41.2216797 C123.448245,40.6376924 124.109371,40.3457031 124.945312,40.3457031 C125.78516,40.3457031 126.44824,40.6376924 126.93457,41.2216797 C127.420901,41.805667 127.664062,42.6406196 127.664062,43.7265625 L127.664062,45.7480469 Z M126.509766,43.4804687 C126.509766,42.7421838 126.375978,42.1865253 126.108398,41.8134766 C125.840819,41.4404278 125.453128,41.2539062 124.945312,41.2539062 C124.437497,41.2539062 124.050783,41.4404278 123.785156,41.8134766 C123.51953,42.1865253 123.386719,42.7421838 123.386719,43.4804687 L123.386719,45.9824219 C123.386719,46.7207068 123.521483,47.2783184 123.791016,47.6552734 C124.060548,48.0322284 124.449216,48.2207031 124.957031,48.2207031 C125.464846,48.2207031 125.850585,48.033205 126.114258,47.6582031 C126.377931,47.2832012 126.509766,46.7246131 126.509766,45.9824219 L126.509766,43.4804687 Z M134.425781,45.7480469 C134.425781,46.8378961 134.184573,47.6728487 133.702148,48.2529297 C133.219724,48.8330107 132.558598,49.1230469 131.71875,49.1230469 C130.878902,49.1230469 130.214846,48.8320342 129.726562,48.25 C129.238279,47.6679658 128.994141,46.8339898 128.994141,45.7480469 L128.994141,43.7265625 C128.994141,42.6406196 129.237302,41.805667 129.723633,41.2216797 C130.209963,40.6376924 130.87109,40.3457031 131.707031,40.3457031 C132.546879,40.3457031 133.209959,40.6376924 133.696289,41.2216797 C134.18262,41.805667 134.425781,42.6406196 134.425781,43.7265625 L134.425781,45.7480469 Z M133.271484,43.4804687 C133.271484,42.7421838 133.137697,42.1865253 132.870117,41.8134766 C132.602538,41.4404278 132.214846,41.2539062 131.707031,41.2539062 C131.199216,41.2539062 130.812501,41.4404278 130.546875,41.8134766 C130.281249,42.1865253 130.148438,42.7421838 130.148438,43.4804687 L130.148438,45.9824219 C130.148438,46.7207068 130.283202,47.2783184 130.552734,47.6552734 C130.822267,48.0322284 131.210935,48.2207031 131.71875,48.2207031 C132.226565,48.2207031 132.612303,48.033205 132.875977,47.6582031 C133.13965,47.2832012 133.271484,46.7246131 133.271484,45.9824219 L133.271484,43.4804687 Z M138.275391,45.5898437 C138.275391,47.1328202 137.96387,48.4482367 137.34082,49.5361328 C136.71777,50.6240289 136.06641,51.3496076 135.386719,51.7128906 L135.351562,51.7128906 L135.128906,51.0800781 C135.656253,50.6699198 136.120115,49.9951219 136.520508,49.0556641 C136.9209,48.1162062 137.121094,46.9648506 137.121094,45.6015625 L137.121094,45.5253906 C137.121094,44.1894464 136.915041,43.0498094 136.50293,42.1064453 C136.090818,41.1630812 135.632815,40.4765646 135.128906,40.046875 L135.351562,39.4140625 L135.386719,39.4140625 C136.06641,39.7773456 136.71777,40.5039008 137.34082,41.59375 C137.96387,42.6835992 138.275391,43.9980392 138.275391,45.5371094 L138.275391,45.5898437 Z"></path>
            </g>
        </g>
    </g>
</svg>