<?xml version="1.0" encoding="UTF-8" standalone="no"?>
<svg width="402px" height="65px" viewBox="0 0 402 65" version="1.1" xmlns="http://www.w3.org/2000/svg" xmlns:xlink="http://www.w3.org/1999/xlink">
    <!-- Generator: Sketch 47.1 (45422) - http://www.bohemiancoding.com/sketch -->
    <title>text-fields-text-input-password-redaction</title>
    <desc>Created with Sketch.</desc>
    <style>
      @import url("https://fonts.googleapis.com/css?family=Roboto:300,400");
      @import url("https://stackpath.bootstrapcdn.com/font-awesome/4.7.0/css/font-awesome.min.css")
    </style>
    <defs></defs>
    <g stroke="none" stroke-width="1" fill="none" fill-rule="evenodd">
        <g>
            <g>
                <g transform="translate(0.000000, 17.000000)">
                    <g fill-rule="nonzero" fill="#FFFFFF">
                        <rect x="0" y="0" width="178" height="32" rx="2"></rect>
                    </g>
                    <rect stroke="#BDBDBD" x="0.5" y="0.5" width="177" height="31" rx="2"></rect>
                </g>
                <path d="M6.13671875,6.3857422 L1.57714844,6.3857422 L1.57714844,9.9472656 L6.83398438,9.9472656 L6.83398438,11 L0.23046875,11 L0.23046875,1.046875 L6.75878906,1.046875 L6.75878906,2.10644531 L1.57714844,2.10644531 L1.57714844,5.32617188 L6.13671875,5.32617188 L6.13671875,6.3857422 Z M9.3632812,3.60351562 L9.4589844,4.70410156 C9.7050794,4.31217252 10.0138328,4.00797634 10.3852539,3.79150391 C10.756675,3.57503147 11.1793596,3.46679688 11.6533203,3.46679688 C12.4508503,3.46679688 13.0683572,3.70035574 13.5058594,4.16748047 C13.9433616,4.6346052 14.1621094,5.35578939 14.1621094,6.3310547 L14.1621094,11 L12.8154297,11 L12.8154297,6.3583984 C12.8154297,5.70670247 12.6866875,5.24414199 12.4291992,4.97070312 C12.171711,4.69726426 11.7786485,4.56054688 11.25,4.56054688 C10.8626283,4.56054688 10.5196955,4.65397042 10.2211914,4.84082031 C9.9226873,5.02767021 9.6845712,5.28287599 9.5068359,5.60644531 L9.5068359,11 L8.16015625,11 L8.16015625,3.60351562 L9.3632812,3.60351562 Z M17.8945312,1.81933594 L17.8945312,3.60351562 L19.2958984,3.60351562 L19.2958984,4.6015625 L17.8945312,4.6015625 L17.8945312,9.0927734 C17.8945312,9.4391293 17.9663079,9.682942 18.1098633,9.8242188 C18.2534187,9.9654955 18.4436837,10.0361328 18.6806641,10.0361328 C18.7581384,10.0361328 18.8435868,10.0270183 18.9370117,10.0087891 C19.0304367,9.9905598 19.1136064,9.9677736 19.1865234,9.9404297 L19.3642578,10.8632812 C19.2639969,10.9453129 19.1170257,11.0125323 18.9233398,11.0649414 C18.729654,11.1173505 18.5348317,11.1435547 18.3388672,11.1435547 C17.7919895,11.1435547 17.3567725,10.9783545 17.0332031,10.6479492 C16.7096338,10.3175439 16.5478516,9.7991572 16.5478516,9.0927734 L16.5478516,4.6015625 L15.3720703,4.6015625 L15.3720703,3.60351562 L16.5478516,3.60351562 L16.5478516,1.81933594 L17.8945312,1.81933594 Z M24.0263672,11.1435547 C22.9964141,11.1435547 22.1772491,10.8006219 21.5688477,10.1147461 C20.9604462,9.4288703 20.65625,8.539068 20.65625,7.4453125 L20.65625,7.1445312 C20.65625,6.0917916 20.9695607,5.21566105 21.5961914,4.51611328 C22.2228221,3.81656551 22.9645139,3.46679688 23.8212891,3.46679688 C24.8193409,3.46679688 25.5735652,3.76757512 26.0839844,4.36914062 C26.5944036,4.97070613 26.8496094,5.77278145 26.8496094,6.7753906 L26.8496094,7.6162109 L22.0507812,7.6162109 L22.0302734,7.6503906 C22.0439454,8.3613317 22.2239566,8.9457985 22.5703125,9.4038086 C22.9166684,9.8618187 23.4020151,10.0908203 24.0263672,10.0908203 C24.4820986,10.0908203 24.881997,10.0258796 25.2260742,9.8959961 C25.5701515,9.7661126 25.8675118,9.5872407 26.1181641,9.359375 L26.6445312,10.234375 C26.380207,10.4941419 26.0315777,10.7106111 25.5986328,10.8837891 C25.1656879,11.056967 24.6416046,11.1435547 24.0263672,11.1435547 Z M23.8212891,4.52636719 C23.3701149,4.52636719 22.9850276,4.71663221 22.6660156,5.09716797 C22.3470036,5.47770373 22.151042,5.95507525 22.078125,6.5292969 L22.0917969,6.5634766 L25.5029297,6.5634766 L25.5029297,6.3857422 C25.5029297,5.85709371 25.3616551,5.41504084 25.0791016,5.05957031 C24.7965481,4.70409979 24.3772814,4.52636719 23.8212891,4.52636719 Z M31.8603516,4.79296875 L31.1699219,4.75195312 C30.8144513,4.75195312 30.5148124,4.83626218 30.2709961,5.00488281 C30.0271798,5.17350345 29.8391934,5.41048024 29.7070312,5.71582031 L29.7070312,11 L28.3603516,11 L28.3603516,3.60351562 L29.5634766,3.60351562 L29.6933594,4.68359375 C29.9029958,4.30077934 30.1616196,4.00227972 30.4692383,3.78808594 C30.776857,3.57389216 31.1311829,3.46679688 31.5322266,3.46679688 C31.6324875,3.46679688 31.7281896,3.47477206 31.8193359,3.49072266 C31.9104822,3.50667326 31.9856768,3.52376293 32.0449219,3.54199219 L31.8603516,4.79296875 Z M38.9013672,8.2587891 L39.140625,9.1884766 L39.1816406,9.1884766 L41,3.60351562 L42.4970703,3.60351562 L39.3867188,12.1347656 C39.1998689,12.6315129 38.9321306,13.0644513 38.5834961,13.4335938 C38.2348615,13.8027362 37.7643259,13.9873047 37.171875,13.9873047 C37.0624995,13.9873047 36.9235034,13.9747723 36.7548828,13.949707 C36.5862622,13.9246418 36.4563807,13.9007163 36.3652344,13.8779297 L36.5019531,12.8183594 C36.4746092,12.8138021 36.5555004,12.8183593 36.7446289,12.8320312 C36.9337575,12.8457032 37.0533852,12.8525391 37.1035156,12.8525391 C37.3906264,12.8525391 37.6253246,12.7249362 37.8076172,12.4697266 C37.9899098,12.214517 38.1425775,11.9319677 38.265625,11.6220703 L38.5869141,10.8496094 L35.8388672,3.60351562 L37.3427734,3.60351562 L38.9013672,8.2587891 Z M43.2626953,7.2333984 C43.2626953,6.139643 43.5589163,5.23844755 44.1513672,4.52978516 C44.7438181,3.82112276 45.548172,3.46679688 46.5644531,3.46679688 C47.5898489,3.46679688 48.3998994,3.81998345 48.9946289,4.52636719 C49.5893584,5.23275093 49.8867187,6.1350857 49.8867187,7.2333984 L49.8867187,7.3837891 C49.8867187,8.4866592 49.5904978,9.3889939 48.9980469,10.0908203 C48.405596,10.7926467 47.5989634,11.1435547 46.578125,11.1435547 C45.5572866,11.1435547 44.7495147,10.7915074 44.1547852,10.0874023 C43.5600556,9.3832973 43.2626953,8.4821018 43.2626953,7.3837891 L43.2626953,7.2333984 Z M44.609375,7.3837891 C44.609375,8.1676471 44.7745752,8.8147761 45.1049805,9.3251953 C45.4353858,9.8356145 45.926429,10.0908203 46.578125,10.0908203 C47.2207063,10.0908203 47.7083317,9.8356145 48.0410156,9.3251953 C48.3736996,8.8147761 48.5400391,8.1676471 48.5400391,7.3837891 L48.5400391,7.2333984 C48.5400391,6.458655 48.3725603,5.81380466 48.0375977,5.29882812 C47.702635,4.78385159 47.2115918,4.52636719 46.5644531,4.52636719 C45.9218718,4.52636719 45.4353858,4.78385159 45.1049805,5.29882812 C44.7745752,5.81380466 44.609375,6.458655 44.609375,7.2333984 L44.609375,7.3837891 Z M56.2304687,9.90625 C55.9980457,10.3027364 55.6995461,10.6080718 55.3349609,10.8222656 C54.9703758,11.0364594 54.5488305,11.1435547 54.0703125,11.1435547 C53.2636678,11.1435547 52.6347679,10.8860703 52.1835937,10.3710938 C51.7324196,9.8561172 51.5068359,9.0540419 51.5068359,7.9648438 L51.5068359,3.60351562 L52.8535156,3.60351562 L52.8535156,7.9785156 C52.8535156,8.766931 52.9697254,9.3092433 53.2021484,9.6054688 C53.4345715,9.9016942 53.7968725,10.0498047 54.2890625,10.0498047 C54.7675805,10.0498047 55.1629216,9.9529632 55.4750977,9.7592773 C55.7872737,9.5655915 56.0231112,9.2910174 56.1826172,8.9355469 L56.1826172,3.60351562 L57.5292969,3.60351562 L57.5292969,11 L56.3193359,11 L56.2304687,9.90625 Z M62.9912109,4.79296875 L62.3007812,4.75195312 C61.9453107,4.75195312 61.6456718,4.83626218 61.4018555,5.00488281 C61.1580391,5.17350345 60.9700527,5.41048024 60.8378906,5.71582031 L60.8378906,11 L59.4912109,11 L59.4912109,3.60351562 L60.6943359,3.60351562 L60.8242187,4.68359375 C61.0338552,4.30077934 61.2924789,4.00227972 61.6000977,3.78808594 C61.9077164,3.57389216 62.2620423,3.46679688 62.6630859,3.46679688 C62.7633469,3.46679688 62.859049,3.47477206 62.9501953,3.49072266 C63.0413416,3.50667326 63.1165362,3.52376293 63.1757812,3.54199219 L62.9912109,4.79296875 Z M74.0722656,7.5820312 C74.0722656,8.6484428 73.8170598,9.508623 73.3066406,10.1625977 C72.7962214,10.8165723 72.0921269,11.1435547 71.1943359,11.1435547 C70.7386045,11.1435547 70.3387061,11.0672208 69.9946289,10.9145508 C69.6505517,10.7618807 69.3577486,10.5328791 69.1162109,10.2275391 L69.1162109,13.84375 L67.7695312,13.84375 L67.7695312,3.60351562 L68.8017578,3.60351562 L69.0136719,4.56054688 C69.2552095,4.20507635 69.5559878,3.93392021 69.9160156,3.74707031 C70.2760435,3.56022042 70.6953101,3.46679688 71.1738281,3.46679688 C72.0898483,3.46679688 72.801918,3.83023725 73.3100586,4.55712891 C73.8181992,5.28402056 74.0722656,6.2444602 74.0722656,7.4384766 L74.0722656,7.5820312 Z M72.7255859,7.4384766 C72.7255859,6.5999307 72.5603858,5.91064723 72.2299805,5.37060547 C71.8995752,4.83056371 71.4130892,4.56054688 70.7705078,4.56054688 C70.3831361,4.56054688 70.0527357,4.64827386 69.7792969,4.82373047 C69.505858,4.99918708 69.2848316,5.23958181 69.1162109,5.54492188 L69.1162109,9.1201172 C69.2848316,9.4254573 69.505858,9.6635734 69.7792969,9.8344727 C70.0527357,10.0053719 70.3876933,10.0908203 70.7841797,10.0908203 C71.4222037,10.0908203 71.9052718,9.8572615 72.2333984,9.3901367 C72.5615251,8.923012 72.7255859,8.3203162 72.7255859,7.5820312 L72.7255859,7.4384766 Z M80.2724609,11 C80.2268878,10.7766916 80.1915691,10.5795907 80.1665039,10.4086914 C80.1414387,10.2377921 80.1266276,10.0657561 80.1220703,9.8925781 C79.871418,10.2480487 79.5444356,10.545409 79.1411133,10.784668 C78.737791,11.023927 78.3037133,11.1435547 77.8388672,11.1435547 C77.068681,11.1435547 76.4819356,10.9464538 76.0786133,10.5522461 C75.675291,10.1580384 75.4736328,9.6145868 75.4736328,8.921875 C75.4736328,8.2154913 75.7596,7.6629252 76.331543,7.2641602 C76.9034859,6.8653951 77.6793571,6.6660156 78.6591797,6.6660156 L80.1220703,6.6660156 L80.1220703,5.93457031 C80.1220703,5.50162544 79.9899102,5.15869267 79.7255859,4.90576172 C79.4612617,4.65283077 79.0875675,4.52636719 78.6044922,4.52636719 C78.1715473,4.52636719 77.8195001,4.63688041 77.5483398,4.85791016 C77.2771796,5.07893991 77.1416016,5.34439949 77.1416016,5.65429688 L75.8564453,5.65429688 L75.8427734,5.61328125 C75.8154296,5.07551814 76.069496,4.58333557 76.6049805,4.13671875 C77.1404649,3.69010193 77.832027,3.46679688 78.6796875,3.46679688 C79.5182334,3.46679688 80.1927058,3.67984813 80.703125,4.10595703 C81.2135442,4.53206593 81.46875,5.14615484 81.46875,5.94824219 L81.46875,9.5097656 C81.46875,9.7740899 81.4824217,10.0292956 81.5097656,10.2753906 C81.5371095,10.5214856 81.5872392,10.7630196 81.6601562,11 L80.2724609,11 Z M78.0371094,10.015625 C78.524742,10.015625 78.9645163,9.8903007 79.3564453,9.6396484 C79.7483744,9.3889961 80.0035801,9.1018896 80.1220703,8.7783203 L80.1220703,7.5751953 L78.6113281,7.5751953 C78.0690077,7.5751953 77.63493,7.7119127 77.309082,7.9853516 C76.983234,8.2587904 76.8203125,8.5800763 76.8203125,8.9492188 C76.8203125,9.2773454 76.9228505,9.5371084 77.1279297,9.7285156 C77.3330088,9.9199228 77.6360657,10.015625 78.0371094,10.015625 Z M87.7236328,9.0380859 C87.7236328,8.7418605 87.610841,8.4980478 87.3852539,8.3066406 C87.1596668,8.1152334 86.732425,7.9488939 86.1035156,7.8076172 C85.2057247,7.6116527 84.5301129,7.3461931 84.0766602,7.0112305 C83.6232074,6.6762679 83.3964844,6.2194039 83.3964844,5.640625 C83.3964844,5.03905949 83.6516902,4.52636931 84.1621094,4.10253906 C84.6725286,3.67870882 85.3378865,3.46679688 86.1582031,3.46679688 C87.0195356,3.46679688 87.7042618,3.68782331 88.2124023,4.12988281 C88.7205429,4.57194231 88.9632163,5.10969735 88.9404297,5.74316406 L88.9267578,5.78417969 L87.6416016,5.78417969 C87.6416016,5.46061036 87.5060235,5.17008592 87.2348633,4.91259766 C86.9637031,4.65510939 86.6048199,4.52636719 86.1582031,4.52636719 C85.6796851,4.52636719 85.3242199,4.63118385 85.0917969,4.84082031 C84.8593738,5.05045678 84.7431641,5.30338394 84.7431641,5.59960938 C84.7431641,5.8912775 84.8457021,6.1214184 85.0507812,6.2900391 C85.2558604,6.4586597 85.6728484,6.6090488 86.3017578,6.7412109 C87.2360073,6.9417328 87.9309873,7.2140282 88.3867187,7.5581055 C88.8424502,7.9021827 89.0703125,8.3636039 89.0703125,8.9423828 C89.0703125,9.5986361 88.8048529,10.1295553 88.2739258,10.5351562 C87.7429986,10.9407572 87.0491579,11.1435547 86.1923828,11.1435547 C85.2490187,11.1435547 84.5061876,10.9042993 83.9638672,10.4257812 C83.4215468,9.9472632 83.1640624,9.3890006 83.1914062,8.7509766 L83.2050781,8.7099609 L84.4902344,8.7099609 C84.5130209,9.188479 84.6907535,9.5382476 85.0234375,9.7592773 C85.3561215,9.9803071 85.745766,10.0908203 86.1923828,10.0908203 C86.6709008,10.0908203 87.0457343,9.9939788 87.3168945,9.800293 C87.5880547,9.6066071 87.7236328,9.3525406 87.7236328,9.0380859 Z M95.0449219,9.0380859 C95.0449219,8.7418605 94.93213,8.4980478 94.706543,8.3066406 C94.4809559,8.1152334 94.0537141,7.9488939 93.4248047,7.8076172 C92.5270137,7.6116527 91.851402,7.3461931 91.3979492,7.0112305 C90.9444964,6.6762679 90.7177734,6.2194039 90.7177734,5.640625 C90.7177734,5.03905949 90.9729792,4.52636931 91.4833984,4.10253906 C91.9938177,3.67870882 92.6591756,3.46679688 93.4794922,3.46679688 C94.3408246,3.46679688 95.0255508,3.68782331 95.5336914,4.12988281 C96.041832,4.57194231 96.2845053,5.10969735 96.2617187,5.74316406 L96.2480469,5.78417969 L94.9628906,5.78417969 C94.9628906,5.46061036 94.8273126,5.17008592 94.5561523,4.91259766 C94.2849921,4.65510939 93.926109,4.52636719 93.4794922,4.52636719 C93.0009742,4.52636719 92.645509,4.63118385 92.4130859,4.84082031 C92.1806629,5.05045678 92.0644531,5.30338394 92.0644531,5.59960938 C92.0644531,5.8912775 92.1669912,6.1214184 92.3720703,6.2900391 C92.5771495,6.4586597 92.9941375,6.6090488 93.6230469,6.7412109 C94.5572963,6.9417328 95.2522764,7.2140282 95.7080078,7.5581055 C96.1637393,7.9021827 96.3916016,8.3636039 96.3916016,8.9423828 C96.3916016,9.5986361 96.126142,10.1295553 95.5952148,10.5351562 C95.0642877,10.9407572 94.370447,11.1435547 93.5136719,11.1435547 C92.5703078,11.1435547 91.8274767,10.9042993 91.2851562,10.4257812 C90.7428358,9.9472632 90.4853514,9.3890006 90.5126953,8.7509766 L90.5263672,8.7099609 L91.8115234,8.7099609 C91.83431,9.188479 92.0120426,9.5382476 92.3447266,9.7592773 C92.6774105,9.9803071 93.0670551,10.0908203 93.5136719,10.0908203 C93.9921899,10.0908203 94.3670234,9.9939788 94.6381836,9.800293 C94.9093438,9.6066071 95.0449219,9.3525406 95.0449219,9.0380859 Z M99.959961,8.3066406 L100.117187,9.2021484 L100.158203,9.2021484 L100.349609,8.3066406 L101.826172,3.60351562 L102.90625,3.60351562 L104.389648,8.3066406 L104.601562,9.3046875 L104.642578,9.3046875 L104.84082,8.3066406 L106.00293,3.60351562 L107.342773,3.60351562 L105.196289,11 L104.109375,11 L102.680664,6.4951172 L102.373047,5.23730469 L102.332031,5.24414062 L102.038086,6.4951172 L100.629883,11 L99.542969,11 L97.3964844,3.60351562 L98.7363281,3.60351562 L99.959961,8.3066406 Z M108.347656,7.2333984 C108.347656,6.139643 108.643877,5.23844755 109.236328,4.52978516 C109.828779,3.82112276 110.633133,3.46679688 111.649414,3.46679688 C112.67481,3.46679688 113.48486,3.81998345 114.07959,4.52636719 C114.674319,5.23275093 114.97168,6.1350857 114.97168,7.2333984 L114.97168,7.3837891 C114.97168,8.4866592 114.675459,9.3889939 114.083008,10.0908203 C113.490557,10.7926467 112.683924,11.1435547 111.663086,11.1435547 C110.642247,11.1435547 109.834476,10.7915074 109.239746,10.0874023 C108.645017,9.3832973 108.347656,8.4821018 108.347656,7.3837891 L108.347656,7.2333984 Z M109.694336,7.3837891 C109.694336,8.1676471 109.859536,8.8147761 110.189941,9.3251953 C110.520347,9.8356145 111.01139,10.0908203 111.663086,10.0908203 C112.305667,10.0908203 112.793293,9.8356145 113.125977,9.3251953 C113.458661,8.8147761 113.625,8.1676471 113.625,7.3837891 L113.625,7.2333984 C113.625,6.458655 113.457521,5.81380466 113.122559,5.29882812 C112.787596,4.78385159 112.296553,4.52636719 111.649414,4.52636719 C111.006833,4.52636719 110.520347,4.78385159 110.189941,5.29882812 C109.859536,5.81380466 109.694336,6.458655 109.694336,7.2333984 L109.694336,7.3837891 Z M120.119141,4.79296875 L119.428711,4.75195312 C119.07324,4.75195312 118.773601,4.83626218 118.529785,5.00488281 C118.285969,5.17350345 118.097982,5.41048024 117.96582,5.71582031 L117.96582,11 L116.619141,11 L116.619141,3.60351562 L117.822266,3.60351562 L117.952148,4.68359375 C118.161785,4.30077934 118.420409,4.00227972 118.728027,3.78808594 C119.035646,3.57389216 119.389972,3.46679688 119.791016,3.46679688 C119.891277,3.46679688 119.986979,3.47477206 120.078125,3.49072266 C120.169271,3.50667326 120.244466,3.52376293 120.303711,3.54199219 L120.119141,4.79296875 Z M120.980469,7.4384766 C120.980469,6.2490175 121.234535,5.28971719 121.742676,4.56054688 C122.250816,3.83137656 122.962886,3.46679688 123.878906,3.46679688 C124.311851,3.46679688 124.695799,3.54654868 125.030762,3.70605469 C125.365724,3.86556069 125.651692,4.09798024 125.888672,4.40332031 L125.888672,0.3359375 L127.235352,0.3359375 L127.235352,11 L126.134766,11 L125.977539,10.0908203 C125.736001,10.4371762 125.43978,10.6992179 125.088867,10.8769531 C124.737954,11.0546884 124.33008,11.1435547 123.865234,11.1435547 C122.962886,11.1435547 122.256513,10.8165723 121.746094,10.1625977 C121.235675,9.508623 120.980469,8.6484428 120.980469,7.5820312 L120.980469,7.4384766 Z M122.327148,7.5820312 C122.327148,8.3294308 122.479816,8.9275694 122.785156,9.3764648 C123.090496,9.8253603 123.56445,10.0498047 124.207031,10.0498047 C124.608075,10.0498047 124.945311,9.9586598 125.21875,9.7763672 C125.492189,9.5940746 125.715494,9.3388688 125.888672,9.0107422 L125.888672,5.55859375 C125.715494,5.25325368 125.49105,5.01058033 125.215332,4.83056641 C124.939615,4.65055249 124.608075,4.56054688 124.220703,4.56054688 C123.573564,4.56054688 123.096193,4.82714577 122.788574,5.36035156 C122.480955,5.89355735 122.327148,6.5862588 122.327148,7.4384766 L122.327148,7.5820312 Z" fill="#616161" fill-rule="nonzero"></path>
                <path d="M5.67773438,61.8027344 L2.10351562,61.8027344 L1.29492188,64 L0.1171875,64 L3.41601562,55.46875 L4.40625,55.46875 L7.65234375,64 L6.47460937,64 L5.67773438,61.8027344 Z M2.4609375,60.8359375 L5.33203125,60.8359375 L3.92578125,56.9511719 L3.890625,56.9511719 L2.4609375,60.8359375 Z M10.03125,56.1308594 L10.03125,57.6601562 L11.2324219,57.6601562 L11.2324219,58.515625 L10.03125,58.515625 L10.03125,62.3652344 C10.03125,62.6621109 10.0927728,62.8710931 10.2158203,62.9921875 C10.3388678,63.1132819 10.5019521,63.1738281 10.7050781,63.1738281 C10.7714847,63.1738281 10.8447262,63.1660157 10.9248047,63.1503906 C11.0048832,63.1347655 11.0761716,63.1152345 11.1386719,63.0917969 L11.2910156,63.8828125 C11.2050777,63.9531254 11.0791024,64.010742 10.9130859,64.0556641 C10.7470695,64.1005862 10.580079,64.1230469 10.4121094,64.1230469 C9.943357,64.1230469 9.5703139,63.9814467 9.2929688,63.6982422 C9.0156236,63.4150376 8.87695312,62.9707062 8.87695312,62.3652344 L8.87695312,58.515625 L7.86914062,58.515625 L7.86914062,57.6601562 L8.87695312,57.6601562 L8.87695312,56.1308594 L10.03125,56.1308594 Z M16.8867188,64 L15.7324219,64 L15.7324219,54.859375 L16.8867188,54.859375 L16.8867188,64 Z M21.2929688,64.1230469 C20.4101518,64.1230469 19.7080104,63.8291045 19.1865234,63.2412109 C18.6650365,62.6533174 18.4042969,61.8906297 18.4042969,60.953125 L18.4042969,60.6953125 C18.4042969,59.7929642 18.6728489,59.0419952 19.2099609,58.4423828 C19.747073,57.8427704 20.3828088,57.5429688 21.1171875,57.5429688 C21.9726605,57.5429688 22.6191384,57.8007787 23.0566406,58.3164062 C23.4941428,58.8320338 23.7128906,59.519527 23.7128906,60.3789062 L23.7128906,61.0996094 L19.5996094,61.0996094 L19.5820312,61.1289062 C19.5937501,61.7382843 19.7480454,62.2392558 20.0449219,62.6318359 C20.3417984,63.024416 20.7578098,63.2207031 21.2929688,63.2207031 C21.6835957,63.2207031 22.0263657,63.1650396 22.3212891,63.0537109 C22.6162124,62.9423823 22.8710927,62.7890635 23.0859375,62.59375 L23.5371094,63.34375 C23.3105457,63.5664074 23.0117206,63.7519524 22.640625,63.9003906 C22.2695294,64.0488289 21.8203151,64.1230469 21.2929688,64.1230469 Z M21.1171875,58.4511719 C20.7304668,58.4511719 20.400392,58.6142562 20.1269531,58.9404297 C19.8535143,59.2666032 19.6855472,59.6757788 19.6230469,60.1679688 L19.6347656,60.1972656 L22.5585938,60.1972656 L22.5585938,60.0449219 C22.5585938,59.5917946 22.4375012,59.2128921 22.1953125,58.9082031 C21.9531238,58.6035141 21.5937524,58.4511719 21.1171875,58.4511719 Z M28.9042969,64 C28.8652342,63.8085928 28.834961,63.6396492 28.8134766,63.4931641 C28.7919921,63.346679 28.7792969,63.1992195 28.7753906,63.0507812 C28.5605458,63.3554703 28.2802752,63.6103505 27.9345703,63.8154297 C27.5888655,64.0205088 27.2167989,64.1230469 26.8183594,64.1230469 C26.1581998,64.1230469 25.6552752,63.9541033 25.3095703,63.6162109 C24.9638655,63.2783186 24.7910156,62.812503 24.7910156,62.21875 C24.7910156,61.6132782 25.0361304,61.1396501 25.5263672,60.7978516 C26.016604,60.456053 26.6816364,60.2851562 27.5214844,60.2851562 L28.7753906,60.2851562 L28.7753906,59.6582031 C28.7753906,59.2871075 28.6621105,58.9931651 28.4355469,58.7763672 C28.2089832,58.5595692 27.8886739,58.4511719 27.4746094,58.4511719 C27.1035138,58.4511719 26.801759,58.5458975 26.5693359,58.7353516 C26.3369129,58.9248056 26.2207031,59.1523424 26.2207031,59.4179688 L25.1191406,59.4179688 L25.1074219,59.3828125 C25.0839843,58.9218727 25.3017555,58.5000019 25.7607422,58.1171875 C26.2197289,57.7343731 26.8124964,57.5429688 27.5390625,57.5429688 C28.2578161,57.5429688 28.8359353,57.7255841 29.2734375,58.0908203 C29.7109397,58.4560565 29.9296875,58.9824184 29.9296875,59.6699219 L29.9296875,62.7226562 C29.9296875,62.9492199 29.9414061,63.1679677 29.9648438,63.3789062 C29.9882814,63.5898448 30.0312497,63.796874 30.09375,64 L28.9042969,64 Z M26.9882812,63.15625 C27.4062521,63.15625 27.7832014,63.0488292 28.1191406,62.8339844 C28.4550798,62.6191396 28.6738276,62.3730483 28.7753906,62.0957031 L28.7753906,61.0644531 L27.4804688,61.0644531 C27.0156227,61.0644531 26.6435561,61.1816395 26.3642578,61.4160156 C26.0849595,61.6503918 25.9453125,61.9257797 25.9453125,62.2421875 C25.9453125,62.5234389 26.0332022,62.7460929 26.2089844,62.9101562 C26.3847665,63.0742196 26.6445295,63.15625 26.9882812,63.15625 Z M35.2910156,62.3183594 C35.2910156,62.0644519 35.1943369,61.8554696 35.0009766,61.6914062 C34.8076162,61.5273429 34.4414089,61.3847662 33.9023438,61.2636719 C33.1328087,61.0957023 32.5537129,60.8681655 32.1650391,60.5810547 C31.7763652,60.2939439 31.5820312,59.9023462 31.5820312,59.40625 C31.5820312,58.8906224 31.8007791,58.4511737 32.2382812,58.0878906 C32.6757834,57.7246076 33.2460902,57.5429688 33.9492188,57.5429688 C34.6875037,57.5429688 35.2744119,57.73242 35.7099609,58.1113281 C36.14551,58.4902363 36.3535157,58.9511692 36.3339844,59.4941406 L36.3222656,59.5292969 L35.2207031,59.5292969 C35.2207031,59.2519517 35.1044933,59.0029308 34.8720703,58.7822266 C34.6396473,58.5615223 34.3320332,58.4511719 33.9492188,58.4511719 C33.5390604,58.4511719 33.234376,58.5410147 33.0351562,58.7207031 C32.8359365,58.9003915 32.7363281,59.1171862 32.7363281,59.3710938 C32.7363281,59.621095 32.8242179,59.8183587 33,59.9628906 C33.1757821,60.1074226 33.5332004,60.2363276 34.0722656,60.3496094 C34.8730509,60.5214852 35.468748,60.7548813 35.859375,61.0498047 C36.250002,61.344728 36.4453125,61.7402319 36.4453125,62.2363281 C36.4453125,62.7988309 36.2177757,63.2539045 35.7626953,63.6015625 C35.3076149,63.9492205 34.7128943,64.1230469 33.9785156,64.1230469 C33.1699178,64.1230469 32.5332054,63.9179708 32.0683594,63.5078125 C31.6035133,63.0976542 31.3828124,62.6191434 31.40625,62.0722656 L31.4179688,62.0371094 L32.5195312,62.0371094 C32.5390626,62.4472677 32.6914048,62.7470694 32.9765625,62.9365234 C33.2617202,63.1259775 33.5957012,63.2207031 33.9785156,63.2207031 C34.3886739,63.2207031 34.7099598,63.1376961 34.9423828,62.9716797 C35.1748058,62.8056632 35.2910156,62.587892 35.2910156,62.3183594 Z M39.4042969,56.1308594 L39.4042969,57.6601562 L40.6054688,57.6601562 L40.6054688,58.515625 L39.4042969,58.515625 L39.4042969,62.3652344 C39.4042969,62.6621109 39.4658197,62.8710931 39.5888672,62.9921875 C39.7119147,63.1132819 39.874999,63.1738281 40.078125,63.1738281 C40.1445316,63.1738281 40.217773,63.1660157 40.2978516,63.1503906 C40.3779301,63.1347655 40.4492184,63.1152345 40.5117188,63.0917969 L40.6640625,63.8828125 C40.5781246,63.9531254 40.4521493,64.010742 40.2861328,64.0556641 C40.1201164,64.1005862 39.9531258,64.1230469 39.7851562,64.1230469 C39.3164039,64.1230469 38.9433608,63.9814467 38.6660156,63.6982422 C38.3886705,63.4150376 38.25,62.9707062 38.25,62.3652344 L38.25,58.515625 L37.2421875,58.515625 L37.2421875,57.6601562 L38.25,57.6601562 L38.25,56.1308594 L39.4042969,56.1308594 Z M50.0917969,57.6953125 C50.0917969,58.1406272 49.9667981,58.5302718 49.7167969,58.8642578 C49.4667956,59.1982439 49.1289084,59.4472648 48.703125,59.6113281 C49.195315,59.783204 49.5888657,60.0527325 49.8837891,60.4199219 C50.1787124,60.7871112 50.3261719,61.2109351 50.3261719,61.6914062 C50.3261719,62.4804727 50.0693385,63.0830057 49.5556641,63.4990234 C49.0419896,63.9150411 48.3750041,64.1230469 47.5546875,64.1230469 C46.7187458,64.1230469 46.045901,63.9150411 45.5361328,63.4990234 C45.0263646,63.0830057 44.7714844,62.4804727 44.7714844,61.6914062 C44.7714844,61.2109351 44.9160142,60.7871112 45.2050781,60.4199219 C45.4941421,60.0527325 45.8847632,59.783204 46.3769531,59.6113281 C45.9511697,59.4472648 45.6171887,59.1982439 45.375,58.8642578 C45.1328113,58.5302718 45.0117188,58.1406272 45.0117188,57.6953125 C45.0117188,56.9453087 45.2431617,56.366213 45.7060547,55.9580078 C46.1689476,55.5498026 46.7812462,55.3457031 47.5429688,55.3457031 C48.2929725,55.3457031 48.9052711,55.5498026 49.3798828,55.9580078 C49.8544946,56.366213 50.0917969,56.9453087 50.0917969,57.6953125 Z M49.1777344,61.6679688 C49.1777344,61.1992164 49.023439,60.8144546 48.7148438,60.5136719 C48.4062485,60.2128891 48.0156274,60.0625 47.5429688,60.0625 C47.0624976,60.0625 46.6728531,60.2128891 46.3740234,60.5136719 C46.0751938,60.8144546 45.9257812,61.1992164 45.9257812,61.6679688 C45.9257812,62.1523462 46.0742173,62.5322252 46.3710938,62.8076172 C46.6679702,63.0830092 47.0624975,63.2207031 47.5546875,63.2207031 C48.0351587,63.2207031 48.4257797,63.0820326 48.7265625,62.8046875 C49.0273453,62.5273424 49.1777344,62.1484399 49.1777344,61.6679688 Z M48.9375,57.71875 C48.9375,57.2968729 48.8056654,56.947267 48.5419922,56.6699219 C48.278319,56.3925767 47.9453145,56.2539062 47.5429688,56.2539062 C47.1328104,56.2539062 46.8007825,56.387694 46.546875,56.6552734 C46.2929675,56.9228529 46.1660156,57.2773415 46.1660156,57.71875 C46.1660156,58.1523459 46.293944,58.4999987 46.5498047,58.7617188 C46.8056653,59.0234388 47.1406229,59.1542969 47.5546875,59.1542969 C47.9609395,59.1542969 48.2929675,59.0234388 48.5507812,58.7617188 C48.808595,58.4999987 48.9375,58.1523459 48.9375,57.71875 Z M57.328125,63.2207031 C57.7109394,63.2207031 58.0478501,63.1025402 58.3388672,62.8662109 C58.6298843,62.6298816 58.7753906,62.3398455 58.7753906,61.9960938 L59.8125,61.9960938 L59.8242188,62.03125 C59.8437501,62.5781277 59.6005885,63.0634744 59.0947266,63.4873047 C58.5888647,63.9111349 58.0000034,64.1230469 57.328125,64.1230469 C56.4062454,64.1230469 55.7011743,63.8222686 55.2128906,63.2207031 C54.7246069,62.6191376 54.4804688,61.8632858 54.4804688,60.953125 L54.4804688,60.7070312 C54.4804688,59.804683 54.7255835,59.0517608 55.2158203,58.4482422 C55.7060571,57.8447235 56.4101517,57.5429688 57.328125,57.5429688 C58.0703162,57.5429688 58.6767555,57.7617166 59.1474609,58.1992188 C59.6181664,58.6367209 59.8457032,59.1738249 59.8300781,59.8105469 L59.8183594,59.8457031 L58.7753906,59.8457031 C58.7753906,59.4589824 58.6386732,59.1298842 58.3652344,58.8583984 C58.0917955,58.5869127 57.7460958,58.4511719 57.328125,58.4511719 C56.7226532,58.4511719 56.2900404,58.6689431 56.0302734,59.1044922 C55.7705065,59.5400412 55.640625,60.0742156 55.640625,60.7070312 L55.640625,60.953125 C55.640625,61.6015657 55.76953,62.1415994 56.0273438,62.5732422 C56.2851575,63.004885 56.718747,63.2207031 57.328125,63.2207031 Z M62.2734375,58.5097656 C62.4921886,58.2050766 62.7607406,57.9677743 63.0791016,57.7978516 C63.3974625,57.6279288 63.7499981,57.5429688 64.1367188,57.5429688 C64.8125034,57.5429688 65.3388653,57.7460917 65.7158203,58.1523438 C66.0927753,58.5585958 66.28125,59.1835895 66.28125,60.0273438 L66.28125,64 L65.1269531,64 L65.1269531,60.015625 C65.1269531,59.4921849 65.0146496,59.10547 64.7900391,58.8554688 C64.5654286,58.6054675 64.230471,58.4804688 63.7851562,58.4804688 C63.4648421,58.4804688 63.174806,58.5556633 62.9150391,58.7060547 C62.6552721,58.8564461 62.4414071,59.0605456 62.2734375,59.3183594 L62.2734375,64 L61.1191406,64 L61.1191406,54.859375 L62.2734375,54.859375 L62.2734375,58.5097656 Z M71.8359375,64 C71.7968748,63.8085928 71.7666017,63.6396492 71.7451172,63.4931641 C71.7236327,63.346679 71.7109375,63.1992195 71.7070312,63.0507812 C71.4921864,63.3554703 71.2119158,63.6103505 70.8662109,63.8154297 C70.5205061,64.0205088 70.1484395,64.1230469 69.75,64.1230469 C69.0898404,64.1230469 68.5869158,63.9541033 68.2412109,63.6162109 C67.8955061,63.2783186 67.7226562,62.812503 67.7226562,62.21875 C67.7226562,61.6132782 67.967771,61.1396501 68.4580078,60.7978516 C68.9482446,60.456053 69.6132771,60.2851562 70.453125,60.2851562 L71.7070312,60.2851562 L71.7070312,59.6582031 C71.7070312,59.2871075 71.5937511,58.9931651 71.3671875,58.7763672 C71.1406239,58.5595692 70.8203146,58.4511719 70.40625,58.4511719 C70.0351544,58.4511719 69.7333996,58.5458975 69.5009766,58.7353516 C69.2685535,58.9248056 69.1523438,59.1523424 69.1523438,59.4179688 L68.0507812,59.4179688 L68.0390625,59.3828125 C68.0156249,58.9218727 68.2333961,58.5000019 68.6923828,58.1171875 C69.1513695,57.7343731 69.744137,57.5429688 70.4707031,57.5429688 C71.1894567,57.5429688 71.7675759,57.7255841 72.2050781,58.0908203 C72.6425803,58.4560565 72.8613281,58.9824184 72.8613281,59.6699219 L72.8613281,62.7226562 C72.8613281,62.9492199 72.8730468,63.1679677 72.8964844,63.3789062 C72.919922,63.5898448 72.9628903,63.796874 73.0253906,64 L71.8359375,64 Z M69.9199219,63.15625 C70.3378927,63.15625 70.7148421,63.0488292 71.0507812,62.8339844 C71.3867204,62.6191396 71.6054682,62.3730483 71.7070312,62.0957031 L71.7070312,61.0644531 L70.4121094,61.0644531 C69.9472633,61.0644531 69.5751967,61.1816395 69.2958984,61.4160156 C69.0166002,61.6503918 68.8769531,61.9257797 68.8769531,62.2421875 C68.8769531,62.5234389 68.9648429,62.7460929 69.140625,62.9101562 C69.3164071,63.0742196 69.5761702,63.15625 69.9199219,63.15625 Z M77.5371094,58.6796875 L76.9453125,58.6445312 C76.6406235,58.6445312 76.3837901,58.7167962 76.1748047,58.8613281 C75.9658193,59.0058601 75.8046881,59.2089831 75.6914062,59.4707031 L75.6914062,64 L74.5371094,64 L74.5371094,57.6601562 L75.5683594,57.6601562 L75.6796875,58.5859375 C75.8593759,58.2578109 76.0810534,58.001954 76.3447266,57.8183594 C76.6083998,57.6347647 76.9121077,57.5429688 77.2558594,57.5429688 C77.3417973,57.5429688 77.4238277,57.5498046 77.5019531,57.5634766 C77.5800785,57.5771485 77.644531,57.5917968 77.6953125,57.6074219 L77.5371094,58.6796875 Z M82.546875,64 C82.5078123,63.8085928 82.4775392,63.6396492 82.4560547,63.4931641 C82.4345702,63.346679 82.421875,63.1992195 82.4179688,63.0507812 C82.2031239,63.3554703 81.9228533,63.6103505 81.5771484,63.8154297 C81.2314436,64.0205088 80.859377,64.1230469 80.4609375,64.1230469 C79.8007779,64.1230469 79.2978533,63.9541033 78.9521484,63.6162109 C78.6064436,63.2783186 78.4335938,62.812503 78.4335938,62.21875 C78.4335938,61.6132782 78.6787085,61.1396501 79.1689453,60.7978516 C79.6591821,60.456053 80.3242146,60.2851562 81.1640625,60.2851562 L82.4179688,60.2851562 L82.4179688,59.6582031 C82.4179688,59.2871075 82.3046886,58.9931651 82.078125,58.7763672 C81.8515614,58.5595692 81.5312521,58.4511719 81.1171875,58.4511719 C80.7460919,58.4511719 80.4443371,58.5458975 80.2119141,58.7353516 C79.979491,58.9248056 79.8632812,59.1523424 79.8632812,59.4179688 L78.7617188,59.4179688 L78.75,59.3828125 C78.7265624,58.9218727 78.9443336,58.5000019 79.4033203,58.1171875 C79.862307,57.7343731 80.4550745,57.5429688 81.1816406,57.5429688 C81.9003942,57.5429688 82.4785134,57.7255841 82.9160156,58.0908203 C83.3535178,58.4560565 83.5722656,58.9824184 83.5722656,59.6699219 L83.5722656,62.7226562 C83.5722656,62.9492199 83.5839843,63.1679677 83.6074219,63.3789062 C83.6308595,63.5898448 83.6738278,63.796874 83.7363281,64 L82.546875,64 Z M80.6308594,63.15625 C81.0488302,63.15625 81.4257796,63.0488292 81.7617188,62.8339844 C82.0976579,62.6191396 82.3164057,62.3730483 82.4179688,62.0957031 L82.4179688,61.0644531 L81.1230469,61.0644531 C80.6582008,61.0644531 80.2861342,61.1816395 80.0068359,61.4160156 C79.7275377,61.6503918 79.5878906,61.9257797 79.5878906,62.2421875 C79.5878906,62.5234389 79.6757804,62.7460929 79.8515625,62.9101562 C80.0273446,63.0742196 80.2871077,63.15625 80.6308594,63.15625 Z M87.8261719,63.2207031 C88.2089863,63.2207031 88.545897,63.1025402 88.8369141,62.8662109 C89.1279311,62.6298816 89.2734375,62.3398455 89.2734375,61.9960938 L90.3105469,61.9960938 L90.3222656,62.03125 C90.341797,62.5781277 90.0986353,63.0634744 89.5927734,63.4873047 C89.0869115,63.9111349 88.4980502,64.1230469 87.8261719,64.1230469 C86.9042923,64.1230469 86.1992212,63.8222686 85.7109375,63.2207031 C85.2226538,62.6191376 84.9785156,61.8632858 84.9785156,60.953125 L84.9785156,60.7070312 C84.9785156,59.804683 85.2236304,59.0517608 85.7138672,58.4482422 C86.204104,57.8447235 86.9081985,57.5429688 87.8261719,57.5429688 C88.5683631,57.5429688 89.1748023,57.7617166 89.6455078,58.1992188 C90.1162133,58.6367209 90.3437501,59.1738249 90.328125,59.8105469 L90.3164062,59.8457031 L89.2734375,59.8457031 C89.2734375,59.4589824 89.1367201,59.1298842 88.8632812,58.8583984 C88.5898424,58.5869127 88.2441427,58.4511719 87.8261719,58.4511719 C87.2207001,58.4511719 86.7880872,58.6689431 86.5283203,59.1044922 C86.2685534,59.5400412 86.1386719,60.0742156 86.1386719,60.7070312 L86.1386719,60.953125 C86.1386719,61.6015657 86.2675768,62.1415994 86.5253906,62.5732422 C86.7832044,63.004885 87.2167938,63.2207031 87.8261719,63.2207031 Z M93.140625,56.1308594 L93.140625,57.6601562 L94.3417969,57.6601562 L94.3417969,58.515625 L93.140625,58.515625 L93.140625,62.3652344 C93.140625,62.6621109 93.2021478,62.8710931 93.3251953,62.9921875 C93.4482428,63.1132819 93.6113271,63.1738281 93.8144531,63.1738281 C93.8808597,63.1738281 93.9541012,63.1660157 94.0341797,63.1503906 C94.1142582,63.1347655 94.1855466,63.1152345 94.2480469,63.0917969 L94.4003906,63.8828125 C94.3144527,63.9531254 94.1884774,64.010742 94.0224609,64.0556641 C93.8564445,64.1005862 93.689454,64.1230469 93.5214844,64.1230469 C93.052732,64.1230469 92.6796889,63.9814467 92.4023438,63.6982422 C92.1249986,63.4150376 91.9863281,62.9707062 91.9863281,62.3652344 L91.9863281,58.515625 L90.9785156,58.515625 L90.9785156,57.6601562 L91.9863281,57.6601562 L91.9863281,56.1308594 L93.140625,56.1308594 Z M98.3964844,64.1230469 C97.5136675,64.1230469 96.811526,63.8291045 96.2900391,63.2412109 C95.7685521,62.6533174 95.5078125,61.8906297 95.5078125,60.953125 L95.5078125,60.6953125 C95.5078125,59.7929642 95.7763645,59.0419952 96.3134766,58.4423828 C96.8505886,57.8427704 97.4863245,57.5429688 98.2207031,57.5429688 C99.076176,57.5429688 99.722654,57.8007787 100.160156,58.3164062 C100.597658,58.8320338 100.816406,59.519527 100.816406,60.3789062 L100.816406,61.0996094 L96.703125,61.0996094 L96.6855469,61.1289062 C96.6972657,61.7382843 96.851561,62.2392558 97.1484375,62.6318359 C97.445314,63.024416 97.8613254,63.2207031 98.3964844,63.2207031 C98.7871113,63.2207031 99.129881,63.1650396 99.424805,63.0537109 C99.719728,62.9423823 99.974608,62.7890635 100.189453,62.59375 L100.640625,63.34375 C100.414061,63.5664074 100.115236,63.7519524 99.744141,63.9003906 C99.373045,64.0488289 98.9238308,64.1230469 98.3964844,64.1230469 Z M98.2207031,58.4511719 C97.8339824,58.4511719 97.5039076,58.6142562 97.2304688,58.9404297 C96.9570299,59.2666032 96.7890628,59.6757788 96.7265625,60.1679688 L96.7382812,60.1972656 L99.662109,60.1972656 L99.662109,60.0449219 C99.662109,59.5917946 99.541017,59.2128921 99.298828,58.9082031 C99.056639,58.6035141 98.697268,58.4511719 98.2207031,58.4511719 Z M105.111328,58.6796875 L104.519531,58.6445312 C104.214842,58.6445312 103.958009,58.7167962 103.749023,58.8613281 C103.540038,59.0058601 103.378907,59.2089831 103.265625,59.4707031 L103.265625,64 L102.111328,64 L102.111328,57.6601562 L103.142578,57.6601562 L103.253906,58.5859375 C103.433595,58.2578109 103.655272,58.001954 103.918945,57.8183594 C104.182619,57.6347647 104.486326,57.5429688 104.830078,57.5429688 C104.916016,57.5429688 104.998046,57.5498046 105.076172,57.5634766 C105.154297,57.5771485 105.21875,57.5917968 105.269531,57.6074219 L105.111328,58.6796875 Z M109.910156,62.3183594 C109.910156,62.0644519 109.813478,61.8554696 109.620117,61.6914062 C109.426757,61.5273429 109.06055,61.3847662 108.521484,61.2636719 C107.751949,61.0957023 107.172854,60.8681655 106.78418,60.5810547 C106.395506,60.2939439 106.201172,59.9023462 106.201172,59.40625 C106.201172,58.8906224 106.41992,58.4511737 106.857422,58.0878906 C107.294924,57.7246076 107.865231,57.5429688 108.568359,57.5429688 C109.306644,57.5429688 109.893553,57.73242 110.329102,58.1113281 C110.764651,58.4902363 110.972656,58.9511692 110.953125,59.4941406 L110.941406,59.5292969 L109.839844,59.5292969 C109.839844,59.2519517 109.723634,59.0029308 109.491211,58.7822266 C109.258788,58.5615223 108.951174,58.4511719 108.568359,58.4511719 C108.158201,58.4511719 107.853517,58.5410147 107.654297,58.7207031 C107.455077,58.9003915 107.355469,59.1171862 107.355469,59.3710938 C107.355469,59.621095 107.443358,59.8183587 107.619141,59.9628906 C107.794923,60.1074226 108.152341,60.2363276 108.691406,60.3496094 C109.492192,60.5214852 110.087889,60.7548813 110.478516,61.0498047 C110.869143,61.344728 111.064453,61.7402319 111.064453,62.2363281 C111.064453,62.7988309 110.836916,63.2539045 110.381836,63.6015625 C109.926756,63.9492205 109.332035,64.1230469 108.597656,64.1230469 C107.789058,64.1230469 107.152346,63.9179708 106.6875,63.5078125 C106.222654,63.0976542 106.001953,62.6191434 106.025391,62.0722656 L106.037109,62.0371094 L107.138672,62.0371094 C107.158203,62.4472677 107.310545,62.7470694 107.595703,62.9365234 C107.880861,63.1259775 108.214842,63.2207031 108.597656,63.2207031 C109.007815,63.2207031 109.3291,63.1376961 109.561523,62.9716797 C109.793946,62.8056632 109.910156,62.587892 109.910156,62.3183594 Z" fill="#6B6B6B" fill-rule="nonzero"></path>
            </g>
            <g transform="translate(10.000000, 29.000000)" fill="#333333" fill-rule="nonzero">
                <g>
                    <path d="M3.578125,7.359375 C2.69791227,7.359375 1.94010734,7.0364616 1.3046875,6.390625 C0.66926766,5.7447884 0.3515625,4.976567 0.3515625,4.0859375 C0.3515625,3.17968297 0.6718718,2.4062532 1.3125,1.765625 C1.9531282,1.1249968 2.72655797,0.8046875 3.6328125,0.8046875 C4.53906703,0.8046875 5.31119473,1.12629887 5.94921875,1.76953125 C6.58724277,2.41276363 6.90625,3.19270375 6.90625,4.109375 C6.90625,5.0104212 6.58203449,5.7773406 5.93359375,6.4101562 C5.28515301,7.0429719 4.50000461,7.359375 3.578125,7.359375 Z M12.828125,7.359375 C11.9479123,7.359375 11.1901073,7.0364616 10.5546875,6.390625 C9.9192677,5.7447884 9.6015625,4.976567 9.6015625,4.0859375 C9.6015625,3.17968297 9.9218718,2.4062532 10.5625,1.765625 C11.2031282,1.1249968 11.976558,0.8046875 12.8828125,0.8046875 C13.789067,0.8046875 14.5611947,1.12629887 15.1992188,1.76953125 C15.8372428,2.41276363 16.15625,3.19270375 16.15625,4.109375 C16.15625,5.0104212 15.8320345,5.7773406 15.1835938,6.4101562 C14.535153,7.0429719 13.7500046,7.359375 12.828125,7.359375 Z M22.078125,7.359375 C21.1979123,7.359375 20.4401073,7.0364616 19.8046875,6.390625 C19.1692677,5.7447884 18.8515625,4.976567 18.8515625,4.0859375 C18.8515625,3.17968297 19.1718718,2.4062532 19.8125,1.765625 C20.4531282,1.1249968 21.226558,0.8046875 22.1328125,0.8046875 C23.039067,0.8046875 23.8111947,1.12629887 24.4492188,1.76953125 C25.0872428,2.41276363 25.40625,3.19270375 25.40625,4.109375 C25.40625,5.0104212 25.0820345,5.7773406 24.4335938,6.4101562 C23.785153,7.0429719 23.0000046,7.359375 22.078125,7.359375 Z M31.328125,7.359375 C30.4479123,7.359375 29.6901073,7.0364616 29.0546875,6.390625 C28.4192677,5.7447884 28.1015625,4.976567 28.1015625,4.0859375 C28.1015625,3.17968297 28.4218718,2.4062532 29.0625,1.765625 C29.7031282,1.1249968 30.476558,0.8046875 31.3828125,0.8046875 C32.289067,0.8046875 33.0611947,1.12629887 33.6992188,1.76953125 C34.3372428,2.41276363 34.65625,3.19270375 34.65625,4.109375 C34.65625,5.0104212 34.3320345,5.7773406 33.6835938,6.4101562 C33.035153,7.0429719 32.2500046,7.359375 31.328125,7.359375 Z M40.578125,7.359375 C39.6979123,7.359375 38.9401073,7.0364616 38.3046875,6.390625 C37.6692677,5.7447884 37.3515625,4.976567 37.3515625,4.0859375 C37.3515625,3.17968297 37.6718718,2.4062532 38.3125,1.765625 C38.9531282,1.1249968 39.726558,0.8046875 40.6328125,0.8046875 C41.539067,0.8046875 42.3111947,1.12629887 42.9492188,1.76953125 C43.5872428,2.41276363 43.90625,3.19270375 43.90625,4.109375 C43.90625,5.0104212 43.5820345,5.7773406 42.9335938,6.4101562 C42.285153,7.0429719 41.5000046,7.359375 40.578125,7.359375 Z M49.828125,7.359375 C48.9479123,7.359375 48.1901073,7.0364616 47.5546875,6.390625 C46.9192677,5.7447884 46.6015625,4.976567 46.6015625,4.0859375 C46.6015625,3.17968297 46.9218718,2.4062532 47.5625,1.765625 C48.2031282,1.1249968 48.976558,0.8046875 49.8828125,0.8046875 C50.789067,0.8046875 51.5611947,1.12629887 52.1992188,1.76953125 C52.8372428,2.41276363 53.15625,3.19270375 53.15625,4.109375 C53.15625,5.0104212 52.8320345,5.7773406 52.1835938,6.4101562 C51.535153,7.0429719 50.7500046,7.359375 49.828125,7.359375 Z M59.078125,7.359375 C58.1979123,7.359375 57.4401073,7.0364616 56.8046875,6.390625 C56.1692677,5.7447884 55.8515625,4.976567 55.8515625,4.0859375 C55.8515625,3.17968297 56.1718718,2.4062532 56.8125,1.765625 C57.4531282,1.1249968 58.226558,0.8046875 59.1328125,0.8046875 C60.039067,0.8046875 60.8111947,1.12629887 61.4492188,1.76953125 C62.0872428,2.41276363 62.40625,3.19270375 62.40625,4.109375 C62.40625,5.0104212 62.0820345,5.7773406 61.4335938,6.4101562 C60.785153,7.0429719 60.0000046,7.359375 59.078125,7.359375 Z M68.328125,7.359375 C67.4479123,7.359375 66.6901073,7.0364616 66.0546875,6.390625 C65.4192677,5.7447884 65.1015625,4.976567 65.1015625,4.0859375 C65.1015625,3.17968297 65.4218718,2.4062532 66.0625,1.765625 C66.7031282,1.1249968 67.476558,0.8046875 68.3828125,0.8046875 C69.289067,0.8046875 70.0611947,1.12629887 70.6992188,1.76953125 C71.3372428,2.41276363 71.65625,3.19270375 71.65625,4.109375 C71.65625,5.0104212 71.3320345,5.7773406 70.6835938,6.4101562 C70.035153,7.0429719 69.2500046,7.359375 68.328125,7.359375 Z M77.578125,7.359375 C76.6979123,7.359375 75.9401073,7.0364616 75.3046875,6.390625 C74.6692677,5.7447884 74.3515625,4.976567 74.3515625,4.0859375 C74.3515625,3.17968297 74.6718718,2.4062532 75.3125,1.765625 C75.9531282,1.1249968 76.726558,0.8046875 77.6328125,0.8046875 C78.539067,0.8046875 79.3111947,1.12629887 79.9492188,1.76953125 C80.5872428,2.41276363 80.90625,3.19270375 80.90625,4.109375 C80.90625,5.0104212 80.5820345,5.7773406 79.9335938,6.4101562 C79.285153,7.0429719 78.5000046,7.359375 77.578125,7.359375 Z"></path>
                </g>
            </g>
            <g transform="translate(244.000000, 24.000000)" font-size="12" font-family="Roboto-Regular, Roboto" fill="#EC407A" font-weight="normal">
                <g>
                    <text>
                        <tspan x="0" y="13">Bullets are vertically centered</tspan>
                    </text>
                </g>
            </g>
            <g transform="translate(166.000000, 33.500000) scale(-1, 1) translate(-166.000000, -33.500000) translate(96.000000, 30.000000)">
                <path d="M3.5,6.5 L3.5,5 C3.5,4.17157288 4.1676029,3.5 5.00408295,3.5 L139.5,3.5" stroke="#EC407A"></path>
                <g transform="translate(133.000000, 0.000000)">
                    <g>
                        <g fill="#FFFFFF" fill-rule="nonzero">
                            <polygon points="7 3.5 0 7 0 0"></polygon>
                        </g>
                        <polygon stroke="#EC407A" points="5.88196601 3.5 0.5 0.809016994 0.5 6.19098301"></polygon>
                    </g>
                </g>
                <g>
                    <g>
                        <g fill-rule="nonzero" fill="#FFFFFF">
                            <circle cx="3.5" cy="3.5" r="3.5"></circle>
                        </g>
                        <circle stroke="#EC407A" cx="3.5" cy="3.5" r="3"></circle>
                    </g>
                </g>
            </g>
        </g>
    </g>
</svg>
