<?xml version="1.0" encoding="UTF-8" standalone="no"?>
<svg width="210px" height="198px" viewBox="0 0 210 198" version="1.1" xmlns="http://www.w3.org/2000/svg" xmlns:xlink="http://www.w3.org/1999/xlink">
    <!-- Generator: Sketch 47.1 (45422) - http://www.bohemiancoding.com/sketch -->
    <title>text-inputs-hero-image</title>
    <desc>Created with Sketch.</desc>
    <defs></defs>
    <g stroke="none" stroke-width="1" fill="none" fill-rule="evenodd">
        <g transform="translate(-1.000000, -4.000000)">
            <g>
                <g>
                    <g transform="translate(1.000000, 22.000000)">
                        <g transform="translate(1.000000, 1.000000)" fill="#FFFFFF">
                            <rect x="0" y="0" width="208" height="30" rx="2"></rect>
                        </g>
                        <rect stroke="#BDBDBD" x="0.5" y="0.5" width="209" height="31" rx="2"></rect>
                    </g>
                    <g fill="#6B6B6B">
                        <path d="M2.57714844,13.9472656 L7.28710937,13.9472656 L7.28710937,15 L1.23046875,15 L1.23046875,5.046875 L2.57714844,5.046875 L2.57714844,13.9472656 Z M13.0839844,15 C13.0384112,14.7766916 13.0030926,14.5795907 12.9780273,14.4086914 C12.9529621,14.2377921 12.9381511,14.0657561 12.9335938,13.8925781 C12.6829415,14.2480487 12.355959,14.545409 11.9526367,14.784668 C11.5493144,15.023927 11.1152367,15.1435547 10.6503906,15.1435547 C9.88020448,15.1435547 9.29345905,14.9464538 8.89013672,14.5522461 C8.48681439,14.1580384 8.28515625,13.6145868 8.28515625,12.921875 C8.28515625,12.2154913 8.57112344,11.6629252 9.14306641,11.2641602 C9.71500937,10.8653951 10.4908805,10.6660156 11.4707031,10.6660156 L12.9335938,10.6660156 L12.9335938,9.93457031 C12.9335938,9.50162544 12.8014336,9.15869267 12.5371094,8.90576172 C12.2727851,8.65283077 11.899091,8.52636719 11.4160156,8.52636719 C10.9830708,8.52636719 10.6310235,8.63688041 10.3598633,8.85791016 C10.0887031,9.07893991 9.953125,9.34439949 9.953125,9.65429688 L8.66796875,9.65429688 L8.65429688,9.61328125 C8.62695299,9.07551814 8.88101946,8.58333557 9.41650391,8.13671875 C9.95198835,7.69010193 10.6435504,7.46679688 11.4912109,7.46679688 C12.3297568,7.46679688 13.0042292,7.67984813 13.5146484,8.10595703 C14.0250677,8.53206593 14.2802734,9.14615484 14.2802734,9.94824219 L14.2802734,13.5097656 C14.2802734,13.7740899 14.2939452,14.0292956 14.3212891,14.2753906 C14.3486329,14.5214856 14.3987627,14.7630196 14.4716797,15 L13.0839844,15 Z M10.8486328,14.015625 C11.3362655,14.015625 11.7760397,13.8903007 12.1679688,13.6396484 C12.5598978,13.3889961 12.8151036,13.1018896 12.9335938,12.7783203 L12.9335938,11.5751953 L11.4228516,11.5751953 C10.8805311,11.5751953 10.4464535,11.7119127 10.1206055,11.9853516 C9.79475749,12.2587904 9.63183594,12.5800763 9.63183594,12.9492188 C9.63183594,13.2773454 9.73437397,13.5371084 9.93945312,13.7285156 C10.1445323,13.9199228 10.4475891,14.015625 10.8486328,14.015625 Z M22.5517578,11.5820312 C22.5517578,12.6484428 22.2954127,13.508623 21.7827148,14.1625977 C21.270017,14.8165723 20.5647831,15.1435547 19.6669922,15.1435547 C19.1793595,15.1435547 18.7555357,15.0489918 18.3955078,14.8598633 C18.03548,14.6707347 17.7369804,14.3916034 17.5,14.0224609 L17.3359375,15 L16.2353516,15 L16.2353516,4.3359375 L17.5820312,4.3359375 L17.5820312,8.47851562 C17.8144543,8.15038898 18.1027001,7.89974045 18.4467773,7.7265625 C18.7908546,7.55338455 19.1930316,7.46679688 19.6533203,7.46679688 C20.5647832,7.46679688 21.2757136,7.83137656 21.7861328,8.56054688 C22.296552,9.28971719 22.5517578,10.2490175 22.5517578,11.4384766 L22.5517578,11.5820312 Z M21.2050781,11.4384766 C21.2050781,10.5908161 21.0489924,9.89925398 20.7368164,9.36376953 C20.4246404,8.82828508 19.9495475,8.56054688 19.3115234,8.56054688 C18.8968078,8.56054688 18.5470392,8.6619456 18.262207,8.86474609 C17.9773749,9.06754659 17.7506519,9.33984204 17.5820312,9.68164062 L17.5820312,12.8876953 C17.7552092,13.2522805 17.9819322,13.5371083 18.262207,13.7421875 C18.5424819,13.9472667 18.8968078,14.0498047 19.3251953,14.0498047 C19.958662,14.0498047 20.430337,13.824221 20.7402344,13.3730469 C21.0501318,12.9218727 21.2050781,12.3248735 21.2050781,11.5820312 L21.2050781,11.4384766 Z M27.2617188,15.1435547 C26.2317657,15.1435547 25.4126007,14.8006219 24.8041992,14.1147461 C24.1957977,13.4288703 23.8916016,12.539068 23.8916016,11.4453125 L23.8916016,11.1445312 C23.8916016,10.0917916 24.2049122,9.21566105 24.831543,8.51611328 C25.4581737,7.81656551 26.1998655,7.46679688 27.0566406,7.46679688 C28.0546925,7.46679688 28.8089167,7.76757512 29.3193359,8.36914062 C29.8297552,8.97070613 30.0849609,9.77278145 30.0849609,10.7753906 L30.0849609,11.6162109 L25.2861328,11.6162109 L25.265625,11.6503906 C25.2792969,12.3613317 25.4593082,12.9457985 25.8056641,13.4038086 C26.15202,13.8618187 26.6373667,14.0908203 27.2617188,14.0908203 C27.7174502,14.0908203 28.1173485,14.0258796 28.4614258,13.8959961 C28.805503,13.7661126 29.1028633,13.5872407 29.3535156,13.359375 L29.8798828,14.234375 C29.6155586,14.4941419 29.2669292,14.7106111 28.8339844,14.8837891 C28.4010395,15.056967 27.8769562,15.1435547 27.2617188,15.1435547 Z M27.0566406,8.52636719 C26.6054665,8.52636719 26.2203792,8.71663221 25.9013672,9.09716797 C25.5823552,9.47770373 25.3863936,9.95507525 25.3134766,10.5292969 L25.3271484,10.5634766 L28.7382812,10.5634766 L28.7382812,10.3857422 C28.7382812,9.85709371 28.5970066,9.41504084 28.3144531,9.05957031 C28.0318996,8.70409979 27.612633,8.52636719 27.0566406,8.52636719 Z M33.0517578,15 L31.7050781,15 L31.7050781,4.3359375 L33.0517578,4.3359375 L33.0517578,15 Z"></path>
                    </g>
                    <g transform="translate(0.000000, 55.000000)" fill="#9E9E9E">
                        <path d="M7.50585937,13 L6.3515625,13 L6.3515625,9.23242188 L2.20898438,9.23242188 L2.20898438,13 L1.0546875,13 L1.0546875,4.46875 L2.20898438,4.46875 L2.20898438,8.32421875 L6.3515625,8.32421875 L6.3515625,4.46875 L7.50585937,4.46875 L7.50585937,13 Z M12.0292969,13.1230469 C11.14648,13.1230469 10.4443385,12.8291045 9.92285156,12.2412109 C9.40136458,11.6533174 9.140625,10.8906297 9.140625,9.953125 L9.140625,9.6953125 C9.140625,8.79296424 9.409177,8.04199519 9.94628906,7.44238281 C10.4834011,6.84277044 11.119137,6.54296875 11.8535156,6.54296875 C12.7089887,6.54296875 13.3554666,6.80077867 13.7929688,7.31640625 C14.2304709,7.83203383 14.4492188,8.51952695 14.4492188,9.37890625 L14.4492188,10.0996094 L10.3359375,10.0996094 L10.3183594,10.1289062 C10.3300782,10.7382843 10.4843735,11.2392558 10.78125,11.6318359 C11.0781265,12.024416 11.4941379,12.2207031 12.0292969,12.2207031 C12.4199238,12.2207031 12.7626938,12.1650396 13.0576172,12.0537109 C13.3525405,11.9423823 13.6074208,11.7890635 13.8222656,11.59375 L14.2734375,12.34375 C14.0468739,12.5664074 13.7480487,12.7519524 13.3769531,12.9003906 C13.0058575,13.0488289 12.5566433,13.1230469 12.0292969,13.1230469 Z M11.8535156,7.45117188 C11.4667949,7.45117188 11.1367201,7.61425618 10.8632812,7.94042969 C10.5898424,8.26660319 10.4218753,8.67577879 10.359375,9.16796875 L10.3710938,9.19726562 L13.2949219,9.19726562 L13.2949219,9.04492188 C13.2949219,8.59179461 13.1738293,8.21289215 12.9316406,7.90820312 C12.6894519,7.6035141 12.3300805,7.45117188 11.8535156,7.45117188 Z M16.9921875,13 L15.8378906,13 L15.8378906,3.859375 L16.9921875,3.859375 L16.9921875,13 Z M24.1699219,10.0703125 C24.1699219,10.9843796 23.9511741,11.7216769 23.5136719,12.2822266 C23.0761697,12.8427762 22.4726601,13.1230469 21.703125,13.1230469 C21.312498,13.1230469 20.969728,13.0576178 20.6748047,12.9267578 C20.3798813,12.7958978 20.1289073,12.5996107 19.921875,12.3378906 L19.921875,15.4375 L18.7675781,15.4375 L18.7675781,6.66015625 L19.6523438,6.66015625 L19.8339844,7.48046875 C20.0410167,7.17577973 20.2988266,6.94336018 20.6074219,6.78320312 C20.9160172,6.62304607 21.2753886,6.54296875 21.6855469,6.54296875 C22.4707071,6.54296875 23.0810525,6.85448907 23.5166016,7.47753906 C23.9521506,8.10058905 24.1699219,8.92382301 24.1699219,9.94726562 L24.1699219,10.0703125 Z M23.015625,9.94726562 C23.015625,9.22851203 22.8740249,8.63769763 22.5908203,8.17480469 C22.3076158,7.71191175 21.8906278,7.48046875 21.3398438,7.48046875 C21.0078108,7.48046875 20.7246105,7.55566331 20.4902344,7.70605469 C20.2558582,7.85644606 20.066407,8.06249869 19.921875,8.32421875 L19.921875,11.3886719 C20.066407,11.6503919 20.2558582,11.8544915 20.4902344,12.0009766 C20.7246105,12.1474617 21.0117171,12.2207031 21.3515625,12.2207031 C21.8984402,12.2207031 22.3124986,12.0205098 22.59375,11.6201172 C22.8750014,11.2197246 23.015625,10.7031282 23.015625,10.0703125 L23.015625,9.94726562 Z M28.21875,13.1230469 C27.3359331,13.1230469 26.6337917,12.8291045 26.1123047,12.2412109 C25.5908177,11.6533174 25.3300781,10.8906297 25.3300781,9.953125 L25.3300781,9.6953125 C25.3300781,8.79296424 25.5986301,8.04199519 26.1357422,7.44238281 C26.6728542,6.84277044 27.3085901,6.54296875 28.0429687,6.54296875 C28.8984418,6.54296875 29.5449197,6.80077867 29.9824219,7.31640625 C30.4199241,7.83203383 30.6386719,8.51952695 30.6386719,9.37890625 L30.6386719,10.0996094 L26.5253906,10.0996094 L26.5078125,10.1289062 C26.5195313,10.7382843 26.6738266,11.2392558 26.9707031,11.6318359 C27.2675796,12.024416 27.6835911,12.2207031 28.21875,12.2207031 C28.609377,12.2207031 28.952147,12.1650396 29.2470703,12.0537109 C29.5419937,11.9423823 29.7968739,11.7890635 30.0117187,11.59375 L30.4628906,12.34375 C30.236327,12.5664074 29.9375019,12.7519524 29.5664062,12.9003906 C29.1953106,13.0488289 28.7460964,13.1230469 28.21875,13.1230469 Z M28.0429687,7.45117188 C27.6562481,7.45117188 27.3261732,7.61425618 27.0527344,7.94042969 C26.7792955,8.26660319 26.6113284,8.67577879 26.5488281,9.16796875 L26.5605469,9.19726562 L29.484375,9.19726562 L29.484375,9.04492188 C29.484375,8.59179461 29.3632825,8.21289215 29.1210937,7.90820312 C28.878905,7.6035141 28.5195336,7.45117188 28.0429687,7.45117188 Z M34.9335937,7.6796875 L34.3417969,7.64453125 C34.0371079,7.64453125 33.7802745,7.71679615 33.5712891,7.86132812 C33.3623036,8.0058601 33.2011724,8.20898307 33.0878906,8.47070312 L33.0878906,13 L31.9335937,13 L31.9335937,6.66015625 L32.9648437,6.66015625 L33.0761719,7.5859375 C33.2558603,7.25781086 33.4775377,7.00195404 33.7412109,6.81835938 C34.0048841,6.63476471 34.308592,6.54296875 34.6523437,6.54296875 C34.7382817,6.54296875 34.8203121,6.54980462 34.8984375,6.56347656 C34.9765629,6.57714851 35.0410154,6.5917968 35.0917969,6.60742188 L34.9335937,7.6796875 Z M40.5527344,5.13085938 L40.5527344,6.66015625 L41.7539062,6.66015625 L41.7539062,7.515625 L40.5527344,7.515625 L40.5527344,11.3652344 C40.5527344,11.6621109 40.6142572,11.8710931 40.7373047,11.9921875 C40.8603522,12.1132819 41.0234365,12.1738281 41.2265625,12.1738281 C41.2929691,12.1738281 41.3662105,12.1660157 41.4462891,12.1503906 C41.5263676,12.1347655 41.5976559,12.1152345 41.6601562,12.0917969 L41.8125,12.8828125 C41.7265621,12.9531254 41.6005868,13.010742 41.4345703,13.0556641 C41.2685539,13.1005862 41.1015633,13.1230469 40.9335938,13.1230469 C40.4648414,13.1230469 40.0917983,12.9814467 39.8144531,12.6982422 C39.537108,12.4150376 39.3984375,11.9707062 39.3984375,11.3652344 L39.3984375,7.515625 L38.390625,7.515625 L38.390625,6.66015625 L39.3984375,6.66015625 L39.3984375,5.13085938 L40.5527344,5.13085938 Z M45.8085937,13.1230469 C44.9257768,13.1230469 44.2236354,12.8291045 43.7021484,12.2412109 C43.1806615,11.6533174 42.9199219,10.8906297 42.9199219,9.953125 L42.9199219,9.6953125 C42.9199219,8.79296424 43.1884739,8.04199519 43.7255859,7.44238281 C44.262698,6.84277044 44.8984338,6.54296875 45.6328125,6.54296875 C46.4882855,6.54296875 47.1347634,6.80077867 47.5722656,7.31640625 C48.0097678,7.83203383 48.2285156,8.51952695 48.2285156,9.37890625 L48.2285156,10.0996094 L44.1152344,10.0996094 L44.0976562,10.1289062 C44.1093751,10.7382843 44.2636704,11.2392558 44.5605469,11.6318359 C44.8574234,12.024416 45.2734348,12.2207031 45.8085937,12.2207031 C46.1992207,12.2207031 46.5419907,12.1650396 46.8369141,12.0537109 C47.1318374,11.9423823 47.3867177,11.7890635 47.6015625,11.59375 L48.0527344,12.34375 C47.8261707,12.5664074 47.5273456,12.7519524 47.15625,12.9003906 C46.7851544,13.0488289 46.3359401,13.1230469 45.8085937,13.1230469 Z M45.6328125,7.45117188 C45.2460918,7.45117188 44.916017,7.61425618 44.6425781,7.94042969 C44.3691393,8.26660319 44.2011722,8.67577879 44.1386719,9.16796875 L44.1503906,9.19726562 L47.0742187,9.19726562 L47.0742187,9.04492188 C47.0742187,8.59179461 46.9531262,8.21289215 46.7109375,7.90820312 C46.4687488,7.6035141 46.1093774,7.45117188 45.6328125,7.45117188 Z M51.6738281,8.99804688 L53.0214844,6.66015625 L54.3691406,6.66015625 L52.3125,9.79492188 L54.4277344,13 L53.1035156,13 L51.6972656,10.6035156 L50.2910156,13 L48.9550781,13 L51.0703125,9.79492188 L49.0136719,6.66015625 L50.34375,6.66015625 L51.6738281,8.99804688 Z M57.0820312,5.13085938 L57.0820312,6.66015625 L58.2832031,6.66015625 L58.2832031,7.515625 L57.0820312,7.515625 L57.0820312,11.3652344 C57.0820312,11.6621109 57.1435541,11.8710931 57.2666016,11.9921875 C57.3896491,12.1132819 57.5527334,12.1738281 57.7558594,12.1738281 C57.822266,12.1738281 57.8955074,12.1660157 57.9755859,12.1503906 C58.0556645,12.1347655 58.1269528,12.1152345 58.1894531,12.0917969 L58.3417969,12.8828125 C58.2558589,12.9531254 58.1298836,13.010742 57.9638672,13.0556641 C57.7978507,13.1005862 57.6308602,13.1230469 57.4628906,13.1230469 C56.9941383,13.1230469 56.6210951,12.9814467 56.34375,12.6982422 C56.0664049,12.4150376 55.9277344,11.9707062 55.9277344,11.3652344 L55.9277344,7.515625 L54.9199219,7.515625 L54.9199219,6.66015625 L55.9277344,6.66015625 L55.9277344,5.13085938 L57.0820312,5.13085938 Z"></path>
                    </g>
                </g>
                <path d="M12.03125,44 L10.484375,44 L10.484375,32.625 L12.03125,32.625 L12.03125,44 Z M16.015625,35.546875 L16.125,36.8046875 C16.4062514,36.3567686 16.7591125,36.0091158 17.1835938,35.7617188 C17.608075,35.5143217 18.0911431,35.390625 18.6328125,35.390625 C19.5442754,35.390625 20.2499975,35.6575494 20.75,36.1914062 C21.2500025,36.7252631 21.5,37.5494736 21.5,38.6640625 L21.5,44 L19.9609375,44 L19.9609375,38.6953125 C19.9609375,37.9505171 19.8138036,37.4218766 19.5195312,37.109375 C19.2252589,36.7968734 18.7760447,36.640625 18.171875,36.640625 C17.7291645,36.640625 17.3372413,36.7473948 16.9960938,36.9609375 C16.6549462,37.1744802 16.3828135,37.466144 16.1796875,37.8359375 L16.1796875,44 L14.640625,44 L14.640625,35.546875 L16.015625,35.546875 Z M30.9375,40.09375 C30.9375,41.3125061 30.6458363,42.2955692 30.0625,43.0429688 C29.4791637,43.7903683 28.6744843,44.1640625 27.6484375,44.1640625 C27.1276016,44.1640625 26.6705749,44.0768238 26.2773438,43.9023438 C25.8841126,43.7278637 25.5494805,43.4661476 25.2734375,43.1171875 L25.2734375,47.25 L23.734375,47.25 L23.734375,35.546875 L24.9140625,35.546875 L25.15625,36.640625 C25.432293,36.234373 25.7760396,35.9244802 26.1875,35.7109375 C26.5989604,35.4973948 27.0781223,35.390625 27.625,35.390625 C28.6718802,35.390625 29.4856742,35.8059854 30.0664062,36.6367188 C30.6471383,37.4674521 30.9375,38.5650973 30.9375,39.9296875 L30.9375,40.09375 Z M29.3984375,39.9296875 C29.3984375,38.9713494 29.2096373,38.1835968 28.8320312,37.5664062 C28.4544252,36.9492157 27.8984412,36.640625 27.1640625,36.640625 C26.721352,36.640625 26.3437516,36.7408844 26.03125,36.9414062 C25.7187484,37.1419281 25.4661468,37.4166649 25.2734375,37.765625 L25.2734375,41.8515625 C25.4661468,42.2005226 25.7187484,42.4726553 26.03125,42.6679688 C26.3437516,42.8632822 26.7265602,42.9609375 27.1796875,42.9609375 C27.9088578,42.9609375 28.4609356,42.6940131 28.8359375,42.1601562 C29.2109394,41.6262994 29.3984375,40.9375042 29.3984375,40.09375 L29.3984375,39.9296875 Z M38.1953125,42.75 C37.9296862,43.2031273 37.5885437,43.5520821 37.171875,43.796875 C36.7552063,44.0416679 36.2734402,44.1640625 35.7265625,44.1640625 C34.8046829,44.1640625 34.0859401,43.8697946 33.5703125,43.28125 C33.0546849,42.6927054 32.796875,41.7760479 32.796875,40.53125 L32.796875,35.546875 L34.3359375,35.546875 L34.3359375,40.546875 C34.3359375,41.4479212 34.4687487,42.0677066 34.734375,42.40625 C35.0000013,42.7447934 35.4140597,42.9140625 35.9765625,42.9140625 C36.5234402,42.9140625 36.9752586,42.8033865 37.3320312,42.5820312 C37.6888039,42.360676 37.9583324,42.046877 38.140625,41.640625 L38.140625,35.546875 L39.6796875,35.546875 L39.6796875,44 L38.296875,44 L38.1953125,42.75 Z M43.953125,33.5078125 L43.953125,35.546875 L45.5546875,35.546875 L45.5546875,36.6875 L43.953125,36.6875 L43.953125,41.8203125 C43.953125,42.2161478 44.0351554,42.4947909 44.1992188,42.65625 C44.3632821,42.8177091 44.5807278,42.8984375 44.8515625,42.8984375 C44.9401046,42.8984375 45.0377599,42.8880209 45.1445312,42.8671875 C45.2513026,42.8463541 45.3463537,42.8203127 45.4296875,42.7890625 L45.6328125,43.84375 C45.5182286,43.9375005 45.3502615,44.0143226 45.1289062,44.0742188 C44.907551,44.1341149 44.684897,44.1640625 44.4609375,44.1640625 C43.8359344,44.1640625 43.3385435,43.9752623 42.96875,43.5976562 C42.5989565,43.2200502 42.4140625,42.6276082 42.4140625,41.8203125 L42.4140625,36.6875 L41.0703125,36.6875 L41.0703125,35.546875 L42.4140625,35.546875 L42.4140625,33.5078125 L43.953125,33.5078125 Z M54.25,41.5078125 L54.3828125,42.1015625 L54.4296875,42.1015625 L54.578125,41.5078125 L56.5234375,35.546875 L58.09375,35.546875 L54.984375,44 L53.8203125,44 L50.671875,35.546875 L52.25,35.546875 L54.25,41.5078125 Z M64.5546875,44 C64.5026039,43.7447904 64.4622397,43.5195322 64.4335938,43.3242188 C64.4049478,43.1289053 64.3880209,42.9322927 64.3828125,42.734375 C64.0963527,43.140627 63.7226586,43.4804674 63.2617188,43.7539062 C62.8007789,44.0273451 62.3046902,44.1640625 61.7734375,44.1640625 C60.8932248,44.1640625 60.2226586,43.9388043 59.7617188,43.4882812 C59.3007789,43.0377582 59.0703125,42.4166706 59.0703125,41.625 C59.0703125,40.8177043 59.3971321,40.1862002 60.0507812,39.7304688 C60.7044304,39.2747373 61.5911402,39.046875 62.7109375,39.046875 L64.3828125,39.046875 L64.3828125,38.2109375 C64.3828125,37.7161434 64.2317723,37.3242202 63.9296875,37.0351562 C63.6276027,36.7460923 63.2005236,36.6015625 62.6484375,36.6015625 C62.1536434,36.6015625 61.7513036,36.7278633 61.4414062,36.9804688 C61.1315089,37.2330742 60.9765625,37.5364566 60.9765625,37.890625 L59.5078125,37.890625 L59.4921875,37.84375 C59.4609373,37.2291636 59.751299,36.6666692 60.3632812,36.15625 C60.9752635,35.6458308 61.7656202,35.390625 62.734375,35.390625 C63.6927131,35.390625 64.4635387,35.6341121 65.046875,36.1210938 C65.6302113,36.6080754 65.921875,37.3098912 65.921875,38.2265625 L65.921875,42.296875 C65.921875,42.5989598 65.9374998,42.8906236 65.96875,43.171875 C66.0000002,43.4531264 66.0572912,43.7291653 66.140625,44 L64.5546875,44 Z M62,42.875 C62.5572945,42.875 63.0598936,42.7317723 63.5078125,42.4453125 C63.9557314,42.1588527 64.2473952,41.830731 64.3828125,41.4609375 L64.3828125,40.0859375 L62.65625,40.0859375 C62.0364552,40.0859375 61.5403664,40.2421859 61.1679688,40.5546875 C60.7955711,40.8671891 60.609375,41.2343729 60.609375,41.65625 C60.609375,42.0312519 60.7265613,42.3281239 60.9609375,42.546875 C61.1953137,42.7656261 61.5416644,42.875 62,42.875 Z M69.8203125,44 L68.28125,44 L68.28125,31.8125 L69.8203125,31.8125 L69.8203125,44 Z M77.5546875,42.75 C77.2890612,43.2031273 76.9479187,43.5520821 76.53125,43.796875 C76.1145813,44.0416679 75.6328152,44.1640625 75.0859375,44.1640625 C74.1640579,44.1640625 73.4453151,43.8697946 72.9296875,43.28125 C72.4140599,42.6927054 72.15625,41.7760479 72.15625,40.53125 L72.15625,35.546875 L73.6953125,35.546875 L73.6953125,40.546875 C73.6953125,41.4479212 73.8281237,42.0677066 74.09375,42.40625 C74.3593763,42.7447934 74.7734347,42.9140625 75.3359375,42.9140625 C75.8828152,42.9140625 76.3346336,42.8033865 76.6914062,42.5820312 C77.0481789,42.360676 77.3177074,42.046877 77.5,41.640625 L77.5,35.546875 L79.0390625,35.546875 L79.0390625,44 L77.65625,44 L77.5546875,42.75 Z M84.7890625,44.1640625 C83.6119733,44.1640625 82.6757847,43.7721393 81.9804688,42.9882812 C81.2851528,42.2044232 80.9375,41.1875062 80.9375,39.9375 L80.9375,39.59375 C80.9375,38.390619 81.2955693,37.3893269 82.0117188,36.5898438 C82.7278682,35.7903606 83.5755159,35.390625 84.5546875,35.390625 C85.6953182,35.390625 86.5572887,35.7343716 87.140625,36.421875 C87.7239613,37.1093784 88.015625,38.0260359 88.015625,39.171875 L88.015625,40.1328125 L82.53125,40.1328125 L82.5078125,40.171875 C82.5234376,40.9843791 82.7291647,41.6523411 83.125,42.1757812 C83.5208353,42.6992214 84.0755173,42.9609375 84.7890625,42.9609375 C85.3098984,42.9609375 85.7669251,42.8867195 86.1601562,42.7382812 C86.5533874,42.589843 86.8932277,42.385418 87.1796875,42.125 L87.78125,43.125 C87.4791652,43.4218765 87.0807316,43.6692698 86.5859375,43.8671875 C86.0911434,44.0651052 85.492191,44.1640625 84.7890625,44.1640625 Z M84.5546875,36.6015625 C84.0390599,36.6015625 83.5989602,36.8190082 83.234375,37.2539062 C82.8697898,37.6888043 82.6458337,38.2343717 82.5625,38.890625 L82.578125,38.9296875 L86.4765625,38.9296875 L86.4765625,38.7265625 C86.4765625,38.1223928 86.3151058,37.6171895 85.9921875,37.2109375 C85.6692692,36.8046855 85.1901073,36.6015625 84.5546875,36.6015625 Z" fill="#616161"></path>
            </g>
            <g transform="translate(0.000000, 90.000000)">
                <g>
                    <g transform="translate(1.000000, 20.000000)">
                        <g transform="translate(1.000000, 1.000000)" fill="#FFFFFF">
                            <rect x="0" y="0" width="208" height="74" rx="2"></rect>
                        </g>
                        <rect stroke="#BDBDBD" x="0.5" y="0.5" width="209" height="75" rx="2"></rect>
                    </g>
                    <path d="M2.57714844,13.9472656 L7.28710937,13.9472656 L7.28710937,15 L1.23046875,15 L1.23046875,5.046875 L2.57714844,5.046875 L2.57714844,13.9472656 Z M13.0839844,15 C13.0384112,14.7766916 13.0030926,14.5795907 12.9780273,14.4086914 C12.9529621,14.2377921 12.9381511,14.0657561 12.9335938,13.8925781 C12.6829415,14.2480487 12.355959,14.545409 11.9526367,14.784668 C11.5493144,15.023927 11.1152367,15.1435547 10.6503906,15.1435547 C9.88020448,15.1435547 9.29345905,14.9464538 8.89013672,14.5522461 C8.48681439,14.1580384 8.28515625,13.6145868 8.28515625,12.921875 C8.28515625,12.2154913 8.57112344,11.6629252 9.14306641,11.2641602 C9.71500937,10.8653951 10.4908805,10.6660156 11.4707031,10.6660156 L12.9335938,10.6660156 L12.9335938,9.93457031 C12.9335938,9.50162544 12.8014336,9.15869267 12.5371094,8.90576172 C12.2727851,8.65283077 11.899091,8.52636719 11.4160156,8.52636719 C10.9830708,8.52636719 10.6310235,8.63688041 10.3598633,8.85791016 C10.0887031,9.07893991 9.953125,9.34439949 9.953125,9.65429688 L8.66796875,9.65429688 L8.65429688,9.61328125 C8.62695299,9.07551814 8.88101946,8.58333557 9.41650391,8.13671875 C9.95198835,7.69010193 10.6435504,7.46679688 11.4912109,7.46679688 C12.3297568,7.46679688 13.0042292,7.67984813 13.5146484,8.10595703 C14.0250677,8.53206593 14.2802734,9.14615484 14.2802734,9.94824219 L14.2802734,13.5097656 C14.2802734,13.7740899 14.2939452,14.0292956 14.3212891,14.2753906 C14.3486329,14.5214856 14.3987627,14.7630196 14.4716797,15 L13.0839844,15 Z M10.8486328,14.015625 C11.3362655,14.015625 11.7760397,13.8903007 12.1679688,13.6396484 C12.5598978,13.3889961 12.8151036,13.1018896 12.9335938,12.7783203 L12.9335938,11.5751953 L11.4228516,11.5751953 C10.8805311,11.5751953 10.4464535,11.7119127 10.1206055,11.9853516 C9.79475749,12.2587904 9.63183594,12.5800763 9.63183594,12.9492188 C9.63183594,13.2773454 9.73437397,13.5371084 9.93945312,13.7285156 C10.1445323,13.9199228 10.4475891,14.015625 10.8486328,14.015625 Z M22.5517578,11.5820312 C22.5517578,12.6484428 22.2954127,13.508623 21.7827148,14.1625977 C21.270017,14.8165723 20.5647831,15.1435547 19.6669922,15.1435547 C19.1793595,15.1435547 18.7555357,15.0489918 18.3955078,14.8598633 C18.03548,14.6707347 17.7369804,14.3916034 17.5,14.0224609 L17.3359375,15 L16.2353516,15 L16.2353516,4.3359375 L17.5820312,4.3359375 L17.5820312,8.47851562 C17.8144543,8.15038898 18.1027001,7.89974045 18.4467773,7.7265625 C18.7908546,7.55338455 19.1930316,7.46679688 19.6533203,7.46679688 C20.5647832,7.46679688 21.2757136,7.83137656 21.7861328,8.56054688 C22.296552,9.28971719 22.5517578,10.2490175 22.5517578,11.4384766 L22.5517578,11.5820312 Z M21.2050781,11.4384766 C21.2050781,10.5908161 21.0489924,9.89925398 20.7368164,9.36376953 C20.4246404,8.82828508 19.9495475,8.56054688 19.3115234,8.56054688 C18.8968078,8.56054688 18.5470392,8.6619456 18.262207,8.86474609 C17.9773749,9.06754659 17.7506519,9.33984204 17.5820312,9.68164062 L17.5820312,12.8876953 C17.7552092,13.2522805 17.9819322,13.5371083 18.262207,13.7421875 C18.5424819,13.9472667 18.8968078,14.0498047 19.3251953,14.0498047 C19.958662,14.0498047 20.430337,13.824221 20.7402344,13.3730469 C21.0501318,12.9218727 21.2050781,12.3248735 21.2050781,11.5820312 L21.2050781,11.4384766 Z M27.2617188,15.1435547 C26.2317657,15.1435547 25.4126007,14.8006219 24.8041992,14.1147461 C24.1957977,13.4288703 23.8916016,12.539068 23.8916016,11.4453125 L23.8916016,11.1445312 C23.8916016,10.0917916 24.2049122,9.21566105 24.831543,8.51611328 C25.4581737,7.81656551 26.1998655,7.46679688 27.0566406,7.46679688 C28.0546925,7.46679688 28.8089167,7.76757512 29.3193359,8.36914062 C29.8297552,8.97070613 30.0849609,9.77278145 30.0849609,10.7753906 L30.0849609,11.6162109 L25.2861328,11.6162109 L25.265625,11.6503906 C25.2792969,12.3613317 25.4593082,12.9457985 25.8056641,13.4038086 C26.15202,13.8618187 26.6373667,14.0908203 27.2617188,14.0908203 C27.7174502,14.0908203 28.1173485,14.0258796 28.4614258,13.8959961 C28.805503,13.7661126 29.1028633,13.5872407 29.3535156,13.359375 L29.8798828,14.234375 C29.6155586,14.4941419 29.2669292,14.7106111 28.8339844,14.8837891 C28.4010395,15.056967 27.8769562,15.1435547 27.2617188,15.1435547 Z M27.0566406,8.52636719 C26.6054665,8.52636719 26.2203792,8.71663221 25.9013672,9.09716797 C25.5823552,9.47770373 25.3863936,9.95507525 25.3134766,10.5292969 L25.3271484,10.5634766 L28.7382812,10.5634766 L28.7382812,10.3857422 C28.7382812,9.85709371 28.5970066,9.41504084 28.3144531,9.05957031 C28.0318996,8.70409979 27.612633,8.52636719 27.0566406,8.52636719 Z M33.0517578,15 L31.7050781,15 L31.7050781,4.3359375 L33.0517578,4.3359375 L33.0517578,15 Z" fill="#6B6B6B"></path>
                    <path d="M7.50585937,109 L6.3515625,109 L6.3515625,105.232422 L2.20898438,105.232422 L2.20898438,109 L1.0546875,109 L1.0546875,100.46875 L2.20898438,100.46875 L2.20898438,104.324219 L6.3515625,104.324219 L6.3515625,100.46875 L7.50585937,100.46875 L7.50585937,109 Z M12.0292969,109.123047 C11.14648,109.123047 10.4443385,108.829105 9.92285156,108.241211 C9.40136458,107.653317 9.140625,106.89063 9.140625,105.953125 L9.140625,105.695312 C9.140625,104.792964 9.409177,104.041995 9.94628906,103.442383 C10.4834011,102.84277 11.119137,102.542969 11.8535156,102.542969 C12.7089887,102.542969 13.3554666,102.800779 13.7929688,103.316406 C14.2304709,103.832034 14.4492188,104.519527 14.4492188,105.378906 L14.4492188,106.099609 L10.3359375,106.099609 L10.3183594,106.128906 C10.3300782,106.738284 10.4843735,107.239256 10.78125,107.631836 C11.0781265,108.024416 11.4941379,108.220703 12.0292969,108.220703 C12.4199238,108.220703 12.7626938,108.16504 13.0576172,108.053711 C13.3525405,107.942382 13.6074208,107.789063 13.8222656,107.59375 L14.2734375,108.34375 C14.0468739,108.566407 13.7480487,108.751952 13.3769531,108.900391 C13.0058575,109.048829 12.5566433,109.123047 12.0292969,109.123047 Z M11.8535156,103.451172 C11.4667949,103.451172 11.1367201,103.614256 10.8632812,103.94043 C10.5898424,104.266603 10.4218753,104.675779 10.359375,105.167969 L10.3710938,105.197266 L13.2949219,105.197266 L13.2949219,105.044922 C13.2949219,104.591795 13.1738293,104.212892 12.9316406,103.908203 C12.6894519,103.603514 12.3300805,103.451172 11.8535156,103.451172 Z M16.9921875,109 L15.8378906,109 L15.8378906,99.859375 L16.9921875,99.859375 L16.9921875,109 Z M24.1699219,106.070312 C24.1699219,106.98438 23.9511741,107.721677 23.5136719,108.282227 C23.0761697,108.842776 22.4726601,109.123047 21.703125,109.123047 C21.312498,109.123047 20.969728,109.057618 20.6748047,108.926758 C20.3798813,108.795898 20.1289073,108.599611 19.921875,108.337891 L19.921875,111.4375 L18.7675781,111.4375 L18.7675781,102.660156 L19.6523438,102.660156 L19.8339844,103.480469 C20.0410167,103.17578 20.2988266,102.94336 20.6074219,102.783203 C20.9160172,102.623046 21.2753886,102.542969 21.6855469,102.542969 C22.4707071,102.542969 23.0810525,102.854489 23.5166016,103.477539 C23.9521506,104.100589 24.1699219,104.923823 24.1699219,105.947266 L24.1699219,106.070312 Z M23.015625,105.947266 C23.015625,105.228512 22.8740249,104.637698 22.5908203,104.174805 C22.3076158,103.711912 21.8906278,103.480469 21.3398438,103.480469 C21.0078108,103.480469 20.7246105,103.555663 20.4902344,103.706055 C20.2558582,103.856446 20.066407,104.062499 19.921875,104.324219 L19.921875,107.388672 C20.066407,107.650392 20.2558582,107.854491 20.4902344,108.000977 C20.7246105,108.147462 21.0117171,108.220703 21.3515625,108.220703 C21.8984402,108.220703 22.3124986,108.02051 22.59375,107.620117 C22.8750014,107.219725 23.015625,106.703128 23.015625,106.070312 L23.015625,105.947266 Z M28.21875,109.123047 C27.3359331,109.123047 26.6337917,108.829105 26.1123047,108.241211 C25.5908177,107.653317 25.3300781,106.89063 25.3300781,105.953125 L25.3300781,105.695312 C25.3300781,104.792964 25.5986301,104.041995 26.1357422,103.442383 C26.6728542,102.84277 27.3085901,102.542969 28.0429687,102.542969 C28.8984418,102.542969 29.5449197,102.800779 29.9824219,103.316406 C30.4199241,103.832034 30.6386719,104.519527 30.6386719,105.378906 L30.6386719,106.099609 L26.5253906,106.099609 L26.5078125,106.128906 C26.5195313,106.738284 26.6738266,107.239256 26.9707031,107.631836 C27.2675796,108.024416 27.6835911,108.220703 28.21875,108.220703 C28.609377,108.220703 28.952147,108.16504 29.2470703,108.053711 C29.5419937,107.942382 29.7968739,107.789063 30.0117187,107.59375 L30.4628906,108.34375 C30.236327,108.566407 29.9375019,108.751952 29.5664062,108.900391 C29.1953106,109.048829 28.7460964,109.123047 28.21875,109.123047 Z M28.0429687,103.451172 C27.6562481,103.451172 27.3261732,103.614256 27.0527344,103.94043 C26.7792955,104.266603 26.6113284,104.675779 26.5488281,105.167969 L26.5605469,105.197266 L29.484375,105.197266 L29.484375,105.044922 C29.484375,104.591795 29.3632825,104.212892 29.1210937,103.908203 C28.878905,103.603514 28.5195336,103.451172 28.0429687,103.451172 Z M34.9335937,103.679688 L34.3417969,103.644531 C34.0371079,103.644531 33.7802745,103.716796 33.5712891,103.861328 C33.3623036,104.00586 33.2011724,104.208983 33.0878906,104.470703 L33.0878906,109 L31.9335937,109 L31.9335937,102.660156 L32.9648437,102.660156 L33.0761719,103.585938 C33.2558603,103.257811 33.4775377,103.001954 33.7412109,102.818359 C34.0048841,102.634765 34.308592,102.542969 34.6523437,102.542969 C34.7382817,102.542969 34.8203121,102.549805 34.8984375,102.563477 C34.9765629,102.577149 35.0410154,102.591797 35.0917969,102.607422 L34.9335937,103.679688 Z M40.5527344,101.130859 L40.5527344,102.660156 L41.7539062,102.660156 L41.7539062,103.515625 L40.5527344,103.515625 L40.5527344,107.365234 C40.5527344,107.662111 40.6142572,107.871093 40.7373047,107.992188 C40.8603522,108.113282 41.0234365,108.173828 41.2265625,108.173828 C41.2929691,108.173828 41.3662105,108.166016 41.4462891,108.150391 C41.5263676,108.134766 41.5976559,108.115234 41.6601562,108.091797 L41.8125,108.882812 C41.7265621,108.953125 41.6005868,109.010742 41.4345703,109.055664 C41.2685539,109.100586 41.1015633,109.123047 40.9335938,109.123047 C40.4648414,109.123047 40.0917983,108.981447 39.8144531,108.698242 C39.537108,108.415038 39.3984375,107.970706 39.3984375,107.365234 L39.3984375,103.515625 L38.390625,103.515625 L38.390625,102.660156 L39.3984375,102.660156 L39.3984375,101.130859 L40.5527344,101.130859 Z M45.8085937,109.123047 C44.9257768,109.123047 44.2236354,108.829105 43.7021484,108.241211 C43.1806615,107.653317 42.9199219,106.89063 42.9199219,105.953125 L42.9199219,105.695312 C42.9199219,104.792964 43.1884739,104.041995 43.7255859,103.442383 C44.262698,102.84277 44.8984338,102.542969 45.6328125,102.542969 C46.4882855,102.542969 47.1347634,102.800779 47.5722656,103.316406 C48.0097678,103.832034 48.2285156,104.519527 48.2285156,105.378906 L48.2285156,106.099609 L44.1152344,106.099609 L44.0976562,106.128906 C44.1093751,106.738284 44.2636704,107.239256 44.5605469,107.631836 C44.8574234,108.024416 45.2734348,108.220703 45.8085937,108.220703 C46.1992207,108.220703 46.5419907,108.16504 46.8369141,108.053711 C47.1318374,107.942382 47.3867177,107.789063 47.6015625,107.59375 L48.0527344,108.34375 C47.8261707,108.566407 47.5273456,108.751952 47.15625,108.900391 C46.7851544,109.048829 46.3359401,109.123047 45.8085937,109.123047 Z M45.6328125,103.451172 C45.2460918,103.451172 44.916017,103.614256 44.6425781,103.94043 C44.3691393,104.266603 44.2011722,104.675779 44.1386719,105.167969 L44.1503906,105.197266 L47.0742187,105.197266 L47.0742187,105.044922 C47.0742187,104.591795 46.9531262,104.212892 46.7109375,103.908203 C46.4687488,103.603514 46.1093774,103.451172 45.6328125,103.451172 Z M51.6738281,104.998047 L53.0214844,102.660156 L54.3691406,102.660156 L52.3125,105.794922 L54.4277344,109 L53.1035156,109 L51.6972656,106.603516 L50.2910156,109 L48.9550781,109 L51.0703125,105.794922 L49.0136719,102.660156 L50.34375,102.660156 L51.6738281,104.998047 Z M57.0820312,101.130859 L57.0820312,102.660156 L58.2832031,102.660156 L58.2832031,103.515625 L57.0820312,103.515625 L57.0820312,107.365234 C57.0820312,107.662111 57.1435541,107.871093 57.2666016,107.992188 C57.3896491,108.113282 57.5527334,108.173828 57.7558594,108.173828 C57.822266,108.173828 57.8955074,108.166016 57.9755859,108.150391 C58.0556645,108.134766 58.1269528,108.115234 58.1894531,108.091797 L58.3417969,108.882812 C58.2558589,108.953125 58.1298836,109.010742 57.9638672,109.055664 C57.7978507,109.100586 57.6308602,109.123047 57.4628906,109.123047 C56.9941383,109.123047 56.6210951,108.981447 56.34375,108.698242 C56.0664049,108.415038 55.9277344,107.970706 55.9277344,107.365234 L55.9277344,103.515625 L54.9199219,103.515625 L54.9199219,102.660156 L55.9277344,102.660156 L55.9277344,101.130859 L57.0820312,101.130859 Z" fill="#9E9E9E"></path>
                </g>
                <g transform="translate(8.000000, 29.000000)" fill="#9E9E9E">
                    <path d="M3.0859375,8.4375 L2.1796875,13 L0.671875,13 L2.9453125,1.625 L7.046875,1.625 C8.09896359,1.625 8.89452855,1.94270516 9.43359375,2.578125 C9.97265895,3.21354484 10.1432302,4.031245 9.9453125,5.03125 C9.72135305,6.13021383 9.24349324,6.97265332 8.51171875,7.55859375 C7.77994426,8.14453418 6.83854742,8.4375 5.6875,8.4375 L3.0859375,8.4375 Z M3.328125,7.234375 L5.9296875,7.234375 C6.57552406,7.234375 7.12369566,7.02343961 7.57421875,6.6015625 C8.02474184,6.17968539 8.31249937,5.66146141 8.4375,5.046875 C8.56770898,4.380205 8.50390754,3.8450541 8.24609375,3.44140625 C7.98827996,3.0377584 7.50781602,2.8359375 6.8046875,2.8359375 L4.2109375,2.8359375 L3.328125,7.234375 Z M11.6796875,13 L10.171875,13 L12.609375,0.8125 L14.1171875,0.8125 L11.6796875,13 Z M18.7421875,13 C18.7421875,12.7447904 18.7473958,12.5351571 18.7578125,12.3710938 C18.7682292,12.2070304 18.7864582,12.0390634 18.8125,11.8671875 C18.4635399,12.236981 18.0638043,12.5455717 17.6132812,12.7929688 C17.1627582,13.0403658 16.7109398,13.1640625 16.2578125,13.1640625 C15.4869753,13.1640625 14.9179706,12.9335961 14.5507812,12.4726562 C14.1835919,12.0117164 14.0807284,11.3958372 14.2421875,10.625 C14.408855,9.7656207 14.8320279,9.1210959 15.5117188,8.69140625 C16.1914096,8.2617166 17.0624947,8.046875 18.125,8.046875 L19.5703125,8.046875 L19.734375,7.2109375 C19.8385422,6.6848932 19.7812511,6.28515762 19.5625,6.01171875 C19.3437489,5.73827988 18.9791692,5.6015625 18.46875,5.6015625 C18.0312478,5.6015625 17.6354184,5.73046746 17.28125,5.98828125 C16.9270816,6.24609504 16.7161462,6.54687328 16.6484375,6.890625 L15.21875,6.890625 L15.203125,6.84375 C15.3072922,6.19270508 15.6979133,5.62109621 16.375,5.12890625 C17.0520867,4.63671629 17.8593703,4.390625 18.796875,4.390625 C19.6354209,4.390625 20.2981746,4.63932043 20.7851562,5.13671875 C21.2721379,5.63411707 21.4270842,6.33072469 21.25,7.2265625 L20.4375,11.296875 C20.3697913,11.6145849 20.3229168,11.9088528 20.296875,12.1796875 C20.2708332,12.4505222 20.2708332,12.723957 20.296875,13 L18.7421875,13 Z M16.7421875,11.875 C17.1640646,11.875 17.5937478,11.7526054 18.03125,11.5078125 C18.4687522,11.2630196 18.8072905,10.97396 19.046875,10.640625 L19.359375,9.0859375 L17.8671875,9.0859375 C17.3515599,9.0859375 16.8880229,9.24479008 16.4765625,9.5625 C16.0651021,9.88020992 15.8203129,10.2447896 15.7421875,10.65625 C15.6588538,11.0572937 15.6979159,11.3606761 15.859375,11.5664062 C16.0208341,11.7721364 16.315102,11.875 16.7421875,11.875 Z M25.7265625,11.9609375 C26.1744814,11.9609375 26.6028625,11.8020849 27.0117188,11.484375 C27.420575,11.1666651 27.661458,10.7812523 27.734375,10.328125 L29.0859375,10.328125 L29.1015625,10.375 C28.9973953,11.1354205 28.5911494,11.7903618 27.8828125,12.3398438 C27.1744756,12.8893257 26.3932334,13.1640625 25.5390625,13.1640625 C24.4348903,13.1640625 23.6302109,12.7578166 23.125,11.9453125 C22.6197891,11.1328084 22.4635407,10.1302143 22.65625,8.9375 L22.7109375,8.609375 C22.9036468,7.36457711 23.3658818,6.35026434 24.0976562,5.56640625 C24.8294307,4.78254816 25.7760359,4.390625 26.9375,4.390625 C27.8333378,4.390625 28.5351537,4.68359082 29.0429688,5.26953125 C29.5507838,5.85547168 29.7265633,6.57291242 29.5703125,7.421875 L29.5546875,7.4609375 L28.1875,7.4609375 C28.2760421,6.91926812 28.1875013,6.47396008 27.921875,6.125 C27.6562487,5.77603992 27.2656276,5.6015625 26.75,5.6015625 C26.0416631,5.6015625 25.4765646,5.89583039 25.0546875,6.484375 C24.6328104,7.07291961 24.3567715,7.78124586 24.2265625,8.609375 L24.171875,8.9375 C24.0312493,9.83333781 24.0677073,10.5611951 24.28125,11.1210938 C24.4947927,11.6809924 24.9765587,11.9609375 25.7265625,11.9609375 Z M33.609375,13.1640625 C32.5468697,13.1640625 31.7434923,12.7695352 31.1992188,11.9804688 C30.6549452,11.1914023 30.4817698,10.1770895 30.6796875,8.9375 L30.734375,8.59375 C30.9322927,7.34374375 31.4257773,6.33073305 32.2148438,5.5546875 C33.0039102,4.77864195 33.8567663,4.390625 34.7734375,4.390625 C35.809901,4.390625 36.5520811,4.7369757 37,5.4296875 C37.4479189,6.1223993 37.5833342,7.03645266 37.40625,8.171875 L37.25,9.1328125 L32.15625,9.1328125 C32.0416661,9.99740016 32.1210924,10.6848933 32.3945312,11.1953125 C32.6679701,11.7057317 33.1354134,11.9609375 33.796875,11.9609375 C34.2552106,11.9609375 34.6848938,11.8841154 35.0859375,11.7304688 C35.4869812,11.5768221 35.835936,11.3750013 36.1328125,11.125 L36.5625,12.125 C36.2447901,12.4218765 35.8385441,12.6692698 35.34375,12.8671875 C34.8489559,13.0651052 34.2708366,13.1640625 33.609375,13.1640625 Z M34.5859375,5.6015625 C34.1484353,5.6015625 33.7252625,5.82031031 33.3164062,6.2578125 C32.90755,6.69531469 32.6145842,7.23697594 32.4375,7.8828125 L32.4609375,7.9296875 L35.9375,7.9296875 L35.96875,7.7265625 C36.0677088,7.09635102 36.0078136,6.58463738 35.7890625,6.19140625 C35.5703114,5.79817512 35.1692738,5.6015625 34.5859375,5.6015625 Z M41.1796875,5.5703125 C41.5286476,5.19010227 41.9153625,4.89843852 42.3398438,4.6953125 C42.764325,4.49218648 43.2135393,4.390625 43.6875,4.390625 C44.4791706,4.390625 45.0677064,4.66666391 45.453125,5.21875 C45.8385436,5.77083609 45.9218761,6.59895281 45.703125,7.703125 L44.640625,13 L43.1328125,13 L44.1953125,7.6875 C44.3411466,6.94791297 44.312501,6.42187656 44.109375,6.109375 C43.906249,5.79687344 43.5260445,5.640625 42.96875,5.640625 C42.6197899,5.640625 42.2656268,5.74348855 41.90625,5.94921875 C41.5468732,6.15494895 41.2239598,6.42968578 40.9375,6.7734375 L39.6953125,13 L38.1875,13 L40.625,0.8125 L42.1328125,0.8125 L41.1796875,5.5703125 Z M47.2421875,8.6953125 C47.4505219,7.39322266 47.9283817,6.35026434 48.6757812,5.56640625 C49.4231808,4.78254816 50.3463487,4.390625 51.4453125,4.390625 C52.4974011,4.390625 53.2851536,4.79817301 53.8085938,5.61328125 C54.3320339,6.42838949 54.4947927,7.45572297 54.296875,8.6953125 L54.2734375,8.8671875 C54.0598948,10.1744857 53.5794308,11.217444 52.8320312,11.9960938 C52.0846317,12.7747435 51.1614638,13.1640625 50.0625,13.1640625 C49.0104114,13.1640625 48.2226589,12.7578166 47.6992188,11.9453125 C47.1757786,11.1328084 47.015624,10.106777 47.21875,8.8671875 L47.2421875,8.6953125 Z M48.7265625,8.8671875 C48.5755201,9.79948383 48.6210925,10.5481743 48.8632812,11.1132812 C49.10547,11.6783882 49.5677049,11.9609375 50.25,11.9609375 C50.8854198,11.9609375 51.4270811,11.6653675 51.875,11.0742188 C52.3229189,10.48307 52.6171868,9.74740023 52.7578125,8.8671875 L52.78125,8.6953125 C52.9270841,7.77864125 52.8776054,7.03385703 52.6328125,6.4609375 C52.3880196,5.88801797 51.9296909,5.6015625 51.2578125,5.6015625 C50.6171843,5.6015625 50.074221,5.89843453 49.6289062,6.4921875 C49.1835915,7.08594047 48.8906257,7.82030813 48.75,8.6953125 L48.7265625,8.8671875 Z M56.9375,13 L55.4296875,13 L57.8671875,0.8125 L59.375,0.8125 L56.9375,13 Z M59.703125,8.7734375 C59.9895848,7.32030523 60.4492156,6.22656617 61.0820312,5.4921875 C61.7148469,4.75780883 62.5286409,4.390625 63.5234375,4.390625 C63.9557313,4.390625 64.3476545,4.48046785 64.6992188,4.66015625 C65.050783,4.83984465 65.3385405,5.09374836 65.5625,5.421875 L66.484375,0.8125 L67.9921875,0.8125 L65.5546875,13 L64.2578125,13 L64.3125,12.1875 C63.9999984,12.5104183 63.6549498,12.7539054 63.2773438,12.9179688 C62.8997377,13.0820321 62.4921897,13.1640625 62.0546875,13.1640625 C61.148433,13.1640625 60.4648461,12.7578166 60.0039062,11.9453125 C59.5429664,11.1328084 59.4322905,10.1302143 59.671875,8.9375 L59.703125,8.7734375 Z M61.1875,8.9375 C61.0052074,9.83333781 61.0390613,10.5533827 61.2890625,11.0976562 C61.5390638,11.6419298 62.0078091,11.9140625 62.6953125,11.9140625 C63.065106,11.9140625 63.3971339,11.8111989 63.6914062,11.6054688 C63.9856786,11.3997386 64.2552071,11.1067727 64.5,10.7265625 L65.296875,6.734375 C65.1614577,6.40104 64.9570326,6.13541766 64.6835938,5.9375 C64.4101549,5.73958234 64.0703145,5.640625 63.6640625,5.640625 C63.0390594,5.640625 62.5221375,5.92317426 62.1132812,6.48828125 C61.704425,7.05338824 61.4062509,7.81509937 61.21875,8.7734375 L61.1875,8.9375 Z M71.1484375,13.1640625 C70.0859322,13.1640625 69.2825548,12.7695352 68.7382813,11.9804688 C68.1940077,11.1914023 68.0208323,10.1770895 68.21875,8.9375 L68.2734375,8.59375 C68.4713552,7.34374375 68.9648398,6.33073305 69.7539063,5.5546875 C70.5429727,4.77864195 71.3958288,4.390625 72.3125,4.390625 C73.3489635,4.390625 74.0911436,4.7369757 74.5390625,5.4296875 C74.9869814,6.1223993 75.1223967,7.03645266 74.9453125,8.171875 L74.7890625,9.1328125 L69.6953125,9.1328125 C69.5807286,9.99740016 69.6601549,10.6848933 69.9335938,11.1953125 C70.2070326,11.7057317 70.6744759,11.9609375 71.3359375,11.9609375 C71.7942731,11.9609375 72.2239563,11.8841154 72.625,11.7304688 C73.0260437,11.5768221 73.3749985,11.3750013 73.671875,11.125 L74.1015625,12.125 C73.7838526,12.4218765 73.3776066,12.6692698 72.8828125,12.8671875 C72.3880184,13.0651052 71.8098991,13.1640625 71.1484375,13.1640625 Z M72.125,5.6015625 C71.6874978,5.6015625 71.264325,5.82031031 70.8554688,6.2578125 C70.4466125,6.69531469 70.1536467,7.23697594 69.9765625,7.8828125 L70,7.9296875 L73.4765625,7.9296875 L73.5078125,7.7265625 C73.6067713,7.09635102 73.5468761,6.58463738 73.328125,6.19140625 C73.1093739,5.79817512 72.7083363,5.6015625 72.125,5.6015625 Z M80.96875,5.90625 L80.140625,5.859375 C79.7968733,5.859375 79.4804702,5.95703027 79.1914062,6.15234375 C78.9023423,6.34765723 78.6510427,6.62239406 78.4375,6.9765625 L77.234375,13 L75.7265625,13 L77.4140625,4.546875 L78.765625,4.546875 L78.671875,5.6796875 C78.9635431,5.26822711 79.2929669,4.95052195 79.6601562,4.7265625 C80.0273456,4.50260305 80.4218729,4.390625 80.84375,4.390625 C80.9479172,4.390625 81.0611973,4.39973949 81.1835938,4.41796875 C81.3059902,4.43619801 81.395833,4.45572906 81.453125,4.4765625 L80.96875,5.90625 Z M88.921875,2.5078125 L88.5078125,4.546875 L89.96875,4.546875 L89.7421875,5.6875 L88.28125,5.6875 L87.2578125,10.8203125 C87.1692704,11.2421896 87.1822911,11.527343 87.296875,11.6757812 C87.4114589,11.8242195 87.5963529,11.8984375 87.8515625,11.8984375 C87.9713548,11.8984375 88.1158846,11.8867189 88.2851562,11.8632812 C88.4544279,11.8398436 88.5885412,11.8151043 88.6875,11.7890625 L88.6796875,12.84375 C88.5286451,12.9375005 88.3138035,13.0143226 88.0351562,13.0742188 C87.756509,13.1341149 87.4817722,13.1640625 87.2109375,13.1640625 C86.6640598,13.1640625 86.2434911,12.9713561 85.9492188,12.5859375 C85.6549464,12.2005189 85.5885409,11.6119831 85.75,10.8203125 L86.7734375,5.6875 L85.5390625,5.6875 L85.765625,4.546875 L87,4.546875 L87.4140625,2.5078125 L88.921875,2.5078125 Z M93.5625,13.1640625 C92.4999947,13.1640625 91.6966173,12.7695352 91.1523438,11.9804688 C90.6080702,11.1914023 90.4348948,10.1770895 90.6328125,8.9375 L90.6875,8.59375 C90.8854177,7.34374375 91.3789023,6.33073305 92.1679688,5.5546875 C92.9570352,4.77864195 93.8098912,4.390625 94.7265625,4.390625 C95.763026,4.390625 96.5052061,4.7369757 96.953125,5.4296875 C97.4010439,6.1223993 97.5364592,7.03645266 97.359375,8.171875 L97.203125,9.1328125 L92.109375,9.1328125 C91.9947911,9.99740016 92.0742174,10.6848933 92.3476562,11.1953125 C92.6210951,11.7057317 93.0885384,11.9609375 93.75,11.9609375 C94.2083356,11.9609375 94.6380188,11.8841154 95.0390625,11.7304688 C95.4401062,11.5768221 95.789061,11.3750013 96.0859375,11.125 L96.515625,12.125 C96.1979151,12.4218765 95.7916691,12.6692698 95.296875,12.8671875 C94.8020809,13.0651052 94.2239616,13.1640625 93.5625,13.1640625 Z M94.5390625,5.6015625 C94.1015603,5.6015625 93.6783875,5.82031031 93.2695312,6.2578125 C92.860675,6.69531469 92.5677092,7.23697594 92.390625,7.8828125 L92.4140625,7.9296875 L95.890625,7.9296875 L95.921875,7.7265625 C96.0208338,7.09635102 95.9609386,6.58463738 95.7421875,6.19140625 C95.5234364,5.79817512 95.1223988,5.6015625 94.5390625,5.6015625 Z M101.804688,7.6640625 L103.914062,4.546875 L105.671875,4.546875 L102.46875,8.7265625 L104.382812,13 L102.65625,13 L101.492188,9.8046875 L99.3046875,13 L97.5625,13 L100.851562,8.7265625 L98.984375,4.546875 L100.71875,4.546875 L101.804688,7.6640625 Z M109.835938,2.5078125 L109.421875,4.546875 L110.882813,4.546875 L110.65625,5.6875 L109.195313,5.6875 L108.171875,10.8203125 C108.083333,11.2421896 108.096354,11.527343 108.210938,11.6757812 C108.325521,11.8242195 108.510415,11.8984375 108.765625,11.8984375 C108.885417,11.8984375 109.029947,11.8867189 109.199219,11.8632812 C109.36849,11.8398436 109.502604,11.8151043 109.601563,11.7890625 L109.59375,12.84375 C109.442708,12.9375005 109.227866,13.0143226 108.949219,13.0742188 C108.670572,13.1341149 108.395835,13.1640625 108.125,13.1640625 C107.578122,13.1640625 107.157554,12.9713561 106.863281,12.5859375 C106.569009,12.2005189 106.502603,11.6119831 106.664063,10.8203125 L107.6875,5.6875 L106.453125,5.6875 L106.679688,4.546875 L107.914063,4.546875 L108.328125,2.5078125 L109.835938,2.5078125 Z"></path>
                </g>
            </g>
        </g>
    </g>
</svg>