<?xml version="1.0" encoding="UTF-8" standalone="no"?>
<svg width="342px" height="109px" viewBox="0 0 342 109" version="1.1" xmlns="http://www.w3.org/2000/svg" xmlns:xlink="http://www.w3.org/1999/xlink">
    <!-- Generator: Sketch 47.1 (45422) - http://www.bohemiancoding.com/sketch -->
    <title>text-inputs-text-area-basic-layout</title>
    <desc>Created with Sketch.</desc>
    <defs></defs>
    <g stroke="none" stroke-width="1" fill="none" fill-rule="evenodd">
        <g>
            <g transform="translate(245.000000, 80.000000)" fill="#EC407A">
                <path d="M1.20898437,6.30273438 L1.20898437,10 L0.0546875,10 L0.0546875,1.47460938 L3.14257812,1.47460938 C4.07617654,1.47460938 4.78906004,1.68163855 5.28125,2.09570312 C5.77343996,2.5097677 6.01953125,3.11132418 6.01953125,3.90039062 C6.01953125,4.33789281 5.90527458,4.71874838 5.67675781,5.04296875 C5.44824104,5.36718912 5.11523656,5.62499904 4.67773437,5.81640625 C5.14648672,5.96875076 5.48339741,6.2158186 5.68847656,6.55761719 C5.89355571,6.89941577 5.99609375,7.32226311 5.99609375,7.82617188 L5.99609375,8.62890625 C5.99609375,8.89453258 6.02539033,9.13281145 6.08398437,9.34375 C6.14257842,9.55468855 6.2441399,9.72656184 6.38867187,9.859375 L6.38867187,10 L5.19921875,10 C5.04687424,9.86718684 4.94921896,9.67187629 4.90625,9.4140625 C4.86328104,9.15624871 4.84179687,8.89062637 4.84179687,8.6171875 L4.84179687,7.83789062 C4.84179687,7.37695082 4.7070326,7.00586078 4.4375,6.72460938 C4.1679674,6.44335797 3.80664289,6.30273438 3.35351562,6.30273438 L1.20898437,6.30273438 Z M1.20898438,5.39453125 L3.02539062,5.39453125 C3.67773764,5.39453125 4.1474595,5.27050905 4.43457031,5.02246094 C4.72168112,4.77441282 4.86523438,4.39648691 4.86523438,3.88867188 C4.86523438,3.40820072 4.72558733,3.03613413 4.44628906,2.77246094 C4.16699079,2.50878774 3.73242482,2.37695312 3.14257812,2.37695312 L1.20898438,2.37695312 L1.20898438,5.39453125 Z M10.4199219,10.1230469 C9.53710496,10.1230469 8.83496354,9.8291045 8.31347656,9.24121094 C7.79198958,8.65331737 7.53125,7.89062969 7.53125,6.953125 L7.53125,6.6953125 C7.53125,5.79296424 7.799802,5.04199519 8.33691406,4.44238281 C8.87402612,3.84277044 9.50976195,3.54296875 10.2441406,3.54296875 C11.0996137,3.54296875 11.7460916,3.80077867 12.1835938,4.31640625 C12.6210959,4.83203383 12.8398438,5.51952695 12.8398438,6.37890625 L12.8398438,7.09960938 L8.7265625,7.09960938 L8.70898438,7.12890625 C8.72070318,7.7382843 8.87499852,8.23925585 9.171875,8.63183594 C9.46875148,9.02441603 9.88476295,9.22070312 10.4199219,9.22070312 C10.8105488,9.22070312 11.1533188,9.16503962 11.4482422,9.05371094 C11.7431655,8.94238226 11.9980458,8.78906348 12.2128906,8.59375 L12.6640625,9.34375 C12.4374989,9.56640736 12.1386737,9.75195238 11.7675781,9.90039062 C11.3964825,10.0488289 10.9472683,10.1230469 10.4199219,10.1230469 Z M10.2441406,4.45117188 C9.85741994,4.45117188 9.52734512,4.61425618 9.25390625,4.94042969 C8.98046738,5.26660319 8.81250031,5.67577879 8.75,6.16796875 L8.76171875,6.19726562 L11.6855469,6.19726562 L11.6855469,6.04492188 C11.6855469,5.59179461 11.5644543,5.21289215 11.3222656,4.90820312 C11.0800769,4.6035141 10.7207055,4.45117188 10.2441406,4.45117188 Z M17.8203125,8.31835938 C17.8203125,8.06445186 17.7236338,7.85546957 17.5302734,7.69140625 C17.3369131,7.52734293 16.9707058,7.38476623 16.4316406,7.26367188 C15.6621055,7.09570229 15.0830098,6.8681655 14.6943359,6.58105469 C14.3056621,6.29394388 14.1113281,5.90234623 14.1113281,5.40625 C14.1113281,4.89062242 14.3300759,4.45117369 14.7675781,4.08789062 C15.2050803,3.72460756 15.7753871,3.54296875 16.4785156,3.54296875 C17.2168006,3.54296875 17.8037088,3.73241998 18.2392578,4.11132812 C18.6748069,4.49023627 18.8828126,4.95116916 18.8632812,5.49414062 L18.8515625,5.52929688 L17.75,5.52929688 C17.75,5.25195174 17.6337902,5.00293079 17.4013672,4.78222656 C17.1689442,4.56152233 16.86133,4.45117188 16.4785156,4.45117188 C16.0683573,4.45117188 15.7636729,4.54101473 15.5644531,4.72070312 C15.3652334,4.90039152 15.265625,5.11718623 15.265625,5.37109375 C15.265625,5.621095 15.3535147,5.81835865 15.5292969,5.96289062 C15.705079,6.1074226 16.0624973,6.23632756 16.6015625,6.34960938 C17.4023478,6.52148523 17.9980449,6.75488134 18.3886719,7.04980469 C18.7792988,7.34472804 18.9746094,7.74023189 18.9746094,8.23632812 C18.9746094,8.79883094 18.7470726,9.25390451 18.2919922,9.6015625 C17.8369118,9.94922049 17.2421912,10.1230469 16.5078125,10.1230469 C15.6992147,10.1230469 15.0625023,9.9179708 14.5976562,9.5078125 C14.1328102,9.0976542 13.9121093,8.61914336 13.9355469,8.07226562 L13.9472656,8.03710938 L15.0488281,8.03710938 C15.0683595,8.44726768 15.2207017,8.74706937 15.5058594,8.93652344 C15.7910171,9.12597751 16.1249981,9.22070312 16.5078125,9.22070312 C16.9179708,9.22070312 17.2392567,9.13769614 17.4716797,8.97167969 C17.7041027,8.80566323 17.8203125,8.58789197 17.8203125,8.31835938 Z M21.6582031,10 L20.5039062,10 L20.5039062,3.66015625 L21.6582031,3.66015625 L21.6582031,10 Z M21.6582031,2.03710938 L20.5039062,2.03710938 L20.5039062,0.859375 L21.6582031,0.859375 L21.6582031,2.03710938 Z M24.5234375,9.09765625 L28.1855469,9.09765625 L28.1855469,10 L23.1464844,10 L23.1464844,9.19140625 L26.5742187,4.57421875 L23.1875,4.57421875 L23.1875,3.66015625 L27.9863281,3.66015625 L27.9863281,4.4453125 L24.5234375,9.09765625 Z M32.0058594,10.1230469 C31.1230425,10.1230469 30.420901,9.8291045 29.8994141,9.24121094 C29.3779271,8.65331737 29.1171875,7.89062969 29.1171875,6.953125 L29.1171875,6.6953125 C29.1171875,5.79296424 29.3857395,5.04199519 29.9228516,4.44238281 C30.4599636,3.84277044 31.0956995,3.54296875 31.8300781,3.54296875 C32.6855512,3.54296875 33.3320291,3.80077867 33.7695312,4.31640625 C34.2070334,4.83203383 34.4257812,5.51952695 34.4257812,6.37890625 L34.4257812,7.09960938 L30.3125,7.09960938 L30.2949219,7.12890625 C30.3066407,7.7382843 30.460936,8.23925585 30.7578125,8.63183594 C31.054689,9.02441603 31.4707004,9.22070312 32.0058594,9.22070312 C32.3964863,9.22070312 32.7392563,9.16503962 33.0341797,9.05371094 C33.329103,8.94238226 33.5839833,8.78906348 33.7988281,8.59375 L34.25,9.34375 C34.0234364,9.56640736 33.7246112,9.75195238 33.3535156,9.90039062 C32.98242,10.0488289 32.5332058,10.1230469 32.0058594,10.1230469 Z M31.8300781,4.45117188 C31.4433574,4.45117188 31.1132826,4.61425618 30.8398437,4.94042969 C30.5664049,5.26660319 30.3984378,5.67577879 30.3359375,6.16796875 L30.3476562,6.19726562 L33.2714844,6.19726562 L33.2714844,6.04492188 C33.2714844,5.59179461 33.1503918,5.21289215 32.9082031,4.90820312 C32.6660144,4.6035141 32.306643,4.45117188 31.8300781,4.45117188 Z M42.5996094,10 C42.5605467,9.80859279 42.5302735,9.63964917 42.5087891,9.49316406 C42.4873046,9.34667896 42.4746094,9.19921949 42.4707031,9.05078125 C42.2558583,9.35547027 41.9755877,9.61035054 41.6298828,9.81542969 C41.284178,10.0205088 40.9121114,10.1230469 40.5136719,10.1230469 C39.8535123,10.1230469 39.3505877,9.95410325 39.0048828,9.61621094 C38.659178,9.27831862 38.4863281,8.81250297 38.4863281,8.21875 C38.4863281,7.61327822 38.7314429,7.13965015 39.2216797,6.79785156 C39.7119165,6.45605298 40.3769489,6.28515625 41.2167969,6.28515625 L42.4707031,6.28515625 L42.4707031,5.65820312 C42.4707031,5.28710752 42.357423,4.99316515 42.1308594,4.77636719 C41.9042957,4.55956923 41.5839864,4.45117188 41.1699219,4.45117188 C40.7988263,4.45117188 40.4970715,4.54589749 40.2646484,4.73535156 C40.0322254,4.92480563 39.9160156,5.15234242 39.9160156,5.41796875 L38.8144531,5.41796875 L38.8027344,5.3828125 C38.7792968,4.9218727 38.997068,4.50000191 39.4560547,4.1171875 C39.9150414,3.73437309 40.5078089,3.54296875 41.234375,3.54296875 C41.9531286,3.54296875 42.5312478,3.72558411 42.96875,4.09082031 C43.4062522,4.45605651 43.625,4.98241844 43.625,5.66992188 L43.625,8.72265625 C43.625,8.94921988 43.6367186,9.1679677 43.6601562,9.37890625 C43.6835939,9.5898448 43.7265622,9.79687398 43.7890625,10 L42.5996094,10 Z M40.6835938,9.15625 C41.1015646,9.15625 41.4785139,9.0488292 41.8144531,8.83398438 C42.1503923,8.61913955 42.3691401,8.37304826 42.4707031,8.09570312 L42.4707031,7.06445312 L41.1757812,7.06445312 C40.7109352,7.06445312 40.3388686,7.18163945 40.0595703,7.41601562 C39.780272,7.6503918 39.640625,7.92577967 39.640625,8.2421875 C39.640625,8.52343891 39.7285147,8.74609293 39.9042969,8.91015625 C40.080079,9.07421957 40.339842,9.15625 40.6835938,9.15625 Z M47.8789062,9.22070312 C48.2617207,9.22070312 48.5986314,9.10254024 48.8896484,8.86621094 C49.1806655,8.62988163 49.3261719,8.33984547 49.3261719,7.99609375 L50.3632812,7.99609375 L50.375,8.03125 C50.3945313,8.57812773 50.1513697,9.06347444 49.6455078,9.48730469 C49.1396459,9.91113493 48.5507846,10.1230469 47.8789062,10.1230469 C46.9570266,10.1230469 46.2519556,9.82226863 45.7636719,9.22070312 C45.2753882,8.61913762 45.03125,7.8632858 45.03125,6.953125 L45.03125,6.70703125 C45.03125,5.80468299 45.2763647,5.05176083 45.7666016,4.44824219 C46.2568384,3.84472354 46.9609329,3.54296875 47.8789062,3.54296875 C48.6210975,3.54296875 49.2275367,3.76171656 49.6982422,4.19921875 C50.1689477,4.63672094 50.3964845,5.17382494 50.3808594,5.81054688 L50.3691406,5.84570312 L49.3261719,5.84570312 C49.3261719,5.45898244 49.1894545,5.12988417 48.9160156,4.85839844 C48.6425768,4.58691271 48.2968771,4.45117188 47.8789062,4.45117188 C47.2734345,4.45117188 46.8408216,4.66894313 46.5810547,5.10449219 C46.3212878,5.54004124 46.1914062,6.07421559 46.1914062,6.70703125 L46.1914062,6.953125 C46.1914062,7.60156574 46.3203112,8.1415994 46.578125,8.57324219 C46.8359388,9.00488497 47.2695282,9.22070312 47.8789062,9.22070312 Z M53.1933594,2.13085938 L53.1933594,3.66015625 L54.3945312,3.66015625 L54.3945312,4.515625 L53.1933594,4.515625 L53.1933594,8.36523438 C53.1933594,8.66211086 53.2548822,8.87109314 53.3779297,8.9921875 C53.5009772,9.11328186 53.6640615,9.17382812 53.8671875,9.17382812 C53.9335941,9.17382812 54.0068355,9.1660157 54.0869141,9.15039062 C54.1669926,9.13476555 54.2382809,9.11523449 54.3007812,9.09179688 L54.453125,9.8828125 C54.3671871,9.95312535 54.2412118,10.010742 54.0751953,10.0556641 C53.9091789,10.1005862 53.7421883,10.1230469 53.5742187,10.1230469 C53.1054664,10.1230469 52.7324233,9.98144673 52.4550781,9.69824219 C52.177733,9.41503765 52.0390625,8.97070615 52.0390625,8.36523438 L52.0390625,4.515625 L51.03125,4.515625 L51.03125,3.66015625 L52.0390625,3.66015625 L52.0390625,2.13085938 L53.1933594,2.13085938 Z M57.0664062,10 L55.9121094,10 L55.9121094,3.66015625 L57.0664062,3.66015625 L57.0664062,10 Z M57.0664062,2.03710938 L55.9121094,2.03710938 L55.9121094,0.859375 L57.0664062,0.859375 L57.0664062,2.03710938 Z M58.5722656,6.77148438 C58.5722656,5.83397969 58.8261693,5.06152647 59.3339844,4.45410156 C59.8417994,3.84667665 60.5312456,3.54296875 61.4023437,3.54296875 C62.2812544,3.54296875 62.9755834,3.8457001 63.4853516,4.45117188 C63.9951197,5.05664365 64.25,5.83007342 64.25,6.77148438 L64.25,6.90039062 C64.25,7.84570785 63.9960963,8.61913762 63.4882812,9.22070312 C62.9804662,9.82226863 62.2890669,10.1230469 61.4140625,10.1230469 C60.5390581,10.1230469 59.8466822,9.82129208 59.3369141,9.21777344 C58.8271459,8.61425479 58.5722656,7.84180158 58.5722656,6.90039062 L58.5722656,6.77148438 Z M59.7265625,6.90039062 C59.7265625,7.57226898 59.8681626,8.12695094 60.1513672,8.56445312 C60.4345717,9.00195531 60.855466,9.22070312 61.4140625,9.22070312 C61.9648465,9.22070312 62.3828111,9.00195531 62.6679687,8.56445312 C62.9531264,8.12695094 63.0957031,7.57226898 63.0957031,6.90039062 L63.0957031,6.77148438 C63.0957031,6.10741855 62.9521499,5.55468971 62.6650391,5.11328125 C62.3779283,4.67187279 61.957034,4.45117188 61.4023437,4.45117188 C60.8515597,4.45117188 60.4345717,4.67187279 60.1513672,5.11328125 C59.8681626,5.55468971 59.7265625,6.10741855 59.7265625,6.77148438 L59.7265625,6.90039062 Z M66.6933594,3.66015625 L66.7753906,4.60351562 C66.9863292,4.26757645 67.250975,4.00683687 67.5693359,3.82128906 C67.8876969,3.63574126 68.249998,3.54296875 68.65625,3.54296875 C69.3398472,3.54296875 69.8691388,3.74316206 70.2441406,4.14355469 C70.6191425,4.54394731 70.8066406,5.1621052 70.8066406,5.99804688 L70.8066406,10 L69.6523438,10 L69.6523438,6.02148438 C69.6523438,5.46288783 69.5419933,5.06640742 69.3212891,4.83203125 C69.1005848,4.59765508 68.7636741,4.48046875 68.3105469,4.48046875 C67.978514,4.48046875 67.6845716,4.56054607 67.4287109,4.72070312 C67.1728503,4.88086018 66.9687508,5.09960799 66.8164062,5.37695312 L66.8164062,10 L65.6621094,10 L65.6621094,3.66015625 L66.6933594,3.66015625 Z M76.7128906,10 L75.5585938,10 L75.5585938,3.66015625 L76.7128906,3.66015625 L76.7128906,10 Z M76.7128906,2.03710938 L75.5585938,2.03710938 L75.5585938,0.859375 L76.7128906,0.859375 L76.7128906,2.03710938 Z M81.0664062,9.22070312 C81.4492207,9.22070312 81.7861314,9.10254024 82.0771484,8.86621094 C82.3681655,8.62988163 82.5136719,8.33984547 82.5136719,7.99609375 L83.5507812,7.99609375 L83.5625,8.03125 C83.5820313,8.57812773 83.3388697,9.06347444 82.8330078,9.48730469 C82.3271459,9.91113493 81.7382846,10.1230469 81.0664062,10.1230469 C80.1445266,10.1230469 79.4394556,9.82226863 78.9511719,9.22070312 C78.4628882,8.61913762 78.21875,7.8632858 78.21875,6.953125 L78.21875,6.70703125 C78.21875,5.80468299 78.4638647,5.05176083 78.9541016,4.44824219 C79.4443384,3.84472354 80.1484329,3.54296875 81.0664062,3.54296875 C81.8085975,3.54296875 82.4150367,3.76171656 82.8857422,4.19921875 C83.3564477,4.63672094 83.5839845,5.17382494 83.5683594,5.81054688 L83.5566406,5.84570312 L82.5136719,5.84570312 C82.5136719,5.45898244 82.3769545,5.12988417 82.1035156,4.85839844 C81.8300768,4.58691271 81.4843771,4.45117188 81.0664062,4.45117188 C80.4609345,4.45117188 80.0283216,4.66894313 79.7685547,5.10449219 C79.5087878,5.54004124 79.3789062,6.07421559 79.3789062,6.70703125 L79.3789062,6.953125 C79.3789062,7.60156574 79.5078112,8.1415994 79.765625,8.57324219 C80.0234388,9.00488497 80.4570282,9.22070312 81.0664062,9.22070312 Z M84.5878906,6.77148438 C84.5878906,5.83397969 84.8417943,5.06152647 85.3496094,4.45410156 C85.8574244,3.84667665 86.5468706,3.54296875 87.4179688,3.54296875 C88.2968794,3.54296875 88.9912084,3.8457001 89.5009766,4.45117188 C90.0107447,5.05664365 90.265625,5.83007342 90.265625,6.77148438 L90.265625,6.90039062 C90.265625,7.84570785 90.0117213,8.61913762 89.5039062,9.22070312 C88.9960912,9.82226863 88.3046919,10.1230469 87.4296875,10.1230469 C86.5546831,10.1230469 85.8623072,9.82129208 85.3525391,9.21777344 C84.8427709,8.61425479 84.5878906,7.84180158 84.5878906,6.90039062 L84.5878906,6.77148438 Z M85.7421875,6.90039062 C85.7421875,7.57226898 85.8837876,8.12695094 86.1669922,8.56445312 C86.4501967,9.00195531 86.871091,9.22070312 87.4296875,9.22070312 C87.9804715,9.22070312 88.3984361,9.00195531 88.6835938,8.56445312 C88.9687514,8.12695094 89.1113281,7.57226898 89.1113281,6.90039062 L89.1113281,6.77148438 C89.1113281,6.10741855 88.9677749,5.55468971 88.6806641,5.11328125 C88.3935533,4.67187279 87.972659,4.45117188 87.4179688,4.45117188 C86.8671847,4.45117188 86.4501967,4.67187279 86.1669922,5.11328125 C85.8837876,5.55468971 85.7421875,6.10741855 85.7421875,6.77148438 L85.7421875,6.90039062 Z M92.7089844,3.66015625 L92.7910156,4.60351562 C93.0019542,4.26757645 93.2666,4.00683687 93.5849609,3.82128906 C93.9033219,3.63574126 94.265623,3.54296875 94.671875,3.54296875 C95.3554722,3.54296875 95.8847637,3.74316206 96.2597656,4.14355469 C96.6347675,4.54394731 96.8222656,5.1621052 96.8222656,5.99804688 L96.8222656,10 L95.6679687,10 L95.6679687,6.02148438 C95.6679687,5.46288783 95.5576183,5.06640742 95.3369141,4.83203125 C95.1162098,4.59765508 94.7792991,4.48046875 94.3261719,4.48046875 C93.994139,4.48046875 93.7001966,4.56054607 93.4443359,4.72070312 C93.1884753,4.88086018 92.9843758,5.09960799 92.8320312,5.37695312 L92.8320312,10 L91.6777344,10 L91.6777344,3.66015625 L92.7089844,3.66015625 Z"></path>
            </g>
            <g>
                <g>
                    <g transform="translate(0.000000, 16.000000)">
                        <g transform="translate(1.000000, 1.000000)" fill="#FFFFFF">
                            <rect x="0" y="0" width="208" height="74" rx="2"></rect>
                        </g>
                        <rect stroke="#BDBDBD" x="0.5" y="0.5" width="209" height="75" rx="2"></rect>
                    </g>
                    <path d="M1.57714844,9.94726562 L6.28710937,9.94726562 L6.28710937,11 L0.23046875,11 L0.23046875,1.046875 L1.57714844,1.046875 L1.57714844,9.94726562 Z M12.0839844,11 C12.0384112,10.7766916 12.0030926,10.5795907 11.9780273,10.4086914 C11.9529621,10.2377921 11.9381511,10.0657561 11.9335938,9.89257812 C11.6829415,10.2480487 11.355959,10.545409 10.9526367,10.784668 C10.5493144,11.023927 10.1152367,11.1435547 9.65039062,11.1435547 C8.88020448,11.1435547 8.29345905,10.9464538 7.89013672,10.5522461 C7.48681439,10.1580384 7.28515625,9.6145868 7.28515625,8.921875 C7.28515625,8.21549126 7.57112344,7.66292517 8.14306641,7.26416016 C8.71500937,6.86539514 9.49088052,6.66601562 10.4707031,6.66601562 L11.9335938,6.66601562 L11.9335938,5.93457031 C11.9335938,5.50162544 11.8014336,5.15869267 11.5371094,4.90576172 C11.2727851,4.65283077 10.899091,4.52636719 10.4160156,4.52636719 C9.98307075,4.52636719 9.63102349,4.63688041 9.35986328,4.85791016 C9.08870307,5.07893991 8.953125,5.34439949 8.953125,5.65429688 L7.66796875,5.65429688 L7.65429688,5.61328125 C7.62695299,5.07551814 7.88101946,4.58333557 8.41650391,4.13671875 C8.95198835,3.69010193 9.64355045,3.46679688 10.4912109,3.46679688 C11.3297568,3.46679688 12.0042292,3.67984813 12.5146484,4.10595703 C13.0250677,4.53206593 13.2802734,5.14615484 13.2802734,5.94824219 L13.2802734,9.50976562 C13.2802734,9.77408986 13.2939452,10.0292956 13.3212891,10.2753906 C13.3486329,10.5214856 13.3987627,10.7630196 13.4716797,11 L12.0839844,11 Z M9.84863281,10.015625 C10.3362655,10.015625 10.7760397,9.89030073 11.1679688,9.63964844 C11.5598978,9.38899614 11.8151036,9.10188964 11.9335938,8.77832031 L11.9335938,7.57519531 L10.4228516,7.57519531 C9.88053114,7.57519531 9.44645345,7.7119127 9.12060547,7.98535156 C8.79475749,8.25879043 8.63183594,8.58007628 8.63183594,8.94921875 C8.63183594,9.27734539 8.73437397,9.53710842 8.93945312,9.72851562 C9.14453228,9.91992283 9.44758914,10.015625 9.84863281,10.015625 Z M21.5517578,7.58203125 C21.5517578,8.64844283 21.2954127,9.50862303 20.7827148,10.1625977 C20.270017,10.8165723 19.5647831,11.1435547 18.6669922,11.1435547 C18.1793595,11.1435547 17.7555357,11.0489918 17.3955078,10.8598633 C17.03548,10.6707347 16.7369804,10.3916034 16.5,10.0224609 L16.3359375,11 L15.2353516,11 L15.2353516,0.3359375 L16.5820312,0.3359375 L16.5820312,4.47851562 C16.8144543,4.15038898 17.1027001,3.89974045 17.4467773,3.7265625 C17.7908546,3.55338455 18.1930316,3.46679688 18.6533203,3.46679688 C19.5647832,3.46679688 20.2757136,3.83137656 20.7861328,4.56054688 C21.296552,5.28971719 21.5517578,6.24901749 21.5517578,7.43847656 L21.5517578,7.58203125 Z M20.2050781,7.43847656 C20.2050781,6.59081607 20.0489924,5.89925398 19.7368164,5.36376953 C19.4246404,4.82828508 18.9495475,4.56054688 18.3115234,4.56054688 C17.8968078,4.56054688 17.5470392,4.6619456 17.262207,4.86474609 C16.9773749,5.06754659 16.7506519,5.33984204 16.5820312,5.68164062 L16.5820312,8.88769531 C16.7552092,9.25228047 16.9819322,9.53710835 17.262207,9.7421875 C17.5424819,9.94726665 17.8968078,10.0498047 18.3251953,10.0498047 C18.958662,10.0498047 19.430337,9.82422101 19.7402344,9.37304688 C20.0501318,8.92187274 20.2050781,8.32487351 20.2050781,7.58203125 L20.2050781,7.43847656 Z M26.2617188,11.1435547 C25.2317657,11.1435547 24.4126007,10.8006219 23.8041992,10.1147461 C23.1957977,9.42887027 22.8916016,8.53906797 22.8916016,7.4453125 L22.8916016,7.14453125 C22.8916016,6.09179161 23.2049122,5.21566105 23.831543,4.51611328 C24.4581737,3.81656551 25.1998655,3.46679688 26.0566406,3.46679688 C27.0546925,3.46679688 27.8089167,3.76757512 28.3193359,4.36914062 C28.8297552,4.97070613 29.0849609,5.77278145 29.0849609,6.77539062 L29.0849609,7.61621094 L24.2861328,7.61621094 L24.265625,7.65039062 C24.2792969,8.36133168 24.4593082,8.94579849 24.8056641,9.40380859 C25.15202,9.8618187 25.6373667,10.0908203 26.2617188,10.0908203 C26.7174502,10.0908203 27.1173485,10.0258796 27.4614258,9.89599609 C27.805503,9.76611263 28.1028633,9.58724072 28.3535156,9.359375 L28.8798828,10.234375 C28.6155586,10.4941419 28.2669292,10.7106111 27.8339844,10.8837891 C27.4010395,11.056967 26.8769562,11.1435547 26.2617188,11.1435547 Z M26.0566406,4.52636719 C25.6054665,4.52636719 25.2203792,4.71663221 24.9013672,5.09716797 C24.5823552,5.47770373 24.3863936,5.95507525 24.3134766,6.52929688 L24.3271484,6.56347656 L27.7382812,6.56347656 L27.7382812,6.38574219 C27.7382812,5.85709371 27.5970066,5.41504084 27.3144531,5.05957031 C27.0318996,4.70409979 26.612633,4.52636719 26.0566406,4.52636719 Z M32.0517578,11 L30.7050781,11 L30.7050781,0.3359375 L32.0517578,0.3359375 L32.0517578,11 Z" fill="#6B6B6B"></path>
                    <path d="M6.50585937,106 L5.3515625,106 L5.3515625,102.232422 L1.20898438,102.232422 L1.20898438,106 L0.0546875,106 L0.0546875,97.46875 L1.20898438,97.46875 L1.20898438,101.324219 L5.3515625,101.324219 L5.3515625,97.46875 L6.50585937,97.46875 L6.50585937,106 Z M11.0292969,106.123047 C10.14648,106.123047 9.44433854,105.829105 8.92285156,105.241211 C8.40136458,104.653317 8.140625,103.89063 8.140625,102.953125 L8.140625,102.695312 C8.140625,101.792964 8.409177,101.041995 8.94628906,100.442383 C9.48340112,99.8427704 10.119137,99.5429688 10.8535156,99.5429688 C11.7089887,99.5429688 12.3554666,99.8007787 12.7929688,100.316406 C13.2304709,100.832034 13.4492188,101.519527 13.4492188,102.378906 L13.4492188,103.099609 L9.3359375,103.099609 L9.31835938,103.128906 C9.33007818,103.738284 9.48437352,104.239256 9.78125,104.631836 C10.0781265,105.024416 10.4941379,105.220703 11.0292969,105.220703 C11.4199238,105.220703 11.7626938,105.16504 12.0576172,105.053711 C12.3525405,104.942382 12.6074208,104.789063 12.8222656,104.59375 L13.2734375,105.34375 C13.0468739,105.566407 12.7480487,105.751952 12.3769531,105.900391 C12.0058575,106.048829 11.5566433,106.123047 11.0292969,106.123047 Z M10.8535156,100.451172 C10.4667949,100.451172 10.1367201,100.614256 9.86328125,100.94043 C9.58984238,101.266603 9.42187531,101.675779 9.359375,102.167969 L9.37109375,102.197266 L12.2949219,102.197266 L12.2949219,102.044922 C12.2949219,101.591795 12.1738293,101.212892 11.9316406,100.908203 C11.6894519,100.603514 11.3300805,100.451172 10.8535156,100.451172 Z M15.9921875,106 L14.8378906,106 L14.8378906,96.859375 L15.9921875,96.859375 L15.9921875,106 Z M23.1699219,103.070312 C23.1699219,103.98438 22.9511741,104.721677 22.5136719,105.282227 C22.0761697,105.842776 21.4726601,106.123047 20.703125,106.123047 C20.312498,106.123047 19.969728,106.057618 19.6748047,105.926758 C19.3798813,105.795898 19.1289073,105.599611 18.921875,105.337891 L18.921875,108.4375 L17.7675781,108.4375 L17.7675781,99.6601562 L18.6523438,99.6601562 L18.8339844,100.480469 C19.0410167,100.17578 19.2988266,99.9433602 19.6074219,99.7832031 C19.9160172,99.6230461 20.2753886,99.5429688 20.6855469,99.5429688 C21.4707071,99.5429688 22.0810525,99.8544891 22.5166016,100.477539 C22.9521506,101.100589 23.1699219,101.923823 23.1699219,102.947266 L23.1699219,103.070312 Z M22.015625,102.947266 C22.015625,102.228512 21.8740249,101.637698 21.5908203,101.174805 C21.3076158,100.711912 20.8906278,100.480469 20.3398438,100.480469 C20.0078108,100.480469 19.7246105,100.555663 19.4902344,100.706055 C19.2558582,100.856446 19.066407,101.062499 18.921875,101.324219 L18.921875,104.388672 C19.066407,104.650392 19.2558582,104.854491 19.4902344,105.000977 C19.7246105,105.147462 20.0117171,105.220703 20.3515625,105.220703 C20.8984402,105.220703 21.3124986,105.02051 21.59375,104.620117 C21.8750014,104.219725 22.015625,103.703128 22.015625,103.070312 L22.015625,102.947266 Z M27.21875,106.123047 C26.3359331,106.123047 25.6337917,105.829105 25.1123047,105.241211 C24.5908177,104.653317 24.3300781,103.89063 24.3300781,102.953125 L24.3300781,102.695312 C24.3300781,101.792964 24.5986301,101.041995 25.1357422,100.442383 C25.6728542,99.8427704 26.3085901,99.5429688 27.0429687,99.5429688 C27.8984418,99.5429688 28.5449197,99.8007787 28.9824219,100.316406 C29.4199241,100.832034 29.6386719,101.519527 29.6386719,102.378906 L29.6386719,103.099609 L25.5253906,103.099609 L25.5078125,103.128906 C25.5195313,103.738284 25.6738266,104.239256 25.9707031,104.631836 C26.2675796,105.024416 26.6835911,105.220703 27.21875,105.220703 C27.609377,105.220703 27.952147,105.16504 28.2470703,105.053711 C28.5419937,104.942382 28.7968739,104.789063 29.0117187,104.59375 L29.4628906,105.34375 C29.236327,105.566407 28.9375019,105.751952 28.5664062,105.900391 C28.1953106,106.048829 27.7460964,106.123047 27.21875,106.123047 Z M27.0429687,100.451172 C26.6562481,100.451172 26.3261732,100.614256 26.0527344,100.94043 C25.7792955,101.266603 25.6113284,101.675779 25.5488281,102.167969 L25.5605469,102.197266 L28.484375,102.197266 L28.484375,102.044922 C28.484375,101.591795 28.3632825,101.212892 28.1210937,100.908203 C27.878905,100.603514 27.5195336,100.451172 27.0429687,100.451172 Z M33.9335937,100.679688 L33.3417969,100.644531 C33.0371079,100.644531 32.7802745,100.716796 32.5712891,100.861328 C32.3623036,101.00586 32.2011724,101.208983 32.0878906,101.470703 L32.0878906,106 L30.9335937,106 L30.9335937,99.6601562 L31.9648437,99.6601562 L32.0761719,100.585938 C32.2558603,100.257811 32.4775377,100.001954 32.7412109,99.8183594 C33.0048841,99.6347647 33.308592,99.5429688 33.6523437,99.5429688 C33.7382817,99.5429688 33.8203121,99.5498046 33.8984375,99.5634766 C33.9765629,99.5771485 34.0410154,99.5917968 34.0917969,99.6074219 L33.9335937,100.679688 Z M39.5527344,98.1308594 L39.5527344,99.6601562 L40.7539062,99.6601562 L40.7539062,100.515625 L39.5527344,100.515625 L39.5527344,104.365234 C39.5527344,104.662111 39.6142572,104.871093 39.7373047,104.992188 C39.8603522,105.113282 40.0234365,105.173828 40.2265625,105.173828 C40.2929691,105.173828 40.3662105,105.166016 40.4462891,105.150391 C40.5263676,105.134766 40.5976559,105.115234 40.6601562,105.091797 L40.8125,105.882812 C40.7265621,105.953125 40.6005868,106.010742 40.4345703,106.055664 C40.2685539,106.100586 40.1015633,106.123047 39.9335938,106.123047 C39.4648414,106.123047 39.0917983,105.981447 38.8144531,105.698242 C38.537108,105.415038 38.3984375,104.970706 38.3984375,104.365234 L38.3984375,100.515625 L37.390625,100.515625 L37.390625,99.6601562 L38.3984375,99.6601562 L38.3984375,98.1308594 L39.5527344,98.1308594 Z M44.8085937,106.123047 C43.9257768,106.123047 43.2236354,105.829105 42.7021484,105.241211 C42.1806615,104.653317 41.9199219,103.89063 41.9199219,102.953125 L41.9199219,102.695312 C41.9199219,101.792964 42.1884739,101.041995 42.7255859,100.442383 C43.262698,99.8427704 43.8984338,99.5429688 44.6328125,99.5429688 C45.4882855,99.5429688 46.1347634,99.8007787 46.5722656,100.316406 C47.0097678,100.832034 47.2285156,101.519527 47.2285156,102.378906 L47.2285156,103.099609 L43.1152344,103.099609 L43.0976562,103.128906 C43.1093751,103.738284 43.2636704,104.239256 43.5605469,104.631836 C43.8574234,105.024416 44.2734348,105.220703 44.8085937,105.220703 C45.1992207,105.220703 45.5419907,105.16504 45.8369141,105.053711 C46.1318374,104.942382 46.3867177,104.789063 46.6015625,104.59375 L47.0527344,105.34375 C46.8261707,105.566407 46.5273456,105.751952 46.15625,105.900391 C45.7851544,106.048829 45.3359401,106.123047 44.8085937,106.123047 Z M44.6328125,100.451172 C44.2460918,100.451172 43.916017,100.614256 43.6425781,100.94043 C43.3691393,101.266603 43.2011722,101.675779 43.1386719,102.167969 L43.1503906,102.197266 L46.0742187,102.197266 L46.0742187,102.044922 C46.0742187,101.591795 45.9531262,101.212892 45.7109375,100.908203 C45.4687488,100.603514 45.1093774,100.451172 44.6328125,100.451172 Z M50.6738281,101.998047 L52.0214844,99.6601562 L53.3691406,99.6601562 L51.3125,102.794922 L53.4277344,106 L52.1035156,106 L50.6972656,103.603516 L49.2910156,106 L47.9550781,106 L50.0703125,102.794922 L48.0136719,99.6601562 L49.34375,99.6601562 L50.6738281,101.998047 Z M56.0820312,98.1308594 L56.0820312,99.6601562 L57.2832031,99.6601562 L57.2832031,100.515625 L56.0820312,100.515625 L56.0820312,104.365234 C56.0820312,104.662111 56.1435541,104.871093 56.2666016,104.992188 C56.3896491,105.113282 56.5527334,105.173828 56.7558594,105.173828 C56.822266,105.173828 56.8955074,105.166016 56.9755859,105.150391 C57.0556645,105.134766 57.1269528,105.115234 57.1894531,105.091797 L57.3417969,105.882812 C57.2558589,105.953125 57.1298836,106.010742 56.9638672,106.055664 C56.7978507,106.100586 56.6308602,106.123047 56.4628906,106.123047 C55.9941383,106.123047 55.6210951,105.981447 55.34375,105.698242 C55.0664049,105.415038 54.9277344,104.970706 54.9277344,104.365234 L54.9277344,100.515625 L53.9199219,100.515625 L53.9199219,99.6601562 L54.9277344,99.6601562 L54.9277344,98.1308594 L56.0820312,98.1308594 Z" fill="#9E9E9E"></path>
                </g>
                <path d="M10.0859375,33.4375 L9.1796875,38 L7.671875,38 L9.9453125,26.625 L14.046875,26.625 C15.0989636,26.625 15.8945286,26.9427052 16.4335938,27.578125 C16.9726589,28.2135448 17.1432302,29.031245 16.9453125,30.03125 C16.721353,31.1302138 16.2434932,31.9726533 15.5117188,32.5585938 C14.7799443,33.1445342 13.8385474,33.4375 12.6875,33.4375 L10.0859375,33.4375 Z M10.328125,32.234375 L12.9296875,32.234375 C13.5755241,32.234375 14.1236957,32.0234396 14.5742188,31.6015625 C15.0247418,31.1796854 15.3124994,30.6614614 15.4375,30.046875 C15.567709,29.380205 15.5039075,28.8450541 15.2460938,28.4414062 C14.98828,28.0377584 14.507816,27.8359375 13.8046875,27.8359375 L11.2109375,27.8359375 L10.328125,32.234375 Z M18.6796875,38 L17.171875,38 L19.609375,25.8125 L21.1171875,25.8125 L18.6796875,38 Z M25.7421875,38 C25.7421875,37.7447904 25.7473958,37.5351571 25.7578125,37.3710938 C25.7682292,37.2070304 25.7864582,37.0390634 25.8125,36.8671875 C25.4635399,37.236981 25.0638043,37.5455717 24.6132813,37.7929688 C24.1627582,38.0403658 23.7109398,38.1640625 23.2578125,38.1640625 C22.4869753,38.1640625 21.9179706,37.9335961 21.5507812,37.4726562 C21.1835919,37.0117164 21.0807284,36.3958372 21.2421875,35.625 C21.408855,34.7656207 21.8320279,34.1210959 22.5117188,33.6914062 C23.1914096,33.2617166 24.0624947,33.046875 25.125,33.046875 L26.5703125,33.046875 L26.734375,32.2109375 C26.8385422,31.6848932 26.7812511,31.2851576 26.5625,31.0117188 C26.3437489,30.7382799 25.9791692,30.6015625 25.46875,30.6015625 C25.0312478,30.6015625 24.6354184,30.7304675 24.28125,30.9882812 C23.9270816,31.246095 23.7161462,31.5468733 23.6484375,31.890625 L22.21875,31.890625 L22.203125,31.84375 C22.3072922,31.1927051 22.6979133,30.6210962 23.375,30.1289062 C24.0520867,29.6367163 24.8593703,29.390625 25.796875,29.390625 C26.6354209,29.390625 27.2981746,29.6393204 27.7851563,30.1367188 C28.2721379,30.6341171 28.4270842,31.3307247 28.25,32.2265625 L27.4375,36.296875 C27.3697913,36.6145849 27.3229168,36.9088528 27.296875,37.1796875 C27.2708332,37.4505222 27.2708332,37.723957 27.296875,38 L25.7421875,38 Z M23.7421875,36.875 C24.1640646,36.875 24.5937478,36.7526054 25.03125,36.5078125 C25.4687522,36.2630196 25.8072905,35.97396 26.046875,35.640625 L26.359375,34.0859375 L24.8671875,34.0859375 C24.3515599,34.0859375 23.8880229,34.2447901 23.4765625,34.5625 C23.0651021,34.8802099 22.8203129,35.2447896 22.7421875,35.65625 C22.6588538,36.0572937 22.6979159,36.3606761 22.859375,36.5664062 C23.0208341,36.7721364 23.315102,36.875 23.7421875,36.875 Z M32.7265625,36.9609375 C33.1744814,36.9609375 33.6028625,36.8020849 34.0117188,36.484375 C34.420575,36.1666651 34.661458,35.7812523 34.734375,35.328125 L36.0859375,35.328125 L36.1015625,35.375 C35.9973953,36.1354205 35.5911494,36.7903618 34.8828125,37.3398438 C34.1744756,37.8893257 33.3932334,38.1640625 32.5390625,38.1640625 C31.4348903,38.1640625 30.6302109,37.7578166 30.125,36.9453125 C29.6197891,36.1328084 29.4635407,35.1302143 29.65625,33.9375 L29.7109375,33.609375 C29.9036468,32.3645771 30.3658818,31.3502643 31.0976562,30.5664062 C31.8294307,29.7825482 32.7760359,29.390625 33.9375,29.390625 C34.8333378,29.390625 35.5351537,29.6835908 36.0429688,30.2695312 C36.5507838,30.8554717 36.7265633,31.5729124 36.5703125,32.421875 L36.5546875,32.4609375 L35.1875,32.4609375 C35.2760421,31.9192681 35.1875013,31.4739601 34.921875,31.125 C34.6562487,30.7760399 34.2656276,30.6015625 33.75,30.6015625 C33.0416631,30.6015625 32.4765646,30.8958304 32.0546875,31.484375 C31.6328104,32.0729196 31.3567715,32.7812459 31.2265625,33.609375 L31.171875,33.9375 C31.0312493,34.8333378 31.0677073,35.5611951 31.28125,36.1210938 C31.4947927,36.6809924 31.9765587,36.9609375 32.7265625,36.9609375 Z M40.609375,38.1640625 C39.5468697,38.1640625 38.7434923,37.7695352 38.1992188,36.9804688 C37.6549452,36.1914023 37.4817698,35.1770895 37.6796875,33.9375 L37.734375,33.59375 C37.9322927,32.3437438 38.4257773,31.330733 39.2148438,30.5546875 C40.0039102,29.778642 40.8567663,29.390625 41.7734375,29.390625 C42.809901,29.390625 43.5520811,29.7369757 44,30.4296875 C44.4479189,31.1223993 44.5833342,32.0364527 44.40625,33.171875 L44.25,34.1328125 L39.15625,34.1328125 C39.0416661,34.9974002 39.1210924,35.6848933 39.3945312,36.1953125 C39.6679701,36.7057317 40.1354134,36.9609375 40.796875,36.9609375 C41.2552106,36.9609375 41.6848938,36.8841154 42.0859375,36.7304688 C42.4869812,36.5768221 42.835936,36.3750012 43.1328125,36.125 L43.5625,37.125 C43.2447901,37.4218765 42.8385441,37.6692698 42.34375,37.8671875 C41.8489559,38.0651052 41.2708366,38.1640625 40.609375,38.1640625 Z M41.5859375,30.6015625 C41.1484353,30.6015625 40.7252625,30.8203103 40.3164062,31.2578125 C39.90755,31.6953147 39.6145842,32.2369759 39.4375,32.8828125 L39.4609375,32.9296875 L42.9375,32.9296875 L42.96875,32.7265625 C43.0677088,32.096351 43.0078136,31.5846374 42.7890625,31.1914062 C42.5703114,30.7981751 42.1692738,30.6015625 41.5859375,30.6015625 Z M48.1796875,30.5703125 C48.5286476,30.1901023 48.9153625,29.8984385 49.3398438,29.6953125 C49.764325,29.4921865 50.2135393,29.390625 50.6875,29.390625 C51.4791706,29.390625 52.0677064,29.6666639 52.453125,30.21875 C52.8385436,30.7708361 52.9218761,31.5989528 52.703125,32.703125 L51.640625,38 L50.1328125,38 L51.1953125,32.6875 C51.3411466,31.947913 51.312501,31.4218766 51.109375,31.109375 C50.906249,30.7968734 50.5260445,30.640625 49.96875,30.640625 C49.6197899,30.640625 49.2656268,30.7434886 48.90625,30.9492188 C48.5468732,31.1549489 48.2239598,31.4296858 47.9375,31.7734375 L46.6953125,38 L45.1875,38 L47.625,25.8125 L49.1328125,25.8125 L48.1796875,30.5703125 Z M54.2421875,33.6953125 C54.4505219,32.3932227 54.9283817,31.3502643 55.6757812,30.5664062 C56.4231808,29.7825482 57.3463487,29.390625 58.4453125,29.390625 C59.4974011,29.390625 60.2851536,29.798173 60.8085938,30.6132812 C61.3320339,31.4283895 61.4947927,32.455723 61.296875,33.6953125 L61.2734375,33.8671875 C61.0598948,35.1744857 60.5794308,36.217444 59.8320312,36.9960938 C59.0846317,37.7747435 58.1614638,38.1640625 57.0625,38.1640625 C56.0104114,38.1640625 55.2226589,37.7578166 54.6992188,36.9453125 C54.1757786,36.1328084 54.015624,35.106777 54.21875,33.8671875 L54.2421875,33.6953125 Z M55.7265625,33.8671875 C55.5755201,34.7994838 55.6210925,35.5481743 55.8632812,36.1132812 C56.10547,36.6783882 56.5677049,36.9609375 57.25,36.9609375 C57.8854198,36.9609375 58.4270811,36.6653675 58.875,36.0742188 C59.3229189,35.48307 59.6171868,34.7474002 59.7578125,33.8671875 L59.78125,33.6953125 C59.9270841,32.7786412 59.8776054,32.033857 59.6328125,31.4609375 C59.3880196,30.888018 58.9296909,30.6015625 58.2578125,30.6015625 C57.6171843,30.6015625 57.074221,30.8984345 56.6289062,31.4921875 C56.1835915,32.0859405 55.8906257,32.8203081 55.75,33.6953125 L55.7265625,33.8671875 Z M63.9375,38 L62.4296875,38 L64.8671875,25.8125 L66.375,25.8125 L63.9375,38 Z M66.703125,33.7734375 C66.9895848,32.3203052 67.4492156,31.2265662 68.0820312,30.4921875 C68.7148469,29.7578088 69.5286409,29.390625 70.5234375,29.390625 C70.9557313,29.390625 71.3476545,29.4804679 71.6992188,29.6601562 C72.050783,29.8398446 72.3385405,30.0937484 72.5625,30.421875 L73.484375,25.8125 L74.9921875,25.8125 L72.5546875,38 L71.2578125,38 L71.3125,37.1875 C70.9999984,37.5104183 70.6549498,37.7539054 70.2773438,37.9179688 C69.8997377,38.0820321 69.4921897,38.1640625 69.0546875,38.1640625 C68.148433,38.1640625 67.4648461,37.7578166 67.0039062,36.9453125 C66.5429664,36.1328084 66.4322905,35.1302143 66.671875,33.9375 L66.703125,33.7734375 Z M68.1875,33.9375 C68.0052074,34.8333378 68.0390613,35.5533827 68.2890625,36.0976562 C68.5390637,36.6419298 69.0078091,36.9140625 69.6953125,36.9140625 C70.065106,36.9140625 70.3971339,36.8111989 70.6914062,36.6054688 C70.9856786,36.3997386 71.2552071,36.1067727 71.5,35.7265625 L72.296875,31.734375 C72.1614577,31.40104 71.9570326,31.1354177 71.6835938,30.9375 C71.4101549,30.7395823 71.0703145,30.640625 70.6640625,30.640625 C70.0390594,30.640625 69.5221375,30.9231743 69.1132812,31.4882812 C68.704425,32.0533882 68.4062509,32.8150994 68.21875,33.7734375 L68.1875,33.9375 Z M78.1484375,38.1640625 C77.0859322,38.1640625 76.2825548,37.7695352 75.7382813,36.9804688 C75.1940077,36.1914023 75.0208323,35.1770895 75.21875,33.9375 L75.2734375,33.59375 C75.4713552,32.3437438 75.9648398,31.330733 76.7539063,30.5546875 C77.5429727,29.778642 78.3958288,29.390625 79.3125,29.390625 C80.3489635,29.390625 81.0911436,29.7369757 81.5390625,30.4296875 C81.9869814,31.1223993 82.1223967,32.0364527 81.9453125,33.171875 L81.7890625,34.1328125 L76.6953125,34.1328125 C76.5807286,34.9974002 76.6601549,35.6848933 76.9335938,36.1953125 C77.2070326,36.7057317 77.6744759,36.9609375 78.3359375,36.9609375 C78.7942731,36.9609375 79.2239563,36.8841154 79.625,36.7304688 C80.0260437,36.5768221 80.3749985,36.3750012 80.671875,36.125 L81.1015625,37.125 C80.7838526,37.4218765 80.3776066,37.6692698 79.8828125,37.8671875 C79.3880184,38.0651052 78.8098991,38.1640625 78.1484375,38.1640625 Z M79.125,30.6015625 C78.6874978,30.6015625 78.264325,30.8203103 77.8554688,31.2578125 C77.4466125,31.6953147 77.1536467,32.2369759 76.9765625,32.8828125 L77,32.9296875 L80.4765625,32.9296875 L80.5078125,32.7265625 C80.6067713,32.096351 80.5468761,31.5846374 80.328125,31.1914062 C80.1093739,30.7981751 79.7083363,30.6015625 79.125,30.6015625 Z M87.96875,30.90625 L87.140625,30.859375 C86.7968733,30.859375 86.4804702,30.9570303 86.1914062,31.1523438 C85.9023423,31.3476572 85.6510427,31.6223941 85.4375,31.9765625 L84.234375,38 L82.7265625,38 L84.4140625,29.546875 L85.765625,29.546875 L85.671875,30.6796875 C85.9635431,30.2682271 86.2929669,29.950522 86.6601562,29.7265625 C87.0273456,29.502603 87.4218729,29.390625 87.84375,29.390625 C87.9479172,29.390625 88.0611973,29.3997395 88.1835938,29.4179688 C88.3059902,29.436198 88.395833,29.4557291 88.453125,29.4765625 L87.96875,30.90625 Z M95.921875,27.5078125 L95.5078125,29.546875 L96.96875,29.546875 L96.7421875,30.6875 L95.28125,30.6875 L94.2578125,35.8203125 C94.1692704,36.2421896 94.1822911,36.527343 94.296875,36.6757812 C94.4114589,36.8242195 94.5963529,36.8984375 94.8515625,36.8984375 C94.9713548,36.8984375 95.1158846,36.8867189 95.2851562,36.8632812 C95.4544279,36.8398436 95.5885412,36.8151043 95.6875,36.7890625 L95.6796875,37.84375 C95.5286451,37.9375005 95.3138035,38.0143226 95.0351562,38.0742188 C94.756509,38.1341149 94.4817722,38.1640625 94.2109375,38.1640625 C93.6640598,38.1640625 93.2434911,37.9713561 92.9492188,37.5859375 C92.6549464,37.2005189 92.5885409,36.6119831 92.75,35.8203125 L93.7734375,30.6875 L92.5390625,30.6875 L92.765625,29.546875 L94,29.546875 L94.4140625,27.5078125 L95.921875,27.5078125 Z M100.5625,38.1640625 C99.4999947,38.1640625 98.6966173,37.7695352 98.1523438,36.9804688 C97.6080702,36.1914023 97.4348948,35.1770895 97.6328125,33.9375 L97.6875,33.59375 C97.8854177,32.3437438 98.3789023,31.330733 99.1679688,30.5546875 C99.9570352,29.778642 100.809891,29.390625 101.726562,29.390625 C102.763026,29.390625 103.505206,29.7369757 103.953125,30.4296875 C104.401044,31.1223993 104.536459,32.0364527 104.359375,33.171875 L104.203125,34.1328125 L99.109375,34.1328125 C98.9947911,34.9974002 99.0742174,35.6848933 99.3476562,36.1953125 C99.6210951,36.7057317 100.088538,36.9609375 100.75,36.9609375 C101.208336,36.9609375 101.638019,36.8841154 102.039062,36.7304688 C102.440106,36.5768221 102.789061,36.3750012 103.085938,36.125 L103.515625,37.125 C103.197915,37.4218765 102.791669,37.6692698 102.296875,37.8671875 C101.802081,38.0651052 101.223962,38.1640625 100.5625,38.1640625 Z M101.539062,30.6015625 C101.10156,30.6015625 100.678387,30.8203103 100.269531,31.2578125 C99.860675,31.6953147 99.5677092,32.2369759 99.390625,32.8828125 L99.4140625,32.9296875 L102.890625,32.9296875 L102.921875,32.7265625 C103.020834,32.096351 102.960939,31.5846374 102.742188,31.1914062 C102.523436,30.7981751 102.122399,30.6015625 101.539062,30.6015625 Z M108.804688,32.6640625 L110.914062,29.546875 L112.671875,29.546875 L109.46875,33.7265625 L111.382812,38 L109.65625,38 L108.492188,34.8046875 L106.304688,38 L104.5625,38 L107.851562,33.7265625 L105.984375,29.546875 L107.71875,29.546875 L108.804688,32.6640625 Z M116.835938,27.5078125 L116.421875,29.546875 L117.882813,29.546875 L117.65625,30.6875 L116.195313,30.6875 L115.171875,35.8203125 C115.083333,36.2421896 115.096354,36.527343 115.210938,36.6757812 C115.325521,36.8242195 115.510415,36.8984375 115.765625,36.8984375 C115.885417,36.8984375 116.029947,36.8867189 116.199219,36.8632812 C116.36849,36.8398436 116.502604,36.8151043 116.601563,36.7890625 L116.59375,37.84375 C116.442708,37.9375005 116.227866,38.0143226 115.949219,38.0742188 C115.670572,38.1341149 115.395835,38.1640625 115.125,38.1640625 C114.578122,38.1640625 114.157554,37.9713561 113.863281,37.5859375 C113.569009,37.2005189 113.502603,36.6119831 113.664063,35.8203125 L114.6875,30.6875 L113.453125,30.6875 L113.679688,29.546875 L114.914063,29.546875 L115.328125,27.5078125 L116.835938,27.5078125 Z" fill="#9E9E9E"></path>
                <g transform="translate(205.242641, 87.242641) rotate(-45.000000) translate(-205.242641, -87.242641) translate(200.742641, 85.742641)" fill="#D8D8D8">
                    <rect x="2" y="2" width="5" height="1"></rect>
                    <rect x="0" y="0" width="9" height="1"></rect>
                </g>
            </g>
            <g transform="translate(224.500000, 86.500000) scale(-1, 1) translate(-224.500000, -86.500000) translate(209.000000, 83.000000)">
                <path d="M3.5,6.5 L3.5,5 C3.5,4.17157288 4.16741943,3.5 4.99009652,3.5 L30.5,3.5" stroke="#EC407A"></path>
                <g transform="translate(24.000000, 0.000000)">
                    <g>
                        <g fill="#FFFFFF">
                            <polygon points="7 3.5 0 7 0 0"></polygon>
                        </g>
                        <polygon stroke="#EC407A" points="5.88196601 3.5 0.5 0.809016994 0.5 6.19098301"></polygon>
                    </g>
                </g>
                <g>
                    <g>
                        <g fill="#FFFFFF">
                            <circle cx="3.5" cy="3.5" r="3.5"></circle>
                        </g>
                        <circle stroke="#EC407A" cx="3.5" cy="3.5" r="3"></circle>
                    </g>
                </g>
            </g>
        </g>
    </g>
</svg>