<?xml version="1.0" encoding="UTF-8" standalone="no"?>
<svg width="389px" height="87px" viewBox="0 0 389 87" version="1.1" xmlns="http://www.w3.org/2000/svg" xmlns:xlink="http://www.w3.org/1999/xlink">
    <!-- Generator: Sketch 47.1 (45422) - http://www.bohemiancoding.com/sketch -->
    <title>text-fields-text-input-helper-text</title>
    <desc>Created with Sketch.</desc>
    <defs></defs>
    <g stroke="none" stroke-width="1" fill="none" fill-rule="evenodd">
        <g transform="translate(-1.000000, -4.000000)">
            <g>
                <g transform="translate(1.000000, 22.000000)">
                    <g transform="translate(1.000000, 1.000000)" fill="#FFFFFF">
                        <rect x="0" y="0" width="208" height="30" rx="2"></rect>
                    </g>
                    <rect stroke="#BDBDBD" x="0.5" y="0.5" width="209" height="31" rx="2"></rect>
                </g>
                <path d="M2.57714844,13.9472656 L7.28710937,13.9472656 L7.28710937,15 L1.23046875,15 L1.23046875,5.046875 L2.57714844,5.046875 L2.57714844,13.9472656 Z M13.0839844,15 C13.0384112,14.7766916 13.0030926,14.5795907 12.9780273,14.4086914 C12.9529621,14.2377921 12.9381511,14.0657561 12.9335938,13.8925781 C12.6829415,14.2480487 12.355959,14.545409 11.9526367,14.784668 C11.5493144,15.023927 11.1152367,15.1435547 10.6503906,15.1435547 C9.88020448,15.1435547 9.29345905,14.9464538 8.89013672,14.5522461 C8.48681439,14.1580384 8.28515625,13.6145868 8.28515625,12.921875 C8.28515625,12.2154913 8.57112344,11.6629252 9.14306641,11.2641602 C9.71500937,10.8653951 10.4908805,10.6660156 11.4707031,10.6660156 L12.9335938,10.6660156 L12.9335938,9.93457031 C12.9335938,9.50162544 12.8014336,9.15869267 12.5371094,8.90576172 C12.2727851,8.65283077 11.899091,8.52636719 11.4160156,8.52636719 C10.9830708,8.52636719 10.6310235,8.63688041 10.3598633,8.85791016 C10.0887031,9.07893991 9.953125,9.34439949 9.953125,9.65429688 L8.66796875,9.65429688 L8.65429688,9.61328125 C8.62695299,9.07551814 8.88101946,8.58333557 9.41650391,8.13671875 C9.95198835,7.69010193 10.6435504,7.46679688 11.4912109,7.46679688 C12.3297568,7.46679688 13.0042292,7.67984813 13.5146484,8.10595703 C14.0250677,8.53206593 14.2802734,9.14615484 14.2802734,9.94824219 L14.2802734,13.5097656 C14.2802734,13.7740899 14.2939452,14.0292956 14.3212891,14.2753906 C14.3486329,14.5214856 14.3987627,14.7630196 14.4716797,15 L13.0839844,15 Z M10.8486328,14.015625 C11.3362655,14.015625 11.7760397,13.8903007 12.1679688,13.6396484 C12.5598978,13.3889961 12.8151036,13.1018896 12.9335938,12.7783203 L12.9335938,11.5751953 L11.4228516,11.5751953 C10.8805311,11.5751953 10.4464535,11.7119127 10.1206055,11.9853516 C9.79475749,12.2587904 9.63183594,12.5800763 9.63183594,12.9492188 C9.63183594,13.2773454 9.73437397,13.5371084 9.93945312,13.7285156 C10.1445323,13.9199228 10.4475891,14.015625 10.8486328,14.015625 Z M22.5517578,11.5820312 C22.5517578,12.6484428 22.2954127,13.508623 21.7827148,14.1625977 C21.270017,14.8165723 20.5647831,15.1435547 19.6669922,15.1435547 C19.1793595,15.1435547 18.7555357,15.0489918 18.3955078,14.8598633 C18.03548,14.6707347 17.7369804,14.3916034 17.5,14.0224609 L17.3359375,15 L16.2353516,15 L16.2353516,4.3359375 L17.5820312,4.3359375 L17.5820312,8.47851562 C17.8144543,8.15038898 18.1027001,7.89974045 18.4467773,7.7265625 C18.7908546,7.55338455 19.1930316,7.46679688 19.6533203,7.46679688 C20.5647832,7.46679688 21.2757136,7.83137656 21.7861328,8.56054688 C22.296552,9.28971719 22.5517578,10.2490175 22.5517578,11.4384766 L22.5517578,11.5820312 Z M21.2050781,11.4384766 C21.2050781,10.5908161 21.0489924,9.89925398 20.7368164,9.36376953 C20.4246404,8.82828508 19.9495475,8.56054688 19.3115234,8.56054688 C18.8968078,8.56054688 18.5470392,8.6619456 18.262207,8.86474609 C17.9773749,9.06754659 17.7506519,9.33984204 17.5820312,9.68164062 L17.5820312,12.8876953 C17.7552092,13.2522805 17.9819322,13.5371083 18.262207,13.7421875 C18.5424819,13.9472667 18.8968078,14.0498047 19.3251953,14.0498047 C19.958662,14.0498047 20.430337,13.824221 20.7402344,13.3730469 C21.0501318,12.9218727 21.2050781,12.3248735 21.2050781,11.5820312 L21.2050781,11.4384766 Z M27.2617188,15.1435547 C26.2317657,15.1435547 25.4126007,14.8006219 24.8041992,14.1147461 C24.1957977,13.4288703 23.8916016,12.539068 23.8916016,11.4453125 L23.8916016,11.1445312 C23.8916016,10.0917916 24.2049122,9.21566105 24.831543,8.51611328 C25.4581737,7.81656551 26.1998655,7.46679688 27.0566406,7.46679688 C28.0546925,7.46679688 28.8089167,7.76757512 29.3193359,8.36914062 C29.8297552,8.97070613 30.0849609,9.77278145 30.0849609,10.7753906 L30.0849609,11.6162109 L25.2861328,11.6162109 L25.265625,11.6503906 C25.2792969,12.3613317 25.4593082,12.9457985 25.8056641,13.4038086 C26.15202,13.8618187 26.6373667,14.0908203 27.2617188,14.0908203 C27.7174502,14.0908203 28.1173485,14.0258796 28.4614258,13.8959961 C28.805503,13.7661126 29.1028633,13.5872407 29.3535156,13.359375 L29.8798828,14.234375 C29.6155586,14.4941419 29.2669292,14.7106111 28.8339844,14.8837891 C28.4010395,15.056967 27.8769562,15.1435547 27.2617188,15.1435547 Z M27.0566406,8.52636719 C26.6054665,8.52636719 26.2203792,8.71663221 25.9013672,9.09716797 C25.5823552,9.47770373 25.3863936,9.95507525 25.3134766,10.5292969 L25.3271484,10.5634766 L28.7382812,10.5634766 L28.7382812,10.3857422 C28.7382812,9.85709371 28.5970066,9.41504084 28.3144531,9.05957031 C28.0318996,8.70409979 27.612633,8.52636719 27.0566406,8.52636719 Z M33.0517578,15 L31.7050781,15 L31.7050781,4.3359375 L33.0517578,4.3359375 L33.0517578,15 Z" fill="#6B6B6B"></path>
                <g transform="translate(0.000000, 55.000000)" fill="#6B6B6B">
                    <g>
                        <path d="M7.50585937,13 L6.3515625,13 L6.3515625,9.23242188 L2.20898438,9.23242188 L2.20898438,13 L1.0546875,13 L1.0546875,4.46875 L2.20898438,4.46875 L2.20898438,8.32421875 L6.3515625,8.32421875 L6.3515625,4.46875 L7.50585937,4.46875 L7.50585937,13 Z M12.0292969,13.1230469 C11.14648,13.1230469 10.4443385,12.8291045 9.92285156,12.2412109 C9.40136458,11.6533174 9.140625,10.8906297 9.140625,9.953125 L9.140625,9.6953125 C9.140625,8.79296424 9.409177,8.04199519 9.94628906,7.44238281 C10.4834011,6.84277044 11.119137,6.54296875 11.8535156,6.54296875 C12.7089887,6.54296875 13.3554666,6.80077867 13.7929688,7.31640625 C14.2304709,7.83203383 14.4492188,8.51952695 14.4492188,9.37890625 L14.4492188,10.0996094 L10.3359375,10.0996094 L10.3183594,10.1289062 C10.3300782,10.7382843 10.4843735,11.2392558 10.78125,11.6318359 C11.0781265,12.024416 11.4941379,12.2207031 12.0292969,12.2207031 C12.4199238,12.2207031 12.7626938,12.1650396 13.0576172,12.0537109 C13.3525405,11.9423823 13.6074208,11.7890635 13.8222656,11.59375 L14.2734375,12.34375 C14.0468739,12.5664074 13.7480487,12.7519524 13.3769531,12.9003906 C13.0058575,13.0488289 12.5566433,13.1230469 12.0292969,13.1230469 Z M11.8535156,7.45117188 C11.4667949,7.45117188 11.1367201,7.61425618 10.8632812,7.94042969 C10.5898424,8.26660319 10.4218753,8.67577879 10.359375,9.16796875 L10.3710938,9.19726562 L13.2949219,9.19726562 L13.2949219,9.04492188 C13.2949219,8.59179461 13.1738293,8.21289215 12.9316406,7.90820312 C12.6894519,7.6035141 12.3300805,7.45117188 11.8535156,7.45117188 Z M16.9921875,13 L15.8378906,13 L15.8378906,3.859375 L16.9921875,3.859375 L16.9921875,13 Z M24.1699219,10.0703125 C24.1699219,10.9843796 23.9511741,11.7216769 23.5136719,12.2822266 C23.0761697,12.8427762 22.4726601,13.1230469 21.703125,13.1230469 C21.312498,13.1230469 20.969728,13.0576178 20.6748047,12.9267578 C20.3798813,12.7958978 20.1289073,12.5996107 19.921875,12.3378906 L19.921875,15.4375 L18.7675781,15.4375 L18.7675781,6.66015625 L19.6523438,6.66015625 L19.8339844,7.48046875 C20.0410167,7.17577973 20.2988266,6.94336018 20.6074219,6.78320312 C20.9160172,6.62304607 21.2753886,6.54296875 21.6855469,6.54296875 C22.4707071,6.54296875 23.0810525,6.85448907 23.5166016,7.47753906 C23.9521506,8.10058905 24.1699219,8.92382301 24.1699219,9.94726562 L24.1699219,10.0703125 Z M23.015625,9.94726562 C23.015625,9.22851203 22.8740249,8.63769763 22.5908203,8.17480469 C22.3076158,7.71191175 21.8906278,7.48046875 21.3398438,7.48046875 C21.0078108,7.48046875 20.7246105,7.55566331 20.4902344,7.70605469 C20.2558582,7.85644606 20.066407,8.06249869 19.921875,8.32421875 L19.921875,11.3886719 C20.066407,11.6503919 20.2558582,11.8544915 20.4902344,12.0009766 C20.7246105,12.1474617 21.0117171,12.2207031 21.3515625,12.2207031 C21.8984402,12.2207031 22.3124986,12.0205098 22.59375,11.6201172 C22.8750014,11.2197246 23.015625,10.7031282 23.015625,10.0703125 L23.015625,9.94726562 Z M28.21875,13.1230469 C27.3359331,13.1230469 26.6337917,12.8291045 26.1123047,12.2412109 C25.5908177,11.6533174 25.3300781,10.8906297 25.3300781,9.953125 L25.3300781,9.6953125 C25.3300781,8.79296424 25.5986301,8.04199519 26.1357422,7.44238281 C26.6728542,6.84277044 27.3085901,6.54296875 28.0429687,6.54296875 C28.8984418,6.54296875 29.5449197,6.80077867 29.9824219,7.31640625 C30.4199241,7.83203383 30.6386719,8.51952695 30.6386719,9.37890625 L30.6386719,10.0996094 L26.5253906,10.0996094 L26.5078125,10.1289062 C26.5195313,10.7382843 26.6738266,11.2392558 26.9707031,11.6318359 C27.2675796,12.024416 27.6835911,12.2207031 28.21875,12.2207031 C28.609377,12.2207031 28.952147,12.1650396 29.2470703,12.0537109 C29.5419937,11.9423823 29.7968739,11.7890635 30.0117187,11.59375 L30.4628906,12.34375 C30.236327,12.5664074 29.9375019,12.7519524 29.5664062,12.9003906 C29.1953106,13.0488289 28.7460964,13.1230469 28.21875,13.1230469 Z M28.0429687,7.45117188 C27.6562481,7.45117188 27.3261732,7.61425618 27.0527344,7.94042969 C26.7792955,8.26660319 26.6113284,8.67577879 26.5488281,9.16796875 L26.5605469,9.19726562 L29.484375,9.19726562 L29.484375,9.04492188 C29.484375,8.59179461 29.3632825,8.21289215 29.1210937,7.90820312 C28.878905,7.6035141 28.5195336,7.45117188 28.0429687,7.45117188 Z M34.9335937,7.6796875 L34.3417969,7.64453125 C34.0371079,7.64453125 33.7802745,7.71679615 33.5712891,7.86132812 C33.3623036,8.0058601 33.2011724,8.20898307 33.0878906,8.47070312 L33.0878906,13 L31.9335937,13 L31.9335937,6.66015625 L32.9648437,6.66015625 L33.0761719,7.5859375 C33.2558603,7.25781086 33.4775377,7.00195404 33.7412109,6.81835938 C34.0048841,6.63476471 34.308592,6.54296875 34.6523437,6.54296875 C34.7382817,6.54296875 34.8203121,6.54980462 34.8984375,6.56347656 C34.9765629,6.57714851 35.0410154,6.5917968 35.0917969,6.60742188 L34.9335937,7.6796875 Z M40.5527344,5.13085938 L40.5527344,6.66015625 L41.7539062,6.66015625 L41.7539062,7.515625 L40.5527344,7.515625 L40.5527344,11.3652344 C40.5527344,11.6621109 40.6142572,11.8710931 40.7373047,11.9921875 C40.8603522,12.1132819 41.0234365,12.1738281 41.2265625,12.1738281 C41.2929691,12.1738281 41.3662105,12.1660157 41.4462891,12.1503906 C41.5263676,12.1347655 41.5976559,12.1152345 41.6601562,12.0917969 L41.8125,12.8828125 C41.7265621,12.9531254 41.6005868,13.010742 41.4345703,13.0556641 C41.2685539,13.1005862 41.1015633,13.1230469 40.9335938,13.1230469 C40.4648414,13.1230469 40.0917983,12.9814467 39.8144531,12.6982422 C39.537108,12.4150376 39.3984375,11.9707062 39.3984375,11.3652344 L39.3984375,7.515625 L38.390625,7.515625 L38.390625,6.66015625 L39.3984375,6.66015625 L39.3984375,5.13085938 L40.5527344,5.13085938 Z M45.8085937,13.1230469 C44.9257768,13.1230469 44.2236354,12.8291045 43.7021484,12.2412109 C43.1806615,11.6533174 42.9199219,10.8906297 42.9199219,9.953125 L42.9199219,9.6953125 C42.9199219,8.79296424 43.1884739,8.04199519 43.7255859,7.44238281 C44.262698,6.84277044 44.8984338,6.54296875 45.6328125,6.54296875 C46.4882855,6.54296875 47.1347634,6.80077867 47.5722656,7.31640625 C48.0097678,7.83203383 48.2285156,8.51952695 48.2285156,9.37890625 L48.2285156,10.0996094 L44.1152344,10.0996094 L44.0976562,10.1289062 C44.1093751,10.7382843 44.2636704,11.2392558 44.5605469,11.6318359 C44.8574234,12.024416 45.2734348,12.2207031 45.8085937,12.2207031 C46.1992207,12.2207031 46.5419907,12.1650396 46.8369141,12.0537109 C47.1318374,11.9423823 47.3867177,11.7890635 47.6015625,11.59375 L48.0527344,12.34375 C47.8261707,12.5664074 47.5273456,12.7519524 47.15625,12.9003906 C46.7851544,13.0488289 46.3359401,13.1230469 45.8085937,13.1230469 Z M45.6328125,7.45117188 C45.2460918,7.45117188 44.916017,7.61425618 44.6425781,7.94042969 C44.3691393,8.26660319 44.2011722,8.67577879 44.1386719,9.16796875 L44.1503906,9.19726562 L47.0742187,9.19726562 L47.0742187,9.04492188 C47.0742187,8.59179461 46.9531262,8.21289215 46.7109375,7.90820312 C46.4687488,7.6035141 46.1093774,7.45117188 45.6328125,7.45117188 Z M51.6738281,8.99804688 L53.0214844,6.66015625 L54.3691406,6.66015625 L52.3125,9.79492188 L54.4277344,13 L53.1035156,13 L51.6972656,10.6035156 L50.2910156,13 L48.9550781,13 L51.0703125,9.79492188 L49.0136719,6.66015625 L50.34375,6.66015625 L51.6738281,8.99804688 Z M57.0820312,5.13085938 L57.0820312,6.66015625 L58.2832031,6.66015625 L58.2832031,7.515625 L57.0820312,7.515625 L57.0820312,11.3652344 C57.0820312,11.6621109 57.1435541,11.8710931 57.2666016,11.9921875 C57.3896491,12.1132819 57.5527334,12.1738281 57.7558594,12.1738281 C57.822266,12.1738281 57.8955074,12.1660157 57.9755859,12.1503906 C58.0556645,12.1347655 58.1269528,12.1152345 58.1894531,12.0917969 L58.3417969,12.8828125 C58.2558589,12.9531254 58.1298836,13.010742 57.9638672,13.0556641 C57.7978507,13.1005862 57.6308602,13.1230469 57.4628906,13.1230469 C56.9941383,13.1230469 56.6210951,12.9814467 56.34375,12.6982422 C56.0664049,12.4150376 55.9277344,11.9707062 55.9277344,11.3652344 L55.9277344,7.515625 L54.9199219,7.515625 L54.9199219,6.66015625 L55.9277344,6.66015625 L55.9277344,5.13085938 L57.0820312,5.13085938 Z"></path>
                    </g>
                </g>
            </g>
            <g transform="translate(245.000000, 41.000000)" fill="#EC407A">
                <path d="M6.09960938,6.2265625 L2.20898438,6.2265625 L2.20898438,10 L1.0546875,10 L1.0546875,1.46875 L6.69726562,1.46875 L6.69726562,2.37695312 L2.20898438,2.37695312 L2.20898438,5.31835938 L6.09960938,5.31835938 L6.09960938,6.2265625 Z M7.43554688,6.77148438 C7.43554688,5.83397969 7.68945059,5.06152647 8.19726562,4.45410156 C8.70508066,3.84667665 9.39452689,3.54296875 10.265625,3.54296875 C11.1445356,3.54296875 11.8388646,3.8457001 12.3486328,4.45117188 C12.858401,5.05664365 13.1132812,5.83007342 13.1132812,6.77148438 L13.1132812,6.90039062 C13.1132812,7.84570785 12.8593775,8.61913762 12.3515625,9.22070312 C11.8437475,9.82226863 11.1523481,10.1230469 10.2773438,10.1230469 C9.40233938,10.1230469 8.70996349,9.82129208 8.20019531,9.21777344 C7.69042714,8.61425479 7.43554688,7.84180158 7.43554688,6.90039062 L7.43554688,6.77148438 Z M8.58984375,6.90039062 C8.58984375,7.57226898 8.7314439,8.12695094 9.01464844,8.56445312 C9.29785298,9.00195531 9.71874721,9.22070312 10.2773438,9.22070312 C10.8281278,9.22070312 11.2460923,9.00195531 11.53125,8.56445312 C11.8164077,8.12695094 11.9589844,7.57226898 11.9589844,6.90039062 L11.9589844,6.77148438 C11.9589844,6.10741855 11.8154311,5.55468971 11.5283203,5.11328125 C11.2412095,4.67187279 10.8203153,4.45117188 10.265625,4.45117188 C9.714841,4.45117188 9.29785298,4.67187279 9.01464844,5.11328125 C8.7314439,5.55468971 8.58984375,6.10741855 8.58984375,6.77148438 L8.58984375,6.90039062 Z M15.5566406,3.66015625 L15.6386719,4.60351562 C15.8496104,4.26757645 16.1142562,4.00683687 16.4326172,3.82128906 C16.7509782,3.63574126 17.1132792,3.54296875 17.5195312,3.54296875 C18.2031284,3.54296875 18.73242,3.74316206 19.1074219,4.14355469 C19.4824237,4.54394731 19.6699219,5.1621052 19.6699219,5.99804688 L19.6699219,10 L18.515625,10 L18.515625,6.02148438 C18.515625,5.46288783 18.4052745,5.06640742 18.1845703,4.83203125 C17.9638661,4.59765508 17.6269554,4.48046875 17.1738281,4.48046875 C16.8417952,4.48046875 16.5478528,4.56054607 16.2919922,4.72070312 C16.0361315,4.88086018 15.832032,5.09960799 15.6796875,5.37695312 L15.6796875,10 L14.5253906,10 L14.5253906,3.66015625 L15.5566406,3.66015625 Z M22.8691406,2.13085938 L22.8691406,3.66015625 L24.0703125,3.66015625 L24.0703125,4.515625 L22.8691406,4.515625 L22.8691406,8.36523438 C22.8691406,8.66211086 22.9306634,8.87109314 23.0537109,8.9921875 C23.1767584,9.11328186 23.3398427,9.17382812 23.5429688,9.17382812 C23.6093753,9.17382812 23.6826168,9.1660157 23.7626953,9.15039062 C23.8427738,9.13476555 23.9140622,9.11523449 23.9765625,9.09179688 L24.1289062,9.8828125 C24.0429683,9.95312535 23.916993,10.010742 23.7509766,10.0556641 C23.5849601,10.1005862 23.4179696,10.1230469 23.25,10.1230469 C22.7812477,10.1230469 22.4082045,9.98144673 22.1308594,9.69824219 C21.8535142,9.41503765 21.7148438,8.97070615 21.7148438,8.36523438 L21.7148438,4.515625 L20.7070312,4.515625 L20.7070312,3.66015625 L21.7148438,3.66015625 L21.7148438,2.13085938 L22.8691406,2.13085938 Z M26.7539062,10 L25.5996094,10 L25.5996094,8.81640625 L26.7539062,8.81640625 L26.7539062,10 Z M26.7539062,4.8671875 L25.5996094,4.8671875 L25.5996094,3.68359375 L26.7539062,3.68359375 L26.7539062,4.8671875 Z M32.8769531,6.30273438 L32.8769531,10 L31.7226562,10 L31.7226562,1.47460938 L34.8105469,1.47460938 C35.7441453,1.47460938 36.4570288,1.68163855 36.9492188,2.09570312 C37.4414087,2.5097677 37.6875,3.11132418 37.6875,3.90039062 C37.6875,4.33789281 37.5732433,4.71874838 37.3447266,5.04296875 C37.1162098,5.36718912 36.7832053,5.62499904 36.3457031,5.81640625 C36.8144555,5.96875076 37.1513662,6.2158186 37.3564453,6.55761719 C37.5615245,6.89941577 37.6640625,7.32226311 37.6640625,7.82617188 L37.6640625,8.62890625 C37.6640625,8.89453258 37.6933591,9.13281145 37.7519531,9.34375 C37.8105472,9.55468855 37.9121087,9.72656184 38.0566406,9.859375 L38.0566406,10 L36.8671875,10 C36.714843,9.86718684 36.6171877,9.67187629 36.5742188,9.4140625 C36.5312498,9.15624871 36.5097656,8.89062637 36.5097656,8.6171875 L36.5097656,7.83789062 C36.5097656,7.37695082 36.3750013,7.00586078 36.1054688,6.72460938 C35.8359362,6.44335797 35.4746116,6.30273438 35.0214844,6.30273438 L32.8769531,6.30273438 Z M32.8769531,5.39453125 L34.6933594,5.39453125 C35.3457064,5.39453125 35.8154283,5.27050905 36.1025391,5.02246094 C36.3896499,4.77441282 36.5332031,4.39648691 36.5332031,3.88867188 C36.5332031,3.40820072 36.3935561,3.03613413 36.1142578,2.77246094 C35.8349595,2.50878774 35.4003936,2.37695312 34.8105469,2.37695312 L32.8769531,2.37695312 L32.8769531,5.39453125 Z M39.1875,6.77148438 C39.1875,5.83397969 39.4414037,5.06152647 39.9492188,4.45410156 C40.4570338,3.84667665 41.14648,3.54296875 42.0175781,3.54296875 C42.8964888,3.54296875 43.5908178,3.8457001 44.1005859,4.45117188 C44.6103541,5.05664365 44.8652344,5.83007342 44.8652344,6.77148438 L44.8652344,6.90039062 C44.8652344,7.84570785 44.6113307,8.61913762 44.1035156,9.22070312 C43.5957006,9.82226863 42.9043013,10.1230469 42.0292969,10.1230469 C41.1542925,10.1230469 40.4619166,9.82129208 39.9521484,9.21777344 C39.4423803,8.61425479 39.1875,7.84180158 39.1875,6.90039062 L39.1875,6.77148438 Z M40.3417969,6.90039062 C40.3417969,7.57226898 40.483397,8.12695094 40.7666016,8.56445312 C41.0498061,9.00195531 41.4707003,9.22070312 42.0292969,9.22070312 C42.5800809,9.22070312 42.9980454,9.00195531 43.2832031,8.56445312 C43.5683608,8.12695094 43.7109375,7.57226898 43.7109375,6.90039062 L43.7109375,6.77148438 C43.7109375,6.10741855 43.5673842,5.55468971 43.2802734,5.11328125 C42.9931626,4.67187279 42.5722684,4.45117188 42.0175781,4.45117188 C41.4667941,4.45117188 41.0498061,4.67187279 40.7666016,5.11328125 C40.483397,5.55468971 40.3417969,6.10741855 40.3417969,6.77148438 L40.3417969,6.90039062 Z M51.6914062,7.0703125 C51.6914062,7.98437957 51.4716819,8.72167688 51.0322266,9.28222656 C50.5927712,9.84277624 49.9882851,10.1230469 49.21875,10.1230469 C48.8007792,10.1230469 48.4375015,10.041993 48.1289062,9.87988281 C47.820311,9.71777263 47.5644541,9.47851721 47.3613281,9.16210938 L47.2207031,10 L46.2773438,10 L46.2773438,0.859375 L47.4316406,0.859375 L47.4316406,4.41015625 C47.6308604,4.12890484 47.8779282,3.91406324 48.1728516,3.765625 C48.4677749,3.61718676 48.812498,3.54296875 49.2070312,3.54296875 C49.9882852,3.54296875 50.5976541,3.85546563 51.0351562,4.48046875 C51.4726584,5.10547187 51.6914062,5.92772928 51.6914062,6.94726562 L51.6914062,7.0703125 Z M50.5371094,6.94726562 C50.5371094,6.22069949 50.4033217,5.62793198 50.1357422,5.16894531 C49.8681627,4.70995864 49.4609402,4.48046875 48.9140625,4.48046875 C48.558592,4.48046875 48.2587903,4.56738194 48.0146484,4.74121094 C47.7705066,4.91503993 47.5761726,5.14843604 47.4316406,5.44140625 L47.4316406,8.18945312 C47.5800789,8.50195469 47.7744129,8.74609287 48.0146484,8.921875 C48.254884,9.09765713 48.5585919,9.18554688 48.9257812,9.18554688 C49.4687527,9.18554688 49.8730455,8.99218943 50.1386719,8.60546875 C50.4042982,8.21874807 50.5371094,7.70703443 50.5371094,7.0703125 L50.5371094,6.94726562 Z M52.828125,6.77148438 C52.828125,5.83397969 53.0820287,5.06152647 53.5898438,4.45410156 C54.0976588,3.84667665 54.787105,3.54296875 55.6582031,3.54296875 C56.5371138,3.54296875 57.2314428,3.8457001 57.7412109,4.45117188 C58.2509791,5.05664365 58.5058594,5.83007342 58.5058594,6.77148438 L58.5058594,6.90039062 C58.5058594,7.84570785 58.2519557,8.61913762 57.7441406,9.22070312 C57.2363256,9.82226863 56.5449263,10.1230469 55.6699219,10.1230469 C54.7949175,10.1230469 54.1025416,9.82129208 53.5927734,9.21777344 C53.0830053,8.61425479 52.828125,7.84180158 52.828125,6.90039062 L52.828125,6.77148438 Z M53.9824219,6.90039062 C53.9824219,7.57226898 54.124022,8.12695094 54.4072266,8.56445312 C54.6904311,9.00195531 55.1113253,9.22070312 55.6699219,9.22070312 C56.2207059,9.22070312 56.6386704,9.00195531 56.9238281,8.56445312 C57.2089858,8.12695094 57.3515625,7.57226898 57.3515625,6.90039062 L57.3515625,6.77148438 C57.3515625,6.10741855 57.2080092,5.55468971 56.9208984,5.11328125 C56.6337876,4.67187279 56.2128934,4.45117188 55.6582031,4.45117188 C55.1074191,4.45117188 54.6904311,4.67187279 54.4072266,5.11328125 C54.124022,5.55468971 53.9824219,6.10741855 53.9824219,6.77148438 L53.9824219,6.90039062 Z M61.4414062,2.13085938 L61.4414062,3.66015625 L62.6425781,3.66015625 L62.6425781,4.515625 L61.4414062,4.515625 L61.4414062,8.36523438 C61.4414062,8.66211086 61.5029291,8.87109314 61.6259766,8.9921875 C61.7490241,9.11328186 61.9121084,9.17382812 62.1152344,9.17382812 C62.181641,9.17382812 62.2548824,9.1660157 62.3349609,9.15039062 C62.4150395,9.13476555 62.4863278,9.11523449 62.5488281,9.09179688 L62.7011719,9.8828125 C62.6152339,9.95312535 62.4892586,10.010742 62.3232422,10.0556641 C62.1572257,10.1005862 61.9902352,10.1230469 61.8222656,10.1230469 C61.3535133,10.1230469 60.9804701,9.98144673 60.703125,9.69824219 C60.4257799,9.41503765 60.2871094,8.97070615 60.2871094,8.36523438 L60.2871094,4.515625 L59.2792969,4.515625 L59.2792969,3.66015625 L60.2871094,3.66015625 L60.2871094,2.13085938 L61.4414062,2.13085938 Z M63.796875,6.77148438 C63.796875,5.83397969 64.0507787,5.06152647 64.5585937,4.45410156 C65.0664088,3.84667665 65.755855,3.54296875 66.6269531,3.54296875 C67.5058638,3.54296875 68.2001928,3.8457001 68.7099609,4.45117188 C69.2197291,5.05664365 69.4746094,5.83007342 69.4746094,6.77148438 L69.4746094,6.90039062 C69.4746094,7.84570785 69.2207057,8.61913762 68.7128906,9.22070312 C68.2050756,9.82226863 67.5136762,10.1230469 66.6386719,10.1230469 C65.7636675,10.1230469 65.0712916,9.82129208 64.5615234,9.21777344 C64.0517553,8.61425479 63.796875,7.84180158 63.796875,6.90039062 L63.796875,6.77148438 Z M64.9511719,6.90039062 C64.9511719,7.57226898 65.092772,8.12695094 65.3759766,8.56445312 C65.6591811,9.00195531 66.0800753,9.22070312 66.6386719,9.22070312 C67.1894559,9.22070312 67.6074204,9.00195531 67.8925781,8.56445312 C68.1777358,8.12695094 68.3203125,7.57226898 68.3203125,6.90039062 L68.3203125,6.77148438 C68.3203125,6.10741855 68.1767592,5.55468971 67.8896484,5.11328125 C67.6025376,4.67187279 67.1816434,4.45117188 66.6269531,4.45117188 C66.0761691,4.45117188 65.6591811,4.67187279 65.3759766,5.11328125 C65.092772,5.55468971 64.9511719,6.10741855 64.9511719,6.77148438 L64.9511719,6.90039062 Z M75.2402344,6.30273438 L75.2402344,10 L74.0859375,10 L74.0859375,1.47460938 L77.1738281,1.47460938 C78.1074265,1.47460938 78.82031,1.68163855 79.3125,2.09570312 C79.80469,2.5097677 80.0507812,3.11132418 80.0507812,3.90039062 C80.0507812,4.33789281 79.9365246,4.71874838 79.7080078,5.04296875 C79.479491,5.36718912 79.1464866,5.62499904 78.7089844,5.81640625 C79.1777367,5.96875076 79.5146474,6.2158186 79.7197266,6.55761719 C79.9248057,6.89941577 80.0273438,7.32226311 80.0273438,7.82617188 L80.0273438,8.62890625 C80.0273438,8.89453258 80.0566403,9.13281145 80.1152344,9.34375 C80.1738284,9.55468855 80.2753899,9.72656184 80.4199219,9.859375 L80.4199219,10 L79.2304688,10 C79.0781242,9.86718684 78.980469,9.67187629 78.9375,9.4140625 C78.894531,9.15624871 78.8730469,8.89062637 78.8730469,8.6171875 L78.8730469,7.83789062 C78.8730469,7.37695082 78.7382826,7.00586078 78.46875,6.72460938 C78.1992174,6.44335797 77.8378929,6.30273438 77.3847656,6.30273438 L75.2402344,6.30273438 Z M75.2402344,5.39453125 L77.0566406,5.39453125 C77.7089876,5.39453125 78.1787095,5.27050905 78.4658203,5.02246094 C78.7529311,4.77441282 78.8964844,4.39648691 78.8964844,3.88867188 C78.8964844,3.40820072 78.7568373,3.03613413 78.4775391,2.77246094 C78.1982408,2.50878774 77.7636748,2.37695312 77.1738281,2.37695312 L75.2402344,2.37695312 L75.2402344,5.39453125 Z M84.4511719,10.1230469 C83.568355,10.1230469 82.8662135,9.8291045 82.3447266,9.24121094 C81.8232396,8.65331737 81.5625,7.89062969 81.5625,6.953125 L81.5625,6.6953125 C81.5625,5.79296424 81.831052,5.04199519 82.3681641,4.44238281 C82.9052761,3.84277044 83.541012,3.54296875 84.2753906,3.54296875 C85.1308637,3.54296875 85.7773416,3.80077867 86.2148438,4.31640625 C86.6523459,4.83203383 86.8710938,5.51952695 86.8710938,6.37890625 L86.8710938,7.09960938 L82.7578125,7.09960938 L82.7402344,7.12890625 C82.7519532,7.7382843 82.9062485,8.23925585 83.203125,8.63183594 C83.5000015,9.02441603 83.9160129,9.22070312 84.4511719,9.22070312 C84.8417988,9.22070312 85.1845688,9.16503962 85.4794922,9.05371094 C85.7744155,8.94238226 86.0292958,8.78906348 86.2441406,8.59375 L86.6953125,9.34375 C86.4687489,9.56640736 86.1699237,9.75195238 85.7988281,9.90039062 C85.4277325,10.0488289 84.9785183,10.1230469 84.4511719,10.1230469 Z M84.2753906,4.45117188 C83.8886699,4.45117188 83.5585951,4.61425618 83.2851562,4.94042969 C83.0117174,5.26660319 82.8437503,5.67577879 82.78125,6.16796875 L82.7929688,6.19726562 L85.7167969,6.19726562 L85.7167969,6.04492188 C85.7167969,5.59179461 85.5957043,5.21289215 85.3535156,4.90820312 C85.1113269,4.6035141 84.7519555,4.45117188 84.2753906,4.45117188 Z M87.9140625,6.94726562 C87.9140625,5.92772928 88.1367165,5.10547187 88.5820312,4.48046875 C89.027346,3.85546563 89.6425742,3.54296875 90.4277344,3.54296875 C90.8300801,3.54296875 91.1835922,3.62402263 91.4882812,3.78613281 C91.7929703,3.948243 92.046874,4.1816391 92.25,4.48632812 L92.390625,3.66015625 L93.3105469,3.66015625 L93.3105469,10.0351562 C93.3105469,10.8476603 93.0742211,11.4716775 92.6015625,11.9072266 C92.1289039,12.3427756 91.4472701,12.5605469 90.5566406,12.5605469 C90.2519516,12.5605469 89.9228533,12.5185551 89.5693359,12.4345703 C89.2158185,12.3505855 88.9042982,12.2363288 88.6347656,12.0917969 L88.9277344,11.1953125 C89.1347667,11.3125006 89.3847642,11.4072262 89.6777344,11.4794922 C89.9707046,11.5517582 90.2597642,11.5878906 90.5449219,11.5878906 C91.1074247,11.5878906 91.5166003,11.4599622 91.7724609,11.2041016 C92.0283216,10.9482409 92.15625,10.5585964 92.15625,10.0351562 L92.15625,9.3203125 C91.9492177,9.58593883 91.7011733,9.78613214 91.4121094,9.92089844 C91.1230454,10.0556647 90.7910175,10.1230469 90.4160156,10.1230469 C89.638668,10.1230469 89.027346,9.84179969 88.5820312,9.27929688 C88.1367165,8.71679406 87.9140625,7.9804733 87.9140625,7.0703125 L87.9140625,6.94726562 Z M89.0683594,7.0703125 C89.0683594,7.70703443 89.2031237,8.21874807 89.4726562,8.60546875 C89.7421888,8.99218943 90.152341,9.18554688 90.703125,9.18554688 C91.050783,9.18554688 91.3417957,9.1064461 91.5761719,8.94824219 C91.810548,8.79003827 92.0039055,8.5664077 92.15625,8.27734375 L92.15625,5.359375 C92.0078118,5.0898424 91.8144543,4.87597735 91.5761719,4.71777344 C91.3378894,4.55956952 91.0507829,4.48046875 90.7148438,4.48046875 C90.1640597,4.48046875 89.7519545,4.7109352 89.4785156,5.171875 C89.2050768,5.6328148 89.0683594,6.22460576 89.0683594,6.94726562 L89.0683594,7.0703125 Z M99.0117188,9.0625 C98.812499,9.40234545 98.5566422,9.66406158 98.2441406,9.84765625 C97.9316391,10.0312509 97.5703146,10.1230469 97.1601562,10.1230469 C96.4687465,10.1230469 95.9296894,9.90234596 95.5429688,9.4609375 C95.1562481,9.01952904 94.9628906,8.33203592 94.9628906,7.3984375 L94.9628906,3.66015625 L96.1171875,3.66015625 L96.1171875,7.41015625 C96.1171875,8.08594088 96.2167959,8.55077998 96.4160156,8.8046875 C96.6152354,9.05859502 96.9257791,9.18554688 97.3476562,9.18554688 C97.7578146,9.18554688 98.0966783,9.10253989 98.3642578,8.93652344 C98.6318373,8.77050698 98.8339837,8.53515777 98.9707031,8.23046875 L98.9707031,3.66015625 L100.125,3.66015625 L100.125,10 L99.0878906,10 L99.0117188,9.0625 Z M103.054688,10 L101.900391,10 L101.900391,0.859375 L103.054688,0.859375 L103.054688,10 Z M108.726562,10 C108.6875,9.80859279 108.657227,9.63964917 108.635742,9.49316406 C108.614258,9.34667896 108.601563,9.19921949 108.597656,9.05078125 C108.382811,9.35547027 108.102541,9.61035054 107.756836,9.81542969 C107.411131,10.0205088 107.039064,10.1230469 106.640625,10.1230469 C105.980465,10.1230469 105.477541,9.95410325 105.131836,9.61621094 C104.786131,9.27831862 104.613281,8.81250297 104.613281,8.21875 C104.613281,7.61327822 104.858396,7.13965015 105.348633,6.79785156 C105.83887,6.45605298 106.503902,6.28515625 107.34375,6.28515625 L108.597656,6.28515625 L108.597656,5.65820312 C108.597656,5.28710752 108.484376,4.99316515 108.257812,4.77636719 C108.031249,4.55956923 107.71094,4.45117188 107.296875,4.45117188 C106.925779,4.45117188 106.624025,4.54589749 106.391602,4.73535156 C106.159179,4.92480563 106.042969,5.15234242 106.042969,5.41796875 L104.941406,5.41796875 L104.929688,5.3828125 C104.90625,4.9218727 105.124021,4.50000191 105.583008,4.1171875 C106.041994,3.73437309 106.634762,3.54296875 107.361328,3.54296875 C108.080082,3.54296875 108.658201,3.72558411 109.095703,4.09082031 C109.533205,4.45605651 109.751953,4.98241844 109.751953,5.66992188 L109.751953,8.72265625 C109.751953,8.94921988 109.763672,9.1679677 109.787109,9.37890625 C109.810547,9.5898448 109.853515,9.79687398 109.916016,10 L108.726562,10 Z M106.810547,9.15625 C107.228518,9.15625 107.605467,9.0488292 107.941406,8.83398438 C108.277345,8.61913955 108.496093,8.37304826 108.597656,8.09570312 L108.597656,7.06445312 L107.302734,7.06445312 C106.837888,7.06445312 106.465822,7.18163945 106.186523,7.41601562 C105.907225,7.6503918 105.767578,7.92577967 105.767578,8.2421875 C105.767578,8.52343891 105.855468,8.74609293 106.03125,8.91015625 C106.207032,9.07421957 106.466795,9.15625 106.810547,9.15625 Z M114.427734,4.6796875 L113.835938,4.64453125 C113.531248,4.64453125 113.274415,4.71679615 113.06543,4.86132812 C112.856444,5.0058601 112.695313,5.20898307 112.582031,5.47070312 L112.582031,10 L111.427734,10 L111.427734,3.66015625 L112.458984,3.66015625 L112.570312,4.5859375 C112.750001,4.25781086 112.971678,4.00195404 113.235352,3.81835938 C113.499025,3.63476471 113.802733,3.54296875 114.146484,3.54296875 C114.232422,3.54296875 114.314453,3.54980462 114.392578,3.56347656 C114.470704,3.57714851 114.535156,3.5917968 114.585938,3.60742188 L114.427734,4.6796875 Z M115.541016,9.71875 L114.662109,11.5117188 L113.976562,11.5117188 L114.386719,9.66015625 L114.386719,8.70507812 L115.541016,8.70507812 L115.541016,9.71875 Z M123.035156,10 L121.880859,10 L121.880859,2.59375 L120.134766,2.6171875 L120.134766,1.78515625 L123.035156,1.46875 L123.035156,10 Z M132.023438,10 L126.492188,10 L126.492188,9.20898438 L129.287109,6.10351562 C129.787112,5.54491908 130.125976,5.10156414 130.303711,4.7734375 C130.481446,4.44531086 130.570312,4.10937672 130.570312,3.765625 C130.570312,3.33984162 130.44629,2.98144677 130.198242,2.69042969 C129.950194,2.39941261 129.621096,2.25390625 129.210938,2.25390625 C128.621091,2.25390625 128.186525,2.40527192 127.907227,2.70800781 C127.627928,3.0107437 127.488281,3.43554414 127.488281,3.98242188 L126.380859,3.98242188 L126.369141,3.94726562 C126.349609,3.21288695 126.593747,2.59570562 127.101563,2.09570312 C127.609378,1.59570062 128.312496,1.34570312 129.210938,1.34570312 C129.976566,1.34570312 130.586912,1.5693337 131.041992,2.01660156 C131.497073,2.46386942 131.724609,3.03319967 131.724609,3.72460938 C131.724609,4.18945545 131.586915,4.6552711 131.311523,5.12207031 C131.036131,5.58886952 130.650393,6.08984107 130.154297,6.625 L127.910156,9.06835938 L127.921875,9.09765625 L132.023438,9.09765625 L132.023438,10 Z M138.796875,7.0703125 C138.796875,7.98437957 138.578127,8.72167688 138.140625,9.28222656 C137.703123,9.84277624 137.099613,10.1230469 136.330078,10.1230469 C135.939451,10.1230469 135.596681,10.0576178 135.301758,9.92675781 C135.006834,9.79589778 134.75586,9.59961068 134.548828,9.33789062 L134.548828,12.4375 L133.394531,12.4375 L133.394531,3.66015625 L134.279297,3.66015625 L134.460938,4.48046875 C134.66797,4.17577973 134.92578,3.94336018 135.234375,3.78320312 C135.54297,3.62304607 135.902342,3.54296875 136.3125,3.54296875 C137.09766,3.54296875 137.708006,3.85448907 138.143555,4.47753906 C138.579104,5.10058905 138.796875,5.92382301 138.796875,6.94726562 L138.796875,7.0703125 Z M137.642578,6.94726562 C137.642578,6.22851203 137.500978,5.63769763 137.217773,5.17480469 C136.934569,4.71191175 136.517581,4.48046875 135.966797,4.48046875 C135.634764,4.48046875 135.351564,4.55566331 135.117188,4.70605469 C134.882811,4.85644606 134.69336,5.06249869 134.548828,5.32421875 L134.548828,8.38867188 C134.69336,8.65039193 134.882811,8.85449146 135.117188,9.00097656 C135.351564,9.14746167 135.63867,9.22070312 135.978516,9.22070312 C136.525393,9.22070312 136.939452,9.02050981 137.220703,8.62011719 C137.501955,8.21972456 137.642578,7.70312816 137.642578,7.0703125 L137.642578,6.94726562 Z M142.277344,5.99804688 L143.625,3.66015625 L144.972656,3.66015625 L142.916016,6.79492188 L145.03125,10 L143.707031,10 L142.300781,7.60351562 L140.894531,10 L139.558594,10 L141.673828,6.79492188 L139.617188,3.66015625 L140.947266,3.66015625 L142.277344,5.99804688 Z"></path>
                <path d="M7.08398438,25.2695312 L7.09570312,25.3046875 C7.1113282,26.1054728 6.83008102,26.7753879 6.25195312,27.3144531 C5.67382523,27.8535183 4.910161,28.1230469 3.9609375,28.1230469 C2.99608893,28.1230469 2.20996397,27.7812534 1.60253906,27.0976562 C0.99511415,26.4140591 0.69140625,25.5468803 0.69140625,24.4960938 L0.69140625,22.9785156 C0.69140625,21.9277291 0.99511415,21.0595737 1.60253906,20.3740234 C2.20996397,19.6884731 2.99608893,19.3457031 3.9609375,19.3457031 C4.92578607,19.3457031 5.69335652,19.6025365 6.26367188,20.1162109 C6.83398723,20.6298854 7.1113282,21.3105426 7.09570312,22.1582031 L7.08398438,22.1933594 L5.9765625,22.1933594 C5.9765625,21.5957001 5.80078301,21.1230486 5.44921875,20.7753906 C5.09765449,20.4277326 4.6015657,20.2539062 3.9609375,20.2539062 C3.31640303,20.2539062 2.80273629,20.5136693 2.41992188,21.0332031 C2.03710746,21.552737 1.84570312,22.1972618 1.84570312,22.9667969 L1.84570312,24.4960938 C1.84570312,25.2734414 2.03710746,25.9218724 2.41992188,26.4414062 C2.80273629,26.9609401 3.31640303,27.2207031 3.9609375,27.2207031 C4.6015657,27.2207031 5.09765449,27.0478533 5.44921875,26.7021484 C5.80078301,26.3564436 5.9765625,25.8789093 5.9765625,25.2695312 L7.08398438,25.2695312 Z M8.16796875,24.7714844 C8.16796875,23.8339797 8.42187246,23.0615265 8.9296875,22.4541016 C9.43750254,21.8466767 10.1269488,21.5429688 10.9980469,21.5429688 C11.8769575,21.5429688 12.5712865,21.8457001 13.0810547,22.4511719 C13.5908229,23.0566437 13.8457031,23.8300734 13.8457031,24.7714844 L13.8457031,24.9003906 C13.8457031,25.8457079 13.5917994,26.6191376 13.0839844,27.2207031 C12.5761693,27.8222686 11.88477,28.1230469 11.0097656,28.1230469 C10.1347613,28.1230469 9.44238536,27.8212921 8.93261719,27.2177734 C8.42284901,26.6142548 8.16796875,25.8418016 8.16796875,24.9003906 L8.16796875,24.7714844 Z M9.32226562,24.9003906 C9.32226562,25.572269 9.46386577,26.1269509 9.74707031,26.5644531 C10.0302749,27.0019553 10.4511691,27.2207031 11.0097656,27.2207031 C11.5605496,27.2207031 11.9785142,27.0019553 12.2636719,26.5644531 C12.5488296,26.1269509 12.6914062,25.572269 12.6914062,24.9003906 L12.6914062,24.7714844 C12.6914062,24.1074186 12.547853,23.5546897 12.2607422,23.1132812 C11.9736314,22.6718728 11.5527371,22.4511719 10.9980469,22.4511719 C10.4472629,22.4511719 10.0302749,22.6718728 9.74707031,23.1132812 C9.46386577,23.5546897 9.32226562,24.1074186 9.32226562,24.7714844 L9.32226562,24.9003906 Z M16.5058594,28 L15.3515625,28 L15.3515625,18.859375 L16.5058594,18.859375 L16.5058594,28 Z M18.0117188,24.7714844 C18.0117188,23.8339797 18.2656225,23.0615265 18.7734375,22.4541016 C19.2812525,21.8466767 19.9706988,21.5429688 20.8417969,21.5429688 C21.7207075,21.5429688 22.4150365,21.8457001 22.9248047,22.4511719 C23.4345729,23.0566437 23.6894531,23.8300734 23.6894531,24.7714844 L23.6894531,24.9003906 C23.6894531,25.8457079 23.4355494,26.6191376 22.9277344,27.2207031 C22.4199193,27.8222686 21.72852,28.1230469 20.8535156,28.1230469 C19.9785113,28.1230469 19.2861354,27.8212921 18.7763672,27.2177734 C18.266599,26.6142548 18.0117188,25.8418016 18.0117188,24.9003906 L18.0117188,24.7714844 Z M19.1660156,24.9003906 C19.1660156,25.572269 19.3076158,26.1269509 19.5908203,26.5644531 C19.8740249,27.0019553 20.2949191,27.2207031 20.8535156,27.2207031 C21.4042996,27.2207031 21.8222642,27.0019553 22.1074219,26.5644531 C22.3925796,26.1269509 22.5351562,25.572269 22.5351562,24.9003906 L22.5351562,24.7714844 C22.5351562,24.1074186 22.391603,23.5546897 22.1044922,23.1132812 C21.8173814,22.6718728 21.3964871,22.4511719 20.8417969,22.4511719 C20.2910129,22.4511719 19.8740249,22.6718728 19.5908203,23.1132812 C19.3076158,23.5546897 19.1660156,24.1074186 19.1660156,24.7714844 L19.1660156,24.9003906 Z M28.1015625,22.6796875 L27.5097656,22.6445312 C27.2050766,22.6445312 26.9482432,22.7167962 26.7392578,22.8613281 C26.5302724,23.0058601 26.3691412,23.2089831 26.2558594,23.4707031 L26.2558594,28 L25.1015625,28 L25.1015625,21.6601562 L26.1328125,21.6601562 L26.2441406,22.5859375 C26.423829,22.2578109 26.6455065,22.001954 26.9091797,21.8183594 C27.1728529,21.6347647 27.4765608,21.5429688 27.8203125,21.5429688 C27.9062504,21.5429688 27.9882809,21.5498046 28.0664062,21.5634766 C28.1445316,21.5771485 28.2089841,21.5917968 28.2597656,21.6074219 L28.1015625,22.6796875 Z M29.4667969,28 L28.3125,28 L28.3125,26.8164062 L29.4667969,26.8164062 L29.4667969,28 Z M29.4667969,22.8671875 L28.3125,22.8671875 L28.3125,21.6835938 L29.4667969,21.6835938 L29.4667969,22.8671875 Z M37.5527344,25.5976562 L36.0585938,25.5976562 L35.5898438,28 L34.7050781,28 L35.1738281,25.5976562 L33.7910156,25.5976562 L33.7910156,24.7773438 L35.3378906,24.7773438 L35.7363281,22.7382812 L34.2363281,22.7382812 L34.2363281,21.90625 L35.9003906,21.90625 L36.3808594,19.46875 L37.265625,19.46875 L36.7851562,21.90625 L38.2792969,21.90625 L38.7597656,19.46875 L39.6445312,19.46875 L39.1640625,21.90625 L40.3300781,21.90625 L40.3300781,22.7382812 L39.0058594,22.7382812 L38.6074219,24.7773438 L39.890625,24.7773438 L39.890625,25.5976562 L38.4433594,25.5976562 L37.9746094,28 L37.0839844,28 L37.5527344,25.5976562 Z M36.2226562,24.7773438 L37.7167969,24.7773438 L38.1152344,22.7382812 L36.6210938,22.7382812 L36.2226562,24.7773438 Z M44.8125,19.3457031 C45.1054702,19.3457031 45.3955064,19.3789059 45.6826172,19.4453125 C45.969728,19.5117191 46.2070303,19.5957026 46.3945312,19.6972656 L46.1484375,20.5820312 C45.9570303,20.4843745 45.756837,20.4052737 45.5478516,20.3447266 C45.3388661,20.2841794 45.0937514,20.2539062 44.8125,20.2539062 C44.203122,20.2539062 43.7119159,20.4980444 43.3388672,20.9863281 C42.9658184,21.4746118 42.7792969,22.1113242 42.7792969,22.8964844 L42.7792969,23.03125 C43.0292981,22.8124989 43.3154281,22.6416022 43.6376953,22.5185547 C43.9599625,22.3955072 44.3066388,22.3339844 44.6777344,22.3339844 C45.4394569,22.3339844 46.0468727,22.5976536 46.5,23.125 C46.9531273,23.6523464 47.1796875,24.3203085 47.1796875,25.1289062 C47.1796875,26.0117232 46.938479,26.7314425 46.4560547,27.2880859 C45.9736304,27.8447293 45.3300821,28.1230469 44.5253906,28.1230469 C43.6894489,28.1230469 42.9980496,27.8203155 42.4511719,27.2148438 C41.9042941,26.609372 41.6308594,25.7558649 41.6308594,24.6542969 L41.6308594,23.0253906 C41.6308594,21.9316352 41.9355438,21.0449253 42.5449219,20.3652344 C43.1542999,19.6855435 43.9101517,19.3457031 44.8125,19.3457031 Z M44.4199219,23.1953125 C44.0253887,23.1953125 43.6894545,23.2753898 43.4121094,23.4355469 C43.1347642,23.5957039 42.9238288,23.8085924 42.7792969,24.0742188 L42.7792969,24.765625 C42.7792969,25.5507852 42.9453108,26.1562479 43.2773438,26.5820312 C43.6093767,27.0078146 44.0253881,27.2207031 44.5253906,27.2207031 C44.9980492,27.2207031 45.3662096,27.0205098 45.6298828,26.6201172 C45.893556,26.2197246 46.0253906,25.7226592 46.0253906,25.1289062 C46.0253906,24.5664034 45.8837905,24.1035174 45.6005859,23.7402344 C45.3173814,23.3769513 44.9238306,23.1953125 44.4199219,23.1953125 Z M53.8652344,25.0703125 C53.8652344,25.9843796 53.64551,26.7216769 53.2060547,27.2822266 C52.7665994,27.8427762 52.1621132,28.1230469 51.3925781,28.1230469 C50.9746073,28.1230469 50.6113297,28.041993 50.3027344,27.8798828 C49.9941391,27.7177726 49.7382823,27.4785172 49.5351562,27.1621094 L49.3945312,28 L48.4511719,28 L48.4511719,18.859375 L49.6054688,18.859375 L49.6054688,22.4101562 C49.8046885,22.1289048 50.0517563,21.9140632 50.3466797,21.765625 C50.641603,21.6171868 50.9863262,21.5429688 51.3808594,21.5429688 C52.1621133,21.5429688 52.7714822,21.8554656 53.2089844,22.4804688 C53.6464866,23.1054719 53.8652344,23.9277293 53.8652344,24.9472656 L53.8652344,25.0703125 Z M52.7109375,24.9472656 C52.7109375,24.2206995 52.5771498,23.627932 52.3095703,23.1689453 C52.0419908,22.7099586 51.6347684,22.4804688 51.0878906,22.4804688 C50.7324201,22.4804688 50.4326184,22.5673819 50.1884766,22.7412109 C49.9443347,22.9150399 49.7500007,23.148436 49.6054688,23.4414062 L49.6054688,26.1894531 C49.753907,26.5019547 49.948241,26.7460929 50.1884766,26.921875 C50.4287121,27.0976571 50.73242,27.1855469 51.0996094,27.1855469 C51.6425808,27.1855469 52.0468737,26.9921894 52.3125,26.6054688 C52.5781263,26.2187481 52.7109375,25.7070344 52.7109375,25.0703125 L52.7109375,24.9472656 Z M58.3886719,19.3457031 C58.6816421,19.3457031 58.9716783,19.3789059 59.2587891,19.4453125 C59.5458999,19.5117191 59.7832022,19.5957026 59.9707031,19.6972656 L59.7246094,20.5820312 C59.5332022,20.4843745 59.3330089,20.4052737 59.1240234,20.3447266 C58.915038,20.2841794 58.6699233,20.2539062 58.3886719,20.2539062 C57.7792938,20.2539062 57.2880878,20.4980444 56.9150391,20.9863281 C56.5419903,21.4746118 56.3554688,22.1113242 56.3554688,22.8964844 L56.3554688,23.03125 C56.60547,22.8124989 56.8916,22.6416022 57.2138672,22.5185547 C57.5361344,22.3955072 57.8828106,22.3339844 58.2539062,22.3339844 C59.0156288,22.3339844 59.6230446,22.5976536 60.0761719,23.125 C60.5292991,23.6523464 60.7558594,24.3203085 60.7558594,25.1289062 C60.7558594,26.0117232 60.5146508,26.7314425 60.0322266,27.2880859 C59.5498023,27.8447293 58.906254,28.1230469 58.1015625,28.1230469 C57.2656208,28.1230469 56.5742215,27.8203155 56.0273438,27.2148438 C55.480466,26.609372 55.2070312,25.7558649 55.2070312,24.6542969 L55.2070312,23.0253906 C55.2070312,21.9316352 55.5117157,21.0449253 56.1210938,20.3652344 C56.7304718,19.6855435 57.4863236,19.3457031 58.3886719,19.3457031 Z M57.9960938,23.1953125 C57.6015605,23.1953125 57.2656264,23.2753898 56.9882812,23.4355469 C56.7109361,23.5957039 56.5000007,23.8085924 56.3554688,24.0742188 L56.3554688,24.765625 C56.3554688,25.5507852 56.5214827,26.1562479 56.8535156,26.5820312 C57.1855485,27.0078146 57.60156,27.2207031 58.1015625,27.2207031 C58.5742211,27.2207031 58.9423815,27.0205098 59.2060547,26.6201172 C59.4697279,26.2197246 59.6015625,25.7226592 59.6015625,25.1289062 C59.6015625,24.5664034 59.4599624,24.1035174 59.1767578,23.7402344 C58.8935533,23.3769513 58.5000025,23.1953125 57.9960938,23.1953125 Z M67.4414062,25.0703125 C67.4414062,25.9843796 67.2216819,26.7216769 66.7822266,27.2822266 C66.3427712,27.8427762 65.7382851,28.1230469 64.96875,28.1230469 C64.5507792,28.1230469 64.1875015,28.041993 63.8789062,27.8798828 C63.570311,27.7177726 63.3144541,27.4785172 63.1113281,27.1621094 L62.9707031,28 L62.0273438,28 L62.0273438,18.859375 L63.1816406,18.859375 L63.1816406,22.4101562 C63.3808604,22.1289048 63.6279282,21.9140632 63.9228516,21.765625 C64.2177749,21.6171868 64.562498,21.5429688 64.9570312,21.5429688 C65.7382852,21.5429688 66.3476541,21.8554656 66.7851562,22.4804688 C67.2226584,23.1054719 67.4414062,23.9277293 67.4414062,24.9472656 L67.4414062,25.0703125 Z M66.2871094,24.9472656 C66.2871094,24.2206995 66.1533217,23.627932 65.8857422,23.1689453 C65.6181627,22.7099586 65.2109402,22.4804688 64.6640625,22.4804688 C64.308592,22.4804688 64.0087903,22.5673819 63.7646484,22.7412109 C63.5205066,22.9150399 63.3261726,23.148436 63.1816406,23.4414062 L63.1816406,26.1894531 C63.3300789,26.5019547 63.5244129,26.7460929 63.7646484,26.921875 C64.004884,27.0976571 64.3085919,27.1855469 64.6757812,27.1855469 C65.2187527,27.1855469 65.6230455,26.9921894 65.8886719,26.6054688 C66.1542982,26.2187481 66.2871094,25.7070344 66.2871094,25.0703125 L66.2871094,24.9472656 Z M71.9648438,19.3457031 C72.257814,19.3457031 72.5478501,19.3789059 72.8349609,19.4453125 C73.1220717,19.5117191 73.3593741,19.5957026 73.546875,19.6972656 L73.3007812,20.5820312 C73.109374,20.4843745 72.9091807,20.4052737 72.7001953,20.3447266 C72.4912099,20.2841794 72.2460952,20.2539062 71.9648438,20.2539062 C71.3554657,20.2539062 70.8642597,20.4980444 70.4912109,20.9863281 C70.1181622,21.4746118 69.9316406,22.1113242 69.9316406,22.8964844 L69.9316406,23.03125 C70.1816419,22.8124989 70.4677718,22.6416022 70.7900391,22.5185547 C71.1123063,22.3955072 71.4589825,22.3339844 71.8300781,22.3339844 C72.5918007,22.3339844 73.1992165,22.5976536 73.6523438,23.125 C74.105471,23.6523464 74.3320312,24.3203085 74.3320312,25.1289062 C74.3320312,26.0117232 74.0908227,26.7314425 73.6083984,27.2880859 C73.1259742,27.8447293 72.4824259,28.1230469 71.6777344,28.1230469 C70.8417927,28.1230469 70.1503934,27.8203155 69.6035156,27.2148438 C69.0566379,26.609372 68.7832031,25.7558649 68.7832031,24.6542969 L68.7832031,23.0253906 C68.7832031,21.9316352 69.0878876,21.0449253 69.6972656,20.3652344 C70.3066437,19.6855435 71.0624955,19.3457031 71.9648438,19.3457031 Z M71.5722656,23.1953125 C71.1777324,23.1953125 70.8417983,23.2753898 70.5644531,23.4355469 C70.287108,23.5957039 70.0761726,23.8085924 69.9316406,24.0742188 L69.9316406,24.765625 C69.9316406,25.5507852 70.0976546,26.1562479 70.4296875,26.5820312 C70.7617204,27.0078146 71.1777319,27.2207031 71.6777344,27.2207031 C72.150393,27.2207031 72.5185534,27.0205098 72.7822266,26.6201172 C73.0458998,26.2197246 73.1777344,25.7226592 73.1777344,25.1289062 C73.1777344,24.5664034 73.0361342,24.1035174 72.7529297,23.7402344 C72.4697251,23.3769513 72.0761744,23.1953125 71.5722656,23.1953125 Z M81.0175781,25.0703125 C81.0175781,25.9843796 80.7978538,26.7216769 80.3583984,27.2822266 C79.9189431,27.8427762 79.314457,28.1230469 78.5449219,28.1230469 C78.126951,28.1230469 77.7636734,28.041993 77.4550781,27.8798828 C77.1464828,27.7177726 76.890626,27.4785172 76.6875,27.1621094 L76.546875,28 L75.6035156,28 L75.6035156,18.859375 L76.7578125,18.859375 L76.7578125,22.4101562 C76.9570322,22.1289048 77.2041001,21.9140632 77.4990234,21.765625 C77.7939468,21.6171868 78.1386699,21.5429688 78.5332031,21.5429688 C79.314457,21.5429688 79.9238259,21.8554656 80.3613281,22.4804688 C80.7988303,23.1054719 81.0175781,23.9277293 81.0175781,24.9472656 L81.0175781,25.0703125 Z M79.8632812,24.9472656 C79.8632812,24.2206995 79.7294935,23.627932 79.4619141,23.1689453 C79.1943346,22.7099586 78.7871121,22.4804688 78.2402344,22.4804688 C77.8847638,22.4804688 77.5849622,22.5673819 77.3408203,22.7412109 C77.0966785,22.9150399 76.9023445,23.148436 76.7578125,23.4414062 L76.7578125,26.1894531 C76.9062507,26.5019547 77.1005847,26.7460929 77.3408203,26.921875 C77.5810559,27.0976571 77.8847638,27.1855469 78.2519531,27.1855469 C78.7949246,27.1855469 79.1992174,26.9921894 79.4648438,26.6054688 C79.7304701,26.2187481 79.8632812,25.7070344 79.8632812,25.0703125 L79.8632812,24.9472656 Z M85.3417969,24.5371094 C85.3417969,22.9980392 85.6523406,21.6835992 86.2734375,20.59375 C86.8945344,19.5039008 87.5468716,18.7773456 88.2304688,18.4140625 L88.265625,18.4199219 L88.4882812,19.0996094 C87.9531223,19.5175802 87.4873067,20.1874954 87.0908203,21.109375 C86.694334,22.0312546 86.4960938,23.1699151 86.4960938,24.5253906 L86.4960938,24.6015625 C86.4960938,25.957038 86.6933574,27.0956985 87.0878906,28.0175781 C87.4824238,28.9394577 87.9492161,29.6269509 88.4882812,30.0800781 L88.265625,30.7128906 L88.2304688,30.7128906 C87.5468716,30.3496076 86.8945344,29.6240289 86.2734375,28.5361328 C85.6523406,27.4482367 85.3417969,26.1328202 85.3417969,24.5898438 L85.3417969,24.5371094 Z M89.1328125,24.9472656 C89.1328125,23.9277293 89.3554665,23.1054719 89.8007812,22.4804688 C90.246096,21.8554656 90.8613242,21.5429688 91.6464844,21.5429688 C92.0488301,21.5429688 92.4023422,21.6240226 92.7070312,21.7861328 C93.0117203,21.948243 93.265624,22.1816391 93.46875,22.4863281 L93.609375,21.6601562 L94.5292969,21.6601562 L94.5292969,28.0351563 C94.5292969,28.8476603 94.2929711,29.4716775 93.8203125,29.9072266 C93.3476539,30.3427756 92.6660201,30.5605469 91.7753906,30.5605469 C91.4707016,30.5605469 91.1416033,30.5185551 90.7880859,30.4345703 C90.4345685,30.3505855 90.1230482,30.2363288 89.8535156,30.0917969 L90.1464844,29.1953125 C90.3535167,29.3125006 90.6035142,29.4072262 90.8964844,29.4794922 C91.1894546,29.5517582 91.4785142,29.5878906 91.7636719,29.5878906 C92.3261747,29.5878906 92.7353503,29.4599622 92.9912109,29.2041016 C93.2470716,28.9482409 93.375,28.5585964 93.375,28.0351563 L93.375,27.3203125 C93.1679677,27.5859388 92.9199233,27.7861321 92.6308594,27.9208984 C92.3417954,28.0556647 92.0097675,28.1230469 91.6347656,28.1230469 C90.857418,28.1230469 90.246096,27.8417997 89.8007812,27.2792969 C89.3554665,26.7167941 89.1328125,25.9804733 89.1328125,25.0703125 L89.1328125,24.9472656 Z M90.2871094,25.0703125 C90.2871094,25.7070344 90.4218737,26.2187481 90.6914062,26.6054688 C90.9609388,26.9921894 91.371091,27.1855469 91.921875,27.1855469 C92.269533,27.1855469 92.5605457,27.1064461 92.7949219,26.9482422 C93.029298,26.7900383 93.2226555,26.5664077 93.375,26.2773438 L93.375,23.359375 C93.2265618,23.0898424 93.0332043,22.8759774 92.7949219,22.7177734 C92.5566394,22.5595695 92.2695329,22.4804688 91.9335938,22.4804688 C91.3828097,22.4804688 90.9707045,22.7109352 90.6972656,23.171875 C90.4238268,23.6328148 90.2871094,24.2246058 90.2871094,24.9472656 L90.2871094,25.0703125 Z M99.2050781,22.6796875 L98.6132812,22.6445312 C98.3085922,22.6445312 98.0517589,22.7167962 97.8427734,22.8613281 C97.633788,23.0058601 97.4726568,23.2089831 97.359375,23.4707031 L97.359375,28 L96.2050781,28 L96.2050781,21.6601562 L97.2363281,21.6601562 L97.3476562,22.5859375 C97.5273446,22.2578109 97.7490221,22.001954 98.0126953,21.8183594 C98.2763685,21.6347647 98.5800764,21.5429688 98.9238281,21.5429688 C99.0097661,21.5429688 99.0917965,21.5498046 99.1699219,21.5634766 C99.2480473,21.5771485 99.3124997,21.5917968 99.3632812,21.6074219 L99.2050781,22.6796875 Z M104.214844,28 C104.175781,27.8085928 104.145508,27.6396492 104.124023,27.4931641 C104.102539,27.346679 104.089844,27.1992195 104.085938,27.0507812 C103.871093,27.3554703 103.590822,27.6103505 103.245117,27.8154297 C102.899412,28.0205088 102.527346,28.1230469 102.128906,28.1230469 C101.468747,28.1230469 100.965822,27.9541033 100.620117,27.6162109 C100.274412,27.2783186 100.101562,26.812503 100.101562,26.21875 C100.101562,25.6132782 100.346677,25.1396501 100.836914,24.7978516 C101.327151,24.456053 101.992183,24.2851562 102.832031,24.2851562 L104.085938,24.2851562 L104.085938,23.6582031 C104.085938,23.2871075 103.972657,22.9931651 103.746094,22.7763672 C103.51953,22.5595692 103.199221,22.4511719 102.785156,22.4511719 C102.414061,22.4511719 102.112306,22.5458975 101.879883,22.7353516 C101.64746,22.9248056 101.53125,23.1523424 101.53125,23.4179688 L100.429688,23.4179688 L100.417969,23.3828125 C100.394531,22.9218727 100.612302,22.5000019 101.071289,22.1171875 C101.530276,21.7343731 102.123043,21.5429688 102.849609,21.5429688 C103.568363,21.5429688 104.146482,21.7255841 104.583984,22.0908203 C105.021487,22.4560565 105.240234,22.9824184 105.240234,23.6699219 L105.240234,26.7226562 C105.240234,26.9492199 105.251953,27.1679677 105.275391,27.3789062 C105.298828,27.5898448 105.341797,27.796874 105.404297,28 L104.214844,28 Z M102.298828,27.15625 C102.716799,27.15625 103.093748,27.0488292 103.429688,26.8339844 C103.765627,26.6191396 103.984374,26.3730483 104.085938,26.0957031 L104.085938,25.0644531 L102.791016,25.0644531 C102.32617,25.0644531 101.954103,25.1816395 101.674805,25.4160156 C101.395506,25.6503918 101.255859,25.9257797 101.255859,26.2421875 C101.255859,26.5234389 101.343749,26.7460929 101.519531,26.9101562 C101.695313,27.0742196 101.955076,27.15625 102.298828,27.15625 Z M108.767578,25.6503906 L108.972656,26.4472656 L109.007812,26.4472656 L110.566406,21.6601562 L111.849609,21.6601562 L109.183594,28.9726563 C109.023437,29.3984396 108.793947,29.7695297 108.495117,30.0859375 C108.196288,30.4023453 107.792971,30.5605469 107.285156,30.5605469 C107.191406,30.5605469 107.072266,30.5498048 106.927734,30.5283203 C106.783202,30.5068358 106.671875,30.4863282 106.59375,30.4667969 L106.710938,29.5585938 C106.6875,29.5546875 106.756835,29.5585937 106.918945,29.5703125 C107.081055,29.5820313 107.183594,29.5878906 107.226562,29.5878906 C107.472657,29.5878906 107.673827,29.4785167 107.830078,29.2597656 C107.986329,29.0410145 108.117187,28.7988295 108.222656,28.5332031 L108.498047,27.8710938 L106.142578,21.6601562 L107.431641,21.6601562 L108.767578,25.6503906 Z M121.230469,20.3769531 C120.199214,21.6035218 119.502931,22.690425 119.141602,23.6376953 C118.780272,24.5849657 118.519532,25.7324151 118.359375,27.0800781 L118.265625,28 L117.111328,28 L117.205078,27.0800781 C117.369141,25.7363214 117.687498,24.5351615 118.160156,23.4765625 C118.632815,22.4179635 119.279293,21.3847707 120.099609,20.3769531 L115.458984,20.3769531 L115.458984,19.46875 L121.230469,19.46875 L121.230469,20.3769531 Z M122.789062,24.1503906 L123.28125,19.46875 L127.552734,19.46875 L127.552734,20.4941406 L124.259766,20.4941406 L123.978516,22.890625 C124.158204,22.7578118 124.358397,22.6474614 124.579102,22.5595703 C124.799806,22.4716792 125.054686,22.4238282 125.34375,22.4160156 C126.12891,22.4082031 126.747068,22.6640599 127.198242,23.1835938 C127.649416,23.7031276 127.875,24.4023394 127.875,25.28125 C127.875,26.136723 127.64551,26.8242162 127.186523,27.34375 C126.727537,27.8632838 126.058598,28.1230469 125.179687,28.1230469 C124.457028,28.1230469 123.855471,27.9257832 123.375,27.53125 C122.894529,27.1367168 122.664062,26.5566445 122.683594,25.7910156 L122.695312,25.7558594 L123.738281,25.7558594 C123.738281,26.2207054 123.872069,26.5810534 124.139648,26.8369141 C124.407228,27.0927747 124.753904,27.2207031 125.179687,27.2207031 C125.667971,27.2207031 126.046874,27.0488298 126.316406,26.7050781 C126.585939,26.3613264 126.720703,25.890628 126.720703,25.2929688 C126.720703,24.746091 126.583986,24.2968768 126.310547,23.9453125 C126.037108,23.5937482 125.660159,23.4179688 125.179687,23.4179688 C124.72656,23.4179688 124.398439,23.4863274 124.195312,23.6230469 C123.992186,23.7597663 123.84375,23.9687486 123.75,24.25 L122.789062,24.1503906 Z M134.613281,24.7480469 C134.613281,25.8378961 134.372073,26.6728487 133.889648,27.2529297 C133.407224,27.8330107 132.746098,28.1230469 131.90625,28.1230469 C131.066402,28.1230469 130.402346,27.8320342 129.914062,27.25 C129.425779,26.6679658 129.181641,25.8339898 129.181641,24.7480469 L129.181641,22.7265625 C129.181641,21.6406196 129.424802,20.805667 129.911133,20.2216797 C130.397463,19.6376924 131.05859,19.3457031 131.894531,19.3457031 C132.734379,19.3457031 133.397459,19.6376924 133.883789,20.2216797 C134.37012,20.805667 134.613281,21.6406196 134.613281,22.7265625 L134.613281,24.7480469 Z M133.458984,22.4804688 C133.458984,21.7421838 133.325197,21.1865253 133.057617,20.8134766 C132.790038,20.4404278 132.402346,20.2539062 131.894531,20.2539062 C131.386716,20.2539062 131.000001,20.4404278 130.734375,20.8134766 C130.468749,21.1865253 130.335938,21.7421838 130.335938,22.4804688 L130.335938,24.9824219 C130.335938,25.7207068 130.470702,26.2783184 130.740234,26.6552734 C131.009767,27.0322284 131.398435,27.2207031 131.90625,27.2207031 C132.414065,27.2207031 132.799803,27.033205 133.063477,26.6582031 C133.32715,26.2832013 133.458984,25.7246131 133.458984,24.9824219 L133.458984,22.4804688 Z M138.462891,24.5898438 C138.462891,26.1328202 138.15137,27.4482367 137.52832,28.5361328 C136.90527,29.6240289 136.25391,30.3496076 135.574219,30.7128906 L135.539062,30.7128906 L135.316406,30.0800781 C135.843753,29.6699198 136.307615,28.9951219 136.708008,28.0556641 C137.1084,27.1162062 137.308594,25.9648506 137.308594,24.6015625 L137.308594,24.5253906 C137.308594,23.1894464 137.102541,22.0498094 136.69043,21.1064453 C136.278318,20.1630812 135.820315,19.4765646 135.316406,19.046875 L135.539062,18.4140625 L135.574219,18.4140625 C136.25391,18.7773456 136.90527,19.5039008 137.52832,20.59375 C138.15137,21.6835992 138.462891,22.9980392 138.462891,24.5371094 L138.462891,24.5898438 Z"></path>
                <path d="M2.20898438,45.0976562 L6.24609375,45.0976562 L6.24609375,46 L1.0546875,46 L1.0546875,37.46875 L2.20898438,37.46875 L2.20898438,45.0976562 Z M8.56640625,46 L7.41210938,46 L7.41210938,39.6601562 L8.56640625,39.6601562 L8.56640625,46 Z M8.56640625,38.0371094 L7.41210938,38.0371094 L7.41210938,36.859375 L8.56640625,36.859375 L8.56640625,38.0371094 Z M11.3730469,39.6601562 L11.4550781,40.6035156 C11.6660167,40.2675764 11.9306625,40.0068369 12.2490234,39.8212891 C12.5673844,39.6357413 12.9296855,39.5429688 13.3359375,39.5429688 C14.0195347,39.5429688 14.5488263,39.7431621 14.9238281,40.1435547 C15.29883,40.5439473 15.4863281,41.1621052 15.4863281,41.9980469 L15.4863281,46 L14.3320312,46 L14.3320312,42.0214844 C14.3320312,41.4628878 14.2216808,41.0664074 14.0009766,40.8320312 C13.7802723,40.5976551 13.4433616,40.4804688 12.9902344,40.4804688 C12.6582015,40.4804688 12.3642591,40.5605461 12.1083984,40.7207031 C11.8525378,40.8808602 11.6484383,41.099608 11.4960938,41.3769531 L11.4960938,46 L10.3417969,46 L10.3417969,39.6601562 L11.3730469,39.6601562 Z M19.7929688,46.1230469 C18.9101518,46.1230469 18.2080104,45.8291045 17.6865234,45.2412109 C17.1650365,44.6533174 16.9042969,43.8906297 16.9042969,42.953125 L16.9042969,42.6953125 C16.9042969,41.7929642 17.1728489,41.0419952 17.7099609,40.4423828 C18.247073,39.8427704 18.8828088,39.5429688 19.6171875,39.5429688 C20.4726605,39.5429688 21.1191384,39.8007787 21.5566406,40.3164062 C21.9941428,40.8320338 22.2128906,41.519527 22.2128906,42.3789062 L22.2128906,43.0996094 L18.0996094,43.0996094 L18.0820312,43.1289062 C18.0937501,43.7382843 18.2480454,44.2392558 18.5449219,44.6318359 C18.8417984,45.024416 19.2578098,45.2207031 19.7929688,45.2207031 C20.1835957,45.2207031 20.5263657,45.1650396 20.8212891,45.0537109 C21.1162124,44.9423823 21.3710927,44.7890635 21.5859375,44.59375 L22.0371094,45.34375 C21.8105457,45.5664074 21.5117206,45.7519524 21.140625,45.9003906 C20.7695294,46.0488289 20.3203151,46.1230469 19.7929688,46.1230469 Z M19.6171875,40.4511719 C19.2304668,40.4511719 18.900392,40.6142562 18.6269531,40.9404297 C18.3535143,41.2666032 18.1855472,41.6757788 18.1230469,42.1679688 L18.1347656,42.1972656 L21.0585938,42.1972656 L21.0585938,42.0449219 C21.0585938,41.5917946 20.9375012,41.2128921 20.6953125,40.9082031 C20.4531238,40.6035141 20.0937524,40.4511719 19.6171875,40.4511719 Z M33.1582031,46 L32.0039062,46 L32.0039062,42.2324219 L27.8613281,42.2324219 L27.8613281,46 L26.7070313,46 L26.7070313,37.46875 L27.8613281,37.46875 L27.8613281,41.3242188 L32.0039062,41.3242188 L32.0039062,37.46875 L33.1582031,37.46875 L33.1582031,46 Z M37.6816406,46.1230469 C36.7988237,46.1230469 36.0966823,45.8291045 35.5751953,45.2412109 C35.0537083,44.6533174 34.7929688,43.8906297 34.7929688,42.953125 L34.7929688,42.6953125 C34.7929688,41.7929642 35.0615208,41.0419952 35.5986328,40.4423828 C36.1357449,39.8427704 36.7714807,39.5429688 37.5058594,39.5429688 C38.3613324,39.5429688 39.0078103,39.8007787 39.4453125,40.3164062 C39.8828147,40.8320338 40.1015625,41.519527 40.1015625,42.3789062 L40.1015625,43.0996094 L35.9882812,43.0996094 L35.9707031,43.1289062 C35.9824219,43.7382843 36.1367173,44.2392558 36.4335938,44.6318359 C36.7304702,45.024416 37.1464817,45.2207031 37.6816406,45.2207031 C38.0722676,45.2207031 38.4150376,45.1650396 38.7099609,45.0537109 C39.0048843,44.9423823 39.2597646,44.7890635 39.4746094,44.59375 L39.9257812,45.34375 C39.6992176,45.5664074 39.4003925,45.7519524 39.0292969,45.9003906 C38.6582013,46.0488289 38.208987,46.1230469 37.6816406,46.1230469 Z M37.5058594,40.4511719 C37.1191387,40.4511719 36.7890639,40.6142562 36.515625,40.9404297 C36.2421861,41.2666032 36.0742191,41.6757788 36.0117188,42.1679688 L36.0234375,42.1972656 L38.9472656,42.1972656 L38.9472656,42.0449219 C38.9472656,41.5917946 38.8261731,41.2128921 38.5839844,40.9082031 C38.3417957,40.6035141 37.9824243,40.4511719 37.5058594,40.4511719 Z M42.6445312,46 L41.4902344,46 L41.4902344,39.6601562 L42.6445312,39.6601562 L42.6445312,46 Z M42.6445312,38.0371094 L41.4902344,38.0371094 L41.4902344,36.859375 L42.6445312,36.859375 L42.6445312,38.0371094 Z M44.1679688,42.9472656 C44.1679688,41.9277293 44.3906228,41.1054719 44.8359375,40.4804688 C45.2812522,39.8554656 45.8964804,39.5429688 46.6816406,39.5429688 C47.0839864,39.5429688 47.4374985,39.6240226 47.7421875,39.7861328 C48.0468765,39.948243 48.3007802,40.1816391 48.5039062,40.4863281 L48.6445312,39.6601562 L49.5644531,39.6601562 L49.5644531,46.0351562 C49.5644531,46.8476603 49.3281274,47.4716775 48.8554688,47.9072266 C48.3828101,48.3427756 47.7011763,48.5605469 46.8105469,48.5605469 C46.5058579,48.5605469 46.1767596,48.5185551 45.8232422,48.4345703 C45.4697248,48.3505855 45.1582045,48.2363288 44.8886719,48.0917969 L45.1816406,47.1953125 C45.3886729,47.3125006 45.6386704,47.4072262 45.9316406,47.4794922 C46.2246108,47.5517582 46.5136704,47.5878906 46.7988281,47.5878906 C47.3613309,47.5878906 47.7705065,47.4599622 48.0263672,47.2041016 C48.2822278,46.9482409 48.4101562,46.5585964 48.4101562,46.0351562 L48.4101562,45.3203125 C48.203124,45.5859388 47.9550796,45.7861321 47.6660156,45.9208984 C47.3769517,46.0556647 47.0449237,46.1230469 46.6699219,46.1230469 C45.8925742,46.1230469 45.2812522,45.8417997 44.8359375,45.2792969 C44.3906228,44.7167941 44.1679688,43.9804733 44.1679688,43.0703125 L44.1679688,42.9472656 Z M45.3222656,43.0703125 C45.3222656,43.7070344 45.4570299,44.2187481 45.7265625,44.6054688 C45.9960951,44.9921894 46.4062472,45.1855469 46.9570312,45.1855469 C47.3046892,45.1855469 47.595702,45.1064461 47.8300781,44.9482422 C48.0644543,44.7900383 48.2578117,44.5664077 48.4101562,44.2773438 L48.4101562,41.359375 C48.261718,41.0898424 48.0683606,40.8759774 47.8300781,40.7177734 C47.5917957,40.5595695 47.3046892,40.4804688 46.96875,40.4804688 C46.417966,40.4804688 46.0058607,40.7109352 45.7324219,41.171875 C45.458983,41.6328148 45.3222656,42.2246058 45.3222656,42.9472656 L45.3222656,43.0703125 Z M52.3945312,40.5097656 C52.6132823,40.2050766 52.8818343,39.9677743 53.2001953,39.7978516 C53.5185563,39.6279288 53.8710918,39.5429688 54.2578125,39.5429688 C54.9335971,39.5429688 55.4599591,39.7460917 55.8369141,40.1523438 C56.2138691,40.5585958 56.4023438,41.1835895 56.4023438,42.0273438 L56.4023438,46 L55.2480469,46 L55.2480469,42.015625 C55.2480469,41.4921849 55.1357433,41.10547 54.9111328,40.8554688 C54.6865223,40.6054675 54.3515647,40.4804688 53.90625,40.4804688 C53.5859359,40.4804688 53.2958997,40.5556633 53.0361328,40.7060547 C52.7763659,40.8564461 52.5625008,41.0605456 52.3945312,41.3183594 L52.3945312,46 L51.2402344,46 L51.2402344,36.859375 L52.3945312,36.859375 L52.3945312,40.5097656 Z M59.5839844,38.1308594 L59.5839844,39.6601562 L60.7851563,39.6601562 L60.7851563,40.515625 L59.5839844,40.515625 L59.5839844,44.3652344 C59.5839844,44.6621109 59.6455072,44.8710931 59.7685547,44.9921875 C59.8916022,45.1132819 60.0546865,45.1738281 60.2578125,45.1738281 C60.3242191,45.1738281 60.3974605,45.1660157 60.4775391,45.1503906 C60.5576176,45.1347655 60.6289059,45.1152345 60.6914063,45.0917969 L60.84375,45.8828125 C60.7578121,45.9531254 60.6318368,46.010742 60.4658203,46.0556641 C60.2998039,46.1005862 60.1328133,46.1230469 59.9648438,46.1230469 C59.4960914,46.1230469 59.1230483,45.9814467 58.8457031,45.6982422 C58.568358,45.4150376 58.4296875,44.9707062 58.4296875,44.3652344 L58.4296875,40.515625 L57.421875,40.515625 L57.421875,39.6601562 L58.4296875,39.6601562 L58.4296875,38.1308594 L59.5839844,38.1308594 Z M63.46875,46 L62.3144531,46 L62.3144531,44.8164062 L63.46875,44.8164062 L63.46875,46 Z M63.46875,40.8671875 L62.3144531,40.8671875 L62.3144531,39.6835938 L63.46875,39.6835938 L63.46875,40.8671875 Z M71.3730469,46 L70.21875,46 L70.21875,38.59375 L68.4726562,38.6171875 L68.4726562,37.7851562 L71.3730469,37.46875 L71.3730469,46 Z M76.2363281,46 L75.0820312,46 L75.0820312,44.8164062 L76.2363281,44.8164062 L76.2363281,46 Z M78.375,42.1503906 L78.8671875,37.46875 L83.1386719,37.46875 L83.1386719,38.4941406 L79.8457031,38.4941406 L79.5644531,40.890625 C79.7441415,40.7578118 79.9443348,40.6474614 80.1650391,40.5595703 C80.3857433,40.4716792 80.6406236,40.4238282 80.9296875,40.4160156 C81.7148477,40.4082031 82.3330056,40.6640599 82.7841797,41.1835938 C83.2353538,41.7031276 83.4609375,42.4023394 83.4609375,43.28125 C83.4609375,44.136723 83.2314476,44.8242162 82.7724609,45.34375 C82.3134743,45.8632838 81.6445356,46.1230469 80.765625,46.1230469 C80.0429651,46.1230469 79.4414087,45.9257832 78.9609375,45.53125 C78.4804663,45.1367168 78.2499999,44.5566445 78.2695312,43.7910156 L78.28125,43.7558594 L79.3242187,43.7558594 C79.3242187,44.2207054 79.4580065,44.5810534 79.7255859,44.8369141 C79.9931654,45.0927747 80.3398416,45.2207031 80.765625,45.2207031 C81.2539087,45.2207031 81.6328112,45.0488298 81.9023437,44.7050781 C82.1718763,44.3613264 82.3066406,43.890628 82.3066406,43.2929688 C82.3066406,42.746091 82.1699232,42.2968768 81.8964844,41.9453125 C81.6230455,41.5937482 81.2460962,41.4179688 80.765625,41.4179688 C80.3124977,41.4179688 79.984376,41.4863274 79.78125,41.6230469 C79.578124,41.7597663 79.429688,41.9687486 79.3359375,42.25 L78.375,42.1503906 Z"></path>
            </g>
            <g transform="translate(147.500000, 66.000000) scale(-1, 1) translate(-147.500000, -66.000000) translate(60.000000, 41.000000)">
                <path d="M0,24.75 L175,24.75" stroke="#EC407A"></path>
                <g transform="translate(168.000000, 21.250000)">
                    <g>
                        <g fill="#FFFFFF">
                            <polygon points="7 3.5 0 7 0 0"></polygon>
                        </g>
                        <polygon stroke="#EC407A" points="5.88196601 3.5 0.5 0.809016994 0.5 6.19098301"></polygon>
                    </g>
                </g>
                <path d="M0.5,0.5 L0.5,49.5" stroke="#F0367A" stroke-linecap="square"></path>
            </g>
        </g>
    </g>
</svg>