<?xml version="1.0" encoding="UTF-8" standalone="no"?>
<svg width="389px" height="87px" viewBox="0 0 389 87" version="1.1" xmlns="http://www.w3.org/2000/svg" xmlns:xlink="http://www.w3.org/1999/xlink">
    <!-- Generator: Sketch 47.1 (45422) - http://www.bohemiancoding.com/sketch -->
    <title>text-inputs-text-input-helper-text</title>
    <desc>Created with Sketch.</desc>
    <defs></defs>
    <g stroke="none" stroke-width="1" fill="none" fill-rule="evenodd">
        <g transform="translate(-1.000000, -4.000000)">
            <g>
                <g>
                    <g transform="translate(1.000000, 22.000000)">
                        <g transform="translate(1.000000, 1.000000)" fill="#FFFFFF">
                            <rect x="0" y="0" width="208" height="30" rx="2"></rect>
                        </g>
                        <rect stroke="#BDBDBD" x="0.5" y="0.5" width="209" height="31" rx="2"></rect>
                    </g>
                    <g fill="#6B6B6B">
                        <path d="M2.57714844,13.9472656 L7.28710937,13.9472656 L7.28710937,15 L1.23046875,15 L1.23046875,5.046875 L2.57714844,5.046875 L2.57714844,13.9472656 Z M13.0839844,15 C13.0384112,14.7766916 13.0030926,14.5795907 12.9780273,14.4086914 C12.9529621,14.2377921 12.9381511,14.0657561 12.9335938,13.8925781 C12.6829415,14.2480487 12.355959,14.545409 11.9526367,14.784668 C11.5493144,15.023927 11.1152367,15.1435547 10.6503906,15.1435547 C9.88020448,15.1435547 9.29345905,14.9464538 8.89013672,14.5522461 C8.48681439,14.1580384 8.28515625,13.6145868 8.28515625,12.921875 C8.28515625,12.2154913 8.57112344,11.6629252 9.14306641,11.2641602 C9.71500937,10.8653951 10.4908805,10.6660156 11.4707031,10.6660156 L12.9335938,10.6660156 L12.9335938,9.93457031 C12.9335938,9.50162544 12.8014336,9.15869267 12.5371094,8.90576172 C12.2727851,8.65283077 11.899091,8.52636719 11.4160156,8.52636719 C10.9830708,8.52636719 10.6310235,8.63688041 10.3598633,8.85791016 C10.0887031,9.07893991 9.953125,9.34439949 9.953125,9.65429688 L8.66796875,9.65429688 L8.65429688,9.61328125 C8.62695299,9.07551814 8.88101946,8.58333557 9.41650391,8.13671875 C9.95198835,7.69010193 10.6435504,7.46679688 11.4912109,7.46679688 C12.3297568,7.46679688 13.0042292,7.67984813 13.5146484,8.10595703 C14.0250677,8.53206593 14.2802734,9.14615484 14.2802734,9.94824219 L14.2802734,13.5097656 C14.2802734,13.7740899 14.2939452,14.0292956 14.3212891,14.2753906 C14.3486329,14.5214856 14.3987627,14.7630196 14.4716797,15 L13.0839844,15 Z M10.8486328,14.015625 C11.3362655,14.015625 11.7760397,13.8903007 12.1679688,13.6396484 C12.5598978,13.3889961 12.8151036,13.1018896 12.9335938,12.7783203 L12.9335938,11.5751953 L11.4228516,11.5751953 C10.8805311,11.5751953 10.4464535,11.7119127 10.1206055,11.9853516 C9.79475749,12.2587904 9.63183594,12.5800763 9.63183594,12.9492188 C9.63183594,13.2773454 9.73437397,13.5371084 9.93945312,13.7285156 C10.1445323,13.9199228 10.4475891,14.015625 10.8486328,14.015625 Z M22.5517578,11.5820312 C22.5517578,12.6484428 22.2954127,13.508623 21.7827148,14.1625977 C21.270017,14.8165723 20.5647831,15.1435547 19.6669922,15.1435547 C19.1793595,15.1435547 18.7555357,15.0489918 18.3955078,14.8598633 C18.03548,14.6707347 17.7369804,14.3916034 17.5,14.0224609 L17.3359375,15 L16.2353516,15 L16.2353516,4.3359375 L17.5820312,4.3359375 L17.5820312,8.47851562 C17.8144543,8.15038898 18.1027001,7.89974045 18.4467773,7.7265625 C18.7908546,7.55338455 19.1930316,7.46679688 19.6533203,7.46679688 C20.5647832,7.46679688 21.2757136,7.83137656 21.7861328,8.56054688 C22.296552,9.28971719 22.5517578,10.2490175 22.5517578,11.4384766 L22.5517578,11.5820312 Z M21.2050781,11.4384766 C21.2050781,10.5908161 21.0489924,9.89925398 20.7368164,9.36376953 C20.4246404,8.82828508 19.9495475,8.56054688 19.3115234,8.56054688 C18.8968078,8.56054688 18.5470392,8.6619456 18.262207,8.86474609 C17.9773749,9.06754659 17.7506519,9.33984204 17.5820312,9.68164062 L17.5820312,12.8876953 C17.7552092,13.2522805 17.9819322,13.5371083 18.262207,13.7421875 C18.5424819,13.9472667 18.8968078,14.0498047 19.3251953,14.0498047 C19.958662,14.0498047 20.430337,13.824221 20.7402344,13.3730469 C21.0501318,12.9218727 21.2050781,12.3248735 21.2050781,11.5820312 L21.2050781,11.4384766 Z M27.2617188,15.1435547 C26.2317657,15.1435547 25.4126007,14.8006219 24.8041992,14.1147461 C24.1957977,13.4288703 23.8916016,12.539068 23.8916016,11.4453125 L23.8916016,11.1445312 C23.8916016,10.0917916 24.2049122,9.21566105 24.831543,8.51611328 C25.4581737,7.81656551 26.1998655,7.46679688 27.0566406,7.46679688 C28.0546925,7.46679688 28.8089167,7.76757512 29.3193359,8.36914062 C29.8297552,8.97070613 30.0849609,9.77278145 30.0849609,10.7753906 L30.0849609,11.6162109 L25.2861328,11.6162109 L25.265625,11.6503906 C25.2792969,12.3613317 25.4593082,12.9457985 25.8056641,13.4038086 C26.15202,13.8618187 26.6373667,14.0908203 27.2617188,14.0908203 C27.7174502,14.0908203 28.1173485,14.0258796 28.4614258,13.8959961 C28.805503,13.7661126 29.1028633,13.5872407 29.3535156,13.359375 L29.8798828,14.234375 C29.6155586,14.4941419 29.2669292,14.7106111 28.8339844,14.8837891 C28.4010395,15.056967 27.8769562,15.1435547 27.2617188,15.1435547 Z M27.0566406,8.52636719 C26.6054665,8.52636719 26.2203792,8.71663221 25.9013672,9.09716797 C25.5823552,9.47770373 25.3863936,9.95507525 25.3134766,10.5292969 L25.3271484,10.5634766 L28.7382812,10.5634766 L28.7382812,10.3857422 C28.7382812,9.85709371 28.5970066,9.41504084 28.3144531,9.05957031 C28.0318996,8.70409979 27.612633,8.52636719 27.0566406,8.52636719 Z M33.0517578,15 L31.7050781,15 L31.7050781,4.3359375 L33.0517578,4.3359375 L33.0517578,15 Z"></path>
                    </g>
                    <g transform="translate(0.000000, 55.000000)" fill="#9E9E9E">
                        <path d="M7.50585937,13 L6.3515625,13 L6.3515625,9.23242188 L2.20898438,9.23242188 L2.20898438,13 L1.0546875,13 L1.0546875,4.46875 L2.20898438,4.46875 L2.20898438,8.32421875 L6.3515625,8.32421875 L6.3515625,4.46875 L7.50585937,4.46875 L7.50585937,13 Z M12.0292969,13.1230469 C11.14648,13.1230469 10.4443385,12.8291045 9.92285156,12.2412109 C9.40136458,11.6533174 9.140625,10.8906297 9.140625,9.953125 L9.140625,9.6953125 C9.140625,8.79296424 9.409177,8.04199519 9.94628906,7.44238281 C10.4834011,6.84277044 11.119137,6.54296875 11.8535156,6.54296875 C12.7089887,6.54296875 13.3554666,6.80077867 13.7929688,7.31640625 C14.2304709,7.83203383 14.4492188,8.51952695 14.4492188,9.37890625 L14.4492188,10.0996094 L10.3359375,10.0996094 L10.3183594,10.1289062 C10.3300782,10.7382843 10.4843735,11.2392558 10.78125,11.6318359 C11.0781265,12.024416 11.4941379,12.2207031 12.0292969,12.2207031 C12.4199238,12.2207031 12.7626938,12.1650396 13.0576172,12.0537109 C13.3525405,11.9423823 13.6074208,11.7890635 13.8222656,11.59375 L14.2734375,12.34375 C14.0468739,12.5664074 13.7480487,12.7519524 13.3769531,12.9003906 C13.0058575,13.0488289 12.5566433,13.1230469 12.0292969,13.1230469 Z M11.8535156,7.45117188 C11.4667949,7.45117188 11.1367201,7.61425618 10.8632812,7.94042969 C10.5898424,8.26660319 10.4218753,8.67577879 10.359375,9.16796875 L10.3710938,9.19726562 L13.2949219,9.19726562 L13.2949219,9.04492188 C13.2949219,8.59179461 13.1738293,8.21289215 12.9316406,7.90820312 C12.6894519,7.6035141 12.3300805,7.45117188 11.8535156,7.45117188 Z M16.9921875,13 L15.8378906,13 L15.8378906,3.859375 L16.9921875,3.859375 L16.9921875,13 Z M24.1699219,10.0703125 C24.1699219,10.9843796 23.9511741,11.7216769 23.5136719,12.2822266 C23.0761697,12.8427762 22.4726601,13.1230469 21.703125,13.1230469 C21.312498,13.1230469 20.969728,13.0576178 20.6748047,12.9267578 C20.3798813,12.7958978 20.1289073,12.5996107 19.921875,12.3378906 L19.921875,15.4375 L18.7675781,15.4375 L18.7675781,6.66015625 L19.6523438,6.66015625 L19.8339844,7.48046875 C20.0410167,7.17577973 20.2988266,6.94336018 20.6074219,6.78320312 C20.9160172,6.62304607 21.2753886,6.54296875 21.6855469,6.54296875 C22.4707071,6.54296875 23.0810525,6.85448907 23.5166016,7.47753906 C23.9521506,8.10058905 24.1699219,8.92382301 24.1699219,9.94726562 L24.1699219,10.0703125 Z M23.015625,9.94726562 C23.015625,9.22851203 22.8740249,8.63769763 22.5908203,8.17480469 C22.3076158,7.71191175 21.8906278,7.48046875 21.3398438,7.48046875 C21.0078108,7.48046875 20.7246105,7.55566331 20.4902344,7.70605469 C20.2558582,7.85644606 20.066407,8.06249869 19.921875,8.32421875 L19.921875,11.3886719 C20.066407,11.6503919 20.2558582,11.8544915 20.4902344,12.0009766 C20.7246105,12.1474617 21.0117171,12.2207031 21.3515625,12.2207031 C21.8984402,12.2207031 22.3124986,12.0205098 22.59375,11.6201172 C22.8750014,11.2197246 23.015625,10.7031282 23.015625,10.0703125 L23.015625,9.94726562 Z M28.21875,13.1230469 C27.3359331,13.1230469 26.6337917,12.8291045 26.1123047,12.2412109 C25.5908177,11.6533174 25.3300781,10.8906297 25.3300781,9.953125 L25.3300781,9.6953125 C25.3300781,8.79296424 25.5986301,8.04199519 26.1357422,7.44238281 C26.6728542,6.84277044 27.3085901,6.54296875 28.0429687,6.54296875 C28.8984418,6.54296875 29.5449197,6.80077867 29.9824219,7.31640625 C30.4199241,7.83203383 30.6386719,8.51952695 30.6386719,9.37890625 L30.6386719,10.0996094 L26.5253906,10.0996094 L26.5078125,10.1289062 C26.5195313,10.7382843 26.6738266,11.2392558 26.9707031,11.6318359 C27.2675796,12.024416 27.6835911,12.2207031 28.21875,12.2207031 C28.609377,12.2207031 28.952147,12.1650396 29.2470703,12.0537109 C29.5419937,11.9423823 29.7968739,11.7890635 30.0117187,11.59375 L30.4628906,12.34375 C30.236327,12.5664074 29.9375019,12.7519524 29.5664062,12.9003906 C29.1953106,13.0488289 28.7460964,13.1230469 28.21875,13.1230469 Z M28.0429687,7.45117188 C27.6562481,7.45117188 27.3261732,7.61425618 27.0527344,7.94042969 C26.7792955,8.26660319 26.6113284,8.67577879 26.5488281,9.16796875 L26.5605469,9.19726562 L29.484375,9.19726562 L29.484375,9.04492188 C29.484375,8.59179461 29.3632825,8.21289215 29.1210937,7.90820312 C28.878905,7.6035141 28.5195336,7.45117188 28.0429687,7.45117188 Z M34.9335937,7.6796875 L34.3417969,7.64453125 C34.0371079,7.64453125 33.7802745,7.71679615 33.5712891,7.86132812 C33.3623036,8.0058601 33.2011724,8.20898307 33.0878906,8.47070312 L33.0878906,13 L31.9335937,13 L31.9335937,6.66015625 L32.9648437,6.66015625 L33.0761719,7.5859375 C33.2558603,7.25781086 33.4775377,7.00195404 33.7412109,6.81835938 C34.0048841,6.63476471 34.308592,6.54296875 34.6523437,6.54296875 C34.7382817,6.54296875 34.8203121,6.54980462 34.8984375,6.56347656 C34.9765629,6.57714851 35.0410154,6.5917968 35.0917969,6.60742188 L34.9335937,7.6796875 Z M40.5527344,5.13085938 L40.5527344,6.66015625 L41.7539062,6.66015625 L41.7539062,7.515625 L40.5527344,7.515625 L40.5527344,11.3652344 C40.5527344,11.6621109 40.6142572,11.8710931 40.7373047,11.9921875 C40.8603522,12.1132819 41.0234365,12.1738281 41.2265625,12.1738281 C41.2929691,12.1738281 41.3662105,12.1660157 41.4462891,12.1503906 C41.5263676,12.1347655 41.5976559,12.1152345 41.6601562,12.0917969 L41.8125,12.8828125 C41.7265621,12.9531254 41.6005868,13.010742 41.4345703,13.0556641 C41.2685539,13.1005862 41.1015633,13.1230469 40.9335938,13.1230469 C40.4648414,13.1230469 40.0917983,12.9814467 39.8144531,12.6982422 C39.537108,12.4150376 39.3984375,11.9707062 39.3984375,11.3652344 L39.3984375,7.515625 L38.390625,7.515625 L38.390625,6.66015625 L39.3984375,6.66015625 L39.3984375,5.13085938 L40.5527344,5.13085938 Z M45.8085937,13.1230469 C44.9257768,13.1230469 44.2236354,12.8291045 43.7021484,12.2412109 C43.1806615,11.6533174 42.9199219,10.8906297 42.9199219,9.953125 L42.9199219,9.6953125 C42.9199219,8.79296424 43.1884739,8.04199519 43.7255859,7.44238281 C44.262698,6.84277044 44.8984338,6.54296875 45.6328125,6.54296875 C46.4882855,6.54296875 47.1347634,6.80077867 47.5722656,7.31640625 C48.0097678,7.83203383 48.2285156,8.51952695 48.2285156,9.37890625 L48.2285156,10.0996094 L44.1152344,10.0996094 L44.0976562,10.1289062 C44.1093751,10.7382843 44.2636704,11.2392558 44.5605469,11.6318359 C44.8574234,12.024416 45.2734348,12.2207031 45.8085937,12.2207031 C46.1992207,12.2207031 46.5419907,12.1650396 46.8369141,12.0537109 C47.1318374,11.9423823 47.3867177,11.7890635 47.6015625,11.59375 L48.0527344,12.34375 C47.8261707,12.5664074 47.5273456,12.7519524 47.15625,12.9003906 C46.7851544,13.0488289 46.3359401,13.1230469 45.8085937,13.1230469 Z M45.6328125,7.45117188 C45.2460918,7.45117188 44.916017,7.61425618 44.6425781,7.94042969 C44.3691393,8.26660319 44.2011722,8.67577879 44.1386719,9.16796875 L44.1503906,9.19726562 L47.0742187,9.19726562 L47.0742187,9.04492188 C47.0742187,8.59179461 46.9531262,8.21289215 46.7109375,7.90820312 C46.4687488,7.6035141 46.1093774,7.45117188 45.6328125,7.45117188 Z M51.6738281,8.99804688 L53.0214844,6.66015625 L54.3691406,6.66015625 L52.3125,9.79492188 L54.4277344,13 L53.1035156,13 L51.6972656,10.6035156 L50.2910156,13 L48.9550781,13 L51.0703125,9.79492188 L49.0136719,6.66015625 L50.34375,6.66015625 L51.6738281,8.99804688 Z M57.0820312,5.13085938 L57.0820312,6.66015625 L58.2832031,6.66015625 L58.2832031,7.515625 L57.0820312,7.515625 L57.0820312,11.3652344 C57.0820312,11.6621109 57.1435541,11.8710931 57.2666016,11.9921875 C57.3896491,12.1132819 57.5527334,12.1738281 57.7558594,12.1738281 C57.822266,12.1738281 57.8955074,12.1660157 57.9755859,12.1503906 C58.0556645,12.1347655 58.1269528,12.1152345 58.1894531,12.0917969 L58.3417969,12.8828125 C58.2558589,12.9531254 58.1298836,13.010742 57.9638672,13.0556641 C57.7978507,13.1005862 57.6308602,13.1230469 57.4628906,13.1230469 C56.9941383,13.1230469 56.6210951,12.9814467 56.34375,12.6982422 C56.0664049,12.4150376 55.9277344,11.9707062 55.9277344,11.3652344 L55.9277344,7.515625 L54.9199219,7.515625 L54.9199219,6.66015625 L55.9277344,6.66015625 L55.9277344,5.13085938 L57.0820312,5.13085938 Z"></path>
                    </g>
                </g>
            </g>
            <g transform="translate(245.000000, 38.000000)" fill="#EC407A">
                <path d="M6.09960938,9.2265625 L2.20898438,9.2265625 L2.20898438,13 L1.0546875,13 L1.0546875,4.46875 L6.69726562,4.46875 L6.69726562,5.37695312 L2.20898438,5.37695312 L2.20898438,8.31835938 L6.09960938,8.31835938 L6.09960938,9.2265625 Z M7.43554688,9.77148438 C7.43554688,8.83397969 7.68945059,8.06152647 8.19726562,7.45410156 C8.70508066,6.84667665 9.39452689,6.54296875 10.265625,6.54296875 C11.1445356,6.54296875 11.8388646,6.8457001 12.3486328,7.45117188 C12.858401,8.05664365 13.1132812,8.83007342 13.1132812,9.77148438 L13.1132812,9.90039062 C13.1132812,10.8457079 12.8593775,11.6191376 12.3515625,12.2207031 C11.8437475,12.8222686 11.1523481,13.1230469 10.2773438,13.1230469 C9.40233938,13.1230469 8.70996349,12.8212921 8.20019531,12.2177734 C7.69042714,11.6142548 7.43554688,10.8418016 7.43554688,9.90039062 L7.43554688,9.77148438 Z M8.58984375,9.90039062 C8.58984375,10.572269 8.7314439,11.1269509 9.01464844,11.5644531 C9.29785298,12.0019553 9.71874721,12.2207031 10.2773438,12.2207031 C10.8281278,12.2207031 11.2460923,12.0019553 11.53125,11.5644531 C11.8164077,11.1269509 11.9589844,10.572269 11.9589844,9.90039062 L11.9589844,9.77148438 C11.9589844,9.10741855 11.8154311,8.55468971 11.5283203,8.11328125 C11.2412095,7.67187279 10.8203153,7.45117188 10.265625,7.45117188 C9.714841,7.45117188 9.29785298,7.67187279 9.01464844,8.11328125 C8.7314439,8.55468971 8.58984375,9.10741855 8.58984375,9.77148438 L8.58984375,9.90039062 Z M15.5566406,6.66015625 L15.6386719,7.60351562 C15.8496104,7.26757645 16.1142562,7.00683687 16.4326172,6.82128906 C16.7509782,6.63574126 17.1132792,6.54296875 17.5195312,6.54296875 C18.2031284,6.54296875 18.73242,6.74316206 19.1074219,7.14355469 C19.4824237,7.54394731 19.6699219,8.1621052 19.6699219,8.99804688 L19.6699219,13 L18.515625,13 L18.515625,9.02148438 C18.515625,8.46288783 18.4052745,8.06640742 18.1845703,7.83203125 C17.9638661,7.59765508 17.6269554,7.48046875 17.1738281,7.48046875 C16.8417952,7.48046875 16.5478528,7.56054607 16.2919922,7.72070312 C16.0361315,7.88086018 15.832032,8.09960799 15.6796875,8.37695312 L15.6796875,13 L14.5253906,13 L14.5253906,6.66015625 L15.5566406,6.66015625 Z M22.8691406,5.13085938 L22.8691406,6.66015625 L24.0703125,6.66015625 L24.0703125,7.515625 L22.8691406,7.515625 L22.8691406,11.3652344 C22.8691406,11.6621109 22.9306634,11.8710931 23.0537109,11.9921875 C23.1767584,12.1132819 23.3398427,12.1738281 23.5429688,12.1738281 C23.6093753,12.1738281 23.6826168,12.1660157 23.7626953,12.1503906 C23.8427738,12.1347655 23.9140622,12.1152345 23.9765625,12.0917969 L24.1289062,12.8828125 C24.0429683,12.9531254 23.916993,13.010742 23.7509766,13.0556641 C23.5849601,13.1005862 23.4179696,13.1230469 23.25,13.1230469 C22.7812477,13.1230469 22.4082045,12.9814467 22.1308594,12.6982422 C21.8535142,12.4150376 21.7148438,11.9707062 21.7148438,11.3652344 L21.7148438,7.515625 L20.7070312,7.515625 L20.7070312,6.66015625 L21.7148438,6.66015625 L21.7148438,5.13085938 L22.8691406,5.13085938 Z M26.7539062,13 L25.5996094,13 L25.5996094,11.8164062 L26.7539062,11.8164062 L26.7539062,13 Z M26.7539062,7.8671875 L25.5996094,7.8671875 L25.5996094,6.68359375 L26.7539062,6.68359375 L26.7539062,7.8671875 Z M32.8769531,9.30273438 L32.8769531,13 L31.7226562,13 L31.7226562,4.47460938 L34.8105469,4.47460938 C35.7441453,4.47460938 36.4570288,4.68163855 36.9492188,5.09570312 C37.4414087,5.5097677 37.6875,6.11132418 37.6875,6.90039062 C37.6875,7.33789281 37.5732433,7.71874838 37.3447266,8.04296875 C37.1162098,8.36718912 36.7832053,8.62499904 36.3457031,8.81640625 C36.8144555,8.96875076 37.1513662,9.2158186 37.3564453,9.55761719 C37.5615245,9.89941577 37.6640625,10.3222631 37.6640625,10.8261719 L37.6640625,11.6289062 C37.6640625,11.8945326 37.6933591,12.1328114 37.7519531,12.34375 C37.8105472,12.5546886 37.9121087,12.7265618 38.0566406,12.859375 L38.0566406,13 L36.8671875,13 C36.714843,12.8671868 36.6171877,12.6718763 36.5742188,12.4140625 C36.5312498,12.1562487 36.5097656,11.8906264 36.5097656,11.6171875 L36.5097656,10.8378906 C36.5097656,10.3769508 36.3750013,10.0058608 36.1054688,9.72460938 C35.8359362,9.44335797 35.4746116,9.30273438 35.0214844,9.30273438 L32.8769531,9.30273438 Z M32.8769531,8.39453125 L34.6933594,8.39453125 C35.3457064,8.39453125 35.8154283,8.27050905 36.1025391,8.02246094 C36.3896499,7.77441282 36.5332031,7.39648691 36.5332031,6.88867188 C36.5332031,6.40820072 36.3935561,6.03613413 36.1142578,5.77246094 C35.8349595,5.50878774 35.4003936,5.37695312 34.8105469,5.37695312 L32.8769531,5.37695312 L32.8769531,8.39453125 Z M39.1875,9.77148438 C39.1875,8.83397969 39.4414037,8.06152647 39.9492188,7.45410156 C40.4570338,6.84667665 41.14648,6.54296875 42.0175781,6.54296875 C42.8964888,6.54296875 43.5908178,6.8457001 44.1005859,7.45117188 C44.6103541,8.05664365 44.8652344,8.83007342 44.8652344,9.77148438 L44.8652344,9.90039062 C44.8652344,10.8457079 44.6113307,11.6191376 44.1035156,12.2207031 C43.5957006,12.8222686 42.9043013,13.1230469 42.0292969,13.1230469 C41.1542925,13.1230469 40.4619166,12.8212921 39.9521484,12.2177734 C39.4423803,11.6142548 39.1875,10.8418016 39.1875,9.90039062 L39.1875,9.77148438 Z M40.3417969,9.90039062 C40.3417969,10.572269 40.483397,11.1269509 40.7666016,11.5644531 C41.0498061,12.0019553 41.4707003,12.2207031 42.0292969,12.2207031 C42.5800809,12.2207031 42.9980454,12.0019553 43.2832031,11.5644531 C43.5683608,11.1269509 43.7109375,10.572269 43.7109375,9.90039062 L43.7109375,9.77148438 C43.7109375,9.10741855 43.5673842,8.55468971 43.2802734,8.11328125 C42.9931626,7.67187279 42.5722684,7.45117188 42.0175781,7.45117188 C41.4667941,7.45117188 41.0498061,7.67187279 40.7666016,8.11328125 C40.483397,8.55468971 40.3417969,9.10741855 40.3417969,9.77148438 L40.3417969,9.90039062 Z M51.6914062,10.0703125 C51.6914062,10.9843796 51.4716819,11.7216769 51.0322266,12.2822266 C50.5927712,12.8427762 49.9882851,13.1230469 49.21875,13.1230469 C48.8007792,13.1230469 48.4375015,13.041993 48.1289062,12.8798828 C47.820311,12.7177726 47.5644541,12.4785172 47.3613281,12.1621094 L47.2207031,13 L46.2773438,13 L46.2773438,3.859375 L47.4316406,3.859375 L47.4316406,7.41015625 C47.6308604,7.12890484 47.8779282,6.91406324 48.1728516,6.765625 C48.4677749,6.61718676 48.812498,6.54296875 49.2070312,6.54296875 C49.9882852,6.54296875 50.5976541,6.85546563 51.0351562,7.48046875 C51.4726584,8.10547187 51.6914062,8.92772928 51.6914062,9.94726562 L51.6914062,10.0703125 Z M50.5371094,9.94726562 C50.5371094,9.22069949 50.4033217,8.62793198 50.1357422,8.16894531 C49.8681627,7.70995864 49.4609402,7.48046875 48.9140625,7.48046875 C48.558592,7.48046875 48.2587903,7.56738194 48.0146484,7.74121094 C47.7705066,7.91503993 47.5761726,8.14843604 47.4316406,8.44140625 L47.4316406,11.1894531 C47.5800789,11.5019547 47.7744129,11.7460929 48.0146484,11.921875 C48.254884,12.0976571 48.5585919,12.1855469 48.9257812,12.1855469 C49.4687527,12.1855469 49.8730455,11.9921894 50.1386719,11.6054688 C50.4042982,11.2187481 50.5371094,10.7070344 50.5371094,10.0703125 L50.5371094,9.94726562 Z M52.828125,9.77148438 C52.828125,8.83397969 53.0820287,8.06152647 53.5898438,7.45410156 C54.0976588,6.84667665 54.787105,6.54296875 55.6582031,6.54296875 C56.5371138,6.54296875 57.2314428,6.8457001 57.7412109,7.45117188 C58.2509791,8.05664365 58.5058594,8.83007342 58.5058594,9.77148438 L58.5058594,9.90039062 C58.5058594,10.8457079 58.2519557,11.6191376 57.7441406,12.2207031 C57.2363256,12.8222686 56.5449263,13.1230469 55.6699219,13.1230469 C54.7949175,13.1230469 54.1025416,12.8212921 53.5927734,12.2177734 C53.0830053,11.6142548 52.828125,10.8418016 52.828125,9.90039062 L52.828125,9.77148438 Z M53.9824219,9.90039062 C53.9824219,10.572269 54.124022,11.1269509 54.4072266,11.5644531 C54.6904311,12.0019553 55.1113253,12.2207031 55.6699219,12.2207031 C56.2207059,12.2207031 56.6386704,12.0019553 56.9238281,11.5644531 C57.2089858,11.1269509 57.3515625,10.572269 57.3515625,9.90039062 L57.3515625,9.77148438 C57.3515625,9.10741855 57.2080092,8.55468971 56.9208984,8.11328125 C56.6337876,7.67187279 56.2128934,7.45117188 55.6582031,7.45117188 C55.1074191,7.45117188 54.6904311,7.67187279 54.4072266,8.11328125 C54.124022,8.55468971 53.9824219,9.10741855 53.9824219,9.77148438 L53.9824219,9.90039062 Z M61.4414062,5.13085938 L61.4414062,6.66015625 L62.6425781,6.66015625 L62.6425781,7.515625 L61.4414062,7.515625 L61.4414062,11.3652344 C61.4414062,11.6621109 61.5029291,11.8710931 61.6259766,11.9921875 C61.7490241,12.1132819 61.9121084,12.1738281 62.1152344,12.1738281 C62.181641,12.1738281 62.2548824,12.1660157 62.3349609,12.1503906 C62.4150395,12.1347655 62.4863278,12.1152345 62.5488281,12.0917969 L62.7011719,12.8828125 C62.6152339,12.9531254 62.4892586,13.010742 62.3232422,13.0556641 C62.1572257,13.1005862 61.9902352,13.1230469 61.8222656,13.1230469 C61.3535133,13.1230469 60.9804701,12.9814467 60.703125,12.6982422 C60.4257799,12.4150376 60.2871094,11.9707062 60.2871094,11.3652344 L60.2871094,7.515625 L59.2792969,7.515625 L59.2792969,6.66015625 L60.2871094,6.66015625 L60.2871094,5.13085938 L61.4414062,5.13085938 Z M63.796875,9.77148438 C63.796875,8.83397969 64.0507787,8.06152647 64.5585937,7.45410156 C65.0664088,6.84667665 65.755855,6.54296875 66.6269531,6.54296875 C67.5058638,6.54296875 68.2001928,6.8457001 68.7099609,7.45117188 C69.2197291,8.05664365 69.4746094,8.83007342 69.4746094,9.77148438 L69.4746094,9.90039062 C69.4746094,10.8457079 69.2207057,11.6191376 68.7128906,12.2207031 C68.2050756,12.8222686 67.5136762,13.1230469 66.6386719,13.1230469 C65.7636675,13.1230469 65.0712916,12.8212921 64.5615234,12.2177734 C64.0517553,11.6142548 63.796875,10.8418016 63.796875,9.90039062 L63.796875,9.77148438 Z M64.9511719,9.90039062 C64.9511719,10.572269 65.092772,11.1269509 65.3759766,11.5644531 C65.6591811,12.0019553 66.0800753,12.2207031 66.6386719,12.2207031 C67.1894559,12.2207031 67.6074204,12.0019553 67.8925781,11.5644531 C68.1777358,11.1269509 68.3203125,10.572269 68.3203125,9.90039062 L68.3203125,9.77148438 C68.3203125,9.10741855 68.1767592,8.55468971 67.8896484,8.11328125 C67.6025376,7.67187279 67.1816434,7.45117188 66.6269531,7.45117188 C66.0761691,7.45117188 65.6591811,7.67187279 65.3759766,8.11328125 C65.092772,8.55468971 64.9511719,9.10741855 64.9511719,9.77148438 L64.9511719,9.90039062 Z M75.2402344,9.30273438 L75.2402344,13 L74.0859375,13 L74.0859375,4.47460938 L77.1738281,4.47460938 C78.1074265,4.47460938 78.82031,4.68163855 79.3125,5.09570312 C79.80469,5.5097677 80.0507812,6.11132418 80.0507812,6.90039062 C80.0507812,7.33789281 79.9365246,7.71874838 79.7080078,8.04296875 C79.479491,8.36718912 79.1464866,8.62499904 78.7089844,8.81640625 C79.1777367,8.96875076 79.5146474,9.2158186 79.7197266,9.55761719 C79.9248057,9.89941577 80.0273438,10.3222631 80.0273438,10.8261719 L80.0273438,11.6289062 C80.0273438,11.8945326 80.0566403,12.1328114 80.1152344,12.34375 C80.1738284,12.5546886 80.2753899,12.7265618 80.4199219,12.859375 L80.4199219,13 L79.2304688,13 C79.0781242,12.8671868 78.980469,12.6718763 78.9375,12.4140625 C78.894531,12.1562487 78.8730469,11.8906264 78.8730469,11.6171875 L78.8730469,10.8378906 C78.8730469,10.3769508 78.7382826,10.0058608 78.46875,9.72460938 C78.1992174,9.44335797 77.8378929,9.30273438 77.3847656,9.30273438 L75.2402344,9.30273438 Z M75.2402344,8.39453125 L77.0566406,8.39453125 C77.7089876,8.39453125 78.1787095,8.27050905 78.4658203,8.02246094 C78.7529311,7.77441282 78.8964844,7.39648691 78.8964844,6.88867188 C78.8964844,6.40820072 78.7568373,6.03613413 78.4775391,5.77246094 C78.1982408,5.50878774 77.7636748,5.37695312 77.1738281,5.37695312 L75.2402344,5.37695312 L75.2402344,8.39453125 Z M84.4511719,13.1230469 C83.568355,13.1230469 82.8662135,12.8291045 82.3447266,12.2412109 C81.8232396,11.6533174 81.5625,10.8906297 81.5625,9.953125 L81.5625,9.6953125 C81.5625,8.79296424 81.831052,8.04199519 82.3681641,7.44238281 C82.9052761,6.84277044 83.541012,6.54296875 84.2753906,6.54296875 C85.1308637,6.54296875 85.7773416,6.80077867 86.2148438,7.31640625 C86.6523459,7.83203383 86.8710938,8.51952695 86.8710938,9.37890625 L86.8710938,10.0996094 L82.7578125,10.0996094 L82.7402344,10.1289062 C82.7519532,10.7382843 82.9062485,11.2392558 83.203125,11.6318359 C83.5000015,12.024416 83.9160129,12.2207031 84.4511719,12.2207031 C84.8417988,12.2207031 85.1845688,12.1650396 85.4794922,12.0537109 C85.7744155,11.9423823 86.0292958,11.7890635 86.2441406,11.59375 L86.6953125,12.34375 C86.4687489,12.5664074 86.1699237,12.7519524 85.7988281,12.9003906 C85.4277325,13.0488289 84.9785183,13.1230469 84.4511719,13.1230469 Z M84.2753906,7.45117188 C83.8886699,7.45117188 83.5585951,7.61425618 83.2851562,7.94042969 C83.0117174,8.26660319 82.8437503,8.67577879 82.78125,9.16796875 L82.7929688,9.19726562 L85.7167969,9.19726562 L85.7167969,9.04492188 C85.7167969,8.59179461 85.5957043,8.21289215 85.3535156,7.90820312 C85.1113269,7.6035141 84.7519555,7.45117188 84.2753906,7.45117188 Z M87.9140625,9.94726562 C87.9140625,8.92772928 88.1367165,8.10547187 88.5820312,7.48046875 C89.027346,6.85546563 89.6425742,6.54296875 90.4277344,6.54296875 C90.8300801,6.54296875 91.1835922,6.62402263 91.4882812,6.78613281 C91.7929703,6.948243 92.046874,7.1816391 92.25,7.48632812 L92.390625,6.66015625 L93.3105469,6.66015625 L93.3105469,13.0351562 C93.3105469,13.8476603 93.0742211,14.4716775 92.6015625,14.9072266 C92.1289039,15.3427756 91.4472701,15.5605469 90.5566406,15.5605469 C90.2519516,15.5605469 89.9228533,15.5185551 89.5693359,15.4345703 C89.2158185,15.3505855 88.9042982,15.2363288 88.6347656,15.0917969 L88.9277344,14.1953125 C89.1347667,14.3125006 89.3847642,14.4072262 89.6777344,14.4794922 C89.9707046,14.5517582 90.2597642,14.5878906 90.5449219,14.5878906 C91.1074247,14.5878906 91.5166003,14.4599622 91.7724609,14.2041016 C92.0283216,13.9482409 92.15625,13.5585964 92.15625,13.0351562 L92.15625,12.3203125 C91.9492177,12.5859388 91.7011733,12.7861321 91.4121094,12.9208984 C91.1230454,13.0556647 90.7910175,13.1230469 90.4160156,13.1230469 C89.638668,13.1230469 89.027346,12.8417997 88.5820312,12.2792969 C88.1367165,11.7167941 87.9140625,10.9804733 87.9140625,10.0703125 L87.9140625,9.94726562 Z M89.0683594,10.0703125 C89.0683594,10.7070344 89.2031237,11.2187481 89.4726562,11.6054688 C89.7421888,11.9921894 90.152341,12.1855469 90.703125,12.1855469 C91.050783,12.1855469 91.3417957,12.1064461 91.5761719,11.9482422 C91.810548,11.7900383 92.0039055,11.5664077 92.15625,11.2773438 L92.15625,8.359375 C92.0078118,8.0898424 91.8144543,7.87597735 91.5761719,7.71777344 C91.3378894,7.55956952 91.0507829,7.48046875 90.7148438,7.48046875 C90.1640597,7.48046875 89.7519545,7.7109352 89.4785156,8.171875 C89.2050768,8.6328148 89.0683594,9.22460576 89.0683594,9.94726562 L89.0683594,10.0703125 Z M99.0117188,12.0625 C98.812499,12.4023454 98.5566422,12.6640616 98.2441406,12.8476562 C97.9316391,13.0312509 97.5703146,13.1230469 97.1601562,13.1230469 C96.4687465,13.1230469 95.9296894,12.902346 95.5429688,12.4609375 C95.1562481,12.019529 94.9628906,11.3320359 94.9628906,10.3984375 L94.9628906,6.66015625 L96.1171875,6.66015625 L96.1171875,10.4101562 C96.1171875,11.0859409 96.2167959,11.55078 96.4160156,11.8046875 C96.6152354,12.058595 96.9257791,12.1855469 97.3476562,12.1855469 C97.7578146,12.1855469 98.0966783,12.1025399 98.3642578,11.9365234 C98.6318373,11.770507 98.8339837,11.5351578 98.9707031,11.2304688 L98.9707031,6.66015625 L100.125,6.66015625 L100.125,13 L99.0878906,13 L99.0117188,12.0625 Z M103.054688,13 L101.900391,13 L101.900391,3.859375 L103.054688,3.859375 L103.054688,13 Z M108.726562,13 C108.6875,12.8085928 108.657227,12.6396492 108.635742,12.4931641 C108.614258,12.346679 108.601563,12.1992195 108.597656,12.0507812 C108.382811,12.3554703 108.102541,12.6103505 107.756836,12.8154297 C107.411131,13.0205088 107.039064,13.1230469 106.640625,13.1230469 C105.980465,13.1230469 105.477541,12.9541033 105.131836,12.6162109 C104.786131,12.2783186 104.613281,11.812503 104.613281,11.21875 C104.613281,10.6132782 104.858396,10.1396501 105.348633,9.79785156 C105.83887,9.45605298 106.503902,9.28515625 107.34375,9.28515625 L108.597656,9.28515625 L108.597656,8.65820312 C108.597656,8.28710752 108.484376,7.99316515 108.257812,7.77636719 C108.031249,7.55956923 107.71094,7.45117188 107.296875,7.45117188 C106.925779,7.45117188 106.624025,7.54589749 106.391602,7.73535156 C106.159179,7.92480563 106.042969,8.15234242 106.042969,8.41796875 L104.941406,8.41796875 L104.929688,8.3828125 C104.90625,7.9218727 105.124021,7.50000191 105.583008,7.1171875 C106.041994,6.73437309 106.634762,6.54296875 107.361328,6.54296875 C108.080082,6.54296875 108.658201,6.72558411 109.095703,7.09082031 C109.533205,7.45605651 109.751953,7.98241844 109.751953,8.66992188 L109.751953,11.7226562 C109.751953,11.9492199 109.763672,12.1679677 109.787109,12.3789062 C109.810547,12.5898448 109.853515,12.796874 109.916016,13 L108.726562,13 Z M106.810547,12.15625 C107.228518,12.15625 107.605467,12.0488292 107.941406,11.8339844 C108.277345,11.6191396 108.496093,11.3730483 108.597656,11.0957031 L108.597656,10.0644531 L107.302734,10.0644531 C106.837888,10.0644531 106.465822,10.1816395 106.186523,10.4160156 C105.907225,10.6503918 105.767578,10.9257797 105.767578,11.2421875 C105.767578,11.5234389 105.855468,11.7460929 106.03125,11.9101562 C106.207032,12.0742196 106.466795,12.15625 106.810547,12.15625 Z M114.427734,7.6796875 L113.835938,7.64453125 C113.531248,7.64453125 113.274415,7.71679615 113.06543,7.86132812 C112.856444,8.0058601 112.695313,8.20898307 112.582031,8.47070312 L112.582031,13 L111.427734,13 L111.427734,6.66015625 L112.458984,6.66015625 L112.570312,7.5859375 C112.750001,7.25781086 112.971678,7.00195404 113.235352,6.81835938 C113.499025,6.63476471 113.802733,6.54296875 114.146484,6.54296875 C114.232422,6.54296875 114.314453,6.54980462 114.392578,6.56347656 C114.470704,6.57714851 114.535156,6.5917968 114.585938,6.60742188 L114.427734,7.6796875 Z M115.541016,12.71875 L114.662109,14.5117188 L113.976562,14.5117188 L114.386719,12.6601562 L114.386719,11.7050781 L115.541016,11.7050781 L115.541016,12.71875 Z M123.035156,13 L121.880859,13 L121.880859,5.59375 L120.134766,5.6171875 L120.134766,4.78515625 L123.035156,4.46875 L123.035156,13 Z M132.023438,13 L126.492188,13 L126.492188,12.2089844 L129.287109,9.10351562 C129.787112,8.54491908 130.125976,8.10156414 130.303711,7.7734375 C130.481446,7.44531086 130.570312,7.10937672 130.570312,6.765625 C130.570312,6.33984162 130.44629,5.98144677 130.198242,5.69042969 C129.950194,5.39941261 129.621096,5.25390625 129.210938,5.25390625 C128.621091,5.25390625 128.186525,5.40527192 127.907227,5.70800781 C127.627928,6.0107437 127.488281,6.43554414 127.488281,6.98242188 L126.380859,6.98242188 L126.369141,6.94726562 C126.349609,6.21288695 126.593747,5.59570562 127.101563,5.09570312 C127.609378,4.59570062 128.312496,4.34570312 129.210938,4.34570312 C129.976566,4.34570312 130.586912,4.5693337 131.041992,5.01660156 C131.497073,5.46386942 131.724609,6.03319967 131.724609,6.72460938 C131.724609,7.18945545 131.586915,7.6552711 131.311523,8.12207031 C131.036131,8.58886952 130.650393,9.08984107 130.154297,9.625 L127.910156,12.0683594 L127.921875,12.0976562 L132.023438,12.0976562 L132.023438,13 Z M138.796875,10.0703125 C138.796875,10.9843796 138.578127,11.7216769 138.140625,12.2822266 C137.703123,12.8427762 137.099613,13.1230469 136.330078,13.1230469 C135.939451,13.1230469 135.596681,13.0576178 135.301758,12.9267578 C135.006834,12.7958978 134.75586,12.5996107 134.548828,12.3378906 L134.548828,15.4375 L133.394531,15.4375 L133.394531,6.66015625 L134.279297,6.66015625 L134.460938,7.48046875 C134.66797,7.17577973 134.92578,6.94336018 135.234375,6.78320312 C135.54297,6.62304607 135.902342,6.54296875 136.3125,6.54296875 C137.09766,6.54296875 137.708006,6.85448907 138.143555,7.47753906 C138.579104,8.10058905 138.796875,8.92382301 138.796875,9.94726562 L138.796875,10.0703125 Z M137.642578,9.94726562 C137.642578,9.22851203 137.500978,8.63769763 137.217773,8.17480469 C136.934569,7.71191175 136.517581,7.48046875 135.966797,7.48046875 C135.634764,7.48046875 135.351564,7.55566331 135.117188,7.70605469 C134.882811,7.85644606 134.69336,8.06249869 134.548828,8.32421875 L134.548828,11.3886719 C134.69336,11.6503919 134.882811,11.8544915 135.117188,12.0009766 C135.351564,12.1474617 135.63867,12.2207031 135.978516,12.2207031 C136.525393,12.2207031 136.939452,12.0205098 137.220703,11.6201172 C137.501955,11.2197246 137.642578,10.7031282 137.642578,10.0703125 L137.642578,9.94726562 Z M142.277344,8.99804688 L143.625,6.66015625 L144.972656,6.66015625 L142.916016,9.79492188 L145.03125,13 L143.707031,13 L142.300781,10.6035156 L140.894531,13 L139.558594,13 L141.673828,9.79492188 L139.617188,6.66015625 L140.947266,6.66015625 L142.277344,8.99804688 Z"></path>
                <path d="M7.08398438,28.2695313 L7.09570313,28.3046875 C7.1113282,29.1054728 6.83008102,29.7753879 6.25195313,30.3144531 C5.67382523,30.8535183 4.910161,31.1230469 3.9609375,31.1230469 C2.99608893,31.1230469 2.20996397,30.7812534 1.60253906,30.0976563 C0.99511415,29.4140591 0.69140625,28.5468803 0.69140625,27.4960938 L0.69140625,25.9785156 C0.69140625,24.9277291 0.99511415,24.0595737 1.60253906,23.3740234 C2.20996397,22.6884731 2.99608893,22.3457031 3.9609375,22.3457031 C4.92578607,22.3457031 5.69335652,22.6025365 6.26367188,23.1162109 C6.83398723,23.6298854 7.1113282,24.3105426 7.09570313,25.1582031 L7.08398438,25.1933594 L5.9765625,25.1933594 C5.9765625,24.5957001 5.80078301,24.1230486 5.44921875,23.7753906 C5.09765449,23.4277326 4.6015657,23.2539063 3.9609375,23.2539063 C3.31640303,23.2539063 2.80273629,23.5136693 2.41992188,24.0332031 C2.03710746,24.552737 1.84570313,25.1972618 1.84570313,25.9667969 L1.84570313,27.4960938 C1.84570313,28.2734414 2.03710746,28.9218724 2.41992188,29.4414063 C2.80273629,29.9609401 3.31640303,30.2207031 3.9609375,30.2207031 C4.6015657,30.2207031 5.09765449,30.0478533 5.44921875,29.7021484 C5.80078301,29.3564436 5.9765625,28.8789093 5.9765625,28.2695313 L7.08398438,28.2695313 Z M8.16796875,27.7714844 C8.16796875,26.8339797 8.42187246,26.0615265 8.9296875,25.4541016 C9.43750254,24.8466767 10.1269488,24.5429688 10.9980469,24.5429688 C11.8769575,24.5429688 12.5712865,24.8457001 13.0810547,25.4511719 C13.5908229,26.0566437 13.8457031,26.8300734 13.8457031,27.7714844 L13.8457031,27.9003906 C13.8457031,28.8457079 13.5917994,29.6191376 13.0839844,30.2207031 C12.5761693,30.8222686 11.88477,31.1230469 11.0097656,31.1230469 C10.1347613,31.1230469 9.44238536,30.8212921 8.93261719,30.2177734 C8.42284901,29.6142548 8.16796875,28.8418016 8.16796875,27.9003906 L8.16796875,27.7714844 Z M9.32226562,27.9003906 C9.32226562,28.572269 9.46386577,29.1269509 9.74707031,29.5644531 C10.0302749,30.0019553 10.4511691,30.2207031 11.0097656,30.2207031 C11.5605496,30.2207031 11.9785142,30.0019553 12.2636719,29.5644531 C12.5488296,29.1269509 12.6914062,28.572269 12.6914062,27.9003906 L12.6914062,27.7714844 C12.6914062,27.1074186 12.547853,26.5546897 12.2607422,26.1132813 C11.9736314,25.6718728 11.5527371,25.4511719 10.9980469,25.4511719 C10.4472629,25.4511719 10.0302749,25.6718728 9.74707031,26.1132813 C9.46386577,26.5546897 9.32226562,27.1074186 9.32226562,27.7714844 L9.32226562,27.9003906 Z M16.5058594,31 L15.3515625,31 L15.3515625,21.859375 L16.5058594,21.859375 L16.5058594,31 Z M18.0117188,27.7714844 C18.0117188,26.8339797 18.2656225,26.0615265 18.7734375,25.4541016 C19.2812525,24.8466767 19.9706988,24.5429688 20.8417969,24.5429688 C21.7207075,24.5429688 22.4150365,24.8457001 22.9248047,25.4511719 C23.4345729,26.0566437 23.6894531,26.8300734 23.6894531,27.7714844 L23.6894531,27.9003906 C23.6894531,28.8457079 23.4355494,29.6191376 22.9277344,30.2207031 C22.4199193,30.8222686 21.72852,31.1230469 20.8535156,31.1230469 C19.9785113,31.1230469 19.2861354,30.8212921 18.7763672,30.2177734 C18.266599,29.6142548 18.0117188,28.8418016 18.0117188,27.9003906 L18.0117188,27.7714844 Z M19.1660156,27.9003906 C19.1660156,28.572269 19.3076158,29.1269509 19.5908203,29.5644531 C19.8740249,30.0019553 20.2949191,30.2207031 20.8535156,30.2207031 C21.4042996,30.2207031 21.8222642,30.0019553 22.1074219,29.5644531 C22.3925796,29.1269509 22.5351562,28.572269 22.5351562,27.9003906 L22.5351562,27.7714844 C22.5351562,27.1074186 22.391603,26.5546897 22.1044922,26.1132813 C21.8173814,25.6718728 21.3964871,25.4511719 20.8417969,25.4511719 C20.2910129,25.4511719 19.8740249,25.6718728 19.5908203,26.1132813 C19.3076158,26.5546897 19.1660156,27.1074186 19.1660156,27.7714844 L19.1660156,27.9003906 Z M28.1015625,25.6796875 L27.5097656,25.6445313 C27.2050766,25.6445313 26.9482432,25.7167962 26.7392578,25.8613281 C26.5302724,26.0058601 26.3691412,26.2089831 26.2558594,26.4707031 L26.2558594,31 L25.1015625,31 L25.1015625,24.6601563 L26.1328125,24.6601563 L26.2441406,25.5859375 C26.423829,25.2578109 26.6455065,25.001954 26.9091797,24.8183594 C27.1728529,24.6347647 27.4765608,24.5429688 27.8203125,24.5429688 C27.9062504,24.5429688 27.9882809,24.5498046 28.0664062,24.5634766 C28.1445316,24.5771485 28.2089841,24.5917968 28.2597656,24.6074219 L28.1015625,25.6796875 Z M29.4667969,31 L28.3125,31 L28.3125,29.8164063 L29.4667969,29.8164063 L29.4667969,31 Z M29.4667969,25.8671875 L28.3125,25.8671875 L28.3125,24.6835938 L29.4667969,24.6835938 L29.4667969,25.8671875 Z M37.5527344,28.5976563 L36.0585938,28.5976563 L35.5898438,31 L34.7050781,31 L35.1738281,28.5976563 L33.7910156,28.5976563 L33.7910156,27.7773438 L35.3378906,27.7773438 L35.7363281,25.7382813 L34.2363281,25.7382813 L34.2363281,24.90625 L35.9003906,24.90625 L36.3808594,22.46875 L37.265625,22.46875 L36.7851562,24.90625 L38.2792969,24.90625 L38.7597656,22.46875 L39.6445312,22.46875 L39.1640625,24.90625 L40.3300781,24.90625 L40.3300781,25.7382813 L39.0058594,25.7382813 L38.6074219,27.7773438 L39.890625,27.7773438 L39.890625,28.5976563 L38.4433594,28.5976563 L37.9746094,31 L37.0839844,31 L37.5527344,28.5976563 Z M36.2226562,27.7773438 L37.7167969,27.7773438 L38.1152344,25.7382813 L36.6210938,25.7382813 L36.2226562,27.7773438 Z M43.8515625,30.2207031 C44.4140653,30.2207031 44.8642561,30.0078146 45.2021484,29.5820313 C45.5400408,29.1562479 45.7089844,28.5234417 45.7089844,27.6835938 L45.7089844,27.296875 C45.5175772,27.5742201 45.2783217,27.784179 44.9912109,27.9267578 C44.7041001,28.0693367 44.3847674,28.140625 44.0332031,28.140625 C43.2089803,28.140625 42.5546899,27.8857447 42.0703125,27.3759766 C41.5859351,26.8662084 41.34375,26.164067 41.34375,25.2695313 C41.34375,24.4140582 41.6005834,23.7128934 42.1142578,23.1660156 C42.6279323,22.6191379 43.2519495,22.3457031 43.9863281,22.3457031 C44.8769576,22.3457031 45.579099,22.6240207 46.0927734,23.1806641 C46.6064479,23.7373075 46.8632812,24.5566352 46.8632812,25.6386719 L46.8632812,27.671875 C46.8632812,28.7851618 46.5849637,29.6386689 46.0283203,30.2324219 C45.4716769,30.8261748 44.7460982,31.1230469 43.8515625,31.1230469 C43.5507797,31.1230469 43.2451187,31.0947268 42.9345703,31.0380859 C42.6240219,30.981445 42.3457044,30.8945318 42.0996094,30.7773438 L42.2753906,29.8925781 C42.5058605,30.0136725 42.7451159,30.0986326 42.9931641,30.1474609 C43.2412122,30.1962893 43.5273421,30.2207031 43.8515625,30.2207031 Z M44.0332031,27.2382813 C44.4589865,27.2382813 44.8134751,27.1464853 45.0966797,26.9628906 C45.3798842,26.779296 45.5839838,26.5449233 45.7089844,26.2597656 L45.7089844,25.5214844 C45.7089844,24.7753869 45.5654311,24.2109394 45.2783203,23.828125 C44.9912095,23.4453106 44.5722684,23.2539063 44.0214844,23.2539063 C43.5996073,23.2539063 43.2402359,23.4423809 42.9433594,23.8193359 C42.6464829,24.1962909 42.4980469,24.6796846 42.4980469,25.2695313 C42.4980469,25.8554717 42.6357408,26.3300763 42.9111328,26.6933594 C43.1865248,27.0566424 43.5605445,27.2382813 44.0332031,27.2382813 Z M51.0820312,31.1230469 C50.1992143,31.1230469 49.4970729,30.8291045 48.9755859,30.2412109 C48.454099,29.6533174 48.1933594,28.8906297 48.1933594,27.953125 L48.1933594,27.6953125 C48.1933594,26.7929642 48.4619114,26.0419952 48.9990234,25.4423828 C49.5361355,24.8427704 50.1718713,24.5429688 50.90625,24.5429688 C51.761723,24.5429688 52.4082009,24.8007787 52.8457031,25.3164063 C53.2832053,25.8320338 53.5019531,26.519527 53.5019531,27.3789063 L53.5019531,28.0996094 L49.3886719,28.0996094 L49.3710938,28.1289063 C49.3828126,28.7382843 49.5371079,29.2392558 49.8339844,29.6318359 C50.1308609,30.024416 50.5468723,30.2207031 51.0820312,30.2207031 C51.4726582,30.2207031 51.8154282,30.1650396 52.1103516,30.0537109 C52.4052749,29.9423823 52.6601552,29.7890635 52.875,29.59375 L53.3261719,30.34375 C53.0996082,30.5664074 52.8007831,30.7519524 52.4296875,30.9003906 C52.0585919,31.0488289 51.6093776,31.1230469 51.0820312,31.1230469 Z M50.90625,25.4511719 C50.5195293,25.4511719 50.1894545,25.6142562 49.9160156,25.9404297 C49.6425768,26.2666032 49.4746097,26.6757788 49.4121094,27.1679688 L49.4238281,27.1972656 L52.3476562,27.1972656 L52.3476562,27.0449219 C52.3476562,26.5917946 52.2265637,26.2128921 51.984375,25.9082031 C51.7421863,25.6035141 51.3828149,25.4511719 50.90625,25.4511719 Z M56.953125,30.2207031 C57.5156278,30.2207031 57.9658186,30.0078146 58.3037109,29.5820313 C58.6416033,29.1562479 58.8105469,28.5234417 58.8105469,27.6835938 L58.8105469,27.296875 C58.6191397,27.5742201 58.3798842,27.784179 58.0927734,27.9267578 C57.8056626,28.0693367 57.4863299,28.140625 57.1347656,28.140625 C56.3105428,28.140625 55.6562524,27.8857447 55.171875,27.3759766 C54.6874976,26.8662084 54.4453125,26.164067 54.4453125,25.2695313 C54.4453125,24.4140582 54.7021459,23.7128934 55.2158203,23.1660156 C55.7294948,22.6191379 56.353512,22.3457031 57.0878906,22.3457031 C57.9785201,22.3457031 58.6806615,22.6240207 59.1943359,23.1806641 C59.7080104,23.7373075 59.9648438,24.5566352 59.9648438,25.6386719 L59.9648438,27.671875 C59.9648438,28.7851618 59.6865262,29.6386689 59.1298828,30.2324219 C58.5732394,30.8261748 57.8476607,31.1230469 56.953125,31.1230469 C56.6523422,31.1230469 56.3466812,31.0947268 56.0361328,31.0380859 C55.7255844,30.981445 55.4472669,30.8945318 55.2011719,30.7773438 L55.3769531,29.8925781 C55.607423,30.0136725 55.8466784,30.0986326 56.0947266,30.1474609 C56.3427747,30.1962893 56.6289046,30.2207031 56.953125,30.2207031 Z M57.1347656,27.2382813 C57.560549,27.2382813 57.9150376,27.1464853 58.1982422,26.9628906 C58.4814467,26.779296 58.6855463,26.5449233 58.8105469,26.2597656 L58.8105469,25.5214844 C58.8105469,24.7753869 58.6669936,24.2109394 58.3798828,23.828125 C58.092772,23.4453106 57.6738309,23.2539063 57.1230469,23.2539063 C56.7011698,23.2539063 56.3417984,23.4423809 56.0449219,23.8193359 C55.7480454,24.1962909 55.5996094,24.6796846 55.5996094,25.2695313 C55.5996094,25.8554717 55.7373033,26.3300763 56.0126953,26.6933594 C56.2880873,27.0566424 56.662107,27.2382813 57.1347656,27.2382813 Z M64.1835938,31.1230469 C63.3007768,31.1230469 62.5986354,30.8291045 62.0771484,30.2412109 C61.5556615,29.6533174 61.2949219,28.8906297 61.2949219,27.953125 L61.2949219,27.6953125 C61.2949219,26.7929642 61.5634739,26.0419952 62.1005859,25.4423828 C62.637698,24.8427704 63.2734338,24.5429688 64.0078125,24.5429688 C64.8632855,24.5429688 65.5097634,24.8007787 65.9472656,25.3164063 C66.3847678,25.8320338 66.6035156,26.519527 66.6035156,27.3789063 L66.6035156,28.0996094 L62.4902344,28.0996094 L62.4726562,28.1289063 C62.4843751,28.7382843 62.6386704,29.2392558 62.9355469,29.6318359 C63.2324234,30.024416 63.6484348,30.2207031 64.1835938,30.2207031 C64.5742207,30.2207031 64.9169907,30.1650396 65.2119141,30.0537109 C65.5068374,29.9423823 65.7617177,29.7890635 65.9765625,29.59375 L66.4277344,30.34375 C66.2011707,30.5664074 65.9023456,30.7519524 65.53125,30.9003906 C65.1601544,31.0488289 64.7109401,31.1230469 64.1835938,31.1230469 Z M64.0078125,25.4511719 C63.6210918,25.4511719 63.291017,25.6142562 63.0175781,25.9404297 C62.7441393,26.2666032 62.5761722,26.6757788 62.5136719,27.1679688 L62.5253906,27.1972656 L65.4492188,27.1972656 L65.4492188,27.0449219 C65.4492188,26.5917946 65.3281262,26.2128921 65.0859375,25.9082031 C64.8437488,25.6035141 64.4843774,25.4511719 64.0078125,25.4511719 Z M70.0546875,30.2207031 C70.6171903,30.2207031 71.0673811,30.0078146 71.4052734,29.5820313 C71.7431658,29.1562479 71.9121094,28.5234417 71.9121094,27.6835938 L71.9121094,27.296875 C71.7207022,27.5742201 71.4814467,27.784179 71.1943359,27.9267578 C70.9072251,28.0693367 70.5878924,28.140625 70.2363281,28.140625 C69.4121053,28.140625 68.7578149,27.8857447 68.2734375,27.3759766 C67.7890601,26.8662084 67.546875,26.164067 67.546875,25.2695313 C67.546875,24.4140582 67.8037084,23.7128934 68.3173828,23.1660156 C68.8310573,22.6191379 69.4550745,22.3457031 70.1894531,22.3457031 C71.0800826,22.3457031 71.782224,22.6240207 72.2958984,23.1806641 C72.8095729,23.7373075 73.0664062,24.5566352 73.0664062,25.6386719 L73.0664062,27.671875 C73.0664062,28.7851618 72.7880887,29.6386689 72.2314453,30.2324219 C71.6748019,30.8261748 70.9492232,31.1230469 70.0546875,31.1230469 C69.7539047,31.1230469 69.4482437,31.0947268 69.1376953,31.0380859 C68.8271469,30.981445 68.5488294,30.8945318 68.3027344,30.7773438 L68.4785156,29.8925781 C68.7089855,30.0136725 68.9482409,30.0986326 69.1962891,30.1474609 C69.4443372,30.1962893 69.7304671,30.2207031 70.0546875,30.2207031 Z M70.2363281,27.2382813 C70.6621115,27.2382813 71.0166001,27.1464853 71.2998047,26.9628906 C71.5830092,26.779296 71.7871088,26.5449233 71.9121094,26.2597656 L71.9121094,25.5214844 C71.9121094,24.7753869 71.7685561,24.2109394 71.4814453,23.828125 C71.1943345,23.4453106 70.7753934,23.2539063 70.2246094,23.2539063 C69.8027323,23.2539063 69.4433609,23.4423809 69.1464844,23.8193359 C68.8496079,24.1962909 68.7011719,24.6796846 68.7011719,25.2695313 C68.7011719,25.8554717 68.8388658,26.3300763 69.1142578,26.6933594 C69.3896498,27.0566424 69.7636695,27.2382813 70.2363281,27.2382813 Z M77.2851562,31.1230469 C76.4023393,31.1230469 75.7001979,30.8291045 75.1787109,30.2412109 C74.657224,29.6533174 74.3964844,28.8906297 74.3964844,27.953125 L74.3964844,27.6953125 C74.3964844,26.7929642 74.6650364,26.0419952 75.2021484,25.4423828 C75.7392605,24.8427704 76.3749963,24.5429688 77.109375,24.5429688 C77.964848,24.5429688 78.6113259,24.8007787 79.0488281,25.3164063 C79.4863303,25.8320338 79.7050781,26.519527 79.7050781,27.3789063 L79.7050781,28.0996094 L75.5917969,28.0996094 L75.5742188,28.1289063 C75.5859376,28.7382843 75.7402329,29.2392558 76.0371094,29.6318359 C76.3339859,30.024416 76.7499973,30.2207031 77.2851562,30.2207031 C77.6757832,30.2207031 78.0185532,30.1650396 78.3134766,30.0537109 C78.6083999,29.9423823 78.8632802,29.7890635 79.078125,29.59375 L79.5292969,30.34375 C79.3027332,30.5664074 79.0039081,30.7519524 78.6328125,30.9003906 C78.2617169,31.0488289 77.8125026,31.1230469 77.2851562,31.1230469 Z M77.109375,25.4511719 C76.7226543,25.4511719 76.3925795,25.6142562 76.1191406,25.9404297 C75.8457018,26.2666032 75.6777347,26.6757788 75.6152344,27.1679688 L75.6269531,27.1972656 L78.5507812,27.1972656 L78.5507812,27.0449219 C78.5507812,26.5917946 78.4296887,26.2128921 78.1875,25.9082031 C77.9453113,25.6035141 77.5859399,25.4511719 77.109375,25.4511719 Z M83.9179688,27.5371094 C83.9179688,25.9980392 84.2285125,24.6835992 84.8496094,23.59375 C85.4707062,22.5039008 86.1230435,21.7773456 86.8066406,21.4140625 L86.8417969,21.4199219 L87.0644531,22.0996094 C86.5292942,22.5175802 86.0634785,23.1874954 85.6669922,24.109375 C85.2705058,25.0312546 85.0722656,26.1699151 85.0722656,27.5253906 L85.0722656,27.6015625 C85.0722656,28.957038 85.2695293,30.0956985 85.6640625,31.0175781 C86.0585957,31.9394577 86.5253879,32.6269509 87.0644531,33.0800781 L86.8417969,33.7128906 L86.8066406,33.7128906 C86.1230435,33.3496076 85.4707062,32.6240289 84.8496094,31.5361328 C84.2285125,30.4482367 83.9179688,29.1328202 83.9179688,27.5898438 L83.9179688,27.5371094 Z M87.7089844,27.9472656 C87.7089844,26.9277293 87.9316384,26.1054719 88.3769531,25.4804688 C88.8222679,24.8554656 89.4374961,24.5429688 90.2226562,24.5429688 C90.625002,24.5429688 90.9785141,24.6240226 91.2832031,24.7861328 C91.5878921,24.948243 91.8417959,25.1816391 92.0449219,25.4863281 L92.1855469,24.6601563 L93.1054688,24.6601563 L93.1054688,31.0351563 C93.1054688,31.8476603 92.869143,32.4716775 92.3964844,32.9072266 C91.9238258,33.3427756 91.242192,33.5605469 90.3515625,33.5605469 C90.0468735,33.5605469 89.7177752,33.5185551 89.3642578,33.4345703 C89.0107404,33.3505855 88.6992201,33.2363288 88.4296875,33.0917969 L88.7226562,32.1953125 C88.9296885,32.3125006 89.179686,32.4072262 89.4726562,32.4794922 C89.7656265,32.5517582 90.0546861,32.5878906 90.3398438,32.5878906 C90.9023466,32.5878906 91.3115222,32.4599622 91.5673828,32.2041016 C91.8232435,31.9482409 91.9511719,31.5585964 91.9511719,31.0351563 L91.9511719,30.3203125 C91.7441396,30.5859388 91.4960952,30.7861321 91.2070312,30.9208984 C90.9179673,31.0556647 90.5859394,31.1230469 90.2109375,31.1230469 C89.4335899,31.1230469 88.8222679,30.8417997 88.3769531,30.2792969 C87.9316384,29.7167941 87.7089844,28.9804733 87.7089844,28.0703125 L87.7089844,27.9472656 Z M88.8632812,28.0703125 C88.8632812,28.7070344 88.9980455,29.2187481 89.2675781,29.6054688 C89.5371107,29.9921894 89.9472629,30.1855469 90.4980469,30.1855469 C90.8457049,30.1855469 91.1367176,30.1064461 91.3710938,29.9482422 C91.6054699,29.7900383 91.7988274,29.5664077 91.9511719,29.2773438 L91.9511719,26.359375 C91.8027336,26.0898424 91.6093762,25.8759774 91.3710938,25.7177734 C91.1328113,25.5595695 90.8457048,25.4804688 90.5097656,25.4804688 C89.9589816,25.4804688 89.5468764,25.7109352 89.2734375,26.171875 C88.9999986,26.6328148 88.8632812,27.2246058 88.8632812,27.9472656 L88.8632812,28.0703125 Z M97.78125,25.6796875 L97.1894531,25.6445313 C96.8847641,25.6445313 96.6279307,25.7167962 96.4189453,25.8613281 C96.2099599,26.0058601 96.0488287,26.2089831 95.9355469,26.4707031 L95.9355469,31 L94.78125,31 L94.78125,24.6601563 L95.8125,24.6601563 L95.9238281,25.5859375 C96.1035165,25.2578109 96.325194,25.001954 96.5888672,24.8183594 C96.8525404,24.6347647 97.1562483,24.5429688 97.5,24.5429688 C97.5859379,24.5429688 97.6679684,24.5498046 97.7460938,24.5634766 C97.8242191,24.5771485 97.8886716,24.5917968 97.9394531,24.6074219 L97.78125,25.6796875 Z M102.791016,31 C102.751953,30.8085928 102.72168,30.6396492 102.700195,30.4931641 C102.678711,30.346679 102.666016,30.1992195 102.662109,30.0507813 C102.447265,30.3554703 102.166994,30.6103505 101.821289,30.8154297 C101.475584,31.0205088 101.103518,31.1230469 100.705078,31.1230469 C100.044919,31.1230469 99.5419939,30.9541033 99.1962891,30.6162109 C98.8505842,30.2783186 98.6777344,29.812503 98.6777344,29.21875 C98.6777344,28.6132782 98.9228491,28.1396501 99.4130859,27.7978516 C99.9033228,27.456053 100.568355,27.2851563 101.408203,27.2851563 L102.662109,27.2851563 L102.662109,26.6582031 C102.662109,26.2871075 102.548829,25.9931651 102.322266,25.7763672 C102.095702,25.5595692 101.775393,25.4511719 101.361328,25.4511719 C100.990233,25.4511719 100.688478,25.5458975 100.456055,25.7353516 C100.223632,25.9248056 100.107422,26.1523424 100.107422,26.4179688 L99.0058594,26.4179688 L98.9941406,26.3828125 C98.970703,25.9218727 99.1884743,25.5000019 99.6474609,25.1171875 C100.106448,24.7343731 100.699215,24.5429688 101.425781,24.5429688 C102.144535,24.5429688 102.722654,24.7255841 103.160156,25.0908203 C103.597658,25.4560565 103.816406,25.9824184 103.816406,26.6699219 L103.816406,29.7226563 C103.816406,29.9492199 103.828125,30.1679677 103.851562,30.3789063 C103.875,30.5898448 103.917968,30.796874 103.980469,31 L102.791016,31 Z M100.875,30.15625 C101.292971,30.15625 101.66992,30.0488292 102.005859,29.8339844 C102.341799,29.6191396 102.560546,29.3730483 102.662109,29.0957031 L102.662109,28.0644531 L101.367188,28.0644531 C100.902341,28.0644531 100.530275,28.1816395 100.250977,28.4160156 C99.9716783,28.6503918 99.8320312,28.9257797 99.8320312,29.2421875 C99.8320312,29.5234389 99.919921,29.7460929 100.095703,29.9101563 C100.271485,30.0742196 100.531248,30.15625 100.875,30.15625 Z M107.34375,28.6503906 L107.548828,29.4472656 L107.583984,29.4472656 L109.142578,24.6601563 L110.425781,24.6601563 L107.759766,31.9726563 C107.599609,32.3984396 107.370119,32.7695297 107.071289,33.0859375 C106.772459,33.4023453 106.369143,33.5605469 105.861328,33.5605469 C105.767578,33.5605469 105.648438,33.5498048 105.503906,33.5283203 C105.359374,33.5068358 105.248047,33.4863282 105.169922,33.4667969 L105.287109,32.5585938 C105.263672,32.5546875 105.333007,32.5585937 105.495117,32.5703125 C105.657227,32.5820313 105.759765,32.5878906 105.802734,32.5878906 C106.048829,32.5878906 106.249999,32.4785167 106.40625,32.2597656 C106.562501,32.0410145 106.693359,31.7988295 106.798828,31.5332031 L107.074219,30.8710938 L104.71875,24.6601563 L106.007812,24.6601563 L107.34375,28.6503906 Z M117.539062,22.3457031 C117.832033,22.3457031 118.122069,22.3789059 118.40918,22.4453125 C118.69629,22.5117191 118.933593,22.5957026 119.121094,22.6972656 L118.875,23.5820313 C118.683593,23.4843745 118.483399,23.4052737 118.274414,23.3447266 C118.065429,23.2841794 117.820314,23.2539063 117.539062,23.2539063 C116.929684,23.2539063 116.438478,23.4980444 116.06543,23.9863281 C115.692381,24.4746118 115.505859,25.1113242 115.505859,25.8964844 L115.505859,26.03125 C115.755861,25.8124989 116.041991,25.6416022 116.364258,25.5185547 C116.686525,25.3955072 117.033201,25.3339844 117.404297,25.3339844 C118.166019,25.3339844 118.773435,25.5976536 119.226562,26.125 C119.67969,26.6523464 119.90625,27.3203085 119.90625,28.1289063 C119.90625,29.0117232 119.665041,29.7314425 119.182617,30.2880859 C118.700193,30.8447293 118.056645,31.1230469 117.251953,31.1230469 C116.416011,31.1230469 115.724612,30.8203155 115.177734,30.2148438 C114.630857,29.609372 114.357422,28.7558649 114.357422,27.6542969 L114.357422,26.0253906 C114.357422,24.9316352 114.662106,24.0449253 115.271484,23.3652344 C115.880862,22.6855435 116.636714,22.3457031 117.539062,22.3457031 Z M117.146484,26.1953125 C116.751951,26.1953125 116.416017,26.2753898 116.138672,26.4355469 C115.861327,26.5957039 115.650391,26.8085924 115.505859,27.0742188 L115.505859,27.765625 C115.505859,28.5507852 115.671873,29.1562479 116.003906,29.5820313 C116.335939,30.0078146 116.751951,30.2207031 117.251953,30.2207031 C117.724612,30.2207031 118.092772,30.0205098 118.356445,29.6201172 C118.620119,29.2197246 118.751953,28.7226592 118.751953,28.1289063 C118.751953,27.5664034 118.610353,27.1035174 118.327148,26.7402344 C118.043944,26.3769513 117.650393,26.1953125 117.146484,26.1953125 Z M126.433594,27.7480469 C126.433594,28.8378961 126.192385,29.6728487 125.709961,30.2529297 C125.227537,30.8330107 124.56641,31.1230469 123.726562,31.1230469 C122.886715,31.1230469 122.222659,30.8320342 121.734375,30.25 C121.246091,29.6679658 121.001953,28.8339898 121.001953,27.7480469 L121.001953,25.7265625 C121.001953,24.6406196 121.245115,23.805667 121.731445,23.2216797 C122.217776,22.6376924 122.878902,22.3457031 123.714844,22.3457031 C124.554692,22.3457031 125.217771,22.6376924 125.704102,23.2216797 C126.190432,23.805667 126.433594,24.6406196 126.433594,25.7265625 L126.433594,27.7480469 Z M125.279297,25.4804688 C125.279297,24.7421838 125.145509,24.1865253 124.87793,23.8134766 C124.61035,23.4404278 124.222659,23.2539063 123.714844,23.2539063 C123.207029,23.2539063 122.820314,23.4404278 122.554688,23.8134766 C122.289061,24.1865253 122.15625,24.7421838 122.15625,25.4804688 L122.15625,27.9824219 C122.15625,28.7207068 122.291014,29.2783184 122.560547,29.6552734 C122.830079,30.0322284 123.218747,30.2207031 123.726562,30.2207031 C124.234378,30.2207031 124.620116,30.033205 124.883789,29.6582031 C125.147462,29.2832013 125.279297,28.7246131 125.279297,27.9824219 L125.279297,25.4804688 Z M133.195312,27.7480469 C133.195312,28.8378961 132.954104,29.6728487 132.47168,30.2529297 C131.989255,30.8330107 131.328129,31.1230469 130.488281,31.1230469 C129.648433,31.1230469 128.984377,30.8320342 128.496094,30.25 C128.00781,29.6679658 127.763672,28.8339898 127.763672,27.7480469 L127.763672,25.7265625 C127.763672,24.6406196 128.006834,23.805667 128.493164,23.2216797 C128.979495,22.6376924 129.640621,22.3457031 130.476562,22.3457031 C131.31641,22.3457031 131.97949,22.6376924 132.46582,23.2216797 C132.952151,23.805667 133.195312,24.6406196 133.195312,25.7265625 L133.195312,27.7480469 Z M132.041016,25.4804688 C132.041016,24.7421838 131.907228,24.1865253 131.639648,23.8134766 C131.372069,23.4404278 130.984378,23.2539063 130.476562,23.2539063 C129.968747,23.2539063 129.582033,23.4404278 129.316406,23.8134766 C129.05078,24.1865253 128.917969,24.7421838 128.917969,25.4804688 L128.917969,27.9824219 C128.917969,28.7207068 129.052733,29.2783184 129.322266,29.6552734 C129.591798,30.0322284 129.980466,30.2207031 130.488281,30.2207031 C130.996096,30.2207031 131.381835,30.033205 131.645508,29.6582031 C131.909181,29.2832013 132.041016,28.7246131 132.041016,27.9824219 L132.041016,25.4804688 Z M137.044922,27.5898438 C137.044922,29.1328202 136.733402,30.4482367 136.110352,31.5361328 C135.487302,32.6240289 134.835941,33.3496076 134.15625,33.7128906 L134.121094,33.7128906 L133.898438,33.0800781 C134.425784,32.6699198 134.889646,31.9951219 135.290039,31.0556641 C135.690432,30.1162062 135.890625,28.9648506 135.890625,27.6015625 L135.890625,27.5253906 C135.890625,26.1894464 135.684572,25.0498094 135.272461,24.1064453 C134.86035,23.1630812 134.402346,22.4765646 133.898438,22.046875 L134.121094,21.4140625 L134.15625,21.4140625 C134.835941,21.7773456 135.487302,22.5039008 136.110352,23.59375 C136.733402,24.6835992 137.044922,25.9980392 137.044922,27.5371094 L137.044922,27.5898438 Z"></path>
                <path d="M2.20898438,48.0976563 L6.24609375,48.0976563 L6.24609375,49 L1.0546875,49 L1.0546875,40.46875 L2.20898438,40.46875 L2.20898438,48.0976563 Z M8.56640625,49 L7.41210938,49 L7.41210938,42.6601563 L8.56640625,42.6601563 L8.56640625,49 Z M8.56640625,41.0371094 L7.41210938,41.0371094 L7.41210938,39.859375 L8.56640625,39.859375 L8.56640625,41.0371094 Z M11.3730469,42.6601563 L11.4550781,43.6035156 C11.6660167,43.2675764 11.9306625,43.0068369 12.2490234,42.8212891 C12.5673844,42.6357413 12.9296855,42.5429688 13.3359375,42.5429688 C14.0195347,42.5429688 14.5488263,42.7431621 14.9238281,43.1435547 C15.29883,43.5439473 15.4863281,44.1621052 15.4863281,44.9980469 L15.4863281,49 L14.3320312,49 L14.3320312,45.0214844 C14.3320312,44.4628878 14.2216808,44.0664074 14.0009766,43.8320313 C13.7802723,43.5976551 13.4433616,43.4804688 12.9902344,43.4804688 C12.6582015,43.4804688 12.3642591,43.5605461 12.1083984,43.7207031 C11.8525378,43.8808602 11.6484383,44.099608 11.4960938,44.3769531 L11.4960938,49 L10.3417969,49 L10.3417969,42.6601563 L11.3730469,42.6601563 Z M19.7929688,49.1230469 C18.9101518,49.1230469 18.2080104,48.8291045 17.6865234,48.2412109 C17.1650365,47.6533174 16.9042969,46.8906297 16.9042969,45.953125 L16.9042969,45.6953125 C16.9042969,44.7929642 17.1728489,44.0419952 17.7099609,43.4423828 C18.247073,42.8427704 18.8828088,42.5429688 19.6171875,42.5429688 C20.4726605,42.5429688 21.1191384,42.8007787 21.5566406,43.3164063 C21.9941428,43.8320338 22.2128906,44.519527 22.2128906,45.3789063 L22.2128906,46.0996094 L18.0996094,46.0996094 L18.0820312,46.1289063 C18.0937501,46.7382843 18.2480454,47.2392558 18.5449219,47.6318359 C18.8417984,48.024416 19.2578098,48.2207031 19.7929688,48.2207031 C20.1835957,48.2207031 20.5263657,48.1650396 20.8212891,48.0537109 C21.1162124,47.9423823 21.3710927,47.7890635 21.5859375,47.59375 L22.0371094,48.34375 C21.8105457,48.5664074 21.5117206,48.7519524 21.140625,48.9003906 C20.7695294,49.0488289 20.3203151,49.1230469 19.7929688,49.1230469 Z M19.6171875,43.4511719 C19.2304668,43.4511719 18.900392,43.6142562 18.6269531,43.9404297 C18.3535143,44.2666032 18.1855472,44.6757788 18.1230469,45.1679688 L18.1347656,45.1972656 L21.0585938,45.1972656 L21.0585938,45.0449219 C21.0585938,44.5917946 20.9375012,44.2128921 20.6953125,43.9082031 C20.4531238,43.6035141 20.0937524,43.4511719 19.6171875,43.4511719 Z M33.1582031,49 L32.0039062,49 L32.0039062,45.2324219 L27.8613281,45.2324219 L27.8613281,49 L26.7070313,49 L26.7070313,40.46875 L27.8613281,40.46875 L27.8613281,44.3242188 L32.0039062,44.3242188 L32.0039062,40.46875 L33.1582031,40.46875 L33.1582031,49 Z M37.6816406,49.1230469 C36.7988237,49.1230469 36.0966823,48.8291045 35.5751953,48.2412109 C35.0537083,47.6533174 34.7929688,46.8906297 34.7929688,45.953125 L34.7929688,45.6953125 C34.7929688,44.7929642 35.0615208,44.0419952 35.5986328,43.4423828 C36.1357449,42.8427704 36.7714807,42.5429688 37.5058594,42.5429688 C38.3613324,42.5429688 39.0078103,42.8007787 39.4453125,43.3164063 C39.8828147,43.8320338 40.1015625,44.519527 40.1015625,45.3789063 L40.1015625,46.0996094 L35.9882812,46.0996094 L35.9707031,46.1289063 C35.9824219,46.7382843 36.1367173,47.2392558 36.4335938,47.6318359 C36.7304702,48.024416 37.1464817,48.2207031 37.6816406,48.2207031 C38.0722676,48.2207031 38.4150376,48.1650396 38.7099609,48.0537109 C39.0048843,47.9423823 39.2597646,47.7890635 39.4746094,47.59375 L39.9257812,48.34375 C39.6992176,48.5664074 39.4003925,48.7519524 39.0292969,48.9003906 C38.6582013,49.0488289 38.208987,49.1230469 37.6816406,49.1230469 Z M37.5058594,43.4511719 C37.1191387,43.4511719 36.7890639,43.6142562 36.515625,43.9404297 C36.2421861,44.2666032 36.0742191,44.6757788 36.0117188,45.1679688 L36.0234375,45.1972656 L38.9472656,45.1972656 L38.9472656,45.0449219 C38.9472656,44.5917946 38.8261731,44.2128921 38.5839844,43.9082031 C38.3417957,43.6035141 37.9824243,43.4511719 37.5058594,43.4511719 Z M42.6445312,49 L41.4902344,49 L41.4902344,42.6601563 L42.6445312,42.6601563 L42.6445312,49 Z M42.6445312,41.0371094 L41.4902344,41.0371094 L41.4902344,39.859375 L42.6445312,39.859375 L42.6445312,41.0371094 Z M44.1679688,45.9472656 C44.1679688,44.9277293 44.3906228,44.1054719 44.8359375,43.4804688 C45.2812522,42.8554656 45.8964804,42.5429688 46.6816406,42.5429688 C47.0839864,42.5429688 47.4374985,42.6240226 47.7421875,42.7861328 C48.0468765,42.948243 48.3007802,43.1816391 48.5039062,43.4863281 L48.6445312,42.6601563 L49.5644531,42.6601563 L49.5644531,49.0351563 C49.5644531,49.8476603 49.3281274,50.4716775 48.8554688,50.9072266 C48.3828101,51.3427756 47.7011763,51.5605469 46.8105469,51.5605469 C46.5058579,51.5605469 46.1767596,51.5185551 45.8232422,51.4345703 C45.4697248,51.3505855 45.1582045,51.2363288 44.8886719,51.0917969 L45.1816406,50.1953125 C45.3886729,50.3125006 45.6386704,50.4072262 45.9316406,50.4794922 C46.2246108,50.5517582 46.5136704,50.5878906 46.7988281,50.5878906 C47.3613309,50.5878906 47.7705065,50.4599622 48.0263672,50.2041016 C48.2822278,49.9482409 48.4101562,49.5585964 48.4101562,49.0351563 L48.4101562,48.3203125 C48.203124,48.5859388 47.9550796,48.7861321 47.6660156,48.9208984 C47.3769517,49.0556647 47.0449237,49.1230469 46.6699219,49.1230469 C45.8925742,49.1230469 45.2812522,48.8417997 44.8359375,48.2792969 C44.3906228,47.7167941 44.1679688,46.9804733 44.1679688,46.0703125 L44.1679688,45.9472656 Z M45.3222656,46.0703125 C45.3222656,46.7070344 45.4570299,47.2187481 45.7265625,47.6054688 C45.9960951,47.9921894 46.4062472,48.1855469 46.9570312,48.1855469 C47.3046892,48.1855469 47.595702,48.1064461 47.8300781,47.9482422 C48.0644543,47.7900383 48.2578117,47.5664077 48.4101562,47.2773438 L48.4101562,44.359375 C48.261718,44.0898424 48.0683606,43.8759774 47.8300781,43.7177734 C47.5917957,43.5595695 47.3046892,43.4804688 46.96875,43.4804688 C46.417966,43.4804688 46.0058607,43.7109352 45.7324219,44.171875 C45.458983,44.6328148 45.3222656,45.2246058 45.3222656,45.9472656 L45.3222656,46.0703125 Z M52.3945312,43.5097656 C52.6132823,43.2050766 52.8818343,42.9677743 53.2001953,42.7978516 C53.5185563,42.6279288 53.8710918,42.5429688 54.2578125,42.5429688 C54.9335971,42.5429688 55.4599591,42.7460917 55.8369141,43.1523438 C56.2138691,43.5585958 56.4023438,44.1835895 56.4023438,45.0273438 L56.4023438,49 L55.2480469,49 L55.2480469,45.015625 C55.2480469,44.4921849 55.1357433,44.10547 54.9111328,43.8554688 C54.6865223,43.6054675 54.3515647,43.4804688 53.90625,43.4804688 C53.5859359,43.4804688 53.2958997,43.5556633 53.0361328,43.7060547 C52.7763659,43.8564461 52.5625008,44.0605456 52.3945312,44.3183594 L52.3945312,49 L51.2402344,49 L51.2402344,39.859375 L52.3945312,39.859375 L52.3945312,43.5097656 Z M59.5839844,41.1308594 L59.5839844,42.6601563 L60.7851563,42.6601563 L60.7851563,43.515625 L59.5839844,43.515625 L59.5839844,47.3652344 C59.5839844,47.6621109 59.6455072,47.8710931 59.7685547,47.9921875 C59.8916022,48.1132819 60.0546865,48.1738281 60.2578125,48.1738281 C60.3242191,48.1738281 60.3974605,48.1660157 60.4775391,48.1503906 C60.5576176,48.1347655 60.6289059,48.1152345 60.6914063,48.0917969 L60.84375,48.8828125 C60.7578121,48.9531254 60.6318368,49.010742 60.4658203,49.0556641 C60.2998039,49.1005862 60.1328133,49.1230469 59.9648438,49.1230469 C59.4960914,49.1230469 59.1230483,48.9814467 58.8457031,48.6982422 C58.568358,48.4150376 58.4296875,47.9707062 58.4296875,47.3652344 L58.4296875,43.515625 L57.421875,43.515625 L57.421875,42.6601563 L58.4296875,42.6601563 L58.4296875,41.1308594 L59.5839844,41.1308594 Z M63.46875,49 L62.3144531,49 L62.3144531,47.8164063 L63.46875,47.8164063 L63.46875,49 Z M63.46875,43.8671875 L62.3144531,43.8671875 L62.3144531,42.6835938 L63.46875,42.6835938 L63.46875,43.8671875 Z M71.3730469,49 L70.21875,49 L70.21875,41.59375 L68.4726562,41.6171875 L68.4726562,40.7851563 L71.3730469,40.46875 L71.3730469,49 Z M76.2363281,49 L75.0820312,49 L75.0820312,47.8164063 L76.2363281,47.8164063 L76.2363281,49 Z M78.375,45.1503906 L78.8671875,40.46875 L83.1386719,40.46875 L83.1386719,41.4941406 L79.8457031,41.4941406 L79.5644531,43.890625 C79.7441415,43.7578118 79.9443348,43.6474614 80.1650391,43.5595703 C80.3857433,43.4716792 80.6406236,43.4238282 80.9296875,43.4160156 C81.7148477,43.4082031 82.3330056,43.6640599 82.7841797,44.1835938 C83.2353538,44.7031276 83.4609375,45.4023394 83.4609375,46.28125 C83.4609375,47.136723 83.2314476,47.8242162 82.7724609,48.34375 C82.3134743,48.8632838 81.6445356,49.1230469 80.765625,49.1230469 C80.0429651,49.1230469 79.4414087,48.9257832 78.9609375,48.53125 C78.4804663,48.1367168 78.2499999,47.5566445 78.2695312,46.7910156 L78.28125,46.7558594 L79.3242187,46.7558594 C79.3242187,47.2207054 79.4580065,47.5810534 79.7255859,47.8369141 C79.9931654,48.0927747 80.3398416,48.2207031 80.765625,48.2207031 C81.2539087,48.2207031 81.6328112,48.0488298 81.9023437,47.7050781 C82.1718763,47.3613264 82.3066406,46.890628 82.3066406,46.2929688 C82.3066406,45.746091 82.1699232,45.2968768 81.8964844,44.9453125 C81.6230455,44.5937482 81.2460962,44.4179688 80.765625,44.4179688 C80.3124977,44.4179688 79.984376,44.4863274 79.78125,44.6230469 C79.578124,44.7597663 79.429688,44.9687486 79.3359375,45.25 L78.375,45.1503906 Z"></path>
            </g>
            <g transform="translate(147.500000, 66.000000) scale(-1, 1) translate(-147.500000, -66.000000) translate(60.000000, 41.000000)">
                <path d="M0,24.75 L175,24.75" stroke="#EC407A"></path>
                <g transform="translate(168.000000, 21.250000)">
                    <g>
                        <g fill="#FFFFFF">
                            <polygon points="7 3.5 0 7 0 0"></polygon>
                        </g>
                        <polygon stroke="#EC407A" points="5.88196601 3.5 0.5 0.809016994 0.5 6.19098301"></polygon>
                    </g>
                </g>
                <path d="M0.5,0.5 L0.5,49.5" stroke="#F0367A" stroke-linecap="square"></path>
            </g>
        </g>
    </g>
</svg>