<?xml version="1.0" encoding="UTF-8" standalone="no"?>
<svg width="210px" height="198px" viewBox="0 0 210 198" version="1.1" xmlns="http://www.w3.org/2000/svg" xmlns:xlink="http://www.w3.org/1999/xlink">
    <!-- Generator: Sketch 47.1 (45422) - http://www.bohemiancoding.com/sketch -->
    <title>text-fields-hero-image</title>
    <desc>Created with Sketch.</desc>
    <defs></defs>
    <g stroke="none" stroke-width="1" fill="none" fill-rule="evenodd">
        <g>
            <g>
                <g>
                    <g transform="translate(0.000000, 18.000000)">
                        <g transform="translate(1.000000, 1.000000)" fill-rule="nonzero" fill="#FFFFFF">
                            <rect x="0" y="0" width="208" height="30" rx="2"></rect>
                        </g>
                        <rect stroke="#BDBDBD" x="0.5" y="0.5" width="209" height="31" rx="2"></rect>
                    </g>
                    <g fill="#6B6B6B" fill-rule="nonzero">
                        <path d="M1.57714844,9.9472656 L6.28710937,9.9472656 L6.28710937,11 L0.23046875,11 L0.23046875,1.046875 L1.57714844,1.046875 L1.57714844,9.9472656 Z M12.0839844,11 C12.0384112,10.7766916 12.0030926,10.5795907 11.9780273,10.4086914 C11.9529621,10.2377921 11.9381511,10.0657561 11.9335938,9.8925781 C11.6829415,10.2480487 11.355959,10.545409 10.9526367,10.784668 C10.5493144,11.023927 10.1152367,11.1435547 9.6503906,11.1435547 C8.88020448,11.1435547 8.29345905,10.9464538 7.89013672,10.5522461 C7.48681439,10.1580384 7.28515625,9.6145868 7.28515625,8.921875 C7.28515625,8.2154913 7.57112344,7.6629252 8.14306641,7.2641602 C8.71500937,6.8653951 9.4908805,6.6660156 10.4707031,6.6660156 L11.9335938,6.6660156 L11.9335938,5.93457031 C11.9335938,5.50162544 11.8014336,5.15869267 11.5371094,4.90576172 C11.2727851,4.65283077 10.899091,4.52636719 10.4160156,4.52636719 C9.9830708,4.52636719 9.6310235,4.63688041 9.3598633,4.85791016 C9.0887031,5.07893991 8.953125,5.34439949 8.953125,5.65429688 L7.66796875,5.65429688 L7.65429688,5.61328125 C7.62695299,5.07551814 7.88101946,4.58333557 8.41650391,4.13671875 C8.95198835,3.69010193 9.6435504,3.46679688 10.4912109,3.46679688 C11.3297568,3.46679688 12.0042292,3.67984813 12.5146484,4.10595703 C13.0250677,4.53206593 13.2802734,5.14615484 13.2802734,5.94824219 L13.2802734,9.5097656 C13.2802734,9.7740899 13.2939452,10.0292956 13.3212891,10.2753906 C13.3486329,10.5214856 13.3987627,10.7630196 13.4716797,11 L12.0839844,11 Z M9.8486328,10.015625 C10.3362655,10.015625 10.7760397,9.8903007 11.1679688,9.6396484 C11.5598978,9.3889961 11.8151036,9.1018896 11.9335938,8.7783203 L11.9335938,7.5751953 L10.4228516,7.5751953 C9.8805311,7.5751953 9.4464535,7.7119127 9.1206055,7.9853516 C8.79475749,8.2587904 8.63183594,8.5800763 8.63183594,8.9492188 C8.63183594,9.2773454 8.73437397,9.5371084 8.93945312,9.7285156 C9.1445323,9.9199228 9.4475891,10.015625 9.8486328,10.015625 Z M21.5517578,7.5820312 C21.5517578,8.6484428 21.2954127,9.508623 20.7827148,10.1625977 C20.270017,10.8165723 19.5647831,11.1435547 18.6669922,11.1435547 C18.1793595,11.1435547 17.7555357,11.0489918 17.3955078,10.8598633 C17.03548,10.6707347 16.7369804,10.3916034 16.5,10.0224609 L16.3359375,11 L15.2353516,11 L15.2353516,0.3359375 L16.5820312,0.3359375 L16.5820312,4.47851562 C16.8144543,4.15038898 17.1027001,3.89974045 17.4467773,3.7265625 C17.7908546,3.55338455 18.1930316,3.46679688 18.6533203,3.46679688 C19.5647832,3.46679688 20.2757136,3.83137656 20.7861328,4.56054688 C21.296552,5.28971719 21.5517578,6.2490175 21.5517578,7.4384766 L21.5517578,7.5820312 Z M20.2050781,7.4384766 C20.2050781,6.5908161 20.0489924,5.89925398 19.7368164,5.36376953 C19.4246404,4.82828508 18.9495475,4.56054688 18.3115234,4.56054688 C17.8968078,4.56054688 17.5470392,4.6619456 17.262207,4.86474609 C16.9773749,5.06754659 16.7506519,5.33984204 16.5820312,5.68164062 L16.5820312,8.8876953 C16.7552092,9.2522805 16.9819322,9.5371083 17.262207,9.7421875 C17.5424819,9.9472667 17.8968078,10.0498047 18.3251953,10.0498047 C18.958662,10.0498047 19.430337,9.824221 19.7402344,9.3730469 C20.0501318,8.9218727 20.2050781,8.3248735 20.2050781,7.5820312 L20.2050781,7.4384766 Z M26.2617188,11.1435547 C25.2317657,11.1435547 24.4126007,10.8006219 23.8041992,10.1147461 C23.1957977,9.4288703 22.8916016,8.539068 22.8916016,7.4453125 L22.8916016,7.1445312 C22.8916016,6.0917916 23.2049122,5.21566105 23.831543,4.51611328 C24.4581737,3.81656551 25.1998655,3.46679688 26.0566406,3.46679688 C27.0546925,3.46679688 27.8089167,3.76757512 28.3193359,4.36914062 C28.8297552,4.97070613 29.0849609,5.77278145 29.0849609,6.7753906 L29.0849609,7.6162109 L24.2861328,7.6162109 L24.265625,7.6503906 C24.2792969,8.3613317 24.4593082,8.9457985 24.8056641,9.4038086 C25.15202,9.8618187 25.6373667,10.0908203 26.2617188,10.0908203 C26.7174502,10.0908203 27.1173485,10.0258796 27.4614258,9.8959961 C27.805503,9.7661126 28.1028633,9.5872407 28.3535156,9.359375 L28.8798828,10.234375 C28.6155586,10.4941419 28.2669292,10.7106111 27.8339844,10.8837891 C27.4010395,11.056967 26.8769562,11.1435547 26.2617188,11.1435547 Z M26.0566406,4.52636719 C25.6054665,4.52636719 25.2203792,4.71663221 24.9013672,5.09716797 C24.5823552,5.47770373 24.3863936,5.95507525 24.3134766,6.5292969 L24.3271484,6.5634766 L27.7382812,6.5634766 L27.7382812,6.3857422 C27.7382812,5.85709371 27.5970066,5.41504084 27.3144531,5.05957031 C27.0318996,4.70409979 26.612633,4.52636719 26.0566406,4.52636719 Z M32.0517578,11 L30.7050781,11 L30.7050781,0.3359375 L32.0517578,0.3359375 L32.0517578,11 Z"></path>
                    </g>
                    <g transform="translate(0.000000, 54.000000)" fill="#6B6B6B" fill-rule="nonzero">
                        <path d="M6.50585937,10 L5.3515625,10 L5.3515625,6.23242188 L1.20898438,6.23242188 L1.20898438,10 L0.0546875,10 L0.0546875,1.46875 L1.20898438,1.46875 L1.20898438,5.32421875 L5.3515625,5.32421875 L5.3515625,1.46875 L6.50585937,1.46875 L6.50585937,10 Z M11.0292969,10.1230469 C10.14648,10.1230469 9.4443385,9.8291045 8.92285156,9.2412109 C8.40136458,8.6533174 8.140625,7.8906297 8.140625,6.953125 L8.140625,6.6953125 C8.140625,5.79296424 8.409177,5.04199519 8.94628906,4.44238281 C9.4834011,3.84277044 10.119137,3.54296875 10.8535156,3.54296875 C11.7089887,3.54296875 12.3554666,3.80077867 12.7929688,4.31640625 C13.2304709,4.83203383 13.4492188,5.51952695 13.4492188,6.37890625 L13.4492188,7.0996094 L9.3359375,7.0996094 L9.3183594,7.1289062 C9.3300782,7.7382843 9.4843735,8.2392558 9.78125,8.6318359 C10.0781265,9.024416 10.4941379,9.2207031 11.0292969,9.2207031 C11.4199238,9.2207031 11.7626938,9.1650396 12.0576172,9.0537109 C12.3525405,8.9423823 12.6074208,8.7890635 12.8222656,8.59375 L13.2734375,9.34375 C13.0468739,9.5664074 12.7480487,9.7519524 12.3769531,9.9003906 C12.0058575,10.0488289 11.5566433,10.1230469 11.0292969,10.1230469 Z M10.8535156,4.45117188 C10.4667949,4.45117188 10.1367201,4.61425618 9.8632812,4.94042969 C9.5898424,5.26660319 9.4218753,5.67577879 9.359375,6.16796875 L9.3710938,6.19726562 L12.2949219,6.19726562 L12.2949219,6.04492188 C12.2949219,5.59179461 12.1738293,5.21289215 11.9316406,4.90820312 C11.6894519,4.6035141 11.3300805,4.45117188 10.8535156,4.45117188 Z M15.9921875,10 L14.8378906,10 L14.8378906,0.859375 L15.9921875,0.859375 L15.9921875,10 Z M23.1699219,7.0703125 C23.1699219,7.9843796 22.9511741,8.7216769 22.5136719,9.2822266 C22.0761697,9.8427762 21.4726601,10.1230469 20.703125,10.1230469 C20.312498,10.1230469 19.969728,10.0576178 19.6748047,9.9267578 C19.3798813,9.7958978 19.1289073,9.5996107 18.921875,9.3378906 L18.921875,12.4375 L17.7675781,12.4375 L17.7675781,3.66015625 L18.6523438,3.66015625 L18.8339844,4.48046875 C19.0410167,4.17577973 19.2988266,3.94336018 19.6074219,3.78320312 C19.9160172,3.62304607 20.2753886,3.54296875 20.6855469,3.54296875 C21.4707071,3.54296875 22.0810525,3.85448907 22.5166016,4.47753906 C22.9521506,5.10058905 23.1699219,5.92382301 23.1699219,6.94726562 L23.1699219,7.0703125 Z M22.015625,6.94726562 C22.015625,6.22851203 21.8740249,5.63769763 21.5908203,5.17480469 C21.3076158,4.71191175 20.8906278,4.48046875 20.3398438,4.48046875 C20.0078108,4.48046875 19.7246105,4.55566331 19.4902344,4.70605469 C19.2558582,4.85644606 19.066407,5.06249869 18.921875,5.32421875 L18.921875,8.3886719 C19.066407,8.6503919 19.2558582,8.8544915 19.4902344,9.0009766 C19.7246105,9.1474617 20.0117171,9.2207031 20.3515625,9.2207031 C20.8984402,9.2207031 21.3124986,9.0205098 21.59375,8.6201172 C21.8750014,8.2197246 22.015625,7.7031282 22.015625,7.0703125 L22.015625,6.94726562 Z M27.21875,10.1230469 C26.3359331,10.1230469 25.6337917,9.8291045 25.1123047,9.2412109 C24.5908177,8.6533174 24.3300781,7.8906297 24.3300781,6.953125 L24.3300781,6.6953125 C24.3300781,5.79296424 24.5986301,5.04199519 25.1357422,4.44238281 C25.6728542,3.84277044 26.3085901,3.54296875 27.0429687,3.54296875 C27.8984418,3.54296875 28.5449197,3.80077867 28.9824219,4.31640625 C29.4199241,4.83203383 29.6386719,5.51952695 29.6386719,6.37890625 L29.6386719,7.0996094 L25.5253906,7.0996094 L25.5078125,7.1289062 C25.5195313,7.7382843 25.6738266,8.2392558 25.9707031,8.6318359 C26.2675796,9.024416 26.6835911,9.2207031 27.21875,9.2207031 C27.609377,9.2207031 27.952147,9.1650396 28.2470703,9.0537109 C28.5419937,8.9423823 28.7968739,8.7890635 29.0117187,8.59375 L29.4628906,9.34375 C29.236327,9.5664074 28.9375019,9.7519524 28.5664062,9.9003906 C28.1953106,10.0488289 27.7460964,10.1230469 27.21875,10.1230469 Z M27.0429687,4.45117188 C26.6562481,4.45117188 26.3261732,4.61425618 26.0527344,4.94042969 C25.7792955,5.26660319 25.6113284,5.67577879 25.5488281,6.16796875 L25.5605469,6.19726562 L28.484375,6.19726562 L28.484375,6.04492188 C28.484375,5.59179461 28.3632825,5.21289215 28.1210937,4.90820312 C27.878905,4.6035141 27.5195336,4.45117188 27.0429687,4.45117188 Z M33.9335937,4.6796875 L33.3417969,4.64453125 C33.0371079,4.64453125 32.7802745,4.71679615 32.5712891,4.86132812 C32.3623036,5.0058601 32.2011724,5.20898307 32.0878906,5.47070312 L32.0878906,10 L30.9335937,10 L30.9335937,3.66015625 L31.9648437,3.66015625 L32.0761719,4.5859375 C32.2558603,4.25781086 32.4775377,4.00195404 32.7412109,3.81835938 C33.0048841,3.63476471 33.308592,3.54296875 33.6523437,3.54296875 C33.7382817,3.54296875 33.8203121,3.54980462 33.8984375,3.56347656 C33.9765629,3.57714851 34.0410154,3.5917968 34.0917969,3.60742188 L33.9335937,4.6796875 Z M39.5527344,2.13085938 L39.5527344,3.66015625 L40.7539062,3.66015625 L40.7539062,4.515625 L39.5527344,4.515625 L39.5527344,8.3652344 C39.5527344,8.6621109 39.6142572,8.8710931 39.7373047,8.9921875 C39.8603522,9.1132819 40.0234365,9.1738281 40.2265625,9.1738281 C40.2929691,9.1738281 40.3662105,9.1660157 40.4462891,9.1503906 C40.5263676,9.1347655 40.5976559,9.1152345 40.6601562,9.0917969 L40.8125,9.8828125 C40.7265621,9.9531254 40.6005868,10.010742 40.4345703,10.0556641 C40.2685539,10.1005862 40.1015633,10.1230469 39.9335938,10.1230469 C39.4648414,10.1230469 39.0917983,9.9814467 38.8144531,9.6982422 C38.537108,9.4150376 38.3984375,8.9707062 38.3984375,8.3652344 L38.3984375,4.515625 L37.390625,4.515625 L37.390625,3.66015625 L38.3984375,3.66015625 L38.3984375,2.13085938 L39.5527344,2.13085938 Z M44.8085937,10.1230469 C43.9257768,10.1230469 43.2236354,9.8291045 42.7021484,9.2412109 C42.1806615,8.6533174 41.9199219,7.8906297 41.9199219,6.953125 L41.9199219,6.6953125 C41.9199219,5.79296424 42.1884739,5.04199519 42.7255859,4.44238281 C43.262698,3.84277044 43.8984338,3.54296875 44.6328125,3.54296875 C45.4882855,3.54296875 46.1347634,3.80077867 46.5722656,4.31640625 C47.0097678,4.83203383 47.2285156,5.51952695 47.2285156,6.37890625 L47.2285156,7.0996094 L43.1152344,7.0996094 L43.0976562,7.1289062 C43.1093751,7.7382843 43.2636704,8.2392558 43.5605469,8.6318359 C43.8574234,9.024416 44.2734348,9.2207031 44.8085937,9.2207031 C45.1992207,9.2207031 45.5419907,9.1650396 45.8369141,9.0537109 C46.1318374,8.9423823 46.3867177,8.7890635 46.6015625,8.59375 L47.0527344,9.34375 C46.8261707,9.5664074 46.5273456,9.7519524 46.15625,9.9003906 C45.7851544,10.0488289 45.3359401,10.1230469 44.8085937,10.1230469 Z M44.6328125,4.45117188 C44.2460918,4.45117188 43.916017,4.61425618 43.6425781,4.94042969 C43.3691393,5.26660319 43.2011722,5.67577879 43.1386719,6.16796875 L43.1503906,6.19726562 L46.0742187,6.19726562 L46.0742187,6.04492188 C46.0742187,5.59179461 45.9531262,5.21289215 45.7109375,4.90820312 C45.4687488,4.6035141 45.1093774,4.45117188 44.6328125,4.45117188 Z M50.6738281,5.99804688 L52.0214844,3.66015625 L53.3691406,3.66015625 L51.3125,6.79492188 L53.4277344,10 L52.1035156,10 L50.6972656,7.6035156 L49.2910156,10 L47.9550781,10 L50.0703125,6.79492188 L48.0136719,3.66015625 L49.34375,3.66015625 L50.6738281,5.99804688 Z M56.0820312,2.13085938 L56.0820312,3.66015625 L57.2832031,3.66015625 L57.2832031,4.515625 L56.0820312,4.515625 L56.0820312,8.3652344 C56.0820312,8.6621109 56.1435541,8.8710931 56.2666016,8.9921875 C56.3896491,9.1132819 56.5527334,9.1738281 56.7558594,9.1738281 C56.822266,9.1738281 56.8955074,9.1660157 56.9755859,9.1503906 C57.0556645,9.1347655 57.1269528,9.1152345 57.1894531,9.0917969 L57.3417969,9.8828125 C57.2558589,9.9531254 57.1298836,10.010742 56.9638672,10.0556641 C56.7978507,10.1005862 56.6308602,10.1230469 56.4628906,10.1230469 C55.9941383,10.1230469 55.6210951,9.9814467 55.34375,9.6982422 C55.0664049,9.4150376 54.9277344,8.9707062 54.9277344,8.3652344 L54.9277344,4.515625 L53.9199219,4.515625 L53.9199219,3.66015625 L54.9277344,3.66015625 L54.9277344,2.13085938 L56.0820312,2.13085938 Z"></path>
                    </g>
                </g>
                <path d="M11.03125,40 L9.484375,40 L9.484375,28.625 L11.03125,28.625 L11.03125,40 Z M15.015625,31.546875 L15.125,32.8046875 C15.4062514,32.3567686 15.7591125,32.0091158 16.1835938,31.7617188 C16.608075,31.5143217 17.0911431,31.390625 17.6328125,31.390625 C18.5442754,31.390625 19.2499975,31.6575494 19.75,32.1914062 C20.2500025,32.7252631 20.5,33.5494736 20.5,34.6640625 L20.5,40 L18.9609375,40 L18.9609375,34.6953125 C18.9609375,33.9505171 18.8138036,33.4218766 18.5195312,33.109375 C18.2252589,32.7968734 17.7760447,32.640625 17.171875,32.640625 C16.7291645,32.640625 16.3372413,32.7473948 15.9960938,32.9609375 C15.6549462,33.1744802 15.3828135,33.466144 15.1796875,33.8359375 L15.1796875,40 L13.640625,40 L13.640625,31.546875 L15.015625,31.546875 Z M29.9375,36.09375 C29.9375,37.3125061 29.6458363,38.2955692 29.0625,39.0429688 C28.4791637,39.7903683 27.6744843,40.1640625 26.6484375,40.1640625 C26.1276016,40.1640625 25.6705749,40.0768238 25.2773438,39.9023438 C24.8841126,39.7278637 24.5494805,39.4661476 24.2734375,39.1171875 L24.2734375,43.25 L22.734375,43.25 L22.734375,31.546875 L23.9140625,31.546875 L24.15625,32.640625 C24.432293,32.234373 24.7760396,31.9244802 25.1875,31.7109375 C25.5989604,31.4973948 26.0781223,31.390625 26.625,31.390625 C27.6718802,31.390625 28.4856742,31.8059854 29.0664062,32.6367188 C29.6471383,33.4674521 29.9375,34.5650973 29.9375,35.9296875 L29.9375,36.09375 Z M28.3984375,35.9296875 C28.3984375,34.9713494 28.2096373,34.1835968 27.8320312,33.5664062 C27.4544252,32.9492157 26.8984412,32.640625 26.1640625,32.640625 C25.721352,32.640625 25.3437516,32.7408844 25.03125,32.9414062 C24.7187484,33.1419281 24.4661468,33.4166649 24.2734375,33.765625 L24.2734375,37.8515625 C24.4661468,38.2005226 24.7187484,38.4726553 25.03125,38.6679688 C25.3437516,38.8632822 25.7265602,38.9609375 26.1796875,38.9609375 C26.9088578,38.9609375 27.4609356,38.6940131 27.8359375,38.1601562 C28.2109394,37.6262994 28.3984375,36.9375042 28.3984375,36.09375 L28.3984375,35.9296875 Z M37.1953125,38.75 C36.9296862,39.2031273 36.5885437,39.5520821 36.171875,39.796875 C35.7552063,40.0416679 35.2734402,40.1640625 34.7265625,40.1640625 C33.8046829,40.1640625 33.0859401,39.8697946 32.5703125,39.28125 C32.0546849,38.6927054 31.796875,37.7760479 31.796875,36.53125 L31.796875,31.546875 L33.3359375,31.546875 L33.3359375,36.546875 C33.3359375,37.4479212 33.4687487,38.0677066 33.734375,38.40625 C34.0000013,38.7447934 34.4140597,38.9140625 34.9765625,38.9140625 C35.5234402,38.9140625 35.9752586,38.8033865 36.3320312,38.5820312 C36.6888039,38.360676 36.9583324,38.046877 37.140625,37.640625 L37.140625,31.546875 L38.6796875,31.546875 L38.6796875,40 L37.296875,40 L37.1953125,38.75 Z M42.953125,29.5078125 L42.953125,31.546875 L44.5546875,31.546875 L44.5546875,32.6875 L42.953125,32.6875 L42.953125,37.8203125 C42.953125,38.2161478 43.0351554,38.4947909 43.1992188,38.65625 C43.3632821,38.8177091 43.5807278,38.8984375 43.8515625,38.8984375 C43.9401046,38.8984375 44.0377599,38.8880209 44.1445312,38.8671875 C44.2513026,38.8463541 44.3463537,38.8203127 44.4296875,38.7890625 L44.6328125,39.84375 C44.5182286,39.9375005 44.3502615,40.0143226 44.1289062,40.0742188 C43.907551,40.1341149 43.684897,40.1640625 43.4609375,40.1640625 C42.8359344,40.1640625 42.3385435,39.9752623 41.96875,39.5976562 C41.5989565,39.2200502 41.4140625,38.6276082 41.4140625,37.8203125 L41.4140625,32.6875 L40.0703125,32.6875 L40.0703125,31.546875 L41.4140625,31.546875 L41.4140625,29.5078125 L42.953125,29.5078125 Z M53.25,37.5078125 L53.3828125,38.1015625 L53.4296875,38.1015625 L53.578125,37.5078125 L55.5234375,31.546875 L57.09375,31.546875 L53.984375,40 L52.8203125,40 L49.671875,31.546875 L51.25,31.546875 L53.25,37.5078125 Z M63.5546875,40 C63.5026039,39.7447904 63.4622397,39.5195322 63.4335938,39.3242188 C63.4049478,39.1289053 63.3880209,38.9322927 63.3828125,38.734375 C63.0963527,39.140627 62.7226586,39.4804674 62.2617188,39.7539062 C61.8007789,40.0273451 61.3046902,40.1640625 60.7734375,40.1640625 C59.8932248,40.1640625 59.2226586,39.9388043 58.7617188,39.4882812 C58.3007789,39.0377582 58.0703125,38.4166706 58.0703125,37.625 C58.0703125,36.8177043 58.3971321,36.1862002 59.0507812,35.7304688 C59.7044304,35.2747373 60.5911402,35.046875 61.7109375,35.046875 L63.3828125,35.046875 L63.3828125,34.2109375 C63.3828125,33.7161434 63.2317723,33.3242202 62.9296875,33.0351562 C62.6276027,32.7460923 62.2005236,32.6015625 61.6484375,32.6015625 C61.1536434,32.6015625 60.7513036,32.7278633 60.4414062,32.9804688 C60.1315089,33.2330742 59.9765625,33.5364566 59.9765625,33.890625 L58.5078125,33.890625 L58.4921875,33.84375 C58.4609373,33.2291636 58.751299,32.6666692 59.3632812,32.15625 C59.9752635,31.6458308 60.7656202,31.390625 61.734375,31.390625 C62.6927131,31.390625 63.4635387,31.6341121 64.046875,32.1210938 C64.6302113,32.6080754 64.921875,33.3098912 64.921875,34.2265625 L64.921875,38.296875 C64.921875,38.5989598 64.9374998,38.8906236 64.96875,39.171875 C65.0000002,39.4531264 65.0572912,39.7291653 65.140625,40 L63.5546875,40 Z M61,38.875 C61.5572945,38.875 62.0598936,38.7317723 62.5078125,38.4453125 C62.9557314,38.1588527 63.2473952,37.830731 63.3828125,37.4609375 L63.3828125,36.0859375 L61.65625,36.0859375 C61.0364552,36.0859375 60.5403664,36.2421859 60.1679688,36.5546875 C59.7955711,36.8671891 59.609375,37.2343729 59.609375,37.65625 C59.609375,38.0312519 59.7265613,38.3281239 59.9609375,38.546875 C60.1953137,38.7656261 60.5416644,38.875 61,38.875 Z M68.8203125,40 L67.28125,40 L67.28125,27.8125 L68.8203125,27.8125 L68.8203125,40 Z M76.5546875,38.75 C76.2890612,39.2031273 75.9479187,39.5520821 75.53125,39.796875 C75.1145813,40.0416679 74.6328152,40.1640625 74.0859375,40.1640625 C73.1640579,40.1640625 72.4453151,39.8697946 71.9296875,39.28125 C71.4140599,38.6927054 71.15625,37.7760479 71.15625,36.53125 L71.15625,31.546875 L72.6953125,31.546875 L72.6953125,36.546875 C72.6953125,37.4479212 72.8281237,38.0677066 73.09375,38.40625 C73.3593763,38.7447934 73.7734347,38.9140625 74.3359375,38.9140625 C74.8828152,38.9140625 75.3346336,38.8033865 75.6914062,38.5820312 C76.0481789,38.360676 76.3177074,38.046877 76.5,37.640625 L76.5,31.546875 L78.0390625,31.546875 L78.0390625,40 L76.65625,40 L76.5546875,38.75 Z M83.7890625,40.1640625 C82.6119733,40.1640625 81.6757847,39.7721393 80.9804688,38.9882812 C80.2851528,38.2044232 79.9375,37.1875062 79.9375,35.9375 L79.9375,35.59375 C79.9375,34.390619 80.2955693,33.3893269 81.0117188,32.5898438 C81.7278682,31.7903606 82.5755159,31.390625 83.5546875,31.390625 C84.6953182,31.390625 85.5572887,31.7343716 86.140625,32.421875 C86.7239613,33.1093784 87.015625,34.0260359 87.015625,35.171875 L87.015625,36.1328125 L81.53125,36.1328125 L81.5078125,36.171875 C81.5234376,36.9843791 81.7291647,37.6523411 82.125,38.1757812 C82.5208353,38.6992214 83.0755173,38.9609375 83.7890625,38.9609375 C84.3098984,38.9609375 84.7669251,38.8867195 85.1601562,38.7382812 C85.5533874,38.589843 85.8932277,38.385418 86.1796875,38.125 L86.78125,39.125 C86.4791652,39.4218765 86.0807316,39.6692698 85.5859375,39.8671875 C85.0911434,40.0651052 84.492191,40.1640625 83.7890625,40.1640625 Z M83.5546875,32.6015625 C83.0390599,32.6015625 82.5989602,32.8190082 82.234375,33.2539062 C81.8697898,33.6888043 81.6458337,34.2343717 81.5625,34.890625 L81.578125,34.9296875 L85.4765625,34.9296875 L85.4765625,34.7265625 C85.4765625,34.1223928 85.3151058,33.6171895 84.9921875,33.2109375 C84.6692692,32.8046855 84.1901073,32.6015625 83.5546875,32.6015625 Z" fill="#616161" fill-rule="nonzero"></path>
            </g>
            <g transform="translate(0.000000, 90.000000)">
                <g>
                    <g transform="translate(0.000000, 16.000000)">
                        <g transform="translate(1.000000, 1.000000)" fill-rule="nonzero" fill="#FFFFFF">
                            <rect x="0" y="0" width="208" height="74" rx="2"></rect>
                        </g>
                        <rect stroke="#BDBDBD" x="0.5" y="0.5" width="209" height="75" rx="2"></rect>
                    </g>
                    <path d="M1.57714844,9.9472656 L6.28710937,9.9472656 L6.28710937,11 L0.23046875,11 L0.23046875,1.046875 L1.57714844,1.046875 L1.57714844,9.9472656 Z M12.0839844,11 C12.0384112,10.7766916 12.0030926,10.5795907 11.9780273,10.4086914 C11.9529621,10.2377921 11.9381511,10.0657561 11.9335938,9.8925781 C11.6829415,10.2480487 11.355959,10.545409 10.9526367,10.784668 C10.5493144,11.023927 10.1152367,11.1435547 9.6503906,11.1435547 C8.88020448,11.1435547 8.29345905,10.9464538 7.89013672,10.5522461 C7.48681439,10.1580384 7.28515625,9.6145868 7.28515625,8.921875 C7.28515625,8.2154913 7.57112344,7.6629252 8.14306641,7.2641602 C8.71500937,6.8653951 9.4908805,6.6660156 10.4707031,6.6660156 L11.9335938,6.6660156 L11.9335938,5.93457031 C11.9335938,5.50162544 11.8014336,5.15869267 11.5371094,4.90576172 C11.2727851,4.65283077 10.899091,4.52636719 10.4160156,4.52636719 C9.9830708,4.52636719 9.6310235,4.63688041 9.3598633,4.85791016 C9.0887031,5.07893991 8.953125,5.34439949 8.953125,5.65429688 L7.66796875,5.65429688 L7.65429688,5.61328125 C7.62695299,5.07551814 7.88101946,4.58333557 8.41650391,4.13671875 C8.95198835,3.69010193 9.6435504,3.46679688 10.4912109,3.46679688 C11.3297568,3.46679688 12.0042292,3.67984813 12.5146484,4.10595703 C13.0250677,4.53206593 13.2802734,5.14615484 13.2802734,5.94824219 L13.2802734,9.5097656 C13.2802734,9.7740899 13.2939452,10.0292956 13.3212891,10.2753906 C13.3486329,10.5214856 13.3987627,10.7630196 13.4716797,11 L12.0839844,11 Z M9.8486328,10.015625 C10.3362655,10.015625 10.7760397,9.8903007 11.1679688,9.6396484 C11.5598978,9.3889961 11.8151036,9.1018896 11.9335938,8.7783203 L11.9335938,7.5751953 L10.4228516,7.5751953 C9.8805311,7.5751953 9.4464535,7.7119127 9.1206055,7.9853516 C8.79475749,8.2587904 8.63183594,8.5800763 8.63183594,8.9492188 C8.63183594,9.2773454 8.73437397,9.5371084 8.93945312,9.7285156 C9.1445323,9.9199228 9.4475891,10.015625 9.8486328,10.015625 Z M21.5517578,7.5820312 C21.5517578,8.6484428 21.2954127,9.508623 20.7827148,10.1625977 C20.270017,10.8165723 19.5647831,11.1435547 18.6669922,11.1435547 C18.1793595,11.1435547 17.7555357,11.0489918 17.3955078,10.8598633 C17.03548,10.6707347 16.7369804,10.3916034 16.5,10.0224609 L16.3359375,11 L15.2353516,11 L15.2353516,0.3359375 L16.5820312,0.3359375 L16.5820312,4.47851562 C16.8144543,4.15038898 17.1027001,3.89974045 17.4467773,3.7265625 C17.7908546,3.55338455 18.1930316,3.46679688 18.6533203,3.46679688 C19.5647832,3.46679688 20.2757136,3.83137656 20.7861328,4.56054688 C21.296552,5.28971719 21.5517578,6.2490175 21.5517578,7.4384766 L21.5517578,7.5820312 Z M20.2050781,7.4384766 C20.2050781,6.5908161 20.0489924,5.89925398 19.7368164,5.36376953 C19.4246404,4.82828508 18.9495475,4.56054688 18.3115234,4.56054688 C17.8968078,4.56054688 17.5470392,4.6619456 17.262207,4.86474609 C16.9773749,5.06754659 16.7506519,5.33984204 16.5820312,5.68164062 L16.5820312,8.8876953 C16.7552092,9.2522805 16.9819322,9.5371083 17.262207,9.7421875 C17.5424819,9.9472667 17.8968078,10.0498047 18.3251953,10.0498047 C18.958662,10.0498047 19.430337,9.824221 19.7402344,9.3730469 C20.0501318,8.9218727 20.2050781,8.3248735 20.2050781,7.5820312 L20.2050781,7.4384766 Z M26.2617188,11.1435547 C25.2317657,11.1435547 24.4126007,10.8006219 23.8041992,10.1147461 C23.1957977,9.4288703 22.8916016,8.539068 22.8916016,7.4453125 L22.8916016,7.1445312 C22.8916016,6.0917916 23.2049122,5.21566105 23.831543,4.51611328 C24.4581737,3.81656551 25.1998655,3.46679688 26.0566406,3.46679688 C27.0546925,3.46679688 27.8089167,3.76757512 28.3193359,4.36914062 C28.8297552,4.97070613 29.0849609,5.77278145 29.0849609,6.7753906 L29.0849609,7.6162109 L24.2861328,7.6162109 L24.265625,7.6503906 C24.2792969,8.3613317 24.4593082,8.9457985 24.8056641,9.4038086 C25.15202,9.8618187 25.6373667,10.0908203 26.2617188,10.0908203 C26.7174502,10.0908203 27.1173485,10.0258796 27.4614258,9.8959961 C27.805503,9.7661126 28.1028633,9.5872407 28.3535156,9.359375 L28.8798828,10.234375 C28.6155586,10.4941419 28.2669292,10.7106111 27.8339844,10.8837891 C27.4010395,11.056967 26.8769562,11.1435547 26.2617188,11.1435547 Z M26.0566406,4.52636719 C25.6054665,4.52636719 25.2203792,4.71663221 24.9013672,5.09716797 C24.5823552,5.47770373 24.3863936,5.95507525 24.3134766,6.5292969 L24.3271484,6.5634766 L27.7382812,6.5634766 L27.7382812,6.3857422 C27.7382812,5.85709371 27.5970066,5.41504084 27.3144531,5.05957031 C27.0318996,4.70409979 26.612633,4.52636719 26.0566406,4.52636719 Z M32.0517578,11 L30.7050781,11 L30.7050781,0.3359375 L32.0517578,0.3359375 L32.0517578,11 Z" fill="#6B6B6B" fill-rule="nonzero"></path>
                    <path d="M6.50585937,105 L5.3515625,105 L5.3515625,101.232422 L1.20898438,101.232422 L1.20898438,105 L0.0546875,105 L0.0546875,96.46875 L1.20898438,96.46875 L1.20898438,100.324219 L5.3515625,100.324219 L5.3515625,96.46875 L6.50585937,96.46875 L6.50585937,105 Z M11.0292969,105.123047 C10.14648,105.123047 9.4443385,104.829105 8.92285156,104.241211 C8.40136458,103.653317 8.140625,102.89063 8.140625,101.953125 L8.140625,101.695312 C8.140625,100.792964 8.409177,100.041995 8.94628906,99.442383 C9.4834011,98.84277 10.119137,98.542969 10.8535156,98.542969 C11.7089887,98.542969 12.3554666,98.800779 12.7929688,99.316406 C13.2304709,99.832034 13.4492188,100.519527 13.4492188,101.378906 L13.4492188,102.099609 L9.3359375,102.099609 L9.3183594,102.128906 C9.3300782,102.738284 9.4843735,103.239256 9.78125,103.631836 C10.0781265,104.024416 10.4941379,104.220703 11.0292969,104.220703 C11.4199238,104.220703 11.7626938,104.16504 12.0576172,104.053711 C12.3525405,103.942382 12.6074208,103.789063 12.8222656,103.59375 L13.2734375,104.34375 C13.0468739,104.566407 12.7480487,104.751952 12.3769531,104.900391 C12.0058575,105.048829 11.5566433,105.123047 11.0292969,105.123047 Z M10.8535156,99.451172 C10.4667949,99.451172 10.1367201,99.614256 9.8632812,99.94043 C9.5898424,100.266603 9.4218753,100.675779 9.359375,101.167969 L9.3710938,101.197266 L12.2949219,101.197266 L12.2949219,101.044922 C12.2949219,100.591795 12.1738293,100.212892 11.9316406,99.908203 C11.6894519,99.603514 11.3300805,99.451172 10.8535156,99.451172 Z M15.9921875,105 L14.8378906,105 L14.8378906,95.859375 L15.9921875,95.859375 L15.9921875,105 Z M23.1699219,102.070312 C23.1699219,102.98438 22.9511741,103.721677 22.5136719,104.282227 C22.0761697,104.842776 21.4726601,105.123047 20.703125,105.123047 C20.312498,105.123047 19.969728,105.057618 19.6748047,104.926758 C19.3798813,104.795898 19.1289073,104.599611 18.921875,104.337891 L18.921875,107.4375 L17.7675781,107.4375 L17.7675781,98.660156 L18.6523438,98.660156 L18.8339844,99.480469 C19.0410167,99.17578 19.2988266,98.94336 19.6074219,98.783203 C19.9160172,98.623046 20.2753886,98.542969 20.6855469,98.542969 C21.4707071,98.542969 22.0810525,98.854489 22.5166016,99.477539 C22.9521506,100.100589 23.1699219,100.923823 23.1699219,101.947266 L23.1699219,102.070312 Z M22.015625,101.947266 C22.015625,101.228512 21.8740249,100.637698 21.5908203,100.174805 C21.3076158,99.711912 20.8906278,99.480469 20.3398438,99.480469 C20.0078108,99.480469 19.7246105,99.555663 19.4902344,99.706055 C19.2558582,99.856446 19.066407,100.062499 18.921875,100.324219 L18.921875,103.388672 C19.066407,103.650392 19.2558582,103.854491 19.4902344,104.000977 C19.7246105,104.147462 20.0117171,104.220703 20.3515625,104.220703 C20.8984402,104.220703 21.3124986,104.02051 21.59375,103.620117 C21.8750014,103.219725 22.015625,102.703128 22.015625,102.070312 L22.015625,101.947266 Z M27.21875,105.123047 C26.3359331,105.123047 25.6337917,104.829105 25.1123047,104.241211 C24.5908177,103.653317 24.3300781,102.89063 24.3300781,101.953125 L24.3300781,101.695312 C24.3300781,100.792964 24.5986301,100.041995 25.1357422,99.442383 C25.6728542,98.84277 26.3085901,98.542969 27.0429687,98.542969 C27.8984418,98.542969 28.5449197,98.800779 28.9824219,99.316406 C29.4199241,99.832034 29.6386719,100.519527 29.6386719,101.378906 L29.6386719,102.099609 L25.5253906,102.099609 L25.5078125,102.128906 C25.5195313,102.738284 25.6738266,103.239256 25.9707031,103.631836 C26.2675796,104.024416 26.6835911,104.220703 27.21875,104.220703 C27.609377,104.220703 27.952147,104.16504 28.2470703,104.053711 C28.5419937,103.942382 28.7968739,103.789063 29.0117187,103.59375 L29.4628906,104.34375 C29.236327,104.566407 28.9375019,104.751952 28.5664062,104.900391 C28.1953106,105.048829 27.7460964,105.123047 27.21875,105.123047 Z M27.0429687,99.451172 C26.6562481,99.451172 26.3261732,99.614256 26.0527344,99.94043 C25.7792955,100.266603 25.6113284,100.675779 25.5488281,101.167969 L25.5605469,101.197266 L28.484375,101.197266 L28.484375,101.044922 C28.484375,100.591795 28.3632825,100.212892 28.1210937,99.908203 C27.878905,99.603514 27.5195336,99.451172 27.0429687,99.451172 Z M33.9335937,99.679688 L33.3417969,99.644531 C33.0371079,99.644531 32.7802745,99.716796 32.5712891,99.861328 C32.3623036,100.00586 32.2011724,100.208983 32.0878906,100.470703 L32.0878906,105 L30.9335937,105 L30.9335937,98.660156 L31.9648437,98.660156 L32.0761719,99.585938 C32.2558603,99.257811 32.4775377,99.001954 32.7412109,98.818359 C33.0048841,98.634765 33.308592,98.542969 33.6523437,98.542969 C33.7382817,98.542969 33.8203121,98.549805 33.8984375,98.563477 C33.9765629,98.577149 34.0410154,98.591797 34.0917969,98.607422 L33.9335937,99.679688 Z M39.5527344,97.130859 L39.5527344,98.660156 L40.7539062,98.660156 L40.7539062,99.515625 L39.5527344,99.515625 L39.5527344,103.365234 C39.5527344,103.662111 39.6142572,103.871093 39.7373047,103.992188 C39.8603522,104.113282 40.0234365,104.173828 40.2265625,104.173828 C40.2929691,104.173828 40.3662105,104.166016 40.4462891,104.150391 C40.5263676,104.134766 40.5976559,104.115234 40.6601562,104.091797 L40.8125,104.882812 C40.7265621,104.953125 40.6005868,105.010742 40.4345703,105.055664 C40.2685539,105.100586 40.1015633,105.123047 39.9335938,105.123047 C39.4648414,105.123047 39.0917983,104.981447 38.8144531,104.698242 C38.537108,104.415038 38.3984375,103.970706 38.3984375,103.365234 L38.3984375,99.515625 L37.390625,99.515625 L37.390625,98.660156 L38.3984375,98.660156 L38.3984375,97.130859 L39.5527344,97.130859 Z M44.8085937,105.123047 C43.9257768,105.123047 43.2236354,104.829105 42.7021484,104.241211 C42.1806615,103.653317 41.9199219,102.89063 41.9199219,101.953125 L41.9199219,101.695312 C41.9199219,100.792964 42.1884739,100.041995 42.7255859,99.442383 C43.262698,98.84277 43.8984338,98.542969 44.6328125,98.542969 C45.4882855,98.542969 46.1347634,98.800779 46.5722656,99.316406 C47.0097678,99.832034 47.2285156,100.519527 47.2285156,101.378906 L47.2285156,102.099609 L43.1152344,102.099609 L43.0976562,102.128906 C43.1093751,102.738284 43.2636704,103.239256 43.5605469,103.631836 C43.8574234,104.024416 44.2734348,104.220703 44.8085937,104.220703 C45.1992207,104.220703 45.5419907,104.16504 45.8369141,104.053711 C46.1318374,103.942382 46.3867177,103.789063 46.6015625,103.59375 L47.0527344,104.34375 C46.8261707,104.566407 46.5273456,104.751952 46.15625,104.900391 C45.7851544,105.048829 45.3359401,105.123047 44.8085937,105.123047 Z M44.6328125,99.451172 C44.2460918,99.451172 43.916017,99.614256 43.6425781,99.94043 C43.3691393,100.266603 43.2011722,100.675779 43.1386719,101.167969 L43.1503906,101.197266 L46.0742187,101.197266 L46.0742187,101.044922 C46.0742187,100.591795 45.9531262,100.212892 45.7109375,99.908203 C45.4687488,99.603514 45.1093774,99.451172 44.6328125,99.451172 Z M50.6738281,100.998047 L52.0214844,98.660156 L53.3691406,98.660156 L51.3125,101.794922 L53.4277344,105 L52.1035156,105 L50.6972656,102.603516 L49.2910156,105 L47.9550781,105 L50.0703125,101.794922 L48.0136719,98.660156 L49.34375,98.660156 L50.6738281,100.998047 Z M56.0820312,97.130859 L56.0820312,98.660156 L57.2832031,98.660156 L57.2832031,99.515625 L56.0820312,99.515625 L56.0820312,103.365234 C56.0820312,103.662111 56.1435541,103.871093 56.2666016,103.992188 C56.3896491,104.113282 56.5527334,104.173828 56.7558594,104.173828 C56.822266,104.173828 56.8955074,104.166016 56.9755859,104.150391 C57.0556645,104.134766 57.1269528,104.115234 57.1894531,104.091797 L57.3417969,104.882812 C57.2558589,104.953125 57.1298836,105.010742 56.9638672,105.055664 C56.7978507,105.100586 56.6308602,105.123047 56.4628906,105.123047 C55.9941383,105.123047 55.6210951,104.981447 55.34375,104.698242 C55.0664049,104.415038 54.9277344,103.970706 54.9277344,103.365234 L54.9277344,99.515625 L53.9199219,99.515625 L53.9199219,98.660156 L54.9277344,98.660156 L54.9277344,97.130859 L56.0820312,97.130859 Z" fill="#6B6B6B" fill-rule="nonzero"></path>
                </g>
                <g transform="translate(7.000000, 25.000000)" fill="#9E9E9E" fill-rule="nonzero">
                    <path d="M3.0859375,8.4375 L2.1796875,13 L0.671875,13 L2.9453125,1.625 L7.046875,1.625 C8.09896359,1.625 8.89452855,1.94270516 9.43359375,2.578125 C9.97265895,3.21354484 10.1432302,4.031245 9.9453125,5.03125 C9.72135305,6.13021383 9.24349324,6.97265332 8.51171875,7.55859375 C7.77994426,8.14453418 6.83854742,8.4375 5.6875,8.4375 L3.0859375,8.4375 Z M3.328125,7.234375 L5.9296875,7.234375 C6.57552406,7.234375 7.12369566,7.02343961 7.57421875,6.6015625 C8.02474184,6.17968539 8.31249937,5.66146141 8.4375,5.046875 C8.56770898,4.380205 8.50390754,3.8450541 8.24609375,3.44140625 C7.98827996,3.0377584 7.50781602,2.8359375 6.8046875,2.8359375 L4.2109375,2.8359375 L3.328125,7.234375 Z M11.6796875,13 L10.171875,13 L12.609375,0.8125 L14.1171875,0.8125 L11.6796875,13 Z M18.7421875,13 C18.7421875,12.7447904 18.7473958,12.5351571 18.7578125,12.3710938 C18.7682292,12.2070304 18.7864582,12.0390634 18.8125,11.8671875 C18.4635399,12.236981 18.0638043,12.5455717 17.6132812,12.7929688 C17.1627582,13.0403658 16.7109398,13.1640625 16.2578125,13.1640625 C15.4869753,13.1640625 14.9179706,12.9335961 14.5507812,12.4726562 C14.1835919,12.0117164 14.0807284,11.3958372 14.2421875,10.625 C14.408855,9.7656207 14.8320279,9.1210959 15.5117188,8.69140625 C16.1914096,8.2617166 17.0624947,8.046875 18.125,8.046875 L19.5703125,8.046875 L19.734375,7.2109375 C19.8385422,6.6848932 19.7812511,6.28515762 19.5625,6.01171875 C19.3437489,5.73827988 18.9791692,5.6015625 18.46875,5.6015625 C18.0312478,5.6015625 17.6354184,5.73046746 17.28125,5.98828125 C16.9270816,6.24609504 16.7161462,6.54687328 16.6484375,6.890625 L15.21875,6.890625 L15.203125,6.84375 C15.3072922,6.19270508 15.6979133,5.62109621 16.375,5.12890625 C17.0520867,4.63671629 17.8593703,4.390625 18.796875,4.390625 C19.6354209,4.390625 20.2981746,4.63932043 20.7851562,5.13671875 C21.2721379,5.63411707 21.4270842,6.33072469 21.25,7.2265625 L20.4375,11.296875 C20.3697913,11.6145849 20.3229168,11.9088528 20.296875,12.1796875 C20.2708332,12.4505222 20.2708332,12.723957 20.296875,13 L18.7421875,13 Z M16.7421875,11.875 C17.1640646,11.875 17.5937478,11.7526054 18.03125,11.5078125 C18.4687522,11.2630196 18.8072905,10.97396 19.046875,10.640625 L19.359375,9.0859375 L17.8671875,9.0859375 C17.3515599,9.0859375 16.8880229,9.24479008 16.4765625,9.5625 C16.0651021,9.88020992 15.8203129,10.2447896 15.7421875,10.65625 C15.6588538,11.0572937 15.6979159,11.3606761 15.859375,11.5664062 C16.0208341,11.7721364 16.315102,11.875 16.7421875,11.875 Z M25.7265625,11.9609375 C26.1744814,11.9609375 26.6028625,11.8020849 27.0117188,11.484375 C27.420575,11.1666651 27.661458,10.7812523 27.734375,10.328125 L29.0859375,10.328125 L29.1015625,10.375 C28.9973953,11.1354205 28.5911494,11.7903618 27.8828125,12.3398438 C27.1744756,12.8893257 26.3932334,13.1640625 25.5390625,13.1640625 C24.4348903,13.1640625 23.6302109,12.7578166 23.125,11.9453125 C22.6197891,11.1328084 22.4635407,10.1302143 22.65625,8.9375 L22.7109375,8.609375 C22.9036468,7.36457711 23.3658818,6.35026434 24.0976562,5.56640625 C24.8294307,4.78254816 25.7760359,4.390625 26.9375,4.390625 C27.8333378,4.390625 28.5351537,4.68359082 29.0429688,5.26953125 C29.5507838,5.85547168 29.7265633,6.57291242 29.5703125,7.421875 L29.5546875,7.4609375 L28.1875,7.4609375 C28.2760421,6.91926812 28.1875013,6.47396008 27.921875,6.125 C27.6562487,5.77603992 27.2656276,5.6015625 26.75,5.6015625 C26.0416631,5.6015625 25.4765646,5.89583039 25.0546875,6.484375 C24.6328104,7.07291961 24.3567715,7.78124586 24.2265625,8.609375 L24.171875,8.9375 C24.0312493,9.83333781 24.0677073,10.5611951 24.28125,11.1210938 C24.4947927,11.6809924 24.9765587,11.9609375 25.7265625,11.9609375 Z M33.609375,13.1640625 C32.5468697,13.1640625 31.7434923,12.7695352 31.1992188,11.9804688 C30.6549452,11.1914023 30.4817698,10.1770895 30.6796875,8.9375 L30.734375,8.59375 C30.9322927,7.34374375 31.4257773,6.33073305 32.2148438,5.5546875 C33.0039102,4.77864195 33.8567663,4.390625 34.7734375,4.390625 C35.809901,4.390625 36.5520811,4.7369757 37,5.4296875 C37.4479189,6.1223993 37.5833342,7.03645266 37.40625,8.171875 L37.25,9.1328125 L32.15625,9.1328125 C32.0416661,9.99740016 32.1210924,10.6848933 32.3945312,11.1953125 C32.6679701,11.7057317 33.1354134,11.9609375 33.796875,11.9609375 C34.2552106,11.9609375 34.6848938,11.8841154 35.0859375,11.7304688 C35.4869812,11.5768221 35.835936,11.3750013 36.1328125,11.125 L36.5625,12.125 C36.2447901,12.4218765 35.8385441,12.6692698 35.34375,12.8671875 C34.8489559,13.0651052 34.2708366,13.1640625 33.609375,13.1640625 Z M34.5859375,5.6015625 C34.1484353,5.6015625 33.7252625,5.82031031 33.3164062,6.2578125 C32.90755,6.69531469 32.6145842,7.23697594 32.4375,7.8828125 L32.4609375,7.9296875 L35.9375,7.9296875 L35.96875,7.7265625 C36.0677088,7.09635102 36.0078136,6.58463738 35.7890625,6.19140625 C35.5703114,5.79817512 35.1692738,5.6015625 34.5859375,5.6015625 Z M41.1796875,5.5703125 C41.5286476,5.19010227 41.9153625,4.89843852 42.3398438,4.6953125 C42.764325,4.49218648 43.2135393,4.390625 43.6875,4.390625 C44.4791706,4.390625 45.0677064,4.66666391 45.453125,5.21875 C45.8385436,5.77083609 45.9218761,6.59895281 45.703125,7.703125 L44.640625,13 L43.1328125,13 L44.1953125,7.6875 C44.3411466,6.94791297 44.312501,6.42187656 44.109375,6.109375 C43.906249,5.79687344 43.5260445,5.640625 42.96875,5.640625 C42.6197899,5.640625 42.2656268,5.74348855 41.90625,5.94921875 C41.5468732,6.15494895 41.2239598,6.42968578 40.9375,6.7734375 L39.6953125,13 L38.1875,13 L40.625,0.8125 L42.1328125,0.8125 L41.1796875,5.5703125 Z M47.2421875,8.6953125 C47.4505219,7.39322266 47.9283817,6.35026434 48.6757812,5.56640625 C49.4231808,4.78254816 50.3463487,4.390625 51.4453125,4.390625 C52.4974011,4.390625 53.2851536,4.79817301 53.8085938,5.61328125 C54.3320339,6.42838949 54.4947927,7.45572297 54.296875,8.6953125 L54.2734375,8.8671875 C54.0598948,10.1744857 53.5794308,11.217444 52.8320312,11.9960938 C52.0846317,12.7747435 51.1614638,13.1640625 50.0625,13.1640625 C49.0104114,13.1640625 48.2226589,12.7578166 47.6992188,11.9453125 C47.1757786,11.1328084 47.015624,10.106777 47.21875,8.8671875 L47.2421875,8.6953125 Z M48.7265625,8.8671875 C48.5755201,9.79948383 48.6210925,10.5481743 48.8632812,11.1132812 C49.10547,11.6783882 49.5677049,11.9609375 50.25,11.9609375 C50.8854198,11.9609375 51.4270811,11.6653675 51.875,11.0742188 C52.3229189,10.48307 52.6171868,9.74740023 52.7578125,8.8671875 L52.78125,8.6953125 C52.9270841,7.77864125 52.8776054,7.03385703 52.6328125,6.4609375 C52.3880196,5.88801797 51.9296909,5.6015625 51.2578125,5.6015625 C50.6171843,5.6015625 50.074221,5.89843453 49.6289062,6.4921875 C49.1835915,7.08594047 48.8906257,7.82030813 48.75,8.6953125 L48.7265625,8.8671875 Z M56.9375,13 L55.4296875,13 L57.8671875,0.8125 L59.375,0.8125 L56.9375,13 Z M59.703125,8.7734375 C59.9895848,7.32030523 60.4492156,6.22656617 61.0820312,5.4921875 C61.7148469,4.75780883 62.5286409,4.390625 63.5234375,4.390625 C63.9557313,4.390625 64.3476545,4.48046785 64.6992188,4.66015625 C65.050783,4.83984465 65.3385405,5.09374836 65.5625,5.421875 L66.484375,0.8125 L67.9921875,0.8125 L65.5546875,13 L64.2578125,13 L64.3125,12.1875 C63.9999984,12.5104183 63.6549498,12.7539054 63.2773438,12.9179688 C62.8997377,13.0820321 62.4921897,13.1640625 62.0546875,13.1640625 C61.148433,13.1640625 60.4648461,12.7578166 60.0039062,11.9453125 C59.5429664,11.1328084 59.4322905,10.1302143 59.671875,8.9375 L59.703125,8.7734375 Z M61.1875,8.9375 C61.0052074,9.83333781 61.0390613,10.5533827 61.2890625,11.0976562 C61.5390638,11.6419298 62.0078091,11.9140625 62.6953125,11.9140625 C63.065106,11.9140625 63.3971339,11.8111989 63.6914062,11.6054688 C63.9856786,11.3997386 64.2552071,11.1067727 64.5,10.7265625 L65.296875,6.734375 C65.1614577,6.40104 64.9570326,6.13541766 64.6835938,5.9375 C64.4101549,5.73958234 64.0703145,5.640625 63.6640625,5.640625 C63.0390594,5.640625 62.5221375,5.92317426 62.1132812,6.48828125 C61.704425,7.05338824 61.4062509,7.81509937 61.21875,8.7734375 L61.1875,8.9375 Z M71.1484375,13.1640625 C70.0859322,13.1640625 69.2825548,12.7695352 68.7382813,11.9804688 C68.1940077,11.1914023 68.0208323,10.1770895 68.21875,8.9375 L68.2734375,8.59375 C68.4713552,7.34374375 68.9648398,6.33073305 69.7539063,5.5546875 C70.5429727,4.77864195 71.3958288,4.390625 72.3125,4.390625 C73.3489635,4.390625 74.0911436,4.7369757 74.5390625,5.4296875 C74.9869814,6.1223993 75.1223967,7.03645266 74.9453125,8.171875 L74.7890625,9.1328125 L69.6953125,9.1328125 C69.5807286,9.99740016 69.6601549,10.6848933 69.9335938,11.1953125 C70.2070326,11.7057317 70.6744759,11.9609375 71.3359375,11.9609375 C71.7942731,11.9609375 72.2239563,11.8841154 72.625,11.7304688 C73.0260437,11.5768221 73.3749985,11.3750013 73.671875,11.125 L74.1015625,12.125 C73.7838526,12.4218765 73.3776066,12.6692698 72.8828125,12.8671875 C72.3880184,13.0651052 71.8098991,13.1640625 71.1484375,13.1640625 Z M72.125,5.6015625 C71.6874978,5.6015625 71.264325,5.82031031 70.8554688,6.2578125 C70.4466125,6.69531469 70.1536467,7.23697594 69.9765625,7.8828125 L70,7.9296875 L73.4765625,7.9296875 L73.5078125,7.7265625 C73.6067713,7.09635102 73.5468761,6.58463738 73.328125,6.19140625 C73.1093739,5.79817512 72.7083363,5.6015625 72.125,5.6015625 Z M80.96875,5.90625 L80.140625,5.859375 C79.7968733,5.859375 79.4804702,5.95703027 79.1914062,6.15234375 C78.9023423,6.34765723 78.6510427,6.62239406 78.4375,6.9765625 L77.234375,13 L75.7265625,13 L77.4140625,4.546875 L78.765625,4.546875 L78.671875,5.6796875 C78.9635431,5.26822711 79.2929669,4.95052195 79.6601562,4.7265625 C80.0273456,4.50260305 80.4218729,4.390625 80.84375,4.390625 C80.9479172,4.390625 81.0611973,4.39973949 81.1835938,4.41796875 C81.3059902,4.43619801 81.395833,4.45572906 81.453125,4.4765625 L80.96875,5.90625 Z M88.921875,2.5078125 L88.5078125,4.546875 L89.96875,4.546875 L89.7421875,5.6875 L88.28125,5.6875 L87.2578125,10.8203125 C87.1692704,11.2421896 87.1822911,11.527343 87.296875,11.6757812 C87.4114589,11.8242195 87.5963529,11.8984375 87.8515625,11.8984375 C87.9713548,11.8984375 88.1158846,11.8867189 88.2851562,11.8632812 C88.4544279,11.8398436 88.5885412,11.8151043 88.6875,11.7890625 L88.6796875,12.84375 C88.5286451,12.9375005 88.3138035,13.0143226 88.0351562,13.0742188 C87.756509,13.1341149 87.4817722,13.1640625 87.2109375,13.1640625 C86.6640598,13.1640625 86.2434911,12.9713561 85.9492188,12.5859375 C85.6549464,12.2005189 85.5885409,11.6119831 85.75,10.8203125 L86.7734375,5.6875 L85.5390625,5.6875 L85.765625,4.546875 L87,4.546875 L87.4140625,2.5078125 L88.921875,2.5078125 Z M93.5625,13.1640625 C92.4999947,13.1640625 91.6966173,12.7695352 91.1523438,11.9804688 C90.6080702,11.1914023 90.4348948,10.1770895 90.6328125,8.9375 L90.6875,8.59375 C90.8854177,7.34374375 91.3789023,6.33073305 92.1679688,5.5546875 C92.9570352,4.77864195 93.8098912,4.390625 94.7265625,4.390625 C95.763026,4.390625 96.5052061,4.7369757 96.953125,5.4296875 C97.4010439,6.1223993 97.5364592,7.03645266 97.359375,8.171875 L97.203125,9.1328125 L92.109375,9.1328125 C91.9947911,9.99740016 92.0742174,10.6848933 92.3476562,11.1953125 C92.6210951,11.7057317 93.0885384,11.9609375 93.75,11.9609375 C94.2083356,11.9609375 94.6380188,11.8841154 95.0390625,11.7304688 C95.4401062,11.5768221 95.789061,11.3750013 96.0859375,11.125 L96.515625,12.125 C96.1979151,12.4218765 95.7916691,12.6692698 95.296875,12.8671875 C94.8020809,13.0651052 94.2239616,13.1640625 93.5625,13.1640625 Z M94.5390625,5.6015625 C94.1015603,5.6015625 93.6783875,5.82031031 93.2695312,6.2578125 C92.860675,6.69531469 92.5677092,7.23697594 92.390625,7.8828125 L92.4140625,7.9296875 L95.890625,7.9296875 L95.921875,7.7265625 C96.0208338,7.09635102 95.9609386,6.58463738 95.7421875,6.19140625 C95.5234364,5.79817512 95.1223988,5.6015625 94.5390625,5.6015625 Z M101.804688,7.6640625 L103.914062,4.546875 L105.671875,4.546875 L102.46875,8.7265625 L104.382812,13 L102.65625,13 L101.492188,9.8046875 L99.3046875,13 L97.5625,13 L100.851562,8.7265625 L98.984375,4.546875 L100.71875,4.546875 L101.804688,7.6640625 Z M109.835938,2.5078125 L109.421875,4.546875 L110.882813,4.546875 L110.65625,5.6875 L109.195313,5.6875 L108.171875,10.8203125 C108.083333,11.2421896 108.096354,11.527343 108.210938,11.6757812 C108.325521,11.8242195 108.510415,11.8984375 108.765625,11.8984375 C108.885417,11.8984375 109.029947,11.8867189 109.199219,11.8632812 C109.36849,11.8398436 109.502604,11.8151043 109.601563,11.7890625 L109.59375,12.84375 C109.442708,12.9375005 109.227866,13.0143226 108.949219,13.0742188 C108.670572,13.1341149 108.395835,13.1640625 108.125,13.1640625 C107.578122,13.1640625 107.157554,12.9713561 106.863281,12.5859375 C106.569009,12.2005189 106.502603,11.6119831 106.664063,10.8203125 L107.6875,5.6875 L106.453125,5.6875 L106.679688,4.546875 L107.914063,4.546875 L108.328125,2.5078125 L109.835938,2.5078125 Z"></path>
                </g>
            </g>
        </g>
    </g>
</svg>