<?xml version="1.0" encoding="UTF-8" standalone="no"?>
<svg width="342px" height="108px" viewBox="0 0 342 108" version="1.1" xmlns="http://www.w3.org/2000/svg" xmlns:xlink="http://www.w3.org/1999/xlink">
    <!-- Generator: Sketch 47.1 (45422) - http://www.bohemiancoding.com/sketch -->
    <title>text-fields-text-area-basic-layout</title>
    <desc>Created with Sketch.</desc>
    <defs></defs>
    <g stroke="none" stroke-width="1" fill="none" fill-rule="evenodd">
        <g transform="translate(-1.000000, 0.000000)">
            <g transform="translate(245.000000, 77.000000)" fill="#EC407A">
                <path d="M2.20898438,9.30273438 L2.20898438,13 L1.0546875,13 L1.0546875,4.47460938 L4.14257812,4.47460938 C5.07617654,4.47460938 5.78906004,4.68163855 6.28125,5.09570312 C6.77343996,5.5097677 7.01953125,6.11132418 7.01953125,6.90039062 C7.01953125,7.33789281 6.90527458,7.71874838 6.67675781,8.04296875 C6.44824104,8.36718912 6.11523656,8.62499904 5.67773437,8.81640625 C6.14648672,8.96875076 6.48339741,9.2158186 6.68847656,9.55761719 C6.89355571,9.89941577 6.99609375,10.3222631 6.99609375,10.8261719 L6.99609375,11.6289062 C6.99609375,11.8945326 7.02539033,12.1328114 7.08398437,12.34375 C7.14257842,12.5546886 7.2441399,12.7265618 7.38867187,12.859375 L7.38867187,13 L6.19921875,13 C6.04687424,12.8671868 5.94921896,12.6718763 5.90625,12.4140625 C5.86328104,12.1562487 5.84179687,11.8906264 5.84179687,11.6171875 L5.84179687,10.8378906 C5.84179687,10.3769508 5.7070326,10.0058608 5.4375,9.72460938 C5.1679674,9.44335797 4.80664289,9.30273438 4.35351562,9.30273438 L2.20898438,9.30273438 Z M2.20898438,8.39453125 L4.02539062,8.39453125 C4.67773764,8.39453125 5.1474595,8.27050905 5.43457031,8.02246094 C5.72168112,7.77441282 5.86523438,7.39648691 5.86523438,6.88867188 C5.86523438,6.40820072 5.72558733,6.03613413 5.44628906,5.77246094 C5.16699079,5.50878774 4.73242482,5.37695312 4.14257812,5.37695312 L2.20898438,5.37695312 L2.20898438,8.39453125 Z M11.4199219,13.1230469 C10.537105,13.1230469 9.83496354,12.8291045 9.31347656,12.2412109 C8.79198958,11.6533174 8.53125,10.8906297 8.53125,9.953125 L8.53125,9.6953125 C8.53125,8.79296424 8.799802,8.04199519 9.33691406,7.44238281 C9.87402612,6.84277044 10.509762,6.54296875 11.2441406,6.54296875 C12.0996137,6.54296875 12.7460916,6.80077867 13.1835938,7.31640625 C13.6210959,7.83203383 13.8398438,8.51952695 13.8398438,9.37890625 L13.8398438,10.0996094 L9.7265625,10.0996094 L9.70898438,10.1289062 C9.72070318,10.7382843 9.87499852,11.2392558 10.171875,11.6318359 C10.4687515,12.024416 10.8847629,12.2207031 11.4199219,12.2207031 C11.8105488,12.2207031 12.1533188,12.1650396 12.4482422,12.0537109 C12.7431655,11.9423823 12.9980458,11.7890635 13.2128906,11.59375 L13.6640625,12.34375 C13.4374989,12.5664074 13.1386737,12.7519524 12.7675781,12.9003906 C12.3964825,13.0488289 11.9472683,13.1230469 11.4199219,13.1230469 Z M11.2441406,7.45117188 C10.8574199,7.45117188 10.5273451,7.61425618 10.2539062,7.94042969 C9.98046738,8.26660319 9.81250031,8.67577879 9.75,9.16796875 L9.76171875,9.19726562 L12.6855469,9.19726562 L12.6855469,9.04492188 C12.6855469,8.59179461 12.5644543,8.21289215 12.3222656,7.90820312 C12.0800769,7.6035141 11.7207055,7.45117188 11.2441406,7.45117188 Z M18.8203125,11.3183594 C18.8203125,11.0644519 18.7236338,10.8554696 18.5302734,10.6914062 C18.3369131,10.5273429 17.9707058,10.3847662 17.4316406,10.2636719 C16.6621055,10.0957023 16.0830098,9.8681655 15.6943359,9.58105469 C15.3056621,9.29394388 15.1113281,8.90234623 15.1113281,8.40625 C15.1113281,7.89062242 15.3300759,7.45117369 15.7675781,7.08789062 C16.2050803,6.72460756 16.7753871,6.54296875 17.4785156,6.54296875 C18.2168006,6.54296875 18.8037088,6.73241998 19.2392578,7.11132812 C19.6748069,7.49023627 19.8828126,7.95116916 19.8632812,8.49414062 L19.8515625,8.52929688 L18.75,8.52929688 C18.75,8.25195174 18.6337902,8.00293079 18.4013672,7.78222656 C18.1689442,7.56152233 17.86133,7.45117188 17.4785156,7.45117188 C17.0683573,7.45117188 16.7636729,7.54101473 16.5644531,7.72070312 C16.3652334,7.90039152 16.265625,8.11718623 16.265625,8.37109375 C16.265625,8.621095 16.3535147,8.81835865 16.5292969,8.96289062 C16.705079,9.1074226 17.0624973,9.23632756 17.6015625,9.34960938 C18.4023478,9.52148523 18.9980449,9.75488134 19.3886719,10.0498047 C19.7792988,10.344728 19.9746094,10.7402319 19.9746094,11.2363281 C19.9746094,11.7988309 19.7470726,12.2539045 19.2919922,12.6015625 C18.8369118,12.9492205 18.2421912,13.1230469 17.5078125,13.1230469 C16.6992147,13.1230469 16.0625023,12.9179708 15.5976562,12.5078125 C15.1328102,12.0976542 14.9121093,11.6191434 14.9355469,11.0722656 L14.9472656,11.0371094 L16.0488281,11.0371094 C16.0683595,11.4472677 16.2207017,11.7470694 16.5058594,11.9365234 C16.7910171,12.1259775 17.1249981,12.2207031 17.5078125,12.2207031 C17.9179708,12.2207031 18.2392567,12.1376961 18.4716797,11.9716797 C18.7041027,11.8056632 18.8203125,11.587892 18.8203125,11.3183594 Z M22.6582031,13 L21.5039062,13 L21.5039062,6.66015625 L22.6582031,6.66015625 L22.6582031,13 Z M22.6582031,5.03710938 L21.5039062,5.03710938 L21.5039062,3.859375 L22.6582031,3.859375 L22.6582031,5.03710938 Z M25.5234375,12.0976562 L29.1855469,12.0976562 L29.1855469,13 L24.1464844,13 L24.1464844,12.1914062 L27.5742187,7.57421875 L24.1875,7.57421875 L24.1875,6.66015625 L28.9863281,6.66015625 L28.9863281,7.4453125 L25.5234375,12.0976562 Z M33.0058594,13.1230469 C32.1230425,13.1230469 31.420901,12.8291045 30.8994141,12.2412109 C30.3779271,11.6533174 30.1171875,10.8906297 30.1171875,9.953125 L30.1171875,9.6953125 C30.1171875,8.79296424 30.3857395,8.04199519 30.9228516,7.44238281 C31.4599636,6.84277044 32.0956995,6.54296875 32.8300781,6.54296875 C33.6855512,6.54296875 34.3320291,6.80077867 34.7695312,7.31640625 C35.2070334,7.83203383 35.4257812,8.51952695 35.4257812,9.37890625 L35.4257812,10.0996094 L31.3125,10.0996094 L31.2949219,10.1289062 C31.3066407,10.7382843 31.460936,11.2392558 31.7578125,11.6318359 C32.054689,12.024416 32.4707004,12.2207031 33.0058594,12.2207031 C33.3964863,12.2207031 33.7392563,12.1650396 34.0341797,12.0537109 C34.329103,11.9423823 34.5839833,11.7890635 34.7988281,11.59375 L35.25,12.34375 C35.0234364,12.5664074 34.7246112,12.7519524 34.3535156,12.9003906 C33.98242,13.0488289 33.5332058,13.1230469 33.0058594,13.1230469 Z M32.8300781,7.45117188 C32.4433574,7.45117188 32.1132826,7.61425618 31.8398437,7.94042969 C31.5664049,8.26660319 31.3984378,8.67577879 31.3359375,9.16796875 L31.3476562,9.19726562 L34.2714844,9.19726562 L34.2714844,9.04492188 C34.2714844,8.59179461 34.1503918,8.21289215 33.9082031,7.90820312 C33.6660144,7.6035141 33.306643,7.45117188 32.8300781,7.45117188 Z M43.5996094,13 C43.5605467,12.8085928 43.5302735,12.6396492 43.5087891,12.4931641 C43.4873046,12.346679 43.4746094,12.1992195 43.4707031,12.0507812 C43.2558583,12.3554703 42.9755877,12.6103505 42.6298828,12.8154297 C42.284178,13.0205088 41.9121114,13.1230469 41.5136719,13.1230469 C40.8535123,13.1230469 40.3505877,12.9541033 40.0048828,12.6162109 C39.659178,12.2783186 39.4863281,11.812503 39.4863281,11.21875 C39.4863281,10.6132782 39.7314429,10.1396501 40.2216797,9.79785156 C40.7119165,9.45605298 41.3769489,9.28515625 42.2167969,9.28515625 L43.4707031,9.28515625 L43.4707031,8.65820312 C43.4707031,8.28710752 43.357423,7.99316515 43.1308594,7.77636719 C42.9042957,7.55956923 42.5839864,7.45117188 42.1699219,7.45117188 C41.7988263,7.45117188 41.4970715,7.54589749 41.2646484,7.73535156 C41.0322254,7.92480563 40.9160156,8.15234242 40.9160156,8.41796875 L39.8144531,8.41796875 L39.8027344,8.3828125 C39.7792968,7.9218727 39.997068,7.50000191 40.4560547,7.1171875 C40.9150414,6.73437309 41.5078089,6.54296875 42.234375,6.54296875 C42.9531286,6.54296875 43.5312478,6.72558411 43.96875,7.09082031 C44.4062522,7.45605651 44.625,7.98241844 44.625,8.66992188 L44.625,11.7226562 C44.625,11.9492199 44.6367186,12.1679677 44.6601562,12.3789062 C44.6835939,12.5898448 44.7265622,12.796874 44.7890625,13 L43.5996094,13 Z M41.6835938,12.15625 C42.1015646,12.15625 42.4785139,12.0488292 42.8144531,11.8339844 C43.1503923,11.6191396 43.3691401,11.3730483 43.4707031,11.0957031 L43.4707031,10.0644531 L42.1757812,10.0644531 C41.7109352,10.0644531 41.3388686,10.1816395 41.0595703,10.4160156 C40.780272,10.6503918 40.640625,10.9257797 40.640625,11.2421875 C40.640625,11.5234389 40.7285147,11.7460929 40.9042969,11.9101562 C41.080079,12.0742196 41.339842,12.15625 41.6835938,12.15625 Z M48.8789062,12.2207031 C49.2617207,12.2207031 49.5986314,12.1025402 49.8896484,11.8662109 C50.1806655,11.6298816 50.3261719,11.3398455 50.3261719,10.9960938 L51.3632812,10.9960938 L51.375,11.03125 C51.3945313,11.5781277 51.1513697,12.0634744 50.6455078,12.4873047 C50.1396459,12.9111349 49.5507846,13.1230469 48.8789062,13.1230469 C47.9570266,13.1230469 47.2519556,12.8222686 46.7636719,12.2207031 C46.2753882,11.6191376 46.03125,10.8632858 46.03125,9.953125 L46.03125,9.70703125 C46.03125,8.80468299 46.2763647,8.05176083 46.7666016,7.44824219 C47.2568384,6.84472354 47.9609329,6.54296875 48.8789062,6.54296875 C49.6210975,6.54296875 50.2275367,6.76171656 50.6982422,7.19921875 C51.1689477,7.63672094 51.3964845,8.17382494 51.3808594,8.81054688 L51.3691406,8.84570312 L50.3261719,8.84570312 C50.3261719,8.45898244 50.1894545,8.12988417 49.9160156,7.85839844 C49.6425768,7.58691271 49.2968771,7.45117188 48.8789062,7.45117188 C48.2734345,7.45117188 47.8408216,7.66894313 47.5810547,8.10449219 C47.3212878,8.54004124 47.1914062,9.07421559 47.1914062,9.70703125 L47.1914062,9.953125 C47.1914062,10.6015657 47.3203112,11.1415994 47.578125,11.5732422 C47.8359388,12.004885 48.2695282,12.2207031 48.8789062,12.2207031 Z M54.1933594,5.13085938 L54.1933594,6.66015625 L55.3945312,6.66015625 L55.3945312,7.515625 L54.1933594,7.515625 L54.1933594,11.3652344 C54.1933594,11.6621109 54.2548822,11.8710931 54.3779297,11.9921875 C54.5009772,12.1132819 54.6640615,12.1738281 54.8671875,12.1738281 C54.9335941,12.1738281 55.0068355,12.1660157 55.0869141,12.1503906 C55.1669926,12.1347655 55.2382809,12.1152345 55.3007812,12.0917969 L55.453125,12.8828125 C55.3671871,12.9531254 55.2412118,13.010742 55.0751953,13.0556641 C54.9091789,13.1005862 54.7421883,13.1230469 54.5742187,13.1230469 C54.1054664,13.1230469 53.7324233,12.9814467 53.4550781,12.6982422 C53.177733,12.4150376 53.0390625,11.9707062 53.0390625,11.3652344 L53.0390625,7.515625 L52.03125,7.515625 L52.03125,6.66015625 L53.0390625,6.66015625 L53.0390625,5.13085938 L54.1933594,5.13085938 Z M58.0664062,13 L56.9121094,13 L56.9121094,6.66015625 L58.0664062,6.66015625 L58.0664062,13 Z M58.0664062,5.03710938 L56.9121094,5.03710938 L56.9121094,3.859375 L58.0664062,3.859375 L58.0664062,5.03710938 Z M59.5722656,9.77148438 C59.5722656,8.83397969 59.8261693,8.06152647 60.3339844,7.45410156 C60.8417994,6.84667665 61.5312456,6.54296875 62.4023437,6.54296875 C63.2812544,6.54296875 63.9755834,6.8457001 64.4853516,7.45117188 C64.9951197,8.05664365 65.25,8.83007342 65.25,9.77148438 L65.25,9.90039062 C65.25,10.8457079 64.9960963,11.6191376 64.4882812,12.2207031 C63.9804662,12.8222686 63.2890669,13.1230469 62.4140625,13.1230469 C61.5390581,13.1230469 60.8466822,12.8212921 60.3369141,12.2177734 C59.8271459,11.6142548 59.5722656,10.8418016 59.5722656,9.90039062 L59.5722656,9.77148438 Z M60.7265625,9.90039062 C60.7265625,10.572269 60.8681626,11.1269509 61.1513672,11.5644531 C61.4345717,12.0019553 61.855466,12.2207031 62.4140625,12.2207031 C62.9648465,12.2207031 63.3828111,12.0019553 63.6679687,11.5644531 C63.9531264,11.1269509 64.0957031,10.572269 64.0957031,9.90039062 L64.0957031,9.77148438 C64.0957031,9.10741855 63.9521499,8.55468971 63.6650391,8.11328125 C63.3779283,7.67187279 62.957034,7.45117188 62.4023437,7.45117188 C61.8515597,7.45117188 61.4345717,7.67187279 61.1513672,8.11328125 C60.8681626,8.55468971 60.7265625,9.10741855 60.7265625,9.77148438 L60.7265625,9.90039062 Z M67.6933594,6.66015625 L67.7753906,7.60351562 C67.9863292,7.26757645 68.250975,7.00683687 68.5693359,6.82128906 C68.8876969,6.63574126 69.249998,6.54296875 69.65625,6.54296875 C70.3398472,6.54296875 70.8691388,6.74316206 71.2441406,7.14355469 C71.6191425,7.54394731 71.8066406,8.1621052 71.8066406,8.99804688 L71.8066406,13 L70.6523438,13 L70.6523438,9.02148438 C70.6523438,8.46288783 70.5419933,8.06640742 70.3212891,7.83203125 C70.1005848,7.59765508 69.7636741,7.48046875 69.3105469,7.48046875 C68.978514,7.48046875 68.6845716,7.56054607 68.4287109,7.72070312 C68.1728503,7.88086018 67.9687508,8.09960799 67.8164062,8.37695312 L67.8164062,13 L66.6621094,13 L66.6621094,6.66015625 L67.6933594,6.66015625 Z M77.7128906,13 L76.5585938,13 L76.5585938,6.66015625 L77.7128906,6.66015625 L77.7128906,13 Z M77.7128906,5.03710938 L76.5585938,5.03710938 L76.5585938,3.859375 L77.7128906,3.859375 L77.7128906,5.03710938 Z M82.0664062,12.2207031 C82.4492207,12.2207031 82.7861314,12.1025402 83.0771484,11.8662109 C83.3681655,11.6298816 83.5136719,11.3398455 83.5136719,10.9960938 L84.5507812,10.9960938 L84.5625,11.03125 C84.5820313,11.5781277 84.3388697,12.0634744 83.8330078,12.4873047 C83.3271459,12.9111349 82.7382846,13.1230469 82.0664062,13.1230469 C81.1445266,13.1230469 80.4394556,12.8222686 79.9511719,12.2207031 C79.4628882,11.6191376 79.21875,10.8632858 79.21875,9.953125 L79.21875,9.70703125 C79.21875,8.80468299 79.4638647,8.05176083 79.9541016,7.44824219 C80.4443384,6.84472354 81.1484329,6.54296875 82.0664062,6.54296875 C82.8085975,6.54296875 83.4150367,6.76171656 83.8857422,7.19921875 C84.3564477,7.63672094 84.5839845,8.17382494 84.5683594,8.81054688 L84.5566406,8.84570312 L83.5136719,8.84570312 C83.5136719,8.45898244 83.3769545,8.12988417 83.1035156,7.85839844 C82.8300768,7.58691271 82.4843771,7.45117188 82.0664062,7.45117188 C81.4609345,7.45117188 81.0283216,7.66894313 80.7685547,8.10449219 C80.5087878,8.54004124 80.3789062,9.07421559 80.3789062,9.70703125 L80.3789062,9.953125 C80.3789062,10.6015657 80.5078112,11.1415994 80.765625,11.5732422 C81.0234388,12.004885 81.4570282,12.2207031 82.0664062,12.2207031 Z M85.5878906,9.77148438 C85.5878906,8.83397969 85.8417943,8.06152647 86.3496094,7.45410156 C86.8574244,6.84667665 87.5468706,6.54296875 88.4179688,6.54296875 C89.2968794,6.54296875 89.9912084,6.8457001 90.5009766,7.45117188 C91.0107447,8.05664365 91.265625,8.83007342 91.265625,9.77148438 L91.265625,9.90039062 C91.265625,10.8457079 91.0117213,11.6191376 90.5039062,12.2207031 C89.9960912,12.8222686 89.3046919,13.1230469 88.4296875,13.1230469 C87.5546831,13.1230469 86.8623072,12.8212921 86.3525391,12.2177734 C85.8427709,11.6142548 85.5878906,10.8418016 85.5878906,9.90039062 L85.5878906,9.77148438 Z M86.7421875,9.90039062 C86.7421875,10.572269 86.8837876,11.1269509 87.1669922,11.5644531 C87.4501967,12.0019553 87.871091,12.2207031 88.4296875,12.2207031 C88.9804715,12.2207031 89.3984361,12.0019553 89.6835938,11.5644531 C89.9687514,11.1269509 90.1113281,10.572269 90.1113281,9.90039062 L90.1113281,9.77148438 C90.1113281,9.10741855 89.9677749,8.55468971 89.6806641,8.11328125 C89.3935533,7.67187279 88.972659,7.45117188 88.4179688,7.45117188 C87.8671847,7.45117188 87.4501967,7.67187279 87.1669922,8.11328125 C86.8837876,8.55468971 86.7421875,9.10741855 86.7421875,9.77148438 L86.7421875,9.90039062 Z M93.7089844,6.66015625 L93.7910156,7.60351562 C94.0019542,7.26757645 94.2666,7.00683687 94.5849609,6.82128906 C94.9033219,6.63574126 95.265623,6.54296875 95.671875,6.54296875 C96.3554722,6.54296875 96.8847637,6.74316206 97.2597656,7.14355469 C97.6347675,7.54394731 97.8222656,8.1621052 97.8222656,8.99804688 L97.8222656,13 L96.6679687,13 L96.6679687,9.02148438 C96.6679687,8.46288783 96.5576183,8.06640742 96.3369141,7.83203125 C96.1162098,7.59765508 95.7792991,7.48046875 95.3261719,7.48046875 C94.994139,7.48046875 94.7001966,7.56054607 94.4443359,7.72070312 C94.1884753,7.88086018 93.9843758,8.09960799 93.8320312,8.37695312 L93.8320312,13 L92.6777344,13 L92.6777344,6.66015625 L93.7089844,6.66015625 Z"></path>
            </g>
            <g>
                <g transform="translate(1.000000, 16.000000)">
                    <g transform="translate(1.000000, 1.000000)" fill="#FFFFFF">
                        <rect x="0" y="0" width="208" height="74" rx="2"></rect>
                    </g>
                    <rect stroke="#BDBDBD" x="0.5" y="0.5" width="209" height="75" rx="2"></rect>
                </g>
                <path d="M2.57714844,9.94726562 L7.28710937,9.94726562 L7.28710937,11 L1.23046875,11 L1.23046875,1.046875 L2.57714844,1.046875 L2.57714844,9.94726562 Z M13.0839844,11 C13.0384112,10.7766916 13.0030926,10.5795907 12.9780273,10.4086914 C12.9529621,10.2377921 12.9381511,10.0657561 12.9335938,9.89257812 C12.6829415,10.2480487 12.355959,10.545409 11.9526367,10.784668 C11.5493144,11.023927 11.1152367,11.1435547 10.6503906,11.1435547 C9.88020448,11.1435547 9.29345905,10.9464538 8.89013672,10.5522461 C8.48681439,10.1580384 8.28515625,9.6145868 8.28515625,8.921875 C8.28515625,8.21549126 8.57112344,7.66292517 9.14306641,7.26416016 C9.71500937,6.86539514 10.4908805,6.66601562 11.4707031,6.66601562 L12.9335938,6.66601562 L12.9335938,5.93457031 C12.9335938,5.50162544 12.8014336,5.15869267 12.5371094,4.90576172 C12.2727851,4.65283077 11.899091,4.52636719 11.4160156,4.52636719 C10.9830708,4.52636719 10.6310235,4.63688041 10.3598633,4.85791016 C10.0887031,5.07893991 9.953125,5.34439949 9.953125,5.65429688 L8.66796875,5.65429688 L8.65429688,5.61328125 C8.62695299,5.07551814 8.88101946,4.58333557 9.41650391,4.13671875 C9.95198835,3.69010193 10.6435504,3.46679688 11.4912109,3.46679688 C12.3297568,3.46679688 13.0042292,3.67984813 13.5146484,4.10595703 C14.0250677,4.53206593 14.2802734,5.14615484 14.2802734,5.94824219 L14.2802734,9.50976562 C14.2802734,9.77408986 14.2939452,10.0292956 14.3212891,10.2753906 C14.3486329,10.5214856 14.3987627,10.7630196 14.4716797,11 L13.0839844,11 Z M10.8486328,10.015625 C11.3362655,10.015625 11.7760397,9.89030073 12.1679688,9.63964844 C12.5598978,9.38899614 12.8151036,9.10188964 12.9335938,8.77832031 L12.9335938,7.57519531 L11.4228516,7.57519531 C10.8805311,7.57519531 10.4464535,7.7119127 10.1206055,7.98535156 C9.79475749,8.25879043 9.63183594,8.58007628 9.63183594,8.94921875 C9.63183594,9.27734539 9.73437397,9.53710842 9.93945312,9.72851562 C10.1445323,9.91992283 10.4475891,10.015625 10.8486328,10.015625 Z M22.5517578,7.58203125 C22.5517578,8.64844283 22.2954127,9.50862303 21.7827148,10.1625977 C21.270017,10.8165723 20.5647831,11.1435547 19.6669922,11.1435547 C19.1793595,11.1435547 18.7555357,11.0489918 18.3955078,10.8598633 C18.03548,10.6707347 17.7369804,10.3916034 17.5,10.0224609 L17.3359375,11 L16.2353516,11 L16.2353516,0.3359375 L17.5820312,0.3359375 L17.5820312,4.47851562 C17.8144543,4.15038898 18.1027001,3.89974045 18.4467773,3.7265625 C18.7908546,3.55338455 19.1930316,3.46679688 19.6533203,3.46679688 C20.5647832,3.46679688 21.2757136,3.83137656 21.7861328,4.56054688 C22.296552,5.28971719 22.5517578,6.24901749 22.5517578,7.43847656 L22.5517578,7.58203125 Z M21.2050781,7.43847656 C21.2050781,6.59081607 21.0489924,5.89925398 20.7368164,5.36376953 C20.4246404,4.82828508 19.9495475,4.56054688 19.3115234,4.56054688 C18.8968078,4.56054688 18.5470392,4.6619456 18.262207,4.86474609 C17.9773749,5.06754659 17.7506519,5.33984204 17.5820312,5.68164062 L17.5820312,8.88769531 C17.7552092,9.25228047 17.9819322,9.53710835 18.262207,9.7421875 C18.5424819,9.94726665 18.8968078,10.0498047 19.3251953,10.0498047 C19.958662,10.0498047 20.430337,9.82422101 20.7402344,9.37304688 C21.0501318,8.92187274 21.2050781,8.32487351 21.2050781,7.58203125 L21.2050781,7.43847656 Z M27.2617188,11.1435547 C26.2317657,11.1435547 25.4126007,10.8006219 24.8041992,10.1147461 C24.1957977,9.42887027 23.8916016,8.53906797 23.8916016,7.4453125 L23.8916016,7.14453125 C23.8916016,6.09179161 24.2049122,5.21566105 24.831543,4.51611328 C25.4581737,3.81656551 26.1998655,3.46679688 27.0566406,3.46679688 C28.0546925,3.46679688 28.8089167,3.76757512 29.3193359,4.36914062 C29.8297552,4.97070613 30.0849609,5.77278145 30.0849609,6.77539062 L30.0849609,7.61621094 L25.2861328,7.61621094 L25.265625,7.65039062 C25.2792969,8.36133168 25.4593082,8.94579849 25.8056641,9.40380859 C26.15202,9.8618187 26.6373667,10.0908203 27.2617188,10.0908203 C27.7174502,10.0908203 28.1173485,10.0258796 28.4614258,9.89599609 C28.805503,9.76611263 29.1028633,9.58724072 29.3535156,9.359375 L29.8798828,10.234375 C29.6155586,10.4941419 29.2669292,10.7106111 28.8339844,10.8837891 C28.4010395,11.056967 27.8769562,11.1435547 27.2617188,11.1435547 Z M27.0566406,4.52636719 C26.6054665,4.52636719 26.2203792,4.71663221 25.9013672,5.09716797 C25.5823552,5.47770373 25.3863936,5.95507525 25.3134766,6.52929688 L25.3271484,6.56347656 L28.7382812,6.56347656 L28.7382812,6.38574219 C28.7382812,5.85709371 28.5970066,5.41504084 28.3144531,5.05957031 C28.0318996,4.70409979 27.612633,4.52636719 27.0566406,4.52636719 Z M33.0517578,11 L31.7050781,11 L31.7050781,0.3359375 L33.0517578,0.3359375 L33.0517578,11 Z" fill="#616161"></path>
                <path d="M11.0859375,33.4375 L10.1796875,38 L8.671875,38 L10.9453125,26.625 L15.046875,26.625 C16.0989636,26.625 16.8945286,26.9427052 17.4335938,27.578125 C17.9726589,28.2135448 18.1432302,29.031245 17.9453125,30.03125 C17.721353,31.1302138 17.2434932,31.9726533 16.5117188,32.5585938 C15.7799443,33.1445342 14.8385474,33.4375 13.6875,33.4375 L11.0859375,33.4375 Z M11.328125,32.234375 L13.9296875,32.234375 C14.5755241,32.234375 15.1236957,32.0234396 15.5742188,31.6015625 C16.0247418,31.1796854 16.3124994,30.6614614 16.4375,30.046875 C16.567709,29.380205 16.5039075,28.8450541 16.2460938,28.4414062 C15.98828,28.0377584 15.507816,27.8359375 14.8046875,27.8359375 L12.2109375,27.8359375 L11.328125,32.234375 Z M19.6796875,38 L18.171875,38 L20.609375,25.8125 L22.1171875,25.8125 L19.6796875,38 Z M26.7421875,38 C26.7421875,37.7447904 26.7473958,37.5351571 26.7578125,37.3710938 C26.7682292,37.2070304 26.7864582,37.0390634 26.8125,36.8671875 C26.4635399,37.236981 26.0638043,37.5455717 25.6132813,37.7929688 C25.1627582,38.0403658 24.7109398,38.1640625 24.2578125,38.1640625 C23.4869753,38.1640625 22.9179706,37.9335961 22.5507812,37.4726562 C22.1835919,37.0117164 22.0807284,36.3958372 22.2421875,35.625 C22.408855,34.7656207 22.8320279,34.1210959 23.5117188,33.6914062 C24.1914096,33.2617166 25.0624947,33.046875 26.125,33.046875 L27.5703125,33.046875 L27.734375,32.2109375 C27.8385422,31.6848932 27.7812511,31.2851576 27.5625,31.0117188 C27.3437489,30.7382799 26.9791692,30.6015625 26.46875,30.6015625 C26.0312478,30.6015625 25.6354184,30.7304675 25.28125,30.9882812 C24.9270816,31.246095 24.7161462,31.5468733 24.6484375,31.890625 L23.21875,31.890625 L23.203125,31.84375 C23.3072922,31.1927051 23.6979133,30.6210962 24.375,30.1289062 C25.0520867,29.6367163 25.8593703,29.390625 26.796875,29.390625 C27.6354209,29.390625 28.2981746,29.6393204 28.7851563,30.1367188 C29.2721379,30.6341171 29.4270842,31.3307247 29.25,32.2265625 L28.4375,36.296875 C28.3697913,36.6145849 28.3229168,36.9088528 28.296875,37.1796875 C28.2708332,37.4505222 28.2708332,37.723957 28.296875,38 L26.7421875,38 Z M24.7421875,36.875 C25.1640646,36.875 25.5937478,36.7526054 26.03125,36.5078125 C26.4687522,36.2630196 26.8072905,35.97396 27.046875,35.640625 L27.359375,34.0859375 L25.8671875,34.0859375 C25.3515599,34.0859375 24.8880229,34.2447901 24.4765625,34.5625 C24.0651021,34.8802099 23.8203129,35.2447896 23.7421875,35.65625 C23.6588538,36.0572937 23.6979159,36.3606761 23.859375,36.5664062 C24.0208341,36.7721364 24.315102,36.875 24.7421875,36.875 Z M33.7265625,36.9609375 C34.1744814,36.9609375 34.6028625,36.8020849 35.0117188,36.484375 C35.420575,36.1666651 35.661458,35.7812523 35.734375,35.328125 L37.0859375,35.328125 L37.1015625,35.375 C36.9973953,36.1354205 36.5911494,36.7903618 35.8828125,37.3398438 C35.1744756,37.8893257 34.3932334,38.1640625 33.5390625,38.1640625 C32.4348903,38.1640625 31.6302109,37.7578166 31.125,36.9453125 C30.6197891,36.1328084 30.4635407,35.1302143 30.65625,33.9375 L30.7109375,33.609375 C30.9036468,32.3645771 31.3658818,31.3502643 32.0976562,30.5664062 C32.8294307,29.7825482 33.7760359,29.390625 34.9375,29.390625 C35.8333378,29.390625 36.5351537,29.6835908 37.0429688,30.2695312 C37.5507838,30.8554717 37.7265633,31.5729124 37.5703125,32.421875 L37.5546875,32.4609375 L36.1875,32.4609375 C36.2760421,31.9192681 36.1875013,31.4739601 35.921875,31.125 C35.6562487,30.7760399 35.2656276,30.6015625 34.75,30.6015625 C34.0416631,30.6015625 33.4765646,30.8958304 33.0546875,31.484375 C32.6328104,32.0729196 32.3567715,32.7812459 32.2265625,33.609375 L32.171875,33.9375 C32.0312493,34.8333378 32.0677073,35.5611951 32.28125,36.1210938 C32.4947927,36.6809924 32.9765587,36.9609375 33.7265625,36.9609375 Z M41.609375,38.1640625 C40.5468697,38.1640625 39.7434923,37.7695352 39.1992188,36.9804688 C38.6549452,36.1914023 38.4817698,35.1770895 38.6796875,33.9375 L38.734375,33.59375 C38.9322927,32.3437438 39.4257773,31.330733 40.2148438,30.5546875 C41.0039102,29.778642 41.8567663,29.390625 42.7734375,29.390625 C43.809901,29.390625 44.5520811,29.7369757 45,30.4296875 C45.4479189,31.1223993 45.5833342,32.0364527 45.40625,33.171875 L45.25,34.1328125 L40.15625,34.1328125 C40.0416661,34.9974002 40.1210924,35.6848933 40.3945312,36.1953125 C40.6679701,36.7057317 41.1354134,36.9609375 41.796875,36.9609375 C42.2552106,36.9609375 42.6848938,36.8841154 43.0859375,36.7304688 C43.4869812,36.5768221 43.835936,36.3750012 44.1328125,36.125 L44.5625,37.125 C44.2447901,37.4218765 43.8385441,37.6692698 43.34375,37.8671875 C42.8489559,38.0651052 42.2708366,38.1640625 41.609375,38.1640625 Z M42.5859375,30.6015625 C42.1484353,30.6015625 41.7252625,30.8203103 41.3164062,31.2578125 C40.90755,31.6953147 40.6145842,32.2369759 40.4375,32.8828125 L40.4609375,32.9296875 L43.9375,32.9296875 L43.96875,32.7265625 C44.0677088,32.096351 44.0078136,31.5846374 43.7890625,31.1914062 C43.5703114,30.7981751 43.1692738,30.6015625 42.5859375,30.6015625 Z M49.1796875,30.5703125 C49.5286476,30.1901023 49.9153625,29.8984385 50.3398438,29.6953125 C50.764325,29.4921865 51.2135393,29.390625 51.6875,29.390625 C52.4791706,29.390625 53.0677064,29.6666639 53.453125,30.21875 C53.8385436,30.7708361 53.9218761,31.5989528 53.703125,32.703125 L52.640625,38 L51.1328125,38 L52.1953125,32.6875 C52.3411466,31.947913 52.312501,31.4218766 52.109375,31.109375 C51.906249,30.7968734 51.5260445,30.640625 50.96875,30.640625 C50.6197899,30.640625 50.2656268,30.7434886 49.90625,30.9492188 C49.5468732,31.1549489 49.2239598,31.4296858 48.9375,31.7734375 L47.6953125,38 L46.1875,38 L48.625,25.8125 L50.1328125,25.8125 L49.1796875,30.5703125 Z M55.2421875,33.6953125 C55.4505219,32.3932227 55.9283817,31.3502643 56.6757812,30.5664062 C57.4231808,29.7825482 58.3463487,29.390625 59.4453125,29.390625 C60.4974011,29.390625 61.2851536,29.798173 61.8085938,30.6132812 C62.3320339,31.4283895 62.4947927,32.455723 62.296875,33.6953125 L62.2734375,33.8671875 C62.0598948,35.1744857 61.5794308,36.217444 60.8320312,36.9960938 C60.0846317,37.7747435 59.1614638,38.1640625 58.0625,38.1640625 C57.0104114,38.1640625 56.2226589,37.7578166 55.6992188,36.9453125 C55.1757786,36.1328084 55.015624,35.106777 55.21875,33.8671875 L55.2421875,33.6953125 Z M56.7265625,33.8671875 C56.5755201,34.7994838 56.6210925,35.5481743 56.8632812,36.1132812 C57.10547,36.6783882 57.5677049,36.9609375 58.25,36.9609375 C58.8854198,36.9609375 59.4270811,36.6653675 59.875,36.0742188 C60.3229189,35.48307 60.6171868,34.7474002 60.7578125,33.8671875 L60.78125,33.6953125 C60.9270841,32.7786412 60.8776054,32.033857 60.6328125,31.4609375 C60.3880196,30.888018 59.9296909,30.6015625 59.2578125,30.6015625 C58.6171843,30.6015625 58.074221,30.8984345 57.6289062,31.4921875 C57.1835915,32.0859405 56.8906257,32.8203081 56.75,33.6953125 L56.7265625,33.8671875 Z M64.9375,38 L63.4296875,38 L65.8671875,25.8125 L67.375,25.8125 L64.9375,38 Z M67.703125,33.7734375 C67.9895848,32.3203052 68.4492156,31.2265662 69.0820312,30.4921875 C69.7148469,29.7578088 70.5286409,29.390625 71.5234375,29.390625 C71.9557313,29.390625 72.3476545,29.4804679 72.6992188,29.6601562 C73.050783,29.8398446 73.3385405,30.0937484 73.5625,30.421875 L74.484375,25.8125 L75.9921875,25.8125 L73.5546875,38 L72.2578125,38 L72.3125,37.1875 C71.9999984,37.5104183 71.6549498,37.7539054 71.2773438,37.9179688 C70.8997377,38.0820321 70.4921897,38.1640625 70.0546875,38.1640625 C69.148433,38.1640625 68.4648461,37.7578166 68.0039062,36.9453125 C67.5429664,36.1328084 67.4322905,35.1302143 67.671875,33.9375 L67.703125,33.7734375 Z M69.1875,33.9375 C69.0052074,34.8333378 69.0390613,35.5533827 69.2890625,36.0976562 C69.5390637,36.6419298 70.0078091,36.9140625 70.6953125,36.9140625 C71.065106,36.9140625 71.3971339,36.8111989 71.6914062,36.6054688 C71.9856786,36.3997386 72.2552071,36.1067727 72.5,35.7265625 L73.296875,31.734375 C73.1614577,31.40104 72.9570326,31.1354177 72.6835938,30.9375 C72.4101549,30.7395823 72.0703145,30.640625 71.6640625,30.640625 C71.0390594,30.640625 70.5221375,30.9231743 70.1132812,31.4882812 C69.704425,32.0533882 69.4062509,32.8150994 69.21875,33.7734375 L69.1875,33.9375 Z M79.1484375,38.1640625 C78.0859322,38.1640625 77.2825548,37.7695352 76.7382813,36.9804688 C76.1940077,36.1914023 76.0208323,35.1770895 76.21875,33.9375 L76.2734375,33.59375 C76.4713552,32.3437438 76.9648398,31.330733 77.7539063,30.5546875 C78.5429727,29.778642 79.3958288,29.390625 80.3125,29.390625 C81.3489635,29.390625 82.0911436,29.7369757 82.5390625,30.4296875 C82.9869814,31.1223993 83.1223967,32.0364527 82.9453125,33.171875 L82.7890625,34.1328125 L77.6953125,34.1328125 C77.5807286,34.9974002 77.6601549,35.6848933 77.9335938,36.1953125 C78.2070326,36.7057317 78.6744759,36.9609375 79.3359375,36.9609375 C79.7942731,36.9609375 80.2239563,36.8841154 80.625,36.7304688 C81.0260437,36.5768221 81.3749985,36.3750012 81.671875,36.125 L82.1015625,37.125 C81.7838526,37.4218765 81.3776066,37.6692698 80.8828125,37.8671875 C80.3880184,38.0651052 79.8098991,38.1640625 79.1484375,38.1640625 Z M80.125,30.6015625 C79.6874978,30.6015625 79.264325,30.8203103 78.8554688,31.2578125 C78.4466125,31.6953147 78.1536467,32.2369759 77.9765625,32.8828125 L78,32.9296875 L81.4765625,32.9296875 L81.5078125,32.7265625 C81.6067713,32.096351 81.5468761,31.5846374 81.328125,31.1914062 C81.1093739,30.7981751 80.7083363,30.6015625 80.125,30.6015625 Z M88.96875,30.90625 L88.140625,30.859375 C87.7968733,30.859375 87.4804702,30.9570303 87.1914062,31.1523438 C86.9023423,31.3476572 86.6510427,31.6223941 86.4375,31.9765625 L85.234375,38 L83.7265625,38 L85.4140625,29.546875 L86.765625,29.546875 L86.671875,30.6796875 C86.9635431,30.2682271 87.2929669,29.950522 87.6601562,29.7265625 C88.0273456,29.502603 88.4218729,29.390625 88.84375,29.390625 C88.9479172,29.390625 89.0611973,29.3997395 89.1835938,29.4179688 C89.3059902,29.436198 89.395833,29.4557291 89.453125,29.4765625 L88.96875,30.90625 Z M96.921875,27.5078125 L96.5078125,29.546875 L97.96875,29.546875 L97.7421875,30.6875 L96.28125,30.6875 L95.2578125,35.8203125 C95.1692704,36.2421896 95.1822911,36.527343 95.296875,36.6757812 C95.4114589,36.8242195 95.5963529,36.8984375 95.8515625,36.8984375 C95.9713548,36.8984375 96.1158846,36.8867189 96.2851562,36.8632812 C96.4544279,36.8398436 96.5885412,36.8151043 96.6875,36.7890625 L96.6796875,37.84375 C96.5286451,37.9375005 96.3138035,38.0143226 96.0351562,38.0742188 C95.756509,38.1341149 95.4817722,38.1640625 95.2109375,38.1640625 C94.6640598,38.1640625 94.2434911,37.9713561 93.9492188,37.5859375 C93.6549464,37.2005189 93.5885409,36.6119831 93.75,35.8203125 L94.7734375,30.6875 L93.5390625,30.6875 L93.765625,29.546875 L95,29.546875 L95.4140625,27.5078125 L96.921875,27.5078125 Z M101.5625,38.1640625 C100.499995,38.1640625 99.6966173,37.7695352 99.1523438,36.9804688 C98.6080702,36.1914023 98.4348948,35.1770895 98.6328125,33.9375 L98.6875,33.59375 C98.8854177,32.3437438 99.3789023,31.330733 100.167969,30.5546875 C100.957035,29.778642 101.809891,29.390625 102.726562,29.390625 C103.763026,29.390625 104.505206,29.7369757 104.953125,30.4296875 C105.401044,31.1223993 105.536459,32.0364527 105.359375,33.171875 L105.203125,34.1328125 L100.109375,34.1328125 C99.9947911,34.9974002 100.074217,35.6848933 100.347656,36.1953125 C100.621095,36.7057317 101.088538,36.9609375 101.75,36.9609375 C102.208336,36.9609375 102.638019,36.8841154 103.039062,36.7304688 C103.440106,36.5768221 103.789061,36.3750012 104.085938,36.125 L104.515625,37.125 C104.197915,37.4218765 103.791669,37.6692698 103.296875,37.8671875 C102.802081,38.0651052 102.223962,38.1640625 101.5625,38.1640625 Z M102.539062,30.6015625 C102.10156,30.6015625 101.678387,30.8203103 101.269531,31.2578125 C100.860675,31.6953147 100.567709,32.2369759 100.390625,32.8828125 L100.414062,32.9296875 L103.890625,32.9296875 L103.921875,32.7265625 C104.020834,32.096351 103.960939,31.5846374 103.742188,31.1914062 C103.523436,30.7981751 103.122399,30.6015625 102.539062,30.6015625 Z M109.804688,32.6640625 L111.914062,29.546875 L113.671875,29.546875 L110.46875,33.7265625 L112.382812,38 L110.65625,38 L109.492188,34.8046875 L107.304688,38 L105.5625,38 L108.851562,33.7265625 L106.984375,29.546875 L108.71875,29.546875 L109.804688,32.6640625 Z M117.835938,27.5078125 L117.421875,29.546875 L118.882813,29.546875 L118.65625,30.6875 L117.195313,30.6875 L116.171875,35.8203125 C116.083333,36.2421896 116.096354,36.527343 116.210938,36.6757812 C116.325521,36.8242195 116.510415,36.8984375 116.765625,36.8984375 C116.885417,36.8984375 117.029947,36.8867189 117.199219,36.8632812 C117.36849,36.8398436 117.502604,36.8151043 117.601563,36.7890625 L117.59375,37.84375 C117.442708,37.9375005 117.227866,38.0143226 116.949219,38.0742188 C116.670572,38.1341149 116.395835,38.1640625 116.125,38.1640625 C115.578122,38.1640625 115.157554,37.9713561 114.863281,37.5859375 C114.569009,37.2005189 114.502603,36.6119831 114.664063,35.8203125 L115.6875,30.6875 L114.453125,30.6875 L114.679688,29.546875 L115.914063,29.546875 L116.328125,27.5078125 L117.835938,27.5078125 Z" fill="#9E9E9E"></path>
                <g transform="translate(206.242641, 87.242641) rotate(-45.000000) translate(-206.242641, -87.242641) translate(201.742641, 85.742641)" fill="#D8D8D8">
                    <rect x="2" y="2" width="5" height="1"></rect>
                    <rect x="0" y="0" width="9" height="1"></rect>
                </g>
                <g transform="translate(0.000000, 92.000000)" fill="#6B6B6B">
                    <g>
                        <path d="M7.50585937,13 L6.3515625,13 L6.3515625,9.23242188 L2.20898438,9.23242188 L2.20898438,13 L1.0546875,13 L1.0546875,4.46875 L2.20898438,4.46875 L2.20898438,8.32421875 L6.3515625,8.32421875 L6.3515625,4.46875 L7.50585937,4.46875 L7.50585937,13 Z M12.0292969,13.1230469 C11.14648,13.1230469 10.4443385,12.8291045 9.92285156,12.2412109 C9.40136458,11.6533174 9.140625,10.8906297 9.140625,9.953125 L9.140625,9.6953125 C9.140625,8.79296424 9.409177,8.04199519 9.94628906,7.44238281 C10.4834011,6.84277044 11.119137,6.54296875 11.8535156,6.54296875 C12.7089887,6.54296875 13.3554666,6.80077867 13.7929688,7.31640625 C14.2304709,7.83203383 14.4492188,8.51952695 14.4492188,9.37890625 L14.4492188,10.0996094 L10.3359375,10.0996094 L10.3183594,10.1289062 C10.3300782,10.7382843 10.4843735,11.2392558 10.78125,11.6318359 C11.0781265,12.024416 11.4941379,12.2207031 12.0292969,12.2207031 C12.4199238,12.2207031 12.7626938,12.1650396 13.0576172,12.0537109 C13.3525405,11.9423823 13.6074208,11.7890635 13.8222656,11.59375 L14.2734375,12.34375 C14.0468739,12.5664074 13.7480487,12.7519524 13.3769531,12.9003906 C13.0058575,13.0488289 12.5566433,13.1230469 12.0292969,13.1230469 Z M11.8535156,7.45117188 C11.4667949,7.45117188 11.1367201,7.61425618 10.8632812,7.94042969 C10.5898424,8.26660319 10.4218753,8.67577879 10.359375,9.16796875 L10.3710938,9.19726562 L13.2949219,9.19726562 L13.2949219,9.04492188 C13.2949219,8.59179461 13.1738293,8.21289215 12.9316406,7.90820312 C12.6894519,7.6035141 12.3300805,7.45117188 11.8535156,7.45117188 Z M16.9921875,13 L15.8378906,13 L15.8378906,3.859375 L16.9921875,3.859375 L16.9921875,13 Z M24.1699219,10.0703125 C24.1699219,10.9843796 23.9511741,11.7216769 23.5136719,12.2822266 C23.0761697,12.8427762 22.4726601,13.1230469 21.703125,13.1230469 C21.312498,13.1230469 20.969728,13.0576178 20.6748047,12.9267578 C20.3798813,12.7958978 20.1289073,12.5996107 19.921875,12.3378906 L19.921875,15.4375 L18.7675781,15.4375 L18.7675781,6.66015625 L19.6523438,6.66015625 L19.8339844,7.48046875 C20.0410167,7.17577973 20.2988266,6.94336018 20.6074219,6.78320312 C20.9160172,6.62304607 21.2753886,6.54296875 21.6855469,6.54296875 C22.4707071,6.54296875 23.0810525,6.85448907 23.5166016,7.47753906 C23.9521506,8.10058905 24.1699219,8.92382301 24.1699219,9.94726562 L24.1699219,10.0703125 Z M23.015625,9.94726562 C23.015625,9.22851203 22.8740249,8.63769763 22.5908203,8.17480469 C22.3076158,7.71191175 21.8906278,7.48046875 21.3398438,7.48046875 C21.0078108,7.48046875 20.7246105,7.55566331 20.4902344,7.70605469 C20.2558582,7.85644606 20.066407,8.06249869 19.921875,8.32421875 L19.921875,11.3886719 C20.066407,11.6503919 20.2558582,11.8544915 20.4902344,12.0009766 C20.7246105,12.1474617 21.0117171,12.2207031 21.3515625,12.2207031 C21.8984402,12.2207031 22.3124986,12.0205098 22.59375,11.6201172 C22.8750014,11.2197246 23.015625,10.7031282 23.015625,10.0703125 L23.015625,9.94726562 Z M28.21875,13.1230469 C27.3359331,13.1230469 26.6337917,12.8291045 26.1123047,12.2412109 C25.5908177,11.6533174 25.3300781,10.8906297 25.3300781,9.953125 L25.3300781,9.6953125 C25.3300781,8.79296424 25.5986301,8.04199519 26.1357422,7.44238281 C26.6728542,6.84277044 27.3085901,6.54296875 28.0429687,6.54296875 C28.8984418,6.54296875 29.5449197,6.80077867 29.9824219,7.31640625 C30.4199241,7.83203383 30.6386719,8.51952695 30.6386719,9.37890625 L30.6386719,10.0996094 L26.5253906,10.0996094 L26.5078125,10.1289062 C26.5195313,10.7382843 26.6738266,11.2392558 26.9707031,11.6318359 C27.2675796,12.024416 27.6835911,12.2207031 28.21875,12.2207031 C28.609377,12.2207031 28.952147,12.1650396 29.2470703,12.0537109 C29.5419937,11.9423823 29.7968739,11.7890635 30.0117187,11.59375 L30.4628906,12.34375 C30.236327,12.5664074 29.9375019,12.7519524 29.5664062,12.9003906 C29.1953106,13.0488289 28.7460964,13.1230469 28.21875,13.1230469 Z M28.0429687,7.45117188 C27.6562481,7.45117188 27.3261732,7.61425618 27.0527344,7.94042969 C26.7792955,8.26660319 26.6113284,8.67577879 26.5488281,9.16796875 L26.5605469,9.19726562 L29.484375,9.19726562 L29.484375,9.04492188 C29.484375,8.59179461 29.3632825,8.21289215 29.1210937,7.90820312 C28.878905,7.6035141 28.5195336,7.45117188 28.0429687,7.45117188 Z M34.9335937,7.6796875 L34.3417969,7.64453125 C34.0371079,7.64453125 33.7802745,7.71679615 33.5712891,7.86132812 C33.3623036,8.0058601 33.2011724,8.20898307 33.0878906,8.47070312 L33.0878906,13 L31.9335937,13 L31.9335937,6.66015625 L32.9648437,6.66015625 L33.0761719,7.5859375 C33.2558603,7.25781086 33.4775377,7.00195404 33.7412109,6.81835938 C34.0048841,6.63476471 34.308592,6.54296875 34.6523437,6.54296875 C34.7382817,6.54296875 34.8203121,6.54980462 34.8984375,6.56347656 C34.9765629,6.57714851 35.0410154,6.5917968 35.0917969,6.60742188 L34.9335937,7.6796875 Z M40.5527344,5.13085938 L40.5527344,6.66015625 L41.7539062,6.66015625 L41.7539062,7.515625 L40.5527344,7.515625 L40.5527344,11.3652344 C40.5527344,11.6621109 40.6142572,11.8710931 40.7373047,11.9921875 C40.8603522,12.1132819 41.0234365,12.1738281 41.2265625,12.1738281 C41.2929691,12.1738281 41.3662105,12.1660157 41.4462891,12.1503906 C41.5263676,12.1347655 41.5976559,12.1152345 41.6601562,12.0917969 L41.8125,12.8828125 C41.7265621,12.9531254 41.6005868,13.010742 41.4345703,13.0556641 C41.2685539,13.1005862 41.1015633,13.1230469 40.9335938,13.1230469 C40.4648414,13.1230469 40.0917983,12.9814467 39.8144531,12.6982422 C39.537108,12.4150376 39.3984375,11.9707062 39.3984375,11.3652344 L39.3984375,7.515625 L38.390625,7.515625 L38.390625,6.66015625 L39.3984375,6.66015625 L39.3984375,5.13085938 L40.5527344,5.13085938 Z M45.8085937,13.1230469 C44.9257768,13.1230469 44.2236354,12.8291045 43.7021484,12.2412109 C43.1806615,11.6533174 42.9199219,10.8906297 42.9199219,9.953125 L42.9199219,9.6953125 C42.9199219,8.79296424 43.1884739,8.04199519 43.7255859,7.44238281 C44.262698,6.84277044 44.8984338,6.54296875 45.6328125,6.54296875 C46.4882855,6.54296875 47.1347634,6.80077867 47.5722656,7.31640625 C48.0097678,7.83203383 48.2285156,8.51952695 48.2285156,9.37890625 L48.2285156,10.0996094 L44.1152344,10.0996094 L44.0976562,10.1289062 C44.1093751,10.7382843 44.2636704,11.2392558 44.5605469,11.6318359 C44.8574234,12.024416 45.2734348,12.2207031 45.8085937,12.2207031 C46.1992207,12.2207031 46.5419907,12.1650396 46.8369141,12.0537109 C47.1318374,11.9423823 47.3867177,11.7890635 47.6015625,11.59375 L48.0527344,12.34375 C47.8261707,12.5664074 47.5273456,12.7519524 47.15625,12.9003906 C46.7851544,13.0488289 46.3359401,13.1230469 45.8085937,13.1230469 Z M45.6328125,7.45117188 C45.2460918,7.45117188 44.916017,7.61425618 44.6425781,7.94042969 C44.3691393,8.26660319 44.2011722,8.67577879 44.1386719,9.16796875 L44.1503906,9.19726562 L47.0742187,9.19726562 L47.0742187,9.04492188 C47.0742187,8.59179461 46.9531262,8.21289215 46.7109375,7.90820312 C46.4687488,7.6035141 46.1093774,7.45117188 45.6328125,7.45117188 Z M51.6738281,8.99804688 L53.0214844,6.66015625 L54.3691406,6.66015625 L52.3125,9.79492188 L54.4277344,13 L53.1035156,13 L51.6972656,10.6035156 L50.2910156,13 L48.9550781,13 L51.0703125,9.79492188 L49.0136719,6.66015625 L50.34375,6.66015625 L51.6738281,8.99804688 Z M57.0820312,5.13085938 L57.0820312,6.66015625 L58.2832031,6.66015625 L58.2832031,7.515625 L57.0820312,7.515625 L57.0820312,11.3652344 C57.0820312,11.6621109 57.1435541,11.8710931 57.2666016,11.9921875 C57.3896491,12.1132819 57.5527334,12.1738281 57.7558594,12.1738281 C57.822266,12.1738281 57.8955074,12.1660157 57.9755859,12.1503906 C58.0556645,12.1347655 58.1269528,12.1152345 58.1894531,12.0917969 L58.3417969,12.8828125 C58.2558589,12.9531254 58.1298836,13.010742 57.9638672,13.0556641 C57.7978507,13.1005862 57.6308602,13.1230469 57.4628906,13.1230469 C56.9941383,13.1230469 56.6210951,12.9814467 56.34375,12.6982422 C56.0664049,12.4150376 55.9277344,11.9707062 55.9277344,11.3652344 L55.9277344,7.515625 L54.9199219,7.515625 L54.9199219,6.66015625 L55.9277344,6.66015625 L55.9277344,5.13085938 L57.0820312,5.13085938 Z"></path>
                    </g>
                </g>
            </g>
            <g transform="translate(225.500000, 86.500000) scale(-1, 1) translate(-225.500000, -86.500000) translate(210.000000, 83.000000)">
                <path d="M3.5,6.5 L3.5,5 C3.5,4.17157288 4.16741943,3.5 4.99009652,3.5 L30.5,3.5" stroke="#EC407A"></path>
                <g transform="translate(24.000000, 0.000000)">
                    <g>
                        <g fill="#FFFFFF">
                            <polygon points="7 3.5 0 7 0 0"></polygon>
                        </g>
                        <polygon stroke="#EC407A" points="5.88196601 3.5 0.5 0.809016994 0.5 6.19098301"></polygon>
                    </g>
                </g>
                <g>
                    <g>
                        <g fill="#FFFFFF">
                            <circle cx="3.5" cy="3.5" r="3.5"></circle>
                        </g>
                        <circle stroke="#EC407A" cx="3.5" cy="3.5" r="3"></circle>
                    </g>
                </g>
            </g>
        </g>
    </g>
</svg>