<?xml version="1.0" encoding="UTF-8" standalone="no"?>
<svg width="429px" height="77px" viewBox="0 0 429 77" version="1.1" xmlns="http://www.w3.org/2000/svg" xmlns:xlink="http://www.w3.org/1999/xlink">
    <!-- Generator: Sketch 47.1 (45422) - http://www.bohemiancoding.com/sketch -->
    <title>text-fields-text-input-required</title>
    <desc>Created with Sketch.</desc>
    <defs></defs>
    <g stroke="none" stroke-width="1" fill="none" fill-rule="evenodd">
        <g transform="translate(0.000000, -3.000000)">
            <g transform="translate(6.000000, 30.000000)">
                <rect fill="#90D5B2" x="1" y="0" width="4" height="50"></rect>
                <g transform="translate(0.000000, 16.000000)" fill="#000000">
                    <path d="M5.30273438,10.1289062 L6.48046875,10.1289062 L6.48046875,11.03125 L5.30273438,11.03125 L5.30273438,13 L4.15429688,13 L4.15429688,11.03125 L0.322265625,11.03125 L0.322265625,10.3808594 L4.08398438,4.46875 L5.30273438,4.46875 L5.30273438,10.1289062 Z M1.55273438,10.1289062 L4.15429688,10.1289062 L4.15429688,6.12695312 L4.11914062,6.12109375 L4.0078125,6.4140625 L1.55273438,10.1289062 Z"></path>
                </g>
            </g>
            <g transform="translate(0.000000, 25.000000)">
                <g transform="translate(11.000000, 23.000000)">
                    <g transform="translate(1.000000, 1.000000)" fill="#FFFFFF">
                        <rect x="0" y="0" width="208" height="30" rx="2"></rect>
                    </g>
                    <rect stroke="#BDBDBD" x="0.5" y="0.5" width="209" height="31" rx="2"></rect>
                </g>
                <g transform="translate(19.000000, 28.000000)" fill="#616161">
                    <path d="M3.03125,17 L1.484375,17 L1.484375,5.625 L3.03125,5.625 L3.03125,17 Z M7.015625,8.546875 L7.125,9.8046875 C7.40625141,9.35676859 7.75911246,9.00911582 8.18359375,8.76171875 C8.60807504,8.51432168 9.09114313,8.390625 9.6328125,8.390625 C10.5442754,8.390625 11.2499975,8.65754941 11.75,9.19140625 C12.2500025,9.72526309 12.5,10.5494736 12.5,11.6640625 L12.5,17 L10.9609375,17 L10.9609375,11.6953125 C10.9609375,10.9505171 10.8138036,10.4218766 10.5195312,10.109375 C10.2252589,9.79687344 9.77604469,9.640625 9.171875,9.640625 C8.72916445,9.640625 8.33724129,9.74739477 7.99609375,9.9609375 C7.65494621,10.1744802 7.38281352,10.466144 7.1796875,10.8359375 L7.1796875,17 L5.640625,17 L5.640625,8.546875 L7.015625,8.546875 Z M21.9375,13.09375 C21.9375,14.3125061 21.6458363,15.2955692 21.0625,16.0429688 C20.4791637,16.7903683 19.6744843,17.1640625 18.6484375,17.1640625 C18.1276016,17.1640625 17.6705749,17.0768238 17.2773438,16.9023438 C16.8841126,16.7278637 16.5494805,16.4661476 16.2734375,16.1171875 L16.2734375,20.25 L14.734375,20.25 L14.734375,8.546875 L15.9140625,8.546875 L16.15625,9.640625 C16.432293,9.23437297 16.7760396,8.92448023 17.1875,8.7109375 C17.5989604,8.49739477 18.0781223,8.390625 18.625,8.390625 C19.6718802,8.390625 20.4856742,8.80598543 21.0664062,9.63671875 C21.6471383,10.4674521 21.9375,11.5650973 21.9375,12.9296875 L21.9375,13.09375 Z M20.3984375,12.9296875 C20.3984375,11.9713494 20.2096373,11.1835968 19.8320312,10.5664062 C19.4544252,9.94921566 18.8984412,9.640625 18.1640625,9.640625 C17.721352,9.640625 17.3437516,9.74088441 17.03125,9.94140625 C16.7187484,10.1419281 16.4661468,10.4166649 16.2734375,10.765625 L16.2734375,14.8515625 C16.4661468,15.2005226 16.7187484,15.4726553 17.03125,15.6679688 C17.3437516,15.8632822 17.7265602,15.9609375 18.1796875,15.9609375 C18.9088578,15.9609375 19.4609356,15.6940131 19.8359375,15.1601562 C20.2109394,14.6262994 20.3984375,13.9375042 20.3984375,13.09375 L20.3984375,12.9296875 Z M29.1953125,15.75 C28.9296862,16.2031273 28.5885437,16.5520821 28.171875,16.796875 C27.7552063,17.0416679 27.2734402,17.1640625 26.7265625,17.1640625 C25.8046829,17.1640625 25.0859401,16.8697946 24.5703125,16.28125 C24.0546849,15.6927054 23.796875,14.7760479 23.796875,13.53125 L23.796875,8.546875 L25.3359375,8.546875 L25.3359375,13.546875 C25.3359375,14.4479212 25.4687487,15.0677066 25.734375,15.40625 C26.0000013,15.7447934 26.4140597,15.9140625 26.9765625,15.9140625 C27.5234402,15.9140625 27.9752586,15.8033865 28.3320312,15.5820312 C28.6888039,15.360676 28.9583324,15.046877 29.140625,14.640625 L29.140625,8.546875 L30.6796875,8.546875 L30.6796875,17 L29.296875,17 L29.1953125,15.75 Z M34.953125,6.5078125 L34.953125,8.546875 L36.5546875,8.546875 L36.5546875,9.6875 L34.953125,9.6875 L34.953125,14.8203125 C34.953125,15.2161478 35.0351554,15.4947909 35.1992188,15.65625 C35.3632821,15.8177091 35.5807278,15.8984375 35.8515625,15.8984375 C35.9401046,15.8984375 36.0377599,15.8880209 36.1445312,15.8671875 C36.2513026,15.8463541 36.3463537,15.8203127 36.4296875,15.7890625 L36.6328125,16.84375 C36.5182286,16.9375005 36.3502615,17.0143226 36.1289062,17.0742188 C35.907551,17.1341149 35.684897,17.1640625 35.4609375,17.1640625 C34.8359344,17.1640625 34.3385435,16.9752623 33.96875,16.5976562 C33.5989565,16.2200502 33.4140625,15.6276082 33.4140625,14.8203125 L33.4140625,9.6875 L32.0703125,9.6875 L32.0703125,8.546875 L33.4140625,8.546875 L33.4140625,6.5078125 L34.953125,6.5078125 Z M45.25,14.5078125 L45.3828125,15.1015625 L45.4296875,15.1015625 L45.578125,14.5078125 L47.5234375,8.546875 L49.09375,8.546875 L45.984375,17 L44.8203125,17 L41.671875,8.546875 L43.25,8.546875 L45.25,14.5078125 Z M55.5546875,17 C55.5026039,16.7447904 55.4622397,16.5195322 55.4335938,16.3242188 C55.4049478,16.1289053 55.3880209,15.9322927 55.3828125,15.734375 C55.0963527,16.140627 54.7226586,16.4804674 54.2617188,16.7539062 C53.8007789,17.0273451 53.3046902,17.1640625 52.7734375,17.1640625 C51.8932248,17.1640625 51.2226586,16.9388043 50.7617188,16.4882812 C50.3007789,16.0377582 50.0703125,15.4166706 50.0703125,14.625 C50.0703125,13.8177043 50.3971321,13.1862002 51.0507812,12.7304688 C51.7044304,12.2747373 52.5911402,12.046875 53.7109375,12.046875 L55.3828125,12.046875 L55.3828125,11.2109375 C55.3828125,10.7161434 55.2317723,10.3242202 54.9296875,10.0351562 C54.6276027,9.7460923 54.2005236,9.6015625 53.6484375,9.6015625 C53.1536434,9.6015625 52.7513036,9.72786332 52.4414062,9.98046875 C52.1315089,10.2330742 51.9765625,10.5364566 51.9765625,10.890625 L50.5078125,10.890625 L50.4921875,10.84375 C50.4609373,10.2291636 50.751299,9.66666922 51.3632812,9.15625 C51.9752635,8.64583078 52.7656202,8.390625 53.734375,8.390625 C54.6927131,8.390625 55.4635387,8.63411215 56.046875,9.12109375 C56.6302113,9.60807535 56.921875,10.3098912 56.921875,11.2265625 L56.921875,15.296875 C56.921875,15.5989598 56.9374998,15.8906236 56.96875,16.171875 C57.0000002,16.4531264 57.0572912,16.7291653 57.140625,17 L55.5546875,17 Z M53,15.875 C53.5572945,15.875 54.0598936,15.7317723 54.5078125,15.4453125 C54.9557314,15.1588527 55.2473952,14.830731 55.3828125,14.4609375 L55.3828125,13.0859375 L53.65625,13.0859375 C53.0364552,13.0859375 52.5403664,13.2421859 52.1679688,13.5546875 C51.7955711,13.8671891 51.609375,14.2343729 51.609375,14.65625 C51.609375,15.0312519 51.7265613,15.3281239 51.9609375,15.546875 C52.1953137,15.7656261 52.5416644,15.875 53,15.875 Z M60.8203125,17 L59.28125,17 L59.28125,4.8125 L60.8203125,4.8125 L60.8203125,17 Z M68.5546875,15.75 C68.2890612,16.2031273 67.9479187,16.5520821 67.53125,16.796875 C67.1145813,17.0416679 66.6328152,17.1640625 66.0859375,17.1640625 C65.1640579,17.1640625 64.4453151,16.8697946 63.9296875,16.28125 C63.4140599,15.6927054 63.15625,14.7760479 63.15625,13.53125 L63.15625,8.546875 L64.6953125,8.546875 L64.6953125,13.546875 C64.6953125,14.4479212 64.8281237,15.0677066 65.09375,15.40625 C65.3593763,15.7447934 65.7734347,15.9140625 66.3359375,15.9140625 C66.8828152,15.9140625 67.3346336,15.8033865 67.6914062,15.5820312 C68.0481789,15.360676 68.3177074,15.046877 68.5,14.640625 L68.5,8.546875 L70.0390625,8.546875 L70.0390625,17 L68.65625,17 L68.5546875,15.75 Z M75.7890625,17.1640625 C74.6119733,17.1640625 73.6757847,16.7721393 72.9804688,15.9882812 C72.2851528,15.2044232 71.9375,14.1875063 71.9375,12.9375 L71.9375,12.59375 C71.9375,11.390619 72.2955693,10.3893269 73.0117188,9.58984375 C73.7278682,8.79036059 74.5755159,8.390625 75.5546875,8.390625 C76.6953182,8.390625 77.5572887,8.73437156 78.140625,9.421875 C78.7239613,10.1093784 79.015625,11.0260359 79.015625,12.171875 L79.015625,13.1328125 L73.53125,13.1328125 L73.5078125,13.171875 C73.5234376,13.9843791 73.7291647,14.6523411 74.125,15.1757812 C74.5208353,15.6992214 75.0755173,15.9609375 75.7890625,15.9609375 C76.3098984,15.9609375 76.7669251,15.8867195 77.1601562,15.7382812 C77.5533874,15.589843 77.8932277,15.385418 78.1796875,15.125 L78.78125,16.125 C78.4791652,16.4218765 78.0807316,16.6692698 77.5859375,16.8671875 C77.0911434,17.0651052 76.492191,17.1640625 75.7890625,17.1640625 Z M75.5546875,9.6015625 C75.0390599,9.6015625 74.5989602,9.81900824 74.234375,10.2539062 C73.8697898,10.6888043 73.6458337,11.2343717 73.5625,11.890625 L73.578125,11.9296875 L77.4765625,11.9296875 L77.4765625,11.7265625 C77.4765625,11.1223928 77.3151058,10.6171895 76.9921875,10.2109375 C76.6692692,9.80468547 76.1901073,9.6015625 75.5546875,9.6015625 Z"></path>
                </g>
                <g fill="#D32F2F">
                    <polygon points="3.171875 8.28710938 1.1484375 7.67871094 1.48339844 6.62597656 3.50683594 7.38476562 3.43847656 5.046875 4.5390625 5.046875 4.47070312 7.42578125 6.47363281 6.67382812 6.80175781 7.74023438 4.73730469 8.34863281 6.05664062 10.1943359 5.16113281 10.8505859 3.92382812 8.88867188 2.72070312 10.7958984 1.81835938 10.1601562"></polygon>
                </g>
                <g transform="translate(10.000000, 0.000000)" fill="#6B6B6B">
                    <path d="M2.57714844,10.6865234 L2.57714844,15 L1.23046875,15 L1.23046875,5.05371094 L4.83300781,5.05371094 C5.92220597,5.05371094 6.75390338,5.29524498 7.328125,5.77832031 C7.90234662,6.26139564 8.18945312,6.96321154 8.18945312,7.88378906 C8.18945312,8.39420828 8.05615368,8.83853978 7.78955078,9.21679688 C7.52294789,9.59505397 7.13444266,9.89583222 6.62402344,10.1191406 C7.17090117,10.2968759 7.56396365,10.5851217 7.80322266,10.9838867 C8.04248167,11.3826517 8.16210938,11.8759736 8.16210938,12.4638672 L8.16210938,13.4003906 C8.16210938,13.710288 8.19628872,13.98828 8.26464844,14.234375 C8.33300815,14.48047 8.45149655,14.6809888 8.62011719,14.8359375 L8.62011719,15 L7.23242188,15 C7.05468661,14.8450513 6.94075546,14.617189 6.890625,14.3164062 C6.84049454,14.0156235 6.81542969,13.7057308 6.81542969,13.3867188 L6.81542969,12.4775391 C6.81542969,11.939776 6.6582047,11.5068376 6.34375,11.1787109 C6.0292953,10.8505843 5.60775004,10.6865234 5.07910156,10.6865234 L2.57714844,10.6865234 Z M2.57714844,9.62695312 L4.69628906,9.62695312 C5.45736058,9.62695312 6.00536942,9.48226056 6.34033203,9.19287109 C6.67529464,8.90348163 6.84277344,8.46256807 6.84277344,7.87011719 C6.84277344,7.30956751 6.67985189,6.87548982 6.35400391,6.56787109 C6.02815592,6.26025237 5.52116229,6.10644531 4.83300781,6.10644531 L2.57714844,6.10644531 L2.57714844,9.62695312 Z M13.3232422,15.1435547 C12.2932891,15.1435547 11.4741241,14.8006219 10.8657227,14.1147461 C10.2573212,13.4288703 9.953125,12.539068 9.953125,11.4453125 L9.953125,11.1445312 C9.953125,10.0917916 10.2664357,9.21566105 10.8930664,8.51611328 C11.5196971,7.81656551 12.2613889,7.46679688 13.1181641,7.46679688 C14.1162159,7.46679688 14.8704402,7.76757512 15.3808594,8.36914062 C15.8912786,8.97070613 16.1464844,9.77278145 16.1464844,10.7753906 L16.1464844,11.6162109 L11.3476562,11.6162109 L11.3271484,11.6503906 C11.3408204,12.3613317 11.5208316,12.9457985 11.8671875,13.4038086 C12.2135434,13.8618187 12.6988901,14.0908203 13.3232422,14.0908203 C13.7789736,14.0908203 14.178872,14.0258796 14.5229492,13.8959961 C14.8670265,13.7661126 15.1643868,13.5872407 15.4150391,13.359375 L15.9414062,14.234375 C15.677082,14.4941419 15.3284527,14.7106111 14.8955078,14.8837891 C14.4625629,15.056967 13.9384796,15.1435547 13.3232422,15.1435547 Z M13.1181641,8.52636719 C12.6669899,8.52636719 12.2819026,8.71663221 11.9628906,9.09716797 C11.6438786,9.47770373 11.447917,9.95507525 11.375,10.5292969 L11.3886719,10.5634766 L14.7998047,10.5634766 L14.7998047,10.3857422 C14.7998047,9.85709371 14.6585301,9.41504084 14.3759766,9.05957031 C14.0934231,8.70409979 13.6741564,8.52636719 13.1181641,8.52636719 Z M17.3496094,11.4384766 C17.3496094,10.2490175 17.6036758,9.28971719 18.1118164,8.56054688 C18.619957,7.83137656 19.3320267,7.46679688 20.2480469,7.46679688 C20.699221,7.46679688 21.0957014,7.55224524 21.4375,7.72314453 C21.7792986,7.89404382 22.0686837,8.14355305 22.3056641,8.47167969 L22.5039062,7.60351563 L23.5292969,7.60351563 L23.5292969,17.84375 L22.1826172,17.84375 L22.1826172,14.3027344 C21.9456368,14.5807306 21.6653662,14.7903639 21.3417969,14.9316406 C21.0182275,15.0729174 20.6490906,15.1435547 20.234375,15.1435547 C19.3320267,15.1435547 18.6256536,14.8165723 18.1152344,14.1625977 C17.6048152,13.508623 17.3496094,12.6484428 17.3496094,11.5820312 L17.3496094,11.4384766 Z M18.6962891,11.5820312 C18.6962891,12.3294308 18.8500961,12.9344052 19.1577148,13.3969727 C19.4653336,13.8595401 19.9381479,14.0908203 20.5761719,14.0908203 C20.9453143,14.0908203 21.2609036,14.0087899 21.5229492,13.8447266 C21.7849948,13.6806632 22.0048819,13.4505223 22.1826172,13.1542969 L22.1826172,9.421875 C22.0048819,9.14387882 21.7849948,8.92513101 21.5229492,8.765625 C21.2609036,8.60611899 20.9498716,8.52636719 20.5898438,8.52636719 C19.9472624,8.52636719 19.4710302,8.79866264 19.1611328,9.34326172 C18.8512354,9.8878608 18.6962891,10.5862588 18.6962891,11.4384766 L18.6962891,11.5820312 Z M30.3105469,13.90625 C30.0781238,14.3027364 29.7796242,14.6080718 29.4150391,14.8222656 C29.0504539,15.0364594 28.6289086,15.1435547 28.1503906,15.1435547 C27.343746,15.1435547 26.714846,14.8860703 26.2636719,14.3710938 C25.8124977,13.8561172 25.5869141,13.0540419 25.5869141,11.9648438 L25.5869141,7.60351562 L26.9335938,7.60351562 L26.9335938,11.9785156 C26.9335938,12.766931 27.0498035,13.3092433 27.2822266,13.6054688 C27.5146496,13.9016942 27.8769507,14.0498047 28.3691406,14.0498047 C28.8476586,14.0498047 29.2429997,13.9529632 29.5551758,13.7592773 C29.8673518,13.5655915 30.1031893,13.2910174 30.2626953,12.9355469 L30.2626953,7.60351562 L31.609375,7.60351562 L31.609375,15 L30.3994141,15 L30.3105469,13.90625 Z M35.0273438,15 L33.6806641,15 L33.6806641,7.60351562 L35.0273438,7.60351562 L35.0273438,15 Z M35.0273438,5.70996094 L33.6806641,5.70996094 L33.6806641,4.3359375 L35.0273438,4.3359375 L35.0273438,5.70996094 Z M40.5986328,8.79296875 L39.9082031,8.75195312 C39.5527326,8.75195312 39.2530937,8.83626218 39.0092773,9.00488281 C38.765461,9.17350345 38.5774746,9.41048024 38.4453125,9.71582031 L38.4453125,15 L37.0986328,15 L37.0986328,7.60351562 L38.3017578,7.60351562 L38.4316406,8.68359375 C38.6412771,8.30077934 38.8999008,8.00227972 39.2075195,7.78808594 C39.5151383,7.57389216 39.8694641,7.46679688 40.2705078,7.46679688 C40.3707687,7.46679688 40.4664709,7.47477206 40.5576172,7.49072266 C40.6487635,7.50667326 40.723958,7.52376293 40.7832031,7.54199219 L40.5986328,8.79296875 Z M44.8369141,15.1435547 C43.806961,15.1435547 42.987796,14.8006219 42.3793945,14.1147461 C41.7709931,13.4288703 41.4667969,12.539068 41.4667969,11.4453125 L41.4667969,11.1445312 C41.4667969,10.0917916 41.7801075,9.21566105 42.4067383,8.51611328 C43.033369,7.81656551 43.7750608,7.46679688 44.6318359,7.46679688 C45.6298878,7.46679688 46.384112,7.76757512 46.8945313,8.36914062 C47.4049505,8.97070613 47.6601563,9.77278145 47.6601563,10.7753906 L47.6601563,11.6162109 L42.8613281,11.6162109 L42.8408203,11.6503906 C42.8544923,12.3613317 43.0345035,12.9457985 43.3808594,13.4038086 C43.7272153,13.8618187 44.212562,14.0908203 44.8369141,14.0908203 C45.2926455,14.0908203 45.6925439,14.0258796 46.0366211,13.8959961 C46.3806983,13.7661126 46.6780586,13.5872407 46.9287109,13.359375 L47.4550781,14.234375 C47.1907539,14.4941419 46.8421246,14.7106111 46.4091797,14.8837891 C45.9762348,15.056967 45.4521515,15.1435547 44.8369141,15.1435547 Z M44.6318359,8.52636719 C44.1806618,8.52636719 43.7955745,8.71663221 43.4765625,9.09716797 C43.1575505,9.47770373 42.9615889,9.95507525 42.8886719,10.5292969 L42.9023438,10.5634766 L46.3134766,10.5634766 L46.3134766,10.3857422 C46.3134766,9.85709371 46.1722019,9.41504084 45.8896484,9.05957031 C45.6070949,8.70409979 45.1878283,8.52636719 44.6318359,8.52636719 Z M48.8632813,11.4384766 C48.8632813,10.2490175 49.1173477,9.28971719 49.6254883,8.56054688 C50.1336288,7.83137656 50.8456985,7.46679687 51.7617188,7.46679687 C52.1946636,7.46679687 52.5786116,7.54654868 52.9135742,7.70605469 C53.2485368,7.86556069 53.534504,8.09798024 53.7714844,8.40332031 L53.7714844,4.3359375 L55.1181641,4.3359375 L55.1181641,15 L54.0175781,15 L53.8603516,14.0908203 C53.6188139,14.4371762 53.3225929,14.6992179 52.9716797,14.8769531 C52.6207665,15.0546884 52.2128929,15.1435547 51.7480469,15.1435547 C50.8456986,15.1435547 50.1393255,14.8165723 49.6289063,14.1625977 C49.118487,13.508623 48.8632813,12.6484428 48.8632813,11.5820312 L48.8632813,11.4384766 Z M50.2099609,11.5820312 C50.2099609,12.3294308 50.3626287,12.9275694 50.6679688,13.3764648 C50.9733088,13.8253603 51.4472624,14.0498047 52.0898438,14.0498047 C52.4908874,14.0498047 52.8281236,13.9586598 53.1015625,13.7763672 C53.3750014,13.5940746 53.5983064,13.3388688 53.7714844,13.0107422 L53.7714844,9.55859375 C53.5983064,9.25325368 53.3738621,9.01058033 53.0981445,8.83056641 C52.822427,8.65055249 52.4908874,8.56054688 52.1035156,8.56054688 C51.456377,8.56054688 50.9790054,8.82714577 50.6713867,9.36035156 C50.363768,9.89355735 50.2099609,10.5862588 50.2099609,11.4384766 L50.2099609,11.5820312 Z"></path>
                </g>
            </g>
            <g transform="translate(255.000000, 0.000000)" fill="#EC407A">
                <path d="M5.67773438,10.8027344 L2.10351562,10.8027344 L1.29492188,13 L0.1171875,13 L3.41601562,4.46875 L4.40625,4.46875 L7.65234375,13 L6.47460938,13 L5.67773438,10.8027344 Z M2.4609375,9.8359375 L5.33203125,9.8359375 L3.92578125,5.95117188 L3.890625,5.95117188 L2.4609375,9.8359375 Z M12.2929688,11.3183594 C12.2929688,11.0644519 12.19629,10.8554696 12.0029297,10.6914062 C11.8095693,10.5273429 11.4433621,10.3847662 10.9042969,10.2636719 C10.1347618,10.0957023 9.55566601,9.8681655 9.16699219,9.58105469 C8.77831837,9.29394388 8.58398438,8.90234623 8.58398438,8.40625 C8.58398438,7.89062242 8.80273219,7.45117369 9.24023438,7.08789062 C9.67773656,6.72460756 10.2480434,6.54296875 10.9511719,6.54296875 C11.6894568,6.54296875 12.276365,6.73241998 12.7119141,7.11132812 C13.1474631,7.49023627 13.3554688,7.95116916 13.3359375,8.49414062 L13.3242188,8.52929688 L12.2226562,8.52929688 C12.2226562,8.25195174 12.1064465,8.00293079 11.8740234,7.78222656 C11.6416004,7.56152233 11.3339863,7.45117188 10.9511719,7.45117188 C10.5410136,7.45117188 10.2363291,7.54101473 10.0371094,7.72070312 C9.83788963,7.90039152 9.73828125,8.11718623 9.73828125,8.37109375 C9.73828125,8.621095 9.826171,8.81835865 10.0019531,8.96289062 C10.1777353,9.1074226 10.5351536,9.23632756 11.0742188,9.34960938 C11.875004,9.52148523 12.4707012,9.75488134 12.8613281,10.0498047 C13.2519551,10.344728 13.4472656,10.7402319 13.4472656,11.2363281 C13.4472656,11.7988309 13.2197288,12.2539045 12.7646484,12.6015625 C12.309568,12.9492205 11.7148474,13.1230469 10.9804688,13.1230469 C10.171871,13.1230469 9.53515857,12.9179708 9.0703125,12.5078125 C8.60546643,12.0976542 8.38476551,11.6191434 8.40820312,11.0722656 L8.41992188,11.0371094 L9.52148438,11.0371094 C9.54101572,11.4472677 9.69335795,11.7470694 9.97851562,11.9365234 C10.2636733,12.1259775 10.5976543,12.2207031 10.9804688,12.2207031 C11.3906271,12.2207031 11.7119129,12.1376961 11.9443359,11.9716797 C12.176759,11.8056632 12.2929688,11.587892 12.2929688,11.3183594 Z M16.40625,5.13085938 L16.40625,6.66015625 L17.6074219,6.66015625 L17.6074219,7.515625 L16.40625,7.515625 L16.40625,11.3652344 C16.40625,11.6621109 16.4677728,11.8710931 16.5908203,11.9921875 C16.7138678,12.1132819 16.8769521,12.1738281 17.0800781,12.1738281 C17.1464847,12.1738281 17.2197262,12.1660157 17.2998047,12.1503906 C17.3798832,12.1347655 17.4511716,12.1152345 17.5136719,12.0917969 L17.6660156,12.8828125 C17.5800777,12.9531254 17.4541024,13.010742 17.2880859,13.0556641 C17.1220695,13.1005862 16.955079,13.1230469 16.7871094,13.1230469 C16.318357,13.1230469 15.9453139,12.9814467 15.6679688,12.6982422 C15.3906236,12.4150376 15.2519531,11.9707062 15.2519531,11.3652344 L15.2519531,7.515625 L14.2441406,7.515625 L14.2441406,6.66015625 L15.2519531,6.66015625 L15.2519531,5.13085938 L16.40625,5.13085938 Z M21.6621094,13.1230469 C20.7792925,13.1230469 20.077151,12.8291045 19.5556641,12.2412109 C19.0341771,11.6533174 18.7734375,10.8906297 18.7734375,9.953125 L18.7734375,9.6953125 C18.7734375,8.79296424 19.0419895,8.04199519 19.5791016,7.44238281 C20.1162136,6.84277044 20.7519495,6.54296875 21.4863281,6.54296875 C22.3418012,6.54296875 22.9882791,6.80077867 23.4257812,7.31640625 C23.8632834,7.83203383 24.0820312,8.51952695 24.0820312,9.37890625 L24.0820312,10.0996094 L19.96875,10.0996094 L19.9511719,10.1289062 C19.9628907,10.7382843 20.117186,11.2392558 20.4140625,11.6318359 C20.710939,12.024416 21.1269504,12.2207031 21.6621094,12.2207031 C22.0527363,12.2207031 22.3955063,12.1650396 22.6904297,12.0537109 C22.985353,11.9423823 23.2402333,11.7890635 23.4550781,11.59375 L23.90625,12.34375 C23.6796864,12.5664074 23.3808612,12.7519524 23.0097656,12.9003906 C22.63867,13.0488289 22.1894558,13.1230469 21.6621094,13.1230469 Z M21.4863281,7.45117188 C21.0996074,7.45117188 20.7695326,7.61425618 20.4960938,7.94042969 C20.2226549,8.26660319 20.0546878,8.67577879 19.9921875,9.16796875 L20.0039062,9.19726562 L22.9277344,9.19726562 L22.9277344,9.04492188 C22.9277344,8.59179461 22.8066418,8.21289215 22.5644531,7.90820312 C22.3222644,7.6035141 21.962893,7.45117188 21.4863281,7.45117188 Z M28.3769531,7.6796875 L27.7851562,7.64453125 C27.4804672,7.64453125 27.2236339,7.71679615 27.0146484,7.86132812 C26.805663,8.0058601 26.6445318,8.20898307 26.53125,8.47070312 L26.53125,13 L25.3769531,13 L25.3769531,6.66015625 L26.4082031,6.66015625 L26.5195312,7.5859375 C26.6992196,7.25781086 26.9208971,7.00195404 27.1845703,6.81835938 C27.4482435,6.63476471 27.7519514,6.54296875 28.0957031,6.54296875 C28.1816411,6.54296875 28.2636715,6.54980462 28.3417969,6.56347656 C28.4199223,6.57714851 28.4843747,6.5917968 28.5351562,6.60742188 L28.3769531,7.6796875 Z M30.7382812,13 L29.5839844,13 L29.5839844,6.66015625 L30.7382812,6.66015625 L30.7382812,13 Z M30.7382812,5.03710938 L29.5839844,5.03710938 L29.5839844,3.859375 L30.7382812,3.859375 L30.7382812,5.03710938 Z M36.1992188,11.3183594 C36.1992188,11.0644519 36.10254,10.8554696 35.9091797,10.6914062 C35.7158193,10.5273429 35.3496121,10.3847662 34.8105469,10.2636719 C34.0410118,10.0957023 33.461916,9.8681655 33.0732422,9.58105469 C32.6845684,9.29394388 32.4902344,8.90234623 32.4902344,8.40625 C32.4902344,7.89062242 32.7089822,7.45117369 33.1464844,7.08789062 C33.5839866,6.72460756 34.1542934,6.54296875 34.8574219,6.54296875 C35.5957068,6.54296875 36.182615,6.73241998 36.6181641,7.11132812 C37.0537131,7.49023627 37.2617188,7.95116916 37.2421875,8.49414062 L37.2304688,8.52929688 L36.1289062,8.52929688 C36.1289062,8.25195174 36.0126965,8.00293079 35.7802734,7.78222656 C35.5478504,7.56152233 35.2402363,7.45117188 34.8574219,7.45117188 C34.4472636,7.45117188 34.1425791,7.54101473 33.9433594,7.72070312 C33.7441396,7.90039152 33.6445312,8.11718623 33.6445312,8.37109375 C33.6445312,8.621095 33.732421,8.81835865 33.9082031,8.96289062 C34.0839853,9.1074226 34.4414036,9.23632756 34.9804688,9.34960938 C35.781254,9.52148523 36.3769512,9.75488134 36.7675781,10.0498047 C37.1582051,10.344728 37.3535156,10.7402319 37.3535156,11.2363281 C37.3535156,11.7988309 37.1259788,12.2539045 36.6708984,12.6015625 C36.215818,12.9492205 35.6210974,13.1230469 34.8867188,13.1230469 C34.078121,13.1230469 33.4414086,12.9179708 32.9765625,12.5078125 C32.5117164,12.0976542 32.2910155,11.6191434 32.3144531,11.0722656 L32.3261719,11.0371094 L33.4277344,11.0371094 C33.4472657,11.4472677 33.5996079,11.7470694 33.8847656,11.9365234 C34.1699233,12.1259775 34.5039043,12.2207031 34.8867188,12.2207031 C35.2968771,12.2207031 35.6181629,12.1376961 35.8505859,11.9716797 C36.083009,11.8056632 36.1992188,11.587892 36.1992188,11.3183594 Z M40.6992188,10.0761719 L39.9492188,10.0761719 L39.9492188,13 L38.7949219,13 L38.7949219,3.859375 L39.9492188,3.859375 L39.9492188,9.15625 L40.6875,9.15625 L42.421875,6.66015625 L43.8046875,6.66015625 L41.6367188,9.54296875 L44.1152344,13 L42.7558594,13 L40.6992188,10.0761719 Z M54.1699219,10.2695312 L54.1816406,10.3046875 C54.1972657,11.1054728 53.9160185,11.7753879 53.3378906,12.3144531 C52.7597627,12.8535183 51.9960985,13.1230469 51.046875,13.1230469 C50.0820264,13.1230469 49.2959015,12.7812534 48.6884766,12.0976562 C48.0810517,11.4140591 47.7773438,10.5468803 47.7773438,9.49609375 L47.7773438,7.97851562 C47.7773438,6.92772912 48.0810517,6.05957374 48.6884766,5.37402344 C49.2959015,4.68847313 50.0820264,4.34570312 51.046875,4.34570312 C52.0117236,4.34570312 52.779294,4.60253649 53.3496094,5.11621094 C53.9199247,5.62988538 54.1972657,6.31054264 54.1816406,7.15820312 L54.1699219,7.19335938 L53.0625,7.19335938 C53.0625,6.59570014 52.8867205,6.12304861 52.5351562,5.77539062 C52.183592,5.42773264 51.6875032,5.25390625 51.046875,5.25390625 C50.4023405,5.25390625 49.8886738,5.51366928 49.5058594,6.03320312 C49.123045,6.55273697 48.9316406,7.19726178 48.9316406,7.96679688 L48.9316406,9.49609375 C48.9316406,10.2734414 49.123045,10.9218724 49.5058594,11.4414062 C49.8886738,11.9609401 50.4023405,12.2207031 51.046875,12.2207031 C51.6875032,12.2207031 52.183592,12.0478533 52.5351562,11.7021484 C52.8867205,11.3564436 53.0625,10.8789093 53.0625,10.2695312 L54.1699219,10.2695312 Z M55.2539062,9.77148438 C55.2539062,8.83397969 55.50781,8.06152647 56.015625,7.45410156 C56.52344,6.84667665 57.2128863,6.54296875 58.0839844,6.54296875 C58.962895,6.54296875 59.657224,6.8457001 60.1669922,7.45117188 C60.6767604,8.05664365 60.9316406,8.83007342 60.9316406,9.77148438 L60.9316406,9.90039062 C60.9316406,10.8457079 60.6777369,11.6191376 60.1699219,12.2207031 C59.6621068,12.8222686 58.9707075,13.1230469 58.0957031,13.1230469 C57.2206987,13.1230469 56.5283229,12.8212921 56.0185547,12.2177734 C55.5087865,11.6142548 55.2539062,10.8418016 55.2539062,9.90039062 L55.2539062,9.77148438 Z M56.4082031,9.90039062 C56.4082031,10.572269 56.5498033,11.1269509 56.8330078,11.5644531 C57.1162124,12.0019553 57.5371066,12.2207031 58.0957031,12.2207031 C58.6464871,12.2207031 59.0644517,12.0019553 59.3496094,11.5644531 C59.6347671,11.1269509 59.7773438,10.572269 59.7773438,9.90039062 L59.7773438,9.77148438 C59.7773438,9.10741855 59.6337905,8.55468971 59.3466797,8.11328125 C59.0595689,7.67187279 58.6386746,7.45117188 58.0839844,7.45117188 C57.5332004,7.45117188 57.1162124,7.67187279 56.8330078,8.11328125 C56.5498033,8.55468971 56.4082031,9.10741855 56.4082031,9.77148438 L56.4082031,9.90039062 Z M63.5917969,13 L62.4375,13 L62.4375,3.859375 L63.5917969,3.859375 L63.5917969,13 Z M65.0976562,9.77148438 C65.0976562,8.83397969 65.35156,8.06152647 65.859375,7.45410156 C66.36719,6.84667665 67.0566363,6.54296875 67.9277344,6.54296875 C68.806645,6.54296875 69.500974,6.8457001 70.0107422,7.45117188 C70.5205104,8.05664365 70.7753906,8.83007342 70.7753906,9.77148438 L70.7753906,9.90039062 C70.7753906,10.8457079 70.5214869,11.6191376 70.0136719,12.2207031 C69.5058568,12.8222686 68.8144575,13.1230469 67.9394531,13.1230469 C67.0644487,13.1230469 66.3720729,12.8212921 65.8623047,12.2177734 C65.3525365,11.6142548 65.0976562,10.8418016 65.0976562,9.90039062 L65.0976562,9.77148438 Z M66.2519531,9.90039062 C66.2519531,10.572269 66.3935533,11.1269509 66.6767578,11.5644531 C66.9599624,12.0019553 67.3808566,12.2207031 67.9394531,12.2207031 C68.4902371,12.2207031 68.9082017,12.0019553 69.1933594,11.5644531 C69.4785171,11.1269509 69.6210938,10.572269 69.6210938,9.90039062 L69.6210938,9.77148438 C69.6210938,9.10741855 69.4775405,8.55468971 69.1904297,8.11328125 C68.9033189,7.67187279 68.4824246,7.45117188 67.9277344,7.45117188 C67.3769504,7.45117188 66.9599624,7.67187279 66.6767578,8.11328125 C66.3935533,8.55468971 66.2519531,9.10741855 66.2519531,9.77148438 L66.2519531,9.90039062 Z M75.1875,7.6796875 L74.5957031,7.64453125 C74.2910141,7.64453125 74.0341807,7.71679615 73.8251953,7.86132812 C73.6162099,8.0058601 73.4550787,8.20898307 73.3417969,8.47070312 L73.3417969,13 L72.1875,13 L72.1875,6.66015625 L73.21875,6.66015625 L73.3300781,7.5859375 C73.5097665,7.25781086 73.731444,7.00195404 73.9951172,6.81835938 C74.2587904,6.63476471 74.5624983,6.54296875 74.90625,6.54296875 C74.9921879,6.54296875 75.0742184,6.54980462 75.1523438,6.56347656 C75.2304691,6.57714851 75.2949216,6.5917968 75.3457031,6.60742188 L75.1875,7.6796875 Z M76.5527344,13 L75.3984375,13 L75.3984375,11.8164062 L76.5527344,11.8164062 L76.5527344,13 Z M76.5527344,7.8671875 L75.3984375,7.8671875 L75.3984375,6.68359375 L76.5527344,6.68359375 L76.5527344,7.8671875 Z M84.6386719,10.5976562 L83.1445312,10.5976562 L82.6757812,13 L81.7910156,13 L82.2597656,10.5976562 L80.8769531,10.5976562 L80.8769531,9.77734375 L82.4238281,9.77734375 L82.8222656,7.73828125 L81.3222656,7.73828125 L81.3222656,6.90625 L82.9863281,6.90625 L83.4667969,4.46875 L84.3515625,4.46875 L83.8710938,6.90625 L85.3652344,6.90625 L85.8457031,4.46875 L86.7304688,4.46875 L86.25,6.90625 L87.4160156,6.90625 L87.4160156,7.73828125 L86.0917969,7.73828125 L85.6933594,9.77734375 L86.9765625,9.77734375 L86.9765625,10.5976562 L85.5292969,10.5976562 L85.0605469,13 L84.1699219,13 L84.6386719,10.5976562 Z M83.3085938,9.77734375 L84.8027344,9.77734375 L85.2011719,7.73828125 L83.7070312,7.73828125 L83.3085938,9.77734375 Z M88.5175781,9.94726562 C88.5175781,8.92772928 88.7353494,8.10547187 89.1708984,7.48046875 C89.6064475,6.85546563 90.2167929,6.54296875 91.0019531,6.54296875 C91.3730487,6.54296875 91.702147,6.61132744 91.9892578,6.74804688 C92.2763686,6.88476631 92.5214834,7.08398307 92.7246094,7.34570312 L92.7246094,3.859375 L93.8789062,3.859375 L93.8789062,13 L92.9355469,13 L92.8007812,12.2207031 C92.593749,12.5175796 92.3398453,12.7421867 92.0390625,12.8945312 C91.7382797,13.0468758 91.3886739,13.1230469 90.9902344,13.1230469 C90.216793,13.1230469 89.6113303,12.8427762 89.1738281,12.2822266 C88.7363259,11.7216769 88.5175781,10.9843796 88.5175781,10.0703125 L88.5175781,9.94726562 Z M89.671875,10.0703125 C89.671875,10.7109407 89.8027331,11.2236309 90.0644531,11.6083984 C90.3261732,11.993166 90.7324191,12.1855469 91.2832031,12.1855469 C91.6269548,12.1855469 91.9160145,12.1074227 92.1503906,11.9511719 C92.3847668,11.7949211 92.5761711,11.5761733 92.7246094,11.2949219 L92.7246094,8.3359375 C92.5761711,8.07421744 92.3837902,7.86621171 92.1474609,7.71191406 C91.9111316,7.55761642 91.6269548,7.48046875 91.2949219,7.48046875 C90.7402316,7.48046875 90.331056,7.70898209 90.0673828,8.16601562 C89.8037096,8.62304916 89.671875,9.21679322 89.671875,9.94726562 L89.671875,10.0703125 Z M97.0371094,8.20117188 L98.0449219,8.20117188 C98.5566432,8.20117188 98.9189442,8.07324347 99.1318359,7.81738281 C99.3447276,7.56152216 99.4511719,7.20508041 99.4511719,6.74804688 C99.4511719,6.25976318 99.3300793,5.88867314 99.0878906,5.63476562 C98.8457019,5.38085811 98.4882836,5.25390625 98.015625,5.25390625 C97.566404,5.25390625 97.206056,5.38574087 96.9345703,5.64941406 C96.6630846,5.91308726 96.5273438,6.26366969 96.5273438,6.70117188 L95.4199219,6.70117188 L95.4082031,6.66601562 C95.3886718,6.02148115 95.6220679,5.47363507 96.1083984,5.02246094 C96.594729,4.57128681 97.2304648,4.34570312 98.015625,4.34570312 C98.8046914,4.34570312 99.4335914,4.55566196 99.9023438,4.97558594 C100.371096,5.39550991 100.605469,5.99413674 100.605469,6.77148438 C100.605469,7.12304863 100.499025,7.47363106 100.286133,7.82324219 C100.073241,8.17285331 99.7539084,8.43945221 99.328125,8.62304688 C99.8398463,8.79101646 100.202147,9.0546857 100.415039,9.4140625 C100.627931,9.7734393 100.734375,10.175779 100.734375,10.6210938 C100.734375,11.3984414 100.479495,12.0097634 99.9697266,12.4550781 C99.4599584,12.9003929 98.8085977,13.1230469 98.015625,13.1230469 C97.2382774,13.1230469 96.5947291,12.913088 96.0849609,12.4931641 C95.5751928,12.0732401 95.330078,11.5039098 95.3496094,10.7851562 L95.3671875,10.75 L96.46875,10.75 C96.46875,11.199221 96.6064439,11.5566393 96.8818359,11.8222656 C97.1572279,12.087892 97.5351538,12.2207031 98.015625,12.2207031 C98.5039087,12.2207031 98.8867174,12.087892 99.1640625,11.8222656 C99.4414076,11.5566393 99.5800781,11.1640651 99.5800781,10.6445312 C99.5800781,10.1171849 99.4570325,9.72851688 99.2109375,9.47851562 C98.9648425,9.22851437 98.5761745,9.10351562 98.0449219,9.10351562 L97.0371094,9.10351562 L97.0371094,8.20117188 Z M107.742188,13 L102.210938,13 L102.210938,12.2089844 L105.005859,9.10351562 C105.505862,8.54491908 105.844726,8.10156414 106.022461,7.7734375 C106.200196,7.44531086 106.289063,7.10937672 106.289063,6.765625 C106.289063,6.33984162 106.16504,5.98144677 105.916992,5.69042969 C105.668944,5.39941261 105.339846,5.25390625 104.929688,5.25390625 C104.339841,5.25390625 103.905275,5.40527192 103.625977,5.70800781 C103.346678,6.0107437 103.207031,6.43554414 103.207031,6.98242188 L102.099609,6.98242188 L102.087891,6.94726562 C102.068359,6.21288695 102.312497,5.59570562 102.820313,5.09570312 C103.328128,4.59570062 104.031246,4.34570312 104.929688,4.34570312 C105.695316,4.34570312 106.305662,4.5693337 106.760742,5.01660156 C107.215823,5.46386942 107.443359,6.03319967 107.443359,6.72460938 C107.443359,7.18945545 107.305665,7.6552711 107.030273,8.12207031 C106.754881,8.58886952 106.369143,9.08984107 105.873047,9.625 L103.628906,12.0683594 L103.640625,12.0976562 L107.742188,12.0976562 L107.742188,13 Z M109.59375,13 L109.59375,7.515625 L108.603516,7.515625 L108.603516,6.66015625 L109.59375,6.66015625 L109.59375,5.85742188 C109.59375,5.18163725 109.770506,4.65918153 110.124023,4.29003906 C110.477541,3.92089659 110.9707,3.73632812 111.603516,3.73632812 C111.736329,3.73632812 111.870117,3.74707021 112.004883,3.76855469 C112.139649,3.79003917 112.289062,3.8203123 112.453125,3.859375 L112.3125,4.73828125 C112.242187,4.72265617 112.157227,4.70898443 112.057617,4.69726562 C111.958007,4.68554682 111.853516,4.6796875 111.744141,4.6796875 C111.408201,4.6796875 111.158204,4.78027243 110.994141,4.98144531 C110.830077,5.18261819 110.748047,5.47460746 110.748047,5.85742188 L110.748047,6.66015625 L112.066406,6.66015625 L112.066406,7.515625 L110.748047,7.515625 L110.748047,13 L109.59375,13 Z M118.640625,13 L113.109375,13 L113.109375,12.2089844 L115.904297,9.10351562 C116.404299,8.54491908 116.743163,8.10156414 116.920898,7.7734375 C117.098634,7.44531086 117.1875,7.10937672 117.1875,6.765625 C117.1875,6.33984162 117.063478,5.98144677 116.81543,5.69042969 C116.567382,5.39941261 116.238283,5.25390625 115.828125,5.25390625 C115.238278,5.25390625 114.803712,5.40527192 114.524414,5.70800781 C114.245116,6.0107437 114.105469,6.43554414 114.105469,6.98242188 L112.998047,6.98242188 L112.986328,6.94726562 C112.966797,6.21288695 113.210935,5.59570562 113.71875,5.09570312 C114.226565,4.59570062 114.929683,4.34570312 115.828125,4.34570312 C116.593754,4.34570312 117.204099,4.5693337 117.65918,5.01660156 C118.11426,5.46386942 118.341797,6.03319967 118.341797,6.72460938 C118.341797,7.18945545 118.204103,7.6552711 117.928711,8.12207031 C117.653319,8.58886952 117.267581,9.08984107 116.771484,9.625 L114.527344,12.0683594 L114.539063,12.0976562 L118.640625,12.0976562 L118.640625,13 Z M120.492188,13 L120.492188,7.515625 L119.501953,7.515625 L119.501953,6.66015625 L120.492188,6.66015625 L120.492188,5.85742188 C120.492188,5.18163725 120.668944,4.65918153 121.022461,4.29003906 C121.375978,3.92089659 121.869137,3.73632812 122.501953,3.73632812 C122.634766,3.73632812 122.768554,3.74707021 122.90332,3.76855469 C123.038087,3.79003917 123.187499,3.8203123 123.351562,3.859375 L123.210938,4.73828125 C123.140625,4.72265617 123.055665,4.70898443 122.956055,4.69726562 C122.856445,4.68554682 122.751954,4.6796875 122.642578,4.6796875 C122.306639,4.6796875 122.056641,4.78027243 121.892578,4.98144531 C121.728515,5.18261819 121.646484,5.47460746 121.646484,5.85742188 L121.646484,6.66015625 L122.964844,6.66015625 L122.964844,7.515625 L121.646484,7.515625 L121.646484,13 L120.492188,13 Z M127.072266,9.53710938 C127.072266,7.99803918 127.382809,6.6835992 128.003906,5.59375 C128.625003,4.5039008 129.27734,3.77734557 129.960938,3.4140625 L129.996094,3.41992188 L130.21875,4.09960938 C129.683591,4.51758021 129.217775,5.18749539 128.821289,6.109375 C128.424803,7.03125461 128.226562,8.1699151 128.226562,9.52539062 L128.226562,9.6015625 C128.226562,10.957038 128.423826,12.0956985 128.818359,13.0175781 C129.212893,13.9394577 129.679685,14.6269509 130.21875,15.0800781 L129.996094,15.7128906 L129.960938,15.7128906 C129.27734,15.3496076 128.625003,14.6240289 128.003906,13.5361328 C127.382809,12.4482367 127.072266,11.1328202 127.072266,9.58984375 L127.072266,9.53710938 Z M134.115234,7.6796875 L133.523438,7.64453125 C133.218748,7.64453125 132.961915,7.71679615 132.75293,7.86132812 C132.543944,8.0058601 132.382813,8.20898307 132.269531,8.47070312 L132.269531,13 L131.115234,13 L131.115234,6.66015625 L132.146484,6.66015625 L132.257812,7.5859375 C132.437501,7.25781086 132.659178,7.00195404 132.922852,6.81835938 C133.186525,6.63476471 133.490233,6.54296875 133.833984,6.54296875 C133.919922,6.54296875 134.001953,6.54980462 134.080078,6.56347656 C134.158204,6.57714851 134.222656,6.5917968 134.273438,6.60742188 L134.115234,7.6796875 Z M137.748047,13.1230469 C136.86523,13.1230469 136.163089,12.8291045 135.641602,12.2412109 C135.120115,11.6533174 134.859375,10.8906297 134.859375,9.953125 L134.859375,9.6953125 C134.859375,8.79296424 135.127927,8.04199519 135.665039,7.44238281 C136.202151,6.84277044 136.837887,6.54296875 137.572266,6.54296875 C138.427739,6.54296875 139.074217,6.80077867 139.511719,7.31640625 C139.949221,7.83203383 140.167969,8.51952695 140.167969,9.37890625 L140.167969,10.0996094 L136.054688,10.0996094 L136.037109,10.1289062 C136.048828,10.7382843 136.203124,11.2392558 136.5,11.6318359 C136.796876,12.024416 137.212888,12.2207031 137.748047,12.2207031 C138.138674,12.2207031 138.481444,12.1650396 138.776367,12.0537109 C139.071291,11.9423823 139.326171,11.7890635 139.541016,11.59375 L139.992188,12.34375 C139.765624,12.5664074 139.466799,12.7519524 139.095703,12.9003906 C138.724608,13.0488289 138.275393,13.1230469 137.748047,13.1230469 Z M137.572266,7.45117188 C137.185545,7.45117188 136.85547,7.61425618 136.582031,7.94042969 C136.308592,8.26660319 136.140625,8.67577879 136.078125,9.16796875 L136.089844,9.19726562 L139.013672,9.19726562 L139.013672,9.04492188 C139.013672,8.59179461 138.892579,8.21289215 138.650391,7.90820312 C138.408202,7.6035141 138.048831,7.45117188 137.572266,7.45117188 Z M141.199219,9.94726562 C141.199219,8.92772928 141.41699,8.10547187 141.852539,7.48046875 C142.288088,6.85546563 142.898434,6.54296875 143.683594,6.54296875 C144.054689,6.54296875 144.383788,6.61132744 144.670898,6.74804688 C144.958009,6.88476631 145.203124,7.08398307 145.40625,7.34570312 L145.40625,3.859375 L146.560547,3.859375 L146.560547,13 L145.617188,13 L145.482422,12.2207031 C145.27539,12.5175796 145.021486,12.7421867 144.720703,12.8945312 C144.41992,13.0468758 144.070314,13.1230469 143.671875,13.1230469 C142.898434,13.1230469 142.292971,12.8427762 141.855469,12.2822266 C141.417967,11.7216769 141.199219,10.9843796 141.199219,10.0703125 L141.199219,9.94726562 Z M142.353516,10.0703125 C142.353516,10.7109407 142.484374,11.2236309 142.746094,11.6083984 C143.007814,11.993166 143.41406,12.1855469 143.964844,12.1855469 C144.308595,12.1855469 144.597655,12.1074227 144.832031,11.9511719 C145.066407,11.7949211 145.257812,11.5761733 145.40625,11.2949219 L145.40625,8.3359375 C145.257812,8.07421744 145.065431,7.86621171 144.829102,7.71191406 C144.592772,7.55761642 144.308595,7.48046875 143.976562,7.48046875 C143.421872,7.48046875 143.012697,7.70898209 142.749023,8.16601562 C142.48535,8.62304916 142.353516,9.21679322 142.353516,9.94726562 L142.353516,10.0703125 Z M153.421875,12.2207031 C153.984378,12.2207031 154.434569,12.0078146 154.772461,11.5820312 C155.110353,11.1562479 155.279297,10.5234417 155.279297,9.68359375 L155.279297,9.296875 C155.08789,9.57422014 154.848634,9.78417897 154.561523,9.92675781 C154.274413,10.0693367 153.95508,10.140625 153.603516,10.140625 C152.779293,10.140625 152.125002,9.88574474 151.640625,9.37597656 C151.156248,8.86620839 150.914062,8.16406697 150.914062,7.26953125 C150.914062,6.41405822 151.170896,5.71289336 151.68457,5.16601562 C152.198245,4.61913789 152.822262,4.34570312 153.556641,4.34570312 C154.44727,4.34570312 155.149411,4.62402065 155.663086,5.18066406 C156.17676,5.73730747 156.433594,6.55663521 156.433594,7.63867188 L156.433594,9.671875 C156.433594,10.7851618 156.155276,11.6386689 155.598633,12.2324219 C155.041989,12.8261748 154.316411,13.1230469 153.421875,13.1230469 C153.121092,13.1230469 152.815431,13.0947268 152.504883,13.0380859 C152.194334,12.981445 151.916017,12.8945318 151.669922,12.7773438 L151.845703,11.8925781 C152.076173,12.0136725 152.315428,12.0986326 152.563477,12.1474609 C152.811525,12.1962893 153.097655,12.2207031 153.421875,12.2207031 Z M153.603516,9.23828125 C154.029299,9.23828125 154.383788,9.14648529 154.666992,8.96289062 C154.950197,8.77929596 155.154296,8.5449233 155.279297,8.25976562 L155.279297,7.52148438 C155.279297,6.77538689 155.135744,6.21093941 154.848633,5.828125 C154.561522,5.44531059 154.142581,5.25390625 153.591797,5.25390625 C153.16992,5.25390625 152.810548,5.44238093 152.513672,5.81933594 C152.216795,6.19629095 152.068359,6.67968455 152.068359,7.26953125 C152.068359,7.85547168 152.206053,8.33007631 152.481445,8.69335938 C152.756837,9.05664244 153.130857,9.23828125 153.603516,9.23828125 Z M163.277344,9.74804688 C163.277344,10.8378961 163.036135,11.6728487 162.553711,12.2529297 C162.071287,12.8330107 161.41016,13.1230469 160.570312,13.1230469 C159.730465,13.1230469 159.066409,12.8320342 158.578125,12.25 C158.089841,11.6679658 157.845703,10.8339898 157.845703,9.74804688 L157.845703,7.7265625 C157.845703,6.64061957 158.088865,5.80566698 158.575195,5.22167969 C159.061526,4.63769239 159.722652,4.34570312 160.558594,4.34570312 C161.398442,4.34570312 162.061521,4.63769239 162.547852,5.22167969 C163.034182,5.80566698 163.277344,6.64061957 163.277344,7.7265625 L163.277344,9.74804688 Z M162.123047,7.48046875 C162.123047,6.74218381 161.989259,6.1865253 161.72168,5.81347656 C161.4541,5.44042782 161.066409,5.25390625 160.558594,5.25390625 C160.050779,5.25390625 159.664064,5.44042782 159.398438,5.81347656 C159.132811,6.1865253 159,6.74218381 159,7.48046875 L159,9.98242188 C159,10.7207068 159.134764,11.2783184 159.404297,11.6552734 C159.673829,12.0322284 160.062497,12.2207031 160.570312,12.2207031 C161.078128,12.2207031 161.463866,12.033205 161.727539,11.6582031 C161.991212,11.2832012 162.123047,10.7246131 162.123047,9.98242188 L162.123047,7.48046875 Z M170.039062,9.74804688 C170.039062,10.8378961 169.797854,11.6728487 169.31543,12.2529297 C168.833005,12.8330107 168.171879,13.1230469 167.332031,13.1230469 C166.492183,13.1230469 165.828127,12.8320342 165.339844,12.25 C164.85156,11.6679658 164.607422,10.8339898 164.607422,9.74804688 L164.607422,7.7265625 C164.607422,6.64061957 164.850584,5.80566698 165.336914,5.22167969 C165.823245,4.63769239 166.484371,4.34570312 167.320312,4.34570312 C168.16016,4.34570312 168.82324,4.63769239 169.30957,5.22167969 C169.795901,5.80566698 170.039062,6.64061957 170.039062,7.7265625 L170.039062,9.74804688 Z M168.884766,7.48046875 C168.884766,6.74218381 168.750978,6.1865253 168.483398,5.81347656 C168.215819,5.44042782 167.828128,5.25390625 167.320312,5.25390625 C166.812497,5.25390625 166.425783,5.44042782 166.160156,5.81347656 C165.89453,6.1865253 165.761719,6.74218381 165.761719,7.48046875 L165.761719,9.98242188 C165.761719,10.7207068 165.896483,11.2783184 166.166016,11.6552734 C166.435548,12.0322284 166.824216,12.2207031 167.332031,12.2207031 C167.839846,12.2207031 168.225585,12.033205 168.489258,11.6582031 C168.752931,11.2832012 168.884766,10.7246131 168.884766,9.98242188 L168.884766,7.48046875 Z M173.888672,9.58984375 C173.888672,11.1328202 173.577152,12.4482367 172.954102,13.5361328 C172.331052,14.6240289 171.679691,15.3496076 171,15.7128906 L170.964844,15.7128906 L170.742188,15.0800781 C171.269534,14.6699198 171.733396,13.9951219 172.133789,13.0556641 C172.534182,12.1162062 172.734375,10.9648506 172.734375,9.6015625 L172.734375,9.52539062 C172.734375,8.18944645 172.528322,7.0498094 172.116211,6.10644531 C171.7041,5.16308122 171.246096,4.47656465 170.742188,4.046875 L170.964844,3.4140625 L171,3.4140625 C171.679691,3.77734557 172.331052,4.5039008 172.954102,5.59375 C173.577152,6.6835992 173.888672,7.99803918 173.888672,9.53710938 L173.888672,9.58984375 Z"></path>
            </g>
            <g transform="translate(124.000000, 17.500000) scale(-1, 1) rotate(90.000000) translate(-124.000000, -17.500000) translate(112.500000, -106.500000)">
                <path d="M3.5,247.5 L3.5,12.9902021 C3.5,7.74890819 7.75214127,3.5 13,3.5 L22.5,3.5" stroke="#EC407A"></path>
                <g transform="translate(16.000000, 0.000000)">
                    <g>
                        <g fill="#FFFFFF">
                            <polygon points="7 3.5 0 7 0 0"></polygon>
                        </g>
                        <polygon stroke="#EC407A" points="5.88196601 3.5 0.5 0.809016994 0.5 6.19098301"></polygon>
                    </g>
                </g>
                <g transform="translate(0.000000, 241.000000)">
                    <g>
                        <g fill="#FFFFFF">
                            <circle cx="3.5" cy="3.5" r="3.5"></circle>
                        </g>
                        <circle stroke="#EC407A" cx="3.5" cy="3.5" r="3"></circle>
                    </g>
                </g>
            </g>
        </g>
    </g>
</svg>