<?xml version="1.0" encoding="UTF-8" standalone="no"?>
<svg width="389px" height="83px" viewBox="0 0 389 83" version="1.1" xmlns="http://www.w3.org/2000/svg" xmlns:xlink="http://www.w3.org/1999/xlink">
    <!-- Generator: Sketch 47.1 (45422) - http://www.bohemiancoding.com/sketch -->
    <title>text-inputs-text-input-character-or-word-counter</title>
    <desc>Created with Sketch.</desc>
    <defs></defs>
    <g stroke="none" stroke-width="1" fill="none" fill-rule="evenodd">
        <g>
            <g>
                <g>
                    <g transform="translate(0.000000, 18.000000)">
                        <g transform="translate(1.000000, 1.000000)" fill="#FFFFFF">
                            <rect x="0" y="0" width="208" height="30" rx="2"></rect>
                        </g>
                        <rect stroke="#BDBDBD" x="0.5" y="0.5" width="209" height="31" rx="2"></rect>
                    </g>
                    <path d="M1.57714844,9.94726562 L6.28710937,9.94726562 L6.28710937,11 L0.23046875,11 L0.23046875,1.046875 L1.57714844,1.046875 L1.57714844,9.94726562 Z M12.0839844,11 C12.0384112,10.7766916 12.0030926,10.5795907 11.9780273,10.4086914 C11.9529621,10.2377921 11.9381511,10.0657561 11.9335938,9.89257812 C11.6829415,10.2480487 11.355959,10.545409 10.9526367,10.784668 C10.5493144,11.023927 10.1152367,11.1435547 9.65039062,11.1435547 C8.88020448,11.1435547 8.29345905,10.9464538 7.89013672,10.5522461 C7.48681439,10.1580384 7.28515625,9.6145868 7.28515625,8.921875 C7.28515625,8.21549126 7.57112344,7.66292517 8.14306641,7.26416016 C8.71500937,6.86539514 9.49088052,6.66601562 10.4707031,6.66601562 L11.9335938,6.66601562 L11.9335938,5.93457031 C11.9335938,5.50162544 11.8014336,5.15869267 11.5371094,4.90576172 C11.2727851,4.65283077 10.899091,4.52636719 10.4160156,4.52636719 C9.98307075,4.52636719 9.63102349,4.63688041 9.35986328,4.85791016 C9.08870307,5.07893991 8.953125,5.34439949 8.953125,5.65429688 L7.66796875,5.65429688 L7.65429688,5.61328125 C7.62695299,5.07551814 7.88101946,4.58333557 8.41650391,4.13671875 C8.95198835,3.69010193 9.64355045,3.46679688 10.4912109,3.46679688 C11.3297568,3.46679688 12.0042292,3.67984813 12.5146484,4.10595703 C13.0250677,4.53206593 13.2802734,5.14615484 13.2802734,5.94824219 L13.2802734,9.50976562 C13.2802734,9.77408986 13.2939452,10.0292956 13.3212891,10.2753906 C13.3486329,10.5214856 13.3987627,10.7630196 13.4716797,11 L12.0839844,11 Z M9.84863281,10.015625 C10.3362655,10.015625 10.7760397,9.89030073 11.1679688,9.63964844 C11.5598978,9.38899614 11.8151036,9.10188964 11.9335938,8.77832031 L11.9335938,7.57519531 L10.4228516,7.57519531 C9.88053114,7.57519531 9.44645345,7.7119127 9.12060547,7.98535156 C8.79475749,8.25879043 8.63183594,8.58007628 8.63183594,8.94921875 C8.63183594,9.27734539 8.73437397,9.53710842 8.93945312,9.72851562 C9.14453228,9.91992283 9.44758914,10.015625 9.84863281,10.015625 Z M21.5517578,7.58203125 C21.5517578,8.64844283 21.2954127,9.50862303 20.7827148,10.1625977 C20.270017,10.8165723 19.5647831,11.1435547 18.6669922,11.1435547 C18.1793595,11.1435547 17.7555357,11.0489918 17.3955078,10.8598633 C17.03548,10.6707347 16.7369804,10.3916034 16.5,10.0224609 L16.3359375,11 L15.2353516,11 L15.2353516,0.3359375 L16.5820312,0.3359375 L16.5820312,4.47851562 C16.8144543,4.15038898 17.1027001,3.89974045 17.4467773,3.7265625 C17.7908546,3.55338455 18.1930316,3.46679688 18.6533203,3.46679688 C19.5647832,3.46679688 20.2757136,3.83137656 20.7861328,4.56054688 C21.296552,5.28971719 21.5517578,6.24901749 21.5517578,7.43847656 L21.5517578,7.58203125 Z M20.2050781,7.43847656 C20.2050781,6.59081607 20.0489924,5.89925398 19.7368164,5.36376953 C19.4246404,4.82828508 18.9495475,4.56054688 18.3115234,4.56054688 C17.8968078,4.56054688 17.5470392,4.6619456 17.262207,4.86474609 C16.9773749,5.06754659 16.7506519,5.33984204 16.5820312,5.68164062 L16.5820312,8.88769531 C16.7552092,9.25228047 16.9819322,9.53710835 17.262207,9.7421875 C17.5424819,9.94726665 17.8968078,10.0498047 18.3251953,10.0498047 C18.958662,10.0498047 19.430337,9.82422101 19.7402344,9.37304688 C20.0501318,8.92187274 20.2050781,8.32487351 20.2050781,7.58203125 L20.2050781,7.43847656 Z M26.2617188,11.1435547 C25.2317657,11.1435547 24.4126007,10.8006219 23.8041992,10.1147461 C23.1957977,9.42887027 22.8916016,8.53906797 22.8916016,7.4453125 L22.8916016,7.14453125 C22.8916016,6.09179161 23.2049122,5.21566105 23.831543,4.51611328 C24.4581737,3.81656551 25.1998655,3.46679688 26.0566406,3.46679688 C27.0546925,3.46679688 27.8089167,3.76757512 28.3193359,4.36914062 C28.8297552,4.97070613 29.0849609,5.77278145 29.0849609,6.77539062 L29.0849609,7.61621094 L24.2861328,7.61621094 L24.265625,7.65039062 C24.2792969,8.36133168 24.4593082,8.94579849 24.8056641,9.40380859 C25.15202,9.8618187 25.6373667,10.0908203 26.2617188,10.0908203 C26.7174502,10.0908203 27.1173485,10.0258796 27.4614258,9.89599609 C27.805503,9.76611263 28.1028633,9.58724072 28.3535156,9.359375 L28.8798828,10.234375 C28.6155586,10.4941419 28.2669292,10.7106111 27.8339844,10.8837891 C27.4010395,11.056967 26.8769562,11.1435547 26.2617188,11.1435547 Z M26.0566406,4.52636719 C25.6054665,4.52636719 25.2203792,4.71663221 24.9013672,5.09716797 C24.5823552,5.47770373 24.3863936,5.95507525 24.3134766,6.52929688 L24.3271484,6.56347656 L27.7382812,6.56347656 L27.7382812,6.38574219 C27.7382812,5.85709371 27.5970066,5.41504084 27.3144531,5.05957031 C27.0318996,4.70409979 26.612633,4.52636719 26.0566406,4.52636719 Z M32.0517578,11 L30.7050781,11 L30.7050781,0.3359375 L32.0517578,0.3359375 L32.0517578,11 Z" fill="#6B6B6B"></path>
                    <path d="M187.025391,60.1503906 L187.517578,55.46875 L191.789063,55.46875 L191.789063,56.4941406 L188.496094,56.4941406 L188.214844,58.890625 C188.394532,58.7578118 188.594725,58.6474614 188.81543,58.5595703 C189.036134,58.4716792 189.291014,58.4238282 189.580078,58.4160156 C190.365238,58.4082031 190.983396,58.6640599 191.43457,59.1835938 C191.885744,59.7031276 192.111328,60.4023394 192.111328,61.28125 C192.111328,62.136723 191.881838,62.8242162 191.422852,63.34375 C190.963865,63.8632838 190.294926,64.1230469 189.416016,64.1230469 C188.693356,64.1230469 188.091799,63.9257832 187.611328,63.53125 C187.130857,63.1367168 186.900391,62.5566445 186.919922,61.7910156 L186.931641,61.7558594 L187.974609,61.7558594 C187.974609,62.2207054 188.108397,62.5810534 188.375977,62.8369141 C188.643556,63.0927747 188.990232,63.2207031 189.416016,63.2207031 C189.904299,63.2207031 190.283202,63.0488298 190.552734,62.7050781 C190.822267,62.3613264 190.957031,61.890628 190.957031,61.2929688 C190.957031,60.746091 190.820314,60.2968768 190.546875,59.9453125 C190.273436,59.5937482 189.896487,59.4179688 189.416016,59.4179688 C188.962888,59.4179688 188.634767,59.4863274 188.431641,59.6230469 C188.228515,59.7597663 188.080079,59.9687486 187.986328,60.25 L187.025391,60.1503906 Z M193.833984,64.7324219 L192.849609,64.7324219 L196.412109,55.46875 L197.390625,55.46875 L193.833984,64.7324219 Z M201.726563,64 L200.572266,64 L200.572266,56.59375 L198.826172,56.6171875 L198.826172,55.7851562 L201.726563,55.46875 L201.726563,64 Z M210.585938,60.7480469 C210.585938,61.8378961 210.344729,62.6728487 209.862305,63.2529297 C209.37988,63.8330107 208.718754,64.1230469 207.878906,64.1230469 C207.039058,64.1230469 206.375002,63.8320342 205.886719,63.25 C205.398435,62.6679658 205.154297,61.8339898 205.154297,60.7480469 L205.154297,58.7265625 C205.154297,57.6406196 205.397459,56.805667 205.883789,56.2216797 C206.37012,55.6376924 207.031246,55.3457031 207.867188,55.3457031 C208.707035,55.3457031 209.370115,55.6376924 209.856445,56.2216797 C210.342776,56.805667 210.585938,57.6406196 210.585938,58.7265625 L210.585938,60.7480469 Z M209.431641,58.4804688 C209.431641,57.7421838 209.297853,57.1865253 209.030273,56.8134766 C208.762694,56.4404278 208.375003,56.2539062 207.867188,56.2539062 C207.359372,56.2539062 206.972658,56.4404278 206.707031,56.8134766 C206.441405,57.1865253 206.308594,57.7421838 206.308594,58.4804688 L206.308594,60.9824219 C206.308594,61.7207068 206.443358,62.2783184 206.712891,62.6552734 C206.982423,63.0322284 207.371091,63.2207031 207.878906,63.2207031 C208.386721,63.2207031 208.77246,63.033205 209.036133,62.6582031 C209.299806,62.2832013 209.431641,61.7246131 209.431641,60.9824219 L209.431641,58.4804688 Z" fill="#9E9E9E"></path>
                    <path d="M11.03125,40 L9.484375,40 L9.484375,28.625 L11.03125,28.625 L11.03125,40 Z M15.015625,31.546875 L15.125,32.8046875 C15.4062514,32.3567686 15.7591125,32.0091158 16.1835938,31.7617188 C16.608075,31.5143217 17.0911431,31.390625 17.6328125,31.390625 C18.5442754,31.390625 19.2499975,31.6575494 19.75,32.1914062 C20.2500025,32.7252631 20.5,33.5494736 20.5,34.6640625 L20.5,40 L18.9609375,40 L18.9609375,34.6953125 C18.9609375,33.9505171 18.8138036,33.4218766 18.5195312,33.109375 C18.2252589,32.7968734 17.7760447,32.640625 17.171875,32.640625 C16.7291645,32.640625 16.3372413,32.7473948 15.9960938,32.9609375 C15.6549462,33.1744802 15.3828135,33.466144 15.1796875,33.8359375 L15.1796875,40 L13.640625,40 L13.640625,31.546875 L15.015625,31.546875 Z M29.9375,36.09375 C29.9375,37.3125061 29.6458363,38.2955692 29.0625,39.0429688 C28.4791637,39.7903683 27.6744843,40.1640625 26.6484375,40.1640625 C26.1276016,40.1640625 25.6705749,40.0768238 25.2773438,39.9023438 C24.8841126,39.7278637 24.5494805,39.4661476 24.2734375,39.1171875 L24.2734375,43.25 L22.734375,43.25 L22.734375,31.546875 L23.9140625,31.546875 L24.15625,32.640625 C24.432293,32.234373 24.7760396,31.9244802 25.1875,31.7109375 C25.5989604,31.4973948 26.0781223,31.390625 26.625,31.390625 C27.6718802,31.390625 28.4856742,31.8059854 29.0664062,32.6367188 C29.6471383,33.4674521 29.9375,34.5650973 29.9375,35.9296875 L29.9375,36.09375 Z M28.3984375,35.9296875 C28.3984375,34.9713494 28.2096373,34.1835968 27.8320312,33.5664062 C27.4544252,32.9492157 26.8984412,32.640625 26.1640625,32.640625 C25.721352,32.640625 25.3437516,32.7408844 25.03125,32.9414062 C24.7187484,33.1419281 24.4661468,33.4166649 24.2734375,33.765625 L24.2734375,37.8515625 C24.4661468,38.2005226 24.7187484,38.4726553 25.03125,38.6679688 C25.3437516,38.8632822 25.7265602,38.9609375 26.1796875,38.9609375 C26.9088578,38.9609375 27.4609356,38.6940131 27.8359375,38.1601562 C28.2109394,37.6262994 28.3984375,36.9375042 28.3984375,36.09375 L28.3984375,35.9296875 Z M37.1953125,38.75 C36.9296862,39.2031273 36.5885437,39.5520821 36.171875,39.796875 C35.7552063,40.0416679 35.2734402,40.1640625 34.7265625,40.1640625 C33.8046829,40.1640625 33.0859401,39.8697946 32.5703125,39.28125 C32.0546849,38.6927054 31.796875,37.7760479 31.796875,36.53125 L31.796875,31.546875 L33.3359375,31.546875 L33.3359375,36.546875 C33.3359375,37.4479212 33.4687487,38.0677066 33.734375,38.40625 C34.0000013,38.7447934 34.4140597,38.9140625 34.9765625,38.9140625 C35.5234402,38.9140625 35.9752586,38.8033865 36.3320312,38.5820312 C36.6888039,38.360676 36.9583324,38.046877 37.140625,37.640625 L37.140625,31.546875 L38.6796875,31.546875 L38.6796875,40 L37.296875,40 L37.1953125,38.75 Z M42.953125,29.5078125 L42.953125,31.546875 L44.5546875,31.546875 L44.5546875,32.6875 L42.953125,32.6875 L42.953125,37.8203125 C42.953125,38.2161478 43.0351554,38.4947909 43.1992188,38.65625 C43.3632821,38.8177091 43.5807278,38.8984375 43.8515625,38.8984375 C43.9401046,38.8984375 44.0377599,38.8880209 44.1445312,38.8671875 C44.2513026,38.8463541 44.3463537,38.8203127 44.4296875,38.7890625 L44.6328125,39.84375 C44.5182286,39.9375005 44.3502615,40.0143226 44.1289062,40.0742188 C43.907551,40.1341149 43.684897,40.1640625 43.4609375,40.1640625 C42.8359344,40.1640625 42.3385435,39.9752623 41.96875,39.5976562 C41.5989565,39.2200502 41.4140625,38.6276082 41.4140625,37.8203125 L41.4140625,32.6875 L40.0703125,32.6875 L40.0703125,31.546875 L41.4140625,31.546875 L41.4140625,29.5078125 L42.953125,29.5078125 Z M53.25,37.5078125 L53.3828125,38.1015625 L53.4296875,38.1015625 L53.578125,37.5078125 L55.5234375,31.546875 L57.09375,31.546875 L53.984375,40 L52.8203125,40 L49.671875,31.546875 L51.25,31.546875 L53.25,37.5078125 Z M63.5546875,40 C63.5026039,39.7447904 63.4622397,39.5195322 63.4335938,39.3242188 C63.4049478,39.1289053 63.3880209,38.9322927 63.3828125,38.734375 C63.0963527,39.140627 62.7226586,39.4804674 62.2617188,39.7539062 C61.8007789,40.0273451 61.3046902,40.1640625 60.7734375,40.1640625 C59.8932248,40.1640625 59.2226586,39.9388043 58.7617188,39.4882812 C58.3007789,39.0377582 58.0703125,38.4166706 58.0703125,37.625 C58.0703125,36.8177043 58.3971321,36.1862002 59.0507812,35.7304688 C59.7044304,35.2747373 60.5911402,35.046875 61.7109375,35.046875 L63.3828125,35.046875 L63.3828125,34.2109375 C63.3828125,33.7161434 63.2317723,33.3242202 62.9296875,33.0351562 C62.6276027,32.7460923 62.2005236,32.6015625 61.6484375,32.6015625 C61.1536434,32.6015625 60.7513036,32.7278633 60.4414062,32.9804688 C60.1315089,33.2330742 59.9765625,33.5364566 59.9765625,33.890625 L58.5078125,33.890625 L58.4921875,33.84375 C58.4609373,33.2291636 58.751299,32.6666692 59.3632812,32.15625 C59.9752635,31.6458308 60.7656202,31.390625 61.734375,31.390625 C62.6927131,31.390625 63.4635387,31.6341121 64.046875,32.1210938 C64.6302113,32.6080754 64.921875,33.3098912 64.921875,34.2265625 L64.921875,38.296875 C64.921875,38.5989598 64.9374998,38.8906236 64.96875,39.171875 C65.0000002,39.4531264 65.0572913,39.7291653 65.140625,40 L63.5546875,40 Z M61,38.875 C61.5572945,38.875 62.0598936,38.7317723 62.5078125,38.4453125 C62.9557314,38.1588527 63.2473952,37.830731 63.3828125,37.4609375 L63.3828125,36.0859375 L61.65625,36.0859375 C61.0364552,36.0859375 60.5403664,36.2421859 60.1679688,36.5546875 C59.7955711,36.8671891 59.609375,37.2343729 59.609375,37.65625 C59.609375,38.0312519 59.7265613,38.3281239 59.9609375,38.546875 C60.1953137,38.7656261 60.5416644,38.875 61,38.875 Z M68.8203125,40 L67.28125,40 L67.28125,27.8125 L68.8203125,27.8125 L68.8203125,40 Z M76.5546875,38.75 C76.2890612,39.2031273 75.9479187,39.5520821 75.53125,39.796875 C75.1145813,40.0416679 74.6328152,40.1640625 74.0859375,40.1640625 C73.1640579,40.1640625 72.4453151,39.8697946 71.9296875,39.28125 C71.4140599,38.6927054 71.15625,37.7760479 71.15625,36.53125 L71.15625,31.546875 L72.6953125,31.546875 L72.6953125,36.546875 C72.6953125,37.4479212 72.8281237,38.0677066 73.09375,38.40625 C73.3593763,38.7447934 73.7734347,38.9140625 74.3359375,38.9140625 C74.8828152,38.9140625 75.3346336,38.8033865 75.6914062,38.5820312 C76.0481789,38.360676 76.3177074,38.046877 76.5,37.640625 L76.5,31.546875 L78.0390625,31.546875 L78.0390625,40 L76.65625,40 L76.5546875,38.75 Z M83.7890625,40.1640625 C82.6119733,40.1640625 81.6757847,39.7721393 80.9804688,38.9882812 C80.2851528,38.2044232 79.9375,37.1875062 79.9375,35.9375 L79.9375,35.59375 C79.9375,34.390619 80.2955693,33.3893269 81.0117188,32.5898438 C81.7278682,31.7903606 82.5755159,31.390625 83.5546875,31.390625 C84.6953182,31.390625 85.5572887,31.7343716 86.140625,32.421875 C86.7239613,33.1093784 87.015625,34.0260359 87.015625,35.171875 L87.015625,36.1328125 L81.53125,36.1328125 L81.5078125,36.171875 C81.5234376,36.9843791 81.7291647,37.6523411 82.125,38.1757812 C82.5208353,38.6992214 83.0755173,38.9609375 83.7890625,38.9609375 C84.3098984,38.9609375 84.7669251,38.8867195 85.1601562,38.7382812 C85.5533874,38.589843 85.8932277,38.385418 86.1796875,38.125 L86.78125,39.125 C86.4791652,39.4218765 86.0807316,39.6692698 85.5859375,39.8671875 C85.0911434,40.0651052 84.492191,40.1640625 83.7890625,40.1640625 Z M83.5546875,32.6015625 C83.0390599,32.6015625 82.5989602,32.8190082 82.234375,33.2539062 C81.8697898,33.6888043 81.6458337,34.2343717 81.5625,34.890625 L81.578125,34.9296875 L85.4765625,34.9296875 L85.4765625,34.7265625 C85.4765625,34.1223928 85.3151058,33.6171895 84.9921875,33.2109375 C84.6692692,32.8046855 84.1901073,32.6015625 83.5546875,32.6015625 Z" fill="#616161"></path>
                </g>
            </g>
            <g transform="translate(244.000000, 31.000000)" fill="#EC407A">
                <path d="M7.08398437,10.2695312 L7.09570312,10.3046875 C7.1113282,11.1054728 6.83008102,11.7753879 6.25195312,12.3144531 C5.67382523,12.8535183 4.910161,13.1230469 3.9609375,13.1230469 C2.99608893,13.1230469 2.20996397,12.7812534 1.60253906,12.0976562 C0.99511415,11.4140591 0.69140625,10.5468803 0.69140625,9.49609375 L0.69140625,7.97851562 C0.69140625,6.92772912 0.99511415,6.05957374 1.60253906,5.37402344 C2.20996397,4.68847313 2.99608893,4.34570312 3.9609375,4.34570312 C4.92578607,4.34570312 5.69335652,4.60253649 6.26367187,5.11621094 C6.83398723,5.62988538 7.1113282,6.31054264 7.09570312,7.15820312 L7.08398437,7.19335938 L5.9765625,7.19335938 C5.9765625,6.59570014 5.80078301,6.12304861 5.44921875,5.77539062 C5.09765449,5.42773264 4.6015657,5.25390625 3.9609375,5.25390625 C3.31640303,5.25390625 2.80273629,5.51366928 2.41992187,6.03320312 C2.03710746,6.55273697 1.84570312,7.19726178 1.84570312,7.96679688 L1.84570312,9.49609375 C1.84570312,10.2734414 2.03710746,10.9218724 2.41992187,11.4414062 C2.80273629,11.9609401 3.31640303,12.2207031 3.9609375,12.2207031 C4.6015657,12.2207031 5.09765449,12.0478533 5.44921875,11.7021484 C5.80078301,11.3564436 5.9765625,10.8789093 5.9765625,10.2695312 L7.08398437,10.2695312 Z M9.59179688,7.50976562 C9.81054797,7.2050766 10.0791,6.96777429 10.3974609,6.79785156 C10.7158219,6.62792884 11.0683574,6.54296875 11.4550781,6.54296875 C12.1308628,6.54296875 12.6572247,6.74609172 13.0341797,7.15234375 C13.4111347,7.55859578 13.5996094,8.18358953 13.5996094,9.02734375 L13.5996094,13 L12.4453125,13 L12.4453125,9.015625 C12.4453125,8.49218488 12.3330089,8.10547 12.1083984,7.85546875 C11.8837879,7.6054675 11.5488304,7.48046875 11.1035156,7.48046875 C10.7832015,7.48046875 10.4931654,7.55566331 10.2333984,7.70605469 C9.97363151,7.85644606 9.75976646,8.06054559 9.59179688,8.31835938 L9.59179688,13 L8.4375,13 L8.4375,3.859375 L9.59179688,3.859375 L9.59179688,7.50976562 Z M19.1542969,13 C19.1152342,12.8085928 19.084961,12.6396492 19.0634766,12.4931641 C19.0419921,12.346679 19.0292969,12.1992195 19.0253906,12.0507812 C18.8105458,12.3554703 18.5302752,12.6103505 18.1845703,12.8154297 C17.8388655,13.0205088 17.4667989,13.1230469 17.0683594,13.1230469 C16.4081998,13.1230469 15.9052752,12.9541033 15.5595703,12.6162109 C15.2138655,12.2783186 15.0410156,11.812503 15.0410156,11.21875 C15.0410156,10.6132782 15.2861304,10.1396501 15.7763672,9.79785156 C16.266604,9.45605298 16.9316364,9.28515625 17.7714844,9.28515625 L19.0253906,9.28515625 L19.0253906,8.65820312 C19.0253906,8.28710752 18.9121105,7.99316515 18.6855469,7.77636719 C18.4589832,7.55956923 18.1386739,7.45117188 17.7246094,7.45117188 C17.3535138,7.45117188 17.051759,7.54589749 16.8193359,7.73535156 C16.5869129,7.92480563 16.4707031,8.15234242 16.4707031,8.41796875 L15.3691406,8.41796875 L15.3574219,8.3828125 C15.3339843,7.9218727 15.5517555,7.50000191 16.0107422,7.1171875 C16.4697289,6.73437309 17.0624964,6.54296875 17.7890625,6.54296875 C18.5078161,6.54296875 19.0859353,6.72558411 19.5234375,7.09082031 C19.9609397,7.45605651 20.1796875,7.98241844 20.1796875,8.66992188 L20.1796875,11.7226562 C20.1796875,11.9492199 20.1914061,12.1679677 20.2148437,12.3789062 C20.2382814,12.5898448 20.2812497,12.796874 20.34375,13 L19.1542969,13 Z M17.2382812,12.15625 C17.6562521,12.15625 18.0332014,12.0488292 18.3691406,11.8339844 C18.7050798,11.6191396 18.9238276,11.3730483 19.0253906,11.0957031 L19.0253906,10.0644531 L17.7304687,10.0644531 C17.2656227,10.0644531 16.8935561,10.1816395 16.6142578,10.4160156 C16.3349595,10.6503918 16.1953125,10.9257797 16.1953125,11.2421875 C16.1953125,11.5234389 16.2832022,11.7460929 16.4589844,11.9101562 C16.6347665,12.0742196 16.8945295,12.15625 17.2382812,12.15625 Z M24.8554687,7.6796875 L24.2636719,7.64453125 C23.9589829,7.64453125 23.7021495,7.71679615 23.4931641,7.86132812 C23.2841786,8.0058601 23.1230474,8.20898307 23.0097656,8.47070312 L23.0097656,13 L21.8554687,13 L21.8554687,6.66015625 L22.8867187,6.66015625 L22.9980469,7.5859375 C23.1777353,7.25781086 23.3994127,7.00195404 23.6630859,6.81835938 C23.9267591,6.63476471 24.230467,6.54296875 24.5742187,6.54296875 C24.6601567,6.54296875 24.7421871,6.54980462 24.8203125,6.56347656 C24.8984379,6.57714851 24.9628904,6.5917968 25.0136719,6.60742188 L24.8554687,7.6796875 Z M29.8652344,13 C29.8261717,12.8085928 29.7958985,12.6396492 29.7744141,12.4931641 C29.7529296,12.346679 29.7402344,12.1992195 29.7363281,12.0507812 C29.5214833,12.3554703 29.2412127,12.6103505 28.8955078,12.8154297 C28.549803,13.0205088 28.1777364,13.1230469 27.7792969,13.1230469 C27.1191373,13.1230469 26.6162127,12.9541033 26.2705078,12.6162109 C25.924803,12.2783186 25.7519531,11.812503 25.7519531,11.21875 C25.7519531,10.6132782 25.9970679,10.1396501 26.4873047,9.79785156 C26.9775415,9.45605298 27.6425739,9.28515625 28.4824219,9.28515625 L29.7363281,9.28515625 L29.7363281,8.65820312 C29.7363281,8.28710752 29.623048,7.99316515 29.3964844,7.77636719 C29.1699207,7.55956923 28.8496114,7.45117188 28.4355469,7.45117188 C28.0644513,7.45117188 27.7626965,7.54589749 27.5302734,7.73535156 C27.2978504,7.92480563 27.1816406,8.15234242 27.1816406,8.41796875 L26.0800781,8.41796875 L26.0683594,8.3828125 C26.0449218,7.9218727 26.262693,7.50000191 26.7216797,7.1171875 C27.1806664,6.73437309 27.7734339,6.54296875 28.5,6.54296875 C29.2187536,6.54296875 29.7968728,6.72558411 30.234375,7.09082031 C30.6718772,7.45605651 30.890625,7.98241844 30.890625,8.66992188 L30.890625,11.7226562 C30.890625,11.9492199 30.9023436,12.1679677 30.9257812,12.3789062 C30.9492189,12.5898448 30.9921872,12.796874 31.0546875,13 L29.8652344,13 Z M27.9492187,12.15625 C28.3671896,12.15625 28.7441389,12.0488292 29.0800781,11.8339844 C29.4160173,11.6191396 29.6347651,11.3730483 29.7363281,11.0957031 L29.7363281,10.0644531 L28.4414062,10.0644531 C27.9765602,10.0644531 27.6044936,10.1816395 27.3251953,10.4160156 C27.045897,10.6503918 26.90625,10.9257797 26.90625,11.2421875 C26.90625,11.5234389 26.9941397,11.7460929 27.1699219,11.9101562 C27.345704,12.0742196 27.605467,12.15625 27.9492187,12.15625 Z M35.1445312,12.2207031 C35.5273457,12.2207031 35.8642564,12.1025402 36.1552734,11.8662109 C36.4462905,11.6298816 36.5917969,11.3398455 36.5917969,10.9960938 L37.6289062,10.9960938 L37.640625,11.03125 C37.6601563,11.5781277 37.4169947,12.0634744 36.9111328,12.4873047 C36.4052709,12.9111349 35.8164096,13.1230469 35.1445312,13.1230469 C34.2226516,13.1230469 33.5175806,12.8222686 33.0292969,12.2207031 C32.5410132,11.6191376 32.296875,10.8632858 32.296875,9.953125 L32.296875,9.70703125 C32.296875,8.80468299 32.5419897,8.05176083 33.0322266,7.44824219 C33.5224634,6.84472354 34.2265579,6.54296875 35.1445312,6.54296875 C35.8867225,6.54296875 36.4931617,6.76171656 36.9638672,7.19921875 C37.4345727,7.63672094 37.6621095,8.17382494 37.6464844,8.81054688 L37.6347656,8.84570312 L36.5917969,8.84570312 C36.5917969,8.45898244 36.4550795,8.12988417 36.1816406,7.85839844 C35.9082018,7.58691271 35.5625021,7.45117188 35.1445312,7.45117188 C34.5390595,7.45117188 34.1064466,7.66894313 33.8466797,8.10449219 C33.5869128,8.54004124 33.4570312,9.07421559 33.4570312,9.70703125 L33.4570312,9.953125 C33.4570312,10.6015657 33.5859362,11.1415994 33.84375,11.5732422 C34.1015638,12.004885 34.5351532,12.2207031 35.1445312,12.2207031 Z M40.4589844,5.13085938 L40.4589844,6.66015625 L41.6601562,6.66015625 L41.6601562,7.515625 L40.4589844,7.515625 L40.4589844,11.3652344 C40.4589844,11.6621109 40.5205072,11.8710931 40.6435547,11.9921875 C40.7666022,12.1132819 40.9296865,12.1738281 41.1328125,12.1738281 C41.1992191,12.1738281 41.2724605,12.1660157 41.3525391,12.1503906 C41.4326176,12.1347655 41.5039059,12.1152345 41.5664062,12.0917969 L41.71875,12.8828125 C41.6328121,12.9531254 41.5068368,13.010742 41.3408203,13.0556641 C41.1748039,13.1005862 41.0078133,13.1230469 40.8398438,13.1230469 C40.3710914,13.1230469 39.9980483,12.9814467 39.7207031,12.6982422 C39.443358,12.4150376 39.3046875,11.9707062 39.3046875,11.3652344 L39.3046875,7.515625 L38.296875,7.515625 L38.296875,6.66015625 L39.3046875,6.66015625 L39.3046875,5.13085938 L40.4589844,5.13085938 Z M45.7148437,13.1230469 C44.8320268,13.1230469 44.1298854,12.8291045 43.6083984,12.2412109 C43.0869115,11.6533174 42.8261719,10.8906297 42.8261719,9.953125 L42.8261719,9.6953125 C42.8261719,8.79296424 43.0947239,8.04199519 43.6318359,7.44238281 C44.168948,6.84277044 44.8046838,6.54296875 45.5390625,6.54296875 C46.3945355,6.54296875 47.0410134,6.80077867 47.4785156,7.31640625 C47.9160178,7.83203383 48.1347656,8.51952695 48.1347656,9.37890625 L48.1347656,10.0996094 L44.0214844,10.0996094 L44.0039062,10.1289062 C44.0156251,10.7382843 44.1699204,11.2392558 44.4667969,11.6318359 C44.7636734,12.024416 45.1796848,12.2207031 45.7148437,12.2207031 C46.1054707,12.2207031 46.4482407,12.1650396 46.7431641,12.0537109 C47.0380874,11.9423823 47.2929677,11.7890635 47.5078125,11.59375 L47.9589844,12.34375 C47.7324207,12.5664074 47.4335956,12.7519524 47.0625,12.9003906 C46.6914044,13.0488289 46.2421901,13.1230469 45.7148437,13.1230469 Z M45.5390625,7.45117188 C45.1523418,7.45117188 44.822267,7.61425618 44.5488281,7.94042969 C44.2753893,8.26660319 44.1074222,8.67577879 44.0449219,9.16796875 L44.0566406,9.19726562 L46.9804687,9.19726562 L46.9804687,9.04492188 C46.9804687,8.59179461 46.8593762,8.21289215 46.6171875,7.90820312 C46.3749988,7.6035141 46.0156274,7.45117188 45.5390625,7.45117188 Z M52.4296875,7.6796875 L51.8378906,7.64453125 C51.5332016,7.64453125 51.2763682,7.71679615 51.0673828,7.86132812 C50.8583974,8.0058601 50.6972662,8.20898307 50.5839844,8.47070312 L50.5839844,13 L49.4296875,13 L49.4296875,6.66015625 L50.4609375,6.66015625 L50.5722656,7.5859375 C50.751954,7.25781086 50.9736315,7.00195404 51.2373047,6.81835938 C51.5009779,6.63476471 51.8046858,6.54296875 52.1484375,6.54296875 C52.2343754,6.54296875 52.3164059,6.54980462 52.3945312,6.56347656 C52.4726566,6.57714851 52.5371091,6.5917968 52.5878906,6.60742188 L52.4296875,7.6796875 Z M62.7714844,10.2695312 L62.7832031,10.3046875 C62.7988282,11.1054728 62.517581,11.7753879 61.9394531,12.3144531 C61.3613252,12.8535183 60.597661,13.1230469 59.6484375,13.1230469 C58.6835889,13.1230469 57.897464,12.7812534 57.2900391,12.0976562 C56.6826142,11.4140591 56.3789062,10.5468803 56.3789062,9.49609375 L56.3789062,7.97851562 C56.3789062,6.92772912 56.6826142,6.05957374 57.2900391,5.37402344 C57.897464,4.68847313 58.6835889,4.34570312 59.6484375,4.34570312 C60.6132861,4.34570312 61.3808565,4.60253649 61.9511719,5.11621094 C62.5214872,5.62988538 62.7988282,6.31054264 62.7832031,7.15820312 L62.7714844,7.19335938 L61.6640625,7.19335938 C61.6640625,6.59570014 61.488283,6.12304861 61.1367187,5.77539062 C60.7851545,5.42773264 60.2890657,5.25390625 59.6484375,5.25390625 C59.003903,5.25390625 58.4902363,5.51366928 58.1074219,6.03320312 C57.7246075,6.55273697 57.5332031,7.19726178 57.5332031,7.96679688 L57.5332031,9.49609375 C57.5332031,10.2734414 57.7246075,10.9218724 58.1074219,11.4414062 C58.4902363,11.9609401 59.003903,12.2207031 59.6484375,12.2207031 C60.2890657,12.2207031 60.7851545,12.0478533 61.1367187,11.7021484 C61.488283,11.3564436 61.6640625,10.8789093 61.6640625,10.2695312 L62.7714844,10.2695312 Z M63.8554688,9.77148438 C63.8554688,8.83397969 64.1093725,8.06152647 64.6171875,7.45410156 C65.1250025,6.84667665 65.8144488,6.54296875 66.6855469,6.54296875 C67.5644575,6.54296875 68.2587865,6.8457001 68.7685547,7.45117188 C69.2783229,8.05664365 69.5332031,8.83007342 69.5332031,9.77148438 L69.5332031,9.90039062 C69.5332031,10.8457079 69.2792994,11.6191376 68.7714844,12.2207031 C68.2636693,12.8222686 67.57227,13.1230469 66.6972656,13.1230469 C65.8222612,13.1230469 65.1298854,12.8212921 64.6201172,12.2177734 C64.110349,11.6142548 63.8554688,10.8418016 63.8554688,9.90039062 L63.8554688,9.77148438 Z M65.0097656,9.90039062 C65.0097656,10.572269 65.1513658,11.1269509 65.4345703,11.5644531 C65.7177749,12.0019553 66.1386691,12.2207031 66.6972656,12.2207031 C67.2480496,12.2207031 67.6660142,12.0019553 67.9511719,11.5644531 C68.2363296,11.1269509 68.3789062,10.572269 68.3789062,9.90039062 L68.3789062,9.77148438 C68.3789062,9.10741855 68.235353,8.55468971 67.9482422,8.11328125 C67.6611314,7.67187279 67.2402371,7.45117188 66.6855469,7.45117188 C66.1347629,7.45117188 65.7177749,7.67187279 65.4345703,8.11328125 C65.1513658,8.55468971 65.0097656,9.10741855 65.0097656,9.77148438 L65.0097656,9.90039062 Z M74.9707031,12.0625 C74.7714834,12.4023454 74.5156266,12.6640616 74.203125,12.8476562 C73.8906234,13.0312509 73.5292989,13.1230469 73.1191406,13.1230469 C72.4277309,13.1230469 71.8886738,12.902346 71.5019531,12.4609375 C71.1152324,12.019529 70.921875,11.3320359 70.921875,10.3984375 L70.921875,6.66015625 L72.0761719,6.66015625 L72.0761719,10.4101562 C72.0761719,11.0859409 72.1757803,11.55078 72.375,11.8046875 C72.5742197,12.058595 72.8847635,12.1855469 73.3066406,12.1855469 C73.7167989,12.1855469 74.0556627,12.1025399 74.3232422,11.9365234 C74.5908217,11.770507 74.7929681,11.5351578 74.9296875,11.2304688 L74.9296875,6.66015625 L76.0839844,6.66015625 L76.0839844,13 L75.046875,13 L74.9707031,12.0625 Z M78.796875,6.66015625 L78.8789062,7.60351562 C79.0898448,7.26757645 79.3544906,7.00683687 79.6728516,6.82128906 C79.9912125,6.63574126 80.3535136,6.54296875 80.7597656,6.54296875 C81.4433628,6.54296875 81.9726544,6.74316206 82.3476562,7.14355469 C82.7226581,7.54394731 82.9101562,8.1621052 82.9101562,8.99804688 L82.9101562,13 L81.7558594,13 L81.7558594,9.02148438 C81.7558594,8.46288783 81.6455089,8.06640742 81.4248047,7.83203125 C81.2041005,7.59765508 80.8671898,7.48046875 80.4140625,7.48046875 C80.0820296,7.48046875 79.7880872,7.56054607 79.5322266,7.72070312 C79.2763659,7.88086018 79.0722664,8.09960799 78.9199219,8.37695312 L78.9199219,13 L77.765625,13 L77.765625,6.66015625 L78.796875,6.66015625 Z M86.109375,5.13085938 L86.109375,6.66015625 L87.3105469,6.66015625 L87.3105469,7.515625 L86.109375,7.515625 L86.109375,11.3652344 C86.109375,11.6621109 86.1708978,11.8710931 86.2939453,11.9921875 C86.4169928,12.1132819 86.5800771,12.1738281 86.7832031,12.1738281 C86.8496097,12.1738281 86.9228512,12.1660157 87.0029297,12.1503906 C87.0830082,12.1347655 87.1542966,12.1152345 87.2167969,12.0917969 L87.3691406,12.8828125 C87.2832027,12.9531254 87.1572274,13.010742 86.9912109,13.0556641 C86.8251945,13.1005862 86.658204,13.1230469 86.4902344,13.1230469 C86.021482,13.1230469 85.6484389,12.9814467 85.3710937,12.6982422 C85.0937486,12.4150376 84.9550781,11.9707062 84.9550781,11.3652344 L84.9550781,7.515625 L83.9472656,7.515625 L83.9472656,6.66015625 L84.9550781,6.66015625 L84.9550781,5.13085938 L86.109375,5.13085938 Z M97.7109375,5.37695312 L94.96875,5.37695312 L94.96875,13 L93.8144531,13 L93.8144531,5.37695312 L91.078125,5.37695312 L91.078125,4.46875 L97.7109375,4.46875 L97.7109375,5.37695312 Z M100.857422,13.1230469 C99.974605,13.1230469 99.2724635,12.8291045 98.7509766,12.2412109 C98.2294896,11.6533174 97.96875,10.8906297 97.96875,9.953125 L97.96875,9.6953125 C97.96875,8.79296424 98.237302,8.04199519 98.7744141,7.44238281 C99.3115261,6.84277044 99.947262,6.54296875 100.681641,6.54296875 C101.537114,6.54296875 102.183592,6.80077867 102.621094,7.31640625 C103.058596,7.83203383 103.277344,8.51952695 103.277344,9.37890625 L103.277344,10.0996094 L99.1640625,10.0996094 L99.1464844,10.1289062 C99.1582032,10.7382843 99.3124985,11.2392558 99.609375,11.6318359 C99.9062515,12.024416 100.322263,12.2207031 100.857422,12.2207031 C101.248049,12.2207031 101.590819,12.1650396 101.885742,12.0537109 C102.180666,11.9423823 102.435546,11.7890635 102.650391,11.59375 L103.101562,12.34375 C102.874999,12.5664074 102.576174,12.7519524 102.205078,12.9003906 C101.833983,13.0488289 101.384768,13.1230469 100.857422,13.1230469 Z M100.681641,7.45117188 C100.29492,7.45117188 99.9648451,7.61425618 99.6914062,7.94042969 C99.4179674,8.26660319 99.2500003,8.67577879 99.1875,9.16796875 L99.1992187,9.19726562 L102.123047,9.19726562 L102.123047,9.04492188 C102.123047,8.59179461 102.001954,8.21289215 101.759766,7.90820312 C101.517577,7.6035141 101.158206,7.45117188 100.681641,7.45117188 Z M106.722656,8.99804688 L108.070312,6.66015625 L109.417969,6.66015625 L107.361328,9.79492188 L109.476562,13 L108.152344,13 L106.746094,10.6035156 L105.339844,13 L104.003906,13 L106.119141,9.79492188 L104.0625,6.66015625 L105.392578,6.66015625 L106.722656,8.99804688 Z M112.130859,5.13085938 L112.130859,6.66015625 L113.332031,6.66015625 L113.332031,7.515625 L112.130859,7.515625 L112.130859,11.3652344 C112.130859,11.6621109 112.192382,11.8710931 112.31543,11.9921875 C112.438477,12.1132819 112.601561,12.1738281 112.804687,12.1738281 C112.871094,12.1738281 112.944336,12.1660157 113.024414,12.1503906 C113.104493,12.1347655 113.175781,12.1152345 113.238281,12.0917969 L113.390625,12.8828125 C113.304687,12.9531254 113.178712,13.010742 113.012695,13.0556641 C112.846679,13.1005862 112.679688,13.1230469 112.511719,13.1230469 C112.042966,13.1230469 111.669923,12.9814467 111.392578,12.6982422 C111.115233,12.4150376 110.976562,11.9707062 110.976562,11.3652344 L110.976562,7.515625 L109.96875,7.515625 L109.96875,6.66015625 L110.976562,6.66015625 L110.976562,5.13085938 L112.130859,5.13085938 Z"></path>
                <path d="M6.09960938,27.2265625 L2.20898438,27.2265625 L2.20898438,31 L1.0546875,31 L1.0546875,22.46875 L6.69726562,22.46875 L6.69726562,23.3769531 L2.20898438,23.3769531 L2.20898438,26.3183594 L6.09960938,26.3183594 L6.09960938,27.2265625 Z M7.43554688,27.7714844 C7.43554688,26.8339797 7.68945059,26.0615265 8.19726562,25.4541016 C8.70508066,24.8466767 9.39452689,24.5429687 10.265625,24.5429687 C11.1445356,24.5429687 11.8388646,24.8457001 12.3486328,25.4511719 C12.858401,26.0566437 13.1132812,26.8300734 13.1132812,27.7714844 L13.1132812,27.9003906 C13.1132812,28.8457079 12.8593775,29.6191376 12.3515625,30.2207031 C11.8437475,30.8222686 11.1523481,31.1230469 10.2773438,31.1230469 C9.40233938,31.1230469 8.70996349,30.8212921 8.20019531,30.2177734 C7.69042714,29.6142548 7.43554688,28.8418016 7.43554688,27.9003906 L7.43554688,27.7714844 Z M8.58984375,27.9003906 C8.58984375,28.572269 8.7314439,29.1269509 9.01464844,29.5644531 C9.29785298,30.0019553 9.71874721,30.2207031 10.2773438,30.2207031 C10.8281278,30.2207031 11.2460923,30.0019553 11.53125,29.5644531 C11.8164077,29.1269509 11.9589844,28.572269 11.9589844,27.9003906 L11.9589844,27.7714844 C11.9589844,27.1074186 11.8154311,26.5546897 11.5283203,26.1132812 C11.2412095,25.6718728 10.8203153,25.4511719 10.265625,25.4511719 C9.714841,25.4511719 9.29785298,25.6718728 9.01464844,26.1132812 C8.7314439,26.5546897 8.58984375,27.1074186 8.58984375,27.7714844 L8.58984375,27.9003906 Z M15.5566406,24.6601562 L15.6386719,25.6035156 C15.8496104,25.2675764 16.1142562,25.0068369 16.4326172,24.8212891 C16.7509782,24.6357413 17.1132792,24.5429687 17.5195312,24.5429687 C18.2031284,24.5429687 18.73242,24.7431621 19.1074219,25.1435547 C19.4824237,25.5439473 19.6699219,26.1621052 19.6699219,26.9980469 L19.6699219,31 L18.515625,31 L18.515625,27.0214844 C18.515625,26.4628878 18.4052745,26.0664074 18.1845703,25.8320312 C17.9638661,25.5976551 17.6269554,25.4804687 17.1738281,25.4804687 C16.8417952,25.4804687 16.5478528,25.5605461 16.2919922,25.7207031 C16.0361315,25.8808602 15.832032,26.099608 15.6796875,26.3769531 L15.6796875,31 L14.5253906,31 L14.5253906,24.6601562 L15.5566406,24.6601562 Z M22.8691406,23.1308594 L22.8691406,24.6601562 L24.0703125,24.6601562 L24.0703125,25.515625 L22.8691406,25.515625 L22.8691406,29.3652344 C22.8691406,29.6621109 22.9306634,29.8710931 23.0537109,29.9921875 C23.1767584,30.1132819 23.3398427,30.1738281 23.5429688,30.1738281 C23.6093753,30.1738281 23.6826168,30.1660157 23.7626953,30.1503906 C23.8427738,30.1347655 23.9140622,30.1152345 23.9765625,30.0917969 L24.1289062,30.8828125 C24.0429683,30.9531254 23.916993,31.010742 23.7509766,31.0556641 C23.5849601,31.1005862 23.4179696,31.1230469 23.25,31.1230469 C22.7812477,31.1230469 22.4082045,30.9814467 22.1308594,30.6982422 C21.8535142,30.4150376 21.7148438,29.9707062 21.7148438,29.3652344 L21.7148438,25.515625 L20.7070312,25.515625 L20.7070312,24.6601562 L21.7148438,24.6601562 L21.7148438,23.1308594 L22.8691406,23.1308594 Z M26.7539062,31 L25.5996094,31 L25.5996094,29.8164062 L26.7539062,29.8164062 L26.7539062,31 Z M26.7539062,25.8671875 L25.5996094,25.8671875 L25.5996094,24.6835937 L26.7539062,24.6835937 L26.7539062,25.8671875 Z M32.8769531,27.3027344 L32.8769531,31 L31.7226562,31 L31.7226562,22.4746094 L34.8105469,22.4746094 C35.7441453,22.4746094 36.4570288,22.6816386 36.9492188,23.0957031 C37.4414087,23.5097677 37.6875,24.1113242 37.6875,24.9003906 C37.6875,25.3378928 37.5732433,25.7187484 37.3447266,26.0429687 C37.1162098,26.3671891 36.7832053,26.624999 36.3457031,26.8164062 C36.8144555,26.9687508 37.1513662,27.2158186 37.3564453,27.5576172 C37.5615245,27.8994158 37.6640625,28.3222631 37.6640625,28.8261719 L37.6640625,29.6289062 C37.6640625,29.8945326 37.6933591,30.1328114 37.7519531,30.34375 C37.8105472,30.5546886 37.9121087,30.7265618 38.0566406,30.859375 L38.0566406,31 L36.8671875,31 C36.714843,30.8671868 36.6171877,30.6718763 36.5742188,30.4140625 C36.5312498,30.1562487 36.5097656,29.8906264 36.5097656,29.6171875 L36.5097656,28.8378906 C36.5097656,28.3769508 36.3750013,28.0058608 36.1054688,27.7246094 C35.8359362,27.443358 35.4746116,27.3027344 35.0214844,27.3027344 L32.8769531,27.3027344 Z M32.8769531,26.3945312 L34.6933594,26.3945312 C35.3457064,26.3945312 35.8154283,26.2705091 36.1025391,26.0224609 C36.3896499,25.7744128 36.5332031,25.3964869 36.5332031,24.8886719 C36.5332031,24.4082007 36.3935561,24.0361341 36.1142578,23.7724609 C35.8349595,23.5087877 35.4003936,23.3769531 34.8105469,23.3769531 L32.8769531,23.3769531 L32.8769531,26.3945312 Z M39.1875,27.7714844 C39.1875,26.8339797 39.4414037,26.0615265 39.9492188,25.4541016 C40.4570338,24.8466767 41.14648,24.5429687 42.0175781,24.5429687 C42.8964888,24.5429687 43.5908178,24.8457001 44.1005859,25.4511719 C44.6103541,26.0566437 44.8652344,26.8300734 44.8652344,27.7714844 L44.8652344,27.9003906 C44.8652344,28.8457079 44.6113307,29.6191376 44.1035156,30.2207031 C43.5957006,30.8222686 42.9043013,31.1230469 42.0292969,31.1230469 C41.1542925,31.1230469 40.4619166,30.8212921 39.9521484,30.2177734 C39.4423803,29.6142548 39.1875,28.8418016 39.1875,27.9003906 L39.1875,27.7714844 Z M40.3417969,27.9003906 C40.3417969,28.572269 40.483397,29.1269509 40.7666016,29.5644531 C41.0498061,30.0019553 41.4707003,30.2207031 42.0292969,30.2207031 C42.5800809,30.2207031 42.9980454,30.0019553 43.2832031,29.5644531 C43.5683608,29.1269509 43.7109375,28.572269 43.7109375,27.9003906 L43.7109375,27.7714844 C43.7109375,27.1074186 43.5673842,26.5546897 43.2802734,26.1132812 C42.9931626,25.6718728 42.5722684,25.4511719 42.0175781,25.4511719 C41.4667941,25.4511719 41.0498061,25.6718728 40.7666016,26.1132812 C40.483397,26.5546897 40.3417969,27.1074186 40.3417969,27.7714844 L40.3417969,27.9003906 Z M51.6914062,28.0703125 C51.6914062,28.9843796 51.4716819,29.7216769 51.0322266,30.2822266 C50.5927712,30.8427762 49.9882851,31.1230469 49.21875,31.1230469 C48.8007792,31.1230469 48.4375015,31.041993 48.1289062,30.8798828 C47.820311,30.7177726 47.5644541,30.4785172 47.3613281,30.1621094 L47.2207031,31 L46.2773438,31 L46.2773438,21.859375 L47.4316406,21.859375 L47.4316406,25.4101562 C47.6308604,25.1289048 47.8779282,24.9140632 48.1728516,24.765625 C48.4677749,24.6171868 48.812498,24.5429687 49.2070312,24.5429687 C49.9882852,24.5429687 50.5976541,24.8554656 51.0351562,25.4804687 C51.4726584,26.1054719 51.6914062,26.9277293 51.6914062,27.9472656 L51.6914062,28.0703125 Z M50.5371094,27.9472656 C50.5371094,27.2206995 50.4033217,26.627932 50.1357422,26.1689453 C49.8681627,25.7099586 49.4609402,25.4804687 48.9140625,25.4804687 C48.558592,25.4804687 48.2587903,25.5673819 48.0146484,25.7412109 C47.7705066,25.9150399 47.5761726,26.148436 47.4316406,26.4414062 L47.4316406,29.1894531 C47.5800789,29.5019547 47.7744129,29.7460929 48.0146484,29.921875 C48.254884,30.0976571 48.5585919,30.1855469 48.9257812,30.1855469 C49.4687527,30.1855469 49.8730455,29.9921894 50.1386719,29.6054687 C50.4042982,29.2187481 50.5371094,28.7070344 50.5371094,28.0703125 L50.5371094,27.9472656 Z M52.828125,27.7714844 C52.828125,26.8339797 53.0820287,26.0615265 53.5898438,25.4541016 C54.0976588,24.8466767 54.787105,24.5429687 55.6582031,24.5429687 C56.5371138,24.5429687 57.2314428,24.8457001 57.7412109,25.4511719 C58.2509791,26.0566437 58.5058594,26.8300734 58.5058594,27.7714844 L58.5058594,27.9003906 C58.5058594,28.8457079 58.2519557,29.6191376 57.7441406,30.2207031 C57.2363256,30.8222686 56.5449263,31.1230469 55.6699219,31.1230469 C54.7949175,31.1230469 54.1025416,30.8212921 53.5927734,30.2177734 C53.0830053,29.6142548 52.828125,28.8418016 52.828125,27.9003906 L52.828125,27.7714844 Z M53.9824219,27.9003906 C53.9824219,28.572269 54.124022,29.1269509 54.4072266,29.5644531 C54.6904311,30.0019553 55.1113253,30.2207031 55.6699219,30.2207031 C56.2207059,30.2207031 56.6386704,30.0019553 56.9238281,29.5644531 C57.2089858,29.1269509 57.3515625,28.572269 57.3515625,27.9003906 L57.3515625,27.7714844 C57.3515625,27.1074186 57.2080092,26.5546897 56.9208984,26.1132812 C56.6337876,25.6718728 56.2128934,25.4511719 55.6582031,25.4511719 C55.1074191,25.4511719 54.6904311,25.6718728 54.4072266,26.1132812 C54.124022,26.5546897 53.9824219,27.1074186 53.9824219,27.7714844 L53.9824219,27.9003906 Z M61.4414062,23.1308594 L61.4414062,24.6601562 L62.6425781,24.6601562 L62.6425781,25.515625 L61.4414062,25.515625 L61.4414062,29.3652344 C61.4414062,29.6621109 61.5029291,29.8710931 61.6259766,29.9921875 C61.7490241,30.1132819 61.9121084,30.1738281 62.1152344,30.1738281 C62.181641,30.1738281 62.2548824,30.1660157 62.3349609,30.1503906 C62.4150395,30.1347655 62.4863278,30.1152345 62.5488281,30.0917969 L62.7011719,30.8828125 C62.6152339,30.9531254 62.4892586,31.010742 62.3232422,31.0556641 C62.1572257,31.1005862 61.9902352,31.1230469 61.8222656,31.1230469 C61.3535133,31.1230469 60.9804701,30.9814467 60.703125,30.6982422 C60.4257799,30.4150376 60.2871094,29.9707062 60.2871094,29.3652344 L60.2871094,25.515625 L59.2792969,25.515625 L59.2792969,24.6601562 L60.2871094,24.6601562 L60.2871094,23.1308594 L61.4414062,23.1308594 Z M63.796875,27.7714844 C63.796875,26.8339797 64.0507787,26.0615265 64.5585937,25.4541016 C65.0664088,24.8466767 65.755855,24.5429687 66.6269531,24.5429687 C67.5058638,24.5429687 68.2001928,24.8457001 68.7099609,25.4511719 C69.2197291,26.0566437 69.4746094,26.8300734 69.4746094,27.7714844 L69.4746094,27.9003906 C69.4746094,28.8457079 69.2207057,29.6191376 68.7128906,30.2207031 C68.2050756,30.8222686 67.5136762,31.1230469 66.6386719,31.1230469 C65.7636675,31.1230469 65.0712916,30.8212921 64.5615234,30.2177734 C64.0517553,29.6142548 63.796875,28.8418016 63.796875,27.9003906 L63.796875,27.7714844 Z M64.9511719,27.9003906 C64.9511719,28.572269 65.092772,29.1269509 65.3759766,29.5644531 C65.6591811,30.0019553 66.0800753,30.2207031 66.6386719,30.2207031 C67.1894559,30.2207031 67.6074204,30.0019553 67.8925781,29.5644531 C68.1777358,29.1269509 68.3203125,28.572269 68.3203125,27.9003906 L68.3203125,27.7714844 C68.3203125,27.1074186 68.1767592,26.5546897 67.8896484,26.1132812 C67.6025376,25.6718728 67.1816434,25.4511719 66.6269531,25.4511719 C66.0761691,25.4511719 65.6591811,25.6718728 65.3759766,26.1132812 C65.092772,26.5546897 64.9511719,27.1074186 64.9511719,27.7714844 L64.9511719,27.9003906 Z M75.2402344,27.3027344 L75.2402344,31 L74.0859375,31 L74.0859375,22.4746094 L77.1738281,22.4746094 C78.1074265,22.4746094 78.82031,22.6816386 79.3125,23.0957031 C79.80469,23.5097677 80.0507812,24.1113242 80.0507812,24.9003906 C80.0507812,25.3378928 79.9365246,25.7187484 79.7080078,26.0429687 C79.479491,26.3671891 79.1464866,26.624999 78.7089844,26.8164062 C79.1777367,26.9687508 79.5146474,27.2158186 79.7197266,27.5576172 C79.9248057,27.8994158 80.0273438,28.3222631 80.0273438,28.8261719 L80.0273438,29.6289062 C80.0273438,29.8945326 80.0566403,30.1328114 80.1152344,30.34375 C80.1738284,30.5546886 80.2753899,30.7265618 80.4199219,30.859375 L80.4199219,31 L79.2304688,31 C79.0781242,30.8671868 78.980469,30.6718763 78.9375,30.4140625 C78.894531,30.1562487 78.8730469,29.8906264 78.8730469,29.6171875 L78.8730469,28.8378906 C78.8730469,28.3769508 78.7382826,28.0058608 78.46875,27.7246094 C78.1992174,27.443358 77.8378929,27.3027344 77.3847656,27.3027344 L75.2402344,27.3027344 Z M75.2402344,26.3945312 L77.0566406,26.3945312 C77.7089876,26.3945312 78.1787095,26.2705091 78.4658203,26.0224609 C78.7529311,25.7744128 78.8964844,25.3964869 78.8964844,24.8886719 C78.8964844,24.4082007 78.7568373,24.0361341 78.4775391,23.7724609 C78.1982408,23.5087877 77.7636748,23.3769531 77.1738281,23.3769531 L75.2402344,23.3769531 L75.2402344,26.3945312 Z M84.4511719,31.1230469 C83.568355,31.1230469 82.8662135,30.8291045 82.3447266,30.2412109 C81.8232396,29.6533174 81.5625,28.8906297 81.5625,27.953125 L81.5625,27.6953125 C81.5625,26.7929642 81.831052,26.0419952 82.3681641,25.4423828 C82.9052761,24.8427704 83.541012,24.5429687 84.2753906,24.5429687 C85.1308637,24.5429687 85.7773416,24.8007787 86.2148438,25.3164062 C86.6523459,25.8320338 86.8710938,26.519527 86.8710938,27.3789062 L86.8710938,28.0996094 L82.7578125,28.0996094 L82.7402344,28.1289062 C82.7519532,28.7382843 82.9062485,29.2392558 83.203125,29.6318359 C83.5000015,30.024416 83.9160129,30.2207031 84.4511719,30.2207031 C84.8417988,30.2207031 85.1845688,30.1650396 85.4794922,30.0537109 C85.7744155,29.9423823 86.0292958,29.7890635 86.2441406,29.59375 L86.6953125,30.34375 C86.4687489,30.5664074 86.1699237,30.7519524 85.7988281,30.9003906 C85.4277325,31.0488289 84.9785183,31.1230469 84.4511719,31.1230469 Z M84.2753906,25.4511719 C83.8886699,25.4511719 83.5585951,25.6142562 83.2851562,25.9404297 C83.0117174,26.2666032 82.8437503,26.6757788 82.78125,27.1679687 L82.7929688,27.1972656 L85.7167969,27.1972656 L85.7167969,27.0449219 C85.7167969,26.5917946 85.5957043,26.2128921 85.3535156,25.9082031 C85.1113269,25.6035141 84.7519555,25.4511719 84.2753906,25.4511719 Z M87.9140625,27.9472656 C87.9140625,26.9277293 88.1367165,26.1054719 88.5820312,25.4804687 C89.027346,24.8554656 89.6425742,24.5429687 90.4277344,24.5429687 C90.8300801,24.5429687 91.1835922,24.6240226 91.4882812,24.7861328 C91.7929703,24.948243 92.046874,25.1816391 92.25,25.4863281 L92.390625,24.6601562 L93.3105469,24.6601562 L93.3105469,31.0351562 C93.3105469,31.8476603 93.0742211,32.4716775 92.6015625,32.9072266 C92.1289039,33.3427756 91.4472701,33.5605469 90.5566406,33.5605469 C90.2519516,33.5605469 89.9228533,33.5185551 89.5693359,33.4345703 C89.2158185,33.3505855 88.9042982,33.2363288 88.6347656,33.0917969 L88.9277344,32.1953125 C89.1347667,32.3125006 89.3847642,32.4072262 89.6777344,32.4794922 C89.9707046,32.5517582 90.2597642,32.5878906 90.5449219,32.5878906 C91.1074247,32.5878906 91.5166003,32.4599622 91.7724609,32.2041016 C92.0283216,31.9482409 92.15625,31.5585964 92.15625,31.0351562 L92.15625,30.3203125 C91.9492177,30.5859388 91.7011733,30.7861321 91.4121094,30.9208984 C91.1230454,31.0556647 90.7910175,31.1230469 90.4160156,31.1230469 C89.638668,31.1230469 89.027346,30.8417997 88.5820312,30.2792969 C88.1367165,29.7167941 87.9140625,28.9804733 87.9140625,28.0703125 L87.9140625,27.9472656 Z M89.0683594,28.0703125 C89.0683594,28.7070344 89.2031237,29.2187481 89.4726562,29.6054687 C89.7421888,29.9921894 90.152341,30.1855469 90.703125,30.1855469 C91.050783,30.1855469 91.3417957,30.1064461 91.5761719,29.9482422 C91.810548,29.7900383 92.0039055,29.5664077 92.15625,29.2773437 L92.15625,26.359375 C92.0078118,26.0898424 91.8144543,25.8759774 91.5761719,25.7177734 C91.3378894,25.5595695 91.0507829,25.4804687 90.7148438,25.4804687 C90.1640597,25.4804687 89.7519545,25.7109352 89.4785156,26.171875 C89.2050768,26.6328148 89.0683594,27.2246058 89.0683594,27.9472656 L89.0683594,28.0703125 Z M99.0117188,30.0625 C98.812499,30.4023454 98.5566422,30.6640616 98.2441406,30.8476562 C97.9316391,31.0312509 97.5703146,31.1230469 97.1601562,31.1230469 C96.4687465,31.1230469 95.9296894,30.902346 95.5429688,30.4609375 C95.1562481,30.019529 94.9628906,29.3320359 94.9628906,28.3984375 L94.9628906,24.6601562 L96.1171875,24.6601562 L96.1171875,28.4101562 C96.1171875,29.0859409 96.2167959,29.55078 96.4160156,29.8046875 C96.6152354,30.058595 96.9257791,30.1855469 97.3476562,30.1855469 C97.7578146,30.1855469 98.0966783,30.1025399 98.3642578,29.9365234 C98.6318373,29.770507 98.8339837,29.5351578 98.9707031,29.2304687 L98.9707031,24.6601562 L100.125,24.6601562 L100.125,31 L99.0878906,31 L99.0117188,30.0625 Z M103.054688,31 L101.900391,31 L101.900391,21.859375 L103.054688,21.859375 L103.054688,31 Z M108.726562,31 C108.6875,30.8085928 108.657227,30.6396492 108.635742,30.4931641 C108.614258,30.346679 108.601563,30.1992195 108.597656,30.0507812 C108.382811,30.3554703 108.102541,30.6103505 107.756836,30.8154297 C107.411131,31.0205088 107.039064,31.1230469 106.640625,31.1230469 C105.980465,31.1230469 105.477541,30.9541033 105.131836,30.6162109 C104.786131,30.2783186 104.613281,29.812503 104.613281,29.21875 C104.613281,28.6132782 104.858396,28.1396501 105.348633,27.7978516 C105.83887,27.456053 106.503902,27.2851562 107.34375,27.2851562 L108.597656,27.2851562 L108.597656,26.6582031 C108.597656,26.2871075 108.484376,25.9931651 108.257812,25.7763672 C108.031249,25.5595692 107.71094,25.4511719 107.296875,25.4511719 C106.925779,25.4511719 106.624025,25.5458975 106.391602,25.7353516 C106.159179,25.9248056 106.042969,26.1523424 106.042969,26.4179687 L104.941406,26.4179687 L104.929688,26.3828125 C104.90625,25.9218727 105.124021,25.5000019 105.583008,25.1171875 C106.041994,24.7343731 106.634762,24.5429687 107.361328,24.5429687 C108.080082,24.5429687 108.658201,24.7255841 109.095703,25.0908203 C109.533205,25.4560565 109.751953,25.9824184 109.751953,26.6699219 L109.751953,29.7226562 C109.751953,29.9492199 109.763672,30.1679677 109.787109,30.3789062 C109.810547,30.5898448 109.853515,30.796874 109.916016,31 L108.726562,31 Z M106.810547,30.15625 C107.228518,30.15625 107.605467,30.0488292 107.941406,29.8339844 C108.277345,29.6191396 108.496093,29.3730483 108.597656,29.0957031 L108.597656,28.0644531 L107.302734,28.0644531 C106.837888,28.0644531 106.465822,28.1816395 106.186523,28.4160156 C105.907225,28.6503918 105.767578,28.9257797 105.767578,29.2421875 C105.767578,29.5234389 105.855468,29.7460929 106.03125,29.9101562 C106.207032,30.0742196 106.466795,30.15625 106.810547,30.15625 Z M114.427734,25.6796875 L113.835938,25.6445312 C113.531248,25.6445312 113.274415,25.7167962 113.06543,25.8613281 C112.856444,26.0058601 112.695313,26.2089831 112.582031,26.4707031 L112.582031,31 L111.427734,31 L111.427734,24.6601562 L112.458984,24.6601562 L112.570312,25.5859375 C112.750001,25.2578109 112.971678,25.001954 113.235352,24.8183594 C113.499025,24.6347647 113.802733,24.5429687 114.146484,24.5429687 C114.232422,24.5429687 114.314453,24.5498046 114.392578,24.5634766 C114.470704,24.5771485 114.535156,24.5917968 114.585938,24.6074219 L114.427734,25.6796875 Z M115.541016,30.71875 L114.662109,32.5117187 L113.976562,32.5117187 L114.386719,30.6601562 L114.386719,29.7050781 L115.541016,29.7050781 L115.541016,30.71875 Z M123.035156,31 L121.880859,31 L121.880859,23.59375 L120.134766,23.6171875 L120.134766,22.7851562 L123.035156,22.46875 L123.035156,31 Z M132.023438,31 L126.492188,31 L126.492188,30.2089844 L129.287109,27.1035156 C129.787112,26.5449191 130.125976,26.1015641 130.303711,25.7734375 C130.481446,25.4453109 130.570312,25.1093767 130.570312,24.765625 C130.570312,24.3398416 130.44629,23.9814468 130.198242,23.6904297 C129.950194,23.3994126 129.621096,23.2539062 129.210938,23.2539062 C128.621091,23.2539062 128.186525,23.4052719 127.907227,23.7080078 C127.627928,24.0107437 127.488281,24.4355441 127.488281,24.9824219 L126.380859,24.9824219 L126.369141,24.9472656 C126.349609,24.212887 126.593747,23.5957056 127.101563,23.0957031 C127.609378,22.5957006 128.312496,22.3457031 129.210938,22.3457031 C129.976566,22.3457031 130.586912,22.5693337 131.041992,23.0166016 C131.497073,23.4638694 131.724609,24.0331997 131.724609,24.7246094 C131.724609,25.1894554 131.586915,25.6552711 131.311523,26.1220703 C131.036131,26.5888695 130.650393,27.0898411 130.154297,27.625 L127.910156,30.0683594 L127.921875,30.0976562 L132.023438,30.0976562 L132.023438,31 Z M138.796875,28.0703125 C138.796875,28.9843796 138.578127,29.7216769 138.140625,30.2822266 C137.703123,30.8427762 137.099613,31.1230469 136.330078,31.1230469 C135.939451,31.1230469 135.596681,31.0576178 135.301758,30.9267578 C135.006834,30.7958978 134.75586,30.5996107 134.548828,30.3378906 L134.548828,33.4375 L133.394531,33.4375 L133.394531,24.6601562 L134.279297,24.6601562 L134.460938,25.4804687 C134.66797,25.1757797 134.92578,24.9433602 135.234375,24.7832031 C135.54297,24.6230461 135.902342,24.5429687 136.3125,24.5429687 C137.09766,24.5429687 137.708006,24.8544891 138.143555,25.4775391 C138.579104,26.1005891 138.796875,26.923823 138.796875,27.9472656 L138.796875,28.0703125 Z M137.642578,27.9472656 C137.642578,27.228512 137.500978,26.6376976 137.217773,26.1748047 C136.934569,25.7119117 136.517581,25.4804687 135.966797,25.4804687 C135.634764,25.4804687 135.351564,25.5556633 135.117188,25.7060547 C134.882811,25.8564461 134.69336,26.0624987 134.548828,26.3242187 L134.548828,29.3886719 C134.69336,29.6503919 134.882811,29.8544915 135.117188,30.0009766 C135.351564,30.1474617 135.63867,30.2207031 135.978516,30.2207031 C136.525393,30.2207031 136.939452,30.0205098 137.220703,29.6201172 C137.501955,29.2197246 137.642578,28.7031282 137.642578,28.0703125 L137.642578,27.9472656 Z M142.277344,26.9980469 L143.625,24.6601562 L144.972656,24.6601562 L142.916016,27.7949219 L145.03125,31 L143.707031,31 L142.300781,28.6035156 L140.894531,31 L139.558594,31 L141.673828,27.7949219 L139.617188,24.6601562 L140.947266,24.6601562 L142.277344,26.9980469 Z"></path>
                <path d="M7.08398438,46.2695312 L7.09570313,46.3046875 C7.1113282,47.1054728 6.83008102,47.7753879 6.25195313,48.3144531 C5.67382523,48.8535183 4.910161,49.1230469 3.9609375,49.1230469 C2.99608893,49.1230469 2.20996397,48.7812534 1.60253906,48.0976562 C0.99511415,47.4140591 0.69140625,46.5468803 0.69140625,45.4960937 L0.69140625,43.9785156 C0.69140625,42.9277291 0.99511415,42.0595737 1.60253906,41.3740234 C2.20996397,40.6884731 2.99608893,40.3457031 3.9609375,40.3457031 C4.92578607,40.3457031 5.69335652,40.6025365 6.26367188,41.1162109 C6.83398723,41.6298854 7.1113282,42.3105426 7.09570313,43.1582031 L7.08398438,43.1933594 L5.9765625,43.1933594 C5.9765625,42.5957001 5.80078301,42.1230486 5.44921875,41.7753906 C5.09765449,41.4277326 4.6015657,41.2539062 3.9609375,41.2539062 C3.31640303,41.2539062 2.80273629,41.5136693 2.41992188,42.0332031 C2.03710746,42.552737 1.84570313,43.1972618 1.84570313,43.9667969 L1.84570313,45.4960937 C1.84570313,46.2734414 2.03710746,46.9218724 2.41992188,47.4414062 C2.80273629,47.9609401 3.31640303,48.2207031 3.9609375,48.2207031 C4.6015657,48.2207031 5.09765449,48.0478533 5.44921875,47.7021484 C5.80078301,47.3564436 5.9765625,46.8789093 5.9765625,46.2695312 L7.08398438,46.2695312 Z M8.16796875,45.7714844 C8.16796875,44.8339797 8.42187246,44.0615265 8.9296875,43.4541016 C9.43750254,42.8466767 10.1269488,42.5429687 10.9980469,42.5429687 C11.8769575,42.5429687 12.5712865,42.8457001 13.0810547,43.4511719 C13.5908229,44.0566437 13.8457031,44.8300734 13.8457031,45.7714844 L13.8457031,45.9003906 C13.8457031,46.8457079 13.5917994,47.6191376 13.0839844,48.2207031 C12.5761693,48.8222686 11.88477,49.1230469 11.0097656,49.1230469 C10.1347613,49.1230469 9.44238536,48.8212921 8.93261719,48.2177734 C8.42284901,47.6142548 8.16796875,46.8418016 8.16796875,45.9003906 L8.16796875,45.7714844 Z M9.32226562,45.9003906 C9.32226562,46.572269 9.46386577,47.1269509 9.74707031,47.5644531 C10.0302749,48.0019553 10.4511691,48.2207031 11.0097656,48.2207031 C11.5605496,48.2207031 11.9785142,48.0019553 12.2636719,47.5644531 C12.5488296,47.1269509 12.6914062,46.572269 12.6914062,45.9003906 L12.6914062,45.7714844 C12.6914062,45.1074186 12.547853,44.5546897 12.2607422,44.1132812 C11.9736314,43.6718728 11.5527371,43.4511719 10.9980469,43.4511719 C10.4472629,43.4511719 10.0302749,43.6718728 9.74707031,44.1132812 C9.46386577,44.5546897 9.32226562,45.1074186 9.32226562,45.7714844 L9.32226562,45.9003906 Z M16.5058594,49 L15.3515625,49 L15.3515625,39.859375 L16.5058594,39.859375 L16.5058594,49 Z M18.0117188,45.7714844 C18.0117188,44.8339797 18.2656225,44.0615265 18.7734375,43.4541016 C19.2812525,42.8466767 19.9706988,42.5429687 20.8417969,42.5429687 C21.7207075,42.5429687 22.4150365,42.8457001 22.9248047,43.4511719 C23.4345729,44.0566437 23.6894531,44.8300734 23.6894531,45.7714844 L23.6894531,45.9003906 C23.6894531,46.8457079 23.4355494,47.6191376 22.9277344,48.2207031 C22.4199193,48.8222686 21.72852,49.1230469 20.8535156,49.1230469 C19.9785113,49.1230469 19.2861354,48.8212921 18.7763672,48.2177734 C18.266599,47.6142548 18.0117188,46.8418016 18.0117188,45.9003906 L18.0117188,45.7714844 Z M19.1660156,45.9003906 C19.1660156,46.572269 19.3076158,47.1269509 19.5908203,47.5644531 C19.8740249,48.0019553 20.2949191,48.2207031 20.8535156,48.2207031 C21.4042996,48.2207031 21.8222642,48.0019553 22.1074219,47.5644531 C22.3925796,47.1269509 22.5351562,46.572269 22.5351562,45.9003906 L22.5351562,45.7714844 C22.5351562,45.1074186 22.391603,44.5546897 22.1044922,44.1132812 C21.8173814,43.6718728 21.3964871,43.4511719 20.8417969,43.4511719 C20.2910129,43.4511719 19.8740249,43.6718728 19.5908203,44.1132812 C19.3076158,44.5546897 19.1660156,45.1074186 19.1660156,45.7714844 L19.1660156,45.9003906 Z M28.1015625,43.6796875 L27.5097656,43.6445312 C27.2050766,43.6445312 26.9482432,43.7167962 26.7392578,43.8613281 C26.5302724,44.0058601 26.3691412,44.2089831 26.2558594,44.4707031 L26.2558594,49 L25.1015625,49 L25.1015625,42.6601562 L26.1328125,42.6601562 L26.2441406,43.5859375 C26.423829,43.2578109 26.6455065,43.001954 26.9091797,42.8183594 C27.1728529,42.6347647 27.4765608,42.5429687 27.8203125,42.5429687 C27.9062504,42.5429687 27.9882809,42.5498046 28.0664062,42.5634766 C28.1445316,42.5771485 28.2089841,42.5917968 28.2597656,42.6074219 L28.1015625,43.6796875 Z M29.4667969,49 L28.3125,49 L28.3125,47.8164062 L29.4667969,47.8164062 L29.4667969,49 Z M29.4667969,43.8671875 L28.3125,43.8671875 L28.3125,42.6835937 L29.4667969,42.6835937 L29.4667969,43.8671875 Z M37.5527344,46.5976562 L36.0585938,46.5976562 L35.5898438,49 L34.7050781,49 L35.1738281,46.5976562 L33.7910156,46.5976562 L33.7910156,45.7773437 L35.3378906,45.7773437 L35.7363281,43.7382812 L34.2363281,43.7382812 L34.2363281,42.90625 L35.9003906,42.90625 L36.3808594,40.46875 L37.265625,40.46875 L36.7851562,42.90625 L38.2792969,42.90625 L38.7597656,40.46875 L39.6445312,40.46875 L39.1640625,42.90625 L40.3300781,42.90625 L40.3300781,43.7382812 L39.0058594,43.7382812 L38.6074219,45.7773437 L39.890625,45.7773437 L39.890625,46.5976562 L38.4433594,46.5976562 L37.9746094,49 L37.0839844,49 L37.5527344,46.5976562 Z M36.2226562,45.7773437 L37.7167969,45.7773437 L38.1152344,43.7382812 L36.6210938,43.7382812 L36.2226562,45.7773437 Z M43.8515625,48.2207031 C44.4140653,48.2207031 44.8642561,48.0078146 45.2021484,47.5820312 C45.5400408,47.1562479 45.7089844,46.5234417 45.7089844,45.6835937 L45.7089844,45.296875 C45.5175772,45.5742201 45.2783217,45.784179 44.9912109,45.9267578 C44.7041001,46.0693367 44.3847674,46.140625 44.0332031,46.140625 C43.2089803,46.140625 42.5546899,45.8857447 42.0703125,45.3759766 C41.5859351,44.8662084 41.34375,44.164067 41.34375,43.2695312 C41.34375,42.4140582 41.6005834,41.7128934 42.1142578,41.1660156 C42.6279323,40.6191379 43.2519495,40.3457031 43.9863281,40.3457031 C44.8769576,40.3457031 45.579099,40.6240207 46.0927734,41.1806641 C46.6064479,41.7373075 46.8632812,42.5566352 46.8632812,43.6386719 L46.8632812,45.671875 C46.8632812,46.7851618 46.5849637,47.6386689 46.0283203,48.2324219 C45.4716769,48.8261748 44.7460982,49.1230469 43.8515625,49.1230469 C43.5507797,49.1230469 43.2451187,49.0947268 42.9345703,49.0380859 C42.6240219,48.981445 42.3457044,48.8945318 42.0996094,48.7773437 L42.2753906,47.8925781 C42.5058605,48.0136725 42.7451159,48.0986326 42.9931641,48.1474609 C43.2412122,48.1962893 43.5273421,48.2207031 43.8515625,48.2207031 Z M44.0332031,45.2382812 C44.4589865,45.2382812 44.8134751,45.1464853 45.0966797,44.9628906 C45.3798842,44.779296 45.5839838,44.5449233 45.7089844,44.2597656 L45.7089844,43.5214844 C45.7089844,42.7753869 45.5654311,42.2109394 45.2783203,41.828125 C44.9912095,41.4453106 44.5722684,41.2539062 44.0214844,41.2539062 C43.5996073,41.2539062 43.2402359,41.4423809 42.9433594,41.8193359 C42.6464829,42.1962909 42.4980469,42.6796846 42.4980469,43.2695312 C42.4980469,43.8554717 42.6357408,44.3300763 42.9111328,44.6933594 C43.1865248,45.0566424 43.5605445,45.2382812 44.0332031,45.2382812 Z M51.0820312,49.1230469 C50.1992143,49.1230469 49.4970729,48.8291045 48.9755859,48.2412109 C48.454099,47.6533174 48.1933594,46.8906297 48.1933594,45.953125 L48.1933594,45.6953125 C48.1933594,44.7929642 48.4619114,44.0419952 48.9990234,43.4423828 C49.5361355,42.8427704 50.1718713,42.5429687 50.90625,42.5429687 C51.761723,42.5429687 52.4082009,42.8007787 52.8457031,43.3164062 C53.2832053,43.8320338 53.5019531,44.519527 53.5019531,45.3789062 L53.5019531,46.0996094 L49.3886719,46.0996094 L49.3710938,46.1289062 C49.3828126,46.7382843 49.5371079,47.2392558 49.8339844,47.6318359 C50.1308609,48.024416 50.5468723,48.2207031 51.0820312,48.2207031 C51.4726582,48.2207031 51.8154282,48.1650396 52.1103516,48.0537109 C52.4052749,47.9423823 52.6601552,47.7890635 52.875,47.59375 L53.3261719,48.34375 C53.0996082,48.5664074 52.8007831,48.7519524 52.4296875,48.9003906 C52.0585919,49.0488289 51.6093776,49.1230469 51.0820312,49.1230469 Z M50.90625,43.4511719 C50.5195293,43.4511719 50.1894545,43.6142562 49.9160156,43.9404297 C49.6425768,44.2666032 49.4746097,44.6757788 49.4121094,45.1679687 L49.4238281,45.1972656 L52.3476562,45.1972656 L52.3476562,45.0449219 C52.3476562,44.5917946 52.2265637,44.2128921 51.984375,43.9082031 C51.7421863,43.6035141 51.3828149,43.4511719 50.90625,43.4511719 Z M56.953125,48.2207031 C57.5156278,48.2207031 57.9658186,48.0078146 58.3037109,47.5820312 C58.6416033,47.1562479 58.8105469,46.5234417 58.8105469,45.6835937 L58.8105469,45.296875 C58.6191397,45.5742201 58.3798842,45.784179 58.0927734,45.9267578 C57.8056626,46.0693367 57.4863299,46.140625 57.1347656,46.140625 C56.3105428,46.140625 55.6562524,45.8857447 55.171875,45.3759766 C54.6874976,44.8662084 54.4453125,44.164067 54.4453125,43.2695312 C54.4453125,42.4140582 54.7021459,41.7128934 55.2158203,41.1660156 C55.7294948,40.6191379 56.353512,40.3457031 57.0878906,40.3457031 C57.9785201,40.3457031 58.6806615,40.6240207 59.1943359,41.1806641 C59.7080104,41.7373075 59.9648438,42.5566352 59.9648438,43.6386719 L59.9648438,45.671875 C59.9648438,46.7851618 59.6865262,47.6386689 59.1298828,48.2324219 C58.5732394,48.8261748 57.8476607,49.1230469 56.953125,49.1230469 C56.6523422,49.1230469 56.3466812,49.0947268 56.0361328,49.0380859 C55.7255844,48.981445 55.4472669,48.8945318 55.2011719,48.7773437 L55.3769531,47.8925781 C55.607423,48.0136725 55.8466784,48.0986326 56.0947266,48.1474609 C56.3427747,48.1962893 56.6289046,48.2207031 56.953125,48.2207031 Z M57.1347656,45.2382812 C57.560549,45.2382812 57.9150376,45.1464853 58.1982422,44.9628906 C58.4814467,44.779296 58.6855463,44.5449233 58.8105469,44.2597656 L58.8105469,43.5214844 C58.8105469,42.7753869 58.6669936,42.2109394 58.3798828,41.828125 C58.092772,41.4453106 57.6738309,41.2539062 57.1230469,41.2539062 C56.7011698,41.2539062 56.3417984,41.4423809 56.0449219,41.8193359 C55.7480454,42.1962909 55.5996094,42.6796846 55.5996094,43.2695312 C55.5996094,43.8554717 55.7373033,44.3300763 56.0126953,44.6933594 C56.2880873,45.0566424 56.662107,45.2382812 57.1347656,45.2382812 Z M64.1835938,49.1230469 C63.3007768,49.1230469 62.5986354,48.8291045 62.0771484,48.2412109 C61.5556615,47.6533174 61.2949219,46.8906297 61.2949219,45.953125 L61.2949219,45.6953125 C61.2949219,44.7929642 61.5634739,44.0419952 62.1005859,43.4423828 C62.637698,42.8427704 63.2734338,42.5429687 64.0078125,42.5429687 C64.8632855,42.5429687 65.5097634,42.8007787 65.9472656,43.3164062 C66.3847678,43.8320338 66.6035156,44.519527 66.6035156,45.3789062 L66.6035156,46.0996094 L62.4902344,46.0996094 L62.4726562,46.1289062 C62.4843751,46.7382843 62.6386704,47.2392558 62.9355469,47.6318359 C63.2324234,48.024416 63.6484348,48.2207031 64.1835938,48.2207031 C64.5742207,48.2207031 64.9169907,48.1650396 65.2119141,48.0537109 C65.5068374,47.9423823 65.7617177,47.7890635 65.9765625,47.59375 L66.4277344,48.34375 C66.2011707,48.5664074 65.9023456,48.7519524 65.53125,48.9003906 C65.1601544,49.0488289 64.7109401,49.1230469 64.1835938,49.1230469 Z M64.0078125,43.4511719 C63.6210918,43.4511719 63.291017,43.6142562 63.0175781,43.9404297 C62.7441393,44.2666032 62.5761722,44.6757788 62.5136719,45.1679687 L62.5253906,45.1972656 L65.4492188,45.1972656 L65.4492188,45.0449219 C65.4492188,44.5917946 65.3281262,44.2128921 65.0859375,43.9082031 C64.8437488,43.6035141 64.4843774,43.4511719 64.0078125,43.4511719 Z M70.0546875,48.2207031 C70.6171903,48.2207031 71.0673811,48.0078146 71.4052734,47.5820312 C71.7431658,47.1562479 71.9121094,46.5234417 71.9121094,45.6835937 L71.9121094,45.296875 C71.7207022,45.5742201 71.4814467,45.784179 71.1943359,45.9267578 C70.9072251,46.0693367 70.5878924,46.140625 70.2363281,46.140625 C69.4121053,46.140625 68.7578149,45.8857447 68.2734375,45.3759766 C67.7890601,44.8662084 67.546875,44.164067 67.546875,43.2695312 C67.546875,42.4140582 67.8037084,41.7128934 68.3173828,41.1660156 C68.8310573,40.6191379 69.4550745,40.3457031 70.1894531,40.3457031 C71.0800826,40.3457031 71.782224,40.6240207 72.2958984,41.1806641 C72.8095729,41.7373075 73.0664062,42.5566352 73.0664062,43.6386719 L73.0664062,45.671875 C73.0664062,46.7851618 72.7880887,47.6386689 72.2314453,48.2324219 C71.6748019,48.8261748 70.9492232,49.1230469 70.0546875,49.1230469 C69.7539047,49.1230469 69.4482437,49.0947268 69.1376953,49.0380859 C68.8271469,48.981445 68.5488294,48.8945318 68.3027344,48.7773437 L68.4785156,47.8925781 C68.7089855,48.0136725 68.9482409,48.0986326 69.1962891,48.1474609 C69.4443372,48.1962893 69.7304671,48.2207031 70.0546875,48.2207031 Z M70.2363281,45.2382812 C70.6621115,45.2382812 71.0166001,45.1464853 71.2998047,44.9628906 C71.5830092,44.779296 71.7871088,44.5449233 71.9121094,44.2597656 L71.9121094,43.5214844 C71.9121094,42.7753869 71.7685561,42.2109394 71.4814453,41.828125 C71.1943345,41.4453106 70.7753934,41.2539062 70.2246094,41.2539062 C69.8027323,41.2539062 69.4433609,41.4423809 69.1464844,41.8193359 C68.8496079,42.1962909 68.7011719,42.6796846 68.7011719,43.2695312 C68.7011719,43.8554717 68.8388658,44.3300763 69.1142578,44.6933594 C69.3896498,45.0566424 69.7636695,45.2382812 70.2363281,45.2382812 Z M77.2851562,49.1230469 C76.4023393,49.1230469 75.7001979,48.8291045 75.1787109,48.2412109 C74.657224,47.6533174 74.3964844,46.8906297 74.3964844,45.953125 L74.3964844,45.6953125 C74.3964844,44.7929642 74.6650364,44.0419952 75.2021484,43.4423828 C75.7392605,42.8427704 76.3749963,42.5429687 77.109375,42.5429687 C77.964848,42.5429687 78.6113259,42.8007787 79.0488281,43.3164062 C79.4863303,43.8320338 79.7050781,44.519527 79.7050781,45.3789062 L79.7050781,46.0996094 L75.5917969,46.0996094 L75.5742188,46.1289062 C75.5859376,46.7382843 75.7402329,47.2392558 76.0371094,47.6318359 C76.3339859,48.024416 76.7499973,48.2207031 77.2851562,48.2207031 C77.6757832,48.2207031 78.0185532,48.1650396 78.3134766,48.0537109 C78.6083999,47.9423823 78.8632802,47.7890635 79.078125,47.59375 L79.5292969,48.34375 C79.3027332,48.5664074 79.0039081,48.7519524 78.6328125,48.9003906 C78.2617169,49.0488289 77.8125026,49.1230469 77.2851562,49.1230469 Z M77.109375,43.4511719 C76.7226543,43.4511719 76.3925795,43.6142562 76.1191406,43.9404297 C75.8457018,44.2666032 75.6777347,44.6757788 75.6152344,45.1679687 L75.6269531,45.1972656 L78.5507812,45.1972656 L78.5507812,45.0449219 C78.5507812,44.5917946 78.4296887,44.2128921 78.1875,43.9082031 C77.9453113,43.6035141 77.5859399,43.4511719 77.109375,43.4511719 Z M83.9179688,45.5371094 C83.9179688,43.9980392 84.2285125,42.6835992 84.8496094,41.59375 C85.4707062,40.5039008 86.1230435,39.7773456 86.8066406,39.4140625 L86.8417969,39.4199219 L87.0644531,40.0996094 C86.5292942,40.5175802 86.0634785,41.1874954 85.6669922,42.109375 C85.2705058,43.0312546 85.0722656,44.1699151 85.0722656,45.5253906 L85.0722656,45.6015625 C85.0722656,46.957038 85.2695293,48.0956985 85.6640625,49.0175781 C86.0585957,49.9394577 86.5253879,50.6269509 87.0644531,51.0800781 L86.8417969,51.7128906 L86.8066406,51.7128906 C86.1230435,51.3496076 85.4707062,50.6240289 84.8496094,49.5361328 C84.2285125,48.4482367 83.9179688,47.1328202 83.9179688,45.5898437 L83.9179688,45.5371094 Z M87.7089844,45.9472656 C87.7089844,44.9277293 87.9316384,44.1054719 88.3769531,43.4804687 C88.8222679,42.8554656 89.4374961,42.5429687 90.2226562,42.5429687 C90.625002,42.5429687 90.9785141,42.6240226 91.2832031,42.7861328 C91.5878921,42.948243 91.8417959,43.1816391 92.0449219,43.4863281 L92.1855469,42.6601562 L93.1054688,42.6601562 L93.1054688,49.0351562 C93.1054688,49.8476603 92.869143,50.4716775 92.3964844,50.9072266 C91.9238258,51.3427756 91.242192,51.5605469 90.3515625,51.5605469 C90.0468735,51.5605469 89.7177752,51.5185551 89.3642578,51.4345703 C89.0107404,51.3505855 88.6992201,51.2363288 88.4296875,51.0917969 L88.7226562,50.1953125 C88.9296885,50.3125006 89.179686,50.4072262 89.4726562,50.4794922 C89.7656265,50.5517582 90.0546861,50.5878906 90.3398438,50.5878906 C90.9023466,50.5878906 91.3115222,50.4599622 91.5673828,50.2041016 C91.8232435,49.9482409 91.9511719,49.5585964 91.9511719,49.0351562 L91.9511719,48.3203125 C91.7441396,48.5859388 91.4960952,48.7861321 91.2070312,48.9208984 C90.9179673,49.0556647 90.5859394,49.1230469 90.2109375,49.1230469 C89.4335899,49.1230469 88.8222679,48.8417997 88.3769531,48.2792969 C87.9316384,47.7167941 87.7089844,46.9804733 87.7089844,46.0703125 L87.7089844,45.9472656 Z M88.8632812,46.0703125 C88.8632812,46.7070344 88.9980455,47.2187481 89.2675781,47.6054687 C89.5371107,47.9921894 89.9472629,48.1855469 90.4980469,48.1855469 C90.8457049,48.1855469 91.1367176,48.1064461 91.3710938,47.9482422 C91.6054699,47.7900383 91.7988274,47.5664077 91.9511719,47.2773437 L91.9511719,44.359375 C91.8027336,44.0898424 91.6093762,43.8759774 91.3710938,43.7177734 C91.1328113,43.5595695 90.8457048,43.4804687 90.5097656,43.4804687 C89.9589816,43.4804687 89.5468764,43.7109352 89.2734375,44.171875 C88.9999986,44.6328148 88.8632812,45.2246058 88.8632812,45.9472656 L88.8632812,46.0703125 Z M97.78125,43.6796875 L97.1894531,43.6445312 C96.8847641,43.6445312 96.6279307,43.7167962 96.4189453,43.8613281 C96.2099599,44.0058601 96.0488287,44.2089831 95.9355469,44.4707031 L95.9355469,49 L94.78125,49 L94.78125,42.6601562 L95.8125,42.6601562 L95.9238281,43.5859375 C96.1035165,43.2578109 96.325194,43.001954 96.5888672,42.8183594 C96.8525404,42.6347647 97.1562483,42.5429687 97.5,42.5429687 C97.5859379,42.5429687 97.6679684,42.5498046 97.7460938,42.5634766 C97.8242191,42.5771485 97.8886716,42.5917968 97.9394531,42.6074219 L97.78125,43.6796875 Z M102.791016,49 C102.751953,48.8085928 102.72168,48.6396492 102.700195,48.4931641 C102.678711,48.346679 102.666016,48.1992195 102.662109,48.0507812 C102.447265,48.3554703 102.166994,48.6103505 101.821289,48.8154297 C101.475584,49.0205088 101.103518,49.1230469 100.705078,49.1230469 C100.044919,49.1230469 99.5419939,48.9541033 99.1962891,48.6162109 C98.8505842,48.2783186 98.6777344,47.812503 98.6777344,47.21875 C98.6777344,46.6132782 98.9228491,46.1396501 99.4130859,45.7978516 C99.9033228,45.456053 100.568355,45.2851562 101.408203,45.2851562 L102.662109,45.2851562 L102.662109,44.6582031 C102.662109,44.2871075 102.548829,43.9931651 102.322266,43.7763672 C102.095702,43.5595692 101.775393,43.4511719 101.361328,43.4511719 C100.990233,43.4511719 100.688478,43.5458975 100.456055,43.7353516 C100.223632,43.9248056 100.107422,44.1523424 100.107422,44.4179687 L99.0058594,44.4179687 L98.9941406,44.3828125 C98.970703,43.9218727 99.1884743,43.5000019 99.6474609,43.1171875 C100.106448,42.7343731 100.699215,42.5429687 101.425781,42.5429687 C102.144535,42.5429687 102.722654,42.7255841 103.160156,43.0908203 C103.597658,43.4560565 103.816406,43.9824184 103.816406,44.6699219 L103.816406,47.7226562 C103.816406,47.9492199 103.828125,48.1679677 103.851562,48.3789062 C103.875,48.5898448 103.917968,48.796874 103.980469,49 L102.791016,49 Z M100.875,48.15625 C101.292971,48.15625 101.66992,48.0488292 102.005859,47.8339844 C102.341799,47.6191396 102.560546,47.3730483 102.662109,47.0957031 L102.662109,46.0644531 L101.367188,46.0644531 C100.902341,46.0644531 100.530275,46.1816395 100.250977,46.4160156 C99.9716783,46.6503918 99.8320312,46.9257797 99.8320312,47.2421875 C99.8320312,47.5234389 99.919921,47.7460929 100.095703,47.9101562 C100.271485,48.0742196 100.531248,48.15625 100.875,48.15625 Z M107.34375,46.6503906 L107.548828,47.4472656 L107.583984,47.4472656 L109.142578,42.6601562 L110.425781,42.6601562 L107.759766,49.9726562 C107.599609,50.3984396 107.370119,50.7695297 107.071289,51.0859375 C106.772459,51.4023453 106.369143,51.5605469 105.861328,51.5605469 C105.767578,51.5605469 105.648438,51.5498048 105.503906,51.5283203 C105.359374,51.5068358 105.248047,51.4863282 105.169922,51.4667969 L105.287109,50.5585937 C105.263672,50.5546875 105.333007,50.5585937 105.495117,50.5703125 C105.657227,50.5820313 105.759765,50.5878906 105.802734,50.5878906 C106.048829,50.5878906 106.249999,50.4785167 106.40625,50.2597656 C106.562501,50.0410145 106.693359,49.7988295 106.798828,49.5332031 L107.074219,48.8710937 L104.71875,42.6601562 L106.007812,42.6601562 L107.34375,46.6503906 Z M117.539062,40.3457031 C117.832033,40.3457031 118.122069,40.3789059 118.40918,40.4453125 C118.69629,40.5117191 118.933593,40.5957026 119.121094,40.6972656 L118.875,41.5820312 C118.683593,41.4843745 118.483399,41.4052737 118.274414,41.3447266 C118.065429,41.2841794 117.820314,41.2539062 117.539062,41.2539062 C116.929684,41.2539062 116.438478,41.4980444 116.06543,41.9863281 C115.692381,42.4746118 115.505859,43.1113242 115.505859,43.8964844 L115.505859,44.03125 C115.755861,43.8124989 116.041991,43.6416022 116.364258,43.5185547 C116.686525,43.3955072 117.033201,43.3339844 117.404297,43.3339844 C118.166019,43.3339844 118.773435,43.5976536 119.226562,44.125 C119.67969,44.6523464 119.90625,45.3203085 119.90625,46.1289062 C119.90625,47.0117232 119.665041,47.7314425 119.182617,48.2880859 C118.700193,48.8447293 118.056645,49.1230469 117.251953,49.1230469 C116.416011,49.1230469 115.724612,48.8203155 115.177734,48.2148437 C114.630857,47.609372 114.357422,46.7558649 114.357422,45.6542969 L114.357422,44.0253906 C114.357422,42.9316352 114.662106,42.0449253 115.271484,41.3652344 C115.880862,40.6855435 116.636714,40.3457031 117.539062,40.3457031 Z M117.146484,44.1953125 C116.751951,44.1953125 116.416017,44.2753898 116.138672,44.4355469 C115.861327,44.5957039 115.650391,44.8085924 115.505859,45.0742187 L115.505859,45.765625 C115.505859,46.5507852 115.671873,47.1562479 116.003906,47.5820312 C116.335939,48.0078146 116.751951,48.2207031 117.251953,48.2207031 C117.724612,48.2207031 118.092772,48.0205098 118.356445,47.6201172 C118.620119,47.2197246 118.751953,46.7226592 118.751953,46.1289062 C118.751953,45.5664034 118.610353,45.1035174 118.327148,44.7402344 C118.043944,44.3769513 117.650393,44.1953125 117.146484,44.1953125 Z M126.433594,45.7480469 C126.433594,46.8378961 126.192385,47.6728487 125.709961,48.2529297 C125.227537,48.8330107 124.56641,49.1230469 123.726562,49.1230469 C122.886715,49.1230469 122.222659,48.8320342 121.734375,48.25 C121.246091,47.6679658 121.001953,46.8339898 121.001953,45.7480469 L121.001953,43.7265625 C121.001953,42.6406196 121.245115,41.805667 121.731445,41.2216797 C122.217776,40.6376924 122.878902,40.3457031 123.714844,40.3457031 C124.554692,40.3457031 125.217771,40.6376924 125.704102,41.2216797 C126.190432,41.805667 126.433594,42.6406196 126.433594,43.7265625 L126.433594,45.7480469 Z M125.279297,43.4804687 C125.279297,42.7421838 125.145509,42.1865253 124.87793,41.8134766 C124.61035,41.4404278 124.222659,41.2539062 123.714844,41.2539062 C123.207029,41.2539062 122.820314,41.4404278 122.554688,41.8134766 C122.289061,42.1865253 122.15625,42.7421838 122.15625,43.4804687 L122.15625,45.9824219 C122.15625,46.7207068 122.291014,47.2783184 122.560547,47.6552734 C122.830079,48.0322284 123.218747,48.2207031 123.726562,48.2207031 C124.234378,48.2207031 124.620116,48.033205 124.883789,47.6582031 C125.147462,47.2832012 125.279297,46.7246131 125.279297,45.9824219 L125.279297,43.4804687 Z M133.195312,45.7480469 C133.195312,46.8378961 132.954104,47.6728487 132.47168,48.2529297 C131.989255,48.8330107 131.328129,49.1230469 130.488281,49.1230469 C129.648433,49.1230469 128.984377,48.8320342 128.496094,48.25 C128.00781,47.6679658 127.763672,46.8339898 127.763672,45.7480469 L127.763672,43.7265625 C127.763672,42.6406196 128.006834,41.805667 128.493164,41.2216797 C128.979495,40.6376924 129.640621,40.3457031 130.476562,40.3457031 C131.31641,40.3457031 131.97949,40.6376924 132.46582,41.2216797 C132.952151,41.805667 133.195312,42.6406196 133.195312,43.7265625 L133.195312,45.7480469 Z M132.041016,43.4804687 C132.041016,42.7421838 131.907228,42.1865253 131.639648,41.8134766 C131.372069,41.4404278 130.984378,41.2539062 130.476562,41.2539062 C129.968747,41.2539062 129.582033,41.4404278 129.316406,41.8134766 C129.05078,42.1865253 128.917969,42.7421838 128.917969,43.4804687 L128.917969,45.9824219 C128.917969,46.7207068 129.052733,47.2783184 129.322266,47.6552734 C129.591798,48.0322284 129.980466,48.2207031 130.488281,48.2207031 C130.996096,48.2207031 131.381835,48.033205 131.645508,47.6582031 C131.909181,47.2832012 132.041016,46.7246131 132.041016,45.9824219 L132.041016,43.4804687 Z M137.044922,45.5898437 C137.044922,47.1328202 136.733402,48.4482367 136.110352,49.5361328 C135.487302,50.6240289 134.835941,51.3496076 134.15625,51.7128906 L134.121094,51.7128906 L133.898438,51.0800781 C134.425784,50.6699198 134.889646,49.9951219 135.290039,49.0556641 C135.690432,48.1162062 135.890625,46.9648506 135.890625,45.6015625 L135.890625,45.5253906 C135.890625,44.1894464 135.684572,43.0498094 135.272461,42.1064453 C134.86035,41.1630812 134.402346,40.4765646 133.898438,40.046875 L134.121094,39.4140625 L134.15625,39.4140625 C134.835941,39.7773456 135.487302,40.5039008 136.110352,41.59375 C136.733402,42.6835992 137.044922,43.9980392 137.044922,45.5371094 L137.044922,45.5898437 Z"></path>
            </g>
            <g transform="translate(227.500000, 59.000000) scale(-1, 1) translate(-227.500000, -59.000000) translate(217.000000, 36.000000)">
                <path d="M0,22.77 L21,22.77" stroke="#EC407A"></path>
                <g transform="translate(14.000000, 19.270000)">
                    <g>
                        <g fill="#FFFFFF">
                            <polygon points="7 3.5 0 7 0 0"></polygon>
                        </g>
                        <polygon stroke="#EC407A" points="5.88196601 3.5 0.5 0.809016994 0.5 6.19098301"></polygon>
                    </g>
                </g>
                <path d="M0.5,0.5 L0.5,45.5" stroke="#F0367A" stroke-linecap="square"></path>
            </g>
        </g>
    </g>
</svg>