<?xml version="1.0" encoding="UTF-8" standalone="no"?>
<svg width="639px" height="402px" viewBox="0 0 639 402" version="1.1" xmlns="http://www.w3.org/2000/svg" xmlns:xlink="http://www.w3.org/1999/xlink">
    <!-- Generator: Sketch 47.1 (45422) - http://www.bohemiancoding.com/sketch -->
    <title>tables-loading</title>
    <desc>Created with Sketch.</desc>
    <defs>
        <rect id="path-1" x="20" y="0.857142857" width="16" height="16"></rect>
        <polygon id="path-2" points="0 0 826 0 826 305 0 305"></polygon>
    </defs>
    <g id="Page-1" stroke="none" stroke-width="1" fill="none" fill-rule="evenodd">
        <g id="tables-loading">
            <g id="State-Loading" transform="translate(5.000000, 31.000000)">
                <g id="Group-2">
                    <g id="Table-Loading">
                        <g id="Table-Header">
                            <path d="M460.805664,9.11648996 L458.467773,9.11648996 L458.467773,13.1428571 L457.148438,13.1428571 L457.148438,3.18973214 L460.443359,3.18973214 C461.564459,3.18973214 462.426918,3.44493792 463.030762,3.95535714 C463.634606,4.46577636 463.936523,5.20860747 463.936523,6.18387277 C463.936523,6.80366753 463.769045,7.3437012 463.434082,7.80398996 C463.099119,8.26427872 462.633141,8.6083508 462.036133,8.83621652 L464.374023,13.0608259 L464.374023,13.1428571 L462.96582,13.1428571 L460.805664,9.11648996 Z M458.467773,8.04324777 L460.484375,8.04324777 C461.136071,8.04324777 461.654458,7.87462966 462.039551,7.53738839 C462.424644,7.20014712 462.617188,6.74897976 462.617188,6.18387277 C462.617188,5.56863532 462.433758,5.09696035 462.066895,4.76883371 C461.700031,4.44070706 461.170251,4.27436758 460.477539,4.26981027 L458.467773,4.26981027 L458.467773,8.04324777 Z M471.401367,8.54227121 L467.087891,8.54227121 L467.087891,12.069615 L472.098633,12.069615 L472.098633,13.1428571 L465.775391,13.1428571 L465.775391,3.18973214 L472.030273,3.18973214 L472.030273,4.26981027 L467.087891,4.26981027 L467.087891,7.46902902 L471.401367,7.46902902 L471.401367,8.54227121 Z M481.081055,11.8371931 C480.743813,12.3202684 480.273278,12.6814302 479.669434,12.9206892 C479.065589,13.1599482 478.362634,13.2795759 477.560547,13.2795759 C476.749345,13.2795759 476.0293,13.0893109 475.400391,12.7087751 C474.771481,12.3282394 474.284995,11.7870664 473.940918,11.08524 C473.596841,10.3834135 473.420247,9.5699451 473.411133,8.64481027 L473.411133,7.77664621 C473.411133,6.27728975 473.760901,5.115192 474.460449,4.29031808 C475.159997,3.46544416 476.143223,3.05301339 477.410156,3.05301339 C478.449224,3.05301339 479.285479,3.31847298 479.918945,3.84940011 C480.552412,4.38032725 480.939778,5.13341216 481.081055,6.10867746 L479.768555,6.10867746 C479.52246,4.79161358 478.738613,4.13309152 477.416992,4.13309152 C476.53743,4.13309152 475.870933,4.44184494 475.41748,5.05936105 C474.964028,5.67687716 474.735026,6.5712367 474.730469,7.74246652 L474.730469,8.55594308 C474.730469,9.67248512 474.985675,10.5600088 475.496094,11.2185407 C476.006513,11.8770727 476.696936,12.2063337 477.567383,12.2063337 C478.059573,12.2063337 478.490233,12.1516468 478.859375,12.0422712 C479.228517,11.9328957 479.533853,11.7483272 479.775391,11.4885603 L479.775391,9.25320871 L477.47168,9.25320871 L477.47168,8.18680246 L481.081055,8.18680246 L481.081055,11.8371931 Z M484.676758,13.1428571 L483.364258,13.1428571 L483.364258,3.18973214 L484.676758,3.18973214 L484.676758,13.1428571 Z M494.732422,8.48758371 C494.732422,9.462849 494.568361,10.3139147 494.240234,11.0408064 C493.912108,11.767698 493.447269,12.3225427 492.845703,12.7053571 C492.244138,13.0881716 491.542322,13.2795759 490.740234,13.2795759 C489.956376,13.2795759 489.261396,13.0870322 488.655273,12.7019392 C488.049151,12.3168461 487.578615,11.7676979 487.243652,11.0544782 C486.90869,10.3412585 486.736654,9.51525767 486.727539,8.57645089 L486.727539,7.85867746 C486.727539,6.90164142 486.893879,6.05627227 487.226562,5.32254464 C487.559246,4.58881702 488.029782,4.02713643 488.638184,3.63748605 C489.246585,3.24783566 489.942704,3.05301339 490.726562,3.05301339 C491.524093,3.05301339 492.227048,3.24555704 492.835449,3.63065011 C493.443851,4.01574318 493.912108,4.57400583 494.240234,5.3054548 C494.568361,6.03690377 494.732422,6.88796948 494.732422,7.85867746 L494.732422,8.48758371 Z M493.426758,7.84500558 C493.426758,6.66466114 493.189781,5.75890848 492.71582,5.12772042 C492.24186,4.49653237 491.57878,4.18094308 490.726562,4.18094308 C489.897131,4.18094308 489.244306,4.49653237 488.768066,5.12772042 C488.291827,5.75890848 488.046875,6.63503904 488.033203,7.75613839 L488.033203,8.48758371 C488.033203,9.63146963 488.273598,10.5303864 488.754395,11.184361 C489.235191,11.8383357 489.897131,12.1653181 490.740234,12.1653181 C491.587895,12.1653181 492.244138,11.8565647 492.708984,11.2390485 C493.17383,10.6215324 493.413086,9.73628739 493.426758,8.58328683 L493.426758,7.84500558 Z M504.350586,13.1428571 L503.03125,13.1428571 L498.020508,5.47293527 L498.020508,13.1428571 L496.701172,13.1428571 L496.701172,3.18973214 L498.020508,3.18973214 L503.044922,10.8938337 L503.044922,3.18973214 L504.350586,3.18973214 L504.350586,13.1428571 Z" id="Column-3-Label" fill="#333333"></path>
                            <path d="M264.032227,4.26981027 L260.833008,4.26981027 L260.833008,13.1428571 L259.527344,13.1428571 L259.527344,4.26981027 L256.334961,4.26981027 L256.334961,3.18973214 L264.032227,3.18973214 L264.032227,4.26981027 Z M270.464844,10.5452009 L266.294922,10.5452009 L265.358398,13.1428571 L264.004883,13.1428571 L267.805664,3.18973214 L268.954102,3.18973214 L272.761719,13.1428571 L271.415039,13.1428571 L270.464844,10.5452009 Z M266.691406,9.46512277 L270.075195,9.46512277 L268.379883,4.80984933 L266.691406,9.46512277 Z M281.375,11.8371931 C281.037759,12.3202684 280.567223,12.6814302 279.963379,12.9206892 C279.359535,13.1599482 278.65658,13.2795759 277.854492,13.2795759 C277.04329,13.2795759 276.323245,13.0893109 275.694336,12.7087751 C275.065427,12.3282394 274.578941,11.7870664 274.234863,11.08524 C273.890786,10.3834135 273.714193,9.5699451 273.705078,8.64481027 L273.705078,7.77664621 C273.705078,6.27728975 274.054847,5.115192 274.754395,4.29031808 C275.453942,3.46544416 276.437168,3.05301339 277.704102,3.05301339 C278.743169,3.05301339 279.579424,3.31847298 280.212891,3.84940011 C280.846357,4.38032725 281.233723,5.13341216 281.375,6.10867746 L280.0625,6.10867746 C279.816405,4.79161358 279.032559,4.13309152 277.710938,4.13309152 C276.831376,4.13309152 276.164879,4.44184494 275.711426,5.05936105 C275.257973,5.67687716 275.028971,6.5712367 275.024414,7.74246652 L275.024414,8.55594308 C275.024414,9.67248512 275.27962,10.5600088 275.790039,11.2185407 C276.300458,11.8770727 276.990881,12.2063337 277.861328,12.2063337 C278.353518,12.2063337 278.784178,12.1516468 279.15332,12.0422712 C279.522463,11.9328957 279.827798,11.7483272 280.069336,11.4885603 L280.069336,9.25320871 L277.765625,9.25320871 L277.765625,8.18680246 L281.375,8.18680246 L281.375,11.8371931 Z M286.495117,8.70633371 C285.369461,8.38276438 284.550296,7.98514466 284.037598,7.51346261 C283.5249,7.04178057 283.268555,6.45959238 283.268555,5.76688058 C283.268555,4.98302249 283.581865,4.33475424 284.208496,3.82205636 C284.835127,3.30935849 285.649735,3.05301339 286.652344,3.05301339 C287.335941,3.05301339 287.945473,3.18517353 288.480957,3.44949777 C289.016441,3.71382201 289.431151,4.07840169 289.725098,4.54324777 C290.019044,5.00809384 290.166016,5.51622678 290.166016,6.06766183 L288.84668,6.06766183 C288.84668,5.46609632 288.655275,4.99328204 288.272461,4.6492048 C287.889647,4.30512756 287.349613,4.13309152 286.652344,4.13309152 C286.005205,4.13309152 285.50049,4.27550546 285.138184,4.56033761 C284.775877,4.84516976 284.594727,5.24051086 284.594727,5.74637277 C284.594727,6.15197375 284.766763,6.49490652 285.11084,6.77518136 C285.454917,7.0554562 286.040523,7.31180129 286.867676,7.54422433 C287.694828,7.77664737 288.341957,8.03299246 288.809082,8.3132673 C289.276207,8.59354214 289.622557,8.92052455 289.848145,9.29422433 C290.073732,9.66792412 290.186523,10.1076984 290.186523,10.6135603 C290.186523,11.4202049 289.872073,12.0661946 289.243164,12.5515485 C288.614255,13.0369025 287.773443,13.2795759 286.720703,13.2795759 C286.037106,13.2795759 285.399092,13.1485551 284.806641,12.8865095 C284.21419,12.6244639 283.757326,12.2655808 283.436035,11.8098493 C283.114744,11.3541179 282.954102,10.8368705 282.954102,10.2580915 L284.273438,10.2580915 C284.273438,10.859657 284.495603,11.3347499 284.939941,11.6833845 C285.38428,12.032019 285.977861,12.2063337 286.720703,12.2063337 C287.413415,12.2063337 287.944334,12.0650591 288.313477,11.7825056 C288.682619,11.4999521 288.867188,11.1148648 288.867188,10.6272321 C288.867188,10.1395995 288.696291,9.76248738 288.354492,9.49588449 C288.012694,9.22928159 287.392908,8.96610063 286.495117,8.70633371 Z" id="Column-2-Label" fill="#333333"></path>
                            <path d="M64.4765625,9.98465402 C64.353515,11.0373937 63.9650098,11.8497228 63.3110352,12.4216657 C62.6570605,12.9936087 61.7877658,13.2795759 60.703125,13.2795759 C59.5273379,13.2795759 58.5851272,12.8580306 57.8764648,12.0149275 C57.1678024,11.1718243 56.8134766,10.0439059 56.8134766,8.63113839 L56.8134766,7.67410714 C56.8134766,6.74897231 56.9786767,5.93550388 57.309082,5.23367746 C57.6394873,4.53185103 58.1077444,3.99295668 58.7138672,3.61697824 C59.31999,3.24099979 60.0218059,3.05301339 60.8193359,3.05301339 C61.8766329,3.05301339 62.7242807,3.34809508 63.3623047,3.9382673 C64.0003287,4.52843952 64.3717443,5.34532588 64.4765625,6.38895089 L63.1572266,6.38895089 C63.0432937,5.59597818 62.7960631,5.02176517 62.4155273,4.66629464 C62.0349916,4.31082412 61.5029331,4.13309152 60.8193359,4.13309152 C59.9807901,4.13309152 59.3234073,4.44298425 58.847168,5.06277902 C58.3709286,5.68257378 58.1328125,6.5644009 58.1328125,7.70828683 L58.1328125,8.67215402 C58.1328125,9.75223754 58.3583962,10.6112784 58.8095703,11.2493025 C59.2607444,11.8873265 59.891923,12.2063337 60.703125,12.2063337 C61.4322953,12.2063337 61.9916973,12.0411335 62.3813477,11.7107282 C62.770998,11.3803229 63.0296218,10.8049706 63.1572266,9.98465402 L64.4765625,9.98465402 Z M73.9238281,8.48758371 C73.9238281,9.462849 73.7597673,10.3139147 73.4316406,11.0408064 C73.103514,11.767698 72.6386749,12.3225427 72.0371094,12.7053571 C71.4355439,13.0881716 70.733728,13.2795759 69.9316406,13.2795759 C69.1477825,13.2795759 68.4528025,13.0870322 67.8466797,12.7019392 C67.2405569,12.3168461 66.7700212,11.7676979 66.4350586,11.0544782 C66.100096,10.3412585 65.9280599,9.51525767 65.9189453,8.57645089 L65.9189453,7.85867746 C65.9189453,6.90164142 66.0852848,6.05627227 66.4179688,5.32254464 C66.7506527,4.58881702 67.2211884,4.02713643 67.8295898,3.63748605 C68.4379913,3.24783566 69.1341107,3.05301339 69.9179688,3.05301339 C70.7154988,3.05301339 71.418454,3.24555704 72.0268555,3.63065011 C72.6352569,4.01574318 73.103514,4.57400583 73.4316406,5.3054548 C73.7597673,6.03690377 73.9238281,6.88796948 73.9238281,7.85867746 L73.9238281,8.48758371 Z M72.6181641,7.84500558 C72.6181641,6.66466114 72.3811873,5.75890848 71.9072266,5.12772042 C71.4332659,4.49653237 70.7701866,4.18094308 69.9179688,4.18094308 C69.0885375,4.18094308 68.435712,4.49653237 67.9594727,5.12772042 C67.4832333,5.75890848 67.2382813,6.63503904 67.2246094,7.75613839 L67.2246094,8.48758371 C67.2246094,9.63146963 67.4650041,10.5303864 67.9458008,11.184361 C68.4265975,11.8383357 69.0885375,12.1653181 69.9316406,12.1653181 C70.7793011,12.1653181 71.4355446,11.8565647 71.9003906,11.2390485 C72.3652367,10.6215324 72.6044921,9.73628739 72.6181641,8.58328683 L72.6181641,7.84500558 Z M77.2119141,12.069615 L81.9287109,12.069615 L81.9287109,13.1428571 L75.8925781,13.1428571 L75.8925781,3.18973214 L77.2119141,3.18973214 L77.2119141,12.069615 Z M90.0634766,3.18973214 L90.0634766,9.95731027 C90.0589192,10.896117 89.7638376,11.664013 89.1782227,12.2610212 C88.5926077,12.8580294 87.7985076,13.192987 86.7958984,13.265904 L86.4472656,13.2795759 C85.3580675,13.2795759 84.4899121,12.9856335 83.8427734,12.39774 C83.1956348,11.8098464 82.8675131,11.0009352 82.8583984,9.97098214 L82.8583984,3.18973214 L84.1572266,3.18973214 L84.1572266,9.92996652 C84.1572266,10.6500222 84.3554668,11.2094242 84.7519531,11.6081892 C85.1484395,12.0069542 85.713538,12.2063337 86.4472656,12.2063337 C87.1901079,12.2063337 87.7586243,12.0080935 88.152832,11.6116071 C88.5470397,11.2151208 88.7441406,10.6568581 88.7441406,9.93680246 L88.7441406,3.18973214 L90.0634766,3.18973214 Z M93.8300781,3.18973214 L97.0839844,11.3108259 L100.337891,3.18973214 L102.040039,3.18973214 L102.040039,13.1428571 L100.727539,13.1428571 L100.727539,9.26688058 L100.850586,5.08328683 L97.5830078,13.1428571 L96.578125,13.1428571 L93.3173828,5.10379464 L93.4472656,9.26688058 L93.4472656,13.1428571 L92.1347656,13.1428571 L92.1347656,3.18973214 L93.8300781,3.18973214 Z M112.006836,13.1428571 L110.6875,13.1428571 L105.676758,5.47293527 L105.676758,13.1428571 L104.357422,13.1428571 L104.357422,3.18973214 L105.676758,3.18973214 L110.701172,10.8938337 L110.701172,3.18973214 L112.006836,3.18973214 L112.006836,13.1428571 Z M125.453125,13.1428571 L124.133789,13.1428571 L124.133789,8.54227121 L119.116211,8.54227121 L119.116211,13.1428571 L117.803711,13.1428571 L117.803711,3.18973214 L119.116211,3.18973214 L119.116211,7.46902902 L124.133789,7.46902902 L124.133789,3.18973214 L125.453125,3.18973214 L125.453125,13.1428571 Z M133.410156,8.54227121 L129.09668,8.54227121 L129.09668,12.069615 L134.107422,12.069615 L134.107422,13.1428571 L127.78418,13.1428571 L127.78418,3.18973214 L134.039062,3.18973214 L134.039062,4.26981027 L129.09668,4.26981027 L129.09668,7.46902902 L133.410156,7.46902902 L133.410156,8.54227121 Z M141.237305,10.5452009 L137.067383,10.5452009 L136.130859,13.1428571 L134.777344,13.1428571 L138.578125,3.18973214 L139.726562,3.18973214 L143.53418,13.1428571 L142.1875,13.1428571 L141.237305,10.5452009 Z M137.463867,9.46512277 L140.847656,9.46512277 L139.152344,4.80984933 L137.463867,9.46512277 Z M144.874023,13.1428571 L144.874023,3.18973214 L147.683594,3.18973214 C148.549483,3.18973214 149.315101,3.38113648 149.980469,3.76395089 C150.645837,4.14676531 151.159666,4.69135622 151.521973,5.39773996 C151.884279,6.1041237 152.067708,6.9153135 152.072266,7.83133371 L152.072266,8.46707589 C152.072266,9.40588267 151.891115,10.2284656 151.528809,10.9348493 C151.166502,11.6412331 150.649255,12.1835454 149.977051,12.5618025 C149.304847,12.9400596 148.52214,13.1337425 147.628906,13.1428571 L144.874023,13.1428571 Z M146.186523,4.26981027 L146.186523,12.069615 L147.567383,12.069615 C148.579107,12.069615 149.366371,11.755165 149.929199,11.1262556 C150.492028,10.4973462 150.773438,9.60184733 150.773438,8.43973214 L150.773438,7.85867746 C150.773438,6.72846347 150.507978,5.85005429 149.977051,5.22342355 C149.446124,4.59679281 148.693039,4.2789249 147.717773,4.26981027 L146.186523,4.26981027 Z M155.462891,13.1428571 L154.150391,13.1428571 L154.150391,3.18973214 L155.462891,3.18973214 L155.462891,13.1428571 Z M165.511719,13.1428571 L164.192383,13.1428571 L159.181641,5.47293527 L159.181641,13.1428571 L157.862305,13.1428571 L157.862305,3.18973214 L159.181641,3.18973214 L164.206055,10.8938337 L164.206055,3.18973214 L165.511719,3.18973214 L165.511719,13.1428571 Z M175.191406,11.8371931 C174.854165,12.3202684 174.383629,12.6814302 173.779785,12.9206892 C173.175941,13.1599482 172.472986,13.2795759 171.670898,13.2795759 C170.859696,13.2795759 170.139652,13.0893109 169.510742,12.7087751 C168.881833,12.3282394 168.395347,11.7870664 168.05127,11.08524 C167.707192,10.3834135 167.530599,9.5699451 167.521484,8.64481027 L167.521484,7.77664621 C167.521484,6.27728975 167.871253,5.115192 168.570801,4.29031808 C169.270349,3.46544416 170.253574,3.05301339 171.520508,3.05301339 C172.559576,3.05301339 173.39583,3.31847298 174.029297,3.84940011 C174.662764,4.38032725 175.05013,5.13341216 175.191406,6.10867746 L173.878906,6.10867746 C173.632811,4.79161358 172.848965,4.13309152 171.527344,4.13309152 C170.647782,4.13309152 169.981285,4.44184494 169.527832,5.05936105 C169.074379,5.67687716 168.845378,6.5712367 168.84082,7.74246652 L168.84082,8.55594308 C168.84082,9.67248512 169.096026,10.5600088 169.606445,11.2185407 C170.116865,11.8770727 170.807287,12.2063337 171.677734,12.2063337 C172.169924,12.2063337 172.600584,12.1516468 172.969727,12.0422712 C173.338869,11.9328957 173.644205,11.7483272 173.885742,11.4885603 L173.885742,9.25320871 L171.582031,9.25320871 L171.582031,8.18680246 L175.191406,8.18680246 L175.191406,11.8371931 Z M184.672852,13.1428571 L183.401367,13.1428571 L183.401367,4.71414621 L180.851562,5.65066964 L180.851562,4.50223214 L184.474609,3.14188058 L184.672852,3.14188058 L184.672852,13.1428571 Z" id="Column-1-Label-Copy" fill="#333333"></path>
                            <path d="M0,35 L826,35" id="Line" stroke="#E0E0E0" stroke-linecap="square"></path>
                            <g id="Rectangle-Copy">
                                <use fill="#ECECEC" fill-rule="evenodd" xlink:href="#path-1"></use>
                                <rect stroke="#979797" stroke-width="1" x="20.5" y="1.35714286" width="15" height="15"></rect>
                            </g>
                        </g>
                        <g id="Group" transform="translate(0.000000, 33.000000)">
                            <mask id="mask-3" fill="white">
                                <use xlink:href="#path-2"></use>
                            </mask>
                            <g id="Duplicate-control"></g>
                            <g id="Table-/-Row-/-Default-Loading" mask="url(#mask-3)">
                                <path d="M0,61 L826,59.8002223" id="Stroke-11" stroke="#E0E0E0" stroke-width="1"></path>
                                <rect id="Rectangle-2" fill="#D8D8D8" fill-rule="evenodd" x="20" y="23" width="167" height="18"></rect>
                                <rect id="Rectangle-2-Copy" fill="#D8D8D8" fill-rule="evenodd" x="257" y="23" width="167" height="18"></rect>
                                <rect id="Rectangle-2-Copy-2" fill="#D8D8D8" fill-rule="evenodd" x="461" y="23" width="167" height="18"></rect>
                                <rect id="Rectangle-2-Copy-3" fill="#D8D8D8" fill-rule="evenodd" x="695" y="23" width="99" height="18"></rect>
                            </g>
                            <g id="Table-/-Row-/-Default-Loading" mask="url(#mask-3)">
                                <g transform="translate(0.000000, 61.000000)">
                                    <path d="M0,61 L826,59.8002223" id="Stroke-11" stroke="#E0E0E0" stroke-width="1" fill="none"></path>
                                    <rect id="Rectangle-2" stroke="none" fill="#D8D8D8" fill-rule="evenodd" x="20" y="23" width="167" height="18"></rect>
                                    <rect id="Rectangle-2-Copy" stroke="none" fill="#D8D8D8" fill-rule="evenodd" x="257" y="23" width="167" height="18"></rect>
                                    <rect id="Rectangle-2-Copy-2" stroke="none" fill="#D8D8D8" fill-rule="evenodd" x="461" y="23" width="167" height="18"></rect>
                                    <rect id="Rectangle-2-Copy-3" stroke="none" fill="#D8D8D8" fill-rule="evenodd" x="695" y="23" width="99" height="18"></rect>
                                </g>
                            </g>
                            <g id="Table-/-Row-/-Default-Loading" mask="url(#mask-3)">
                                <g transform="translate(0.000000, 122.000000)">
                                    <path d="M0,61 L826,59.8002223" id="Stroke-11" stroke="#E0E0E0" stroke-width="1" fill="none"></path>
                                    <rect id="Rectangle-2" stroke="none" fill="#D8D8D8" fill-rule="evenodd" x="20" y="23" width="167" height="18"></rect>
                                    <rect id="Rectangle-2-Copy" stroke="none" fill="#D8D8D8" fill-rule="evenodd" x="257" y="23" width="167" height="18"></rect>
                                    <rect id="Rectangle-2-Copy-2" stroke="none" fill="#D8D8D8" fill-rule="evenodd" x="461" y="23" width="167" height="18"></rect>
                                    <rect id="Rectangle-2-Copy-3" stroke="none" fill="#D8D8D8" fill-rule="evenodd" x="695" y="23" width="99" height="18"></rect>
                                </g>
                            </g>
                            <g id="Table-/-Row-/-Default-Loading" mask="url(#mask-3)">
                                <g transform="translate(0.000000, 183.000000)">
                                    <path d="M0,61 L826,59.8002223" id="Stroke-11" stroke="#E0E0E0" stroke-width="1" fill="none"></path>
                                    <rect id="Rectangle-2" stroke="none" fill="#D8D8D8" fill-rule="evenodd" x="20" y="23" width="167" height="18"></rect>
                                    <rect id="Rectangle-2-Copy" stroke="none" fill="#D8D8D8" fill-rule="evenodd" x="257" y="23" width="167" height="18"></rect>
                                    <rect id="Rectangle-2-Copy-2" stroke="none" fill="#D8D8D8" fill-rule="evenodd" x="461" y="23" width="167" height="18"></rect>
                                    <rect id="Rectangle-2-Copy-3" stroke="none" fill="#D8D8D8" fill-rule="evenodd" x="695" y="23" width="99" height="18"></rect>
                                </g>
                            </g>
                            <g id="Table-/-Row-/-Default-Loading" mask="url(#mask-3)">
                                <g transform="translate(0.000000, 244.000000)">
                                    <path d="M0,61 L826,59.8002223" id="Stroke-11" stroke="#E0E0E0" stroke-width="1" fill="none"></path>
                                    <rect id="Rectangle-2" stroke="none" fill="#D8D8D8" fill-rule="evenodd" x="20" y="23" width="167" height="18"></rect>
                                    <rect id="Rectangle-2-Copy" stroke="none" fill="#D8D8D8" fill-rule="evenodd" x="257" y="23" width="167" height="18"></rect>
                                    <rect id="Rectangle-2-Copy-2" stroke="none" fill="#D8D8D8" fill-rule="evenodd" x="461" y="23" width="167" height="18"></rect>
                                    <rect id="Rectangle-2-Copy-3" stroke="none" fill="#D8D8D8" fill-rule="evenodd" x="695" y="23" width="99" height="18"></rect>
                                </g>
                            </g>
                        </g>
                    </g>
                </g>
            </g>
        </g>
    </g>
</svg>