<?xml version="1.0" encoding="UTF-8" standalone="no"?>
<svg width="580px" height="265px" viewBox="0 0 580 265" version="1.1" xmlns="http://www.w3.org/2000/svg" xmlns:xlink="http://www.w3.org/1999/xlink">
    <!-- Generator: Sketch 47.1 (45422) - http://www.bohemiancoding.com/sketch -->
    <title>tables-dualline-overview</title>
    <desc>Created with Sketch.</desc>
    <style type="text/css">@import url('https://fonts.googleapis.com/css?family=Roboto:300,400,500');</style>
    <defs></defs>
    <g id="Page-1" stroke="none" stroke-width="1" fill="none" fill-rule="evenodd">
        <g id="tables-dualline-overview">
            <g id="Group-22" transform="translate(17.000000, 23.000000)">
                <text id="Column-4-Label" font-family="Roboto-Regular, Roboto" font-size="8.96" font-weight="normal" line-spacing="12.8" fill="#333333">
                    <tspan x="455.893125" y="8">LAST MODIFIED</tspan>
                </text>
                <text id="Column-3-Label" font-family="Roboto-Regular, Roboto" font-size="8.96" font-weight="normal" line-spacing="12.8" fill="#333333">
                    <tspan x="330" y="8">STATUS</tspan>
                </text>
                <text id="Column-2-Label" font-family="Roboto-Regular, Roboto" font-size="8.96" font-weight="normal" line-spacing="12.8" fill="#333333">
                    <tspan x="198" y="8">ACCOUNT / DEVICE</tspan>
                </text>
                <text id="Column-1-Label" font-family="Roboto-Regular, Roboto" font-size="8.96" font-weight="normal" line-spacing="12.8" fill="#333333">
                    <tspan x="39" y="9">SUBJECT</tspan>
                </text>
                <g id="Checkbox-/-Unchecked" transform="translate(11.000000, 1.000000)" stroke="#BDBDBD" stroke-width="1.2" fill="#FFFFFF" fill-rule="nonzero">
                    <path d="M10.2605042,0.647058824 C10.7042017,0.647058824 11,0.942857143 11,1.38655462 L11,10.2605042 C11,10.7042017 10.7042017,11 10.2605042,11 L1.38655462,11 C0.942857143,11 0.647058824,10.7042017 0.647058824,10.2605042 L0.647058824,1.38655462 C0.647058824,0.942857143 0.942857143,0.647058824 1.38655462,0.647058824 L10.2605042,0.647058824 L10.2605042,0.647058824 Z" id="Shape"></path>
                </g>
                <path d="M1,20.5 L530,20.5" id="Line" stroke="#E0E0E0" stroke-width="0.64" stroke-linecap="square"></path>
                <rect id="Rectangle-2" fill="#E7F8FB" x="0" y="21" width="529" height="45"></rect>
                <g id="status" transform="translate(330.000000, 38.000000)">
                    <g id="badge-/-background-/cyan" transform="translate(0.000000, 1.800000)" stroke="#0E94A6">
                        <rect id="badge-background" x="0.5" y="0.5" width="77" height="7" rx="3.5"></rect>
                    </g>
                    <g id="badge-text" transform="translate(0.000000, 0.160000)" font-size="7" font-family="Roboto-Medium, Roboto" line-spacing="11.2" fill="#1D93A3" font-weight="400">
                        <text id="badge">
                            <tspan x="26.079988" y="6">Pending</tspan>
                        </text>
                    </g>
                </g>
                <text id="Date/Time" font-family="Roboto-Regular, Roboto" font-size="8.96" font-weight="normal" line-spacing="12.8" fill="#333333">
                    <tspan x="449.4375" y="51">Today @ 3:34 PM</tspan>
                </text>
                <text id="Subject" font-family="Roboto-Regular, Roboto" font-size="10.24" font-weight="normal" line-spacing="11.52" fill="#333333">
                    <tspan x="42" y="41">Add VPN user</tspan>
                </text>
                <g id="Checkbox-/-Unchecked" transform="translate(11.000000, 38.000000)" stroke="#BDBDBD" stroke-width="1.2" fill="#FFFFFF" fill-rule="nonzero">
                    <path d="M10.2605042,0.647058824 C10.7042017,0.647058824 11,0.942857143 11,1.38655462 L11,10.2605042 C11,10.7042017 10.7042017,11 10.2605042,11 L1.38655462,11 C0.942857143,11 0.647058824,10.7042017 0.647058824,10.2605042 L0.647058824,1.38655462 C0.647058824,0.942857143 0.942857143,0.647058824 1.38655462,0.647058824 L10.2605042,0.647058824 L10.2605042,0.647058824 Z" id="Shape"></path>
                </g>
                <g id="Assigned-To" transform="translate(422.000000, 31.000000)" font-size="11.2" font-family="Roboto-Regular, Roboto" line-spacing="14.4" fill="#333333" font-weight="normal">
                    <text id="Subject-Copy-18">
                        <tspan x="32.1070313" y="10">Jim Smith</tspan>
                    </text>
                </g>
                <text id="Devices" font-family="Roboto-Regular, Roboto" font-size="8.96" font-weight="normal" line-spacing="12.8" fill="#333333">
                    <tspan x="197" y="51">24442-web1.mywebsite.com</tspan>
                </text>
                <text id="Account-Name" font-family="Roboto-Bold, Roboto" font-size="8.96" font-weight="bold" fill="#333333">
                    <tspan x="197" y="39">Internal - Dedicated Account</tspan>
                </text>
                <path d="M2,67 L530,67" id="Stroke-11" stroke="#E0E0E0" stroke-width="0.64"></path>
                <g id="status" transform="translate(330.000000, 83.000000)">
                    <g id="badge-/-background-/-light-grey" transform="translate(0.000000, 1.800000)" fill="#D4D4D4">
                        <rect id="badge-background" x="0" y="0" width="78" height="8" rx="4"></rect>
                    </g>
                    <g id="badge-text" transform="translate(0.000000, 0.160000)" font-size="7" font-family="Roboto-Medium, Roboto" line-spacing="11.2" fill="#FFFFFF" font-weight="400">
                        <text id="badge">
                            <tspan x="26.3243728" y="6">pending</tspan>
                        </text>
                    </g>
                </g>
                <text id="Date/Time" font-family="Roboto-Regular, Roboto" font-size="8.96" font-weight="normal" line-spacing="12.8" fill="#333333">
                    <tspan x="449.4375" y="96">Today @ 3:34 PM</tspan>
                </text>
                <text id="Subject" font-family="Roboto-Regular, Roboto" font-size="10.24" font-weight="normal" line-spacing="11.52" fill="#333333">
                    <tspan x="42" y="85">Getting errors in the apache </tspan>
                    <tspan x="42" y="96.52">logs</tspan>
                </text>
                <g id="Checkbox-/-Unchecked" transform="translate(11.000000, 83.000000)" stroke="#BDBDBD" stroke-width="1.2" fill="#FFFFFF" fill-rule="nonzero">
                    <path d="M10.2605042,0.647058824 C10.7042017,0.647058824 11,0.942857143 11,1.38655462 L11,10.2605042 C11,10.7042017 10.7042017,11 10.2605042,11 L1.38655462,11 C0.942857143,11 0.647058824,10.7042017 0.647058824,10.2605042 L0.647058824,1.38655462 C0.647058824,0.942857143 0.942857143,0.647058824 1.38655462,0.647058824 L10.2605042,0.647058824 L10.2605042,0.647058824 Z" id="Shape"></path>
                </g>
                <g id="Assigned-To" transform="translate(422.000000, 76.000000)" font-size="11.2" font-family="Roboto-Regular, Roboto" line-spacing="14.4" fill="#333333" font-weight="normal">
                    <text id="Subject-Copy-18">
                        <tspan x="32.1070313" y="10">Jim Smith</tspan>
                    </text>
                </g>
                <text id="Devices" font-family="Roboto-Regular, Roboto" font-size="8.96" font-weight="normal" line-spacing="12.8" fill="#333333">
                    <tspan x="197" y="96">cloud-prod.domain.com (3)</tspan>
                </text>
                <text id="Account-Name" font-family="Roboto-Bold, Roboto" font-size="8.96" font-weight="bold" fill="#333333">
                    <tspan x="197" y="84">Prod - RPC Account</tspan>
                </text>
                <path d="M2,112 L530,112" id="Stroke-11" stroke="#E0E0E0" stroke-width="0.64"></path>
                <g id="status" transform="translate(330.000000, 129.000000)">
                    <g id="badge-/-background-/-light-grey" fill="#D4D4D4">
                        <rect id="badge-background" x="0" y="0" width="77" height="8" rx="4"></rect>
                    </g>
                    <g id="badge-text" transform="translate(0.000000, 0.160000)" font-size="7" font-family="Roboto-Medium, Roboto" fill="#FFFFFF" font-weight="400">
                        <text id="badge">
                            <tspan x="26.1247852" y="6">pending</tspan>
                        </text>
                    </g>
                </g>
                <text id="Date/Time" font-family="Roboto-Regular, Roboto" font-size="8.96" font-weight="normal" line-spacing="12.8" fill="#333333">
                    <tspan x="444.98375" y="141">July 12 @ 2:17 PM</tspan>
                </text>
                <text id="Subject" font-family="Roboto-Regular, Roboto" font-size="10.24" font-weight="normal" line-spacing="11.52" fill="#333333">
                    <tspan x="42" y="130">RCN on recent outage</tspan>
                </text>
                <g id="Checkbox-/-Unchecked" transform="translate(11.000000, 127.000000)" stroke="#BDBDBD" stroke-width="1.2" fill="#FFFFFF" fill-rule="nonzero">
                    <path d="M10.2605042,0.647058824 C10.7042017,0.647058824 11,0.942857143 11,1.38655462 L11,10.2605042 C11,10.7042017 10.7042017,11 10.2605042,11 L1.38655462,11 C0.942857143,11 0.647058824,10.7042017 0.647058824,10.2605042 L0.647058824,1.38655462 C0.647058824,0.942857143 0.942857143,0.647058824 1.38655462,0.647058824 L10.2605042,0.647058824 L10.2605042,0.647058824 Z" id="Shape"></path>
                </g>
                <g id="Assigned-To" transform="translate(422.000000, 121.000000)" font-size="11.2" font-family="Roboto-Regular, Roboto" line-spacing="14.4" fill="#333333" font-weight="normal">
                    <text id="Subject-Copy-18">
                        <tspan x="32.1070313" y="10">Jim Smith</tspan>
                    </text>
                </g>
                <text id="Devices" font-family="Roboto-Regular, Roboto" font-size="8.96" font-weight="normal" line-spacing="12.8" fill="#333333">
                    <tspan x="197" y="141">web-db1.domain.com</tspan>
                </text>
                <text id="Account-Name" font-family="Roboto-Bold, Roboto" font-size="8.96" font-weight="bold" fill="#333333">
                    <tspan x="197" y="129">Prod - Cloud Account</tspan>
                </text>
                <path d="M2,157 L530,157" id="Stroke-11" stroke="#E0E0E0" stroke-width="0.64"></path>
                <g id="Ticket-Table-Item-Copy" transform="translate(2.000000, 165.000000)">
                    <g id="status" transform="translate(328.800000, 7.160000)">
                        <g id="badge-/-background-/-white" transform="translate(0.000000, 1.800000)" stroke="#9E9E9E">
                            <rect id="badge-background" x="0.5" y="0.5" width="76" height="7" rx="3.5"></rect>
                        </g>
                        <g id="badge-text" transform="translate(0.000000, 0.160000)" font-size="7" font-family="Roboto-Medium, Roboto" line-spacing="11.2" fill="#9B9B9B" font-weight="400">
                            <text id="badge">
                                <tspan x="21.2029102" y="6">in progress</tspan>
                            </text>
                        </g>
                    </g>
                    <text id="Date/Time" font-family="Roboto-Regular, Roboto" font-size="8.96" font-weight="normal" line-spacing="12.8" fill="#333333">
                        <tspan x="438.36" y="20.8">July 12 @ 11:34 AM</tspan>
                    </text>
                    <text id="Subject" font-family="Roboto-Regular, Roboto" font-size="10.24" font-weight="normal" line-spacing="11.52" fill="#333333">
                        <tspan x="40.8" y="10">Standing up new </tspan>
                        <tspan x="40.8" y="21.52">infrastructure</tspan>
                    </text>
                    <g id="Checkbox-/-Unchecked" transform="translate(9.440000, 7.040000)" stroke="#BDBDBD" stroke-width="1.2" fill="#FFFFFF" fill-rule="nonzero">
                        <path d="M10.1485714,0.64 C10.5874286,0.64 10.88,0.932571429 10.88,1.37142857 L10.88,10.1485714 C10.88,10.5874286 10.5874286,10.88 10.1485714,10.88 L1.37142857,10.88 C0.932571429,10.88 0.64,10.5874286 0.64,10.1485714 L0.64,1.37142857 C0.64,0.932571429 0.932571429,0.64 1.37142857,0.64 L10.1485714,0.64 L10.1485714,0.64 Z" id="Shape"></path>
                    </g>
                    <g id="Assigned-To" transform="translate(420.600000, 0.640000)" font-size="11.2" font-family="Roboto-Regular, Roboto" line-spacing="14.4" fill="#333333" font-weight="normal">
                        <text id="Subject-Copy-18">
                            <tspan x="32.1070313" y="10">Jim Smith</tspan>
                        </text>
                    </g>
                    <text id="Devices" font-family="Roboto-Regular, Roboto" font-size="8.96" font-weight="normal" line-spacing="12.8" fill="#333333">
                        <tspan x="195.68" y="20.8">vm1.mywebsite.com</tspan>
                    </text>
                    <text id="Account-Name" font-family="Roboto-Bold, Roboto" font-size="8.96" font-weight="bold" fill="#333333">
                        <tspan x="195.68" y="8.64">Prod - GCP Account</tspan>
                    </text>
                    <path d="M2.89901436e-12,36.48 L527.981117,36.48" id="Stroke-11" stroke="#E0E0E0" stroke-width="0.64"></path>
                </g>
                <path d="M2,202 L530,202" id="Stroke-11" stroke="#E0E0E0" stroke-width="0.64"></path>
            </g>
            <path d="M535.956667,198.21638 C535.956667,199.131849 535.346354,199.68 534.447839,199.68 L529.508828,199.68 C528.610313,199.68 528,199.131849 528,198.21638 C528,196.939245 528.299505,194.978333 529.95526,194.978333 C530.130443,194.978333 530.870729,195.763828 531.978333,195.763828 C533.085938,195.763828 533.826224,194.978333 534.001406,194.978333 C535.657162,194.978333 535.956667,196.939245 535.956667,198.21638 Z M534.148334,193.17 C534.148334,194.368021 533.176354,195.34 531.978333,195.34 C530.780313,195.34 529.808333,194.368021 529.808333,193.17 C529.808333,191.971979 530.780313,191 531.978333,191 C533.176354,191 534.148334,191.971979 534.148334,193.17 Z" id="" fill="#333333"></path>
            <path d="M535.956667,152.21638 C535.956667,153.131849 535.346354,153.68 534.447839,153.68 L529.508828,153.68 C528.610313,153.68 528,153.131849 528,152.21638 C528,150.939245 528.299505,148.978333 529.95526,148.978333 C530.130443,148.978333 530.870729,149.763828 531.978333,149.763828 C533.085938,149.763828 533.826224,148.978333 534.001406,148.978333 C535.657162,148.978333 535.956667,150.939245 535.956667,152.21638 Z M534.148334,147.17 C534.148334,148.368021 533.176354,149.34 531.978333,149.34 C530.780313,149.34 529.808333,148.368021 529.808333,147.17 C529.808333,145.971979 530.780313,145 531.978333,145 C533.176354,145 534.148334,145.971979 534.148334,147.17 Z" id="" fill="#333333"></path>
            <path d="M535.956667,108.21638 C535.956667,109.131849 535.346354,109.68 534.447839,109.68 L529.508828,109.68 C528.610313,109.68 528,109.131849 528,108.21638 C528,106.939245 528.299505,104.978333 529.95526,104.978333 C530.130443,104.978333 530.870729,105.763828 531.978333,105.763828 C533.085938,105.763828 533.826224,104.978333 534.001406,104.978333 C535.657162,104.978333 535.956667,106.939245 535.956667,108.21638 Z M534.148334,103.17 C534.148334,104.368021 533.176354,105.34 531.978333,105.34 C530.780313,105.34 529.808333,104.368021 529.808333,103.17 C529.808333,101.971979 530.780313,101 531.978333,101 C533.176354,101 534.148334,101.971979 534.148334,103.17 Z" id="" fill="#333333"></path>
            <path d="M535.956667,63.2163805 C535.956667,64.1318492 535.346354,64.6800003 534.447839,64.6800003 L529.508828,64.6800003 C528.610313,64.6800003 528,64.1318492 528,63.2163805 C528,61.939245 528.299505,59.9783335 529.95526,59.9783335 C530.130443,59.9783335 530.870729,60.7638283 531.978333,60.7638283 C533.085938,60.7638283 533.826224,59.9783335 534.001406,59.9783335 C535.657162,59.9783335 535.956667,61.939245 535.956667,63.2163805 Z M534.148334,58.1700001 C534.148334,59.368021 533.176354,60.3400002 531.978333,60.3400002 C530.780313,60.3400002 529.808333,59.368021 529.808333,58.1700001 C529.808333,56.9719792 530.780313,56 531.978333,56 C533.176354,56 534.148334,56.9719792 534.148334,58.1700001 Z" id="" fill="#333333"></path>
        </g>
    </g>
</svg>