<?xml version="1.0" encoding="UTF-8" standalone="no"?>
<svg width="552px" height="364px" viewBox="0 0 552 364" version="1.1" xmlns="http://www.w3.org/2000/svg" xmlns:xlink="http://www.w3.org/1999/xlink">
    <!-- Generator: Sketch 46.2 (44496) - http://www.bohemiancoding.com/sketch -->
    <title>alert-bar-status-types</title>
    <desc>Created with Sketch.</desc>
    <defs></defs>
    <g stroke="none" stroke-width="1" fill="none" fill-rule="evenodd">
        <g>
            <polygon fill="#FFEB3B" fill-rule="nonzero" points="123 172.599 551.233 172.599 551.233 128 123 128"></polygon>
            <polygon fill="#D32F2F" fill-rule="nonzero" points="123 78.6 551.233 78.6 551.233 34 123 34"></polygon>
            <polygon fill="#4CAF51" fill-rule="nonzero" points="123 269.599 551.233 269.599 551.233 225 123 225"></polygon>
            <polygon fill="#BBDEFB" fill-rule="nonzero" points="123 363.599 551.233 363.599 551.233 319 123 319"></polygon>
            <g>
                <rect stroke="#EC407A" x="0.5" y="0.5" width="130" height="18" rx="9"></rect>
                <path d="M33.9824219,10.8496094 C33.9824219,10.4589824 33.835939,10.1318373 33.5429687,9.86816406 C33.2499985,9.60449087 32.7304725,9.3828134 31.984375,9.203125 C31.0820267,8.98828018 30.3779322,8.67187709 29.8720703,8.25390625 C29.3662084,7.83593541 29.1132812,7.31055004 29.1132812,6.67773438 C29.1132812,6.01366855 29.3857395,5.4589866 29.9306641,5.01367188 C30.4755887,4.56835715 31.1816363,4.34570312 32.0488281,4.34570312 C32.9824265,4.34570312 33.7255832,4.60155994 34.2783203,5.11328125 C34.8310575,5.62500256 35.0976563,6.21874662 35.078125,6.89453125 L35.0664062,6.9296875 L33.9648437,6.9296875 C33.9648437,6.429685 33.7998063,6.02539217 33.4697266,5.71679688 C33.1396468,5.40820158 32.6660187,5.25390625 32.0488281,5.25390625 C31.4746065,5.25390625 31.0341812,5.38378776 30.7275391,5.64355469 C30.4208969,5.90332161 30.2675781,6.24218541 30.2675781,6.66015625 C30.2675781,7.03125186 30.4335921,7.34081907 30.765625,7.58886719 C31.0976579,7.8369153 31.636715,8.05468656 32.3828125,8.2421875 C33.2812545,8.46484486 33.9648414,8.79296658 34.4335937,9.2265625 C34.9023461,9.66015842 35.1367187,10.1972624 35.1367187,10.8378906 C35.1367187,11.5253941 34.8554716,12.0781229 34.2929687,12.4960938 C33.7304659,12.9140646 32.9960983,13.1230469 32.0898437,13.1230469 C31.238277,13.1230469 30.4853548,12.8925804 29.8310547,12.4316406 C29.1767545,11.9707008 28.8593749,11.3535195 28.8789062,10.5800781 L28.890625,10.5449219 L29.9921875,10.5449219 C29.9921875,11.0917996 30.1933574,11.5078111 30.5957031,11.7929688 C30.9980489,12.0781264 31.4960908,12.2207031 32.0898437,12.2207031 C32.6718779,12.2207031 33.1328108,12.0976575 33.4726562,11.8515625 C33.8125017,11.6054675 33.9824219,11.2714865 33.9824219,10.8496094 Z M39.2324219,13.1230469 C38.349605,13.1230469 37.6474635,12.8291045 37.1259766,12.2412109 C36.6044896,11.6533174 36.34375,10.8906297 36.34375,9.953125 L36.34375,9.6953125 C36.34375,8.79296424 36.612302,8.04199519 37.1494141,7.44238281 C37.6865261,6.84277044 38.322262,6.54296875 39.0566406,6.54296875 C39.9121137,6.54296875 40.5585916,6.80077867 40.9960937,7.31640625 C41.4335959,7.83203383 41.6523437,8.51952695 41.6523437,9.37890625 L41.6523437,10.0996094 L37.5390625,10.0996094 L37.5214844,10.1289062 C37.5332032,10.7382843 37.6874985,11.2392558 37.984375,11.6318359 C38.2812515,12.024416 38.6972629,12.2207031 39.2324219,12.2207031 C39.6230488,12.2207031 39.9658188,12.1650396 40.2607422,12.0537109 C40.5556655,11.9423823 40.8105458,11.7890635 41.0253906,11.59375 L41.4765625,12.34375 C41.2499989,12.5664074 40.9511737,12.7519524 40.5800781,12.9003906 C40.2089825,13.0488289 39.7597683,13.1230469 39.2324219,13.1230469 Z M39.0566406,7.45117188 C38.6699199,7.45117188 38.3398451,7.61425618 38.0664062,7.94042969 C37.7929674,8.26660319 37.6250003,8.67577879 37.5625,9.16796875 L37.5742187,9.19726562 L40.4980469,9.19726562 L40.4980469,9.04492188 C40.4980469,8.59179461 40.3769543,8.21289215 40.1347656,7.90820312 C39.8925769,7.6035141 39.5332055,7.45117188 39.0566406,7.45117188 Z M44.9863281,11.1308594 L45.0859375,11.5761719 L45.1210937,11.5761719 L45.2324219,11.1308594 L46.6914062,6.66015625 L47.8691406,6.66015625 L45.5371094,13 L44.6640625,13 L42.3027344,6.66015625 L43.4863281,6.66015625 L44.9863281,11.1308594 Z M51.4609375,13.1230469 C50.5781206,13.1230469 49.8759792,12.8291045 49.3544922,12.2412109 C48.8330052,11.6533174 48.5722656,10.8906297 48.5722656,9.953125 L48.5722656,9.6953125 C48.5722656,8.79296424 48.8408176,8.04199519 49.3779297,7.44238281 C49.9150417,6.84277044 50.5507776,6.54296875 51.2851562,6.54296875 C52.1406293,6.54296875 52.7871072,6.80077867 53.2246094,7.31640625 C53.6621116,7.83203383 53.8808594,8.51952695 53.8808594,9.37890625 L53.8808594,10.0996094 L49.7675781,10.0996094 L49.75,10.1289062 C49.7617188,10.7382843 49.9160141,11.2392558 50.2128906,11.6318359 C50.5097671,12.024416 50.9257786,12.2207031 51.4609375,12.2207031 C51.8515645,12.2207031 52.1943345,12.1650396 52.4892578,12.0537109 C52.7841812,11.9423823 53.0390614,11.7890635 53.2539062,11.59375 L53.7050781,12.34375 C53.4785145,12.5664074 53.1796894,12.7519524 52.8085937,12.9003906 C52.4374981,13.0488289 51.9882839,13.1230469 51.4609375,13.1230469 Z M51.2851562,7.45117188 C50.8984356,7.45117188 50.5683607,7.61425618 50.2949219,7.94042969 C50.021483,8.26660319 49.8535159,8.67577879 49.7910156,9.16796875 L49.8027344,9.19726562 L52.7265625,9.19726562 L52.7265625,9.04492188 C52.7265625,8.59179461 52.60547,8.21289215 52.3632812,7.90820312 C52.1210925,7.6035141 51.7617211,7.45117188 51.2851562,7.45117188 Z M58.1757812,7.6796875 L57.5839844,7.64453125 C57.2792954,7.64453125 57.022462,7.71679615 56.8134766,7.86132812 C56.6044911,8.0058601 56.4433599,8.20898307 56.3300781,8.47070312 L56.3300781,13 L55.1757812,13 L55.1757812,6.66015625 L56.2070312,6.66015625 L56.3183594,7.5859375 C56.4980478,7.25781086 56.7197252,7.00195404 56.9833984,6.81835938 C57.2470716,6.63476471 57.5507795,6.54296875 57.8945312,6.54296875 C57.9804692,6.54296875 58.0624996,6.54980462 58.140625,6.56347656 C58.2187504,6.57714851 58.2832029,6.5917968 58.3339844,6.60742188 L58.1757812,7.6796875 Z M60.5371094,13 L59.3828125,13 L59.3828125,6.66015625 L60.5371094,6.66015625 L60.5371094,13 Z M60.5371094,5.03710938 L59.3828125,5.03710938 L59.3828125,3.859375 L60.5371094,3.859375 L60.5371094,5.03710938 Z M63.8359375,5.13085938 L63.8359375,6.66015625 L65.0371094,6.66015625 L65.0371094,7.515625 L63.8359375,7.515625 L63.8359375,11.3652344 C63.8359375,11.6621109 63.8974603,11.8710931 64.0205078,11.9921875 C64.1435553,12.1132819 64.3066396,12.1738281 64.5097656,12.1738281 C64.5761722,12.1738281 64.6494137,12.1660157 64.7294922,12.1503906 C64.8095707,12.1347655 64.8808591,12.1152345 64.9433594,12.0917969 L65.0957031,12.8828125 C65.0097652,12.9531254 64.8837899,13.010742 64.7177734,13.0556641 C64.551757,13.1005862 64.3847665,13.1230469 64.2167969,13.1230469 C63.7480445,13.1230469 63.3750014,12.9814467 63.0976562,12.6982422 C62.8203111,12.4150376 62.6816406,11.9707062 62.6816406,11.3652344 L62.6816406,7.515625 L61.6738281,7.515625 L61.6738281,6.66015625 L62.6816406,6.66015625 L62.6816406,5.13085938 L63.8359375,5.13085938 Z M68.4003906,10.6503906 L68.6054688,11.4472656 L68.640625,11.4472656 L70.1992188,6.66015625 L71.4824219,6.66015625 L68.8164062,13.9726562 C68.6562492,14.3984396 68.4267593,14.7695297 68.1279297,15.0859375 C67.8291001,15.4023453 67.4257838,15.5605469 66.9179688,15.5605469 C66.8242183,15.5605469 66.7050788,15.5498048 66.5605469,15.5283203 C66.4160149,15.5068358 66.3046879,15.4863282 66.2265625,15.4667969 L66.34375,14.5585938 C66.3203124,14.5546875 66.3896476,14.5585937 66.5517578,14.5703125 C66.713868,14.5820313 66.816406,14.5878906 66.859375,14.5878906 C67.10547,14.5878906 67.3066398,14.4785167 67.4628906,14.2597656 C67.6191414,14.0410145 67.7499995,13.7988295 67.8554688,13.5332031 L68.1308594,12.8710938 L65.7753906,6.66015625 L67.0644531,6.66015625 L68.4003906,10.6503906 Z M76.8496094,12.0976562 L80.8867188,12.0976562 L80.8867188,13 L75.6953125,13 L75.6953125,4.46875 L76.8496094,4.46875 L76.8496094,12.0976562 Z M84.5898438,13.1230469 C83.7070268,13.1230469 83.0048854,12.8291045 82.4833984,12.2412109 C81.9619115,11.6533174 81.7011719,10.8906297 81.7011719,9.953125 L81.7011719,9.6953125 C81.7011719,8.79296424 81.9697239,8.04199519 82.5068359,7.44238281 C83.043948,6.84277044 83.6796838,6.54296875 84.4140625,6.54296875 C85.2695355,6.54296875 85.9160134,6.80077867 86.3535156,7.31640625 C86.7910178,7.83203383 87.0097656,8.51952695 87.0097656,9.37890625 L87.0097656,10.0996094 L82.8964844,10.0996094 L82.8789062,10.1289062 C82.8906251,10.7382843 83.0449204,11.2392558 83.3417969,11.6318359 C83.6386734,12.024416 84.0546848,12.2207031 84.5898438,12.2207031 C84.9804707,12.2207031 85.3232407,12.1650396 85.6181641,12.0537109 C85.9130874,11.9423823 86.1679677,11.7890635 86.3828125,11.59375 L86.8339844,12.34375 C86.6074207,12.5664074 86.3085956,12.7519524 85.9375,12.9003906 C85.5664044,13.0488289 85.1171901,13.1230469 84.5898438,13.1230469 Z M84.4140625,7.45117188 C84.0273418,7.45117188 83.697267,7.61425618 83.4238281,7.94042969 C83.1503893,8.26660319 82.9824222,8.67577879 82.9199219,9.16796875 L82.9316406,9.19726562 L85.8554688,9.19726562 L85.8554688,9.04492188 C85.8554688,8.59179461 85.7343762,8.21289215 85.4921875,7.90820312 C85.2499988,7.6035141 84.8906274,7.45117188 84.4140625,7.45117188 Z M90.34375,11.1308594 L90.4433594,11.5761719 L90.4785156,11.5761719 L90.5898438,11.1308594 L92.0488281,6.66015625 L93.2265625,6.66015625 L90.8945312,13 L90.0214844,13 L87.6601562,6.66015625 L88.84375,6.66015625 L90.34375,11.1308594 Z M96.8183594,13.1230469 C95.9355425,13.1230469 95.233401,12.8291045 94.7119141,12.2412109 C94.1904271,11.6533174 93.9296875,10.8906297 93.9296875,9.953125 L93.9296875,9.6953125 C93.9296875,8.79296424 94.1982395,8.04199519 94.7353516,7.44238281 C95.2724636,6.84277044 95.9081995,6.54296875 96.6425781,6.54296875 C97.4980512,6.54296875 98.1445291,6.80077867 98.5820312,7.31640625 C99.0195334,7.83203383 99.2382812,8.51952695 99.2382812,9.37890625 L99.2382812,10.0996094 L95.125,10.0996094 L95.1074219,10.1289062 C95.1191407,10.7382843 95.273436,11.2392558 95.5703125,11.6318359 C95.867189,12.024416 96.2832004,12.2207031 96.8183594,12.2207031 C97.2089863,12.2207031 97.5517563,12.1650396 97.8466797,12.0537109 C98.141603,11.9423823 98.3964833,11.7890635 98.6113281,11.59375 L99.0625,12.34375 C98.8359364,12.5664074 98.5371112,12.7519524 98.1660156,12.9003906 C97.79492,13.0488289 97.3457058,13.1230469 96.8183594,13.1230469 Z M96.6425781,7.45117188 C96.2558574,7.45117188 95.9257826,7.61425618 95.6523438,7.94042969 C95.3789049,8.26660319 95.2109378,8.67577879 95.1484375,9.16796875 L95.1601562,9.19726562 L98.0839844,9.19726562 L98.0839844,9.04492188 C98.0839844,8.59179461 97.9628918,8.21289215 97.7207031,7.90820312 C97.4785144,7.6035141 97.119143,7.45117188 96.6425781,7.45117188 Z M101.78125,13 L100.626953,13 L100.626953,3.859375 L101.78125,3.859375 L101.78125,13 Z" fill="#EC407A"></path>
            </g>
            <polygon stroke="#EC407A" stroke-width="2" fill-opacity="0.2" fill="#EC407A" fill-rule="nonzero" points="19 34 65 34 42 363.599"></polygon>
            <g transform="translate(270.000000, 51.000000)" fill="#FFFFFF">
                <path d="M7.15625,6.7265625 L1.9453125,6.7265625 L1.9453125,10.796875 L7.953125,10.796875 L7.953125,12 L0.40625,12 L0.40625,0.625 L7.8671875,0.625 L7.8671875,1.8359375 L1.9453125,1.8359375 L1.9453125,5.515625 L7.15625,5.515625 L7.15625,6.7265625 Z M11.296875,7.0703125 L11.296875,12 L9.7578125,12 L9.7578125,0.6328125 L13.875,0.6328125 C15.1197979,0.6328125 16.0703092,0.908851406 16.7265625,1.4609375 C17.3828158,2.01302359 17.7109375,2.81509891 17.7109375,3.8671875 C17.7109375,4.45052375 17.5585953,4.95833117 17.2539062,5.390625 C16.9492172,5.82291883 16.5052113,6.16666539 15.921875,6.421875 C16.5468781,6.62500102 16.9960924,6.9544248 17.2695312,7.41015625 C17.5429701,7.8658877 17.6796875,8.42968414 17.6796875,9.1015625 L17.6796875,10.171875 C17.6796875,10.5260434 17.7187496,10.8437486 17.796875,11.125 C17.8750004,11.4062514 18.0104157,11.6354158 18.203125,11.8125 L18.203125,12 L16.6171875,12 C16.4140615,11.8229158 16.2838545,11.5625017 16.2265625,11.21875 C16.1692705,10.8749983 16.140625,10.5208352 16.140625,10.15625 L16.140625,9.1171875 C16.140625,8.50260109 15.9609393,8.00781437 15.6015625,7.6328125 C15.2421857,7.25781063 14.7604197,7.0703125 14.15625,7.0703125 L11.296875,7.0703125 Z M11.296875,5.859375 L13.71875,5.859375 C14.588546,5.859375 15.2148418,5.69401207 15.5976562,5.36328125 C15.9804707,5.03255043 16.171875,4.52864922 16.171875,3.8515625 C16.171875,3.2109343 15.9856789,2.71484551 15.6132812,2.36328125 C15.2408836,2.01171699 14.6614623,1.8359375 13.875,1.8359375 L11.296875,1.8359375 L11.296875,5.859375 Z M21.8984375,7.0703125 L21.8984375,12 L20.359375,12 L20.359375,0.6328125 L24.4765625,0.6328125 C25.7213604,0.6328125 26.6718717,0.908851406 27.328125,1.4609375 C27.9843783,2.01302359 28.3125,2.81509891 28.3125,3.8671875 C28.3125,4.45052375 28.1601578,4.95833117 27.8554688,5.390625 C27.5507797,5.82291883 27.1067737,6.16666539 26.5234375,6.421875 C27.1484406,6.62500102 27.5976549,6.9544248 27.8710938,7.41015625 C28.1445326,7.8658877 28.28125,8.42968414 28.28125,9.1015625 L28.28125,10.171875 C28.28125,10.5260434 28.3203121,10.8437486 28.3984375,11.125 C28.4765629,11.4062514 28.6119782,11.6354158 28.8046875,11.8125 L28.8046875,12 L27.21875,12 C27.015624,11.8229158 26.885417,11.5625017 26.828125,11.21875 C26.770833,10.8749983 26.7421875,10.5208352 26.7421875,10.15625 L26.7421875,9.1171875 C26.7421875,8.50260109 26.5625018,8.00781437 26.203125,7.6328125 C25.8437482,7.25781063 25.3619822,7.0703125 24.7578125,7.0703125 L21.8984375,7.0703125 Z M21.8984375,5.859375 L24.3203125,5.859375 C25.1901085,5.859375 25.8164043,5.69401207 26.1992188,5.36328125 C26.5820332,5.03255043 26.7734375,4.52864922 26.7734375,3.8515625 C26.7734375,3.2109343 26.5872414,2.71484551 26.2148438,2.36328125 C25.8424461,2.01171699 25.2630248,1.8359375 24.4765625,1.8359375 L21.8984375,1.8359375 L21.8984375,5.859375 Z M39.5703125,7.328125 C39.5703125,8.71875695 39.1393272,9.87239125 38.2773438,10.7890625 C37.4153603,11.7057338 36.2968819,12.1640625 34.921875,12.1640625 C33.5937434,12.1640625 32.5143271,11.7057338 31.6835938,10.7890625 C30.8528604,9.87239125 30.4375,8.71875695 30.4375,7.328125 L30.4375,5.3046875 C30.4375,3.91926391 30.8528604,2.76562961 31.6835938,1.84375 C32.5143271,0.921870391 33.5937434,0.4609375 34.921875,0.4609375 C36.2968819,0.4609375 37.4153603,0.92056832 38.2773438,1.83984375 C39.1393272,2.75911918 39.5703125,3.91405555 39.5703125,5.3046875 L39.5703125,7.328125 Z M38.03125,5.2890625 C38.03125,4.24739063 37.7500028,3.3932325 37.1875,2.7265625 C36.6249972,2.0598925 35.8697964,1.7265625 34.921875,1.7265625 C34.0260372,1.7265625 33.3112006,2.0598925 32.7773438,2.7265625 C32.2434869,3.3932325 31.9765625,4.24739063 31.9765625,5.2890625 L31.9765625,7.328125 C31.9765625,8.38021359 32.2434869,9.23958 32.7773438,9.90625 C33.3112006,10.57292 34.0260372,10.90625 34.921875,10.90625 C35.8750048,10.90625 36.6315076,10.5742221 37.1914062,9.91015625 C37.7513049,9.24609043 38.03125,8.38542195 38.03125,7.328125 L38.03125,5.2890625 Z M43.40625,7.0703125 L43.40625,12 L41.8671875,12 L41.8671875,0.6328125 L45.984375,0.6328125 C47.2291729,0.6328125 48.1796842,0.908851406 48.8359375,1.4609375 C49.4921908,2.01302359 49.8203125,2.81509891 49.8203125,3.8671875 C49.8203125,4.45052375 49.6679703,4.95833117 49.3632812,5.390625 C49.0585922,5.82291883 48.6145863,6.16666539 48.03125,6.421875 C48.6562531,6.62500102 49.1054674,6.9544248 49.3789062,7.41015625 C49.6523451,7.8658877 49.7890625,8.42968414 49.7890625,9.1015625 L49.7890625,10.171875 C49.7890625,10.5260434 49.8281246,10.8437486 49.90625,11.125 C49.9843754,11.4062514 50.1197907,11.6354158 50.3125,11.8125 L50.3125,12 L48.7265625,12 C48.5234365,11.8229158 48.3932295,11.5625017 48.3359375,11.21875 C48.2786455,10.8749983 48.25,10.5208352 48.25,10.15625 L48.25,9.1171875 C48.25,8.50260109 48.0703143,8.00781437 47.7109375,7.6328125 C47.3515607,7.25781063 46.8697947,7.0703125 46.265625,7.0703125 L43.40625,7.0703125 Z M43.40625,5.859375 L45.828125,5.859375 C46.697921,5.859375 47.3242168,5.69401207 47.7070312,5.36328125 C48.0898457,5.03255043 48.28125,4.52864922 48.28125,3.8515625 C48.28125,3.2109343 48.0950539,2.71484551 47.7226562,2.36328125 C47.3502586,2.01171699 46.7708373,1.8359375 45.984375,1.8359375 L43.40625,1.8359375 L43.40625,5.859375 Z M62.609375,9.0703125 L57.84375,9.0703125 L56.765625,12 L55.1953125,12 L59.59375,0.625 L60.9140625,0.625 L65.2421875,12 L63.671875,12 L62.609375,9.0703125 Z M58.3203125,7.78125 L62.1484375,7.78125 L60.2734375,2.6015625 L60.2265625,2.6015625 L58.3203125,7.78125 Z M68.34375,10.796875 L73.7265625,10.796875 L73.7265625,12 L66.8046875,12 L66.8046875,0.625 L68.34375,0.625 L68.34375,10.796875 Z M82.1953125,6.7265625 L76.984375,6.7265625 L76.984375,10.796875 L82.9921875,10.796875 L82.9921875,12 L75.4453125,12 L75.4453125,0.625 L82.90625,0.625 L82.90625,1.8359375 L76.984375,1.8359375 L76.984375,5.515625 L82.1953125,5.515625 L82.1953125,6.7265625 Z M86.3359375,7.0703125 L86.3359375,12 L84.796875,12 L84.796875,0.6328125 L88.9140625,0.6328125 C90.1588604,0.6328125 91.1093717,0.908851406 91.765625,1.4609375 C92.4218783,2.01302359 92.75,2.81509891 92.75,3.8671875 C92.75,4.45052375 92.5976578,4.95833117 92.2929688,5.390625 C91.9882797,5.82291883 91.5442738,6.16666539 90.9609375,6.421875 C91.5859406,6.62500102 92.0351549,6.9544248 92.3085938,7.41015625 C92.5820326,7.8658877 92.71875,8.42968414 92.71875,9.1015625 L92.71875,10.171875 C92.71875,10.5260434 92.7578121,10.8437486 92.8359375,11.125 C92.9140629,11.4062514 93.0494782,11.6354158 93.2421875,11.8125 L93.2421875,12 L91.65625,12 C91.453124,11.8229158 91.322917,11.5625017 91.265625,11.21875 C91.208333,10.8749983 91.1796875,10.5208352 91.1796875,10.15625 L91.1796875,9.1171875 C91.1796875,8.50260109 91.0000018,8.00781437 90.640625,7.6328125 C90.2812482,7.25781063 89.7994822,7.0703125 89.1953125,7.0703125 L86.3359375,7.0703125 Z M86.3359375,5.859375 L88.7578125,5.859375 C89.6276085,5.859375 90.2539043,5.69401207 90.6367188,5.36328125 C91.0195332,5.03255043 91.2109375,4.52864922 91.2109375,3.8515625 C91.2109375,3.2109343 91.0247414,2.71484551 90.6523438,2.36328125 C90.2799461,2.01171699 89.7005248,1.8359375 88.9140625,1.8359375 L86.3359375,1.8359375 L86.3359375,5.859375 Z M102.710938,1.8359375 L99.0546875,1.8359375 L99.0546875,12 L97.515625,12 L97.515625,1.8359375 L93.8671875,1.8359375 L93.8671875,0.625 L102.710938,0.625 L102.710938,1.8359375 Z M108.359375,12 L108.359375,0.625 L112.070312,0.625 C113.257818,0.625 114.187497,0.881507852 114.859375,1.39453125 C115.531253,1.90755465 115.867188,2.6770782 115.867188,3.703125 C115.867188,4.20833586 115.705731,4.66015426 115.382812,5.05859375 C115.059894,5.45703324 114.635419,5.7526032 114.109375,5.9453125 C114.796878,6.09114656 115.337238,6.4270807 115.730469,6.953125 C116.1237,7.4791693 116.320312,8.09114234 116.320312,8.7890625 C116.320312,9.83073438 115.983076,10.6262993 115.308594,11.1757812 C114.634111,11.7252632 113.718756,12 112.5625,12 L108.359375,12 Z M109.898438,6.6640625 L109.898438,10.796875 L112.5625,10.796875 C113.26042,10.796875 113.804686,10.6236996 114.195312,10.2773438 C114.585939,9.93098785 114.78125,9.44010734 114.78125,8.8046875 C114.78125,8.1380175 114.618491,7.61458523 114.292969,7.234375 C113.967446,6.85416477 113.466149,6.6640625 112.789062,6.6640625 L109.898438,6.6640625 Z M109.898438,5.4609375 L112.390625,5.4609375 C112.963545,5.4609375 113.429686,5.30338699 113.789062,4.98828125 C114.148439,4.67317551 114.328125,4.23437781 114.328125,3.671875 C114.328125,3.05728859 114.134117,2.59765777 113.746094,2.29296875 C113.358071,1.98827973 112.799483,1.8359375 112.070312,1.8359375 L109.898438,1.8359375 L109.898438,5.4609375 Z M124.75,9.0703125 L119.984375,9.0703125 L118.90625,12 L117.335938,12 L121.734375,0.625 L123.054688,0.625 L127.382812,12 L125.8125,12 L124.75,9.0703125 Z M120.460938,7.78125 L124.289062,7.78125 L122.414062,2.6015625 L122.367188,2.6015625 L120.460938,7.78125 Z M130.484375,7.0703125 L130.484375,12 L128.945312,12 L128.945312,0.6328125 L133.0625,0.6328125 C134.307298,0.6328125 135.257809,0.908851406 135.914062,1.4609375 C136.570316,2.01302359 136.898438,2.81509891 136.898438,3.8671875 C136.898438,4.45052375 136.746095,4.95833117 136.441406,5.390625 C136.136717,5.82291883 135.692711,6.16666539 135.109375,6.421875 C135.734378,6.62500102 136.183592,6.9544248 136.457031,7.41015625 C136.73047,7.8658877 136.867188,8.42968414 136.867188,9.1015625 L136.867188,10.171875 C136.867188,10.5260434 136.90625,10.8437486 136.984375,11.125 C137.0625,11.4062514 137.197916,11.6354158 137.390625,11.8125 L137.390625,12 L135.804688,12 C135.601561,11.8229158 135.471354,11.5625017 135.414062,11.21875 C135.356771,10.8749983 135.328125,10.5208352 135.328125,10.15625 L135.328125,9.1171875 C135.328125,8.50260109 135.148439,8.00781437 134.789062,7.6328125 C134.429686,7.25781063 133.94792,7.0703125 133.34375,7.0703125 L130.484375,7.0703125 Z M130.484375,5.859375 L132.90625,5.859375 C133.776046,5.859375 134.402342,5.69401207 134.785156,5.36328125 C135.167971,5.03255043 135.359375,4.52864922 135.359375,3.8515625 C135.359375,3.2109343 135.173179,2.71484551 134.800781,2.36328125 C134.428384,2.01171699 133.848962,1.8359375 133.0625,1.8359375 L130.484375,1.8359375 L130.484375,5.859375 Z"></path>
            </g>
            <g transform="translate(259.000000, 242.000000)" fill="#FFFFFF">
                <path d="M7.6015625,9.1328125 C7.6015625,8.61197656 7.40625195,8.17578301 7.015625,7.82421875 C6.62499805,7.47265449 5.93229664,7.17708453 4.9375,6.9375 C3.73436898,6.65104023 2.79557629,6.22916945 2.12109375,5.671875 C1.44661121,5.11458055 1.109375,4.41406672 1.109375,3.5703125 C1.109375,2.68489141 1.47265262,1.94531547 2.19921875,1.3515625 C2.92578488,0.757809531 3.86718172,0.4609375 5.0234375,0.4609375 C6.26823539,0.4609375 7.2591109,0.802079922 7.99609375,1.484375 C8.7330766,2.16667008 9.0885418,2.95832883 9.0625,3.859375 L9.046875,3.90625 L7.578125,3.90625 C7.578125,3.23958 7.35807512,2.70052289 6.91796875,2.2890625 C6.47786238,1.87760211 5.84635828,1.671875 5.0234375,1.671875 C4.25780867,1.671875 3.67057496,1.84505035 3.26171875,2.19140625 C2.85286254,2.53776215 2.6484375,2.98958055 2.6484375,3.546875 C2.6484375,4.04166914 2.86978945,4.45442543 3.3125,4.78515625 C3.75521055,5.11588707 4.47395336,5.40624875 5.46875,5.65625 C6.66667266,5.95312648 7.57812188,6.39062211 8.203125,6.96875 C8.82812812,7.54687789 9.140625,8.26301656 9.140625,9.1171875 C9.140625,10.0338588 8.76562875,10.7708305 8.015625,11.328125 C7.26562125,11.8854195 6.28646437,12.1640625 5.078125,12.1640625 C3.94270266,12.1640625 2.93880645,11.8567739 2.06640625,11.2421875 C1.19400605,10.6276011 0.770833203,9.80469266 0.796875,8.7734375 L0.8125,8.7265625 L2.28125,8.7265625 C2.28125,9.45573281 2.54947648,10.0104148 3.0859375,10.390625 C3.62239852,10.7708352 4.28645437,10.9609375 5.078125,10.9609375 C5.85417055,10.9609375 6.46874773,10.7968766 6.921875,10.46875 C7.37500227,10.1406234 7.6015625,9.69531531 7.6015625,9.1328125 Z M19.6953125,0.625 L19.6953125,8.3359375 C19.6953125,9.57552703 19.2929728,10.5234342 18.4882812,11.1796875 C17.6835897,11.8359408 16.632819,12.1640625 15.3359375,12.1640625 C14.0859313,12.1640625 13.0716185,11.8346387 12.2929688,11.1757812 C11.514319,10.5169238 11.125,9.57031867 11.125,8.3359375 L11.125,0.625 L12.6640625,0.625 L12.6640625,8.3359375 C12.6640625,9.1953168 12.9088517,9.84765402 13.3984375,10.2929688 C13.8880233,10.7382835 14.5338502,10.9609375 15.3359375,10.9609375 C16.1796917,10.9609375 16.8606745,10.7382835 17.3789062,10.2929688 C17.897138,9.84765402 18.15625,9.1953168 18.15625,8.3359375 L18.15625,0.625 L19.6953125,0.625 Z M30.25,8.359375 L30.265625,8.40625 C30.2864584,9.47396367 29.9114622,10.3671839 29.140625,11.0859375 C28.3697878,11.8046911 27.3515688,12.1640625 26.0859375,12.1640625 C24.7994727,12.1640625 23.7513061,11.7083379 22.9414062,10.796875 C22.1315064,9.88541211 21.7265625,8.72917367 21.7265625,7.328125 L21.7265625,5.3046875 C21.7265625,3.90363883 22.1315064,2.74609832 22.9414062,1.83203125 C23.7513061,0.91796418 24.7994727,0.4609375 26.0859375,0.4609375 C27.3724023,0.4609375 28.3958295,0.803381992 29.15625,1.48828125 C29.9166705,2.17318051 30.2864584,3.08072352 30.265625,4.2109375 L30.25,4.2578125 L28.7734375,4.2578125 C28.7734375,3.46093352 28.5390648,2.83073148 28.0703125,2.3671875 C27.6015602,1.90364352 26.9401084,1.671875 26.0859375,1.671875 C25.2265582,1.671875 24.5416692,2.0182257 24.03125,2.7109375 C23.5208308,3.4036493 23.265625,4.2630157 23.265625,5.2890625 L23.265625,7.328125 C23.265625,8.36458852 23.5208308,9.2291632 24.03125,9.921875 C24.5416692,10.6145868 25.2265582,10.9609375 26.0859375,10.9609375 C26.9401084,10.9609375 27.6015602,10.7304711 28.0703125,10.2695312 C28.5390648,9.80859145 28.7734375,9.17187906 28.7734375,8.359375 L30.25,8.359375 Z M40.3828125,8.359375 L40.3984375,8.40625 C40.4192709,9.47396367 40.0442747,10.3671839 39.2734375,11.0859375 C38.5026003,11.8046911 37.4843813,12.1640625 36.21875,12.1640625 C34.9322852,12.1640625 33.8841186,11.7083379 33.0742187,10.796875 C32.2643189,9.88541211 31.859375,8.72917367 31.859375,7.328125 L31.859375,5.3046875 C31.859375,3.90363883 32.2643189,2.74609832 33.0742187,1.83203125 C33.8841186,0.91796418 34.9322852,0.4609375 36.21875,0.4609375 C37.5052148,0.4609375 38.528642,0.803381992 39.2890625,1.48828125 C40.049483,2.17318051 40.4192709,3.08072352 40.3984375,4.2109375 L40.3828125,4.2578125 L38.90625,4.2578125 C38.90625,3.46093352 38.6718773,2.83073148 38.203125,2.3671875 C37.7343727,1.90364352 37.0729209,1.671875 36.21875,1.671875 C35.3593707,1.671875 34.6744817,2.0182257 34.1640625,2.7109375 C33.6536433,3.4036493 33.3984375,4.2630157 33.3984375,5.2890625 L33.3984375,7.328125 C33.3984375,8.36458852 33.6536433,9.2291632 34.1640625,9.921875 C34.6744817,10.6145868 35.3593707,10.9609375 36.21875,10.9609375 C37.0729209,10.9609375 37.7343727,10.7304711 38.203125,10.2695312 C38.6718773,9.80859145 38.90625,9.17187906 38.90625,8.359375 L40.3828125,8.359375 Z M49.2265625,6.7265625 L44.015625,6.7265625 L44.015625,10.796875 L50.0234375,10.796875 L50.0234375,12 L42.4765625,12 L42.4765625,0.625 L49.9375,0.625 L49.9375,1.8359375 L44.015625,1.8359375 L44.015625,5.515625 L49.2265625,5.515625 L49.2265625,6.7265625 Z M58.0234375,9.1328125 C58.0234375,8.61197656 57.828127,8.17578301 57.4375,7.82421875 C57.046873,7.47265449 56.3541716,7.17708453 55.359375,6.9375 C54.156244,6.65104023 53.2174513,6.22916945 52.5429688,5.671875 C51.8684862,5.11458055 51.53125,4.41406672 51.53125,3.5703125 C51.53125,2.68489141 51.8945276,1.94531547 52.6210938,1.3515625 C53.3476599,0.757809531 54.2890567,0.4609375 55.4453125,0.4609375 C56.6901104,0.4609375 57.6809859,0.802079922 58.4179688,1.484375 C59.1549516,2.16667008 59.5104168,2.95832883 59.484375,3.859375 L59.46875,3.90625 L58,3.90625 C58,3.23958 57.7799501,2.70052289 57.3398438,2.2890625 C56.8997374,1.87760211 56.2682333,1.671875 55.4453125,1.671875 C54.6796837,1.671875 54.09245,1.84505035 53.6835938,2.19140625 C53.2747375,2.53776215 53.0703125,2.98958055 53.0703125,3.546875 C53.0703125,4.04166914 53.2916645,4.45442543 53.734375,4.78515625 C54.1770855,5.11588707 54.8958284,5.40624875 55.890625,5.65625 C57.0885477,5.95312648 57.9999969,6.39062211 58.625,6.96875 C59.2500031,7.54687789 59.5625,8.26301656 59.5625,9.1171875 C59.5625,10.0338588 59.1875037,10.7708305 58.4375,11.328125 C57.6874962,11.8854195 56.7083394,12.1640625 55.5,12.1640625 C54.3645777,12.1640625 53.3606814,11.8567739 52.4882812,11.2421875 C51.6158811,10.6276011 51.1927082,9.80469266 51.21875,8.7734375 L51.234375,8.7265625 L52.703125,8.7265625 C52.703125,9.45573281 52.9713515,10.0104148 53.5078125,10.390625 C54.0442735,10.7708352 54.7083294,10.9609375 55.5,10.9609375 C56.2760455,10.9609375 56.8906227,10.7968766 57.34375,10.46875 C57.7968773,10.1406234 58.0234375,9.69531531 58.0234375,9.1328125 Z M68,9.1328125 C68,8.61197656 67.8046895,8.17578301 67.4140625,7.82421875 C67.0234355,7.47265449 66.3307341,7.17708453 65.3359375,6.9375 C64.1328065,6.65104023 63.1940138,6.22916945 62.5195312,5.671875 C61.8450487,5.11458055 61.5078125,4.41406672 61.5078125,3.5703125 C61.5078125,2.68489141 61.8710901,1.94531547 62.5976562,1.3515625 C63.3242224,0.757809531 64.2656192,0.4609375 65.421875,0.4609375 C66.6666729,0.4609375 67.6575484,0.802079922 68.3945312,1.484375 C69.1315141,2.16667008 69.4869793,2.95832883 69.4609375,3.859375 L69.4453125,3.90625 L67.9765625,3.90625 C67.9765625,3.23958 67.7565126,2.70052289 67.3164062,2.2890625 C66.8762999,1.87760211 66.2447958,1.671875 65.421875,1.671875 C64.6562462,1.671875 64.0690125,1.84505035 63.6601562,2.19140625 C63.2513,2.53776215 63.046875,2.98958055 63.046875,3.546875 C63.046875,4.04166914 63.268227,4.45442543 63.7109375,4.78515625 C64.153648,5.11588707 64.8723909,5.40624875 65.8671875,5.65625 C67.0651102,5.95312648 67.9765594,6.39062211 68.6015625,6.96875 C69.2265656,7.54687789 69.5390625,8.26301656 69.5390625,9.1171875 C69.5390625,10.0338588 69.1640663,10.7708305 68.4140625,11.328125 C67.6640587,11.8854195 66.6849019,12.1640625 65.4765625,12.1640625 C64.3411402,12.1640625 63.3372439,11.8567739 62.4648438,11.2421875 C61.5924436,10.6276011 61.1692707,9.80469266 61.1953125,8.7734375 L61.2109375,8.7265625 L62.6796875,8.7265625 C62.6796875,9.45573281 62.947914,10.0104148 63.484375,10.390625 C64.020836,10.7708352 64.6848919,10.9609375 65.4765625,10.9609375 C66.252608,10.9609375 66.8671852,10.7968766 67.3203125,10.46875 C67.7734398,10.1406234 68,9.69531531 68,9.1328125 Z M81.921875,9.0703125 L77.15625,9.0703125 L76.078125,12 L74.5078125,12 L78.90625,0.625 L80.2265625,0.625 L84.5546875,12 L82.984375,12 L81.921875,9.0703125 Z M77.6328125,7.78125 L81.4609375,7.78125 L79.5859375,2.6015625 L79.5390625,2.6015625 L77.6328125,7.78125 Z M87.65625,10.796875 L93.0390625,10.796875 L93.0390625,12 L86.1171875,12 L86.1171875,0.625 L87.65625,0.625 L87.65625,10.796875 Z M101.507812,6.7265625 L96.296875,6.7265625 L96.296875,10.796875 L102.304688,10.796875 L102.304688,12 L94.7578125,12 L94.7578125,0.625 L102.21875,0.625 L102.21875,1.8359375 L96.296875,1.8359375 L96.296875,5.515625 L101.507812,5.515625 L101.507812,6.7265625 Z M105.648438,7.0703125 L105.648438,12 L104.109375,12 L104.109375,0.6328125 L108.226562,0.6328125 C109.47136,0.6328125 110.421872,0.908851406 111.078125,1.4609375 C111.734378,2.01302359 112.0625,2.81509891 112.0625,3.8671875 C112.0625,4.45052375 111.910158,4.95833117 111.605469,5.390625 C111.30078,5.82291883 110.856774,6.16666539 110.273438,6.421875 C110.898441,6.62500102 111.347655,6.9544248 111.621094,7.41015625 C111.894533,7.8658877 112.03125,8.42968414 112.03125,9.1015625 L112.03125,10.171875 C112.03125,10.5260434 112.070312,10.8437486 112.148438,11.125 C112.226563,11.4062514 112.361978,11.6354158 112.554688,11.8125 L112.554688,12 L110.96875,12 C110.765624,11.8229158 110.635417,11.5625017 110.578125,11.21875 C110.520833,10.8749983 110.492188,10.5208352 110.492188,10.15625 L110.492188,9.1171875 C110.492188,8.50260109 110.312502,8.00781437 109.953125,7.6328125 C109.593748,7.25781063 109.111982,7.0703125 108.507812,7.0703125 L105.648438,7.0703125 Z M105.648438,5.859375 L108.070312,5.859375 C108.940109,5.859375 109.566404,5.69401207 109.949219,5.36328125 C110.332033,5.03255043 110.523438,4.52864922 110.523438,3.8515625 C110.523438,3.2109343 110.337241,2.71484551 109.964844,2.36328125 C109.592446,2.01171699 109.013025,1.8359375 108.226562,1.8359375 L105.648438,1.8359375 L105.648438,5.859375 Z M122.023438,1.8359375 L118.367188,1.8359375 L118.367188,12 L116.828125,12 L116.828125,1.8359375 L113.179688,1.8359375 L113.179688,0.625 L122.023438,0.625 L122.023438,1.8359375 Z M127.671875,12 L127.671875,0.625 L131.382812,0.625 C132.570318,0.625 133.499997,0.881507852 134.171875,1.39453125 C134.843753,1.90755465 135.179688,2.6770782 135.179688,3.703125 C135.179688,4.20833586 135.018231,4.66015426 134.695312,5.05859375 C134.372394,5.45703324 133.947919,5.7526032 133.421875,5.9453125 C134.109378,6.09114656 134.649738,6.4270807 135.042969,6.953125 C135.4362,7.4791693 135.632812,8.09114234 135.632812,8.7890625 C135.632812,9.83073438 135.295576,10.6262993 134.621094,11.1757812 C133.946611,11.7252632 133.031256,12 131.875,12 L127.671875,12 Z M129.210938,6.6640625 L129.210938,10.796875 L131.875,10.796875 C132.57292,10.796875 133.117186,10.6236996 133.507812,10.2773438 C133.898439,9.93098785 134.09375,9.44010734 134.09375,8.8046875 C134.09375,8.1380175 133.930991,7.61458523 133.605469,7.234375 C133.279946,6.85416477 132.778649,6.6640625 132.101562,6.6640625 L129.210938,6.6640625 Z M129.210938,5.4609375 L131.703125,5.4609375 C132.276045,5.4609375 132.742186,5.30338699 133.101562,4.98828125 C133.460939,4.67317551 133.640625,4.23437781 133.640625,3.671875 C133.640625,3.05728859 133.446617,2.59765777 133.058594,2.29296875 C132.670571,1.98827973 132.111983,1.8359375 131.382812,1.8359375 L129.210938,1.8359375 L129.210938,5.4609375 Z M144.0625,9.0703125 L139.296875,9.0703125 L138.21875,12 L136.648438,12 L141.046875,0.625 L142.367188,0.625 L146.695312,12 L145.125,12 L144.0625,9.0703125 Z M139.773438,7.78125 L143.601562,7.78125 L141.726562,2.6015625 L141.679688,2.6015625 L139.773438,7.78125 Z M149.796875,7.0703125 L149.796875,12 L148.257812,12 L148.257812,0.6328125 L152.375,0.6328125 C153.619798,0.6328125 154.570309,0.908851406 155.226562,1.4609375 C155.882816,2.01302359 156.210938,2.81509891 156.210938,3.8671875 C156.210938,4.45052375 156.058595,4.95833117 155.753906,5.390625 C155.449217,5.82291883 155.005211,6.16666539 154.421875,6.421875 C155.046878,6.62500102 155.496092,6.9544248 155.769531,7.41015625 C156.04297,7.8658877 156.179688,8.42968414 156.179688,9.1015625 L156.179688,10.171875 C156.179688,10.5260434 156.21875,10.8437486 156.296875,11.125 C156.375,11.4062514 156.510416,11.6354158 156.703125,11.8125 L156.703125,12 L155.117188,12 C154.914061,11.8229158 154.783854,11.5625017 154.726562,11.21875 C154.669271,10.8749983 154.640625,10.5208352 154.640625,10.15625 L154.640625,9.1171875 C154.640625,8.50260109 154.460939,8.00781437 154.101562,7.6328125 C153.742186,7.25781063 153.26042,7.0703125 152.65625,7.0703125 L149.796875,7.0703125 Z M149.796875,5.859375 L152.21875,5.859375 C153.088546,5.859375 153.714842,5.69401207 154.097656,5.36328125 C154.480471,5.03255043 154.671875,4.52864922 154.671875,3.8515625 C154.671875,3.2109343 154.485679,2.71484551 154.113281,2.36328125 C153.740884,2.01171699 153.161462,1.8359375 152.375,1.8359375 L149.796875,1.8359375 L149.796875,5.859375 Z"></path>
            </g>
            <g transform="translate(258.000000, 140.000000)" fill="#000000">
                <path d="M3.6875,13.0625 L3.8984375,14.484375 L3.9453125,14.4921875 L4.25,13.0625 L6.3359375,5.625 L7.6953125,5.625 L9.796875,13.0625 L10.109375,14.5234375 L10.15625,14.5234375 L10.3828125,13.0625 L12.078125,5.625 L13.6171875,5.625 L10.875,17 L9.5,17 L7.2578125,9.109375 L7.0546875,8.0859375 L7.0078125,8.0859375 L6.8125,9.109375 L4.53125,17 L3.15625,17 L0.421875,5.625 L1.953125,5.625 L3.6875,13.0625 Z M21.3671875,14.0703125 L16.6015625,14.0703125 L15.5234375,17 L13.953125,17 L18.3515625,5.625 L19.671875,5.625 L24,17 L22.4296875,17 L21.3671875,14.0703125 Z M17.078125,12.78125 L20.90625,12.78125 L19.03125,7.6015625 L18.984375,7.6015625 L17.078125,12.78125 Z M27.1015625,12.0703125 L27.1015625,17 L25.5625,17 L25.5625,5.6328125 L29.6796875,5.6328125 C30.9244854,5.6328125 31.8749967,5.90885141 32.53125,6.4609375 C33.1875033,7.01302359 33.515625,7.81509891 33.515625,8.8671875 C33.515625,9.45052375 33.3632828,9.95833117 33.0585938,10.390625 C32.7539047,10.8229188 32.3098988,11.1666654 31.7265625,11.421875 C32.3515656,11.625001 32.8007799,11.9544248 33.0742188,12.4101562 C33.3476576,12.8658877 33.484375,13.4296841 33.484375,14.1015625 L33.484375,15.171875 C33.484375,15.5260434 33.5234371,15.8437486 33.6015625,16.125 C33.6796879,16.4062514 33.8151032,16.6354158 34.0078125,16.8125 L34.0078125,17 L32.421875,17 C32.218749,16.8229158 32.088542,16.5625017 32.03125,16.21875 C31.973958,15.8749983 31.9453125,15.5208352 31.9453125,15.15625 L31.9453125,14.1171875 C31.9453125,13.5026011 31.7656268,13.0078144 31.40625,12.6328125 C31.0468732,12.2578106 30.5651072,12.0703125 29.9609375,12.0703125 L27.1015625,12.0703125 Z M27.1015625,10.859375 L29.5234375,10.859375 C30.3932335,10.859375 31.0195293,10.6940121 31.4023438,10.3632812 C31.7851582,10.0325504 31.9765625,9.52864922 31.9765625,8.8515625 C31.9765625,8.2109343 31.7903664,7.71484551 31.4179688,7.36328125 C31.0455711,7.01171699 30.4661498,6.8359375 29.6796875,6.8359375 L27.1015625,6.8359375 L27.1015625,10.859375 Z M44.765625,17 L43.2265625,17 L37.75,8.203125 L37.703125,8.21875 L37.703125,17 L36.1640625,17 L36.1640625,5.625 L37.703125,5.625 L43.1796875,14.40625 L43.2265625,14.390625 L43.2265625,5.625 L44.765625,5.625 L44.765625,17 Z M49.203125,17 L47.65625,17 L47.65625,5.625 L49.203125,5.625 L49.203125,17 Z M60.703125,17 L59.1640625,17 L53.6875,8.203125 L53.640625,8.21875 L53.640625,17 L52.1015625,17 L52.1015625,5.625 L53.640625,5.625 L59.1171875,14.40625 L59.1640625,14.390625 L59.1640625,5.625 L60.703125,5.625 L60.703125,17 Z M71.7578125,15.4921875 C71.4869778,15.9088562 71.0169304,16.2916649 70.3476562,16.640625 C69.6783821,16.9895851 68.8125053,17.1640625 67.75,17.1640625 C66.3906182,17.1640625 65.2669315,16.729171 64.3789062,15.859375 C63.490881,14.989579 63.046875,13.8645902 63.046875,12.484375 L63.046875,10.140625 C63.046875,8.76040977 63.4609334,7.63542102 64.2890625,6.765625 C65.1171916,5.89582898 66.1848893,5.4609375 67.4921875,5.4609375 C68.7942773,5.4609375 69.8177046,5.7812468 70.5625,6.421875 C71.3072954,7.0625032 71.6874999,7.88801578 71.703125,8.8984375 L71.6875,8.9453125 L70.21875,8.9453125 C70.1718748,8.28385086 69.9205752,7.73958547 69.4648438,7.3125 C69.0091123,6.88541453 68.3515668,6.671875 67.4921875,6.671875 C66.6223915,6.671875 65.9218777,6.99739258 65.390625,7.6484375 C64.8593723,8.29948242 64.59375,9.124995 64.59375,10.125 L64.59375,12.484375 C64.59375,13.4947967 64.890622,14.3268196 65.484375,14.9804688 C66.078128,15.6341179 66.8333287,15.9609375 67.75,15.9609375 C68.3958366,15.9609375 68.9244771,15.8750009 69.3359375,15.703125 C69.7473979,15.5312491 70.0416658,15.3359386 70.21875,15.1171875 L70.21875,12.53125 L67.7265625,12.53125 L67.7265625,11.3203125 L71.7578125,11.3203125 L71.7578125,15.4921875 Z M84.5625,14.0703125 L79.796875,14.0703125 L78.71875,17 L77.1484375,17 L81.546875,5.625 L82.8671875,5.625 L87.1953125,17 L85.625,17 L84.5625,14.0703125 Z M80.2734375,12.78125 L84.1015625,12.78125 L82.2265625,7.6015625 L82.1796875,7.6015625 L80.2734375,12.78125 Z M90.296875,15.796875 L95.6796875,15.796875 L95.6796875,17 L88.7578125,17 L88.7578125,5.625 L90.296875,5.625 L90.296875,15.796875 Z M104.148438,11.7265625 L98.9375,11.7265625 L98.9375,15.796875 L104.945312,15.796875 L104.945312,17 L97.3984375,17 L97.3984375,5.625 L104.859375,5.625 L104.859375,6.8359375 L98.9375,6.8359375 L98.9375,10.515625 L104.148438,10.515625 L104.148438,11.7265625 Z M108.289062,12.0703125 L108.289062,17 L106.75,17 L106.75,5.6328125 L110.867188,5.6328125 C112.111985,5.6328125 113.062497,5.90885141 113.71875,6.4609375 C114.375003,7.01302359 114.703125,7.81509891 114.703125,8.8671875 C114.703125,9.45052375 114.550783,9.95833117 114.246094,10.390625 C113.941405,10.8229188 113.497399,11.1666654 112.914062,11.421875 C113.539066,11.625001 113.98828,11.9544248 114.261719,12.4101562 C114.535158,12.8658877 114.671875,13.4296841 114.671875,14.1015625 L114.671875,15.171875 C114.671875,15.5260434 114.710937,15.8437486 114.789062,16.125 C114.867188,16.4062514 115.002603,16.6354158 115.195312,16.8125 L115.195312,17 L113.609375,17 C113.406249,16.8229158 113.276042,16.5625017 113.21875,16.21875 C113.161458,15.8749983 113.132812,15.5208352 113.132812,15.15625 L113.132812,14.1171875 C113.132812,13.5026011 112.953127,13.0078144 112.59375,12.6328125 C112.234373,12.2578106 111.752607,12.0703125 111.148438,12.0703125 L108.289062,12.0703125 Z M108.289062,10.859375 L110.710938,10.859375 C111.580734,10.859375 112.207029,10.6940121 112.589844,10.3632812 C112.972658,10.0325504 113.164062,9.52864922 113.164062,8.8515625 C113.164062,8.2109343 112.977866,7.71484551 112.605469,7.36328125 C112.233071,7.01171699 111.65365,6.8359375 110.867188,6.8359375 L108.289062,6.8359375 L108.289062,10.859375 Z M124.664063,6.8359375 L121.007813,6.8359375 L121.007813,17 L119.46875,17 L119.46875,6.8359375 L115.820313,6.8359375 L115.820313,5.625 L124.664063,5.625 L124.664063,6.8359375 Z M130.3125,17 L130.3125,5.625 L134.023438,5.625 C135.210943,5.625 136.140622,5.88150785 136.8125,6.39453125 C137.484378,6.90755465 137.820312,7.6770782 137.820312,8.703125 C137.820312,9.20833586 137.658856,9.66015426 137.335938,10.0585938 C137.013019,10.4570332 136.588544,10.7526032 136.0625,10.9453125 C136.750003,11.0911466 137.290363,11.4270807 137.683594,11.953125 C138.076825,12.4791693 138.273438,13.0911423 138.273438,13.7890625 C138.273438,14.8307344 137.936201,15.6262993 137.261719,16.1757812 C136.587236,16.7252632 135.671881,17 134.515625,17 L130.3125,17 Z M131.851562,11.6640625 L131.851562,15.796875 L134.515625,15.796875 C135.213545,15.796875 135.757811,15.6236996 136.148438,15.2773438 C136.539064,14.9309879 136.734375,14.4401073 136.734375,13.8046875 C136.734375,13.1380175 136.571616,12.6145852 136.246094,12.234375 C135.920571,11.8541648 135.419274,11.6640625 134.742188,11.6640625 L131.851562,11.6640625 Z M131.851562,10.4609375 L134.34375,10.4609375 C134.91667,10.4609375 135.382811,10.303387 135.742188,9.98828125 C136.101564,9.67317551 136.28125,9.23437781 136.28125,8.671875 C136.28125,8.05728859 136.087242,7.59765777 135.699219,7.29296875 C135.311196,6.98827973 134.752608,6.8359375 134.023438,6.8359375 L131.851562,6.8359375 L131.851562,10.4609375 Z M146.703125,14.0703125 L141.9375,14.0703125 L140.859375,17 L139.289062,17 L143.6875,5.625 L145.007812,5.625 L149.335938,17 L147.765625,17 L146.703125,14.0703125 Z M142.414062,12.78125 L146.242188,12.78125 L144.367188,7.6015625 L144.320312,7.6015625 L142.414062,12.78125 Z M152.4375,12.0703125 L152.4375,17 L150.898438,17 L150.898438,5.6328125 L155.015625,5.6328125 C156.260423,5.6328125 157.210934,5.90885141 157.867188,6.4609375 C158.523441,7.01302359 158.851562,7.81509891 158.851562,8.8671875 C158.851562,9.45052375 158.69922,9.95833117 158.394531,10.390625 C158.089842,10.8229188 157.645836,11.1666654 157.0625,11.421875 C157.687503,11.625001 158.136717,11.9544248 158.410156,12.4101562 C158.683595,12.8658877 158.820312,13.4296841 158.820312,14.1015625 L158.820312,15.171875 C158.820312,15.5260434 158.859375,15.8437486 158.9375,16.125 C159.015625,16.4062514 159.151041,16.6354158 159.34375,16.8125 L159.34375,17 L157.757812,17 C157.554686,16.8229158 157.424479,16.5625017 157.367188,16.21875 C157.309896,15.8749983 157.28125,15.5208352 157.28125,15.15625 L157.28125,14.1171875 C157.28125,13.5026011 157.101564,13.0078144 156.742188,12.6328125 C156.382811,12.2578106 155.901045,12.0703125 155.296875,12.0703125 L152.4375,12.0703125 Z M152.4375,10.859375 L154.859375,10.859375 C155.729171,10.859375 156.355467,10.6940121 156.738281,10.3632812 C157.121096,10.0325504 157.3125,9.52864922 157.3125,8.8515625 C157.3125,8.2109343 157.126304,7.71484551 156.753906,7.36328125 C156.381509,7.01171699 155.802087,6.8359375 155.015625,6.8359375 L152.4375,6.8359375 L152.4375,10.859375 Z"></path>
            </g>
            <g transform="translate(276.000000, 331.000000)" fill="#000000">
                <path d="M3.03125,17 L1.484375,17 L1.484375,5.625 L3.03125,5.625 L3.03125,17 Z M14.53125,17 L12.9921875,17 L7.515625,8.203125 L7.46875,8.21875 L7.46875,17 L5.9296875,17 L5.9296875,5.625 L7.46875,5.625 L12.9453125,14.40625 L12.9921875,14.390625 L12.9921875,5.625 L14.53125,5.625 L14.53125,17 Z M24.0703125,11.96875 L18.8828125,11.96875 L18.8828125,17 L17.34375,17 L17.34375,5.625 L24.8671875,5.625 L24.8671875,6.8359375 L18.8828125,6.8359375 L18.8828125,10.7578125 L24.0703125,10.7578125 L24.0703125,11.96875 Z M35.2734375,12.328125 C35.2734375,13.718757 34.8424522,14.8723912 33.9804688,15.7890625 C33.1184853,16.7057338 32.0000069,17.1640625 30.625,17.1640625 C29.2968684,17.1640625 28.2174521,16.7057338 27.3867188,15.7890625 C26.5559854,14.8723912 26.140625,13.718757 26.140625,12.328125 L26.140625,10.3046875 C26.140625,8.91926391 26.5559854,7.76562961 27.3867188,6.84375 C28.2174521,5.92187039 29.2968684,5.4609375 30.625,5.4609375 C32.0000069,5.4609375 33.1184853,5.92056832 33.9804688,6.83984375 C34.8424522,7.75911918 35.2734375,8.91405555 35.2734375,10.3046875 L35.2734375,12.328125 Z M33.734375,10.2890625 C33.734375,9.24739063 33.4531278,8.3932325 32.890625,7.7265625 C32.3281222,7.0598925 31.5729214,6.7265625 30.625,6.7265625 C29.7291622,6.7265625 29.0143256,7.0598925 28.4804688,7.7265625 C27.9466119,8.3932325 27.6796875,9.24739063 27.6796875,10.2890625 L27.6796875,12.328125 C27.6796875,13.3802136 27.9466119,14.23958 28.4804688,14.90625 C29.0143256,15.57292 29.7291622,15.90625 30.625,15.90625 C31.5781298,15.90625 32.3346326,15.5742221 32.8945312,14.9101562 C33.4544299,14.2460904 33.734375,13.385422 33.734375,12.328125 L33.734375,10.2890625 Z M47.7109375,14.0703125 L42.9453125,14.0703125 L41.8671875,17 L40.296875,17 L44.6953125,5.625 L46.015625,5.625 L50.34375,17 L48.7734375,17 L47.7109375,14.0703125 Z M43.421875,12.78125 L47.25,12.78125 L45.375,7.6015625 L45.328125,7.6015625 L43.421875,12.78125 Z M53.4453125,15.796875 L58.828125,15.796875 L58.828125,17 L51.90625,17 L51.90625,5.625 L53.4453125,5.625 L53.4453125,15.796875 Z M67.296875,11.7265625 L62.0859375,11.7265625 L62.0859375,15.796875 L68.09375,15.796875 L68.09375,17 L60.546875,17 L60.546875,5.625 L68.0078125,5.625 L68.0078125,6.8359375 L62.0859375,6.8359375 L62.0859375,10.515625 L67.296875,10.515625 L67.296875,11.7265625 Z M71.4375,12.0703125 L71.4375,17 L69.8984375,17 L69.8984375,5.6328125 L74.015625,5.6328125 C75.2604229,5.6328125 76.2109342,5.90885141 76.8671875,6.4609375 C77.5234408,7.01302359 77.8515625,7.81509891 77.8515625,8.8671875 C77.8515625,9.45052375 77.6992203,9.95833117 77.3945312,10.390625 C77.0898422,10.8229188 76.6458363,11.1666654 76.0625,11.421875 C76.6875031,11.625001 77.1367174,11.9544248 77.4101562,12.4101562 C77.6835951,12.8658877 77.8203125,13.4296841 77.8203125,14.1015625 L77.8203125,15.171875 C77.8203125,15.5260434 77.8593746,15.8437486 77.9375,16.125 C78.0156254,16.4062514 78.1510407,16.6354158 78.34375,16.8125 L78.34375,17 L76.7578125,17 C76.5546865,16.8229158 76.4244795,16.5625017 76.3671875,16.21875 C76.3098955,15.8749983 76.28125,15.5208352 76.28125,15.15625 L76.28125,14.1171875 C76.28125,13.5026011 76.1015643,13.0078144 75.7421875,12.6328125 C75.3828107,12.2578106 74.9010447,12.0703125 74.296875,12.0703125 L71.4375,12.0703125 Z M71.4375,10.859375 L73.859375,10.859375 C74.729171,10.859375 75.3554668,10.6940121 75.7382812,10.3632812 C76.1210957,10.0325504 76.3125,9.52864922 76.3125,8.8515625 C76.3125,8.2109343 76.1263039,7.71484551 75.7539062,7.36328125 C75.3815086,7.01171699 74.8020873,6.8359375 74.015625,6.8359375 L71.4375,6.8359375 L71.4375,10.859375 Z M87.8125,6.8359375 L84.15625,6.8359375 L84.15625,17 L82.6171875,17 L82.6171875,6.8359375 L78.96875,6.8359375 L78.96875,5.625 L87.8125,5.625 L87.8125,6.8359375 Z M93.4609375,17 L93.4609375,5.625 L97.171875,5.625 C98.3593809,5.625 99.2890591,5.88150785 99.9609375,6.39453125 C100.632816,6.90755465 100.96875,7.6770782 100.96875,8.703125 C100.96875,9.20833586 100.807293,9.66015426 100.484375,10.0585938 C100.161457,10.4570332 99.7369818,10.7526032 99.2109375,10.9453125 C99.8984409,11.0911466 100.4388,11.4270807 100.832031,11.953125 C101.225262,12.4791693 101.421875,13.0911423 101.421875,13.7890625 C101.421875,14.8307344 101.084639,15.6262993 100.410156,16.1757812 C99.7356737,16.7252632 98.8203183,17 97.6640625,17 L93.4609375,17 Z M95,11.6640625 L95,15.796875 L97.6640625,15.796875 C98.3619827,15.796875 98.906248,15.6236996 99.296875,15.2773438 C99.687502,14.9309879 99.8828125,14.4401073 99.8828125,13.8046875 C99.8828125,13.1380175 99.7200537,12.6145852 99.3945312,12.234375 C99.0690088,11.8541648 98.5677117,11.6640625 97.890625,11.6640625 L95,11.6640625 Z M95,10.4609375 L97.4921875,10.4609375 C98.065107,10.4609375 98.5312482,10.303387 98.890625,9.98828125 C99.2500018,9.67317551 99.4296875,9.23437781 99.4296875,8.671875 C99.4296875,8.05728859 99.235679,7.59765777 98.8476562,7.29296875 C98.4596335,6.98827973 97.9010453,6.8359375 97.171875,6.8359375 L95,6.8359375 L95,10.4609375 Z M109.851562,14.0703125 L105.085938,14.0703125 L104.007812,17 L102.4375,17 L106.835938,5.625 L108.15625,5.625 L112.484375,17 L110.914062,17 L109.851562,14.0703125 Z M105.5625,12.78125 L109.390625,12.78125 L107.515625,7.6015625 L107.46875,7.6015625 L105.5625,12.78125 Z M115.585938,12.0703125 L115.585938,17 L114.046875,17 L114.046875,5.6328125 L118.164062,5.6328125 C119.40886,5.6328125 120.359372,5.90885141 121.015625,6.4609375 C121.671878,7.01302359 122,7.81509891 122,8.8671875 C122,9.45052375 121.847658,9.95833117 121.542969,10.390625 C121.23828,10.8229188 120.794274,11.1666654 120.210938,11.421875 C120.835941,11.625001 121.285155,11.9544248 121.558594,12.4101562 C121.832033,12.8658877 121.96875,13.4296841 121.96875,14.1015625 L121.96875,15.171875 C121.96875,15.5260434 122.007812,15.8437486 122.085938,16.125 C122.164063,16.4062514 122.299478,16.6354158 122.492188,16.8125 L122.492188,17 L120.90625,17 C120.703124,16.8229158 120.572917,16.5625017 120.515625,16.21875 C120.458333,15.8749983 120.429688,15.5208352 120.429688,15.15625 L120.429688,14.1171875 C120.429688,13.5026011 120.250002,13.0078144 119.890625,12.6328125 C119.531248,12.2578106 119.049482,12.0703125 118.445312,12.0703125 L115.585938,12.0703125 Z M115.585937,10.859375 L118.007812,10.859375 C118.877609,10.859375 119.503904,10.6940121 119.886719,10.3632812 C120.269533,10.0325504 120.460937,9.52864922 120.460937,8.8515625 C120.460937,8.2109343 120.274741,7.71484551 119.902344,7.36328125 C119.529946,7.01171699 118.950525,6.8359375 118.164062,6.8359375 L115.585937,6.8359375 L115.585937,10.859375 Z"></path>
            </g>
        </g>
    </g>
</svg>