<?xml version="1.0" encoding="UTF-8" standalone="no"?>
<svg width="614px" height="390px" viewBox="0 0 614 390" version="1.1" xmlns="http://www.w3.org/2000/svg" xmlns:xlink="http://www.w3.org/1999/xlink">
    <!-- Generator: Sketch 46.2 (44496) - http://www.bohemiancoding.com/sketch -->
    <title>alert-bar-default</title>
    <desc>Created with Sketch.</desc>
    <defs></defs>
    <g stroke="none" stroke-width="1" fill="none" fill-rule="evenodd">
        <g transform="translate(-359.000000, -386.000000)">
            <g transform="translate(359.000000, 386.000000)">
                <g>
                    <polygon fill="#FAFAFA" points="0 389.125208 612.42037 389.125208 612.42037 0 0 0"></polygon>
                    <polygon fill="#222222" points="0.860140969 387.895625 123.159744 387.895625 123.159744 1.22416667 0.860140969 1.22416667"></polygon>
                    <polygon fill="#000000" points="1.18742731 26.2383333 613.018141 26.2383333 613.018141 0.993958333 1.18742731 0.993958333"></polygon>
                </g>
                <polygon fill="#D32F2F" points="144 60 590 60 590 37 144 37"></polygon>
                <polygon fill="#EAEAEA" points="144 96 468 96 468 75 144 75"></polygon>
                <polygon fill="#EAEAEA" points="285 199 468 199 468 117 285 117"></polygon>
                <polygon fill="#EAEAEA" points="285 334 468 334 468 252 285 252"></polygon>
                <polygon fill="#EAEAEA" points="144 237 468 237 468 216 144 216"></polygon>
                <polygon fill="#EAEAEA" points="164 126 219 126 219 117 164 117"></polygon>
                <polygon fill="#EAEAEA" points="164 261 219 261 219 252 164 252"></polygon>
                <rect fill="#E0E0E0" x="488" y="73" width="124" height="317"></rect>
                <polygon fill="#EAEAEA" points="164 170 219 170 219 161 164 161"></polygon>
                <polygon fill="#EAEAEA" points="164 305 219 305 219 296 164 296"></polygon>
                <polygon fill="#EAEAEA" points="164 140 219 140 219 131 164 131"></polygon>
                <polygon fill="#EAEAEA" points="164 275 219 275 219 266 164 266"></polygon>
                <polygon fill="#EAEAEA" points="164 184 219 184 219 175 164 175"></polygon>
                <polygon fill="#EAEAEA" points="164 319 219 319 219 310 164 310"></polygon>
                <polygon fill="#EAEAEA" points="164 155 219 155 219 146 164 146"></polygon>
                <polygon fill="#EAEAEA" points="164 290 219 290 219 281 164 281"></polygon>
                <polygon fill="#EAEAEA" points="164 199 219 199 219 190 164 190"></polygon>
                <polygon fill="#EAEAEA" points="164 334 219 334 219 325 164 325"></polygon>
                <polygon fill="#EAEAEA" points="223 126 278 126 278 117 223 117"></polygon>
                <polygon fill="#EAEAEA" points="223 261 278 261 278 252 223 252"></polygon>
                <polygon fill="#EAEAEA" points="223 170 278 170 278 161 223 161"></polygon>
                <polygon fill="#EAEAEA" points="223 305 278 305 278 296 223 296"></polygon>
                <polygon fill="#EAEAEA" points="223 140 278 140 278 131 223 131"></polygon>
                <polygon fill="#EAEAEA" points="223 275 278 275 278 266 223 266"></polygon>
                <polygon fill="#EAEAEA" points="223 184 278 184 278 175 223 175"></polygon>
                <polygon fill="#EAEAEA" points="223 319 278 319 278 310 223 310"></polygon>
                <polygon fill="#EAEAEA" points="223 155 278 155 278 146 223 146"></polygon>
                <polygon fill="#EAEAEA" points="223 290 278 290 278 281 223 281"></polygon>
                <polygon fill="#EAEAEA" points="223 199 278 199 278 190 223 190"></polygon>
                <polygon fill="#EAEAEA" points="223 334 278 334 278 325 223 325"></polygon>
            </g>
        </g>
    </g>
</svg>