<?xml version="1.0" encoding="UTF-8" standalone="no"?>
<svg width="584px" height="152px" viewBox="0 0 584 152" version="1.1" xmlns="http://www.w3.org/2000/svg" xmlns:xlink="http://www.w3.org/1999/xlink">
    <!-- Generator: Sketch 46.2 (44496) - http://www.bohemiancoding.com/sketch -->
    <title>alert-bar-composition</title>
    <desc>Created with Sketch.</desc>
    <defs>
        <polygon id="path-1" points="7.61453333 15.2291556 0 15.2291556 0 -0.000177777778 7.61453333 -0.000177777778 15.2290667 -0.000177777778 15.2290667 15.2291556"></polygon>
        <polygon id="path-3" points="7 3.5 0 7 0 0"></polygon>
        <circle id="path-4" cx="3.5" cy="3.5" r="3.5"></circle>
        <polygon id="path-5" points="7 3.5 0 7 0 0"></polygon>
        <circle id="path-6" cx="3.5" cy="3.5" r="3.5"></circle>
        <polygon id="path-7" points="7 3.5 0 7 0 0"></polygon>
        <circle id="path-8" cx="3.5" cy="3.5" r="3.5"></circle>
        <polygon id="path-9" points="7 3.5 0 7 0 0"></polygon>
        <circle id="path-10" cx="3.5" cy="3.5" r="3.5"></circle>
        <polygon id="path-11" points="7 3.5 0 7 0 0"></polygon>
        <circle id="path-12" cx="3.5" cy="3.5" r="3.5"></circle>
        <polygon id="path-13" points="7 3.5 0 7 0 0"></polygon>
        <circle id="path-14" cx="3.5" cy="3.5" r="3.5"></circle>
    </defs>
    <g stroke="none" stroke-width="1" fill="none" fill-rule="evenodd">
        <g transform="translate(-391.000000, -988.000000)">
            <g transform="translate(391.000000, 984.000000)">
                <text font-family="Roboto-Regular, Roboto" font-size="14" font-weight="normal" fill="#EC407A">
                    <tspan x="0" y="15">Status Icon</tspan>
                </text>
                <text font-family="Roboto-Regular, Roboto" font-size="14" font-weight="normal" fill="#EC407A">
                    <tspan x="329" y="15">Alert Bar</tspan>
                </text>
                <text font-family="Roboto-Regular, Roboto" font-size="14" font-weight="normal" fill="#EC407A">
                    <tspan x="453" y="153">Action Link</tspan>
                </text>
                <text font-family="Roboto-Regular, Roboto" font-size="14" font-weight="normal" fill="#EC407A">
                    <tspan x="161" y="153">Alert Description</tspan>
                </text>
                <text font-family="Roboto-Regular, Roboto" font-size="14" font-weight="normal" fill="#EC407A">
                    <tspan x="47" y="153">Alert Type</tspan>
                </text>
                <text font-family="Roboto-Regular, Roboto" font-size="14" font-weight="normal" fill="#EC407A">
                    <tspan x="543" y="15">Close</tspan>
                </text>
                <polygon fill="#DDDDDD" points="0 102 583.171875 102 583.171875 54 0 54"></polygon>
                <text font-family="Roboto-Medium, Roboto" font-size="16" font-weight="400" fill="#000000">
                    <tspan x="50" y="85">STATUS: </tspan>
                    <tspan x="117.3125" y="85" font-family="Roboto-Light, Roboto" font-weight="300">Alert message goes here </tspan>
                </text>
                <text font-family="Roboto-Medium, Roboto" font-size="16" font-weight="400" fill="#000000">
                    <tspan x="440" y="85">ACTION LINK</tspan>
                </text>
                <g transform="translate(19.000000, 71.000000)">
                    <mask id="mask-2" fill="white">
                        <use xlink:href="#path-1"></use>
                    </mask>
                    <g></g>
                    <path d="M6.34551111,4.74915556 C6.34551111,4.92782222 6.48417778,5.07626667 6.65306667,5.07626667 L8.55617778,5.07626667 C8.73484444,5.07626667 8.88328889,4.92782222 8.88328889,4.74915556 L8.88328889,2.8656 C8.88328889,2.68693333 8.73484444,2.53848889 8.55617778,2.53848889 L6.65306667,2.53848889 C6.48417778,2.53848889 6.34551111,2.68693333 6.34551111,2.8656 L6.34551111,4.74915556 Z M6.1864,12.4336 C6.1864,12.5029333 6.21662222,12.5722667 6.28595556,12.6122667 C6.34551111,12.6611556 6.43528889,12.6913778 6.52417778,12.6913778 L8.70462222,12.6913778 C8.7944,12.6913778 8.88328889,12.6611556 8.94373333,12.6122667 C9.01217778,12.5722667 9.0424,12.5029333 9.0424,12.4336 L8.8744,6.27626667 C8.8744,6.1376 8.72506667,6.02737778 8.53662222,6.02737778 L6.70195556,6.02737778 C6.52417778,6.02737778 6.37484444,6.1376 6.36506667,6.27626667 L6.1864,12.4336 Z M-0.000266666667,7.61493333 C-0.000266666667,3.41048889 3.4104,-0.000177777778 7.61484444,-0.000177777778 C11.8184,-0.000177777778 15.2290667,3.41048889 15.2290667,7.61493333 C15.2290667,11.8184889 11.8184,15.2291556 7.61484444,15.2291556 C3.4104,15.2291556 -0.000266666667,11.8184889 -0.000266666667,7.61493333 L-0.000266666667,7.61493333 Z" fill="#424242" mask="url(#mask-2)"></path>
                </g>
                <text font-family="FontAwesome" font-size="16" font-weight="normal" fill="#000000">
                    <tspan x="554" y="85"></tspan>
                </text>
                <g transform="translate(353.000000, 38.500000) rotate(-270.000000) translate(-353.000000, -38.500000) translate(333.000000, 35.000000)">
                    <path d="M3.5,6.5 L3.5,5 C3.5,4.17157288 4.17120383,3.5 5.00104195,3.5 L39.5,3.5" stroke="#EC407A" stroke-width="1"></path>
                    <g transform="translate(33.000000, 0.000000)">
                        <g>
                            <use fill="#FFFFFF" fill-rule="evenodd" xlink:href="#path-3"></use>
                            <path stroke="#EC407A" stroke-width="1" d="M5.88196601,3.5 L0.5,0.809016994 L0.5,6.19098301 L5.88196601,3.5 Z"></path>
                        </g>
                    </g>
                    <g>
                        <g>
                            <use fill="#FFFFFF" fill-rule="evenodd" xlink:href="#path-4"></use>
                            <circle stroke="#EC407A" stroke-width="1" cx="3.5" cy="3.5" r="3"></circle>
                        </g>
                    </g>
                </g>
                <g transform="translate(26.500000, 44.000000) rotate(-270.000000) translate(-26.500000, -44.000000) translate(1.500000, 40.500000)">
                    <path d="M3.5,6.5 L3.5,5 C3.5,4.17157288 4.16800237,3.5 5.00434962,3.5 L49.5,3.5" stroke="#EC407A" stroke-width="1"></path>
                    <g transform="translate(43.000000, 0.000000)">
                        <g>
                            <use fill="#FFFFFF" fill-rule="evenodd" xlink:href="#path-5"></use>
                            <path stroke="#EC407A" stroke-width="1" d="M5.88196601,3.5 L0.5,0.809016994 L0.5,6.19098301 L5.88196601,3.5 Z"></path>
                        </g>
                    </g>
                    <g>
                        <g>
                            <use fill="#FFFFFF" fill-rule="evenodd" xlink:href="#path-6"></use>
                            <circle stroke="#EC407A" stroke-width="1" cx="3.5" cy="3.5" r="3"></circle>
                        </g>
                    </g>
                </g>
                <g transform="translate(79.500000, 114.000000) rotate(-90.000000) translate(-79.500000, -114.000000) translate(54.500000, 110.500000)">
                    <path d="M3.5,6.5 L3.5,5 C3.5,4.17157288 4.16800237,3.5 5.00434962,3.5 L49.5,3.5" stroke="#EC407A" stroke-width="1"></path>
                    <g transform="translate(43.000000, 0.000000)">
                        <g>
                            <use fill="#FFFFFF" fill-rule="evenodd" xlink:href="#path-7"></use>
                            <path stroke="#EC407A" stroke-width="1" d="M5.88196601,3.5 L0.5,0.809016994 L0.5,6.19098301 L5.88196601,3.5 Z"></path>
                        </g>
                    </g>
                    <g>
                        <g>
                            <use fill="#FFFFFF" fill-rule="evenodd" xlink:href="#path-8"></use>
                            <circle stroke="#EC407A" stroke-width="1" cx="3.5" cy="3.5" r="3"></circle>
                        </g>
                    </g>
                </g>
                <g transform="translate(210.500000, 114.000000) rotate(-90.000000) translate(-210.500000, -114.000000) translate(185.500000, 110.500000)">
                    <path d="M3.5,6.5 L3.5,5 C3.5,4.17157288 4.16800237,3.5 5.00434962,3.5 L49.5,3.5" stroke="#EC407A" stroke-width="1"></path>
                    <g transform="translate(43.000000, 0.000000)">
                        <g>
                            <use fill="#FFFFFF" fill-rule="evenodd" xlink:href="#path-9"></use>
                            <path stroke="#EC407A" stroke-width="1" d="M5.88196601,3.5 L0.5,0.809016994 L0.5,6.19098301 L5.88196601,3.5 Z"></path>
                        </g>
                    </g>
                    <g>
                        <g>
                            <use fill="#FFFFFF" fill-rule="evenodd" xlink:href="#path-10"></use>
                            <circle stroke="#EC407A" stroke-width="1" cx="3.5" cy="3.5" r="3"></circle>
                        </g>
                    </g>
                </g>
                <g transform="translate(489.500000, 114.000000) rotate(-90.000000) translate(-489.500000, -114.000000) translate(464.500000, 110.500000)">
                    <path d="M3.5,6.5 L3.5,5 C3.5,4.17157288 4.16800237,3.5 5.00434962,3.5 L49.5,3.5" stroke="#EC407A" stroke-width="1"></path>
                    <g transform="translate(43.000000, 0.000000)">
                        <g>
                            <use fill="#FFFFFF" fill-rule="evenodd" xlink:href="#path-11"></use>
                            <path stroke="#EC407A" stroke-width="1" d="M5.88196601,3.5 L0.5,0.809016994 L0.5,6.19098301 L5.88196601,3.5 Z"></path>
                        </g>
                    </g>
                    <g>
                        <g>
                            <use fill="#FFFFFF" fill-rule="evenodd" xlink:href="#path-12"></use>
                            <circle stroke="#EC407A" stroke-width="1" cx="3.5" cy="3.5" r="3"></circle>
                        </g>
                    </g>
                </g>
                <g transform="translate(560.500000, 44.000000) rotate(-270.000000) translate(-560.500000, -44.000000) translate(535.500000, 40.500000)">
                    <path d="M3.5,6.5 L3.5,5 C3.5,4.17157288 4.16800237,3.5 5.00434962,3.5 L49.5,3.5" stroke="#EC407A" stroke-width="1"></path>
                    <g transform="translate(43.000000, 0.000000)">
                        <g>
                            <use fill="#FFFFFF" fill-rule="evenodd" xlink:href="#path-13"></use>
                            <path stroke="#EC407A" stroke-width="1" d="M5.88196601,3.5 L0.5,0.809016994 L0.5,6.19098301 L5.88196601,3.5 Z"></path>
                        </g>
                    </g>
                    <g>
                        <g>
                            <use fill="#FFFFFF" fill-rule="evenodd" xlink:href="#path-14"></use>
                            <circle stroke="#EC407A" stroke-width="1" cx="3.5" cy="3.5" r="3"></circle>
                        </g>
                    </g>
                </g>
            </g>
        </g>
    </g>
</svg>