<?xml version="1.0" encoding="UTF-8" standalone="no"?>
<svg width="584px" height="145px" viewBox="0 0 584 145" version="1.1" xmlns="http://www.w3.org/2000/svg" xmlns:xlink="http://www.w3.org/1999/xlink">
    <!-- Generator: Sketch 46.2 (44496) - http://www.bohemiancoding.com/sketch -->
    <title>alert-bar-composition</title>
    <desc>Created with Sketch.</desc>
    <defs>
        <polygon id="path-1" points="7.61453333 15.2291556 0 15.2291556 0 -0.000177777778 7.61453333 -0.000177777778 15.2290667 -0.000177777778 15.2290667 15.2291556"></polygon>
    </defs>
    <g stroke="none" stroke-width="1" fill="none" fill-rule="evenodd">
        <g transform="translate(0.000000, -4.000000)">
            <g transform="translate(305.000000, 8.000000)">
                <g fill-opacity="0.2" fill="#EC407A">
                    <circle cx="5" cy="5" r="5"></circle>
                </g>
                <circle stroke="#EC407A" cx="5" cy="5" r="4.5"></circle>
            </g>
            <g transform="translate(10.000000, 0.000000)" fill="#EC407A">
                <path d="M7.6015625,14.1328125 C7.6015625,13.6119766 7.40625195,13.175783 7.015625,12.8242188 C6.62499805,12.4726545 5.93229664,12.1770845 4.9375,11.9375 C3.73436898,11.6510402 2.79557629,11.2291695 2.12109375,10.671875 C1.44661121,10.1145805 1.109375,9.41406672 1.109375,8.5703125 C1.109375,7.68489141 1.47265262,6.94531547 2.19921875,6.3515625 C2.92578488,5.75780953 3.86718172,5.4609375 5.0234375,5.4609375 C6.26823539,5.4609375 7.2591109,5.80207992 7.99609375,6.484375 C8.7330766,7.16667008 9.0885418,7.95832883 9.0625,8.859375 L9.046875,8.90625 L7.578125,8.90625 C7.578125,8.23958 7.35807512,7.70052289 6.91796875,7.2890625 C6.47786238,6.87760211 5.84635828,6.671875 5.0234375,6.671875 C4.25780867,6.671875 3.67057496,6.84505035 3.26171875,7.19140625 C2.85286254,7.53776215 2.6484375,7.98958055 2.6484375,8.546875 C2.6484375,9.04166914 2.86978945,9.45442543 3.3125,9.78515625 C3.75521055,10.1158871 4.47395336,10.4062487 5.46875,10.65625 C6.66667266,10.9531265 7.57812188,11.3906221 8.203125,11.96875 C8.82812812,12.5468779 9.140625,13.2630166 9.140625,14.1171875 C9.140625,15.0338588 8.76562875,15.7708305 8.015625,16.328125 C7.26562125,16.8854195 6.28646437,17.1640625 5.078125,17.1640625 C3.94270266,17.1640625 2.93880645,16.8567739 2.06640625,16.2421875 C1.19400605,15.6276011 0.770833203,14.8046927 0.796875,13.7734375 L0.8125,13.7265625 L2.28125,13.7265625 C2.28125,14.4557328 2.54947648,15.0104148 3.0859375,15.390625 C3.62239852,15.7708352 4.28645437,15.9609375 5.078125,15.9609375 C5.85417055,15.9609375 6.46874773,15.7968766 6.921875,15.46875 C7.37500227,15.1406234 7.6015625,14.6953153 7.6015625,14.1328125 Z M13.125,6.5078125 L13.125,8.546875 L14.7265625,8.546875 L14.7265625,9.6875 L13.125,9.6875 L13.125,14.8203125 C13.125,15.2161478 13.2070304,15.4947909 13.3710937,15.65625 C13.5351571,15.8177091 13.7526028,15.8984375 14.0234375,15.8984375 C14.1119796,15.8984375 14.2096349,15.8880209 14.3164062,15.8671875 C14.4231776,15.8463541 14.5182287,15.8203127 14.6015625,15.7890625 L14.8046875,16.84375 C14.6901036,16.9375005 14.5221365,17.0143226 14.3007812,17.0742188 C14.079426,17.1341149 13.856772,17.1640625 13.6328125,17.1640625 C13.0078094,17.1640625 12.5104185,16.9752623 12.140625,16.5976562 C11.7708315,16.2200502 11.5859375,15.6276082 11.5859375,14.8203125 L11.5859375,9.6875 L10.2421875,9.6875 L10.2421875,8.546875 L11.5859375,8.546875 L11.5859375,6.5078125 L13.125,6.5078125 Z M21.8203125,17 C21.7682289,16.7447904 21.7278647,16.5195322 21.6992187,16.3242188 C21.6705728,16.1289053 21.6536459,15.9322927 21.6484375,15.734375 C21.3619777,16.140627 20.9882836,16.4804674 20.5273437,16.7539062 C20.0664039,17.0273451 19.5703152,17.1640625 19.0390625,17.1640625 C18.1588498,17.1640625 17.4882836,16.9388043 17.0273437,16.4882812 C16.5664039,16.0377582 16.3359375,15.4166706 16.3359375,14.625 C16.3359375,13.8177043 16.6627571,13.1862002 17.3164062,12.7304688 C17.9700554,12.2747373 18.8567652,12.046875 19.9765625,12.046875 L21.6484375,12.046875 L21.6484375,11.2109375 C21.6484375,10.7161434 21.4973973,10.3242202 21.1953125,10.0351562 C20.8932277,9.7460923 20.4661486,9.6015625 19.9140625,9.6015625 C19.4192684,9.6015625 19.0169286,9.72786332 18.7070312,9.98046875 C18.3971339,10.2330742 18.2421875,10.5364566 18.2421875,10.890625 L16.7734375,10.890625 L16.7578125,10.84375 C16.7265623,10.2291636 17.016924,9.66666922 17.6289062,9.15625 C18.2408885,8.64583078 19.0312452,8.390625 20,8.390625 C20.9583381,8.390625 21.7291637,8.63411215 22.3125,9.12109375 C22.8958362,9.60807535 23.1875,10.3098912 23.1875,11.2265625 L23.1875,15.296875 C23.1875,15.5989598 23.2031248,15.8906236 23.234375,16.171875 C23.2656252,16.4531264 23.3229162,16.7291653 23.40625,17 L21.8203125,17 Z M19.265625,15.875 C19.8229195,15.875 20.3255186,15.7317723 20.7734375,15.4453125 C21.2213564,15.1588527 21.5130202,14.830731 21.6484375,14.4609375 L21.6484375,13.0859375 L19.921875,13.0859375 C19.3020802,13.0859375 18.8059914,13.2421859 18.4335938,13.5546875 C18.0611961,13.8671891 17.875,14.2343729 17.875,14.65625 C17.875,15.0312519 17.9921863,15.3281239 18.2265625,15.546875 C18.4609387,15.7656261 18.8072894,15.875 19.265625,15.875 Z M27.453125,6.5078125 L27.453125,8.546875 L29.0546875,8.546875 L29.0546875,9.6875 L27.453125,9.6875 L27.453125,14.8203125 C27.453125,15.2161478 27.5351554,15.4947909 27.6992188,15.65625 C27.8632821,15.8177091 28.0807278,15.8984375 28.3515625,15.8984375 C28.4401046,15.8984375 28.5377599,15.8880209 28.6445312,15.8671875 C28.7513026,15.8463541 28.8463538,15.8203127 28.9296875,15.7890625 L29.1328125,16.84375 C29.0182286,16.9375005 28.8502615,17.0143226 28.6289062,17.0742188 C28.407551,17.1341149 28.184897,17.1640625 27.9609375,17.1640625 C27.3359344,17.1640625 26.8385435,16.9752623 26.46875,16.5976562 C26.0989565,16.2200502 25.9140625,15.6276082 25.9140625,14.8203125 L25.9140625,9.6875 L24.5703125,9.6875 L24.5703125,8.546875 L25.9140625,8.546875 L25.9140625,6.5078125 L27.453125,6.5078125 Z M36.3203125,15.75 C36.0546862,16.2031273 35.7135438,16.5520821 35.296875,16.796875 C34.8802063,17.0416679 34.3984402,17.1640625 33.8515625,17.1640625 C32.9296829,17.1640625 32.2109401,16.8697946 31.6953125,16.28125 C31.1796849,15.6927054 30.921875,14.7760479 30.921875,13.53125 L30.921875,8.546875 L32.4609375,8.546875 L32.4609375,13.546875 C32.4609375,14.4479212 32.5937487,15.0677066 32.859375,15.40625 C33.1250013,15.7447934 33.5390597,15.9140625 34.1015625,15.9140625 C34.6484402,15.9140625 35.1002586,15.8033865 35.4570313,15.5820312 C35.8138039,15.360676 36.0833324,15.046877 36.265625,14.640625 L36.265625,8.546875 L37.8046875,8.546875 L37.8046875,17 L36.421875,17 L36.3203125,15.75 Z M44.9609375,14.7578125 C44.9609375,14.4192691 44.8320325,14.1406261 44.5742188,13.921875 C44.316405,13.7031239 43.8281286,13.5130216 43.109375,13.3515625 C42.0833282,13.127603 41.3112005,12.8242207 40.7929688,12.4414062 C40.274737,12.0585918 40.015625,11.5364616 40.015625,10.875 C40.015625,10.1874966 40.3072887,9.60156492 40.890625,9.1171875 C41.4739613,8.63281008 42.2343703,8.390625 43.171875,8.390625 C44.1562549,8.390625 44.9387992,8.64322664 45.5195312,9.1484375 C46.1002633,9.65364836 46.3776043,10.2682255 46.3515625,10.9921875 L46.3359375,11.0390625 L44.8671875,11.0390625 C44.8671875,10.669269 44.7122411,10.3372411 44.4023438,10.0429688 C44.0924464,9.74869645 43.6822942,9.6015625 43.171875,9.6015625 C42.6249973,9.6015625 42.2187513,9.72135297 41.953125,9.9609375 C41.6874987,10.200522 41.5546875,10.4895816 41.5546875,10.828125 C41.5546875,11.16146 41.6718738,11.4244782 41.90625,11.6171875 C42.1406262,11.8098968 42.6171839,11.9817701 43.3359375,12.1328125 C44.4036512,12.3619803 45.1979141,12.6731751 45.71875,13.0664062 C46.2395859,13.4596374 46.5,13.9869759 46.5,14.6484375 C46.5,15.3984412 46.1966176,16.005206 45.5898438,16.46875 C44.9830699,16.932294 44.1901091,17.1640625 43.2109375,17.1640625 C42.1328071,17.1640625 41.2838573,16.8906277 40.6640625,16.34375 C40.0442677,15.7968723 39.7499998,15.1588578 39.78125,14.4296875 L39.796875,14.3828125 L41.265625,14.3828125 C41.2916668,14.9296902 41.4947898,15.3294258 41.875,15.5820312 C42.2552102,15.8346367 42.7005183,15.9609375 43.2109375,15.9609375 C43.7578152,15.9609375 44.1861964,15.8502615 44.4960938,15.6289062 C44.8059911,15.407551 44.9609375,15.1171893 44.9609375,14.7578125 Z M54.3046875,17 L52.7578125,17 L52.7578125,5.625 L54.3046875,5.625 L54.3046875,17 Z M60.3515625,15.9609375 C60.8619817,15.9609375 61.311196,15.803387 61.6992188,15.4882812 C62.0872415,15.1731755 62.28125,14.7864606 62.28125,14.328125 L63.6640625,14.328125 L63.6796875,14.375 C63.7057293,15.1041703 63.3815138,15.7512993 62.7070312,16.3164062 C62.0325487,16.8815132 61.2474003,17.1640625 60.3515625,17.1640625 C59.1223897,17.1640625 58.1822949,16.7630248 57.53125,15.9609375 C56.8802051,15.1588502 56.5546875,14.1510477 56.5546875,12.9375 L56.5546875,12.609375 C56.5546875,11.406244 56.8815071,10.4023478 57.5351562,9.59765625 C58.1888054,8.79296473 59.127598,8.390625 60.3515625,8.390625 C61.3411508,8.390625 62.1497364,8.68228875 62.7773438,9.265625 C63.4049511,9.84896125 63.7083334,10.5650999 63.6875,11.4140625 L63.671875,11.4609375 L62.28125,11.4609375 C62.28125,10.9453099 62.0989602,10.5065122 61.734375,10.1445312 C61.3697898,9.78255027 60.908857,9.6015625 60.3515625,9.6015625 C59.5442668,9.6015625 58.9674496,9.89192418 58.6210938,10.4726562 C58.2747379,11.0533883 58.1015625,11.7656208 58.1015625,12.609375 L58.1015625,12.9375 C58.1015625,13.8020877 58.2734358,14.5221325 58.6171875,15.0976562 C58.9609392,15.67318 59.5390584,15.9609375 60.3515625,15.9609375 Z M65.046875,12.6953125 C65.046875,11.4453062 65.3854133,10.4153686 66.0625,9.60546875 C66.7395867,8.79556887 67.6588484,8.390625 68.8203125,8.390625 C69.9921934,8.390625 70.9179654,8.7942668 71.5976562,9.6015625 C72.2773471,10.4088582 72.6171875,11.4400979 72.6171875,12.6953125 L72.6171875,12.8671875 C72.6171875,14.1276105 72.2786492,15.1588502 71.6015625,15.9609375 C70.9244758,16.7630248 70.00261,17.1640625 68.8359375,17.1640625 C67.669265,17.1640625 66.7460971,16.7617228 66.0664062,15.9570312 C65.3867154,15.1523397 65.046875,14.1224021 65.046875,12.8671875 L65.046875,12.6953125 Z M66.5859375,12.8671875 C66.5859375,13.7630253 66.7747377,14.5026012 67.1523438,15.0859375 C67.5299498,15.6692738 68.0911421,15.9609375 68.8359375,15.9609375 C69.5703162,15.9609375 70.1276023,15.6692738 70.5078125,15.0859375 C70.8880227,14.5026012 71.078125,13.7630253 71.078125,12.8671875 L71.078125,12.6953125 C71.078125,11.8098914 70.8867207,11.0729196 70.5039062,10.484375 C70.1210918,9.89583039 69.5598995,9.6015625 68.8203125,9.6015625 C68.0859338,9.6015625 67.5299498,9.89583039 67.1523438,10.484375 C66.7747377,11.0729196 66.5859375,11.8098914 66.5859375,12.6953125 L66.5859375,12.8671875 Z M75.875,8.546875 L75.984375,9.8046875 C76.2656264,9.35676859 76.6184875,9.00911582 77.0429688,8.76171875 C77.46745,8.51432168 77.9505181,8.390625 78.4921875,8.390625 C79.4036504,8.390625 80.1093725,8.65754941 80.609375,9.19140625 C81.1093775,9.72526309 81.359375,10.5494736 81.359375,11.6640625 L81.359375,17 L79.8203125,17 L79.8203125,11.6953125 C79.8203125,10.9505171 79.6731786,10.4218766 79.3789062,10.109375 C79.0846339,9.79687344 78.6354197,9.640625 78.03125,9.640625 C77.5885395,9.640625 77.1966163,9.74739477 76.8554688,9.9609375 C76.5143212,10.1744802 76.2421885,10.466144 76.0390625,10.8359375 L76.0390625,17 L74.5,17 L74.5,8.546875 L75.875,8.546875 Z"></path>
            </g>
            <g transform="translate(234.000000, 4.000000)" fill="#EC407A">
                <path d="M7.5703125,10.0703125 L2.8046875,10.0703125 L1.7265625,13 L0.15625,13 L4.5546875,1.625 L5.875,1.625 L10.203125,13 L8.6328125,13 L7.5703125,10.0703125 Z M3.28125,8.78125 L7.109375,8.78125 L5.234375,3.6015625 L5.1875,3.6015625 L3.28125,8.78125 Z M13.140625,13 L11.6015625,13 L11.6015625,0.8125 L13.140625,0.8125 L13.140625,13 Z M19.015625,13.1640625 C17.8385358,13.1640625 16.9023472,12.7721393 16.2070312,11.9882812 C15.5117153,11.2044232 15.1640625,10.1875063 15.1640625,8.9375 L15.1640625,8.59375 C15.1640625,7.39061898 15.5221318,6.38932691 16.2382812,5.58984375 C16.9544307,4.79036059 17.8020784,4.390625 18.78125,4.390625 C19.9218807,4.390625 20.7838513,4.73437156 21.3671875,5.421875 C21.9505237,6.10937844 22.2421875,7.02603594 22.2421875,8.171875 L22.2421875,9.1328125 L16.7578125,9.1328125 L16.734375,9.171875 C16.7500001,9.98437906 16.9557272,10.6523411 17.3515625,11.1757812 C17.7473978,11.6992214 18.3020798,11.9609375 19.015625,11.9609375 C19.5364609,11.9609375 19.9934876,11.8867195 20.3867188,11.7382812 C20.7799499,11.589843 21.1197902,11.385418 21.40625,11.125 L22.0078125,12.125 C21.7057277,12.4218765 21.3072941,12.6692698 20.8125,12.8671875 C20.3177059,13.0651052 19.7187535,13.1640625 19.015625,13.1640625 Z M18.78125,5.6015625 C18.2656224,5.6015625 17.8255227,5.81900824 17.4609375,6.25390625 C17.0963523,6.68880426 16.8723963,7.23437172 16.7890625,7.890625 L16.8046875,7.9296875 L20.703125,7.9296875 L20.703125,7.7265625 C20.703125,7.12239281 20.5416683,6.61718953 20.21875,6.2109375 C19.8958317,5.80468547 19.4166698,5.6015625 18.78125,5.6015625 Z M27.96875,5.90625 L27.1796875,5.859375 C26.7734355,5.859375 26.430991,5.9557282 26.1523437,6.1484375 C25.8736965,6.3411468 25.6588549,6.61197742 25.5078125,6.9609375 L25.5078125,13 L23.96875,13 L23.96875,4.546875 L25.34375,4.546875 L25.4921875,5.78125 C25.731772,5.34374781 26.027342,5.00260539 26.3789062,4.7578125 C26.7304705,4.51301961 27.1354144,4.390625 27.59375,4.390625 C27.7083339,4.390625 27.8177078,4.39973949 27.921875,4.41796875 C28.0260422,4.43619801 28.1119788,4.45572906 28.1796875,4.4765625 L27.96875,5.90625 Z M31.6171875,2.5078125 L31.6171875,4.546875 L33.21875,4.546875 L33.21875,5.6875 L31.6171875,5.6875 L31.6171875,10.8203125 C31.6171875,11.2161478 31.6992179,11.4947909 31.8632812,11.65625 C32.0273446,11.8177091 32.2447903,11.8984375 32.515625,11.8984375 C32.6041671,11.8984375 32.7018224,11.8880209 32.8085937,11.8671875 C32.9153651,11.8463541 33.0104162,11.8203127 33.09375,11.7890625 L33.296875,12.84375 C33.1822911,12.9375005 33.014324,13.0143226 32.7929687,13.0742188 C32.5716135,13.1341149 32.3489595,13.1640625 32.125,13.1640625 C31.4999969,13.1640625 31.002606,12.9752623 30.6328125,12.5976562 C30.263019,12.2200502 30.078125,11.6276082 30.078125,10.8203125 L30.078125,5.6875 L28.734375,5.6875 L28.734375,4.546875 L30.078125,4.546875 L30.078125,2.5078125 L31.6171875,2.5078125 Z M39.3828125,13 L39.3828125,1.625 L43.09375,1.625 C44.2812559,1.625 45.2109341,1.88150785 45.8828125,2.39453125 C46.5546909,2.90755465 46.890625,3.6770782 46.890625,4.703125 C46.890625,5.20833586 46.7291683,5.66015426 46.40625,6.05859375 C46.0833317,6.45703324 45.6588568,6.7526032 45.1328125,6.9453125 C45.8203159,7.09114656 46.3606751,7.4270807 46.7539062,7.953125 C47.1471374,8.4791693 47.34375,9.09114234 47.34375,9.7890625 C47.34375,10.8307344 47.0065138,11.6262993 46.3320312,12.1757812 C45.6575487,12.7252632 44.7421933,13 43.5859375,13 L39.3828125,13 Z M40.921875,7.6640625 L40.921875,11.796875 L43.5859375,11.796875 C44.2838577,11.796875 44.828123,11.6236996 45.21875,11.2773438 C45.609377,10.9309879 45.8046875,10.4401073 45.8046875,9.8046875 C45.8046875,9.1380175 45.6419287,8.61458523 45.3164062,8.234375 C44.9908838,7.85416477 44.4895867,7.6640625 43.8125,7.6640625 L40.921875,7.6640625 Z M40.921875,6.4609375 L43.4140625,6.4609375 C43.986982,6.4609375 44.4531232,6.30338699 44.8125,5.98828125 C45.1718768,5.67317551 45.3515625,5.23437781 45.3515625,4.671875 C45.3515625,4.05728859 45.157554,3.59765777 44.7695312,3.29296875 C44.3815085,2.98827973 43.8229203,2.8359375 43.09375,2.8359375 L40.921875,2.8359375 L40.921875,6.4609375 Z M54.515625,13 C54.4635414,12.7447904 54.4231772,12.5195322 54.3945312,12.3242188 C54.3658853,12.1289053 54.3489584,11.9322927 54.34375,11.734375 C54.0572902,12.140627 53.6835961,12.4804674 53.2226562,12.7539062 C52.7617164,13.0273451 52.2656277,13.1640625 51.734375,13.1640625 C50.8541623,13.1640625 50.1835961,12.9388043 49.7226562,12.4882812 C49.2617164,12.0377582 49.03125,11.4166706 49.03125,10.625 C49.03125,9.8177043 49.3580696,9.1862002 50.0117187,8.73046875 C50.6653679,8.2747373 51.5520777,8.046875 52.671875,8.046875 L54.34375,8.046875 L54.34375,7.2109375 C54.34375,6.71614336 54.1927098,6.3242202 53.890625,6.03515625 C53.5885402,5.7460923 53.1614611,5.6015625 52.609375,5.6015625 C52.1145809,5.6015625 51.7122411,5.72786332 51.4023437,5.98046875 C51.0924464,6.23307418 50.9375,6.53645656 50.9375,6.890625 L49.46875,6.890625 L49.453125,6.84375 C49.4218748,6.22916359 49.7122365,5.66666922 50.3242187,5.15625 C50.936201,4.64583078 51.7265577,4.390625 52.6953125,4.390625 C53.6536506,4.390625 54.4244762,4.63411215 55.0078125,5.12109375 C55.5911487,5.60807535 55.8828125,6.30989125 55.8828125,7.2265625 L55.8828125,11.296875 C55.8828125,11.5989598 55.8984373,11.8906236 55.9296875,12.171875 C55.9609377,12.4531264 56.0182287,12.7291653 56.1015625,13 L54.515625,13 Z M51.9609375,11.875 C52.518232,11.875 53.0208311,11.7317723 53.46875,11.4453125 C53.9166689,11.1588527 54.2083327,10.830731 54.34375,10.4609375 L54.34375,9.0859375 L52.6171875,9.0859375 C51.9973927,9.0859375 51.5013039,9.24218594 51.1289062,9.5546875 C50.7565086,9.86718906 50.5703125,10.2343729 50.5703125,10.65625 C50.5703125,11.0312519 50.6874988,11.3281239 50.921875,11.546875 C51.1562512,11.7656261 51.5026019,11.875 51.9609375,11.875 Z M62.1171875,5.90625 L61.328125,5.859375 C60.921873,5.859375 60.5794285,5.9557282 60.3007812,6.1484375 C60.022134,6.3411468 59.8072924,6.61197742 59.65625,6.9609375 L59.65625,13 L58.1171875,13 L58.1171875,4.546875 L59.4921875,4.546875 L59.640625,5.78125 C59.8802095,5.34374781 60.1757795,5.00260539 60.5273437,4.7578125 C60.878908,4.51301961 61.2838519,4.390625 61.7421875,4.390625 C61.8567714,4.390625 61.9661453,4.39973949 62.0703125,4.41796875 C62.1744797,4.43619801 62.2604163,4.45572906 62.328125,4.4765625 L62.1171875,5.90625 Z"></path>
            </g>
            <g transform="translate(381.000000, 128.000000)" fill="#EC407A">
                <path d="M7.5703125,14.0703125 L2.8046875,14.0703125 L1.7265625,17 L0.15625,17 L4.5546875,5.625 L5.875,5.625 L10.203125,17 L8.6328125,17 L7.5703125,14.0703125 Z M3.28125,12.78125 L7.109375,12.78125 L5.234375,7.6015625 L5.1875,7.6015625 L3.28125,12.78125 Z M14.9140625,15.9609375 C15.4244817,15.9609375 15.873696,15.803387 16.2617188,15.4882812 C16.6497415,15.1731755 16.84375,14.7864606 16.84375,14.328125 L18.2265625,14.328125 L18.2421875,14.375 C18.2682293,15.1041703 17.9440138,15.7512993 17.2695312,16.3164062 C16.5950487,16.8815132 15.8099003,17.1640625 14.9140625,17.1640625 C13.6848897,17.1640625 12.7447949,16.7630248 12.09375,15.9609375 C11.4427051,15.1588502 11.1171875,14.1510477 11.1171875,12.9375 L11.1171875,12.609375 C11.1171875,11.406244 11.4440071,10.4023478 12.0976562,9.59765625 C12.7513054,8.79296473 13.690098,8.390625 14.9140625,8.390625 C15.9036508,8.390625 16.7122364,8.68228875 17.3398438,9.265625 C17.9674511,9.84896125 18.2708334,10.5650999 18.25,11.4140625 L18.234375,11.4609375 L16.84375,11.4609375 C16.84375,10.9453099 16.6614602,10.5065122 16.296875,10.1445312 C15.9322898,9.78255027 15.471357,9.6015625 14.9140625,9.6015625 C14.1067668,9.6015625 13.5299496,9.89192418 13.1835938,10.4726562 C12.8372379,11.0533883 12.6640625,11.7656208 12.6640625,12.609375 L12.6640625,12.9375 C12.6640625,13.8020877 12.8359358,14.5221325 13.1796875,15.0976562 C13.5234392,15.67318 14.1015584,15.9609375 14.9140625,15.9609375 Z M22,6.5078125 L22,8.546875 L23.6015625,8.546875 L23.6015625,9.6875 L22,9.6875 L22,14.8203125 C22,15.2161478 22.0820304,15.4947909 22.2460938,15.65625 C22.4101571,15.8177091 22.6276028,15.8984375 22.8984375,15.8984375 C22.9869796,15.8984375 23.0846349,15.8880209 23.1914062,15.8671875 C23.2981776,15.8463541 23.3932287,15.8203127 23.4765625,15.7890625 L23.6796875,16.84375 C23.5651036,16.9375005 23.3971365,17.0143226 23.1757812,17.0742188 C22.954426,17.1341149 22.731772,17.1640625 22.5078125,17.1640625 C21.8828094,17.1640625 21.3854185,16.9752623 21.015625,16.5976562 C20.6458315,16.2200502 20.4609375,15.6276082 20.4609375,14.8203125 L20.4609375,9.6875 L19.1171875,9.6875 L19.1171875,8.546875 L20.4609375,8.546875 L20.4609375,6.5078125 L22,6.5078125 Z M27.1640625,17 L25.625,17 L25.625,8.546875 L27.1640625,8.546875 L27.1640625,17 Z M27.1640625,6.3828125 L25.625,6.3828125 L25.625,4.8125 L27.1640625,4.8125 L27.1640625,6.3828125 Z M29.171875,12.6953125 C29.171875,11.4453062 29.5104133,10.4153686 30.1875,9.60546875 C30.8645867,8.79556887 31.7838484,8.390625 32.9453125,8.390625 C34.1171934,8.390625 35.0429654,8.7942668 35.7226562,9.6015625 C36.4023471,10.4088582 36.7421875,11.4400979 36.7421875,12.6953125 L36.7421875,12.8671875 C36.7421875,14.1276105 36.4036492,15.1588502 35.7265625,15.9609375 C35.0494758,16.7630248 34.12761,17.1640625 32.9609375,17.1640625 C31.794265,17.1640625 30.8710971,16.7617228 30.1914062,15.9570312 C29.5117154,15.1523397 29.171875,14.1224021 29.171875,12.8671875 L29.171875,12.6953125 Z M30.7109375,12.8671875 C30.7109375,13.7630253 30.8997377,14.5026012 31.2773438,15.0859375 C31.6549498,15.6692738 32.2161421,15.9609375 32.9609375,15.9609375 C33.6953162,15.9609375 34.2526023,15.6692738 34.6328125,15.0859375 C35.0130227,14.5026012 35.203125,13.7630253 35.203125,12.8671875 L35.203125,12.6953125 C35.203125,11.8098914 35.0117207,11.0729196 34.6289062,10.484375 C34.2460918,9.89583039 33.6848995,9.6015625 32.9453125,9.6015625 C32.2109338,9.6015625 31.6549498,9.89583039 31.2773438,10.484375 C30.8997377,11.0729196 30.7109375,11.8098914 30.7109375,12.6953125 L30.7109375,12.8671875 Z M40,8.546875 L40.109375,9.8046875 C40.3906264,9.35676859 40.7434875,9.00911582 41.1679688,8.76171875 C41.59245,8.51432168 42.0755181,8.390625 42.6171875,8.390625 C43.5286504,8.390625 44.2343725,8.65754941 44.734375,9.19140625 C45.2343775,9.72526309 45.484375,10.5494736 45.484375,11.6640625 L45.484375,17 L43.9453125,17 L43.9453125,11.6953125 C43.9453125,10.9505171 43.7981786,10.4218766 43.5039062,10.109375 C43.2096339,9.79687344 42.7604197,9.640625 42.15625,9.640625 C41.7135395,9.640625 41.3216163,9.74739477 40.9804688,9.9609375 C40.6393212,10.1744802 40.3671885,10.466144 40.1640625,10.8359375 L40.1640625,17 L38.625,17 L38.625,8.546875 L40,8.546875 Z M53.5234375,15.796875 L58.90625,15.796875 L58.90625,17 L51.984375,17 L51.984375,5.625 L53.5234375,5.625 L53.5234375,15.796875 Z M62,17 L60.4609375,17 L60.4609375,8.546875 L62,8.546875 L62,17 Z M62,6.3828125 L60.4609375,6.3828125 L60.4609375,4.8125 L62,4.8125 L62,6.3828125 Z M65.7421875,8.546875 L65.8515625,9.8046875 C66.1328139,9.35676859 66.485675,9.00911582 66.9101562,8.76171875 C67.3346375,8.51432168 67.8177056,8.390625 68.359375,8.390625 C69.2708379,8.390625 69.97656,8.65754941 70.4765625,9.19140625 C70.976565,9.72526309 71.2265625,10.5494736 71.2265625,11.6640625 L71.2265625,17 L69.6875,17 L69.6875,11.6953125 C69.6875,10.9505171 69.5403661,10.4218766 69.2460938,10.109375 C68.9518214,9.79687344 68.5026072,9.640625 67.8984375,9.640625 C67.455727,9.640625 67.0638038,9.74739477 66.7226562,9.9609375 C66.3815087,10.1744802 66.109376,10.466144 65.90625,10.8359375 L65.90625,17 L64.3671875,17 L64.3671875,8.546875 L65.7421875,8.546875 Z M76.0078125,13.1015625 L75.0078125,13.1015625 L75.0078125,17 L73.46875,17 L73.46875,4.8125 L75.0078125,4.8125 L75.0078125,11.875 L75.9921875,11.875 L78.3046875,8.546875 L80.1484375,8.546875 L77.2578125,12.390625 L80.5625,17 L78.75,17 L76.0078125,13.1015625 Z"></path>
            </g>
            <g transform="translate(211.000000, 128.000000)" fill="#EC407A">
                <path d="M7.5703125,14.0703125 L2.8046875,14.0703125 L1.7265625,17 L0.15625,17 L4.5546875,5.625 L5.875,5.625 L10.203125,17 L8.6328125,17 L7.5703125,14.0703125 Z M3.28125,12.78125 L7.109375,12.78125 L5.234375,7.6015625 L5.1875,7.6015625 L3.28125,12.78125 Z M13.140625,17 L11.6015625,17 L11.6015625,4.8125 L13.140625,4.8125 L13.140625,17 Z M19.015625,17.1640625 C17.8385358,17.1640625 16.9023472,16.7721393 16.2070312,15.9882812 C15.5117153,15.2044232 15.1640625,14.1875063 15.1640625,12.9375 L15.1640625,12.59375 C15.1640625,11.390619 15.5221318,10.3893269 16.2382812,9.58984375 C16.9544307,8.79036059 17.8020784,8.390625 18.78125,8.390625 C19.9218807,8.390625 20.7838513,8.73437156 21.3671875,9.421875 C21.9505237,10.1093784 22.2421875,11.0260359 22.2421875,12.171875 L22.2421875,13.1328125 L16.7578125,13.1328125 L16.734375,13.171875 C16.7500001,13.9843791 16.9557272,14.6523411 17.3515625,15.1757812 C17.7473978,15.6992214 18.3020798,15.9609375 19.015625,15.9609375 C19.5364609,15.9609375 19.9934876,15.8867195 20.3867188,15.7382812 C20.7799499,15.589843 21.1197902,15.385418 21.40625,15.125 L22.0078125,16.125 C21.7057277,16.4218765 21.3072941,16.6692698 20.8125,16.8671875 C20.3177059,17.0651052 19.7187535,17.1640625 19.015625,17.1640625 Z M18.78125,9.6015625 C18.2656224,9.6015625 17.8255227,9.81900824 17.4609375,10.2539062 C17.0963523,10.6888043 16.8723963,11.2343717 16.7890625,11.890625 L16.8046875,11.9296875 L20.703125,11.9296875 L20.703125,11.7265625 C20.703125,11.1223928 20.5416683,10.6171895 20.21875,10.2109375 C19.8958317,9.80468547 19.4166698,9.6015625 18.78125,9.6015625 Z M27.96875,9.90625 L27.1796875,9.859375 C26.7734355,9.859375 26.430991,9.9557282 26.1523438,10.1484375 C25.8736965,10.3411468 25.6588549,10.6119774 25.5078125,10.9609375 L25.5078125,17 L23.96875,17 L23.96875,8.546875 L25.34375,8.546875 L25.4921875,9.78125 C25.731772,9.34374781 26.027342,9.00260539 26.3789062,8.7578125 C26.7304705,8.51301961 27.1354144,8.390625 27.59375,8.390625 C27.7083339,8.390625 27.8177078,8.39973949 27.921875,8.41796875 C28.0260422,8.43619801 28.1119788,8.45572906 28.1796875,8.4765625 L27.96875,9.90625 Z M31.6171875,6.5078125 L31.6171875,8.546875 L33.21875,8.546875 L33.21875,9.6875 L31.6171875,9.6875 L31.6171875,14.8203125 C31.6171875,15.2161478 31.6992179,15.4947909 31.8632812,15.65625 C32.0273446,15.8177091 32.2447903,15.8984375 32.515625,15.8984375 C32.6041671,15.8984375 32.7018224,15.8880209 32.8085937,15.8671875 C32.9153651,15.8463541 33.0104162,15.8203127 33.09375,15.7890625 L33.296875,16.84375 C33.1822911,16.9375005 33.014324,17.0143226 32.7929687,17.0742188 C32.5716135,17.1341149 32.3489595,17.1640625 32.125,17.1640625 C31.4999969,17.1640625 31.002606,16.9752623 30.6328125,16.5976562 C30.263019,16.2200502 30.078125,15.6276082 30.078125,14.8203125 L30.078125,9.6875 L28.734375,9.6875 L28.734375,8.546875 L30.078125,8.546875 L30.078125,6.5078125 L31.6171875,6.5078125 Z M39.3828125,17 L39.3828125,5.625 L42.875,5.625 C44.3645908,5.625 45.5598913,6.08202668 46.4609375,6.99609375 C47.3619837,7.91016082 47.8125,9.09113859 47.8125,10.5390625 L47.8125,12.09375 C47.8125,13.5468823 47.3619837,14.72786 46.4609375,15.6367188 C45.5598913,16.5455775 44.3645908,17 42.875,17 L39.3828125,17 Z M40.921875,6.8359375 L40.921875,15.796875 L42.875,15.796875 C43.9270886,15.796875 44.7565074,15.4505243 45.3632812,14.7578125 C45.9700551,14.0651007 46.2734375,13.1770887 46.2734375,12.09375 L46.2734375,10.5234375 C46.2734375,9.45051547 45.9700551,8.5677118 45.3632812,7.875 C44.7565074,7.1822882 43.9270886,6.8359375 42.875,6.8359375 L40.921875,6.8359375 Z M53.140625,17.1640625 C51.9635358,17.1640625 51.0273472,16.7721393 50.3320312,15.9882812 C49.6367153,15.2044232 49.2890625,14.1875063 49.2890625,12.9375 L49.2890625,12.59375 C49.2890625,11.390619 49.6471318,10.3893269 50.3632812,9.58984375 C51.0794307,8.79036059 51.9270784,8.390625 52.90625,8.390625 C54.0468807,8.390625 54.9088512,8.73437156 55.4921875,9.421875 C56.0755238,10.1093784 56.3671875,11.0260359 56.3671875,12.171875 L56.3671875,13.1328125 L50.8828125,13.1328125 L50.859375,13.171875 C50.8750001,13.9843791 51.0807272,14.6523411 51.4765625,15.1757812 C51.8723978,15.6992214 52.4270798,15.9609375 53.140625,15.9609375 C53.6614609,15.9609375 54.1184876,15.8867195 54.5117188,15.7382812 C54.9049499,15.589843 55.2447902,15.385418 55.53125,15.125 L56.1328125,16.125 C55.8307277,16.4218765 55.4322941,16.6692698 54.9375,16.8671875 C54.4427059,17.0651052 53.8437535,17.1640625 53.140625,17.1640625 Z M52.90625,9.6015625 C52.3906224,9.6015625 51.9505227,9.81900824 51.5859375,10.2539062 C51.2213523,10.6888043 50.9973962,11.2343717 50.9140625,11.890625 L50.9296875,11.9296875 L54.828125,11.9296875 L54.828125,11.7265625 C54.828125,11.1223928 54.6666683,10.6171895 54.34375,10.2109375 C54.0208317,9.80468547 53.5416698,9.6015625 52.90625,9.6015625 Z M63.0078125,14.7578125 C63.0078125,14.4192691 62.8789075,14.1406261 62.6210937,13.921875 C62.36328,13.7031239 61.8750036,13.5130216 61.15625,13.3515625 C60.1302032,13.127603 59.3580755,12.8242207 58.8398437,12.4414062 C58.321612,12.0585918 58.0625,11.5364616 58.0625,10.875 C58.0625,10.1874966 58.3541637,9.60156492 58.9375,9.1171875 C59.5208362,8.63281008 60.2812453,8.390625 61.21875,8.390625 C62.2031299,8.390625 62.9856742,8.64322664 63.5664062,9.1484375 C64.1471383,9.65364836 64.4244793,10.2682255 64.3984375,10.9921875 L64.3828125,11.0390625 L62.9140625,11.0390625 C62.9140625,10.669269 62.7591161,10.3372411 62.4492187,10.0429688 C62.1393214,9.74869645 61.7291692,9.6015625 61.21875,9.6015625 C60.6718723,9.6015625 60.2656263,9.72135297 60,9.9609375 C59.7343737,10.200522 59.6015625,10.4895816 59.6015625,10.828125 C59.6015625,11.16146 59.7187488,11.4244782 59.953125,11.6171875 C60.1875012,11.8098968 60.6640589,11.9817701 61.3828125,12.1328125 C62.4505262,12.3619803 63.2447891,12.6731751 63.765625,13.0664062 C64.2864609,13.4596374 64.546875,13.9869759 64.546875,14.6484375 C64.546875,15.3984412 64.2434926,16.005206 63.6367187,16.46875 C63.0299449,16.932294 62.2369841,17.1640625 61.2578125,17.1640625 C60.1796821,17.1640625 59.3307323,16.8906277 58.7109375,16.34375 C58.0911427,15.7968723 57.7968748,15.1588578 57.828125,14.4296875 L57.84375,14.3828125 L59.3125,14.3828125 C59.3385418,14.9296902 59.5416648,15.3294258 59.921875,15.5820312 C60.3020852,15.8346367 60.7473933,15.9609375 61.2578125,15.9609375 C61.8046902,15.9609375 62.2330714,15.8502615 62.5429687,15.6289062 C62.8528661,15.407551 63.0078125,15.1171893 63.0078125,14.7578125 Z M69.8984375,15.9609375 C70.4088567,15.9609375 70.858071,15.803387 71.2460938,15.4882812 C71.6341165,15.1731755 71.828125,14.7864606 71.828125,14.328125 L73.2109375,14.328125 L73.2265625,14.375 C73.2526043,15.1041703 72.9283888,15.7512993 72.2539062,16.3164062 C71.5794237,16.8815132 70.7942753,17.1640625 69.8984375,17.1640625 C68.6692647,17.1640625 67.7291699,16.7630248 67.078125,15.9609375 C66.4270801,15.1588502 66.1015625,14.1510477 66.1015625,12.9375 L66.1015625,12.609375 C66.1015625,11.406244 66.4283821,10.4023478 67.0820312,9.59765625 C67.7356804,8.79296473 68.674473,8.390625 69.8984375,8.390625 C70.8880258,8.390625 71.6966114,8.68228875 72.3242188,9.265625 C72.9518261,9.84896125 73.2552084,10.5650999 73.234375,11.4140625 L73.21875,11.4609375 L71.828125,11.4609375 C71.828125,10.9453099 71.6458352,10.5065122 71.28125,10.1445312 C70.9166648,9.78255027 70.455732,9.6015625 69.8984375,9.6015625 C69.0911418,9.6015625 68.5143246,9.89192418 68.1679688,10.4726562 C67.8216129,11.0533883 67.6484375,11.7656208 67.6484375,12.609375 L67.6484375,12.9375 C67.6484375,13.8020877 67.8203108,14.5221325 68.1640625,15.0976562 C68.5078142,15.67318 69.0859334,15.9609375 69.8984375,15.9609375 Z M78.953125,9.90625 L78.1640625,9.859375 C77.7578105,9.859375 77.415366,9.9557282 77.1367188,10.1484375 C76.8580715,10.3411468 76.6432299,10.6119774 76.4921875,10.9609375 L76.4921875,17 L74.953125,17 L74.953125,8.546875 L76.328125,8.546875 L76.4765625,9.78125 C76.716147,9.34374781 77.011717,9.00260539 77.3632812,8.7578125 C77.7148455,8.51301961 78.1197894,8.390625 78.578125,8.390625 C78.6927089,8.390625 78.8020828,8.39973949 78.90625,8.41796875 C79.0104172,8.43619801 79.0963538,8.45572906 79.1640625,8.4765625 L78.953125,9.90625 Z M82.1015625,17 L80.5625,17 L80.5625,8.546875 L82.1015625,8.546875 L82.1015625,17 Z M82.1015625,6.3828125 L80.5625,6.3828125 L80.5625,4.8125 L82.1015625,4.8125 L82.1015625,6.3828125 Z M91.671875,13.09375 C91.671875,14.3125061 91.3802113,15.2955692 90.796875,16.0429688 C90.2135387,16.7903683 89.4088593,17.1640625 88.3828125,17.1640625 C87.8619766,17.1640625 87.4049499,17.0768238 87.0117188,16.9023438 C86.6184876,16.7278637 86.2838555,16.4661476 86.0078125,16.1171875 L86.0078125,20.25 L84.46875,20.25 L84.46875,8.546875 L85.6484375,8.546875 L85.890625,9.640625 C86.166668,9.23437297 86.5104146,8.92448023 86.921875,8.7109375 C87.3333354,8.49739477 87.8124973,8.390625 88.359375,8.390625 C89.4062552,8.390625 90.2200492,8.80598543 90.8007812,9.63671875 C91.3815133,10.4674521 91.671875,11.5650973 91.671875,12.9296875 L91.671875,13.09375 Z M90.1328125,12.9296875 C90.1328125,11.9713494 89.9440123,11.1835968 89.5664062,10.5664062 C89.1888002,9.94921566 88.6328162,9.640625 87.8984375,9.640625 C87.455727,9.640625 87.0781266,9.74088441 86.765625,9.94140625 C86.4531234,10.1419281 86.2005218,10.4166649 86.0078125,10.765625 L86.0078125,14.8515625 C86.2005218,15.2005226 86.4531234,15.4726553 86.765625,15.6679688 C87.0781266,15.8632822 87.4609352,15.9609375 87.9140625,15.9609375 C88.6432328,15.9609375 89.1953106,15.6940131 89.5703125,15.1601562 C89.9453144,14.6262994 90.1328125,13.9375042 90.1328125,13.09375 L90.1328125,12.9296875 Z M95.59375,6.5078125 L95.59375,8.546875 L97.1953125,8.546875 L97.1953125,9.6875 L95.59375,9.6875 L95.59375,14.8203125 C95.59375,15.2161478 95.6757804,15.4947909 95.8398438,15.65625 C96.0039071,15.8177091 96.2213528,15.8984375 96.4921875,15.8984375 C96.5807296,15.8984375 96.6783849,15.8880209 96.7851562,15.8671875 C96.8919276,15.8463541 96.9869787,15.8203127 97.0703125,15.7890625 L97.2734375,16.84375 C97.1588536,16.9375005 96.9908865,17.0143226 96.7695312,17.0742188 C96.548176,17.1341149 96.325522,17.1640625 96.1015625,17.1640625 C95.4765594,17.1640625 94.9791685,16.9752623 94.609375,16.5976562 C94.2395815,16.2200502 94.0546875,15.6276082 94.0546875,14.8203125 L94.0546875,9.6875 L92.7109375,9.6875 L92.7109375,8.546875 L94.0546875,8.546875 L94.0546875,6.5078125 L95.59375,6.5078125 Z M100.757812,17 L99.21875,17 L99.21875,8.546875 L100.757812,8.546875 L100.757812,17 Z M100.757812,6.3828125 L99.21875,6.3828125 L99.21875,4.8125 L100.757812,4.8125 L100.757812,6.3828125 Z M102.765625,12.6953125 C102.765625,11.4453062 103.104163,10.4153686 103.78125,9.60546875 C104.458337,8.79556887 105.377598,8.390625 106.539062,8.390625 C107.710943,8.390625 108.636715,8.7942668 109.316406,9.6015625 C109.996097,10.4088582 110.335937,11.4400979 110.335937,12.6953125 L110.335937,12.8671875 C110.335937,14.1276105 109.997399,15.1588502 109.320312,15.9609375 C108.643226,16.7630248 107.72136,17.1640625 106.554687,17.1640625 C105.388015,17.1640625 104.464847,16.7617228 103.785156,15.9570312 C103.105465,15.1523397 102.765625,14.1224021 102.765625,12.8671875 L102.765625,12.6953125 Z M104.304687,12.8671875 C104.304687,13.7630253 104.493488,14.5026012 104.871094,15.0859375 C105.2487,15.6692738 105.809892,15.9609375 106.554687,15.9609375 C107.289066,15.9609375 107.846352,15.6692738 108.226562,15.0859375 C108.606773,14.5026012 108.796875,13.7630253 108.796875,12.8671875 L108.796875,12.6953125 C108.796875,11.8098914 108.605471,11.0729196 108.222656,10.484375 C107.839842,9.89583039 107.27865,9.6015625 106.539062,9.6015625 C105.804684,9.6015625 105.2487,9.89583039 104.871094,10.484375 C104.493488,11.0729196 104.304687,11.8098914 104.304687,12.6953125 L104.304687,12.8671875 Z M113.59375,8.546875 L113.703125,9.8046875 C113.984376,9.35676859 114.337237,9.00911582 114.761719,8.76171875 C115.1862,8.51432168 115.669268,8.390625 116.210937,8.390625 C117.1224,8.390625 117.828122,8.65754941 118.328125,9.19140625 C118.828127,9.72526309 119.078125,10.5494736 119.078125,11.6640625 L119.078125,17 L117.539062,17 L117.539062,11.6953125 C117.539062,10.9505171 117.391929,10.4218766 117.097656,10.109375 C116.803384,9.79687344 116.35417,9.640625 115.75,9.640625 C115.307289,9.640625 114.915366,9.74739477 114.574219,9.9609375 C114.233071,10.1744802 113.960939,10.466144 113.757812,10.8359375 L113.757812,17 L112.21875,17 L112.21875,8.546875 L113.59375,8.546875 Z"></path>
            </g>
            <g transform="translate(10.000000, 128.000000)" fill="#EC407A">
                <path d="M7.5703125,14.0703125 L2.8046875,14.0703125 L1.7265625,17 L0.15625,17 L4.5546875,5.625 L5.875,5.625 L10.203125,17 L8.6328125,17 L7.5703125,14.0703125 Z M3.28125,12.78125 L7.109375,12.78125 L5.234375,7.6015625 L5.1875,7.6015625 L3.28125,12.78125 Z M13.140625,17 L11.6015625,17 L11.6015625,4.8125 L13.140625,4.8125 L13.140625,17 Z M19.015625,17.1640625 C17.8385358,17.1640625 16.9023472,16.7721393 16.2070312,15.9882812 C15.5117153,15.2044232 15.1640625,14.1875062 15.1640625,12.9375 L15.1640625,12.59375 C15.1640625,11.390619 15.5221318,10.3893269 16.2382812,9.58984375 C16.9544307,8.79036059 17.8020784,8.390625 18.78125,8.390625 C19.9218807,8.390625 20.7838513,8.73437156 21.3671875,9.421875 C21.9505237,10.1093784 22.2421875,11.0260359 22.2421875,12.171875 L22.2421875,13.1328125 L16.7578125,13.1328125 L16.734375,13.171875 C16.7500001,13.9843791 16.9557272,14.6523411 17.3515625,15.1757812 C17.7473978,15.6992214 18.3020798,15.9609375 19.015625,15.9609375 C19.5364609,15.9609375 19.9934876,15.8867195 20.3867188,15.7382812 C20.7799499,15.589843 21.1197902,15.385418 21.40625,15.125 L22.0078125,16.125 C21.7057277,16.4218765 21.3072941,16.6692698 20.8125,16.8671875 C20.3177059,17.0651052 19.7187535,17.1640625 19.015625,17.1640625 Z M18.78125,9.6015625 C18.2656224,9.6015625 17.8255227,9.81900824 17.4609375,10.2539062 C17.0963523,10.6888043 16.8723963,11.2343717 16.7890625,11.890625 L16.8046875,11.9296875 L20.703125,11.9296875 L20.703125,11.7265625 C20.703125,11.1223928 20.5416683,10.6171895 20.21875,10.2109375 C19.8958317,9.80468547 19.4166698,9.6015625 18.78125,9.6015625 Z M27.96875,9.90625 L27.1796875,9.859375 C26.7734355,9.859375 26.430991,9.9557282 26.1523438,10.1484375 C25.8736965,10.3411468 25.6588549,10.6119774 25.5078125,10.9609375 L25.5078125,17 L23.96875,17 L23.96875,8.546875 L25.34375,8.546875 L25.4921875,9.78125 C25.731772,9.34374781 26.027342,9.00260539 26.3789062,8.7578125 C26.7304705,8.51301961 27.1354144,8.390625 27.59375,8.390625 C27.7083339,8.390625 27.8177078,8.39973949 27.921875,8.41796875 C28.0260422,8.43619801 28.1119788,8.45572906 28.1796875,8.4765625 L27.96875,9.90625 Z M31.6171875,6.5078125 L31.6171875,8.546875 L33.21875,8.546875 L33.21875,9.6875 L31.6171875,9.6875 L31.6171875,14.8203125 C31.6171875,15.2161478 31.6992179,15.4947909 31.8632812,15.65625 C32.0273446,15.8177091 32.2447903,15.8984375 32.515625,15.8984375 C32.6041671,15.8984375 32.7018224,15.8880209 32.8085938,15.8671875 C32.9153651,15.8463541 33.0104162,15.8203127 33.09375,15.7890625 L33.296875,16.84375 C33.1822911,16.9375005 33.014324,17.0143226 32.7929688,17.0742188 C32.5716135,17.1341149 32.3489595,17.1640625 32.125,17.1640625 C31.4999969,17.1640625 31.002606,16.9752623 30.6328125,16.5976562 C30.263019,16.2200502 30.078125,15.6276082 30.078125,14.8203125 L30.078125,9.6875 L28.734375,9.6875 L28.734375,8.546875 L30.078125,8.546875 L30.078125,6.5078125 L31.6171875,6.5078125 Z M47.0859375,6.8359375 L43.4296875,6.8359375 L43.4296875,17 L41.890625,17 L41.890625,6.8359375 L38.2421875,6.8359375 L38.2421875,5.625 L47.0859375,5.625 L47.0859375,6.8359375 Z M50.421875,13.8671875 L50.6953125,14.9296875 L50.7421875,14.9296875 L52.8203125,8.546875 L54.53125,8.546875 L50.9765625,18.296875 C50.7630198,18.8645862 50.4570332,19.3593729 50.0585938,19.78125 C49.6601543,20.2031271 49.1223992,20.4140625 48.4453125,20.4140625 C48.3203119,20.4140625 48.1614593,20.3997397 47.96875,20.3710938 C47.7760407,20.3424478 47.6276047,20.3151043 47.5234375,20.2890625 L47.6796875,19.078125 C47.6484373,19.0729166 47.7408843,19.0781249 47.9570312,19.09375 C48.1731782,19.1093751 48.3098955,19.1171875 48.3671875,19.1171875 C48.6953141,19.1171875 48.9635406,18.9713556 49.171875,18.6796875 C49.3802094,18.3880194 49.5546868,18.0651059 49.6953125,17.7109375 L50.0625,16.828125 L46.921875,8.546875 L48.640625,8.546875 L50.421875,13.8671875 Z M63.0859375,13.09375 C63.0859375,14.3125061 62.7942738,15.2955692 62.2109375,16.0429687 C61.6276012,16.7903683 60.8229218,17.1640625 59.796875,17.1640625 C59.2760391,17.1640625 58.8190124,17.0768238 58.4257812,16.9023438 C58.0325501,16.7278637 57.697918,16.4661476 57.421875,16.1171875 L57.421875,20.25 L55.8828125,20.25 L55.8828125,8.546875 L57.0625,8.546875 L57.3046875,9.640625 C57.5807305,9.23437297 57.9244771,8.92448023 58.3359375,8.7109375 C58.7473979,8.49739477 59.2265598,8.390625 59.7734375,8.390625 C60.8203177,8.390625 61.6341117,8.80598543 62.2148438,9.63671875 C62.7955758,10.4674521 63.0859375,11.5650973 63.0859375,12.9296875 L63.0859375,13.09375 Z M61.546875,12.9296875 C61.546875,11.9713494 61.3580748,11.1835968 60.9804688,10.5664062 C60.6028627,9.94921566 60.0468787,9.640625 59.3125,9.640625 C58.8697895,9.640625 58.4921891,9.74088441 58.1796875,9.94140625 C57.8671859,10.1419281 57.6145843,10.4166649 57.421875,10.765625 L57.421875,14.8515625 C57.6145843,15.2005226 57.8671859,15.4726553 58.1796875,15.6679687 C58.4921891,15.8632822 58.8749977,15.9609375 59.328125,15.9609375 C60.0572953,15.9609375 60.6093731,15.6940131 60.984375,15.1601562 C61.3593769,14.6262994 61.546875,13.9375042 61.546875,13.09375 L61.546875,12.9296875 Z M68.484375,17.1640625 C67.3072858,17.1640625 66.3710972,16.7721393 65.6757812,15.9882812 C64.9804653,15.2044232 64.6328125,14.1875062 64.6328125,12.9375 L64.6328125,12.59375 C64.6328125,11.390619 64.9908818,10.3893269 65.7070312,9.58984375 C66.4231807,8.79036059 67.2708284,8.390625 68.25,8.390625 C69.3906307,8.390625 70.2526012,8.73437156 70.8359375,9.421875 C71.4192738,10.1093784 71.7109375,11.0260359 71.7109375,12.171875 L71.7109375,13.1328125 L66.2265625,13.1328125 L66.203125,13.171875 C66.2187501,13.9843791 66.4244772,14.6523411 66.8203125,15.1757812 C67.2161478,15.6992214 67.7708298,15.9609375 68.484375,15.9609375 C69.0052109,15.9609375 69.4622376,15.8867195 69.8554688,15.7382812 C70.2486999,15.589843 70.5885402,15.385418 70.875,15.125 L71.4765625,16.125 C71.1744777,16.4218765 70.7760441,16.6692698 70.28125,16.8671875 C69.7864559,17.0651052 69.1875035,17.1640625 68.484375,17.1640625 Z M68.25,9.6015625 C67.7343724,9.6015625 67.2942727,9.81900824 66.9296875,10.2539062 C66.5651023,10.6888043 66.3411463,11.2343717 66.2578125,11.890625 L66.2734375,11.9296875 L70.171875,11.9296875 L70.171875,11.7265625 C70.171875,11.1223928 70.0104183,10.6171895 69.6875,10.2109375 C69.3645817,9.80468547 68.8854198,9.6015625 68.25,9.6015625 Z"></path>
            </g>
            <g transform="translate(482.000000, 1.000000)" fill="#EC407A">
                <path d="M9.4453125,13.359375 L9.4609375,13.40625 C9.48177094,14.4739637 9.10677469,15.3671839 8.3359375,16.0859375 C7.56510031,16.8046911 6.54688133,17.1640625 5.28125,17.1640625 C3.99478523,17.1640625 2.94661863,16.7083379 2.13671875,15.796875 C1.32681887,14.8854121 0.921875,13.7291737 0.921875,12.328125 L0.921875,10.3046875 C0.921875,8.90363883 1.32681887,7.74609832 2.13671875,6.83203125 C2.94661863,5.91796418 3.99478523,5.4609375 5.28125,5.4609375 C6.56771477,5.4609375 7.59114203,5.80338199 8.3515625,6.48828125 C9.11198297,7.17318051 9.48177094,8.08072352 9.4609375,9.2109375 L9.4453125,9.2578125 L7.96875,9.2578125 C7.96875,8.46093352 7.73437734,7.83073148 7.265625,7.3671875 C6.79687266,6.90364352 6.13542094,6.671875 5.28125,6.671875 C4.4218707,6.671875 3.73698172,7.0182257 3.2265625,7.7109375 C2.71614328,8.4036493 2.4609375,9.2630157 2.4609375,10.2890625 L2.4609375,12.328125 C2.4609375,13.3645885 2.71614328,14.2291632 3.2265625,14.921875 C3.73698172,15.6145868 4.4218707,15.9609375 5.28125,15.9609375 C6.13542094,15.9609375 6.79687266,15.7304711 7.265625,15.2695312 C7.73437734,14.8085914 7.96875,14.1718791 7.96875,13.359375 L9.4453125,13.359375 Z M12.9140625,17 L11.375,17 L11.375,4.8125 L12.9140625,4.8125 L12.9140625,17 Z M14.921875,12.6953125 C14.921875,11.4453062 15.2604133,10.4153686 15.9375,9.60546875 C16.6145867,8.79556887 17.5338484,8.390625 18.6953125,8.390625 C19.8671934,8.390625 20.7929654,8.7942668 21.4726562,9.6015625 C22.1523471,10.4088582 22.4921875,11.4400979 22.4921875,12.6953125 L22.4921875,12.8671875 C22.4921875,14.1276105 22.1536492,15.1588502 21.4765625,15.9609375 C20.7994758,16.7630248 19.87761,17.1640625 18.7109375,17.1640625 C17.544265,17.1640625 16.6210971,16.7617228 15.9414062,15.9570312 C15.2617154,15.1523397 14.921875,14.1224021 14.921875,12.8671875 L14.921875,12.6953125 Z M16.4609375,12.8671875 C16.4609375,13.7630253 16.6497377,14.5026012 17.0273438,15.0859375 C17.4049498,15.6692738 17.9661421,15.9609375 18.7109375,15.9609375 C19.4453162,15.9609375 20.0026023,15.6692738 20.3828125,15.0859375 C20.7630227,14.5026012 20.953125,13.7630253 20.953125,12.8671875 L20.953125,12.6953125 C20.953125,11.8098914 20.7617207,11.0729196 20.3789062,10.484375 C19.9960918,9.89583039 19.4348995,9.6015625 18.6953125,9.6015625 C17.9609338,9.6015625 17.4049498,9.89583039 17.0273438,10.484375 C16.6497377,11.0729196 16.4609375,11.8098914 16.4609375,12.6953125 L16.4609375,12.8671875 Z M29.2890625,14.7578125 C29.2890625,14.4192691 29.1601575,14.1406261 28.9023438,13.921875 C28.64453,13.7031239 28.1562536,13.5130216 27.4375,13.3515625 C26.4114532,13.127603 25.6393255,12.8242207 25.1210938,12.4414062 C24.602862,12.0585918 24.34375,11.5364616 24.34375,10.875 C24.34375,10.1874966 24.6354138,9.60156492 25.21875,9.1171875 C25.8020863,8.63281008 26.5624953,8.390625 27.5,8.390625 C28.4843799,8.390625 29.2669242,8.64322664 29.8476563,9.1484375 C30.4283883,9.65364836 30.7057293,10.2682255 30.6796875,10.9921875 L30.6640625,11.0390625 L29.1953125,11.0390625 C29.1953125,10.669269 29.0403661,10.3372411 28.7304688,10.0429688 C28.4205714,9.74869645 28.0104192,9.6015625 27.5,9.6015625 C26.9531223,9.6015625 26.5468763,9.72135297 26.28125,9.9609375 C26.0156237,10.200522 25.8828125,10.4895816 25.8828125,10.828125 C25.8828125,11.16146 25.9999988,11.4244782 26.234375,11.6171875 C26.4687512,11.8098968 26.9453089,11.9817701 27.6640625,12.1328125 C28.7317762,12.3619803 29.5260391,12.6731751 30.046875,13.0664062 C30.5677109,13.4596374 30.828125,13.9869759 30.828125,14.6484375 C30.828125,15.3984412 30.5247426,16.005206 29.9179688,16.46875 C29.3111949,16.932294 28.5182341,17.1640625 27.5390625,17.1640625 C26.4609321,17.1640625 25.6119823,16.8906277 24.9921875,16.34375 C24.3723927,15.7968723 24.0781248,15.1588578 24.109375,14.4296875 L24.125,14.3828125 L25.59375,14.3828125 C25.6197918,14.9296902 25.8229148,15.3294258 26.203125,15.5820312 C26.5833352,15.8346367 27.0286433,15.9609375 27.5390625,15.9609375 C28.0859402,15.9609375 28.5143214,15.8502615 28.8242188,15.6289062 C29.1341161,15.407551 29.2890625,15.1171893 29.2890625,14.7578125 Z M36.25,17.1640625 C35.0729108,17.1640625 34.1367222,16.7721393 33.4414062,15.9882812 C32.7460903,15.2044232 32.3984375,14.1875063 32.3984375,12.9375 L32.3984375,12.59375 C32.3984375,11.390619 32.7565068,10.3893269 33.4726562,9.58984375 C34.1888057,8.79036059 35.0364534,8.390625 36.015625,8.390625 C37.1562557,8.390625 38.0182262,8.73437156 38.6015625,9.421875 C39.1848988,10.1093784 39.4765625,11.0260359 39.4765625,12.171875 L39.4765625,13.1328125 L33.9921875,13.1328125 L33.96875,13.171875 C33.9843751,13.9843791 34.1901022,14.6523411 34.5859375,15.1757812 C34.9817728,15.6992214 35.5364548,15.9609375 36.25,15.9609375 C36.7708359,15.9609375 37.2278626,15.8867195 37.6210938,15.7382812 C38.0143249,15.589843 38.3541652,15.385418 38.640625,15.125 L39.2421875,16.125 C38.9401027,16.4218765 38.5416691,16.6692698 38.046875,16.8671875 C37.5520809,17.0651052 36.9531285,17.1640625 36.25,17.1640625 Z M36.015625,9.6015625 C35.4999974,9.6015625 35.0598977,9.81900824 34.6953125,10.2539062 C34.3307273,10.6888043 34.1067713,11.2343717 34.0234375,11.890625 L34.0390625,11.9296875 L37.9375,11.9296875 L37.9375,11.7265625 C37.9375,11.1223928 37.7760433,10.6171895 37.453125,10.2109375 C37.1302067,9.80468547 36.6510448,9.6015625 36.015625,9.6015625 Z M51.6328125,14.0703125 L46.8671875,14.0703125 L45.7890625,17 L44.21875,17 L48.6171875,5.625 L49.9375,5.625 L54.265625,17 L52.6953125,17 L51.6328125,14.0703125 Z M47.34375,12.78125 L51.171875,12.78125 L49.296875,7.6015625 L49.25,7.6015625 L47.34375,12.78125 Z M58.9765625,15.9609375 C59.4869817,15.9609375 59.936196,15.803387 60.3242188,15.4882812 C60.7122415,15.1731755 60.90625,14.7864606 60.90625,14.328125 L62.2890625,14.328125 L62.3046875,14.375 C62.3307293,15.1041703 62.0065138,15.7512993 61.3320312,16.3164062 C60.6575487,16.8815132 59.8724003,17.1640625 58.9765625,17.1640625 C57.7473897,17.1640625 56.8072949,16.7630248 56.15625,15.9609375 C55.5052051,15.1588502 55.1796875,14.1510477 55.1796875,12.9375 L55.1796875,12.609375 C55.1796875,11.406244 55.5065071,10.4023478 56.1601562,9.59765625 C56.8138054,8.79296473 57.752598,8.390625 58.9765625,8.390625 C59.9661508,8.390625 60.7747364,8.68228875 61.4023438,9.265625 C62.0299511,9.84896125 62.3333334,10.5650999 62.3125,11.4140625 L62.296875,11.4609375 L60.90625,11.4609375 C60.90625,10.9453099 60.7239602,10.5065122 60.359375,10.1445312 C59.9947898,9.78255027 59.533857,9.6015625 58.9765625,9.6015625 C58.1692668,9.6015625 57.5924496,9.89192418 57.2460938,10.4726562 C56.8997379,11.0533883 56.7265625,11.7656208 56.7265625,12.609375 L56.7265625,12.9375 C56.7265625,13.8020877 56.8984358,14.5221325 57.2421875,15.0976562 C57.5859392,15.67318 58.1640584,15.9609375 58.9765625,15.9609375 Z M66.0625,6.5078125 L66.0625,8.546875 L67.6640625,8.546875 L67.6640625,9.6875 L66.0625,9.6875 L66.0625,14.8203125 C66.0625,15.2161478 66.1445304,15.4947909 66.3085938,15.65625 C66.4726571,15.8177091 66.6901028,15.8984375 66.9609375,15.8984375 C67.0494796,15.8984375 67.1471349,15.8880209 67.2539062,15.8671875 C67.3606776,15.8463541 67.4557287,15.8203127 67.5390625,15.7890625 L67.7421875,16.84375 C67.6276036,16.9375005 67.4596365,17.0143226 67.2382812,17.0742188 C67.016926,17.1341149 66.794272,17.1640625 66.5703125,17.1640625 C65.9453094,17.1640625 65.4479185,16.9752623 65.078125,16.5976562 C64.7083315,16.2200502 64.5234375,15.6276082 64.5234375,14.8203125 L64.5234375,9.6875 L63.1796875,9.6875 L63.1796875,8.546875 L64.5234375,8.546875 L64.5234375,6.5078125 L66.0625,6.5078125 Z M71.2265625,17 L69.6875,17 L69.6875,8.546875 L71.2265625,8.546875 L71.2265625,17 Z M71.2265625,6.3828125 L69.6875,6.3828125 L69.6875,4.8125 L71.2265625,4.8125 L71.2265625,6.3828125 Z M73.234375,12.6953125 C73.234375,11.4453062 73.5729133,10.4153686 74.25,9.60546875 C74.9270867,8.79556887 75.8463484,8.390625 77.0078125,8.390625 C78.1796934,8.390625 79.1054654,8.7942668 79.7851562,9.6015625 C80.4648471,10.4088582 80.8046875,11.4400979 80.8046875,12.6953125 L80.8046875,12.8671875 C80.8046875,14.1276105 80.4661492,15.1588502 79.7890625,15.9609375 C79.1119758,16.7630248 78.19011,17.1640625 77.0234375,17.1640625 C75.856765,17.1640625 74.9335971,16.7617228 74.2539062,15.9570312 C73.5742154,15.1523397 73.234375,14.1224021 73.234375,12.8671875 L73.234375,12.6953125 Z M74.7734375,12.8671875 C74.7734375,13.7630253 74.9622377,14.5026012 75.3398438,15.0859375 C75.7174498,15.6692738 76.2786421,15.9609375 77.0234375,15.9609375 C77.7578162,15.9609375 78.3151023,15.6692738 78.6953125,15.0859375 C79.0755227,14.5026012 79.265625,13.7630253 79.265625,12.8671875 L79.265625,12.6953125 C79.265625,11.8098914 79.0742207,11.0729196 78.6914062,10.484375 C78.3085918,9.89583039 77.7473995,9.6015625 77.0078125,9.6015625 C76.2734338,9.6015625 75.7174498,9.89583039 75.3398438,10.484375 C74.9622377,11.0729196 74.7734375,11.8098914 74.7734375,12.6953125 L74.7734375,12.8671875 Z M84.0625,8.546875 L84.171875,9.8046875 C84.4531264,9.35676859 84.8059875,9.00911582 85.2304688,8.76171875 C85.65495,8.51432168 86.1380181,8.390625 86.6796875,8.390625 C87.5911504,8.390625 88.2968725,8.65754941 88.796875,9.19140625 C89.2968775,9.72526309 89.546875,10.5494736 89.546875,11.6640625 L89.546875,17 L88.0078125,17 L88.0078125,11.6953125 C88.0078125,10.9505171 87.8606786,10.4218766 87.5664062,10.109375 C87.2721339,9.79687344 86.8229197,9.640625 86.21875,9.640625 C85.7760395,9.640625 85.3841163,9.74739477 85.0429688,9.9609375 C84.7018212,10.1744802 84.4296885,10.466144 84.2265625,10.8359375 L84.2265625,17 L82.6875,17 L82.6875,8.546875 L84.0625,8.546875 Z"></path>
            </g>
            <polygon fill="#DDDDDD" fill-rule="nonzero" points="0 104 583.171875 104 583.171875 59 0 59"></polygon>
            <g transform="translate(50.000000, 75.000000)" fill="#000000">
                <path d="M7.6015625,10.1328125 C7.6015625,9.61197656 7.40625195,9.17578301 7.015625,8.82421875 C6.62499805,8.47265449 5.93229664,8.17708453 4.9375,7.9375 C3.73436898,7.65104023 2.79557629,7.22916945 2.12109375,6.671875 C1.44661121,6.11458055 1.109375,5.41406672 1.109375,4.5703125 C1.109375,3.68489141 1.47265262,2.94531547 2.19921875,2.3515625 C2.92578488,1.75780953 3.86718172,1.4609375 5.0234375,1.4609375 C6.26823539,1.4609375 7.2591109,1.80207992 7.99609375,2.484375 C8.7330766,3.16667008 9.0885418,3.95832883 9.0625,4.859375 L9.046875,4.90625 L7.578125,4.90625 C7.578125,4.23958 7.35807512,3.70052289 6.91796875,3.2890625 C6.47786238,2.87760211 5.84635828,2.671875 5.0234375,2.671875 C4.25780867,2.671875 3.67057496,2.84505035 3.26171875,3.19140625 C2.85286254,3.53776215 2.6484375,3.98958055 2.6484375,4.546875 C2.6484375,5.04166914 2.86978945,5.45442543 3.3125,5.78515625 C3.75521055,6.11588707 4.47395336,6.40624875 5.46875,6.65625 C6.66667266,6.95312648 7.57812188,7.39062211 8.203125,7.96875 C8.82812812,8.54687789 9.140625,9.26301656 9.140625,10.1171875 C9.140625,11.0338588 8.76562875,11.7708305 8.015625,12.328125 C7.26562125,12.8854195 6.28646437,13.1640625 5.078125,13.1640625 C3.94270266,13.1640625 2.93880645,12.8567739 2.06640625,12.2421875 C1.19400605,11.6276011 0.770833203,10.8046927 0.796875,9.7734375 L0.8125,9.7265625 L2.28125,9.7265625 C2.28125,10.4557328 2.54947648,11.0104148 3.0859375,11.390625 C3.62239852,11.7708352 4.28645437,11.9609375 5.078125,11.9609375 C5.85417055,11.9609375 6.46874773,11.7968766 6.921875,11.46875 C7.37500227,11.1406234 7.6015625,10.6953153 7.6015625,10.1328125 Z M19.0859375,2.8359375 L15.4296875,2.8359375 L15.4296875,13 L13.890625,13 L13.890625,2.8359375 L10.2421875,2.8359375 L10.2421875,1.625 L19.0859375,1.625 L19.0859375,2.8359375 Z M26.078125,10.0703125 L21.3125,10.0703125 L20.234375,13 L18.6640625,13 L23.0625,1.625 L24.3828125,1.625 L28.7109375,13 L27.140625,13 L26.078125,10.0703125 Z M21.7890625,8.78125 L25.6171875,8.78125 L23.7421875,3.6015625 L23.6953125,3.6015625 L21.7890625,8.78125 Z M37.9765625,2.8359375 L34.3203125,2.8359375 L34.3203125,13 L32.78125,13 L32.78125,2.8359375 L29.1328125,2.8359375 L29.1328125,1.625 L37.9765625,1.625 L37.9765625,2.8359375 Z M47.9609375,1.625 L47.9609375,9.3359375 C47.9609375,10.575527 47.5585978,11.5234342 46.7539062,12.1796875 C45.9492147,12.8359408 44.898444,13.1640625 43.6015625,13.1640625 C42.3515562,13.1640625 41.3372435,12.8346387 40.5585937,12.1757812 C39.779944,11.5169238 39.390625,10.5703187 39.390625,9.3359375 L39.390625,1.625 L40.9296875,1.625 L40.9296875,9.3359375 C40.9296875,10.1953168 41.1744767,10.847654 41.6640625,11.2929688 C42.1536483,11.7382835 42.7994752,11.9609375 43.6015625,11.9609375 C44.4453167,11.9609375 45.1262995,11.7382835 45.6445312,11.2929688 C46.162763,10.847654 46.421875,10.1953168 46.421875,9.3359375 L46.421875,1.625 L47.9609375,1.625 Z M56.671875,10.1328125 C56.671875,9.61197656 56.4765645,9.17578301 56.0859375,8.82421875 C55.6953105,8.47265449 55.0026091,8.17708453 54.0078125,7.9375 C52.8046815,7.65104023 51.8658888,7.22916945 51.1914062,6.671875 C50.5169237,6.11458055 50.1796875,5.41406672 50.1796875,4.5703125 C50.1796875,3.68489141 50.5429651,2.94531547 51.2695312,2.3515625 C51.9960974,1.75780953 52.9374942,1.4609375 54.09375,1.4609375 C55.3385479,1.4609375 56.3294234,1.80207992 57.0664062,2.484375 C57.8033891,3.16667008 58.1588543,3.95832883 58.1328125,4.859375 L58.1171875,4.90625 L56.6484375,4.90625 C56.6484375,4.23958 56.4283876,3.70052289 55.9882812,3.2890625 C55.5481749,2.87760211 54.9166708,2.671875 54.09375,2.671875 C53.3281212,2.671875 52.7408875,2.84505035 52.3320312,3.19140625 C51.923175,3.53776215 51.71875,3.98958055 51.71875,4.546875 C51.71875,5.04166914 51.940102,5.45442543 52.3828125,5.78515625 C52.825523,6.11588707 53.5442659,6.40624875 54.5390625,6.65625 C55.7369852,6.95312648 56.6484344,7.39062211 57.2734375,7.96875 C57.8984406,8.54687789 58.2109375,9.26301656 58.2109375,10.1171875 C58.2109375,11.0338588 57.8359412,11.7708305 57.0859375,12.328125 C56.3359338,12.8854195 55.3567769,13.1640625 54.1484375,13.1640625 C53.0130152,13.1640625 52.0091189,12.8567739 51.1367188,12.2421875 C50.2643186,11.6276011 49.8411457,10.8046927 49.8671875,9.7734375 L49.8828125,9.7265625 L51.3515625,9.7265625 C51.3515625,10.4557328 51.619789,11.0104148 52.15625,11.390625 C52.692711,11.7708352 53.3567669,11.9609375 54.1484375,11.9609375 C54.924483,11.9609375 55.5390602,11.7968766 55.9921875,11.46875 C56.4453148,11.1406234 56.671875,10.6953153 56.671875,10.1328125 Z M61.84375,13 L60.3046875,13 L60.3046875,11.421875 L61.84375,11.421875 L61.84375,13 Z M61.84375,6.15625 L60.3046875,6.15625 L60.3046875,4.578125 L61.84375,4.578125 L61.84375,6.15625 Z"></path>
                <path d="M74.9140625,9.828125 L69.703125,9.828125 L68.53125,13 L67.5625,13 L71.8828125,1.625 L72.765625,1.625 L77.0546875,13 L76.0859375,13 L74.9140625,9.828125 Z M70.015625,8.9921875 L74.609375,8.9921875 L72.34375,2.8359375 L72.296875,2.8359375 L70.015625,8.9921875 Z M79.5859375,13 L78.65625,13 L78.65625,0.8125 L79.5859375,0.8125 L79.5859375,13 Z M85.34375,13.1640625 C84.286453,13.1640625 83.4075556,12.7734414 82.7070312,11.9921875 C82.0065069,11.2109336 81.65625,10.2213602 81.65625,9.0234375 L81.65625,8.59375 C81.65625,7.38541062 82.0039028,6.38281648 82.6992188,5.5859375 C83.3945347,4.78905852 84.2369742,4.390625 85.2265625,4.390625 C86.263026,4.390625 87.078122,4.71874672 87.671875,5.375 C88.265628,6.03125328 88.5625,6.90624453 88.5625,8 L88.5625,8.796875 L82.59375,8.796875 L82.59375,9.0234375 C82.59375,9.97656727 82.8463516,10.7734343 83.3515625,11.4140625 C83.8567734,12.0546907 84.5208292,12.375 85.34375,12.375 C85.9270863,12.375 86.4244771,12.2942716 86.8359375,12.1328125 C87.2473979,11.9713534 87.5989569,11.7395848 87.890625,11.4375 L88.2890625,12.078125 C87.9713526,12.41146 87.5690129,12.6757803 87.0820312,12.8710937 C86.5950496,13.0664072 86.0156284,13.1640625 85.34375,13.1640625 Z M85.2265625,5.1875 C84.5338507,5.1875 83.9531273,5.45182027 83.484375,5.98046875 C83.0156227,6.50911723 82.7421879,7.17187102 82.6640625,7.96875 L82.6796875,8.0078125 L87.6328125,8.0078125 L87.6328125,7.7734375 C87.6328125,7.03905883 87.4166688,6.42448164 86.984375,5.9296875 C86.5520812,5.43489336 85.9661495,5.1875 85.2265625,5.1875 Z M94.3046875,5.3515625 L93.609375,5.3046875 C93.0208304,5.3046875 92.5377623,5.47005043 92.1601562,5.80078125 C91.7825502,6.13151207 91.5130216,6.58593461 91.3515625,7.1640625 L91.3515625,13 L90.4140625,13 L90.4140625,4.546875 L91.234375,4.546875 L91.3515625,5.953125 L91.3515625,6.046875 C91.5963554,5.52603906 91.9244771,5.11979312 92.3359375,4.828125 C92.7473979,4.53645687 93.2369763,4.390625 93.8046875,4.390625 C93.9244798,4.390625 94.040364,4.39973949 94.1523438,4.41796875 C94.2643235,4.43619801 94.3567705,4.45572906 94.4296875,4.4765625 L94.3046875,5.3515625 Z M97.578125,2.3828125 L97.578125,4.546875 L99.4375,4.546875 L99.4375,5.3125 L97.578125,5.3125 L97.578125,10.8203125 C97.578125,11.3723986 97.6783844,11.7643218 97.8789062,11.9960938 C98.0794281,12.2278657 98.3463525,12.34375 98.6796875,12.34375 C98.8307299,12.34375 98.9778639,12.3372396 99.1210938,12.3242188 C99.2643236,12.3111979 99.4296866,12.2890627 99.6171875,12.2578125 L99.7578125,12.953125 C99.6015617,13.0208337 99.4114595,13.0729165 99.1875,13.109375 C98.9635405,13.1458335 98.7395845,13.1640625 98.515625,13.1640625 C97.921872,13.1640625 97.4596371,12.9765644 97.1289062,12.6015625 C96.7981754,12.2265606 96.6328125,11.6328166 96.6328125,10.8203125 L96.6328125,5.3125 L95.171875,5.3125 L95.171875,4.546875 L96.6328125,4.546875 L96.6328125,2.3828125 L97.578125,2.3828125 Z M106.101562,4.546875 L106.1875,5.9453125 C106.458335,5.45051836 106.819008,5.06770969 107.269531,4.796875 C107.720054,4.52604031 108.257809,4.390625 108.882812,4.390625 C109.528649,4.390625 110.069008,4.54687344 110.503906,4.859375 C110.938804,5.17187656 111.249999,5.6484343 111.4375,6.2890625 C111.69271,5.69530953 112.055987,5.23047043 112.527344,4.89453125 C112.9987,4.55859207 113.572913,4.390625 114.25,4.390625 C115.151046,4.390625 115.846352,4.69010117 116.335938,5.2890625 C116.825523,5.88802383 117.070312,6.81509789 117.070312,8.0703125 L117.070312,13 L116.132812,13 L116.132812,8.0546875 C116.132812,7.01301562 115.949221,6.2773459 115.582031,5.84765625 C115.214842,5.4179666 114.703128,5.203125 114.046875,5.203125 C113.322913,5.203125 112.763023,5.42968523 112.367188,5.8828125 C111.971352,6.33593977 111.726563,6.91666312 111.632812,7.625 C111.632812,7.66145852 111.634115,7.71354133 111.636719,7.78125 C111.639323,7.84895867 111.640625,7.89843734 111.640625,7.9296875 L111.640625,13 L110.695312,13 L110.695312,8.0546875 C110.695312,7.03384906 110.509116,6.30338762 110.136719,5.86328125 C109.764321,5.42317488 109.252607,5.203125 108.601562,5.203125 C107.940101,5.203125 107.415367,5.37109207 107.027344,5.70703125 C106.639321,6.04297043 106.367188,6.49478883 106.210938,7.0625 L106.210938,13 L105.265625,13 L105.265625,4.546875 L106.101562,4.546875 Z M122.664062,13.1640625 C121.606766,13.1640625 120.727868,12.7734414 120.027344,11.9921875 C119.326819,11.2109336 118.976562,10.2213602 118.976562,9.0234375 L118.976562,8.59375 C118.976562,7.38541062 119.324215,6.38281648 120.019531,5.5859375 C120.714847,4.78905852 121.557287,4.390625 122.546875,4.390625 C123.583339,4.390625 124.398435,4.71874672 124.992188,5.375 C125.58594,6.03125328 125.882812,6.90624453 125.882812,8 L125.882812,8.796875 L119.914062,8.796875 L119.914062,9.0234375 C119.914062,9.97656727 120.166664,10.7734343 120.671875,11.4140625 C121.177086,12.0546907 121.841142,12.375 122.664062,12.375 C123.247399,12.375 123.74479,12.2942716 124.15625,12.1328125 C124.56771,11.9713534 124.919269,11.7395848 125.210938,11.4375 L125.609375,12.078125 C125.291665,12.41146 124.889325,12.6757803 124.402344,12.8710937 C123.915362,13.0664072 123.335941,13.1640625 122.664062,13.1640625 Z M122.546875,5.1875 C121.854163,5.1875 121.27344,5.45182027 120.804688,5.98046875 C120.335935,6.50911723 120.0625,7.17187102 119.984375,7.96875 L120,8.0078125 L124.953125,8.0078125 L124.953125,7.7734375 C124.953125,7.03905883 124.736981,6.42448164 124.304688,5.9296875 C123.872394,5.43489336 123.286462,5.1875 122.546875,5.1875 Z M132.796875,10.8515625 C132.796875,10.4557272 132.634116,10.1093765 132.308594,9.8125 C131.983071,9.51562352 131.395838,9.27343844 130.546875,9.0859375 C129.536453,8.86718641 128.790367,8.5781268 128.308594,8.21875 C127.826821,7.8593732 127.585938,7.35156578 127.585938,6.6953125 C127.585938,6.04947594 127.85807,5.50390848 128.402344,5.05859375 C128.946617,4.61327902 129.666662,4.390625 130.5625,4.390625 C131.51563,4.390625 132.270831,4.62629973 132.828125,5.09765625 C133.385419,5.56901277 133.651042,6.15885062 133.625,6.8671875 L133.609375,6.9140625 L132.742188,6.9140625 C132.742188,6.45051852 132.545575,6.04687672 132.152344,5.703125 C131.759113,5.35937328 131.22917,5.1875 130.5625,5.1875 C129.880205,5.1875 129.368491,5.33463395 129.027344,5.62890625 C128.686196,5.92317855 128.515625,6.26822719 128.515625,6.6640625 C128.515625,7.05468945 128.662759,7.37760289 128.957031,7.6328125 C129.251304,7.88802211 129.838537,8.1119782 130.71875,8.3046875 C131.723963,8.52864695 132.47656,8.83463348 132.976562,9.22265625 C133.476565,9.61067902 133.726562,10.1380175 133.726562,10.8046875 C133.726562,11.507816 133.441409,12.0768207 132.871094,12.5117187 C132.300778,12.9466168 131.54688,13.1640625 130.609375,13.1640625 C129.583328,13.1640625 128.777347,12.9192733 128.191406,12.4296875 C127.605466,11.9401017 127.328125,11.3567742 127.359375,10.6796875 L127.375,10.6328125 L128.234375,10.6328125 C128.270834,11.2421905 128.519529,11.6848945 128.980469,11.9609375 C129.441409,12.2369805 129.984372,12.375 130.609375,12.375 C131.286462,12.375 131.820311,12.226564 132.210938,11.9296875 C132.601564,11.632811 132.796875,11.2734396 132.796875,10.8515625 Z M140.945312,10.8515625 C140.945312,10.4557272 140.782554,10.1093765 140.457031,9.8125 C140.131509,9.51562352 139.544275,9.27343844 138.695312,9.0859375 C137.684891,8.86718641 136.938804,8.5781268 136.457031,8.21875 C135.975258,7.8593732 135.734375,7.35156578 135.734375,6.6953125 C135.734375,6.04947594 136.006508,5.50390848 136.550781,5.05859375 C137.095055,4.61327902 137.8151,4.390625 138.710938,4.390625 C139.664067,4.390625 140.419268,4.62629973 140.976562,5.09765625 C141.533857,5.56901277 141.799479,6.15885062 141.773438,6.8671875 L141.757812,6.9140625 L140.890625,6.9140625 C140.890625,6.45051852 140.694012,6.04687672 140.300781,5.703125 C139.90755,5.35937328 139.377608,5.1875 138.710938,5.1875 C138.028642,5.1875 137.516929,5.33463395 137.175781,5.62890625 C136.834634,5.92317855 136.664062,6.26822719 136.664062,6.6640625 C136.664062,7.05468945 136.811196,7.37760289 137.105469,7.6328125 C137.399741,7.88802211 137.986975,8.1119782 138.867188,8.3046875 C139.872401,8.52864695 140.624998,8.83463348 141.125,9.22265625 C141.625002,9.61067902 141.875,10.1380175 141.875,10.8046875 C141.875,11.507816 141.589847,12.0768207 141.019531,12.5117187 C140.449216,12.9466168 139.695317,13.1640625 138.757812,13.1640625 C137.731766,13.1640625 136.925784,12.9192733 136.339844,12.4296875 C135.753903,11.9401017 135.476562,11.3567742 135.507812,10.6796875 L135.523438,10.6328125 L136.382812,10.6328125 C136.419271,11.2421905 136.667966,11.6848945 137.128906,11.9609375 C137.589846,12.2369805 138.132809,12.375 138.757812,12.375 C139.434899,12.375 139.968748,12.226564 140.359375,11.9296875 C140.750002,11.632811 140.945312,11.2734396 140.945312,10.8515625 Z M149.382812,13 C149.320312,12.7135402 149.276042,12.4661469 149.25,12.2578125 C149.223958,12.0494781 149.210938,11.8385427 149.210938,11.625 C148.898436,12.0677105 148.481773,12.4348944 147.960938,12.7265625 C147.440102,13.0182306 146.85417,13.1640625 146.203125,13.1640625 C145.380204,13.1640625 144.740888,12.9453147 144.285156,12.5078125 C143.829425,12.0703103 143.601562,11.4843787 143.601562,10.75 C143.601562,9.96874609 143.938799,9.34375234 144.613281,8.875 C145.287764,8.40624766 146.197911,8.171875 147.34375,8.171875 L149.210938,8.171875 L149.210938,7.125 C149.210938,6.52083031 149.016929,6.04687672 148.628906,5.703125 C148.240883,5.35937328 147.69792,5.1875 147,5.1875 C146.348955,5.1875 145.808596,5.35156086 145.378906,5.6796875 C144.949217,6.00781414 144.734375,6.4088518 144.734375,6.8828125 L143.875,6.875 L143.859375,6.828125 C143.828125,6.19791352 144.115882,5.63411707 144.722656,5.13671875 C145.32943,4.63932043 146.101558,4.390625 147.039062,4.390625 C147.971359,4.390625 148.721351,4.6276018 149.289062,5.1015625 C149.856774,5.5755232 150.140625,6.25520391 150.140625,7.140625 L150.140625,11.296875 C150.140625,11.5937515 150.157552,11.8828111 150.191406,12.1640625 C150.225261,12.4453139 150.28125,12.723957 150.359375,13 L149.382812,13 Z M146.3125,12.3359375 C146.984378,12.3359375 147.578122,12.178387 148.09375,11.8632812 C148.609378,11.5481755 148.98177,11.1458358 149.210938,10.65625 L149.210938,8.890625 L147.328125,8.890625 C146.479162,8.890625 145.800784,9.07161277 145.292969,9.43359375 C144.785154,9.79557473 144.53125,10.244789 144.53125,10.78125 C144.53125,11.2395856 144.688801,11.6132798 145.003906,11.9023438 C145.319012,12.1914077 145.755206,12.3359375 146.3125,12.3359375 Z M152.265625,8.84375 C152.265625,7.49478492 152.553383,6.41536863 153.128906,5.60546875 C153.70443,4.79556887 154.505203,4.390625 155.53125,4.390625 C156.130211,4.390625 156.648435,4.5221341 157.085938,4.78515625 C157.52344,5.0481784 157.885415,5.41926844 158.171875,5.8984375 L158.28125,4.546875 L159.070312,4.546875 L159.070312,12.890625 C159.070312,13.9791721 158.769534,14.8385385 158.167969,15.46875 C157.566403,16.0989615 156.729172,16.4140625 155.65625,16.4140625 C155.249998,16.4140625 154.817711,16.3645838 154.359375,16.265625 C153.901039,16.1666662 153.500002,16.0312509 153.15625,15.859375 L153.398438,15.0703125 C153.731773,15.23698 154.083331,15.3632808 154.453125,15.4492188 C154.822919,15.5351567 155.218748,15.578125 155.640625,15.578125 C156.463546,15.578125 157.084633,15.3411482 157.503906,14.8671875 C157.923179,14.3932268 158.132812,13.7343792 158.132812,12.890625 L158.132812,11.828125 C157.846353,12.2552105 157.484377,12.5846343 157.046875,12.8164062 C156.609373,13.0481782 156.098961,13.1640625 155.515625,13.1640625 C154.499995,13.1640625 153.70443,12.7864621 153.128906,12.03125 C152.553383,11.2760379 152.265625,10.2682355 152.265625,9.0078125 L152.265625,8.84375 Z M153.203125,9.0078125 C153.203125,10.0234426 153.411456,10.8346324 153.828125,11.4414062 C154.244794,12.0481801 154.864579,12.3515625 155.6875,12.3515625 C156.29167,12.3515625 156.795571,12.213543 157.199219,11.9375 C157.602867,11.661457 157.914061,11.2812524 158.132812,10.796875 L158.132812,6.875 C157.929686,6.38541422 157.631512,5.98437656 157.238281,5.671875 C156.84505,5.35937344 156.333336,5.203125 155.703125,5.203125 C154.880204,5.203125 154.257815,5.54166328 153.835938,6.21875 C153.41406,6.89583672 153.203125,7.77082797 153.203125,8.84375 L153.203125,9.0078125 Z M164.71875,13.1640625 C163.661453,13.1640625 162.782556,12.7734414 162.082031,11.9921875 C161.381507,11.2109336 161.03125,10.2213602 161.03125,9.0234375 L161.03125,8.59375 C161.03125,7.38541062 161.378903,6.38281648 162.074219,5.5859375 C162.769535,4.78905852 163.611974,4.390625 164.601562,4.390625 C165.638026,4.390625 166.453122,4.71874672 167.046875,5.375 C167.640628,6.03125328 167.9375,6.90624453 167.9375,8 L167.9375,8.796875 L161.96875,8.796875 L161.96875,9.0234375 C161.96875,9.97656727 162.221352,10.7734343 162.726562,11.4140625 C163.231773,12.0546907 163.895829,12.375 164.71875,12.375 C165.302086,12.375 165.799477,12.2942716 166.210938,12.1328125 C166.622398,11.9713534 166.973957,11.7395848 167.265625,11.4375 L167.664062,12.078125 C167.346353,12.41146 166.944013,12.6757803 166.457031,12.8710937 C165.97005,13.0664072 165.390628,13.1640625 164.71875,13.1640625 Z M164.601562,5.1875 C163.908851,5.1875 163.328127,5.45182027 162.859375,5.98046875 C162.390623,6.50911723 162.117188,7.17187102 162.039062,7.96875 L162.054688,8.0078125 L167.007812,8.0078125 L167.007812,7.7734375 C167.007812,7.03905883 166.791669,6.42448164 166.359375,5.9296875 C165.927081,5.43489336 165.34115,5.1875 164.601562,5.1875 Z M173.3125,8.84375 C173.3125,7.49478492 173.600258,6.41536863 174.175781,5.60546875 C174.751305,4.79556887 175.552078,4.390625 176.578125,4.390625 C177.177086,4.390625 177.69531,4.5221341 178.132812,4.78515625 C178.570315,5.0481784 178.93229,5.41926844 179.21875,5.8984375 L179.328125,4.546875 L180.117188,4.546875 L180.117188,12.890625 C180.117188,13.9791721 179.816409,14.8385385 179.214844,15.46875 C178.613278,16.0989615 177.776047,16.4140625 176.703125,16.4140625 C176.296873,16.4140625 175.864586,16.3645838 175.40625,16.265625 C174.947914,16.1666662 174.546877,16.0312509 174.203125,15.859375 L174.445312,15.0703125 C174.778648,15.23698 175.130206,15.3632808 175.5,15.4492188 C175.869794,15.5351567 176.265623,15.578125 176.6875,15.578125 C177.510421,15.578125 178.131508,15.3411482 178.550781,14.8671875 C178.970054,14.3932268 179.179688,13.7343792 179.179688,12.890625 L179.179688,11.828125 C178.893228,12.2552105 178.531252,12.5846343 178.09375,12.8164062 C177.656248,13.0481782 177.145836,13.1640625 176.5625,13.1640625 C175.54687,13.1640625 174.751305,12.7864621 174.175781,12.03125 C173.600258,11.2760379 173.3125,10.2682355 173.3125,9.0078125 L173.3125,8.84375 Z M174.25,9.0078125 C174.25,10.0234426 174.458331,10.8346324 174.875,11.4414062 C175.291669,12.0481801 175.911454,12.3515625 176.734375,12.3515625 C177.338545,12.3515625 177.842446,12.213543 178.246094,11.9375 C178.649742,11.661457 178.960936,11.2812524 179.179688,10.796875 L179.179688,6.875 C178.976561,6.38541422 178.678387,5.98437656 178.285156,5.671875 C177.891925,5.35937344 177.380211,5.203125 176.75,5.203125 C175.927079,5.203125 175.30469,5.54166328 174.882812,6.21875 C174.460935,6.89583672 174.25,7.77082797 174.25,8.84375 L174.25,9.0078125 Z M182.070312,8.6484375 C182.070312,7.40363961 182.411455,6.38281648 183.09375,5.5859375 C183.776045,4.78905852 184.679682,4.390625 185.804688,4.390625 C186.934901,4.390625 187.841142,4.78905852 188.523438,5.5859375 C189.205733,6.38281648 189.546875,7.40363961 189.546875,8.6484375 L189.546875,8.90625 C189.546875,10.1562562 189.207035,11.1783814 188.527344,11.9726562 C187.847653,12.7669311 186.945318,13.1640625 185.820312,13.1640625 C184.68489,13.1640625 183.776045,12.7669311 183.09375,11.9726562 C182.411455,11.1783814 182.070312,10.1562562 182.070312,8.90625 L182.070312,8.6484375 Z M183.007812,8.90625 C183.007812,9.88542156 183.255206,10.70833 183.75,11.375 C184.244794,12.04167 184.934891,12.375 185.820312,12.375 C186.690109,12.375 187.373695,12.04167 187.871094,11.375 C188.368492,10.70833 188.617188,9.88542156 188.617188,8.90625 L188.617188,8.6484375 C188.617188,7.68489102 188.36719,6.86719086 187.867188,6.1953125 C187.367185,5.52343414 186.679692,5.1875 185.804688,5.1875 C184.929683,5.1875 184.244794,5.52343414 183.75,6.1953125 C183.255206,6.86719086 183.007812,7.68489102 183.007812,8.6484375 L183.007812,8.90625 Z M194.671875,13.1640625 C193.614578,13.1640625 192.735681,12.7734414 192.035156,11.9921875 C191.334632,11.2109336 190.984375,10.2213602 190.984375,9.0234375 L190.984375,8.59375 C190.984375,7.38541062 191.332028,6.38281648 192.027344,5.5859375 C192.72266,4.78905852 193.565099,4.390625 194.554688,4.390625 C195.591151,4.390625 196.406247,4.71874672 197,5.375 C197.593753,6.03125328 197.890625,6.90624453 197.890625,8 L197.890625,8.796875 L191.921875,8.796875 L191.921875,9.0234375 C191.921875,9.97656727 192.174477,10.7734343 192.679688,11.4140625 C193.184898,12.0546907 193.848954,12.375 194.671875,12.375 C195.255211,12.375 195.752602,12.2942716 196.164062,12.1328125 C196.575523,11.9713534 196.927082,11.7395848 197.21875,11.4375 L197.617188,12.078125 C197.299478,12.41146 196.897138,12.6757803 196.410156,12.8710937 C195.923175,13.0664072 195.343753,13.1640625 194.671875,13.1640625 Z M194.554688,5.1875 C193.861976,5.1875 193.281252,5.45182027 192.8125,5.98046875 C192.343748,6.50911723 192.070313,7.17187102 191.992188,7.96875 L192.007812,8.0078125 L196.960938,8.0078125 L196.960938,7.7734375 C196.960938,7.03905883 196.744794,6.42448164 196.3125,5.9296875 C195.880206,5.43489336 195.294275,5.1875 194.554688,5.1875 Z M204.804687,10.8515625 C204.804687,10.4557272 204.641929,10.1093765 204.316406,9.8125 C203.990884,9.51562352 203.40365,9.27343844 202.554687,9.0859375 C201.544266,8.86718641 200.798179,8.5781268 200.316406,8.21875 C199.834633,7.8593732 199.59375,7.35156578 199.59375,6.6953125 C199.59375,6.04947594 199.865883,5.50390848 200.410156,5.05859375 C200.95443,4.61327902 201.674475,4.390625 202.570312,4.390625 C203.523442,4.390625 204.278643,4.62629973 204.835937,5.09765625 C205.393232,5.56901277 205.658854,6.15885062 205.632812,6.8671875 L205.617187,6.9140625 L204.75,6.9140625 C204.75,6.45051852 204.553387,6.04687672 204.160156,5.703125 C203.766925,5.35937328 203.236982,5.1875 202.570312,5.1875 C201.888017,5.1875 201.376304,5.33463395 201.035156,5.62890625 C200.694009,5.92317855 200.523437,6.26822719 200.523437,6.6640625 C200.523437,7.05468945 200.670571,7.37760289 200.964844,7.6328125 C201.259116,7.88802211 201.84635,8.1119782 202.726562,8.3046875 C203.731776,8.52864695 204.484372,8.83463348 204.984375,9.22265625 C205.484377,9.61067902 205.734375,10.1380175 205.734375,10.8046875 C205.734375,11.507816 205.449222,12.0768207 204.878906,12.5117187 C204.308591,12.9466168 203.554692,13.1640625 202.617187,13.1640625 C201.591141,13.1640625 200.785159,12.9192733 200.199219,12.4296875 C199.613278,11.9401017 199.335937,11.3567742 199.367187,10.6796875 L199.382812,10.6328125 L200.242187,10.6328125 C200.278646,11.2421905 200.527341,11.6848945 200.988281,11.9609375 C201.449221,12.2369805 201.992184,12.375 202.617187,12.375 C203.294274,12.375 203.828123,12.226564 204.21875,11.9296875 C204.609377,11.632811 204.804687,11.2734396 204.804687,10.8515625 Z M212.71875,5.9921875 C213.000001,5.48697664 213.374998,5.09375141 213.84375,4.8125 C214.312502,4.53124859 214.859372,4.390625 215.484375,4.390625 C216.375004,4.390625 217.058591,4.66666391 217.535156,5.21875 C218.011721,5.77083609 218.25,6.62759836 218.25,7.7890625 L218.25,13 L217.3125,13 L217.3125,7.7734375 C217.3125,6.85676625 217.131512,6.19922074 216.769531,5.80078125 C216.40755,5.40234176 215.908857,5.203125 215.273438,5.203125 C214.632809,5.203125 214.097658,5.37109207 213.667969,5.70703125 C213.238279,6.04297043 212.921876,6.48958055 212.71875,7.046875 L212.71875,13 L211.78125,13 L211.78125,0.8125 L212.71875,0.8125 L212.71875,5.9921875 Z M223.859375,13.1640625 C222.802078,13.1640625 221.923181,12.7734414 221.222656,11.9921875 C220.522132,11.2109336 220.171875,10.2213602 220.171875,9.0234375 L220.171875,8.59375 C220.171875,7.38541062 220.519528,6.38281648 221.214844,5.5859375 C221.91016,4.78905852 222.752599,4.390625 223.742188,4.390625 C224.778651,4.390625 225.593747,4.71874672 226.1875,5.375 C226.781253,6.03125328 227.078125,6.90624453 227.078125,8 L227.078125,8.796875 L221.109375,8.796875 L221.109375,9.0234375 C221.109375,9.97656727 221.361977,10.7734343 221.867188,11.4140625 C222.372398,12.0546907 223.036454,12.375 223.859375,12.375 C224.442711,12.375 224.940102,12.2942716 225.351562,12.1328125 C225.763023,11.9713534 226.114582,11.7395848 226.40625,11.4375 L226.804688,12.078125 C226.486978,12.41146 226.084638,12.6757803 225.597656,12.8710937 C225.110675,13.0664072 224.531253,13.1640625 223.859375,13.1640625 Z M223.742188,5.1875 C223.049476,5.1875 222.468752,5.45182027 222,5.98046875 C221.531248,6.50911723 221.257813,7.17187102 221.179688,7.96875 L221.195312,8.0078125 L226.148438,8.0078125 L226.148438,7.7734375 C226.148438,7.03905883 225.932294,6.42448164 225.5,5.9296875 C225.067706,5.43489336 224.481775,5.1875 223.742188,5.1875 Z M232.820312,5.3515625 L232.125,5.3046875 C231.536455,5.3046875 231.053387,5.47005043 230.675781,5.80078125 C230.298175,6.13151207 230.028647,6.58593461 229.867188,7.1640625 L229.867188,13 L228.929688,13 L228.929688,4.546875 L229.75,4.546875 L229.867188,5.953125 L229.867188,6.046875 C230.11198,5.52603906 230.440102,5.11979312 230.851562,4.828125 C231.263023,4.53645687 231.752601,4.390625 232.320312,4.390625 C232.440105,4.390625 232.555989,4.39973949 232.667969,4.41796875 C232.779948,4.43619801 232.872395,4.45572906 232.945312,4.4765625 L232.820312,5.3515625 Z M237.398438,13.1640625 C236.341141,13.1640625 235.462243,12.7734414 234.761719,11.9921875 C234.061194,11.2109336 233.710938,10.2213602 233.710938,9.0234375 L233.710938,8.59375 C233.710938,7.38541062 234.05859,6.38281648 234.753906,5.5859375 C235.449222,4.78905852 236.291662,4.390625 237.28125,4.390625 C238.317714,4.390625 239.13281,4.71874672 239.726562,5.375 C240.320315,6.03125328 240.617188,6.90624453 240.617188,8 L240.617188,8.796875 L234.648438,8.796875 L234.648438,9.0234375 C234.648438,9.97656727 234.901039,10.7734343 235.40625,11.4140625 C235.911461,12.0546907 236.575517,12.375 237.398438,12.375 C237.981774,12.375 238.479165,12.2942716 238.890625,12.1328125 C239.302085,11.9713534 239.653644,11.7395848 239.945312,11.4375 L240.34375,12.078125 C240.02604,12.41146 239.6237,12.6757803 239.136719,12.8710937 C238.649737,13.0664072 238.070316,13.1640625 237.398438,13.1640625 Z M237.28125,5.1875 C236.588538,5.1875 236.007815,5.45182027 235.539062,5.98046875 C235.07031,6.50911723 234.796875,7.17187102 234.71875,7.96875 L234.734375,8.0078125 L239.6875,8.0078125 L239.6875,7.7734375 C239.6875,7.03905883 239.471356,6.42448164 239.039062,5.9296875 C238.606769,5.43489336 238.020837,5.1875 237.28125,5.1875 Z"></path>
            </g>
            <g transform="translate(440.000000, 76.000000)" fill="#000000">
                <path d="M7.5703125,9.0703125 L2.8046875,9.0703125 L1.7265625,12 L0.15625,12 L4.5546875,0.625 L5.875,0.625 L10.203125,12 L8.6328125,12 L7.5703125,9.0703125 Z M3.28125,7.78125 L7.109375,7.78125 L5.234375,2.6015625 L5.1875,2.6015625 L3.28125,7.78125 Z M19.8046875,8.359375 L19.8203125,8.40625 C19.8411459,9.47396367 19.4661497,10.3671839 18.6953125,11.0859375 C17.9244753,11.8046911 16.9062563,12.1640625 15.640625,12.1640625 C14.3541602,12.1640625 13.3059936,11.7083379 12.4960938,10.796875 C11.6861939,9.88541211 11.28125,8.72917367 11.28125,7.328125 L11.28125,5.3046875 C11.28125,3.90363883 11.6861939,2.74609832 12.4960938,1.83203125 C13.3059936,0.91796418 14.3541602,0.4609375 15.640625,0.4609375 C16.9270898,0.4609375 17.950517,0.803381992 18.7109375,1.48828125 C19.471358,2.17318051 19.8411459,3.08072352 19.8203125,4.2109375 L19.8046875,4.2578125 L18.328125,4.2578125 C18.328125,3.46093352 18.0937523,2.83073148 17.625,2.3671875 C17.1562477,1.90364352 16.4947959,1.671875 15.640625,1.671875 C14.7812457,1.671875 14.0963567,2.0182257 13.5859375,2.7109375 C13.0755183,3.4036493 12.8203125,4.2630157 12.8203125,5.2890625 L12.8203125,7.328125 C12.8203125,8.36458852 13.0755183,9.2291632 13.5859375,9.921875 C14.0963567,10.6145868 14.7812457,10.9609375 15.640625,10.9609375 C16.4947959,10.9609375 17.1562477,10.7304711 17.625,10.2695312 C18.0937523,9.80859145 18.328125,9.17187906 18.328125,8.359375 L19.8046875,8.359375 Z M29.375,1.8359375 L25.71875,1.8359375 L25.71875,12 L24.1796875,12 L24.1796875,1.8359375 L20.53125,1.8359375 L20.53125,0.625 L29.375,0.625 L29.375,1.8359375 Z M32.671875,12 L31.125,12 L31.125,0.625 L32.671875,0.625 L32.671875,12 Z M44.1796875,7.328125 C44.1796875,8.71875695 43.7487022,9.87239125 42.8867188,10.7890625 C42.0247353,11.7057338 40.9062569,12.1640625 39.53125,12.1640625 C38.2031184,12.1640625 37.1237021,11.7057338 36.2929688,10.7890625 C35.4622354,9.87239125 35.046875,8.71875695 35.046875,7.328125 L35.046875,5.3046875 C35.046875,3.91926391 35.4622354,2.76562961 36.2929688,1.84375 C37.1237021,0.921870391 38.2031184,0.4609375 39.53125,0.4609375 C40.9062569,0.4609375 42.0247353,0.92056832 42.8867188,1.83984375 C43.7487022,2.75911918 44.1796875,3.91405555 44.1796875,5.3046875 L44.1796875,7.328125 Z M42.640625,5.2890625 C42.640625,4.24739063 42.3593778,3.3932325 41.796875,2.7265625 C41.2343722,2.0598925 40.4791714,1.7265625 39.53125,1.7265625 C38.6354122,1.7265625 37.9205756,2.0598925 37.3867188,2.7265625 C36.8528619,3.3932325 36.5859375,4.24739063 36.5859375,5.2890625 L36.5859375,7.328125 C36.5859375,8.38021359 36.8528619,9.23958 37.3867188,9.90625 C37.9205756,10.57292 38.6354122,10.90625 39.53125,10.90625 C40.4843798,10.90625 41.2408826,10.5742221 41.8007812,9.91015625 C42.3606799,9.24609043 42.640625,8.38542195 42.640625,7.328125 L42.640625,5.2890625 Z M55.078125,12 L53.5390625,12 L48.0625,3.203125 L48.015625,3.21875 L48.015625,12 L46.4765625,12 L46.4765625,0.625 L48.015625,0.625 L53.4921875,9.40625 L53.5390625,9.390625 L53.5390625,0.625 L55.078125,0.625 L55.078125,12 Z M63.40625,10.796875 L68.7890625,10.796875 L68.7890625,12 L61.8671875,12 L61.8671875,0.625 L63.40625,0.625 L63.40625,10.796875 Z M72.1328125,12 L70.5859375,12 L70.5859375,0.625 L72.1328125,0.625 L72.1328125,12 Z M83.6328125,12 L82.09375,12 L76.6171875,3.203125 L76.5703125,3.21875 L76.5703125,12 L75.03125,12 L75.03125,0.625 L76.5703125,0.625 L82.046875,9.40625 L82.09375,9.390625 L82.09375,0.625 L83.6328125,0.625 L83.6328125,12 Z M89.3125,6.8671875 L87.984375,6.8671875 L87.984375,12 L86.4453125,12 L86.4453125,0.625 L87.984375,0.625 L87.984375,5.65625 L89.171875,5.65625 L93.2421875,0.625 L94.9453125,0.625 L94.96875,0.6640625 L90.5546875,6.125 L95.2890625,11.9609375 L95.265625,12 L93.4296875,12 L89.3125,6.8671875 Z"></path>
            </g>
            <g transform="translate(19.000000, 74.000000)">
                <g>
                    <mask id="mask-2" fill="white">
                        <use xlink:href="#path-1"></use>
                    </mask>
                    <g></g>
                    <path d="M6.34551111,4.74915556 C6.34551111,4.92782222 6.48417778,5.07626667 6.65306667,5.07626667 L8.55617778,5.07626667 C8.73484444,5.07626667 8.88328889,4.92782222 8.88328889,4.74915556 L8.88328889,2.8656 C8.88328889,2.68693333 8.73484444,2.53848889 8.55617778,2.53848889 L6.65306667,2.53848889 C6.48417778,2.53848889 6.34551111,2.68693333 6.34551111,2.8656 L6.34551111,4.74915556 Z M6.1864,12.4336 C6.1864,12.5029333 6.21662222,12.5722667 6.28595556,12.6122667 C6.34551111,12.6611556 6.43528889,12.6913778 6.52417778,12.6913778 L8.70462222,12.6913778 C8.7944,12.6913778 8.88328889,12.6611556 8.94373333,12.6122667 C9.01217778,12.5722667 9.0424,12.5029333 9.0424,12.4336 L8.8744,6.27626667 C8.8744,6.1376 8.72506667,6.02737778 8.53662222,6.02737778 L6.70195556,6.02737778 C6.52417778,6.02737778 6.37484444,6.1376 6.36506667,6.27626667 L6.1864,12.4336 Z M-0.000266666667,7.61493333 C-0.000266666667,3.41048889 3.4104,-0.000177777778 7.61484444,-0.000177777778 C11.8184,-0.000177777778 15.2290667,3.41048889 15.2290667,7.61493333 C15.2290667,11.8184889 11.8184,15.2291556 7.61484444,15.2291556 C3.4104,15.2291556 -0.000266666667,11.8184889 -0.000266666667,7.61493333 L-0.000266666667,7.61493333 Z" fill="#424242" fill-rule="nonzero" mask="url(#mask-2)"></path>
                </g>
            </g>
            <g transform="translate(554.000000, 74.000000)" font-size="16" font-family="FontAwesome" fill="#000000" font-weight="normal">
                <text>
                    <tspan x="0" y="14"></tspan>
                </text>
            </g>
            <path d="M310,17 L310,65.5480783" stroke="#EC407A"></path>
            <g transform="translate(481.870744, 112.748603) rotate(-142.000000) translate(-481.870744, -112.748603) translate(476.870744, 85.248603)">
                <g>
                    <g fill-opacity="0.2" fill="#EC407A">
                        <circle cx="5" cy="5.56140887" r="5"></circle>
                    </g>
                    <circle stroke="#EC407A" cx="5" cy="5.56140887" r="4.5"></circle>
                </g>
                <path d="M5,10.1228177 L5,54.4123447" stroke="#EC407A"></path>
            </g>
            <g transform="translate(189.870744, 115.748603) scale(-1, 1) rotate(-142.000000) translate(-189.870744, -115.748603) translate(184.870744, 88.248603)">
                <g>
                    <g fill-opacity="0.2" fill="#EC407A">
                        <circle cx="5" cy="5.56140887" r="5"></circle>
                    </g>
                    <circle stroke="#EC407A" cx="5" cy="5.56140887" r="4.5"></circle>
                </g>
                <path d="M5,10.1228177 L5,54.4123447" stroke="#EC407A"></path>
            </g>
            <g transform="translate(94.309776, 114.908767) rotate(-142.000000) translate(-94.309776, -114.908767) translate(81.309776, 92.908767)">
                <g>
                    <g fill-opacity="0.2" fill="#EC407A">
                        <circle cx="5" cy="5.56140887" r="5"></circle>
                    </g>
                    <circle stroke="#EC407A" cx="5" cy="5.56140887" r="4.5"></circle>
                </g>
                <path d="M6.86735312,9.78474701 L25.4959973,43.6503184" stroke="#EC407A"></path>
            </g>
            <g transform="translate(27.000000, 45.000000) rotate(0.000000) translate(-27.000000, -45.000000) translate(22.000000, 22.000000)">
                <g>
                    <g fill-opacity="0.2" fill="#EC407A">
                        <circle cx="5" cy="5.55024362" r="5"></circle>
                    </g>
                    <circle stroke="#EC407A" cx="5" cy="5.55024362" r="4.5"></circle>
                </g>
                <path d="M5,9.28230542 L5,45.5191911" stroke="#EC407A"></path>
            </g>
            <g transform="translate(561.000000, 49.000000) scale(-1, 1) translate(-561.000000, -49.000000) translate(556.000000, 30.000000)">
                <g>
                    <g fill-opacity="0.2" fill="#EC407A">
                        <circle cx="5" cy="5.37496819" r="5"></circle>
                    </g>
                    <circle stroke="#EC407A" cx="5" cy="5.37496819" r="4.5"></circle>
                </g>
                <path d="M5,9.74993637 L5,37.1492492" stroke="#EC407A"></path>
            </g>
        </g>
    </g>
</svg>