<?xml version="1.0" encoding="UTF-8" standalone="no"?>
<svg width="597px" height="188px" viewBox="0 0 597 188" version="1.1" xmlns="http://www.w3.org/2000/svg" xmlns:xlink="http://www.w3.org/1999/xlink">
    <!-- Generator: Sketch 46.2 (44496) - http://www.bohemiancoding.com/sketch -->
    <title>alert-bar-specs</title>
    <desc>Created with Sketch.</desc>
    <defs>
        <polygon id="path-1" points="7.61453333 15.2291556 0 15.2291556 0 -0.000177777778 7.61453333 -0.000177777778 15.2290667 -0.000177777778 15.2290667 15.2291556"></polygon>
        <polygon id="path-3" points="7 3.5 0 7 0 0"></polygon>
        <circle id="path-4" cx="3.5" cy="3.5" r="3.5"></circle>
        <polygon id="path-5" points="7 3.5 0 7 0 0"></polygon>
        <circle id="path-6" cx="3.5" cy="3.5" r="3.5"></circle>
        <polygon id="path-7" points="7 3.5 0 7 0 0"></polygon>
        <circle id="path-8" cx="3.5" cy="3.5" r="3.5"></circle>
        <polygon id="path-9" points="7 3.5 0 7 0 0"></polygon>
        <circle id="path-10" cx="3.5" cy="3.5" r="3.5"></circle>
        <polygon id="path-11" points="7 3.5 0 7 0 0"></polygon>
        <circle id="path-12" cx="3.5" cy="3.5" r="3.5"></circle>
        <polygon id="path-13" points="7 3.5 0 7 0 0"></polygon>
        <circle id="path-14" cx="3.5" cy="3.5" r="3.5"></circle>
        <polygon id="path-15" points="7 3.5 0 7 0 0"></polygon>
        <circle id="path-16" cx="3.5" cy="3.5" r="3.5"></circle>
        <polygon id="path-17" points="7 3.5 0 7 0 0"></polygon>
        <circle id="path-18" cx="3.5" cy="3.5" r="3.5"></circle>
        <polygon id="path-19" points="7 3.5 0 7 0 0"></polygon>
        <circle id="path-20" cx="3.5" cy="3.5" r="3.5"></circle>
    </defs>
    <g stroke="none" stroke-width="1" fill="none" fill-rule="evenodd">
        <g transform="translate(-401.000000, -1436.000000)">
            <g transform="translate(400.000000, 1433.000000)">
                <text font-family="Roboto-Regular, Roboto" font-size="14" font-weight="normal" line-spacing="18" fill="#EC407A">
                    <tspan x="326" y="15">top &amp; bottom padding:</tspan>
                    <tspan x="326" y="33">12px / 0.875em</tspan>
                </text>
                <text font-family="Roboto-Regular, Roboto" font-size="14" font-weight="normal" line-spacing="18" fill="#EC407A">
                    <tspan x="12" y="189">16px</tspan>
                </text>
                <text font-family="Roboto-Regular, Roboto" font-size="14" font-weight="normal" line-spacing="18" fill="#EC407A">
                    <tspan x="510" y="189">16px</tspan>
                </text>
                <text font-family="Roboto-Regular, Roboto" font-size="14" font-weight="normal" line-spacing="18" fill="#EC407A">
                    <tspan x="568" y="106">48px</tspan>
                </text>
                <text font-family="Roboto-Regular, Roboto" font-size="14" font-weight="normal" line-spacing="18" fill="#EC407A">
                    <tspan x="156" y="189">Roboto Medium, UpperCase, 16px / 1em</tspan>
                </text>
                <text font-family="Roboto-Regular, Roboto" font-size="14" font-weight="normal" line-spacing="18" fill="#EC407A">
                    <tspan x="0" y="15">icon</tspan>
                    <tspan x="0" y="33">16x16 px</tspan>
                </text>
                <text font-family="Roboto-Regular, Roboto" font-size="14" font-weight="normal" line-spacing="18" fill="#EC407A">
                    <tspan x="92" y="15">Roboto Light, 16px / 1em</tspan>
                    <tspan x="92" y="33">line height, 20px / 1.25em</tspan>
                </text>
                <polygon fill="#DDDDDD" points="5 124 547 124 547 76 5 76"></polygon>
                <text font-family="Roboto-Medium, Roboto" font-size="16" font-weight="400" line-spacing="24" fill="#000000">
                    <tspan x="53" y="105">STATUS: </tspan>
                    <tspan x="120.3125" y="105" font-family="Roboto-Light, Roboto" font-weight="300">Alert message goes here </tspan>
                </text>
                <text font-family="Roboto-Medium, Roboto" font-size="16" font-weight="400" line-spacing="24" fill="#000000">
                    <tspan x="405" y="105">ACTION LINK</tspan>
                </text>
                <rect fill="#FBC02D" x="22" y="76" width="479" height="12"></rect>
                <rect fill="#FBC02D" x="22" y="112" width="479" height="12"></rect>
                <text font-family="Roboto-Regular, Roboto" font-size="14" font-weight="normal" line-spacing="18" fill="#EC407A">
                    <tspan x="483" y="54">Clickable area</tspan>
                </text>
                <rect fill="#FBC02D" x="5" y="76" width="16" height="48"></rect>
                <rect fill="#FF5854" x="531" y="76" width="16" height="48"></rect>
                <rect fill="#FF5854" x="502" y="76" width="16" height="48"></rect>
                <rect fill="#FF5854" x="38" y="88" width="16" height="24"></rect>
                <g transform="translate(22.000000, 92.000000)">
                    <mask id="mask-2" fill="white">
                        <use xlink:href="#path-1"></use>
                    </mask>
                    <g></g>
                    <path d="M6.34551111,4.74915556 C6.34551111,4.92782222 6.48417778,5.07626667 6.65306667,5.07626667 L8.55617778,5.07626667 C8.73484444,5.07626667 8.88328889,4.92782222 8.88328889,4.74915556 L8.88328889,2.8656 C8.88328889,2.68693333 8.73484444,2.53848889 8.55617778,2.53848889 L6.65306667,2.53848889 C6.48417778,2.53848889 6.34551111,2.68693333 6.34551111,2.8656 L6.34551111,4.74915556 Z M6.1864,12.4336 C6.1864,12.5029333 6.21662222,12.5722667 6.28595556,12.6122667 C6.34551111,12.6611556 6.43528889,12.6913778 6.52417778,12.6913778 L8.70462222,12.6913778 C8.7944,12.6913778 8.88328889,12.6611556 8.94373333,12.6122667 C9.01217778,12.5722667 9.0424,12.5029333 9.0424,12.4336 L8.8744,6.27626667 C8.8744,6.1376 8.72506667,6.02737778 8.53662222,6.02737778 L6.70195556,6.02737778 C6.52417778,6.02737778 6.37484444,6.1376 6.36506667,6.27626667 L6.1864,12.4336 Z M-0.000266666667,7.61493333 C-0.000266666667,3.41048889 3.4104,-0.000177777778 7.61484444,-0.000177777778 C11.8184,-0.000177777778 15.2290667,3.41048889 15.2290667,7.61493333 C15.2290667,11.8184889 11.8184,15.2291556 7.61484444,15.2291556 C3.4104,15.2291556 -0.000266666667,11.8184889 -0.000266666667,7.61493333 L-0.000266666667,7.61493333 Z" fill="#424242" mask="url(#mask-2)"></path>
                </g>
                <text font-family="FontAwesome" font-size="16" font-weight="normal" fill="#000000">
                    <tspan x="518" y="105"></tspan>
                </text>
                <g transform="translate(548.000000, 76.000000)" stroke="#EC407A">
                    <path d="M0,0.158940397 C15.9363967,0.158940397 0.051463988,24 16,24"></path>
                    <path d="M0,24 C15.9363967,24 0.051463988,47.8410596 16,47.8410596" transform="translate(8.000000, 35.920530) scale(1, -1) translate(-8.000000, -35.920530) "></path>
                </g>
                <g transform="translate(525.000000, 65.000000) rotate(-90.000000) translate(-525.000000, -65.000000) translate(517.000000, 42.000000)" stroke="#EC407A">
                    <path d="M0,0.152317881 C15.9363967,0.152317881 0.051463988,23 16,23"></path>
                    <path d="M0,23 C15.9363967,23 0.051463988,45.8476821 16,45.8476821" transform="translate(8.000000, 34.423841) scale(1, -1) translate(-8.000000, -34.423841) "></path>
                </g>
                <g transform="translate(22.500000, 147.250000) rotate(-90.000000) translate(-22.500000, -147.250000) translate(-1.750000, 135.750000)">
                    <path d="M3.5,19.5 L18.1168829,19.5 C22.5400295,19.5 26.1256983,15.9182029 26.1256983,11.6720467 L26.1256983,11.6720467 L26.1256983,11.5013619 C26.1256983,7.08233174 29.7081073,3.5 34.1243538,3.5 L48.5,3.5" stroke="#EC407A" stroke-width="1"></path>
                    <g transform="translate(42.000000, 0.000000)">
                        <g>
                            <use fill="#FFFFFF" fill-rule="evenodd" xlink:href="#path-3"></use>
                            <path stroke="#EC407A" stroke-width="1" d="M5.88196601,3.5 L0.5,0.809016994 L0.5,6.19098301 L5.88196601,3.5 Z"></path>
                        </g>
                    </g>
                    <g transform="translate(0.000000, 16.000000)">
                        <g>
                            <use fill="#FFFFFF" fill-rule="evenodd" xlink:href="#path-4"></use>
                            <circle stroke="#EC407A" stroke-width="1" cx="3.5" cy="3.5" r="3"></circle>
                        </g>
                    </g>
                </g>
                <g transform="translate(517.500000, 147.250000) rotate(-90.000000) translate(-517.500000, -147.250000) translate(493.250000, 135.750000)">
                    <path d="M3.5,19.5 L18.1168829,19.5 C22.5400295,19.5 26.1256983,15.9182029 26.1256983,11.6720467 L26.1256983,11.6720467 L26.1256983,11.5013619 C26.1256983,7.08233174 29.7081073,3.5 34.1243538,3.5 L48.5,3.5" stroke="#EC407A" stroke-width="1"></path>
                    <g transform="translate(42.000000, 0.000000)">
                        <g>
                            <use fill="#FFFFFF" fill-rule="evenodd" xlink:href="#path-5"></use>
                            <path stroke="#EC407A" stroke-width="1" d="M5.88196601,3.5 L0.5,0.809016994 L0.5,6.19098301 L5.88196601,3.5 Z"></path>
                        </g>
                    </g>
                    <g transform="translate(0.000000, 16.000000)">
                        <g>
                            <use fill="#FFFFFF" fill-rule="evenodd" xlink:href="#path-6"></use>
                            <circle stroke="#EC407A" stroke-width="1" cx="3.5" cy="3.5" r="3"></circle>
                        </g>
                    </g>
                </g>
                <g transform="translate(533.500000, 147.250000) scale(-1, 1) rotate(-90.000000) translate(-533.500000, -147.250000) translate(509.250000, 135.750000)">
                    <path d="M3.5,19.5 L18.1168829,19.5 C22.5400295,19.5 26.1256983,15.9182029 26.1256983,11.6720467 L26.1256983,11.6720467 L26.1256983,11.5013619 C26.1256983,7.08233174 29.7081073,3.5 34.1243538,3.5 L48.5,3.5" stroke="#EC407A" stroke-width="1"></path>
                    <g transform="translate(42.000000, 0.000000)">
                        <g>
                            <use fill="#FFFFFF" fill-rule="evenodd" xlink:href="#path-7"></use>
                            <path stroke="#EC407A" stroke-width="1" d="M5.88196601,3.5 L0.5,0.809016994 L0.5,6.19098301 L5.88196601,3.5 Z"></path>
                        </g>
                    </g>
                    <g transform="translate(0.000000, 16.000000)">
                        <g>
                            <use fill="#FFFFFF" fill-rule="evenodd" xlink:href="#path-8"></use>
                            <circle stroke="#EC407A" stroke-width="1" cx="3.5" cy="3.5" r="3"></circle>
                        </g>
                    </g>
                </g>
                <g transform="translate(176.500000, 137.500000) rotate(-90.000000) translate(-176.500000, -137.500000) translate(144.000000, 50.000000)">
                    <path d="M3.5,171.5 L3.66501507,171.5 C20.512669,171.5 34.1703911,157.835147 34.1703911,140.996378 L34.1703911,89.3064904 L34.1703911,33.9937621 C34.1703911,17.1525223 47.8268592,3.5 64.5,3.5 L64.5,3.5" stroke="#EC407A" stroke-width="1"></path>
                    <g transform="translate(58.000000, 0.000000)">
                        <g>
                            <use fill="#FFFFFF" fill-rule="evenodd" xlink:href="#path-9"></use>
                            <path stroke="#EC407A" stroke-width="1" d="M5.88196601,3.5 L0.5,0.809016994 L0.5,6.19098301 L5.88196601,3.5 Z"></path>
                        </g>
                    </g>
                    <g transform="translate(0.000000, 168.000000)">
                        <g>
                            <use fill="#FFFFFF" fill-rule="evenodd" xlink:href="#path-10"></use>
                            <circle stroke="#EC407A" stroke-width="1" cx="3.5" cy="3.5" r="3"></circle>
                        </g>
                    </g>
                </g>
                <g transform="translate(344.500000, 137.500000) scale(-1, 1) rotate(-90.000000) translate(-344.500000, -137.500000) translate(312.000000, 50.000000)">
                    <path d="M3.5,171.5 L3.66501507,171.5 C20.512669,171.5 34.1703911,157.835147 34.1703911,140.996378 L34.1703911,89.3064904 L34.1703911,33.9937621 C34.1703911,17.1525223 47.8268592,3.5 64.5,3.5 L64.5,3.5" stroke="#EC407A" stroke-width="1"></path>
                    <g transform="translate(58.000000, 0.000000)">
                        <g>
                            <use fill="#FFFFFF" fill-rule="evenodd" xlink:href="#path-11"></use>
                            <path stroke="#EC407A" stroke-width="1" d="M5.88196601,3.5 L0.5,0.809016994 L0.5,6.19098301 L5.88196601,3.5 Z"></path>
                        </g>
                    </g>
                    <g transform="translate(0.000000, 168.000000)">
                        <g>
                            <use fill="#FFFFFF" fill-rule="evenodd" xlink:href="#path-12"></use>
                            <circle stroke="#EC407A" stroke-width="1" cx="3.5" cy="3.5" r="3"></circle>
                        </g>
                    </g>
                </g>
                <g transform="translate(38.500000, 140.437500) scale(-1, 1) rotate(-90.000000) translate(-38.500000, -140.437500) translate(7.437500, 128.937500)">
                    <path d="M3.5,19.5 L24.6547913,19.5 C29.0770567,19.5 32.6620112,15.9182029 32.6620112,11.6720467 L32.6620112,11.6720467 L32.6620112,11.5013619 C32.6620112,7.08233174 36.2415346,3.5 40.6567025,3.5 L61.5,3.5" stroke="#EC407A" stroke-width="1"></path>
                    <g transform="translate(55.000000, 0.000000)">
                        <g>
                            <use fill="#FFFFFF" fill-rule="evenodd" xlink:href="#path-13"></use>
                            <path stroke="#EC407A" stroke-width="1" d="M5.88196601,3.5 L0.5,0.809016994 L0.5,6.19098301 L5.88196601,3.5 Z"></path>
                        </g>
                    </g>
                    <g transform="translate(0.000000, 16.000000)">
                        <g>
                            <use fill="#FFFFFF" fill-rule="evenodd" xlink:href="#path-14"></use>
                            <circle stroke="#EC407A" stroke-width="1" cx="3.5" cy="3.5" r="3"></circle>
                        </g>
                    </g>
                </g>
                <g transform="translate(29.500000, 66.000000) rotate(-270.000000) translate(-29.500000, -66.000000) translate(4.500000, 62.500000)">
                    <path d="M3.5,6.5 L3.5,5 C3.5,4.17157288 4.16800237,3.5 5.00434962,3.5 L49.5,3.5" stroke="#EC407A" stroke-width="1"></path>
                    <g transform="translate(43.000000, 0.000000)">
                        <g>
                            <use fill="#FFFFFF" fill-rule="evenodd" xlink:href="#path-15"></use>
                            <path stroke="#EC407A" stroke-width="1" d="M5.88196601,3.5 L0.5,0.809016994 L0.5,6.19098301 L5.88196601,3.5 Z"></path>
                        </g>
                    </g>
                    <g>
                        <g>
                            <use fill="#FFFFFF" fill-rule="evenodd" xlink:href="#path-16"></use>
                            <circle stroke="#EC407A" stroke-width="1" cx="3.5" cy="3.5" r="3"></circle>
                        </g>
                    </g>
                </g>
                <g transform="translate(179.500000, 66.000000) rotate(-270.000000) translate(-179.500000, -66.000000) translate(154.500000, 62.500000)">
                    <path d="M3.5,6.5 L3.5,5 C3.5,4.17157288 4.16800237,3.5 5.00434962,3.5 L49.5,3.5" stroke="#EC407A" stroke-width="1"></path>
                    <g transform="translate(43.000000, 0.000000)">
                        <g>
                            <use fill="#FFFFFF" fill-rule="evenodd" xlink:href="#path-17"></use>
                            <path stroke="#EC407A" stroke-width="1" d="M5.88196601,3.5 L0.5,0.809016994 L0.5,6.19098301 L5.88196601,3.5 Z"></path>
                        </g>
                    </g>
                    <g>
                        <g>
                            <use fill="#FFFFFF" fill-rule="evenodd" xlink:href="#path-18"></use>
                            <circle stroke="#EC407A" stroke-width="1" cx="3.5" cy="3.5" r="3"></circle>
                        </g>
                    </g>
                </g>
                <g transform="translate(368.500000, 60.500000) rotate(-270.000000) translate(-368.500000, -60.500000) translate(349.000000, 57.000000)">
                    <path d="M3.5,6.5 L3.5,5 C3.5,4.17157288 4.16791832,3.5 5.00390625,3.5 L38.5,3.5" stroke="#EC407A" stroke-width="1"></path>
                    <g transform="translate(32.000000, 0.000000)">
                        <g>
                            <use fill="#FFFFFF" fill-rule="evenodd" xlink:href="#path-19"></use>
                            <path stroke="#EC407A" stroke-width="1" d="M5.88196601,3.5 L0.5,0.809016994 L0.5,6.19098301 L5.88196601,3.5 Z"></path>
                        </g>
                    </g>
                    <g>
                        <g>
                            <use fill="#FFFFFF" fill-rule="evenodd" xlink:href="#path-20"></use>
                            <circle stroke="#EC407A" stroke-width="1" cx="3.5" cy="3.5" r="3"></circle>
                        </g>
                    </g>
                </g>
            </g>
        </g>
    </g>
</svg>