<?xml version="1.0" encoding="UTF-8" standalone="no"?>
<svg width="472px" height="597px" viewBox="0 0 472 597" version="1.1" xmlns="http://www.w3.org/2000/svg" xmlns:xlink="http://www.w3.org/1999/xlink">
    <!-- Generator: Sketch 46.2 (44496) - http://www.bohemiancoding.com/sketch -->
    <title>alert-bar-status-types</title>
    <desc>Created with Sketch.</desc>
    <defs></defs>
    <g stroke="none" stroke-width="1" fill="none" fill-rule="evenodd">
        <g transform="translate(-453.000000, -2470.000000)">
            <g transform="translate(453.000000, 2470.000000)">
                <text font-family="Roboto-Regular, Roboto" font-size="16" font-weight="normal" fill="#EC407A">
                    <tspan x="37" y="593">Warning</tspan>
                </text>
                <text font-family="Roboto-Regular, Roboto" font-size="16" font-weight="normal" fill="#EC407A">
                    <tspan x="159" y="593">Error</tspan>
                </text>
                <text font-family="Roboto-Regular, Roboto" font-size="16" font-weight="normal" fill="#EC407A">
                    <tspan x="253" y="593">Success</tspan>
                </text>
                <text font-family="Roboto-Regular, Roboto" font-size="16" font-weight="normal" fill="#EC407A">
                    <tspan x="379" y="593">Info</tspan>
                </text>
                <path d="M178.04,555.213 C178.023,555.48 177.736,555.69 177.394,555.69 L173.866,555.69 C173.506,555.69 173.219,555.48 173.219,555.213 L172.894,543.376 C172.894,543.242 172.952,543.109 173.085,543.032 C173.199,542.937 173.371,542.88 173.543,542.88 L177.736,542.88 C177.908,542.88 178.079,542.937 178.194,543.032 C178.327,543.109 178.386,543.242 178.386,543.376 L178.04,555.213 Z M178.079,561.77 C178.079,562.113 177.812,562.399 177.489,562.399 L173.829,562.399 C173.486,562.399 173.199,562.113 173.199,561.77 L173.199,558.149 C173.199,557.806 173.486,557.52 173.829,557.52 L177.489,557.52 C177.812,557.52 178.079,557.806 178.079,558.149 L178.079,561.77 Z M175.64,538 C167.557,538 161,544.557 161,552.64 C161,560.722 167.557,567.279 175.64,567.279 C183.723,567.279 190.279,560.722 190.279,552.64 C190.279,544.557 183.723,538 175.64,538 L175.64,538 Z" fill="#000000"></path>
                <path d="M69.0400442,557.044 C69.0220442,557.311 68.7360442,557.521 68.3940442,557.521 L64.8660442,557.521 C64.5060442,557.521 64.2190442,557.311 64.2190442,557.044 L63.8940442,545.206 C63.8940442,545.073 63.9520442,544.94 64.0840442,544.863 C64.1990442,544.768 64.3710442,544.711 64.5430442,544.711 L68.7360442,544.711 C68.9080442,544.711 69.0790442,544.768 69.1940442,544.863 C69.3270442,544.94 69.3860442,545.073 69.3860442,545.206 L69.0400442,557.044 Z M69.0790442,563.601 C69.0790442,563.944 68.8120442,564.23 68.4890442,564.23 L64.8290442,564.23 C64.4860442,564.23 64.1990442,563.944 64.1990442,563.601 L64.1990442,559.979 C64.1990442,559.636 64.4860442,559.35 64.8290442,559.35 L68.4890442,559.35 C68.8120442,559.35 69.0790442,559.636 69.0790442,559.979 L69.0790442,563.601 Z M81.0190442,563.954 L68.4690442,539.179 C68.1090442,538.456 67.4060442,538 66.6400442,538 C65.8720442,538 65.1700442,538.456 64.8100442,539.179 L52.2600442,563.954 C51.9000442,564.639 51.9170442,565.483 52.2910442,566.17 C52.6670442,566.856 53.3530442,567.279 54.0900442,567.279 L79.1890442,567.279 C79.9260442,567.279 80.6110442,566.856 80.9880442,566.17 C81.3620442,565.483 81.3790442,564.639 81.0190442,563.954 L81.0190442,563.954 Z" fill="#000000"></path>
                <g>
                    <g>
                        <polygon fill="#D32F2F" points="0 45 472 45 472 0 0 0"></polygon>
                        <text font-family="Roboto-Medium, Roboto" font-size="16" font-weight="400" fill="#FFFFFF">
                            <tspan x="48" y="29">ERROR: </tspan>
                            <tspan x="108.25" y="29" font-family="Roboto-Light, Roboto" font-weight="300">Alert message goes here </tspan>
                        </text>
                        <text font-family="Roboto-Medium, Roboto" font-size="16" font-weight="400" fill="#FFFFFF">
                            <tspan x="329" y="29">ACTION LINK</tspan>
                        </text>
                        <text font-family="FontAwesome" font-size="16" font-weight="normal" fill="#FFFFFF">
                            <tspan x="443" y="29"></tspan>
                        </text>
                        <path d="M26.3117934,24.4063322 C26.3025035,24.5522388 26.1456675,24.6669968 25.9587759,24.6669968 L24.0308412,24.6669968 C23.8341132,24.6669968 23.6772772,24.5522388 23.6772772,24.4063322 L23.4996755,17.9378053 C23.4996755,17.8645787 23.5313706,17.7918986 23.6040507,17.7498207 C23.6663479,17.6979063 23.7603402,17.6667577 23.8543325,17.6667577 L26.1456675,17.6667577 C26.2396598,17.6667577 26.3331056,17.6979063 26.3959493,17.7498207 C26.4686294,17.7918986 26.5008709,17.8645787 26.5008709,17.9378053 L26.3117934,24.4063322 Z M26.3331056,27.9895147 C26.3331056,28.1769528 26.187199,28.3332423 26.0106903,28.3332423 L24.0106219,28.3332423 C23.8231839,28.3332423 23.6663479,28.1769528 23.6663479,27.9895147 L23.6663479,26.0107586 C23.6663479,25.8233205 23.8231839,25.667031 24.0106219,25.667031 L26.0106903,25.667031 C26.187199,25.667031 26.3331056,25.8233205 26.3331056,26.0107586 L26.3331056,27.9895147 Z M25.0002732,15 C20.5831825,15 17,18.5831825 17,23.0002732 C17,27.4168175 20.5831825,31 25.0002732,31 C29.417364,31 33,27.4168175 33,23.0002732 C33,18.5831825 29.417364,15 25.0002732,15 L25.0002732,15 Z" fill="#FFFFFF"></path>
                    </g>
                    <text font-family="Roboto-Regular, Roboto" font-size="16" font-weight="normal" fill="#EC407A">
                        <tspan x="0" y="70">background: #d32f2f (red 900)</tspan>
                        <tspan x="0" y="91">text &amp; icon color: #ffffff (gray 0)</tspan>
                    </text>
                </g>
                <g transform="translate(0.000000, 123.000000)">
                    <g>
                        <polygon fill="#FFEB3B" points="0 45 472 45 472 0 0 0"></polygon>
                        <text font-family="Roboto-Medium, Roboto" font-size="16" font-weight="400" fill="#000000">
                            <tspan x="48" y="29">WARNING: </tspan>
                            <tspan x="129.054688" y="29" font-family="Roboto-Light, Roboto" font-weight="300">Alert message goes here </tspan>
                        </text>
                        <text font-family="Roboto-Medium, Roboto" font-size="16" font-weight="400" fill="#000000">
                            <tspan x="329" y="29">ACTION LINK</tspan>
                        </text>
                        <text font-family="FontAwesome" font-size="16" font-weight="normal" fill="#000000">
                            <tspan x="443" y="29"></tspan>
                        </text>
                        <path d="M26.3117895,24.4069128 C26.3019531,24.5528194 26.1456641,24.6675774 25.958773,24.6675774 L24.0308441,24.6675774 C23.8341167,24.6675774 23.6772812,24.5528194 23.6772812,24.4069128 L23.4996801,17.9378394 C23.4996801,17.8651593 23.531375,17.7924793 23.6035084,17.7504013 C23.6663519,17.698487 23.7603439,17.6673384 23.8543359,17.6673384 L26.1456641,17.6673384 C26.2396561,17.6673384 26.3331016,17.698487 26.3959451,17.7504013 C26.468625,17.7924793 26.5008664,17.8651593 26.5008664,17.9378394 L26.3117895,24.4069128 Z M26.3331016,27.9900953 C26.3331016,28.1775334 26.1871954,28.3338229 26.0106872,28.3338229 L24.0106249,28.3338229 C23.8231874,28.3338229 23.6663519,28.1775334 23.6663519,27.9900953 L23.6663519,26.0107927 C23.6663519,25.8233546 23.8231874,25.6670651 24.0106249,25.6670651 L26.0106872,25.6670651 C26.1871954,25.6670651 26.3331016,25.8233546 26.3331016,26.0107927 L26.3331016,27.9900953 Z M32.8578949,28.1829981 L25.9997579,14.6442843 C25.8030305,14.2491888 25.4188655,14 25.0002732,14 C24.580588,14 24.1969695,14.2491888 24.0002421,14.6442843 L17.1421051,28.1829981 C16.9453776,28.5573278 16.9546675,29.0185457 17.1590455,29.3939684 C17.3645164,29.7688446 17.7393914,30 18.1421362,30 L31.8578638,30 C32.2606086,30 32.6349372,29.7688446 32.8409545,29.3939684 C33.0453325,29.0185457 33.0546224,28.5573278 32.8578949,28.1829981 L32.8578949,28.1829981 Z" fill="#000000"></path>
                    </g>
                    <text font-family="Roboto-Regular, Roboto" font-size="16" font-weight="normal" fill="#EC407A">
                        <tspan x="0" y="70">background: #ffeb3b (yellow 700)</tspan>
                        <tspan x="0" y="91">text &amp; icon coor: #000000 (gray 1000)</tspan>
                    </text>
                </g>
                <g transform="translate(379.000000, 537.000000)" fill="#000000" fill-rule="nonzero">
                    <g transform="translate(0.441600, 0.441600)">
                        <path d="M14.2080003,0 C6.37370895,0 0,6.37512975 0,14.2080003 C0,22.0437125 6.37370895,28.4160007 14.2080003,28.4160007 C22.0422917,28.4160007 28.4160007,22.0437125 28.4160007,14.2080003 C28.4160007,6.37512975 22.0422917,0 14.2080003,0 Z M14.2080003,6.75022096 C15.1883524,6.75022096 15.9840004,7.54586898 15.9840004,8.526221 C15.9840004,9.50799382 15.1883524,10.302221 14.2080003,10.302221 C13.2276483,10.302221 12.4320003,9.50657302 12.4320003,8.5248002 C12.4320003,7.54444818 13.2276483,6.75022096 14.2080003,6.75022096 Z M18.4704004,21.3120005 L9.94560023,21.3120005 L9.94560023,18.4704004 L12.7872003,18.4704004 L12.7872003,14.2080003 L11.3664003,14.2080003 L11.3664003,11.3664003 L14.2080003,11.3664003 C14.9937028,11.3664003 15.6288004,12.0029187 15.6288004,12.7872003 L15.6288004,18.4704004 L18.4704004,18.4704004 L18.4704004,21.3120005 Z"></path>
                    </g>
                </g>
                <path d="M279.421676,562.868258 L272.718227,555.922769 C271.760591,554.975657 271.760591,553.554988 272.718227,552.607876 C273.675862,551.660764 275.271922,551.818616 276.229557,552.607876 L281.177342,557.501289 L293.466999,542.82105 C294.265029,541.873938 295.861089,541.716086 296.818724,542.505346 C297.77636,543.294606 297.935966,544.873126 297.137936,545.820239 L283.092613,562.552554 C282.613795,563.183962 281.975371,563.341814 281.177342,563.499666 C280.538918,563.499666 279.900494,563.183962 279.421676,562.868258 Z" fill="#000000" fill-rule="nonzero"></path>
                <g transform="translate(0.000000, 250.000000)">
                    <text font-family="Roboto-Regular, Roboto" font-size="16" font-weight="normal" fill="#EC407A">
                        <tspan x="0" y="70">background: #4caf51 (green 500)</tspan>
                        <tspan x="0" y="91">text &amp; icon color: #ffffff (gray 0)</tspan>
                    </text>
                    <g>
                        <polygon fill="#4CAF51" points="0 45 472 45 472 0 0 0"></polygon>
                        <text font-family="Roboto-Medium, Roboto" font-size="16" font-weight="400" fill="#FFFFFF">
                            <tspan x="48" y="29">SUCCESS: </tspan>
                            <tspan x="126.984375" y="29" font-family="Roboto-Light, Roboto" font-weight="300">Alert message goes here </tspan>
                        </text>
                        <text font-family="Roboto-Medium, Roboto" font-size="16" font-weight="400" fill="#FFFFFF">
                            <tspan x="329" y="29">ACTION LINK</tspan>
                        </text>
                        <text font-family="FontAwesome" font-size="16" font-weight="normal" fill="#FFFFFF">
                            <tspan x="443" y="29"></tspan>
                        </text>
                        <path d="M21.1059166,28.54501 L17.3973468,24.7025358 C16.8675511,24.178562 16.8675511,23.3926014 17.3973468,22.8686276 C17.9271425,22.3446538 18.8101353,22.4319828 19.339931,22.8686276 L22.0772087,25.5758254 L28.8762535,17.454232 C29.3177499,16.9302583 30.2007427,16.8429293 30.7305384,17.2795741 C31.2603341,17.7162189 31.3486334,18.5895085 30.907137,19.1134823 L23.1368001,28.3703521 C22.8719023,28.719668 22.5187052,28.8069969 22.0772087,28.8943259 C21.7240116,28.8943259 21.3708145,28.719668 21.1059166,28.54501 Z" fill="#FFFFFF" fill-rule="nonzero"></path>
                    </g>
                </g>
                <g transform="translate(0.000000, 377.000000)">
                    <text font-family="Roboto-Regular, Roboto" font-size="16" font-weight="normal" fill="#EC407A">
                        <tspan x="0" y="70">background: #bbdefb (blue 100)</tspan>
                        <tspan x="0" y="91">text &amp; icon color: #000000 (gray 1000)</tspan>
                    </text>
                    <g>
                        <polygon fill="#BBDEFB" points="0 45 472 45 472 0 0 0"></polygon>
                        <text font-family="Roboto-Medium, Roboto" font-size="16" font-weight="400" fill="#000000">
                            <tspan x="48" y="29">INFO: </tspan>
                            <tspan x="91.625" y="29" font-family="Roboto-Light, Roboto" font-weight="300">Alert message goes here </tspan>
                        </text>
                        <text font-family="Roboto-Medium, Roboto" font-size="16" font-weight="400" fill="#000000">
                            <tspan x="329" y="29">ACTION LINK</tspan>
                        </text>
                        <text font-family="FontAwesome" font-size="16" font-weight="normal" fill="#000000">
                            <tspan x="443" y="29"></tspan>
                        </text>
                        <g transform="translate(17.000000, 14.000000)" fill="#000000" fill-rule="nonzero">
                            <path d="M7.89333333,0 C3.54094933,0 0,3.54173867 0,7.89333333 C0,12.2465067 3.54094933,15.7866667 7.89333333,15.7866667 C12.2457173,15.7866667 15.7866667,12.2465067 15.7866667,7.89333333 C15.7866667,3.54173867 12.2457173,0 7.89333333,0 Z M7.89333333,3.75012267 C8.43797333,3.75012267 8.88,4.19214933 8.88,4.73678933 C8.88,5.28221867 8.43797333,5.723456 7.89333333,5.723456 C7.34869333,5.723456 6.90666667,5.28142933 6.90666667,4.736 C6.90666667,4.19136 7.34869333,3.75012267 7.89333333,3.75012267 Z M10.2613333,11.84 L5.52533333,11.84 L5.52533333,10.2613333 L7.104,10.2613333 L7.104,7.89333333 L6.31466667,7.89333333 L6.31466667,6.31466667 L7.89333333,6.31466667 C8.32983467,6.31466667 8.68266667,6.668288 8.68266667,7.104 L8.68266667,10.2613333 L10.2613333,10.2613333 L10.2613333,11.84 Z"></path>
                        </g>
                    </g>
                </g>
            </g>
        </g>
    </g>
</svg>