<?xml version="1.0" encoding="UTF-8" standalone="no"?>
<svg width="580px" height="239px" viewBox="0 0 580 239" version="1.1" xmlns="http://www.w3.org/2000/svg" xmlns:xlink="http://www.w3.org/1999/xlink">
    <!-- Generator: Sketch 47.1 (45422) - http://www.bohemiancoding.com/sketch -->
    <title>radio-spacing</title>
    <desc>Created with Sketch.</desc>
    <defs>
        <path d="M26,101 C26,105.457143 22.4571429,109 18,109 C13.5428571,109 10,105.457143 10,101 C10,96.5428571 13.5428571,93 18,93 C22.4571429,93 26,96.5428571 26,101 Z" id="path-1"></path>
        <path d="M26,123 C26,127.457143 22.4571429,131 18,131 C13.5428571,131 10,127.457143 10,123 C10,118.542857 13.5428571,115 18,115 C22.4571429,115 26,118.542857 26,123 Z" id="path-2"></path>
        <path d="M26,69 C26,73.4571429 22.4571429,77 18,77 C13.5428571,77 10,73.4571429 10,69 C10,64.5428571 13.5428571,61 18,61 C22.4571429,61 26,64.5428571 26,69 Z" id="path-3"></path>
        <path d="M16,8 C16,12.4571429 12.4571429,16 8,16 C3.54285714,16 0,12.4571429 0,8 C0,3.54285714 3.54285714,-7.26529947e-13 8,-7.26529947e-13 C12.4571429,-7.26529947e-13 16,3.54285714 16,8 Z" id="path-4"></path>
        <path d="M16,8 C16,12.4571429 12.4571429,16 8,16 C3.54285714,16 0,12.4571429 0,8 C0,3.54285714 3.54285714,-7.26529947e-13 8,-7.26529947e-13 C12.4571429,-7.26529947e-13 16,3.54285714 16,8 Z" id="path-5"></path>
        <path d="M16,8 C16,12.4571429 12.4571429,16 8,16 C3.54285714,16 0,12.4571429 0,8 C0,3.54285714 3.54285714,-7.26529947e-13 8,-7.26529947e-13 C12.4571429,-7.26529947e-13 16,3.54285714 16,8 Z" id="path-6"></path>
    </defs>
    <g id="Page-1" stroke="none" stroke-width="1" fill="none" fill-rule="evenodd">
        <g id="spacing-specs-section" transform="translate(15.000000, 166.000000)">
            <g id="Spacing-specs-image">
                <g id="With-Subtitle">
                    <g id="option-3">
                        <g id="specs-/-spacing-/-stack-/-H-08px-Copy-3"></g>
                    </g>
                </g>
            </g>
        </g>
        <g id="radio-spacing">
            <g id="spacing-specs-section" transform="translate(6.000000, 20.000000)">
                <g id="Group-5">
                    <g id="Spacing-specs-image">
                        <g id="without-subtitle">
                            <g id="Group-4">
                                <g id="specs-/-spacing-/-stack-/-H-08px" transform="translate(6.000000, 48.000000)">
                                    <rect id="Rectangle-3" fill="#9CC2EB" fill-rule="evenodd" x="0" y="3" width="89" height="8"></rect>
                                    <text id="8" font-family="Roboto-Regular, Roboto" font-size="10" font-weight="normal" fill="#333333">
                                        <tspan x="40.9868421" y="9">8</tspan>
                                    </text>
                                </g>
                                <rect id="Rectangle-3" fill="#9CC2EB" x="4" y="88" width="91" height="4"></rect>
                                <text id="4" font-family="Roboto-Regular, Roboto" font-size="8" font-weight="normal" fill="#333333">
                                    <tspan x="0" y="92">4</tspan>
                                </text>
                                <text id="4-copy" font-family="Roboto-Regular, Roboto" font-size="8" font-weight="normal" fill="#333333">
                                    <tspan x="0" y="114">4</tspan>
                                </text>
                                <rect id="Rectangle-3" fill="#9CC2EB" x="6" y="110" width="89" height="4"></rect>
                                <g id="specs-/-spacing-/-inline-/-V-08px" transform="translate(26.000000, 59.000000)">
                                    <rect id="Rectangle-5-Copy-19" fill="#90D5B2" fill-rule="evenodd" x="0" y="0" width="8" height="74"></rect>
                                    <text id="8-copy-12" font-family="Roboto-Regular, Roboto" font-size="12" font-weight="normal" fill="#333333">
                                        <tspan x="1" y="38.52">8</tspan>
                                    </text>
                                </g>
                                <text id="This-is-some-subtext" font-family="Roboto-Regular, Roboto" font-size="12" font-weight="normal" line-spacing="15" letter-spacing="0.00461538462" fill="#616161">
                                    <tspan x="35" y="86">This is some subtext</tspan>
                                </text>
                                <text id="1" font-family="Roboto-Regular, Roboto" font-size="8" font-weight="normal" line-spacing="15" letter-spacing="0.00307692308" fill="#424242">
                                    <tspan x="0" y="80">1</tspan>
                                </text>
                                <text id="Option-2" font-family="Roboto-Regular, Roboto" font-size="16" font-weight="normal" line-spacing="20" letter-spacing="0.00666666683" fill="#333333">
                                    <tspan x="34" y="105">Option 2</tspan>
                                </text>
                                <text id="Option-3" font-family="Roboto-Regular, Roboto" font-size="16" font-weight="normal" line-spacing="20" letter-spacing="0.00666666683" fill="#333333">
                                    <tspan x="34" y="127">Option 3</tspan>
                                </text>
                                <text id="Option-1" font-family="Roboto-Regular, Roboto" font-size="16" font-weight="normal" line-spacing="20" letter-spacing="0.00666666683" fill="#333333">
                                    <tspan x="34" y="73">Option 1</tspan>
                                </text>
                                <text id="Label" font-family="Roboto-Regular, Roboto" font-size="14" font-weight="normal" fill="#616161">
                                    <tspan x="5" y="51">Label</tspan>
                                </text>
                                <g id="specs-/-spacing-/-internal-/-H-20px" transform="translate(6.000000, 132.000000)">
                                    <rect id="Rectangle-3-Copy-5" fill="#F9CD94" fill-rule="evenodd" x="0" y="0" width="89" height="20"></rect>
                                    <text id="20" font-family="Roboto-Regular, Roboto" font-size="12" font-weight="normal" fill="#333333">
                                        <tspan x="37.7617188" y="13">20</tspan>
                                    </text>
                                </g>
                                <g id="specs-/-spacing-/-internal-/-H-20px" transform="translate(6.000000, 20.000000)">
                                    <rect id="Rectangle-3-Copy-5" fill="#F9CD94" fill-rule="evenodd" x="0" y="0" width="89" height="20"></rect>
                                    <text id="20" font-family="Roboto-Regular, Roboto" font-size="12" font-weight="normal" fill="#333333">
                                        <tspan x="37.7617188" y="13">20</tspan>
                                    </text>
                                </g>
                                <rect id="Rectangle-3" fill="#9CC2EB" x="6" y="77" width="89" height="1"></rect>
                                <text id="WITHOUT-SUBTITLE" font-family="Roboto-Regular, Roboto" font-size="10" font-weight="normal" fill="#9E9E9E">
                                    <tspan x="6" y="9">WITHOUT SUBTITLE</tspan>
                                </text>
                                <g id="Shape-Copy-7" fill-rule="nonzero">
                                    <use fill="#FFFFFF" fill-rule="evenodd" xlink:href="#path-1"></use>
                                    <path stroke="#BDBDBD" stroke-width="1" d="M25.5,101 C25.5,96.8189995 22.1810005,93.5 18,93.5 C13.8189995,93.5 10.5,96.8189995 10.5,101 C10.5,105.181 13.8189995,108.5 18,108.5 C22.1810005,108.5 25.5,105.181 25.5,101 Z"></path>
                                </g>
                                <g id="Shape-Copy-7" fill-rule="nonzero">
                                    <use fill="#FFFFFF" fill-rule="evenodd" xlink:href="#path-2"></use>
                                    <path stroke="#BDBDBD" stroke-width="1" d="M25.5,123 C25.5,118.819 22.1810005,115.5 18,115.5 C13.8189995,115.5 10.5,118.819 10.5,123 C10.5,127.181 13.8189995,130.5 18,130.5 C22.1810005,130.5 25.5,127.181 25.5,123 Z"></path>
                                </g>
                                <g id="Shape-Copy-10" fill-rule="nonzero">
                                    <use fill="#FFFFFF" fill-rule="evenodd" xlink:href="#path-3"></use>
                                    <path stroke="#0C7C84" stroke-width="1" d="M25.5,69 C25.5,64.8189995 22.1810005,61.5 18,61.5 C13.8189995,61.5 10.5,64.8189995 10.5,69 C10.5,73.1810005 13.8189995,76.5 18,76.5 C22.1810005,76.5 25.5,73.1810005 25.5,69 Z"></path>
                                </g>
                                <circle id="Oval-Copy" fill="#0C7C84" cx="18" cy="69" r="4"></circle>
                            </g>
                        </g>
                        <g id="With-Subtitle" transform="translate(203.000000, 0.000000)">
                            <g id="with-subtitle-spacing-blocks" transform="translate(0.000000, 18.000000)">
                                <g id="specs-/-spacing-/-internal-/-H-20px" transform="translate(4.000000, 0.000000)">
                                    <rect id="Rectangle-3-Copy-5" fill="#F9CD94" fill-rule="evenodd" x="0" y="0" width="56" height="20"></rect>
                                    <text id="20" font-family="Roboto-Regular, Roboto" font-size="12" font-weight="normal" fill="#333333">
                                        <tspan x="21.2617188" y="13">20</tspan>
                                    </text>
                                </g>
                                <g id="specs-/-spacing-/-internal-/-H-16px" transform="translate(4.000000, 31.000000)">
                                    <rect id="Rectangle-3-Copy-2" fill="#F9CD94" fill-rule="evenodd" x="0" y="0" width="117" height="16"></rect>
                                    <text id="16" font-family="Roboto-Regular, Roboto" font-size="12" font-weight="normal" fill="#333333">
                                        <tspan x="50.31" y="11">16</tspan>
                                    </text>
                                </g>
                                <g id="specs-/-spacing-/-internal-/-H-16px" transform="translate(4.000000, 64.000000)">
                                    <rect id="Rectangle-3-Copy-2" fill="#F9CD94" fill-rule="evenodd" x="0" y="0" width="117" height="16"></rect>
                                    <text id="16" font-family="Roboto-Regular, Roboto" font-size="12" font-weight="normal" fill="#333333">
                                        <tspan x="50.31" y="11">16</tspan>
                                    </text>
                                </g>
                                <rect id="Rectangle-3" fill="#9CC2EB" x="6" y="109" width="89" height="4"></rect>
                                <text id="4" font-family="Roboto-Regular, Roboto" font-size="8" font-weight="normal" fill="#333333">
                                    <tspan x="0" y="113">4</tspan>
                                </text>
                                <text id="4-copy" font-family="Roboto-Regular, Roboto" font-size="8" font-weight="normal" fill="#333333">
                                    <tspan x="0" y="135">4</tspan>
                                </text>
                                <text id="1-copy" font-family="Roboto-Regular, Roboto" font-size="8" font-weight="normal" line-spacing="15" letter-spacing="0.00307692308" fill="#424242">
                                    <tspan x="0" y="101">1</tspan>
                                </text>
                                <rect id="Rectangle-3" fill="#9CC2EB" x="6" y="131" width="89" height="4"></rect>
                                <rect id="Rectangle-3-Copy" fill="#9CC2EB" x="6" y="98" width="89" height="1"></rect>
                                <g id="specs-/-spacing-/-inline-/-V-08px" transform="translate(25.000000, 80.000000)">
                                    <rect id="Rectangle-5-Copy-19" fill="#90D5B2" fill-rule="evenodd" x="0" y="0" width="8" height="74"></rect>
                                    <text id="8-copy-12" font-family="Roboto-Regular, Roboto" font-size="12" font-weight="normal" fill="#333333">
                                        <tspan x="1" y="38.52">8</tspan>
                                    </text>
                                </g>
                                <g id="specs-/-spacing-/-internal-/-H-20px" transform="translate(6.000000, 152.200012)">
                                    <rect id="Rectangle-3-Copy-5" fill="#F9CD94" fill-rule="evenodd" x="0" y="0" width="89" height="20"></rect>
                                    <text id="20" font-family="Roboto-Regular, Roboto" font-size="12" font-weight="normal" fill="#333333">
                                        <tspan x="37.7617188" y="13">20</tspan>
                                    </text>
                                </g>
                            </g>
                            <text id="This-is-some-subtext-Copy" font-family="Roboto-Regular, Roboto" font-size="12" font-weight="normal" line-spacing="15" letter-spacing="0.00461538462" fill="#616161">
                                <tspan x="32" y="126">This is some subtext</tspan>
                            </text>
                            <text id="Option-2-Copy-5" font-family="Roboto-Regular, Roboto" font-size="16" font-weight="normal" line-spacing="20" letter-spacing="0.00666666683" fill="#333333">
                                <tspan x="32" y="144">Option 2</tspan>
                            </text>
                            <text id="Option-1-Copy-5" font-family="Roboto-Regular, Roboto" font-size="16" font-weight="normal" line-spacing="20" letter-spacing="0.00666666683" fill="#333333">
                                <tspan x="32" y="112">Option 1</tspan>
                            </text>
                            <text id="Label" stroke="#979797" font-family="Roboto-Regular, Roboto" font-size="14" font-weight="normal" fill="#616161">
                                <tspan x="3" y="49">Label</tspan>
                            </text>
                            <text id="Select-an-option" font-family="Roboto-Regular, Roboto" font-size="16" font-weight="normal" line-spacing="20" letter-spacing="0.005" fill="#333333">
                                <tspan x="3" y="78">Select an option</tspan>
                            </text>
                            <g id="option-3" transform="translate(6.000000, 149.000000)">
                                <text id="Option-3-Copy-6" font-family="Roboto-Regular, Roboto" font-size="16" font-weight="normal" line-spacing="20" letter-spacing="0.00666666683" fill="#333333">
                                    <tspan x="25.2999878" y="16.8999939">Option 3</tspan>
                                </text>
                                <g id="specs-/-spacing-/-stack-/-H-08px-Copy-3"></g>
                            </g>
                            <g id="Radio-button---default-Copy-4" transform="translate(9.000000, 132.000000)" fill-rule="nonzero">
                                <g id="Shape-Copy-7">
                                    <use fill="#FFFFFF" fill-rule="evenodd" xlink:href="#path-4"></use>
                                    <path stroke="#BDBDBD" stroke-width="1" d="M15.5,8 C15.5,3.81899952 12.1810005,0.5 8,0.5 C3.81899952,0.5 0.5,3.81899952 0.5,8 C0.5,12.1810005 3.81899952,15.5 8,15.5 C12.1810005,15.5 15.5,12.1810005 15.5,8 Z"></path>
                                </g>
                            </g>
                            <g id="Radio-button---default-Copy-5" transform="translate(9.000000, 154.000000)" fill-rule="nonzero">
                                <g id="Shape-Copy-7">
                                    <use fill="#FFFFFF" fill-rule="evenodd" xlink:href="#path-5"></use>
                                    <path stroke="#BDBDBD" stroke-width="1" d="M15.5,8 C15.5,3.81899952 12.1810005,0.5 8,0.5 C3.81899952,0.5 0.5,3.81899952 0.5,8 C0.5,12.1810005 3.81899952,15.5 8,15.5 C12.1810005,15.5 15.5,12.1810005 15.5,8 Z"></path>
                                </g>
                            </g>
                            <g id="Radio-button---selected" transform="translate(9.000000, 100.000000)">
                                <g id="Shape-Copy-10" fill-rule="nonzero">
                                    <use fill="#FFFFFF" fill-rule="evenodd" xlink:href="#path-6"></use>
                                    <path stroke="#0C7C84" stroke-width="1" d="M15.5,8 C15.5,3.81899952 12.1810005,0.5 8,0.5 C3.81899952,0.5 0.5,3.81899952 0.5,8 C0.5,12.1810005 3.81899952,15.5 8,15.5 C12.1810005,15.5 15.5,12.1810005 15.5,8 Z"></path>
                                </g>
                                <circle id="Oval" fill="#0C7C84" cx="8" cy="8" r="4"></circle>
                                <circle id="Oval-Copy" fill="#0C7C84" cx="8" cy="8" r="4"></circle>
                            </g>
                            <g id="specs-/-redlines-/-label-title-sm" transform="translate(5.000000, 0.000000)" font-size="10" font-family="Roboto-Regular, Roboto" fill="#9E9E9E" font-weight="normal">
                                <text id="SMALL-LABEL">
                                    <tspan x="0" y="9">WITH SUBTITLE</tspan>
                                </text>
                            </g>
                            <g id="Group-6" transform="translate(96.000000, 100.000000)">
                                <path d="M31.9913819,-25.0000005 L31.9913819,38" id="Stroke-8-Copy-2" stroke="#EC3F7A" transform="translate(32.000000, 6.500000) rotate(-90.000000) translate(-32.000000, -6.500000) "></path>
                                <path d="M68.0009998,1 C70.7629997,1 73.0009997,3.239 72.9999997,6 C72.9999997,8.762 70.7619997,11 67.9999998,11 C65.2379999,11 63,8.761 63,6 C63.001,3.238 65.2389999,1 68.0009998,1" id="Path" stroke="#EC3F7A" fill-opacity="0.3" fill="#F03F7B" transform="translate(68.000000, 6.000000) rotate(-90.000000) translate(-68.000000, -6.000000) "></path>
                                <text id="redline-label-copy-3" font-family="Roboto-Regular, Roboto" font-size="10" font-weight="normal" fill="#EC407A">
                                    <tspan x="76" y="9">Roboto, Regular, 16px, #424242 (Gray 900)</tspan>
                                </text>
                            </g>
                            <g id="Group-17" transform="translate(150.000000, 119.000000)">
                                <path d="M0.486145776,6 L9.51559177,6" id="Stroke-8-Copy" stroke="#EC3F7A"></path>
                                <path d="M18.9999997,6 C18.9999997,8.762 16.7619997,11 13.9999998,11 C11.2379999,11 9,8.761 9,6 C9.001,3.238 11.2389999,1 14.0009998,1 C16.7629997,1 19.0009997,3.239 18.9999997,6 Z" id="Path-Copy" stroke="#EC3F7A" fill-opacity="0.3" fill="#F03F7B" transform="translate(14.000000, 6.000000) rotate(-90.000000) translate(-14.000000, -6.000000) "></path>
                                <text id="redline-label-copy-5" font-family="Roboto-Regular, Roboto" font-size="10" font-weight="normal" fill="#EC407A">
                                    <tspan x="22" y="9">Roboto, Regular, 12px, #6b6b6b (Gray 750) </tspan>
                                </text>
                            </g>
                            <g id="Group-16" transform="translate(43.000000, 35.000000)">
                                <polyline id="Stroke-8-Copy-2" stroke="#EC3F7A" transform="translate(58.903788, 6.508618) rotate(-90.000000) translate(-58.903788, -6.508618) " points="58.4037879 -52.0924354 58.4037879 -26.9791542 58.4037879 65.1096717"></polyline>
                                <path d="M122.001,1.5 C124.763,1.5 127.001,3.739 127,6.5 C127,9.262 124.762,11.5 122,11.5 C119.238,11.5 117,9.261 117,6.5 C117.001,3.738 119.239,1.5 122.001,1.5" id="Path" stroke="#EC3F7A" fill-opacity="0.3" fill="#F03F7B" transform="translate(122.000000, 6.500000) rotate(-90.000000) translate(-122.000000, -6.500000) "></path>
                                <text id="redline-label" font-family="Roboto-Regular, Roboto" font-size="10" font-weight="normal" fill="#EC407A">
                                    <tspan x="130" y="9.5">Roboto, Regular, 14px, #616161 (Gray 800)</tspan>
                                </text>
                            </g>
                            <path d="M119.865512,71.9001658 L141.316941,71.9001658 L161.129226,71.9001658 L161.129226,71.9001658 C163.338365,71.9001658 165.129226,70.1093048 165.129226,67.9001658 L165.129226,46.7596714" id="Path-2" stroke="#EC3F7A"></path>
                        </g>
                    </g>
                </g>
            </g>
        </g>
    </g>
</svg>