<?xml version="1.0" encoding="UTF-8" standalone="no"?>
<svg width="580px" height="229px" viewBox="0 0 580 229" version="1.1" xmlns="http://www.w3.org/2000/svg" xmlns:xlink="http://www.w3.org/1999/xlink">
    <!-- Generator: Sketch 47.1 (45422) - http://www.bohemiancoding.com/sketch -->
    <title>radio-error</title>
    <desc>Created with Sketch.</desc>
    <style type="text/css">@import url('https://fonts.googleapis.com/css?family=Roboto:300,400,500');</style>
    <defs>
        <path d="M16,8 C16,12.4571429 12.4571429,16 8,16 C3.54285714,16 0,12.4571429 0,8 C0,3.54285714 3.54285714,-7.26529947e-13 8,-7.26529947e-13 C12.4571429,-7.26529947e-13 16,3.54285714 16,8 Z" id="path-1"></path>
        <path d="M16,8 C16,12.4571429 12.4571429,16 8,16 C3.54285714,16 0,12.4571429 0,8 C0,3.54285714 3.54285714,-7.26529947e-13 8,-7.26529947e-13 C12.4571429,-7.26529947e-13 16,3.54285714 16,8 Z" id="path-2"></path>
        <path d="M16,8 C16,12.4571429 12.4571429,16 8,16 C3.54285714,16 0,12.4571429 0,8 C0,3.54285714 3.54285714,-7.26529947e-13 8,-7.26529947e-13 C12.4571429,-7.26529947e-13 16,3.54285714 16,8 Z" id="path-3"></path>
    </defs>
    <g id="Page-1" stroke="none" stroke-width="1" fill="none" fill-rule="evenodd">
        <g id="Error-State-Section" transform="translate(23.000000, 26.000000)">
            <g id="Error-States-Expanded-Image">
                <g id="Group-26">
                    <g id="Group-21" transform="translate(7.000000, 98.000000)">
                        <g id="specs-/-spacing-/-internal-/-H-24px">
                            <rect id="Rectangle-3-Copy-3" fill="#F9CD94" fill-rule="evenodd" x="0" y="0" width="100" height="24"></rect>
                            <text id="24" font-family="Roboto-Regular, Roboto" font-size="12" font-weight="normal" fill="#333333">
                                <tspan x="43" y="15">24</tspan>
                            </text>
                        </g>
                        <g id="specs-/-spacing-/-internal-/-H-24px" transform="translate(0.000000, 54.000000)">
                            <rect id="Rectangle-3-Copy-3" fill="#F9CD94" fill-rule="evenodd" x="0" y="0" width="100" height="24"></rect>
                            <text id="24" font-family="Roboto-Regular, Roboto" font-size="12" font-weight="normal" fill="#333333">
                                <tspan x="43" y="15">24</tspan>
                            </text>
                        </g>
                    </g>
                    <g id="Group-25">
                        <g id="Group-15">
                            <text id="Label" font-family="Roboto-Medium, Roboto" font-size="16" font-weight="400" fill="#333333">
                                <tspan x="10" y="15">Label</tspan>
                            </text>
                            <text id="*--copy" font-family="Roboto-Regular, Roboto" font-size="14" font-weight="normal" fill="#D13528">
                                <tspan x="0" y="13">* </tspan>
                            </text>
                        </g>
                        <g id="Group-20" transform="translate(11.000000, 24.000000)">
                            <text id="There-is-an-error-wi" font-family="Roboto-Regular, Roboto" font-size="13" font-weight="normal" line-spacing="15" letter-spacing="0.00437499955" fill="#D32F2F">
                                <tspan x="0" y="108">There is an error with the </tspan>
                                <tspan x="0" y="123">response to this question.</tspan>
                            </text>
                            <g id="Group-19">
                                <g id="Group-17" transform="translate(0.000000, 33.000000)">
                                    <g id="Radio-button---default" transform="translate(0.000000, 3.000000)" fill-rule="nonzero">
                                        <g id="Shape-Copy-7">
                                            <use fill="#FFFFFF" fill-rule="evenodd" xlink:href="#path-1"></use>
                                            <path stroke="#BDBDBD" stroke-width="1" d="M15.5,8 C15.5,3.81899952 12.1810005,0.5 8,0.5 C3.81899952,0.5 0.5,3.81899952 0.5,8 C0.5,12.1810005 3.81899952,15.5 8,15.5 C12.1810005,15.5 15.5,12.1810005 15.5,8 Z"></path>
                                        </g>
                                    </g>
                                    <text id="Option-2-Copy" font-family="Roboto-Regular, Roboto" font-size="16" font-weight="normal" line-spacing="20" letter-spacing="0.00666666683" fill="#333333">
                                        <tspan x="24" y="15">Option 2</tspan>
                                    </text>
                                </g>
                                <g id="Group-18" transform="translate(0.000000, 55.000000)">
                                    <g id="Radio-button---default-Copy-3" transform="translate(0.000000, 3.000000)" fill-rule="nonzero">
                                        <g id="Shape-Copy-7">
                                            <use fill="#FFFFFF" fill-rule="evenodd" xlink:href="#path-2"></use>
                                            <path stroke="#BDBDBD" stroke-width="1" d="M15.5,8 C15.5,3.81899952 12.1810005,0.5 8,0.5 C3.81899952,0.5 0.5,3.81899952 0.5,8 C0.5,12.1810005 3.81899952,15.5 8,15.5 C12.1810005,15.5 15.5,12.1810005 15.5,8 Z"></path>
                                        </g>
                                    </g>
                                    <text id="Option-3-Copy" font-family="Roboto-Regular, Roboto" font-size="16" font-weight="normal" line-spacing="20" letter-spacing="0.00666666683" fill="#333333">
                                        <tspan x="24" y="15">Option 3</tspan>
                                    </text>
                                </g>
                                <g id="Group-16">
                                    <text id="This-is-some-subtext-Copy-2" font-family="Roboto-Regular, Roboto" font-size="13" font-weight="normal" line-spacing="15" letter-spacing="0.005" fill="#616161">
                                        <tspan x="25" y="29">This is some subtext</tspan>
                                    </text>
                                    <text id="Option-1-Copy" font-family="Roboto-Regular, Roboto" font-size="16" font-weight="normal" line-spacing="20" letter-spacing="0.00666666683" fill="#333333">
                                        <tspan x="24" y="15">Option 1</tspan>
                                    </text>
                                    <g id="Radio-button---error---selected-Copy" transform="translate(0.000000, 4.000000)">
                                        <g id="Shape-Copy-8" fill-rule="nonzero">
                                            <use fill="#FFFFFF" fill-rule="evenodd" xlink:href="#path-3"></use>
                                            <path stroke="#D32F2F" stroke-width="2" d="M15,8 C15,4.09514189 11.9048581,1 8,1 C4.09514189,1 1,4.09514189 1,8 C1,11.9048581 4.09514189,15 8,15 C11.9048581,15 15,11.9048581 15,8 Z"></path>
                                        </g>
                                        <circle id="Oval-Copy" fill="#D32F2F" cx="8" cy="8" r="4"></circle>
                                    </g>
                                </g>
                            </g>
                        </g>
                    </g>
                </g>
                <g id="Group-22" transform="translate(159.000000, 131.000000)">
                    <text id="redline-label-copy-5" font-family="Roboto-Regular, Roboto" font-size="10" font-weight="normal" fill="#EC407A">
                        <tspan x="66" y="9">Roboto, Regular, 13px, #d32f2f (Red 900) </tspan>
                    </text>
                    <g id="specs-/-redlines-/-line-straight" transform="translate(31.000000, 6.000000) scale(-1, 1) translate(-31.000000, -6.000000) translate(0.000000, 1.000000)" stroke="#EC3F7A">
                        <path d="M10,5 L62,5" id="Stroke-8"></path>
                        <path d="M5.00099983,0 C7.76299974,0 10.0009997,2.239 9.99999967,5 C9.99999967,7.762 7.76199974,10 4.99999983,10 C2.23799993,10 0,7.761 0,5 C0.000999999967,2.238 2.23899992,0 5.00099983,0" id="Path" fill-opacity="0.3" fill="#F03F7B" fill-rule="evenodd"></path>
                    </g>
                </g>
            </g>
        </g>
        <g id="radio-error"></g>
    </g>
</svg>