<?xml version="1.0" encoding="UTF-8" standalone="no"?>
<svg width="569px" height="178px" viewBox="0 0 569 178" version="1.1" xmlns="http://www.w3.org/2000/svg" xmlns:xlink="http://www.w3.org/1999/xlink">
    <!-- Generator: Sketch 47.1 (45422) - http://www.bohemiancoding.com/sketch -->
    <title>radio-composition</title>
    <desc>Created with Sketch.</desc>
    <style type="text/css">@import url('https://fonts.googleapis.com/css?family=Roboto:300,400,500');</style>
    <defs>
        <path d="M16,8 C16,12.4571429 12.4571429,16 8,16 C3.54285714,16 0,12.4571429 0,8 C0,3.54285714 3.54285714,-7.26529947e-13 8,-7.26529947e-13 C12.4571429,-7.26529947e-13 16,3.54285714 16,8 Z" id="path-1"></path>
        <path d="M16,8 C16,12.4571429 12.4571429,16 8,16 C3.54285714,16 0,12.4571429 0,8 C0,3.54285714 3.54285714,-7.26529947e-13 8,-7.26529947e-13 C12.4571429,-7.26529947e-13 16,3.54285714 16,8 Z" id="path-2"></path>
        <path d="M16,8 C16,12.4571429 12.4571429,16 8,16 C3.54285714,16 0,12.4571429 0,8 C0,3.54285714 3.54285714,-7.26529947e-13 8,-7.26529947e-13 C12.4571429,-7.26529947e-13 16,3.54285714 16,8 Z" id="path-3"></path>
    </defs>
    <g id="Page-1" stroke="none" stroke-width="1" fill="none" fill-rule="evenodd">
        <g id="radio-composition">
            <g id="Composition-Section" transform="translate(135.000000, 9.000000)">
                <g id="Composition-image">
                    <path d="M215.991382,74.9999987 L215.991382,104.000001" id="Stroke-8-Copy-12" stroke="#EC3F7A" transform="translate(216.000000, 89.500000) rotate(-90.000000) translate(-216.000000, -89.500000) "></path>
                    <path d="M236.001,85 C238.763,85 241.001,87.239 241,90 C241,92.762 238.762,95 236,95 C233.238,95 231,92.761 231,90 C231.001,87.238 233.239,85 236.001,85" id="Path-Copy-7" stroke="#EC3F7A" fill-opacity="0.3" fill="#F03F7B" transform="translate(236.000000, 90.000000) rotate(-90.000000) translate(-236.000000, -90.000000) "></path>
                    <text id="redline-label-copy-2" font-family="Roboto-Regular, Roboto" font-size="10" font-weight="normal" fill="#EC407A">
                        <tspan x="246" y="93">Radio button label</tspan>
                    </text>
                    <g id="Group-2" transform="translate(84.500000, 89.000000) rotate(-180.000000) translate(-84.500000, -89.000000) translate(64.000000, 84.000000)" stroke="#EC3F7A">
                        <path d="M15.2413819,-10.0000013 L15.2413819,19.000001" id="Stroke-8-Copy-13" transform="translate(15.250000, 4.500000) rotate(-90.000000) translate(-15.250000, -4.500000) "></path>
                        <path d="M35.2509998,0 C38.0129997,0 40.2509997,2.239 40.2499997,5 C40.2499997,7.762 38.0119997,10 35.2499998,10 C32.4879999,10 30.25,7.761 30.25,5 C30.251,2.238 32.4889999,0 35.2509998,0" id="Path-Copy-8" fill-opacity="0.3" fill="#F03F7B" transform="translate(35.250000, 5.000000) rotate(-90.000000) translate(-35.250000, -5.000000) "></path>
                    </g>
                    <text id="redline-label-copy-4" font-family="Roboto-Regular, Roboto" font-size="10" font-weight="normal" fill="#EC407A">
                        <tspan x="0" y="91">Radio button</tspan>
                    </text>
                    <g id="Group-2-Copy" transform="translate(134.000000, 35.500000) rotate(-90.000000) translate(-134.000000, -35.500000) translate(113.500000, 30.500000)" stroke="#EC3F7A">
                        <path d="M15.2413819,-10.0000013 L15.2413819,19.000001" id="Stroke-8-Copy-13" transform="translate(15.250000, 4.500000) rotate(-90.000000) translate(-15.250000, -4.500000) "></path>
                        <path d="M35.2509998,0 C38.0129997,0 40.2509997,2.239 40.2499997,5 C40.2499997,7.762 38.0119997,10 35.2499998,10 C32.4879999,10 30.25,7.761 30.25,5 C30.251,2.238 32.4889999,0 35.2509998,0" id="Path-Copy-8" fill-opacity="0.3" fill="#F03F7B" transform="translate(35.250000, 5.000000) rotate(-90.000000) translate(-35.250000, -5.000000) "></path>
                    </g>
                    <text id="redline-label-copy-6" font-family="Roboto-Regular, Roboto" font-size="10" font-weight="normal" fill="#EC407A">
                        <tspan x="104" y="9">Section label</tspan>
                    </text>
                    <text id="Option-2-Copy-2" font-family="Roboto-Regular, Roboto" font-size="16" font-weight="normal" line-spacing="20" letter-spacing="0.00666666683" fill="#333333">
                        <tspan x="135" y="114">Option 2</tspan>
                    </text>
                    <text id="Option-3-Copy-2" font-family="Roboto-Regular, Roboto" font-size="16" font-weight="normal" line-spacing="20" letter-spacing="0.00666666683" fill="#333333">
                        <tspan x="135" y="136">Option 3</tspan>
                    </text>
                    <text id="Option-1-Copy-2" font-family="Roboto-Regular, Roboto" font-size="16" font-weight="normal" line-spacing="20" letter-spacing="0.00666666683" fill="#333333">
                        <tspan x="135" y="93">Option 1</tspan>
                    </text>
                    <text id="Label" font-family="Roboto-Medium, Roboto" font-size="16" font-weight="400" fill="#333333">
                        <tspan x="106" y="69">Label</tspan>
                    </text>
                    <g id="composition-dots" transform="translate(113.000000, 81.000000)">
                        <g id="Radio-button---default-Copy-7" transform="translate(0.000000, 21.000000)" fill-rule="nonzero">
                            <g id="Shape-Copy-7">
                                <use fill="#FFFFFF" fill-rule="evenodd" xlink:href="#path-1"></use>
                                <path stroke="#BDBDBD" stroke-width="1" d="M15.5,8 C15.5,3.81899952 12.1810005,0.5 8,0.5 C3.81899952,0.5 0.5,3.81899952 0.5,8 C0.5,12.1810005 3.81899952,15.5 8,15.5 C12.1810005,15.5 15.5,12.1810005 15.5,8 Z"></path>
                            </g>
                        </g>
                        <g id="Radio-button---default-Copy-6" transform="translate(0.000000, 43.000000)" fill-rule="nonzero">
                            <g id="Shape-Copy-7">
                                <use fill="#FFFFFF" fill-rule="evenodd" xlink:href="#path-2"></use>
                                <path stroke="#BDBDBD" stroke-width="1" d="M15.5,8 C15.5,3.81899952 12.1810005,0.5 8,0.5 C3.81899952,0.5 0.5,3.81899952 0.5,8 C0.5,12.1810005 3.81899952,15.5 8,15.5 C12.1810005,15.5 15.5,12.1810005 15.5,8 Z"></path>
                            </g>
                        </g>
                        <g id="Radio-button---selected-Copy">
                            <g id="Shape-Copy-10" fill-rule="nonzero">
                                <use fill="#FFFFFF" fill-rule="evenodd" xlink:href="#path-3"></use>
                                <path stroke="#0C7C84" stroke-width="1" d="M15.5,8 C15.5,3.81899952 12.1810005,0.5 8,0.5 C3.81899952,0.5 0.5,3.81899952 0.5,8 C0.5,12.1810005 3.81899952,15.5 8,15.5 C12.1810005,15.5 15.5,12.1810005 15.5,8 Z"></path>
                            </g>
                            <circle id="Oval" fill="#0C7C84" cx="8" cy="8" r="4"></circle>
                        </g>
                    </g>
                </g>
            </g>
        </g>
    </g>
</svg>