<?xml version="1.0" encoding="UTF-8" standalone="no"?>
<svg width="482px" height="211px" viewBox="0 0 482 211" version="1.1" xmlns="http://www.w3.org/2000/svg" xmlns:xlink="http://www.w3.org/1999/xlink">
    <!-- Generator: Sketch 47.1 (45422) - http://www.bohemiancoding.com/sketch -->
    <title>radio-error</title>
    <desc>Created with Sketch.</desc>
    <defs>
        <path d="M20,64 C20,68.4571429 16.4571429,72 12,72 C7.54285714,72 4,68.4571429 4,64 C4,59.5428571 7.54285714,56 12,56 C16.4571429,56 20,59.5428571 20,64 Z" id="path-1"></path>
        <path d="M20,86 C20,90.4571429 16.4571429,94 12,94 C7.54285714,94 4,90.4571429 4,86 C4,81.5428571 7.54285714,78 12,78 C16.4571429,78 20,81.5428571 20,86 Z" id="path-2"></path>
        <path d="M20,32 C20,36.4571429 16.4571429,40 12,40 C7.54285714,40 4,36.4571429 4,32 C4,27.5428571 7.54285714,24 12,24 C16.4571429,24 20,27.5428571 20,32 Z" id="path-3"></path>
    </defs>
    <g id="Page-1" stroke="none" stroke-width="1" fill="none" fill-rule="evenodd">
        <g id="radio-error">
            <g transform="translate(29.000000, 20.000000)">
                <g id="Group-21" transform="translate(0.000000, 94.000000)">
                    <g id="specs-/-spacing-/-internal-/-H-24px">
                        <rect id="Rectangle-3-Copy-3" fill="#F9CD94" fill-rule="evenodd" x="0" y="0" width="100" height="24"></rect>
                        <text id="24" font-family="Roboto-Regular, Roboto" font-size="12" font-weight="normal" fill="#333333">
                            <tspan x="43" y="15">24</tspan>
                        </text>
                    </g>
                    <g id="specs-/-spacing-/-internal-/-H-24px" transform="translate(0.000000, 54.000000)">
                        <rect id="Rectangle-3-Copy-3" fill="#F9CD94" fill-rule="evenodd" x="0" y="0" width="100" height="24"></rect>
                        <text id="24" font-family="Roboto-Regular, Roboto" font-size="12" font-weight="normal" fill="#333333">
                            <tspan x="43" y="15">24</tspan>
                        </text>
                    </g>
                </g>
                <g id="Group-15" transform="translate(3.000000, 0.000000)" font-size="14" font-family="Roboto-Regular, Roboto" fill="#616161" font-weight="normal">
                    <text id="Label">
                        <tspan x="0" y="13">Label</tspan>
                    </text>
                </g>
                <text id="There-is-an-error-wi" font-family="Roboto-Regular, Roboto" font-size="13" font-weight="normal" line-spacing="15" letter-spacing="0.00437499955" fill="#D32F2F">
                    <tspan x="22" y="129">There is an error with the </tspan>
                    <tspan x="22" y="144">response to this question.</tspan>
                </text>
                <g id="Shape-Copy-7" fill-rule="nonzero">
                    <use fill="#FFFFFF" fill-rule="evenodd" xlink:href="#path-1"></use>
                    <path stroke="#BDBDBD" stroke-width="1" d="M19.5,64 C19.5,59.8189995 16.1810005,56.5 12,56.5 C7.81899952,56.5 4.5,59.8189995 4.5,64 C4.5,68.1810005 7.81899952,71.5 12,71.5 C16.1810005,71.5 19.5,68.1810005 19.5,64 Z"></path>
                </g>
                <text id="Option-2-Copy" font-family="Roboto-Regular, Roboto" font-size="16" font-weight="normal" line-spacing="20" letter-spacing="0.00666666683" fill="#333333">
                    <tspan x="28" y="68">Option 2</tspan>
                </text>
                <g id="Shape-Copy-7" fill-rule="nonzero">
                    <use fill="#FFFFFF" fill-rule="evenodd" xlink:href="#path-2"></use>
                    <path stroke="#BDBDBD" stroke-width="1" d="M19.5,86 C19.5,81.8189995 16.1810005,78.5 12,78.5 C7.81899952,78.5 4.5,81.8189995 4.5,86 C4.5,90.1810005 7.81899952,93.5 12,93.5 C16.1810005,93.5 19.5,90.1810005 19.5,86 Z"></path>
                </g>
                <text id="Option-3-Copy" font-family="Roboto-Regular, Roboto" font-size="16" font-weight="normal" line-spacing="20" letter-spacing="0.00666666683" fill="#333333">
                    <tspan x="28" y="90">Option 3</tspan>
                </text>
                <text id="This-is-some-subtext-Copy-2" font-family="Roboto-Regular, Roboto" font-size="13" font-weight="normal" line-spacing="15" letter-spacing="0.005" fill="#616161">
                    <tspan x="29" y="49">This is some subtext</tspan>
                </text>
                <text id="Option-1-Copy" font-family="Roboto-Regular, Roboto" font-size="16" font-weight="normal" line-spacing="20" letter-spacing="0.00666666683" fill="#333333">
                    <tspan x="28" y="35">Option 1</tspan>
                </text>
                <g id="Shape-Copy-8" fill-rule="nonzero">
                    <use fill="#FFFFFF" fill-rule="evenodd" xlink:href="#path-3"></use>
                    <path stroke="#D32F2F" stroke-width="2" d="M19,32 C19,28.0951419 15.9048581,25 12,25 C8.09514189,25 5,28.0951419 5,32 C5,35.9048581 8.09514189,39 12,39 C15.9048581,39 19,35.9048581 19,32 Z"></path>
                </g>
                <circle id="Oval-Copy" fill="#D32F2F" cx="12" cy="32" r="4"></circle>
                <g id="icons-/-error" transform="translate(6.000000, 118.000000)" fill="#CF3628">
                    <path d="M0,6 C0,2.68576544 2.68576544,0 6,0 C9.3133393,0 12,2.68576544 12,6 C12,9.3133393 9.3133393,12 6,12 C2.68576544,12 0,9.3133393 0,6 M5.99756317,6.99880684 C6.22944722,6.99880684 6.46133128,6.9967912 6.69424137,6.99981466 C6.88918815,7.00082249 6.99281775,6.89903242 6.99486982,6.71762438 C7.00205207,6.25301823 7.00102604,2.74982739 6.99589586,2.28723688 C6.99384379,2.10683667 6.89739643,2.00000749 6.69834552,2.00000749 C6.2345774,2.00202313 5.77080929,2.00303095 5.30704117,2.00000749 C5.11106836,1.99899966 5.00846479,2.09978191 5.00538669,2.28118995 C4.99820444,2.7457961 4.99820444,6.24797912 5.00538669,6.71157744 C5.00846479,6.907095 5.12030268,7.00485378 5.32653585,6.99981466 C5.54918558,6.99477555 5.77388739,6.99880684 5.99756317,6.99880684 M5.99756317,9.99878337 C6.22944722,9.99878337 6.46133128,9.99672807 6.69424137,9.99878337 C6.88918815,10.0008387 6.99281775,9.89601855 6.99486982,9.71104188 C7.00205207,9.23832371 7.00102604,8.76457789 6.99589586,8.29185972 C6.99384379,8.10791069 6.89739643,8.00000763 6.69834552,8.00000763 C6.2345774,8.00206293 5.77080929,8.00309058 5.30704117,8.00000763 C5.11106836,7.99897999 5.00846479,8.1017448 5.00538669,8.28672148 C4.99820444,8.75943965 4.99820444,9.23318547 5.00538669,9.70590363 C5.00846479,9.90526738 5.12030268,10.0049493 5.32653585,9.99981102 C5.54918558,9.99467278 5.77388739,9.99878337 5.99756317,9.99878337" id="Fill-1"></path>
                </g>
                <g id="Group-22" transform="translate(172.000000, 127.000000)">
                    <text id="redline-label-copy-5" font-family="Roboto-Regular, Roboto" font-size="10" font-weight="normal" fill="#EC407A">
                        <tspan x="66" y="9">Roboto, Regular, 13px, #d32f2f (Red 900) </tspan>
                    </text>
                    <g id="specs-/-redlines-/-line-straight" transform="translate(31.000000, 6.000000) scale(-1, 1) translate(-31.000000, -6.000000) translate(0.000000, 1.000000)" stroke="#EC3F7A">
                        <path d="M10,5 L62,5" id="Stroke-8"></path>
                        <path d="M5.00099983,0 C7.76299974,0 10.0009997,2.239 9.99999967,5 C9.99999967,7.762 7.76199974,10 4.99999983,10 C2.23799993,10 0,7.761 0,5 C0.000999999967,2.238 2.23899992,0 5.00099983,0" id="Path" fill-opacity="0.3" fill="#F03F7B" fill-rule="evenodd"></path>
                    </g>
                </g>
            </g>
        </g>
    </g>
</svg>