<?xml version="1.0" encoding="UTF-8" standalone="no"?>
<svg width="432px" height="140px" viewBox="0 0 432 140" version="1.1" xmlns="http://www.w3.org/2000/svg" xmlns:xlink="http://www.w3.org/1999/xlink">
    <!-- Generator: Sketch 47.1 (45422) - http://www.bohemiancoding.com/sketch -->
    <title>radio-hero</title>
    <desc>Created with Sketch.</desc>
    <defs>
        <path d="M16,8 C16,12.4571429 12.4571429,16 8,16 C3.54285714,16 0,12.4571429 0,8 C0,3.54285714 3.54285714,-7.26529947e-13 8,-7.26529947e-13 C12.4571429,-7.26529947e-13 16,3.54285714 16,8 Z" id="path-1"></path>
        <path d="M16,8 C16,12.4571429 12.4571429,16 8,16 C3.54285714,16 0,12.4571429 0,8 C0,3.54285714 3.54285714,-7.26529947e-13 8,-7.26529947e-13 C12.4571429,-7.26529947e-13 16,3.54285714 16,8 Z" id="path-2"></path>
        <path d="M16,8 C16,12.4571429 12.4571429,16 8,16 C3.54285714,16 0,12.4571429 0,8 C0,3.54285714 3.54285714,-7.26529947e-13 8,-7.26529947e-13 C12.4571429,-7.26529947e-13 16,3.54285714 16,8 Z" id="path-3"></path>
        <path d="M16,8 C16,12.4571429 12.4571429,16 8,16 C3.54285714,16 0,12.4571429 0,8 C0,3.54285714 3.54285714,-7.26529947e-13 8,-7.26529947e-13 C12.4571429,-7.26529947e-13 16,3.54285714 16,8 Z" id="path-4"></path>
        <path d="M16,8 C16,12.4571429 12.4571429,16 8,16 C3.54285714,16 0,12.4571429 0,8 C0,3.54285714 3.54285714,-7.26529947e-13 8,-7.26529947e-13 C12.4571429,-7.26529947e-13 16,3.54285714 16,8 Z" id="path-5"></path>
        <path d="M16,8 C16,12.4571429 12.4571429,16 8,16 C3.54285714,16 0,12.4571429 0,8 C0,3.54285714 3.54285714,-7.26529947e-13 8,-7.26529947e-13 C12.4571429,-7.26529947e-13 16,3.54285714 16,8 Z" id="path-6"></path>
    </defs>
    <g id="Page-1" stroke="none" stroke-width="1" fill="none" fill-rule="evenodd">
        <g id="radio-hero">
            <g id="Composition-Section" transform="translate(241.000000, 27.000000)">
                <g id="Composition-image">
                    <text id="Option-2-Copy-2" font-family="Roboto-Regular, Roboto" font-size="16" font-weight="normal" line-spacing="20" letter-spacing="0.00666666683" fill="#333333">
                        <tspan x="22" y="58">Option 2</tspan>
                    </text>
                    <text id="Option-3-Copy-2" font-family="Roboto-Regular, Roboto" font-size="16" font-weight="normal" line-spacing="20" letter-spacing="0.00666666683" fill="#333333">
                        <tspan x="22" y="80">Option 3</tspan>
                    </text>
                    <text id="Option-1-Copy-2" font-family="Roboto-Regular, Roboto" font-size="16" font-weight="normal" line-spacing="20" letter-spacing="0.00666666683" fill="#333333">
                        <tspan x="22" y="37">Option 1</tspan>
                    </text>
                    <text id="Label" font-family="Roboto-Regular, Roboto" font-size="14" font-weight="normal" fill="#616161">
                        <tspan x="0" y="13">Label</tspan>
                    </text>
                    <g id="composition-dots" transform="translate(0.000000, 25.000000)">
                        <g id="Radio-button---default-Copy-7" transform="translate(0.000000, 21.000000)" fill-rule="nonzero">
                            <g id="Shape-Copy-7">
                                <use fill="#FFFFFF" fill-rule="evenodd" xlink:href="#path-1"></use>
                                <path stroke="#BDBDBD" stroke-width="1" d="M15.5,8 C15.5,3.81899952 12.1810005,0.5 8,0.5 C3.81899952,0.5 0.5,3.81899952 0.5,8 C0.5,12.1810005 3.81899952,15.5 8,15.5 C12.1810005,15.5 15.5,12.1810005 15.5,8 Z"></path>
                            </g>
                        </g>
                        <g id="Radio-button---default-Copy-6" transform="translate(0.000000, 43.000000)" fill-rule="nonzero">
                            <g id="Shape-Copy-7">
                                <use fill="#FFFFFF" fill-rule="evenodd" xlink:href="#path-2"></use>
                                <path stroke="#BDBDBD" stroke-width="1" d="M15.5,8 C15.5,3.81899952 12.1810005,0.5 8,0.5 C3.81899952,0.5 0.5,3.81899952 0.5,8 C0.5,12.1810005 3.81899952,15.5 8,15.5 C12.1810005,15.5 15.5,12.1810005 15.5,8 Z"></path>
                            </g>
                        </g>
                        <g id="Radio-button---selected-Copy">
                            <g id="Shape-Copy-10" fill-rule="nonzero">
                                <use fill="#FFFFFF" fill-rule="evenodd" xlink:href="#path-3"></use>
                                <path stroke="#0C7C84" stroke-width="1" d="M15.5,8 C15.5,3.81899952 12.1810005,0.5 8,0.5 C3.81899952,0.5 0.5,3.81899952 0.5,8 C0.5,12.1810005 3.81899952,15.5 8,15.5 C12.1810005,15.5 15.5,12.1810005 15.5,8 Z"></path>
                            </g>
                            <circle id="Oval" fill="#0C7C84" cx="8" cy="8" r="4"></circle>
                        </g>
                    </g>
                </g>
            </g>
            <g id="Composition-Section-Copy" transform="translate(102.000000, 27.000000)">
                <g id="Composition-image">
                    <text id="Option-2-Copy-2" font-family="Roboto-Regular, Roboto" font-size="16" font-weight="normal" line-spacing="20" letter-spacing="0.00666666683" fill="#333333">
                        <tspan x="22" y="58">Option 2</tspan>
                    </text>
                    <text id="Option-3-Copy-2" font-family="Roboto-Regular, Roboto" font-size="16" font-weight="normal" line-spacing="20" letter-spacing="0.00666666683" fill="#333333">
                        <tspan x="22" y="80">Option 3</tspan>
                    </text>
                    <text id="Option-1-Copy-2" font-family="Roboto-Regular, Roboto" font-size="16" font-weight="normal" line-spacing="20" letter-spacing="0.00666666683" fill="#333333">
                        <tspan x="22" y="37">Option 1</tspan>
                    </text>
                    <text id="Label" font-family="Roboto-Regular, Roboto" font-size="14" font-weight="normal" fill="#616161">
                        <tspan x="0" y="13">Label</tspan>
                    </text>
                    <g id="composition-dots" transform="translate(0.000000, 25.000000)">
                        <g id="Radio-button---default-Copy-7" transform="translate(0.000000, 21.000000)" fill-rule="nonzero">
                            <g id="Shape-Copy-7">
                                <use fill="#FFFFFF" fill-rule="evenodd" xlink:href="#path-4"></use>
                                <path stroke="#BDBDBD" stroke-width="1" d="M15.5,8 C15.5,3.81899952 12.1810005,0.5 8,0.5 C3.81899952,0.5 0.5,3.81899952 0.5,8 C0.5,12.1810005 3.81899952,15.5 8,15.5 C12.1810005,15.5 15.5,12.1810005 15.5,8 Z"></path>
                            </g>
                        </g>
                        <g id="Radio-button---default-Copy-6" transform="translate(0.000000, 43.000000)" fill-rule="nonzero">
                            <g id="Shape-Copy-7">
                                <use fill="#FFFFFF" fill-rule="evenodd" xlink:href="#path-5"></use>
                                <path stroke="#BDBDBD" stroke-width="1" d="M15.5,8 C15.5,3.81899952 12.1810005,0.5 8,0.5 C3.81899952,0.5 0.5,3.81899952 0.5,8 C0.5,12.1810005 3.81899952,15.5 8,15.5 C12.1810005,15.5 15.5,12.1810005 15.5,8 Z"></path>
                            </g>
                        </g>
                        <g id="Radio-button---selected-Copy">
                            <g id="Shape-Copy-10" fill-rule="nonzero">
                                <use fill="#FFFFFF" fill-rule="evenodd" xlink:href="#path-6"></use>
                                <path stroke="#0C7C84" stroke-width="1" d="M15.5,8 C15.5,3.81899952 12.1810005,0.5 8,0.5 C3.81899952,0.5 0.5,3.81899952 0.5,8 C0.5,12.1810005 3.81899952,15.5 8,15.5 C12.1810005,15.5 15.5,12.1810005 15.5,8 Z"></path>
                            </g>
                            <circle id="Oval" fill="#0C7C84" cx="8" cy="8" r="4"></circle>
                        </g>
                    </g>
                </g>
            </g>
        </g>
    </g>
</svg>