<?xml version="1.0" encoding="UTF-8" standalone="no"?>
<svg width="580px" height="239px" viewBox="0 0 580 239" version="1.1" xmlns="http://www.w3.org/2000/svg" xmlns:xlink="http://www.w3.org/1999/xlink">
    <!-- Generator: Sketch 47.1 (45422) - http://www.bohemiancoding.com/sketch -->
    <title>radio-spacing</title>
    <desc>Created with Sketch.</desc>
    <style type="text/css">@import url('https://fonts.googleapis.com/css?family=Roboto:300,400,500');</style>
    <defs>
        <path d="M16,8 C16,12.4571429 12.4571429,16 8,16 C3.54285714,16 0,12.4571429 0,8 C0,3.54285714 3.54285714,-7.26529947e-13 8,-7.26529947e-13 C12.4571429,-7.26529947e-13 16,3.54285714 16,8 Z" id="path-1"></path>
        <path d="M16,8 C16,12.4571429 12.4571429,16 8,16 C3.54285714,16 0,12.4571429 0,8 C0,3.54285714 3.54285714,-7.26529947e-13 8,-7.26529947e-13 C12.4571429,-7.26529947e-13 16,3.54285714 16,8 Z" id="path-2"></path>
        <path d="M16,8 C16,12.4571429 12.4571429,16 8,16 C3.54285714,16 0,12.4571429 0,8 C0,3.54285714 3.54285714,-7.26529947e-13 8,-7.26529947e-13 C12.4571429,-7.26529947e-13 16,3.54285714 16,8 Z" id="path-3"></path>
        <path d="M16,8 C16,12.4571429 12.4571429,16 8,16 C3.54285714,16 0,12.4571429 0,8 C0,3.54285714 3.54285714,-7.26529947e-13 8,-7.26529947e-13 C12.4571429,-7.26529947e-13 16,3.54285714 16,8 Z" id="path-4"></path>
        <path d="M16,8 C16,12.4571429 12.4571429,16 8,16 C3.54285714,16 0,12.4571429 0,8 C0,3.54285714 3.54285714,-7.26529947e-13 8,-7.26529947e-13 C12.4571429,-7.26529947e-13 16,3.54285714 16,8 Z" id="path-5"></path>
        <path d="M16,8 C16,12.4571429 12.4571429,16 8,16 C3.54285714,16 0,12.4571429 0,8 C0,3.54285714 3.54285714,-7.26529947e-13 8,-7.26529947e-13 C12.4571429,-7.26529947e-13 16,3.54285714 16,8 Z" id="path-6"></path>
    </defs>
    <g id="Page-1" stroke="none" stroke-width="1" fill="none" fill-rule="evenodd">
        <g id="spacing-specs-section" transform="translate(9.000000, 17.000000)">
            <g id="Spacing-specs-image">
                <g id="without-subtitle" transform="translate(191.000000, 0.000000)">
                    <path d="M150.486146,84 L159.515592,84" id="Stroke-8-Copy" stroke="#EC3F7A"></path>
                    <path d="M108.991382,-1.5 L108.991382,100.004841" id="Stroke-8-Copy-2" stroke="#EC3F7A" transform="translate(109.000000, 49.500000) rotate(-90.000000) translate(-109.000000, -49.500000) "></path>
                    <path d="M164.001,44 C166.763,44 169.001,46.239 169,49 C169,51.762 166.762,54 164,54 C161.238,54 159,51.761 159,49 C159.001,46.238 161.239,44 164.001,44" id="Path" stroke="#EC3F7A" fill-opacity="0.3" fill="#F03F7B" transform="translate(164.000000, 49.000000) rotate(-90.000000) translate(-164.000000, -49.000000) "></path>
                    <text id="redline-label" font-family="Roboto-Regular, Roboto" font-size="10" font-weight="normal" fill="#EC407A">
                        <tspan x="172" y="52">Roboto, Medium, 16px, #424242 (Gray 900)</tspan>
                    </text>
                    <path d="M127.991382,35.9999995 L127.991382,99" id="Stroke-8-Copy-2" stroke="#EC3F7A" transform="translate(128.000000, 67.500000) rotate(-90.000000) translate(-128.000000, -67.500000) "></path>
                    <path d="M164.001,62 C166.763,62 169.001,64.239 169,67 C169,69.762 166.762,72 164,72 C161.238,72 159,69.761 159,67 C159.001,64.238 161.239,62 164.001,62" id="Path" stroke="#EC3F7A" fill-opacity="0.3" fill="#F03F7B" transform="translate(164.000000, 67.000000) rotate(-90.000000) translate(-164.000000, -67.000000) "></path>
                    <path d="M169,84 C169,86.762 166.762,89 164,89 C161.238,89 159,86.761 159,84 C159.001,81.238 161.239,79 164.001,79 C166.763,79 169.001,81.239 169,84 Z" id="Path-Copy" stroke="#EC3F7A" fill-opacity="0.3" fill="#F03F7B" transform="translate(164.000000, 84.000000) rotate(-90.000000) translate(-164.000000, -84.000000) "></path>
                    <text id="redline-label-copy-3" font-family="Roboto-Regular, Roboto" font-size="10" font-weight="normal" fill="#EC407A">
                        <tspan x="172" y="70">Roboto, Regular, 16px, #424242 (Gray 900)</tspan>
                    </text>
                    <text id="redline-label-copy-5" font-family="Roboto-Regular, Roboto" font-size="10" font-weight="normal" fill="#EC407A">
                        <tspan x="172" y="87">Roboto, Regular, 12px, #6b6b6b (Gray 750) </tspan>
                    </text>
                    <g id="specs-/-spacing-/-stack-/-H-08px" transform="translate(6.000000, 48.000000)">
                        <rect id="Rectangle-3" fill="#9CC2EB" fill-rule="evenodd" x="0" y="3" width="89" height="8"></rect>
                        <text id="8" font-family="Roboto-Regular, Roboto" font-size="10" font-weight="normal" fill="#333333">
                            <tspan x="40.9868421" y="9">8</tspan>
                        </text>
                    </g>
                    <g id="specs-/-spacing-/-stack-/-H-08px-Copy" transform="translate(0.000000, 85.000000)">
                        <rect id="Rectangle-3" fill="#9CC2EB" x="4" y="3" width="91" height="4"></rect>
                        <text id="4" font-family="Roboto-Regular, Roboto" font-size="8" font-weight="normal" fill="#333333">
                            <tspan x="0" y="7">4</tspan>
                        </text>
                        <text id="4-copy" font-family="Roboto-Regular, Roboto" font-size="8" font-weight="normal" fill="#333333">
                            <tspan x="0" y="29">4</tspan>
                        </text>
                    </g>
                    <g id="specs-/-spacing-/-stack-/-H-08px-Copy-2" transform="translate(6.000000, 110.000000)" fill="#9CC2EB">
                        <rect id="Rectangle-3" x="0" y="0" width="89" height="4"></rect>
                    </g>
                    <g id="specs-/-spacing-/-inline-/-V-08px" transform="translate(26.000000, 59.000000)">
                        <rect id="Rectangle-5-Copy-19" fill="#90D5B2" fill-rule="evenodd" x="0" y="0" width="8" height="74"></rect>
                        <text id="8-copy-12" font-family="Roboto-Regular, Roboto" font-size="12" font-weight="normal" fill="#333333">
                            <tspan x="1" y="38.52">8</tspan>
                        </text>
                    </g>
                    <text id="This-is-some-subtext" font-family="Roboto-Regular, Roboto" font-size="12" font-weight="normal" line-spacing="15" letter-spacing="0.00461538462" fill="#616161">
                        <tspan x="35" y="86">This is some subtext</tspan>
                    </text>
                    <text id="1" font-family="Roboto-Regular, Roboto" font-size="8" font-weight="normal" line-spacing="15" letter-spacing="0.00307692308" fill="#424242">
                        <tspan x="0" y="80">1</tspan>
                    </text>
                    <text id="Option-2" font-family="Roboto-Regular, Roboto" font-size="16" font-weight="normal" line-spacing="20" letter-spacing="0.00666666683" fill="#333333">
                        <tspan x="34" y="105">Option 2</tspan>
                    </text>
                    <text id="Option-3" font-family="Roboto-Regular, Roboto" font-size="16" font-weight="normal" line-spacing="20" letter-spacing="0.00666666683" fill="#333333">
                        <tspan x="34" y="127">Option 3</tspan>
                    </text>
                    <text id="Option-1" font-family="Roboto-Regular, Roboto" font-size="16" font-weight="normal" line-spacing="20" letter-spacing="0.00666666683" fill="#333333">
                        <tspan x="34" y="73">Option 1</tspan>
                    </text>
                    <text id="Label" font-family="Roboto-Medium, Roboto" font-size="16" font-weight="400" fill="#424242">
                        <tspan x="5" y="51">Label</tspan>
                    </text>
                    <g id="specs-/-spacing-/-internal-/-H-20px" transform="translate(6.000000, 132.000000)">
                        <rect id="Rectangle-3-Copy-5" fill="#F9CD94" fill-rule="evenodd" x="0" y="0" width="89" height="20"></rect>
                        <text id="20" font-family="Roboto-Regular, Roboto" font-size="12" font-weight="normal" fill="#333333">
                            <tspan x="37.7617188" y="13">20</tspan>
                        </text>
                    </g>
                    <g id="specs-/-spacing-/-internal-/-H-20px" transform="translate(6.000000, 20.000000)">
                        <rect id="Rectangle-3-Copy-5" fill="#F9CD94" fill-rule="evenodd" x="0" y="0" width="89" height="20"></rect>
                        <text id="20" font-family="Roboto-Regular, Roboto" font-size="12" font-weight="normal" fill="#333333">
                            <tspan x="37.7617188" y="13">20</tspan>
                        </text>
                    </g>
                    <rect id="Rectangle-3" fill="#9CC2EB" x="6" y="77" width="89" height="1"></rect>
                    <g id="specs-/-redlines-/-label-title-sm-copy" transform="translate(6.000000, 0.000000)" font-size="10" font-family="Roboto-Regular, Roboto" fill="#9E9E9E" font-weight="normal">
                        <text id="WITHOUT-SUBTITLE">
                            <tspan x="0" y="9">WITHOUT SUBTITLE</tspan>
                        </text>
                    </g>
                    <g id="dots" transform="translate(10.000000, 61.000000)">
                        <g id="Radio-button---default-Copy-7" transform="translate(0.000000, 32.000000)" fill-rule="nonzero">
                            <g id="Shape-Copy-7">
                                <use fill="#FFFFFF" fill-rule="evenodd" xlink:href="#path-1"></use>
                                <path stroke="#BDBDBD" stroke-width="1" d="M15.5,8 C15.5,3.81899952 12.1810005,0.5 8,0.5 C3.81899952,0.5 0.5,3.81899952 0.5,8 C0.5,12.1810005 3.81899952,15.5 8,15.5 C12.1810005,15.5 15.5,12.1810005 15.5,8 Z"></path>
                            </g>
                        </g>
                        <g id="Radio-button---default-Copy-6" transform="translate(0.000000, 54.000000)" fill-rule="nonzero">
                            <g id="Shape-Copy-7">
                                <use fill="#FFFFFF" fill-rule="evenodd" xlink:href="#path-2"></use>
                                <path stroke="#BDBDBD" stroke-width="1" d="M15.5,8 C15.5,3.81899952 12.1810005,0.5 8,0.5 C3.81899952,0.5 0.5,3.81899952 0.5,8 C0.5,12.1810005 3.81899952,15.5 8,15.5 C12.1810005,15.5 15.5,12.1810005 15.5,8 Z"></path>
                            </g>
                        </g>
                        <g id="Radio-button---selected-Copy">
                            <g id="Shape-Copy-10" fill-rule="nonzero">
                                <use fill="#FFFFFF" fill-rule="evenodd" xlink:href="#path-3"></use>
                                <path stroke="#0C7C84" stroke-width="1" d="M15.5,8 C15.5,3.81899952 12.1810005,0.5 8,0.5 C3.81899952,0.5 0.5,3.81899952 0.5,8 C0.5,12.1810005 3.81899952,15.5 8,15.5 C12.1810005,15.5 15.5,12.1810005 15.5,8 Z"></path>
                            </g>
                            <circle id="Oval" fill="#0C7C84" cx="8" cy="8" r="4"></circle>
                            <circle id="Oval-Copy" fill="#0C7C84" cx="8" cy="8" r="4"></circle>
                        </g>
                    </g>
                </g>
                <g id="With-Subtitle">
                    <text id="This-is-some-subtext-Copy" font-family="Roboto-Regular, Roboto" font-size="12" font-weight="normal" line-spacing="15" letter-spacing="0.00461538462" fill="#616161">
                        <tspan x="32" y="126">This is some subtext</tspan>
                    </text>
                    <text id="Option-2-Copy-5" font-family="Roboto-Regular, Roboto" font-size="16" font-weight="normal" line-spacing="20" letter-spacing="0.00666666683" fill="#333333">
                        <tspan x="32" y="144">Option 2</tspan>
                    </text>
                    <text id="Option-1-Copy-5" font-family="Roboto-Regular, Roboto" font-size="16" font-weight="normal" line-spacing="20" letter-spacing="0.00666666683" fill="#333333">
                        <tspan x="32" y="112">Option 1</tspan>
                    </text>
                    <text id="Label" stroke="#979797" font-family="Roboto-Medium, Roboto" font-size="16" font-weight="400" fill="#424242">
                        <tspan x="3" y="48">Label</tspan>
                    </text>
                    <text id="Select-an-option" font-family="Roboto-Regular, Roboto" font-size="16" font-weight="normal" line-spacing="20" letter-spacing="0.005" fill="#333333">
                        <tspan x="3" y="78">Select an option</tspan>
                    </text>
                    <g id="option-3" transform="translate(6.000000, 149.000000)">
                        <text id="Option-3-Copy-6" font-family="Roboto-Regular, Roboto" font-size="16" font-weight="normal" line-spacing="20" letter-spacing="0.00666666683" fill="#333333">
                            <tspan x="25.2999878" y="16.8999939">Option 3</tspan>
                        </text>
                        <g id="specs-/-spacing-/-stack-/-H-08px-Copy-3"></g>
                    </g>
                    <g id="Radio-button---default-Copy-4" transform="translate(9.000000, 132.000000)" fill-rule="nonzero">
                        <g id="Shape-Copy-7">
                            <use fill="#FFFFFF" fill-rule="evenodd" xlink:href="#path-4"></use>
                            <path stroke="#BDBDBD" stroke-width="1" d="M15.5,8 C15.5,3.81899952 12.1810005,0.5 8,0.5 C3.81899952,0.5 0.5,3.81899952 0.5,8 C0.5,12.1810005 3.81899952,15.5 8,15.5 C12.1810005,15.5 15.5,12.1810005 15.5,8 Z"></path>
                        </g>
                    </g>
                    <g id="Radio-button---default-Copy-5" transform="translate(9.000000, 154.000000)" fill-rule="nonzero">
                        <g id="Shape-Copy-7">
                            <use fill="#FFFFFF" fill-rule="evenodd" xlink:href="#path-5"></use>
                            <path stroke="#BDBDBD" stroke-width="1" d="M15.5,8 C15.5,3.81899952 12.1810005,0.5 8,0.5 C3.81899952,0.5 0.5,3.81899952 0.5,8 C0.5,12.1810005 3.81899952,15.5 8,15.5 C12.1810005,15.5 15.5,12.1810005 15.5,8 Z"></path>
                        </g>
                    </g>
                    <g id="Radio-button---selected" transform="translate(9.000000, 100.000000)">
                        <g id="Shape-Copy-10" fill-rule="nonzero">
                            <use fill="#FFFFFF" fill-rule="evenodd" xlink:href="#path-6"></use>
                            <path stroke="#0C7C84" stroke-width="1" d="M15.5,8 C15.5,3.81899952 12.1810005,0.5 8,0.5 C3.81899952,0.5 0.5,3.81899952 0.5,8 C0.5,12.1810005 3.81899952,15.5 8,15.5 C12.1810005,15.5 15.5,12.1810005 15.5,8 Z"></path>
                        </g>
                        <circle id="Oval" fill="#0C7C84" cx="8" cy="8" r="4"></circle>
                        <circle id="Oval-Copy" fill="#0C7C84" cx="8" cy="8" r="4"></circle>
                    </g>
                    <g id="with-subtitle-spacing-blocks" transform="translate(0.000000, 15.000000)">
                        <g id="specs-/-spacing-/-internal-/-H-20px" transform="translate(4.000000, 0.000000)">
                            <rect id="Rectangle-3-Copy-5" fill="#F9CD94" fill-rule="evenodd" x="0" y="0" width="56" height="20"></rect>
                            <text id="20" font-family="Roboto-Regular, Roboto" font-size="12" font-weight="normal" fill="#333333">
                                <tspan x="21.2617188" y="13">20</tspan>
                            </text>
                        </g>
                        <g id="specs-/-spacing-/-internal-/-H-16px" transform="translate(4.000000, 34.000000)">
                            <rect id="Rectangle-3-Copy-2" fill="#F9CD94" fill-rule="evenodd" x="0" y="0" width="117" height="16"></rect>
                            <text id="16" font-family="Roboto-Regular, Roboto" font-size="12" font-weight="normal" fill="#333333">
                                <tspan x="50.31" y="11">16</tspan>
                            </text>
                        </g>
                        <g id="specs-/-spacing-/-internal-/-H-16px" transform="translate(4.000000, 67.000000)">
                            <rect id="Rectangle-3-Copy-2" fill="#F9CD94" fill-rule="evenodd" x="0" y="0" width="117" height="16"></rect>
                            <text id="16" font-family="Roboto-Regular, Roboto" font-size="12" font-weight="normal" fill="#333333">
                                <tspan x="50.31" y="11">16</tspan>
                            </text>
                        </g>
                        <rect id="Rectangle-3" fill="#9CC2EB" x="6" y="112" width="89" height="4"></rect>
                        <text id="4" font-family="Roboto-Regular, Roboto" font-size="8" font-weight="normal" fill="#333333">
                            <tspan x="0" y="116">4</tspan>
                        </text>
                        <text id="4-copy" font-family="Roboto-Regular, Roboto" font-size="8" font-weight="normal" fill="#333333">
                            <tspan x="0" y="138">4</tspan>
                        </text>
                        <text id="1-copy" font-family="Roboto-Regular, Roboto" font-size="8" font-weight="normal" line-spacing="15" letter-spacing="0.00307692308" fill="#424242">
                            <tspan x="0" y="104">1</tspan>
                        </text>
                        <rect id="Rectangle-3" fill="#9CC2EB" x="6" y="134" width="89" height="4"></rect>
                        <rect id="Rectangle-3-Copy" fill="#9CC2EB" x="6" y="101" width="89" height="1"></rect>
                        <g id="specs-/-spacing-/-inline-/-V-08px" transform="translate(25.000000, 83.000000)">
                            <rect id="Rectangle-5-Copy-19" fill="#90D5B2" fill-rule="evenodd" x="0" y="0" width="8" height="74"></rect>
                            <text id="8-copy-12" font-family="Roboto-Regular, Roboto" font-size="12" font-weight="normal" fill="#333333">
                                <tspan x="1" y="38.52">8</tspan>
                            </text>
                        </g>
                        <g id="specs-/-spacing-/-internal-/-H-20px" transform="translate(6.000000, 155.200012)">
                            <rect id="Rectangle-3-Copy-5" fill="#F9CD94" fill-rule="evenodd" x="0" y="0" width="89" height="20"></rect>
                            <text id="20" font-family="Roboto-Regular, Roboto" font-size="12" font-weight="normal" fill="#333333">
                                <tspan x="37.7617188" y="13">20</tspan>
                            </text>
                        </g>
                    </g>
                    <g id="specs-/-redlines-/-label-title-sm" transform="translate(5.000000, 0.000000)" font-size="10" font-family="Roboto-Regular, Roboto" fill="#9E9E9E" font-weight="normal">
                        <text id="SMALL-LABEL">
                            <tspan x="0" y="9">WITH SUBTITLE</tspan>
                        </text>
                    </g>
                </g>
            </g>
        </g>
        <g id="radio-spacing"></g>
    </g>
</svg>