<?xml version="1.0" encoding="UTF-8" standalone="no"?>
<svg width="641px" height="399px" viewBox="0 0 641 399" version="1.1" xmlns="http://www.w3.org/2000/svg" xmlns:xlink="http://www.w3.org/1999/xlink">
    <!-- Generator: Sketch 46.2 (44496) - http://www.bohemiancoding.com/sketch -->
    <title>Group</title>
    <desc>Created with Sketch.</desc>
    <defs>
        <rect id="path-1" x="0" y="0" width="633" height="391"></rect>
        <filter x="-1.1%" y="-1.3%" width="102.2%" height="103.6%" filterUnits="objectBoundingBox" id="filter-3">
            <feOffset dx="0" dy="2" in="SourceAlpha" result="shadowOffsetOuter1"></feOffset>
            <feGaussianBlur stdDeviation="2" in="shadowOffsetOuter1" result="shadowBlurOuter1"></feGaussianBlur>
            <feColorMatrix values="0 0 0 0 0   0 0 0 0 0   0 0 0 0 0  0 0 0 0.2 0" type="matrix" in="shadowBlurOuter1"></feColorMatrix>
        </filter>
        <rect id="path-4" x="256" y="-12" width="372" height="345"></rect>
    </defs>
    <g id="*Document*" stroke="none" stroke-width="1" fill="none" fill-rule="evenodd">
        <g id="2)-Specs-&amp;-States" transform="translate(-355.000000, -349.000000)">
            <g id="Default-Layout" transform="translate(0.000000, 351.000000)">
                <g id="Group-2" transform="translate(32.000000, 0.000000)">
                    <g id="Group" transform="translate(327.000000, 0.000000)">
                        <g id="16px-text---40px-footer">
                            <mask id="mask-2" fill="white">
                                <use xlink:href="#path-1"></use>
                            </mask>
                            <g id="Mask">
                                <use fill="black" fill-opacity="1" filter="url(#filter-3)" xlink:href="#path-1"></use>
                                <use fill="#FAFAFA" fill-rule="evenodd" xlink:href="#path-1"></use>
                            </g>
                            <g id="Rectangle" mask="url(#mask-2)">
                                <use fill="#FFFFFF" fill-rule="evenodd" xlink:href="#path-4"></use>
                                <rect stroke="#E1E1E1" stroke-width="1" x="256.5" y="-11.5" width="371" height="344"></rect>
                            </g>
                            <g mask="url(#mask-2)">
                                <g transform="translate(-12.000000, -11.000000)">
                                    <g id="navigation-/-left-/-nav-bar" fill="none">
                                        <rect id="left-nav-bar" fill="#212121" x="0" y="0" width="240" height="367"></rect>
                                    </g>
                                    <rect id="Rectangle-2-Copy" fill="#333333" x="12" y="367" width="641" height="35"></rect>
                                    <path d="M346.637329,386.0666 L346.637329,389.936405 L345,389.936405 L345,379.729094 L348.833911,379.729094 C349.916485,379.729094 350.76434,380.020027 351.377499,380.601903 C351.990658,381.183779 352.297233,381.949086 352.297233,382.897847 C352.297233,383.855955 351.990658,384.623599 351.377499,385.200801 C350.76434,385.778003 349.916485,386.0666 348.833911,386.0666 L346.637329,386.0666 Z M346.637329,384.699549 L348.833911,384.699549 C349.440332,384.699549 349.896265,384.531299 350.201721,384.194792 C350.507178,383.858286 350.659904,383.430649 350.659904,382.911868 C350.659904,382.393087 350.507178,381.960776 350.201721,381.614922 C349.896265,381.269069 349.440332,381.096144 348.833911,381.096144 L346.637329,381.096144 L346.637329,384.699549 Z M357.400932,383.886329 L356.700182,383.858287 C356.38125,383.858287 356.115102,383.928392 355.901732,384.068603 C355.688361,384.208814 355.523282,384.407443 355.40649,384.664497 L355.40649,389.936405 L353.769161,389.936405 L353.769161,382.351027 L355.264992,382.351027 L355.3728,383.451678 C355.556973,383.06376 355.793923,382.759974 356.083657,382.54031 C356.373392,382.320647 356.706918,382.210816 357.084247,382.210816 C357.183071,382.210816 357.275156,382.218995 357.360504,382.235353 C357.445853,382.251711 357.524462,382.271574 357.596334,382.294942 L357.400932,383.886329 Z M360.355216,389.936405 L358.717886,389.936405 L358.717886,382.351027 L360.355216,382.351027 L360.355216,389.936405 Z M360.355216,380.49324 L358.717886,380.49324 L358.717886,379 L360.355216,379 L360.355216,380.49324 Z M364.785117,387.370556 L364.9064,387.987481 L364.946828,387.987481 L365.07485,387.370556 L366.523516,382.351027 L368.214749,382.351027 L365.627364,389.936405 L364.20565,389.936405 L361.60479,382.351027 L363.296023,382.351027 L364.785117,387.370556 Z M373.587967,389.936405 C373.529571,389.744783 373.481283,389.557838 373.443101,389.375563 C373.404919,389.193289 373.37909,389.011017 373.365614,388.828743 C373.141013,389.183944 372.845668,389.481888 372.479569,389.722584 C372.113471,389.963279 371.703581,390.083625 371.249888,390.083625 C370.490738,390.083625 369.907909,389.880323 369.501382,389.473711 C369.094855,389.067099 368.891595,388.5086 368.891595,387.798197 C368.891595,387.064426 369.170095,386.493075 369.727104,386.084126 C370.284113,385.675177 371.067957,385.470706 372.07866,385.470706 L373.352138,385.470706 L373.352138,384.804707 C373.352138,384.407443 373.239839,384.096646 373.015239,383.872308 C372.790638,383.647971 372.469465,383.535804 372.051708,383.535804 C371.678871,383.535804 371.382403,383.629276 371.162294,383.816224 C370.942186,384.003172 370.832133,384.243864 370.832133,384.538307 L369.255446,384.538307 L369.248708,384.496244 C369.217264,383.898011 369.474427,383.367554 370.020206,382.904857 C370.565986,382.442161 371.276835,382.210816 372.152777,382.210816 C373.001767,382.210816 373.686788,382.43515 374.207862,382.883826 C374.728935,383.332501 374.989467,383.977462 374.989467,384.818728 L374.989467,388.190786 C374.989467,388.503924 375.009681,388.804205 375.050109,389.091637 C375.090537,389.37907 375.15567,389.660656 375.245511,389.936405 L373.587967,389.936405 Z M371.580049,388.716575 C371.993314,388.716575 372.365022,388.609081 372.695185,388.394091 C373.025348,388.179101 373.24433,387.933735 373.352138,387.657987 L373.352138,386.536304 L372.051708,386.536304 C371.575555,386.536304 371.202723,386.658987 370.933203,386.904357 C370.663682,387.149726 370.528924,387.438322 370.528924,387.770155 C370.528924,388.059925 370.619886,388.290101 370.801812,388.460691 C370.983739,388.631281 371.243148,388.716575 371.580049,388.716575 Z M379.783219,388.723585 C380.183008,388.723585 380.519904,388.600903 380.793916,388.355533 C381.067929,388.110164 381.204933,387.802873 381.204933,387.43365 L382.687289,387.43365 L382.700765,387.475714 C382.723225,388.186116 382.445848,388.798362 381.868624,389.312469 C381.291401,389.826576 380.596273,390.083625 379.783219,390.083625 C378.709629,390.083625 377.886481,389.723756 377.313749,389.004006 C376.741018,388.284256 376.454657,387.372898 376.454657,386.269905 L376.454657,386.024537 C376.454657,384.926217 376.741018,384.016028 377.313749,383.293941 C377.886481,382.571854 378.709629,382.210816 379.783219,382.210816 C380.659161,382.210816 381.370011,382.476045 381.91579,383.00651 C382.461569,383.536975 382.725471,384.211146 382.707503,385.029044 L382.694027,385.071107 L381.204933,385.071107 C381.204933,384.655147 381.073544,384.302288 380.810761,384.012519 C380.547979,383.722749 380.205468,383.577867 379.783219,383.577867 C379.167814,383.577867 378.732096,383.81038 378.476051,384.275413 C378.220006,384.740446 378.091986,385.323482 378.091986,386.024537 L378.091986,386.269905 C378.091986,386.984981 378.220006,387.57269 378.476051,388.03305 C378.732096,388.493409 379.167814,388.723585 379.783219,388.723585 Z M386.497296,386.893841 L386.659007,387.650976 L386.699435,387.650976 L388.296337,382.351027 L390.08864,382.351027 L387.070024,391.086129 C386.876868,391.614257 386.605105,392.065263 386.254729,392.439159 C385.904352,392.813055 385.407992,393 384.765635,393 C384.630875,393 384.486009,392.985979 384.331035,392.957937 C384.176061,392.929895 384.026704,392.897179 383.882959,392.85979 L384.064885,391.541813 C384.123281,391.546486 384.206382,391.553497 384.31419,391.562844 C384.421998,391.572192 384.502853,391.576865 384.556757,391.576865 C384.85323,391.576865 385.09018,391.471709 385.267614,391.261392 C385.445049,391.051076 385.589914,390.808047 385.702214,390.532298 L385.971733,389.845268 L383.323707,382.351027 L385.109272,382.351027 L386.497296,386.893841 Z M396.482341,386.0666 L396.482341,389.936405 L394.845011,389.936405 L394.845011,379.729094 L398.678923,379.729094 C399.761497,379.729094 400.609351,380.020027 401.22251,380.601903 C401.83567,381.183779 402.142245,381.949086 402.142245,382.897847 C402.142245,383.855955 401.83567,384.623599 401.22251,385.200801 C400.609351,385.778003 399.761497,386.0666 398.678923,386.0666 L396.482341,386.0666 Z M396.482341,384.699549 L398.678923,384.699549 C399.285344,384.699549 399.741276,384.531299 400.046733,384.194792 C400.352189,383.858286 400.504915,383.430649 400.504915,382.911868 C400.504915,382.393087 400.352189,381.960776 400.046733,381.614922 C399.741276,381.269069 399.285344,381.096144 398.678923,381.096144 L396.482341,381.096144 L396.482341,384.699549 Z M403.216631,386.07361 C403.216631,384.947249 403.513099,384.02187 404.106045,383.297446 C404.707974,382.573023 405.523262,382.210816 406.551932,382.210816 C407.59857,382.210816 408.41835,382.573023 409.011295,383.297446 C409.608732,384.017196 409.907446,384.942575 409.907446,386.07361 L409.907446,386.220831 C409.907446,387.361214 409.608732,388.291267 409.011295,389.011017 C408.41835,389.726093 407.603062,390.083625 406.565408,390.083625 C405.523261,390.083625 404.703482,389.723756 404.106045,389.004006 C403.513099,388.284256 403.216631,387.35654 403.216631,386.220831 L403.216631,386.07361 Z M404.853961,386.220831 C404.853961,386.959276 404.993211,387.562174 405.271715,388.029544 C405.545728,388.492241 405.976954,388.723585 406.565408,388.723585 C407.135893,388.723585 407.562627,388.492241 407.845624,388.029544 C408.133113,387.562174 408.276855,386.959276 408.276855,386.220831 L408.276855,386.07361 C408.276855,385.349187 408.133113,384.753299 407.845624,384.285929 C407.562627,383.813885 407.131401,383.577867 406.551932,383.577867 C405.981447,383.577867 405.554712,383.813885 405.271715,384.285929 C404.993211,384.757973 404.853961,385.353861 404.853961,386.07361 L404.853961,386.220831 Z M413.144725,389.936405 L411.507395,389.936405 L411.507395,379 L413.144725,379 L413.144725,389.936405 Z M416.786282,389.936405 L415.148953,389.936405 L415.148953,382.351027 L416.786282,382.351027 L416.786282,389.936405 Z M416.786282,380.49324 L415.148953,380.49324 L415.148953,379 L416.786282,379 L416.786282,380.49324 Z M421.69458,388.723585 C422.094369,388.723585 422.431264,388.600903 422.705277,388.355533 C422.979289,388.110164 423.116294,387.802873 423.116294,387.43365 L424.598649,387.43365 L424.612125,387.475714 C424.634585,388.186116 424.357208,388.798362 423.779985,389.312469 C423.202761,389.826576 422.507633,390.083625 421.69458,390.083625 C420.620989,390.083625 419.797841,389.723756 419.22511,389.004006 C418.652378,388.284256 418.366017,387.372898 418.366017,386.269905 L418.366017,386.024537 C418.366017,384.926217 418.652378,384.016028 419.22511,383.293941 C419.797841,382.571854 420.620989,382.210816 421.69458,382.210816 C422.570522,382.210816 423.281371,382.476045 423.827151,383.00651 C424.37293,383.536975 424.636831,384.211146 424.618863,385.029044 L424.605387,385.071107 L423.116294,385.071107 C423.116294,384.655147 422.984904,384.302288 422.722122,384.012519 C422.459339,383.722749 422.116829,383.577867 421.69458,383.577867 C421.079174,383.577867 420.643456,383.81038 420.387411,384.275413 C420.131367,384.740446 420.003346,385.323482 420.003346,386.024537 L420.003346,386.269905 C420.003346,386.984981 420.131367,387.57269 420.387411,388.03305 C420.643456,388.493409 421.079174,388.723585 421.69458,388.723585 Z M428.408656,386.893841 L428.570368,387.650976 L428.610796,387.650976 L430.207697,382.351027 L432,382.351027 L428.981385,391.086129 C428.788228,391.614257 428.516466,392.065263 428.166089,392.439159 C427.815712,392.813055 427.319353,393 426.676995,393 C426.542235,393 426.39737,392.985979 426.242395,392.957937 C426.087421,392.929895 425.938064,392.897179 425.79432,392.85979 L425.976245,391.541813 C426.034641,391.546486 426.117742,391.553497 426.22555,391.562844 C426.333359,391.572192 426.414214,391.576865 426.468118,391.576865 C426.76459,391.576865 427.00154,391.471709 427.178975,391.261392 C427.356409,391.051076 427.501274,390.808047 427.613574,390.532298 L427.883094,389.845268 L425.235067,382.351027 L427.020632,382.351027 L428.408656,386.893841 Z" id="Privacy-Policy-Copy" fill="#16B9D4"></path>
                                    <path d="M226.184412,387.154333 L226.184412,387.168248 L226.191158,387.13346 L228.154429,379.723593 L229.463276,379.723593 L231.446787,387.154333 L231.453534,387.203036 L231.46028,387.13346 L233.012006,379.723593 L234.624452,379.723593 L232.290116,389.85389 L230.79911,389.85389 L228.835839,382.583175 L228.795359,382.583175 L226.825342,389.85389 L225.327589,389.85389 L223,379.723593 L224.612446,379.723593 L226.184412,387.154333 Z M238.790177,390 C237.755688,390 236.931483,389.650963 236.317536,388.952878 C235.703589,388.254793 235.39662,387.358428 235.39662,386.263757 L235.39662,385.985452 C235.39662,384.890781 235.70134,383.98282 236.310789,383.261543 C236.920238,382.540266 237.683725,382.181952 238.601272,382.186591 C239.586285,382.186591 240.340776,382.493883 240.864768,383.108476 C241.388759,383.723069 241.650751,384.547539 241.650751,385.58191 L241.650751,386.57685 L237.096772,386.57685 L237.083279,386.611638 C237.110265,387.209997 237.280054,387.699345 237.59265,388.079696 C237.905245,388.460048 238.33815,388.650221 238.891377,388.650221 C239.332159,388.650221 239.709967,388.594561 240.024812,388.483238 C240.339656,388.371916 240.643252,388.211892 240.935607,388.003163 L241.461845,389.109424 C241.18748,389.3599 240.823166,389.570946 240.36889,389.742568 C239.914614,389.91419 239.388382,390 238.790177,390 Z M238.601272,383.543327 C238.196471,383.543327 237.863641,383.709149 237.60277,384.040797 C237.341898,384.372445 237.179981,384.793377 237.117012,385.303605 L237.130505,385.338393 L240.024812,385.338393 L240.024812,385.164453 C240.024812,384.686694 239.906747,384.297071 239.670613,383.995572 C239.43448,383.694074 239.078036,383.543327 238.601272,383.543327 Z M249.446166,386.340291 C249.446166,387.439601 249.197667,388.324369 248.700662,388.994624 C248.203658,389.664878 247.503139,390 246.599086,390 C246.14481,390 245.750136,389.904913 245.415051,389.714738 C245.079967,389.524562 244.799984,389.246259 244.575095,388.879823 L244.413176,389.85389 L243.036862,389.85389 L243.036862,379 L244.676295,379 L244.676295,383.181531 C244.901184,382.861478 245.171046,382.615645 245.485891,382.444023 C245.800735,382.272401 246.167299,382.186591 246.585592,382.186591 C247.498642,382.186591 248.203658,382.553022 248.700662,383.285895 C249.197667,384.018768 249.446166,384.988187 249.446166,386.194181 L249.446166,386.340291 Z M247.806733,386.194181 C247.806733,385.410285 247.6763,384.777148 247.415428,384.29475 C247.154557,383.812353 246.740768,383.571157 246.174048,383.571157 C245.809728,383.571157 245.505008,383.654648 245.259879,383.821632 C245.01475,383.988616 244.820224,384.220534 244.676295,384.517394 L244.676295,387.676154 C244.815726,387.977653 245.009127,388.210731 245.256505,388.375395 C245.503883,388.54006 245.814225,388.622391 246.187541,388.622391 C246.754261,388.622391 247.165802,388.417143 247.422175,388.006641 C247.678548,387.59614 247.806733,387.040695 247.806733,386.340291 L247.806733,386.194181 Z M255.028684,387.808349 C255.028684,387.548597 254.920739,387.332913 254.704846,387.16129 C254.488952,386.989668 254.086407,386.838921 253.497198,386.709045 C252.624629,386.518869 251.96459,386.248684 251.517061,385.898482 C251.069532,385.54828 250.845771,385.071688 250.845771,384.468691 C250.845771,383.837863 251.104389,383.299812 251.621634,382.854522 C252.138878,382.409232 252.820282,382.186591 253.665864,382.186591 C254.556424,382.186591 255.263689,382.412711 255.787681,382.864959 C256.311672,383.317207 256.562419,383.87729 256.53993,384.545225 L256.526437,384.58697 L254.954471,384.58697 C254.954471,384.276195 254.83978,384.009489 254.610393,383.786844 C254.381006,383.564199 254.066166,383.452878 253.665864,383.452878 C253.270059,383.452878 252.968713,383.544486 252.761815,383.727704 C252.554917,383.910922 252.45147,384.134724 252.45147,384.399114 C252.45147,384.663505 252.549295,384.873392 252.744948,385.028779 C252.940602,385.184167 253.337525,385.322158 253.935729,385.442758 C254.853276,385.637572 255.533555,385.912395 255.976586,386.267236 C256.419618,386.622076 256.64113,387.105626 256.64113,387.7179 C256.64113,388.395112 256.370143,388.944759 255.82816,389.366856 C255.286178,389.788954 254.572166,390 253.686104,390 C252.737072,390 251.988204,389.749528 251.439474,389.248577 C250.890745,388.747626 250.629878,388.172468 250.656865,387.523087 L250.670358,387.481341 L252.195098,387.481341 C252.213089,387.917354 252.366011,388.235082 252.653869,388.434535 C252.941727,388.633988 253.292548,388.733713 253.706344,388.733713 C254.129135,388.733713 254.455219,388.650222 254.684606,388.483238 C254.913993,388.316255 255.028684,388.091294 255.028684,387.808349 Z M259.923046,389.85389 L258.283614,389.85389 L258.283614,382.325743 L259.923046,382.325743 L259.923046,389.85389 Z M259.923046,380.481973 L258.283614,380.481973 L258.283614,379 L259.923046,379 L259.923046,380.481973 Z M263.859386,380.495889 L263.859386,382.325743 L265.168233,382.325743 L265.168233,383.578115 L263.859386,383.578115 L263.859386,387.738773 C263.859386,388.049548 263.924603,388.27103 264.055038,388.403226 C264.185474,388.535421 264.358636,388.601518 264.574529,388.601518 C264.664485,388.601518 264.75219,388.593401 264.837648,388.577166 C264.923106,388.560932 265.004065,388.5389 265.080527,388.511069 L265.255939,389.749526 C265.116508,389.828379 264.950093,389.889837 264.756688,389.933903 C264.563284,389.977968 264.363136,390 264.156238,390 C263.553535,390 263.081276,389.817944 262.739445,389.453827 C262.397613,389.089709 262.2267,388.51803 262.2267,387.738773 L262.2267,383.578115 L261.113505,383.578115 L261.113505,382.325743 L262.2267,382.325743 L262.2267,380.495889 L263.859386,380.495889 Z M269.819716,390 C268.785227,390 267.961021,389.650963 267.347074,388.952878 C266.733128,388.254793 266.426159,387.358428 266.426159,386.263757 L266.426159,385.985452 C266.426159,384.890781 266.730879,383.98282 267.340328,383.261543 C267.949777,382.540266 268.713263,382.181952 269.63081,382.186591 C270.615824,382.186591 271.370315,382.493883 271.894306,383.108476 C272.418298,383.723069 272.680289,384.547539 272.680289,385.58191 L272.680289,386.57685 L268.126311,386.57685 L268.112818,386.611638 C268.139804,387.209997 268.309593,387.699345 268.622188,388.079696 C268.934784,388.460048 269.367689,388.650221 269.920916,388.650221 C270.361698,388.650221 270.739506,388.594561 271.05435,388.483238 C271.369195,388.371916 271.67279,388.211892 271.965146,388.003163 L272.491384,389.109424 C272.217019,389.3599 271.852704,389.570946 271.398429,389.742568 C270.944153,389.91419 270.417921,390 269.819716,390 Z M269.63081,383.543327 C269.22601,383.543327 268.89318,383.709149 268.632308,384.040797 C268.371437,384.372445 268.20952,384.793377 268.146551,385.303605 L268.160044,385.338393 L271.05435,385.338393 L271.05435,385.164453 C271.05435,384.686694 270.936285,384.297071 270.700152,383.995572 C270.464019,383.694074 270.107575,383.543327 269.63081,383.543327 Z M284.493004,381.080329 L281.524484,381.080329 L281.524484,389.85389 L279.885052,389.85389 L279.885052,381.080329 L276.916533,381.080329 L276.916533,379.723593 L284.493004,379.723593 L284.493004,381.080329 Z M288.112252,390 C287.077762,390 286.253557,389.650963 285.63961,388.952878 C285.025663,388.254793 284.718694,387.358428 284.718694,386.263757 L284.718694,385.985452 C284.718694,384.890781 285.023414,383.98282 285.632863,383.261543 C286.242312,382.540266 287.005799,382.181952 287.923346,382.186591 C288.908359,382.186591 289.662851,382.493883 290.186842,383.108476 C290.710833,383.723069 290.972825,384.547539 290.972825,385.58191 L290.972825,386.57685 L286.418846,386.57685 L286.405353,386.611638 C286.43234,387.209997 286.602128,387.699345 286.914724,388.079696 C287.22732,388.460048 287.660224,388.650221 288.213451,388.650221 C288.654233,388.650221 289.032041,388.594561 289.346886,388.483238 C289.66173,388.371916 289.965326,388.211892 290.257682,388.003163 L290.783919,389.109424 C290.509555,389.3599 290.14524,389.570946 289.690964,389.742568 C289.236688,389.91419 288.710456,390 288.112252,390 Z M287.923346,383.543327 C287.518546,383.543327 287.185715,383.709149 286.924844,384.040797 C286.663973,384.372445 286.502055,384.793377 286.439086,385.303605 L286.452579,385.338393 L289.346886,385.338393 L289.346886,385.164453 C289.346886,384.686694 289.228821,384.297071 288.992687,383.995572 C288.756554,383.694074 288.40011,383.543327 287.923346,383.543327 Z M295.995373,383.849462 L295.293723,383.821632 C294.97438,383.821632 294.707891,383.891207 294.494247,384.030361 C294.280602,384.169514 294.115311,384.366644 293.998369,384.621758 L293.998369,389.85389 L292.358937,389.85389 L292.358937,382.325743 L293.85669,382.325743 L293.964636,383.41809 C294.149045,383.033099 294.386299,382.731606 294.676406,382.513599 C294.966512,382.295592 295.300468,382.186591 295.678281,382.186591 C295.777232,382.186591 295.869435,382.194708 295.954893,382.210942 C296.040351,382.227177 296.119061,382.24689 296.191025,382.270082 L295.995373,383.849462 Z M298.703825,382.325743 L298.791531,383.306768 C299.029914,382.949608 299.329011,382.673625 299.688834,382.478811 C300.048656,382.283996 300.464694,382.186591 300.936961,382.186591 C301.413726,382.186591 301.823018,382.297912 302.164849,382.520557 C302.50668,382.743202 302.76305,383.077164 302.933965,383.522454 C303.158854,383.104995 303.455703,382.77799 303.824521,382.541429 C304.193339,382.304869 304.625119,382.186591 305.119875,382.186591 C305.853013,382.186591 306.432093,382.44518 306.857133,382.962366 C307.282173,383.479551 307.49469,384.264595 307.49469,385.317521 L307.49469,389.85389 L305.855258,389.85389 L305.855258,385.310563 C305.855258,384.670459 305.748437,384.220537 305.534793,383.960784 C305.321148,383.701032 305.000686,383.571157 304.573397,383.571157 C304.222571,383.571157 303.925722,383.668563 303.682842,383.863378 C303.439962,384.058192 303.264551,384.32026 303.156604,384.649589 C303.156604,384.719165 303.158853,384.779464 303.163351,384.830487 C303.167848,384.88151 303.170097,384.930213 303.170097,384.976597 L303.170097,389.85389 L301.530665,389.85389 L301.530665,385.310563 C301.530665,384.693651 301.421596,384.249527 301.203453,383.978178 C300.985311,383.70683 300.664849,383.571157 300.242058,383.571157 C299.909222,383.571157 299.626991,383.637254 299.395355,383.76945 C299.163719,383.901645 298.980438,384.08834 298.845504,384.329538 L298.845504,389.85389 L297.206072,389.85389 L297.206072,382.325743 L298.703825,382.325743 Z M313.387554,387.808349 C313.387554,387.548597 313.279609,387.332913 313.063716,387.16129 C312.847822,386.989668 312.445277,386.838921 311.856068,386.709045 C310.983499,386.518869 310.32346,386.248684 309.875931,385.898482 C309.428402,385.54828 309.204641,385.071688 309.204641,384.468691 C309.204641,383.837863 309.463259,383.299812 309.980504,382.854522 C310.497748,382.409232 311.179151,382.186591 312.024734,382.186591 C312.915294,382.186591 313.622559,382.412711 314.146551,382.864959 C314.670542,383.317207 314.921289,383.87729 314.8988,384.545225 L314.885307,384.58697 L313.313341,384.58697 C313.313341,384.276195 313.19865,384.009489 312.969263,383.786844 C312.739876,383.564199 312.425036,383.452878 312.024734,383.452878 C311.628929,383.452878 311.327583,383.544486 311.120685,383.727704 C310.913787,383.910922 310.81034,384.134724 310.81034,384.399114 C310.81034,384.663505 310.908165,384.873392 311.103818,385.028779 C311.299472,385.184167 311.696395,385.322158 312.294599,385.442758 C313.212146,385.637572 313.892425,385.912395 314.335456,386.267236 C314.778488,386.622076 315,387.105626 315,387.7179 C315,388.395112 314.729013,388.944759 314.18703,389.366856 C313.645048,389.788954 312.931036,390 312.044974,390 C311.095942,390 310.347073,389.749528 309.798344,389.248577 C309.249615,388.747626 308.988748,388.172468 309.015735,387.523087 L309.029228,387.481341 L310.553968,387.481341 C310.571959,387.917354 310.724881,388.235082 311.012739,388.434535 C311.300597,388.633988 311.651418,388.733713 312.065214,388.733713 C312.488005,388.733713 312.814089,388.650222 313.043476,388.483238 C313.272863,388.316255 313.387554,388.091294 313.387554,387.808349 Z" id="Website-Terms-Copy" fill="#16B9D4"></path>
                                    <path d="M31.9377208,385.342105 L31.9512843,385.381579 C31.9693691,386.043863 31.7794822,386.547147 31.3816181,386.891447 C30.983754,387.235747 30.4299173,387.407895 29.7200916,387.407895 C28.9967023,387.407895 28.4213904,387.175441 27.9941386,386.710526 C27.5668868,386.245612 27.3532641,385.62939 27.3532641,384.861842 L27.3532641,384.078947 C27.3532641,383.320172 27.5668868,382.706143 27.9941386,382.236842 C28.4213904,381.767542 28.9967023,381.532895 29.7200916,381.532895 C30.4299173,381.532895 30.9848843,381.707235 31.385009,382.055921 C31.7851337,382.404607 31.9761508,382.905698 31.9580661,383.559211 L31.9445026,383.598684 L30.9408049,383.598684 C30.9408049,383.186401 30.8390798,382.887062 30.6356266,382.700658 C30.4321734,382.514253 30.1269981,382.421053 29.7200916,382.421053 C29.2951004,382.421053 28.9684498,382.572367 28.7401301,382.875 C28.5118103,383.177633 28.3976521,383.576752 28.3976521,384.072368 L28.3976521,384.861842 C28.3976521,385.366231 28.5118103,385.768639 28.7401301,386.069079 C28.9684498,386.369519 29.2951004,386.519737 29.7200916,386.519737 C30.1269981,386.519737 30.4310431,386.428729 30.6322357,386.246711 C30.8334284,386.064692 30.9340232,385.76316 30.9340232,385.342105 L31.9377208,385.342105 Z M25.8273724,384.467105 C25.8273724,385.625006 26.215058,386.599777 26.9904409,387.391447 C27.7658238,388.183118 28.7073461,388.578947 29.815036,388.578947 C30.9182047,388.578947 31.8574664,388.183118 32.6328493,387.391447 C33.4082322,386.599777 33.7959178,385.625006 33.7959178,384.467105 C33.7959178,383.313591 33.4082322,382.343206 32.6328493,381.555921 C31.8574664,380.768636 30.9182047,380.375 29.815036,380.375 C28.7028249,380.375 27.7601724,380.768636 26.9870501,381.555921 C26.2139277,382.343206 25.8273724,383.313591 25.8273724,384.467105 Z M25,384.467105 C25,383.085519 25.4679354,381.921057 26.4038203,380.973684 C27.3397053,380.026311 28.4767658,379.552632 29.815036,379.552632 C31.148785,379.552632 32.2835849,380.026311 33.2194698,380.973684 C34.1553548,381.921057 34.6232902,383.085519 34.6232902,384.467105 C34.6232902,385.853077 34.1542245,387.021925 33.216079,387.973684 C32.2779335,388.925443 31.1442638,389.401316 29.815036,389.401316 C28.4767658,389.401316 27.3397053,388.925443 26.4038203,387.973684 C25.4679354,387.021925 25,385.853077 25,384.467105 Z M46.1719479,389.263158 L39.6140046,389.263158 L39.6140046,388.164474 L42.8285497,384.763158 C43.3530069,384.206138 43.7146962,383.748905 43.9136282,383.391447 C44.1125603,383.033989 44.2120248,382.684212 44.2120248,382.342105 C44.2120248,381.912279 44.083173,381.552633 43.8254656,381.263158 C43.5677581,380.973683 43.2196323,380.828947 42.7810775,380.828947 C42.2023661,380.828947 41.7728601,380.986841 41.4925468,381.302632 C41.2122334,381.618423 41.0720788,382.052629 41.0720788,382.605263 L39.4783697,382.605263 L39.4648063,382.565789 C39.4422003,381.714908 39.7292912,380.998906 40.3260873,380.417763 C40.9228835,379.83662 41.7412054,379.546053 42.7810775,379.546053 C43.730526,379.546053 44.4810311,379.800436 45.0326155,380.309211 C45.5841998,380.817985 45.8599878,381.482452 45.8599878,382.302632 C45.8599878,382.85088 45.7006185,383.374998 45.3818751,383.875 C45.0631317,384.375002 44.5691998,384.982453 43.9000647,385.697368 L41.7027807,387.947368 L41.7231259,387.986842 L46.1719479,387.986842 L46.1719479,389.263158 Z M54.0147077,385.572368 C54.0147077,386.817989 53.7253563,387.767541 53.1466449,388.421053 C52.5679334,389.074565 51.7812594,389.401316 50.7865991,389.401316 C49.7874176,389.401316 48.9962224,389.074565 48.4129898,388.421053 C47.8297572,387.767541 47.5381452,386.817989 47.5381452,385.572368 L47.5381452,383.381579 C47.5381452,382.140345 47.8274966,381.190793 48.4062081,380.532895 C48.9849195,379.874997 49.7738541,379.546053 50.7730356,379.546053 C51.7676959,379.546053 52.5566305,379.874997 53.1398631,380.532895 C53.7230958,381.190793 54.0147077,382.140345 54.0147077,383.381579 L54.0147077,385.572368 Z M52.3667447,383.138158 C52.3667447,382.353066 52.2311112,381.771932 51.9598402,381.394737 C51.6885693,381.017542 51.2929717,380.828947 50.7730356,380.828947 C50.2530995,380.828947 49.8586322,381.017542 49.5896218,381.394737 C49.3206114,381.771932 49.1861083,382.353066 49.1861083,383.138158 L49.1861083,385.802632 C49.1861083,386.592109 49.322872,387.176533 49.5964036,387.555921 C49.8699352,387.935309 50.266663,388.125 50.7865991,388.125 C51.3065351,388.125 51.6998722,387.936405 51.966622,387.559211 C52.2333718,387.182016 52.3667447,386.596495 52.3667447,385.802632 L52.3667447,383.138158 Z M59.6601835,389.263158 L58.0122205,389.263158 L58.0122205,381.203947 L56.0048252,381.203947 L56.0048252,380.026316 L59.6601835,379.684211 L59.6601835,389.263158 Z M70.0393143,380.967105 C68.9044974,382.260971 68.1381683,383.427626 67.7403042,384.467105 C67.3424401,385.506584 67.0530887,386.767536 66.8722414,388.25 L66.7705153,389.263158 L65.1225523,389.263158 L65.2242784,388.25 C65.4006045,386.802624 65.7532515,385.490137 66.2822299,384.3125 C66.8112084,383.134863 67.5323263,382.019742 68.4456053,380.967105 L63.2168831,380.967105 L63.2168831,379.684211 L70.0393143,379.684211 L70.0393143,380.967105 Z M76.9560431,385.289474 L76.9560431,389.263158 L75.3080801,389.263158 L75.3080801,379.684211 L78.9566566,379.684211 C80.0598253,379.684211 80.9120555,379.925436 81.5133729,380.407895 C82.1146903,380.890353 82.4153444,381.578943 82.4153444,382.473684 C82.4153444,382.969301 82.2831018,383.395832 82.0186126,383.753289 C81.7541234,384.110747 81.3686983,384.396929 80.8623258,384.611842 C81.4184313,384.782896 81.81855,385.062498 82.0626939,385.450658 C82.3068378,385.838818 82.4289079,386.315787 82.4289079,386.881579 L82.4289079,387.677632 C82.4289079,387.958335 82.4650768,388.232455 82.5374158,388.5 C82.6097547,388.767545 82.7318248,388.971491 82.9036298,389.111842 L82.9036298,389.263158 L81.2081946,389.263158 C81.0273472,389.11842 80.9109285,388.890352 80.8589349,388.578947 C80.8069413,388.267542 80.7809449,387.962721 80.7809449,387.664474 L80.7809449,386.894737 C80.7809449,386.403506 80.6362692,386.013159 80.3469135,385.723684 C80.0575578,385.434209 79.6596996,385.289474 79.1533271,385.289474 L76.9560431,385.289474 Z M76.9560431,384.006579 L78.868494,384.006579 C79.5285867,384.006579 80.0100855,383.883773 80.3130048,383.638158 C80.6159241,383.392543 80.7673814,383.017546 80.7673814,382.513158 C80.7673814,382.030699 80.6181846,381.652414 80.3197865,381.378289 C80.0213884,381.104165 79.5670163,380.967105 78.9566566,380.967105 L76.9560431,380.967105 L76.9560431,384.006579 Z M88.772903,389.263158 C88.7141276,389.083332 88.6655256,388.907896 88.6270956,388.736842 C88.5886655,388.565789 88.5626691,388.394738 88.5491055,388.223684 C88.3230464,388.557019 88.0257831,388.836622 87.6573066,389.0625 C87.2888302,389.288378 86.8762784,389.401316 86.4196389,389.401316 C85.655559,389.401316 85.0689443,389.210528 84.6597772,388.828947 C84.2506101,388.447367 84.0460297,387.923249 84.0460297,387.256579 C84.0460297,386.567979 84.3263388,386.0318 84.8869655,385.648026 C85.4475922,385.264252 86.2365268,385.072368 87.2537931,385.072368 L88.5355421,385.072368 L88.5355421,384.447368 C88.5355421,384.07456 88.4225142,383.782896 88.196455,383.572368 C87.9703959,383.361841 87.6471361,383.256579 87.2266661,383.256579 C86.8514079,383.256579 86.5530143,383.344297 86.3314763,383.519737 C86.1099383,383.695176 85.999171,383.921051 85.999171,384.197368 L84.4122437,384.197368 L84.4054619,384.157895 C84.3738136,383.596488 84.6326475,383.098686 85.1819712,382.664474 C85.731295,382.230261 86.4467615,382.013158 87.3283922,382.013158 C88.1828958,382.013158 88.8723659,382.223682 89.3968231,382.644737 C89.9212804,383.065792 90.1835051,383.671049 90.1835051,384.460526 L90.1835051,387.625 C90.1835051,387.918861 90.2038501,388.200657 90.2445407,388.470395 C90.2852314,388.740133 90.3507876,389.004385 90.4412112,389.263158 L88.772903,389.263158 Z M86.7519442,388.118421 C87.1678931,388.118421 87.5420154,388.017545 87.8743223,387.815789 C88.2066293,387.614034 88.4270337,387.383773 88.5355421,387.125 L88.5355421,386.072368 L87.2266661,386.072368 C86.7474207,386.072368 86.3721681,386.187499 86.1008971,386.417763 C85.8296261,386.648027 85.6939927,386.918858 85.6939927,387.230263 C85.6939927,387.502194 85.7855453,387.718201 85.9686532,387.878289 C86.1517611,388.038378 86.4128555,388.118421 86.7519442,388.118421 Z M95.0083902,388.125 C95.4107755,388.125 95.7498592,388.00987 96.0256513,387.779605 C96.3014435,387.549341 96.4393375,387.260967 96.4393375,386.914474 L97.9313205,386.914474 L97.944884,386.953947 C97.9674899,387.620617 97.688311,388.195173 97.107339,388.677632 C96.526367,389.16009 95.8267244,389.401316 95.0083902,389.401316 C93.9278274,389.401316 93.0993331,389.0636 92.5228822,388.388158 C91.9464314,387.712716 91.6582103,386.857461 91.6582103,385.822368 L91.6582103,385.592105 C91.6582103,384.561398 91.9464314,383.70724 92.5228822,383.029605 C93.0993331,382.35197 93.9278274,382.013158 95.0083902,382.013158 C95.8900209,382.013158 96.6054874,382.262059 97.1548112,382.759868 C97.7041349,383.257678 97.9697505,383.890347 97.9516657,384.657895 L97.9381022,384.697368 L96.4393375,384.697368 C96.4393375,384.307016 96.3070949,383.975879 96.0426057,383.703947 C95.7781165,383.432016 95.4333814,383.296053 95.0083902,383.296053 C94.3889881,383.296053 93.9504399,383.514252 93.6927325,383.950658 C93.4350251,384.387064 93.3061733,384.934207 93.3061733,385.592105 L93.3061733,385.822368 C93.3061733,386.493424 93.4350251,387.044954 93.6927325,387.476974 C93.9504399,387.908993 94.3889881,388.125 95.0083902,388.125 Z M101.718599,386.151316 L100.97939,386.151316 L100.97939,389.263158 L99.3382083,389.263158 L99.3382083,379 L100.97939,379 L100.97939,384.868421 L101.664345,384.868421 L103.515761,382.144737 L105.455338,382.144737 L103.034257,385.381579 L105.814771,389.263158 L103.90232,389.263158 L101.718599,386.151316 Z M110.788854,387.328947 C110.788854,387.083332 110.680347,386.879387 110.463331,386.717105 C110.246314,386.554824 109.841674,386.412281 109.249399,386.289474 C108.372289,386.109648 107.708816,385.854168 107.258958,385.523026 C106.8091,385.191884 106.584175,384.741231 106.584175,384.171053 C106.584175,383.574558 106.844139,383.065792 107.364075,382.644737 C107.884011,382.223682 108.56896,382.013158 109.418943,382.013158 C110.314137,382.013158 111.025082,382.226972 111.5518,382.654605 C112.078518,383.082239 112.33057,383.611839 112.307964,384.243421 L112.294401,384.282895 L110.714255,384.282895 C110.714255,383.989034 110.598967,383.736843 110.368386,383.526316 C110.137806,383.315788 109.821328,383.210526 109.418943,383.210526 C109.021078,383.210526 108.718164,383.297148 108.510189,383.470395 C108.302215,383.643641 108.198229,383.855262 108.198229,384.105263 C108.198229,384.355264 108.296563,384.553727 108.493235,384.700658 C108.689906,384.847588 109.088895,384.97807 109.690212,385.092105 C110.612534,385.276317 111.296352,385.536183 111.741689,385.871711 C112.187025,386.207239 112.40969,386.664471 112.40969,387.243421 C112.40969,387.883775 112.137293,388.403507 111.59249,388.802632 C111.047688,389.201756 110.329961,389.401316 109.439288,389.401316 C108.485318,389.401316 107.732552,389.164476 107.180968,388.690789 C106.629384,388.217103 106.367159,387.673249 106.394286,387.059211 L106.40785,387.019737 L107.940523,387.019737 C107.958608,387.43202 108.112326,387.732455 108.401681,387.921053 C108.691037,388.10965 109.043684,388.203947 109.459633,388.203947 C109.884624,388.203947 110.212405,388.125001 110.442985,387.967105 C110.673566,387.80921 110.788854,387.596493 110.788854,387.328947 Z M120.381303,385.940789 C120.381303,386.975882 120.130381,387.8114 119.62853,388.447368 C119.126679,389.083337 118.428166,389.401316 117.532972,389.401316 C117.117023,389.401316 116.748552,389.328948 116.427548,389.184211 C116.106544,389.039473 115.830756,388.826756 115.600176,388.546053 L115.600176,392 L113.952213,392 L113.952213,382.144737 L115.34247,382.144737 L115.505231,383.039474 C115.740333,382.706139 116.024033,382.451755 116.35634,382.276316 C116.688647,382.100876 117.074072,382.013158 117.512627,382.013158 C118.416863,382.013158 119.121027,382.360742 119.625139,383.055921 C120.129251,383.7511 120.381303,384.666661 120.381303,385.802632 L120.381303,385.940789 Z M118.740122,385.802632 C118.740122,385.074558 118.598837,384.479169 118.316263,384.016447 C118.033689,383.553726 117.612095,383.322368 117.051468,383.322368 C116.707858,383.322368 116.416247,383.39364 116.176624,383.536184 C115.937001,383.678729 115.744854,383.877192 115.600176,384.131579 L115.600176,387.348684 C115.744854,387.598685 115.937001,387.79057 116.176624,387.924342 C116.416247,388.058115 116.71238,388.125 117.065032,388.125 C117.625659,388.125 118.044992,387.924344 118.323045,387.523026 C118.601098,387.121709 118.740122,386.594302 118.740122,385.940789 L118.740122,385.802632 Z M126.298049,389.263158 C126.239273,389.083332 126.190671,388.907896 126.152241,388.736842 C126.113811,388.565789 126.087815,388.394738 126.074251,388.223684 C125.848192,388.557019 125.550929,388.836622 125.182452,389.0625 C124.813976,389.288378 124.401424,389.401316 123.944784,389.401316 C123.180705,389.401316 122.59409,389.210528 122.184923,388.828947 C121.775756,388.447367 121.571175,387.923249 121.571175,387.256579 C121.571175,386.567979 121.851484,386.0318 122.412111,385.648026 C122.972738,385.264252 123.761672,385.072368 124.778939,385.072368 L126.060688,385.072368 L126.060688,384.447368 C126.060688,384.07456 125.94766,383.782896 125.721601,383.572368 C125.495541,383.361841 125.172282,383.256579 124.751812,383.256579 C124.376553,383.256579 124.07816,383.344297 123.856622,383.519737 C123.635084,383.695176 123.524317,383.921051 123.524317,384.197368 L121.937389,384.197368 L121.930607,384.157895 C121.898959,383.596488 122.157793,383.098686 122.707117,382.664474 C123.256441,382.230261 123.971907,382.013158 124.853538,382.013158 C125.708041,382.013158 126.397511,382.223682 126.921969,382.644737 C127.446426,383.065792 127.708651,383.671049 127.708651,384.460526 L127.708651,387.625 C127.708651,387.918861 127.728996,388.200657 127.769686,388.470395 C127.810377,388.740133 127.875933,389.004385 127.966357,389.263158 L126.298049,389.263158 Z M124.27709,388.118421 C124.693039,388.118421 125.067161,388.017545 125.399468,387.815789 C125.731775,387.614034 125.952179,387.383773 126.060688,387.125 L126.060688,386.072368 L124.751812,386.072368 C124.272566,386.072368 123.897314,386.187499 123.626043,386.417763 C123.354772,386.648027 123.219138,386.918858 123.219138,387.230263 C123.219138,387.502194 123.310691,387.718201 123.493799,387.878289 C123.676907,388.038378 123.938001,388.118421 124.27709,388.118421 Z M132.533536,388.125 C132.935921,388.125 133.275005,388.00987 133.550797,387.779605 C133.826589,387.549341 133.964483,387.260967 133.964483,386.914474 L135.456466,386.914474 L135.47003,386.953947 C135.492635,387.620617 135.213457,388.195173 134.632485,388.677632 C134.051512,389.16009 133.35187,389.401316 132.533536,389.401316 C131.452973,389.401316 130.624479,389.0636 130.048028,388.388158 C129.471577,387.712716 129.183356,386.857461 129.183356,385.822368 L129.183356,385.592105 C129.183356,384.561398 129.471577,383.70724 130.048028,383.029605 C130.624479,382.35197 131.452973,382.013158 132.533536,382.013158 C133.415166,382.013158 134.130633,382.262059 134.679957,382.759868 C135.22928,383.257678 135.494896,383.890347 135.476811,384.657895 L135.463248,384.697368 L133.964483,384.697368 C133.964483,384.307016 133.83224,383.975879 133.567751,383.703947 C133.303262,383.432016 132.958527,383.296053 132.533536,383.296053 C131.914134,383.296053 131.475585,383.514252 131.217878,383.950658 C130.960171,384.387064 130.831319,384.934207 130.831319,385.592105 L130.831319,385.822368 C130.831319,386.493424 130.960171,387.044954 131.217878,387.476974 C131.475585,387.908993 131.914134,388.125 132.533536,388.125 Z M140.0033,389.401316 C138.963428,389.401316 138.134933,389.071275 137.517792,388.411184 C136.90065,387.751093 136.592084,386.903514 136.592084,385.868421 L136.592084,385.605263 C136.592084,384.57017 136.89839,383.711626 137.51101,383.029605 C138.12363,382.347584 138.89109,382.008772 139.813411,382.013158 C140.80355,382.013158 141.561967,382.303725 142.088685,382.884868 C142.615403,383.466012 142.878758,384.245609 142.878758,385.223684 L142.878758,386.164474 L138.301083,386.164474 L138.287519,386.197368 C138.314646,386.763161 138.485319,387.225875 138.799541,387.585526 C139.113763,387.945177 139.54892,388.125 140.105026,388.125 C140.548102,388.125 140.927876,388.072369 141.244358,387.967105 C141.560841,387.861842 141.866016,387.710527 142.159893,387.513158 L142.688869,388.559211 C142.413077,388.796054 142.046867,388.995613 141.590227,389.157895 C141.133588,389.320176 140.604617,389.401316 140.0033,389.401316 Z M139.813411,383.296053 C139.406505,383.296053 139.071942,383.452849 138.809713,383.766447 C138.547485,384.080045 138.384725,384.478068 138.321428,384.960526 L138.334992,384.993421 L141.244358,384.993421 L141.244358,384.828947 C141.244358,384.377191 141.125679,384.008773 140.888317,383.723684 C140.650955,383.438595 140.292656,383.296053 139.813411,383.296053 Z M155.505712,379.684211 L155.505712,386.105263 C155.505712,387.166672 155.148544,387.981357 154.434197,388.549342 C153.71985,389.117327 152.78624,389.401316 151.633338,389.401316 C150.503043,389.401316 149.587517,389.116231 148.886733,388.546053 C148.18595,387.975874 147.835564,387.162286 147.835564,386.105263 L147.835564,379.684211 L149.483527,379.684211 L149.483527,386.105263 C149.483527,386.776319 149.677935,387.2807 150.066756,387.618421 C150.455578,387.956142 150.977767,388.125 151.633338,388.125 C152.311516,388.125 152.851789,387.956142 153.254174,387.618421 C153.65656,387.2807 153.857749,386.776319 153.857749,386.105263 L153.857749,379.684211 L155.505712,379.684211 Z M162.887314,386.802632 C162.887314,386.403507 162.734726,386.076756 162.429546,385.822368 C162.124366,385.567981 161.585223,385.339913 160.812101,385.138158 C159.708932,384.857455 158.860093,384.485748 158.265557,384.023026 C157.671022,383.560305 157.373759,382.953951 157.373759,382.203947 C157.373759,381.432014 157.70267,380.796055 158.360502,380.296053 C159.018334,379.79605 159.867173,379.546053 160.907046,379.546053 C161.992129,379.546053 162.863574,379.828945 163.521407,380.394737 C164.179239,380.960529 164.496847,381.640347 164.474241,382.434211 L164.460678,382.473684 L162.880532,382.473684 C162.880532,381.982454 162.70873,381.584431 162.36512,381.279605 C162.02151,380.974779 161.530969,380.822368 160.893482,380.822368 C160.292165,380.822368 159.829881,380.94956 159.506616,381.203947 C159.183351,381.458335 159.021722,381.787279 159.021722,382.190789 C159.021722,382.554826 159.196915,382.857455 159.547306,383.098684 C159.897698,383.339913 160.477531,383.567981 161.286823,383.782895 C162.349301,384.059212 163.15632,384.440787 163.707904,384.927632 C164.259489,385.414476 164.535277,386.035084 164.535277,386.789474 C164.535277,387.587723 164.206366,388.222585 163.548534,388.694079 C162.890701,389.165573 162.026038,389.401316 160.954518,389.401316 C159.923688,389.401316 159.019465,389.137064 158.241821,388.608553 C157.464178,388.080041 157.086665,387.355268 157.109271,386.434211 L157.122834,386.394737 L158.709761,386.394737 C158.709761,386.978073 158.917733,387.413376 159.333682,387.700658 C159.74963,387.98794 160.289904,388.131579 160.954518,388.131579 C161.564877,388.131579 162.039595,388.012063 162.378683,387.773026 C162.717772,387.53399 162.887314,387.210528 162.887314,386.802632 Z M167.718981,389.059211 L166.667811,391.111842 L165.623423,391.111842 L166.098145,389 L166.098145,387.697368 L167.718981,387.697368 L167.718981,389.059211 Z M174.798471,389.263158 L173.150508,389.263158 L173.150508,379.684211 L174.798471,379.684211 L174.798471,389.263158 Z M178.395861,382.144737 L178.490806,383.171053 C178.730428,382.807016 179.032213,382.523027 179.396168,382.319079 C179.760123,382.115131 180.170415,382.013158 180.627054,382.013158 C181.391134,382.013158 181.986791,382.237936 182.414043,382.6875 C182.841295,383.137064 183.054917,383.837715 183.054917,384.789474 L183.054917,389.263158 L181.406954,389.263158 L181.406954,384.802632 C181.406954,384.267541 181.292796,383.887063 181.064476,383.661184 C180.836157,383.435306 180.489161,383.322368 180.023479,383.322368 C179.702475,383.322368 179.415384,383.391447 179.162198,383.529605 C178.909012,383.667764 178.70104,383.857455 178.538278,384.098684 L178.538278,389.263158 L176.890315,389.263158 L176.890315,382.144737 L178.395861,382.144737 Z M187.866239,388.125 C188.268624,388.125 188.607708,388.00987 188.8835,387.779605 C189.159292,387.549341 189.297186,387.260967 189.297186,386.914474 L190.789169,386.914474 L190.802733,386.953947 C190.825339,387.620617 190.54616,388.195173 189.965188,388.677632 C189.384216,389.16009 188.684573,389.401316 187.866239,389.401316 C186.785676,389.401316 185.957182,389.0636 185.380731,388.388158 C184.80428,387.712716 184.516059,386.857461 184.516059,385.822368 L184.516059,385.592105 C184.516059,384.561398 184.80428,383.70724 185.380731,383.029605 C185.957182,382.35197 186.785676,382.013158 187.866239,382.013158 C188.74787,382.013158 189.463336,382.262059 190.01266,382.759868 C190.561984,383.257678 190.827599,383.890347 190.809514,384.657895 L190.795951,384.697368 L189.297186,384.697368 C189.297186,384.307016 189.164944,383.975879 188.900454,383.703947 C188.635965,383.432016 188.29123,383.296053 187.866239,383.296053 C187.246837,383.296053 186.808289,383.514252 186.550581,383.950658 C186.292874,384.387064 186.164022,384.934207 186.164022,385.592105 L186.164022,385.822368 C186.164022,386.493424 186.292874,387.044954 186.550581,387.476974 C186.808289,387.908993 187.246837,388.125 187.866239,388.125 Z M194,389.263158 L192.358819,389.263158 L192.358819,387.730263 L194,387.730263 L194,389.263158 Z" id="©-2017-Rackspace-US,-Copy" fill="#E0E0E0"></path>
                                </g>
                            </g>
                        </g>
                    </g>
                </g>
            </g>
        </g>
    </g>
</svg>