<?xml version="1.0" encoding="UTF-8" standalone="no"?>
<svg width="576px" height="661px" viewBox="0 0 576 661" version="1.1" xmlns="http://www.w3.org/2000/svg" xmlns:xlink="http://www.w3.org/1999/xlink">
    <!-- Generator: Sketch 47.1 (45422) - http://www.bohemiancoding.com/sketch -->
    <title>key-value-hero</title>
    <desc>Created with Sketch.</desc>
    <defs></defs>
    <g id="Page-1" stroke="none" stroke-width="1" fill="none" fill-rule="evenodd">
        <g id="key-value-hero">
            <g transform="translate(12.000000, -2.000000)">
                <g id="Key-Labels" transform="translate(24.000000, 178.000000)" font-size="16" font-family="Roboto-Regular, Roboto" fill="#767676" font-weight="normal">
                    <g id="Server-Status" transform="translate(36.000000, 0.000000)">
                        <text id="Se">
                            <tspan x="0.8721" y="15.8297">Se</tspan>
                        </text>
                        <text id="r">
                            <tspan x="18.84085" y="15.8297">r</tspan>
                        </text>
                        <text id="v">
                            <tspan x="24.5427375" y="15.8297">v</tspan>
                        </text>
                        <text id="er-Status">
                            <tspan x="32.095175" y="15.8297">er Status</tspan>
                        </text>
                    </g>
                    <g id="ID" transform="translate(116.000000, 29.000000)">
                        <text>
                            <tspan x="0.7761" y="15.8217">ID</tspan>
                        </text>
                    </g>
                    <g id="System-Image" transform="translate(30.000000, 58.000000)">
                        <text>
                            <tspan x="0.0881" y="15.8137">System Image</tspan>
                        </text>
                    </g>
                    <g id="Flavor" transform="translate(88.000000, 87.000000)">
                        <text id="Fl">
                            <tspan x="0.1361" y="15.8057">Fl</tspan>
                        </text>
                        <text id="a">
                            <tspan x="12.862662" y="15.8057">a</tspan>
                        </text>
                        <text id="v">
                            <tspan x="21.3206" y="15.8057">v</tspan>
                        </text>
                        <text id="or">
                            <tspan x="28.843012" y="15.8057">or</tspan>
                        </text>
                    </g>
                    <g id="SSH-Keyframe" transform="translate(29.000000, 116.000000)">
                        <text id="SSH">
                            <tspan x="0.5281" y="15.7977">SSH</tspan>
                        </text>
                        <text id="K">
                            <tspan x="34.8796625" y="15.7977">K</tspan>
                        </text>
                        <text id="e">
                            <tspan x="44.5029875" y="15.7977">e</tspan>
                        </text>
                        <text id="y">
                            <tspan x="52.7739875" y="15.7977">y</tspan>
                        </text>
                        <text id="f">
                            <tspan x="60.5498625" y="15.7977">f</tspan>
                        </text>
                        <text id="r">
                            <tspan x="66.10455" y="15.7977">r</tspan>
                        </text>
                        <text id="ame">
                            <tspan x="70.9021125" y="15.7977">ame</tspan>
                        </text>
                    </g>
                    <g id="Disk-Configuration" transform="translate(0.000000, 145.000000)">
                        <text id="Disk-Configu">
                            <tspan x="0.4561" y="15.7897">Disk Configu</tspan>
                        </text>
                        <text id="r">
                            <tspan x="90.17485" y="15.7897">r</tspan>
                        </text>
                        <text id="ation">
                            <tspan x="94.9468125" y="15.7897">ation</tspan>
                        </text>
                    </g>
                    <g id="RAM" transform="translate(97.000000, 174.000000)">
                        <text>
                            <tspan x="0.3681" y="15.7817">RAM</tspan>
                        </text>
                    </g>
                    <g id="Disc" transform="translate(100.000000, 203.000000)">
                        <text>
                            <tspan x="0.6321" y="15.7737">Disc</tspan>
                        </text>
                    </g>
                    <g id="CPUs" transform="translate(92.000000, 232.000000)">
                        <text>
                            <tspan x="0.5041" y="15.7657">CPUs</tspan>
                        </text>
                    </g>
                    <g id="Monitoring-Agent" transform="translate(8.000000, 261.000000)">
                        <text id="Moni">
                            <tspan x="0.6321" y="15.7577">Moni</tspan>
                        </text>
                        <text id="t">
                            <tspan x="36.4367875" y="15.7577">t</tspan>
                        </text>
                        <text id="oring-Agent">
                            <tspan x="41.3423" y="15.7577">oring Agent</tspan>
                        </text>
                    </g>
                    <g id="Region" transform="translate(82.000000, 290.000000)">
                        <text>
                            <tspan x="0.5041" y="15.7497">Region</tspan>
                        </text>
                    </g>
                    <g id="Server-Type" transform="translate(48.000000, 319.000000)">
                        <text id="Se">
                            <tspan x="0.9201" y="15.7417">Se</tspan>
                        </text>
                        <text id="r">
                            <tspan x="18.88885" y="15.7417">r</tspan>
                        </text>
                        <text id="v">
                            <tspan x="24.5907375" y="15.7417">v</tspan>
                        </text>
                        <text id="er">
                            <tspan x="32.144775" y="15.7417">er</tspan>
                        </text>
                        <text id="T">
                            <tspan x="49.6694375" y="15.7417">T</tspan>
                        </text>
                        <text id="ype">
                            <tspan x="58.087412" y="15.7417">ype</tspan>
                        </text>
                    </g>
                    <g id="Reverse-DNS" transform="translate(39.000000, 348.000000)">
                        <text id="R">
                            <tspan x="0.8001" y="15.7337">R</tspan>
                        </text>
                        <text id="e">
                            <tspan x="10.6516625" y="15.7337">e</tspan>
                        </text>
                        <text id="v">
                            <tspan x="18.9178625" y="15.7337">v</tspan>
                        </text>
                        <text id="erse-DNS">
                            <tspan x="26.4703" y="15.7337">erse DNS</tspan>
                        </text>
                    </g>
                    <g id="Created-Date" transform="translate(39.000000, 377.000000)">
                        <text id="C">
                            <tspan x="0.1921" y="15.7257">C</tspan>
                        </text>
                        <text id="r">
                            <tspan x="10.6061625" y="15.7257">r</tspan>
                        </text>
                        <text id="eated-Date">
                            <tspan x="15.7277875" y="15.7257">eated Date</tspan>
                        </text>
                    </g>
                    <g id="Modified-Date" transform="translate(31.000000, 406.000000)">
                        <text>
                            <tspan x="0.8481" y="15.7177">Modified Date</tspan>
                        </text>
                    </g>
                    <g id="Visualize" transform="translate(67.000000, 435.000000)">
                        <text id="Visuali">
                            <tspan x="0.7681" y="15.7097">Visuali</tspan>
                        </text>
                        <text id="z">
                            <tspan x="48.369662" y="15.7097">z</tspan>
                        </text>
                        <text id="e">
                            <tspan x="56.02875" y="15.7097">e</tspan>
                        </text>
                    </g>
                </g>
                <g id="Group" transform="translate(175.000000, 184.000000)">
                    <g id="1.76-GB" transform="translate(172.000000, 171.000000)" font-size="14" font-family="Roboto-Regular, Roboto" fill="#434243" font-weight="normal">
                        <text>
                            <tspan x="0.4575" y="13.46255">1.76 GB</tspan>
                        </text>
                    </g>
                    <g id="-of-1.8-GB" transform="translate(224.000000, 171.000000)" font-size="14" font-family="Roboto-Regular, Roboto" fill="#9B9B9B" font-weight="normal">
                        <text id="of-1.8-GB">
                            <tspan x="0.90932" y="13.46255">of 1.8 GB</tspan>
                        </text>
                    </g>
                    <g id="26.7-GB" transform="translate(172.000000, 200.000000)" font-size="14" font-family="Roboto-Regular, Roboto" fill="#434243" font-weight="normal">
                        <text>
                            <tspan x="0.4575" y="13.14855">26.7 GB</tspan>
                        </text>
                    </g>
                    <g id="-of-76.8-GB" transform="translate(224.000000, 200.000000)" font-size="14" font-family="Roboto-Regular, Roboto" fill="#9B9B9B" font-weight="normal">
                        <text id="of-76.8-GB">
                            <tspan x="0.90932" y="13.14855">of 76.8 GB</tspan>
                        </text>
                    </g>
                    <g id="1%" transform="translate(172.000000, 228.000000)" font-size="14" font-family="Roboto-Regular, Roboto" fill="#434243" font-weight="normal">
                        <text>
                            <tspan x="0.4575" y="13.59655">1%</tspan>
                        </text>
                    </g>
                    <g id="d2efd03b-40ca-44c7-a6f4-ec44bc37a0ab" transform="translate(0.000000, 23.000000)" font-size="16" font-family="Roboto-Regular, Roboto" fill="#333333" font-weight="normal">
                        <text id="d2e">
                            <tspan x="0.6721" y="15.7097">d2e</tspan>
                        </text>
                        <text id="f">
                            <tspan x="27.156475" y="15.7097">f</tspan>
                        </text>
                        <text id="d03b-40ca-44c7-a6f4-ec44bc37a0ab">
                            <tspan x="32.3268625" y="15.7097">d03b-40ca-44c7-a6f4-ec44bc37a0ab</tspan>
                        </text>
                    </g>
                    <g id="Ubuntu-10.04-LTS--" transform="translate(1.000000, 54.000000)" font-size="16" font-family="Roboto-Regular, Roboto" fill="#333333" font-weight="normal">
                        <text id="Ubun">
                            <tspan x="0" y="15">Ubun</tspan>
                        </text>
                        <text id="t">
                            <tspan x="36.765625" y="15">t</tspan>
                        </text>
                        <text id="u-10.04">
                            <tspan x="41.7969875" y="15">u 10.04</tspan>
                        </text>
                        <text id="L">
                            <tspan x="98.687613" y="15">L</tspan>
                        </text>
                        <text id="T">
                            <tspan x="102.96455" y="15">T</tspan>
                        </text>
                        <text id="S--">
                            <tspan x="112.255225" y="15">S -</tspan>
                        </text>
                    </g>
                    <g id="Rebuild" transform="translate(137.000000, 54.000000)" font-size="14" font-family="Roboto-Regular, Roboto" fill="#127580" font-weight="normal">
                        <text>
                            <tspan x="0" y="13">Rebuild</tspan>
                        </text>
                    </g>
                    <g id="2GB-Standard-Instance--" transform="translate(0.000000, 81.000000)" font-size="16" font-family="Roboto-Regular, Roboto" fill="#333333" font-weight="normal">
                        <text id="2GB-Standa">
                            <tspan x="0.6299" y="15.8297">2GB Standa</tspan>
                        </text>
                        <text id="r">
                            <tspan x="84.41115" y="15.8297">r</tspan>
                        </text>
                        <text id="d-Instance--">
                            <tspan x="89.507175" y="15.8297">d Instance -</tspan>
                        </text>
                    </g>
                    <g id="Resize" transform="translate(176.000000, 84.000000)" font-size="14" font-family="Roboto-Regular, Roboto" fill="#127580" font-weight="normal">
                        <text id="Resi">
                            <tspan x="0.0361" y="13.17345">Resi</tspan>
                        </text>
                        <text id="z">
                            <tspan x="26.68942" y="13.17345">z</tspan>
                        </text>
                        <text id="e">
                            <tspan x="33.386922" y="13.17345">e</tspan>
                        </text>
                    </g>
                    <g id="None" transform="translate(0.000000, 110.000000)" font-size="16" font-family="Roboto-Regular, Roboto" fill="#333333" font-weight="normal">
                        <text>
                            <tspan x="0.6299" y="15.8297">None</tspan>
                        </text>
                    </g>
                    <g id="Manual" transform="translate(0.000000, 139.000000)" font-size="16" font-family="Roboto-Regular, Roboto" fill="#333333" font-weight="normal">
                        <text>
                            <tspan x="0.6299" y="15.8377">Manual</tspan>
                        </text>
                    </g>
                    <g id="Unknown--" transform="translate(3.000000, 258.000000)" font-size="16" font-family="Roboto-Regular, Roboto" fill="#333333" font-weight="normal">
                        <text>
                            <tspan x="0.9372" y="15.3377">Unknown -</tspan>
                        </text>
                    </g>
                    <g id="Troubleshoot-Agent" transform="translate(83.000000, 261.000000)" font-size="14" font-family="Roboto-Regular, Roboto" fill="#127580" font-weight="normal">
                        <text id="T">
                            <tspan x="0" y="13">T</tspan>
                        </text>
                        <text id="r">
                            <tspan x="7.32422" y="13">r</tspan>
                        </text>
                        <text id="oubleshoot-Agent">
                            <tspan x="11.793206" y="13">oubleshoot Agent</tspan>
                        </text>
                    </g>
                    <g id="Dallas-(DFW)" transform="translate(0.000000, 284.000000)" font-size="16" font-family="Roboto-Regular, Roboto" fill="#333333" font-weight="normal">
                        <text id="Dallas-(DF">
                            <tspan x="0.6299" y="15.8297">Dallas (DF</tspan>
                        </text>
                        <text id="W">
                            <tspan x="73.3095875" y="15.8297">W</tspan>
                        </text>
                        <text id=")">
                            <tspan x="87.702087" y="15.8297">)</tspan>
                        </text>
                    </g>
                    <g id="First-Ceneration-Server" transform="translate(0.000000, 313.000000)" font-size="16" font-family="Roboto-Regular, Roboto" fill="#333333" font-weight="normal">
                        <text id="First-Cene">
                            <tspan x="0.6299" y="15.8217">First Cene</tspan>
                        </text>
                        <text id="r">
                            <tspan x="72.4033375" y="15.8217">r</tspan>
                        </text>
                        <text id="ation-Se">
                            <tspan x="77.1641" y="15.8217">ation Se</tspan>
                        </text>
                        <text id="r">
                            <tspan x="134.859412" y="15.8217">r</tspan>
                        </text>
                        <text id="v">
                            <tspan x="140.5437" y="15.8217">v</tspan>
                        </text>
                        <text id="er">
                            <tspan x="148.096137" y="15.8217">er</tspan>
                        </text>
                    </g>
                    <g id="0-Records-|--" transform="translate(2.000000, 341.000000)" font-size="16" font-family="Roboto-Regular, Roboto" font-weight="normal">
                        <text id="0-Reco" fill="#9B9B9B">
                            <tspan x="0" y="15.67345">0 Reco</tspan>
                        </text>
                        <text id="r" fill="#9B9B9B">
                            <tspan x="48.7734375" y="15.67345">r</tspan>
                        </text>
                        <text id="ds" fill="#9B9B9B">
                            <tspan x="53.8854625" y="15.67345">ds</tspan>
                        </text>
                        <text id="|" fill="#444444">
                            <tspan x="75.119838" y="15.67345">|</tspan>
                        </text>
                    </g>
                    <g id="Add-Record" transform="translate(87.000000, 344.000000)" font-size="14" font-family="Roboto-Regular, Roboto" fill="#127580" font-weight="normal">
                        <text id="Add-Reco">
                            <tspan x="0.7236" y="13.17345">Add Reco</tspan>
                        </text>
                        <text id="r">
                            <tspan x="60.462858" y="13.17345">r</tspan>
                        </text>
                        <text id="d">
                            <tspan x="64.94708" y="13.17345">d</tspan>
                        </text>
                    </g>
                    <g id="May-3,-2016-–-1:24-PM-CDT" transform="translate(0.000000, 400.000000)" font-size="16" font-family="Roboto-Regular, Roboto" fill="#333333" font-weight="normal">
                        <text id="M">
                            <tspan x="0.6299" y="15.8297">M</tspan>
                        </text>
                        <text id="a">
                            <tspan x="14.59865" y="15.8297">a</tspan>
                        </text>
                        <text id="y-3,-2016-–-1:24-PM-C">
                            <tspan x="23.0677875" y="15.8297">y 3, 2016 – 1:24 PM C</tspan>
                        </text>
                        <text id="D">
                            <tspan x="178.270912" y="15.8297">D</tspan>
                        </text>
                        <text id="T">
                            <tspan x="188.243362" y="15.8297">T</tspan>
                        </text>
                    </g>
                    <g id="May-3,-2016-–-1:24-PM-CDT" transform="translate(0.000000, 371.000000)" font-size="16" font-family="Roboto-Regular, Roboto" fill="#333333" font-weight="normal">
                        <text id="M">
                            <tspan x="0.6299" y="15.8377">M</tspan>
                        </text>
                        <text id="a">
                            <tspan x="14.59865" y="15.8377">a</tspan>
                        </text>
                        <text id="y-3,-2016-–-1:24-PM-C">
                            <tspan x="23.0677875" y="15.8377">y 3, 2016 – 1:24 PM C</tspan>
                        </text>
                        <text id="D">
                            <tspan x="178.270912" y="15.8377">D</tspan>
                        </text>
                        <text id="T">
                            <tspan x="188.243362" y="15.8377">T</tspan>
                        </text>
                    </g>
                    <g id="Default-Graphs" transform="translate(24.000000, 432.000000)" font-size="14" font-family="Roboto-Regular, Roboto" fill="#127580" font-weight="normal">
                        <text id="Default-G">
                            <tspan x="0.3955" y="13.17345">Default G</tspan>
                        </text>
                        <text id="r">
                            <tspan x="58.159172" y="13.17345">r</tspan>
                        </text>
                        <text id="aphs">
                            <tspan x="62.340239" y="13.17345">aphs</tspan>
                        </text>
                    </g>
                    <g id="Group-8" transform="translate(1.000000, 0.944000)">
                        <path d="M70.1292,7.4212 C70.1292,10.7352 67.4432,13.4212 64.1292,13.4212 L6.1292,13.4212 C2.8152,13.4212 0.1292,10.7352 0.1292,7.4212 L0.1292,6.4212 C0.1292,3.1072 2.8152,0.4212 6.1292,0.4212 L64.1292,0.4212 C67.4432,0.4212 70.1292,3.1072 70.1292,6.4212 L70.1292,7.4212 Z" id="Fill-4" fill="#F3F4F4" fill-rule="nonzero"></path>
                        <path d="M70.1292,7.4212 C70.1292,10.7352 67.4432,13.4212 64.1292,13.4212 L6.1292,13.4212 C2.8152,13.4212 0.1292,10.7352 0.1292,7.4212 L0.1292,6.4212 C0.1292,3.1072 2.8152,0.4212 6.1292,0.4212 L64.1292,0.4212 C67.4432,0.4212 70.1292,3.1072 70.1292,6.4212 L70.1292,7.4212 Z" id="Stroke-6" stroke="#BBBBBB"></path>
                    </g>
                    <g id="A" transform="translate(20.000000, 2.000000)" font-size="9.6518" font-family="Roboto-Regular, Roboto" fill="#9B9B9B" font-weight="normal">
                        <text>
                            <tspan x="0" y="9">A</tspan>
                        </text>
                    </g>
                    <g id="C" transform="translate(26.000000, 2.000000)" font-size="9.6518" font-family="Roboto-Regular, Roboto" fill="#9B9B9B" font-weight="normal">
                        <text>
                            <tspan x="0" y="9">C</tspan>
                        </text>
                    </g>
                    <g id="TIVE" transform="translate(33.000000, 2.000000)" font-size="9.6518" font-family="Roboto-Regular, Roboto" fill="#9B9B9B" font-weight="normal">
                        <text>
                            <tspan x="0" y="9">TIVE</tspan>
                        </text>
                    </g>
                    <path d="M3.9372,8.0287 C3.9372,6.2087 5.4132,4.7327 7.2332,4.7327 C9.0532,4.7327 10.5282,6.2087 10.5282,8.0287 C10.5282,9.8487 9.0532,11.3247 7.2332,11.3247 C5.4132,11.3247 3.9372,9.8487 3.9372,8.0287 Z" id="Fill-9" fill="#44B449" fill-rule="nonzero"></path>
                    <path d="M15.2639,442.8484 C14.7819,443.3474 14.3829,443.7704 13.9729,444.1824 C12.8079,445.3524 13.2959,444.7614 12.1379,445.9384 C11.8739,446.2064 11.6819,446.2224 11.4189,445.9434 C10.8969,445.3914 10.3509,444.8624 9.7899,444.2994 C8.7109,445.4044 7.6669,446.4724 6.6549,447.5094 C6.1099,446.9584 5.6269,446.4714 5.1089,445.9484 C5.1189,445.9374 5.1899,445.8414 5.2729,445.7574 C6.6459,444.3824 8.0189,443.0084 9.3939,441.6364 C9.7499,441.2804 9.8049,441.2804 10.1639,441.6394 C10.6829,442.1594 11.1979,442.6834 11.6639,443.1554 C12.8689,441.9494 12.3859,442.5184 13.6639,441.2404 C13.4719,441.0764 13.1699,440.8394 12.8969,440.5724 C12.8049,440.4824 12.7159,440.2834 12.7559,440.1934 C12.7989,440.0984 12.9979,440.0284 13.1299,440.0264 C14.1559,440.0134 15.1829,440.0244 16.2099,440.0164 C16.5179,440.0134 16.6259,440.1484 16.6229,440.4444 C16.6149,441.4714 16.6269,442.4984 16.6119,443.5244 C16.6099,443.6524 16.5259,443.8244 16.4239,443.8884 C16.3599,443.9294 16.1629,443.8404 16.0789,443.7554 C15.8069,443.4814 15.5609,443.1834 15.2639,442.8484" id="Fill-13" fill="#777677" fill-rule="nonzero"></path>
                    <path d="M16.625,450.7765 L4.483,450.7765 C3.457,450.7765 2.623,449.9435 2.623,448.9185 L2.623,436.7765 L4.38,436.7765 L4.38,448.9185 C4.38,448.9745 4.426,449.0195 4.483,449.0195 L16.625,449.0195 L16.625,450.7765 Z" id="Fill-15" fill="#777677" fill-rule="nonzero"></path>
                    <path d="M225.729,263 L221.404,263 L221.404,264.75 L223.619,264.75 L217,271.38 L218.239,272.617 L224.854,265.99 L224.854,268.445 L226.604,268.445 L226.604,263.875 C226.604,263.392 226.213,263 225.729,263" id="Fill-17" fill="#127580" fill-rule="nonzero"></path>
                    <path d="M224.152,275.042 C224.152,275.113 224.095,275.171 224.025,275.171 L214.877,275.171 C214.807,275.171 214.75,275.113 214.75,275.042 L214.75,265.879 C214.75,265.808 214.807,265.75 214.877,265.75 L219.895,265.75 L219.895,264 L214.877,264 C213.843,264 213,264.843 213,265.879 L213,275.042 C213,276.078 213.843,276.921 214.877,276.921 L224.025,276.921 C225.059,276.921 225.902,276.078 225.902,275.042 L225.902,269.889 L224.152,269.889 L224.152,275.042 Z" id="Fill-19" fill="#127580" fill-rule="nonzero"></path>
                    <path d="M136.1827,437.7773 L131.8577,437.7773 L131.8577,439.5273 L134.0727,439.5273 L127.4537,446.1573 L128.6927,447.3943 L135.3077,440.7673 L135.3077,443.2223 L137.0577,443.2223 L137.0577,438.6523 C137.0577,438.1693 136.6667,437.7773 136.1827,437.7773" id="Fill-21" fill="#127580" fill-rule="nonzero"></path>
                    <path d="M134.3567,449.8982 C134.3567,449.9692 134.2997,450.0272 134.2297,450.0272 L125.0817,450.0272 C125.0117,450.0272 124.9547,449.9692 124.9547,449.8982 L124.9547,440.7352 C124.9547,440.6642 125.0117,440.6062 125.0817,440.6062 L130.0997,440.6062 L130.0997,438.8562 L125.0817,438.8562 C124.0477,438.8562 123.2047,439.6992 123.2047,440.7352 L123.2047,449.8982 C123.2047,450.9342 124.0477,451.7772 125.0817,451.7772 L134.2297,451.7772 C135.2637,451.7772 136.1067,450.9342 136.1067,449.8982 L136.1067,444.7452 L134.3567,444.7452 L134.3567,449.8982 Z" id="Fill-23" fill="#127580" fill-rule="nonzero"></path>
                    <polygon id="Fill-25" fill="#E6E6E5" fill-rule="nonzero" points="0.63 187.894 162.694 187.894 162.694 175.894 0.63 175.894"></polygon>
                    <polygon id="Fill-27" fill="#CE3828" fill-rule="nonzero" points="0.629 187.894 155.34 187.894 155.34 175.894 0.629 175.894"></polygon>
                    <polygon id="Fill-28" fill="#E6E6E5" fill-rule="nonzero" points="0.63 217.483 162.694 217.483 162.694 205.483 0.63 205.483"></polygon>
                    <polygon id="Fill-29" fill="#F6BD29" fill-rule="nonzero" points="0.63 217.483 81.331 217.483 81.331 205.483 0.63 205.483"></polygon>
                    <polygon id="Fill-30" fill="#E6E6E5" fill-rule="nonzero" points="0.63 246.072 162.694 246.072 162.694 234.072 0.63 234.072"></polygon>
                    <polygon id="Fill-31" fill="#4DAD4F" fill-rule="nonzero" points="0.629 246.072 4.091 246.072 4.091 234.072 0.629 234.072"></polygon>
                </g>
                <text id="Description" fill="#434243" font-family="Roboto-Regular, Roboto" font-size="24" font-weight="normal">
                    <tspan x="0" y="148">Description</tspan>
                </text>
                <text id="Key-Value-Pairs" fill="#212121" font-family="Roboto-Light, Roboto" font-size="49" font-weight="300">
                    <tspan x="0" y="51">Key Value Pairs</tspan>
                </text>
            </g>
        </g>
    </g>
</svg>