<?xml version="1.0" encoding="UTF-8" standalone="no"?>
<svg width="402px" height="271px" viewBox="0 0 402 271" version="1.1" xmlns="http://www.w3.org/2000/svg" xmlns:xlink="http://www.w3.org/1999/xlink">
    <!-- Generator: Sketch 47.1 (45422) - http://www.bohemiancoding.com/sketch -->
    <title>select-strip-hero</title>
    <desc>Created with Sketch.</desc>
    <style>
      @import url("https://fonts.googleapis.com/css?family=Roboto:300,400");
      @import url("https://stackpath.bootstrapcdn.com/font-awesome/4.7.0/css/font-awesome.min.css")
    </style>
    <defs></defs>
    <g id="Page-1" stroke="none" stroke-width="1" fill="none" fill-rule="evenodd">
        <g id="select-strip-hero">
            <g id="Group" transform="translate(33.000000, 113.000000)">
                <path d="M162.703125,20.5625 L164.453125,12 L166.414062,12 L163.789062,23.375 L161.898438,23.375 L159.734375,15.0703125 L157.523438,23.375 L155.625,23.375 L153,12 L154.960938,12 L156.726562,20.546875 L158.898438,12 L160.554688,12 L162.703125,20.5625 Z M174.475813,18.296875 L169.803938,18.296875 L169.803938,21.796875 L175.264875,21.796875 L175.264875,23.375 L167.827375,23.375 L167.827375,12 L175.210188,12 L175.210188,13.59375 L169.803938,13.59375 L169.803938,16.734375 L174.475813,16.734375 L174.475813,18.296875 Z M176.84225,23.375 L176.84225,12 L180.201625,12 C181.206838,12 182.098757,12.2239561 182.877406,12.671875 C183.656056,13.1197939 184.258915,13.7552042 184.686,14.578125 C185.113085,15.4010458 185.326625,16.3437447 185.326625,17.40625 L185.326625,17.9765625 C185.326625,19.0546929 185.111783,20.0026001 184.682094,20.8203125 C184.252404,21.6380249 183.640431,22.268227 182.846156,22.7109375 C182.051881,23.153648 181.141734,23.375 180.115688,23.375 L176.84225,23.375 Z M178.818813,13.59375 L178.818813,21.796875 L180.107875,21.796875 C181.144339,21.796875 181.939903,21.4726595 182.494594,20.8242188 C183.049284,20.175778 183.331833,19.2447977 183.34225,18.03125 L183.34225,17.3984375 C183.34225,16.1640563 183.074024,15.2213574 182.537563,14.5703125 C182.001101,13.9192676 181.222463,13.59375 180.201625,13.59375 L178.818813,13.59375 Z" id="WED" fill="#0C7C84"></path>
                <path d="M227.023438,13.59375 L223.476562,13.59375 L223.476562,23.375 L221.515625,23.375 L221.515625,13.59375 L218,13.59375 L218,12 L227.023438,12 L227.023438,13.59375 Z M237.514875,23.375 L235.546125,23.375 L235.546125,18.3203125 L230.460187,18.3203125 L230.460187,23.375 L228.483625,23.375 L228.483625,12 L230.460187,12 L230.460187,16.734375 L235.546125,16.734375 L235.546125,12 L237.514875,12 L237.514875,23.375 Z M248.139125,12 L248.139125,19.6015625 C248.139125,20.8099019 247.75241,21.7669236 246.978969,22.4726562 C246.205527,23.1783889 245.17559,23.53125 243.889125,23.53125 C242.587035,23.53125 241.553191,23.1835972 240.787563,22.4882812 C240.021934,21.7929653 239.639125,20.8281312 239.639125,19.59375 L239.639125,12 L241.607875,12 L241.607875,19.609375 C241.607875,20.3697955 241.800581,20.9505188 242.186,21.3515625 C242.571419,21.7526062 243.139121,21.953125 243.889125,21.953125 C245.409966,21.953125 246.170375,21.1510497 246.170375,19.546875 L246.170375,12 L248.139125,12 Z" id="THU" fill="#0C7C84"></path>
                <rect id="Rectangle-4-Copy-33" stroke="#BDBDBD" x="0.5" y="0.5" width="318" height="34.2418301" rx="2"></rect>
                <path d="M2,35.2418301 L137,35.2418301 L137,0 L2,0 L2,0 C0.8954305,2.02906125e-16 -1.3527075e-16,0.8954305 0,2 L0,33.2418301 L0,33.2418301 C1.3527075e-16,34.3463996 0.8954305,35.2418301 2,35.2418301 Z" id="Fill-215-Copy-46" fill="#0C7C84"></path>
                <path d="M91.0234375,13.75 L87.4765625,13.75 L87.4765625,23.53125 L85.515625,23.53125 L85.515625,13.75 L82,13.75 L82,12.15625 L91.0234375,12.15625 L91.0234375,13.75 Z M100.803938,12.15625 L100.803938,19.7578125 C100.803938,20.9661519 100.417223,21.9231736 99.6437813,22.6289062 C98.8703399,23.3346389 97.8404023,23.6875 96.5539375,23.6875 C95.2518477,23.6875 94.2180038,23.3398472 93.452375,22.6445312 C92.6867462,21.9492153 92.3039375,20.9843812 92.3039375,19.75 L92.3039375,12.15625 L94.2726875,12.15625 L94.2726875,19.765625 C94.2726875,20.5260455 94.4653939,21.1067688 94.8508125,21.5078125 C95.2362311,21.9088562 95.8039337,22.109375 96.5539375,22.109375 C98.0747784,22.109375 98.8351875,21.3072997 98.8351875,19.703125 L98.8351875,12.15625 L100.803938,12.15625 Z M109.52975,18.453125 L104.857875,18.453125 L104.857875,21.953125 L110.318813,21.953125 L110.318813,23.53125 L102.881313,23.53125 L102.881313,12.15625 L110.264125,12.15625 L110.264125,13.75 L104.857875,13.75 L104.857875,16.890625 L109.52975,16.890625 L109.52975,18.453125 Z M117.8415,20.6015625 C117.8415,20.10156 117.665721,19.7161472 117.314156,19.4453125 C116.962592,19.1744778 116.328484,18.901043 115.411812,18.625 C114.495141,18.348957 113.765982,18.0416684 113.224312,17.703125 C112.187849,17.0520801 111.669625,16.2031302 111.669625,15.15625 C111.669625,14.2395787 112.043319,13.484378 112.790719,12.890625 C113.538118,12.296872 114.508161,12 115.700875,12 C116.492546,12 117.198268,12.1458319 117.818062,12.4375 C118.437857,12.7291681 118.924832,13.1445286 119.279,13.6835938 C119.633168,14.2226589 119.81025,14.8203092 119.81025,15.4765625 L117.8415,15.4765625 C117.8415,14.8828095 117.655304,14.4179704 117.282906,14.0820312 C116.910509,13.7460921 116.377962,13.578125 115.68525,13.578125 C115.039413,13.578125 114.538116,13.7161445 114.181344,13.9921875 C113.824571,14.2682305 113.646187,14.6536434 113.646187,15.1484375 C113.646187,15.5651062 113.838894,15.912759 114.224312,16.1914062 C114.609731,16.4700535 115.245141,16.7408841 116.130562,17.0039062 C117.015984,17.2669284 117.726914,17.5664046 118.263375,17.9023438 C118.799836,18.2382829 119.193061,18.6236957 119.443062,19.0585938 C119.693064,19.4934918 119.818062,20.0026013 119.818062,20.5859375 C119.818062,21.5338589 119.454785,22.2877576 118.728219,22.8476562 C118.001653,23.4075549 117.015985,23.6875 115.771187,23.6875 C114.948267,23.6875 114.191764,23.5351578 113.501656,23.2304688 C112.811549,22.9257797 112.275096,22.505211 111.892281,21.96875 C111.509467,21.432289 111.318062,20.8072952 111.318062,20.09375 L113.294625,20.09375 C113.294625,20.7395866 113.508165,21.2395816 113.93525,21.59375 C114.362335,21.9479184 114.974309,22.125 115.771187,22.125 C116.458691,22.125 116.975613,21.9856785 117.321969,21.7070312 C117.668325,21.428384 117.8415,21.0598981 117.8415,20.6015625 Z" id="TUES" fill="#FFFFFF"></path>
                <path d="M18.5625,12.15625 L21.84375,20.875 L25.1171875,12.15625 L27.671875,12.15625 L27.671875,23.53125 L25.703125,23.53125 L25.703125,19.78125 L25.8984375,14.765625 L22.5390625,23.53125 L21.125,23.53125 L17.7734375,14.7734375 L17.96875,19.78125 L17.96875,23.53125 L16,23.53125 L16,12.15625 L18.5625,12.15625 Z M39.0859375,18.140625 C39.0859375,19.2552139 38.8932311,20.2330687 38.5078125,21.0742188 C38.1223939,21.9153688 37.5716182,22.5611957 36.8554688,23.0117188 C36.1393193,23.4622418 35.3151088,23.6875 34.3828125,23.6875 C33.4609329,23.6875 32.6393265,23.4622418 31.9179688,23.0117188 C31.196611,22.5611957 30.6393249,21.919275 30.2460938,21.0859375 C29.8528626,20.2526 29.6536459,19.2916721 29.6484375,18.203125 L29.6484375,17.5625 C29.6484375,16.4531195 29.8450501,15.4739626 30.2382812,14.625 C30.6315124,13.7760374 31.1861943,13.1263043 31.9023438,12.6757812 C32.6184932,12.2252582 33.4400995,12 34.3671875,12 C35.2942755,12 36.1158818,12.222654 36.8320312,12.6679688 C37.5481807,13.1132835 38.1015605,13.7539021 38.4921875,14.5898438 C38.8828145,15.4257854 39.0807291,16.398432 39.0859375,17.5078125 L39.0859375,18.140625 Z M37.109375,17.546875 C37.109375,16.286452 36.8710961,15.3203159 36.3945312,14.6484375 C35.9179664,13.9765591 35.2421919,13.640625 34.3671875,13.640625 C33.5130166,13.640625 32.8450545,13.9752571 32.3632812,14.6445312 C31.881508,15.3138054 31.6354167,16.2604105 31.625,17.484375 L31.625,18.140625 C31.625,19.3906313 31.8684871,20.3567674 32.3554688,21.0390625 C32.8424504,21.7213576 33.5182248,22.0625 34.3828125,22.0625 C35.2578169,22.0625 35.9309872,21.72917 36.4023438,21.0625 C36.8737003,20.39583 37.109375,19.4218814 37.109375,18.140625 L37.109375,17.546875 Z M50.078125,23.53125 L48.1015625,23.53125 L43.03125,15.4609375 L43.03125,23.53125 L41.0546875,23.53125 L41.0546875,12.15625 L43.03125,12.15625 L48.1171875,20.2578125 L48.1171875,12.15625 L50.078125,12.15625 L50.078125,23.53125 Z" id="MON" fill="#FFFFFF"></path>
                <path d="M287.554688,18.5546875 L282.976562,18.5546875 L282.976562,23.375 L281,23.375 L281,12 L288.226562,12 L288.226562,13.59375 L282.976562,13.59375 L282.976562,16.9765625 L287.554688,16.9765625 L287.554688,18.5546875 Z M293.93675,18.9921875 L291.733625,18.9921875 L291.733625,23.375 L289.757063,23.375 L289.757063,12 L293.757063,12 C295.069569,12 296.08258,12.2942679 296.796125,12.8828125 C297.50967,13.4713571 297.866438,14.3229111 297.866438,15.4375 C297.866438,16.1979205 297.682846,16.8346329 297.315656,17.3476562 C296.948467,17.8606796 296.436753,18.255207 295.7805,18.53125 L298.335188,23.2734375 L298.335188,23.375 L296.218,23.375 L293.93675,18.9921875 Z M291.733625,17.40625 L293.764875,17.40625 C294.431545,17.40625 294.952373,17.2382829 295.327375,16.9023438 C295.702377,16.5664046 295.889875,16.1067738 295.889875,15.5234375 C295.889875,14.9140595 295.7167,14.44271 295.370344,14.109375 C295.023988,13.77604 294.507066,13.6041667 293.819563,13.59375 L291.733625,13.59375 L291.733625,17.40625 Z M301.795375,23.375 L299.826625,23.375 L299.826625,12 L301.795375,12 L301.795375,23.375 Z" id="FRI" fill="#D8D8D8"></path>
            </g>
            <g id="Group-2" transform="translate(33.000000, 31.000000)">
                <rect id="Rectangle-4-Copy-23" stroke="#BDBDBD" x="0.5" y="0.5" width="334" height="34.210356" rx="17.105178"></rect>
                <path d="M113,23.53125 L113,12.15625 L116.359375,12.15625 C117.364588,12.15625 118.256507,12.3802061 119.035156,12.828125 C119.813806,13.2760439 120.416665,13.9114542 120.84375,14.734375 C121.270835,15.5572958 121.484375,16.4999947 121.484375,17.5625 L121.484375,18.1328125 C121.484375,19.2109429 121.269533,20.1588501 120.839844,20.9765625 C120.410154,21.7942749 119.798181,22.424477 119.003906,22.8671875 C118.209631,23.309898 117.299484,23.53125 116.273438,23.53125 L113,23.53125 Z M114.976562,13.75 L114.976562,21.953125 L116.265625,21.953125 C117.302089,21.953125 118.097653,21.6289095 118.652344,20.9804688 C119.207034,20.332028 119.489583,19.4010477 119.5,18.1875 L119.5,17.5546875 C119.5,16.3203063 119.231774,15.3776074 118.695312,14.7265625 C118.158851,14.0755176 117.380213,13.75 116.359375,13.75 L114.976562,13.75 Z M125.507063,23.53125 L123.538313,23.53125 L123.538313,12.15625 L125.507063,12.15625 L125.507063,23.53125 Z M132.084438,19.1484375 L129.881313,19.1484375 L129.881313,23.53125 L127.90475,23.53125 L127.90475,12.15625 L131.90475,12.15625 C133.217257,12.15625 134.230267,12.4505179 134.943813,13.0390625 C135.657358,13.6276071 136.014125,14.4791611 136.014125,15.59375 C136.014125,16.3541705 135.830533,16.9908829 135.463344,17.5039062 C135.096154,18.0169296 134.584441,18.411457 133.928188,18.6875 L136.482875,23.4296875 L136.482875,23.53125 L134.365688,23.53125 L132.084438,19.1484375 Z M129.881313,17.5625 L131.912563,17.5625 C132.579232,17.5625 133.100061,17.3945329 133.475063,17.0585938 C133.850064,16.7226546 134.037563,16.2630238 134.037563,15.6796875 C134.037563,15.0703095 133.864387,14.59896 133.518031,14.265625 C133.171675,13.93229 132.654753,13.7604167 131.96725,13.75 L129.881313,13.75 L129.881313,17.5625 Z M144.505562,18.453125 L139.833687,18.453125 L139.833687,21.953125 L145.294625,21.953125 L145.294625,23.53125 L137.857125,23.53125 L137.857125,12.15625 L145.239937,12.15625 L145.239937,13.75 L139.833687,13.75 L139.833687,16.890625 L144.505562,16.890625 L144.505562,18.453125 Z M155.551688,19.828125 C155.437104,21.0416727 154.989191,21.9882779 154.207938,22.6679688 C153.426684,23.3476596 152.387631,23.6875 151.09075,23.6875 C150.184495,23.6875 149.386326,23.4726584 148.696219,23.0429688 C148.006111,22.6132791 147.473564,22.0026081 147.098563,21.2109375 C146.723561,20.4192669 146.52825,19.5000052 146.512625,18.453125 L146.512625,17.390625 C146.512625,16.317703 146.702727,15.3723999 147.082938,14.5546875 C147.463148,13.7369751 148.008715,13.106773 148.719656,12.6640625 C149.430597,12.221352 150.252204,12 151.1845,12 C152.439715,12 153.450121,12.3411424 154.21575,13.0234375 C154.981379,13.7057326 155.426687,14.6692646 155.551688,15.9140625 L153.582938,15.9140625 C153.489187,15.0963501 153.250908,14.5065122 152.868094,14.1445312 C152.485279,13.7825503 151.924087,13.6015625 151.1845,13.6015625 C150.325121,13.6015625 149.664971,13.9153614 149.204031,14.5429688 C148.743091,15.1705761 148.507417,16.0911398 148.497,17.3046875 L148.497,18.3125 C148.497,19.5416728 148.71705,20.4791634 149.157156,21.125 C149.597263,21.7708366 150.241787,22.09375 151.09075,22.09375 C151.866796,22.09375 152.450123,21.9192726 152.84075,21.5703125 C153.231377,21.2213524 153.47877,20.6406291 153.582938,19.828125 L155.551688,19.828125 Z M165.2775,13.75 L161.730625,13.75 L161.730625,23.53125 L159.769688,23.53125 L159.769688,13.75 L156.254063,13.75 L156.254063,12.15625 L165.2775,12.15625 L165.2775,13.75 Z M170.221313,23.53125 L170.221313,12.15625 L173.580688,12.15625 C174.585901,12.15625 175.477819,12.3802061 176.256469,12.828125 C177.035118,13.2760439 177.637977,13.9114542 178.065063,14.734375 C178.492148,15.5572958 178.705688,16.4999947 178.705688,17.5625 L178.705688,18.1328125 C178.705688,19.2109429 178.490846,20.1588501 178.061156,20.9765625 C177.631467,21.7942749 177.019494,22.424477 176.225219,22.8671875 C175.430944,23.309898 174.520797,23.53125 173.49475,23.53125 L170.221313,23.53125 Z M172.197875,13.75 L172.197875,21.953125 L173.486938,21.953125 C174.523401,21.953125 175.318966,21.6289095 175.873656,20.9804688 C176.428347,20.332028 176.710896,19.4010477 176.721313,18.1875 L176.721313,17.5546875 C176.721313,16.3203063 176.453086,15.3776074 175.916625,14.7265625 C175.380164,14.0755176 174.601526,13.75 173.580688,13.75 L172.197875,13.75 Z M187.290875,18.453125 L182.619,18.453125 L182.619,21.953125 L188.079938,21.953125 L188.079938,23.53125 L180.642438,23.53125 L180.642438,12.15625 L188.02525,12.15625 L188.02525,13.75 L182.619,13.75 L182.619,16.890625 L187.290875,16.890625 L187.290875,18.453125 Z M191.633875,19.3046875 L191.633875,23.53125 L189.657312,23.53125 L189.657312,12.15625 L194.008875,12.15625 C195.279715,12.15625 196.288819,12.4869759 197.036219,13.1484375 C197.783618,13.8098991 198.157312,14.6848904 198.157312,15.7734375 C198.157312,16.8880264 197.791431,17.7552052 197.059656,18.375 C196.327882,18.9947948 195.303152,19.3046875 193.985437,19.3046875 L191.633875,19.3046875 Z M191.633875,17.71875 L194.008875,17.71875 C194.712004,17.71875 195.248456,17.5533871 195.61825,17.2226562 C195.988044,16.8919254 196.172938,16.4140656 196.172938,15.7890625 C196.172938,15.1744761 195.985439,14.6835956 195.610438,14.3164062 C195.235436,13.9492169 194.719816,13.7604167 194.063563,13.75 L191.633875,13.75 L191.633875,17.71875 Z M208.93,18.140625 C208.93,19.2552139 208.737294,20.2330687 208.351875,21.0742188 C207.966456,21.9153688 207.415681,22.5611957 206.699531,23.0117188 C205.983382,23.4622418 205.159171,23.6875 204.226875,23.6875 C203.304995,23.6875 202.483389,23.4622418 201.762031,23.0117188 C201.040673,22.5611957 200.483387,21.919275 200.090156,21.0859375 C199.696925,20.2526 199.497708,19.2916721 199.4925,18.203125 L199.4925,17.5625 C199.4925,16.4531195 199.689113,15.4739626 200.082344,14.625 C200.475575,13.7760374 201.030257,13.1263043 201.746406,12.6757812 C202.462556,12.2252582 203.284162,12 204.21125,12 C205.138338,12 205.959944,12.222654 206.676094,12.6679688 C207.392243,13.1132835 207.945623,13.7539021 208.33625,14.5898438 C208.726877,15.4257854 208.924792,16.398432 208.93,17.5078125 L208.93,18.140625 Z M206.953438,17.546875 C206.953438,16.286452 206.715159,15.3203159 206.238594,14.6484375 C205.762029,13.9765591 205.086254,13.640625 204.21125,13.640625 C203.357079,13.640625 202.689117,13.9752571 202.207344,14.6445312 C201.725571,15.3138054 201.479479,16.2604105 201.469063,17.484375 L201.469063,18.140625 C201.469063,19.3906312 201.71255,20.3567674 202.199531,21.0390625 C202.686513,21.7213576 203.362287,22.0625 204.226875,22.0625 C205.101879,22.0625 205.77505,21.72917 206.246406,21.0625 C206.717763,20.39583 206.953438,19.4218814 206.953438,18.140625 L206.953438,17.546875 Z M216.812063,20.6015625 C216.812063,20.10156 216.636283,19.7161472 216.284719,19.4453125 C215.933154,19.1744778 215.299046,18.901043 214.382375,18.625 C213.465704,18.348957 212.736544,18.0416684 212.194875,17.703125 C211.158411,17.0520801 210.640188,16.2031302 210.640188,15.15625 C210.640188,14.2395787 211.013882,13.484378 211.761281,12.890625 C212.508681,12.296872 213.478723,12 214.671438,12 C215.463108,12 216.16883,12.1458319 216.788625,12.4375 C217.40842,12.7291681 217.895394,13.1445286 218.249563,13.6835938 C218.603731,14.2226589 218.780813,14.8203092 218.780813,15.4765625 L216.812063,15.4765625 C216.812063,14.8828095 216.625866,14.4179704 216.253469,14.0820312 C215.881071,13.7460921 215.348524,13.578125 214.655813,13.578125 C214.009976,13.578125 213.508679,13.7161445 213.151906,13.9921875 C212.795134,14.2682305 212.61675,14.6536434 212.61675,15.1484375 C212.61675,15.5651062 212.809456,15.912759 213.194875,16.1914062 C213.580294,16.4700535 214.215704,16.7408841 215.101125,17.0039062 C215.986546,17.2669284 216.697476,17.5664046 217.233938,17.9023438 C217.770399,18.2382829 218.163624,18.6236957 218.413625,19.0585938 C218.663626,19.4934918 218.788625,20.0026012 218.788625,20.5859375 C218.788625,21.5338589 218.425347,22.2877576 217.698781,22.8476562 C216.972215,23.4075549 215.986548,23.6875 214.74175,23.6875 C213.918829,23.6875 213.162326,23.5351578 212.472219,23.2304688 C211.782111,22.9257797 211.245658,22.505211 210.862844,21.96875 C210.480029,21.432289 210.288625,20.8072952 210.288625,20.09375 L212.265188,20.09375 C212.265188,20.7395866 212.478727,21.2395816 212.905813,21.59375 C213.332898,21.9479184 213.944871,22.125 214.74175,22.125 C215.429253,22.125 215.946175,21.9856785 216.292531,21.7070312 C216.638887,21.428384 216.812063,21.0598981 216.812063,20.6015625 Z M222.576937,23.53125 L220.608187,23.53125 L220.608187,12.15625 L222.576937,12.15625 L222.576937,23.53125 Z M232.966813,13.75 L229.419938,13.75 L229.419938,23.53125 L227.459,23.53125 L227.459,13.75 L223.943375,13.75 L223.943375,12.15625 L232.966813,12.15625 L232.966813,13.75 Z" id="DIRECT-DEPOSIT" fill="#0C7C84"></path>
                <path d="M277.039062,19.828125 C276.924479,21.0416727 276.476566,21.9882779 275.695312,22.6679688 C274.914059,23.3476596 273.875006,23.6875 272.578125,23.6875 C271.67187,23.6875 270.873701,23.4726584 270.183594,23.0429688 C269.493486,22.6132791 268.960939,22.0026081 268.585938,21.2109375 C268.210936,20.4192669 268.015625,19.5000052 268,18.453125 L268,17.390625 C268,16.317703 268.190102,15.3723999 268.570312,14.5546875 C268.950523,13.7369751 269.49609,13.106773 270.207031,12.6640625 C270.917972,12.221352 271.739579,12 272.671875,12 C273.92709,12 274.937496,12.3411424 275.703125,13.0234375 C276.468754,13.7057326 276.914062,14.6692646 277.039062,15.9140625 L275.070312,15.9140625 C274.976562,15.0963501 274.738283,14.5065122 274.355469,14.1445312 C273.972654,13.7825503 273.411462,13.6015625 272.671875,13.6015625 C271.812496,13.6015625 271.152346,13.9153614 270.691406,14.5429688 C270.230466,15.1705761 269.994792,16.0911398 269.984375,17.3046875 L269.984375,18.3125 C269.984375,19.5416728 270.204425,20.4791634 270.644531,21.125 C271.084638,21.7708366 271.729162,22.09375 272.578125,22.09375 C273.354171,22.09375 273.937498,21.9192726 274.328125,21.5703125 C274.718752,21.2213524 274.966145,20.6406291 275.070312,19.828125 L277.039062,19.828125 Z M287.803938,23.53125 L285.835188,23.53125 L285.835188,18.4765625 L280.74925,18.4765625 L280.74925,23.53125 L278.772688,23.53125 L278.772688,12.15625 L280.74925,12.15625 L280.74925,16.890625 L285.835188,16.890625 L285.835188,12.15625 L287.803938,12.15625 L287.803938,23.53125 Z M296.756312,18.453125 L292.084437,18.453125 L292.084437,21.953125 L297.545375,21.953125 L297.545375,23.53125 L290.107875,23.53125 L290.107875,12.15625 L297.490687,12.15625 L297.490687,13.75 L292.084437,13.75 L292.084437,16.890625 L296.756312,16.890625 L296.756312,18.453125 Z M307.802437,19.828125 C307.687854,21.0416727 307.239941,21.9882779 306.458687,22.6679688 C305.677434,23.3476596 304.638381,23.6875 303.3415,23.6875 C302.435245,23.6875 301.637076,23.4726584 300.946969,23.0429688 C300.256861,22.6132791 299.724314,22.0026081 299.349312,21.2109375 C298.974311,20.4192669 298.779,19.5000052 298.763375,18.453125 L298.763375,17.390625 C298.763375,16.317703 298.953477,15.3723999 299.333687,14.5546875 C299.713898,13.7369751 300.259465,13.106773 300.970406,12.6640625 C301.681347,12.221352 302.502954,12 303.43525,12 C304.690465,12 305.700871,12.3411424 306.4665,13.0234375 C307.232129,13.7057326 307.677437,14.6692646 307.802437,15.9140625 L305.833687,15.9140625 C305.739937,15.0963501 305.501658,14.5065122 305.118844,14.1445312 C304.736029,13.7825503 304.174837,13.6015625 303.43525,13.6015625 C302.575871,13.6015625 301.915721,13.9153614 301.454781,14.5429688 C300.993841,15.1705761 300.758167,16.0911398 300.74775,17.3046875 L300.74775,18.3125 C300.74775,19.5416728 300.9678,20.4791634 301.407906,21.125 C301.848013,21.7708366 302.492537,22.09375 303.3415,22.09375 C304.117546,22.09375 304.700873,21.9192726 305.0915,21.5703125 C305.482127,21.2213524 305.72952,20.6406291 305.833687,19.828125 L307.802437,19.828125 Z M312.801688,18.6171875 L311.512625,19.984375 L311.512625,23.53125 L309.536063,23.53125 L309.536063,12.15625 L311.512625,12.15625 L311.512625,17.4921875 L312.606375,16.140625 L315.9345,12.15625 L318.325125,12.15625 L314.098563,17.1953125 L318.567313,23.53125 L316.223563,23.53125 L312.801688,18.6171875 Z" id="CHECK" fill="#0C7C84"></path>
                <path d="M17.605178,35.210356 L79.394822,35.210356 L79.394822,35.210356 C89.1178933,35.210356 97,27.3282493 97,17.605178 L97,17.605178 L97,17.605178 C97,7.88210667 89.1178933,-2.00415918e-14 79.394822,-3.55271368e-14 L17.605178,0 L17.605178,0 C7.88210667,1.78609923e-15 -1.19073282e-15,7.88210667 0,17.605178 L0,17.605178 L0,17.605178 C1.19073282e-15,27.3282493 7.88210667,35.210356 17.605178,35.210356 Z" id="Fill-215-Copy-36" fill="#0C7C84"></path>
                <path d="M18.5625,12.15625 L21.84375,20.875 L25.1171875,12.15625 L27.671875,12.15625 L27.671875,23.53125 L25.703125,23.53125 L25.703125,19.78125 L25.8984375,14.765625 L22.5390625,23.53125 L21.125,23.53125 L17.7734375,14.7734375 L17.96875,19.78125 L17.96875,23.53125 L16,23.53125 L16,12.15625 L18.5625,12.15625 Z M38.6875,19.828125 C38.5729161,21.0416727 38.1250039,21.9882779 37.34375,22.6679688 C36.5624961,23.3476596 35.523444,23.6875 34.2265625,23.6875 C33.320308,23.6875 32.5221389,23.4726584 31.8320312,23.0429688 C31.1419236,22.6132791 30.6093769,22.0026081 30.234375,21.2109375 C29.8593731,20.4192669 29.6640626,19.5000052 29.6484375,18.453125 L29.6484375,17.390625 C29.6484375,16.317703 29.8385398,15.3723999 30.21875,14.5546875 C30.5989602,13.7369751 31.1445277,13.106773 31.8554688,12.6640625 C32.5664098,12.221352 33.3880162,12 34.3203125,12 C35.5755271,12 36.5859337,12.3411424 37.3515625,13.0234375 C38.1171913,13.7057326 38.5624994,14.6692646 38.6875,15.9140625 L36.71875,15.9140625 C36.6249995,15.0963501 36.3867207,14.5065122 36.0039062,14.1445312 C35.6210918,13.7825503 35.0598995,13.6015625 34.3203125,13.6015625 C33.4609332,13.6015625 32.8007836,13.9153614 32.3398438,14.5429688 C31.8789039,15.1705761 31.6432292,16.0911398 31.6328125,17.3046875 L31.6328125,18.3125 C31.6328125,19.5416728 31.8528624,20.4791634 32.2929688,21.125 C32.7330751,21.7708366 33.3775999,22.09375 34.2265625,22.09375 C35.002608,22.09375 35.5859355,21.9192726 35.9765625,21.5703125 C36.3671895,21.2213524 36.6145828,20.6406291 36.71875,19.828125 L38.6875,19.828125 Z M40.8046875,24.5078125 L39.3125,24.5078125 L43.7890625,12.15625 L45.28125,12.15625 L40.8046875,24.5078125 Z M50.7890625,21.0546875 L53.6796875,12.15625 L55.8515625,12.15625 L51.7578125,23.53125 L49.84375,23.53125 L45.765625,12.15625 L47.9296875,12.15625 L50.7890625,21.0546875 Z M59.21875,23.53125 L57.25,23.53125 L57.25,12.15625 L59.21875,12.15625 L59.21875,23.53125 Z M67.59375,20.6015625 C67.59375,20.10156 67.4179705,19.7161472 67.0664062,19.4453125 C66.714842,19.1744778 66.0807338,18.901043 65.1640625,18.625 C64.2473912,18.348957 63.5182319,18.0416684 62.9765625,17.703125 C61.940099,17.0520801 61.421875,16.2031302 61.421875,15.15625 C61.421875,14.2395787 61.7955692,13.484378 62.5429688,12.890625 C63.2903683,12.296872 64.2604107,12 65.453125,12 C66.2447956,12 66.9505177,12.1458319 67.5703125,12.4375 C68.1901073,12.7291681 68.6770816,13.1445286 69.03125,13.6835938 C69.3854184,14.2226589 69.5625,14.8203092 69.5625,15.4765625 L67.59375,15.4765625 C67.59375,14.8828095 67.4075539,14.4179704 67.0351562,14.0820312 C66.6627586,13.7460921 66.1302118,13.578125 65.4375,13.578125 C64.7916634,13.578125 64.2903664,13.7161445 63.9335938,13.9921875 C63.5768211,14.2682305 63.3984375,14.6536434 63.3984375,15.1484375 C63.3984375,15.5651062 63.5911439,15.912759 63.9765625,16.1914062 C64.3619811,16.4700535 64.9973914,16.7408841 65.8828125,17.0039062 C66.7682336,17.2669284 67.479164,17.5664046 68.015625,17.9023438 C68.552086,18.2382829 68.9453113,18.6236957 69.1953125,19.0585938 C69.4453137,19.4934918 69.5703125,20.0026012 69.5703125,20.5859375 C69.5703125,21.5338589 69.2070349,22.2877576 68.4804688,22.8476562 C67.7539026,23.4075549 66.7682354,23.6875 65.5234375,23.6875 C64.7005167,23.6875 63.9440139,23.5351578 63.2539062,23.2304688 C62.5637986,22.9257797 62.0273457,22.505211 61.6445312,21.96875 C61.2617168,21.432289 61.0703125,20.8072952 61.0703125,20.09375 L63.046875,20.09375 C63.046875,20.7395866 63.2604145,21.2395816 63.6875,21.59375 C64.1145855,21.9479184 64.7265585,22.125 65.5234375,22.125 C66.2109409,22.125 66.7278629,21.9856785 67.0742188,21.7070312 C67.4205746,21.428384 67.59375,21.0598981 67.59375,20.6015625 Z M77.671875,20.8828125 L73.265625,20.8828125 L72.34375,23.53125 L70.2890625,23.53125 L74.5859375,12.15625 L76.359375,12.15625 L80.6640625,23.53125 L78.6015625,23.53125 L77.671875,20.8828125 Z M73.8203125,19.2890625 L77.1171875,19.2890625 L75.46875,14.5703125 L73.8203125,19.2890625 Z" id="MC/VISA" fill="#FFFFFF"></path>
            </g>
            <g id="Group-3" transform="translate(33.000000, 198.000000)">
                <rect id="Rectangle-4-Copy-29" stroke="#BDBDBD" x="0.5" y="0.5" width="193" height="34.210356" rx="17.105178"></rect>
                <text id="CUSTOM" font-family="Roboto-Medium, Roboto" font-size="16" font-weight="400" letter-spacing="-0.032" fill="#0C7C84">
                    <tspan x="115" y="23">CUSTOM</tspan>
                </text>
                <path d="M17.605178,35.210356 L81.394822,35.210356 L81.394822,35.210356 C91.1178933,35.210356 99,27.3282493 99,17.605178 L99,17.605178 L99,17.605178 C99,7.88210667 91.1178933,1.24247555e-14 81.394822,1.42108547e-14 L17.605178,0 L17.605178,0 C7.88210667,1.78609923e-15 -1.19073282e-15,7.88210667 0,17.605178 L0,17.605178 L0,17.605178 C1.19073282e-15,27.3282493 7.88210667,35.210356 17.605178,35.210356 Z" id="Fill-215-Copy-42" fill="#0C7C84"></path>
                <text id="PRESETS" font-family="Roboto-Medium, Roboto" font-size="16" font-weight="400" fill="#FFFFFF">
                    <tspan x="15" y="23">PRESETS</tspan>
                </text>
            </g>
        </g>
    </g>
</svg>
