<?xml version="1.0" encoding="UTF-8" standalone="no"?>
<svg width="583px" height="370px" viewBox="0 0 583 370" version="1.1" xmlns="http://www.w3.org/2000/svg" xmlns:xlink="http://www.w3.org/1999/xlink">
    <!-- Generator: Sketch 46.2 (44496) - http://www.bohemiancoding.com/sketch -->
    <title>dropdown-hero</title>
    <desc>Created with Sketch.</desc>
    <defs>
        <rect id="path-1" x="0" y="15.2570865" width="214.044469" height="133.5996"></rect>
    </defs>
    <g stroke="none" stroke-width="1" fill="none" fill-rule="evenodd">
        <g transform="translate(-220.000000, -566.000000)">
            <g transform="translate(220.452000, 565.580000)">
                <polygon fill="#B5E2EB" points="0.033232 369.838928 582.007024 369.838928 582.007024 0.535464 0.033232 0.535464"></polygon>
                <polygon fill="#16B9D4" points="0.279792 368.670448 116.500136 368.670448 116.500136 1.695904 0.279792 1.695904"></polygon>
                <polygon fill="#0E94A6" points="0.594424 25.437488 582.007024 25.437488 582.007024 1.478824 0.594424 1.478824"></polygon>
                <polygon fill="#FFFFFF" points="133.81893 369.838928 555.16317 369.838928 555.16317 59.820816 133.81893 59.820816"></polygon>
                <g transform="translate(150.593264, 98.234857)">
                    <g>
                        <use fill="#F2F2F2" fill-rule="evenodd" xlink:href="#path-1"></use>
                        <rect stroke="#F57C00" stroke-width="0.536" x="0.268" y="15.5250865" width="213.508469" height="133.0636"></rect>
                    </g>
                    <rect fill="#F57C00" x="0" y="65.3476305" width="214.044469" height="18.8782044"></rect>
                    <polygon stroke="#F57C00" stroke-width="0.536" fill-opacity="0.7" fill="#F57C00" opacity="0.899999976" transform="translate(167.291092, 7.537288) scale(1, -1) translate(-167.291092, -7.537288) " points="167.291092 4.99599078 169.788278 10.0785843 164.793907 10.0785843"></polygon>
                    <rect stroke="#F57C00" stroke-width="0.536" x="0.268" y="0.268" width="176.407427" height="15.4378652"></rect>
                    <rect fill="#EFEFEF" x="7.13481562" y="74.0606479" width="46.991021" height="3.63042392" rx="1.81521196"></rect>
                    <rect fill="#EFEFEF" x="57.2147463" y="74.0606479" width="24.6827983" height="3.63042392" rx="1.81521196"></rect>
                    <rect fill="#EFEFEF" x="84.9864542" y="74.0606479" width="62.7784891" height="3.63042392" rx="1.81521196"></rect>
                </g>
            </g>
        </g>
    </g>
</svg>