<?xml version="1.0" encoding="UTF-8" standalone="no"?>
<svg width="883px" height="183px" viewBox="0 0 883 183" version="1.1" xmlns="http://www.w3.org/2000/svg" xmlns:xlink="http://www.w3.org/1999/xlink">
    <!-- Generator: Sketch 47.1 (45422) - http://www.bohemiancoding.com/sketch -->
    <title>tables-hero-row</title>
    <desc>Created with Sketch.</desc>
    <defs></defs>
    <g id="Page-1" stroke="none" stroke-width="1" fill="none" fill-rule="evenodd">
        <g id="tables-hero-row">
            <g id="Group-5" transform="translate(9.000000, 48.000000)">
                <g id="Group-9">
                    <path d="M442.389746,10.3347826 L442.389746,1.37697011 L444.918359,1.37697011 C445.69766,1.37697011 446.386716,1.54923401 446.985547,1.89376698 C447.584378,2.23829996 448.046825,2.72843177 448.3729,3.36417714 C448.698976,3.99992251 448.864062,4.72999333 448.868164,5.55441151 L448.868164,6.12657948 C448.868164,6.97150558 448.705129,7.71183021 448.379053,8.3475756 C448.052977,8.9833209 447.587454,9.471402 446.982471,9.8118334 C446.377487,10.1522648 445.673051,10.3265794 444.869141,10.3347826 L442.389746,10.3347826 Z M443.570996,2.34904042 L443.570996,9.3688646 L444.81377,9.3688646 C445.724321,9.3688646 446.432859,9.0858597 446.939404,8.5198412 C447.44595,7.95382275 447.699219,7.14787378 447.699219,6.10197011 L447.699219,5.57902089 C447.699219,4.5618283 447.460305,3.77126004 446.982471,3.20729237 C446.504636,2.64332471 445.82686,2.35724359 444.949121,2.34904042 L443.570996,2.34904042 Z M455.715723,6.19425526 L451.833594,6.19425526 L451.833594,9.3688646 L456.343262,9.3688646 L456.343262,10.3347826 L450.652344,10.3347826 L450.652344,1.37697011 L456.281738,1.37697011 L456.281738,2.34904042 L451.833594,2.34904042 L451.833594,5.2283373 L455.715723,5.2283373 L455.715723,6.19425526 Z M460.453027,6.34191151 C459.439936,6.05069912 458.702688,5.69284137 458.24126,5.26832753 C457.779832,4.84381369 457.549121,4.31984432 457.549121,3.6964037 C457.549121,2.99093143 457.831101,2.40748999 458.395068,1.94606191 C458.959036,1.48463382 459.692183,1.25392323 460.594531,1.25392323 C461.209769,1.25392323 461.758347,1.37286736 462.240283,1.61075917 C462.722219,1.84865099 463.095458,2.1767727 463.36001,2.59513417 C463.624562,3.01349564 463.756836,3.47081528 463.756836,3.96710683 L462.569434,3.96710683 C462.569434,3.42569787 462.39717,3.00016502 462.052637,2.6904955 C461.708104,2.38082598 461.222073,2.22599355 460.594531,2.22599355 C460.012106,2.22599355 459.557863,2.35416609 459.231787,2.61051503 C458.905711,2.86686397 458.742676,3.22267096 458.742676,3.67794667 C458.742676,4.04298756 458.897508,4.35162705 459.207178,4.60387441 C459.516847,4.85612176 460.043893,5.08683234 460.78833,5.29601308 C461.532767,5.50519381 462.115183,5.73590439 462.535596,5.98815175 C462.956008,6.2403991 463.267724,6.53468327 463.470752,6.87101308 C463.67378,7.20734288 463.775293,7.60313971 463.775293,8.0584154 C463.775293,8.7843956 463.492288,9.3657863 462.92627,9.8026049 C462.360251,10.2394235 461.60352,10.4578295 460.656055,10.4578295 C460.040817,10.4578295 459.466604,10.3399107 458.933398,10.1040697 C458.400193,9.8682287 457.989015,9.5452339 457.699854,9.1350756 C457.410692,8.7249173 457.266113,8.2593946 457.266113,7.73849355 L458.453516,7.73849355 C458.453516,8.2799025 458.653465,8.7074861 459.053369,9.0212572 C459.453273,9.3350283 459.987497,9.4919115 460.656055,9.4919115 C461.279495,9.4919115 461.757323,9.3647643 462.089551,9.1104662 C462.421779,8.8561681 462.587891,8.5095895 462.587891,8.0707201 C462.587891,7.63185073 462.434084,7.29244982 462.126465,7.05250722 C461.818846,6.81256461 461.261039,6.57570175 460.453027,6.34191151 Z M471.87793,7.4923998 C471.767187,8.4398655 471.417532,9.1709617 470.828955,9.6857103 C470.240378,10.200459 469.458013,10.4578295 468.481836,10.4578295 C467.423628,10.4578295 466.575638,10.0784387 465.937842,9.3196459 C465.300046,8.560853 464.981152,7.54572647 464.981152,6.27423573 L464.981152,5.41290761 C464.981152,4.58028626 465.129832,3.84816467 465.427197,3.21652089 C465.724562,2.58487711 466.145993,2.09987219 466.691504,1.76149159 C467.237014,1.42311099 467.868649,1.25392323 468.586426,1.25392323 C469.537993,1.25392323 470.300876,1.51949675 470.875098,2.05065175 C471.449319,2.58180675 471.783593,3.31700447 471.87793,4.25626698 L470.690527,4.25626698 C470.587988,3.54259154 470.36548,3.02579983 470.022998,2.70587636 C469.680516,2.38595288 469.201663,2.22599355 468.586426,2.22599355 C467.831735,2.22599355 467.24009,2.50489701 466.811475,3.0627123 C466.382859,3.62052759 466.168555,4.41417199 466.168555,5.44366933 L466.168555,6.3111498 C466.168555,7.28322497 466.37158,8.0563618 466.777637,8.6305834 C467.183693,9.204805 467.751754,9.4919115 468.481836,9.4919115 C469.138089,9.4919115 469.641551,9.3432314 469.992236,9.0458666 C470.342922,8.7485018 470.575683,8.2306847 470.690527,7.4923998 L471.87793,7.4923998 Z M478.553223,6.19425526 L474.671094,6.19425526 L474.671094,9.3688646 L479.180762,9.3688646 L479.180762,10.3347826 L473.489844,10.3347826 L473.489844,1.37697011 L479.119238,1.37697011 L479.119238,2.34904042 L474.671094,2.34904042 L474.671094,5.2283373 L478.553223,5.2283373 L478.553223,6.19425526 Z M487.535645,10.3347826 L486.348242,10.3347826 L481.838574,3.43185292 L481.838574,10.3347826 L480.651172,10.3347826 L480.651172,1.37697011 L481.838574,1.37697011 L486.360547,8.3106615 L486.360547,1.37697011 L487.535645,1.37697011 L487.535645,10.3347826 Z M489.633594,10.3347826 L489.633594,1.37697011 L492.162207,1.37697011 C492.941508,1.37697011 493.630563,1.54923401 494.229395,1.89376698 C494.828226,2.23829996 495.290672,2.72843177 495.616748,3.36417714 C495.942824,3.99992251 496.10791,4.72999333 496.112012,5.55441151 L496.112012,6.12657948 C496.112012,6.97150558 495.948976,7.71183021 495.6229,8.3475756 C495.296825,8.9833209 494.831302,9.471402 494.226318,9.8118334 C493.621335,10.1522648 492.916899,10.3265794 492.112988,10.3347826 L489.633594,10.3347826 Z M490.814844,2.34904042 L490.814844,9.3688646 L492.057617,9.3688646 C492.968169,9.3688646 493.676706,9.0858597 494.183252,8.5198412 C494.689797,7.95382275 494.943066,7.14787378 494.943066,6.10197011 L494.943066,5.57902089 C494.943066,4.5618283 494.704153,3.77126004 494.226318,3.20729237 C493.748484,2.64332471 493.070708,2.35724359 492.192969,2.34904042 L490.814844,2.34904042 Z M499.163574,10.3347826 L497.982324,10.3347826 L497.982324,1.37697011 L499.163574,1.37697011 L499.163574,10.3347826 Z M508.20752,10.3347826 L507.020117,10.3347826 L502.510449,3.43185292 L502.510449,10.3347826 L501.323047,10.3347826 L501.323047,1.37697011 L502.510449,1.37697011 L507.032422,8.3106615 L507.032422,1.37697011 L508.20752,1.37697011 L508.20752,10.3347826 Z M516.919238,9.159685 C516.615721,9.5944528 516.192239,9.9194983 515.648779,10.1348314 C515.10532,10.3501645 514.47266,10.4578295 513.750781,10.4578295 C513.020699,10.4578295 512.372659,10.286591 511.806641,9.9441088 C511.240622,9.6016266 510.802785,9.1145709 510.493115,8.4829271 C510.183446,7.85128336 510.024512,7.11916177 510.016309,6.28654042 L510.016309,5.50519276 C510.016309,4.15577196 510.3311,3.10988398 510.960693,2.36749745 C511.590286,1.62511093 512.47519,1.25392323 513.61543,1.25392323 C514.550591,1.25392323 515.30322,1.49283686 515.87334,1.97067128 C516.44346,2.4485057 516.792089,3.12628213 516.919238,4.00402089 L515.737988,4.00402089 C515.516503,2.8186634 514.811041,2.22599355 513.621582,2.22599355 C512.829977,2.22599355 512.230129,2.50387163 511.822021,3.05963612 C511.413914,3.61540062 511.207813,4.42032421 511.203711,5.47443105 L511.203711,6.20655995 C511.203711,7.21144779 511.433396,8.0102191 511.892773,8.6028978 C512.352151,9.1955766 512.973531,9.4919115 513.756934,9.4919115 C514.199905,9.4919115 514.587498,9.4426933 514.919727,9.3442553 C515.251955,9.2458173 515.526757,9.0797057 515.744141,8.8459154 L515.744141,6.83409901 L513.670801,6.83409901 L513.670801,5.87433339 L516.919238,5.87433339 L516.919238,9.159685 Z" id="Column-3-Label" fill="#333333" fill-rule="nonzero"></path>
                    <path d="M267.33623,7.99689198 L263.583301,7.99689198 L262.74043,10.3347826 L261.522266,10.3347826 L264.942969,1.37697011 L265.976562,1.37697011 L269.403418,10.3347826 L268.191406,10.3347826 L267.33623,7.99689198 Z M263.940137,7.02482167 L266.985547,7.02482167 L265.459766,2.83507558 L263.940137,7.02482167 Z M273.248633,6.34191151 C272.235542,6.05069912 271.498293,5.69284137 271.036865,5.26832753 C270.575437,4.84381369 270.344727,4.31984432 270.344727,3.6964037 C270.344727,2.99093143 270.626706,2.40748999 271.190674,1.94606191 C271.754641,1.48463382 272.487788,1.25392323 273.390137,1.25392323 C274.005374,1.25392323 274.553953,1.37286736 275.035889,1.61075917 C275.517825,1.84865099 275.891063,2.1767727 276.155615,2.59513417 C276.420167,3.01349564 276.552441,3.47081528 276.552441,3.96710683 L275.365039,3.96710683 C275.365039,3.42569787 275.192775,3.00016502 274.848242,2.6904955 C274.503709,2.38082598 274.017679,2.22599355 273.390137,2.22599355 C272.807712,2.22599355 272.353468,2.35416609 272.027393,2.61051503 C271.701317,2.86686397 271.538281,3.22267096 271.538281,3.67794667 C271.538281,4.04298756 271.693114,4.35162705 272.002783,4.60387441 C272.312453,4.85612176 272.839498,5.08683234 273.583936,5.29601308 C274.328373,5.50519381 274.910789,5.73590439 275.331201,5.98815175 C275.751613,6.2403991 276.063329,6.53468327 276.266357,6.87101308 C276.469386,7.20734288 276.570898,7.60313971 276.570898,8.0584154 C276.570898,8.7843956 276.287893,9.3657863 275.721875,9.8026049 C275.155857,10.2394235 274.399126,10.4578295 273.45166,10.4578295 C272.836423,10.4578295 272.26221,10.3399107 271.729004,10.1040697 C271.195798,9.8682287 270.784621,9.5452339 270.495459,9.1350756 C270.206297,8.7249173 270.061719,8.2593946 270.061719,7.73849355 L271.249121,7.73849355 C271.249121,8.2799025 271.44907,8.7074861 271.848975,9.0212572 C272.248879,9.3350283 272.783102,9.4919115 273.45166,9.4919115 C274.075101,9.4919115 274.552928,9.3647643 274.885156,9.1104662 C275.217384,8.8561681 275.383496,8.5095895 275.383496,8.0707201 C275.383496,7.63185073 275.229689,7.29244982 274.92207,7.05250722 C274.614452,6.81256461 274.056645,6.57570175 273.248633,6.34191151 Z M284.673535,7.4923998 C284.562792,8.4398655 284.213138,9.1709617 283.624561,9.6857103 C283.035983,10.200459 282.253618,10.4578295 281.277441,10.4578295 C280.219233,10.4578295 279.371243,10.0784387 278.733447,9.3196459 C278.095651,8.560853 277.776758,7.54572647 277.776758,6.27423573 L277.776758,5.41290761 C277.776758,4.58028626 277.925438,3.84816467 278.222803,3.21652089 C278.520168,2.58487711 278.941599,2.09987219 279.487109,1.76149159 C280.03262,1.42311099 280.664254,1.25392323 281.382031,1.25392323 C282.333599,1.25392323 283.096482,1.51949675 283.670703,2.05065175 C284.244925,2.58180675 284.579199,3.31700447 284.673535,4.25626698 L283.486133,4.25626698 C283.383593,3.54259154 283.161086,3.02579983 282.818604,2.70587636 C282.476121,2.38595288 281.997269,2.22599355 281.382031,2.22599355 C280.62734,2.22599355 280.035696,2.50489701 279.60708,3.0627123 C279.178465,3.62052759 278.96416,4.41417199 278.96416,5.44366933 L278.96416,6.3111498 C278.96416,7.28322497 279.167185,8.0563618 279.573242,8.6305834 C279.979299,9.204805 280.54736,9.4919115 281.277441,9.4919115 C281.933695,9.4919115 282.437156,9.3432314 282.787842,9.0458666 C283.138527,8.7485018 283.371288,8.2306847 283.486133,7.4923998 L284.673535,7.4923998 Z M291.348828,6.19425526 L287.466699,6.19425526 L287.466699,9.3688646 L291.976367,9.3688646 L291.976367,10.3347826 L286.285449,10.3347826 L286.285449,1.37697011 L291.914844,1.37697011 L291.914844,2.34904042 L287.466699,2.34904042 L287.466699,5.2283373 L291.348828,5.2283373 L291.348828,6.19425526 Z M300.33125,10.3347826 L299.143848,10.3347826 L294.63418,3.43185292 L294.63418,10.3347826 L293.446777,10.3347826 L293.446777,1.37697011 L294.63418,1.37697011 L299.156152,8.3106615 L299.156152,1.37697011 L300.33125,1.37697011 L300.33125,10.3347826 Z M302.429199,10.3347826 L302.429199,1.37697011 L304.957812,1.37697011 C305.737113,1.37697011 306.426169,1.54923401 307.025,1.89376698 C307.623831,2.23829996 308.086278,2.72843177 308.412354,3.36417714 C308.738429,3.99992251 308.903516,4.72999333 308.907617,5.55441151 L308.907617,6.12657948 C308.907617,6.97150558 308.744582,7.71183021 308.418506,8.3475756 C308.09243,8.9833209 307.626907,9.471402 307.021924,9.8118334 C306.41694,10.1522648 305.712504,10.3265794 304.908594,10.3347826 L302.429199,10.3347826 Z M303.610449,2.34904042 L303.610449,9.3688646 L304.853223,9.3688646 C305.763774,9.3688646 306.472312,9.0858597 306.978857,8.5198412 C307.485403,7.95382275 307.738672,7.14787378 307.738672,6.10197011 L307.738672,5.57902089 C307.738672,4.5618283 307.499758,3.77126004 307.021924,3.20729237 C306.544089,2.64332471 305.866313,2.35724359 304.988574,2.34904042 L303.610449,2.34904042 Z M311.95918,10.3347826 L310.77793,10.3347826 L310.77793,1.37697011 L311.95918,1.37697011 L311.95918,10.3347826 Z M321.003125,10.3347826 L319.815723,10.3347826 L315.306055,3.43185292 L315.306055,10.3347826 L314.118652,10.3347826 L314.118652,1.37697011 L315.306055,1.37697011 L319.828027,8.3106615 L319.828027,1.37697011 L321.003125,1.37697011 L321.003125,10.3347826 Z M329.714844,9.159685 C329.411327,9.5944528 328.987845,9.9194983 328.444385,10.1348314 C327.900925,10.3501645 327.268265,10.4578295 326.546387,10.4578295 C325.816305,10.4578295 325.168265,10.286591 324.602246,9.9441088 C324.036228,9.6016266 323.59839,9.1145709 323.288721,8.4829271 C322.979051,7.85128336 322.820117,7.11916177 322.811914,6.28654042 L322.811914,5.50519276 C322.811914,4.15577196 323.126706,3.10988398 323.756299,2.36749745 C324.385892,1.62511093 325.270795,1.25392323 326.411035,1.25392323 C327.346196,1.25392323 328.098825,1.49283686 328.668945,1.97067128 C329.239065,2.4485057 329.587695,3.12628213 329.714844,4.00402089 L328.533594,4.00402089 C328.312108,2.8186634 327.606647,2.22599355 326.417187,2.22599355 C325.625582,2.22599355 325.025734,2.50387163 324.617627,3.05963612 C324.209519,3.61540062 324.003418,4.42032421 323.999316,5.47443105 L323.999316,6.20655995 C323.999316,7.21144779 324.229002,8.0102191 324.688379,8.6028978 C325.147756,9.1955766 325.769137,9.4919115 326.552539,9.4919115 C326.99551,9.4919115 327.383104,9.4426933 327.715332,9.3442553 C328.04756,9.2458173 328.322362,9.0797057 328.539746,8.8459154 L328.539746,6.83409901 L326.466406,6.83409901 L326.466406,5.87433339 L329.714844,5.87433339 L329.714844,9.159685 Z" id="Column-2-Label" fill="#333333" fill-rule="nonzero"></path>
                    <path d="M640.974219,10.3347826 L639.786816,10.3347826 L639.786816,6.19425526 L635.270996,6.19425526 L635.270996,10.3347826 L634.089746,10.3347826 L634.089746,1.37697011 L635.270996,1.37697011 L635.270996,5.2283373 L639.786816,5.2283373 L639.786816,1.37697011 L640.974219,1.37697011 L640.974219,10.3347826 Z M649.962793,6.14503651 C649.962793,7.02277528 649.815138,7.78873442 649.519824,8.4429369 C649.22451,9.0971394 648.806155,9.5964996 648.264746,9.9410326 C647.723337,10.2855656 647.091703,10.4578295 646.369824,10.4578295 C645.664352,10.4578295 645.03887,10.2845402 644.493359,9.9379564 C643.947849,9.5913727 643.524367,9.0971393 643.2229,8.4552416 C642.921434,7.81334385 642.766602,7.06994308 642.758398,6.22501698 L642.758398,5.57902089 C642.758398,4.71768846 642.908104,3.95685622 643.20752,3.29650136 C643.506935,2.63614649 643.930417,2.13063397 644.477979,1.77994862 C645.02554,1.42926328 645.652047,1.25392323 646.35752,1.25392323 C647.075297,1.25392323 647.707956,1.42721252 648.255518,1.77379628 C648.803079,2.12038004 649.22451,2.62281643 649.519824,3.2811205 C649.815138,3.93942457 649.962793,4.70538371 649.962793,5.57902089 L649.962793,6.14503651 Z M648.787695,5.5667162 C648.787695,4.5044062 648.574416,3.68922881 648.147852,3.12115956 C647.721287,2.55309032 647.124516,2.26905995 646.35752,2.26905995 C645.611031,2.26905995 645.023488,2.55309032 644.594873,3.12115956 C644.166258,3.68922881 643.945801,4.47774631 643.933496,5.48673573 L643.933496,6.14503651 C643.933496,7.17453385 644.149851,7.98355896 644.582568,8.5721361 C645.015285,9.1607133 645.611031,9.4549975 646.369824,9.4549975 C647.132719,9.4549975 647.723338,9.1771194 648.141699,8.6213549 C648.560061,8.0655904 648.775391,7.26886983 648.787695,6.23116933 L648.787695,5.5667162 Z M654.564746,8.765935 L657.124121,1.37697011 L658.416113,1.37697011 L655.093848,10.3347826 L654.047949,10.3347826 L650.731836,1.37697011 L652.017676,1.37697011 L654.564746,8.765935 Z M664.679199,6.19425526 L660.79707,6.19425526 L660.79707,9.3688646 L665.306738,9.3688646 L665.306738,10.3347826 L659.61582,10.3347826 L659.61582,1.37697011 L665.245215,1.37697011 L665.245215,2.34904042 L660.79707,2.34904042 L660.79707,5.2283373 L664.679199,5.2283373 L664.679199,6.19425526 Z M670.0625,6.71105214 L667.958398,6.71105214 L667.958398,10.3347826 L666.770996,10.3347826 L666.770996,1.37697011 L669.736426,1.37697011 C670.745415,1.37697011 671.521628,1.60665531 672.065088,2.06603261 C672.608548,2.52540991 672.880273,3.19395791 672.880273,4.07169667 C672.880273,4.62951196 672.729543,5.11554226 672.428076,5.52980214 C672.12661,5.94406202 671.707229,6.2537269 671.169922,6.45880605 L673.274023,10.2609545 L673.274023,10.3347826 L672.006641,10.3347826 L670.0625,6.71105214 Z M667.958398,5.74513417 L669.77334,5.74513417 C670.359866,5.74513417 670.826414,5.59337788 671.172998,5.28986073 C671.519582,4.98634359 671.692871,4.58029296 671.692871,4.07169667 C671.692871,3.51798297 671.527785,3.09347549 671.197607,2.79816151 C670.86743,2.50284754 670.390628,2.353142 669.767188,2.34904042 L667.958398,2.34904042 L667.958398,5.74513417 Z" id="Column-2-Label-Copy" fill="#333333" fill-rule="nonzero"></path>
                    <path d="M88.9789062,7.4923998 C88.8681635,8.4398655 88.5185088,9.1709617 87.9299316,9.6857103 C87.3413545,10.200459 86.5589893,10.4578295 85.5828125,10.4578295 C84.5246041,10.4578295 83.6766145,10.0784387 83.0388184,9.3196459 C82.4010222,8.560853 82.0821289,7.54572647 82.0821289,6.27423573 L82.0821289,5.41290761 C82.0821289,4.58028626 82.2308091,3.84816467 82.5281738,3.21652089 C82.8255386,2.58487711 83.2469699,2.09987219 83.7924805,1.76149159 C84.337991,1.42311099 84.9696253,1.25392323 85.6874023,1.25392323 C86.6389696,1.25392323 87.4018526,1.51949675 87.9760742,2.05065175 C88.5502958,2.58180675 88.8845698,3.31700447 88.9789062,4.25626698 L87.7915039,4.25626698 C87.6889643,3.54259154 87.4664568,3.02579983 87.1239746,2.70587636 C86.7814924,2.38595288 86.3026398,2.22599355 85.6874023,2.22599355 C84.9327111,2.22599355 84.3410666,2.50489701 83.9124512,3.0627123 C83.4838357,3.62052759 83.2695312,4.41417199 83.2695312,5.44366933 L83.2695312,6.3111498 C83.2695312,7.28322497 83.4725566,8.0563618 83.8786133,8.6305834 C84.28467,9.204805 84.8527307,9.4919115 85.5828125,9.4919115 C86.2390658,9.4919115 86.7425275,9.3432314 87.0932129,9.0458666 C87.4438982,8.7485018 87.6766596,8.2306847 87.7915039,7.4923998 L88.9789062,7.4923998 Z M97.4814453,6.14503651 C97.4814453,7.02277528 97.3337905,7.78873442 97.0384766,8.4429369 C96.7431626,9.0971394 96.3248074,9.5964996 95.7833984,9.9410326 C95.2419895,10.2855656 94.6103552,10.4578295 93.8884766,10.4578295 C93.1830043,10.4578295 92.5575223,10.2845402 92.0120117,9.9379564 C91.4665012,9.5913727 91.0430191,9.0971393 90.7415527,8.4552416 C90.4400864,7.81334385 90.2852539,7.06994308 90.2770508,6.22501698 L90.2770508,5.57902089 C90.2770508,4.71768846 90.4267563,3.95685622 90.7261719,3.29650136 C91.0255874,2.63614649 91.4490695,2.13063397 91.9966309,1.77994862 C92.5441922,1.42926328 93.1706996,1.25392323 93.8761719,1.25392323 C94.5939489,1.25392323 95.2266086,1.42721252 95.7741699,1.77379628 C96.3217313,2.12038004 96.7431626,2.62281643 97.0384766,3.2811205 C97.3337905,3.93942457 97.4814453,4.70538371 97.4814453,5.57902089 L97.4814453,6.14503651 Z M96.3063477,5.5667162 C96.3063477,4.5044062 96.0930685,3.68922881 95.6665039,3.12115956 C95.2399393,2.55309032 94.6431679,2.26905995 93.8761719,2.26905995 C93.1296838,2.26905995 92.5421408,2.55309032 92.1135254,3.12115956 C91.68491,3.68922881 91.4644532,4.47774631 91.4521484,5.48673573 L91.4521484,6.14503651 C91.4521484,7.17453385 91.6685037,7.98355896 92.1012207,8.5721361 C92.5339377,9.1607133 93.1296837,9.4549975 93.8884766,9.4549975 C94.651371,9.4549975 95.2419901,9.1771194 95.6603516,8.6213549 C96.078713,8.0655904 96.2940429,7.26886983 96.3063477,6.23116933 L96.3063477,5.5667162 Z M100.440723,9.3688646 L104.68584,9.3688646 L104.68584,10.3347826 L99.2533203,10.3347826 L99.2533203,1.37697011 L100.440723,1.37697011 L100.440723,9.3688646 Z M112.007129,1.37697011 L112.007129,7.46779042 C112.003027,8.3127165 111.737454,9.0038229 111.2104,9.5411303 C110.683347,10.0784376 109.968657,10.3798995 109.066309,10.4455248 L108.752539,10.4578295 C107.772261,10.4578295 106.990921,10.1932813 106.408496,9.6641771 C105.826071,9.1350729 105.530762,8.4070529 105.522559,7.48009511 L105.522559,1.37697011 L106.691504,1.37697011 L106.691504,7.44318105 C106.691504,8.0912312 106.86992,8.5946929 107.226758,8.9535814 C107.583596,9.31247 108.092184,9.4919115 108.752539,9.4919115 C109.421097,9.4919115 109.932762,9.3134953 110.287549,8.9566576 C110.642336,8.5998199 110.819727,8.0973835 110.819727,7.44933339 L110.819727,1.37697011 L112.007129,1.37697011 Z M115.39707,1.37697011 L118.325586,8.6859545 L121.254102,1.37697011 L122.786035,1.37697011 L122.786035,10.3347826 L121.604785,10.3347826 L121.604785,6.8464037 L121.715527,3.08116933 L118.774707,10.3347826 L117.870312,10.3347826 L114.935645,3.09962636 L115.052539,6.8464037 L115.052539,10.3347826 L113.871289,10.3347826 L113.871289,1.37697011 L115.39707,1.37697011 Z M131.756152,10.3347826 L130.56875,10.3347826 L126.059082,3.43185292 L126.059082,10.3347826 L124.87168,10.3347826 L124.87168,1.37697011 L126.059082,1.37697011 L130.581055,8.3106615 L130.581055,1.37697011 L131.756152,1.37697011 L131.756152,10.3347826 Z M143.857812,10.3347826 L142.67041,10.3347826 L142.67041,6.19425526 L138.15459,6.19425526 L138.15459,10.3347826 L136.97334,10.3347826 L136.97334,1.37697011 L138.15459,1.37697011 L138.15459,5.2283373 L142.67041,5.2283373 L142.67041,1.37697011 L143.857812,1.37697011 L143.857812,10.3347826 Z M151.019141,6.19425526 L147.137012,6.19425526 L147.137012,9.3688646 L151.64668,9.3688646 L151.64668,10.3347826 L145.955762,10.3347826 L145.955762,1.37697011 L151.585156,1.37697011 L151.585156,2.34904042 L147.137012,2.34904042 L147.137012,5.2283373 L151.019141,5.2283373 L151.019141,6.19425526 Z M158.063574,7.99689198 L154.310645,7.99689198 L153.467773,10.3347826 L152.249609,10.3347826 L155.670312,1.37697011 L156.703906,1.37697011 L160.130762,10.3347826 L158.91875,10.3347826 L158.063574,7.99689198 Z M154.66748,7.02482167 L157.712891,7.02482167 L156.187109,2.83507558 L154.66748,7.02482167 Z M161.336621,10.3347826 L161.336621,1.37697011 L163.865234,1.37697011 C164.644535,1.37697011 165.333591,1.54923401 165.932422,1.89376698 C166.531253,2.23829996 166.9937,2.72843177 167.319775,3.36417714 C167.645851,3.99992251 167.810937,4.72999333 167.815039,5.55441151 L167.815039,6.12657948 C167.815039,6.97150558 167.652004,7.71183021 167.325928,8.3475756 C166.999852,8.9833209 166.534329,9.471402 165.929346,9.8118334 C165.324362,10.1522648 164.619926,10.3265794 163.816016,10.3347826 L161.336621,10.3347826 Z M162.517871,2.34904042 L162.517871,9.3688646 L163.760645,9.3688646 C164.671196,9.3688646 165.379734,9.0858597 165.886279,8.5198412 C166.392825,7.95382275 166.646094,7.14787378 166.646094,6.10197011 L166.646094,5.57902089 C166.646094,4.5618283 166.40718,3.77126004 165.929346,3.20729237 C165.451511,2.64332471 164.773735,2.35724359 163.895996,2.34904042 L162.517871,2.34904042 Z M170.866602,10.3347826 L169.685352,10.3347826 L169.685352,1.37697011 L170.866602,1.37697011 L170.866602,10.3347826 Z M179.910547,10.3347826 L178.723145,10.3347826 L174.213477,3.43185292 L174.213477,10.3347826 L173.026074,10.3347826 L173.026074,1.37697011 L174.213477,1.37697011 L178.735449,8.3106615 L178.735449,1.37697011 L179.910547,1.37697011 L179.910547,10.3347826 Z M188.622266,9.159685 C188.318748,9.5944528 187.895266,9.9194983 187.351807,10.1348314 C186.808347,10.3501645 186.175687,10.4578295 185.453809,10.4578295 C184.723727,10.4578295 184.075686,10.286591 183.509668,9.9441088 C182.94365,9.6016266 182.505812,9.1145709 182.196143,8.4829271 C181.886473,7.85128336 181.727539,7.11916177 181.719336,6.28654042 L181.719336,5.50519276 C181.719336,4.15577196 182.034128,3.10988398 182.663721,2.36749745 C183.293314,1.62511093 184.178217,1.25392323 185.318457,1.25392323 C186.253618,1.25392323 187.006247,1.49283686 187.576367,1.97067128 C188.146487,2.4485057 188.495117,3.12628213 188.622266,4.00402089 L187.441016,4.00402089 C187.21953,2.8186634 186.514068,2.22599355 185.324609,2.22599355 C184.533004,2.22599355 183.933156,2.50387163 183.525049,3.05963612 C183.116941,3.61540062 182.91084,4.42032421 182.906738,5.47443105 L182.906738,6.20655995 C182.906738,7.21144779 183.136423,8.0102191 183.595801,8.6028978 C184.055178,9.1955766 184.676559,9.4919115 185.459961,9.4919115 C185.902932,9.4919115 186.290526,9.4426933 186.622754,9.3442553 C186.954982,9.2458173 187.229784,9.0797057 187.447168,8.8459154 L187.447168,6.83409901 L185.373828,6.83409901 L185.373828,5.87433339 L188.622266,5.87433339 L188.622266,9.159685 Z M197.155566,10.3347826 L196.01123,10.3347826 L196.01123,2.74894276 L193.716406,3.59181386 L193.716406,2.55822011 L196.977148,1.3339037 L197.155566,1.3339037 L197.155566,10.3347826 Z" id="Column-1-Label-Copy" fill="#333333" fill-rule="nonzero"></path>
                    <path d="M1.03397858,27.8043478 L864.855871,27.8043478" id="Line" stroke="#E0E0E0" stroke-width="0.9" stroke-linecap="square"></path>
                    <polygon id="Combined-Shape-Copy-5" fill="#000000" fill-rule="nonzero" points="684.41444 6.28494657 684.41444 3.43841124 685.948636 5.05530018 686.894712 4.05823042 683.745362 0.73913043 680.596011 4.05823042 681.542088 5.05530018 683.076284 3.43841124 683.076284 6.28494657 683.076284 9.124241 681.542088 7.66207824 680.596011 8.5637346 683.745362 11.5652174 686.894712 8.5637346 685.948636 7.66207824 684.41444 9.124241"></polygon>
                    <polygon id="Fill-1-Copy-3" fill="#000000" fill-rule="nonzero" points="527.177644 0.73913043 524.028293 4.04511145 524.97437 5.03824022 526.508566 3.42774214 526.508566 11.5652174 527.846722 11.5652174 527.846722 3.42774214 529.380918 5.03824022 530.326994 4.04511145"></polygon>
                    <polygon id="Fill-2-Copy" fill="#000000" fill-rule="nonzero" points="339.347156 0.73913043 339.347156 8.8766057 337.81296 7.2661076 336.866883 8.2592364 340.016234 11.5652174 343.165584 8.2592364 342.219508 7.2661076 340.685312 8.8766057 340.685312 0.73913043"></polygon>
                    <path d="M86.0820312,50.7342391 L89.4289062,59.0873641 L92.7757812,50.7342391 L94.5265625,50.7342391 L94.5265625,60.9717391 L93.1765625,60.9717391 L93.1765625,56.9850204 L93.303125,52.6818954 L89.9421875,60.9717391 L88.9085937,60.9717391 L85.5546875,52.7029891 L85.6882812,56.9850204 L85.6882812,60.9717391 L84.3382812,60.9717391 L84.3382812,50.7342391 L86.0820312,50.7342391 Z M99.1953125,59.0662704 L100.967187,53.3639266 L102.359375,53.3639266 L99.3007812,62.1459579 C98.8273414,63.4115892 98.0750052,64.0443954 97.04375,64.0443954 L96.7976562,64.0233016 L96.3125,63.9318954 L96.3125,62.8772079 L96.6640625,62.9053329 C97.1046897,62.9053329 97.4480456,62.8162713 97.6941406,62.6381454 C97.9402356,62.4600195 98.142968,62.1342415 98.3023437,61.6608016 L98.590625,60.8873641 L95.8765625,53.3639266 L97.296875,53.3639266 L99.1953125,59.0662704 Z M114.81875,57.7233016 C114.692187,58.8061195 114.292581,59.6416581 113.619922,60.2299423 C112.947262,60.8182264 112.053131,61.1123641 110.9375,61.1123641 C109.728119,61.1123641 108.758988,60.6787747 108.030078,59.8115829 C107.301168,58.944391 106.936719,57.7842464 106.936719,56.3311141 L106.936719,55.3467391 C106.936719,54.3951719 107.106639,53.5584615 107.446484,52.8365829 C107.78633,52.1147043 108.267966,51.5604129 108.891406,51.1736923 C109.514847,50.7869716 110.236715,50.5936141 111.057031,50.5936141 C112.144537,50.5936141 113.016403,50.8971267 113.672656,51.504161 C114.32891,52.1111953 114.710937,52.9514213 114.81875,54.0248641 L113.461719,54.0248641 C113.344531,53.2092351 113.090236,52.618616 112.698828,52.2529891 C112.30742,51.8873623 111.76016,51.7045516 111.057031,51.7045516 C110.194527,51.7045516 109.518362,52.0232984 109.028516,52.6608016 C108.538669,53.2983048 108.29375,54.205327 108.29375,55.3818954 L108.29375,56.3733016 C108.29375,57.4842447 108.525779,58.3678296 108.989844,59.0240829 C109.453909,59.6803362 110.103121,60.0084579 110.9375,60.0084579 C111.687504,60.0084579 112.262889,59.8385377 112.663672,59.4986923 C113.064455,59.1588468 113.330468,58.5670558 113.461719,57.7233016 L114.81875,57.7233016 Z M117.870312,60.9717391 L116.569531,60.9717391 L116.569531,50.1717391 L117.870312,50.1717391 L117.870312,60.9717391 Z M119.607031,57.0975204 C119.607031,56.3522042 119.753514,55.6818984 120.046484,55.0865829 C120.339455,54.4912674 120.747263,54.031897 121.269922,53.7084579 C121.792581,53.3850188 122.389059,53.2233016 123.059375,53.2233016 C124.095318,53.2233016 124.9332,53.5818918 125.573047,54.2990829 C126.212894,55.016274 126.532812,55.9701707 126.532812,57.1608016 L126.532812,57.2522079 C126.532812,57.9928366 126.391017,58.6572831 126.107422,59.2455673 C125.823827,59.8338514 125.418362,60.29205 124.891016,60.6201766 C124.363669,60.9483033 123.757816,61.1123641 123.073437,61.1123641 C122.042182,61.1123641 121.206644,60.753774 120.566797,60.0365829 C119.92695,59.3193918 119.607031,58.3701825 119.607031,57.1889266 L119.607031,57.0975204 Z M120.914844,57.2522079 C120.914844,58.0959621 121.110545,58.7732991 121.501953,59.2842391 C121.893361,59.7951792 122.417184,60.0506454 123.073437,60.0506454 C123.734378,60.0506454 124.259373,59.7916636 124.648438,59.2736923 C125.037502,58.7557209 125.232031,58.0303375 125.232031,57.0975204 C125.232031,56.2631412 125.033986,55.5869761 124.637891,55.0690048 C124.241795,54.5510334 123.715628,54.2920516 123.059375,54.2920516 C122.417184,54.2920516 121.899221,54.5475178 121.505469,55.0584579 C121.111717,55.5693979 120.914844,56.3006406 120.914844,57.2522079 Z M132.860937,60.2193954 C132.354685,60.8147109 131.611724,61.1123641 130.632031,61.1123641 C129.82109,61.1123641 129.203518,60.8768196 128.779297,60.4057235 C128.355076,59.9346274 128.140625,59.2373687 128.135937,58.3139266 L128.135937,53.3639266 L129.436719,53.3639266 L129.436719,58.2787704 C129.436719,59.4319011 129.905464,60.0084579 130.842969,60.0084579 C131.836724,60.0084579 132.497655,59.6381491 132.825781,58.8975204 L132.825781,53.3639266 L134.126562,53.3639266 L134.126562,60.9717391 L132.889062,60.9717391 L132.860937,60.2193954 Z M135.785937,57.1045516 C135.785937,55.9373583 136.062497,54.9986958 136.615625,54.288536 C137.168753,53.5783762 137.892964,53.2233016 138.788281,53.2233016 C139.678911,53.2233016 140.384372,53.5279861 140.904687,54.1373641 L140.904687,50.1717391 L142.205469,50.1717391 L142.205469,60.9717391 L141.010156,60.9717391 L140.946875,60.1561141 C140.42656,60.7936173 139.702348,61.1123641 138.774219,61.1123641 C137.892964,61.1123641 137.174612,60.7514302 136.619141,60.0295516 C136.063669,59.307673 135.785937,58.3654949 135.785937,57.2029891 L135.785937,57.1045516 Z M137.086719,57.2522079 C137.086719,58.1147122 137.264842,58.7897054 137.621094,59.2772079 C137.977346,59.7647103 138.469528,60.0084579 139.097656,60.0084579 C139.92266,60.0084579 140.524998,59.6381491 140.904687,58.8975204 L140.904687,55.4029891 C140.515623,54.685798 139.917973,54.3272079 139.111719,54.3272079 C138.474216,54.3272079 137.977346,54.5732992 137.621094,55.0654891 C137.264842,55.5576791 137.086719,56.2865781 137.086719,57.2522079 Z M151.008594,56.4084579 C149.850775,56.0756437 149.008206,55.6666634 148.480859,55.1815048 C147.953513,54.6963461 147.689844,54.0975239 147.689844,53.3850204 C147.689844,52.5787663 148.012106,51.9119761 148.656641,51.3846298 C149.301175,50.8572834 150.139057,50.5936141 151.170313,50.5936141 C151.873441,50.5936141 152.500388,50.7295503 153.051172,51.0014266 C153.601956,51.273303 154.028514,51.6482992 154.330859,52.1264266 C154.633205,52.604554 154.784375,53.127205 154.784375,53.6943954 L153.427344,53.6943954 C153.427344,53.0756423 153.230471,52.589319 152.836719,52.235411 C152.442967,51.881503 151.887504,51.7045516 151.170313,51.7045516 C150.504684,51.7045516 149.985549,51.8510345 149.612891,52.1440048 C149.240233,52.436975 149.053906,52.8436115 149.053906,53.3639266 C149.053906,53.7811162 149.230858,54.1338471 149.584766,54.4221298 C149.938674,54.7104124 150.541011,54.9740817 151.391797,55.2131454 C152.242582,55.4522091 152.908201,55.7158783 153.388672,56.004161 C153.869143,56.2924437 154.225389,56.6287685 154.457422,57.0131454 C154.689454,57.3975223 154.805469,57.8498615 154.805469,58.3701766 C154.805469,59.1998683 154.482034,59.8643148 153.835156,60.363536 C153.188278,60.8627573 152.323443,61.1123641 151.240625,61.1123641 C150.537496,61.1123641 149.881253,60.9775999 149.271875,60.7080673 C148.662497,60.4385347 148.19258,60.0693977 147.862109,59.6006454 C147.531639,59.131893 147.366406,58.5998671 147.366406,58.0045516 L148.723437,58.0045516 C148.723437,58.6233047 148.951951,59.1119717 149.408984,59.4705673 C149.866018,59.8291628 150.476559,60.0084579 151.240625,60.0084579 C151.953129,60.0084579 152.499217,59.8631468 152.878906,59.5725204 C153.258596,59.2818939 153.448438,58.8858041 153.448438,58.3842391 C153.448438,57.8826741 153.272658,57.4947874 152.921094,57.2205673 C152.569529,56.9463471 151.932036,56.6756467 151.008594,56.4084579 Z M159.488281,61.1123641 C158.457026,61.1123641 157.617972,60.7736956 156.971094,60.0963485 C156.324216,59.4190014 156.000781,58.5131511 156.000781,57.3787704 L156.000781,57.1397079 C156.000781,56.3850166 156.14492,55.7111952 156.433203,55.1182235 C156.721486,54.5252518 157.124607,54.0611939 157.642578,53.726036 C158.160549,53.3908781 158.721872,53.2233016 159.326563,53.2233016 C160.31563,53.2233016 161.084372,53.5490796 161.632812,54.2006454 C162.181253,54.8522111 162.455469,55.7850143 162.455469,56.9990829 L162.455469,57.5404891 L157.301562,57.5404891 C157.320313,58.2904929 157.539451,58.8963462 157.958984,59.3580673 C158.378518,59.8197883 158.911716,60.0506454 159.558594,60.0506454 C160.017971,60.0506454 160.40703,59.9568963 160.725781,59.7693954 C161.044533,59.5818944 161.323436,59.3334594 161.5625,59.0240829 L162.357031,59.6428329 C161.719528,60.6225253 160.763288,61.1123641 159.488281,61.1123641 Z M159.326563,54.2920516 C158.80156,54.2920516 158.360939,54.4830653 158.004687,54.8650985 C157.648436,55.2471317 157.428125,55.7826732 157.34375,56.4717391 L161.154688,56.4717391 L161.154688,56.3733016 C161.117187,55.7123608 160.939064,55.2002566 160.620313,54.8369735 C160.301561,54.4736904 159.870315,54.2920516 159.326563,54.2920516 Z M167.6375,54.5311141 C167.440624,54.4983015 167.227345,54.4818954 166.997656,54.4818954 C166.144527,54.4818954 165.565627,54.845173 165.260938,55.5717391 L165.260938,60.9717391 L163.960156,60.9717391 L163.960156,53.3639266 L165.225781,53.3639266 L165.246875,54.2428329 C165.67344,53.563142 166.278121,53.2233016 167.060938,53.2233016 C167.314064,53.2233016 167.506249,53.2561138 167.6375,53.3217391 L167.6375,54.5311141 Z M171.469531,59.2068954 L173.353906,53.3639266 L174.682813,53.3639266 L171.954687,60.9717391 L170.963281,60.9717391 L168.207031,53.3639266 L169.535937,53.3639266 L171.469531,59.2068954 Z M179,61.1123641 C177.968745,61.1123641 177.129691,60.7736956 176.482813,60.0963485 C175.835934,59.4190014 175.5125,58.5131511 175.5125,57.3787704 L175.5125,57.1397079 C175.5125,56.3850166 175.656639,55.7111952 175.944922,55.1182235 C176.233205,54.5252518 176.636326,54.0611939 177.154297,53.726036 C177.672268,53.3908781 178.233591,53.2233016 178.838281,53.2233016 C179.827349,53.2233016 180.596091,53.5490796 181.144531,54.2006454 C181.692971,54.8522111 181.967188,55.7850143 181.967188,56.9990829 L181.967188,57.5404891 L176.813281,57.5404891 C176.832031,58.2904929 177.05117,58.8963462 177.470703,59.3580673 C177.890236,59.8197883 178.423434,60.0506454 179.070312,60.0506454 C179.52969,60.0506454 179.918748,59.9568963 180.2375,59.7693954 C180.556252,59.5818944 180.835155,59.3334594 181.074219,59.0240829 L181.86875,59.6428329 C181.231247,60.6225253 180.275006,61.1123641 179,61.1123641 Z M178.838281,54.2920516 C178.313279,54.2920516 177.872658,54.4830653 177.516406,54.8650985 C177.160154,55.2471317 176.939844,55.7826732 176.855469,56.4717391 L180.666406,56.4717391 L180.666406,56.3733016 C180.628906,55.7123608 180.450783,55.2002566 180.132031,54.8369735 C179.81328,54.4736904 179.382034,54.2920516 178.838281,54.2920516 Z M187.149219,54.5311141 C186.952343,54.4983015 186.739064,54.4818954 186.509375,54.4818954 C185.656246,54.4818954 185.077345,54.845173 184.772656,55.5717391 L184.772656,60.9717391 L183.471875,60.9717391 L183.471875,53.3639266 L184.7375,53.3639266 L184.758594,54.2428329 C185.185158,53.563142 185.78984,53.2233016 186.572656,53.2233016 C186.825783,53.2233016 187.017968,53.2561138 187.149219,53.3217391 L187.149219,54.5311141 Z M191.051562,57.1537704 L187.620313,57.1537704 L187.620313,56.0920516 L191.051562,56.0920516 L191.051562,57.1537704 Z M198.603125,56.6053329 C198.603125,58.128778 198.342971,59.2607979 197.822656,60.0014266 C197.302341,60.7420553 196.489068,61.1123641 195.382812,61.1123641 C194.29062,61.1123641 193.482034,60.7502584 192.957031,60.026036 C192.432029,59.3018136 192.160156,58.2201838 192.141406,56.7811141 L192.141406,55.0443954 C192.141406,53.5397004 192.40156,52.4217428 192.921875,51.6904891 C193.44219,50.9592355 194.257807,50.5936141 195.36875,50.5936141 C196.470318,50.5936141 197.281247,50.946345 197.801562,51.6518173 C198.321878,52.3572895 198.589062,53.4459505 198.603125,54.9178329 L198.603125,56.6053329 Z M197.302344,54.8264266 C197.302344,53.7248586 197.147658,52.9221323 196.838281,52.4182235 C196.528905,51.9143147 196.039066,51.6623641 195.36875,51.6623641 C194.703122,51.6623641 194.21797,51.9131429 193.913281,52.4147079 C193.608592,52.9162729 193.451563,53.6873589 193.442187,54.7279891 L193.442187,56.8092391 C193.442187,57.9154947 193.602733,58.7322834 193.923828,59.2596298 C194.244923,59.7869761 194.731247,60.0506454 195.382812,60.0506454 C196.025003,60.0506454 196.501952,59.8022104 196.813672,59.3053329 C197.125392,58.8084554 197.288281,58.0256507 197.302344,56.9568954 L197.302344,54.8264266 Z M204.544531,60.9717391 L203.236719,60.9717391 L203.236719,52.3022079 L200.614062,53.2654891 L200.614062,52.0842391 L204.340625,50.6850204 L204.544531,50.6850204 L204.544531,60.9717391 Z" id="First-Column" fill="#0D74D1" fill-rule="nonzero"></path>
                    <path d="M265.688281,56.7639266 L265.688281,60.7717391 L264.338281,60.7717391 L264.338281,50.5342391 L268.114062,50.5342391 C269.234381,50.5342391 270.112106,50.8201738 270.747266,51.3920516 C271.382425,51.9639295 271.7,52.7209532 271.7,53.6631454 C271.7,54.6569003 271.389456,55.4221271 270.768359,55.9588485 C270.147263,56.4955699 269.257818,56.7639266 268.1,56.7639266 L265.688281,56.7639266 Z M265.688281,55.6600204 L268.114062,55.6600204 C268.835941,55.6600204 269.389061,55.4901002 269.773438,55.1502548 C270.157814,54.8104093 270.35,54.3193986 270.35,53.6772079 C270.35,53.0678298 270.157814,52.5803347 269.773438,52.2147079 C269.389061,51.8490811 268.861722,51.6592392 268.191406,51.6451766 L265.688281,51.6451766 L265.688281,55.6600204 Z M276.896094,54.3311141 C276.699218,54.2983015 276.485939,54.2818954 276.25625,54.2818954 C275.403121,54.2818954 274.82422,54.645173 274.519531,55.3717391 L274.519531,60.7717391 L273.21875,60.7717391 L273.21875,53.1639266 L274.484375,53.1639266 L274.505469,54.0428329 C274.932033,53.363142 275.536715,53.0233016 276.319531,53.0233016 C276.572658,53.0233016 276.764843,53.0561138 276.896094,53.1217391 L276.896094,54.3311141 Z M277.60625,56.8975204 C277.60625,56.1522042 277.752733,55.4818984 278.045703,54.8865829 C278.338673,54.2912674 278.746482,53.831897 279.269141,53.5084579 C279.791799,53.1850188 280.388278,53.0233016 281.058594,53.0233016 C282.094536,53.0233016 282.932419,53.3818918 283.572266,54.0990829 C284.212113,54.816274 284.532031,55.7701707 284.532031,56.9608016 L284.532031,57.0522079 C284.532031,57.7928366 284.390236,58.4572831 284.106641,59.0455673 C283.823045,59.6338514 283.417581,60.09205 282.890234,60.4201766 C282.362888,60.7483033 281.757035,60.9123641 281.072656,60.9123641 C280.041401,60.9123641 279.205863,60.553774 278.566016,59.8365829 C277.926169,59.1193918 277.60625,58.1701825 277.60625,56.9889266 L277.60625,56.8975204 Z M278.914062,57.0522079 C278.914062,57.8959621 279.109764,58.5732991 279.501172,59.0842391 C279.89258,59.5951792 280.416403,59.8506454 281.072656,59.8506454 C281.733597,59.8506454 282.258592,59.5916636 282.647656,59.0736923 C283.036721,58.5557209 283.23125,57.8303375 283.23125,56.8975204 C283.23125,56.0631412 283.033205,55.3869761 282.637109,54.8690048 C282.241014,54.3510334 281.714847,54.0920516 281.058594,54.0920516 C280.416403,54.0920516 279.898439,54.3475178 279.504687,54.8584579 C279.110936,55.3693979 278.914062,56.1006406 278.914062,57.0522079 Z M285.846875,56.9045516 C285.846875,55.7373583 286.123435,54.7986958 286.676562,54.088536 C287.22969,53.3783762 287.953902,53.0233016 288.849219,53.0233016 C289.739848,53.0233016 290.44531,53.3279861 290.965625,53.9373641 L290.965625,49.9717391 L292.266406,49.9717391 L292.266406,60.7717391 L291.071094,60.7717391 L291.007812,59.9561141 C290.487497,60.5936173 289.763286,60.9123641 288.835156,60.9123641 C287.953902,60.9123641 287.23555,60.5514302 286.680078,59.8295516 C286.124607,59.107673 285.846875,58.1654949 285.846875,57.0029891 L285.846875,56.9045516 Z M287.147656,57.0522079 C287.147656,57.9147122 287.325779,58.5897054 287.682031,59.0772079 C288.038283,59.5647103 288.530466,59.8084579 289.158594,59.8084579 C289.983598,59.8084579 290.585936,59.4381491 290.965625,58.6975204 L290.965625,55.2029891 C290.576561,54.485798 289.97891,54.1272079 289.172656,54.1272079 C288.535153,54.1272079 288.038283,54.3732992 287.682031,54.8654891 C287.325779,55.3576791 287.147656,56.0865781 287.147656,57.0522079 Z M298.98125,60.0193954 C298.474997,60.6147109 297.732036,60.9123641 296.752344,60.9123641 C295.941402,60.9123641 295.32383,60.6768196 294.899609,60.2057235 C294.475389,59.7346274 294.260938,59.0373687 294.25625,58.1139266 L294.25625,53.1639266 L295.557031,53.1639266 L295.557031,58.0787704 C295.557031,59.2319011 296.025777,59.8084579 296.963281,59.8084579 C297.957036,59.8084579 298.617967,59.4381491 298.946094,58.6975204 L298.946094,53.1639266 L300.246875,53.1639266 L300.246875,60.7717391 L299.009375,60.7717391 L298.98125,60.0193954 Z M305.274219,59.8506454 C305.738284,59.8506454 306.143748,59.7100218 306.490625,59.4287704 C306.837502,59.147519 307.029687,58.79596 307.067187,58.3740829 L308.297656,58.3740829 C308.274219,58.8100226 308.12422,59.2248622 307.847656,59.6186141 C307.571092,60.0123661 307.201955,60.3264255 306.740234,60.5608016 C306.278513,60.7951778 305.789846,60.9123641 305.274219,60.9123641 C304.238276,60.9123641 303.414456,60.5666645 302.802734,59.8752548 C302.191013,59.183845 301.885156,58.2381514 301.885156,57.0381454 L301.885156,56.8201766 C301.885156,56.0795479 302.021092,55.4209608 302.292969,54.8443954 C302.564845,54.26783 302.955076,53.8201782 303.463672,53.5014266 C303.972268,53.182675 304.573434,53.0233016 305.267187,53.0233016 C306.120317,53.0233016 306.829294,53.2787678 307.394141,53.7897079 C307.958987,54.3006479 308.260156,54.9639226 308.297656,55.7795516 L307.067187,55.7795516 C307.029687,55.2873617 306.843361,54.8830688 306.508203,54.566661 C306.173045,54.2502532 305.759377,54.0920516 305.267187,54.0920516 C304.606247,54.0920516 304.094142,54.3299399 303.730859,54.8057235 C303.367576,55.2815071 303.185937,55.9693909 303.185937,56.8693954 L303.185937,57.1154891 C303.185937,57.992056 303.366404,58.6670493 303.727344,59.1404891 C304.088283,59.613929 304.603903,59.8506454 305.274219,59.8506454 Z M311.525,51.3217391 L311.525,53.1639266 L312.945312,53.1639266 L312.945312,54.1693954 L311.525,54.1693954 L311.525,58.8873641 C311.525,59.1920532 311.588281,59.4205665 311.714844,59.572911 C311.841407,59.7252555 312.05703,59.8014266 312.361719,59.8014266 C312.511719,59.8014266 312.717967,59.7733019 312.980469,59.7170516 L312.980469,60.7717391 C312.63828,60.8654896 312.30547,60.9123641 311.982031,60.9123641 C311.400778,60.9123641 310.962501,60.7365846 310.667188,60.3850204 C310.371874,60.0334561 310.224219,59.5342424 310.224219,58.8873641 L310.224219,54.1693954 L308.839063,54.1693954 L308.839063,53.1639266 L310.224219,53.1639266 L310.224219,51.3217391 L311.525,51.3217391 Z M315.877344,60.7717391 L314.576562,60.7717391 L314.576562,53.1639266 L315.877344,53.1639266 L315.877344,60.7717391 Z M314.471094,51.1459579 C314.471094,50.9350193 314.535546,50.7568961 314.664453,50.6115829 C314.79336,50.4662697 314.984374,50.3936141 315.2375,50.3936141 C315.490626,50.3936141 315.682812,50.4662697 315.814062,50.6115829 C315.945313,50.7568961 316.010938,50.9350193 316.010938,51.1459579 C316.010938,51.3568964 315.945313,51.5326759 315.814062,51.6733016 C315.682812,51.8139273 315.490626,51.8842391 315.2375,51.8842391 C314.984374,51.8842391 314.79336,51.8139273 314.664453,51.6733016 C314.535546,51.5326759 314.471094,51.3568964 314.471094,51.1459579 Z M317.614062,56.8975204 C317.614062,56.1522042 317.760545,55.4818984 318.053516,54.8865829 C318.346486,54.2912674 318.754294,53.831897 319.276953,53.5084579 C319.799612,53.1850188 320.39609,53.0233016 321.066406,53.0233016 C322.102349,53.0233016 322.940231,53.3818918 323.580078,54.0990829 C324.219925,54.816274 324.539844,55.7701707 324.539844,56.9608016 L324.539844,57.0522079 C324.539844,57.7928366 324.398048,58.4572831 324.114453,59.0455673 C323.830858,59.6338514 323.425393,60.09205 322.898047,60.4201766 C322.3707,60.7483033 321.764847,60.9123641 321.080469,60.9123641 C320.049214,60.9123641 319.213675,60.553774 318.573828,59.8365829 C317.933981,59.1193918 317.614062,58.1701825 317.614062,56.9889266 L317.614062,56.8975204 Z M318.921875,57.0522079 C318.921875,57.8959621 319.117576,58.5732991 319.508984,59.0842391 C319.900393,59.5951792 320.424215,59.8506454 321.080469,59.8506454 C321.74141,59.8506454 322.266404,59.5916636 322.655469,59.0736923 C323.044533,58.5557209 323.239062,57.8303375 323.239062,56.8975204 C323.239062,56.0631412 323.041018,55.3869761 322.644922,54.8690048 C322.248826,54.3510334 321.72266,54.0920516 321.066406,54.0920516 C320.424216,54.0920516 319.906252,54.3475178 319.5125,54.8584579 C319.118748,55.3693979 318.921875,56.1006406 318.921875,57.0522079 Z M327.401563,53.1639266 L327.44375,54.1201766 C328.025003,53.388923 328.78437,53.0233016 329.721875,53.0233016 C331.329696,53.0233016 332.140625,53.9303238 332.154688,55.7443954 L332.154688,60.7717391 L330.853906,60.7717391 L330.853906,55.7373641 C330.849219,55.1889239 330.723829,54.7834592 330.477734,54.5209579 C330.231639,54.2584566 329.84844,54.1272079 329.328125,54.1272079 C328.906248,54.1272079 328.535939,54.2397068 328.217188,54.4647079 C327.898436,54.689709 327.650001,54.9850186 327.471875,55.3506454 L327.471875,60.7717391 L326.171094,60.7717391 L326.171094,53.1639266 L327.401563,53.1639266 Z" id="Second-Column" fill="#333333" fill-rule="nonzero"></path>
                    <path d="M451.86875,57.5233016 C451.742187,58.6061195 451.342581,59.4416581 450.669922,60.0299423 C449.997262,60.6182264 449.103131,60.9123641 447.9875,60.9123641 C446.778119,60.9123641 445.808988,60.4787747 445.080078,59.6115829 C444.351168,58.744391 443.986719,57.5842464 443.986719,56.1311141 L443.986719,55.1467391 C443.986719,54.1951719 444.156639,53.3584615 444.496484,52.6365829 C444.83633,51.9147043 445.317966,51.3604129 445.941406,50.9736923 C446.564847,50.5869716 447.286715,50.3936141 448.107031,50.3936141 C449.194537,50.3936141 450.066403,50.6971267 450.722656,51.304161 C451.37891,51.9111953 451.760937,52.7514213 451.86875,53.8248641 L450.511719,53.8248641 C450.394531,53.0092351 450.140236,52.418616 449.748828,52.0529891 C449.35742,51.6873623 448.81016,51.5045516 448.107031,51.5045516 C447.244527,51.5045516 446.568362,51.8232984 446.078516,52.4608016 C445.588669,53.0983048 445.34375,54.005327 445.34375,55.1818954 L445.34375,56.1733016 C445.34375,57.2842447 445.575779,58.1678296 446.039844,58.8240829 C446.503909,59.4803362 447.153121,59.8084579 447.9875,59.8084579 C448.737504,59.8084579 449.312889,59.6385377 449.713672,59.2986923 C450.114455,58.9588468 450.380468,58.3670558 450.511719,57.5233016 L451.86875,57.5233016 Z M454.807812,54.0850204 C455.384378,53.3772043 456.13437,53.0233016 457.057812,53.0233016 C458.665633,53.0233016 459.476562,53.9303238 459.490625,55.7443954 L459.490625,60.7717391 L458.189844,60.7717391 L458.189844,55.7373641 C458.185156,55.1889239 458.059767,54.7834592 457.813672,54.5209579 C457.567577,54.2584566 457.184378,54.1272079 456.664062,54.1272079 C456.242185,54.1272079 455.871877,54.2397068 455.553125,54.4647079 C455.234373,54.689709 454.985938,54.9850186 454.807812,55.3506454 L454.807812,60.7717391 L453.507031,60.7717391 L453.507031,49.9717391 L454.807812,49.9717391 L454.807812,54.0850204 Z M462.851562,60.7717391 L461.550781,60.7717391 L461.550781,53.1639266 L462.851562,53.1639266 L462.851562,60.7717391 Z M461.445312,51.1459579 C461.445312,50.9350193 461.509765,50.7568961 461.638672,50.6115829 C461.767579,50.4662697 461.958592,50.3936141 462.211719,50.3936141 C462.464845,50.3936141 462.657031,50.4662697 462.788281,50.6115829 C462.919532,50.7568961 462.985156,50.9350193 462.985156,51.1459579 C462.985156,51.3568964 462.919532,51.5326759 462.788281,51.6733016 C462.657031,51.8139273 462.464845,51.8842391 462.211719,51.8842391 C461.958592,51.8842391 461.767579,51.8139273 461.638672,51.6733016 C461.509765,51.5326759 461.445312,51.3568964 461.445312,51.1459579 Z M467.984375,59.8506454 C468.44844,59.8506454 468.853905,59.7100218 469.200781,59.4287704 C469.547658,59.147519 469.739844,58.79596 469.777344,58.3740829 L471.007812,58.3740829 C470.984375,58.8100226 470.834376,59.2248622 470.557812,59.6186141 C470.281249,60.0123661 469.912112,60.3264255 469.450391,60.5608016 C468.98867,60.7951778 468.500003,60.9123641 467.984375,60.9123641 C466.948432,60.9123641 466.124612,60.5666645 465.512891,59.8752548 C464.901169,59.183845 464.595312,58.2381514 464.595312,57.0381454 L464.595312,56.8201766 C464.595312,56.0795479 464.731249,55.4209608 465.003125,54.8443954 C465.275001,54.26783 465.665232,53.8201782 466.173828,53.5014266 C466.682424,53.182675 467.28359,53.0233016 467.977344,53.0233016 C468.830473,53.0233016 469.53945,53.2787678 470.104297,53.7897079 C470.669143,54.3006479 470.970312,54.9639226 471.007812,55.7795516 L469.777344,55.7795516 C469.739844,55.2873617 469.553517,54.8830688 469.218359,54.566661 C468.883201,54.2502532 468.469534,54.0920516 467.977344,54.0920516 C467.316403,54.0920516 466.804299,54.3299399 466.441016,54.8057235 C466.077733,55.2815071 465.896094,55.9693909 465.896094,56.8693954 L465.896094,57.1154891 C465.896094,57.992056 466.076561,58.6670493 466.4375,59.1404891 C466.798439,59.613929 467.314059,59.8506454 467.984375,59.8506454 Z M477.167187,60.7717391 C477.092187,60.6217384 477.03125,60.3545536 476.984375,59.9701766 C476.379684,60.5983048 475.657817,60.9123641 474.81875,60.9123641 C474.068746,60.9123641 473.453518,60.7002569 472.973047,60.276036 C472.492576,59.8518151 472.252344,59.3139299 472.252344,58.6623641 C472.252344,57.8701727 472.553513,57.2549444 473.155859,56.816661 C473.758206,56.3783776 474.605463,56.1592391 475.697656,56.1592391 L476.963281,56.1592391 L476.963281,55.5615829 C476.963281,55.1068931 476.827345,54.7447874 476.555469,54.4752548 C476.283592,54.2057222 475.882815,54.0709579 475.353125,54.0709579 C474.88906,54.0709579 474.500002,54.1881442 474.185937,54.4225204 C473.871873,54.6568966 473.714844,54.9404875 473.714844,55.2733016 L472.407031,55.2733016 C472.407031,54.8936122 472.541796,54.526819 472.811328,54.172911 C473.080861,53.819003 473.446482,53.5389277 473.908203,53.3326766 C474.369924,53.1264256 474.877341,53.0233016 475.430469,53.0233016 C476.307036,53.0233016 476.993748,53.2424401 477.490625,53.6807235 C477.987502,54.1190069 478.245312,54.7225165 478.264062,55.4912704 L478.264062,58.9928329 C478.264062,59.6912739 478.353124,60.2467371 478.53125,60.6592391 L478.53125,60.7717391 L477.167187,60.7717391 Z M475.008594,59.7803329 C475.416408,59.7803329 475.803123,59.6748652 476.16875,59.4639266 C476.534377,59.2529881 476.799218,58.9787721 476.963281,58.6412704 L476.963281,57.0803329 L475.94375,57.0803329 C474.349992,57.0803329 473.553125,57.5467345 473.553125,58.4795516 C473.553125,58.8873662 473.689061,59.206113 473.960938,59.4358016 C474.232814,59.6654903 474.582029,59.7803329 475.008594,59.7803329 Z M479.99375,56.9045516 C479.99375,55.7186082 480.267966,54.7752583 480.816406,54.0744735 C481.364846,53.3736888 482.091402,53.0233016 482.996094,53.0233016 C483.924223,53.0233016 484.648435,53.3514233 485.16875,54.0076766 L485.232031,53.1639266 L486.420312,53.1639266 L486.420312,60.5889266 C486.420312,61.5733066 486.128519,62.34908 485.544922,62.9162704 C484.961325,63.4834607 484.177349,63.7670516 483.192969,63.7670516 C482.644529,63.7670516 482.107815,63.6498653 481.582812,63.4154891 C481.05781,63.181113 480.657033,62.8600224 480.380469,62.4522079 L481.055469,61.6717391 C481.613284,62.3608051 482.295308,62.7053329 483.101562,62.7053329 C483.734378,62.7053329 484.227733,62.5272097 484.581641,62.1709579 C484.935549,61.8147061 485.1125,61.3131486 485.1125,60.6662704 L485.1125,60.0123641 C484.592185,60.6123671 483.882036,60.9123641 482.982031,60.9123641 C482.091402,60.9123641 481.370706,60.553774 480.819922,59.8365829 C480.269138,59.1193918 479.99375,58.1420578 479.99375,56.9045516 Z M481.301562,57.0522079 C481.301562,57.9100247 481.477342,58.5838461 481.828906,59.0736923 C482.180471,59.5635385 482.672653,59.8084579 483.305469,59.8084579 C484.125785,59.8084579 484.728123,59.4358054 485.1125,58.6904891 L485.1125,55.2170516 C484.714061,54.4904855 484.11641,54.1272079 483.319531,54.1272079 C482.686716,54.1272079 482.192189,54.3732992 481.835938,54.8654891 C481.479686,55.3576791 481.301562,56.0865781 481.301562,57.0522079 Z M488.0375,56.8975204 C488.0375,56.1522042 488.183983,55.4818984 488.476953,54.8865829 C488.769923,54.2912674 489.177732,53.831897 489.700391,53.5084579 C490.223049,53.1850188 490.819528,53.0233016 491.489844,53.0233016 C492.525786,53.0233016 493.363669,53.3818918 494.003516,54.0990829 C494.643363,54.816274 494.963281,55.7701707 494.963281,56.9608016 L494.963281,57.0522079 C494.963281,57.7928366 494.821486,58.4572831 494.537891,59.0455673 C494.254295,59.6338514 493.848831,60.09205 493.321484,60.4201766 C492.794138,60.7483033 492.188285,60.9123641 491.503906,60.9123641 C490.472651,60.9123641 489.637113,60.553774 488.997266,59.8365829 C488.357419,59.1193918 488.0375,58.1701825 488.0375,56.9889266 L488.0375,56.8975204 Z M489.345312,57.0522079 C489.345312,57.8959621 489.541014,58.5732991 489.932422,59.0842391 C490.32383,59.5951792 490.847653,59.8506454 491.503906,59.8506454 C492.164847,59.8506454 492.689842,59.5916636 493.078906,59.0736923 C493.467971,58.5557209 493.6625,57.8303375 493.6625,56.8975204 C493.6625,56.0631412 493.464455,55.3869761 493.068359,54.8690048 C492.672264,54.3510334 492.146097,54.0920516 491.489844,54.0920516 C490.847653,54.0920516 490.329689,54.3475178 489.935937,54.8584579 C489.542186,55.3693979 489.345312,56.1006406 489.345312,57.0522079 Z M500.110156,56.6162704 C500.110156,55.5568901 500.251952,54.5397128 500.535547,53.5647079 C500.819142,52.589703 501.242185,51.7037744 501.804688,50.9068954 C502.36719,50.1100164 502.950778,49.547522 503.555469,49.2193954 L503.822656,50.0772079 C503.138278,50.6022105 502.576955,51.403765 502.138672,52.4818954 C501.700388,53.5600258 501.460156,54.767045 501.417969,56.1029891 L501.410937,56.7006454 C501.410937,58.5100294 501.741403,60.0803262 502.402344,61.4115829 C502.800783,62.2084619 503.274216,62.8318931 503.822656,63.2818954 L503.555469,64.0764266 C502.932028,63.7295499 502.336722,63.1483057 501.769531,62.3326766 C500.663276,60.7389187 500.110156,58.833469 500.110156,56.6162704 Z M513.160156,55.9834579 C513.160156,56.9865879 512.991408,57.8619698 512.653906,58.6096298 C512.316405,59.3572897 511.838284,59.9279872 511.219531,60.3217391 C510.600778,60.7154911 509.87891,60.9123641 509.053906,60.9123641 C508.247652,60.9123641 507.532816,60.7143192 506.909375,60.3182235 C506.285934,59.9221278 505.801955,59.3572897 505.457422,58.6236923 C505.112889,57.8900948 504.935938,57.040494 504.926562,56.0748641 L504.926562,55.3365829 C504.926562,54.352203 505.097655,53.4826804 505.439844,52.7279891 C505.782033,51.9732979 506.266012,51.3955693 506.891797,50.994786 C507.517581,50.5940028 508.23359,50.3936141 509.039844,50.3936141 C509.86016,50.3936141 510.5832,50.591659 511.208984,50.9877548 C511.834769,51.3838505 512.316405,51.9580635 512.653906,52.710411 C512.991408,53.4627585 513.160156,54.3381404 513.160156,55.3365829 L513.160156,55.9834579 Z M511.817187,55.3225204 C511.817187,54.1084518 511.57344,53.1768205 511.085938,52.5275985 C510.598435,51.8783765 509.916411,51.5537704 509.039844,51.5537704 C508.186714,51.5537704 507.515237,51.8783765 507.025391,52.5275985 C506.535544,53.1768205 506.283594,54.0779834 506.269531,55.2311141 L506.269531,55.9834579 C506.269531,57.1600263 506.516794,58.0846264 507.011328,58.757286 C507.505862,59.4299456 508.186714,59.7662704 509.053906,59.7662704 C509.925786,59.7662704 510.600779,59.4486954 511.078906,58.813536 C511.557034,58.1783766 511.803125,57.2678388 511.817187,56.0818954 L511.817187,55.3225204 Z M518.939844,56.6303329 L516.535156,56.6303329 L516.535156,60.7717391 L515.178125,60.7717391 L515.178125,50.5342391 L518.567188,50.5342391 C519.720318,50.5342391 520.607419,50.7967365 521.228516,51.3217391 C521.849612,51.8467418 522.160156,52.6107966 522.160156,53.6139266 C522.160156,54.2514298 521.987892,54.806893 521.643359,55.2803329 C521.298826,55.7537727 520.819534,56.1076755 520.205469,56.3420516 L522.610156,60.6873641 L522.610156,60.7717391 L521.161719,60.7717391 L518.939844,56.6303329 Z M516.535156,55.5264266 L518.609375,55.5264266 C519.279691,55.5264266 519.812889,55.3529909 520.208984,55.0061141 C520.60508,54.6592374 520.803125,54.1951795 520.803125,53.6139266 C520.803125,52.981111 520.614455,52.4959596 520.237109,52.1584579 C519.859764,51.8209562 519.314847,51.6498642 518.602344,51.6451766 L516.535156,51.6451766 L516.535156,55.5264266 Z M524.051563,60.7717391 L524.051563,50.5342391 L526.941406,50.5342391 C527.832036,50.5342391 528.619528,50.7311122 529.303906,51.1248641 C529.988285,51.5186161 530.516795,52.0787667 530.889453,52.8053329 C531.262111,53.531899 531.450781,54.3662657 531.455469,55.3084579 L531.455469,55.9623641 C531.455469,56.927994 531.269142,57.7740792 530.896484,58.5006454 C530.523826,59.2272115 529.9918,59.7850184 529.300391,60.1740829 C528.608981,60.5631473 527.803911,60.7623641 526.885156,60.7717391 L524.051563,60.7717391 Z M525.401562,51.6451766 L525.401562,59.6678329 L526.821875,59.6678329 C527.862505,59.6678329 528.672263,59.3443986 529.251172,58.6975204 C529.830081,58.0506421 530.119531,57.1295576 530.119531,55.9342391 L530.119531,55.3365829 C530.119531,54.1740771 529.846487,53.2705705 529.300391,52.626036 C528.754294,51.9815015 527.979693,51.6545517 526.976562,51.6451766 L525.401562,51.6451766 Z M536.292969,56.6865829 C536.292969,57.7319006 536.155861,58.7338437 535.881641,59.6924423 C535.607421,60.6510408 535.187893,61.5357976 534.623047,62.3467391 C534.0582,63.1576807 533.466409,63.7342374 532.847656,64.0764266 L532.573437,63.2818954 C533.295316,62.7287676 533.875388,61.8697918 534.313672,60.7049423 C534.751955,59.5400927 534.975781,58.2475275 534.985156,56.8272079 L534.985156,56.6022079 C534.985156,55.617828 534.882032,54.7026027 534.675781,53.8565048 C534.46953,53.0104068 534.182424,52.2522112 533.814453,51.5818954 C533.446483,50.9115795 533.032815,50.3889285 532.573437,50.0139266 L532.847656,49.2193954 C533.466409,49.5615846 534.055857,50.1334539 534.616016,50.9350204 C535.176175,51.7365869 535.595702,52.6201718 535.874609,53.5858016 C536.153517,54.5514315 536.292969,55.5850149 536.292969,56.6865829 Z" id="Third-Column" fill="#333333" fill-rule="nonzero"></path>
                    <path d="M642.4125,60.7717391 L635.704687,60.7717391 L635.704687,59.8365829 L639.248437,55.8990829 C639.77344,55.3037674 640.135546,54.8197879 640.334766,54.4471298 C640.533985,54.0744716 640.633594,53.6889286 640.633594,53.2904891 C640.633594,52.7561115 640.471877,52.3178346 640.148437,51.9756454 C639.824998,51.6334562 639.393753,51.4623641 638.854687,51.4623641 C638.207809,51.4623641 637.70508,51.6463467 637.346484,52.0143173 C636.987889,52.3822878 636.808594,52.8943921 636.808594,53.5506454 L635.507812,53.5506454 C635.507812,52.6084532 635.811325,51.846742 636.418359,51.2654891 C637.025394,50.6842362 637.837495,50.3936141 638.854687,50.3936141 C639.806255,50.3936141 640.558591,50.643221 641.111719,51.1424423 C641.664847,51.6416635 641.941406,52.30611 641.941406,53.1358016 C641.941406,54.1436192 641.299225,55.3436072 640.014844,56.7358016 L637.272656,59.7100204 L642.4125,59.7100204 L642.4125,60.7717391 Z M644.388281,55.6389266 L644.908594,50.5342391 L650.153906,50.5342391 L650.153906,51.7365829 L646.0125,51.7365829 L645.703125,54.5279891 C646.20469,54.2326752 646.774216,54.0850204 647.411719,54.0850204 C648.344536,54.0850204 649.085154,54.3932204 649.633594,55.0096298 C650.182034,55.6260391 650.45625,56.4592339 650.45625,57.5092391 C650.45625,58.5639319 650.171487,59.394783 649.601953,60.0018173 C649.032419,60.6088515 648.236724,60.9123641 647.214844,60.9123641 C646.310152,60.9123641 645.571878,60.6615854 645,60.1600204 C644.428122,59.6584554 644.102344,58.9647123 644.022656,58.0787704 L645.253125,58.0787704 C645.332813,58.6647108 645.541405,59.1065033 645.878906,59.404161 C646.216408,59.7018187 646.661716,59.8506454 647.214844,59.8506454 C647.819534,59.8506454 648.294139,59.6443974 648.638672,59.2318954 C648.983205,58.8193933 649.155469,58.2498678 649.155469,57.5233016 C649.155469,56.8389232 648.969142,56.2893193 648.596484,55.8744735 C648.223826,55.4596277 647.728128,55.2522079 647.109375,55.2522079 C646.542185,55.2522079 646.096877,55.3764254 645.773437,55.6248641 L645.428906,55.9061141 L644.388281,55.6389266 Z M656.98125,50.5272079 L656.98125,51.6311141 L656.742187,51.6311141 C655.729682,51.6498642 654.92344,51.9498612 654.323437,52.5311141 C653.723434,53.112367 653.376563,53.9303276 653.282812,54.9850204 C653.821878,54.3662673 654.557808,54.0568954 655.490625,54.0568954 C656.381254,54.0568954 657.092575,54.3709547 657.624609,54.9990829 C658.156643,55.627211 658.422656,56.4381404 658.422656,57.4318954 C658.422656,58.4865882 658.13555,59.3303297 657.561328,59.9631454 C656.987107,60.595961 656.217192,60.9123641 655.251562,60.9123641 C654.27187,60.9123641 653.477347,60.536196 652.867969,59.7838485 C652.258591,59.031501 651.953906,58.0623701 651.953906,56.8764266 L651.953906,56.3772079 C651.953906,54.4928235 652.355855,53.0526035 653.159766,52.0565048 C653.963676,51.060406 655.160148,50.5506455 656.749219,50.5272079 L656.98125,50.5272079 Z M655.272656,55.1397079 C654.827342,55.1397079 654.417189,55.2733003 654.042187,55.5404891 C653.667186,55.807678 653.407032,56.1428309 653.261719,56.5459579 L653.261719,57.0240829 C653.261719,57.8678371 653.451561,58.5475178 653.83125,59.0631454 C654.210939,59.578773 654.684372,59.8365829 655.251562,59.8365829 C655.837503,59.8365829 656.298045,59.62096 656.633203,59.1897079 C656.968361,58.7584557 657.135937,58.1936176 657.135937,57.4951766 C657.135937,56.7920481 656.966017,56.2236944 656.626172,55.7900985 C656.286326,55.3565026 655.835159,55.1397079 655.272656,55.1397079 Z M671.423437,59.4287704 C671.076561,59.9256479 670.592581,60.2971285 669.971484,60.5432235 C669.350388,60.7893185 668.627348,60.9123641 667.802344,60.9123641 C666.967965,60.9123641 666.227347,60.716663 665.580469,60.3252548 C664.933591,59.9338465 664.433205,59.3772115 664.079297,58.6553329 C663.725389,57.9334543 663.54375,57.0967439 663.534375,56.1451766 L663.534375,55.2522079 C663.534375,53.7100127 663.894137,52.5147121 664.613672,51.6662704 C665.333207,50.8178286 666.344525,50.3936141 667.647656,50.3936141 C668.716412,50.3936141 669.576559,50.6666583 670.228125,51.2127548 C670.879691,51.7588512 671.278124,52.5334529 671.423437,53.5365829 L670.073437,53.5365829 C669.820311,52.1818886 669.014069,51.5045516 667.654687,51.5045516 C666.749995,51.5045516 666.064455,51.8221266 665.598047,52.457286 C665.131638,53.0924454 664.896094,54.0123581 664.891406,55.2170516 L664.891406,56.0537704 C664.891406,57.2022136 665.153904,58.1150951 665.678906,58.7924423 C666.203909,59.4697894 666.914058,59.8084579 667.809375,59.8084579 C668.315628,59.8084579 668.758592,59.7522084 669.138281,59.6397079 C669.517971,59.5272073 669.83203,59.3373655 670.080469,59.0701766 L670.080469,56.7709579 L667.710937,56.7709579 L667.710937,55.6740829 L671.423437,55.6740829 L671.423437,59.4287704 Z M673.673437,60.7717391 L673.673437,50.5342391 L677.020312,50.5342391 C678.131256,50.5342391 678.966794,50.7639243 679.526953,51.2233016 C680.087112,51.6826789 680.367187,52.3623596 680.367187,53.2623641 C680.367187,53.7404915 680.231251,54.1635342 679.959375,54.5315048 C679.687499,54.8994753 679.31719,55.1842381 678.848437,55.3858016 C679.401565,55.5404899 679.83867,55.8346276 680.159766,56.2682235 C680.480861,56.7018194 680.641406,57.2186111 680.641406,57.8186141 C680.641406,58.7373687 680.343753,59.4592365 679.748437,59.9842391 C679.153122,60.5092418 678.311724,60.7717391 677.224219,60.7717391 L673.673437,60.7717391 Z M675.023437,55.9834579 L675.023437,59.6678329 L677.252344,59.6678329 C677.880472,59.6678329 678.37617,59.5049439 678.739453,59.179161 C679.102736,58.8533781 679.284375,58.4045545 679.284375,57.8326766 C679.284375,56.599858 678.614069,55.9834579 677.273437,55.9834579 L675.023437,55.9834579 Z M675.023437,54.9006454 L677.0625,54.9006454 C677.653128,54.9006454 678.125389,54.7529906 678.479297,54.4576766 C678.833205,54.1623627 679.010156,53.7615854 679.010156,53.2553329 C679.010156,52.6928301 678.846095,52.2838498 678.517969,52.0283798 C678.189842,51.7729097 677.690628,51.6451766 677.020312,51.6451766 L675.023437,51.6451766 L675.023437,54.9006454 Z" id="Last-Column" fill="#333333" fill-rule="nonzero"></path>
                    <path d="M0.336270872,81.2693356 L864.158163,81.2693356" id="Stroke-11" stroke="#E0E0E0" stroke-width="0.9"></path>
                    <g id="Rectangle-Copy" transform="translate(18.000000, 48.000000)">
                        <g id="path-9-link" fill="#ECECEC">
                            <rect id="path-9" x="0.35" y="0.5717391" width="14.4" height="14.4"></rect>
                        </g>
                        <rect id="Rectangle-path" stroke="#979797" stroke-width="0.9" x="0.8" y="1.0217391" width="13.5" height="13.5"></rect>
                    </g>
                    <g id="Icons/Cog" transform="translate(51.250000, 48.000000)" fill-rule="nonzero" fill="#000000">
                        <g id="action-cog">
                            <g id="Layer_1">
                                <path d="M16,9.6 L16,6.4 L14.2,6.4 C14,5.6 13.7,5 13.3,4.3 L14.4,3.2 L12.8,1.6 L11.7,2.7 C11,2.3 10.3,2 9.6,1.8 L9.6,0 L6.4,0 L6.4,1.8 C5.7,2 5,2.3 4.3,2.7 L3.2,1.6 L1.6,3.2 L2.7,4.3 C2.3,5 2,5.6 1.8,6.4 L0,6.4 L0,9.6 L1.8,9.6 C2,10.3 2.3,11 2.7,11.6 L1.6,12.7 L3.2,14.3 L4.3,13.2 C5,13.7 5.7,14 6.4,14.2 L6.4,16 L9.6,16 L9.6,14.2 C10.3,14 11,13.7 11.7,13.3 L12.8,14.4 L14.4,12.8 L13.3,11.7 C13.7,11.1 14,10.4 14.2,9.6 L16,9.6 Z M8,11.2 C6.4,11.2 5,9.8 5,8 C5,6.2 6.3,4.8 8,4.8 C9.7,4.8 11,6.2 11,8 C11,9.8 9.6,11.2 8,11.2 Z" id="Shape"></path>
                            </g>
                        </g>
                    </g>
                </g>
            </g>
        </g>
    </g>
</svg>