<?xml version="1.0" encoding="UTF-8" standalone="no"?>
<svg width="317px" height="297px" viewBox="0 0 317 297" version="1.1" xmlns="http://www.w3.org/2000/svg" xmlns:xlink="http://www.w3.org/1999/xlink">
    <!-- Generator: Sketch 47.1 (45422) - http://www.bohemiancoding.com/sketch -->
    <title>filter-1</title>
    <desc>Created with Sketch.</desc>
    <defs>
        <rect id="path-1" x="0" y="0" width="116" height="32" rx="2"></rect>
        <rect id="path-2" x="0" y="37" width="116" height="32" rx="2"></rect>
        <rect id="path-3" x="0" y="0" width="99" height="32" rx="2"></rect>
        <rect id="path-4" x="0" y="36" width="99" height="32" rx="2"></rect>
    </defs>
    <g id="Page-1" stroke="none" stroke-width="1" fill="none" fill-rule="evenodd">
        <g id="filter-1">
            <g id="Group-23" transform="translate(65.000000, 71.000000)">
                <path d="M142.119141,46.5488281 L140.115234,46.5488281 L140.115234,50 L138.984375,50 L138.984375,41.46875 L141.808594,41.46875 C142.769536,41.46875 143.508786,41.6874978 144.026367,42.125 C144.543948,42.5625022 144.802734,43.1992146 144.802734,44.0351562 C144.802734,44.5664089 144.659181,45.0292949 144.37207,45.4238281 C144.08496,45.8183613 143.685549,46.1132803 143.173828,46.3085938 L145.177734,49.9296875 L145.177734,50 L143.970703,50 L142.119141,46.5488281 Z M140.115234,45.6289062 L141.84375,45.6289062 C142.402347,45.6289062 142.846678,45.4843764 143.176758,45.1953125 C143.506838,44.9062486 143.671875,44.5195337 143.671875,44.0351562 C143.671875,43.5078099 143.51465,43.103517 143.200195,42.8222656 C142.885741,42.5410142 142.431644,42.3984375 141.837891,42.3945312 L140.115234,42.3945312 L140.115234,45.6289062 Z M148.839844,50.1171875 C147.980464,50.1171875 147.281253,49.8349638 146.742188,49.2705078 C146.203122,48.7060519 145.933594,47.9511766 145.933594,47.0058594 L145.933594,46.8066406 C145.933594,46.1777312 146.05371,45.6162134 146.293945,45.1220703 C146.534181,44.6279272 146.870115,44.2412123 147.301758,43.9619141 C147.733401,43.6826158 148.201169,43.5429688 148.705078,43.5429688 C149.529301,43.5429688 150.16992,43.8144504 150.626953,44.3574219 C151.083987,44.9003933 151.3125,45.6777293 151.3125,46.6894531 L151.3125,47.140625 L147.017578,47.140625 C147.033203,47.7656281 147.215819,48.2705059 147.56543,48.6552734 C147.915041,49.040041 148.359372,49.2324219 148.898438,49.2324219 C149.281252,49.2324219 149.605467,49.1542977 149.871094,48.9980469 C150.13672,48.8417961 150.36914,48.6347669 150.568359,48.3769531 L151.230469,48.8925781 C150.699216,49.7089885 149.902349,50.1171875 148.839844,50.1171875 Z M148.705078,44.4335938 C148.267576,44.4335938 147.900392,44.5927718 147.603516,44.9111328 C147.306639,45.2294938 147.123047,45.6757784 147.052734,46.25 L150.228516,46.25 L150.228516,46.1679688 C150.197265,45.6171847 150.048829,45.1904312 149.783203,44.8876953 C149.517577,44.5849594 149.158205,44.4335938 148.705078,44.4335938 Z M152.308594,46.7773438 C152.308594,45.7890576 152.537107,45.0029326 152.994141,44.4189453 C153.451174,43.834958 154.056637,43.5429688 154.810547,43.5429688 C155.583988,43.5429688 156.187498,43.8164035 156.621094,44.3632812 L156.673828,43.6601562 L157.664062,43.6601562 L157.664062,49.8476562 C157.664062,50.6679729 157.420901,51.3144508 156.93457,51.7871094 C156.44824,52.259768 155.794926,52.4960938 154.974609,52.4960938 C154.517576,52.4960938 154.070315,52.3984385 153.632812,52.203125 C153.19531,52.0078115 152.861329,51.7402361 152.630859,51.4003906 L153.193359,50.75 C153.658205,51.3242216 154.226559,51.6113281 154.898438,51.6113281 C155.425784,51.6113281 155.836913,51.4628921 156.131836,51.1660156 C156.426759,50.8691391 156.574219,50.4511746 156.574219,49.9121094 L156.574219,49.3671875 C156.140623,49.86719 155.548832,50.1171875 154.798828,50.1171875 C154.056637,50.1171875 153.456057,49.8183624 152.99707,49.2207031 C152.538084,48.6230439 152.308594,47.8085989 152.308594,46.7773438 Z M153.398438,46.9003906 C153.398438,47.6152379 153.54492,48.1767558 153.837891,48.5849609 C154.130861,48.9931661 154.541013,49.1972656 155.068359,49.1972656 C155.751957,49.1972656 156.253905,48.8867219 156.574219,48.265625 L156.574219,45.3710938 C156.242186,44.765622 155.744144,44.4628906 155.080078,44.4628906 C154.552732,44.4628906 154.140626,44.6679667 153.84375,45.078125 C153.546874,45.4882833 153.398438,46.0956991 153.398438,46.9003906 Z M163.212891,49.3730469 C162.791014,49.8691431 162.171879,50.1171875 161.355469,50.1171875 C160.679684,50.1171875 160.165041,49.9209004 159.811523,49.5283203 C159.458006,49.1357402 159.279297,48.5546913 159.275391,47.7851562 L159.275391,43.6601562 L160.359375,43.6601562 L160.359375,47.7558594 C160.359375,48.7168017 160.749996,49.1972656 161.53125,49.1972656 C162.359379,49.1972656 162.910155,48.888675 163.183594,48.2714844 L163.183594,43.6601562 L164.267578,43.6601562 L164.267578,50 L163.236328,50 L163.212891,49.3730469 Z M167.091797,50 L166.007812,50 L166.007812,41 L167.091797,41 L167.091797,50 Z M172.740234,50 C172.677734,49.8749994 172.626953,49.6523454 172.587891,49.3320312 C172.083982,49.8554714 171.482425,50.1171875 170.783203,50.1171875 C170.1582,50.1171875 169.64551,49.9404315 169.245117,49.5869141 C168.844725,49.2333967 168.644531,48.785159 168.644531,48.2421875 C168.644531,47.5820279 168.895505,47.0693378 169.397461,46.7041016 C169.899417,46.3388654 170.605464,46.15625 171.515625,46.15625 L172.570312,46.15625 L172.570312,45.6582031 C172.570312,45.279295 172.457032,44.9775402 172.230469,44.7529297 C172.003905,44.5283192 171.669924,44.4160156 171.228516,44.4160156 C170.841795,44.4160156 170.517579,44.5136709 170.255859,44.7089844 C169.994139,44.9042979 169.863281,45.1406236 169.863281,45.4179688 L168.773438,45.4179688 C168.773438,45.1015609 168.885741,44.7958999 169.110352,44.5009766 C169.334962,44.2060532 169.639647,43.9726571 170.024414,43.8007812 C170.409182,43.6289054 170.832029,43.5429688 171.292969,43.5429688 C172.023441,43.5429688 172.595701,43.7255841 173.009766,44.0908203 C173.42383,44.4560565 173.638672,44.9589812 173.654297,45.5996094 L173.654297,48.5175781 C173.654297,49.0996123 173.728515,49.5624983 173.876953,49.90625 L173.876953,50 L172.740234,50 Z M170.941406,49.1738281 C171.281252,49.1738281 171.603514,49.0859384 171.908203,48.9101562 C172.212892,48.7343741 172.433593,48.5058608 172.570312,48.2246094 L172.570312,46.9238281 L171.720703,46.9238281 C170.392571,46.9238281 169.728516,47.3124961 169.728516,48.0898438 C169.728516,48.4296892 169.841796,48.6953115 170.068359,48.8867188 C170.294923,49.078126 170.585936,49.1738281 170.941406,49.1738281 Z M178.417969,44.6328125 C178.253905,44.6054686 178.076173,44.5917969 177.884766,44.5917969 C177.173825,44.5917969 176.691408,44.8945282 176.4375,45.5 L176.4375,50 L175.353516,50 L175.353516,43.6601562 L176.408203,43.6601562 L176.425781,44.3925781 C176.781252,43.826169 177.285153,43.5429688 177.9375,43.5429688 C178.148439,43.5429688 178.308593,43.5703122 178.417969,43.625 L178.417969,44.6328125 Z" id="Regular" fill="#EC407A"></path>
                <path d="M145.265625,95.2929688 C145.160156,96.195317 144.827151,96.8915991 144.266602,97.3818359 C143.706052,97.8720728 142.960942,98.1171875 142.03125,98.1171875 C141.023432,98.1171875 140.215823,97.755863 139.608398,97.0332031 C139.000974,96.3105433 138.697266,95.3437561 138.697266,94.1328125 L138.697266,93.3125 C138.697266,92.5195273 138.838866,91.8222686 139.12207,91.2207031 C139.405275,90.6191376 139.806638,90.1572282 140.326172,89.8349609 C140.845706,89.5126937 141.447262,89.3515625 142.130859,89.3515625 C143.037114,89.3515625 143.763669,89.6044897 144.310547,90.1103516 C144.857425,90.6162135 145.175781,91.3164018 145.265625,92.2109375 L144.134766,92.2109375 C144.037109,91.5312466 143.825197,91.039064 143.499023,90.734375 C143.17285,90.429686 142.7168,90.2773438 142.130859,90.2773438 C141.412106,90.2773438 140.848635,90.5429661 140.44043,91.0742188 C140.032225,91.6054714 139.828125,92.3613232 139.828125,93.3417969 L139.828125,94.1679688 C139.828125,95.0937546 140.021482,95.8300754 140.408203,96.3769531 C140.794924,96.9238309 141.335934,97.1972656 142.03125,97.1972656 C142.656253,97.1972656 143.135741,97.0556655 143.469727,96.7724609 C143.803713,96.4892564 144.02539,95.9960973 144.134766,95.2929688 L145.265625,95.2929688 Z M146.34375,94.7714844 C146.34375,94.1503875 146.465819,93.5917994 146.709961,93.0957031 C146.954103,92.5996069 147.293943,92.2167982 147.729492,91.9472656 C148.165041,91.677733 148.662107,91.5429688 149.220703,91.5429688 C150.083989,91.5429688 150.782224,91.8417939 151.31543,92.4394531 C151.848635,93.0371124 152.115234,93.8320263 152.115234,94.8242188 L152.115234,94.9003906 C152.115234,95.5175812 151.997071,96.0712866 151.760742,96.5615234 C151.524413,97.0517603 151.186526,97.4335924 150.74707,97.7070312 C150.307615,97.9804701 149.802737,98.1171875 149.232422,98.1171875 C148.373043,98.1171875 147.67676,97.8183624 147.143555,97.2207031 C146.610349,96.6230439 146.34375,95.8320362 146.34375,94.8476562 L146.34375,94.7714844 Z M147.433594,94.9003906 C147.433594,95.6035191 147.596678,96.1679666 147.922852,96.59375 C148.249025,97.0195334 148.685544,97.2324219 149.232422,97.2324219 C149.783206,97.2324219 150.220702,97.0166037 150.544922,96.5849609 C150.869142,96.1533182 151.03125,95.548832 151.03125,94.7714844 C151.03125,94.0761684 150.866213,93.5126975 150.536133,93.0810547 C150.206053,92.6494119 149.767581,92.4335938 149.220703,92.4335938 C148.685544,92.4335938 148.253908,92.6464822 147.925781,93.0722656 C147.597655,93.498049 147.433594,94.1074179 147.433594,94.9003906 Z M154.494141,91.6601562 L154.523438,92.3632812 C154.988284,91.8164035 155.61523,91.5429688 156.404297,91.5429688 C157.29102,91.5429688 157.89453,91.8828091 158.214844,92.5625 C158.425782,92.257811 158.700194,92.0117197 159.038086,91.8242188 C159.375978,91.6367178 159.775388,91.5429688 160.236328,91.5429688 C161.62696,91.5429688 162.333984,92.2792895 162.357422,93.7519531 L162.357422,98 L161.273438,98 L161.273438,93.8164062 C161.273438,93.363279 161.169923,93.0244152 160.962891,92.7998047 C160.755858,92.5751942 160.408206,92.4628906 159.919922,92.4628906 C159.517576,92.4628906 159.183595,92.5830066 158.917969,92.8232422 C158.652342,93.0634778 158.498047,93.3867167 158.455078,93.7929688 L158.455078,98 L157.365234,98 L157.365234,93.8457031 C157.365234,92.9238235 156.914067,92.4628906 156.011719,92.4628906 C155.300778,92.4628906 154.814454,92.765622 154.552734,93.3710938 L154.552734,98 L153.46875,98 L153.46875,91.6601562 L154.494141,91.6601562 Z M169.347656,94.9003906 C169.347656,95.8652392 169.126955,96.6425752 168.685547,97.2324219 C168.244138,97.8222686 167.646488,98.1171875 166.892578,98.1171875 C166.123043,98.1171875 165.51758,97.8730493 165.076172,97.3847656 L165.076172,100.4375 L163.992188,100.4375 L163.992188,91.6601562 L164.982422,91.6601562 L165.035156,92.3632812 C165.476565,91.8164035 166.08984,91.5429688 166.875,91.5429688 C167.636723,91.5429688 168.239256,91.8300753 168.682617,92.4042969 C169.125979,92.9785185 169.347656,93.7773386 169.347656,94.8007812 L169.347656,94.9003906 Z M168.263672,94.7773438 C168.263672,94.0624964 168.11133,93.4980489 167.806641,93.0839844 C167.501952,92.6699198 167.083987,92.4628906 166.552734,92.4628906 C165.896481,92.4628906 165.404299,92.7539033 165.076172,93.3359375 L165.076172,96.3652344 C165.400392,96.9433623 165.896481,97.2324219 166.564453,97.2324219 C167.083987,97.2324219 167.497069,97.0263692 167.803711,96.6142578 C168.110353,96.2021464 168.263672,95.5898478 168.263672,94.7773438 Z M174.638672,98 C174.576172,97.8749994 174.525391,97.6523454 174.486328,97.3320312 C173.982419,97.8554714 173.380863,98.1171875 172.681641,98.1171875 C172.056637,98.1171875 171.543947,97.9404315 171.143555,97.5869141 C170.743162,97.2333967 170.542969,96.785159 170.542969,96.2421875 C170.542969,95.5820279 170.793943,95.0693378 171.295898,94.7041016 C171.797854,94.3388654 172.503902,94.15625 173.414062,94.15625 L174.46875,94.15625 L174.46875,93.6582031 C174.46875,93.279295 174.35547,92.9775402 174.128906,92.7529297 C173.902343,92.5283192 173.568362,92.4160156 173.126953,92.4160156 C172.740232,92.4160156 172.416017,92.5136709 172.154297,92.7089844 C171.892577,92.9042979 171.761719,93.1406236 171.761719,93.4179688 L170.671875,93.4179688 C170.671875,93.1015609 170.784179,92.7958999 171.008789,92.5009766 C171.2334,92.2060532 171.538084,91.9726571 171.922852,91.8007812 C172.307619,91.6289054 172.730466,91.5429688 173.191406,91.5429688 C173.921879,91.5429688 174.494139,91.7255841 174.908203,92.0908203 C175.322268,92.4560565 175.537109,92.9589812 175.552734,93.5996094 L175.552734,96.5175781 C175.552734,97.0996123 175.626952,97.5624983 175.775391,97.90625 L175.775391,98 L174.638672,98 Z M172.839844,97.1738281 C173.179689,97.1738281 173.501952,97.0859384 173.806641,96.9101562 C174.11133,96.7343741 174.332031,96.5058608 174.46875,96.2246094 L174.46875,94.9238281 L173.619141,94.9238281 C172.291009,94.9238281 171.626953,95.3124961 171.626953,96.0898438 C171.626953,96.4296892 171.740233,96.6953115 171.966797,96.8867188 C172.193361,97.078126 172.484373,97.1738281 172.839844,97.1738281 Z M179.794922,97.2324219 C180.181643,97.2324219 180.51953,97.1152355 180.808594,96.8808594 C181.097658,96.6464832 181.257812,96.3535174 181.289062,96.0019531 L182.314453,96.0019531 C182.294922,96.3652362 182.169923,96.7109359 181.939453,97.0390625 C181.708983,97.3671891 181.401369,97.6289053 181.016602,97.8242188 C180.631834,98.0195322 180.224612,98.1171875 179.794922,98.1171875 C178.931636,98.1171875 178.24512,97.8291044 177.735352,97.2529297 C177.225583,96.6767549 176.970703,95.8886769 176.970703,94.8886719 L176.970703,94.7070312 C176.970703,94.0898407 177.083983,93.541018 177.310547,93.0605469 C177.537111,92.5800757 177.862303,92.2070326 178.286133,91.9414062 C178.709963,91.6757799 179.210935,91.5429688 179.789062,91.5429688 C180.500004,91.5429688 181.090818,91.7558572 181.561523,92.1816406 C182.032229,92.607424 182.283203,93.1601529 182.314453,93.8398438 L181.289062,93.8398438 C181.257812,93.4296854 181.10254,93.0927748 180.823242,92.8291016 C180.543944,92.5654284 180.199221,92.4335938 179.789062,92.4335938 C179.238278,92.4335938 178.811525,92.631834 178.508789,93.0283203 C178.206053,93.4248067 178.054688,93.9980431 178.054688,94.7480469 L178.054688,94.953125 C178.054688,95.6835974 178.205077,96.2460918 178.505859,96.640625 C178.806642,97.0351582 179.236325,97.2324219 179.794922,97.2324219 Z M185.003906,90.125 L185.003906,91.6601562 L186.1875,91.6601562 L186.1875,92.4980469 L185.003906,92.4980469 L185.003906,96.4296875 C185.003906,96.683595 185.05664,96.8740228 185.162109,97.0009766 C185.267579,97.1279303 185.447264,97.1914062 185.701172,97.1914062 C185.826172,97.1914062 185.998046,97.167969 186.216797,97.1210938 L186.216797,98 C185.931639,98.0781254 185.654298,98.1171875 185.384766,98.1171875 C184.900388,98.1171875 184.535157,97.9707046 184.289062,97.6777344 C184.042968,97.3847642 183.919922,96.9687527 183.919922,96.4296875 L183.919922,92.4980469 L182.765625,92.4980469 L182.765625,91.6601562 L183.919922,91.6601562 L183.919922,90.125 L185.003906,90.125 Z" id="Compact" fill="#EC407A"></path>
                <polyline id="Stroke-8" stroke="#EC3F7A" points="111 52 123.637404 52 137 52"></polyline>
                <g id="Group-14">
                    <g id="Button/Standard/Primary">
                        <g id="Group-17">
                            <g id="Rectangle-2">
                                <use fill-opacity="0" fill="#FFFFFF" fill-rule="evenodd" xlink:href="#path-1"></use>
                                <rect stroke="#0C7481" stroke-width="1" x="0.5" y="0.5" width="115" height="31" rx="2"></rect>
                            </g>
                            <g id="Rectangle-2">
                                <use fill-opacity="0" fill="#FFFFFF" fill-rule="evenodd" xlink:href="#path-2"></use>
                                <rect stroke="#0C7481" stroke-width="1" x="0.5" y="37.5" width="115" height="31" rx="2"></rect>
                            </g>
                            <path d="M24.8380016,10.92925 L20.6359492,15.13075 L20.6359492,21.45475 C20.6359492,21.67675 20.5002056,21.8725 20.3044648,21.958 C20.236218,21.9835 20.1589716,22 20.0907248,22 C19.9459816,22 19.809488,21.949 19.7074928,21.838 L17.5258454,19.65625 C17.4231002,19.55425 17.363853,19.41775 17.363853,19.273 L17.363853,15.13075 L13.1625506,10.92925 C13.0005582,10.7755 12.9578102,10.537 13.0425562,10.333 C13.1280522,10.1365 13.324543,10 13.5457826,10 L24.4547696,10 C24.6760092,10 24.8725,10.1365 24.957246,10.333 C25.041992,10.537 24.999994,10.7755 24.8380016,10.92925" id="Fill-1-Copy-2" fill="#007481"></path>
                            <path d="M24.8380016,47.92925 L20.6359492,52.13075 L20.6359492,58.45475 C20.6359492,58.67675 20.5002056,58.8725 20.3044648,58.958 C20.236218,58.9835 20.1589716,59 20.0907248,59 C19.9459816,59 19.809488,58.949 19.7074928,58.838 L17.5258454,56.65625 C17.4231002,56.55425 17.363853,56.41775 17.363853,56.273 L17.363853,52.13075 L13.1625506,47.92925 C13.0005582,47.7755 12.9578102,47.537 13.0425562,47.333 C13.1280522,47.1365 13.324543,47 13.5457826,47 L24.4547696,47 C24.6760092,47 24.8725,47.1365 24.957246,47.333 C25.041992,47.537 24.999994,47.7755 24.8380016,47.92925" id="Fill-1-Copy-13" fill="#007481"></path>
                            <polygon id="Path-2-Copy-8" fill="#007481" fill-rule="nonzero" points="93.0709137 12.0753054 92 13.1611545 97.5693368 20 103.2 13.0858491 102.129086 12 97.5693368 17.5991265"></polygon>
                            <polygon id="Path-2-Copy-17" fill="#007481" fill-rule="nonzero" points="93.0709137 49.0753054 92 50.1611545 97.5693368 57 103.2 50.0858491 102.129086 49 97.5693368 54.5991265"></polygon>
                            <g id="specs-/-spacing-/-internal-/-V-12px" transform="translate(0.000000, 1.000000)">
                                <rect id="Rectangle-5-Copy-10" fill="#F8CC96" fill-rule="evenodd" x="1" y="0" width="12" height="30"></rect>
                                <text id="12-copy-4" font-family="Roboto-Regular, Roboto" font-size="12" font-weight="normal" fill="#333333">
                                    <tspan x="0" y="18">12</tspan>
                                </text>
                            </g>
                            <g id="specs-/-spacing-/-internal-/-V-12px" transform="translate(24.000000, 1.000000)">
                                <rect id="Rectangle-5-Copy-10" fill="#F8CC96" fill-rule="evenodd" x="1" y="0" width="12" height="30"></rect>
                                <text id="12-copy-4" font-family="Roboto-Regular, Roboto" font-size="12" font-weight="normal" fill="#333333">
                                    <tspan x="0" y="18">12</tspan>
                                </text>
                            </g>
                            <g id="specs-/-spacing-/-internal-/-V-12px" transform="translate(102.000000, 1.000000)">
                                <rect id="Rectangle-5-Copy-10" fill="#F8CC96" fill-rule="evenodd" x="1" y="0" width="12" height="30"></rect>
                                <text id="12-copy-4" font-family="Roboto-Regular, Roboto" font-size="12" font-weight="normal" fill="#333333">
                                    <tspan x="0" y="18">12</tspan>
                                </text>
                            </g>
                            <g id="specs-/-spacing-/-internal-/-V-12px" transform="translate(78.000000, 1.000000)">
                                <rect id="Rectangle-5-Copy-10" fill="#F8CC96" fill-rule="evenodd" x="1" y="0" width="12" height="30"></rect>
                                <text id="12-copy-4" font-family="Roboto-Regular, Roboto" font-size="12" font-weight="normal" fill="#333333">
                                    <tspan x="0" y="18">12</tspan>
                                </text>
                            </g>
                            <path d="M42.7651367,16.7822266 L38.7592773,16.7822266 L38.7592773,21 L37.0297852,21 L37.0297852,11.046875 L43.3530273,11.046875 L43.3530273,12.4414062 L38.7592773,12.4414062 L38.7592773,15.4013672 L42.7651367,15.4013672 L42.7651367,16.7822266 Z M46.5454102,21 L44.8227539,21 L44.8227539,11.046875 L46.5454102,11.046875 L46.5454102,21 Z M50.4008789,19.6191406 L54.9194336,19.6191406 L54.9194336,21 L48.6713867,21 L48.6713867,11.046875 L50.4008789,11.046875 L50.4008789,19.6191406 Z M62.0356445,12.4414062 L58.9321289,12.4414062 L58.9321289,21 L57.2163086,21 L57.2163086,12.4414062 L54.1401367,12.4414062 L54.1401367,11.046875 L62.0356445,11.046875 L62.0356445,12.4414062 Z M69.1586914,16.5566406 L65.0708008,16.5566406 L65.0708008,19.6191406 L69.8491211,19.6191406 L69.8491211,21 L63.3413086,21 L63.3413086,11.046875 L69.8012695,11.046875 L69.8012695,12.4414062 L65.0708008,12.4414062 L65.0708008,15.1894531 L69.1586914,15.1894531 L69.1586914,16.5566406 Z M74.9145508,17.1650391 L72.9868164,17.1650391 L72.9868164,21 L71.2573242,21 L71.2573242,11.046875 L74.7573242,11.046875 C75.9057675,11.046875 76.7921518,11.3043594 77.4165039,11.8193359 C78.040856,12.3343125 78.3530273,13.0794222 78.3530273,14.0546875 C78.3530273,14.7200554 78.1923844,15.2771787 77.8710938,15.7260742 C77.5498031,16.1749697 77.1020537,16.5201811 76.527832,16.7617188 L78.7631836,20.9111328 L78.7631836,21 L76.9106445,21 L74.9145508,17.1650391 Z M72.9868164,15.7773438 L74.7641602,15.7773438 C75.3474964,15.7773438 75.803221,15.6303726 76.1313477,15.3364258 C76.4594743,15.042479 76.6235352,14.640302 76.6235352,14.1298828 C76.6235352,13.596677 76.4720067,13.1842462 76.1689453,12.8925781 C75.8658839,12.60091 75.4135772,12.4505209 74.8120117,12.4414062 L72.9868164,12.4414062 L72.9868164,15.7773438 Z" id="FILTER" fill="#007481"></path>
                            <path d="M42.7651367,53.7822266 L38.7592773,53.7822266 L38.7592773,58 L37.0297852,58 L37.0297852,48.046875 L43.3530273,48.046875 L43.3530273,49.4414062 L38.7592773,49.4414062 L38.7592773,52.4013672 L42.7651367,52.4013672 L42.7651367,53.7822266 Z M46.5454102,58 L44.8227539,58 L44.8227539,48.046875 L46.5454102,48.046875 L46.5454102,58 Z M50.4008789,56.6191406 L54.9194336,56.6191406 L54.9194336,58 L48.6713867,58 L48.6713867,48.046875 L50.4008789,48.046875 L50.4008789,56.6191406 Z M62.0356445,49.4414062 L58.9321289,49.4414062 L58.9321289,58 L57.2163086,58 L57.2163086,49.4414062 L54.1401367,49.4414062 L54.1401367,48.046875 L62.0356445,48.046875 L62.0356445,49.4414062 Z M69.1586914,53.5566406 L65.0708008,53.5566406 L65.0708008,56.6191406 L69.8491211,56.6191406 L69.8491211,58 L63.3413086,58 L63.3413086,48.046875 L69.8012695,48.046875 L69.8012695,49.4414062 L65.0708008,49.4414062 L65.0708008,52.1894531 L69.1586914,52.1894531 L69.1586914,53.5566406 Z M74.9145508,54.1650391 L72.9868164,54.1650391 L72.9868164,58 L71.2573242,58 L71.2573242,48.046875 L74.7573242,48.046875 C75.9057675,48.046875 76.7921518,48.3043594 77.4165039,48.8193359 C78.040856,49.3343125 78.3530273,50.0794222 78.3530273,51.0546875 C78.3530273,51.7200554 78.1923844,52.2771787 77.8710938,52.7260742 C77.5498031,53.1749697 77.1020537,53.5201811 76.527832,53.7617188 L78.7631836,57.9111328 L78.7631836,58 L76.9106445,58 L74.9145508,54.1650391 Z M72.9868164,52.7773438 L74.7641602,52.7773438 C75.3474964,52.7773438 75.803221,52.6303726 76.1313477,52.3364258 C76.4594743,52.042479 76.6235352,51.640302 76.6235352,51.1298828 C76.6235352,50.596677 76.4720067,50.1842463 76.1689453,49.8925781 C75.8658839,49.60091 75.4135772,49.4505209 74.8120117,49.4414062 L72.9868164,49.4414062 L72.9868164,52.7773438 Z" id="FILTER" fill="#007481"></path>
                        </g>
                    </g>
                    <g id="Button/Standard/Primary-Copy-11" transform="translate(0.000000, 37.000000)"></g>
                    <g id="Button/Standard/Primary-Copy-8" transform="translate(17.000000, 88.000000)">
                        <g id="Group-16">
                            <g id="Rectangle-2">
                                <use fill-opacity="0" fill="#FFFFFF" fill-rule="evenodd" xlink:href="#path-3"></use>
                                <rect stroke="#0C7481" stroke-width="1" x="0.5" y="0.5" width="98" height="31" rx="2"></rect>
                            </g>
                            <g id="Rectangle-2">
                                <use fill-opacity="0" fill="#FFFFFF" fill-rule="evenodd" xlink:href="#path-4"></use>
                                <rect stroke="#0C7481" stroke-width="1" x="0.5" y="36.5" width="98" height="31" rx="2"></rect>
                            </g>
                            <path d="M20.8380016,10.92925 L16.6359492,15.13075 L16.6359492,21.45475 C16.6359492,21.67675 16.5002056,21.8725 16.3044648,21.958 C16.236218,21.9835 16.1589716,22 16.0907248,22 C15.9459816,22 15.809488,21.949 15.7074928,21.838 L13.5258454,19.65625 C13.4231002,19.55425 13.363853,19.41775 13.363853,19.273 L13.363853,15.13075 L9.16255058,10.92925 C9.0005582,10.7755 8.95781021,10.537 9.04255623,10.333 C9.12805221,10.1365 9.32454297,10 9.54578256,10 L20.4547696,10 C20.6760092,10 20.8725,10.1365 20.957246,10.333 C21.041992,10.537 20.999994,10.7755 20.8380016,10.92925" id="Fill-1-Copy-10" fill="#007481"></path>
                            <path d="M20.8380016,46.92925 L16.6359492,51.13075 L16.6359492,57.45475 C16.6359492,57.67675 16.5002056,57.8725 16.3044648,57.958 C16.236218,57.9835 16.1589716,58 16.0907248,58 C15.9459816,58 15.809488,57.949 15.7074928,57.838 L13.5258454,55.65625 C13.4231002,55.55425 13.363853,55.41775 13.363853,55.273 L13.363853,51.13075 L9.16255058,46.92925 C9.0005582,46.7755 8.95781021,46.537 9.04255623,46.333 C9.12805221,46.1365 9.32454297,46 9.54578256,46 L20.4547696,46 C20.6760092,46 20.8725,46.1365 20.957246,46.333 C21.041992,46.537 20.999994,46.7755 20.8380016,46.92925" id="Fill-1-Copy-12" fill="#007481"></path>
                            <polygon id="Path-2-Copy-14" fill="#007481" fill-rule="nonzero" points="80.0709137 12.0753054 79 13.1611545 84.5693368 20 90.2 13.0858491 89.1290863 12 84.5693368 17.5991265"></polygon>
                            <polygon id="Path-2-Copy-16" fill="#007481" fill-rule="nonzero" points="80.0709137 48.0753054 79 49.1611545 84.5693368 56 90.2 49.0858491 89.1290863 48 84.5693368 53.5991265"></polygon>
                            <path d="M34.7651367,16.7822266 L30.7592773,16.7822266 L30.7592773,21 L29.0297852,21 L29.0297852,11.046875 L35.3530273,11.046875 L35.3530273,12.4414062 L30.7592773,12.4414062 L30.7592773,15.4013672 L34.7651367,15.4013672 L34.7651367,16.7822266 Z M38.5454102,21 L36.8227539,21 L36.8227539,11.046875 L38.5454102,11.046875 L38.5454102,21 Z M42.4008789,19.6191406 L46.9194336,19.6191406 L46.9194336,21 L40.6713867,21 L40.6713867,11.046875 L42.4008789,11.046875 L42.4008789,19.6191406 Z M54.0356445,12.4414062 L50.9321289,12.4414062 L50.9321289,21 L49.2163086,21 L49.2163086,12.4414062 L46.1401367,12.4414062 L46.1401367,11.046875 L54.0356445,11.046875 L54.0356445,12.4414062 Z M61.1586914,16.5566406 L57.0708008,16.5566406 L57.0708008,19.6191406 L61.8491211,19.6191406 L61.8491211,21 L55.3413086,21 L55.3413086,11.046875 L61.8012695,11.046875 L61.8012695,12.4414062 L57.0708008,12.4414062 L57.0708008,15.1894531 L61.1586914,15.1894531 L61.1586914,16.5566406 Z M66.9145508,17.1650391 L64.9868164,17.1650391 L64.9868164,21 L63.2573242,21 L63.2573242,11.046875 L66.7573242,11.046875 C67.9057675,11.046875 68.7921518,11.3043594 69.4165039,11.8193359 C70.040856,12.3343125 70.3530273,13.0794222 70.3530273,14.0546875 C70.3530273,14.7200554 70.1923844,15.2771787 69.8710938,15.7260742 C69.5498031,16.1749697 69.1020537,16.5201811 68.527832,16.7617188 L70.7631836,20.9111328 L70.7631836,21 L68.9106445,21 L66.9145508,17.1650391 Z M64.9868164,15.7773438 L66.7641602,15.7773438 C67.3474964,15.7773438 67.803221,15.6303726 68.1313477,15.3364258 C68.4594743,15.042479 68.6235352,14.640302 68.6235352,14.1298828 C68.6235352,13.596677 68.4720067,13.1842462 68.1689453,12.8925781 C67.8658839,12.60091 67.4135772,12.4505209 66.8120117,12.4414062 L64.9868164,12.4414062 L64.9868164,15.7773438 Z" id="FILTER" fill="#007481"></path>
                            <path d="M34.7651367,52.7822266 L30.7592773,52.7822266 L30.7592773,57 L29.0297852,57 L29.0297852,47.046875 L35.3530273,47.046875 L35.3530273,48.4414062 L30.7592773,48.4414062 L30.7592773,51.4013672 L34.7651367,51.4013672 L34.7651367,52.7822266 Z M38.5454102,57 L36.8227539,57 L36.8227539,47.046875 L38.5454102,47.046875 L38.5454102,57 Z M42.4008789,55.6191406 L46.9194336,55.6191406 L46.9194336,57 L40.6713867,57 L40.6713867,47.046875 L42.4008789,47.046875 L42.4008789,55.6191406 Z M54.0356445,48.4414062 L50.9321289,48.4414062 L50.9321289,57 L49.2163086,57 L49.2163086,48.4414062 L46.1401367,48.4414062 L46.1401367,47.046875 L54.0356445,47.046875 L54.0356445,48.4414062 Z M61.1586914,52.5566406 L57.0708008,52.5566406 L57.0708008,55.6191406 L61.8491211,55.6191406 L61.8491211,57 L55.3413086,57 L55.3413086,47.046875 L61.8012695,47.046875 L61.8012695,48.4414062 L57.0708008,48.4414062 L57.0708008,51.1894531 L61.1586914,51.1894531 L61.1586914,52.5566406 Z M66.9145508,53.1650391 L64.9868164,53.1650391 L64.9868164,57 L63.2573242,57 L63.2573242,47.046875 L66.7573242,47.046875 C67.9057675,47.046875 68.7921518,47.3043594 69.4165039,47.8193359 C70.040856,48.3343125 70.3530273,49.0794222 70.3530273,50.0546875 C70.3530273,50.7200554 70.1923844,51.2771787 69.8710938,51.7260742 C69.5498031,52.1749697 69.1020537,52.5201811 68.527832,52.7617188 L70.7631836,56.9111328 L70.7631836,57 L68.9106445,57 L66.9145508,53.1650391 Z M64.9868164,51.7773438 L66.7641602,51.7773438 C67.3474964,51.7773438 67.803221,51.6303726 68.1313477,51.3364258 C68.4594743,51.042479 68.6235352,50.640302 68.6235352,50.1298828 C68.6235352,49.596677 68.4720067,49.1842463 68.1689453,48.8925781 C67.8658839,48.60091 67.4135772,48.4505209 66.8120117,48.4414062 L64.9868164,48.4414062 L64.9868164,51.7773438 Z" id="FILTER" fill="#007481"></path>
                            <g id="specs-/-spacing-/-internal-/-V-08px" transform="translate(1.000000, 1.000000)">
                                <rect id="Rectangle-5-Copy-9" fill="#F8CC96" fill-rule="evenodd" x="0" y="0" width="8" height="30"></rect>
                                <text id="8-copy-10" font-family="Roboto-Regular, Roboto" font-size="12" font-weight="normal" fill="#333333">
                                    <tspan x="1" y="18">8</tspan>
                                </text>
                            </g>
                            <g id="specs-/-spacing-/-internal-/-V-08px" transform="translate(21.000000, 1.000000)">
                                <rect id="Rectangle-5-Copy-9" fill="#F8CC96" fill-rule="evenodd" x="0" y="0" width="8" height="30"></rect>
                                <text id="8-copy-10" font-family="Roboto-Regular, Roboto" font-size="12" font-weight="normal" fill="#333333">
                                    <tspan x="1" y="18">8</tspan>
                                </text>
                            </g>
                            <g id="specs-/-spacing-/-internal-/-V-08px" transform="translate(71.000000, 1.000000)">
                                <rect id="Rectangle-5-Copy-9" fill="#F8CC96" fill-rule="evenodd" x="0" y="0" width="8" height="30"></rect>
                                <text id="8-copy-10" font-family="Roboto-Regular, Roboto" font-size="12" font-weight="normal" fill="#333333">
                                    <tspan x="1" y="18">8</tspan>
                                </text>
                            </g>
                            <g id="specs-/-spacing-/-internal-/-V-08px" transform="translate(90.000000, 1.000000)">
                                <rect id="Rectangle-5-Copy-9" fill="#F8CC96" fill-rule="evenodd" x="0" y="0" width="8" height="30"></rect>
                                <text id="8-copy-10" font-family="Roboto-Regular, Roboto" font-size="12" font-weight="normal" fill="#333333">
                                    <tspan x="1" y="18">8</tspan>
                                </text>
                            </g>
                        </g>
                    </g>
                    <g id="Button/Standard/Primary-Copy-10" transform="translate(17.000000, 124.000000)"></g>
                    <g id="Group-2" transform="translate(34.000000, 6.000000)"></g>
                    <g id="Group-2-Copy-5" transform="translate(34.000000, 43.000000)"></g>
                    <g id="Group-2-Copy-3" transform="translate(43.000000, 94.000000)"></g>
                    <g id="Group-2-Copy-4" transform="translate(43.000000, 130.000000)"></g>
                </g>
                <polyline id="Stroke-8-Copy-5" stroke="#EC3F7A" points="111 100 123.637404 100 137 100"></polyline>
            </g>
        </g>
    </g>
</svg>