<?xml version="1.0" encoding="UTF-8" standalone="no"?>
<svg width="317px" height="297px" viewBox="0 0 317 297" version="1.1" xmlns="http://www.w3.org/2000/svg" xmlns:xlink="http://www.w3.org/1999/xlink">
    <!-- Generator: Sketch 47.1 (45422) - http://www.bohemiancoding.com/sketch -->
    <title>filter-2</title>
    <desc>Created with Sketch.</desc>
    <defs>
        <rect id="path-1" x="0" y="0" width="62" height="32" rx="2"></rect>
        <rect id="path-2" x="0" y="36" width="62" height="32" rx="2"></rect>
        <rect id="path-3" x="0" y="0" width="49" height="32" rx="2"></rect>
        <rect id="path-4" x="0" y="0" width="49" height="32" rx="2"></rect>
    </defs>
    <g id="Page-1" stroke="none" stroke-width="1" fill="none" fill-rule="evenodd">
        <g id="filter-2">
            <g id="Group-24" transform="translate(50.000000, 71.000000)">
                <path d="M95.8847656,45.3945312 L93.1425781,45.3945312 L93.1425781,53 L92.0234375,53 L92.0234375,45.3945312 L89.2871094,45.3945312 L89.2871094,44.46875 L95.8847656,44.46875 L95.8847656,45.3945312 Z M99.6054688,47.6328125 C99.4414054,47.6054686 99.2636728,47.5917969 99.0722656,47.5917969 C98.3613246,47.5917969 97.8789075,47.8945282 97.625,48.5 L97.625,53 L96.5410156,53 L96.5410156,46.6601562 L97.5957031,46.6601562 L97.6132812,47.3925781 C97.9687518,46.826169 98.472653,46.5429688 99.125,46.5429688 C99.3359386,46.5429688 99.4960932,46.5703122 99.6054688,46.625 L99.6054688,47.6328125 Z M104.515625,52.3730469 C104.093748,52.8691431 103.474613,53.1171875 102.658203,53.1171875 C101.982418,53.1171875 101.467775,52.9209004 101.114258,52.5283203 C100.76074,52.1357402 100.582031,51.5546913 100.578125,50.7851562 L100.578125,46.6601562 L101.662109,46.6601562 L101.662109,50.7558594 C101.662109,51.7168017 102.05273,52.1972656 102.833984,52.1972656 C103.662114,52.1972656 104.212889,51.888675 104.486328,51.2714844 L104.486328,46.6601562 L105.570312,46.6601562 L105.570312,53 L104.539062,53 L104.515625,52.3730469 Z M108.242188,46.6601562 L108.277344,47.4570312 C108.761721,46.8476532 109.394527,46.5429688 110.175781,46.5429688 C111.515632,46.5429688 112.191406,47.2988206 112.203125,48.8105469 L112.203125,53 L111.119141,53 L111.119141,48.8046875 C111.115234,48.347654 111.010743,48.0097667 110.805664,47.7910156 C110.600585,47.5722645 110.281252,47.4628906 109.847656,47.4628906 C109.496092,47.4628906 109.187501,47.5566397 108.921875,47.7441406 C108.656249,47.9316416 108.449219,48.1777329 108.300781,48.4824219 L108.300781,53 L107.216797,53 L107.216797,46.6601562 L108.242188,46.6601562 Z M116.380859,52.2324219 C116.76758,52.2324219 117.105467,52.1152355 117.394531,51.8808594 C117.683595,51.6464832 117.84375,51.3535174 117.875,51.0019531 L118.900391,51.0019531 C118.880859,51.3652362 118.755861,51.7109359 118.525391,52.0390625 C118.294921,52.3671891 117.987307,52.6289053 117.602539,52.8242188 C117.217772,53.0195322 116.810549,53.1171875 116.380859,53.1171875 C115.517574,53.1171875 114.831057,52.8291044 114.321289,52.2529297 C113.811521,51.6767549 113.556641,50.8886769 113.556641,49.8886719 L113.556641,49.7070312 C113.556641,49.0898407 113.669921,48.541018 113.896484,48.0605469 C114.123048,47.5800757 114.44824,47.2070326 114.87207,46.9414062 C115.295901,46.6757799 115.796872,46.5429688 116.375,46.5429688 C117.085941,46.5429688 117.676755,46.7558572 118.147461,47.1816406 C118.618166,47.607424 118.86914,48.1601529 118.900391,48.8398438 L117.875,48.8398438 C117.84375,48.4296854 117.688478,48.0927748 117.40918,47.8291016 C117.129881,47.5654284 116.785158,47.4335938 116.375,47.4335938 C115.824216,47.4335938 115.397462,47.631834 115.094727,48.0283203 C114.791991,48.4248067 114.640625,48.9980431 114.640625,49.7480469 L114.640625,49.953125 C114.640625,50.6835974 114.791014,51.2460918 115.091797,51.640625 C115.39258,52.0351582 115.822263,52.2324219 116.380859,52.2324219 Z M124.033203,53 C123.970703,52.8749994 123.919922,52.6523454 123.880859,52.3320312 C123.376951,52.8554714 122.775394,53.1171875 122.076172,53.1171875 C121.451169,53.1171875 120.938479,52.9404315 120.538086,52.5869141 C120.137693,52.2333967 119.9375,51.785159 119.9375,51.2421875 C119.9375,50.5820279 120.188474,50.0693378 120.69043,49.7041016 C121.192385,49.3388654 121.898433,49.15625 122.808594,49.15625 L123.863281,49.15625 L123.863281,48.6582031 C123.863281,48.279295 123.750001,47.9775402 123.523438,47.7529297 C123.296874,47.5283192 122.962893,47.4160156 122.521484,47.4160156 C122.134764,47.4160156 121.810548,47.5136709 121.548828,47.7089844 C121.287108,47.9042979 121.15625,48.1406236 121.15625,48.4179688 L120.066406,48.4179688 C120.066406,48.1015609 120.17871,47.7958999 120.40332,47.5009766 C120.627931,47.2060532 120.932615,46.9726571 121.317383,46.8007812 C121.70215,46.6289054 122.124998,46.5429688 122.585938,46.5429688 C123.31641,46.5429688 123.88867,46.7255841 124.302734,47.0908203 C124.716799,47.4560565 124.931641,47.9589812 124.947266,48.5996094 L124.947266,51.5175781 C124.947266,52.0996123 125.021484,52.5624983 125.169922,52.90625 L125.169922,53 L124.033203,53 Z M122.234375,52.1738281 C122.57422,52.1738281 122.896483,52.0859384 123.201172,51.9101562 C123.505861,51.7343741 123.726562,51.5058608 123.863281,51.2246094 L123.863281,49.9238281 L123.013672,49.9238281 C121.68554,49.9238281 121.021484,50.3124961 121.021484,51.0898438 C121.021484,51.4296892 121.134764,51.6953115 121.361328,51.8867188 C121.587892,52.078126 121.878904,52.1738281 122.234375,52.1738281 Z M128.117188,45.125 L128.117188,46.6601562 L129.300781,46.6601562 L129.300781,47.4980469 L128.117188,47.4980469 L128.117188,51.4296875 C128.117188,51.683595 128.169921,51.8740228 128.275391,52.0009766 C128.38086,52.1279303 128.560546,52.1914062 128.814453,52.1914062 C128.939454,52.1914062 129.111327,52.167969 129.330078,52.1210938 L129.330078,53 C129.04492,53.0781254 128.767579,53.1171875 128.498047,53.1171875 C128.013669,53.1171875 127.648439,52.9707046 127.402344,52.6777344 C127.156249,52.3847642 127.033203,51.9687527 127.033203,51.4296875 L127.033203,47.4980469 L125.878906,47.4980469 L125.878906,46.6601562 L127.033203,46.6601562 L127.033203,45.125 L128.117188,45.125 Z M133.197266,53.1171875 C132.337886,53.1171875 131.638675,52.8349638 131.099609,52.2705078 C130.560544,51.7060519 130.291016,50.9511766 130.291016,50.0058594 L130.291016,49.8066406 C130.291016,49.1777312 130.411132,48.6162134 130.651367,48.1220703 C130.891603,47.6279272 131.227537,47.2412123 131.65918,46.9619141 C132.090822,46.6826158 132.558591,46.5429688 133.0625,46.5429688 C133.886723,46.5429688 134.527341,46.8144504 134.984375,47.3574219 C135.441409,47.9003933 135.669922,48.6777293 135.669922,49.6894531 L135.669922,50.140625 L131.375,50.140625 C131.390625,50.7656281 131.57324,51.2705059 131.922852,51.6552734 C132.272463,52.040041 132.716794,52.2324219 133.255859,52.2324219 C133.638674,52.2324219 133.962889,52.1542977 134.228516,51.9980469 C134.494142,51.8417961 134.726562,51.6347669 134.925781,51.3769531 L135.587891,51.8925781 C135.056638,52.7089885 134.259771,53.1171875 133.197266,53.1171875 Z M133.0625,47.4335938 C132.624998,47.4335938 132.257814,47.5927718 131.960938,47.9111328 C131.664061,48.2294938 131.480469,48.6757784 131.410156,49.25 L134.585938,49.25 L134.585938,49.1679688 C134.554687,48.6171847 134.406251,48.1904312 134.140625,47.8876953 C133.874999,47.5849594 133.515627,47.4335938 133.0625,47.4335938 Z M136.660156,49.7773438 C136.660156,48.8046826 136.890623,48.0224639 137.351562,47.4306641 C137.812502,46.8388642 138.416012,46.5429688 139.162109,46.5429688 C139.904301,46.5429688 140.492185,46.7968725 140.925781,47.3046875 L140.925781,44 L142.009766,44 L142.009766,53 L141.013672,53 L140.960938,52.3203125 C140.527342,52.8515652 139.923832,53.1171875 139.150391,53.1171875 C138.416012,53.1171875 137.817385,52.8164093 137.354492,52.2148438 C136.891599,51.6132782 136.660156,50.8281298 136.660156,49.859375 L136.660156,49.7773438 Z M137.744141,49.9003906 C137.744141,50.6191442 137.892577,51.1816386 138.189453,51.5878906 C138.48633,51.9941427 138.896482,52.1972656 139.419922,52.1972656 C140.107425,52.1972656 140.609373,51.888675 140.925781,51.2714844 L140.925781,48.359375 C140.601561,47.7617158 140.103519,47.4628906 139.431641,47.4628906 C138.900388,47.4628906 138.48633,47.6679667 138.189453,48.078125 C137.892577,48.4882833 137.744141,49.0956991 137.744141,49.9003906 Z" id="Truncated" fill="#EC407A"></path>
                <polyline id="Stroke-8" stroke="#EC3F7A" points="62 55 74.637404 55 88 55"></polyline>
                <g id="Button/Standard/Primary-Copy-5">
                    <g id="Group-15">
                        <g id="Rectangle-2">
                            <use fill-opacity="0" fill="#FFFFFF" fill-rule="evenodd" xlink:href="#path-1"></use>
                            <rect stroke="#0C7481" stroke-width="1" x="0.5" y="0.5" width="61" height="31" rx="2"></rect>
                        </g>
                        <g id="Rectangle-2">
                            <use fill-opacity="0" fill="#FFFFFF" fill-rule="evenodd" xlink:href="#path-2"></use>
                            <rect stroke="#0C7481" stroke-width="1" x="0.5" y="36.5" width="61" height="31" rx="2"></rect>
                        </g>
                        <path d="M24.8380016,10.92925 L20.6359492,15.13075 L20.6359492,21.45475 C20.6359492,21.67675 20.5002056,21.8725 20.3044648,21.958 C20.236218,21.9835 20.1589716,22 20.0907248,22 C19.9459816,22 19.809488,21.949 19.7074928,21.838 L17.5258454,19.65625 C17.4231002,19.55425 17.363853,19.41775 17.363853,19.273 L17.363853,15.13075 L13.1625506,10.92925 C13.0005582,10.7755 12.9578102,10.537 13.0425562,10.333 C13.1280522,10.1365 13.324543,10 13.5457826,10 L24.4547696,10 C24.6760092,10 24.8725,10.1365 24.957246,10.333 C25.041992,10.537 24.999994,10.7755 24.8380016,10.92925" id="Fill-1-Copy-7" fill="#007481"></path>
                        <path d="M24.8380016,46.92925 L20.6359492,51.13075 L20.6359492,57.45475 C20.6359492,57.67675 20.5002056,57.8725 20.3044648,57.958 C20.236218,57.9835 20.1589716,58 20.0907248,58 C19.9459816,58 19.809488,57.949 19.7074928,57.838 L17.5258454,55.65625 C17.4231002,55.55425 17.363853,55.41775 17.363853,55.273 L17.363853,51.13075 L13.1625506,46.92925 C13.0005582,46.7755 12.9578102,46.537 13.0425562,46.333 C13.1280522,46.1365 13.324543,46 13.5457826,46 L24.4547696,46 C24.6760092,46 24.8725,46.1365 24.957246,46.333 C25.041992,46.537 24.999994,46.7755 24.8380016,46.92925" id="Fill-1-Copy-11" fill="#007481"></path>
                        <polygon id="Path-2-Copy-11" fill="#007481" fill-rule="nonzero" points="39.0709137 12.0753054 38 13.1611545 43.5693368 20 49.2 13.0858491 48.1290863 12 43.5693368 17.5991265"></polygon>
                        <polygon id="Path-2-Copy-15" fill="#007481" fill-rule="nonzero" points="39.0709137 48.0753054 38 49.1611545 43.5693368 56 49.2 49.0858491 48.1290863 48 43.5693368 53.5991265"></polygon>
                        <g id="specs-/-spacing-/-internal-/-V-12px" transform="translate(0.000000, 1.000000)">
                            <rect id="Rectangle-5-Copy-10" fill="#F8CC96" fill-rule="evenodd" x="1" y="0" width="12" height="30"></rect>
                            <text id="12-copy-4" font-family="Roboto-Regular, Roboto" font-size="12" font-weight="normal" fill="#333333">
                                <tspan x="0" y="18">12</tspan>
                            </text>
                        </g>
                        <g id="specs-/-spacing-/-internal-/-V-12px" transform="translate(48.000000, 1.000000)">
                            <rect id="Rectangle-5-Copy-10" fill="#F8CC96" fill-rule="evenodd" x="1" y="0" width="12" height="30"></rect>
                            <text id="12-copy-4" font-family="Roboto-Regular, Roboto" font-size="12" font-weight="normal" fill="#333333">
                                <tspan x="0" y="18">12</tspan>
                            </text>
                        </g>
                        <g id="specs-/-spacing-/-internal-/-V-12px" transform="translate(24.000000, 1.000000)">
                            <rect id="Rectangle-5-Copy-10" fill="#F8CC96" fill-rule="evenodd" x="1" y="0" width="12" height="30"></rect>
                            <text id="12-copy-4" font-family="Roboto-Regular, Roboto" font-size="12" font-weight="normal" fill="#333333">
                                <tspan x="0" y="18">12</tspan>
                            </text>
                        </g>
                    </g>
                </g>
                <g id="Button/Standard/Primary-Copy-9" transform="translate(0.000000, 36.000000)"></g>
                <g id="Group-14" transform="translate(13.000000, 88.000000)">
                    <g id="Button/Standard/Primary-Copy-6">
                        <g id="Rectangle-2">
                            <use fill-opacity="0" fill="#FFFFFF" fill-rule="evenodd" xlink:href="#path-3"></use>
                            <rect stroke="#0C7481" stroke-width="1" x="0.5" y="0.5" width="48" height="31" rx="2"></rect>
                        </g>
                    </g>
                    <g id="Button/Standard/Primary-Copy-7" transform="translate(0.000000, 36.000000)">
                        <g id="Rectangle-2">
                            <use fill-opacity="0" fill="#FFFFFF" fill-rule="evenodd" xlink:href="#path-4"></use>
                            <rect stroke="#0C7481" stroke-width="1" x="0.5" y="0.5" width="48" height="31" rx="2"></rect>
                        </g>
                    </g>
                    <path d="M20.8380016,10.92925 L16.6359492,15.13075 L16.6359492,21.45475 C16.6359492,21.67675 16.5002056,21.8725 16.3044648,21.958 C16.236218,21.9835 16.1589716,22 16.0907248,22 C15.9459816,22 15.809488,21.949 15.7074928,21.838 L13.5258454,19.65625 C13.4231002,19.55425 13.363853,19.41775 13.363853,19.273 L13.363853,15.13075 L9.16255058,10.92925 C9.0005582,10.7755 8.95781021,10.537 9.04255623,10.333 C9.12805221,10.1365 9.32454297,10 9.54578256,10 L20.4547696,10 C20.6760092,10 20.8725,10.1365 20.957246,10.333 C21.041992,10.537 20.999994,10.7755 20.8380016,10.92925" id="Fill-1-Copy-8" fill="#007481"></path>
                    <path d="M20.8380016,46.92925 L16.6359492,51.13075 L16.6359492,57.45475 C16.6359492,57.67675 16.5002056,57.8725 16.3044648,57.958 C16.236218,57.9835 16.1589716,58 16.0907248,58 C15.9459816,58 15.809488,57.949 15.7074928,57.838 L13.5258454,55.65625 C13.4231002,55.55425 13.363853,55.41775 13.363853,55.273 L13.363853,51.13075 L9.16255058,46.92925 C9.0005582,46.7755 8.95781021,46.537 9.04255623,46.333 C9.12805221,46.1365 9.32454297,46 9.54578256,46 L20.4547696,46 C20.6760092,46 20.8725,46.1365 20.957246,46.333 C21.041992,46.537 20.999994,46.7755 20.8380016,46.92925" id="Fill-1-Copy-9" fill="#007481"></path>
                    <polygon id="Path-2-Copy-12" fill="#007481" fill-rule="nonzero" points="30.0709137 12.0753054 29 13.1611545 34.5693368 20 40.2 13.0858491 39.1290863 12 34.5693368 17.5991265"></polygon>
                    <polygon id="Path-2-Copy-13" fill="#007481" fill-rule="nonzero" points="30.0709137 48.0753054 29 49.1611545 34.5693368 56 40.2 49.0858491 39.1290863 48 34.5693368 53.5991265"></polygon>
                    <g id="specs-/-spacing-/-internal-/-V-08px" transform="translate(1.000000, 1.000000)">
                        <rect id="Rectangle-5-Copy-9" fill="#F8CC96" fill-rule="evenodd" x="0" y="0" width="8" height="30"></rect>
                        <text id="8-copy-10" font-family="Roboto-Regular, Roboto" font-size="12" font-weight="normal" fill="#333333">
                            <tspan x="1" y="18">8</tspan>
                        </text>
                    </g>
                    <g id="specs-/-spacing-/-internal-/-V-08px" transform="translate(21.000000, 1.000000)">
                        <rect id="Rectangle-5-Copy-9" fill="#F8CC96" fill-rule="evenodd" x="0" y="0" width="8" height="30"></rect>
                        <text id="8-copy-10" font-family="Roboto-Regular, Roboto" font-size="12" font-weight="normal" fill="#333333">
                            <tspan x="1" y="18">8</tspan>
                        </text>
                    </g>
                    <g id="specs-/-spacing-/-internal-/-V-08px" transform="translate(40.000000, 1.000000)">
                        <rect id="Rectangle-5-Copy-9" fill="#F8CC96" fill-rule="evenodd" x="0" y="0" width="8" height="30"></rect>
                        <text id="8-copy-10" font-family="Roboto-Regular, Roboto" font-size="12" font-weight="normal" fill="#333333">
                            <tspan x="1" y="18">8</tspan>
                        </text>
                    </g>
                </g>
                <path d="M95.8847656,93.3945312 L93.1425781,93.3945312 L93.1425781,101 L92.0234375,101 L92.0234375,93.3945312 L89.2871094,93.3945312 L89.2871094,92.46875 L95.8847656,92.46875 L95.8847656,93.3945312 Z M99.6054688,95.6328125 C99.4414054,95.6054686 99.2636728,95.5917969 99.0722656,95.5917969 C98.3613246,95.5917969 97.8789075,95.8945282 97.625,96.5 L97.625,101 L96.5410156,101 L96.5410156,94.6601562 L97.5957031,94.6601562 L97.6132812,95.3925781 C97.9687518,94.826169 98.472653,94.5429688 99.125,94.5429688 C99.3359386,94.5429688 99.4960932,94.5703122 99.6054688,94.625 L99.6054688,95.6328125 Z M104.515625,100.373047 C104.093748,100.869143 103.474613,101.117188 102.658203,101.117188 C101.982418,101.117188 101.467775,100.9209 101.114258,100.52832 C100.76074,100.13574 100.582031,99.5546913 100.578125,98.7851562 L100.578125,94.6601562 L101.662109,94.6601562 L101.662109,98.7558594 C101.662109,99.7168017 102.05273,100.197266 102.833984,100.197266 C103.662114,100.197266 104.212889,99.888675 104.486328,99.2714844 L104.486328,94.6601562 L105.570312,94.6601562 L105.570312,101 L104.539062,101 L104.515625,100.373047 Z M108.242188,94.6601562 L108.277344,95.4570312 C108.761721,94.8476532 109.394527,94.5429688 110.175781,94.5429688 C111.515632,94.5429688 112.191406,95.2988206 112.203125,96.8105469 L112.203125,101 L111.119141,101 L111.119141,96.8046875 C111.115234,96.347654 111.010743,96.0097667 110.805664,95.7910156 C110.600585,95.5722645 110.281252,95.4628906 109.847656,95.4628906 C109.496092,95.4628906 109.187501,95.5566397 108.921875,95.7441406 C108.656249,95.9316416 108.449219,96.1777329 108.300781,96.4824219 L108.300781,101 L107.216797,101 L107.216797,94.6601562 L108.242188,94.6601562 Z M116.380859,100.232422 C116.76758,100.232422 117.105467,100.115236 117.394531,99.8808594 C117.683595,99.6464832 117.84375,99.3535174 117.875,99.0019531 L118.900391,99.0019531 C118.880859,99.3652362 118.755861,99.7109359 118.525391,100.039062 C118.294921,100.367189 117.987307,100.628905 117.602539,100.824219 C117.217772,101.019532 116.810549,101.117188 116.380859,101.117188 C115.517574,101.117188 114.831057,100.829104 114.321289,100.25293 C113.811521,99.6767549 113.556641,98.8886769 113.556641,97.8886719 L113.556641,97.7070312 C113.556641,97.0898407 113.669921,96.541018 113.896484,96.0605469 C114.123048,95.5800757 114.44824,95.2070326 114.87207,94.9414062 C115.295901,94.6757799 115.796872,94.5429688 116.375,94.5429688 C117.085941,94.5429688 117.676755,94.7558572 118.147461,95.1816406 C118.618166,95.607424 118.86914,96.1601529 118.900391,96.8398438 L117.875,96.8398438 C117.84375,96.4296854 117.688478,96.0927748 117.40918,95.8291016 C117.129881,95.5654284 116.785158,95.4335938 116.375,95.4335938 C115.824216,95.4335938 115.397462,95.631834 115.094727,96.0283203 C114.791991,96.4248067 114.640625,96.9980431 114.640625,97.7480469 L114.640625,97.953125 C114.640625,98.6835974 114.791014,99.2460918 115.091797,99.640625 C115.39258,100.035158 115.822263,100.232422 116.380859,100.232422 Z M124.033203,101 C123.970703,100.874999 123.919922,100.652345 123.880859,100.332031 C123.376951,100.855471 122.775394,101.117188 122.076172,101.117188 C121.451169,101.117188 120.938479,100.940431 120.538086,100.586914 C120.137693,100.233397 119.9375,99.785159 119.9375,99.2421875 C119.9375,98.5820279 120.188474,98.0693378 120.69043,97.7041016 C121.192385,97.3388654 121.898433,97.15625 122.808594,97.15625 L123.863281,97.15625 L123.863281,96.6582031 C123.863281,96.279295 123.750001,95.9775402 123.523438,95.7529297 C123.296874,95.5283192 122.962893,95.4160156 122.521484,95.4160156 C122.134764,95.4160156 121.810548,95.5136709 121.548828,95.7089844 C121.287108,95.9042979 121.15625,96.1406236 121.15625,96.4179688 L120.066406,96.4179688 C120.066406,96.1015609 120.17871,95.7958999 120.40332,95.5009766 C120.627931,95.2060532 120.932615,94.9726571 121.317383,94.8007812 C121.70215,94.6289054 122.124998,94.5429688 122.585938,94.5429688 C123.31641,94.5429688 123.88867,94.7255841 124.302734,95.0908203 C124.716799,95.4560565 124.931641,95.9589812 124.947266,96.5996094 L124.947266,99.5175781 C124.947266,100.099612 125.021484,100.562498 125.169922,100.90625 L125.169922,101 L124.033203,101 Z M122.234375,100.173828 C122.57422,100.173828 122.896483,100.085938 123.201172,99.9101562 C123.505861,99.7343741 123.726562,99.5058608 123.863281,99.2246094 L123.863281,97.9238281 L123.013672,97.9238281 C121.68554,97.9238281 121.021484,98.3124961 121.021484,99.0898438 C121.021484,99.4296892 121.134764,99.6953115 121.361328,99.8867188 C121.587892,100.078126 121.878904,100.173828 122.234375,100.173828 Z M128.117188,93.125 L128.117188,94.6601562 L129.300781,94.6601562 L129.300781,95.4980469 L128.117188,95.4980469 L128.117188,99.4296875 C128.117188,99.683595 128.169921,99.8740228 128.275391,100.000977 C128.38086,100.12793 128.560546,100.191406 128.814453,100.191406 C128.939454,100.191406 129.111327,100.167969 129.330078,100.121094 L129.330078,101 C129.04492,101.078125 128.767579,101.117188 128.498047,101.117188 C128.013669,101.117188 127.648439,100.970705 127.402344,100.677734 C127.156249,100.384764 127.033203,99.9687527 127.033203,99.4296875 L127.033203,95.4980469 L125.878906,95.4980469 L125.878906,94.6601562 L127.033203,94.6601562 L127.033203,93.125 L128.117188,93.125 Z M133.197266,101.117188 C132.337886,101.117188 131.638675,100.834964 131.099609,100.270508 C130.560544,99.7060519 130.291016,98.9511766 130.291016,98.0058594 L130.291016,97.8066406 C130.291016,97.1777312 130.411132,96.6162134 130.651367,96.1220703 C130.891603,95.6279272 131.227537,95.2412123 131.65918,94.9619141 C132.090822,94.6826158 132.558591,94.5429688 133.0625,94.5429688 C133.886723,94.5429688 134.527341,94.8144504 134.984375,95.3574219 C135.441409,95.9003933 135.669922,96.6777293 135.669922,97.6894531 L135.669922,98.140625 L131.375,98.140625 C131.390625,98.7656281 131.57324,99.2705059 131.922852,99.6552734 C132.272463,100.040041 132.716794,100.232422 133.255859,100.232422 C133.638674,100.232422 133.962889,100.154298 134.228516,99.9980469 C134.494142,99.8417961 134.726562,99.6347669 134.925781,99.3769531 L135.587891,99.8925781 C135.056638,100.708988 134.259771,101.117188 133.197266,101.117188 Z M133.0625,95.4335938 C132.624998,95.4335938 132.257814,95.5927718 131.960938,95.9111328 C131.664061,96.2294938 131.480469,96.6757784 131.410156,97.25 L134.585938,97.25 L134.585938,97.1679688 C134.554687,96.6171847 134.406251,96.1904312 134.140625,95.8876953 C133.874999,95.5849594 133.515627,95.4335938 133.0625,95.4335938 Z M136.660156,97.7773438 C136.660156,96.8046826 136.890623,96.0224639 137.351562,95.4306641 C137.812502,94.8388642 138.416012,94.5429688 139.162109,94.5429688 C139.904301,94.5429688 140.492185,94.7968725 140.925781,95.3046875 L140.925781,92 L142.009766,92 L142.009766,101 L141.013672,101 L140.960938,100.320312 C140.527342,100.851565 139.923832,101.117188 139.150391,101.117188 C138.416012,101.117188 137.817385,100.816409 137.354492,100.214844 C136.891599,99.6132782 136.660156,98.8281298 136.660156,97.859375 L136.660156,97.7773438 Z M137.744141,97.9003906 C137.744141,98.6191442 137.892577,99.1816386 138.189453,99.5878906 C138.48633,99.9941427 138.896482,100.197266 139.419922,100.197266 C140.107425,100.197266 140.609373,99.888675 140.925781,99.2714844 L140.925781,96.359375 C140.601561,95.7617158 140.103519,95.4628906 139.431641,95.4628906 C138.900388,95.4628906 138.48633,95.6679667 138.189453,96.078125 C137.892577,96.4882833 137.744141,97.0956991 137.744141,97.9003906 Z M150.576172,101 C150.513672,100.874999 150.462891,100.652345 150.423828,100.332031 C149.919919,100.855471 149.318363,101.117188 148.619141,101.117188 C147.994137,101.117188 147.481447,100.940431 147.081055,100.586914 C146.680662,100.233397 146.480469,99.785159 146.480469,99.2421875 C146.480469,98.5820279 146.731443,98.0693378 147.233398,97.7041016 C147.735354,97.3388654 148.441402,97.15625 149.351562,97.15625 L150.40625,97.15625 L150.40625,96.6582031 C150.40625,96.279295 150.29297,95.9775402 150.066406,95.7529297 C149.839843,95.5283192 149.505862,95.4160156 149.064453,95.4160156 C148.677732,95.4160156 148.353517,95.5136709 148.091797,95.7089844 C147.830077,95.9042979 147.699219,96.1406236 147.699219,96.4179688 L146.609375,96.4179688 C146.609375,96.1015609 146.721679,95.7958999 146.946289,95.5009766 C147.1709,95.2060532 147.475584,94.9726571 147.860352,94.8007812 C148.245119,94.6289054 148.667966,94.5429688 149.128906,94.5429688 C149.859379,94.5429688 150.431639,94.7255841 150.845703,95.0908203 C151.259768,95.4560565 151.474609,95.9589812 151.490234,96.5996094 L151.490234,99.5175781 C151.490234,100.099612 151.564452,100.562498 151.712891,100.90625 L151.712891,101 L150.576172,101 Z M148.777344,100.173828 C149.117189,100.173828 149.439452,100.085938 149.744141,99.9101562 C150.04883,99.7343741 150.269531,99.5058608 150.40625,99.2246094 L150.40625,97.9238281 L149.556641,97.9238281 C148.228509,97.9238281 147.564453,98.3124961 147.564453,99.0898438 C147.564453,99.4296892 147.677733,99.6953115 147.904297,99.8867188 C148.130861,100.078126 148.421873,100.173828 148.777344,100.173828 Z M154.214844,94.6601562 L154.25,95.4570312 C154.734377,94.8476532 155.367184,94.5429688 156.148438,94.5429688 C157.488288,94.5429688 158.164062,95.2988206 158.175781,96.8105469 L158.175781,101 L157.091797,101 L157.091797,96.8046875 C157.087891,96.347654 156.983399,96.0097667 156.77832,95.7910156 C156.573241,95.5722645 156.253908,95.4628906 155.820312,95.4628906 C155.468748,95.4628906 155.160158,95.5566397 154.894531,95.7441406 C154.628905,95.9316416 154.421876,96.1777329 154.273438,96.4824219 L154.273438,101 L153.189453,101 L153.189453,94.6601562 L154.214844,94.6601562 Z M159.546875,97.7773438 C159.546875,96.8046826 159.777341,96.0224639 160.238281,95.4306641 C160.699221,94.8388642 161.302731,94.5429688 162.048828,94.5429688 C162.791019,94.5429688 163.378904,94.7968725 163.8125,95.3046875 L163.8125,92 L164.896484,92 L164.896484,101 L163.900391,101 L163.847656,100.320312 C163.41406,100.851565 162.810551,101.117188 162.037109,101.117188 C161.302731,101.117188 160.704104,100.816409 160.241211,100.214844 C159.778318,99.6132782 159.546875,98.8281298 159.546875,97.859375 L159.546875,97.7773438 Z M160.630859,97.9003906 C160.630859,98.6191442 160.779295,99.1816386 161.076172,99.5878906 C161.373048,99.9941427 161.783201,100.197266 162.306641,100.197266 C162.994144,100.197266 163.496092,99.888675 163.8125,99.2714844 L163.8125,96.359375 C163.48828,95.7617158 162.990238,95.4628906 162.318359,95.4628906 C161.787107,95.4628906 161.373048,95.6679667 161.076172,96.078125 C160.779295,96.4882833 160.630859,97.0956991 160.630859,97.9003906 Z M175.994141,98.2929688 C175.888671,99.195317 175.555667,99.8915991 174.995117,100.381836 C174.434568,100.872073 173.689458,101.117188 172.759766,101.117188 C171.751948,101.117188 170.944339,100.755863 170.336914,100.033203 C169.729489,99.3105433 169.425781,98.3437561 169.425781,97.1328125 L169.425781,96.3125 C169.425781,95.5195273 169.567381,94.8222686 169.850586,94.2207031 C170.13379,93.6191376 170.535154,93.1572282 171.054688,92.8349609 C171.574221,92.5126937 172.175778,92.3515625 172.859375,92.3515625 C173.76563,92.3515625 174.492185,92.6044897 175.039062,93.1103516 C175.58594,93.6162135 175.904296,94.3164018 175.994141,95.2109375 L174.863281,95.2109375 C174.765625,94.5312466 174.553713,94.039064 174.227539,93.734375 C173.901366,93.429686 173.445315,93.2773438 172.859375,93.2773438 C172.140621,93.2773438 171.57715,93.5429661 171.168945,94.0742188 C170.76074,94.6054714 170.556641,95.3613232 170.556641,96.3417969 L170.556641,97.1679688 C170.556641,98.0937546 170.749998,98.8300754 171.136719,99.3769531 C171.523439,99.9238309 172.06445,100.197266 172.759766,100.197266 C173.384769,100.197266 173.864256,100.055665 174.198242,99.7724609 C174.532228,99.4892564 174.753906,98.9960973 174.863281,98.2929688 L175.994141,98.2929688 Z M177.072266,97.7714844 C177.072266,97.1503875 177.194335,96.5917994 177.438477,96.0957031 C177.682618,95.5996069 178.022459,95.2167982 178.458008,94.9472656 C178.893557,94.677733 179.390622,94.5429688 179.949219,94.5429688 C180.812504,94.5429688 181.51074,94.8417939 182.043945,95.4394531 C182.577151,96.0371124 182.84375,96.8320263 182.84375,97.8242188 L182.84375,97.9003906 C182.84375,98.5175812 182.725587,99.0712866 182.489258,99.5615234 C182.252929,100.05176 181.915041,100.433592 181.475586,100.707031 C181.036131,100.98047 180.531253,101.117188 179.960938,101.117188 C179.101558,101.117188 178.405276,100.818362 177.87207,100.220703 C177.338865,99.6230439 177.072266,98.8320362 177.072266,97.8476562 L177.072266,97.7714844 Z M178.162109,97.9003906 C178.162109,98.6035191 178.325194,99.1679666 178.651367,99.59375 C178.977541,100.019533 179.41406,100.232422 179.960938,100.232422 C180.511722,100.232422 180.949217,100.016604 181.273438,99.5849609 C181.597658,99.1533182 181.759766,98.548832 181.759766,97.7714844 C181.759766,97.0761684 181.594728,96.5126975 181.264648,96.0810547 C180.934569,95.6494119 180.496096,95.4335938 179.949219,95.4335938 C179.41406,95.4335938 178.982424,95.6464822 178.654297,96.0722656 C178.32617,96.498049 178.162109,97.1074179 178.162109,97.9003906 Z M185.222656,94.6601562 L185.251953,95.3632812 C185.716799,94.8164035 186.343746,94.5429688 187.132812,94.5429688 C188.019536,94.5429688 188.623045,94.8828091 188.943359,95.5625 C189.154298,95.257811 189.428709,95.0117197 189.766602,94.8242188 C190.104494,94.6367178 190.503904,94.5429688 190.964844,94.5429688 C192.355476,94.5429688 193.0625,95.2792895 193.085938,96.7519531 L193.085938,101 L192.001953,101 L192.001953,96.8164062 C192.001953,96.363279 191.898439,96.0244152 191.691406,95.7998047 C191.484374,95.5751942 191.136721,95.4628906 190.648438,95.4628906 C190.246092,95.4628906 189.912111,95.5830066 189.646484,95.8232422 C189.380858,96.0634778 189.226563,96.3867167 189.183594,96.7929688 L189.183594,101 L188.09375,101 L188.09375,96.8457031 C188.09375,95.9238235 187.642583,95.4628906 186.740234,95.4628906 C186.029293,95.4628906 185.54297,95.765622 185.28125,96.3710938 L185.28125,101 L184.197266,101 L184.197266,94.6601562 L185.222656,94.6601562 Z M200.076172,97.9003906 C200.076172,98.8652392 199.855471,99.6425752 199.414062,100.232422 C198.972654,100.822269 198.375004,101.117188 197.621094,101.117188 C196.851559,101.117188 196.246096,100.873049 195.804688,100.384766 L195.804688,103.4375 L194.720703,103.4375 L194.720703,94.6601562 L195.710938,94.6601562 L195.763672,95.3632812 C196.20508,94.8164035 196.818355,94.5429688 197.603516,94.5429688 C198.365238,94.5429688 198.967771,94.8300753 199.411133,95.4042969 C199.854494,95.9785185 200.076172,96.7773386 200.076172,97.8007812 L200.076172,97.9003906 Z M198.992188,97.7773438 C198.992188,97.0624964 198.839845,96.4980489 198.535156,96.0839844 C198.230467,95.6699198 197.812503,95.4628906 197.28125,95.4628906 C196.624997,95.4628906 196.132814,95.7539033 195.804688,96.3359375 L195.804688,99.3652344 C196.128908,99.9433623 196.624997,100.232422 197.292969,100.232422 C197.812503,100.232422 198.225584,100.026369 198.532227,99.6142578 C198.838869,99.2021464 198.992188,98.5898478 198.992188,97.7773438 Z M205.367188,101 C205.304687,100.874999 205.253906,100.652345 205.214844,100.332031 C204.710935,100.855471 204.109378,101.117188 203.410156,101.117188 C202.785153,101.117188 202.272463,100.940431 201.87207,100.586914 C201.471678,100.233397 201.271484,99.785159 201.271484,99.2421875 C201.271484,98.5820279 201.522458,98.0693378 202.024414,97.7041016 C202.52637,97.3388654 203.232417,97.15625 204.142578,97.15625 L205.197266,97.15625 L205.197266,96.6582031 C205.197266,96.279295 205.083986,95.9775402 204.857422,95.7529297 C204.630858,95.5283192 204.296877,95.4160156 203.855469,95.4160156 C203.468748,95.4160156 203.144533,95.5136709 202.882812,95.7089844 C202.621092,95.9042979 202.490234,96.1406236 202.490234,96.4179688 L201.400391,96.4179688 C201.400391,96.1015609 201.512694,95.7958999 201.737305,95.5009766 C201.961915,95.2060532 202.2666,94.9726571 202.651367,94.8007812 C203.036135,94.6289054 203.458982,94.5429688 203.919922,94.5429688 C204.650394,94.5429688 205.222654,94.7255841 205.636719,95.0908203 C206.050783,95.4560565 206.265625,95.9589812 206.28125,96.5996094 L206.28125,99.5175781 C206.28125,100.099612 206.355468,100.562498 206.503906,100.90625 L206.503906,101 L205.367188,101 Z M203.568359,100.173828 C203.908205,100.173828 204.230467,100.085938 204.535156,99.9101562 C204.839845,99.7343741 205.060546,99.5058608 205.197266,99.2246094 L205.197266,97.9238281 L204.347656,97.9238281 C203.019525,97.9238281 202.355469,98.3124961 202.355469,99.0898438 C202.355469,99.4296892 202.468749,99.6953115 202.695312,99.8867188 C202.921876,100.078126 203.212889,100.173828 203.568359,100.173828 Z M210.523438,100.232422 C210.910158,100.232422 211.248045,100.115236 211.537109,99.8808594 C211.826173,99.6464832 211.986328,99.3535174 212.017578,99.0019531 L213.042969,99.0019531 C213.023437,99.3652362 212.898439,99.7109359 212.667969,100.039062 C212.437499,100.367189 212.129885,100.628905 211.745117,100.824219 C211.36035,101.019532 210.953127,101.117188 210.523438,101.117188 C209.660152,101.117188 208.973635,100.829104 208.463867,100.25293 C207.954099,99.6767549 207.699219,98.8886769 207.699219,97.8886719 L207.699219,97.7070312 C207.699219,97.0898407 207.812499,96.541018 208.039062,96.0605469 C208.265626,95.5800757 208.590818,95.2070326 209.014648,94.9414062 C209.438479,94.6757799 209.93945,94.5429688 210.517578,94.5429688 C211.228519,94.5429688 211.819334,94.7558572 212.290039,95.1816406 C212.760745,95.607424 213.011719,96.1601529 213.042969,96.8398438 L212.017578,96.8398438 C211.986328,96.4296854 211.831056,96.0927748 211.551758,95.8291016 C211.27246,95.5654284 210.927736,95.4335938 210.517578,95.4335938 C209.966794,95.4335938 209.540041,95.631834 209.237305,96.0283203 C208.934569,96.4248067 208.783203,96.9980431 208.783203,97.7480469 L208.783203,97.953125 C208.783203,98.6835974 208.933592,99.2460918 209.234375,99.640625 C209.535158,100.035158 209.964841,100.232422 210.523438,100.232422 Z M215.732422,93.125 L215.732422,94.6601562 L216.916016,94.6601562 L216.916016,95.4980469 L215.732422,95.4980469 L215.732422,99.4296875 C215.732422,99.683595 215.785156,99.8740228 215.890625,100.000977 C215.996094,100.12793 216.17578,100.191406 216.429688,100.191406 C216.554688,100.191406 216.726561,100.167969 216.945312,100.121094 L216.945312,101 C216.660155,101.078125 216.382814,101.117188 216.113281,101.117188 C215.628904,101.117188 215.263673,100.970705 215.017578,100.677734 C214.771483,100.384764 214.648438,99.9687527 214.648438,99.4296875 L214.648438,95.4980469 L213.494141,95.4980469 L213.494141,94.6601562 L214.648438,94.6601562 L214.648438,93.125 L215.732422,93.125 Z" id="Truncated-and-Compac" fill="#EC407A"></path>
                <polyline id="Stroke-8-Copy-5" stroke="#EC3F7A" points="62 103 74.637404 103 88 103"></polyline>
            </g>
        </g>
    </g>
</svg>