<?xml version="1.0" encoding="UTF-8" standalone="no"?>
<svg width="636px" height="369px" viewBox="0 0 636 369" version="1.1" xmlns="http://www.w3.org/2000/svg" xmlns:xlink="http://www.w3.org/1999/xlink">
    <!-- Generator: Sketch 47.1 (45422) - http://www.bohemiancoding.com/sketch -->
    <title>Artboard 2</title>
    <desc>Created with Sketch.</desc>
    <defs></defs>
    <g id="Page-1" stroke="none" stroke-width="1" fill="none" fill-rule="evenodd">
        <g id="Artboard-2">
            <g id="Group-26" transform="translate(41.000000, 52.000000)">
                <g id="documentation-/-section-/-1-image-right">
                    <path d="M433.155619,197.515094 L433.155619,186.471909 L439.244954,192.744659 L443,188.876508 L430.5,176 L418,188.876508 L421.755046,192.744659 L427.844381,186.471909 L427.844381,197.515094 L427.844381,208.530188 L421.755046,202.857701 L418,206.355693 L430.5,218 L443,206.355693 L439.244954,202.857701 L433.155619,208.530188 L433.155619,197.515094 Z" id="Combined-Shape-Copy-5" fill="#000000"></path>
                    <polygon id="Fill-1-Copy-3" fill="#000000" points="245.5 176 233 188.825613 236.755046 192.678474 242.844381 186.430518 242.844381 218 248.155619 218 248.155619 186.430518 254.244954 192.678474 258 188.825613"></polygon>
                    <polygon id="Fill-2-Copy" fill="#000000" points="56.8443807 176 56.8443807 207.569482 50.7550457 201.321526 47 205.174387 59.5 218 72 205.174387 68.2449543 201.321526 62.1556193 207.569482 62.1556193 176"></polygon>
                    <path d="M127.119141,119.548828 L125.115234,119.548828 L125.115234,123 L123.984375,123 L123.984375,114.46875 L126.808594,114.46875 C127.769536,114.46875 128.508786,114.687498 129.026367,115.125 C129.543948,115.562502 129.802734,116.199215 129.802734,117.035156 C129.802734,117.566409 129.659181,118.029295 129.37207,118.423828 C129.08496,118.818361 128.685549,119.11328 128.173828,119.308594 L130.177734,122.929688 L130.177734,123 L128.970703,123 L127.119141,119.548828 Z M125.115234,118.628906 L126.84375,118.628906 C127.402347,118.628906 127.846678,118.484376 128.176758,118.195312 C128.506838,117.906249 128.671875,117.519534 128.671875,117.035156 C128.671875,116.50781 128.51465,116.103517 128.200195,115.822266 C127.885741,115.541014 127.431644,115.398438 126.837891,115.394531 L125.115234,115.394531 L125.115234,118.628906 Z M130.921875,119.771484 C130.921875,119.150388 131.043944,118.591799 131.288086,118.095703 C131.532228,117.599607 131.872068,117.216798 132.307617,116.947266 C132.743166,116.677733 133.240232,116.542969 133.798828,116.542969 C134.662114,116.542969 135.360349,116.841794 135.893555,117.439453 C136.42676,118.037112 136.693359,118.832026 136.693359,119.824219 L136.693359,119.900391 C136.693359,120.517581 136.575196,121.071287 136.338867,121.561523 C136.102538,122.05176 135.764651,122.433592 135.325195,122.707031 C134.88574,122.98047 134.380862,123.117188 133.810547,123.117188 C132.951168,123.117188 132.254885,122.818362 131.72168,122.220703 C131.188474,121.623044 130.921875,120.832036 130.921875,119.847656 L130.921875,119.771484 Z M132.011719,119.900391 C132.011719,120.603519 132.174803,121.167967 132.500977,121.59375 C132.82715,122.019533 133.263669,122.232422 133.810547,122.232422 C134.361331,122.232422 134.798827,122.016604 135.123047,121.584961 C135.447267,121.153318 135.609375,120.548832 135.609375,119.771484 C135.609375,119.076168 135.444338,118.512697 135.114258,118.081055 C134.784178,117.649412 134.345706,117.433594 133.798828,117.433594 C133.263669,117.433594 132.832033,117.646482 132.503906,118.072266 C132.17578,118.498049 132.011719,119.107418 132.011719,119.900391 Z M143.666016,121.505859 L144.884766,116.660156 L145.96875,116.660156 L144.123047,123 L143.244141,123 L141.703125,118.195312 L140.203125,123 L139.324219,123 L137.484375,116.660156 L138.5625,116.660156 L139.810547,121.40625 L141.287109,116.660156 L142.160156,116.660156 L143.666016,121.505859 Z M151.21875,123 L150.134766,123 L150.134766,116.660156 L151.21875,116.660156 L151.21875,123 Z M150.046875,114.978516 C150.046875,114.802733 150.100585,114.654297 150.208008,114.533203 C150.31543,114.412109 150.474608,114.351562 150.685547,114.351562 C150.896485,114.351562 151.05664,114.412109 151.166016,114.533203 C151.275391,114.654297 151.330078,114.802733 151.330078,114.978516 C151.330078,115.154298 151.275391,115.300781 151.166016,115.417969 C151.05664,115.535157 150.896485,115.59375 150.685547,115.59375 C150.474608,115.59375 150.31543,115.535157 150.208008,115.417969 C150.100585,115.300781 150.046875,115.154298 150.046875,114.978516 Z M156.644531,121.318359 C156.644531,121.025389 156.534181,120.797852 156.313477,120.635742 C156.092772,120.473632 155.708011,120.333985 155.15918,120.216797 C154.610349,120.099609 154.174806,119.958985 153.852539,119.794922 C153.530272,119.630859 153.291993,119.435548 153.137695,119.208984 C152.983398,118.982421 152.90625,118.712892 152.90625,118.400391 C152.90625,117.880857 153.125974,117.441408 153.56543,117.082031 C154.004885,116.722654 154.566403,116.542969 155.25,116.542969 C155.968754,116.542969 156.551756,116.728514 156.999023,117.099609 C157.446291,117.470705 157.669922,117.94531 157.669922,118.523438 L156.580078,118.523438 C156.580078,118.226561 156.454103,117.970704 156.202148,117.755859 C155.950194,117.541015 155.632814,117.433594 155.25,117.433594 C154.855467,117.433594 154.546876,117.51953 154.324219,117.691406 C154.101561,117.863282 153.990234,118.087889 153.990234,118.365234 C153.990234,118.626954 154.093749,118.824218 154.300781,118.957031 C154.507814,119.089844 154.881833,119.216796 155.422852,119.337891 C155.96387,119.458985 156.402342,119.603515 156.738281,119.771484 C157.07422,119.939454 157.323241,120.1416 157.485352,120.37793 C157.647462,120.614259 157.728516,120.902342 157.728516,121.242188 C157.728516,121.808597 157.501955,122.262694 157.048828,122.604492 C156.595701,122.946291 156.007816,123.117188 155.285156,123.117188 C154.777341,123.117188 154.328127,123.027345 153.9375,122.847656 C153.546873,122.667968 153.241212,122.416994 153.020508,122.094727 C152.799804,121.772459 152.689453,121.42383 152.689453,121.048828 L153.773438,121.048828 C153.792969,121.412111 153.938475,121.700194 154.209961,121.913086 C154.481447,122.125978 154.839842,122.232422 155.285156,122.232422 C155.695315,122.232422 156.024413,122.149415 156.272461,121.983398 C156.520509,121.817382 156.644531,121.595705 156.644531,121.318359 Z M127.511719,135.318359 C127.511719,135.025389 127.401368,134.797852 127.180664,134.635742 C126.95996,134.473632 126.575198,134.333985 126.026367,134.216797 C125.477536,134.099609 125.041994,133.958985 124.719727,133.794922 C124.397459,133.630859 124.15918,133.435548 124.004883,133.208984 C123.850585,132.982421 123.773438,132.712892 123.773438,132.400391 C123.773438,131.880857 123.993162,131.441408 124.432617,131.082031 C124.872073,130.722654 125.43359,130.542969 126.117188,130.542969 C126.835941,130.542969 127.418943,130.728514 127.866211,131.099609 C128.313479,131.470705 128.537109,131.94531 128.537109,132.523438 L127.447266,132.523438 C127.447266,132.226561 127.32129,131.970704 127.069336,131.755859 C126.817382,131.541015 126.500002,131.433594 126.117188,131.433594 C125.722654,131.433594 125.414064,131.51953 125.191406,131.691406 C124.968749,131.863282 124.857422,132.087889 124.857422,132.365234 C124.857422,132.626954 124.960936,132.824218 125.167969,132.957031 C125.375001,133.089844 125.749021,133.216796 126.290039,133.337891 C126.831057,133.458985 127.26953,133.603515 127.605469,133.771484 C127.941408,133.939454 128.190429,134.1416 128.352539,134.37793 C128.514649,134.614259 128.595703,134.902342 128.595703,135.242188 C128.595703,135.808597 128.369143,136.262694 127.916016,136.604492 C127.462888,136.946291 126.875004,137.117188 126.152344,137.117188 C125.644529,137.117188 125.195314,137.027345 124.804688,136.847656 C124.414061,136.667968 124.1084,136.416994 123.887695,136.094727 C123.666991,135.772459 123.556641,135.42383 123.556641,135.048828 L124.640625,135.048828 C124.660156,135.412111 124.805663,135.700194 125.077148,135.913086 C125.348634,136.125978 125.707029,136.232422 126.152344,136.232422 C126.562502,136.232422 126.8916,136.149415 127.139648,135.983398 C127.387697,135.817382 127.511719,135.595705 127.511719,135.318359 Z M129.720703,133.771484 C129.720703,133.150388 129.842772,132.591799 130.086914,132.095703 C130.331056,131.599607 130.670896,131.216798 131.106445,130.947266 C131.541994,130.677733 132.03906,130.542969 132.597656,130.542969 C133.460942,130.542969 134.159177,130.841794 134.692383,131.439453 C135.225589,132.037112 135.492188,132.832026 135.492188,133.824219 L135.492188,133.900391 C135.492188,134.517581 135.374025,135.071287 135.137695,135.561523 C134.901366,136.05176 134.563479,136.433592 134.124023,136.707031 C133.684568,136.98047 133.17969,137.117188 132.609375,137.117188 C131.749996,137.117188 131.053714,136.818362 130.520508,136.220703 C129.987302,135.623044 129.720703,134.832036 129.720703,133.847656 L129.720703,133.771484 Z M130.810547,133.900391 C130.810547,134.603519 130.973631,135.167967 131.299805,135.59375 C131.625978,136.019533 132.062497,136.232422 132.609375,136.232422 C133.160159,136.232422 133.597655,136.016604 133.921875,135.584961 C134.246095,135.153318 134.408203,134.548832 134.408203,133.771484 C134.408203,133.076168 134.243166,132.512697 133.913086,132.081055 C133.583006,131.649412 133.144534,131.433594 132.597656,131.433594 C132.062497,131.433594 131.630861,131.646482 131.302734,132.072266 C130.974608,132.498049 130.810547,133.107418 130.810547,133.900391 Z M139.916016,131.632812 C139.751952,131.605469 139.57422,131.591797 139.382812,131.591797 C138.671871,131.591797 138.189454,131.894528 137.935547,132.5 L137.935547,137 L136.851562,137 L136.851562,130.660156 L137.90625,130.660156 L137.923828,131.392578 C138.279299,130.826169 138.7832,130.542969 139.435547,130.542969 C139.646485,130.542969 139.80664,130.570312 139.916016,130.625 L139.916016,131.632812 Z M142.675781,129.125 L142.675781,130.660156 L143.859375,130.660156 L143.859375,131.498047 L142.675781,131.498047 L142.675781,135.429688 C142.675781,135.683595 142.728515,135.874023 142.833984,136.000977 C142.939454,136.12793 143.119139,136.191406 143.373047,136.191406 C143.498047,136.191406 143.669921,136.167969 143.888672,136.121094 L143.888672,137 C143.603514,137.078125 143.326173,137.117188 143.056641,137.117188 C142.572263,137.117188 142.207032,136.970705 141.960938,136.677734 C141.714843,136.384764 141.591797,135.968753 141.591797,135.429688 L141.591797,131.498047 L140.4375,131.498047 L140.4375,130.660156 L141.591797,130.660156 L141.591797,129.125 L142.675781,129.125 Z M147.755859,137.117188 C146.89648,137.117188 146.197268,136.834964 145.658203,136.270508 C145.119138,135.706052 144.849609,134.951177 144.849609,134.005859 L144.849609,133.806641 C144.849609,133.177731 144.969725,132.616213 145.209961,132.12207 C145.450197,131.627927 145.786131,131.241212 146.217773,130.961914 C146.649416,130.682616 147.117185,130.542969 147.621094,130.542969 C148.445317,130.542969 149.085935,130.81445 149.542969,131.357422 C150.000002,131.900393 150.228516,132.677729 150.228516,133.689453 L150.228516,134.140625 L145.933594,134.140625 C145.949219,134.765628 146.131834,135.270506 146.481445,135.655273 C146.831056,136.040041 147.275388,136.232422 147.814453,136.232422 C148.197268,136.232422 148.521483,136.154298 148.787109,135.998047 C149.052736,135.841796 149.285155,135.634767 149.484375,135.376953 L150.146484,135.892578 C149.615232,136.708988 148.818365,137.117188 147.755859,137.117188 Z M147.621094,131.433594 C147.183592,131.433594 146.816408,131.592772 146.519531,131.911133 C146.222655,132.229494 146.039063,132.675778 145.96875,133.25 L149.144531,133.25 L149.144531,133.167969 C149.113281,132.617185 148.964845,132.190431 148.699219,131.887695 C148.433592,131.584959 148.074221,131.433594 147.621094,131.433594 Z M151.21875,133.777344 C151.21875,132.804683 151.449216,132.022464 151.910156,131.430664 C152.371096,130.838864 152.974606,130.542969 153.720703,130.542969 C154.462894,130.542969 155.050779,130.796872 155.484375,131.304688 L155.484375,128 L156.568359,128 L156.568359,137 L155.572266,137 L155.519531,136.320312 C155.085935,136.851565 154.482426,137.117188 153.708984,137.117188 C152.974606,137.117188 152.375979,136.816409 151.913086,136.214844 C151.450193,135.613278 151.21875,134.82813 151.21875,133.859375 L151.21875,133.777344 Z M152.302734,133.900391 C152.302734,134.619144 152.45117,135.181639 152.748047,135.587891 C153.044923,135.994143 153.455076,136.197266 153.978516,136.197266 C154.666019,136.197266 155.167967,135.888675 155.484375,135.271484 L155.484375,132.359375 C155.160155,131.761716 154.662113,131.462891 153.990234,131.462891 C153.458982,131.462891 153.044923,131.667967 152.748047,132.078125 C152.45117,132.488283 152.302734,133.095699 152.302734,133.900391 Z M128.701172,148.773438 L125.126953,148.773438 L124.324219,151 L123.164062,151 L126.421875,142.46875 L127.40625,142.46875 L130.669922,151 L129.515625,151 L128.701172,148.773438 Z M125.466797,147.847656 L128.367188,147.847656 L126.914062,143.857422 L125.466797,147.847656 Z M135.339844,149.318359 C135.339844,149.025389 135.229493,148.797852 135.008789,148.635742 C134.788085,148.473632 134.403323,148.333985 133.854492,148.216797 C133.305661,148.099609 132.870119,147.958985 132.547852,147.794922 C132.225584,147.630859 131.987305,147.435548 131.833008,147.208984 C131.67871,146.982421 131.601562,146.712892 131.601562,146.400391 C131.601562,145.880857 131.821287,145.441408 132.260742,145.082031 C132.700198,144.722654 133.261715,144.542969 133.945312,144.542969 C134.664066,144.542969 135.247068,144.728514 135.694336,145.099609 C136.141604,145.470705 136.365234,145.94531 136.365234,146.523438 L135.275391,146.523438 C135.275391,146.226561 135.149415,145.970704 134.897461,145.755859 C134.645507,145.541015 134.328127,145.433594 133.945312,145.433594 C133.550779,145.433594 133.242189,145.51953 133.019531,145.691406 C132.796874,145.863282 132.685547,146.087889 132.685547,146.365234 C132.685547,146.626954 132.789061,146.824218 132.996094,146.957031 C133.203126,147.089844 133.577146,147.216796 134.118164,147.337891 C134.659182,147.458985 135.097655,147.603515 135.433594,147.771484 C135.769533,147.939454 136.018554,148.1416 136.180664,148.37793 C136.342774,148.614259 136.423828,148.902342 136.423828,149.242188 C136.423828,149.808597 136.197268,150.262694 135.744141,150.604492 C135.291013,150.946291 134.703129,151.117188 133.980469,151.117188 C133.472654,151.117188 133.023439,151.027345 132.632812,150.847656 C132.242186,150.667968 131.936525,150.416994 131.71582,150.094727 C131.495116,149.772459 131.384766,149.42383 131.384766,149.048828 L132.46875,149.048828 C132.488281,149.412111 132.633788,149.700194 132.905273,149.913086 C133.176759,150.125978 133.535154,150.232422 133.980469,150.232422 C134.390627,150.232422 134.719725,150.149415 134.967773,149.983398 C135.215822,149.817382 135.339844,149.595705 135.339844,149.318359 Z M140.378906,150.232422 C140.765627,150.232422 141.103514,150.115236 141.392578,149.880859 C141.681642,149.646483 141.841797,149.353517 141.873047,149.001953 L142.898438,149.001953 C142.878906,149.365236 142.753907,149.710936 142.523438,150.039062 C142.292968,150.367189 141.985353,150.628905 141.600586,150.824219 C141.215818,151.019532 140.808596,151.117188 140.378906,151.117188 C139.515621,151.117188 138.829104,150.829104 138.319336,150.25293 C137.809568,149.676755 137.554688,148.888677 137.554688,147.888672 L137.554688,147.707031 C137.554688,147.089841 137.667968,146.541018 137.894531,146.060547 C138.121095,145.580076 138.446287,145.207033 138.870117,144.941406 C139.293947,144.67578 139.794919,144.542969 140.373047,144.542969 C141.083988,144.542969 141.674802,144.755857 142.145508,145.181641 C142.616213,145.607424 142.867187,146.160153 142.898438,146.839844 L141.873047,146.839844 C141.841797,146.429685 141.686525,146.092775 141.407227,145.829102 C141.127928,145.565428 140.783205,145.433594 140.373047,145.433594 C139.822263,145.433594 139.395509,145.631834 139.092773,146.02832 C138.790038,146.424807 138.638672,146.998043 138.638672,147.748047 L138.638672,147.953125 C138.638672,148.683597 138.789061,149.246092 139.089844,149.640625 C139.390627,150.035158 139.82031,150.232422 140.378906,150.232422 Z M146.748047,151.117188 C145.888668,151.117188 145.189456,150.834964 144.650391,150.270508 C144.111325,149.706052 143.841797,148.951177 143.841797,148.005859 L143.841797,147.806641 C143.841797,147.177731 143.961913,146.616213 144.202148,146.12207 C144.442384,145.627927 144.778318,145.241212 145.209961,144.961914 C145.641604,144.682616 146.109372,144.542969 146.613281,144.542969 C147.437504,144.542969 148.078123,144.81445 148.535156,145.357422 C148.99219,145.900393 149.220703,146.677729 149.220703,147.689453 L149.220703,148.140625 L144.925781,148.140625 C144.941406,148.765628 145.124022,149.270506 145.473633,149.655273 C145.823244,150.040041 146.267575,150.232422 146.806641,150.232422 C147.189455,150.232422 147.513671,150.154298 147.779297,149.998047 C148.044923,149.841796 148.277343,149.634767 148.476562,149.376953 L149.138672,149.892578 C148.607419,150.708988 147.810552,151.117188 146.748047,151.117188 Z M146.613281,145.433594 C146.175779,145.433594 145.808595,145.592772 145.511719,145.911133 C145.214842,146.229494 145.03125,146.675778 144.960938,147.25 L148.136719,147.25 L148.136719,147.167969 C148.105469,146.617185 147.957033,146.190431 147.691406,145.887695 C147.42578,145.584959 147.066409,145.433594 146.613281,145.433594 Z M151.5,144.660156 L151.535156,145.457031 C152.019534,144.847653 152.65234,144.542969 153.433594,144.542969 C154.773444,144.542969 155.449219,145.298821 155.460938,146.810547 L155.460938,151 L154.376953,151 L154.376953,146.804688 C154.373047,146.347654 154.268556,146.009767 154.063477,145.791016 C153.858397,145.572265 153.539065,145.462891 153.105469,145.462891 C152.753904,145.462891 152.445314,145.55664 152.179688,145.744141 C151.914061,145.931642 151.707032,146.177733 151.558594,146.482422 L151.558594,151 L150.474609,151 L150.474609,144.660156 L151.5,144.660156 Z M156.832031,147.777344 C156.832031,146.804683 157.062498,146.022464 157.523438,145.430664 C157.984377,144.838864 158.587887,144.542969 159.333984,144.542969 C160.076176,144.542969 160.66406,144.796872 161.097656,145.304688 L161.097656,142 L162.181641,142 L162.181641,151 L161.185547,151 L161.132812,150.320312 C160.699217,150.851565 160.095707,151.117188 159.322266,151.117188 C158.587887,151.117188 157.98926,150.816409 157.526367,150.214844 C157.063474,149.613278 156.832031,148.82813 156.832031,147.859375 L156.832031,147.777344 Z M157.916016,147.900391 C157.916016,148.619144 158.064452,149.181639 158.361328,149.587891 C158.658205,149.994143 159.068357,150.197266 159.591797,150.197266 C160.2793,150.197266 160.781248,149.888675 161.097656,149.271484 L161.097656,146.359375 C160.773436,145.761716 160.275394,145.462891 159.603516,145.462891 C159.072263,145.462891 158.658205,145.667967 158.361328,146.078125 C158.064452,146.488283 157.916016,147.095699 157.916016,147.900391 Z M165.041016,151 L163.957031,151 L163.957031,144.660156 L165.041016,144.660156 L165.041016,151 Z M163.869141,142.978516 C163.869141,142.802733 163.922851,142.654297 164.030273,142.533203 C164.137696,142.412109 164.296874,142.351562 164.507812,142.351562 C164.718751,142.351562 164.878906,142.412109 164.988281,142.533203 C165.097657,142.654297 165.152344,142.802733 165.152344,142.978516 C165.152344,143.154298 165.097657,143.300781 164.988281,143.417969 C164.878906,143.535157 164.718751,143.59375 164.507812,143.59375 C164.296874,143.59375 164.137696,143.535157 164.030273,143.417969 C163.922851,143.300781 163.869141,143.154298 163.869141,142.978516 Z M167.800781,144.660156 L167.835938,145.457031 C168.320315,144.847653 168.953121,144.542969 169.734375,144.542969 C171.074225,144.542969 171.75,145.298821 171.761719,146.810547 L171.761719,151 L170.677734,151 L170.677734,146.804688 C170.673828,146.347654 170.569337,146.009767 170.364258,145.791016 C170.159179,145.572265 169.839846,145.462891 169.40625,145.462891 C169.054686,145.462891 168.746095,145.55664 168.480469,145.744141 C168.214842,145.931642 168.007813,146.177733 167.859375,146.482422 L167.859375,151 L166.775391,151 L166.775391,144.660156 L167.800781,144.660156 Z M173.138672,147.777344 C173.138672,146.789058 173.367185,146.002933 173.824219,145.418945 C174.281252,144.834958 174.886715,144.542969 175.640625,144.542969 C176.414066,144.542969 177.017576,144.816404 177.451172,145.363281 L177.503906,144.660156 L178.494141,144.660156 L178.494141,150.847656 C178.494141,151.667973 178.250979,152.314451 177.764648,152.787109 C177.278318,153.259768 176.625004,153.496094 175.804688,153.496094 C175.347654,153.496094 174.900393,153.398438 174.462891,153.203125 C174.025388,153.007812 173.691407,152.740236 173.460938,152.400391 L174.023438,151.75 C174.488284,152.324222 175.056637,152.611328 175.728516,152.611328 C176.255862,152.611328 176.666991,152.462892 176.961914,152.166016 C177.256837,151.869139 177.404297,151.451175 177.404297,150.912109 L177.404297,150.367188 C176.970701,150.86719 176.37891,151.117188 175.628906,151.117188 C174.886715,151.117188 174.286135,150.818362 173.827148,150.220703 C173.368162,149.623044 173.138672,148.808599 173.138672,147.777344 Z M174.228516,147.900391 C174.228516,148.615238 174.374999,149.176756 174.667969,149.584961 C174.960939,149.993166 175.371091,150.197266 175.898438,150.197266 C176.582035,150.197266 177.083983,149.886722 177.404297,149.265625 L177.404297,146.371094 C177.072264,145.765622 176.574222,145.462891 175.910156,145.462891 C175.38281,145.462891 174.970705,145.667967 174.673828,146.078125 C174.376952,146.488283 174.228516,147.095699 174.228516,147.900391 Z" id="Row-is-sorted-Ascend" fill="#EC407A"></path>
                    <path d="M493.119141,119.548828 L491.115234,119.548828 L491.115234,123 L489.984375,123 L489.984375,114.46875 L492.808594,114.46875 C493.769536,114.46875 494.508786,114.687498 495.026367,115.125 C495.543948,115.562502 495.802734,116.199215 495.802734,117.035156 C495.802734,117.566409 495.659181,118.029295 495.37207,118.423828 C495.08496,118.818361 494.685549,119.11328 494.173828,119.308594 L496.177734,122.929688 L496.177734,123 L494.970703,123 L493.119141,119.548828 Z M491.115234,118.628906 L492.84375,118.628906 C493.402347,118.628906 493.846678,118.484376 494.176758,118.195312 C494.506838,117.906249 494.671875,117.519534 494.671875,117.035156 C494.671875,116.50781 494.51465,116.103517 494.200195,115.822266 C493.885741,115.541014 493.431644,115.398438 492.837891,115.394531 L491.115234,115.394531 L491.115234,118.628906 Z M496.921875,119.771484 C496.921875,119.150388 497.043944,118.591799 497.288086,118.095703 C497.532228,117.599607 497.872068,117.216798 498.307617,116.947266 C498.743166,116.677733 499.240232,116.542969 499.798828,116.542969 C500.662114,116.542969 501.360349,116.841794 501.893555,117.439453 C502.42676,118.037112 502.693359,118.832026 502.693359,119.824219 L502.693359,119.900391 C502.693359,120.517581 502.575196,121.071287 502.338867,121.561523 C502.102538,122.05176 501.764651,122.433592 501.325195,122.707031 C500.88574,122.98047 500.380862,123.117188 499.810547,123.117188 C498.951168,123.117188 498.254885,122.818362 497.72168,122.220703 C497.188474,121.623044 496.921875,120.832036 496.921875,119.847656 L496.921875,119.771484 Z M498.011719,119.900391 C498.011719,120.603519 498.174803,121.167967 498.500977,121.59375 C498.82715,122.019533 499.263669,122.232422 499.810547,122.232422 C500.361331,122.232422 500.798827,122.016604 501.123047,121.584961 C501.447267,121.153318 501.609375,120.548832 501.609375,119.771484 C501.609375,119.076168 501.444338,118.512697 501.114258,118.081055 C500.784178,117.649412 500.345706,117.433594 499.798828,117.433594 C499.263669,117.433594 498.832033,117.646482 498.503906,118.072266 C498.17578,118.498049 498.011719,119.107418 498.011719,119.900391 Z M509.666016,121.505859 L510.884766,116.660156 L511.96875,116.660156 L510.123047,123 L509.244141,123 L507.703125,118.195312 L506.203125,123 L505.324219,123 L503.484375,116.660156 L504.5625,116.660156 L505.810547,121.40625 L507.287109,116.660156 L508.160156,116.660156 L509.666016,121.505859 Z M517.21875,123 L516.134766,123 L516.134766,116.660156 L517.21875,116.660156 L517.21875,123 Z M516.046875,114.978516 C516.046875,114.802733 516.100585,114.654297 516.208008,114.533203 C516.31543,114.412109 516.474608,114.351562 516.685547,114.351562 C516.896485,114.351562 517.05664,114.412109 517.166016,114.533203 C517.275391,114.654297 517.330078,114.802733 517.330078,114.978516 C517.330078,115.154298 517.275391,115.300781 517.166016,115.417969 C517.05664,115.535157 516.896485,115.59375 516.685547,115.59375 C516.474608,115.59375 516.31543,115.535157 516.208008,115.417969 C516.100585,115.300781 516.046875,115.154298 516.046875,114.978516 Z M522.644531,121.318359 C522.644531,121.025389 522.534181,120.797852 522.313477,120.635742 C522.092772,120.473632 521.708011,120.333985 521.15918,120.216797 C520.610349,120.099609 520.174806,119.958985 519.852539,119.794922 C519.530272,119.630859 519.291993,119.435548 519.137695,119.208984 C518.983398,118.982421 518.90625,118.712892 518.90625,118.400391 C518.90625,117.880857 519.125974,117.441408 519.56543,117.082031 C520.004885,116.722654 520.566403,116.542969 521.25,116.542969 C521.968754,116.542969 522.551756,116.728514 522.999023,117.099609 C523.446291,117.470705 523.669922,117.94531 523.669922,118.523438 L522.580078,118.523438 C522.580078,118.226561 522.454103,117.970704 522.202148,117.755859 C521.950194,117.541015 521.632814,117.433594 521.25,117.433594 C520.855467,117.433594 520.546876,117.51953 520.324219,117.691406 C520.101561,117.863282 519.990234,118.087889 519.990234,118.365234 C519.990234,118.626954 520.093749,118.824218 520.300781,118.957031 C520.507814,119.089844 520.881833,119.216796 521.422852,119.337891 C521.96387,119.458985 522.402342,119.603515 522.738281,119.771484 C523.07422,119.939454 523.323241,120.1416 523.485352,120.37793 C523.647462,120.614259 523.728516,120.902342 523.728516,121.242188 C523.728516,121.808597 523.501955,122.262694 523.048828,122.604492 C522.595701,122.946291 522.007816,123.117188 521.285156,123.117188 C520.777341,123.117188 520.328127,123.027345 519.9375,122.847656 C519.546873,122.667968 519.241212,122.416994 519.020508,122.094727 C518.799804,121.772459 518.689453,121.42383 518.689453,121.048828 L519.773438,121.048828 C519.792969,121.412111 519.938475,121.700194 520.209961,121.913086 C520.481447,122.125978 520.839842,122.232422 521.285156,122.232422 C521.695315,122.232422 522.024413,122.149415 522.272461,121.983398 C522.520509,121.817382 522.644531,121.595705 522.644531,121.318359 Z M529.289062,123 L528.205078,123 L528.205078,116.660156 L529.289062,116.660156 L529.289062,123 Z M528.117188,114.978516 C528.117188,114.802733 528.170898,114.654297 528.27832,114.533203 C528.385743,114.412109 528.544921,114.351562 528.755859,114.351562 C528.966798,114.351562 529.126953,114.412109 529.236328,114.533203 C529.345704,114.654297 529.400391,114.802733 529.400391,114.978516 C529.400391,115.154298 529.345704,115.300781 529.236328,115.417969 C529.126953,115.535157 528.966798,115.59375 528.755859,115.59375 C528.544921,115.59375 528.385743,115.535157 528.27832,115.417969 C528.170898,115.300781 528.117188,115.154298 528.117188,114.978516 Z M532.048828,116.660156 L532.083984,117.457031 C532.568362,116.847653 533.201168,116.542969 533.982422,116.542969 C535.322272,116.542969 535.998047,117.298821 536.009766,118.810547 L536.009766,123 L534.925781,123 L534.925781,118.804688 C534.921875,118.347654 534.817384,118.009767 534.612305,117.791016 C534.407226,117.572265 534.087893,117.462891 533.654297,117.462891 C533.302733,117.462891 532.994142,117.55664 532.728516,117.744141 C532.462889,117.931642 532.25586,118.177733 532.107422,118.482422 L532.107422,123 L531.023438,123 L531.023438,116.660156 L532.048828,116.660156 Z M490.904297,131.427734 C491.384768,130.837888 492.009762,130.542969 492.779297,130.542969 C494.119147,130.542969 494.794922,131.298821 494.806641,132.810547 L494.806641,137 L493.722656,137 L493.722656,132.804688 C493.71875,132.347654 493.614259,132.009767 493.40918,131.791016 C493.204101,131.572265 492.884768,131.462891 492.451172,131.462891 C492.099608,131.462891 491.791017,131.55664 491.525391,131.744141 C491.259764,131.931642 491.052735,132.177733 490.904297,132.482422 L490.904297,137 L489.820312,137 L489.820312,128 L490.904297,128 L490.904297,131.427734 Z M496.142578,133.771484 C496.142578,133.150388 496.264647,132.591799 496.508789,132.095703 C496.752931,131.599607 497.092771,131.216798 497.52832,130.947266 C497.963869,130.677733 498.460935,130.542969 499.019531,130.542969 C499.882817,130.542969 500.581052,130.841794 501.114258,131.439453 C501.647464,132.037112 501.914062,132.832026 501.914062,133.824219 L501.914062,133.900391 C501.914062,134.517581 501.7959,135.071287 501.55957,135.561523 C501.323241,136.05176 500.985354,136.433592 500.545898,136.707031 C500.106443,136.98047 499.601565,137.117188 499.03125,137.117188 C498.171871,137.117188 497.475589,136.818362 496.942383,136.220703 C496.409177,135.623044 496.142578,134.832036 496.142578,133.847656 L496.142578,133.771484 Z M497.232422,133.900391 C497.232422,134.603519 497.395506,135.167967 497.72168,135.59375 C498.047853,136.019533 498.484372,136.232422 499.03125,136.232422 C499.582034,136.232422 500.01953,136.016604 500.34375,135.584961 C500.66797,135.153318 500.830078,134.548832 500.830078,133.771484 C500.830078,133.076168 500.665041,132.512697 500.334961,132.081055 C500.004881,131.649412 499.566409,131.433594 499.019531,131.433594 C498.484372,131.433594 498.052736,131.646482 497.724609,132.072266 C497.396483,132.498049 497.232422,133.107418 497.232422,133.900391 Z M505.277344,135.529297 L506.847656,130.660156 L507.955078,130.660156 L505.681641,137 L504.855469,137 L502.558594,130.660156 L503.666016,130.660156 L505.277344,135.529297 Z M511.552734,137.117188 C510.693355,137.117188 509.994143,136.834964 509.455078,136.270508 C508.916013,135.706052 508.646484,134.951177 508.646484,134.005859 L508.646484,133.806641 C508.646484,133.177731 508.7666,132.616213 509.006836,132.12207 C509.247072,131.627927 509.583006,131.241212 510.014648,130.961914 C510.446291,130.682616 510.91406,130.542969 511.417969,130.542969 C512.242192,130.542969 512.88281,130.81445 513.339844,131.357422 C513.796877,131.900393 514.025391,132.677729 514.025391,133.689453 L514.025391,134.140625 L509.730469,134.140625 C509.746094,134.765628 509.928709,135.270506 510.27832,135.655273 C510.627931,136.040041 511.072263,136.232422 511.611328,136.232422 C511.994143,136.232422 512.318358,136.154298 512.583984,135.998047 C512.849611,135.841796 513.08203,135.634767 513.28125,135.376953 L513.943359,135.892578 C513.412107,136.708988 512.61524,137.117188 511.552734,137.117188 Z M511.417969,131.433594 C510.980467,131.433594 510.613283,131.592772 510.316406,131.911133 C510.01953,132.229494 509.835938,132.675778 509.765625,133.25 L512.941406,133.25 L512.941406,133.167969 C512.910156,132.617185 512.76172,132.190431 512.496094,131.887695 C512.230467,131.584959 511.871096,131.433594 511.417969,131.433594 Z M518.34375,131.632812 C518.179687,131.605469 518.001954,131.591797 517.810547,131.591797 C517.099606,131.591797 516.617189,131.894528 516.363281,132.5 L516.363281,137 L515.279297,137 L515.279297,130.660156 L516.333984,130.660156 L516.351562,131.392578 C516.707033,130.826169 517.210934,130.542969 517.863281,130.542969 C518.07422,130.542969 518.234374,130.570312 518.34375,130.625 L518.34375,131.632812 Z M493.511719,149.318359 C493.511719,149.025389 493.401368,148.797852 493.180664,148.635742 C492.95996,148.473632 492.575198,148.333985 492.026367,148.216797 C491.477536,148.099609 491.041994,147.958985 490.719727,147.794922 C490.397459,147.630859 490.15918,147.435548 490.004883,147.208984 C489.850585,146.982421 489.773438,146.712892 489.773438,146.400391 C489.773438,145.880857 489.993162,145.441408 490.432617,145.082031 C490.872073,144.722654 491.43359,144.542969 492.117188,144.542969 C492.835941,144.542969 493.418943,144.728514 493.866211,145.099609 C494.313479,145.470705 494.537109,145.94531 494.537109,146.523438 L493.447266,146.523438 C493.447266,146.226561 493.32129,145.970704 493.069336,145.755859 C492.817382,145.541015 492.500002,145.433594 492.117188,145.433594 C491.722654,145.433594 491.414064,145.51953 491.191406,145.691406 C490.968749,145.863282 490.857422,146.087889 490.857422,146.365234 C490.857422,146.626954 490.960936,146.824218 491.167969,146.957031 C491.375001,147.089844 491.749021,147.216796 492.290039,147.337891 C492.831057,147.458985 493.26953,147.603515 493.605469,147.771484 C493.941408,147.939454 494.190429,148.1416 494.352539,148.37793 C494.514649,148.614259 494.595703,148.902342 494.595703,149.242188 C494.595703,149.808597 494.369143,150.262694 493.916016,150.604492 C493.462888,150.946291 492.875004,151.117188 492.152344,151.117188 C491.644529,151.117188 491.195314,151.027345 490.804688,150.847656 C490.414061,150.667968 490.1084,150.416994 489.887695,150.094727 C489.666991,149.772459 489.556641,149.42383 489.556641,149.048828 L490.640625,149.048828 C490.660156,149.412111 490.805663,149.700194 491.077148,149.913086 C491.348634,150.125978 491.707029,150.232422 492.152344,150.232422 C492.562502,150.232422 492.8916,150.149415 493.139648,149.983398 C493.387697,149.817382 493.511719,149.595705 493.511719,149.318359 Z M497.478516,143.125 L497.478516,144.660156 L498.662109,144.660156 L498.662109,145.498047 L497.478516,145.498047 L497.478516,149.429688 C497.478516,149.683595 497.531249,149.874023 497.636719,150.000977 C497.742188,150.12793 497.921874,150.191406 498.175781,150.191406 C498.300782,150.191406 498.472655,150.167969 498.691406,150.121094 L498.691406,151 C498.406249,151.078125 498.128908,151.117188 497.859375,151.117188 C497.374998,151.117188 497.009767,150.970705 496.763672,150.677734 C496.517577,150.384764 496.394531,149.968753 496.394531,149.429688 L496.394531,145.498047 L495.240234,145.498047 L495.240234,144.660156 L496.394531,144.660156 L496.394531,143.125 L497.478516,143.125 Z M503.841797,151 C503.779297,150.874999 503.728516,150.652345 503.689453,150.332031 C503.185544,150.855471 502.583988,151.117188 501.884766,151.117188 C501.259762,151.117188 500.747072,150.940431 500.34668,150.586914 C499.946287,150.233397 499.746094,149.785159 499.746094,149.242188 C499.746094,148.582028 499.997068,148.069338 500.499023,147.704102 C501.000979,147.338865 501.707027,147.15625 502.617188,147.15625 L503.671875,147.15625 L503.671875,146.658203 C503.671875,146.279295 503.558595,145.97754 503.332031,145.75293 C503.105468,145.528319 502.771487,145.416016 502.330078,145.416016 C501.943357,145.416016 501.619142,145.513671 501.357422,145.708984 C501.095702,145.904298 500.964844,146.140624 500.964844,146.417969 L499.875,146.417969 C499.875,146.101561 499.987304,145.7959 500.211914,145.500977 C500.436525,145.206053 500.741209,144.972657 501.125977,144.800781 C501.510744,144.628905 501.933591,144.542969 502.394531,144.542969 C503.125004,144.542969 503.697264,144.725584 504.111328,145.09082 C504.525393,145.456057 504.740234,145.958981 504.755859,146.599609 L504.755859,149.517578 C504.755859,150.099612 504.830077,150.562498 504.978516,150.90625 L504.978516,151 L503.841797,151 Z M502.042969,150.173828 C502.382814,150.173828 502.705077,150.085938 503.009766,149.910156 C503.314455,149.734374 503.535156,149.505861 503.671875,149.224609 L503.671875,147.923828 L502.822266,147.923828 C501.494134,147.923828 500.830078,148.312496 500.830078,149.089844 C500.830078,149.429689 500.943358,149.695312 501.169922,149.886719 C501.396486,150.078126 501.687498,150.173828 502.042969,150.173828 Z M507.925781,143.125 L507.925781,144.660156 L509.109375,144.660156 L509.109375,145.498047 L507.925781,145.498047 L507.925781,149.429688 C507.925781,149.683595 507.978515,149.874023 508.083984,150.000977 C508.189454,150.12793 508.369139,150.191406 508.623047,150.191406 C508.748047,150.191406 508.919921,150.167969 509.138672,150.121094 L509.138672,151 C508.853514,151.078125 508.576173,151.117188 508.306641,151.117188 C507.822263,151.117188 507.457032,150.970705 507.210938,150.677734 C506.964843,150.384764 506.841797,149.968753 506.841797,149.429688 L506.841797,145.498047 L505.6875,145.498047 L505.6875,144.660156 L506.841797,144.660156 L506.841797,143.125 L507.925781,143.125 Z M513.005859,151.117188 C512.14648,151.117188 511.447268,150.834964 510.908203,150.270508 C510.369138,149.706052 510.099609,148.951177 510.099609,148.005859 L510.099609,147.806641 C510.099609,147.177731 510.219725,146.616213 510.459961,146.12207 C510.700197,145.627927 511.036131,145.241212 511.467773,144.961914 C511.899416,144.682616 512.367185,144.542969 512.871094,144.542969 C513.695317,144.542969 514.335935,144.81445 514.792969,145.357422 C515.250002,145.900393 515.478516,146.677729 515.478516,147.689453 L515.478516,148.140625 L511.183594,148.140625 C511.199219,148.765628 511.381834,149.270506 511.731445,149.655273 C512.081056,150.040041 512.525388,150.232422 513.064453,150.232422 C513.447268,150.232422 513.771483,150.154298 514.037109,149.998047 C514.302736,149.841796 514.535155,149.634767 514.734375,149.376953 L515.396484,149.892578 C514.865232,150.708988 514.068365,151.117188 513.005859,151.117188 Z M512.871094,145.433594 C512.433592,145.433594 512.066408,145.592772 511.769531,145.911133 C511.472655,146.229494 511.289063,146.675778 511.21875,147.25 L514.394531,147.25 L514.394531,147.167969 C514.363281,146.617185 514.214845,146.190431 513.949219,145.887695 C513.683592,145.584959 513.324221,145.433594 512.871094,145.433594 Z" id="Row-is-in-hover-stat" fill="#EC407A"></path>
                    <path d="M308.119141,239.548828 L306.115234,239.548828 L306.115234,243 L304.984375,243 L304.984375,234.46875 L307.808594,234.46875 C308.769536,234.46875 309.508786,234.687498 310.026367,235.125 C310.543948,235.562502 310.802734,236.199215 310.802734,237.035156 C310.802734,237.566409 310.659181,238.029295 310.37207,238.423828 C310.08496,238.818361 309.685549,239.11328 309.173828,239.308594 L311.177734,242.929688 L311.177734,243 L309.970703,243 L308.119141,239.548828 Z M306.115234,238.628906 L307.84375,238.628906 C308.402347,238.628906 308.846678,238.484376 309.176758,238.195312 C309.506838,237.906249 309.671875,237.519534 309.671875,237.035156 C309.671875,236.50781 309.51465,236.103517 309.200195,235.822266 C308.885741,235.541014 308.431644,235.398438 307.837891,235.394531 L306.115234,235.394531 L306.115234,238.628906 Z M311.921875,239.771484 C311.921875,239.150388 312.043944,238.591799 312.288086,238.095703 C312.532228,237.599607 312.872068,237.216798 313.307617,236.947266 C313.743166,236.677733 314.240232,236.542969 314.798828,236.542969 C315.662114,236.542969 316.360349,236.841794 316.893555,237.439453 C317.42676,238.037112 317.693359,238.832026 317.693359,239.824219 L317.693359,239.900391 C317.693359,240.517581 317.575196,241.071287 317.338867,241.561523 C317.102538,242.05176 316.764651,242.433592 316.325195,242.707031 C315.88574,242.98047 315.380862,243.117188 314.810547,243.117188 C313.951168,243.117188 313.254885,242.818362 312.72168,242.220703 C312.188474,241.623044 311.921875,240.832036 311.921875,239.847656 L311.921875,239.771484 Z M313.011719,239.900391 C313.011719,240.603519 313.174803,241.167967 313.500977,241.59375 C313.82715,242.019533 314.263669,242.232422 314.810547,242.232422 C315.361331,242.232422 315.798827,242.016604 316.123047,241.584961 C316.447267,241.153318 316.609375,240.548832 316.609375,239.771484 C316.609375,239.076168 316.444338,238.512697 316.114258,238.081055 C315.784178,237.649412 315.345706,237.433594 314.798828,237.433594 C314.263669,237.433594 313.832033,237.646482 313.503906,238.072266 C313.17578,238.498049 313.011719,239.107418 313.011719,239.900391 Z M324.666016,241.505859 L325.884766,236.660156 L326.96875,236.660156 L325.123047,243 L324.244141,243 L322.703125,238.195312 L321.203125,243 L320.324219,243 L318.484375,236.660156 L319.5625,236.660156 L320.810547,241.40625 L322.287109,236.660156 L323.160156,236.660156 L324.666016,241.505859 Z M332.21875,243 L331.134766,243 L331.134766,236.660156 L332.21875,236.660156 L332.21875,243 Z M331.046875,234.978516 C331.046875,234.802733 331.100585,234.654297 331.208008,234.533203 C331.31543,234.412109 331.474608,234.351562 331.685547,234.351562 C331.896485,234.351562 332.05664,234.412109 332.166016,234.533203 C332.275391,234.654297 332.330078,234.802733 332.330078,234.978516 C332.330078,235.154298 332.275391,235.300781 332.166016,235.417969 C332.05664,235.535157 331.896485,235.59375 331.685547,235.59375 C331.474608,235.59375 331.31543,235.535157 331.208008,235.417969 C331.100585,235.300781 331.046875,235.154298 331.046875,234.978516 Z M337.644531,241.318359 C337.644531,241.025389 337.534181,240.797852 337.313477,240.635742 C337.092772,240.473632 336.708011,240.333985 336.15918,240.216797 C335.610349,240.099609 335.174806,239.958985 334.852539,239.794922 C334.530272,239.630859 334.291993,239.435548 334.137695,239.208984 C333.983398,238.982421 333.90625,238.712892 333.90625,238.400391 C333.90625,237.880857 334.125974,237.441408 334.56543,237.082031 C335.004885,236.722654 335.566403,236.542969 336.25,236.542969 C336.968754,236.542969 337.551756,236.728514 337.999023,237.099609 C338.446291,237.470705 338.669922,237.94531 338.669922,238.523438 L337.580078,238.523438 C337.580078,238.226561 337.454103,237.970704 337.202148,237.755859 C336.950194,237.541015 336.632814,237.433594 336.25,237.433594 C335.855467,237.433594 335.546876,237.51953 335.324219,237.691406 C335.101561,237.863282 334.990234,238.087889 334.990234,238.365234 C334.990234,238.626954 335.093749,238.824218 335.300781,238.957031 C335.507814,239.089844 335.881833,239.216796 336.422852,239.337891 C336.96387,239.458985 337.402342,239.603515 337.738281,239.771484 C338.07422,239.939454 338.323241,240.1416 338.485352,240.37793 C338.647462,240.614259 338.728516,240.902342 338.728516,241.242188 C338.728516,241.808597 338.501955,242.262694 338.048828,242.604492 C337.595701,242.946291 337.007816,243.117188 336.285156,243.117188 C335.777341,243.117188 335.328127,243.027345 334.9375,242.847656 C334.546873,242.667968 334.241212,242.416994 334.020508,242.094727 C333.799804,241.772459 333.689453,241.42383 333.689453,241.048828 L334.773438,241.048828 C334.792969,241.412111 334.938475,241.700194 335.209961,241.913086 C335.481447,242.125978 335.839842,242.232422 336.285156,242.232422 C336.695315,242.232422 337.024413,242.149415 337.272461,241.983398 C337.520509,241.817382 337.644531,241.595705 337.644531,241.318359 Z M308.511719,255.318359 C308.511719,255.025389 308.401368,254.797852 308.180664,254.635742 C307.95996,254.473632 307.575198,254.333985 307.026367,254.216797 C306.477536,254.099609 306.041994,253.958985 305.719727,253.794922 C305.397459,253.630859 305.15918,253.435548 305.004883,253.208984 C304.850585,252.982421 304.773438,252.712892 304.773438,252.400391 C304.773438,251.880857 304.993162,251.441408 305.432617,251.082031 C305.872073,250.722654 306.43359,250.542969 307.117188,250.542969 C307.835941,250.542969 308.418943,250.728514 308.866211,251.099609 C309.313479,251.470705 309.537109,251.94531 309.537109,252.523438 L308.447266,252.523438 C308.447266,252.226561 308.32129,251.970704 308.069336,251.755859 C307.817382,251.541015 307.500002,251.433594 307.117188,251.433594 C306.722654,251.433594 306.414064,251.51953 306.191406,251.691406 C305.968749,251.863282 305.857422,252.087889 305.857422,252.365234 C305.857422,252.626954 305.960936,252.824218 306.167969,252.957031 C306.375001,253.089844 306.749021,253.216796 307.290039,253.337891 C307.831057,253.458985 308.26953,253.603515 308.605469,253.771484 C308.941408,253.939454 309.190429,254.1416 309.352539,254.37793 C309.514649,254.614259 309.595703,254.902342 309.595703,255.242188 C309.595703,255.808597 309.369143,256.262694 308.916016,256.604492 C308.462888,256.946291 307.875004,257.117188 307.152344,257.117188 C306.644529,257.117188 306.195314,257.027345 305.804688,256.847656 C305.414061,256.667968 305.1084,256.416994 304.887695,256.094727 C304.666991,255.772459 304.556641,255.42383 304.556641,255.048828 L305.640625,255.048828 C305.660156,255.412111 305.805663,255.700194 306.077148,255.913086 C306.348634,256.125978 306.707029,256.232422 307.152344,256.232422 C307.562502,256.232422 307.8916,256.149415 308.139648,255.983398 C308.387697,255.817382 308.511719,255.595705 308.511719,255.318359 Z M310.720703,253.771484 C310.720703,253.150388 310.842772,252.591799 311.086914,252.095703 C311.331056,251.599607 311.670896,251.216798 312.106445,250.947266 C312.541994,250.677733 313.03906,250.542969 313.597656,250.542969 C314.460942,250.542969 315.159177,250.841794 315.692383,251.439453 C316.225589,252.037112 316.492188,252.832026 316.492188,253.824219 L316.492188,253.900391 C316.492188,254.517581 316.374025,255.071287 316.137695,255.561523 C315.901366,256.05176 315.563479,256.433592 315.124023,256.707031 C314.684568,256.98047 314.17969,257.117188 313.609375,257.117188 C312.749996,257.117188 312.053714,256.818362 311.520508,256.220703 C310.987302,255.623044 310.720703,254.832036 310.720703,253.847656 L310.720703,253.771484 Z M311.810547,253.900391 C311.810547,254.603519 311.973631,255.167967 312.299805,255.59375 C312.625978,256.019533 313.062497,256.232422 313.609375,256.232422 C314.160159,256.232422 314.597655,256.016604 314.921875,255.584961 C315.246095,255.153318 315.408203,254.548832 315.408203,253.771484 C315.408203,253.076168 315.243166,252.512697 314.913086,252.081055 C314.583006,251.649412 314.144534,251.433594 313.597656,251.433594 C313.062497,251.433594 312.630861,251.646482 312.302734,252.072266 C311.974608,252.498049 311.810547,253.107418 311.810547,253.900391 Z M320.916016,251.632812 C320.751952,251.605469 320.57422,251.591797 320.382812,251.591797 C319.671871,251.591797 319.189454,251.894528 318.935547,252.5 L318.935547,257 L317.851562,257 L317.851562,250.660156 L318.90625,250.660156 L318.923828,251.392578 C319.279299,250.826169 319.7832,250.542969 320.435547,250.542969 C320.646485,250.542969 320.80664,250.570312 320.916016,250.625 L320.916016,251.632812 Z M323.675781,249.125 L323.675781,250.660156 L324.859375,250.660156 L324.859375,251.498047 L323.675781,251.498047 L323.675781,255.429688 C323.675781,255.683595 323.728515,255.874023 323.833984,256.000977 C323.939454,256.12793 324.119139,256.191406 324.373047,256.191406 C324.498047,256.191406 324.669921,256.167969 324.888672,256.121094 L324.888672,257 C324.603514,257.078125 324.326173,257.117188 324.056641,257.117188 C323.572263,257.117188 323.207032,256.970705 322.960938,256.677734 C322.714843,256.384764 322.591797,255.968753 322.591797,255.429688 L322.591797,251.498047 L321.4375,251.498047 L321.4375,250.660156 L322.591797,250.660156 L322.591797,249.125 L323.675781,249.125 Z M328.755859,257.117188 C327.89648,257.117188 327.197268,256.834964 326.658203,256.270508 C326.119138,255.706052 325.849609,254.951177 325.849609,254.005859 L325.849609,253.806641 C325.849609,253.177731 325.969725,252.616213 326.209961,252.12207 C326.450197,251.627927 326.786131,251.241212 327.217773,250.961914 C327.649416,250.682616 328.117185,250.542969 328.621094,250.542969 C329.445317,250.542969 330.085935,250.81445 330.542969,251.357422 C331.000002,251.900393 331.228516,252.677729 331.228516,253.689453 L331.228516,254.140625 L326.933594,254.140625 C326.949219,254.765628 327.131834,255.270506 327.481445,255.655273 C327.831056,256.040041 328.275388,256.232422 328.814453,256.232422 C329.197268,256.232422 329.521483,256.154298 329.787109,255.998047 C330.052736,255.841796 330.285155,255.634767 330.484375,255.376953 L331.146484,255.892578 C330.615232,256.708988 329.818365,257.117188 328.755859,257.117188 Z M328.621094,251.433594 C328.183592,251.433594 327.816408,251.592772 327.519531,251.911133 C327.222655,252.229494 327.039063,252.675778 326.96875,253.25 L330.144531,253.25 L330.144531,253.167969 C330.113281,252.617185 329.964845,252.190431 329.699219,251.887695 C329.433592,251.584959 329.074221,251.433594 328.621094,251.433594 Z M332.21875,253.777344 C332.21875,252.804683 332.449216,252.022464 332.910156,251.430664 C333.371096,250.838864 333.974606,250.542969 334.720703,250.542969 C335.462894,250.542969 336.050779,250.796872 336.484375,251.304688 L336.484375,248 L337.568359,248 L337.568359,257 L336.572266,257 L336.519531,256.320312 C336.085935,256.851565 335.482426,257.117188 334.708984,257.117188 C333.974606,257.117188 333.375979,256.816409 332.913086,256.214844 C332.450193,255.613278 332.21875,254.82813 332.21875,253.859375 L332.21875,253.777344 Z M333.302734,253.900391 C333.302734,254.619144 333.45117,255.181639 333.748047,255.587891 C334.044923,255.994143 334.455076,256.197266 334.978516,256.197266 C335.666019,256.197266 336.167967,255.888675 336.484375,255.271484 L336.484375,252.359375 C336.160155,251.761716 335.662113,251.462891 334.990234,251.462891 C334.458982,251.462891 334.044923,251.667967 333.748047,252.078125 C333.45117,252.488283 333.302734,253.095699 333.302734,253.900391 Z M304.990234,271 L304.990234,262.46875 L307.398438,262.46875 C308.140629,262.46875 308.796872,262.632811 309.367188,262.960938 C309.937503,263.289064 310.377928,263.755856 310.688477,264.361328 C310.999025,264.9668 311.15625,265.662105 311.160156,266.447266 L311.160156,266.992188 C311.160156,267.796879 311.004884,268.50195 310.694336,269.107422 C310.383788,269.712894 309.940433,270.177733 309.364258,270.501953 C308.788083,270.826173 308.117191,270.992187 307.351562,271 L304.990234,271 Z M306.115234,263.394531 L306.115234,270.080078 L307.298828,270.080078 C308.16602,270.080078 308.840818,269.81055 309.323242,269.271484 C309.805666,268.732419 310.046875,267.964849 310.046875,266.96875 L310.046875,266.470703 C310.046875,265.501948 309.819338,264.749026 309.364258,264.211914 C308.909177,263.674802 308.263676,263.402344 307.427734,263.394531 L306.115234,263.394531 Z M315.320312,271.117188 C314.460933,271.117188 313.761721,270.834964 313.222656,270.270508 C312.683591,269.706052 312.414062,268.951177 312.414062,268.005859 L312.414062,267.806641 C312.414062,267.177731 312.534178,266.616213 312.774414,266.12207 C313.01465,265.627927 313.350584,265.241212 313.782227,264.961914 C314.213869,264.682616 314.681638,264.542969 315.185547,264.542969 C316.00977,264.542969 316.650388,264.81445 317.107422,265.357422 C317.564455,265.900393 317.792969,266.677729 317.792969,267.689453 L317.792969,268.140625 L313.498047,268.140625 C313.513672,268.765628 313.696287,269.270506 314.045898,269.655273 C314.39551,270.040041 314.839841,270.232422 315.378906,270.232422 C315.761721,270.232422 316.085936,270.154298 316.351562,269.998047 C316.617189,269.841796 316.849608,269.634767 317.048828,269.376953 L317.710938,269.892578 C317.179685,270.708988 316.382818,271.117188 315.320312,271.117188 Z M315.185547,265.433594 C314.748045,265.433594 314.380861,265.592772 314.083984,265.911133 C313.787108,266.229494 313.603516,266.675778 313.533203,267.25 L316.708984,267.25 L316.708984,267.167969 C316.677734,266.617185 316.529298,266.190431 316.263672,265.887695 C315.998046,265.584959 315.638674,265.433594 315.185547,265.433594 Z M322.738281,269.318359 C322.738281,269.025389 322.627931,268.797852 322.407227,268.635742 C322.186522,268.473632 321.801761,268.333985 321.25293,268.216797 C320.704099,268.099609 320.268556,267.958985 319.946289,267.794922 C319.624022,267.630859 319.385743,267.435548 319.231445,267.208984 C319.077148,266.982421 319,266.712892 319,266.400391 C319,265.880857 319.219724,265.441408 319.65918,265.082031 C320.098635,264.722654 320.660153,264.542969 321.34375,264.542969 C322.062504,264.542969 322.645506,264.728514 323.092773,265.099609 C323.540041,265.470705 323.763672,265.94531 323.763672,266.523438 L322.673828,266.523438 C322.673828,266.226561 322.547853,265.970704 322.295898,265.755859 C322.043944,265.541015 321.726564,265.433594 321.34375,265.433594 C320.949217,265.433594 320.640626,265.51953 320.417969,265.691406 C320.195311,265.863282 320.083984,266.087889 320.083984,266.365234 C320.083984,266.626954 320.187499,266.824218 320.394531,266.957031 C320.601564,267.089844 320.975583,267.216796 321.516602,267.337891 C322.05762,267.458985 322.496092,267.603515 322.832031,267.771484 C323.16797,267.939454 323.416991,268.1416 323.579102,268.37793 C323.741212,268.614259 323.822266,268.902342 323.822266,269.242188 C323.822266,269.808597 323.595705,270.262694 323.142578,270.604492 C322.689451,270.946291 322.101566,271.117188 321.378906,271.117188 C320.871091,271.117188 320.421877,271.027345 320.03125,270.847656 C319.640623,270.667968 319.334962,270.416994 319.114258,270.094727 C318.893554,269.772459 318.783203,269.42383 318.783203,269.048828 L319.867188,269.048828 C319.886719,269.412111 320.032225,269.700194 320.303711,269.913086 C320.575197,270.125978 320.933592,270.232422 321.378906,270.232422 C321.789065,270.232422 322.118163,270.149415 322.366211,269.983398 C322.614259,269.817382 322.738281,269.595705 322.738281,269.318359 Z M327.777344,270.232422 C328.164064,270.232422 328.501952,270.115236 328.791016,269.880859 C329.08008,269.646483 329.240234,269.353517 329.271484,269.001953 L330.296875,269.001953 C330.277344,269.365236 330.152345,269.710936 329.921875,270.039062 C329.691405,270.367189 329.383791,270.628905 328.999023,270.824219 C328.614256,271.019532 328.207033,271.117188 327.777344,271.117188 C326.914058,271.117188 326.227542,270.829104 325.717773,270.25293 C325.208005,269.676755 324.953125,268.888677 324.953125,267.888672 L324.953125,267.707031 C324.953125,267.089841 325.066405,266.541018 325.292969,266.060547 C325.519532,265.580076 325.844724,265.207033 326.268555,264.941406 C326.692385,264.67578 327.193356,264.542969 327.771484,264.542969 C328.482425,264.542969 329.07324,264.755857 329.543945,265.181641 C330.014651,265.607424 330.265625,266.160153 330.296875,266.839844 L329.271484,266.839844 C329.240234,266.429685 329.084962,266.092775 328.805664,265.829102 C328.526366,265.565428 328.181643,265.433594 327.771484,265.433594 C327.2207,265.433594 326.793947,265.631834 326.491211,266.02832 C326.188475,266.424807 326.037109,266.998043 326.037109,267.748047 L326.037109,267.953125 C326.037109,268.683597 326.187498,269.246092 326.488281,269.640625 C326.789064,270.035158 327.218747,270.232422 327.777344,270.232422 Z M334.146484,271.117188 C333.287105,271.117188 332.587893,270.834964 332.048828,270.270508 C331.509763,269.706052 331.240234,268.951177 331.240234,268.005859 L331.240234,267.806641 C331.240234,267.177731 331.36035,266.616213 331.600586,266.12207 C331.840822,265.627927 332.176756,265.241212 332.608398,264.961914 C333.040041,264.682616 333.50781,264.542969 334.011719,264.542969 C334.835942,264.542969 335.47656,264.81445 335.933594,265.357422 C336.390627,265.900393 336.619141,266.677729 336.619141,267.689453 L336.619141,268.140625 L332.324219,268.140625 C332.339844,268.765628 332.522459,269.270506 332.87207,269.655273 C333.221681,270.040041 333.666013,270.232422 334.205078,270.232422 C334.587893,270.232422 334.912108,270.154298 335.177734,269.998047 C335.443361,269.841796 335.67578,269.634767 335.875,269.376953 L336.537109,269.892578 C336.005857,270.708988 335.20899,271.117188 334.146484,271.117188 Z M334.011719,265.433594 C333.574217,265.433594 333.207033,265.592772 332.910156,265.911133 C332.61328,266.229494 332.429688,266.675778 332.359375,267.25 L335.535156,267.25 L335.535156,267.167969 C335.503906,266.617185 335.35547,266.190431 335.089844,265.887695 C334.824217,265.584959 334.464846,265.433594 334.011719,265.433594 Z M338.898438,264.660156 L338.933594,265.457031 C339.417971,264.847653 340.050777,264.542969 340.832031,264.542969 C342.171882,264.542969 342.847656,265.298821 342.859375,266.810547 L342.859375,271 L341.775391,271 L341.775391,266.804688 C341.771484,266.347654 341.666993,266.009767 341.461914,265.791016 C341.256835,265.572265 340.937502,265.462891 340.503906,265.462891 C340.152342,265.462891 339.843751,265.55664 339.578125,265.744141 C339.312499,265.931642 339.105469,266.177733 338.957031,266.482422 L338.957031,271 L337.873047,271 L337.873047,264.660156 L338.898438,264.660156 Z M344.230469,267.777344 C344.230469,266.804683 344.460935,266.022464 344.921875,265.430664 C345.382815,264.838864 345.986324,264.542969 346.732422,264.542969 C347.474613,264.542969 348.062498,264.796872 348.496094,265.304688 L348.496094,262 L349.580078,262 L349.580078,271 L348.583984,271 L348.53125,270.320312 C348.097654,270.851565 347.494144,271.117188 346.720703,271.117188 C345.986324,271.117188 345.387698,270.816409 344.924805,270.214844 C344.461912,269.613278 344.230469,268.82813 344.230469,267.859375 L344.230469,267.777344 Z M345.314453,267.900391 C345.314453,268.619144 345.462889,269.181639 345.759766,269.587891 C346.056642,269.994143 346.466794,270.197266 346.990234,270.197266 C347.677738,270.197266 348.179686,269.888675 348.496094,269.271484 L348.496094,266.359375 C348.171873,265.761716 347.673831,265.462891 347.001953,265.462891 C346.4707,265.462891 346.056642,265.667967 345.759766,266.078125 C345.462889,266.488283 345.314453,267.095699 345.314453,267.900391 Z M352.439453,271 L351.355469,271 L351.355469,264.660156 L352.439453,264.660156 L352.439453,271 Z M351.267578,262.978516 C351.267578,262.802733 351.321289,262.654297 351.428711,262.533203 C351.536133,262.412109 351.695311,262.351562 351.90625,262.351562 C352.117189,262.351562 352.277343,262.412109 352.386719,262.533203 C352.496094,262.654297 352.550781,262.802733 352.550781,262.978516 C352.550781,263.154298 352.496094,263.300781 352.386719,263.417969 C352.277343,263.535157 352.117189,263.59375 351.90625,263.59375 C351.695311,263.59375 351.536133,263.535157 351.428711,263.417969 C351.321289,263.300781 351.267578,263.154298 351.267578,262.978516 Z M355.199219,264.660156 L355.234375,265.457031 C355.718752,264.847653 356.351559,264.542969 357.132812,264.542969 C358.472663,264.542969 359.148437,265.298821 359.160156,266.810547 L359.160156,271 L358.076172,271 L358.076172,266.804688 C358.072266,266.347654 357.967774,266.009767 357.762695,265.791016 C357.557616,265.572265 357.238283,265.462891 356.804688,265.462891 C356.453123,265.462891 356.144533,265.55664 355.878906,265.744141 C355.61328,265.931642 355.406251,266.177733 355.257812,266.482422 L355.257812,271 L354.173828,271 L354.173828,264.660156 L355.199219,264.660156 Z M360.537109,267.777344 C360.537109,266.789058 360.765623,266.002933 361.222656,265.418945 C361.67969,264.834958 362.285152,264.542969 363.039062,264.542969 C363.812504,264.542969 364.416013,264.816404 364.849609,265.363281 L364.902344,264.660156 L365.892578,264.660156 L365.892578,270.847656 C365.892578,271.667973 365.649416,272.314451 365.163086,272.787109 C364.676755,273.259768 364.023442,273.496094 363.203125,273.496094 C362.746091,273.496094 362.29883,273.398438 361.861328,273.203125 C361.423826,273.007812 361.089845,272.740236 360.859375,272.400391 L361.421875,271.75 C361.886721,272.324222 362.455075,272.611328 363.126953,272.611328 C363.6543,272.611328 364.065428,272.462892 364.360352,272.166016 C364.655275,271.869139 364.802734,271.451175 364.802734,270.912109 L364.802734,270.367188 C364.369138,270.86719 363.777348,271.117188 363.027344,271.117188 C362.285153,271.117188 361.684573,270.818362 361.225586,270.220703 C360.766599,269.623044 360.537109,268.808599 360.537109,267.777344 Z M361.626953,267.900391 C361.626953,268.615238 361.773436,269.176756 362.066406,269.584961 C362.359376,269.993166 362.769529,270.197266 363.296875,270.197266 C363.980472,270.197266 364.48242,269.886722 364.802734,269.265625 L364.802734,266.371094 C364.470701,265.765622 363.97266,265.462891 363.308594,265.462891 C362.781247,265.462891 362.369142,265.667967 362.072266,266.078125 C361.775389,266.488283 361.626953,267.095699 361.626953,267.900391 Z" id="Row-is-sorted-Descen" fill="#EC407A"></path>
                    <polyline id="Stroke-8-Copy-2" stroke="#EC3F7A" transform="translate(94.593766, 158.213867) rotate(-33.000000) translate(-94.593766, -158.213867) " points="65.593766 157.713867 93.784898 157.713867 123.593766 157.713867"></polyline>
                    <polyline id="Stroke-8-Copy-5" stroke="#EC3F7A" transform="translate(459.593766, 158.213867) rotate(-33.000000) translate(-459.593766, -158.213867) " points="430.593766 157.713867 458.784898 157.713867 488.593766 157.713867"></polyline>
                    <polyline id="Stroke-8-Copy-6" stroke="#EC3F7A" transform="translate(274.593766, 234.213867) rotate(33.000000) translate(-274.593766, -234.213867) " points="245.593766 233.713867 273.784898 233.713867 303.593766 233.713867"></polyline>
                    <g id="Group-4">
                        <g id="Table-Header">
                            <path d="M224.155273,13 L224.155273,3.046875 L226.964844,3.046875 C227.830733,3.046875 228.596351,3.23827934 229.261719,3.62109375 C229.927087,4.00390816 230.440916,4.54849907 230.803223,5.25488281 C231.165529,5.96126655 231.348958,6.77245636 231.353516,7.68847656 L231.353516,8.32421875 C231.353516,9.26302553 231.172365,10.0856084 230.810059,10.7919922 C230.447752,11.4983759 229.930505,12.0406882 229.258301,12.4189453 C228.586097,12.7972024 227.80339,12.9908854 226.910156,13 L224.155273,13 Z M225.467773,4.12695312 L225.467773,11.9267578 L226.848633,11.9267578 C227.860357,11.9267578 228.647621,11.6123078 229.210449,10.9833984 C229.773278,10.354489 230.054688,9.45899019 230.054688,8.296875 L230.054688,7.71582031 C230.054688,6.58560633 229.789228,5.70719714 229.258301,5.08056641 C228.727374,4.45393567 227.974289,4.13606775 226.999023,4.12695312 L225.467773,4.12695312 Z M238.961914,8.39941406 L234.648438,8.39941406 L234.648438,11.9267578 L239.65918,11.9267578 L239.65918,13 L233.335938,13 L233.335938,3.046875 L239.59082,3.046875 L239.59082,4.12695312 L234.648438,4.12695312 L234.648438,7.32617188 L238.961914,7.32617188 L238.961914,8.39941406 Z M244.225586,8.56347656 C243.099929,8.23990724 242.280764,7.84228751 241.768066,7.37060547 C241.255369,6.89892342 240.999023,6.31673523 240.999023,5.62402344 C240.999023,4.84016535 241.312334,4.19189709 241.938965,3.67919922 C242.565596,3.16650134 243.380203,2.91015625 244.382812,2.91015625 C245.06641,2.91015625 245.675941,3.04231639 246.211426,3.30664062 C246.74691,3.57096486 247.16162,3.93554455 247.455566,4.40039062 C247.749513,4.8652367 247.896484,5.37336964 247.896484,5.92480469 L246.577148,5.92480469 C246.577148,5.32323918 246.385744,4.8504249 246.00293,4.50634766 C245.620115,4.16227042 245.080082,3.99023438 244.382812,3.99023438 C243.735674,3.99023438 243.230959,4.13264832 242.868652,4.41748047 C242.506346,4.70231262 242.325195,5.09765372 242.325195,5.60351562 C242.325195,6.00911661 242.497231,6.35204938 242.841309,6.63232422 C243.185386,6.91259906 243.770992,7.16894415 244.598145,7.40136719 C245.425297,7.63379022 246.072426,7.89013532 246.539551,8.17041016 C247.006676,8.450685 247.353026,8.7776674 247.578613,9.15136719 C247.8042,9.52506697 247.916992,9.96484122 247.916992,10.4707031 C247.916992,11.2773478 247.602542,11.9233374 246.973633,12.4086914 C246.344723,12.8940454 245.503912,13.1367188 244.451172,13.1367188 C243.767575,13.1367188 243.12956,13.0056979 242.537109,12.7436523 C241.944658,12.4816068 241.487795,12.1227236 241.166504,11.6669922 C240.845213,11.2112607 240.68457,10.6940133 240.68457,10.1152344 L242.003906,10.1152344 C242.003906,10.7167999 242.226072,11.1918928 242.67041,11.5405273 C243.114748,11.8891619 243.70833,12.0634766 244.451172,12.0634766 C245.143884,12.0634766 245.674803,11.9222019 246.043945,11.6396484 C246.413088,11.3570949 246.597656,10.9720076 246.597656,10.484375 C246.597656,9.99674235 246.42676,9.61963024 246.084961,9.35302734 C245.743162,9.08642445 245.123377,8.82324349 244.225586,8.56347656 Z M256.919922,9.84179688 C256.796874,10.8945365 256.408369,11.7068656 255.754395,12.2788086 C255.10042,12.8507516 254.231125,13.1367188 253.146484,13.1367188 C251.970697,13.1367188 251.028487,12.7151735 250.319824,11.8720703 C249.611162,11.0289671 249.256836,9.90104873 249.256836,8.48828125 L249.256836,7.53125 C249.256836,6.60611517 249.422036,5.79264674 249.752441,5.09082031 C250.082847,4.38899389 250.551104,3.85009954 251.157227,3.47412109 C251.763349,3.09814265 252.465165,2.91015625 253.262695,2.91015625 C254.319992,2.91015625 255.16764,3.20523793 255.805664,3.79541016 C256.443688,4.38558238 256.815104,5.20246874 256.919922,6.24609375 L255.600586,6.24609375 C255.486653,5.45312104 255.239422,4.87890803 254.858887,4.5234375 C254.478351,4.16796697 253.946292,3.99023438 253.262695,3.99023438 C252.424149,3.99023438 251.766767,4.30012711 251.290527,4.91992188 C250.814288,5.53971664 250.576172,6.42154376 250.576172,7.56542969 L250.576172,8.52929688 C250.576172,9.6093804 250.801756,10.4684213 251.25293,11.1064453 C251.704104,11.7444693 252.335282,12.0634766 253.146484,12.0634766 C253.875655,12.0634766 254.435057,11.8982764 254.824707,11.5678711 C255.214357,11.2374658 255.472981,10.6621135 255.600586,9.84179688 L256.919922,9.84179688 Z M264.336914,8.39941406 L260.023438,8.39941406 L260.023438,11.9267578 L265.03418,11.9267578 L265.03418,13 L258.710938,13 L258.710938,3.046875 L264.96582,3.046875 L264.96582,4.12695312 L260.023438,4.12695312 L260.023438,7.32617188 L264.336914,7.32617188 L264.336914,8.39941406 Z M274.317383,13 L272.998047,13 L267.987305,5.33007812 L267.987305,13 L266.667969,13 L266.667969,3.046875 L267.987305,3.046875 L273.011719,10.7509766 L273.011719,3.046875 L274.317383,3.046875 L274.317383,13 Z M276.648438,13 L276.648438,3.046875 L279.458008,3.046875 C280.323898,3.046875 281.089515,3.23827934 281.754883,3.62109375 C282.420251,4.00390816 282.93408,4.54849907 283.296387,5.25488281 C283.658693,5.96126655 283.842122,6.77245636 283.84668,7.68847656 L283.84668,8.32421875 C283.84668,9.26302553 283.665529,10.0856084 283.303223,10.7919922 C282.940916,11.4983759 282.423669,12.0406882 281.751465,12.4189453 C281.079261,12.7972024 280.296554,12.9908854 279.40332,13 L276.648438,13 Z M277.960938,4.12695312 L277.960938,11.9267578 L279.341797,11.9267578 C280.353521,11.9267578 281.140785,11.6123078 281.703613,10.9833984 C282.266442,10.354489 282.547852,9.45899019 282.547852,8.296875 L282.547852,7.71582031 C282.547852,6.58560633 282.282392,5.70719714 281.751465,5.08056641 C281.220538,4.45393567 280.467453,4.13606775 279.492188,4.12695312 L277.960938,4.12695312 Z M287.237305,13 L285.924805,13 L285.924805,3.046875 L287.237305,3.046875 L287.237305,13 Z M297.286133,13 L295.966797,13 L290.956055,5.33007812 L290.956055,13 L289.636719,13 L289.636719,3.046875 L290.956055,3.046875 L295.980469,10.7509766 L295.980469,3.046875 L297.286133,3.046875 L297.286133,13 Z M306.96582,11.6943359 C306.628579,12.1774113 306.158043,12.538573 305.554199,12.777832 C304.950355,13.017091 304.2474,13.1367188 303.445312,13.1367188 C302.634111,13.1367188 301.914066,12.9464537 301.285156,12.565918 C300.656247,12.1853822 300.169761,11.6442092 299.825684,10.9423828 C299.481606,10.2405564 299.305013,9.42708796 299.295898,8.50195312 L299.295898,7.63378906 C299.295898,6.13443261 299.645667,4.97233485 300.345215,4.14746094 C301.044763,3.32258702 302.027988,2.91015625 303.294922,2.91015625 C304.33399,2.91015625 305.170244,3.17561583 305.803711,3.70654297 C306.437178,4.2374701 306.824544,4.99055502 306.96582,5.96582031 L305.65332,5.96582031 C305.407225,4.64875644 304.623379,3.99023438 303.301758,3.99023438 C302.422196,3.99023438 301.755699,4.2989878 301.302246,4.91650391 C300.848793,5.53402001 300.619792,6.42837956 300.615234,7.59960938 L300.615234,8.41308594 C300.615234,9.52962798 300.87044,10.4171517 301.380859,11.0756836 C301.891279,11.7342155 302.581701,12.0634766 303.452148,12.0634766 C303.944338,12.0634766 304.374998,12.0087896 304.744141,11.8994141 C305.113283,11.7900385 305.418619,11.60547 305.660156,11.3457031 L305.660156,9.11035156 L303.356445,9.11035156 L303.356445,8.04394531 L306.96582,8.04394531 L306.96582,11.6943359 Z" id="Column-3-Label" fill="#333333"></path>
                            <path d="M29.6513672,10.4023438 L25.4814453,10.4023438 L24.5449219,13 L23.1914062,13 L26.9921875,3.046875 L28.140625,3.046875 L31.9482422,13 L30.6015625,13 L29.6513672,10.4023438 Z M25.8779297,9.32226562 L29.2617188,9.32226562 L27.5664062,4.66699219 L25.8779297,9.32226562 Z M36.2207031,8.56347656 C35.0950465,8.23990724 34.2758815,7.84228751 33.7631836,7.37060547 C33.2504857,6.89892342 32.9941406,6.31673523 32.9941406,5.62402344 C32.9941406,4.84016535 33.3074513,4.19189709 33.934082,3.67919922 C34.5607128,3.16650134 35.3753205,2.91015625 36.3779297,2.91015625 C37.0615269,2.91015625 37.6710585,3.04231639 38.206543,3.30664062 C38.7420274,3.57096486 39.1567368,3.93554455 39.4506836,4.40039062 C39.7446304,4.8652367 39.8916016,5.37336964 39.8916016,5.92480469 L38.5722656,5.92480469 C38.5722656,5.32323918 38.3808613,4.8504249 37.9980469,4.50634766 C37.6152325,4.16227042 37.0751988,3.99023438 36.3779297,3.99023438 C35.730791,3.99023438 35.226076,4.13264832 34.8637695,4.41748047 C34.501463,4.70231262 34.3203125,5.09765372 34.3203125,5.60351562 C34.3203125,6.00911661 34.4923485,6.35204938 34.8364258,6.63232422 C35.180503,6.91259906 35.7661091,7.16894415 36.5932617,7.40136719 C37.4204143,7.63379022 38.0675432,7.89013532 38.534668,8.17041016 C39.0017927,8.450685 39.3481434,8.7776674 39.5737305,9.15136719 C39.7993175,9.52506697 39.9121094,9.96484122 39.9121094,10.4707031 C39.9121094,11.2773478 39.5976594,11.9233374 38.96875,12.4086914 C38.3398406,12.8940454 37.4990287,13.1367188 36.4462891,13.1367188 C35.7626919,13.1367188 35.1246774,13.0056979 34.5322266,12.7436523 C33.9397757,12.4816068 33.4829118,12.1227236 33.1616211,11.6669922 C32.8403304,11.2112607 32.6796875,10.6940133 32.6796875,10.1152344 L33.9990234,10.1152344 C33.9990234,10.7167999 34.2211892,11.1918928 34.6655273,11.5405273 C35.1098655,11.8891619 35.7034468,12.0634766 36.4462891,12.0634766 C37.1390009,12.0634766 37.66992,11.9222019 38.0390625,11.6396484 C38.408205,11.3570949 38.5927734,10.9720076 38.5927734,10.484375 C38.5927734,9.99674235 38.4218767,9.61963024 38.0800781,9.35302734 C37.7382795,9.08642445 37.1184941,8.82324349 36.2207031,8.56347656 Z M48.9150391,9.84179688 C48.7919916,10.8945365 48.4034863,11.7068656 47.7495117,12.2788086 C47.0955371,12.8507516 46.2262424,13.1367188 45.1416016,13.1367188 C43.9658144,13.1367188 43.0236038,12.7151735 42.3149414,11.8720703 C41.606279,11.0289671 41.2519531,9.90104873 41.2519531,8.48828125 L41.2519531,7.53125 C41.2519531,6.60611517 41.4171533,5.79264674 41.7475586,5.09082031 C42.0779639,4.38899389 42.5462209,3.85009954 43.1523438,3.47412109 C43.7584666,3.09814265 44.4602825,2.91015625 45.2578125,2.91015625 C46.3151095,2.91015625 47.1627572,3.20523793 47.8007812,3.79541016 C48.4388053,4.38558238 48.8102208,5.20246874 48.9150391,6.24609375 L47.5957031,6.24609375 C47.4817703,5.45312104 47.2345397,4.87890803 46.8540039,4.5234375 C46.4734681,4.16796697 45.9414097,3.99023438 45.2578125,3.99023438 C44.4192666,3.99023438 43.7618839,4.30012711 43.2856445,4.91992188 C42.8094052,5.53971664 42.5712891,6.42154376 42.5712891,7.56542969 L42.5712891,8.52929688 C42.5712891,9.6093804 42.7968727,10.4684213 43.2480469,11.1064453 C43.699221,11.7444693 44.3303996,12.0634766 45.1416016,12.0634766 C45.8707719,12.0634766 46.4301738,11.8982764 46.8198242,11.5678711 C47.2094746,11.2374658 47.4680983,10.6621135 47.5957031,9.84179688 L48.9150391,9.84179688 Z M56.3320312,8.39941406 L52.0185547,8.39941406 L52.0185547,11.9267578 L57.0292969,11.9267578 L57.0292969,13 L50.7060547,13 L50.7060547,3.046875 L56.9609375,3.046875 L56.9609375,4.12695312 L52.0185547,4.12695312 L52.0185547,7.32617188 L56.3320312,7.32617188 L56.3320312,8.39941406 Z M66.3125,13 L64.9931641,13 L59.9824219,5.33007812 L59.9824219,13 L58.6630859,13 L58.6630859,3.046875 L59.9824219,3.046875 L65.0068359,10.7509766 L65.0068359,3.046875 L66.3125,3.046875 L66.3125,13 Z M68.6435547,13 L68.6435547,3.046875 L71.453125,3.046875 C72.3190147,3.046875 73.0846321,3.23827934 73.75,3.62109375 C74.4153679,4.00390816 74.9291974,4.54849907 75.2915039,5.25488281 C75.6538104,5.96126655 75.8372396,6.77245636 75.8417969,7.68847656 L75.8417969,8.32421875 C75.8417969,9.26302553 75.6606463,10.0856084 75.2983398,10.7919922 C74.9360333,11.4983759 74.4187859,12.0406882 73.746582,12.4189453 C73.0743781,12.7972024 72.2916711,12.9908854 71.3984375,13 L68.6435547,13 Z M69.9560547,4.12695312 L69.9560547,11.9267578 L71.3369141,11.9267578 C72.3486379,11.9267578 73.1359021,11.6123078 73.6987305,10.9833984 C74.2615588,10.354489 74.5429688,9.45899019 74.5429688,8.296875 L74.5429688,7.71582031 C74.5429688,6.58560633 74.2775092,5.70719714 73.746582,5.08056641 C73.2156549,4.45393567 72.46257,4.13606775 71.4873047,4.12695312 L69.9560547,4.12695312 Z M79.2324219,13 L77.9199219,13 L77.9199219,3.046875 L79.2324219,3.046875 L79.2324219,13 Z M89.28125,13 L87.9619141,13 L82.9511719,5.33007812 L82.9511719,13 L81.6318359,13 L81.6318359,3.046875 L82.9511719,3.046875 L87.9755859,10.7509766 L87.9755859,3.046875 L89.28125,3.046875 L89.28125,13 Z M98.9609375,11.6943359 C98.6236962,12.1774113 98.1531606,12.538573 97.5493164,12.777832 C96.9454722,13.017091 96.242517,13.1367188 95.4404297,13.1367188 C94.6292277,13.1367188 93.9091828,12.9464537 93.2802734,12.565918 C92.651364,12.1853822 92.164878,11.6442092 91.8208008,10.9423828 C91.4767235,10.2405564 91.3001303,9.42708796 91.2910156,8.50195312 L91.2910156,7.63378906 C91.2910156,6.13443261 91.6407843,4.97233485 92.340332,4.14746094 C93.0398798,3.32258702 94.0231056,2.91015625 95.2900391,2.91015625 C96.3291068,2.91015625 97.1653614,3.17561583 97.7988281,3.70654297 C98.4322948,4.2374701 98.8196608,4.99055502 98.9609375,5.96582031 L97.6484375,5.96582031 C97.4023425,4.64875644 96.6184962,3.99023438 95.296875,3.99023438 C94.4173133,3.99023438 93.7508161,4.2989878 93.2973633,4.91650391 C92.8439105,5.53402001 92.6149089,6.42837956 92.6103516,7.59960938 L92.6103516,8.41308594 C92.6103516,9.52962798 92.8655573,10.4171517 93.3759766,11.0756836 C93.8863958,11.7342155 94.5768186,12.0634766 95.4472656,12.0634766 C95.9394556,12.0634766 96.3701153,12.0087896 96.7392578,11.8994141 C97.1084003,11.7900385 97.4137358,11.60547 97.6552734,11.3457031 L97.6552734,9.11035156 L95.3515625,9.11035156 L95.3515625,8.04394531 L98.9609375,8.04394531 L98.9609375,11.6943359 Z" id="Column-2-Label" fill="#333333"></path>
                            <path d="M444.804688,13 L443.485352,13 L443.485352,8.39941406 L438.467773,8.39941406 L438.467773,13 L437.155273,13 L437.155273,3.046875 L438.467773,3.046875 L438.467773,7.32617188 L443.485352,7.32617188 L443.485352,3.046875 L444.804688,3.046875 L444.804688,13 Z M454.791992,8.34472656 C454.791992,9.31999186 454.627931,10.1710576 454.299805,10.8979492 C453.971678,11.6248409 453.506839,12.1796856 452.905273,12.5625 C452.303708,12.9453144 451.601892,13.1367188 450.799805,13.1367188 C450.015947,13.1367188 449.320967,12.9441751 448.714844,12.559082 C448.108721,12.173989 447.638185,11.6248408 447.303223,10.9116211 C446.96826,10.1984014 446.796224,9.37240053 446.787109,8.43359375 L446.787109,7.71582031 C446.787109,6.75878428 446.953449,5.91341513 447.286133,5.1796875 C447.618817,4.44595987 448.089352,3.88427929 448.697754,3.49462891 C449.306155,3.10497852 450.002275,2.91015625 450.786133,2.91015625 C451.583663,2.91015625 452.286618,3.1026999 452.89502,3.48779297 C453.503421,3.87288604 453.971678,4.43114869 454.299805,5.16259766 C454.627931,5.89404663 454.791992,6.74511233 454.791992,7.71582031 L454.791992,8.34472656 Z M453.486328,7.70214844 C453.486328,6.52180399 453.249351,5.61605133 452.775391,4.98486328 C452.30143,4.35367523 451.638351,4.03808594 450.786133,4.03808594 C449.956702,4.03808594 449.303876,4.35367523 448.827637,4.98486328 C448.351397,5.61605133 448.106445,6.49218189 448.092773,7.61328125 L448.092773,8.34472656 C448.092773,9.48861249 448.333168,10.3875293 448.813965,11.0415039 C449.294762,11.6954785 449.956702,12.0224609 450.799805,12.0224609 C451.647465,12.0224609 452.303709,11.7137075 452.768555,11.0961914 C453.233401,10.4786753 453.472656,9.59343024 453.486328,8.44042969 L453.486328,7.70214844 Z M459.905273,11.2568359 L462.749023,3.046875 L464.18457,3.046875 L460.493164,13 L459.331055,13 L455.646484,3.046875 L457.075195,3.046875 L459.905273,11.2568359 Z M471.143555,8.39941406 L466.830078,8.39941406 L466.830078,11.9267578 L471.84082,11.9267578 L471.84082,13 L465.517578,13 L465.517578,3.046875 L471.772461,3.046875 L471.772461,4.12695312 L466.830078,4.12695312 L466.830078,7.32617188 L471.143555,7.32617188 L471.143555,8.39941406 Z M477.125,8.97363281 L474.787109,8.97363281 L474.787109,13 L473.467773,13 L473.467773,3.046875 L476.762695,3.046875 C477.883795,3.046875 478.746253,3.30208078 479.350098,3.8125 C479.953942,4.32291922 480.255859,5.06575033 480.255859,6.04101562 C480.255859,6.66081039 480.088381,7.20084405 479.753418,7.66113281 C479.418455,8.12142157 478.952477,8.46549365 478.355469,8.69335938 L480.693359,12.9179688 L480.693359,13 L479.285156,13 L477.125,8.97363281 Z M474.787109,7.90039062 L476.803711,7.90039062 C477.455407,7.90039062 477.973794,7.73177252 478.358887,7.39453125 C478.74398,7.05728998 478.936523,6.60612262 478.936523,6.04101562 C478.936523,5.42577817 478.753094,4.9541032 478.38623,4.62597656 C478.019367,4.29784992 477.489587,4.13151044 476.796875,4.12695312 L474.787109,4.12695312 L474.787109,7.90039062 Z" id="Column-2-Label-Copy" fill="#333333"></path>
                            <path d="M0.303358301,32 C0.303358301,32 182.400663,32 546.595273,32" id="Line" stroke="#E0E0E0" stroke-linecap="square"></path>
                        </g>
                        <path d="M493.243573,8.1471697 L493.243573,4.9919739 L494.948587,6.78418815 L496,5.67900239 L492.5,2 L489,5.67900239 L490.051413,6.78418815 L491.756427,4.9919739 L491.756427,8.1471697 L491.756427,11.2943394 L490.051413,9.6736289 L489,10.6730553 L492.5,14 L496,10.6730553 L494.948587,9.6736289 L493.243573,11.2943394 L493.243573,8.1471697 Z" id="Combined-Shape-Copy-5" fill="#000000"></path>
                        <g id="specs-/-spacing-/-inline-/-V-08px" transform="translate(99.000000, 3.000000)">
                            <rect id="Rectangle-5-Copy-19" fill="#90D5B2" fill-rule="evenodd" x="0" y="0" width="8" height="10"></rect>
                            <text id="8-copy-12" font-family="Roboto-Regular, Roboto" font-size="12" font-weight="normal" fill="#333333">
                                <tspan x="1" y="7.8">8</tspan>
                            </text>
                        </g>
                        <g id="specs-/-spacing-/-inline-/-V-08px" transform="translate(307.000000, 3.000000)">
                            <rect id="Rectangle-5-Copy-19" fill="#90D5B2" fill-rule="evenodd" x="0" y="0" width="8" height="10"></rect>
                            <text id="8-copy-12" font-family="Roboto-Regular, Roboto" font-size="12" font-weight="normal" fill="#333333">
                                <tspan x="1" y="7.8">8</tspan>
                            </text>
                        </g>
                        <polygon id="Fill-1-Copy-3" fill="#000000" points="318.5 2 315 5.66446088 316.051413 6.76527832 317.756427 4.98014792 317.756427 14 319.243573 14 319.243573 4.98014792 320.948587 6.76527832 322 5.66446088"></polygon>
                        <polygon id="Fill-2-Copy" fill="#000000" points="109.756427 2 109.756427 11.0198521 108.051413 9.23472168 107 10.3355391 110.5 14 114 10.3355391 112.948587 9.23472168 111.243573 11.0198521 111.243573 2"></polygon>
                        <g id="specs-/-spacing-/-inline-/-V-08px" transform="translate(481.000000, 3.000000)">
                            <rect id="Rectangle-5-Copy-19" fill="#90D5B2" fill-rule="evenodd" x="0" y="0" width="8" height="10"></rect>
                            <text id="8-copy-12" font-family="Roboto-Regular, Roboto" font-size="12" font-weight="normal" fill="#333333">
                                <tspan x="1" y="7.8">8</tspan>
                            </text>
                        </g>
                    </g>
                </g>
            </g>
        </g>
    </g>
</svg>