<?xml version="1.0" encoding="UTF-8" standalone="no"?>
<svg width="634px" height="385px" viewBox="0 0 634 385" version="1.1" xmlns="http://www.w3.org/2000/svg" xmlns:xlink="http://www.w3.org/1999/xlink">
    <!-- Generator: Sketch 47.1 (45422) - http://www.bohemiancoding.com/sketch -->
    <title>tables-actions-spacing</title>
    <desc>Created with Sketch.</desc>
    <defs>
        <rect id="path-1" x="183" y="118" width="12.8" height="12.8"></rect>
    </defs>
    <g id="Page-1" stroke="none" stroke-width="1" fill="none" fill-rule="evenodd">
        <g id="tables-actions-spacing">
            <g id="specs-/-spacing-/-internal-/-V-20px" transform="translate(167.000000, 220.000000)">
                <rect id="Rectangle-5-Copy-12" fill="#F8CC96" fill-rule="evenodd" x="0" y="0" width="16" height="47"></rect>
                <text id="20-copy-9" font-family="Roboto-Regular, Roboto" font-size="12" font-weight="normal" fill="#333333">
                    <tspan x="1.26171875" y="25.56">20</tspan>
                </text>
            </g>
            <g id="specs-/-spacing-/-internal-/-V-20px" transform="translate(196.000000, 220.000000)">
                <rect id="Rectangle-5-Copy-12" fill="#F8CC96" fill-rule="evenodd" x="0" y="0" width="16" height="47"></rect>
                <text id="20-copy-9" font-family="Roboto-Regular, Roboto" font-size="12" font-weight="normal" fill="#333333">
                    <tspan x="1.26171875" y="25.56">20</tspan>
                </text>
            </g>
            <path d="M245.78125,81.2734375 C245.682812,82.1156292 245.372008,82.7654925 244.848828,83.2230469 C244.325648,83.6806012 243.630213,83.909375 242.7625,83.909375 C241.82187,83.909375 241.068102,83.5721388 240.501172,82.8976562 C239.934242,82.2231737 239.650781,81.320839 239.650781,80.190625 L239.650781,79.425 C239.650781,78.6848921 239.782941,78.0341174 240.047266,77.4726562 C240.31159,76.9111951 240.686195,76.4800796 241.171094,76.1792969 C241.655992,75.8785141 242.217445,75.728125 242.855469,75.728125 C243.701306,75.728125 244.379425,75.9641903 244.889844,76.4363281 C245.400263,76.9084659 245.697395,77.561975 245.78125,78.396875 L244.725781,78.396875 C244.634635,77.7624968 244.43685,77.3031264 244.132422,77.01875 C243.827993,76.7343736 243.402346,76.5921875 242.855469,76.5921875 C242.184632,76.5921875 241.658726,76.8401017 241.277734,77.3359375 C240.896743,77.8317733 240.70625,78.537235 240.70625,79.4523437 L240.70625,80.2234375 C240.70625,81.0875043 240.886717,81.774737 241.247656,82.2851562 C241.608596,82.7955755 242.113538,83.0507812 242.7625,83.0507812 C243.345836,83.0507812 243.793358,82.9186211 244.105078,82.6542969 C244.416798,82.3899726 244.623697,81.9296908 244.725781,81.2734375 L245.78125,81.2734375 Z M253.339063,80.0757813 C253.339063,80.8559935 253.207814,81.5368461 252.945312,82.1183594 C252.682811,82.6998727 252.31094,83.1437485 251.829688,83.45 C251.348435,83.7562515 250.786982,83.909375 250.145312,83.909375 C249.518226,83.909375 248.962242,83.7553401 248.477344,83.4472656 C247.992445,83.1391912 247.616017,82.6998726 247.348047,82.1292969 C247.080077,81.5587211 246.942448,80.8979204 246.935156,80.146875 L246.935156,79.5726562 C246.935156,78.8070274 247.068228,78.1307321 247.334375,77.54375 C247.600522,76.9567679 247.976951,76.5074234 248.463672,76.1957031 C248.950393,75.8839828 249.507289,75.728125 250.134375,75.728125 C250.772399,75.728125 251.334763,75.8821599 251.821484,76.1902344 C252.308206,76.4983088 252.682811,76.9449189 252.945312,77.5300781 C253.207814,78.1152373 253.339063,78.7960899 253.339063,79.5726562 L253.339063,80.0757813 Z M252.294531,79.5617187 C252.294531,78.6174432 252.10495,77.8928411 251.725781,77.3878906 C251.346613,76.8829402 250.816149,76.6304688 250.134375,76.6304688 C249.47083,76.6304688 248.94857,76.8829402 248.567578,77.3878906 C248.186587,77.8928411 247.990625,78.5937455 247.979688,79.490625 L247.979688,80.0757813 C247.979688,80.99089 248.172003,81.7100234 248.556641,82.2332031 C248.941278,82.7563828 249.47083,83.0179687 250.145312,83.0179687 C250.823441,83.0179687 251.348436,82.770966 251.720313,82.2769531 C252.092189,81.7829402 252.283594,81.0747442 252.294531,80.1523438 L252.294531,79.5617187 Z M255.969531,82.9414062 L259.742969,82.9414062 L259.742969,83.8 L254.914062,83.8 L254.914062,75.8375 L255.969531,75.8375 L255.969531,82.9414062 Z M266.250781,75.8375 L266.250781,81.2515625 C266.247135,82.0026079 266.01107,82.6169247 265.542578,83.0945313 C265.074086,83.5721378 264.438806,83.8401039 263.636719,83.8984375 L263.357813,83.909375 C262.486454,83.909375 261.79193,83.6742211 261.274219,83.2039063 C260.756508,82.7335914 260.49401,82.0864625 260.486719,81.2625 L260.486719,75.8375 L261.525781,75.8375 L261.525781,81.2296875 C261.525781,81.805732 261.684373,82.2532536 262.001562,82.5722656 C262.318752,82.8912776 262.77083,83.0507812 263.357813,83.0507812 C263.952086,83.0507812 264.406899,82.8921891 264.722266,82.575 C265.037632,82.2578109 265.195312,81.8112008 265.195312,81.2351563 L265.195312,75.8375 L266.250781,75.8375 Z M269.264063,75.8375 L271.867188,82.334375 L274.470312,75.8375 L275.832031,75.8375 L275.832031,83.8 L274.782031,83.8 L274.782031,80.6992188 L274.880469,77.3523438 L272.266406,83.8 L271.4625,83.8 L268.853906,77.36875 L268.957812,80.6992188 L268.957812,83.8 L267.907812,83.8 L267.907812,75.8375 L269.264063,75.8375 Z M283.805469,83.8 L282.75,83.8 L278.741406,77.6640625 L278.741406,83.8 L277.685938,83.8 L277.685938,75.8375 L278.741406,75.8375 L282.760938,82.0007813 L282.760938,75.8375 L283.805469,75.8375 L283.805469,83.8 Z M294.5625,83.8 L293.507031,83.8 L293.507031,80.1195312 L289.492969,80.1195312 L289.492969,83.8 L288.442969,83.8 L288.442969,75.8375 L289.492969,75.8375 L289.492969,79.2609375 L293.507031,79.2609375 L293.507031,75.8375 L294.5625,75.8375 L294.5625,83.8 Z M300.928125,80.1195312 L297.477344,80.1195312 L297.477344,82.9414062 L301.485937,82.9414062 L301.485937,83.8 L296.427344,83.8 L296.427344,75.8375 L301.43125,75.8375 L301.43125,76.7015625 L297.477344,76.7015625 L297.477344,79.2609375 L300.928125,79.2609375 L300.928125,80.1195312 Z M307.189844,81.721875 L303.853906,81.721875 L303.104688,83.8 L302.021875,83.8 L305.0625,75.8375 L305.98125,75.8375 L309.027344,83.8 L307.95,83.8 L307.189844,81.721875 Z M304.171094,80.8578125 L306.878125,80.8578125 L305.521875,77.1335938 L304.171094,80.8578125 Z M310.099219,83.8 L310.099219,75.8375 L312.346875,75.8375 C313.039587,75.8375 313.652081,75.9906235 314.184375,76.296875 C314.716669,76.6031265 315.127733,77.0387993 315.417578,77.6039062 C315.707423,78.1690132 315.854167,78.8179651 315.857813,79.5507812 L315.857813,80.059375 C315.857813,80.8104204 315.712892,81.4684868 315.423047,82.0335937 C315.133202,82.5987007 314.719404,83.0325506 314.181641,83.3351562 C313.643878,83.6377619 313.017712,83.7927083 312.303125,83.8 L310.099219,83.8 Z M311.149219,76.7015625 L311.149219,82.9414062 L312.253906,82.9414062 C313.063285,82.9414062 313.693097,82.6898463 314.143359,82.1867187 C314.593622,81.6835912 314.81875,80.9671921 314.81875,80.0375 L314.81875,79.5726562 C314.81875,78.6684851 314.606382,77.9657577 314.181641,77.4644531 C313.756899,76.9631485 313.154431,76.7088542 312.374219,76.7015625 L311.149219,76.7015625 Z M318.570312,83.8 L317.520313,83.8 L317.520313,75.8375 L318.570312,75.8375 L318.570312,83.8 Z M326.609375,83.8 L325.553906,83.8 L321.545313,77.6640625 L321.545313,83.8 L320.489844,83.8 L320.489844,75.8375 L321.545313,75.8375 L325.564844,82.0007813 L325.564844,75.8375 L326.609375,75.8375 L326.609375,83.8 Z M334.353125,82.7554688 C334.083332,83.141929 333.706903,83.4308584 333.223828,83.6222656 C332.740753,83.8136728 332.178389,83.909375 331.536719,83.909375 C330.887757,83.909375 330.311721,83.757163 329.808594,83.4527344 C329.305466,83.1483058 328.916277,82.7153674 328.641016,82.1539063 C328.365754,81.5924451 328.224479,80.9416704 328.217188,80.2015625 L328.217188,79.5070312 C328.217188,78.3075461 328.497002,77.3778679 329.056641,76.7179687 C329.616279,76.0580696 330.40286,75.728125 331.416406,75.728125 C332.24766,75.728125 332.916664,75.9404927 333.423437,76.3652344 C333.930211,76.7899761 334.240104,77.392444 334.353125,78.1726563 L333.303125,78.1726563 C333.106249,77.1190051 332.479172,76.5921875 331.421875,76.5921875 C330.718226,76.5921875 330.185028,76.8391902 329.822266,77.3332031 C329.459503,77.827216 329.276302,78.5427036 329.272656,79.4796875 L329.272656,80.1304688 C329.272656,81.0237024 329.476821,81.7337213 329.885156,82.2605469 C330.293492,82.7873724 330.84583,83.0507812 331.542188,83.0507812 C331.935939,83.0507812 332.280467,83.0070317 332.575781,82.9195313 C332.871095,82.8320308 333.115364,82.684376 333.308594,82.4765625 L333.308594,80.6882813 L331.465625,80.6882813 L331.465625,79.8351562 L334.353125,79.8351562 L334.353125,82.7554688 Z M341.938281,83.8 L340.921094,83.8 L340.921094,77.0570312 L338.88125,77.80625 L338.88125,76.8875 L341.779688,75.7992187 L341.938281,75.7992187 L341.938281,83.8 Z" id="Column-1-Label-Copy" fill="#333333"></path>
            <path d="M216.78125,201.273438 C216.682812,202.115629 216.372008,202.765493 215.848828,203.223047 C215.325648,203.680601 214.630213,203.909375 213.7625,203.909375 C212.82187,203.909375 212.068102,203.572139 211.501172,202.897656 C210.934242,202.223174 210.650781,201.320839 210.650781,200.190625 L210.650781,199.425 C210.650781,198.684892 210.782941,198.034117 211.047266,197.472656 C211.31159,196.911195 211.686195,196.48008 212.171094,196.179297 C212.655992,195.878514 213.217445,195.728125 213.855469,195.728125 C214.701306,195.728125 215.379425,195.96419 215.889844,196.436328 C216.400263,196.908466 216.697395,197.561975 216.78125,198.396875 L215.725781,198.396875 C215.634635,197.762497 215.43685,197.303126 215.132422,197.01875 C214.827993,196.734374 214.402346,196.592187 213.855469,196.592187 C213.184632,196.592187 212.658726,196.840102 212.277734,197.335938 C211.896743,197.831773 211.70625,198.537235 211.70625,199.452344 L211.70625,200.223437 C211.70625,201.087504 211.886717,201.774737 212.247656,202.285156 C212.608596,202.795575 213.113538,203.050781 213.7625,203.050781 C214.345836,203.050781 214.793358,202.918621 215.105078,202.654297 C215.416798,202.389973 215.623697,201.929691 215.725781,201.273438 L216.78125,201.273438 Z M224.339063,200.075781 C224.339063,200.855993 224.207814,201.536846 223.945312,202.118359 C223.682811,202.699873 223.31094,203.143748 222.829688,203.45 C222.348435,203.756252 221.786982,203.909375 221.145312,203.909375 C220.518226,203.909375 219.962242,203.75534 219.477344,203.447266 C218.992445,203.139191 218.616017,202.699873 218.348047,202.129297 C218.080077,201.558721 217.942448,200.89792 217.935156,200.146875 L217.935156,199.572656 C217.935156,198.807027 218.068228,198.130732 218.334375,197.54375 C218.600522,196.956768 218.976951,196.507423 219.463672,196.195703 C219.950393,195.883983 220.507289,195.728125 221.134375,195.728125 C221.772399,195.728125 222.334763,195.88216 222.821484,196.190234 C223.308206,196.498309 223.682811,196.944919 223.945312,197.530078 C224.207814,198.115237 224.339063,198.79609 224.339063,199.572656 L224.339063,200.075781 Z M223.294531,199.561719 C223.294531,198.617443 223.10495,197.892841 222.725781,197.387891 C222.346613,196.88294 221.816149,196.630469 221.134375,196.630469 C220.47083,196.630469 219.94857,196.88294 219.567578,197.387891 C219.186587,197.892841 218.990625,198.593746 218.979688,199.490625 L218.979688,200.075781 C218.979688,200.99089 219.172003,201.710023 219.556641,202.233203 C219.941278,202.756383 220.47083,203.017969 221.145312,203.017969 C221.823441,203.017969 222.348436,202.770966 222.720313,202.276953 C223.092189,201.78294 223.283594,201.074744 223.294531,200.152344 L223.294531,199.561719 Z M226.969531,202.941406 L230.742969,202.941406 L230.742969,203.8 L225.914062,203.8 L225.914062,195.8375 L226.969531,195.8375 L226.969531,202.941406 Z M237.250781,195.8375 L237.250781,201.251563 C237.247135,202.002608 237.01107,202.616925 236.542578,203.094531 C236.074086,203.572138 235.438806,203.840104 234.636719,203.898438 L234.357812,203.909375 C233.486454,203.909375 232.79193,203.674221 232.274219,203.203906 C231.756508,202.733591 231.49401,202.086462 231.486719,201.2625 L231.486719,195.8375 L232.525781,195.8375 L232.525781,201.229688 C232.525781,201.805732 232.684373,202.253254 233.001563,202.572266 C233.318752,202.891278 233.77083,203.050781 234.357812,203.050781 C234.952086,203.050781 235.406899,202.892189 235.722266,202.575 C236.037632,202.257811 236.195312,201.811201 236.195312,201.235156 L236.195312,195.8375 L237.250781,195.8375 Z M240.264062,195.8375 L242.867188,202.334375 L245.470313,195.8375 L246.832031,195.8375 L246.832031,203.8 L245.782031,203.8 L245.782031,200.699219 L245.880469,197.352344 L243.266406,203.8 L242.4625,203.8 L239.853906,197.36875 L239.957812,200.699219 L239.957812,203.8 L238.907813,203.8 L238.907813,195.8375 L240.264062,195.8375 Z M254.805469,203.8 L253.75,203.8 L249.741406,197.664062 L249.741406,203.8 L248.685938,203.8 L248.685938,195.8375 L249.741406,195.8375 L253.760938,202.000781 L253.760938,195.8375 L254.805469,195.8375 L254.805469,203.8 Z M265.5625,203.8 L264.507031,203.8 L264.507031,200.119531 L260.492969,200.119531 L260.492969,203.8 L259.442969,203.8 L259.442969,195.8375 L260.492969,195.8375 L260.492969,199.260938 L264.507031,199.260938 L264.507031,195.8375 L265.5625,195.8375 L265.5625,203.8 Z M271.928125,200.119531 L268.477344,200.119531 L268.477344,202.941406 L272.485937,202.941406 L272.485937,203.8 L267.427344,203.8 L267.427344,195.8375 L272.43125,195.8375 L272.43125,196.701562 L268.477344,196.701562 L268.477344,199.260938 L271.928125,199.260938 L271.928125,200.119531 Z M278.189844,201.721875 L274.853906,201.721875 L274.104688,203.8 L273.021875,203.8 L276.0625,195.8375 L276.98125,195.8375 L280.027344,203.8 L278.95,203.8 L278.189844,201.721875 Z M275.171094,200.857812 L277.878125,200.857812 L276.521875,197.133594 L275.171094,200.857812 Z M281.099219,203.8 L281.099219,195.8375 L283.346875,195.8375 C284.039587,195.8375 284.652081,195.990623 285.184375,196.296875 C285.716669,196.603127 286.127733,197.038799 286.417578,197.603906 C286.707423,198.169013 286.854167,198.817965 286.857813,199.550781 L286.857813,200.059375 C286.857813,200.81042 286.712892,201.468487 286.423047,202.033594 C286.133202,202.598701 285.719404,203.032551 285.181641,203.335156 C284.643878,203.637762 284.017712,203.792708 283.303125,203.8 L281.099219,203.8 Z M282.149219,196.701562 L282.149219,202.941406 L283.253906,202.941406 C284.063285,202.941406 284.693097,202.689846 285.143359,202.186719 C285.593622,201.683591 285.81875,200.967192 285.81875,200.0375 L285.81875,199.572656 C285.81875,198.668485 285.606382,197.965758 285.181641,197.464453 C284.756899,196.963149 284.154431,196.708854 283.374219,196.701562 L282.149219,196.701562 Z M289.570312,203.8 L288.520313,203.8 L288.520313,195.8375 L289.570312,195.8375 L289.570312,203.8 Z M297.609375,203.8 L296.553906,203.8 L292.545313,197.664062 L292.545313,203.8 L291.489844,203.8 L291.489844,195.8375 L292.545313,195.8375 L296.564844,202.000781 L296.564844,195.8375 L297.609375,195.8375 L297.609375,203.8 Z M305.353125,202.755469 C305.083332,203.141929 304.706903,203.430858 304.223828,203.622266 C303.740753,203.813673 303.178389,203.909375 302.536719,203.909375 C301.887757,203.909375 301.311721,203.757163 300.808594,203.452734 C300.305466,203.148306 299.916277,202.715367 299.641016,202.153906 C299.365754,201.592445 299.224479,200.94167 299.217188,200.201562 L299.217188,199.507031 C299.217188,198.307546 299.497002,197.377868 300.056641,196.717969 C300.616279,196.05807 301.40286,195.728125 302.416406,195.728125 C303.24766,195.728125 303.916664,195.940493 304.423437,196.365234 C304.930211,196.789976 305.240104,197.392444 305.353125,198.172656 L304.303125,198.172656 C304.106249,197.119005 303.479172,196.592187 302.421875,196.592187 C301.718226,196.592187 301.185028,196.83919 300.822266,197.333203 C300.459503,197.827216 300.276302,198.542704 300.272656,199.479688 L300.272656,200.130469 C300.272656,201.023702 300.476821,201.733721 300.885156,202.260547 C301.293492,202.787372 301.84583,203.050781 302.542188,203.050781 C302.935939,203.050781 303.280467,203.007032 303.575781,202.919531 C303.871095,202.832031 304.115364,202.684376 304.308594,202.476562 L304.308594,200.688281 L302.465625,200.688281 L302.465625,199.835156 L305.353125,199.835156 L305.353125,202.755469 Z M312.938281,203.8 L311.921094,203.8 L311.921094,197.057031 L309.88125,197.80625 L309.88125,196.8875 L312.779688,195.799219 L312.938281,195.799219 L312.938281,203.8 Z" id="Column-1-Label-Copy-8" fill="#333333"></path>
            <path d="M168,100 L468,100" id="Line" stroke="#E0E0E0" stroke-width="0.8" stroke-linecap="square"></path>
            <path d="M168,220 L468,220" id="Line-Copy-9" stroke="#E0E0E0" stroke-width="0.8" stroke-linecap="square"></path>
            <path d="M243.60625,119.7 L246.58125,127.125 L249.55625,119.7 L251.1125,119.7 L251.1125,128.8 L249.9125,128.8 L249.9125,125.25625 L250.025,121.43125 L247.0375,128.8 L246.11875,128.8 L243.1375,121.45 L243.25625,125.25625 L243.25625,128.8 L242.05625,128.8 L242.05625,119.7 L243.60625,119.7 Z M255.2625,127.10625 L256.8375,122.0375 L258.075,122.0375 L255.35625,129.84375 C254.935415,130.968756 254.266671,131.53125 253.35,131.53125 L253.13125,131.5125 L252.7,131.43125 L252.7,130.49375 L253.0125,130.51875 C253.404169,130.51875 253.709374,130.439584 253.928125,130.28125 C254.146876,130.122916 254.327083,129.833335 254.46875,129.4125 L254.725,128.725 L252.3125,122.0375 L253.575,122.0375 L255.2625,127.10625 Z M269.15,125.9125 C269.037499,126.875005 268.682295,127.617706 268.084375,128.140625 C267.486455,128.663544 266.691672,128.925 265.7,128.925 C264.624995,128.925 263.763545,128.539587 263.115625,127.76875 C262.467705,126.997913 262.14375,125.966673 262.14375,124.675 L262.14375,123.8 C262.14375,122.954162 262.29479,122.21042 262.596875,121.56875 C262.89896,120.92708 263.327081,120.434377 263.88125,120.090625 C264.435419,119.746873 265.07708,119.575 265.80625,119.575 C266.772921,119.575 267.547914,119.844789 268.13125,120.384375 C268.714586,120.923961 269.054166,121.670829 269.15,122.625 L267.94375,122.625 C267.839583,121.899996 267.613543,121.375002 267.265625,121.05 C266.917707,120.724998 266.431253,120.5625 265.80625,120.5625 C265.03958,120.5625 264.438544,120.845831 264.003125,121.4125 C263.567706,121.979169 263.35,122.785411 263.35,123.83125 L263.35,124.7125 C263.35,125.700005 263.556248,126.485414 263.96875,127.06875 C264.381252,127.652086 264.95833,127.94375 265.7,127.94375 C266.36667,127.94375 266.878123,127.79271 267.234375,127.490625 C267.590627,127.18854 267.827083,126.662504 267.94375,125.9125 L269.15,125.9125 Z M271.8625,128.8 L270.70625,128.8 L270.70625,119.2 L271.8625,119.2 L271.8625,128.8 Z M273.40625,125.35625 C273.40625,124.693747 273.536457,124.097919 273.796875,123.56875 C274.057293,123.039581 274.419789,122.631251 274.884375,122.34375 C275.348961,122.056249 275.879164,121.9125 276.475,121.9125 C277.395838,121.9125 278.140622,122.231247 278.709375,122.86875 C279.278128,123.506253 279.5625,124.354161 279.5625,125.4125 L279.5625,125.49375 C279.5625,126.152087 279.43646,126.742706 279.184375,127.265625 C278.93229,127.788544 278.571877,128.195832 278.103125,128.4875 C277.634373,128.779168 277.095836,128.925 276.4875,128.925 C275.570829,128.925 274.828128,128.606253 274.259375,127.96875 C273.690622,127.331247 273.40625,126.487505 273.40625,125.4375 L273.40625,125.35625 Z M274.56875,125.49375 C274.56875,126.243754 274.742707,126.845831 275.090625,127.3 C275.438543,127.754169 275.904164,127.98125 276.4875,127.98125 C277.075003,127.98125 277.541665,127.751044 277.8875,127.290625 C278.233335,126.830206 278.40625,126.185421 278.40625,125.35625 C278.40625,124.61458 278.23021,124.013544 277.878125,123.553125 C277.52604,123.092706 277.058336,122.8625 276.475,122.8625 C275.904164,122.8625 275.443752,123.089581 275.09375,123.54375 C274.743748,123.997919 274.56875,124.647912 274.56875,125.49375 Z M285.1875,128.13125 C284.737498,128.660419 284.077088,128.925 283.20625,128.925 C282.485413,128.925 281.93646,128.715627 281.559375,128.296875 C281.18229,127.878123 280.991667,127.258337 280.9875,126.4375 L280.9875,122.0375 L282.14375,122.0375 L282.14375,126.40625 C282.14375,127.431255 282.560412,127.94375 283.39375,127.94375 C284.277088,127.94375 284.864582,127.614587 285.15625,126.95625 L285.15625,122.0375 L286.3125,122.0375 L286.3125,128.8 L285.2125,128.8 L285.1875,128.13125 Z M287.7875,125.3625 C287.7875,124.324995 288.033331,123.490628 288.525,122.859375 C289.016669,122.228122 289.660413,121.9125 290.45625,121.9125 C291.247921,121.9125 291.874998,122.183331 292.3375,122.725 L292.3375,119.2 L293.49375,119.2 L293.49375,128.8 L292.43125,128.8 L292.375,128.075 C291.912498,128.64167 291.268754,128.925 290.44375,128.925 C289.660413,128.925 289.021877,128.60417 288.528125,127.9625 C288.034373,127.32083 287.7875,126.483339 287.7875,125.45 L287.7875,125.3625 Z M288.94375,125.49375 C288.94375,126.26042 289.102082,126.860415 289.41875,127.29375 C289.735418,127.727086 290.172914,127.94375 290.73125,127.94375 C291.464587,127.94375 291.999998,127.614587 292.3375,126.95625 L292.3375,123.85 C291.991665,123.212497 291.46042,122.89375 290.74375,122.89375 C290.17708,122.89375 289.735418,123.112498 289.41875,123.55 C289.102082,123.987502 288.94375,124.635412 288.94375,125.49375 Z M301.31875,124.74375 C300.289578,124.447915 299.540627,124.084377 299.071875,123.653125 C298.603123,123.221873 298.36875,122.689587 298.36875,122.05625 C298.36875,121.33958 298.655205,120.746877 299.228125,120.278125 C299.801045,119.809373 300.545829,119.575 301.4625,119.575 C302.087503,119.575 302.644789,119.695832 303.134375,119.9375 C303.623961,120.179168 304.003124,120.512498 304.271875,120.9375 C304.540626,121.362502 304.675,121.827081 304.675,122.33125 L303.46875,122.33125 C303.46875,121.781247 303.293752,121.34896 302.94375,121.034375 C302.593748,120.71979 302.100003,120.5625 301.4625,120.5625 C300.87083,120.5625 300.409377,120.692707 300.078125,120.953125 C299.746873,121.213543 299.58125,121.574998 299.58125,122.0375 C299.58125,122.408335 299.73854,122.721874 300.053125,122.978125 C300.36771,123.234376 300.903121,123.468749 301.659375,123.68125 C302.415629,123.893751 303.00729,124.128124 303.434375,124.384375 C303.86146,124.640626 304.178124,124.939582 304.384375,125.28125 C304.590626,125.622918 304.69375,126.024998 304.69375,126.4875 C304.69375,127.225004 304.406253,127.815623 303.83125,128.259375 C303.256247,128.703127 302.487505,128.925 301.525,128.925 C300.899997,128.925 300.316669,128.80521 299.775,128.565625 C299.233331,128.32604 298.815626,127.997919 298.521875,127.58125 C298.228124,127.164581 298.08125,126.691669 298.08125,126.1625 L299.2875,126.1625 C299.2875,126.712503 299.490623,127.146873 299.896875,127.465625 C300.303127,127.784377 300.84583,127.94375 301.525,127.94375 C302.158337,127.94375 302.643748,127.814585 302.98125,127.55625 C303.318752,127.297915 303.4875,126.945836 303.4875,126.5 C303.4875,126.054164 303.331252,125.709376 303.01875,125.465625 C302.706248,125.221874 302.139587,124.981251 301.31875,124.74375 Z M308.85625,128.925 C307.939579,128.925 307.193753,128.623961 306.61875,128.021875 C306.043747,127.419789 305.75625,126.614588 305.75625,125.60625 L305.75625,125.39375 C305.75625,124.722913 305.884374,124.123961 306.140625,123.596875 C306.396876,123.069789 306.755206,122.657293 307.215625,122.359375 C307.676044,122.061457 308.174997,121.9125 308.7125,121.9125 C309.591671,121.9125 310.274998,122.20208 310.7625,122.78125 C311.250002,123.36042 311.49375,124.189578 311.49375,125.26875 L311.49375,125.75 L306.9125,125.75 C306.929167,126.41667 307.123956,126.955206 307.496875,127.365625 C307.869794,127.776044 308.343747,127.98125 308.91875,127.98125 C309.327085,127.98125 309.672915,127.897918 309.95625,127.73125 C310.239585,127.564583 310.487499,127.343751 310.7,127.06875 L311.40625,127.61875 C310.839581,128.489588 309.989589,128.925 308.85625,128.925 Z M308.7125,122.8625 C308.245831,122.8625 307.854168,123.03229 307.5375,123.371875 C307.220832,123.71146 307.025,124.187497 306.95,124.8 L310.3375,124.8 L310.3375,124.7125 C310.304167,124.124997 310.145835,123.669793 309.8625,123.346875 C309.579165,123.023957 309.195836,122.8625 308.7125,122.8625 Z M316.1,123.075 C315.924999,123.045833 315.735418,123.03125 315.53125,123.03125 C314.772913,123.03125 314.258335,123.354163 313.9875,124 L313.9875,128.8 L312.83125,128.8 L312.83125,122.0375 L313.95625,122.0375 L313.975,122.81875 C314.354169,122.21458 314.891663,121.9125 315.5875,121.9125 C315.812501,121.9125 315.983333,121.941666 316.1,122 L316.1,123.075 Z M319.50625,127.23125 L321.18125,122.0375 L322.3625,122.0375 L319.9375,128.8 L319.05625,128.8 L316.60625,122.0375 L317.7875,122.0375 L319.50625,127.23125 Z M326.2,128.925 C325.283329,128.925 324.537503,128.623961 323.9625,128.021875 C323.387497,127.419789 323.1,126.614588 323.1,125.60625 L323.1,125.39375 C323.1,124.722913 323.228124,124.123961 323.484375,123.596875 C323.740626,123.069789 324.098956,122.657293 324.559375,122.359375 C325.019794,122.061457 325.518747,121.9125 326.05625,121.9125 C326.935421,121.9125 327.618748,122.20208 328.10625,122.78125 C328.593752,123.36042 328.8375,124.189578 328.8375,125.26875 L328.8375,125.75 L324.25625,125.75 C324.272917,126.41667 324.467706,126.955206 324.840625,127.365625 C325.213544,127.776044 325.687497,127.98125 326.2625,127.98125 C326.670835,127.98125 327.016665,127.897918 327.3,127.73125 C327.583335,127.564583 327.831249,127.343751 328.04375,127.06875 L328.75,127.61875 C328.183331,128.489588 327.333339,128.925 326.2,128.925 Z M326.05625,122.8625 C325.589581,122.8625 325.197918,123.03229 324.88125,123.371875 C324.564582,123.71146 324.36875,124.187497 324.29375,124.8 L327.68125,124.8 L327.68125,124.7125 C327.647917,124.124997 327.489585,123.669793 327.20625,123.346875 C326.922915,123.023957 326.539586,122.8625 326.05625,122.8625 Z M333.44375,123.075 C333.268749,123.045833 333.079168,123.03125 332.875,123.03125 C332.116663,123.03125 331.602085,123.354163 331.33125,124 L331.33125,128.8 L330.175,128.8 L330.175,122.0375 L331.3,122.0375 L331.31875,122.81875 C331.697919,122.21458 332.235413,121.9125 332.93125,121.9125 C333.156251,121.9125 333.327083,121.941666 333.44375,122 L333.44375,123.075 Z M336.9125,125.40625 L333.8625,125.40625 L333.8625,124.4625 L336.9125,124.4625 L336.9125,125.40625 Z M343.625,124.91875 C343.625,126.272923 343.393752,127.279163 342.93125,127.9375 C342.468748,128.595837 341.745838,128.925 340.7625,128.925 C339.791662,128.925 339.072919,128.603128 338.60625,127.959375 C338.139581,127.315622 337.897917,126.354173 337.88125,125.075 L337.88125,123.53125 C337.88125,122.193743 338.112498,121.200003 338.575,120.55 C339.037502,119.899997 339.762495,119.575 340.75,119.575 C341.729172,119.575 342.449998,119.888539 342.9125,120.515625 C343.375002,121.142711 343.6125,122.11041 343.625,123.41875 L343.625,124.91875 Z M342.46875,123.3375 C342.46875,122.358328 342.331251,121.644794 342.05625,121.196875 C341.781249,120.748956 341.345836,120.525 340.75,120.525 C340.15833,120.525 339.727085,120.747914 339.45625,121.19375 C339.185415,121.639586 339.045833,122.324995 339.0375,123.25 L339.0375,125.1 C339.0375,126.083338 339.180207,126.809373 339.465625,127.278125 C339.751043,127.746877 340.18333,127.98125 340.7625,127.98125 C341.333336,127.98125 341.75729,127.760419 342.034375,127.31875 C342.31146,126.877081 342.45625,126.181255 342.46875,125.23125 L342.46875,123.3375 Z M348.90625,128.8 L347.74375,128.8 L347.74375,121.09375 L345.4125,121.95 L345.4125,120.9 L348.725,119.65625 L348.90625,119.65625 L348.90625,128.8 Z" id="First-Column" fill="#0D74D1"></path>
            <path d="M214.60625,239.7 L217.58125,247.125 L220.55625,239.7 L222.1125,239.7 L222.1125,248.8 L220.9125,248.8 L220.9125,245.25625 L221.025,241.43125 L218.0375,248.8 L217.11875,248.8 L214.1375,241.45 L214.25625,245.25625 L214.25625,248.8 L213.05625,248.8 L213.05625,239.7 L214.60625,239.7 Z M226.2625,247.10625 L227.8375,242.0375 L229.075,242.0375 L226.35625,249.84375 C225.935415,250.968756 225.266671,251.53125 224.35,251.53125 L224.13125,251.5125 L223.7,251.43125 L223.7,250.49375 L224.0125,250.51875 C224.404169,250.51875 224.709374,250.439584 224.928125,250.28125 C225.146876,250.122916 225.327083,249.833335 225.46875,249.4125 L225.725,248.725 L223.3125,242.0375 L224.575,242.0375 L226.2625,247.10625 Z M240.15,245.9125 C240.037499,246.875005 239.682295,247.617706 239.084375,248.140625 C238.486455,248.663544 237.691672,248.925 236.7,248.925 C235.624995,248.925 234.763545,248.539587 234.115625,247.76875 C233.467705,246.997913 233.14375,245.966673 233.14375,244.675 L233.14375,243.8 C233.14375,242.954162 233.29479,242.21042 233.596875,241.56875 C233.89896,240.92708 234.327081,240.434377 234.88125,240.090625 C235.435419,239.746873 236.07708,239.575 236.80625,239.575 C237.772921,239.575 238.547914,239.844789 239.13125,240.384375 C239.714586,240.923961 240.054166,241.670829 240.15,242.625 L238.94375,242.625 C238.839583,241.899996 238.613543,241.375002 238.265625,241.05 C237.917707,240.724998 237.431253,240.5625 236.80625,240.5625 C236.03958,240.5625 235.438544,240.845831 235.003125,241.4125 C234.567706,241.97917 234.35,242.785411 234.35,243.83125 L234.35,244.7125 C234.35,245.700005 234.556248,246.485414 234.96875,247.06875 C235.381252,247.652086 235.95833,247.94375 236.7,247.94375 C237.36667,247.94375 237.878123,247.79271 238.234375,247.490625 C238.590627,247.18854 238.827083,246.662504 238.94375,245.9125 L240.15,245.9125 Z M242.8625,248.8 L241.70625,248.8 L241.70625,239.2 L242.8625,239.2 L242.8625,248.8 Z M244.40625,245.35625 C244.40625,244.693747 244.536457,244.097919 244.796875,243.56875 C245.057293,243.039581 245.419789,242.631251 245.884375,242.34375 C246.348961,242.056249 246.879164,241.9125 247.475,241.9125 C248.395838,241.9125 249.140622,242.231247 249.709375,242.86875 C250.278128,243.506253 250.5625,244.354161 250.5625,245.4125 L250.5625,245.49375 C250.5625,246.152087 250.43646,246.742706 250.184375,247.265625 C249.93229,247.788544 249.571877,248.195832 249.103125,248.4875 C248.634373,248.779168 248.095836,248.925 247.4875,248.925 C246.570829,248.925 245.828128,248.606253 245.259375,247.96875 C244.690622,247.331247 244.40625,246.487505 244.40625,245.4375 L244.40625,245.35625 Z M245.56875,245.49375 C245.56875,246.243754 245.742707,246.845831 246.090625,247.3 C246.438543,247.754169 246.904164,247.98125 247.4875,247.98125 C248.075003,247.98125 248.541665,247.751044 248.8875,247.290625 C249.233335,246.830206 249.40625,246.185421 249.40625,245.35625 C249.40625,244.61458 249.23021,244.013544 248.878125,243.553125 C248.52604,243.092706 248.058336,242.8625 247.475,242.8625 C246.904164,242.8625 246.443752,243.089581 246.09375,243.54375 C245.743748,243.997919 245.56875,244.647912 245.56875,245.49375 Z M256.1875,248.13125 C255.737498,248.660419 255.077088,248.925 254.20625,248.925 C253.485413,248.925 252.93646,248.715627 252.559375,248.296875 C252.18229,247.878123 251.991667,247.258337 251.9875,246.4375 L251.9875,242.0375 L253.14375,242.0375 L253.14375,246.40625 C253.14375,247.431255 253.560413,247.94375 254.39375,247.94375 C255.277088,247.94375 255.864582,247.614587 256.15625,246.95625 L256.15625,242.0375 L257.3125,242.0375 L257.3125,248.8 L256.2125,248.8 L256.1875,248.13125 Z M258.7875,245.3625 C258.7875,244.324995 259.033331,243.490628 259.525,242.859375 C260.016669,242.228122 260.660413,241.9125 261.45625,241.9125 C262.247921,241.9125 262.874998,242.183331 263.3375,242.725 L263.3375,239.2 L264.49375,239.2 L264.49375,248.8 L263.43125,248.8 L263.375,248.075 C262.912498,248.64167 262.268754,248.925 261.44375,248.925 C260.660413,248.925 260.021877,248.60417 259.528125,247.9625 C259.034373,247.32083 258.7875,246.483339 258.7875,245.45 L258.7875,245.3625 Z M259.94375,245.49375 C259.94375,246.260421 260.102082,246.860414 260.41875,247.29375 C260.735418,247.727085 261.172914,247.94375 261.73125,247.94375 C262.464587,247.94375 262.999998,247.614587 263.3375,246.95625 L263.3375,243.85 C262.991665,243.212497 262.46042,242.89375 261.74375,242.89375 C261.17708,242.89375 260.735418,243.112498 260.41875,243.55 C260.102082,243.987502 259.94375,244.635412 259.94375,245.49375 Z M272.31875,244.74375 C271.289578,244.447915 270.540627,244.084377 270.071875,243.653125 C269.603123,243.221873 269.36875,242.689586 269.36875,242.05625 C269.36875,241.33958 269.655205,240.746877 270.228125,240.278125 C270.801045,239.809373 271.545829,239.575 272.4625,239.575 C273.087503,239.575 273.644789,239.695832 274.134375,239.9375 C274.623961,240.179168 275.003124,240.512498 275.271875,240.9375 C275.540626,241.362502 275.675,241.827081 275.675,242.33125 L274.46875,242.33125 C274.46875,241.781247 274.293752,241.34896 273.94375,241.034375 C273.593748,240.71979 273.100003,240.5625 272.4625,240.5625 C271.87083,240.5625 271.409377,240.692707 271.078125,240.953125 C270.746873,241.213543 270.58125,241.574998 270.58125,242.0375 C270.58125,242.408335 270.73854,242.721874 271.053125,242.978125 C271.36771,243.234376 271.903121,243.468749 272.659375,243.68125 C273.415629,243.893751 274.00729,244.128124 274.434375,244.384375 C274.86146,244.640626 275.178124,244.939582 275.384375,245.28125 C275.590626,245.622918 275.69375,246.024998 275.69375,246.4875 C275.69375,247.225004 275.406253,247.815623 274.83125,248.259375 C274.256247,248.703127 273.487505,248.925 272.525,248.925 C271.899997,248.925 271.316669,248.80521 270.775,248.565625 C270.233331,248.32604 269.815626,247.997919 269.521875,247.58125 C269.228124,247.164581 269.08125,246.691669 269.08125,246.1625 L270.2875,246.1625 C270.2875,246.712503 270.490623,247.146873 270.896875,247.465625 C271.303127,247.784377 271.84583,247.94375 272.525,247.94375 C273.158337,247.94375 273.643748,247.814585 273.98125,247.55625 C274.318752,247.297915 274.4875,246.945836 274.4875,246.5 C274.4875,246.054164 274.331252,245.709376 274.01875,245.465625 C273.706248,245.221874 273.139587,244.981251 272.31875,244.74375 Z M279.85625,248.925 C278.939579,248.925 278.193753,248.623961 277.61875,248.021875 C277.043747,247.419789 276.75625,246.614588 276.75625,245.60625 L276.75625,245.39375 C276.75625,244.722913 276.884374,244.123961 277.140625,243.596875 C277.396876,243.069789 277.755206,242.657293 278.215625,242.359375 C278.676044,242.061457 279.174997,241.9125 279.7125,241.9125 C280.591671,241.9125 281.274998,242.20208 281.7625,242.78125 C282.250002,243.36042 282.49375,244.189578 282.49375,245.26875 L282.49375,245.75 L277.9125,245.75 C277.929167,246.41667 278.123956,246.955206 278.496875,247.365625 C278.869794,247.776044 279.343747,247.98125 279.91875,247.98125 C280.327085,247.98125 280.672915,247.897918 280.95625,247.73125 C281.239585,247.564583 281.487499,247.343751 281.7,247.06875 L282.40625,247.61875 C281.839581,248.489588 280.989589,248.925 279.85625,248.925 Z M279.7125,242.8625 C279.245831,242.8625 278.854168,243.03229 278.5375,243.371875 C278.220832,243.71146 278.025,244.187497 277.95,244.8 L281.3375,244.8 L281.3375,244.7125 C281.304167,244.124997 281.145835,243.669793 280.8625,243.346875 C280.579165,243.023957 280.195836,242.8625 279.7125,242.8625 Z M287.1,243.075 C286.924999,243.045833 286.735418,243.03125 286.53125,243.03125 C285.772913,243.03125 285.258335,243.354163 284.9875,244 L284.9875,248.8 L283.83125,248.8 L283.83125,242.0375 L284.95625,242.0375 L284.975,242.81875 C285.354169,242.21458 285.891663,241.9125 286.5875,241.9125 C286.812501,241.9125 286.983333,241.941666 287.1,242 L287.1,243.075 Z M290.50625,247.23125 L292.18125,242.0375 L293.3625,242.0375 L290.9375,248.8 L290.05625,248.8 L287.60625,242.0375 L288.7875,242.0375 L290.50625,247.23125 Z M297.2,248.925 C296.283329,248.925 295.537503,248.623961 294.9625,248.021875 C294.387497,247.419789 294.1,246.614588 294.1,245.60625 L294.1,245.39375 C294.1,244.722913 294.228124,244.123961 294.484375,243.596875 C294.740626,243.069789 295.098956,242.657293 295.559375,242.359375 C296.019794,242.061457 296.518747,241.9125 297.05625,241.9125 C297.935421,241.9125 298.618748,242.20208 299.10625,242.78125 C299.593752,243.36042 299.8375,244.189578 299.8375,245.26875 L299.8375,245.75 L295.25625,245.75 C295.272917,246.41667 295.467706,246.955206 295.840625,247.365625 C296.213544,247.776044 296.687497,247.98125 297.2625,247.98125 C297.670835,247.98125 298.016665,247.897918 298.3,247.73125 C298.583335,247.564583 298.831249,247.343751 299.04375,247.06875 L299.75,247.61875 C299.183331,248.489588 298.333339,248.925 297.2,248.925 Z M297.05625,242.8625 C296.589581,242.8625 296.197918,243.03229 295.88125,243.371875 C295.564582,243.71146 295.36875,244.187497 295.29375,244.8 L298.68125,244.8 L298.68125,244.7125 C298.647917,244.124997 298.489585,243.669793 298.20625,243.346875 C297.922915,243.023957 297.539586,242.8625 297.05625,242.8625 Z M304.44375,243.075 C304.268749,243.045833 304.079168,243.03125 303.875,243.03125 C303.116663,243.03125 302.602085,243.354163 302.33125,244 L302.33125,248.8 L301.175,248.8 L301.175,242.0375 L302.3,242.0375 L302.31875,242.81875 C302.697919,242.21458 303.235413,241.9125 303.93125,241.9125 C304.156251,241.9125 304.327083,241.941666 304.44375,242 L304.44375,243.075 Z M307.9125,245.40625 L304.8625,245.40625 L304.8625,244.4625 L307.9125,244.4625 L307.9125,245.40625 Z M314.625,244.91875 C314.625,246.272923 314.393752,247.279163 313.93125,247.9375 C313.468748,248.595837 312.745838,248.925 311.7625,248.925 C310.791662,248.925 310.072919,248.603128 309.60625,247.959375 C309.139581,247.315622 308.897917,246.354173 308.88125,245.075 L308.88125,243.53125 C308.88125,242.193743 309.112498,241.200003 309.575,240.55 C310.037502,239.899997 310.762495,239.575 311.75,239.575 C312.729172,239.575 313.449998,239.888539 313.9125,240.515625 C314.375002,241.142711 314.6125,242.11041 314.625,243.41875 L314.625,244.91875 Z M313.46875,243.3375 C313.46875,242.358328 313.331251,241.644794 313.05625,241.196875 C312.781249,240.748956 312.345836,240.525 311.75,240.525 C311.15833,240.525 310.727085,240.747914 310.45625,241.19375 C310.185415,241.639586 310.045833,242.324995 310.0375,243.25 L310.0375,245.1 C310.0375,246.083338 310.180207,246.809373 310.465625,247.278125 C310.751043,247.746877 311.18333,247.98125 311.7625,247.98125 C312.333336,247.98125 312.75729,247.760419 313.034375,247.31875 C313.31146,246.877081 313.45625,246.181255 313.46875,245.23125 L313.46875,243.3375 Z M319.90625,248.8 L318.74375,248.8 L318.74375,241.09375 L316.4125,241.95 L316.4125,240.9 L319.725,239.65625 L319.90625,239.65625 L319.90625,248.8 Z" id="First-Column-Copy-12" fill="#0D74D1"></path>
            <path d="M167,147 L467,147" id="Stroke-11" stroke="#E0E0E0" stroke-width="0.8"></path>
            <path d="M167,267 L467,267" id="Stroke-11-Copy-13" stroke="#E0E0E0" stroke-width="0.8"></path>
            <g id="Rectangle-Copy">
                <use fill="#ECECEC" fill-rule="evenodd" xlink:href="#path-1"></use>
                <rect stroke="#979797" stroke-width="0.8" x="183.4" y="118.4" width="12" height="12"></rect>
            </g>
            <path d="M224.8,125.68 L224.8,123.12 L223.36,123.12 C223.2,122.48 222.96,122 222.64,121.44 L223.52,120.56 L222.24,119.28 L221.36,120.16 C220.8,119.84 220.24,119.6 219.68,119.44 L219.68,118 L217.12,118 L217.12,119.44 C216.56,119.6 216,119.84 215.44,120.16 L214.56,119.28 L213.28,120.56 L214.16,121.44 C213.84,122 213.6,122.48 213.44,123.12 L212,123.12 L212,125.68 L213.44,125.68 C213.6,126.24 213.84,126.8 214.16,127.28 L213.28,128.16 L214.56,129.44 L215.44,128.56 C216,128.96 216.56,129.2 217.12,129.36 L217.12,130.8 L219.68,130.8 L219.68,129.36 C220.24,129.2 220.8,128.96 221.36,128.64 L222.24,129.52 L223.52,128.24 L222.64,127.36 C222.96,126.88 223.2,126.32 223.36,125.68 L224.8,125.68 Z M218.4,126.96 C217.12,126.96 216,125.84 216,124.4 C216,122.96 217.04,121.84 218.4,121.84 C219.76,121.84 220.8,122.96 220.8,124.4 C220.8,125.84 219.68,126.96 218.4,126.96 Z" id="Shape" fill="#000000" fill-rule="nonzero"></path>
            <path d="M195.8,245.68 L195.8,243.12 L194.36,243.12 C194.2,242.48 193.96,242 193.64,241.44 L194.52,240.56 L193.24,239.28 L192.36,240.16 C191.8,239.84 191.24,239.6 190.68,239.44 L190.68,238 L188.12,238 L188.12,239.44 C187.56,239.6 187,239.84 186.44,240.16 L185.56,239.28 L184.28,240.56 L185.16,241.44 C184.84,242 184.6,242.48 184.44,243.12 L183,243.12 L183,245.68 L184.44,245.68 C184.6,246.24 184.84,246.8 185.16,247.28 L184.28,248.16 L185.56,249.44 L186.44,248.56 C187,248.96 187.56,249.2 188.12,249.36 L188.12,250.8 L190.68,250.8 L190.68,249.36 C191.24,249.2 191.8,248.96 192.36,248.64 L193.24,249.52 L194.52,248.24 L193.64,247.36 C193.96,246.88 194.2,246.32 194.36,245.68 L195.8,245.68 Z M189.4,246.96 C188.12,246.96 187,245.84 187,244.4 C187,242.96 188.04,241.84 189.4,241.84 C190.76,241.84 191.8,242.96 191.8,244.4 C191.8,245.84 190.68,246.96 189.4,246.96 Z" id="Shape" fill="#000000" fill-rule="nonzero"></path>
        </g>
    </g>
</svg>