<?xml version="1.0" encoding="UTF-8" standalone="no"?>
<svg width="317px" height="297px" viewBox="0 0 317 297" version="1.1" xmlns="http://www.w3.org/2000/svg" xmlns:xlink="http://www.w3.org/1999/xlink">
    <!-- Generator: Sketch 47.1 (45422) - http://www.bohemiancoding.com/sketch -->
    <title>tables-pagination-2</title>
    <desc>Created with Sketch.</desc>
    <defs>
        <rect id="path-1" x="57" y="201" width="204" height="30" rx="3"></rect>
        <rect id="path-2" x="56" y="114" width="204" height="30" rx="3"></rect>
        <rect id="path-3" x="56" y="44" width="204" height="30" rx="3"></rect>
    </defs>
    <g id="Page-1" stroke="none" stroke-width="1" fill="none" fill-rule="evenodd">
        <g id="tables-pagination-2">
            <g id="Rectangle-3-Copy-6">
                <use fill="#FFFFFF" fill-rule="evenodd" xlink:href="#path-1"></use>
                <rect stroke="#E0E0E0" stroke-width="1" x="57.5" y="201.5" width="203" height="29" rx="3"></rect>
            </g>
            <rect id="Rectangle-5-Copy-12" fill="#16B9D4" x="86" y="202" width="30" height="28"></rect>
            <rect id="Rectangle-5-Copy-14" x="115" y="201" width="30" height="30"></rect>
            <rect id="Rectangle-5-Copy-15" x="202" y="201" width="30" height="30"></rect>
            <rect id="Rectangle-5-Copy-16" x="173" y="201" width="30" height="30"></rect>
            <rect id="Rectangle-5-Copy-17" x="144" y="201" width="30" height="30"></rect>
            <polygon id="1-copy-9" fill="#FFFFFF" points="102.243164 219 100.588867 219 100.588867 211.008789 98.1484375 211.842773 98.1484375 210.441406 102.03125 209.012695 102.243164 209.012695"></polygon>
            <path d="M133.4375,219 L126.745117,219 L126.745117,217.858398 L130.060547,214.242188 C130.539065,213.708982 130.879719,213.263511 131.08252,212.905762 C131.28532,212.548013 131.386719,212.189129 131.386719,211.829102 C131.386719,211.355141 131.253419,210.972332 130.986816,210.680664 C130.720214,210.388996 130.36133,210.243164 129.910156,210.243164 C129.372393,210.243164 128.955405,210.407225 128.65918,210.735352 C128.362954,211.063478 128.214844,211.512367 128.214844,212.082031 L126.553711,212.082031 C126.553711,211.475908 126.691568,210.930178 126.967285,210.444824 C127.243003,209.95947 127.637204,209.582358 128.149902,209.313477 C128.6626,209.044595 129.253903,208.910156 129.923828,208.910156 C130.889979,208.910156 131.652178,209.15283 132.210449,209.638184 C132.76872,210.123538 133.047852,210.794592 133.047852,211.651367 C133.047852,212.148114 132.907716,212.66878 132.627441,213.213379 C132.347167,213.757978 131.888024,214.376624 131.25,215.069336 L128.816406,217.673828 L133.4375,217.673828 L133.4375,219 Z" id="2" fill="#616262"></path>
            <path d="M214.243164,219 L212.588867,219 L212.588867,211.008789 L210.148438,211.842773 L210.148438,210.441406 L214.03125,209.012695 L214.243164,209.012695 L214.243164,219 Z M224.189453,214.80957 C224.189453,216.240567 223.921715,217.319495 223.38623,218.046387 C222.850746,218.773278 222.036138,219.136719 220.942383,219.136719 C219.866857,219.136719 219.056806,218.782393 218.512207,218.07373 C217.967608,217.365068 217.688477,216.315762 217.674805,214.925781 L217.674805,213.203125 C217.674805,211.772128 217.942543,210.698897 218.478027,209.983398 C219.013512,209.2679 219.830398,208.910156 220.928711,208.910156 C222.017909,208.910156 222.830238,209.258786 223.365723,209.956055 C223.901207,210.653324 224.175781,211.696933 224.189453,213.086914 L224.189453,214.80957 Z M222.52832,212.950195 C222.52832,212.015946 222.400717,211.33122 222.145508,210.895996 C221.890298,210.460773 221.484703,210.243164 220.928711,210.243164 C220.386391,210.243164 219.987631,210.449379 219.732422,210.861816 C219.477212,211.274253 219.342774,211.917964 219.329102,212.792969 L219.329102,215.048828 C219.329102,215.97852 219.458983,216.671222 219.71875,217.126953 C219.978517,217.582685 220.38639,217.810547 220.942383,217.810547 C221.475589,217.810547 221.86979,217.599774 222.125,217.178223 C222.38021,216.756671 222.514648,216.09701 222.52832,215.199219 L222.52832,212.950195 Z" id="10" fill="#616262"></path>
            <text id="…" font-family="Roboto-Medium, Roboto" font-size="14" font-weight="400" fill="#616262">
                <tspan x="183" y="219">…</tspan>
            </text>
            <path d="M157.666016,213.264648 L158.677734,213.264648 C159.188154,213.260091 159.592609,213.127931 159.891113,212.868164 C160.189617,212.608397 160.338867,212.232424 160.338867,211.740234 C160.338867,211.266274 160.214682,210.898276 159.966309,210.63623 C159.717935,210.374185 159.338544,210.243164 158.828125,210.243164 C158.381508,210.243164 158.01465,210.371906 157.727539,210.629395 C157.440428,210.886883 157.296875,211.22298 157.296875,211.637695 L155.635742,211.637695 C155.635742,211.127276 155.77132,210.662437 156.04248,210.243164 C156.313641,209.823891 156.691892,209.496909 157.177246,209.262207 C157.6626,209.027505 158.206052,208.910156 158.807617,208.910156 C159.801112,208.910156 160.58154,209.159665 161.148926,209.658691 C161.716311,210.157717 162,210.851558 162,211.740234 C162,212.186851 161.857586,212.607257 161.572754,213.001465 C161.287922,213.395673 160.919924,213.693033 160.46875,213.893555 C161.015628,214.080405 161.431476,214.374347 161.716309,214.775391 C162.001141,215.176434 162.143555,215.654945 162.143555,216.210938 C162.143555,217.104171 161.83708,217.815102 161.224121,218.34375 C160.611162,218.872398 159.805669,219.136719 158.807617,219.136719 C157.850581,219.136719 157.066735,218.881513 156.456055,218.371094 C155.845375,217.860675 155.540039,217.181645 155.540039,216.333984 L157.201172,216.333984 C157.201172,216.771487 157.348143,217.126952 157.64209,217.400391 C157.936037,217.673829 158.331378,217.810547 158.828125,217.810547 C159.343102,217.810547 159.748696,217.673829 160.044922,217.400391 C160.341147,217.126952 160.489258,216.730471 160.489258,216.210938 C160.489258,215.686846 160.334311,215.28353 160.024414,215.000977 C159.714517,214.718423 159.254235,214.577148 158.643555,214.577148 L157.666016,214.577148 L157.666016,213.264648 Z" id="3" fill="#616262"></path>
            <path d="M60,201 L87,201 L87,231 L60,231 L60,231 C58.3431458,231 57,229.656854 57,228 L57,204 L57,204 C57,202.343146 58.3431458,201 60,201 Z" id="Rectangle-6"></path>
            <polygon id="Path-2-Copy-22" fill="#616262" fill-rule="nonzero" transform="translate(72.000000, 216.500000) rotate(90.000000) translate(-72.000000, -216.500000) " points="67.5517903 212.575305 66.5 213.661155 71.9698844 220.5 77.5 213.585849 76.4482097 212.5 71.9698844 218.099127"></polygon>
            <path d="M234,201 L261,201 L261,231 L234,231 L234,231 C232.343146,231 231,229.656854 231,228 L231,204 L231,204 C231,202.343146 232.343146,201 234,201 Z" id="Rectangle-6" transform="translate(246.000000, 216.000000) scale(-1, -1) translate(-246.000000, -216.000000) "></path>
            <polygon id="Path-2-Copy-22" fill="#616262" fill-rule="nonzero" transform="translate(247.000000, 216.500000) scale(-1, -1) rotate(90.000000) translate(-247.000000, -216.500000) " points="242.55179 212.575305 241.5 213.661155 246.969884 220.5 252.5 213.585849 251.44821 212.5 246.969884 218.099127"></polygon>
            <path d="M142.15625,155.416992 C142.15625,156.224288 141.970705,156.872882 141.599609,157.362793 C141.228514,157.852704 140.730472,158.097656 140.105469,158.097656 C139.438148,158.097656 138.922202,157.861656 138.557617,157.389648 L138.513672,158 L137.683594,158 L137.683594,150.5 L138.586914,150.5 L138.586914,153.297852 C138.951499,152.845375 139.454424,152.619141 140.095703,152.619141 C140.736982,152.619141 141.240721,152.861651 141.606934,153.34668 C141.973146,153.831708 142.15625,154.495764 142.15625,155.338867 L142.15625,155.416992 Z M141.25293,155.314453 C141.25293,154.699216 141.134116,154.22396 140.896484,153.888672 C140.658853,153.553384 140.31706,153.385742 139.871094,153.385742 C139.275388,153.385742 138.847332,153.662432 138.586914,154.21582 L138.586914,156.500977 C138.863608,157.054365 139.294919,157.331055 139.880859,157.331055 C140.313804,157.331055 140.650715,157.163413 140.891602,156.828125 C141.132488,156.492837 141.25293,155.988285 141.25293,155.314453 Z M143.079102,155.314453 C143.079102,154.490881 143.269529,153.835777 143.650391,153.349121 C144.031252,152.862465 144.535804,152.619141 145.164062,152.619141 C145.808597,152.619141 146.311522,152.847003 146.672852,153.302734 L146.716797,152.716797 L147.541992,152.716797 L147.541992,157.873047 C147.541992,158.556644 147.339357,159.095376 146.934082,159.489258 C146.528807,159.88314 145.984378,160.080078 145.300781,160.080078 C144.91992,160.080078 144.547202,159.998699 144.182617,159.835938 C143.818032,159.673176 143.539715,159.450197 143.347656,159.166992 L143.816406,158.625 C144.203778,159.103518 144.677406,159.342773 145.237305,159.342773 C145.67676,159.342773 146.019367,159.219077 146.265137,158.97168 C146.510906,158.724283 146.633789,158.375979 146.633789,157.926758 L146.633789,157.472656 C146.272459,157.889325 145.7793,158.097656 145.154297,158.097656 C144.535804,158.097656 144.035321,157.848635 143.652832,157.350586 C143.270343,156.852537 143.079102,156.173832 143.079102,155.314453 Z M143.987305,155.416992 C143.987305,156.012698 144.109374,156.48063 144.353516,156.820801 C144.597657,157.160972 144.939451,157.331055 145.378906,157.331055 C145.948571,157.331055 146.366861,157.072268 146.633789,156.554688 L146.633789,154.142578 C146.357095,153.638018 145.94206,153.385742 145.388672,153.385742 C144.949217,153.385742 144.605796,153.556639 144.358398,153.898438 C144.111001,154.240236 143.987305,154.746416 143.987305,155.416992 Z M148.875,157.526367 C148.875,157.370116 148.921386,157.239909 149.01416,157.135742 C149.106934,157.031575 149.246093,156.979492 149.431641,156.979492 C149.617188,156.979492 149.757975,157.031575 149.854004,157.135742 C149.950033,157.239909 149.998047,157.370116 149.998047,157.526367 C149.998047,157.676108 149.950033,157.801432 149.854004,157.902344 C149.757975,158.003256 149.617188,158.053711 149.431641,158.053711 C149.246093,158.053711 149.106934,158.003256 149.01416,157.902344 C148.921386,157.801432 148.875,157.676108 148.875,157.526367 Z M148.879883,153.214844 C148.879883,153.058593 148.926269,152.928386 149.019043,152.824219 C149.111817,152.720052 149.250976,152.667969 149.436523,152.667969 C149.622071,152.667969 149.762858,152.720052 149.858887,152.824219 C149.954916,152.928386 150.00293,153.058593 150.00293,153.214844 C150.00293,153.364584 149.954916,153.489908 149.858887,153.59082 C149.762858,153.691732 149.622071,153.742188 149.436523,153.742188 C149.250976,153.742188 149.111817,153.691732 149.019043,153.59082 C148.926269,153.489908 148.879883,153.364584 148.879883,153.214844 Z M156.853516,155.998047 L155.564453,155.998047 L155.173828,158 L154.475586,158 L154.866211,155.998047 L153.699219,155.998047 L153.699219,155.329102 L154.993164,155.329102 L155.330078,153.600586 L154.070312,153.600586 L154.070312,152.921875 L155.461914,152.921875 L155.862305,150.890625 L156.560547,150.890625 L156.160156,152.921875 L157.449219,152.921875 L157.849609,150.890625 L158.552734,150.890625 L158.152344,152.921875 L159.148438,152.921875 L159.148438,153.600586 L158.020508,153.600586 L157.683594,155.329102 L158.782227,155.329102 L158.782227,155.998047 L157.556641,155.998047 L157.166016,158 L156.462891,158 L156.853516,155.998047 Z M155.691406,155.329102 L156.980469,155.329102 L157.317383,153.600586 L156.02832,153.600586 L155.691406,155.329102 Z M164.324219,154.967773 C164.324219,156.025721 164.143556,156.811846 163.782227,157.326172 C163.420897,157.840497 162.856124,158.097656 162.087891,158.097656 C161.329423,158.097656 160.767905,157.846194 160.40332,157.343262 C160.038735,156.84033 159.849935,156.089198 159.836914,155.089844 L159.836914,153.883789 C159.836914,152.838862 160.017576,152.062503 160.378906,151.554688 C160.740236,151.046872 161.306637,150.792969 162.078125,150.792969 C162.843103,150.792969 163.406248,151.037921 163.767578,151.527832 C164.128908,152.017743 164.314453,152.773758 164.324219,153.795898 L164.324219,154.967773 Z M163.420898,153.732422 C163.420898,152.967444 163.313478,152.409995 163.098633,152.060059 C162.883788,151.710122 162.543622,151.535156 162.078125,151.535156 C161.615883,151.535156 161.278972,151.709308 161.067383,152.057617 C160.855793,152.405926 160.746745,152.941403 160.740234,153.664062 L160.740234,155.109375 C160.740234,155.877608 160.851724,156.444822 161.074707,156.811035 C161.29769,157.177248 161.635414,157.360352 162.087891,157.360352 C162.533856,157.360352 162.865071,157.187827 163.081543,156.842773 C163.298015,156.49772 163.411133,155.954105 163.420898,155.211914 L163.420898,153.732422 Z M167.766602,158.097656 C167.050452,158.097656 166.467776,157.86247 166.018555,157.39209 C165.569334,156.92171 165.344727,156.292647 165.344727,155.504883 L165.344727,155.338867 C165.344727,154.814776 165.444823,154.346845 165.64502,153.935059 C165.845216,153.523273 166.125161,153.20101 166.484863,152.968262 C166.844566,152.735513 167.234373,152.619141 167.654297,152.619141 C168.341149,152.619141 168.874998,152.845375 169.255859,153.297852 C169.636721,153.750328 169.827148,154.398108 169.827148,155.241211 L169.827148,155.617188 L166.248047,155.617188 C166.261068,156.138023 166.413247,156.558755 166.70459,156.879395 C166.995932,157.200034 167.366209,157.360352 167.81543,157.360352 C168.134442,157.360352 168.404621,157.295248 168.625977,157.165039 C168.847332,157.03483 169.041015,156.862306 169.207031,156.647461 L169.758789,157.077148 C169.316079,157.75749 168.652023,158.097656 167.766602,158.097656 Z M167.654297,153.361328 C167.289712,153.361328 166.983725,153.493977 166.736328,153.759277 C166.488931,154.024578 166.335938,154.396482 166.277344,154.875 L168.923828,154.875 L168.923828,154.806641 C168.897786,154.347654 168.77409,153.992026 168.552734,153.739746 C168.331379,153.487466 168.031903,153.361328 167.654297,153.361328 Z M174.241211,154.875 C174.052408,155.09961 173.826987,155.280273 173.564941,155.416992 C173.302896,155.553712 173.015627,155.62207 172.703125,155.62207 C172.292967,155.62207 171.935711,155.52116 171.631348,155.319336 C171.326984,155.117512 171.091798,154.833498 170.925781,154.467285 C170.759765,154.101072 170.676758,153.696617 170.676758,153.253906 C170.676758,152.778643 170.767089,152.350588 170.947754,151.969727 C171.128419,151.588865 171.384764,151.297527 171.716797,151.095703 C172.04883,150.893879 172.436196,150.792969 172.878906,150.792969 C173.582035,150.792969 174.136228,151.055824 174.541504,151.581543 C174.946779,152.107262 175.149414,152.824214 175.149414,153.732422 L175.149414,153.996094 C175.149414,155.379564 174.875979,156.389482 174.329102,157.025879 C173.782224,157.662275 172.957037,157.988607 171.853516,158.004883 L171.677734,158.004883 L171.677734,157.243164 L171.868164,157.243164 C172.61361,157.230143 173.186521,157.035646 173.586914,156.659668 C173.987307,156.28369 174.205403,155.688806 174.241211,154.875 Z M172.849609,154.875 C173.152345,154.875 173.431477,154.782227 173.687012,154.59668 C173.942547,154.411132 174.128906,154.181642 174.246094,153.908203 L174.246094,153.546875 C174.246094,152.954424 174.117514,152.472658 173.860352,152.101562 C173.603189,151.730467 173.277671,151.544922 172.883789,151.544922 C172.486652,151.544922 172.167644,151.697101 171.926758,152.001465 C171.685871,152.305828 171.56543,152.707029 171.56543,153.205078 C171.56543,153.690107 171.681802,154.089679 171.914551,154.403809 C172.147299,154.717938 172.458982,154.875 172.849609,154.875 Z M180.208008,155.612305 L181.194336,155.612305 L181.194336,156.349609 L180.208008,156.349609 L180.208008,158 L179.299805,158 L179.299805,156.349609 L176.0625,156.349609 L176.0625,155.817383 L179.246094,150.890625 L180.208008,150.890625 L180.208008,155.612305 Z M177.087891,155.612305 L179.299805,155.612305 L179.299805,152.125977 L179.192383,152.321289 L177.087891,155.612305 Z M185.364258,158 C185.312174,157.895833 185.269857,157.710288 185.237305,157.443359 C184.817381,157.879559 184.316084,158.097656 183.733398,158.097656 C183.212562,158.097656 182.785321,157.95036 182.45166,157.655762 C182.118,157.361164 181.951172,156.987632 181.951172,156.535156 C181.951172,155.985023 182.160317,155.557781 182.578613,155.253418 C182.99691,154.949054 183.585283,154.796875 184.34375,154.796875 L185.222656,154.796875 L185.222656,154.381836 C185.222656,154.066079 185.128256,153.814617 184.939453,153.627441 C184.75065,153.440266 184.472333,153.34668 184.104492,153.34668 C183.782225,153.34668 183.512045,153.428059 183.293945,153.59082 C183.075845,153.753582 182.966797,153.95052 182.966797,154.181641 L182.058594,154.181641 C182.058594,153.917967 182.15218,153.66325 182.339355,153.41748 C182.526531,153.171711 182.780435,152.977214 183.101074,152.833984 C183.421714,152.690754 183.774087,152.619141 184.158203,152.619141 C184.76693,152.619141 185.243813,152.77132 185.588867,153.075684 C185.933921,153.380047 186.112956,153.799151 186.125977,154.333008 L186.125977,156.764648 C186.125977,157.249677 186.187825,157.635415 186.311523,157.921875 L186.311523,158 L185.364258,158 Z M183.865234,157.311523 C184.148439,157.311523 184.416991,157.238282 184.670898,157.091797 C184.924806,156.945312 185.108723,156.754884 185.222656,156.520508 L185.222656,155.436523 L184.514648,155.436523 C183.407872,155.436523 182.854492,155.760413 182.854492,156.408203 C182.854492,156.691408 182.948892,156.91276 183.137695,157.072266 C183.326498,157.231772 183.569009,157.311523 183.865234,157.311523 Z M190.994141,150.885742 L190.994141,151.652344 L190.828125,151.652344 C190.124996,151.665365 189.565106,151.873696 189.148438,152.277344 C188.731769,152.680992 188.490886,153.24902 188.425781,153.981445 C188.800132,153.551756 189.311195,153.336914 189.958984,153.336914 C190.577477,153.336914 191.07145,153.555011 191.440918,153.991211 C191.810386,154.427411 191.995117,154.990556 191.995117,155.680664 C191.995117,156.41309 191.795738,156.999021 191.396973,157.438477 C190.998208,157.877932 190.463545,158.097656 189.792969,158.097656 C189.112627,158.097656 188.560875,157.836428 188.137695,157.313965 C187.714516,156.791501 187.50293,156.118494 187.50293,155.294922 L187.50293,154.948242 C187.50293,153.639642 187.782061,152.639489 188.340332,151.947754 C188.898603,151.256019 189.729487,150.902018 190.833008,150.885742 L190.994141,150.885742 Z M189.807617,154.088867 C189.498371,154.088867 189.213543,154.18164 188.953125,154.367188 C188.692707,154.552735 188.512045,154.78548 188.411133,155.06543 L188.411133,155.397461 C188.411133,155.983401 188.542967,156.455402 188.806641,156.813477 C189.070314,157.171551 189.399087,157.350586 189.792969,157.350586 C190.199872,157.350586 190.519693,157.200848 190.752441,156.901367 C190.98519,156.601887 191.101562,156.209638 191.101562,155.724609 C191.101562,155.236326 190.983562,154.841636 190.747559,154.540527 C190.511555,154.239419 190.198244,154.088867 189.807617,154.088867 Z M195.598633,155.114258 C195.598633,154.378577 195.697102,153.672204 195.894043,152.995117 C196.090984,152.31803 196.384764,151.702802 196.775391,151.149414 C197.166018,150.596026 197.571287,150.205405 197.991211,149.977539 L198.176758,150.573242 C197.701495,150.937827 197.311688,151.494462 197.007324,152.243164 C196.702961,152.991866 196.536133,153.830073 196.506836,154.757812 L196.501953,155.172852 C196.501953,156.429368 196.731443,157.519852 197.19043,158.444336 C197.467124,158.997724 197.795897,159.430663 198.176758,159.743164 L197.991211,160.294922 C197.558266,160.054035 197.144859,159.650393 196.750977,159.083984 C195.982744,157.977208 195.598633,156.653979 195.598633,155.114258 Z M201.169922,157.360352 C201.492189,157.360352 201.773762,157.262696 202.014648,157.067383 C202.255535,156.872069 202.388997,156.627931 202.415039,156.334961 L203.269531,156.334961 C203.253255,156.637697 203.14909,156.92578 202.957031,157.199219 C202.764973,157.472658 202.508628,157.690754 202.187988,157.853516 C201.867349,158.016277 201.527997,158.097656 201.169922,158.097656 C200.450517,158.097656 199.87842,157.857587 199.453613,157.377441 C199.028806,156.897296 198.816406,156.240564 198.816406,155.407227 L198.816406,155.255859 C198.816406,154.741534 198.910806,154.284182 199.099609,153.883789 C199.288412,153.483396 199.559406,153.172527 199.912598,152.951172 C200.26579,152.729817 200.683266,152.619141 201.165039,152.619141 C201.75749,152.619141 202.249835,152.796548 202.64209,153.151367 C203.034344,153.506187 203.243489,153.966794 203.269531,154.533203 L202.415039,154.533203 C202.388997,154.191405 202.259604,153.910646 202.026855,153.690918 C201.794107,153.47119 201.506838,153.361328 201.165039,153.361328 C200.706052,153.361328 200.350424,153.526528 200.098145,153.856934 C199.845865,154.187339 199.719727,154.665036 199.719727,155.290039 L199.719727,155.460938 C199.719727,156.069665 199.845051,156.53841 200.095703,156.867188 C200.346355,157.195965 200.704425,157.360352 201.169922,157.360352 Z M206.013672,156.676758 L207.244141,152.716797 L208.210938,152.716797 L206.086914,158.81543 C205.758136,159.69434 205.235681,160.133789 204.519531,160.133789 L204.348633,160.119141 L204.011719,160.055664 L204.011719,159.323242 L204.255859,159.342773 C204.56185,159.342773 204.800292,159.280925 204.971191,159.157227 C205.142091,159.033528 205.282877,158.807293 205.393555,158.478516 L205.59375,157.941406 L203.708984,152.716797 L204.695312,152.716797 L206.013672,156.676758 Z M212.205078,158 C212.152995,157.895833 212.110677,157.710288 212.078125,157.443359 C211.658201,157.879559 211.156904,158.097656 210.574219,158.097656 C210.053383,158.097656 209.626141,157.95036 209.29248,157.655762 C208.95882,157.361164 208.791992,156.987632 208.791992,156.535156 C208.791992,155.985023 209.001137,155.557781 209.419434,155.253418 C209.83773,154.949054 210.426103,154.796875 211.18457,154.796875 L212.063477,154.796875 L212.063477,154.381836 C212.063477,154.066079 211.969076,153.814617 211.780273,153.627441 C211.59147,153.440266 211.313153,153.34668 210.945312,153.34668 C210.623045,153.34668 210.352866,153.428059 210.134766,153.59082 C209.916666,153.753582 209.807617,153.95052 209.807617,154.181641 L208.899414,154.181641 C208.899414,153.917967 208.993,153.66325 209.180176,153.41748 C209.367351,153.171711 209.621255,152.977214 209.941895,152.833984 C210.262534,152.690754 210.614907,152.619141 210.999023,152.619141 C211.60775,152.619141 212.084634,152.77132 212.429688,153.075684 C212.774741,153.380047 212.953776,153.799151 212.966797,154.333008 L212.966797,156.764648 C212.966797,157.249677 213.028645,157.635415 213.152344,157.921875 L213.152344,158 L212.205078,158 Z M210.706055,157.311523 C210.989259,157.311523 211.257811,157.238282 211.511719,157.091797 C211.765626,156.945312 211.949544,156.754884 212.063477,156.520508 L212.063477,155.436523 L211.355469,155.436523 C210.248692,155.436523 209.695312,155.760413 209.695312,156.408203 C209.695312,156.691408 209.789713,156.91276 209.978516,157.072266 C210.167319,157.231772 210.409829,157.311523 210.706055,157.311523 Z M215.237305,152.716797 L215.266602,153.380859 C215.670249,152.873044 216.197588,152.619141 216.848633,152.619141 C217.965175,152.619141 218.52832,153.249017 218.538086,154.508789 L218.538086,158 L217.634766,158 L217.634766,154.503906 C217.63151,154.123045 217.544434,153.841472 217.373535,153.65918 C217.202636,153.476887 216.936525,153.385742 216.575195,153.385742 C216.282225,153.385742 216.025066,153.463866 215.803711,153.620117 C215.582356,153.776368 215.409831,153.981444 215.286133,154.235352 L215.286133,158 L214.382812,158 L214.382812,152.716797 L215.237305,152.716797 Z M226.873047,151.398438 L223.928711,158 L222.981445,158 L225.916016,151.632812 L222.068359,151.632812 L222.068359,150.890625 L226.873047,150.890625 L226.873047,151.398438 Z M232.356445,154.967773 C232.356445,156.025721 232.175783,156.811846 231.814453,157.326172 C231.453123,157.840497 230.88835,158.097656 230.120117,158.097656 C229.36165,158.097656 228.800132,157.846194 228.435547,157.343262 C228.070962,156.84033 227.882162,156.089198 227.869141,155.089844 L227.869141,153.883789 C227.869141,152.838862 228.049803,152.062503 228.411133,151.554688 C228.772463,151.046872 229.338863,150.792969 230.110352,150.792969 C230.875329,150.792969 231.438475,151.037921 231.799805,151.527832 C232.161135,152.017743 232.34668,152.773758 232.356445,153.795898 L232.356445,154.967773 Z M231.453125,153.732422 C231.453125,152.967444 231.345704,152.409995 231.130859,152.060059 C230.916015,151.710122 230.575849,151.535156 230.110352,151.535156 C229.64811,151.535156 229.311199,151.709308 229.099609,152.057617 C228.88802,152.405926 228.778971,152.941403 228.772461,153.664062 L228.772461,155.109375 C228.772461,155.877608 228.883951,156.444822 229.106934,156.811035 C229.329916,157.177248 229.667641,157.360352 230.120117,157.360352 C230.566083,157.360352 230.897297,157.187827 231.11377,156.842773 C231.330242,156.49772 231.443359,155.954105 231.453125,155.211914 L231.453125,153.732422 Z M237.97168,154.967773 C237.97168,156.025721 237.791017,156.811846 237.429688,157.326172 C237.068358,157.840497 236.503585,158.097656 235.735352,158.097656 C234.976884,158.097656 234.415366,157.846194 234.050781,157.343262 C233.686196,156.84033 233.497396,156.089198 233.484375,155.089844 L233.484375,153.883789 C233.484375,152.838862 233.665037,152.062503 234.026367,151.554688 C234.387697,151.046872 234.954098,150.792969 235.725586,150.792969 C236.490564,150.792969 237.053709,151.037921 237.415039,151.527832 C237.776369,152.017743 237.961914,152.773758 237.97168,153.795898 L237.97168,154.967773 Z M237.068359,153.732422 C237.068359,152.967444 236.960939,152.409995 236.746094,152.060059 C236.531249,151.710122 236.191083,151.535156 235.725586,151.535156 C235.263344,151.535156 234.926433,151.709308 234.714844,152.057617 C234.503254,152.405926 234.394206,152.941403 234.387695,153.664062 L234.387695,155.109375 C234.387695,155.877608 234.499185,156.444822 234.722168,156.811035 C234.945151,157.177248 235.282875,157.360352 235.735352,157.360352 C236.181317,157.360352 236.512531,157.187827 236.729004,156.842773 C236.945476,156.49772 237.058594,155.954105 237.068359,155.211914 L237.068359,153.732422 Z M241.306641,155.163086 C241.306641,155.889001 241.211427,156.584795 241.020996,157.250488 C240.830565,157.916182 240.539227,158.530596 240.146973,159.09375 C239.754718,159.656904 239.343752,160.05729 238.914062,160.294922 L238.723633,159.743164 C239.224937,159.359048 239.627765,158.762537 239.932129,157.953613 C240.236492,157.14469 240.391927,156.247075 240.398438,155.260742 L240.398438,155.104492 C240.398438,154.420895 240.326824,153.785322 240.183594,153.197754 C240.040364,152.610186 239.840984,152.083661 239.585449,151.618164 C239.329914,151.152667 239.042645,150.789715 238.723633,150.529297 L238.914062,149.977539 C239.343752,150.21517 239.753091,150.612302 240.14209,151.168945 C240.531089,151.725589 240.822427,152.339189 241.016113,153.009766 C241.209799,153.680342 241.306641,154.398108 241.306641,155.163086 Z M138.90918,162.4375 L138.90918,163.716797 L139.895508,163.716797 L139.895508,164.415039 L138.90918,164.415039 L138.90918,167.691406 C138.90918,167.902996 138.953125,168.061686 139.041016,168.16748 C139.128907,168.273275 139.278645,168.326172 139.490234,168.326172 C139.594402,168.326172 139.737629,168.306641 139.919922,168.267578 L139.919922,169 C139.68229,169.065104 139.451173,169.097656 139.226562,169.097656 C138.822915,169.097656 138.518556,168.975587 138.313477,168.731445 C138.108397,168.487303 138.005859,168.140627 138.005859,167.691406 L138.005859,164.415039 L137.043945,164.415039 L137.043945,163.716797 L138.005859,163.716797 L138.005859,162.4375 L138.90918,162.4375 Z M143.142578,169.097656 C142.426429,169.097656 141.843752,168.86247 141.394531,168.39209 C140.94531,167.92171 140.720703,167.292647 140.720703,166.504883 L140.720703,166.338867 C140.720703,165.814776 140.8208,165.346845 141.020996,164.935059 C141.221192,164.523273 141.501138,164.20101 141.86084,163.968262 C142.220542,163.735513 142.610349,163.619141 143.030273,163.619141 C143.717126,163.619141 144.250975,163.845375 144.631836,164.297852 C145.012697,164.750328 145.203125,165.398108 145.203125,166.241211 L145.203125,166.617188 L141.624023,166.617188 C141.637044,167.138023 141.789224,167.558755 142.080566,167.879395 C142.371909,168.200034 142.742185,168.360352 143.191406,168.360352 C143.510418,168.360352 143.780598,168.295248 144.001953,168.165039 C144.223308,168.03483 144.416991,167.862306 144.583008,167.647461 L145.134766,168.077148 C144.692055,168.75749 144.027999,169.097656 143.142578,169.097656 Z M143.030273,164.361328 C142.665688,164.361328 142.359702,164.493977 142.112305,164.759277 C141.864908,165.024578 141.711914,165.396482 141.65332,165.875 L144.299805,165.875 L144.299805,165.806641 C144.273763,165.347654 144.150066,164.992026 143.928711,164.739746 C143.707356,164.487466 143.407879,164.361328 143.030273,164.361328 Z M148.020508,165.645508 L149.192383,163.716797 L150.24707,163.716797 L148.518555,166.329102 L150.300781,169 L149.255859,169 L148.035156,167.022461 L146.814453,169 L145.764648,169 L147.546875,166.329102 L145.818359,163.716797 L146.863281,163.716797 L148.020508,165.645508 Z M152.429688,162.4375 L152.429688,163.716797 L153.416016,163.716797 L153.416016,164.415039 L152.429688,164.415039 L152.429688,167.691406 C152.429688,167.902996 152.473632,168.061686 152.561523,168.16748 C152.649415,168.273275 152.799153,168.326172 153.010742,168.326172 C153.114909,168.326172 153.258137,168.306641 153.44043,168.267578 L153.44043,169 C153.202798,169.065104 152.971681,169.097656 152.74707,169.097656 C152.343422,169.097656 152.039064,168.975587 151.833984,168.731445 C151.628905,168.487303 151.526367,168.140627 151.526367,167.691406 L151.526367,164.415039 L150.564453,164.415039 L150.564453,163.716797 L151.526367,163.716797 L151.526367,162.4375 L152.429688,162.4375 Z M154.441406,168.526367 C154.441406,168.370116 154.487793,168.239909 154.580566,168.135742 C154.67334,168.031575 154.812499,167.979492 154.998047,167.979492 C155.183595,167.979492 155.324381,168.031575 155.42041,168.135742 C155.516439,168.239909 155.564453,168.370116 155.564453,168.526367 C155.564453,168.676108 155.516439,168.801432 155.42041,168.902344 C155.324381,169.003256 155.183595,169.053711 154.998047,169.053711 C154.812499,169.053711 154.67334,169.003256 154.580566,168.902344 C154.487793,168.801432 154.441406,168.676108 154.441406,168.526367 Z M154.446289,164.214844 C154.446289,164.058593 154.492675,163.928386 154.585449,163.824219 C154.678223,163.720052 154.817382,163.667969 155.00293,163.667969 C155.188477,163.667969 155.329264,163.720052 155.425293,163.824219 C155.521322,163.928386 155.569336,164.058593 155.569336,164.214844 C155.569336,164.364584 155.521322,164.489908 155.425293,164.59082 C155.329264,164.691732 155.188477,164.742188 155.00293,164.742188 C154.817382,164.742188 154.678223,164.691732 154.585449,164.59082 C154.492675,164.489908 154.446289,164.364584 154.446289,164.214844 Z M162.419922,166.998047 L161.130859,166.998047 L160.740234,169 L160.041992,169 L160.432617,166.998047 L159.265625,166.998047 L159.265625,166.329102 L160.55957,166.329102 L160.896484,164.600586 L159.636719,164.600586 L159.636719,163.921875 L161.02832,163.921875 L161.428711,161.890625 L162.126953,161.890625 L161.726562,163.921875 L163.015625,163.921875 L163.416016,161.890625 L164.119141,161.890625 L163.71875,163.921875 L164.714844,163.921875 L164.714844,164.600586 L163.586914,164.600586 L163.25,166.329102 L164.348633,166.329102 L164.348633,166.998047 L163.123047,166.998047 L162.732422,169 L162.029297,169 L162.419922,166.998047 Z M161.257812,166.329102 L162.546875,166.329102 L162.883789,164.600586 L161.594727,164.600586 L161.257812,166.329102 Z M165.969727,169 L165.969727,164.415039 L165.134766,164.415039 L165.134766,163.716797 L165.969727,163.716797 L165.969727,163.174805 C165.969727,162.608396 166.121092,162.170574 166.423828,161.861328 C166.726564,161.552082 167.15462,161.397461 167.708008,161.397461 C167.916342,161.397461 168.123046,161.42513 168.328125,161.480469 L168.279297,162.212891 C168.126301,162.183594 167.963543,162.168945 167.791016,162.168945 C167.498045,162.168945 167.271811,162.254394 167.112305,162.425293 C166.952799,162.596192 166.873047,162.841144 166.873047,163.160156 L166.873047,163.716797 L168.000977,163.716797 L168.000977,164.415039 L166.873047,164.415039 L166.873047,169 L165.969727,169 Z M169.441406,169 L169.441406,164.415039 L168.606445,164.415039 L168.606445,163.716797 L169.441406,163.716797 L169.441406,163.174805 C169.441406,162.608396 169.592772,162.170574 169.895508,161.861328 C170.198244,161.552082 170.626299,161.397461 171.179688,161.397461 C171.388022,161.397461 171.594726,161.42513 171.799805,161.480469 L171.750977,162.212891 C171.597981,162.183594 171.435222,162.168945 171.262695,162.168945 C170.969725,162.168945 170.74349,162.254394 170.583984,162.425293 C170.424478,162.596192 170.344727,162.841144 170.344727,163.160156 L170.344727,163.716797 L171.472656,163.716797 L171.472656,164.415039 L170.344727,164.415039 L170.344727,169 L169.441406,169 Z M172.913086,169 L172.913086,164.415039 L172.078125,164.415039 L172.078125,163.716797 L172.913086,163.716797 L172.913086,163.174805 C172.913086,162.608396 173.064452,162.170574 173.367188,161.861328 C173.669923,161.552082 174.097979,161.397461 174.651367,161.397461 C174.859702,161.397461 175.066405,161.42513 175.271484,161.480469 L175.222656,162.212891 C175.069661,162.183594 174.906902,162.168945 174.734375,162.168945 C174.441405,162.168945 174.21517,162.254394 174.055664,162.425293 C173.896158,162.596192 173.816406,162.841144 173.816406,163.160156 L173.816406,163.716797 L174.944336,163.716797 L174.944336,164.415039 L173.816406,164.415039 L173.816406,169 L172.913086,169 Z M176.384766,169 L176.384766,164.415039 L175.549805,164.415039 L175.549805,163.716797 L176.384766,163.716797 L176.384766,163.174805 C176.384766,162.608396 176.536131,162.170574 176.838867,161.861328 C177.141603,161.552082 177.569659,161.397461 178.123047,161.397461 C178.331381,161.397461 178.538085,161.42513 178.743164,161.480469 L178.694336,162.212891 C178.54134,162.183594 178.378582,162.168945 178.206055,162.168945 C177.913084,162.168945 177.68685,162.254394 177.527344,162.425293 C177.367838,162.596192 177.288086,162.841144 177.288086,163.160156 L177.288086,163.716797 L178.416016,163.716797 L178.416016,164.415039 L177.288086,164.415039 L177.288086,169 L176.384766,169 Z M179.856445,169 L179.856445,164.415039 L179.021484,164.415039 L179.021484,163.716797 L179.856445,163.716797 L179.856445,163.174805 C179.856445,162.608396 180.007811,162.170574 180.310547,161.861328 C180.613283,161.552082 181.041338,161.397461 181.594727,161.397461 C181.803061,161.397461 182.009765,161.42513 182.214844,161.480469 L182.166016,162.212891 C182.01302,162.183594 181.850261,162.168945 181.677734,162.168945 C181.384764,162.168945 181.158529,162.254394 180.999023,162.425293 C180.839517,162.596192 180.759766,162.841144 180.759766,163.160156 L180.759766,163.716797 L181.887695,163.716797 L181.887695,164.415039 L180.759766,164.415039 L180.759766,169 L179.856445,169 Z M183.328125,169 L183.328125,164.415039 L182.493164,164.415039 L182.493164,163.716797 L183.328125,163.716797 L183.328125,163.174805 C183.328125,162.608396 183.479491,162.170574 183.782227,161.861328 C184.084962,161.552082 184.513018,161.397461 185.066406,161.397461 C185.274741,161.397461 185.481444,161.42513 185.686523,161.480469 L185.637695,162.212891 C185.4847,162.183594 185.321941,162.168945 185.149414,162.168945 C184.856444,162.168945 184.630209,162.254394 184.470703,162.425293 C184.311197,162.596192 184.231445,162.841144 184.231445,163.160156 L184.231445,163.716797 L185.359375,163.716797 L185.359375,164.415039 L184.231445,164.415039 L184.231445,169 L183.328125,169 Z M188.796875,166.114258 C188.796875,165.378577 188.895344,164.672204 189.092285,163.995117 C189.289226,163.31803 189.583006,162.702802 189.973633,162.149414 C190.36426,161.596026 190.769529,161.205405 191.189453,160.977539 L191.375,161.573242 C190.899737,161.937827 190.50993,162.494462 190.205566,163.243164 C189.901203,163.991866 189.734375,164.830073 189.705078,165.757812 L189.700195,166.172852 C189.700195,167.429368 189.929685,168.519852 190.388672,169.444336 C190.665366,169.997724 190.994139,170.430663 191.375,170.743164 L191.189453,171.294922 C190.756508,171.054035 190.343101,170.650393 189.949219,170.083984 C189.180986,168.977208 188.796875,167.653979 188.796875,166.114258 Z M192.03418,166.314453 C192.03418,165.490881 192.224607,164.835777 192.605469,164.349121 C192.98633,163.862465 193.490882,163.619141 194.119141,163.619141 C194.763675,163.619141 195.2666,163.847003 195.62793,164.302734 L195.671875,163.716797 L196.49707,163.716797 L196.49707,168.873047 C196.49707,169.556644 196.294436,170.095376 195.88916,170.489258 C195.483885,170.88314 194.939457,171.080078 194.255859,171.080078 C193.874998,171.080078 193.50228,170.998699 193.137695,170.835938 C192.77311,170.673176 192.494793,170.450197 192.302734,170.166992 L192.771484,169.625 C193.158856,170.103518 193.632484,170.342773 194.192383,170.342773 C194.631838,170.342773 194.974445,170.219077 195.220215,169.97168 C195.465984,169.724283 195.588867,169.375979 195.588867,168.926758 L195.588867,168.472656 C195.227537,168.889325 194.734378,169.097656 194.109375,169.097656 C193.490882,169.097656 192.990399,168.848635 192.60791,168.350586 C192.225421,167.852537 192.03418,167.173832 192.03418,166.314453 Z M192.942383,166.416992 C192.942383,167.012698 193.064452,167.48063 193.308594,167.820801 C193.552736,168.160972 193.894529,168.331055 194.333984,168.331055 C194.903649,168.331055 195.321939,168.072268 195.588867,167.554688 L195.588867,165.142578 C195.312173,164.638018 194.897138,164.385742 194.34375,164.385742 C193.904295,164.385742 193.560874,164.556639 193.313477,164.898438 C193.066079,165.240236 192.942383,165.746416 192.942383,166.416992 Z M200.413086,164.527344 C200.276367,164.504557 200.128256,164.493164 199.96875,164.493164 C199.376299,164.493164 198.974285,164.74544 198.762695,165.25 L198.762695,169 L197.859375,169 L197.859375,163.716797 L198.738281,163.716797 L198.75293,164.327148 C199.049155,163.855141 199.469073,163.619141 200.012695,163.619141 C200.188477,163.619141 200.32194,163.641927 200.413086,163.6875 L200.413086,164.527344 Z M204.30957,169 C204.257487,168.895833 204.215169,168.710288 204.182617,168.443359 C203.762693,168.879559 203.261396,169.097656 202.678711,169.097656 C202.157875,169.097656 201.730633,168.95036 201.396973,168.655762 C201.063312,168.361164 200.896484,167.987632 200.896484,167.535156 C200.896484,166.985023 201.105629,166.557781 201.523926,166.253418 C201.942222,165.949054 202.530595,165.796875 203.289062,165.796875 L204.167969,165.796875 L204.167969,165.381836 C204.167969,165.066079 204.073569,164.814617 203.884766,164.627441 C203.695963,164.440266 203.417645,164.34668 203.049805,164.34668 C202.727537,164.34668 202.457358,164.428059 202.239258,164.59082 C202.021158,164.753582 201.912109,164.95052 201.912109,165.181641 L201.003906,165.181641 C201.003906,164.917967 201.097493,164.66325 201.284668,164.41748 C201.471843,164.171711 201.725747,163.977214 202.046387,163.833984 C202.367026,163.690754 202.719399,163.619141 203.103516,163.619141 C203.712243,163.619141 204.189126,163.77132 204.53418,164.075684 C204.879233,164.380047 205.058268,164.799151 205.071289,165.333008 L205.071289,167.764648 C205.071289,168.249677 205.133137,168.635415 205.256836,168.921875 L205.256836,169 L204.30957,169 Z M202.810547,168.311523 C203.093751,168.311523 203.362303,168.238282 203.616211,168.091797 C203.870118,167.945312 204.054036,167.754884 204.167969,167.520508 L204.167969,166.436523 L203.459961,166.436523 C202.353185,166.436523 201.799805,166.760413 201.799805,167.408203 C201.799805,167.691408 201.894205,167.91276 202.083008,168.072266 C202.271811,168.231772 202.514321,168.311523 202.810547,168.311523 Z M208.142578,167.676758 L209.373047,163.716797 L210.339844,163.716797 L208.21582,169.81543 C207.887043,170.69434 207.364587,171.133789 206.648438,171.133789 L206.477539,171.119141 L206.140625,171.055664 L206.140625,170.323242 L206.384766,170.342773 C206.690757,170.342773 206.929198,170.280925 207.100098,170.157227 C207.270997,170.033528 207.411783,169.807293 207.522461,169.478516 L207.722656,168.941406 L205.837891,163.716797 L206.824219,163.716797 L208.142578,167.676758 Z M217.986328,165.967773 C217.986328,167.025721 217.805666,167.811846 217.444336,168.326172 C217.083006,168.840497 216.518233,169.097656 215.75,169.097656 C214.991533,169.097656 214.430015,168.846194 214.06543,168.343262 C213.700845,167.84033 213.512044,167.089198 213.499023,166.089844 L213.499023,164.883789 C213.499023,163.838862 213.679686,163.062503 214.041016,162.554688 C214.402346,162.046872 214.968746,161.792969 215.740234,161.792969 C216.505212,161.792969 217.068358,162.037921 217.429688,162.527832 C217.791017,163.017743 217.976562,163.773758 217.986328,164.795898 L217.986328,165.967773 Z M217.083008,164.732422 C217.083008,163.967444 216.975587,163.409995 216.760742,163.060059 C216.545897,162.710122 216.205731,162.535156 215.740234,162.535156 C215.277992,162.535156 214.941082,162.709308 214.729492,163.057617 C214.517903,163.405926 214.408854,163.941403 214.402344,164.664062 L214.402344,166.109375 C214.402344,166.877608 214.513834,167.444822 214.736816,167.811035 C214.959799,168.177248 215.297524,168.360352 215.75,168.360352 C216.195966,168.360352 216.52718,168.187827 216.743652,167.842773 C216.960125,167.49772 217.073242,166.954105 217.083008,166.211914 L217.083008,164.732422 Z M221.321289,166.163086 C221.321289,166.889001 221.226075,167.584795 221.035645,168.250488 C220.845214,168.916182 220.553876,169.530596 220.161621,170.09375 C219.769367,170.656904 219.358401,171.05729 218.928711,171.294922 L218.738281,170.743164 C219.239586,170.359048 219.642414,169.762537 219.946777,168.953613 C220.251141,168.14469 220.406575,167.247075 220.413086,166.260742 L220.413086,166.104492 C220.413086,165.420895 220.341472,164.785322 220.198242,164.197754 C220.055012,163.610186 219.855633,163.083661 219.600098,162.618164 C219.344563,162.152667 219.057293,161.789715 218.738281,161.529297 L218.928711,160.977539 C219.358401,161.21517 219.767739,161.612302 220.156738,162.168945 C220.545738,162.725589 220.837076,163.339189 221.030762,164.009766 C221.224448,164.680342 221.321289,165.398108 221.321289,166.163086 Z" id="bg:-#0e94a6-(cyan-70" fill="#EC407A"></path>
            <path d="M142.15625,237.416992 C142.15625,238.224288 141.970705,238.872882 141.599609,239.362793 C141.228514,239.852704 140.730472,240.097656 140.105469,240.097656 C139.438148,240.097656 138.922202,239.861656 138.557617,239.389648 L138.513672,240 L137.683594,240 L137.683594,232.5 L138.586914,232.5 L138.586914,235.297852 C138.951499,234.845375 139.454424,234.619141 140.095703,234.619141 C140.736982,234.619141 141.240721,234.861651 141.606934,235.34668 C141.973146,235.831708 142.15625,236.495764 142.15625,237.338867 L142.15625,237.416992 Z M141.25293,237.314453 C141.25293,236.699216 141.134116,236.22396 140.896484,235.888672 C140.658853,235.553384 140.31706,235.385742 139.871094,235.385742 C139.275388,235.385742 138.847332,235.662432 138.586914,236.21582 L138.586914,238.500977 C138.863608,239.054365 139.294919,239.331055 139.880859,239.331055 C140.313804,239.331055 140.650715,239.163413 140.891602,238.828125 C141.132488,238.492837 141.25293,237.988285 141.25293,237.314453 Z M143.079102,237.314453 C143.079102,236.490881 143.269529,235.835777 143.650391,235.349121 C144.031252,234.862465 144.535804,234.619141 145.164062,234.619141 C145.808597,234.619141 146.311522,234.847003 146.672852,235.302734 L146.716797,234.716797 L147.541992,234.716797 L147.541992,239.873047 C147.541992,240.556644 147.339357,241.095376 146.934082,241.489258 C146.528807,241.88314 145.984378,242.080078 145.300781,242.080078 C144.91992,242.080078 144.547202,241.998699 144.182617,241.835938 C143.818032,241.673176 143.539715,241.450197 143.347656,241.166992 L143.816406,240.625 C144.203778,241.103518 144.677406,241.342773 145.237305,241.342773 C145.67676,241.342773 146.019367,241.219077 146.265137,240.97168 C146.510906,240.724283 146.633789,240.375979 146.633789,239.926758 L146.633789,239.472656 C146.272459,239.889325 145.7793,240.097656 145.154297,240.097656 C144.535804,240.097656 144.035321,239.848635 143.652832,239.350586 C143.270343,238.852537 143.079102,238.173832 143.079102,237.314453 Z M143.987305,237.416992 C143.987305,238.012698 144.109374,238.48063 144.353516,238.820801 C144.597657,239.160972 144.939451,239.331055 145.378906,239.331055 C145.948571,239.331055 146.366861,239.072268 146.633789,238.554688 L146.633789,236.142578 C146.357095,235.638018 145.94206,235.385742 145.388672,235.385742 C144.949217,235.385742 144.605796,235.556639 144.358398,235.898438 C144.111001,236.240236 143.987305,236.746416 143.987305,237.416992 Z M148.875,239.526367 C148.875,239.370116 148.921386,239.239909 149.01416,239.135742 C149.106934,239.031575 149.246093,238.979492 149.431641,238.979492 C149.617188,238.979492 149.757975,239.031575 149.854004,239.135742 C149.950033,239.239909 149.998047,239.370116 149.998047,239.526367 C149.998047,239.676108 149.950033,239.801432 149.854004,239.902344 C149.757975,240.003256 149.617188,240.053711 149.431641,240.053711 C149.246093,240.053711 149.106934,240.003256 149.01416,239.902344 C148.921386,239.801432 148.875,239.676108 148.875,239.526367 Z M148.879883,235.214844 C148.879883,235.058593 148.926269,234.928386 149.019043,234.824219 C149.111817,234.720052 149.250976,234.667969 149.436523,234.667969 C149.622071,234.667969 149.762858,234.720052 149.858887,234.824219 C149.954916,234.928386 150.00293,235.058593 150.00293,235.214844 C150.00293,235.364584 149.954916,235.489908 149.858887,235.59082 C149.762858,235.691732 149.622071,235.742188 149.436523,235.742188 C149.250976,235.742188 149.111817,235.691732 149.019043,235.59082 C148.926269,235.489908 148.879883,235.364584 148.879883,235.214844 Z M156.853516,237.998047 L155.564453,237.998047 L155.173828,240 L154.475586,240 L154.866211,237.998047 L153.699219,237.998047 L153.699219,237.329102 L154.993164,237.329102 L155.330078,235.600586 L154.070312,235.600586 L154.070312,234.921875 L155.461914,234.921875 L155.862305,232.890625 L156.560547,232.890625 L156.160156,234.921875 L157.449219,234.921875 L157.849609,232.890625 L158.552734,232.890625 L158.152344,234.921875 L159.148438,234.921875 L159.148438,235.600586 L158.020508,235.600586 L157.683594,237.329102 L158.782227,237.329102 L158.782227,237.998047 L157.556641,237.998047 L157.166016,240 L156.462891,240 L156.853516,237.998047 Z M155.691406,237.329102 L156.980469,237.329102 L157.317383,235.600586 L156.02832,235.600586 L155.691406,237.329102 Z M162.834961,240 L161.926758,240 L161.926758,233.979492 L160.105469,234.648438 L160.105469,233.828125 L162.693359,232.856445 L162.834961,232.856445 L162.834961,240 Z M169.026367,232.885742 L169.026367,233.652344 L168.860352,233.652344 C168.157223,233.665365 167.597333,233.873696 167.180664,234.277344 C166.763995,234.680992 166.523112,235.24902 166.458008,235.981445 C166.832359,235.551756 167.343421,235.336914 167.991211,235.336914 C168.609704,235.336914 169.103677,235.555011 169.473145,235.991211 C169.842613,236.427411 170.027344,236.990556 170.027344,237.680664 C170.027344,238.41309 169.827964,238.999021 169.429199,239.438477 C169.030434,239.877932 168.495772,240.097656 167.825195,240.097656 C167.144853,240.097656 166.593101,239.836428 166.169922,239.313965 C165.746743,238.791501 165.535156,238.118494 165.535156,237.294922 L165.535156,236.948242 C165.535156,235.639642 165.814288,234.639489 166.372559,233.947754 C166.93083,233.256019 167.761713,232.902018 168.865234,232.885742 L169.026367,232.885742 Z M167.839844,236.088867 C167.530597,236.088867 167.24577,236.18164 166.985352,236.367188 C166.724934,236.552735 166.544271,236.78548 166.443359,237.06543 L166.443359,237.397461 C166.443359,237.983401 166.575194,238.455402 166.838867,238.813477 C167.10254,239.171551 167.431313,239.350586 167.825195,239.350586 C168.232098,239.350586 168.551919,239.200848 168.784668,238.901367 C169.017417,238.601887 169.133789,238.209638 169.133789,237.724609 C169.133789,237.236326 169.015789,236.841636 168.779785,236.540527 C168.543781,236.239419 168.230471,236.088867 167.839844,236.088867 Z M175.662109,237.416992 C175.662109,238.224288 175.476564,238.872882 175.105469,239.362793 C174.734373,239.852704 174.236331,240.097656 173.611328,240.097656 C172.944007,240.097656 172.428062,239.861656 172.063477,239.389648 L172.019531,240 L171.189453,240 L171.189453,232.5 L172.092773,232.5 L172.092773,235.297852 C172.457359,234.845375 172.960283,234.619141 173.601562,234.619141 C174.242842,234.619141 174.74658,234.861651 175.112793,235.34668 C175.479006,235.831708 175.662109,236.495764 175.662109,237.338867 L175.662109,237.416992 Z M174.758789,237.314453 C174.758789,236.699216 174.639975,236.22396 174.402344,235.888672 C174.164712,235.553384 173.822919,235.385742 173.376953,235.385742 C172.781247,235.385742 172.353191,235.662432 172.092773,236.21582 L172.092773,238.500977 C172.369468,239.054365 172.800778,239.331055 173.386719,239.331055 C173.819664,239.331055 174.156574,239.163413 174.397461,238.828125 C174.638348,238.492837 174.758789,237.988285 174.758789,237.314453 Z M180.168945,236.875 C179.980142,237.09961 179.754721,237.280273 179.492676,237.416992 C179.23063,237.553712 178.943361,237.62207 178.630859,237.62207 C178.220701,237.62207 177.863446,237.52116 177.559082,237.319336 C177.254719,237.117512 177.019532,236.833498 176.853516,236.467285 C176.687499,236.101072 176.604492,235.696617 176.604492,235.253906 C176.604492,234.778643 176.694823,234.350588 176.875488,233.969727 C177.056153,233.588865 177.312498,233.297527 177.644531,233.095703 C177.976564,232.893879 178.36393,232.792969 178.806641,232.792969 C179.509769,232.792969 180.063963,233.055824 180.469238,233.581543 C180.874514,234.107262 181.077148,234.824214 181.077148,235.732422 L181.077148,235.996094 C181.077148,237.379564 180.803714,238.389482 180.256836,239.025879 C179.709958,239.662275 178.884771,239.988607 177.78125,240.004883 L177.605469,240.004883 L177.605469,239.243164 L177.795898,239.243164 C178.541345,239.230143 179.114256,239.035646 179.514648,238.659668 C179.915041,238.28369 180.133138,237.688806 180.168945,236.875 Z M178.777344,236.875 C179.08008,236.875 179.359211,236.782227 179.614746,236.59668 C179.870281,236.411132 180.05664,236.181642 180.173828,235.908203 L180.173828,235.546875 C180.173828,234.954424 180.045249,234.472658 179.788086,234.101562 C179.530923,233.730467 179.205406,233.544922 178.811523,233.544922 C178.414386,233.544922 178.095379,233.697101 177.854492,234.001465 C177.613606,234.305828 177.493164,234.707029 177.493164,235.205078 C177.493164,235.690107 177.609537,236.089679 177.842285,236.403809 C178.075034,236.717938 178.386717,236.875 178.777344,236.875 Z M184.607422,240.097656 C183.891272,240.097656 183.308596,239.86247 182.859375,239.39209 C182.410154,238.92171 182.185547,238.292647 182.185547,237.504883 L182.185547,237.338867 C182.185547,236.814776 182.285644,236.346845 182.48584,235.935059 C182.686036,235.523273 182.965981,235.20101 183.325684,234.968262 C183.685386,234.735513 184.075193,234.619141 184.495117,234.619141 C185.18197,234.619141 185.715818,234.845375 186.09668,235.297852 C186.477541,235.750328 186.667969,236.398108 186.667969,237.241211 L186.667969,237.617188 L183.088867,237.617188 C183.101888,238.138023 183.254068,238.558755 183.54541,238.879395 C183.836753,239.200034 184.207029,239.360352 184.65625,239.360352 C184.975262,239.360352 185.245442,239.295248 185.466797,239.165039 C185.688152,239.03483 185.881835,238.862306 186.047852,238.647461 L186.599609,239.077148 C186.156899,239.75749 185.492843,240.097656 184.607422,240.097656 Z M184.495117,235.361328 C184.130532,235.361328 183.824546,235.493977 183.577148,235.759277 C183.329751,236.024578 183.176758,236.396482 183.118164,236.875 L185.764648,236.875 L185.764648,236.806641 C185.738607,236.347654 185.61491,235.992026 185.393555,235.739746 C185.172199,235.487466 184.872723,235.361328 184.495117,235.361328 Z M191.433594,237.612305 L192.419922,237.612305 L192.419922,238.349609 L191.433594,238.349609 L191.433594,240 L190.525391,240 L190.525391,238.349609 L187.288086,238.349609 L187.288086,237.817383 L190.47168,232.890625 L191.433594,232.890625 L191.433594,237.612305 Z M188.313477,237.612305 L190.525391,237.612305 L190.525391,234.125977 L190.417969,234.321289 L188.313477,237.612305 Z M195.769531,237.114258 C195.769531,236.378577 195.868,235.672204 196.064941,234.995117 C196.261882,234.31803 196.555662,233.702802 196.946289,233.149414 C197.336916,232.596026 197.742185,232.205405 198.162109,231.977539 L198.347656,232.573242 C197.872393,232.937827 197.482586,233.494462 197.178223,234.243164 C196.873859,234.991866 196.707031,235.830073 196.677734,236.757812 L196.672852,237.172852 C196.672852,238.429368 196.902341,239.519852 197.361328,240.444336 C197.638022,240.997724 197.966795,241.430662 198.347656,241.743164 L198.162109,242.294922 C197.729165,242.054035 197.315757,241.650393 196.921875,241.083984 C196.153642,239.977208 195.769531,238.653979 195.769531,237.114258 Z M201.34082,239.360352 C201.663088,239.360352 201.94466,239.262696 202.185547,239.067383 C202.426433,238.872069 202.559896,238.627931 202.585938,238.334961 L203.44043,238.334961 C203.424154,238.637697 203.319988,238.92578 203.12793,239.199219 C202.935871,239.472658 202.679526,239.690754 202.358887,239.853516 C202.038247,240.016277 201.698895,240.097656 201.34082,240.097656 C200.621416,240.097656 200.049319,239.857587 199.624512,239.377441 C199.199705,238.897296 198.987305,238.240564 198.987305,237.407227 L198.987305,237.255859 C198.987305,236.741534 199.081705,236.284182 199.270508,235.883789 C199.459311,235.483396 199.730304,235.172527 200.083496,234.951172 C200.436688,234.729817 200.854164,234.619141 201.335938,234.619141 C201.928388,234.619141 202.420734,234.796548 202.812988,235.151367 C203.205243,235.506187 203.414388,235.966794 203.44043,236.533203 L202.585938,236.533203 C202.559896,236.191405 202.430502,235.910646 202.197754,235.690918 C201.965005,235.47119 201.677736,235.361328 201.335938,235.361328 C200.876951,235.361328 200.521323,235.526528 200.269043,235.856934 C200.016763,236.187339 199.890625,236.665036 199.890625,237.290039 L199.890625,237.460938 C199.890625,238.069665 200.015949,238.53841 200.266602,238.867188 C200.517254,239.195965 200.875323,239.360352 201.34082,239.360352 Z M206.18457,238.676758 L207.415039,234.716797 L208.381836,234.716797 L206.257812,240.81543 C205.929035,241.69434 205.406579,242.133789 204.69043,242.133789 L204.519531,242.119141 L204.182617,242.055664 L204.182617,241.323242 L204.426758,241.342773 C204.732749,241.342773 204.971191,241.280925 205.14209,241.157227 C205.312989,241.033528 205.453775,240.807293 205.564453,240.478516 L205.764648,239.941406 L203.879883,234.716797 L204.866211,234.716797 L206.18457,238.676758 Z M212.375977,240 C212.323893,239.895833 212.281576,239.710288 212.249023,239.443359 C211.829099,239.879559 211.327802,240.097656 210.745117,240.097656 C210.224281,240.097656 209.797039,239.95036 209.463379,239.655762 C209.129718,239.361164 208.962891,238.987632 208.962891,238.535156 C208.962891,237.985023 209.172036,237.557781 209.590332,237.253418 C210.008628,236.949054 210.597001,236.796875 211.355469,236.796875 L212.234375,236.796875 L212.234375,236.381836 C212.234375,236.066079 212.139975,235.814617 211.951172,235.627441 C211.762369,235.440266 211.484051,235.34668 211.116211,235.34668 C210.793944,235.34668 210.523764,235.428059 210.305664,235.59082 C210.087564,235.753582 209.978516,235.95052 209.978516,236.181641 L209.070312,236.181641 C209.070312,235.917967 209.163899,235.66325 209.351074,235.41748 C209.53825,235.171711 209.792153,234.977214 210.112793,234.833984 C210.433433,234.690754 210.785805,234.619141 211.169922,234.619141 C211.778649,234.619141 212.255532,234.77132 212.600586,235.075684 C212.94564,235.380047 213.124674,235.799151 213.137695,236.333008 L213.137695,238.764648 C213.137695,239.249677 213.199544,239.635415 213.323242,239.921875 L213.323242,240 L212.375977,240 Z M210.876953,239.311523 C211.160158,239.311523 211.42871,239.238282 211.682617,239.091797 C211.936525,238.945312 212.120442,238.754884 212.234375,238.520508 L212.234375,237.436523 L211.526367,237.436523 C210.419591,237.436523 209.866211,237.760413 209.866211,238.408203 C209.866211,238.691408 209.960611,238.91276 210.149414,239.072266 C210.338217,239.231772 210.580728,239.311523 210.876953,239.311523 Z M215.408203,234.716797 L215.4375,235.380859 C215.841148,234.873044 216.368486,234.619141 217.019531,234.619141 C218.136073,234.619141 218.699219,235.249017 218.708984,236.508789 L218.708984,240 L217.805664,240 L217.805664,236.503906 C217.802409,236.123045 217.715333,235.841472 217.544434,235.65918 C217.373534,235.476887 217.107424,235.385742 216.746094,235.385742 C216.453124,235.385742 216.195965,235.463866 215.974609,235.620117 C215.753254,235.776368 215.58073,235.981444 215.457031,236.235352 L215.457031,240 L214.553711,240 L214.553711,234.716797 L215.408203,234.716797 Z M222.869141,236.435547 L223.230469,232.890625 L226.873047,232.890625 L226.873047,233.725586 L223.99707,233.725586 L223.782227,235.664062 C224.130536,235.458983 224.526039,235.356445 224.96875,235.356445 C225.61654,235.356445 226.130857,235.570473 226.511719,235.998535 C226.89258,236.426597 227.083008,237.005205 227.083008,237.734375 C227.083008,238.466801 226.885256,239.04378 226.489746,239.465332 C226.094236,239.886884 225.54167,240.097656 224.832031,240.097656 C224.203773,240.097656 223.691083,239.923504 223.293945,239.575195 C222.896808,239.226886 222.670573,238.74512 222.615234,238.129883 L223.469727,238.129883 C223.525065,238.536786 223.669921,238.843586 223.904297,239.050293 C224.138673,239.257 224.447915,239.360352 224.832031,239.360352 C225.251955,239.360352 225.581542,239.217124 225.820801,238.930664 C226.06006,238.644204 226.179688,238.2487 226.179688,237.744141 C226.179688,237.268878 226.050294,236.887208 225.791504,236.599121 C225.532714,236.311034 225.188479,236.166992 224.758789,236.166992 C224.364907,236.166992 224.055665,236.253254 223.831055,236.425781 L223.591797,236.621094 L222.869141,236.435547 Z M232.527344,236.967773 C232.527344,238.025721 232.346681,238.811846 231.985352,239.326172 C231.624022,239.840497 231.059249,240.097656 230.291016,240.097656 C229.532548,240.097656 228.97103,239.846194 228.606445,239.343262 C228.24186,238.84033 228.05306,238.089198 228.040039,237.089844 L228.040039,235.883789 C228.040039,234.838862 228.220701,234.062503 228.582031,233.554688 C228.943361,233.046872 229.509762,232.792969 230.28125,232.792969 C231.046228,232.792969 231.609373,233.037921 231.970703,233.527832 C232.332033,234.017743 232.517578,234.773758 232.527344,235.795898 L232.527344,236.967773 Z M231.624023,235.732422 C231.624023,234.967444 231.516603,234.409995 231.301758,234.060059 C231.086913,233.710122 230.746747,233.535156 230.28125,233.535156 C229.819008,233.535156 229.482097,233.709308 229.270508,234.057617 C229.058918,234.405926 228.94987,234.941403 228.943359,235.664062 L228.943359,237.109375 C228.943359,237.877608 229.054849,238.444822 229.277832,238.811035 C229.500815,239.177248 229.838539,239.360352 230.291016,239.360352 C230.736981,239.360352 231.068196,239.187827 231.284668,238.842773 C231.50114,238.49772 231.614258,237.954105 231.624023,237.211914 L231.624023,235.732422 Z M238.142578,236.967773 C238.142578,238.025721 237.961916,238.811846 237.600586,239.326172 C237.239256,239.840497 236.674483,240.097656 235.90625,240.097656 C235.147783,240.097656 234.586265,239.846194 234.22168,239.343262 C233.857095,238.84033 233.668294,238.089198 233.655273,237.089844 L233.655273,235.883789 C233.655273,234.838862 233.835936,234.062503 234.197266,233.554688 C234.558596,233.046872 235.124996,232.792969 235.896484,232.792969 C236.661462,232.792969 237.224608,233.037921 237.585938,233.527832 C237.947267,234.017743 238.132812,234.773758 238.142578,235.795898 L238.142578,236.967773 Z M237.239258,235.732422 C237.239258,234.967444 237.131837,234.409995 236.916992,234.060059 C236.702147,233.710122 236.361981,233.535156 235.896484,233.535156 C235.434242,233.535156 235.097332,233.709308 234.885742,234.057617 C234.674153,234.405926 234.565104,234.941403 234.558594,235.664062 L234.558594,237.109375 C234.558594,237.877608 234.670084,238.444822 234.893066,238.811035 C235.116049,239.177248 235.453774,239.360352 235.90625,239.360352 C236.352216,239.360352 236.68343,239.187827 236.899902,238.842773 C237.116375,238.49772 237.229492,237.954105 237.239258,237.211914 L237.239258,235.732422 Z M241.477539,237.163086 C241.477539,237.889001 241.382325,238.584795 241.191895,239.250488 C241.001464,239.916182 240.710126,240.530596 240.317871,241.09375 C239.925617,241.656904 239.514651,242.05729 239.084961,242.294922 L238.894531,241.743164 C239.395836,241.359048 239.798664,240.762537 240.103027,239.953613 C240.407391,239.14469 240.562825,238.247075 240.569336,237.260742 L240.569336,237.104492 C240.569336,236.420895 240.497722,235.785322 240.354492,235.197754 C240.211262,234.610186 240.011883,234.083661 239.756348,233.618164 C239.500813,233.152667 239.213543,232.789715 238.894531,232.529297 L239.084961,231.977539 C239.514651,232.21517 239.923989,232.612302 240.312988,233.168945 C240.701988,233.725589 240.993326,234.339189 241.187012,235.009766 C241.380698,235.680342 241.477539,236.398108 241.477539,237.163086 Z M138.90918,244.4375 L138.90918,245.716797 L139.895508,245.716797 L139.895508,246.415039 L138.90918,246.415039 L138.90918,249.691406 C138.90918,249.902996 138.953125,250.061686 139.041016,250.16748 C139.128907,250.273275 139.278645,250.326172 139.490234,250.326172 C139.594402,250.326172 139.737629,250.306641 139.919922,250.267578 L139.919922,251 C139.68229,251.065104 139.451173,251.097656 139.226562,251.097656 C138.822915,251.097656 138.518556,250.975587 138.313477,250.731445 C138.108397,250.487303 138.005859,250.140627 138.005859,249.691406 L138.005859,246.415039 L137.043945,246.415039 L137.043945,245.716797 L138.005859,245.716797 L138.005859,244.4375 L138.90918,244.4375 Z M143.142578,251.097656 C142.426429,251.097656 141.843752,250.86247 141.394531,250.39209 C140.94531,249.92171 140.720703,249.292647 140.720703,248.504883 L140.720703,248.338867 C140.720703,247.814776 140.8208,247.346845 141.020996,246.935059 C141.221192,246.523273 141.501138,246.20101 141.86084,245.968262 C142.220542,245.735513 142.610349,245.619141 143.030273,245.619141 C143.717126,245.619141 144.250975,245.845375 144.631836,246.297852 C145.012697,246.750328 145.203125,247.398108 145.203125,248.241211 L145.203125,248.617188 L141.624023,248.617188 C141.637044,249.138023 141.789224,249.558755 142.080566,249.879395 C142.371909,250.200034 142.742185,250.360352 143.191406,250.360352 C143.510418,250.360352 143.780598,250.295248 144.001953,250.165039 C144.223308,250.03483 144.416991,249.862306 144.583008,249.647461 L145.134766,250.077148 C144.692055,250.75749 144.027999,251.097656 143.142578,251.097656 Z M143.030273,246.361328 C142.665688,246.361328 142.359702,246.493977 142.112305,246.759277 C141.864908,247.024578 141.711914,247.396482 141.65332,247.875 L144.299805,247.875 L144.299805,247.806641 C144.273763,247.347654 144.150066,246.992026 143.928711,246.739746 C143.707356,246.487466 143.407879,246.361328 143.030273,246.361328 Z M148.020508,247.645508 L149.192383,245.716797 L150.24707,245.716797 L148.518555,248.329102 L150.300781,251 L149.255859,251 L148.035156,249.022461 L146.814453,251 L145.764648,251 L147.546875,248.329102 L145.818359,245.716797 L146.863281,245.716797 L148.020508,247.645508 Z M152.429688,244.4375 L152.429688,245.716797 L153.416016,245.716797 L153.416016,246.415039 L152.429688,246.415039 L152.429688,249.691406 C152.429688,249.902996 152.473632,250.061686 152.561523,250.16748 C152.649415,250.273275 152.799153,250.326172 153.010742,250.326172 C153.114909,250.326172 153.258137,250.306641 153.44043,250.267578 L153.44043,251 C153.202798,251.065104 152.971681,251.097656 152.74707,251.097656 C152.343422,251.097656 152.039064,250.975587 151.833984,250.731445 C151.628905,250.487303 151.526367,250.140627 151.526367,249.691406 L151.526367,246.415039 L150.564453,246.415039 L150.564453,245.716797 L151.526367,245.716797 L151.526367,244.4375 L152.429688,244.4375 Z M154.441406,250.526367 C154.441406,250.370116 154.487793,250.239909 154.580566,250.135742 C154.67334,250.031575 154.812499,249.979492 154.998047,249.979492 C155.183595,249.979492 155.324381,250.031575 155.42041,250.135742 C155.516439,250.239909 155.564453,250.370116 155.564453,250.526367 C155.564453,250.676108 155.516439,250.801432 155.42041,250.902344 C155.324381,251.003256 155.183595,251.053711 154.998047,251.053711 C154.812499,251.053711 154.67334,251.003256 154.580566,250.902344 C154.487793,250.801432 154.441406,250.676108 154.441406,250.526367 Z M154.446289,246.214844 C154.446289,246.058593 154.492675,245.928386 154.585449,245.824219 C154.678223,245.720052 154.817382,245.667969 155.00293,245.667969 C155.188477,245.667969 155.329264,245.720052 155.425293,245.824219 C155.521322,245.928386 155.569336,246.058593 155.569336,246.214844 C155.569336,246.364584 155.521322,246.489908 155.425293,246.59082 C155.329264,246.691732 155.188477,246.742188 155.00293,246.742188 C154.817382,246.742188 154.678223,246.691732 154.585449,246.59082 C154.492675,246.489908 154.446289,246.364584 154.446289,246.214844 Z M162.419922,248.998047 L161.130859,248.998047 L160.740234,251 L160.041992,251 L160.432617,248.998047 L159.265625,248.998047 L159.265625,248.329102 L160.55957,248.329102 L160.896484,246.600586 L159.636719,246.600586 L159.636719,245.921875 L161.02832,245.921875 L161.428711,243.890625 L162.126953,243.890625 L161.726562,245.921875 L163.015625,245.921875 L163.416016,243.890625 L164.119141,243.890625 L163.71875,245.921875 L164.714844,245.921875 L164.714844,246.600586 L163.586914,246.600586 L163.25,248.329102 L164.348633,248.329102 L164.348633,248.998047 L163.123047,248.998047 L162.732422,251 L162.029297,251 L162.419922,248.998047 Z M161.257812,248.329102 L162.546875,248.329102 L162.883789,246.600586 L161.594727,246.600586 L161.257812,248.329102 Z M165.969727,251 L165.969727,246.415039 L165.134766,246.415039 L165.134766,245.716797 L165.969727,245.716797 L165.969727,245.174805 C165.969727,244.608396 166.121092,244.170574 166.423828,243.861328 C166.726564,243.552082 167.15462,243.397461 167.708008,243.397461 C167.916342,243.397461 168.123046,243.42513 168.328125,243.480469 L168.279297,244.212891 C168.126301,244.183594 167.963543,244.168945 167.791016,244.168945 C167.498045,244.168945 167.271811,244.254394 167.112305,244.425293 C166.952799,244.596192 166.873047,244.841144 166.873047,245.160156 L166.873047,245.716797 L168.000977,245.716797 L168.000977,246.415039 L166.873047,246.415039 L166.873047,251 L165.969727,251 Z M169.441406,251 L169.441406,246.415039 L168.606445,246.415039 L168.606445,245.716797 L169.441406,245.716797 L169.441406,245.174805 C169.441406,244.608396 169.592772,244.170574 169.895508,243.861328 C170.198244,243.552082 170.626299,243.397461 171.179688,243.397461 C171.388022,243.397461 171.594726,243.42513 171.799805,243.480469 L171.750977,244.212891 C171.597981,244.183594 171.435222,244.168945 171.262695,244.168945 C170.969725,244.168945 170.74349,244.254394 170.583984,244.425293 C170.424478,244.596192 170.344727,244.841144 170.344727,245.160156 L170.344727,245.716797 L171.472656,245.716797 L171.472656,246.415039 L170.344727,246.415039 L170.344727,251 L169.441406,251 Z M172.913086,251 L172.913086,246.415039 L172.078125,246.415039 L172.078125,245.716797 L172.913086,245.716797 L172.913086,245.174805 C172.913086,244.608396 173.064452,244.170574 173.367188,243.861328 C173.669923,243.552082 174.097979,243.397461 174.651367,243.397461 C174.859702,243.397461 175.066405,243.42513 175.271484,243.480469 L175.222656,244.212891 C175.069661,244.183594 174.906902,244.168945 174.734375,244.168945 C174.441405,244.168945 174.21517,244.254394 174.055664,244.425293 C173.896158,244.596192 173.816406,244.841144 173.816406,245.160156 L173.816406,245.716797 L174.944336,245.716797 L174.944336,246.415039 L173.816406,246.415039 L173.816406,251 L172.913086,251 Z M176.384766,251 L176.384766,246.415039 L175.549805,246.415039 L175.549805,245.716797 L176.384766,245.716797 L176.384766,245.174805 C176.384766,244.608396 176.536131,244.170574 176.838867,243.861328 C177.141603,243.552082 177.569659,243.397461 178.123047,243.397461 C178.331381,243.397461 178.538085,243.42513 178.743164,243.480469 L178.694336,244.212891 C178.54134,244.183594 178.378582,244.168945 178.206055,244.168945 C177.913084,244.168945 177.68685,244.254394 177.527344,244.425293 C177.367838,244.596192 177.288086,244.841144 177.288086,245.160156 L177.288086,245.716797 L178.416016,245.716797 L178.416016,246.415039 L177.288086,246.415039 L177.288086,251 L176.384766,251 Z M179.856445,251 L179.856445,246.415039 L179.021484,246.415039 L179.021484,245.716797 L179.856445,245.716797 L179.856445,245.174805 C179.856445,244.608396 180.007811,244.170574 180.310547,243.861328 C180.613283,243.552082 181.041338,243.397461 181.594727,243.397461 C181.803061,243.397461 182.009765,243.42513 182.214844,243.480469 L182.166016,244.212891 C182.01302,244.183594 181.850261,244.168945 181.677734,244.168945 C181.384764,244.168945 181.158529,244.254394 180.999023,244.425293 C180.839517,244.596192 180.759766,244.841144 180.759766,245.160156 L180.759766,245.716797 L181.887695,245.716797 L181.887695,246.415039 L180.759766,246.415039 L180.759766,251 L179.856445,251 Z M183.328125,251 L183.328125,246.415039 L182.493164,246.415039 L182.493164,245.716797 L183.328125,245.716797 L183.328125,245.174805 C183.328125,244.608396 183.479491,244.170574 183.782227,243.861328 C184.084962,243.552082 184.513018,243.397461 185.066406,243.397461 C185.274741,243.397461 185.481444,243.42513 185.686523,243.480469 L185.637695,244.212891 C185.4847,244.183594 185.321941,244.168945 185.149414,244.168945 C184.856444,244.168945 184.630209,244.254394 184.470703,244.425293 C184.311197,244.596192 184.231445,244.841144 184.231445,245.160156 L184.231445,245.716797 L185.359375,245.716797 L185.359375,246.415039 L184.231445,246.415039 L184.231445,251 L183.328125,251 Z M188.796875,248.114258 C188.796875,247.378577 188.895344,246.672204 189.092285,245.995117 C189.289226,245.31803 189.583006,244.702802 189.973633,244.149414 C190.36426,243.596026 190.769529,243.205405 191.189453,242.977539 L191.375,243.573242 C190.899737,243.937827 190.50993,244.494462 190.205566,245.243164 C189.901203,245.991866 189.734375,246.830073 189.705078,247.757812 L189.700195,248.172852 C189.700195,249.429368 189.929685,250.519852 190.388672,251.444336 C190.665366,251.997724 190.994139,252.430662 191.375,252.743164 L191.189453,253.294922 C190.756508,253.054035 190.343101,252.650393 189.949219,252.083984 C189.180986,250.977208 188.796875,249.653979 188.796875,248.114258 Z M192.03418,248.314453 C192.03418,247.490881 192.224607,246.835777 192.605469,246.349121 C192.98633,245.862465 193.490882,245.619141 194.119141,245.619141 C194.763675,245.619141 195.2666,245.847003 195.62793,246.302734 L195.671875,245.716797 L196.49707,245.716797 L196.49707,250.873047 C196.49707,251.556644 196.294436,252.095376 195.88916,252.489258 C195.483885,252.88314 194.939457,253.080078 194.255859,253.080078 C193.874998,253.080078 193.50228,252.998699 193.137695,252.835938 C192.77311,252.673176 192.494793,252.450197 192.302734,252.166992 L192.771484,251.625 C193.158856,252.103518 193.632484,252.342773 194.192383,252.342773 C194.631838,252.342773 194.974445,252.219077 195.220215,251.97168 C195.465984,251.724283 195.588867,251.375979 195.588867,250.926758 L195.588867,250.472656 C195.227537,250.889325 194.734378,251.097656 194.109375,251.097656 C193.490882,251.097656 192.990399,250.848635 192.60791,250.350586 C192.225421,249.852537 192.03418,249.173832 192.03418,248.314453 Z M192.942383,248.416992 C192.942383,249.012698 193.064452,249.48063 193.308594,249.820801 C193.552736,250.160972 193.894529,250.331055 194.333984,250.331055 C194.903649,250.331055 195.321939,250.072268 195.588867,249.554688 L195.588867,247.142578 C195.312173,246.638018 194.897138,246.385742 194.34375,246.385742 C193.904295,246.385742 193.560874,246.556639 193.313477,246.898438 C193.066079,247.240236 192.942383,247.746416 192.942383,248.416992 Z M200.413086,246.527344 C200.276367,246.504557 200.128256,246.493164 199.96875,246.493164 C199.376299,246.493164 198.974285,246.74544 198.762695,247.25 L198.762695,251 L197.859375,251 L197.859375,245.716797 L198.738281,245.716797 L198.75293,246.327148 C199.049155,245.855141 199.469073,245.619141 200.012695,245.619141 C200.188477,245.619141 200.32194,245.641927 200.413086,245.6875 L200.413086,246.527344 Z M204.30957,251 C204.257487,250.895833 204.215169,250.710288 204.182617,250.443359 C203.762693,250.879559 203.261396,251.097656 202.678711,251.097656 C202.157875,251.097656 201.730633,250.95036 201.396973,250.655762 C201.063312,250.361164 200.896484,249.987632 200.896484,249.535156 C200.896484,248.985023 201.105629,248.557781 201.523926,248.253418 C201.942222,247.949054 202.530595,247.796875 203.289062,247.796875 L204.167969,247.796875 L204.167969,247.381836 C204.167969,247.066079 204.073569,246.814617 203.884766,246.627441 C203.695963,246.440266 203.417645,246.34668 203.049805,246.34668 C202.727537,246.34668 202.457358,246.428059 202.239258,246.59082 C202.021158,246.753582 201.912109,246.95052 201.912109,247.181641 L201.003906,247.181641 C201.003906,246.917967 201.097493,246.66325 201.284668,246.41748 C201.471843,246.171711 201.725747,245.977214 202.046387,245.833984 C202.367026,245.690754 202.719399,245.619141 203.103516,245.619141 C203.712243,245.619141 204.189126,245.77132 204.53418,246.075684 C204.879233,246.380047 205.058268,246.799151 205.071289,247.333008 L205.071289,249.764648 C205.071289,250.249677 205.133137,250.635415 205.256836,250.921875 L205.256836,251 L204.30957,251 Z M202.810547,250.311523 C203.093751,250.311523 203.362303,250.238282 203.616211,250.091797 C203.870118,249.945312 204.054036,249.754884 204.167969,249.520508 L204.167969,248.436523 L203.459961,248.436523 C202.353185,248.436523 201.799805,248.760413 201.799805,249.408203 C201.799805,249.691408 201.894205,249.91276 202.083008,250.072266 C202.271811,250.231772 202.514321,250.311523 202.810547,250.311523 Z M208.142578,249.676758 L209.373047,245.716797 L210.339844,245.716797 L208.21582,251.81543 C207.887043,252.69434 207.364587,253.133789 206.648438,253.133789 L206.477539,253.119141 L206.140625,253.055664 L206.140625,252.323242 L206.384766,252.342773 C206.690757,252.342773 206.929198,252.280925 207.100098,252.157227 C207.270997,252.033528 207.411783,251.807293 207.522461,251.478516 L207.722656,250.941406 L205.837891,245.716797 L206.824219,245.716797 L208.142578,249.676758 Z M217.986328,247.967773 C217.986328,249.025721 217.805666,249.811846 217.444336,250.326172 C217.083006,250.840497 216.518233,251.097656 215.75,251.097656 C214.991533,251.097656 214.430015,250.846194 214.06543,250.343262 C213.700845,249.84033 213.512044,249.089198 213.499023,248.089844 L213.499023,246.883789 C213.499023,245.838862 213.679686,245.062503 214.041016,244.554688 C214.402346,244.046872 214.968746,243.792969 215.740234,243.792969 C216.505212,243.792969 217.068358,244.037921 217.429688,244.527832 C217.791017,245.017743 217.976562,245.773758 217.986328,246.795898 L217.986328,247.967773 Z M217.083008,246.732422 C217.083008,245.967444 216.975587,245.409995 216.760742,245.060059 C216.545897,244.710122 216.205731,244.535156 215.740234,244.535156 C215.277992,244.535156 214.941082,244.709308 214.729492,245.057617 C214.517903,245.405926 214.408854,245.941403 214.402344,246.664062 L214.402344,248.109375 C214.402344,248.877608 214.513834,249.444822 214.736816,249.811035 C214.959799,250.177248 215.297524,250.360352 215.75,250.360352 C216.195966,250.360352 216.52718,250.187827 216.743652,249.842773 C216.960125,249.49772 217.073242,248.954105 217.083008,248.211914 L217.083008,246.732422 Z M221.321289,248.163086 C221.321289,248.889001 221.226075,249.584795 221.035645,250.250488 C220.845214,250.916182 220.553876,251.530596 220.161621,252.09375 C219.769367,252.656904 219.358401,253.05729 218.928711,253.294922 L218.738281,252.743164 C219.239586,252.359048 219.642414,251.762537 219.946777,250.953613 C220.251141,250.14469 220.406575,249.247075 220.413086,248.260742 L220.413086,248.104492 C220.413086,247.420895 220.341472,246.785322 220.198242,246.197754 C220.055012,245.610186 219.855633,245.083661 219.600098,244.618164 C219.344563,244.152667 219.057293,243.789715 218.738281,243.529297 L218.928711,242.977539 C219.358401,243.21517 219.767739,243.612302 220.156738,244.168945 C220.545738,244.725589 220.837076,245.339189 221.030762,246.009766 C221.224448,246.680342 221.321289,247.398108 221.321289,248.163086 Z" id="bg:-#16b9e4-(cyan-50" fill="#EC407A"></path>
            <polyline id="Stroke-8-Copy-11" stroke="#EC3F7A" stroke-width="0.72" transform="translate(116.465066, 152.584436) rotate(33.000000) translate(-116.465066, -152.584436) " points="95.9650662 152.084436 115.89328 152.084436 136.965066 152.084436"></polyline>
            <polyline id="Stroke-8-Copy-13" stroke="#EC3F7A" stroke-width="0.72" transform="translate(116.465066, 234.584436) rotate(33.000000) translate(-116.465066, -234.584436) " points="95.9650662 234.084436 115.89328 234.084436 136.965066 234.084436"></polyline>
            <g id="specs-/-redlines-/-label-title-sm" transform="translate(57.000000, 231.000000)" font-size="10" font-family="Roboto-Regular, Roboto" fill="#9E9E9E" font-weight="normal">
                <text id="SMALL-LABEL">
                    <tspan x="0" y="9">HOVER</tspan>
                </text>
            </g>
            <g id="Rectangle-3-Copy-6">
                <use fill="#FFFFFF" fill-rule="evenodd" xlink:href="#path-2"></use>
                <rect stroke="#E0E0E0" stroke-width="1" x="56.5" y="114.5" width="203" height="29" rx="3"></rect>
            </g>
            <rect id="Rectangle-5-Copy-12" fill="#0093A6" x="85" y="115" width="30" height="28"></rect>
            <rect id="Rectangle-5-Copy-14" x="114" y="114" width="30" height="30"></rect>
            <rect id="Rectangle-5-Copy-15" x="201" y="114" width="30" height="30"></rect>
            <rect id="Rectangle-5-Copy-16" x="172" y="114" width="30" height="30"></rect>
            <rect id="Rectangle-5-Copy-17" x="143" y="114" width="30" height="30"></rect>
            <polygon id="1-copy-9" fill="#FFFFFF" points="101.243164 132 99.5888672 132 99.5888672 124.008789 97.1484375 124.842773 97.1484375 123.441406 101.03125 122.012695 101.243164 122.012695"></polygon>
            <path d="M132.4375,132 L125.745117,132 L125.745117,130.858398 L129.060547,127.242188 C129.539065,126.708982 129.879719,126.263511 130.08252,125.905762 C130.28532,125.548013 130.386719,125.189129 130.386719,124.829102 C130.386719,124.355141 130.253419,123.972332 129.986816,123.680664 C129.720214,123.388996 129.36133,123.243164 128.910156,123.243164 C128.372393,123.243164 127.955405,123.407225 127.65918,123.735352 C127.362954,124.063478 127.214844,124.512367 127.214844,125.082031 L125.553711,125.082031 C125.553711,124.475908 125.691568,123.930178 125.967285,123.444824 C126.243003,122.95947 126.637204,122.582358 127.149902,122.313477 C127.6626,122.044595 128.253903,121.910156 128.923828,121.910156 C129.889979,121.910156 130.652178,122.15283 131.210449,122.638184 C131.76872,123.123538 132.047852,123.794592 132.047852,124.651367 C132.047852,125.148114 131.907716,125.66878 131.627441,126.213379 C131.347167,126.757978 130.888024,127.376624 130.25,128.069336 L127.816406,130.673828 L132.4375,130.673828 L132.4375,132 Z" id="2" fill="#616262"></path>
            <path d="M213.243164,132 L211.588867,132 L211.588867,124.008789 L209.148438,124.842773 L209.148438,123.441406 L213.03125,122.012695 L213.243164,122.012695 L213.243164,132 Z M223.189453,127.80957 C223.189453,129.240567 222.921715,130.319495 222.38623,131.046387 C221.850746,131.773278 221.036138,132.136719 219.942383,132.136719 C218.866857,132.136719 218.056806,131.782393 217.512207,131.07373 C216.967608,130.365068 216.688477,129.315762 216.674805,127.925781 L216.674805,126.203125 C216.674805,124.772128 216.942543,123.698897 217.478027,122.983398 C218.013512,122.2679 218.830398,121.910156 219.928711,121.910156 C221.017909,121.910156 221.830238,122.258786 222.365723,122.956055 C222.901207,123.653324 223.175781,124.696933 223.189453,126.086914 L223.189453,127.80957 Z M221.52832,125.950195 C221.52832,125.015946 221.400717,124.33122 221.145508,123.895996 C220.890298,123.460773 220.484703,123.243164 219.928711,123.243164 C219.386391,123.243164 218.987631,123.449379 218.732422,123.861816 C218.477212,124.274253 218.342774,124.917964 218.329102,125.792969 L218.329102,128.048828 C218.329102,128.97852 218.458983,129.671222 218.71875,130.126953 C218.978517,130.582685 219.38639,130.810547 219.942383,130.810547 C220.475589,130.810547 220.86979,130.599774 221.125,130.178223 C221.38021,129.756671 221.514648,129.09701 221.52832,128.199219 L221.52832,125.950195 Z" id="10" fill="#616262"></path>
            <text id="…" font-family="Roboto-Medium, Roboto" font-size="14" font-weight="400" fill="#616262">
                <tspan x="182" y="132">…</tspan>
            </text>
            <path d="M156.666016,126.264648 L157.677734,126.264648 C158.188154,126.260091 158.592609,126.127931 158.891113,125.868164 C159.189617,125.608397 159.338867,125.232424 159.338867,124.740234 C159.338867,124.266274 159.214682,123.898276 158.966309,123.63623 C158.717935,123.374185 158.338544,123.243164 157.828125,123.243164 C157.381508,123.243164 157.01465,123.371906 156.727539,123.629395 C156.440428,123.886883 156.296875,124.22298 156.296875,124.637695 L154.635742,124.637695 C154.635742,124.127276 154.77132,123.662437 155.04248,123.243164 C155.313641,122.823891 155.691892,122.496909 156.177246,122.262207 C156.6626,122.027505 157.206052,121.910156 157.807617,121.910156 C158.801112,121.910156 159.58154,122.159665 160.148926,122.658691 C160.716311,123.157717 161,123.851558 161,124.740234 C161,125.186851 160.857586,125.607257 160.572754,126.001465 C160.287922,126.395673 159.919924,126.693033 159.46875,126.893555 C160.015628,127.080405 160.431476,127.374347 160.716309,127.775391 C161.001141,128.176434 161.143555,128.654945 161.143555,129.210938 C161.143555,130.104171 160.83708,130.815102 160.224121,131.34375 C159.611162,131.872398 158.805669,132.136719 157.807617,132.136719 C156.850581,132.136719 156.066735,131.881513 155.456055,131.371094 C154.845375,130.860675 154.540039,130.181645 154.540039,129.333984 L156.201172,129.333984 C156.201172,129.771487 156.348143,130.126952 156.64209,130.400391 C156.936037,130.673829 157.331378,130.810547 157.828125,130.810547 C158.343102,130.810547 158.748696,130.673829 159.044922,130.400391 C159.341147,130.126952 159.489258,129.730471 159.489258,129.210938 C159.489258,128.686846 159.334311,128.28353 159.024414,128.000977 C158.714517,127.718423 158.254235,127.577148 157.643555,127.577148 L156.666016,127.577148 L156.666016,126.264648 Z" id="3" fill="#616262"></path>
            <path d="M59,114 L86,114 L86,144 L59,144 L59,144 C57.3431458,144 56,142.656854 56,141 L56,117 L56,117 C56,115.343146 57.3431458,114 59,114 Z" id="Rectangle-6"></path>
            <polygon id="Path-2-Copy-22" fill="#616262" fill-rule="nonzero" transform="translate(71.000000, 129.500000) rotate(90.000000) translate(-71.000000, -129.500000) " points="66.5517903 125.575305 65.5 126.661155 70.9698844 133.5 76.5 126.585849 75.4482097 125.5 70.9698844 131.099127"></polygon>
            <path d="M233,114 L260,114 L260,144 L233,144 L233,144 C231.343146,144 230,142.656854 230,141 L230,117 L230,117 C230,115.343146 231.343146,114 233,114 Z" id="Rectangle-6" transform="translate(245.000000, 129.000000) scale(-1, -1) translate(-245.000000, -129.000000) "></path>
            <polygon id="Path-2-Copy-22" fill="#616262" fill-rule="nonzero" transform="translate(246.000000, 129.500000) scale(-1, -1) rotate(90.000000) translate(-246.000000, -129.500000) " points="241.55179 125.575305 240.5 126.661155 245.969884 133.5 251.5 126.585849 250.44821 125.5 245.969884 131.099127"></polygon>
            <g id="Rectangle-3-Copy-6">
                <use fill="#FFFFFF" fill-rule="evenodd" xlink:href="#path-3"></use>
                <rect stroke="#E0E0E0" stroke-width="1" x="56.5" y="44.5" width="203" height="29" rx="3"></rect>
            </g>
            <rect id="Rectangle-5-Copy-12" x="85" y="45" width="30" height="28"></rect>
            <rect id="Rectangle-5-Copy-14" x="114" y="44" width="30" height="30"></rect>
            <rect id="Rectangle-5-Copy-15" x="201" y="44" width="30" height="30"></rect>
            <rect id="Rectangle-5-Copy-16" x="172" y="44" width="30" height="30"></rect>
            <rect id="Rectangle-5-Copy-17" x="143" y="44" width="30" height="30"></rect>
            <polygon id="1-copy-9" fill="#616262" points="101.243164 62 99.5888672 62 99.5888672 54.0087891 97.1484375 54.8427734 97.1484375 53.4414062 101.03125 52.0126953 101.243164 52.0126953"></polygon>
            <path d="M132.4375,62 L125.745117,62 L125.745117,60.8583984 L129.060547,57.2421875 C129.539065,56.7089817 129.879719,56.2635109 130.08252,55.9057617 C130.28532,55.5480125 130.386719,55.1891294 130.386719,54.8291016 C130.386719,54.3551409 130.253419,53.9723322 129.986816,53.6806641 C129.720214,53.3889959 129.36133,53.2431641 128.910156,53.2431641 C128.372393,53.2431641 127.955405,53.4072249 127.65918,53.7353516 C127.362954,54.0634782 127.214844,54.5123669 127.214844,55.0820312 L125.553711,55.0820312 C125.553711,54.4759084 125.691568,53.9301782 125.967285,53.4448242 C126.243003,52.9594702 126.637204,52.5823581 127.149902,52.3134766 C127.6626,52.044595 128.253903,51.9101562 128.923828,51.9101562 C129.889979,51.9101562 130.652178,52.1528296 131.210449,52.6381836 C131.76872,53.1235376 132.047852,53.7945921 132.047852,54.6513672 C132.047852,55.1481145 131.907716,55.6687798 131.627441,56.2133789 C131.347167,56.757978 130.888024,57.3766241 130.25,58.0693359 L127.816406,60.6738281 L132.4375,60.6738281 L132.4375,62 Z" id="2" fill="#616262"></path>
            <path d="M213.243164,62 L211.588867,62 L211.588867,54.0087891 L209.148438,54.8427734 L209.148438,53.4414062 L213.03125,52.0126953 L213.243164,52.0126953 L213.243164,62 Z M223.189453,57.8095703 C223.189453,59.2405671 222.921715,60.3194951 222.38623,61.0463867 C221.850746,61.7732784 221.036138,62.1367188 219.942383,62.1367188 C218.866857,62.1367188 218.056806,61.7823929 217.512207,61.0737305 C216.967608,60.3650681 216.688477,59.3157622 216.674805,57.9257812 L216.674805,56.203125 C216.674805,54.7721283 216.942543,53.6988968 217.478027,52.9833984 C218.013512,52.2679001 218.830398,51.9101562 219.928711,51.9101562 C221.017909,51.9101562 221.830238,52.2587856 222.365723,52.9560547 C222.901207,53.6533238 223.175781,54.6969332 223.189453,56.0869141 L223.189453,57.8095703 Z M221.52832,55.9501953 C221.52832,55.0159458 221.400717,54.3312196 221.145508,53.8959961 C220.890298,53.4607726 220.484703,53.2431641 219.928711,53.2431641 C219.386391,53.2431641 218.987631,53.4493794 218.732422,53.8618164 C218.477212,54.2742534 218.342774,54.9179644 218.329102,55.7929688 L218.329102,58.0488281 C218.329102,58.9785203 218.458983,59.6712217 218.71875,60.1269531 C218.978517,60.5826846 219.38639,60.8105469 219.942383,60.8105469 C220.475589,60.8105469 220.86979,60.5997742 221.125,60.1782227 C221.38021,59.7566711 221.514648,59.0970097 221.52832,58.1992188 L221.52832,55.9501953 Z" id="10" fill="#616262"></path>
            <text id="…" font-family="Roboto-Medium, Roboto" font-size="14" font-weight="400" fill="#616262">
                <tspan x="182" y="62">…</tspan>
            </text>
            <path d="M156.666016,56.2646484 L157.677734,56.2646484 C158.188154,56.2600911 158.592609,56.127931 158.891113,55.8681641 C159.189617,55.6083971 159.338867,55.2324243 159.338867,54.7402344 C159.338867,54.2662737 159.214682,53.898276 158.966309,53.6362305 C158.717935,53.3741849 158.338544,53.2431641 157.828125,53.2431641 C157.381508,53.2431641 157.01465,53.3719063 156.727539,53.6293945 C156.440428,53.8868828 156.296875,54.2229797 156.296875,54.6376953 L154.635742,54.6376953 C154.635742,54.1272761 154.77132,53.662437 155.04248,53.2431641 C155.313641,52.8238911 155.691892,52.4969087 156.177246,52.262207 C156.6626,52.0275053 157.206052,51.9101562 157.807617,51.9101562 C158.801112,51.9101562 159.58154,52.1596655 160.148926,52.6586914 C160.716311,53.1577173 161,53.8515581 161,54.7402344 C161,55.1868512 160.857586,55.6072571 160.572754,56.0014648 C160.287922,56.3956725 159.919924,56.6930329 159.46875,56.8935547 C160.015628,57.0804046 160.431476,57.374347 160.716309,57.7753906 C161.001141,58.1764343 161.143555,58.6549451 161.143555,59.2109375 C161.143555,60.1041711 160.83708,60.8151015 160.224121,61.34375 C159.611162,61.8723985 158.805669,62.1367188 157.807617,62.1367188 C156.850581,62.1367188 156.066735,61.881513 155.456055,61.3710938 C154.845375,60.8606745 154.540039,60.1816449 154.540039,59.3339844 L156.201172,59.3339844 C156.201172,59.7714866 156.348143,60.1269518 156.64209,60.4003906 C156.936037,60.6738295 157.331378,60.8105469 157.828125,60.8105469 C158.343102,60.8105469 158.748696,60.6738295 159.044922,60.4003906 C159.341147,60.1269518 159.489258,59.7304713 159.489258,59.2109375 C159.489258,58.6868463 159.334311,58.2835301 159.024414,58.0009766 C158.714517,57.7184231 158.254235,57.5771484 157.643555,57.5771484 L156.666016,57.5771484 L156.666016,56.2646484 Z" id="3" fill="#616262"></path>
            <path d="M59,44 L86,44 L86,74 L59,74 L59,74 C57.3431458,74 56,72.6568542 56,71 L56,47 L56,47 C56,45.3431458 57.3431458,44 59,44 Z" id="Rectangle-6"></path>
            <polygon id="Path-2-Copy-22" fill="#616262" fill-rule="nonzero" transform="translate(71.000000, 59.500000) rotate(90.000000) translate(-71.000000, -59.500000) " points="66.5517903 55.5753054 65.5 56.6611545 70.9698844 63.5 76.5 56.5858491 75.4482097 55.5 70.9698844 61.0991265"></polygon>
            <path d="M233,44 L260,44 L260,74 L233,74 L233,74 C231.343146,74 230,72.6568542 230,71 L230,47 L230,47 C230,45.3431458 231.343146,44 233,44 Z" id="Rectangle-6" transform="translate(245.000000, 59.000000) scale(-1, -1) translate(-245.000000, -59.000000) "></path>
            <polygon id="Path-2-Copy-22" fill="#616262" fill-rule="nonzero" transform="translate(246.000000, 59.500000) scale(-1, -1) rotate(90.000000) translate(-246.000000, -59.500000) " points="241.55179 55.5753054 240.5 56.6611545 245.969884 63.5 251.5 56.5858491 250.44821 55.5 245.969884 61.0991265"></polygon>
            <g id="specs-/-redlines-/-label-title-sm" transform="translate(57.000000, 75.000000)" font-size="10" font-family="Roboto-Regular, Roboto" fill="#9E9E9E" font-weight="normal">
                <text id="SMALL-LABEL">
                    <tspan x="0" y="9">BASE</tspan>
                </text>
            </g>
            <g id="specs-/-redlines-/-label-title-sm" transform="translate(57.000000, 144.000000)" font-size="10" font-family="Roboto-Regular, Roboto" fill="#9E9E9E" font-weight="normal">
                <text id="SMALL-LABEL">
                    <tspan x="0" y="9">SELECTED</tspan>
                </text>
            </g>
        </g>
    </g>
</svg>