<?xml version="1.0" encoding="UTF-8" standalone="no"?>
<svg width="624px" height="390px" viewBox="0 0 624 390" version="1.1" xmlns="http://www.w3.org/2000/svg" xmlns:xlink="http://www.w3.org/1999/xlink">
    <!-- Generator: Sketch 47.1 (45422) - http://www.bohemiancoding.com/sketch -->
    <title>chips-expanded</title>
    <desc>Created with Sketch.</desc>
    <defs></defs>
    <g id="Page-1" stroke="none" stroke-width="1" fill="none" fill-rule="evenodd">
        <g id="chips-expanded">
            <path d="M50,69 L166,69 L166,69 C172.627417,69 178,74.372583 178,81 L178,81 L178,81 C178,87.627417 172.627417,93 166,93 L50,93 L50,69 Z" id="Rectangle-Copy-10" fill="#D8D8D8"></path>
            <path d="M50,125 L185,125 L185,125 C191.627417,125 197,130.372583 197,137 L197,137 L197,137 C197,143.627417 191.627417,149 185,149 L50,149 L50,125 Z" id="Rectangle-Copy-11" fill="#D8D8D8"></path>
            <path d="M50,181 L177,181 L177,181 C183.627417,181 189,186.372583 189,193 L189,193 L189,193 C189,199.627417 183.627417,205 177,205 L50,205 L50,181 Z" id="Rectangle-Copy-12" fill="#D8D8D8"></path>
            <path d="M50,237 L135,237 L135,237 C141.627417,237 147,242.372583 147,249 L147,249 L147,249 C147,255.627417 141.627417,261 135,261 L50,261 L50,237 Z" id="Rectangle-Copy-13" fill="#D8D8D8"></path>
            <path d="M295,75 L562,75 L562,75 C568.627417,75 574,80.372583 574,87 L574,87 L574,87 C574,93.627417 568.627417,99 562,99 L295,99 L295,75 Z" id="Rectangle-Copy-3" fill="#D8D8D8"></path>
            <path d="M295,132 L562,132 L562,132 C568.627417,132 574,137.372583 574,144 L574,144 L574,144 C574,150.627417 568.627417,156 562,156 L295,156 L295,132 Z" id="Rectangle-Copy-17" fill="#D8D8D8"></path>
            <path d="M295,188 L562,188 L562,188 C568.627417,188 574,193.372583 574,200 L574,200 L574,200 C574,206.627417 568.627417,212 562,212 L295,212 L295,188 Z" id="Rectangle-Copy-18" fill="#D8D8D8"></path>
            <circle id="Oval-Copy-20" fill="#9B9B9B" cx="49" cy="81" r="20"></circle>
            <circle id="Oval-Copy-21" fill="#9B9B9B" cx="49" cy="137" r="20"></circle>
            <circle id="Oval-Copy-22" fill="#9B9B9B" cx="49" cy="193" r="20"></circle>
            <circle id="Oval-Copy-23" fill="#9B9B9B" cx="49" cy="249" r="20"></circle>
            <circle id="Oval-Copy-10" stroke="#F5A623" fill="#FFFFFF" cx="294" cy="87" r="20"></circle>
            <circle id="Oval-Copy-27" stroke="#D0021B" fill="#FFFFFF" cx="294" cy="144" r="20"></circle>
            <circle id="Oval-Copy-28" stroke="#D0021B" fill="#FFFFFF" cx="294" cy="200" r="20"></circle>
            <g id="icons-/-product-/-aws" transform="translate(282.000000, 75.000000)" fill="#F5A623">
                <path d="M0,20.1200495 L0,4.26710009 L10.9920754,7.95180421 L10.9920754,23.9998207 L0,20.1200495 Z M13.0079246,7.95194488 L24,4.26724076 L24,20.1201902 L13.0079246,23.9994925 L13.0079246,7.95194488 Z M12.2543579,-0.00017928572 L22.569734,3.2723519 L12.2543579,6.71838022 L1.13027852,3.08103613 L12.2543579,-0.00017928572 Z" id="Combined-Shape"></path>
            </g>
            <g id="specs-/-spacing-/-internal-/-V-08px" transform="translate(314.000000, 188.000000)">
                <rect id="Rectangle-5-Copy-9" fill="#F8CC96" fill-rule="evenodd" x="0" y="0" width="8" height="24"></rect>
                <text id="8-copy-10" font-family="Roboto-Regular, Roboto" font-size="12" font-weight="normal" fill="#333333">
                    <tspan x="1" y="15">8</tspan>
                </text>
            </g>
            <g id="icons-/-product-/-openstack" transform="translate(282.000000, 132.000000)" fill="#D0021B">
                <path d="M19,16 L19,16.375 C19,17.825 17.825,19 16.375,19 L7.625,19 C6.175,19 5,17.825 5,16.375 L5,16 L0,16 L0,19.5 C0,21.985 2.015,24 4.5,24 L19.5,24 C21.985,24 24,21.985 24,19.5 L24,16 L19,16 Z" id="Fill-1"></path>
                <path d="M5,8 L5,7.625 C5,6.175 6.175,5 7.625,5 L16.375,5 C17.825,5 19,6.175 19,7.625 L19,8 L24,8 L24,4.5 C24,2.015 21.985,0 19.5,0 L4.5,0 C2.015,0 0,2.015 0,4.5 L0,8 L5,8 Z" id="Fill-3"></path>
                <rect id="Rectangle-18" x="0" y="9" width="5" height="6"></rect>
                <rect id="Rectangle-18-Copy" x="19" y="9" width="5" height="6"></rect>
            </g>
            <g id="icons-/-product-/-dedicated" transform="translate(282.000000, 188.000000)">
                <g id="dedicated">
                    <rect id="Rectangle-15" stroke="#D0021B" x="0.5" y="0.5" width="23" height="23" rx="2"></rect>
                    <g id="Group-2-Copy-2" transform="translate(3.000000, 3.000000)">
                        <rect id="Rectangle-2-Copy-2" fill="#D0021B" x="0" y="0" width="18" height="5" rx="1"></rect>
                        <circle id="Oval-Copy-2" fill="#FFFFFF" cx="14" cy="2.5" r="1"></circle>
                    </g>
                    <g id="Group-2-Copy-3" transform="translate(3.000000, 9.500000)">
                        <rect id="Rectangle-2-Copy-2" fill="#D0021B" x="0" y="0" width="18" height="5" rx="1"></rect>
                        <circle id="Oval-Copy-2" fill="#FFFFFF" cx="14" cy="2.5" r="1"></circle>
                    </g>
                    <g id="Group-2-Copy-4" transform="translate(3.000000, 16.000000)">
                        <rect id="Rectangle-2-Copy-2" fill="#D0021B" x="0" y="0" width="18" height="5" rx="1"></rect>
                        <circle id="Oval-Copy-2" fill="#FFFFFF" cx="14" cy="2.5" r="1"></circle>
                    </g>
                </g>
            </g>
            <text id="PF-Copy" font-family="Roboto-Light, Roboto" font-size="20" font-weight="300" fill="#FFFFFF">
                <tspan x="37.2177734" y="88">PF</tspan>
            </text>
            <text id="LZ" font-family="Roboto-Light, Roboto" font-size="20" font-weight="300" fill="#FFFFFF">
                <tspan x="37.75" y="144">LZ</tspan>
            </text>
            <text id="TB" font-family="Roboto-Light, Roboto" font-size="20" font-weight="300" fill="#FFFFFF">
                <tspan x="36.9003906" y="200">TB</tspan>
            </text>
            <text id="AC" font-family="Roboto-Light, Roboto" font-size="20" font-weight="300" fill="#FFFFFF">
                <tspan x="36.2607422" y="256">AC</tspan>
            </text>
            <text id="Pink-Floyd" font-family="Roboto-Regular, Roboto" font-size="18" font-weight="normal" fill="#000000">
                <tspan x="77" y="86">Pink Floyd</tspan>
            </text>
            <text id="Led-Zeppelin" font-family="Roboto-Regular, Roboto" font-size="18" font-weight="normal" fill="#000000">
                <tspan x="77" y="142">Led Zeppelin</tspan>
            </text>
            <text id="The-Beatles" font-family="Roboto-Regular, Roboto" font-size="18" font-weight="normal" fill="#000000">
                <tspan x="77" y="198">The Beatles</tspan>
            </text>
            <text id="AC/DC" font-family="Roboto-Regular, Roboto" font-size="18" font-weight="normal" fill="#000000">
                <tspan x="77" y="254">AC/DC</tspan>
            </text>
            <text id="134112-info-dev.doma" font-family="Roboto-Regular, Roboto" font-size="18" font-weight="normal" fill="#000000">
                <tspan x="322" y="92">134112-info-dev.domain.com</tspan>
            </text>
            <g id="specs-/-spacing-/-internal-/-V-16px" transform="translate(558.000000, 188.000000)">
                <rect id="Rectangle-5-Copy-11" fill="#F8CC96" fill-rule="evenodd" x="0" y="0" width="16" height="24"></rect>
                <text id="16-copy-4" font-family="Roboto-Regular, Roboto" font-size="12" font-weight="normal" fill="#333333">
                    <tspan x="1" y="15">16</tspan>
                </text>
            </g>
            <text id="Height:-24px;-Paddin" font-family="Roboto-Regular, Roboto" font-size="14" font-weight="normal" fill="#EC3F7A">
                <tspan x="415" y="250">Height: 24px;</tspan>
                <tspan x="415" y="266">Padding-left: 8px</tspan>
                <tspan x="415" y="282">Padding-right: 16px</tspan>
                <tspan x="415" y="298">Border-radius-top-right:50%</tspan>
                <tspan x="415" y="314">Border-radius-bottom-right: 50%</tspan>
                <tspan x="415" y="330">Color: #000000</tspan>
                <tspan x="415" y="346">Font-size: 18px</tspan>
            </text>
            <path d="M406,367.524129 L406,238" id="Stroke-8" stroke="#EC3F7A"></path>
            <path d="M406.001553,287.306713 L345,209" id="Stroke-8-Copy" stroke="#EC3F7A"></path>
            <text id="134112-info-dev.doma-copy-3" font-family="Roboto-Regular, Roboto" font-size="18" font-weight="normal" fill="#000000">
                <tspan x="322" y="149">134112-info-dev.domain.com</tspan>
            </text>
            <text id="134112-info-dev.doma-copy-4" font-family="Roboto-Regular, Roboto" font-size="18" font-weight="normal" fill="#000000">
                <tspan x="322" y="205">134112-info-dev.domain.com</tspan>
            </text>
            <text id="Attached-Devices" font-family="Roboto-Regular, Roboto" font-size="18" font-weight="normal" fill="#000000">
                <tspan x="274" y="44">Attached Devices</tspan>
            </text>
            <text id="Classic-Rock-Bands-Copy" font-family="Roboto-Regular, Roboto" font-size="18" font-weight="normal" fill="#000000">
                <tspan x="29" y="38">Classic Rock Bands</tspan>
            </text>
        </g>
    </g>
</svg>