<?xml version="1.0" encoding="UTF-8"?>
<svg width="633px" height="391px" viewBox="0 0 633 391" version="1.1" xmlns="http://www.w3.org/2000/svg" xmlns:xlink="http://www.w3.org/1999/xlink">
    <!-- Generator: Sketch 48.2 (47327) - http://www.bohemiancoding.com/sketch -->
    <title>Custom Preset 3 Copy</title>
    <desc>Created with Sketch.</desc>
    <defs>
        <polygon id="path-1" points="466.444 9.43880195 457.265 0 448.087 9.43880195 0 9.43880195 0 28.3304085 0 46.6909137 0 330 500 330 500 9.43880195"></polygon>
        <filter x="-1.3%" y="-1.1%" width="102.6%" height="104.0%" filterUnits="objectBoundingBox" id="filter-2">
            <feMorphology radius="0.5" operator="dilate" in="SourceAlpha" result="shadowSpreadOuter1"></feMorphology>
            <feOffset dx="0" dy="3" in="shadowSpreadOuter1" result="shadowOffsetOuter1"></feOffset>
            <feGaussianBlur stdDeviation="1.5" in="shadowOffsetOuter1" result="shadowBlurOuter1"></feGaussianBlur>
            <feComposite in="shadowBlurOuter1" in2="SourceAlpha" operator="out" result="shadowBlurOuter1"></feComposite>
            <feColorMatrix values="0 0 0 0 0   0 0 0 0 0   0 0 0 0 0  0 0 0 0.16 0" type="matrix" in="shadowBlurOuter1"></feColorMatrix>
        </filter>
    </defs>
    <g id="Page-1" stroke="none" stroke-width="1" fill="none" fill-rule="evenodd">
        <g id="Custom-Preset-3-Copy">
            <g id="popover-spacing" transform="translate(54.000000, 24.000000)">
                <g id="Fill-227-Copy-3">
                    <use fill="black" fill-opacity="1" filter="url(#filter-2)" xlink:href="#path-1"></use>
                    <use stroke="#E0E0E0" stroke-width="1" fill="#FFFFFF" fill-rule="evenodd" xlink:href="#path-1"></use>
                </g>
                <g id="Button/Standard/Primary" transform="translate(20.000000, 279.000000)">
                    <rect id="Rectangle-2" fill="#0C7C84" fill-rule="evenodd" x="0" y="0" width="96" height="32" rx="2"></rect>
                    <text id="Button-Text" font-family="Roboto-Medium, Roboto" font-size="14" font-weight="400" line-spacing="20" fill="#FFFFFF">
                        <tspan x="9.10693359" y="19">Apply Filters</tspan>
                    </text>
                </g>
                <g id="Button/Standard/Primary-Copy-6" transform="translate(136.000000, 279.000000)">
                    <rect id="Rectangle-2" stroke="#0C7C84" x="0.5" y="0.5" width="95" height="31" rx="2"></rect>
                    <text id="Button-Text" font-family="Roboto-Medium, Roboto" font-size="14" font-weight="400" line-spacing="20" fill="#0C7C84">
                        <tspan x="10.3168945" y="19">Clear Filters</tspan>
                    </text>
                </g>
                <g id="button:tertiary:default" transform="translate(252.000000, 279.000000)">
                    <rect id="Rectangle-2" fill-opacity="0" fill="#FFFFFF" opacity="0" x="0" y="0" width="72" height="32" rx="2"></rect>
                    <text id="Cancel" font-family="Roboto-Medium, Roboto" font-size="14" font-weight="400" line-spacing="20" fill="#0C7481">
                        <tspan x="14.5419922" y="19">Cancel</tspan>
                    </text>
                </g>
                <path d="M27.7109375,42.1796875 L23.1328125,42.1796875 L23.1328125,47 L21.15625,47 L21.15625,35.625 L28.3828125,35.625 L28.3828125,37.21875 L23.1328125,37.21875 L23.1328125,40.6015625 L27.7109375,40.6015625 L27.7109375,42.1796875 Z M31.78125,47 L29.8828125,47 L29.8828125,38.546875 L31.78125,38.546875 L31.78125,47 Z M29.765625,36.3515625 C29.765625,36.0598944 29.858072,35.8177093 30.0429688,35.625 C30.2278655,35.4322907 30.4921858,35.3359375 30.8359375,35.3359375 C31.1796892,35.3359375 31.4453116,35.4322907 31.6328125,35.625 C31.8203134,35.8177093 31.9140625,36.0598944 31.9140625,36.3515625 C31.9140625,36.6380223 31.8203134,36.8763011 31.6328125,37.0664062 C31.4453116,37.2565114 31.1796892,37.3515625 30.8359375,37.3515625 C30.4921858,37.3515625 30.2278655,37.2565114 30.0429688,37.0664062 C29.858072,36.8763011 29.765625,36.6380223 29.765625,36.3515625 Z M35.8671875,47 L33.96875,47 L33.96875,35 L35.8671875,35 L35.8671875,47 Z M40.3125,36.4921875 L40.3125,38.546875 L41.8046875,38.546875 L41.8046875,39.953125 L40.3125,39.953125 L40.3125,44.671875 C40.3125,44.9947933 40.3763014,45.2278639 40.5039062,45.3710938 C40.6315111,45.5143236 40.8593734,45.5859375 41.1875,45.5859375 C41.4062511,45.5859375 41.627603,45.5598961 41.8515625,45.5078125 L41.8515625,46.9765625 C41.4192687,47.0963548 41.0026062,47.15625 40.6015625,47.15625 C39.1432219,47.15625 38.4140625,46.3515705 38.4140625,44.7421875 L38.4140625,39.953125 L37.0234375,39.953125 L37.0234375,38.546875 L38.4140625,38.546875 L38.4140625,36.4921875 L40.3125,36.4921875 Z M46.9765625,47.15625 C45.7734315,47.15625 44.7981808,46.7773475 44.0507812,46.0195312 C43.3033817,45.261715 42.9296875,44.2526105 42.9296875,42.9921875 L42.9296875,42.7578125 C42.9296875,41.9140583 43.0924463,41.1601596 43.4179688,40.4960938 C43.7434912,39.8320279 44.2005179,39.315106 44.7890625,38.9453125 C45.3776071,38.575519 46.0338505,38.390625 46.7578125,38.390625 C47.9088599,38.390625 48.7981739,38.7578088 49.4257812,39.4921875 C50.0533886,40.2265662 50.3671875,41.2656183 50.3671875,42.609375 L50.3671875,43.375 L44.84375,43.375 C44.901042,44.0729202 45.1341125,44.624998 45.5429688,45.03125 C45.951825,45.437502 46.4661427,45.640625 47.0859375,45.640625 C47.9557335,45.640625 48.6640598,45.289066 49.2109375,44.5859375 L50.234375,45.5625 C49.8958316,46.0677109 49.4440132,46.459634 48.8789062,46.7382812 C48.3137993,47.0169285 47.679691,47.15625 46.9765625,47.15625 Z M46.75,39.9140625 C46.2291641,39.9140625 45.8085954,40.0963523 45.4882812,40.4609375 C45.1679671,40.8255227 44.9635421,41.3333301 44.875,41.984375 L48.4921875,41.984375 L48.4921875,41.84375 C48.4505206,41.2083302 48.2812515,40.7278662 47.984375,40.4023438 C47.6874985,40.0768213 47.2760443,39.9140625 46.75,39.9140625 Z M56.265625,40.28125 C56.0156238,40.2395831 55.7578138,40.21875 55.4921875,40.21875 C54.6223915,40.21875 54.0364598,40.55208 53.734375,41.21875 L53.734375,47 L51.8359375,47 L51.8359375,38.546875 L53.6484375,38.546875 L53.6953125,39.4921875 C54.1536481,38.7578088 54.7890584,38.390625 55.6015625,38.390625 C55.8723972,38.390625 56.0963533,38.427083 56.2734375,38.5 L56.265625,40.28125 Z M65.34375,41.015625 L67.9609375,35.625 L70.1484375,35.625 L66.3359375,42.8125 L66.3359375,47 L64.3515625,47 L64.3515625,42.8125 L60.53125,35.625 L62.7265625,35.625 L65.34375,41.015625 Z M70.3359375,42.6953125 C70.3359375,41.8671834 70.4999984,41.1210971 70.828125,40.4570312 C71.1562516,39.7929654 71.6171845,39.2825539 72.2109375,38.9257812 C72.8046905,38.5690086 73.4869753,38.390625 74.2578125,38.390625 C75.3984432,38.390625 76.3242152,38.7578088 77.0351562,39.4921875 C77.7460973,40.2265662 78.130208,41.2005148 78.1875,42.4140625 L78.1953125,42.859375 C78.1953125,43.6927125 78.0351579,44.4374967 77.7148438,45.09375 C77.3945296,45.7500033 76.9362009,46.2578107 76.3398438,46.6171875 C75.7434866,46.9765643 75.0546914,47.15625 74.2734375,47.15625 C73.0807232,47.15625 72.1263057,46.7591186 71.4101562,45.9648438 C70.6940068,45.1705689 70.3359375,44.1119858 70.3359375,42.7890625 L70.3359375,42.6953125 Z M72.234375,42.859375 C72.234375,43.729171 72.4140607,44.4101538 72.7734375,44.9023438 C73.1328143,45.3945337 73.6328093,45.640625 74.2734375,45.640625 C74.9140657,45.640625 75.4127586,45.3906275 75.7695312,44.890625 C76.1263039,44.3906225 76.3046875,43.658859 76.3046875,42.6953125 C76.3046875,41.8411416 76.1210956,41.164065 75.7539062,40.6640625 C75.3867169,40.16406 74.888024,39.9140625 74.2578125,39.9140625 C73.6380177,39.9140625 73.1458352,40.1601538 72.78125,40.6523438 C72.4166648,41.1445337 72.234375,41.8802034 72.234375,42.859375 Z M84.921875,46.171875 C84.3645805,46.8281283 83.5729218,47.15625 82.546875,47.15625 C81.6302037,47.15625 80.9362003,46.8880235 80.4648438,46.3515625 C79.9934872,45.8151015 79.7578125,45.0390676 79.7578125,44.0234375 L79.7578125,38.546875 L81.65625,38.546875 L81.65625,44 C81.65625,45.072922 82.101558,45.609375 82.9921875,45.609375 C83.9140671,45.609375 84.5364567,45.2786491 84.859375,44.6171875 L84.859375,38.546875 L86.7578125,38.546875 L86.7578125,47 L84.96875,47 L84.921875,46.171875 Z M93.1171875,40.28125 C92.8671863,40.2395831 92.6093763,40.21875 92.34375,40.21875 C91.473954,40.21875 90.8880223,40.55208 90.5859375,41.21875 L90.5859375,47 L88.6875,47 L88.6875,38.546875 L90.5,38.546875 L90.546875,39.4921875 C91.0052106,38.7578088 91.6406209,38.390625 92.453125,38.390625 C92.7239597,38.390625 92.9479158,38.427083 93.125,38.5 L93.1171875,40.28125 Z M98.484375,47 L98.484375,35.625 L101.84375,35.625 C102.848963,35.625 103.740882,35.8489561 104.519531,36.296875 C105.298181,36.7447939 105.90104,37.3802042 106.328125,38.203125 C106.75521,39.0260458 106.96875,39.9687447 106.96875,41.03125 L106.96875,41.6015625 C106.96875,42.6796929 106.753908,43.6276001 106.324219,44.4453125 C105.894529,45.2630249 105.282556,45.893227 104.488281,46.3359375 C103.694006,46.778648 102.783859,47 101.757812,47 L98.484375,47 Z M100.460938,37.21875 L100.460938,45.421875 L101.75,45.421875 C102.786464,45.421875 103.582028,45.0976595 104.136719,44.4492188 C104.691409,43.800778 104.973958,42.8697977 104.984375,41.65625 L104.984375,41.0234375 C104.984375,39.7890563 104.716149,38.8463574 104.179688,38.1953125 C103.643226,37.5442676 102.864588,37.21875 101.84375,37.21875 L100.460938,37.21875 Z M113.804688,47 C113.721354,46.8385409 113.648438,46.5755227 113.585938,46.2109375 C112.981768,46.841149 112.242192,47.15625 111.367188,47.15625 C110.518225,47.15625 109.825524,46.9140649 109.289063,46.4296875 C108.752601,45.9453101 108.484375,45.3463577 108.484375,44.6328125 C108.484375,43.7317663 108.819007,43.040367 109.488281,42.5585938 C110.157555,42.0768205 111.114577,41.8359375 112.359375,41.8359375 L113.523438,41.8359375 L113.523438,41.28125 C113.523438,40.8437478 113.401043,40.4934909 113.15625,40.2304688 C112.911457,39.9674466 112.539065,39.8359375 112.039063,39.8359375 C111.606769,39.8359375 111.252606,39.9440093 110.976563,40.1601562 C110.700519,40.3763032 110.5625,40.65104 110.5625,40.984375 L108.664063,40.984375 C108.664063,40.520831 108.817707,40.0872416 109.125,39.6835938 C109.432293,39.2799459 109.850258,38.9635428 110.378906,38.734375 C110.907555,38.5052072 111.497393,38.390625 112.148438,38.390625 C113.138026,38.390625 113.92708,38.6393204 114.515625,39.1367188 C115.10417,39.6341171 115.40625,40.3333288 115.421875,41.234375 L115.421875,45.046875 C115.421875,45.8072955 115.528645,46.4140602 115.742188,46.8671875 L115.742188,47 L113.804688,47 Z M111.71875,45.6328125 C112.093752,45.6328125 112.446613,45.5416676 112.777344,45.359375 C113.108075,45.1770824 113.35677,44.9322932 113.523438,44.625 L113.523438,43.03125 L112.5,43.03125 C111.796871,43.03125 111.268231,43.1536446 110.914063,43.3984375 C110.559894,43.6432304 110.382813,43.9895811 110.382813,44.4375 C110.382813,44.8020852 110.503905,45.0924468 110.746094,45.3085938 C110.988282,45.5247407 111.312498,45.6328125 111.71875,45.6328125 Z M119.789063,36.4921875 L119.789063,38.546875 L121.28125,38.546875 L121.28125,39.953125 L119.789063,39.953125 L119.789063,44.671875 C119.789063,44.9947933 119.852864,45.2278639 119.980469,45.3710938 C120.108074,45.5143236 120.335936,45.5859375 120.664063,45.5859375 C120.882814,45.5859375 121.104166,45.5598961 121.328125,45.5078125 L121.328125,46.9765625 C120.895831,47.0963548 120.479169,47.15625 120.078125,47.15625 C118.619784,47.15625 117.890625,46.3515705 117.890625,44.7421875 L117.890625,39.953125 L116.5,39.953125 L116.5,38.546875 L117.890625,38.546875 L117.890625,36.4921875 L119.789063,36.4921875 Z M127.78125,47 C127.697916,46.8385409 127.625,46.5755227 127.5625,46.2109375 C126.95833,46.841149 126.218754,47.15625 125.34375,47.15625 C124.494787,47.15625 123.802086,46.9140649 123.265625,46.4296875 C122.729164,45.9453101 122.460938,45.3463577 122.460938,44.6328125 C122.460938,43.7317663 122.79557,43.040367 123.464844,42.5585938 C124.134118,42.0768205 125.09114,41.8359375 126.335938,41.8359375 L127.5,41.8359375 L127.5,41.28125 C127.5,40.8437478 127.377605,40.4934909 127.132813,40.2304688 C126.88802,39.9674466 126.515628,39.8359375 126.015625,39.8359375 C125.583331,39.8359375 125.229168,39.9440093 124.953125,40.1601562 C124.677082,40.3763032 124.539063,40.65104 124.539063,40.984375 L122.640625,40.984375 C122.640625,40.520831 122.794269,40.0872416 123.101563,39.6835938 C123.408856,39.2799459 123.82682,38.9635428 124.355469,38.734375 C124.884117,38.5052072 125.473955,38.390625 126.125,38.390625 C127.114588,38.390625 127.903643,38.6393204 128.492188,39.1367188 C129.080732,39.6341171 129.382812,40.3333288 129.398438,41.234375 L129.398438,45.046875 C129.398438,45.8072955 129.505207,46.4140602 129.71875,46.8671875 L129.71875,47 L127.78125,47 Z M125.695313,45.6328125 C126.070314,45.6328125 126.423175,45.5416676 126.753906,45.359375 C127.084637,45.1770824 127.333333,44.9322932 127.5,44.625 L127.5,43.03125 L126.476563,43.03125 C125.773434,43.03125 125.244793,43.1536446 124.890625,43.3984375 C124.536457,43.6432304 124.359375,43.9895811 124.359375,44.4375 C124.359375,44.8020852 124.480468,45.0924468 124.722656,45.3085938 C124.964845,45.5247407 125.28906,45.6328125 125.695313,45.6328125 Z" id="Filter-Your-Data" fill="#424242"></path>
                <g id="specs-/-spacing-/-internal-/-H-20px" transform="translate(0.000000, 10.000000)">
                    <rect id="Rectangle-3-Copy-5" fill="#F9CD94" fill-rule="evenodd" x="0" y="0" width="500" height="20"></rect>
                    <text id="20" font-family="Roboto-Regular, Roboto" font-size="12" font-weight="normal" fill="#333333">
                        <tspan x="215" y="13">20</tspan>
                    </text>
                </g>
                <g id="specs-/-spacing-/-internal-/-V-20px" transform="translate(0.000000, 29.000000)">
                    <rect id="Rectangle-5-Copy-12" fill="#F8CC96" fill-rule="evenodd" x="0" y="0" width="20" height="302"></rect>
                    <text id="20-copy-9" font-family="Roboto-Regular, Roboto" font-size="12" font-weight="normal" fill="#333333">
                        <tspan x="3" y="154">20</tspan>
                    </text>
                </g>
                <g id="specs-/-spacing-/-internal-/-V-20px" transform="translate(480.000000, 29.000000)">
                    <rect id="Rectangle-5-Copy-12" fill="#F8CC96" fill-rule="evenodd" x="0" y="0" width="20" height="302"></rect>
                    <text id="20-copy-9" font-family="Roboto-Regular, Roboto" font-size="12" font-weight="normal" fill="#333333">
                        <tspan x="3" y="154">20</tspan>
                    </text>
                </g>
                <g id="specs-/-spacing-/-internal-/-H-20px" transform="translate(20.000000, 311.000000)">
                    <rect id="Rectangle-3-Copy-5" fill="#F9CD94" fill-rule="evenodd" x="0" y="0" width="461" height="20"></rect>
                    <text id="20" font-family="Roboto-Regular, Roboto" font-size="12" font-weight="normal" fill="#333333">
                        <tspan x="198.23" y="13">20</tspan>
                    </text>
                </g>
                <g id="specs-/-spacing-/-internal-/-H-20px-Copy-7" transform="translate(20.000000, 51.000000)">
                    <rect id="Rectangle-3-Copy-5" fill="#9CC2EB" x="0" y="3" width="460" height="8"></rect>
                    <text id="8" font-family="Roboto-Regular, Roboto" font-size="12" font-weight="normal" fill="#333333">
                        <tspan x="197.8" y="11">8</tspan>
                    </text>
                </g>
                <g id="specs-/-spacing-/-stack-/-H-20px-Copy" transform="translate(20.000000, 263.000000)">
                    <rect id="Rectangle-3-Copy-5" fill="#9CC2EB" x="0" y="0" width="461" height="16"></rect>
                    <text id="16" font-family="Roboto-Regular, Roboto" font-size="12" font-weight="normal" fill="#333333">
                        <tspan x="198.23" y="12">16</tspan>
                    </text>
                </g>
            </g>
        </g>
    </g>
</svg>