<?xml version="1.0" encoding="UTF-8"?>
<svg width="633px" height="246px" viewBox="0 0 633 246" version="1.1" xmlns="http://www.w3.org/2000/svg" xmlns:xlink="http://www.w3.org/1999/xlink">
    <!-- Generator: Sketch 48.2 (47327) - http://www.bohemiancoding.com/sketch -->
    <title>Custom Preset Copy 3</title>
    <desc>Created with Sketch.</desc>
    <defs></defs>
    <g id="Page-1" stroke="none" stroke-width="1" fill="none" fill-rule="evenodd">
        <g id="Custom-Preset-Copy-3">
            <path d="M209.998047,128 L208.914062,128 L208.914062,121.660156 L209.998047,121.660156 L209.998047,128 Z M208.826172,119.978516 C208.826172,119.802733 208.879882,119.654297 208.987305,119.533203 C209.094727,119.412109 209.253905,119.351562 209.464844,119.351562 C209.675782,119.351562 209.835937,119.412109 209.945312,119.533203 C210.054688,119.654297 210.109375,119.802733 210.109375,119.978516 C210.109375,120.154298 210.054688,120.300781 209.945312,120.417969 C209.835937,120.535157 209.675782,120.59375 209.464844,120.59375 C209.253905,120.59375 209.094727,120.535157 208.987305,120.417969 C208.879882,120.300781 208.826172,120.154298 208.826172,119.978516 Z M214.275391,127.232422 C214.662111,127.232422 214.999999,127.115236 215.289062,126.880859 C215.578126,126.646483 215.738281,126.353517 215.769531,126.001953 L216.794922,126.001953 C216.775391,126.365236 216.650392,126.710936 216.419922,127.039062 C216.189452,127.367189 215.881838,127.628905 215.49707,127.824219 C215.112303,128.019532 214.70508,128.117188 214.275391,128.117188 C213.412105,128.117188 212.725588,127.829104 212.21582,127.25293 C211.706052,126.676755 211.451172,125.888677 211.451172,124.888672 L211.451172,124.707031 C211.451172,124.089841 211.564452,123.541018 211.791016,123.060547 C212.017579,122.580076 212.342771,122.207033 212.766602,121.941406 C213.190432,121.67578 213.691403,121.542969 214.269531,121.542969 C214.980472,121.542969 215.571287,121.755857 216.041992,122.181641 C216.512698,122.607424 216.763672,123.160153 216.794922,123.839844 L215.769531,123.839844 C215.738281,123.429685 215.583009,123.092775 215.303711,122.829102 C215.024413,122.565428 214.67969,122.433594 214.269531,122.433594 C213.718747,122.433594 213.291994,122.631834 212.989258,123.02832 C212.686522,123.424807 212.535156,123.998043 212.535156,124.748047 L212.535156,124.953125 C212.535156,125.683597 212.685545,126.246092 212.986328,126.640625 C213.287111,127.035158 213.716794,127.232422 214.275391,127.232422 Z M217.726562,124.771484 C217.726562,124.150388 217.848632,123.591799 218.092773,123.095703 C218.336915,122.599607 218.676756,122.216798 219.112305,121.947266 C219.547854,121.677733 220.044919,121.542969 220.603516,121.542969 C221.466801,121.542969 222.165036,121.841794 222.698242,122.439453 C223.231448,123.037112 223.498047,123.832026 223.498047,124.824219 L223.498047,124.900391 C223.498047,125.517581 223.379884,126.071287 223.143555,126.561523 C222.907225,127.05176 222.569338,127.433592 222.129883,127.707031 C221.690427,127.98047 221.18555,128.117188 220.615234,128.117188 C219.755855,128.117188 219.059573,127.818362 218.526367,127.220703 C217.993161,126.623044 217.726562,125.832036 217.726562,124.847656 L217.726562,124.771484 Z M218.816406,124.900391 C218.816406,125.603519 218.979491,126.167967 219.305664,126.59375 C219.631838,127.019533 220.068357,127.232422 220.615234,127.232422 C221.166018,127.232422 221.603514,127.016604 221.927734,126.584961 C222.251955,126.153318 222.414062,125.548832 222.414062,124.771484 C222.414062,124.076168 222.249025,123.512697 221.918945,123.081055 C221.588866,122.649412 221.150393,122.433594 220.603516,122.433594 C220.068357,122.433594 219.63672,122.646482 219.308594,123.072266 C218.980467,123.498049 218.816406,124.107418 218.816406,124.900391 Z M225.882812,121.660156 L225.917969,122.457031 C226.402346,121.847653 227.035152,121.542969 227.816406,121.542969 C229.156257,121.542969 229.832031,122.298821 229.84375,123.810547 L229.84375,128 L228.759766,128 L228.759766,123.804688 C228.755859,123.347654 228.651368,123.009767 228.446289,122.791016 C228.24121,122.572265 227.921877,122.462891 227.488281,122.462891 C227.136717,122.462891 226.828126,122.55664 226.5625,122.744141 C226.296874,122.931642 226.089844,123.177733 225.941406,123.482422 L225.941406,128 L224.857422,128 L224.857422,121.660156 L225.882812,121.660156 Z M231.443359,127.431641 C231.443359,127.24414 231.499023,127.087891 231.610352,126.962891 C231.72168,126.83789 231.888671,126.775391 232.111328,126.775391 C232.333985,126.775391 232.502929,126.83789 232.618164,126.962891 C232.733399,127.087891 232.791016,127.24414 232.791016,127.431641 C232.791016,127.611329 232.733399,127.761718 232.618164,127.882812 C232.502929,128.003907 232.333985,128.064453 232.111328,128.064453 C231.888671,128.064453 231.72168,128.003907 231.610352,127.882812 C231.499023,127.761718 231.443359,127.611329 231.443359,127.431641 Z M231.449219,122.257812 C231.449219,122.070312 231.504882,121.914063 231.616211,121.789062 C231.72754,121.664062 231.89453,121.601562 232.117188,121.601562 C232.339845,121.601562 232.508788,121.664062 232.624023,121.789062 C232.739258,121.914063 232.796875,122.070312 232.796875,122.257812 C232.796875,122.437501 232.739258,122.58789 232.624023,122.708984 C232.508788,122.830079 232.339845,122.890625 232.117188,122.890625 C231.89453,122.890625 231.72754,122.830079 231.616211,122.708984 C231.504882,122.58789 231.449219,122.437501 231.449219,122.257812 Z M237.71875,128 L237.71875,122.498047 L236.716797,122.498047 L236.716797,121.660156 L237.71875,121.660156 L237.71875,121.121094 C237.71875,120.414059 237.920896,119.863283 238.325195,119.46875 C238.729494,119.074217 239.300778,118.876953 240.039062,118.876953 C240.476565,118.876953 241.029294,118.996093 241.697266,119.234375 L241.515625,120.148438 C241.027341,119.953124 240.562502,119.855469 240.121094,119.855469 C239.656248,119.855469 239.32129,119.95996 239.116211,120.168945 C238.911132,120.377931 238.808594,120.691404 238.808594,121.109375 L238.808594,121.660156 L240.103516,121.660156 L240.103516,122.498047 L238.808594,122.498047 L238.808594,128 L237.71875,128 Z M242.236328,128 L241.146484,128 L241.146484,121.660156 L242.236328,121.660156 L242.236328,128 Z M245.177734,128 L244.09375,128 L244.09375,119 L245.177734,119 L245.177734,128 Z M248.382812,120.125 L248.382812,121.660156 L249.566406,121.660156 L249.566406,122.498047 L248.382812,122.498047 L248.382812,126.429688 C248.382812,126.683595 248.435546,126.874023 248.541016,127.000977 C248.646485,127.12793 248.826171,127.191406 249.080078,127.191406 C249.205079,127.191406 249.376952,127.167969 249.595703,127.121094 L249.595703,128 C249.310545,128.078125 249.033204,128.117188 248.763672,128.117188 C248.279294,128.117188 247.914064,127.970705 247.667969,127.677734 C247.421874,127.384764 247.298828,126.968753 247.298828,126.429688 L247.298828,122.498047 L246.144531,122.498047 L246.144531,121.660156 L247.298828,121.660156 L247.298828,120.125 L248.382812,120.125 Z M253.462891,128.117188 C252.603511,128.117188 251.9043,127.834964 251.365234,127.270508 C250.826169,126.706052 250.556641,125.951177 250.556641,125.005859 L250.556641,124.806641 C250.556641,124.177731 250.676757,123.616213 250.916992,123.12207 C251.157228,122.627927 251.493162,122.241212 251.924805,121.961914 C252.356447,121.682616 252.824216,121.542969 253.328125,121.542969 C254.152348,121.542969 254.792966,121.81445 255.25,122.357422 C255.707034,122.900393 255.935547,123.677729 255.935547,124.689453 L255.935547,125.140625 L251.640625,125.140625 C251.65625,125.765628 251.838865,126.270506 252.188477,126.655273 C252.538088,127.040041 252.982419,127.232422 253.521484,127.232422 C253.904299,127.232422 254.228514,127.154298 254.494141,126.998047 C254.759767,126.841796 254.992187,126.634767 255.191406,126.376953 L255.853516,126.892578 C255.322263,127.708988 254.525396,128.117188 253.462891,128.117188 Z M253.328125,122.433594 C252.890623,122.433594 252.523439,122.592772 252.226562,122.911133 C251.929686,123.229494 251.746094,123.675778 251.675781,124.25 L254.851562,124.25 L254.851562,124.167969 C254.820312,123.617185 254.671876,123.190431 254.40625,122.887695 C254.140624,122.584959 253.781252,122.433594 253.328125,122.433594 Z M260.253906,122.632812 C260.089843,122.605469 259.91211,122.591797 259.720703,122.591797 C259.009762,122.591797 258.527345,122.894528 258.273438,123.5 L258.273438,128 L257.189453,128 L257.189453,121.660156 L258.244141,121.660156 L258.261719,122.392578 C258.617189,121.826169 259.12109,121.542969 259.773438,121.542969 C259.984376,121.542969 260.144531,121.570312 260.253906,121.625 L260.253906,122.632812 Z M260.494141,129.699219 L259.878906,129.277344 C260.246096,128.765622 260.4375,128.238284 260.453125,127.695312 L260.453125,126.716797 L261.513672,126.716797 L261.513672,127.566406 C261.513672,127.960939 261.416993,128.355467 261.223633,128.75 C261.030272,129.144533 260.787111,129.460936 260.494141,129.699219 Z M269.306641,128 L268.216797,128 L268.216797,120.775391 L266.03125,121.578125 L266.03125,120.59375 L269.136719,119.427734 L269.306641,119.427734 L269.306641,128 Z M276.736328,119.462891 L276.736328,120.382812 L276.537109,120.382812 C275.693355,120.398438 275.021487,120.648435 274.521484,121.132812 C274.021482,121.61719 273.732422,122.298824 273.654297,123.177734 C274.103518,122.662107 274.716793,122.404297 275.494141,122.404297 C276.236332,122.404297 276.829099,122.666013 277.272461,123.189453 C277.715823,123.712893 277.9375,124.388668 277.9375,125.216797 C277.9375,126.095708 277.698245,126.798825 277.219727,127.326172 C276.741209,127.853518 276.099613,128.117188 275.294922,128.117188 C274.478512,128.117188 273.816409,127.803714 273.308594,127.176758 C272.800779,126.549802 272.546875,125.742192 272.546875,124.753906 L272.546875,124.337891 C272.546875,122.76757 272.881833,121.567387 273.551758,120.737305 C274.221683,119.907222 275.218743,119.482422 276.542969,119.462891 L276.736328,119.462891 Z M275.3125,123.306641 C274.941404,123.306641 274.599611,123.417968 274.287109,123.640625 C273.974608,123.863282 273.757813,124.142576 273.636719,124.478516 L273.636719,124.876953 C273.636719,125.580082 273.79492,126.146482 274.111328,126.576172 C274.427736,127.005862 274.822263,127.220703 275.294922,127.220703 C275.783206,127.220703 276.166991,127.041017 276.446289,126.681641 C276.725587,126.322264 276.865234,125.851565 276.865234,125.269531 C276.865234,124.683591 276.723634,124.209963 276.44043,123.848633 C276.157225,123.487303 275.781252,123.306641 275.3125,123.306641 Z M281.458984,123.974609 L282.865234,121.660156 L284.130859,121.660156 L282.056641,124.794922 L284.195312,128 L282.941406,128 L281.476562,125.626953 L280.011719,128 L278.751953,128 L280.890625,124.794922 L278.816406,121.660156 L280.070312,121.660156 L281.458984,123.974609 Z M288.730469,128 L287.640625,128 L287.640625,120.775391 L285.455078,121.578125 L285.455078,120.59375 L288.560547,119.427734 L288.730469,119.427734 L288.730469,128 Z M296.160156,119.462891 L296.160156,120.382812 L295.960938,120.382812 C295.117183,120.398438 294.445315,120.648435 293.945312,121.132812 C293.44531,121.61719 293.15625,122.298824 293.078125,123.177734 C293.527346,122.662107 294.140621,122.404297 294.917969,122.404297 C295.66016,122.404297 296.252927,122.666013 296.696289,123.189453 C297.139651,123.712893 297.361328,124.388668 297.361328,125.216797 C297.361328,126.095708 297.122073,126.798825 296.643555,127.326172 C296.165037,127.853518 295.523442,128.117188 294.71875,128.117188 C293.90234,128.117188 293.240237,127.803714 292.732422,127.176758 C292.224607,126.549802 291.970703,125.742192 291.970703,124.753906 L291.970703,124.337891 C291.970703,122.76757 292.305661,121.567387 292.975586,120.737305 C293.645511,119.907222 294.642572,119.482422 295.966797,119.462891 L296.160156,119.462891 Z M294.736328,123.306641 C294.365233,123.306641 294.023439,123.417968 293.710938,123.640625 C293.398436,123.863282 293.181641,124.142576 293.060547,124.478516 L293.060547,124.876953 C293.060547,125.580082 293.218748,126.146482 293.535156,126.576172 C293.851564,127.005862 294.246091,127.220703 294.71875,127.220703 C295.207034,127.220703 295.590819,127.041017 295.870117,126.681641 C296.149415,126.322264 296.289062,125.851565 296.289062,125.269531 C296.289062,124.683591 296.147462,124.209963 295.864258,123.848633 C295.581053,123.487303 295.20508,123.306641 294.736328,123.306641 Z" id="icon:-filter,-16x16" fill="#EC407A"></path>
            <g id="specs-/-redlines-/-line-straight" transform="translate(329.000000, 125.000000) rotate(-360.000000) translate(-329.000000, -125.000000) translate(308.000000, 120.000000)" stroke="#EC3F7A">
                <path d="M10,5 L42,5" id="Stroke-8"></path>
                <path d="M5.00099983,0 C7.76299974,0 10.0009997,2.239 9.99999967,5 C9.99999967,7.762 7.76199974,10 4.99999983,10 C2.23799993,10 0,7.761 0,5 C0.000999999967,2.238 2.23899992,0 5.00099983,0" id="Path" fill-opacity="0.3" fill="#F03F7B" fill-rule="evenodd"></path>
            </g>
            <path d="M345,108 C344.447715,108 344,108.447715 344,109 L344,137 C344,137.552285 344.447715,138 345,138 L423,138 C423.552285,138 424,137.552285 424,137 L424,109 C424,108.447715 423.552285,108 423,108 L345,108 Z M345,107 L423,107 C424.104569,107 425,107.895431 425,109 L425,137 C425,138.104569 424.104569,139 423,139 L345,139 C343.895431,139 343,138.104569 343,137 L343,109 C343,107.895431 343.895431,107 345,107 Z" id="Rectangle-2" fill="#0C7C84" fill-rule="nonzero"></path>
            <path d="M379.74707,123.782227 L375.741211,123.782227 L375.741211,128 L374.011719,128 L374.011719,118.046875 L380.334961,118.046875 L380.334961,119.441406 L375.741211,119.441406 L375.741211,122.401367 L379.74707,122.401367 L379.74707,123.782227 Z M383.308594,128 L381.647461,128 L381.647461,120.603516 L383.308594,120.603516 L383.308594,128 Z M381.544922,118.682617 C381.544922,118.427408 381.625813,118.215496 381.787598,118.046875 C381.949382,117.878254 382.180663,117.793945 382.481445,117.793945 C382.782228,117.793945 383.014648,117.878254 383.178711,118.046875 C383.342774,118.215496 383.424805,118.427408 383.424805,118.682617 C383.424805,118.933269 383.342774,119.141763 383.178711,119.308105 C383.014648,119.474447 382.782228,119.557617 382.481445,119.557617 C382.180663,119.557617 381.949382,119.474447 381.787598,119.308105 C381.625813,119.141763 381.544922,118.933269 381.544922,118.682617 Z M386.883789,128 L385.222656,128 L385.222656,117.5 L386.883789,117.5 L386.883789,128 Z M390.773438,118.805664 L390.773438,120.603516 L392.079102,120.603516 L392.079102,121.833984 L390.773438,121.833984 L390.773438,125.962891 C390.773438,126.245444 390.829264,126.449381 390.940918,126.574707 C391.052572,126.700033 391.251952,126.762695 391.539062,126.762695 C391.73047,126.762695 391.924153,126.739909 392.120117,126.694336 L392.120117,127.979492 C391.74186,128.08431 391.37728,128.136719 391.026367,128.136719 C389.750319,128.136719 389.112305,127.432624 389.112305,126.024414 L389.112305,121.833984 L387.895508,121.833984 L387.895508,120.603516 L389.112305,120.603516 L389.112305,118.805664 L390.773438,118.805664 Z M396.604492,128.136719 C395.551753,128.136719 394.698408,127.805179 394.044434,127.14209 C393.390459,126.479001 393.063477,125.596034 393.063477,124.493164 L393.063477,124.288086 C393.063477,123.549801 393.205891,122.89014 393.490723,122.309082 C393.775555,121.728024 394.175453,121.275718 394.69043,120.952148 C395.205406,120.628579 395.779619,120.466797 396.413086,120.466797 C397.420252,120.466797 398.198402,120.788083 398.747559,121.430664 C399.296715,122.073245 399.571289,122.982416 399.571289,124.158203 L399.571289,124.828125 L394.738281,124.828125 C394.788412,125.438805 394.992348,125.921873 395.350098,126.277344 C395.707847,126.632814 396.157875,126.810547 396.700195,126.810547 C397.461267,126.810547 398.081052,126.502933 398.55957,125.887695 L399.455078,126.742188 C399.158853,127.184247 398.763512,127.52718 398.269043,127.770996 C397.774574,128.014812 397.21973,128.136719 396.604492,128.136719 Z M396.40625,121.799805 C395.950519,121.799805 395.582521,121.959308 395.302246,122.27832 C395.021971,122.597332 394.843099,123.041664 394.765625,123.611328 L397.930664,123.611328 L397.930664,123.488281 C397.894206,122.932289 397.746095,122.511883 397.486328,122.227051 C397.226561,121.942219 396.866539,121.799805 396.40625,121.799805 Z M404.732422,122.121094 C404.513671,122.084635 404.288087,122.066406 404.055664,122.066406 C403.294593,122.066406 402.781902,122.35807 402.517578,122.941406 L402.517578,128 L400.856445,128 L400.856445,120.603516 L402.442383,120.603516 L402.483398,121.430664 C402.884442,120.788083 403.440426,120.466797 404.151367,120.466797 C404.388348,120.466797 404.584309,120.498698 404.739258,120.5625 L404.732422,122.121094 Z M409.927734,125.990234 C409.927734,125.694009 409.805828,125.468425 409.562012,125.313477 C409.318195,125.158528 408.91374,125.02181 408.348633,124.90332 C407.783526,124.78483 407.311851,124.634441 406.933594,124.452148 C406.104163,124.051105 405.689453,123.470056 405.689453,122.708984 C405.689453,122.07096 405.958331,121.537763 406.496094,121.109375 C407.033857,120.680987 407.717444,120.466797 408.546875,120.466797 C409.430994,120.466797 410.145342,120.685545 410.689941,121.123047 C411.23454,121.560549 411.506836,122.127926 411.506836,122.825195 L409.845703,122.825195 C409.845703,122.506183 409.727215,122.240724 409.490234,122.028809 C409.253254,121.816893 408.938804,121.710938 408.546875,121.710938 C408.18229,121.710938 407.88493,121.795247 407.654785,121.963867 C407.424641,122.132488 407.30957,122.358072 407.30957,122.640625 C407.30957,122.895835 407.416666,123.094075 407.630859,123.235352 C407.845053,123.376628 408.277992,123.519042 408.929688,123.662598 C409.581383,123.806153 410.092934,123.97705 410.464355,124.175293 C410.835777,124.373536 411.11149,124.611652 411.291504,124.889648 C411.471518,125.167645 411.561523,125.504881 411.561523,125.901367 C411.561523,126.566735 411.28581,127.105629 410.734375,127.518066 C410.18294,127.930503 409.460616,128.136719 408.567383,128.136719 C407.96126,128.136719 407.421226,128.027345 406.947266,127.808594 C406.473305,127.589843 406.104168,127.289064 405.839844,126.90625 C405.57552,126.523436 405.443359,126.111005 405.443359,125.668945 L407.056641,125.668945 C407.079427,126.060874 407.227538,126.362792 407.500977,126.574707 C407.774415,126.786622 408.136716,126.892578 408.587891,126.892578 C409.025393,126.892578 409.358072,126.809408 409.585938,126.643066 C409.813803,126.476724 409.927734,126.259116 409.927734,125.990234 Z" id="Filters" fill="#0C7C84"></path>
            <path d="M368.810596,117.084 L363.908887,121.986 L363.908887,129.364 C363.908887,129.622 363.749896,129.851 363.52091,129.95 C363.441915,129.98 363.35192,130 363.271925,130 C363.102935,130 362.943944,129.941 362.824951,129.811 L360.280102,127.266 C360.160109,127.147 360.091113,126.988 360.091113,126.818 L360.091113,121.986 L355.189404,117.084 C355.000415,116.905 354.950418,116.627 355.050412,116.388 C355.149406,116.159 355.378393,116 355.636377,116 L368.363623,116 C368.621607,116 368.850594,116.159 368.949588,116.388 C369.049582,116.627 368.999585,116.905 368.810596,117.084" id="Fill-1" fill="#0C7C84"></path>
        </g>
    </g>
</svg>