<?xml version="1.0" encoding="UTF-8"?>
<svg width="633px" height="391px" viewBox="0 0 633 391" version="1.1" xmlns="http://www.w3.org/2000/svg" xmlns:xlink="http://www.w3.org/1999/xlink">
    <!-- Generator: Sketch 48.2 (47327) - http://www.bohemiancoding.com/sketch -->
    <title>Custom Preset 3 Copy 6</title>
    <desc>Created with Sketch.</desc>
    <defs>
        <polygon id="path-1" points="28 8 20 0 12 8 -5.68434189e-14 8 -5.68434189e-14 27 -5.68434189e-14 46 6.31088724e-30 285 500 285 500 8"></polygon>
        <filter x="-1.3%" y="-1.3%" width="102.6%" height="104.6%" filterUnits="objectBoundingBox" id="filter-2">
            <feMorphology radius="0.5" operator="dilate" in="SourceAlpha" result="shadowSpreadOuter1"></feMorphology>
            <feOffset dx="0" dy="3" in="shadowSpreadOuter1" result="shadowOffsetOuter1"></feOffset>
            <feGaussianBlur stdDeviation="1.5" in="shadowOffsetOuter1" result="shadowBlurOuter1"></feGaussianBlur>
            <feComposite in="shadowBlurOuter1" in2="SourceAlpha" operator="out" result="shadowBlurOuter1"></feComposite>
            <feColorMatrix values="0 0 0 0 0   0 0 0 0 0   0 0 0 0 0  0 0 0 0.16 0" type="matrix" in="shadowBlurOuter1"></feColorMatrix>
        </filter>
        <rect id="path-3" x="0" y="0" width="16" height="16" rx="2"></rect>
        <rect id="path-4" x="0" y="0" width="16" height="16" rx="2"></rect>
        <rect id="path-5" x="0" y="0" width="16" height="16" rx="2"></rect>
    </defs>
    <g id="Page-1" stroke="none" stroke-width="1" fill="none" fill-rule="evenodd">
        <g id="Custom-Preset-3-Copy-6">
            <g id="popover-default-layout" transform="translate(67.000000, 53.000000)">
                <g id="Fill-227-Copy-8" transform="translate(250.000000, 142.500000) scale(-1, 1) translate(-250.000000, -142.500000) ">
                    <use fill="black" fill-opacity="1" filter="url(#filter-2)" xlink:href="#path-1"></use>
                    <use stroke="#E0E0E0" stroke-width="1" fill="#FFFFFF" fill-rule="evenodd" xlink:href="#path-1"></use>
                </g>
                <rect id="Rectangle-3" fill="#FFFFFF" x="20" y="52" width="140" height="141"></rect>
                <rect id="Rectangle-3-Copy" fill="#FFFFFF" x="179" y="52" width="140" height="141"></rect>
                <rect id="Rectangle-3-Copy" fill="#FFFFFF" x="340" y="52" width="140" height="157"></rect>
                <g id="Group-25" transform="translate(20.000000, 28.000000)">
                    <g id="Group-23" transform="translate(0.000000, 32.000000)">
                        <g id="Group-21" transform="translate(159.000000, 0.000000)">
                            <text id="TYPE" font-family="Roboto-Regular, Roboto" font-size="12" font-weight="normal" line-spacing="16" letter-spacing="0.0899999961" fill="#424242">
                                <tspan x="0" y="11">T</tspan>
                                <tspan x="7.34390625" y="11" letter-spacing="0.077142857">YPE</tspan>
                            </text>
                            <g id="Group-6" transform="translate(1.000000, 24.000000)">
                                <text id="Next-Generation" font-family="Roboto-Regular, Roboto" font-size="16" font-weight="normal" line-spacing="24" letter-spacing="0.005" fill="#424242">
                                    <tspan x="24" y="15">Next Gene</tspan>
                                    <tspan x="97.7246875" y="15" letter-spacing="-0.3006">r</tspan>
                                    <tspan x="102.52565" y="15">ation</tspan>
                                </text>
                                <text id="Legacy" font-family="Roboto-Regular, Roboto" font-size="16" font-weight="normal" line-spacing="24" letter-spacing="0.005" fill="#424242">
                                    <tspan x="24" y="43">Legacy</tspan>
                                </text>
                                <g id="Group-15" transform="translate(0.000000, 3.000000)">
                                    <path d="M2.5,16 C1.673,16 1,15.327 1,14.5 L1,2.5 C1,1.673 1.673,1 2.5,1 L14.5,1 C15.327,1 16,1.673 16,2.5 L16,14.5 C16,15.327 15.327,16 14.5,16 L2.5,16 Z" id="Fill-11" fill="#FFFFFF"></path>
                                    <g id="checkbox">
                                        <g>
                                            <use fill="#FFFFFF" fill-rule="evenodd" xlink:href="#path-3"></use>
                                            <rect stroke="#0C7C84" stroke-width="1" x="0.5" y="0.5" width="15" height="15" rx="2"></rect>
                                        </g>
                                        <path d="M6.75,13 C6.7725,13 6.79625,13 6.81875,12.9987143 C7.17375,12.9781429 7.50375,12.8032857 7.72625,12.5178571 L12.72625,6.08928571 C12.91,5.85142857 13,5.56857143 13,5.28571429 C13,4.909 12.84,4.53614286 12.53125,4.28157143 C12.3,4.09257143 12.025,4 11.75,4 C11.38375,4 11.02125,4.16585714 10.77375,4.48214286 L6.64625,9.78957143 L5.13375,8.23385714 C4.89,7.98314286 4.57,7.85714286 4.25,7.85714286 C3.93,7.85714286 3.61,7.98314286 3.36625,8.23385714 C3.1225,8.48457143 3,8.81371429 3,9.14285714 C3,9.472 3.12125,9.80114286 3.36625,10.0518571 L5.86625,12.6232857 C6.10125,12.865 6.42,13 6.75,13" id="check" fill="#0C7C84"></path>
                                    </g>
                                    <g id="checkbox" transform="translate(0.000000, 28.000000)">
                                        <g>
                                            <use fill="#FFFFFF" fill-rule="evenodd" xlink:href="#path-4"></use>
                                            <rect stroke="#0C7C84" stroke-width="1" x="0.5" y="0.5" width="15" height="15" rx="2"></rect>
                                        </g>
                                        <path d="M6.75,13 C6.7725,13 6.79625,13 6.81875,12.9987143 C7.17375,12.9781429 7.50375,12.8032857 7.72625,12.5178571 L12.72625,6.08928571 C12.91,5.85142857 13,5.56857143 13,5.28571429 C13,4.909 12.84,4.53614286 12.53125,4.28157143 C12.3,4.09257143 12.025,4 11.75,4 C11.38375,4 11.02125,4.16585714 10.77375,4.48214286 L6.64625,9.78957143 L5.13375,8.23385714 C4.89,7.98314286 4.57,7.85714286 4.25,7.85714286 C3.93,7.85714286 3.61,7.98314286 3.36625,8.23385714 C3.1225,8.48457143 3,8.81371429 3,9.14285714 C3,9.472 3.12125,9.80114286 3.36625,10.0518571 L5.86625,12.6232857 C6.10125,12.865 6.42,13 6.75,13" id="check" fill="#0C7C84"></path>
                                    </g>
                                </g>
                            </g>
                        </g>
                        <g id="Group-22">
                            <text id="STATUS" font-family="Roboto-Regular, Roboto" font-size="12" font-weight="normal" line-spacing="16" fill="#424242">
                                <tspan x="0" y="11">S</tspan>
                                <tspan x="7.11914062" y="11" letter-spacing="-0.5057">T</tspan>
                                <tspan x="13.3107062" y="11" letter-spacing="-0.8151">A</tspan>
                                <tspan x="19.5678719" y="11">TUS</tspan>
                            </text>
                            <g id="Group-5" transform="translate(0.000000, 24.000000)">
                                <text id="Active" font-family="Roboto-Regular, Roboto" font-size="16" font-weight="normal" line-spacing="24" letter-spacing="0.005" fill="#424242">
                                    <tspan x="24.6826" y="43.9419">Acti</tspan>
                                    <tspan x="52.624475" y="43.9419" letter-spacing="-0.0894">v</tspan>
                                    <tspan x="60.1835125" y="43.9419">e</tspan>
                                </text>
                                <text id="Error" font-family="Roboto-Regular, Roboto" font-size="16" font-weight="normal" line-spacing="24" letter-spacing="0.005" fill="#424242">
                                    <tspan x="24.6826" y="15.9419">Er</tspan>
                                    <tspan x="39.2004125" y="15.9419" letter-spacing="-0.1438">r</tspan>
                                    <tspan x="44.314425" y="15.9419">or</tspan>
                                </text>
                                <g id="Group-24" transform="translate(0.000000, 4.000000)">
                                    <path d="M2.6064,38.1011 C1.7794,38.1011 1.1064,37.4281 1.1064,36.6011 L1.1064,24.6011 C1.1064,23.7741 1.7794,23.1011 2.6064,23.1011 L14.6064,23.1011 C15.4334,23.1011 16.1064,23.7741 16.1064,24.6011 L16.1064,36.6011 C16.1064,37.4281 15.4334,38.1011 14.6064,38.1011 L2.6064,38.1011 Z" id="Fill-16" fill="#FFFFFF"></path>
                                    <path d="M14.6064,27.6011 L2.6064,27.6011 C1.5024,27.6011 0.6064,28.4971 0.6064,29.6011 L0.6064,41.6011 C0.6064,42.7051 1.5024,43.6011 2.6064,43.6011 L14.6064,43.6011 C15.7104,43.6011 16.6064,42.7051 16.6064,41.6011 L16.6064,29.6011 C16.6064,28.4971 15.7104,27.6011 14.6064,27.6011 M14.6064,28.6011 C15.1584,28.6011 15.6064,29.0501 15.6064,29.6011 L15.6064,41.6011 C15.6064,42.1521 15.1584,42.6011 14.6064,42.6011 L2.6064,42.6011 C2.0544,42.6011 1.6064,42.1521 1.6064,41.6011 L1.6064,29.6011 C1.6064,29.0501 2.0544,28.6011 2.6064,28.6011 L14.6064,28.6011" id="Fill-18" fill="#BCBCBC"></path>
                                    <path d="M3,15.5 C2.173,15.5 1.5,14.827 1.5,14 L1.5,2 C1.5,1.173 2.173,0.5 3,0.5 L15,0.5 C15.827,0.5 16.5,1.173 16.5,2 L16.5,14 C16.5,14.827 15.827,15.5 15,15.5 L3,15.5 Z" id="Fill-20" fill="#FFFFFF"></path>
                                    <g id="checkbox" transform="translate(1.000000, 0.000000)">
                                        <g>
                                            <use fill="#FFFFFF" fill-rule="evenodd" xlink:href="#path-5"></use>
                                            <rect stroke="#0C7C84" stroke-width="1" x="0.5" y="0.5" width="15" height="15" rx="2"></rect>
                                        </g>
                                        <path d="M6.75,12.375 C6.7725,12.375 6.79625,12.375 6.81875,12.37375 C7.17375,12.35375 7.50375,12.18375 7.72625,11.90625 L12.72625,5.65625 C12.91,5.425 13,5.15 13,4.875 C13,4.50875 12.84,4.14625 12.53125,3.89875 C12.3,3.715 12.025,3.625 11.75,3.625 C11.38375,3.625 11.02125,3.78625 10.77375,4.09375 L6.64625,9.25375 L5.13375,7.74125 C4.89,7.4975 4.57,7.375 4.25,7.375 C3.93,7.375 3.61,7.4975 3.36625,7.74125 C3.1225,7.985 3,8.305 3,8.625 C3,8.945 3.12125,9.265 3.36625,9.50875 L5.86625,12.00875 C6.10125,12.24375 6.42,12.375 6.75,12.375" id="check" fill="#0C7C84"></path>
                                    </g>
                                </g>
                            </g>
                        </g>
                        <g id="Group-9" transform="translate(320.000000, 0.000000)">
                            <text id="IMAGE" font-family="Roboto-Regular, Roboto" font-size="12" font-weight="normal" line-spacing="16" fill="#424242">
                                <tspan x="0" y="11">I</tspan>
                                <tspan x="3.26367188" y="11" letter-spacing="0.117">M</tspan>
                                <tspan x="13.9627031" y="11" letter-spacing="-0.0663">A</tspan>
                                <tspan x="21.660075" y="11">GE</tspan>
                            </text>
                            <g id="Group-7" transform="translate(0.000000, 24.000000)">
                                <g id="Group-13" transform="translate(0.000000, 28.000000)">
                                    <g id="Group-11">
                                        <text id="Booted-From-Volume" font-family="Roboto-Regular, Roboto" font-size="16" font-weight="normal" line-spacing="24" letter-spacing="0.005" fill="#424242">
                                            <tspan x="24" y="15">Booted</tspan>
                                            <tspan x="74.9675" y="15" letter-spacing="-0.003"> </tspan>
                                            <tspan x="78.9254375" y="15" letter-spacing="-0.203">F</tspan>
                                            <tspan x="87.3630625" y="15" letter-spacing="-0.1454">r</tspan>
                                            <tspan x="92.475475" y="15">om </tspan>
                                            <tspan x="24" y="39" letter-spacing="-0.3502">V</tspan>
                                            <tspan x="33.4701125" y="39">olume</tspan>
                                        </text>
                                        <path d="M2.085,19.103 C1.258,19.103 0.585,18.43 0.585,17.603 L0.585,5.603 C0.585,4.776 1.258,4.103 2.085,4.103 L14.085,4.103 C14.912,4.103 15.585,4.776 15.585,5.603 L15.585,17.603 C15.585,18.43 14.912,19.103 14.085,19.103 L2.085,19.103 Z" id="Fill-25" fill="#FFFFFF"></path>
                                    </g>
                                    <path d="M14,4 L2,4 C0.896,4 -6.42330633e-12,4.896 -6.42330633e-12,6 L-6.42330633e-12,18 C-6.42330633e-12,19.105 0.896,20 2,20 L14,20 C15.104,20 16,19.105 16,18 L16,6 C16,4.896 15.104,4 14,4 M14,5 C14.552,5 15,5.449 15,6 L15,18 C15,18.551 14.552,19 14,19 L2,19 C1.448,19 1,18.551 1,18 L1,6 C1,5.449 1.448,5 2,5 L14,5" id="Fill-27" fill="#BCBCBC"></path>
                                </g>
                                <g id="Group-12" transform="translate(24.000000, 80.000000)" fill="#424242" font-family="Roboto-Regular, Roboto" font-size="16" font-weight="normal" letter-spacing="0.005" line-spacing="24">
                                    <text id="Ubuntu-14.04">
                                        <tspan x="0.1611" y="15.9443">Ubuntu</tspan>
                                        <tspan x="51.237975" y="15.9443" letter-spacing="-0.003"> </tspan>
                                        <tspan x="55.1959125" y="15.9443">1</tspan>
                                        <tspan x="64.1852875" y="15.9443" letter-spacing="-0.003">4</tspan>
                                        <tspan x="73.1666625" y="15.9443">.</tspan>
                                        <tspan x="77.3826" y="15.9443" letter-spacing="-0.003">0</tspan>
                                        <tspan x="86.363975" y="15.9443">4</tspan>
                                    </text>
                                </g>
                                <g id="Group-8" transform="translate(1.000000, 0.000000)">
                                    <g id="Group-10">
                                        <text id="Saved-Image" font-family="Roboto-Regular, Roboto" font-size="16" font-weight="normal" line-spacing="24" letter-spacing="0.005" fill="#424242">
                                            <tspan x="23" y="15">S</tspan>
                                            <tspan x="32.4971875" y="15" letter-spacing="-0.1134">a</tspan>
                                            <tspan x="40.969725" y="15" letter-spacing="-0.091">v</tspan>
                                            <tspan x="48.5271625" y="15">ed</tspan>
                                            <tspan x="66.0371625" y="15" letter-spacing="-0.003"> </tspan>
                                            <tspan x="69.9951" y="15">Image</tspan>
                                        </text>
                                        <path d="M1.5,19 C0.673,19 0,18.327 0,17.5 L0,5.5 C0,4.673 0.673,4 1.5,4 L13.5,4 C14.327,4 15,4.673 15,5.5 L15,17.5 C15,18.327 14.327,19 13.5,19 L1.5,19 Z" id="Fill-29" fill="#FFFFFF"></path>
                                    </g>
                                </g>
                                <text id="Linux" font-family="Roboto-Regular, Roboto" font-size="16" font-weight="normal" line-spacing="24" letter-spacing="0.005" fill="#424242">
                                    <tspan x="24.1611" y="123.9443">Linux</tspan>
                                </text>
                                <g id="Group-41" transform="translate(0.000000, 3.000000)">
                                    <path d="M14.085,0.5127 L2.085,0.5127 C0.981,0.5127 0.085,1.4087 0.085,2.5127 L0.085,14.5127 C0.085,15.6167 0.981,16.5127 2.085,16.5127 L14.085,16.5127 C15.189,16.5127 16.085,15.6167 16.085,14.5127 L16.085,2.5127 C16.085,1.4087 15.189,0.5127 14.085,0.5127 M14.085,1.5127 C14.637,1.5127 15.085,1.9607 15.085,2.5127 L15.085,14.5127 C15.085,15.0647 14.637,15.5127 14.085,15.5127 L2.085,15.5127 C1.533,15.5127 1.085,15.0647 1.085,14.5127 L1.085,2.5127 C1.085,1.9607 1.533,1.5127 2.085,1.5127 L14.085,1.5127" id="Fill-31" fill="#BCBCBC"></path>
                                    <path d="M2.085,97.2837 C1.258,97.2837 0.585,96.6107 0.585,95.7837 L0.585,83.7837 C0.585,82.9567 1.258,82.2837 2.085,82.2837 L14.085,82.2837 C14.912,82.2837 15.585,82.9567 15.585,83.7837 L15.585,95.7837 C15.585,96.6107 14.912,97.2837 14.085,97.2837 L2.085,97.2837 Z" id="Fill-33" fill="#FFFFFF"></path>
                                    <path d="M14.085,109.7837 L2.085,109.7837 C0.981,109.7837 0.085,110.6797 0.085,111.7837 L0.085,123.7837 C0.085,124.8887 0.981,125.7837 2.085,125.7837 L14.085,125.7837 C15.189,125.7837 16.085,124.8887 16.085,123.7837 L16.085,111.7837 C16.085,110.6797 15.189,109.7837 14.085,109.7837 M14.085,110.7837 C14.637,110.7837 15.085,111.2327 15.085,111.7837 L15.085,123.7837 C15.085,124.3347 14.637,124.7837 14.085,124.7837 L2.085,124.7837 C1.533,124.7837 1.085,124.3347 1.085,123.7837 L1.085,111.7837 C1.085,111.2327 1.533,110.7837 2.085,110.7837 L14.085,110.7837" id="Fill-35" fill="#BCBCBC"></path>
                                    <path d="M14,82 L2,82 C0.896,82 0,82.896 0,84 L0,96 C0,97.104 0.896,98 2,98 L14,98 C15.104,98 16,97.104 16,96 L16,84 C16,82.896 15.104,82 14,82 M14,83 C14.552,83 15,83.448 15,84 L15,96 C15,96.552 14.552,97 14,97 L2,97 C1.448,97 1,96.552 1,96 L1,84 C1,83.448 1.448,83 2,83 L14,83" id="Fill-39" fill="#BCBCBC"></path>
                                </g>
                            </g>
                        </g>
                    </g>
                    <text id="Filter-Your-Data" font-family="Roboto-Medium, Roboto" font-size="16" font-weight="400" line-spacing="24" fill="#424242">
                        <tspan x="0" y="15">Filter Your Data</tspan>
                    </text>
                </g>
                <g id="Group-26" transform="translate(20.000000, 233.000000)">
                    <g id="Button/Standard/Primary-Copy-5">
                        <rect id="Rectangle-2" fill="#0C7C84" x="0" y="0" width="103" height="32" rx="2"></rect>
                        <text id="Button-Text" font-family="Roboto-Medium, Roboto" font-size="14" font-weight="400" line-spacing="20" fill="#FFFFFF">
                            <tspan x="12.6069336" y="19">Apply Filters</tspan>
                        </text>
                    </g>
                    <g id="Button/Standard/Primary-Copy-6" transform="translate(123.000000, 0.000000)">
                        <rect id="Rectangle-2" stroke="#0C7C84" x="0.5" y="0.5" width="99" height="31" rx="2"></rect>
                        <text id="Button-Text" font-family="Roboto-Medium, Roboto" font-size="14" font-weight="400" line-spacing="20" fill="#0C7C84">
                            <tspan x="12.3168945" y="19">Clear Filters</tspan>
                        </text>
                    </g>
                    <g id="button:tertiary:default" transform="translate(243.000000, 0.000000)">
                        <rect id="Rectangle-2" fill-opacity="0" fill="#FFFFFF" opacity="0" x="0" y="0" width="72" height="32" rx="2"></rect>
                        <text id="Cancel" font-family="Roboto-Medium, Roboto" font-size="14" font-weight="400" line-spacing="20" fill="#0C7481">
                            <tspan x="14.5419922" y="19">Cancel</tspan>
                        </text>
                    </g>
                </g>
            </g>
        </g>
    </g>
</svg>