<?xml version="1.0" encoding="UTF-8"?>
<svg width="438px" height="259px" viewBox="0 0 438 259" version="1.1" xmlns="http://www.w3.org/2000/svg" xmlns:xlink="http://www.w3.org/1999/xlink">
    <!-- Generator: Sketch 48.2 (47327) - http://www.bohemiancoding.com/sketch -->
    <title>popover-default-layout</title>
    <desc>Created with Sketch.</desc>
    <defs>
        <polygon id="path-1" points="29.2923758 8.41390873 21.1133758 0 12.9353758 8.41390873 0.848375839 8.41390873 0.848375839 27.2497879 0.848375839 45.5561323 0.848375839 252 431.459663 252 431.459663 8.41390873"></polygon>
        <filter x="-1.5%" y="-1.5%" width="103.0%" height="105.2%" filterUnits="objectBoundingBox" id="filter-2">
            <feMorphology radius="0.5" operator="dilate" in="SourceAlpha" result="shadowSpreadOuter1"></feMorphology>
            <feOffset dx="0" dy="3" in="shadowSpreadOuter1" result="shadowOffsetOuter1"></feOffset>
            <feGaussianBlur stdDeviation="1.5" in="shadowOffsetOuter1" result="shadowBlurOuter1"></feGaussianBlur>
            <feComposite in="shadowBlurOuter1" in2="SourceAlpha" operator="out" result="shadowBlurOuter1"></feComposite>
            <feColorMatrix values="0 0 0 0 0   0 0 0 0 0   0 0 0 0 0  0 0 0 0.16 0" type="matrix" in="shadowBlurOuter1"></feColorMatrix>
        </filter>
    </defs>
    <g id="Custom-Preset-3-Copy-5" stroke="none" stroke-width="1" fill="none" fill-rule="evenodd" transform="translate(-98.000000, -70.000000)">
        <g id="popover-default-layout" transform="translate(101.000000, 70.000000)">
            <g id="Fill-227-Copy-8" transform="translate(216.154019, 126.000000) scale(-1, 1) translate(-216.154019, -126.000000) ">
                <use fill="black" fill-opacity="1" filter="url(#filter-2)" xlink:href="#path-1"></use>
                <use stroke="#E0E0E0" stroke-width="1" fill="#FFFFFF" fill-rule="evenodd" xlink:href="#path-1"></use>
            </g>
            <g id="Button/Standard/Primary" transform="translate(21.000000, 200.000000)">
                <rect id="Rectangle-2" fill="#0C7C84" fill-rule="evenodd" x="0" y="0" width="96" height="32" rx="2"></rect>
                <text id="Button-Text" font-family="Roboto-Medium, Roboto" font-size="14" font-weight="400" line-spacing="20" fill="#FFFFFF">
                    <tspan x="9.10693359" y="19">Apply Filters</tspan>
                </text>
            </g>
            <g id="Button/Standard/Primary-Copy-6" transform="translate(137.000000, 200.000000)">
                <rect id="Rectangle-2" stroke="#0C7C84" x="0.5" y="0.5" width="95" height="31" rx="2"></rect>
                <text id="Button-Text" font-family="Roboto-Medium, Roboto" font-size="14" font-weight="400" line-spacing="20" fill="#0C7C84">
                    <tspan x="10.3168945" y="19">Clear Filters</tspan>
                </text>
            </g>
            <g id="button:tertiary:default" transform="translate(253.000000, 200.000000)">
                <rect id="Rectangle-2" fill-opacity="0" fill="#FFFFFF" opacity="0" x="0" y="0" width="72" height="32" rx="2"></rect>
                <text id="Cancel" font-family="Roboto-Medium, Roboto" font-size="14" font-weight="400" line-spacing="20" fill="#0C7481">
                    <tspan x="14.5419922" y="19">Cancel</tspan>
                </text>
            </g>
            <text id="Saved-Image" font-family="Roboto-Regular, Roboto" font-size="16" font-weight="normal" letter-spacing="0.005" fill="#424242">
                <tspan x="45" y="68">S</tspan>
                <tspan x="54.4971875" y="68" letter-spacing="-0.1134">a</tspan>
                <tspan x="62.969725" y="68" letter-spacing="-0.091">v</tspan>
                <tspan x="70.5271625" y="68">ed</tspan>
                <tspan x="88.0371625" y="68" letter-spacing="-0.003"> </tspan>
                <tspan x="91.9951" y="68">Image</tspan>
            </text>
            <text id="Saved-Image-Copy" font-family="Roboto-Regular, Roboto" font-size="16" font-weight="normal" letter-spacing="0.005" fill="#424242">
                <tspan x="252" y="67">S</tspan>
                <tspan x="261.497187" y="67" letter-spacing="-0.1134">a</tspan>
                <tspan x="269.969725" y="67" letter-spacing="-0.091">v</tspan>
                <tspan x="277.527162" y="67">ed</tspan>
                <tspan x="295.037163" y="67" letter-spacing="-0.003"> </tspan>
                <tspan x="298.9951" y="67">Image</tspan>
            </text>
            <text id="Saved-Image-Copy-2" font-family="Roboto-Regular, Roboto" font-size="16" font-weight="normal" letter-spacing="0.005" fill="#424242">
                <tspan x="251" y="156">S</tspan>
                <tspan x="260.497187" y="156" letter-spacing="-0.1134">a</tspan>
                <tspan x="268.969725" y="156" letter-spacing="-0.091">v</tspan>
                <tspan x="276.527162" y="156">ed</tspan>
                <tspan x="294.037163" y="156" letter-spacing="-0.003"> </tspan>
                <tspan x="297.9951" y="156">Image</tspan>
            </text>
            <text id="Booted-From-Volume" font-family="Roboto-Regular, Roboto" font-size="16" font-weight="normal" letter-spacing="0.005" fill="#424242">
                <tspan x="45" y="90">Booted</tspan>
                <tspan x="95.9675" y="90" letter-spacing="-0.003"> </tspan>
                <tspan x="99.9254375" y="90" letter-spacing="-0.203">F</tspan>
                <tspan x="108.363063" y="90" letter-spacing="-0.1454">r</tspan>
                <tspan x="113.475475" y="90">om </tspan>
                <tspan x="140.59985" y="90" letter-spacing="-0.3502">V</tspan>
                <tspan x="150.069963" y="90">olume</tspan>
            </text>
            <text id="Booted-From-Volume-Copy" font-family="Roboto-Regular, Roboto" font-size="16" font-weight="normal" letter-spacing="0.005" fill="#424242">
                <tspan x="252" y="89">Booted</tspan>
                <tspan x="302.9675" y="89" letter-spacing="-0.003"> </tspan>
                <tspan x="306.925437" y="89" letter-spacing="-0.203">F</tspan>
                <tspan x="315.363063" y="89" letter-spacing="-0.1454">r</tspan>
                <tspan x="320.475475" y="89">om </tspan>
                <tspan x="347.59985" y="89" letter-spacing="-0.3502">V</tspan>
                <tspan x="357.069962" y="89">olume</tspan>
            </text>
            <text id="Booted-From-Volume-Copy-2" font-family="Roboto-Regular, Roboto" font-size="16" font-weight="normal" letter-spacing="0.005" fill="#424242">
                <tspan x="45" y="158">Booted</tspan>
                <tspan x="95.9675" y="158" letter-spacing="-0.003"> </tspan>
                <tspan x="99.9254375" y="158" letter-spacing="-0.203">F</tspan>
                <tspan x="108.363063" y="158" letter-spacing="-0.1454">r</tspan>
                <tspan x="113.475475" y="158">om </tspan>
                <tspan x="140.59985" y="158" letter-spacing="-0.3502">V</tspan>
                <tspan x="150.069963" y="158">olume</tspan>
            </text>
            <text id="Ubuntu-14.04" font-family="Roboto-Regular, Roboto" font-size="16" font-weight="normal" letter-spacing="0.005" fill="#424242">
                <tspan x="45" y="112">Ubuntu</tspan>
                <tspan x="96.076875" y="112" letter-spacing="-0.003"> </tspan>
                <tspan x="100.034813" y="112">1</tspan>
                <tspan x="109.024188" y="112" letter-spacing="-0.003">4</tspan>
                <tspan x="118.005563" y="112">.</tspan>
                <tspan x="122.2215" y="112" letter-spacing="-0.003">0</tspan>
                <tspan x="131.202875" y="112">4</tspan>
            </text>
            <text id="Ubuntu-14.04-Copy" font-family="Roboto-Regular, Roboto" font-size="16" font-weight="normal" letter-spacing="0.005" fill="#424242">
                <tspan x="252" y="112">Ubuntu</tspan>
                <tspan x="303.076875" y="112" letter-spacing="-0.003"> </tspan>
                <tspan x="307.034812" y="112">1</tspan>
                <tspan x="316.024188" y="112" letter-spacing="-0.003">4</tspan>
                <tspan x="325.005562" y="112">.</tspan>
                <tspan x="329.2215" y="112" letter-spacing="-0.003">0</tspan>
                <tspan x="338.202875" y="112">4</tspan>
            </text>
            <text id="Ubuntu-14.04-Copy-2" font-family="Roboto-Regular, Roboto" font-size="16" font-weight="normal" letter-spacing="0.005" fill="#424242">
                <tspan x="45" y="180">Ubuntu</tspan>
                <tspan x="96.076875" y="180" letter-spacing="-0.003"> </tspan>
                <tspan x="100.034813" y="180">1</tspan>
                <tspan x="109.024188" y="180" letter-spacing="-0.003">4</tspan>
                <tspan x="118.005563" y="180">.</tspan>
                <tspan x="122.2215" y="180" letter-spacing="-0.003">0</tspan>
                <tspan x="131.202875" y="180">4</tspan>
            </text>
            <text id="Linux" font-family="Roboto-Regular, Roboto" font-size="16" font-weight="normal" letter-spacing="0.005" fill="#424242">
                <tspan x="45" y="134">Linux</tspan>
            </text>
            <text id="Linux-Copy" font-family="Roboto-Regular, Roboto" font-size="16" font-weight="normal" letter-spacing="0.005" fill="#424242">
                <tspan x="252" y="135">Linux</tspan>
            </text>
            <g id="Group-41" transform="translate(21.000000, 54.000000)">
                <path d="M2.085,38.103 C1.258,38.103 0.585,37.43 0.585,36.603 L0.585,24.603 C0.585,23.776 1.258,23.103 2.085,23.103 L14.085,23.103 C14.912,23.103 15.585,23.776 15.585,24.603 L15.585,36.603 C15.585,37.43 14.912,38.103 14.085,38.103 L2.085,38.103 Z" id="Fill-25" fill="#FFFFFF"></path>
                <path d="M14.085,22.603 L2.085,22.603 C0.981,22.603 0.085,23.499 0.085,24.603 L0.085,36.603 C0.085,37.708 0.981,38.603 2.085,38.603 L14.085,38.603 C15.189,38.603 16.085,37.708 16.085,36.603 L16.085,24.603 C16.085,23.499 15.189,22.603 14.085,22.603 M14.085,23.603 C14.637,23.603 15.085,24.052 15.085,24.603 L15.085,36.603 C15.085,37.154 14.637,37.603 14.085,37.603 L2.085,37.603 C1.533,37.603 1.085,37.154 1.085,36.603 L1.085,24.603 C1.085,24.052 1.533,23.603 2.085,23.603 L14.085,23.603" id="Fill-27" fill="#BCBCBC"></path>
                <path d="M2.085,16.0127 C1.258,16.0127 0.585,15.3397 0.585,14.5127 L0.585,2.5127 C0.585,1.6857 1.258,1.0127 2.085,1.0127 L14.085,1.0127 C14.912,1.0127 15.585,1.6857 15.585,2.5127 L15.585,14.5127 C15.585,15.3397 14.912,16.0127 14.085,16.0127 L2.085,16.0127 Z" id="Fill-29" fill="#FFFFFF"></path>
                <path d="M14.085,0.5127 L2.085,0.5127 C0.981,0.5127 0.085,1.4087 0.085,2.5127 L0.085,14.5127 C0.085,15.6167 0.981,16.5127 2.085,16.5127 L14.085,16.5127 C15.189,16.5127 16.085,15.6167 16.085,14.5127 L16.085,2.5127 C16.085,1.4087 15.189,0.5127 14.085,0.5127 M14.085,1.5127 C14.637,1.5127 15.085,1.9607 15.085,2.5127 L15.085,14.5127 C15.085,15.0647 14.637,15.5127 14.085,15.5127 L2.085,15.5127 C1.533,15.5127 1.085,15.0647 1.085,14.5127 L1.085,2.5127 C1.085,1.9607 1.533,1.5127 2.085,1.5127 L14.085,1.5127" id="Fill-31" fill="#BCBCBC"></path>
                <path d="M2.085,82.2837 C1.258,82.2837 0.585,81.6107 0.585,80.7837 L0.585,68.7837 C0.585,67.9567 1.258,67.2837 2.085,67.2837 L14.085,67.2837 C14.912,67.2837 15.585,67.9567 15.585,68.7837 L15.585,80.7837 C15.585,81.6107 14.912,82.2837 14.085,82.2837 L2.085,82.2837 Z" id="Fill-33" fill="#FFFFFF"></path>
                <path d="M14.085,66.7837 L2.085,66.7837 C0.981,66.7837 0.085,67.6797 0.085,68.7837 L0.085,80.7837 C0.085,81.8887 0.981,82.7837 2.085,82.7837 L14.085,82.7837 C15.189,82.7837 16.085,81.8887 16.085,80.7837 L16.085,68.7837 C16.085,67.6797 15.189,66.7837 14.085,66.7837 M14.085,67.7837 C14.637,67.7837 15.085,68.2327 15.085,68.7837 L15.085,80.7837 C15.085,81.3347 14.637,81.7837 14.085,81.7837 L2.085,81.7837 C1.533,81.7837 1.085,81.3347 1.085,80.7837 L1.085,68.7837 C1.085,68.2327 1.533,67.7837 2.085,67.7837 L14.085,67.7837" id="Fill-35" fill="#BCBCBC"></path>
                <path d="M2,60.5 C1.173,60.5 0.5,59.827 0.5,59 L0.5,47 C0.5,46.173 1.173,45.5 2,45.5 L14,45.5 C14.827,45.5 15.5,46.173 15.5,47 L15.5,59 C15.5,59.827 14.827,60.5 14,60.5 L2,60.5 Z" id="Fill-37" fill="#FFFFFF"></path>
                <path d="M14,45 L2,45 C0.896,45 0,45.896 0,47 L0,59 C0,60.104 0.896,61 2,61 L14,61 C15.104,61 16,60.104 16,59 L16,47 C16,45.896 15.104,45 14,45 M14,46 C14.552,46 15,46.448 15,47 L15,59 C15,59.552 14.552,60 14,60 L2,60 C1.448,60 1,59.552 1,59 L1,47 C1,46.448 1.448,46 2,46 L14,46" id="Fill-39" fill="#BCBCBC"></path>
            </g>
            <g id="Group-41-Copy" transform="translate(228.000000, 54.000000)">
                <path d="M2.085,38.103 C1.258,38.103 0.585,37.43 0.585,36.603 L0.585,24.603 C0.585,23.776 1.258,23.103 2.085,23.103 L14.085,23.103 C14.912,23.103 15.585,23.776 15.585,24.603 L15.585,36.603 C15.585,37.43 14.912,38.103 14.085,38.103 L2.085,38.103 Z" id="Fill-25" fill="#FFFFFF"></path>
                <path d="M14.085,22.603 L2.085,22.603 C0.981,22.603 0.085,23.499 0.085,24.603 L0.085,36.603 C0.085,37.708 0.981,38.603 2.085,38.603 L14.085,38.603 C15.189,38.603 16.085,37.708 16.085,36.603 L16.085,24.603 C16.085,23.499 15.189,22.603 14.085,22.603 M14.085,23.603 C14.637,23.603 15.085,24.052 15.085,24.603 L15.085,36.603 C15.085,37.154 14.637,37.603 14.085,37.603 L2.085,37.603 C1.533,37.603 1.085,37.154 1.085,36.603 L1.085,24.603 C1.085,24.052 1.533,23.603 2.085,23.603 L14.085,23.603" id="Fill-27" fill="#BCBCBC"></path>
                <path d="M2.085,16.0127 C1.258,16.0127 0.585,15.3397 0.585,14.5127 L0.585,2.5127 C0.585,1.6857 1.258,1.0127 2.085,1.0127 L14.085,1.0127 C14.912,1.0127 15.585,1.6857 15.585,2.5127 L15.585,14.5127 C15.585,15.3397 14.912,16.0127 14.085,16.0127 L2.085,16.0127 Z" id="Fill-29" fill="#FFFFFF"></path>
                <path d="M14.085,0.5127 L2.085,0.5127 C0.981,0.5127 0.085,1.4087 0.085,2.5127 L0.085,14.5127 C0.085,15.6167 0.981,16.5127 2.085,16.5127 L14.085,16.5127 C15.189,16.5127 16.085,15.6167 16.085,14.5127 L16.085,2.5127 C16.085,1.4087 15.189,0.5127 14.085,0.5127 M14.085,1.5127 C14.637,1.5127 15.085,1.9607 15.085,2.5127 L15.085,14.5127 C15.085,15.0647 14.637,15.5127 14.085,15.5127 L2.085,15.5127 C1.533,15.5127 1.085,15.0647 1.085,14.5127 L1.085,2.5127 C1.085,1.9607 1.533,1.5127 2.085,1.5127 L14.085,1.5127" id="Fill-31" fill="#BCBCBC"></path>
                <path d="M2.085,82.2837 C1.258,82.2837 0.585,81.6107 0.585,80.7837 L0.585,68.7837 C0.585,67.9567 1.258,67.2837 2.085,67.2837 L14.085,67.2837 C14.912,67.2837 15.585,67.9567 15.585,68.7837 L15.585,80.7837 C15.585,81.6107 14.912,82.2837 14.085,82.2837 L2.085,82.2837 Z" id="Fill-33" fill="#FFFFFF"></path>
                <path d="M14,67 L2,67 C0.896,67 0,67.896 0,69 L0,81 C0,82.105 0.896,83 2,83 L14,83 C15.104,83 16,82.105 16,81 L16,69 C16,67.896 15.104,67 14,67 M14,68 C14.552,68 15,68.449 15,69 L15,81 C15,81.551 14.552,82 14,82 L2,82 C1.448,82 1,81.551 1,81 L1,69 C1,68.449 1.448,68 2,68 L14,68" id="Fill-35" fill="#BCBCBC"></path>
                <path d="M14,88 L2,88 C0.896,88 0,88.896 0,90 L0,102 C0,103.105 0.896,104 2,104 L14,104 C15.104,104 16,103.105 16,102 L16,90 C16,88.896 15.104,88 14,88 M14,89 C14.552,89 15,89.449 15,90 L15,102 C15,102.551 14.552,103 14,103 L2,103 C1.448,103 1,102.551 1,102 L1,90 C1,89.449 1.448,89 2,89 L14,89" id="Fill-35-Copy" fill="#BCBCBC"></path>
                <path d="M2,60.5 C1.173,60.5 0.5,59.827 0.5,59 L0.5,47 C0.5,46.173 1.173,45.5 2,45.5 L14,45.5 C14.827,45.5 15.5,46.173 15.5,47 L15.5,59 C15.5,59.827 14.827,60.5 14,60.5 L2,60.5 Z" id="Fill-37" fill="#FFFFFF"></path>
                <path d="M14,45 L2,45 C0.896,45 0,45.896 0,47 L0,59 C0,60.104 0.896,61 2,61 L14,61 C15.104,61 16,60.104 16,59 L16,47 C16,45.896 15.104,45 14,45 M14,46 C14.552,46 15,46.448 15,47 L15,59 C15,59.552 14.552,60 14,60 L2,60 C1.448,60 1,59.552 1,59 L1,47 C1,46.448 1.448,46 2,46 L14,46" id="Fill-39" fill="#BCBCBC"></path>
            </g>
            <g id="Group-41-Copy-2" transform="translate(21.000000, 144.000000)">
                <path d="M2.5,37 C1.673,37 1,36.327 1,35.5 L1,23.5 C1,22.673 1.673,22 2.5,22 L14.5,22 C15.327,22 16,22.673 16,23.5 L16,35.5 C16,36.327 15.327,37 14.5,37 L2.5,37 Z" id="Fill-25" fill="#FFFFFF"></path>
                <path d="M14,22 L2,22 C0.896,22 0,22.896 0,24 L0,36 C0,37.105 0.896,38 2,38 L14,38 C15.104,38 16,37.105 16,36 L16,24 C16,22.896 15.104,22 14,22 M14,23 C14.552,23 15,23.449 15,24 L15,36 C15,36.551 14.552,37 14,37 L2,37 C1.448,37 1,36.551 1,36 L1,24 C1,23.449 1.448,23 2,23 L14,23" id="Fill-27" fill="#BCBCBC"></path>
                <path d="M2.5,15 C1.673,15 1,14.327 1,13.5 L1,1.5 C1,0.673 1.673,0 2.5,0 L14.5,0 C15.327,0 16,0.673 16,1.5 L16,13.5 C16,14.327 15.327,15 14.5,15 L2.5,15 Z" id="Fill-29" fill="#FFFFFF"></path>
                <path d="M14,0 L2,0 C0.896,0 0,0.896 0,2 L0,14 C0,15.104 0.896,16 2,16 L14,16 C15.104,16 16,15.104 16,14 L16,2 C16,0.896 15.104,0 14,0 M14,1 C14.552,1 15,1.448 15,2 L15,14 C15,14.552 14.552,15 14,15 L2,15 C1.448,15 1,14.552 1,14 L1,2 C1,1.448 1.448,1 2,1 L14,1" id="Fill-31" fill="#BCBCBC"></path>
            </g>
            <text id="Filter-Your-Data" font-family="Roboto-Medium, Roboto" font-size="16" font-weight="400" line-spacing="16" fill="#424242">
                <tspan x="20" y="43">Filter Your Data</tspan>
            </text>
        </g>
    </g>
</svg>