<?xml version="1.0" encoding="UTF-8"?>
<svg width="633px" height="391px" viewBox="0 0 633 391" version="1.1" xmlns="http://www.w3.org/2000/svg" xmlns:xlink="http://www.w3.org/1999/xlink">
    <!-- Generator: Sketch 48.2 (47327) - http://www.bohemiancoding.com/sketch -->
    <title>filtering-popovers</title>
    <desc>Created with Sketch.</desc>
    <defs>
        <rect id="path-1" x="0" y="0" width="633" height="391"></rect>
    </defs>
    <g id="Page-1" stroke="none" stroke-width="1" fill="none" fill-rule="evenodd">
        <g id="filtering-popovers">
            <g id="Mask">
                <g id="path-1-link" fill="#000000" fill-rule="nonzero">
                    <rect id="path-1" x="0" y="0" width="633" height="391"></rect>
                </g>
                <g id="path-1-link" fill="#FAFAFA">
                    <rect id="path-1" x="0" y="0" width="633" height="391"></rect>
                </g>
            </g>
            <g id="Group-17-Clipped">
                <mask id="mask-2" fill="white">
                    <use xlink:href="#path-1"></use>
                </mask>
                <g id="path-1"></g>
                <g id="Group-17" mask="url(#mask-2)">
                    <g transform="translate(-268.000000, -5.000000)" id="Group">
                        <g>
                            <g id="Group-14">
                                <g id="Create-Server" fill="#424242" font-family="Roboto-Light, Roboto" font-size="48" font-weight="300">
                                    <text>
                                        <tspan x="0" y="45">Create Server</tspan>
                                    </text>
                                </g>
                                <g id="Group-4" transform="translate(1.000000, 70.000000)">
                                    <g id="Table" transform="translate(0.000000, 48.000000)">
                                        <g id="Table-Header">
                                            <g id="Group-33" transform="translate(0.000000, 30.000000)" stroke="#E0E0E0">
                                                <path d="M0,0 L1158,0" id="Line" stroke-linecap="square"></path>
                                                <path d="M0,56.0806452 L1158,56.0806452" id="Stroke-11"></path>
                                                <path d="M0,112.080645 L1158,112.080645" id="Stroke-11"></path>
                                                <path d="M0,168.080645 L1158,168.080645" id="Stroke-11"></path>
                                                <path d="M0,224.080645 L1158,224.080645" id="Stroke-11"></path>
                                            </g>
                                            <g id="Group-30" transform="translate(220.000000, 0.000000)" fill="#333333" font-family="Roboto-Regular, Roboto" font-size="16" font-weight="normal">
                                                <g id="Second-Column" transform="translate(1.000000, 48.000000)">
                                                    <text id="Production">
                                                        <tspan x="0" y="15">Production</tspan>
                                                    </text>
                                                </g>
                                                <g id="Second-Column" transform="translate(1.000000, 104.000000)">
                                                    <text id="Production">
                                                        <tspan x="0" y="15">Production</tspan>
                                                    </text>
                                                </g>
                                                <g id="Second-Column" transform="translate(1.000000, 160.000000)">
                                                    <text id="Production">
                                                        <tspan x="0" y="15">Production</tspan>
                                                    </text>
                                                </g>
                                                <g id="Second-Column" transform="translate(1.000000, 216.000000)">
                                                    <text id="Production">
                                                        <tspan x="0" y="15">Production</tspan>
                                                    </text>
                                                </g>
                                            </g>
                                            <g id="Group-29" transform="translate(420.000000, 0.000000)" fill="#333333" font-family="Roboto-Regular, Roboto" font-weight="normal">
                                                <g id="Group-31">
                                                    <text id="LOCATION" font-size="12">
                                                        <tspan x="0" y="11">LOCATION</tspan>
                                                    </text>
                                                    <text id="Chicago-(ORD)" font-size="16">
                                                        <tspan x="1" y="63">Chicago (ORD)</tspan>
                                                    </text>
                                                    <text id="Miama-(MIA)" font-size="16">
                                                        <tspan x="1" y="119">Miama (MIA)</tspan>
                                                    </text>
                                                    <text id="Chicago-(ORD)" font-size="16">
                                                        <tspan x="1" y="175">Chicago (ORD)</tspan>
                                                    </text>
                                                    <text id="Chicago-(ORD)" font-size="16">
                                                        <tspan x="1" y="231">Chicago (ORD)</tspan>
                                                    </text>
                                                </g>
                                            </g>
                                        </g>
                                        <g id="Rows" transform="translate(688.000000, 0.000000)" fill="#333333" font-family="Roboto-Regular, Roboto" font-weight="normal">
                                            <g id="Table-/-Row-/-Default">
                                                <g id="Group-28">
                                                    <text id="SERVER-ID" font-size="12">
                                                        <tspan x="0" y="11">SERVER ID</tspan>
                                                    </text>
                                                    <text id="1.236474.2738" font-size="16">
                                                        <tspan x="1" y="63">1.236474.2738</tspan>
                                                    </text>
                                                    <text id="1.236474.2739" font-size="16">
                                                        <tspan x="1" y="119">1.236474.2739</tspan>
                                                    </text>
                                                    <text id="1.236474.2740" font-size="16">
                                                        <tspan x="1" y="175">1.236474.2740</tspan>
                                                    </text>
                                                    <text id="1.236474.2741" font-size="16">
                                                        <tspan x="1" y="231">1.236474.2741</tspan>
                                                    </text>
                                                </g>
                                            </g>
                                        </g>
                                    </g>
                                    <g id="Group-3" transform="translate(764.000000, 0.000000)">
                                        <g id="Group">
                                            <g id="Button/Standard/Primary-Copy-6">
                                                <rect id="Rectangle-2" stroke="#0C7C84" x="0.5" y="0.5" width="81" height="31" rx="2"></rect>
                                                <text id="Filters" fill="#0C7C84" font-family="Roboto-Regular, Roboto" font-size="14" font-weight="normal">
                                                    <tspan x="30" y="19">Filters</tspan>
                                                </text>
                                                <path d="M25.8105962,10.084 L20.9088868,14.986 L20.9088868,22.364 C20.9088868,22.622 20.7498962,22.851 20.5209098,22.95 C20.4419145,22.98 20.3519198,23 20.2719246,23 C20.1029346,23 19.943944,22.941 19.8249511,22.811 L17.280102,20.266 C17.1601091,20.147 17.0911132,19.988 17.0911132,19.818 L17.0911132,14.986 L12.1894038,10.084 C12.000415,9.905 11.950418,9.627 12.0504121,9.388 C12.1494062,9.159 12.3783926,9 12.6363773,9 L25.3636227,9 C25.6216074,9 25.8505938,9.159 25.9495879,9.388 C26.049582,9.627 25.999585,9.905 25.8105962,10.084" id="Fill-1" fill="#0C7C84" fill-rule="nonzero"></path>
                                            </g>
                                        </g>
                                        <g id="Min-Search-Bar" transform="translate(102.000000, 0.000000)">
                                            <g id="Search-Icon">
                                                <g id="Rectangle-4">
                                                    <g id="path-4-link" fill="#FFFFFF">
                                                        <path d="M2,0 L290,0 C291.104569,-2.02906125e-16 292,0.8954305 292,2 L292,30 C292,31.1045695 291.104569,32 290,32 L2,32 C0.8954305,32 1.3527075e-16,31.1045695 0,30 L0,2 C-1.3527075e-16,0.8954305 0.8954305,2.02906125e-16 2,0 Z" id="path-4"></path>
                                                    </g>
                                                    <path d="M2,0.5 C1.17157288,0.5 0.5,1.17157288 0.5,2 L0.5,30 C0.5,30.8284271 1.17157288,31.5 2,31.5 L290,31.5 C290.828427,31.5 291.5,30.8284271 291.5,30 L291.5,2 C291.5,1.17157288 290.828427,0.5 290,0.5 L2,0.5 Z" id="Shape" stroke="#BDBDBD"></path>
                                                </g>
                                                <g id="Icons/Search" transform="translate(12.000000, 7.000000)" fill="#757575" fill-rule="nonzero">
                                                    <g id="search">
                                                        <g id="Layer_1">
                                                            <path d="M15.9,14.6 L11.4,10.1 C12.2,9 12.7,7.7 12.7,6.3 C12.7,2.8 9.8,0 6.4,0 C2.9,0 0.1,2.8 0.1,6.3 C0.1,9.8 2.9,12.6 6.4,12.6 C7.7,12.6 9,12.2 10,11.5 L14.5,16 L15.9,14.6 Z M2.1,6.3 C2.1,3.9 4,2 6.4,2 C8.8,2 10.7,3.9 10.7,6.3 C10.7,8.7 8.8,10.6 6.4,10.6 C4,10.6 2.1,8.7 2.1,6.3 Z" id="Shape"></path>
                                                        </g>
                                                    </g>
                                                </g>
                                            </g>
                                        </g>
                                    </g>
                                </g>
                            </g>
                        </g>
                    </g>
                </g>
            </g>
        </g>
    </g>
</svg>