<svg xmlns="http://www.w3.org/2000/svg" xmlns:xlink="http://www.w3.org/1999/xlink" viewBox="0 0 624.33 177.6"><defs><style>.cls-1,.cls-14,.cls-4,.cls-6{fill:#fff;}.cls-1{clip-rule:evenodd;}.cls-2{fill:#d32f2f;}.cls-3{fill:#f44336;}.cls-4,.cls-5{opacity:0.8;}.cls-4{isolation:isolate;}.cls-7{fill:#fafafa;}.cls-10,.cls-8{fill:none;stroke-miterlimit:10;}.cls-8{stroke:#d32f2f;}.cls-9{fill:#757575;}.cls-10{stroke:#3b44a9;}.cls-11{fill:#3b44a9;}.cls-12{fill:#424242;}.cls-13{fill:#0e7c84;}.cls-14{fill-rule:evenodd;}.cls-15{clip-path:url(#clip-path);}.cls-16{font-size:8px;font-family:Roboto-Light, Roboto;}.cls-16,.cls-19{fill:#eb008b;}.cls-17{letter-spacing:-0.01em;}.cls-18{letter-spacing:-0.08em;}.cls-19,.cls-20{opacity:0.5;}.cls-20{fill:#00c3ff;}</style><clipPath id="clip-path"><path class="cls-1" d="M138.89,142.33A8,8,0,0,1,144,145a9.82,9.82,0,0,1,2.15,4.64,7.41,7.41,0,0,0-3-2.56,10.19,10.19,0,0,0-4.28-.82v2.69l-4.61-4.61,4.61-4.61Z"/></clipPath></defs><title>Alert Specs</title><g id="Email_Content" data-name="Email Content"><rect class="cls-2" x="125.61" y="68.98" width="494.55" height="30.42"/><rect class="cls-3" x="125.7" y="68.98" width="30.42" height="30.42"/><path class="cls-4" d="M145.06,90.84h-7.45l-3.73-6.52,3.73-6.52h7.45l3.73,6.52ZM138,90.22h6.73l3.37-5.9-3.37-5.9H138l-3.37,5.9Z"/><g class="cls-5"><path class="cls-6" d="M138.88,87.13a.7.7,0,0,1,.6-.78h.17a.73.73,0,0,1,.56.2.79.79,0,0,1,.19.57.81.81,0,0,1-.2.58.72.72,0,0,1-.56.21.76.76,0,0,1-.57-.2A.79.79,0,0,1,138.88,87.13Zm1.24-1.24h-.91l-.27-5.59h1.42Z"/><path class="cls-6" d="M142.27,87.13a.7.7,0,0,1,.6-.78H143a.73.73,0,0,1,.56.2.79.79,0,0,1,.19.57.81.81,0,0,1-.2.58.72.72,0,0,1-.56.21.76.76,0,0,1-.57-.2A.79.79,0,0,1,142.27,87.13Zm1.24-1.24h-.91l-.27-5.59h1.42Z"/></g><path class="cls-7" d="M168.83,84.48h-3.22v2.63h3.74v.8h-4.72V80.48h4.67v.8h-3.69v2.39h3.22Z"/><path class="cls-7" d="M171.31,82.39l0,.61a2,2,0,0,1,1.64-.71,1.58,1.58,0,0,1,1.58.89,2.09,2.09,0,0,1,.72-.64,2.12,2.12,0,0,1,1-.25q1.82,0,1.85,1.92v3.7h-.94V84.27a1.27,1.27,0,0,0-.27-.89,1.19,1.19,0,0,0-.91-.29,1.25,1.25,0,0,0-.87.31,1.27,1.27,0,0,0-.4.84v3.67h-.95V84.3a1.05,1.05,0,0,0-1.18-1.2,1.26,1.26,0,0,0-1.27.79v4h-.94V82.39Z"/><path class="cls-7" d="M181.88,88a2.41,2.41,0,0,1-1.83-.74,2.74,2.74,0,0,1-.7-2v-.17a3.31,3.31,0,0,1,.31-1.47,2.45,2.45,0,0,1,.88-1,2.21,2.21,0,0,1,1.22-.37,2.07,2.07,0,0,1,1.67.71,3.07,3.07,0,0,1,.6,2v.39h-3.74a2,2,0,0,0,.48,1.32,1.5,1.5,0,0,0,1.16.5,1.65,1.65,0,0,0,.85-.2,2.12,2.12,0,0,0,.61-.54L184,87A2.32,2.32,0,0,1,181.88,88Zm-.12-5a1.26,1.26,0,0,0-1,.42,2,2,0,0,0-.48,1.17h2.77v-.07a1.8,1.8,0,0,0-.39-1.12A1.19,1.19,0,0,0,181.76,83.06Z"/><path class="cls-7" d="M187.8,83.24a2.86,2.86,0,0,0-.46,0,1.24,1.24,0,0,0-1.26.79v3.92h-.94V82.39H186l0,.64a1.47,1.47,0,0,1,1.32-.74,1,1,0,0,1,.42.07Z"/><path class="cls-7" d="M188.44,85.11a3.25,3.25,0,0,1,.6-2.05,2.06,2.06,0,0,1,3.16,0l0-.61h.86v5.39a2.25,2.25,0,0,1-.64,1.69,2.35,2.35,0,0,1-1.71.62,2.84,2.84,0,0,1-1.17-.26,2,2,0,0,1-.87-.7l.49-.57a1.85,1.85,0,0,0,1.49.75,1.45,1.45,0,0,0,1.07-.39,1.48,1.48,0,0,0,.39-1.09v-.47a1.94,1.94,0,0,1-1.55.65,1.89,1.89,0,0,1-1.57-.78A3.41,3.41,0,0,1,188.44,85.11Zm.95.11a2.48,2.48,0,0,0,.38,1.47,1.24,1.24,0,0,0,1.07.53,1.38,1.38,0,0,0,1.31-.81V83.88a1.4,1.4,0,0,0-1.3-.79,1.26,1.26,0,0,0-1.08.54A2.7,2.7,0,0,0,189.39,85.21Z"/><path class="cls-7" d="M196.83,88a2.41,2.41,0,0,1-1.83-.74,2.74,2.74,0,0,1-.7-2v-.17a3.31,3.31,0,0,1,.31-1.47,2.45,2.45,0,0,1,.88-1,2.21,2.21,0,0,1,1.22-.37,2.07,2.07,0,0,1,1.67.71,3.07,3.07,0,0,1,.6,2v.39h-3.74a2,2,0,0,0,.48,1.32,1.5,1.5,0,0,0,1.16.5,1.65,1.65,0,0,0,.85-.2,2.12,2.12,0,0,0,.61-.54l.58.45A2.32,2.32,0,0,1,196.83,88Zm-.12-5a1.26,1.26,0,0,0-1,.42,2,2,0,0,0-.48,1.17H198v-.07a1.8,1.8,0,0,0-.39-1.12A1.19,1.19,0,0,0,196.71,83.06Z"/><path class="cls-7" d="M201,82.39l0,.69a2,2,0,0,1,1.65-.8q1.75,0,1.77,2v3.65h-.94V84.26a1.27,1.27,0,0,0-.27-.88,1.09,1.09,0,0,0-.83-.29,1.36,1.36,0,0,0-.81.25A1.66,1.66,0,0,0,201,84v3.94h-.94V82.39Z"/><path class="cls-7" d="M208.06,87.25a1.36,1.36,0,0,0,.88-.31,1.08,1.08,0,0,0,.42-.77h.89a1.71,1.71,0,0,1-.33.9,2.16,2.16,0,0,1-.8.68,2.32,2.32,0,0,1-1.06.26,2.27,2.27,0,0,1-1.79-.75,3,3,0,0,1-.67-2.06V85a3.33,3.33,0,0,1,.3-1.43,2.25,2.25,0,0,1,.85-1,2.41,2.41,0,0,1,1.31-.35,2.22,2.22,0,0,1,1.54.56,2,2,0,0,1,.66,1.44h-.89a1.3,1.3,0,0,0-.41-.88,1.26,1.26,0,0,0-.9-.34,1.32,1.32,0,0,0-1.12.52,2.43,2.43,0,0,0-.4,1.5v.18a2.38,2.38,0,0,0,.39,1.47A1.33,1.33,0,0,0,208.06,87.25Z"/><path class="cls-7" d="M213.12,86.53l1.29-4.14h1l-2.22,6.38q-.52,1.38-1.64,1.38l-.18,0-.35-.07V89.3l.26,0a1.26,1.26,0,0,0,.75-.19,1.4,1.4,0,0,0,.44-.71l.21-.56-2-5.46h1Z"/><path class="cls-7" d="M220.61,85.14h-2.49v-.77h2.49Z"/><path class="cls-7" d="M227.33,86.45a.7.7,0,0,0-.29-.59,2.78,2.78,0,0,0-1-.37,4.76,4.76,0,0,1-1.14-.37,1.62,1.62,0,0,1-.62-.51,1.22,1.22,0,0,1-.2-.7,1.43,1.43,0,0,1,.57-1.15,2.24,2.24,0,0,1,1.47-.47,2.31,2.31,0,0,1,1.52.49,1.54,1.54,0,0,1,.58,1.24h-.95a.85.85,0,0,0-.33-.67,1.23,1.23,0,0,0-.83-.28,1.29,1.29,0,0,0-.81.22.71.71,0,0,0-.29.59.57.57,0,0,0,.27.52,3.33,3.33,0,0,0,1,.33,5.09,5.09,0,0,1,1.15.38,1.67,1.67,0,0,1,.65.53,1.3,1.3,0,0,1,.21.75,1.41,1.41,0,0,1-.59,1.19,2.48,2.48,0,0,1-1.54.45,2.79,2.79,0,0,1-1.17-.23,1.91,1.91,0,0,1-.8-.66,1.58,1.58,0,0,1-.29-.91h.94a1,1,0,0,0,.38.75,1.47,1.47,0,0,0,.94.28A1.52,1.52,0,0,0,227,87,.67.67,0,0,0,227.33,86.45Z"/><path class="cls-7" d="M231.8,88a2.41,2.41,0,0,1-1.83-.74,2.74,2.74,0,0,1-.7-2v-.17a3.31,3.31,0,0,1,.31-1.47,2.45,2.45,0,0,1,.88-1,2.21,2.21,0,0,1,1.22-.37,2.07,2.07,0,0,1,1.67.71,3.07,3.07,0,0,1,.6,2v.39h-3.74a2,2,0,0,0,.48,1.32,1.5,1.5,0,0,0,1.16.5,1.65,1.65,0,0,0,.85-.2,2.12,2.12,0,0,0,.61-.54l.58.45A2.32,2.32,0,0,1,231.8,88Zm-.12-5a1.26,1.26,0,0,0-1,.42,2,2,0,0,0-.48,1.17H233v-.07a1.8,1.8,0,0,0-.39-1.12A1.19,1.19,0,0,0,231.68,83.06Z"/><path class="cls-7" d="M237.72,83.24a2.86,2.86,0,0,0-.46,0A1.24,1.24,0,0,0,236,84v3.92H235V82.39H236l0,.64a1.47,1.47,0,0,1,1.32-.74,1,1,0,0,1,.42.07Z"/><path class="cls-7" d="M240.5,86.63l1.37-4.24h1l-2,5.52h-.72l-2-5.52h1Z"/><path class="cls-7" d="M243.74,80.93a.56.56,0,0,1,.14-.39.53.53,0,0,1,.42-.16.54.54,0,0,1,.42.16.56.56,0,0,1,.14.39.56.56,0,1,1-1.12,0Zm1,7h-.94V82.39h.94Z"/><path class="cls-7" d="M248.49,87.25a1.36,1.36,0,0,0,.88-.31,1.08,1.08,0,0,0,.42-.77h.89a1.71,1.71,0,0,1-.33.9,2.16,2.16,0,0,1-.8.68,2.32,2.32,0,0,1-1.06.26,2.27,2.27,0,0,1-1.79-.75A3,3,0,0,1,246,85.2V85a3.33,3.33,0,0,1,.3-1.43,2.25,2.25,0,0,1,.85-1,2.41,2.41,0,0,1,1.31-.35,2.22,2.22,0,0,1,1.54.56,2,2,0,0,1,.66,1.44h-.89a1.3,1.3,0,0,0-.41-.88,1.26,1.26,0,0,0-.9-.34,1.32,1.32,0,0,0-1.12.52,2.43,2.43,0,0,0-.4,1.5v.18a2.38,2.38,0,0,0,.39,1.47A1.33,1.33,0,0,0,248.49,87.25Z"/><path class="cls-7" d="M254,88a2.41,2.41,0,0,1-1.83-.74,2.74,2.74,0,0,1-.7-2v-.17a3.31,3.31,0,0,1,.31-1.47,2.45,2.45,0,0,1,.88-1,2.21,2.21,0,0,1,1.22-.37,2.07,2.07,0,0,1,1.67.71,3.07,3.07,0,0,1,.6,2v.39h-3.74a2,2,0,0,0,.48,1.32,1.5,1.5,0,0,0,1.16.5,1.65,1.65,0,0,0,.85-.2,2.12,2.12,0,0,0,.61-.54l.58.45A2.32,2.32,0,0,1,254,88Zm-.12-5a1.26,1.26,0,0,0-1,.42,2,2,0,0,0-.48,1.17h2.77v-.07a1.8,1.8,0,0,0-.39-1.12A1.19,1.19,0,0,0,253.93,83.06Z"/><path class="cls-7" d="M259.65,85.11a3.24,3.24,0,0,1,.6-2,2,2,0,0,1,3.11-.11V80.07h.94v7.84h-.87l0-.59a1.92,1.92,0,0,1-1.58.69,1.89,1.89,0,0,1-1.56-.79,3.27,3.27,0,0,1-.61-2.05Zm.94.11a2.45,2.45,0,0,0,.39,1.47,1.25,1.25,0,0,0,1.07.53,1.38,1.38,0,0,0,1.31-.81V83.87a1.39,1.39,0,0,0-1.3-.78,1.26,1.26,0,0,0-1.08.54A2.7,2.7,0,0,0,260.59,85.21Z"/><path class="cls-7" d="M265.78,80.93a.56.56,0,0,1,.14-.39.53.53,0,0,1,.42-.16.54.54,0,0,1,.42.16.56.56,0,0,1,.14.39.56.56,0,1,1-1.12,0Zm1,7h-.94V82.39h.94Z"/><path class="cls-7" d="M271.53,86.45a.7.7,0,0,0-.29-.59,2.78,2.78,0,0,0-1-.37,4.76,4.76,0,0,1-1.14-.37,1.62,1.62,0,0,1-.62-.51,1.22,1.22,0,0,1-.2-.7,1.43,1.43,0,0,1,.57-1.15,2.24,2.24,0,0,1,1.47-.47,2.31,2.31,0,0,1,1.52.49,1.54,1.54,0,0,1,.58,1.24h-.95a.85.85,0,0,0-.33-.67,1.23,1.23,0,0,0-.83-.28,1.29,1.29,0,0,0-.81.22.71.71,0,0,0-.29.59.57.57,0,0,0,.27.52,3.33,3.33,0,0,0,1,.33,5.09,5.09,0,0,1,1.15.38,1.67,1.67,0,0,1,.65.53,1.3,1.3,0,0,1,.21.75,1.41,1.41,0,0,1-.59,1.19,2.48,2.48,0,0,1-1.54.45,2.79,2.79,0,0,1-1.17-.23,1.91,1.91,0,0,1-.8-.66,1.58,1.58,0,0,1-.29-.91H269a1,1,0,0,0,.38.75,1.47,1.47,0,0,0,.94.28,1.52,1.52,0,0,0,.86-.22A.67.67,0,0,0,271.53,86.45Z"/><path class="cls-7" d="M278.37,85.21a3.31,3.31,0,0,1-.58,2,1.85,1.85,0,0,1-1.56.77,2,2,0,0,1-1.58-.64V90h-.94V82.39h.86l0,.61a2,2,0,0,1,1.6-.71,1.88,1.88,0,0,1,1.58.75,3.35,3.35,0,0,1,.58,2.09Zm-.94-.11a2.44,2.44,0,0,0-.4-1.48,1.28,1.28,0,0,0-1.09-.54,1.39,1.39,0,0,0-1.29.76v2.64a1.39,1.39,0,0,0,1.3.76,1.28,1.28,0,0,0,1.08-.54A2.66,2.66,0,0,0,277.43,85.11Z"/><path class="cls-7" d="M283,87.37a2,2,0,0,1-1.62.65A1.72,1.72,0,0,1,280,87.5a2.22,2.22,0,0,1-.47-1.52V82.39h.94V86q0,1.26,1,1.26a1.41,1.41,0,0,0,1.44-.81v-4h.94v5.52H283Z"/><path class="cls-7" d="M288,83.24a2.86,2.86,0,0,0-.46,0,1.24,1.24,0,0,0-1.26.79v3.92h-.94V82.39h.92l0,.64a1.47,1.47,0,0,1,1.32-.74,1,1,0,0,1,.42.07Z"/><path class="cls-7" d="M290.41,81.05v1.34h1v.73h-1v3.43a.77.77,0,0,0,.14.5.58.58,0,0,0,.47.17,2.29,2.29,0,0,0,.45-.06v.76a2.75,2.75,0,0,1-.72.1,1.18,1.18,0,0,1-1-.38,1.65,1.65,0,0,1-.32-1.09V83.12h-1v-.73h1V81.05Z"/><path class="cls-7" d="M292.55,80.93a.56.56,0,0,1,.14-.39.53.53,0,0,1,.42-.16.54.54,0,0,1,.42.16.56.56,0,0,1,.14.39.56.56,0,1,1-1.12,0Zm1,7h-.94V82.39h.94Z"/><path class="cls-7" d="M294.83,85.1a3.27,3.27,0,0,1,.32-1.46,2.38,2.38,0,0,1,.89-1,2.42,2.42,0,0,1,1.3-.35,2.33,2.33,0,0,1,1.83.78,3,3,0,0,1,.7,2.08v.07a3.29,3.29,0,0,1-.31,1.45,2.35,2.35,0,0,1-.88,1,2.45,2.45,0,0,1-1.32.36,2.32,2.32,0,0,1-1.82-.78,3,3,0,0,1-.7-2.07Zm.95.11a2.36,2.36,0,0,0,.43,1.48,1.44,1.44,0,0,0,2.28,0,2.58,2.58,0,0,0,.42-1.58,2.36,2.36,0,0,0-.43-1.47,1.37,1.37,0,0,0-1.15-.56,1.36,1.36,0,0,0-1.13.56A2.56,2.56,0,0,0,295.78,85.21Z"/><path class="cls-7" d="M301.94,82.39l0,.69a2,2,0,0,1,1.65-.8q1.75,0,1.77,2v3.65h-.94V84.26a1.27,1.27,0,0,0-.27-.88,1.09,1.09,0,0,0-.83-.29,1.36,1.36,0,0,0-.81.25A1.66,1.66,0,0,0,302,84v3.94H301V82.39Z"/><path class="cls-7" d="M306.83,87.42A.59.59,0,0,1,307,87a.55.55,0,0,1,.44-.16.57.57,0,0,1,.44.16.58.58,0,0,1,.15.41.55.55,0,0,1-.15.39.58.58,0,0,1-.44.16.56.56,0,0,1-.44-.16A.56.56,0,0,1,306.83,87.42Z"/><path class="cls-7" d="M316.41,86h-3.11l-.7,1.95h-1l2.84-7.43h.86l2.84,7.43h-1Zm-2.82-.8h2.53l-1.27-3.48Z"/><path class="cls-7" d="M321.19,87.25a1.36,1.36,0,0,0,.88-.31,1.08,1.08,0,0,0,.42-.77h.89a1.71,1.71,0,0,1-.33.9,2.16,2.16,0,0,1-.8.68,2.32,2.32,0,0,1-1.06.26,2.27,2.27,0,0,1-1.79-.75,3,3,0,0,1-.67-2.06V85a3.33,3.33,0,0,1,.3-1.43,2.25,2.25,0,0,1,.85-1,2.41,2.41,0,0,1,1.31-.35,2.22,2.22,0,0,1,1.54.56,2,2,0,0,1,.66,1.44h-.89a1.3,1.3,0,0,0-.41-.88,1.26,1.26,0,0,0-.9-.34,1.32,1.32,0,0,0-1.12.52,2.43,2.43,0,0,0-.4,1.5v.18a2.38,2.38,0,0,0,.39,1.47A1.33,1.33,0,0,0,321.19,87.25Z"/><path class="cls-7" d="M325.73,81.05v1.34h1v.73h-1v3.43a.77.77,0,0,0,.14.5.58.58,0,0,0,.47.17,2.29,2.29,0,0,0,.45-.06v.76a2.75,2.75,0,0,1-.72.1,1.18,1.18,0,0,1-1-.38,1.65,1.65,0,0,1-.32-1.09V83.12h-1v-.73h1V81.05Z"/><path class="cls-7" d="M327.87,80.93a.56.56,0,0,1,.14-.39.53.53,0,0,1,.42-.16.54.54,0,0,1,.42.16.56.56,0,0,1,.14.39.56.56,0,1,1-1.12,0Zm1,7h-.94V82.39h.94Z"/><path class="cls-7" d="M330.15,85.1a3.27,3.27,0,0,1,.32-1.46,2.38,2.38,0,0,1,.89-1,2.42,2.42,0,0,1,1.3-.35,2.33,2.33,0,0,1,1.83.78,3,3,0,0,1,.7,2.08v.07a3.29,3.29,0,0,1-.31,1.45,2.35,2.35,0,0,1-.88,1,2.45,2.45,0,0,1-1.32.36,2.32,2.32,0,0,1-1.82-.78,3,3,0,0,1-.7-2.07Zm.95.11a2.36,2.36,0,0,0,.43,1.48,1.44,1.44,0,0,0,2.28,0,2.58,2.58,0,0,0,.42-1.58,2.36,2.36,0,0,0-.43-1.47,1.37,1.37,0,0,0-1.15-.56,1.36,1.36,0,0,0-1.13.56A2.56,2.56,0,0,0,331.1,85.21Z"/><path class="cls-7" d="M337.26,82.39l0,.69a2,2,0,0,1,1.65-.8q1.75,0,1.77,2v3.65h-.94V84.26a1.27,1.27,0,0,0-.27-.88,1.09,1.09,0,0,0-.83-.29,1.36,1.36,0,0,0-.81.25,1.66,1.66,0,0,0-.54.64v3.94h-.94V82.39Z"/><path class="cls-7" d="M347.39,83.24a2.86,2.86,0,0,0-.46,0,1.24,1.24,0,0,0-1.26.79v3.92h-.94V82.39h.92l0,.64a1.47,1.47,0,0,1,1.32-.74,1,1,0,0,1,.42.07Z"/><path class="cls-7" d="M350.55,88a2.41,2.41,0,0,1-1.83-.74,2.74,2.74,0,0,1-.7-2v-.17a3.31,3.31,0,0,1,.31-1.47,2.45,2.45,0,0,1,.88-1,2.21,2.21,0,0,1,1.22-.37,2.07,2.07,0,0,1,1.67.71,3.07,3.07,0,0,1,.6,2v.39H349a2,2,0,0,0,.48,1.32,1.5,1.5,0,0,0,1.16.5,1.65,1.65,0,0,0,.85-.2,2.12,2.12,0,0,0,.61-.54l.58.45A2.32,2.32,0,0,1,350.55,88Zm-.12-5a1.26,1.26,0,0,0-1,.42,2,2,0,0,0-.48,1.17h2.77v-.07a1.8,1.8,0,0,0-.39-1.12A1.19,1.19,0,0,0,350.43,83.06Z"/><path class="cls-7" d="M353.57,85.11a3.24,3.24,0,0,1,.6-2.06,2.11,2.11,0,0,1,3.15-.1l0-.56h.87V90h-.94V87.4a2,2,0,0,1-1.52.61,1.91,1.91,0,0,1-1.6-.78,3.32,3.32,0,0,1-.59-2.07Zm.94.11a2.46,2.46,0,0,0,.4,1.49,1.28,1.28,0,0,0,1.08.54,1.41,1.41,0,0,0,1.29-.75V83.79a1.42,1.42,0,0,0-1.28-.73,1.28,1.28,0,0,0-1.09.54A2.68,2.68,0,0,0,354.51,85.21Z"/><path class="cls-7" d="M363.15,87.37a2,2,0,0,1-1.62.65,1.72,1.72,0,0,1-1.35-.51,2.22,2.22,0,0,1-.47-1.52V82.39h.94V86q0,1.26,1,1.26a1.41,1.41,0,0,0,1.44-.81v-4h.94v5.52h-.9Z"/><path class="cls-7" d="M365.51,80.93a.56.56,0,0,1,.14-.39.53.53,0,0,1,.42-.16.54.54,0,0,1,.42.16.56.56,0,0,1,.14.39.56.56,0,1,1-1.12,0Zm1,7h-.94V82.39h.94Z"/><path class="cls-7" d="M370.71,83.24a2.86,2.86,0,0,0-.46,0A1.24,1.24,0,0,0,369,84v3.92H368V82.39H369l0,.64a1.47,1.47,0,0,1,1.32-.74,1,1,0,0,1,.42.07Z"/><path class="cls-7" d="M373.87,88a2.41,2.41,0,0,1-1.83-.74,2.74,2.74,0,0,1-.7-2v-.17a3.31,3.31,0,0,1,.31-1.47,2.45,2.45,0,0,1,.88-1,2.21,2.21,0,0,1,1.22-.37,2.07,2.07,0,0,1,1.67.71,3.07,3.07,0,0,1,.6,2v.39h-3.74a2,2,0,0,0,.48,1.32,1.5,1.5,0,0,0,1.16.5,1.65,1.65,0,0,0,.85-.2,2.12,2.12,0,0,0,.61-.54L376,87A2.32,2.32,0,0,1,373.87,88Zm-.12-5a1.26,1.26,0,0,0-1,.42,2,2,0,0,0-.48,1.17h2.77v-.07a1.8,1.8,0,0,0-.39-1.12A1.19,1.19,0,0,0,373.76,83.06Z"/><path class="cls-7" d="M376.89,85.11a3.24,3.24,0,0,1,.6-2,2,2,0,0,1,3.11-.11V80.07h.94v7.84h-.87l0-.59a1.92,1.92,0,0,1-1.58.69,1.89,1.89,0,0,1-1.56-.79,3.27,3.27,0,0,1-.61-2.05Zm.94.11a2.45,2.45,0,0,0,.39,1.47,1.25,1.25,0,0,0,1.07.53,1.38,1.38,0,0,0,1.31-.81V83.87a1.39,1.39,0,0,0-1.3-.78,1.26,1.26,0,0,0-1.08.54A2.7,2.7,0,0,0,377.84,85.21Z"/><path class="cls-7" d="M386.89,81.05v1.34h1v.73h-1v3.43a.77.77,0,0,0,.14.5.58.58,0,0,0,.47.17,2.29,2.29,0,0,0,.45-.06v.76a2.75,2.75,0,0,1-.72.1,1.18,1.18,0,0,1-1-.38,1.65,1.65,0,0,1-.32-1.09V83.12h-1v-.73h1V81.05Z"/><path class="cls-7" d="M388.67,85.1a3.27,3.27,0,0,1,.32-1.46,2.38,2.38,0,0,1,.89-1,2.42,2.42,0,0,1,1.3-.35,2.33,2.33,0,0,1,1.83.78,3,3,0,0,1,.7,2.08v.07a3.29,3.29,0,0,1-.31,1.45,2.35,2.35,0,0,1-.88,1,2.45,2.45,0,0,1-1.32.36,2.32,2.32,0,0,1-1.82-.78,3,3,0,0,1-.7-2.07Zm.95.11a2.36,2.36,0,0,0,.43,1.48,1.44,1.44,0,0,0,2.28,0,2.58,2.58,0,0,0,.42-1.58,2.36,2.36,0,0,0-.43-1.47,1.37,1.37,0,0,0-1.15-.56,1.36,1.36,0,0,0-1.13.56A2.56,2.56,0,0,0,389.62,85.21Z"/><path class="cls-7" d="M400.14,83.24a2.86,2.86,0,0,0-.46,0,1.24,1.24,0,0,0-1.26.79v3.92h-.94V82.39h.92l0,.64a1.47,1.47,0,0,1,1.32-.74,1,1,0,0,1,.42.07Z"/><path class="cls-7" d="M403.3,88a2.41,2.41,0,0,1-1.83-.74,2.74,2.74,0,0,1-.7-2v-.17a3.31,3.31,0,0,1,.31-1.47,2.45,2.45,0,0,1,.88-1,2.21,2.21,0,0,1,1.22-.37,2.07,2.07,0,0,1,1.67.71,3.07,3.07,0,0,1,.6,2v.39h-3.74a2,2,0,0,0,.48,1.32,1.5,1.5,0,0,0,1.16.5,1.65,1.65,0,0,0,.85-.2,2.12,2.12,0,0,0,.61-.54l.58.45A2.32,2.32,0,0,1,403.3,88Zm-.12-5a1.26,1.26,0,0,0-1,.42,2,2,0,0,0-.48,1.17h2.77v-.07a1.8,1.8,0,0,0-.39-1.12A1.19,1.19,0,0,0,403.18,83.06Z"/><path class="cls-7" d="M409.77,86.45a.7.7,0,0,0-.29-.59,2.78,2.78,0,0,0-1-.37,4.76,4.76,0,0,1-1.14-.37,1.62,1.62,0,0,1-.62-.51,1.22,1.22,0,0,1-.2-.7,1.43,1.43,0,0,1,.57-1.15,2.24,2.24,0,0,1,1.47-.47,2.31,2.31,0,0,1,1.52.49,1.54,1.54,0,0,1,.58,1.24h-.95a.85.85,0,0,0-.33-.67,1.23,1.23,0,0,0-.83-.28,1.29,1.29,0,0,0-.81.22.71.71,0,0,0-.29.59.57.57,0,0,0,.27.52,3.33,3.33,0,0,0,1,.33,5.09,5.09,0,0,1,1.15.38,1.67,1.67,0,0,1,.65.53,1.3,1.3,0,0,1,.21.75,1.41,1.41,0,0,1-.59,1.19,2.48,2.48,0,0,1-1.54.45,2.79,2.79,0,0,1-1.17-.23,1.91,1.91,0,0,1-.8-.66,1.58,1.58,0,0,1-.29-.91h.94a1,1,0,0,0,.38.75,1.47,1.47,0,0,0,.94.28,1.52,1.52,0,0,0,.86-.22A.67.67,0,0,0,409.77,86.45Z"/><path class="cls-7" d="M411.69,85.1a3.27,3.27,0,0,1,.32-1.46,2.38,2.38,0,0,1,.89-1,2.42,2.42,0,0,1,1.3-.35,2.33,2.33,0,0,1,1.83.78,3,3,0,0,1,.7,2.08v.07a3.29,3.29,0,0,1-.31,1.45,2.35,2.35,0,0,1-.88,1,2.45,2.45,0,0,1-1.32.36,2.32,2.32,0,0,1-1.82-.78,3,3,0,0,1-.7-2.07Zm.95.11a2.36,2.36,0,0,0,.43,1.48,1.44,1.44,0,0,0,2.28,0,2.58,2.58,0,0,0,.42-1.58,2.36,2.36,0,0,0-.43-1.47,1.37,1.37,0,0,0-1.15-.56,1.36,1.36,0,0,0-1.13.56A2.56,2.56,0,0,0,412.64,85.21Z"/><path class="cls-7" d="M418.93,87.92H418V80.07h.94Z"/><path class="cls-7" d="M422.26,86.63l1.37-4.24h1l-2,5.52h-.72l-2-5.52h1Z"/><path class="cls-7" d="M427.8,88a2.41,2.41,0,0,1-1.83-.74,2.74,2.74,0,0,1-.7-2v-.17a3.31,3.31,0,0,1,.31-1.47,2.45,2.45,0,0,1,.88-1,2.21,2.21,0,0,1,1.22-.37,2.07,2.07,0,0,1,1.67.71,3.07,3.07,0,0,1,.6,2v.39h-3.74a2,2,0,0,0,.48,1.32,1.5,1.5,0,0,0,1.16.5,1.65,1.65,0,0,0,.85-.2,2.12,2.12,0,0,0,.61-.54l.58.45A2.32,2.32,0,0,1,427.8,88Zm-.12-5a1.26,1.26,0,0,0-1,.42,2,2,0,0,0-.48,1.17H429v-.07a1.8,1.8,0,0,0-.39-1.12A1.19,1.19,0,0,0,427.68,83.06Z"/><path class="cls-7" d="M431.07,87.42a.59.59,0,0,1,.15-.41.55.55,0,0,1,.44-.16.57.57,0,0,1,.44.16.58.58,0,0,1,.15.41.55.55,0,0,1-.15.39.58.58,0,0,1-.44.16.56.56,0,0,1-.44-.16A.56.56,0,0,1,431.07,87.42Z"/><path class="cls-7" d="M441.63,86.3l1.89-5.82h1.42l-2.68,7.43H441l-2.67-7.43h1.41Z"/><path class="cls-7" d="M447.14,87.92h-1.29V80.48h1.29Z"/><path class="cls-7" d="M453.08,84.6H450v2.29h3.57v1h-4.86V80.48h4.82v1H450v2.05h3.05Z"/><path class="cls-7" d="M460.47,86.08l1.14-5.6h1.28l-1.72,7.43h-1.24l-1.41-5.43-1.44,5.43h-1.24l-1.72-7.43h1.28l1.15,5.59L458,80.48h1.08Z"/><path class="cls-7" d="M467.81,87.92h-1.29V80.48h1.29Z"/><path class="cls-7" d="M475.29,87.92H474l-3.31-5.27v5.27H469.4V80.48h1.29L474,85.78V80.48h1.28Z"/><path class="cls-7" d="M482.49,85.5a2.68,2.68,0,0,1-.88,1.86,3,3,0,0,1-2,.67A2.9,2.9,0,0,1,478,87.6a2.76,2.76,0,0,1-1-1.2,4.32,4.32,0,0,1-.38-1.8V83.9A4.35,4.35,0,0,1,477,82,2.81,2.81,0,0,1,478,80.81a3,3,0,0,1,1.61-.43,2.87,2.87,0,0,1,2,.67,2.78,2.78,0,0,1,.87,1.89h-1.29a1.84,1.84,0,0,0-.47-1.16,1.54,1.54,0,0,0-1.1-.35,1.51,1.51,0,0,0-1.29.62,3.08,3.08,0,0,0-.46,1.81v.66a3.26,3.26,0,0,0,.43,1.84,1.43,1.43,0,0,0,1.26.63,1.67,1.67,0,0,0,1.14-.34,1.78,1.78,0,0,0,.49-1.14Z"/><path class="cls-7" d="M485,87.92h-1.29V80.48H485Z"/><path class="cls-7" d="M486.6,87.92V80.48h2.2a3.44,3.44,0,0,1,1.75.44,3,3,0,0,1,1.18,1.25,4,4,0,0,1,.42,1.85v.37a3.94,3.94,0,0,1-.42,1.86,3,3,0,0,1-1.2,1.24,3.6,3.6,0,0,1-1.78.43Zm1.29-6.39v5.36h.84a1.94,1.94,0,0,0,1.56-.64,2.77,2.77,0,0,0,.55-1.83V84a2.84,2.84,0,0,0-.53-1.85,1.86,1.86,0,0,0-1.53-.64Z"/><path class="cls-7" d="M497.77,84.6h-3.05v2.29h3.57v1h-4.86V80.48h4.82v1h-3.53v2.05h3.05Z"/><path class="cls-7" d="M505.24,87.92h-1.29l-3.31-5.27v5.27h-1.29V80.48h1.29L504,85.78V80.48h1.28Z"/><path class="cls-7" d="M512.14,81.52h-2.32v6.39h-1.28V81.52h-2.3v-1h5.9Z"/><path class="cls-7" d="M515.41,87.92V80.48h2.2a3.44,3.44,0,0,1,1.75.44,3,3,0,0,1,1.18,1.25A4,4,0,0,1,521,84v.37a3.94,3.94,0,0,1-.42,1.86,3,3,0,0,1-1.2,1.24,3.6,3.6,0,0,1-1.78.43Zm1.29-6.39v5.36h.84a1.94,1.94,0,0,0,1.56-.64,2.77,2.77,0,0,0,.55-1.83V84a2.84,2.84,0,0,0-.53-1.85,1.86,1.86,0,0,0-1.53-.64Z"/><path class="cls-7" d="M526.58,84.6h-3.05v2.29h3.57v1h-4.86V80.48h4.82v1h-3.53v2.05h3.05Z"/><path class="cls-7" d="M532.31,86.18h-2.88l-.6,1.73h-1.34l2.81-7.43h1.16l2.81,7.43h-1.35Zm-2.52-1h2.15l-1.08-3.08Z"/><path class="cls-7" d="M539.87,81.52h-2.32v6.39h-1.28V81.52H534v-1h5.9Z"/><path class="cls-7" d="M542.21,87.92h-1.29V80.48h1.29Z"/><path class="cls-7" d="M545.09,86.88h3.37v1h-4.67V80.48h1.29Z"/><path class="cls-7" d="M553.34,86a.9.9,0,0,0-.34-.76,4.15,4.15,0,0,0-1.24-.54,6,6,0,0,1-1.43-.6,1.91,1.91,0,0,1-1-1.66A1.81,1.81,0,0,1,550,81a3,3,0,0,1,1.9-.58,3.21,3.21,0,0,1,1.38.29,2.27,2.27,0,0,1,1,.81,2.09,2.09,0,0,1,.35,1.17h-1.29a1.17,1.17,0,0,0-.37-.91,1.51,1.51,0,0,0-1-.33,1.57,1.57,0,0,0-1,.27.9.9,0,0,0-.35.76.81.81,0,0,0,.38.68,4.35,4.35,0,0,0,1.25.53,5.71,5.71,0,0,1,1.39.59,2.22,2.22,0,0,1,.77.76,2,2,0,0,1,.25,1,1.77,1.77,0,0,1-.71,1.48A3.09,3.09,0,0,1,552,88a3.63,3.63,0,0,1-1.48-.3,2.49,2.49,0,0,1-1.05-.82,2.05,2.05,0,0,1-.38-1.23h1.29a1.2,1.2,0,0,0,.42,1A1.83,1.83,0,0,0,552,87a1.59,1.59,0,0,0,1-.27A.88.88,0,0,0,553.34,86Z"/><rect class="cls-8" x="125.93" y="5.88" width="494.55" height="30.42"/><rect class="cls-2" x="126.02" y="5.88" width="30.42" height="30.42"/><path class="cls-4" d="M145.39,27.75h-7.45l-3.73-6.52,3.73-6.52h7.45l3.73,6.52Zm-7.09-.62H145l3.37-5.9L145,15.33h-6.73l-3.37,5.9Z"/><g class="cls-5"><path class="cls-6" d="M139.2,24a.7.7,0,0,1,.6-.78H140a.73.73,0,0,1,.56.2.79.79,0,0,1,.19.57.81.81,0,0,1-.2.58.72.72,0,0,1-.56.21.76.76,0,0,1-.57-.2A.79.79,0,0,1,139.2,24Zm1.24-1.24h-.91l-.27-5.59h1.42Z"/><path class="cls-6" d="M142.6,24a.7.7,0,0,1,.6-.78h.17a.73.73,0,0,1,.56.2.79.79,0,0,1,.19.57.81.81,0,0,1-.2.58.72.72,0,0,1-.56.21.76.76,0,0,1-.57-.2A.79.79,0,0,1,142.6,24Zm1.24-1.24h-.91l-.27-5.59h1.42Z"/></g><path class="cls-9" d="M170.19,17.38v5.05a2.37,2.37,0,0,1-.66,1.72,2.66,2.66,0,0,1-1.78.75h-.26a2.78,2.78,0,0,1-1.95-.66,2.36,2.36,0,0,1-.74-1.81V17.38h1v5a1.55,1.55,0,0,0,1.71,1.7,1.72,1.72,0,0,0,1.27-.44,1.7,1.7,0,0,0,.44-1.25v-5Z"/><path class="cls-9" d="M174.25,20.14a2.86,2.86,0,0,0-.46,0,1.24,1.24,0,0,0-1.26.79v3.92h-.94V19.29h.92l0,.64a1.47,1.47,0,0,1,1.32-.74,1,1,0,0,1,.42.07Z"/><path class="cls-9" d="M174.9,22a3.25,3.25,0,0,1,.6-2.05,2.06,2.06,0,0,1,3.16,0l0-.61h.86v5.39a2.25,2.25,0,0,1-.64,1.69,2.35,2.35,0,0,1-1.71.62,2.84,2.84,0,0,1-1.17-.26,2,2,0,0,1-.87-.7l.49-.57a1.85,1.85,0,0,0,1.49.75,1.45,1.45,0,0,0,1.07-.39,1.48,1.48,0,0,0,.39-1.09v-.47a1.94,1.94,0,0,1-1.55.65,1.89,1.89,0,0,1-1.57-.78A3.41,3.41,0,0,1,174.9,22Zm.95.11a2.48,2.48,0,0,0,.38,1.47,1.24,1.24,0,0,0,1.07.53,1.38,1.38,0,0,0,1.31-.81V20.78a1.4,1.4,0,0,0-1.3-.79,1.26,1.26,0,0,0-1.08.54A2.7,2.7,0,0,0,175.85,22.11Z"/><path class="cls-9" d="M183.28,24.92a2.41,2.41,0,0,1-1.83-.74,2.74,2.74,0,0,1-.7-2V22a3.31,3.31,0,0,1,.31-1.47,2.45,2.45,0,0,1,.88-1,2.21,2.21,0,0,1,1.22-.37,2.07,2.07,0,0,1,1.67.71,3.07,3.07,0,0,1,.6,2v.39h-3.74a2,2,0,0,0,.48,1.32,1.5,1.5,0,0,0,1.16.5,1.65,1.65,0,0,0,.85-.2,2.12,2.12,0,0,0,.61-.54l.58.45A2.32,2.32,0,0,1,183.28,24.92Zm-.12-5a1.26,1.26,0,0,0-1,.42,2,2,0,0,0-.48,1.17h2.77v-.07a1.8,1.8,0,0,0-.39-1.12A1.19,1.19,0,0,0,183.16,20Z"/><path class="cls-9" d="M187.42,19.29l0,.69a2,2,0,0,1,1.65-.8q1.75,0,1.77,2v3.65h-.94V21.16a1.27,1.27,0,0,0-.27-.88,1.09,1.09,0,0,0-.83-.29,1.36,1.36,0,0,0-.81.25,1.66,1.66,0,0,0-.54.64v3.94h-.94V19.29Z"/><path class="cls-9" d="M193.58,18v1.34h1V20h-1v3.43a.77.77,0,0,0,.14.5.58.58,0,0,0,.47.17,2.29,2.29,0,0,0,.45-.06v.76a2.75,2.75,0,0,1-.72.1,1.18,1.18,0,0,1-1-.38,1.65,1.65,0,0,1-.32-1.09V20h-1v-.73h1V18Z"/><path class="cls-9" d="M202.86,22h-2.49v-.77h2.49Z"/><path class="cls-9" d="M209.58,23.35a.7.7,0,0,0-.29-.59,2.78,2.78,0,0,0-1-.37,4.76,4.76,0,0,1-1.14-.37,1.62,1.62,0,0,1-.62-.51,1.22,1.22,0,0,1-.2-.7,1.43,1.43,0,0,1,.57-1.15,2.24,2.24,0,0,1,1.47-.47,2.31,2.31,0,0,1,1.52.49,1.54,1.54,0,0,1,.58,1.24h-.95a.85.85,0,0,0-.33-.67,1.23,1.23,0,0,0-.83-.28,1.29,1.29,0,0,0-.81.22.71.71,0,0,0-.29.59.57.57,0,0,0,.27.52,3.33,3.33,0,0,0,1,.33,5.09,5.09,0,0,1,1.15.38,1.67,1.67,0,0,1,.65.53,1.3,1.3,0,0,1,.21.75,1.41,1.41,0,0,1-.59,1.19,2.48,2.48,0,0,1-1.54.45,2.79,2.79,0,0,1-1.17-.23,1.91,1.91,0,0,1-.8-.66,1.58,1.58,0,0,1-.29-.91h.94a1,1,0,0,0,.38.75,1.47,1.47,0,0,0,.94.28,1.52,1.52,0,0,0,.86-.22A.67.67,0,0,0,209.58,23.35Z"/><path class="cls-9" d="M214,24.92a2.41,2.41,0,0,1-1.83-.74,2.74,2.74,0,0,1-.7-2V22a3.31,3.31,0,0,1,.31-1.47,2.45,2.45,0,0,1,.88-1,2.21,2.21,0,0,1,1.22-.37,2.07,2.07,0,0,1,1.67.71,3.07,3.07,0,0,1,.6,2v.39h-3.74a2,2,0,0,0,.48,1.32,1.5,1.5,0,0,0,1.16.5,1.65,1.65,0,0,0,.85-.2,2.12,2.12,0,0,0,.61-.54l.58.45A2.32,2.32,0,0,1,214,24.92Zm-.12-5a1.26,1.26,0,0,0-1,.42,2,2,0,0,0-.48,1.17h2.77v-.07a1.8,1.8,0,0,0-.39-1.12A1.19,1.19,0,0,0,213.93,20Z"/><path class="cls-9" d="M220,20.14a2.86,2.86,0,0,0-.46,0,1.24,1.24,0,0,0-1.26.79v3.92h-.94V19.29h.92l0,.64a1.47,1.47,0,0,1,1.32-.74,1,1,0,0,1,.42.07Z"/><path class="cls-9" d="M222.75,23.53l1.37-4.24h1l-2,5.52h-.72l-2-5.52h1Z"/><path class="cls-9" d="M226,17.82a.56.56,0,0,1,.14-.39.53.53,0,0,1,.42-.16.54.54,0,0,1,.42.16.56.56,0,0,1,.14.39.56.56,0,1,1-1.12,0Zm1,7h-.94V19.29H227Z"/><path class="cls-9" d="M230.74,24.14a1.36,1.36,0,0,0,.88-.31,1.08,1.08,0,0,0,.42-.77h.89a1.71,1.71,0,0,1-.33.9,2.16,2.16,0,0,1-.8.68,2.32,2.32,0,0,1-1.06.26,2.27,2.27,0,0,1-1.79-.75,3,3,0,0,1-.67-2.06v-.16a3.33,3.33,0,0,1,.3-1.43,2.25,2.25,0,0,1,.85-1,2.41,2.41,0,0,1,1.31-.35,2.22,2.22,0,0,1,1.54.56,2,2,0,0,1,.66,1.44H232a1.3,1.3,0,0,0-.41-.88,1.26,1.26,0,0,0-.9-.34,1.32,1.32,0,0,0-1.12.52,2.43,2.43,0,0,0-.4,1.5v.18a2.38,2.38,0,0,0,.39,1.47A1.33,1.33,0,0,0,230.74,24.14Z"/><path class="cls-9" d="M236.29,24.92a2.41,2.41,0,0,1-1.83-.74,2.74,2.74,0,0,1-.7-2V22a3.31,3.31,0,0,1,.31-1.47,2.45,2.45,0,0,1,.88-1,2.21,2.21,0,0,1,1.22-.37,2.07,2.07,0,0,1,1.67.71,3.07,3.07,0,0,1,.6,2v.39H234.7a2,2,0,0,0,.48,1.32,1.5,1.5,0,0,0,1.16.5,1.65,1.65,0,0,0,.85-.2,2.12,2.12,0,0,0,.61-.54l.58.45A2.32,2.32,0,0,1,236.29,24.92Zm-.12-5a1.26,1.26,0,0,0-1,.42,2,2,0,0,0-.48,1.17h2.77v-.07a1.8,1.8,0,0,0-.39-1.12A1.19,1.19,0,0,0,236.17,20Z"/><path class="cls-9" d="M241.9,22a3.24,3.24,0,0,1,.6-2,2,2,0,0,1,3.11-.11V17h.94v7.84h-.87l0-.59a1.92,1.92,0,0,1-1.58.69,1.89,1.89,0,0,1-1.56-.79,3.27,3.27,0,0,1-.61-2.05Zm.94.11a2.45,2.45,0,0,0,.39,1.47,1.25,1.25,0,0,0,1.07.53,1.38,1.38,0,0,0,1.31-.81V20.77a1.39,1.39,0,0,0-1.3-.78,1.26,1.26,0,0,0-1.08.54A2.7,2.7,0,0,0,242.84,22.11Z"/><path class="cls-9" d="M248,17.82a.56.56,0,0,1,.14-.39.53.53,0,0,1,.42-.16.54.54,0,0,1,.42.16.56.56,0,0,1,.14.39.56.56,0,1,1-1.12,0Zm1,7h-.94V19.29h.94Z"/><path class="cls-9" d="M253.78,23.35a.7.7,0,0,0-.29-.59,2.78,2.78,0,0,0-1-.37,4.76,4.76,0,0,1-1.14-.37,1.62,1.62,0,0,1-.62-.51,1.22,1.22,0,0,1-.2-.7,1.43,1.43,0,0,1,.57-1.15,2.24,2.24,0,0,1,1.47-.47,2.31,2.31,0,0,1,1.52.49,1.54,1.54,0,0,1,.58,1.24h-.95a.85.85,0,0,0-.33-.67,1.23,1.23,0,0,0-.83-.28,1.29,1.29,0,0,0-.81.22.71.71,0,0,0-.29.59.57.57,0,0,0,.27.52,3.33,3.33,0,0,0,1,.33,5.09,5.09,0,0,1,1.15.38,1.67,1.67,0,0,1,.65.53,1.3,1.3,0,0,1,.21.75,1.41,1.41,0,0,1-.59,1.19,2.48,2.48,0,0,1-1.54.45,2.79,2.79,0,0,1-1.17-.23,1.91,1.91,0,0,1-.8-.66,1.58,1.58,0,0,1-.29-.91h.94a1,1,0,0,0,.38.75,1.47,1.47,0,0,0,.94.28,1.52,1.52,0,0,0,.86-.22A.67.67,0,0,0,253.78,23.35Z"/><path class="cls-9" d="M260.62,22.11a3.31,3.31,0,0,1-.58,2,1.85,1.85,0,0,1-1.56.77,2,2,0,0,1-1.58-.64v2.66H256V19.29h.86l0,.61a2,2,0,0,1,1.6-.71,1.88,1.88,0,0,1,1.58.75,3.35,3.35,0,0,1,.58,2.09Zm-.94-.11a2.44,2.44,0,0,0-.4-1.48,1.28,1.28,0,0,0-1.09-.54,1.39,1.39,0,0,0-1.29.76v2.64a1.39,1.39,0,0,0,1.3.76,1.28,1.28,0,0,0,1.08-.54A2.66,2.66,0,0,0,259.67,22Z"/><path class="cls-9" d="M265.23,24.27a2,2,0,0,1-1.62.65,1.72,1.72,0,0,1-1.35-.51,2.22,2.22,0,0,1-.47-1.52V19.29h.94v3.57q0,1.26,1,1.26a1.41,1.41,0,0,0,1.44-.81v-4h.94v5.52h-.9Z"/><path class="cls-9" d="M270.25,20.14a2.86,2.86,0,0,0-.46,0,1.24,1.24,0,0,0-1.26.79v3.92h-.94V19.29h.92l0,.64a1.47,1.47,0,0,1,1.32-.74,1,1,0,0,1,.42.07Z"/><path class="cls-9" d="M272.66,18v1.34h1V20h-1v3.43a.77.77,0,0,0,.14.5.58.58,0,0,0,.47.17,2.29,2.29,0,0,0,.45-.06v.76a2.75,2.75,0,0,1-.72.1,1.18,1.18,0,0,1-1-.38,1.65,1.65,0,0,1-.32-1.09V20h-1v-.73h1V18Z"/><path class="cls-9" d="M274.8,17.82a.56.56,0,0,1,.14-.39.53.53,0,0,1,.42-.16.54.54,0,0,1,.42.16.56.56,0,0,1,.14.39.56.56,0,1,1-1.12,0Zm1,7h-.94V19.29h.94Z"/><path class="cls-9" d="M277.08,22a3.27,3.27,0,0,1,.32-1.46,2.38,2.38,0,0,1,.89-1,2.42,2.42,0,0,1,1.3-.35,2.33,2.33,0,0,1,1.83.78,3,3,0,0,1,.7,2.08v.07a3.29,3.29,0,0,1-.31,1.45,2.35,2.35,0,0,1-.88,1,2.45,2.45,0,0,1-1.32.36,2.32,2.32,0,0,1-1.82-.78,3,3,0,0,1-.7-2.07Zm.95.11a2.36,2.36,0,0,0,.43,1.48,1.44,1.44,0,0,0,2.28,0,2.58,2.58,0,0,0,.42-1.58,2.36,2.36,0,0,0-.43-1.47,1.37,1.37,0,0,0-1.15-.56,1.36,1.36,0,0,0-1.13.56A2.56,2.56,0,0,0,278,22.11Z"/><path class="cls-9" d="M284.19,19.29l0,.69a2,2,0,0,1,1.65-.8q1.75,0,1.77,2v3.65h-.94V21.16a1.27,1.27,0,0,0-.27-.88,1.09,1.09,0,0,0-.83-.29,1.36,1.36,0,0,0-.81.25,1.66,1.66,0,0,0-.54.64v3.94h-.94V19.29Z"/><path class="cls-9" d="M289.08,24.32a.59.59,0,0,1,.15-.41.55.55,0,0,1,.44-.16.57.57,0,0,1,.44.16.58.58,0,0,1,.15.41.55.55,0,0,1-.15.39.58.58,0,0,1-.44.16.56.56,0,0,1-.44-.16A.56.56,0,0,1,289.08,24.32Z"/><path class="cls-9" d="M298.66,22.87h-3.11l-.7,1.95h-1l2.84-7.43h.86l2.84,7.43h-1Zm-2.82-.8h2.53l-1.27-3.48Z"/><path class="cls-9" d="M303.44,24.14a1.36,1.36,0,0,0,.88-.31,1.08,1.08,0,0,0,.42-.77h.89a1.71,1.71,0,0,1-.33.9,2.16,2.16,0,0,1-.8.68,2.32,2.32,0,0,1-1.06.26,2.27,2.27,0,0,1-1.79-.75A3,3,0,0,1,301,22.1v-.16a3.33,3.33,0,0,1,.3-1.43,2.25,2.25,0,0,1,.85-1,2.41,2.41,0,0,1,1.31-.35,2.22,2.22,0,0,1,1.54.56,2,2,0,0,1,.66,1.44h-.89a1.3,1.3,0,0,0-.41-.88,1.26,1.26,0,0,0-.9-.34,1.32,1.32,0,0,0-1.12.52,2.43,2.43,0,0,0-.4,1.5v.18a2.38,2.38,0,0,0,.39,1.47A1.33,1.33,0,0,0,303.44,24.14Z"/><path class="cls-9" d="M308,18v1.34h1V20h-1v3.43a.77.77,0,0,0,.14.5.58.58,0,0,0,.47.17,2.29,2.29,0,0,0,.45-.06v.76a2.75,2.75,0,0,1-.72.1,1.18,1.18,0,0,1-1-.38,1.65,1.65,0,0,1-.32-1.09V20h-1v-.73h1V18Z"/><path class="cls-9" d="M310.12,17.82a.56.56,0,0,1,.14-.39.53.53,0,0,1,.42-.16.54.54,0,0,1,.42.16.56.56,0,0,1,.14.39.56.56,0,1,1-1.12,0Zm1,7h-.94V19.29h.94Z"/><path class="cls-9" d="M312.4,22a3.27,3.27,0,0,1,.32-1.46,2.38,2.38,0,0,1,.89-1,2.42,2.42,0,0,1,1.3-.35,2.33,2.33,0,0,1,1.83.78,3,3,0,0,1,.7,2.08v.07a3.29,3.29,0,0,1-.31,1.45,2.35,2.35,0,0,1-.88,1,2.45,2.45,0,0,1-1.32.36,2.32,2.32,0,0,1-1.82-.78,3,3,0,0,1-.7-2.07Zm.95.11a2.36,2.36,0,0,0,.43,1.48,1.44,1.44,0,0,0,2.28,0,2.58,2.58,0,0,0,.42-1.58,2.36,2.36,0,0,0-.43-1.47,1.37,1.37,0,0,0-1.15-.56,1.36,1.36,0,0,0-1.13.56A2.56,2.56,0,0,0,313.35,22.11Z"/><path class="cls-9" d="M319.51,19.29l0,.69a2,2,0,0,1,1.65-.8q1.75,0,1.77,2v3.65H322V21.16a1.27,1.27,0,0,0-.27-.88,1.09,1.09,0,0,0-.83-.29,1.36,1.36,0,0,0-.81.25,1.66,1.66,0,0,0-.54.64v3.94h-.94V19.29Z"/><path class="cls-9" d="M329.64,20.14a2.86,2.86,0,0,0-.46,0,1.24,1.24,0,0,0-1.26.79v3.92H327V19.29h.92l0,.64a1.47,1.47,0,0,1,1.32-.74,1,1,0,0,1,.42.07Z"/><path class="cls-9" d="M332.8,24.92a2.41,2.41,0,0,1-1.83-.74,2.74,2.74,0,0,1-.7-2V22a3.31,3.31,0,0,1,.31-1.47,2.45,2.45,0,0,1,.88-1,2.21,2.21,0,0,1,1.22-.37,2.07,2.07,0,0,1,1.67.71,3.07,3.07,0,0,1,.6,2v.39h-3.74a2,2,0,0,0,.48,1.32,1.5,1.5,0,0,0,1.16.5,1.65,1.65,0,0,0,.85-.2,2.12,2.12,0,0,0,.61-.54l.58.45A2.32,2.32,0,0,1,332.8,24.92Zm-.12-5a1.26,1.26,0,0,0-1,.42,2,2,0,0,0-.48,1.17H334v-.07a1.8,1.8,0,0,0-.39-1.12A1.19,1.19,0,0,0,332.68,20Z"/><path class="cls-9" d="M335.82,22a3.24,3.24,0,0,1,.6-2.06,2.11,2.11,0,0,1,3.15-.1l0-.56h.87v7.65h-.94V24.3a2,2,0,0,1-1.52.61,1.91,1.91,0,0,1-1.6-.78,3.32,3.32,0,0,1-.59-2.07Zm.94.11a2.46,2.46,0,0,0,.4,1.49,1.28,1.28,0,0,0,1.08.54,1.41,1.41,0,0,0,1.29-.75V20.69a1.42,1.42,0,0,0-1.28-.73,1.28,1.28,0,0,0-1.09.54A2.68,2.68,0,0,0,336.76,22.11Z"/><path class="cls-9" d="M345.4,24.27a2,2,0,0,1-1.62.65,1.72,1.72,0,0,1-1.35-.51,2.22,2.22,0,0,1-.47-1.52V19.29h.94v3.57q0,1.26,1,1.26a1.41,1.41,0,0,0,1.44-.81v-4h.94v5.52h-.9Z"/><path class="cls-9" d="M347.76,17.82a.56.56,0,0,1,.14-.39.53.53,0,0,1,.42-.16.54.54,0,0,1,.42.16.56.56,0,0,1,.14.39.56.56,0,1,1-1.12,0Zm1,7h-.94V19.29h.94Z"/><path class="cls-9" d="M353,20.14a2.86,2.86,0,0,0-.46,0,1.24,1.24,0,0,0-1.26.79v3.92h-.94V19.29h.92l0,.64a1.47,1.47,0,0,1,1.32-.74,1,1,0,0,1,.42.07Z"/><path class="cls-9" d="M356.12,24.92a2.41,2.41,0,0,1-1.83-.74,2.74,2.74,0,0,1-.7-2V22a3.31,3.31,0,0,1,.31-1.47,2.45,2.45,0,0,1,.88-1,2.21,2.21,0,0,1,1.22-.37,2.07,2.07,0,0,1,1.67.71,3.07,3.07,0,0,1,.6,2v.39h-3.74a2,2,0,0,0,.48,1.32,1.5,1.5,0,0,0,1.16.5,1.65,1.65,0,0,0,.85-.2,2.12,2.12,0,0,0,.61-.54l.58.45A2.32,2.32,0,0,1,356.12,24.92ZM356,20a1.26,1.26,0,0,0-1,.42,2,2,0,0,0-.48,1.17h2.77v-.07a1.8,1.8,0,0,0-.39-1.12A1.19,1.19,0,0,0,356,20Z"/><path class="cls-9" d="M359.14,22a3.24,3.24,0,0,1,.6-2,2,2,0,0,1,3.11-.11V17h.94v7.84h-.87l0-.59a1.92,1.92,0,0,1-1.58.69,1.89,1.89,0,0,1-1.56-.79,3.27,3.27,0,0,1-.61-2.05Zm.94.11a2.45,2.45,0,0,0,.39,1.47,1.25,1.25,0,0,0,1.07.53,1.38,1.38,0,0,0,1.31-.81V20.77a1.39,1.39,0,0,0-1.3-.78,1.26,1.26,0,0,0-1.08.54A2.7,2.7,0,0,0,360.08,22.11Z"/><path class="cls-9" d="M369.14,18v1.34h1V20h-1v3.43a.77.77,0,0,0,.14.5.58.58,0,0,0,.47.17,2.29,2.29,0,0,0,.45-.06v.76a2.75,2.75,0,0,1-.72.1,1.18,1.18,0,0,1-1-.38,1.65,1.65,0,0,1-.32-1.09V20h-1v-.73h1V18Z"/><path class="cls-9" d="M370.92,22a3.27,3.27,0,0,1,.32-1.46,2.38,2.38,0,0,1,.89-1,2.42,2.42,0,0,1,1.3-.35,2.33,2.33,0,0,1,1.83.78,3,3,0,0,1,.7,2.08v.07a3.29,3.29,0,0,1-.31,1.45,2.35,2.35,0,0,1-.88,1,2.45,2.45,0,0,1-1.32.36,2.32,2.32,0,0,1-1.82-.78,3,3,0,0,1-.7-2.07Zm.95.11a2.36,2.36,0,0,0,.43,1.48,1.44,1.44,0,0,0,2.28,0A2.58,2.58,0,0,0,375,22a2.36,2.36,0,0,0-.43-1.47,1.37,1.37,0,0,0-1.15-.56,1.36,1.36,0,0,0-1.13.56A2.56,2.56,0,0,0,371.87,22.11Z"/><path class="cls-9" d="M382.39,20.14a2.86,2.86,0,0,0-.46,0,1.24,1.24,0,0,0-1.26.79v3.92h-.94V19.29h.92l0,.64a1.47,1.47,0,0,1,1.32-.74,1,1,0,0,1,.42.07Z"/><path class="cls-9" d="M385.55,24.92a2.41,2.41,0,0,1-1.83-.74,2.74,2.74,0,0,1-.7-2V22a3.31,3.31,0,0,1,.31-1.47,2.45,2.45,0,0,1,.88-1,2.21,2.21,0,0,1,1.22-.37,2.07,2.07,0,0,1,1.67.71,3.07,3.07,0,0,1,.6,2v.39H384a2,2,0,0,0,.48,1.32,1.5,1.5,0,0,0,1.16.5,1.65,1.65,0,0,0,.85-.2,2.12,2.12,0,0,0,.61-.54l.58.45A2.32,2.32,0,0,1,385.55,24.92Zm-.12-5a1.26,1.26,0,0,0-1,.42,2,2,0,0,0-.48,1.17h2.77v-.07a1.8,1.8,0,0,0-.39-1.12A1.19,1.19,0,0,0,385.43,20Z"/><path class="cls-9" d="M392,23.35a.7.7,0,0,0-.29-.59,2.78,2.78,0,0,0-1-.37,4.76,4.76,0,0,1-1.14-.37,1.62,1.62,0,0,1-.62-.51,1.22,1.22,0,0,1-.2-.7,1.43,1.43,0,0,1,.57-1.15,2.24,2.24,0,0,1,1.47-.47,2.31,2.31,0,0,1,1.52.49,1.54,1.54,0,0,1,.58,1.24H392a.85.85,0,0,0-.33-.67,1.23,1.23,0,0,0-.83-.28,1.29,1.29,0,0,0-.81.22.71.71,0,0,0-.29.59.57.57,0,0,0,.27.52,3.33,3.33,0,0,0,1,.33,5.09,5.09,0,0,1,1.15.38,1.67,1.67,0,0,1,.65.53,1.3,1.3,0,0,1,.21.75,1.41,1.41,0,0,1-.59,1.19,2.48,2.48,0,0,1-1.54.45,2.79,2.79,0,0,1-1.17-.23,1.91,1.91,0,0,1-.8-.66,1.58,1.58,0,0,1-.29-.91h.94a1,1,0,0,0,.38.75,1.47,1.47,0,0,0,.94.28,1.52,1.52,0,0,0,.86-.22A.67.67,0,0,0,392,23.35Z"/><path class="cls-9" d="M393.94,22a3.27,3.27,0,0,1,.32-1.46,2.38,2.38,0,0,1,.89-1,2.42,2.42,0,0,1,1.3-.35,2.33,2.33,0,0,1,1.83.78A3,3,0,0,1,399,22v.07a3.29,3.29,0,0,1-.31,1.45,2.35,2.35,0,0,1-.88,1,2.45,2.45,0,0,1-1.32.36,2.32,2.32,0,0,1-1.82-.78,3,3,0,0,1-.7-2.07Zm.95.11a2.36,2.36,0,0,0,.43,1.48,1.44,1.44,0,0,0,2.28,0A2.58,2.58,0,0,0,398,22a2.36,2.36,0,0,0-.43-1.47,1.37,1.37,0,0,0-1.15-.56,1.36,1.36,0,0,0-1.13.56A2.56,2.56,0,0,0,394.89,22.11Z"/><path class="cls-9" d="M401.18,24.81h-.94V17h.94Z"/><path class="cls-9" d="M404.51,23.53l1.37-4.24h1l-2,5.52h-.72l-2-5.52h1Z"/><path class="cls-9" d="M410,24.92a2.41,2.41,0,0,1-1.83-.74,2.74,2.74,0,0,1-.7-2V22a3.31,3.31,0,0,1,.31-1.47,2.45,2.45,0,0,1,.88-1,2.21,2.21,0,0,1,1.22-.37,2.07,2.07,0,0,1,1.67.71,3.07,3.07,0,0,1,.6,2v.39h-3.74a2,2,0,0,0,.48,1.32,1.5,1.5,0,0,0,1.16.5,1.65,1.65,0,0,0,.85-.2,2.12,2.12,0,0,0,.61-.54l.58.45A2.32,2.32,0,0,1,410,24.92Zm-.12-5a1.26,1.26,0,0,0-1,.42,2,2,0,0,0-.48,1.17h2.77v-.07a1.8,1.8,0,0,0-.39-1.12A1.19,1.19,0,0,0,409.93,20Z"/><path class="cls-9" d="M413.31,24.32a.59.59,0,0,1,.15-.41.55.55,0,0,1,.44-.16.57.57,0,0,1,.44.16.58.58,0,0,1,.15.41.55.55,0,0,1-.15.39.58.58,0,0,1-.44.16.56.56,0,0,1-.44-.16A.56.56,0,0,1,413.31,24.32Z"/><path class="cls-2" d="M423.88,23.19l1.89-5.82h1.42l-2.68,7.43h-1.25l-2.67-7.43H422Z"/><path class="cls-2" d="M429.39,24.81H428.1V17.38h1.29Z"/><path class="cls-2" d="M435.32,21.49h-3.05v2.29h3.57v1H431V17.38h4.82v1h-3.53v2.05h3.05Z"/><path class="cls-2" d="M442.72,23l1.14-5.6h1.28l-1.72,7.43H442.2l-1.41-5.43-1.44,5.43H438.1l-1.72-7.43h1.28L438.82,23l1.42-5.59h1.08Z"/><path class="cls-2" d="M450.06,24.81h-1.29V17.38h1.29Z"/><path class="cls-2" d="M457.54,24.81h-1.29l-3.31-5.27v5.27h-1.29V17.38h1.29l3.32,5.29V17.38h1.28Z"/><path class="cls-2" d="M464.74,22.39a2.68,2.68,0,0,1-.88,1.86,3,3,0,0,1-2,.67,2.9,2.9,0,0,1-1.56-.42,2.76,2.76,0,0,1-1-1.2,4.32,4.32,0,0,1-.38-1.8V20.8a4.35,4.35,0,0,1,.37-1.85,2.81,2.81,0,0,1,1.07-1.24,3,3,0,0,1,1.61-.43,2.87,2.87,0,0,1,2,.67,2.78,2.78,0,0,1,.87,1.89h-1.29a1.84,1.84,0,0,0-.47-1.16,1.54,1.54,0,0,0-1.1-.35,1.51,1.51,0,0,0-1.29.62,3.08,3.08,0,0,0-.46,1.81v.66a3.26,3.26,0,0,0,.43,1.84,1.43,1.43,0,0,0,1.26.63,1.67,1.67,0,0,0,1.14-.34,1.78,1.78,0,0,0,.49-1.14Z"/><path class="cls-2" d="M467.26,24.81H466V17.38h1.29Z"/><path class="cls-2" d="M468.85,24.81V17.38H471a3.44,3.44,0,0,1,1.75.44A3,3,0,0,1,474,19.06a4,4,0,0,1,.42,1.85v.37a3.94,3.94,0,0,1-.42,1.86,3,3,0,0,1-1.2,1.24,3.6,3.6,0,0,1-1.78.43Zm1.29-6.39v5.36H471a1.94,1.94,0,0,0,1.56-.64,2.77,2.77,0,0,0,.55-1.83v-.41a2.84,2.84,0,0,0-.53-1.85,1.86,1.86,0,0,0-1.53-.64Z"/><path class="cls-2" d="M480,21.49H477v2.29h3.57v1h-4.86V17.38h4.82v1H477v2.05H480Z"/><path class="cls-2" d="M487.49,24.81H486.2l-3.31-5.27v5.27h-1.29V17.38h1.29l3.32,5.29V17.38h1.28Z"/><path class="cls-2" d="M494.38,18.42h-2.32v6.39h-1.28V18.42h-2.3v-1h5.9Z"/><path class="cls-2" d="M497.66,24.81V17.38h2.2a3.44,3.44,0,0,1,1.75.44,3,3,0,0,1,1.18,1.25,4,4,0,0,1,.42,1.85v.37a3.94,3.94,0,0,1-.42,1.86,3,3,0,0,1-1.2,1.24,3.6,3.6,0,0,1-1.78.43Zm1.29-6.39v5.36h.84a1.94,1.94,0,0,0,1.56-.64,2.77,2.77,0,0,0,.55-1.83v-.41a2.84,2.84,0,0,0-.53-1.85,1.86,1.86,0,0,0-1.53-.64Z"/><path class="cls-2" d="M508.83,21.49h-3.05v2.29h3.57v1h-4.86V17.38h4.82v1h-3.53v2.05h3.05Z"/><path class="cls-2" d="M514.56,23.08h-2.88l-.6,1.73h-1.34l2.81-7.43h1.16l2.81,7.43h-1.35ZM512,22h2.15L513.12,19Z"/><path class="cls-2" d="M522.12,18.42H519.8v6.39h-1.28V18.42h-2.3v-1h5.9Z"/><path class="cls-2" d="M524.46,24.81h-1.29V17.38h1.29Z"/><path class="cls-2" d="M527.34,23.78h3.37v1H526V17.38h1.29Z"/><path class="cls-2" d="M535.59,22.9a.9.9,0,0,0-.34-.76,4.15,4.15,0,0,0-1.24-.54,6,6,0,0,1-1.43-.6,1.91,1.91,0,0,1-1-1.66,1.81,1.81,0,0,1,.73-1.48,3,3,0,0,1,1.9-.58,3.21,3.21,0,0,1,1.38.29,2.27,2.27,0,0,1,1,.81,2.09,2.09,0,0,1,.35,1.17h-1.29a1.17,1.17,0,0,0-.37-.91,1.51,1.51,0,0,0-1-.33,1.57,1.57,0,0,0-1,.27.9.9,0,0,0-.35.76.81.81,0,0,0,.38.68,4.35,4.35,0,0,0,1.25.53,5.71,5.71,0,0,1,1.39.59,2.22,2.22,0,0,1,.77.76,2,2,0,0,1,.25,1,1.77,1.77,0,0,1-.71,1.48,3.09,3.09,0,0,1-1.93.55,3.63,3.63,0,0,1-1.48-.3,2.49,2.49,0,0,1-1.05-.82,2.05,2.05,0,0,1-.38-1.23h1.29a1.2,1.2,0,0,0,.42,1,1.83,1.83,0,0,0,1.2.35,1.59,1.59,0,0,0,1-.27A.88.88,0,0,0,535.59,22.9Z"/><rect class="cls-10" x="124.92" y="128.93" width="494.55" height="30.42"/><rect class="cls-11" x="125.01" y="128.93" width="30.42" height="30.42"/><path class="cls-12" d="M169.08,141.24h-2.39v6.63h-1v-6.63h-2.38v-.8h5.75Z"/><path class="cls-12" d="M171,143a2,2,0,0,1,1.63-.77q1.75,0,1.77,2v3.65h-.94v-3.66a1.27,1.27,0,0,0-.27-.88,1.09,1.09,0,0,0-.83-.29,1.36,1.36,0,0,0-.81.25,1.66,1.66,0,0,0-.54.64v3.94H170V140H171Z"/><path class="cls-12" d="M175.79,140.88a.56.56,0,0,1,.14-.39.53.53,0,0,1,.42-.16.54.54,0,0,1,.42.16.56.56,0,0,1,.14.39.56.56,0,1,1-1.12,0Zm1,7h-.94v-5.52h.94Z"/><path class="cls-12" d="M181.54,146.4a.7.7,0,0,0-.29-.59,2.78,2.78,0,0,0-1-.37,4.76,4.76,0,0,1-1.14-.37,1.62,1.62,0,0,1-.62-.51,1.22,1.22,0,0,1-.2-.7,1.43,1.43,0,0,1,.57-1.15,2.24,2.24,0,0,1,1.47-.47,2.31,2.31,0,0,1,1.52.49,1.54,1.54,0,0,1,.58,1.24h-.95a.85.85,0,0,0-.33-.67,1.23,1.23,0,0,0-.83-.28,1.29,1.29,0,0,0-.81.22.71.71,0,0,0-.29.59.57.57,0,0,0,.27.52,3.33,3.33,0,0,0,1,.33,5.09,5.09,0,0,1,1.15.38,1.67,1.67,0,0,1,.65.53,1.3,1.3,0,0,1,.21.75,1.41,1.41,0,0,1-.59,1.19,2.48,2.48,0,0,1-1.54.45,2.79,2.79,0,0,1-1.17-.23,1.91,1.91,0,0,1-.8-.66,1.58,1.58,0,0,1-.29-.91H179a1,1,0,0,0,.38.75,1.47,1.47,0,0,0,.94.28,1.52,1.52,0,0,0,.86-.22A.67.67,0,0,0,181.54,146.4Z"/><path class="cls-12" d="M187.59,141v1.34h1v.73h-1v3.43a.77.77,0,0,0,.14.5.58.58,0,0,0,.47.17,2.29,2.29,0,0,0,.45-.06v.76a2.75,2.75,0,0,1-.72.1,1.18,1.18,0,0,1-1-.38,1.65,1.65,0,0,1-.32-1.09v-3.43h-1v-.73h1V141Z"/><path class="cls-12" d="M189.73,140.88a.56.56,0,0,1,.14-.39.53.53,0,0,1,.42-.16.54.54,0,0,1,.42.16.56.56,0,0,1,.14.39.56.56,0,1,1-1.12,0Zm1,7h-.94v-5.52h.94Z"/><path class="cls-12" d="M194.47,147.2a1.36,1.36,0,0,0,.88-.31,1.08,1.08,0,0,0,.42-.77h.89a1.71,1.71,0,0,1-.33.9,2.16,2.16,0,0,1-.8.68,2.32,2.32,0,0,1-1.06.26,2.27,2.27,0,0,1-1.79-.75,3,3,0,0,1-.67-2.06V145a3.33,3.33,0,0,1,.3-1.43,2.25,2.25,0,0,1,.85-1,2.41,2.41,0,0,1,1.31-.35,2.22,2.22,0,0,1,1.54.56,2,2,0,0,1,.66,1.44h-.89a1.3,1.3,0,0,0-.41-.88,1.26,1.26,0,0,0-.9-.34,1.32,1.32,0,0,0-1.12.52,2.43,2.43,0,0,0-.4,1.5v.18a2.38,2.38,0,0,0,.39,1.47A1.33,1.33,0,0,0,194.47,147.2Z"/><path class="cls-12" d="M199.27,145.31l-.59.62v1.94h-.94V140h.94v4.74l.51-.61,1.72-1.82h1.15l-2.15,2.31,2.4,3.22H201.2Z"/><path class="cls-12" d="M205.32,148a2.41,2.41,0,0,1-1.83-.74,2.74,2.74,0,0,1-.7-2v-.17a3.31,3.31,0,0,1,.31-1.47,2.45,2.45,0,0,1,.88-1,2.21,2.21,0,0,1,1.22-.37,2.07,2.07,0,0,1,1.67.71,3.07,3.07,0,0,1,.6,2v.39h-3.74a2,2,0,0,0,.48,1.32,1.5,1.5,0,0,0,1.16.5,1.65,1.65,0,0,0,.85-.2,2.12,2.12,0,0,0,.61-.54l.58.45A2.32,2.32,0,0,1,205.32,148Zm-.12-5a1.26,1.26,0,0,0-1,.42,2,2,0,0,0-.48,1.17h2.77v-.07a1.8,1.8,0,0,0-.39-1.12A1.19,1.19,0,0,0,205.21,143Z"/><path class="cls-12" d="M209.85,141v1.34h1v.73h-1v3.43a.77.77,0,0,0,.14.5.58.58,0,0,0,.47.17,2.29,2.29,0,0,0,.45-.06v.76a2.75,2.75,0,0,1-.72.1,1.18,1.18,0,0,1-1-.38,1.65,1.65,0,0,1-.32-1.09v-3.43h-1v-.73h1V141Z"/><path class="cls-12" d="M217.25,143.19a2.86,2.86,0,0,0-.46,0,1.24,1.24,0,0,0-1.26.79v3.92h-.94v-5.52h.92l0,.64a1.47,1.47,0,0,1,1.32-.74,1,1,0,0,1,.42.07Z"/><path class="cls-12" d="M220.41,148a2.41,2.41,0,0,1-1.83-.74,2.74,2.74,0,0,1-.7-2v-.17a3.31,3.31,0,0,1,.31-1.47,2.45,2.45,0,0,1,.88-1,2.21,2.21,0,0,1,1.22-.37A2.07,2.07,0,0,1,222,143a3.07,3.07,0,0,1,.6,2v.39h-3.74a2,2,0,0,0,.48,1.32,1.5,1.5,0,0,0,1.16.5,1.65,1.65,0,0,0,.85-.2,2.12,2.12,0,0,0,.61-.54l.58.45A2.32,2.32,0,0,1,220.41,148Zm-.12-5a1.26,1.26,0,0,0-1,.42,2,2,0,0,0-.48,1.17h2.77v-.07a1.8,1.8,0,0,0-.39-1.12A1.19,1.19,0,0,0,220.29,143Z"/><path class="cls-12" d="M223.42,145.06A3.24,3.24,0,0,1,224,143a2.11,2.11,0,0,1,3.15-.1l0-.56h.87V150h-.94v-2.63a2,2,0,0,1-1.52.61,1.91,1.91,0,0,1-1.6-.78,3.32,3.32,0,0,1-.59-2.07Zm.94.11a2.46,2.46,0,0,0,.4,1.49,1.28,1.28,0,0,0,1.08.54,1.41,1.41,0,0,0,1.29-.75v-2.71a1.42,1.42,0,0,0-1.28-.73,1.28,1.28,0,0,0-1.09.54A2.68,2.68,0,0,0,224.37,145.17Z"/><path class="cls-12" d="M233,147.32a2,2,0,0,1-1.62.65,1.72,1.72,0,0,1-1.35-.51,2.22,2.22,0,0,1-.47-1.52v-3.59h.94v3.57q0,1.26,1,1.26a1.41,1.41,0,0,0,1.44-.81v-4h.94v5.52H233Z"/><path class="cls-12" d="M235.36,140.88a.56.56,0,0,1,.14-.39.53.53,0,0,1,.42-.16.54.54,0,0,1,.42.16.56.56,0,0,1,.14.39.56.56,0,1,1-1.12,0Zm1,7h-.94v-5.52h.94Z"/><path class="cls-12" d="M240.57,143.19a2.86,2.86,0,0,0-.46,0,1.24,1.24,0,0,0-1.26.79v3.92h-.94v-5.52h.92l0,.64a1.47,1.47,0,0,1,1.32-.74,1,1,0,0,1,.42.07Z"/><path class="cls-12" d="M243.73,148a2.41,2.41,0,0,1-1.83-.74,2.74,2.74,0,0,1-.7-2v-.17a3.31,3.31,0,0,1,.31-1.47,2.45,2.45,0,0,1,.88-1,2.21,2.21,0,0,1,1.22-.37,2.07,2.07,0,0,1,1.67.71,3.07,3.07,0,0,1,.6,2v.39h-3.74a2,2,0,0,0,.48,1.32,1.5,1.5,0,0,0,1.16.5,1.65,1.65,0,0,0,.85-.2,2.12,2.12,0,0,0,.61-.54l.58.45A2.32,2.32,0,0,1,243.73,148Zm-.12-5a1.26,1.26,0,0,0-1,.42,2,2,0,0,0-.48,1.17h2.77v-.07a1.8,1.8,0,0,0-.39-1.12A1.19,1.19,0,0,0,243.61,143Z"/><path class="cls-12" d="M250.19,146.4a.7.7,0,0,0-.29-.59,2.78,2.78,0,0,0-1-.37,4.76,4.76,0,0,1-1.14-.37,1.62,1.62,0,0,1-.62-.51,1.22,1.22,0,0,1-.2-.7,1.43,1.43,0,0,1,.57-1.15,2.24,2.24,0,0,1,1.47-.47,2.31,2.31,0,0,1,1.52.49,1.54,1.54,0,0,1,.58,1.24h-.95a.85.85,0,0,0-.33-.67A1.23,1.23,0,0,0,249,143a1.29,1.29,0,0,0-.81.22.71.71,0,0,0-.29.59.57.57,0,0,0,.27.52,3.33,3.33,0,0,0,1,.33,5.09,5.09,0,0,1,1.15.38,1.67,1.67,0,0,1,.65.53,1.3,1.3,0,0,1,.21.75,1.41,1.41,0,0,1-.59,1.19A2.48,2.48,0,0,1,249,148a2.79,2.79,0,0,1-1.17-.23,1.91,1.91,0,0,1-.8-.66,1.58,1.58,0,0,1-.29-.91h.94a1,1,0,0,0,.38.75,1.47,1.47,0,0,0,.94.28,1.52,1.52,0,0,0,.86-.22A.67.67,0,0,0,250.19,146.4Z"/><path class="cls-12" d="M258.37,147.87a2,2,0,0,1-.13-.58,2.11,2.11,0,0,1-1.57.68,2,2,0,0,1-1.34-.46,1.49,1.49,0,0,1-.52-1.17,1.56,1.56,0,0,1,.66-1.34,3.09,3.09,0,0,1,1.85-.48h.92v-.43a1.06,1.06,0,0,0-.3-.79A1.19,1.19,0,0,0,257,143a1.38,1.38,0,0,0-.85.26.75.75,0,0,0-.34.62h-.95a1.3,1.3,0,0,1,.29-.8,2,2,0,0,1,.8-.61,2.68,2.68,0,0,1,1.11-.22,2.18,2.18,0,0,1,1.5.48,1.72,1.72,0,0,1,.56,1.31v2.54a3.1,3.1,0,0,0,.19,1.21v.08Zm-1.57-.72a1.66,1.66,0,0,0,.84-.23,1.39,1.39,0,0,0,.58-.6v-1.13h-.74q-1.74,0-1.74,1a.86.86,0,0,0,.3.69A1.14,1.14,0,0,0,256.8,147.15Z"/><path class="cls-12" d="M265.9,143.19a2.86,2.86,0,0,0-.46,0,1.24,1.24,0,0,0-1.26.79v3.92h-.94v-5.52h.92l0,.64a1.47,1.47,0,0,1,1.32-.74,1,1,0,0,1,.42.07Z"/><path class="cls-12" d="M269.06,148a2.41,2.41,0,0,1-1.83-.74,2.74,2.74,0,0,1-.7-2v-.17a3.31,3.31,0,0,1,.31-1.47,2.45,2.45,0,0,1,.88-1,2.21,2.21,0,0,1,1.22-.37,2.07,2.07,0,0,1,1.67.71,3.07,3.07,0,0,1,.6,2v.39h-3.74a2,2,0,0,0,.48,1.32,1.5,1.5,0,0,0,1.16.5,1.65,1.65,0,0,0,.85-.2,2.12,2.12,0,0,0,.61-.54l.58.45A2.32,2.32,0,0,1,269.06,148Zm-.12-5a1.26,1.26,0,0,0-1,.42,2,2,0,0,0-.48,1.17h2.77v-.07a1.8,1.8,0,0,0-.39-1.12A1.19,1.19,0,0,0,268.94,143Z"/><path class="cls-12" d="M275.52,146.4a.7.7,0,0,0-.29-.59,2.78,2.78,0,0,0-1-.37,4.76,4.76,0,0,1-1.14-.37,1.62,1.62,0,0,1-.62-.51,1.22,1.22,0,0,1-.2-.7,1.43,1.43,0,0,1,.57-1.15,2.24,2.24,0,0,1,1.47-.47,2.31,2.31,0,0,1,1.52.49,1.54,1.54,0,0,1,.58,1.24h-.95a.85.85,0,0,0-.33-.67,1.23,1.23,0,0,0-.83-.28,1.29,1.29,0,0,0-.81.22.71.71,0,0,0-.29.59.57.57,0,0,0,.27.52,3.33,3.33,0,0,0,1,.33,5.09,5.09,0,0,1,1.15.38,1.67,1.67,0,0,1,.65.53,1.3,1.3,0,0,1,.21.75,1.41,1.41,0,0,1-.59,1.19,2.48,2.48,0,0,1-1.54.45,2.79,2.79,0,0,1-1.17-.23,1.91,1.91,0,0,1-.8-.66,1.58,1.58,0,0,1-.29-.91H273a1,1,0,0,0,.38.75,1.47,1.47,0,0,0,.94.28,1.52,1.52,0,0,0,.86-.22A.67.67,0,0,0,275.52,146.4Z"/><path class="cls-12" d="M282.37,145.17a3.31,3.31,0,0,1-.58,2,1.85,1.85,0,0,1-1.56.77,2,2,0,0,1-1.58-.64V150h-.94v-7.65h.86l0,.61a2,2,0,0,1,1.6-.71,1.88,1.88,0,0,1,1.58.75,3.35,3.35,0,0,1,.58,2.09Zm-.94-.11a2.44,2.44,0,0,0-.4-1.48,1.28,1.28,0,0,0-1.09-.54,1.39,1.39,0,0,0-1.29.76v2.64a1.39,1.39,0,0,0,1.3.76,1.28,1.28,0,0,0,1.08-.54A2.66,2.66,0,0,0,281.42,145.06Z"/><path class="cls-12" d="M283.32,145.06a3.27,3.27,0,0,1,.32-1.46,2.38,2.38,0,0,1,.89-1,2.42,2.42,0,0,1,1.3-.35,2.33,2.33,0,0,1,1.83.78,3,3,0,0,1,.7,2.08v.07a3.29,3.29,0,0,1-.31,1.45,2.35,2.35,0,0,1-.88,1,2.45,2.45,0,0,1-1.32.36,2.32,2.32,0,0,1-1.82-.78,3,3,0,0,1-.7-2.07Zm.95.11a2.36,2.36,0,0,0,.43,1.48,1.44,1.44,0,0,0,2.28,0,2.58,2.58,0,0,0,.42-1.58,2.36,2.36,0,0,0-.43-1.47,1.37,1.37,0,0,0-1.15-.56,1.36,1.36,0,0,0-1.13.56A2.56,2.56,0,0,0,284.27,145.17Z"/><path class="cls-12" d="M290.42,142.34l0,.69a2,2,0,0,1,1.65-.8q1.75,0,1.77,2v3.65h-.94v-3.66a1.27,1.27,0,0,0-.27-.88,1.09,1.09,0,0,0-.83-.29,1.36,1.36,0,0,0-.81.25,1.66,1.66,0,0,0-.54.64v3.94h-.94v-5.52Z"/><path class="cls-12" d="M298.51,146.4a.7.7,0,0,0-.29-.59,2.78,2.78,0,0,0-1-.37,4.76,4.76,0,0,1-1.14-.37,1.62,1.62,0,0,1-.62-.51,1.22,1.22,0,0,1-.2-.7,1.43,1.43,0,0,1,.57-1.15,2.24,2.24,0,0,1,1.47-.47,2.31,2.31,0,0,1,1.52.49,1.54,1.54,0,0,1,.58,1.24h-.95a.85.85,0,0,0-.33-.67,1.23,1.23,0,0,0-.83-.28,1.29,1.29,0,0,0-.81.22.71.71,0,0,0-.29.59.57.57,0,0,0,.27.52,3.33,3.33,0,0,0,1,.33,5.09,5.09,0,0,1,1.15.38,1.67,1.67,0,0,1,.65.53,1.3,1.3,0,0,1,.21.75,1.41,1.41,0,0,1-.59,1.19,2.48,2.48,0,0,1-1.54.45,2.79,2.79,0,0,1-1.17-.23,1.91,1.91,0,0,1-.8-.66,1.58,1.58,0,0,1-.29-.91H296a1,1,0,0,0,.38.75,1.47,1.47,0,0,0,.94.28,1.52,1.52,0,0,0,.86-.22A.67.67,0,0,0,298.51,146.4Z"/><path class="cls-12" d="M303,148a2.41,2.41,0,0,1-1.83-.74,2.74,2.74,0,0,1-.7-2v-.17a3.31,3.31,0,0,1,.31-1.47,2.45,2.45,0,0,1,.88-1,2.21,2.21,0,0,1,1.22-.37,2.07,2.07,0,0,1,1.67.71,3.07,3.07,0,0,1,.6,2v.39h-3.74a2,2,0,0,0,.48,1.32,1.5,1.5,0,0,0,1.16.5,1.65,1.65,0,0,0,.85-.2,2.12,2.12,0,0,0,.61-.54l.58.45A2.32,2.32,0,0,1,303,148Zm-.12-5a1.26,1.26,0,0,0-1,.42,2,2,0,0,0-.48,1.17h2.77v-.07a1.8,1.8,0,0,0-.39-1.12A1.19,1.19,0,0,0,302.86,143Z"/><path class="cls-12" d="M309.28,147.87v-4.79h-.87v-.73h.87v-.57a1.88,1.88,0,0,1,.47-1.37,1.79,1.79,0,0,1,1.34-.49,2.5,2.5,0,0,1,.65.09l-.05.76a2.71,2.71,0,0,0-.51,0,.92.92,0,0,0-.71.27,1.09,1.09,0,0,0-.25.77v.58h1.18v.73h-1.18v4.79Z"/><path class="cls-12" d="M315.12,143.19a2.86,2.86,0,0,0-.46,0,1.24,1.24,0,0,0-1.26.79v3.92h-.94v-5.52h.92l0,.64a1.47,1.47,0,0,1,1.32-.74,1,1,0,0,1,.42.07Z"/><path class="cls-12" d="M315.63,145.06a3.27,3.27,0,0,1,.32-1.46,2.38,2.38,0,0,1,.89-1,2.42,2.42,0,0,1,1.3-.35A2.33,2.33,0,0,1,320,143a3,3,0,0,1,.7,2.08v.07a3.29,3.29,0,0,1-.31,1.45,2.35,2.35,0,0,1-.88,1,2.45,2.45,0,0,1-1.32.36,2.32,2.32,0,0,1-1.82-.78,3,3,0,0,1-.7-2.07Zm.95.11a2.36,2.36,0,0,0,.43,1.48,1.44,1.44,0,0,0,2.28,0,2.58,2.58,0,0,0,.42-1.58,2.36,2.36,0,0,0-.43-1.47,1.37,1.37,0,0,0-1.15-.56,1.36,1.36,0,0,0-1.13.56A2.56,2.56,0,0,0,316.58,145.17Z"/><path class="cls-12" d="M322.74,142.34l0,.61a2,2,0,0,1,1.64-.71,1.58,1.58,0,0,1,1.58.89,2.09,2.09,0,0,1,.72-.64,2.12,2.12,0,0,1,1-.25q1.82,0,1.85,1.92v3.7h-.94v-3.65a1.27,1.27,0,0,0-.27-.89,1.19,1.19,0,0,0-.91-.29,1.25,1.25,0,0,0-.87.31,1.27,1.27,0,0,0-.4.84v3.67h-.95v-3.62a1.05,1.05,0,0,0-1.18-1.2,1.26,1.26,0,0,0-1.27.79v4h-.94v-5.52Z"/><path class="cls-12" d="M335.41,146.48l1.29-4.14h1l-2.22,6.38q-.52,1.38-1.64,1.38l-.18,0-.35-.07v-.77l.26,0a1.26,1.26,0,0,0,.75-.19,1.4,1.4,0,0,0,.44-.71l.21-.56-2-5.46h1Z"/><path class="cls-12" d="M338.3,145.06a3.27,3.27,0,0,1,.32-1.46,2.38,2.38,0,0,1,.89-1,2.42,2.42,0,0,1,1.3-.35,2.33,2.33,0,0,1,1.83.78,3,3,0,0,1,.7,2.08v.07a3.29,3.29,0,0,1-.31,1.45,2.35,2.35,0,0,1-.88,1,2.45,2.45,0,0,1-1.32.36,2.32,2.32,0,0,1-1.82-.78,3,3,0,0,1-.7-2.07Zm.95.11a2.36,2.36,0,0,0,.43,1.48,1.44,1.44,0,0,0,2.28,0,2.58,2.58,0,0,0,.42-1.58,2.36,2.36,0,0,0-.43-1.47,1.37,1.37,0,0,0-1.15-.56,1.36,1.36,0,0,0-1.13.56A2.56,2.56,0,0,0,339.25,145.17Z"/><path class="cls-12" d="M347.92,147.32a2,2,0,0,1-1.62.65,1.72,1.72,0,0,1-1.35-.51,2.22,2.22,0,0,1-.47-1.52v-3.59h.94v3.57q0,1.26,1,1.26a1.41,1.41,0,0,0,1.44-.81v-4h.94v5.52h-.9Z"/><path class="cls-12" d="M354.14,141v1.34h1v.73h-1v3.43a.77.77,0,0,0,.14.5.58.58,0,0,0,.47.17,2.29,2.29,0,0,0,.45-.06v.76a2.75,2.75,0,0,1-.72.1,1.18,1.18,0,0,1-1-.38,1.65,1.65,0,0,1-.32-1.09v-3.43h-1v-.73h1V141Z"/><path class="cls-12" d="M355.93,145.06a3.27,3.27,0,0,1,.32-1.46,2.38,2.38,0,0,1,.89-1,2.42,2.42,0,0,1,1.3-.35,2.33,2.33,0,0,1,1.83.78,3,3,0,0,1,.7,2.08v.07a3.29,3.29,0,0,1-.31,1.45,2.35,2.35,0,0,1-.88,1,2.45,2.45,0,0,1-1.32.36,2.32,2.32,0,0,1-1.82-.78,3,3,0,0,1-.7-2.07Zm.95.11a2.36,2.36,0,0,0,.43,1.48,1.44,1.44,0,0,0,2.28,0,2.58,2.58,0,0,0,.42-1.58,2.36,2.36,0,0,0-.43-1.47,1.37,1.37,0,0,0-1.15-.56,1.36,1.36,0,0,0-1.13.56A2.56,2.56,0,0,0,356.88,145.17Z"/><path class="cls-12" d="M365.62,142.34l0,.61a2,2,0,0,1,1.64-.71,1.58,1.58,0,0,1,1.58.89,2.09,2.09,0,0,1,.72-.64,2.12,2.12,0,0,1,1-.25q1.82,0,1.85,1.92v3.7h-.94v-3.65a1.27,1.27,0,0,0-.27-.89,1.19,1.19,0,0,0-.91-.29,1.25,1.25,0,0,0-.87.31,1.27,1.27,0,0,0-.4.84v3.67h-.95v-3.62a1.05,1.05,0,0,0-1.18-1.2,1.26,1.26,0,0,0-1.27.79v4h-.94v-5.52Z"/><path class="cls-12" d="M373.64,145.06a3.27,3.27,0,0,1,.32-1.46,2.38,2.38,0,0,1,.89-1,2.42,2.42,0,0,1,1.3-.35A2.33,2.33,0,0,1,378,143a3,3,0,0,1,.7,2.08v.07a3.29,3.29,0,0,1-.31,1.45,2.35,2.35,0,0,1-.88,1,2.45,2.45,0,0,1-1.32.36,2.32,2.32,0,0,1-1.82-.78,3,3,0,0,1-.7-2.07Zm.95.11a2.36,2.36,0,0,0,.43,1.48,1.44,1.44,0,0,0,2.28,0,2.58,2.58,0,0,0,.42-1.58,2.36,2.36,0,0,0-.43-1.47,1.37,1.37,0,0,0-1.15-.56,1.36,1.36,0,0,0-1.13.56A2.56,2.56,0,0,0,374.59,145.17Z"/><path class="cls-12" d="M381.6,146.59l1.37-4.24h1l-2,5.52h-.72l-2-5.52h1Z"/><path class="cls-12" d="M387.14,148a2.41,2.41,0,0,1-1.83-.74,2.74,2.74,0,0,1-.7-2v-.17a3.31,3.31,0,0,1,.31-1.47,2.45,2.45,0,0,1,.88-1,2.21,2.21,0,0,1,1.22-.37,2.07,2.07,0,0,1,1.67.71,3.07,3.07,0,0,1,.6,2v.39h-3.74a2,2,0,0,0,.48,1.32,1.5,1.5,0,0,0,1.16.5,1.65,1.65,0,0,0,.85-.2,2.12,2.12,0,0,0,.61-.54l.58.45A2.32,2.32,0,0,1,387.14,148Zm-.12-5a1.26,1.26,0,0,0-1,.42,2,2,0,0,0-.48,1.17h2.77v-.07a1.8,1.8,0,0,0-.39-1.12A1.19,1.19,0,0,0,387,143Z"/><path class="cls-12" d="M393.44,147.87v-4.79h-.87v-.73h.87v-.57a1.88,1.88,0,0,1,.47-1.37,1.79,1.79,0,0,1,1.34-.49,2.5,2.5,0,0,1,.65.09l-.05.76a2.71,2.71,0,0,0-.51,0,.92.92,0,0,0-.71.27,1.09,1.09,0,0,0-.25.77v.58h1.18v.73h-1.18v4.79Z"/><path class="cls-12" d="M396.35,145.06a3.27,3.27,0,0,1,.32-1.46,2.38,2.38,0,0,1,.89-1,2.42,2.42,0,0,1,1.3-.35,2.33,2.33,0,0,1,1.83.78,3,3,0,0,1,.7,2.08v.07a3.29,3.29,0,0,1-.31,1.45,2.35,2.35,0,0,1-.88,1,2.45,2.45,0,0,1-1.32.36,2.32,2.32,0,0,1-1.82-.78,3,3,0,0,1-.7-2.07Zm.95.11a2.36,2.36,0,0,0,.43,1.48,1.44,1.44,0,0,0,2.28,0,2.58,2.58,0,0,0,.42-1.58,2.36,2.36,0,0,0-.43-1.47,1.37,1.37,0,0,0-1.15-.56,1.36,1.36,0,0,0-1.13.56A2.56,2.56,0,0,0,397.3,145.17Z"/><path class="cls-12" d="M405.23,143.19a2.86,2.86,0,0,0-.46,0,1.24,1.24,0,0,0-1.26.79v3.92h-.94v-5.52h.92l0,.64a1.47,1.47,0,0,1,1.32-.74,1,1,0,0,1,.42.07Z"/><path class="cls-12" d="M411.08,146.57l1.06-4.22h.94l-1.61,5.52h-.77l-1.34-4.19-1.31,4.19h-.77l-1.6-5.52h.94l1.09,4.14,1.29-4.14h.76Z"/><path class="cls-12" d="M417.46,147.87a2,2,0,0,1-.13-.58,2.11,2.11,0,0,1-1.57.68,2,2,0,0,1-1.34-.46,1.49,1.49,0,0,1-.52-1.17,1.56,1.56,0,0,1,.66-1.34,3.09,3.09,0,0,1,1.85-.48h.92v-.43a1.06,1.06,0,0,0-.3-.79,1.19,1.19,0,0,0-.87-.29,1.38,1.38,0,0,0-.85.26.75.75,0,0,0-.34.62H414a1.3,1.3,0,0,1,.29-.8,2,2,0,0,1,.8-.61,2.68,2.68,0,0,1,1.11-.22,2.18,2.18,0,0,1,1.5.48,1.72,1.72,0,0,1,.56,1.31v2.54a3.1,3.1,0,0,0,.19,1.21v.08Zm-1.57-.72a1.66,1.66,0,0,0,.84-.23,1.39,1.39,0,0,0,.58-.6v-1.13h-.74q-1.74,0-1.74,1a.86.86,0,0,0,.3.69A1.14,1.14,0,0,0,415.89,147.15Z"/><path class="cls-12" d="M422.4,143.19a2.86,2.86,0,0,0-.46,0,1.24,1.24,0,0,0-1.26.79v3.92h-.94v-5.52h.92l0,.64a1.47,1.47,0,0,1,1.32-.74,1,1,0,0,1,.42.07Z"/><path class="cls-12" d="M423,145.06a3.24,3.24,0,0,1,.6-2,2,2,0,0,1,3.11-.11V140h.94v7.84h-.87l0-.59a1.92,1.92,0,0,1-1.58.69,1.89,1.89,0,0,1-1.56-.79,3.27,3.27,0,0,1-.61-2.05Zm.94.11a2.45,2.45,0,0,0,.39,1.47,1.25,1.25,0,0,0,1.07.53,1.38,1.38,0,0,0,1.31-.81v-2.54a1.39,1.39,0,0,0-1.3-.78,1.26,1.26,0,0,0-1.08.54A2.7,2.7,0,0,0,424,145.17Z"/><path class="cls-9" d="M429.19,147.37a.59.59,0,0,1,.15-.41.55.55,0,0,1,.44-.16.57.57,0,0,1,.44.16.58.58,0,0,1,.15.41.55.55,0,0,1-.15.39.58.58,0,0,1-.44.16.56.56,0,0,1-.44-.16A.56.56,0,0,1,429.19,147.37Z"/><path class="cls-13" d="M439.87,145h-1.44v2.86h-1.29v-7.43h2.61a3,3,0,0,1,2,.58,2,2,0,0,1,.7,1.67,2.09,2.09,0,0,1-.36,1.25,2.29,2.29,0,0,1-1,.77l1.67,3.1v.07h-1.38Zm-1.44-1h1.33a1.48,1.48,0,0,0,1-.33,1.15,1.15,0,0,0,.37-.9,1.22,1.22,0,0,0-.34-.92,1.44,1.44,0,0,0-1-.34h-1.36Z"/><path class="cls-13" d="M448,144.55H445v2.29h3.57v1h-4.86v-7.43h4.82v1H445v2.05H448Z"/><path class="cls-13" d="M453.46,146a.9.9,0,0,0-.34-.76,4.15,4.15,0,0,0-1.24-.54,6,6,0,0,1-1.43-.6,1.91,1.91,0,0,1-1-1.66,1.81,1.81,0,0,1,.73-1.48,3,3,0,0,1,1.9-.58,3.21,3.21,0,0,1,1.38.29,2.27,2.27,0,0,1,1,.81,2.09,2.09,0,0,1,.35,1.17h-1.29a1.17,1.17,0,0,0-.37-.91,1.51,1.51,0,0,0-1-.33,1.57,1.57,0,0,0-1,.27.9.9,0,0,0-.35.76.81.81,0,0,0,.38.68,4.35,4.35,0,0,0,1.25.53,5.71,5.71,0,0,1,1.39.59,2.22,2.22,0,0,1,.77.76,2,2,0,0,1,.25,1,1.77,1.77,0,0,1-.71,1.48,3.09,3.09,0,0,1-1.93.55,3.63,3.63,0,0,1-1.48-.3,2.49,2.49,0,0,1-1.05-.82,2.05,2.05,0,0,1-.38-1.23h1.29a1.2,1.2,0,0,0,.42,1,1.83,1.83,0,0,0,1.2.35,1.59,1.59,0,0,0,1-.27A.88.88,0,0,0,453.46,146Z"/><path class="cls-13" d="M457.18,145.11v2.76h-1.29v-7.43h2.84a2.88,2.88,0,0,1,2,.65,2.18,2.18,0,0,1,.73,1.72,2.11,2.11,0,0,1-.72,1.7,3,3,0,0,1-2,.61Zm0-1h1.55a1.53,1.53,0,0,0,1.05-.32,1.19,1.19,0,0,0,.36-.94,1.29,1.29,0,0,0-.37-1,1.42,1.42,0,0,0-1-.37h-1.59Z"/><path class="cls-13" d="M468.5,144.35a4.56,4.56,0,0,1-.38,1.92,2.86,2.86,0,0,1-1.08,1.27,3.17,3.17,0,0,1-3.23,0,2.9,2.9,0,0,1-1.09-1.26,4.41,4.41,0,0,1-.39-1.88V144a4.52,4.52,0,0,1,.39-1.92,2.9,2.9,0,0,1,1.09-1.27,3.17,3.17,0,0,1,3.22,0,2.86,2.86,0,0,1,1.08,1.26,4.51,4.51,0,0,1,.39,1.91Zm-1.29-.39a3.25,3.25,0,0,0-.47-1.89,1.65,1.65,0,0,0-2.63,0,3.19,3.19,0,0,0-.48,1.86v.43a3.22,3.22,0,0,0,.48,1.89,1.54,1.54,0,0,0,1.32.67,1.52,1.52,0,0,0,1.32-.65,3.29,3.29,0,0,0,.46-1.91Z"/><path class="cls-13" d="M475.69,147.87h-1.29l-3.31-5.27v5.27h-1.29v-7.43h1.29l3.32,5.29v-5.29h1.28Z"/><path class="cls-13" d="M477.21,147.87v-7.43h2.2a3.44,3.44,0,0,1,1.75.44,3,3,0,0,1,1.18,1.25,4,4,0,0,1,.42,1.85v.37a3.94,3.94,0,0,1-.42,1.86,3,3,0,0,1-1.2,1.24,3.6,3.6,0,0,1-1.78.43Zm1.29-6.39v5.36h.84a1.94,1.94,0,0,0,1.56-.64,2.77,2.77,0,0,0,.55-1.83V144a2.84,2.84,0,0,0-.53-1.85,1.86,1.86,0,0,0-1.53-.64Z"/><path class="cls-13" d="M491.71,141.48h-2.32v6.39h-1.28v-6.39h-2.3v-1h5.9Z"/><path class="cls-13" d="M498.48,144.35a4.56,4.56,0,0,1-.38,1.92,2.86,2.86,0,0,1-1.08,1.27,3.17,3.17,0,0,1-3.23,0,2.9,2.9,0,0,1-1.09-1.26,4.41,4.41,0,0,1-.39-1.88V144a4.52,4.52,0,0,1,.39-1.92,2.9,2.9,0,0,1,1.09-1.27,3.17,3.17,0,0,1,3.22,0,2.86,2.86,0,0,1,1.08,1.26,4.51,4.51,0,0,1,.39,1.91Zm-1.29-.39a3.25,3.25,0,0,0-.47-1.89,1.65,1.65,0,0,0-2.63,0,3.19,3.19,0,0,0-.48,1.86v.43a3.22,3.22,0,0,0,.48,1.89,1.54,1.54,0,0,0,1.32.67,1.52,1.52,0,0,0,1.32-.65,3.29,3.29,0,0,0,.46-1.91Z"/><path class="cls-13" d="M507.43,141.48h-2.32v6.39h-1.28v-6.39h-2.3v-1h5.9Z"/><path class="cls-13" d="M509.77,147.87h-1.29v-7.43h1.29Z"/><path class="cls-13" d="M517,145.45a2.68,2.68,0,0,1-.88,1.86,3,3,0,0,1-2,.67,2.9,2.9,0,0,1-1.56-.42,2.76,2.76,0,0,1-1-1.2,4.32,4.32,0,0,1-.38-1.8v-.69a4.35,4.35,0,0,1,.37-1.85,2.81,2.81,0,0,1,1.07-1.24,3,3,0,0,1,1.61-.43,2.87,2.87,0,0,1,2,.67,2.78,2.78,0,0,1,.87,1.89h-1.29a1.84,1.84,0,0,0-.47-1.16,1.54,1.54,0,0,0-1.1-.35,1.51,1.51,0,0,0-1.29.62,3.08,3.08,0,0,0-.46,1.81v.66a3.26,3.26,0,0,0,.43,1.84,1.43,1.43,0,0,0,1.26.63,1.67,1.67,0,0,0,1.14-.34,1.78,1.78,0,0,0,.49-1.14Z"/><path class="cls-13" d="M520.32,144.66l-.84.89v2.32h-1.29v-7.43h1.29v3.49l.71-.88,2.17-2.6h1.56l-2.76,3.29,2.92,4.14h-1.53Z"/><path class="cls-13" d="M529.12,144.55h-3.05v2.29h3.57v1h-4.86v-7.43h4.82v1h-3.53v2.05h3.05Z"/><path class="cls-13" d="M536.16,141.48h-2.32v6.39h-1.28v-6.39h-2.3v-1h5.9Z"/><path class="cls-14" d="M138.89,142.33A8,8,0,0,1,144,145a9.82,9.82,0,0,1,2.15,4.64,7.41,7.41,0,0,0-3-2.56,10.19,10.19,0,0,0-4.28-.82v2.69l-4.61-4.61,4.61-4.61Z"/><g class="cls-15"><rect class="cls-6" x="130.32" y="135.74" width="19.81" height="17.83"/></g><text class="cls-16" transform="translate(3.96 15.48)">Outline: 1px solid #D32F2F</text><text class="cls-16" transform="translate(421.07 45.78)">Link: Robo<tspan class="cls-17" x="36.42" y="0">t</tspan><tspan x="38.91" y="0">o Medium 16px/20px #D32F2F</tspan></text><text class="cls-16" transform="translate(163.33 45.78)">Text: Robo<tspan class="cls-17" x="37.47" y="0">t</tspan><tspan x="39.96" y="0">o Regular 16px/20px #757575</tspan></text><text class="cls-16" transform="translate(421.07 112.44)">Link: Robo<tspan class="cls-17" x="36.42" y="0">t</tspan><tspan x="38.91" y="0">o Medium 16px/20px #</tspan><tspan class="cls-18" x="120.21" y="0">F</tspan><tspan x="124.05" y="0">A</tspan><tspan class="cls-18" x="129.05" y="0">F</tspan><tspan x="132.88" y="0">A</tspan><tspan class="cls-18" x="137.88" y="0">F</tspan><tspan x="141.71" y="0">A</tspan></text><text class="cls-16" transform="translate(163.33 112.44)">Text: Robo<tspan class="cls-17" x="37.47" y="0">t</tspan><tspan x="39.96" y="0">o Regular 16px/20px #</tspan><tspan class="cls-18" x="119.3" y="0">F</tspan><tspan x="123.14" y="0">A</tspan><tspan class="cls-18" x="128.13" y="0">F</tspan><tspan x="131.97" y="0">A</tspan><tspan class="cls-18" x="136.96" y="0">F</tspan><tspan x="140.8" y="0">A</tspan></text><text class="cls-16" transform="translate(421.07 169.72)">Link: Robo<tspan class="cls-17" x="36.42" y="0">t</tspan><tspan x="38.91" y="0">o Medium 16px/20px #0E7C84</tspan></text><text class="cls-16" transform="translate(163.33 169.72)">Text: Robo<tspan class="cls-17" x="37.47" y="0">t</tspan><tspan x="39.96" y="0">o Regular 16px/20px #424242</tspan></text><text class="cls-16" transform="translate(3.96 36.95)">Icon Container: #D32F2F</text><text class="cls-16" transform="translate(3.96 25.88)">Icon: #FFFFFF</text><text class="cls-16" transform="translate(2.63 75.42)">Backg<tspan class="cls-17" x="21.66" y="0">r</tspan><tspan x="24.28" y="0">ound: #D32F2F</tspan></text><text class="cls-16" transform="translate(2.63 94.99)">Icon Container: #F44336</text><text class="cls-16" transform="translate(2.63 85.82)">Icon: #FFFFFF</text><text class="cls-16" transform="translate(2.63 138.08)">Outline: 1px solid #3B44A9</text><text class="cls-16" transform="translate(2.63 157.49)">Icon Container: #3B44A9</text><text class="cls-16" transform="translate(2.63 148.48)">Icon: #FFFFFF</text><rect class="cls-19" x="157.68" y="5.88" width="319.5" height="11.09"/><rect class="cls-20" x="126.08" y="69.87" width="29.36" height="29.36"/><path class="cls-6" d="M163.3,10.45h0l-.74.4-.11-.44.92-.49h.49v4.23h-.55Z"/><path class="cls-6" d="M167.8,10.32a2,2,0,0,0-.43,0,1.72,1.72,0,0,0-1.47,1.5h0a1.29,1.29,0,0,1,2.29.88,1.41,1.41,0,0,1-1.4,1.49c-.9,0-1.5-.7-1.5-1.8a2.66,2.66,0,0,1,.71-1.9,2.3,2.3,0,0,1,1.35-.62,2.75,2.75,0,0,1,.42,0Zm-.16,2.44a.86.86,0,0,0-.87-1,.94.94,0,0,0-.82.52.49.49,0,0,0-.07.25c0,.7.33,1.21.93,1.21S167.64,13.36,167.64,12.75Z"/><path class="cls-6" d="M168.9,12c0-.4,0-.73,0-1h.51l0,.54h0a1.24,1.24,0,0,1,1.12-.61,1.42,1.42,0,0,1,1.33,1.6,1.49,1.49,0,0,1-1.43,1.69,1.1,1.1,0,0,1-1-.49h0v1.71h-.57Zm.57.84a1.24,1.24,0,0,0,0,.23.88.88,0,0,0,.86.67c.6,0,1-.49,1-1.22s-.33-1.17-.94-1.17a.91.91,0,0,0-.86.71.93.93,0,0,0,0,.23Z"/><path class="cls-6" d="M172.77,11l.45.68c.12.18.21.34.32.51h0c.1-.19.21-.35.31-.52l.44-.67h.62l-1.07,1.52L175,14.14h-.65l-.46-.71c-.12-.18-.23-.36-.34-.55h0c-.1.19-.21.36-.33.55l-.46.71h-.63l1.12-1.61L172.13,11Z"/><path class="cls-6" d="M176.41,14.4l1.81-4.71h.44l-1.82,4.71Z"/><path class="cls-6" d="M181.55,10.45h0l-.74.4-.11-.44.92-.49h.49v4.23h-.55Z"/><path class="cls-6" d="M184.14,12.67a1,1,0,0,0,1.08,1.09,2.07,2.07,0,0,0,.87-.16l.1.41a2.55,2.55,0,0,1-1,.19,1.46,1.46,0,0,1-1.55-1.59,1.53,1.53,0,0,1,1.48-1.7,1.33,1.33,0,0,1,1.3,1.48,2.08,2.08,0,0,1,0,.27Zm1.68-.41a.81.81,0,0,0-.79-.93,1,1,0,0,0-.88.93Z"/><path class="cls-6" d="M187.08,11.85c0-.33,0-.59,0-.85h.5l0,.51h0a1.09,1.09,0,0,1,1-.58.93.93,0,0,1,.89.63h0a1.3,1.3,0,0,1,.35-.41,1.07,1.07,0,0,1,.7-.22c.42,0,1,.27,1,1.37v1.85H191V12.36c0-.6-.22-1-.68-1a.74.74,0,0,0-.68.52.93.93,0,0,0,0,.29v1.94H189V12.25c0-.5-.22-.86-.66-.86a.78.78,0,0,0-.71.57.8.8,0,0,0,0,.28v1.9h-.56Z"/><path class="cls-6" d="M130.08,76.81V75.66h-2v-.38l1.88-2.7h.62v2.63h.59v.45h-.59v1.15Zm0-1.6V73.8q0-.33,0-.66h0c-.13.25-.23.43-.35.62l-1,1.44h1.38Z"/><path class="cls-6" d="M134.05,73a2,2,0,0,0-.43,0,1.72,1.72,0,0,0-1.47,1.5h0a1.29,1.29,0,0,1,2.29.88,1.41,1.41,0,0,1-1.4,1.49c-.9,0-1.5-.7-1.5-1.8a2.66,2.66,0,0,1,.71-1.9,2.3,2.3,0,0,1,1.35-.62,2.75,2.75,0,0,1,.42,0Zm-.16,2.44a.86.86,0,0,0-.87-1,.94.94,0,0,0-.82.52.49.49,0,0,0-.07.25c0,.7.33,1.21.93,1.21S133.89,76,133.89,75.42Z"/><path class="cls-6" d="M135.15,74.69c0-.4,0-.73,0-1h.51l0,.54h0a1.24,1.24,0,0,1,1.12-.61,1.42,1.42,0,0,1,1.33,1.6,1.49,1.49,0,0,1-1.43,1.69,1.1,1.1,0,0,1-1-.49h0v1.71h-.57Zm.57.84a1.24,1.24,0,0,0,0,.23.88.88,0,0,0,.86.67c.6,0,1-.49,1-1.22s-.33-1.17-.94-1.17a.91.91,0,0,0-.86.71.93.93,0,0,0,0,.23Z"/><path class="cls-6" d="M139,73.66l.45.68c.12.18.21.34.32.51h0c.1-.19.21-.35.31-.52l.44-.67h.62l-1.07,1.52,1.11,1.63h-.65l-.46-.71c-.12-.18-.23-.36-.34-.55h0c-.1.19-.21.36-.33.55l-.46.71h-.63l1.12-1.61-1.07-1.54Z"/><path class="cls-6" d="M142.66,77.07l1.81-4.71h.44l-1.82,4.71Z"/><path class="cls-6" d="M146.56,76.81v-.35L147,76c1.08-1,1.57-1.57,1.57-2.21a.75.75,0,0,0-.84-.83,1.44,1.44,0,0,0-.9.36l-.18-.4a1.86,1.86,0,0,1,1.2-.43,1.19,1.19,0,0,1,1.29,1.23c0,.78-.57,1.41-1.46,2.27l-.34.31h1.9v.47Z"/><path class="cls-6" d="M149.94,76.47a.38.38,0,0,1,.39-.41.41.41,0,1,1-.39.41Z"/><path class="cls-6" d="M151.18,75.73A1.21,1.21,0,0,1,152,74.6v0a1,1,0,0,1-.67-.95,1.18,1.18,0,0,1,1.31-1.12,1.09,1.09,0,0,1,1.23,1,1.07,1.07,0,0,1-.7,1v0a1.17,1.17,0,0,1,.85,1.09,1.3,1.3,0,0,1-1.44,1.23C151.72,76.88,151.18,76.35,151.18,75.73Zm2.28,0c0-.51-.36-.76-.93-.92a.92.92,0,0,0-.76.87.78.78,0,0,0,.85.81A.76.76,0,0,0,153.46,75.71Zm-1.57-2.11c0,.42.32.65.81.78a.83.83,0,0,0,.64-.77.66.66,0,0,0-.72-.69A.67.67,0,0,0,151.88,73.59Z"/><path class="cls-6" d="M157.31,72.58V73l-1.84,3.85h-.59l1.83-3.74h-2.07v-.47Z"/><path class="cls-6" d="M160.42,73.06H158.8l-.16,1.09a2.3,2.3,0,0,1,.34,0,1.79,1.79,0,0,1,.91.23,1.2,1.2,0,0,1,.6,1.09,1.47,1.47,0,0,1-1.57,1.44,2.07,2.07,0,0,1-1.05-.26l.14-.44a1.89,1.89,0,0,0,.9.23.93.93,0,0,0,1-.92c0-.55-.37-.94-1.21-.94a4.35,4.35,0,0,0-.58,0l.27-2h2Z"/><path class="cls-6" d="M161.73,75.34a1,1,0,0,0,1.08,1.09,2.07,2.07,0,0,0,.87-.16l.1.41a2.55,2.55,0,0,1-1,.19,1.46,1.46,0,0,1-1.55-1.59,1.53,1.53,0,0,1,1.48-1.7,1.33,1.33,0,0,1,1.3,1.48,2.08,2.08,0,0,1,0,.27Zm1.68-.41a.81.81,0,0,0-.79-.93,1,1,0,0,0-.88.93Z"/><path class="cls-6" d="M164.66,74.51c0-.33,0-.59,0-.85h.5l0,.51h0a1.09,1.09,0,0,1,1-.58.93.93,0,0,1,.89.63h0a1.3,1.3,0,0,1,.35-.41,1.07,1.07,0,0,1,.7-.22c.42,0,1,.27,1,1.37v1.85h-.56V75c0-.6-.22-1-.68-1a.74.74,0,0,0-.68.52.93.93,0,0,0,0,.29v1.94h-.56V74.92c0-.5-.22-.86-.66-.86a.78.78,0,0,0-.71.57.8.8,0,0,0,0,.28v1.9h-.56Z"/><rect class="cls-19" x="157.68" y="24.92" width="319.5" height="11.09"/><path class="cls-6" d="M163.3,29.49h0l-.74.4-.11-.44.92-.49h.49v4.23h-.55Z"/><path class="cls-6" d="M167.8,29.36a2,2,0,0,0-.43,0,1.72,1.72,0,0,0-1.47,1.5h0a1.29,1.29,0,0,1,2.29.88,1.41,1.41,0,0,1-1.4,1.49c-.9,0-1.5-.7-1.5-1.8a2.66,2.66,0,0,1,.71-1.9,2.3,2.3,0,0,1,1.35-.62,2.69,2.69,0,0,1,.42,0Zm-.16,2.44a.86.86,0,0,0-.87-1,.94.94,0,0,0-.82.52.48.48,0,0,0-.07.25c0,.7.33,1.21.93,1.21S167.64,32.4,167.64,31.79Z"/><path class="cls-6" d="M168.9,31.06c0-.4,0-.73,0-1h.51l0,.54h0a1.24,1.24,0,0,1,1.12-.61,1.42,1.42,0,0,1,1.33,1.6,1.49,1.49,0,0,1-1.43,1.69,1.1,1.1,0,0,1-1-.49h0v1.71h-.57Zm.57.84a1.23,1.23,0,0,0,0,.23.88.88,0,0,0,.86.67c.6,0,1-.49,1-1.22s-.33-1.17-.94-1.17a.91.91,0,0,0-.86.71.93.93,0,0,0,0,.23Z"/><path class="cls-6" d="M172.77,30l.45.68c.12.18.21.34.32.51h0c.1-.19.21-.35.31-.52l.44-.67h.62l-1.07,1.52L175,33.18h-.65l-.46-.71c-.12-.18-.23-.36-.34-.55h0c-.1.19-.21.36-.33.55l-.46.71h-.63l1.12-1.61L172.13,30Z"/><path class="cls-6" d="M176.41,33.44l1.81-4.71h.44l-1.82,4.71Z"/><path class="cls-6" d="M181.55,29.49h0l-.74.4-.11-.44.92-.49h.49v4.23h-.55Z"/><path class="cls-6" d="M184.14,31.71a1,1,0,0,0,1.08,1.09,2.07,2.07,0,0,0,.87-.16l.1.41a2.56,2.56,0,0,1-1,.19,1.46,1.46,0,0,1-1.55-1.59,1.53,1.53,0,0,1,1.48-1.7,1.33,1.33,0,0,1,1.3,1.48,2.07,2.07,0,0,1,0,.27Zm1.68-.41a.81.81,0,0,0-.79-.93,1,1,0,0,0-.88.93Z"/><path class="cls-6" d="M187.08,30.88c0-.33,0-.59,0-.85h.5l0,.51h0a1.09,1.09,0,0,1,1-.58.93.93,0,0,1,.89.63h0a1.3,1.3,0,0,1,.35-.41,1.08,1.08,0,0,1,.7-.22c.42,0,1,.27,1,1.37v1.85H191V31.4c0-.6-.22-1-.68-1a.74.74,0,0,0-.68.52.93.93,0,0,0,0,.29v1.94H189V31.29c0-.5-.22-.86-.66-.86a.78.78,0,0,0-.71.57.79.79,0,0,0,0,.28v1.9h-.56Z"/></g></svg>