<?xml version="1.0" encoding="utf-8"?>
<!-- Generator: Adobe Illustrator 21.0.2, SVG Export Plug-In . SVG Version: 6.00 Build 0)  -->
<svg version="1.1" id="Layer_1" xmlns="http://www.w3.org/2000/svg" xmlns:xlink="http://www.w3.org/1999/xlink" x="0px" y="0px"
	 viewBox="0 0 14.9 13" style="enable-background:new 0 0 14.9 13;" xml:space="preserve">
<style type="text/css">
	.st0{fill:#FFFFFF;}
	.st1{opacity:0.8;}
</style>
<title>alert-icon</title>
<path class="st0" d="M11.2,13H3.7L0,6.5L3.7,0h7.5l3.7,6.5L11.2,13z M4.1,12.4h6.7l3.4-5.9l-3.4-5.9H4.1L0.7,6.5L4.1,12.4z"/>
<g class="st1">
	<path class="st0" d="M5,9.3c0-0.4,0.2-0.7,0.6-0.8h0.2c0.2,0,0.4,0.1,0.6,0.2c0.1,0.2,0.2,0.4,0.2,0.6c0,0.2-0.1,0.4-0.2,0.6
		C6.2,10,6,10.1,5.8,10.1c-0.2,0-0.4-0.1-0.6-0.2C5.1,9.7,5,9.5,5,9.3z M6.2,8.1H5.3L5.1,2.5h1.4L6.2,8.1z"/>
	<path class="st0" d="M8.4,9.3c0-0.4,0.2-0.7,0.6-0.8c0,0,0,0,0,0h0.2c0.2,0,0.4,0.1,0.6,0.2c0.1,0.2,0.2,0.4,0.2,0.6
		c0,0.2-0.1,0.4-0.2,0.6c-0.1,0.1-0.4,0.2-0.6,0.2C9,10.1,8.7,10,8.6,9.9C8.4,9.7,8.4,9.5,8.4,9.3z M9.6,8.1H8.7L8.4,2.5h1.4
		L9.6,8.1z"/>
</g>
</svg>
