<svg xmlns="http://www.w3.org/2000/svg" viewBox="0 0 147.36 67.76"><defs><style>.cls-1{fill:#0e7c84;}.cls-2{fill:#fff;}.cls-3{fill:#eb008b;}.cls-3,.cls-4{opacity:0.5;}.cls-4{fill:#00c3ff;}</style></defs><title>Button-Spec</title><g id="Email_Content" data-name="Email Content"><rect class="cls-1" x="14" y="20.5" width="102.93" height="21.36" rx="2.07" ry="2.07"/><path class="cls-2" d="M23.77,32.23H22.49v2.56H21.33V28.14h2.34a2.72,2.72,0,0,1,1.78.52,1.83,1.83,0,0,1,.62,1.49,1.87,1.87,0,0,1-.32,1.12,2,2,0,0,1-.9.69l1.49,2.77v.06H25.11Zm-1.29-.93h1.19a1.32,1.32,0,0,0,.91-.29,1,1,0,0,0,.33-.81,1.09,1.09,0,0,0-.3-.83,1.29,1.29,0,0,0-.91-.3H22.49Z"/><path class="cls-2" d="M31,31.82H28.32v2h3.19v.92H27.16V28.14h4.31v.93H28.32v1.83H31Z"/><path class="cls-2" d="M35.92,33.08a.8.8,0,0,0-.31-.68,3.71,3.71,0,0,0-1.11-.48,5.38,5.38,0,0,1-1.28-.54,1.71,1.71,0,0,1-.91-1.49A1.62,1.62,0,0,1,33,28.57a2.65,2.65,0,0,1,1.7-.52,2.87,2.87,0,0,1,1.24.26,2,2,0,0,1,.85.73,1.87,1.87,0,0,1,.31,1H35.92a1,1,0,0,0-.33-.81,1.35,1.35,0,0,0-.93-.29,1.41,1.41,0,0,0-.88.24.8.8,0,0,0-.31.68.73.73,0,0,0,.34.61,3.9,3.9,0,0,0,1.11.47,5.12,5.12,0,0,1,1.25.52,2,2,0,0,1,.69.68,1.76,1.76,0,0,1,.22.89,1.58,1.58,0,0,1-.64,1.32,2.76,2.76,0,0,1-1.73.49,3.25,3.25,0,0,1-1.33-.27,2.22,2.22,0,0,1-.94-.74,1.84,1.84,0,0,1-.34-1.1h1.15a1.07,1.07,0,0,0,.37.88,1.64,1.64,0,0,0,1.07.31,1.42,1.42,0,0,0,.91-.24A.79.79,0,0,0,35.92,33.08Z"/><path class="cls-2" d="M39.24,32.32v2.46H38.09V28.14h2.54a2.57,2.57,0,0,1,1.77.58A2,2,0,0,1,43,30.26a1.89,1.89,0,0,1-.64,1.52,2.69,2.69,0,0,1-1.8.54Zm0-.93h1.39a1.37,1.37,0,0,0,.94-.29,1.07,1.07,0,0,0,.32-.84,1.15,1.15,0,0,0-.33-.86,1.27,1.27,0,0,0-.9-.33H39.24Z"/><path class="cls-2" d="M49.36,31.64A4.08,4.08,0,0,1,49,33.35a2.56,2.56,0,0,1-1,1.13,2.83,2.83,0,0,1-2.88,0,2.59,2.59,0,0,1-1-1.12,3.93,3.93,0,0,1-.35-1.68V31.3a4,4,0,0,1,.34-1.72,2.59,2.59,0,0,1,1-1.14,2.84,2.84,0,0,1,2.88,0,2.56,2.56,0,0,1,1,1.12,4,4,0,0,1,.35,1.7Zm-1.15-.35a2.9,2.9,0,0,0-.42-1.69,1.47,1.47,0,0,0-2.35,0A2.85,2.85,0,0,0,45,31.26v.38a2.88,2.88,0,0,0,.43,1.69,1.37,1.37,0,0,0,1.18.6,1.36,1.36,0,0,0,1.18-.58,2.94,2.94,0,0,0,.41-1.71Z"/><path class="cls-2" d="M55.78,34.79H54.63l-3-4.71v4.71H50.51V28.14h1.15l3,4.73V28.14h1.14Z"/><path class="cls-2" d="M57.14,34.79V28.14h2a3.07,3.07,0,0,1,1.56.39,2.68,2.68,0,0,1,1.06,1.11,3.54,3.54,0,0,1,.37,1.65v.33a3.52,3.52,0,0,1-.38,1.66,2.65,2.65,0,0,1-1.07,1.1,3.22,3.22,0,0,1-1.59.39Zm1.15-5.71v4.79h.75a1.73,1.73,0,0,0,1.39-.57,2.48,2.48,0,0,0,.5-1.63V31.3a2.54,2.54,0,0,0-.47-1.65,1.66,1.66,0,0,0-1.36-.57Z"/><path class="cls-2" d="M70.1,29.07H68v5.71H66.88V29.07H64.83v-.93H70.1Z"/><path class="cls-2" d="M76.15,31.64a4.07,4.07,0,0,1-.34,1.71,2.55,2.55,0,0,1-1,1.13,2.83,2.83,0,0,1-2.88,0,2.59,2.59,0,0,1-1-1.12,4,4,0,0,1-.35-1.68V31.3A4,4,0,0,1,71,29.59a2.59,2.59,0,0,1,1-1.14,2.84,2.84,0,0,1,2.88,0,2.56,2.56,0,0,1,1,1.12,4,4,0,0,1,.35,1.7ZM75,31.29a2.9,2.9,0,0,0-.42-1.69,1.47,1.47,0,0,0-2.35,0,2.85,2.85,0,0,0-.43,1.66v.38a2.88,2.88,0,0,0,.43,1.69,1.37,1.37,0,0,0,1.18.6,1.36,1.36,0,0,0,1.18-.58A3,3,0,0,0,75,31.64Z"/><path class="cls-2" d="M84.15,29.07H82.08v5.71H80.93V29.07H78.88v-.93h5.27Z"/><path class="cls-2" d="M86.24,34.79H85.09V28.14h1.15Z"/><path class="cls-2" d="M92.73,32.62a2.4,2.4,0,0,1-.78,1.66,2.67,2.67,0,0,1-1.82.6,2.59,2.59,0,0,1-1.4-.38,2.47,2.47,0,0,1-.93-1.07,3.86,3.86,0,0,1-.34-1.61V31.2a3.89,3.89,0,0,1,.33-1.66,2.51,2.51,0,0,1,1-1.1,2.67,2.67,0,0,1,1.44-.39,2.57,2.57,0,0,1,1.77.6,2.49,2.49,0,0,1,.78,1.69H91.58a1.64,1.64,0,0,0-.42-1,1.38,1.38,0,0,0-1-.32,1.35,1.35,0,0,0-1.16.55,2.75,2.75,0,0,0-.41,1.61v.59A2.91,2.91,0,0,0,89,33.38a1.28,1.28,0,0,0,1.13.57,1.49,1.49,0,0,0,1-.31,1.59,1.59,0,0,0,.43-1Z"/><path class="cls-2" d="M95.67,31.92l-.75.8v2.07H93.76V28.14h1.15v3.12l.64-.79,1.94-2.33h1.4l-2.47,2.94L99,34.79H97.66Z"/><path class="cls-2" d="M103.53,31.82H100.8v2H104v.92H99.65V28.14H104v.93H100.8v1.83h2.73Z"/><path class="cls-2" d="M109.82,29.07h-2.07v5.71h-1.15V29.07h-2.05v-.93h5.27Z"/><rect class="cls-3" x="3.81" y="3.9" width="141.1" height="16.02"/><path class="cls-2" d="M17.75,14.91v-.58l.74-.72C20.26,11.93,21.06,11,21.07,10A1.24,1.24,0,0,0,19.7,8.63a2.36,2.36,0,0,0-1.47.59l-.3-.66a3,3,0,0,1,2-.7,2,2,0,0,1,2.13,2c0,1.28-.93,2.32-2.39,3.73l-.56.51v0h3.12v.78Z"/><path class="cls-2" d="M26.14,14.91V13H22.91V12.4L26,8h1v4.32h1V13H27v1.89Zm0-2.63V10q0-.54,0-1.09h0c-.21.41-.38.7-.58,1l-1.7,2.36v0Z"/><path class="cls-2" d="M29,11.43c0-.66,0-1.2,0-1.69h.84l0,.89h0a2,2,0,0,1,1.84-1,2.34,2.34,0,0,1,2.19,2.63c0,1.86-1.13,2.78-2.35,2.78A1.81,1.81,0,0,1,30,14.22h0V17H29Zm.93,1.38a2.16,2.16,0,0,0,0,.38,1.45,1.45,0,0,0,1.41,1.1c1,0,1.57-.81,1.57-2s-.54-1.92-1.54-1.92a1.63,1.63,0,0,0-1.49,1.55Z"/><path class="cls-2" d="M35.37,9.74l.74,1.11c.19.29.35.56.52.84h0c.17-.31.34-.58.51-.85l.73-1.1h1l-1.76,2.5L39,14.91H37.9l-.76-1.16c-.2-.3-.37-.59-.56-.9h0c-.17.31-.35.59-.54.9l-.75,1.16h-1l1.84-2.64L34.32,9.74Z"/><path class="cls-2" d="M41.35,15.34l3-7.75h.73l-3,7.75Z"/><path class="cls-2" d="M49.81,8.84h0l-1.21.65-.18-.72L49.92,8h.8v6.94h-.91Z"/><path class="cls-2" d="M53.32,14.36a.63.63,0,0,1,.64-.67A.67.67,0,0,1,54,15,.63.63,0,0,1,53.32,14.36Z"/><path class="cls-2" d="M59.6,8.76H57l-.27,1.78a3.74,3.74,0,0,1,.57,0,2.94,2.94,0,0,1,1.5.37,2,2,0,0,1,1,1.78A2.41,2.41,0,0,1,57.16,15a3.4,3.4,0,0,1-1.73-.43l.23-.72a3.11,3.11,0,0,0,1.49.38,1.53,1.53,0,0,0,1.65-1.51c0-.9-.61-1.54-2-1.54a7.22,7.22,0,0,0-1,.07L56.28,8H59.6Z"/><path class="cls-2" d="M61.76,12.5a1.66,1.66,0,0,0,1.77,1.8A3.4,3.4,0,0,0,65,14l.16.67A4.18,4.18,0,0,1,63.4,15a2.4,2.4,0,0,1-2.54-2.61,2.51,2.51,0,0,1,2.43-2.79,2.19,2.19,0,0,1,2.14,2.44,3.45,3.45,0,0,1,0,.44Zm2.76-.67a1.34,1.34,0,0,0-1.3-1.53,1.56,1.56,0,0,0-1.44,1.53Z"/><path class="cls-2" d="M66.59,11.14c0-.53,0-1,0-1.4h.82l0,.83h0a1.78,1.78,0,0,1,1.62-1,1.53,1.53,0,0,1,1.46,1h0a2.13,2.13,0,0,1,.58-.67,1.76,1.76,0,0,1,1.14-.36c.68,0,1.7.45,1.7,2.24v3H73V12c0-1-.36-1.59-1.12-1.59a1.22,1.22,0,0,0-1.11.85,1.54,1.54,0,0,0-.07.47v3.19h-.92v-3.1c0-.82-.36-1.42-1.08-1.42a1.4,1.4,0,0,0-1.24,1.4v3.12h-.92Z"/><rect class="cls-3" x="3.81" y="41.94" width="141.1" height="24.03"/><path class="cls-2" d="M18,52.88a3.14,3.14,0,0,0,1.54.44c1.21,0,1.58-.77,1.57-1.35,0-1-.89-1.39-1.79-1.39h-.52v-.7h.52c.68,0,1.55-.35,1.55-1.18,0-.56-.35-1-1.22-1a2.55,2.55,0,0,0-1.39.46L18,47.43a3.3,3.3,0,0,1,1.82-.53c1.37,0,2,.81,2,1.66a1.72,1.72,0,0,1-1.28,1.63v0A1.81,1.81,0,0,1,22.06,52c0,1.11-.86,2.08-2.53,2.08a3.53,3.53,0,0,1-1.81-.47Z"/><path class="cls-2" d="M27.19,47.68a3.4,3.4,0,0,0-.71,0,2.82,2.82,0,0,0-2.41,2.47h0a2.12,2.12,0,0,1,3.77,1.44,2.32,2.32,0,0,1-2.31,2.45c-1.48,0-2.46-1.15-2.46-3A4.37,4.37,0,0,1,24.29,48a3.78,3.78,0,0,1,2.22-1,4.51,4.51,0,0,1,.68-.05Zm-.27,4a1.41,1.41,0,0,0-1.43-1.59,1.55,1.55,0,0,0-1.35.85.8.8,0,0,0-.11.42c0,1.14.54,2,1.53,2C26.38,53.35,26.93,52.68,26.93,51.68Z"/><path class="cls-2" d="M29,50.47c0-.66,0-1.2,0-1.69h.84l0,.89h0a2,2,0,0,1,1.84-1A2.34,2.34,0,0,1,33.9,51.3c0,1.86-1.13,2.78-2.35,2.78A1.81,1.81,0,0,1,30,53.26h0v2.81H29Zm.93,1.38a2.1,2.1,0,0,0,0,.38,1.45,1.45,0,0,0,1.41,1.1c1,0,1.57-.81,1.57-2s-.54-1.92-1.54-1.92A1.63,1.63,0,0,0,29.94,51Z"/><path class="cls-2" d="M35.37,48.79l.74,1.11c.19.29.35.56.52.84h0c.17-.31.34-.58.51-.85l.73-1.1h1l-1.76,2.5L39,54H37.9l-.76-1.16c-.2-.3-.37-.59-.56-.9h0c-.17.31-.35.59-.54.9L35.28,54h-1l1.84-2.64-1.75-2.53Z"/><path class="cls-2" d="M41.35,54.38l3-7.75h.73l-3,7.75Z"/><path class="cls-2" d="M47.77,54v-.58l.74-.72C50.28,51,51.08,50.08,51.09,49a1.24,1.24,0,0,0-1.38-1.36,2.36,2.36,0,0,0-1.47.59l-.3-.66a3,3,0,0,1,2-.7,2,2,0,0,1,2.13,2c0,1.28-.93,2.32-2.39,3.73l-.56.51v0H52.2V54Z"/><path class="cls-2" d="M53.32,53.4a.63.63,0,0,1,.64-.67.67.67,0,1,1-.64.67Z"/><path class="cls-2" d="M55.46,54v-.58l.74-.72C58,51,58.77,50.08,58.78,49a1.24,1.24,0,0,0-1.38-1.36,2.36,2.36,0,0,0-1.47.59l-.3-.66a3,3,0,0,1,2-.7,2,2,0,0,1,2.13,2c0,1.28-.93,2.32-2.39,3.73l-.56.51v0h3.12V54Z"/><path class="cls-2" d="M65.08,47.8H62.43l-.27,1.78a3.74,3.74,0,0,1,.57,0,2.93,2.93,0,0,1,1.5.37,2,2,0,0,1,1,1.78,2.41,2.41,0,0,1-2.59,2.37,3.4,3.4,0,0,1-1.73-.43l.24-.72a3.11,3.11,0,0,0,1.48.38,1.53,1.53,0,0,0,1.65-1.51c0-.9-.61-1.54-2-1.54a7.19,7.19,0,0,0-1,.07L61.76,47h3.32Z"/><path class="cls-2" d="M67.24,51.54A1.66,1.66,0,0,0,69,53.34a3.4,3.4,0,0,0,1.43-.27l.16.67a4.19,4.19,0,0,1-1.72.32,2.4,2.4,0,0,1-2.54-2.61,2.51,2.51,0,0,1,2.42-2.79A2.19,2.19,0,0,1,70.9,51.1a3.63,3.63,0,0,1,0,.44ZM70,50.87a1.34,1.34,0,0,0-1.3-1.53,1.56,1.56,0,0,0-1.44,1.53Z"/><path class="cls-2" d="M72.06,50.19c0-.53,0-1,0-1.4h.82l0,.83h0a1.78,1.78,0,0,1,1.62-1,1.53,1.53,0,0,1,1.46,1h0A2.13,2.13,0,0,1,76.6,49a1.77,1.77,0,0,1,1.14-.36c.68,0,1.7.45,1.7,2.24v3h-.92V51c0-1-.36-1.59-1.12-1.59a1.22,1.22,0,0,0-1.11.85,1.56,1.56,0,0,0-.07.47V54H75.3v-3.1c0-.82-.36-1.42-1.08-1.42A1.4,1.4,0,0,0,73,50.84V54h-.92Z"/><rect class="cls-4" y="1.13" width="13.35" height="66.63"/><path class="cls-2" d="M3.81,4.78h.58l.72.74C6.79,7.29,7.68,8.09,8.73,8.1a1.24,1.24,0,0,0,1.36-1.38A2.36,2.36,0,0,0,9.5,5.25l.66-.3a3,3,0,0,1,.7,2A2,2,0,0,1,8.85,9C7.57,9,6.53,8.11,5.12,6.65l-.51-.56h0V9.21H3.81Z"/><path class="cls-2" d="M7.35,14.87C5,14.87,3.69,14,3.69,12.46c0-1.36,1.27-2.28,3.57-2.3s3.61,1,3.61,2.41S9.57,14.87,7.35,14.87ZM7.25,11.1c-1.81,0-2.83.56-2.83,1.41s1.12,1.42,2.89,1.42,2.83-.44,2.83-1.41S9.14,11.1,7.25,11.1Z"/><path class="cls-2" d="M7.29,16C8,16,8.49,16,9,16v.84l-.89,0v0a2,2,0,0,1,1,1.84,2.34,2.34,0,0,1-2.63,2.19c-1.86,0-2.78-1.13-2.78-2.35A1.81,1.81,0,0,1,4.5,17v0H1.69V16ZM5.91,17a2.1,2.1,0,0,0-.38,0,1.45,1.45,0,0,0-1.1,1.41c0,1,.81,1.57,2,1.57s1.92-.54,1.92-1.54A1.5,1.5,0,0,0,7.18,17,1.5,1.5,0,0,0,6.8,17Z"/><path class="cls-2" d="M9,22.4l-1.11.74c-.29.19-.56.35-.84.52v0c.31.17.58.34.86.51l1.1.73v1l-2.5-1.76L3.81,26V24.93L5,24.17c.3-.2.59-.37.9-.56v0c-.31-.17-.59-.35-.9-.54L3.81,22.3v-1l2.64,1.84L9,21.35Z"/><path class="cls-2" d="M3.38,28.38l7.75,3v.73l-7.75-3Z"/><path class="cls-2" d="M9.87,36.84v0l-.65-1.21.72-.18.81,1.52v.8H3.81v-.91Z"/><path class="cls-2" d="M4.36,40.35A.63.63,0,0,1,5,41a.62.62,0,0,1-.67.63.64.64,0,1,1,0-1.27Z"/><path class="cls-2" d="M3.81,42.49h.58l.72.74C6.79,45,7.68,45.8,8.73,45.81a1.24,1.24,0,0,0,1.36-1.38A2.36,2.36,0,0,0,9.5,43l.66-.3a3,3,0,0,1,.7,2,2,2,0,0,1-2,2.13c-1.28,0-2.32-.93-3.73-2.39l-.51-.56h0v3.12H3.81Z"/><path class="cls-2" d="M10,52.11V49.46l-1.78-.27a3.69,3.69,0,0,1,0,.57,2.93,2.93,0,0,1-.37,1.5,2,2,0,0,1-1.78,1,2.41,2.41,0,0,1-2.37-2.59,3.4,3.4,0,0,1,.43-1.73l.72.23a3.11,3.11,0,0,0-.38,1.49A1.53,1.53,0,0,0,6,51.3c.9,0,1.54-.61,1.54-2a7.07,7.07,0,0,0-.08-1l3.33.45v3.32Z"/></g></svg>