<svg xmlns="http://www.w3.org/2000/svg" viewBox="0 0 689.13 41"><defs><style>.cls-1{fill:#0e7c84;}.cls-2{fill:#fff;}</style></defs><title>Buttons</title><g id="Email_Content" data-name="Email Content"><rect class="cls-1" y="4.98" width="179.37" height="32" rx="2.07" ry="2.07"/><path class="cls-2" d="M25.22,24.21l2.53-7.79h1.9l-3.58,10H24.39l-3.57-10h1.89Z"/><path class="cls-2" d="M32.59,26.37H30.87v-10h1.72Z"/><path class="cls-2" d="M40.54,21.93H36.45V25h4.78v1.38H34.72v-10h6.46v1.39H36.45v2.75h4.09Z"/><path class="cls-2" d="M50.44,23.91,52,16.42h1.71l-2.3,10H49.74l-1.89-7.27-1.94,7.27H44.25l-2.3-10h1.71l1.54,7.48,1.9-7.48h1.45Z"/><path class="cls-2" d="M66.33,26.37H64.61l-4.44-7.06v7.06H58.44v-10h1.73l4.45,7.09V16.42h1.71Z"/><path class="cls-2" d="M76.32,21.66a6.11,6.11,0,0,1-.51,2.57,3.83,3.83,0,0,1-1.45,1.7,4.24,4.24,0,0,1-4.32,0,3.88,3.88,0,0,1-1.46-1.69,5.9,5.9,0,0,1-.52-2.52v-.56a6.06,6.06,0,0,1,.52-2.57A3.88,3.88,0,0,1,70,16.88a4.25,4.25,0,0,1,4.31,0,3.83,3.83,0,0,1,1.45,1.68,6,6,0,0,1,.52,2.55Zm-1.73-.52A4.35,4.35,0,0,0,74,18.6a2.21,2.21,0,0,0-3.53,0,4.27,4.27,0,0,0-.65,2.48v.57a4.31,4.31,0,0,0,.64,2.54,2.06,2.06,0,0,0,1.77.9A2,2,0,0,0,74,24.21a4.41,4.41,0,0,0,.62-2.56Z"/><path class="cls-2" d="M84.65,17.82h-3.1v8.56H79.84V17.82H76.76V16.42h7.89Z"/><path class="cls-2" d="M87.79,26.37H86.06v-10h1.72Z"/><path class="cls-2" d="M95.65,22.16h-4v4.22H89.91v-10h6.32v1.39H91.64v3h4Z"/><path class="cls-2" d="M99.43,26.37H97.71v-10h1.72Z"/><path class="cls-2" d="M109.15,23.13A3.59,3.59,0,0,1,108,25.62a4,4,0,0,1-2.73.89,3.88,3.88,0,0,1-2.09-.56,3.7,3.7,0,0,1-1.4-1.6,5.79,5.79,0,0,1-.51-2.41V21a5.82,5.82,0,0,1,.5-2.48,3.76,3.76,0,0,1,1.43-1.65,4,4,0,0,1,2.16-.58,3.85,3.85,0,0,1,2.65.89,3.73,3.73,0,0,1,1.17,2.53h-1.72a2.46,2.46,0,0,0-.63-1.55,2.07,2.07,0,0,0-1.47-.48,2,2,0,0,0-1.73.82,4.12,4.12,0,0,0-.62,2.42v.88a4.37,4.37,0,0,0,.58,2.46,1.92,1.92,0,0,0,1.69.85,2.24,2.24,0,0,0,1.53-.46,2.39,2.39,0,0,0,.65-1.52Z"/><path class="cls-2" d="M116.26,24.06h-3.86l-.81,2.32h-1.8l3.76-10h1.55l3.77,10h-1.8Zm-3.37-1.39h2.88l-1.44-4.13Z"/><path class="cls-2" d="M126.38,17.82h-3.1v8.56h-1.71V17.82h-3.08V16.42h7.89Z"/><path class="cls-2" d="M129.51,26.37h-1.72v-10h1.72Z"/><path class="cls-2" d="M139.58,21.66a6.11,6.11,0,0,1-.51,2.57,3.83,3.83,0,0,1-1.45,1.7,4.24,4.24,0,0,1-4.32,0,3.88,3.88,0,0,1-1.46-1.69,5.9,5.9,0,0,1-.52-2.52v-.56a6.06,6.06,0,0,1,.52-2.57,3.88,3.88,0,0,1,1.46-1.71,4.25,4.25,0,0,1,4.31,0,3.83,3.83,0,0,1,1.45,1.68,6,6,0,0,1,.52,2.55Zm-1.73-.52a4.35,4.35,0,0,0-.62-2.54,2.21,2.21,0,0,0-3.53,0,4.27,4.27,0,0,0-.65,2.48v.57a4.31,4.31,0,0,0,.64,2.54,2.06,2.06,0,0,0,1.77.9,2,2,0,0,0,1.77-.87,4.41,4.41,0,0,0,.62-2.56Z"/><path class="cls-2" d="M149.2,26.37h-1.73L143,19.31v7.06h-1.73v-10H143l4.45,7.09V16.42h1.71Z"/><path class="cls-2" d="M156.45,23.81a1.2,1.2,0,0,0-.46-1,5.56,5.56,0,0,0-1.66-.72,8,8,0,0,1-1.91-.81A2.55,2.55,0,0,1,151,19a2.43,2.43,0,0,1,1-2,4,4,0,0,1,2.55-.78,4.3,4.3,0,0,1,1.85.38,3,3,0,0,1,1.28,1.09,2.79,2.79,0,0,1,.46,1.57h-1.72a1.56,1.56,0,0,0-.49-1.22,2,2,0,0,0-1.4-.44,2.1,2.1,0,0,0-1.32.36,1.21,1.21,0,0,0-.47,1,1.09,1.09,0,0,0,.51.91,5.82,5.82,0,0,0,1.67.71,7.65,7.65,0,0,1,1.87.79,3,3,0,0,1,1,1,2.63,2.63,0,0,1,.33,1.34,2.37,2.37,0,0,1-1,2,4.14,4.14,0,0,1-2.59.73,4.86,4.86,0,0,1-2-.4,3.34,3.34,0,0,1-1.41-1.1,2.75,2.75,0,0,1-.5-1.64h1.73a1.61,1.61,0,0,0,.56,1.31,2.46,2.46,0,0,0,1.61.46,2.13,2.13,0,0,0,1.36-.37A1.18,1.18,0,0,0,156.45,23.81Z"/><rect class="cls-1" x="244.2" y="4.55" width="180.34" height="32" rx="2.07" ry="2.07"/><path class="cls-2" d="M268.62,23.79,271.15,16H273l-3.58,10h-1.67l-3.57-10h1.89Z"/><path class="cls-2" d="M276,26h-1.72V16H276Z"/><path class="cls-2" d="M283.94,21.51h-4.09v3.06h4.78V26h-6.51V16h6.46v1.39h-4.73v2.75h4.09Z"/><path class="cls-2" d="M293.84,23.49,295.38,16h1.72l-2.3,10h-1.65l-1.89-7.27L289.31,26h-1.66l-2.3-10h1.72l1.54,7.48,1.9-7.48H292Z"/><path class="cls-2" d="M308.62,17.39h-3.1V26H303.8V17.39h-3.08V16h7.9Z"/><path class="cls-2" d="M311.75,26H310V16h1.72Z"/><path class="cls-2" d="M321.48,22.71a3.59,3.59,0,0,1-1.18,2.48,4,4,0,0,1-2.73.89,3.88,3.88,0,0,1-2.1-.56,3.7,3.7,0,0,1-1.4-1.6,5.79,5.79,0,0,1-.51-2.41v-.93a5.82,5.82,0,0,1,.5-2.48,3.76,3.76,0,0,1,1.43-1.65,4,4,0,0,1,2.16-.58,3.85,3.85,0,0,1,2.65.89,3.73,3.73,0,0,1,1.17,2.53h-1.72a2.46,2.46,0,0,0-.63-1.55,2.07,2.07,0,0,0-1.47-.48,2,2,0,0,0-1.73.82,4.12,4.12,0,0,0-.62,2.42v.88a4.37,4.37,0,0,0,.58,2.46,1.92,1.92,0,0,0,1.69.85,2.24,2.24,0,0,0,1.53-.46,2.39,2.39,0,0,0,.65-1.52Z"/><path class="cls-2" d="M325.88,21.65l-1.13,1.2V26H323V16h1.73v4.67l1-1.18L328.62,16h2.09L327,20.41,330.92,26h-2.05Z"/><path class="cls-2" d="M337.66,21.51h-4.09v3.06h4.78V26h-6.51V16h6.46v1.39h-4.73v2.75h4.09Z"/><path class="cls-2" d="M347.09,17.39H344V26h-1.72V17.39h-3.08V16h7.9Z"/><path class="cls-2" d="M351.47,26V16h2.94a4.61,4.61,0,0,1,2.34.59,4,4,0,0,1,1.58,1.67,5.3,5.3,0,0,1,.56,2.47v.5a5.27,5.27,0,0,1-.56,2.49,4,4,0,0,1-1.61,1.65,4.82,4.82,0,0,1-2.39.58Zm1.73-8.56v7.18h1.13a2.6,2.6,0,0,0,2.09-.85,3.71,3.71,0,0,0,.74-2.44v-.55a3.81,3.81,0,0,0-.7-2.47,2.5,2.5,0,0,0-2-.85Z"/><path class="cls-2" d="M366.44,21.51h-4.09v3.06h4.78V26h-6.51V16h6.46v1.39h-4.73v2.75h4.09Z"/><path class="cls-2" d="M375.86,17.39h-3.1V26H371V17.39H368V16h7.9Z"/><path class="cls-2" d="M381.92,23.64h-3.86L377.26,26h-1.8l3.76-10h1.55l3.77,10h-1.8Zm-3.37-1.39h2.88L380,18.11Z"/><path class="cls-2" d="M387.49,26h-1.72V16h1.72Z"/><path class="cls-2" d="M391.35,24.57h4.52V26h-6.25V16h1.73Z"/><path class="cls-2" d="M402.39,23.39a1.2,1.2,0,0,0-.46-1,5.56,5.56,0,0,0-1.66-.72,8,8,0,0,1-1.91-.81A2.55,2.55,0,0,1,397,18.63a2.43,2.43,0,0,1,1-2,4,4,0,0,1,2.55-.78,4.3,4.3,0,0,1,1.85.38,3,3,0,0,1,1.28,1.09,2.8,2.8,0,0,1,.46,1.57h-1.72a1.56,1.56,0,0,0-.49-1.22,2,2,0,0,0-1.4-.44,2.11,2.11,0,0,0-1.32.36,1.21,1.21,0,0,0-.47,1,1.09,1.09,0,0,0,.51.91,5.82,5.82,0,0,0,1.67.71,7.68,7.68,0,0,1,1.87.79,3,3,0,0,1,1,1,2.63,2.63,0,0,1,.33,1.34,2.37,2.37,0,0,1-1,2,4.14,4.14,0,0,1-2.59.73,4.86,4.86,0,0,1-2-.4,3.34,3.34,0,0,1-1.41-1.1,2.75,2.75,0,0,1-.5-1.64h1.73a1.61,1.61,0,0,0,.56,1.31,2.45,2.45,0,0,0,1.61.46,2.13,2.13,0,0,0,1.36-.37A1.18,1.18,0,0,0,402.39,23.39Z"/><rect class="cls-1" x="505.04" y="4.55" width="184.09" height="32" rx="2.07" ry="2.07"/><path class="cls-2" d="M535,22.12H533v3.83H531.3V16h3.5a4.07,4.07,0,0,1,2.66.77,2.74,2.74,0,0,1,.94,2.24,2.8,2.8,0,0,1-.48,1.67,3.07,3.07,0,0,1-1.34,1l2.24,4.14v.09h-1.85ZM533,20.72h1.78a2,2,0,0,0,1.37-.44,1.54,1.54,0,0,0,.49-1.21,1.63,1.63,0,0,0-.46-1.24,1.93,1.93,0,0,0-1.36-.45H533Z"/><path class="cls-2" d="M545.85,21.5h-4.09v3.06h4.78v1.38H540V16h6.46v1.39h-4.73v2.75h4.09Z"/><path class="cls-2" d="M553.15,23.38a1.2,1.2,0,0,0-.46-1,5.56,5.56,0,0,0-1.66-.72,8,8,0,0,1-1.91-.81,2.55,2.55,0,0,1-1.36-2.23,2.43,2.43,0,0,1,1-2,4,4,0,0,1,2.55-.78,4.3,4.3,0,0,1,1.85.38,3,3,0,0,1,1.28,1.09,2.8,2.8,0,0,1,.46,1.57h-1.72a1.56,1.56,0,0,0-.49-1.22,2,2,0,0,0-1.4-.44,2.11,2.11,0,0,0-1.32.36,1.21,1.21,0,0,0-.47,1,1.09,1.09,0,0,0,.51.91,5.82,5.82,0,0,0,1.67.71,7.68,7.68,0,0,1,1.87.79,3,3,0,0,1,1,1,2.63,2.63,0,0,1,.33,1.34,2.37,2.37,0,0,1-1,2,4.14,4.14,0,0,1-2.59.73,4.86,4.86,0,0,1-2-.4,3.34,3.34,0,0,1-1.41-1.1,2.75,2.75,0,0,1-.5-1.64h1.73a1.61,1.61,0,0,0,.56,1.31,2.45,2.45,0,0,0,1.61.46,2.13,2.13,0,0,0,1.36-.37A1.18,1.18,0,0,0,553.15,23.38Z"/><path class="cls-2" d="M558.13,22.25v3.69H556.4V16h3.81a3.85,3.85,0,0,1,2.65.87,2.92,2.92,0,0,1,1,2.3,2.82,2.82,0,0,1-1,2.28,4,4,0,0,1-2.69.81Zm0-1.39h2.08a2,2,0,0,0,1.41-.43,1.6,1.6,0,0,0,.49-1.25,1.72,1.72,0,0,0-.49-1.29,1.9,1.9,0,0,0-1.35-.5h-2.13Z"/><path class="cls-2" d="M573.29,21.23a6.11,6.11,0,0,1-.51,2.57,3.83,3.83,0,0,1-1.45,1.7,4.24,4.24,0,0,1-4.32,0,3.89,3.89,0,0,1-1.46-1.69,5.91,5.91,0,0,1-.52-2.52v-.56a6.06,6.06,0,0,1,.52-2.57A3.89,3.89,0,0,1,567,16.45a4.25,4.25,0,0,1,4.31,0,3.83,3.83,0,0,1,1.45,1.68,6,6,0,0,1,.52,2.55Zm-1.73-.52a4.35,4.35,0,0,0-.63-2.54,2.21,2.21,0,0,0-3.53,0,4.27,4.27,0,0,0-.65,2.48v.57a4.32,4.32,0,0,0,.64,2.54,2.06,2.06,0,0,0,1.77.9,2,2,0,0,0,1.77-.87,4.41,4.41,0,0,0,.62-2.56Z"/><path class="cls-2" d="M582.91,25.95h-1.73l-4.44-7.06v7.06H575V16h1.73l4.45,7.09V16h1.72Z"/><path class="cls-2" d="M585,25.95V16h2.94a4.61,4.61,0,0,1,2.34.59,4,4,0,0,1,1.58,1.67,5.3,5.3,0,0,1,.56,2.47v.5a5.27,5.27,0,0,1-.56,2.49,4,4,0,0,1-1.61,1.65,4.82,4.82,0,0,1-2.39.58Zm1.73-8.56v7.18h1.13a2.6,2.6,0,0,0,2.09-.85,3.71,3.71,0,0,0,.74-2.44v-.55a3.81,3.81,0,0,0-.7-2.47,2.5,2.5,0,0,0-2-.85Z"/><path class="cls-2" d="M604.36,17.39h-3.1v8.56h-1.72V17.39h-3.08V16h7.9Z"/><path class="cls-2" d="M613.42,21.23a6.11,6.11,0,0,1-.51,2.57,3.83,3.83,0,0,1-1.45,1.7,4.24,4.24,0,0,1-4.32,0,3.89,3.89,0,0,1-1.46-1.69,5.91,5.91,0,0,1-.52-2.52v-.56a6.06,6.06,0,0,1,.52-2.57,3.89,3.89,0,0,1,1.46-1.71,4.25,4.25,0,0,1,4.31,0,3.83,3.83,0,0,1,1.45,1.68,6,6,0,0,1,.52,2.55Zm-1.73-.52a4.35,4.35,0,0,0-.63-2.54,2.21,2.21,0,0,0-3.53,0,4.27,4.27,0,0,0-.65,2.48v.57a4.32,4.32,0,0,0,.64,2.54,2.06,2.06,0,0,0,1.77.9,2,2,0,0,0,1.77-.87,4.41,4.41,0,0,0,.62-2.56Z"/><path class="cls-2" d="M625.41,17.39h-3.1v8.56h-1.72V17.39h-3.08V16h7.9Z"/><path class="cls-2" d="M628.54,25.95h-1.72V16h1.72Z"/><path class="cls-2" d="M638.26,22.71a3.59,3.59,0,0,1-1.18,2.48,4,4,0,0,1-2.73.89,3.88,3.88,0,0,1-2.1-.56,3.7,3.7,0,0,1-1.4-1.6,5.79,5.79,0,0,1-.51-2.41v-.93a5.82,5.82,0,0,1,.5-2.48,3.76,3.76,0,0,1,1.43-1.65,4,4,0,0,1,2.16-.58,3.85,3.85,0,0,1,2.65.89,3.73,3.73,0,0,1,1.17,2.53h-1.72a2.46,2.46,0,0,0-.63-1.55,2.07,2.07,0,0,0-1.47-.48,2,2,0,0,0-1.73.82,4.12,4.12,0,0,0-.62,2.42v.88a4.37,4.37,0,0,0,.58,2.46,1.92,1.92,0,0,0,1.69.85,2.24,2.24,0,0,0,1.53-.46,2.39,2.39,0,0,0,.65-1.52Z"/><path class="cls-2" d="M642.67,21.65l-1.13,1.2v3.1h-1.73V16h1.73v4.67l1-1.18L645.41,16h2.09l-3.7,4.41,3.91,5.54h-2.05Z"/><path class="cls-2" d="M654.45,21.5h-4.09v3.06h4.78v1.38h-6.51V16h6.46v1.39h-4.73v2.75h4.09Z"/><path class="cls-2" d="M663.88,17.39h-3.1v8.56h-1.72V17.39H656V16h7.9Z"/></g></svg>