<svg xmlns="http://www.w3.org/2000/svg" viewBox="0 0 157.08 109.5"><defs><style>.cls-1{fill:#0e7c84;}.cls-2{fill:#fff;}.cls-3{fill:#eb008b;}.cls-3,.cls-4{opacity:0.5;}.cls-4{fill:#00c3ff;}</style></defs><title>Button</title><g id="Email_Content" data-name="Email Content"><rect class="cls-1" x="1" y="0.95" width="116.75" height="20.83" rx="2.07" ry="2.07"/><path class="cls-2" d="M17.41,13.47,19.06,8.4H20.3L18,14.88H16.87L14.55,8.4h1.23Z"/><path class="cls-2" d="M22.21,14.88H21.09V8.4h1.12Z"/><path class="cls-2" d="M27.38,12H24.72v2h3.11v.9H23.6V8.4h4.2v.91H24.72V11.1h2.66Z"/><path class="cls-2" d="M33.83,13.28l1-4.88h1.12l-1.5,6.48H33.37l-1.23-4.73-1.26,4.73H29.8L28.31,8.4h1.12l1,4.87L31.66,8.4h.94Z"/><path class="cls-2" d="M44.18,14.88H43.05l-2.89-4.6v4.6H39V8.4h1.13L43.06,13V8.4h1.12Z"/><path class="cls-2" d="M50.68,11.81a4,4,0,0,1-.33,1.67,2.5,2.5,0,0,1-.94,1.1,2.76,2.76,0,0,1-2.81,0,2.53,2.53,0,0,1-1-1.1,3.84,3.84,0,0,1-.34-1.64v-.36a3.94,3.94,0,0,1,.34-1.67,2.53,2.53,0,0,1,.95-1.11,2.77,2.77,0,0,1,2.81,0,2.49,2.49,0,0,1,.95,1.09,3.94,3.94,0,0,1,.34,1.66Zm-1.13-.34a2.83,2.83,0,0,0-.41-1.65,1.44,1.44,0,0,0-2.3,0,2.78,2.78,0,0,0-.42,1.62v.37a2.81,2.81,0,0,0,.42,1.65A1.34,1.34,0,0,0,48,14a1.32,1.32,0,0,0,1.15-.57,2.87,2.87,0,0,0,.4-1.66Z"/><path class="cls-2" d="M56.1,9.31h-2v5.57H53V9.31H51V8.4H56.1Z"/><path class="cls-2" d="M58.14,14.88H57V8.4h1.12Z"/><path class="cls-2" d="M63.26,12.13H60.65v2.75H59.52V8.4h4.12v.91h-3v1.93h2.61Z"/><path class="cls-2" d="M65.72,14.88H64.6V8.4h1.12Z"/><path class="cls-2" d="M72,12.77a2.34,2.34,0,0,1-.77,1.62A2.61,2.61,0,0,1,69.5,15a2.53,2.53,0,0,1-1.36-.37,2.41,2.41,0,0,1-.91-1A3.77,3.77,0,0,1,66.9,12v-.61a3.79,3.79,0,0,1,.33-1.62,2.44,2.44,0,0,1,.93-1.08,2.6,2.6,0,0,1,1.4-.38,2.5,2.5,0,0,1,1.73.58A2.43,2.43,0,0,1,72,10.54H70.92a1.6,1.6,0,0,0-.41-1,1.35,1.35,0,0,0-1-.31,1.31,1.31,0,0,0-1.13.54,2.68,2.68,0,0,0-.4,1.57v.57a2.85,2.85,0,0,0,.38,1.6,1.25,1.25,0,0,0,1.1.55,1.46,1.46,0,0,0,1-.3,1.56,1.56,0,0,0,.42-1Z"/><path class="cls-2" d="M76.67,13.37H74.17l-.53,1.51H72.47L74.92,8.4h1l2.45,6.48H77.2Zm-2.19-.91h1.88l-.94-2.69Z"/><path class="cls-2" d="M83.26,9.31h-2v5.57H80.12V9.31h-2V8.4h5.14Z"/><path class="cls-2" d="M85.3,14.88H84.18V8.4H85.3Z"/><path class="cls-2" d="M91.85,11.81a4,4,0,0,1-.33,1.67,2.5,2.5,0,0,1-.94,1.1,2.76,2.76,0,0,1-2.81,0,2.53,2.53,0,0,1-1-1.1,3.84,3.84,0,0,1-.34-1.64v-.36a3.94,3.94,0,0,1,.34-1.67,2.53,2.53,0,0,1,.95-1.11,2.77,2.77,0,0,1,2.81,0,2.49,2.49,0,0,1,.95,1.09,3.94,3.94,0,0,1,.34,1.66Zm-1.13-.34a2.83,2.83,0,0,0-.41-1.65,1.44,1.44,0,0,0-2.3,0,2.78,2.78,0,0,0-.42,1.62v.37A2.81,2.81,0,0,0,88,13.46a1.34,1.34,0,0,0,1.15.58,1.32,1.32,0,0,0,1.15-.57,2.87,2.87,0,0,0,.4-1.66Z"/><path class="cls-2" d="M98.11,14.88H97l-2.89-4.6v4.6H93V8.4H94.1L97,13V8.4h1.12Z"/><path class="cls-2" d="M102.83,13.21a.78.78,0,0,0-.3-.66,3.62,3.62,0,0,0-1.08-.47,5.22,5.22,0,0,1-1.25-.53,1.66,1.66,0,0,1-.89-1.45A1.58,1.58,0,0,1,100,8.82a2.58,2.58,0,0,1,1.66-.51,2.8,2.8,0,0,1,1.21.25,2,2,0,0,1,.83.71,1.82,1.82,0,0,1,.3,1h-1.12a1,1,0,0,0-.32-.79,1.31,1.31,0,0,0-.91-.29,1.37,1.37,0,0,0-.86.24.79.79,0,0,0-.3.66.71.71,0,0,0,.33.59,3.78,3.78,0,0,0,1.09.46,5,5,0,0,1,1.21.51,1.93,1.93,0,0,1,.67.66,1.71,1.71,0,0,1,.21.87,1.54,1.54,0,0,1-.62,1.29,2.69,2.69,0,0,1-1.68.48,3.16,3.16,0,0,1-1.29-.26,2.17,2.17,0,0,1-.92-.72,1.79,1.79,0,0,1-.33-1.07h1.13a1,1,0,0,0,.36.85,1.6,1.6,0,0,0,1,.3,1.39,1.39,0,0,0,.88-.24A.77.77,0,0,0,102.83,13.21Z"/><rect class="cls-1" x="14" y="62.24" width="102.93" height="21.36" rx="2.07" ry="2.07"/><path class="cls-2" d="M23.77,74H22.49v2.56H21.33V69.88h2.34a2.72,2.72,0,0,1,1.78.52,1.83,1.83,0,0,1,.62,1.49A1.87,1.87,0,0,1,25.75,73a2,2,0,0,1-.9.69l1.49,2.77v.06H25.11ZM22.49,73h1.19a1.32,1.32,0,0,0,.91-.29,1,1,0,0,0,.33-.81,1.09,1.09,0,0,0-.3-.83,1.29,1.29,0,0,0-.91-.3H22.49Z"/><path class="cls-2" d="M31,73.56H28.32v2h3.19v.92H27.16V69.88h4.31v.93H28.32v1.83H31Z"/><path class="cls-2" d="M35.92,74.82a.8.8,0,0,0-.31-.68,3.71,3.71,0,0,0-1.11-.48,5.38,5.38,0,0,1-1.28-.54,1.71,1.71,0,0,1-.91-1.49A1.62,1.62,0,0,1,33,70.31a2.65,2.65,0,0,1,1.7-.52A2.87,2.87,0,0,1,35.9,70a2,2,0,0,1,.85.73,1.87,1.87,0,0,1,.31,1H35.92a1,1,0,0,0-.33-.81,1.35,1.35,0,0,0-.93-.29,1.41,1.41,0,0,0-.88.24.8.8,0,0,0-.31.68.73.73,0,0,0,.34.61,3.9,3.9,0,0,0,1.11.47,5.12,5.12,0,0,1,1.25.52,2,2,0,0,1,.69.68,1.76,1.76,0,0,1,.22.89,1.58,1.58,0,0,1-.64,1.32,2.76,2.76,0,0,1-1.73.49,3.25,3.25,0,0,1-1.33-.27,2.22,2.22,0,0,1-.94-.74,1.84,1.84,0,0,1-.34-1.1h1.15a1.07,1.07,0,0,0,.37.88,1.64,1.64,0,0,0,1.07.31,1.42,1.42,0,0,0,.91-.24A.79.79,0,0,0,35.92,74.82Z"/><path class="cls-2" d="M39.24,74.06v2.46H38.09V69.88h2.54a2.57,2.57,0,0,1,1.77.58A2,2,0,0,1,43,72a1.89,1.89,0,0,1-.64,1.52,2.69,2.69,0,0,1-1.8.54Zm0-.93h1.39a1.37,1.37,0,0,0,.94-.29,1.07,1.07,0,0,0,.32-.84,1.15,1.15,0,0,0-.33-.86,1.27,1.27,0,0,0-.9-.33H39.24Z"/><path class="cls-2" d="M49.36,73.38A4.08,4.08,0,0,1,49,75.09a2.56,2.56,0,0,1-1,1.13,2.83,2.83,0,0,1-2.88,0,2.59,2.59,0,0,1-1-1.12,3.93,3.93,0,0,1-.35-1.68V73a4,4,0,0,1,.34-1.72,2.59,2.59,0,0,1,1-1.14,2.84,2.84,0,0,1,2.88,0,2.56,2.56,0,0,1,1,1.12,4,4,0,0,1,.35,1.7ZM48.21,73a2.9,2.9,0,0,0-.42-1.69,1.47,1.47,0,0,0-2.35,0A2.85,2.85,0,0,0,45,73v.38a2.88,2.88,0,0,0,.43,1.69,1.37,1.37,0,0,0,1.18.6,1.36,1.36,0,0,0,1.18-.58,2.94,2.94,0,0,0,.41-1.71Z"/><path class="cls-2" d="M55.78,76.53H54.63l-3-4.71v4.71H50.51V69.88h1.15l3,4.73V69.88h1.14Z"/><path class="cls-2" d="M57.14,76.53V69.88h2a3.07,3.07,0,0,1,1.56.39,2.68,2.68,0,0,1,1.06,1.11A3.54,3.54,0,0,1,62.1,73v.33A3.52,3.52,0,0,1,61.72,75a2.65,2.65,0,0,1-1.07,1.1,3.22,3.22,0,0,1-1.59.39Zm1.15-5.71v4.79h.75A1.73,1.73,0,0,0,60.44,75a2.48,2.48,0,0,0,.5-1.63V73a2.54,2.54,0,0,0-.47-1.65,1.66,1.66,0,0,0-1.36-.57Z"/><path class="cls-2" d="M70.1,70.81H68v5.71H66.88V70.81H64.83v-.93H70.1Z"/><path class="cls-2" d="M76.15,73.38a4.07,4.07,0,0,1-.34,1.71,2.55,2.55,0,0,1-1,1.13,2.83,2.83,0,0,1-2.88,0,2.59,2.59,0,0,1-1-1.12,4,4,0,0,1-.35-1.68V73A4,4,0,0,1,71,71.33a2.59,2.59,0,0,1,1-1.14,2.84,2.84,0,0,1,2.88,0,2.56,2.56,0,0,1,1,1.12,4,4,0,0,1,.35,1.7ZM75,73a2.9,2.9,0,0,0-.42-1.69,1.47,1.47,0,0,0-2.35,0A2.85,2.85,0,0,0,71.79,73v.38a2.88,2.88,0,0,0,.43,1.69,1.37,1.37,0,0,0,1.18.6,1.36,1.36,0,0,0,1.18-.58A3,3,0,0,0,75,73.38Z"/><path class="cls-2" d="M84.15,70.81H82.08v5.71H80.93V70.81H78.88v-.93h5.27Z"/><path class="cls-2" d="M86.24,76.53H85.09V69.88h1.15Z"/><path class="cls-2" d="M92.73,74.36A2.4,2.4,0,0,1,91.94,76a2.67,2.67,0,0,1-1.82.6,2.59,2.59,0,0,1-1.4-.38,2.47,2.47,0,0,1-.93-1.07,3.86,3.86,0,0,1-.34-1.61v-.62a3.89,3.89,0,0,1,.33-1.66,2.51,2.51,0,0,1,1-1.1,2.67,2.67,0,0,1,1.44-.39,2.57,2.57,0,0,1,1.77.6,2.49,2.49,0,0,1,.78,1.69H91.58a1.64,1.64,0,0,0-.42-1,1.38,1.38,0,0,0-1-.32,1.35,1.35,0,0,0-1.16.55,2.75,2.75,0,0,0-.41,1.61v.59A2.91,2.91,0,0,0,89,75.12a1.28,1.28,0,0,0,1.13.57,1.49,1.49,0,0,0,1-.31,1.59,1.59,0,0,0,.43-1Z"/><path class="cls-2" d="M95.67,73.66l-.75.8v2.07H93.76V69.88h1.15V73l.64-.79,1.94-2.33h1.4l-2.47,2.94L99,76.53H97.66Z"/><path class="cls-2" d="M103.53,73.56H100.8v2H104v.92H99.65V69.88H104v.93H100.8v1.83h2.73Z"/><path class="cls-2" d="M109.82,70.81h-2.07v5.71h-1.15V70.81h-2.05v-.93h5.27Z"/><rect class="cls-3" x="3.81" y="45.64" width="141.1" height="16.02"/><path class="cls-2" d="M17.75,56.65v-.58l.74-.72c1.77-1.69,2.57-2.59,2.59-3.63a1.24,1.24,0,0,0-1.38-1.36,2.36,2.36,0,0,0-1.47.59l-.3-.66a3,3,0,0,1,2-.7,2,2,0,0,1,2.13,2c0,1.28-.93,2.32-2.39,3.73l-.56.51v0h3.12v.78Z"/><path class="cls-2" d="M26.14,56.65V54.76H22.91v-.62L26,49.71h1V54h1v.74H27v1.89Zm0-2.63V51.71q0-.54,0-1.09h0c-.21.41-.38.7-.58,1L23.86,54v0Z"/><path class="cls-2" d="M29,53.17c0-.66,0-1.2,0-1.69h.84l0,.89h0a2,2,0,0,1,1.84-1A2.34,2.34,0,0,1,33.9,54c0,1.86-1.13,2.78-2.35,2.78A1.81,1.81,0,0,1,30,56h0v2.81H29Zm.93,1.38a2.16,2.16,0,0,0,0,.38A1.45,1.45,0,0,0,31.39,56c1,0,1.57-.81,1.57-2s-.54-1.92-1.54-1.92a1.63,1.63,0,0,0-1.49,1.55Z"/><path class="cls-2" d="M35.37,51.48l.74,1.11c.19.29.35.56.52.84h0c.17-.31.34-.58.51-.85l.73-1.1h1L37.16,54,39,56.65H37.9l-.76-1.16c-.2-.3-.37-.59-.56-.9h0c-.17.31-.35.59-.54.9l-.75,1.16h-1L36.08,54l-1.75-2.53Z"/><path class="cls-2" d="M41.35,57.08l3-7.75h.73l-3,7.75Z"/><path class="cls-2" d="M49.81,50.58h0l-1.21.65-.18-.72,1.52-.81h.8v6.94h-.91Z"/><path class="cls-2" d="M53.32,56.1a.63.63,0,0,1,.64-.67.67.67,0,0,1,0,1.35A.63.63,0,0,1,53.32,56.1Z"/><path class="cls-2" d="M59.6,50.5H57l-.27,1.78a3.74,3.74,0,0,1,.57,0,2.94,2.94,0,0,1,1.5.37,2,2,0,0,1,1,1.78,2.41,2.41,0,0,1-2.59,2.37,3.4,3.4,0,0,1-1.73-.43l.23-.72a3.11,3.11,0,0,0,1.49.38,1.53,1.53,0,0,0,1.65-1.51c0-.9-.61-1.54-2-1.54a7.22,7.22,0,0,0-1,.07l.45-3.33H59.6Z"/><path class="cls-2" d="M61.76,54.24A1.66,1.66,0,0,0,63.53,56,3.4,3.4,0,0,0,65,55.77l.16.67a4.18,4.18,0,0,1-1.72.32,2.4,2.4,0,0,1-2.54-2.61,2.51,2.51,0,0,1,2.43-2.79,2.19,2.19,0,0,1,2.14,2.44,3.45,3.45,0,0,1,0,.44Zm2.76-.67A1.34,1.34,0,0,0,63.21,52a1.56,1.56,0,0,0-1.44,1.53Z"/><path class="cls-2" d="M66.59,52.88c0-.53,0-1,0-1.4h.82l0,.83h0a1.78,1.78,0,0,1,1.62-1,1.53,1.53,0,0,1,1.46,1h0a2.13,2.13,0,0,1,.58-.67,1.76,1.76,0,0,1,1.14-.36c.68,0,1.7.45,1.7,2.24v3H73V53.72c0-1-.36-1.59-1.12-1.59a1.22,1.22,0,0,0-1.11.85,1.54,1.54,0,0,0-.07.47v3.19h-.92v-3.1c0-.82-.36-1.42-1.08-1.42a1.4,1.4,0,0,0-1.24,1.4v3.12h-.92Z"/><rect class="cls-3" x="3.81" y="83.68" width="141.1" height="24.03"/><path class="cls-2" d="M18,94.62a3.14,3.14,0,0,0,1.54.44c1.21,0,1.58-.77,1.57-1.35,0-1-.89-1.39-1.79-1.39h-.52v-.7h.52c.68,0,1.55-.35,1.55-1.18,0-.56-.35-1-1.22-1a2.55,2.55,0,0,0-1.39.46L18,89.17a3.3,3.3,0,0,1,1.82-.53c1.37,0,2,.81,2,1.66a1.72,1.72,0,0,1-1.28,1.63v0a1.81,1.81,0,0,1,1.55,1.78c0,1.11-.86,2.08-2.53,2.08a3.53,3.53,0,0,1-1.81-.47Z"/><path class="cls-2" d="M27.19,89.42a3.4,3.4,0,0,0-.71,0,2.82,2.82,0,0,0-2.41,2.47h0a2.12,2.12,0,0,1,3.77,1.44,2.32,2.32,0,0,1-2.31,2.45c-1.48,0-2.46-1.15-2.46-3a4.37,4.37,0,0,1,1.17-3.13,3.78,3.78,0,0,1,2.22-1,4.51,4.51,0,0,1,.68-.05Zm-.27,4a1.41,1.41,0,0,0-1.43-1.59,1.55,1.55,0,0,0-1.35.85.8.8,0,0,0-.11.42c0,1.14.54,2,1.53,2C26.38,95.09,26.93,94.42,26.93,93.42Z"/><path class="cls-2" d="M29,92.21c0-.66,0-1.2,0-1.69h.84l0,.89h0a2,2,0,0,1,1.84-1A2.34,2.34,0,0,1,33.9,93c0,1.86-1.13,2.78-2.35,2.78A1.81,1.81,0,0,1,30,95h0v2.81H29Zm.93,1.38A2.1,2.1,0,0,0,30,94a1.45,1.45,0,0,0,1.41,1.1c1,0,1.57-.81,1.57-2s-.54-1.92-1.54-1.92a1.63,1.63,0,0,0-1.48,1.55Z"/><path class="cls-2" d="M35.37,90.53l.74,1.11c.19.29.35.56.52.84h0c.17-.31.34-.58.51-.85l.73-1.1h1L37.16,93,39,95.7H37.9l-.76-1.16c-.2-.3-.37-.59-.56-.9h0c-.17.31-.35.59-.54.9l-.75,1.16h-1l1.84-2.64-1.75-2.53Z"/><path class="cls-2" d="M41.35,96.12l3-7.75h.73l-3,7.75Z"/><path class="cls-2" d="M47.77,95.7v-.58l.74-.72c1.77-1.69,2.57-2.59,2.59-3.63a1.24,1.24,0,0,0-1.38-1.36,2.36,2.36,0,0,0-1.47.59l-.3-.66a3,3,0,0,1,2-.7,2,2,0,0,1,2.13,2c0,1.28-.93,2.32-2.39,3.73l-.56.51v0H52.2v.78Z"/><path class="cls-2" d="M53.32,95.14a.63.63,0,0,1,.64-.67.67.67,0,1,1-.64.67Z"/><path class="cls-2" d="M55.46,95.7v-.58l.74-.72c1.77-1.69,2.57-2.59,2.59-3.63a1.24,1.24,0,0,0-1.38-1.36,2.36,2.36,0,0,0-1.47.59l-.3-.66a3,3,0,0,1,2-.7,2,2,0,0,1,2.13,2c0,1.28-.93,2.32-2.39,3.73l-.56.51v0h3.12v.78Z"/><path class="cls-2" d="M65.08,89.54H62.43l-.27,1.78a3.74,3.74,0,0,1,.57,0,2.93,2.93,0,0,1,1.5.37,2,2,0,0,1,1,1.78,2.41,2.41,0,0,1-2.59,2.37,3.4,3.4,0,0,1-1.73-.43l.24-.72a3.11,3.11,0,0,0,1.48.38,1.53,1.53,0,0,0,1.65-1.51c0-.9-.61-1.54-2-1.54a7.19,7.19,0,0,0-1,.07l.45-3.33h3.32Z"/><path class="cls-2" d="M67.24,93.28A1.66,1.66,0,0,0,69,95.08a3.4,3.4,0,0,0,1.43-.27l.16.67a4.19,4.19,0,0,1-1.72.32,2.4,2.4,0,0,1-2.54-2.61,2.51,2.51,0,0,1,2.42-2.79,2.19,2.19,0,0,1,2.14,2.44,3.63,3.63,0,0,1,0,.44ZM70,92.61a1.34,1.34,0,0,0-1.3-1.53,1.56,1.56,0,0,0-1.44,1.53Z"/><path class="cls-2" d="M72.06,91.93c0-.53,0-1,0-1.4h.82l0,.83h0a1.78,1.78,0,0,1,1.62-1,1.53,1.53,0,0,1,1.46,1h0a2.13,2.13,0,0,1,.58-.67,1.77,1.77,0,0,1,1.14-.36c.68,0,1.7.45,1.7,2.24v3h-.92V92.77c0-1-.36-1.59-1.12-1.59a1.22,1.22,0,0,0-1.11.85,1.56,1.56,0,0,0-.07.47V95.7H75.3V92.6c0-.82-.36-1.42-1.08-1.42A1.4,1.4,0,0,0,73,92.58V95.7h-.92Z"/><rect class="cls-4" y="42.87" width="13.35" height="66.63"/><path class="cls-2" d="M3.81,46.52h.58l.72.74C6.79,49,7.68,49.83,8.73,49.84a1.24,1.24,0,0,0,1.36-1.38A2.36,2.36,0,0,0,9.5,47l.66-.3a3,3,0,0,1,.7,2,2,2,0,0,1-2,2.13c-1.28,0-2.32-.93-3.73-2.39l-.51-.56h0V51H3.81Z"/><path class="cls-2" d="M7.35,56.61c-2.36,0-3.66-.88-3.66-2.41,0-1.36,1.27-2.28,3.57-2.3s3.61,1,3.61,2.41S9.57,56.61,7.35,56.61Zm-.11-3.77c-1.81,0-2.83.56-2.83,1.41s1.12,1.42,2.89,1.42,2.83-.44,2.83-1.41S9.14,52.84,7.25,52.84Z"/><path class="cls-2" d="M7.29,57.78c.66,0,1.2,0,1.69,0v.84l-.89,0v0a2,2,0,0,1,1,1.84,2.34,2.34,0,0,1-2.63,2.19c-1.86,0-2.78-1.13-2.78-2.35a1.81,1.81,0,0,1,.81-1.59v0H1.69v-.93Zm-1.38.93a2.1,2.1,0,0,0-.38,0,1.45,1.45,0,0,0-1.1,1.41c0,1,.81,1.57,2,1.57s1.92-.54,1.92-1.54a1.5,1.5,0,0,0-1.16-1.42,1.5,1.5,0,0,0-.38-.06Z"/><path class="cls-2" d="M9,64.14l-1.11.74c-.29.19-.56.35-.84.52v0c.31.17.58.34.86.51l1.1.73v1l-2.5-1.76L3.81,67.74V66.67L5,65.91c.3-.2.59-.37.9-.56v0c-.31-.17-.59-.35-.9-.54L3.81,64V63l2.64,1.84L9,63.09Z"/><path class="cls-2" d="M3.38,70.12l7.75,3v.73l-7.75-3Z"/><path class="cls-2" d="M9.87,78.58v0l-.65-1.21.72-.18.81,1.52v.8H3.81v-.91Z"/><path class="cls-2" d="M4.36,82.09a.63.63,0,0,1,.67.64.62.62,0,0,1-.67.63.64.64,0,1,1,0-1.27Z"/><path class="cls-2" d="M3.81,84.23h.58L5.1,85c1.69,1.77,2.59,2.57,3.63,2.59a1.24,1.24,0,0,0,1.36-1.38A2.36,2.36,0,0,0,9.5,84.7l.66-.3a3,3,0,0,1,.7,2,2,2,0,0,1-2,2.13c-1.28,0-2.32-.93-3.73-2.39l-.51-.56h0v3.12H3.81Z"/><path class="cls-2" d="M10,93.85V91.2l-1.78-.27a3.69,3.69,0,0,1,0,.57A2.93,2.93,0,0,1,7.85,93a2,2,0,0,1-1.78,1A2.41,2.41,0,0,1,3.69,91.4a3.4,3.4,0,0,1,.43-1.73l.72.23a3.11,3.11,0,0,0-.38,1.49A1.53,1.53,0,0,0,6,93c.9,0,1.54-.61,1.54-2a7.07,7.07,0,0,0-.08-1l3.33.45v3.32Z"/></g></svg>