<svg xmlns="http://www.w3.org/2000/svg" xmlns:xlink="http://www.w3.org/1999/xlink" viewBox="0 0 455.68 405.29"><defs><style>.cls-1,.cls-41,.cls-58{font-size:9.14px;}.cls-1,.cls-34,.cls-41,.cls-49,.cls-61{font-family:Roboto-Regular, Roboto;}.cls-12,.cls-15,.cls-16,.cls-2,.cls-27,.cls-28,.cls-3,.cls-34,.cls-4{fill:#757575;}.cls-10,.cls-3{letter-spacing:-0.25em;}.cls-4{letter-spacing:-0.02em;}.cls-5{fill:#9e9e9e;}.cls-6{letter-spacing:0.74em;}.cls-14,.cls-18,.cls-19,.cls-24,.cls-25,.cls-41,.cls-49,.cls-58,.cls-7,.cls-9{fill:#424242;}.cls-7{letter-spacing:0.04em;}.cls-8{letter-spacing:0.82em;}.cls-11{letter-spacing:0.91em;}.cls-12{letter-spacing:-0.03em;}.cls-13{letter-spacing:0.98em;}.cls-14,.cls-63{letter-spacing:-0.01em;}.cls-15{letter-spacing:0.01em;}.cls-16{letter-spacing:-0.01em;}.cls-17{letter-spacing:0.96em;}.cls-18{letter-spacing:-0.02em;}.cls-19,.cls-62{letter-spacing:-0.01em;}.cls-20{fill:#0e7c84;}.cls-21,.cls-34,.cls-51{font-size:8px;}.cls-21,.cls-65{fill:#fff;}.cls-21{font-family:Roboto-Medium, Roboto;}.cls-22{letter-spacing:-0.06em;}.cls-23,.cls-66{fill:none;}.cls-23{stroke:#d8d8d8;}.cls-23,.cls-50,.cls-66{stroke-miterlimit:10;}.cls-24{font-size:27.43px;}.cls-24,.cls-56,.cls-57{font-family:Roboto-Thin, Roboto;}.cls-25{fill-rule:evenodd;}.cls-26{font-size:6.45px;font-family:OpenSans-Bold, Open Sans;}.cls-27,.cls-29,.cls-30{font-weight:700;}.cls-28,.cls-32{font-family:OpenSans-Light, Open Sans;}.cls-30{letter-spacing:0em;}.cls-31,.cls-33{font-family:OpenSans, Open Sans;}.cls-31{letter-spacing:0em;}.cls-35{letter-spacing:-0.08em;}.cls-36{letter-spacing:-0.06em;}.cls-37{letter-spacing:-0.04em;}.cls-38{letter-spacing:-0.02em;}.cls-39{letter-spacing:-0.03em;}.cls-40{letter-spacing:0em;}.cls-42{letter-spacing:0.02em;}.cls-43{letter-spacing:-0.01em;}.cls-44{letter-spacing:-0.02em;}.cls-45{letter-spacing:-0.03em;}.cls-46{letter-spacing:-0.03em;}.cls-47{letter-spacing:-0.02em;}.cls-48{letter-spacing:-0.02em;}.cls-49{font-size:13.72px;}.cls-50{fill:#f5f5f5;}.cls-50,.cls-66{stroke:#e7e7e7;}.cls-51{fill:#16b9d4;font-family:Roboto-Light, Roboto;}.cls-52,.cls-55,.cls-56,.cls-57{fill:#e0e0e0;}.cls-53,.cls-55{letter-spacing:0em;}.cls-54{letter-spacing:0.02em;}.cls-56,.cls-57{font-size:6.86px;}.cls-57{letter-spacing:0em;}.cls-58{font-family:Roboto-Bold, Roboto;}.cls-59{letter-spacing:-0.02em;}.cls-60{letter-spacing:-0.01em;}.cls-64{fill:#b1b3b6;}.cls-66{stroke-width:0.5px;}</style></defs><title>Email Detail</title><g id="Email_Content" data-name="Email Content"><text class="cls-1" transform="translate(20.77 181.44)"><tspan class="cls-2" xml:space="preserve">   </tspan><tspan class="cls-3" x="6.79" y="0">	</tspan><tspan class="cls-2" x="6.79" y="0" xml:space="preserve">                     </tspan><tspan class="cls-4" x="54.33" y="0"> </tspan><tspan class="cls-2" x="56.41" y="0">Ticket #:</tspan><tspan class="cls-5" x="91.45" y="0"> </tspan><tspan class="cls-6" x="93.72" y="0">	</tspan><tspan class="cls-7" x="102.71" y="0">160722-dfw-0002654</tspan><tspan class="cls-2" x="0" y="13.72">Rackspace Account #:</tspan><tspan class="cls-5" x="90.68" y="13.72"> </tspan><tspan class="cls-8" x="92.95" y="13.72">	</tspan><tspan class="cls-9" x="102.71" y="13.72">809507</tspan><tspan class="cls-9"><tspan class="cls-10" x="0" y="27.43">	</tspan><tspan x="0" y="27.43" xml:space="preserve">            </tspan><tspan class="cls-2" x="27.16" y="27.43">Account Name:</tspan><tspan x="89.83" y="27.43"> </tspan><tspan class="cls-11" x="92.09" y="27.43">	</tspan><tspan x="102.71" y="27.43">Tech Bizness</tspan></tspan><tspan class="cls-3" x="0" y="41.15">	</tspan><tspan class="cls-2" x="0" y="41.15" xml:space="preserve">              </tspan><tspan class="cls-12" x="31.69" y="41.15">A</tspan><tspan class="cls-2" x="37.35" y="41.15">WS Account: </tspan><tspan class="cls-13" x="91.46" y="41.15">	</tspan><tspan class="cls-9" x="102.71" y="41.15">Janus P</tspan><tspan class="cls-14" x="135.56" y="41.15">r</tspan><tspan class="cls-9" x="138.57" y="41.15">oduction (239820420054)</tspan><tspan class="cls-3" x="0" y="54.87">	</tspan><tspan class="cls-2" x="0" y="54.87" xml:space="preserve">               Se</tspan><tspan class="cls-15" x="44.23" y="54.87">r</tspan><tspan class="cls-2" x="47.4" y="54.87">vice L</tspan><tspan class="cls-16" x="70.87" y="54.87">e</tspan><tspan class="cls-2" x="75.65" y="54.87">vel: </tspan><tspan class="cls-17" x="91.63" y="54.87">	</tspan><tspan class="cls-18" x="102.71" y="54.87">A</tspan><tspan class="cls-9" x="108.45" y="54.87">via</tspan><tspan class="cls-19" x="120.07" y="54.87">t</tspan><tspan class="cls-9" x="122.97" y="54.87">or</tspan></text><rect class="cls-20" x="12.39" y="273.36" width="103.07" height="18.29" rx="2.07" ry="2.07"/><text class="cls-21" transform="translate(38.53 285.59)">VIEW UPD<tspan class="cls-22" x="36.55" y="0">A</tspan><tspan x="41.41" y="0">TE</tspan></text><line class="cls-23" x1="444.45" y1="108.89" x2="12.47" y2="108.89"/><line class="cls-23" x1="12.47" y1="52.68" x2="444.83" y2="52.68"/><text class="cls-24" transform="translate(12.15 95.88)">Ticket</text><path class="cls-25" d="M354,84.32c-.34.72-.21,1.32.31,1.33a2.12,2.12,0,0,0,1.55-1.29c.34-.72.21-1.32-.31-1.33A2.12,2.12,0,0,0,354,84.32Zm4.17-2.61h0a12.4,12.4,0,0,1-1.32,2.6c-1.06,1.57-2.58,2.57-3.4,2.22s-.62-1.91.44-3.48a7.56,7.56,0,0,1,.77-1h0a9.41,9.41,0,0,0-1,.2h0a22.91,22.91,0,0,0-4.9,15.19h0A6.21,6.21,0,0,1,344.92,92v0c-.27-4.59,3.4-9.3,8.18-10.51A8.12,8.12,0,0,1,358.17,81.71Z"/><path class="cls-25" d="M356.82,94.1a11.13,11.13,0,0,1-1.09.67h0A8.72,8.72,0,0,0,355,91.7c-1.1-2.37-3-2.56-4.28-.41a9.32,9.32,0,0,0-1,5h0a8.31,8.31,0,0,0,4.54.05c4.78-1.22,8.43-5.92,8.17-10.51a6.68,6.68,0,0,0-7.42-6.4h0q-.58.59-1.1,1.19h0a7.21,7.21,0,0,1,5.46,1.16h0c-4.23,6-3.71,9.37-2.53,12.24h0Z"/><path class="cls-25" d="M396.31,87.27a4.56,4.56,0,0,1,2.09.42h0l-.34,1.81h0a4.1,4.1,0,0,0-1.85-.46c-.63,0-1,.26-1,.71s.31.6,1,.92c.87.43,1.84,1.07,1.84,2.23a2.55,2.55,0,0,1-.75,1.88,4.2,4.2,0,0,1-3,1,4.86,4.86,0,0,1-2.5-.64h0l.35-1.82h0a5.27,5.27,0,0,0,2.37.7c.6,0,1-.28,1-.72s-.28-.69-1-1c-1.15-.58-1.73-1.3-1.73-2.17C392.7,88.42,394.15,87.27,396.31,87.27Z"/><path class="cls-9" d="M386.05,84.57h2.4l-1.25,6.57h0l3.21-3.71h2.64l-3.33,3.75,2,4.41h-2.61l-2-4.36h0l-.83,4.36h-2.41l2.1-11Z"/><path class="cls-25" d="M382.82,87.29a4.7,4.7,0,0,1,1.68.28h0l-.37,1.95h0a2.65,2.65,0,0,0-1.33-.31,2.84,2.84,0,0,0-2.76,3,1.52,1.52,0,0,0,1.59,1.67,4.28,4.28,0,0,0,2-.51h0l-.38,2h0a5.7,5.7,0,0,1-2.33.44,3.19,3.19,0,0,1-3.45-3.35A5.14,5.14,0,0,1,382.82,87.29Z"/><path class="cls-9" d="M369.79,87.26a2.74,2.74,0,0,1,.45,0h0l-.47,2.35h0a1.94,1.94,0,0,0-.38,0c-1.65,0-2.29,1.61-2.54,2.95l-.59,3.14h-2.43l1.57-8.26h2.14l-.11.56a2.58,2.58,0,0,1-.37,1l0,0a.15.15,0,0,0,.08.19.15.15,0,0,0,.2-.06v0a2.12,2.12,0,0,1,.47-.92A2.65,2.65,0,0,1,369.79,87.26Z"/><path class="cls-25" d="M424.85,90.71h0a2.85,2.85,0,0,0,1.82-.47.66.66,0,0,0,.2-.49c0-.42-.35-.69-.87-.69a1.91,1.91,0,0,0-1.68,1.06l0,0c-.23.43-.3.48-.51.61l0,0a.15.15,0,0,0,0,.21.15.15,0,0,0,.2,0l0,0C424.19,90.81,424.22,90.73,424.85,90.71Zm1.48-3.43c1.71,0,2.85,1,2.85,2.47a2.24,2.24,0,0,1-.66,1.67c-.74.72-2.06,1.08-4.06,1.09h0a.64.64,0,0,1-.67-.4l0,0a.15.15,0,0,0-.21,0,.15.15,0,0,0,0,.2l0,0a.93.93,0,0,1,.39.57,1.37,1.37,0,0,0,.2.45,1.93,1.93,0,0,0,1.56.61,5.41,5.41,0,0,0,2.83-.79h0l-.38,2h0a7.13,7.13,0,0,1-3,.65c-2.26,0-3.55-1.26-3.55-3.45a5.42,5.42,0,0,1,1.27-3.48A4.54,4.54,0,0,1,426.33,87.27Z"/><path class="cls-9" d="M402,94c1.28,0,2.21-1.81,2.21-3.41,0-.39-.09-1.32-1-1.32s-1.67,1-2,2.6C401.16,92.38,400.87,94,402,94Zm-.17-6.58-.07.38a1.9,1.9,0,0,1-.4,1l0,0a.14.14,0,0,0,.06.19.16.16,0,0,0,.21,0v0a2,2,0,0,1,.53-.88,3,3,0,0,1,1.93-.74c1.61,0,2.65,1.22,2.65,3.12a5.6,5.6,0,0,1-2.68,5,3,3,0,0,1-3.16.08.88.88,0,0,1-.2-.52v0a.16.16,0,0,0-.3.1v0a.82.82,0,0,1,.16.51L400,98.27h-2.43l2.07-10.86h2.14Z"/><path class="cls-25" d="M420.33,87.29a4.7,4.7,0,0,1,1.67.28h0l-.37,1.95h0a2.65,2.65,0,0,0-1.33-.31,2.84,2.84,0,0,0-2.76,3,1.52,1.52,0,0,0,1.59,1.67,4.28,4.28,0,0,0,2-.51h0l-.38,2h0a5.7,5.7,0,0,1-2.33.44A3.19,3.19,0,0,1,415,92.46,5.14,5.14,0,0,1,420.33,87.29Z"/><path class="cls-9" d="M410.49,89.61a4.48,4.48,0,0,0-1.14,2.86c0,.86.32,1.39.87,1.39.88,0,1.65-.92,1.91-2.28.06-.3.12-.61.16-.88a3.74,3.74,0,0,0,.06-.68.81.81,0,0,0-.87-.89A1.44,1.44,0,0,0,410.49,89.61Zm.9,6,.07-.37a3.3,3.3,0,0,1,.43-.93l0,0a.16.16,0,0,0-.08-.2.16.16,0,0,0-.21.07v0a1.8,1.8,0,0,1-.51.93,2.76,2.76,0,0,1-1.86.69c-1.62,0-2.34-1.43-2.35-2.87a6.19,6.19,0,0,1,1.71-4.32A4.64,4.64,0,0,1,412,87.27a2.68,2.68,0,0,1,2.17.84,3.65,3.65,0,0,1,.45,2.95l-.87,4.58h-2.32Z"/><path class="cls-9" d="M373,89.61a4.48,4.48,0,0,0-1.14,2.86c0,.86.32,1.39.87,1.39.88,0,1.65-.92,1.91-2.28.06-.3.12-.61.16-.88a3.75,3.75,0,0,0,.06-.68.81.81,0,0,0-.87-.89A1.44,1.44,0,0,0,373,89.61Zm.9,6,.07-.37a3.3,3.3,0,0,1,.43-.93l0,0a.16.16,0,0,0-.08-.2.16.16,0,0,0-.21.07v0a1.8,1.8,0,0,1-.51.93,2.76,2.76,0,0,1-1.86.69c-1.62,0-2.34-1.43-2.35-2.87a6.19,6.19,0,0,1,1.71-4.32,4.64,4.64,0,0,1,3.35-1.37,2.69,2.69,0,0,1,2.17.84,3.65,3.65,0,0,1,.45,2.95l-.87,4.58h-2.32Z"/><path class="cls-9" d="M429.19,94.8a.81.81,0,0,0,.82.9,1,1,0,0,0,1-.93.81.81,0,0,0-.82-.9A1,1,0,0,0,429.19,94.8Zm-.14,0a1.18,1.18,0,0,1,1.15-1.06,1,1,0,0,1,1,1.06A1.18,1.18,0,0,1,430,95.84,1,1,0,0,1,429,94.78Zm.83-.63h.42l.12,0a.29.29,0,0,1,.21.29.36.36,0,0,1,0,.07.44.44,0,0,1-.33.36l.17.5h-.18l-.16-.48h-.23l-.09.47h-.15l.09-.48h0l.07-.38Zm.24.15H430l0,.23,0,.23h.26l.09,0a.28.28,0,0,0,.21-.21.17.17,0,0,0-.13-.21l-.08,0h-.14Z"/><text class="cls-26" transform="translate(12.73 13.71)"><tspan class="cls-27">From:</tspan><tspan class="cls-28" x="18.64" y="0"> </tspan><tspan class="cls-29" x="20.31" y="0">Fanatical Support for AWS - Rackspace Tickets (noreply@tickets.rackspace.com)</tspan><tspan class="cls-27" x="0" y="7.74">Date:</tspan><tspan class="cls-30" x="17.12" y="7.74"> </tspan><tspan class="cls-31" x="18.8" y="7.74">Wednesday, December 7, 2016 at 10:53 AM</tspan><tspan class="cls-27" x="0" y="15.48">To:</tspan><tspan class="cls-32" x="9.57" y="15.48"> </tspan><tspan class="cls-33" x="11.24" y="15.48">Julie Customer &lt;julie.customer@company.co&gt;</tspan><tspan class="cls-29"><tspan class="cls-2" x="0" y="23.22">Subject:</tspan><tspan x="25.61" y="23.22" xml:space="preserve"> Investigate Site Down Occurrence Ticket#:  170131-iad-0001186</tspan></tspan><tspan class="cls-32"><tspan x="0" y="30.96"> </tspan></tspan></text><text class="cls-34" transform="translate(12.71 70.46)"><tspan class="cls-35">F</tspan><tspan x="3.76" y="0">AN</tspan><tspan class="cls-36" x="14.68" y="0">A</tspan><tspan x="19.4" y="0">TICAL SUPPO</tspan><tspan class="cls-37" x="68.6" y="0">R</tspan><tspan class="cls-38" x="73.21" y="0">T</tspan><tspan x="77.83" y="0" xml:space="preserve"> FOR </tspan><tspan class="cls-39" x="96.64" y="0">A</tspan><tspan class="cls-40" x="101.59" y="0">WS</tspan></text><text class="cls-41" transform="translate(12.46 160.32)">A Rackspace suppo<tspan class="cls-42" x="80.21" y="0">r</tspan><tspan x="83.53" y="0">t ticket update is </tspan><tspan class="cls-43" x="153.1" y="0">av</tspan><tspan x="162.37" y="0">ailable for your </tspan><tspan class="cls-44" x="224.9" y="0">F</tspan><tspan x="229.81" y="0">anatical Suppo</tspan><tspan class="cls-42" x="290.2" y="0">r</tspan><tspan x="293.52" y="0">t for </tspan><tspan class="cls-45" x="312.52" y="0">A</tspan><tspan x="318.17" y="0">WS account. </tspan></text><text class="cls-41" transform="translate(11.71 259.12)"><tspan class="cls-46">Y</tspan><tspan x="5.2" y="0">our </tspan><tspan class="cls-47" x="20.82" y="0">F</tspan><tspan x="25.72" y="0">anatical Suppo</tspan><tspan class="cls-42" x="86.11" y="0">r</tspan><tspan x="89.43" y="0">t for </tspan><tspan class="cls-45" x="108.43" y="0">A</tspan><tspan x="114.09" y="0">WS</tspan><tspan class="cls-48" x="127.63" y="0"> </tspan><tspan x="129.71" y="0">Team</tspan></text><text class="cls-49" transform="translate(11.45 136.97)">Update</text><rect class="cls-50" y="313.08" width="456.1" height="62.83"/><rect y="375.01" width="457.24" height="29.19"/><text class="cls-51" transform="translate(106.25 392.63)"><tspan xml:space="preserve">Edit Notification Settings   </tspan><tspan class="cls-52" x="92.4" y="0">|</tspan><tspan class="cls-53" x="94.17" y="0" xml:space="preserve">   Suppo</tspan><tspan class="cls-54" x="122.49" y="0">r</tspan><tspan x="125.38" y="0" xml:space="preserve">t: 1-800-961-4454  </tspan><tspan class="cls-52" x="191.12" y="0" xml:space="preserve"> |</tspan><tspan x="194.83" y="0" xml:space="preserve">   Email Us   </tspan><tspan class="cls-55" x="237.27" y="0">| </tspan><tspan class="cls-53" x="240.99" y="0" xml:space="preserve">  Chat  </tspan></text><text class="cls-56" transform="translate(12.44 392.46)">© </text><text class="cls-57" transform="translate(19.66 390.18) scale(0.58)"><tspan xml:space="preserve">  </tspan></text><text class="cls-56" transform="translate(21.58 392.46)">2017 Rackspace US, Inc. </text><text class="cls-58" transform="translate(11.78 333.95)"><tspan class="cls-29"><tspan class="cls-59">W</tspan><tspan x="7.85" y="0">ant </tspan><tspan class="cls-60" x="23.24" y="0">t</tspan><tspan x="26.2" y="0">o manage all your tickts on-the-go? </tspan></tspan><tspan class="cls-61"><tspan x="0" y="13.72">Download our app </tspan><tspan class="cls-62" x="76.08" y="13.72">t</tspan><tspan x="78.97" y="13.72">o quickly view p</tspan><tspan class="cls-63" x="142.9" y="13.72">r</tspan><tspan x="145.91" y="13.72">odcut status and </tspan><tspan x="0" y="27.43">communications f</tspan><tspan class="cls-62" x="73.72" y="27.43">r</tspan><tspan x="76.73" y="27.43">om Rackspace.</tspan></tspan></text><path class="cls-64" d="M337.4,355.84H265.69a2.71,2.71,0,0,1-2.7-2.71V335.68a2.71,2.71,0,0,1,2.7-2.7H337.4a2.74,2.74,0,0,1,2.75,2.7v17.46a2.75,2.75,0,0,1-2.75,2.71Z"/><path d="M339.59,353.14a2.19,2.19,0,0,1-2.19,2.19H265.69a2.19,2.19,0,0,1-2.19-2.19V335.68a2.19,2.19,0,0,1,2.19-2.19H337.4a2.19,2.19,0,0,1,2.19,2.19v17.46Z"/><path class="cls-65" d="M280.2,344.29a3.31,3.31,0,0,1,1.58-2.78,3.39,3.39,0,0,0-2.67-1.44c-1.12-.12-2.21.67-2.79.67s-1.47-.66-2.42-.64a3.56,3.56,0,0,0-3,1.83c-1.29,2.24-.33,5.54.91,7.35.62.89,1.35,1.88,2.3,1.84s1.28-.59,2.4-.59,1.44.59,2.4.57,1.62-.89,2.22-1.79a7.34,7.34,0,0,0,1-2.07,3.2,3.2,0,0,1-2-2.95Z"/><path class="cls-65" d="M278.37,338.87a3.26,3.26,0,0,0,.75-2.34,3.32,3.32,0,0,0-2.15,1.11,3.1,3.1,0,0,0-.77,2.25,2.74,2.74,0,0,0,2.17-1Z"/><path class="cls-65" d="M291.42,347.82l-.64-2q-.1-.3-.38-1.43h0q-.11.49-.36,1.43l-.63,2Zm2.22,3.17h-1.3l-.71-2.23h-2.47l-.68,2.23h-1.26l2.45-7.61h1.51l2.46,7.61Z"/><path class="cls-65" d="M298.7,348.22a2.26,2.26,0,0,0-.36-1.32,1.25,1.25,0,0,0-1.06-.54,1.27,1.27,0,0,0-.82.3,1.39,1.39,0,0,0-.48.78,1.6,1.6,0,0,0-.06.37v.91a1.46,1.46,0,0,0,.37,1,1.22,1.22,0,0,0,1,.41,1.25,1.25,0,0,0,1.07-.53,2.34,2.34,0,0,0,.38-1.4Zm1.24,0a3.12,3.12,0,0,1-.76,2.21,2.21,2.21,0,0,1-1.68.72,1.68,1.68,0,0,1-1.56-.78h0v2.89h-1.22v-5.91q0-.88,0-1.81h1.07l.07.87h0a2.17,2.17,0,0,1,3.47-.21,3,3,0,0,1,.65,2Z"/><path class="cls-65" d="M305,348.22a2.26,2.26,0,0,0-.36-1.32,1.25,1.25,0,0,0-1.06-.54,1.27,1.27,0,0,0-.82.3,1.39,1.39,0,0,0-.48.78,1.61,1.61,0,0,0-.06.37v.91a1.47,1.47,0,0,0,.37,1,1.22,1.22,0,0,0,1,.41,1.25,1.25,0,0,0,1.07-.53,2.34,2.34,0,0,0,.38-1.4Zm1.24,0a3.12,3.12,0,0,1-.76,2.21,2.21,2.21,0,0,1-1.68.72,1.68,1.68,0,0,1-1.56-.78h0v2.89H301v-5.91q0-.88,0-1.81H302l.07.87h0a2.17,2.17,0,0,1,3.47-.21,3,3,0,0,1,.65,2Z"/><path class="cls-65" d="M313.3,348.86a2,2,0,0,1-.68,1.58,3,3,0,0,1-2.07.67,3.63,3.63,0,0,1-2-.47l.28-1a3.34,3.34,0,0,0,1.76.49,1.66,1.66,0,0,0,1.07-.31,1,1,0,0,0,.38-.83,1.06,1.06,0,0,0-.32-.78,2.94,2.94,0,0,0-1-.59q-2-.75-2-2.18a1.93,1.93,0,0,1,.7-1.54,2.76,2.76,0,0,1,1.86-.6,3.69,3.69,0,0,1,1.73.36l-.3,1a3,3,0,0,0-1.46-.35,1.47,1.47,0,0,0-1,.32.9.9,0,0,0-.3.69.93.93,0,0,0,.35.74,4,4,0,0,0,1.11.59,3.76,3.76,0,0,1,1.44.92,1.94,1.94,0,0,1,.46,1.32Z"/><path class="cls-65" d="M317.33,346.42H316v2.66q0,1,.71,1a2.19,2.19,0,0,0,.54-.06l0,.93a2.76,2.76,0,0,1-.95.14,1.46,1.46,0,0,1-1.13-.44,2.16,2.16,0,0,1-.41-1.48v-2.76H314v-.91h.8v-1l1.2-.36v1.37h1.34v.91Z"/><path class="cls-65" d="M322.13,348.24a2.47,2.47,0,0,0-.33-1.3,1.2,1.2,0,0,0-1.09-.66,1.22,1.22,0,0,0-1.12.66,2.52,2.52,0,0,0-.33,1.32,2.47,2.47,0,0,0,.33,1.3,1.25,1.25,0,0,0,2.2,0,2.48,2.48,0,0,0,.34-1.31Zm1.26,0a3,3,0,0,1-.72,2.08,2.58,2.58,0,0,1-2,.83,2.45,2.45,0,0,1-1.92-.8,2.92,2.92,0,0,1-.72-2,3,3,0,0,1,.74-2.09,2.56,2.56,0,0,1,2-.81,2.51,2.51,0,0,1,1.94.8,2.89,2.89,0,0,1,.7,2Z"/><path class="cls-65" d="M327.35,346.58a2.11,2.11,0,0,0-.38,0,1.15,1.15,0,0,0-1,.49,1.82,1.82,0,0,0-.3,1.08V351h-1.22v-3.76q0-.95,0-1.73h1.06l0,1h0a1.88,1.88,0,0,1,.61-.87,1.47,1.47,0,0,1,.88-.29l.3,0v1.16Z"/><path class="cls-65" d="M331.64,347.67a1.66,1.66,0,0,0-.24-.94,1.06,1.06,0,0,0-1-.51,1.16,1.16,0,0,0-1,.5,1.81,1.81,0,0,0-.36.95Zm1.16.32a2.86,2.86,0,0,1,0,.55H329.1a1.59,1.59,0,0,0,.53,1.24,1.81,1.81,0,0,0,1.2.38,4,4,0,0,0,1.48-.26l.19.85a4.58,4.58,0,0,1-1.84.34,2.66,2.66,0,0,1-2-.75,2.77,2.77,0,0,1-.73-2,3.14,3.14,0,0,1,.68-2.07,2.33,2.33,0,0,1,1.92-.88,2,2,0,0,1,1.8.88,3,3,0,0,1,.48,1.73Z"/><path class="cls-65" d="M290.39,338.72a1.22,1.22,0,0,0-1.36-1.35,2.56,2.56,0,0,0-.48,0v2.79l.4,0a1.42,1.42,0,0,0,1.06-.38,1.53,1.53,0,0,0,.37-1.11Zm.63,0a1.88,1.88,0,0,1-.6,1.52,2.4,2.4,0,0,1-1.59.47,7.42,7.42,0,0,1-.88,0V337a6.44,6.44,0,0,1,1-.08,2.22,2.22,0,0,1,1.48.43,1.72,1.72,0,0,1,.56,1.38Z"/><path class="cls-65" d="M293.75,339.31a1.22,1.22,0,0,0-.16-.64.59.59,0,0,0-.54-.32.6.6,0,0,0-.55.32,1.24,1.24,0,0,0-.16.65,1.22,1.22,0,0,0,.16.64.61.61,0,0,0,1.08,0,1.21,1.21,0,0,0,.17-.64Zm.62,0a1.48,1.48,0,0,1-.35,1,1.27,1.27,0,0,1-1,.41,1.21,1.21,0,0,1-.95-.39,1.43,1.43,0,0,1-.35-1,1.46,1.46,0,0,1,.36-1,1.26,1.26,0,0,1,1-.4,1.23,1.23,0,0,1,1,.39,1.42,1.42,0,0,1,.34,1Z"/><path class="cls-65" d="M298.86,338l-.84,2.69h-.55l-.35-1.17a8.65,8.65,0,0,1-.22-.87h0a6.35,6.35,0,0,1-.22.87l-.37,1.17h-.55L295,338h.62l.3,1.28q.11.45.18.86h0q.07-.34.22-.86l.38-1.29h.49l.37,1.26q.13.46.22.89h0a8.43,8.43,0,0,1,.18-.89l.33-1.26Z"/><path class="cls-65" d="M302,340.66h-.6v-1.54q0-.71-.54-.71a.54.54,0,0,0-.43.2.69.69,0,0,0-.17.46v1.6h-.6v-1.92q0-.35,0-.77h.53l0,.42h0a.86.86,0,0,1,.31-.33,1,1,0,0,1,.54-.15.86.86,0,0,1,.63.24,1.18,1.18,0,0,1,.31.89v1.61Z"/><polygon class="cls-65" points="303.62 340.66 303.02 340.66 303.02 336.73 303.62 336.73 303.62 340.66 303.62 340.66"/><path class="cls-65" d="M306.52,339.31a1.22,1.22,0,0,0-.16-.64.59.59,0,0,0-.54-.32.6.6,0,0,0-.55.32,1.24,1.24,0,0,0-.16.65,1.22,1.22,0,0,0,.16.64.6.6,0,0,0,.54.32.6.6,0,0,0,.54-.33,1.21,1.21,0,0,0,.17-.64Zm.62,0a1.48,1.48,0,0,1-.35,1,1.27,1.27,0,0,1-1,.41,1.2,1.2,0,0,1-.95-.39,1.43,1.43,0,0,1-.35-1,1.46,1.46,0,0,1,.36-1,1.26,1.26,0,0,1,1-.4,1.23,1.23,0,0,1,1,.39,1.42,1.42,0,0,1,.34,1Z"/><path class="cls-65" d="M309.42,339.73v-.42q-1,0-1,.54a.41.41,0,0,0,.12.32.42.42,0,0,0,.29.11.6.6,0,0,0,.37-.12.51.51,0,0,0,.21-.32.48.48,0,0,0,0-.11Zm.62.93h-.54l0-.31h0a.92.92,0,0,1-.79.37.81.81,0,0,1-.62-.24.76.76,0,0,1-.21-.55.84.84,0,0,1,.41-.75,2.15,2.15,0,0,1,1.16-.26v0q0-.53-.56-.53a1.25,1.25,0,0,0-.7.2l-.12-.39a1.72,1.72,0,0,1,.92-.23q1.06,0,1.06,1.11v1a4.21,4.21,0,0,0,0,.64Z"/><path class="cls-65" d="M312.82,339.52v-.45a.86.86,0,0,0,0-.19.68.68,0,0,0-.22-.36.59.59,0,0,0-.4-.15.62.62,0,0,0-.53.27,1.14,1.14,0,0,0-.19.68,1.07,1.07,0,0,0,.18.65.62.62,0,0,0,.52.27.58.58,0,0,0,.47-.22.74.74,0,0,0,.17-.49Zm.62,1.14h-.53l0-.43h0a.9.9,0,0,1-.87.49,1,1,0,0,1-.81-.38,1.49,1.49,0,0,1-.32-1,1.56,1.56,0,0,1,.35-1.06,1.07,1.07,0,0,1,.83-.38.81.81,0,0,1,.76.37h0v-1.55h.6v3.2q0,.39,0,.73Z"/><path class="cls-65" d="M317.95,339.31a1.22,1.22,0,0,0-.16-.64.59.59,0,0,0-.54-.32.6.6,0,0,0-.55.32,1.24,1.24,0,0,0-.16.65,1.22,1.22,0,0,0,.16.64.61.61,0,0,0,1.08,0,1.22,1.22,0,0,0,.17-.64Zm.62,0a1.48,1.48,0,0,1-.35,1,1.27,1.27,0,0,1-1,.41,1.21,1.21,0,0,1-.95-.39,1.43,1.43,0,0,1-.35-1,1.46,1.46,0,0,1,.36-1,1.26,1.26,0,0,1,1-.4,1.23,1.23,0,0,1,1,.39,1.42,1.42,0,0,1,.34,1Z"/><path class="cls-65" d="M321.79,340.66h-.6v-1.54q0-.71-.54-.71a.54.54,0,0,0-.43.2.69.69,0,0,0-.17.46v1.6h-.6v-1.92q0-.35,0-.77H320l0,.42h0a.87.87,0,0,1,.31-.33,1,1,0,0,1,.54-.15.86.86,0,0,1,.63.24,1.18,1.18,0,0,1,.31.89v1.61Z"/><path class="cls-65" d="M325.82,338.41h-.66v1.31c0,.33.12.5.35.5a1.06,1.06,0,0,0,.27,0l0,.45a1.35,1.35,0,0,1-.47.07.71.71,0,0,1-.55-.22,1.05,1.05,0,0,1-.2-.73v-1.36h-.39V338h.39v-.49l.59-.18V338h.66v.45Z"/><path class="cls-65" d="M329,340.66h-.6v-1.53q0-.72-.54-.72a.57.57,0,0,0-.57.42.75.75,0,0,0,0,.22v1.62h-.6v-3.93h.6v1.62h0a.91.91,0,0,1,.81-.44.84.84,0,0,1,.62.24,1.22,1.22,0,0,1,.3.9v1.6Z"/><path class="cls-65" d="M331.69,339a.81.81,0,0,0-.12-.46.52.52,0,0,0-.48-.25.57.57,0,0,0-.48.24.91.91,0,0,0-.18.47Zm.57.16a1.45,1.45,0,0,1,0,.27h-1.8a.79.79,0,0,0,.26.61.89.89,0,0,0,.59.19,2,2,0,0,0,.73-.13l.09.42a2.26,2.26,0,0,1-.9.17,1.3,1.3,0,0,1-1-.37,1.36,1.36,0,0,1-.36-1,1.54,1.54,0,0,1,.33-1,1.15,1.15,0,0,1,.94-.43,1,1,0,0,1,.88.43,1.45,1.45,0,0,1,.24.85Z"/><image width="646" height="250" transform="translate(340.14 327.44) scale(0.14)" xlink:href="../../../Documents/Design Resources/External/Google Play Badge/en_badge_web_generic.png"/><line class="cls-66" x1="0.49" y1="1" x2="0.49" y2="404.2"/><line class="cls-66" x1="454.99" y1="1" x2="454.99" y2="404.2"/><line class="cls-66" x1="457.24" y1="1" y2="1"/></g></svg>