<svg xmlns="http://www.w3.org/2000/svg" width="459" height="405" viewBox="0 0 459 405">
  <g fill="none" fill-rule="evenodd">
    <g font-family="Helvetica" font-size="9.14" transform="translate(21.77 172.44)">
      <text fill="#757575">
        <tspan x="56.41" y="9">Ticket #:</tspan>
      </text>
      <text fill="#424242">
        <tspan x="102.71" y="9">160722-dfw-0002654</tspan>
      </text>
      <text fill="#757575">
        <tspan x="0" y="22.72">Rackspace Account #:</tspan>
      </text>
      <text fill="#424242">
        <tspan x="102.71" y="22.72">809507</tspan>
      </text>
      <g transform="translate(27 27)">
        <text fill="#757575">
          <tspan x=".16" y="9.43">Account Name:</tspan>
        </text>
        <text fill="#424242">
          <tspan x="75.71" y="9.43">Tech Bizness</tspan>
        </text>
      </g>
      <text fill="#757575">
        <tspan x="31.69" y="50.15">A</tspan>
      </text>
      <text fill="#757575">
        <tspan x="37.35" y="50.15">WS Account:</tspan>
      </text>
      <text fill="#424242">
        <tspan x="102.71" y="50.15">Janus P</tspan>
      </text>
      <text fill="#424242">
        <tspan x="135.56" y="50.15">r</tspan>
      </text>
      <text fill="#424242">
        <tspan x="138.57" y="50.15">oduction (239820420054)</tspan>
      </text>
      <text fill="#757575">
        <tspan x="0" y="63.87">Se</tspan>
      </text>
      <text fill="#757575">
        <tspan x="44.23" y="63.87">r</tspan>
      </text>
      <text fill="#757575">
        <tspan x="47.4" y="63.87">vice L</tspan>
      </text>
      <text fill="#757575">
        <tspan x="70.87" y="63.87">e</tspan>
      </text>
      <text fill="#757575">
        <tspan x="75.65" y="63.87">vel:</tspan>
      </text>
      <text fill="#424242">
        <tspan x="102.71" y="63.87">A</tspan>
      </text>
      <text fill="#424242">
        <tspan x="108.45" y="63.87">via</tspan>
      </text>
      <text fill="#424242">
        <tspan x="120.07" y="63.87">t</tspan>
      </text>
      <text fill="#424242">
        <tspan x="122.97" y="63.87">or</tspan>
      </text>
    </g>
    <rect width="103.07" height="18.29" x="13.39" y="273.36" fill="#0E7C84" fill-rule="nonzero" rx="2.07"/>
    <text fill="#FFF" font-family="Helvetica" font-size="8">
      <tspan x="39.53" y="285.59">VIEW UPD</tspan>
    </text>
    <path stroke="#D8D8D8" d="M445.45 108.89L13.47 108.89M13.47 52.68L445.83 52.68"/>
    <text fill="#424242" font-family="Helvetica" font-size="27.43">
      <tspan x="13.15" y="95.88">Ticket</tspan>
    </text>
    <g font-size="6.45" transform="translate(13.73 6.71)">
      <text fill="#757575" font-family="OpenSans-ExtraBold, Open Sans" font-weight="600">
        <tspan x="0" y="7">From:</tspan>
      </text>
      <text fill="#000" font-family="OpenSans-ExtraBold, Open Sans" font-weight="600">
        <tspan x="20.31" y="7">Fanatical Support for AWS - Rackspace Tickets (noreply@tickets.rackspace.com)</tspan>
      </text>
      <text fill="#757575" font-family="OpenSans-ExtraBold, Open Sans" font-weight="600">
        <tspan x="0" y="14.74">Date:</tspan>
      </text>
      <text fill="#000" font-family="OpenSans-Regular, Open Sans">
        <tspan x="18.8" y="14.74">Wednesday, December 7, 2016 at 10:53 AM</tspan>
      </text>
      <text fill="#757575" font-family="OpenSans-ExtraBold, Open Sans" font-weight="600">
        <tspan x="0" y="22.48">To:</tspan>
      </text>
      <text fill="#000" font-family="OpenSans-Regular, Open Sans">
        <tspan x="11.24" y="22.48">Julie Customer &lt;julie.customer@company.co&gt;</tspan>
      </text>
      <g font-family="OpenSans-ExtraBold, Open Sans" font-weight="600" transform="translate(0 23)">
        <text fill="#757575">
          <tspan x="0" y="7.22">Subject:</tspan>
        </text>
        <text fill="#000">
          <tspan x="25.61" y="7.22">Investigate Site Down Occurrence Ticket#: 170131-iad-0001186</tspan>
        </text>
      </g>
    </g>
    <g fill="#757575" font-family="Helvetica" font-size="8" transform="translate(13.71 62.46)">
      <text>
        <tspan x="0" y="8">F</tspan>
      </text>
      <text>
        <tspan x="3.76" y="8">AN</tspan>
      </text>
      <text>
        <tspan x="14.68" y="8">A</tspan>
      </text>
      <text>
        <tspan x="19.4" y="8">TICAL SUPPO</tspan>
      </text>
      <text>
        <tspan x="68.6" y="8">R</tspan>
      </text>
      <text>
        <tspan x="73.21" y="8">T</tspan>
      </text>
      <text>
        <tspan x="77.83" y="8">FOR</tspan>
      </text>
      <text>
        <tspan x="96.64" y="8">A</tspan>
      </text>
      <text>
        <tspan x="101.59" y="8">WS</tspan>
      </text>
    </g>
    <text fill="#424242" font-family="Helvetica" font-size="9.14">
      <tspan x="13.46" y="160.32">A Rackspace suppo</tspan>
    </text>
    <g fill="#424242" font-family="Helvetica" font-size="9.14" transform="translate(12.71 250.12)">
      <text>
        <tspan x="0" y="9">Y</tspan>
      </text>
      <text>
        <tspan x="5.2" y="9">our</tspan>
      </text>
      <text>
        <tspan x="20.82" y="9">F</tspan>
      </text>
      <text>
        <tspan x="25.72" y="9">anatical Suppo</tspan>
      </text>
      <text>
        <tspan x="86.11" y="9">r</tspan>
      </text>
      <text>
        <tspan x="89.43" y="9">t for</tspan>
      </text>
      <text>
        <tspan x="108.43" y="9">A</tspan>
      </text>
      <text>
        <tspan x="114.09" y="9">WS</tspan>
      </text>
      <text>
        <tspan x="129.71" y="9">Team</tspan>
      </text>
    </g>
    <text fill="#424242" font-family="Helvetica" font-size="13.72">
      <tspan x="12.45" y="136.97">Update</tspan>
    </text>
    <rect width="456.1" height="62.83" x="1" y="313.08" fill="#F5F5F5" fill-rule="nonzero" stroke="#E7E7E7"/>
    <rect width="457.24" height="29.19" x="1" y="375.01" fill="#000" fill-rule="nonzero"/>
    <g font-family="Helvetica" font-size="8" transform="translate(107.25 384.63)">
      <text fill="#16B9D4">
        <tspan x="0" y="8">Edit Notification Settings</tspan>
      </text>
      <text fill="#E0E0E0">
        <tspan x="92.4" y="8">|</tspan>
      </text>
      <text fill="#16B9D4">
        <tspan x="94.17" y="8">Suppo</tspan>
      </text>
      <text fill="#16B9D4">
        <tspan x="122.49" y="8">r</tspan>
      </text>
      <text fill="#16B9D4">
        <tspan x="125.38" y="8">t: 1-800-961-4454</tspan>
      </text>
      <text fill="#E0E0E0">
        <tspan x="191.12" y="8">|</tspan>
      </text>
      <text fill="#16B9D4">
        <tspan x="194.83" y="8">Email Us</tspan>
      </text>
      <text fill="#E0E0E0">
        <tspan x="237.27" y="8">|</tspan>
      </text>
      <text fill="#16B9D4">
        <tspan x="240.99" y="8">Chat</tspan>
      </text>
    </g>
    <text fill="#E0E0E0" font-family="Helvetica" font-size="6.86">
      <tspan x="13.44" y="392.46">©</tspan>
    </text>
    <text fill="#E0E0E0" font-family="Helvetica" font-size="6.86">
      <tspan x="22.58" y="392.46">2017 Rackspace US, Inc.</tspan>
    </text>
    <g fill="#424242" font-family="Helvetica" font-size="9.14" transform="translate(12.78 324.95)">
      <text>
        <tspan x="0" y="9">W</tspan>
      </text>
      <text>
        <tspan x="7.85" y="9">ant</tspan>
      </text>
      <text>
        <tspan x="23.24" y="9">t</tspan>
      </text>
      <text>
        <tspan x="26.2" y="9">o manage all your tickts on-the-go?</tspan>
      </text>
      <g transform="translate(0 13)">
        <text>
          <tspan x="0" y="9.72">Download our app</tspan>
        </text>
        <text>
          <tspan x="76.08" y="9.72">t</tspan>
        </text>
        <text>
          <tspan x="78.97" y="9.72">o quickly view p</tspan>
        </text>
        <text>
          <tspan x="142.9" y="9.72">r</tspan>
        </text>
        <text>
          <tspan x="145.91" y="9.72">odcut status and</tspan>
        </text>
        <text>
          <tspan x="0" y="23.43">communications f</tspan>
        </text>
        <text>
          <tspan x="73.72" y="23.43">r</tspan>
        </text>
        <text>
          <tspan x="76.73" y="23.43">om Rackspace.</tspan>
        </text>
      </g>
    </g>
    <path fill="#B1B3B6" fill-rule="nonzero" d="M338.4,355.84 L266.69,355.84 C265.197215,355.834492 263.98999,354.622795 263.99,353.13 L263.99,335.68 C263.995484,334.191109 265.201109,332.985484 266.69,332.98 L338.4,332.98 C339.901668,332.97436 341.128088,334.178481 341.15,335.68 L341.15,353.14 C341.128134,354.643139 339.903298,355.850159 338.4,355.85 L338.4,355.84 Z"/>
    <path fill="#000" fill-rule="nonzero" d="M340.59,353.14 C340.59,354.349504 339.609504,355.33 338.4,355.33 L266.69,355.33 C265.480496,355.33 264.5,354.349504 264.5,353.14 L264.5,335.68 C264.5,334.470496 265.480496,333.49 266.69,333.49 L338.4,333.49 C339.609504,333.49 340.59,334.470496 340.59,335.68 L340.59,353.14 L340.59,353.14 Z"/>
    <path fill="#FFF" fill-rule="nonzero" d="M281.2 344.29C281.214449 343.153527 281.810974 342.103944 282.78 341.51 282.166398 340.636352 281.177096 340.102796 280.11 340.07 278.99 339.95 277.9 340.74 277.32 340.74 276.74 340.74 275.85 340.08 274.9 340.1 273.647635 340.139549 272.508272 340.834561 271.9 341.93 270.61 344.17 271.57 347.47 272.81 349.28 273.43 350.17 274.16 351.16 275.11 351.12 276.06 351.08 276.39 350.53 277.51 350.53 278.63 350.53 278.95 351.12 279.91 351.1 280.87 351.08 281.53 350.21 282.13 349.31 282.569989 348.676807 282.907461 347.978241 283.13 347.24 281.92675 346.753281 281.136691 345.587945 281.13 344.29L281.2 344.29zM279.37 338.87C279.915649 338.217685 280.184789 337.377968 280.12 336.53 279.28922 336.616374 278.521522 337.012721 277.97 337.64 277.424426 338.257814 277.147347 339.06746 277.2 339.89 278.03823 339.90621 278.83775 339.537768 279.37 338.89L279.37 338.87zM292.42 347.82L291.78 345.82C291.713333 345.62 291.586667 345.143333 291.4 344.39L291.4 344.39C291.326667 344.716667 291.206667 345.193333 291.04 345.82L290.41 347.82 292.42 347.82zM294.64 350.99L293.34 350.99 292.63 348.76 290.16 348.76 289.48 350.99 288.22 350.99 290.67 343.38 292.18 343.38 294.64 350.99 294.64 350.99zM299.7 348.22C299.71927 347.753372 299.593505 347.292234 299.34 346.9 299.100457 346.552627 298.701828 346.349552 298.28 346.36 297.979801 346.359942 297.689286 346.466228 297.46 346.66 297.216479 346.858309 297.04729 347.133241 296.98 347.44 296.945572 347.560557 296.925434 347.684742 296.92 347.81L296.92 348.72C296.912851 349.088059 297.045006 349.445234 297.29 349.72 297.541313 350.004914 297.911011 350.15649 298.29 350.13 298.713446 350.14612 299.116225 349.946612 299.36 349.6 299.631773 349.18537 299.764836 348.695138 299.74 348.2L299.7 348.22zM300.94 348.22C300.982553 349.027308 300.710085 349.819617 300.18 350.43 299.750132 350.90118 299.13766 351.163668 298.5 351.15 297.875197 351.201434 297.273735 350.900703 296.94 350.37L296.94 350.37 296.94 353.26 295.72 353.26 295.72 347.35C295.72 346.763333 295.72 346.16 295.72 345.54L296.79 345.54 296.86 346.41 296.86 346.41C297.235805 345.838128 297.85934 345.477024 298.54239 345.435686 299.225441 345.394349 299.887973 345.677622 300.33 346.2 300.780887 346.7664 301.011749 347.476743 300.98 348.2L300.94 348.22zM306 348.22C306.01927 347.753372 305.893505 347.292234 305.64 346.9 305.400457 346.552627 305.001828 346.349552 304.58 346.36 304.279801 346.359942 303.989286 346.466228 303.76 346.66 303.516479 346.858309 303.34729 347.133241 303.28 347.44 303.245662 347.560577 303.225526 347.684751 303.22 347.81L303.22 348.72C303.213836 349.087892 303.345862 349.44472 303.59 349.72 303.841313 350.004914 304.211011 350.15649 304.59 350.13 305.013446 350.14612 305.416225 349.946612 305.66 349.6 305.931773 349.18537 306.064836 348.695138 306.04 348.2L306 348.22zM307.24 348.22C307.282553 349.027308 307.010085 349.819617 306.48 350.43 306.050132 350.90118 305.43766 351.163668 304.8 351.15 304.175197 351.201434 303.573735 350.900703 303.24 350.37L303.24 350.37 303.24 353.26 302 353.26 302 347.35C302 346.763333 302 346.16 302 345.54L303 345.54 303.07 346.41 303.07 346.41C303.445805 345.838128 304.06934 345.477024 304.75239 345.435686 305.435441 345.394349 306.097973 345.677622 306.54 346.2 306.990887 346.7664 307.221749 347.476743 307.19 348.2L307.24 348.22zM314.3 348.86C314.32296 349.462219 314.073139 350.042684 313.62 350.44 313.038148 350.914489 312.299529 351.153559 311.55 351.11 310.851983 351.149196 310.157497 350.985992 309.55 350.64L309.83 349.64C310.359727 349.963727 310.969196 350.133409 311.59 350.13 311.971727 350.153001 312.349689 350.043498 312.66 349.82 312.912922 349.620659 313.054367 349.311714 313.04 348.99 313.045767 348.696939 312.929924 348.414573 312.72 348.21 312.429201 347.948814 312.089239 347.748236 311.72 347.62 310.386667 347.12 309.72 346.393333 309.72 345.44 309.703956 344.846306 309.962147 344.278286 310.42 343.9 310.946067 343.479833 311.607571 343.266445 312.28 343.3 312.877312 343.278115 313.471001 343.401657 314.01 343.66L313.71 344.66C313.260865 344.421473 312.758465 344.301035 312.25 344.31 311.88864 344.289929 311.532576 344.403869 311.25 344.63 311.054046 344.805161 310.944451 345.057229 310.95 345.32 310.945997 345.60751 311.07521 345.880703 311.3 346.06 311.636592 346.31394 312.011217 346.513065 312.41 346.65 312.954247 346.842084 313.44697 347.15688 313.85 347.57 314.162033 347.937552 314.326021 348.408126 314.31 348.89L314.3 348.86zM318.33 346.42L317 346.42 317 349.08C317 349.746667 317.236667 350.08 317.71 350.08 317.891793 350.082492 318.073188 350.062337 318.25 350.02L318.25 350.95C317.943947 351.051819 317.622414 351.099202 317.3 351.09 316.877357 351.114092 316.465065 350.953553 316.17 350.65 315.856648 350.223548 315.710753 349.696901 315.76 349.17L315.76 346.41 315 346.41 315 345.5 315.8 345.5 315.8 344.5 317 344.14 317 345.51 318.34 345.51 318.34 346.42 318.33 346.42zM323.13 348.24C323.142009 347.784524 323.027798 347.334602 322.8 346.94 322.59313 346.529331 322.169777 346.272989 321.71 346.28 321.240783 346.266207 320.805269 346.522849 320.59 346.94 320.361049 347.341419 320.246888 347.798065 320.26 348.26 320.247991 348.715476 320.362202 349.165398 320.59 349.56 320.808207 349.964279 321.230592 350.216283 321.69 350.216283 322.149408 350.216283 322.571793 349.964279 322.79 349.56 323.022596 349.163301 323.140313 348.709744 323.13 348.25L323.13 348.24zM324.39 348.24C324.422203 348.999515 324.164866 349.742933 323.67 350.32 323.157314 350.876582 322.426128 351.180025 321.67 351.15 320.942948 351.181725 320.239421 350.888589 319.75 350.35 319.267251 349.797468 319.010204 349.083448 319.03 348.35 319.000738 347.584399 319.265504 346.836615 319.77 346.26 320.284753 345.708501 321.01655 345.412123 321.77 345.45 322.502462 345.420581 323.21118 345.712836 323.71 346.25 324.188134 346.803996 324.438299 347.518752 324.41 348.25L324.39 348.24zM328.35 346.58C328.223591 346.568571 328.096409 346.568571 327.97 346.58 327.574539 346.560289 327.196751 346.745405 326.97 347.07 326.758872 347.389475 326.653892 347.767404 326.67 348.15L326.67 351 325.45 351 325.45 347.24C325.45 346.606667 325.45 346.03 325.45 345.51L326.51 345.51 326.51 346.51 326.51 346.51C326.625447 346.167377 326.83724 345.865311 327.12 345.64 327.374402 345.450999 327.683075 345.349277 328 345.35L328.3 345.35 328.3 346.51 328.35 346.58zM332.64 347.67C332.655388 347.339759 332.571819 347.012444 332.4 346.73 332.191426 346.382966 331.803379 346.185062 331.4 346.22 331.00304 346.204436 330.625725 346.393094 330.4 346.72 330.191768 346.995806 330.066847 347.325459 330.04 347.67L332.64 347.67zM333.8 347.99C333.817669 348.172908 333.817669 348.357092 333.8 348.54L330.1 348.54C330.083959 349.011493 330.278123 349.465762 330.63 349.78 330.971656 350.046153 331.39742 350.180978 331.83 350.16 332.335329 350.167608 332.837522 350.079385 333.31 349.9L333.5 350.75C332.9166 350.988749 332.290196 351.104497 331.66 351.09 330.917828 351.130405 330.192603 350.858445 329.66 350.34 329.159948 349.797202 328.897182 349.077295 328.93 348.34 328.902334 347.590955 329.143532 346.856721 329.61 346.27 330.072668 345.686786 330.786168 345.359765 331.53 345.39 332.244266 345.339978 332.930781 345.675608 333.33 346.27 333.662848 346.784148 333.830351 347.387855 333.81 348L333.8 347.99zM291.39 338.72C291.432579 338.348728 291.302649 337.978421 291.037426 337.715149 290.772203 337.451876 290.400947 337.324682 290.03 337.37 289.870353 337.354967 289.709647 337.354967 289.55 337.37L289.55 340.16 289.95 340.16C290.340603 340.184829 290.724135 340.047337 291.01 339.78 291.275526 339.473634 291.408601 339.074408 291.38 338.67L291.39 338.72zM292.02 338.72C292.062175 339.291641 291.841259 339.851294 291.42 340.24 290.962663 340.580577 290.399005 340.747193 289.83 340.71 289.536925 340.72741 289.243075 340.72741 288.95 340.71L288.95 337C289.280746 336.947372 289.615094 336.920624 289.95 336.92 290.478854 336.881995 291.003846 337.034527 291.43 337.35 291.816464 337.701148 292.022485 338.208843 291.99 338.73L292.02 338.72zM294.75 339.31C294.756452 339.086021 294.701094 338.864592 294.59 338.67 294.486382 338.468489 294.276514 338.344123 294.05 338.35 293.820545 338.342662 293.607017 338.466896 293.5 338.67 293.388087 338.867902 293.332736 339.092762 293.34 339.32 293.333548 339.543979 293.388906 339.765408 293.5 339.96 293.605413 340.160627 293.813365 340.286275 294.04 340.286275 294.266635 340.286275 294.474587 340.160627 294.58 339.96 294.695075 339.766624 294.753947 339.544991 294.75 339.32L294.75 339.31zM295.37 339.31C295.380729 339.675102 295.256068 340.031277 295.02 340.31 294.764352 340.58876 294.397756 340.739064 294.02 340.72 293.661136 340.737491 293.313059 340.594596 293.07 340.33 292.829599 340.053775 292.704326 339.695851 292.72 339.33 292.710102 338.963276 292.838626 338.606266 293.08 338.33 293.336682 338.053742 293.703604 337.906973 294.08 337.93 294.455465 337.900029 294.823964 338.043744 295.08 338.32 295.317698 338.597216 295.439464 338.955349 295.42 339.32L295.37 339.31zM299.86 338L299.02 340.69 298.47 340.69 298.12 339.52C298.031663 339.234002 297.958231 338.943611 297.9 338.65L297.9 338.65C297.847276 338.944825 297.773759 339.235551 297.68 339.52L297.31 340.69 296.76 340.69 296 338 296.62 338 296.92 339.28C296.993333 339.58 297.053333 339.866667 297.1 340.14L297.1 340.14C297.146667 339.913333 297.22 339.626667 297.32 339.28L297.7 337.99 298.19 337.99 298.56 339.25C298.646667 339.556667 298.72 339.853333 298.78 340.14L298.78 340.14C298.823967 339.840315 298.884055 339.543217 298.96 339.25L299.29 337.99 299.86 338zM303 340.66L302.4 340.66 302.4 339.12C302.4 338.646667 302.22 338.41 301.86 338.41 301.693495 338.406794 301.534825 338.480594 301.43 338.61 301.318917 338.737343 301.258427 338.901023 301.26 339.07L301.26 340.67 300.66 340.67 300.66 338.75C300.66 338.516667 300.66 338.26 300.66 337.98L301.19 337.98 301.19 338.4 301.19 338.4C301.262002 338.264285 301.369046 338.150336 301.5 338.07 301.662023 337.969551 301.849382 337.917507 302.04 337.92 302.273911 337.910925 302.501415 337.997593 302.67 338.16 302.892461 338.400734 303.004765 338.723154 302.98 339.05L302.98 340.66 303 340.66z"/>
    <polygon fill="#FFF" fill-rule="nonzero" points="304.62 340.66 304.02 340.66 304.02 336.73 304.62 336.73 304.62 340.66"/>
    <path fill="#FFF" fill-rule="nonzero" d="M307.52 339.31C307.526452 339.086021 307.471094 338.864592 307.36 338.67 307.256382 338.468489 307.046514 338.344123 306.82 338.35 306.590545 338.342662 306.377017 338.466896 306.27 338.67 306.158087 338.867902 306.102736 339.092762 306.11 339.32 306.103548 339.543979 306.158906 339.765408 306.27 339.96 306.375401 340.159823 306.58411 340.283502 306.81 340.28 307.038094 340.281587 307.247361 340.153702 307.35 339.95 307.465075 339.756624 307.523947 339.534991 307.52 339.31L307.52 339.31zM308.14 339.31C308.150729 339.675102 308.026068 340.031277 307.79 340.31 307.534352 340.58876 307.167756 340.739064 306.79 340.72 306.430894 340.73891 306.082235 340.595776 305.84 340.33 305.599599 340.053775 305.474326 339.695851 305.49 339.33 305.480102 338.963276 305.608626 338.606266 305.85 338.33 306.106682 338.053742 306.473604 337.906973 306.85 337.93 307.225465 337.900029 307.593964 338.043744 307.85 338.32 308.087698 338.597216 308.209464 338.955349 308.19 339.32L308.14 339.31zM310.42 339.73L310.42 339.31C309.753333 339.31 309.42 339.49 309.42 339.85 309.411518 339.969048 309.455331 340.085883 309.54 340.17 309.619091 340.242324 309.722839 340.281677 309.83 340.28 309.963237 340.282197 310.093414 340.239977 310.2 340.16 310.30889 340.084642 310.384199 339.969885 310.41 339.84 310.414215 339.803454 310.414215 339.766546 310.41 339.73L310.42 339.73zM311.04 340.66L310.5 340.66 310.5 340.35 310.5 340.35C310.315595 340.598277 310.018784 340.73729 309.71 340.72 309.478512 340.732407 309.252801 340.645036 309.09 340.48 308.94895 340.332326 308.873264 340.134101 308.88 339.93 308.869748 339.623957 309.026846 339.336581 309.29 339.18 309.644546 338.986033 310.046582 338.895922 310.45 338.92L310.45 338.92C310.45 338.566667 310.263333 338.39 309.89 338.39 309.641991 338.385737 309.398321 338.455357 309.19 338.59L309.07 338.2C309.349055 338.038638 309.66784 337.958942 309.99 337.97 310.696667 337.97 311.05 338.34 311.05 339.08L311.05 340.08C311.033761 340.293024 311.033761 340.506976 311.05 340.72L311.04 340.66zM313.82 339.52L313.82 339.07C313.827018 339.006861 313.827018 338.943139 313.82 338.88 313.786689 338.73971 313.709647 338.61364 313.6 338.52 313.490085 338.421789 313.347389 338.368279 313.2 338.37 312.988876 338.363848 312.789144 338.465599 312.67 338.64 312.536302 338.840849 312.469777 339.078938 312.48 339.32 312.468359 339.550406 312.531497 339.778404 312.66 339.97 312.77719 340.141392 312.972392 340.242746 313.18 340.24 313.362566 340.244752 313.536707 340.163239 313.65 340.02 313.763924 339.882524 313.824302 339.708493 313.82 339.53L313.82 339.52zM314.44 340.66L313.91 340.66 313.91 340.23 313.91 340.23C313.745499 340.553977 313.402324 340.747259 313.04 340.72 312.725232 340.727918 312.425118 340.587124 312.23 340.34 312.005532 340.056535 311.891799 339.701119 311.91 339.34 311.891928 338.955591 312.016582 338.578068 312.26 338.28 312.466044 338.035751 312.770471 337.896374 313.09 337.9 313.392703 337.870891 313.686207 338.013781 313.85 338.27L313.85 338.27 313.85 336.72 314.45 336.72 314.45 339.92C314.45 340.18 314.45 340.423333 314.45 340.65L314.44 340.66zM318.95 339.31C318.956452 339.086021 318.901094 338.864592 318.79 338.67 318.686382 338.468489 318.476514 338.344123 318.25 338.35 318.020545 338.342662 317.807017 338.466896 317.7 338.67 317.588087 338.867902 317.532736 339.092762 317.54 339.32 317.533548 339.543979 317.588906 339.765408 317.7 339.96 317.805413 340.160627 318.013365 340.286275 318.24 340.286275 318.466635 340.286275 318.674587 340.160627 318.78 339.96 318.894587 339.766419 318.953421 339.544926 318.95 339.32L318.95 339.31zM319.57 339.31C319.580729 339.675102 319.456068 340.031277 319.22 340.31 318.964352 340.58876 318.597756 340.739064 318.22 340.72 317.861136 340.737491 317.513059 340.594596 317.27 340.33 317.029599 340.053775 316.904326 339.695851 316.92 339.33 316.910102 338.963276 317.038626 338.606266 317.28 338.33 317.536682 338.053742 317.903604 337.906973 318.28 337.93 318.655465 337.900029 319.023964 338.043744 319.28 338.32 319.517698 338.597216 319.639464 338.955349 319.62 339.32L319.57 339.31zM322.79 340.66L322.19 340.66 322.19 339.12C322.19 338.646667 322.01 338.41 321.65 338.41 321.483495 338.406794 321.324825 338.480594 321.22 338.61 321.108917 338.737343 321.048427 338.901023 321.05 339.07L321.05 340.67 320.45 340.67 320.45 338.75C320.45 338.516667 320.45 338.26 320.45 337.98L321 337.98 321 338.4 321 338.4C321.072397 338.264568 321.179353 338.150712 321.31 338.07 321.472023 337.969551 321.659382 337.917507 321.85 337.92 322.083911 337.910925 322.311415 337.997593 322.48 338.16 322.702461 338.400734 322.814765 338.723154 322.79 339.05L322.79 340.66 322.79 340.66zM326.82 338.41L326.16 338.41 326.16 339.72C326.16 340.05 326.28 340.22 326.51 340.22 326.599632 340.231509 326.690368 340.231509 326.78 340.22L326.78 340.67C326.628704 340.720939 326.469573 340.744639 326.31 340.74 326.10337 340.750301 325.902524 340.669963 325.76 340.52 325.604897 340.309993 325.533594 340.049736 325.56 339.79L325.56 338.43 325.17 338.43 325.17 338 325.56 338 325.56 337.51 326.15 337.33 326.15 338 326.81 338 326.81 338.45 326.82 338.41zM330 340.66L329.4 340.66 329.4 339.13C329.4 338.65 329.22 338.41 328.86 338.41 328.595542 338.400717 328.359474 338.574662 328.29 338.83 328.279186 338.902935 328.279186 338.977065 328.29 339.05L328.29 340.67 327.69 340.67 327.69 336.74 328.29 336.74 328.29 338.36 328.29 338.36C328.46025 338.077318 328.770193 337.908954 329.1 337.92 329.330878 337.911331 329.555134 337.998139 329.72 338.16 329.937323 338.407242 330.045513 338.731813 330.02 339.06L330.02 340.66 330 340.66zM332.69 339C332.696909 338.838116 332.655109 338.67788 332.57 338.54 332.469389 338.37341 332.284176 338.276946 332.09 338.29 331.899992 338.284965 331.719976 338.374973 331.61 338.53 331.507008 338.666629 331.444622 338.829527 331.43 339L332.69 339zM333.26 339.16C333.268398 339.249804 333.268398 339.340196 333.26 339.43L331.46 339.43C331.453006 339.661625 331.548062 339.884641 331.72 340.04 331.887547 340.171984 332.09692 340.239409 332.31 340.23 332.559309 340.232547 332.806897 340.188456 333.04 340.1L333.13 340.52C332.844748 340.637501 332.538459 340.695355 332.23 340.69 331.859095 340.715328 331.495094 340.580648 331.23 340.32 330.979327 340.049296 330.849392 339.688365 330.87 339.32 330.859076 338.958245 330.975911 338.6042 331.2 338.32 331.42763 338.035988 331.776274 337.876502 332.14 337.89 332.488254 337.87004 332.821741 338.032994 333.02 338.32 333.186446 338.571481 333.270339 338.868603 333.26 339.17L333.26 339.16z"/>
    <path stroke="#E7E7E7" stroke-width=".5" d="M1.49 1L1.49 404.2M455.99 1L455.99 404.2M458.24 1L1 1"/>
  </g>
</svg>
