<svg xmlns="http://www.w3.org/2000/svg" viewBox="0 0 806.71 150.37"><defs><style>.cls-1{fill:#16b9d4;}.cls-2{fill:#e0e0e0;}.cls-3{fill:#eb008b;}.cls-3,.cls-4{opacity:0.5;}.cls-4{fill:#00c3ff;}.cls-5{fill:#fff;}</style></defs><title>Footer</title><g id="Email_Content" data-name="Email Content"><rect width="800" height="51.07"/><path class="cls-1" d="M192.66,26.05H188v4.06h5.35v.71h-6.19v-10h6.16v.71H188v3.76h4.66Z"/><path class="cls-1" d="M194.6,27.06a4.45,4.45,0,0,1,.77-2.75,2.47,2.47,0,0,1,2.09-1,2.57,2.57,0,0,1,2.28,1.18V20.32h.81v10.5h-.77l0-1A2.64,2.64,0,0,1,197.45,31a2.46,2.46,0,0,1-2.06-1,4.47,4.47,0,0,1-.78-2.78Zm.83.14a3.86,3.86,0,0,0,.57,2.23,1.84,1.84,0,0,0,1.6.82,2.2,2.2,0,0,0,2.15-1.33V25.44A2.18,2.18,0,0,0,197.61,24a1.85,1.85,0,0,0-1.61.81A4.12,4.12,0,0,0,195.43,27.2Z"/><path class="cls-1" d="M202.66,21.29a.54.54,0,0,1,.15-.39.54.54,0,0,1,.41-.16.55.55,0,0,1,.41.16.54.54,0,0,1,.15.39.53.53,0,0,1-.15.39.55.55,0,0,1-.41.16.54.54,0,0,1-.41-.16A.54.54,0,0,1,202.66,21.29Zm1,9.53h-.82v-7.4h.82Z"/><path class="cls-1" d="M207.12,21.53v1.89h1.53v.67h-1.53V29a1.54,1.54,0,0,0,.22.92.86.86,0,0,0,.74.3,5,5,0,0,0,.66-.07l0,.66a2.66,2.66,0,0,1-.87.12,1.46,1.46,0,0,1-1.22-.49A2.3,2.3,0,0,1,206.3,29V24.1h-1.36v-.67h1.36V21.53Z"/><path class="cls-1" d="M221.35,30.82h-.84l-5.72-8.52v8.52h-.85v-10h.85l5.73,8.52V20.87h.83Z"/><path class="cls-1" d="M223.24,27a4.34,4.34,0,0,1,.41-1.92,3.1,3.1,0,0,1,2.88-1.8,3,3,0,0,1,2.39,1,4,4,0,0,1,.92,2.75v.17a4.38,4.38,0,0,1-.41,1.93,3.09,3.09,0,0,1-1.17,1.32,3.2,3.2,0,0,1-1.72.46,3,3,0,0,1-2.39-1,4,4,0,0,1-.92-2.75Zm.82.23a3.35,3.35,0,0,0,.69,2.18,2.33,2.33,0,0,0,3.6,0,3.48,3.48,0,0,0,.69-2.25V27a3.76,3.76,0,0,0-.31-1.55,2.52,2.52,0,0,0-.88-1.09,2.25,2.25,0,0,0-1.3-.39,2.19,2.19,0,0,0-1.78.86,3.48,3.48,0,0,0-.69,2.25Z"/><path class="cls-1" d="M232.8,21.53v1.89h1.53v.67H232.8V29a1.54,1.54,0,0,0,.22.92.86.86,0,0,0,.74.3,5,5,0,0,0,.66-.07l0,.66a2.66,2.66,0,0,1-.87.12,1.46,1.46,0,0,1-1.22-.49A2.3,2.3,0,0,1,232,29V24.1h-1.36v-.67H232V21.53Z"/><path class="cls-1" d="M236,21.29a.54.54,0,0,1,.15-.39.54.54,0,0,1,.41-.16.55.55,0,0,1,.41.16.54.54,0,0,1,.15.39.53.53,0,0,1-.15.39.55.55,0,0,1-.41.16.54.54,0,0,1-.41-.16A.54.54,0,0,1,236,21.29Zm1,9.53h-.82v-7.4h.82Z"/><path class="cls-1" d="M239.76,30.82V24.1h-1.22v-.67h1.22v-.9a2.43,2.43,0,0,1,.58-1.74,2.11,2.11,0,0,1,1.61-.61,3.14,3.14,0,0,1,.87.12l-.06.68a3.19,3.19,0,0,0-.75-.08,1.34,1.34,0,0,0-1.05.42,1.73,1.73,0,0,0-.38,1.2v.92h1.76v.67h-1.76v6.73Z"/><path class="cls-1" d="M243.76,21.29a.54.54,0,0,1,.15-.39.54.54,0,0,1,.41-.16.55.55,0,0,1,.41.16.54.54,0,0,1,.15.39.53.53,0,0,1-.15.39.55.55,0,0,1-.41.16.54.54,0,0,1-.41-.16A.54.54,0,0,1,243.76,21.29Zm1,9.53h-.82v-7.4h.82Z"/><path class="cls-1" d="M249.68,30.27a2.16,2.16,0,0,0,1.43-.48,1.7,1.7,0,0,0,.63-1.25h.79a2.32,2.32,0,0,1-.42,1.23,2.67,2.67,0,0,1-1,.87,3.12,3.12,0,0,1-1.38.31,2.85,2.85,0,0,1-2.31-1,4.09,4.09,0,0,1-.85-2.72V27A4.63,4.63,0,0,1,246.9,25a3,3,0,0,1,1.1-1.3,3,3,0,0,1,1.67-.46,2.85,2.85,0,0,1,2,.72,2.65,2.65,0,0,1,.84,1.91h-.79A2,2,0,0,0,249.67,24a2,2,0,0,0-1.72.8,3.62,3.62,0,0,0-.61,2.24v.24a3.54,3.54,0,0,0,.61,2.21A2.06,2.06,0,0,0,249.68,30.27Z"/><path class="cls-1" d="M258.82,30.82a3.85,3.85,0,0,1-.16-1,2.84,2.84,0,0,1-1.1.86,3.35,3.35,0,0,1-1.41.3,2.48,2.48,0,0,1-1.73-.59,1.94,1.94,0,0,1-.66-1.5,2,2,0,0,1,.9-1.71,4.32,4.32,0,0,1,2.51-.63h1.48v-.84a1.62,1.62,0,0,0-.49-1.25,2,2,0,0,0-1.42-.45,2.23,2.23,0,0,0-1.42.44,1.3,1.3,0,0,0-.56,1.05h-.82a1.9,1.9,0,0,1,.82-1.53,3.15,3.15,0,0,1,2-.65,2.88,2.88,0,0,1,2,.62,2.22,2.22,0,0,1,.73,1.73v3.5a4.34,4.34,0,0,0,.23,1.61v.08Zm-2.57-.59a2.74,2.74,0,0,0,1.47-.4,2.33,2.33,0,0,0,.94-1.06V27.15h-1.46a3.66,3.66,0,0,0-1.91.45,1.34,1.34,0,0,0-.69,1.19,1.32,1.32,0,0,0,.46,1A1.74,1.74,0,0,0,256.25,30.24Z"/><path class="cls-1" d="M262.92,21.53v1.89h1.53v.67h-1.53V29a1.54,1.54,0,0,0,.22.92.86.86,0,0,0,.74.3,5,5,0,0,0,.66-.07l0,.66a2.66,2.66,0,0,1-.87.12,1.46,1.46,0,0,1-1.22-.49A2.3,2.3,0,0,1,262.1,29V24.1h-1.36v-.67h1.36V21.53Z"/><path class="cls-1" d="M266.1,21.29a.54.54,0,0,1,.15-.39.54.54,0,0,1,.41-.16.55.55,0,0,1,.41.16.54.54,0,0,1,.15.39.53.53,0,0,1-.15.39.55.55,0,0,1-.41.16.54.54,0,0,1-.41-.16A.54.54,0,0,1,266.1,21.29Zm1,9.53h-.82v-7.4h.82Z"/><path class="cls-1" d="M268.84,27a4.34,4.34,0,0,1,.41-1.92,3.1,3.1,0,0,1,2.88-1.8,3,3,0,0,1,2.39,1,4,4,0,0,1,.92,2.75v.17a4.38,4.38,0,0,1-.41,1.93,3.09,3.09,0,0,1-1.17,1.32,3.2,3.2,0,0,1-1.72.46,3,3,0,0,1-2.39-1,4,4,0,0,1-.92-2.75Zm.82.23a3.35,3.35,0,0,0,.69,2.18,2.33,2.33,0,0,0,3.6,0,3.48,3.48,0,0,0,.69-2.25V27a3.76,3.76,0,0,0-.31-1.55,2.52,2.52,0,0,0-.88-1.09,2.25,2.25,0,0,0-1.3-.39,2.19,2.19,0,0,0-1.78.86,3.48,3.48,0,0,0-.69,2.25Z"/><path class="cls-1" d="M277.91,23.43l0,1.26a2.93,2.93,0,0,1,1-1,2.69,2.69,0,0,1,1.37-.36,2.22,2.22,0,0,1,1.77.67,3,3,0,0,1,.59,2v4.85h-.81V26a2.26,2.26,0,0,0-.42-1.48,1.65,1.65,0,0,0-1.32-.49,2.07,2.07,0,0,0-1.34.47,2.79,2.79,0,0,0-.86,1.28v5.07h-.81v-7.4Z"/><path class="cls-1" d="M294,28.38a1.61,1.61,0,0,0-.58-1.31,6.11,6.11,0,0,0-2.13-.92,7.46,7.46,0,0,1-2.26-.95,2.3,2.3,0,0,1-.07-3.76,3.86,3.86,0,0,1,2.4-.71,4,4,0,0,1,1.77.38,2.9,2.9,0,0,1,1.21,1.07,2.8,2.8,0,0,1,.43,1.52H294a2.09,2.09,0,0,0-.7-1.64,2.72,2.72,0,0,0-1.87-.62,3,3,0,0,0-1.82.51,1.59,1.59,0,0,0-.68,1.33,1.51,1.51,0,0,0,.61,1.24,5.64,5.64,0,0,0,1.95.85,9.16,9.16,0,0,1,2,.76,2.91,2.91,0,0,1,1,.94,2.35,2.35,0,0,1,.35,1.29,2.25,2.25,0,0,1-.94,1.89,4,4,0,0,1-2.48.71,4.85,4.85,0,0,1-1.93-.38,3,3,0,0,1-1.33-1.05,2.71,2.71,0,0,1-.46-1.55h.84a2,2,0,0,0,.79,1.66,3.33,3.33,0,0,0,2.09.61,3.1,3.1,0,0,0,1.87-.51A1.6,1.6,0,0,0,294,28.38Z"/><path class="cls-1" d="M299.38,31a3.22,3.22,0,0,1-1.71-.46,3.17,3.17,0,0,1-1.19-1.29,4,4,0,0,1-.42-1.86V27a4.34,4.34,0,0,1,.41-1.92,3.29,3.29,0,0,1,1.15-1.34,2.85,2.85,0,0,1,1.6-.49,2.67,2.67,0,0,1,2.14.92,3.72,3.72,0,0,1,.79,2.51v.46h-5.28v.16a3.1,3.1,0,0,0,.72,2.1,2.29,2.29,0,0,0,1.81.84,2.66,2.66,0,0,0,1.16-.24,2.56,2.56,0,0,0,.91-.77l.51.39A3,3,0,0,1,299.38,31Zm-.15-7a2,2,0,0,0-1.56.68,3.13,3.13,0,0,0-.77,1.82h4.44V26.4a2.71,2.71,0,0,0-.61-1.74A1.89,1.89,0,0,0,299.23,24Z"/><path class="cls-1" d="M305,21.53v1.89h1.53v.67H305V29a1.54,1.54,0,0,0,.22.92.86.86,0,0,0,.74.3,5,5,0,0,0,.66-.07l0,.66a2.66,2.66,0,0,1-.87.12,1.46,1.46,0,0,1-1.22-.49A2.3,2.3,0,0,1,304.2,29V24.1h-1.36v-.67h1.36V21.53Z"/><path class="cls-1" d="M309.52,21.53v1.89H311v.67h-1.53V29a1.54,1.54,0,0,0,.22.92.86.86,0,0,0,.74.3,5,5,0,0,0,.66-.07l0,.66a2.66,2.66,0,0,1-.87.12,1.46,1.46,0,0,1-1.22-.49A2.3,2.3,0,0,1,308.7,29V24.1h-1.36v-.67h1.36V21.53Z"/><path class="cls-1" d="M312.7,21.29a.54.54,0,0,1,.15-.39.54.54,0,0,1,.41-.16.55.55,0,0,1,.41.16.54.54,0,0,1,.15.39.53.53,0,0,1-.15.39.55.55,0,0,1-.41.16.54.54,0,0,1-.41-.16A.54.54,0,0,1,312.7,21.29Zm1,9.53h-.82v-7.4h.82Z"/><path class="cls-1" d="M316.66,23.43l0,1.26a2.93,2.93,0,0,1,1-1,2.69,2.69,0,0,1,1.37-.36,2.22,2.22,0,0,1,1.77.67,3,3,0,0,1,.59,2v4.85h-.81V26a2.26,2.26,0,0,0-.42-1.48A1.65,1.65,0,0,0,318.9,24a2.07,2.07,0,0,0-1.34.47,2.79,2.79,0,0,0-.86,1.28v5.07h-.81v-7.4Z"/><path class="cls-1" d="M323.24,27.06a4.44,4.44,0,0,1,.77-2.75,2.48,2.48,0,0,1,2.09-1,2.57,2.57,0,0,1,2.3,1.2l0-1.07h.77v7.25a3.13,3.13,0,0,1-.8,2.26,2.86,2.86,0,0,1-2.17.83,3.3,3.3,0,0,1-1.47-.34,2.86,2.86,0,0,1-1.1-.92l.46-.49a2.59,2.59,0,0,0,2.06,1.07,2.1,2.1,0,0,0,1.6-.61,2.41,2.41,0,0,0,.59-1.68v-.93A2.64,2.64,0,0,1,326.09,31a2.47,2.47,0,0,1-2.06-1,4.47,4.47,0,0,1-.78-2.77Zm.83.14a3.86,3.86,0,0,0,.57,2.23,1.84,1.84,0,0,0,1.6.82,2.19,2.19,0,0,0,2.14-1.35V25.46a2.33,2.33,0,0,0-.83-1.08,2.23,2.23,0,0,0-1.3-.37,1.85,1.85,0,0,0-1.61.81A4.12,4.12,0,0,0,324.07,27.2Z"/><path class="cls-1" d="M335.77,28.94a1.17,1.17,0,0,0-.49-1,3.78,3.78,0,0,0-1.47-.58,6.62,6.62,0,0,1-1.53-.48,2,2,0,0,1-.81-.66,1.65,1.65,0,0,1-.26-.94,1.76,1.76,0,0,1,.73-1.45,3,3,0,0,1,1.87-.57,3,3,0,0,1,2,.61,2,2,0,0,1,.75,1.6h-.82a1.33,1.33,0,0,0-.54-1.08,2.45,2.45,0,0,0-2.67-.07,1.11,1.11,0,0,0-.49.93,1,1,0,0,0,.41.86,4.32,4.32,0,0,0,1.48.56,7,7,0,0,1,1.61.54,2.09,2.09,0,0,1,.8.69,1.9,1.9,0,0,1-.5,2.47,3.22,3.22,0,0,1-2,.56,3.32,3.32,0,0,1-2.09-.62,1.93,1.93,0,0,1-.8-1.58h.82a1.43,1.43,0,0,0,.6,1.12,2.48,2.48,0,0,0,1.47.4,2.32,2.32,0,0,0,1.38-.38A1.13,1.13,0,0,0,335.77,28.94Z"/><path class="cls-2" d="M349.48,32.67h-.69V20.87h.69Z"/><path class="cls-1" d="M367.77,28.38a1.61,1.61,0,0,0-.58-1.31,6.11,6.11,0,0,0-2.13-.92,7.46,7.46,0,0,1-2.26-.95,2.3,2.3,0,0,1-.07-3.76,3.86,3.86,0,0,1,2.4-.71,4,4,0,0,1,1.77.38,2.9,2.9,0,0,1,1.21,1.07,2.8,2.8,0,0,1,.43,1.52h-.85a2.09,2.09,0,0,0-.7-1.64,2.72,2.72,0,0,0-1.87-.62,3,3,0,0,0-1.82.51,1.59,1.59,0,0,0-.68,1.33,1.51,1.51,0,0,0,.61,1.24,5.64,5.64,0,0,0,1.95.85,9.16,9.16,0,0,1,2,.76,2.91,2.91,0,0,1,1,.94,2.35,2.35,0,0,1,.35,1.29,2.25,2.25,0,0,1-.94,1.89,4,4,0,0,1-2.48.71,4.85,4.85,0,0,1-1.93-.38,3,3,0,0,1-1.33-1.05,2.71,2.71,0,0,1-.46-1.55h.84a2,2,0,0,0,.79,1.66,3.33,3.33,0,0,0,2.09.61,3.1,3.1,0,0,0,1.87-.51A1.6,1.6,0,0,0,367.77,28.38Z"/><path class="cls-1" d="M375,29.89A2.66,2.66,0,0,1,372.63,31a2.29,2.29,0,0,1-1.8-.69,3,3,0,0,1-.63-2V23.43H371v4.71q0,2.11,1.71,2.11A2.1,2.1,0,0,0,375,28.78V23.43h.82v7.4H375Z"/><path class="cls-1" d="M383.87,27.2a4.45,4.45,0,0,1-.77,2.74,2.44,2.44,0,0,1-2.05,1,2.74,2.74,0,0,1-2.32-1.07v3.77h-.81V23.43h.76l0,1A2.63,2.63,0,0,1,381,23.29a2.46,2.46,0,0,1,2.08,1,4.55,4.55,0,0,1,.76,2.79Zm-.82-.14a3.8,3.8,0,0,0-.58-2.24,1.87,1.87,0,0,0-1.62-.82,2.16,2.16,0,0,0-2.12,1.42V29a2.18,2.18,0,0,0,.84,1,2.42,2.42,0,0,0,1.29.33,1.85,1.85,0,0,0,1.61-.82A4.14,4.14,0,0,0,383.05,27.06Z"/><path class="cls-1" d="M391.63,27.2a4.45,4.45,0,0,1-.77,2.74,2.44,2.44,0,0,1-2.05,1,2.74,2.74,0,0,1-2.32-1.07v3.77h-.81V23.43h.76l0,1a2.63,2.63,0,0,1,2.32-1.18,2.46,2.46,0,0,1,2.08,1,4.55,4.55,0,0,1,.76,2.79Zm-.82-.14a3.8,3.8,0,0,0-.58-2.24,1.87,1.87,0,0,0-1.62-.82,2.16,2.16,0,0,0-2.12,1.42V29a2.18,2.18,0,0,0,.84,1,2.42,2.42,0,0,0,1.29.33,1.85,1.85,0,0,0,1.61-.82A4.14,4.14,0,0,0,390.81,27.06Z"/><path class="cls-1" d="M393,27a4.34,4.34,0,0,1,.41-1.92,3.1,3.1,0,0,1,2.88-1.8,3,3,0,0,1,2.39,1,4,4,0,0,1,.92,2.75v.17a4.38,4.38,0,0,1-.41,1.93A3.09,3.09,0,0,1,398,30.5a3.2,3.2,0,0,1-1.72.46,3,3,0,0,1-2.39-1,4,4,0,0,1-.92-2.75Zm.82.23a3.35,3.35,0,0,0,.69,2.18,2.33,2.33,0,0,0,3.6,0,3.48,3.48,0,0,0,.69-2.25V27a3.76,3.76,0,0,0-.31-1.55,2.52,2.52,0,0,0-.88-1.09,2.25,2.25,0,0,0-1.3-.39,2.19,2.19,0,0,0-1.78.86,3.48,3.48,0,0,0-.69,2.25Z"/><path class="cls-1" d="M404.7,24.13a3,3,0,0,0-.55,0,2,2,0,0,0-1.3.43,2.35,2.35,0,0,0-.75,1.24v5.08h-.81v-7.4h.8V24.6a2.17,2.17,0,0,1,2.08-1.31,1.34,1.34,0,0,1,.54.09Z"/><path class="cls-1" d="M407.61,21.53v1.89h1.53v.67h-1.53V29a1.54,1.54,0,0,0,.22.92.86.86,0,0,0,.74.3,5,5,0,0,0,.66-.07l0,.66a2.66,2.66,0,0,1-.87.12,1.46,1.46,0,0,1-1.22-.49,2.3,2.3,0,0,1-.38-1.44V24.1h-1.36v-.67h1.36V21.53Z"/><path class="cls-1" d="M410.63,30.33a.58.58,0,0,1,.15-.41.55.55,0,0,1,.43-.17.56.56,0,0,1,.43.17.57.57,0,0,1,.16.41.53.53,0,0,1-.16.39.58.58,0,0,1-.43.15.58.58,0,0,1-.43-.15A.53.53,0,0,1,410.63,30.33Zm0-6.31a.59.59,0,0,1,.15-.41.55.55,0,0,1,.43-.17.56.56,0,0,1,.43.17.58.58,0,0,1,.16.41.53.53,0,0,1-.16.39.59.59,0,0,1-.43.15.58.58,0,0,1-.43-.15A.54.54,0,0,1,410.65,24Z"/><path class="cls-1" d="M420.85,30.82H420v-9l-2.71,1V22.1l3.39-1.26h.14Z"/><path class="cls-1" d="M427.48,26.78H424.2v-.69h3.27Z"/><path class="cls-1" d="M434.68,23.44a2.27,2.27,0,0,1-.45,1.38,2.62,2.62,0,0,1-1.19.9,2.92,2.92,0,0,1,1.38,1,2.37,2.37,0,0,1,.52,1.52,2.54,2.54,0,0,1-.87,2,3.92,3.92,0,0,1-4.6,0,2.54,2.54,0,0,1-.87-2,2.44,2.44,0,0,1,.5-1.51,2.77,2.77,0,0,1,1.37-1,2.54,2.54,0,0,1-1.18-.9,2.32,2.32,0,0,1-.44-1.38,2.54,2.54,0,0,1,.8-2,3.4,3.4,0,0,1,4.22,0A2.54,2.54,0,0,1,434.68,23.44Zm-.56,4.76a2,2,0,0,0-.66-1.53,2.71,2.71,0,0,0-3.38,0,2,2,0,0,0-.66,1.54,1.92,1.92,0,0,0,.64,1.51,2.89,2.89,0,0,0,3.42,0A1.91,1.91,0,0,0,434.12,28.19Zm-.26-4.76a1.9,1.9,0,0,0-.59-1.43,2.31,2.31,0,0,0-3,0,1.9,1.9,0,0,0-.58,1.45,1.83,1.83,0,0,0,.58,1.41,2.4,2.4,0,0,0,3,0A1.81,1.81,0,0,0,433.86,23.43Z"/><path class="cls-1" d="M442.57,26.68a5.51,5.51,0,0,1-.77,3.2,2.92,2.92,0,0,1-4.54,0,5.3,5.3,0,0,1-.81-3.11V25a5.41,5.41,0,0,1,.78-3.18,2.95,2.95,0,0,1,4.53,0,5.21,5.21,0,0,1,.81,3.07Zm-.82-1.78a4.85,4.85,0,0,0-.56-2.58,2.06,2.06,0,0,0-3.35,0,4.69,4.69,0,0,0-.57,2.52v2a4.85,4.85,0,0,0,.58,2.6,1.87,1.87,0,0,0,1.68.9,1.84,1.84,0,0,0,1.66-.88,4.86,4.86,0,0,0,.57-2.58Z"/><path class="cls-1" d="M450.33,26.68a5.51,5.51,0,0,1-.77,3.2,2.92,2.92,0,0,1-4.54,0,5.3,5.3,0,0,1-.81-3.11V25a5.41,5.41,0,0,1,.78-3.18,2.95,2.95,0,0,1,4.53,0,5.21,5.21,0,0,1,.81,3.07Zm-.82-1.78a4.85,4.85,0,0,0-.56-2.58,2.06,2.06,0,0,0-3.35,0,4.69,4.69,0,0,0-.57,2.52v2a4.85,4.85,0,0,0,.58,2.6,1.87,1.87,0,0,0,1.68.9,1.84,1.84,0,0,0,1.66-.88,4.86,4.86,0,0,0,.57-2.58Z"/><path class="cls-1" d="M454.76,26.78h-3.27v-.69h3.27Z"/><path class="cls-1" d="M461.2,26.22a3.08,3.08,0,0,1-1.09,1,2.9,2.9,0,0,1-1.41.35,2.61,2.61,0,0,1-1.5-.44,2.87,2.87,0,0,1-1-1.21,4,4,0,0,1-.36-1.69,4.14,4.14,0,0,1,.38-1.79,3,3,0,0,1,1.06-1.25,3.06,3.06,0,0,1,3.9.6,4.69,4.69,0,0,1,.83,3v.74a6.12,6.12,0,0,1-1.15,4,4.34,4.34,0,0,1-3.51,1.35h-.15v-.71h.29a3.64,3.64,0,0,0,2.71-1A4.33,4.33,0,0,0,461.2,26.22Zm-2.39.64a2.4,2.4,0,0,0,1.47-.49,2.64,2.64,0,0,0,.93-1.27v-.47a3.83,3.83,0,0,0-.63-2.35,2,2,0,0,0-1.71-.83,2,2,0,0,0-1.59.78,3.05,3.05,0,0,0-.62,2,3,3,0,0,0,.6,1.9A1.88,1.88,0,0,0,458.81,26.85Z"/><path class="cls-1" d="M468.68,20.8v.71h-.1a3.75,3.75,0,0,0-2.81,1.05,4.4,4.4,0,0,0-1.13,2.92,2.79,2.79,0,0,1,1-.88,3.2,3.2,0,0,1,1.42-.31,2.61,2.61,0,0,1,2.09.91,3.51,3.51,0,0,1,.78,2.37,4.11,4.11,0,0,1-.36,1.75A2.76,2.76,0,0,1,467,31a2.93,2.93,0,0,1-2.32-1,4,4,0,0,1-.9-2.68v-.82A6.31,6.31,0,0,1,465,22.29a4.31,4.31,0,0,1,3.45-1.49ZM467,25a2.52,2.52,0,0,0-1.45.46,2.21,2.21,0,0,0-.9,1.17v.7a3.25,3.25,0,0,0,.67,2.12,2.13,2.13,0,0,0,1.73.82,1.87,1.87,0,0,0,1.55-.76,3,3,0,0,0,.59-1.91,2.85,2.85,0,0,0-.59-1.88A2,2,0,0,0,467,25Z"/><path class="cls-1" d="M475.42,30.82h-.82v-9l-2.71,1V22.1l3.39-1.26h.14Z"/><path class="cls-1" d="M482,26.78h-3.27v-.69H482Z"/><path class="cls-1" d="M488.4,27.62H490v.69H488.4v2.52h-.82V28.31H482.9v-.46l4.61-7h.9Zm-4.5,0h3.68V21.93l-.36.63Z"/><path class="cls-1" d="M496.16,27.62h1.55v.69h-1.55v2.52h-.82V28.31h-4.68v-.46l4.61-7h.9Zm-4.5,0h3.68V21.93l-.36.63Z"/><path class="cls-1" d="M499.45,25.73l.49-4.85h5v.76h-4.27L500.29,25a3.24,3.24,0,0,1,1.87-.55,2.77,2.77,0,0,1,2.15.88,3.32,3.32,0,0,1,.8,2.33,3.53,3.53,0,0,1-.78,2.44,2.8,2.8,0,0,1-2.19.87,3,3,0,0,1-2.11-.72,3,3,0,0,1-.92-2h.79a2.37,2.37,0,0,0,.69,1.54,2.22,2.22,0,0,0,1.55.52,1.94,1.94,0,0,0,1.61-.68,3,3,0,0,0,.54-1.93,2.6,2.6,0,0,0-.61-1.78,2.1,2.1,0,0,0-1.66-.69,3.15,3.15,0,0,0-1,.15,2.78,2.78,0,0,0-.91.57Z"/><path class="cls-1" d="M511.68,27.62h1.55v.69h-1.55v2.52h-.82V28.31h-4.68v-.46l4.61-7h.9Zm-4.5,0h3.68V21.93l-.36.63Z"/><path class="cls-2" d="M525.59,32.67h-.69V20.87h.69Z"/><path class="cls-1" d="M543.74,26.05h-4.66v4.06h5.35v.71h-6.19v-10h6.16v.71h-5.32v3.76h4.66Z"/><path class="cls-1" d="M546.77,23.43l0,1.2a2.74,2.74,0,0,1,1-1,2.81,2.81,0,0,1,1.37-.33,2.07,2.07,0,0,1,2.22,1.44,2.78,2.78,0,0,1,1.06-1.06,2.93,2.93,0,0,1,1.46-.37q2.38,0,2.43,2.6v4.94h-.82V26a2.2,2.2,0,0,0-.43-1.47,1.74,1.74,0,0,0-1.37-.48,2.18,2.18,0,0,0-1.49.57,2,2,0,0,0-.68,1.36v4.89h-.82V25.89a2,2,0,0,0-.45-1.42,1.78,1.78,0,0,0-1.36-.47,2.06,2.06,0,0,0-1.33.44,2.58,2.58,0,0,0-.82,1.31v5.07H546v-7.4Z"/><path class="cls-1" d="M563.1,30.82a3.85,3.85,0,0,1-.16-1,2.84,2.84,0,0,1-1.1.86,3.35,3.35,0,0,1-1.41.3,2.48,2.48,0,0,1-1.73-.59,1.94,1.94,0,0,1-.66-1.5,2,2,0,0,1,.9-1.71,4.32,4.32,0,0,1,2.51-.63h1.48v-.84a1.62,1.62,0,0,0-.49-1.25A2,2,0,0,0,561,24a2.23,2.23,0,0,0-1.42.44,1.3,1.3,0,0,0-.56,1.05h-.82a1.9,1.9,0,0,1,.82-1.53,3.15,3.15,0,0,1,2-.65,2.88,2.88,0,0,1,2,.62,2.22,2.22,0,0,1,.73,1.73v3.5a4.34,4.34,0,0,0,.23,1.61v.08Zm-2.57-.59a2.74,2.74,0,0,0,1.47-.4,2.33,2.33,0,0,0,.94-1.06V27.15h-1.46a3.66,3.66,0,0,0-1.91.45,1.34,1.34,0,0,0-.69,1.19,1.32,1.32,0,0,0,.46,1A1.74,1.74,0,0,0,560.53,30.24Z"/><path class="cls-1" d="M565.88,21.29a.54.54,0,0,1,.15-.39.54.54,0,0,1,.41-.16.55.55,0,0,1,.41.16.54.54,0,0,1,.15.39.53.53,0,0,1-.15.39.55.55,0,0,1-.41.16.54.54,0,0,1-.41-.16A.54.54,0,0,1,565.88,21.29Zm1,9.53H566v-7.4h.82Z"/><path class="cls-1" d="M570,30.82h-.82V20.32H570Z"/><path class="cls-1" d="M582.65,20.87v6.79a3.44,3.44,0,0,1-.44,1.75A2.9,2.9,0,0,1,581,30.56a4,4,0,0,1-1.83.4,3.61,3.61,0,0,1-2.52-.86,3.15,3.15,0,0,1-1-2.38V20.87h.83v6.73a2.59,2.59,0,0,0,.72,2,3.07,3.07,0,0,0,3.89,0,2.59,2.59,0,0,0,.71-1.94V20.87Z"/><path class="cls-1" d="M589.24,28.94a1.17,1.17,0,0,0-.49-1,3.78,3.78,0,0,0-1.47-.58,6.62,6.62,0,0,1-1.53-.48,2,2,0,0,1-.81-.66,1.65,1.65,0,0,1-.26-.94,1.76,1.76,0,0,1,.73-1.45,3,3,0,0,1,1.87-.57,3,3,0,0,1,2,.61,2,2,0,0,1,.75,1.6h-.82a1.33,1.33,0,0,0-.54-1.08,2.45,2.45,0,0,0-2.67-.07,1.11,1.11,0,0,0-.49.93,1,1,0,0,0,.41.86,4.32,4.32,0,0,0,1.48.56,7,7,0,0,1,1.61.54,2.09,2.09,0,0,1,.8.69,1.9,1.9,0,0,1-.5,2.47,3.22,3.22,0,0,1-2,.56,3.32,3.32,0,0,1-2.09-.62,1.93,1.93,0,0,1-.8-1.58h.82a1.43,1.43,0,0,0,.6,1.12,2.48,2.48,0,0,0,1.47.4,2.32,2.32,0,0,0,1.38-.38A1.13,1.13,0,0,0,589.24,28.94Z"/><path class="cls-2" d="M602.95,32.67h-.69V20.87h.69Z"/><path class="cls-1" d="M622.65,27.72a3.57,3.57,0,0,1-1.12,2.41A3.72,3.72,0,0,1,619,31a3.51,3.51,0,0,1-2-.55,3.6,3.6,0,0,1-1.32-1.57,5.59,5.59,0,0,1-.47-2.32V25.23a5.65,5.65,0,0,1,.46-2.35A3.57,3.57,0,0,1,617,21.29a3.64,3.64,0,0,1,2-.56,3.56,3.56,0,0,1,2.53.86A3.61,3.61,0,0,1,622.65,24h-.85A2.53,2.53,0,0,0,619,21.45a2.61,2.61,0,0,0-2.16,1,4.39,4.39,0,0,0-.8,2.8v1.22a4.42,4.42,0,0,0,.78,2.75,2.52,2.52,0,0,0,2.12,1,2.8,2.8,0,0,0,2-.63,3,3,0,0,0,.83-1.9Z"/><path class="cls-1" d="M625.32,24.68a2.88,2.88,0,0,1,1-1,2.71,2.71,0,0,1,1.37-.36,2.22,2.22,0,0,1,1.77.67,3,3,0,0,1,.59,2v4.85h-.81V26a2.26,2.26,0,0,0-.42-1.48,1.65,1.65,0,0,0-1.32-.49,2.07,2.07,0,0,0-1.34.47,2.79,2.79,0,0,0-.86,1.28v5.07h-.81V20.32h.81Z"/><path class="cls-1" d="M636.86,30.82a3.85,3.85,0,0,1-.16-1,2.84,2.84,0,0,1-1.1.86,3.35,3.35,0,0,1-1.41.3,2.48,2.48,0,0,1-1.73-.59,1.94,1.94,0,0,1-.66-1.5,2,2,0,0,1,.9-1.71,4.32,4.32,0,0,1,2.51-.63h1.48v-.84a1.62,1.62,0,0,0-.49-1.25,2,2,0,0,0-1.42-.45,2.23,2.23,0,0,0-1.42.44,1.3,1.3,0,0,0-.56,1.05H632a1.9,1.9,0,0,1,.82-1.53,3.15,3.15,0,0,1,2-.65,2.88,2.88,0,0,1,2,.62,2.22,2.22,0,0,1,.73,1.73v3.5a4.34,4.34,0,0,0,.23,1.61v.08Zm-2.57-.59a2.74,2.74,0,0,0,1.47-.4,2.33,2.33,0,0,0,.94-1.06V27.15h-1.46a3.66,3.66,0,0,0-1.91.45,1.34,1.34,0,0,0-.69,1.19,1.32,1.32,0,0,0,.46,1A1.74,1.74,0,0,0,634.29,30.24Z"/><path class="cls-1" d="M641,21.53v1.89h1.53v.67H641V29a1.54,1.54,0,0,0,.22.92.86.86,0,0,0,.74.3,5,5,0,0,0,.66-.07l0,.66a2.66,2.66,0,0,1-.87.12,1.46,1.46,0,0,1-1.22-.49,2.3,2.3,0,0,1-.38-1.44V24.1h-1.36v-.67h1.36V21.53Z"/><path class="cls-2" d="M22.49,26.25a4.55,4.55,0,0,1,.55-2.2,4.1,4.1,0,0,1,1.52-1.6,4.05,4.05,0,0,1,4.19,0,4.1,4.1,0,0,1,1.52,1.6,4.69,4.69,0,0,1,0,4.37A4.18,4.18,0,0,1,28.78,30a4,4,0,0,1-4.25,0A4.18,4.18,0,0,1,23,28.43,4.58,4.58,0,0,1,22.49,26.25Zm.33,0a4.2,4.2,0,0,0,.52,2.05,3.88,3.88,0,0,0,1.41,1.49,3.63,3.63,0,0,0,3.83,0A3.91,3.91,0,0,0,30,28.29a4.31,4.31,0,0,0,0-4.07,3.87,3.87,0,0,0-1.4-1.48,3.65,3.65,0,0,0-3.82,0,3.84,3.84,0,0,0-1.41,1.48A4.18,4.18,0,0,0,22.82,26.25Zm5.54.66a1.88,1.88,0,0,1-.46,1.37,1.71,1.71,0,0,1-1.29.47,1.67,1.67,0,0,1-1.36-.63,2.54,2.54,0,0,1-.52-1.66V26a2.48,2.48,0,0,1,.52-1.64,1.68,1.68,0,0,1,1.35-.63,1.7,1.7,0,0,1,1.29.48,1.89,1.89,0,0,1,.46,1.35h-.3a1.55,1.55,0,0,0-.37-1.14,1.45,1.45,0,0,0-1.07-.38,1.37,1.37,0,0,0-1.12.54,2.26,2.26,0,0,0-.43,1.45v.43a2.2,2.2,0,0,0,.42,1.41,1.37,1.37,0,0,0,1.13.54q1.44,0,1.44-1.52Z"/><path class="cls-2" d="M43.75,30.53h-5.1v-.32l2.91-3.36a8.79,8.79,0,0,0,1.06-1.49,2.56,2.56,0,0,0,.35-1.2,1.91,1.91,0,0,0-.54-1.46,2.39,2.39,0,0,0-2.62-.23,2,2,0,0,0-.77.79,2.3,2.3,0,0,0-.28,1.13h-.32a2.63,2.63,0,0,1,.32-1.27,2.34,2.34,0,0,1,.88-.92,2.42,2.42,0,0,1,1.26-.33,2.46,2.46,0,0,1,1.77.6,2.22,2.22,0,0,1,.63,1.69,4.11,4.11,0,0,1-1.12,2.38l-.53.65-2.58,3h4.69Z"/><path class="cls-2" d="M50.16,27a4.54,4.54,0,0,1-.67,2.66,2.34,2.34,0,0,1-3.76,0A4.53,4.53,0,0,1,45.05,27V25.48a4.55,4.55,0,0,1,.67-2.65,2.33,2.33,0,0,1,3.76,0,4.59,4.59,0,0,1,.67,2.67Zm-.32-1.57a4.3,4.3,0,0,0-.58-2.42,2,2,0,0,0-3.31,0,4.4,4.4,0,0,0-.58,2.45V27A4.27,4.27,0,0,0,46,29.45a1.89,1.89,0,0,0,1.65.87,1.86,1.86,0,0,0,1.65-.87A4.4,4.4,0,0,0,49.84,27Z"/><path class="cls-2" d="M54.75,30.53h-.32V22.39L52,23.31V23l2.7-1h.06Z"/><path class="cls-2" d="M63.36,22.19,59.6,30.53h-.32L63,22.31H57.91V22h5.45Z"/><path class="cls-2" d="M71.31,26.88h-3v3.65H68V22h2.72a3,3,0,0,1,2,.66,2.26,2.26,0,0,1,.76,1.8A2.32,2.32,0,0,1,73,26a2.29,2.29,0,0,1-1.38.81l2.28,3.65v.08h-.33Zm-3-.32H71a2.17,2.17,0,0,0,1.59-.6,2,2,0,0,0,.61-1.51,2,2,0,0,0-.67-1.57,2.73,2.73,0,0,0-1.84-.57H68.35Z"/><path class="cls-2" d="M79.85,30.53a4.4,4.4,0,0,1-.12-1.16,2.54,2.54,0,0,1-1,.94,3.17,3.17,0,0,1-1.47.33,2,2,0,0,1-1.42-.48,1.59,1.59,0,0,1-.54-1.25,1.61,1.61,0,0,1,.79-1.4A3.79,3.79,0,0,1,78.17,27h1.56v-.93a1.56,1.56,0,0,0-.5-1.24,2.11,2.11,0,0,0-1.43-.44,2.31,2.31,0,0,0-1.45.45,1.34,1.34,0,0,0-.58,1.1h-.32a1.62,1.62,0,0,1,.68-1.31,2.59,2.59,0,0,1,1.66-.54,2.43,2.43,0,0,1,1.63.51A1.84,1.84,0,0,1,80.05,26v3a4.07,4.07,0,0,0,.16,1.42v.05Zm-2.61-.2a2.85,2.85,0,0,0,1.53-.4,2.47,2.47,0,0,0,1-1.12V27.3H78.27a3.43,3.43,0,0,0-2.08.54,1.32,1.32,0,0,0-.59,1.1,1.26,1.26,0,0,0,.46,1A1.72,1.72,0,0,0,77.24,30.33Z"/><path class="cls-2" d="M84.24,30.33a2.17,2.17,0,0,0,1.42-.46,1.7,1.7,0,0,0,.61-1.27h.32a2,2,0,0,1-.71,1.48,2.45,2.45,0,0,1-1.64.56,2.31,2.31,0,0,1-1.89-.86,3.6,3.6,0,0,1-.7-2.34v-.21a3.54,3.54,0,0,1,.7-2.3,2.3,2.3,0,0,1,1.88-.86,2.36,2.36,0,0,1,1.66.6,2.21,2.21,0,0,1,.7,1.61h-.32a1.92,1.92,0,0,0-.6-1.37,2,2,0,0,0-1.44-.52,2,2,0,0,0-1.66.76,3.36,3.36,0,0,0-.6,2.12v.21a3.26,3.26,0,0,0,.61,2.09A2,2,0,0,0,84.24,30.33Z"/><path class="cls-2" d="M89.43,27.1h0l-.92.79v2.63h-.32v-9h.32v6l.74-.7,2.88-2.67h.45l-2.91,2.7,3.09,3.64h-.41Z"/><path class="cls-2" d="M97.76,29q0-1.15-2-1.57a3.87,3.87,0,0,1-1.65-.65,1.35,1.35,0,0,1-.46-1.09,1.39,1.39,0,0,1,.59-1.15,2.45,2.45,0,0,1,1.53-.45,2.59,2.59,0,0,1,1.65.49,1.59,1.59,0,0,1,.62,1.32h-.32a1.31,1.31,0,0,0-.54-1.07,2.2,2.2,0,0,0-1.41-.43,2.16,2.16,0,0,0-1.32.36,1.17,1.17,0,0,0-.3,1.58,1.57,1.57,0,0,0,.59.44,6.08,6.08,0,0,0,1.2.38,5.1,5.1,0,0,1,1.24.43,1.68,1.68,0,0,1,.66.58,1.56,1.56,0,0,1,.21.82,1.43,1.43,0,0,1-.62,1.21,2.64,2.64,0,0,1-1.61.46,2.82,2.82,0,0,1-1.72-.48,1.48,1.48,0,0,1-.65-1.25h.32a1.31,1.31,0,0,0,.59,1,2.56,2.56,0,0,0,1.47.37,2.25,2.25,0,0,0,1.38-.4A1.17,1.17,0,0,0,97.76,29Z"/><path class="cls-2" d="M104.67,27.42a3.91,3.91,0,0,1-.64,2.36,2,2,0,0,1-1.74.87,2.74,2.74,0,0,1-1.28-.29,2.2,2.2,0,0,1-.88-.81V33h-.32V24.19h.32v1.13a2.32,2.32,0,0,1,.88-.93,2.48,2.48,0,0,1,1.27-.32,2.07,2.07,0,0,1,1.75.85,3.92,3.92,0,0,1,.64,2.39Zm-.32-.12a3.66,3.66,0,0,0-.54-2.14,1.75,1.75,0,0,0-1.52-.77,2.21,2.21,0,0,0-1.35.41,2.29,2.29,0,0,0-.8,1.19v3a2,2,0,0,0,.81,1,2.46,2.46,0,0,0,1.36.36,1.74,1.74,0,0,0,1.51-.77A4,4,0,0,0,104.35,27.29Z"/><path class="cls-2" d="M110.49,30.53a4.4,4.4,0,0,1-.12-1.16,2.54,2.54,0,0,1-1,.94,3.17,3.17,0,0,1-1.47.33,2,2,0,0,1-1.42-.48,1.59,1.59,0,0,1-.54-1.25,1.61,1.61,0,0,1,.79-1.4,3.79,3.79,0,0,1,2.09-.54h1.56v-.93a1.56,1.56,0,0,0-.5-1.24,2.11,2.11,0,0,0-1.43-.44,2.31,2.31,0,0,0-1.45.45,1.34,1.34,0,0,0-.58,1.1h-.32a1.62,1.62,0,0,1,.68-1.31,2.59,2.59,0,0,1,1.66-.54,2.43,2.43,0,0,1,1.63.51,1.84,1.84,0,0,1,.62,1.44v3a4.07,4.07,0,0,0,.16,1.42v.05Zm-2.61-.2a2.85,2.85,0,0,0,1.53-.4,2.47,2.47,0,0,0,1-1.12V27.3h-1.46a3.43,3.43,0,0,0-2.08.54,1.32,1.32,0,0,0-.59,1.1,1.26,1.26,0,0,0,.46,1A1.72,1.72,0,0,0,107.88,30.33Z"/><path class="cls-2" d="M114.88,30.33a2.17,2.17,0,0,0,1.42-.46,1.7,1.7,0,0,0,.61-1.27h.32a2,2,0,0,1-.71,1.48,2.45,2.45,0,0,1-1.64.56,2.31,2.31,0,0,1-1.89-.86,3.6,3.6,0,0,1-.7-2.34v-.21a3.54,3.54,0,0,1,.7-2.3,2.3,2.3,0,0,1,1.88-.86,2.36,2.36,0,0,1,1.66.6,2.21,2.21,0,0,1,.7,1.61h-.32a1.92,1.92,0,0,0-.6-1.37,2,2,0,0,0-1.44-.52,2,2,0,0,0-1.66.76,3.36,3.36,0,0,0-.6,2.12v.21a3.26,3.26,0,0,0,.61,2.09A2,2,0,0,0,114.88,30.33Z"/><path class="cls-2" d="M121.1,30.64a2.55,2.55,0,0,1-1.41-.41,2.83,2.83,0,0,1-1-1.13,3.5,3.5,0,0,1-.36-1.6v-.26a3.67,3.67,0,0,1,.35-1.61,2.79,2.79,0,0,1,1-1.14,2.37,2.37,0,0,1,1.34-.41,2.22,2.22,0,0,1,1.73.76,2.87,2.87,0,0,1,.67,2v.33h-4.75v.34a3.19,3.19,0,0,0,.33,1.43,2.56,2.56,0,0,0,.9,1,2.22,2.22,0,0,0,1.24.37,2.51,2.51,0,0,0,1.09-.21,2.21,2.21,0,0,0,.79-.65l.22.16A2.39,2.39,0,0,1,121.1,30.64ZM121,24.39a2.07,2.07,0,0,0-1.57.69,2.93,2.93,0,0,0-.76,1.75h4.42v-.08a2.68,2.68,0,0,0-.27-1.2,2.1,2.1,0,0,0-.75-.86A1.93,1.93,0,0,0,121,24.39Z"/><path class="cls-2" d="M133.64,22v5.78a2.8,2.8,0,0,1-.79,2.11,3.36,3.36,0,0,1-4.25,0,2.79,2.79,0,0,1-.79-2.09V22h.32v5.77a2.49,2.49,0,0,0,.71,1.88,2.92,2.92,0,0,0,3.78,0,2.51,2.51,0,0,0,.71-1.88V22Z"/><path class="cls-2" d="M141,28.48a1.61,1.61,0,0,0-.25-.92,2.16,2.16,0,0,0-.8-.67,8.64,8.64,0,0,0-1.66-.59,7.79,7.79,0,0,1-1.66-.62,2.2,2.2,0,0,1-.81-.72,1.83,1.83,0,0,1-.26-1,1.79,1.79,0,0,1,.79-1.51,3.37,3.37,0,0,1,2-.58,3.31,3.31,0,0,1,1.47.32,2.39,2.39,0,0,1,1,.9,2.43,2.43,0,0,1,.36,1.3h-.32a2,2,0,0,0-.7-1.58,2.64,2.64,0,0,0-1.82-.62,3,3,0,0,0-1.82.5,1.52,1.52,0,0,0-.09,2.49,5.7,5.7,0,0,0,2,.83,6.14,6.14,0,0,1,2,.83,1.91,1.91,0,0,1,.82,1.62,1.88,1.88,0,0,1-.36,1.14,2.31,2.31,0,0,1-1,.76,4,4,0,0,1-1.5.27,4.29,4.29,0,0,1-1.66-.31,2.37,2.37,0,0,1-1.11-.88,2.39,2.39,0,0,1-.37-1.34h.32a1.91,1.91,0,0,0,.79,1.63,3.36,3.36,0,0,0,2,.58,3.13,3.13,0,0,0,1.85-.51A1.57,1.57,0,0,0,141,28.48Z"/><path class="cls-2" d="M142.58,32l-.22-.19a2.27,2.27,0,0,0,.52-1.26v-1h.32v.86A2.3,2.3,0,0,1,142.58,32Z"/><path class="cls-2" d="M148.66,30.53h-.32V22h.32Z"/><path class="cls-2" d="M151.39,25.66a2.65,2.65,0,0,1,.91-1.17,2.26,2.26,0,0,1,1.34-.43,1.89,1.89,0,0,1,1.51.58,2.64,2.64,0,0,1,.5,1.74v4.14h-.32V26.38a2.33,2.33,0,0,0-.42-1.51,1.6,1.6,0,0,0-1.3-.49,2,2,0,0,0-1.42.58,3,3,0,0,0-.81,1.5v4.06h-.32V24.19h.32Z"/><path class="cls-2" d="M159.79,30.33a2.17,2.17,0,0,0,1.42-.46,1.7,1.7,0,0,0,.61-1.27h.32a2,2,0,0,1-.71,1.48,2.45,2.45,0,0,1-1.64.56,2.31,2.31,0,0,1-1.89-.86,3.6,3.6,0,0,1-.7-2.34v-.21a3.54,3.54,0,0,1,.7-2.3,2.3,2.3,0,0,1,1.88-.86,2.36,2.36,0,0,1,1.66.6,2.21,2.21,0,0,1,.7,1.61h-.32a1.92,1.92,0,0,0-.6-1.37,2,2,0,0,0-1.44-.52,2,2,0,0,0-1.66.76,3.36,3.36,0,0,0-.6,2.12v.21a3.26,3.26,0,0,0,.61,2.09A2,2,0,0,0,159.79,30.33Z"/><path class="cls-2" d="M163.58,30.24a.32.32,0,0,1,.09-.23.31.31,0,0,1,.23-.1.33.33,0,0,1,.33.33.31.31,0,0,1-.1.23.32.32,0,0,1-.23.09.32.32,0,0,1-.32-.32Z"/><rect x="1.28" y="87.63" width="800" height="51.07"/><path class="cls-1" d="M192.94,113.68h-4.66v4.06h5.35v.71h-6.19v-10h6.16v.71h-5.32V113h4.66Z"/><path class="cls-1" d="M194.89,114.68a4.45,4.45,0,0,1,.77-2.75,2.47,2.47,0,0,1,2.09-1A2.57,2.57,0,0,1,200,112.1v-4.15h.81v10.5h-.77l0-1a2.64,2.64,0,0,1-2.31,1.12,2.46,2.46,0,0,1-2.06-1,4.47,4.47,0,0,1-.78-2.78Zm.83.14a3.86,3.86,0,0,0,.57,2.23,1.84,1.84,0,0,0,1.6.82,2.2,2.2,0,0,0,2.15-1.33v-3.47a2.18,2.18,0,0,0-2.13-1.44,1.85,1.85,0,0,0-1.61.81A4.12,4.12,0,0,0,195.72,114.83Z"/><path class="cls-1" d="M202.95,108.92a.54.54,0,0,1,.15-.39.54.54,0,0,1,.41-.16.55.55,0,0,1,.41.16.54.54,0,0,1,.15.39.53.53,0,0,1-.15.39.55.55,0,0,1-.41.16.54.54,0,0,1-.41-.16A.54.54,0,0,1,202.95,108.92Zm1,9.53h-.82v-7.4h.82Z"/><path class="cls-1" d="M207.41,109.16v1.89h1.53v.67h-1.53v4.93a1.54,1.54,0,0,0,.22.92.86.86,0,0,0,.74.3,5,5,0,0,0,.66-.07l0,.66a2.66,2.66,0,0,1-.87.12,1.46,1.46,0,0,1-1.22-.49,2.3,2.3,0,0,1-.38-1.44v-4.94h-1.36v-.67h1.36v-1.89Z"/><path class="cls-1" d="M221.64,118.45h-.84l-5.72-8.52v8.52h-.85v-10h.85L220.8,117V108.5h.83Z"/><path class="cls-1" d="M223.52,114.64a4.34,4.34,0,0,1,.41-1.92,3.1,3.1,0,0,1,2.88-1.8,3,3,0,0,1,2.39,1,4,4,0,0,1,.92,2.75v.17a4.38,4.38,0,0,1-.41,1.93,3.09,3.09,0,0,1-1.17,1.32,3.2,3.2,0,0,1-1.72.46,3,3,0,0,1-2.39-1,4,4,0,0,1-.92-2.75Zm.82.23A3.35,3.35,0,0,0,225,117a2.33,2.33,0,0,0,3.6,0,3.48,3.48,0,0,0,.69-2.25v-.16a3.76,3.76,0,0,0-.31-1.55,2.52,2.52,0,0,0-.88-1.09,2.25,2.25,0,0,0-1.3-.39,2.19,2.19,0,0,0-1.78.86,3.48,3.48,0,0,0-.69,2.25Z"/><path class="cls-1" d="M233.09,109.16v1.89h1.53v.67h-1.53v4.93a1.54,1.54,0,0,0,.22.92.86.86,0,0,0,.74.3,5,5,0,0,0,.66-.07l0,.66a2.66,2.66,0,0,1-.87.12,1.46,1.46,0,0,1-1.22-.49,2.3,2.3,0,0,1-.38-1.44v-4.94h-1.36v-.67h1.36v-1.89Z"/><path class="cls-1" d="M236.27,108.92a.54.54,0,0,1,.15-.39.54.54,0,0,1,.41-.16.55.55,0,0,1,.41.16.54.54,0,0,1,.15.39.53.53,0,0,1-.15.39.55.55,0,0,1-.41.16.54.54,0,0,1-.41-.16A.54.54,0,0,1,236.27,108.92Zm1,9.53h-.82v-7.4h.82Z"/><path class="cls-1" d="M240,118.45v-6.73h-1.22v-.67H240v-.9a2.43,2.43,0,0,1,.58-1.74,2.11,2.11,0,0,1,1.61-.61,3.14,3.14,0,0,1,.87.12l-.06.68a3.19,3.19,0,0,0-.75-.08,1.34,1.34,0,0,0-1.05.42,1.73,1.73,0,0,0-.38,1.2v.92h1.76v.67h-1.76v6.73Z"/><path class="cls-1" d="M244,108.92a.54.54,0,0,1,.15-.39.54.54,0,0,1,.41-.16.55.55,0,0,1,.41.16.54.54,0,0,1,.15.39.53.53,0,0,1-.15.39.55.55,0,0,1-.41.16.54.54,0,0,1-.41-.16A.54.54,0,0,1,244,108.92Zm1,9.53h-.82v-7.4H245Z"/><path class="cls-1" d="M250,117.9a2.16,2.16,0,0,0,1.43-.48,1.7,1.7,0,0,0,.63-1.25h.79a2.32,2.32,0,0,1-.42,1.23,2.67,2.67,0,0,1-1,.87,3.12,3.12,0,0,1-1.38.31,2.85,2.85,0,0,1-2.31-1,4.09,4.09,0,0,1-.85-2.72v-.25a4.63,4.63,0,0,1,.38-1.93,3,3,0,0,1,1.1-1.3,3,3,0,0,1,1.67-.46,2.85,2.85,0,0,1,2,.72,2.65,2.65,0,0,1,.84,1.91H252a2,2,0,0,0-2.06-1.93,2,2,0,0,0-1.72.8,3.62,3.62,0,0,0-.61,2.24v.24a3.54,3.54,0,0,0,.61,2.21A2.06,2.06,0,0,0,250,117.9Z"/><path class="cls-1" d="M259.11,118.45a3.85,3.85,0,0,1-.16-1,2.84,2.84,0,0,1-1.1.86,3.35,3.35,0,0,1-1.41.3,2.48,2.48,0,0,1-1.73-.59,1.94,1.94,0,0,1-.66-1.5,2,2,0,0,1,.9-1.71,4.32,4.32,0,0,1,2.51-.63h1.48v-.84a1.62,1.62,0,0,0-.49-1.25,2,2,0,0,0-1.42-.45,2.23,2.23,0,0,0-1.42.44,1.3,1.3,0,0,0-.56,1.05h-.82a1.9,1.9,0,0,1,.82-1.53,3.15,3.15,0,0,1,2-.65,2.88,2.88,0,0,1,2,.62,2.22,2.22,0,0,1,.73,1.73v3.5a4.34,4.34,0,0,0,.23,1.61v.08Zm-2.57-.59a2.74,2.74,0,0,0,1.47-.4,2.33,2.33,0,0,0,.94-1.06v-1.63h-1.46a3.66,3.66,0,0,0-1.91.45,1.34,1.34,0,0,0-.69,1.19,1.32,1.32,0,0,0,.46,1A1.74,1.74,0,0,0,256.54,117.86Z"/><path class="cls-1" d="M263.21,109.16v1.89h1.53v.67h-1.53v4.93a1.54,1.54,0,0,0,.22.92.86.86,0,0,0,.74.3,5,5,0,0,0,.66-.07l0,.66a2.66,2.66,0,0,1-.87.12,1.46,1.46,0,0,1-1.22-.49,2.3,2.3,0,0,1-.38-1.44v-4.94H261v-.67h1.36v-1.89Z"/><path class="cls-1" d="M266.39,108.92a.54.54,0,0,1,.15-.39.54.54,0,0,1,.41-.16.55.55,0,0,1,.41.16.54.54,0,0,1,.15.39.53.53,0,0,1-.15.39.55.55,0,0,1-.41.16.54.54,0,0,1-.41-.16A.54.54,0,0,1,266.39,108.92Zm1,9.53h-.82v-7.4h.82Z"/><path class="cls-1" d="M269.12,114.64a4.34,4.34,0,0,1,.41-1.92,3.1,3.1,0,0,1,2.88-1.8,3,3,0,0,1,2.39,1,4,4,0,0,1,.92,2.75v.17a4.38,4.38,0,0,1-.41,1.93,3.09,3.09,0,0,1-1.17,1.32,3.2,3.2,0,0,1-1.72.46,3,3,0,0,1-2.39-1,4,4,0,0,1-.92-2.75Zm.82.23a3.35,3.35,0,0,0,.69,2.18,2.33,2.33,0,0,0,3.6,0,3.48,3.48,0,0,0,.69-2.25v-.16a3.76,3.76,0,0,0-.31-1.55,2.52,2.52,0,0,0-.88-1.09,2.25,2.25,0,0,0-1.3-.39,2.19,2.19,0,0,0-1.78.86,3.48,3.48,0,0,0-.69,2.25Z"/><path class="cls-1" d="M278.19,111.05l0,1.26a2.93,2.93,0,0,1,1-1,2.69,2.69,0,0,1,1.37-.36,2.22,2.22,0,0,1,1.77.67,3,3,0,0,1,.59,2v4.85h-.81v-4.86a2.26,2.26,0,0,0-.42-1.48,1.65,1.65,0,0,0-1.32-.49,2.07,2.07,0,0,0-1.34.47,2.79,2.79,0,0,0-.86,1.28v5.07h-.81v-7.4Z"/><path class="cls-1" d="M294.33,116a1.61,1.61,0,0,0-.58-1.31,6.11,6.11,0,0,0-2.13-.92,7.46,7.46,0,0,1-2.26-.95,2.3,2.3,0,0,1-.07-3.76,3.86,3.86,0,0,1,2.4-.71,4,4,0,0,1,1.77.38,2.9,2.9,0,0,1,1.21,1.07,2.8,2.8,0,0,1,.43,1.52h-.85a2.09,2.09,0,0,0-.7-1.64,2.72,2.72,0,0,0-1.87-.62,3,3,0,0,0-1.82.51,1.59,1.59,0,0,0-.68,1.33,1.51,1.51,0,0,0,.61,1.24,5.64,5.64,0,0,0,1.95.85,9.16,9.16,0,0,1,2,.76,2.91,2.91,0,0,1,1,.94,2.35,2.35,0,0,1,.35,1.29,2.25,2.25,0,0,1-.94,1.89,4,4,0,0,1-2.48.71,4.85,4.85,0,0,1-1.93-.38,3,3,0,0,1-1.33-1.05,2.71,2.71,0,0,1-.46-1.55h.84a2,2,0,0,0,.79,1.66,3.33,3.33,0,0,0,2.09.61,3.1,3.1,0,0,0,1.87-.51A1.6,1.6,0,0,0,294.33,116Z"/><path class="cls-1" d="M299.66,118.59a3.22,3.22,0,0,1-1.71-.46,3.17,3.17,0,0,1-1.19-1.29,4,4,0,0,1-.42-1.86v-.29a4.34,4.34,0,0,1,.41-1.92,3.29,3.29,0,0,1,1.15-1.34,2.85,2.85,0,0,1,1.6-.49,2.67,2.67,0,0,1,2.14.92,3.72,3.72,0,0,1,.79,2.51v.46h-5.28V115a3.1,3.1,0,0,0,.72,2.1,2.29,2.29,0,0,0,1.81.84,2.66,2.66,0,0,0,1.16-.24,2.56,2.56,0,0,0,.91-.77l.51.39A3,3,0,0,1,299.66,118.59Zm-.15-7a2,2,0,0,0-1.56.68,3.13,3.13,0,0,0-.77,1.82h4.44V114a2.71,2.71,0,0,0-.61-1.74A1.89,1.89,0,0,0,299.51,111.61Z"/><path class="cls-1" d="M305.3,109.16v1.89h1.53v.67H305.3v4.93a1.54,1.54,0,0,0,.22.92.86.86,0,0,0,.74.3,5,5,0,0,0,.66-.07l0,.66a2.66,2.66,0,0,1-.87.12,1.46,1.46,0,0,1-1.22-.49,2.3,2.3,0,0,1-.38-1.44v-4.94h-1.36v-.67h1.36v-1.89Z"/><path class="cls-1" d="M309.8,109.16v1.89h1.53v.67H309.8v4.93a1.54,1.54,0,0,0,.22.92.86.86,0,0,0,.74.3,5,5,0,0,0,.66-.07l0,.66a2.66,2.66,0,0,1-.87.12,1.46,1.46,0,0,1-1.22-.49,2.3,2.3,0,0,1-.38-1.44v-4.94h-1.36v-.67H309v-1.89Z"/><path class="cls-1" d="M313,108.92a.54.54,0,0,1,.15-.39.54.54,0,0,1,.41-.16.55.55,0,0,1,.41.16.54.54,0,0,1,.15.39.53.53,0,0,1-.15.39.55.55,0,0,1-.41.16.54.54,0,0,1-.41-.16A.54.54,0,0,1,313,108.92Zm1,9.53h-.82v-7.4h.82Z"/><path class="cls-1" d="M316.94,111.05l0,1.26a2.93,2.93,0,0,1,1-1,2.69,2.69,0,0,1,1.37-.36,2.22,2.22,0,0,1,1.77.67,3,3,0,0,1,.59,2v4.85h-.81v-4.86a2.26,2.26,0,0,0-.42-1.48,1.65,1.65,0,0,0-1.32-.49,2.07,2.07,0,0,0-1.34.47,2.79,2.79,0,0,0-.86,1.28v5.07h-.81v-7.4Z"/><path class="cls-1" d="M323.53,114.68a4.44,4.44,0,0,1,.77-2.75,2.48,2.48,0,0,1,2.09-1,2.57,2.57,0,0,1,2.3,1.2l0-1.07h.77v7.25a3.13,3.13,0,0,1-.8,2.26,2.86,2.86,0,0,1-2.17.83,3.3,3.3,0,0,1-1.47-.34,2.86,2.86,0,0,1-1.1-.92l.46-.49a2.59,2.59,0,0,0,2.06,1.07,2.1,2.1,0,0,0,1.6-.61,2.41,2.41,0,0,0,.59-1.68v-.93a2.64,2.64,0,0,1-2.29,1.09,2.47,2.47,0,0,1-2.06-1,4.47,4.47,0,0,1-.78-2.77Zm.83.14a3.86,3.86,0,0,0,.57,2.23,1.84,1.84,0,0,0,1.6.82,2.19,2.19,0,0,0,2.14-1.35v-3.44a2.33,2.33,0,0,0-.83-1.08,2.23,2.23,0,0,0-1.3-.37,1.85,1.85,0,0,0-1.61.81A4.12,4.12,0,0,0,324.36,114.83Z"/><path class="cls-1" d="M336.05,116.57a1.17,1.17,0,0,0-.49-1,3.78,3.78,0,0,0-1.47-.58,6.62,6.62,0,0,1-1.53-.48,2,2,0,0,1-.81-.66,1.65,1.65,0,0,1-.26-.94,1.76,1.76,0,0,1,.73-1.45,3,3,0,0,1,1.87-.57,3,3,0,0,1,2,.61,2,2,0,0,1,.75,1.6H336a1.33,1.33,0,0,0-.54-1.08,2.45,2.45,0,0,0-2.67-.07,1.11,1.11,0,0,0-.49.93,1,1,0,0,0,.41.86,4.32,4.32,0,0,0,1.48.56,7,7,0,0,1,1.61.54,2.09,2.09,0,0,1,.8.69,1.9,1.9,0,0,1-.5,2.47,3.22,3.22,0,0,1-2,.56A3.32,3.32,0,0,1,332,118a1.93,1.93,0,0,1-.8-1.58h.82a1.43,1.43,0,0,0,.6,1.12,2.48,2.48,0,0,0,1.47.4,2.32,2.32,0,0,0,1.38-.38A1.13,1.13,0,0,0,336.05,116.57Z"/><path class="cls-2" d="M349.76,120.29h-.69V108.5h.69Z"/><path class="cls-1" d="M368.05,116a1.61,1.61,0,0,0-.58-1.31,6.11,6.11,0,0,0-2.13-.92,7.46,7.46,0,0,1-2.26-.95,2.3,2.3,0,0,1-.07-3.76,3.86,3.86,0,0,1,2.4-.71,4,4,0,0,1,1.77.38,2.9,2.9,0,0,1,1.21,1.07,2.8,2.8,0,0,1,.43,1.52H368a2.09,2.09,0,0,0-.7-1.64,2.72,2.72,0,0,0-1.87-.62,3,3,0,0,0-1.82.51,1.59,1.59,0,0,0-.68,1.33,1.51,1.51,0,0,0,.61,1.24,5.64,5.64,0,0,0,1.95.85,9.16,9.16,0,0,1,2,.76,2.91,2.91,0,0,1,1,.94,2.35,2.35,0,0,1,.35,1.29,2.25,2.25,0,0,1-.94,1.89,4,4,0,0,1-2.48.71,4.85,4.85,0,0,1-1.93-.38,3,3,0,0,1-1.33-1.05,2.71,2.71,0,0,1-.46-1.55h.84a2,2,0,0,0,.79,1.66,3.33,3.33,0,0,0,2.09.61,3.1,3.1,0,0,0,1.87-.51A1.6,1.6,0,0,0,368.05,116Z"/><path class="cls-1" d="M375.28,117.51a2.66,2.66,0,0,1-2.36,1.07,2.29,2.29,0,0,1-1.8-.69,3,3,0,0,1-.63-2v-4.81h.81v4.71q0,2.11,1.71,2.11a2.1,2.1,0,0,0,2.25-1.47v-5.35h.82v7.4h-.79Z"/><path class="cls-1" d="M384.16,114.83a4.45,4.45,0,0,1-.77,2.74,2.44,2.44,0,0,1-2.05,1,2.74,2.74,0,0,1-2.32-1.07v3.77h-.81V111.05H379l0,1a2.63,2.63,0,0,1,2.32-1.18,2.46,2.46,0,0,1,2.08,1,4.55,4.55,0,0,1,.76,2.79Zm-.82-.14a3.8,3.8,0,0,0-.58-2.24,1.87,1.87,0,0,0-1.62-.82A2.16,2.16,0,0,0,379,113v3.55a2.18,2.18,0,0,0,.84,1,2.42,2.42,0,0,0,1.29.33,1.85,1.85,0,0,0,1.61-.82A4.14,4.14,0,0,0,383.34,114.68Z"/><path class="cls-1" d="M391.91,114.83a4.45,4.45,0,0,1-.77,2.74,2.44,2.44,0,0,1-2.05,1,2.74,2.74,0,0,1-2.32-1.07v3.77H386V111.05h.76l0,1a2.63,2.63,0,0,1,2.32-1.18,2.46,2.46,0,0,1,2.08,1,4.55,4.55,0,0,1,.76,2.79Zm-.82-.14a3.8,3.8,0,0,0-.58-2.24,1.87,1.87,0,0,0-1.62-.82,2.16,2.16,0,0,0-2.12,1.42v3.55a2.18,2.18,0,0,0,.84,1,2.42,2.42,0,0,0,1.29.33,1.85,1.85,0,0,0,1.61-.82A4.14,4.14,0,0,0,391.09,114.68Z"/><path class="cls-1" d="M393.27,114.64a4.34,4.34,0,0,1,.41-1.92,3.1,3.1,0,0,1,2.88-1.8,3,3,0,0,1,2.39,1,4,4,0,0,1,.92,2.75v.17a4.38,4.38,0,0,1-.41,1.93,3.09,3.09,0,0,1-1.17,1.32,3.2,3.2,0,0,1-1.72.46,3,3,0,0,1-2.39-1,4,4,0,0,1-.92-2.75Zm.82.23a3.35,3.35,0,0,0,.69,2.18,2.33,2.33,0,0,0,3.6,0,3.48,3.48,0,0,0,.69-2.25v-.16a3.76,3.76,0,0,0-.31-1.55,2.52,2.52,0,0,0-.88-1.09,2.25,2.25,0,0,0-1.3-.39,2.19,2.19,0,0,0-1.78.86,3.48,3.48,0,0,0-.69,2.25Z"/><path class="cls-1" d="M405,111.75a3,3,0,0,0-.55,0,2,2,0,0,0-1.3.43,2.35,2.35,0,0,0-.75,1.24v5.08h-.81v-7.4h.8v1.18a2.17,2.17,0,0,1,2.08-1.31,1.34,1.34,0,0,1,.54.09Z"/><path class="cls-1" d="M407.89,109.16v1.89h1.53v.67h-1.53v4.93a1.54,1.54,0,0,0,.22.92.86.86,0,0,0,.74.3,5,5,0,0,0,.66-.07l0,.66a2.66,2.66,0,0,1-.87.12,1.46,1.46,0,0,1-1.22-.49,2.3,2.3,0,0,1-.38-1.44v-4.94h-1.36v-.67h1.36v-1.89Z"/><path class="cls-1" d="M410.92,118a.58.58,0,0,1,.15-.41.55.55,0,0,1,.43-.17.56.56,0,0,1,.43.17.57.57,0,0,1,.16.41.53.53,0,0,1-.16.39.58.58,0,0,1-.43.15.58.58,0,0,1-.43-.15A.53.53,0,0,1,410.92,118Zm0-6.31a.59.59,0,0,1,.15-.41.55.55,0,0,1,.43-.17.56.56,0,0,1,.43.17.58.58,0,0,1,.16.41.53.53,0,0,1-.16.39.59.59,0,0,1-.43.15.58.58,0,0,1-.43-.15A.54.54,0,0,1,410.93,111.65Z"/><path class="cls-1" d="M421.14,118.45h-.82v-9l-2.71,1v-.77l3.39-1.26h.14Z"/><path class="cls-1" d="M427.76,114.4h-3.27v-.69h3.27Z"/><path class="cls-1" d="M435,111.06a2.27,2.27,0,0,1-.45,1.38,2.62,2.62,0,0,1-1.19.9,2.92,2.92,0,0,1,1.38,1,2.37,2.37,0,0,1,.52,1.52,2.54,2.54,0,0,1-.87,2,3.92,3.92,0,0,1-4.6,0,2.54,2.54,0,0,1-.87-2,2.44,2.44,0,0,1,.5-1.51,2.77,2.77,0,0,1,1.37-1,2.54,2.54,0,0,1-1.18-.9,2.32,2.32,0,0,1-.44-1.38,2.54,2.54,0,0,1,.8-2,3.4,3.4,0,0,1,4.22,0A2.54,2.54,0,0,1,435,111.06Zm-.56,4.76a2,2,0,0,0-.66-1.53,2.71,2.71,0,0,0-3.38,0,2,2,0,0,0-.66,1.54,1.92,1.92,0,0,0,.64,1.51,2.89,2.89,0,0,0,3.42,0A1.91,1.91,0,0,0,434.4,115.82Zm-.26-4.76a1.9,1.9,0,0,0-.59-1.43,2.31,2.31,0,0,0-3,0,1.9,1.9,0,0,0-.58,1.45,1.83,1.83,0,0,0,.58,1.41,2.4,2.4,0,0,0,3,0A1.81,1.81,0,0,0,434.14,111.05Z"/><path class="cls-1" d="M442.86,114.3a5.51,5.51,0,0,1-.77,3.2,2.92,2.92,0,0,1-4.54,0,5.3,5.3,0,0,1-.81-3.11v-1.78a5.41,5.41,0,0,1,.78-3.18,2.95,2.95,0,0,1,4.53,0,5.21,5.21,0,0,1,.81,3.07Zm-.82-1.78a4.85,4.85,0,0,0-.56-2.58,2.06,2.06,0,0,0-3.35,0,4.69,4.69,0,0,0-.57,2.52v2a4.85,4.85,0,0,0,.58,2.6,1.87,1.87,0,0,0,1.68.9,1.84,1.84,0,0,0,1.66-.88,4.86,4.86,0,0,0,.57-2.58Z"/><path class="cls-1" d="M450.61,114.3a5.51,5.51,0,0,1-.77,3.2,2.92,2.92,0,0,1-4.54,0,5.3,5.3,0,0,1-.81-3.11v-1.78a5.41,5.41,0,0,1,.78-3.18,2.95,2.95,0,0,1,4.53,0,5.21,5.21,0,0,1,.81,3.07Zm-.82-1.78a4.85,4.85,0,0,0-.56-2.58,2.06,2.06,0,0,0-3.35,0,4.69,4.69,0,0,0-.57,2.52v2a4.85,4.85,0,0,0,.58,2.6,1.87,1.87,0,0,0,1.68.9,1.84,1.84,0,0,0,1.66-.88,4.86,4.86,0,0,0,.57-2.58Z"/><path class="cls-1" d="M455,114.4h-3.27v-.69H455Z"/><path class="cls-1" d="M461.48,113.84a3.08,3.08,0,0,1-1.09,1,2.9,2.9,0,0,1-1.41.35,2.61,2.61,0,0,1-1.5-.44,2.87,2.87,0,0,1-1-1.21,4,4,0,0,1-.36-1.69,4.14,4.14,0,0,1,.38-1.79,3,3,0,0,1,1.06-1.25,3.06,3.06,0,0,1,3.9.6,4.69,4.69,0,0,1,.83,3v.74a6.12,6.12,0,0,1-1.15,4,4.34,4.34,0,0,1-3.51,1.35h-.15v-.71h.29a3.64,3.64,0,0,0,2.71-1A4.33,4.33,0,0,0,461.48,113.84Zm-2.39.64a2.4,2.4,0,0,0,1.47-.49,2.64,2.64,0,0,0,.93-1.27v-.47a3.83,3.83,0,0,0-.63-2.35,2,2,0,0,0-1.71-.83,2,2,0,0,0-1.59.78,3.05,3.05,0,0,0-.62,2,3,3,0,0,0,.6,1.9A1.88,1.88,0,0,0,459.09,114.48Z"/><path class="cls-1" d="M469,108.42v.71h-.1a3.75,3.75,0,0,0-2.81,1.05,4.4,4.4,0,0,0-1.13,2.92,2.79,2.79,0,0,1,1-.88,3.2,3.2,0,0,1,1.42-.31,2.61,2.61,0,0,1,2.09.91,3.51,3.51,0,0,1,.78,2.37,4.11,4.11,0,0,1-.36,1.75,2.76,2.76,0,0,1-2.58,1.65,2.93,2.93,0,0,1-2.32-1,4,4,0,0,1-.9-2.68v-.82a6.31,6.31,0,0,1,1.22-4.14,4.31,4.31,0,0,1,3.45-1.49Zm-1.7,4.2a2.52,2.52,0,0,0-1.45.46,2.21,2.21,0,0,0-.9,1.17v.7a3.25,3.25,0,0,0,.67,2.12,2.13,2.13,0,0,0,1.73.82,1.87,1.87,0,0,0,1.55-.76,3,3,0,0,0,.59-1.91,2.85,2.85,0,0,0-.59-1.88A2,2,0,0,0,467.26,112.62Z"/><path class="cls-1" d="M475.7,118.45h-.82v-9l-2.71,1v-.77l3.39-1.26h.14Z"/><path class="cls-1" d="M482.33,114.4h-3.27v-.69h3.27Z"/><path class="cls-1" d="M488.68,115.24h1.55v.69h-1.55v2.52h-.82v-2.52h-4.68v-.46l4.61-7h.9Zm-4.5,0h3.68v-5.69l-.36.63Z"/><path class="cls-1" d="M496.44,115.24H498v.69h-1.55v2.52h-.82v-2.52h-4.68v-.46l4.61-7h.9Zm-4.5,0h3.68v-5.69l-.36.63Z"/><path class="cls-1" d="M499.73,113.35l.49-4.85h5v.76h-4.27l-.35,3.36a3.24,3.24,0,0,1,1.87-.55,2.77,2.77,0,0,1,2.15.88,3.32,3.32,0,0,1,.8,2.33,3.53,3.53,0,0,1-.78,2.44,2.8,2.8,0,0,1-2.19.87,3,3,0,0,1-2.11-.72,3,3,0,0,1-.92-2h.79a2.37,2.37,0,0,0,.69,1.54,2.22,2.22,0,0,0,1.55.52,1.94,1.94,0,0,0,1.61-.68,3,3,0,0,0,.54-1.93,2.6,2.6,0,0,0-.61-1.78,2.1,2.1,0,0,0-1.66-.69,3.15,3.15,0,0,0-1,.15,2.78,2.78,0,0,0-.91.57Z"/><path class="cls-1" d="M512,115.24h1.55v.69H512v2.52h-.82v-2.52h-4.68v-.46l4.61-7h.9Zm-4.5,0h3.68v-5.69l-.36.63Z"/><path class="cls-2" d="M525.88,120.29h-.69V108.5h.69Z"/><path class="cls-1" d="M544,113.68h-4.66v4.06h5.35v.71h-6.19v-10h6.16v.71h-5.32V113H544Z"/><path class="cls-1" d="M547,111.05l0,1.2a2.74,2.74,0,0,1,1-1,2.81,2.81,0,0,1,1.37-.33,2.07,2.07,0,0,1,2.22,1.44,2.78,2.78,0,0,1,1.06-1.06,2.93,2.93,0,0,1,1.46-.37q2.38,0,2.43,2.6v4.94h-.82v-4.87a2.2,2.2,0,0,0-.43-1.47,1.74,1.74,0,0,0-1.37-.48,2.18,2.18,0,0,0-1.49.57,2,2,0,0,0-.68,1.36v4.89H551v-4.94a2,2,0,0,0-.45-1.42,1.78,1.78,0,0,0-1.36-.47,2.06,2.06,0,0,0-1.33.44,2.58,2.58,0,0,0-.82,1.31v5.07h-.82v-7.4Z"/><path class="cls-1" d="M563.38,118.45a3.85,3.85,0,0,1-.16-1,2.84,2.84,0,0,1-1.1.86,3.35,3.35,0,0,1-1.41.3A2.48,2.48,0,0,1,559,118a1.94,1.94,0,0,1-.66-1.5,2,2,0,0,1,.9-1.71,4.32,4.32,0,0,1,2.51-.63h1.48v-.84a1.62,1.62,0,0,0-.49-1.25,2,2,0,0,0-1.42-.45,2.23,2.23,0,0,0-1.42.44,1.3,1.3,0,0,0-.56,1.05h-.82a1.9,1.9,0,0,1,.82-1.53,3.15,3.15,0,0,1,2-.65,2.88,2.88,0,0,1,2,.62,2.22,2.22,0,0,1,.73,1.73v3.5a4.34,4.34,0,0,0,.23,1.61v.08Zm-2.57-.59a2.74,2.74,0,0,0,1.47-.4,2.33,2.33,0,0,0,.94-1.06v-1.63h-1.46a3.66,3.66,0,0,0-1.91.45,1.34,1.34,0,0,0-.69,1.19,1.32,1.32,0,0,0,.46,1A1.74,1.74,0,0,0,560.81,117.86Z"/><path class="cls-1" d="M566.16,108.92a.54.54,0,0,1,.15-.39.54.54,0,0,1,.41-.16.55.55,0,0,1,.41.16.54.54,0,0,1,.15.39.53.53,0,0,1-.15.39.55.55,0,0,1-.41.16.54.54,0,0,1-.41-.16A.54.54,0,0,1,566.16,108.92Zm1,9.53h-.82v-7.4h.82Z"/><path class="cls-1" d="M570.26,118.45h-.82v-10.5h.82Z"/><path class="cls-1" d="M582.94,108.5v6.79a3.44,3.44,0,0,1-.44,1.75,2.9,2.9,0,0,1-1.23,1.14,4,4,0,0,1-1.83.4,3.61,3.61,0,0,1-2.52-.86,3.15,3.15,0,0,1-1-2.38V108.5h.83v6.73a2.59,2.59,0,0,0,.72,2,3.07,3.07,0,0,0,3.89,0,2.59,2.59,0,0,0,.71-1.94V108.5Z"/><path class="cls-1" d="M589.52,116.57a1.17,1.17,0,0,0-.49-1,3.78,3.78,0,0,0-1.47-.58,6.62,6.62,0,0,1-1.53-.48,2,2,0,0,1-.81-.66,1.65,1.65,0,0,1-.26-.94,1.76,1.76,0,0,1,.73-1.45,3,3,0,0,1,1.87-.57,3,3,0,0,1,2,.61,2,2,0,0,1,.75,1.6h-.82a1.33,1.33,0,0,0-.54-1.08,2.45,2.45,0,0,0-2.67-.07,1.11,1.11,0,0,0-.49.93,1,1,0,0,0,.41.86,4.32,4.32,0,0,0,1.48.56,7,7,0,0,1,1.61.54,2.09,2.09,0,0,1,.8.69,1.9,1.9,0,0,1-.5,2.47,3.22,3.22,0,0,1-2,.56,3.32,3.32,0,0,1-2.09-.62,1.93,1.93,0,0,1-.8-1.58h.82a1.43,1.43,0,0,0,.6,1.12,2.48,2.48,0,0,0,1.47.4,2.32,2.32,0,0,0,1.38-.38A1.13,1.13,0,0,0,589.52,116.57Z"/><path class="cls-2" d="M603.23,120.29h-.69V108.5h.69Z"/><path class="cls-1" d="M622.94,115.35a3.57,3.57,0,0,1-1.12,2.41,3.72,3.72,0,0,1-2.54.83,3.51,3.51,0,0,1-2-.55,3.6,3.6,0,0,1-1.32-1.57,5.59,5.59,0,0,1-.47-2.32v-1.29a5.65,5.65,0,0,1,.46-2.35,3.57,3.57,0,0,1,1.34-1.58,3.64,3.64,0,0,1,2-.56,3.56,3.56,0,0,1,2.53.86,3.61,3.61,0,0,1,1.08,2.39h-.85a2.53,2.53,0,0,0-2.75-2.54,2.61,2.61,0,0,0-2.16,1,4.39,4.39,0,0,0-.8,2.8v1.22a4.42,4.42,0,0,0,.78,2.75,2.52,2.52,0,0,0,2.12,1,2.8,2.8,0,0,0,2-.63,3,3,0,0,0,.83-1.9Z"/><path class="cls-1" d="M625.6,112.3a2.88,2.88,0,0,1,1-1,2.71,2.71,0,0,1,1.37-.36,2.22,2.22,0,0,1,1.77.67,3,3,0,0,1,.59,2v4.85h-.81v-4.86a2.26,2.26,0,0,0-.42-1.48,1.65,1.65,0,0,0-1.32-.49,2.07,2.07,0,0,0-1.34.47,2.79,2.79,0,0,0-.86,1.28v5.07h-.81v-10.5h.81Z"/><path class="cls-1" d="M637.14,118.45a3.85,3.85,0,0,1-.16-1,2.84,2.84,0,0,1-1.1.86,3.35,3.35,0,0,1-1.41.3,2.48,2.48,0,0,1-1.73-.59,1.94,1.94,0,0,1-.66-1.5,2,2,0,0,1,.9-1.71,4.32,4.32,0,0,1,2.51-.63H637v-.84a1.62,1.62,0,0,0-.49-1.25,2,2,0,0,0-1.42-.45,2.23,2.23,0,0,0-1.42.44,1.3,1.3,0,0,0-.56,1.05h-.82a1.9,1.9,0,0,1,.82-1.53,3.15,3.15,0,0,1,2-.65,2.88,2.88,0,0,1,2,.62,2.22,2.22,0,0,1,.73,1.73v3.5a4.34,4.34,0,0,0,.23,1.61v.08Zm-2.57-.59a2.74,2.74,0,0,0,1.47-.4,2.33,2.33,0,0,0,.94-1.06v-1.63h-1.46a3.66,3.66,0,0,0-1.91.45,1.34,1.34,0,0,0-.69,1.19,1.32,1.32,0,0,0,.46,1A1.74,1.74,0,0,0,634.57,117.86Z"/><path class="cls-1" d="M641.24,109.16v1.89h1.53v.67h-1.53v4.93a1.54,1.54,0,0,0,.22.92.86.86,0,0,0,.74.3,5,5,0,0,0,.66-.07l0,.66a2.66,2.66,0,0,1-.87.12,1.46,1.46,0,0,1-1.22-.49,2.3,2.3,0,0,1-.38-1.44v-4.94h-1.36v-.67h1.36v-1.89Z"/><path class="cls-2" d="M21.77,113.88a4.55,4.55,0,0,1,.55-2.2,4.1,4.1,0,0,1,1.52-1.6,4.05,4.05,0,0,1,4.19,0,4.1,4.1,0,0,1,1.52,1.6,4.69,4.69,0,0,1,0,4.37,4.18,4.18,0,0,1-1.5,1.61,4,4,0,0,1-4.25,0,4.18,4.18,0,0,1-1.5-1.61A4.58,4.58,0,0,1,21.77,113.88Zm.33,0a4.2,4.2,0,0,0,.52,2.05A3.88,3.88,0,0,0,24,117.42a3.63,3.63,0,0,0,3.83,0,3.91,3.91,0,0,0,1.4-1.49,4.31,4.31,0,0,0,0-4.07,3.87,3.87,0,0,0-1.4-1.48,3.65,3.65,0,0,0-3.82,0,3.84,3.84,0,0,0-1.41,1.48A4.18,4.18,0,0,0,22.1,113.88Zm5.54.66a1.88,1.88,0,0,1-.46,1.37,1.71,1.71,0,0,1-1.29.47,1.67,1.67,0,0,1-1.36-.63,2.54,2.54,0,0,1-.52-1.66v-.44a2.48,2.48,0,0,1,.52-1.64,1.68,1.68,0,0,1,1.35-.63,1.7,1.7,0,0,1,1.29.48,1.89,1.89,0,0,1,.46,1.35h-.3a1.55,1.55,0,0,0-.37-1.14,1.45,1.45,0,0,0-1.07-.38,1.37,1.37,0,0,0-1.12.54,2.26,2.26,0,0,0-.43,1.45v.43a2.2,2.2,0,0,0,.42,1.41,1.37,1.37,0,0,0,1.13.54q1.44,0,1.44-1.52Z"/><path class="cls-2" d="M43,118.15h-5.1v-.32l2.91-3.36A8.79,8.79,0,0,0,41.91,113a2.56,2.56,0,0,0,.35-1.2,1.91,1.91,0,0,0-.54-1.46,2.39,2.39,0,0,0-2.62-.23,2,2,0,0,0-.77.79A2.3,2.3,0,0,0,38,112h-.32a2.63,2.63,0,0,1,.32-1.27,2.34,2.34,0,0,1,.88-.92,2.42,2.42,0,0,1,1.26-.33,2.46,2.46,0,0,1,1.77.6,2.22,2.22,0,0,1,.63,1.69,4.11,4.11,0,0,1-1.12,2.38l-.53.65-2.58,3H43Z"/><path class="cls-2" d="M49.44,114.67a4.54,4.54,0,0,1-.67,2.66,2.34,2.34,0,0,1-3.76,0,4.53,4.53,0,0,1-.68-2.67V113.1a4.55,4.55,0,0,1,.67-2.65,2.33,2.33,0,0,1,3.76,0,4.59,4.59,0,0,1,.67,2.67Zm-.32-1.57a4.3,4.3,0,0,0-.58-2.42,2,2,0,0,0-3.31,0,4.4,4.4,0,0,0-.58,2.45v1.53a4.27,4.27,0,0,0,.59,2.42,1.89,1.89,0,0,0,1.65.87,1.86,1.86,0,0,0,1.65-.87,4.4,4.4,0,0,0,.58-2.45Z"/><path class="cls-2" d="M54,118.15h-.32V110l-2.45.92v-.35l2.7-1H54Z"/><path class="cls-2" d="M62.64,109.82l-3.76,8.33h-.32l3.71-8.21H57.19v-.32h5.45Z"/><path class="cls-2" d="M70.6,114.5h-3v3.65h-.32v-8.53H70a3,3,0,0,1,2,.66,2.26,2.26,0,0,1,.76,1.8,2.32,2.32,0,0,1-.54,1.53,2.29,2.29,0,0,1-1.38.81l2.28,3.65v.08h-.33Zm-3-.32h2.69a2.17,2.17,0,0,0,1.59-.6,2,2,0,0,0,.61-1.51,2,2,0,0,0-.67-1.57,2.73,2.73,0,0,0-1.84-.57H67.64Z"/><path class="cls-2" d="M79.13,118.15A4.4,4.4,0,0,1,79,117a2.54,2.54,0,0,1-1,.94,3.17,3.17,0,0,1-1.47.33,2,2,0,0,1-1.42-.48,1.59,1.59,0,0,1-.54-1.25,1.61,1.61,0,0,1,.79-1.4,3.79,3.79,0,0,1,2.09-.54H79v-.93a1.56,1.56,0,0,0-.5-1.24,2.11,2.11,0,0,0-1.43-.44,2.31,2.31,0,0,0-1.45.45,1.34,1.34,0,0,0-.58,1.1h-.32a1.62,1.62,0,0,1,.68-1.31,2.59,2.59,0,0,1,1.66-.54,2.43,2.43,0,0,1,1.63.51,1.84,1.84,0,0,1,.62,1.44v3a4.07,4.07,0,0,0,.16,1.42v.05Zm-2.61-.2a2.85,2.85,0,0,0,1.53-.4,2.47,2.47,0,0,0,1-1.12v-1.51H77.55a3.43,3.43,0,0,0-2.08.54,1.32,1.32,0,0,0-.59,1.1,1.26,1.26,0,0,0,.46,1A1.72,1.72,0,0,0,76.52,118Z"/><path class="cls-2" d="M83.52,118a2.17,2.17,0,0,0,1.42-.46,1.7,1.7,0,0,0,.61-1.27h.32a2,2,0,0,1-.71,1.48,2.45,2.45,0,0,1-1.64.56,2.31,2.31,0,0,1-1.89-.86,3.6,3.6,0,0,1-.7-2.34v-.21a3.54,3.54,0,0,1,.7-2.3,2.3,2.3,0,0,1,1.88-.86,2.36,2.36,0,0,1,1.66.6,2.21,2.21,0,0,1,.7,1.61h-.32a1.92,1.92,0,0,0-.6-1.37,2,2,0,0,0-1.44-.52,2,2,0,0,0-1.66.76,3.36,3.36,0,0,0-.6,2.12v.21a3.26,3.26,0,0,0,.61,2.09A2,2,0,0,0,83.52,118Z"/><path class="cls-2" d="M88.71,114.72h0l-.92.79v2.63h-.32v-9h.32v6l.74-.7,2.88-2.67h.45l-2.91,2.7L92,118.15h-.41Z"/><path class="cls-2" d="M97,116.6q0-1.15-2-1.57a3.87,3.87,0,0,1-1.65-.65,1.35,1.35,0,0,1-.46-1.09,1.39,1.39,0,0,1,.59-1.15,2.45,2.45,0,0,1,1.53-.45,2.59,2.59,0,0,1,1.65.49,1.59,1.59,0,0,1,.62,1.32H97a1.31,1.31,0,0,0-.54-1.07,2.2,2.2,0,0,0-1.41-.43,2.16,2.16,0,0,0-1.32.36,1.17,1.17,0,0,0-.3,1.58,1.57,1.57,0,0,0,.59.44,6.08,6.08,0,0,0,1.2.38,5.1,5.1,0,0,1,1.24.43,1.68,1.68,0,0,1,.66.58,1.56,1.56,0,0,1,.21.82,1.43,1.43,0,0,1-.62,1.21,2.64,2.64,0,0,1-1.61.46,2.82,2.82,0,0,1-1.72-.48,1.48,1.48,0,0,1-.65-1.25h.32a1.31,1.31,0,0,0,.59,1,2.56,2.56,0,0,0,1.47.37,2.25,2.25,0,0,0,1.38-.4A1.17,1.17,0,0,0,97,116.6Z"/><path class="cls-2" d="M104,115a3.91,3.91,0,0,1-.64,2.36,2,2,0,0,1-1.74.87,2.74,2.74,0,0,1-1.28-.29,2.2,2.2,0,0,1-.88-.81v3.42H99.1v-8.78h.32v1.13a2.32,2.32,0,0,1,.88-.93,2.48,2.48,0,0,1,1.27-.32,2.07,2.07,0,0,1,1.75.85,3.92,3.92,0,0,1,.64,2.39Zm-.32-.12a3.66,3.66,0,0,0-.54-2.14,1.75,1.75,0,0,0-1.52-.77,2.21,2.21,0,0,0-1.35.41,2.29,2.29,0,0,0-.8,1.19v3a2,2,0,0,0,.81,1,2.46,2.46,0,0,0,1.36.36,1.74,1.74,0,0,0,1.51-.77A4,4,0,0,0,103.63,114.92Z"/><path class="cls-2" d="M109.77,118.15a4.4,4.4,0,0,1-.12-1.16,2.54,2.54,0,0,1-1,.94,3.17,3.17,0,0,1-1.47.33,2,2,0,0,1-1.42-.48,1.59,1.59,0,0,1-.54-1.25,1.61,1.61,0,0,1,.79-1.4,3.79,3.79,0,0,1,2.09-.54h1.56v-.93a1.56,1.56,0,0,0-.5-1.24,2.11,2.11,0,0,0-1.43-.44,2.31,2.31,0,0,0-1.45.45,1.34,1.34,0,0,0-.58,1.1h-.32a1.62,1.62,0,0,1,.68-1.31,2.59,2.59,0,0,1,1.66-.54,2.43,2.43,0,0,1,1.63.51,1.84,1.84,0,0,1,.62,1.44v3a4.07,4.07,0,0,0,.16,1.42v.05Zm-2.61-.2a2.85,2.85,0,0,0,1.53-.4,2.47,2.47,0,0,0,1-1.12v-1.51h-1.46a3.43,3.43,0,0,0-2.08.54,1.32,1.32,0,0,0-.59,1.1,1.26,1.26,0,0,0,.46,1A1.72,1.72,0,0,0,107.16,118Z"/><path class="cls-2" d="M114.16,118a2.17,2.17,0,0,0,1.42-.46,1.7,1.7,0,0,0,.61-1.27h.32a2,2,0,0,1-.71,1.48,2.45,2.45,0,0,1-1.64.56,2.31,2.31,0,0,1-1.89-.86,3.6,3.6,0,0,1-.7-2.34v-.21a3.54,3.54,0,0,1,.7-2.3,2.3,2.3,0,0,1,1.88-.86,2.36,2.36,0,0,1,1.66.6,2.21,2.21,0,0,1,.7,1.61h-.32a1.92,1.92,0,0,0-.6-1.37,2,2,0,0,0-1.44-.52,2,2,0,0,0-1.66.76,3.36,3.36,0,0,0-.6,2.12v.21a3.26,3.26,0,0,0,.61,2.09A2,2,0,0,0,114.16,118Z"/><path class="cls-2" d="M120.38,118.27a2.55,2.55,0,0,1-1.41-.41,2.83,2.83,0,0,1-1-1.13,3.5,3.5,0,0,1-.36-1.6v-.26a3.67,3.67,0,0,1,.35-1.61,2.79,2.79,0,0,1,1-1.14,2.37,2.37,0,0,1,1.34-.41,2.22,2.22,0,0,1,1.73.76,2.87,2.87,0,0,1,.67,2v.33h-4.75v.34a3.19,3.19,0,0,0,.33,1.43,2.56,2.56,0,0,0,.9,1,2.22,2.22,0,0,0,1.24.37,2.51,2.51,0,0,0,1.09-.21,2.21,2.21,0,0,0,.79-.65l.22.16A2.39,2.39,0,0,1,120.38,118.27Zm-.12-6.26a2.07,2.07,0,0,0-1.57.69,2.93,2.93,0,0,0-.76,1.75h4.42v-.08a2.68,2.68,0,0,0-.27-1.2,2.1,2.1,0,0,0-.75-.86A1.93,1.93,0,0,0,120.26,112Z"/><path class="cls-2" d="M132.92,109.62v5.78a2.8,2.8,0,0,1-.79,2.11,3.36,3.36,0,0,1-4.25,0,2.79,2.79,0,0,1-.79-2.09v-5.8h.32v5.77a2.49,2.49,0,0,0,.71,1.88,2.92,2.92,0,0,0,3.78,0,2.51,2.51,0,0,0,.71-1.88v-5.76Z"/><path class="cls-2" d="M140.29,116.11a1.61,1.61,0,0,0-.25-.92,2.16,2.16,0,0,0-.8-.67,8.64,8.64,0,0,0-1.66-.59,7.79,7.79,0,0,1-1.66-.62,2.2,2.2,0,0,1-.81-.72,1.83,1.83,0,0,1-.26-1,1.79,1.79,0,0,1,.79-1.51,3.37,3.37,0,0,1,2-.58,3.31,3.31,0,0,1,1.47.32,2.39,2.39,0,0,1,1,.9,2.43,2.43,0,0,1,.36,1.3h-.32a2,2,0,0,0-.7-1.58,2.64,2.64,0,0,0-1.82-.62,3,3,0,0,0-1.82.5,1.52,1.52,0,0,0-.09,2.49,5.7,5.7,0,0,0,2,.83,6.14,6.14,0,0,1,2,.83,1.91,1.91,0,0,1,.82,1.62,1.88,1.88,0,0,1-.36,1.14,2.31,2.31,0,0,1-1,.76,4,4,0,0,1-1.5.27,4.29,4.29,0,0,1-1.66-.31,2.37,2.37,0,0,1-1.11-.88,2.39,2.39,0,0,1-.37-1.34h.32a1.91,1.91,0,0,0,.79,1.63,3.36,3.36,0,0,0,2,.58,3.13,3.13,0,0,0,1.85-.51A1.57,1.57,0,0,0,140.29,116.11Z"/><path class="cls-2" d="M141.86,119.65l-.22-.19a2.27,2.27,0,0,0,.52-1.26v-1h.32v.86A2.3,2.3,0,0,1,141.86,119.65Z"/><path class="cls-2" d="M147.94,118.15h-.32v-8.53h.32Z"/><path class="cls-2" d="M150.67,113.29a2.65,2.65,0,0,1,.91-1.17,2.26,2.26,0,0,1,1.34-.43,1.89,1.89,0,0,1,1.51.58,2.64,2.64,0,0,1,.5,1.74v4.14h-.32V114a2.33,2.33,0,0,0-.42-1.51,1.6,1.6,0,0,0-1.3-.49,2,2,0,0,0-1.42.58,3,3,0,0,0-.81,1.5v4.06h-.32v-6.34h.32Z"/><path class="cls-2" d="M159.07,118a2.17,2.17,0,0,0,1.42-.46,1.7,1.7,0,0,0,.61-1.27h.32a2,2,0,0,1-.71,1.48,2.45,2.45,0,0,1-1.64.56,2.31,2.31,0,0,1-1.89-.86,3.6,3.6,0,0,1-.7-2.34v-.21a3.54,3.54,0,0,1,.7-2.3,2.3,2.3,0,0,1,1.88-.86,2.36,2.36,0,0,1,1.66.6,2.21,2.21,0,0,1,.7,1.61h-.32a1.92,1.92,0,0,0-.6-1.37,2,2,0,0,0-1.44-.52,2,2,0,0,0-1.66.76,3.36,3.36,0,0,0-.6,2.12v.21a3.26,3.26,0,0,0,.61,2.09A2,2,0,0,0,159.07,118Z"/><path class="cls-2" d="M162.86,117.86a.32.32,0,0,1,.09-.23.31.31,0,0,1,.23-.1.33.33,0,0,1,.33.33.31.31,0,0,1-.1.23.32.32,0,0,1-.23.09.32.32,0,0,1-.32-.32Z"/><rect class="cls-3" x="21.28" y="87.21" width="393.68" height="20.09"/><rect class="cls-3" x="21.28" y="119.45" width="393.68" height="20.25"/><rect class="cls-4" x="1.28" y="87.63" width="20" height="51.07"/><path class="cls-5" d="M6.89,98h.87l1.07,1.1c2.53,2.66,3.87,3.86,5.44,3.87a1.86,1.86,0,0,0,2-2.06,3.54,3.54,0,0,0-.88-2.21l1-.45a4.56,4.56,0,0,1,1.06,2.94,2.93,2.93,0,0,1-3,3.19c-1.92,0-3.47-1.39-5.59-3.59l-.77-.83h0v4.67H6.89Z"/><path class="cls-5" d="M12.21,113.1c-3.54,0-5.49-1.31-5.49-3.62,0-2,1.9-3.41,5.35-3.44s5.41,1.5,5.41,3.62S15.52,113.1,12.21,113.1ZM12,107.45c-2.71,0-4.24.83-4.24,2.11,0,1.44,1.68,2.13,4.34,2.13s4.24-.66,4.24-2.11C16.38,108.35,14.88,107.45,12,107.45Z"/><path class="cls-5" d="M12.11,114.84c1,0,1.79,0,2.53-.06V116l-1.33.06v0a3,3,0,0,1,1.5,2.75c0,1.87-1.58,3.28-3.94,3.28-2.79,0-4.16-1.7-4.16-3.52a2.72,2.72,0,0,1,1.22-2.38v0H3.72v-1.39ZM10,116.23a3.18,3.18,0,0,0-.58.06,2.17,2.17,0,0,0-1.65,2.11c0,1.49,1.22,2.35,3,2.35,1.55,0,2.88-.82,2.88-2.3a2.25,2.25,0,0,0-1.74-2.13,2.27,2.27,0,0,0-.58-.1Z"/><path class="cls-5" d="M14.64,124.38,13,125.48c-.43.29-.83.53-1.26.78v0c.46.26.86.51,1.28.77l1.65,1.09v1.52L10.89,127l-4,2.72v-1.6L8.64,127c.45-.3.88-.56,1.34-.83v0c-.46-.26-.88-.53-1.34-.82l-1.75-1.12v-1.55l4,2.75,3.79-2.63Z"/><rect class="cls-4" x="166.28" y="87.63" width="20" height="51.22"/><path class="cls-5" d="M171.89,98h.87l1.07,1.1c2.53,2.66,3.87,3.86,5.44,3.87a1.86,1.86,0,0,0,2-2.06,3.54,3.54,0,0,0-.88-2.21l1-.45a4.56,4.56,0,0,1,1.06,2.94,2.93,2.93,0,0,1-3,3.19c-1.92,0-3.47-1.39-5.59-3.59l-.77-.83h0v4.67h-1.17Z"/><path class="cls-5" d="M177.21,113.1c-3.54,0-5.49-1.31-5.49-3.62,0-2,1.9-3.41,5.35-3.44s5.41,1.5,5.41,3.62S180.52,113.1,177.21,113.1Zm-.16-5.65c-2.71,0-4.24.83-4.24,2.11,0,1.44,1.68,2.13,4.34,2.13s4.24-.66,4.24-2.11C181.39,108.35,179.88,107.45,177,107.45Z"/><path class="cls-5" d="M177.11,114.84c1,0,1.79,0,2.53-.06V116l-1.33.06v0a3,3,0,0,1,1.5,2.75c0,1.87-1.58,3.28-3.94,3.28-2.79,0-4.16-1.7-4.16-3.52a2.72,2.72,0,0,1,1.22-2.38v0h-4.21v-1.39ZM175,116.23a3.18,3.18,0,0,0-.58.06,2.17,2.17,0,0,0-1.65,2.11c0,1.49,1.22,2.35,3,2.35,1.55,0,2.88-.82,2.88-2.3a2.25,2.25,0,0,0-1.74-2.13,2.27,2.27,0,0,0-.58-.1Z"/><path class="cls-5" d="M179.64,124.38l-1.67,1.1c-.43.29-.83.53-1.26.78v0c.46.26.86.51,1.28.77l1.65,1.09v1.52L175.9,127l-4,2.72v-1.6l1.75-1.14c.45-.3.88-.56,1.34-.83v0c-.46-.26-.88-.53-1.34-.82l-1.75-1.12v-1.55l4,2.75,3.79-2.63Z"/><path class="cls-5" d="M29.52,133.51v-.86l1.1-1.07c2.66-2.53,3.86-3.87,3.87-5.44a1.86,1.86,0,0,0-2.07-2,3.54,3.54,0,0,0-2.21.88l-.45-1a4.57,4.57,0,0,1,2.95-1.06,2.93,2.93,0,0,1,3.19,3c0,1.92-1.39,3.47-3.59,5.59l-.83.77v0h4.67v1.17Z"/><path class="cls-5" d="M44.64,128.2c0,3.54-1.31,5.49-3.62,5.49-2,0-3.41-1.9-3.44-5.35s1.5-5.41,3.62-5.41S44.64,124.88,44.64,128.2Zm-5.65.16c0,2.71.83,4.24,2.11,4.24,1.44,0,2.13-1.68,2.13-4.34S42.58,124,41.12,124C39.89,124,39,125.52,39,128.36Z"/><path class="cls-5" d="M46.38,128.29c0-1,0-1.79-.06-2.53h1.26l.06,1.33h0a3,3,0,0,1,2.75-1.5c1.87,0,3.28,1.58,3.28,3.94,0,2.79-1.7,4.16-3.52,4.16a2.71,2.71,0,0,1-2.38-1.22h0v4.21H46.38Zm1.39,2.06a3.24,3.24,0,0,0,.06.58A2.17,2.17,0,0,0,50,132.58c1.49,0,2.35-1.22,2.35-3,0-1.55-.82-2.88-2.3-2.88a2.25,2.25,0,0,0-2.13,1.74,2.29,2.29,0,0,0-.1.58Z"/><path class="cls-5" d="M55.92,125.76l1.1,1.66c.29.43.53.83.79,1.26h0c.26-.46.51-.86.77-1.28l1.09-1.65h1.52l-2.64,3.75,2.72,4h-1.6l-1.14-1.74c-.3-.45-.56-.88-.83-1.34h0c-.26.46-.53.88-.82,1.34l-1.12,1.74H54.22l2.75-4-2.63-3.79Z"/><path class="cls-5" d="M64.88,134.15l4.46-11.6h1.09l-4.48,11.6Z"/><path class="cls-5" d="M77.55,124.42h0l-1.81,1-.27-1.07,2.27-1.22h1.2v10.4H77.55Z"/><path class="cls-5" d="M82.81,132.68a1,1,0,0,1,1-1,1,1,0,1,1-1,1Z"/><path class="cls-5" d="M86,133.51v-.86l1.11-1.07C89.77,129,91,127.7,91,126.13a1.86,1.86,0,0,0-2.06-2,3.54,3.54,0,0,0-2.21.88l-.45-1a4.56,4.56,0,0,1,2.94-1.06,2.93,2.93,0,0,1,3.19,3c0,1.92-1.39,3.47-3.58,5.59l-.83.77v0h4.67v1.17Z"/><path class="cls-5" d="M100.43,124.29h-4l-.4,2.67a5.61,5.61,0,0,1,.85-.06,4.4,4.4,0,0,1,2.24.56,3,3,0,0,1,1.49,2.67,3.61,3.61,0,0,1-3.87,3.55,5.09,5.09,0,0,1-2.59-.64l.35-1.07a4.67,4.67,0,0,0,2.23.58,2.3,2.3,0,0,0,2.46-2.26c0-1.34-.91-2.31-3-2.31a10.78,10.78,0,0,0-1.44.11l.67-5h5Z"/><path class="cls-5" d="M29.52,103.14v-.86l1.1-1.07c2.66-2.53,3.86-3.87,3.87-5.44a1.86,1.86,0,0,0-2.07-2,3.54,3.54,0,0,0-2.21.88l-.45-1a4.57,4.57,0,0,1,2.95-1.06,2.93,2.93,0,0,1,3.19,3c0,1.92-1.39,3.47-3.59,5.59l-.83.77v0h4.67v1.17Z"/><path class="cls-5" d="M44.64,97.83c0,3.54-1.31,5.49-3.62,5.49-2,0-3.41-1.9-3.44-5.35s1.5-5.41,3.62-5.41S44.64,94.51,44.64,97.83ZM39,98c0,2.71.83,4.24,2.11,4.24,1.44,0,2.13-1.68,2.13-4.34s-.66-4.24-2.11-4.24C39.89,93.65,39,95.15,39,98Z"/><path class="cls-5" d="M46.38,97.92c0-1,0-1.79-.06-2.53h1.26l.06,1.33h0a3,3,0,0,1,2.75-1.5c1.87,0,3.28,1.58,3.28,3.94,0,2.79-1.7,4.16-3.52,4.16a2.71,2.71,0,0,1-2.38-1.22h0v4.21H46.38ZM47.77,100a3.24,3.24,0,0,0,.06.58A2.17,2.17,0,0,0,50,102.21c1.49,0,2.35-1.22,2.35-3,0-1.55-.82-2.88-2.3-2.88a2.25,2.25,0,0,0-2.13,1.74,2.29,2.29,0,0,0-.1.58Z"/><path class="cls-5" d="M55.92,95.39,57,97.06c.29.43.53.83.79,1.26h0c.26-.46.51-.86.77-1.28l1.09-1.65h1.52l-2.64,3.75,2.72,4h-1.6l-1.14-1.74c-.3-.45-.56-.88-.83-1.34h0c-.26.46-.53.88-.82,1.34l-1.12,1.74H54.22l2.75-4-2.63-3.79Z"/><path class="cls-5" d="M64.88,103.78l4.46-11.6h1.09l-4.48,11.6Z"/><path class="cls-5" d="M77.55,94h0l-1.81,1L75.44,94l2.27-1.22h1.2v10.4H77.55Z"/><path class="cls-5" d="M82.81,102.31a1,1,0,0,1,1-1,1,1,0,1,1-1,1Z"/><path class="cls-5" d="M86,103.14v-.86l1.11-1.07C89.77,98.67,91,97.33,91,95.76a1.86,1.86,0,0,0-2.06-2,3.54,3.54,0,0,0-2.21.88l-.45-1a4.56,4.56,0,0,1,2.94-1.06,2.93,2.93,0,0,1,3.19,3c0,1.92-1.39,3.47-3.58,5.59l-.83.77v0h4.67v1.17Z"/><path class="cls-5" d="M100.43,93.92h-4l-.4,2.67a5.61,5.61,0,0,1,.85-.06,4.4,4.4,0,0,1,2.24.56,3,3,0,0,1,1.49,2.67,3.61,3.61,0,0,1-3.87,3.55,5.09,5.09,0,0,1-2.59-.64l.35-1.07a4.67,4.67,0,0,0,2.23.58,2.3,2.3,0,0,0,2.46-2.26c0-1.34-.91-2.31-3-2.31a10.78,10.78,0,0,0-1.44.11l.67-5h5Z"/></g></svg>