<svg xmlns="http://www.w3.org/2000/svg" viewBox="0 0 681.45 79.33"><defs><style>.cls-1{fill:none;stroke:#d8d8d8;stroke-miterlimit:10;}.cls-2{fill:#424242;}.cls-3{fill:#757575;}</style></defs><title>Header Details</title><g id="Email_Content" data-name="Email Content"><line class="cls-1" x1="163.09" y1="75.7" x2="0.41" y2="75.7"/><line class="cls-1" x1="0.41" y1="3.76" x2="163.09" y2="3.76"/><path class="cls-2" d="M21.15,32.51h-9V56.42h-.92V32.51h-9v-.92h19Z"/><path class="cls-2" d="M24.76,32.2a.93.93,0,0,1,.27-.67.89.89,0,0,1,.67-.28,1,1,0,0,1,1,1,.89.89,0,0,1-.28.67.93.93,0,0,1-.67.27.93.93,0,0,1-.94-.94Zm1.4,24.21h-.92V38h.92Z"/><path class="cls-2" d="M38.47,55.84a6.32,6.32,0,0,0,4.14-1.33,4.94,4.94,0,0,0,1.78-3.68h.92a5.77,5.77,0,0,1-2.06,4.31,7.14,7.14,0,0,1-4.77,1.63A6.72,6.72,0,0,1,33,54.25a10.47,10.47,0,0,1-2-6.8v-.61a10.3,10.3,0,0,1,2-6.7,6.68,6.68,0,0,1,5.46-2.51,6.88,6.88,0,0,1,4.84,1.76,6.42,6.42,0,0,1,2,4.67h-.92a5.58,5.58,0,0,0-1.75-4,5.94,5.94,0,0,0-4.2-1.51,5.8,5.8,0,0,0-4.83,2.23A9.77,9.77,0,0,0,31.85,47v.6a9.48,9.48,0,0,0,1.76,6.08A5.87,5.87,0,0,0,38.47,55.84Z"/><path class="cls-2" d="M53.56,46.44l0,0-2.68,2.3v7.64h-.92V30.22h.92V47.77l2.17-2L61.41,38h1.31l-8.48,7.86,9,10.59H62.06Z"/><path class="cls-2" d="M73.09,56.76a7.42,7.42,0,0,1-4.1-1.2,8.25,8.25,0,0,1-2.92-3.3A10.19,10.19,0,0,1,65,47.6v-.77a10.69,10.69,0,0,1,1-4.69,8.1,8.1,0,0,1,2.81-3.33,6.9,6.9,0,0,1,3.91-1.19,6.45,6.45,0,0,1,5,2.2,8.37,8.37,0,0,1,2,5.78v1H65.93v1a9.26,9.26,0,0,0,.95,4.16,7.45,7.45,0,0,0,2.61,3,6.45,6.45,0,0,0,3.61,1.09,7.34,7.34,0,0,0,3.16-.62,6.44,6.44,0,0,0,2.31-1.91l.65.46A7,7,0,0,1,73.09,56.76Zm-.34-18.21a6,6,0,0,0-4.57,2A8.53,8.53,0,0,0,66,45.65H78.83v-.22A7.8,7.8,0,0,0,78,41.95a6.12,6.12,0,0,0-2.18-2.51A5.63,5.63,0,0,0,72.75,38.54Z"/><path class="cls-2" d="M86.12,33v5h4.2v.92h-4.2V52a5.23,5.23,0,0,0,.64,2.9,2.4,2.4,0,0,0,2.14.94,13.2,13.2,0,0,0,1.82-.15l.15.87a6.28,6.28,0,0,1-1.93.2,3.43,3.43,0,0,1-2.88-1.12,5.81,5.81,0,0,1-.89-3.52V38.88H81.77V38h3.41V33Z"/><path class="cls-3" d="M4.83,21h-3v3.2h-1V16.91H5.33v.78H1.8v2.48h3Z"/><path class="cls-3" d="M9.62,22.26h-3l-.68,1.9h-1l2.76-7.24h.84l2.77,7.24h-1Zm-2.75-.78H9.34L8.11,18.09Z"/><path class="cls-3" d="M17.84,24.16h-1l-3.65-5.58v5.58h-1V16.91h1l3.66,5.61V16.91h1Z"/><path class="cls-3" d="M23.53,22.26h-3l-.68,1.9h-1l2.76-7.24h.84l2.77,7.24h-1Zm-2.75-.78h2.46L22,18.09Z"/><path class="cls-3" d="M30.54,17.7H28.21v6.46h-1V17.7H24.94v-.78h5.6Z"/><path class="cls-3" d="M32.64,24.16h-1V16.91h1Z"/><path class="cls-3" d="M39.71,21.86a2.66,2.66,0,0,1-.85,1.77,2.78,2.78,0,0,1-1.9.62,2.55,2.55,0,0,1-2.06-.92,3.7,3.7,0,0,1-.77-2.46v-.7a4.13,4.13,0,0,1,.36-1.78,2.69,2.69,0,0,1,1-1.18A2.84,2.84,0,0,1,37,16.82a2.62,2.62,0,0,1,1.85.64,2.69,2.69,0,0,1,.81,1.78h-1A2.08,2.08,0,0,0,38.21,18,1.63,1.63,0,0,0,37,17.6a1.71,1.71,0,0,0-1.44.68,3.11,3.11,0,0,0-.52,1.93v.7a3.19,3.19,0,0,0,.49,1.88,1.59,1.59,0,0,0,1.38.7,1.84,1.84,0,0,0,1.22-.36,2,2,0,0,0,.56-1.26Z"/><path class="cls-3" d="M45,22.26H42l-.68,1.9h-1l2.76-7.24h.84l2.77,7.24h-1Zm-2.75-.78h2.46l-1.23-3.39Z"/><path class="cls-3" d="M48.62,23.38H52v.78H47.66V16.91h1Z"/><path class="cls-3" d="M57.79,20.93A4.49,4.49,0,0,1,56,20.06a1.66,1.66,0,0,1-.56-1.27,1.75,1.75,0,0,1,.68-1.42,2.72,2.72,0,0,1,1.78-.56,3,3,0,0,1,1.33.29,2.19,2.19,0,0,1,.91.8A2,2,0,0,1,60.47,19h-1a1.33,1.33,0,0,0-.42-1,1.7,1.7,0,0,0-1.18-.38,1.74,1.74,0,0,0-1.1.31,1,1,0,0,0-.4.86.94.94,0,0,0,.38.75,3.7,3.7,0,0,0,1.28.56,5.94,5.94,0,0,1,1.41.56,2.14,2.14,0,0,1,.76.71,1.82,1.82,0,0,1,.25,1,1.69,1.69,0,0,1-.69,1.41,2.93,2.93,0,0,1-1.83.53A3.4,3.4,0,0,1,56.57,24a2.34,2.34,0,0,1-1-.78,1.91,1.91,0,0,1-.35-1.13h1a1.25,1.25,0,0,0,.49,1,2,2,0,0,0,1.3.38,1.88,1.88,0,0,0,1.16-.31,1,1,0,0,0,.4-.84,1,1,0,0,0-.37-.82A4.29,4.29,0,0,0,57.79,20.93Z"/><path class="cls-3" d="M66.8,16.91v4.92a2.31,2.31,0,0,1-.64,1.68,2.59,2.59,0,0,1-1.73.73h-.25a2.71,2.71,0,0,1-1.9-.64,2.3,2.3,0,0,1-.72-1.77V16.91h.95v4.9a1.51,1.51,0,0,0,1.67,1.66A1.68,1.68,0,0,0,65.41,23a1.66,1.66,0,0,0,.43-1.22V16.91Z"/><path class="cls-3" d="M69.26,21.32v2.83h-1V16.91H71a2.68,2.68,0,0,1,1.86.61,2.06,2.06,0,0,1,.67,1.61,2,2,0,0,1-.66,1.62,2.8,2.8,0,0,1-1.89.57Zm0-.78H71a1.72,1.72,0,0,0,1.17-.36,1.32,1.32,0,0,0,.41-1,1.36,1.36,0,0,0-.41-1A1.61,1.61,0,0,0,71,17.7H69.26Z"/><path class="cls-3" d="M75.69,21.32v2.83h-1V16.91h2.67a2.68,2.68,0,0,1,1.86.61,2.06,2.06,0,0,1,.67,1.61,2,2,0,0,1-.66,1.62,2.8,2.8,0,0,1-1.89.57Zm0-.78h1.72a1.72,1.72,0,0,0,1.17-.36,1.32,1.32,0,0,0,.41-1,1.36,1.36,0,0,0-.41-1,1.61,1.61,0,0,0-1.12-.4H75.69Z"/><path class="cls-3" d="M86.73,20.77a4.47,4.47,0,0,1-.36,1.86,2.7,2.7,0,0,1-1,1.21,2.8,2.8,0,0,1-4.08-1.2,4.29,4.29,0,0,1-.38-1.8v-.52a4.42,4.42,0,0,1,.36-1.85,2.69,2.69,0,0,1,2.55-1.65,2.81,2.81,0,0,1,1.54.42,2.71,2.71,0,0,1,1,1.22,4.49,4.49,0,0,1,.36,1.86Zm-1-.47a3.25,3.25,0,0,0-.52-2,1.71,1.71,0,0,0-1.45-.69,1.69,1.69,0,0,0-1.42.69,3.18,3.18,0,0,0-.53,1.91v.53a3.25,3.25,0,0,0,.52,2,1.84,1.84,0,0,0,2.88,0,3.23,3.23,0,0,0,.52-1.93Z"/><path class="cls-3" d="M90.82,21.23h-1.7v2.93h-1V16.91h2.4a2.83,2.83,0,0,1,1.88.56,2,2,0,0,1,.66,1.62,2,2,0,0,1-.37,1.18,2.19,2.19,0,0,1-1,.75l1.7,3.07v.06h-1Zm-1.7-.78h1.47a1.66,1.66,0,0,0,1.13-.37,1.25,1.25,0,0,0,.42-1,1.31,1.31,0,0,0-.4-1,1.69,1.69,0,0,0-1.16-.36H89.12Z"/><path class="cls-3" d="M99,17.7H96.71v6.46h-1V17.7H93.44v-.78H99Z"/><path class="cls-3" d="M106.43,21h-3v3.2h-1V16.91h4.49v.78h-3.53v2.48h3Z"/><path class="cls-3" d="M113.64,20.77a4.47,4.47,0,0,1-.36,1.86,2.7,2.7,0,0,1-1,1.21,2.8,2.8,0,0,1-4.08-1.2,4.29,4.29,0,0,1-.38-1.8v-.52a4.42,4.42,0,0,1,.36-1.85,2.69,2.69,0,0,1,2.55-1.65,2.81,2.81,0,0,1,1.54.42,2.71,2.71,0,0,1,1,1.22,4.49,4.49,0,0,1,.36,1.86Zm-1-.47a3.25,3.25,0,0,0-.52-2,1.71,1.71,0,0,0-1.45-.69,1.69,1.69,0,0,0-1.42.69,3.18,3.18,0,0,0-.53,1.91v.53a3.25,3.25,0,0,0,.52,2,1.84,1.84,0,0,0,2.88,0,3.23,3.23,0,0,0,.52-1.93Z"/><path class="cls-3" d="M117.73,21.23H116v2.93h-1V16.91h2.4a2.83,2.83,0,0,1,1.88.56,2,2,0,0,1,.66,1.62,2,2,0,0,1-.37,1.18,2.19,2.19,0,0,1-1,.75l1.7,3.07v.06h-1Zm-1.7-.78h1.47a1.66,1.66,0,0,0,1.13-.37,1.25,1.25,0,0,0,.42-1,1.31,1.31,0,0,0-.4-1,1.69,1.69,0,0,0-1.16-.36H116Z"/><path class="cls-3" d="M127.86,22.26h-3l-.68,1.9h-1l2.76-7.24h.84l2.77,7.24h-1Zm-2.75-.78h2.46l-1.23-3.39Z"/><path class="cls-3" d="M131.73,21.87l.14,1,.2-.86,1.43-5.05h.81l1.4,5.05.2.88.15-1,1.12-5h1l-1.76,7.24h-.87L134,18.88l-.11-.55-.11.55-1.55,5.28h-.87l-1.75-7.24h1Z"/><path class="cls-3" d="M141.34,20.93a4.49,4.49,0,0,1-1.79-.87,1.66,1.66,0,0,1-.56-1.27,1.75,1.75,0,0,1,.68-1.42,2.72,2.72,0,0,1,1.78-.56,3,3,0,0,1,1.33.29,2.19,2.19,0,0,1,.91.8A2,2,0,0,1,144,19h-1a1.33,1.33,0,0,0-.42-1,1.7,1.7,0,0,0-1.18-.38,1.74,1.74,0,0,0-1.1.31,1,1,0,0,0-.4.86.94.94,0,0,0,.38.75,3.7,3.7,0,0,0,1.28.56,5.94,5.94,0,0,1,1.41.56,2.14,2.14,0,0,1,.76.71,1.82,1.82,0,0,1,.25,1,1.69,1.69,0,0,1-.69,1.41,2.93,2.93,0,0,1-1.83.53,3.4,3.4,0,0,1-1.39-.29,2.34,2.34,0,0,1-1-.78,1.91,1.91,0,0,1-.35-1.13h1a1.25,1.25,0,0,0,.49,1,2,2,0,0,0,1.3.38,1.88,1.88,0,0,0,1.16-.31,1,1,0,0,0,.4-.84,1,1,0,0,0-.37-.82A4.29,4.29,0,0,0,141.34,20.93Z"/><line class="cls-1" x1="420.76" y1="75.7" x2="258.09" y2="75.7"/><line class="cls-1" x1="258.09" y1="3.76" x2="420.76" y2="3.76"/><path class="cls-2" d="M280.19,56.42h-.92l-16-23.26V56.42h-.94V31.59h.94l16,23.21V31.59h.92Z"/><path class="cls-2" d="M285.13,46.83a10.8,10.8,0,0,1,1-4.75A7.8,7.8,0,0,1,289,38.8a7.64,7.64,0,0,1,4.19-1.18,7.59,7.59,0,0,1,7,4.38,10.73,10.73,0,0,1,1,4.72v.82a10.86,10.86,0,0,1-1,4.76,7.76,7.76,0,0,1-2.86,3.27,7.64,7.64,0,0,1-4.19,1.18,7.63,7.63,0,0,1-7.06-4.41,10.69,10.69,0,0,1-1-4.7Zm.92.72a9.7,9.7,0,0,0,.91,4.22,7.18,7.18,0,0,0,2.54,3,6.61,6.61,0,0,0,3.73,1.07,6.4,6.4,0,0,0,5.14-2.37,9.18,9.18,0,0,0,2-6.1v-.53a9.6,9.6,0,0,0-.92-4.2,7.3,7.3,0,0,0-2.55-3,6.52,6.52,0,0,0-3.69-1.08,6.38,6.38,0,0,0-5.15,2.4,9.16,9.16,0,0,0-2,6.05Z"/><path class="cls-2" d="M307.81,33v5H312v.92h-4.2V52a5.23,5.23,0,0,0,.64,2.9,2.4,2.4,0,0,0,2.14.94,13.2,13.2,0,0,0,1.82-.15l.15.87a6.28,6.28,0,0,1-1.93.2,3.43,3.43,0,0,1-2.88-1.12,5.81,5.81,0,0,1-.89-3.52V38.88h-3.41V38h3.41V33Z"/><path class="cls-2" d="M316.54,32.2a.93.93,0,0,1,.27-.67.89.89,0,0,1,.67-.28,1,1,0,0,1,1,1,.89.89,0,0,1-.28.67.93.93,0,0,1-.67.27.93.93,0,0,1-.94-.94Zm1.4,24.21H317V38h.92Z"/><path class="cls-2" d="M325.39,56.42V38.88h-3.21V38h3.21V35.27a5.84,5.84,0,0,1,1.29-4,4.5,4.5,0,0,1,3.54-1.42,7.3,7.3,0,0,1,2.18.29l-.14.89a7.35,7.35,0,0,0-2-.26A3.64,3.64,0,0,0,327.36,32a4.92,4.92,0,0,0-1,3.37V38h4.88v.92h-4.88V56.42Z"/><path class="cls-2" d="M334.74,32.2a.93.93,0,0,1,.27-.67.89.89,0,0,1,.67-.28,1,1,0,0,1,1,1,.89.89,0,0,1-.28.67.93.93,0,0,1-.67.27.93.93,0,0,1-.94-.94Zm1.4,24.21h-.92V38h.92Z"/><path class="cls-2" d="M348.45,55.84a6.32,6.32,0,0,0,4.14-1.33,4.94,4.94,0,0,0,1.78-3.68h.92a5.77,5.77,0,0,1-2.06,4.31,7.14,7.14,0,0,1-4.77,1.63,6.72,6.72,0,0,1-5.5-2.51,10.47,10.47,0,0,1-2-6.8v-.61a10.3,10.3,0,0,1,2-6.7,6.68,6.68,0,0,1,5.46-2.51,6.88,6.88,0,0,1,4.84,1.76,6.42,6.42,0,0,1,2,4.67h-.92a5.58,5.58,0,0,0-1.75-4,5.94,5.94,0,0,0-4.2-1.51,5.8,5.8,0,0,0-4.83,2.23A9.77,9.77,0,0,0,341.83,47v.6a9.48,9.48,0,0,0,1.76,6.08A5.87,5.87,0,0,0,348.45,55.84Z"/><path class="cls-2" d="M371.83,56.42a12.8,12.8,0,0,1-.34-3.38,7.39,7.39,0,0,1-3,2.75,9.23,9.23,0,0,1-4.28,1,6,6,0,0,1-4.12-1.39,4.62,4.62,0,0,1-1.56-3.62,4.68,4.68,0,0,1,2.29-4.07,11,11,0,0,1,6.1-1.56h4.55V43.42a4.53,4.53,0,0,0-1.46-3.6,6.13,6.13,0,0,0-4.17-1.28,6.71,6.71,0,0,0-4.21,1.3A3.91,3.91,0,0,0,360,43L359,43a4.72,4.72,0,0,1,2-3.82,7.55,7.55,0,0,1,4.84-1.57,7.08,7.08,0,0,1,4.74,1.49,5.36,5.36,0,0,1,1.81,4.2v8.82a11.83,11.83,0,0,0,.48,4.13v.15Zm-7.61-.58a8.29,8.29,0,0,0,4.46-1.16,7.18,7.18,0,0,0,2.8-3.26V47h-4.26a10,10,0,0,0-6.05,1.57,3.85,3.85,0,0,0-1.71,3.19,3.67,3.67,0,0,0,1.35,2.86A5,5,0,0,0,364.22,55.84Z"/><path class="cls-2" d="M380.4,33v5h4.2v.92h-4.2V52a5.23,5.23,0,0,0,.64,2.9,2.4,2.4,0,0,0,2.14.94,13.2,13.2,0,0,0,1.82-.15l.15.87a6.28,6.28,0,0,1-1.93.2,3.43,3.43,0,0,1-2.88-1.12,5.81,5.81,0,0,1-.89-3.52V38.88h-3.41V38h3.41V33Z"/><path class="cls-2" d="M389.14,32.2a.93.93,0,0,1,.27-.67.89.89,0,0,1,.67-.28,1,1,0,0,1,1,1,.89.89,0,0,1-.28.67.93.93,0,0,1-.67.27.93.93,0,0,1-.94-.94Zm1.4,24.21h-.92V38h.92Z"/><path class="cls-2" d="M395.19,46.83a10.8,10.8,0,0,1,1-4.75,7.8,7.8,0,0,1,2.86-3.28,7.64,7.64,0,0,1,4.19-1.18,7.59,7.59,0,0,1,7,4.38,10.73,10.73,0,0,1,1,4.72v.82a10.86,10.86,0,0,1-1,4.76,7.76,7.76,0,0,1-2.86,3.27,7.64,7.64,0,0,1-4.19,1.18,7.63,7.63,0,0,1-7.06-4.41,10.69,10.69,0,0,1-1-4.7Zm.92.72a9.7,9.7,0,0,0,.91,4.22,7.18,7.18,0,0,0,2.54,3,6.61,6.61,0,0,0,3.73,1.07,6.4,6.4,0,0,0,5.14-2.37,9.18,9.18,0,0,0,2-6.1v-.53a9.6,9.6,0,0,0-.92-4.2,7.3,7.3,0,0,0-2.55-3,6.52,6.52,0,0,0-3.69-1.08,6.38,6.38,0,0,0-5.15,2.4,9.16,9.16,0,0,0-2,6.05Z"/><path class="cls-2" d="M416.73,42.26a7.71,7.71,0,0,1,2.66-3.39,6.57,6.57,0,0,1,3.89-1.24,5.49,5.49,0,0,1,4.41,1.68,7.7,7.7,0,0,1,1.46,5.07v12h-.92V44.35A6.79,6.79,0,0,0,427,40a4.67,4.67,0,0,0-3.79-1.42,5.74,5.74,0,0,0-4.13,1.69,8.61,8.61,0,0,0-2.36,4.37V56.42h-.92V38h.92Z"/><path class="cls-3" d="M258.52,24.16V16.91h2a3.29,3.29,0,0,1,1.67.42,2.83,2.83,0,0,1,1.12,1.19,3.88,3.88,0,0,1,.4,1.77v.46a3.88,3.88,0,0,1-.4,1.8,2.78,2.78,0,0,1-1.13,1.18,3.5,3.5,0,0,1-1.71.42Zm1-6.46v5.68h1a2.19,2.19,0,0,0,1.72-.69,2.84,2.84,0,0,0,.61-2v-.42a2.89,2.89,0,0,0-.58-1.92,2.07,2.07,0,0,0-1.64-.69Z"/><path class="cls-3" d="M269.29,20.81h-3.14v2.57h3.65v.78h-4.6V16.91h4.55v.78h-3.6V20h3.14Z"/><path class="cls-3" d="M271,24.16V16.91h2a3.29,3.29,0,0,1,1.67.42,2.83,2.83,0,0,1,1.12,1.19,3.88,3.88,0,0,1,.4,1.77v.46a3.88,3.88,0,0,1-.4,1.8,2.78,2.78,0,0,1-1.13,1.18,3.5,3.5,0,0,1-1.71.42Zm1-6.46v5.68h1a2.19,2.19,0,0,0,1.72-.69,2.84,2.84,0,0,0,.61-2v-.42a2.89,2.89,0,0,0-.58-1.92,2.07,2.07,0,0,0-1.64-.69Z"/><path class="cls-3" d="M278.69,24.16h-1V16.91h1Z"/><path class="cls-3" d="M285.76,21.86a2.66,2.66,0,0,1-.85,1.77,2.78,2.78,0,0,1-1.9.62,2.55,2.55,0,0,1-2.06-.92,3.7,3.7,0,0,1-.77-2.46v-.7a4.13,4.13,0,0,1,.36-1.78,2.69,2.69,0,0,1,1-1.18,2.84,2.84,0,0,1,1.53-.41,2.62,2.62,0,0,1,1.85.64,2.69,2.69,0,0,1,.81,1.78h-1a2.08,2.08,0,0,0-.54-1.26,1.63,1.63,0,0,0-1.16-.39,1.71,1.71,0,0,0-1.44.68,3.11,3.11,0,0,0-.52,1.93v.7a3.19,3.19,0,0,0,.49,1.88,1.59,1.59,0,0,0,1.38.7,1.84,1.84,0,0,0,1.22-.36,2,2,0,0,0,.56-1.26Z"/><path class="cls-3" d="M291.06,22.26h-3l-.68,1.9h-1l2.76-7.24H290l2.77,7.24h-1Zm-2.75-.78h2.46l-1.23-3.39Z"/><path class="cls-3" d="M298.07,17.7h-2.33v6.46h-1V17.7h-2.32v-.78h5.6Z"/><path class="cls-3" d="M303.24,20.81H300.1v2.57h3.65v.78h-4.6V16.91h4.55v.78h-3.6V20h3.14Z"/><path class="cls-3" d="M304.94,24.16V16.91h2a3.29,3.29,0,0,1,1.67.42,2.83,2.83,0,0,1,1.12,1.19,3.88,3.88,0,0,1,.4,1.77v.46a3.88,3.88,0,0,1-.4,1.8,2.78,2.78,0,0,1-1.13,1.18,3.5,3.5,0,0,1-1.71.42Zm1-6.46v5.68h1a2.19,2.19,0,0,0,1.72-.69,2.84,2.84,0,0,0,.61-2v-.42a2.89,2.89,0,0,0-.58-1.92A2.07,2.07,0,0,0,307,17.7Z"/><path class="cls-3" d="M319.7,24.16h-1V20.81h-3.65v3.35h-1V16.91h1V20h3.65V16.91h1Z"/><path class="cls-3" d="M327,20.77a4.47,4.47,0,0,1-.36,1.86,2.7,2.7,0,0,1-1,1.21,2.8,2.8,0,0,1-4.08-1.2,4.29,4.29,0,0,1-.38-1.8v-.52a4.42,4.42,0,0,1,.36-1.85,2.69,2.69,0,0,1,2.55-1.65,2.81,2.81,0,0,1,1.54.42,2.71,2.71,0,0,1,1,1.22,4.49,4.49,0,0,1,.36,1.86Zm-1-.47a3.25,3.25,0,0,0-.52-2,1.71,1.71,0,0,0-1.45-.69,1.69,1.69,0,0,0-1.42.69,3.18,3.18,0,0,0-.53,1.91v.53a3.25,3.25,0,0,0,.52,2,1.84,1.84,0,0,0,2.88,0,3.23,3.23,0,0,0,.52-1.93Z"/><path class="cls-3" d="M330.54,20.93a4.49,4.49,0,0,1-1.79-.87,1.66,1.66,0,0,1-.56-1.27,1.75,1.75,0,0,1,.68-1.42,2.72,2.72,0,0,1,1.78-.56,3,3,0,0,1,1.33.29,2.19,2.19,0,0,1,.91.8,2,2,0,0,1,.32,1.11h-1a1.33,1.33,0,0,0-.42-1,1.7,1.7,0,0,0-1.18-.38,1.74,1.74,0,0,0-1.1.31,1,1,0,0,0-.4.86.94.94,0,0,0,.38.75,3.7,3.7,0,0,0,1.28.56,5.94,5.94,0,0,1,1.41.56,2.14,2.14,0,0,1,.76.71,1.82,1.82,0,0,1,.25,1,1.69,1.69,0,0,1-.69,1.41,2.93,2.93,0,0,1-1.83.53,3.4,3.4,0,0,1-1.39-.29,2.34,2.34,0,0,1-1-.78,1.91,1.91,0,0,1-.35-1.13h1a1.25,1.25,0,0,0,.49,1,2,2,0,0,0,1.3.38,1.88,1.88,0,0,0,1.16-.31,1,1,0,0,0,.4-.84,1,1,0,0,0-.37-.82A4.29,4.29,0,0,0,330.54,20.93Z"/><path class="cls-3" d="M339.45,17.7h-2.33v6.46h-1V17.7h-2.32v-.78h5.6Z"/><path class="cls-3" d="M341.55,24.16h-1V16.91h1Z"/><path class="cls-3" d="M348.86,24.16h-1l-3.65-5.58v5.58h-1V16.91h1l3.66,5.61V16.91h1Z"/><path class="cls-3" d="M355.9,23.21a2.21,2.21,0,0,1-1,.79,4.16,4.16,0,0,1-1.53.26,3,3,0,0,1-1.57-.42,2.77,2.77,0,0,1-1.06-1.18,4.09,4.09,0,0,1-.39-1.78v-.63a3.81,3.81,0,0,1,.76-2.54,2.66,2.66,0,0,1,2.15-.9,2.75,2.75,0,0,1,1.83.58A2.52,2.52,0,0,1,355.9,19h-1a1.58,1.58,0,0,0-1.71-1.44,1.69,1.69,0,0,0-1.46.67,3.3,3.3,0,0,0-.5,2v.59a3.08,3.08,0,0,0,.56,1.94,1.8,1.8,0,0,0,1.51.72,3.34,3.34,0,0,0,.94-.12A1.45,1.45,0,0,0,355,23V21.33h-1.68v-.78h2.63Z"/><line class="cls-1" x1="681.45" y1="75.7" x2="518.77" y2="75.7"/><line class="cls-1" x1="518.77" y1="3.76" x2="681.45" y2="3.76"/><path class="cls-2" d="M539.51,32.51h-9V56.42h-.92V32.51h-9v-.92h19Z"/><path class="cls-2" d="M543.12,32.2a.93.93,0,0,1,.27-.67.89.89,0,0,1,.67-.28,1,1,0,0,1,1,1,.89.89,0,0,1-.28.67.93.93,0,0,1-.67.27.93.93,0,0,1-.94-.94Zm1.4,24.21h-.92V38h.92Z"/><path class="cls-2" d="M556.83,55.84A6.32,6.32,0,0,0,561,54.51a4.94,4.94,0,0,0,1.78-3.68h.92a5.77,5.77,0,0,1-2.06,4.31,7.14,7.14,0,0,1-4.77,1.63,6.72,6.72,0,0,1-5.5-2.51,10.47,10.47,0,0,1-2-6.8v-.61a10.3,10.3,0,0,1,2-6.7,6.68,6.68,0,0,1,5.46-2.51,6.88,6.88,0,0,1,4.84,1.76,6.42,6.42,0,0,1,2,4.67h-.92a5.58,5.58,0,0,0-1.75-4,5.94,5.94,0,0,0-4.2-1.51A5.8,5.8,0,0,0,552,40.77,9.77,9.77,0,0,0,550.22,47v.6A9.48,9.48,0,0,0,552,53.63,5.87,5.87,0,0,0,556.83,55.84Z"/><path class="cls-2" d="M571.92,46.44l0,0-2.68,2.3v7.64h-.92V30.22h.92V47.77l2.17-2L579.77,38h1.31l-8.48,7.86,9,10.59h-1.19Z"/><path class="cls-2" d="M591.45,56.76a7.42,7.42,0,0,1-4.1-1.2,8.25,8.25,0,0,1-2.92-3.3,10.19,10.19,0,0,1-1.06-4.66v-.77a10.69,10.69,0,0,1,1-4.69,8.1,8.1,0,0,1,2.81-3.33,6.9,6.9,0,0,1,3.91-1.19,6.45,6.45,0,0,1,5,2.2,8.37,8.37,0,0,1,2,5.78v1H584.29v1a9.26,9.26,0,0,0,.95,4.16,7.45,7.45,0,0,0,2.61,3,6.45,6.45,0,0,0,3.61,1.09,7.34,7.34,0,0,0,3.16-.62,6.44,6.44,0,0,0,2.31-1.91l.65.46A7,7,0,0,1,591.45,56.76Zm-.34-18.21a6,6,0,0,0-4.57,2,8.53,8.53,0,0,0-2.2,5.11H597.2v-.22a7.8,7.8,0,0,0-.79-3.49,6.12,6.12,0,0,0-2.18-2.51A5.63,5.63,0,0,0,591.11,38.54Z"/><path class="cls-2" d="M604.48,33v5h4.2v.92h-4.2V52a5.23,5.23,0,0,0,.64,2.9,2.4,2.4,0,0,0,2.14.94,13.2,13.2,0,0,0,1.82-.15l.15.87a6.28,6.28,0,0,1-1.93.2,3.43,3.43,0,0,1-2.88-1.12,5.81,5.81,0,0,1-.89-3.52V38.88h-3.41V38h3.41V33Z"/><path class="cls-3" d="M524.53,21.86a2.66,2.66,0,0,1-.85,1.77,2.78,2.78,0,0,1-1.9.62,2.55,2.55,0,0,1-2.06-.92,3.7,3.7,0,0,1-.77-2.46v-.7a4.13,4.13,0,0,1,.36-1.78,2.69,2.69,0,0,1,1-1.18,2.84,2.84,0,0,1,1.53-.41,2.62,2.62,0,0,1,1.85.64,2.69,2.69,0,0,1,.81,1.78h-1A2.08,2.08,0,0,0,523,18a1.63,1.63,0,0,0-1.16-.39,1.71,1.71,0,0,0-1.44.68,3.11,3.11,0,0,0-.52,1.93v.7a3.19,3.19,0,0,0,.49,1.88,1.59,1.59,0,0,0,1.38.7,1.84,1.84,0,0,0,1.22-.36,2,2,0,0,0,.56-1.26Z"/><path class="cls-3" d="M526.79,23.38h3.43v.78h-4.39V16.91h1Z"/><path class="cls-3" d="M536.56,20.77a4.47,4.47,0,0,1-.36,1.86,2.7,2.7,0,0,1-1,1.21,2.8,2.8,0,0,1-4.08-1.2,4.29,4.29,0,0,1-.38-1.8v-.52a4.42,4.42,0,0,1,.36-1.85,2.69,2.69,0,0,1,2.55-1.65,2.81,2.81,0,0,1,1.54.42,2.71,2.71,0,0,1,1,1.22,4.49,4.49,0,0,1,.36,1.86Zm-1-.47a3.25,3.25,0,0,0-.52-2,1.71,1.71,0,0,0-1.45-.69,1.69,1.69,0,0,0-1.42.69,3.18,3.18,0,0,0-.53,1.91v.53a3.25,3.25,0,0,0,.52,2,1.84,1.84,0,0,0,2.88,0,3.23,3.23,0,0,0,.52-1.93Z"/><path class="cls-3" d="M543.09,16.91v4.92a2.31,2.31,0,0,1-.64,1.68,2.59,2.59,0,0,1-1.73.73h-.25a2.71,2.71,0,0,1-1.9-.64,2.3,2.3,0,0,1-.72-1.77V16.91h.95v4.9a1.51,1.51,0,0,0,1.67,1.66A1.68,1.68,0,0,0,541.7,23a1.66,1.66,0,0,0,.43-1.22V16.91Z"/><path class="cls-3" d="M544.6,24.16V16.91h2a3.29,3.29,0,0,1,1.67.42,2.83,2.83,0,0,1,1.12,1.19,3.88,3.88,0,0,1,.4,1.77v.46a3.88,3.88,0,0,1-.4,1.8,2.78,2.78,0,0,1-1.13,1.18,3.5,3.5,0,0,1-1.71.42Zm1-6.46v5.68h1a2.19,2.19,0,0,0,1.72-.69,2.84,2.84,0,0,0,.61-2v-.42a2.89,2.89,0,0,0-.58-1.92,2.07,2.07,0,0,0-1.64-.69Z"/><path class="cls-3" d="M559.36,24.16h-1V20.81h-3.65v3.35h-1V16.91h1V20h3.65V16.91h1Z"/><path class="cls-3" d="M566.63,20.77a4.47,4.47,0,0,1-.36,1.86,2.7,2.7,0,0,1-1,1.21,2.8,2.8,0,0,1-4.08-1.2,4.29,4.29,0,0,1-.38-1.8v-.52a4.42,4.42,0,0,1,.36-1.85,2.69,2.69,0,0,1,2.55-1.65,2.81,2.81,0,0,1,1.54.42,2.71,2.71,0,0,1,1,1.22,4.49,4.49,0,0,1,.36,1.86Zm-1-.47a3.25,3.25,0,0,0-.52-2,1.71,1.71,0,0,0-1.45-.69,1.69,1.69,0,0,0-1.42.69,3.18,3.18,0,0,0-.53,1.91v.53a3.25,3.25,0,0,0,.52,2,1.84,1.84,0,0,0,2.88,0,3.23,3.23,0,0,0,.52-1.93Z"/><path class="cls-3" d="M570.2,20.93a4.49,4.49,0,0,1-1.79-.87,1.66,1.66,0,0,1-.56-1.27,1.75,1.75,0,0,1,.68-1.42,2.72,2.72,0,0,1,1.78-.56,3,3,0,0,1,1.33.29,2.19,2.19,0,0,1,.91.8,2,2,0,0,1,.32,1.11h-1a1.33,1.33,0,0,0-.42-1,1.7,1.7,0,0,0-1.18-.38,1.74,1.74,0,0,0-1.1.31,1,1,0,0,0-.4.86.94.94,0,0,0,.38.75,3.7,3.7,0,0,0,1.28.56,5.94,5.94,0,0,1,1.41.56,2.14,2.14,0,0,1,.76.71,1.82,1.82,0,0,1,.25,1,1.69,1.69,0,0,1-.69,1.41,2.93,2.93,0,0,1-1.83.53A3.4,3.4,0,0,1,569,24a2.34,2.34,0,0,1-1-.78,1.91,1.91,0,0,1-.35-1.13h1a1.25,1.25,0,0,0,.49,1,2,2,0,0,0,1.3.38,1.88,1.88,0,0,0,1.16-.31,1,1,0,0,0,.4-.84,1,1,0,0,0-.37-.82A4.29,4.29,0,0,0,570.2,20.93Z"/><path class="cls-3" d="M579.11,17.7h-2.33v6.46h-1V17.7h-2.32v-.78h5.6Z"/><path class="cls-3" d="M581.21,24.16h-1V16.91h1Z"/><path class="cls-3" d="M588.52,24.16h-1l-3.65-5.58v5.58h-1V16.91h1l3.66,5.61V16.91h1Z"/><path class="cls-3" d="M595.56,23.21a2.21,2.21,0,0,1-1,.79,4.16,4.16,0,0,1-1.53.26,3,3,0,0,1-1.57-.42,2.77,2.77,0,0,1-1.06-1.18,4.09,4.09,0,0,1-.39-1.78v-.63a3.81,3.81,0,0,1,.76-2.54,2.66,2.66,0,0,1,2.15-.9,2.75,2.75,0,0,1,1.83.58,2.52,2.52,0,0,1,.85,1.64h-1a1.58,1.58,0,0,0-1.71-1.44,1.69,1.69,0,0,0-1.46.67,3.3,3.3,0,0,0-.5,2v.59a3.08,3.08,0,0,0,.56,1.94,1.8,1.8,0,0,0,1.51.72,3.34,3.34,0,0,0,.94-.12,1.45,1.45,0,0,0,.67-.4V21.33h-1.68v-.78h2.63Z"/></g></svg>