<svg xmlns="http://www.w3.org/2000/svg" width="500" height="192" viewBox="0 0 500 192">
  <g fill="none" fill-rule="evenodd">
    <rect width="109.39" height="41.16" x="377.58" y="117.82" fill="#7600FF" fill-rule="nonzero" opacity=".5"/>
    <path stroke="#D8D8D8" d="M495.78 64.7L7.32 64.7M7.32.67L495.78.67"/>
    <polygon fill="#424242" fill-rule="nonzero" points="25.77 26.26 17.77 26.26 17.77 47.54 16.95 47.54 16.95 26.26 8.95 26.26 8.95 25.44 25.77 25.44"/>
    <path fill="#424242" fill-rule="nonzero" d="M29 26C28.9956603 25.7757904 29.0822302 25.5593657 29.24 25.4 29.3925238 25.2370675 29.6068488 25.1462518 29.83 25.15 30.299442 25.15 30.68 25.530558 30.68 26 30.6837482 26.2231512 30.5929325 26.4374762 30.43 26.59 30.2706343 26.7477698 30.0542096 26.8343397 29.83 26.83 29.3716037 26.83 29 26.4583963 29 26zM30.24 47.55L29.42 47.55 29.42 31.11 30.24 31.11 30.24 47.55zM41.19 47C42.5174696 47.0531791 43.8209799 46.6352057 44.87 45.82 45.849245 45.0079319 46.4290878 43.8117782 46.46 42.54L47.28 42.54C47.2477572 44.0222911 46.5770128 45.41846 45.44 46.37 44.2467661 47.3540182 42.7358486 47.8695077 41.19 47.82 39.2996035 47.8890787 37.4873302 47.0626228 36.3 45.59 35.0087748 43.8427138 34.3685569 41.6992218 34.49 39.53L34.49 39C34.3699708 36.8494983 35.0107498 34.725369 36.3 33 37.4809078 31.5359817 39.2800137 30.710466 41.16 30.77 42.7445055 30.7120511 44.2896581 31.2713175 45.47 32.33 46.6219487 33.4071959 47.2770632 34.9128735 47.28 36.49L46.46 36.49C46.4228004 35.1659579 45.8617457 33.910778 44.9 33 43.8747742 32.084393 42.5334139 31.6037986 41.16 31.66 39.4874022 31.5911948 37.8850108 32.3364931 36.86 33.66 35.7352871 35.26526 35.1855939 37.2032808 35.3 39.16L35.3 39.69C35.1883209 41.6199182 35.7425412 43.5296838 36.87 45.1 37.9261578 46.3839659 39.5298604 47.0892981 41.19 47L41.19 47z"/>
    <polygon fill="#424242" fill-rule="nonzero" points="54.63 38.66 54.63 38.66 52.25 40.66 52.25 47.46 51.43 47.46 51.43 24.22 52.25 24.22 52.25 39.84 54.14 38 61.61 31.09 62.78 31.09 55.24 38.09 63.24 47.52 62.18 47.52"/>
    <path fill="#424242" fill-rule="nonzero" d="M72 47.84C70.7047767 47.8486519 69.4355531 47.4765781 68.35 46.77 67.2325366 46.0441686 66.3337373 45.027834 65.75 43.83 65.1135643 42.5437954 64.7914067 41.124931 64.81 39.69L64.81 39C64.7938158 37.5590415 65.1049682 36.1332111 65.72 34.83 66.2614975 33.6190653 67.1265638 32.5809858 68.22 31.83 69.2462922 31.133248 70.4595568 30.7636904 71.7 30.77 73.4208384 30.7297136 75.0689211 31.4638262 76.19 32.77 77.402424 34.2042645 78.027573 36.0439889 77.94 37.92L77.94 38.79 65.63 38.79 65.63 39.68C65.6187426 40.961844 65.9063477 42.2286761 66.47 43.38 66.9947294 44.4453514 67.7959758 45.3502073 68.79 46 69.7362036 46.6462577 70.8541726 46.9945346 72 47 72.9691753 47.0283001 73.9324899 46.8404196 74.82 46.45 75.6309918 46.0535142 76.3368318 45.4710249 76.88 44.75L77.46 45.16C76.2346479 46.9475529 74.1636629 47.9640803 72 47.84L72 47.84zM71.7 31.63C70.1497439 31.6067653 68.6653744 32.2559491 67.63 33.41 66.4715742 34.6592203 65.7671198 36.261854 65.63 37.96L77.12 37.96 77.12 37.76C77.1268442 36.6855993 76.8837777 35.6243228 76.41 34.66 75.9815374 33.7518666 75.310084 32.9800413 74.47 32.43 73.6452507 31.8971267 72.6818563 31.6188901 71.7 31.63zM83.6 26.68L83.6 31.11 87.33 31.11 87.33 31.93 83.6 31.93 83.6 43.6C83.5365289 44.4970241 83.7345231 45.3932086 84.17 46.18 84.614605 46.7708023 85.3337984 47.0887615 86.07 47.02 86.6125866 47.0108305 87.1538846 46.9640516 87.69 46.88L87.83 47.65C87.2726072 47.7973572 86.6958586 47.8580676 86.12 47.83 85.1529473 47.925094 84.198457 47.553697 83.55 46.83 82.9579089 45.8946374 82.6810454 44.7941926 82.76 43.69L82.76 31.93 79.76 31.93 79.76 31.11 82.76 31.11 82.76 26.68 83.6 26.68z"/>
    <polygon fill="#757575" fill-rule="nonzero" points="11.26 16 8.55 16 8.55 18.85 7.7 18.85 7.7 12.38 11.7 12.38 11.7 13.07 8.55 13.07 8.55 15.28 11.26 15.28"/>
    <path fill="#757575" fill-rule="nonzero" d="M15.52,17.14 L12.82,17.14 L12.21,18.83 L11.33,18.83 L13.79,12.38 L14.53,12.38 L17,18.82 L16.13,18.82 L15.52,17.14 Z M13.08,16.44 L15.27,16.44 L14.17,13.44 L13.08,16.44 Z"/>
    <polygon fill="#757575" fill-rule="nonzero" points="22.83 18.82 22 18.82 18.75 13.82 18.75 18.82 17.9 18.82 17.9 12.38 18.75 12.38 22 17.38 22 12.38 22.85 12.38"/>
    <path fill="#757575" fill-rule="nonzero" d="M27.9,17.14 L25.2,17.14 L24.59,18.83 L23.71,18.83 L26.17,12.38 L26.91,12.38 L29.38,18.83 L28.51,18.83 L27.9,17.14 Z M25.46,16.44 L27.65,16.44 L26.55,13.44 L25.46,16.44 Z"/>
    <polygon fill="#757575" fill-rule="nonzero" points="34.13 13.07 32.06 13.07 32.06 18.82 31.21 18.82 31.21 13.07 29.15 13.07 29.15 12.38 34.15 12.38"/>
    <polygon fill="#757575" fill-rule="nonzero" points="36 18.82 35.15 18.82 35.15 12.38 36 12.38"/>
    <path fill="#757575" fill-rule="nonzero" d="M42.3 16.78C42.2605801 17.3830244 41.9922942 17.9482134 41.55 18.36 41.0758665 18.7502595 40.4733602 18.9499065 39.86 18.92 39.1437094 18.9526235 38.4541155 18.6449015 38 18.09 37.5144597 17.4665529 37.2695326 16.6891755 37.31 15.9L37.31 15.28C37.2982473 14.7361258 37.4075506 14.1964408 37.63 13.7 37.8312309 13.2863457 38.1471007 12.9392361 38.54 12.7 38.9501818 12.4538375 39.4217487 12.3290109 39.9 12.34 40.5030838 12.3090008 41.0946465 12.5133589 41.55 12.91 41.9810482 13.330852 42.23806 13.8984198 42.27 14.5L41.42 14.5C41.4191426 14.0732301 41.270761 13.6598814 41 13.33 40.7227487 13.0913709 40.3655487 12.9663509 40 12.98 39.5006295 12.9573551 39.022048 13.1816902 38.72 13.58 38.383012 14.0840047 38.2213548 14.6849478 38.26 15.29L38.26 15.92C38.2297537 16.5088449 38.3835324 17.0925049 38.7 17.59 38.9756067 17.9949972 39.4405023 18.2293349 39.93 18.21 40.3198535 18.2365957 40.7063923 18.1231165 41.02 17.89 41.3133645 17.5872 41.4904329 17.1905667 41.52 16.77L42.3 16.78zM47 17.14L44.3 17.14 43.69 18.83 42.81 18.83 45.27 12.38 46 12.38 48.47 18.83 47.6 18.83 47 17.14zM44.56 16.44L46.75 16.44 45.65 13.44 44.56 16.44z"/>
    <polygon fill="#757575" fill-rule="nonzero" points="50.22 18.13 53.27 18.13 53.27 18.82 49.37 18.82 49.37 12.38 50.22 12.38"/>
    <path fill="#757575" fill-rule="nonzero" d="M58.39 15.95C57.809236 15.8150435 57.2659881 15.5519612 56.8 15.18 56.4616252 14.883845 56.2774133 14.4491049 56.3 14 56.2928922 13.5072243 56.5190552 13.0400677 56.91 12.74 57.3614075 12.3925756 57.9209015 12.2155206 58.49 12.24 58.8981072 12.2346408 59.301937 12.3236203 59.67 12.5 59.9998486 12.6581393 60.2800097 12.9037126 60.48 13.21 60.6725245 13.5077347 60.7733641 13.8554576 60.77 14.21L59.92 14.21C59.9377578 13.8638778 59.8024551 13.5274496 59.55 13.29 59.2684653 13.0599802 58.9133943 12.9392561 58.55 12.95 58.1943871 12.9255727 57.8412218 13.024459 57.55 13.23 57.3152704 13.4146444 57.1847729 13.7017389 57.2 14 57.1976299 14.2630047 57.3200565 14.5115677 57.53 14.67 57.8744782 14.9081259 58.2614895 15.0778677 58.67 15.17 59.1097048 15.2819411 59.5331809 15.4499871 59.93 15.67 60.2027254 15.8247749 60.4329026 16.0446457 60.6 16.31 60.7501797 16.5676799 60.8263093 16.8618171 60.82 17.16 60.8320965 17.6510847 60.6045538 18.1173607 60.21 18.41 59.7341583 18.7437958 59.1605102 18.9092035 58.58 18.88 58.1535961 18.8857453 57.730867 18.8005177 57.34 18.63 56.9843092 18.4834588 56.6762261 18.2411463 56.45 17.93 56.2440419 17.6375779 56.1355626 17.2876447 56.14 16.93L57 16.93C56.9864221 17.2880987 57.1465621 17.6307239 57.43 17.85 57.7639156 18.0899956 58.1692641 18.2098378 58.58 18.19 58.9335249 18.2082616 59.283708 18.1137122 59.58 17.92 59.8166492 17.7449205 59.9514182 17.4641518 59.94 17.17 59.9535609 16.8878015 59.8308056 16.6162519 59.61 16.44 59.2344356 16.2079255 58.8217531 16.042176 58.39 15.95L58.39 15.95zM66.41 12.38L66.41 16.76C66.4289728 17.3132555 66.2233859 17.8506669 65.84 18.25 65.4258053 18.6513104 64.8764755 18.8831704 64.3 18.9L64.07 18.9C63.4545026 18.9331104 62.8497129 18.7291281 62.38 18.33 61.9444275 17.9274509 61.709988 17.3523415 61.74 16.76L61.74 12.38 62.58 12.38 62.58 16.74C62.58 17.5684271 63.2515729 18.24 64.08 18.24 64.9084271 18.24 65.58 17.5684271 65.58 16.74L65.58 12.38 66.41 12.38zM68.6 16.3L68.6 18.82 67.75 18.82 67.75 12.38 70.13 12.38C70.731627 12.3442599 71.3245451 12.5371369 71.79 12.92 72.1920651 13.2841751 72.4118367 13.807964 72.39 14.35 72.4233253 14.8977842 72.2063187 15.4311054 71.8 15.8 71.3200731 16.167515 70.723241 16.3486962 70.12 16.31L68.6 16.3zM68.6 15.61L70.13 15.61C70.4906438 15.6246269 70.844847 15.5112818 71.13 15.29 71.3815344 15.0484305 71.5133266 14.7079673 71.49 14.36 71.5063592 14.0160813 71.3754283 13.6814801 71.13 13.44 70.8552958 13.1959836 70.4972046 13.0670708 70.13 13.08L68.6 13.08 68.6 15.61zM74.32 16.3L74.32 18.82 73.47 18.82 73.47 12.38 75.85 12.38C76.451627 12.3442599 77.0445451 12.5371369 77.51 12.92 77.9120651 13.2841751 78.1318367 13.807964 78.11 14.35 78.1433253 14.8977842 77.9263187 15.4311054 77.52 15.8 77.0400731 16.167515 76.443241 16.3486962 75.84 16.31L74.32 16.3zM74.32 15.61L75.85 15.61C76.2106438 15.6246269 76.564847 15.5112818 76.85 15.29 77.1015344 15.0484305 77.2333266 14.7079673 77.21 14.36 77.2263592 14.0160813 77.0954283 13.6814801 76.85 13.44 76.5752958 13.1959836 76.2172046 13.0670708 75.85 13.08L74.32 13.08 74.32 15.61zM84.15 15.81C84.1613923 16.3764559 84.0523181 16.9388697 83.83 17.46 83.6434804 17.9011275 83.3302612 18.2769905 82.93 18.54 82.3198621 18.9367382 81.5666909 19.0466808 80.8686028 18.8409083 80.1705146 18.6351357 79.5973954 18.134248 79.3 17.47 79.0762104 16.9666065 78.9636501 16.4208597 78.97 15.87L78.97 15.4C78.9581879 14.8367421 79.0673081 14.277501 79.29 13.76 79.6700229 12.8478487 80.5722038 12.263617 81.56 12.29 82.0428883 12.2778376 82.518889 12.4063926 82.93 12.66 83.3343748 12.9210517 83.6513195 13.2972059 83.84 13.74 84.0623181 14.2611303 84.1713923 14.8235441 84.16 15.39L84.15 15.81zM83.3 15.39C83.3401178 14.7691122 83.1787892 14.1518553 82.84 13.63 82.5425085 13.2173725 82.058329 12.9809127 81.55 13 81.0515705 12.9795032 80.5755635 13.2081365 80.28 13.61 79.9427137 14.1109373 79.774517 14.7066337 79.8 15.31L79.8 15.78C79.7650136 16.3986345 79.9297822 17.0121346 80.27 17.53 80.5812443 17.9185695 81.0521453 18.1447196 81.55 18.1447196 82.0478547 18.1447196 82.5187557 17.9185695 82.83 17.53 83.1617911 17.0199274 83.3228785 16.4176005 83.29 15.81L83.3 15.39zM87.79 16.22L86.27 16.22 86.27 18.83 85.42 18.83 85.42 12.38 87.55 12.38C88.1517892 12.3402638 88.7478734 12.5176698 89.23 12.88 89.6371856 13.2440547 89.8546852 13.774901 89.82 14.32 89.8165866 14.6795264 89.7012415 15.0290569 89.49 15.32 89.2598742 15.6286878 88.9430992 15.8619178 88.58 15.99L90.09 18.73 90.09 18.78 89.18 18.78 87.79 16.22zM86.28 15.53L87.59 15.53C87.9526476 15.5472635 88.3088553 15.4297149 88.59 15.2 88.8396125 14.9773898 88.9755429 14.654096 88.96 14.32 88.9817058 13.9752246 88.8499364 13.6384807 88.6 13.4 88.3156767 13.1771476 87.96088 13.0636127 87.6 13.08L86.3 13.08 86.28 15.53z"/>
    <polygon fill="#757575" fill-rule="nonzero" points="95.1 13.07 93 13.07 93 18.82 92.15 18.82 92.15 13.07 90.12 13.07 90.12 12.38 95.12 12.38"/>
    <polygon fill="#757575" fill-rule="nonzero" points="101.68 16 99 16 99 18.85 98.15 18.85 98.15 12.38 102.15 12.38 102.15 13.07 99 13.07 99 15.28 101.71 15.28"/>
    <path fill="#757575" fill-rule="nonzero" d="M108.09 15.81C108.101392 16.3764559 107.992318 16.9388697 107.77 17.46 107.58348 17.9011275 107.270261 18.2769905 106.87 18.54 106.259862 18.9367382 105.506691 19.0466808 104.808603 18.8409083 104.110515 18.6351357 103.537395 18.134248 103.24 17.47 103.01621 16.9666065 102.90365 16.4208597 102.91 15.87L102.91 15.4C102.898188 14.8367421 103.007308 14.277501 103.23 13.76 103.610023 12.8478487 104.512204 12.263617 105.5 12.29 105.982888 12.2778376 106.458889 12.4063926 106.87 12.66 107.274375 12.9210517 107.59132 13.2972059 107.78 13.74 108.002318 14.2611303 108.111392 14.8235441 108.1 15.39L108.09 15.81zM107.24 15.39C107.280118 14.7691122 107.118789 14.1518553 106.78 13.63 106.484505 13.2203767 106.004838 12.9842906 105.5 13 105.001571 12.9795032 104.525564 13.2081365 104.23 13.61 103.892714 14.1109373 103.724517 14.7066337 103.75 15.31L103.75 15.78C103.715014 16.3986345 103.879782 17.0121346 104.22 17.53 104.531244 17.9185695 105.002145 18.1447196 105.5 18.1447196 105.997855 18.1447196 106.468756 17.9185695 106.78 17.53 107.111791 17.0199274 107.272879 16.4176005 107.24 15.81L107.24 15.39zM111.73 16.22L110.22 16.22 110.22 18.83 109.37 18.83 109.37 12.38 111.5 12.38C112.101789 12.3402638 112.697873 12.5176698 113.18 12.88 113.587186 13.2440547 113.804685 13.774901 113.77 14.32 113.766587 14.6795264 113.651242 15.0290569 113.44 15.32 113.209874 15.6286878 112.893099 15.8619178 112.53 15.99L114 18.77 114 18.82 113.09 18.82 111.73 16.22zM110.22 15.53L111.53 15.53C111.892648 15.5472635 112.248855 15.4297149 112.53 15.2 112.779612 14.9773898 112.915543 14.654096 112.9 14.32 112.921706 13.9752246 112.789936 13.6384807 112.54 13.4 112.255677 13.1771476 111.90088 13.0636127 111.54 13.08L110.24 13.08 110.22 15.53zM120.76 17.14L118.06 17.14 117.45 18.83 116.57 18.83 119 12.38 119.74 12.38 122.21 18.83 121.34 18.83 120.76 17.14zM118.32 16.44L120.51 16.44 119.41 13.44 118.32 16.44z"/>
    <polygon fill="#757575" fill-rule="nonzero" points="124.19 16.79 124.31 17.64 124.49 16.87 125.77 12.37 126.49 12.37 127.73 16.87 127.91 17.65 128.05 16.78 129.05 12.37 129.9 12.37 128.34 18.82 127.57 18.82 126.24 14.12 126.14 13.63 126.04 14.12 124.66 18.82 123.89 18.82 122.33 12.37 123.18 12.37"/>
    <path fill="#757575" fill-rule="nonzero" d="M132.75,15.95 C132.169236,15.8150435 131.625988,15.5519612 131.16,15.18 C130.835426,14.8950737 130.652575,14.4818285 130.66,14.05 C130.652892,13.5572243 130.879055,13.0900677 131.27,12.79 C131.721407,12.4425756 132.280901,12.2655206 132.85,12.29 C133.258107,12.2846408 133.661937,12.3736203 134.03,12.55 C134.359849,12.7081393 134.64001,12.9537126 134.84,13.26 C135.032524,13.5577347 135.133364,13.9054576 135.13,14.26 L134.28,14.26 C134.297758,13.9138778 134.162455,13.5774496 133.91,13.34 C133.628465,13.1099802 133.273394,12.9892561 132.91,13 C132.554387,12.9755727 132.201222,13.074459 131.91,13.28 C131.67527,13.4646444 131.544773,13.7517389 131.56,14.05 C131.55763,14.3130047 131.680056,14.5615677 131.89,14.72 C132.234478,14.9581259 132.621489,15.1278677 133.03,15.22 C133.469705,15.3319411 133.893181,15.4999871 134.29,15.72 C134.562725,15.8747749 134.792903,16.0946457 134.96,16.36 C135.11018,16.6176799 135.186309,16.9118171 135.18,17.21 C135.192097,17.7010847 134.964554,18.1673607 134.57,18.46 C134.094158,18.7937958 133.52051,18.9592035 132.94,18.93 C132.513596,18.9357453 132.090867,18.8505177 131.7,18.68 C131.344309,18.5334588 131.036226,18.2911463 130.81,17.98 C130.604042,17.6875779 130.495563,17.3376447 130.5,16.98 L131.35,16.98 C131.336422,17.3380987 131.496562,17.6807239 131.78,17.9 C132.113916,18.1399956 132.519264,18.2598378 132.93,18.24 C133.283525,18.2582616 133.633708,18.1637122 133.93,17.97 C134.166649,17.7949205 134.301418,17.5141518 134.29,17.22 C134.303561,16.9378015 134.180806,16.6662519 133.96,16.49 C133.590905,16.2414248 133.18151,16.0587195 132.75,15.95 L132.75,15.95 Z"/>
    <path stroke="#D8D8D8" d="M485.28 169.01L12.21 169.01M12.21 106.99L485.28 106.99"/>
    <polygon fill="#424242" fill-rule="nonzero" points="30.09 131.77 22.29 131.77 22.29 152.38 21.5 152.38 21.5 131.77 13.71 131.77 13.71 131 30.09 131"/>
    <path fill="#424242" fill-rule="nonzero" d="M33.2 131.51C33.1976459 131.292044 33.2843271 131.082565 33.44 130.93 33.5881111 130.773858 33.7948092 130.686827 34.01 130.69 34.460619 130.695397 34.8246028 131.059381 34.83 131.51 34.8331726 131.725191 34.7461418 131.931889 34.59 132.08 34.4367819 132.234703 34.2277324 132.321206 34.01 132.32 33.7943544 132.322713 33.5867478 132.238245 33.4342513 132.085749 33.2817548 131.933252 33.1972872 131.725646 33.2 131.51L33.2 131.51zM34.41 152.38L33.62 152.38 33.62 136.48 34.41 136.48 34.41 152.38zM45 151.88C46.2851852 151.928725 47.5461955 151.521376 48.56 150.73 49.5079043 149.945995 50.0696177 148.789741 50.1 147.56L50.89 147.56C50.8566271 148.994819 50.2082966 150.346115 49.11 151.27 47.9531644 152.223151 46.4880536 152.721004 44.99 152.67 43.1570462 152.741497 41.3986376 151.940197 40.25 150.51 38.99698 148.822149 38.3743075 146.748932 38.49 144.65L38.49 144.12C38.3830232 142.046839 39.0057593 140.001717 40.25 138.34 41.3977096 136.902981 43.1626308 136.100406 45 136.18 46.5329837 136.125042 48.0276221 136.666266 49.17 137.69 50.2762893 138.727566 50.9088104 140.173328 50.92 141.69L50.13 141.69C50.1164942 140.382567 49.5713197 139.13697 48.62 138.24 47.6189422 137.374347 46.3215764 136.929945 45 137 43.3809747 136.926344 41.8266766 137.641992 40.83 138.92 39.7398838 140.47549 39.2077341 142.353873 39.32 144.25L39.32 144.76C39.211246 146.629239 39.7478511 148.479114 40.84 150 41.8491331 151.25212 43.3933714 151.949997 45 151.88z"/>
    <polygon fill="#424242" fill-rule="nonzero" points="58 143.78 58 143.78 55.69 145.78 55.69 152.36 54.9 152.36 54.9 129.8 55.69 129.8 55.69 144.93 57.56 143.17 64.79 136.48 65.92 136.48 58.61 143.26 66.37 152.39 65.37 152.39"/>
    <path fill="#424242" fill-rule="nonzero" d="M74.86 152.67C73.6075662 152.690271 72.3767154 152.342573 71.32 151.67 70.2380903 150.969268 69.3670299 149.987597 68.8 148.83 68.1850712 147.587228 67.873227 146.216484 67.89 144.83L67.89 144.17C67.8797354 142.787554 68.1804882 141.420496 68.77 140.17 69.3003044 139.010835 70.1370646 138.018479 71.19 137.3 72.1883062 136.637697 73.3620232 136.289413 74.56 136.3 76.2210781 136.251439 77.816799 136.948421 78.91 138.2 80.0850307 139.593166 80.6888585 141.379639 80.6 143.2L80.6 144.04 68.68 144.04 68.68 144.91C68.6704501 146.15415 68.9512211 147.383379 69.5 148.5 70.0011603 149.551458 70.7789341 150.446762 71.75 151.09 72.669956 151.705985 73.7528658 152.033296 74.86 152.03 75.7980639 152.05822 76.7306384 151.877171 77.59 151.5 78.3765204 151.118471 79.0617938 150.556547 79.59 149.86L80.15 150.26C78.9195261 151.920933 76.9207457 152.831531 74.86 152.67zM74.56 137C73.0582126 136.979405 71.6211446 137.610402 70.62 138.73 69.5134965 139.943605 68.8446867 141.492428 68.72 143.13L79.81 143.13 79.81 142.94C79.8183373 141.900874 79.585573 140.873973 79.13 139.94 78.7147078 139.060281 78.064018 138.31268 77.25 137.78 76.4495515 137.261118 75.5138618 136.989803 74.56 137zM86.09 132.18L86.09 136.47 89.7 136.47 89.7 137.26 86.09 137.26 86.09 148.56C86.0274528 149.429005 86.2185176 150.297481 86.64 151.06 87.0722429 151.629706 87.767927 151.935958 88.48 151.87 89.0056988 151.862794 89.5302756 151.819358 90.05 151.74L90.18 152.49C89.6392562 152.635225 89.0793042 152.695943 88.52 152.67 87.5822754 152.743894 86.6641807 152.373695 86.04 151.67 85.4757769 150.775538 85.2096937 149.72521 85.28 148.67L85.28 137.27 82.34 137.27 82.34 136.48 85.28 136.48 85.28 132.19 86.09 132.18z"/>
    <polygon fill="#757575" fill-rule="nonzero" points="16 121.82 13.41 121.82 13.41 124.58 12.59 124.58 12.59 118.34 16.46 118.34 16.46 119 13.46 119 13.46 121.14 16 121.14"/>
    <path fill="#757575" fill-rule="nonzero" d="M20.15,122.94 L17.54,122.94 L17,124.58 L16.1,124.58 L18.48,118.34 L19.2,118.34 L21.59,124.58 L20.75,124.58 L20.15,122.94 Z M17.78,122.27 L19.9,122.27 L18.84,119.35 L17.78,122.27 Z"/>
    <polygon fill="#757575" fill-rule="nonzero" points="27.23 124.58 26.4 124.58 23.26 119.77 23.26 124.58 22.43 124.58 22.43 118.34 23.26 118.34 26.41 123.17 26.41 118.34 27.23 118.34"/>
    <path fill="#757575" fill-rule="nonzero" d="M32.14,122.94 L29.53,122.94 L28.94,124.57 L28.09,124.57 L30.47,118.33 L31.19,118.33 L33.58,124.57 L32.74,124.57 L32.14,122.94 Z M29.77,122.27 L31.9,122.27 L30.84,119.35 L29.77,122.27 Z"/>
    <polygon fill="#757575" fill-rule="nonzero" points="38.18 119 36.18 119 36.18 124.57 35.36 124.57 35.36 119 33.36 119 33.36 118.33 38.19 118.33"/>
    <polygon fill="#757575" fill-rule="nonzero" points="40 124.58 39.18 124.58 39.18 118.34 40 118.34"/>
    <path fill="#757575" fill-rule="nonzero" d="M46.09 122.6C46.0503471 123.184344 45.7892624 123.731548 45.36 124.13 44.8992529 124.507219 44.3147273 124.699684 43.72 124.67 43.0395367 124.694769 42.3859533 124.403057 41.95 123.88 41.4796598 123.276547 41.2418734 122.524148 41.28 121.76L41.28 121.16C41.2685297 120.633316 41.3744231 120.110681 41.59 119.63 41.779275 119.217812 42.0852214 118.870145 42.47 118.63 42.8679355 118.390586 43.325721 118.269204 43.79 118.28 44.3723878 118.25462 44.9420576 118.455258 45.38 118.84 45.7980192 119.247513 46.0478314 119.7971 46.08 120.38L45.25 120.38C45.2224259 119.978527 45.0603741 119.598058 44.79 119.3 44.5133087 119.061383 44.154795 118.939488 43.79 118.96 43.3063736 118.937334 42.8425984 119.154261 42.55 119.54 42.2216985 120.028867 42.0635511 120.612255 42.1 121.2L42.1 121.8C42.0689625 122.370454 42.2157107 122.936483 42.52 123.42 42.7861059 123.812458 43.2362292 124.039411 43.71 124.02 44.0857598 124.045104 44.4581296 123.935166 44.76 123.71 45.0454805 123.418978 45.2190173 123.036489 45.25 122.63L46.09 122.6zM50.66 122.94L48 122.94 47.41 124.57 46.56 124.57 49 118.33 49.72 118.33 52.11 124.57 51.27 124.57 50.66 122.94zM48.29 122.27L50.41 122.27 49.35 119.35 48.29 122.27z"/>
    <polygon fill="#757575" fill-rule="nonzero" points="53.77 123.9 56.77 123.9 56.77 124.57 52.94 124.57 52.94 118.33 53.77 118.33"/>
    <path fill="#757575" fill-rule="nonzero" d="M61.68 121.79C61.1170894 121.658169 60.5908677 121.401892 60.14 121.04 59.8264292 120.761467 59.6509452 120.359316 59.66 119.94 59.6528913 119.462962 59.8716447 119.010625 60.25 118.72 60.6875504 118.384796 61.2293847 118.214809 61.78 118.24 62.1775463 118.232896 62.5712828 118.318491 62.93 118.49 63.2494853 118.642418 63.5197456 118.881495 63.71 119.18 63.9017863 119.477585 63.9993683 119.826092 63.99 120.18L63.16 120.18C63.1768597 119.844804 63.0451589 119.519211 62.8 119.29 62.5174244 119.063869 62.1613603 118.949929 61.8 118.97 61.4619341 118.950182 61.1271096 119.045342 60.85 119.24 60.6208714 119.419383 60.4939078 119.69945 60.51 119.99 60.5084238 120.244954 60.6269796 120.485771 60.83 120.64 61.1628764 120.868369 61.5361904 121.03127 61.93 121.12 62.3555898 121.226952 62.7656303 121.38828 63.15 121.6 63.4143123 121.750128 63.6375596 121.963071 63.8 122.22 63.9333421 122.458192 64.0022761 122.727034 64 123 64.0154107 123.478837 63.7949207 123.934766 63.41 124.22 62.9496472 124.545819 62.393303 124.707793 61.83 124.68 61.4168779 124.681904 61.0079923 124.596719 60.63 124.43 60.2855898 124.287864 59.9877307 124.052348 59.77 123.75 59.5637364 123.458247 59.4583965 123.107114 59.47 122.75L60.3 122.75C60.2871711 123.097267 60.4437835 123.429136 60.72 123.64 61.0449063 123.87424 61.4399924 123.990649 61.84 123.97 62.1938989 123.991861 62.5451967 123.897011 62.84 123.7 63.0680706 123.532244 63.1989623 123.262981 63.19 122.98 63.2044029 122.705515 63.0851883 122.441007 62.87 122.27 62.5045043 122.041545 62.1017158 121.879076 61.68 121.79L61.68 121.79zM69.44 118.33L69.44 122.57C69.4537617 123.105635 69.2520226 123.624392 68.88 124.01 68.4791517 124.398275 67.9478041 124.622938 67.39 124.64L67.17 124.64C66.5764009 124.671299 65.9932845 124.474542 65.54 124.09 65.1253409 123.695402 64.8996296 123.142045 64.92 122.57L64.92 118.32 65.73 118.32 65.73 122.55C65.6813469 122.94569 65.8169436 123.341826 66.0978689 123.624703 66.3787942 123.907579 66.7739824 124.045914 67.17 124 67.5620692 124.026759 67.9482088 123.893234 68.24 123.63 68.5011118 123.344952 68.6347277 122.965772 68.61 122.58L68.61 118.35 69.44 118.33zM71.56 122.13L71.56 124.57 70.74 124.57 70.74 118.33 73 118.33C73.5829899 118.294491 74.1579224 118.480184 74.61 118.85 74.9979079 119.201587 75.2102695 119.706861 75.19 120.23 75.2217346 120.758893 75.0121404 121.273685 74.62 121.63 74.1539251 121.98532 73.5747419 122.15943 72.99 122.12L71.56 122.13zM71.56 121.46L73 121.46C73.3599697 121.481955 73.7155695 121.371719 74 121.15 74.2442405 120.916668 74.3724302 120.587037 74.35 120.25 74.3641682 119.917233 74.2370446 119.593976 74 119.36 73.7265128 119.114927 73.3666246 118.988966 73 119.01L71.56 119.01 71.56 121.46zM77.1 122.13L77.1 124.57 76.28 124.57 76.28 118.33 78.58 118.33C79.1629899 118.294491 79.7379224 118.480184 80.19 118.85 80.5779079 119.201587 80.7902695 119.706861 80.77 120.23 80.8017346 120.758893 80.5921404 121.273685 80.2 121.63 79.7339251 121.98532 79.1547419 122.15943 78.57 122.12L77.1 122.13zM77.1 121.46L78.58 121.46C78.9399697 121.481955 79.2955695 121.371719 79.58 121.15 79.8242405 120.916668 79.9524302 120.587037 79.93 120.25 79.9441682 119.917233 79.8170446 119.593976 79.58 119.36 79.3065128 119.114927 78.9466246 118.988966 78.58 119.01L77.1 119.01 77.1 121.46zM86.62 121.66C86.6314113 122.209292 86.525735 122.754718 86.31 123.26 86.1224419 123.670218 85.8203194 124.017485 85.44 124.26 84.8543048 124.644951 84.1300434 124.755862 83.4559904 124.563824 82.7819374 124.371786 82.2248756 123.895826 81.93 123.26 81.713087 122.772365 81.603937 122.243669 81.61 121.71L81.61 121.26C81.5981631 120.713906 81.7038858 120.171651 81.92 119.67 82.2870217 118.790089 83.156913 118.22605 84.11 118.25 84.5753985 118.241095 85.0335621 118.366049 85.43 118.61 85.8215162 118.86437 86.1279871 119.230046 86.31 119.66 86.5251501 120.165461 86.6308018 120.71076 86.62 121.26L86.62 121.66zM85.8 121.26C85.8364586 120.659712 85.6786738 120.063636 85.35 119.56 85.0575501 119.167485 84.5889096 118.946287 84.1 118.97 83.6176785 118.951252 83.1572636 119.172102 82.87 119.56 82.5442718 120.046706 82.3830579 120.624974 82.41 121.21L82.41 121.67C82.3757104 122.266931 82.5334054 122.859163 82.86 123.36 83.1596355 123.739447 83.6165112 123.960817 84.1 123.960817 84.5834888 123.960817 85.0403645 123.739447 85.34 123.36 85.6637533 122.865342 85.8213847 122.280354 85.79 121.69L85.8 121.26zM90.14 122.05L88.68 122.05 88.68 124.58 87.85 124.58 87.85 118.34 89.92 118.34C90.4998333 118.302845 91.0739997 118.472969 91.54 118.82 91.9346091 119.174585 92.1447097 119.690621 92.11 120.22 92.1129097 120.578961 92.0007643 120.929415 91.79 121.22 91.5675891 121.519113 91.2612837 121.745361 90.91 121.87L92.38 124.52 92.38 124.57 91.5 124.57 90.14 122.05zM88.67 121.38L89.93 121.38C90.2918505 121.403991 90.6493008 121.289607 90.93 121.06 91.1711393 120.844806 91.3032292 120.532927 91.29 120.21 91.3108094 119.876153 91.1826421 119.550242 90.94 119.32 90.6564524 119.096596 90.3001946 118.986156 89.94 119.01L88.68 119.01 88.67 121.38z"/>
    <polygon fill="#757575" fill-rule="nonzero" points="97.23 119 95.23 119 95.23 124.57 94.4 124.57 94.4 119 92.4 119 92.4 118.33 97.23 118.33"/>
    <polygon fill="#757575" fill-rule="nonzero" points="103.6 121.82 101 121.82 101 124.58 100.18 124.58 100.18 118.34 104 118.34 104 119 101 119 101 121.14 103.62 121.14"/>
    <path fill="#757575" fill-rule="nonzero" d="M109.81 121.66C109.821411 122.209292 109.715735 122.754718 109.5 123.26 109.312442 123.670218 109.010319 124.017485 108.63 124.26 108.044305 124.644951 107.320043 124.755862 106.64599 124.563824 105.971937 124.371786 105.414876 123.895826 105.12 123.26 104.903087 122.772365 104.793937 122.243669 104.8 121.71L104.8 121.26C104.788163 120.713906 104.893886 120.171651 105.11 119.67 105.477022 118.790089 106.346913 118.22605 107.3 118.25 107.765398 118.241095 108.223562 118.366049 108.62 118.61 109.011516 118.86437 109.317987 119.230046 109.5 119.66 109.71515 120.165461 109.820802 120.71076 109.81 121.26L109.81 121.66zM108.99 121.26C109.026459 120.659712 108.868674 120.063636 108.54 119.56 108.24755 119.167485 107.77891 118.946287 107.29 118.97 106.807679 118.951252 106.347264 119.172102 106.06 119.56 105.734272 120.046706 105.573058 120.624974 105.6 121.21L105.6 121.67C105.56571 122.266931 105.723405 122.859163 106.05 123.36 106.349636 123.739447 106.806511 123.960817 107.29 123.960817 107.773489 123.960817 108.230364 123.739447 108.53 123.36 108.853753 122.865342 109.011385 122.280354 108.98 121.69L108.99 121.26zM113.34 122.05L111.87 122.05 111.87 124.58 111 124.58 111 118.34 113.07 118.34C113.649833 118.302845 114.224 118.472969 114.69 118.82 115.084609 119.174585 115.29471 119.690621 115.26 120.22 115.26291 120.578961 115.150764 120.929415 114.94 121.22 114.717589 121.519113 114.411284 121.745361 114.06 121.87L115.53 124.52 115.53 124.57 114.65 124.57 113.34 122.05zM111.87 121.38L113.13 121.38C113.491851 121.403991 113.849301 121.289607 114.13 121.06 114.371139 120.844806 114.503229 120.532927 114.49 120.21 114.510809 119.876153 114.382642 119.550242 114.14 119.32 113.856452 119.096596 113.500195 118.986156 113.14 119.01L111.88 119.01 111.87 121.38zM122.07 122.94L119.45 122.94 118.86 124.57 118 124.57 120.38 118.33 121.1 118.33 123.49 124.57 122.65 124.57 122.07 122.94zM119.7 122.27L121.82 122.27 120.76 119.35 119.7 122.27z"/>
    <polygon fill="#757575" fill-rule="nonzero" points="125.4 122.61 125.52 123.43 125.7 122.69 126.94 118.33 127.63 118.33 128.84 122.69 129.01 123.44 129.14 122.6 130.14 118.33 130.97 118.33 129.46 124.57 128.71 124.57 127.39 120 127.29 119.52 127.19 120 125.86 124.55 125.11 124.55 123.6 118.31 124.42 118.31"/>
    <path fill="#757575" fill-rule="nonzero" d="M133.69,121.79 C133.127089,121.658169 132.600868,121.401892 132.15,121.04 C131.836429,120.761467 131.660945,120.359316 131.67,119.94 C131.662891,119.462962 131.881645,119.010625 132.26,118.72 C132.69755,118.384796 133.239385,118.214809 133.79,118.24 C134.187546,118.232896 134.581283,118.318491 134.94,118.49 C135.259485,118.642418 135.529746,118.881495 135.72,119.18 C135.911786,119.477585 136.009368,119.826092 136,120.18 L135.17,120.18 C135.18686,119.844804 135.055159,119.519211 134.81,119.29 C134.527424,119.063869 134.17136,118.949929 133.81,118.97 C133.471934,118.950182 133.13711,119.045342 132.86,119.24 C132.630871,119.419383 132.503908,119.69945 132.52,119.99 C132.518424,120.244954 132.63698,120.485771 132.84,120.64 C133.172876,120.868369 133.54619,121.03127 133.94,121.12 C134.36559,121.226952 134.77563,121.38828 135.16,121.6 C135.424312,121.750128 135.64756,121.963071 135.81,122.22 C135.955541,122.471869 136.028245,122.759221 136.02,123.05 C136.035411,123.528837 135.814921,123.984766 135.43,124.27 C134.969647,124.595819 134.413303,124.757793 133.85,124.73 C133.436878,124.731904 133.027992,124.646719 132.65,124.48 C132.30559,124.337864 132.007731,124.102348 131.79,123.8 C131.583736,123.508247 131.478397,123.157114 131.49,122.8 L132.32,122.8 C132.307171,123.147267 132.463784,123.479136 132.74,123.69 C133.064906,123.92424 133.459992,124.040649 133.86,124.02 C134.213899,124.041861 134.565197,123.947011 134.86,123.75 C135.088071,123.582244 135.218962,123.312981 135.21,123.03 C135.224403,122.755515 135.105188,122.491007 134.89,122.32 C134.524971,122.072889 134.118514,121.89337 133.69,121.79 L133.69,121.79 Z"/>
    <rect width="493.8" height="10.03" x="2.58" y="158.98" fill="#EB008B" fill-rule="nonzero" opacity=".5"/>
    <polygon fill="#FFF" fill-rule="nonzero" points="11.27 161.41 11.27 161.41 10.14 162.02 9.97 161.35 11.4 160.59 12.15 160.59 12.15 167.12 11.3 167.12"/>
    <path fill="#FFF" fill-rule="nonzero" d="M18.22 161.21C18.0005807 161.187394 17.7794193 161.187394 17.56 161.21 16.3628447 161.375259 15.4291409 162.329529 15.29 163.53L15.29 163.53C15.8373855 162.867446 16.7468523 162.62867 17.5491079 162.936881 18.3513635 163.245092 18.8670223 164.031375 18.83 164.89 18.8629115 165.486935 18.6492289 166.071191 18.2389591 166.50604 17.8286892 166.940888 17.2578386 167.188164 16.66 167.19 15.26 167.19 14.35 166.11 14.35 164.41 14.3121405 163.322881 14.7078432 162.265276 15.45 161.47 16.0152248 160.912309 16.7511022 160.560214 17.54 160.47 17.7517454 160.43703 17.9657035 160.420315 18.18 160.42L18.22 161.21zM18 165C18.0496782 164.615358 17.9289861 164.228193 17.6695371 163.939917 17.4100881 163.65164 17.0377315 163.490973 16.65 163.5 16.1144666 163.513439 15.6299737 163.821054 15.39 164.3 15.3217441 164.418456 15.2871647 164.553316 15.29 164.69 15.29 165.76 15.8 166.56 16.73 166.56 17.46 166.54 18 165.91 18 165zM19.93 163.84C19.93 163.22 19.93 162.72 19.93 162.25L20.72 162.25 20.72 163.08 20.72 163.08C21.078302 162.470686 21.7438216 162.109074 22.45 162.14 23.0587559 162.174072 23.6260725 162.459248 24.0165849 162.927484 24.4070973 163.39572 24.5857806 164.005019 24.51 164.61 24.51 166.36 23.45 167.22 22.3 167.22 21.7009427 167.249003 21.1309298 166.960196 20.8 166.46L20.8 166.46 20.8 169.1 19.93 169.1 19.93 163.84zM20.8 165.13C20.789178 165.249756 20.789178 165.370244 20.8 165.49 20.9638964 166.087302 21.5106771 166.498415 22.13 166.49 23.06 166.49 23.61 165.73 23.61 164.61 23.61 163.49 23.1 162.8 22.16 162.8 21.5207754 162.819668 20.9748384 163.26709 20.83 163.89 20.794706 164.006945 20.7745418 164.12793 20.77 164.25L20.8 165.13zM25.91 162.25L26.6 163.25C26.78 163.52 26.93 163.77 27.09 164.04L27.09 164.04C27.25 163.75 27.41 163.5 27.57 163.24L28.25 162.24 29.25 162.24 27.59 164.59 29.3 167.1 28.3 167.1 27.58 166C27.39 165.72 27.23 165.45 27.06 165.16L27.06 165.16C26.9 165.45 26.73 165.71 26.55 166L25.85 167.09 24.85 167.09 26.58 164.61 24.93 162.23 25.91 162.25z"/>
    <polygon fill="#FFF" fill-rule="nonzero" points="31.53 167.51 34.33 160.23 35 160.23 32.19 167.51"/>
    <polygon fill="#FFF" fill-rule="nonzero" points="39.48 161.41 39.48 161.41 38.35 162.02 38.18 161.35 39.61 160.59 40.36 160.59 40.36 167.12 39.51 167.12"/>
    <path fill="#FFF" fill-rule="nonzero" d="M43.48 164.84C43.4406305 165.295599 43.6031481 165.745528 43.9245751 166.070804 44.2460021 166.396081 44.693965 166.563943 45.15 166.53 45.6127876 166.545321 46.0733875 166.460025 46.5 166.28L46.65 166.91C46.1371756 167.123047 45.5851075 167.225282 45.03 167.21 44.3739415 167.250241 43.732868 167.00287 43.2738897 166.532369 42.8149114 166.061868 42.583508 165.414859 42.64 164.76 42.567042 164.104121 42.7720328 163.447655 43.2052494 162.949835 43.6384661 162.452016 44.2603298 162.158325 44.92 162.14 45.4981401 162.153211 46.0441039 162.408821 46.424507 162.844383 46.8049102 163.279944 46.9847174 163.855342 46.92 164.43 46.9282966 164.566541 46.9282966 164.703459 46.92 164.84L43.48 164.84zM46.07 164.21C46.1216426 163.852797 46.017628 163.490598 45.7843254 163.215224 45.5510228 162.939851 45.2108334 162.777744 44.85 162.77 44.0906015 162.822087 43.498643 163.448866 43.49 164.21L46.07 164.21zM48 163.57C48 163.07 48 162.66 48 162.26L48.77 162.26 48.77 163.04 48.77 163.04C49.0696921 162.476939 49.662399 162.132162 50.3 162.15 50.9290442 162.146129 51.4878003 162.551025 51.68 163.15L51.68 163.15C51.8139794 162.904559 51.9979379 162.689941 52.22 162.52 52.5263524 162.285832 52.9046696 162.165619 53.29 162.18 53.93 162.18 54.89 162.6 54.89 164.29L54.89 167.15 54.03 167.15 54.03 164.4C54.03 163.47 53.69 162.9 52.98 162.9 52.5142276 162.936558 52.1179093 163.253613 51.98 163.7 51.9342939 163.842222 51.9106858 163.990616 51.91 164.14L51.91 167.14 51.05 167.14 51.05 164.2C51.05 163.43 50.71 162.86 50.05 162.86 49.3840816 162.941298 48.8850557 163.509156 48.89 164.18L48.89 167.11 48 167.11 48 163.57z"/>
    <rect width="493.8" height="15.05" x="2.52" y="169.57" fill="#EB008B" fill-rule="nonzero" opacity=".5"/>
    <path fill="#FFF" fill-rule="nonzero" d="M9.35 177.67L9.35 177.13 10.04 176.46C11.71 174.87 12.46 174.03 12.47 173.05 12.5090999 172.698184 12.3854197 172.347768 12.1341442 172.098441 11.8828687 171.849113 11.5315016 171.728163 11.18 171.77 10.6670177 171.787135 10.1758212 171.981494 9.79 172.32L9.51 171.7C10.0298465 171.269259 10.6849009 171.035564 11.36 171.04 11.8856884 170.993761 12.4059267 171.175459 12.7885221 171.538924 13.1711174 171.90239 13.3792379 172.412633 13.36 172.94 13.36 174.15 12.49 175.12 11.11 176.44L10.59 176.92 10.59 176.92 13.52 176.92 13.52 177.65 9.35 177.67zM17.23 177.67L17.23 175.89 14.23 175.89 14.23 175.31 17.14 171.14 18.14 171.14 18.14 175.2 19 175.2 19 175.89 18.09 175.89 18.09 177.67 17.23 177.67zM17.23 175.2L17.23 173C17.23 172.66 17.23 172.326667 17.23 172L17.23 172C17.03 172.38 16.87 172.66 16.69 173L15.09 175.22 15.09 175.22 17.23 175.2zM19.93 174.39C19.93 173.77 19.93 173.27 19.93 172.8L20.72 172.8 20.72 173.63 20.72 173.63C21.078302 173.020686 21.7438216 172.659074 22.45 172.69 23.0587559 172.724072 23.6260725 173.009248 24.0165849 173.477484 24.4070973 173.94572 24.5857806 174.555019 24.51 175.16 24.51 176.91 23.45 177.77 22.3 177.77 21.7009427 177.799003 21.1309298 177.510196 20.8 177.01L20.8 177.01 20.8 179.65 19.93 179.65 19.93 174.39zM20.8 175.68C20.789178 175.799756 20.789178 175.920244 20.8 176.04 20.9638964 176.637302 21.5106771 177.048415 22.13 177.04 23.06 177.04 23.61 176.28 23.61 175.16 23.61 174.04 23.1 173.35 22.16 173.35 21.5207754 173.369668 20.9748384 173.81709 20.83 174.44 20.794706 174.556945 20.7745418 174.67793 20.77 174.8L20.8 175.68zM25.91 172.81L26.6 173.81C26.78 174.08 26.93 174.33 27.09 174.6L27.09 174.6C27.25 174.31 27.41 174.06 27.57 173.8L28.25 172.8 29.25 172.8 27.59 175.15 29.3 177.66 28.3 177.66 27.59 176.57C27.4 176.29 27.24 176.02 27.07 175.73L27.07 175.73C26.91 176.02 26.74 176.28 26.56 176.57L25.86 177.66 24.86 177.66 26.59 175.18 24.94 172.8 25.91 172.81z"/>
    <polygon fill="#FFF" fill-rule="nonzero" points="31.53 178.07 34.33 170.79 35 170.79 32.19 178.07"/>
    <polygon fill="#FFF" fill-rule="nonzero" points="39.48 172 39.48 172 38.35 172.61 38.18 171.94 39.61 171.18 40.36 171.18 40.36 177.71 39.51 177.71"/>
    <path fill="#FFF" fill-rule="nonzero" d="M42.78 177.14C42.7687543 176.974961 42.8273099 176.812782 42.9413937 176.692994 43.0554775 176.573206 43.2146092 176.506814 43.38 176.51 43.6371875 176.497739 43.8759526 176.643217 43.9829863 176.877396 44.0900201 177.111574 44.0437786 177.387317 43.8662065 177.573768 43.6886344 177.760219 43.4154733 177.819848 43.1763553 177.724358 42.9372373 177.628868 42.7802921 177.397479 42.78 177.14L42.78 177.14zM48.68 171.88L46.19 171.88 45.94 173.56C46.1164127 173.546605 46.2935873 173.546605 46.47 173.56 46.9628225 173.548656 47.4496897 173.669509 47.88 173.91 48.4774492 174.254315 48.8353825 174.900904 48.81 175.59 48.8034784 176.214814 48.5385644 176.809045 48.0781914 177.231527 47.6178184 177.654009 47.0030748 177.867036 46.38 177.82 45.8107026 177.834552 45.2478888 177.696438 44.75 177.42L44.97 176.75C45.3992766 176.985041 45.880591 177.108807 46.37 177.11 46.7671304 177.140449 47.1591355 177.005053 47.4528198 176.736 47.746504 176.466948 47.9156337 176.088272 47.92 175.69 47.92 174.85 47.35 174.24 46.04 174.24 45.7387675 174.243074 45.4380852 174.26646 45.14 174.31L45.56 171.18 48.68 171.18 48.68 171.88zM50.7 175.4C50.6606305 175.855599 50.8231481 176.305528 51.1445751 176.630804 51.4660021 176.956081 51.913965 177.123943 52.37 177.09 52.8327876 177.105321 53.2933875 177.020025 53.72 176.84L53.87 177.47C53.3571756 177.683047 52.8051075 177.785282 52.25 177.77 51.5939415 177.810241 50.952868 177.56287 50.4938897 177.092369 50.0349114 176.621868 49.803508 175.974859 49.86 175.32 49.787042 174.664121 49.9920328 174.007655 50.4252494 173.509835 50.8584661 173.012016 51.4803298 172.718325 52.14 172.7 52.7181401 172.713211 53.2641039 172.968821 53.644507 173.404383 54.0249102 173.839944 54.2047174 174.415342 54.14 174.99 54.1482966 175.126541 54.1482966 175.263459 54.14 175.4L50.7 175.4zM53.29 174.77C53.3416426 174.412797 53.237628 174.050598 53.0043254 173.775224 52.7710228 173.499851 52.4308334 173.337744 52.07 173.33 51.3106015 173.382087 50.718643 174.008866 50.71 174.77L53.29 174.77zM55.24 174.12C55.24 173.62 55.24 173.21 55.24 172.81L56 172.81 56 173.59 56 173.59C56.2996921 173.026939 56.892399 172.682162 57.53 172.7 58.1590442 172.696129 58.7178003 173.101025 58.91 173.7L58.91 173.7C59.0439794 173.454559 59.2279379 173.239941 59.45 173.07 59.7563524 172.835832 60.1346696 172.715619 60.52 172.73 61.16 172.73 62.12 173.15 62.12 174.84L62.12 177.7 61.26 177.7 61.26 174.95C61.26 174.02 60.92 173.45 60.21 173.45 59.7442276 173.486558 59.3479093 173.803613 59.21 174.25 59.1642939 174.392222 59.1406858 174.540616 59.14 174.69L59.14 177.69 58.28 177.69 58.28 174.78C58.28 174.01 57.94 173.44 57.28 173.44 56.6140816 173.521298 56.1150557 174.089156 56.12 174.76L56.12 177.69 55.26 177.69 55.24 174.12z"/>
    <rect width="493.8" height="10.03" x="2.52" y="107.79" fill="#EB008B" fill-rule="nonzero" opacity=".5"/>
    <polygon fill="#FFF" fill-rule="nonzero" points="11.27 110 11.27 110 10.14 110.61 9.97 109.94 11.4 109.18 12.15 109.18 12.15 115.71 11.3 115.71"/>
    <path fill="#FFF" fill-rule="nonzero" d="M18.22 109.8C18.0005807 109.777394 17.7794193 109.777394 17.56 109.8 16.3628447 109.965259 15.4291409 110.919529 15.29 112.12L15.29 112.12C15.8373855 111.457446 16.7468523 111.21867 17.5491079 111.526881 18.3513635 111.835092 18.8670223 112.621375 18.83 113.48 18.8629115 114.076935 18.6492289 114.661191 18.2389591 115.09604 17.8286892 115.530888 17.2578386 115.778164 16.66 115.78 15.26 115.78 14.35 114.7 14.35 113 14.3121405 111.912881 14.7078432 110.855276 15.45 110.06 16.0152248 109.502309 16.7511022 109.150214 17.54 109.06 17.7517454 109.02703 17.9657035 109.010315 18.18 109.01L18.22 109.8zM18 113.57C18.0496782 113.185358 17.9289861 112.798193 17.6695371 112.509917 17.4100881 112.22164 17.0377315 112.060973 16.65 112.07 16.1144666 112.083439 15.6299737 112.391054 15.39 112.87 15.3217441 112.988456 15.2871647 113.123316 15.29 113.26 15.29 114.33 15.8 115.13 16.73 115.13 17.46 115.13 18 114.5 18 113.57zM19.93 112.43C19.93 111.81 19.93 111.31 19.93 110.84L20.72 110.84 20.72 111.67 20.72 111.67C21.078302 111.060686 21.7438216 110.699074 22.45 110.73 23.0587559 110.764072 23.6260725 111.049248 24.0165849 111.517484 24.4070973 111.98572 24.5857806 112.595019 24.51 113.2 24.51 114.95 23.45 115.81 22.3 115.81 21.7009427 115.839003 21.1309298 115.550196 20.8 115.05L20.8 115.05 20.8 117.69 19.93 117.69 19.93 112.43zM20.8 113.72C20.789178 113.839756 20.789178 113.960244 20.8 114.08 20.9638964 114.677302 21.5106771 115.088415 22.13 115.08 23.06 115.08 23.61 114.32 23.61 113.2 23.61 112.08 23.1 111.39 22.16 111.39 21.5207754 111.409668 20.9748384 111.85709 20.83 112.48 20.794706 112.596945 20.7745418 112.71793 20.77 112.84L20.8 113.72zM25.91 110.85L26.6 111.85C26.78 112.12 26.93 112.37 27.09 112.64L27.09 112.64C27.25 112.35 27.41 112.1 27.57 111.84L28.25 110.84 29.25 110.84 27.59 113.19 29.3 115.7 28.3 115.7 27.59 114.61C27.4 114.33 27.24 114.06 27.07 113.77L27.07 113.77C26.91 114.06 26.74 114.32 26.56 114.61L25.86 115.7 24.86 115.7 26.59 113.22 24.94 110.84 25.91 110.85z"/>
    <polygon fill="#FFF" fill-rule="nonzero" points="31.53 116.11 34.33 108.83 35 108.83 32.19 116.11"/>
    <polygon fill="#FFF" fill-rule="nonzero" points="39.48 110 39.48 110 38.35 110.61 38.18 109.94 39.61 109.18 40.36 109.18 40.36 115.71 39.51 115.71"/>
    <path fill="#FFF" fill-rule="nonzero" d="M43.48 113.44C43.4406305 113.895599 43.6031481 114.345528 43.9245751 114.670804 44.2460021 114.996081 44.693965 115.163943 45.15 115.13 45.6127876 115.145321 46.0733875 115.060025 46.5 114.88L46.65 115.51C46.1371756 115.723047 45.5851075 115.825282 45.03 115.81 44.3739415 115.850241 43.732868 115.60287 43.2738897 115.132369 42.8149114 114.661868 42.583508 114.014859 42.64 113.36 42.567042 112.704121 42.7720328 112.047655 43.2052494 111.549835 43.6384661 111.052016 44.2603298 110.758325 44.92 110.74 45.4981401 110.753211 46.0441039 111.008821 46.424507 111.444383 46.8049102 111.879944 46.9847174 112.455342 46.92 113.03 46.9282966 113.166541 46.9282966 113.303459 46.92 113.44L43.48 113.44zM46.07 112.81C46.1216426 112.452797 46.017628 112.090598 45.7843254 111.815224 45.5510228 111.539851 45.2108334 111.377744 44.85 111.37 44.0906015 111.422087 43.498643 112.048866 43.49 112.81L46.07 112.81zM48 112.16C48 111.66 48 111.25 48 110.85L48.77 110.85 48.77 111.63 48.77 111.63C49.0696921 111.066939 49.662399 110.722162 50.3 110.74 50.9290442 110.736129 51.4878003 111.141025 51.68 111.74L51.68 111.74C51.8139794 111.494559 51.9979379 111.279941 52.22 111.11 52.5263524 110.875832 52.9046696 110.755619 53.29 110.77 53.93 110.77 54.89 111.19 54.89 112.88L54.89 115.74 54.03 115.74 54.03 113C54.03 112.07 53.69 111.5 52.98 111.5 52.5142276 111.536558 52.1179093 111.853613 51.98 112.3 51.9342939 112.442222 51.9106858 112.590616 51.91 112.74L51.91 115.74 51.05 115.74 51.05 112.83C51.05 112.06 50.71 111.49 50.05 111.49 49.3840816 111.571298 48.8850557 112.139156 48.89 112.81L48.89 115.74 48 115.74 48 112.16z"/>
    <rect width="493.8" height="15.05" x="2.52" y="91.71" fill="#EB008B" fill-rule="nonzero" opacity=".5"/>
    <rect width="148.62" height="3.97" x="338.35" y="155.01" fill="#EB008B" fill-rule="nonzero" opacity=".5"/>
    <path fill="#FFF" fill-rule="nonzero" d="M9.35 99.62L9.35 99.08 10.04 98.41C11.71 96.82 12.47 96 12.47 95 12.5090999 94.6481835 12.3854197 94.2977682 12.1341442 94.0484406 11.8828687 93.799113 11.5315016 93.6781635 11.18 93.72 10.6670177 93.7371355 10.1758212 93.9314938 9.79 94.27L9.51 93.65C10.0312302 93.2228573 10.686146 92.9927517 11.36 93 11.8856884 92.9537607 12.4059267 93.1354586 12.7885221 93.4989242 13.1711174 93.8623897 13.3792379 94.3726327 13.36 94.9 13.36 96.1 12.49 97.08 11.11 98.4L10.59 98.88 10.59 98.88 13.52 98.88 13.52 99.61 9.35 99.62zM17.23 99.62L17.23 97.85 14.23 97.85 14.23 97.27 17.14 93.1 18.14 93.1 18.14 97.16 19 97.16 19 97.85 18.09 97.85 18.09 99.63 17.23 99.62zM17.23 97.15L17.23 95C17.23 94.66 17.23 94.3266667 17.23 94L17.23 94C17.03 94.38 16.87 94.66 16.69 95L15.09 97.22 15.09 97.22 17.23 97.15zM19.93 96.35C19.93 95.73 19.93 95.23 19.93 94.76L20.72 94.76 20.72 95.59 20.72 95.59C21.078302 94.9806856 21.7438216 94.6190738 22.45 94.65 23.0587559 94.6840719 23.6260725 94.9692481 24.0165849 95.4374838 24.4070973 95.9057196 24.5857806 96.515019 24.51 97.12 24.51 98.87 23.45 99.73 22.3 99.73 21.7009427 99.7590028 21.1309298 99.4701963 20.8 98.97L20.8 98.97 20.8 101.61 19.93 101.61 19.93 96.35zM20.8 97.64C20.789178 97.759756 20.789178 97.880244 20.8 98 20.9638964 98.597302 21.5106771 99.0084153 22.13 99 23.06 99 23.61 98.24 23.61 97.12 23.61 96 23.1 95.31 22.16 95.31 21.5207754 95.329668 20.9748384 95.77709 20.83 96.4 20.794706 96.5169448 20.7745418 96.6379299 20.77 96.76L20.8 97.64zM25.91 94.77L26.6 95.77C26.78 96.04 26.93 96.29 27.09 96.56L27.09 96.56C27.25 96.27 27.41 96.02 27.57 95.76L28.25 94.76 29.25 94.76 27.59 97.11 29.3 99.62 28.3 99.62 27.59 98.53C27.4 98.25 27.24 97.98 27.07 97.69L27.07 97.69C26.91 97.98 26.74 98.24 26.56 98.53L25.86 99.62 24.86 99.62 26.59 97.14 24.94 94.76 25.91 94.77z"/>
    <polygon fill="#FFF" fill-rule="nonzero" points="31.53 100 34.33 92.72 35 92.72 32.2 100"/>
    <polygon fill="#FFF" fill-rule="nonzero" points="39.48 93.92 39.48 93.92 38.35 94.53 38.18 93.86 39.61 93.1 40.36 93.1 40.36 99.63 39.51 99.63"/>
    <path fill="#FFF" fill-rule="nonzero" d="M42.78 99.1C42.7687543 98.9349612 42.8273099 98.772782 42.9413937 98.652994 43.0554775 98.533206 43.2146092 98.4668135 43.38 98.47 43.6371875 98.4577392 43.8759526 98.6032173 43.9829863 98.8373957 44.0900201 99.0715741 44.0437786 99.3473174 43.8662065 99.5337681 43.6886344 99.7202188 43.4154733 99.7798482 43.1763553 99.6843583 42.9372373 99.5888684 42.7802921 99.3574794 42.78 99.1L42.78 99.1zM48.68 93.84L46.19 93.84 45.94 95.52C46.1164127 95.5066046 46.2935873 95.5066046 46.47 95.52 46.9628225 95.5086559 47.4496897 95.6295094 47.88 95.87 48.4774492 96.2143145 48.8353825 96.8609037 48.81 97.55 48.8034784 98.1748136 48.5385644 98.7690447 48.0781914 99.191527 47.6178184 99.6140092 47.0030748 99.8270358 46.38 99.78 45.8107026 99.7945519 45.2478888 99.656438 44.75 99.38L44.97 98.71C45.3992766 98.9450407 45.880591 99.0688073 46.37 99.07 46.7671304 99.1004493 47.1591355 98.9650531 47.4528198 98.6960004 47.746504 98.4269478 47.9156337 98.0482721 47.92 97.65 47.92 96.81 47.35 96.2 46.04 96.2 45.7387675 96.2030737 45.4380852 96.2264601 45.14 96.27L45.56 93.14 48.68 93.14 48.68 93.84zM50.7 97.36C50.6758703 97.8072338 50.8451312 98.2432648 51.1646905 98.5570835 51.4842498 98.8709022 51.923277 99.0322321 52.37 99 52.8327876 99.0153209 53.2933875 98.9300246 53.72 98.75L53.87 99.38C53.3571756 99.5930469 52.8051075 99.6952817 52.25 99.68 51.5939415 99.7202409 50.952868 99.4728696 50.4938897 99.0023688 50.0349114 98.5318681 49.803508 97.8848593 49.86 97.23 49.787042 96.5741207 49.9920328 95.9176545 50.4252494 95.4198354 50.8584661 94.9220162 51.4803298 94.628325 52.14 94.61 52.7181401 94.6232107 53.2641039 94.8788209 53.644507 95.3143825 54.0249102 95.7499441 54.2047174 96.3253417 54.14 96.9 54.1482966 97.0365408 54.1482966 97.1734592 54.14 97.31L50.7 97.36zM53.29 96.73C53.3416426 96.3727973 53.237628 96.0105979 53.0043254 95.7352243 52.7710228 95.4598508 52.4308334 95.2977439 52.07 95.29 51.3106015 95.3420867 50.718643 95.9688664 50.71 96.73L53.29 96.73zM55.24 96.08C55.24 95.58 55.24 95.17 55.24 94.77L56 94.77 56 95.55 56 95.55C56.2996921 94.9869389 56.892399 94.6421616 57.53 94.66 58.1590442 94.6561294 58.7178003 95.0610252 58.91 95.66L58.91 95.66C59.0439794 95.4145594 59.2279379 95.1999412 59.45 95.03 59.7563524 94.7958322 60.1346696 94.6756193 60.52 94.69 61.16 94.69 62.12 95.11 62.12 96.8L62.12 99.66 61.26 99.66 61.26 96.87C61.26 95.94 60.92 95.37 60.21 95.37 59.7442276 95.4065582 59.3479093 95.7236128 59.21 96.17 59.1642939 96.3122218 59.1406858 96.4606159 59.14 96.61L59.14 99.61 58.28 99.61 58.28 96.71C58.28 95.94 57.94 95.37 57.28 95.37 56.6140816 95.4512985 56.1150557 96.0191555 56.12 96.69L56.12 99.62 55.26 99.62 55.24 96.08z"/>
    <rect width="11.44" height="84.38" x=".41" y="106.79" fill="#00C3FF" fill-rule="nonzero" opacity=".5"/>
    <path fill="#FFF" fill-rule="nonzero" d="M4.77 113.28L5.31 113.28 6 114C7.59 115.67 8.43 116.42 9.41 116.43 9.76017967 116.465808 10.1076754 116.340671 10.3546289 116.089828 10.6015824 115.838986 10.721275 115.489577 10.68 115.14 10.6628645 114.627018 10.4685062 114.135821 10.13 113.75L10.75 113.47C11.1815002 113.989414 11.4152975 114.644755 11.41 115.32 11.4562393 115.845688 11.2745414 116.365927 10.9110758 116.748522 10.5476103 117.131117 10.0373673 117.339238 9.51 117.32 8.3 117.32 7.33 116.45 6.01 115.07L5.53 114.55 5.53 114.55 5.53 117.48 4.77 117.48 4.77 113.28zM8.1 122.76C5.88 122.76 4.66 121.94 4.66 120.49 4.66 119.22 5.85 118.35 8.01 118.33 10.17 118.31 11.4 119.27 11.4 120.6 11.4 121.93 10.18 122.76 8.1 122.76zM8 119.22C6.3 119.22 5.34 119.74 5.34 120.55 5.34 121.36 6.39 121.89 8.06 121.89 9.73 121.89 10.72 121.48 10.72 120.56 10.72 119.64 9.78 119.22 8 119.22zM8 123.85C8.62 123.85 9.12 123.85 9.59 123.85L9.59 124.64 8.76 124.64 8.76 124.64C9.36931443 124.998302 9.73092622 125.663822 9.7 126.37 9.66592807 126.978756 9.38075193 127.546073 8.91251617 127.936585 8.44428042 128.327097 7.83498097 128.505781 7.23 128.43 5.48 128.43 4.62 127.37 4.62 126.22 4.59099718 125.620943 4.87980373 125.05093 5.38 124.72L5.38 124.72 2.78 124.72 2.78 123.85 8 123.85zM6.7 124.72C6.58024399 124.709178 6.45975601 124.709178 6.34 124.72 5.74269803 124.883896 5.3315847 125.430677 5.34 126.05 5.34 126.98 6.1 127.53 7.22 127.53 8.34 127.53 9 127.06 9 126.12 8.98481049 125.47701 8.53642807 124.925788 7.91 124.78 7.793006 124.744918 7.6720481 124.724758 7.55 124.72L6.7 124.72zM9.63 129.84L8.63 130.53C8.36 130.71 8.11 130.86 7.84 131.02L7.84 131.02C8.13 131.18 8.38 131.34 8.64 131.5L9.64 132.18 9.64 133.18 7.29 131.52 4.78 133.23 4.78 132.23 5.87 131.52C6.15 131.33 6.42 131.17 6.71 131L6.71 131C6.42 130.84 6.16 130.67 5.87 130.49L4.78 129.79 4.78 128.79 7.26 130.52 9.64 128.87 9.63 129.84z"/>
    <polygon fill="#FFF" fill-rule="nonzero" points="4.37 135.45 11.65 138.25 11.65 138.93 4.37 136.12"/>
    <polygon fill="#FFF" fill-rule="nonzero" points="10.47 143.4 10.47 143.4 9.86 142.27 10.53 142.1 11.29 143.53 11.29 144.28 4.77 144.28 4.77 143.43"/>
    <path fill="#FFF" fill-rule="nonzero" d="M5.29 146.7C5.4550388 146.688754 5.61721804 146.74731 5.73700602 146.861394 5.856794 146.975477 5.92318645 147.134609 5.92 147.3 5.92037659 147.463661 5.8527558 147.620126 5.73329939 147.731998 5.61384298 147.84387 5.45328511 147.901096 5.29 147.89 5.05900977 147.920009 4.83152517 147.813615 4.70648329 147.617091 4.58144141 147.420568 4.58144141 147.169432 4.70648329 146.972909 4.83152517 146.776385 5.05900977 146.669991 5.29 146.7L5.29 146.7zM4.77 148.71L5.31 148.71 5.98 149.4C7.57 151.07 8.41 151.82 9.39 151.83 9.74017967 151.865808 10.0876754 151.740671 10.3346289 151.489828 10.5815824 151.238986 10.701275 150.889577 10.66 150.54 10.6428645 150.027018 10.4485062 149.535821 10.11 149.15L10.73 148.87C11.1615002 149.389414 11.3952975 150.044755 11.39 150.72 11.4362393 151.245688 11.2545414 151.765927 10.8910758 152.148522 10.5276103 152.531117 10.0173673 152.739238 9.49 152.72 8.28 152.72 7.31 151.85 5.99 150.47L5.51 149.95 5.51 149.95 5.51 152.88 4.77 152.88 4.77 148.71zM10.55 157.75L10.55 155.26 8.88 155C8.8936696 155.176402 8.8936696 155.353598 8.88 155.53 8.89134413 156.022822 8.77049057 156.50969 8.53 156.94 8.18568548 157.537449 7.53909635 157.895382 6.85 157.87 6.22518644 157.863478 5.63095526 157.598564 5.20847305 157.138191 4.78599083 156.677818 4.57296416 156.063075 4.62 155.44 4.60593478 154.870755 4.74401768 154.308067 5.02 153.81L5.69 154.03C5.45495929 154.459277 5.33119273 154.940591 5.33 155.43 5.29300391 155.837393 5.43102265 156.241295 5.70959412 156.540855 5.98816559 156.840415 6.38099639 157.007358 6.79 157 7.63 157 8.24 156.43 8.24 155.12 8.23686578 154.81877 8.21347969 154.518092 8.17 154.22L11.3 154.64 11.3 157.76 10.55 157.75z"/>
    <rect width="12.54" height="84.38" x="486.97" y="106.79" fill="#00C3FF" fill-rule="nonzero" opacity=".5"/>
    <path fill="#FFF" fill-rule="nonzero" d="M491.33 113.28L491.87 113.28 492.54 113.97C494.13 115.64 494.97 116.39 495.95 116.4 496.30018 116.435808 496.647675 116.310671 496.894629 116.059828 497.141582 115.808986 497.261275 115.459577 497.22 115.11 497.202865 114.597018 497.008506 114.105821 496.67 113.72L497.29 113.44C497.7215 113.959414 497.955297 114.614755 497.95 115.29 497.996239 115.815688 497.814541 116.335927 497.451076 116.718522 497.08761 117.101117 496.577367 117.309238 496.05 117.29 494.84 117.29 493.87 116.42 492.55 115.04L492.07 114.52 492.07 114.52 492.07 117.45 491.34 117.45 491.33 113.28zM494.66 122.76C492.44 122.76 491.22 121.94 491.22 120.49 491.22 119.22 492.41 118.35 494.57 118.33 496.73 118.31 497.96 119.27 497.96 120.6 497.96 121.93 496.74 122.76 494.66 122.76zM494.56 119.22C492.86 119.22 491.9 119.74 491.9 120.55 491.9 121.36 492.95 121.89 494.62 121.89 496.29 121.89 497.28 121.48 497.28 120.56 497.28 119.64 496.34 119.22 494.56 119.22zM494.6 123.85C495.22 123.85 495.72 123.85 496.19 123.85L496.19 124.64 495.36 124.64 495.36 124.64C495.969314 124.998302 496.330926 125.663822 496.3 126.37 496.265928 126.978756 495.980752 127.546073 495.512516 127.936585 495.04428 128.327097 494.434981 128.505781 493.83 128.43 492.08 128.43 491.22 127.37 491.22 126.22 491.190997 125.620943 491.479804 125.05093 491.98 124.72L491.98 124.72 489.34 124.72 489.34 123.85 494.6 123.85zM493.3 124.72C493.180244 124.709178 493.059756 124.709178 492.94 124.72 492.342698 124.883896 491.931585 125.430677 491.94 126.05 491.94 126.98 492.7 127.53 493.82 127.53 494.94 127.53 495.63 127.02 495.63 126.08 495.61481 125.43701 495.166428 124.885788 494.54 124.74 494.423006 124.704918 494.302048 124.684758 494.18 124.68L493.3 124.72zM496.19 129.84L495.19 130.53C494.92 130.71 494.67 130.86 494.4 131.02L494.4 131.02C494.69 131.18 494.94 131.34 495.2 131.5L496.2 132.18 496.2 133.18 493.85 131.52 491.34 133.23 491.34 132.23 492.43 131.52C492.71 131.33 492.98 131.17 493.27 131L493.27 131C492.98 130.84 492.72 130.67 492.43 130.49L491.34 129.79 491.34 128.79 493.82 130.52 496.2 128.87 496.19 129.84z"/>
    <polygon fill="#FFF" fill-rule="nonzero" points="490.93 135.45 498.21 138.25 498.21 138.93 490.93 136.12"/>
    <polygon fill="#FFF" fill-rule="nonzero" points="497 143.4 497 143.4 496.39 142.27 497.06 142.1 497.82 143.53 497.82 144.28 491.29 144.28 491.29 143.43"/>
    <path fill="#FFF" fill-rule="nonzero" d="M491.85 146.7C492.015039 146.688754 492.177218 146.74731 492.297006 146.861394 492.416794 146.975477 492.483186 147.134609 492.48 147.3 492.48 147.647939 492.197939 147.93 491.85 147.93 491.502061 147.93 491.22 147.647939 491.22 147.3 491.216814 147.134609 491.283206 146.975477 491.402994 146.861394 491.522782 146.74731 491.684961 146.688754 491.85 146.7L491.85 146.7zM491.33 148.71L491.87 148.71 492.54 149.4C494.13 151.07 494.97 151.82 495.95 151.83 496.30018 151.865808 496.647675 151.740671 496.894629 151.489828 497.141582 151.238986 497.261275 150.889577 497.22 150.54 497.202865 150.027018 497.008506 149.535821 496.67 149.15L497.29 148.87C497.7215 149.389414 497.955297 150.044755 497.95 150.72 497.996239 151.245688 497.814541 151.765927 497.451076 152.148522 497.08761 152.531117 496.577367 152.739238 496.05 152.72 494.84 152.72 493.87 151.85 492.55 150.47L492.07 149.95 492.07 149.95 492.07 152.88 491.34 152.88 491.33 148.71zM497.11 157.75L497.11 155.26 495.43 155.01C495.44367 155.186402 495.44367 155.363598 495.43 155.54 495.441344 156.032822 495.320491 156.51969 495.08 156.95 494.735685 157.547449 494.089096 157.905382 493.4 157.88 492.775186 157.873478 492.180955 157.608564 491.758473 157.148191 491.335991 156.687818 491.122964 156.073075 491.17 155.45 491.155935 154.880755 491.294018 154.318067 491.57 153.82L492.24 154.04C492.004559 154.469118 491.880766 154.950537 491.88 155.44 491.849551 155.83713 491.984947 156.229136 492.254 156.52282 492.523052 156.816504 492.901728 156.985634 493.3 156.99 494.14 156.99 494.75 156.42 494.75 155.11 494.746866 154.80877 494.72348 154.508092 494.68 154.21L497.81 154.63 497.81 157.75 497.11 157.75z"/>
    <polygon fill="#FFF" fill-rule="nonzero" points="386.37 121.27 386.37 121.27 385.99 120.56 386.41 120.45 386.89 121.34 386.89 121.81 382.8 121.81 382.8 121.28"/>
    <polygon fill="#FFF" fill-rule="nonzero" points="386.88 125.94 386.52 125.94 382.81 124.17 382.81 123.6 386.42 125.37 386.42 125.37 386.42 123.37 386.88 123.37"/>
    <path fill="#FFF" fill-rule="nonzero" d="M386.42 128.94L386.42 127.38 385.42 127.22C385.427867 127.329859 385.427867 127.440141 385.42 127.55 385.427223 127.85779 385.351215 128.16182 385.2 128.43 384.993608 128.787489 384.612787 129.008365 384.2 129.01 383.809667 129.005655 383.438603 128.839686 383.175173 128.551618 382.911742 128.263551 382.779522 127.879165 382.81 127.49 382.804528 127.140549 382.890725 126.795764 383.06 126.49L383.48 126.63C383.332114 126.896336 383.253057 127.195377 383.25 127.5 383.221788 127.752041 383.301227 128.004288 383.468772 128.194681 383.636318 128.385073 383.876417 128.495938 384.13 128.5 384.66 128.5 385.03 128.14 385.03 127.33 385.042254 127.143534 385.042254 126.956466 385.03 126.77L387.03 127.03 387.03 129.03 386.42 128.94zM384.85 129.9L385.85 129.9 385.85 130.4 385.33 130.4 385.33 130.4C385.711999 130.62247 385.939197 131.038358 385.92 131.48 385.89784 131.859626 385.720011 132.213284 385.428499 132.457472 385.136988 132.701661 384.757632 132.814736 384.38 132.77 383.976658 132.823912 383.569336 132.704652 383.258764 132.441714 382.948192 132.178776 382.763368 131.796709 382.75 131.39 382.735141 131.01712 382.91745 130.663895 383.23 130.46L381.58 130.46 381.58 129.91 384.85 129.9zM384.04 130.45L383.81 130.45C383.427209 130.542666 383.15821 130.886156 383.16 131.28 383.16 131.86 383.64 132.2 384.33 132.2 385.02 132.2 385.46 131.88 385.46 131.3 385.447726 130.901161 385.168629 130.560499 384.78 130.47 384.703649 130.460163 384.626351 130.460163 384.55 130.47L384.04 130.45zM385.84 133.64L385.19 134.07 384.69 134.38 384.69 134.38 385.19 134.68 385.84 135.11 385.84 135.71 384.37 134.71 382.8 135.78 382.8 135.15 383.48 134.7C383.66 134.58 383.82 134.48 384.01 134.37L384.01 134.37 383.48 134.05 382.8 133.61 382.8 133 384.35 134.08 385.84 133.08 385.84 133.64z"/>
    <polygon fill="#FFF" fill-rule="nonzero" points="382.55 135.82 387.1 137.57 387.1 138 382.55 136.24"/>
    <polygon fill="#FFF" fill-rule="nonzero" points="386.37 139.46 386.37 139.46 385.99 138.75 386.41 138.64 386.89 139.53 386.89 140 382.8 140 382.8 139.47"/>
    <path fill="#FFF" fill-rule="nonzero" d="M384.89 144.19C383.5 144.19 382.74 143.68 382.74 142.77 382.74 141.86 383.49 141.43 384.83 141.42 386.17 141.41 386.95 142.01 386.95 142.84 386.95 143.67 386.18 144.19 384.89 144.19zM384.83 141.98C383.77 141.98 383.17 142.31 383.17 142.81 383.17 143.31 383.83 143.64 384.87 143.64 385.91 143.64 386.53 143.38 386.53 142.81 386.53 142.24 385.93 142 384.82 142L384.83 141.98zM383.13 144.74C383.234979 144.731411 383.338643 144.767972 383.415008 144.840518 383.491372 144.913064 383.533198 145.014718 383.53 145.12 383.499016 145.314118 383.331575 145.456952 383.135 145.456952 382.938425 145.456952 382.770984 145.314118 382.74 145.12 382.73705 145.01658 382.777537 144.916649 382.85164 144.844446 382.925742 144.772243 383.026691 144.734365 383.13 144.74L383.13 144.74zM383.19 146.31C383.175355 146.459643 383.175355 146.610357 383.19 146.76 383.231552 147.078078 383.371394 147.375242 383.59 147.61 383.876591 147.909654 384.258322 148.10052 384.67 148.15L384.67 148.15C384.3713 147.906633 384.207624 147.534641 384.23 147.15 384.223841 146.821072 384.355279 146.504506 384.592606 146.276673 384.829932 146.048839 385.151597 145.930426 385.48 145.95 385.858159 145.936478 386.225687 146.076609 386.498848 146.338467 386.77201 146.600326 386.927539 146.961607 386.93 147.34 386.93 148.17 386.25 148.69 385.21 148.69 384.504155 148.729292 383.813294 148.476097 383.3 147.99 382.988178 147.66639 382.794432 147.247193 382.75 146.8 382.732822 146.630434 382.732822 146.459566 382.75 146.29L383.19 146.31zM385.54 146.51C385.318038 146.484212 385.095675 146.554858 384.929297 146.704024 384.76292 146.85319 384.668507 147.06655 384.67 147.29 384.660501 147.614247 384.824324 147.919034 385.1 148.09 385.160367 148.125807 385.229885 148.143186 385.3 148.14 386 148.14 386.53 147.88 386.53 147.31 386.53 146.74 386.12 146.51 385.54 146.51zM386.42 151.64L386.42 150.08 385.42 149.92C385.427867 150.029859 385.427867 150.140141 385.42 150.25 385.427223 150.55779 385.351215 150.86182 385.2 151.13 384.993608 151.487489 384.612787 151.708365 384.2 151.71 383.809667 151.705655 383.438603 151.539686 383.175173 151.251618 382.911742 150.963551 382.779522 150.579165 382.81 150.19 382.804528 149.840549 382.890725 149.495764 383.06 149.19L383.48 149.33C383.332114 149.596336 383.253057 149.895377 383.25 150.2 383.221788 150.452041 383.301227 150.704288 383.468772 150.894681 383.636318 151.085073 383.876417 151.195938 384.13 151.2 384.66 151.2 385.03 150.84 385.03 150.03 385.042254 149.843534 385.042254 149.656466 385.03 149.47L387.03 149.73 387.03 151.73 386.42 151.64zM344.06 156.39C343.963594 156.379961 343.866406 156.379961 343.77 156.39 343.248522 156.45811 342.83811 156.868522 342.77 157.39L342.77 157.39C343.005719 157.09308 343.406572 156.982985 343.760882 157.117852 344.115193 157.252718 344.341379 157.601492 344.32 157.98 344.320667 158.513333 343.902667 158.953334 343.37 158.98 342.76 158.98 342.37 158.51 342.37 157.76 342.352785 157.283391 342.525422 156.819431 342.85 156.47 343.098879 156.233718 343.418727 156.086096 343.76 156.05L344.04 156.05 344.06 156.39zM344 158C344.020392 157.832698 343.967002 157.6648 343.853725 157.540003 343.740448 157.415207 343.578489 157.345856 343.41 157.35 343.176532 157.357554 342.965723 157.491705 342.86 157.7 342.844673 157.75563 342.844673 157.81437 342.86 157.87 342.86 158.34 343.08 158.69 343.49 158.69 343.9 158.69 344 158.45 344 158zM344.81 157.55C344.81 157.28 344.81 157.06 344.81 156.86L345.16 156.86 345.16 157.22 345.16 157.22C345.318314 156.953611 345.610434 156.79602 345.92 156.81 346.465131 156.862802 346.866366 157.344284 346.82 157.89 346.860806 158.178498 346.773755 158.470446 346.581614 158.689486 346.389474 158.908526 346.111356 159.032872 345.82 159.03 345.557359 159.043318 345.30693 158.918103 345.16 158.7L345.16 158.7 345.16 159.86 344.78 159.86 344.81 157.55zM345.19 158.12C345.185085 158.17322 345.185085 158.22678 345.19 158.28 345.258311 158.54457 345.496754 158.729568 345.77 158.73 346.18 158.73 346.42 158.4 346.42 157.91 346.42 157.42 346.2 157.12 345.79 157.12 345.510533 157.130869 345.272942 157.327497 345.21 157.6 345.203411 157.65313 345.203411 157.70687 345.21 157.76L345.19 158.12zM347.42 156.85L347.72 157.31C347.8 157.43 347.87 157.54 347.94 157.66L347.94 157.66C348.01 157.53 348.08 157.42 348.15 157.31L348.45 156.86 348.87 156.86 348.15 157.86 348.9 158.96 348.46 158.96 348.15 158.48C348.07 158.36 348 158.24 347.92 158.11L347.92 158.11C347.85 158.24 347.78 158.35 347.7 158.48L347.39 158.96 347 158.96 347.76 157.87 347.04 156.87 347.42 156.85z"/>
    <polygon fill="#FFF" fill-rule="nonzero" points="349.88 159.15 351.11 155.96 351.41 155.96 350.18 159.15"/>
    <path fill="#FFF" fill-rule="nonzero" d="M352.55 158.75C352.544418 158.677649 352.569326 158.606257 352.618703 158.553082 352.668081 158.499906 352.737434 158.469785 352.81 158.47 352.924714 158.461786 353.032786 158.524553 353.082494 158.628264 353.132203 158.731974 353.113439 158.855534 353.035181 158.939811 352.956924 159.024088 352.835091 159.051941 352.727987 159.010041 352.620883 158.96814 352.550294 158.865008 352.55 158.75L352.55 158.75zM353.52 158.53C353.711009 158.64322 353.928008 158.70522 354.15 158.71 354.65 158.71 354.8 158.39 354.8 158.16 354.8 157.76 354.43 157.59 354.06 157.59L353.84 157.59 353.84 157.3 354.06 157.3C354.34 157.3 354.7 157.15 354.7 156.82 354.7 156.49 354.56 156.39 354.2 156.39 353.995016 156.393407 353.796032 156.459735 353.63 156.58L353.53 156.3C353.753088 156.154861 354.013859 156.078368 354.28 156.08 354.84 156.08 355.1 156.41 355.1 156.76 355.092483 157.076525 354.876293 157.349821 354.57 157.43L354.57 157.43C354.935445 157.479838 355.208399 157.791176 355.21 158.16 355.21 158.62 354.85 159.02 354.21 159.02 353.950784 159.023958 353.695246 158.958347 353.47 158.83L353.52 158.53z"/>
    <polygon fill="#FFF" fill-rule="nonzero" points="357.54 156.12 357.54 156.37 356.3 158.97 355.9 158.97 357.14 156.44 355.74 156.44 355.74 156.12"/>
    <path fill="#FFF" fill-rule="nonzero" d="M359.64 156.45L358.55 156.45 358.44 157.18 358.67 157.18C358.886363 157.173644 359.10047 157.225444 359.29 157.33 359.551582 157.478358 359.709441 157.759424 359.7 158.06 359.700497 158.335947 359.586945 158.599835 359.386222 158.789195 359.1855 158.978556 358.91545 159.076557 358.64 159.06 358.391553 159.064071 358.146499 159.001944 357.93 158.88L358.03 158.59C358.216807 158.693372 358.426505 158.748375 358.64 158.75 358.813841 158.763855 358.985648 158.705031 359.114516 158.587533 359.243384 158.470036 359.317783 158.304378 359.32 158.13 359.32 157.76 359.07 157.5 358.5 157.5 358.366815 157.491101 358.233185 157.491101 358.1 157.5L358.28 156.13 359.65 156.13 359.64 156.45zM360.52 158C360.501715 158.199529 360.572358 158.396966 360.71307 158.539606 360.853783 158.682247 361.050241 158.755569 361.25 158.74 361.452306 158.746415 361.653597 158.708886 361.84 158.63L361.91 158.91C361.685106 159.002772 361.443175 159.04707 361.2 159.04 360.922198 159.040682 360.656631 158.925771 360.466946 158.722808 360.27726 158.519844 360.180553 158.247122 360.2 157.97 360.155972 157.679928 360.241551 157.385154 360.434071 157.163757 360.62659 156.94236 360.906624 156.816678 361.2 156.82 361.453583 156.824062 361.693682 156.934927 361.861228 157.125319 362.028773 157.315712 362.108212 157.567959 362.08 157.82 362.083509 157.879949 362.083509 157.940051 362.08 158L360.52 158zM361.65 157.72C361.673148 157.562583 361.62699 157.402855 361.523443 157.282049 361.419895 157.161244 361.269106 157.0912 361.11 157.09 360.78001 157.115833 360.524162 157.389026 360.52 157.72L361.65 157.72zM362.51 157.43C362.51 157.21 362.51 157.03 362.51 156.85L362.85 156.85 362.85 157.19 362.85 157.19C362.980152 156.942356 363.240386 156.790876 363.52 156.8 363.791822 156.798884 364.033709 156.972236 364.12 157.23L364.12 157.23C364.179072 157.120589 364.26091 157.025111 364.36 156.95 364.494113 156.84621 364.660557 156.79309 364.83 156.8 365.11 156.8 365.53 156.98 365.53 157.72L365.53 159 365.15 159 365.15 157.8C365.15 157.39 365 157.15 364.69 157.15 364.477934 157.15724 364.293533 157.297545 364.23 157.5 364.220547 157.562981 364.220547 157.627019 364.23 157.69L364.23 159 363.85 159 363.85 157.7C363.85 157.36 363.7 157.12 363.41 157.12 363.182874 157.133493 362.989701 157.290446 362.93 157.51 362.91877 157.572836 362.91877 157.637164 362.93 157.7L362.93 159 362.55 159 362.51 157.43z"/>
  </g>
</svg>
