<svg xmlns="http://www.w3.org/2000/svg" viewBox="0 0 500 195"><defs><style>.cls-1{fill:#7600ff;}.cls-1,.cls-6,.cls-8{opacity:0.5;}.cls-2{fill:none;stroke:#d8d8d8;stroke-miterlimit:10;}.cls-3,.cls-4{fill:#424242;}.cls-4{fill-rule:evenodd;}.cls-5{fill:#757575;}.cls-6{fill:#eb008b;}.cls-7{fill:#fff;}.cls-8{fill:#00c3ff;}</style></defs><title>Header</title><g id="Email_Content" data-name="Email Content"><rect class="cls-1" x="377.58" y="117.82" width="109.39" height="41.16"/><line class="cls-2" x1="495.78" y1="64.7" x2="7.32" y2="64.7"/><line class="cls-2" x1="7.32" y1="0.67" x2="495.78" y2="0.67"/><path class="cls-3" d="M25.77,26.26h-8V47.54h-.82V26.26h-8v-.82H25.77Z"/><path class="cls-3" d="M29,26a.83.83,0,0,1,.24-.6.79.79,0,0,1,.59-.25.85.85,0,0,1,.85.85.79.79,0,0,1-.25.59.83.83,0,0,1-.6.24A.83.83,0,0,1,29,26Zm1.24,21.55h-.82V31.11h.82Z"/><path class="cls-3" d="M41.19,47a5.63,5.63,0,0,0,3.68-1.18,4.4,4.4,0,0,0,1.59-3.28h.82a5.14,5.14,0,0,1-1.84,3.83,6.36,6.36,0,0,1-4.25,1.45,6,6,0,0,1-4.89-2.23,9.32,9.32,0,0,1-1.81-6.06V39a9.17,9.17,0,0,1,1.81-6,6,6,0,0,1,4.86-2.23,6.12,6.12,0,0,1,4.31,1.56,5.71,5.71,0,0,1,1.81,4.16h-.82A5,5,0,0,0,44.9,33a5.29,5.29,0,0,0-3.74-1.34,5.17,5.17,0,0,0-4.3,2,8.7,8.7,0,0,0-1.56,5.5v.53a8.44,8.44,0,0,0,1.57,5.41A5.23,5.23,0,0,0,41.19,47Z"/><path class="cls-3" d="M54.63,38.66l0,0-2.38,2v6.8h-.82V24.22h.82V39.84L54.14,38l7.47-6.91h1.17l-7.54,7,8,9.43H62.18Z"/><path class="cls-3" d="M72,47.84a6.61,6.61,0,0,1-3.65-1.07,7.34,7.34,0,0,1-2.6-2.94,9.07,9.07,0,0,1-.94-4.14V39a9.52,9.52,0,0,1,.91-4.17,7.21,7.21,0,0,1,2.5-3,6.14,6.14,0,0,1,3.48-1.06,5.74,5.74,0,0,1,4.49,2,7.44,7.44,0,0,1,1.75,5.15v.87H65.63v.89a8.25,8.25,0,0,0,.84,3.7A6.63,6.63,0,0,0,68.79,46,5.74,5.74,0,0,0,72,47a6.53,6.53,0,0,0,2.82-.55,5.73,5.73,0,0,0,2.06-1.7l.58.41A6.19,6.19,0,0,1,72,47.84Zm-.3-16.21a5.36,5.36,0,0,0-4.07,1.78,7.59,7.59,0,0,0-2,4.55H77.12v-.2a6.93,6.93,0,0,0-.71-3.1,5.44,5.44,0,0,0-1.94-2.23A5,5,0,0,0,71.7,31.63Z"/><path class="cls-3" d="M83.6,26.68v4.43h3.73v.82H83.6V43.6a4.65,4.65,0,0,0,.57,2.58,2.13,2.13,0,0,0,1.9.84,11.74,11.74,0,0,0,1.62-.14l.14.77a5.62,5.62,0,0,1-1.71.18,3.05,3.05,0,0,1-2.57-1,5.18,5.18,0,0,1-.79-3.14V31.93h-3v-.82h3V26.68Z"/><path class="cls-4" d="M394.87,34.44c-.39.82-.23,1.49.35,1.5A2.4,2.4,0,0,0,397,34.48c.39-.82.23-1.49-.35-1.5A2.41,2.41,0,0,0,394.87,34.44Zm4.73-3h0a14,14,0,0,1-1.49,2.95c-1.2,1.78-2.93,2.91-3.85,2.51s-.7-2.16.5-3.95a8.57,8.57,0,0,1,.87-1.09h0a10.67,10.67,0,0,0-1.15.22h0a26,26,0,0,0-5.55,17.21h0a7,7,0,0,1-4.32-6.2v0c-.3-5.21,3.85-10.54,9.27-11.91A9.19,9.19,0,0,1,399.6,31.48Z"/><path class="cls-4" d="M398.06,45.52a12.6,12.6,0,0,1-1.23.75h0A9.88,9.88,0,0,0,396,42.8c-1.24-2.69-3.41-2.9-4.84-.46A10.57,10.57,0,0,0,390,48h0a9.42,9.42,0,0,0,5.14.06c5.41-1.38,9.56-6.71,9.26-11.91-.27-4.57-3.87-7.52-8.41-7.25h0q-.66.67-1.24,1.35h0a8.17,8.17,0,0,1,6.19,1.31h0c-4.8,6.76-4.2,10.62-2.86,13.87h0Z"/><path class="cls-4" d="M442.81,37.79a5.17,5.17,0,0,1,2.37.47h0l-.39,2.05h0a4.64,4.64,0,0,0-2.1-.52c-.71,0-1.18.3-1.18.8s.36.68,1.11,1c1,.49,2.09,1.22,2.09,2.53a2.89,2.89,0,0,1-.85,2.13,4.76,4.76,0,0,1-3.42,1.14,5.51,5.51,0,0,1-2.83-.72h0l.39-2.06h0a6,6,0,0,0,2.69.79c.68,0,1.14-.31,1.14-.82s-.32-.78-1.15-1.18c-1.3-.65-2-1.48-2-2.45C438.72,39.08,440.36,37.79,442.81,37.79Z"/><path class="cls-3" d="M431.19,34.72h2.72l-1.41,7.44h0l3.64-4.2h3l-3.77,4.25,2.3,5h-3l-2.23-4.94h0l-.94,4.94h-2.73l2.38-12.51Z"/><path class="cls-4" d="M427.52,37.81a5.33,5.33,0,0,1,1.9.32v0L429,40.35h0a3,3,0,0,0-1.5-.35,3.22,3.22,0,0,0-3.13,3.35,1.72,1.72,0,0,0,1.8,1.9,4.85,4.85,0,0,0,2.28-.58h0L428,47h0a6.46,6.46,0,0,1-2.64.49,3.61,3.61,0,0,1-3.91-3.8A5.83,5.83,0,0,1,427.52,37.81Z"/><path class="cls-3" d="M412.76,37.77a3.1,3.1,0,0,1,.51,0h0l-.53,2.67h0a2.18,2.18,0,0,0-.43,0c-1.87,0-2.6,1.83-2.88,3.34l-.66,3.55H406L407.79,38h2.42l-.12.63a2.93,2.93,0,0,1-.42,1.13l0,0a.17.17,0,0,0,.1.21.17.17,0,0,0,.23-.06v0a2.4,2.4,0,0,1,.53-1A3,3,0,0,1,412.76,37.77Z"/><path class="cls-4" d="M475.15,41.67h0a3.23,3.23,0,0,0,2.06-.53.75.75,0,0,0,.23-.56c0-.48-.4-.78-1-.78a2.16,2.16,0,0,0-1.9,1.2l0,.06c-.26.49-.34.54-.58.69l0,0a.17.17,0,0,0,0,.23.17.17,0,0,0,.23,0l0,0C474.39,41.79,474.43,41.71,475.15,41.67Zm1.67-3.89c1.94,0,3.23,1.13,3.23,2.8a2.53,2.53,0,0,1-.75,1.89c-.83.81-2.34,1.22-4.6,1.23h0a.72.72,0,0,1-.76-.46l0,0a.17.17,0,0,0-.24,0,.17.17,0,0,0,0,.23l0,0a1.05,1.05,0,0,1,.44.64,1.55,1.55,0,0,0,.22.51,2.19,2.19,0,0,0,1.77.7,6.13,6.13,0,0,0,3.21-.9h0l-.43,2.28h0a8.08,8.08,0,0,1-3.45.74c-2.56,0-4-1.42-4-3.91a6.14,6.14,0,0,1,1.44-3.94A5.14,5.14,0,0,1,476.82,37.79Z"/><path class="cls-3" d="M449.25,45.39c1.45,0,2.51-2.05,2.51-3.87,0-.44-.1-1.5-1.11-1.5s-1.89,1.17-2.23,2.94C448.3,43.58,448,45.39,449.25,45.39Zm-.19-7.46-.08.43a2.15,2.15,0,0,1-.46,1.09l0,0a.16.16,0,0,0,.07.22.18.18,0,0,0,.24,0v0a2.2,2.2,0,0,1,.6-1,3.36,3.36,0,0,1,2.19-.83c1.82,0,3,1.38,3,3.53a6.34,6.34,0,0,1-3,5.61A3.4,3.4,0,0,1,448,47a1,1,0,0,1-.22-.59v0a.18.18,0,0,0-.34.11v0a.92.92,0,0,1,.18.58L447,50.24h-2.75l2.34-12.31h2.42Z"/><path class="cls-4" d="M470,37.81a5.32,5.32,0,0,1,1.9.32v0l-.42,2.21h0A3,3,0,0,0,470,40a3.22,3.22,0,0,0-3.13,3.35,1.72,1.72,0,0,0,1.8,1.9,4.85,4.85,0,0,0,2.28-.58h0L470.53,47h0a6.46,6.46,0,0,1-2.64.49,3.61,3.61,0,0,1-3.91-3.8A5.83,5.83,0,0,1,470,37.81Z"/><path class="cls-3" d="M458.88,40.43a5.07,5.07,0,0,0-1.29,3.24c0,1,.36,1.58,1,1.58,1,0,1.86-1,2.16-2.58.07-.34.13-.69.18-1a4.24,4.24,0,0,0,.07-.77.92.92,0,0,0-1-1A1.64,1.64,0,0,0,458.88,40.43Zm1,6.83.08-.41a3.74,3.74,0,0,1,.49-1.06l0,0a.18.18,0,0,0-.09-.23.18.18,0,0,0-.23.08v0a2,2,0,0,1-.58,1,3.13,3.13,0,0,1-2.11.79c-1.83,0-2.66-1.62-2.66-3.25a7,7,0,0,1,1.94-4.89,5.26,5.26,0,0,1,3.8-1.56,3,3,0,0,1,2.46,1,4.14,4.14,0,0,1,.51,3.34l-1,5.19H459.9Z"/><path class="cls-3" d="M416.38,40.43a5.07,5.07,0,0,0-1.29,3.24c0,1,.36,1.58,1,1.58,1,0,1.87-1,2.16-2.58.07-.34.13-.69.18-1a4.24,4.24,0,0,0,.07-.77.92.92,0,0,0-1-1A1.64,1.64,0,0,0,416.38,40.43Zm1,6.83.08-.41a3.74,3.74,0,0,1,.49-1.06l0,0a.18.18,0,0,0-.09-.23.18.18,0,0,0-.23.08v0a2,2,0,0,1-.58,1,3.13,3.13,0,0,1-2.11.79c-1.83,0-2.66-1.62-2.66-3.25a7,7,0,0,1,1.94-4.89,5.26,5.26,0,0,1,3.8-1.56,3,3,0,0,1,2.46,1,4.14,4.14,0,0,1,.51,3.34l-1,5.19H417.4Z"/><path class="cls-3" d="M480.07,46.31a.92.92,0,0,0,.93,1,1.18,1.18,0,0,0,1.14-1.05.92.92,0,0,0-.93-1A1.18,1.18,0,0,0,480.07,46.31Zm-.16,0a1.34,1.34,0,0,1,1.31-1.2,1.08,1.08,0,0,1,1.09,1.2,1.34,1.34,0,0,1-1.31,1.2A1.08,1.08,0,0,1,479.9,46.29Zm.94-.71h.48l.13,0a.33.33,0,0,1,.24.33.41.41,0,0,1,0,.08.49.49,0,0,1-.38.4l.19.57h-.21l-.18-.54h-.26l-.1.54h-.17l.1-.54h0l.08-.43Zm.27.17H481l0,.27,0,.26h.29l.1,0a.32.32,0,0,0,.23-.24.2.2,0,0,0-.14-.24l-.09,0h-.16Z"/><path class="cls-5" d="M11.26,16H8.55v2.85H7.7V12.38h4v.69H8.55v2.21h2.71Z"/><path class="cls-5" d="M15.52,17.14h-2.7l-.61,1.69h-.88l2.46-6.45h.74L17,18.82h-.87Zm-2.44-.7h2.19l-1.1-3Z"/><path class="cls-5" d="M22.83,18.82H22l-3.25-5v5h-.85V12.38h.85l3.25,5v-5h.85Z"/><path class="cls-5" d="M27.9,17.14h-2.7l-.61,1.69h-.88l2.46-6.45h.74l2.47,6.45h-.87Zm-2.44-.7h2.19l-1.1-3Z"/><path class="cls-5" d="M34.13,13.07H32.06v5.75h-.85V13.07H29.15v-.69h5Z"/><path class="cls-5" d="M36,18.82h-.85V12.38H36Z"/><path class="cls-5" d="M42.3,16.78a2.37,2.37,0,0,1-.75,1.58,2.47,2.47,0,0,1-1.69.56A2.27,2.27,0,0,1,38,18.09a3.29,3.29,0,0,1-.69-2.19v-.62a3.67,3.67,0,0,1,.32-1.58,2.4,2.4,0,0,1,.91-1,2.53,2.53,0,0,1,1.36-.36,2.33,2.33,0,0,1,1.65.57,2.4,2.4,0,0,1,.72,1.59h-.85A1.85,1.85,0,0,0,41,13.33a1.45,1.45,0,0,0-1-.35,1.52,1.52,0,0,0-1.28.6,2.76,2.76,0,0,0-.46,1.71v.63a2.84,2.84,0,0,0,.44,1.67,1.42,1.42,0,0,0,1.23.62,1.64,1.64,0,0,0,1.09-.32,1.79,1.79,0,0,0,.5-1.12Z"/><path class="cls-5" d="M47,17.14h-2.7l-.61,1.69h-.88l2.46-6.45H46l2.47,6.45h-.87Zm-2.44-.7h2.19l-1.1-3Z"/><path class="cls-5" d="M50.22,18.13h3.05v.69H49.37V12.38h.85Z"/><path class="cls-5" d="M58.39,15.95a4,4,0,0,1-1.59-.77A1.47,1.47,0,0,1,56.3,14a1.56,1.56,0,0,1,.61-1.26,2.42,2.42,0,0,1,1.58-.5,2.65,2.65,0,0,1,1.18.26,2,2,0,0,1,.81.71,1.81,1.81,0,0,1,.29,1h-.85a1.18,1.18,0,0,0-.37-.92,1.51,1.51,0,0,0-1-.34,1.55,1.55,0,0,0-1,.28.92.92,0,0,0-.35.77.83.83,0,0,0,.33.67,3.27,3.27,0,0,0,1.14.5,5.29,5.29,0,0,1,1.26.5,1.9,1.9,0,0,1,.67.64,1.62,1.62,0,0,1,.22.85,1.51,1.51,0,0,1-.61,1.25,2.61,2.61,0,0,1-1.63.47,3,3,0,0,1-1.24-.25,2.08,2.08,0,0,1-.89-.7,1.7,1.7,0,0,1-.31-1H57a1.11,1.11,0,0,0,.43.92,1.82,1.82,0,0,0,1.15.34,1.67,1.67,0,0,0,1-.27.89.89,0,0,0,.36-.75.88.88,0,0,0-.33-.73A3.85,3.85,0,0,0,58.39,15.95Z"/><path class="cls-5" d="M66.41,12.38v4.38a2.05,2.05,0,0,1-.57,1.49,2.31,2.31,0,0,1-1.54.65h-.23a2.41,2.41,0,0,1-1.69-.57,2,2,0,0,1-.64-1.57V12.38h.84v4.36a1.49,1.49,0,1,0,3,0V12.38Z"/><path class="cls-5" d="M68.6,16.3v2.52h-.85V12.38h2.38a2.39,2.39,0,0,1,1.66.54,1.83,1.83,0,0,1,.6,1.43,1.81,1.81,0,0,1-.59,1.45,2.5,2.5,0,0,1-1.68.51Zm0-.69h1.53a1.53,1.53,0,0,0,1-.32,1.18,1.18,0,0,0,.36-.93,1.21,1.21,0,0,0-.36-.92,1.43,1.43,0,0,0-1-.36H68.6Z"/><path class="cls-5" d="M74.32,16.3v2.52h-.85V12.38h2.38a2.39,2.39,0,0,1,1.66.54,1.83,1.83,0,0,1,.6,1.43,1.81,1.81,0,0,1-.59,1.45,2.5,2.5,0,0,1-1.68.51Zm0-.69h1.53a1.53,1.53,0,0,0,1-.32,1.18,1.18,0,0,0,.36-.93,1.21,1.21,0,0,0-.36-.92,1.43,1.43,0,0,0-1-.36H74.32Z"/><path class="cls-5" d="M84.15,15.81a4,4,0,0,1-.32,1.65,2.42,2.42,0,0,1-.9,1.08,2.49,2.49,0,0,1-3.63-1.07,3.83,3.83,0,0,1-.33-1.6V15.4a3.94,3.94,0,0,1,.32-1.64,2.39,2.39,0,0,1,2.27-1.47,2.49,2.49,0,0,1,1.37.37,2.41,2.41,0,0,1,.91,1.08,4,4,0,0,1,.32,1.65Zm-.85-.42a2.89,2.89,0,0,0-.46-1.76A1.52,1.52,0,0,0,81.55,13a1.5,1.5,0,0,0-1.27.61,2.83,2.83,0,0,0-.48,1.7v.47a2.89,2.89,0,0,0,.47,1.75,1.64,1.64,0,0,0,2.56,0,2.87,2.87,0,0,0,.46-1.72Z"/><path class="cls-5" d="M87.79,16.22H86.27v2.61h-.85V12.38h2.13a2.52,2.52,0,0,1,1.68.5,1.78,1.78,0,0,1,.59,1.44,1.73,1.73,0,0,1-.33,1,1.94,1.94,0,0,1-.91.67l1.51,2.74v.05h-.91Zm-1.51-.69h1.31a1.47,1.47,0,0,0,1-.33,1.11,1.11,0,0,0,.37-.88,1.17,1.17,0,0,0-.36-.92,1.51,1.51,0,0,0-1-.32h-1.3Z"/><path class="cls-5" d="M95.1,13.07H93v5.75h-.85V13.07H90.12v-.69h5Z"/><path class="cls-5" d="M101.68,16H99v2.85h-.85V12.38h4v.69H99v2.21h2.71Z"/><path class="cls-5" d="M108.09,15.81a4,4,0,0,1-.32,1.65,2.42,2.42,0,0,1-.9,1.08,2.49,2.49,0,0,1-3.63-1.07,3.83,3.83,0,0,1-.33-1.6V15.4a3.94,3.94,0,0,1,.32-1.64,2.39,2.39,0,0,1,2.27-1.47,2.49,2.49,0,0,1,1.37.37,2.41,2.41,0,0,1,.91,1.08,4,4,0,0,1,.32,1.65Zm-.85-.42a2.89,2.89,0,0,0-.46-1.76A1.52,1.52,0,0,0,105.5,13a1.5,1.5,0,0,0-1.27.61,2.83,2.83,0,0,0-.48,1.7v.47a2.89,2.89,0,0,0,.47,1.75,1.64,1.64,0,0,0,2.56,0,2.87,2.87,0,0,0,.46-1.72Z"/><path class="cls-5" d="M111.73,16.22h-1.51v2.61h-.85V12.38h2.13a2.52,2.52,0,0,1,1.68.5,1.78,1.78,0,0,1,.59,1.44,1.73,1.73,0,0,1-.33,1,1.94,1.94,0,0,1-.91.67L114,18.77v.05h-.91Zm-1.51-.69h1.31a1.47,1.47,0,0,0,1-.33,1.11,1.11,0,0,0,.37-.88,1.17,1.17,0,0,0-.36-.92,1.51,1.51,0,0,0-1-.32h-1.3Z"/><path class="cls-5" d="M120.76,17.14h-2.7l-.61,1.69h-.88L119,12.38h.74l2.47,6.45h-.87Zm-2.44-.7h2.19l-1.1-3Z"/><path class="cls-5" d="M124.19,16.79l.12.85.18-.77,1.28-4.5h.72l1.24,4.5.18.78.14-.87,1-4.41h.85l-1.56,6.45h-.77l-1.33-4.7-.1-.49-.1.49-1.38,4.7h-.77l-1.56-6.45h.85Z"/><path class="cls-5" d="M132.75,15.95a4,4,0,0,1-1.59-.77,1.47,1.47,0,0,1-.5-1.13,1.56,1.56,0,0,1,.61-1.26,2.42,2.42,0,0,1,1.58-.5,2.65,2.65,0,0,1,1.18.26,2,2,0,0,1,.81.71,1.81,1.81,0,0,1,.29,1h-.85a1.18,1.18,0,0,0-.37-.92,1.51,1.51,0,0,0-1-.34,1.55,1.55,0,0,0-1,.28.92.92,0,0,0-.35.77.83.83,0,0,0,.33.67,3.27,3.27,0,0,0,1.14.5,5.29,5.29,0,0,1,1.26.5,1.9,1.9,0,0,1,.67.64,1.62,1.62,0,0,1,.22.85,1.51,1.51,0,0,1-.61,1.25,2.61,2.61,0,0,1-1.63.47,3,3,0,0,1-1.24-.25,2.08,2.08,0,0,1-.89-.7,1.7,1.7,0,0,1-.31-1h.85a1.11,1.11,0,0,0,.43.92,1.82,1.82,0,0,0,1.15.34,1.67,1.67,0,0,0,1-.27.89.89,0,0,0,.36-.75.88.88,0,0,0-.33-.73A3.85,3.85,0,0,0,132.75,15.95Z"/><line class="cls-2" x1="485.28" y1="169.01" x2="12.21" y2="169.01"/><line class="cls-2" x1="12.21" y1="106.99" x2="485.28" y2="106.99"/><path class="cls-3" d="M30.09,131.77H22.29v20.61H21.5V131.77H13.71V131H30.09Z"/><path class="cls-3" d="M33.2,131.51a.8.8,0,0,1,.24-.58.77.77,0,0,1,.57-.24.83.83,0,0,1,.82.82.77.77,0,0,1-.24.57.81.81,0,0,1-.58.24.8.8,0,0,1-.81-.81Zm1.21,20.87h-.79v-15.9h.79Z"/><path class="cls-3" d="M45,151.88a5.45,5.45,0,0,0,3.56-1.15,4.25,4.25,0,0,0,1.54-3.17h.79a5,5,0,0,1-1.78,3.71,6.15,6.15,0,0,1-4.12,1.4,5.79,5.79,0,0,1-4.74-2.16,9,9,0,0,1-1.76-5.86v-.53a8.88,8.88,0,0,1,1.76-5.78A5.76,5.76,0,0,1,45,136.18a5.93,5.93,0,0,1,4.17,1.51,5.54,5.54,0,0,1,1.75,4h-.79a4.81,4.81,0,0,0-1.51-3.45A5.12,5.12,0,0,0,45,137a5,5,0,0,0-4.17,1.92,8.42,8.42,0,0,0-1.51,5.33v.51A8.17,8.17,0,0,0,40.84,150,5.06,5.06,0,0,0,45,151.88Z"/><path class="cls-3" d="M58,143.78l0,0-2.31,2v6.58H54.9V129.8h.79v15.13l1.87-1.76,7.23-6.69h1.13l-7.31,6.78,7.76,9.13h-1Z"/><path class="cls-3" d="M74.86,152.67a6.4,6.4,0,0,1-3.54-1,7.11,7.11,0,0,1-2.52-2.84,8.78,8.78,0,0,1-.91-4v-.66a9.22,9.22,0,0,1,.88-4,7,7,0,0,1,2.42-2.87,6,6,0,0,1,3.37-1,5.56,5.56,0,0,1,4.35,1.9,7.21,7.21,0,0,1,1.69,5v.84H68.68v.87a8,8,0,0,0,.82,3.59,6.42,6.42,0,0,0,2.25,2.59,5.56,5.56,0,0,0,3.11.94,6.32,6.32,0,0,0,2.73-.53,5.55,5.55,0,0,0,2-1.64l.56.4A6,6,0,0,1,74.86,152.67ZM74.56,137a5.19,5.19,0,0,0-3.94,1.73,7.36,7.36,0,0,0-1.9,4.4H79.81v-.19a6.72,6.72,0,0,0-.68-3,5.27,5.27,0,0,0-1.88-2.16A4.85,4.85,0,0,0,74.56,137Z"/><path class="cls-3" d="M86.09,132.18v4.29H89.7v.79H86.09v11.3a4.5,4.5,0,0,0,.55,2.5,2.07,2.07,0,0,0,1.84.81,11.44,11.44,0,0,0,1.57-.13l.13.75a5.43,5.43,0,0,1-1.66.18,3,3,0,0,1-2.48-1,5,5,0,0,1-.76-3v-11.4H82.34v-.79h2.94v-4.29Z"/><path class="cls-4" d="M387.55,139.7c-.38.79-.23,1.45.33,1.46a2.33,2.33,0,0,0,1.7-1.42c.38-.79.23-1.45-.33-1.46A2.33,2.33,0,0,0,387.55,139.7Zm4.58-2.87h0a13.61,13.61,0,0,1-1.45,2.86c-1.16,1.73-2.83,2.82-3.73,2.43s-.68-2.1.48-3.82a8.3,8.3,0,0,1,.85-1.06h0a10.33,10.33,0,0,0-1.11.22h0a25.14,25.14,0,0,0-5.37,16.66h0a6.81,6.81,0,0,1-4.19-6v0c-.29-5,3.73-10.21,9-11.54A8.9,8.9,0,0,1,392.12,136.84Z"/><path class="cls-4" d="M390.64,150.44a12.21,12.21,0,0,1-1.19.73h0a9.57,9.57,0,0,0-.79-3.36c-1.2-2.6-3.3-2.81-4.69-.45a10.23,10.23,0,0,0-1.13,5.5h0a9.12,9.12,0,0,0,5,.05c5.24-1.34,9.26-6.5,9-11.53a7.33,7.33,0,0,0-8.15-7h0q-.64.65-1.2,1.31h0a7.91,7.91,0,0,1,6,1.27h0c-4.65,6.55-4.07,10.28-2.77,13.43h0Z"/><path class="cls-4" d="M434,142.94a5,5,0,0,1,2.3.46h0l-.38,2h0a4.5,4.5,0,0,0-2-.5c-.69,0-1.14.29-1.14.77s.34.66,1.07,1c.95.47,2,1.18,2,2.45a2.8,2.8,0,0,1-.82,2.06,4.61,4.61,0,0,1-3.32,1.1,5.33,5.33,0,0,1-2.74-.7h0l.38-2h0a5.79,5.79,0,0,0,2.6.77c.66,0,1.1-.3,1.1-.79s-.31-.75-1.11-1.14c-1.26-.63-1.9-1.43-1.9-2.38C430,144.2,431.6,142.94,434,142.94Z"/><path class="cls-3" d="M422.72,140h2.63L424,147.19h0l3.53-4.07h2.9l-3.65,4.11L429,152.1h-2.86L424,147.32h0L423,152.1H420.4L422.7,140Z"/><path class="cls-4" d="M419.17,143a5.16,5.16,0,0,1,1.84.31h0l-.41,2.14h0a2.91,2.91,0,0,0-1.46-.34,3.12,3.12,0,0,0-3,3.25,1.66,1.66,0,0,0,1.75,1.84,4.69,4.69,0,0,0,2.21-.56h0l-.42,2.2h0a6.26,6.26,0,0,1-2.55.48,3.5,3.5,0,0,1-3.79-3.68A5.64,5.64,0,0,1,419.17,143Z"/><path class="cls-3" d="M404.87,142.92a3,3,0,0,1,.49,0h0l-.51,2.58h0a2.12,2.12,0,0,0-.42,0c-1.81,0-2.52,1.77-2.79,3.23l-.64,3.44h-2.67l1.72-9.07h2.35l-.12.61a2.83,2.83,0,0,1-.4,1.09l0,0a.16.16,0,0,0,.09.21.17.17,0,0,0,.22-.06v0a2.32,2.32,0,0,1,.52-1A2.91,2.91,0,0,1,404.87,142.92Z"/><path class="cls-4" d="M465.29,146.71h0a3.13,3.13,0,0,0,2-.51.73.73,0,0,0,.22-.54c0-.46-.38-.76-1-.76a2.09,2.09,0,0,0-1.84,1.17l0,.05c-.25.47-.33.52-.56.66l0,0a.16.16,0,0,0,0,.23.16.16,0,0,0,.22,0l0,0C464.56,146.82,464.6,146.74,465.29,146.71Zm1.62-3.76c1.88,0,3.13,1.09,3.13,2.71a2.45,2.45,0,0,1-.72,1.83c-.81.79-2.26,1.18-4.45,1.2h0a.7.7,0,0,1-.74-.44l0,0a.17.17,0,0,0-.23,0,.17.17,0,0,0,0,.22l0,0a1,1,0,0,1,.43.62,1.5,1.5,0,0,0,.21.5,2.12,2.12,0,0,0,1.71.67,5.94,5.94,0,0,0,3.11-.87h0l-.42,2.21h0a7.83,7.83,0,0,1-3.34.72c-2.48,0-3.9-1.38-3.9-3.79a6,6,0,0,1,1.4-3.82A5,5,0,0,1,466.91,142.94Z"/><path class="cls-3" d="M440.21,150.31c1.4,0,2.43-2,2.43-3.74,0-.42-.1-1.45-1.08-1.45s-1.83,1.13-2.16,2.85C439.29,148.55,439,150.31,440.21,150.31Zm-.19-7.22-.08.41a2.09,2.09,0,0,1-.44,1.05l0,0a.16.16,0,0,0,.07.21.18.18,0,0,0,.23,0v0a2.14,2.14,0,0,1,.58-1,3.25,3.25,0,0,1,2.12-.81c1.76,0,2.91,1.34,2.91,3.42a6.14,6.14,0,0,1-2.94,5.44,3.29,3.29,0,0,1-3.47.09,1,1,0,0,1-.21-.57v0a.17.17,0,0,0-.33.11v0a.9.9,0,0,1,.18.56l-.57,3h-2.67l2.27-11.92H440Z"/><path class="cls-4" d="M460.33,143a5.16,5.16,0,0,1,1.84.31h0l-.41,2.14h0a2.91,2.91,0,0,0-1.46-.34,3.12,3.12,0,0,0-3,3.25,1.66,1.66,0,0,0,1.75,1.84,4.69,4.69,0,0,0,2.21-.56h0l-.42,2.2h0a6.26,6.26,0,0,1-2.55.48,3.5,3.5,0,0,1-3.79-3.68A5.64,5.64,0,0,1,460.33,143Z"/><path class="cls-3" d="M449.53,145.5a4.91,4.91,0,0,0-1.25,3.13c0,.94.35,1.53,1,1.53,1,0,1.81-1,2.09-2.5.06-.33.13-.67.18-1a4.11,4.11,0,0,0,.07-.75.89.89,0,0,0-1-1A1.58,1.58,0,0,0,449.53,145.5Zm1,6.62.08-.4a3.63,3.63,0,0,1,.47-1l0,0a.18.18,0,0,0-.09-.22.17.17,0,0,0-.23.08v0a2,2,0,0,1-.56,1,3,3,0,0,1-2,.76c-1.77,0-2.57-1.57-2.57-3.15a6.8,6.8,0,0,1,1.88-4.74,5.09,5.09,0,0,1,3.68-1.51,3,3,0,0,1,2.38.93,4,4,0,0,1,.5,3.23l-1,5h-2.55Z"/><path class="cls-3" d="M408.37,145.5a4.91,4.91,0,0,0-1.25,3.13c0,.94.35,1.53,1,1.53,1,0,1.81-1,2.09-2.5.06-.33.13-.67.18-1a4.11,4.11,0,0,0,.07-.75.89.89,0,0,0-1-1A1.58,1.58,0,0,0,408.37,145.5Zm1,6.62.08-.4a3.63,3.63,0,0,1,.47-1l0,0a.18.18,0,0,0-.09-.22.17.17,0,0,0-.23.08v0a2,2,0,0,1-.56,1,3,3,0,0,1-2,.76c-1.77,0-2.57-1.57-2.57-3.15a6.8,6.8,0,0,1,1.88-4.74,5.09,5.09,0,0,1,3.68-1.51,3,3,0,0,1,2.38.93,4,4,0,0,1,.5,3.23l-1,5h-2.55Z"/><path class="cls-3" d="M470.06,151.2a.89.89,0,0,0,.9,1,1.14,1.14,0,0,0,1.11-1,.89.89,0,0,0-.9-1A1.14,1.14,0,0,0,470.06,151.2Zm-.16,0a1.3,1.3,0,0,1,1.27-1.16,1,1,0,0,1,1.06,1.16,1.3,1.3,0,0,1-1.27,1.16A1,1,0,0,1,469.9,151.18Zm.91-.69h.46l.13,0a.32.32,0,0,1,.23.32.4.4,0,0,1,0,.08.48.48,0,0,1-.36.39l.19.55h-.2l-.18-.52h-.25l-.1.52h-.17l.1-.53h0l.08-.41Zm.27.16h-.13l0,.26,0,.26h.28l.1,0a.31.31,0,0,0,.23-.24.19.19,0,0,0-.14-.23l-.09,0h-.15Z"/><path class="cls-5" d="M16,121.82H13.41v2.76h-.82v-6.24h3.87V119h-3v2.14H16Z"/><path class="cls-5" d="M20.15,122.94H17.54L17,124.58H16.1l2.38-6.24h.72l2.39,6.24h-.84Zm-2.37-.67h2.12l-1.06-2.92Z"/><path class="cls-5" d="M27.23,124.58H26.4l-3.14-4.81v4.81h-.83v-6.24h.83l3.15,4.83v-4.83h.82Z"/><path class="cls-5" d="M32.14,122.94H29.53l-.59,1.63h-.85l2.38-6.24h.72l2.39,6.24h-.84Zm-2.37-.67H31.9l-1.06-2.92Z"/><path class="cls-5" d="M38.18,119h-2v5.57h-.82V119h-2v-.67h4.83Z"/><path class="cls-5" d="M40,124.58h-.82v-6.24H40Z"/><path class="cls-5" d="M46.09,122.6a2.3,2.3,0,0,1-.73,1.53,2.4,2.4,0,0,1-1.64.54,2.2,2.2,0,0,1-1.77-.79,3.19,3.19,0,0,1-.67-2.12v-.6a3.55,3.55,0,0,1,.31-1.53,2.32,2.32,0,0,1,.88-1,2.45,2.45,0,0,1,1.32-.35,2.26,2.26,0,0,1,1.59.56,2.33,2.33,0,0,1,.7,1.54h-.83a1.79,1.79,0,0,0-.46-1.08,1.41,1.41,0,0,0-1-.34,1.47,1.47,0,0,0-1.24.58,2.68,2.68,0,0,0-.45,1.66v.6a2.76,2.76,0,0,0,.42,1.62,1.37,1.37,0,0,0,1.19.6,1.58,1.58,0,0,0,1.05-.31,1.73,1.73,0,0,0,.49-1.08Z"/><path class="cls-5" d="M50.66,122.94H48l-.59,1.63h-.85L49,118.33h.72l2.39,6.24h-.84Zm-2.37-.67h2.12l-1.06-2.92Z"/><path class="cls-5" d="M53.77,123.9h3v.67H52.94v-6.24h.83Z"/><path class="cls-5" d="M61.68,121.79a3.87,3.87,0,0,1-1.54-.75,1.43,1.43,0,0,1-.48-1.1,1.51,1.51,0,0,1,.59-1.22,2.34,2.34,0,0,1,1.53-.48,2.56,2.56,0,0,1,1.15.25,1.89,1.89,0,0,1,.78.69,1.76,1.76,0,0,1,.28,1h-.83a1.14,1.14,0,0,0-.36-.89,1.47,1.47,0,0,0-1-.32,1.5,1.5,0,0,0-.95.27.89.89,0,0,0-.34.75.81.81,0,0,0,.32.65,3.18,3.18,0,0,0,1.1.48,5.11,5.11,0,0,1,1.22.48,1.85,1.85,0,0,1,.65.62A1.57,1.57,0,0,1,64,123a1.46,1.46,0,0,1-.59,1.22,2.52,2.52,0,0,1-1.58.46,2.94,2.94,0,0,1-1.2-.25,2,2,0,0,1-.86-.68,1.64,1.64,0,0,1-.3-1h.83a1.07,1.07,0,0,0,.42.89,1.76,1.76,0,0,0,1.12.33,1.62,1.62,0,0,0,1-.27.86.86,0,0,0,.35-.72.85.85,0,0,0-.32-.71A3.68,3.68,0,0,0,61.68,121.79Z"/><path class="cls-5" d="M69.44,118.33v4.24a2,2,0,0,1-.56,1.44,2.24,2.24,0,0,1-1.49.63h-.22a2.33,2.33,0,0,1-1.63-.55,2,2,0,0,1-.62-1.52v-4.25h.81v4.23A1.3,1.3,0,0,0,67.17,124a1.45,1.45,0,0,0,1.07-.37,1.42,1.42,0,0,0,.37-1.05v-4.23Z"/><path class="cls-5" d="M71.56,122.13v2.44h-.82v-6.24H73a2.32,2.32,0,0,1,1.61.52,1.77,1.77,0,0,1,.58,1.38,1.75,1.75,0,0,1-.57,1.4,2.42,2.42,0,0,1-1.63.49Zm0-.67H73a1.48,1.48,0,0,0,1-.31,1.14,1.14,0,0,0,.35-.9,1.18,1.18,0,0,0-.35-.89,1.38,1.38,0,0,0-1-.35H71.56Z"/><path class="cls-5" d="M77.1,122.13v2.44h-.82v-6.24h2.3a2.32,2.32,0,0,1,1.61.52,1.77,1.77,0,0,1,.58,1.38,1.75,1.75,0,0,1-.57,1.4,2.42,2.42,0,0,1-1.63.49Zm0-.67h1.48a1.48,1.48,0,0,0,1-.31,1.14,1.14,0,0,0,.35-.9,1.18,1.18,0,0,0-.35-.89,1.38,1.38,0,0,0-1-.35H77.1Z"/><path class="cls-5" d="M86.62,121.66a3.87,3.87,0,0,1-.31,1.6,2.34,2.34,0,0,1-.87,1,2.41,2.41,0,0,1-3.51-1,3.71,3.71,0,0,1-.32-1.55v-.45a3.81,3.81,0,0,1,.31-1.59,2.31,2.31,0,0,1,2.19-1.42,2.43,2.43,0,0,1,1.32.36,2.34,2.34,0,0,1,.88,1.05,3.89,3.89,0,0,1,.31,1.6Zm-.82-.4a2.8,2.8,0,0,0-.45-1.7,1.47,1.47,0,0,0-1.25-.59,1.46,1.46,0,0,0-1.23.59,2.74,2.74,0,0,0-.46,1.65v.46a2.8,2.8,0,0,0,.45,1.69,1.58,1.58,0,0,0,2.48,0,2.78,2.78,0,0,0,.45-1.67Z"/><path class="cls-5" d="M90.14,122.05H88.68v2.53h-.83v-6.24h2.07a2.45,2.45,0,0,1,1.62.48,1.73,1.73,0,0,1,.57,1.4,1.68,1.68,0,0,1-.32,1,1.88,1.88,0,0,1-.88.65l1.47,2.65v.05H91.5Zm-1.47-.67h1.26a1.43,1.43,0,0,0,1-.32,1.08,1.08,0,0,0,.36-.85,1.13,1.13,0,0,0-.35-.89,1.46,1.46,0,0,0-1-.31H88.68Z"/><path class="cls-5" d="M97.23,119h-2v5.57H94.4V119h-2v-.67h4.83Z"/><path class="cls-5" d="M103.6,121.82H101v2.76h-.82v-6.24H104V119h-3v2.14h2.62Z"/><path class="cls-5" d="M109.81,121.66a3.87,3.87,0,0,1-.31,1.6,2.34,2.34,0,0,1-.87,1,2.41,2.41,0,0,1-3.51-1,3.71,3.71,0,0,1-.32-1.55v-.45a3.81,3.81,0,0,1,.31-1.59,2.31,2.31,0,0,1,2.19-1.42,2.43,2.43,0,0,1,1.32.36,2.34,2.34,0,0,1,.88,1.05,3.89,3.89,0,0,1,.31,1.6Zm-.82-.4a2.8,2.8,0,0,0-.45-1.7,1.47,1.47,0,0,0-1.25-.59,1.46,1.46,0,0,0-1.23.59,2.74,2.74,0,0,0-.46,1.65v.46a2.8,2.8,0,0,0,.45,1.69,1.58,1.58,0,0,0,2.48,0,2.78,2.78,0,0,0,.45-1.67Z"/><path class="cls-5" d="M113.34,122.05h-1.47v2.53H111v-6.24h2.07a2.45,2.45,0,0,1,1.62.48,1.73,1.73,0,0,1,.57,1.4,1.68,1.68,0,0,1-.32,1,1.88,1.88,0,0,1-.88.65l1.47,2.65v.05h-.88Zm-1.47-.67h1.26a1.43,1.43,0,0,0,1-.32,1.08,1.08,0,0,0,.36-.85,1.13,1.13,0,0,0-.35-.89,1.46,1.46,0,0,0-1-.31h-1.26Z"/><path class="cls-5" d="M122.07,122.94h-2.62l-.59,1.63H118l2.38-6.24h.72l2.39,6.24h-.84Zm-2.37-.67h2.12l-1.06-2.92Z"/><path class="cls-5" d="M125.4,122.61l.12.82.18-.74,1.24-4.36h.69l1.21,4.36.17.75.13-.84,1-4.27h.83l-1.51,6.24h-.75L127.39,120l-.1-.48-.1.48-1.33,4.55h-.75l-1.51-6.24h.82Z"/><path class="cls-5" d="M133.69,121.79a3.87,3.87,0,0,1-1.54-.75,1.43,1.43,0,0,1-.48-1.1,1.51,1.51,0,0,1,.59-1.22,2.34,2.34,0,0,1,1.53-.48,2.56,2.56,0,0,1,1.15.25,1.89,1.89,0,0,1,.78.69,1.76,1.76,0,0,1,.28,1h-.83a1.14,1.14,0,0,0-.36-.89,1.47,1.47,0,0,0-1-.32,1.5,1.5,0,0,0-.95.27.89.89,0,0,0-.34.75.81.81,0,0,0,.32.65,3.18,3.18,0,0,0,1.1.48,5.11,5.11,0,0,1,1.22.48,1.85,1.85,0,0,1,.65.62,1.57,1.57,0,0,1,.21.83,1.46,1.46,0,0,1-.59,1.22,2.52,2.52,0,0,1-1.58.46,2.94,2.94,0,0,1-1.2-.25,2,2,0,0,1-.86-.68,1.64,1.64,0,0,1-.3-1h.83a1.07,1.07,0,0,0,.42.89,1.76,1.76,0,0,0,1.12.33,1.62,1.62,0,0,0,1-.27.86.86,0,0,0,.35-.72.85.85,0,0,0-.32-.71A3.68,3.68,0,0,0,133.69,121.79Z"/><rect class="cls-6" x="2.58" y="158.98" width="493.8" height="10.03"/><path class="cls-7" d="M11.27,161.41h0l-1.13.61-.17-.67,1.43-.76h.75v6.53h-.85Z"/><path class="cls-7" d="M18.22,161.21a3.22,3.22,0,0,0-.66,0,2.65,2.65,0,0,0-2.27,2.32h0a2,2,0,0,1,3.54,1.36,2.18,2.18,0,0,1-2.17,2.3c-1.4,0-2.31-1.08-2.31-2.78a4.1,4.1,0,0,1,1.1-2.94,3.55,3.55,0,0,1,2.09-1,4.2,4.2,0,0,1,.64-.05ZM18,165a1.33,1.33,0,0,0-1.35-1.5,1.45,1.45,0,0,0-1.26.8.75.75,0,0,0-.1.39c0,1.07.51,1.87,1.44,1.87C17.46,166.54,18,165.91,18,165Z"/><path class="cls-7" d="M19.93,163.84c0-.62,0-1.12,0-1.59h.79l0,.83h0a1.91,1.91,0,0,1,1.73-.94,2.2,2.2,0,0,1,2.06,2.47c0,1.75-1.06,2.61-2.21,2.61a1.7,1.7,0,0,1-1.5-.76h0v2.64h-.87Zm.87,1.29a2,2,0,0,0,0,.36,1.36,1.36,0,0,0,1.33,1c.93,0,1.48-.76,1.48-1.88s-.51-1.81-1.45-1.81a1.41,1.41,0,0,0-1.33,1.09,1.43,1.43,0,0,0-.06.36Z"/><path class="cls-7" d="M25.91,162.25l.69,1c.18.27.33.52.49.79h0c.16-.29.32-.54.48-.8l.68-1h1l-1.66,2.35,1.71,2.51h-1L27.58,166c-.19-.28-.35-.55-.52-.84h0c-.16.29-.33.55-.51.84l-.7,1.09h-1l1.73-2.48-1.65-2.38Z"/><path class="cls-7" d="M31.53,167.51l2.8-7.28H35l-2.81,7.28Z"/><path class="cls-7" d="M39.48,161.41h0l-1.13.61-.17-.67,1.43-.76h.75v6.53h-.85Z"/><path class="cls-7" d="M43.48,164.84a1.56,1.56,0,0,0,1.67,1.69,3.2,3.2,0,0,0,1.35-.25l.15.63a3.94,3.94,0,0,1-1.62.3,2.26,2.26,0,0,1-2.39-2.45,2.36,2.36,0,0,1,2.28-2.62,2.06,2.06,0,0,1,2,2.29,3.38,3.38,0,0,1,0,.41Zm2.59-.63a1.26,1.26,0,0,0-1.22-1.44,1.46,1.46,0,0,0-1.36,1.44Z"/><path class="cls-7" d="M48,163.57c0-.5,0-.91,0-1.31h.77l0,.78h0a1.68,1.68,0,0,1,1.53-.89,1.44,1.44,0,0,1,1.38,1h0a2,2,0,0,1,.54-.63,1.66,1.66,0,0,1,1.07-.34c.64,0,1.6.42,1.6,2.11v2.86h-.86v-2.75c0-.93-.34-1.5-1.05-1.5a1.14,1.14,0,0,0-1,.8,1.46,1.46,0,0,0-.07.44v3h-.86V164.2c0-.77-.34-1.34-1-1.34a1.32,1.32,0,0,0-1.16,1.32v2.93H48Z"/><rect class="cls-6" x="2.52" y="169.57" width="493.8" height="15.05"/><path class="cls-7" d="M9.35,177.67v-.54l.69-.67c1.67-1.59,2.42-2.43,2.43-3.41a1.16,1.16,0,0,0-1.29-1.28,2.22,2.22,0,0,0-1.39.55l-.28-.62a2.87,2.87,0,0,1,1.85-.66,1.84,1.84,0,0,1,2,1.9c0,1.21-.87,2.18-2.25,3.5l-.52.48v0h2.93v.73Z"/><path class="cls-7" d="M17.23,177.67v-1.78h-3v-.58l2.91-4.17h1v4.06H19v.69h-.91v1.78Zm0-2.47V173q0-.51,0-1h0c-.2.38-.36.66-.54,1l-1.6,2.22v0Z"/><path class="cls-7" d="M19.93,174.39c0-.62,0-1.12,0-1.59h.79l0,.83h0a1.91,1.91,0,0,1,1.73-.94,2.2,2.2,0,0,1,2.06,2.47c0,1.75-1.06,2.61-2.21,2.61a1.7,1.7,0,0,1-1.5-.76h0v2.64h-.87Zm.87,1.29a2,2,0,0,0,0,.36,1.36,1.36,0,0,0,1.33,1c.93,0,1.48-.76,1.48-1.88s-.51-1.81-1.45-1.81a1.41,1.41,0,0,0-1.33,1.09,1.43,1.43,0,0,0-.06.36Z"/><path class="cls-7" d="M25.91,172.81l.69,1c.18.27.33.52.49.79h0c.16-.29.32-.54.48-.8l.68-1h1l-1.66,2.35,1.71,2.51h-1l-.71-1.09c-.19-.28-.35-.55-.52-.84h0c-.16.29-.33.55-.51.84l-.7,1.09h-1l1.73-2.48-1.65-2.38Z"/><path class="cls-7" d="M31.53,178.07l2.8-7.28H35l-2.81,7.28Z"/><path class="cls-7" d="M39.48,172h0l-1.13.61-.17-.67,1.43-.76h.75v6.53h-.85Z"/><path class="cls-7" d="M42.78,177.14a.59.59,0,0,1,.6-.63.63.63,0,1,1-.6.63Z"/><path class="cls-7" d="M48.68,171.88H46.19l-.25,1.68a3.5,3.5,0,0,1,.53,0,2.76,2.76,0,0,1,1.41.35,1.86,1.86,0,0,1,.93,1.68,2.26,2.26,0,0,1-2.43,2.23,3.19,3.19,0,0,1-1.63-.4l.22-.67a2.93,2.93,0,0,0,1.4.36,1.44,1.44,0,0,0,1.55-1.42c0-.84-.57-1.45-1.88-1.45a6.7,6.7,0,0,0-.9.07l.42-3.13h3.12Z"/><path class="cls-7" d="M50.7,175.4a1.56,1.56,0,0,0,1.67,1.69,3.2,3.2,0,0,0,1.35-.25l.15.63a3.94,3.94,0,0,1-1.62.3,2.26,2.26,0,0,1-2.39-2.45,2.36,2.36,0,0,1,2.28-2.62,2.06,2.06,0,0,1,2,2.29,3.38,3.38,0,0,1,0,.41Zm2.59-.63a1.26,1.26,0,0,0-1.22-1.44,1.46,1.46,0,0,0-1.36,1.44Z"/><path class="cls-7" d="M55.24,174.12c0-.5,0-.91,0-1.31H56l0,.78h0a1.68,1.68,0,0,1,1.53-.89,1.44,1.44,0,0,1,1.38,1h0a2,2,0,0,1,.54-.63,1.66,1.66,0,0,1,1.07-.34c.64,0,1.6.42,1.6,2.11v2.86h-.86v-2.75c0-.93-.34-1.5-1.05-1.5a1.14,1.14,0,0,0-1,.8,1.46,1.46,0,0,0-.07.44v3h-.86v-2.91c0-.77-.34-1.34-1-1.34a1.32,1.32,0,0,0-1.16,1.32v2.93h-.86Z"/><rect class="cls-6" x="2.52" y="107.79" width="493.8" height="10.03"/><path class="cls-7" d="M11.27,110h0l-1.13.61-.17-.67,1.43-.76h.75v6.53h-.85Z"/><path class="cls-7" d="M18.22,109.8a3.22,3.22,0,0,0-.66,0,2.65,2.65,0,0,0-2.27,2.32h0a2,2,0,0,1,3.54,1.36,2.18,2.18,0,0,1-2.17,2.3c-1.4,0-2.31-1.08-2.31-2.78a4.1,4.1,0,0,1,1.1-2.94,3.55,3.55,0,0,1,2.09-1,4.2,4.2,0,0,1,.64-.05ZM18,113.57a1.33,1.33,0,0,0-1.35-1.5,1.45,1.45,0,0,0-1.26.8.75.75,0,0,0-.1.39c0,1.07.51,1.87,1.44,1.87C17.46,115.13,18,114.5,18,113.57Z"/><path class="cls-7" d="M19.93,112.43c0-.62,0-1.12,0-1.59h.79l0,.83h0a1.91,1.91,0,0,1,1.73-.94,2.2,2.2,0,0,1,2.06,2.47c0,1.75-1.06,2.61-2.21,2.61a1.7,1.7,0,0,1-1.5-.76h0v2.64h-.87Zm.87,1.29a2,2,0,0,0,0,.36,1.36,1.36,0,0,0,1.33,1c.93,0,1.48-.76,1.48-1.88s-.51-1.81-1.45-1.81a1.41,1.41,0,0,0-1.33,1.09,1.43,1.43,0,0,0-.06.36Z"/><path class="cls-7" d="M25.91,110.85l.69,1c.18.27.33.52.49.79h0c.16-.29.32-.54.48-.8l.68-1h1l-1.66,2.35,1.71,2.51h-1l-.71-1.09c-.19-.28-.35-.55-.52-.84h0c-.16.29-.33.55-.51.84l-.7,1.09h-1l1.73-2.48-1.65-2.38Z"/><path class="cls-7" d="M31.53,116.11l2.8-7.28H35l-2.81,7.28Z"/><path class="cls-7" d="M39.48,110h0l-1.13.61-.17-.67,1.43-.76h.75v6.53h-.85Z"/><path class="cls-7" d="M43.48,113.44a1.56,1.56,0,0,0,1.67,1.69,3.2,3.2,0,0,0,1.35-.25l.15.63a3.94,3.94,0,0,1-1.62.3,2.26,2.26,0,0,1-2.39-2.45,2.36,2.36,0,0,1,2.28-2.62,2.06,2.06,0,0,1,2,2.29,3.38,3.38,0,0,1,0,.41Zm2.59-.63a1.26,1.26,0,0,0-1.22-1.44,1.46,1.46,0,0,0-1.36,1.44Z"/><path class="cls-7" d="M48,112.16c0-.5,0-.91,0-1.31h.77l0,.78h0a1.68,1.68,0,0,1,1.53-.89,1.44,1.44,0,0,1,1.38,1h0a2,2,0,0,1,.54-.63,1.66,1.66,0,0,1,1.07-.34c.64,0,1.6.42,1.6,2.11v2.86h-.86V113c0-.93-.34-1.5-1.05-1.5a1.14,1.14,0,0,0-1,.8,1.46,1.46,0,0,0-.07.44v3h-.86v-2.91c0-.77-.34-1.34-1-1.34a1.32,1.32,0,0,0-1.16,1.32v2.93H48Z"/><rect class="cls-6" x="2.52" y="91.71" width="493.8" height="15.05"/><rect class="cls-6" x="338.35" y="155.01" width="148.62" height="3.97"/><path class="cls-7" d="M9.35,99.62v-.54l.69-.67C11.71,96.82,12.47,96,12.47,95a1.16,1.16,0,0,0-1.29-1.28,2.22,2.22,0,0,0-1.39.55l-.28-.62A2.87,2.87,0,0,1,11.36,93a1.84,1.84,0,0,1,2,1.9c0,1.2-.87,2.18-2.25,3.5l-.52.48v0h2.93v.73Z"/><path class="cls-7" d="M17.23,99.62V97.85h-3v-.58l2.91-4.17h1v4.06H19v.69h-.91v1.78Zm0-2.47V95q0-.51,0-1h0c-.2.38-.36.66-.54,1l-1.6,2.22v0Z"/><path class="cls-7" d="M19.93,96.35c0-.62,0-1.12,0-1.59h.79l0,.83h0a1.91,1.91,0,0,1,1.73-.94,2.2,2.2,0,0,1,2.06,2.47c0,1.75-1.06,2.61-2.21,2.61a1.7,1.7,0,0,1-1.5-.76h0v2.64h-.87Zm.87,1.29a2,2,0,0,0,0,.36,1.36,1.36,0,0,0,1.33,1c.93,0,1.48-.76,1.48-1.88s-.51-1.81-1.45-1.81a1.41,1.41,0,0,0-1.33,1.09,1.43,1.43,0,0,0-.06.36Z"/><path class="cls-7" d="M25.91,94.77l.69,1c.18.27.33.52.49.79h0c.16-.29.32-.54.48-.8l.68-1h1l-1.66,2.35,1.71,2.51h-1l-.71-1.09c-.19-.28-.35-.55-.52-.84h0c-.16.29-.33.55-.51.84l-.7,1.09h-1l1.73-2.48-1.65-2.38Z"/><path class="cls-7" d="M31.53,100l2.8-7.28H35L32.2,100Z"/><path class="cls-7" d="M39.48,93.92h0l-1.13.61-.17-.67,1.43-.76h.75v6.53h-.85Z"/><path class="cls-7" d="M42.78,99.1a.59.59,0,0,1,.6-.63.63.63,0,1,1-.6.63Z"/><path class="cls-7" d="M48.68,93.84H46.19l-.25,1.68a3.5,3.5,0,0,1,.53,0,2.76,2.76,0,0,1,1.41.35,1.86,1.86,0,0,1,.93,1.68,2.26,2.26,0,0,1-2.43,2.23,3.19,3.19,0,0,1-1.63-.4l.22-.67a2.93,2.93,0,0,0,1.4.36,1.44,1.44,0,0,0,1.55-1.42c0-.84-.57-1.45-1.88-1.45a6.7,6.7,0,0,0-.9.07l.42-3.13h3.12Z"/><path class="cls-7" d="M50.7,97.36A1.56,1.56,0,0,0,52.37,99a3.2,3.2,0,0,0,1.35-.25l.15.63a3.94,3.94,0,0,1-1.62.3,2.26,2.26,0,0,1-2.39-2.45,2.36,2.36,0,0,1,2.28-2.62,2.06,2.06,0,0,1,2,2.29,3.38,3.38,0,0,1,0,.41Zm2.59-.63a1.26,1.26,0,0,0-1.22-1.44,1.46,1.46,0,0,0-1.36,1.44Z"/><path class="cls-7" d="M55.24,96.08c0-.5,0-.91,0-1.31H56l0,.78h0a1.68,1.68,0,0,1,1.53-.89,1.44,1.44,0,0,1,1.38,1h0a2,2,0,0,1,.54-.63,1.66,1.66,0,0,1,1.07-.34c.64,0,1.6.42,1.6,2.11v2.86h-.86V96.87c0-.93-.34-1.5-1.05-1.5a1.14,1.14,0,0,0-1,.8,1.46,1.46,0,0,0-.07.44v3h-.86V96.71c0-.77-.34-1.34-1-1.34a1.32,1.32,0,0,0-1.16,1.32v2.93h-.86Z"/><rect class="cls-8" x="0.41" y="106.79" width="11.44" height="84.38"/><path class="cls-7" d="M4.77,113.28h.54L6,114c1.59,1.67,2.43,2.42,3.41,2.43a1.16,1.16,0,0,0,1.27-1.29,2.22,2.22,0,0,0-.55-1.39l.62-.28a2.86,2.86,0,0,1,.66,1.85,1.84,1.84,0,0,1-1.9,2c-1.21,0-2.18-.87-3.5-2.25l-.48-.52h0v2.93H4.77Z"/><path class="cls-7" d="M8.1,122.76c-2.22,0-3.44-.82-3.44-2.27,0-1.27,1.19-2.14,3.35-2.16s3.39.94,3.39,2.27S10.18,122.76,8.1,122.76ZM8,119.22c-1.7,0-2.66.52-2.66,1.33s1.05,1.34,2.72,1.34,2.66-.41,2.66-1.33S9.78,119.22,8,119.22Z"/><path class="cls-7" d="M8,123.85c.62,0,1.12,0,1.59,0v.79l-.83,0v0a1.91,1.91,0,0,1,.94,1.73,2.2,2.2,0,0,1-2.47,2.06c-1.75,0-2.61-1.06-2.61-2.21a1.7,1.7,0,0,1,.76-1.5v0H2.78v-.87Zm-1.3.87a2,2,0,0,0-.36,0,1.36,1.36,0,0,0-1,1.33c0,.93.76,1.48,1.88,1.48S9,127.06,9,126.12a1.41,1.41,0,0,0-1.09-1.34,1.45,1.45,0,0,0-.36-.06Z"/><path class="cls-7" d="M9.63,129.84l-1,.69c-.27.18-.52.33-.79.49v0c.29.16.54.32.8.48l1,.68v1l-2.35-1.66-2.51,1.71v-1l1.09-.71c.28-.19.55-.35.84-.52v0c-.29-.16-.55-.33-.84-.51l-1.09-.7v-1l2.48,1.73,2.38-1.65Z"/><path class="cls-7" d="M4.37,135.45l7.28,2.8v.68l-7.28-2.81Z"/><path class="cls-7" d="M10.47,143.4v0l-.61-1.13.67-.17.76,1.43v.75H4.77v-.85Z"/><path class="cls-7" d="M5.29,146.7a.59.59,0,0,1,.63.6.59.59,0,0,1-.63.59.6.6,0,1,1,0-1.19Z"/><path class="cls-7" d="M4.77,148.71h.54l.67.69c1.59,1.67,2.43,2.42,3.41,2.43a1.16,1.16,0,0,0,1.27-1.29,2.22,2.22,0,0,0-.55-1.39l.62-.28a2.86,2.86,0,0,1,.66,1.85,1.84,1.84,0,0,1-1.9,2c-1.21,0-2.18-.87-3.5-2.25l-.48-.52h0v2.93H4.77Z"/><path class="cls-7" d="M10.55,157.75v-2.49L8.88,155a3.43,3.43,0,0,1,0,.53,2.76,2.76,0,0,1-.35,1.41,1.86,1.86,0,0,1-1.68.93,2.26,2.26,0,0,1-2.23-2.43,3.2,3.2,0,0,1,.4-1.63l.67.22a2.93,2.93,0,0,0-.36,1.4A1.44,1.44,0,0,0,6.79,157c.84,0,1.45-.57,1.45-1.88a6.72,6.72,0,0,0-.07-.9l3.13.42v3.12Z"/><rect class="cls-8" x="486.97" y="106.79" width="12.54" height="84.38"/><path class="cls-7" d="M491.33,113.28h.54l.67.69c1.59,1.67,2.43,2.42,3.41,2.43a1.16,1.16,0,0,0,1.27-1.29,2.22,2.22,0,0,0-.55-1.39l.62-.28a2.86,2.86,0,0,1,.66,1.85,1.84,1.84,0,0,1-1.9,2c-1.21,0-2.18-.87-3.5-2.25l-.48-.52h0v2.93h-.73Z"/><path class="cls-7" d="M494.66,122.76c-2.22,0-3.44-.82-3.44-2.27,0-1.27,1.19-2.14,3.35-2.16s3.39.94,3.39,2.27S496.74,122.76,494.66,122.76Zm-.1-3.54c-1.7,0-2.66.52-2.66,1.33s1.05,1.34,2.72,1.34,2.66-.41,2.66-1.33S496.34,119.22,494.56,119.22Z"/><path class="cls-7" d="M494.6,123.85c.62,0,1.12,0,1.59,0v.79l-.83,0v0a1.91,1.91,0,0,1,.94,1.73,2.2,2.2,0,0,1-2.47,2.06c-1.75,0-2.61-1.06-2.61-2.21a1.7,1.7,0,0,1,.76-1.5v0h-2.64v-.87Zm-1.3.87a2,2,0,0,0-.36,0,1.36,1.36,0,0,0-1,1.33c0,.93.76,1.48,1.88,1.48s1.81-.51,1.81-1.45a1.41,1.41,0,0,0-1.09-1.34,1.45,1.45,0,0,0-.36-.06Z"/><path class="cls-7" d="M496.19,129.84l-1,.69c-.27.18-.52.33-.79.49v0c.29.16.54.32.8.48l1,.68v1l-2.35-1.66-2.51,1.71v-1l1.09-.71c.28-.19.55-.35.84-.52v0c-.29-.16-.55-.33-.84-.51l-1.09-.7v-1l2.48,1.73,2.38-1.65Z"/><path class="cls-7" d="M490.93,135.45l7.28,2.8v.68l-7.28-2.81Z"/><path class="cls-7" d="M497,143.4v0l-.61-1.13.67-.17.76,1.43v.75h-6.53v-.85Z"/><path class="cls-7" d="M491.85,146.7a.59.59,0,0,1,.63.6.63.63,0,0,1-1.26,0A.59.59,0,0,1,491.85,146.7Z"/><path class="cls-7" d="M491.33,148.71h.54l.67.69c1.59,1.67,2.43,2.42,3.41,2.43a1.16,1.16,0,0,0,1.27-1.29,2.22,2.22,0,0,0-.55-1.39l.62-.28a2.86,2.86,0,0,1,.66,1.85,1.84,1.84,0,0,1-1.9,2c-1.21,0-2.18-.87-3.5-2.25l-.48-.52h0v2.93h-.73Z"/><path class="cls-7" d="M497.11,157.75v-2.49l-1.68-.25a3.43,3.43,0,0,1,0,.53,2.76,2.76,0,0,1-.35,1.41,1.86,1.86,0,0,1-1.68.93,2.26,2.26,0,0,1-2.23-2.43,3.2,3.2,0,0,1,.4-1.63l.67.22a2.92,2.92,0,0,0-.36,1.4,1.44,1.44,0,0,0,1.42,1.55c.84,0,1.45-.57,1.45-1.88a6.72,6.72,0,0,0-.07-.9l3.13.42v3.12Z"/><path class="cls-7" d="M386.37,121.27h0l-.38-.71.42-.11.48.89v.47H382.8v-.53Z"/><path class="cls-7" d="M386.88,125.94h-.36l-3.71-1.77v-.57l3.61,1.77h0v-2h.46Z"/><path class="cls-7" d="M386.42,128.94v-1.56l-1-.16a2.31,2.31,0,0,1,0,.33,1.71,1.71,0,0,1-.22.88,1.16,1.16,0,0,1-1,.58,1.41,1.41,0,0,1-1.39-1.52,2,2,0,0,1,.25-1l.42.14a1.83,1.83,0,0,0-.23.87.9.9,0,0,0,.88,1c.53,0,.9-.36.9-1.17a4.27,4.27,0,0,0,0-.56l2,.26v2Z"/><path class="cls-7" d="M384.85,129.9l1,0v.5l-.52,0h0a1.19,1.19,0,0,1,.59,1.08,1.38,1.38,0,0,1-1.54,1.29,1.44,1.44,0,0,1-1.63-1.38,1.06,1.06,0,0,1,.48-.93h-1.65v-.55Zm-.81.55-.23,0a.85.85,0,0,0-.65.83c0,.58.48.92,1.17.92s1.13-.32,1.13-.9a.88.88,0,0,0-.68-.83.9.9,0,0,0-.23,0Z"/><path class="cls-7" d="M385.84,133.64l-.65.43-.5.31v0l.5.3.65.43v.6l-1.47-1-1.57,1.07v-.63l.68-.45c.18-.12.34-.22.53-.33h0l-.53-.32-.68-.44V133l1.55,1.08,1.49-1Z"/><path class="cls-7" d="M382.55,135.82l4.55,1.75V138l-4.55-1.76Z"/><path class="cls-7" d="M386.37,139.46h0l-.38-.71.42-.11.48.89V140H382.8v-.53Z"/><path class="cls-7" d="M384.89,144.19c-1.39,0-2.15-.51-2.15-1.42s.75-1.34,2.09-1.35,2.12.59,2.12,1.42S386.18,144.19,384.89,144.19Zm-.06-2.21c-1.06,0-1.66.33-1.66.83s.66.83,1.7.83,1.66-.26,1.66-.83S385.93,142,384.82,142Z"/><path class="cls-7" d="M383.13,144.74a.37.37,0,0,1,.4.38.4.4,0,0,1-.79,0A.37.37,0,0,1,383.13,144.74Z"/><path class="cls-7" d="M383.19,146.31a2.31,2.31,0,0,0,0,.45,1.54,1.54,0,0,0,.4.85,1.79,1.79,0,0,0,1.08.54v0a1.2,1.2,0,0,1-.44-1,1.18,1.18,0,0,1,1.25-1.2,1.4,1.4,0,0,1,1.45,1.39c0,.83-.68,1.35-1.72,1.35a2.57,2.57,0,0,1-1.91-.7,2,2,0,0,1-.55-1.19,2.53,2.53,0,0,1,0-.51Zm2.35.2a.78.78,0,0,0-.87.78.91.91,0,0,0,.43.8.36.36,0,0,0,.2.05c.7,0,1.23-.26,1.23-.83S386.12,146.51,385.54,146.51Z"/><path class="cls-7" d="M386.42,151.64v-1.56l-1-.16a2.31,2.31,0,0,1,0,.33,1.71,1.71,0,0,1-.22.88,1.16,1.16,0,0,1-1,.58,1.41,1.41,0,0,1-1.39-1.52,2,2,0,0,1,.25-1l.42.14a1.83,1.83,0,0,0-.23.87.9.9,0,0,0,.88,1c.53,0,.9-.36.9-1.17a4.27,4.27,0,0,0,0-.56l2,.26v2Z"/><path class="cls-7" d="M344.06,156.39a1.4,1.4,0,0,0-.29,0,1.16,1.16,0,0,0-1,1h0a.87.87,0,0,1,1.55.59,1,1,0,0,1-.95,1c-.61,0-1-.47-1-1.22a1.8,1.8,0,0,1,.48-1.29,1.56,1.56,0,0,1,.91-.42l.28,0ZM344,158a.58.58,0,0,0-.59-.65.64.64,0,0,0-.55.35.32.32,0,0,0,0,.17c0,.47.22.82.63.82S344,158.45,344,158Z"/><path class="cls-7" d="M344.81,157.55c0-.27,0-.49,0-.69h.35l0,.36h0a.84.84,0,0,1,.76-.41,1,1,0,0,1,.9,1.08,1,1,0,0,1-1,1.14.75.75,0,0,1-.66-.33h0v1.16h-.38Zm.38.57a.87.87,0,0,0,0,.16.6.6,0,0,0,.58.45c.41,0,.65-.33.65-.82s-.22-.79-.63-.79a.62.62,0,0,0-.58.48.65.65,0,0,0,0,.16Z"/><path class="cls-7" d="M347.42,156.85l.3.46c.08.12.15.23.22.35h0c.07-.13.14-.24.21-.35l.3-.45h.42l-.72,1,.75,1.1h-.44l-.31-.48c-.08-.12-.15-.24-.23-.37h0c-.07.13-.14.24-.22.37l-.31.48H347l.76-1.09-.72-1Z"/><path class="cls-7" d="M349.88,159.15l1.23-3.19h.3l-1.23,3.19Z"/><path class="cls-7" d="M352.55,158.75a.26.26,0,0,1,.26-.28.28.28,0,1,1-.26.28Z"/><path class="cls-7" d="M353.52,158.53a1.29,1.29,0,0,0,.63.18c.5,0,.65-.32.65-.55,0-.4-.37-.57-.74-.57h-.22v-.29h.22c.28,0,.64-.15.64-.48s-.14-.43-.5-.43a1,1,0,0,0-.57.19l-.1-.28a1.36,1.36,0,0,1,.75-.22c.56,0,.82.33.82.68a.71.71,0,0,1-.53.67h0a.74.74,0,0,1,.64.73c0,.46-.36.86-1,.86a1.45,1.45,0,0,1-.74-.19Z"/><path class="cls-7" d="M357.54,156.12v.25l-1.24,2.6h-.4l1.24-2.53h-1.4v-.32Z"/><path class="cls-7" d="M359.64,156.45h-1.09l-.11.73.23,0a1.21,1.21,0,0,1,.62.15.81.81,0,0,1,.41.73,1,1,0,0,1-1.06,1,1.4,1.4,0,0,1-.71-.18l.1-.29a1.28,1.28,0,0,0,.61.16.63.63,0,0,0,.68-.62c0-.37-.25-.63-.82-.63a3,3,0,0,0-.4,0l.18-1.37h1.37Z"/><path class="cls-7" d="M360.52,158a.68.68,0,0,0,.73.74,1.4,1.4,0,0,0,.59-.11l.07.28a1.73,1.73,0,0,1-.71.13,1,1,0,0,1-1-1.07,1,1,0,0,1,1-1.15.9.9,0,0,1,.88,1,1.54,1.54,0,0,1,0,.18Zm1.13-.28a.55.55,0,0,0-.54-.63.64.64,0,0,0-.59.63Z"/><path class="cls-7" d="M362.51,157.43c0-.22,0-.4,0-.58h.34l0,.34h0a.73.73,0,0,1,.67-.39.63.63,0,0,1,.6.43h0a.87.87,0,0,1,.24-.28.72.72,0,0,1,.47-.15c.28,0,.7.18.7.92V159h-.38v-1.2c0-.41-.15-.65-.46-.65a.5.5,0,0,0-.46.35.64.64,0,0,0,0,.19V159h-.38V157.7c0-.34-.15-.58-.44-.58a.53.53,0,0,0-.48.39.54.54,0,0,0,0,.19V159h-.38Z"/></g></svg>