<svg xmlns="http://www.w3.org/2000/svg" viewBox="0 0 523.71 294.43"><defs><style>.cls-1{fill:#eb008b;}.cls-1,.cls-3,.cls-5{opacity:0.5;}.cls-2{fill:#424242;}.cls-3{fill:#7600ff;}.cls-4{fill:#757575;}.cls-5{fill:#00c3ff;}.cls-6{fill:#fff;}</style></defs><title>Key Value Pairs</title><g id="Email_Content" data-name="Email Content"><rect class="cls-1" x="23.56" y="142.73" width="476.79" height="24"/><rect class="cls-1" x="23.56" y="256.73" width="476.79" height="24"/><path class="cls-2" d="M221.94,176.92l.58-5.67h5.83v1.34h-4.6l-.34,3.1a3.67,3.67,0,0,1,1.9-.49,3.14,3.14,0,0,1,2.47,1,4,4,0,0,1,.91,2.78,3.89,3.89,0,0,1-.95,2.77,3.46,3.46,0,0,1-2.65,1,3.6,3.6,0,0,1-2.46-.84,3.34,3.34,0,0,1-1.09-2.31h1.37a2.3,2.3,0,0,0,.7,1.47,2.16,2.16,0,0,0,1.48.5,2,2,0,0,0,1.58-.69,2.87,2.87,0,0,0,.57-1.9,2.64,2.64,0,0,0-.62-1.83,2.11,2.11,0,0,0-1.65-.69,2.38,2.38,0,0,0-1.48.41l-.38.31Z"/><path class="cls-2" d="M230.44,181.86a.91.91,0,0,1,.22-.62.85.85,0,0,1,.67-.25.87.87,0,0,1,.68.25.89.89,0,0,1,.23.63.84.84,0,0,1-.23.6.89.89,0,0,1-.68.24.86.86,0,0,1-.67-.24A.85.85,0,0,1,230.44,181.86Z"/><path class="cls-2" d="M239.22,182.62h-1.45V173l-2.91,1.07v-1.31l4.14-1.55h.23Z"/><path class="cls-2" d="M248.2,182.62h-1.45V173l-2.91,1.07v-1.31l4.14-1.55h.23Z"/><path class="cls-2" d="M263.06,179.64h-4.77l-1.07,3h-1.55L260,171.24h1.31l4.35,11.38h-1.54Zm-4.31-1.23h3.87l-1.94-5.32Z"/><path class="cls-2" d="M269.13,179l.22,1.5.32-1.35,2.25-7.94h1.27l2.2,7.94.31,1.38.24-1.53,1.77-7.78h1.51l-2.76,11.38h-1.37l-2.34-8.29-.18-.87-.18.87-2.43,8.29h-1.37l-2.75-11.37h1.5Z"/><path class="cls-2" d="M284.22,177.55a7.05,7.05,0,0,1-2.81-1.36,2.6,2.6,0,0,1-.88-2,2.75,2.75,0,0,1,1.07-2.22,4.27,4.27,0,0,1,2.79-.88,4.67,4.67,0,0,1,2.09.45,3.44,3.44,0,0,1,1.42,1.25,3.2,3.2,0,0,1,.5,1.74h-1.51a2.08,2.08,0,0,0-.66-1.63,2.67,2.67,0,0,0-1.85-.59,2.73,2.73,0,0,0-1.73.49,1.63,1.63,0,0,0-.62,1.36,1.47,1.47,0,0,0,.59,1.18,5.78,5.78,0,0,0,2,.88,9.34,9.34,0,0,1,2.22.88,3.37,3.37,0,0,1,1.19,1.12,2.86,2.86,0,0,1,.39,1.51,2.66,2.66,0,0,1-1.08,2.21,4.6,4.6,0,0,1-2.88.83,5.35,5.35,0,0,1-2.19-.45,3.68,3.68,0,0,1-1.57-1.23,3,3,0,0,1-.55-1.77h1.51a2,2,0,0,0,.76,1.63,3.21,3.21,0,0,0,2,.6,3,3,0,0,0,1.82-.48,1.57,1.57,0,0,0,.63-1.32,1.54,1.54,0,0,0-.59-1.29A6.75,6.75,0,0,0,284.22,177.55Z"/><path class="cls-2" d="M300.6,179.64h-4.77l-1.07,3h-1.55l4.34-11.37h1.31l4.35,11.38h-1.54Zm-4.31-1.23h3.87l-1.94-5.32Z"/><path class="cls-2" d="M307.92,181.6a2.08,2.08,0,0,0,1.35-.47,1.65,1.65,0,0,0,.64-1.17h1.37a2.62,2.62,0,0,1-.5,1.38,3.3,3.3,0,0,1-1.23,1,3.55,3.55,0,0,1-1.63.39,3.48,3.48,0,0,1-2.75-1.15,4.59,4.59,0,0,1-1-3.15v-.24a5.09,5.09,0,0,1,.45-2.2,3.45,3.45,0,0,1,1.3-1.49,3.7,3.7,0,0,1,2-.53,3.39,3.39,0,0,1,2.36.85,3,3,0,0,1,1,2.21h-1.37a2,2,0,0,0-.62-1.35,1.93,1.93,0,0,0-1.38-.53,2,2,0,0,0-1.71.79,3.73,3.73,0,0,0-.61,2.29v.27a3.65,3.65,0,0,0,.6,2.25A2,2,0,0,0,307.92,181.6Z"/><path class="cls-2" d="M316.3,181.6a2.08,2.08,0,0,0,1.35-.47,1.65,1.65,0,0,0,.64-1.17h1.37a2.62,2.62,0,0,1-.5,1.38,3.3,3.3,0,0,1-1.23,1,3.55,3.55,0,0,1-1.63.39,3.48,3.48,0,0,1-2.75-1.15,4.59,4.59,0,0,1-1-3.15v-.24A5.09,5.09,0,0,1,313,176a3.45,3.45,0,0,1,1.3-1.49,3.7,3.7,0,0,1,2-.53,3.39,3.39,0,0,1,2.36.85,3,3,0,0,1,1,2.21h-1.37a2,2,0,0,0-.62-1.35,1.93,1.93,0,0,0-1.38-.53,2,2,0,0,0-1.71.79,3.73,3.73,0,0,0-.61,2.29v.27a3.65,3.65,0,0,0,.6,2.25A2,2,0,0,0,316.3,181.6Z"/><path class="cls-2" d="M320.9,178.31a5,5,0,0,1,.49-2.23,3.64,3.64,0,0,1,1.36-1.53,3.7,3.7,0,0,1,2-.54,3.56,3.56,0,0,1,2.79,1.2,4.6,4.6,0,0,1,1.07,3.18v.1a5,5,0,0,1-.47,2.21,3.59,3.59,0,0,1-1.35,1.53,3.74,3.74,0,0,1-2,.55,3.56,3.56,0,0,1-2.79-1.2,4.58,4.58,0,0,1-1.07-3.16Zm1.45.17a3.62,3.62,0,0,0,.65,2.26,2.21,2.21,0,0,0,3.5,0,4,4,0,0,0,.65-2.42,3.61,3.61,0,0,0-.66-2.25,2.1,2.1,0,0,0-1.75-.86A2.08,2.08,0,0,0,323,176,3.93,3.93,0,0,0,322.35,178.49Z"/><path class="cls-2" d="M335.63,181.78a3.07,3.07,0,0,1-2.48,1,2.63,2.63,0,0,1-2.06-.79,3.39,3.39,0,0,1-.71-2.32v-5.5h1.45v5.46q0,1.92,1.56,1.92a2.16,2.16,0,0,0,2.2-1.23v-6.15H337v8.45h-1.37Z"/><path class="cls-2" d="M340.6,174.17l0,1.06a3.08,3.08,0,0,1,2.53-1.22q2.68,0,2.7,3v5.59h-1.45V177a1.94,1.94,0,0,0-.42-1.35,1.68,1.68,0,0,0-1.28-.44,2.09,2.09,0,0,0-1.23.38,2.55,2.55,0,0,0-.83,1v6h-1.45v-8.45Z"/><path class="cls-2" d="M350,172.12v2h1.58v1.12H350v5.25a1.17,1.17,0,0,0,.21.76.89.89,0,0,0,.72.25,3.5,3.5,0,0,0,.69-.09v1.17a4.21,4.21,0,0,1-1.11.16,1.8,1.8,0,0,1-1.46-.59,2.52,2.52,0,0,1-.49-1.66v-5.24H347v-1.12h1.54v-2Z"/><path class="cls-2" d="M357.19,178a12.07,12.07,0,0,1,.47-3.39,9.86,9.86,0,0,1,1.41-3,6,6,0,0,1,1.95-1.87l.3,1a6.22,6.22,0,0,0-1.87,2.67,11.58,11.58,0,0,0-.8,4v.66a11.64,11.64,0,0,0,1.1,5.23,6.25,6.25,0,0,0,1.58,2.08l-.3.88a6.2,6.2,0,0,1-2-1.94A10.86,10.86,0,0,1,357.19,178Z"/><path class="cls-2" d="M370,182.62h-7.45v-1l3.94-4.37a9.38,9.38,0,0,0,1.21-1.61,2.69,2.69,0,0,0,.33-1.29,2,2,0,0,0-.54-1.46,1.89,1.89,0,0,0-1.44-.57,2.23,2.23,0,0,0-1.68.61,2.34,2.34,0,0,0-.6,1.71h-1.45a3.35,3.35,0,0,1,1-2.54,3.75,3.75,0,0,1,2.71-1,3.6,3.6,0,0,1,2.51.83,2.84,2.84,0,0,1,.92,2.21q0,1.68-2.14,4l-3,3.3H370Z"/><path class="cls-2" d="M376.3,182.62h-1.45V173l-2.91,1.07v-1.31l4.14-1.55h.23Z"/><path class="cls-2" d="M387.88,172.06l-4.71,10.56h-1.52l4.7-10.19h-6.16v-1.19h7.69Z"/><path class="cls-2" d="M390.18,176.92l.58-5.67h5.83v1.34H392l-.34,3.1a3.67,3.67,0,0,1,1.9-.49,3.14,3.14,0,0,1,2.47,1,4,4,0,0,1,.91,2.78,3.89,3.89,0,0,1-.95,2.77,3.46,3.46,0,0,1-2.65,1,3.6,3.6,0,0,1-2.46-.84,3.34,3.34,0,0,1-1.09-2.31h1.37a2.3,2.3,0,0,0,.7,1.47,2.16,2.16,0,0,0,1.48.5,2,2,0,0,0,1.58-.69,2.87,2.87,0,0,0,.57-1.9,2.64,2.64,0,0,0-.62-1.83,2.11,2.11,0,0,0-1.65-.69,2.38,2.38,0,0,0-1.48.41l-.38.31Z"/><path class="cls-2" d="M405.85,172.06l-4.71,10.56h-1.52l4.7-10.19h-6.16v-1.19h7.69Z"/><path class="cls-2" d="M414.62,177.77a6.61,6.61,0,0,1-.87,3.77,3.6,3.6,0,0,1-5.41,0,6.27,6.27,0,0,1-.91-3.61V176a6.46,6.46,0,0,1,.87-3.73,3.67,3.67,0,0,1,5.42,0,6.24,6.24,0,0,1,.89,3.63Zm-1.45-2a5.3,5.3,0,0,0-.52-2.68,1.78,1.78,0,0,0-1.63-.84,1.75,1.75,0,0,0-1.62.84,5.17,5.17,0,0,0-.52,2.57V178a5.38,5.38,0,0,0,.54,2.72,1.77,1.77,0,0,0,1.62.88,1.75,1.75,0,0,0,1.59-.83,5.18,5.18,0,0,0,.54-2.61Z"/><path class="cls-2" d="M417.13,176.92l.58-5.67h5.83v1.34h-4.6l-.34,3.1a3.67,3.67,0,0,1,1.9-.49,3.14,3.14,0,0,1,2.47,1,4,4,0,0,1,.91,2.78,3.89,3.89,0,0,1-.95,2.77,3.46,3.46,0,0,1-2.65,1,3.6,3.6,0,0,1-2.46-.84,3.34,3.34,0,0,1-1.09-2.31h1.37a2.3,2.3,0,0,0,.7,1.47,2.16,2.16,0,0,0,1.48.5,2,2,0,0,0,1.58-.69,2.87,2.87,0,0,0,.57-1.9,2.64,2.64,0,0,0-.62-1.83,2.11,2.11,0,0,0-1.65-.69,2.38,2.38,0,0,0-1.48.41l-.38.31Z"/><path class="cls-2" d="M426.12,176.92l.58-5.67h5.83v1.34h-4.6l-.34,3.1a3.67,3.67,0,0,1,1.9-.49,3.14,3.14,0,0,1,2.47,1,4,4,0,0,1,.91,2.78,3.89,3.89,0,0,1-.95,2.77,3.46,3.46,0,0,1-2.65,1,3.6,3.6,0,0,1-2.46-.84,3.34,3.34,0,0,1-1.09-2.31h1.37a2.3,2.3,0,0,0,.7,1.47,2.16,2.16,0,0,0,1.48.5,2,2,0,0,0,1.58-.69,2.87,2.87,0,0,0,.57-1.9,2.64,2.64,0,0,0-.62-1.83,2.11,2.11,0,0,0-1.65-.69,2.38,2.38,0,0,0-1.48.41l-.38.31Z"/><path class="cls-2" d="M440.11,171.24v1.23h-.27a3.81,3.81,0,0,0-2.69,1,4.16,4.16,0,0,0-1.16,2.73,3.09,3.09,0,0,1,2.45-1,3,3,0,0,1,2.37,1,4.59,4.59,0,0,1-.07,5.52,3.29,3.29,0,0,1-2.57,1.05,3.25,3.25,0,0,1-2.65-1.25,5,5,0,0,1-1-3.23v-.55a7.49,7.49,0,0,1,1.34-4.8,4.92,4.92,0,0,1,4-1.7Zm-1.9,5.13a2.43,2.43,0,0,0-2.23,1.56v.53a3.73,3.73,0,0,0,.63,2.27,1.9,1.9,0,0,0,1.58.86,1.84,1.84,0,0,0,1.54-.72,3.45,3.45,0,0,0,0-3.78A1.82,1.82,0,0,0,438.21,176.36Z"/><path class="cls-2" d="M448.17,182.62h-1.45V173l-2.91,1.07v-1.31l4.14-1.55h.23Z"/><path class="cls-2" d="M459.75,172.06,455,182.62h-1.52l4.7-10.19h-6.16v-1.19h7.69Z"/><path class="cls-2" d="M462.06,176.92l.58-5.67h5.83v1.34h-4.6l-.34,3.1a3.67,3.67,0,0,1,1.9-.49,3.14,3.14,0,0,1,2.47,1,4,4,0,0,1,.91,2.78,3.89,3.89,0,0,1-.95,2.77,3.46,3.46,0,0,1-2.65,1,3.6,3.6,0,0,1-2.46-.84,3.34,3.34,0,0,1-1.09-2.31H463a2.3,2.3,0,0,0,.7,1.47,2.16,2.16,0,0,0,1.48.5,2,2,0,0,0,1.58-.69,2.87,2.87,0,0,0,.57-1.9,2.64,2.64,0,0,0-.62-1.83,2.11,2.11,0,0,0-1.65-.69,2.38,2.38,0,0,0-1.48.41l-.38.31Z"/><path class="cls-2" d="M473.86,178.08a12.08,12.08,0,0,1-.46,3.34,9.87,9.87,0,0,1-1.4,2.95,6.13,6.13,0,0,1-2,1.92l-.3-.88a6.29,6.29,0,0,0,1.93-2.86,12.39,12.39,0,0,0,.75-4.31V178a12.85,12.85,0,0,0-.34-3.05,10.3,10.3,0,0,0-1-2.53,5.84,5.84,0,0,0-1.38-1.74l.3-.88a6.1,6.1,0,0,1,2,1.91,9.9,9.9,0,0,1,1.4,2.95A12.38,12.38,0,0,1,473.86,178.08Z"/><path class="cls-2" d="M226.64,205.78a3.07,3.07,0,0,1-2.48,1,2.63,2.63,0,0,1-2.06-.79,3.39,3.39,0,0,1-.71-2.32v-5.5h1.45v5.46q0,1.92,1.56,1.92a2.16,2.16,0,0,0,2.2-1.23v-6.15H228v8.45h-1.37Z"/><path class="cls-2" d="M235.17,204.38a1.07,1.07,0,0,0-.44-.91,4.25,4.25,0,0,0-1.54-.56,7.28,7.28,0,0,1-1.74-.56,2.48,2.48,0,0,1-1-.78,1.86,1.86,0,0,1-.31-1.08,2.19,2.19,0,0,1,.88-1.76,3.43,3.43,0,0,1,2.25-.72,3.53,3.53,0,0,1,2.33.74,2.36,2.36,0,0,1,.89,1.9h-1.45a1.31,1.31,0,0,0-.5-1,1.89,1.89,0,0,0-1.27-.43,2,2,0,0,0-1.23.34,1.08,1.08,0,0,0-.45.9.88.88,0,0,0,.41.79,5.08,5.08,0,0,0,1.5.51,7.82,7.82,0,0,1,1.75.58,2.56,2.56,0,0,1,1,.81,2,2,0,0,1,.32,1.15,2.16,2.16,0,0,1-.91,1.82,3.8,3.8,0,0,1-2.35.68,4.26,4.26,0,0,1-1.8-.36,2.92,2.92,0,0,1-1.22-1,2.42,2.42,0,0,1-.44-1.39h1.45a1.5,1.5,0,0,0,.58,1.15,2.26,2.26,0,0,0,1.43.43,2.33,2.33,0,0,0,1.32-.33A1,1,0,0,0,235.17,204.38Z"/><path class="cls-2" d="M241.5,202.38h-3.81V201.2h3.81Z"/><path class="cls-2" d="M246.42,206.78a3.69,3.69,0,0,1-2.8-1.13,4.19,4.19,0,0,1-1.08-3v-.27a5.07,5.07,0,0,1,.48-2.25,3.75,3.75,0,0,1,1.34-1.55,3.38,3.38,0,0,1,1.87-.56,3.17,3.17,0,0,1,2.56,1.09,4.7,4.7,0,0,1,.91,3.11v.6H244a3,3,0,0,0,.73,2,2.3,2.3,0,0,0,1.78.77,2.52,2.52,0,0,0,1.3-.31,3.25,3.25,0,0,0,.93-.83l.88.69A3.55,3.55,0,0,1,246.42,206.78Zm-.18-7.58a1.93,1.93,0,0,0-1.47.64,3.1,3.1,0,0,0-.73,1.79h4.23v-.11a2.75,2.75,0,0,0-.59-1.71A1.82,1.82,0,0,0,246.24,199.2Z"/><path class="cls-2" d="M256.6,206.62a3,3,0,0,1-.2-.89,3.22,3.22,0,0,1-2.41,1,3,3,0,0,1-2.05-.71,2.29,2.29,0,0,1-.8-1.79,2.39,2.39,0,0,1,1-2.05,4.73,4.73,0,0,1,2.82-.73h1.41v-.66a1.63,1.63,0,0,0-.45-1.21,1.82,1.82,0,0,0-1.34-.45,2.11,2.11,0,0,0-1.3.39,1.15,1.15,0,0,0-.52.95h-1.45a2,2,0,0,1,.45-1.22,3.07,3.07,0,0,1,1.22-.93,4.1,4.1,0,0,1,1.69-.34,3.34,3.34,0,0,1,2.29.73,2.64,2.64,0,0,1,.86,2v3.89a4.75,4.75,0,0,0,.3,1.85v.13Zm-2.4-1.1a2.54,2.54,0,0,0,1.29-.35,2.13,2.13,0,0,0,.88-.91v-1.73h-1.13q-2.66,0-2.66,1.55a1.32,1.32,0,0,0,.45,1.06A1.74,1.74,0,0,0,254.2,205.52Z"/><path class="cls-2" d="M265,204.38a1.07,1.07,0,0,0-.44-.91,4.25,4.25,0,0,0-1.54-.56,7.28,7.28,0,0,1-1.74-.56,2.48,2.48,0,0,1-1-.78,1.86,1.86,0,0,1-.31-1.08,2.19,2.19,0,0,1,.88-1.76,3.43,3.43,0,0,1,2.25-.72,3.53,3.53,0,0,1,2.33.74,2.36,2.36,0,0,1,.89,1.9h-1.45a1.31,1.31,0,0,0-.5-1,1.89,1.89,0,0,0-1.27-.43,2,2,0,0,0-1.23.34,1.08,1.08,0,0,0-.45.9.88.88,0,0,0,.41.79,5.08,5.08,0,0,0,1.5.51,7.82,7.82,0,0,1,1.75.58,2.56,2.56,0,0,1,1,.81,2,2,0,0,1,.32,1.15,2.16,2.16,0,0,1-.91,1.82,3.8,3.8,0,0,1-2.35.68,4.26,4.26,0,0,1-1.8-.36,2.92,2.92,0,0,1-1.22-1,2.42,2.42,0,0,1-.44-1.39h1.45a1.5,1.5,0,0,0,.58,1.15,2.26,2.26,0,0,0,1.43.43,2.33,2.33,0,0,0,1.32-.33A1,1,0,0,0,265,204.38Z"/><path class="cls-2" d="M270.3,196.12v2h1.58v1.12H270.3v5.25a1.17,1.17,0,0,0,.21.76.89.89,0,0,0,.72.25,3.5,3.5,0,0,0,.69-.09v1.17a4.21,4.21,0,0,1-1.11.16,1.8,1.8,0,0,1-1.46-.59,2.52,2.52,0,0,1-.49-1.66v-5.24h-1.54v-1.12h1.54v-2Z"/><path class="cls-2" d="M276.57,202.38h-3.81V201.2h3.81Z"/><path class="cls-2" d="M282.58,206.62h-1.45V197l-2.91,1.07v-1.31l4.14-1.55h.23Z"/><path class="cls-2" d="M227.93,227.64h-4.77l-1.07,3h-1.55l4.34-11.37h1.31l4.35,11.38H229Zm-4.31-1.23h3.87l-1.94-5.32Z"/><path class="cls-2" d="M233.6,229.39H239v1.23h-6.9V219.24h1.51Z"/><path class="cls-2" d="M247.13,227.64h-4.77l-1.07,3h-1.55l4.34-11.37h1.31l4.35,11.38h-1.54Zm-4.31-1.23h3.87l-1.94-5.32Z"/><path class="cls-2" d="M255.45,226h-2.67v4.6h-1.51V219.24H255a4.46,4.46,0,0,1,3,.88,3.15,3.15,0,0,1,1,2.55,3.06,3.06,0,0,1-.57,1.85,3.42,3.42,0,0,1-1.6,1.18l2.67,4.83v.09h-1.61Zm-2.67-1.23h2.3a2.6,2.6,0,0,0,1.78-.58,2,2,0,0,0,.66-1.55,2.06,2.06,0,0,0-.63-1.62,2.66,2.66,0,0,0-1.82-.57h-2.3Z"/><path class="cls-2" d="M263.07,219.24l3.72,9.28,3.72-9.28h1.95v11.38H271v-4.43l.14-4.78-3.73,9.21h-1.15l-3.73-9.19.15,4.76v4.43h-1.5V219.24Z"/><path class="cls-2" d="M229.51,244.47h-3.66v10.15h-1.49V244.47h-3.65v-1.23h8.8Z"/><path class="cls-2" d="M232.42,247.19a3.07,3.07,0,0,1,2.5-1.18q2.68,0,2.7,3v5.59h-1.45V249a1.94,1.94,0,0,0-.42-1.35,1.68,1.68,0,0,0-1.28-.44,2.09,2.09,0,0,0-1.23.38,2.55,2.55,0,0,0-.83,1v6H231v-12h1.45Z"/><path class="cls-2" d="M243.87,247.46a4.37,4.37,0,0,0-.71-.05,1.9,1.9,0,0,0-1.93,1.21v6h-1.45v-8.45h1.41l0,1a2.25,2.25,0,0,1,2-1.13,1.48,1.48,0,0,1,.64.11Z"/><path class="cls-2" d="M248.7,254.78a3.69,3.69,0,0,1-2.8-1.13,4.19,4.19,0,0,1-1.08-3v-.27a5.07,5.07,0,0,1,.48-2.25,3.75,3.75,0,0,1,1.34-1.55,3.38,3.38,0,0,1,1.87-.56,3.17,3.17,0,0,1,2.56,1.09,4.7,4.7,0,0,1,.91,3.11v.6h-5.73a3,3,0,0,0,.73,2,2.3,2.3,0,0,0,1.78.77,2.52,2.52,0,0,0,1.3-.31,3.25,3.25,0,0,0,.93-.83l.88.69A3.55,3.55,0,0,1,248.7,254.78Zm-.18-7.58a1.93,1.93,0,0,0-1.47.64,3.1,3.1,0,0,0-.73,1.79h4.23v-.11a2.75,2.75,0,0,0-.59-1.71A1.82,1.82,0,0,0,248.52,247.2Z"/><path class="cls-2" d="M258.6,252.38a1.07,1.07,0,0,0-.44-.91,4.25,4.25,0,0,0-1.54-.56,7.28,7.28,0,0,1-1.74-.56,2.48,2.48,0,0,1-1-.78,1.86,1.86,0,0,1-.31-1.08,2.19,2.19,0,0,1,.88-1.76,3.43,3.43,0,0,1,2.25-.72,3.53,3.53,0,0,1,2.33.74,2.36,2.36,0,0,1,.89,1.9h-1.45a1.31,1.31,0,0,0-.5-1,1.89,1.89,0,0,0-1.27-.43,2,2,0,0,0-1.23.34,1.08,1.08,0,0,0-.45.9.88.88,0,0,0,.41.79,5.08,5.08,0,0,0,1.5.51,7.82,7.82,0,0,1,1.75.58,2.56,2.56,0,0,1,1,.81,2,2,0,0,1,.32,1.15,2.16,2.16,0,0,1-.91,1.82,3.8,3.8,0,0,1-2.35.68,4.26,4.26,0,0,1-1.8-.36,2.92,2.92,0,0,1-1.22-1,2.42,2.42,0,0,1-.44-1.39h1.45a1.5,1.5,0,0,0,.58,1.15,2.26,2.26,0,0,0,1.43.43,2.33,2.33,0,0,0,1.32-.33A1,1,0,0,0,258.6,252.38Z"/><path class="cls-2" d="M263.37,247.19a3.07,3.07,0,0,1,2.5-1.18q2.68,0,2.7,3v5.59h-1.45V249a1.94,1.94,0,0,0-.42-1.35,1.68,1.68,0,0,0-1.28-.44,2.09,2.09,0,0,0-1.23.38,2.55,2.55,0,0,0-.83,1v6h-1.45v-12h1.45Z"/><path class="cls-2" d="M270.35,250.31a5,5,0,0,1,.49-2.23,3.64,3.64,0,0,1,1.36-1.53,3.7,3.7,0,0,1,2-.54,3.56,3.56,0,0,1,2.79,1.2,4.6,4.6,0,0,1,1.07,3.18v.1a5,5,0,0,1-.47,2.21,3.59,3.59,0,0,1-1.35,1.53,3.74,3.74,0,0,1-2,.55,3.56,3.56,0,0,1-2.79-1.2,4.58,4.58,0,0,1-1.07-3.16Zm1.45.17a3.62,3.62,0,0,0,.65,2.26,2.21,2.21,0,0,0,3.5,0,4,4,0,0,0,.65-2.42,3.61,3.61,0,0,0-.66-2.25,2.1,2.1,0,0,0-1.75-.86,2.08,2.08,0,0,0-1.73.85A3.93,3.93,0,0,0,271.81,250.49Z"/><path class="cls-2" d="M281.43,254.62H280v-12h1.45Z"/><path class="cls-2" d="M283.39,250.32a5,5,0,0,1,.92-3.13,3.14,3.14,0,0,1,4.77-.17v-4.41h1.45v12H289.2l-.07-.91a2.94,2.94,0,0,1-2.41,1.06,2.89,2.89,0,0,1-2.39-1.2,5,5,0,0,1-.93-3.14Zm1.45.16a3.75,3.75,0,0,0,.59,2.25,1.92,1.92,0,0,0,1.64.81,2.11,2.11,0,0,0,2-1.23v-3.88a2.13,2.13,0,0,0-2-1.2,1.93,1.93,0,0,0-1.66.82A4.13,4.13,0,0,0,284.84,250.49Z"/><path class="cls-2" d="M305.32,251a4.19,4.19,0,0,1-1.33,2.79,4.36,4.36,0,0,1-3,1,4,4,0,0,1-3.23-1.45,5.82,5.82,0,0,1-1.21-3.87v-1.09a6.48,6.48,0,0,1,.57-2.79,4.24,4.24,0,0,1,1.61-1.85,4.47,4.47,0,0,1,2.41-.64,4.11,4.11,0,0,1,2.91,1,4.24,4.24,0,0,1,1.27,2.8h-1.51a3.27,3.27,0,0,0-.85-2,2.56,2.56,0,0,0-1.82-.61,2.68,2.68,0,0,0-2.25,1.06,4.88,4.88,0,0,0-.82,3v1.1a5,5,0,0,0,.77,2.95,2.5,2.5,0,0,0,2.16,1.09,2.89,2.89,0,0,0,1.92-.57,3.14,3.14,0,0,0,.89-2Z"/><path class="cls-2" d="M311.23,247.46a4.37,4.37,0,0,0-.71-.05,1.9,1.9,0,0,0-1.93,1.21v6h-1.45v-8.45h1.41l0,1a2.25,2.25,0,0,1,2-1.13,1.48,1.48,0,0,1,.64.11Z"/><path class="cls-2" d="M312,250.31a5,5,0,0,1,.49-2.23,3.64,3.64,0,0,1,1.36-1.53,3.7,3.7,0,0,1,2-.54,3.56,3.56,0,0,1,2.79,1.2,4.6,4.6,0,0,1,1.07,3.18v.1a5,5,0,0,1-.47,2.21,3.59,3.59,0,0,1-1.35,1.53,3.74,3.74,0,0,1-2,.55,3.56,3.56,0,0,1-2.79-1.2,4.58,4.58,0,0,1-1.07-3.16Zm1.45.17a3.62,3.62,0,0,0,.65,2.26,2.21,2.21,0,0,0,3.5,0,4,4,0,0,0,.65-2.42,3.61,3.61,0,0,0-.66-2.25,2.1,2.1,0,0,0-1.75-.86,2.08,2.08,0,0,0-1.73.85A3.93,3.93,0,0,0,313.47,250.49Z"/><path class="cls-2" d="M326.45,252.38a1.07,1.07,0,0,0-.44-.91,4.25,4.25,0,0,0-1.54-.56,7.28,7.28,0,0,1-1.74-.56,2.48,2.48,0,0,1-1-.78,1.86,1.86,0,0,1-.31-1.08,2.19,2.19,0,0,1,.88-1.76,3.43,3.43,0,0,1,2.25-.72,3.53,3.53,0,0,1,2.33.74,2.36,2.36,0,0,1,.89,1.9h-1.45a1.31,1.31,0,0,0-.5-1,1.89,1.89,0,0,0-1.27-.43,2,2,0,0,0-1.23.34,1.08,1.08,0,0,0-.45.9.88.88,0,0,0,.41.79,5.08,5.08,0,0,0,1.5.51,7.82,7.82,0,0,1,1.75.58,2.56,2.56,0,0,1,1,.81,2,2,0,0,1,.32,1.15,2.16,2.16,0,0,1-.91,1.82,3.8,3.8,0,0,1-2.35.68,4.26,4.26,0,0,1-1.8-.36,2.92,2.92,0,0,1-1.22-1,2.42,2.42,0,0,1-.44-1.39h1.45a1.5,1.5,0,0,0,.58,1.15,2.26,2.26,0,0,0,1.43.43,2.33,2.33,0,0,0,1.32-.33A1,1,0,0,0,326.45,252.38Z"/><path class="cls-2" d="M334.7,252.38a1.07,1.07,0,0,0-.44-.91,4.25,4.25,0,0,0-1.54-.56,7.28,7.28,0,0,1-1.74-.56,2.48,2.48,0,0,1-1-.78,1.86,1.86,0,0,1-.31-1.08,2.19,2.19,0,0,1,.88-1.76,3.43,3.43,0,0,1,2.25-.72,3.53,3.53,0,0,1,2.33.74,2.36,2.36,0,0,1,.89,1.9h-1.45a1.31,1.31,0,0,0-.5-1,1.89,1.89,0,0,0-1.27-.43,2,2,0,0,0-1.23.34,1.08,1.08,0,0,0-.45.9.88.88,0,0,0,.41.79,5.08,5.08,0,0,0,1.5.51,7.82,7.82,0,0,1,1.75.58,2.56,2.56,0,0,1,1,.81,2,2,0,0,1,.32,1.15,2.16,2.16,0,0,1-.91,1.82,3.8,3.8,0,0,1-2.35.68,4.26,4.26,0,0,1-1.8-.36,2.92,2.92,0,0,1-1.22-1,2.42,2.42,0,0,1-.44-1.39h1.45a1.5,1.5,0,0,0,.58,1.15,2.26,2.26,0,0,0,1.43.43,2.33,2.33,0,0,0,1.32-.33A1,1,0,0,0,334.7,252.38Z"/><path class="cls-2" d="M341.53,254.78a3.69,3.69,0,0,1-2.8-1.13,4.19,4.19,0,0,1-1.08-3v-.27a5.07,5.07,0,0,1,.48-2.25,3.75,3.75,0,0,1,1.34-1.55,3.38,3.38,0,0,1,1.87-.56,3.17,3.17,0,0,1,2.56,1.09,4.7,4.7,0,0,1,.91,3.11v.6H339.1a3,3,0,0,0,.73,2,2.3,2.3,0,0,0,1.78.77,2.52,2.52,0,0,0,1.3-.31,3.25,3.25,0,0,0,.93-.83l.88.69A3.55,3.55,0,0,1,341.53,254.78Zm-.18-7.58a1.93,1.93,0,0,0-1.47.64,3.1,3.1,0,0,0-.73,1.79h4.23v-.11a2.75,2.75,0,0,0-.59-1.71A1.82,1.82,0,0,0,341.35,247.2Z"/><path class="cls-2" d="M346.15,250.32a5,5,0,0,1,.92-3.13,3.14,3.14,0,0,1,4.77-.17v-4.41h1.45v12H352l-.07-.91a2.94,2.94,0,0,1-2.41,1.06,2.89,2.89,0,0,1-2.39-1.2,5,5,0,0,1-.93-3.14Zm1.45.16a3.75,3.75,0,0,0,.59,2.25,1.92,1.92,0,0,0,1.64.81,2.11,2.11,0,0,0,2-1.23v-3.88a2.13,2.13,0,0,0-2-1.2,1.93,1.93,0,0,0-1.66.82A4.13,4.13,0,0,0,347.6,250.49Z"/><path class="cls-2" d="M355.48,253.86a.91.91,0,0,1,.22-.62.85.85,0,0,1,.67-.25.87.87,0,0,1,.68.25.89.89,0,0,1,.23.63.84.84,0,0,1-.23.6.89.89,0,0,1-.68.24.86.86,0,0,1-.67-.24A.85.85,0,0,1,355.48,253.86Zm0-6.9a.91.91,0,0,1,.22-.62.85.85,0,0,1,.67-.25.87.87,0,0,1,.68.25.89.89,0,0,1,.23.63.84.84,0,0,1-.23.6.89.89,0,0,1-.68.24.8.8,0,0,1-.89-.84Z"/><path class="cls-2" d="M368,254.62h-1.45V245l-2.91,1.07v-1.31l4.14-1.55H368Z"/><path class="cls-2" d="M376,250.32a5,5,0,0,1,.92-3.13,3.14,3.14,0,0,1,4.77-.17v-4.41h1.45v12h-1.33l-.07-.91a2.94,2.94,0,0,1-2.41,1.06,2.89,2.89,0,0,1-2.39-1.2,5,5,0,0,1-.93-3.14Zm1.45.16a3.75,3.75,0,0,0,.59,2.25,1.92,1.92,0,0,0,1.64.81,2.11,2.11,0,0,0,2-1.23v-3.88a2.13,2.13,0,0,0-2-1.2,1.93,1.93,0,0,0-1.66.82A4.13,4.13,0,0,0,377.4,250.49Z"/><path class="cls-2" d="M390.55,254.62a3,3,0,0,1-.2-.89,3.22,3.22,0,0,1-2.41,1,3,3,0,0,1-2.05-.71,2.29,2.29,0,0,1-.8-1.79,2.39,2.39,0,0,1,1-2.05,4.73,4.73,0,0,1,2.82-.73h1.41v-.66a1.63,1.63,0,0,0-.45-1.21,1.82,1.82,0,0,0-1.34-.45,2.11,2.11,0,0,0-1.3.39,1.15,1.15,0,0,0-.52.95h-1.45a2,2,0,0,1,.45-1.22,3.07,3.07,0,0,1,1.22-.93,4.1,4.1,0,0,1,1.69-.34,3.34,3.34,0,0,1,2.29.73,2.64,2.64,0,0,1,.86,2v3.89a4.75,4.75,0,0,0,.3,1.85v.13Zm-2.4-1.1a2.54,2.54,0,0,0,1.29-.35,2.13,2.13,0,0,0,.88-.91v-1.73h-1.13q-2.66,0-2.66,1.55a1.32,1.32,0,0,0,.45,1.06A1.74,1.74,0,0,0,388.15,253.52Z"/><path class="cls-2" d="M396,244.12v2h1.58v1.12H396v5.25a1.17,1.17,0,0,0,.21.76.89.89,0,0,0,.72.25,3.5,3.5,0,0,0,.69-.09v1.17a4.21,4.21,0,0,1-1.11.16,1.8,1.8,0,0,1-1.46-.59,2.52,2.52,0,0,1-.49-1.66v-5.24H393v-1.12h1.54v-2Z"/><path class="cls-2" d="M404.48,254.62a3,3,0,0,1-.2-.89,3.22,3.22,0,0,1-2.41,1,3,3,0,0,1-2.05-.71,2.29,2.29,0,0,1-.8-1.79,2.39,2.39,0,0,1,1-2.05,4.73,4.73,0,0,1,2.82-.73h1.41v-.66a1.63,1.63,0,0,0-.45-1.21,1.82,1.82,0,0,0-1.34-.45,2.11,2.11,0,0,0-1.3.39,1.15,1.15,0,0,0-.52.95h-1.45a2,2,0,0,1,.45-1.22,3.07,3.07,0,0,1,1.22-.93,4.1,4.1,0,0,1,1.69-.34,3.34,3.34,0,0,1,2.29.73,2.64,2.64,0,0,1,.86,2v3.89a4.75,4.75,0,0,0,.3,1.85v.13Zm-2.4-1.1a2.54,2.54,0,0,0,1.29-.35,2.13,2.13,0,0,0,.88-.91v-1.73h-1.13q-2.66,0-2.66,1.55a1.32,1.32,0,0,0,.45,1.06A1.74,1.74,0,0,0,402.08,253.52Z"/><path class="cls-2" d="M415.1,250.49a5.06,5.06,0,0,1-.88,3.11,2.83,2.83,0,0,1-2.39,1.18,3.1,3.1,0,0,1-2.42-1v4.07H408v-11.7h1.32l.07.94a3,3,0,0,1,2.45-1.09,2.88,2.88,0,0,1,2.41,1.15,5.12,5.12,0,0,1,.89,3.2Zm-1.45-.16a3.74,3.74,0,0,0-.61-2.26,2,2,0,0,0-1.67-.83,2.12,2.12,0,0,0-2,1.16v4a2.13,2.13,0,0,0,2,1.16,2,2,0,0,0,1.65-.82A4.07,4.07,0,0,0,413.66,250.32Z"/><path class="cls-2" d="M416.56,250.31a5,5,0,0,1,.49-2.23,3.64,3.64,0,0,1,1.36-1.53,3.7,3.7,0,0,1,2-.54,3.56,3.56,0,0,1,2.79,1.2,4.6,4.6,0,0,1,1.07,3.18v.1a5,5,0,0,1-.47,2.21,3.59,3.59,0,0,1-1.35,1.53,3.74,3.74,0,0,1-2,.55,3.56,3.56,0,0,1-2.79-1.2,4.58,4.58,0,0,1-1.07-3.16Zm1.45.17a3.62,3.62,0,0,0,.65,2.26,2.21,2.21,0,0,0,3.5,0,4,4,0,0,0,.65-2.42,3.61,3.61,0,0,0-.66-2.25,2.1,2.1,0,0,0-1.75-.86,2.08,2.08,0,0,0-1.73.85A3.93,3.93,0,0,0,418,250.49Z"/><path class="cls-2" d="M426.07,243.92a.86.86,0,0,1,.21-.59.81.81,0,0,1,.64-.24.82.82,0,0,1,.64.24.86.86,0,0,1,.22.59.86.86,0,1,1-1.71,0Zm1.56,10.7h-1.45v-8.45h1.45Z"/><path class="cls-2" d="M431.31,246.17l0,1.06a3.08,3.08,0,0,1,2.53-1.22q2.68,0,2.7,3v5.59h-1.45V249a1.94,1.94,0,0,0-.42-1.35,1.68,1.68,0,0,0-1.28-.44,2.09,2.09,0,0,0-1.23.38,2.55,2.55,0,0,0-.83,1v6h-1.45v-8.45Z"/><path class="cls-2" d="M440.74,244.12v2h1.58v1.12h-1.58v5.25a1.17,1.17,0,0,0,.21.76.89.89,0,0,0,.72.25,3.5,3.5,0,0,0,.69-.09v1.17a4.21,4.21,0,0,1-1.11.16,1.8,1.8,0,0,1-1.46-.59,2.52,2.52,0,0,1-.49-1.66v-5.24h-1.54v-1.12h1.54v-2Z"/><path class="cls-2" d="M447.91,250a12.07,12.07,0,0,1,.47-3.39,9.86,9.86,0,0,1,1.41-3,6,6,0,0,1,1.95-1.87l.3,1a6.22,6.22,0,0,0-1.87,2.67,11.58,11.58,0,0,0-.8,4v.66a11.64,11.64,0,0,0,1.1,5.23,6.25,6.25,0,0,0,1.58,2.08l-.3.88a6.2,6.2,0,0,1-2-1.94A10.86,10.86,0,0,1,447.91,250Z"/><path class="cls-2" d="M460.42,249.77a6.61,6.61,0,0,1-.87,3.77,3.6,3.6,0,0,1-5.41,0,6.27,6.27,0,0,1-.91-3.61V248a6.46,6.46,0,0,1,.87-3.73,3.67,3.67,0,0,1,5.42,0,6.24,6.24,0,0,1,.89,3.63Zm-1.45-2a5.3,5.3,0,0,0-.52-2.68,1.78,1.78,0,0,0-1.63-.84,1.75,1.75,0,0,0-1.62.84,5.17,5.17,0,0,0-.52,2.57V250a5.38,5.38,0,0,0,.54,2.72,1.77,1.77,0,0,0,1.62.88,1.75,1.75,0,0,0,1.59-.83,5.18,5.18,0,0,0,.54-2.61Z"/><path class="cls-2" d="M462.45,253.86a.91.91,0,0,1,.22-.62.85.85,0,0,1,.67-.25.87.87,0,0,1,.68.25.89.89,0,0,1,.23.63.84.84,0,0,1-.23.6.89.89,0,0,1-.68.24.86.86,0,0,1-.67-.24A.85.85,0,0,1,462.45,253.86Z"/><path class="cls-2" d="M473.61,249.77a6.61,6.61,0,0,1-.87,3.77,3.6,3.6,0,0,1-5.41,0,6.27,6.27,0,0,1-.91-3.61V248a6.46,6.46,0,0,1,.87-3.73,3.67,3.67,0,0,1,5.42,0,6.24,6.24,0,0,1,.89,3.63Zm-1.45-2a5.3,5.3,0,0,0-.52-2.68,1.78,1.78,0,0,0-1.63-.84,1.75,1.75,0,0,0-1.62.84,5.17,5.17,0,0,0-.52,2.57V250a5.38,5.38,0,0,0,.54,2.72,1.77,1.77,0,0,0,1.62.88,1.75,1.75,0,0,0,1.59-.83,5.18,5.18,0,0,0,.54-2.61Z"/><path class="cls-2" d="M478.95,250.08a12.08,12.08,0,0,1-.46,3.34,9.87,9.87,0,0,1-1.4,2.95,6.13,6.13,0,0,1-2,1.92l-.3-.88a6.29,6.29,0,0,0,1.93-2.86,12.39,12.39,0,0,0,.75-4.31V250a12.85,12.85,0,0,0-.34-3.05,10.3,10.3,0,0,0-1-2.53,5.84,5.84,0,0,0-1.38-1.74l.3-.88a6.1,6.1,0,0,1,2,1.91,9.9,9.9,0,0,1,1.4,2.95A12.38,12.38,0,0,1,478.95,250.08Z"/><rect class="cls-1" x="9.02" y="207.65" width="393.68" height="8"/><rect class="cls-1" x="9.02" y="231.65" width="393.68" height="8"/><rect class="cls-1" x="9.02" y="183.15" width="393.68" height="8"/><rect class="cls-3" x="25.19" y="145.81" width="175.79" height="122.92"/><path class="cls-2" d="M223.78,19.47h-1.45V9.84l-2.91,1.07V9.6L223.55,8h.23Z"/><path class="cls-2" d="M234.33,8.09V9.32h-.27a3.81,3.81,0,0,0-2.69,1A4.16,4.16,0,0,0,230.22,13a3.09,3.09,0,0,1,2.45-1,3,3,0,0,1,2.37,1,4,4,0,0,1,.89,2.7,4,4,0,0,1-1,2.81,3.29,3.29,0,0,1-2.57,1.05,3.25,3.25,0,0,1-2.65-1.25,5,5,0,0,1-1-3.23v-.55a7.49,7.49,0,0,1,1.34-4.8,4.92,4.92,0,0,1,4-1.7Zm-1.9,5.13a2.43,2.43,0,0,0-2.23,1.56v.53a3.73,3.73,0,0,0,.63,2.27,1.9,1.9,0,0,0,1.58.86,1.84,1.84,0,0,0,1.54-.72,3,3,0,0,0,.56-1.88,3,3,0,0,0-.57-1.89A1.82,1.82,0,0,0,232.43,13.22Z"/><path class="cls-2" d="M245.41,14.62a6.61,6.61,0,0,1-.87,3.77,3.6,3.6,0,0,1-5.41,0,6.27,6.27,0,0,1-.91-3.61V12.89a6.46,6.46,0,0,1,.87-3.73,3.67,3.67,0,0,1,5.42,0,6.24,6.24,0,0,1,.89,3.63Zm-1.45-2a5.3,5.3,0,0,0-.52-2.68,1.78,1.78,0,0,0-1.63-.84,1.75,1.75,0,0,0-1.62.84,5.17,5.17,0,0,0-.52,2.57v2.31a5.38,5.38,0,0,0,.54,2.72,1.77,1.77,0,0,0,1.62.88,1.75,1.75,0,0,0,1.59-.83A5.18,5.18,0,0,0,244,15Z"/><path class="cls-2" d="M255.25,8.91l-4.71,10.56H249l4.7-10.19h-6.16V8.1h7.69Z"/><path class="cls-2" d="M265,19.47h-7.45v-1l3.94-4.38a9.38,9.38,0,0,0,1.21-1.61,2.69,2.69,0,0,0,.33-1.29,2,2,0,0,0-.54-1.46A1.89,1.89,0,0,0,261,9.13a2.23,2.23,0,0,0-1.68.61,2.34,2.34,0,0,0-.6,1.71h-1.45a3.35,3.35,0,0,1,1-2.54,3.75,3.75,0,0,1,2.71-1,3.6,3.6,0,0,1,2.51.83,2.84,2.84,0,0,1,.92,2.21q0,1.68-2.14,4l-3,3.3H265Z"/><path class="cls-2" d="M274.6,19.47h-7.45v-1l3.94-4.38a9.38,9.38,0,0,0,1.21-1.61,2.69,2.69,0,0,0,.33-1.29,2,2,0,0,0-.54-1.46,1.89,1.89,0,0,0-1.44-.57,2.23,2.23,0,0,0-1.68.61,2.34,2.34,0,0,0-.6,1.71h-1.45a3.35,3.35,0,0,1,1-2.54,3.75,3.75,0,0,1,2.71-1,3.6,3.6,0,0,1,2.51.83,2.84,2.84,0,0,1,.92,2.21q0,1.68-2.14,4l-3,3.3h5.71Z"/><path class="cls-2" d="M279.93,15.23h-3.81V14.05h3.81Z"/><path class="cls-2" d="M281.63,15.18a5,5,0,0,1,.92-3.13,3.14,3.14,0,0,1,4.77-.17V7.47h1.45v12h-1.33l-.07-.91a2.94,2.94,0,0,1-2.41,1.06,2.89,2.89,0,0,1-2.39-1.2,5,5,0,0,1-.93-3.14Zm1.45.16a3.75,3.75,0,0,0,.59,2.25,1.92,1.92,0,0,0,1.64.81,2.11,2.11,0,0,0,2-1.23V13.29a2.13,2.13,0,0,0-2-1.2,1.93,1.93,0,0,0-1.66.82A4.13,4.13,0,0,0,283.07,15.34Z"/><path class="cls-2" d="M292.35,19.47V12.14H291V11h1.34v-.87a2.88,2.88,0,0,1,.73-2.1,2.74,2.74,0,0,1,2.05-.74,3.82,3.82,0,0,1,1,.13L296,8.61a4.15,4.15,0,0,0-.78-.07,1.41,1.41,0,0,0-1.09.41,1.67,1.67,0,0,0-.38,1.18V11h1.8v1.12h-1.8v7.34Z"/><path class="cls-2" d="M305.32,17.48,306.95,11h1.45l-2.46,8.45h-1.17l-2.05-6.41-2,6.41h-1.17L297.08,11h1.44l1.66,6.33,2-6.33h1.16Z"/><path class="cls-2" d="M313.51,15.23H309.7V14.05h3.81Z"/><path class="cls-2" d="M322.54,14.62a6.61,6.61,0,0,1-.87,3.77,3.6,3.6,0,0,1-5.41,0,6.27,6.27,0,0,1-.91-3.61V12.89a6.46,6.46,0,0,1,.87-3.73,3.67,3.67,0,0,1,5.42,0,6.24,6.24,0,0,1,.89,3.63Zm-1.45-2a5.3,5.3,0,0,0-.52-2.68,1.78,1.78,0,0,0-1.63-.84,1.75,1.75,0,0,0-1.62.84,5.17,5.17,0,0,0-.52,2.57v2.31a5.38,5.38,0,0,0,.54,2.72,1.77,1.77,0,0,0,1.62.88,1.75,1.75,0,0,0,1.59-.83,5.18,5.18,0,0,0,.54-2.61Z"/><path class="cls-2" d="M332.16,14.62a6.61,6.61,0,0,1-.87,3.77,3.6,3.6,0,0,1-5.41,0,6.27,6.27,0,0,1-.91-3.61V12.89a6.46,6.46,0,0,1,.87-3.73,3.67,3.67,0,0,1,5.42,0,6.24,6.24,0,0,1,.89,3.63Zm-1.45-2A5.3,5.3,0,0,0,330.2,10a1.78,1.78,0,0,0-1.63-.84A1.75,1.75,0,0,0,327,10a5.17,5.17,0,0,0-.52,2.57v2.31a5.38,5.38,0,0,0,.54,2.72,1.77,1.77,0,0,0,1.62.88,1.75,1.75,0,0,0,1.59-.83,5.18,5.18,0,0,0,.54-2.61Z"/><path class="cls-2" d="M341.79,14.62a6.61,6.61,0,0,1-.87,3.77,3.6,3.6,0,0,1-5.41,0,6.27,6.27,0,0,1-.91-3.61V12.89a6.46,6.46,0,0,1,.87-3.73,3.67,3.67,0,0,1,5.42,0,6.24,6.24,0,0,1,.89,3.63Zm-1.45-2a5.3,5.3,0,0,0-.52-2.68,1.78,1.78,0,0,0-1.63-.84,1.75,1.75,0,0,0-1.62.84,5.17,5.17,0,0,0-.52,2.57v2.31a5.38,5.38,0,0,0,.54,2.72,1.77,1.77,0,0,0,1.62.88,1.75,1.75,0,0,0,1.59-.83,5.18,5.18,0,0,0,.54-2.61Z"/><path class="cls-2" d="M351.73,19.47h-7.45v-1l3.94-4.38a9.38,9.38,0,0,0,1.21-1.61,2.69,2.69,0,0,0,.33-1.29,2,2,0,0,0-.54-1.46,1.89,1.89,0,0,0-1.44-.57,2.23,2.23,0,0,0-1.68.61,2.34,2.34,0,0,0-.6,1.71h-1.45a3.35,3.35,0,0,1,1-2.54,3.75,3.75,0,0,1,2.71-1,3.6,3.6,0,0,1,2.51.83,2.84,2.84,0,0,1,.92,2.21q0,1.68-2.14,4l-3,3.3h5.71Z"/><path class="cls-2" d="M359.57,8.09V9.32h-.27a3.81,3.81,0,0,0-2.69,1A4.16,4.16,0,0,0,355.47,13a3.09,3.09,0,0,1,2.45-1,3,3,0,0,1,2.37,1,4,4,0,0,1,.89,2.7,4,4,0,0,1-1,2.81,3.29,3.29,0,0,1-2.57,1.05A3.25,3.25,0,0,1,355,18.38a5,5,0,0,1-1-3.23v-.55a7.49,7.49,0,0,1,1.34-4.8,4.92,4.92,0,0,1,4-1.7Zm-1.9,5.13a2.43,2.43,0,0,0-2.23,1.56v.53a3.73,3.73,0,0,0,.63,2.27,1.9,1.9,0,0,0,1.58.86,1.84,1.84,0,0,0,1.54-.72,3,3,0,0,0,.56-1.88,3,3,0,0,0-.57-1.89A1.82,1.82,0,0,0,357.68,13.22Z"/><path class="cls-2" d="M364.19,13.77l.58-5.67h5.83V9.43H366l-.34,3.1a3.67,3.67,0,0,1,1.9-.49,3.14,3.14,0,0,1,2.47,1,4,4,0,0,1,.91,2.78,3.89,3.89,0,0,1-.95,2.77,3.46,3.46,0,0,1-2.65,1,3.6,3.6,0,0,1-2.46-.84,3.34,3.34,0,0,1-1.09-2.31h1.37a2.3,2.3,0,0,0,.7,1.47,2.16,2.16,0,0,0,1.48.5,2,2,0,0,0,1.58-.69,2.87,2.87,0,0,0,.57-1.9,2.64,2.64,0,0,0-.62-1.83,2.11,2.11,0,0,0-1.65-.69,2.38,2.38,0,0,0-1.48.41l-.38.31Z"/><path class="cls-2" d="M379.25,15.65h1.58v1.18h-1.58v2.64H377.8V16.83h-5.18V16l5.09-7.88h1.54Zm-5,0h3.54V10.08l-.17.31Z"/><path class="cls-2" d="M225.93,35.07a2.64,2.64,0,0,1-.45,1.52,3.06,3.06,0,0,1-1.21,1,3.27,3.27,0,0,1,1.41,1.12,2.81,2.81,0,0,1,.52,1.66,3,3,0,0,1-1,2.35,4.37,4.37,0,0,1-5.25,0,3,3,0,0,1-1-2.35,2.9,2.9,0,0,1,.5-1.66,3.14,3.14,0,0,1,1.39-1.12,3,3,0,0,1-1.2-1,2.68,2.68,0,0,1-.44-1.51,2.94,2.94,0,0,1,.92-2.28,3.91,3.91,0,0,1,4.86,0A2.93,2.93,0,0,1,225.93,35.07Zm-1.18,5.3a2.1,2.1,0,0,0-.61-1.55,2.15,2.15,0,0,0-1.58-.6,2,2,0,0,0-2.16,2.16A2,2,0,0,0,221,41.9a2.57,2.57,0,0,0,3.19,0A2,2,0,0,0,224.75,40.37Zm-2.17-7.24a1.87,1.87,0,0,0-1.38.53,2.18,2.18,0,0,0,0,2.84,2.06,2.06,0,0,0,2.77,0,2.14,2.14,0,0,0,0-2.82A1.84,1.84,0,0,0,222.58,33.13Z"/><path class="cls-2" d="M235.15,38.62a6.61,6.61,0,0,1-.87,3.77,3.6,3.6,0,0,1-5.41,0,6.27,6.27,0,0,1-.91-3.61V36.89a6.46,6.46,0,0,1,.87-3.73,3.67,3.67,0,0,1,5.42,0,6.24,6.24,0,0,1,.89,3.63Zm-1.45-2a5.3,5.3,0,0,0-.52-2.68,1.78,1.78,0,0,0-1.63-.84,1.75,1.75,0,0,0-1.62.84,5.17,5.17,0,0,0-.52,2.57v2.31a5.38,5.38,0,0,0,.54,2.72,1.77,1.77,0,0,0,1.62.88,1.75,1.75,0,0,0,1.59-.83A5.18,5.18,0,0,0,233.7,39Z"/><path class="cls-2" d="M242.54,38.47a3.54,3.54,0,0,1-1.08.87,2.93,2.93,0,0,1-1.38.33,3,3,0,0,1-1.71-.48,3.15,3.15,0,0,1-1.13-1.36,4.65,4.65,0,0,1-.4-1.94,4.74,4.74,0,0,1,.43-2.05,3.19,3.19,0,0,1,1.23-1.4,3.51,3.51,0,0,1,1.86-.48A3.18,3.18,0,0,1,243,33.2a5.5,5.5,0,0,1,1,3.44v.42q0,3.32-1.31,4.85a5,5,0,0,1-4,1.57h-.28V42.26h.3a3.44,3.44,0,0,0,3.8-3.78Zm-2.23,0a2.23,2.23,0,0,0,1.34-.45,2.62,2.62,0,0,0,.89-1.1v-.58a4,4,0,0,0-.62-2.31,1.89,1.89,0,0,0-3.09-.16,3,3,0,0,0-.58,1.93,3.14,3.14,0,0,0,.56,1.92A1.77,1.77,0,0,0,240.31,38.47Z"/><path class="cls-2" d="M246.65,37.77l.58-5.67h5.83v1.34h-4.6l-.34,3.1A3.67,3.67,0,0,1,250,36a3.14,3.14,0,0,1,2.47,1,4,4,0,0,1,.91,2.78,3.89,3.89,0,0,1-.95,2.77,3.46,3.46,0,0,1-2.65,1,3.6,3.6,0,0,1-2.46-.84,3.34,3.34,0,0,1-1.09-2.31h1.37a2.3,2.3,0,0,0,.7,1.47,2.16,2.16,0,0,0,1.48.5,2,2,0,0,0,1.58-.69,2.87,2.87,0,0,0,.57-1.9,2.64,2.64,0,0,0-.62-1.83,2.11,2.11,0,0,0-1.65-.69,2.38,2.38,0,0,0-1.48.41l-.38.31Z"/><path class="cls-2" d="M262.1,38.62a6.61,6.61,0,0,1-.87,3.77,3.6,3.6,0,0,1-5.41,0,6.27,6.27,0,0,1-.91-3.61V36.89a6.46,6.46,0,0,1,.87-3.73,3.67,3.67,0,0,1,5.42,0,6.24,6.24,0,0,1,.89,3.63Zm-1.45-2a5.3,5.3,0,0,0-.52-2.68,1.78,1.78,0,0,0-1.63-.84,1.75,1.75,0,0,0-1.62.84,5.17,5.17,0,0,0-.52,2.57v2.31a5.38,5.38,0,0,0,.54,2.72,1.77,1.77,0,0,0,1.62.88,1.75,1.75,0,0,0,1.59-.83,5.18,5.18,0,0,0,.54-2.61Z"/><path class="cls-2" d="M271.3,32.91l-4.71,10.56h-1.52l4.7-10.19h-6.16V32.1h7.69Z"/><path class="cls-2" d="M227.26,57.33h-3.66V67.47h-1.49V57.33h-3.65V56.1h8.8Z"/><path class="cls-2" d="M232.23,67.63a3.69,3.69,0,0,1-2.8-1.13,4.19,4.19,0,0,1-1.08-3v-.27a5.07,5.07,0,0,1,.48-2.25,3.75,3.75,0,0,1,1.34-1.55,3.38,3.38,0,0,1,1.87-.56A3.17,3.17,0,0,1,234.62,60a4.7,4.7,0,0,1,.91,3.11v.6H229.8a3,3,0,0,0,.73,2,2.3,2.3,0,0,0,1.78.77,2.52,2.52,0,0,0,1.3-.31,3.25,3.25,0,0,0,.93-.83l.88.69A3.55,3.55,0,0,1,232.23,67.63Zm-.18-7.58a1.93,1.93,0,0,0-1.47.64,3.1,3.1,0,0,0-.73,1.79h4.23v-.11a2.75,2.75,0,0,0-.59-1.71A1.82,1.82,0,0,0,232.05,60.05Z"/><path class="cls-2" d="M240.59,66.45a2.08,2.08,0,0,0,1.35-.47,1.65,1.65,0,0,0,.64-1.17H244a2.62,2.62,0,0,1-.5,1.38,3.3,3.3,0,0,1-1.23,1,3.55,3.55,0,0,1-1.63.39,3.48,3.48,0,0,1-2.75-1.15,4.59,4.59,0,0,1-1-3.15v-.24a5.09,5.09,0,0,1,.45-2.2,3.45,3.45,0,0,1,1.3-1.49,3.7,3.7,0,0,1,2-.53,3.39,3.39,0,0,1,2.36.85,3,3,0,0,1,1,2.21h-1.37a2,2,0,0,0-.62-1.35,1.93,1.93,0,0,0-1.38-.53,2,2,0,0,0-1.71.79,3.73,3.73,0,0,0-.61,2.29v.27a3.65,3.65,0,0,0,.6,2.25A2,2,0,0,0,240.59,66.45Z"/><path class="cls-2" d="M247,60a3.07,3.07,0,0,1,2.5-1.18q2.68,0,2.7,3v5.59h-1.45V61.88a1.94,1.94,0,0,0-.42-1.35,1.68,1.68,0,0,0-1.28-.44,2.09,2.09,0,0,0-1.23.38,2.55,2.55,0,0,0-.83,1v6h-1.45v-12H247Z"/><path class="cls-2" d="M258.58,67.47V56.1h3.72a4.32,4.32,0,0,1,2.79.77,2.76,2.76,0,0,1,.93,2.27,2.31,2.31,0,0,1-.45,1.41,2.93,2.93,0,0,1-1.23.95,2.64,2.64,0,0,1,1.46,1,2.82,2.82,0,0,1,.54,1.72,3,3,0,0,1-1,2.41,4.1,4.1,0,0,1-2.8.88Zm1.5-6.52h2.27a2.37,2.37,0,0,0,1.57-.49,1.65,1.65,0,0,0,.59-1.34,1.63,1.63,0,0,0-.55-1.37,2.69,2.69,0,0,0-1.66-.43h-2.22Zm0,1.2v4.09h2.48a2.38,2.38,0,0,0,1.65-.54,1.91,1.91,0,0,0,.61-1.5q0-2.05-2.23-2.05Z"/><path class="cls-2" d="M268.32,56.78a.86.86,0,0,1,.21-.59.81.81,0,0,1,.64-.24.82.82,0,0,1,.64.24.86.86,0,0,1,.22.59.86.86,0,1,1-1.71,0Zm1.56,10.7h-1.45V59h1.45Z"/><path class="cls-2" d="M273.55,66.29h4.95v1.18h-6.71V66.41l4.66-6.2h-4.59V59h6.41v1Z"/><path class="cls-2" d="M281.49,59l0,1.06a3.08,3.08,0,0,1,2.53-1.22q2.68,0,2.7,3v5.59h-1.45V61.88a1.94,1.94,0,0,0-.42-1.35,1.68,1.68,0,0,0-1.28-.44,2.09,2.09,0,0,0-1.23.38,2.55,2.55,0,0,0-.83,1v6h-1.45V59Z"/><path class="cls-2" d="M292.46,67.63a3.69,3.69,0,0,1-2.8-1.13,4.19,4.19,0,0,1-1.08-3v-.27a5.07,5.07,0,0,1,.48-2.25,3.75,3.75,0,0,1,1.34-1.55,3.38,3.38,0,0,1,1.87-.56A3.17,3.17,0,0,1,294.84,60a4.7,4.7,0,0,1,.91,3.11v.6H290a3,3,0,0,0,.73,2,2.3,2.3,0,0,0,1.78.77,2.52,2.52,0,0,0,1.3-.31,3.25,3.25,0,0,0,.93-.83l.88.69A3.55,3.55,0,0,1,292.46,67.63Zm-.18-7.58a1.93,1.93,0,0,0-1.47.64,3.1,3.1,0,0,0-.73,1.79h4.23v-.11a2.75,2.75,0,0,0-.59-1.71A1.82,1.82,0,0,0,292.28,60.05Z"/><path class="cls-2" d="M302.35,65.23a1.07,1.07,0,0,0-.44-.91,4.25,4.25,0,0,0-1.54-.56,7.28,7.28,0,0,1-1.74-.56,2.48,2.48,0,0,1-1-.78,1.86,1.86,0,0,1-.31-1.08,2.19,2.19,0,0,1,.88-1.76,3.43,3.43,0,0,1,2.25-.72,3.53,3.53,0,0,1,2.33.74,2.36,2.36,0,0,1,.89,1.9h-1.45a1.31,1.31,0,0,0-.5-1,1.89,1.89,0,0,0-1.27-.43,2,2,0,0,0-1.23.34,1.08,1.08,0,0,0-.45.9.88.88,0,0,0,.41.79,5.08,5.08,0,0,0,1.5.51,7.82,7.82,0,0,1,1.75.58,2.56,2.56,0,0,1,1,.81,2,2,0,0,1,.32,1.15,2.16,2.16,0,0,1-.91,1.82,3.8,3.8,0,0,1-2.35.68,4.26,4.26,0,0,1-1.8-.36,2.92,2.92,0,0,1-1.22-1,2.42,2.42,0,0,1-.44-1.39h1.45A1.5,1.5,0,0,0,299.1,66a2.26,2.26,0,0,0,1.43.43,2.33,2.33,0,0,0,1.32-.33A1,1,0,0,0,302.35,65.23Z"/><path class="cls-2" d="M310.6,65.23a1.07,1.07,0,0,0-.44-.91,4.25,4.25,0,0,0-1.54-.56,7.28,7.28,0,0,1-1.74-.56,2.48,2.48,0,0,1-1-.78,1.86,1.86,0,0,1-.31-1.08,2.19,2.19,0,0,1,.88-1.76,3.43,3.43,0,0,1,2.25-.72,3.53,3.53,0,0,1,2.33.74,2.36,2.36,0,0,1,.89,1.9h-1.45a1.31,1.31,0,0,0-.5-1,1.89,1.89,0,0,0-1.27-.43,2,2,0,0,0-1.23.34,1.08,1.08,0,0,0-.45.9.88.88,0,0,0,.41.79,5.08,5.08,0,0,0,1.5.51,7.82,7.82,0,0,1,1.75.58,2.56,2.56,0,0,1,1,.81,2,2,0,0,1,.32,1.15,2.16,2.16,0,0,1-.91,1.82,3.8,3.8,0,0,1-2.35.68,4.26,4.26,0,0,1-1.8-.36,2.92,2.92,0,0,1-1.22-1,2.42,2.42,0,0,1-.44-1.39h1.45a1.5,1.5,0,0,0,.58,1.15,2.26,2.26,0,0,0,1.43.43,2.33,2.33,0,0,0,1.32-.33A1,1,0,0,0,310.6,65.23Z"/><path class="cls-2" d="M224.17,80.1h1.51v8.05a3.34,3.34,0,0,1-1,2.55,3.66,3.66,0,0,1-2.61.92,3.76,3.76,0,0,1-2.64-.87,3.13,3.13,0,0,1-.95-2.43H220a1.89,1.89,0,0,0,2.09,2.07,2,2,0,0,0,1.5-.59,2.27,2.27,0,0,0,.58-1.64Z"/><path class="cls-2" d="M233.23,91.47a3,3,0,0,1-.2-.89,3.22,3.22,0,0,1-2.41,1,3,3,0,0,1-2.05-.71,2.29,2.29,0,0,1-.8-1.79,2.39,2.39,0,0,1,1-2.05,4.73,4.73,0,0,1,2.82-.73H233v-.66a1.63,1.63,0,0,0-.45-1.21,1.82,1.82,0,0,0-1.34-.45,2.11,2.11,0,0,0-1.3.39,1.15,1.15,0,0,0-.52.95h-1.45a2,2,0,0,1,.45-1.22,3.07,3.07,0,0,1,1.22-.93,4.1,4.1,0,0,1,1.69-.34,3.34,3.34,0,0,1,2.29.73,2.64,2.64,0,0,1,.86,2V89.5a4.75,4.75,0,0,0,.3,1.85v.13Zm-2.4-1.1a2.54,2.54,0,0,0,1.29-.35,2.13,2.13,0,0,0,.88-.91V87.37h-1.13q-2.66,0-2.66,1.55a1.32,1.32,0,0,0,.45,1.06A1.74,1.74,0,0,0,230.83,90.37Z"/><path class="cls-2" d="M238.08,83l0,1.06a3.08,3.08,0,0,1,2.53-1.22q2.68,0,2.7,3v5.59h-1.45V85.88a1.94,1.94,0,0,0-.42-1.35,1.68,1.68,0,0,0-1.28-.44,2.09,2.09,0,0,0-1.23.38,2.55,2.55,0,0,0-.83,1v6h-1.45V83Z"/><path class="cls-2" d="M250.76,90.64a3.07,3.07,0,0,1-2.48,1,2.63,2.63,0,0,1-2.06-.79,3.39,3.39,0,0,1-.71-2.32V83H247v5.46q0,1.92,1.56,1.92a2.16,2.16,0,0,0,2.2-1.23V83h1.45v8.45h-1.37Z"/><path class="cls-2" d="M259.28,89.23a1.07,1.07,0,0,0-.44-.91,4.25,4.25,0,0,0-1.54-.56,7.28,7.28,0,0,1-1.74-.56,2.48,2.48,0,0,1-1-.78,1.86,1.86,0,0,1-.31-1.08,2.19,2.19,0,0,1,.88-1.76,3.43,3.43,0,0,1,2.25-.72,3.53,3.53,0,0,1,2.33.74,2.36,2.36,0,0,1,.89,1.9h-1.45a1.31,1.31,0,0,0-.5-1,1.89,1.89,0,0,0-1.27-.43,2,2,0,0,0-1.23.34,1.08,1.08,0,0,0-.45.9.88.88,0,0,0,.41.79,5.08,5.08,0,0,0,1.5.51,7.82,7.82,0,0,1,1.75.58,2.56,2.56,0,0,1,1,.81,2,2,0,0,1,.32,1.15,2.16,2.16,0,0,1-.91,1.82,3.8,3.8,0,0,1-2.35.68,4.26,4.26,0,0,1-1.8-.36,2.92,2.92,0,0,1-1.22-1,2.42,2.42,0,0,1-.44-1.39h1.45A1.5,1.5,0,0,0,256,90a2.26,2.26,0,0,0,1.43.43,2.33,2.33,0,0,0,1.32-.33A1,1,0,0,0,259.28,89.23Z"/><path class="cls-2" d="M268.3,87v4.45h-1.5V80.1H271a4.22,4.22,0,0,1,2.93,1A3.23,3.23,0,0,1,275,83.58a3.19,3.19,0,0,1-1,2.55,4.4,4.4,0,0,1-3,.89Zm0-1.23H271a2.69,2.69,0,0,0,1.84-.57,2.08,2.08,0,0,0,.64-1.64,2.15,2.15,0,0,0-.64-1.63,2.52,2.52,0,0,0-1.76-.63H268.3Z"/><path class="cls-2" d="M280.75,84.32a4.37,4.37,0,0,0-.71-.05,1.9,1.9,0,0,0-1.93,1.21v6h-1.45V83h1.41l0,1a2.25,2.25,0,0,1,2-1.13,1.48,1.48,0,0,1,.64.11Z"/><path class="cls-2" d="M281.54,87.17a5,5,0,0,1,.49-2.23,3.64,3.64,0,0,1,1.36-1.53,3.7,3.7,0,0,1,2-.54,3.56,3.56,0,0,1,2.79,1.2,4.6,4.6,0,0,1,1.07,3.18v.1a5,5,0,0,1-.47,2.21,3.59,3.59,0,0,1-1.35,1.53,3.74,3.74,0,0,1-2,.55,3.56,3.56,0,0,1-2.79-1.2,4.58,4.58,0,0,1-1.07-3.16Zm1.45.17a3.62,3.62,0,0,0,.65,2.26,2.21,2.21,0,0,0,3.5,0,4,4,0,0,0,.65-2.42,3.61,3.61,0,0,0-.66-2.25,2.1,2.1,0,0,0-1.75-.86,2.08,2.08,0,0,0-1.73.85A3.93,3.93,0,0,0,283,87.34Z"/><path class="cls-2" d="M290.69,87.18a5,5,0,0,1,.92-3.13,3.14,3.14,0,0,1,4.77-.17V79.47h1.45v12H296.5l-.07-.91A2.94,2.94,0,0,1,294,91.63a2.89,2.89,0,0,1-2.39-1.2,5,5,0,0,1-.93-3.14Zm1.45.16a3.75,3.75,0,0,0,.59,2.25,1.92,1.92,0,0,0,1.64.81,2.11,2.11,0,0,0,2-1.23V85.29a2.13,2.13,0,0,0-2-1.2,1.93,1.93,0,0,0-1.66.82A4.13,4.13,0,0,0,292.14,87.34Z"/><path class="cls-2" d="M305.29,90.64a3.07,3.07,0,0,1-2.48,1,2.63,2.63,0,0,1-2.06-.79,3.39,3.39,0,0,1-.71-2.32V83h1.45v5.46q0,1.92,1.56,1.92a2.16,2.16,0,0,0,2.2-1.23V83h1.45v8.45h-1.37Z"/><path class="cls-2" d="M312.28,90.45a2.08,2.08,0,0,0,1.35-.47,1.65,1.65,0,0,0,.64-1.17h1.37a2.62,2.62,0,0,1-.5,1.38,3.3,3.3,0,0,1-1.23,1,3.55,3.55,0,0,1-1.63.39,3.48,3.48,0,0,1-2.75-1.15,4.59,4.59,0,0,1-1-3.15v-.24a5.09,5.09,0,0,1,.45-2.2,3.45,3.45,0,0,1,1.3-1.49,3.7,3.7,0,0,1,2-.53,3.39,3.39,0,0,1,2.36.85,3,3,0,0,1,1,2.21h-1.37a2,2,0,0,0-.62-1.35,1.93,1.93,0,0,0-1.38-.53,2,2,0,0,0-1.71.79,3.73,3.73,0,0,0-.61,2.29v.27a3.65,3.65,0,0,0,.6,2.25A2,2,0,0,0,312.28,90.45Z"/><path class="cls-2" d="M319.23,81v2h1.58v1.12h-1.58v5.25a1.17,1.17,0,0,0,.21.76.89.89,0,0,0,.72.25,3.5,3.5,0,0,0,.69-.09v1.17a4.21,4.21,0,0,1-1.11.16,1.8,1.8,0,0,1-1.46-.59,2.52,2.52,0,0,1-.49-1.66V84.14h-1.54V83h1.54V81Z"/><path class="cls-2" d="M322.5,80.78a.86.86,0,0,1,.21-.59.81.81,0,0,1,.64-.24.82.82,0,0,1,.64.24.86.86,0,0,1,.22.59.86.86,0,1,1-1.71,0Zm1.56,10.7h-1.45V83h1.45Z"/><path class="cls-2" d="M326,87.17a5,5,0,0,1,.49-2.23,3.64,3.64,0,0,1,1.36-1.53,3.7,3.7,0,0,1,2-.54,3.56,3.56,0,0,1,2.79,1.2,4.6,4.6,0,0,1,1.07,3.18v.1a5,5,0,0,1-.47,2.21,3.59,3.59,0,0,1-1.35,1.53,3.74,3.74,0,0,1-2,.55,3.56,3.56,0,0,1-2.79-1.2A4.58,4.58,0,0,1,326,87.27Zm1.45.17a3.62,3.62,0,0,0,.65,2.26,2.21,2.21,0,0,0,3.5,0,4,4,0,0,0,.65-2.42,3.61,3.61,0,0,0-.66-2.25,2.1,2.1,0,0,0-1.75-.86,2.08,2.08,0,0,0-1.73.85A3.93,3.93,0,0,0,327.44,87.34Z"/><path class="cls-2" d="M336.87,83l0,1.06a3.08,3.08,0,0,1,2.53-1.22q2.68,0,2.7,3v5.59H340.7V85.88a1.94,1.94,0,0,0-.42-1.35,1.68,1.68,0,0,0-1.28-.44,2.09,2.09,0,0,0-1.23.38,2.55,2.55,0,0,0-.83,1v6H335.5V83Z"/><path class="cls-2" d="M348.23,86.86a12.07,12.07,0,0,1,.47-3.39,9.86,9.86,0,0,1,1.41-3,6,6,0,0,1,1.95-1.87l.3,1a6.22,6.22,0,0,0-1.87,2.67,11.58,11.58,0,0,0-.8,4V87a11.64,11.64,0,0,0,1.1,5.23,6.25,6.25,0,0,0,1.58,2.08l-.3.88a6.2,6.2,0,0,1-2-1.94A10.86,10.86,0,0,1,348.23,86.86Z"/><path class="cls-2" d="M361.06,91.47h-7.45v-1l3.94-4.37a9.38,9.38,0,0,0,1.21-1.61,2.69,2.69,0,0,0,.33-1.29,2,2,0,0,0-.54-1.46,1.89,1.89,0,0,0-1.44-.57,2.23,2.23,0,0,0-1.68.61,2.34,2.34,0,0,0-.6,1.71h-1.45a3.35,3.35,0,0,1,1-2.54,3.75,3.75,0,0,1,2.71-1,3.6,3.6,0,0,1,2.51.83,2.84,2.84,0,0,1,.92,2.21q0,1.68-2.14,4l-3,3.3h5.71Z"/><path class="cls-2" d="M364.69,85.08h1.09a2.38,2.38,0,0,0,1.61-.54,1.8,1.8,0,0,0,.59-1.41,1.76,1.76,0,0,0-2-2,2.07,2.07,0,0,0-1.5.54,1.87,1.87,0,0,0-.56,1.42h-1.45a2.9,2.9,0,0,1,1-2.25,3.6,3.6,0,0,1,2.51-.89,3.56,3.56,0,0,1,2.52.85,3.08,3.08,0,0,1,.91,2.37,2.5,2.5,0,0,1-.48,1.44,2.9,2.9,0,0,1-1.31,1,2.8,2.8,0,0,1,1.45,1,2.74,2.74,0,0,1,.51,1.68,3.1,3.1,0,0,1-1,2.43,3.75,3.75,0,0,1-2.6.9,3.84,3.84,0,0,1-2.61-.87,2.88,2.88,0,0,1-1-2.29h1.45a1.86,1.86,0,0,0,.59,1.44,2.23,2.23,0,0,0,1.57.54,2.19,2.19,0,0,0,1.6-.55,2.11,2.11,0,0,0,.55-1.57,1.91,1.91,0,0,0-.61-1.52,2.66,2.66,0,0,0-1.76-.55h-1.09Z"/><path class="cls-2" d="M377.12,86.47a3.54,3.54,0,0,1-1.08.87,2.93,2.93,0,0,1-1.38.33,3,3,0,0,1-1.71-.48,3.15,3.15,0,0,1-1.13-1.36,4.65,4.65,0,0,1-.4-1.94,4.74,4.74,0,0,1,.43-2.05,3.19,3.19,0,0,1,1.23-1.4,3.51,3.51,0,0,1,1.86-.48,3.18,3.18,0,0,1,2.66,1.26,5.5,5.5,0,0,1,1,3.44v.42q0,3.32-1.31,4.85a5,5,0,0,1-4,1.57H373V90.26h.3a3.44,3.44,0,0,0,3.8-3.78Zm-2.23,0a2.23,2.23,0,0,0,1.34-.45,2.62,2.62,0,0,0,.89-1.1v-.58a4,4,0,0,0-.62-2.31,1.89,1.89,0,0,0-3.09-.16,3,3,0,0,0-.58,1.93,3.14,3.14,0,0,0,.56,1.92A1.77,1.77,0,0,0,374.89,86.47Z"/><path class="cls-2" d="M387.46,83.07a2.64,2.64,0,0,1-.45,1.52,3.06,3.06,0,0,1-1.21,1,3.27,3.27,0,0,1,1.41,1.12,2.81,2.81,0,0,1,.52,1.66,3,3,0,0,1-1,2.35,4.37,4.37,0,0,1-5.25,0,3,3,0,0,1-1-2.35,2.9,2.9,0,0,1,.5-1.66,3.14,3.14,0,0,1,1.39-1.12,3,3,0,0,1-1.2-1,2.68,2.68,0,0,1-.44-1.51,2.94,2.94,0,0,1,.92-2.28,3.91,3.91,0,0,1,4.86,0A2.93,2.93,0,0,1,387.46,83.07Zm-1.18,5.3a2.1,2.1,0,0,0-.61-1.55,2.15,2.15,0,0,0-1.58-.6,2,2,0,0,0-2.16,2.16,2,2,0,0,0,.57,1.52,2.57,2.57,0,0,0,3.19,0A2,2,0,0,0,386.28,88.37Zm-2.17-7.24a1.87,1.87,0,0,0-1.38.53,2.18,2.18,0,0,0,0,2.84,2.06,2.06,0,0,0,2.77,0,2.14,2.14,0,0,0,0-2.82A1.84,1.84,0,0,0,384.11,81.13Z"/><path class="cls-2" d="M397,91.47h-7.45v-1l3.94-4.37a9.38,9.38,0,0,0,1.21-1.61,2.69,2.69,0,0,0,.33-1.29,2,2,0,0,0-.54-1.46,1.89,1.89,0,0,0-1.44-.57,2.23,2.23,0,0,0-1.68.61,2.34,2.34,0,0,0-.6,1.71h-1.45a3.35,3.35,0,0,1,1-2.54,3.75,3.75,0,0,1,2.71-1,3.6,3.6,0,0,1,2.51.83,2.84,2.84,0,0,1,.92,2.21q0,1.68-2.14,4l-3,3.3H397Z"/><path class="cls-2" d="M405.66,86.62a6.61,6.61,0,0,1-.87,3.77,3.6,3.6,0,0,1-5.41,0,6.27,6.27,0,0,1-.91-3.61V84.89a6.46,6.46,0,0,1,.87-3.73,3.67,3.67,0,0,1,5.42,0,6.24,6.24,0,0,1,.89,3.63Zm-1.45-2A5.3,5.3,0,0,0,403.7,82a1.78,1.78,0,0,0-1.63-.84,1.75,1.75,0,0,0-1.62.84,5.17,5.17,0,0,0-.52,2.57v2.31a5.38,5.38,0,0,0,.54,2.72,1.77,1.77,0,0,0,1.62.88,1.75,1.75,0,0,0,1.59-.83,5.18,5.18,0,0,0,.54-2.61Z"/><path class="cls-2" d="M413.62,87.65h1.58v1.18h-1.58v2.64h-1.45V88.83H407V88l5.09-7.88h1.54Zm-5,0h3.54V82.08l-.17.31Z"/><path class="cls-2" d="M424,91.47H416.5v-1l3.94-4.37a9.38,9.38,0,0,0,1.21-1.61,2.69,2.69,0,0,0,.33-1.29,2,2,0,0,0-.54-1.46,1.89,1.89,0,0,0-1.44-.57,2.23,2.23,0,0,0-1.68.61,2.34,2.34,0,0,0-.6,1.71h-1.45a3.35,3.35,0,0,1,1-2.54,3.75,3.75,0,0,1,2.71-1,3.6,3.6,0,0,1,2.51.83,2.84,2.84,0,0,1,.92,2.21q0,1.68-2.14,4l-3,3.3H424Z"/><path class="cls-2" d="M432.62,86.62a6.61,6.61,0,0,1-.87,3.77,3.6,3.6,0,0,1-5.41,0,6.27,6.27,0,0,1-.91-3.61V84.89a6.46,6.46,0,0,1,.87-3.73,3.67,3.67,0,0,1,5.42,0,6.24,6.24,0,0,1,.89,3.63Zm-1.45-2a5.3,5.3,0,0,0-.52-2.68,1.78,1.78,0,0,0-1.63-.84,1.75,1.75,0,0,0-1.62.84,5.17,5.17,0,0,0-.52,2.57v2.31a5.38,5.38,0,0,0,.54,2.72,1.77,1.77,0,0,0,1.62.88,1.75,1.75,0,0,0,1.59-.83,5.18,5.18,0,0,0,.54-2.61Z"/><path class="cls-2" d="M441.6,86.62a6.61,6.61,0,0,1-.87,3.77,3.6,3.6,0,0,1-5.41,0,6.27,6.27,0,0,1-.91-3.61V84.89a6.46,6.46,0,0,1,.87-3.73,3.67,3.67,0,0,1,5.42,0,6.24,6.24,0,0,1,.89,3.63Zm-1.45-2a5.3,5.3,0,0,0-.52-2.68,1.78,1.78,0,0,0-1.63-.84,1.75,1.75,0,0,0-1.62.84,5.17,5.17,0,0,0-.52,2.57v2.31a5.38,5.38,0,0,0,.54,2.72,1.77,1.77,0,0,0,1.62.88,1.75,1.75,0,0,0,1.59-.83,5.18,5.18,0,0,0,.54-2.61Z"/><path class="cls-2" d="M444.12,85.77l.58-5.67h5.83v1.34h-4.6l-.34,3.1a3.67,3.67,0,0,1,1.9-.49,3.14,3.14,0,0,1,2.47,1,4,4,0,0,1,.91,2.78,3.89,3.89,0,0,1-.95,2.77,3.46,3.46,0,0,1-2.65,1,3.6,3.6,0,0,1-2.46-.84,3.34,3.34,0,0,1-1.09-2.31h1.37a2.3,2.3,0,0,0,.7,1.47,2.16,2.16,0,0,0,1.48.5,2,2,0,0,0,1.58-.69,2.87,2.87,0,0,0,.57-1.9,2.64,2.64,0,0,0-.62-1.83,2.11,2.11,0,0,0-1.65-.69,2.38,2.38,0,0,0-1.48.41l-.38.31Z"/><path class="cls-2" d="M458.54,87.65h1.58v1.18h-1.58v2.64h-1.45V88.83H451.9V88L457,80.1h1.54Zm-5,0h3.54V82.08l-.17.31Z"/><path class="cls-2" d="M464.9,86.93a12.08,12.08,0,0,1-.46,3.34,9.87,9.87,0,0,1-1.4,2.95,6.13,6.13,0,0,1-2,1.92l-.3-.88a6.29,6.29,0,0,0,1.93-2.86,12.39,12.39,0,0,0,.75-4.31v-.25a12.85,12.85,0,0,0-.34-3.05,10.3,10.3,0,0,0-1-2.53,5.84,5.84,0,0,0-1.38-1.74l.3-.88a6.1,6.1,0,0,1,2,1.91,9.9,9.9,0,0,1,1.4,2.95A12.38,12.38,0,0,1,464.9,86.93Z"/><path class="cls-2" d="M225.69,112.5h-4.77l-1.07,3H218.3l4.34-11.37H224l4.35,11.38h-1.54Zm-4.31-1.23h3.87L223.3,106Z"/><path class="cls-2" d="M232,113.51l2.09-6.49h1.48l-3,8.45h-1.1L228.39,107h1.48Z"/><path class="cls-2" d="M237,104.78a.86.86,0,0,1,.21-.59.81.81,0,0,1,.64-.24.82.82,0,0,1,.64.24.86.86,0,0,1,.22.59.86.86,0,1,1-1.71,0Zm1.56,10.7H237.1V107h1.45Z"/><path class="cls-2" d="M246.08,115.47a3,3,0,0,1-.2-.89,3.22,3.22,0,0,1-2.41,1,3,3,0,0,1-2.05-.71,2.29,2.29,0,0,1-.8-1.79,2.39,2.39,0,0,1,1-2.05,4.73,4.73,0,0,1,2.82-.73h1.41v-.66a1.63,1.63,0,0,0-.45-1.21,1.82,1.82,0,0,0-1.34-.45,2.11,2.11,0,0,0-1.3.39,1.15,1.15,0,0,0-.52.95h-1.45a2,2,0,0,1,.45-1.22,3.07,3.07,0,0,1,1.22-.93,4.1,4.1,0,0,1,1.69-.34,3.34,3.34,0,0,1,2.29.73,2.64,2.64,0,0,1,.86,2v3.89a4.75,4.75,0,0,0,.3,1.85v.13Zm-2.4-1.1A2.54,2.54,0,0,0,245,114a2.13,2.13,0,0,0,.88-.91v-1.73h-1.13q-2.66,0-2.66,1.55a1.32,1.32,0,0,0,.45,1.06A1.74,1.74,0,0,0,243.68,114.37Z"/><path class="cls-2" d="M251.52,105v2h1.58v1.12h-1.58v5.25a1.17,1.17,0,0,0,.21.76.89.89,0,0,0,.72.25,3.5,3.5,0,0,0,.69-.09v1.17a4.21,4.21,0,0,1-1.11.16,1.8,1.8,0,0,1-1.46-.59,2.52,2.52,0,0,1-.49-1.66v-5.24h-1.54V107h1.54v-2Z"/><path class="cls-2" d="M254.25,111.17a5,5,0,0,1,.49-2.23,3.64,3.64,0,0,1,1.36-1.53,3.7,3.7,0,0,1,2-.54,3.56,3.56,0,0,1,2.79,1.2,4.6,4.6,0,0,1,1.07,3.18v.1a5,5,0,0,1-.47,2.21,3.59,3.59,0,0,1-1.35,1.53,3.74,3.74,0,0,1-2,.55,3.56,3.56,0,0,1-2.79-1.2,4.58,4.58,0,0,1-1.07-3.16Zm1.45.17a3.62,3.62,0,0,0,.65,2.26,2.21,2.21,0,0,0,3.5,0,4,4,0,0,0,.65-2.42,3.61,3.61,0,0,0-.66-2.25,2.1,2.1,0,0,0-1.75-.86,2.08,2.08,0,0,0-1.73.85A3.93,3.93,0,0,0,255.7,111.34Z"/><path class="cls-2" d="M267.84,108.32a4.37,4.37,0,0,0-.71-.05,1.9,1.9,0,0,0-1.93,1.21v6h-1.45V107h1.41l0,1a2.25,2.25,0,0,1,2-1.13,1.48,1.48,0,0,1,.64.11Z"/><path class="cls-4" d="M145.95,9.33h-3.66V19.47H140.8V9.33h-3.65V8.1h8.8Z"/><path class="cls-4" d="M147.42,8.78a.86.86,0,0,1,.21-.59.81.81,0,0,1,.64-.24.82.82,0,0,1,.64.24.86.86,0,0,1,.22.59.86.86,0,1,1-1.71,0ZM149,19.47h-1.45V11H149Z"/><path class="cls-4" d="M154.68,18.45A2.08,2.08,0,0,0,156,18a1.65,1.65,0,0,0,.64-1.17H158a2.62,2.62,0,0,1-.5,1.38,3.3,3.3,0,0,1-1.23,1,3.55,3.55,0,0,1-1.63.39,3.48,3.48,0,0,1-2.75-1.15,4.59,4.59,0,0,1-1-3.15v-.24a5.09,5.09,0,0,1,.45-2.2,3.45,3.45,0,0,1,1.3-1.49,3.7,3.7,0,0,1,2-.53,3.39,3.39,0,0,1,2.36.85,3,3,0,0,1,1,2.21h-1.37a2,2,0,0,0-.62-1.35,1.93,1.93,0,0,0-1.38-.53,2,2,0,0,0-1.71.79,3.73,3.73,0,0,0-.61,2.29v.27a3.65,3.65,0,0,0,.6,2.25A2,2,0,0,0,154.68,18.45Z"/><path class="cls-4" d="M162,15.56l-.91.95v3h-1.45v-12h1.45v7.26l.77-.93L164.53,11h1.76L163,14.55l3.67,4.92H165Z"/><path class="cls-4" d="M171.28,19.63a3.69,3.69,0,0,1-2.8-1.13,4.19,4.19,0,0,1-1.08-3v-.27a5.07,5.07,0,0,1,.48-2.25,3.75,3.75,0,0,1,1.34-1.55,3.38,3.38,0,0,1,1.87-.56A3.17,3.17,0,0,1,173.67,12a4.7,4.7,0,0,1,.91,3.11v.6h-5.73a3,3,0,0,0,.73,2,2.3,2.3,0,0,0,1.78.77,2.52,2.52,0,0,0,1.3-.31,3.25,3.25,0,0,0,.93-.83l.88.69A3.55,3.55,0,0,1,171.28,19.63Zm-.18-7.58a1.93,1.93,0,0,0-1.47.64,3.1,3.1,0,0,0-.73,1.79h4.23v-.11a2.75,2.75,0,0,0-.59-1.71A1.82,1.82,0,0,0,171.1,12.05Z"/><path class="cls-4" d="M178.21,9v2h1.58v1.12h-1.58v5.25a1.17,1.17,0,0,0,.21.76.89.89,0,0,0,.72.25,3.5,3.5,0,0,0,.69-.09v1.17a4.21,4.21,0,0,1-1.11.16,1.8,1.8,0,0,1-1.46-.59,2.52,2.52,0,0,1-.49-1.66V12.14h-1.54V11h1.54V9Z"/><path class="cls-4" d="M190.32,16.28h-2.06l-.62,3.2h-1.12l.63-3.2h-1.87V15.2h2.07l.54-2.77h-2V11.35h2.23l.64-3.25h1.12l-.64,3.25h2.06l.64-3.25H193l-.64,3.25H194v1.08h-1.8l-.54,2.77h1.76v1.08h-2l-.62,3.2H189.7Zm-1.86-1.08h2.06l.54-2.77H189Z"/><path class="cls-4" d="M195.24,18.72a.91.91,0,0,1,.22-.62.85.85,0,0,1,.67-.25.87.87,0,0,1,.68.25.89.89,0,0,1,.23.63.84.84,0,0,1-.23.6.89.89,0,0,1-.68.24.86.86,0,0,1-.67-.24A.85.85,0,0,1,195.24,18.72Zm0-6.9a.91.91,0,0,1,.22-.62.85.85,0,0,1,.67-.25.87.87,0,0,1,.68.25.89.89,0,0,1,.23.63.84.84,0,0,1-.23.6.89.89,0,0,1-.68.24.8.8,0,0,1-.89-.84Z"/><path class="cls-4" d="M44.91,38.87H42.24v4.6H40.73V32.1h3.77a4.46,4.46,0,0,1,3,.88,3.15,3.15,0,0,1,1,2.55,3.06,3.06,0,0,1-.57,1.85,3.42,3.42,0,0,1-1.6,1.18L49,43.38v.09H47.38Zm-2.67-1.23h2.3a2.6,2.6,0,0,0,1.78-.58A2,2,0,0,0,47,35.52a2.06,2.06,0,0,0-.63-1.62,2.66,2.66,0,0,0-1.82-.57h-2.3Z"/><path class="cls-4" d="M55.58,43.47a3,3,0,0,1-.2-.89,3.22,3.22,0,0,1-2.41,1,3,3,0,0,1-2.05-.71,2.29,2.29,0,0,1-.8-1.79,2.39,2.39,0,0,1,1-2.05,4.73,4.73,0,0,1,2.82-.73h1.41v-.66a1.63,1.63,0,0,0-.45-1.21A1.82,1.82,0,0,0,53.56,36a2.11,2.11,0,0,0-1.3.39,1.15,1.15,0,0,0-.52.95H50.29a2,2,0,0,1,.45-1.22A3.07,3.07,0,0,1,52,35.21a4.1,4.1,0,0,1,1.69-.34,3.34,3.34,0,0,1,2.29.73,2.64,2.64,0,0,1,.86,2V41.5a4.75,4.75,0,0,0,.3,1.85v.13Zm-2.4-1.1A2.54,2.54,0,0,0,54.47,42a2.13,2.13,0,0,0,.88-.91V39.37H54.22q-2.66,0-2.66,1.55A1.32,1.32,0,0,0,52,42,1.74,1.74,0,0,0,53.18,42.37Z"/><path class="cls-4" d="M62.46,42.45A2.08,2.08,0,0,0,63.81,42a1.65,1.65,0,0,0,.64-1.17h1.37a2.62,2.62,0,0,1-.5,1.38,3.3,3.3,0,0,1-1.23,1,3.55,3.55,0,0,1-1.63.39,3.48,3.48,0,0,1-2.75-1.15,4.59,4.59,0,0,1-1-3.15v-.24a5.09,5.09,0,0,1,.45-2.2,3.45,3.45,0,0,1,1.3-1.49,3.7,3.7,0,0,1,2-.53,3.39,3.39,0,0,1,2.36.85,3,3,0,0,1,1,2.21H64.45a2,2,0,0,0-.62-1.35,1.93,1.93,0,0,0-1.38-.53,2,2,0,0,0-1.71.79,3.73,3.73,0,0,0-.61,2.29v.27a3.65,3.65,0,0,0,.6,2.25A2,2,0,0,0,62.46,42.45Z"/><path class="cls-4" d="M69.8,39.56l-.91.95v3H67.45v-12h1.45v7.26l.77-.93L72.3,35h1.76l-3.29,3.53,3.67,4.92h-1.7Z"/><path class="cls-4" d="M80.47,41.23a1.07,1.07,0,0,0-.44-.91,4.25,4.25,0,0,0-1.54-.56,7.28,7.28,0,0,1-1.74-.56,2.48,2.48,0,0,1-1-.78,1.86,1.86,0,0,1-.31-1.08,2.19,2.19,0,0,1,.88-1.76,3.43,3.43,0,0,1,2.25-.72,3.53,3.53,0,0,1,2.33.74,2.36,2.36,0,0,1,.89,1.9H80.39a1.31,1.31,0,0,0-.5-1,1.89,1.89,0,0,0-1.27-.43,2,2,0,0,0-1.23.34,1.08,1.08,0,0,0-.45.9.88.88,0,0,0,.41.79,5.08,5.08,0,0,0,1.5.51,7.82,7.82,0,0,1,1.75.58,2.56,2.56,0,0,1,1,.81,2,2,0,0,1,.32,1.15A2.16,2.16,0,0,1,81,42.95a3.8,3.8,0,0,1-2.35.68,4.26,4.26,0,0,1-1.8-.36,2.92,2.92,0,0,1-1.22-1,2.42,2.42,0,0,1-.44-1.39h1.45A1.5,1.5,0,0,0,77.23,42a2.26,2.26,0,0,0,1.43.43A2.33,2.33,0,0,0,80,42.12,1,1,0,0,0,80.47,41.23Z"/><path class="cls-4" d="M90.94,39.34a5.06,5.06,0,0,1-.88,3.11,2.83,2.83,0,0,1-2.39,1.18,3.1,3.1,0,0,1-2.42-1v4.07H83.8V35h1.32l.07.94a3,3,0,0,1,2.45-1.09A2.88,2.88,0,0,1,90.05,36a5.12,5.12,0,0,1,.89,3.2Zm-1.45-.16a3.74,3.74,0,0,0-.61-2.26,2,2,0,0,0-1.67-.83,2.12,2.12,0,0,0-2,1.16v4a2.13,2.13,0,0,0,2,1.16,2,2,0,0,0,1.65-.82A4.07,4.07,0,0,0,89.49,39.18Z"/><path class="cls-4" d="M98,43.47a3,3,0,0,1-.2-.89,3.22,3.22,0,0,1-2.41,1,3,3,0,0,1-2.05-.71,2.29,2.29,0,0,1-.8-1.79,2.39,2.39,0,0,1,1-2.05,4.73,4.73,0,0,1,2.82-.73h1.41v-.66a1.63,1.63,0,0,0-.45-1.21A1.82,1.82,0,0,0,96,36a2.11,2.11,0,0,0-1.3.39,1.15,1.15,0,0,0-.52.95H92.71a2,2,0,0,1,.45-1.22,3.07,3.07,0,0,1,1.22-.93,4.1,4.1,0,0,1,1.69-.34,3.34,3.34,0,0,1,2.29.73,2.64,2.64,0,0,1,.86,2V41.5a4.75,4.75,0,0,0,.3,1.85v.13Zm-2.4-1.1A2.54,2.54,0,0,0,96.89,42a2.13,2.13,0,0,0,.88-.91V39.37H96.64Q94,39.37,94,40.93A1.32,1.32,0,0,0,94.43,42,1.74,1.74,0,0,0,95.6,42.37Z"/><path class="cls-4" d="M104.87,42.45a2.08,2.08,0,0,0,1.35-.47,1.65,1.65,0,0,0,.64-1.17h1.37a2.62,2.62,0,0,1-.5,1.38,3.3,3.3,0,0,1-1.23,1,3.55,3.55,0,0,1-1.63.39,3.48,3.48,0,0,1-2.75-1.15,4.59,4.59,0,0,1-1-3.15v-.24a5.09,5.09,0,0,1,.45-2.2,3.45,3.45,0,0,1,1.3-1.49,3.7,3.7,0,0,1,2-.53,3.39,3.39,0,0,1,2.36.85,3,3,0,0,1,1,2.21h-1.37a2,2,0,0,0-.62-1.35,1.93,1.93,0,0,0-1.38-.53,2,2,0,0,0-1.71.79,3.73,3.73,0,0,0-.61,2.29v.27a3.65,3.65,0,0,0,.6,2.25A2,2,0,0,0,104.87,42.45Z"/><path class="cls-4" d="M113.36,43.63a3.69,3.69,0,0,1-2.8-1.13,4.19,4.19,0,0,1-1.08-3v-.27A5.07,5.07,0,0,1,110,37a3.75,3.75,0,0,1,1.34-1.55,3.38,3.38,0,0,1,1.87-.56A3.17,3.17,0,0,1,115.74,36a4.7,4.7,0,0,1,.91,3.11v.6h-5.73a3,3,0,0,0,.73,2,2.3,2.3,0,0,0,1.78.77,2.52,2.52,0,0,0,1.3-.31,3.25,3.25,0,0,0,.93-.83l.88.69A3.55,3.55,0,0,1,113.36,43.63Zm-.18-7.58a1.93,1.93,0,0,0-1.47.64,3.1,3.1,0,0,0-.73,1.79h4.23v-.11a2.75,2.75,0,0,0-.59-1.71A1.82,1.82,0,0,0,113.18,36.05Z"/><path class="cls-4" d="M128.8,40.5H124l-1.07,3h-1.55l4.34-11.37h1.31l4.35,11.38h-1.54Zm-4.31-1.23h3.87L126.42,34Z"/><path class="cls-4" d="M136.12,42.45a2.08,2.08,0,0,0,1.35-.47,1.65,1.65,0,0,0,.64-1.17h1.37a2.62,2.62,0,0,1-.5,1.38,3.3,3.3,0,0,1-1.23,1,3.55,3.55,0,0,1-1.63.39,3.48,3.48,0,0,1-2.75-1.15,4.59,4.59,0,0,1-1-3.15v-.24a5.09,5.09,0,0,1,.45-2.2,3.45,3.45,0,0,1,1.3-1.49,3.7,3.7,0,0,1,2-.53,3.39,3.39,0,0,1,2.36.85,3,3,0,0,1,1,2.21h-1.37a2,2,0,0,0-.62-1.35,1.93,1.93,0,0,0-1.38-.53,2,2,0,0,0-1.71.79,3.73,3.73,0,0,0-.61,2.29v.27a3.65,3.65,0,0,0,.6,2.25A2,2,0,0,0,136.12,42.45Z"/><path class="cls-4" d="M144.49,42.45a2.08,2.08,0,0,0,1.35-.47,1.65,1.65,0,0,0,.64-1.17h1.37a2.62,2.62,0,0,1-.5,1.38,3.3,3.3,0,0,1-1.23,1,3.55,3.55,0,0,1-1.63.39,3.48,3.48,0,0,1-2.75-1.15,4.59,4.59,0,0,1-1-3.15v-.24a5.09,5.09,0,0,1,.45-2.2,3.45,3.45,0,0,1,1.3-1.49,3.7,3.7,0,0,1,2-.53,3.39,3.39,0,0,1,2.36.85,3,3,0,0,1,1,2.21h-1.37a2,2,0,0,0-.62-1.35,1.93,1.93,0,0,0-1.38-.53,2,2,0,0,0-1.71.79,3.73,3.73,0,0,0-.61,2.29v.27a3.65,3.65,0,0,0,.6,2.25A2,2,0,0,0,144.49,42.45Z"/><path class="cls-4" d="M149.1,39.17a5,5,0,0,1,.49-2.23,3.64,3.64,0,0,1,1.36-1.53,3.7,3.7,0,0,1,2-.54,3.56,3.56,0,0,1,2.79,1.2,4.6,4.6,0,0,1,1.07,3.18v.1a5,5,0,0,1-.47,2.21A3.59,3.59,0,0,1,155,43.08a3.74,3.74,0,0,1-2,.55,3.56,3.56,0,0,1-2.79-1.2,4.58,4.58,0,0,1-1.07-3.16Zm1.45.17a3.62,3.62,0,0,0,.65,2.26,2.21,2.21,0,0,0,3.5,0,4,4,0,0,0,.65-2.42,3.61,3.61,0,0,0-.66-2.25,2.1,2.1,0,0,0-1.75-.86,2.08,2.08,0,0,0-1.73.85A3.93,3.93,0,0,0,150.55,39.34Z"/><path class="cls-4" d="M163.82,42.64a3.07,3.07,0,0,1-2.48,1,2.63,2.63,0,0,1-2.06-.79,3.39,3.39,0,0,1-.71-2.32V35H160v5.46q0,1.92,1.56,1.92a2.16,2.16,0,0,0,2.2-1.23V35h1.45v8.45h-1.37Z"/><path class="cls-4" d="M168.79,35l0,1.06a3.08,3.08,0,0,1,2.53-1.22q2.68,0,2.7,3v5.59h-1.45V37.88a1.94,1.94,0,0,0-.42-1.35,1.68,1.68,0,0,0-1.28-.44,2.09,2.09,0,0,0-1.23.38,2.55,2.55,0,0,0-.83,1v6h-1.45V35Z"/><path class="cls-4" d="M178.21,33v2h1.58v1.12h-1.58v5.25a1.17,1.17,0,0,0,.21.76.89.89,0,0,0,.72.25,3.5,3.5,0,0,0,.69-.09v1.17a4.21,4.21,0,0,1-1.11.16,1.8,1.8,0,0,1-1.46-.59,2.52,2.52,0,0,1-.49-1.66V36.14h-1.54V35h1.54V33Z"/><path class="cls-4" d="M190.32,40.28h-2.06l-.62,3.2h-1.12l.63-3.2h-1.87V39.2h2.07l.54-2.77h-2V35.35h2.23l.64-3.25h1.12l-.64,3.25h2.06l.64-3.25H193l-.64,3.25H194v1.08h-1.8l-.54,2.77h1.76v1.08h-2l-.62,3.2H189.7Zm-1.86-1.08h2.06l.54-2.77H189Z"/><path class="cls-4" d="M195.24,42.72a.91.91,0,0,1,.22-.62.85.85,0,0,1,.67-.25.87.87,0,0,1,.68.25.89.89,0,0,1,.23.63.84.84,0,0,1-.23.6.89.89,0,0,1-.68.24.86.86,0,0,1-.67-.24A.85.85,0,0,1,195.24,42.72Zm0-6.9a.91.91,0,0,1,.22-.62.85.85,0,0,1,.67-.25.87.87,0,0,1,.68.25.89.89,0,0,1,.23.63.84.84,0,0,1-.23.6.89.89,0,0,1-.68.24.8.8,0,0,1-.89-.84Z"/><path class="cls-4" d="M96,64.5H91.28l-1.07,3H88.66L93,56.1h1.31l4.35,11.37H97.13Zm-4.31-1.23H95.6L93.66,58Z"/><path class="cls-4" d="M103.36,66.45a2.08,2.08,0,0,0,1.35-.47,1.65,1.65,0,0,0,.64-1.17h1.37a2.62,2.62,0,0,1-.5,1.38,3.3,3.3,0,0,1-1.23,1,3.55,3.55,0,0,1-1.63.39,3.48,3.48,0,0,1-2.75-1.15,4.59,4.59,0,0,1-1-3.15v-.24a5.09,5.09,0,0,1,.45-2.2,3.45,3.45,0,0,1,1.3-1.49,3.7,3.7,0,0,1,2-.53,3.39,3.39,0,0,1,2.36.85,3,3,0,0,1,1,2.21h-1.37a2,2,0,0,0-.62-1.35,1.93,1.93,0,0,0-1.38-.53,2,2,0,0,0-1.71.79,3.73,3.73,0,0,0-.61,2.29v.27a3.65,3.65,0,0,0,.6,2.25A2,2,0,0,0,103.36,66.45Z"/><path class="cls-4" d="M111.74,66.45a2.08,2.08,0,0,0,1.35-.47,1.65,1.65,0,0,0,.64-1.17h1.37a2.62,2.62,0,0,1-.5,1.38,3.3,3.3,0,0,1-1.23,1,3.55,3.55,0,0,1-1.63.39A3.48,3.48,0,0,1,109,66.48a4.59,4.59,0,0,1-1-3.15v-.24a5.09,5.09,0,0,1,.45-2.2,3.45,3.45,0,0,1,1.3-1.49,3.7,3.7,0,0,1,2-.53,3.39,3.39,0,0,1,2.36.85,3,3,0,0,1,1,2.21h-1.37a2,2,0,0,0-.62-1.35,1.93,1.93,0,0,0-1.38-.53,2,2,0,0,0-1.71.79,3.73,3.73,0,0,0-.61,2.29v.27a3.65,3.65,0,0,0,.6,2.25A2,2,0,0,0,111.74,66.45Z"/><path class="cls-4" d="M116.34,63.17a5,5,0,0,1,.49-2.23,3.64,3.64,0,0,1,1.36-1.53,3.7,3.7,0,0,1,2-.54,3.56,3.56,0,0,1,2.79,1.2A4.6,4.6,0,0,1,124,63.24v.1a5,5,0,0,1-.47,2.21,3.59,3.59,0,0,1-1.35,1.53,3.74,3.74,0,0,1-2,.55,3.56,3.56,0,0,1-2.79-1.2,4.58,4.58,0,0,1-1.07-3.16Zm1.45.17a3.62,3.62,0,0,0,.65,2.26,2.21,2.21,0,0,0,3.5,0,4,4,0,0,0,.65-2.42,3.61,3.61,0,0,0-.66-2.25,2.1,2.1,0,0,0-1.75-.86,2.08,2.08,0,0,0-1.73.85A3.93,3.93,0,0,0,117.79,63.34Z"/><path class="cls-4" d="M131.06,66.64a3.07,3.07,0,0,1-2.48,1,2.63,2.63,0,0,1-2.06-.79,3.39,3.39,0,0,1-.71-2.32V59h1.45v5.46q0,1.92,1.56,1.92a2.16,2.16,0,0,0,2.2-1.23V59h1.45v8.45H131.1Z"/><path class="cls-4" d="M136,59l0,1.06a3.08,3.08,0,0,1,2.53-1.22q2.68,0,2.7,3v5.59h-1.45V61.88a1.94,1.94,0,0,0-.42-1.35,1.68,1.68,0,0,0-1.28-.44,2.09,2.09,0,0,0-1.23.38,2.55,2.55,0,0,0-.83,1v6h-1.45V59Z"/><path class="cls-4" d="M145.46,57v2H147v1.12h-1.58v5.25a1.17,1.17,0,0,0,.21.76.89.89,0,0,0,.72.25,3.5,3.5,0,0,0,.69-.09v1.17a4.21,4.21,0,0,1-1.11.16A1.8,1.8,0,0,1,144.5,67a2.52,2.52,0,0,1-.49-1.66V60.14h-1.54V59H144V57Z"/><path class="cls-4" d="M161.65,67.47h-1.51l-5.73-8.77v8.77h-1.51V56.1h1.51l5.74,8.8V56.1h1.49Z"/><path class="cls-4" d="M169.31,67.47a3,3,0,0,1-.2-.89,3.22,3.22,0,0,1-2.41,1,3,3,0,0,1-2.05-.71,2.29,2.29,0,0,1-.8-1.79,2.39,2.39,0,0,1,1-2.05,4.73,4.73,0,0,1,2.82-.73h1.41v-.66a1.63,1.63,0,0,0-.45-1.21,1.82,1.82,0,0,0-1.34-.45,2.11,2.11,0,0,0-1.3.39,1.15,1.15,0,0,0-.52.95H164a2,2,0,0,1,.45-1.22,3.07,3.07,0,0,1,1.22-.93,4.1,4.1,0,0,1,1.69-.34,3.34,3.34,0,0,1,2.29.73,2.64,2.64,0,0,1,.86,2V65.5a4.75,4.75,0,0,0,.3,1.85v.13Zm-2.4-1.1A2.54,2.54,0,0,0,168.2,66a2.13,2.13,0,0,0,.88-.91V63.37h-1.13q-2.66,0-2.66,1.55a1.32,1.32,0,0,0,.45,1.06A1.74,1.74,0,0,0,166.91,66.37Z"/><path class="cls-4" d="M174.15,59l0,.94a3.12,3.12,0,0,1,2.51-1.09,2.42,2.42,0,0,1,2.41,1.36,3.21,3.21,0,0,1,1.1-1,3.24,3.24,0,0,1,1.6-.37q2.78,0,2.83,2.95v5.66h-1.45V61.9a1.94,1.94,0,0,0-.41-1.36,1.82,1.82,0,0,0-1.39-.45,1.92,1.92,0,0,0-1.34.48,2,2,0,0,0-.62,1.29v5.61H178V61.93a1.61,1.61,0,0,0-1.8-1.84,1.93,1.93,0,0,0-1.95,1.21v6.17h-1.45V59Z"/><path class="cls-4" d="M190.32,67.63a3.69,3.69,0,0,1-2.8-1.13,4.19,4.19,0,0,1-1.08-3v-.27a5.07,5.07,0,0,1,.48-2.25,3.75,3.75,0,0,1,1.34-1.55,3.38,3.38,0,0,1,1.87-.56A3.17,3.17,0,0,1,192.71,60a4.7,4.7,0,0,1,.91,3.11v.6h-5.73a3,3,0,0,0,.73,2,2.3,2.3,0,0,0,1.78.77,2.52,2.52,0,0,0,1.3-.31,3.25,3.25,0,0,0,.93-.83l.88.69A3.55,3.55,0,0,1,190.32,67.63Zm-.18-7.58a1.93,1.93,0,0,0-1.47.64,3.1,3.1,0,0,0-.73,1.79h4.23v-.11a2.75,2.75,0,0,0-.59-1.71A1.82,1.82,0,0,0,190.14,60.05Z"/><path class="cls-4" d="M195.24,66.72a.91.91,0,0,1,.22-.62.85.85,0,0,1,.67-.25.87.87,0,0,1,.68.25.89.89,0,0,1,.23.63.84.84,0,0,1-.23.6.89.89,0,0,1-.68.24.86.86,0,0,1-.67-.24A.85.85,0,0,1,195.24,66.72Zm0-6.9a.91.91,0,0,1,.22-.62.85.85,0,0,1,.67-.25.87.87,0,0,1,.68.25.89.89,0,0,1,.23.63.84.84,0,0,1-.23.6.89.89,0,0,1-.68.24.8.8,0,0,1-.89-.84Z"/><path class="cls-4" d="M105.06,88.5H100.3l-1.07,3H97.68L102,80.1h1.31l4.35,11.38h-1.54Zm-4.31-1.23h3.87L102.68,82Z"/><path class="cls-4" d="M111.14,87.89l.22,1.5.32-1.35,2.25-7.94h1.27l2.2,7.94.31,1.38.24-1.53,1.77-7.78h1.51l-2.76,11.38h-1.37l-2.34-8.29-.18-.87-.18.87L112,91.47h-1.37L107.84,80.1h1.5Z"/><path class="cls-4" d="M126.23,86.4A7.05,7.05,0,0,1,123.42,85a2.6,2.6,0,0,1-.88-2,2.75,2.75,0,0,1,1.07-2.22,4.27,4.27,0,0,1,2.79-.88,4.67,4.67,0,0,1,2.09.45,3.44,3.44,0,0,1,1.42,1.25,3.2,3.2,0,0,1,.5,1.74h-1.51a2.08,2.08,0,0,0-.66-1.63,2.67,2.67,0,0,0-1.85-.59,2.73,2.73,0,0,0-1.73.49,1.63,1.63,0,0,0-.62,1.36,1.47,1.47,0,0,0,.59,1.18,5.78,5.78,0,0,0,2,.88,9.34,9.34,0,0,1,2.22.88,3.37,3.37,0,0,1,1.19,1.12,2.86,2.86,0,0,1,.39,1.51,2.66,2.66,0,0,1-1.08,2.21,4.6,4.6,0,0,1-2.88.83,5.35,5.35,0,0,1-2.19-.45A3.68,3.68,0,0,1,122.73,90a3,3,0,0,1-.55-1.77h1.51a2,2,0,0,0,.76,1.63,3.21,3.21,0,0,0,2,.6,3,3,0,0,0,1.82-.48,1.57,1.57,0,0,0,.63-1.32,1.54,1.54,0,0,0-.59-1.29A6.75,6.75,0,0,0,126.23,86.4Z"/><path class="cls-4" d="M142.61,88.5h-4.77l-1.07,3h-1.55l4.34-11.37h1.31l4.35,11.38H143.7Zm-4.31-1.23h3.87L140.23,82Z"/><path class="cls-4" d="M149.93,90.45a2.08,2.08,0,0,0,1.35-.47,1.65,1.65,0,0,0,.64-1.17h1.37a2.62,2.62,0,0,1-.5,1.38,3.3,3.3,0,0,1-1.23,1,3.55,3.55,0,0,1-1.63.39,3.48,3.48,0,0,1-2.75-1.15,4.59,4.59,0,0,1-1-3.15v-.24a5.09,5.09,0,0,1,.45-2.2,3.45,3.45,0,0,1,1.3-1.49,3.7,3.7,0,0,1,2-.53,3.39,3.39,0,0,1,2.36.85,3,3,0,0,1,1,2.21h-1.37a2,2,0,0,0-.62-1.35,1.93,1.93,0,0,0-1.38-.53,2,2,0,0,0-1.71.79,3.73,3.73,0,0,0-.61,2.29v.27a3.65,3.65,0,0,0,.6,2.25A2,2,0,0,0,149.93,90.45Z"/><path class="cls-4" d="M158.31,90.45a2.08,2.08,0,0,0,1.35-.47,1.65,1.65,0,0,0,.64-1.17h1.37a2.62,2.62,0,0,1-.5,1.38,3.3,3.3,0,0,1-1.23,1,3.55,3.55,0,0,1-1.63.39,3.48,3.48,0,0,1-2.75-1.15,4.59,4.59,0,0,1-1-3.15v-.24a5.09,5.09,0,0,1,.45-2.2,3.45,3.45,0,0,1,1.3-1.49,3.7,3.7,0,0,1,2-.53,3.39,3.39,0,0,1,2.36.85,3,3,0,0,1,1,2.21H160.3a2,2,0,0,0-.62-1.35,1.93,1.93,0,0,0-1.38-.53,2,2,0,0,0-1.71.79,3.73,3.73,0,0,0-.61,2.29v.27a3.65,3.65,0,0,0,.6,2.25A2,2,0,0,0,158.31,90.45Z"/><path class="cls-4" d="M162.91,87.17a5,5,0,0,1,.49-2.23,3.64,3.64,0,0,1,1.36-1.53,3.7,3.7,0,0,1,2-.54,3.56,3.56,0,0,1,2.79,1.2,4.6,4.6,0,0,1,1.07,3.18v.1a5,5,0,0,1-.47,2.21,3.59,3.59,0,0,1-1.35,1.53,3.74,3.74,0,0,1-2,.55,3.56,3.56,0,0,1-2.79-1.2,4.58,4.58,0,0,1-1.07-3.16Zm1.45.17A3.62,3.62,0,0,0,165,89.6a2.21,2.21,0,0,0,3.5,0,4,4,0,0,0,.65-2.42,3.61,3.61,0,0,0-.66-2.25,2.1,2.1,0,0,0-1.75-.86,2.08,2.08,0,0,0-1.73.85A3.93,3.93,0,0,0,164.36,87.34Z"/><path class="cls-4" d="M177.64,90.64a3.07,3.07,0,0,1-2.48,1,2.63,2.63,0,0,1-2.06-.79,3.39,3.39,0,0,1-.71-2.32V83h1.45v5.46q0,1.92,1.56,1.92a2.16,2.16,0,0,0,2.2-1.23V83H179v8.45h-1.37Z"/><path class="cls-4" d="M182.6,83l0,1.06a3.08,3.08,0,0,1,2.53-1.22q2.68,0,2.7,3v5.59h-1.45V85.88a1.94,1.94,0,0,0-.42-1.35,1.68,1.68,0,0,0-1.28-.44,2.09,2.09,0,0,0-1.23.38,2.55,2.55,0,0,0-.83,1v6h-1.45V83Z"/><path class="cls-4" d="M192,81v2h1.58v1.12H192v5.25a1.17,1.17,0,0,0,.21.76.89.89,0,0,0,.72.25,3.5,3.5,0,0,0,.69-.09v1.17a4.21,4.21,0,0,1-1.11.16,1.8,1.8,0,0,1-1.46-.59,2.52,2.52,0,0,1-.49-1.66V84.14H189V83h1.54V81Z"/><path class="cls-4" d="M195.24,90.72a.91.91,0,0,1,.22-.62.85.85,0,0,1,.67-.25.87.87,0,0,1,.68.25.89.89,0,0,1,.23.63.84.84,0,0,1-.23.6.89.89,0,0,1-.68.24.86.86,0,0,1-.67-.24A.85.85,0,0,1,195.24,90.72Zm0-6.9a.91.91,0,0,1,.22-.62.85.85,0,0,1,.67-.25.87.87,0,0,1,.68.25.89.89,0,0,1,.23.63.84.84,0,0,1-.23.6.89.89,0,0,1-.68.24.8.8,0,0,1-.89-.84Z"/><path class="cls-4" d="M105.81,110.4A7.05,7.05,0,0,1,103,109a2.6,2.6,0,0,1-.88-2,2.75,2.75,0,0,1,1.07-2.22,4.27,4.27,0,0,1,2.79-.88,4.67,4.67,0,0,1,2.09.45,3.44,3.44,0,0,1,1.42,1.25,3.2,3.2,0,0,1,.5,1.74h-1.51a2.08,2.08,0,0,0-.66-1.63,2.67,2.67,0,0,0-1.85-.59,2.73,2.73,0,0,0-1.73.49,1.63,1.63,0,0,0-.62,1.36,1.47,1.47,0,0,0,.59,1.18,5.78,5.78,0,0,0,2,.88,9.34,9.34,0,0,1,2.22.88,3.37,3.37,0,0,1,1.19,1.12,2.86,2.86,0,0,1,.39,1.51,2.66,2.66,0,0,1-1.08,2.21,4.6,4.6,0,0,1-2.88.83,5.35,5.35,0,0,1-2.19-.45,3.68,3.68,0,0,1-1.57-1.23,3,3,0,0,1-.55-1.77h1.51a2,2,0,0,0,.76,1.63,3.21,3.21,0,0,0,2,.6,3,3,0,0,0,1.82-.48,1.57,1.57,0,0,0,.63-1.32,1.54,1.54,0,0,0-.59-1.29A6.75,6.75,0,0,0,105.81,110.4Z"/><path class="cls-4" d="M115.23,115.63a3.69,3.69,0,0,1-2.8-1.13,4.19,4.19,0,0,1-1.08-3v-.27a5.07,5.07,0,0,1,.48-2.25,3.75,3.75,0,0,1,1.34-1.55,3.38,3.38,0,0,1,1.87-.56,3.17,3.17,0,0,1,2.56,1.09,4.7,4.7,0,0,1,.91,3.11v.6H112.8a3,3,0,0,0,.73,2,2.3,2.3,0,0,0,1.78.77,2.52,2.52,0,0,0,1.3-.31,3.25,3.25,0,0,0,.93-.83l.88.69A3.55,3.55,0,0,1,115.23,115.63Zm-.18-7.58a1.93,1.93,0,0,0-1.47.64,3.1,3.1,0,0,0-.73,1.79h4.23v-.11a2.75,2.75,0,0,0-.59-1.71A1.82,1.82,0,0,0,115,108.05Z"/><path class="cls-4" d="M124.28,108.32a4.37,4.37,0,0,0-.71-.05,1.9,1.9,0,0,0-1.93,1.21v6H120.2V107h1.41l0,1a2.25,2.25,0,0,1,2-1.13,1.48,1.48,0,0,1,.64.11Z"/><path class="cls-4" d="M128.54,113.51l2.09-6.49h1.48l-3,8.45H128L124.92,107h1.48Z"/><path class="cls-4" d="M133.51,104.78a.86.86,0,0,1,.21-.59.81.81,0,0,1,.64-.24.82.82,0,0,1,.64.24.86.86,0,0,1,.22.59.86.86,0,1,1-1.71,0Zm1.56,10.7h-1.45V107h1.45Z"/><path class="cls-4" d="M140.78,114.45a2.08,2.08,0,0,0,1.35-.47,1.65,1.65,0,0,0,.64-1.17h1.37a2.62,2.62,0,0,1-.5,1.38,3.3,3.3,0,0,1-1.23,1,3.55,3.55,0,0,1-1.63.39,3.48,3.48,0,0,1-2.75-1.15,4.59,4.59,0,0,1-1-3.15v-.24a5.09,5.09,0,0,1,.45-2.2,3.45,3.45,0,0,1,1.3-1.49,3.7,3.7,0,0,1,2-.53,3.39,3.39,0,0,1,2.36.85,3,3,0,0,1,1,2.21h-1.37a2,2,0,0,0-.62-1.35,1.93,1.93,0,0,0-1.38-.53,2,2,0,0,0-1.71.79,3.73,3.73,0,0,0-.61,2.29v.27a3.65,3.65,0,0,0,.6,2.25A2,2,0,0,0,140.78,114.45Z"/><path class="cls-4" d="M149.27,115.63a3.69,3.69,0,0,1-2.8-1.13,4.19,4.19,0,0,1-1.08-3v-.27a5.07,5.07,0,0,1,.48-2.25,3.75,3.75,0,0,1,1.34-1.55,3.38,3.38,0,0,1,1.87-.56,3.17,3.17,0,0,1,2.56,1.09,4.7,4.7,0,0,1,.91,3.11v.6h-5.73a3,3,0,0,0,.73,2,2.3,2.3,0,0,0,1.78.77,2.52,2.52,0,0,0,1.3-.31,3.25,3.25,0,0,0,.93-.83l.88.69A3.55,3.55,0,0,1,149.27,115.63Zm-.18-7.58a1.93,1.93,0,0,0-1.47.64,3.1,3.1,0,0,0-.73,1.79h4.23v-.11a2.75,2.75,0,0,0-.59-1.71A1.82,1.82,0,0,0,149.09,108.05Z"/><path class="cls-4" d="M159.93,114.25h5.39v1.23h-6.9V104.1h1.51Z"/><path class="cls-4" d="M170.31,115.63a3.69,3.69,0,0,1-2.8-1.13,4.19,4.19,0,0,1-1.08-3v-.27a5.07,5.07,0,0,1,.48-2.25,3.75,3.75,0,0,1,1.34-1.55,3.38,3.38,0,0,1,1.87-.56A3.17,3.17,0,0,1,172.7,108a4.7,4.7,0,0,1,.91,3.11v.6h-5.73a3,3,0,0,0,.73,2,2.3,2.3,0,0,0,1.78.77,2.52,2.52,0,0,0,1.3-.31,3.25,3.25,0,0,0,.93-.83l.88.69A3.55,3.55,0,0,1,170.31,115.63Zm-.18-7.58a1.93,1.93,0,0,0-1.47.64,3.1,3.1,0,0,0-.73,1.79h4.23v-.11a2.75,2.75,0,0,0-.59-1.71A1.82,1.82,0,0,0,170.14,108.05Z"/><path class="cls-4" d="M178,113.51l2.09-6.49h1.48l-3,8.45h-1.1L174.35,107h1.48Z"/><path class="cls-4" d="M186.44,115.63a3.69,3.69,0,0,1-2.8-1.13,4.19,4.19,0,0,1-1.08-3v-.27A5.07,5.07,0,0,1,183,109a3.75,3.75,0,0,1,1.34-1.55,3.38,3.38,0,0,1,1.87-.56,3.17,3.17,0,0,1,2.56,1.09,4.7,4.7,0,0,1,.91,3.11v.6H184a3,3,0,0,0,.73,2,2.3,2.3,0,0,0,1.78.77,2.52,2.52,0,0,0,1.3-.31,3.25,3.25,0,0,0,.93-.83l.88.69A3.55,3.55,0,0,1,186.44,115.63Zm-.18-7.58a1.93,1.93,0,0,0-1.47.64,3.1,3.1,0,0,0-.73,1.79h4.23v-.11a2.75,2.75,0,0,0-.59-1.71A1.82,1.82,0,0,0,186.26,108.05Z"/><path class="cls-4" d="M193,115.47h-1.45v-12H193Z"/><path class="cls-4" d="M195.24,114.72a.91.91,0,0,1,.22-.62.85.85,0,0,1,.67-.25.87.87,0,0,1,.68.25.89.89,0,0,1,.23.63.84.84,0,0,1-.23.6.89.89,0,0,1-.68.24.86.86,0,0,1-.67-.24A.85.85,0,0,1,195.24,114.72Zm0-6.9a.91.91,0,0,1,.22-.62.85.85,0,0,1,.67-.25.87.87,0,0,1,.68.25.89.89,0,0,1,.23.63.84.84,0,0,1-.23.6.89.89,0,0,1-.68.24.8.8,0,0,1-.89-.84Z"/><rect class="cls-5" x="200.49" y="136.18" width="20" height="158.25"/><path class="cls-6" d="M206.1,146.53H207l1.07,1.1c2.53,2.66,3.87,3.86,5.44,3.87a1.86,1.86,0,0,0,2-2.06,3.54,3.54,0,0,0-.88-2.21l1-.45a4.56,4.56,0,0,1,1.06,2.94,2.93,2.93,0,0,1-3,3.19c-1.92,0-3.47-1.39-5.59-3.59l-.77-.83h0v4.67H206.1Z"/><path class="cls-6" d="M211.41,161.65c-3.54,0-5.49-1.31-5.49-3.62,0-2,1.9-3.41,5.35-3.44s5.41,1.5,5.41,3.62S214.72,161.65,211.41,161.65Zm-.16-5.65c-2.71,0-4.24.83-4.24,2.11,0,1.44,1.68,2.13,4.34,2.13s4.24-.66,4.24-2.11C215.59,156.9,214.08,156,211.25,156Z"/><path class="cls-6" d="M211.31,163.39c1,0,1.79,0,2.53-.06v1.26l-1.33.06v0a3,3,0,0,1,1.5,2.75c0,1.87-1.58,3.28-3.94,3.28-2.79,0-4.16-1.7-4.16-3.52a2.72,2.72,0,0,1,1.22-2.38v0h-4.21v-1.39Zm-2.06,1.39a3.18,3.18,0,0,0-.58.06A2.17,2.17,0,0,0,207,167c0,1.49,1.22,2.35,3,2.35,1.55,0,2.88-.82,2.88-2.3a2.25,2.25,0,0,0-1.74-2.13,2.27,2.27,0,0,0-.58-.1Z"/><path class="cls-6" d="M213.84,172.93l-1.67,1.1c-.43.29-.83.53-1.26.78v0c.46.26.86.51,1.28.77l1.65,1.09v1.52l-3.75-2.64-4,2.72v-1.6l1.75-1.14c.45-.3.88-.56,1.34-.83v0c-.46-.26-.88-.53-1.34-.82l-1.75-1.12v-1.55l4,2.75,3.79-2.63Z"/><path class="cls-6" d="M205.46,181.89l11.6,4.47v1.09L205.46,183Z"/><path class="cls-6" d="M215.19,194.56v0l-1-1.81,1.07-.27,1.22,2.27v1.2H206.1v-1.36Z"/><path class="cls-6" d="M206.93,199.83a1,1,0,0,1,1,1,1,1,0,1,1-1-1Z"/><path class="cls-6" d="M206.1,203H207l1.07,1.1c2.53,2.66,3.87,3.86,5.44,3.87a1.86,1.86,0,0,0,2-2.06,3.54,3.54,0,0,0-.88-2.21l1-.45a4.56,4.56,0,0,1,1.06,2.94,2.93,2.93,0,0,1-3,3.19c-1.92,0-3.47-1.39-5.59-3.59l-.77-.83h0v4.67H206.1Z"/><path class="cls-6" d="M215.32,217.44v-4l-2.67-.4a5.53,5.53,0,0,1,.06.85,4.39,4.39,0,0,1-.56,2.24,3,3,0,0,1-2.67,1.49,3.61,3.61,0,0,1-3.55-3.87,5.09,5.09,0,0,1,.64-2.59l1.07.35a4.66,4.66,0,0,0-.58,2.23,2.3,2.3,0,0,0,2.26,2.46c1.34,0,2.31-.91,2.31-3a10.59,10.59,0,0,0-.11-1.44l5,.67v5Z"/><path class="cls-6" d="M304.09,213.33a1.48,1.48,0,0,1,1-1.39v0a1.29,1.29,0,0,1-.82-1.17,1.46,1.46,0,0,1,1.61-1.38,1.34,1.34,0,0,1,1.51,1.28,1.32,1.32,0,0,1-.86,1.22v0a1.44,1.44,0,0,1,1,1.34,1.6,1.6,0,0,1-1.77,1.51C304.74,214.73,304.09,214.09,304.09,213.33Zm2.8,0c0-.63-.44-.94-1.14-1.14a1.13,1.13,0,0,0-.93,1.07,1,1,0,0,0,1,1A.94.94,0,0,0,306.89,213.29Zm-1.94-2.6c0,.52.39.8,1,1a1,1,0,0,0,.79-.94.81.81,0,0,0-.88-.85A.83.83,0,0,0,304.95,210.7Z"/><path class="cls-6" d="M308.48,212c0-.5,0-.9,0-1.26h.63l0,.66h0a1.52,1.52,0,0,1,1.38-.75,1.75,1.75,0,0,1,1.64,2,1.83,1.83,0,0,1-1.76,2.08,1.36,1.36,0,0,1-1.19-.61h0v2.1h-.7Zm.7,1a1.63,1.63,0,0,0,0,.29,1.09,1.09,0,0,0,1.06.82c.74,0,1.17-.61,1.17-1.5s-.41-1.44-1.15-1.44a1.12,1.12,0,0,0-1.06.87,1.17,1.17,0,0,0,0,.29Z"/><path class="cls-6" d="M313.25,210.78l.55.83c.14.22.26.42.39.63h0c.13-.23.26-.43.38-.64l.54-.82h.76l-1.32,1.87,1.36,2h-.8l-.57-.87c-.15-.22-.28-.44-.42-.67h0c-.13.23-.26.44-.41.67l-.56.87h-.78l1.38-2-1.31-1.89Z"/><path class="cls-6" d="M317.73,215l2.23-5.8h.54l-2.24,5.8Z"/><path class="cls-6" d="M322.59,214.23a.47.47,0,0,1,.48-.5.5.5,0,1,1-.48.5Z"/><path class="cls-6" d="M327.29,210h-2l-.2,1.34a2.74,2.74,0,0,1,.42,0,2.2,2.2,0,0,1,1.12.28,1.48,1.48,0,0,1,.74,1.34,1.8,1.8,0,0,1-1.93,1.77,2.54,2.54,0,0,1-1.29-.32l.18-.54a2.32,2.32,0,0,0,1.11.29,1.15,1.15,0,0,0,1.23-1.13c0-.67-.46-1.15-1.49-1.15a5.4,5.4,0,0,0-.72.06l.34-2.49h2.49Z"/><path class="cls-6" d="M328.91,212.84a1.24,1.24,0,0,0,1.33,1.34,2.54,2.54,0,0,0,1.07-.2l.12.5a3.14,3.14,0,0,1-1.29.24,1.8,1.8,0,0,1-1.9-2,1.88,1.88,0,0,1,1.82-2.09,1.64,1.64,0,0,1,1.6,1.82,2.71,2.71,0,0,1,0,.33Zm2.06-.5a1,1,0,0,0-1-1.14,1.17,1.17,0,0,0-1.08,1.14Z"/><path class="cls-6" d="M332.53,211.82c0-.4,0-.73,0-1h.62l0,.62h0a1.34,1.34,0,0,1,1.22-.71,1.14,1.14,0,0,1,1.1.78h0a1.58,1.58,0,0,1,.43-.5,1.32,1.32,0,0,1,.86-.27c.51,0,1.27.34,1.27,1.68v2.28h-.69v-2.19c0-.74-.27-1.19-.84-1.19a.91.91,0,0,0-.83.64,1.15,1.15,0,0,0-.06.35v2.39h-.69v-2.32c0-.62-.27-1.06-.81-1.06a1,1,0,0,0-.93,1v2.33h-.69Z"/><rect class="cls-5" x="5.16" y="136.18" width="20" height="158.25"/><path class="cls-6" d="M10.76,146.53h.87l1.07,1.1c2.53,2.66,3.87,3.86,5.44,3.87a1.86,1.86,0,0,0,2-2.06,3.54,3.54,0,0,0-.88-2.21l1-.45a4.56,4.56,0,0,1,1.06,2.94,2.93,2.93,0,0,1-3,3.19c-1.92,0-3.47-1.39-5.59-3.59L12,148.5h0v4.67H10.76Z"/><path class="cls-6" d="M16.07,161.65c-3.54,0-5.49-1.31-5.49-3.62,0-2,1.9-3.41,5.35-3.44s5.41,1.5,5.41,3.62S19.39,161.65,16.07,161.65ZM15.91,156c-2.71,0-4.24.83-4.24,2.11,0,1.44,1.68,2.13,4.34,2.13s4.24-.66,4.24-2.11C20.25,156.9,18.75,156,15.91,156Z"/><path class="cls-6" d="M16,163.39c1,0,1.79,0,2.53-.06v1.26l-1.33.06v0a3,3,0,0,1,1.5,2.75c0,1.87-1.58,3.28-3.94,3.28-2.79,0-4.16-1.7-4.16-3.52a2.72,2.72,0,0,1,1.22-2.38v0H7.59v-1.39Zm-2.06,1.39a3.18,3.18,0,0,0-.58.06A2.17,2.17,0,0,0,11.69,167c0,1.49,1.22,2.35,3,2.35,1.55,0,2.88-.82,2.88-2.3a2.25,2.25,0,0,0-1.74-2.13,2.27,2.27,0,0,0-.58-.1Z"/><path class="cls-6" d="M18.51,172.93,16.84,174c-.43.29-.83.53-1.26.78v0c.46.26.86.51,1.28.77l1.65,1.09v1.52l-3.75-2.64-4,2.72v-1.6l1.75-1.14c.45-.3.88-.56,1.34-.83v0c-.46-.26-.88-.53-1.34-.82l-1.75-1.12v-1.55l4,2.75,3.79-2.63Z"/><path class="cls-6" d="M10.12,181.89l11.6,4.47v1.09L10.12,183Z"/><path class="cls-6" d="M19.85,194.56v0l-1-1.81,1.07-.27,1.22,2.27v1.2H10.76v-1.36Z"/><path class="cls-6" d="M11.59,199.83a1,1,0,0,1,1,1,.93.93,0,0,1-1,.94,1,1,0,1,1,0-1.9Z"/><path class="cls-6" d="M10.76,203h.87l1.07,1.1c2.53,2.66,3.87,3.86,5.44,3.87a1.86,1.86,0,0,0,2-2.06,3.54,3.54,0,0,0-.88-2.21l1-.45a4.56,4.56,0,0,1,1.06,2.94,2.93,2.93,0,0,1-3,3.19c-1.92,0-3.47-1.39-5.59-3.59L12,205h0v4.67H10.76Z"/><path class="cls-6" d="M20,217.44v-4l-2.67-.4a5.53,5.53,0,0,1,.06.85,4.39,4.39,0,0,1-.56,2.24,3,3,0,0,1-2.67,1.49,3.61,3.61,0,0,1-3.55-3.87,5.09,5.09,0,0,1,.64-2.59l1.07.35a4.66,4.66,0,0,0-.58,2.23A2.3,2.3,0,0,0,14,216.23c1.34,0,2.31-.91,2.31-3a10.59,10.59,0,0,0-.11-1.44l5,.67v5Z"/><path class="cls-6" d="M48,155.75v0l-1-1.81,1.07-.27,1.22,2.27v1.2H38.92v-1.36Z"/><path class="cls-6" d="M49.32,167.65H48.4l-9.48-4.53v-1.46l9.2,4.51h0v-5.09h1.17Z"/><path class="cls-6" d="M48.14,175.32v-4l-2.67-.4a5.53,5.53,0,0,1,.06.85A4.39,4.39,0,0,1,45,174a3,3,0,0,1-2.67,1.49,3.61,3.61,0,0,1-3.55-3.87,5.09,5.09,0,0,1,.64-2.59l1.07.35a4.66,4.66,0,0,0-.58,2.23,2.3,2.3,0,0,0,2.26,2.46c1.34,0,2.31-.91,2.31-3a10.61,10.61,0,0,0-.11-1.44l5,.67v5Z"/><path class="cls-6" d="M44.14,177.76c1,0,1.79,0,2.53-.06V179l-1.33.06v0a3,3,0,0,1,1.5,2.75c0,1.87-1.58,3.28-3.94,3.28-2.79,0-4.16-1.7-4.16-3.52A2.72,2.72,0,0,1,40,179.19v0H35.75v-1.39Zm-2.06,1.39a3.18,3.18,0,0,0-.58.06,2.17,2.17,0,0,0-1.65,2.11c0,1.49,1.22,2.35,3,2.35,1.55,0,2.88-.82,2.88-2.3A2.25,2.25,0,0,0,44,179.25a2.27,2.27,0,0,0-.58-.1Z"/><path class="cls-6" d="M46.67,187.3,45,188.4c-.43.29-.83.53-1.26.78v0c.46.26.86.51,1.28.77l1.65,1.09v1.52L42.92,190l-4,2.72v-1.6L40.67,190c.45-.3.88-.56,1.34-.83v0c-.46-.26-.88-.53-1.34-.82l-1.75-1.12V185.6l4,2.75,3.79-2.63Z"/><path class="cls-6" d="M38.28,196.26l11.6,4.47v1.09l-11.6-4.48Z"/><path class="cls-6" d="M48,208.93v0l-1-1.81,1.07-.27,1.22,2.27v1.2H38.92v-1.36Z"/><path class="cls-6" d="M44.23,221c-3.54,0-5.49-1.31-5.49-3.62,0-2,1.9-3.41,5.35-3.44s5.41,1.5,5.41,3.62S47.55,221,44.23,221Zm-.16-5.65c-2.71,0-4.24.83-4.24,2.11,0,1.44,1.68,2.13,4.34,2.13s4.24-.66,4.24-2.11C48.41,216.24,46.91,215.35,44.07,215.35Z"/><path class="cls-6" d="M39.75,222.4a1,1,0,0,1,1,1,1,1,0,1,1-1-1Z"/><path class="cls-6" d="M39.91,226.42a5.88,5.88,0,0,0,0,1.14,3.92,3.92,0,0,0,1,2.18,4.57,4.57,0,0,0,2.77,1.38v0a3.06,3.06,0,0,1-1.12-2.45,3,3,0,0,1,3.19-3.07,3.57,3.57,0,0,1,3.7,3.55c0,2.13-1.73,3.44-4.38,3.44a6.58,6.58,0,0,1-4.88-1.79,5.21,5.21,0,0,1-1.39-3,6.59,6.59,0,0,1-.08-1.3Zm6,.51a2,2,0,0,0-2.21,2,2.33,2.33,0,0,0,1.09,2,.92.92,0,0,0,.51.13c1.78,0,3.14-.66,3.14-2.13C48.43,227.78,47.37,226.93,45.9,226.93Z"/><path class="cls-6" d="M38.92,238.16h2.83v-4.83h.93L49.32,238v1.52H42.86v1.46h-1.1v-1.46H38.92Zm3.94,0h3.47c.54,0,1.09,0,1.63,0v0c-.61-.32-1.06-.58-1.54-.86l-3.54-2.54h0Z"/><path class="cls-4" d="M88.85,179.64H84.09l-1.07,3H81.47l4.34-11.37h1.31l4.35,11.38H89.94Zm-4.31-1.23h3.87l-1.94-5.32Z"/><path class="cls-4" d="M94.92,179l.22,1.5.32-1.35,2.25-7.94H99l2.2,7.94.31,1.38.24-1.53,1.77-7.78H105l-2.76,11.38h-1.37l-2.34-8.29-.18-.87-.18.87-2.43,8.29H94.38l-2.75-11.37h1.5Z"/><path class="cls-4" d="M110,177.55a7.05,7.05,0,0,1-2.81-1.36,2.6,2.6,0,0,1-.88-2A2.75,2.75,0,0,1,107.4,172a4.27,4.27,0,0,1,2.79-.88,4.66,4.66,0,0,1,2.09.45,3.44,3.44,0,0,1,1.42,1.25,3.2,3.2,0,0,1,.5,1.74h-1.51a2.08,2.08,0,0,0-.66-1.63,2.67,2.67,0,0,0-1.85-.59,2.73,2.73,0,0,0-1.73.49,1.63,1.63,0,0,0-.62,1.36,1.47,1.47,0,0,0,.59,1.18,5.78,5.78,0,0,0,2,.88,9.32,9.32,0,0,1,2.22.88,3.37,3.37,0,0,1,1.19,1.12,2.86,2.86,0,0,1,.39,1.51,2.66,2.66,0,0,1-1.08,2.21,4.6,4.6,0,0,1-2.88.83,5.35,5.35,0,0,1-2.19-.45,3.68,3.68,0,0,1-1.57-1.23,3,3,0,0,1-.55-1.77h1.51a2,2,0,0,0,.76,1.63,3.21,3.21,0,0,0,2,.6,3,3,0,0,0,1.82-.48,1.57,1.57,0,0,0,.63-1.32,1.54,1.54,0,0,0-.59-1.29A6.75,6.75,0,0,0,110,177.55Z"/><path class="cls-4" d="M126.4,179.64h-4.77l-1.07,3H119l4.34-11.37h1.31L129,182.62h-1.54Zm-4.31-1.23H126L124,173.1Z"/><path class="cls-4" d="M133.72,181.6a2.08,2.08,0,0,0,1.35-.47,1.65,1.65,0,0,0,.64-1.17h1.37a2.61,2.61,0,0,1-.5,1.38,3.28,3.28,0,0,1-1.23,1,3.55,3.55,0,0,1-1.63.39,3.48,3.48,0,0,1-2.75-1.15,4.59,4.59,0,0,1-1-3.15v-.24a5.09,5.09,0,0,1,.45-2.2,3.46,3.46,0,0,1,1.3-1.49,3.7,3.7,0,0,1,2-.53,3.39,3.39,0,0,1,2.36.85,3,3,0,0,1,1,2.21h-1.37a2,2,0,0,0-.62-1.35,1.93,1.93,0,0,0-1.38-.53A2,2,0,0,0,132,176a3.73,3.73,0,0,0-.61,2.29v.27a3.65,3.65,0,0,0,.6,2.25A2,2,0,0,0,133.72,181.6Z"/><path class="cls-4" d="M142.1,181.6a2.08,2.08,0,0,0,1.35-.47,1.65,1.65,0,0,0,.64-1.17h1.37a2.61,2.61,0,0,1-.5,1.38,3.28,3.28,0,0,1-1.23,1,3.55,3.55,0,0,1-1.63.39,3.48,3.48,0,0,1-2.75-1.15,4.59,4.59,0,0,1-1-3.15v-.24a5.09,5.09,0,0,1,.45-2.2,3.46,3.46,0,0,1,1.3-1.49,3.7,3.7,0,0,1,2-.53,3.39,3.39,0,0,1,2.36.85,3,3,0,0,1,1,2.21h-1.37a2,2,0,0,0-.62-1.35,1.93,1.93,0,0,0-1.38-.53,2,2,0,0,0-1.71.79,3.73,3.73,0,0,0-.61,2.29v.27a3.65,3.65,0,0,0,.6,2.25A2,2,0,0,0,142.1,181.6Z"/><path class="cls-4" d="M146.7,178.31a5,5,0,0,1,.49-2.23,3.65,3.65,0,0,1,1.36-1.53,3.7,3.7,0,0,1,2-.54,3.56,3.56,0,0,1,2.79,1.2,4.6,4.6,0,0,1,1.07,3.18v.1a5,5,0,0,1-.47,2.21,3.58,3.58,0,0,1-1.35,1.53,3.74,3.74,0,0,1-2,.55,3.56,3.56,0,0,1-2.79-1.2,4.58,4.58,0,0,1-1.07-3.16Zm1.45.17a3.62,3.62,0,0,0,.65,2.26,2.21,2.21,0,0,0,3.5,0,4,4,0,0,0,.65-2.42,3.61,3.61,0,0,0-.66-2.25,2.1,2.1,0,0,0-1.75-.86,2.08,2.08,0,0,0-1.73.85A3.93,3.93,0,0,0,148.15,178.49Z"/><path class="cls-4" d="M161.42,181.78a3.07,3.07,0,0,1-2.48,1,2.63,2.63,0,0,1-2.06-.79,3.4,3.4,0,0,1-.71-2.32v-5.5h1.45v5.46q0,1.92,1.56,1.92a2.16,2.16,0,0,0,2.2-1.23v-6.15h1.45v8.45h-1.37Z"/><path class="cls-4" d="M166.39,174.17l0,1.06A3.08,3.08,0,0,1,169,174q2.68,0,2.7,3v5.59h-1.45V177a1.94,1.94,0,0,0-.42-1.35,1.68,1.68,0,0,0-1.28-.44,2.09,2.09,0,0,0-1.23.38,2.55,2.55,0,0,0-.83,1v6H165v-8.45Z"/><path class="cls-4" d="M175.81,172.12v2h1.58v1.12h-1.58v5.25a1.17,1.17,0,0,0,.21.76.89.89,0,0,0,.72.25,3.49,3.49,0,0,0,.69-.09v1.17a4.21,4.21,0,0,1-1.11.16,1.8,1.8,0,0,1-1.46-.59,2.52,2.52,0,0,1-.49-1.66v-5.24h-1.54v-1.12h1.54v-2Z"/><path class="cls-4" d="M184.88,182.62h-1.5V171.24h1.5Z"/><path class="cls-4" d="M187.62,182.62V171.24h3.21a5.17,5.17,0,0,1,2.63.66,4.44,4.44,0,0,1,1.76,1.87,6.07,6.07,0,0,1,.63,2.78v.73a6.1,6.1,0,0,1-.62,2.82,4.36,4.36,0,0,1-1.77,1.86,5.49,5.49,0,0,1-2.68.66Zm1.5-10.15v8.92h1.58a3.43,3.43,0,0,0,2.7-1.08,4.46,4.46,0,0,0,1-3.07v-.66a4.53,4.53,0,0,0-.91-3,3.24,3.24,0,0,0-2.58-1.09Z"/><path class="cls-4" d="M197.84,181.86a.91.91,0,0,1,.22-.62.85.85,0,0,1,.67-.25.87.87,0,0,1,.68.25.88.88,0,0,1,.23.63.84.84,0,0,1-.23.6.89.89,0,0,1-.68.24.86.86,0,0,1-.67-.24A.85.85,0,0,1,197.84,181.86Zm0-6.9a.91.91,0,0,1,.22-.62.85.85,0,0,1,.67-.25.87.87,0,0,1,.68.25.88.88,0,0,1,.23.63.84.84,0,0,1-.23.6.89.89,0,0,1-.68.24.8.8,0,0,1-.89-.84Z"/><path class="cls-4" d="M153.14,202h-2.67v4.6H149V195.24h3.77a4.46,4.46,0,0,1,3,.88,3.15,3.15,0,0,1,1,2.55,3.06,3.06,0,0,1-.57,1.85,3.42,3.42,0,0,1-1.6,1.18l2.67,4.83v.09h-1.61Zm-2.67-1.23h2.3a2.6,2.6,0,0,0,1.78-.58,2,2,0,0,0,.66-1.55,2.06,2.06,0,0,0-.63-1.62,2.66,2.66,0,0,0-1.82-.57h-2.3Z"/><path class="cls-4" d="M162.1,206.78a3.69,3.69,0,0,1-2.8-1.13,4.19,4.19,0,0,1-1.08-3v-.27a5.07,5.07,0,0,1,.48-2.25,3.75,3.75,0,0,1,1.34-1.55,3.38,3.38,0,0,1,1.87-.56,3.17,3.17,0,0,1,2.56,1.09,4.7,4.7,0,0,1,.91,3.11v.6h-5.73a3,3,0,0,0,.73,2,2.3,2.3,0,0,0,1.78.77,2.51,2.51,0,0,0,1.3-.31,3.25,3.25,0,0,0,.93-.83l.88.69A3.55,3.55,0,0,1,162.1,206.78Zm-.18-7.58a1.93,1.93,0,0,0-1.47.64,3.1,3.1,0,0,0-.73,1.79H164v-.11a2.75,2.75,0,0,0-.59-1.71A1.81,1.81,0,0,0,161.92,199.2Z"/><path class="cls-4" d="M166.73,202.32a5,5,0,0,1,.91-3.14,3.15,3.15,0,0,1,4.84-.07l.07-.94h1.32v8.25a3.44,3.44,0,0,1-1,2.59,3.59,3.59,0,0,1-2.61.95,4.35,4.35,0,0,1-1.79-.39,3.09,3.09,0,0,1-1.34-1.07l.75-.87a2.83,2.83,0,0,0,2.27,1.15,2.21,2.21,0,0,0,1.64-.59,2.27,2.27,0,0,0,.59-1.67v-.73a3,3,0,0,1-2.37,1,2.89,2.89,0,0,1-2.4-1.2A5.23,5.23,0,0,1,166.73,202.32Zm1.45.16a3.79,3.79,0,0,0,.59,2.25,1.9,1.9,0,0,0,1.64.82,2.12,2.12,0,0,0,2-1.24v-3.86a2.14,2.14,0,0,0-2-1.21,1.92,1.92,0,0,0-1.65.82A4.13,4.13,0,0,0,168.18,202.49Z"/><path class="cls-4" d="M176.06,195.92a.87.87,0,0,1,.21-.59.81.81,0,0,1,.64-.24.82.82,0,0,1,.64.24.85.85,0,0,1,.22.59.82.82,0,0,1-.22.59.83.83,0,0,1-.64.23.82.82,0,0,1-.64-.23A.84.84,0,0,1,176.06,195.92Zm1.56,10.7h-1.45v-8.45h1.45Z"/><path class="cls-4" d="M179.55,202.31a5,5,0,0,1,.49-2.23,3.65,3.65,0,0,1,1.36-1.53,3.7,3.7,0,0,1,2-.54,3.56,3.56,0,0,1,2.79,1.2,4.6,4.6,0,0,1,1.07,3.18v.1a5,5,0,0,1-.47,2.21,3.58,3.58,0,0,1-1.35,1.53,3.74,3.74,0,0,1-2,.55,3.56,3.56,0,0,1-2.79-1.2,4.58,4.58,0,0,1-1.07-3.16Zm1.45.17a3.62,3.62,0,0,0,.65,2.26,2.21,2.21,0,0,0,3.5,0,4,4,0,0,0,.65-2.42,3.61,3.61,0,0,0-.66-2.25,2.1,2.1,0,0,0-1.75-.86,2.08,2.08,0,0,0-1.73.85A3.93,3.93,0,0,0,181,202.49Z"/><path class="cls-4" d="M190.42,198.17l0,1.06A3.08,3.08,0,0,1,193,198q2.68,0,2.7,3v5.59h-1.45V201a1.94,1.94,0,0,0-.42-1.35,1.68,1.68,0,0,0-1.28-.44,2.09,2.09,0,0,0-1.23.38,2.55,2.55,0,0,0-.83,1v6h-1.45v-8.45Z"/><path class="cls-4" d="M197.84,205.86a.91.91,0,0,1,.22-.62.85.85,0,0,1,.67-.25.87.87,0,0,1,.68.25.88.88,0,0,1,.23.63.84.84,0,0,1-.23.6.89.89,0,0,1-.68.24.86.86,0,0,1-.67-.24A.85.85,0,0,1,197.84,205.86Zm0-6.9a.91.91,0,0,1,.22-.62.85.85,0,0,1,.67-.25.87.87,0,0,1,.68.25.88.88,0,0,1,.23.63.84.84,0,0,1-.23.6.89.89,0,0,1-.68.24.8.8,0,0,1-.89-.84Z"/><path class="cls-4" d="M90.2,230.62H88.69L83,221.85v8.77H81.46V219.24H83l5.74,8.8v-8.8H90.2Z"/><path class="cls-4" d="M96.14,230.78a3.69,3.69,0,0,1-2.8-1.13,4.19,4.19,0,0,1-1.08-3v-.27a5.07,5.07,0,0,1,.48-2.25,3.75,3.75,0,0,1,1.34-1.55A3.38,3.38,0,0,1,96,222a3.17,3.17,0,0,1,2.56,1.09,4.7,4.7,0,0,1,.91,3.11v.6H93.71a3,3,0,0,0,.73,2,2.3,2.3,0,0,0,1.78.77,2.51,2.51,0,0,0,1.3-.31,3.25,3.25,0,0,0,.93-.83l.88.69A3.55,3.55,0,0,1,96.14,230.78ZM96,223.2a1.93,1.93,0,0,0-1.47.64,3.1,3.1,0,0,0-.73,1.79H98v-.11a2.75,2.75,0,0,0-.59-1.71A1.81,1.81,0,0,0,96,223.2Z"/><path class="cls-4" d="M108.6,228.63l1.63-6.46h1.45l-2.46,8.45H108L106,224.21l-2,6.41h-1.17l-2.45-8.45h1.44l1.66,6.33,2-6.33h1.16Z"/><path class="cls-4" d="M120.67,225.55a7.05,7.05,0,0,1-2.81-1.36,2.6,2.6,0,0,1-.88-2,2.75,2.75,0,0,1,1.07-2.22,4.27,4.27,0,0,1,2.79-.88,4.66,4.66,0,0,1,2.09.45,3.44,3.44,0,0,1,1.42,1.25,3.2,3.2,0,0,1,.5,1.74h-1.51a2.08,2.08,0,0,0-.66-1.63,2.67,2.67,0,0,0-1.85-.59,2.73,2.73,0,0,0-1.73.49,1.63,1.63,0,0,0-.62,1.36,1.47,1.47,0,0,0,.59,1.18,5.78,5.78,0,0,0,2,.88,9.32,9.32,0,0,1,2.22.88,3.37,3.37,0,0,1,1.19,1.12,2.86,2.86,0,0,1,.39,1.51,2.66,2.66,0,0,1-1.08,2.21,4.6,4.6,0,0,1-2.88.83,5.35,5.35,0,0,1-2.19-.45,3.68,3.68,0,0,1-1.57-1.23,3,3,0,0,1-.55-1.77h1.51a2,2,0,0,0,.76,1.63,3.21,3.21,0,0,0,2,.6,3,3,0,0,0,1.82-.48,1.57,1.57,0,0,0,.63-1.32,1.54,1.54,0,0,0-.59-1.29A6.75,6.75,0,0,0,120.67,225.55Z"/><path class="cls-4" d="M128.55,220.12v2h1.58v1.12h-1.58v5.25a1.17,1.17,0,0,0,.21.76.89.89,0,0,0,.72.25,3.49,3.49,0,0,0,.69-.09v1.17a4.21,4.21,0,0,1-1.11.16,1.8,1.8,0,0,1-1.46-.59,2.52,2.52,0,0,1-.49-1.66v-5.24h-1.54v-1.12h1.54v-2Z"/><path class="cls-4" d="M137,230.62a3.07,3.07,0,0,1-.2-.89,3.22,3.22,0,0,1-2.41,1,3,3,0,0,1-2.05-.71,2.29,2.29,0,0,1-.8-1.79,2.39,2.39,0,0,1,1-2.05,4.74,4.74,0,0,1,2.82-.73h1.41v-.66a1.62,1.62,0,0,0-.45-1.21,1.82,1.82,0,0,0-1.34-.45,2.11,2.11,0,0,0-1.3.39,1.15,1.15,0,0,0-.52.95h-1.45a2,2,0,0,1,.45-1.22,3.07,3.07,0,0,1,1.22-.93,4.11,4.11,0,0,1,1.69-.34,3.34,3.34,0,0,1,2.29.73,2.63,2.63,0,0,1,.86,2v3.89a4.77,4.77,0,0,0,.3,1.85v.13Zm-2.4-1.1a2.54,2.54,0,0,0,1.29-.35,2.12,2.12,0,0,0,.88-.91v-1.73h-1.13q-2.66,0-2.66,1.55a1.32,1.32,0,0,0,.45,1.06A1.74,1.74,0,0,0,134.64,229.52Z"/><path class="cls-4" d="M142.48,220.12v2h1.58v1.12h-1.58v5.25a1.17,1.17,0,0,0,.21.76.89.89,0,0,0,.72.25,3.49,3.49,0,0,0,.69-.09v1.17a4.21,4.21,0,0,1-1.11.16,1.8,1.8,0,0,1-1.46-.59,2.52,2.52,0,0,1-.49-1.66v-5.24h-1.54v-1.12H141v-2Z"/><path class="cls-4" d="M149.25,230.78a3.69,3.69,0,0,1-2.8-1.13,4.19,4.19,0,0,1-1.08-3v-.27a5.07,5.07,0,0,1,.48-2.25,3.75,3.75,0,0,1,1.34-1.55,3.38,3.38,0,0,1,1.87-.56,3.17,3.17,0,0,1,2.56,1.09,4.7,4.7,0,0,1,.91,3.11v.6h-5.73a3,3,0,0,0,.73,2,2.3,2.3,0,0,0,1.78.77,2.51,2.51,0,0,0,1.3-.31,3.25,3.25,0,0,0,.93-.83l.88.69A3.55,3.55,0,0,1,149.25,230.78Zm-.18-7.58a1.93,1.93,0,0,0-1.47.64,3.1,3.1,0,0,0-.73,1.79h4.23v-.11a2.75,2.75,0,0,0-.59-1.71A1.81,1.81,0,0,0,149.07,223.2Z"/><path class="cls-4" d="M162.17,228.63l3.25-9.38h1.64l-4.22,11.38h-1.33l-4.21-11.37h1.63Z"/><path class="cls-4" d="M173.22,230.62a3.07,3.07,0,0,1-.2-.89,3.22,3.22,0,0,1-2.41,1,3,3,0,0,1-2.05-.71,2.29,2.29,0,0,1-.8-1.79,2.39,2.39,0,0,1,1-2.05,4.74,4.74,0,0,1,2.82-.73H173v-.66a1.62,1.62,0,0,0-.45-1.21,1.82,1.82,0,0,0-1.34-.45,2.11,2.11,0,0,0-1.3.39,1.15,1.15,0,0,0-.52.95h-1.45a2,2,0,0,1,.45-1.22,3.07,3.07,0,0,1,1.22-.93,4.11,4.11,0,0,1,1.69-.34,3.34,3.34,0,0,1,2.29.73,2.63,2.63,0,0,1,.86,2v3.89a4.77,4.77,0,0,0,.3,1.85v.13Zm-2.4-1.1a2.54,2.54,0,0,0,1.29-.35,2.12,2.12,0,0,0,.88-.91v-1.73h-1.13q-2.66,0-2.66,1.55a1.32,1.32,0,0,0,.45,1.06A1.74,1.74,0,0,0,170.82,229.52Z"/><path class="cls-4" d="M178.28,230.62h-1.45v-12h1.45Z"/><path class="cls-4" d="M185.81,229.78a3.07,3.07,0,0,1-2.48,1,2.63,2.63,0,0,1-2.06-.79,3.4,3.4,0,0,1-.71-2.32v-5.5H182v5.46q0,1.92,1.56,1.92a2.16,2.16,0,0,0,2.2-1.23v-6.15h1.45v8.45h-1.37Z"/><path class="cls-4" d="M192.92,230.78a3.69,3.69,0,0,1-2.8-1.13,4.19,4.19,0,0,1-1.08-3v-.27a5.07,5.07,0,0,1,.48-2.25,3.75,3.75,0,0,1,1.34-1.55,3.38,3.38,0,0,1,1.87-.56,3.17,3.17,0,0,1,2.56,1.09,4.7,4.7,0,0,1,.91,3.11v.6h-5.73a3,3,0,0,0,.73,2,2.3,2.3,0,0,0,1.78.77,2.51,2.51,0,0,0,1.3-.31,3.25,3.25,0,0,0,.93-.83l.88.69A3.55,3.55,0,0,1,192.92,230.78Zm-.18-7.58a1.93,1.93,0,0,0-1.47.64,3.1,3.1,0,0,0-.73,1.79h4.23v-.11a2.75,2.75,0,0,0-.59-1.71A1.81,1.81,0,0,0,192.74,223.2Z"/><path class="cls-4" d="M197.84,229.86a.91.91,0,0,1,.22-.62.85.85,0,0,1,.67-.25.87.87,0,0,1,.68.25.88.88,0,0,1,.23.63.84.84,0,0,1-.23.6.89.89,0,0,1-.68.24.86.86,0,0,1-.67-.24A.85.85,0,0,1,197.84,229.86Zm0-6.9a.91.91,0,0,1,.22-.62.85.85,0,0,1,.67-.25.87.87,0,0,1,.68.25.88.88,0,0,1,.23.63.84.84,0,0,1-.23.6.89.89,0,0,1-.68.24.8.8,0,0,1-.89-.84Z"/><path class="cls-4" d="M76.67,254.62H75.16l-5.73-8.77v8.77H67.92V243.24h1.51l5.74,8.8v-8.8h1.49Z"/><path class="cls-4" d="M82.61,254.78a3.69,3.69,0,0,1-2.8-1.13,4.19,4.19,0,0,1-1.08-3v-.27a5.07,5.07,0,0,1,.48-2.25,3.75,3.75,0,0,1,1.34-1.55,3.38,3.38,0,0,1,1.87-.56A3.17,3.17,0,0,1,85,247.1a4.7,4.7,0,0,1,.91,3.11v.6H80.18a3,3,0,0,0,.73,2,2.3,2.3,0,0,0,1.78.77,2.51,2.51,0,0,0,1.3-.31,3.25,3.25,0,0,0,.93-.83l.88.69A3.55,3.55,0,0,1,82.61,254.78Zm-.18-7.58a1.93,1.93,0,0,0-1.47.64,3.1,3.1,0,0,0-.73,1.79h4.23v-.11a2.75,2.75,0,0,0-.59-1.71A1.81,1.81,0,0,0,82.43,247.2Z"/><path class="cls-4" d="M95.06,252.63l1.63-6.46h1.45l-2.46,8.45H94.5l-2.05-6.41-2,6.41H89.28l-2.45-8.45h1.44l1.66,6.33,2-6.33h1.16Z"/><path class="cls-4" d="M107.14,249.55a7.05,7.05,0,0,1-2.81-1.36,2.6,2.6,0,0,1-.88-2,2.75,2.75,0,0,1,1.07-2.22,4.27,4.27,0,0,1,2.79-.88,4.66,4.66,0,0,1,2.09.45,3.44,3.44,0,0,1,1.42,1.25,3.2,3.2,0,0,1,.5,1.74h-1.51a2.08,2.08,0,0,0-.66-1.63,2.67,2.67,0,0,0-1.85-.59,2.73,2.73,0,0,0-1.73.49,1.63,1.63,0,0,0-.62,1.36,1.47,1.47,0,0,0,.59,1.18,5.78,5.78,0,0,0,2,.88,9.32,9.32,0,0,1,2.22.88,3.37,3.37,0,0,1,1.19,1.12,2.86,2.86,0,0,1,.39,1.51,2.66,2.66,0,0,1-1.08,2.21,4.6,4.6,0,0,1-2.88.83,5.35,5.35,0,0,1-2.19-.45,3.68,3.68,0,0,1-1.57-1.23,3,3,0,0,1-.55-1.77h1.51a2,2,0,0,0,.76,1.63,3.21,3.21,0,0,0,2,.6,3,3,0,0,0,1.82-.48,1.57,1.57,0,0,0,.63-1.32,1.54,1.54,0,0,0-.59-1.29A6.75,6.75,0,0,0,107.14,249.55Z"/><path class="cls-4" d="M115,244.12v2h1.58v1.12H115v5.25a1.17,1.17,0,0,0,.21.76.89.89,0,0,0,.72.25,3.49,3.49,0,0,0,.69-.09v1.17a4.21,4.21,0,0,1-1.11.16,1.8,1.8,0,0,1-1.46-.59,2.52,2.52,0,0,1-.49-1.66v-5.24H112v-1.12h1.54v-2Z"/><path class="cls-4" d="M123.5,254.62a3.07,3.07,0,0,1-.2-.89,3.22,3.22,0,0,1-2.41,1,3,3,0,0,1-2.05-.71,2.29,2.29,0,0,1-.8-1.79,2.39,2.39,0,0,1,1-2.05,4.74,4.74,0,0,1,2.82-.73h1.41v-.66a1.62,1.62,0,0,0-.45-1.21,1.82,1.82,0,0,0-1.34-.45,2.11,2.11,0,0,0-1.3.39,1.15,1.15,0,0,0-.52.95h-1.45a2,2,0,0,1,.45-1.22,3.07,3.07,0,0,1,1.22-.93,4.11,4.11,0,0,1,1.69-.34,3.34,3.34,0,0,1,2.29.73,2.63,2.63,0,0,1,.86,2v3.89a4.77,4.77,0,0,0,.3,1.85v.13Zm-2.4-1.1a2.54,2.54,0,0,0,1.29-.35,2.12,2.12,0,0,0,.88-.91v-1.73h-1.13q-2.66,0-2.66,1.55a1.32,1.32,0,0,0,.45,1.06A1.74,1.74,0,0,0,121.1,253.52Z"/><path class="cls-4" d="M128.95,244.12v2h1.58v1.12h-1.58v5.25a1.17,1.17,0,0,0,.21.76.89.89,0,0,0,.72.25,3.49,3.49,0,0,0,.69-.09v1.17a4.21,4.21,0,0,1-1.11.16,1.8,1.8,0,0,1-1.46-.59,2.52,2.52,0,0,1-.49-1.66v-5.24H126v-1.12h1.54v-2Z"/><path class="cls-4" d="M135.72,254.78a3.69,3.69,0,0,1-2.8-1.13,4.19,4.19,0,0,1-1.08-3v-.27a5.07,5.07,0,0,1,.48-2.25,3.75,3.75,0,0,1,1.34-1.55,3.38,3.38,0,0,1,1.87-.56,3.17,3.17,0,0,1,2.56,1.09,4.7,4.7,0,0,1,.91,3.11v.6h-5.73a3,3,0,0,0,.73,2,2.3,2.3,0,0,0,1.78.77,2.51,2.51,0,0,0,1.3-.31,3.25,3.25,0,0,0,.93-.83l.88.69A3.55,3.55,0,0,1,135.72,254.78Zm-.18-7.58a1.93,1.93,0,0,0-1.47.64,3.1,3.1,0,0,0-.73,1.79h4.23v-.11a2.75,2.75,0,0,0-.59-1.71A1.81,1.81,0,0,0,135.54,247.2Z"/><path class="cls-4" d="M149,250h-2.67v4.6h-1.51V243.24h3.77a4.46,4.46,0,0,1,3,.88,3.15,3.15,0,0,1,1,2.55,3.06,3.06,0,0,1-.57,1.85,3.42,3.42,0,0,1-1.6,1.18l2.67,4.83v.09h-1.61Zm-2.67-1.23h2.3a2.6,2.6,0,0,0,1.78-.58,2,2,0,0,0,.66-1.55,2.06,2.06,0,0,0-.63-1.62,2.66,2.66,0,0,0-1.82-.57h-2.3Z"/><path class="cls-4" d="M158,254.78a3.69,3.69,0,0,1-2.8-1.13,4.19,4.19,0,0,1-1.08-3v-.27a5.07,5.07,0,0,1,.48-2.25,3.75,3.75,0,0,1,1.34-1.55,3.38,3.38,0,0,1,1.87-.56,3.17,3.17,0,0,1,2.56,1.09,4.7,4.7,0,0,1,.91,3.11v.6h-5.73a3,3,0,0,0,.73,2,2.3,2.3,0,0,0,1.78.77,2.51,2.51,0,0,0,1.3-.31,3.25,3.25,0,0,0,.93-.83l.88.69A3.55,3.55,0,0,1,158,254.78Zm-.18-7.58a1.93,1.93,0,0,0-1.47.64,3.1,3.1,0,0,0-.73,1.79h4.23v-.11a2.75,2.75,0,0,0-.59-1.71A1.81,1.81,0,0,0,157.83,247.2Z"/><path class="cls-4" d="M168.2,254.62a3.07,3.07,0,0,1-.2-.89,3.22,3.22,0,0,1-2.41,1,3,3,0,0,1-2.05-.71,2.29,2.29,0,0,1-.8-1.79,2.39,2.39,0,0,1,1-2.05,4.74,4.74,0,0,1,2.82-.73H168v-.66a1.62,1.62,0,0,0-.45-1.21,1.82,1.82,0,0,0-1.34-.45,2.11,2.11,0,0,0-1.3.39,1.15,1.15,0,0,0-.52.95h-1.45a2,2,0,0,1,.45-1.22,3.07,3.07,0,0,1,1.22-.93,4.11,4.11,0,0,1,1.69-.34,3.34,3.34,0,0,1,2.29.73,2.63,2.63,0,0,1,.86,2v3.89a4.77,4.77,0,0,0,.3,1.85v.13Zm-2.4-1.1a2.54,2.54,0,0,0,1.29-.35,2.12,2.12,0,0,0,.88-.91v-1.73h-1.13q-2.66,0-2.66,1.55a1.32,1.32,0,0,0,.45,1.06A1.74,1.74,0,0,0,165.8,253.52Z"/><path class="cls-4" d="M176.6,252.38a1.06,1.06,0,0,0-.44-.91,4.25,4.25,0,0,0-1.54-.56,7.28,7.28,0,0,1-1.74-.56,2.48,2.48,0,0,1-1-.78,1.87,1.87,0,0,1-.31-1.08,2.19,2.19,0,0,1,.88-1.76,3.43,3.43,0,0,1,2.25-.72,3.53,3.53,0,0,1,2.33.74,2.36,2.36,0,0,1,.89,1.9h-1.45a1.31,1.31,0,0,0-.5-1,1.89,1.89,0,0,0-1.27-.43,2,2,0,0,0-1.23.34,1.08,1.08,0,0,0-.45.9.88.88,0,0,0,.41.79,5.09,5.09,0,0,0,1.5.51,7.8,7.8,0,0,1,1.75.58,2.56,2.56,0,0,1,1,.81,2,2,0,0,1,.32,1.15,2.16,2.16,0,0,1-.91,1.82,3.8,3.8,0,0,1-2.35.68,4.26,4.26,0,0,1-1.8-.36,2.93,2.93,0,0,1-1.22-1,2.42,2.42,0,0,1-.44-1.39h1.45a1.5,1.5,0,0,0,.58,1.15,2.26,2.26,0,0,0,1.43.43,2.33,2.33,0,0,0,1.32-.33A1,1,0,0,0,176.6,252.38Z"/><path class="cls-4" d="M179.55,250.31a5,5,0,0,1,.49-2.23,3.65,3.65,0,0,1,1.36-1.53,3.7,3.7,0,0,1,2-.54,3.56,3.56,0,0,1,2.79,1.2,4.6,4.6,0,0,1,1.07,3.18v.1a5,5,0,0,1-.47,2.21,3.58,3.58,0,0,1-1.35,1.53,3.74,3.74,0,0,1-2,.55,3.56,3.56,0,0,1-2.79-1.2,4.58,4.58,0,0,1-1.07-3.16Zm1.45.17a3.62,3.62,0,0,0,.65,2.26,2.21,2.21,0,0,0,3.5,0,4,4,0,0,0,.65-2.42,3.61,3.61,0,0,0-.66-2.25,2.1,2.1,0,0,0-1.75-.86,2.08,2.08,0,0,0-1.73.85A3.93,3.93,0,0,0,181,250.49Z"/><path class="cls-4" d="M190.42,246.17l0,1.06A3.08,3.08,0,0,1,193,246q2.68,0,2.7,3v5.59h-1.45V249a1.94,1.94,0,0,0-.42-1.35,1.68,1.68,0,0,0-1.28-.44,2.09,2.09,0,0,0-1.23.38,2.55,2.55,0,0,0-.83,1v6h-1.45v-8.45Z"/><path class="cls-4" d="M197.84,253.86a.91.91,0,0,1,.22-.62.85.85,0,0,1,.67-.25.87.87,0,0,1,.68.25.88.88,0,0,1,.23.63.84.84,0,0,1-.23.6.89.89,0,0,1-.68.24.86.86,0,0,1-.67-.24A.85.85,0,0,1,197.84,253.86Zm0-6.9a.91.91,0,0,1,.22-.62.85.85,0,0,1,.67-.25.87.87,0,0,1,.68.25.88.88,0,0,1,.23.63.84.84,0,0,1-.23.6.89.89,0,0,1-.68.24.8.8,0,0,1-.89-.84Z"/><path class="cls-6" d="M410,273.43v-.86l1.11-1.07c2.66-2.53,3.86-3.87,3.87-5.44a1.86,1.86,0,0,0-2.06-2,3.54,3.54,0,0,0-2.21.88l-.45-1a4.56,4.56,0,0,1,2.94-1.06,2.93,2.93,0,0,1,3.19,3c0,1.92-1.39,3.47-3.58,5.59l-.83.77v0h4.67v1.17Z"/><path class="cls-6" d="M422.51,273.43v-2.83h-4.83v-.93l4.64-6.64h1.52v6.47h1.46v1.1h-1.46v2.83Zm0-3.94V266q0-.82,0-1.63h0c-.32.61-.58,1.06-.87,1.54l-2.54,3.54v0Z"/><path class="cls-6" d="M426.81,268.21c0-1,0-1.79-.06-2.53H428l.06,1.33h0a3,3,0,0,1,2.75-1.5c1.87,0,3.28,1.58,3.28,3.94,0,2.79-1.7,4.16-3.52,4.16a2.72,2.72,0,0,1-2.38-1.22h0v4.21h-1.39Zm1.39,2.06a3.24,3.24,0,0,0,.06.58,2.18,2.18,0,0,0,2.11,1.65c1.49,0,2.35-1.22,2.35-3,0-1.55-.82-2.88-2.3-2.88a2.44,2.44,0,0,0-2.23,2.32Z"/><path class="cls-6" d="M436.35,265.68l1.1,1.66c.29.43.53.83.78,1.26h0c.26-.46.51-.86.77-1.28l1.09-1.65h1.52L439,269.42l2.72,4h-1.6L439,271.68c-.3-.45-.56-.88-.83-1.34h0c-.26.46-.53.88-.82,1.34l-1.12,1.74h-1.55l2.75-4-2.62-3.79Z"/><path class="cls-6" d="M445.31,274.07l4.47-11.6h1.09l-4.48,11.6Z"/><path class="cls-6" d="M458,264.33h0l-1.81,1-.27-1.07,2.27-1.22h1.2v10.4H458Z"/><path class="cls-6" d="M463.25,272.59a1,1,0,0,1,1-1,1,1,0,0,1,0,2A.94.94,0,0,1,463.25,272.59Z"/><path class="cls-6" d="M472.66,264.21h-4l-.4,2.67a5.61,5.61,0,0,1,.85-.06,4.4,4.4,0,0,1,2.24.56,3,3,0,0,1,1.49,2.67A3.61,3.61,0,0,1,469,273.6a5.09,5.09,0,0,1-2.59-.64l.35-1.07a4.67,4.67,0,0,0,2.23.58,2.3,2.3,0,0,0,2.46-2.26c0-1.34-.91-2.31-3-2.31A10.81,10.81,0,0,0,467,268l.67-5h5Z"/><path class="cls-6" d="M475.89,269.81a2.48,2.48,0,0,0,2.66,2.69,5.1,5.1,0,0,0,2.15-.4l.24,1a6.27,6.27,0,0,1-2.58.48,3.6,3.6,0,0,1-3.81-3.91c0-2.34,1.38-4.18,3.63-4.18,2.53,0,3.2,2.23,3.2,3.65a5.16,5.16,0,0,1,0,.66Zm4.13-1a2,2,0,0,0-2-2.29,2.33,2.33,0,0,0-2.16,2.29Z"/><path class="cls-6" d="M483.12,267.78c0-.8,0-1.46-.06-2.1h1.23l.06,1.25h0a2.67,2.67,0,0,1,2.43-1.42,2.29,2.29,0,0,1,2.19,1.55h0a3.19,3.19,0,0,1,.86-1,2.64,2.64,0,0,1,1.71-.54c1,0,2.54.67,2.54,3.36v4.56H492.8V269c0-1.49-.54-2.38-1.68-2.38a1.82,1.82,0,0,0-1.66,1.28,2.31,2.31,0,0,0-.11.7v4.79H488v-4.64c0-1.23-.54-2.13-1.62-2.13a2.1,2.1,0,0,0-1.86,2.1v4.67h-1.38Z"/><path class="cls-6" d="M411.17,159.43v-.86l1.11-1.07c2.66-2.53,3.86-3.87,3.87-5.44a1.86,1.86,0,0,0-2.06-2,3.54,3.54,0,0,0-2.21.88l-.45-1a4.56,4.56,0,0,1,2.94-1.06,2.93,2.93,0,0,1,3.19,3c0,1.92-1.39,3.47-3.58,5.59l-.83.77v0h4.67v1.17Z"/><path class="cls-6" d="M423.73,159.43v-2.83H418.9v-.93l4.64-6.64h1.52v6.47h1.46v1.1h-1.46v2.83Zm0-3.94V152q0-.82,0-1.63h0c-.32.61-.58,1.06-.87,1.54l-2.54,3.54v0Z"/><path class="cls-6" d="M428,154.21c0-1,0-1.79-.06-2.53h1.26l.06,1.33h0a3,3,0,0,1,2.75-1.5c1.87,0,3.28,1.58,3.28,3.94,0,2.79-1.7,4.16-3.52,4.16a2.72,2.72,0,0,1-2.38-1.22h0v4.21H428Zm1.39,2.06a3.24,3.24,0,0,0,.06.58,2.18,2.18,0,0,0,2.11,1.65c1.49,0,2.35-1.22,2.35-3,0-1.55-.82-2.88-2.3-2.88a2.44,2.44,0,0,0-2.23,2.32Z"/><path class="cls-6" d="M437.57,151.68l1.1,1.66c.29.43.53.83.78,1.26h0c.26-.46.51-.86.77-1.28l1.09-1.65h1.52l-2.64,3.75,2.72,4h-1.6l-1.14-1.74c-.3-.45-.56-.88-.83-1.34h0c-.26.46-.53.88-.82,1.34l-1.12,1.74h-1.55l2.75-4L436,151.68Z"/><path class="cls-6" d="M446.53,160.07l4.47-11.6h1.09l-4.48,11.6Z"/><path class="cls-6" d="M459.2,150.33h0l-1.81,1-.27-1.07,2.27-1.22h1.2v10.4H459.2Z"/><path class="cls-6" d="M464.46,158.59a1,1,0,0,1,1-1,1,1,0,0,1,0,2A.94.94,0,0,1,464.46,158.59Z"/><path class="cls-6" d="M473.88,150.21h-4l-.4,2.67a5.61,5.61,0,0,1,.85-.06,4.4,4.4,0,0,1,2.24.56,3,3,0,0,1,1.49,2.67,3.61,3.61,0,0,1-3.87,3.55,5.09,5.09,0,0,1-2.59-.64l.35-1.07a4.67,4.67,0,0,0,2.23.58,2.3,2.3,0,0,0,2.46-2.26c0-1.34-.91-2.31-3-2.31a10.81,10.81,0,0,0-1.44.11l.67-5h5Z"/><path class="cls-6" d="M477.11,155.81a2.48,2.48,0,0,0,2.66,2.69,5.1,5.1,0,0,0,2.15-.4l.24,1a6.27,6.27,0,0,1-2.58.48,3.6,3.6,0,0,1-3.81-3.91c0-2.34,1.38-4.18,3.63-4.18,2.53,0,3.2,2.23,3.2,3.65a5.16,5.16,0,0,1,0,.66Zm4.13-1a2,2,0,0,0-2-2.29,2.33,2.33,0,0,0-2.16,2.29Z"/><path class="cls-6" d="M484.34,153.78c0-.8,0-1.46-.06-2.1h1.23l.06,1.25h0a2.67,2.67,0,0,1,2.43-1.42,2.29,2.29,0,0,1,2.19,1.55h0a3.19,3.19,0,0,1,.86-1,2.64,2.64,0,0,1,1.71-.54c1,0,2.54.67,2.54,3.36v4.56H494V155c0-1.49-.54-2.38-1.68-2.38a1.82,1.82,0,0,0-1.66,1.28,2.31,2.31,0,0,0-.11.7v4.79h-1.38v-4.64c0-1.23-.54-2.13-1.62-2.13a2.1,2.1,0,0,0-1.86,2.1v4.67h-1.38Z"/></g></svg>