<svg id="Layer_1" data-name="Layer 1" xmlns="http://www.w3.org/2000/svg" xmlns:xlink="http://www.w3.org/1999/xlink" viewBox="0 0 18.18 15.15"><defs><style>.cls-1{fill:none;}.cls-2{fill:#fff;}.cls-3{clip-path:url(#clip-path);}</style><clipPath id="clip-path"><path class="cls-1" d="M7.06,4a12.25,12.25,0,0,1,7.83,4,15,15,0,0,1,3.3,7.1,11.35,11.35,0,0,0-4.58-3.92A15.59,15.59,0,0,0,7.06,10v4.12L0,7.06,7.06,0Z"/></clipPath></defs><title>Artboard 1</title><g id="Email_Content" data-name="Email Content"><path class="cls-2" d="M7.06,4a12.25,12.25,0,0,1,7.83,4,15,15,0,0,1,3.3,7.1,11.35,11.35,0,0,0-4.58-3.92A15.59,15.59,0,0,0,7.06,10v4.12L0,7.06,7.06,0Z"/><g class="cls-3"><rect class="cls-2" x="-6.06" y="-6.06" width="30.31" height="27.28"/></g></g></svg>