<svg id="Layer_1" data-name="Layer 1" xmlns="http://www.w3.org/2000/svg" viewBox="0 0 150.93 32.96"><defs><style>.cls-1,.cls-2{fill:#424242;}.cls-1{fill-rule:evenodd;}</style></defs><title>RS-Logo</title><path class="cls-1" d="M15.91,8.55c-.6,1.27-.36,2.31.53,2.32s2.11-1,2.71-2.26.36-2.31-.53-2.32S16.51,7.28,15.91,8.55ZM23.21,4V4h0a21.7,21.7,0,0,1-2.3,4.55C19.06,11.31,16.4,13,15,12.43s-1.08-3.34.77-6.1A13.23,13.23,0,0,1,17.1,4.65h0a0,0,0,0,0,0,0h0A16.47,16.47,0,0,0,15.31,5h0A40.08,40.08,0,0,0,6.73,31.54h0a0,0,0,0,1,0,0h0A10.86,10.86,0,0,1,0,22v-.05C-.44,13.89,6,5.66,14.34,3.54A14.2,14.2,0,0,1,23.21,4Z"/><path class="cls-1" d="M20.84,25.66a19.46,19.46,0,0,1-1.9,1.17h0a0,0,0,0,1,0,0,15.26,15.26,0,0,0-1.26-5.36c-1.92-4.15-5.27-4.47-7.48-.71a16.32,16.32,0,0,0-1.8,8.76v0a14.54,14.54,0,0,0,7.94.09c8.36-2.13,14.76-10.36,14.29-18.39-.41-7.05-6-11.61-13-11.19h0q-1,1-1.92,2.09h0a0,0,0,0,0,0,0h0c4.11-.52,7.41.31,9.56,2v0h0c-7.41,10.44-6.49,16.39-4.42,21.42h0Z"/><path class="cls-1" d="M89.93,13.71a8,8,0,0,1,3.66.73,0,0,0,0,1,0,0L93,17.63v0h0a7.17,7.17,0,0,0-3.24-.8c-1.1,0-1.82.46-1.82,1.24,0,.55.55,1.05,1.71,1.62,1.51.76,3.23,1.88,3.23,3.91a4.46,4.46,0,0,1-1.31,3.29,7.35,7.35,0,0,1-5.29,1.76,8.5,8.5,0,0,1-4.37-1.11,0,0,0,0,1,0,0l.61-3.19v0h0a9.23,9.23,0,0,0,4.15,1.22c1.05,0,1.76-.49,1.76-1.26s-.5-1.2-1.77-1.82c-2-1-3-2.28-3-3.79C83.63,15.71,86.15,13.71,89.93,13.71Z"/><path class="cls-2" d="M72,9h4.2a0,0,0,0,1,0,0L74,20.49h0L79.65,14h4.62L78.44,20.6,82,28.3H77.43L74,20.69h0l-1.45,7.63,0,0H68.3v0L72,9Z"/><path class="cls-1" d="M66.33,13.74a8.22,8.22,0,0,1,2.93.5,0,0,0,0,1,0,0l-.65,3.41v0h0a4.64,4.64,0,0,0-2.32-.54,5,5,0,0,0-4.83,5.18,2.65,2.65,0,0,0,2.78,2.93,7.48,7.48,0,0,0,3.52-.9h0a0,0,0,0,1,0,0l-.66,3.5v0a10,10,0,0,1-4.07.76c-3.67,0-6-2.3-6-5.87A9,9,0,0,1,66.33,13.74Z"/><path class="cls-2" d="M43.53,13.68a4.79,4.79,0,0,1,.79.07h0a0,0,0,0,1,0,0l-.82,4.12h0a3.37,3.37,0,0,0-.66-.07c-2.89,0-4,2.82-4.45,5.15l-1,5.49,0,0H33.11a0,0,0,0,1,0,0L35.86,14l0,0H39.6l-.19,1a4.52,4.52,0,0,1-.64,1.74l0,0a.26.26,0,0,0,.15.33.26.26,0,0,0,.35-.1l0-.05a3.71,3.71,0,0,1,.82-1.61A4.64,4.64,0,0,1,43.53,13.68Z"/><path class="cls-1" d="M139.88,19.71h.06c1.68-.07,2.68-.33,3.18-.82a1.16,1.16,0,0,0,.35-.86c0-.74-.61-1.21-1.53-1.21A3.34,3.34,0,0,0,139,18.68l0,.09c-.4.75-.53.83-.89,1.06l0,0a.26.26,0,0,0,0,.36.26.26,0,0,0,.35.06l0,0C138.71,19.89,138.77,19.76,139.88,19.71Zm2.58-6c3,0,5,1.74,5,4.32a3.91,3.91,0,0,1-1.15,2.92c-1.29,1.25-3.61,1.88-7.1,1.91h0a1.11,1.11,0,0,1-1.18-.7l0,0a.27.27,0,0,0-.37,0,.26.26,0,0,0-.06.36l0,0a1.62,1.62,0,0,1,.68,1,2.39,2.39,0,0,0,.34.79,3.38,3.38,0,0,0,2.73,1.07,9.46,9.46,0,0,0,5-1.39h0a0,0,0,0,1,0,0l-.67,3.52h0a12.48,12.48,0,0,1-5.33,1.14c-4,0-6.22-2.2-6.22-6a9.49,9.49,0,0,1,2.23-6.09A7.94,7.94,0,0,1,142.46,13.71Z"/><path class="cls-2" d="M99.88,25.45c2.23,0,3.87-3.17,3.87-6,0-.67-.16-2.32-1.72-2.32S99.11,19,98.6,21.71C98.42,22.65,97.92,25.45,99.88,25.45Zm-.3-11.52-.13.66a3.33,3.33,0,0,1-.71,1.68l0,0a.25.25,0,0,0,.11.34.28.28,0,0,0,.37-.07l0-.05a3.4,3.4,0,0,1,.93-1.54,5.18,5.18,0,0,1,3.38-1.29c2.81,0,4.64,2.13,4.64,5.46,0,3.49-1.67,7.06-4.69,8.67-2.34,1.25-4.48,1-5.53.15a1.54,1.54,0,0,1-.34-.92V27a.28.28,0,0,0-.52.17l0,.05a1.43,1.43,0,0,1,.28.9l-.91,4.81,0,0H92.23a0,0,0,0,1,0,0l3.61-19,0,0h3.72A0,0,0,0,1,99.58,13.94Z"/><path class="cls-1" d="M132,13.74a8.22,8.22,0,0,1,2.93.5,0,0,0,0,1,0,0l-.65,3.41v0h0a4.64,4.64,0,0,0-2.32-.54,5,5,0,0,0-4.83,5.18,2.65,2.65,0,0,0,2.78,2.93,7.48,7.48,0,0,0,3.52-.9h0a0,0,0,0,1,0,0l-.66,3.5v0a10,10,0,0,1-4.07.76c-3.67,0-6-2.3-6-5.87A9,9,0,0,1,132,13.74Z"/><path class="cls-2" d="M114.75,17.79a7.83,7.83,0,0,0-2,5c0,1.5.56,2.43,1.52,2.43,1.55,0,2.88-1.62,3.34-4,.1-.53.21-1.07.28-1.55a6.55,6.55,0,0,0,.11-1.2,1.42,1.42,0,0,0-1.52-1.56A2.53,2.53,0,0,0,114.75,17.79Zm1.57,10.55.13-.64a5.78,5.78,0,0,1,.76-1.63l0,0a.28.28,0,0,0-.14-.35.28.28,0,0,0-.36.13l0,.05a3.15,3.15,0,0,1-.9,1.62,4.83,4.83,0,0,1-3.26,1.22c-2.83,0-4.1-2.51-4.1-5a10.84,10.84,0,0,1,3-7.55,8.12,8.12,0,0,1,5.87-2.4,4.7,4.7,0,0,1,3.8,1.48c1.18,1.43,1.09,3.59.79,5.15l-1.53,8,0,0h-4A0,0,0,0,1,116.32,28.34Z"/><path class="cls-2" d="M49.12,17.79a7.83,7.83,0,0,0-2,5c0,1.5.56,2.43,1.52,2.43,1.55,0,2.88-1.62,3.34-4,.1-.53.21-1.07.28-1.55a6.55,6.55,0,0,0,.11-1.2,1.42,1.42,0,0,0-1.52-1.56A2.53,2.53,0,0,0,49.12,17.79Zm1.57,10.55.13-.64a5.78,5.78,0,0,1,.76-1.63l0,0a.28.28,0,0,0-.14-.35.28.28,0,0,0-.36.13l0,.05a3.15,3.15,0,0,1-.9,1.62,4.83,4.83,0,0,1-3.26,1.22c-2.83,0-4.1-2.51-4.1-5a10.84,10.84,0,0,1,3-7.55,8.12,8.12,0,0,1,5.87-2.4,4.7,4.7,0,0,1,3.8,1.48c1.18,1.43,1.09,3.59.79,5.15l-1.53,8,0,0h-4A0,0,0,0,1,50.69,28.34Z"/><path class="cls-2" d="M147.47,26.87a1.41,1.41,0,0,0,1.43,1.58,1.82,1.82,0,0,0,1.77-1.62,1.41,1.41,0,0,0-1.44-1.58A1.82,1.82,0,0,0,147.47,26.87Zm-.25,0a2.07,2.07,0,0,1,2-1.85,1.67,1.67,0,0,1,1.69,1.85,2.07,2.07,0,0,1-2,1.85A1.67,1.67,0,0,1,147.22,26.84Zm1.45-1.09h.74l.21,0a.51.51,0,0,1,.37.5.64.64,0,0,1,0,.13.76.76,0,0,1-.58.62l.3.88h-.32l-.28-.84h-.4l-.16.83h-.27l.16-.84h0l.12-.66Zm.42.26h-.2l-.08.41-.08.41h.45l.15,0a.49.49,0,0,0,.36-.38.31.31,0,0,0-.22-.37l-.14,0h-.25Z"/></svg>