<svg xmlns="http://www.w3.org/2000/svg" viewBox="0 0 500 173.16"><defs><style>.cls-1{fill:none;stroke:#d8d8d8;stroke-miterlimit:10;}.cls-2{fill:#424242;}.cls-3{fill:#eb008b;}.cls-3,.cls-5{opacity:0.5;}.cls-4{fill:#fff;}.cls-5{fill:#00c3ff;}</style></defs><title>Subheader</title><g id="Email_Content" data-name="Email Content"><line class="cls-1" x1="495.69" y1="7.06" x2="4.08" y2="7.06"/><path class="cls-2" d="M9,64.27H5.93l-.7,1.93h-1L7,58.81H7.9l2.83,7.39h-1Zm-2.8-.8H8.73L7.48,60Z"/><path class="cls-2" d="M17,63.21H15.27v3h-1V58.81h2.45a2.9,2.9,0,0,1,1.92.57A2,2,0,0,1,19.34,61a2,2,0,0,1-.37,1.2,2.22,2.22,0,0,1-1,.77l1.74,3.14v.06h-1Zm-1.74-.8h1.5A1.69,1.69,0,0,0,17.93,62a1.27,1.27,0,0,0,.43-1A1.34,1.34,0,0,0,17.95,60a1.73,1.73,0,0,0-1.18-.37H15.27Z"/><path class="cls-2" d="M23.95,66.2a2,2,0,0,1-.13-.58,2.09,2.09,0,0,1-1.56.68,1.94,1.94,0,0,1-1.33-.46,1.48,1.48,0,0,1-.52-1.17A1.55,1.55,0,0,1,21,63.34a3.08,3.08,0,0,1,1.84-.47h.91v-.43a1.06,1.06,0,0,0-.29-.78,1.18,1.18,0,0,0-.87-.29,1.37,1.37,0,0,0-.84.25.75.75,0,0,0-.34.61h-.94a1.3,1.3,0,0,1,.29-.79,2,2,0,0,1,.79-.61,2.67,2.67,0,0,1,1.1-.22,2.17,2.17,0,0,1,1.49.47,1.71,1.71,0,0,1,.56,1.31v2.53a3.09,3.09,0,0,0,.19,1.2v.08Zm-1.56-.72a1.65,1.65,0,0,0,.84-.23,1.38,1.38,0,0,0,.57-.59V63.53h-.74q-1.73,0-1.73,1a.86.86,0,0,0,.29.69A1.13,1.13,0,0,0,22.39,65.48Z"/><path class="cls-2" d="M28.41,65.53a1.35,1.35,0,0,0,.88-.3,1.07,1.07,0,0,0,.42-.76h.89a1.7,1.7,0,0,1-.32.9,2.14,2.14,0,0,1-.8.68,2.3,2.3,0,0,1-1.06.25,2.26,2.26,0,0,1-1.78-.75,3,3,0,0,1-.66-2v-.16a3.31,3.31,0,0,1,.29-1.43,2.24,2.24,0,0,1,.85-1,2.41,2.41,0,0,1,1.3-.35,2.2,2.2,0,0,1,1.54.55,2,2,0,0,1,.65,1.44h-.89a1.3,1.3,0,0,0-.4-.88,1.26,1.26,0,0,0-.9-.34,1.31,1.31,0,0,0-1.11.52,2.42,2.42,0,0,0-.39,1.49v.18A2.37,2.37,0,0,0,27.3,65,1.32,1.32,0,0,0,28.41,65.53Z"/><path class="cls-2" d="M33.19,63.66l-.59.61V66.2h-.94V58.4h.94v4.72l.5-.6,1.71-1.81H36L33.81,63l2.39,3.2H35.1Z"/><path class="cls-2" d="M40.12,64.74a.69.69,0,0,0-.29-.59,2.77,2.77,0,0,0-1-.36,4.73,4.73,0,0,1-1.13-.37,1.61,1.61,0,0,1-.62-.51,1.21,1.21,0,0,1-.2-.7,1.43,1.43,0,0,1,.57-1.14,2.23,2.23,0,0,1,1.46-.47,2.3,2.3,0,0,1,1.52.48A1.53,1.53,0,0,1,41,62.32h-.94a.85.85,0,0,0-.33-.67,1.23,1.23,0,0,0-.83-.28,1.29,1.29,0,0,0-.8.22.7.7,0,0,0-.29.58.57.57,0,0,0,.27.51,3.29,3.29,0,0,0,1,.33,5.1,5.1,0,0,1,1.14.38,1.67,1.67,0,0,1,.65.53,1.29,1.29,0,0,1,.21.75,1.4,1.4,0,0,1-.59,1.18,2.47,2.47,0,0,1-1.53.44,2.77,2.77,0,0,1-1.17-.23,1.9,1.9,0,0,1-.79-.65,1.57,1.57,0,0,1-.29-.91h.94a1,1,0,0,0,.38.75,1.47,1.47,0,0,0,.93.28,1.51,1.51,0,0,0,.86-.22A.66.66,0,0,0,40.12,64.74Z"/><path class="cls-2" d="M46.92,63.51a3.29,3.29,0,0,1-.57,2,1.84,1.84,0,0,1-1.55.77,2,2,0,0,1-1.57-.63v2.65h-.94V60.71h.86l0,.61a1.94,1.94,0,0,1,1.59-.71,1.87,1.87,0,0,1,1.57.75,3.33,3.33,0,0,1,.58,2.08ZM46,63.41a2.43,2.43,0,0,0-.4-1.47,1.28,1.28,0,0,0-1.09-.54,1.38,1.38,0,0,0-1.28.76v2.62a1.38,1.38,0,0,0,1.29.75A1.27,1.27,0,0,0,45.59,65,2.65,2.65,0,0,0,46,63.41Z"/><path class="cls-2" d="M51.51,66.2a2,2,0,0,1-.13-.58,2.09,2.09,0,0,1-1.56.68,1.94,1.94,0,0,1-1.33-.46A1.48,1.48,0,0,1,48,64.68a1.55,1.55,0,0,1,.65-1.33,3.08,3.08,0,0,1,1.84-.47h.91v-.43a1.06,1.06,0,0,0-.29-.78,1.18,1.18,0,0,0-.87-.29,1.37,1.37,0,0,0-.84.25.75.75,0,0,0-.34.61h-.94a1.3,1.3,0,0,1,.29-.79,2,2,0,0,1,.79-.61,2.67,2.67,0,0,1,1.1-.22,2.17,2.17,0,0,1,1.49.47,1.71,1.71,0,0,1,.56,1.31v2.53a3.09,3.09,0,0,0,.19,1.2v.08Zm-1.56-.72a1.65,1.65,0,0,0,.84-.23,1.38,1.38,0,0,0,.57-.59V63.53h-.74q-1.73,0-1.73,1a.86.86,0,0,0,.29.69A1.13,1.13,0,0,0,49.95,65.48Z"/><path class="cls-2" d="M56,65.53a1.35,1.35,0,0,0,.88-.3,1.07,1.07,0,0,0,.42-.76h.89a1.7,1.7,0,0,1-.32.9A2.14,2.14,0,0,1,57,66,2.3,2.3,0,0,1,56,66.3a2.26,2.26,0,0,1-1.78-.75,3,3,0,0,1-.66-2v-.16a3.31,3.31,0,0,1,.29-1.43,2.24,2.24,0,0,1,.85-1A2.41,2.41,0,0,1,56,60.6a2.2,2.2,0,0,1,1.54.55,2,2,0,0,1,.65,1.44h-.89a1.3,1.3,0,0,0-.4-.88,1.26,1.26,0,0,0-.9-.34,1.31,1.31,0,0,0-1.11.52,2.42,2.42,0,0,0-.39,1.49v.18A2.37,2.37,0,0,0,54.86,65,1.32,1.32,0,0,0,56,65.53Z"/><path class="cls-2" d="M61.5,66.3a2.4,2.4,0,0,1-1.82-.73,2.72,2.72,0,0,1-.7-2v-.17A3.3,3.3,0,0,1,59.29,62a2.44,2.44,0,0,1,.87-1,2.2,2.2,0,0,1,1.22-.36,2.06,2.06,0,0,1,1.67.71,3.06,3.06,0,0,1,.59,2v.39H59.92A2,2,0,0,0,60.39,65a1.49,1.49,0,0,0,1.16.5,1.63,1.63,0,0,0,.84-.2,2.11,2.11,0,0,0,.6-.54l.57.45A2.31,2.31,0,0,1,61.5,66.3Zm-.12-4.92a1.25,1.25,0,0,0-1,.41A2,2,0,0,0,59.95,63H62.7v-.07a1.79,1.79,0,0,0-.39-1.11A1.18,1.18,0,0,0,61.38,61.38Z"/><path class="cls-2" d="M70.5,64.74a.69.69,0,0,0-.29-.59,2.77,2.77,0,0,0-1-.36,4.73,4.73,0,0,1-1.13-.37,1.61,1.61,0,0,1-.62-.51,1.21,1.21,0,0,1-.2-.7,1.43,1.43,0,0,1,.57-1.14,2.23,2.23,0,0,1,1.46-.47,2.3,2.3,0,0,1,1.52.48,1.53,1.53,0,0,1,.58,1.23h-.94a.85.85,0,0,0-.33-.67,1.23,1.23,0,0,0-.83-.28,1.29,1.29,0,0,0-.8.22.7.7,0,0,0-.29.58.57.57,0,0,0,.27.51,3.29,3.29,0,0,0,1,.33,5.1,5.1,0,0,1,1.14.38,1.67,1.67,0,0,1,.65.53,1.29,1.29,0,0,1,.21.75,1.4,1.4,0,0,1-.59,1.18,2.47,2.47,0,0,1-1.53.44,2.77,2.77,0,0,1-1.17-.23,1.9,1.9,0,0,1-.79-.65,1.57,1.57,0,0,1-.29-.91H68a1,1,0,0,0,.38.75,1.47,1.47,0,0,0,.93.28,1.51,1.51,0,0,0,.86-.22A.66.66,0,0,0,70.5,64.74Z"/><path class="cls-2" d="M76.05,65.66a2,2,0,0,1-1.61.64,1.71,1.71,0,0,1-1.34-.51,2.21,2.21,0,0,1-.46-1.51V60.71h.94v3.55q0,1.25,1,1.25A1.41,1.41,0,0,0,76,64.7v-4H77V66.2h-.89Z"/><path class="cls-2" d="M83,63.51a3.29,3.29,0,0,1-.57,2,1.84,1.84,0,0,1-1.55.77,2,2,0,0,1-1.57-.63v2.65h-.94V60.71h.86l0,.61a1.94,1.94,0,0,1,1.59-.71,1.87,1.87,0,0,1,1.57.75A3.33,3.33,0,0,1,83,63.43Zm-.94-.11a2.43,2.43,0,0,0-.4-1.47,1.28,1.28,0,0,0-1.09-.54,1.38,1.38,0,0,0-1.28.76v2.62a1.38,1.38,0,0,0,1.29.75A1.27,1.27,0,0,0,81.69,65,2.65,2.65,0,0,0,82.09,63.41Z"/><path class="cls-2" d="M88.87,63.51a3.29,3.29,0,0,1-.57,2,1.84,1.84,0,0,1-1.55.77,2,2,0,0,1-1.57-.63v2.65h-.94V60.71h.86l0,.61a1.94,1.94,0,0,1,1.59-.71,1.87,1.87,0,0,1,1.57.75,3.33,3.33,0,0,1,.58,2.08Zm-.94-.11a2.43,2.43,0,0,0-.4-1.47,1.28,1.28,0,0,0-1.09-.54,1.38,1.38,0,0,0-1.28.76v2.62a1.38,1.38,0,0,0,1.29.75A1.27,1.27,0,0,0,87.53,65,2.65,2.65,0,0,0,87.93,63.41Z"/><path class="cls-2" d="M89.81,63.4A3.25,3.25,0,0,1,90.13,62,2.37,2.37,0,0,1,91,61a2.4,2.4,0,0,1,1.29-.35,2.32,2.32,0,0,1,1.82.78,3,3,0,0,1,.69,2.07v.07A3.27,3.27,0,0,1,94.5,65a2.33,2.33,0,0,1-.88,1,2.43,2.43,0,0,1-1.31.36,2.31,2.31,0,0,1-1.81-.78,3,3,0,0,1-.69-2.06Zm.94.11A2.35,2.35,0,0,0,91.18,65a1.44,1.44,0,0,0,2.27,0,2.57,2.57,0,0,0,.42-1.57,2.35,2.35,0,0,0-.43-1.46,1.36,1.36,0,0,0-1.14-.56,1.35,1.35,0,0,0-1.12.55A2.55,2.55,0,0,0,90.75,63.51Z"/><path class="cls-2" d="M98.64,61.55a2.84,2.84,0,0,0-.46,0,1.24,1.24,0,0,0-1.25.79v3.9H96V60.71h.91l0,.63a1.46,1.46,0,0,1,1.31-.74,1,1,0,0,1,.42.07Z"/><path class="cls-2" d="M101,59.38v1.33h1v.73h-1v3.41a.76.76,0,0,0,.14.5.58.58,0,0,0,.47.17,2.27,2.27,0,0,0,.45-.06v.76a2.74,2.74,0,0,1-.72.1,1.17,1.17,0,0,1-.95-.38,1.64,1.64,0,0,1-.32-1.08V61.43h-1v-.73h1V59.38Z"/><path class="cls-2" d="M107,59.38v1.33h1v.73h-1v3.41a.76.76,0,0,0,.14.5.58.58,0,0,0,.47.17,2.27,2.27,0,0,0,.45-.06v.76a2.74,2.74,0,0,1-.72.1,1.17,1.17,0,0,1-.95-.38,1.64,1.64,0,0,1-.32-1.08V61.43h-1v-.73h1V59.38Z"/><path class="cls-2" d="M109.13,59.25a.56.56,0,0,1,.14-.39.53.53,0,0,1,.41-.16.53.53,0,0,1,.42.16.56.56,0,0,1,.14.39.56.56,0,1,1-1.11,0Zm1,7h-.94V60.71h.94Z"/><path class="cls-2" d="M113.86,65.53a1.35,1.35,0,0,0,.88-.3,1.07,1.07,0,0,0,.42-.76H116a1.7,1.7,0,0,1-.32.9,2.14,2.14,0,0,1-.8.68,2.3,2.3,0,0,1-1.06.25,2.26,2.26,0,0,1-1.78-.75,3,3,0,0,1-.66-2v-.16a3.31,3.31,0,0,1,.29-1.43,2.24,2.24,0,0,1,.85-1,2.41,2.41,0,0,1,1.3-.35,2.2,2.2,0,0,1,1.54.55A2,2,0,0,1,116,62.6h-.89a1.3,1.3,0,0,0-.4-.88,1.26,1.26,0,0,0-.9-.34,1.31,1.31,0,0,0-1.11.52,2.42,2.42,0,0,0-.39,1.49v.18a2.37,2.37,0,0,0,.39,1.46A1.32,1.32,0,0,0,113.86,65.53Z"/><path class="cls-2" d="M118.63,63.66l-.59.61V66.2h-.94V58.4H118v4.72l.5-.6,1.71-1.81h1.14L119.26,63l2.39,3.2h-1.1Z"/><path class="cls-2" d="M124.64,66.3a2.4,2.4,0,0,1-1.82-.73,2.72,2.72,0,0,1-.7-2v-.17a3.3,3.3,0,0,1,.31-1.46,2.44,2.44,0,0,1,.87-1,2.2,2.2,0,0,1,1.22-.36,2.06,2.06,0,0,1,1.67.71,3.06,3.06,0,0,1,.59,2v.39h-3.72a2,2,0,0,0,.47,1.31,1.49,1.49,0,0,0,1.16.5,1.63,1.63,0,0,0,.84-.2,2.11,2.11,0,0,0,.6-.54l.57.45A2.31,2.31,0,0,1,124.64,66.3Zm-.12-4.92a1.25,1.25,0,0,0-1,.41A2,2,0,0,0,123.1,63h2.75v-.07a1.79,1.79,0,0,0-.39-1.11A1.18,1.18,0,0,0,124.53,61.38Z"/><path class="cls-2" d="M129.15,59.38v1.33h1v.73h-1v3.41a.76.76,0,0,0,.14.5.58.58,0,0,0,.47.17,2.27,2.27,0,0,0,.45-.06v.76a2.74,2.74,0,0,1-.72.1,1.17,1.17,0,0,1-.95-.38,1.64,1.64,0,0,1-.32-1.08V61.43h-1v-.73h1V59.38Z"/><path class="cls-2" d="M134.78,61.37a2,2,0,0,1,1.62-.77q1.74,0,1.76,2V66.2h-.94V62.56a1.26,1.26,0,0,0-.27-.88,1.09,1.09,0,0,0-.83-.28,1.36,1.36,0,0,0-.8.24,1.65,1.65,0,0,0-.54.64V66.2h-.94V58.4h.94Z"/><path class="cls-2" d="M143,66.2a2,2,0,0,1-.13-.58,2.09,2.09,0,0,1-1.56.68,1.94,1.94,0,0,1-1.33-.46,1.48,1.48,0,0,1-.52-1.17,1.55,1.55,0,0,1,.65-1.33,3.08,3.08,0,0,1,1.84-.47h.91v-.43a1.06,1.06,0,0,0-.29-.78,1.18,1.18,0,0,0-.87-.29,1.37,1.37,0,0,0-.84.25.75.75,0,0,0-.34.61h-.94a1.3,1.3,0,0,1,.29-.79,2,2,0,0,1,.79-.61,2.67,2.67,0,0,1,1.1-.22,2.17,2.17,0,0,1,1.49.47,1.71,1.71,0,0,1,.56,1.31v2.53a3.09,3.09,0,0,0,.19,1.2v.08Zm-1.56-.72a1.65,1.65,0,0,0,.84-.23,1.38,1.38,0,0,0,.57-.59V63.53h-.74q-1.73,0-1.73,1a.86.86,0,0,0,.29.69A1.13,1.13,0,0,0,141.4,65.48Z"/><path class="cls-2" d="M148.43,64.74a.69.69,0,0,0-.29-.59,2.77,2.77,0,0,0-1-.36,4.73,4.73,0,0,1-1.13-.37,1.61,1.61,0,0,1-.62-.51,1.21,1.21,0,0,1-.2-.7,1.43,1.43,0,0,1,.57-1.14,2.23,2.23,0,0,1,1.46-.47,2.3,2.3,0,0,1,1.52.48,1.53,1.53,0,0,1,.58,1.23h-.94a.85.85,0,0,0-.33-.67,1.23,1.23,0,0,0-.83-.28,1.29,1.29,0,0,0-.8.22.7.7,0,0,0-.29.58.57.57,0,0,0,.27.51,3.29,3.29,0,0,0,1,.33,5.1,5.1,0,0,1,1.14.38,1.67,1.67,0,0,1,.65.53,1.29,1.29,0,0,1,.21.75,1.4,1.4,0,0,1-.59,1.18,2.47,2.47,0,0,1-1.53.44,2.77,2.77,0,0,1-1.17-.23,1.9,1.9,0,0,1-.79-.65,1.57,1.57,0,0,1-.29-.91h.94a1,1,0,0,0,.38.75,1.47,1.47,0,0,0,.93.28,1.51,1.51,0,0,0,.86-.22A.66.66,0,0,0,148.43,64.74Z"/><path class="cls-2" d="M157.81,63.51a3.27,3.27,0,0,1-.58,2,1.85,1.85,0,0,1-1.55.76,1.91,1.91,0,0,1-1.61-.74l0,.63h-.86V58.4h.94v2.91a1.9,1.9,0,0,1,1.57-.71,1.86,1.86,0,0,1,1.57.76,3.37,3.37,0,0,1,.57,2.07Zm-.94-.11a2.54,2.54,0,0,0-.37-1.48,1.23,1.23,0,0,0-1.07-.52,1.38,1.38,0,0,0-1.34.86v2.38a1.42,1.42,0,0,0,1.35.86A1.22,1.22,0,0,0,156.5,65,2.7,2.7,0,0,0,156.87,63.41Z"/><path class="cls-2" d="M161.28,66.3a2.4,2.4,0,0,1-1.82-.73,2.72,2.72,0,0,1-.7-2v-.17a3.3,3.3,0,0,1,.31-1.46,2.44,2.44,0,0,1,.87-1,2.2,2.2,0,0,1,1.22-.36,2.06,2.06,0,0,1,1.67.71,3.06,3.06,0,0,1,.59,2v.39H159.7a2,2,0,0,0,.47,1.31,1.49,1.49,0,0,0,1.16.5,1.63,1.63,0,0,0,.84-.2,2.11,2.11,0,0,0,.6-.54l.57.45A2.31,2.31,0,0,1,161.28,66.3Zm-.12-4.92a1.25,1.25,0,0,0-1,.41,2,2,0,0,0-.48,1.16h2.75v-.07a1.79,1.79,0,0,0-.39-1.11A1.18,1.18,0,0,0,161.16,61.38Z"/><path class="cls-2" d="M166.78,66.3a2.4,2.4,0,0,1-1.82-.73,2.72,2.72,0,0,1-.7-2v-.17a3.3,3.3,0,0,1,.31-1.46,2.44,2.44,0,0,1,.87-1,2.2,2.2,0,0,1,1.22-.36,2.06,2.06,0,0,1,1.67.71,3.06,3.06,0,0,1,.59,2v.39h-3.72a2,2,0,0,0,.47,1.31,1.49,1.49,0,0,0,1.16.5,1.63,1.63,0,0,0,.84-.2,2.11,2.11,0,0,0,.6-.54l.57.45A2.31,2.31,0,0,1,166.78,66.3Zm-.12-4.92a1.25,1.25,0,0,0-1,.41,2,2,0,0,0-.48,1.16H168v-.07a1.79,1.79,0,0,0-.39-1.11A1.18,1.18,0,0,0,166.67,61.38Z"/><path class="cls-2" d="M170.9,60.71l0,.69a2,2,0,0,1,1.64-.79q1.74,0,1.76,2V66.2h-.94V62.56a1.26,1.26,0,0,0-.27-.88,1.09,1.09,0,0,0-.83-.28,1.36,1.36,0,0,0-.8.24,1.65,1.65,0,0,0-.54.64V66.2H170V60.71Z"/><path class="cls-2" d="M180.53,65.53a1.35,1.35,0,0,0,.88-.3,1.07,1.07,0,0,0,.42-.76h.89a1.7,1.7,0,0,1-.32.9,2.14,2.14,0,0,1-.8.68,2.3,2.3,0,0,1-1.06.25,2.26,2.26,0,0,1-1.78-.75,3,3,0,0,1-.66-2v-.16a3.31,3.31,0,0,1,.29-1.43,2.24,2.24,0,0,1,.85-1,2.41,2.41,0,0,1,1.3-.35,2.2,2.2,0,0,1,1.54.55,2,2,0,0,1,.65,1.44h-.89a1.3,1.3,0,0,0-.4-.88,1.26,1.26,0,0,0-.9-.34,1.31,1.31,0,0,0-1.11.52,2.42,2.42,0,0,0-.39,1.49v.18a2.37,2.37,0,0,0,.39,1.46A1.32,1.32,0,0,0,180.53,65.53Z"/><path class="cls-2" d="M186.42,61.55a2.84,2.84,0,0,0-.46,0,1.24,1.24,0,0,0-1.25.79v3.9h-.94V60.71h.91l0,.63A1.46,1.46,0,0,1,186,60.6a1,1,0,0,1,.42.07Z"/><path class="cls-2" d="M189.56,66.3a2.4,2.4,0,0,1-1.82-.73,2.72,2.72,0,0,1-.7-2v-.17a3.3,3.3,0,0,1,.31-1.46,2.44,2.44,0,0,1,.87-1,2.2,2.2,0,0,1,1.22-.36,2.06,2.06,0,0,1,1.67.71,3.06,3.06,0,0,1,.59,2v.39H188a2,2,0,0,0,.47,1.31,1.49,1.49,0,0,0,1.16.5,1.63,1.63,0,0,0,.84-.2,2.11,2.11,0,0,0,.6-.54l.57.45A2.31,2.31,0,0,1,189.56,66.3Zm-.12-4.92a1.25,1.25,0,0,0-1,.41A2,2,0,0,0,188,63h2.75v-.07a1.79,1.79,0,0,0-.39-1.11A1.18,1.18,0,0,0,189.45,61.38Z"/><path class="cls-2" d="M196.19,66.2a2,2,0,0,1-.13-.58,2.09,2.09,0,0,1-1.56.68,1.94,1.94,0,0,1-1.33-.46,1.48,1.48,0,0,1-.52-1.17,1.55,1.55,0,0,1,.65-1.33,3.08,3.08,0,0,1,1.84-.47H196v-.43a1.06,1.06,0,0,0-.29-.78,1.18,1.18,0,0,0-.87-.29,1.37,1.37,0,0,0-.84.25.75.75,0,0,0-.34.61h-.94a1.3,1.3,0,0,1,.29-.79,2,2,0,0,1,.79-.61,2.67,2.67,0,0,1,1.1-.22,2.17,2.17,0,0,1,1.49.47,1.71,1.71,0,0,1,.56,1.31v2.53a3.09,3.09,0,0,0,.19,1.2v.08Zm-1.56-.72a1.65,1.65,0,0,0,.84-.23,1.38,1.38,0,0,0,.57-.59V63.53h-.74q-1.73,0-1.73,1a.86.86,0,0,0,.29.69A1.13,1.13,0,0,0,194.63,65.48Z"/><path class="cls-2" d="M199.72,59.38v1.33h1v.73h-1v3.41a.76.76,0,0,0,.14.5.58.58,0,0,0,.47.17,2.27,2.27,0,0,0,.45-.06v.76a2.74,2.74,0,0,1-.72.1,1.17,1.17,0,0,1-.95-.38,1.64,1.64,0,0,1-.32-1.08V61.43h-1v-.73h1V59.38Z"/><path class="cls-2" d="M204.13,66.3a2.4,2.4,0,0,1-1.82-.73,2.72,2.72,0,0,1-.7-2v-.17a3.3,3.3,0,0,1,.31-1.46,2.44,2.44,0,0,1,.87-1A2.2,2.2,0,0,1,204,60.6a2.06,2.06,0,0,1,1.67.71,3.06,3.06,0,0,1,.59,2v.39h-3.72A2,2,0,0,0,203,65a1.49,1.49,0,0,0,1.16.5,1.63,1.63,0,0,0,.84-.2,2.11,2.11,0,0,0,.6-.54l.57.45A2.31,2.31,0,0,1,204.13,66.3ZM204,61.38a1.25,1.25,0,0,0-1,.41,2,2,0,0,0-.48,1.16h2.75v-.07a1.79,1.79,0,0,0-.39-1.11A1.18,1.18,0,0,0,204,61.38Z"/><path class="cls-2" d="M207.13,63.41a3.22,3.22,0,0,1,.6-2,2,2,0,0,1,3.1-.11V58.4h.94v7.8h-.86l0-.59a1.91,1.91,0,0,1-1.57.69,1.87,1.87,0,0,1-1.56-.78,3.25,3.25,0,0,1-.6-2Zm.94.11a2.44,2.44,0,0,0,.39,1.46,1.25,1.25,0,0,0,1.07.53,1.37,1.37,0,0,0,1.3-.8V62.18a1.38,1.38,0,0,0-1.29-.78,1.25,1.25,0,0,0-1.08.53A2.69,2.69,0,0,0,208.07,63.51Z"/><path class="cls-2" d="M216.26,66.2V61.43h-.87v-.73h.87v-.56a1.87,1.87,0,0,1,.47-1.37,1.78,1.78,0,0,1,1.34-.48,2.48,2.48,0,0,1,.64.09l-.05.76a2.7,2.7,0,0,0-.51,0,.92.92,0,0,0-.71.27,1.08,1.08,0,0,0-.25.77v.58h1.17v.73h-1.17V66.2Z"/><path class="cls-2" d="M219.15,63.4a3.25,3.25,0,0,1,.32-1.45,2.37,2.37,0,0,1,.88-1,2.4,2.4,0,0,1,1.29-.35,2.32,2.32,0,0,1,1.82.78,3,3,0,0,1,.69,2.07v.07a3.27,3.27,0,0,1-.31,1.44,2.33,2.33,0,0,1-.88,1,2.43,2.43,0,0,1-1.31.36,2.31,2.31,0,0,1-1.81-.78,3,3,0,0,1-.69-2.06Zm.94.11a2.35,2.35,0,0,0,.42,1.47,1.44,1.44,0,0,0,2.27,0,2.57,2.57,0,0,0,.42-1.57,2.35,2.35,0,0,0-.43-1.46,1.36,1.36,0,0,0-1.14-.56,1.35,1.35,0,0,0-1.12.55A2.55,2.55,0,0,0,220.1,63.51Z"/><path class="cls-2" d="M228,61.55a2.84,2.84,0,0,0-.46,0,1.24,1.24,0,0,0-1.25.79v3.9h-.94V60.71h.91l0,.63a1.46,1.46,0,0,1,1.31-.74,1,1,0,0,1,.42.07Z"/><path class="cls-2" d="M233.22,64.82l1.28-4.12h1L233.3,67q-.51,1.37-1.63,1.37l-.18,0-.35-.07v-.76l.25,0a1.25,1.25,0,0,0,.74-.19,1.39,1.39,0,0,0,.44-.71l.21-.56-2-5.43h1Z"/><path class="cls-2" d="M236.1,63.4a3.25,3.25,0,0,1,.32-1.45,2.37,2.37,0,0,1,.88-1,2.4,2.4,0,0,1,1.29-.35,2.32,2.32,0,0,1,1.82.78,3,3,0,0,1,.69,2.07v.07a3.27,3.27,0,0,1-.31,1.44,2.33,2.33,0,0,1-.88,1,2.43,2.43,0,0,1-1.31.36,2.31,2.31,0,0,1-1.81-.78,3,3,0,0,1-.69-2.06Zm.94.11a2.35,2.35,0,0,0,.42,1.47,1.44,1.44,0,0,0,2.27,0,2.57,2.57,0,0,0,.42-1.57,2.35,2.35,0,0,0-.43-1.46,1.36,1.36,0,0,0-1.14-.56,1.35,1.35,0,0,0-1.12.55A2.55,2.55,0,0,0,237,63.51Z"/><path class="cls-2" d="M245.67,65.66a2,2,0,0,1-1.61.64,1.71,1.71,0,0,1-1.34-.51,2.21,2.21,0,0,1-.46-1.51V60.71h.94v3.55q0,1.25,1,1.25a1.41,1.41,0,0,0,1.43-.8v-4h.94V66.2h-.89Z"/><path class="cls-2" d="M250.66,61.55a2.84,2.84,0,0,0-.46,0,1.24,1.24,0,0,0-1.25.79v3.9H248V60.71h.91l0,.63a1.46,1.46,0,0,1,1.31-.74,1,1,0,0,1,.42.07Z"/><path class="cls-2" d="M258.32,62.94h-3.1V66.2h-1V58.81h4.58v.8h-3.6v2.53h3.1Z"/><path class="cls-2" d="M263.07,66.2a2,2,0,0,1-.13-.58,2.09,2.09,0,0,1-1.56.68,1.94,1.94,0,0,1-1.33-.46,1.48,1.48,0,0,1-.52-1.17,1.55,1.55,0,0,1,.65-1.33,3.08,3.08,0,0,1,1.84-.47h.91v-.43a1.06,1.06,0,0,0-.29-.78,1.18,1.18,0,0,0-.87-.29,1.37,1.37,0,0,0-.84.25.75.75,0,0,0-.34.61h-.94a1.3,1.3,0,0,1,.29-.79,2,2,0,0,1,.79-.61,2.67,2.67,0,0,1,1.1-.22,2.17,2.17,0,0,1,1.49.47,1.71,1.71,0,0,1,.56,1.31v2.53a3.09,3.09,0,0,0,.19,1.2v.08Zm-1.56-.72a1.65,1.65,0,0,0,.84-.23,1.38,1.38,0,0,0,.57-.59V63.53h-.74q-1.73,0-1.73,1a.86.86,0,0,0,.29.69A1.13,1.13,0,0,0,261.51,65.48Z"/><path class="cls-2" d="M266.22,60.71l0,.69a2,2,0,0,1,1.64-.79q1.74,0,1.76,2V66.2h-.94V62.56a1.26,1.26,0,0,0-.27-.88,1.09,1.09,0,0,0-.83-.28,1.36,1.36,0,0,0-.8.24,1.65,1.65,0,0,0-.54.64V66.2h-.94V60.71Z"/><path class="cls-2" d="M274.46,66.2a2,2,0,0,1-.13-.58,2.09,2.09,0,0,1-1.56.68,1.94,1.94,0,0,1-1.33-.46,1.48,1.48,0,0,1-.52-1.17,1.55,1.55,0,0,1,.65-1.33,3.08,3.08,0,0,1,1.84-.47h.91v-.43a1.06,1.06,0,0,0-.29-.78,1.18,1.18,0,0,0-.87-.29,1.37,1.37,0,0,0-.84.25.75.75,0,0,0-.34.61H271a1.3,1.3,0,0,1,.29-.79,2,2,0,0,1,.79-.61,2.67,2.67,0,0,1,1.1-.22,2.17,2.17,0,0,1,1.49.47,1.71,1.71,0,0,1,.56,1.31v2.53a3.09,3.09,0,0,0,.19,1.2v.08Zm-1.56-.72a1.65,1.65,0,0,0,.84-.23,1.38,1.38,0,0,0,.57-.59V63.53h-.74q-1.73,0-1.73,1a.86.86,0,0,0,.29.69A1.13,1.13,0,0,0,272.9,65.48Z"/><path class="cls-2" d="M278,59.38v1.33h1v.73h-1v3.41a.76.76,0,0,0,.14.5.58.58,0,0,0,.47.17,2.27,2.27,0,0,0,.45-.06v.76a2.74,2.74,0,0,1-.72.1,1.17,1.17,0,0,1-.95-.38,1.64,1.64,0,0,1-.32-1.08V61.43h-1v-.73h1V59.38Z"/><path class="cls-2" d="M280.12,59.25a.56.56,0,0,1,.14-.39.53.53,0,0,1,.41-.16.53.53,0,0,1,.42.16.56.56,0,0,1,.14.39.56.56,0,1,1-1.11,0Zm1,7h-.94V60.71h.94Z"/><path class="cls-2" d="M284.85,65.53a1.35,1.35,0,0,0,.88-.3,1.07,1.07,0,0,0,.42-.76H287a1.7,1.7,0,0,1-.32.9,2.14,2.14,0,0,1-.8.68,2.3,2.3,0,0,1-1.06.25,2.26,2.26,0,0,1-1.78-.75,3,3,0,0,1-.66-2v-.16a3.31,3.31,0,0,1,.29-1.43,2.24,2.24,0,0,1,.85-1,2.41,2.41,0,0,1,1.3-.35,2.2,2.2,0,0,1,1.54.55A2,2,0,0,1,287,62.6h-.89a1.3,1.3,0,0,0-.4-.88,1.26,1.26,0,0,0-.9-.34,1.31,1.31,0,0,0-1.11.52,2.42,2.42,0,0,0-.39,1.49v.18a2.37,2.37,0,0,0,.39,1.46A1.32,1.32,0,0,0,284.85,65.53Z"/><path class="cls-2" d="M291.48,66.2a2,2,0,0,1-.13-.58,2.09,2.09,0,0,1-1.56.68,1.94,1.94,0,0,1-1.33-.46,1.48,1.48,0,0,1-.52-1.17,1.55,1.55,0,0,1,.65-1.33,3.08,3.08,0,0,1,1.84-.47h.91v-.43a1.06,1.06,0,0,0-.29-.78,1.18,1.18,0,0,0-.87-.29,1.37,1.37,0,0,0-.84.25.75.75,0,0,0-.34.61H288a1.3,1.3,0,0,1,.29-.79,2,2,0,0,1,.79-.61,2.67,2.67,0,0,1,1.1-.22,2.17,2.17,0,0,1,1.49.47,1.71,1.71,0,0,1,.56,1.31v2.53a3.09,3.09,0,0,0,.19,1.2v.08Zm-1.56-.72a1.65,1.65,0,0,0,.84-.23,1.38,1.38,0,0,0,.57-.59V63.53h-.74q-1.73,0-1.73,1a.86.86,0,0,0,.29.69A1.13,1.13,0,0,0,289.92,65.48Z"/><path class="cls-2" d="M294.76,66.2h-.94V58.4h.94Z"/><path class="cls-2" d="M301.16,62.9a4.58,4.58,0,0,1-1.83-.89,1.69,1.69,0,0,1-.57-1.3,1.79,1.79,0,0,1,.7-1.44,2.77,2.77,0,0,1,1.82-.57,3,3,0,0,1,1.36.29,2.23,2.23,0,0,1,.92.81,2.08,2.08,0,0,1,.33,1.13h-1a1.35,1.35,0,0,0-.43-1.06,1.73,1.73,0,0,0-1.2-.38,1.78,1.78,0,0,0-1.12.32,1.06,1.06,0,0,0-.4.88,1,1,0,0,0,.38.77,3.76,3.76,0,0,0,1.3.57,6.07,6.07,0,0,1,1.44.57,2.19,2.19,0,0,1,.77.73,1.86,1.86,0,0,1,.25,1,1.73,1.73,0,0,1-.7,1.44,3,3,0,0,1-1.87.54,3.47,3.47,0,0,1-1.42-.29,2.39,2.39,0,0,1-1-.8,2,2,0,0,1-.36-1.15h1a1.27,1.27,0,0,0,.5,1.06,2.08,2.08,0,0,0,1.32.39,1.91,1.91,0,0,0,1.18-.31,1,1,0,0,0,.41-.86,1,1,0,0,0-.38-.84A4.39,4.39,0,0,0,301.16,62.9Z"/><path class="cls-2" d="M308.4,65.66a2,2,0,0,1-1.61.64,1.71,1.71,0,0,1-1.34-.51,2.21,2.21,0,0,1-.46-1.51V60.71h.94v3.55q0,1.25,1,1.25a1.41,1.41,0,0,0,1.43-.8v-4h.94V66.2h-.89Z"/><path class="cls-2" d="M315.38,63.51a3.29,3.29,0,0,1-.57,2,1.84,1.84,0,0,1-1.55.77,2,2,0,0,1-1.57-.63v2.65h-.94V60.71h.86l0,.61a1.94,1.94,0,0,1,1.59-.71,1.87,1.87,0,0,1,1.57.75,3.33,3.33,0,0,1,.58,2.08Zm-.94-.11a2.43,2.43,0,0,0-.4-1.47A1.28,1.28,0,0,0,313,61.4a1.38,1.38,0,0,0-1.28.76v2.62a1.38,1.38,0,0,0,1.29.75A1.27,1.27,0,0,0,314,65,2.65,2.65,0,0,0,314.44,63.41Z"/><path class="cls-2" d="M321.21,63.51a3.29,3.29,0,0,1-.57,2,1.84,1.84,0,0,1-1.55.77,2,2,0,0,1-1.57-.63v2.65h-.94V60.71h.86l0,.61a1.94,1.94,0,0,1,1.59-.71,1.87,1.87,0,0,1,1.57.75,3.33,3.33,0,0,1,.58,2.08Zm-.94-.11a2.43,2.43,0,0,0-.4-1.47,1.28,1.28,0,0,0-1.09-.54,1.38,1.38,0,0,0-1.28.76v2.62a1.38,1.38,0,0,0,1.29.75,1.27,1.27,0,0,0,1.07-.54A2.65,2.65,0,0,0,320.27,63.41Z"/><path class="cls-2" d="M322.16,63.4a3.25,3.25,0,0,1,.32-1.45,2.37,2.37,0,0,1,.88-1,2.4,2.4,0,0,1,1.29-.35,2.32,2.32,0,0,1,1.82.78,3,3,0,0,1,.69,2.07v.07a3.27,3.27,0,0,1-.31,1.44,2.33,2.33,0,0,1-.88,1,2.43,2.43,0,0,1-1.31.36,2.31,2.31,0,0,1-1.81-.78,3,3,0,0,1-.69-2.06Zm.94.11a2.35,2.35,0,0,0,.42,1.47,1.44,1.44,0,0,0,2.27,0,2.57,2.57,0,0,0,.42-1.57,2.35,2.35,0,0,0-.43-1.46,1.36,1.36,0,0,0-1.14-.56,1.35,1.35,0,0,0-1.12.55A2.55,2.55,0,0,0,323.1,63.51Z"/><path class="cls-2" d="M331,61.55a2.84,2.84,0,0,0-.46,0,1.24,1.24,0,0,0-1.25.79v3.9h-.94V60.71h.91l0,.63a1.46,1.46,0,0,1,1.31-.74,1,1,0,0,1,.42.07Z"/><path class="cls-2" d="M333.38,59.38v1.33h1v.73h-1v3.41a.76.76,0,0,0,.14.5.58.58,0,0,0,.47.17,2.27,2.27,0,0,0,.45-.06v.76a2.74,2.74,0,0,1-.72.1,1.17,1.17,0,0,1-.95-.38,1.64,1.64,0,0,1-.32-1.08V61.43h-1v-.73h1V59.38Z"/><path class="cls-2" d="M338.54,66.2V61.43h-.87v-.73h.87v-.56a1.87,1.87,0,0,1,.47-1.37,1.78,1.78,0,0,1,1.34-.48,2.48,2.48,0,0,1,.64.09l-.05.76a2.7,2.7,0,0,0-.51,0,.92.92,0,0,0-.71.27,1.08,1.08,0,0,0-.25.77v.58h1.17v.73h-1.17V66.2Z"/><path class="cls-2" d="M341.44,63.4a3.25,3.25,0,0,1,.32-1.45,2.37,2.37,0,0,1,.88-1,2.4,2.4,0,0,1,1.29-.35,2.32,2.32,0,0,1,1.82.78,3,3,0,0,1,.69,2.07v.07a3.27,3.27,0,0,1-.31,1.44,2.33,2.33,0,0,1-.88,1,2.43,2.43,0,0,1-1.31.36,2.31,2.31,0,0,1-1.81-.78,3,3,0,0,1-.69-2.06Zm.94.11a2.35,2.35,0,0,0,.42,1.47,1.44,1.44,0,0,0,2.27,0,2.57,2.57,0,0,0,.42-1.57,2.35,2.35,0,0,0-.43-1.46,1.36,1.36,0,0,0-1.14-.56,1.35,1.35,0,0,0-1.12.55A2.55,2.55,0,0,0,342.39,63.51Z"/><path class="cls-2" d="M350.28,61.55a2.84,2.84,0,0,0-.46,0,1.24,1.24,0,0,0-1.25.79v3.9h-.94V60.71h.91l0,.63a1.46,1.46,0,0,1,1.31-.74,1,1,0,0,1,.42.07Z"/><path class="cls-2" d="M357.94,64.27h-3.1l-.7,1.93h-1L356,58.81h.85l2.83,7.39h-1Zm-2.8-.8h2.51L356.39,60Z"/><path class="cls-2" d="M361.89,63.87l.14,1,.21-.88,1.46-5.16h.82L365.95,64l.2.89.16-1,1.15-5.06h1l-1.79,7.39h-.89l-1.52-5.39-.12-.56-.12.56-1.58,5.39h-.89l-1.79-7.39h1Z"/><path class="cls-2" d="M371.7,62.9a4.58,4.58,0,0,1-1.83-.89,1.69,1.69,0,0,1-.57-1.3,1.79,1.79,0,0,1,.7-1.44,2.77,2.77,0,0,1,1.82-.57,3,3,0,0,1,1.36.29,2.23,2.23,0,0,1,.92.81,2.08,2.08,0,0,1,.33,1.13h-1a1.35,1.35,0,0,0-.43-1.06,1.73,1.73,0,0,0-1.2-.38,1.78,1.78,0,0,0-1.12.32,1.06,1.06,0,0,0-.4.88,1,1,0,0,0,.38.77A3.76,3.76,0,0,0,372,62a6.07,6.07,0,0,1,1.44.57,2.19,2.19,0,0,1,.77.73,1.86,1.86,0,0,1,.25,1,1.73,1.73,0,0,1-.7,1.44,3,3,0,0,1-1.87.54,3.47,3.47,0,0,1-1.42-.29,2.39,2.39,0,0,1-1-.8,2,2,0,0,1-.36-1.15h1a1.27,1.27,0,0,0,.5,1.06,2.08,2.08,0,0,0,1.32.39,1.91,1.91,0,0,0,1.18-.31,1,1,0,0,0,.41-.86,1,1,0,0,0-.38-.84A4.39,4.39,0,0,0,371.7,62.9Z"/><path class="cls-2" d="M381.5,66.2a2,2,0,0,1-.13-.58,2.09,2.09,0,0,1-1.56.68,1.94,1.94,0,0,1-1.33-.46,1.48,1.48,0,0,1-.52-1.17,1.55,1.55,0,0,1,.65-1.33,3.08,3.08,0,0,1,1.84-.47h.91v-.43a1.06,1.06,0,0,0-.29-.78,1.18,1.18,0,0,0-.87-.29,1.37,1.37,0,0,0-.84.25.75.75,0,0,0-.34.61h-.94a1.3,1.3,0,0,1,.29-.79,2,2,0,0,1,.79-.61,2.67,2.67,0,0,1,1.1-.22,2.17,2.17,0,0,1,1.49.47,1.71,1.71,0,0,1,.56,1.31v2.53a3.09,3.09,0,0,0,.19,1.2v.08Zm-1.56-.72a1.65,1.65,0,0,0,.84-.23,1.38,1.38,0,0,0,.57-.59V63.53h-.74q-1.73,0-1.73,1a.86.86,0,0,0,.29.69A1.13,1.13,0,0,0,379.95,65.48Z"/><path class="cls-2" d="M386,65.53a1.35,1.35,0,0,0,.88-.3,1.07,1.07,0,0,0,.42-.76h.89a1.7,1.7,0,0,1-.32.9,2.14,2.14,0,0,1-.8.68,2.3,2.3,0,0,1-1.06.25,2.26,2.26,0,0,1-1.78-.75,3,3,0,0,1-.66-2v-.16a3.31,3.31,0,0,1,.29-1.43,2.24,2.24,0,0,1,.85-1,2.41,2.41,0,0,1,1.3-.35,2.2,2.2,0,0,1,1.54.55,2,2,0,0,1,.65,1.44h-.89a1.3,1.3,0,0,0-.4-.88,1.26,1.26,0,0,0-.9-.34,1.31,1.31,0,0,0-1.11.52,2.42,2.42,0,0,0-.39,1.49v.18a2.37,2.37,0,0,0,.39,1.46A1.32,1.32,0,0,0,386,65.53Z"/><path class="cls-2" d="M391.41,65.53a1.35,1.35,0,0,0,.88-.3,1.07,1.07,0,0,0,.42-.76h.89a1.7,1.7,0,0,1-.32.9,2.14,2.14,0,0,1-.8.68,2.3,2.3,0,0,1-1.06.25,2.26,2.26,0,0,1-1.78-.75,3,3,0,0,1-.66-2v-.16a3.31,3.31,0,0,1,.29-1.43,2.24,2.24,0,0,1,.85-1,2.41,2.41,0,0,1,1.3-.35,2.2,2.2,0,0,1,1.54.55,2,2,0,0,1,.65,1.44h-.89a1.3,1.3,0,0,0-.4-.88,1.26,1.26,0,0,0-.9-.34,1.31,1.31,0,0,0-1.11.52,2.42,2.42,0,0,0-.39,1.49v.18A2.37,2.37,0,0,0,390.3,65,1.32,1.32,0,0,0,391.41,65.53Z"/><path class="cls-2" d="M394.41,63.4a3.25,3.25,0,0,1,.32-1.45,2.37,2.37,0,0,1,.88-1,2.4,2.4,0,0,1,1.29-.35,2.32,2.32,0,0,1,1.82.78,3,3,0,0,1,.69,2.07v.07A3.27,3.27,0,0,1,399.1,65a2.33,2.33,0,0,1-.88,1,2.43,2.43,0,0,1-1.31.36,2.31,2.31,0,0,1-1.81-.78,3,3,0,0,1-.69-2.06Zm.94.11a2.35,2.35,0,0,0,.42,1.47A1.44,1.44,0,0,0,398,65a2.57,2.57,0,0,0,.42-1.57,2.35,2.35,0,0,0-.43-1.46,1.36,1.36,0,0,0-1.14-.56,1.35,1.35,0,0,0-1.12.55A2.55,2.55,0,0,0,395.35,63.51Z"/><path class="cls-2" d="M404,65.66a2,2,0,0,1-1.61.64,1.71,1.71,0,0,1-1.34-.51,2.21,2.21,0,0,1-.46-1.51V60.71h.94v3.55q0,1.25,1,1.25a1.41,1.41,0,0,0,1.43-.8v-4h.94V66.2H404Z"/><path class="cls-2" d="M407.2,60.71l0,.69a2,2,0,0,1,1.64-.79q1.74,0,1.76,2V66.2h-.94V62.56a1.26,1.26,0,0,0-.27-.88,1.09,1.09,0,0,0-.83-.28,1.36,1.36,0,0,0-.8.24,1.65,1.65,0,0,0-.54.64V66.2h-.94V60.71Z"/><path class="cls-2" d="M413.33,59.38v1.33h1v.73h-1v3.41a.76.76,0,0,0,.14.5.58.58,0,0,0,.47.17,2.27,2.27,0,0,0,.45-.06v.76a2.74,2.74,0,0,1-.72.1,1.17,1.17,0,0,1-.95-.38,1.64,1.64,0,0,1-.32-1.08V61.43h-1v-.73h1V59.38Z"/><path class="cls-2" d="M415.47,65.71a.59.59,0,0,1,.14-.41.55.55,0,0,1,.43-.16.57.57,0,0,1,.44.16.58.58,0,0,1,.15.41.54.54,0,0,1-.15.39.58.58,0,0,1-.44.16.56.56,0,0,1-.43-.16A.55.55,0,0,1,415.47,65.71Z"/><path class="cls-2" d="M13.89,39.65H12.42L6.84,31.11v8.54H5.37V28.56H6.84l5.6,8.58V28.56h1.45Z"/><path class="cls-2" d="M19.69,39.8A3.6,3.6,0,0,1,17,38.7a4.08,4.08,0,0,1-1.05-2.94V35.5a4.94,4.94,0,0,1,.47-2.19,3.65,3.65,0,0,1,1.31-1.51,3.29,3.29,0,0,1,1.82-.54A3.09,3.09,0,0,1,22,32.32a4.58,4.58,0,0,1,.89,3v.59H17.32a2.93,2.93,0,0,0,.71,2,2.24,2.24,0,0,0,1.73.75,2.45,2.45,0,0,0,1.26-.3,3.18,3.18,0,0,0,.91-.81l.86.67A3.46,3.46,0,0,1,19.69,39.8Zm-.18-7.39a1.88,1.88,0,0,0-1.43.62,3,3,0,0,0-.72,1.74h4.13v-.11A2.68,2.68,0,0,0,20.91,33,1.77,1.77,0,0,0,19.51,32.42Z"/><path class="cls-2" d="M31.83,37.71l1.58-6.3h1.41l-2.4,8.24H31.28l-2-6.24-1.95,6.24H26.18l-2.39-8.24h1.4l1.62,6.17,1.92-6.17h1.13Z"/><path class="cls-2" d="M47.69,29.76H44.13v9.89H42.67V29.76H39.11v-1.2h8.58Z"/><path class="cls-2" d="M49.12,29.23a.84.84,0,0,1,.21-.58.79.79,0,0,1,.62-.24.8.8,0,0,1,.62.24.83.83,0,0,1,.21.58.8.8,0,0,1-.21.57A.81.81,0,0,1,50,30a.8.8,0,0,1-.62-.23A.81.81,0,0,1,49.12,29.23Zm1.52,10.43H49.24V31.41h1.41Z"/><path class="cls-2" d="M56.2,38.65a2,2,0,0,0,1.32-.46,1.61,1.61,0,0,0,.62-1.14h1.33A2.55,2.55,0,0,1,59,38.4a3.21,3.21,0,0,1-1.2,1,3.46,3.46,0,0,1-1.59.38,3.39,3.39,0,0,1-2.68-1.12,4.47,4.47,0,0,1-1-3.07v-.24A5,5,0,0,1,53,33.23a3.36,3.36,0,0,1,1.27-1.45,3.6,3.6,0,0,1,2-.52,3.3,3.3,0,0,1,2.3.83,3,3,0,0,1,1,2.16H58.15a1.94,1.94,0,0,0-.61-1.31,1.88,1.88,0,0,0-1.34-.51,2,2,0,0,0-1.66.77,3.63,3.63,0,0,0-.59,2.24v.27a3.56,3.56,0,0,0,.59,2.19A2,2,0,0,0,56.2,38.65Z"/><path class="cls-2" d="M63.36,35.84l-.88.92v2.89H61.07V28h1.41V35l.75-.91,2.57-2.71h1.71l-3.21,3.44,3.58,4.8H66.23Z"/><path class="cls-2" d="M72.39,39.8a3.6,3.6,0,0,1-2.73-1.1,4.08,4.08,0,0,1-1.05-2.94V35.5a4.94,4.94,0,0,1,.47-2.19,3.65,3.65,0,0,1,1.31-1.51,3.29,3.29,0,0,1,1.82-.54,3.09,3.09,0,0,1,2.5,1.06,4.58,4.58,0,0,1,.89,3v.59H70a2.93,2.93,0,0,0,.71,2,2.24,2.24,0,0,0,1.73.75,2.45,2.45,0,0,0,1.26-.3,3.18,3.18,0,0,0,.91-.81l.86.67A3.46,3.46,0,0,1,72.39,39.8Zm-.18-7.39a1.88,1.88,0,0,0-1.43.62,3,3,0,0,0-.72,1.74h4.13v-.11A2.68,2.68,0,0,0,73.61,33,1.77,1.77,0,0,0,72.21,32.42Z"/><path class="cls-2" d="M79.14,29.42v2h1.54V32.5H79.14v5.12a1.14,1.14,0,0,0,.21.74.87.87,0,0,0,.7.25,3.41,3.41,0,0,0,.67-.09v1.14a4.11,4.11,0,0,1-1.08.15,1.75,1.75,0,0,1-1.42-.57,2.45,2.45,0,0,1-.48-1.62V32.5h-1.5V31.41h1.5v-2Z"/><line class="cls-1" x1="480.47" y1="101.07" x2="11.96" y2="101.07"/><path class="cls-2" d="M15.4,121.57l3.46,8.65,3.46-8.65h1.81v10.6h-1.4V128l.13-4.45-3.48,8.58H18.33l-3.47-8.56L15,128v4.13H13.6v-10.6Z"/><path class="cls-2" d="M26,128.15a4.65,4.65,0,0,1,.45-2.08,3.39,3.39,0,0,1,1.27-1.43,3.45,3.45,0,0,1,1.85-.5,3.32,3.32,0,0,1,2.6,1.11,4.28,4.28,0,0,1,1,3v.09a4.69,4.69,0,0,1-.44,2.06,3.34,3.34,0,0,1-1.26,1.42,3.49,3.49,0,0,1-1.88.51A3.31,3.31,0,0,1,27,131.2a4.26,4.26,0,0,1-1-2.95Zm1.35.16a3.37,3.37,0,0,0,.61,2.1,2.06,2.06,0,0,0,3.26,0,3.68,3.68,0,0,0,.6-2.25,3.36,3.36,0,0,0-.62-2.1,2,2,0,0,0-1.63-.8A1.93,1.93,0,0,0,28,126,3.66,3.66,0,0,0,27.4,128.31Z"/><path class="cls-2" d="M36.18,124.29l0,1a2.87,2.87,0,0,1,2.36-1.14q2.5,0,2.52,2.82v5.2H39.75V127a1.81,1.81,0,0,0-.39-1.26,1.56,1.56,0,0,0-1.19-.41,1.94,1.94,0,0,0-1.15.35,2.37,2.37,0,0,0-.77.92v5.61H34.9v-7.88Z"/><path class="cls-2" d="M43.14,122.2a.8.8,0,0,1,.2-.55.75.75,0,0,1,.59-.23.76.76,0,0,1,.6.23.8.8,0,0,1,.2.55.77.77,0,0,1-.2.55.78.78,0,0,1-.6.22.77.77,0,0,1-.59-.22A.78.78,0,0,1,43.14,122.2Zm1.46,10H43.24v-7.88h1.35Z"/><path class="cls-2" d="M48.57,122.38v1.91H50v1H48.57v4.89a1.09,1.09,0,0,0,.2.71.83.83,0,0,0,.67.24,3.26,3.26,0,0,0,.64-.09v1.09a3.93,3.93,0,0,1-1,.14,1.68,1.68,0,0,1-1.36-.55,2.35,2.35,0,0,1-.46-1.55v-4.88H45.79v-1h1.43v-1.91Z"/><path class="cls-2" d="M51.11,128.15a4.65,4.65,0,0,1,.45-2.08,3.39,3.39,0,0,1,1.27-1.43,3.45,3.45,0,0,1,1.85-.5,3.32,3.32,0,0,1,2.6,1.11,4.28,4.28,0,0,1,1,3v.09a4.69,4.69,0,0,1-.44,2.06,3.34,3.34,0,0,1-1.26,1.42,3.49,3.49,0,0,1-1.88.51,3.31,3.31,0,0,1-2.59-1.11,4.26,4.26,0,0,1-1-2.95Zm1.35.16a3.37,3.37,0,0,0,.61,2.1,2.06,2.06,0,0,0,3.26,0,3.68,3.68,0,0,0,.6-2.25,3.36,3.36,0,0,0-.62-2.1,2,2,0,0,0-1.63-.8,1.93,1.93,0,0,0-1.61.79A3.66,3.66,0,0,0,52.47,128.31Z"/><path class="cls-2" d="M63.78,125.5a4,4,0,0,0-.66-.05,1.77,1.77,0,0,0-1.8,1.13v5.59H60v-7.88h1.31l0,.91a2.1,2.1,0,0,1,1.88-1.06,1.38,1.38,0,0,1,.6.1Z"/><path class="cls-2" d="M65,122.2a.8.8,0,0,1,.2-.55.75.75,0,0,1,.59-.23.76.76,0,0,1,.6.23.8.8,0,0,1,.2.55.77.77,0,0,1-.2.55.78.78,0,0,1-.6.22.77.77,0,0,1-.59-.22A.78.78,0,0,1,65,122.2Zm1.46,10H65.13v-7.88h1.35Z"/><path class="cls-2" d="M69.91,124.29l0,1a2.87,2.87,0,0,1,2.36-1.14q2.5,0,2.52,2.82v5.2H73.48V127a1.81,1.81,0,0,0-.39-1.26,1.56,1.56,0,0,0-1.19-.41,1.94,1.94,0,0,0-1.15.35,2.37,2.37,0,0,0-.77.92v5.61H68.63v-7.88Z"/><path class="cls-2" d="M76.54,128.16a4.63,4.63,0,0,1,.85-2.93,2.94,2.94,0,0,1,4.51-.07l.07-.87h1.23V132a3.2,3.2,0,0,1-.91,2.41,3.34,3.34,0,0,1-2.43.88,4.05,4.05,0,0,1-1.67-.36,2.87,2.87,0,0,1-1.24-1l.7-.81a2.63,2.63,0,0,0,2.12,1.07,2.06,2.06,0,0,0,1.53-.55,2.11,2.11,0,0,0,.55-1.56v-.68a2.77,2.77,0,0,1-2.21.93,2.69,2.69,0,0,1-2.24-1.11A4.87,4.87,0,0,1,76.54,128.16Zm1.35.15a3.53,3.53,0,0,0,.55,2.09,1.77,1.77,0,0,0,1.53.76A2,2,0,0,0,81.84,130v-3.6A2,2,0,0,0,80,125.29a1.79,1.79,0,0,0-1.54.76A3.85,3.85,0,0,0,77.89,128.31Z"/><path class="cls-2" d="M95,129.39H90.53l-1,2.77H88.1l4-10.6h1.22l4.05,10.6H96Zm-4-1.14h3.6l-1.81-5Z"/><path class="cls-2" d="M100.1,132.16H98.75V121h1.35Z"/><path class="cls-2" d="M105.52,132.31a3.44,3.44,0,0,1-2.61-1.05,3.9,3.9,0,0,1-1-2.81v-.25a4.73,4.73,0,0,1,.45-2.09,3.49,3.49,0,0,1,1.25-1.44,3.15,3.15,0,0,1,1.74-.52,3,3,0,0,1,2.39,1,4.38,4.38,0,0,1,.85,2.9v.56h-5.34a2.8,2.8,0,0,0,.68,1.88,2.14,2.14,0,0,0,1.66.72,2.35,2.35,0,0,0,1.21-.29,3,3,0,0,0,.87-.77l.82.64A3.31,3.31,0,0,1,105.52,132.31Zm-.17-7.06a1.8,1.8,0,0,0-1.37.59,2.88,2.88,0,0,0-.68,1.66h3.95v-.1a2.56,2.56,0,0,0-.55-1.59A1.69,1.69,0,0,0,105.35,125.25Z"/><path class="cls-2" d="M114,125.5a4,4,0,0,0-.66-.05,1.77,1.77,0,0,0-1.8,1.13v5.59h-1.35v-7.88h1.31l0,.91a2.1,2.1,0,0,1,1.88-1.06,1.38,1.38,0,0,1,.6.1Z"/><path class="cls-2" d="M117.39,122.38v1.91h1.47v1h-1.47v4.89a1.09,1.09,0,0,0,.2.71.83.83,0,0,0,.67.24,3.26,3.26,0,0,0,.64-.09v1.09a3.93,3.93,0,0,1-1,.14,1.68,1.68,0,0,1-1.36-.55,2.35,2.35,0,0,1-.46-1.55v-4.88h-1.43v-1H116v-1.91Z"/><rect class="cls-3" x="2.97" y="132.72" width="489.04" height="14.91"/><path class="cls-4" d="M15.94,143.64v-.54l.69-.67c1.65-1.57,2.4-2.41,2.41-3.38a1.15,1.15,0,0,0-1.28-1.26,2.2,2.2,0,0,0-1.37.55l-.28-.62a2.83,2.83,0,0,1,1.83-.66,1.82,1.82,0,0,1,2,1.88c0,1.19-.86,2.16-2.23,3.47l-.52.48v0h2.9v.73Z"/><path class="cls-4" d="M23.75,143.64v-1.76h-3v-.58l2.88-4.13h.95v4h.9v.69h-.9v1.76Zm0-2.45V139q0-.51,0-1h0c-.2.38-.36.66-.54,1l-1.58,2.2v0Z"/><path class="cls-4" d="M26.42,140.4c0-.62,0-1.11,0-1.57h.78l0,.83h0a1.89,1.89,0,0,1,1.71-.93,2.18,2.18,0,0,1,2,2.45c0,1.73-1.05,2.59-2.19,2.59A1.69,1.69,0,0,1,27.3,143h0v2.61h-.86Zm.86,1.28a2,2,0,0,0,0,.36,1.35,1.35,0,0,0,1.31,1c.92,0,1.46-.76,1.46-1.86s-.51-1.79-1.43-1.79a1.52,1.52,0,0,0-1.38,1.44Z"/><path class="cls-4" d="M32.34,138.83l.69,1c.18.27.33.52.49.79h0c.16-.29.32-.54.48-.8l.68-1h.95L34,141.16l1.69,2.49h-1L34,142.56c-.19-.28-.35-.55-.52-.84h0c-.16.29-.33.55-.51.84l-.7,1.08h-1L33,141.19l-1.63-2.36Z"/><path class="cls-4" d="M37.91,144l2.77-7.21h.68L38.57,144Z"/><path class="cls-4" d="M45.78,138h0l-1.12.61-.17-.67,1.41-.76h.75v6.46h-.84Z"/><path class="cls-4" d="M49,143.13a.59.59,0,0,1,.6-.63.63.63,0,0,1,0,1.25A.59.59,0,0,1,49,143.13Z"/><path class="cls-4" d="M54.89,137.92H52.43l-.25,1.66a3.48,3.48,0,0,1,.53,0,2.73,2.73,0,0,1,1.39.35,1.84,1.84,0,0,1,.92,1.66,2.24,2.24,0,0,1-2.41,2.21,3.16,3.16,0,0,1-1.61-.4l.22-.67a2.9,2.9,0,0,0,1.38.36,1.43,1.43,0,0,0,1.53-1.4c0-.84-.57-1.43-1.86-1.43a6.72,6.72,0,0,0-.9.07l.42-3.1h3.09Z"/><path class="cls-4" d="M56.9,141.4a1.54,1.54,0,0,0,1.65,1.67,3.16,3.16,0,0,0,1.33-.25l.15.63a3.89,3.89,0,0,1-1.6.3,2.23,2.23,0,0,1-2.37-2.43,2.34,2.34,0,0,1,2.26-2.59,2,2,0,0,1,2,2.27,3.21,3.21,0,0,1,0,.41Zm2.56-.63a1.24,1.24,0,0,0-1.21-1.42,1.45,1.45,0,0,0-1.34,1.42Z"/><path class="cls-4" d="M61.39,140.13c0-.5,0-.9,0-1.3h.77l0,.78h0a1.66,1.66,0,0,1,1.51-.88,1.42,1.42,0,0,1,1.36,1h0a2,2,0,0,1,.54-.63,1.64,1.64,0,0,1,1.06-.34c.64,0,1.58.42,1.58,2.09v2.83H67.4v-2.72c0-.92-.34-1.48-1-1.48a1.13,1.13,0,0,0-1,.8,1.43,1.43,0,0,0-.07.44v3H64.4v-2.88c0-.77-.34-1.32-1-1.32a1.31,1.31,0,0,0-1.15,1.3v2.9h-.85Z"/><rect class="cls-3" x="2.97" y="101.83" width="489.04" height="14.91"/><path class="cls-4" d="M15.94,112.33v-.54l.69-.67c1.65-1.57,2.4-2.41,2.41-3.38a1.15,1.15,0,0,0-1.28-1.26,2.2,2.2,0,0,0-1.37.55l-.28-.62a2.83,2.83,0,0,1,1.83-.66,1.82,1.82,0,0,1,2,1.88c0,1.19-.86,2.16-2.23,3.47l-.52.48v0h2.9v.73Z"/><path class="cls-4" d="M23.75,112.33v-1.76h-3V110l2.88-4.13h.95v4h.9v.69h-.9v1.76Zm0-2.45v-2.16q0-.51,0-1h0c-.2.38-.36.66-.54,1l-1.58,2.2v0Z"/><path class="cls-4" d="M26.42,109.09c0-.62,0-1.11,0-1.57h.78l0,.83h0a1.89,1.89,0,0,1,1.71-.93,2.18,2.18,0,0,1,2,2.45c0,1.73-1.05,2.59-2.19,2.59a1.69,1.69,0,0,1-1.48-.76h0v2.61h-.86Zm.86,1.28a2,2,0,0,0,0,.36,1.35,1.35,0,0,0,1.31,1c.92,0,1.46-.76,1.46-1.86s-.51-1.79-1.43-1.79a1.52,1.52,0,0,0-1.38,1.44Z"/><path class="cls-4" d="M32.34,107.52l.69,1c.18.27.33.52.49.79h0c.16-.29.32-.54.48-.8l.68-1h.95L34,109.84l1.69,2.49h-1L34,111.24c-.19-.28-.35-.55-.52-.84h0c-.16.29-.33.55-.51.84l-.7,1.08h-1L33,109.87l-1.63-2.36Z"/><path class="cls-4" d="M37.91,112.73l2.77-7.21h.68l-2.78,7.21Z"/><path class="cls-4" d="M45.78,106.68h0l-1.12.61-.17-.67,1.41-.76h.75v6.46h-.84Z"/><path class="cls-4" d="M49,111.81a.59.59,0,0,1,.6-.63.63.63,0,0,1,0,1.25A.59.59,0,0,1,49,111.81Z"/><path class="cls-4" d="M54.89,106.6H52.43l-.25,1.66a3.48,3.48,0,0,1,.53,0,2.73,2.73,0,0,1,1.39.35,1.84,1.84,0,0,1,.92,1.66,2.24,2.24,0,0,1-2.41,2.21A3.16,3.16,0,0,1,51,112l.22-.67a2.9,2.9,0,0,0,1.38.36,1.43,1.43,0,0,0,1.53-1.4c0-.84-.57-1.43-1.86-1.43a6.72,6.72,0,0,0-.9.07l.42-3.1h3.09Z"/><path class="cls-4" d="M56.9,110.08a1.54,1.54,0,0,0,1.65,1.67,3.16,3.16,0,0,0,1.33-.25l.15.63a3.89,3.89,0,0,1-1.6.3A2.23,2.23,0,0,1,56.06,110a2.34,2.34,0,0,1,2.26-2.59,2,2,0,0,1,2,2.27,3.21,3.21,0,0,1,0,.41Zm2.56-.63A1.24,1.24,0,0,0,58.25,108a1.45,1.45,0,0,0-1.34,1.42Z"/><path class="cls-4" d="M61.39,108.82c0-.5,0-.9,0-1.3h.77l0,.78h0a1.66,1.66,0,0,1,1.51-.88,1.42,1.42,0,0,1,1.36,1h0a2,2,0,0,1,.54-.63,1.64,1.64,0,0,1,1.06-.34c.64,0,1.58.42,1.58,2.09v2.83H67.4V109.6c0-.92-.34-1.48-1-1.48a1.13,1.13,0,0,0-1,.8,1.43,1.43,0,0,0-.07.44v3H64.4v-2.88c0-.77-.34-1.32-1-1.32a1.31,1.31,0,0,0-1.15,1.3v2.9h-.85Z"/><rect class="cls-5" y="94.12" width="12.42" height="60.61"/><path class="cls-4" d="M3.88,102.68h.54l.67.69c1.57,1.65,2.41,2.4,3.38,2.41a1.15,1.15,0,0,0,1.26-1.28,2.2,2.2,0,0,0-.55-1.37l.62-.28a2.83,2.83,0,0,1,.66,1.83,1.82,1.82,0,0,1-1.88,2c-1.19,0-2.16-.86-3.47-2.23l-.48-.52h0v2.9H3.88Z"/><path class="cls-4" d="M7.18,112.07c-2.2,0-3.41-.82-3.41-2.25,0-1.26,1.18-2.12,3.32-2.14s3.36.93,3.36,2.25S9.24,112.07,7.18,112.07Zm-.1-3.51c-1.68,0-2.63.52-2.63,1.31s1,1.32,2.69,1.32,2.63-.41,2.63-1.31S8.84,108.56,7.08,108.56Z"/><path class="cls-4" d="M7.12,113.15c.62,0,1.11,0,1.57,0v.79l-.83,0v0a1.89,1.89,0,0,1,.93,1.71,2.18,2.18,0,0,1-2.45,2c-1.73,0-2.59-1.05-2.59-2.19A1.69,1.69,0,0,1,4.53,114v0H1.91v-.86ZM5.84,114a2,2,0,0,0-.36,0,1.35,1.35,0,0,0-1,1.31c0,.92.76,1.46,1.86,1.46s1.79-.51,1.79-1.43A1.4,1.4,0,0,0,7,114.07a1.41,1.41,0,0,0-.36-.06Z"/><path class="cls-4" d="M8.69,119.07l-1,.69c-.27.18-.52.33-.79.49v0c.29.16.54.32.8.48l1,.68v.94l-2.33-1.64-2.49,1.69v-1L5,120.72c.28-.19.55-.35.84-.52v0c-.29-.16-.55-.33-.84-.51L3.88,119v-1l2.46,1.71,2.36-1.63Z"/><path class="cls-4" d="M3.48,124.64l7.21,2.77v.68L3.48,125.3Z"/><path class="cls-4" d="M9.53,132.51v0l-.61-1.12.67-.17.76,1.41v.75H3.88v-.85Z"/><path class="cls-4" d="M4.4,135.78a.59.59,0,0,1,.63.6.58.58,0,0,1-.63.59.59.59,0,1,1,0-1.18Z"/><path class="cls-4" d="M3.88,137.77h.54l.67.69c1.57,1.65,2.41,2.4,3.38,2.41a1.15,1.15,0,0,0,1.26-1.28,2.2,2.2,0,0,0-.55-1.37l.62-.28a2.83,2.83,0,0,1,.66,1.83,1.82,1.82,0,0,1-1.88,2c-1.19,0-2.16-.86-3.47-2.23L4.63,139h0v2.9H3.88Z"/><path class="cls-4" d="M9.61,146.72v-2.47L7.95,144a3.43,3.43,0,0,1,0,.53,2.73,2.73,0,0,1-.35,1.39,1.84,1.84,0,0,1-1.66.92,2.24,2.24,0,0,1-2.21-2.41,3.16,3.16,0,0,1,.4-1.61l.67.22a2.9,2.9,0,0,0-.36,1.38A1.43,1.43,0,0,0,5.88,146c.84,0,1.43-.57,1.43-1.86a6.58,6.58,0,0,0-.07-.89l3.1.42v3.09Z"/></g></svg>