<svg xmlns="http://www.w3.org/2000/svg" xmlns:xlink="http://www.w3.org/1999/xlink" viewBox="0 0 500 177.6"><defs><style>.cls-1,.cls-14,.cls-4,.cls-6{fill:#fff;}.cls-1{clip-rule:evenodd;}.cls-2{fill:#d32f2f;}.cls-3{fill:#f44336;}.cls-4,.cls-5{opacity:0.8;}.cls-4{isolation:isolate;}.cls-7{fill:#fafafa;}.cls-10,.cls-8{fill:none;stroke-miterlimit:10;}.cls-8{stroke:#d32f2f;}.cls-9{fill:#757575;}.cls-10{stroke:#3b44a9;}.cls-11{fill:#3b44a9;}.cls-12{fill:#424242;}.cls-13{fill:#0e7c84;}.cls-14{fill-rule:evenodd;}.cls-15{clip-path:url(#clip-path);}.cls-16{font-size:8px;fill:#eb008b;font-family:Roboto-Light, Roboto;}</style><clipPath id="clip-path"><path class="cls-1" d="M14.56,151.33A8,8,0,0,1,19.68,154a9.82,9.82,0,0,1,2.15,4.64,7.41,7.41,0,0,0-3-2.56,10.19,10.19,0,0,0-4.28-.82v2.69l-4.61-4.61,4.61-4.61Z"/></clipPath></defs><title>Urgent Alert</title><g id="Email_Content" data-name="Email Content"><rect class="cls-2" x="1.28" y="68.98" width="494.55" height="30.42"/><rect class="cls-3" x="1.37" y="68.98" width="30.42" height="30.42"/><path class="cls-4" d="M20.73,90.84H13.28L9.55,84.32l3.73-6.52h7.45l3.73,6.52Zm-7.09-.62h6.73l3.37-5.9-3.37-5.9H13.64l-3.37,5.9Z"/><g class="cls-5"><path class="cls-6" d="M14.55,87.13a.7.7,0,0,1,.6-.78h.17a.73.73,0,0,1,.56.2.79.79,0,0,1,.19.57.81.81,0,0,1-.2.58.72.72,0,0,1-.56.21.76.76,0,0,1-.57-.2A.79.79,0,0,1,14.55,87.13Zm1.24-1.24h-.91l-.27-5.59H16Z"/><path class="cls-6" d="M17.94,87.13a.7.7,0,0,1,.6-.78h.17a.73.73,0,0,1,.56.2.79.79,0,0,1,.19.57.81.81,0,0,1-.2.58.72.72,0,0,1-.56.21.76.76,0,0,1-.57-.2A.79.79,0,0,1,17.94,87.13Zm1.24-1.24h-.91L18,80.3h1.42Z"/></g><path class="cls-7" d="M44.5,84.48H41.28v2.63H45v.8H40.3V80.48H45v.8H41.28v2.39H44.5Z"/><path class="cls-7" d="M47,82.39,47,83a2,2,0,0,1,1.64-.71,1.58,1.58,0,0,1,1.58.89,2.09,2.09,0,0,1,.72-.64,2.12,2.12,0,0,1,1-.25q1.82,0,1.85,1.92v3.7h-.94V84.27a1.27,1.27,0,0,0-.27-.89,1.19,1.19,0,0,0-.91-.29,1.25,1.25,0,0,0-.87.31,1.27,1.27,0,0,0-.4.84v3.67h-.95V84.3a1.05,1.05,0,0,0-1.18-1.2,1.26,1.26,0,0,0-1.27.79v4h-.94V82.39Z"/><path class="cls-7" d="M57.55,88a2.41,2.41,0,0,1-1.83-.74,2.74,2.74,0,0,1-.7-2v-.17a3.31,3.31,0,0,1,.31-1.47,2.45,2.45,0,0,1,.88-1,2.21,2.21,0,0,1,1.22-.37,2.07,2.07,0,0,1,1.67.71,3.07,3.07,0,0,1,.6,2v.39H56a2,2,0,0,0,.48,1.32,1.5,1.5,0,0,0,1.16.5,1.65,1.65,0,0,0,.85-.2,2.12,2.12,0,0,0,.61-.54l.58.45A2.32,2.32,0,0,1,57.55,88Zm-.12-5a1.26,1.26,0,0,0-1,.42A2,2,0,0,0,56,84.65h2.77v-.07a1.8,1.8,0,0,0-.39-1.12A1.19,1.19,0,0,0,57.43,83.06Z"/><path class="cls-7" d="M63.47,83.24a2.86,2.86,0,0,0-.46,0,1.24,1.24,0,0,0-1.26.79v3.92H60.8V82.39h.92l0,.64A1.47,1.47,0,0,1,63,82.29a1,1,0,0,1,.42.07Z"/><path class="cls-7" d="M64.11,85.11a3.25,3.25,0,0,1,.6-2.05,2.06,2.06,0,0,1,3.16,0l0-.61h.86v5.39a2.25,2.25,0,0,1-.64,1.69,2.35,2.35,0,0,1-1.71.62,2.84,2.84,0,0,1-1.17-.26,2,2,0,0,1-.87-.7l.49-.57a1.85,1.85,0,0,0,1.49.75,1.45,1.45,0,0,0,1.07-.39,1.48,1.48,0,0,0,.39-1.09v-.47a1.94,1.94,0,0,1-1.55.65,1.89,1.89,0,0,1-1.57-.78A3.41,3.41,0,0,1,64.11,85.11Zm.95.11a2.48,2.48,0,0,0,.38,1.47,1.24,1.24,0,0,0,1.07.53,1.38,1.38,0,0,0,1.31-.81V83.88a1.4,1.4,0,0,0-1.3-.79,1.26,1.26,0,0,0-1.08.54A2.7,2.7,0,0,0,65.06,85.21Z"/><path class="cls-7" d="M72.49,88a2.41,2.41,0,0,1-1.83-.74,2.74,2.74,0,0,1-.7-2v-.17a3.31,3.31,0,0,1,.31-1.47,2.45,2.45,0,0,1,.88-1,2.21,2.21,0,0,1,1.22-.37A2.07,2.07,0,0,1,74,83a3.07,3.07,0,0,1,.6,2v.39H70.9a2,2,0,0,0,.48,1.32,1.5,1.5,0,0,0,1.16.5,1.65,1.65,0,0,0,.85-.2A2.12,2.12,0,0,0,74,86.5l.58.45A2.32,2.32,0,0,1,72.49,88Zm-.12-5a1.26,1.26,0,0,0-1,.42,2,2,0,0,0-.48,1.17H73.7v-.07a1.8,1.8,0,0,0-.39-1.12A1.19,1.19,0,0,0,72.37,83.06Z"/><path class="cls-7" d="M76.63,82.39l0,.69a2,2,0,0,1,1.65-.8q1.75,0,1.77,2v3.65h-.94V84.26a1.27,1.27,0,0,0-.27-.88,1.09,1.09,0,0,0-.83-.29,1.36,1.36,0,0,0-.81.25,1.66,1.66,0,0,0-.54.64v3.94h-.94V82.39Z"/><path class="cls-7" d="M83.72,87.25a1.36,1.36,0,0,0,.88-.31,1.08,1.08,0,0,0,.42-.77h.89a1.71,1.71,0,0,1-.33.9,2.16,2.16,0,0,1-.8.68,2.32,2.32,0,0,1-1.06.26,2.27,2.27,0,0,1-1.79-.75,3,3,0,0,1-.67-2.06V85a3.33,3.33,0,0,1,.3-1.43,2.25,2.25,0,0,1,.85-1,2.41,2.41,0,0,1,1.31-.35,2.22,2.22,0,0,1,1.54.56,2,2,0,0,1,.66,1.44H85a1.3,1.3,0,0,0-.41-.88,1.26,1.26,0,0,0-.9-.34,1.32,1.32,0,0,0-1.12.52,2.43,2.43,0,0,0-.4,1.5v.18a2.38,2.38,0,0,0,.39,1.47A1.33,1.33,0,0,0,83.72,87.25Z"/><path class="cls-7" d="M88.79,86.53l1.29-4.14h1l-2.22,6.38q-.52,1.38-1.64,1.38l-.18,0-.35-.07V89.3l.26,0a1.26,1.26,0,0,0,.75-.19,1.4,1.4,0,0,0,.44-.71l.21-.56-2-5.46h1Z"/><path class="cls-7" d="M96.27,85.14H93.78v-.77h2.49Z"/><path class="cls-7" d="M103,86.45a.7.7,0,0,0-.29-.59,2.78,2.78,0,0,0-1-.37,4.76,4.76,0,0,1-1.14-.37,1.62,1.62,0,0,1-.62-.51,1.22,1.22,0,0,1-.2-.7,1.43,1.43,0,0,1,.57-1.15,2.24,2.24,0,0,1,1.47-.47,2.31,2.31,0,0,1,1.52.49,1.54,1.54,0,0,1,.58,1.24h-.95a.85.85,0,0,0-.33-.67,1.23,1.23,0,0,0-.83-.28,1.29,1.29,0,0,0-.81.22.71.71,0,0,0-.29.59.57.57,0,0,0,.27.52,3.33,3.33,0,0,0,1,.33,5.09,5.09,0,0,1,1.15.38,1.67,1.67,0,0,1,.65.53,1.3,1.3,0,0,1,.21.75,1.41,1.41,0,0,1-.59,1.19,2.48,2.48,0,0,1-1.54.45,2.79,2.79,0,0,1-1.17-.23,1.91,1.91,0,0,1-.8-.66,1.58,1.58,0,0,1-.29-.91h.94a1,1,0,0,0,.38.75,1.47,1.47,0,0,0,.94.28,1.52,1.52,0,0,0,.86-.22A.67.67,0,0,0,103,86.45Z"/><path class="cls-7" d="M107.46,88a2.41,2.41,0,0,1-1.83-.74,2.74,2.74,0,0,1-.7-2v-.17a3.31,3.31,0,0,1,.31-1.47,2.45,2.45,0,0,1,.88-1,2.21,2.21,0,0,1,1.22-.37A2.07,2.07,0,0,1,109,83a3.07,3.07,0,0,1,.6,2v.39h-3.74a2,2,0,0,0,.48,1.32,1.5,1.5,0,0,0,1.16.5,1.65,1.65,0,0,0,.85-.2,2.12,2.12,0,0,0,.61-.54l.58.45A2.32,2.32,0,0,1,107.46,88Zm-.12-5a1.26,1.26,0,0,0-1,.42,2,2,0,0,0-.48,1.17h2.77v-.07a1.8,1.8,0,0,0-.39-1.12A1.19,1.19,0,0,0,107.35,83.06Z"/><path class="cls-7" d="M113.38,83.24a2.86,2.86,0,0,0-.46,0,1.24,1.24,0,0,0-1.26.79v3.92h-.94V82.39h.92l0,.64a1.47,1.47,0,0,1,1.32-.74,1,1,0,0,1,.42.07Z"/><path class="cls-7" d="M116.16,86.63l1.37-4.24h1l-2,5.52h-.72l-2-5.52h1Z"/><path class="cls-7" d="M119.41,80.93a.56.56,0,0,1,.14-.39.53.53,0,0,1,.42-.16.54.54,0,0,1,.42.16.56.56,0,0,1,.14.39.56.56,0,1,1-1.12,0Zm1,7h-.94V82.39h.94Z"/><path class="cls-7" d="M124.16,87.25a1.36,1.36,0,0,0,.88-.31,1.08,1.08,0,0,0,.42-.77h.89a1.71,1.71,0,0,1-.33.9,2.16,2.16,0,0,1-.8.68,2.32,2.32,0,0,1-1.06.26,2.27,2.27,0,0,1-1.79-.75,3,3,0,0,1-.67-2.06V85a3.33,3.33,0,0,1,.3-1.43,2.25,2.25,0,0,1,.85-1,2.41,2.41,0,0,1,1.31-.35,2.22,2.22,0,0,1,1.54.56,2,2,0,0,1,.66,1.44h-.89a1.3,1.3,0,0,0-.41-.88,1.26,1.26,0,0,0-.9-.34,1.32,1.32,0,0,0-1.12.52,2.43,2.43,0,0,0-.4,1.5v.18a2.38,2.38,0,0,0,.39,1.47A1.33,1.33,0,0,0,124.16,87.25Z"/><path class="cls-7" d="M129.71,88a2.41,2.41,0,0,1-1.83-.74,2.74,2.74,0,0,1-.7-2v-.17a3.31,3.31,0,0,1,.31-1.47,2.45,2.45,0,0,1,.88-1,2.21,2.21,0,0,1,1.22-.37,2.07,2.07,0,0,1,1.67.71,3.07,3.07,0,0,1,.6,2v.39h-3.74a2,2,0,0,0,.48,1.32,1.5,1.5,0,0,0,1.16.5,1.65,1.65,0,0,0,.85-.2,2.12,2.12,0,0,0,.61-.54l.58.45A2.32,2.32,0,0,1,129.71,88Zm-.12-5a1.26,1.26,0,0,0-1,.42,2,2,0,0,0-.48,1.17h2.77v-.07a1.8,1.8,0,0,0-.39-1.12A1.19,1.19,0,0,0,129.59,83.06Z"/><path class="cls-7" d="M135.32,85.11a3.24,3.24,0,0,1,.6-2A2,2,0,0,1,139,83V80.07H140v7.84h-.87l0-.59a1.92,1.92,0,0,1-1.58.69,1.89,1.89,0,0,1-1.56-.79,3.27,3.27,0,0,1-.61-2.05Zm.94.11a2.45,2.45,0,0,0,.39,1.47,1.25,1.25,0,0,0,1.07.53,1.38,1.38,0,0,0,1.31-.81V83.87a1.39,1.39,0,0,0-1.3-.78,1.26,1.26,0,0,0-1.08.54A2.7,2.7,0,0,0,136.26,85.21Z"/><path class="cls-7" d="M141.45,80.93a.56.56,0,0,1,.14-.39.53.53,0,0,1,.42-.16.54.54,0,0,1,.42.16.56.56,0,0,1,.14.39.56.56,0,1,1-1.12,0Zm1,7h-.94V82.39h.94Z"/><path class="cls-7" d="M147.2,86.45a.7.7,0,0,0-.29-.59,2.78,2.78,0,0,0-1-.37,4.76,4.76,0,0,1-1.14-.37,1.62,1.62,0,0,1-.62-.51,1.22,1.22,0,0,1-.2-.7,1.43,1.43,0,0,1,.57-1.15,2.24,2.24,0,0,1,1.47-.47,2.31,2.31,0,0,1,1.52.49,1.54,1.54,0,0,1,.58,1.24h-.95a.85.85,0,0,0-.33-.67,1.23,1.23,0,0,0-.83-.28,1.29,1.29,0,0,0-.81.22.71.71,0,0,0-.29.59.57.57,0,0,0,.27.52,3.33,3.33,0,0,0,1,.33,5.09,5.09,0,0,1,1.15.38,1.67,1.67,0,0,1,.65.53,1.3,1.3,0,0,1,.21.75,1.41,1.41,0,0,1-.59,1.19A2.48,2.48,0,0,1,146,88a2.79,2.79,0,0,1-1.17-.23,1.91,1.91,0,0,1-.8-.66,1.58,1.58,0,0,1-.29-.91h.94a1,1,0,0,0,.38.75,1.47,1.47,0,0,0,.94.28,1.52,1.52,0,0,0,.86-.22A.67.67,0,0,0,147.2,86.45Z"/><path class="cls-7" d="M154,85.21a3.31,3.31,0,0,1-.58,2,1.85,1.85,0,0,1-1.56.77,2,2,0,0,1-1.58-.64V90h-.94V82.39h.86l0,.61a2,2,0,0,1,1.6-.71,1.88,1.88,0,0,1,1.58.75,3.35,3.35,0,0,1,.58,2.09Zm-.94-.11a2.44,2.44,0,0,0-.4-1.48,1.28,1.28,0,0,0-1.09-.54,1.39,1.39,0,0,0-1.29.76v2.64a1.39,1.39,0,0,0,1.3.76,1.28,1.28,0,0,0,1.08-.54A2.66,2.66,0,0,0,153.09,85.11Z"/><path class="cls-7" d="M158.65,87.37A2,2,0,0,1,157,88a1.72,1.72,0,0,1-1.35-.51,2.22,2.22,0,0,1-.47-1.52V82.39h.94V86q0,1.26,1,1.26a1.41,1.41,0,0,0,1.44-.81v-4h.94v5.52h-.9Z"/><path class="cls-7" d="M163.67,83.24a2.86,2.86,0,0,0-.46,0,1.24,1.24,0,0,0-1.26.79v3.92H161V82.39h.92l0,.64a1.47,1.47,0,0,1,1.32-.74,1,1,0,0,1,.42.07Z"/><path class="cls-7" d="M166.08,81.05v1.34h1v.73h-1v3.43a.77.77,0,0,0,.14.5.58.58,0,0,0,.47.17,2.29,2.29,0,0,0,.45-.06v.76a2.75,2.75,0,0,1-.72.1,1.18,1.18,0,0,1-1-.38,1.65,1.65,0,0,1-.32-1.09V83.12h-1v-.73h1V81.05Z"/><path class="cls-7" d="M168.21,80.93a.56.56,0,0,1,.14-.39.53.53,0,0,1,.42-.16.54.54,0,0,1,.42.16.56.56,0,0,1,.14.39.56.56,0,1,1-1.12,0Zm1,7h-.94V82.39h.94Z"/><path class="cls-7" d="M170.5,85.1a3.27,3.27,0,0,1,.32-1.46,2.38,2.38,0,0,1,.89-1,2.42,2.42,0,0,1,1.3-.35,2.33,2.33,0,0,1,1.83.78,3,3,0,0,1,.7,2.08v.07a3.29,3.29,0,0,1-.31,1.45,2.35,2.35,0,0,1-.88,1A2.45,2.45,0,0,1,173,88a2.32,2.32,0,0,1-1.82-.78,3,3,0,0,1-.7-2.07Zm.95.11a2.36,2.36,0,0,0,.43,1.48,1.44,1.44,0,0,0,2.28,0,2.58,2.58,0,0,0,.42-1.58,2.36,2.36,0,0,0-.43-1.47,1.37,1.37,0,0,0-1.15-.56,1.36,1.36,0,0,0-1.13.56A2.56,2.56,0,0,0,171.45,85.21Z"/><path class="cls-7" d="M177.6,82.39l0,.69a2,2,0,0,1,1.65-.8q1.75,0,1.77,2v3.65h-.94V84.26a1.27,1.27,0,0,0-.27-.88,1.09,1.09,0,0,0-.83-.29,1.36,1.36,0,0,0-.81.25,1.66,1.66,0,0,0-.54.64v3.94h-.94V82.39Z"/><path class="cls-7" d="M182.5,87.42a.59.59,0,0,1,.15-.41.55.55,0,0,1,.44-.16.57.57,0,0,1,.44.16.58.58,0,0,1,.15.41.55.55,0,0,1-.15.39.58.58,0,0,1-.44.16.56.56,0,0,1-.44-.16A.56.56,0,0,1,182.5,87.42Z"/><path class="cls-7" d="M192.07,86H189l-.7,1.95h-1l2.84-7.43h.86l2.84,7.43h-1Zm-2.82-.8h2.53l-1.27-3.48Z"/><path class="cls-7" d="M196.86,87.25a1.36,1.36,0,0,0,.88-.31,1.08,1.08,0,0,0,.42-.77h.89a1.71,1.71,0,0,1-.33.9,2.16,2.16,0,0,1-.8.68,2.32,2.32,0,0,1-1.06.26,2.27,2.27,0,0,1-1.79-.75,3,3,0,0,1-.67-2.06V85a3.33,3.33,0,0,1,.3-1.43,2.25,2.25,0,0,1,.85-1,2.41,2.41,0,0,1,1.31-.35,2.22,2.22,0,0,1,1.54.56,2,2,0,0,1,.66,1.44h-.89a1.3,1.3,0,0,0-.41-.88,1.26,1.26,0,0,0-.9-.34,1.32,1.32,0,0,0-1.12.52,2.43,2.43,0,0,0-.4,1.5v.18a2.38,2.38,0,0,0,.39,1.47A1.33,1.33,0,0,0,196.86,87.25Z"/><path class="cls-7" d="M201.4,81.05v1.34h1v.73h-1v3.43a.77.77,0,0,0,.14.5.58.58,0,0,0,.47.17,2.29,2.29,0,0,0,.45-.06v.76a2.75,2.75,0,0,1-.72.1,1.18,1.18,0,0,1-1-.38,1.65,1.65,0,0,1-.32-1.09V83.12h-1v-.73h1V81.05Z"/><path class="cls-7" d="M203.53,80.93a.56.56,0,0,1,.14-.39.53.53,0,0,1,.42-.16.54.54,0,0,1,.42.16.56.56,0,0,1,.14.39.56.56,0,1,1-1.12,0Zm1,7h-.94V82.39h.94Z"/><path class="cls-7" d="M205.82,85.1a3.27,3.27,0,0,1,.32-1.46,2.38,2.38,0,0,1,.89-1,2.42,2.42,0,0,1,1.3-.35,2.33,2.33,0,0,1,1.83.78,3,3,0,0,1,.7,2.08v.07a3.29,3.29,0,0,1-.31,1.45,2.35,2.35,0,0,1-.88,1,2.45,2.45,0,0,1-1.32.36,2.32,2.32,0,0,1-1.82-.78,3,3,0,0,1-.7-2.07Zm.95.11a2.36,2.36,0,0,0,.43,1.48,1.44,1.44,0,0,0,2.28,0,2.58,2.58,0,0,0,.42-1.58,2.36,2.36,0,0,0-.43-1.47,1.37,1.37,0,0,0-1.15-.56,1.36,1.36,0,0,0-1.13.56A2.56,2.56,0,0,0,206.77,85.21Z"/><path class="cls-7" d="M212.92,82.39l0,.69a2,2,0,0,1,1.65-.8q1.75,0,1.77,2v3.65h-.94V84.26a1.27,1.27,0,0,0-.27-.88,1.09,1.09,0,0,0-.83-.29,1.36,1.36,0,0,0-.81.25A1.66,1.66,0,0,0,213,84v3.94H212V82.39Z"/><path class="cls-7" d="M223.06,83.24a2.86,2.86,0,0,0-.46,0,1.24,1.24,0,0,0-1.26.79v3.92h-.94V82.39h.92l0,.64a1.47,1.47,0,0,1,1.32-.74,1,1,0,0,1,.42.07Z"/><path class="cls-7" d="M226.22,88a2.41,2.41,0,0,1-1.83-.74,2.74,2.74,0,0,1-.7-2v-.17a3.31,3.31,0,0,1,.31-1.47,2.45,2.45,0,0,1,.88-1,2.21,2.21,0,0,1,1.22-.37,2.07,2.07,0,0,1,1.67.71,3.07,3.07,0,0,1,.6,2v.39h-3.74a2,2,0,0,0,.48,1.32,1.5,1.5,0,0,0,1.16.5,1.65,1.65,0,0,0,.85-.2,2.12,2.12,0,0,0,.61-.54l.58.45A2.32,2.32,0,0,1,226.22,88Zm-.12-5a1.26,1.26,0,0,0-1,.42,2,2,0,0,0-.48,1.17h2.77v-.07a1.8,1.8,0,0,0-.39-1.12A1.19,1.19,0,0,0,226.1,83.06Z"/><path class="cls-7" d="M229.24,85.11a3.24,3.24,0,0,1,.6-2.06,2.11,2.11,0,0,1,3.15-.1l0-.56h.87V90h-.94V87.4a2,2,0,0,1-1.52.61,1.91,1.91,0,0,1-1.6-.78,3.32,3.32,0,0,1-.59-2.07Zm.94.11a2.46,2.46,0,0,0,.4,1.49,1.28,1.28,0,0,0,1.08.54,1.41,1.41,0,0,0,1.29-.75V83.79a1.42,1.42,0,0,0-1.28-.73,1.28,1.28,0,0,0-1.09.54A2.68,2.68,0,0,0,230.18,85.21Z"/><path class="cls-7" d="M238.82,87.37a2,2,0,0,1-1.62.65,1.72,1.72,0,0,1-1.35-.51,2.22,2.22,0,0,1-.47-1.52V82.39h.94V86q0,1.26,1,1.26a1.41,1.41,0,0,0,1.44-.81v-4h.94v5.52h-.9Z"/><path class="cls-7" d="M241.18,80.93a.56.56,0,0,1,.14-.39.53.53,0,0,1,.42-.16.54.54,0,0,1,.42.16.56.56,0,0,1,.14.39.56.56,0,1,1-1.12,0Zm1,7h-.94V82.39h.94Z"/><path class="cls-7" d="M246.38,83.24a2.86,2.86,0,0,0-.46,0,1.24,1.24,0,0,0-1.26.79v3.92h-.94V82.39h.92l0,.64a1.47,1.47,0,0,1,1.32-.74,1,1,0,0,1,.42.07Z"/><path class="cls-7" d="M249.54,88a2.41,2.41,0,0,1-1.83-.74,2.74,2.74,0,0,1-.7-2v-.17a3.31,3.31,0,0,1,.31-1.47,2.45,2.45,0,0,1,.88-1,2.21,2.21,0,0,1,1.22-.37,2.07,2.07,0,0,1,1.67.71,3.07,3.07,0,0,1,.6,2v.39H248a2,2,0,0,0,.48,1.32,1.5,1.5,0,0,0,1.16.5,1.65,1.65,0,0,0,.85-.2,2.12,2.12,0,0,0,.61-.54l.58.45A2.32,2.32,0,0,1,249.54,88Zm-.12-5a1.26,1.26,0,0,0-1,.42,2,2,0,0,0-.48,1.17h2.77v-.07a1.8,1.8,0,0,0-.39-1.12A1.19,1.19,0,0,0,249.42,83.06Z"/><path class="cls-7" d="M252.56,85.11a3.24,3.24,0,0,1,.6-2,2,2,0,0,1,3.11-.11V80.07h.94v7.84h-.87l0-.59a1.92,1.92,0,0,1-1.58.69,1.89,1.89,0,0,1-1.56-.79,3.27,3.27,0,0,1-.61-2.05Zm.94.11a2.45,2.45,0,0,0,.39,1.47,1.25,1.25,0,0,0,1.07.53,1.38,1.38,0,0,0,1.31-.81V83.87a1.39,1.39,0,0,0-1.3-.78,1.26,1.26,0,0,0-1.08.54A2.7,2.7,0,0,0,253.5,85.21Z"/><path class="cls-7" d="M262.55,81.05v1.34h1v.73h-1v3.43a.77.77,0,0,0,.14.5.58.58,0,0,0,.47.17,2.29,2.29,0,0,0,.45-.06v.76a2.75,2.75,0,0,1-.72.1,1.18,1.18,0,0,1-1-.38,1.65,1.65,0,0,1-.32-1.09V83.12h-1v-.73h1V81.05Z"/><path class="cls-7" d="M264.34,85.1a3.27,3.27,0,0,1,.32-1.46,2.38,2.38,0,0,1,.89-1,2.42,2.42,0,0,1,1.3-.35,2.33,2.33,0,0,1,1.83.78,3,3,0,0,1,.7,2.08v.07a3.29,3.29,0,0,1-.31,1.45,2.35,2.35,0,0,1-.88,1,2.45,2.45,0,0,1-1.32.36,2.32,2.32,0,0,1-1.82-.78,3,3,0,0,1-.7-2.07Zm.95.11a2.36,2.36,0,0,0,.43,1.48,1.44,1.44,0,0,0,2.28,0,2.58,2.58,0,0,0,.42-1.58,2.36,2.36,0,0,0-.43-1.47,1.37,1.37,0,0,0-1.15-.56,1.36,1.36,0,0,0-1.13.56A2.56,2.56,0,0,0,265.29,85.21Z"/><path class="cls-7" d="M275.81,83.24a2.86,2.86,0,0,0-.46,0,1.24,1.24,0,0,0-1.26.79v3.92h-.94V82.39h.92l0,.64a1.47,1.47,0,0,1,1.32-.74,1,1,0,0,1,.42.07Z"/><path class="cls-7" d="M279,88a2.41,2.41,0,0,1-1.83-.74,2.74,2.74,0,0,1-.7-2v-.17a3.31,3.31,0,0,1,.31-1.47,2.45,2.45,0,0,1,.88-1,2.21,2.21,0,0,1,1.22-.37,2.07,2.07,0,0,1,1.67.71,3.07,3.07,0,0,1,.6,2v.39h-3.74a2,2,0,0,0,.48,1.32,1.5,1.5,0,0,0,1.16.5,1.65,1.65,0,0,0,.85-.2,2.12,2.12,0,0,0,.61-.54l.58.45A2.32,2.32,0,0,1,279,88Zm-.12-5a1.26,1.26,0,0,0-1,.42,2,2,0,0,0-.48,1.17h2.77v-.07a1.8,1.8,0,0,0-.39-1.12A1.19,1.19,0,0,0,278.85,83.06Z"/><path class="cls-7" d="M285.43,86.45a.7.7,0,0,0-.29-.59,2.78,2.78,0,0,0-1-.37,4.76,4.76,0,0,1-1.14-.37,1.62,1.62,0,0,1-.62-.51,1.22,1.22,0,0,1-.2-.7,1.43,1.43,0,0,1,.57-1.15,2.24,2.24,0,0,1,1.47-.47,2.31,2.31,0,0,1,1.52.49,1.54,1.54,0,0,1,.58,1.24h-.95a.85.85,0,0,0-.33-.67,1.23,1.23,0,0,0-.83-.28,1.29,1.29,0,0,0-.81.22.71.71,0,0,0-.29.59.57.57,0,0,0,.27.52,3.33,3.33,0,0,0,1,.33,5.09,5.09,0,0,1,1.15.38,1.67,1.67,0,0,1,.65.53,1.3,1.3,0,0,1,.21.75,1.41,1.41,0,0,1-.59,1.19,2.48,2.48,0,0,1-1.54.45,2.79,2.79,0,0,1-1.17-.23,1.91,1.91,0,0,1-.8-.66,1.58,1.58,0,0,1-.29-.91h.94a1,1,0,0,0,.38.75,1.47,1.47,0,0,0,.94.28,1.52,1.52,0,0,0,.86-.22A.67.67,0,0,0,285.43,86.45Z"/><path class="cls-7" d="M287.36,85.1a3.27,3.27,0,0,1,.32-1.46,2.38,2.38,0,0,1,.89-1,2.42,2.42,0,0,1,1.3-.35,2.33,2.33,0,0,1,1.83.78,3,3,0,0,1,.7,2.08v.07a3.29,3.29,0,0,1-.31,1.45,2.35,2.35,0,0,1-.88,1,2.45,2.45,0,0,1-1.32.36,2.32,2.32,0,0,1-1.82-.78,3,3,0,0,1-.7-2.07Zm.95.11a2.36,2.36,0,0,0,.43,1.48,1.44,1.44,0,0,0,2.28,0,2.58,2.58,0,0,0,.42-1.58,2.36,2.36,0,0,0-.43-1.47,1.37,1.37,0,0,0-1.15-.56,1.36,1.36,0,0,0-1.13.56A2.56,2.56,0,0,0,288.31,85.21Z"/><path class="cls-7" d="M294.6,87.92h-.94V80.07h.94Z"/><path class="cls-7" d="M297.93,86.63l1.37-4.24h1l-2,5.52h-.72l-2-5.52h1Z"/><path class="cls-7" d="M303.46,88a2.41,2.41,0,0,1-1.83-.74,2.74,2.74,0,0,1-.7-2v-.17a3.31,3.31,0,0,1,.31-1.47,2.45,2.45,0,0,1,.88-1,2.21,2.21,0,0,1,1.22-.37A2.07,2.07,0,0,1,305,83a3.07,3.07,0,0,1,.6,2v.39h-3.74a2,2,0,0,0,.48,1.32,1.5,1.5,0,0,0,1.16.5,1.65,1.65,0,0,0,.85-.2,2.12,2.12,0,0,0,.61-.54l.58.45A2.32,2.32,0,0,1,303.46,88Zm-.12-5a1.26,1.26,0,0,0-1,.42,2,2,0,0,0-.48,1.17h2.77v-.07a1.8,1.8,0,0,0-.39-1.12A1.19,1.19,0,0,0,303.35,83.06Z"/><path class="cls-7" d="M306.73,87.42a.59.59,0,0,1,.15-.41.55.55,0,0,1,.44-.16.57.57,0,0,1,.44.16.58.58,0,0,1,.15.41.55.55,0,0,1-.15.39.58.58,0,0,1-.44.16.56.56,0,0,1-.44-.16A.56.56,0,0,1,306.73,87.42Z"/><path class="cls-7" d="M317.3,86.3l1.89-5.82h1.42l-2.68,7.43h-1.25L314,80.48h1.41Z"/><path class="cls-7" d="M322.81,87.92h-1.29V80.48h1.29Z"/><path class="cls-7" d="M328.74,84.6h-3.05v2.29h3.57v1H324.4V80.48h4.82v1h-3.53v2.05h3.05Z"/><path class="cls-7" d="M336.14,86.08l1.14-5.6h1.28l-1.72,7.43h-1.24l-1.41-5.43-1.44,5.43h-1.24l-1.72-7.43h1.28l1.15,5.59,1.42-5.59h1.08Z"/><path class="cls-7" d="M343.48,87.92h-1.29V80.48h1.29Z"/><path class="cls-7" d="M351,87.92h-1.29l-3.31-5.27v5.27h-1.29V80.48h1.29l3.32,5.29V80.48H351Z"/><path class="cls-7" d="M358.16,85.5a2.68,2.68,0,0,1-.88,1.86,3,3,0,0,1-2,.67,2.9,2.9,0,0,1-1.56-.42,2.76,2.76,0,0,1-1-1.2,4.32,4.32,0,0,1-.38-1.8V83.9a4.35,4.35,0,0,1,.37-1.85,2.81,2.81,0,0,1,1.07-1.24,3,3,0,0,1,1.61-.43,2.87,2.87,0,0,1,2,.67,2.78,2.78,0,0,1,.87,1.89h-1.29a1.84,1.84,0,0,0-.47-1.16,1.54,1.54,0,0,0-1.1-.35A1.51,1.51,0,0,0,354,82a3.08,3.08,0,0,0-.46,1.81v.66a3.26,3.26,0,0,0,.43,1.84,1.43,1.43,0,0,0,1.26.63,1.67,1.67,0,0,0,1.14-.34,1.78,1.78,0,0,0,.49-1.14Z"/><path class="cls-7" d="M360.68,87.92h-1.29V80.48h1.29Z"/><path class="cls-7" d="M362.26,87.92V80.48h2.2a3.44,3.44,0,0,1,1.75.44,3,3,0,0,1,1.18,1.25,4,4,0,0,1,.42,1.85v.37a3.94,3.94,0,0,1-.42,1.86,3,3,0,0,1-1.2,1.24,3.6,3.6,0,0,1-1.78.43Zm1.29-6.39v5.36h.84a1.94,1.94,0,0,0,1.56-.64,2.77,2.77,0,0,0,.55-1.83V84a2.84,2.84,0,0,0-.53-1.85,1.86,1.86,0,0,0-1.53-.64Z"/><path class="cls-7" d="M373.44,84.6h-3.05v2.29H374v1H369.1V80.48h4.82v1h-3.53v2.05h3.05Z"/><path class="cls-7" d="M380.9,87.92h-1.29l-3.31-5.27v5.27H375V80.48h1.29l3.32,5.29V80.48h1.28Z"/><path class="cls-7" d="M387.8,81.52h-2.32v6.39H384.2V81.52h-2.3v-1h5.9Z"/><path class="cls-7" d="M391.07,87.92V80.48h2.2a3.44,3.44,0,0,1,1.75.44,3,3,0,0,1,1.18,1.25,4,4,0,0,1,.42,1.85v.37a3.94,3.94,0,0,1-.42,1.86,3,3,0,0,1-1.2,1.24,3.6,3.6,0,0,1-1.78.43Zm1.29-6.39v5.36h.84a1.94,1.94,0,0,0,1.56-.64,2.77,2.77,0,0,0,.55-1.83V84a2.84,2.84,0,0,0-.53-1.85,1.86,1.86,0,0,0-1.53-.64Z"/><path class="cls-7" d="M402.25,84.6H399.2v2.29h3.57v1h-4.86V80.48h4.82v1H399.2v2.05h3.05Z"/><path class="cls-7" d="M408,86.18H405.1l-.6,1.73h-1.34L406,80.48h1.16l2.81,7.43h-1.35Zm-2.52-1h2.15l-1.08-3.08Z"/><path class="cls-7" d="M415.54,81.52h-2.32v6.39h-1.28V81.52h-2.3v-1h5.9Z"/><path class="cls-7" d="M417.87,87.92h-1.29V80.48h1.29Z"/><path class="cls-7" d="M420.75,86.88h3.37v1h-4.67V80.48h1.29Z"/><path class="cls-7" d="M429,86a.9.9,0,0,0-.34-.76,4.15,4.15,0,0,0-1.24-.54,6,6,0,0,1-1.43-.6,1.91,1.91,0,0,1-1-1.66A1.81,1.81,0,0,1,425.7,81a3,3,0,0,1,1.9-.58,3.21,3.21,0,0,1,1.38.29,2.27,2.27,0,0,1,1,.81,2.09,2.09,0,0,1,.35,1.17H429a1.17,1.17,0,0,0-.37-.91,1.51,1.51,0,0,0-1-.33,1.57,1.57,0,0,0-1,.27.9.9,0,0,0-.35.76.81.81,0,0,0,.38.68,4.35,4.35,0,0,0,1.25.53,5.71,5.71,0,0,1,1.39.59,2.22,2.22,0,0,1,.77.76,2,2,0,0,1,.25,1,1.77,1.77,0,0,1-.71,1.48,3.09,3.09,0,0,1-1.93.55,3.63,3.63,0,0,1-1.48-.3,2.49,2.49,0,0,1-1.05-.82,2.05,2.05,0,0,1-.38-1.23H426a1.2,1.2,0,0,0,.42,1,1.83,1.83,0,0,0,1.2.35,1.59,1.59,0,0,0,1-.27A.88.88,0,0,0,429,86Z"/><rect class="cls-8" x="1.6" y="15.25" width="494.55" height="30.42"/><rect class="cls-2" x="1.69" y="15.25" width="30.42" height="30.42"/><path class="cls-4" d="M21.05,37.12H13.6L9.87,30.6l3.73-6.52h7.45l3.73,6.52ZM14,36.5h6.73l3.37-5.9-3.37-5.9H14l-3.37,5.9Z"/><g class="cls-5"><path class="cls-6" d="M14.87,33.4a.7.7,0,0,1,.6-.78h.17a.73.73,0,0,1,.56.2.79.79,0,0,1,.19.57.81.81,0,0,1-.2.58.72.72,0,0,1-.56.21.76.76,0,0,1-.57-.2A.79.79,0,0,1,14.87,33.4Zm1.24-1.24H15.2l-.27-5.59h1.42Z"/><path class="cls-6" d="M18.26,33.4a.7.7,0,0,1,.6-.78H19a.73.73,0,0,1,.56.2.79.79,0,0,1,.19.57.81.81,0,0,1-.2.58.72.72,0,0,1-.56.21.76.76,0,0,1-.57-.2A.79.79,0,0,1,18.26,33.4Zm1.24-1.24h-.91l-.27-5.59h1.42Z"/></g><path class="cls-9" d="M45.85,26.75v5.05a2.37,2.37,0,0,1-.66,1.72,2.66,2.66,0,0,1-1.78.75h-.26a2.78,2.78,0,0,1-1.95-.66,2.36,2.36,0,0,1-.74-1.81V26.75h1v5a1.55,1.55,0,0,0,1.71,1.7A1.72,1.72,0,0,0,44.43,33a1.7,1.7,0,0,0,.44-1.25v-5Z"/><path class="cls-9" d="M49.92,29.51a2.86,2.86,0,0,0-.46,0,1.24,1.24,0,0,0-1.26.79v3.92h-.94V28.66h.92l0,.64a1.47,1.47,0,0,1,1.32-.74,1,1,0,0,1,.42.07Z"/><path class="cls-9" d="M50.56,31.38a3.25,3.25,0,0,1,.6-2.05,2.06,2.06,0,0,1,3.16,0l0-.61h.86v5.39a2.25,2.25,0,0,1-.64,1.69,2.35,2.35,0,0,1-1.71.62,2.84,2.84,0,0,1-1.17-.26,2,2,0,0,1-.87-.7l.49-.57a1.85,1.85,0,0,0,1.49.75,1.45,1.45,0,0,0,1.07-.39,1.48,1.48,0,0,0,.39-1.09v-.47a1.94,1.94,0,0,1-1.55.65,1.89,1.89,0,0,1-1.57-.78A3.41,3.41,0,0,1,50.56,31.38Zm.95.11A2.48,2.48,0,0,0,51.9,33a1.24,1.24,0,0,0,1.07.53,1.38,1.38,0,0,0,1.31-.81V30.15a1.4,1.4,0,0,0-1.3-.79,1.26,1.26,0,0,0-1.08.54A2.7,2.7,0,0,0,51.51,31.48Z"/><path class="cls-9" d="M58.95,34.29a2.41,2.41,0,0,1-1.83-.74,2.74,2.74,0,0,1-.7-2V31.4a3.31,3.31,0,0,1,.31-1.47,2.45,2.45,0,0,1,.88-1,2.21,2.21,0,0,1,1.22-.37,2.07,2.07,0,0,1,1.67.71,3.07,3.07,0,0,1,.6,2v.39H57.36A2,2,0,0,0,57.84,33a1.5,1.5,0,0,0,1.16.5,1.65,1.65,0,0,0,.85-.2,2.12,2.12,0,0,0,.61-.54l.58.45A2.32,2.32,0,0,1,58.95,34.29Zm-.12-5a1.26,1.26,0,0,0-1,.42,2,2,0,0,0-.48,1.17h2.77v-.07a1.8,1.8,0,0,0-.39-1.12A1.19,1.19,0,0,0,58.83,29.34Z"/><path class="cls-9" d="M63.09,28.66l0,.69a2,2,0,0,1,1.65-.8q1.75,0,1.77,2v3.65H65.6V30.53a1.27,1.27,0,0,0-.27-.88,1.09,1.09,0,0,0-.83-.29,1.36,1.36,0,0,0-.81.25,1.66,1.66,0,0,0-.54.64v3.94h-.94V28.66Z"/><path class="cls-9" d="M69.25,27.32v1.34h1v.73h-1v3.43a.77.77,0,0,0,.14.5.58.58,0,0,0,.47.17,2.29,2.29,0,0,0,.45-.06v.76a2.75,2.75,0,0,1-.72.1,1.18,1.18,0,0,1-1-.38,1.65,1.65,0,0,1-.32-1.09V29.39h-1v-.73h1V27.32Z"/><path class="cls-9" d="M78.52,31.41H76v-.77h2.49Z"/><path class="cls-9" d="M85.25,32.72a.7.7,0,0,0-.29-.59,2.78,2.78,0,0,0-1-.37,4.76,4.76,0,0,1-1.14-.37,1.62,1.62,0,0,1-.62-.51,1.22,1.22,0,0,1-.2-.7A1.43,1.43,0,0,1,82.56,29,2.24,2.24,0,0,1,84,28.56a2.31,2.31,0,0,1,1.52.49,1.54,1.54,0,0,1,.58,1.24h-.95a.85.85,0,0,0-.33-.67,1.23,1.23,0,0,0-.83-.28,1.29,1.29,0,0,0-.81.22.71.71,0,0,0-.29.59.57.57,0,0,0,.27.52,3.33,3.33,0,0,0,1,.33,5.09,5.09,0,0,1,1.15.38,1.67,1.67,0,0,1,.65.53,1.3,1.3,0,0,1,.21.75,1.41,1.41,0,0,1-.59,1.19,2.48,2.48,0,0,1-1.54.45,2.79,2.79,0,0,1-1.17-.23,1.91,1.91,0,0,1-.8-.66,1.58,1.58,0,0,1-.29-.91h.94a1,1,0,0,0,.38.75,1.47,1.47,0,0,0,.94.28,1.52,1.52,0,0,0,.86-.22A.67.67,0,0,0,85.25,32.72Z"/><path class="cls-9" d="M89.71,34.29a2.41,2.41,0,0,1-1.83-.74,2.74,2.74,0,0,1-.7-2V31.4a3.31,3.31,0,0,1,.31-1.47,2.45,2.45,0,0,1,.88-1,2.21,2.21,0,0,1,1.22-.37,2.07,2.07,0,0,1,1.67.71,3.07,3.07,0,0,1,.6,2v.39H88.13A2,2,0,0,0,88.6,33a1.5,1.5,0,0,0,1.16.5,1.65,1.65,0,0,0,.85-.2,2.12,2.12,0,0,0,.61-.54l.58.45A2.32,2.32,0,0,1,89.71,34.29Zm-.12-5a1.26,1.26,0,0,0-1,.42,2,2,0,0,0-.48,1.17h2.77v-.07a1.8,1.8,0,0,0-.39-1.12A1.19,1.19,0,0,0,89.6,29.34Z"/><path class="cls-9" d="M95.63,29.51a2.86,2.86,0,0,0-.46,0,1.24,1.24,0,0,0-1.26.79v3.92H93V28.66h.92l0,.64a1.47,1.47,0,0,1,1.32-.74,1,1,0,0,1,.42.07Z"/><path class="cls-9" d="M98.41,32.9l1.37-4.24h1l-2,5.52H98l-2-5.52h1Z"/><path class="cls-9" d="M101.66,27.2a.56.56,0,0,1,.14-.39.53.53,0,0,1,.42-.16.54.54,0,0,1,.42.16.56.56,0,0,1,.14.39.56.56,0,1,1-1.12,0Zm1,7h-.94V28.66h.94Z"/><path class="cls-9" d="M106.41,33.52a1.36,1.36,0,0,0,.88-.31,1.08,1.08,0,0,0,.42-.77h.89a1.71,1.71,0,0,1-.33.9,2.16,2.16,0,0,1-.8.68,2.32,2.32,0,0,1-1.06.26,2.27,2.27,0,0,1-1.79-.75,3,3,0,0,1-.67-2.06v-.16a3.33,3.33,0,0,1,.3-1.43,2.25,2.25,0,0,1,.85-1,2.41,2.41,0,0,1,1.31-.35,2.22,2.22,0,0,1,1.54.56,2,2,0,0,1,.66,1.44h-.89a1.3,1.3,0,0,0-.41-.88,1.26,1.26,0,0,0-.9-.34,1.32,1.32,0,0,0-1.12.52,2.43,2.43,0,0,0-.4,1.5v.18a2.38,2.38,0,0,0,.39,1.47A1.33,1.33,0,0,0,106.41,33.52Z"/><path class="cls-9" d="M112,34.29a2.41,2.41,0,0,1-1.83-.74,2.74,2.74,0,0,1-.7-2V31.4a3.31,3.31,0,0,1,.31-1.47,2.45,2.45,0,0,1,.88-1,2.21,2.21,0,0,1,1.22-.37,2.07,2.07,0,0,1,1.67.71,3.07,3.07,0,0,1,.6,2v.39h-3.74a2,2,0,0,0,.48,1.32,1.5,1.5,0,0,0,1.16.5,1.65,1.65,0,0,0,.85-.2,2.12,2.12,0,0,0,.61-.54l.58.45A2.32,2.32,0,0,1,112,34.29Zm-.12-5a1.26,1.26,0,0,0-1,.42,2,2,0,0,0-.48,1.17h2.77v-.07a1.8,1.8,0,0,0-.39-1.12A1.19,1.19,0,0,0,111.84,29.34Z"/><path class="cls-9" d="M117.56,31.38a3.24,3.24,0,0,1,.6-2,2,2,0,0,1,3.11-.11V26.34h.94v7.84h-.87l0-.59a1.92,1.92,0,0,1-1.58.69,1.89,1.89,0,0,1-1.56-.79,3.27,3.27,0,0,1-.61-2.05Zm.94.11A2.45,2.45,0,0,0,118.9,33a1.25,1.25,0,0,0,1.07.53,1.38,1.38,0,0,0,1.31-.81V30.14a1.39,1.39,0,0,0-1.3-.78,1.26,1.26,0,0,0-1.08.54A2.7,2.7,0,0,0,118.51,31.48Z"/><path class="cls-9" d="M123.7,27.2a.56.56,0,0,1,.14-.39.53.53,0,0,1,.42-.16.54.54,0,0,1,.42.16.56.56,0,0,1,.14.39.56.56,0,1,1-1.12,0Zm1,7h-.94V28.66h.94Z"/><path class="cls-9" d="M129.44,32.72a.7.7,0,0,0-.29-.59,2.78,2.78,0,0,0-1-.37,4.76,4.76,0,0,1-1.14-.37,1.62,1.62,0,0,1-.62-.51,1.22,1.22,0,0,1-.2-.7,1.43,1.43,0,0,1,.57-1.15,2.24,2.24,0,0,1,1.47-.47,2.31,2.31,0,0,1,1.52.49,1.54,1.54,0,0,1,.58,1.24h-.95a.85.85,0,0,0-.33-.67,1.23,1.23,0,0,0-.83-.28,1.29,1.29,0,0,0-.81.22.71.71,0,0,0-.29.59.57.57,0,0,0,.27.52,3.33,3.33,0,0,0,1,.33,5.09,5.09,0,0,1,1.15.38,1.67,1.67,0,0,1,.65.53,1.3,1.3,0,0,1,.21.75,1.41,1.41,0,0,1-.59,1.19,2.48,2.48,0,0,1-1.54.45,2.79,2.79,0,0,1-1.17-.23,1.91,1.91,0,0,1-.8-.66,1.58,1.58,0,0,1-.29-.91h.94a1,1,0,0,0,.38.75,1.47,1.47,0,0,0,.94.28,1.52,1.52,0,0,0,.86-.22A.67.67,0,0,0,129.44,32.72Z"/><path class="cls-9" d="M136.29,31.48a3.31,3.31,0,0,1-.58,2,1.85,1.85,0,0,1-1.56.77,2,2,0,0,1-1.58-.64v2.66h-.94V28.66h.86l0,.61a2,2,0,0,1,1.6-.71,1.88,1.88,0,0,1,1.58.75,3.35,3.35,0,0,1,.58,2.09Zm-.94-.11a2.44,2.44,0,0,0-.4-1.48,1.28,1.28,0,0,0-1.09-.54,1.39,1.39,0,0,0-1.29.76v2.64a1.39,1.39,0,0,0,1.3.76,1.28,1.28,0,0,0,1.08-.54A2.66,2.66,0,0,0,135.34,31.38Z"/><path class="cls-9" d="M140.9,33.64a2,2,0,0,1-1.62.65,1.72,1.72,0,0,1-1.35-.51,2.22,2.22,0,0,1-.47-1.52V28.66h.94v3.57q0,1.26,1,1.26a1.41,1.41,0,0,0,1.44-.81v-4h.94v5.52h-.9Z"/><path class="cls-9" d="M145.92,29.51a2.86,2.86,0,0,0-.46,0,1.24,1.24,0,0,0-1.26.79v3.92h-.94V28.66h.92l0,.64a1.47,1.47,0,0,1,1.32-.74,1,1,0,0,1,.42.07Z"/><path class="cls-9" d="M148.32,27.32v1.34h1v.73h-1v3.43a.77.77,0,0,0,.14.5.58.58,0,0,0,.47.17,2.29,2.29,0,0,0,.45-.06v.76a2.75,2.75,0,0,1-.72.1,1.18,1.18,0,0,1-1-.38,1.65,1.65,0,0,1-.32-1.09V29.39h-1v-.73h1V27.32Z"/><path class="cls-9" d="M150.46,27.2a.56.56,0,0,1,.14-.39.53.53,0,0,1,.42-.16.54.54,0,0,1,.42.16.56.56,0,0,1,.14.39.56.56,0,1,1-1.12,0Zm1,7h-.94V28.66h.94Z"/><path class="cls-9" d="M152.75,31.37a3.27,3.27,0,0,1,.32-1.46,2.38,2.38,0,0,1,.89-1,2.42,2.42,0,0,1,1.3-.35,2.33,2.33,0,0,1,1.83.78,3,3,0,0,1,.7,2.08v.07a3.29,3.29,0,0,1-.31,1.45,2.35,2.35,0,0,1-.88,1,2.45,2.45,0,0,1-1.32.36,2.32,2.32,0,0,1-1.82-.78,3,3,0,0,1-.7-2.07Zm.95.11a2.36,2.36,0,0,0,.43,1.48,1.44,1.44,0,0,0,2.28,0,2.58,2.58,0,0,0,.42-1.58,2.36,2.36,0,0,0-.43-1.47,1.37,1.37,0,0,0-1.15-.56,1.36,1.36,0,0,0-1.13.56A2.56,2.56,0,0,0,153.7,31.48Z"/><path class="cls-9" d="M159.85,28.66l0,.69a2,2,0,0,1,1.65-.8q1.75,0,1.77,2v3.65h-.94V30.53a1.27,1.27,0,0,0-.27-.88,1.09,1.09,0,0,0-.83-.29,1.36,1.36,0,0,0-.81.25,1.66,1.66,0,0,0-.54.64v3.94H159V28.66Z"/><path class="cls-9" d="M164.75,33.69a.59.59,0,0,1,.15-.41.55.55,0,0,1,.44-.16.57.57,0,0,1,.44.16.58.58,0,0,1,.15.41.55.55,0,0,1-.15.39.58.58,0,0,1-.44.16.56.56,0,0,1-.44-.16A.56.56,0,0,1,164.75,33.69Z"/><path class="cls-9" d="M174.32,32.24h-3.11l-.7,1.95h-1l2.84-7.43h.86L176,34.19h-1Zm-2.82-.8H174L172.76,28Z"/><path class="cls-9" d="M179.11,33.52a1.36,1.36,0,0,0,.88-.31,1.08,1.08,0,0,0,.42-.77h.89a1.71,1.71,0,0,1-.33.9,2.16,2.16,0,0,1-.8.68,2.32,2.32,0,0,1-1.06.26,2.27,2.27,0,0,1-1.79-.75,3,3,0,0,1-.67-2.06v-.16a3.33,3.33,0,0,1,.3-1.43,2.25,2.25,0,0,1,.85-1,2.41,2.41,0,0,1,1.31-.35,2.22,2.22,0,0,1,1.54.56,2,2,0,0,1,.66,1.44h-.89a1.3,1.3,0,0,0-.41-.88,1.26,1.26,0,0,0-.9-.34,1.32,1.32,0,0,0-1.12.52,2.43,2.43,0,0,0-.4,1.5v.18A2.38,2.38,0,0,0,178,33,1.33,1.33,0,0,0,179.11,33.52Z"/><path class="cls-9" d="M183.64,27.32v1.34h1v.73h-1v3.43a.77.77,0,0,0,.14.5.58.58,0,0,0,.47.17,2.29,2.29,0,0,0,.45-.06v.76a2.75,2.75,0,0,1-.72.1,1.18,1.18,0,0,1-1-.38,1.65,1.65,0,0,1-.32-1.09V29.39h-1v-.73h1V27.32Z"/><path class="cls-9" d="M185.78,27.2a.56.56,0,0,1,.14-.39.53.53,0,0,1,.42-.16.54.54,0,0,1,.42.16.56.56,0,0,1,.14.39.56.56,0,1,1-1.12,0Zm1,7h-.94V28.66h.94Z"/><path class="cls-9" d="M188.07,31.37a3.27,3.27,0,0,1,.32-1.46,2.38,2.38,0,0,1,.89-1,2.42,2.42,0,0,1,1.3-.35,2.33,2.33,0,0,1,1.83.78,3,3,0,0,1,.7,2.08v.07a3.29,3.29,0,0,1-.31,1.45,2.35,2.35,0,0,1-.88,1,2.45,2.45,0,0,1-1.32.36,2.32,2.32,0,0,1-1.82-.78,3,3,0,0,1-.7-2.07Zm.95.11a2.36,2.36,0,0,0,.43,1.48,1.44,1.44,0,0,0,2.28,0,2.58,2.58,0,0,0,.42-1.58,2.36,2.36,0,0,0-.43-1.47,1.37,1.37,0,0,0-1.15-.56,1.36,1.36,0,0,0-1.13.56A2.56,2.56,0,0,0,189,31.48Z"/><path class="cls-9" d="M195.17,28.66l0,.69a2,2,0,0,1,1.65-.8q1.75,0,1.77,2v3.65h-.94V30.53a1.27,1.27,0,0,0-.27-.88,1.09,1.09,0,0,0-.83-.29,1.36,1.36,0,0,0-.81.25,1.66,1.66,0,0,0-.54.64v3.94h-.94V28.66Z"/><path class="cls-9" d="M205.31,29.51a2.86,2.86,0,0,0-.46,0,1.24,1.24,0,0,0-1.26.79v3.92h-.94V28.66h.92l0,.64a1.47,1.47,0,0,1,1.32-.74,1,1,0,0,1,.42.07Z"/><path class="cls-9" d="M208.47,34.29a2.41,2.41,0,0,1-1.83-.74,2.74,2.74,0,0,1-.7-2V31.4a3.31,3.31,0,0,1,.31-1.47,2.45,2.45,0,0,1,.88-1,2.21,2.21,0,0,1,1.22-.37,2.07,2.07,0,0,1,1.67.71,3.07,3.07,0,0,1,.6,2v.39h-3.74a2,2,0,0,0,.48,1.32,1.5,1.5,0,0,0,1.16.5,1.65,1.65,0,0,0,.85-.2,2.12,2.12,0,0,0,.61-.54l.58.45A2.32,2.32,0,0,1,208.47,34.29Zm-.12-5a1.26,1.26,0,0,0-1,.42,2,2,0,0,0-.48,1.17h2.77v-.07a1.8,1.8,0,0,0-.39-1.12A1.19,1.19,0,0,0,208.35,29.34Z"/><path class="cls-9" d="M211.48,31.38a3.24,3.24,0,0,1,.6-2.06,2.11,2.11,0,0,1,3.15-.1l0-.56h.87v7.65h-.94V33.67a2,2,0,0,1-1.52.61,1.91,1.91,0,0,1-1.6-.78,3.32,3.32,0,0,1-.59-2.07Zm.94.11a2.46,2.46,0,0,0,.4,1.49,1.28,1.28,0,0,0,1.08.54,1.41,1.41,0,0,0,1.29-.75V30.07a1.42,1.42,0,0,0-1.28-.73,1.28,1.28,0,0,0-1.09.54A2.68,2.68,0,0,0,212.43,31.48Z"/><path class="cls-9" d="M221.07,33.64a2,2,0,0,1-1.62.65,1.72,1.72,0,0,1-1.35-.51,2.22,2.22,0,0,1-.47-1.52V28.66h.94v3.57q0,1.26,1,1.26a1.41,1.41,0,0,0,1.44-.81v-4H222v5.52h-.9Z"/><path class="cls-9" d="M223.43,27.2a.56.56,0,0,1,.14-.39.53.53,0,0,1,.42-.16.54.54,0,0,1,.42.16.56.56,0,0,1,.14.39.56.56,0,1,1-1.12,0Zm1,7h-.94V28.66h.94Z"/><path class="cls-9" d="M228.63,29.51a2.86,2.86,0,0,0-.46,0,1.24,1.24,0,0,0-1.26.79v3.92H226V28.66h.92l0,.64a1.47,1.47,0,0,1,1.32-.74,1,1,0,0,1,.42.07Z"/><path class="cls-9" d="M231.79,34.29a2.41,2.41,0,0,1-1.83-.74,2.74,2.74,0,0,1-.7-2V31.4a3.31,3.31,0,0,1,.31-1.47,2.45,2.45,0,0,1,.88-1,2.21,2.21,0,0,1,1.22-.37,2.07,2.07,0,0,1,1.67.71,3.07,3.07,0,0,1,.6,2v.39H230.2a2,2,0,0,0,.48,1.32,1.5,1.5,0,0,0,1.16.5,1.65,1.65,0,0,0,.85-.2,2.12,2.12,0,0,0,.61-.54l.58.45A2.32,2.32,0,0,1,231.79,34.29Zm-.12-5a1.26,1.26,0,0,0-1,.42,2,2,0,0,0-.48,1.17H233v-.07a1.8,1.8,0,0,0-.39-1.12A1.19,1.19,0,0,0,231.67,29.34Z"/><path class="cls-9" d="M234.81,31.38a3.24,3.24,0,0,1,.6-2,2,2,0,0,1,3.11-.11V26.34h.94v7.84h-.87l0-.59a1.92,1.92,0,0,1-1.58.69,1.89,1.89,0,0,1-1.56-.79,3.27,3.27,0,0,1-.61-2.05Zm.94.11a2.45,2.45,0,0,0,.39,1.47,1.25,1.25,0,0,0,1.07.53,1.38,1.38,0,0,0,1.31-.81V30.14a1.39,1.39,0,0,0-1.3-.78,1.26,1.26,0,0,0-1.08.54A2.7,2.7,0,0,0,235.75,31.48Z"/><path class="cls-9" d="M244.8,27.32v1.34h1v.73h-1v3.43a.77.77,0,0,0,.14.5.58.58,0,0,0,.47.17,2.29,2.29,0,0,0,.45-.06v.76a2.75,2.75,0,0,1-.72.1,1.18,1.18,0,0,1-1-.38,1.65,1.65,0,0,1-.32-1.09V29.39h-1v-.73h1V27.32Z"/><path class="cls-9" d="M246.58,31.37a3.27,3.27,0,0,1,.32-1.46,2.38,2.38,0,0,1,.89-1,2.42,2.42,0,0,1,1.3-.35,2.33,2.33,0,0,1,1.83.78,3,3,0,0,1,.7,2.08v.07a3.29,3.29,0,0,1-.31,1.45,2.35,2.35,0,0,1-.88,1,2.45,2.45,0,0,1-1.32.36,2.32,2.32,0,0,1-1.82-.78,3,3,0,0,1-.7-2.07Zm.95.11A2.36,2.36,0,0,0,248,33a1.44,1.44,0,0,0,2.28,0,2.58,2.58,0,0,0,.42-1.58,2.36,2.36,0,0,0-.43-1.47,1.37,1.37,0,0,0-1.15-.56,1.36,1.36,0,0,0-1.13.56A2.56,2.56,0,0,0,247.53,31.48Z"/><path class="cls-9" d="M258.06,29.51a2.86,2.86,0,0,0-.46,0,1.24,1.24,0,0,0-1.26.79v3.92h-.94V28.66h.92l0,.64a1.47,1.47,0,0,1,1.32-.74,1,1,0,0,1,.42.07Z"/><path class="cls-9" d="M261.22,34.29a2.41,2.41,0,0,1-1.83-.74,2.74,2.74,0,0,1-.7-2V31.4a3.31,3.31,0,0,1,.31-1.47,2.45,2.45,0,0,1,.88-1,2.21,2.21,0,0,1,1.22-.37,2.07,2.07,0,0,1,1.67.71,3.07,3.07,0,0,1,.6,2v.39h-3.74a2,2,0,0,0,.48,1.32,1.5,1.5,0,0,0,1.16.5,1.65,1.65,0,0,0,.85-.2,2.12,2.12,0,0,0,.61-.54l.58.45A2.32,2.32,0,0,1,261.22,34.29Zm-.12-5a1.26,1.26,0,0,0-1,.42,2,2,0,0,0-.48,1.17h2.77v-.07a1.8,1.8,0,0,0-.39-1.12A1.19,1.19,0,0,0,261.1,29.34Z"/><path class="cls-9" d="M267.68,32.72a.7.7,0,0,0-.29-.59,2.78,2.78,0,0,0-1-.37,4.76,4.76,0,0,1-1.14-.37,1.62,1.62,0,0,1-.62-.51,1.22,1.22,0,0,1-.2-.7A1.43,1.43,0,0,1,265,29a2.24,2.24,0,0,1,1.47-.47A2.31,2.31,0,0,1,268,29a1.54,1.54,0,0,1,.58,1.24h-.95a.85.85,0,0,0-.33-.67,1.23,1.23,0,0,0-.83-.28,1.29,1.29,0,0,0-.81.22.71.71,0,0,0-.29.59.57.57,0,0,0,.27.52,3.33,3.33,0,0,0,1,.33,5.09,5.09,0,0,1,1.15.38,1.67,1.67,0,0,1,.65.53,1.3,1.3,0,0,1,.21.75,1.41,1.41,0,0,1-.59,1.19,2.48,2.48,0,0,1-1.54.45,2.79,2.79,0,0,1-1.17-.23,1.91,1.91,0,0,1-.8-.66,1.58,1.58,0,0,1-.29-.91h.94a1,1,0,0,0,.38.75,1.47,1.47,0,0,0,.94.28,1.52,1.52,0,0,0,.86-.22A.67.67,0,0,0,267.68,32.72Z"/><path class="cls-9" d="M269.61,31.37a3.27,3.27,0,0,1,.32-1.46,2.38,2.38,0,0,1,.89-1,2.42,2.42,0,0,1,1.3-.35,2.33,2.33,0,0,1,1.83.78,3,3,0,0,1,.7,2.08v.07a3.29,3.29,0,0,1-.31,1.45,2.35,2.35,0,0,1-.88,1,2.45,2.45,0,0,1-1.32.36,2.32,2.32,0,0,1-1.82-.78,3,3,0,0,1-.7-2.07Zm.95.11A2.36,2.36,0,0,0,271,33a1.44,1.44,0,0,0,2.28,0,2.58,2.58,0,0,0,.42-1.58,2.36,2.36,0,0,0-.43-1.47,1.37,1.37,0,0,0-1.15-.56,1.36,1.36,0,0,0-1.13.56A2.56,2.56,0,0,0,270.56,31.48Z"/><path class="cls-9" d="M276.85,34.19h-.94V26.34h.94Z"/><path class="cls-9" d="M280.18,32.9l1.37-4.24h1l-2,5.52h-.72l-2-5.52h1Z"/><path class="cls-9" d="M285.71,34.29a2.41,2.41,0,0,1-1.83-.74,2.74,2.74,0,0,1-.7-2V31.4a3.31,3.31,0,0,1,.31-1.47,2.45,2.45,0,0,1,.88-1,2.21,2.21,0,0,1,1.22-.37,2.07,2.07,0,0,1,1.67.71,3.07,3.07,0,0,1,.6,2v.39h-3.74A2,2,0,0,0,284.6,33a1.5,1.5,0,0,0,1.16.5,1.65,1.65,0,0,0,.85-.2,2.12,2.12,0,0,0,.61-.54l.58.45A2.32,2.32,0,0,1,285.71,34.29Zm-.12-5a1.26,1.26,0,0,0-1,.42,2,2,0,0,0-.48,1.17h2.77v-.07a1.8,1.8,0,0,0-.39-1.12A1.19,1.19,0,0,0,285.6,29.34Z"/><path class="cls-9" d="M289,33.69a.59.59,0,0,1,.15-.41.55.55,0,0,1,.44-.16.57.57,0,0,1,.44.16.58.58,0,0,1,.15.41.55.55,0,0,1-.15.39.58.58,0,0,1-.44.16.56.56,0,0,1-.44-.16A.56.56,0,0,1,289,33.69Z"/><path class="cls-2" d="M299.55,32.57l1.89-5.82h1.42l-2.68,7.43h-1.25l-2.67-7.43h1.41Z"/><path class="cls-2" d="M305.06,34.19h-1.29V26.75h1.29Z"/><path class="cls-2" d="M311,30.87h-3.05v2.29h3.57v1h-4.86V26.75h4.82v1h-3.53v2.05H311Z"/><path class="cls-2" d="M318.39,32.35l1.14-5.6h1.28l-1.72,7.43h-1.24l-1.41-5.43L315,34.19h-1.24L312,26.75h1.28l1.15,5.59,1.42-5.59H317Z"/><path class="cls-2" d="M325.73,34.19h-1.29V26.75h1.29Z"/><path class="cls-2" d="M333.21,34.19h-1.29l-3.31-5.27v5.27h-1.29V26.75h1.29L331.93,32V26.75h1.28Z"/><path class="cls-2" d="M340.41,31.77a2.68,2.68,0,0,1-.88,1.86,3,3,0,0,1-2,.67,2.9,2.9,0,0,1-1.56-.42,2.76,2.76,0,0,1-1-1.2,4.32,4.32,0,0,1-.38-1.8v-.69a4.35,4.35,0,0,1,.37-1.85,2.81,2.81,0,0,1,1.07-1.24,3,3,0,0,1,1.61-.43,2.87,2.87,0,0,1,2,.67,2.78,2.78,0,0,1,.87,1.89h-1.29a1.84,1.84,0,0,0-.47-1.16,1.54,1.54,0,0,0-1.1-.35,1.51,1.51,0,0,0-1.29.62,3.08,3.08,0,0,0-.46,1.81v.66a3.26,3.26,0,0,0,.43,1.84,1.43,1.43,0,0,0,1.26.63,1.67,1.67,0,0,0,1.14-.34,1.78,1.78,0,0,0,.49-1.14Z"/><path class="cls-2" d="M342.93,34.19h-1.29V26.75h1.29Z"/><path class="cls-2" d="M344.51,34.19V26.75h2.2a3.44,3.44,0,0,1,1.75.44,3,3,0,0,1,1.18,1.25,4,4,0,0,1,.42,1.85v.37a3.94,3.94,0,0,1-.42,1.86,3,3,0,0,1-1.2,1.24,3.6,3.6,0,0,1-1.78.43Zm1.29-6.39v5.36h.84a1.94,1.94,0,0,0,1.56-.64,2.77,2.77,0,0,0,.55-1.83v-.41a2.84,2.84,0,0,0-.53-1.85,1.86,1.86,0,0,0-1.53-.64Z"/><path class="cls-2" d="M355.69,30.87h-3.05v2.29h3.57v1h-4.86V26.75h4.82v1h-3.53v2.05h3.05Z"/><path class="cls-2" d="M363.15,34.19h-1.29l-3.31-5.27v5.27h-1.29V26.75h1.29L361.87,32V26.75h1.28Z"/><path class="cls-2" d="M370.05,27.79h-2.32v6.39h-1.28V27.79h-2.3v-1h5.9Z"/><path class="cls-2" d="M373.32,34.19V26.75h2.2a3.44,3.44,0,0,1,1.75.44,3,3,0,0,1,1.18,1.25,4,4,0,0,1,.42,1.85v.37a3.94,3.94,0,0,1-.42,1.86,3,3,0,0,1-1.2,1.24,3.6,3.6,0,0,1-1.78.43Zm1.29-6.39v5.36h.84a1.94,1.94,0,0,0,1.56-.64,2.77,2.77,0,0,0,.55-1.83v-.41a2.84,2.84,0,0,0-.53-1.85,1.86,1.86,0,0,0-1.53-.64Z"/><path class="cls-2" d="M384.5,30.87h-3.05v2.29H385v1h-4.86V26.75H385v1h-3.53v2.05h3.05Z"/><path class="cls-2" d="M390.23,32.45h-2.88l-.6,1.73H385.4l2.81-7.43h1.16l2.81,7.43h-1.35Zm-2.52-1h2.15l-1.08-3.08Z"/><path class="cls-2" d="M397.78,27.79h-2.32v6.39h-1.28V27.79h-2.3v-1h5.9Z"/><path class="cls-2" d="M400.12,34.19h-1.29V26.75h1.29Z"/><path class="cls-2" d="M403,33.15h3.37v1h-4.67V26.75H403Z"/><path class="cls-2" d="M411.25,32.27a.9.9,0,0,0-.34-.76,4.15,4.15,0,0,0-1.24-.54,6,6,0,0,1-1.43-.6,1.91,1.91,0,0,1-1-1.66,1.81,1.81,0,0,1,.73-1.48,3,3,0,0,1,1.9-.58,3.21,3.21,0,0,1,1.38.29,2.27,2.27,0,0,1,1,.81,2.09,2.09,0,0,1,.35,1.17h-1.29a1.17,1.17,0,0,0-.37-.91,1.51,1.51,0,0,0-1-.33,1.57,1.57,0,0,0-1,.27.9.9,0,0,0-.35.76.81.81,0,0,0,.38.68,4.35,4.35,0,0,0,1.25.53,5.71,5.71,0,0,1,1.39.59,2.22,2.22,0,0,1,.77.76,2,2,0,0,1,.25,1,1.77,1.77,0,0,1-.71,1.48,3.09,3.09,0,0,1-1.93.55,3.63,3.63,0,0,1-1.48-.3,2.49,2.49,0,0,1-1.05-.82,2.05,2.05,0,0,1-.38-1.23h1.29a1.2,1.2,0,0,0,.42,1,1.83,1.83,0,0,0,1.2.35,1.59,1.59,0,0,0,1-.27A.88.88,0,0,0,411.25,32.27Z"/><rect class="cls-10" x="0.59" y="137.93" width="494.55" height="30.42"/><rect class="cls-11" x="0.68" y="137.93" width="30.42" height="30.42"/><path class="cls-12" d="M44.74,150.24H42.35v6.63h-1v-6.63H39v-.8h5.75Z"/><path class="cls-12" d="M46.64,152a2,2,0,0,1,1.63-.77q1.75,0,1.77,2v3.65H49.1v-3.66a1.27,1.27,0,0,0-.27-.88A1.09,1.09,0,0,0,48,152a1.36,1.36,0,0,0-.81.25,1.66,1.66,0,0,0-.54.64v3.94H45.7V149h.94Z"/><path class="cls-12" d="M51.46,149.88a.56.56,0,0,1,.14-.39.53.53,0,0,1,.42-.16.54.54,0,0,1,.42.16.56.56,0,0,1,.14.39.56.56,0,1,1-1.12,0Zm1,7h-.94v-5.52h.94Z"/><path class="cls-12" d="M57.21,155.4a.7.7,0,0,0-.29-.59,2.78,2.78,0,0,0-1-.37,4.76,4.76,0,0,1-1.14-.37,1.62,1.62,0,0,1-.62-.51,1.22,1.22,0,0,1-.2-.7,1.43,1.43,0,0,1,.57-1.15,2.24,2.24,0,0,1,1.47-.47,2.31,2.31,0,0,1,1.52.49A1.54,1.54,0,0,1,58.1,153h-.95a.85.85,0,0,0-.33-.67A1.23,1.23,0,0,0,56,152a1.29,1.29,0,0,0-.81.22.71.71,0,0,0-.29.59.57.57,0,0,0,.27.52,3.33,3.33,0,0,0,1,.33,5.09,5.09,0,0,1,1.15.38,1.67,1.67,0,0,1,.65.53,1.3,1.3,0,0,1,.21.75,1.41,1.41,0,0,1-.59,1.19A2.48,2.48,0,0,1,56,157a2.79,2.79,0,0,1-1.17-.23,1.91,1.91,0,0,1-.8-.66,1.58,1.58,0,0,1-.29-.91h.94a1,1,0,0,0,.38.75,1.47,1.47,0,0,0,.94.28,1.52,1.52,0,0,0,.86-.22A.67.67,0,0,0,57.21,155.4Z"/><path class="cls-12" d="M63.25,150v1.34h1v.73h-1v3.43a.77.77,0,0,0,.14.5.58.58,0,0,0,.47.17,2.29,2.29,0,0,0,.45-.06v.76a2.75,2.75,0,0,1-.72.1,1.18,1.18,0,0,1-1-.38,1.65,1.65,0,0,1-.32-1.09v-3.43h-1v-.73h1V150Z"/><path class="cls-12" d="M65.39,149.88a.56.56,0,0,1,.14-.39.53.53,0,0,1,.42-.16.54.54,0,0,1,.42.16.56.56,0,0,1,.14.39.56.56,0,1,1-1.12,0Zm1,7h-.94v-5.52h.94Z"/><path class="cls-12" d="M70.14,156.2a1.36,1.36,0,0,0,.88-.31,1.08,1.08,0,0,0,.42-.77h.89a1.71,1.71,0,0,1-.33.9,2.16,2.16,0,0,1-.8.68,2.32,2.32,0,0,1-1.06.26,2.27,2.27,0,0,1-1.79-.75,3,3,0,0,1-.67-2.06V154a3.33,3.33,0,0,1,.3-1.43,2.25,2.25,0,0,1,.85-1,2.41,2.41,0,0,1,1.31-.35,2.22,2.22,0,0,1,1.54.56,2,2,0,0,1,.66,1.44h-.89a1.3,1.3,0,0,0-.41-.88,1.26,1.26,0,0,0-.9-.34,1.32,1.32,0,0,0-1.12.52,2.43,2.43,0,0,0-.4,1.5v.18a2.38,2.38,0,0,0,.39,1.47A1.33,1.33,0,0,0,70.14,156.2Z"/><path class="cls-12" d="M74.94,154.31l-.59.62v1.94H73.4V149h.94v4.74l.51-.61,1.72-1.82h1.15l-2.15,2.31,2.4,3.22H76.87Z"/><path class="cls-12" d="M81,157a2.41,2.41,0,0,1-1.83-.74,2.74,2.74,0,0,1-.7-2v-.17a3.31,3.31,0,0,1,.31-1.47,2.45,2.45,0,0,1,.88-1,2.21,2.21,0,0,1,1.22-.37,2.07,2.07,0,0,1,1.67.71,3.07,3.07,0,0,1,.6,2v.39H79.4a2,2,0,0,0,.48,1.32,1.5,1.5,0,0,0,1.16.5,1.65,1.65,0,0,0,.85-.2,2.12,2.12,0,0,0,.61-.54l.58.45A2.32,2.32,0,0,1,81,157Zm-.12-5a1.26,1.26,0,0,0-1,.42,2,2,0,0,0-.48,1.17H82.2v-.07a1.8,1.8,0,0,0-.39-1.12A1.19,1.19,0,0,0,80.87,152Z"/><path class="cls-12" d="M85.52,150v1.34h1v.73h-1v3.43a.77.77,0,0,0,.14.5.58.58,0,0,0,.47.17,2.29,2.29,0,0,0,.45-.06v.76a2.75,2.75,0,0,1-.72.1,1.18,1.18,0,0,1-1-.38,1.65,1.65,0,0,1-.32-1.09v-3.43h-1v-.73h1V150Z"/><path class="cls-12" d="M92.91,152.19a2.86,2.86,0,0,0-.46,0,1.24,1.24,0,0,0-1.26.79v3.92h-.94v-5.52h.92l0,.64a1.47,1.47,0,0,1,1.32-.74,1,1,0,0,1,.42.07Z"/><path class="cls-12" d="M96.07,157a2.41,2.41,0,0,1-1.83-.74,2.74,2.74,0,0,1-.7-2v-.17a3.31,3.31,0,0,1,.31-1.47,2.45,2.45,0,0,1,.88-1,2.21,2.21,0,0,1,1.22-.37,2.07,2.07,0,0,1,1.67.71,3.07,3.07,0,0,1,.6,2v.39H94.48A2,2,0,0,0,95,155.7a1.5,1.5,0,0,0,1.16.5A1.65,1.65,0,0,0,97,156a2.12,2.12,0,0,0,.61-.54l.58.45A2.32,2.32,0,0,1,96.07,157ZM96,152a1.26,1.26,0,0,0-1,.42,2,2,0,0,0-.48,1.17h2.77v-.07a1.8,1.8,0,0,0-.39-1.12A1.19,1.19,0,0,0,96,152Z"/><path class="cls-12" d="M99.09,154.06a3.24,3.24,0,0,1,.6-2.06,2.11,2.11,0,0,1,3.15-.1l0-.56h.87V159h-.94v-2.63a2,2,0,0,1-1.52.61,1.91,1.91,0,0,1-1.6-.78,3.32,3.32,0,0,1-.59-2.07Zm.94.11a2.46,2.46,0,0,0,.4,1.49,1.28,1.28,0,0,0,1.08.54,1.41,1.41,0,0,0,1.29-.75v-2.71a1.42,1.42,0,0,0-1.28-.73,1.28,1.28,0,0,0-1.09.54A2.68,2.68,0,0,0,100,154.17Z"/><path class="cls-12" d="M108.67,156.32a2,2,0,0,1-1.62.65,1.72,1.72,0,0,1-1.35-.51,2.22,2.22,0,0,1-.47-1.52v-3.59h.94v3.57q0,1.26,1,1.26a1.41,1.41,0,0,0,1.44-.81v-4h.94v5.52h-.9Z"/><path class="cls-12" d="M111,149.88a.56.56,0,0,1,.14-.39.53.53,0,0,1,.42-.16.54.54,0,0,1,.42.16.56.56,0,0,1,.14.39.56.56,0,1,1-1.12,0Zm1,7h-.94v-5.52h.94Z"/><path class="cls-12" d="M116.23,152.19a2.86,2.86,0,0,0-.46,0,1.24,1.24,0,0,0-1.26.79v3.92h-.94v-5.52h.92l0,.64a1.47,1.47,0,0,1,1.32-.74,1,1,0,0,1,.42.07Z"/><path class="cls-12" d="M119.39,157a2.41,2.41,0,0,1-1.83-.74,2.74,2.74,0,0,1-.7-2v-.17a3.31,3.31,0,0,1,.31-1.47,2.45,2.45,0,0,1,.88-1,2.21,2.21,0,0,1,1.22-.37A2.07,2.07,0,0,1,121,152a3.07,3.07,0,0,1,.6,2v.39h-3.74a2,2,0,0,0,.48,1.32,1.5,1.5,0,0,0,1.16.5,1.65,1.65,0,0,0,.85-.2,2.12,2.12,0,0,0,.61-.54l.58.45A2.32,2.32,0,0,1,119.39,157Zm-.12-5a1.26,1.26,0,0,0-1,.42,2,2,0,0,0-.48,1.17h2.77v-.07a1.8,1.8,0,0,0-.39-1.12A1.19,1.19,0,0,0,119.28,152Z"/><path class="cls-12" d="M125.86,155.4a.7.7,0,0,0-.29-.59,2.78,2.78,0,0,0-1-.37,4.76,4.76,0,0,1-1.14-.37,1.62,1.62,0,0,1-.62-.51,1.22,1.22,0,0,1-.2-.7,1.43,1.43,0,0,1,.57-1.15,2.24,2.24,0,0,1,1.47-.47,2.31,2.31,0,0,1,1.52.49,1.54,1.54,0,0,1,.58,1.24h-.95a.85.85,0,0,0-.33-.67,1.23,1.23,0,0,0-.83-.28,1.29,1.29,0,0,0-.81.22.71.71,0,0,0-.29.59.57.57,0,0,0,.27.52,3.33,3.33,0,0,0,1,.33,5.09,5.09,0,0,1,1.15.38,1.67,1.67,0,0,1,.65.53,1.3,1.3,0,0,1,.21.75,1.41,1.41,0,0,1-.59,1.19,2.48,2.48,0,0,1-1.54.45,2.79,2.79,0,0,1-1.17-.23,1.91,1.91,0,0,1-.8-.66,1.58,1.58,0,0,1-.29-.91h.94a1,1,0,0,0,.38.75,1.47,1.47,0,0,0,.94.28,1.52,1.52,0,0,0,.86-.22A.67.67,0,0,0,125.86,155.4Z"/><path class="cls-12" d="M134,156.87a2,2,0,0,1-.13-.58,2.11,2.11,0,0,1-1.57.68,2,2,0,0,1-1.34-.46,1.49,1.49,0,0,1-.52-1.17,1.56,1.56,0,0,1,.66-1.34,3.09,3.09,0,0,1,1.85-.48h.92v-.43a1.06,1.06,0,0,0-.3-.79,1.19,1.19,0,0,0-.87-.29,1.38,1.38,0,0,0-.85.26.75.75,0,0,0-.34.62h-.95a1.3,1.3,0,0,1,.29-.8,2,2,0,0,1,.8-.61,2.68,2.68,0,0,1,1.11-.22,2.18,2.18,0,0,1,1.5.48,1.72,1.72,0,0,1,.56,1.31v2.54a3.1,3.1,0,0,0,.19,1.21v.08Zm-1.57-.72a1.66,1.66,0,0,0,.84-.23,1.39,1.39,0,0,0,.58-.6v-1.13h-.74q-1.74,0-1.74,1a.86.86,0,0,0,.3.69A1.14,1.14,0,0,0,132.46,156.15Z"/><path class="cls-12" d="M141.57,152.19a2.86,2.86,0,0,0-.46,0,1.24,1.24,0,0,0-1.26.79v3.92h-.94v-5.52h.92l0,.64a1.47,1.47,0,0,1,1.32-.74,1,1,0,0,1,.42.07Z"/><path class="cls-12" d="M144.73,157a2.41,2.41,0,0,1-1.83-.74,2.74,2.74,0,0,1-.7-2v-.17a3.31,3.31,0,0,1,.31-1.47,2.45,2.45,0,0,1,.88-1,2.21,2.21,0,0,1,1.22-.37,2.07,2.07,0,0,1,1.67.71,3.07,3.07,0,0,1,.6,2v.39h-3.74a2,2,0,0,0,.48,1.32,1.5,1.5,0,0,0,1.16.5,1.65,1.65,0,0,0,.85-.2,2.12,2.12,0,0,0,.61-.54l.58.45A2.32,2.32,0,0,1,144.73,157Zm-.12-5a1.26,1.26,0,0,0-1,.42,2,2,0,0,0-.48,1.17h2.77v-.07a1.8,1.8,0,0,0-.39-1.12A1.19,1.19,0,0,0,144.61,152Z"/><path class="cls-12" d="M151.19,155.4a.7.7,0,0,0-.29-.59,2.78,2.78,0,0,0-1-.37,4.76,4.76,0,0,1-1.14-.37,1.62,1.62,0,0,1-.62-.51,1.22,1.22,0,0,1-.2-.7,1.43,1.43,0,0,1,.57-1.15,2.24,2.24,0,0,1,1.47-.47,2.31,2.31,0,0,1,1.52.49,1.54,1.54,0,0,1,.58,1.24h-.95a.85.85,0,0,0-.33-.67A1.23,1.23,0,0,0,150,152a1.29,1.29,0,0,0-.81.22.71.71,0,0,0-.29.59.57.57,0,0,0,.27.52,3.33,3.33,0,0,0,1,.33,5.09,5.09,0,0,1,1.15.38,1.67,1.67,0,0,1,.65.53,1.3,1.3,0,0,1,.21.75,1.41,1.41,0,0,1-.59,1.19A2.48,2.48,0,0,1,150,157a2.79,2.79,0,0,1-1.17-.23,1.91,1.91,0,0,1-.8-.66,1.58,1.58,0,0,1-.29-.91h.94a1,1,0,0,0,.38.75,1.47,1.47,0,0,0,.94.28,1.52,1.52,0,0,0,.86-.22A.67.67,0,0,0,151.19,155.4Z"/><path class="cls-12" d="M158,154.17a3.31,3.31,0,0,1-.58,2,1.85,1.85,0,0,1-1.56.77,2,2,0,0,1-1.58-.64V159h-.94v-7.65h.86l0,.61a2,2,0,0,1,1.6-.71,1.88,1.88,0,0,1,1.58.75,3.35,3.35,0,0,1,.58,2.09Zm-.94-.11a2.44,2.44,0,0,0-.4-1.48,1.28,1.28,0,0,0-1.09-.54,1.39,1.39,0,0,0-1.29.76v2.64a1.39,1.39,0,0,0,1.3.76,1.28,1.28,0,0,0,1.08-.54A2.66,2.66,0,0,0,157.09,154.06Z"/><path class="cls-12" d="M159,154.06a3.27,3.27,0,0,1,.32-1.46,2.38,2.38,0,0,1,.89-1,2.42,2.42,0,0,1,1.3-.35,2.33,2.33,0,0,1,1.83.78,3,3,0,0,1,.7,2.08v.07a3.29,3.29,0,0,1-.31,1.45,2.35,2.35,0,0,1-.88,1,2.45,2.45,0,0,1-1.32.36,2.32,2.32,0,0,1-1.82-.78,3,3,0,0,1-.7-2.07Zm.95.11a2.36,2.36,0,0,0,.43,1.48,1.44,1.44,0,0,0,2.28,0,2.58,2.58,0,0,0,.42-1.58,2.36,2.36,0,0,0-.43-1.47,1.37,1.37,0,0,0-1.15-.56,1.36,1.36,0,0,0-1.13.56A2.56,2.56,0,0,0,159.93,154.17Z"/><path class="cls-12" d="M166.09,151.34l0,.69a2,2,0,0,1,1.65-.8q1.75,0,1.77,2v3.65h-.94v-3.66a1.27,1.27,0,0,0-.27-.88,1.09,1.09,0,0,0-.83-.29,1.36,1.36,0,0,0-.81.25,1.66,1.66,0,0,0-.54.64v3.94h-.94v-5.52Z"/><path class="cls-12" d="M174.18,155.4a.7.7,0,0,0-.29-.59,2.78,2.78,0,0,0-1-.37,4.76,4.76,0,0,1-1.14-.37,1.62,1.62,0,0,1-.62-.51,1.22,1.22,0,0,1-.2-.7,1.43,1.43,0,0,1,.57-1.15,2.24,2.24,0,0,1,1.47-.47,2.31,2.31,0,0,1,1.52.49,1.54,1.54,0,0,1,.58,1.24h-.95a.85.85,0,0,0-.33-.67A1.23,1.23,0,0,0,173,152a1.29,1.29,0,0,0-.81.22.71.71,0,0,0-.29.59.57.57,0,0,0,.27.52,3.33,3.33,0,0,0,1,.33,5.09,5.09,0,0,1,1.15.38,1.67,1.67,0,0,1,.65.53,1.3,1.3,0,0,1,.21.75,1.41,1.41,0,0,1-.59,1.19A2.48,2.48,0,0,1,173,157a2.79,2.79,0,0,1-1.17-.23,1.91,1.91,0,0,1-.8-.66,1.58,1.58,0,0,1-.29-.91h.94a1,1,0,0,0,.38.75,1.47,1.47,0,0,0,.94.28,1.52,1.52,0,0,0,.86-.22A.67.67,0,0,0,174.18,155.4Z"/><path class="cls-12" d="M178.65,157a2.41,2.41,0,0,1-1.83-.74,2.74,2.74,0,0,1-.7-2v-.17a3.31,3.31,0,0,1,.31-1.47,2.45,2.45,0,0,1,.88-1,2.21,2.21,0,0,1,1.22-.37,2.07,2.07,0,0,1,1.67.71,3.07,3.07,0,0,1,.6,2v.39h-3.74a2,2,0,0,0,.48,1.32,1.5,1.5,0,0,0,1.16.5,1.65,1.65,0,0,0,.85-.2,2.12,2.12,0,0,0,.61-.54l.58.45A2.32,2.32,0,0,1,178.65,157Zm-.12-5a1.26,1.26,0,0,0-1,.42,2,2,0,0,0-.48,1.17h2.77v-.07a1.8,1.8,0,0,0-.39-1.12A1.19,1.19,0,0,0,178.53,152Z"/><path class="cls-12" d="M184.95,156.87v-4.79h-.87v-.73h.87v-.57a1.88,1.88,0,0,1,.47-1.37,1.79,1.79,0,0,1,1.34-.49,2.5,2.5,0,0,1,.65.09l-.05.76a2.71,2.71,0,0,0-.51,0,.92.92,0,0,0-.71.27,1.09,1.09,0,0,0-.25.77v.58h1.18v.73h-1.18v4.79Z"/><path class="cls-12" d="M190.78,152.19a2.86,2.86,0,0,0-.46,0,1.24,1.24,0,0,0-1.26.79v3.92h-.94v-5.52H189l0,.64a1.47,1.47,0,0,1,1.32-.74,1,1,0,0,1,.42.07Z"/><path class="cls-12" d="M191.3,154.06a3.27,3.27,0,0,1,.32-1.46,2.38,2.38,0,0,1,.89-1,2.42,2.42,0,0,1,1.3-.35,2.33,2.33,0,0,1,1.83.78,3,3,0,0,1,.7,2.08v.07a3.29,3.29,0,0,1-.31,1.45,2.35,2.35,0,0,1-.88,1,2.45,2.45,0,0,1-1.32.36,2.32,2.32,0,0,1-1.82-.78,3,3,0,0,1-.7-2.07Zm.95.11a2.36,2.36,0,0,0,.43,1.48,1.44,1.44,0,0,0,2.28,0,2.58,2.58,0,0,0,.42-1.58,2.36,2.36,0,0,0-.43-1.47,1.37,1.37,0,0,0-1.15-.56,1.36,1.36,0,0,0-1.13.56A2.56,2.56,0,0,0,192.25,154.17Z"/><path class="cls-12" d="M198.4,151.34l0,.61a2,2,0,0,1,1.64-.71,1.58,1.58,0,0,1,1.58.89,2.09,2.09,0,0,1,.72-.64,2.12,2.12,0,0,1,1-.25q1.82,0,1.85,1.92v3.7h-.94v-3.65a1.27,1.27,0,0,0-.27-.89,1.19,1.19,0,0,0-.91-.29,1.25,1.25,0,0,0-.87.31,1.27,1.27,0,0,0-.4.84v3.67h-.95v-3.62a1.05,1.05,0,0,0-1.18-1.2,1.26,1.26,0,0,0-1.27.79v4h-.94v-5.52Z"/><path class="cls-12" d="M211.07,155.48l1.29-4.14h1l-2.22,6.38q-.52,1.38-1.64,1.38l-.18,0L209,159v-.77l.26,0a1.26,1.26,0,0,0,.75-.19,1.4,1.4,0,0,0,.44-.71l.21-.56-2-5.46h1Z"/><path class="cls-12" d="M214,154.06a3.27,3.27,0,0,1,.32-1.46,2.38,2.38,0,0,1,.89-1,2.42,2.42,0,0,1,1.3-.35,2.33,2.33,0,0,1,1.83.78,3,3,0,0,1,.7,2.08v.07a3.29,3.29,0,0,1-.31,1.45,2.35,2.35,0,0,1-.88,1,2.45,2.45,0,0,1-1.32.36,2.32,2.32,0,0,1-1.82-.78,3,3,0,0,1-.7-2.07Zm.95.11a2.36,2.36,0,0,0,.43,1.48,1.44,1.44,0,0,0,2.28,0,2.58,2.58,0,0,0,.42-1.58,2.36,2.36,0,0,0-.43-1.47,1.37,1.37,0,0,0-1.15-.56,1.36,1.36,0,0,0-1.13.56A2.56,2.56,0,0,0,214.91,154.17Z"/><path class="cls-12" d="M223.59,156.32A2,2,0,0,1,222,157a1.72,1.72,0,0,1-1.35-.51,2.22,2.22,0,0,1-.47-1.52v-3.59h.94v3.57q0,1.26,1,1.26a1.41,1.41,0,0,0,1.44-.81v-4h.94v5.52h-.9Z"/><path class="cls-12" d="M229.81,150v1.34h1v.73h-1v3.43a.77.77,0,0,0,.14.5.58.58,0,0,0,.47.17,2.29,2.29,0,0,0,.45-.06v.76a2.75,2.75,0,0,1-.72.1,1.18,1.18,0,0,1-1-.38,1.65,1.65,0,0,1-.32-1.09v-3.43h-1v-.73h1V150Z"/><path class="cls-12" d="M231.59,154.06a3.27,3.27,0,0,1,.32-1.46,2.38,2.38,0,0,1,.89-1,2.42,2.42,0,0,1,1.3-.35,2.33,2.33,0,0,1,1.83.78,3,3,0,0,1,.7,2.08v.07a3.29,3.29,0,0,1-.31,1.45,2.35,2.35,0,0,1-.88,1,2.45,2.45,0,0,1-1.32.36,2.32,2.32,0,0,1-1.82-.78,3,3,0,0,1-.7-2.07Zm.95.11a2.36,2.36,0,0,0,.43,1.48,1.44,1.44,0,0,0,2.28,0,2.58,2.58,0,0,0,.42-1.58,2.36,2.36,0,0,0-.43-1.47,1.37,1.37,0,0,0-1.15-.56,1.36,1.36,0,0,0-1.13.56A2.56,2.56,0,0,0,232.54,154.17Z"/><path class="cls-12" d="M241.28,151.34l0,.61a2,2,0,0,1,1.64-.71,1.58,1.58,0,0,1,1.58.89,2.09,2.09,0,0,1,.72-.64,2.12,2.12,0,0,1,1-.25q1.82,0,1.85,1.92v3.7h-.94v-3.65a1.27,1.27,0,0,0-.27-.89A1.19,1.19,0,0,0,246,152a1.25,1.25,0,0,0-.87.31,1.27,1.27,0,0,0-.4.84v3.67h-.95v-3.62a1.05,1.05,0,0,0-1.18-1.2,1.26,1.26,0,0,0-1.27.79v4h-.94v-5.52Z"/><path class="cls-12" d="M249.31,154.06a3.27,3.27,0,0,1,.32-1.46,2.38,2.38,0,0,1,.89-1,2.42,2.42,0,0,1,1.3-.35,2.33,2.33,0,0,1,1.83.78,3,3,0,0,1,.7,2.08v.07a3.29,3.29,0,0,1-.31,1.45,2.35,2.35,0,0,1-.88,1,2.45,2.45,0,0,1-1.32.36,2.32,2.32,0,0,1-1.82-.78,3,3,0,0,1-.7-2.07Zm.95.11a2.36,2.36,0,0,0,.43,1.48,1.44,1.44,0,0,0,2.28,0,2.58,2.58,0,0,0,.42-1.58,2.36,2.36,0,0,0-.43-1.47,1.37,1.37,0,0,0-1.15-.56,1.36,1.36,0,0,0-1.13.56A2.56,2.56,0,0,0,250.26,154.17Z"/><path class="cls-12" d="M257.27,155.59l1.37-4.24h1l-2,5.52h-.72l-2-5.52h1Z"/><path class="cls-12" d="M262.8,157a2.41,2.41,0,0,1-1.83-.74,2.74,2.74,0,0,1-.7-2v-.17a3.31,3.31,0,0,1,.31-1.47,2.45,2.45,0,0,1,.88-1,2.21,2.21,0,0,1,1.22-.37,2.07,2.07,0,0,1,1.67.71,3.07,3.07,0,0,1,.6,2v.39h-3.74a2,2,0,0,0,.48,1.32,1.5,1.5,0,0,0,1.16.5,1.65,1.65,0,0,0,.85-.2,2.12,2.12,0,0,0,.61-.54l.58.45A2.32,2.32,0,0,1,262.8,157Zm-.12-5a1.26,1.26,0,0,0-1,.42,2,2,0,0,0-.48,1.17H264v-.07a1.8,1.8,0,0,0-.39-1.12A1.19,1.19,0,0,0,262.69,152Z"/><path class="cls-12" d="M269.1,156.87v-4.79h-.87v-.73h.87v-.57a1.88,1.88,0,0,1,.47-1.37,1.79,1.79,0,0,1,1.34-.49,2.5,2.5,0,0,1,.65.09l-.05.76a2.71,2.71,0,0,0-.51,0,.92.92,0,0,0-.71.27,1.09,1.09,0,0,0-.25.77v.58h1.18v.73H270v4.79Z"/><path class="cls-12" d="M272,154.06a3.27,3.27,0,0,1,.32-1.46,2.38,2.38,0,0,1,.89-1,2.42,2.42,0,0,1,1.3-.35,2.33,2.33,0,0,1,1.83.78,3,3,0,0,1,.7,2.08v.07a3.29,3.29,0,0,1-.31,1.45,2.35,2.35,0,0,1-.88,1,2.45,2.45,0,0,1-1.32.36,2.32,2.32,0,0,1-1.82-.78,3,3,0,0,1-.7-2.07Zm.95.11a2.36,2.36,0,0,0,.43,1.48,1.44,1.44,0,0,0,2.28,0,2.58,2.58,0,0,0,.42-1.58,2.36,2.36,0,0,0-.43-1.47,1.37,1.37,0,0,0-1.15-.56,1.36,1.36,0,0,0-1.13.56A2.56,2.56,0,0,0,273,154.17Z"/><path class="cls-12" d="M280.9,152.19a2.86,2.86,0,0,0-.46,0,1.24,1.24,0,0,0-1.26.79v3.92h-.94v-5.52h.92l0,.64a1.47,1.47,0,0,1,1.32-.74,1,1,0,0,1,.42.07Z"/><path class="cls-12" d="M286.75,155.57l1.06-4.22h.94l-1.61,5.52h-.77L285,152.68l-1.31,4.19H283l-1.6-5.52h.94l1.09,4.14,1.29-4.14h.76Z"/><path class="cls-12" d="M293.12,156.87a2,2,0,0,1-.13-.58,2.11,2.11,0,0,1-1.57.68,2,2,0,0,1-1.34-.46,1.49,1.49,0,0,1-.52-1.17,1.56,1.56,0,0,1,.66-1.34,3.09,3.09,0,0,1,1.85-.48H293v-.43a1.06,1.06,0,0,0-.3-.79,1.19,1.19,0,0,0-.87-.29,1.38,1.38,0,0,0-.85.26.75.75,0,0,0-.34.62h-.95a1.3,1.3,0,0,1,.29-.8,2,2,0,0,1,.8-.61,2.68,2.68,0,0,1,1.11-.22,2.18,2.18,0,0,1,1.5.48,1.72,1.72,0,0,1,.56,1.31v2.54a3.1,3.1,0,0,0,.19,1.21v.08Zm-1.57-.72a1.66,1.66,0,0,0,.84-.23,1.39,1.39,0,0,0,.58-.6v-1.13h-.74q-1.74,0-1.74,1a.86.86,0,0,0,.3.69A1.14,1.14,0,0,0,291.56,156.15Z"/><path class="cls-12" d="M298.07,152.19a2.86,2.86,0,0,0-.46,0,1.24,1.24,0,0,0-1.26.79v3.92h-.94v-5.52h.92l0,.64a1.47,1.47,0,0,1,1.32-.74,1,1,0,0,1,.42.07Z"/><path class="cls-12" d="M298.71,154.06a3.24,3.24,0,0,1,.6-2,2,2,0,0,1,3.11-.11V149h.94v7.84h-.87l0-.59a1.92,1.92,0,0,1-1.58.69,1.89,1.89,0,0,1-1.56-.79,3.27,3.27,0,0,1-.61-2.05Zm.94.11a2.45,2.45,0,0,0,.39,1.47,1.25,1.25,0,0,0,1.07.53,1.38,1.38,0,0,0,1.31-.81v-2.54a1.39,1.39,0,0,0-1.3-.78,1.26,1.26,0,0,0-1.08.54A2.7,2.7,0,0,0,299.65,154.17Z"/><path class="cls-9" d="M304.86,156.37A.59.59,0,0,1,305,156a.55.55,0,0,1,.44-.16.57.57,0,0,1,.44.16.58.58,0,0,1,.15.41.55.55,0,0,1-.15.39.58.58,0,0,1-.44.16.56.56,0,0,1-.44-.16A.56.56,0,0,1,304.86,156.37Z"/><path class="cls-13" d="M315.54,154H314.1v2.86h-1.29v-7.43h2.61a3,3,0,0,1,2,.58,2,2,0,0,1,.7,1.67,2.09,2.09,0,0,1-.36,1.25,2.29,2.29,0,0,1-1,.77l1.67,3.1v.07H317Zm-1.44-1h1.33a1.48,1.48,0,0,0,1-.33,1.15,1.15,0,0,0,.37-.9,1.22,1.22,0,0,0-.34-.92,1.44,1.44,0,0,0-1-.34H314.1Z"/><path class="cls-13" d="M323.68,153.55h-3.05v2.29h3.57v1h-4.86v-7.43h4.82v1h-3.53v2.05h3.05Z"/><path class="cls-13" d="M329.13,155a.9.9,0,0,0-.34-.76,4.15,4.15,0,0,0-1.24-.54,6,6,0,0,1-1.43-.6,1.91,1.91,0,0,1-1-1.66,1.81,1.81,0,0,1,.73-1.48,3,3,0,0,1,1.9-.58,3.21,3.21,0,0,1,1.38.29,2.27,2.27,0,0,1,1,.81,2.09,2.09,0,0,1,.35,1.17h-1.29a1.17,1.17,0,0,0-.37-.91,1.51,1.51,0,0,0-1-.33,1.57,1.57,0,0,0-1,.27.9.9,0,0,0-.35.76.81.81,0,0,0,.38.68,4.35,4.35,0,0,0,1.25.53,5.71,5.71,0,0,1,1.39.59,2.22,2.22,0,0,1,.77.76,2,2,0,0,1,.25,1,1.77,1.77,0,0,1-.71,1.48,3.09,3.09,0,0,1-1.93.55,3.63,3.63,0,0,1-1.48-.3,2.49,2.49,0,0,1-1.05-.82,2.05,2.05,0,0,1-.38-1.23h1.29a1.2,1.2,0,0,0,.42,1,1.83,1.83,0,0,0,1.2.35,1.59,1.59,0,0,0,1-.27A.88.88,0,0,0,329.13,155Z"/><path class="cls-13" d="M332.84,154.11v2.76h-1.29v-7.43h2.84a2.88,2.88,0,0,1,2,.65,2.18,2.18,0,0,1,.73,1.72,2.11,2.11,0,0,1-.72,1.7,3,3,0,0,1-2,.61Zm0-1h1.55a1.53,1.53,0,0,0,1.05-.32,1.19,1.19,0,0,0,.36-.94,1.29,1.29,0,0,0-.37-1,1.42,1.42,0,0,0-1-.37h-1.59Z"/><path class="cls-13" d="M344.17,153.35a4.56,4.56,0,0,1-.38,1.92,2.86,2.86,0,0,1-1.08,1.27,3.17,3.17,0,0,1-3.23,0,2.9,2.9,0,0,1-1.09-1.26,4.41,4.41,0,0,1-.39-1.88V153a4.52,4.52,0,0,1,.39-1.92,2.9,2.9,0,0,1,1.09-1.27,3.17,3.17,0,0,1,3.22,0,2.86,2.86,0,0,1,1.08,1.26,4.51,4.51,0,0,1,.39,1.91Zm-1.29-.39a3.25,3.25,0,0,0-.47-1.89,1.65,1.65,0,0,0-2.63,0,3.19,3.19,0,0,0-.48,1.86v.43a3.22,3.22,0,0,0,.48,1.89,1.54,1.54,0,0,0,1.32.67,1.52,1.52,0,0,0,1.32-.65,3.29,3.29,0,0,0,.46-1.91Z"/><path class="cls-13" d="M351.35,156.87h-1.29l-3.31-5.27v5.27h-1.29v-7.43h1.29l3.32,5.29v-5.29h1.28Z"/><path class="cls-13" d="M352.88,156.87v-7.43h2.2a3.44,3.44,0,0,1,1.75.44,3,3,0,0,1,1.18,1.25,4,4,0,0,1,.42,1.85v.37a3.94,3.94,0,0,1-.42,1.86,3,3,0,0,1-1.2,1.24,3.6,3.6,0,0,1-1.78.43Zm1.29-6.39v5.36H355a1.94,1.94,0,0,0,1.56-.64,2.77,2.77,0,0,0,.55-1.83V153a2.84,2.84,0,0,0-.53-1.85,1.86,1.86,0,0,0-1.53-.64Z"/><path class="cls-13" d="M367.38,150.48h-2.32v6.39h-1.28v-6.39h-2.3v-1h5.9Z"/><path class="cls-13" d="M374.14,153.35a4.56,4.56,0,0,1-.38,1.92,2.86,2.86,0,0,1-1.08,1.27,3.17,3.17,0,0,1-3.23,0,2.9,2.9,0,0,1-1.09-1.26,4.41,4.41,0,0,1-.39-1.88V153a4.52,4.52,0,0,1,.39-1.92,2.9,2.9,0,0,1,1.09-1.27,3.17,3.17,0,0,1,3.22,0,2.86,2.86,0,0,1,1.08,1.26,4.51,4.51,0,0,1,.39,1.91Zm-1.29-.39a3.25,3.25,0,0,0-.47-1.89,1.65,1.65,0,0,0-2.63,0,3.19,3.19,0,0,0-.48,1.86v.43a3.22,3.22,0,0,0,.48,1.89,1.54,1.54,0,0,0,1.32.67,1.52,1.52,0,0,0,1.32-.65,3.29,3.29,0,0,0,.46-1.91Z"/><path class="cls-13" d="M383.1,150.48h-2.32v6.39H379.5v-6.39h-2.3v-1h5.9Z"/><path class="cls-13" d="M385.44,156.87h-1.29v-7.43h1.29Z"/><path class="cls-13" d="M392.7,154.45a2.68,2.68,0,0,1-.88,1.86,3,3,0,0,1-2,.67,2.9,2.9,0,0,1-1.56-.42,2.76,2.76,0,0,1-1-1.2,4.32,4.32,0,0,1-.38-1.8v-.69a4.35,4.35,0,0,1,.37-1.85,2.81,2.81,0,0,1,1.07-1.24,3,3,0,0,1,1.61-.43,2.87,2.87,0,0,1,2,.67,2.78,2.78,0,0,1,.87,1.89h-1.29a1.84,1.84,0,0,0-.47-1.16,1.54,1.54,0,0,0-1.1-.35,1.51,1.51,0,0,0-1.29.62,3.08,3.08,0,0,0-.46,1.81v.66a3.26,3.26,0,0,0,.43,1.84,1.43,1.43,0,0,0,1.26.63,1.67,1.67,0,0,0,1.14-.34,1.78,1.78,0,0,0,.49-1.14Z"/><path class="cls-13" d="M396,153.66l-.84.89v2.32h-1.29v-7.43h1.29v3.49l.71-.88,2.17-2.6h1.56l-2.76,3.29,2.92,4.14h-1.53Z"/><path class="cls-13" d="M404.79,153.55h-3.05v2.29h3.57v1h-4.86v-7.43h4.82v1h-3.53v2.05h3.05Z"/><path class="cls-13" d="M411.83,150.48h-2.32v6.39h-1.28v-6.39h-2.3v-1h5.9Z"/><path class="cls-14" d="M14.56,151.33A8,8,0,0,1,19.68,154a9.82,9.82,0,0,1,2.15,4.64,7.41,7.41,0,0,0-3-2.56,10.19,10.19,0,0,0-4.28-.82v2.69l-4.61-4.61,4.61-4.61Z"/><g class="cls-15"><rect class="cls-6" x="5.99" y="144.74" width="19.81" height="17.83"/></g><text class="cls-16" transform="translate(9.95 10.42)">Urgent</text><text class="cls-16" transform="translate(9.95 64.42)">Emergency</text><text class="cls-16" transform="translate(9.95 133.42)">Action Required</text></g></svg>