<?xml version="1.0" encoding="UTF-8" standalone="no"?>
<svg width="412px" height="254px" viewBox="0 0 412 254" version="1.1" xmlns="http://www.w3.org/2000/svg" xmlns:xlink="http://www.w3.org/1999/xlink">
    <!-- Generator: Sketch 47.1 (45422) - http://www.bohemiancoding.com/sketch -->
    <title>toast-hero</title>
    <desc>Created with Sketch.</desc>
    <style type="text/css">@import url('https://fonts.googleapis.com/css?family=Roboto:300,400,500');</style>
    <defs>
        <path d="M2,62 L348,62 L348,62 C349.104569,62 350,61.1045695 350,60 L350,2 L350,2 C350,0.8954305 349.104569,-2.02906125e-16 348,0 L2,0 L2,0 C0.8954305,2.02906125e-16 -1.3527075e-16,0.8954305 0,2 L0,60 L0,60 C-3.78894842e-15,61.1045695 0.8954305,62 2,62 Z" id="path-1"></path>
        <filter x="-1.9%" y="-5.6%" width="103.7%" height="121.0%" filterUnits="objectBoundingBox" id="filter-2">
            <feMorphology radius="0.5" operator="dilate" in="SourceAlpha" result="shadowSpreadOuter1"></feMorphology>
            <feOffset dx="0" dy="3" in="shadowSpreadOuter1" result="shadowOffsetOuter1"></feOffset>
            <feGaussianBlur stdDeviation="1.5" in="shadowOffsetOuter1" result="shadowBlurOuter1"></feGaussianBlur>
            <feComposite in="shadowBlurOuter1" in2="SourceAlpha" operator="out" result="shadowBlurOuter1"></feComposite>
            <feColorMatrix values="0 0 0 0 0   0 0 0 0 0   0 0 0 0 0  0 0 0 0.16 0" type="matrix" in="shadowBlurOuter1"></feColorMatrix>
        </filter>
        <path d="M2,184 L348,184 L348,184 C349.104569,184 350,183.104569 350,182 L350,97 L350,97 C350,95.8954305 349.104569,95 348,95 L2,95 L2,95 C0.8954305,95 -1.3527075e-16,95.8954305 0,97 L0,182 L0,182 C1.3527075e-16,183.104569 0.8954305,184 2,184 Z" id="path-3"></path>
        <filter x="-1.9%" y="-3.9%" width="103.7%" height="114.6%" filterUnits="objectBoundingBox" id="filter-4">
            <feMorphology radius="0.5" operator="dilate" in="SourceAlpha" result="shadowSpreadOuter1"></feMorphology>
            <feOffset dx="0" dy="3" in="shadowSpreadOuter1" result="shadowOffsetOuter1"></feOffset>
            <feGaussianBlur stdDeviation="1.5" in="shadowOffsetOuter1" result="shadowBlurOuter1"></feGaussianBlur>
            <feComposite in="shadowBlurOuter1" in2="SourceAlpha" operator="out" result="shadowBlurOuter1"></feComposite>
            <feColorMatrix values="0 0 0 0 0   0 0 0 0 0   0 0 0 0 0  0 0 0 0.16 0" type="matrix" in="shadowBlurOuter1"></feColorMatrix>
        </filter>
    </defs>
    <g id="Page-1" stroke="none" stroke-width="1" fill="none" fill-rule="evenodd">
        <g id="toast-hero">
            <g id="Group" transform="translate(31.000000, 35.000000)">
                <g id="Stroke-31-Copy-9">
                    <use fill="black" fill-opacity="1" filter="url(#filter-2)" xlink:href="#path-1"></use>
                    <use stroke="#D8D8D8" stroke-width="1" fill="#FFFFFF" fill-rule="evenodd" xlink:href="#path-1"></use>
                </g>
                <text id="The-password-has-bee" font-family="Roboto-Regular, Roboto" font-size="14" font-weight="normal" fill="#424242">
                    <tspan x="64" y="25">The password has been reset for </tspan>
                    <tspan x="64" y="41">rse1@grseller2.com</tspan>
                </text>
                <path d="M333.211957,18.0001071 L337.748652,13.463331 C338.083783,13.1281941 338.083783,12.5864895 337.748652,12.2513527 C337.413521,11.9162158 336.871826,11.9162158 336.536695,12.2513527 L332,16.7881288 L327.463305,12.2513527 C327.128174,11.9162158 326.586479,11.9162158 326.251348,12.2513527 C325.916217,12.5864895 325.916217,13.1281941 326.251348,13.463331 L330.788043,18.0001071 L326.251348,22.5368833 C325.916217,22.8720201 325.916217,23.4137248 326.251348,23.7488616 C326.418485,23.9160015 326.637906,24 326.857327,24 C327.076747,24 327.296168,23.9160015 327.463305,23.7488616 L332,19.2120855 L336.536695,23.7488616 C336.703832,23.9160015 336.923253,24 337.142673,24 C337.362094,24 337.581515,23.9160015 337.748652,23.7488616 C338.083783,23.4137248 338.083783,22.8720201 337.748652,22.5368833 L333.211957,18.0001071 Z" id="Fill-1" fill="#757575"></path>
                <path d="M-22.5,27.5 L34.5,27.5 L34.5,27.5 C35.6045695,27.5 36.5,28.3954305 36.5,29.5 L36.5,35.5 L-24.5,35.5 L-24.5,29.5 L-24.5,29.5 C-24.5,28.3954305 -23.6045695,27.5 -22.5,27.5 Z" id="Rectangle-2-Copy-5" stroke="#4CAF51" fill="#4CAF51" transform="translate(6.000000, 31.500000) rotate(-90.000000) translate(-6.000000, -31.500000) "></path>
                <path d="M31.3285529,46.0363748 L20.85296,34.6026326 C19.695005,33.3411983 19.719004,31.3203509 20.9069579,30.0908247 C22.0929118,28.8591714 23.990838,28.8868251 25.148793,30.1503865 L32.996488,38.7123982 L46.4779641,16.4639312 C47.3759292,14.9791401 49.2358569,14.5558257 50.623803,15.5088148 C52.0177488,16.4639312 52.4197332,18.4379801 51.5197682,19.9206439 L35.9983714,45.5386082 C35.5043906,46.3533288 34.6844224,46.887258 33.7744578,46.9829823 C33.6764616,46.9936184 33.5764655,47 33.4764694,47 C32.6725006,47 31.8965308,46.6553923 31.3285529,46.0363748 Z" id="Fill-1-Copy-4" fill="#4CAF51"></path>
                <g id="Stroke-31-Copy-9">
                    <use fill="black" fill-opacity="1" filter="url(#filter-4)" xlink:href="#path-3"></use>
                    <use stroke="#D8D8D8" stroke-width="1" fill="#FFFFFF" fill-rule="evenodd" xlink:href="#path-3"></use>
                </g>
                <text id="The-password-has-bee" font-family="Roboto-Regular, Roboto" font-size="14" font-weight="normal" fill="#424242">
                    <tspan x="64" y="120">The password has been reset for </tspan>
                    <tspan x="64" y="136">rse1@grseller2.com</tspan>
                </text>
                <path d="M333.211957,113.000107 L337.748652,108.463331 C338.083783,108.128194 338.083783,107.58649 337.748652,107.251353 C337.413521,106.916216 336.871826,106.916216 336.536695,107.251353 L332,111.788129 L327.463305,107.251353 C327.128174,106.916216 326.586479,106.916216 326.251348,107.251353 C325.916217,107.58649 325.916217,108.128194 326.251348,108.463331 L330.788043,113.000107 L326.251348,117.536883 C325.916217,117.87202 325.916217,118.413725 326.251348,118.748862 C326.418485,118.916001 326.637906,119 326.857327,119 C327.076747,119 327.296168,118.916001 327.463305,118.748862 L332,114.212085 L336.536695,118.748862 C336.703832,118.916001 336.923253,119 337.142673,119 C337.362094,119 337.581515,118.916001 337.748652,118.748862 C338.083783,118.413725 338.083783,117.87202 337.748652,117.536883 L333.211957,113.000107 Z" id="Fill-1" fill="#757575"></path>
                <text id="VIEW" font-family="Roboto-Medium, Roboto" font-size="14" font-weight="400" fill="#0C7C84">
                    <tspan x="280" y="166">VIEW</tspan>
                </text>
                <path d="M31.3285529,154.036375 L20.85296,142.602633 C19.695005,141.341198 19.719004,139.320351 20.9069579,138.090825 C22.0929118,136.859171 23.990838,136.886825 25.148793,138.150387 L32.996488,146.712398 L46.4779641,124.463931 C47.3759292,122.97914 49.2358569,122.555826 50.623803,123.508815 C52.0177488,124.463931 52.4197332,126.43798 51.5197682,127.920644 L35.9983714,153.538608 C35.5043906,154.353329 34.6844224,154.887258 33.7744578,154.982982 C33.6764616,154.993618 33.5764655,155 33.4764694,155 C32.6725006,155 31.8965308,154.655392 31.3285529,154.036375 Z" id="Fill-1-Copy-6" fill="#4CAF51"></path>
                <path d="M-38,135 L46,135 L46,135 C47.1045695,135 48,135.895431 48,137 L48,143 L-40,143 L-40,137 L-40,137 C-40,135.895431 -39.1045695,135 -38,135 Z" id="Rectangle-2-Copy-7" stroke="#4CAF51" fill="#4CAF51" transform="translate(4.000000, 139.000000) rotate(-90.000000) translate(-4.000000, -139.000000) "></path>
            </g>
        </g>
    </g>
</svg>