<?xml version="1.0" encoding="UTF-8" standalone="no"?>
<svg width="635px" height="389px" viewBox="0 0 635 389" version="1.1" xmlns="http://www.w3.org/2000/svg" xmlns:xlink="http://www.w3.org/1999/xlink">
    <!-- Generator: Sketch 47.1 (45422) - http://www.bohemiancoding.com/sketch -->
    <title>toast-specifications</title>
    <desc>Created with Sketch.</desc>
    <style type="text/css">@import url('https://fonts.googleapis.com/css?family=Roboto:300,400,500');</style>
    <defs>
        <path d="M130,134 L476,134 L476,134 C477.104569,134 478,133.104569 478,132 L478,74 L478,74 C478,72.8954305 477.104569,72 476,72 L130,72 L130,72 C128.895431,72 128,72.8954305 128,74 L128,132 L128,132 C128,133.104569 128.895431,134 130,134 Z" id="path-1"></path>
        <filter x="-1.7%" y="-4.8%" width="103.4%" height="119.4%" filterUnits="objectBoundingBox" id="filter-2">
            <feOffset dx="0" dy="3" in="SourceAlpha" result="shadowOffsetOuter1"></feOffset>
            <feGaussianBlur stdDeviation="1.5" in="shadowOffsetOuter1" result="shadowBlurOuter1"></feGaussianBlur>
            <feColorMatrix values="0 0 0 0 0   0 0 0 0 0   0 0 0 0 0  0 0 0 0.16 0" type="matrix" in="shadowBlurOuter1"></feColorMatrix>
        </filter>
        <polygon id="path-3" points="7 3.5 0 7 0 0"></polygon>
        <circle id="path-4" cx="3.5" cy="3.5" r="3.5"></circle>
        <path d="M132,337 L478,337 L478,337 C479.104569,337 480,336.104569 480,335 L480,250 L480,250 C480,248.895431 479.104569,248 478,248 L132,248 L132,248 C130.895431,248 130,248.895431 130,250 L130,335 L130,335 C130,336.104569 130.895431,337 132,337 Z" id="path-5"></path>
        <filter x="-1.7%" y="-3.4%" width="103.4%" height="113.5%" filterUnits="objectBoundingBox" id="filter-6">
            <feOffset dx="0" dy="3" in="SourceAlpha" result="shadowOffsetOuter1"></feOffset>
            <feGaussianBlur stdDeviation="1.5" in="shadowOffsetOuter1" result="shadowBlurOuter1"></feGaussianBlur>
            <feColorMatrix values="0 0 0 0 0   0 0 0 0 0   0 0 0 0 0  0 0 0 0.16 0" type="matrix" in="shadowBlurOuter1"></feColorMatrix>
        </filter>
    </defs>
    <g id="Page-1" stroke="none" stroke-width="1" fill="none" fill-rule="evenodd">
        <g id="toast-specifications">
            <text id="Without-Call-to-Acti" font-family="Roboto-Bold, Roboto" font-size="14" font-weight="bold" fill="#9E9E9E">
                <tspan x="25" y="28">Without Call to Action (CTA)</tspan>
            </text>
            <text id="With-Call-to-Action" font-family="Roboto-Bold, Roboto" font-size="14" font-weight="bold" fill="#9E9E9E">
                <tspan x="25" y="223">With Call to Action (CTA)</tspan>
            </text>
            <g id="Stroke-31-Copy-9">
                <use fill="black" fill-opacity="1" filter="url(#filter-2)" xlink:href="#path-1"></use>
                <use fill="#FFFFFF" fill-rule="evenodd" xlink:href="#path-1"></use>
            </g>
            <text id="Notification-message" font-family="Roboto-Regular, Roboto" font-size="14" font-weight="normal" fill="#424242">
                <tspan x="197.135802" y="97.15">Notification message goes here</tspan>
            </text>
            <path d="M461.211957,90.0001071 L465.748652,85.463331 C466.083783,85.1281941 466.083783,84.5864895 465.748652,84.2513527 C465.413521,83.9162158 464.871826,83.9162158 464.536695,84.2513527 L460,88.7881288 L455.463305,84.2513527 C455.128174,83.9162158 454.586479,83.9162158 454.251348,84.2513527 C453.916217,84.5864895 453.916217,85.1281941 454.251348,85.463331 L458.788043,90.0001071 L454.251348,94.5368833 C453.916217,94.8720201 453.916217,95.4137248 454.251348,95.7488616 C454.418485,95.9160015 454.637906,96 454.857327,96 C455.076747,96 455.296168,95.9160015 455.463305,95.7488616 L460,91.2120855 L464.536695,95.7488616 C464.703832,95.9160015 464.923253,96 465.142673,96 C465.362094,96 465.581515,95.9160015 465.748652,95.7488616 C466.083783,95.4137248 466.083783,94.8720201 465.748652,94.5368833 L461.211957,90.0001071 Z" id="Fill-1" fill="#757575"></path>
            <path d="M103,99 L161,99 L161,99 C162.104569,99 163,99.8954305 163,101 L163,107 L101,107 L101,101 L101,101 C101,99.8954305 101.895431,99 103,99 Z" id="Rectangle-2-Copy-5" fill="#D8D8D8" transform="translate(132.000000, 103.000000) rotate(-90.000000) translate(-132.000000, -103.000000) "></path>
            <g id="specs-/-spacing-/-internal-/-V-12px" transform="translate(465.000000, 72.000000)">
                <rect id="Rectangle-5-Copy-10" fill="#F8CC96" fill-rule="evenodd" x="1" y="0" width="12" height="62"></rect>
                <text id="12-copy-4" font-family="Roboto-Regular, Roboto" font-size="12" font-weight="normal" fill="#333333">
                    <tspan x="0" y="34">12</tspan>
                </text>
            </g>
            <g id="specs-/-spacing-/-internal-/-V-12px" transform="translate(440.000000, 72.000000)">
                <rect id="Rectangle-5-Copy-10" fill="#F8CC96" fill-rule="evenodd" x="1" y="0" width="12" height="62"></rect>
                <text id="12-copy-4" font-family="Roboto-Regular, Roboto" font-size="12" font-weight="normal" fill="#333333">
                    <tspan x="0" y="34">12</tspan>
                </text>
            </g>
            <g id="specs-/-spacing-/-internal-/-V-12px" transform="translate(179.000000, 72.000000)">
                <rect id="Rectangle-5-Copy-10" fill="#F8CC96" fill-rule="evenodd" x="1" y="0" width="12" height="62"></rect>
                <text id="12-copy-4" font-family="Roboto-Regular, Roboto" font-size="12" font-weight="normal" fill="#333333">
                    <tspan x="0" y="34">12</tspan>
                </text>
            </g>
            <g id="specs-/-spacing-/-internal-/-V-12px" transform="translate(135.000000, 72.000000)">
                <rect id="Rectangle-5-Copy-10" fill="#F8CC96" fill-rule="evenodd" x="1" y="0" width="12" height="62"></rect>
                <text id="12-copy-4" font-family="Roboto-Regular, Roboto" font-size="12" font-weight="normal" fill="#333333">
                    <tspan x="0" y="34">12</tspan>
                </text>
            </g>
            <g id="specs-/-spacing-/-internal-/-H-12px" transform="translate(136.000000, 71.000000)">
                <rect id="Rectangle-3-Copy" fill="#F9CD94" fill-rule="evenodd" x="0" y="0" width="342" height="12"></rect>
                <text id="12" font-family="Roboto-Regular, Roboto" font-size="12" font-weight="normal" fill="#333333">
                    <tspan x="147.06" y="9">12</tspan>
                </text>
            </g>
            <g id="specs-/-spacing-/-internal-/-H-12px" transform="translate(136.000000, 122.000000)">
                <rect id="Rectangle-3-Copy" fill="#F9CD94" fill-rule="evenodd" x="0" y="0" width="342" height="12"></rect>
                <text id="12" font-family="Roboto-Regular, Roboto" font-size="12" font-weight="normal" fill="#333333">
                    <tspan x="147.06" y="9">12</tspan>
                </text>
            </g>
            <path d="M466.491938,88 L482,88" id="Stroke-8" stroke="#EC3F7A" transform="translate(474.000000, 88.500000) scale(-1, 1) translate(-474.000000, -88.500000) "></path>
            <path d="M491,88 C491,90.762 488.762,93 486,93 C483.238,93 481,90.761 481,88 C481.001,85.238 483.239,83 486.001,83 C488.763,83 491.001,85.239 491,88 Z" id="Path" stroke="#EC3F7A" fill-opacity="0.3" fill="#F03F7B" transform="translate(486.000000, 88.000000) scale(-1, 1) translate(-486.000000, -88.000000) "></path>
            <path d="M466.491938,137 L482,137" id="Stroke-8-Copy" stroke="#EC3F7A" transform="translate(474.000000, 137.500000) scale(-1, 1) translate(-474.000000, -137.500000) "></path>
            <path d="M491,137 C491,139.762 488.762,142 486,142 C483.238,142 481,139.761 481,137 C481.001,134.238 483.239,132 486.001,132 C488.763,132 491.001,134.239 491,137 Z" id="Path-Copy" stroke="#EC3F7A" fill-opacity="0.3" fill="#F03F7B" transform="translate(486.000000, 137.000000) scale(-1, 1) translate(-486.000000, -137.000000) "></path>
            <text id="redline-label" font-family="Roboto-Regular, Roboto" font-size="12" font-weight="normal" fill="#EC407A">
                <tspan x="494" y="89">“times” Icon, 12px,</tspan>
                <tspan x="494" y="103">#757575 (Gray 700)</tspan>
            </text>
            <text id="redline-label" font-family="Roboto-Regular, Roboto" font-size="12" font-weight="normal" fill="#EC407A">
                <tspan x="494" y="138">Drop shadow:</tspan>
                <tspan x="494" y="152">X:0, Y:3, Blur:3, Spread:0</tspan>
                <tspan x="494" y="166">#000000 (Gray 1000)</tspan>
                <tspan x="494" y="180">16% opacity</tspan>
            </text>
            <text id="redline-label" font-family="Roboto-Regular, Roboto" font-size="12" font-weight="normal" fill="#EC407A">
                <tspan x="219" y="60">Roboto, Regular, 14px, #424242 (Gray 900)</tspan>
            </text>
            <g id="specs-/-redlines-/-line-regular" transform="translate(207.000000, 71.000000) scale(1, -1) rotate(-90.000000) translate(-207.000000, -71.000000) translate(191.000000, 61.000000)">
                <path d="M3.5,19.5 L3.5,11.5 C3.5,7.081722 7.07465974,3.5 11.5049345,3.5 L31.5,3.5" id="redline-line" stroke="#EC407A" stroke-width="1"></path>
                <g id="specs-/-redlines-/-line-end-/-arrow" transform="translate(25.000000, 0.000000)">
                    <g id="redline-end">
                        <use fill="#FFFFFF" fill-rule="evenodd" xlink:href="#path-3"></use>
                        <path stroke="#EC407A" stroke-width="1" d="M5.88196601,3.5 L0.5,0.809016994 L0.5,6.19098301 L5.88196601,3.5 Z"></path>
                    </g>
                </g>
                <g id="specs-/-redlines-/-line-end-/-circle" transform="translate(0.000000, 13.000000)">
                    <g id="redline-start">
                        <use fill="#FFFFFF" fill-rule="evenodd" xlink:href="#path-4"></use>
                        <circle stroke="#EC407A" stroke-width="1" cx="3.5" cy="3.5" r="3"></circle>
                    </g>
                </g>
            </g>
            <text id="redline-label" font-family="Roboto-Regular, Roboto" font-size="12" font-weight="normal" fill="#EC407A">
                <tspan x="497" y="316">Roboto, Medium, </tspan>
                <tspan x="497" y="330">14px, #0c7c84 </tspan>
                <tspan x="497" y="344">(Cyan 900)</tspan>
            </text>
            <text id="label" font-family="Roboto-Regular, Roboto" font-size="12" font-weight="normal" line-spacing="19" fill="#EC407A">
                <tspan x="286.111328" y="180">350 px</tspan>
            </text>
            <g id="specs-/-redlines-/-curly-brace" transform="translate(304.000000, 155.623762) rotate(-270.000000) translate(-304.000000, -155.623762) translate(290.376238, -19.376238)" stroke="#EC407A">
                <path d="M0,1.1589404 C26.8926694,1.1589404 0.0868454798,175 27,175" id="Path-2"></path>
                <path d="M0,175 C26.8926694,175 0.0868454798,348.84106 27,348.84106" id="Path-2-Copy" transform="translate(13.500000, 261.920530) scale(1, -1) translate(-13.500000, -261.920530) "></path>
            </g>
            <text id="label" font-family="Roboto-Regular, Roboto" font-size="12" font-weight="normal" line-spacing="19" fill="#EC407A">
                <tspan x="73.9609375" y="94">62 px </tspan>
                <tspan x="35.40625" y="113">(min. height)</tspan>
            </text>
            <g id="specs-/-redlines-/-curly-brace" transform="translate(114.500000, 102.000000) scale(-1, 1) translate(-114.500000, -102.000000) translate(105.000000, 71.000000)" stroke="#EC407A">
                <path d="M0,0.205298013 C18.924471,0.205298013 0.0611134858,31 19,31" id="Path-2"></path>
                <path d="M0,31 C18.924471,31 0.0611134858,61.794702 19,61.794702" id="Path-2-Copy" transform="translate(9.500000, 46.397351) scale(1, -1) translate(-9.500000, -46.397351) "></path>
            </g>
            <text id="label" font-family="Roboto-Regular, Roboto" font-size="12" font-weight="normal" line-spacing="19" fill="#EC407A">
                <tspan x="73.9609375" y="275">89 px </tspan>
                <tspan x="35.40625" y="294">(min. height)</tspan>
            </text>
            <g id="specs-/-redlines-/-curly-brace" transform="translate(114.500000, 293.500000) scale(-1, 1) translate(-114.500000, -293.500000) translate(105.000000, 249.000000)" stroke="#EC407A">
                <path d="M0,0.294701987 C18.924471,0.294701987 0.0611134858,44.5 19,44.5" id="Path-2"></path>
                <path d="M0,44.5 C18.924471,44.5 0.0611134858,88.705298 19,88.705298" id="Path-2-Copy" transform="translate(9.500000, 66.602649) scale(1, -1) translate(-9.500000, -66.602649) "></path>
            </g>
            <circle id="Oval" fill="#D8D8D8" cx="164" cy="103" r="16"></circle>
            <g id="Stroke-31-Copy-9">
                <use fill="black" fill-opacity="1" filter="url(#filter-6)" xlink:href="#path-5"></use>
                <use fill="#FFFFFF" fill-rule="evenodd" xlink:href="#path-5"></use>
            </g>
            <text id="Notification-message" font-family="Roboto-Regular, Roboto" font-size="14" font-weight="normal" fill="#424242">
                <tspan x="192" y="273">Notification message goes here</tspan>
            </text>
            <text id="CTA" font-family="Roboto-Medium, Roboto" font-size="14" font-weight="400" fill="#0C7C84">
                <tspan x="418" y="319">CTA</tspan>
            </text>
            <path d="M463.211957,266.000107 L467.748652,261.463331 C468.083783,261.128194 468.083783,260.58649 467.748652,260.251353 C467.413521,259.916216 466.871826,259.916216 466.536695,260.251353 L462,264.788129 L457.463305,260.251353 C457.128174,259.916216 456.586479,259.916216 456.251348,260.251353 C455.916217,260.58649 455.916217,261.128194 456.251348,261.463331 L460.788043,266.000107 L456.251348,270.536883 C455.916217,270.87202 455.916217,271.413725 456.251348,271.748862 C456.418485,271.916001 456.637906,272 456.857327,272 C457.076747,272 457.296168,271.916001 457.463305,271.748862 L462,267.212085 L466.536695,271.748862 C466.703832,271.916001 466.923253,272 467.142673,272 C467.362094,272 467.581515,271.916001 467.748652,271.748862 C468.083783,271.413725 468.083783,270.87202 467.748652,270.536883 L463.211957,266.000107 Z" id="Fill-1" fill="#757575"></path>
            <circle id="Oval-Copy" fill="#D8D8D8" cx="165" cy="292" r="16"></circle>
            <g id="specs-/-spacing-/-internal-/-V-12px" transform="translate(467.000000, 248.000000)">
                <rect id="Rectangle-5-Copy-10" fill="#F8CC96" fill-rule="evenodd" x="1" y="0" width="12" height="89"></rect>
                <text id="12-copy-4" font-family="Roboto-Regular, Roboto" font-size="12" font-weight="normal" fill="#333333">
                    <tspan x="0" y="47.5">12</tspan>
                </text>
            </g>
            <g id="specs-/-spacing-/-internal-/-V-12px" transform="translate(442.000000, 248.000000)">
                <rect id="Rectangle-5-Copy-10" fill="#F8CC96" fill-rule="evenodd" x="1" y="0" width="12" height="77"></rect>
                <text id="12-copy-4" font-family="Roboto-Regular, Roboto" font-size="12" font-weight="normal" fill="#333333">
                    <tspan x="0" y="41.5">12</tspan>
                </text>
            </g>
            <g id="specs-/-spacing-/-internal-/-V-12px" transform="translate(180.000000, 248.000000)">
                <rect id="Rectangle-5-Copy-10" fill="#F8CC96" fill-rule="evenodd" x="1" y="0" width="12" height="89"></rect>
                <text id="12-copy-4" font-family="Roboto-Regular, Roboto" font-size="12" font-weight="normal" fill="#333333">
                    <tspan x="0" y="47.5">12</tspan>
                </text>
            </g>
            <g id="specs-/-spacing-/-internal-/-V-12px" transform="translate(136.000000, 248.000000)">
                <rect id="Rectangle-5-Copy-10" fill="#F8CC96" fill-rule="evenodd" x="1" y="0" width="12" height="89"></rect>
                <text id="12-copy-4" font-family="Roboto-Regular, Roboto" font-size="12" font-weight="normal" fill="#333333">
                    <tspan x="0" y="47.5">12</tspan>
                </text>
            </g>
            <g id="specs-/-spacing-/-internal-/-H-12px" transform="translate(137.000000, 248.000000)">
                <rect id="Rectangle-3-Copy" fill="#F9CD94" fill-rule="evenodd" x="0" y="0" width="342" height="12"></rect>
                <text id="12" font-family="Roboto-Regular, Roboto" font-size="12" font-weight="normal" fill="#333333">
                    <tspan x="147.06" y="9">12</tspan>
                </text>
            </g>
            <g id="specs-/-spacing-/-internal-/-H-12px" transform="translate(137.000000, 325.000000)">
                <rect id="Rectangle-3-Copy" fill="#F9CD94" fill-rule="evenodd" x="0" y="0" width="342" height="12"></rect>
                <text id="12" font-family="Roboto-Regular, Roboto" font-size="12" font-weight="normal" fill="#333333">
                    <tspan x="147.06" y="9">12</tspan>
                </text>
            </g>
            <g id="specs-/-spacing-/-internal-/-H-08px" transform="translate(181.000000, 301.000000)">
                <rect id="Rectangle-3" fill="#F9CD94" fill-rule="evenodd" x="0" y="0" width="274" height="8"></rect>
                <text id="8" font-family="Roboto-Regular, Roboto" font-size="10" font-weight="normal" fill="#333333">
                    <tspan x="126.184211" y="6">8</tspan>
                </text>
            </g>
            <text id="redline-label" font-family="Roboto-Regular, Roboto" font-size="12" font-weight="normal" fill="#EC407A">
                <tspan x="174.900391" y="352">Icons: 32px x 32px</tspan>
            </text>
            <path d="M90.5,289.5 L175.5,289.5 L175.5,289.5 C176.604569,289.5 177.5,290.395431 177.5,291.5 L177.5,297.5 L88.5,297.5 L88.5,291.5 L88.5,291.5 C88.5,290.395431 89.3954305,289.5 90.5,289.5 Z" id="Rectangle-2-Copy-6" fill="#D8D8D8" transform="translate(133.000000, 293.500000) rotate(-90.000000) translate(-133.000000, -293.500000) "></path>
            <path d="M164.491938,346 L204.503124,346" id="Stroke-8" stroke="#EC3F7A"></path>
            <path d="M165.001,354 C167.763,354 170.001,356.239 170,359 C170,361.762 167.762,364 165,364 C162.238,364 160,361.761 160,359 C160.001,356.238 162.239,354 165.001,354" id="Path" stroke="#EC3F7A" fill-opacity="0.3" fill="#F03F7B"></path>
            <path d="M443.491938,314 L481.503289,314" id="Stroke-8-Copy-2" stroke="#EC3F7A" transform="translate(462.500000, 314.500000) scale(-1, 1) translate(-462.500000, -314.500000) "></path>
            <path d="M491,314 C491,316.762 488.762,319 486,319 C483.238,319 481,316.761 481,314 C481.001,311.238 483.239,309 486.001,309 C488.763,309 491.001,311.239 491,314 Z" id="Path-Copy-2" stroke="#EC3F7A" fill-opacity="0.3" fill="#F03F7B" transform="translate(486.000000, 314.000000) scale(-1, 1) translate(-486.000000, -314.000000) "></path>
        </g>
    </g>
</svg>