<?xml version="1.0" encoding="UTF-8" standalone="no"?>
<svg width="561px" height="558px" viewBox="0 0 561 558" version="1.1" xmlns="http://www.w3.org/2000/svg" xmlns:xlink="http://www.w3.org/1999/xlink">
    <!-- Generator: Sketch 47.1 (45422) - http://www.bohemiancoding.com/sketch -->
    <title>toast-w-cta</title>
    <desc>Created with Sketch.</desc>
    <style type="text/css">@import url('https://fonts.googleapis.com/css?family=Roboto:300,400,500');</style>
    <defs>
        <path d="M158,529 L504,529 L504,529 C505.104569,529 506,528.104569 506,527 L506,405 L506,405 C506,403.895431 505.104569,403 504,403 L158,403 L158,403 C156.895431,403 156,403.895431 156,405 L156,527 L156,527 C156,528.104569 156.895431,529 158,529 Z" id="path-1"></path>
        <filter x="-1.7%" y="-2.4%" width="103.4%" height="109.5%" filterUnits="objectBoundingBox" id="filter-2">
            <feOffset dx="0" dy="3" in="SourceAlpha" result="shadowOffsetOuter1"></feOffset>
            <feGaussianBlur stdDeviation="1.5" in="shadowOffsetOuter1" result="shadowBlurOuter1"></feGaussianBlur>
            <feColorMatrix values="0 0 0 0 0   0 0 0 0 0   0 0 0 0 0  0 0 0 0.16 0" type="matrix" in="shadowBlurOuter1"></feColorMatrix>
        </filter>
        <path d="M158,329 L504,329 L504,329 C505.104569,329 506,328.104569 506,327 L506,223 L506,223 C506,221.895431 505.104569,221 504,221 L158,221 L158,221 C156.895431,221 156,221.895431 156,223 L156,327 L156,327 C156,328.104569 156.895431,329 158,329 Z" id="path-3"></path>
        <filter x="-1.7%" y="-2.8%" width="103.4%" height="111.1%" filterUnits="objectBoundingBox" id="filter-4">
            <feOffset dx="0" dy="3" in="SourceAlpha" result="shadowOffsetOuter1"></feOffset>
            <feGaussianBlur stdDeviation="1.5" in="shadowOffsetOuter1" result="shadowBlurOuter1"></feGaussianBlur>
            <feColorMatrix values="0 0 0 0 0   0 0 0 0 0   0 0 0 0 0  0 0 0 0.16 0" type="matrix" in="shadowBlurOuter1"></feColorMatrix>
        </filter>
        <path d="M158,147 L504,147 L504,147 C505.104569,147 506,146.104569 506,145 L506,60 L506,60 C506,58.8954305 505.104569,58 504,58 L158,58 L158,58 C156.895431,58 156,58.8954305 156,60 L156,145 L156,145 C156,146.104569 156.895431,147 158,147 Z" id="path-5"></path>
        <filter x="-1.7%" y="-3.4%" width="103.4%" height="113.5%" filterUnits="objectBoundingBox" id="filter-6">
            <feOffset dx="0" dy="3" in="SourceAlpha" result="shadowOffsetOuter1"></feOffset>
            <feGaussianBlur stdDeviation="1.5" in="shadowOffsetOuter1" result="shadowBlurOuter1"></feGaussianBlur>
            <feColorMatrix values="0 0 0 0 0   0 0 0 0 0   0 0 0 0 0  0 0 0 0.16 0" type="matrix" in="shadowBlurOuter1"></feColorMatrix>
        </filter>
    </defs>
    <g id="Page-1" stroke="none" stroke-width="1" fill="none" fill-rule="evenodd">
        <g id="toast-w-cta">
            <g id="Stroke-31-Copy-9">
                <use fill="black" fill-opacity="1" filter="url(#filter-2)" xlink:href="#path-1"></use>
                <use fill="#FFFFFF" fill-rule="evenodd" xlink:href="#path-1"></use>
            </g>
            <text id="We-have-begun-the-pr" font-family="Roboto-Regular, Roboto" font-size="14" font-weight="normal" fill="#424242">
                <tspan x="220" y="428">We have begun the process of </tspan>
                <tspan x="220" y="444">adding Damian DeMarco as a user. </tspan>
                <tspan x="220" y="460">You will receive confirmation upon </tspan>
                <tspan x="220" y="476">completion.  </tspan>
            </text>
            <path d="M489.211957,421.000107 L493.748652,416.463331 C494.083783,416.128194 494.083783,415.58649 493.748652,415.251353 C493.413521,414.916216 492.871826,414.916216 492.536695,415.251353 L488,419.788129 L483.463305,415.251353 C483.128174,414.916216 482.586479,414.916216 482.251348,415.251353 C481.916217,415.58649 481.916217,416.128194 482.251348,416.463331 L486.788043,421.000107 L482.251348,425.536883 C481.916217,425.87202 481.916217,426.413725 482.251348,426.748862 C482.418485,426.916001 482.637906,427 482.857327,427 C483.076747,427 483.296168,426.916001 483.463305,426.748862 L488,422.212085 L492.536695,426.748862 C492.703832,426.916001 492.923253,427 493.142673,427 C493.362094,427 493.581515,426.916001 493.748652,426.748862 C494.083783,426.413725 494.083783,425.87202 493.748652,425.536883 L489.211957,421.000107 Z" id="Fill-1" fill="#757575"></path>
            <text id="UNDO" font-family="Roboto-Medium, Roboto" font-size="13" font-weight="400" fill="#0C7C84">
                <tspan x="434" y="511">UNDO</tspan>
            </text>
            <path d="M192,451.695 C190.619,451.695 189.5,450.576 189.5,449.195 C189.5,447.814 190.619,446.695 192,446.695 C193.381,446.695 194.5,447.814 194.5,449.195 C194.5,450.576 193.381,451.695 192,451.695 M194.486,466.773 C194.479,467.258 194.226,467.527 193.734,467.524 C192.574,467.517 191.413,467.518 190.253,467.523 C189.757,467.526 189.519,467.24 189.512,466.758 C189.496,465.518 189.496,457.03 189.514,455.789 C189.521,455.305 189.776,455.029 190.266,455.034 C190.847,455.04 191.427,455.036 192.007,455.036 C192.566,455.036 193.126,455.046 193.686,455.032 C194.198,455.02 194.481,455.281 194.488,455.803 C194.505,457.044 194.504,465.532 194.486,466.773 M192,441 C183.178,441 176,448.179 176,457 C176,465.824 183.178,473 192,473 C200.822,473 208,465.824 208,457 C208,448.179 200.822,441 192,441" id="Info-Copy-5" fill="#3B44A9"></path>
            <g id="Stroke-31-Copy-9">
                <use fill="black" fill-opacity="1" filter="url(#filter-4)" xlink:href="#path-3"></use>
                <use fill="#FFFFFF" fill-rule="evenodd" xlink:href="#path-3"></use>
            </g>
            <text id="There-was-a-problem" font-family="Roboto-Regular, Roboto" font-size="14" font-weight="normal" fill="#424242">
                <tspan x="220" y="246">There was a problem resetting the </tspan>
                <tspan x="220" y="262">password for rse1@grseller2.com. </tspan>
                <tspan x="220" y="278">Please try again.</tspan>
            </text>
            <path d="M489.211957,239.000107 L493.748652,234.463331 C494.083783,234.128194 494.083783,233.58649 493.748652,233.251353 C493.413521,232.916216 492.871826,232.916216 492.536695,233.251353 L488,237.788129 L483.463305,233.251353 C483.128174,232.916216 482.586479,232.916216 482.251348,233.251353 C481.916217,233.58649 481.916217,234.128194 482.251348,234.463331 L486.788043,239.000107 L482.251348,243.536883 C481.916217,243.87202 481.916217,244.413725 482.251348,244.748862 C482.418485,244.916001 482.637906,245 482.857327,245 C483.076747,245 483.296168,244.916001 483.463305,244.748862 L488,240.212085 L492.536695,244.748862 C492.703832,244.916001 492.923253,245 493.142673,245 C493.362094,245 493.581515,244.916001 493.748652,244.748862 C494.083783,244.413725 494.083783,243.87202 493.748652,243.536883 L489.211957,239.000107 Z" id="Fill-1" fill="#757575"></path>
            <text id="TRY-AGAIN" font-family="Roboto-Medium, Roboto" font-size="14" font-weight="400" fill="#0C7C84">
                <tspan x="399.166016" y="309">TRY AGAIN</tspan>
            </text>
            <path d="M194.344,277.4 C194.334,277.675 194.101,277.9 193.825,277.9 L190.254,277.9 C189.98,277.9 189.747,277.675 189.74,277.4 L189.393,265.864 C189.385,265.589 189.603,265.364 189.878,265.364 L194.276,265.364 C194.551,265.364 194.768,265.589 194.758,265.864 L194.344,277.4 Z M194.344,284.292 C194.344,284.567 194.119,284.792 193.844,284.792 L190.273,284.792 C189.997,284.792 189.773,284.567 189.773,284.292 L189.773,280.697 C189.773,280.422 189.997,280.197 190.273,280.197 L193.844,280.197 C194.119,280.197 194.344,280.422 194.344,280.697 L194.344,284.292 Z M192,259 C183.199,259 176,266.2 176,275 C176,283.799 183.199,291 192,291 C200.8,291 208,283.799 208,275 C208,266.2 200.8,259 192,259 L192,259 Z" id="Fill-1-Copy-7" fill="#D32F2F"></path>
            <g id="Stroke-31-Copy-9">
                <use fill="black" fill-opacity="1" filter="url(#filter-6)" xlink:href="#path-5"></use>
                <use fill="#FFFFFF" fill-rule="evenodd" xlink:href="#path-5"></use>
            </g>
            <text id="The-password-has-bee" font-family="Roboto-Regular, Roboto" font-size="14" font-weight="normal" fill="#424242">
                <tspan x="220" y="83">The password has been reset for </tspan>
                <tspan x="220" y="99">rse1@grseller2.com</tspan>
            </text>
            <path d="M489.211957,76.0001071 L493.748652,71.463331 C494.083783,71.1281941 494.083783,70.5864895 493.748652,70.2513527 C493.413521,69.9162158 492.871826,69.9162158 492.536695,70.2513527 L488,74.7881288 L483.463305,70.2513527 C483.128174,69.9162158 482.586479,69.9162158 482.251348,70.2513527 C481.916217,70.5864895 481.916217,71.1281941 482.251348,71.463331 L486.788043,76.0001071 L482.251348,80.5368833 C481.916217,80.8720201 481.916217,81.4137248 482.251348,81.7488616 C482.418485,81.9160015 482.637906,82 482.857327,82 C483.076747,82 483.296168,81.9160015 483.463305,81.7488616 L488,77.2120855 L492.536695,81.7488616 C492.703832,81.9160015 492.923253,82 493.142673,82 C493.362094,82 493.581515,81.9160015 493.748652,81.7488616 C494.083783,81.4137248 494.083783,80.8720201 493.748652,80.5368833 L489.211957,76.0001071 Z" id="Fill-1" fill="#757575"></path>
            <text id="VIEW" font-family="Roboto-Medium, Roboto" font-size="14" font-weight="400" fill="#0C7C84">
                <tspan x="436" y="129">VIEW</tspan>
            </text>
            <path d="M117,99 L202,99 L202,99 C203.104569,99 204,99.8954305 204,101 L204,107 L115,107 L115,101 L115,101 C115,99.8954305 115.895431,99 117,99 Z" id="Rectangle-2-Copy-5" fill="#4CAF51" transform="translate(159.500000, 103.000000) rotate(-90.000000) translate(-159.500000, -103.000000) "></path>
            <path d="M187.328553,117.036375 L176.85296,105.602633 C175.695005,104.341198 175.719004,102.320351 176.906958,101.090825 C178.092912,99.8591714 179.990838,99.8868251 181.148793,101.150387 L188.996488,109.712398 L202.477964,87.4639312 C203.375929,85.9791401 205.235857,85.5558257 206.623803,86.5088148 C208.017749,87.4639312 208.419733,89.4379801 207.519768,90.9206439 L191.998371,116.538608 C191.504391,117.353329 190.684422,117.887258 189.774458,117.982982 C189.676462,117.993618 189.576466,118 189.476469,118 C188.672501,118 187.896531,117.655392 187.328553,117.036375 Z" id="Fill-1-Copy-6" fill="#4CAF51"></path>
            <path d="M108,271 L212,271 L212,271 C213.104569,271 214,271.895431 214,273 L214,279 L106,279 L106,273 L106,273 C106,271.895431 106.895431,271 108,271 Z" id="Rectangle-2-Copy-17" fill="#D32F2F" transform="translate(160.000000, 275.000000) rotate(-90.000000) translate(-160.000000, -275.000000) "></path>
            <path d="M102,464 L221,464 L221,464 C222.104569,464 223,464.895431 223,466 L223,472 L100,472 L100,466 L100,466 C100,464.895431 100.895431,464 102,464 Z" id="Rectangle-2-Copy-16" fill="#3B44A9" transform="translate(161.500000, 468.000000) rotate(-90.000000) translate(-161.500000, -468.000000) "></path>
            <text id="Success/-Confirmatio" font-family="Roboto-Bold, Roboto" font-size="14" font-weight="bold" fill="#9E9E9E">
                <tspan x="25" y="35">Success/ Confirmation</tspan>
            </text>
            <text id="Error-Copy-3" font-family="Roboto-Bold, Roboto" font-size="14" font-weight="bold" fill="#9E9E9E">
                <tspan x="25" y="198">Error</tspan>
            </text>
            <text id="Informational-Copy-2" font-family="Roboto-Bold, Roboto" font-size="14" font-weight="bold" fill="#9E9E9E">
                <tspan x="25" y="380">Informational</tspan>
            </text>
        </g>
    </g>
</svg>