<?xml version="1.0" encoding="UTF-8" standalone="no"?>
<svg width="636px" height="389px" viewBox="0 0 636 389" version="1.1" xmlns="http://www.w3.org/2000/svg" xmlns:xlink="http://www.w3.org/1999/xlink">
    <!-- Generator: Sketch 47.1 (45422) - http://www.bohemiancoding.com/sketch -->
    <title>toast-specifications</title>
    <desc>Created with Sketch.</desc>
    <style type="text/css">@import url('https://fonts.googleapis.com/css?family=Roboto:300,400,500');</style>
    <defs>
        <path d="M128,131 L474,131 L474,131 C475.104569,131 476,130.104569 476,129 L476,77 L476,77 C476,75.8954305 475.104569,75 474,75 L128,75 L128,75 C126.895431,75 126,75.8954305 126,77 L126,129 L126,129 C126,130.104569 126.895431,131 128,131 Z" id="path-1"></path>
        <filter x="-1.7%" y="-5.4%" width="103.4%" height="121.4%" filterUnits="objectBoundingBox" id="filter-2">
            <feOffset dx="0" dy="3" in="SourceAlpha" result="shadowOffsetOuter1"></feOffset>
            <feGaussianBlur stdDeviation="1.5" in="shadowOffsetOuter1" result="shadowBlurOuter1"></feGaussianBlur>
            <feColorMatrix values="0 0 0 0 0   0 0 0 0 0   0 0 0 0 0  0 0 0 0.16 0" type="matrix" in="shadowBlurOuter1"></feColorMatrix>
        </filter>
        <polygon id="path-3" points="7 3.5 0 7 0 0"></polygon>
        <circle id="path-4" cx="3.5" cy="3.5" r="3.5"></circle>
        <path d="M130,322 L476,322 L476,322 C477.104569,322 478,321.104569 478,320 L478,254 L478,254 C478,252.895431 477.104569,252 476,252 L130,252 L130,252 C128.895431,252 128,252.895431 128,254 L128,320 L128,320 C128,321.104569 128.895431,322 130,322 Z" id="path-5"></path>
        <filter x="-1.7%" y="-4.3%" width="103.4%" height="117.1%" filterUnits="objectBoundingBox" id="filter-6">
            <feOffset dx="0" dy="3" in="SourceAlpha" result="shadowOffsetOuter1"></feOffset>
            <feGaussianBlur stdDeviation="1.5" in="shadowOffsetOuter1" result="shadowBlurOuter1"></feGaussianBlur>
            <feColorMatrix values="0 0 0 0 0   0 0 0 0 0   0 0 0 0 0  0 0 0 0.16 0" type="matrix" in="shadowBlurOuter1"></feColorMatrix>
        </filter>
    </defs>
    <g id="Page-1" stroke="none" stroke-width="1" fill="none" fill-rule="evenodd">
        <g id="toast-specifications">
            <text id="Without-Call-to-Acti" font-family="Roboto-Bold, Roboto" font-size="14" font-weight="bold" fill="#9E9E9E">
                <tspan x="23" y="31">Without Call to Action (CTA)</tspan>
            </text>
            <text id="With-Call-to-Action" font-family="Roboto-Bold, Roboto" font-size="14" font-weight="bold" fill="#9E9E9E">
                <tspan x="23" y="227">With Call to Action (CTA)</tspan>
            </text>
            <g id="Stroke-31-Copy-9">
                <use fill="black" fill-opacity="1" filter="url(#filter-2)" xlink:href="#path-1"></use>
                <use fill="#FFFFFF" fill-rule="evenodd" xlink:href="#path-1"></use>
            </g>
            <text id="Notification-message" font-family="Roboto-Regular, Roboto" font-size="14" font-weight="normal" fill="#424242">
                <tspan x="190" y="99">Notification message goes here</tspan>
            </text>
            <path d="M104,99 L156,99 L156,99 C157.104569,99 158,99.8954305 158,101 L158,107 L102,107 L102,101 L102,101 C102,99.8954305 102.895431,99 104,99 Z" id="Rectangle-2-Copy-5" fill="#D8D8D8" transform="translate(130.000000, 103.000000) rotate(-90.000000) translate(-130.000000, -103.000000) "></path>
            <g id="specs-/-spacing-/-internal-/-V-12px" transform="translate(463.000000, 75.000000)">
                <rect id="Rectangle-5-Copy-10" fill="#F8CC96" fill-rule="evenodd" x="1" y="0" width="12" height="56"></rect>
                <text id="12-copy-4" font-family="Roboto-Regular, Roboto" font-size="12" font-weight="normal" fill="#333333">
                    <tspan x="0" y="31">12</tspan>
                </text>
            </g>
            <g id="specs-/-spacing-/-internal-/-V-12px" transform="translate(438.000000, 75.000000)">
                <rect id="Rectangle-5-Copy-10" fill="#F8CC96" fill-rule="evenodd" x="1" y="0" width="12" height="56"></rect>
                <text id="12-copy-4" font-family="Roboto-Regular, Roboto" font-size="12" font-weight="normal" fill="#333333">
                    <tspan x="0" y="31">12</tspan>
                </text>
            </g>
            <g id="specs-/-spacing-/-internal-/-V-12px" transform="translate(177.000000, 75.000000)">
                <rect id="Rectangle-5-Copy-10" fill="#F8CC96" fill-rule="evenodd" x="1" y="0" width="12" height="56"></rect>
                <text id="12-copy-4" font-family="Roboto-Regular, Roboto" font-size="12" font-weight="normal" fill="#333333">
                    <tspan x="0" y="31">12</tspan>
                </text>
            </g>
            <g id="specs-/-spacing-/-internal-/-V-12px" transform="translate(133.000000, 75.000000)">
                <rect id="Rectangle-5-Copy-10" fill="#F8CC96" fill-rule="evenodd" x="1" y="0" width="12" height="56"></rect>
                <text id="12-copy-4" font-family="Roboto-Regular, Roboto" font-size="12" font-weight="normal" fill="#333333">
                    <tspan x="0" y="31">12</tspan>
                </text>
            </g>
            <g id="specs-/-spacing-/-internal-/-H-12px" transform="translate(134.000000, 75.000000)">
                <rect id="Rectangle-3-Copy" fill="#F9CD94" fill-rule="evenodd" x="0" y="0" width="342" height="12"></rect>
                <text id="12" font-family="Roboto-Regular, Roboto" font-size="12" font-weight="normal" fill="#333333">
                    <tspan x="147.06" y="9">12</tspan>
                </text>
            </g>
            <g id="specs-/-spacing-/-internal-/-H-12px" transform="translate(134.000000, 119.000000)">
                <rect id="Rectangle-3-Copy" fill="#F9CD94" fill-rule="evenodd" x="0" y="0" width="342" height="12"></rect>
                <text id="12" font-family="Roboto-Regular, Roboto" font-size="12" font-weight="normal" fill="#333333">
                    <tspan x="147.06" y="9">12</tspan>
                </text>
            </g>
            <path d="M464.491938,91 L480,91" id="Stroke-8" stroke="#EC3F7A" transform="translate(472.000000, 91.500000) scale(-1, 1) translate(-472.000000, -91.500000) "></path>
            <path d="M489,91 C489,93.762 486.762,96 484,96 C481.238,96 479,93.761 479,91 C479.001,88.238 481.239,86 484.001,86 C486.763,86 489.001,88.239 489,91 Z" id="Path" stroke="#EC3F7A" fill-opacity="0.3" fill="#F03F7B" transform="translate(484.000000, 91.000000) scale(-1, 1) translate(-484.000000, -91.000000) "></path>
            <path d="M464.491938,134 L480,134" id="Stroke-8-Copy" stroke="#EC3F7A" transform="translate(472.000000, 134.500000) scale(-1, 1) translate(-472.000000, -134.500000) "></path>
            <path d="M489,134 C489,136.762 486.762,139 484,139 C481.238,139 479,136.761 479,134 C479.001,131.238 481.239,129 484.001,129 C486.763,129 489.001,131.239 489,134 Z" id="Path-Copy" stroke="#EC3F7A" fill-opacity="0.3" fill="#F03F7B" transform="translate(484.000000, 134.000000) scale(-1, 1) translate(-484.000000, -134.000000) "></path>
            <text id="redline-label" font-family="Roboto-Regular, Roboto" font-size="12" font-weight="normal" fill="#EC407A">
                <tspan x="492" y="92">“times” Icon, 12px,</tspan>
                <tspan x="492" y="106">#757575 (Gray 700)</tspan>
            </text>
            <text id="redline-label" font-family="Roboto-Regular, Roboto" font-size="12" font-weight="normal" fill="#EC407A">
                <tspan x="492" y="135">Drop shadow:</tspan>
                <tspan x="492" y="149">X:0, Y:3, Blur:3, Spread:0</tspan>
                <tspan x="492" y="163">#000000 (Gray 1000)</tspan>
                <tspan x="492" y="177">16% opacity</tspan>
            </text>
            <text id="redline-label" font-family="Roboto-Regular, Roboto" font-size="12" font-weight="normal" fill="#EC407A">
                <tspan x="217" y="63">Roboto, Regular, 14px, #424242 (Gray 900)</tspan>
            </text>
            <g id="specs-/-redlines-/-line-regular" transform="translate(205.000000, 74.000000) scale(1, -1) rotate(-90.000000) translate(-205.000000, -74.000000) translate(189.000000, 64.000000)">
                <path d="M3.5,19.5 L3.5,11.5 C3.5,7.081722 7.07465974,3.5 11.5049345,3.5 L31.5,3.5" id="redline-line" stroke="#EC407A" stroke-width="1"></path>
                <g id="specs-/-redlines-/-line-end-/-arrow" transform="translate(25.000000, 0.000000)">
                    <g id="redline-end">
                        <use fill="#FFFFFF" fill-rule="evenodd" xlink:href="#path-3"></use>
                        <path stroke="#EC407A" stroke-width="1" d="M5.88196601,3.5 L0.5,0.809016994 L0.5,6.19098301 L5.88196601,3.5 Z"></path>
                    </g>
                </g>
                <g id="specs-/-redlines-/-line-end-/-circle" transform="translate(0.000000, 13.000000)">
                    <g id="redline-start">
                        <use fill="#FFFFFF" fill-rule="evenodd" xlink:href="#path-4"></use>
                        <circle stroke="#EC407A" stroke-width="1" cx="3.5" cy="3.5" r="3"></circle>
                    </g>
                </g>
            </g>
            <text id="label" font-family="Roboto-Regular, Roboto" font-size="12" font-weight="normal" line-spacing="19" fill="#EC407A">
                <tspan x="284.111328" y="180">350 px</tspan>
            </text>
            <g id="specs-/-redlines-/-curly-brace" transform="translate(302.000000, 155.623762) rotate(-270.000000) translate(-302.000000, -155.623762) translate(288.376238, -19.376238)" stroke="#EC407A">
                <path d="M0,1.1589404 C26.8926694,1.1589404 0.0868454798,175 27,175" id="Path-2"></path>
                <path d="M0,175 C26.8926694,175 0.0868454798,348.84106 27,348.84106" id="Path-2-Copy" transform="translate(13.500000, 261.920530) scale(1, -1) translate(-13.500000, -261.920530) "></path>
            </g>
            <text id="label" font-family="Roboto-Regular, Roboto" font-size="12" font-weight="normal" line-spacing="19" fill="#EC407A">
                <tspan x="71.9609375" y="97">56 px </tspan>
                <tspan x="33.40625" y="116">(min. height)</tspan>
            </text>
            <g id="specs-/-redlines-/-curly-brace" transform="translate(112.500000, 105.000000) scale(-1, 1) translate(-112.500000, -105.000000) translate(103.000000, 74.000000)" stroke="#EC407A">
                <path d="M0,0.205298013 C18.924471,0.205298013 0.0611134858,31 19,31" id="Path-2"></path>
                <path d="M0,31 C18.924471,31 0.0611134858,61.794702 19,61.794702" id="Path-2-Copy" transform="translate(9.500000, 46.397351) scale(1, -1) translate(-9.500000, -46.397351) "></path>
            </g>
            <circle id="Oval" fill="#D8D8D8" cx="162" cy="103" r="16"></circle>
            <g id="Stroke-31-Copy-9">
                <use fill="black" fill-opacity="1" filter="url(#filter-6)" xlink:href="#path-5"></use>
                <use fill="#FFFFFF" fill-rule="evenodd" xlink:href="#path-5"></use>
            </g>
            <text id="Notification-message" font-family="Roboto-Regular, Roboto" font-size="14" font-weight="normal" fill="#424242">
                <tspan x="192" y="277">Notification message goes here</tspan>
            </text>
            <text id="CTA" font-family="Roboto-Medium, Roboto" font-size="14" font-weight="400" fill="#0C7C84">
                <tspan x="416" y="304">CTA</tspan>
            </text>
            <path d="M461.211957,270.000107 L465.748652,265.463331 C466.083783,265.128194 466.083783,264.58649 465.748652,264.251353 C465.413521,263.916216 464.871826,263.916216 464.536695,264.251353 L460,268.788129 L455.463305,264.251353 C455.128174,263.916216 454.586479,263.916216 454.251348,264.251353 C453.916217,264.58649 453.916217,265.128194 454.251348,265.463331 L458.788043,270.000107 L454.251348,274.536883 C453.916217,274.87202 453.916217,275.413725 454.251348,275.748862 C454.418485,275.916001 454.637906,276 454.857327,276 C455.076747,276 455.296168,275.916001 455.463305,275.748862 L460,271.212085 L464.536695,275.748862 C464.703832,275.916001 464.923253,276 465.142673,276 C465.362094,276 465.581515,275.916001 465.748652,275.748862 C466.083783,275.413725 466.083783,274.87202 465.748652,274.536883 L461.211957,270.000107 Z" id="Fill-1" fill="#757575"></path>
            <path d="M459.211957,93.0001071 L463.748652,88.463331 C464.083783,88.1281941 464.083783,87.5864895 463.748652,87.2513527 C463.413521,86.9162158 462.871826,86.9162158 462.536695,87.2513527 L458,91.7881288 L453.463305,87.2513527 C453.128174,86.9162158 452.586479,86.9162158 452.251348,87.2513527 C451.916217,87.5864895 451.916217,88.1281941 452.251348,88.463331 L456.788043,93.0001071 L452.251348,97.5368833 C451.916217,97.8720201 451.916217,98.4137248 452.251348,98.7488616 C452.418485,98.9160015 452.637906,99 452.857327,99 C453.076747,99 453.296168,98.9160015 453.463305,98.7488616 L458,94.2120855 L462.536695,98.7488616 C462.703832,98.9160015 462.923253,99 463.142673,99 C463.362094,99 463.581515,98.9160015 463.748652,98.7488616 C464.083783,98.4137248 464.083783,97.8720201 463.748652,97.5368833 L459.211957,93.0001071 Z" id="Fill-1" fill="#757575"></path>
            <circle id="Oval-Copy" fill="#D8D8D8" cx="164" cy="287" r="16"></circle>
            <g id="specs-/-spacing-/-internal-/-V-12px" transform="translate(465.000000, 252.000000)">
                <rect id="Rectangle-5-Copy-10" fill="#F8CC96" fill-rule="evenodd" x="1" y="0" width="12" height="70"></rect>
                <text id="12-copy-4" font-family="Roboto-Regular, Roboto" font-size="12" font-weight="normal" fill="#333333">
                    <tspan x="0" y="38">12</tspan>
                </text>
            </g>
            <g id="specs-/-spacing-/-internal-/-V-12px" transform="translate(135.000000, 252.000000)">
                <rect id="Rectangle-5-Copy-10" fill="#F8CC96" fill-rule="evenodd" x="1" y="0" width="12" height="70"></rect>
                <text id="12-copy-4" font-family="Roboto-Regular, Roboto" font-size="12" font-weight="normal" fill="#333333">
                    <tspan x="0" y="38">12</tspan>
                </text>
            </g>
            <g id="specs-/-spacing-/-internal-/-H-12px" transform="translate(135.000000, 252.000000)">
                <rect id="Rectangle-3-Copy" fill="#F9CD94" fill-rule="evenodd" x="0" y="0" width="342" height="12"></rect>
                <text id="12" font-family="Roboto-Regular, Roboto" font-size="12" font-weight="normal" fill="#333333">
                    <tspan x="147.06" y="9">12</tspan>
                </text>
            </g>
            <g id="specs-/-spacing-/-internal-/-H-12px" transform="translate(135.000000, 310.000000)">
                <rect id="Rectangle-3-Copy" fill="#F9CD94" fill-rule="evenodd" x="0" y="0" width="342" height="12"></rect>
                <text id="12" font-family="Roboto-Regular, Roboto" font-size="12" font-weight="normal" fill="#333333">
                    <tspan x="147.06" y="9">12</tspan>
                </text>
            </g>
            <g id="specs-/-spacing-/-internal-/-H-08px" transform="translate(181.000000, 286.000000)">
                <rect id="Rectangle-3" fill="#F9CD94" fill-rule="evenodd" x="0" y="0" width="272" height="8"></rect>
                <text id="8" font-family="Roboto-Regular, Roboto" font-size="10" font-weight="normal" fill="#333333">
                    <tspan x="125.263158" y="6">8</tspan>
                </text>
            </g>
            <text id="redline-label" font-family="Roboto-Regular, Roboto" font-size="12" font-weight="normal" fill="#EC407A">
                <tspan x="172.900391" y="337">Icons: 32px x 32px</tspan>
            </text>
            <path d="M99,283 L165,283 L165,283 C166.104569,283 167,283.895431 167,285 L167,291 L97,291 L97,285 L97,285 C97,283.895431 97.8954305,283 99,283 Z" id="Rectangle-2-Copy-6" fill="#D8D8D8" transform="translate(132.000000, 287.000000) rotate(-90.000000) translate(-132.000000, -287.000000) "></path>
            <path d="M164.001,328 C166.763,328 169.001,330.239 169,333 C169,335.762 166.762,338 164,338 C161.238,338 159,335.761 159,333 C159.001,330.238 161.239,328 164.001,328" id="Path" stroke="#EC3F7A" fill-opacity="0.3" fill="#F03F7B"></path>
            <text id="redline-label" font-family="Roboto-Regular, Roboto" font-size="12" font-weight="normal" fill="#EC407A">
                <tspan x="141" y="350">8px wide</tspan>
            </text>
            <path d="M132.001,341 C134.763,341 137.001,343.239 137,346 C137,348.762 134.762,351 132,351 C129.238,351 127,348.761 127,346 C127.001,343.238 129.239,341 132.001,341" id="Path" stroke="#EC3F7A" fill-opacity="0.3" fill="#F03F7B"></path>
            <g id="specs-/-spacing-/-internal-/-V-12px" transform="translate(440.000000, 252.000000)">
                <rect id="Rectangle-5-Copy-10" fill="#F8CC96" fill-rule="evenodd" x="1" y="0" width="12" height="70"></rect>
                <text id="12-copy-4" font-family="Roboto-Regular, Roboto" font-size="12" font-weight="normal" fill="#333333">
                    <tspan x="0" y="38">12</tspan>
                </text>
            </g>
            <g id="specs-/-spacing-/-internal-/-V-12px" transform="translate(179.000000, 252.000000)">
                <rect id="Rectangle-5-Copy-10" fill="#F8CC96" fill-rule="evenodd" x="1" y="0" width="12" height="70"></rect>
                <text id="12-copy-4" font-family="Roboto-Regular, Roboto" font-size="12" font-weight="normal" fill="#333333">
                    <tspan x="0" y="38">12</tspan>
                </text>
            </g>
            <text id="redline-label" font-family="Roboto-Regular, Roboto" font-size="12" font-weight="normal" fill="#EC407A">
                <tspan x="495" y="303">Roboto, Medium, </tspan>
                <tspan x="495" y="317">14px, #0c7c84 </tspan>
                <tspan x="495" y="331">(Cyan 900)</tspan>
            </text>
            <path d="M441.491938,301 L479.503289,301" id="Stroke-8-Copy-2" stroke="#EC3F7A" transform="translate(460.500000, 301.500000) scale(-1, 1) translate(-460.500000, -301.500000) "></path>
            <path d="M489,301 C489,303.762 486.762,306 484,306 C481.238,306 479,303.761 479,301 C479.001,298.238 481.239,296 484.001,296 C486.763,296 489.001,298.239 489,301 Z" id="Path-Copy-2" stroke="#EC3F7A" fill-opacity="0.3" fill="#F03F7B" transform="translate(484.000000, 301.000000) scale(-1, 1) translate(-484.000000, -301.000000) "></path>
            <path d="M164,302 L164,327.783694" id="Stroke-8" stroke="#EC3F7A"></path>
            <path d="M132,315 L132,340.783694" id="Stroke-8-Copy-7" stroke="#EC3F7A"></path>
        </g>
    </g>
</svg>