<?xml version="1.0" encoding="UTF-8" standalone="no"?>
<svg width="346px" height="346px" viewBox="0 0 346 346" version="1.1" xmlns="http://www.w3.org/2000/svg" xmlns:xlink="http://www.w3.org/1999/xlink">
    <!-- Generator: Sketch 47.1 (45422) - http://www.bohemiancoding.com/sketch -->
    <title>Artboard 4</title>
    <desc>Created with Sketch.</desc>
    <style type="text/css">@import url('https://fonts.googleapis.com/css?family=Roboto:300,400,500');</style>
    <defs>
        <rect id="path-1" x="0" y="0" width="210" height="150"></rect>
        <rect id="path-2" x="0" y="0" width="210" height="150"></rect>
        <filter x="-2.6%" y="-2.3%" width="105.2%" height="107.3%" filterUnits="objectBoundingBox" id="filter-3">
            <feOffset dx="0" dy="2" in="SourceAlpha" result="shadowOffsetOuter1"></feOffset>
            <feGaussianBlur stdDeviation="1.5" in="shadowOffsetOuter1" result="shadowBlurOuter1"></feGaussianBlur>
            <feComposite in="shadowBlurOuter1" in2="SourceAlpha" operator="out" result="shadowBlurOuter1"></feComposite>
            <feColorMatrix values="0 0 0 0 0   0 0 0 0 0   0 0 0 0 0  0 0 0 0.25 0" type="matrix" in="shadowBlurOuter1"></feColorMatrix>
        </filter>
        <rect id="path-4" x="0" y="0" width="210" height="150"></rect>
        <rect id="path-5" x="0" y="0" width="210" height="150"></rect>
        <polygon id="path-6" points="12.5000625 17.5 25 17.5 25 0 12.5000625 0 0.000125 0 0.000125 17.5"></polygon>
    </defs>
    <g id="Page-1" stroke="none" stroke-width="1" fill="none" fill-rule="evenodd">
        <g id="Artboard-4" transform="translate(-237.000000, -333.000000)">
            <text id="Topic" font-family="Roboto-Light, Roboto" font-size="24" font-weight="300" line-spacing="28" fill="#424242">
                <tspan x="302" y="386">Topic</tspan>
            </text>
            <circle id="Oval-Copy-6" fill="#16B9D4" cx="256" cy="373" r="20"></circle>
            <text id="2-copy-2" font-family="Roboto-Regular, Roboto" font-size="24" font-weight="normal" line-spacing="28" letter-spacing="1.92857099" fill="#FFFFFF">
                <tspan x="250" y="382">2</tspan>
            </text>
            <text id="Technical-Incident" font-family="Roboto-Medium, Roboto" font-size="18" font-weight="400" fill="#424243">
                <tspan x="545" y="377">Technical Incident</tspan>
            </text>
            <g id="Group-11-Copy" transform="translate(525.000000, 589.000000)">
                <g id="panels-/-default">
                    <g id="Rectangle-3-Copy-2">
                        <use fill="#FFFFFF" fill-rule="evenodd" xlink:href="#path-1"></use>
                        <rect stroke="#E0E0E0" stroke-width="1" x="0.5" y="0.5" width="209" height="149"></rect>
                    </g>
                </g>
                <text id="ACCOUNT" font-family="Roboto-Bold, Roboto" font-size="16" font-weight="bold" line-spacing="18" fill="#333333">
                    <tspan x="54.5070312" y="65.1015625">ACCOUNT</tspan>
                </text>
                <text id="account-access,-acco" font-family="Roboto-Regular, Roboto" font-size="14" font-weight="normal" line-spacing="18" fill="#333333">
                    <tspan x="26.0006836" y="89.5">account access, account </tspan>
                    <tspan x="12.2741211" y="107.5">settings, contact information, </tspan>
                    <tspan x="45.1652344" y="125.5">or managing users</tspan>
                </text>
            </g>
            <g id="Group-11-Copy-2" transform="translate(302.000000, 425.000000)">
                <g id="panels-/-selected">
                    <g id="Rectangle-3-Copy-2">
                        <use fill="black" fill-opacity="1" filter="url(#filter-3)" xlink:href="#path-2"></use>
                        <use fill="#FFFFFF" fill-rule="evenodd" xlink:href="#path-2"></use>
                        <rect stroke="#28B8D3" stroke-width="2" x="1" y="1" width="208" height="148"></rect>
                    </g>
                </g>
                <text id="TECHNICAL-INCIDENT" font-family="Roboto-Bold, Roboto" font-size="16" font-weight="bold" line-spacing="18" fill="#333333">
                    <tspan x="12.3867188" y="69.1015625">TECHNICAL INCIDENT</tspan>
                </text>
                <text id="An-unplanned-interru" font-family="Roboto-Regular, Roboto" font-size="14" font-weight="normal" line-spacing="18" fill="#333333">
                    <tspan x="17.0566406" y="97">An unplanned interruption or </tspan>
                    <tspan x="22.5664062" y="115">reduction in service quality</tspan>
                </text>
            </g>
            <g id="Group-18" transform="translate(301.000000, 589.000000)">
                <g id="panels-/-default">
                    <g id="Rectangle-3-Copy-2">
                        <use fill="#FFFFFF" fill-rule="evenodd" xlink:href="#path-4"></use>
                        <rect stroke="#E0E0E0" stroke-width="1" x="0.5" y="0.5" width="209" height="149"></rect>
                    </g>
                </g>
                <text id="BILLING-&amp;-PAYMENT" font-family="Roboto-Bold, Roboto" font-size="16" font-weight="bold" line-spacing="18" fill="#333333">
                    <tspan x="18.4101562" y="65.1015625">BILLING &amp; PAYMENT</tspan>
                </text>
                <text id="my-bill,-usage,-my-p" font-family="Roboto-Regular, Roboto" font-size="14" font-weight="normal" line-spacing="18" fill="#333333">
                    <tspan x="18.0538195" y="94.5">my bill, usage, my payments </tspan>
                    <tspan x="44.9771593" y="112.5">or payment options</tspan>
                </text>
            </g>
            <g id="Group-11-Copy-4" transform="translate(523.000000, 425.000000)">
                <g id="panels-/-default" transform="translate(3.000000, 0.000000)">
                    <g id="Rectangle-3-Copy-2">
                        <use fill="#FFFFFF" fill-rule="evenodd" xlink:href="#path-5"></use>
                        <rect stroke="#E0E0E0" stroke-width="1" x="0.5" y="0.5" width="209" height="149"></rect>
                    </g>
                </g>
                <text id="TECHNICAL-CHANGE" font-family="Roboto-Bold, Roboto" font-size="16" font-weight="bold" line-spacing="18" fill="#333333">
                    <tspan x="19.1796875" y="69.6015625">TECHNICAL CHANGE</tspan>
                </text>
                <text id="Add/remove/modify-in" font-family="Roboto-Regular, Roboto" font-size="14" font-weight="normal" line-spacing="18" fill="#333333">
                    <tspan x="42.609375" y="98.5">Add/remove/modify </tspan>
                    <tspan x="63.5239258" y="116.5">infrastructure</tspan>
                </text>
            </g>
            <g id="Page-1-Copy" transform="translate(394.000000, 444.000000)" fill="#757575">
                <polygon id="Fill-1" points="3.22528452 5.82343038 8.60075872 5.82343038 8.60075872 3.49405823 3.22528452 3.49405823"></polygon>
                <polygon id="Fill-2" points="3.22528452 12.8115468 8.60075872 12.8115468 8.60075872 10.4821747 3.22528452 10.4821747"></polygon>
                <polygon id="Fill-3" points="3.22528452 19.7996633 8.60075872 19.7996633 8.60075872 17.4702912 3.22528452 17.4702912"></polygon>
                <g id="Group-21">
                    <path d="M15.0513278,4.65874431 C15.0513278,5.30281571 14.5696853,5.82343038 13.9762329,5.82343038 C13.3827806,5.82343038 12.9011381,5.30281571 12.9011381,4.65874431 C12.9011381,4.01583759 13.3827806,3.49405823 13.9762329,3.49405823 C14.5696853,3.49405823 15.0513278,4.01583759 15.0513278,4.65874431 Z" id="Fill-4"></path>
                    <path d="M18.2766123,4.65874431 C18.2766123,5.30281571 17.7949698,5.82343038 17.2015174,5.82343038 C16.6080651,5.82343038 16.1264226,5.30281571 16.1264226,4.65874431 C16.1264226,4.01583759 16.6080651,3.49405823 17.2015174,3.49405823 C17.7949698,3.49405823 18.2766123,4.01583759 18.2766123,4.65874431" id="Fill-6"></path>
                    <path d="M15.0513278,11.6468608 C15.0513278,12.2909322 14.5696853,12.8115468 13.9762329,12.8115468 C13.3827806,12.8115468 12.9011381,12.2909322 12.9011381,11.6468608 C12.9011381,11.0039541 13.3827806,10.4821747 13.9762329,10.4821747 C14.5696853,10.4821747 15.0513278,11.0039541 15.0513278,11.6468608" id="Fill-8"></path>
                    <path d="M18.2766123,11.6468608 C18.2766123,12.2909322 17.7949698,12.8115468 17.2015174,12.8115468 C16.6080651,12.8115468 16.1264226,12.2909322 16.1264226,11.6468608 C16.1264226,11.0039541 16.6080651,10.4821747 17.2015174,10.4821747 C17.7949698,10.4821747 18.2766123,11.0039541 18.2766123,11.6468608" id="Fill-10"></path>
                    <path d="M15.0513278,18.6349772 C15.0513278,19.2790486 14.5696853,19.7996633 13.9762329,19.7996633 C13.3827806,19.7996633 12.9011381,19.2790486 12.9011381,18.6349772 C12.9011381,17.9920705 13.3827806,17.4702912 13.9762329,17.4702912 C14.5696853,17.4702912 15.0513278,17.9920705 15.0513278,18.6349772" id="Fill-12"></path>
                    <path d="M18.2766123,18.6349772 C18.2766123,19.2790486 17.7949698,19.7996633 17.2015174,19.7996633 C16.6080651,19.7996633 16.1264226,19.2790486 16.1264226,18.6349772 C16.1264226,17.9920705 16.6080651,17.4702912 17.2015174,17.4702912 C17.7949698,17.4702912 18.2766123,17.9920705 18.2766123,18.6349772" id="Fill-14"></path>
                    <path d="M2.15018968,9.31748861 L19.350632,9.31748861 L19.3495569,13.9762329 L2.15018968,13.9762329 L2.15018968,9.31748861 Z M2.15018968,2.32937215 L19.3517071,2.32937215 L19.350632,6.98811646 L2.15018968,6.98811646 L2.15018968,2.32937215 Z M19.3517071,20.9643494 L19.3484818,20.9573613 L19.3484818,20.9643494 L2.15018968,20.9643494 L2.15018968,16.3056051 L19.3495569,16.3056051 L19.3495569,16.3102638 L19.3517071,16.3056051 L19.3517071,13.9762329 L21.5018968,13.9762329 L21.5018968,2.32937215 C21.5018968,1.04472341 20.5375367,0 19.3517071,0 L2.15018968,0 C0.964360072,0 0,1.04472341 0,2.32937215 L0,20.9643494 C0,22.2478334 0.964360072,23.2937215 2.15018968,23.2937215 L19.3517071,23.2937215 L19.3517071,20.9643494 Z" id="Fill-16"></path>
                </g>
            </g>
            <g id="Page-1" transform="translate(390.000000, 610.000000)">
                <g id="Group-3">
                    <mask id="mask-7" fill="white">
                        <use xlink:href="#path-6"></use>
                    </mask>
                    <g id="Clip-2"></g>
                    <path d="M10.517625,15 L2.500125,6.9825 L2.500125,2.5 L14.482625,2.5 L22.500125,10.5175 L22.500125,15 L10.517625,15 Z M2.500125,10.5175 L6.982625,15 L2.500125,15 L2.500125,10.5175 Z M22.500125,6.9825 L18.017625,2.5 L22.500125,2.5 L22.500125,6.9825 Z M23.750125,0 L1.250125,0 C0.560125,0 0.000125,0.56 0.000125,1.25 L0.000125,16.25 C0.000125,16.94 0.560125,17.5 1.250125,17.5 L23.750125,17.5 C24.440125,17.5 25.000125,16.94 25.000125,16.25 L25.000125,1.25 C25.000125,0.56 24.440125,0 23.750125,0 L23.750125,0 Z" id="Fill-1" fill="#757575" mask="url(#mask-7)"></path>
                </g>
                <path d="M12.5,11.25 C11.12125,11.25 10,10.1275 10,8.75 C10,7.3725 11.12125,6.25 12.5,6.25 C13.87875,6.25 15,7.3725 15,8.75 C15,10.1275 13.87875,11.25 12.5,11.25 M12.5,3.75 C9.7425,3.75 7.5,5.9925 7.5,8.75 C7.5,11.5075 9.7425,13.75 12.5,13.75 C15.2575,13.75 17.5,11.5075 17.5,8.75 C17.5,5.9925 15.2575,3.75 12.5,3.75" id="Fill-4" fill="#757575"></path>
            </g>
            <g id="Group-2" transform="translate(410.000000, 454.000000)">
                <circle id="Oval-2" stroke="#FFFFFF" fill="#FFFFFF" cx="6" cy="8.88461538" r="5.07692308"></circle>
                <path d="M6.5,0.423076923 C7.91053846,6.06353846 4.80769231,7.82692308 4.80769231,7.82692308 L4.80769231,4.96438462 C3.36330769,5.59223077 2.26923077,7.10938462 2.26923077,8.88461538 C2.26923077,11.2216923 4.16292308,13.1153846 6.5,13.1153846 C8.83707692,13.1153846 10.7307692,11.2216923 10.7307692,8.88461538 C10.7307692,6.70492308 10.7307692,4.65384615 6.5,0.423076923" id="Fill-3" fill="#757575"></path>
            </g>
            <g id="Group-4" transform="translate(494.000000, 427.000000)">
                <rect id="Rectangle" fill="#16B9D4" x="0" y="0" width="16" height="16"></rect>
                <path d="M7,11 C7.018,11 7.037,11 7.055,10.999 C7.339,10.983 7.603,10.847 7.781,10.625 L11.781,5.625 C11.928,5.44 12,5.22 12,5 C12,4.707 11.872,4.417 11.625,4.219 C11.44,4.072 11.22,4 11,4 C10.707,4 10.417,4.129 10.219,4.375 L6.917,8.503 L5.707,7.293 C5.512,7.098 5.256,7 5,7 C4.744,7 4.488,7.098 4.293,7.293 C4.098,7.488 4,7.744 4,8 C4,8.256 4.097,8.512 4.293,8.707 L6.293,10.707 C6.481,10.895 6.736,11 7,11" id="Fill-71" fill="#FFFFFF"></path>
            </g>
        </g>
    </g>
</svg>