<?xml version="1.0" encoding="UTF-8" standalone="no"?>
<svg width="541px" height="302px" viewBox="0 0 541 302" version="1.1" xmlns="http://www.w3.org/2000/svg" xmlns:xlink="http://www.w3.org/1999/xlink">
    <!-- Generator: Sketch 47.1 (45422) - http://www.bohemiancoding.com/sketch -->
    <title>choice-tile-default</title>
    <desc>Created with Sketch.</desc>
    <style type="text/css">@import url('https://fonts.googleapis.com/css?family=Roboto:300,400,500');</style>
    <defs>
        <rect id="path-1" x="0" y="0" width="220" height="135"></rect>
        <polygon id="path-2" points="7 3.5 0 7 0 0"></polygon>
        <circle id="path-3" cx="3.5" cy="3.5" r="3.5"></circle>
    </defs>
    <g id="Page-1" stroke="none" stroke-width="1" fill="none" fill-rule="evenodd">
        <g id="choice-tile-default">
            <g id="specs-/-redlines-/-label" transform="translate(363.000000, 175.000000)" font-size="12" font-family="Roboto-Regular, Roboto" fill="#EC407A" font-weight="normal">
                <text id="redline-label">
                    <tspan x="0" y="12.75">Description (Optional)</tspan>
                </text>
            </g>
            <g id="specs-/-redlines-/-label" transform="translate(363.000000, 144.000000)" font-size="12" font-family="Roboto-Regular, Roboto" fill="#EC407A" font-weight="normal">
                <text id="redline-label">
                    <tspan x="0" y="12.75">Heading</tspan>
                </text>
            </g>
            <g id="specs-/-redlines-/-label" transform="translate(363.000000, 60.000000)" font-size="12" font-family="Roboto-Regular, Roboto" fill="#EC407A" font-weight="normal">
                <text id="redline-label">
                    <tspan x="0" y="12.75">Icon</tspan>
                </text>
            </g>
            <g id="Md" transform="translate(99.000000, 85.000000)">
                <g id="Md-Content">
                    <g id="Rectangle-12-Copy">
                        <use fill="#FFFFFF" fill-rule="evenodd" xlink:href="#path-1"></use>
                        <rect stroke="#E0E0E0" stroke-width="1" x="0.5" y="0.5" width="219" height="134"></rect>
                    </g>
                    <text id="file-image-o---FontAwesome" font-family="FontAwesome" font-size="30" font-weight="normal" fill="#757575">
                        <tspan x="97" y="42"></tspan>
                    </text>
                    <text id="OPTION-1" font-family="Roboto-Bold, Roboto" font-size="16" font-weight="bold" line-spacing="18" fill="#333333">
                        <tspan x="62.65625" y="70.6015625">OPTION 1</tspan>
                    </text>
                    <text id="A-short-description" font-family="Roboto-Regular, Roboto" font-size="14" font-weight="normal" line-spacing="18" fill="#333333">
                        <tspan x="27.9038086" y="98.5">A short description or help </tspan>
                        <tspan x="98.2490234" y="116.5">text</tspan>
                    </text>
                </g>
            </g>
            <g id="specs-/-redlines-/-line-regular" transform="translate(282.000000, 83.000000) scale(-1, 1) rotate(-270.000000) translate(-282.000000, -83.000000) translate(264.000000, 5.000000)">
                <path d="M3.5,155.5 L3.5,19.4972699 C3.5,10.6622217 10.6615011,3.5 19.5,3.5 L35.5,3.5" id="redline-line" stroke="#EC407A" stroke-width="1"></path>
                <g id="specs-/-redlines-/-line-end-/-arrow" transform="translate(29.000000, 0.000000)">
                    <g id="redline-end">
                        <use fill="#FFFFFF" fill-rule="evenodd" xlink:href="#path-2"></use>
                        <path stroke="#EC407A" stroke-width="1" d="M5.88196601,3.5 L0.5,0.809016994 L0.5,6.19098301 L5.88196601,3.5 Z"></path>
                    </g>
                </g>
                <g id="specs-/-redlines-/-line-end-/-circle" transform="translate(0.000000, 149.000000)">
                    <g id="redline-start">
                        <use fill="#FFFFFF" fill-rule="evenodd" xlink:href="#path-3"></use>
                        <circle stroke="#EC407A" stroke-width="1" cx="3.5" cy="3.5" r="3"></circle>
                    </g>
                </g>
            </g>
            <g id="specs-/-redlines-/-line-straight" transform="translate(300.000000, 152.000000) rotate(-180.000000) translate(-300.000000, -152.000000) translate(244.000000, 147.000000)" stroke="#EC3F7A">
                <path d="M10,5 L112,5" id="Stroke-8"></path>
                <path d="M5.00099983,0 C7.76299974,0 10.0009997,2.239 9.99999967,5 C9.99999967,7.762 7.76199974,10 4.99999983,10 C2.23799993,10 0,7.761 0,5 C0.000999999967,2.238 2.23899992,0 5.00099983,0" id="Path" fill-opacity="0.3" fill="#F03F7B" fill-rule="evenodd"></path>
            </g>
            <g id="specs-/-redlines-/-line-straight" transform="translate(325.000000, 182.000000) rotate(-180.000000) translate(-325.000000, -182.000000) translate(293.000000, 177.000000)" stroke="#EC3F7A">
                <path d="M10,5 L64,5" id="Stroke-8"></path>
                <path d="M5.00099983,0 C7.76299974,0 10.0009997,2.239 9.99999967,5 C9.99999967,7.762 7.76199974,10 4.99999983,10 C2.23799993,10 0,7.761 0,5 C0.000999999967,2.238 2.23899992,0 5.00099983,0" id="Path" fill-opacity="0.3" fill="#F03F7B" fill-rule="evenodd"></path>
            </g>
            <g id="specs-/-redlines-/-label" transform="translate(391.000000, 202.000000)" font-size="12" font-family="Roboto-Regular, Roboto" fill="#EC407A" font-weight="normal">
                <text id="redline-label">
                    <tspan x="0" y="12.75">Tile</tspan>
                </text>
            </g>
            <g id="specs-/-redlines-/-line-straight" transform="translate(352.000000, 209.000000) rotate(-180.000000) translate(-352.000000, -209.000000) translate(320.000000, 204.000000)" stroke="#EC3F7A">
                <path d="M10,5 L64,5" id="Stroke-8"></path>
                <path d="M5.00099983,0 C7.76299974,0 10.0009997,2.239 9.99999967,5 C9.99999967,7.762 7.76199974,10 4.99999983,10 C2.23799993,10 0,7.761 0,5 C0.000999999967,2.238 2.23899992,0 5.00099983,0" id="Path" fill-opacity="0.3" fill="#F03F7B" fill-rule="evenodd"></path>
            </g>
        </g>
    </g>
</svg>