<?xml version="1.0" encoding="UTF-8" standalone="no"?>
<svg width="883px" height="297px" viewBox="0 0 883 297" version="1.1" xmlns="http://www.w3.org/2000/svg" xmlns:xlink="http://www.w3.org/1999/xlink">
    <!-- Generator: Sketch 47.1 (45422) - http://www.bohemiancoding.com/sketch -->
    <title>tables-hero-top</title>
    <desc>Created with Sketch.</desc>
    <defs></defs>
    <g id="Page-1" stroke="none" stroke-width="1" fill="none" fill-rule="evenodd">
        <g id="tables-hero-top">
            <g id="Group-7" transform="translate(0.000000, 50.000000)">
                <g id="Table-Example-/-Default-/-Check-boxes-Copy-2" transform="translate(0.350000, 48.400000)">
                    <g id="Table-Header">
                        <text id="size" fill="#333333" font-family="Roboto-Regular, Roboto" font-size="12.6" font-weight="normal">
                            <tspan x="814.340039" y="12.0924805">size</tspan>
                        </text>
                        <text id="Region" fill="#333333" font-family="Roboto-Regular, Roboto" font-size="12.6" font-weight="normal">
                            <tspan x="410.4" y="14">Region</tspan>
                        </text>
                        <text id="Tags" fill="#333333" font-family="Roboto-Regular, Roboto" font-size="12.6" font-weight="normal">
                            <tspan x="230.4" y="14">Tags</tspan>
                        </text>
                        <text id="Column-heading-1" fill="#333333" font-family="Roboto-Regular, Roboto" font-size="12.6" font-weight="normal">
                            <tspan x="50.4" y="14">Column heading 1</tspan>
                        </text>
                        <path d="M0,30.8 L864,30.8" id="Line" stroke="#E0E0E0" stroke-width="0.9" stroke-linecap="square"></path>
                    </g>
                    <g id="Group" transform="translate(0.000000, 46.800000)">
                        <g id="Table-/-Row-/-Default" transform="translate(0.000000, 0.200000)">
                            <g id="First-Column" transform="translate(51.000000, 1.000000)" font-size="14.4" font-family="Roboto-Regular, Roboto" fill="#0D74D1" font-weight="normal">
                                <text id="My-Cloud-Server-01">
                                    <tspan x="0.3" y="13.8">My Cloud Server-01</tspan>
                                </text>
                            </g>
                            <g id="Second-Column" transform="translate(231.000000, 0.000000)" font-size="14.4" font-family="Roboto-Regular, Roboto" fill="#333333" font-weight="normal">
                                <text id="Production">
                                    <tspan x="0.3" y="13">Production</tspan>
                                </text>
                            </g>
                            <g id="Third-Column" transform="translate(411.000000, 0.000000)" font-size="14.4" font-family="Roboto-Regular, Roboto" fill="#333333" font-weight="normal">
                                <text id="Chicago-(ORD)">
                                    <tspan x="0.3" y="13">Chicago (ORD)</tspan>
                                </text>
                            </g>
                            <g id="Last-Column" transform="translate(800.000000, 0.000000)" font-size="14.4" font-family="Roboto-Regular, Roboto" fill="#333333" font-weight="normal">
                                <text id="256-GB">
                                    <tspan x="0.303906" y="13">256 GB</tspan>
                                </text>
                            </g>
                            <path d="M0,34.2725806 L864,34.2725806" id="Stroke-11" stroke="#E0E0E0" stroke-width="0.9"></path>
                        </g>
                        <g id="Table-/-Row-/-Default" transform="translate(0.000000, 50.350000)">
                            <g id="First-Column" transform="translate(51.000000, 1.000000)" font-size="14.4" font-family="Roboto-Regular, Roboto" fill="#0D74D1" font-weight="normal">
                                <text id="My-Cloud-Server-01">
                                    <tspan x="0.3" y="13.8">My Cloud Server-01</tspan>
                                </text>
                            </g>
                            <g id="Second-Column" transform="translate(231.000000, 0.000000)" font-size="14.4" font-family="Roboto-Regular, Roboto" fill="#333333" font-weight="normal">
                                <text id="Production">
                                    <tspan x="0.3" y="13">Production</tspan>
                                </text>
                            </g>
                            <g id="Third-Column" transform="translate(411.000000, 0.000000)" font-size="14.4" font-family="Roboto-Regular, Roboto" fill="#333333" font-weight="normal">
                                <text id="Chicago-(ORD)">
                                    <tspan x="0.3" y="13">Chicago (ORD)</tspan>
                                </text>
                            </g>
                            <g id="Last-Column" transform="translate(800.000000, 0.000000)" font-size="14.4" font-family="Roboto-Regular, Roboto" fill="#333333" font-weight="normal">
                                <text id="256-GB">
                                    <tspan x="0.303906" y="13">256 GB</tspan>
                                </text>
                            </g>
                            <path d="M0,34.2725806 L864,34.2725806" id="Stroke-11" stroke="#E0E0E0" stroke-width="0.9"></path>
                        </g>
                    </g>
                </g>
                <g id="Group-2" transform="translate(18.350000, 96.300000)">
                    <g id="Rectangle-Copy-3">
                        <g id="path-1-link" fill="#FFFFFF">
                            <rect id="path-1" x="0" y="0" width="14.4" height="14.4" rx="1.8"></rect>
                        </g>
                        <rect id="Rectangle-path" stroke="#0C7C84" stroke-width="0.9" x="0.45" y="0.45" width="13.5" height="13.5" rx="1.8"></rect>
                    </g>
                    <path d="M6.075,11.1375 C6.09525,11.1375 6.116625,11.1375 6.136875,11.136375 C6.456375,11.118375 6.753375,10.965375 6.953625,10.715625 L11.453625,5.090625 C11.619,4.8825 11.7,4.635 11.7,4.3875 C11.7,4.057875 11.556,3.731625 11.278125,3.508875 C11.07,3.3435 10.8225,3.2625 10.575,3.2625 C10.245375,3.2625 9.919125,3.407625 9.696375,3.684375 L5.981625,8.328375 L4.620375,6.967125 C4.401,6.74775 4.113,6.6375 3.825,6.6375 C3.537,6.6375 3.249,6.74775 3.029625,6.967125 C2.81025,7.1865 2.7,7.4745 2.7,7.7625 C2.7,8.0505 2.809125,8.3385 3.029625,8.557875 L5.279625,10.807875 C5.491125,11.019375 5.778,11.1375 6.075,11.1375" id="Fill-23-Copy" fill="#0C7C84" fill-rule="nonzero"></path>
                </g>
                <g id="Group-2" transform="translate(19.250000, 147.600000)">
                    <g id="Rectangle-Copy-3">
                        <g id="path-2-link" fill="#FFFFFF">
                            <rect id="path-2" x="0" y="0" width="14.4" height="14.4" rx="1.8"></rect>
                        </g>
                        <rect id="Rectangle-path" stroke="#0C7C84" stroke-width="0.9" x="0.45" y="0.45" width="13.5" height="13.5" rx="1.8"></rect>
                    </g>
                    <path d="M6.075,11.1375 C6.09525,11.1375 6.116625,11.1375 6.136875,11.136375 C6.456375,11.118375 6.753375,10.965375 6.953625,10.715625 L11.453625,5.090625 C11.619,4.8825 11.7,4.635 11.7,4.3875 C11.7,4.057875 11.556,3.731625 11.278125,3.508875 C11.07,3.3435 10.8225,3.2625 10.575,3.2625 C10.245375,3.2625 9.919125,3.407625 9.696375,3.684375 L5.981625,8.328375 L4.620375,6.967125 C4.401,6.74775 4.113,6.6375 3.825,6.6375 C3.537,6.6375 3.249,6.74775 3.029625,6.967125 C2.81025,7.1865 2.7,7.4745 2.7,7.7625 C2.7,8.0505 2.809125,8.3385 3.029625,8.557875 L5.279625,10.807875 C5.491125,11.019375 5.778,11.1375 6.075,11.1375" id="Fill-23-Copy" fill="#0C7C84" fill-rule="nonzero"></path>
                </g>
                <g id="Button/Standard/Primary-Copy" transform="translate(0.350000, 0.000000)">
                    <path d="M1.8,4.44129867e-16 L84.6,4.44129867e-16 L84.6,4.4408921e-16 C85.5941125,2.61468906e-16 86.4,0.80588745 86.4,1.8 L86.4,27 L86.4,27 C86.4,27.9941125 85.5941125,28.8 84.6,28.8 L36.9446987,28.8 L1.8,28.8 L1.8,28.8 C0.80588745,28.8 -2.54279158e-15,27.9941125 -2.66453526e-15,27 L3.94430453e-31,1.8 L-2.22044605e-16,1.8 C-3.4378828e-16,0.80588745 0.80588745,8.48754118e-16 1.8,4.44129867e-16 Z" id="Rectangle-2" fill="#0C7C84" fill-rule="nonzero"></path>
                    <g id="Button" transform="translate(24.000000, 5.000000)" font-size="12.6" font-family="Roboto-Regular, Roboto" fill="#FFFFFF" font-weight="normal">
                        <text>
                            <tspan x="0.5368652" y="12.4">Button</tspan>
                        </text>
                    </g>
                </g>
                <g id="Button/Standard/Secondary-Copy" transform="translate(104.750000, 0.000000)">
                    <g id="Rectangle-2">
                        <g id="path-3-link" fill="#FFFFFF" fill-opacity="0">
                            <rect id="path-3" x="0" y="0" width="86.4" height="28.8" rx="1.8"></rect>
                        </g>
                        <rect id="Rectangle-path" stroke="#0C7481" stroke-width="0.9" x="0.45" y="0.45" width="85.5" height="27.9" rx="1.8"></rect>
                    </g>
                    <g id="Button" transform="translate(24.000000, 5.000000)" font-size="12.6" font-family="Roboto-Regular, Roboto" fill="#0C7481" font-weight="normal">
                        <text>
                            <tspan x="0.5368652" y="12.4">Button</tspan>
                        </text>
                    </g>
                </g>
                <g id="2-Selected,-" transform="translate(209.000000, 2.000000)" font-size="14.4" font-family="Roboto-Regular, Roboto" fill="#333333" font-weight="normal">
                    <text id="2-Selected,">
                        <tspan x="0.15" y="13.7">2 Selected,</tspan>
                    </text>
                </g>
                <g id="Select-All" transform="translate(282.000000, 2.000000)" font-size="14.4" font-family="Roboto-Regular, Roboto" fill="#0A7C83" font-weight="normal">
                    <text>
                        <tspan x="0.95" y="13.7">Select All</tspan>
                    </text>
                </g>
                <path d="M563.805215,28.8 C562.780209,28.8 561.95,27.93984 561.95,26.88 L561.95,1.92 C561.95,0.86016 562.780209,0 563.805215,0 L862.494785,0 C863.519791,0 864.35,0.86016 864.35,1.92 L864.35,26.88 C864.35,27.93984 863.519791,28.8 862.494785,28.8 L563.805215,28.8 Z" id="Stroke-6" stroke="#BDBDBD" stroke-width="0.9"></path>
                <g id="Icons/Search" transform="translate(569.150000, 7.200000)" fill-rule="nonzero" fill="#757575">
                    <g id="search">
                        <g id="Layer_1">
                            <path d="M13.9125,12.775 L9.975,8.8375 C10.675,7.875 11.1125,6.7375 11.1125,5.5125 C11.1125,2.45 8.575,0 5.6,0 C2.5375,0 0.0875,2.45 0.0875,5.5125 C0.0875,8.575 2.5375,11.025 5.6,11.025 C6.7375,11.025 7.875,10.675 8.75,10.0625 L12.6875,14 L13.9125,12.775 Z M1.8375,5.5125 C1.8375,3.4125 3.5,1.75 5.6,1.75 C7.7,1.75 9.3625,3.4125 9.3625,5.5125 C9.3625,7.6125 7.7,9.275 5.6,9.275 C3.5,9.275 1.8375,7.6125 1.8375,5.5125 Z" id="Shape"></path>
                        </g>
                    </g>
                </g>
                <g id="Search" transform="translate(589.000000, 5.000000)" font-size="12.6" font-family="Roboto-Light, Roboto" fill="#616161" font-weight="300">
                    <text>
                        <tspan x="0.85" y="13.4">Search</tspan>
                    </text>
                </g>
                <g id="Rectangle" transform="translate(18.000000, 50.000000)">
                    <g id="path-4-link" fill="#FFFFFF">
                        <rect id="path-4" x="0.35" y="0.4" width="14.4" height="14.4" rx="1.8"></rect>
                    </g>
                    <rect id="Rectangle-path" stroke="#BDBDBD" stroke-width="0.9" x="0.8" y="0.85" width="13.5" height="13.5" rx="1.8"></rect>
                </g>
            </g>
        </g>
    </g>
</svg>