<?xml version="1.0" encoding="UTF-8" standalone="no"?>
<svg width="317px" height="297px" viewBox="0 0 317 297" version="1.1" xmlns="http://www.w3.org/2000/svg" xmlns:xlink="http://www.w3.org/1999/xlink">
    <!-- Generator: Sketch 47.1 (45422) - http://www.bohemiancoding.com/sketch -->
    <title>tables-pagination-1</title>
    <desc>Created with Sketch.</desc>
    <defs>
        <rect id="path-1" x="38" y="36" width="204" height="30" rx="3"></rect>
        <rect id="path-2" x="38" y="135" width="204" height="30" rx="3"></rect>
    </defs>
    <g id="Page-1" stroke="none" stroke-width="1" fill="none" fill-rule="evenodd">
        <g id="tables-pagination-1">
            <path d="M164.15625,85.4169922 C164.15625,86.2242879 163.970705,86.8728817 163.599609,87.362793 C163.228514,87.8527043 162.730472,88.0976562 162.105469,88.0976562 C161.438148,88.0976562 160.922202,87.861656 160.557617,87.3896484 L160.513672,88 L159.683594,88 L159.683594,80.5 L160.586914,80.5 L160.586914,83.2978516 C160.951499,82.8453753 161.454424,82.6191406 162.095703,82.6191406 C162.736982,82.6191406 163.240721,82.8616512 163.606934,83.3466797 C163.973146,83.8317082 164.15625,84.495764 164.15625,85.3388672 L164.15625,85.4169922 Z M163.25293,85.3144531 C163.25293,84.6992157 163.134116,84.22396 162.896484,83.8886719 C162.658853,83.5533837 162.31706,83.3857422 161.871094,83.3857422 C161.275388,83.3857422 160.847332,83.6624321 160.586914,84.2158203 L160.586914,86.5009766 C160.863608,87.0543647 161.294919,87.3310547 161.880859,87.3310547 C162.313804,87.3310547 162.650715,87.1634131 162.891602,86.828125 C163.132488,86.4928369 163.25293,85.9882846 163.25293,85.3144531 Z M165.079102,85.3144531 C165.079102,84.4908813 165.269529,83.8357772 165.650391,83.3491211 C166.031252,82.862465 166.535804,82.6191406 167.164062,82.6191406 C167.808597,82.6191406 168.311522,82.8470029 168.672852,83.3027344 L168.716797,82.7167969 L169.541992,82.7167969 L169.541992,87.8730469 C169.541992,88.556644 169.339357,89.0953756 168.934082,89.4892578 C168.528807,89.88314 167.984378,90.0800781 167.300781,90.0800781 C166.91992,90.0800781 166.547202,89.9986987 166.182617,89.8359375 C165.818032,89.6731763 165.539715,89.4501967 165.347656,89.1669922 L165.816406,88.625 C166.203778,89.103518 166.677406,89.3427734 167.237305,89.3427734 C167.67676,89.3427734 168.019367,89.2190768 168.265137,88.9716797 C168.510906,88.7242826 168.633789,88.3759788 168.633789,87.9267578 L168.633789,87.4726562 C168.272459,87.889325 167.7793,88.0976562 167.154297,88.0976562 C166.535804,88.0976562 166.035321,87.8486353 165.652832,87.3505859 C165.270343,86.8525366 165.079102,86.1738324 165.079102,85.3144531 Z M165.987305,85.4169922 C165.987305,86.0126983 166.109374,86.4806298 166.353516,86.8208008 C166.597657,87.1609718 166.939451,87.3310547 167.378906,87.3310547 C167.948571,87.3310547 168.366861,87.0722682 168.633789,86.5546875 L168.633789,84.1425781 C168.357095,83.6380183 167.94206,83.3857422 167.388672,83.3857422 C166.949217,83.3857422 166.605796,83.5566389 166.358398,83.8984375 C166.111001,84.2402361 165.987305,84.7464159 165.987305,85.4169922 Z M170.875,87.5263672 C170.875,87.3701164 170.921386,87.2399094 171.01416,87.1357422 C171.106934,87.031575 171.246093,86.9794922 171.431641,86.9794922 C171.617188,86.9794922 171.757975,87.031575 171.854004,87.1357422 C171.950033,87.2399094 171.998047,87.3701164 171.998047,87.5263672 C171.998047,87.6761075 171.950033,87.8014318 171.854004,87.9023438 C171.757975,88.0032557 171.617188,88.0537109 171.431641,88.0537109 C171.246093,88.0537109 171.106934,88.0032557 171.01416,87.9023438 C170.921386,87.8014318 170.875,87.6761075 170.875,87.5263672 Z M170.879883,83.2148438 C170.879883,83.058593 170.926269,82.9283859 171.019043,82.8242188 C171.111817,82.7200516 171.250976,82.6679688 171.436523,82.6679688 C171.622071,82.6679688 171.762858,82.7200516 171.858887,82.8242188 C171.954916,82.9283859 172.00293,83.058593 172.00293,83.2148438 C172.00293,83.3645841 171.954916,83.4899083 171.858887,83.5908203 C171.762858,83.6917323 171.622071,83.7421875 171.436523,83.7421875 C171.250976,83.7421875 171.111817,83.6917323 171.019043,83.5908203 C170.926269,83.4899083 170.879883,83.3645841 170.879883,83.2148438 Z M178.853516,85.9980469 L177.564453,85.9980469 L177.173828,88 L176.475586,88 L176.866211,85.9980469 L175.699219,85.9980469 L175.699219,85.3291016 L176.993164,85.3291016 L177.330078,83.6005859 L176.070312,83.6005859 L176.070312,82.921875 L177.461914,82.921875 L177.862305,80.890625 L178.560547,80.890625 L178.160156,82.921875 L179.449219,82.921875 L179.849609,80.890625 L180.552734,80.890625 L180.152344,82.921875 L181.148438,82.921875 L181.148438,83.6005859 L180.020508,83.6005859 L179.683594,85.3291016 L180.782227,85.3291016 L180.782227,85.9980469 L179.556641,85.9980469 L179.166016,88 L178.462891,88 L178.853516,85.9980469 Z M177.691406,85.3291016 L178.980469,85.3291016 L179.317383,83.6005859 L178.02832,83.6005859 L177.691406,85.3291016 Z M182.40332,88 L182.40332,83.4150391 L181.568359,83.4150391 L181.568359,82.7167969 L182.40332,82.7167969 L182.40332,82.1748047 C182.40332,81.6083956 182.554686,81.1705745 182.857422,80.8613281 C183.160158,80.5520818 183.588213,80.3974609 184.141602,80.3974609 C184.349936,80.3974609 184.55664,80.4251299 184.761719,80.4804688 L184.712891,81.2128906 C184.559895,81.1835936 184.397136,81.1689453 184.224609,81.1689453 C183.931639,81.1689453 183.705404,81.2543937 183.545898,81.425293 C183.386392,81.5961923 183.306641,81.8411442 183.306641,82.1601562 L183.306641,82.7167969 L184.43457,82.7167969 L184.43457,83.4150391 L183.306641,83.4150391 L183.306641,88 L182.40332,88 Z M185.875,88 L185.875,83.4150391 L185.040039,83.4150391 L185.040039,82.7167969 L185.875,82.7167969 L185.875,82.1748047 C185.875,81.6083956 186.026366,81.1705745 186.329102,80.8613281 C186.631837,80.5520818 187.059893,80.3974609 187.613281,80.3974609 C187.821616,80.3974609 188.028319,80.4251299 188.233398,80.4804688 L188.18457,81.2128906 C188.031575,81.1835936 187.868816,81.1689453 187.696289,81.1689453 C187.403319,81.1689453 187.177084,81.2543937 187.017578,81.425293 C186.858072,81.5961923 186.77832,81.8411442 186.77832,82.1601562 L186.77832,82.7167969 L187.90625,82.7167969 L187.90625,83.4150391 L186.77832,83.4150391 L186.77832,88 L185.875,88 Z M189.34668,88 L189.34668,83.4150391 L188.511719,83.4150391 L188.511719,82.7167969 L189.34668,82.7167969 L189.34668,82.1748047 C189.34668,81.6083956 189.498045,81.1705745 189.800781,80.8613281 C190.103517,80.5520818 190.531573,80.3974609 191.084961,80.3974609 C191.293295,80.3974609 191.499999,80.4251299 191.705078,80.4804688 L191.65625,81.2128906 C191.503254,81.1835936 191.340496,81.1689453 191.167969,81.1689453 C190.874999,81.1689453 190.648764,81.2543937 190.489258,81.425293 C190.329752,81.5961923 190.25,81.8411442 190.25,82.1601562 L190.25,82.7167969 L191.37793,82.7167969 L191.37793,83.4150391 L190.25,83.4150391 L190.25,88 L189.34668,88 Z M192.818359,88 L192.818359,83.4150391 L191.983398,83.4150391 L191.983398,82.7167969 L192.818359,82.7167969 L192.818359,82.1748047 C192.818359,81.6083956 192.969725,81.1705745 193.272461,80.8613281 C193.575197,80.5520818 194.003252,80.3974609 194.556641,80.3974609 C194.764975,80.3974609 194.971679,80.4251299 195.176758,80.4804688 L195.12793,81.2128906 C194.974934,81.1835936 194.812175,81.1689453 194.639648,81.1689453 C194.346678,81.1689453 194.120444,81.2543937 193.960938,81.425293 C193.801431,81.5961923 193.72168,81.8411442 193.72168,82.1601562 L193.72168,82.7167969 L194.849609,82.7167969 L194.849609,83.4150391 L193.72168,83.4150391 L193.72168,88 L192.818359,88 Z M196.290039,88 L196.290039,83.4150391 L195.455078,83.4150391 L195.455078,82.7167969 L196.290039,82.7167969 L196.290039,82.1748047 C196.290039,81.6083956 196.441405,81.1705745 196.744141,80.8613281 C197.046877,80.5520818 197.474932,80.3974609 198.02832,80.3974609 C198.236655,80.3974609 198.443358,80.4251299 198.648438,80.4804688 L198.599609,81.2128906 C198.446614,81.1835936 198.283855,81.1689453 198.111328,81.1689453 C197.818358,81.1689453 197.592123,81.2543937 197.432617,81.425293 C197.273111,81.5961923 197.193359,81.8411442 197.193359,82.1601562 L197.193359,82.7167969 L198.321289,82.7167969 L198.321289,83.4150391 L197.193359,83.4150391 L197.193359,88 L196.290039,88 Z M199.761719,88 L199.761719,83.4150391 L198.926758,83.4150391 L198.926758,82.7167969 L199.761719,82.7167969 L199.761719,82.1748047 C199.761719,81.6083956 199.913084,81.1705745 200.21582,80.8613281 C200.518556,80.5520818 200.946612,80.3974609 201.5,80.3974609 C201.708334,80.3974609 201.915038,80.4251299 202.120117,80.4804688 L202.071289,81.2128906 C201.918294,81.1835936 201.755535,81.1689453 201.583008,81.1689453 C201.290038,81.1689453 201.063803,81.2543937 200.904297,81.425293 C200.744791,81.5961923 200.665039,81.8411442 200.665039,82.1601562 L200.665039,82.7167969 L201.792969,82.7167969 L201.792969,83.4150391 L200.665039,83.4150391 L200.665039,88 L199.761719,88 Z M205.230469,85.1142578 C205.230469,84.3785771 205.328938,83.6722039 205.525879,82.9951172 C205.72282,82.3180305 206.0166,81.7028022 206.407227,81.1494141 C206.797854,80.5960259 207.203123,80.2054048 207.623047,79.9775391 L207.808594,80.5732422 C207.333331,80.9378273 206.943524,81.4944624 206.63916,82.2431641 C206.334797,82.9918657 206.167969,83.8300735 206.138672,84.7578125 L206.133789,85.1728516 C206.133789,86.4293683 206.363279,87.5198521 206.822266,88.4443359 C207.09896,88.9977241 207.427732,89.4306625 207.808594,89.7431641 L207.623047,90.2949219 C207.190102,90.0540353 206.776695,89.6503935 206.382812,89.0839844 C205.614579,87.977208 205.230469,86.6539791 205.230469,85.1142578 Z M208.467773,85.3144531 C208.467773,84.4908813 208.658201,83.8357772 209.039062,83.3491211 C209.419924,82.862465 209.924476,82.6191406 210.552734,82.6191406 C211.197269,82.6191406 211.700194,82.8470029 212.061523,83.3027344 L212.105469,82.7167969 L212.930664,82.7167969 L212.930664,87.8730469 C212.930664,88.556644 212.728029,89.0953756 212.322754,89.4892578 C211.917478,89.88314 211.37305,90.0800781 210.689453,90.0800781 C210.308592,90.0800781 209.935874,89.9986987 209.571289,89.8359375 C209.206704,89.6731763 208.928386,89.4501967 208.736328,89.1669922 L209.205078,88.625 C209.59245,89.103518 210.066078,89.3427734 210.625977,89.3427734 C211.065432,89.3427734 211.408039,89.2190768 211.653809,88.9716797 C211.899578,88.7242826 212.022461,88.3759788 212.022461,87.9267578 L212.022461,87.4726562 C211.661131,87.889325 211.167972,88.0976562 210.542969,88.0976562 C209.924476,88.0976562 209.423993,87.8486353 209.041504,87.3505859 C208.659015,86.8525366 208.467773,86.1738324 208.467773,85.3144531 Z M209.375977,85.4169922 C209.375977,86.0126983 209.498046,86.4806298 209.742188,86.8208008 C209.986329,87.1609718 210.328123,87.3310547 210.767578,87.3310547 C211.337242,87.3310547 211.755533,87.0722682 212.022461,86.5546875 L212.022461,84.1425781 C211.745767,83.6380183 211.330732,83.3857422 210.777344,83.3857422 C210.337888,83.3857422 209.994467,83.5566389 209.74707,83.8984375 C209.499673,84.2402361 209.375977,84.7464159 209.375977,85.4169922 Z M216.84668,83.5273438 C216.70996,83.5045572 216.56185,83.4931641 216.402344,83.4931641 C215.809893,83.4931641 215.407879,83.7454402 215.196289,84.25 L215.196289,88 L214.292969,88 L214.292969,82.7167969 L215.171875,82.7167969 L215.186523,83.3271484 C215.482749,82.8551409 215.902667,82.6191406 216.446289,82.6191406 C216.622071,82.6191406 216.755533,82.6419269 216.84668,82.6875 L216.84668,83.5273438 Z M220.743164,88 C220.69108,87.8958328 220.648763,87.7102878 220.616211,87.4433594 C220.196287,87.8795595 219.69499,88.0976562 219.112305,88.0976562 C218.591469,88.0976562 218.164227,87.9503595 217.830566,87.6557617 C217.496906,87.3611639 217.330078,86.9876325 217.330078,86.5351562 C217.330078,85.9850233 217.539223,85.5577815 217.95752,85.253418 C218.375816,84.9490545 218.964189,84.796875 219.722656,84.796875 L220.601562,84.796875 L220.601562,84.3818359 C220.601562,84.0660792 220.507162,83.8146168 220.318359,83.6274414 C220.129556,83.440266 219.851239,83.3466797 219.483398,83.3466797 C219.161131,83.3466797 218.890952,83.4280591 218.672852,83.5908203 C218.454752,83.7535815 218.345703,83.9505197 218.345703,84.1816406 L217.4375,84.1816406 C217.4375,83.9179674 217.531086,83.6632499 217.718262,83.4174805 C217.905437,83.171711 218.159341,82.9772143 218.47998,82.8339844 C218.80062,82.6907545 219.152993,82.6191406 219.537109,82.6191406 C220.145836,82.6191406 220.62272,82.7713201 220.967773,83.0756836 C221.312827,83.3800471 221.491862,83.799151 221.504883,84.3330078 L221.504883,86.7646484 C221.504883,87.2496769 221.566731,87.6354152 221.69043,87.921875 L221.69043,88 L220.743164,88 Z M219.244141,87.3115234 C219.527345,87.3115234 219.795897,87.238282 220.049805,87.0917969 C220.303712,86.9453118 220.48763,86.754884 220.601562,86.5205078 L220.601562,85.4365234 L219.893555,85.4365234 C218.786778,85.4365234 218.233398,85.7604134 218.233398,86.4082031 C218.233398,86.6914077 218.327799,86.9127596 218.516602,87.0722656 C218.705405,87.2317716 218.947915,87.3115234 219.244141,87.3115234 Z M224.576172,86.6767578 L225.806641,82.7167969 L226.773438,82.7167969 L224.649414,88.8154297 C224.320636,89.6943403 223.798181,90.1337891 223.082031,90.1337891 L222.911133,90.1191406 L222.574219,90.0556641 L222.574219,89.3232422 L222.818359,89.3427734 C223.12435,89.3427734 223.362792,89.2809251 223.533691,89.1572266 C223.704591,89.033528 223.845377,88.8072933 223.956055,88.4785156 L224.15625,87.9414062 L222.271484,82.7167969 L223.257812,82.7167969 L224.576172,86.6767578 Z M234.419922,84.9677734 C234.419922,86.0257214 234.23926,86.8118464 233.87793,87.3261719 C233.5166,87.8404974 232.951827,88.0976562 232.183594,88.0976562 C231.425126,88.0976562 230.863609,87.8461939 230.499023,87.3432617 C230.134438,86.8403295 229.945638,86.0891977 229.932617,85.0898438 L229.932617,83.8837891 C229.932617,82.838862 230.113279,82.0625025 230.474609,81.5546875 C230.835939,81.0468725 231.40234,80.7929688 232.173828,80.7929688 C232.938806,80.7929688 233.501951,81.0379207 233.863281,81.527832 C234.224611,82.0177433 234.410156,82.7737579 234.419922,83.7958984 L234.419922,84.9677734 Z M233.516602,83.7324219 C233.516602,82.9674441 233.409181,82.4099952 233.194336,82.0600586 C232.979491,81.7101219 232.639325,81.5351562 232.173828,81.5351562 C231.711586,81.5351562 231.374676,81.7093082 231.163086,82.0576172 C230.951496,82.4059262 230.842448,82.9414026 230.835938,83.6640625 L230.835938,85.109375 C230.835938,85.877608 230.947427,86.4448224 231.17041,86.8110352 C231.393393,87.1772479 231.731118,87.3603516 232.183594,87.3603516 C232.62956,87.3603516 232.960774,87.1878272 233.177246,86.8427734 C233.393719,86.4977196 233.506836,85.9541053 233.516602,85.2119141 L233.516602,83.7324219 Z M237.754883,85.1630859 C237.754883,85.889001 237.659669,86.5847948 237.469238,87.2504883 C237.278808,87.9161817 236.987469,88.5305961 236.595215,89.09375 C236.20296,89.6569039 235.791994,90.0572905 235.362305,90.2949219 L235.171875,89.7431641 C235.67318,89.3590476 236.076008,88.7625366 236.380371,87.9536133 C236.684735,87.14469 236.840169,86.2470752 236.84668,85.2607422 L236.84668,85.1044922 C236.84668,84.420895 236.775066,83.7853219 236.631836,83.1977539 C236.488606,82.6101859 236.289227,82.0836612 236.033691,81.6181641 C235.778156,81.1526669 235.490887,80.7897148 235.171875,80.5292969 L235.362305,79.9775391 C235.791994,80.2151705 236.201333,80.6123019 236.590332,81.1689453 C236.979331,81.7255887 237.27067,82.3391894 237.464355,83.0097656 C237.658041,83.6803419 237.754883,84.3981082 237.754883,85.1630859 Z M160.90918,92.4375 L160.90918,93.7167969 L161.895508,93.7167969 L161.895508,94.4150391 L160.90918,94.4150391 L160.90918,97.6914062 C160.90918,97.9029958 160.953125,98.0616857 161.041016,98.1674805 C161.128907,98.2732753 161.278645,98.3261719 161.490234,98.3261719 C161.594402,98.3261719 161.737629,98.3066408 161.919922,98.2675781 L161.919922,99 C161.68229,99.0651045 161.451173,99.0976562 161.226562,99.0976562 C160.822915,99.0976562 160.518556,98.9755872 160.313477,98.7314453 C160.108397,98.4873035 160.005859,98.1406272 160.005859,97.6914062 L160.005859,94.4150391 L159.043945,94.4150391 L159.043945,93.7167969 L160.005859,93.7167969 L160.005859,92.4375 L160.90918,92.4375 Z M165.142578,99.0976562 C164.426429,99.0976562 163.843752,98.8624698 163.394531,98.3920898 C162.94531,97.9217099 162.720703,97.2926472 162.720703,96.5048828 L162.720703,96.3388672 C162.720703,95.814776 162.8208,95.3468445 163.020996,94.9350586 C163.221192,94.5232727 163.501138,94.2010103 163.86084,93.9682617 C164.220542,93.7355132 164.610349,93.6191406 165.030273,93.6191406 C165.717126,93.6191406 166.250975,93.8453753 166.631836,94.2978516 C167.012697,94.7503278 167.203125,95.3981078 167.203125,96.2412109 L167.203125,96.6171875 L163.624023,96.6171875 C163.637044,97.1380234 163.789224,97.5587549 164.080566,97.8793945 C164.371909,98.2000342 164.742185,98.3603516 165.191406,98.3603516 C165.510418,98.3603516 165.780598,98.295248 166.001953,98.1650391 C166.223308,98.0348301 166.416991,97.8623058 166.583008,97.6474609 L167.134766,98.0771484 C166.692055,98.7574904 166.027999,99.0976562 165.142578,99.0976562 Z M165.030273,94.3613281 C164.665688,94.3613281 164.359702,94.4939765 164.112305,94.7592773 C163.864908,95.0245781 163.711914,95.396482 163.65332,95.875 L166.299805,95.875 L166.299805,95.8066406 C166.273763,95.347654 166.150066,94.992026 165.928711,94.7397461 C165.707356,94.4874662 165.407879,94.3613281 165.030273,94.3613281 Z M170.020508,95.6455078 L171.192383,93.7167969 L172.24707,93.7167969 L170.518555,96.3291016 L172.300781,99 L171.255859,99 L170.035156,97.0224609 L168.814453,99 L167.764648,99 L169.546875,96.3291016 L167.818359,93.7167969 L168.863281,93.7167969 L170.020508,95.6455078 Z M174.429688,92.4375 L174.429688,93.7167969 L175.416016,93.7167969 L175.416016,94.4150391 L174.429688,94.4150391 L174.429688,97.6914062 C174.429688,97.9029958 174.473632,98.0616857 174.561523,98.1674805 C174.649415,98.2732753 174.799153,98.3261719 175.010742,98.3261719 C175.114909,98.3261719 175.258137,98.3066408 175.44043,98.2675781 L175.44043,99 C175.202798,99.0651045 174.971681,99.0976562 174.74707,99.0976562 C174.343422,99.0976562 174.039064,98.9755872 173.833984,98.7314453 C173.628905,98.4873035 173.526367,98.1406272 173.526367,97.6914062 L173.526367,94.4150391 L172.564453,94.4150391 L172.564453,93.7167969 L173.526367,93.7167969 L173.526367,92.4375 L174.429688,92.4375 Z M176.441406,98.5263672 C176.441406,98.3701164 176.487793,98.2399094 176.580566,98.1357422 C176.67334,98.031575 176.812499,97.9794922 176.998047,97.9794922 C177.183595,97.9794922 177.324381,98.031575 177.42041,98.1357422 C177.516439,98.2399094 177.564453,98.3701164 177.564453,98.5263672 C177.564453,98.6761075 177.516439,98.8014318 177.42041,98.9023438 C177.324381,99.0032557 177.183595,99.0537109 176.998047,99.0537109 C176.812499,99.0537109 176.67334,99.0032557 176.580566,98.9023438 C176.487793,98.8014318 176.441406,98.6761075 176.441406,98.5263672 Z M176.446289,94.2148438 C176.446289,94.058593 176.492675,93.9283859 176.585449,93.8242188 C176.678223,93.7200516 176.817382,93.6679688 177.00293,93.6679688 C177.188477,93.6679688 177.329264,93.7200516 177.425293,93.8242188 C177.521322,93.9283859 177.569336,94.058593 177.569336,94.2148438 C177.569336,94.3645841 177.521322,94.4899083 177.425293,94.5908203 C177.329264,94.6917323 177.188477,94.7421875 177.00293,94.7421875 C176.817382,94.7421875 176.678223,94.6917323 176.585449,94.5908203 C176.492675,94.4899083 176.446289,94.3645841 176.446289,94.2148438 Z M184.419922,96.9980469 L183.130859,96.9980469 L182.740234,99 L182.041992,99 L182.432617,96.9980469 L181.265625,96.9980469 L181.265625,96.3291016 L182.55957,96.3291016 L182.896484,94.6005859 L181.636719,94.6005859 L181.636719,93.921875 L183.02832,93.921875 L183.428711,91.890625 L184.126953,91.890625 L183.726562,93.921875 L185.015625,93.921875 L185.416016,91.890625 L186.119141,91.890625 L185.71875,93.921875 L186.714844,93.921875 L186.714844,94.6005859 L185.586914,94.6005859 L185.25,96.3291016 L186.348633,96.3291016 L186.348633,96.9980469 L185.123047,96.9980469 L184.732422,99 L184.029297,99 L184.419922,96.9980469 Z M183.257812,96.3291016 L184.546875,96.3291016 L184.883789,94.6005859 L183.594727,94.6005859 L183.257812,96.3291016 Z M190.977539,91.8857422 L190.977539,92.6523438 L190.811523,92.6523438 C190.108395,92.6653646 189.548505,92.8736959 189.131836,93.2773438 C188.715167,93.6809916 188.474284,94.2490198 188.40918,94.9814453 C188.783531,94.5517557 189.294593,94.3369141 189.942383,94.3369141 C190.560875,94.3369141 191.054848,94.5550108 191.424316,94.9912109 C191.793784,95.427411 191.978516,95.9905564 191.978516,96.6806641 C191.978516,97.4130896 191.779136,97.9990212 191.380371,98.4384766 C190.981606,98.8779319 190.446943,99.0976562 189.776367,99.0976562 C189.096025,99.0976562 188.544273,98.8364284 188.121094,98.3139648 C187.697915,97.7915013 187.486328,97.1184937 187.486328,96.2949219 L187.486328,95.9482422 C187.486328,94.6396419 187.765459,93.6394891 188.32373,92.9477539 C188.882001,92.2560187 189.712885,91.9020183 190.816406,91.8857422 L190.977539,91.8857422 Z M189.791016,95.0888672 C189.481769,95.0888672 189.196941,95.1816397 188.936523,95.3671875 C188.676105,95.5527353 188.495443,95.7854804 188.394531,96.0654297 L188.394531,96.3974609 C188.394531,96.9834014 188.526366,97.4554019 188.790039,97.8134766 C189.053712,98.1715513 189.382485,98.3505859 189.776367,98.3505859 C190.18327,98.3505859 190.503091,98.2008479 190.73584,97.9013672 C190.968588,97.6018865 191.084961,97.2096378 191.084961,96.7246094 C191.084961,96.2363257 190.966961,95.8416356 190.730957,95.5405273 C190.494953,95.2394191 190.181643,95.0888672 189.791016,95.0888672 Z M196.016602,99 L195.108398,99 L195.108398,92.9794922 L193.287109,93.6484375 L193.287109,92.828125 L195.875,91.8564453 L196.016602,91.8564453 L196.016602,99 Z M202.208008,91.8857422 L202.208008,92.6523438 L202.041992,92.6523438 C201.338864,92.6653646 200.778973,92.8736959 200.362305,93.2773438 C199.945636,93.6809916 199.704753,94.2490198 199.639648,94.9814453 C200.013999,94.5517557 200.525062,94.3369141 201.172852,94.3369141 C201.791344,94.3369141 202.285317,94.5550108 202.654785,94.9912109 C203.024253,95.427411 203.208984,95.9905564 203.208984,96.6806641 C203.208984,97.4130896 203.009605,97.9990212 202.61084,98.4384766 C202.212075,98.8779319 201.677412,99.0976562 201.006836,99.0976562 C200.326494,99.0976562 199.774742,98.8364284 199.351562,98.3139648 C198.928383,97.7915013 198.716797,97.1184937 198.716797,96.2949219 L198.716797,95.9482422 C198.716797,94.6396419 198.995928,93.6394891 199.554199,92.9477539 C200.11247,92.2560187 200.943354,91.9020183 202.046875,91.8857422 L202.208008,91.8857422 Z M201.021484,95.0888672 C200.712238,95.0888672 200.42741,95.1816397 200.166992,95.3671875 C199.906574,95.5527353 199.725912,95.7854804 199.625,96.0654297 L199.625,96.3974609 C199.625,96.9834014 199.756835,97.4554019 200.020508,97.8134766 C200.284181,98.1715513 200.612954,98.3505859 201.006836,98.3505859 C201.413739,98.3505859 201.73356,98.2008479 201.966309,97.9013672 C202.199057,97.6018865 202.31543,97.2096378 202.31543,96.7246094 C202.31543,96.2363257 202.19743,95.8416356 201.961426,95.5405273 C201.725422,95.2394191 201.412111,95.0888672 201.021484,95.0888672 Z M207.24707,99 L206.338867,99 L206.338867,92.9794922 L204.517578,93.6484375 L204.517578,92.828125 L207.105469,91.8564453 L207.24707,91.8564453 L207.24707,99 Z M213.438477,91.8857422 L213.438477,92.6523438 L213.272461,92.6523438 C212.569332,92.6653646 212.009442,92.8736959 211.592773,93.2773438 C211.176105,93.6809916 210.935222,94.2490198 210.870117,94.9814453 C211.244468,94.5517557 211.755531,94.3369141 212.40332,94.3369141 C213.021813,94.3369141 213.515786,94.5550108 213.885254,94.9912109 C214.254722,95.427411 214.439453,95.9905564 214.439453,96.6806641 C214.439453,97.4130896 214.240074,97.9990212 213.841309,98.4384766 C213.442544,98.8779319 212.907881,99.0976562 212.237305,99.0976562 C211.556963,99.0976562 211.00521,98.8364284 210.582031,98.3139648 C210.158852,97.7915013 209.947266,97.1184937 209.947266,96.2949219 L209.947266,95.9482422 C209.947266,94.6396419 210.226397,93.6394891 210.784668,92.9477539 C211.342939,92.2560187 212.173823,91.9020183 213.277344,91.8857422 L213.438477,91.8857422 Z M212.251953,95.0888672 C211.942707,95.0888672 211.657879,95.1816397 211.397461,95.3671875 C211.137043,95.5527353 210.956381,95.7854804 210.855469,96.0654297 L210.855469,96.3974609 C210.855469,96.9834014 210.987303,97.4554019 211.250977,97.8134766 C211.51465,98.1715513 211.843423,98.3505859 212.237305,98.3505859 C212.644208,98.3505859 212.964029,98.2008479 213.196777,97.9013672 C213.429526,97.6018865 213.545898,97.2096378 213.545898,96.7246094 C213.545898,96.2363257 213.427898,95.8416356 213.191895,95.5405273 C212.955891,95.2394191 212.64258,95.0888672 212.251953,95.0888672 Z M218.477539,99 L217.569336,99 L217.569336,92.9794922 L215.748047,93.6484375 L215.748047,92.828125 L218.335938,91.8564453 L218.477539,91.8564453 L218.477539,99 Z M223.658203,96.1142578 C223.658203,95.3785771 223.756672,94.6722039 223.953613,93.9951172 C224.150554,93.3180305 224.444334,92.7028022 224.834961,92.1494141 C225.225588,91.5960259 225.630857,91.2054048 226.050781,90.9775391 L226.236328,91.5732422 C225.761065,91.9378273 225.371258,92.4944624 225.066895,93.2431641 C224.762531,93.9918657 224.595703,94.8300735 224.566406,95.7578125 L224.561523,96.1728516 C224.561523,97.4293683 224.791013,98.5198521 225.25,99.4443359 C225.526694,99.9977241 225.855467,100.430662 226.236328,100.743164 L226.050781,101.294922 C225.617836,101.054035 225.204429,100.650393 224.810547,100.083984 C224.042314,98.977208 223.658203,97.6539791 223.658203,96.1142578 Z M226.895508,96.3144531 C226.895508,95.4908813 227.085936,94.8357772 227.466797,94.3491211 C227.847658,93.862465 228.35221,93.6191406 228.980469,93.6191406 C229.625003,93.6191406 230.127928,93.8470029 230.489258,94.3027344 L230.533203,93.7167969 L231.358398,93.7167969 L231.358398,98.8730469 C231.358398,99.556644 231.155764,100.095376 230.750488,100.489258 C230.345213,100.88314 229.800785,101.080078 229.117188,101.080078 C228.736326,101.080078 228.363609,100.998699 227.999023,100.835938 C227.634438,100.673176 227.356121,100.450197 227.164062,100.166992 L227.632812,99.625 C228.020184,100.103518 228.493812,100.342773 229.053711,100.342773 C229.493166,100.342773 229.835774,100.219077 230.081543,99.9716797 C230.327312,99.7242826 230.450195,99.3759788 230.450195,98.9267578 L230.450195,98.4726562 C230.088865,98.889325 229.595706,99.0976562 228.970703,99.0976562 C228.35221,99.0976562 227.851727,98.8486353 227.469238,98.3505859 C227.086749,97.8525366 226.895508,97.1738324 226.895508,96.3144531 Z M227.803711,96.4169922 C227.803711,97.0126983 227.92578,97.4806298 228.169922,97.8208008 C228.414064,98.1609718 228.755857,98.3310547 229.195312,98.3310547 C229.764977,98.3310547 230.183267,98.0722682 230.450195,97.5546875 L230.450195,95.1425781 C230.173501,94.6380183 229.758466,94.3857422 229.205078,94.3857422 C228.765623,94.3857422 228.422202,94.5566389 228.174805,94.8984375 C227.927408,95.2402361 227.803711,95.7464159 227.803711,96.4169922 Z M235.274414,94.5273438 C235.137695,94.5045572 234.989584,94.4931641 234.830078,94.4931641 C234.237627,94.4931641 233.835613,94.7454402 233.624023,95.25 L233.624023,99 L232.720703,99 L232.720703,93.7167969 L233.599609,93.7167969 L233.614258,94.3271484 C233.910483,93.8551409 234.330401,93.6191406 234.874023,93.6191406 C235.049806,93.6191406 235.183268,93.6419269 235.274414,93.6875 L235.274414,94.5273438 Z M239.170898,99 C239.118815,98.8958328 239.076498,98.7102878 239.043945,98.4433594 C238.624021,98.8795595 238.122724,99.0976562 237.540039,99.0976562 C237.019203,99.0976562 236.591961,98.9503595 236.258301,98.6557617 C235.92464,98.3611639 235.757812,97.9876325 235.757812,97.5351562 C235.757812,96.9850233 235.966958,96.5577815 236.385254,96.253418 C236.80355,95.9490545 237.391923,95.796875 238.150391,95.796875 L239.029297,95.796875 L239.029297,95.3818359 C239.029297,95.0660792 238.934897,94.8146168 238.746094,94.6274414 C238.557291,94.440266 238.278973,94.3466797 237.911133,94.3466797 C237.588866,94.3466797 237.318686,94.4280591 237.100586,94.5908203 C236.882486,94.7535815 236.773438,94.9505197 236.773438,95.1816406 L235.865234,95.1816406 C235.865234,94.9179674 235.958821,94.6632499 236.145996,94.4174805 C236.333172,94.171711 236.587075,93.9772143 236.907715,93.8339844 C237.228354,93.6907545 237.580727,93.6191406 237.964844,93.6191406 C238.573571,93.6191406 239.050454,93.7713201 239.395508,94.0756836 C239.740562,94.3800471 239.919596,94.799151 239.932617,95.3330078 L239.932617,97.7646484 C239.932617,98.2496769 239.994466,98.6354152 240.118164,98.921875 L240.118164,99 L239.170898,99 Z M237.671875,98.3115234 C237.95508,98.3115234 238.223632,98.238282 238.477539,98.0917969 C238.731447,97.9453118 238.915364,97.754884 239.029297,97.5205078 L239.029297,96.4365234 L238.321289,96.4365234 C237.214513,96.4365234 236.661133,96.7604134 236.661133,97.4082031 C236.661133,97.6914077 236.755533,97.9127596 236.944336,98.0722656 C237.133139,98.2317716 237.37565,98.3115234 237.671875,98.3115234 Z M243.003906,97.6767578 L244.234375,93.7167969 L245.201172,93.7167969 L243.077148,99.8154297 C242.748371,100.69434 242.225915,101.133789 241.509766,101.133789 L241.338867,101.119141 L241.001953,101.055664 L241.001953,100.323242 L241.246094,100.342773 C241.552085,100.342773 241.790526,100.280925 241.961426,100.157227 C242.132325,100.033528 242.273111,99.8072933 242.383789,99.4785156 L242.583984,98.9414062 L240.699219,93.7167969 L241.685547,93.7167969 L243.003906,97.6767578 Z M252.701172,93.7460938 C252.701172,94.1009132 252.607586,94.4166653 252.42041,94.6933594 C252.233235,94.9700535 251.980145,95.1865227 251.661133,95.3427734 C252.032228,95.5022794 252.326008,95.7350245 252.54248,96.0410156 C252.758953,96.3470067 252.867188,96.693683 252.867188,97.0810547 C252.867188,97.6962921 252.65967,98.1861961 252.244629,98.5507812 C251.829588,98.9153664 251.283532,99.0976562 250.606445,99.0976562 C249.922848,99.0976562 249.375165,98.9145526 248.963379,98.5483398 C248.551593,98.1821271 248.345703,97.6930369 248.345703,97.0810547 C248.345703,96.6969382 248.450683,96.350262 248.660645,96.0410156 C248.870607,95.7317693 249.161131,95.4973966 249.532227,95.3378906 C249.21647,95.1816398 248.967449,94.9651707 248.785156,94.6884766 C248.602864,94.4117825 248.511719,94.097658 248.511719,93.7460938 C248.511719,93.1471324 248.703774,92.6718768 249.087891,92.3203125 C249.472007,91.9687482 249.978187,91.7929688 250.606445,91.7929688 C251.231448,91.7929688 251.736814,91.9687482 252.122559,92.3203125 C252.508303,92.6718768 252.701172,93.1471324 252.701172,93.7460938 Z M251.963867,97.0615234 C251.963867,96.664386 251.837729,96.340496 251.585449,96.0898438 C251.333169,95.8391915 251.003583,95.7138672 250.59668,95.7138672 C250.189777,95.7138672 249.863445,95.8375639 249.617676,96.0849609 C249.371906,96.332358 249.249023,96.6578756 249.249023,97.0615234 C249.249023,97.4651713 249.368651,97.7825509 249.60791,98.0136719 C249.847169,98.2447928 250.180011,98.3603516 250.606445,98.3603516 C251.029625,98.3603516 251.361652,98.243979 251.602539,98.0112305 C251.843426,97.7784819 251.963867,97.4619161 251.963867,97.0615234 Z M250.606445,92.5351562 C250.251626,92.5351562 249.964357,92.6450184 249.744629,92.8647461 C249.524901,93.0844738 249.415039,93.3831361 249.415039,93.7607422 C249.415039,94.1220721 249.523274,94.4142241 249.739746,94.637207 C249.956219,94.8601899 250.245115,94.9716797 250.606445,94.9716797 C250.967775,94.9716797 251.256672,94.8601899 251.473145,94.637207 C251.689617,94.4142241 251.797852,94.1220721 251.797852,93.7607422 C251.797852,93.3994123 251.685548,93.1048188 251.460938,92.8769531 C251.236327,92.6490874 250.951499,92.5351562 250.606445,92.5351562 Z M258.462891,95.9677734 C258.462891,97.0257214 258.282228,97.8118464 257.920898,98.3261719 C257.559569,98.8404974 256.994796,99.0976562 256.226562,99.0976562 C255.468095,99.0976562 254.906577,98.8461939 254.541992,98.3432617 C254.177407,97.8403295 253.988607,97.0891977 253.975586,96.0898438 L253.975586,94.8837891 C253.975586,93.838862 254.156248,93.0625025 254.517578,92.5546875 C254.878908,92.0468725 255.445309,91.7929688 256.216797,91.7929688 C256.981775,91.7929688 257.54492,92.0379207 257.90625,92.527832 C258.26758,93.0177433 258.453125,93.7737579 258.462891,94.7958984 L258.462891,95.9677734 Z M257.55957,94.7324219 C257.55957,93.9674441 257.45215,93.4099952 257.237305,93.0600586 C257.02246,92.7101219 256.682294,92.5351562 256.216797,92.5351562 C255.754555,92.5351562 255.417644,92.7093082 255.206055,93.0576172 C254.994465,93.4059262 254.885417,93.9414026 254.878906,94.6640625 L254.878906,96.109375 C254.878906,96.877608 254.990396,97.4448224 255.213379,97.8110352 C255.436362,98.1772479 255.774086,98.3603516 256.226562,98.3603516 C256.672528,98.3603516 257.003742,98.1878272 257.220215,97.8427734 C257.436687,97.4977196 257.549805,96.9541053 257.55957,96.2119141 L257.55957,94.7324219 Z M264.078125,95.9677734 C264.078125,97.0257214 263.897463,97.8118464 263.536133,98.3261719 C263.174803,98.8404974 262.61003,99.0976562 261.841797,99.0976562 C261.08333,99.0976562 260.521812,98.8461939 260.157227,98.3432617 C259.792641,97.8403295 259.603841,97.0891977 259.59082,96.0898438 L259.59082,94.8837891 C259.59082,93.838862 259.771483,93.0625025 260.132812,92.5546875 C260.494142,92.0468725 261.060543,91.7929688 261.832031,91.7929688 C262.597009,91.7929688 263.160154,92.0379207 263.521484,92.527832 C263.882814,93.0177433 264.068359,93.7737579 264.078125,94.7958984 L264.078125,95.9677734 Z M263.174805,94.7324219 C263.174805,93.9674441 263.067384,93.4099952 262.852539,93.0600586 C262.637694,92.7101219 262.297528,92.5351562 261.832031,92.5351562 C261.369789,92.5351562 261.032879,92.7093082 260.821289,93.0576172 C260.609699,93.4059262 260.500651,93.9414026 260.494141,94.6640625 L260.494141,96.109375 C260.494141,96.877608 260.60563,97.4448224 260.828613,97.8110352 C261.051596,98.1772479 261.389321,98.3603516 261.841797,98.3603516 C262.287763,98.3603516 262.618977,98.1878272 262.835449,97.8427734 C263.051922,97.4977196 263.165039,96.9541053 263.174805,96.2119141 L263.174805,94.7324219 Z M267.413086,96.1630859 C267.413086,96.889001 267.317872,97.5847948 267.127441,98.2504883 C266.937011,98.9161817 266.645673,99.5305961 266.253418,100.09375 C265.861163,100.656904 265.450197,101.05729 265.020508,101.294922 L264.830078,100.743164 C265.331383,100.359048 265.734211,99.7625366 266.038574,98.9536133 C266.342938,98.14469 266.498372,97.2470752 266.504883,96.2607422 L266.504883,96.1044922 C266.504883,95.420895 266.433269,94.7853219 266.290039,94.1977539 C266.146809,93.6101859 265.94743,93.0836612 265.691895,92.6181641 C265.436359,92.1526669 265.14909,91.7897148 264.830078,91.5292969 L265.020508,90.9775391 C265.450197,91.2151705 265.859536,91.6123019 266.248535,92.1689453 C266.637534,92.7255887 266.928873,93.3391894 267.122559,94.0097656 C267.316244,94.6803419 267.413086,95.3981082 267.413086,96.1630859 Z M164.15625,107.416992 C164.15625,108.224288 163.970705,108.872882 163.599609,109.362793 C163.228514,109.852704 162.730472,110.097656 162.105469,110.097656 C161.438148,110.097656 160.922202,109.861656 160.557617,109.389648 L160.513672,110 L159.683594,110 L159.683594,102.5 L160.586914,102.5 L160.586914,105.297852 C160.951499,104.845375 161.454424,104.619141 162.095703,104.619141 C162.736982,104.619141 163.240721,104.861651 163.606934,105.34668 C163.973146,105.831708 164.15625,106.495764 164.15625,107.338867 L164.15625,107.416992 Z M163.25293,107.314453 C163.25293,106.699216 163.134116,106.22396 162.896484,105.888672 C162.658853,105.553384 162.31706,105.385742 161.871094,105.385742 C161.275388,105.385742 160.847332,105.662432 160.586914,106.21582 L160.586914,108.500977 C160.863608,109.054365 161.294919,109.331055 161.880859,109.331055 C162.313804,109.331055 162.650715,109.163413 162.891602,108.828125 C163.132488,108.492837 163.25293,107.988285 163.25293,107.314453 Z M165.054688,107.30957 C165.054688,106.79199 165.156412,106.326499 165.359863,105.913086 C165.563315,105.499672 165.846515,105.180665 166.209473,104.956055 C166.57243,104.731444 166.986651,104.619141 167.452148,104.619141 C168.171553,104.619141 168.753416,104.868162 169.197754,105.366211 C169.642092,105.86426 169.864258,106.526689 169.864258,107.353516 L169.864258,107.416992 C169.864258,107.931318 169.765789,108.392739 169.568848,108.80127 C169.371907,109.2098 169.090334,109.527994 168.724121,109.755859 C168.357908,109.983725 167.937177,110.097656 167.461914,110.097656 C166.745765,110.097656 166.16553,109.848635 165.721191,109.350586 C165.276853,108.852537 165.054688,108.193363 165.054688,107.373047 L165.054688,107.30957 Z M165.962891,107.416992 C165.962891,108.002933 166.098794,108.473306 166.370605,108.828125 C166.642417,109.182944 167.006183,109.360352 167.461914,109.360352 C167.920901,109.360352 168.28548,109.180503 168.555664,108.820801 C168.825848,108.461098 168.960938,107.95736 168.960938,107.30957 C168.960938,106.73014 168.823406,106.260581 168.54834,105.900879 C168.273273,105.541177 167.90788,105.361328 167.452148,105.361328 C167.006183,105.361328 166.646486,105.538735 166.373047,105.893555 C166.099608,106.248374 165.962891,106.756182 165.962891,107.416992 Z M173.550781,105.527344 C173.414062,105.504557 173.265951,105.493164 173.106445,105.493164 C172.513994,105.493164 172.11198,105.74544 171.900391,106.25 L171.900391,110 L170.99707,110 L170.99707,104.716797 L171.875977,104.716797 L171.890625,105.327148 C172.18685,104.855141 172.606768,104.619141 173.150391,104.619141 C173.326173,104.619141 173.459635,104.641927 173.550781,104.6875 L173.550781,105.527344 Z M174.068359,107.314453 C174.068359,106.503902 174.260415,105.852053 174.644531,105.358887 C175.028648,104.86572 175.531572,104.619141 176.15332,104.619141 C176.771813,104.619141 177.261717,104.830727 177.623047,105.253906 L177.623047,102.5 L178.526367,102.5 L178.526367,110 L177.696289,110 L177.652344,109.433594 C177.291014,109.876304 176.788089,110.097656 176.143555,110.097656 C175.531572,110.097656 175.032717,109.847008 174.646973,109.345703 C174.261229,108.844399 174.068359,108.190108 174.068359,107.382812 L174.068359,107.314453 Z M174.97168,107.416992 C174.97168,108.015954 175.095376,108.484699 175.342773,108.823242 C175.590171,109.161786 175.931964,109.331055 176.368164,109.331055 C176.941084,109.331055 177.359374,109.073896 177.623047,108.55957 L177.623047,106.132812 C177.352863,105.634763 176.937828,105.385742 176.37793,105.385742 C175.935219,105.385742 175.590171,105.556639 175.342773,105.898438 C175.095376,106.240236 174.97168,106.746416 174.97168,107.416992 Z M182.120117,110.097656 C181.403968,110.097656 180.821291,109.86247 180.37207,109.39209 C179.922849,108.92171 179.698242,108.292647 179.698242,107.504883 L179.698242,107.338867 C179.698242,106.814776 179.798339,106.346845 179.998535,105.935059 C180.198731,105.523273 180.478677,105.20101 180.838379,104.968262 C181.198081,104.735513 181.587889,104.619141 182.007812,104.619141 C182.694665,104.619141 183.228514,104.845375 183.609375,105.297852 C183.990236,105.750328 184.180664,106.398108 184.180664,107.241211 L184.180664,107.617188 L180.601562,107.617188 C180.614583,108.138023 180.766763,108.558755 181.058105,108.879395 C181.349448,109.200034 181.719724,109.360352 182.168945,109.360352 C182.487957,109.360352 182.758137,109.295248 182.979492,109.165039 C183.200847,109.03483 183.39453,108.862306 183.560547,108.647461 L184.112305,109.077148 C183.669594,109.75749 183.005538,110.097656 182.120117,110.097656 Z M182.007812,105.361328 C181.643227,105.361328 181.337241,105.493977 181.089844,105.759277 C180.842447,106.024578 180.689453,106.396482 180.630859,106.875 L183.277344,106.875 L183.277344,106.806641 C183.251302,106.347654 183.127605,105.992026 182.90625,105.739746 C182.684895,105.487466 182.385419,105.361328 182.007812,105.361328 Z M187.779297,105.527344 C187.642577,105.504557 187.494467,105.493164 187.334961,105.493164 C186.74251,105.493164 186.340496,105.74544 186.128906,106.25 L186.128906,110 L185.225586,110 L185.225586,104.716797 L186.104492,104.716797 L186.119141,105.327148 C186.415366,104.855141 186.835284,104.619141 187.378906,104.619141 C187.554688,104.619141 187.688151,104.641927 187.779297,104.6875 L187.779297,105.527344 Z M188.580078,109.526367 C188.580078,109.370116 188.626464,109.239909 188.719238,109.135742 C188.812012,109.031575 188.951171,108.979492 189.136719,108.979492 C189.322267,108.979492 189.463053,109.031575 189.559082,109.135742 C189.655111,109.239909 189.703125,109.370116 189.703125,109.526367 C189.703125,109.676108 189.655111,109.801432 189.559082,109.902344 C189.463053,110.003256 189.322267,110.053711 189.136719,110.053711 C188.951171,110.053711 188.812012,110.003256 188.719238,109.902344 C188.626464,109.801432 188.580078,109.676108 188.580078,109.526367 Z M188.584961,105.214844 C188.584961,105.058593 188.631347,104.928386 188.724121,104.824219 C188.816895,104.720052 188.956054,104.667969 189.141602,104.667969 C189.327149,104.667969 189.467936,104.720052 189.563965,104.824219 C189.659994,104.928386 189.708008,105.058593 189.708008,105.214844 C189.708008,105.364584 189.659994,105.489908 189.563965,105.59082 C189.467936,105.691732 189.327149,105.742188 189.141602,105.742188 C188.956054,105.742188 188.816895,105.691732 188.724121,105.59082 C188.631347,105.489908 188.584961,105.364584 188.584961,105.214844 Z M196.558594,107.998047 L195.269531,107.998047 L194.878906,110 L194.180664,110 L194.571289,107.998047 L193.404297,107.998047 L193.404297,107.329102 L194.698242,107.329102 L195.035156,105.600586 L193.775391,105.600586 L193.775391,104.921875 L195.166992,104.921875 L195.567383,102.890625 L196.265625,102.890625 L195.865234,104.921875 L197.154297,104.921875 L197.554688,102.890625 L198.257812,102.890625 L197.857422,104.921875 L198.853516,104.921875 L198.853516,105.600586 L197.725586,105.600586 L197.388672,107.329102 L198.487305,107.329102 L198.487305,107.998047 L197.261719,107.998047 L196.871094,110 L196.167969,110 L196.558594,107.998047 Z M195.396484,107.329102 L196.685547,107.329102 L197.022461,105.600586 L195.733398,105.600586 L195.396484,107.329102 Z M201.856445,110.097656 C201.140296,110.097656 200.557619,109.86247 200.108398,109.39209 C199.659177,108.92171 199.43457,108.292647 199.43457,107.504883 L199.43457,107.338867 C199.43457,106.814776 199.534667,106.346845 199.734863,105.935059 C199.93506,105.523273 200.215005,105.20101 200.574707,104.968262 C200.934409,104.735513 201.324217,104.619141 201.744141,104.619141 C202.430993,104.619141 202.964842,104.845375 203.345703,105.297852 C203.726564,105.750328 203.916992,106.398108 203.916992,107.241211 L203.916992,107.617188 L200.337891,107.617188 C200.350912,108.138023 200.503091,108.558755 200.794434,108.879395 C201.085776,109.200034 201.456052,109.360352 201.905273,109.360352 C202.224285,109.360352 202.494465,109.295248 202.71582,109.165039 C202.937176,109.03483 203.130859,108.862306 203.296875,108.647461 L203.848633,109.077148 C203.405922,109.75749 202.741866,110.097656 201.856445,110.097656 Z M201.744141,105.361328 C201.379555,105.361328 201.073569,105.493977 200.826172,105.759277 C200.578775,106.024578 200.425782,106.396482 200.367188,106.875 L203.013672,106.875 L203.013672,106.806641 C202.98763,106.347654 202.863933,105.992026 202.642578,105.739746 C202.421223,105.487466 202.121747,105.361328 201.744141,105.361328 Z M209.327148,106.967773 C209.327148,108.025721 209.146486,108.811846 208.785156,109.326172 C208.423826,109.840497 207.859053,110.097656 207.09082,110.097656 C206.332353,110.097656 205.770835,109.846194 205.40625,109.343262 C205.041665,108.84033 204.852865,108.089198 204.839844,107.089844 L204.839844,105.883789 C204.839844,104.838862 205.020506,104.062503 205.381836,103.554688 C205.743166,103.046872 206.309566,102.792969 207.081055,102.792969 C207.846032,102.792969 208.409178,103.037921 208.770508,103.527832 C209.131838,104.017743 209.317383,104.773758 209.327148,105.795898 L209.327148,106.967773 Z M208.423828,105.732422 C208.423828,104.967444 208.316407,104.409995 208.101562,104.060059 C207.886718,103.710122 207.546552,103.535156 207.081055,103.535156 C206.618813,103.535156 206.281902,103.709308 206.070312,104.057617 C205.858723,104.405926 205.749675,104.941403 205.743164,105.664062 L205.743164,107.109375 C205.743164,107.877608 205.854654,108.444822 206.077637,108.811035 C206.30062,109.177248 206.638344,109.360352 207.09082,109.360352 C207.536786,109.360352 207.868,109.187827 208.084473,108.842773 C208.300945,108.49772 208.414062,107.954105 208.423828,107.211914 L208.423828,105.732422 Z M212.769531,110.097656 C212.053382,110.097656 211.470705,109.86247 211.021484,109.39209 C210.572263,108.92171 210.347656,108.292647 210.347656,107.504883 L210.347656,107.338867 C210.347656,106.814776 210.447753,106.346845 210.647949,105.935059 C210.848146,105.523273 211.128091,105.20101 211.487793,104.968262 C211.847495,104.735513 212.237303,104.619141 212.657227,104.619141 C213.344079,104.619141 213.877928,104.845375 214.258789,105.297852 C214.63965,105.750328 214.830078,106.398108 214.830078,107.241211 L214.830078,107.617188 L211.250977,107.617188 C211.263997,108.138023 211.416177,108.558755 211.70752,108.879395 C211.998862,109.200034 212.369138,109.360352 212.818359,109.360352 C213.137371,109.360352 213.407551,109.295248 213.628906,109.165039 C213.850262,109.03483 214.043944,108.862306 214.209961,108.647461 L214.761719,109.077148 C214.319008,109.75749 213.654952,110.097656 212.769531,110.097656 Z M212.657227,105.361328 C212.292641,105.361328 211.986655,105.493977 211.739258,105.759277 C211.491861,106.024578 211.338867,106.396482 211.280273,106.875 L213.926758,106.875 L213.926758,106.806641 C213.900716,106.347654 213.777019,105.992026 213.555664,105.739746 C213.334309,105.487466 213.034833,105.361328 212.657227,105.361328 Z M220.240234,106.967773 C220.240234,108.025721 220.059572,108.811846 219.698242,109.326172 C219.336912,109.840497 218.772139,110.097656 218.003906,110.097656 C217.245439,110.097656 216.683921,109.846194 216.319336,109.343262 C215.954751,108.84033 215.765951,108.089198 215.75293,107.089844 L215.75293,105.883789 C215.75293,104.838862 215.933592,104.062503 216.294922,103.554688 C216.656252,103.046872 217.222652,102.792969 217.994141,102.792969 C218.759118,102.792969 219.322264,103.037921 219.683594,103.527832 C220.044924,104.017743 220.230469,104.773758 220.240234,105.795898 L220.240234,106.967773 Z M219.336914,105.732422 C219.336914,104.967444 219.229493,104.409995 219.014648,104.060059 C218.799804,103.710122 218.459638,103.535156 217.994141,103.535156 C217.531899,103.535156 217.194988,103.709308 216.983398,104.057617 C216.771809,104.405926 216.66276,104.941403 216.65625,105.664062 L216.65625,107.109375 C216.65625,107.877608 216.76774,108.444822 216.990723,108.811035 C217.213706,109.177248 217.55143,109.360352 218.003906,109.360352 C218.449872,109.360352 218.781086,109.187827 218.997559,108.842773 C219.214031,108.49772 219.327148,107.954105 219.336914,107.211914 L219.336914,105.732422 Z M223.682617,110.097656 C222.966468,110.097656 222.383791,109.86247 221.93457,109.39209 C221.485349,108.92171 221.260742,108.292647 221.260742,107.504883 L221.260742,107.338867 C221.260742,106.814776 221.360839,106.346845 221.561035,105.935059 C221.761231,105.523273 222.041177,105.20101 222.400879,104.968262 C222.760581,104.735513 223.150389,104.619141 223.570312,104.619141 C224.257165,104.619141 224.791014,104.845375 225.171875,105.297852 C225.552736,105.750328 225.743164,106.398108 225.743164,107.241211 L225.743164,107.617188 L222.164062,107.617188 C222.177083,108.138023 222.329263,108.558755 222.620605,108.879395 C222.911948,109.200034 223.282224,109.360352 223.731445,109.360352 C224.050457,109.360352 224.320637,109.295248 224.541992,109.165039 C224.763347,109.03483 224.95703,108.862306 225.123047,108.647461 L225.674805,109.077148 C225.232094,109.75749 224.568038,110.097656 223.682617,110.097656 Z M223.570312,105.361328 C223.205727,105.361328 222.899741,105.493977 222.652344,105.759277 C222.404947,106.024578 222.251953,106.396482 222.193359,106.875 L224.839844,106.875 L224.839844,106.806641 C224.813802,106.347654 224.690105,105.992026 224.46875,105.739746 C224.247395,105.487466 223.947919,105.361328 223.570312,105.361328 Z M231.15332,106.967773 C231.15332,108.025721 230.972658,108.811846 230.611328,109.326172 C230.249998,109.840497 229.685225,110.097656 228.916992,110.097656 C228.158525,110.097656 227.597007,109.846194 227.232422,109.343262 C226.867837,108.84033 226.679037,108.089198 226.666016,107.089844 L226.666016,105.883789 C226.666016,104.838862 226.846678,104.062503 227.208008,103.554688 C227.569338,103.046872 228.135738,102.792969 228.907227,102.792969 C229.672204,102.792969 230.23535,103.037921 230.59668,103.527832 C230.95801,104.017743 231.143555,104.773758 231.15332,105.795898 L231.15332,106.967773 Z M230.25,105.732422 C230.25,104.967444 230.142579,104.409995 229.927734,104.060059 C229.71289,103.710122 229.372724,103.535156 228.907227,103.535156 C228.444985,103.535156 228.108074,103.709308 227.896484,104.057617 C227.684895,104.405926 227.575846,104.941403 227.569336,105.664062 L227.569336,107.109375 C227.569336,107.877608 227.680826,108.444822 227.903809,108.811035 C228.126791,109.177248 228.464516,109.360352 228.916992,109.360352 C229.362958,109.360352 229.694172,109.187827 229.910645,108.842773 C230.127117,108.49772 230.240234,107.954105 230.25,107.211914 L230.25,105.732422 Z M234.844727,107.114258 C234.844727,106.378577 234.943196,105.672204 235.140137,104.995117 C235.337078,104.31803 235.630857,103.702802 236.021484,103.149414 C236.412111,102.596026 236.817381,102.205405 237.237305,101.977539 L237.422852,102.573242 C236.947589,102.937827 236.557781,103.494462 236.253418,104.243164 C235.949054,104.991866 235.782227,105.830073 235.75293,106.757812 L235.748047,107.172852 C235.748047,108.429368 235.977537,109.519852 236.436523,110.444336 C236.713218,110.997724 237.04199,111.430662 237.422852,111.743164 L237.237305,112.294922 C236.80436,112.054035 236.390952,111.650393 235.99707,111.083984 C235.228837,109.977208 234.844727,108.653979 234.844727,107.114258 Z M238.082031,107.314453 C238.082031,106.490881 238.272459,105.835777 238.65332,105.349121 C239.034182,104.862465 239.538734,104.619141 240.166992,104.619141 C240.811527,104.619141 241.314451,104.847003 241.675781,105.302734 L241.719727,104.716797 L242.544922,104.716797 L242.544922,109.873047 C242.544922,110.556644 242.342287,111.095376 241.937012,111.489258 C241.531736,111.88314 240.987308,112.080078 240.303711,112.080078 C239.92285,112.080078 239.550132,111.998699 239.185547,111.835938 C238.820962,111.673176 238.542644,111.450197 238.350586,111.166992 L238.819336,110.625 C239.206708,111.103518 239.680336,111.342773 240.240234,111.342773 C240.67969,111.342773 241.022297,111.219077 241.268066,110.97168 C241.513836,110.724283 241.636719,110.375979 241.636719,109.926758 L241.636719,109.472656 C241.275389,109.889325 240.78223,110.097656 240.157227,110.097656 C239.538734,110.097656 239.038251,109.848635 238.655762,109.350586 C238.273273,108.852537 238.082031,108.173832 238.082031,107.314453 Z M238.990234,107.416992 C238.990234,108.012698 239.112303,108.48063 239.356445,108.820801 C239.600587,109.160972 239.942381,109.331055 240.381836,109.331055 C240.9515,109.331055 241.36979,109.072268 241.636719,108.554688 L241.636719,106.142578 C241.360025,105.638018 240.94499,105.385742 240.391602,105.385742 C239.952146,105.385742 239.608725,105.556639 239.361328,105.898438 C239.113931,106.240236 238.990234,106.746416 238.990234,107.416992 Z M246.460938,105.527344 C246.324218,105.504557 246.176108,105.493164 246.016602,105.493164 C245.424151,105.493164 245.022136,105.74544 244.810547,106.25 L244.810547,110 L243.907227,110 L243.907227,104.716797 L244.786133,104.716797 L244.800781,105.327148 C245.097007,104.855141 245.516924,104.619141 246.060547,104.619141 C246.236329,104.619141 246.369791,104.641927 246.460938,104.6875 L246.460938,105.527344 Z M250.357422,110 C250.305338,109.895833 250.263021,109.710288 250.230469,109.443359 C249.810545,109.879559 249.309248,110.097656 248.726562,110.097656 C248.205727,110.097656 247.778485,109.95036 247.444824,109.655762 C247.111164,109.361164 246.944336,108.987632 246.944336,108.535156 C246.944336,107.985023 247.153481,107.557781 247.571777,107.253418 C247.990074,106.949054 248.578447,106.796875 249.336914,106.796875 L250.21582,106.796875 L250.21582,106.381836 C250.21582,106.066079 250.12142,105.814617 249.932617,105.627441 C249.743814,105.440266 249.465497,105.34668 249.097656,105.34668 C248.775389,105.34668 248.505209,105.428059 248.287109,105.59082 C248.069009,105.753582 247.959961,105.95052 247.959961,106.181641 L247.051758,106.181641 C247.051758,105.917967 247.145344,105.66325 247.33252,105.41748 C247.519695,105.171711 247.773599,104.977214 248.094238,104.833984 C248.414878,104.690754 248.767251,104.619141 249.151367,104.619141 C249.760094,104.619141 250.236977,104.77132 250.582031,105.075684 C250.927085,105.380047 251.10612,105.799151 251.119141,106.333008 L251.119141,108.764648 C251.119141,109.249677 251.180989,109.635415 251.304688,109.921875 L251.304688,110 L250.357422,110 Z M248.858398,109.311523 C249.141603,109.311523 249.410155,109.238282 249.664062,109.091797 C249.91797,108.945312 250.101887,108.754884 250.21582,108.520508 L250.21582,107.436523 L249.507812,107.436523 C248.401036,107.436523 247.847656,107.760413 247.847656,108.408203 C247.847656,108.691408 247.942056,108.91276 248.130859,109.072266 C248.319662,109.231772 248.562173,109.311523 248.858398,109.311523 Z M254.19043,108.676758 L255.420898,104.716797 L256.387695,104.716797 L254.263672,110.81543 C253.934894,111.69434 253.412438,112.133789 252.696289,112.133789 L252.525391,112.119141 L252.188477,112.055664 L252.188477,111.323242 L252.432617,111.342773 C252.738608,111.342773 252.97705,111.280925 253.147949,111.157227 C253.318849,111.033528 253.459635,110.807293 253.570312,110.478516 L253.770508,109.941406 L251.885742,104.716797 L252.87207,104.716797 L254.19043,108.676758 Z M260.889648,106.005859 L261.568359,106.005859 C261.994794,105.999349 262.330077,105.887045 262.574219,105.668945 C262.818361,105.450845 262.94043,105.156252 262.94043,104.785156 C262.94043,103.951819 262.525395,103.535156 261.695312,103.535156 C261.304686,103.535156 260.993002,103.646646 260.760254,103.869629 C260.527505,104.092612 260.411133,104.388019 260.411133,104.755859 L259.507812,104.755859 C259.507812,104.192706 259.713702,103.724774 260.125488,103.352051 C260.537274,102.979328 261.060544,102.792969 261.695312,102.792969 C262.365889,102.792969 262.8916,102.970376 263.272461,103.325195 C263.653322,103.680015 263.84375,104.173174 263.84375,104.804688 C263.84375,105.113934 263.743653,105.41341 263.543457,105.703125 C263.343261,105.99284 263.07064,106.209309 262.725586,106.352539 C263.116213,106.476238 263.41813,106.681314 263.631348,106.967773 C263.844565,107.254233 263.951172,107.604165 263.951172,108.017578 C263.951172,108.655602 263.742841,109.161782 263.326172,109.536133 C262.909503,109.910484 262.367516,110.097656 261.700195,110.097656 C261.032874,110.097656 260.490074,109.916994 260.071777,109.555664 C259.653481,109.194334 259.444336,108.717451 259.444336,108.125 L260.352539,108.125 C260.352539,108.499351 260.474608,108.798827 260.71875,109.023438 C260.962892,109.248048 261.290037,109.360352 261.700195,109.360352 C262.136395,109.360352 262.470051,109.24642 262.701172,109.018555 C262.932293,108.790689 263.047852,108.463544 263.047852,108.037109 C263.047852,107.623696 262.9209,107.306316 262.666992,107.084961 C262.413085,106.863606 262.046877,106.749675 261.568359,106.743164 L260.889648,106.743164 L260.889648,106.005859 Z M269.649414,106.967773 C269.649414,108.025721 269.468752,108.811846 269.107422,109.326172 C268.746092,109.840497 268.181319,110.097656 267.413086,110.097656 C266.654619,110.097656 266.093101,109.846194 265.728516,109.343262 C265.36393,108.84033 265.17513,108.089198 265.162109,107.089844 L265.162109,105.883789 C265.162109,104.838862 265.342772,104.062503 265.704102,103.554688 C266.065431,103.046872 266.631832,102.792969 267.40332,102.792969 C268.168298,102.792969 268.731444,103.037921 269.092773,103.527832 C269.454103,104.017743 269.639648,104.773758 269.649414,105.795898 L269.649414,106.967773 Z M268.746094,105.732422 C268.746094,104.967444 268.638673,104.409995 268.423828,104.060059 C268.208983,103.710122 267.868817,103.535156 267.40332,103.535156 C266.941078,103.535156 266.604168,103.709308 266.392578,104.057617 C266.180989,104.405926 266.07194,104.941403 266.06543,105.664062 L266.06543,107.109375 C266.06543,107.877608 266.176919,108.444822 266.399902,108.811035 C266.622885,109.177248 266.96061,109.360352 267.413086,109.360352 C267.859052,109.360352 268.190266,109.187827 268.406738,108.842773 C268.623211,108.49772 268.736328,107.954105 268.746094,107.211914 L268.746094,105.732422 Z M275.264648,106.967773 C275.264648,108.025721 275.083986,108.811846 274.722656,109.326172 C274.361326,109.840497 273.796553,110.097656 273.02832,110.097656 C272.269853,110.097656 271.708335,109.846194 271.34375,109.343262 C270.979165,108.84033 270.790365,108.089198 270.777344,107.089844 L270.777344,105.883789 C270.777344,104.838862 270.958006,104.062503 271.319336,103.554688 C271.680666,103.046872 272.247066,102.792969 273.018555,102.792969 C273.783532,102.792969 274.346678,103.037921 274.708008,103.527832 C275.069338,104.017743 275.254883,104.773758 275.264648,105.795898 L275.264648,106.967773 Z M274.361328,105.732422 C274.361328,104.967444 274.253907,104.409995 274.039062,104.060059 C273.824218,103.710122 273.484052,103.535156 273.018555,103.535156 C272.556313,103.535156 272.219402,103.709308 272.007812,104.057617 C271.796223,104.405926 271.687175,104.941403 271.680664,105.664062 L271.680664,107.109375 C271.680664,107.877608 271.792154,108.444822 272.015137,108.811035 C272.23812,109.177248 272.575844,109.360352 273.02832,109.360352 C273.474286,109.360352 273.8055,109.187827 274.021973,108.842773 C274.238445,108.49772 274.351562,107.954105 274.361328,107.211914 L274.361328,105.732422 Z M278.599609,107.163086 C278.599609,107.889001 278.504395,108.584795 278.313965,109.250488 C278.123534,109.916182 277.832196,110.530596 277.439941,111.09375 C277.047687,111.656904 276.636721,112.05729 276.207031,112.294922 L276.016602,111.743164 C276.517906,111.359048 276.920734,110.762537 277.225098,109.953613 C277.529461,109.14469 277.684896,108.247075 277.691406,107.260742 L277.691406,107.104492 C277.691406,106.420895 277.619792,105.785322 277.476562,105.197754 C277.333333,104.610186 277.133953,104.083661 276.878418,103.618164 C276.622883,103.152667 276.335614,102.789715 276.016602,102.529297 L276.207031,101.977539 C276.636721,102.21517 277.046059,102.612302 277.435059,103.168945 C277.824058,103.725589 278.115396,104.339189 278.309082,105.009766 C278.502768,105.680342 278.599609,106.398108 278.599609,107.163086 Z" id="bg:-#ffffff-(gray-0)" fill="#EC407A"></path>
            <path d="M154,80 L154,114.845613" id="Path-2" stroke="#F0407B"></path>
            <polyline id="Stroke-8-Copy-11" stroke="#EC3F7A" stroke-width="0.72" transform="translate(136.465066, 74.584436) rotate(33.000000) translate(-136.465066, -74.584436) " points="115.965066 74.0844355 135.89328 74.0844355 156.965066 74.0844355"></polyline>
            <g id="Rectangle-3-Copy-6">
                <use fill="#FFFFFF" fill-rule="evenodd" xlink:href="#path-1"></use>
                <rect stroke="#E0E0E0" stroke-width="1" x="38.5" y="36.5" width="203" height="29" rx="3"></rect>
            </g>
            <rect id="Rectangle-5-Copy-12" x="67" y="37" width="30" height="28"></rect>
            <rect id="Rectangle-5-Copy-14" x="96" y="36" width="30" height="30"></rect>
            <rect id="Rectangle-5-Copy-15" x="183" y="36" width="30" height="30"></rect>
            <rect id="Rectangle-5-Copy-16" x="154" y="36" width="30" height="30"></rect>
            <rect id="Rectangle-5-Copy-17" x="125" y="36" width="30" height="30"></rect>
            <polygon id="1-copy-9" fill="#616262" points="83.2431641 54 81.5888672 54 81.5888672 46.0087891 79.1484375 46.8427734 79.1484375 45.4414062 83.03125 44.0126953 83.2431641 44.0126953"></polygon>
            <path d="M114.4375,54 L107.745117,54 L107.745117,52.8583984 L111.060547,49.2421875 C111.539065,48.7089817 111.879719,48.2635109 112.08252,47.9057617 C112.28532,47.5480125 112.386719,47.1891294 112.386719,46.8291016 C112.386719,46.3551409 112.253419,45.9723322 111.986816,45.6806641 C111.720214,45.3889959 111.36133,45.2431641 110.910156,45.2431641 C110.372393,45.2431641 109.955405,45.4072249 109.65918,45.7353516 C109.362954,46.0634782 109.214844,46.5123669 109.214844,47.0820312 L107.553711,47.0820312 C107.553711,46.4759084 107.691568,45.9301782 107.967285,45.4448242 C108.243003,44.9594702 108.637204,44.5823581 109.149902,44.3134766 C109.6626,44.044595 110.253903,43.9101562 110.923828,43.9101562 C111.889979,43.9101562 112.652178,44.1528296 113.210449,44.6381836 C113.76872,45.1235376 114.047852,45.7945921 114.047852,46.6513672 C114.047852,47.1481145 113.907716,47.6687798 113.627441,48.2133789 C113.347167,48.757978 112.888024,49.3766241 112.25,50.0693359 L109.816406,52.6738281 L114.4375,52.6738281 L114.4375,54 Z" id="2" fill="#616262"></path>
            <path d="M195.243164,54 L193.588867,54 L193.588867,46.0087891 L191.148438,46.8427734 L191.148438,45.4414062 L195.03125,44.0126953 L195.243164,44.0126953 L195.243164,54 Z M205.189453,49.8095703 C205.189453,51.2405671 204.921715,52.3194951 204.38623,53.0463867 C203.850746,53.7732784 203.036138,54.1367188 201.942383,54.1367188 C200.866857,54.1367188 200.056806,53.7823929 199.512207,53.0737305 C198.967608,52.3650681 198.688477,51.3157622 198.674805,49.9257812 L198.674805,48.203125 C198.674805,46.7721283 198.942543,45.6988968 199.478027,44.9833984 C200.013512,44.2679001 200.830398,43.9101562 201.928711,43.9101562 C203.017909,43.9101562 203.830238,44.2587856 204.365723,44.9560547 C204.901207,45.6533238 205.175781,46.6969332 205.189453,48.0869141 L205.189453,49.8095703 Z M203.52832,47.9501953 C203.52832,47.0159458 203.400717,46.3312196 203.145508,45.8959961 C202.890298,45.4607726 202.484703,45.2431641 201.928711,45.2431641 C201.386391,45.2431641 200.987631,45.4493794 200.732422,45.8618164 C200.477212,46.2742534 200.342774,46.9179644 200.329102,47.7929688 L200.329102,50.0488281 C200.329102,50.9785203 200.458983,51.6712217 200.71875,52.1269531 C200.978517,52.5826846 201.38639,52.8105469 201.942383,52.8105469 C202.475589,52.8105469 202.86979,52.5997742 203.125,52.1782227 C203.38021,51.7566711 203.514648,51.0970097 203.52832,50.1992188 L203.52832,47.9501953 Z" id="10" fill="#616262"></path>
            <text id="" font-family="Roboto-Medium, Roboto" font-size="14" font-weight="400" fill="#616262">
                <tspan x="164" y="54"></tspan>
            </text>
            <path d="M138.666016,48.2646484 L139.677734,48.2646484 C140.188154,48.2600911 140.592609,48.127931 140.891113,47.8681641 C141.189617,47.6083971 141.338867,47.2324243 141.338867,46.7402344 C141.338867,46.2662737 141.214682,45.898276 140.966309,45.6362305 C140.717935,45.3741849 140.338544,45.2431641 139.828125,45.2431641 C139.381508,45.2431641 139.01465,45.3719063 138.727539,45.6293945 C138.440428,45.8868828 138.296875,46.2229797 138.296875,46.6376953 L136.635742,46.6376953 C136.635742,46.1272761 136.77132,45.662437 137.04248,45.2431641 C137.313641,44.8238911 137.691892,44.4969087 138.177246,44.262207 C138.6626,44.0275053 139.206052,43.9101562 139.807617,43.9101562 C140.801112,43.9101562 141.58154,44.1596655 142.148926,44.6586914 C142.716311,45.1577173 143,45.8515581 143,46.7402344 C143,47.1868512 142.857586,47.6072571 142.572754,48.0014648 C142.287922,48.3956725 141.919924,48.6930329 141.46875,48.8935547 C142.015628,49.0804046 142.431476,49.374347 142.716309,49.7753906 C143.001141,50.1764343 143.143555,50.6549451 143.143555,51.2109375 C143.143555,52.1041711 142.83708,52.8151015 142.224121,53.34375 C141.611162,53.8723985 140.805669,54.1367188 139.807617,54.1367188 C138.850581,54.1367188 138.066735,53.881513 137.456055,53.3710938 C136.845375,52.8606745 136.540039,52.1816449 136.540039,51.3339844 L138.201172,51.3339844 C138.201172,51.7714866 138.348143,52.1269518 138.64209,52.4003906 C138.936037,52.6738295 139.331378,52.8105469 139.828125,52.8105469 C140.343102,52.8105469 140.748696,52.6738295 141.044922,52.4003906 C141.341147,52.1269518 141.489258,51.7304713 141.489258,51.2109375 C141.489258,50.6868463 141.334311,50.2835301 141.024414,50.0009766 C140.714517,49.7184231 140.254235,49.5771484 139.643555,49.5771484 L138.666016,49.5771484 L138.666016,48.2646484 Z" id="3" fill="#616262"></path>
            <path d="M41,36 L68,36 L68,66 L41,66 L41,66 C39.3431458,66 38,64.6568542 38,63 L38,39 L38,39 C38,37.3431458 39.3431458,36 41,36 Z" id="Rectangle-6"></path>
            <polygon id="Path-2-Copy-22" fill="#616262" fill-rule="nonzero" transform="translate(54.000000, 52.500000) rotate(90.000000) translate(-54.000000, -52.500000) " points="49.5517903 48.5753054 48.5 49.6611545 53.9698844 56.5 59.5 49.5858491 58.4482097 48.5 53.9698844 54.0991265"></polygon>
            <path d="M215,36 L242,36 L242,66 L215,66 L215,66 C213.343146,66 212,64.6568542 212,63 L212,39 L212,39 C212,37.3431458 213.343146,36 215,36 Z" id="Rectangle-6" transform="translate(227.000000, 51.000000) scale(-1, -1) translate(-227.000000, -51.000000) "></path>
            <polygon id="Path-2-Copy-22" fill="#616262" fill-rule="nonzero" transform="translate(229.000000, 52.500000) scale(-1, -1) rotate(90.000000) translate(-229.000000, -52.500000) " points="224.55179 48.5753054 223.5 49.6611545 228.969884 56.5 234.5 49.5858491 233.44821 48.5 228.969884 54.0991265"></polygon>
            <g id="Rectangle-3-Copy-6">
                <use fill="#FFFFFF" fill-rule="evenodd" xlink:href="#path-2"></use>
                <rect stroke="#E0E0E0" stroke-width="1" x="38.5" y="135.5" width="203" height="29" rx="3"></rect>
            </g>
            <rect id="Rectangle-5-Copy-12" fill="#0093A6" x="67" y="136" width="30" height="28"></rect>
            <rect id="Rectangle-5-Copy-14" x="96" y="135" width="30" height="30"></rect>
            <rect id="Rectangle-5-Copy-15" x="183" y="135" width="30" height="30"></rect>
            <rect id="Rectangle-5-Copy-16" x="154" y="135" width="30" height="30"></rect>
            <rect id="Rectangle-5-Copy-17" x="125" y="135" width="30" height="30"></rect>
            <polygon id="1-copy-9" fill="#FFFFFF" points="83.0947266 154.987305 81.4404297 154.987305 81.4404297 146.996094 79 147.830078 79 146.428711 82.8828125 145 83.0947266 145"></polygon>
            <path d="M114.883789,155.089844 L108.191406,155.089844 L108.191406,153.948242 L111.506836,150.332031 C111.985354,149.798825 112.326008,149.353355 112.528809,148.995605 C112.731609,148.637856 112.833008,148.278973 112.833008,147.918945 C112.833008,147.444985 112.699708,147.062176 112.433105,146.770508 C112.166503,146.47884 111.807619,146.333008 111.356445,146.333008 C110.818682,146.333008 110.401694,146.497069 110.105469,146.825195 C109.809243,147.153322 109.661133,147.602211 109.661133,148.171875 L108,148.171875 C108,147.565752 108.137857,147.020022 108.413574,146.534668 C108.689292,146.049314 109.083494,145.672202 109.596191,145.40332 C110.108889,145.134439 110.700192,145 111.370117,145 C112.336268,145 113.098467,145.242673 113.656738,145.728027 C114.215009,146.213381 114.494141,146.884436 114.494141,147.741211 C114.494141,148.237958 114.354005,148.758624 114.07373,149.303223 C113.793456,149.847822 113.334313,150.466468 112.696289,151.15918 L110.262695,153.763672 L114.883789,153.763672 L114.883789,155.089844 Z" id="2" fill="#616262"></path>
            <path d="M195.094727,155.089844 L193.44043,155.089844 L193.44043,147.098633 L191,147.932617 L191,146.53125 L194.882812,145.102539 L195.094727,145.102539 L195.094727,155.089844 Z M205.041016,150.899414 C205.041016,152.330411 204.773277,153.409339 204.237793,154.13623 C203.702309,154.863122 202.887701,155.226562 201.793945,155.226562 C200.718419,155.226562 199.908369,154.872237 199.36377,154.163574 C198.81917,153.454912 198.540039,152.405606 198.526367,151.015625 L198.526367,149.292969 C198.526367,147.861972 198.794105,146.788741 199.32959,146.073242 C199.865074,145.357744 200.681961,145 201.780273,145 C202.869472,145 203.681801,145.348629 204.217285,146.045898 C204.75277,146.743168 205.027344,147.786777 205.041016,149.176758 L205.041016,150.899414 Z M203.379883,149.040039 C203.379883,148.10579 203.25228,147.421063 202.99707,146.98584 C202.741861,146.550616 202.336266,146.333008 201.780273,146.333008 C201.237953,146.333008 200.839194,146.539223 200.583984,146.95166 C200.328775,147.364097 200.194336,148.007808 200.180664,148.882812 L200.180664,151.138672 C200.180664,152.068364 200.310546,152.761065 200.570312,153.216797 C200.830079,153.672528 201.237953,153.900391 201.793945,153.900391 C202.327151,153.900391 202.721353,153.689618 202.976562,153.268066 C203.231772,152.846515 203.366211,152.186853 203.379883,151.289062 L203.379883,149.040039 Z" id="10" fill="#616262"></path>
            <text id="" font-family="Roboto-Medium, Roboto" font-size="14" font-weight="400" fill="#616262">
                <tspan x="164" y="155"></tspan>
            </text>
            <path d="M139.125977,149.354492 L140.137695,149.354492 C140.648115,149.349935 141.05257,149.217775 141.351074,148.958008 C141.649578,148.698241 141.798828,148.322268 141.798828,147.830078 C141.798828,147.356117 141.674643,146.98812 141.42627,146.726074 C141.177896,146.464029 140.798505,146.333008 140.288086,146.333008 C139.841469,146.333008 139.474611,146.46175 139.1875,146.719238 C138.900389,146.976727 138.756836,147.312823 138.756836,147.727539 L137.095703,147.727539 C137.095703,147.21712 137.231281,146.752281 137.502441,146.333008 C137.773602,145.913735 138.151853,145.586752 138.637207,145.352051 C139.122561,145.117349 139.666013,145 140.267578,145 C141.261073,145 142.041501,145.249509 142.608887,145.748535 C143.176272,146.247561 143.459961,146.941402 143.459961,147.830078 C143.459961,148.276695 143.317547,148.697101 143.032715,149.091309 C142.747883,149.485516 142.379885,149.782877 141.928711,149.983398 C142.475589,150.170248 142.891437,150.464191 143.17627,150.865234 C143.461102,151.266278 143.603516,151.744789 143.603516,152.300781 C143.603516,153.194015 143.297041,153.904945 142.684082,154.433594 C142.071123,154.962242 141.26563,155.226562 140.267578,155.226562 C139.310542,155.226562 138.526696,154.971357 137.916016,154.460938 C137.305335,153.950518 137,153.271489 137,152.423828 L138.661133,152.423828 C138.661133,152.86133 138.808104,153.216796 139.102051,153.490234 C139.395998,153.763673 139.791339,153.900391 140.288086,153.900391 C140.803062,153.900391 141.208657,153.763673 141.504883,153.490234 C141.801108,153.216796 141.949219,152.820315 141.949219,152.300781 C141.949219,151.77669 141.794272,151.373374 141.484375,151.09082 C141.174478,150.808267 140.714196,150.666992 140.103516,150.666992 L139.125977,150.666992 L139.125977,149.354492 Z" id="3" fill="#616262"></path>
            <path d="M41,135 L68,135 L68,165 L41,165 L41,165 C39.3431458,165 38,163.656854 38,162 L38,138 L38,138 C38,136.343146 39.3431458,135 41,135 Z" id="Rectangle-6"></path>
            <polygon id="Path-2-Copy-22" fill="#616262" fill-rule="nonzero" transform="translate(54.000000, 151.500000) rotate(90.000000) translate(-54.000000, -151.500000) " points="49.5517903 147.575305 48.5 148.661155 53.9698844 155.5 59.5 148.585849 58.4482097 147.5 53.9698844 153.099127"></polygon>
            <path d="M215,135 L242,135 L242,165 L215,165 L215,165 C213.343146,165 212,163.656854 212,162 L212,138 L212,138 C212,136.343146 213.343146,135 215,135 Z" id="Rectangle-6" transform="translate(227.000000, 150.000000) scale(-1, -1) translate(-227.000000, -150.000000) "></path>
            <polygon id="Path-2-Copy-22" fill="#616262" fill-rule="nonzero" transform="translate(229.000000, 151.500000) scale(-1, -1) rotate(90.000000) translate(-229.000000, -151.500000) " points="224.55179 147.575305 223.5 148.661155 228.969884 155.5 234.5 148.585849 233.44821 147.5 228.969884 153.099127"></polygon>
            <rect id="Rectangle-5-Copy-12" stroke="#E0E0E0" x="133.5" y="218.5" width="29" height="29"></rect>
            <polygon id="1-copy-9" fill="#616262" points="149.243164 236 147.588867 236 147.588867 228.008789 145.148438 228.842773 145.148438 227.441406 149.03125 226.012695 149.243164 226.012695"></polygon>
            <text id="*-copy-2" font-family="Roboto-Medium, Roboto" font-size="12" font-weight="400" fill="#EC407A">
                <tspan x="155" y="251">*</tspan>
            </text>
            <polyline id="Path-2-Copy-2" stroke="#EC407A" transform="translate(162.500000, 216.000000) rotate(90.000000) translate(-162.500000, -216.000000) " points="167.5 215.5 162.872008 215.5 157.5 215.5"></polyline>
            <polyline id="Path-2-Copy-3" stroke="#EC407A" transform="translate(134.500000, 216.000000) rotate(90.000000) translate(-134.500000, -216.000000) " points="139.5 215.5 134.872008 215.5 129.5 215.5"></polyline>
            <path d="M148.607143,201.5 L148.5,229.5 L148.607143,201.5 Z" id="Path-3-Copy" stroke="#EC407A" transform="translate(149.000000, 215.500000) rotate(90.000000) translate(-149.000000, -215.500000) "></path>
            <path d="M129.046875,192.609375 L130.132812,192.609375 C130.815108,192.598958 131.351561,192.419273 131.742188,192.070312 C132.132814,191.721352 132.328125,191.250003 132.328125,190.65625 C132.328125,189.32291 131.664069,188.65625 130.335938,188.65625 C129.710934,188.65625 129.212241,188.834634 128.839844,189.191406 C128.467446,189.548179 128.28125,190.02083 128.28125,190.609375 L126.835938,190.609375 C126.835938,189.708329 127.165361,188.959638 127.824219,188.363281 C128.483076,187.766924 129.320307,187.46875 130.335938,187.46875 C131.40886,187.46875 132.249997,187.752601 132.859375,188.320312 C133.468753,188.888024 133.773438,189.677078 133.773438,190.6875 C133.773438,191.182294 133.613283,191.661456 133.292969,192.125 C132.972655,192.588544 132.536461,192.934895 131.984375,193.164062 C132.609378,193.36198 133.092446,193.690102 133.433594,194.148438 C133.774741,194.606773 133.945312,195.166663 133.945312,195.828125 C133.945312,196.848963 133.611983,197.658851 132.945312,198.257812 C132.278642,198.856774 131.411464,199.15625 130.34375,199.15625 C129.276036,199.15625 128.407555,198.86719 127.738281,198.289062 C127.069007,197.710935 126.734375,196.947921 126.734375,196 L128.1875,196 C128.1875,196.598961 128.382811,197.078123 128.773438,197.4375 C129.164064,197.796877 129.687497,197.976562 130.34375,197.976562 C131.04167,197.976562 131.575519,197.794273 131.945312,197.429688 C132.315106,197.065102 132.5,196.54167 132.5,195.859375 C132.5,195.197913 132.296877,194.690106 131.890625,194.335938 C131.484373,193.981769 130.898441,193.799479 130.132812,193.789062 L129.046875,193.789062 L129.046875,192.609375 Z M143.0625,194.148438 C143.0625,195.841154 142.77344,197.098954 142.195312,197.921875 C141.617185,198.744796 140.713548,199.15625 139.484375,199.15625 C138.270827,199.15625 137.372399,198.75391 136.789062,197.949219 C136.205726,197.144527 135.903646,195.942716 135.882812,194.34375 L135.882812,192.414062 C135.882812,190.742179 136.171872,189.500004 136.75,188.6875 C137.328128,187.874996 138.234369,187.46875 139.46875,187.46875 C140.692714,187.46875 141.593747,187.860673 142.171875,188.644531 C142.750003,189.428389 143.046875,190.638013 143.0625,192.273438 L143.0625,194.148438 Z M141.617188,192.171875 C141.617188,190.947911 141.445314,190.055992 141.101562,189.496094 C140.757811,188.936195 140.213545,188.65625 139.46875,188.65625 C138.729163,188.65625 138.190106,188.934893 137.851562,189.492188 C137.513019,190.049482 137.338542,190.906244 137.328125,192.0625 L137.328125,194.375 C137.328125,195.604173 137.506509,196.511716 137.863281,197.097656 C138.220054,197.683597 138.760413,197.976562 139.484375,197.976562 C140.19792,197.976562 140.727863,197.700524 141.074219,197.148438 C141.420575,196.596351 141.601562,195.726568 141.617188,194.539062 L141.617188,192.171875 Z M147.898438,193.632812 L149.773438,190.546875 L151.460938,190.546875 L148.695312,194.726562 L151.546875,199 L149.875,199 L147.921875,195.835938 L145.96875,199 L144.289062,199 L147.140625,194.726562 L144.375,190.546875 L146.046875,190.546875 L147.898438,193.632812 Z M154.945312,192.609375 L156.03125,192.609375 C156.713545,192.598958 157.249998,192.419273 157.640625,192.070312 C158.031252,191.721352 158.226562,191.250003 158.226562,190.65625 C158.226562,189.32291 157.562507,188.65625 156.234375,188.65625 C155.609372,188.65625 155.110679,188.834634 154.738281,189.191406 C154.365884,189.548179 154.179688,190.02083 154.179688,190.609375 L152.734375,190.609375 C152.734375,189.708329 153.063799,188.959638 153.722656,188.363281 C154.381514,187.766924 155.218745,187.46875 156.234375,187.46875 C157.307297,187.46875 158.148434,187.752601 158.757812,188.320312 C159.367191,188.888024 159.671875,189.677078 159.671875,190.6875 C159.671875,191.182294 159.51172,191.661456 159.191406,192.125 C158.871092,192.588544 158.434899,192.934895 157.882812,193.164062 C158.507816,193.36198 158.990884,193.690102 159.332031,194.148438 C159.673179,194.606773 159.84375,195.166663 159.84375,195.828125 C159.84375,196.848963 159.51042,197.658851 158.84375,198.257812 C158.17708,198.856774 157.309901,199.15625 156.242188,199.15625 C155.174474,199.15625 154.305993,198.86719 153.636719,198.289062 C152.967445,197.710935 152.632812,196.947921 152.632812,196 L154.085938,196 C154.085938,196.598961 154.281248,197.078123 154.671875,197.4375 C155.062502,197.796877 155.585934,197.976562 156.242188,197.976562 C156.940108,197.976562 157.473956,197.794273 157.84375,197.429688 C158.213544,197.065102 158.398438,196.54167 158.398438,195.859375 C158.398438,195.197913 158.195315,194.690106 157.789062,194.335938 C157.38281,193.981769 156.796879,193.799479 156.03125,193.789062 L154.945312,193.789062 L154.945312,192.609375 Z M168.960938,194.148438 C168.960938,195.841154 168.671878,197.098954 168.09375,197.921875 C167.515622,198.744796 166.611985,199.15625 165.382812,199.15625 C164.169265,199.15625 163.270836,198.75391 162.6875,197.949219 C162.104164,197.144527 161.802083,195.942716 161.78125,194.34375 L161.78125,192.414062 C161.78125,190.742179 162.07031,189.500004 162.648438,188.6875 C163.226565,187.874996 164.132806,187.46875 165.367188,187.46875 C166.591152,187.46875 167.492185,187.860673 168.070312,188.644531 C168.64844,189.428389 168.945312,190.638013 168.960938,192.273438 L168.960938,194.148438 Z M167.515625,192.171875 C167.515625,190.947911 167.343752,190.055992 167,189.496094 C166.656248,188.936195 166.111983,188.65625 165.367188,188.65625 C164.6276,188.65625 164.088543,188.934893 163.75,189.492188 C163.411457,190.049482 163.236979,190.906244 163.226562,192.0625 L163.226562,194.375 C163.226562,195.604173 163.404946,196.511716 163.761719,197.097656 C164.118491,197.683597 164.658851,197.976562 165.382812,197.976562 C166.096358,197.976562 166.6263,197.700524 166.972656,197.148438 C167.319012,196.596351 167.5,195.726568 167.515625,194.539062 L167.515625,192.171875 Z" id="30x30" fill="#EC407A"></path>
            <g id="specs-/-redlines-/-label-title-sm" transform="translate(138.000000, 248.000000)" font-size="10" font-family="Roboto-Regular, Roboto" fill="#9E9E9E" font-weight="normal">
                <text id="SMALL-LABEL">
                    <tspan x="0" y="9">BASE</tspan>
                </text>
            </g>
        </g>
    </g>
</svg>