<?xml version="1.0" encoding="utf-8"?>
<!-- Generator: Adobe Illustrator 21.0.2, SVG Export Plug-In . SVG Version: 6.00 Build 0)  -->
<svg version="1.1" id="Layer_1" xmlns="http://www.w3.org/2000/svg" xmlns:xlink="http://www.w3.org/1999/xlink" x="0px" y="0px"
	 width="508px" height="328px" viewBox="0 0 508 328" style="enable-background:new 0 0 508 328;" xml:space="preserve">
<style type="text/css">
	.st0{filter:url(#filter-2);}
	.st1{fill:#FFFFFF;stroke:#E0E0E0;}
	.st2{enable-background:new    ;}
	.st3{fill:#333333;}
	.st4{fill:#0C7C84;}
	.st5{fill:#FFFFFF;}
	.st6{fill:#FFFFFF;fill-opacity:0;}
	.st7{fill:none;stroke:#0C7481;}
	.st8{fill:#0C7481;}
	.st9{fill:#EC407A;}
	.st10{fill:none;stroke:#EC3F7A;}
	.st11{fill:#F03F7B;fill-opacity:0.3;stroke:#EC3F7A;}
	.st12{fill:none;stroke:#EC407A;}
	.st13{fill:none;stroke:#F0367A;stroke-linecap:square;}
</style>
<filter  filterUnits="objectBoundingBox" height="105.1%" id="filter-2" width="102.6%" x="-1.3%" y="-1.4%">
	<feMorphology  in="SourceAlpha" operator="dilate" radius="0.5" result="shadowSpreadOuter1"></feMorphology>
	<feOffset  dx="0" dy="3" in="shadowSpreadOuter1" result="shadowOffsetOuter1"></feOffset>
	<feGaussianBlur  in="shadowOffsetOuter1" result="shadowBlurOuter1" stdDeviation="1.5"></feGaussianBlur>
	<feComposite  in="shadowBlurOuter1" in2="SourceAlpha" operator="out" result="shadowBlurOuter1"></feComposite>
	<feColorMatrix  in="shadowBlurOuter1" type="matrix" values="0 0 0 0 0   0 0 0 0 0   0 0 0 0 0  0 0 0 0.16 0"></feColorMatrix>
</filter>
<title>Popover-Default-layout</title>
<desc>Created with Sketch.</desc>
<g id="_x2A_Document_x2A_">
	<g id="_x32__x29_-Specs-_x26_-States" transform="translate(-427.000000, -371.000000)">
		<g id="Popover-Default-layout" transform="translate(431.000000, 367.000000)">
			<g id="Fill-227-Copy-4">
				<g class="st0">
					<polygon id="path-1_2_" points="466.4,43.4 457.3,34 448.1,43.4 0,43.4 0,62.3 0,80.7 0,294 500,294 500,43.4 					"/>
				</g>
				<g>
					<polygon id="path-1_1_" class="st1" points="466.4,43.4 457.3,34 448.1,43.4 0,43.4 0,62.3 0,80.7 0,294 500,294 500,43.4 
											"/>
				</g>
			</g>
			<g class="st2">
				<path class="st3" d="M24.5,75.4V81h-1.9V66.8h5.2c1.6,0,2.8,0.4,3.7,1.2s1.3,1.8,1.3,3.2c0,1.4-0.4,2.4-1.3,3.2
					s-2.1,1.1-3.7,1.1H24.5z M24.5,73.9h3.4c1,0,1.8-0.2,2.3-0.7s0.8-1.2,0.8-2c0-0.8-0.3-1.5-0.8-2s-1.3-0.8-2.2-0.8h-3.5V73.9z"/>
				<path class="st3" d="M34.4,75.6c0-1,0.2-2,0.6-2.8s1-1.5,1.7-1.9s1.6-0.7,2.5-0.7c1.4,0,2.6,0.5,3.5,1.5s1.3,2.3,1.3,4v0.1
					c0,1-0.2,2-0.6,2.8s-1,1.5-1.7,1.9s-1.6,0.7-2.5,0.7c-1.4,0-2.6-0.5-3.5-1.5s-1.3-2.3-1.3-4V75.6z M36.2,75.8
					c0,1.2,0.3,2.1,0.8,2.8s1.3,1.1,2.2,1.1c0.9,0,1.6-0.4,2.2-1.1s0.8-1.7,0.8-3c0-1.2-0.3-2.1-0.8-2.8s-1.3-1.1-2.2-1.1
					c-0.9,0-1.6,0.4-2.2,1.1S36.2,74.5,36.2,75.8z"/>
				<path class="st3" d="M55.2,75.8c0,1.6-0.4,2.9-1.1,3.9s-1.7,1.5-3,1.5c-1.3,0-2.3-0.4-3-1.2v5.1h-1.8V70.4h1.7l0.1,1.2
					c0.7-0.9,1.8-1.4,3.1-1.4c1.3,0,2.3,0.5,3,1.4s1.1,2.3,1.1,4V75.8z M53.4,75.6c0-1.2-0.3-2.1-0.8-2.8s-1.2-1-2.1-1
					c-1.1,0-1.9,0.5-2.5,1.5v5c0.5,1,1.4,1.4,2.5,1.4c0.9,0,1.6-0.3,2.1-1S53.4,77,53.4,75.6z"/>
				<path class="st3" d="M57,75.6c0-1,0.2-2,0.6-2.8s1-1.5,1.7-1.9s1.6-0.7,2.5-0.7c1.4,0,2.6,0.5,3.5,1.5s1.3,2.3,1.3,4v0.1
					c0,1-0.2,2-0.6,2.8s-1,1.5-1.7,1.9s-1.6,0.7-2.5,0.7c-1.4,0-2.6-0.5-3.5-1.5s-1.3-2.3-1.3-4V75.6z M58.8,75.8
					c0,1.2,0.3,2.1,0.8,2.8s1.3,1.1,2.2,1.1c0.9,0,1.6-0.4,2.2-1.1s0.8-1.7,0.8-3c0-1.2-0.3-2.1-0.8-2.8s-1.3-1.1-2.2-1.1
					c-0.9,0-1.6,0.4-2.2,1.1S58.8,74.5,58.8,75.8z"/>
				<path class="st3" d="M72.2,78.5l2.6-8.1h1.8L72.9,81h-1.4l-3.8-10.6h1.8L72.2,78.5z"/>
				<path class="st3" d="M82.8,81.2c-1.4,0-2.6-0.5-3.5-1.4S78,77.6,78,76v-0.3c0-1,0.2-2,0.6-2.8s1-1.5,1.7-1.9s1.5-0.7,2.3-0.7
					c1.4,0,2.4,0.5,3.2,1.4s1.1,2.2,1.1,3.9v0.8h-7.2c0,1,0.3,1.9,0.9,2.5s1.3,1,2.2,1c0.6,0,1.2-0.1,1.6-0.4s0.8-0.6,1.2-1l1.1,0.9
					C85.9,80.5,84.6,81.2,82.8,81.2z M82.6,71.7c-0.7,0-1.3,0.3-1.8,0.8s-0.8,1.3-0.9,2.2h5.3v-0.1c-0.1-0.9-0.3-1.6-0.7-2.1
					S83.3,71.7,82.6,71.7z"/>
				<path class="st3" d="M94.1,72.1c-0.3,0-0.6-0.1-0.9-0.1c-1.2,0-2,0.5-2.4,1.5V81H89V70.4h1.8l0,1.2c0.6-0.9,1.4-1.4,2.5-1.4
					c0.4,0,0.6,0,0.8,0.1V72.1z"/>
				<path class="st3" d="M102.9,79.5h6.7V81H101V66.8h1.9V79.5z"/>
				<path class="st3" d="M118,81c-0.1-0.2-0.2-0.6-0.3-1.1c-0.8,0.9-1.8,1.3-3,1.3c-1,0-1.9-0.3-2.6-0.9s-1-1.3-1-2.2
					c0-1.1,0.4-2,1.3-2.6s2-0.9,3.5-0.9h1.8v-0.8c0-0.6-0.2-1.1-0.6-1.5s-0.9-0.6-1.7-0.6c-0.6,0-1.2,0.2-1.6,0.5s-0.7,0.7-0.7,1.2
					h-1.8c0-0.5,0.2-1,0.6-1.5s0.9-0.9,1.5-1.2s1.3-0.4,2.1-0.4c1.2,0,2.2,0.3,2.9,0.9s1,1.4,1.1,2.5v4.9c0,1,0.1,1.7,0.4,2.3V81
					H118z M115,79.6c0.6,0,1.1-0.1,1.6-0.4s0.9-0.7,1.1-1.1v-2.2h-1.4c-2.2,0-3.3,0.6-3.3,1.9c0,0.6,0.2,1,0.6,1.3
					S114.4,79.6,115,79.6z"/>
				<path class="st3" d="M131.3,75.8c0,1.6-0.4,2.9-1.1,3.9s-1.7,1.5-3,1.5c-1.3,0-2.4-0.5-3.1-1.4L124,81h-1.7V66h1.8v5.6
					c0.7-0.9,1.7-1.4,3-1.4s2.3,0.5,3,1.5s1.1,2.3,1.1,4V75.8z M129.5,75.6c0-1.2-0.2-2.2-0.7-2.9s-1.2-1-2.1-1
					c-1.2,0-2,0.6-2.6,1.7V78c0.6,1.1,1.4,1.7,2.6,1.7c0.9,0,1.5-0.3,2-1S129.5,77,129.5,75.6z"/>
				<path class="st3" d="M138,81.2c-1.4,0-2.6-0.5-3.5-1.4s-1.3-2.2-1.3-3.8v-0.3c0-1,0.2-2,0.6-2.8s1-1.5,1.7-1.9s1.5-0.7,2.3-0.7
					c1.4,0,2.4,0.5,3.2,1.4s1.1,2.2,1.1,3.9v0.8H135c0,1,0.3,1.9,0.9,2.5s1.3,1,2.2,1c0.6,0,1.2-0.1,1.6-0.4s0.8-0.6,1.2-1l1.1,0.9
					C141.1,80.5,139.8,81.2,138,81.2z M137.8,71.7c-0.7,0-1.3,0.3-1.8,0.8s-0.8,1.3-0.9,2.2h5.3v-0.1c-0.1-0.9-0.3-1.6-0.7-2.1
					S138.5,71.7,137.8,71.7z"/>
				<path class="st3" d="M146.2,81h-1.8V66h1.8V81z"/>
			</g>
			<g id="Button_x2F_Standard_x2F_Primary" transform="translate(20.000000, 242.000000)">
				<path id="Rectangle-2" class="st4" d="M2,0h82c1.1,0,2,0.9,2,2v28c0,1.1-0.9,2-2,2H2c-1.1,0-2-0.9-2-2V2C0,0.9,0.9,0,2,0z"/>
				<g class="st2">
					<path class="st5" d="M23.7,18.4c0-0.4-0.2-0.8-0.5-1s-0.9-0.5-1.7-0.7s-1.4-0.5-1.9-0.8c-0.9-0.6-1.4-1.3-1.4-2.2
						c0-0.8,0.3-1.5,1-2s1.5-0.8,2.5-0.8c0.7,0,1.3,0.1,1.9,0.4s1,0.6,1.3,1.1c0.3,0.5,0.5,1,0.5,1.6h-1.7c0-0.5-0.2-0.9-0.5-1.2
						c-0.3-0.3-0.8-0.4-1.4-0.4c-0.6,0-1,0.1-1.3,0.4s-0.5,0.6-0.5,1c0,0.4,0.2,0.7,0.5,0.9c0.3,0.2,0.9,0.5,1.7,0.7
						c0.8,0.2,1.4,0.5,1.9,0.8c0.5,0.3,0.8,0.6,1,1c0.2,0.4,0.3,0.8,0.3,1.3c0,0.8-0.3,1.5-1,2c-0.6,0.5-1.5,0.7-2.6,0.7
						c-0.7,0-1.4-0.1-2-0.4c-0.6-0.3-1.1-0.6-1.4-1.1s-0.5-1-0.5-1.6h1.7c0,0.6,0.2,1,0.6,1.3s0.9,0.5,1.6,0.5
						c0.6,0,1.1-0.1,1.4-0.4C23.5,19.2,23.7,18.8,23.7,18.4z"/>
					<path class="st5" d="M34.2,11v6.7c0,1.1-0.3,1.9-1,2.5c-0.7,0.6-1.6,0.9-2.7,0.9c-1.1,0-2-0.3-2.7-0.9c-0.7-0.6-1-1.5-1-2.5V11
						h1.7v6.7c0,0.7,0.2,1.2,0.5,1.5s0.8,0.5,1.5,0.5c1.3,0,2-0.7,2-2.1V11H34.2z"/>
					<path class="st5" d="M36,21V11h3.4c1.1,0,2,0.2,2.6,0.7s0.9,1.1,0.9,2c0,0.5-0.1,0.9-0.4,1.2s-0.6,0.6-1.1,0.8
						c0.5,0.1,1,0.4,1.2,0.8c0.3,0.4,0.4,0.9,0.4,1.5c0,0.9-0.3,1.7-0.9,2.2S40.8,21,39.7,21H36z M37.8,15.2h1.7
						c0.5,0,1-0.1,1.3-0.4c0.3-0.2,0.5-0.6,0.5-1c0-0.5-0.1-0.8-0.4-1.1s-0.7-0.3-1.3-0.3h-1.7V15.2z M37.8,16.5v3.1h1.9
						c0.5,0,1-0.1,1.3-0.4s0.5-0.6,0.5-1.1c0-1-0.5-1.6-1.6-1.6H37.8z"/>
					<path class="st5" d="M47.1,11l2.9,7.6l2.9-7.6h2.2v10h-1.7v-3.3l0.2-4.4L50.6,21h-1.2l-2.9-7.7l0.2,4.4V21h-1.7V11H47.1z"/>
					<path class="st5" d="M58.9,21h-1.7V11h1.7V21z"/>
					<path class="st5" d="M68.3,12.4h-3.1V21h-1.7v-8.6h-3.1V11h7.9V12.4z"/>
				</g>
			</g>
			<g id="Button_x2F_Standard_x2F_Secondary" transform="translate(126.000000, 242.000000)">
				<g id="Rectangle-2_1_">
					<g>
						<path id="path-3" class="st6" d="M2,0h79c1.1,0,2,0.9,2,2v28c0,1.1-0.9,2-2,2H2c-1.1,0-2-0.9-2-2V2C0,0.9,0.9,0,2,0z"/>
					</g>
					<path class="st7" d="M2.5,0.5h78c1.1,0,2,0.9,2,2v27c0,1.1-0.9,2-2,2h-78c-1.1,0-2-0.9-2-2v-27C0.5,1.4,1.4,0.5,2.5,0.5z"/>
				</g>
				<g class="st2">
					<path class="st8" d="M23.6,17.8c-0.1,1.1-0.5,1.9-1.2,2.5c-0.7,0.6-1.6,0.9-2.7,0.9c-0.8,0-1.5-0.2-2.1-0.6
						c-0.6-0.4-1.1-0.9-1.4-1.6s-0.5-1.5-0.5-2.4v-0.9c0-0.9,0.2-1.8,0.5-2.5s0.8-1.3,1.4-1.7s1.3-0.6,2.2-0.6c1.1,0,2,0.3,2.7,0.9
						c0.7,0.6,1.1,1.4,1.2,2.5h-1.7c-0.1-0.7-0.3-1.2-0.6-1.5c-0.3-0.3-0.8-0.5-1.5-0.5c-0.8,0-1.3,0.3-1.7,0.8s-0.6,1.4-0.6,2.4
						v0.9c0,1.1,0.2,1.9,0.6,2.5s0.9,0.8,1.7,0.8c0.7,0,1.2-0.2,1.5-0.5s0.6-0.8,0.6-1.5H23.6z"/>
					<path class="st8" d="M30.7,18.7h-3.9L26,21h-1.8L28,11h1.6l3.8,10h-1.8L30.7,18.7z M27.3,17.3h2.9l-1.4-4.1L27.3,17.3z"/>
					<path class="st8" d="M42.4,21h-1.7l-4.4-7.1V21h-1.7V11h1.7l4.5,7.1V11h1.7V21z"/>
					<path class="st8" d="M52,17.8c-0.1,1.1-0.5,1.9-1.2,2.5c-0.7,0.6-1.6,0.9-2.7,0.9c-0.8,0-1.5-0.2-2.1-0.6
						c-0.6-0.4-1.1-0.9-1.4-1.6s-0.5-1.5-0.5-2.4v-0.9c0-0.9,0.2-1.8,0.5-2.5s0.8-1.3,1.4-1.7s1.3-0.6,2.2-0.6c1.1,0,2,0.3,2.7,0.9
						c0.7,0.6,1.1,1.4,1.2,2.5h-1.7c-0.1-0.7-0.3-1.2-0.6-1.5c-0.3-0.3-0.8-0.5-1.5-0.5c-0.8,0-1.3,0.3-1.7,0.8s-0.6,1.4-0.6,2.4
						v0.9c0,1.1,0.2,1.9,0.6,2.5s0.9,0.8,1.7,0.8c0.7,0,1.2-0.2,1.5-0.5s0.6-0.8,0.6-1.5H52z"/>
					<path class="st8" d="M59.4,16.6h-4.1v3.1H60V21h-6.5V11H60v1.4h-4.7v2.7h4.1V16.6z"/>
					<path class="st8" d="M63.2,19.6h4.5V21h-6.2V11h1.7V19.6z"/>
				</g>
			</g>
			<g class="st2">
				<path class="st9" d="M350.9,13.7V17h-1.1V8.5h3.1c0.9,0,1.7,0.2,2.2,0.7s0.8,1.1,0.8,1.9c0,0.8-0.3,1.5-0.8,1.9
					s-1.3,0.7-2.2,0.7H350.9z M350.9,12.7h2c0.6,0,1.1-0.1,1.4-0.4c0.3-0.3,0.5-0.7,0.5-1.2c0-0.5-0.2-0.9-0.5-1.2
					c-0.3-0.3-0.8-0.5-1.3-0.5h-2.1V12.7z"/>
				<path class="st9" d="M356.8,13.8c0-0.6,0.1-1.2,0.4-1.7s0.6-0.9,1-1.1s0.9-0.4,1.5-0.4c0.9,0,1.6,0.3,2.1,0.9s0.8,1.4,0.8,2.4
					v0.1c0,0.6-0.1,1.2-0.4,1.7s-0.6,0.9-1,1.1s-0.9,0.4-1.5,0.4c-0.9,0-1.6-0.3-2.1-0.9S356.8,14.8,356.8,13.8L356.8,13.8z
					 M357.9,13.9c0,0.7,0.2,1.3,0.5,1.7s0.8,0.6,1.3,0.6c0.6,0,1-0.2,1.3-0.6s0.5-1,0.5-1.8c0-0.7-0.2-1.3-0.5-1.7s-0.8-0.6-1.3-0.6
					c-0.5,0-1,0.2-1.3,0.6S357.9,13.1,357.9,13.9z"/>
				<path class="st9" d="M364,9c0-0.2,0.1-0.3,0.2-0.4s0.3-0.2,0.5-0.2s0.4,0.1,0.5,0.2s0.2,0.3,0.2,0.4s-0.1,0.3-0.2,0.4
					s-0.3,0.2-0.5,0.2s-0.4-0.1-0.5-0.2S364,9.2,364,9z M365.1,17H364v-6.3h1.1V17z"/>
				<path class="st9" d="M367.9,10.7l0,0.8c0.5-0.6,1.1-0.9,1.9-0.9c1.3,0,2,0.8,2,2.3V17h-1.1v-4.2c0-0.5-0.1-0.8-0.3-1
					s-0.5-0.3-1-0.3c-0.4,0-0.7,0.1-0.9,0.3s-0.5,0.4-0.6,0.7V17h-1.1v-6.3H367.9z"/>
				<path class="st9" d="M375,9.1v1.5h1.2v0.8H375v3.9c0,0.3,0.1,0.4,0.2,0.6s0.3,0.2,0.5,0.2c0.1,0,0.3,0,0.5-0.1V17
					c-0.3,0.1-0.6,0.1-0.8,0.1c-0.5,0-0.8-0.1-1.1-0.4s-0.4-0.7-0.4-1.2v-3.9h-1.2v-0.8h1.2V9.1H375z"/>
				<path class="st9" d="M380,17.1c-0.9,0-1.6-0.3-2.1-0.8s-0.8-1.3-0.8-2.3v-0.2c0-0.6,0.1-1.2,0.4-1.7s0.6-0.9,1-1.2
					s0.9-0.4,1.4-0.4c0.8,0,1.5,0.3,1.9,0.8s0.7,1.3,0.7,2.3v0.5h-4.3c0,0.6,0.2,1.1,0.5,1.5s0.8,0.6,1.3,0.6c0.4,0,0.7-0.1,1-0.2
					s0.5-0.4,0.7-0.6l0.7,0.5C381.9,16.7,381.1,17.1,380,17.1z M379.9,11.4c-0.4,0-0.8,0.2-1.1,0.5s-0.5,0.8-0.6,1.3h3.2v-0.1
					c0-0.6-0.2-1-0.4-1.3S380.4,11.4,379.9,11.4z"/>
				<path class="st9" d="M386.8,11.6c-0.2,0-0.3,0-0.5,0c-0.7,0-1.2,0.3-1.4,0.9V17h-1.1v-6.3h1.1l0,0.7c0.4-0.6,0.9-0.8,1.5-0.8
					c0.2,0,0.4,0,0.5,0.1V11.6z"/>
			</g>
			<g class="st2">
				<path class="st9" d="M66.5,13h-1.1V9.1h-4.3V13H60V4.5h1.1v3.7h4.3V4.5h1.1V13z"/>
				<path class="st9" d="M71,13.1c-0.9,0-1.6-0.3-2.1-0.8S68.1,11,68.1,10V9.8c0-0.6,0.1-1.2,0.4-1.7s0.6-0.9,1-1.2s0.9-0.4,1.4-0.4
					c0.8,0,1.5,0.3,1.9,0.8s0.7,1.3,0.7,2.3v0.5h-4.3c0,0.6,0.2,1.1,0.5,1.5s0.8,0.6,1.3,0.6c0.4,0,0.7-0.1,1-0.2s0.5-0.4,0.7-0.6
					l0.7,0.5C72.9,12.7,72.1,13.1,71,13.1z M70.9,7.4c-0.4,0-0.8,0.2-1.1,0.5s-0.5,0.8-0.6,1.3h3.2V9.2c0-0.6-0.2-1-0.4-1.3
					S71.3,7.4,70.9,7.4z"/>
				<path class="st9" d="M78.6,13c-0.1-0.1-0.1-0.3-0.2-0.7c-0.5,0.5-1.1,0.8-1.8,0.8c-0.6,0-1.1-0.2-1.5-0.5s-0.6-0.8-0.6-1.3
					c0-0.7,0.3-1.2,0.8-1.5s1.2-0.5,2.1-0.5h1.1V8.7c0-0.4-0.1-0.7-0.3-0.9s-0.6-0.3-1-0.3c-0.4,0-0.7,0.1-1,0.3s-0.4,0.4-0.4,0.7
					h-1.1c0-0.3,0.1-0.6,0.3-0.9s0.5-0.5,0.9-0.7s0.8-0.3,1.3-0.3c0.7,0,1.3,0.2,1.7,0.5s0.6,0.9,0.6,1.5v2.9c0,0.6,0.1,1,0.2,1.4
					V13H78.6z M76.8,12.2c0.3,0,0.7-0.1,1-0.3s0.5-0.4,0.7-0.7V9.9h-0.8c-1.3,0-2,0.4-2,1.2c0,0.3,0.1,0.6,0.3,0.8
					S76.5,12.2,76.8,12.2z"/>
				<path class="st9" d="M81,9.8c0-1,0.2-1.8,0.7-2.3s1.1-0.9,1.8-0.9c0.7,0,1.3,0.3,1.8,0.8V4h1.1v9h-1l-0.1-0.7
					c-0.4,0.5-1,0.8-1.8,0.8c-0.7,0-1.3-0.3-1.8-0.9S81,10.8,81,9.8L81,9.8z M82.1,9.9c0,0.7,0.1,1.3,0.4,1.7s0.7,0.6,1.2,0.6
					c0.7,0,1.2-0.3,1.5-0.9V8.4c-0.3-0.6-0.8-0.9-1.5-0.9c-0.5,0-0.9,0.2-1.2,0.6S82.1,9.1,82.1,9.9z"/>
				<path class="st9" d="M88,5c0-0.2,0.1-0.3,0.2-0.4s0.3-0.2,0.5-0.2s0.4,0.1,0.5,0.2s0.2,0.3,0.2,0.4s-0.1,0.3-0.2,0.4
					s-0.3,0.2-0.5,0.2s-0.4-0.1-0.5-0.2S88,5.2,88,5z M89.2,13h-1.1V6.7h1.1V13z"/>
				<path class="st9" d="M92,6.7l0,0.8c0.5-0.6,1.1-0.9,1.9-0.9c1.3,0,2,0.8,2,2.3V13h-1.1V8.8c0-0.5-0.1-0.8-0.3-1s-0.5-0.3-1-0.3
					c-0.4,0-0.7,0.1-0.9,0.3S92.2,8.2,92,8.5V13h-1.1V6.7H92z"/>
				<path class="st9" d="M97.3,9.8c0-1,0.2-1.8,0.7-2.4s1.1-0.9,1.8-0.9c0.8,0,1.4,0.3,1.8,0.8l0.1-0.7h1v6.2c0,0.8-0.2,1.5-0.7,1.9
					s-1.1,0.7-2,0.7c-0.5,0-0.9-0.1-1.3-0.3s-0.8-0.5-1-0.8l0.6-0.7c0.5,0.6,1,0.9,1.7,0.9c0.5,0,0.9-0.1,1.2-0.4s0.4-0.7,0.4-1.3
					v-0.5c-0.4,0.5-1,0.8-1.8,0.8c-0.7,0-1.3-0.3-1.8-0.9S97.3,10.8,97.3,9.8z M98.4,9.9c0,0.7,0.1,1.3,0.4,1.7s0.7,0.6,1.2,0.6
					c0.7,0,1.2-0.3,1.5-0.9V8.4c-0.3-0.6-0.8-0.9-1.5-0.9c-0.5,0-0.9,0.2-1.2,0.6S98.4,9.1,98.4,9.9z"/>
			</g>
			
				<g id="specs-_x2F_-redlines-_x2F_-line-straight" transform="translate(82.000000, 42.000000) rotate(-270.000000) translate(-82.000000, -42.000000) translate(61.000000, 37.000000)">
				<path id="Stroke-8" class="st10" d="M10,5h32"/>
				<path id="Path" class="st11" d="M5,0c2.8,0,5,2.2,5,5c0,2.8-2.2,5-5,5S0,7.8,0,5C0,2.2,2.2,0,5,0"/>
			</g>
			<g class="st2">
				<path class="st9" d="M388.3,278.3c-0.1,0.9-0.4,1.6-1,2.1s-1.3,0.7-2.2,0.7c-1,0-1.8-0.4-2.4-1.1s-0.9-1.7-0.9-2.9v-0.8
					c0-0.8,0.1-1.5,0.4-2.1s0.7-1.1,1.2-1.4s1.1-0.5,1.8-0.5c0.9,0,1.6,0.3,2.2,0.8s0.9,1.2,1,2.1h-1.1c-0.1-0.7-0.3-1.2-0.6-1.5
					s-0.8-0.5-1.4-0.5c-0.7,0-1.3,0.3-1.7,0.8c-0.4,0.5-0.6,1.3-0.6,2.3v0.8c0,0.9,0.2,1.7,0.6,2.2c0.4,0.5,0.9,0.8,1.6,0.8
					c0.6,0,1.1-0.1,1.4-0.4s0.6-0.8,0.7-1.5H388.3z"/>
				<path class="st9" d="M389.3,277.8c0-0.6,0.1-1.2,0.4-1.7s0.6-0.9,1-1.1s0.9-0.4,1.5-0.4c0.9,0,1.6,0.3,2.1,0.9s0.8,1.4,0.8,2.4
					v0.1c0,0.6-0.1,1.2-0.4,1.7s-0.6,0.9-1,1.1s-0.9,0.4-1.5,0.4c-0.9,0-1.6-0.3-2.1-0.9S389.3,278.8,389.3,277.8L389.3,277.8z
					 M390.4,277.9c0,0.7,0.2,1.3,0.5,1.7s0.8,0.6,1.3,0.6c0.6,0,1-0.2,1.3-0.6s0.5-1,0.5-1.8c0-0.7-0.2-1.3-0.5-1.7
					s-0.8-0.6-1.3-0.6c-0.5,0-1,0.2-1.3,0.6S390.4,277.1,390.4,277.9z"/>
				<path class="st9" d="M397.5,274.7l0,0.8c0.5-0.6,1.1-0.9,1.9-0.9c1.3,0,2,0.8,2,2.3v4.2h-1.1v-4.2c0-0.5-0.1-0.8-0.3-1
					s-0.5-0.3-1-0.3c-0.4,0-0.7,0.1-0.9,0.3s-0.5,0.4-0.6,0.7v4.5h-1.1v-6.3H397.5z"/>
				<path class="st9" d="M404.6,273.1v1.5h1.2v0.8h-1.2v3.9c0,0.3,0.1,0.4,0.2,0.6s0.3,0.2,0.5,0.2c0.1,0,0.3,0,0.5-0.1v0.9
					c-0.3,0.1-0.6,0.1-0.8,0.1c-0.5,0-0.8-0.1-1.1-0.4s-0.4-0.7-0.4-1.2v-3.9h-1.2v-0.8h1.2v-1.5H404.6z"/>
				<path class="st9" d="M410.9,281c-0.1-0.1-0.1-0.3-0.2-0.7c-0.5,0.5-1.1,0.8-1.8,0.8c-0.6,0-1.1-0.2-1.5-0.5s-0.6-0.8-0.6-1.3
					c0-0.7,0.3-1.2,0.8-1.5s1.2-0.5,2.1-0.5h1.1v-0.5c0-0.4-0.1-0.7-0.3-0.9s-0.6-0.3-1-0.3c-0.4,0-0.7,0.1-1,0.3s-0.4,0.4-0.4,0.7
					H407c0-0.3,0.1-0.6,0.3-0.9s0.5-0.5,0.9-0.7s0.8-0.3,1.3-0.3c0.7,0,1.3,0.2,1.7,0.5s0.6,0.9,0.6,1.5v2.9c0,0.6,0.1,1,0.2,1.4
					v0.1H410.9z M409.1,280.2c0.3,0,0.7-0.1,1-0.3s0.5-0.4,0.7-0.7v-1.3h-0.8c-1.3,0-2,0.4-2,1.2c0,0.3,0.1,0.6,0.3,0.8
					S408.8,280.2,409.1,280.2z"/>
				<path class="st9" d="M413.5,273c0-0.2,0.1-0.3,0.2-0.4s0.3-0.2,0.5-0.2s0.4,0.1,0.5,0.2s0.2,0.3,0.2,0.4s-0.1,0.3-0.2,0.4
					s-0.3,0.2-0.5,0.2s-0.4-0.1-0.5-0.2S413.5,273.2,413.5,273z M414.7,281h-1.1v-6.3h1.1V281z"/>
				<path class="st9" d="M417.5,274.7l0,0.8c0.5-0.6,1.1-0.9,1.9-0.9c1.3,0,2,0.8,2,2.3v4.2h-1.1v-4.2c0-0.5-0.1-0.8-0.3-1
					s-0.5-0.3-1-0.3c-0.4,0-0.7,0.1-0.9,0.3s-0.5,0.4-0.6,0.7v4.5h-1.1v-6.3H417.5z"/>
				<path class="st9" d="M425.7,281.1c-0.9,0-1.6-0.3-2.1-0.8s-0.8-1.3-0.8-2.3v-0.2c0-0.6,0.1-1.2,0.4-1.7s0.6-0.9,1-1.2
					s0.9-0.4,1.4-0.4c0.8,0,1.5,0.3,1.9,0.8s0.7,1.3,0.7,2.3v0.5h-4.3c0,0.6,0.2,1.1,0.5,1.5s0.8,0.6,1.3,0.6c0.4,0,0.7-0.1,1-0.2
					s0.5-0.4,0.7-0.6l0.7,0.5C427.6,280.7,426.8,281.1,425.7,281.1z M425.6,275.4c-0.4,0-0.8,0.2-1.1,0.5s-0.5,0.8-0.6,1.3h3.2v-0.1
					c0-0.6-0.2-1-0.4-1.3S426,275.4,425.6,275.4z"/>
				<path class="st9" d="M432.5,275.6c-0.2,0-0.3,0-0.5,0c-0.7,0-1.2,0.3-1.4,0.9v4.5h-1.1v-6.3h1.1l0,0.7c0.4-0.6,0.9-0.8,1.5-0.8
					c0.2,0,0.4,0,0.5,0.1V275.6z"/>
			</g>
			
				<g id="specs-_x2F_-redlines-_x2F_-line-end-_x2F_-circle" transform="translate(374.000000, 279.000000) rotate(-90.000000) translate(-374.000000, -279.000000) translate(358.000000, 274.000000)">
				<g id="redline-start">
					<g>
						<circle id="path-4" class="st5" cx="16" cy="5" r="3.5"/>
					</g>
					<circle class="st12" cx="16" cy="5" r="3"/>
				</g>
			</g>
			<path id="Line" class="st13" d="M21.7,104v118"/>
			<g class="st2">
				<path class="st9" d="M73.3,161.3c-0.1,0.9-0.4,1.6-1,2.1s-1.3,0.7-2.2,0.7c-1,0-1.8-0.4-2.4-1.1s-0.9-1.7-0.9-2.9v-0.8
					c0-0.8,0.1-1.5,0.4-2.1s0.7-1.1,1.2-1.4s1.1-0.5,1.8-0.5c0.9,0,1.6,0.3,2.2,0.8s0.9,1.2,1,2.1h-1.1c-0.1-0.7-0.3-1.2-0.6-1.5
					s-0.8-0.5-1.4-0.5c-0.7,0-1.3,0.3-1.7,0.8c-0.4,0.5-0.6,1.3-0.6,2.3v0.8c0,0.9,0.2,1.7,0.6,2.2c0.4,0.5,0.9,0.8,1.6,0.8
					c0.6,0,1.1-0.1,1.4-0.4s0.6-0.8,0.7-1.5H73.3z"/>
				<path class="st9" d="M74.3,160.8c0-0.6,0.1-1.2,0.4-1.7s0.6-0.9,1-1.1s0.9-0.4,1.5-0.4c0.9,0,1.6,0.3,2.1,0.9s0.8,1.4,0.8,2.4
					v0.1c0,0.6-0.1,1.2-0.4,1.7s-0.6,0.9-1,1.1s-0.9,0.4-1.5,0.4c-0.9,0-1.6-0.3-2.1-0.9S74.3,161.8,74.3,160.8L74.3,160.8z
					 M75.4,160.9c0,0.7,0.2,1.3,0.5,1.7s0.8,0.6,1.3,0.6c0.6,0,1-0.2,1.3-0.6s0.5-1,0.5-1.8c0-0.7-0.2-1.3-0.5-1.7s-0.8-0.6-1.3-0.6
					c-0.5,0-1,0.2-1.3,0.6S75.4,160.1,75.4,160.9z"/>
				<path class="st9" d="M82.5,157.7l0,0.8c0.5-0.6,1.1-0.9,1.9-0.9c1.3,0,2,0.8,2,2.3v4.2h-1.1v-4.2c0-0.5-0.1-0.8-0.3-1
					s-0.5-0.3-1-0.3c-0.4,0-0.7,0.1-0.9,0.3s-0.5,0.4-0.6,0.7v4.5h-1.1v-6.3H82.5z"/>
				<path class="st9" d="M89.6,156.1v1.5h1.2v0.8h-1.2v3.9c0,0.3,0.1,0.4,0.2,0.6s0.3,0.2,0.5,0.2c0.1,0,0.3,0,0.5-0.1v0.9
					c-0.3,0.1-0.6,0.1-0.8,0.1c-0.5,0-0.8-0.1-1.1-0.4s-0.4-0.7-0.4-1.2v-3.9h-1.2v-0.8h1.2v-1.5H89.6z"/>
				<path class="st9" d="M94.6,164.1c-0.9,0-1.6-0.3-2.1-0.8s-0.8-1.3-0.8-2.3v-0.2c0-0.6,0.1-1.2,0.4-1.7s0.6-0.9,1-1.2
					s0.9-0.4,1.4-0.4c0.8,0,1.5,0.3,1.9,0.8s0.7,1.3,0.7,2.3v0.5h-4.3c0,0.6,0.2,1.1,0.5,1.5s0.8,0.6,1.3,0.6c0.4,0,0.7-0.1,1-0.2
					s0.5-0.4,0.7-0.6l0.7,0.5C96.5,163.7,95.7,164.1,94.6,164.1z M94.5,158.4c-0.4,0-0.8,0.2-1.1,0.5s-0.5,0.8-0.6,1.3H96v-0.1
					c0-0.6-0.2-1-0.4-1.3S95,158.4,94.5,158.4z"/>
				<path class="st9" d="M99.4,157.7l0,0.8c0.5-0.6,1.1-0.9,1.9-0.9c1.3,0,2,0.8,2,2.3v4.2h-1.1v-4.2c0-0.5-0.1-0.8-0.3-1
					s-0.5-0.3-1-0.3c-0.4,0-0.7,0.1-0.9,0.3s-0.5,0.4-0.6,0.7v4.5h-1.1v-6.3H99.4z"/>
				<path class="st9" d="M106.5,156.1v1.5h1.2v0.8h-1.2v3.9c0,0.3,0.1,0.4,0.2,0.6s0.3,0.2,0.5,0.2c0.1,0,0.3,0,0.5-0.1v0.9
					c-0.3,0.1-0.6,0.1-0.8,0.1c-0.5,0-0.8-0.1-1.1-0.4s-0.4-0.7-0.4-1.2v-3.9h-1.2v-0.8h1.2v-1.5H106.5z"/>
				<path class="st9" d="M116.8,161.8h-3.6l-0.8,2.2h-1.2l3.3-8.5h1l3.3,8.5h-1.2L116.8,161.8z M113.5,160.8h2.9l-1.5-4L113.5,160.8
					z"/>
				<path class="st9" d="M122.8,158.6c-0.2,0-0.3,0-0.5,0c-0.7,0-1.2,0.3-1.4,0.9v4.5h-1.1v-6.3h1.1l0,0.7c0.4-0.6,0.9-0.8,1.5-0.8
					c0.2,0,0.4,0,0.5,0.1V158.6z"/>
				<path class="st9" d="M126.4,164.1c-0.9,0-1.6-0.3-2.1-0.8s-0.8-1.3-0.8-2.3v-0.2c0-0.6,0.1-1.2,0.4-1.7s0.6-0.9,1-1.2
					s0.9-0.4,1.4-0.4c0.8,0,1.5,0.3,1.9,0.8s0.7,1.3,0.7,2.3v0.5h-4.3c0,0.6,0.2,1.1,0.5,1.5s0.8,0.6,1.3,0.6c0.4,0,0.7-0.1,1-0.2
					s0.5-0.4,0.7-0.6l0.7,0.5C128.3,163.7,127.5,164.1,126.4,164.1z M126.3,158.4c-0.4,0-0.8,0.2-1.1,0.5s-0.5,0.8-0.6,1.3h3.2v-0.1
					c0-0.6-0.2-1-0.4-1.3S126.7,158.4,126.3,158.4z"/>
				<path class="st9" d="M134,164c-0.1-0.1-0.1-0.3-0.2-0.7c-0.5,0.5-1.1,0.8-1.8,0.8c-0.6,0-1.1-0.2-1.5-0.5s-0.6-0.8-0.6-1.3
					c0-0.7,0.3-1.2,0.8-1.5s1.2-0.5,2.1-0.5h1.1v-0.5c0-0.4-0.1-0.7-0.3-0.9s-0.6-0.3-1-0.3c-0.4,0-0.7,0.1-1,0.3s-0.4,0.4-0.4,0.7
					h-1.1c0-0.3,0.1-0.6,0.3-0.9s0.5-0.5,0.9-0.7s0.8-0.3,1.3-0.3c0.7,0,1.3,0.2,1.7,0.5s0.6,0.9,0.6,1.5v2.9c0,0.6,0.1,1,0.2,1.4
					v0.1H134z M132.2,163.2c0.3,0,0.7-0.1,1-0.3s0.5-0.4,0.7-0.7v-1.3H133c-1.3,0-2,0.4-2,1.2c0,0.3,0.1,0.6,0.3,0.8
					S131.9,163.2,132.2,163.2z"/>
			</g>
			
				<g id="specs-_x2F_-redlines-_x2F_-line-straight_1_" transform="translate(41.500000, 161.000000) scale(-1, 1) translate(-41.500000, -161.000000) translate(22.000000, 156.000000)">
				<path id="Stroke-8_1_" class="st10" d="M10,5h29"/>
				<path id="Path_1_" class="st11" d="M5,0c2.8,0,5,2.2,5,5c0,2.8-2.2,5-5,5S0,7.8,0,5C0,2.2,2.2,0,5,0"/>
			</g>
			
				<g id="specs-_x2F_-redlines-_x2F_-line-regular" transform="translate(426.000000, 21.500000) rotate(-270.000000) translate(-426.000000, -21.500000) translate(416.000000, -13.000000)">
				<path id="redline-line" class="st12" d="M3.5,68.5v-57c0-4.4,3.6-8,8-8h8"/>
				<g id="specs-_x2F_-redlines-_x2F_-line-end-_x2F_-arrow" transform="translate(13.000000, 0.000000)">
					<g id="redline-end">
						<g>
							<polygon id="path-5" class="st5" points="7,3.5 0,7 0,0 							"/>
						</g>
						<path class="st12" d="M5.9,3.5L0.5,0.8v5.4L5.9,3.5z"/>
					</g>
				</g>
				<g id="specs-_x2F_-redlines-_x2F_-line-end-_x2F_-circle_1_" transform="translate(0.000000, 62.000000)">
					<g id="redline-start_1_">
						<g>
							<circle id="path-6" class="st5" cx="3.5" cy="3.5" r="3.5"/>
						</g>
						<circle class="st12" cx="3.5" cy="3.5" r="3"/>
					</g>
				</g>
			</g>
			<g class="st2">
				<path class="st9" d="M47.5,326.2c-1-0.3-1.7-0.6-2.1-1s-0.7-0.9-0.7-1.5c0-0.7,0.3-1.2,0.8-1.7s1.2-0.7,2.1-0.7
					c0.6,0,1.1,0.1,1.6,0.3s0.8,0.5,1.1,0.9s0.4,0.8,0.4,1.3h-1.1c0-0.5-0.2-0.9-0.5-1.2s-0.8-0.4-1.4-0.4c-0.6,0-1,0.1-1.3,0.4
					c-0.3,0.2-0.5,0.6-0.5,1c0,0.3,0.1,0.6,0.4,0.9c0.3,0.2,0.8,0.5,1.5,0.7c0.7,0.2,1.3,0.4,1.7,0.7s0.7,0.5,0.9,0.8
					s0.3,0.7,0.3,1.1c0,0.7-0.3,1.2-0.8,1.7s-1.3,0.6-2.2,0.6c-0.6,0-1.1-0.1-1.6-0.3s-0.9-0.5-1.2-0.9s-0.4-0.8-0.4-1.3h1.1
					c0,0.5,0.2,0.9,0.6,1.2s0.9,0.4,1.5,0.4c0.6,0,1-0.1,1.4-0.4s0.5-0.6,0.5-1s-0.1-0.7-0.4-1S48.3,326.4,47.5,326.2z"/>
				<path class="st9" d="M55.9,329.4c-0.4,0.5-1,0.7-1.9,0.7c-0.7,0-1.2-0.2-1.5-0.6s-0.5-1-0.5-1.7v-4.1H53v4.1
					c0,1,0.4,1.4,1.2,1.4c0.8,0,1.4-0.3,1.7-0.9v-4.6h1.1v6.3h-1L55.9,329.4z"/>
				<path class="st9" d="M63.9,326.9c0,1-0.2,1.7-0.7,2.3s-1,0.9-1.8,0.9c-0.8,0-1.4-0.3-1.9-0.8l-0.1,0.7h-1v-9h1.1v3.4
					c0.4-0.5,1-0.8,1.8-0.8s1.4,0.3,1.8,0.9S63.9,325.8,63.9,326.9L63.9,326.9z M62.8,326.8c0-0.7-0.1-1.3-0.4-1.7s-0.7-0.6-1.2-0.6
					c-0.7,0-1.2,0.3-1.5,1v2.7c0.3,0.7,0.8,1,1.6,1c0.5,0,0.9-0.2,1.2-0.6S62.8,327.6,62.8,326.8z"/>
				<path class="st9" d="M66.3,323.7l0,0.7c0.5-0.5,1.1-0.8,1.9-0.8c0.9,0,1.5,0.3,1.8,1c0.2-0.3,0.5-0.6,0.8-0.7s0.7-0.3,1.2-0.3
					c1.4,0,2.1,0.7,2.1,2.2v4.2h-1.1v-4.2c0-0.5-0.1-0.8-0.3-1s-0.6-0.3-1-0.3c-0.4,0-0.7,0.1-1,0.4s-0.4,0.6-0.5,1v4.2h-1.1v-4.2
					c0-0.9-0.5-1.4-1.4-1.4c-0.7,0-1.2,0.3-1.5,0.9v4.6h-1.1v-6.3H66.3z"/>
				<path class="st9" d="M75.8,322c0-0.2,0.1-0.3,0.2-0.4s0.3-0.2,0.5-0.2s0.4,0.1,0.5,0.2s0.2,0.3,0.2,0.4s-0.1,0.3-0.2,0.4
					s-0.3,0.2-0.5,0.2s-0.4-0.1-0.5-0.2S75.8,322.2,75.8,322z M77,330h-1.1v-6.3H77V330z"/>
				<path class="st9" d="M80.2,322.1v1.5h1.2v0.8h-1.2v3.9c0,0.3,0.1,0.4,0.2,0.6s0.3,0.2,0.5,0.2c0.1,0,0.3,0,0.5-0.1v0.9
					c-0.3,0.1-0.6,0.1-0.8,0.1c-0.5,0-0.8-0.1-1.1-0.4s-0.4-0.7-0.4-1.2v-3.9h-1.2v-0.8h1.2v-1.5H80.2z"/>
				<path class="st9" d="M82.9,330.7h-0.9l3.6-9.3h0.9L82.9,330.7z"/>
				<path class="st9" d="M94,327.3c-0.1,0.9-0.4,1.6-1,2.1s-1.3,0.7-2.2,0.7c-1,0-1.8-0.4-2.4-1.1s-0.9-1.7-0.9-2.9v-0.8
					c0-0.8,0.1-1.5,0.4-2.1s0.7-1.1,1.2-1.4s1.1-0.5,1.8-0.5c0.9,0,1.6,0.3,2.2,0.8s0.9,1.2,1,2.1h-1.1c-0.1-0.7-0.3-1.2-0.6-1.5
					s-0.8-0.5-1.4-0.5c-0.7,0-1.3,0.3-1.7,0.8c-0.4,0.5-0.6,1.3-0.6,2.3v0.8c0,0.9,0.2,1.7,0.6,2.2c0.4,0.5,0.9,0.8,1.6,0.8
					c0.6,0,1.1-0.1,1.4-0.4s0.6-0.8,0.7-1.5H94z"/>
				<path class="st9" d="M95.1,326.8c0-0.6,0.1-1.2,0.4-1.7s0.6-0.9,1-1.1s0.9-0.4,1.5-0.4c0.9,0,1.6,0.3,2.1,0.9s0.8,1.4,0.8,2.4
					v0.1c0,0.6-0.1,1.2-0.4,1.7s-0.6,0.9-1,1.1s-0.9,0.4-1.5,0.4c-0.9,0-1.6-0.3-2.1-0.9S95.1,327.8,95.1,326.8L95.1,326.8z
					 M96.2,326.9c0,0.7,0.2,1.3,0.5,1.7s0.8,0.6,1.3,0.6c0.6,0,1-0.2,1.3-0.6s0.5-1,0.5-1.8c0-0.7-0.2-1.3-0.5-1.7s-0.8-0.6-1.3-0.6
					c-0.5,0-1,0.2-1.3,0.6S96.2,326.1,96.2,326.9z"/>
				<path class="st9" d="M103.3,323.7l0,0.8c0.5-0.6,1.1-0.9,1.9-0.9c1.3,0,2,0.8,2,2.3v4.2h-1.1v-4.2c0-0.5-0.1-0.8-0.3-1
					s-0.5-0.3-1-0.3c-0.4,0-0.7,0.1-0.9,0.3s-0.5,0.4-0.6,0.7v4.5h-1.1v-6.3H103.3z"/>
				<path class="st9" d="M109.4,330v-5.5h-1v-0.8h1V323c0-0.7,0.2-1.2,0.5-1.6s0.9-0.6,1.5-0.6c0.2,0,0.5,0,0.7,0.1l-0.1,0.9
					c-0.2,0-0.4-0.1-0.6-0.1c-0.4,0-0.6,0.1-0.8,0.3s-0.3,0.5-0.3,0.9v0.7h1.4v0.8h-1.4v5.5H109.4z"/>
				<path class="st9" d="M113,322c0-0.2,0.1-0.3,0.2-0.4s0.3-0.2,0.5-0.2s0.4,0.1,0.5,0.2s0.2,0.3,0.2,0.4s-0.1,0.3-0.2,0.4
					s-0.3,0.2-0.5,0.2s-0.4-0.1-0.5-0.2S113,322.2,113,322z M114.2,330h-1.1v-6.3h1.1V330z"/>
				<path class="st9" d="M119,324.6c-0.2,0-0.3,0-0.5,0c-0.7,0-1.2,0.3-1.4,0.9v4.5h-1.1v-6.3h1.1l0,0.7c0.4-0.6,0.9-0.8,1.5-0.8
					c0.2,0,0.4,0,0.5,0.1V324.6z"/>
				<path class="st9" d="M121,323.7l0,0.7c0.5-0.5,1.1-0.8,1.9-0.8c0.9,0,1.5,0.3,1.8,1c0.2-0.3,0.5-0.6,0.8-0.7s0.7-0.3,1.2-0.3
					c1.4,0,2.1,0.7,2.1,2.2v4.2h-1.1v-4.2c0-0.5-0.1-0.8-0.3-1s-0.6-0.3-1-0.3c-0.4,0-0.7,0.1-1,0.4s-0.4,0.6-0.5,1v4.2h-1.1v-4.2
					c0-0.9-0.5-1.4-1.4-1.4c-0.7,0-1.2,0.3-1.5,0.9v4.6H120v-6.3H121z"/>
				<path class="st9" d="M134.4,330c-0.1-0.1-0.1-0.3-0.2-0.7c-0.5,0.5-1.1,0.8-1.8,0.8c-0.6,0-1.1-0.2-1.5-0.5s-0.6-0.8-0.6-1.3
					c0-0.7,0.3-1.2,0.8-1.5s1.2-0.5,2.1-0.5h1.1v-0.5c0-0.4-0.1-0.7-0.3-0.9s-0.6-0.3-1-0.3c-0.4,0-0.7,0.1-1,0.3s-0.4,0.4-0.4,0.7
					h-1.1c0-0.3,0.1-0.6,0.3-0.9s0.5-0.5,0.9-0.7s0.8-0.3,1.3-0.3c0.7,0,1.3,0.2,1.7,0.5s0.6,0.9,0.6,1.5v2.9c0,0.6,0.1,1,0.2,1.4
					v0.1H134.4z M132.6,329.2c0.3,0,0.7-0.1,1-0.3s0.5-0.4,0.7-0.7v-1.3h-0.8c-1.3,0-2,0.4-2,1.2c0,0.3,0.1,0.6,0.3,0.8
					S132.3,329.2,132.6,329.2z"/>
				<path class="st9" d="M138.5,322.1v1.5h1.2v0.8h-1.2v3.9c0,0.3,0.1,0.4,0.2,0.6s0.3,0.2,0.5,0.2c0.1,0,0.3,0,0.5-0.1v0.9
					c-0.3,0.1-0.6,0.1-0.8,0.1c-0.5,0-0.8-0.1-1.1-0.4s-0.4-0.7-0.4-1.2v-3.9h-1.2v-0.8h1.2v-1.5H138.5z"/>
				<path class="st9" d="M141,322c0-0.2,0.1-0.3,0.2-0.4s0.3-0.2,0.5-0.2s0.4,0.1,0.5,0.2s0.2,0.3,0.2,0.4s-0.1,0.3-0.2,0.4
					s-0.3,0.2-0.5,0.2s-0.4-0.1-0.5-0.2S141,322.2,141,322z M142.1,330h-1.1v-6.3h1.1V330z"/>
				<path class="st9" d="M143.6,326.8c0-0.6,0.1-1.2,0.4-1.7s0.6-0.9,1-1.1s0.9-0.4,1.5-0.4c0.9,0,1.6,0.3,2.1,0.9s0.8,1.4,0.8,2.4
					v0.1c0,0.6-0.1,1.2-0.4,1.7s-0.6,0.9-1,1.1s-0.9,0.4-1.5,0.4c-0.9,0-1.6-0.3-2.1-0.9S143.6,327.8,143.6,326.8L143.6,326.8z
					 M144.7,326.9c0,0.7,0.2,1.3,0.5,1.7s0.8,0.6,1.3,0.6c0.6,0,1-0.2,1.3-0.6s0.5-1,0.5-1.8c0-0.7-0.2-1.3-0.5-1.7
					s-0.8-0.6-1.3-0.6c-0.5,0-1,0.2-1.3,0.6S144.7,326.1,144.7,326.9z"/>
				<path class="st9" d="M151.7,323.7l0,0.8c0.5-0.6,1.1-0.9,1.9-0.9c1.3,0,2,0.8,2,2.3v4.2h-1.1v-4.2c0-0.5-0.1-0.8-0.3-1
					s-0.5-0.3-1-0.3c-0.4,0-0.7,0.1-0.9,0.3s-0.5,0.4-0.6,0.7v4.5h-1.1v-6.3H151.7z"/>
				<path class="st9" d="M160.5,330v-8.5h2.8c0.9,0,1.6,0.2,2.1,0.6s0.7,0.9,0.7,1.7c0,0.4-0.1,0.8-0.3,1.1s-0.5,0.5-0.9,0.7
					c0.5,0.1,0.8,0.4,1.1,0.7s0.4,0.8,0.4,1.3c0,0.8-0.2,1.4-0.7,1.8s-1.2,0.7-2.1,0.7H160.5z M161.6,325.1h1.7
					c0.5,0,0.9-0.1,1.2-0.4c0.3-0.2,0.4-0.6,0.4-1c0-0.5-0.1-0.8-0.4-1c-0.3-0.2-0.7-0.3-1.2-0.3h-1.7V325.1z M161.6,326v3.1h1.9
					c0.5,0,0.9-0.1,1.2-0.4s0.5-0.6,0.5-1.1c0-1-0.6-1.5-1.7-1.5H161.6z"/>
				<path class="st9" d="M171.7,329.4c-0.4,0.5-1,0.7-1.9,0.7c-0.7,0-1.2-0.2-1.5-0.6s-0.5-1-0.5-1.7v-4.1h1.1v4.1
					c0,1,0.4,1.4,1.2,1.4c0.8,0,1.4-0.3,1.7-0.9v-4.6h1.1v6.3h-1L171.7,329.4z"/>
				<path class="st9" d="M175.9,322.1v1.5h1.2v0.8h-1.2v3.9c0,0.3,0.1,0.4,0.2,0.6s0.3,0.2,0.5,0.2c0.1,0,0.3,0,0.5-0.1v0.9
					c-0.3,0.1-0.6,0.1-0.8,0.1c-0.5,0-0.8-0.1-1.1-0.4s-0.4-0.7-0.4-1.2v-3.9h-1.2v-0.8h1.2v-1.5H175.9z"/>
				<path class="st9" d="M179.8,322.1v1.5h1.2v0.8h-1.2v3.9c0,0.3,0.1,0.4,0.2,0.6s0.3,0.2,0.5,0.2c0.1,0,0.3,0,0.5-0.1v0.9
					c-0.3,0.1-0.6,0.1-0.8,0.1c-0.5,0-0.8-0.1-1.1-0.4s-0.4-0.7-0.4-1.2v-3.9h-1.2v-0.8h1.2v-1.5H179.8z"/>
				<path class="st9" d="M181.8,326.8c0-0.6,0.1-1.2,0.4-1.7s0.6-0.9,1-1.1s0.9-0.4,1.5-0.4c0.9,0,1.6,0.3,2.1,0.9s0.8,1.4,0.8,2.4
					v0.1c0,0.6-0.1,1.2-0.4,1.7s-0.6,0.9-1,1.1s-0.9,0.4-1.5,0.4c-0.9,0-1.6-0.3-2.1-0.9S181.8,327.8,181.8,326.8L181.8,326.8z
					 M182.9,326.9c0,0.7,0.2,1.3,0.5,1.7s0.8,0.6,1.3,0.6c0.6,0,1-0.2,1.3-0.6s0.5-1,0.5-1.8c0-0.7-0.2-1.3-0.5-1.7
					s-0.8-0.6-1.3-0.6c-0.5,0-1,0.2-1.3,0.6S182.9,326.1,182.9,326.9z"/>
				<path class="st9" d="M190,323.7l0,0.8c0.5-0.6,1.1-0.9,1.9-0.9c1.3,0,2,0.8,2,2.3v4.2h-1.1v-4.2c0-0.5-0.1-0.8-0.3-1
					s-0.5-0.3-1-0.3c-0.4,0-0.7,0.1-0.9,0.3s-0.5,0.4-0.6,0.7v4.5H189v-6.3H190z"/>
				<path class="st9" d="M199.3,328.3c0-0.3-0.1-0.5-0.3-0.7s-0.6-0.3-1.2-0.4s-1-0.3-1.3-0.4s-0.6-0.4-0.7-0.6s-0.2-0.5-0.2-0.8
					c0-0.5,0.2-1,0.7-1.3s1-0.5,1.7-0.5c0.7,0,1.3,0.2,1.7,0.6s0.7,0.8,0.7,1.4h-1.1c0-0.3-0.1-0.6-0.4-0.8s-0.6-0.3-1-0.3
					c-0.4,0-0.7,0.1-0.9,0.3s-0.3,0.4-0.3,0.7c0,0.3,0.1,0.5,0.3,0.6s0.6,0.3,1.1,0.4s1,0.3,1.3,0.4s0.6,0.4,0.7,0.6
					s0.2,0.5,0.2,0.9c0,0.6-0.2,1-0.7,1.4s-1,0.5-1.8,0.5c-0.5,0-1-0.1-1.3-0.3s-0.7-0.4-0.9-0.8s-0.3-0.7-0.3-1h1.1
					c0,0.4,0.2,0.7,0.4,0.9s0.6,0.3,1.1,0.3c0.4,0,0.7-0.1,1-0.2S199.3,328.6,199.3,328.3z"/>
			</g>
			<path id="redline-line_1_" class="st12" d="M121.5,282.4v30.1"/>
			<g id="specs-_x2F_-redlines-_x2F_-line-end-_x2F_-circle_2_" transform="translate(118.000000, 310.000000)">
				<g id="redline-start_2_">
					<g>
						<circle id="path-7" class="st5" cx="3.5" cy="3.5" r="3.5"/>
					</g>
					<circle class="st12" cx="3.5" cy="3.5" r="3"/>
				</g>
			</g>
			<path id="Line_1_" class="st13" d="M208.9,282H21.5"/>
		</g>
	</g>
</g>
</svg>
