<?xml version="1.0" encoding="UTF-8" standalone="no"?>
<svg width="581px" height="336px" viewBox="0 0 581 336" version="1.1" xmlns="http://www.w3.org/2000/svg" xmlns:xlink="http://www.w3.org/1999/xlink">
    <!-- Generator: Sketch 47 (45396) - http://www.bohemiancoding.com/sketch -->
    <title>popover-specs</title>
    <desc>Created with Sketch.</desc>
    <defs>
        <polygon id="path-1" points="356.444 9 347.5 0 338.087 9 0 9 0 28.3304085 0 46.6909137 0 330 390 330 390 9"></polygon>
        <filter x="-1.5%" y="-0.9%" width="103.1%" height="103.6%" filterUnits="objectBoundingBox" id="filter-2">
            <feOffset dx="0" dy="3" in="SourceAlpha" result="shadowOffsetOuter1"></feOffset>
            <feGaussianBlur stdDeviation="1.5" in="shadowOffsetOuter1" result="shadowBlurOuter1"></feGaussianBlur>
            <feColorMatrix values="0 0 0 0 0   0 0 0 0 0   0 0 0 0 0  0 0 0 0.16 0" type="matrix" in="shadowBlurOuter1"></feColorMatrix>
        </filter>
    </defs>
    <g stroke="none" stroke-width="1" fill="none" fill-rule="evenodd">
        <g transform="translate(3.000000, 0.000000)">
            <g>
                <g fill="#000000" fill-rule="nonzero">
                    <polygon points="356.444 9 347.5 0 338.087 9 0 9 0 28.3304085 0 46.6909137 0 330 390 330 390 9"></polygon>
                </g>
                <g>
                    <g>
                        <use fill="black" fill-opacity="1" filter="url(#filter-2)" xlink:href="#path-1"></use>
                        <use fill="#FFFFFF" fill-rule="evenodd" xlink:href="#path-1"></use>
                    </g>
                </g>
                <polygon stroke="#E0E0E0" points="347.491054 0.700321887 338.287568 9.5 0.5 9.5 0.5 329.5 389.5 329.5 389.5 9.5 356.235979 9.5"></polygon>
            </g>
            <g transform="translate(417.000000, 118.000000)" fill="#EC407A">
                <path d="M7.08398438,10.2695312 L7.09570312,10.3046875 C7.1113282,11.1054728 6.83008102,11.7753879 6.25195312,12.3144531 C5.67382523,12.8535183 4.910161,13.1230469 3.9609375,13.1230469 C2.99608893,13.1230469 2.20996397,12.7812534 1.60253906,12.0976562 C0.99511415,11.4140591 0.69140625,10.5468803 0.69140625,9.49609375 L0.69140625,7.97851562 C0.69140625,6.92772912 0.99511415,6.05957374 1.60253906,5.37402344 C2.20996397,4.68847313 2.99608893,4.34570312 3.9609375,4.34570312 C4.92578607,4.34570312 5.69335652,4.60253649 6.26367188,5.11621094 C6.83398723,5.62988538 7.1113282,6.31054264 7.09570312,7.15820312 L7.08398438,7.19335938 L5.9765625,7.19335938 C5.9765625,6.59570014 5.80078301,6.12304861 5.44921875,5.77539062 C5.09765449,5.42773264 4.6015657,5.25390625 3.9609375,5.25390625 C3.31640303,5.25390625 2.80273629,5.51366928 2.41992188,6.03320312 C2.03710746,6.55273697 1.84570312,7.19726178 1.84570312,7.96679688 L1.84570312,9.49609375 C1.84570312,10.2734414 2.03710746,10.9218724 2.41992188,11.4414062 C2.80273629,11.9609401 3.31640303,12.2207031 3.9609375,12.2207031 C4.6015657,12.2207031 5.09765449,12.0478533 5.44921875,11.7021484 C5.80078301,11.3564436 5.9765625,10.8789093 5.9765625,10.2695312 L7.08398438,10.2695312 Z M8.16796875,9.77148438 C8.16796875,8.83397969 8.42187246,8.06152647 8.9296875,7.45410156 C9.43750254,6.84667665 10.1269488,6.54296875 10.9980469,6.54296875 C11.8769575,6.54296875 12.5712865,6.8457001 13.0810547,7.45117188 C13.5908229,8.05664365 13.8457031,8.83007342 13.8457031,9.77148438 L13.8457031,9.90039062 C13.8457031,10.8457079 13.5917994,11.6191376 13.0839844,12.2207031 C12.5761693,12.8222686 11.88477,13.1230469 11.0097656,13.1230469 C10.1347613,13.1230469 9.44238536,12.8212921 8.93261719,12.2177734 C8.42284901,11.6142548 8.16796875,10.8418016 8.16796875,9.90039062 L8.16796875,9.77148438 Z M9.32226562,9.90039062 C9.32226562,10.572269 9.46386577,11.1269509 9.74707031,11.5644531 C10.0302749,12.0019553 10.4511691,12.2207031 11.0097656,12.2207031 C11.5605496,12.2207031 11.9785142,12.0019553 12.2636719,11.5644531 C12.5488296,11.1269509 12.6914062,10.572269 12.6914062,9.90039062 L12.6914062,9.77148438 C12.6914062,9.10741855 12.547853,8.55468971 12.2607422,8.11328125 C11.9736314,7.67187279 11.5527371,7.45117188 10.9980469,7.45117188 C10.4472629,7.45117188 10.0302749,7.67187279 9.74707031,8.11328125 C9.46386577,8.55468971 9.32226562,9.10741855 9.32226562,9.77148438 L9.32226562,9.90039062 Z M16.2890625,6.66015625 L16.3710938,7.60351562 C16.5820323,7.26757645 16.8466781,7.00683687 17.1650391,6.82128906 C17.4834,6.63574126 17.8457011,6.54296875 18.2519531,6.54296875 C18.9355503,6.54296875 19.4648419,6.74316206 19.8398438,7.14355469 C20.2148456,7.54394731 20.4023438,8.1621052 20.4023438,8.99804688 L20.4023438,13 L19.2480469,13 L19.2480469,9.02148438 C19.2480469,8.46288783 19.1376964,8.06640742 18.9169922,7.83203125 C18.696288,7.59765508 18.3593773,7.48046875 17.90625,7.48046875 C17.5742171,7.48046875 17.2802747,7.56054607 17.0244141,7.72070312 C16.7685534,7.88086018 16.5644539,8.09960799 16.4121094,8.37695312 L16.4121094,13 L15.2578125,13 L15.2578125,6.66015625 L16.2890625,6.66015625 Z M23.6015625,5.13085938 L23.6015625,6.66015625 L24.8027344,6.66015625 L24.8027344,7.515625 L23.6015625,7.515625 L23.6015625,11.3652344 C23.6015625,11.6621109 23.6630853,11.8710931 23.7861328,11.9921875 C23.9091803,12.1132819 24.0722646,12.1738281 24.2753906,12.1738281 C24.3417972,12.1738281 24.4150387,12.1660157 24.4951172,12.1503906 C24.5751957,12.1347655 24.6464841,12.1152345 24.7089844,12.0917969 L24.8613281,12.8828125 C24.7753902,12.9531254 24.6494149,13.010742 24.4833984,13.0556641 C24.317382,13.1005862 24.1503915,13.1230469 23.9824219,13.1230469 C23.5136695,13.1230469 23.1406264,12.9814467 22.8632812,12.6982422 C22.5859361,12.4150376 22.4472656,11.9707062 22.4472656,11.3652344 L22.4472656,7.515625 L21.4394531,7.515625 L21.4394531,6.66015625 L22.4472656,6.66015625 L22.4472656,5.13085938 L23.6015625,5.13085938 Z M30.1230469,13 C30.0839842,12.8085928 30.053711,12.6396492 30.0322266,12.4931641 C30.0107421,12.346679 29.9980469,12.1992195 29.9941406,12.0507812 C29.7792958,12.3554703 29.4990252,12.6103505 29.1533203,12.8154297 C28.8076155,13.0205088 28.4355489,13.1230469 28.0371094,13.1230469 C27.3769498,13.1230469 26.8740252,12.9541033 26.5283203,12.6162109 C26.1826155,12.2783186 26.0097656,11.812503 26.0097656,11.21875 C26.0097656,10.6132782 26.2548804,10.1396501 26.7451172,9.79785156 C27.235354,9.45605298 27.9003864,9.28515625 28.7402344,9.28515625 L29.9941406,9.28515625 L29.9941406,8.65820312 C29.9941406,8.28710752 29.8808605,7.99316515 29.6542969,7.77636719 C29.4277332,7.55956923 29.1074239,7.45117188 28.6933594,7.45117188 C28.3222638,7.45117188 28.020509,7.54589749 27.7880859,7.73535156 C27.5556629,7.92480563 27.4394531,8.15234242 27.4394531,8.41796875 L26.3378906,8.41796875 L26.3261719,8.3828125 C26.3027343,7.9218727 26.5205055,7.50000191 26.9794922,7.1171875 C27.4384789,6.73437309 28.0312464,6.54296875 28.7578125,6.54296875 C29.4765661,6.54296875 30.0546853,6.72558411 30.4921875,7.09082031 C30.9296897,7.45605651 31.1484375,7.98241844 31.1484375,8.66992188 L31.1484375,11.7226562 C31.1484375,11.9492199 31.1601561,12.1679677 31.1835938,12.3789062 C31.2070314,12.5898448 31.2499997,12.796874 31.3125,13 L30.1230469,13 Z M28.2070312,12.15625 C28.6250021,12.15625 29.0019514,12.0488292 29.3378906,11.8339844 C29.6738298,11.6191396 29.8925776,11.3730483 29.9941406,11.0957031 L29.9941406,10.0644531 L28.6992188,10.0644531 C28.2343727,10.0644531 27.8623061,10.1816395 27.5830078,10.4160156 C27.3037095,10.6503918 27.1640625,10.9257797 27.1640625,11.2421875 C27.1640625,11.5234389 27.2519522,11.7460929 27.4277344,11.9101562 C27.6035165,12.0742196 27.8632795,12.15625 28.2070312,12.15625 Z M34.0722656,13 L32.9179688,13 L32.9179688,6.66015625 L34.0722656,6.66015625 L34.0722656,13 Z M34.0722656,5.03710938 L32.9179688,5.03710938 L32.9179688,3.859375 L34.0722656,3.859375 L34.0722656,5.03710938 Z M36.8789062,6.66015625 L36.9609375,7.60351562 C37.1718761,7.26757645 37.4365218,7.00683687 37.7548828,6.82128906 C38.0732438,6.63574126 38.4355448,6.54296875 38.8417969,6.54296875 C39.525394,6.54296875 40.0546856,6.74316206 40.4296875,7.14355469 C40.8046894,7.54394731 40.9921875,8.1621052 40.9921875,8.99804688 L40.9921875,13 L39.8378906,13 L39.8378906,9.02148438 C39.8378906,8.46288783 39.7275402,8.06640742 39.5068359,7.83203125 C39.2861317,7.59765508 38.949221,7.48046875 38.4960938,7.48046875 C38.1640608,7.48046875 37.8701185,7.56054607 37.6142578,7.72070312 C37.3583972,7.88086018 37.1542976,8.09960799 37.0019531,8.37695312 L37.0019531,13 L35.8476562,13 L35.8476562,6.66015625 L36.8789062,6.66015625 Z M45.2988281,13.1230469 C44.4160112,13.1230469 43.7138698,12.8291045 43.1923828,12.2412109 C42.6708958,11.6533174 42.4101562,10.8906297 42.4101562,9.953125 L42.4101562,9.6953125 C42.4101562,8.79296424 42.6787083,8.04199519 43.2158203,7.44238281 C43.7529324,6.84277044 44.3886682,6.54296875 45.1230469,6.54296875 C45.9785199,6.54296875 46.6249978,6.80077867 47.0625,7.31640625 C47.5000022,7.83203383 47.71875,8.51952695 47.71875,9.37890625 L47.71875,10.0996094 L43.6054688,10.0996094 L43.5878906,10.1289062 C43.5996094,10.7382843 43.7539048,11.2392558 44.0507812,11.6318359 C44.3476577,12.024416 44.7636692,12.2207031 45.2988281,12.2207031 C45.6894551,12.2207031 46.0322251,12.1650396 46.3271484,12.0537109 C46.6220718,11.9423823 46.8769521,11.7890635 47.0917969,11.59375 L47.5429688,12.34375 C47.3164051,12.5664074 47.01758,12.7519524 46.6464844,12.9003906 C46.2753888,13.0488289 45.8261745,13.1230469 45.2988281,13.1230469 Z M45.1230469,7.45117188 C44.7363262,7.45117188 44.4062514,7.61425618 44.1328125,7.94042969 C43.8593736,8.26660319 43.6914066,8.67577879 43.6289062,9.16796875 L43.640625,9.19726562 L46.5644531,9.19726562 L46.5644531,9.04492188 C46.5644531,8.59179461 46.4433606,8.21289215 46.2011719,7.90820312 C45.9589832,7.6035141 45.5996118,7.45117188 45.1230469,7.45117188 Z M52.0136719,7.6796875 L51.421875,7.64453125 C51.117186,7.64453125 50.8603526,7.71679615 50.6513672,7.86132812 C50.4423818,8.0058601 50.2812506,8.20898307 50.1679688,8.47070312 L50.1679688,13 L49.0136719,13 L49.0136719,6.66015625 L50.0449219,6.66015625 L50.15625,7.5859375 C50.3359384,7.25781086 50.5576159,7.00195404 50.8212891,6.81835938 C51.0849623,6.63476471 51.3886702,6.54296875 51.7324219,6.54296875 C51.8183598,6.54296875 51.9003902,6.54980462 51.9785156,6.56347656 C52.056641,6.57714851 52.1210935,6.5917968 52.171875,6.60742188 L52.0136719,7.6796875 Z M53.3789062,13 L52.2246094,13 L52.2246094,11.8164062 L53.3789062,11.8164062 L53.3789062,13 Z M53.3789062,7.8671875 L52.2246094,7.8671875 L52.2246094,6.68359375 L53.3789062,6.68359375 L53.3789062,7.8671875 Z M61.4648438,10.5976562 L59.9707031,10.5976562 L59.5019531,13 L58.6171875,13 L59.0859375,10.5976562 L57.703125,10.5976562 L57.703125,9.77734375 L59.25,9.77734375 L59.6484375,7.73828125 L58.1484375,7.73828125 L58.1484375,6.90625 L59.8125,6.90625 L60.2929688,4.46875 L61.1777344,4.46875 L60.6972656,6.90625 L62.1914062,6.90625 L62.671875,4.46875 L63.5566406,4.46875 L63.0761719,6.90625 L64.2421875,6.90625 L64.2421875,7.73828125 L62.9179688,7.73828125 L62.5195312,9.77734375 L63.8027344,9.77734375 L63.8027344,10.5976562 L62.3554688,10.5976562 L61.8867188,13 L60.9960938,13 L61.4648438,10.5976562 Z M60.1347656,9.77734375 L61.6289062,9.77734375 L62.0273438,7.73828125 L60.5332031,7.73828125 L60.1347656,9.77734375 Z M66.0878906,13 L66.0878906,7.515625 L65.0976562,7.515625 L65.0976562,6.66015625 L66.0878906,6.66015625 L66.0878906,5.85742188 C66.0878906,5.18163725 66.2646467,4.65918153 66.6181641,4.29003906 C66.9716815,3.92089659 67.4648406,3.73632812 68.0976562,3.73632812 C68.2304694,3.73632812 68.3642571,3.74707021 68.4990234,3.76855469 C68.6337897,3.79003917 68.7832023,3.8203123 68.9472656,3.859375 L68.8066406,4.73828125 C68.7363278,4.72265617 68.6513677,4.70898443 68.5517578,4.69726562 C68.4521479,4.68554682 68.3476568,4.6796875 68.2382812,4.6796875 C67.9023421,4.6796875 67.6523446,4.78027243 67.4882812,4.98144531 C67.3242179,5.18261819 67.2421875,5.47460746 67.2421875,5.85742188 L67.2421875,6.66015625 L68.5605469,6.66015625 L68.5605469,7.515625 L67.2421875,7.515625 L67.2421875,13 L66.0878906,13 Z M70.2304688,13 L70.2304688,7.515625 L69.2402344,7.515625 L69.2402344,6.66015625 L70.2304688,6.66015625 L70.2304688,5.85742188 C70.2304688,5.18163725 70.4072248,4.65918153 70.7607422,4.29003906 C71.1142596,3.92089659 71.6074187,3.73632812 72.2402344,3.73632812 C72.3730475,3.73632812 72.5068353,3.74707021 72.6416016,3.76855469 C72.7763679,3.79003917 72.9257804,3.8203123 73.0898438,3.859375 L72.9492188,4.73828125 C72.8789059,4.72265617 72.7939458,4.70898443 72.6943359,4.69726562 C72.5947261,4.68554682 72.4902349,4.6796875 72.3808594,4.6796875 C72.0449202,4.6796875 71.7949227,4.78027243 71.6308594,4.98144531 C71.4667961,5.18261819 71.3847656,5.47460746 71.3847656,5.85742188 L71.3847656,6.66015625 L72.703125,6.66015625 L72.703125,7.515625 L71.3847656,7.515625 L71.3847656,13 L70.2304688,13 Z M74.3730469,13 L74.3730469,7.515625 L73.3828125,7.515625 L73.3828125,6.66015625 L74.3730469,6.66015625 L74.3730469,5.85742188 C74.3730469,5.18163725 74.5498029,4.65918153 74.9033203,4.29003906 C75.2568377,3.92089659 75.7499968,3.73632812 76.3828125,3.73632812 C76.5156257,3.73632812 76.6494134,3.74707021 76.7841797,3.76855469 C76.918946,3.79003917 77.0683586,3.8203123 77.2324219,3.859375 L77.0917969,4.73828125 C77.021484,4.72265617 76.9365239,4.70898443 76.8369141,4.69726562 C76.7373042,4.68554682 76.632813,4.6796875 76.5234375,4.6796875 C76.1874983,4.6796875 75.9375008,4.78027243 75.7734375,4.98144531 C75.6093742,5.18261819 75.5273438,5.47460746 75.5273438,5.85742188 L75.5273438,6.66015625 L76.8457031,6.66015625 L76.8457031,7.515625 L75.5273438,7.515625 L75.5273438,13 L74.3730469,13 Z M78.515625,13 L78.515625,7.515625 L77.5253906,7.515625 L77.5253906,6.66015625 L78.515625,6.66015625 L78.515625,5.85742188 C78.515625,5.18163725 78.692381,4.65918153 79.0458984,4.29003906 C79.3994158,3.92089659 79.892575,3.73632812 80.5253906,3.73632812 C80.6582038,3.73632812 80.7919915,3.74707021 80.9267578,3.76855469 C81.0615241,3.79003917 81.2109367,3.8203123 81.375,3.859375 L81.234375,4.73828125 C81.1640621,4.72265617 81.0791021,4.70898443 80.9794922,4.69726562 C80.8798823,4.68554682 80.7753912,4.6796875 80.6660156,4.6796875 C80.3300764,4.6796875 80.0800789,4.78027243 79.9160156,4.98144531 C79.7519523,5.18261819 79.6699219,5.47460746 79.6699219,5.85742188 L79.6699219,6.66015625 L80.9882812,6.66015625 L80.9882812,7.515625 L79.6699219,7.515625 L79.6699219,13 L78.515625,13 Z M82.6582031,13 L82.6582031,7.515625 L81.6679688,7.515625 L81.6679688,6.66015625 L82.6582031,6.66015625 L82.6582031,5.85742188 C82.6582031,5.18163725 82.8349592,4.65918153 83.1884766,4.29003906 C83.541994,3.92089659 84.0351531,3.73632812 84.6679688,3.73632812 C84.8007819,3.73632812 84.9345696,3.74707021 85.0693359,3.76855469 C85.2041022,3.79003917 85.3535148,3.8203123 85.5175781,3.859375 L85.3769531,4.73828125 C85.3066403,4.72265617 85.2216802,4.70898443 85.1220703,4.69726562 C85.0224604,4.68554682 84.9179693,4.6796875 84.8085938,4.6796875 C84.4726546,4.6796875 84.2226571,4.78027243 84.0585938,4.98144531 C83.8945304,5.18261819 83.8125,5.47460746 83.8125,5.85742188 L83.8125,6.66015625 L85.1308594,6.66015625 L85.1308594,7.515625 L83.8125,7.515625 L83.8125,13 L82.6582031,13 Z M86.8007812,13 L86.8007812,7.515625 L85.8105469,7.515625 L85.8105469,6.66015625 L86.8007812,6.66015625 L86.8007812,5.85742188 C86.8007812,5.18163725 86.9775373,4.65918153 87.3310547,4.29003906 C87.6845721,3.92089659 88.1777312,3.73632812 88.8105469,3.73632812 C88.94336,3.73632812 89.0771478,3.74707021 89.2119141,3.76855469 C89.3466804,3.79003917 89.4960929,3.8203123 89.6601562,3.859375 L89.5195312,4.73828125 C89.4492184,4.72265617 89.3642583,4.70898443 89.2646484,4.69726562 C89.1650386,4.68554682 89.0605474,4.6796875 88.9511719,4.6796875 C88.6152327,4.6796875 88.3652352,4.78027243 88.2011719,4.98144531 C88.0371086,5.18261819 87.9550781,5.47460746 87.9550781,5.85742188 L87.9550781,6.66015625 L89.2734375,6.66015625 L89.2734375,7.515625 L87.9550781,7.515625 L87.9550781,13 L86.8007812,13 Z"></path>
                <path d="M1.0546875,32 L1.0546875,23.46875 L3.83789062,23.46875 C4.72852008,23.46875 5.42577873,23.6611309 5.9296875,24.0458984 C6.43359627,24.430666 6.68554688,25.0078087 6.68554688,25.7773438 C6.68554688,26.1562519 6.56445434,26.4951157 6.32226562,26.7939453 C6.08007691,27.0927749 5.76172072,27.3144524 5.3671875,27.4589844 C5.88281508,27.5683599 6.28808446,27.8203105 6.58300781,28.2148438 C6.87793116,28.609377 7.02539062,29.0683568 7.02539062,29.5917969 C7.02539062,30.3730508 6.77246347,30.9697245 6.26660156,31.3818359 C5.76073966,31.7939474 5.07422309,32 4.20703125,32 L1.0546875,32 Z M2.20898438,27.9980469 L2.20898438,31.0976562 L4.20703125,31.0976562 C4.73047137,31.0976562 5.13867041,30.9677747 5.43164062,30.7080078 C5.72461084,30.4482409 5.87109375,30.0800805 5.87109375,29.6035156 C5.87109375,29.1035131 5.74902466,28.7109389 5.50488281,28.4257812 C5.26074097,28.1406236 4.88476816,27.9980469 4.37695312,27.9980469 L2.20898438,27.9980469 Z M2.20898438,27.0957031 L4.078125,27.0957031 C4.50781465,27.0957031 4.85742053,26.9775402 5.12695312,26.7412109 C5.39648572,26.5048816 5.53125,26.1757834 5.53125,25.7539062 C5.53125,25.2929664 5.38574364,24.9482433 5.09472656,24.7197266 C4.80370948,24.4912098 4.38476836,24.3769531 3.83789062,24.3769531 L2.20898438,24.3769531 L2.20898438,27.0957031 Z M8.23828125,28.7714844 C8.23828125,27.8339797 8.49218496,27.0615265 9,26.4541016 C9.50781504,25.8466767 10.1972613,25.5429688 11.0683594,25.5429688 C11.94727,25.5429688 12.641599,25.8457001 13.1513672,26.4511719 C13.6611354,27.0566437 13.9160156,27.8300734 13.9160156,28.7714844 L13.9160156,28.9003906 C13.9160156,29.8457079 13.6621119,30.6191376 13.1542969,31.2207031 C12.6464818,31.8222686 11.9550825,32.1230469 11.0800781,32.1230469 C10.2050738,32.1230469 9.51269786,31.8212921 9.00292969,31.2177734 C8.49316151,30.6142548 8.23828125,29.8418016 8.23828125,28.9003906 L8.23828125,28.7714844 Z M9.39257812,28.9003906 C9.39257812,29.572269 9.53417827,30.1269509 9.81738281,30.5644531 C10.1005874,31.0019553 10.5214816,31.2207031 11.0800781,31.2207031 C11.6308621,31.2207031 12.0488267,31.0019553 12.3339844,30.5644531 C12.6191421,30.1269509 12.7617188,29.572269 12.7617188,28.9003906 L12.7617188,28.7714844 C12.7617188,28.1074186 12.6181655,27.5546897 12.3310547,27.1132812 C12.0439439,26.6718728 11.6230496,26.4511719 11.0683594,26.4511719 C10.5175754,26.4511719 10.1005874,26.6718728 9.81738281,27.1132812 C9.53417827,27.5546897 9.39257812,28.1074186 9.39257812,28.7714844 L9.39257812,28.9003906 Z M18.328125,26.6796875 L17.7363281,26.6445312 C17.4316391,26.6445312 17.1748057,26.7167962 16.9658203,26.8613281 C16.7568349,27.0058601 16.5957037,27.2089831 16.4824219,27.4707031 L16.4824219,32 L15.328125,32 L15.328125,25.6601562 L16.359375,25.6601562 L16.4707031,26.5859375 C16.6503915,26.2578109 16.872069,26.001954 17.1357422,25.8183594 C17.3994154,25.6347647 17.7031233,25.5429688 18.046875,25.5429688 C18.1328129,25.5429688 18.2148434,25.5498046 18.2929688,25.5634766 C18.3710941,25.5771485 18.4355466,25.5917968 18.4863281,25.6074219 L18.328125,26.6796875 Z M19.0664062,28.9472656 C19.0664062,27.9277293 19.2841775,27.1054719 19.7197266,26.4804688 C20.1552756,25.8554656 20.7656211,25.5429688 21.5507812,25.5429688 C21.9218769,25.5429688 22.2509751,25.6113274 22.5380859,25.7480469 C22.8251967,25.8847663 23.0703115,26.0839831 23.2734375,26.3457031 L23.2734375,22.859375 L24.4277344,22.859375 L24.4277344,32 L23.484375,32 L23.3496094,31.2207031 C23.1425771,31.5175796 22.8886734,31.7421867 22.5878906,31.8945312 C22.2871079,32.0468758 21.937502,32.1230469 21.5390625,32.1230469 C20.7656211,32.1230469 20.1601584,31.8427762 19.7226562,31.2822266 C19.2851541,30.7216769 19.0664062,29.9843796 19.0664062,29.0703125 L19.0664062,28.9472656 Z M20.2207031,29.0703125 C20.2207031,29.7109407 20.3515612,30.2236309 20.6132813,30.6083984 C20.8750013,30.993166 21.2812472,31.1855469 21.8320313,31.1855469 C22.175783,31.1855469 22.4648426,31.1074227 22.6992188,30.9511719 C22.9335949,30.7949211 23.1249993,30.5761733 23.2734375,30.2949219 L23.2734375,27.3359375 C23.1249993,27.0742174 22.9326184,26.8662117 22.6962891,26.7119141 C22.4599598,26.5576164 22.1757829,26.4804688 21.84375,26.4804688 C21.2890597,26.4804688 20.8798841,26.7089821 20.6162109,27.1660156 C20.3525377,27.6230492 20.2207031,28.2167932 20.2207031,28.9472656 L20.2207031,29.0703125 Z M28.78125,32.1230469 C27.8984331,32.1230469 27.1962917,31.8291045 26.6748047,31.2412109 C26.1533177,30.6533174 25.8925781,29.8906297 25.8925781,28.953125 L25.8925781,28.6953125 C25.8925781,27.7929642 26.1611301,27.0419952 26.6982422,26.4423828 C27.2353542,25.8427704 27.8710901,25.5429688 28.6054688,25.5429688 C29.4609418,25.5429688 30.1074197,25.8007787 30.5449219,26.3164062 C30.9824241,26.8320338 31.2011719,27.519527 31.2011719,28.3789062 L31.2011719,29.0996094 L27.0878906,29.0996094 L27.0703125,29.1289062 C27.0820313,29.7382843 27.2363266,30.2392558 27.5332031,30.6318359 C27.8300796,31.024416 28.2460911,31.2207031 28.78125,31.2207031 C29.171877,31.2207031 29.514647,31.1650396 29.8095703,31.0537109 C30.1044937,30.9423823 30.3593739,30.7890635 30.5742188,30.59375 L31.0253906,31.34375 C30.798827,31.5664074 30.5000019,31.7519524 30.1289063,31.9003906 C29.7578106,32.0488289 29.3085964,32.1230469 28.78125,32.1230469 Z M28.6054688,26.4511719 C28.2187481,26.4511719 27.8886732,26.6142562 27.6152344,26.9404297 C27.3417955,27.2666032 27.1738284,27.6757788 27.1113281,28.1679688 L27.1230469,28.1972656 L30.046875,28.1972656 L30.046875,28.0449219 C30.046875,27.5917946 29.9257825,27.2128921 29.6835938,26.9082031 C29.441405,26.6035141 29.0820336,26.4511719 28.6054688,26.4511719 Z M35.4960938,26.6796875 L34.9042969,26.6445312 C34.5996079,26.6445312 34.3427745,26.7167962 34.1337891,26.8613281 C33.9248036,27.0058601 33.7636724,27.2089831 33.6503906,27.4707031 L33.6503906,32 L32.4960938,32 L32.4960938,25.6601562 L33.5273438,25.6601562 L33.6386719,26.5859375 C33.8183603,26.2578109 34.0400377,26.001954 34.3037109,25.8183594 C34.5673841,25.6347647 34.871092,25.5429688 35.2148438,25.5429688 C35.3007817,25.5429688 35.3828121,25.5498046 35.4609375,25.5634766 C35.5390629,25.5771485 35.6035154,25.5917968 35.6542969,25.6074219 L35.4960938,26.6796875 Z M36.8613281,32 L35.7070312,32 L35.7070312,30.8164062 L36.8613281,30.8164062 L36.8613281,32 Z M36.8613281,26.8671875 L35.7070312,26.8671875 L35.7070312,25.6835938 L36.8613281,25.6835938 L36.8613281,26.8671875 Z M44.765625,32 L43.6113281,32 L43.6113281,24.59375 L41.8652344,24.6171875 L41.8652344,23.7851562 L44.765625,23.46875 L44.765625,32 Z M53.7714844,29.0703125 C53.7714844,29.9843796 53.5527366,30.7216769 53.1152344,31.2822266 C52.6777322,31.8427762 52.0742226,32.1230469 51.3046875,32.1230469 C50.9140605,32.1230469 50.5712905,32.0576178 50.2763672,31.9267578 C49.9814438,31.7958978 49.7304698,31.5996107 49.5234375,31.3378906 L49.5234375,34.4375 L48.3691406,34.4375 L48.3691406,25.6601562 L49.2539063,25.6601562 L49.4355469,26.4804688 C49.6425792,26.1757797 49.9003891,25.9433602 50.2089844,25.7832031 C50.5175797,25.6230461 50.8769511,25.5429688 51.2871094,25.5429688 C52.0722696,25.5429688 52.682615,25.8544891 53.1181641,26.4775391 C53.5537131,27.1005891 53.7714844,27.923823 53.7714844,28.9472656 L53.7714844,29.0703125 Z M52.6171875,28.9472656 C52.6171875,28.228512 52.4755874,27.6376976 52.1923828,27.1748047 C51.9091783,26.7119117 51.4921903,26.4804688 50.9414063,26.4804688 C50.6093733,26.4804688 50.326173,26.5556633 50.0917969,26.7060547 C49.8574207,26.8564461 49.6679695,27.0624987 49.5234375,27.3242188 L49.5234375,30.3886719 C49.6679695,30.6503919 49.8574207,30.8544915 50.0917969,31.0009766 C50.326173,31.1474617 50.6132796,31.2207031 50.953125,31.2207031 C51.5000027,31.2207031 51.9140611,31.0205098 52.1953125,30.6201172 C52.4765639,30.2197246 52.6171875,29.7031282 52.6171875,29.0703125 L52.6171875,28.9472656 Z M57.2519531,27.9980469 L58.5996094,25.6601562 L59.9472656,25.6601562 L57.890625,28.7949219 L60.0058594,32 L58.6816406,32 L57.2753906,29.6035156 L55.8691406,32 L54.5332031,32 L56.6484375,28.7949219 L54.5917969,25.6601562 L55.921875,25.6601562 L57.2519531,27.9980469 Z M67.453125,29.5976562 L65.9589844,29.5976562 L65.4902344,32 L64.6054688,32 L65.0742188,29.5976562 L63.6914063,29.5976562 L63.6914063,28.7773438 L65.2382813,28.7773438 L65.6367188,26.7382812 L64.1367188,26.7382812 L64.1367188,25.90625 L65.8007813,25.90625 L66.28125,23.46875 L67.1660156,23.46875 L66.6855469,25.90625 L68.1796875,25.90625 L68.6601563,23.46875 L69.5449219,23.46875 L69.0644531,25.90625 L70.2304688,25.90625 L70.2304688,26.7382812 L68.90625,26.7382812 L68.5078125,28.7773438 L69.7910156,28.7773438 L69.7910156,29.5976562 L68.34375,29.5976562 L67.875,32 L66.984375,32 L67.453125,29.5976562 Z M66.1230469,28.7773438 L67.6171875,28.7773438 L68.015625,26.7382812 L66.5214844,26.7382812 L66.1230469,28.7773438 Z M74.2265625,32.1230469 C73.3437456,32.1230469 72.6416042,31.8291045 72.1201172,31.2412109 C71.5986302,30.6533174 71.3378906,29.8906297 71.3378906,28.953125 L71.3378906,28.6953125 C71.3378906,27.7929642 71.6064426,27.0419952 72.1435547,26.4423828 C72.6806667,25.8427704 73.3164026,25.5429688 74.0507812,25.5429688 C74.9062543,25.5429688 75.5527322,25.8007787 75.9902344,26.3164062 C76.4277366,26.8320338 76.6464844,27.519527 76.6464844,28.3789062 L76.6464844,29.0996094 L72.5332031,29.0996094 L72.515625,29.1289062 C72.5273438,29.7382843 72.6816391,30.2392558 72.9785156,30.6318359 C73.2753921,31.024416 73.6914036,31.2207031 74.2265625,31.2207031 C74.6171895,31.2207031 74.9599595,31.1650396 75.2548828,31.0537109 C75.5498062,30.9423823 75.8046864,30.7890635 76.0195312,30.59375 L76.4707031,31.34375 C76.2441395,31.5664074 75.9453144,31.7519524 75.5742188,31.9003906 C75.2031231,32.0488289 74.7539089,32.1230469 74.2265625,32.1230469 Z M74.0507812,26.4511719 C73.6640606,26.4511719 73.3339857,26.6142562 73.0605469,26.9404297 C72.787108,27.2666032 72.6191409,27.6757788 72.5566406,28.1679688 L72.5683594,28.1972656 L75.4921875,28.1972656 L75.4921875,28.0449219 C75.4921875,27.5917946 75.371095,27.2128921 75.1289062,26.9082031 C74.8867175,26.6035141 74.5273461,26.4511719 74.0507812,26.4511719 Z M83.1972656,28.7480469 C83.1972656,29.8378961 82.9560571,30.6728487 82.4736328,31.2529297 C81.9912085,31.8330107 81.3300823,32.1230469 80.4902344,32.1230469 C79.6503864,32.1230469 78.9863306,31.8320342 78.4980469,31.25 C78.0097632,30.6679658 77.765625,29.8339898 77.765625,28.7480469 L77.765625,26.7265625 C77.765625,25.6406196 78.0087866,24.805667 78.4951172,24.2216797 C78.9814477,23.6376924 79.6425739,23.3457031 80.4785156,23.3457031 C81.3183636,23.3457031 81.9814429,23.6376924 82.4677734,24.2216797 C82.954104,24.805667 83.1972656,25.6406196 83.1972656,26.7265625 L83.1972656,28.7480469 Z M82.0429688,26.4804688 C82.0429688,25.7421838 81.909181,25.1865253 81.6416016,24.8134766 C81.3740221,24.4404278 80.9863307,24.2539062 80.4785156,24.2539062 C79.9707006,24.2539062 79.5839857,24.4404278 79.3183594,24.8134766 C79.052733,25.1865253 78.9199219,25.7421838 78.9199219,26.4804688 L78.9199219,28.9824219 C78.9199219,29.7207068 79.0546862,30.2783184 79.3242188,30.6552734 C79.5937513,31.0322284 79.9824193,31.2207031 80.4902344,31.2207031 C80.9980494,31.2207031 81.3837877,31.033205 81.6474609,30.6582031 C81.9111341,30.2832012 82.0429688,29.7246131 82.0429688,28.9824219 L82.0429688,26.4804688 Z M87.3339844,32.1230469 C86.4511675,32.1230469 85.749026,31.8291045 85.2275391,31.2412109 C84.7060521,30.6533174 84.4453125,29.8906297 84.4453125,28.953125 L84.4453125,28.6953125 C84.4453125,27.7929642 84.7138645,27.0419952 85.2509766,26.4423828 C85.7880886,25.8427704 86.4238245,25.5429688 87.1582031,25.5429688 C88.0136762,25.5429688 88.6601541,25.8007787 89.0976563,26.3164062 C89.5351584,26.8320338 89.7539063,27.519527 89.7539063,28.3789062 L89.7539063,29.0996094 L85.640625,29.0996094 L85.6230469,29.1289062 C85.6347657,29.7382843 85.789061,30.2392558 86.0859375,30.6318359 C86.382814,31.024416 86.7988254,31.2207031 87.3339844,31.2207031 C87.7246113,31.2207031 88.0673813,31.1650396 88.3623047,31.0537109 C88.657228,30.9423823 88.9121083,30.7890635 89.1269531,30.59375 L89.578125,31.34375 C89.3515614,31.5664074 89.0527362,31.7519524 88.6816406,31.9003906 C88.310545,32.0488289 87.8613308,32.1230469 87.3339844,32.1230469 Z M87.1582031,26.4511719 C86.7714824,26.4511719 86.4414076,26.6142562 86.1679688,26.9404297 C85.8945299,27.2666032 85.7265628,27.6757788 85.6640625,28.1679688 L85.6757813,28.1972656 L88.5996094,28.1972656 L88.5996094,28.0449219 C88.5996094,27.5917946 88.4785168,27.2128921 88.2363281,26.9082031 C87.9941394,26.6035141 87.634768,26.4511719 87.1582031,26.4511719 Z M96.3046875,28.7480469 C96.3046875,29.8378961 96.063479,30.6728487 95.5810547,31.2529297 C95.0986304,31.8330107 94.4375042,32.1230469 93.5976563,32.1230469 C92.7578083,32.1230469 92.0937524,31.8320342 91.6054688,31.25 C91.1171851,30.6679658 90.8730469,29.8339898 90.8730469,28.7480469 L90.8730469,26.7265625 C90.8730469,25.6406196 91.1162085,24.805667 91.6025391,24.2216797 C92.0888696,23.6376924 92.7499958,23.3457031 93.5859375,23.3457031 C94.4257854,23.3457031 95.0888648,23.6376924 95.5751953,24.2216797 C96.0615259,24.805667 96.3046875,25.6406196 96.3046875,26.7265625 L96.3046875,28.7480469 Z M95.1503906,26.4804688 C95.1503906,25.7421838 95.0166029,25.1865253 94.7490234,24.8134766 C94.481444,24.4404278 94.0937525,24.2539062 93.5859375,24.2539062 C93.0781225,24.2539062 92.6914076,24.4404278 92.4257813,24.8134766 C92.1601549,25.1865253 92.0273438,25.7421838 92.0273438,26.4804688 L92.0273438,28.9824219 C92.0273438,29.7207068 92.162108,30.2783184 92.4316406,30.6552734 C92.7011732,31.0322284 93.0898412,31.2207031 93.5976563,31.2207031 C94.1054713,31.2207031 94.4912096,31.033205 94.7548828,30.6582031 C95.018556,30.2832012 95.1503906,29.7246131 95.1503906,28.9824219 L95.1503906,26.4804688 Z M100.441406,32.1230469 C99.5585893,32.1230469 98.8564479,31.8291045 98.3349609,31.2412109 C97.813474,30.6533174 97.5527344,29.8906297 97.5527344,28.953125 L97.5527344,28.6953125 C97.5527344,27.7929642 97.8212864,27.0419952 98.3583984,26.4423828 C98.8955105,25.8427704 99.5312463,25.5429688 100.265625,25.5429688 C101.121098,25.5429688 101.767576,25.8007787 102.205078,26.3164062 C102.64258,26.8320338 102.861328,27.519527 102.861328,28.3789062 L102.861328,29.0996094 L98.7480469,29.0996094 L98.7304688,29.1289062 C98.7421876,29.7382843 98.8964829,30.2392558 99.1933594,30.6318359 C99.4902359,31.024416 99.9062473,31.2207031 100.441406,31.2207031 C100.832033,31.2207031 101.174803,31.1650396 101.469727,31.0537109 C101.76465,30.9423823 102.01953,30.7890635 102.234375,30.59375 L102.685547,31.34375 C102.458983,31.5664074 102.160158,31.7519524 101.789063,31.9003906 C101.417967,32.0488289 100.968753,32.1230469 100.441406,32.1230469 Z M100.265625,26.4511719 C99.8789043,26.4511719 99.5488295,26.6142562 99.2753906,26.9404297 C99.0019518,27.2666032 98.8339847,27.6757788 98.7714844,28.1679688 L98.7832031,28.1972656 L101.707031,28.1972656 L101.707031,28.0449219 C101.707031,27.5917946 101.585939,27.2128921 101.34375,26.9082031 C101.101561,26.6035141 100.74219,26.4511719 100.265625,26.4511719 Z M109.412109,28.7480469 C109.412109,29.8378961 109.170901,30.6728487 108.688477,31.2529297 C108.206052,31.8330107 107.544926,32.1230469 106.705078,32.1230469 C105.86523,32.1230469 105.201174,31.8320342 104.712891,31.25 C104.224607,30.6679658 103.980469,29.8339898 103.980469,28.7480469 L103.980469,26.7265625 C103.980469,25.6406196 104.22363,24.805667 104.709961,24.2216797 C105.196291,23.6376924 105.857418,23.3457031 106.693359,23.3457031 C107.533207,23.3457031 108.196287,23.6376924 108.682617,24.2216797 C109.168948,24.805667 109.412109,25.6406196 109.412109,26.7265625 L109.412109,28.7480469 Z M108.257813,26.4804688 C108.257813,25.7421838 108.124025,25.1865253 107.856445,24.8134766 C107.588866,24.4404278 107.201174,24.2539062 106.693359,24.2539062 C106.185544,24.2539062 105.798829,24.4404278 105.533203,24.8134766 C105.267577,25.1865253 105.134766,25.7421838 105.134766,26.4804688 L105.134766,28.9824219 C105.134766,29.7207068 105.26953,30.2783184 105.539063,30.6552734 C105.808595,31.0322284 106.197263,31.2207031 106.705078,31.2207031 C107.212893,31.2207031 107.598631,31.033205 107.862305,30.6582031 C108.125978,30.2832012 108.257813,29.7246131 108.257813,28.9824219 L108.257813,26.4804688 Z"></path>
                <path d="M5.70117188,48.8496094 C5.70117188,48.4589824 5.55468896,48.1318373 5.26171875,47.8681641 C4.96874854,47.6044909 4.44922248,47.3828134 3.703125,47.203125 C2.80077674,46.9882802 2.09668222,46.6718771 1.59082031,46.2539062 C1.08495841,45.8359354 0.83203125,45.31055 0.83203125,44.6777344 C0.83203125,44.0136686 1.10448946,43.4589866 1.64941406,43.0136719 C2.19433866,42.5683571 2.90038629,42.3457031 3.76757813,42.3457031 C4.70117654,42.3457031 5.44433317,42.6015599 5.99707031,43.1132812 C6.54980745,43.6250026 6.81640635,44.2187466 6.796875,44.8945312 L6.78515625,44.9296875 L5.68359375,44.9296875 C5.68359375,44.429685 5.51855634,44.0253922 5.18847656,43.7167969 C4.85839679,43.4082016 4.38476871,43.2539062 3.76757813,43.2539062 C3.1933565,43.2539062 2.75293122,43.3837878 2.44628906,43.6435547 C2.1396469,43.9033216 1.98632812,44.2421854 1.98632812,44.6601562 C1.98632812,45.0312519 2.15234209,45.3408191 2.484375,45.5888672 C2.81640791,45.8369153 3.35546502,46.0546866 4.1015625,46.2421875 C5.00000449,46.4648449 5.68359141,46.7929666 6.15234375,47.2265625 C6.62109609,47.6601584 6.85546875,48.1972624 6.85546875,48.8378906 C6.85546875,49.5253941 6.57422156,50.0781229 6.01171875,50.4960938 C5.44921594,50.9140646 4.71484828,51.1230469 3.80859375,51.1230469 C2.95702699,51.1230469 2.20410483,50.8925804 1.54980469,50.4316406 C0.895504541,49.9707008 0.578124902,49.3535195 0.59765625,48.5800781 L0.609375,48.5449219 L1.7109375,48.5449219 C1.7109375,49.0917996 1.91210736,49.5078111 2.31445312,49.7929688 C2.71679889,50.0781264 3.21484078,50.2207031 3.80859375,50.2207031 C4.39062791,50.2207031 4.8515608,50.0976575 5.19140625,49.8515625 C5.5312517,49.6054675 5.70117188,49.2714865 5.70117188,48.8496094 Z M9.47460938,45.5097656 C9.69336047,45.2050766 9.96191247,44.9677743 10.2802734,44.7978516 C10.5986344,44.6279288 10.9511699,44.5429688 11.3378906,44.5429688 C12.0136753,44.5429688 12.5400372,44.7460917 12.9169922,45.1523438 C13.2939472,45.5585958 13.4824219,46.1835895 13.4824219,47.0273438 L13.4824219,51 L12.328125,51 L12.328125,47.015625 C12.328125,46.4921849 12.2158214,46.10547 11.9912109,45.8554688 C11.7666004,45.6054675 11.4316429,45.4804688 10.9863281,45.4804688 C10.666014,45.4804688 10.3759779,45.5556633 10.1162109,45.7060547 C9.85644401,45.8564461 9.64257896,46.0605456 9.47460938,46.3183594 L9.47460938,51 L8.3203125,51 L8.3203125,41.859375 L9.47460938,41.859375 L9.47460938,45.5097656 Z M19.0371094,51 C18.9980467,50.8085928 18.9677735,50.6396492 18.9462891,50.4931641 C18.9248046,50.346679 18.9121094,50.1992195 18.9082031,50.0507812 C18.6933583,50.3554703 18.4130877,50.6103505 18.0673828,50.8154297 C17.721678,51.0205088 17.3496114,51.1230469 16.9511719,51.1230469 C16.2910123,51.1230469 15.7880877,50.9541033 15.4423828,50.6162109 C15.096678,50.2783186 14.9238281,49.812503 14.9238281,49.21875 C14.9238281,48.6132782 15.1689429,48.1396501 15.6591797,47.7978516 C16.1494165,47.456053 16.8144489,47.2851562 17.6542969,47.2851562 L18.9082031,47.2851562 L18.9082031,46.6582031 C18.9082031,46.2871075 18.794923,45.9931651 18.5683594,45.7763672 C18.3417957,45.5595692 18.0214864,45.4511719 17.6074219,45.4511719 C17.2363263,45.4511719 16.9345715,45.5458975 16.7021484,45.7353516 C16.4697254,45.9248056 16.3535156,46.1523424 16.3535156,46.4179688 L15.2519531,46.4179688 L15.2402344,46.3828125 C15.2167968,45.9218727 15.434568,45.5000019 15.8935547,45.1171875 C16.3525414,44.7343731 16.9453089,44.5429688 17.671875,44.5429688 C18.3906286,44.5429688 18.9687478,44.7255841 19.40625,45.0908203 C19.8437522,45.4560565 20.0625,45.9824184 20.0625,46.6699219 L20.0625,49.7226562 C20.0625,49.9492199 20.0742186,50.1679677 20.0976563,50.3789062 C20.1210939,50.5898448 20.1640622,50.796874 20.2265625,51 L19.0371094,51 Z M17.1210938,50.15625 C17.5390646,50.15625 17.9160139,50.0488292 18.2519531,49.8339844 C18.5878923,49.6191396 18.8066401,49.3730483 18.9082031,49.0957031 L18.9082031,48.0644531 L17.6132812,48.0644531 C17.1484352,48.0644531 16.7763686,48.1816395 16.4970703,48.4160156 C16.217772,48.6503918 16.078125,48.9257797 16.078125,49.2421875 C16.078125,49.5234389 16.1660147,49.7460929 16.3417969,49.9101562 C16.517579,50.0742196 16.777342,50.15625 17.1210938,50.15625 Z M21.4746094,47.9472656 C21.4746094,46.9277293 21.6923806,46.1054719 22.1279297,45.4804688 C22.5634787,44.8554656 23.1738242,44.5429688 23.9589844,44.5429688 C24.33008,44.5429688 24.6591783,44.6113274 24.9462891,44.7480469 C25.2333999,44.8847663 25.4785146,45.0839831 25.6816406,45.3457031 L25.6816406,41.859375 L26.8359375,41.859375 L26.8359375,51 L25.8925781,51 L25.7578125,50.2207031 C25.5507802,50.5175796 25.2968765,50.7421867 24.9960938,50.8945312 C24.695311,51.0468758 24.3457051,51.1230469 23.9472656,51.1230469 C23.1738243,51.1230469 22.5683616,50.8427762 22.1308594,50.2822266 C21.6933572,49.7216769 21.4746094,48.9843796 21.4746094,48.0703125 L21.4746094,47.9472656 Z M22.6289062,48.0703125 C22.6289062,48.7109407 22.7597643,49.2236309 23.0214844,49.6083984 C23.2832044,49.993166 23.6894504,50.1855469 24.2402344,50.1855469 C24.5839861,50.1855469 24.8730457,50.1074227 25.1074219,49.9511719 C25.341798,49.7949211 25.5332024,49.5761733 25.6816406,49.2949219 L25.6816406,46.3359375 C25.5332024,46.0742174 25.3408215,45.8662117 25.1044922,45.7119141 C24.8681629,45.5576164 24.583986,45.4804688 24.2519531,45.4804688 C23.6972629,45.4804688 23.2880873,45.7089821 23.0244141,46.1660156 C22.7607409,46.6230492 22.6289062,47.2167932 22.6289062,47.9472656 L22.6289062,48.0703125 Z M28.2890625,47.7714844 C28.2890625,46.8339797 28.5429662,46.0615265 29.0507813,45.4541016 C29.5585963,44.8466767 30.2480425,44.5429688 31.1191406,44.5429688 C31.9980513,44.5429688 32.6923803,44.8457001 33.2021484,45.4511719 C33.7119166,46.0566437 33.9667969,46.8300734 33.9667969,47.7714844 L33.9667969,47.9003906 C33.9667969,48.8457079 33.7128932,49.6191376 33.2050781,50.2207031 C32.6972631,50.8222686 32.0058638,51.1230469 31.1308594,51.1230469 C30.255855,51.1230469 29.5634791,50.8212921 29.0537109,50.2177734 C28.5439428,49.6142548 28.2890625,48.8418016 28.2890625,47.9003906 L28.2890625,47.7714844 Z M29.4433594,47.9003906 C29.4433594,48.572269 29.5849595,49.1269509 29.8681641,49.5644531 C30.1513686,50.0019553 30.5722628,50.2207031 31.1308594,50.2207031 C31.6816434,50.2207031 32.0996079,50.0019553 32.3847656,49.5644531 C32.6699233,49.1269509 32.8125,48.572269 32.8125,47.9003906 L32.8125,47.7714844 C32.8125,47.1074186 32.6689467,46.5546897 32.3818359,46.1132812 C32.0947251,45.6718728 31.6738309,45.4511719 31.1191406,45.4511719 C30.5683566,45.4511719 30.1513686,45.6718728 29.8681641,46.1132812 C29.5849595,46.5546897 29.4433594,47.1074186 29.4433594,47.7714844 L29.4433594,47.9003906 Z M37.0019531,48.6914062 L37.1367188,49.4589844 L37.171875,49.4589844 L37.3359375,48.6914062 L38.6015625,44.6601562 L39.5273438,44.6601562 L40.7988281,48.6914062 L40.9804688,49.546875 L41.015625,49.546875 L41.1855469,48.6914062 L42.1816406,44.6601562 L43.3300781,44.6601562 L41.4902344,51 L40.5585938,51 L39.3339844,47.1386719 L39.0703125,46.0605469 L39.0351562,46.0664062 L38.7832031,47.1386719 L37.5761719,51 L36.6445312,51 L34.8046875,44.6601562 L35.953125,44.6601562 L37.0019531,48.6914062 Z M44.9941406,51 L43.8398438,51 L43.8398438,49.8164062 L44.9941406,49.8164062 L44.9941406,51 Z M44.9941406,45.8671875 L43.8398438,45.8671875 L43.8398438,44.6835938 L44.9941406,44.6835938 L44.9941406,45.8671875 Z M52.7167969,45.796875 L54.7089844,42.46875 L56.1035156,42.46875 L53.3964844,46.6992188 L56.1621094,51 L54.7851562,51 L52.7402344,47.6132812 L50.6894531,51 L49.2949219,51 L52.0605469,46.6992188 L49.3535156,42.46875 L50.7363281,42.46875 L52.7167969,45.796875 Z M65.5722656,47.7480469 C65.5722656,48.8378961 65.3310571,49.6728487 64.8486328,50.2529297 C64.3662085,50.8330107 63.7050823,51.1230469 62.8652344,51.1230469 C62.0253864,51.1230469 61.3613306,50.8320342 60.8730469,50.25 C60.3847632,49.6679658 60.140625,48.8339898 60.140625,47.7480469 L60.140625,45.7265625 C60.140625,44.6406196 60.3837866,43.805667 60.8701172,43.2216797 C61.3564477,42.6376924 62.0175739,42.3457031 62.8535156,42.3457031 C63.6933636,42.3457031 64.3564429,42.6376924 64.8427734,43.2216797 C65.329104,43.805667 65.5722656,44.6406196 65.5722656,45.7265625 L65.5722656,47.7480469 Z M64.4179688,45.4804688 C64.4179688,44.7421838 64.284181,44.1865253 64.0166016,43.8134766 C63.7490221,43.4404278 63.3613307,43.2539062 62.8535156,43.2539062 C62.3457006,43.2539062 61.9589857,43.4404278 61.6933594,43.8134766 C61.427733,44.1865253 61.2949219,44.7421838 61.2949219,45.4804688 L61.2949219,47.9824219 C61.2949219,48.7207068 61.4296862,49.2783184 61.6992188,49.6552734 C61.9687513,50.0322284 62.3574193,50.2207031 62.8652344,50.2207031 C63.3730494,50.2207031 63.7587877,50.033205 64.0224609,49.6582031 C64.2861341,49.2832012 64.4179688,48.7246131 64.4179688,47.9824219 L64.4179688,45.4804688 Z M72.4804688,48.0703125 C72.4804688,48.9843796 72.2617209,49.7216769 71.8242188,50.2822266 C71.3867166,50.8427762 70.783207,51.1230469 70.0136719,51.1230469 C69.6230449,51.1230469 69.2802749,51.0576178 68.9853516,50.9267578 C68.6904282,50.7958978 68.4394542,50.5996107 68.2324219,50.3378906 L68.2324219,53.4375 L67.078125,53.4375 L67.078125,44.6601562 L67.9628906,44.6601562 L68.1445312,45.4804688 C68.3515635,45.1757797 68.6093735,44.9433602 68.9179688,44.7832031 C69.226564,44.6230461 69.5859354,44.5429688 69.9960938,44.5429688 C70.7812539,44.5429688 71.3915994,44.8544891 71.8271484,45.4775391 C72.2626975,46.1005891 72.4804688,46.923823 72.4804688,47.9472656 L72.4804688,48.0703125 Z M71.3261719,47.9472656 C71.3261719,47.228512 71.1845717,46.6376976 70.9013672,46.1748047 C70.6181626,45.7119117 70.2011746,45.4804688 69.6503906,45.4804688 C69.3183577,45.4804688 69.0351574,45.5556633 68.8007812,45.7060547 C68.5664051,45.8564461 68.3769538,46.0624987 68.2324219,46.3242188 L68.2324219,49.3886719 C68.3769538,49.6503919 68.5664051,49.8544915 68.8007812,50.0009766 C69.0351574,50.1474617 69.3222639,50.2207031 69.6621094,50.2207031 C70.2089871,50.2207031 70.6230455,50.0205098 70.9042969,49.6201172 C71.1855483,49.2197246 71.3261719,48.7031282 71.3261719,48.0703125 L71.3261719,47.9472656 Z M75.9609375,46.9980469 L77.3085938,44.6601562 L78.65625,44.6601562 L76.5996094,47.7949219 L78.7148438,51 L77.390625,51 L75.984375,48.6035156 L74.578125,51 L73.2421875,51 L75.3574219,47.7949219 L73.3007813,44.6601562 L74.6308594,44.6601562 L75.9609375,46.9980469 Z M85.6523438,46.8046875 L87.8789062,42.46875 L89.1972656,42.46875 L86.203125,48 L86.203125,51 L85.0546875,51 L85.0546875,47.9238281 L82.1074219,42.46875 L83.4257812,42.46875 L85.6523438,46.8046875 Z M94.5703125,46.2011719 L95.578125,46.2011719 C96.0898463,46.2011719 96.4521474,46.0732435 96.6650391,45.8173828 C96.8779308,45.5615222 96.984375,45.2050804 96.984375,44.7480469 C96.984375,44.2597632 96.8632825,43.8886731 96.6210938,43.6347656 C96.378905,43.3808581 96.0214867,43.2539062 95.5488281,43.2539062 C95.0996071,43.2539062 94.7392592,43.3857409 94.4677734,43.6494141 C94.1962877,43.9130873 94.0605469,44.2636697 94.0605469,44.7011719 L92.953125,44.7011719 L92.9414062,44.6660156 C92.9218749,44.0214812 93.155271,43.4736351 93.6416016,43.0224609 C94.1279321,42.5712868 94.7636679,42.3457031 95.5488281,42.3457031 C96.3378946,42.3457031 96.9667945,42.555662 97.4355469,42.9755859 C97.9042992,43.3955099 98.1386719,43.9941367 98.1386719,44.7714844 C98.1386719,45.1230486 98.0322276,45.4736311 97.8193359,45.8232422 C97.6064442,46.1728533 97.2871115,46.4394522 96.8613281,46.6230469 C97.3730494,46.7910165 97.7353505,47.0546857 97.9482422,47.4140625 C98.1611339,47.7734393 98.2675781,48.175779 98.2675781,48.6210938 C98.2675781,49.3984414 98.0126979,50.0097634 97.5029297,50.4550781 C96.9931615,50.9003929 96.3418008,51.1230469 95.5488281,51.1230469 C94.7714805,51.1230469 94.1279322,50.913088 93.6181641,50.4931641 C93.1083959,50.0732401 92.8632812,49.5039098 92.8828125,48.7851562 L92.9003906,48.75 L94.0019531,48.75 C94.0019531,49.199221 94.1396471,49.5566393 94.4150391,49.8222656 C94.6904311,50.087892 95.068357,50.2207031 95.5488281,50.2207031 C96.0371118,50.2207031 96.4199205,50.087892 96.6972656,49.8222656 C96.9746108,49.5566393 97.1132812,49.1640651 97.1132812,48.6445312 C97.1132812,48.1171849 96.9902356,47.7285169 96.7441406,47.4785156 C96.4980456,47.2285144 96.1093777,47.1035156 95.578125,47.1035156 L94.5703125,47.1035156 L94.5703125,46.2011719 Z M105.292969,48.0703125 C105.292969,48.9843796 105.074221,49.7216769 104.636719,50.2822266 C104.199217,50.8427762 103.595707,51.1230469 102.826172,51.1230469 C102.435545,51.1230469 102.092775,51.0576178 101.797852,50.9267578 C101.502928,50.7958978 101.251954,50.5996107 101.044922,50.3378906 L101.044922,53.4375 L99.890625,53.4375 L99.890625,44.6601562 L100.775391,44.6601562 L100.957031,45.4804688 C101.164064,45.1757797 101.421873,44.9433602 101.730469,44.7832031 C102.039064,44.6230461 102.398435,44.5429688 102.808594,44.5429688 C103.593754,44.5429688 104.204099,44.8544891 104.639648,45.4775391 C105.075197,46.1005891 105.292969,46.923823 105.292969,47.9472656 L105.292969,48.0703125 Z M104.138672,47.9472656 C104.138672,47.228512 103.997072,46.6376976 103.713867,46.1748047 C103.430663,45.7119117 103.013675,45.4804688 102.462891,45.4804688 C102.130858,45.4804688 101.847657,45.5556633 101.613281,45.7060547 C101.378905,45.8564461 101.189454,46.0624987 101.044922,46.3242188 L101.044922,49.3886719 C101.189454,49.6503919 101.378905,49.8544915 101.613281,50.0009766 C101.847657,50.1474617 102.134764,50.2207031 102.474609,50.2207031 C103.021487,50.2207031 103.435545,50.0205098 103.716797,49.6201172 C103.998048,49.2197246 104.138672,48.7031282 104.138672,48.0703125 L104.138672,47.9472656 Z M108.773438,46.9980469 L110.121094,44.6601562 L111.46875,44.6601562 L109.412109,47.7949219 L111.527344,51 L110.203125,51 L108.796875,48.6035156 L107.390625,51 L106.054688,51 L108.169922,47.7949219 L106.113281,44.6601562 L107.443359,44.6601562 L108.773438,46.9980469 Z M113.666016,50.71875 L112.787109,52.5117188 L112.101562,52.5117188 L112.511719,50.6601562 L112.511719,49.7050781 L113.666016,49.7050781 L113.666016,50.71875 Z M123.421875,48.0703125 C123.421875,48.9843796 123.202151,49.7216769 122.762695,50.2822266 C122.32324,50.8427762 121.718754,51.1230469 120.949219,51.1230469 C120.531248,51.1230469 120.16797,51.041993 119.859375,50.8798828 C119.55078,50.7177726 119.294923,50.4785172 119.091797,50.1621094 L118.951172,51 L118.007813,51 L118.007813,41.859375 L119.162109,41.859375 L119.162109,45.4101562 C119.361329,45.1289048 119.608397,44.9140632 119.90332,44.765625 C120.198244,44.6171868 120.542967,44.5429688 120.9375,44.5429688 C121.718754,44.5429688 122.328123,44.8554656 122.765625,45.4804688 C123.203127,46.1054719 123.421875,46.9277293 123.421875,47.9472656 L123.421875,48.0703125 Z M122.267578,47.9472656 C122.267578,47.2206995 122.13379,46.627932 121.866211,46.1689453 C121.598631,45.7099586 121.191409,45.4804688 120.644531,45.4804688 C120.289061,45.4804688 119.989259,45.5673819 119.745117,45.7412109 C119.500975,45.9150399 119.306641,46.148436 119.162109,46.4414062 L119.162109,49.1894531 C119.310548,49.5019547 119.504882,49.7460929 119.745117,49.921875 C119.985353,50.0976571 120.289061,50.1855469 120.65625,50.1855469 C121.199221,50.1855469 121.603514,49.9921894 121.869141,49.6054688 C122.134767,49.2187481 122.267578,48.7070344 122.267578,48.0703125 L122.267578,47.9472656 Z M126.076172,51 L124.921875,51 L124.921875,41.859375 L126.076172,41.859375 L126.076172,51 Z M131.876953,50.0625 C131.677733,50.4023454 131.421877,50.6640616 131.109375,50.8476562 C130.796873,51.0312509 130.435549,51.1230469 130.025391,51.1230469 C129.333981,51.1230469 128.794924,50.902346 128.408203,50.4609375 C128.021482,50.019529 127.828125,49.3320359 127.828125,48.3984375 L127.828125,44.6601562 L128.982422,44.6601562 L128.982422,48.4101562 C128.982422,49.0859409 129.08203,49.55078 129.28125,49.8046875 C129.48047,50.058595 129.791014,50.1855469 130.212891,50.1855469 C130.623049,50.1855469 130.961913,50.1025399 131.229492,49.9365234 C131.497072,49.770507 131.699218,49.5351578 131.835938,49.2304688 L131.835938,44.6601562 L132.990234,44.6601562 L132.990234,51 L131.953125,51 L131.876953,50.0625 Z M137.671875,45.6796875 L137.080078,45.6445312 C136.775389,45.6445312 136.518556,45.7167962 136.30957,45.8613281 C136.100585,46.0058601 135.939454,46.2089831 135.826172,46.4707031 L135.826172,51 L134.671875,51 L134.671875,44.6601562 L135.703125,44.6601562 L135.814453,45.5859375 C135.994142,45.2578109 136.215819,45.001954 136.479492,44.8183594 C136.743165,44.6347647 137.046873,44.5429688 137.390625,44.5429688 C137.476563,44.5429688 137.558593,44.5498046 137.636719,44.5634766 C137.714844,44.5771485 137.779297,44.5917968 137.830078,44.6074219 L137.671875,45.6796875 Z M143.203125,46.2011719 L144.210938,46.2011719 C144.722659,46.2011719 145.08496,46.0732435 145.297852,45.8173828 C145.510743,45.5615222 145.617188,45.2050804 145.617188,44.7480469 C145.617188,44.2597632 145.496095,43.8886731 145.253906,43.6347656 C145.011718,43.3808581 144.654299,43.2539062 144.181641,43.2539062 C143.73242,43.2539062 143.372072,43.3857409 143.100586,43.6494141 C142.8291,43.9130873 142.693359,44.2636697 142.693359,44.7011719 L141.585938,44.7011719 L141.574219,44.6660156 C141.554687,44.0214812 141.788084,43.4736351 142.274414,43.0224609 C142.760745,42.5712868 143.39648,42.3457031 144.181641,42.3457031 C144.970707,42.3457031 145.599607,42.555662 146.068359,42.9755859 C146.537112,43.3955099 146.771484,43.9941367 146.771484,44.7714844 C146.771484,45.1230486 146.66504,45.4736311 146.452148,45.8232422 C146.239257,46.1728533 145.919924,46.4394522 145.494141,46.6230469 C146.005862,46.7910165 146.368163,47.0546857 146.581055,47.4140625 C146.793946,47.7734393 146.900391,48.175779 146.900391,48.6210938 C146.900391,49.3984414 146.64551,50.0097634 146.135742,50.4550781 C145.625974,50.9003929 144.974613,51.1230469 144.181641,51.1230469 C143.404293,51.1230469 142.760745,50.913088 142.250977,50.4931641 C141.741208,50.0732401 141.496094,49.5039098 141.515625,48.7851562 L141.533203,48.75 L142.634766,48.75 C142.634766,49.199221 142.77246,49.5566393 143.047852,49.8222656 C143.323244,50.087892 143.701169,50.2207031 144.181641,50.2207031 C144.669924,50.2207031 145.052733,50.087892 145.330078,49.8222656 C145.607423,49.5566393 145.746094,49.1640651 145.746094,48.6445312 C145.746094,48.1171849 145.623048,47.7285169 145.376953,47.4785156 C145.130858,47.2285144 144.74219,47.1035156 144.210938,47.1035156 L143.203125,47.1035156 L143.203125,46.2011719 Z M153.925781,48.0703125 C153.925781,48.9843796 153.707033,49.7216769 153.269531,50.2822266 C152.832029,50.8427762 152.228519,51.1230469 151.458984,51.1230469 C151.068357,51.1230469 150.725587,51.0576178 150.430664,50.9267578 C150.135741,50.7958978 149.884767,50.5996107 149.677734,50.3378906 L149.677734,53.4375 L148.523438,53.4375 L148.523438,44.6601562 L149.408203,44.6601562 L149.589844,45.4804688 C149.796876,45.1757797 150.054686,44.9433602 150.363281,44.7832031 C150.671877,44.6230461 151.031248,44.5429688 151.441406,44.5429688 C152.226566,44.5429688 152.836912,44.8544891 153.272461,45.4775391 C153.70801,46.1005891 153.925781,46.923823 153.925781,47.9472656 L153.925781,48.0703125 Z M152.771484,47.9472656 C152.771484,47.228512 152.629884,46.6376976 152.34668,46.1748047 C152.063475,45.7119117 151.646487,45.4804688 151.095703,45.4804688 C150.76367,45.4804688 150.48047,45.5556633 150.246094,45.7060547 C150.011718,45.8564461 149.822266,46.0624987 149.677734,46.3242188 L149.677734,49.3886719 C149.822266,49.6503919 150.011718,49.8544915 150.246094,50.0009766 C150.48047,50.1474617 150.767576,50.2207031 151.107422,50.2207031 C151.6543,50.2207031 152.068358,50.0205098 152.349609,49.6201172 C152.630861,49.2197246 152.771484,48.7031282 152.771484,48.0703125 L152.771484,47.9472656 Z M157.40625,46.9980469 L158.753906,44.6601562 L160.101562,44.6601562 L158.044922,47.7949219 L160.160156,51 L158.835938,51 L157.429688,48.6035156 L156.023438,51 L154.6875,51 L156.802734,47.7949219 L154.746094,44.6601562 L156.076172,44.6601562 L157.40625,46.9980469 Z"></path>
                <path d="M5.70117188,67.8496094 C5.70117188,67.4589824 5.55468896,67.1318373 5.26171875,66.8681641 C4.96874854,66.6044909 4.44922248,66.3828134 3.703125,66.203125 C2.80077674,65.9882802 2.09668222,65.6718771 1.59082031,65.2539062 C1.08495841,64.8359354 0.83203125,64.31055 0.83203125,63.6777344 C0.83203125,63.0136686 1.10448946,62.4589866 1.64941406,62.0136719 C2.19433866,61.5683571 2.90038629,61.3457031 3.76757813,61.3457031 C4.70117654,61.3457031 5.44433317,61.6015599 5.99707031,62.1132812 C6.54980745,62.6250026 6.81640635,63.2187466 6.796875,63.8945312 L6.78515625,63.9296875 L5.68359375,63.9296875 C5.68359375,63.429685 5.51855634,63.0253922 5.18847656,62.7167969 C4.85839679,62.4082016 4.38476871,62.2539062 3.76757813,62.2539062 C3.1933565,62.2539062 2.75293122,62.3837878 2.44628906,62.6435547 C2.1396469,62.9033216 1.98632812,63.2421854 1.98632812,63.6601562 C1.98632812,64.0312519 2.15234209,64.3408191 2.484375,64.5888672 C2.81640791,64.8369153 3.35546502,65.0546866 4.1015625,65.2421875 C5.00000449,65.4648449 5.68359141,65.7929666 6.15234375,66.2265625 C6.62109609,66.6601584 6.85546875,67.1972624 6.85546875,67.8378906 C6.85546875,68.5253941 6.57422156,69.0781229 6.01171875,69.4960938 C5.44921594,69.9140646 4.71484828,70.1230469 3.80859375,70.1230469 C2.95702699,70.1230469 2.20410483,69.8925804 1.54980469,69.4316406 C0.895504541,68.9707008 0.578124902,68.3535195 0.59765625,67.5800781 L0.609375,67.5449219 L1.7109375,67.5449219 C1.7109375,68.0917996 1.91210736,68.5078111 2.31445312,68.7929688 C2.71679889,69.0781264 3.21484078,69.2207031 3.80859375,69.2207031 C4.39062791,69.2207031 4.8515608,69.0976575 5.19140625,68.8515625 C5.5312517,68.6054675 5.70117188,68.2714865 5.70117188,67.8496094 Z M9.47460938,64.5097656 C9.69336047,64.2050766 9.96191247,63.9677743 10.2802734,63.7978516 C10.5986344,63.6279288 10.9511699,63.5429688 11.3378906,63.5429688 C12.0136753,63.5429688 12.5400372,63.7460917 12.9169922,64.1523438 C13.2939472,64.5585958 13.4824219,65.1835895 13.4824219,66.0273438 L13.4824219,70 L12.328125,70 L12.328125,66.015625 C12.328125,65.4921849 12.2158214,65.10547 11.9912109,64.8554688 C11.7666004,64.6054675 11.4316429,64.4804688 10.9863281,64.4804688 C10.666014,64.4804688 10.3759779,64.5556633 10.1162109,64.7060547 C9.85644401,64.8564461 9.64257896,65.0605456 9.47460938,65.3183594 L9.47460938,70 L8.3203125,70 L8.3203125,60.859375 L9.47460938,60.859375 L9.47460938,64.5097656 Z M19.0371094,70 C18.9980467,69.8085928 18.9677735,69.6396492 18.9462891,69.4931641 C18.9248046,69.346679 18.9121094,69.1992195 18.9082031,69.0507812 C18.6933583,69.3554703 18.4130877,69.6103505 18.0673828,69.8154297 C17.721678,70.0205088 17.3496114,70.1230469 16.9511719,70.1230469 C16.2910123,70.1230469 15.7880877,69.9541033 15.4423828,69.6162109 C15.096678,69.2783186 14.9238281,68.812503 14.9238281,68.21875 C14.9238281,67.6132782 15.1689429,67.1396501 15.6591797,66.7978516 C16.1494165,66.456053 16.8144489,66.2851562 17.6542969,66.2851562 L18.9082031,66.2851562 L18.9082031,65.6582031 C18.9082031,65.2871075 18.794923,64.9931651 18.5683594,64.7763672 C18.3417957,64.5595692 18.0214864,64.4511719 17.6074219,64.4511719 C17.2363263,64.4511719 16.9345715,64.5458975 16.7021484,64.7353516 C16.4697254,64.9248056 16.3535156,65.1523424 16.3535156,65.4179688 L15.2519531,65.4179688 L15.2402344,65.3828125 C15.2167968,64.9218727 15.434568,64.5000019 15.8935547,64.1171875 C16.3525414,63.7343731 16.9453089,63.5429688 17.671875,63.5429688 C18.3906286,63.5429688 18.9687478,63.7255841 19.40625,64.0908203 C19.8437522,64.4560565 20.0625,64.9824184 20.0625,65.6699219 L20.0625,68.7226562 C20.0625,68.9492199 20.0742186,69.1679677 20.0976562,69.3789062 C20.1210939,69.5898448 20.1640622,69.796874 20.2265625,70 L19.0371094,70 Z M17.1210938,69.15625 C17.5390646,69.15625 17.9160139,69.0488292 18.2519531,68.8339844 C18.5878923,68.6191396 18.8066401,68.3730483 18.9082031,68.0957031 L18.9082031,67.0644531 L17.6132812,67.0644531 C17.1484352,67.0644531 16.7763686,67.1816395 16.4970703,67.4160156 C16.217772,67.6503918 16.078125,67.9257797 16.078125,68.2421875 C16.078125,68.5234389 16.1660147,68.7460929 16.3417969,68.9101562 C16.517579,69.0742196 16.777342,69.15625 17.1210938,69.15625 Z M21.4746094,66.9472656 C21.4746094,65.9277293 21.6923806,65.1054719 22.1279297,64.4804688 C22.5634787,63.8554656 23.1738242,63.5429688 23.9589844,63.5429688 C24.33008,63.5429688 24.6591783,63.6113274 24.9462891,63.7480469 C25.2333999,63.8847663 25.4785146,64.0839831 25.6816406,64.3457031 L25.6816406,60.859375 L26.8359375,60.859375 L26.8359375,70 L25.8925781,70 L25.7578125,69.2207031 C25.5507802,69.5175796 25.2968765,69.7421867 24.9960938,69.8945312 C24.695311,70.0468758 24.3457051,70.1230469 23.9472656,70.1230469 C23.1738243,70.1230469 22.5683616,69.8427762 22.1308594,69.2822266 C21.6933572,68.7216769 21.4746094,67.9843796 21.4746094,67.0703125 L21.4746094,66.9472656 Z M22.6289062,67.0703125 C22.6289062,67.7109407 22.7597643,68.2236309 23.0214844,68.6083984 C23.2832044,68.993166 23.6894504,69.1855469 24.2402344,69.1855469 C24.5839861,69.1855469 24.8730457,69.1074227 25.1074219,68.9511719 C25.341798,68.7949211 25.5332024,68.5761733 25.6816406,68.2949219 L25.6816406,65.3359375 C25.5332024,65.0742174 25.3408215,64.8662117 25.1044922,64.7119141 C24.8681629,64.5576164 24.583986,64.4804688 24.2519531,64.4804688 C23.6972629,64.4804688 23.2880873,64.7089821 23.0244141,65.1660156 C22.7607409,65.6230492 22.6289062,66.2167932 22.6289062,66.9472656 L22.6289062,67.0703125 Z M28.2890625,66.7714844 C28.2890625,65.8339797 28.5429662,65.0615265 29.0507812,64.4541016 C29.5585963,63.8466767 30.2480425,63.5429688 31.1191406,63.5429688 C31.9980513,63.5429688 32.6923803,63.8457001 33.2021484,64.4511719 C33.7119166,65.0566437 33.9667969,65.8300734 33.9667969,66.7714844 L33.9667969,66.9003906 C33.9667969,67.8457079 33.7128932,68.6191376 33.2050781,69.2207031 C32.6972631,69.8222686 32.0058638,70.1230469 31.1308594,70.1230469 C30.255855,70.1230469 29.5634791,69.8212921 29.0537109,69.2177734 C28.5439428,68.6142548 28.2890625,67.8418016 28.2890625,66.9003906 L28.2890625,66.7714844 Z M29.4433594,66.9003906 C29.4433594,67.572269 29.5849595,68.1269509 29.8681641,68.5644531 C30.1513686,69.0019553 30.5722628,69.2207031 31.1308594,69.2207031 C31.6816434,69.2207031 32.0996079,69.0019553 32.3847656,68.5644531 C32.6699233,68.1269509 32.8125,67.572269 32.8125,66.9003906 L32.8125,66.7714844 C32.8125,66.1074186 32.6689467,65.5546897 32.3818359,65.1132812 C32.0947251,64.6718728 31.6738309,64.4511719 31.1191406,64.4511719 C30.5683566,64.4511719 30.1513686,64.6718728 29.8681641,65.1132812 C29.5849595,65.5546897 29.4433594,66.1074186 29.4433594,66.7714844 L29.4433594,66.9003906 Z M37.0019531,67.6914062 L37.1367188,68.4589844 L37.171875,68.4589844 L37.3359375,67.6914062 L38.6015625,63.6601562 L39.5273438,63.6601562 L40.7988281,67.6914062 L40.9804688,68.546875 L41.015625,68.546875 L41.1855469,67.6914062 L42.1816406,63.6601562 L43.3300781,63.6601562 L41.4902344,70 L40.5585938,70 L39.3339844,66.1386719 L39.0703125,65.0605469 L39.0351562,65.0664062 L38.7832031,66.1386719 L37.5761719,70 L36.6445312,70 L34.8046875,63.6601562 L35.953125,63.6601562 L37.0019531,67.6914062 Z M50.0214844,69.2207031 C50.4042988,69.2207031 50.7412095,69.1025402 51.0322266,68.8662109 C51.3232436,68.6298816 51.46875,68.3398455 51.46875,67.9960938 L52.5058594,67.9960938 L52.5175781,68.03125 C52.5371095,68.5781277 52.2939478,69.0634744 51.7880859,69.4873047 C51.282224,69.9111349 50.6933627,70.1230469 50.0214844,70.1230469 C49.0996048,70.1230469 48.3945337,69.8222686 47.90625,69.2207031 C47.4179663,68.6191376 47.1738281,67.8632858 47.1738281,66.953125 L47.1738281,66.7070312 C47.1738281,65.804683 47.4189429,65.0517608 47.9091797,64.4482422 C48.3994165,63.8447235 49.103511,63.5429688 50.0214844,63.5429688 C50.7636756,63.5429688 51.3701148,63.7617166 51.8408203,64.1992188 C52.3115258,64.6367209 52.5390626,65.1738249 52.5234375,65.8105469 L52.5117187,65.8457031 L51.46875,65.8457031 C51.46875,65.4589824 51.3320326,65.1298842 51.0585937,64.8583984 C50.7851549,64.5869127 50.4394552,64.4511719 50.0214844,64.4511719 C49.4160126,64.4511719 48.9833997,64.6689431 48.7236328,65.1044922 C48.4638659,65.5400412 48.3339844,66.0742156 48.3339844,66.7070312 L48.3339844,66.953125 C48.3339844,67.6015657 48.4628893,68.1415994 48.7207031,68.5732422 C48.9785169,69.004885 49.4121063,69.2207031 50.0214844,69.2207031 Z M53.5429687,66.7714844 C53.5429687,65.8339797 53.7968725,65.0615265 54.3046875,64.4541016 C54.8125025,63.8466767 55.5019488,63.5429688 56.3730469,63.5429688 C57.2519575,63.5429688 57.9462865,63.8457001 58.4560547,64.4511719 C58.9658229,65.0566437 59.2207031,65.8300734 59.2207031,66.7714844 L59.2207031,66.9003906 C59.2207031,67.8457079 58.9667994,68.6191376 58.4589844,69.2207031 C57.9511693,69.8222686 57.25977,70.1230469 56.3847656,70.1230469 C55.5097612,70.1230469 54.8173854,69.8212921 54.3076172,69.2177734 C53.797849,68.6142548 53.5429687,67.8418016 53.5429687,66.9003906 L53.5429687,66.7714844 Z M54.6972656,66.9003906 C54.6972656,67.572269 54.8388658,68.1269509 55.1220703,68.5644531 C55.4052749,69.0019553 55.8261691,69.2207031 56.3847656,69.2207031 C56.9355496,69.2207031 57.3535142,69.0019553 57.6386719,68.5644531 C57.9238296,68.1269509 58.0664062,67.572269 58.0664062,66.9003906 L58.0664062,66.7714844 C58.0664062,66.1074186 57.922853,65.5546897 57.6357422,65.1132812 C57.3486314,64.6718728 56.9277371,64.4511719 56.3730469,64.4511719 C55.8222629,64.4511719 55.4052749,64.6718728 55.1220703,65.1132812 C54.8388658,65.5546897 54.6972656,66.1074186 54.6972656,66.7714844 L54.6972656,66.9003906 Z M61.8808594,70 L60.7265625,70 L60.7265625,60.859375 L61.8808594,60.859375 L61.8808594,70 Z M63.3867188,66.7714844 C63.3867188,65.8339797 63.6406225,65.0615265 64.1484375,64.4541016 C64.6562525,63.8466767 65.3456988,63.5429688 66.2167969,63.5429688 C67.0957075,63.5429688 67.7900365,63.8457001 68.2998047,64.4511719 C68.8095729,65.0566437 69.0644531,65.8300734 69.0644531,66.7714844 L69.0644531,66.9003906 C69.0644531,67.8457079 68.8105494,68.6191376 68.3027344,69.2207031 C67.7949193,69.8222686 67.10352,70.1230469 66.2285156,70.1230469 C65.3535112,70.1230469 64.6611354,69.8212921 64.1513672,69.2177734 C63.641599,68.6142548 63.3867188,67.8418016 63.3867188,66.9003906 L63.3867188,66.7714844 Z M64.5410156,66.9003906 C64.5410156,67.572269 64.6826158,68.1269509 64.9658203,68.5644531 C65.2490249,69.0019553 65.6699191,69.2207031 66.2285156,69.2207031 C66.7792996,69.2207031 67.1972642,69.0019553 67.4824219,68.5644531 C67.7675796,68.1269509 67.9101562,67.572269 67.9101562,66.9003906 L67.9101562,66.7714844 C67.9101562,66.1074186 67.766603,65.5546897 67.4794922,65.1132812 C67.1923814,64.6718728 66.7714871,64.4511719 66.2167969,64.4511719 C65.6660129,64.4511719 65.2490249,64.6718728 64.9658203,65.1132812 C64.6826158,65.5546897 64.5410156,66.1074186 64.5410156,66.7714844 L64.5410156,66.9003906 Z M73.4765625,64.6796875 L72.8847656,64.6445312 C72.5800766,64.6445312 72.3232432,64.7167962 72.1142578,64.8613281 C71.9052724,65.0058601 71.7441412,65.2089831 71.6308594,65.4707031 L71.6308594,70 L70.4765625,70 L70.4765625,63.6601562 L71.5078125,63.6601562 L71.6191406,64.5859375 C71.798829,64.2578109 72.0205065,64.001954 72.2841797,63.8183594 C72.5478529,63.6347647 72.8515608,63.5429688 73.1953125,63.5429688 C73.2812504,63.5429688 73.3632809,63.5498046 73.4414062,63.5634766 C73.5195316,63.5771485 73.5839841,63.5917968 73.6347656,63.6074219 L73.4765625,64.6796875 Z M74.8417969,70 L73.6875,70 L73.6875,68.8164062 L74.8417969,68.8164062 L74.8417969,70 Z M74.8417969,64.8671875 L73.6875,64.8671875 L73.6875,63.6835938 L74.8417969,63.6835938 L74.8417969,64.8671875 Z M82.9277344,67.5976562 L81.4335938,67.5976562 L80.9648438,70 L80.0800781,70 L80.5488281,67.5976562 L79.1660156,67.5976562 L79.1660156,66.7773438 L80.7128906,66.7773438 L81.1113281,64.7382812 L79.6113281,64.7382812 L79.6113281,63.90625 L81.2753906,63.90625 L81.7558594,61.46875 L82.640625,61.46875 L82.1601562,63.90625 L83.6542969,63.90625 L84.1347656,61.46875 L85.0195312,61.46875 L84.5390625,63.90625 L85.7050781,63.90625 L85.7050781,64.7382812 L84.3808594,64.7382812 L83.9824219,66.7773438 L85.265625,66.7773438 L85.265625,67.5976562 L83.8183594,67.5976562 L83.3496094,70 L82.4589844,70 L82.9277344,67.5976562 Z M81.5976562,66.7773438 L83.0917969,66.7773438 L83.4902344,64.7382812 L81.9960937,64.7382812 L81.5976562,66.7773438 Z M92.3261719,66.7480469 C92.3261719,67.8378961 92.0849633,68.6728487 91.6025391,69.2529297 C91.1201148,69.8330107 90.4589886,70.1230469 89.6191406,70.1230469 C88.7792927,70.1230469 88.1152368,69.8320342 87.6269531,69.25 C87.1386694,68.6679658 86.8945312,67.8339898 86.8945312,66.7480469 L86.8945312,64.7265625 C86.8945312,63.6406196 87.1376929,62.805667 87.6240234,62.2216797 C88.110354,61.6376924 88.7714802,61.3457031 89.6074219,61.3457031 C90.4472698,61.3457031 91.1103491,61.6376924 91.5966797,62.2216797 C92.0830102,62.805667 92.3261719,63.6406196 92.3261719,64.7265625 L92.3261719,66.7480469 Z M91.171875,64.4804688 C91.171875,63.7421838 91.0380873,63.1865253 90.7705078,62.8134766 C90.5029283,62.4404278 90.1152369,62.2539062 89.6074219,62.2539062 C89.0996068,62.2539062 88.712892,62.4404278 88.4472656,62.8134766 C88.1816393,63.1865253 88.0488281,63.7421838 88.0488281,64.4804688 L88.0488281,66.9824219 C88.0488281,67.7207068 88.1835924,68.2783184 88.453125,68.6552734 C88.7226576,69.0322284 89.1113256,69.2207031 89.6191406,69.2207031 C90.1269557,69.2207031 90.512694,69.033205 90.7763672,68.6582031 C91.0400404,68.2832013 91.171875,67.7246131 91.171875,66.9824219 L91.171875,64.4804688 Z M99.0878906,66.7480469 C99.0878906,67.8378961 98.8466821,68.6728487 98.3642578,69.2529297 C97.8818335,69.8330107 97.2207073,70.1230469 96.3808594,70.1230469 C95.5410114,70.1230469 94.8769556,69.8320342 94.3886719,69.25 C93.9003882,68.6679658 93.65625,67.8339898 93.65625,66.7480469 L93.65625,64.7265625 C93.65625,63.6406196 93.8994116,62.805667 94.3857422,62.2216797 C94.8720727,61.6376924 95.5331989,61.3457031 96.3691406,61.3457031 C97.2089886,61.3457031 97.8720679,61.6376924 98.3583984,62.2216797 C98.844729,62.805667 99.0878906,63.6406196 99.0878906,64.7265625 L99.0878906,66.7480469 Z M97.9335937,64.4804688 C97.9335937,63.7421838 97.799806,63.1865253 97.5322266,62.8134766 C97.2646471,62.4404278 96.8769557,62.2539062 96.3691406,62.2539062 C95.8613256,62.2539062 95.4746107,62.4404278 95.2089844,62.8134766 C94.943358,63.1865253 94.8105469,63.7421838 94.8105469,64.4804688 L94.8105469,66.9824219 C94.8105469,67.7207068 94.9453112,68.2783184 95.2148437,68.6552734 C95.4843763,69.0322284 95.8730443,69.2207031 96.3808594,69.2207031 C96.8886744,69.2207031 97.2744127,69.033205 97.5380859,68.6582031 C97.8017591,68.2832013 97.9335937,67.7246131 97.9335937,66.9824219 L97.9335937,64.4804688 Z M105.849609,66.7480469 C105.849609,67.8378961 105.608401,68.6728487 105.125977,69.2529297 C104.643552,69.8330107 103.982426,70.1230469 103.142578,70.1230469 C102.30273,70.1230469 101.638674,69.8320342 101.150391,69.25 C100.662107,68.6679658 100.417969,67.8339898 100.417969,66.7480469 L100.417969,64.7265625 C100.417969,63.6406196 100.66113,62.805667 101.147461,62.2216797 C101.633791,61.6376924 102.294918,61.3457031 103.130859,61.3457031 C103.970707,61.3457031 104.633787,61.6376924 105.120117,62.2216797 C105.606448,62.805667 105.849609,63.6406196 105.849609,64.7265625 L105.849609,66.7480469 Z M104.695312,64.4804688 C104.695312,63.7421838 104.561525,63.1865253 104.293945,62.8134766 C104.026366,62.4404278 103.638674,62.2539062 103.130859,62.2539062 C102.623044,62.2539062 102.236329,62.4404278 101.970703,62.8134766 C101.705077,63.1865253 101.572266,63.7421838 101.572266,64.4804688 L101.572266,66.9824219 C101.572266,67.7207068 101.70703,68.2783184 101.976562,68.6552734 C102.246095,69.0322284 102.634763,69.2207031 103.142578,69.2207031 C103.650393,69.2207031 104.036131,69.033205 104.299805,68.6582031 C104.563478,68.2832013 104.695312,67.7246131 104.695312,66.9824219 L104.695312,64.4804688 Z M112.611328,66.7480469 C112.611328,67.8378961 112.37012,68.6728487 111.887695,69.2529297 C111.405271,69.8330107 110.744145,70.1230469 109.904297,70.1230469 C109.064449,70.1230469 108.400393,69.8320342 107.912109,69.25 C107.423826,68.6679658 107.179687,67.8339898 107.179687,66.7480469 L107.179687,64.7265625 C107.179687,63.6406196 107.422849,62.805667 107.90918,62.2216797 C108.39551,61.6376924 109.056636,61.3457031 109.892578,61.3457031 C110.732426,61.3457031 111.395505,61.6376924 111.881836,62.2216797 C112.368166,62.805667 112.611328,63.6406196 112.611328,64.7265625 L112.611328,66.7480469 Z M111.457031,64.4804688 C111.457031,63.7421838 111.323244,63.1865253 111.055664,62.8134766 C110.788085,62.4404278 110.400393,62.2539062 109.892578,62.2539062 C109.384763,62.2539062 108.998048,62.4404278 108.732422,62.8134766 C108.466796,63.1865253 108.333984,63.7421838 108.333984,64.4804688 L108.333984,66.9824219 C108.333984,67.7207068 108.468749,68.2783184 108.738281,68.6552734 C109.007814,69.0322284 109.396482,69.2207031 109.904297,69.2207031 C110.412112,69.2207031 110.79785,69.033205 111.061523,68.6582031 C111.325197,68.2832013 111.457031,67.7246131 111.457031,66.9824219 L111.457031,64.4804688 Z M119.373047,66.7480469 C119.373047,67.8378961 119.131838,68.6728487 118.649414,69.2529297 C118.16699,69.8330107 117.505864,70.1230469 116.666016,70.1230469 C115.826168,70.1230469 115.162112,69.8320342 114.673828,69.25 C114.185544,68.6679658 113.941406,67.8339898 113.941406,66.7480469 L113.941406,64.7265625 C113.941406,63.6406196 114.184568,62.805667 114.670898,62.2216797 C115.157229,61.6376924 115.818355,61.3457031 116.654297,61.3457031 C117.494145,61.3457031 118.157224,61.6376924 118.643555,62.2216797 C119.129885,62.805667 119.373047,63.6406196 119.373047,64.7265625 L119.373047,66.7480469 Z M118.21875,64.4804688 C118.21875,63.7421838 118.084962,63.1865253 117.817383,62.8134766 C117.549803,62.4404278 117.162112,62.2539062 116.654297,62.2539062 C116.146482,62.2539062 115.759767,62.4404278 115.494141,62.8134766 C115.228514,63.1865253 115.095703,63.7421838 115.095703,64.4804688 L115.095703,66.9824219 C115.095703,67.7207068 115.230467,68.2783184 115.5,68.6552734 C115.769533,69.0322284 116.158201,69.2207031 116.666016,69.2207031 C117.173831,69.2207031 117.559569,69.033205 117.823242,68.6582031 C118.086915,68.2832013 118.21875,67.7246131 118.21875,66.9824219 L118.21875,64.4804688 Z M126.134766,66.7480469 C126.134766,67.8378961 125.893557,68.6728487 125.411133,69.2529297 C124.928709,69.8330107 124.267582,70.1230469 123.427734,70.1230469 C122.587886,70.1230469 121.923831,69.8320342 121.435547,69.25 C120.947263,68.6679658 120.703125,67.8339898 120.703125,66.7480469 L120.703125,64.7265625 C120.703125,63.6406196 120.946287,62.805667 121.432617,62.2216797 C121.918948,61.6376924 122.580074,61.3457031 123.416016,61.3457031 C124.255864,61.3457031 124.918943,61.6376924 125.405273,62.2216797 C125.891604,62.805667 126.134766,63.6406196 126.134766,64.7265625 L126.134766,66.7480469 Z M124.980469,64.4804688 C124.980469,63.7421838 124.846681,63.1865253 124.579102,62.8134766 C124.311522,62.4404278 123.923831,62.2539062 123.416016,62.2539062 C122.908201,62.2539062 122.521486,62.4404278 122.255859,62.8134766 C121.990233,63.1865253 121.857422,63.7421838 121.857422,64.4804688 L121.857422,66.9824219 C121.857422,67.7207068 121.992186,68.2783184 122.261719,68.6552734 C122.531251,69.0322284 122.919919,69.2207031 123.427734,69.2207031 C123.935549,69.2207031 124.321288,69.033205 124.584961,68.6582031 C124.848634,68.2832013 124.980469,67.7246131 124.980469,66.9824219 L124.980469,64.4804688 Z M128.648437,69.71875 L127.769531,71.5117188 L127.083984,71.5117188 L127.494141,69.6601562 L127.494141,68.7050781 L128.648437,68.7050781 L128.648437,69.71875 Z"></path>
                <path d="M5.70117188,86.8496094 C5.70117188,86.4589824 5.55468896,86.1318373 5.26171875,85.8681641 C4.96874854,85.6044909 4.44922248,85.3828134 3.703125,85.203125 C2.80077674,84.9882802 2.09668222,84.6718771 1.59082031,84.2539062 C1.08495841,83.8359354 0.83203125,83.31055 0.83203125,82.6777344 C0.83203125,82.0136686 1.10448946,81.4589866 1.64941406,81.0136719 C2.19433866,80.5683571 2.90038629,80.3457031 3.76757813,80.3457031 C4.70117654,80.3457031 5.44433317,80.6015599 5.99707031,81.1132812 C6.54980745,81.6250026 6.81640635,82.2187466 6.796875,82.8945312 L6.78515625,82.9296875 L5.68359375,82.9296875 C5.68359375,82.429685 5.51855634,82.0253922 5.18847656,81.7167969 C4.85839679,81.4082016 4.38476871,81.2539062 3.76757813,81.2539062 C3.1933565,81.2539062 2.75293122,81.3837878 2.44628906,81.6435547 C2.1396469,81.9033216 1.98632813,82.2421854 1.98632813,82.6601562 C1.98632813,83.0312519 2.15234209,83.3408191 2.484375,83.5888672 C2.81640791,83.8369153 3.35546502,84.0546866 4.1015625,84.2421875 C5.00000449,84.4648449 5.68359141,84.7929666 6.15234375,85.2265625 C6.62109609,85.6601584 6.85546875,86.1972624 6.85546875,86.8378906 C6.85546875,87.5253941 6.57422156,88.0781229 6.01171875,88.4960938 C5.44921594,88.9140646 4.71484828,89.1230469 3.80859375,89.1230469 C2.95702699,89.1230469 2.20410483,88.8925804 1.54980469,88.4316406 C0.895504541,87.9707008 0.578124902,87.3535195 0.59765625,86.5800781 L0.609375,86.5449219 L1.7109375,86.5449219 C1.7109375,87.0917996 1.91210736,87.5078111 2.31445313,87.7929688 C2.71679889,88.0781264 3.21484078,88.2207031 3.80859375,88.2207031 C4.39062791,88.2207031 4.8515608,88.0976575 5.19140625,87.8515625 C5.5312517,87.6054675 5.70117188,87.2714865 5.70117188,86.8496094 Z M9.47460938,83.5097656 C9.69336047,83.2050766 9.96191247,82.9677743 10.2802734,82.7978516 C10.5986344,82.6279288 10.9511699,82.5429688 11.3378906,82.5429688 C12.0136753,82.5429688 12.5400372,82.7460917 12.9169922,83.1523438 C13.2939472,83.5585958 13.4824219,84.1835895 13.4824219,85.0273438 L13.4824219,89 L12.328125,89 L12.328125,85.015625 C12.328125,84.4921849 12.2158214,84.10547 11.9912109,83.8554688 C11.7666004,83.6054675 11.4316429,83.4804688 10.9863281,83.4804688 C10.666014,83.4804688 10.3759779,83.5556633 10.1162109,83.7060547 C9.85644401,83.8564461 9.64257896,84.0605456 9.47460938,84.3183594 L9.47460938,89 L8.3203125,89 L8.3203125,79.859375 L9.47460938,79.859375 L9.47460938,83.5097656 Z M19.0371094,89 C18.9980467,88.8085928 18.9677735,88.6396492 18.9462891,88.4931641 C18.9248046,88.346679 18.9121094,88.1992195 18.9082031,88.0507812 C18.6933583,88.3554703 18.4130877,88.6103505 18.0673828,88.8154297 C17.721678,89.0205088 17.3496114,89.1230469 16.9511719,89.1230469 C16.2910123,89.1230469 15.7880877,88.9541033 15.4423828,88.6162109 C15.096678,88.2783186 14.9238281,87.812503 14.9238281,87.21875 C14.9238281,86.6132782 15.1689429,86.1396501 15.6591797,85.7978516 C16.1494165,85.456053 16.8144489,85.2851562 17.6542969,85.2851562 L18.9082031,85.2851562 L18.9082031,84.6582031 C18.9082031,84.2871075 18.794923,83.9931651 18.5683594,83.7763672 C18.3417957,83.5595692 18.0214864,83.4511719 17.6074219,83.4511719 C17.2363263,83.4511719 16.9345715,83.5458975 16.7021484,83.7353516 C16.4697254,83.9248056 16.3535156,84.1523424 16.3535156,84.4179688 L15.2519531,84.4179688 L15.2402344,84.3828125 C15.2167968,83.9218727 15.434568,83.5000019 15.8935547,83.1171875 C16.3525414,82.7343731 16.9453089,82.5429688 17.671875,82.5429688 C18.3906286,82.5429688 18.9687478,82.7255841 19.40625,83.0908203 C19.8437522,83.4560565 20.0625,83.9824184 20.0625,84.6699219 L20.0625,87.7226562 C20.0625,87.9492199 20.0742186,88.1679677 20.0976563,88.3789062 C20.1210939,88.5898448 20.1640622,88.796874 20.2265625,89 L19.0371094,89 Z M17.1210938,88.15625 C17.5390646,88.15625 17.9160139,88.0488292 18.2519531,87.8339844 C18.5878923,87.6191396 18.8066401,87.3730483 18.9082031,87.0957031 L18.9082031,86.0644531 L17.6132813,86.0644531 C17.1484352,86.0644531 16.7763686,86.1816395 16.4970703,86.4160156 C16.217772,86.6503918 16.078125,86.9257797 16.078125,87.2421875 C16.078125,87.5234389 16.1660147,87.7460929 16.3417969,87.9101562 C16.517579,88.0742196 16.777342,88.15625 17.1210938,88.15625 Z M21.4746094,85.9472656 C21.4746094,84.9277293 21.6923806,84.1054719 22.1279297,83.4804688 C22.5634787,82.8554656 23.1738242,82.5429688 23.9589844,82.5429688 C24.33008,82.5429688 24.6591783,82.6113274 24.9462891,82.7480469 C25.2333999,82.8847663 25.4785146,83.0839831 25.6816406,83.3457031 L25.6816406,79.859375 L26.8359375,79.859375 L26.8359375,89 L25.8925781,89 L25.7578125,88.2207031 C25.5507802,88.5175796 25.2968765,88.7421867 24.9960938,88.8945312 C24.695311,89.0468758 24.3457051,89.1230469 23.9472656,89.1230469 C23.1738243,89.1230469 22.5683616,88.8427762 22.1308594,88.2822266 C21.6933572,87.7216769 21.4746094,86.9843796 21.4746094,86.0703125 L21.4746094,85.9472656 Z M22.6289063,86.0703125 C22.6289063,86.7109407 22.7597643,87.2236309 23.0214844,87.6083984 C23.2832044,87.993166 23.6894504,88.1855469 24.2402344,88.1855469 C24.5839861,88.1855469 24.8730457,88.1074227 25.1074219,87.9511719 C25.341798,87.7949211 25.5332024,87.5761733 25.6816406,87.2949219 L25.6816406,84.3359375 C25.5332024,84.0742174 25.3408215,83.8662117 25.1044922,83.7119141 C24.8681629,83.5576164 24.583986,83.4804688 24.2519531,83.4804688 C23.6972629,83.4804688 23.2880873,83.7089821 23.0244141,84.1660156 C22.7607409,84.6230492 22.6289063,85.2167932 22.6289063,85.9472656 L22.6289063,86.0703125 Z M28.2890625,85.7714844 C28.2890625,84.8339797 28.5429662,84.0615265 29.0507813,83.4541016 C29.5585963,82.8466767 30.2480425,82.5429688 31.1191406,82.5429688 C31.9980513,82.5429688 32.6923803,82.8457001 33.2021484,83.4511719 C33.7119166,84.0566437 33.9667969,84.8300734 33.9667969,85.7714844 L33.9667969,85.9003906 C33.9667969,86.8457079 33.7128932,87.6191376 33.2050781,88.2207031 C32.6972631,88.8222686 32.0058638,89.1230469 31.1308594,89.1230469 C30.255855,89.1230469 29.5634791,88.8212921 29.0537109,88.2177734 C28.5439428,87.6142548 28.2890625,86.8418016 28.2890625,85.9003906 L28.2890625,85.7714844 Z M29.4433594,85.9003906 C29.4433594,86.572269 29.5849595,87.1269509 29.8681641,87.5644531 C30.1513686,88.0019553 30.5722628,88.2207031 31.1308594,88.2207031 C31.6816434,88.2207031 32.0996079,88.0019553 32.3847656,87.5644531 C32.6699233,87.1269509 32.8125,86.572269 32.8125,85.9003906 L32.8125,85.7714844 C32.8125,85.1074186 32.6689467,84.5546897 32.3818359,84.1132812 C32.0947251,83.6718728 31.6738309,83.4511719 31.1191406,83.4511719 C30.5683566,83.4511719 30.1513686,83.6718728 29.8681641,84.1132812 C29.5849595,84.5546897 29.4433594,85.1074186 29.4433594,85.7714844 L29.4433594,85.9003906 Z M37.0019531,86.6914062 L37.1367188,87.4589844 L37.171875,87.4589844 L37.3359375,86.6914062 L38.6015625,82.6601562 L39.5273438,82.6601562 L40.7988281,86.6914062 L40.9804688,87.546875 L41.015625,87.546875 L41.1855469,86.6914062 L42.1816406,82.6601562 L43.3300781,82.6601562 L41.4902344,89 L40.5585938,89 L39.3339844,85.1386719 L39.0703125,84.0605469 L39.0351562,84.0664062 L38.7832031,85.1386719 L37.5761719,89 L36.6445312,89 L34.8046875,82.6601562 L35.953125,82.6601562 L37.0019531,86.6914062 Z M47.1738281,85.7714844 C47.1738281,84.8339797 47.4277318,84.0615265 47.9355469,83.4541016 C48.4433619,82.8466767 49.1328081,82.5429688 50.0039063,82.5429688 C50.8828169,82.5429688 51.5771459,82.8457001 52.0869141,83.4511719 C52.5966822,84.0566437 52.8515625,84.8300734 52.8515625,85.7714844 L52.8515625,85.9003906 C52.8515625,86.8457079 52.5976588,87.6191376 52.0898438,88.2207031 C51.5820287,88.8222686 50.8906294,89.1230469 50.015625,89.1230469 C49.1406206,89.1230469 48.4482447,88.8212921 47.9384766,88.2177734 C47.4287084,87.6142548 47.1738281,86.8418016 47.1738281,85.9003906 L47.1738281,85.7714844 Z M48.328125,85.9003906 C48.328125,86.572269 48.4697251,87.1269509 48.7529297,87.5644531 C49.0361342,88.0019553 49.4570285,88.2207031 50.015625,88.2207031 C50.566409,88.2207031 50.9843736,88.0019553 51.2695312,87.5644531 C51.5546889,87.1269509 51.6972656,86.572269 51.6972656,85.9003906 L51.6972656,85.7714844 C51.6972656,85.1074186 51.5537124,84.5546897 51.2666016,84.1132812 C50.9794908,83.6718728 50.5585965,83.4511719 50.0039062,83.4511719 C49.4531222,83.4511719 49.0361342,83.6718728 48.7529297,84.1132812 C48.4697251,84.5546897 48.328125,85.1074186 48.328125,85.7714844 L48.328125,85.9003906 Z M59.6660156,86.0703125 C59.6660156,86.9843796 59.4472678,87.7216769 59.0097656,88.2822266 C58.5722634,88.8427762 57.9687538,89.1230469 57.1992188,89.1230469 C56.8085918,89.1230469 56.4658218,89.0576178 56.1708984,88.9267578 C55.8759751,88.7958978 55.625001,88.5996107 55.4179688,88.3378906 L55.4179688,91.4375 L54.2636719,91.4375 L54.2636719,82.6601562 L55.1484375,82.6601562 L55.3300781,83.4804688 C55.5371104,83.1757797 55.7949203,82.9433602 56.1035156,82.7832031 C56.4121109,82.6230461 56.7714823,82.5429688 57.1816406,82.5429688 C57.9668008,82.5429688 58.5771463,82.8544891 59.0126953,83.4775391 C59.4482444,84.1005891 59.6660156,84.923823 59.6660156,85.9472656 L59.6660156,86.0703125 Z M58.5117188,85.9472656 C58.5117188,85.228512 58.3701186,84.6376976 58.0869141,84.1748047 C57.8037095,83.7119117 57.3867215,83.4804688 56.8359375,83.4804688 C56.5039046,83.4804688 56.2207043,83.5556633 55.9863281,83.7060547 C55.751952,83.8564461 55.5625007,84.0624987 55.4179688,84.3242188 L55.4179688,87.3886719 C55.5625007,87.6503919 55.751952,87.8544915 55.9863281,88.0009766 C56.2207043,88.1474617 56.5078108,88.2207031 56.8476562,88.2207031 C57.394534,88.2207031 57.8085923,88.0205098 58.0898438,87.6201172 C58.3710952,87.2197246 58.5117188,86.7031282 58.5117188,86.0703125 L58.5117188,85.9472656 Z M64.9804688,89 C64.9414061,88.8085928 64.9111329,88.6396492 64.8896484,88.4931641 C64.868164,88.346679 64.8554688,88.1992195 64.8515625,88.0507812 C64.6367177,88.3554703 64.356447,88.6103505 64.0107422,88.8154297 C63.6650373,89.0205088 63.2929707,89.1230469 62.8945312,89.1230469 C62.2343717,89.1230469 61.731447,88.9541033 61.3857422,88.6162109 C61.0400373,88.2783186 60.8671875,87.812503 60.8671875,87.21875 C60.8671875,86.6132782 61.1123022,86.1396501 61.6025391,85.7978516 C62.0927759,85.456053 62.7578083,85.2851562 63.5976562,85.2851562 L64.8515625,85.2851562 L64.8515625,84.6582031 C64.8515625,84.2871075 64.7382824,83.9931651 64.5117188,83.7763672 C64.2851551,83.5595692 63.9648458,83.4511719 63.5507812,83.4511719 C63.1796856,83.4511719 62.8779308,83.5458975 62.6455078,83.7353516 C62.4130848,83.9248056 62.296875,84.1523424 62.296875,84.4179688 L61.1953125,84.4179688 L61.1835938,84.3828125 C61.1601561,83.9218727 61.3779274,83.5000019 61.8369141,83.1171875 C62.2959007,82.7343731 62.8886682,82.5429688 63.6152344,82.5429688 C64.333988,82.5429688 64.9121072,82.7255841 65.3496094,83.0908203 C65.7871116,83.4560565 66.0058594,83.9824184 66.0058594,84.6699219 L66.0058594,87.7226562 C66.0058594,87.9492199 66.017578,88.1679677 66.0410156,88.3789062 C66.0644532,88.5898448 66.1074216,88.796874 66.1699219,89 L64.9804688,89 Z M63.0644531,88.15625 C63.482424,88.15625 63.8593733,88.0488292 64.1953125,87.8339844 C64.5312517,87.6191396 64.7499995,87.3730483 64.8515625,87.0957031 L64.8515625,86.0644531 L63.5566406,86.0644531 C63.0917946,86.0644531 62.719728,86.1816395 62.4404297,86.4160156 C62.1611314,86.6503918 62.0214844,86.9257797 62.0214844,87.2421875 C62.0214844,87.5234389 62.1093741,87.7460929 62.2851563,87.9101562 C62.4609384,88.0742196 62.7207014,88.15625 63.0644531,88.15625 Z M70.2597656,88.2207031 C70.64258,88.2207031 70.9794907,88.1025402 71.2705078,87.8662109 C71.5615249,87.6298816 71.7070312,87.3398455 71.7070312,86.9960938 L72.7441406,86.9960938 L72.7558594,87.03125 C72.7753907,87.5781277 72.5322291,88.0634744 72.0263672,88.4873047 C71.5205053,88.9111349 70.931644,89.1230469 70.2597656,89.1230469 C69.337886,89.1230469 68.6328149,88.8222686 68.1445312,88.2207031 C67.6562476,87.6191376 67.4121094,86.8632858 67.4121094,85.953125 L67.4121094,85.7070312 C67.4121094,84.804683 67.6572241,84.0517608 68.1474609,83.4482422 C68.6376978,82.8447235 69.3417923,82.5429688 70.2597656,82.5429688 C71.0019568,82.5429688 71.6083961,82.7617166 72.0791016,83.1992188 C72.549807,83.6367209 72.7773438,84.1738249 72.7617188,84.8105469 L72.75,84.8457031 L71.7070312,84.8457031 C71.7070312,84.4589824 71.5703139,84.1298842 71.296875,83.8583984 C71.0234361,83.5869127 70.6777365,83.4511719 70.2597656,83.4511719 C69.6542938,83.4511719 69.221681,83.6689431 68.9619141,84.1044922 C68.7021471,84.5400412 68.5722656,85.0742156 68.5722656,85.7070312 L68.5722656,85.953125 C68.5722656,86.6015657 68.7011706,87.1415994 68.9589844,87.5732422 C69.2167982,88.004885 69.6503876,88.2207031 70.2597656,88.2207031 Z M75.2988281,89 L74.1445313,89 L74.1445313,82.6601562 L75.2988281,82.6601562 L75.2988281,89 Z M75.2988281,81.0371094 L74.1445313,81.0371094 L74.1445313,79.859375 L75.2988281,79.859375 L75.2988281,81.0371094 Z M78.5976563,81.1308594 L78.5976563,82.6601562 L79.7988281,82.6601562 L79.7988281,83.515625 L78.5976563,83.515625 L78.5976563,87.3652344 C78.5976563,87.6621109 78.6591791,87.8710931 78.7822266,87.9921875 C78.9052741,88.1132819 79.0683584,88.1738281 79.2714844,88.1738281 C79.337891,88.1738281 79.4111324,88.1660157 79.4912109,88.1503906 C79.5712895,88.1347655 79.6425778,88.1152345 79.7050781,88.0917969 L79.8574219,88.8828125 C79.7714839,88.9531254 79.6455086,89.010742 79.4794922,89.0556641 C79.3134757,89.1005862 79.1464852,89.1230469 78.9785156,89.1230469 C78.5097633,89.1230469 78.1367201,88.9814467 77.859375,88.6982422 C77.5820299,88.4150376 77.4433594,87.9707062 77.4433594,87.3652344 L77.4433594,83.515625 L76.4355469,83.515625 L76.4355469,82.6601562 L77.4433594,82.6601562 L77.4433594,81.1308594 L78.5976563,81.1308594 Z M83.1621094,86.6503906 L83.3671875,87.4472656 L83.4023438,87.4472656 L84.9609375,82.6601562 L86.2441406,82.6601562 L83.578125,89.9726562 C83.4179679,90.3984396 83.1884781,90.7695297 82.8896484,91.0859375 C82.5908188,91.4023453 82.1875025,91.5605469 81.6796875,91.5605469 C81.585937,91.5605469 81.4667976,91.5498048 81.3222656,91.5283203 C81.1777337,91.5068358 81.0664066,91.4863282 80.9882813,91.4667969 L81.1054688,90.5585938 C81.0820311,90.5546875 81.1513664,90.5585937 81.3134766,90.5703125 C81.4755867,90.5820313 81.5781248,90.5878906 81.6210938,90.5878906 C81.8671887,90.5878906 82.0683586,90.4785167 82.2246094,90.2597656 C82.3808602,90.0410145 82.5117182,89.7988295 82.6171875,89.5332031 L82.8925781,88.8710938 L80.5371094,82.6601562 L81.8261719,82.6601562 L83.1621094,86.6503906 Z M87.5507813,89 L86.3964844,89 L86.3964844,87.8164062 L87.5507813,87.8164062 L87.5507813,89 Z M87.5507813,83.8671875 L86.3964844,83.8671875 L86.3964844,82.6835938 L87.5507813,82.6835938 L87.5507813,83.8671875 Z M95.4550781,89 L94.3007813,89 L94.3007813,81.59375 L92.5546875,81.6171875 L92.5546875,80.7851562 L95.4550781,80.46875 L95.4550781,89 Z M102.175781,80.3457031 C102.468751,80.3457031 102.758788,80.3789059 103.045898,80.4453125 C103.333009,80.5117191 103.570312,80.5957026 103.757813,80.6972656 L103.511719,81.5820312 C103.320312,81.4843745 103.120118,81.4052737 102.911133,81.3447266 C102.702147,81.2841794 102.457033,81.2539062 102.175781,81.2539062 C101.566403,81.2539062 101.075197,81.4980444 100.702148,81.9863281 C100.3291,82.4746118 100.142578,83.1113242 100.142578,83.8964844 L100.142578,84.03125 C100.392579,83.8124989 100.678709,83.6416022 101.000977,83.5185547 C101.323244,83.3955072 101.66992,83.3339844 102.041016,83.3339844 C102.802738,83.3339844 103.410154,83.5976536 103.863281,84.125 C104.316409,84.6523464 104.542969,85.3203085 104.542969,86.1289062 C104.542969,87.0117232 104.30176,87.7314425 103.819336,88.2880859 C103.336912,88.8447293 102.693363,89.1230469 101.888672,89.1230469 C101.05273,89.1230469 100.361331,88.8203155 99.8144531,88.2148438 C99.2675754,87.609372 98.9941406,86.7558649 98.9941406,85.6542969 L98.9941406,84.0253906 C98.9941406,82.9316352 99.2988251,82.0449253 99.9082031,81.3652344 C100.517581,80.6855435 101.273433,80.3457031 102.175781,80.3457031 Z M101.783203,84.1953125 C101.38867,84.1953125 101.052736,84.2753898 100.775391,84.4355469 C100.498045,84.5957039 100.28711,84.8085924 100.142578,85.0742188 L100.142578,85.765625 C100.142578,86.5507852 100.308592,87.1562479 100.640625,87.5820312 C100.972658,88.0078146 101.388669,88.2207031 101.888672,88.2207031 C102.36133,88.2207031 102.729491,88.0205098 102.993164,87.6201172 C103.256837,87.2197246 103.388672,86.7226592 103.388672,86.1289062 C103.388672,85.5664034 103.247072,85.1035174 102.963867,84.7402344 C102.680663,84.3769513 102.287112,84.1953125 101.783203,84.1953125 Z M105.585938,82.109375 C105.585938,81.6132788 105.746092,81.1953142 106.066406,80.8554688 C106.38672,80.5156233 106.81445,80.3457031 107.349609,80.3457031 C107.884768,80.3457031 108.312498,80.5146467 108.632813,80.8525391 C108.953127,81.1904314 109.113281,81.6093725 109.113281,82.109375 L109.113281,82.5605469 C109.113281,83.0566431 108.954103,83.4726546 108.635742,83.8085938 C108.317381,84.1445329 107.892581,84.3125 107.361328,84.3125 C106.822263,84.3125 106.391603,84.1445329 106.069336,83.8085938 C105.747069,83.4726546 105.585938,83.0566431 105.585938,82.5605469 L105.585938,82.109375 Z M106.441406,82.5605469 C106.441406,82.8496108 106.520507,83.0947256 106.678711,83.2958984 C106.836915,83.4970713 107.064452,83.5976562 107.361328,83.5976562 C107.646486,83.5976562 107.867187,83.4980479 108.023438,83.2988281 C108.179688,83.0996084 108.257813,82.8535171 108.257813,82.5605469 L108.257813,82.109375 C108.257813,81.8203111 108.178712,81.5732432 108.020508,81.3681641 C107.862304,81.1630849 107.638673,81.0605469 107.349609,81.0605469 C107.056639,81.0605469 106.832032,81.1630849 106.675781,81.3681641 C106.51953,81.5732432 106.441406,81.8203111 106.441406,82.109375 L106.441406,82.5605469 Z M109.716797,86.9082031 C109.716797,86.4121069 109.876952,85.9951189 110.197266,85.6572266 C110.51758,85.3193342 110.94531,85.1503906 111.480469,85.1503906 C112.011721,85.1503906 112.438475,85.3193342 112.760742,85.6572266 C113.083009,85.9951189 113.244141,86.4121069 113.244141,86.9082031 L113.244141,87.3652344 C113.244141,87.8652369 113.083986,88.2832014 112.763672,88.6191406 C112.443358,88.9550798 112.019534,89.1230469 111.492188,89.1230469 C110.953122,89.1230469 110.522463,88.9550798 110.200195,88.6191406 C109.877928,88.2832014 109.716797,87.8652369 109.716797,87.3652344 L109.716797,86.9082031 Z M110.572266,87.3652344 C110.572266,87.6582046 110.651366,87.9052724 110.80957,88.1064453 C110.967774,88.3076182 111.195311,88.4082031 111.492188,88.4082031 C111.777345,88.4082031 111.998046,88.3076182 112.154297,88.1064453 C112.310548,87.9052724 112.388672,87.6582046 112.388672,87.3652344 L112.388672,86.9082031 C112.388672,86.6191392 112.308595,86.3730479 112.148438,86.1699219 C111.98828,85.9667959 111.765626,85.8652344 111.480469,85.8652344 C111.191405,85.8652344 110.967774,85.9667959 110.80957,86.1699219 C110.651366,86.3730479 110.572266,86.6191392 110.572266,86.9082031 L110.572266,87.3652344 Z M107.660156,88.3554688 L107.021484,87.9628906 L111.1875,81.2949219 L111.826172,81.6875 L107.660156,88.3554688 Z"></path>
            </g>
            <g transform="translate(400.500000, 165.000000) rotate(-180.000000) translate(-400.500000, -165.000000) translate(390.000000, 115.000000)">
                <path d="M1,49.5 L21,49.5" stroke="#EC407A"></path>
                <g transform="translate(14.000000, 46.000000)">
                    <g>
                        <g fill="#FFFFFF">
                            <polygon points="7 3.5 0 7 0 0"></polygon>
                        </g>
                        <polygon stroke="#EC407A" points="5.88196601 3.5 0.5 0.809016994 0.5 6.19098301"></polygon>
                    </g>
                </g>
                <path d="M0.75,0.5 L0.75,99.5" stroke="#F0367A" stroke-linecap="square"></path>
            </g>
        </g>
    </g>
</svg>