<?xml version="1.0" encoding="utf-8"?>
<!-- Generator: Adobe Illustrator 21.0.2, SVG Export Plug-In . SVG Version: 6.00 Build 0)  -->
<svg version="1.1" id="Layer_1" xmlns="http://www.w3.org/2000/svg" xmlns:xlink="http://www.w3.org/1999/xlink" x="0px" y="0px"
	 width="511px" height="1050px" viewBox="0 0 511 1050" style="enable-background:new 0 0 511 1050;" xml:space="preserve">
<style type="text/css">
	.st0{filter:url(#filter-2);}
	.st1{fill:#FFFFFF;stroke:#E0E0E0;}
	.st2{filter:url(#filter-4);}
	.st3{filter:url(#filter-6);}
	.st4{fill:#F9CD94;}
	.st5{enable-background:new    ;}
	.st6{fill:#333333;}
	.st7{filter:url(#filter-8);}
	.st8{filter:url(#filter-10);}
	.st9{fill:none;stroke:#EC407A;}
	.st10{fill:#F0407B;}
	.st11{filter:url(#filter-12);}
	.st12{filter:url(#filter-14);}
	.st13{filter:url(#filter-16);}
	.st14{filter:url(#filter-18);}
	.st15{fill:#9E9E9E;}
</style>
<filter  filterUnits="objectBoundingBox" height="107.7%" id="filter-8" width="105.7%" x="-2.9%" y="-5.6%">
	<feMorphology  in="SourceAlpha" operator="dilate" radius="0.5" result="shadowSpreadOuter1"></feMorphology>
	<feOffset  dx="0" dy="-3" in="shadowSpreadOuter1" result="shadowOffsetOuter1"></feOffset>
	<feGaussianBlur  in="shadowOffsetOuter1" result="shadowBlurOuter1" stdDeviation="1.5"></feGaussianBlur>
	<feComposite  in="shadowBlurOuter1" in2="SourceAlpha" operator="out" result="shadowBlurOuter1"></feComposite>
	<feColorMatrix  in="shadowBlurOuter1" type="matrix" values="0 0 0 0 0   0 0 0 0 0   0 0 0 0 0  0 0 0 0.16 0"></feColorMatrix>
</filter>
<filter  filterUnits="objectBoundingBox" height="103.3%" id="filter-6" width="105.9%" x="-1.6%" y="-1.7%">
	<feMorphology  in="SourceAlpha" operator="dilate" radius="0.5" result="shadowSpreadOuter1"></feMorphology>
	<feOffset  dx="3" dy="0" in="shadowSpreadOuter1" result="shadowOffsetOuter1"></feOffset>
	<feGaussianBlur  in="shadowOffsetOuter1" result="shadowBlurOuter1" stdDeviation="1.5"></feGaussianBlur>
	<feComposite  in="shadowBlurOuter1" in2="SourceAlpha" operator="out" result="shadowBlurOuter1"></feComposite>
	<feColorMatrix  in="shadowBlurOuter1" type="matrix" values="0 0 0 0 0   0 0 0 0 0   0 0 0 0 0  0 0 0 0.16 0"></feColorMatrix>
</filter>
<filter  filterUnits="objectBoundingBox" height="107.8%" id="filter-4" width="105.7%" x="-2.9%" y="-2.2%">
	<feMorphology  in="SourceAlpha" operator="dilate" radius="0.5" result="shadowSpreadOuter1"></feMorphology>
	<feOffset  dx="0" dy="3" in="shadowSpreadOuter1" result="shadowOffsetOuter1"></feOffset>
	<feGaussianBlur  in="shadowOffsetOuter1" result="shadowBlurOuter1" stdDeviation="1.5"></feGaussianBlur>
	<feComposite  in="shadowBlurOuter1" in2="SourceAlpha" operator="out" result="shadowBlurOuter1"></feComposite>
	<feColorMatrix  in="shadowBlurOuter1" type="matrix" values="0 0 0 0 0   0 0 0 0 0   0 0 0 0 0  0 0 0 0.16 0"></feColorMatrix>
</filter>
<filter  filterUnits="objectBoundingBox" height="107.8%" id="filter-2" width="105.7%" x="-2.9%" y="-2.2%">
	<feMorphology  in="SourceAlpha" operator="dilate" radius="0.5" result="shadowSpreadOuter1"></feMorphology>
	<feOffset  dx="0" dy="3" in="shadowSpreadOuter1" result="shadowOffsetOuter1"></feOffset>
	<feGaussianBlur  in="shadowOffsetOuter1" result="shadowBlurOuter1" stdDeviation="1.5"></feGaussianBlur>
	<feComposite  in="shadowBlurOuter1" in2="SourceAlpha" operator="out" result="shadowBlurOuter1"></feComposite>
	<feColorMatrix  in="shadowBlurOuter1" type="matrix" values="0 0 0 0 0   0 0 0 0 0   0 0 0 0 0  0 0 0 0.16 0"></feColorMatrix>
</filter>
<filter  filterUnits="objectBoundingBox" height="105.5%" id="filter-18" width="108.1%" x="-5.9%" y="-2.7%">
	<feMorphology  in="SourceAlpha" operator="dilate" radius="0.5" result="shadowSpreadOuter1"></feMorphology>
	<feOffset  dx="-3" dy="0" in="shadowSpreadOuter1" result="shadowOffsetOuter1"></feOffset>
	<feGaussianBlur  in="shadowOffsetOuter1" result="shadowBlurOuter1" stdDeviation="1.5"></feGaussianBlur>
	<feComposite  in="shadowBlurOuter1" in2="SourceAlpha" operator="out" result="shadowBlurOuter1"></feComposite>
	<feColorMatrix  in="shadowBlurOuter1" type="matrix" values="0 0 0 0 0   0 0 0 0 0   0 0 0 0 0  0 0 0 0.16 0"></feColorMatrix>
</filter>
<filter  filterUnits="objectBoundingBox" height="105.6%" id="filter-16" width="108.1%" x="-5.9%" y="-2.8%">
	<feMorphology  in="SourceAlpha" operator="dilate" radius="0.5" result="shadowSpreadOuter1"></feMorphology>
	<feOffset  dx="-3" dy="0" in="shadowSpreadOuter1" result="shadowOffsetOuter1"></feOffset>
	<feGaussianBlur  in="shadowOffsetOuter1" result="shadowBlurOuter1" stdDeviation="1.5"></feGaussianBlur>
	<feComposite  in="shadowBlurOuter1" in2="SourceAlpha" operator="out" result="shadowBlurOuter1"></feComposite>
	<feColorMatrix  in="shadowBlurOuter1" type="matrix" values="0 0 0 0 0   0 0 0 0 0   0 0 0 0 0  0 0 0 0.16 0"></feColorMatrix>
</filter>
<filter  filterUnits="objectBoundingBox" height="105.5%" id="filter-14" width="108.1%" x="-2.2%" y="-2.7%">
	<feMorphology  in="SourceAlpha" operator="dilate" radius="0.5" result="shadowSpreadOuter1"></feMorphology>
	<feOffset  dx="3" dy="0" in="shadowSpreadOuter1" result="shadowOffsetOuter1"></feOffset>
	<feGaussianBlur  in="shadowOffsetOuter1" result="shadowBlurOuter1" stdDeviation="1.5"></feGaussianBlur>
	<feComposite  in="shadowBlurOuter1" in2="SourceAlpha" operator="out" result="shadowBlurOuter1"></feComposite>
	<feColorMatrix  in="shadowBlurOuter1" type="matrix" values="0 0 0 0 0   0 0 0 0 0   0 0 0 0 0  0 0 0 0.16 0"></feColorMatrix>
</filter>
<filter  filterUnits="objectBoundingBox" height="105.6%" id="filter-12" width="108.1%" x="-2.2%" y="-2.8%">
	<feMorphology  in="SourceAlpha" operator="dilate" radius="0.5" result="shadowSpreadOuter1"></feMorphology>
	<feOffset  dx="3" dy="0" in="shadowSpreadOuter1" result="shadowOffsetOuter1"></feOffset>
	<feGaussianBlur  in="shadowOffsetOuter1" result="shadowBlurOuter1" stdDeviation="1.5"></feGaussianBlur>
	<feComposite  in="shadowBlurOuter1" in2="SourceAlpha" operator="out" result="shadowBlurOuter1"></feComposite>
	<feColorMatrix  in="shadowBlurOuter1" type="matrix" values="0 0 0 0 0   0 0 0 0 0   0 0 0 0 0  0 0 0 0.16 0"></feColorMatrix>
</filter>
<filter  filterUnits="objectBoundingBox" height="107.7%" id="filter-10" width="105.7%" x="-2.9%" y="-5.6%">
	<feMorphology  in="SourceAlpha" operator="dilate" radius="0.5" result="shadowSpreadOuter1"></feMorphology>
	<feOffset  dx="0" dy="-3" in="shadowSpreadOuter1" result="shadowOffsetOuter1"></feOffset>
	<feGaussianBlur  in="shadowOffsetOuter1" result="shadowBlurOuter1" stdDeviation="1.5"></feGaussianBlur>
	<feComposite  in="shadowBlurOuter1" in2="SourceAlpha" operator="out" result="shadowBlurOuter1"></feComposite>
	<feColorMatrix  in="shadowBlurOuter1" type="matrix" values="0 0 0 0 0   0 0 0 0 0   0 0 0 0 0  0 0 0 0.16 0"></feColorMatrix>
</filter>
<title>Popover-pointer-size-placement</title>
<desc>Created with Sketch.</desc>
<g id="_x2A_Document_x2A_">
	<g id="_x32__x29_-Specs-_x26_-States" transform="translate(-426.000000, -1941.000000)">
		<g id="Popover-pointer-size-placement" transform="translate(429.000000, 1938.000000)">
			<g id="Fill-227-Copy-7">
				<g class="st0">
					<polygon id="path-1_2_" points="38.5,692.4 30.3,684 22.1,692.4 10,692.4 10,711.2 10,729.6 10,853 237,853 237,692.4 					"/>
				</g>
				<g>
					<polygon id="path-1_1_" class="st1" points="38.5,692.4 30.3,684 22.1,692.4 10,692.4 10,711.2 10,729.6 10,853 237,853 
						237,692.4 					"/>
				</g>
			</g>
			<g id="Fill-227-Copy-8" transform="translate(382.000000, 768.500000) scale(-1, 1) translate(-382.000000, -768.500000) ">
				<g class="st2">
					<polygon id="path-3_2_" points="296.4,692.4 288.3,684 280.1,692.4 268,692.4 268,711.2 268,729.6 268,853 496,853 496,692.4 
											"/>
				</g>
				<g>
					<polygon id="path-3_1_" class="st1" points="296.4,692.4 288.3,684 280.1,692.4 268,692.4 268,711.2 268,729.6 268,853 
						496,853 496,692.4 					"/>
				</g>
			</g>
			
				<g id="Fill-227-Copy-12" transform="translate(228.500000, 137.500000) rotate(-270.000000) translate(-228.500000, -137.500000) ">
				<g class="st3">
					<polygon id="path-5_2_" points="146.4,-48.6 138.3,-57 130.1,-48.6 118,-48.6 118,-29.7 118,-11.3 118,332 339,332 339,-48.6 
											"/>
				</g>
				<g>
					<polygon id="path-5_1_" class="st1" points="146.4,-48.6 138.3,-57 130.1,-48.6 118,-48.6 118,-29.7 118,-11.3 118,332 
						339,332 339,-48.6 					"/>
				</g>
			</g>
			<g id="specs-_x2F_-spacing-_x2F_-internal-_x2F_-H-12px" transform="translate(314.000000, 27.000000)">
				<rect id="Rectangle-3-Copy" class="st4" width="100" height="12"/>
				<g class="st5">
					<path class="st6" d="M47.3,11h-1.1V3.8L44,4.6v-1l3.1-1.2h0.2V11z"/>
					<path class="st6" d="M56,11h-5.6v-0.8l3-3.3c0.4-0.5,0.7-0.9,0.9-1.2s0.2-0.6,0.2-1c0-0.4-0.1-0.8-0.4-1.1s-0.6-0.4-1.1-0.4
						c-0.5,0-1,0.2-1.3,0.5S51.4,4.4,51.4,5h-1.1c0-0.8,0.3-1.4,0.8-1.9s1.2-0.7,2-0.7c0.8,0,1.4,0.2,1.9,0.6s0.7,1,0.7,1.7
						c0,0.8-0.5,1.8-1.6,3l-2.3,2.5H56V11z"/>
				</g>
			</g>
			<g id="Fill-227-Copy-9" transform="translate(383.000000, 962.500000) scale(-1, -1) translate(-383.000000, -962.500000) ">
				<g class="st7">
					<polygon id="path-7_2_" points="297.4,886.4 289.3,878 281.1,886.4 269,886.4 269,905.3 269,923.7 269,1047 497,1047 
						497,886.4 					"/>
				</g>
				<g>
					<polygon id="path-7_1_" class="st1" points="297.4,886.4 289.3,878 281.1,886.4 269,886.4 269,905.3 269,923.7 269,1047 
						497,1047 497,886.4 					"/>
				</g>
			</g>
			<g id="Fill-227-Copy-11" transform="translate(123.500000, 962.500000) scale(1, -1) translate(-123.500000, -962.500000) ">
				<g class="st8">
					<polygon id="path-9_2_" points="38.5,886.4 30.3,878 22.1,886.4 10,886.4 10,905.3 10,923.7 10,1047 237,1047 237,886.4 					
						"/>
				</g>
				<g>
					<polygon id="path-9_1_" class="st1" points="38.5,886.4 30.3,878 22.1,886.4 10,886.4 10,905.3 10,923.7 10,1047 237,1047 
						237,886.4 					"/>
				</g>
			</g>
			
				<g id="specs-_x2F_-redlines-_x2F_-curly-brace" transform="translate(426.500000, 47.500000) scale(-1, 1) rotate(180.000000) translate(-426.500000, -47.500000) translate(423.000000, 39.000000)">
				<path id="Path-2" class="st9" d="M0,0.1c7,0,0,8.4,7,8.4"/>
				<path id="Path-2-Copy" class="st9" d="M0,16.9c7,0,0-8.4,7-8.4"/>
			</g>
			
				<g id="specs-_x2F_-redlines-_x2F_-curly-brace_1_" transform="translate(419.000000, 22.000000) scale(-1, -1) rotate(90.000000) translate(-419.000000, -22.000000) translate(415.000000, 18.000000)">
				<path id="Path-2_1_" class="st9" d="M0,0c8,0,0,4,8,4"/>
				<path id="Path-2-Copy_1_" class="st9" d="M0,8c8,0,0-4,8-4"/>
			</g>
			
				<g id="specs-_x2F_-redlines-_x2F_-curly-brace_2_" transform="translate(421.000000, 152.000000) scale(-1, 1) rotate(-180.000000) translate(-421.000000, -152.000000) translate(417.000000, 56.000000)">
				<path id="Path-2_2_" class="st9" d="M0,0.6C8,0.6,0,96,8,96"/>
				<path id="Path-2-Copy_2_" class="st9" d="M0,191.4c8,0,0-95.4,8-95.4"/>
			</g>
			<g class="st5">
				<path class="st10" d="M415.9,6.7c0,0.4-0.1,0.8-0.3,1.1s-0.5,0.6-0.9,0.8c0.4,0.2,0.8,0.5,1.1,0.8s0.4,0.8,0.4,1.2
					c0,0.7-0.2,1.3-0.7,1.8s-1.2,0.7-2,0.7c-0.8,0-1.5-0.2-2-0.7s-0.7-1-0.7-1.8c0-0.5,0.1-0.9,0.4-1.2s0.6-0.7,1-0.8
					c-0.4-0.2-0.7-0.4-0.9-0.8s-0.3-0.7-0.3-1.1c0-0.7,0.2-1.3,0.7-1.7s1.1-0.6,1.8-0.6c0.8,0,1.4,0.2,1.8,0.6S415.9,6,415.9,6.7z
					 M415,10.7c0-0.5-0.2-0.9-0.5-1.2s-0.7-0.5-1.2-0.5s-0.9,0.1-1.2,0.4s-0.4,0.7-0.4,1.2s0.1,0.9,0.4,1.1s0.7,0.4,1.2,0.4
					c0.5,0,0.9-0.1,1.2-0.4S415,11.2,415,10.7z M413.4,5.2c-0.4,0-0.8,0.1-1,0.4s-0.4,0.6-0.4,1.1c0,0.4,0.1,0.8,0.4,1.1
					s0.6,0.4,1,0.4s0.8-0.1,1-0.4s0.4-0.6,0.4-1.1s-0.1-0.8-0.4-1.1S413.8,5.2,413.4,5.2z"/>
				<path class="st10" d="M422.9,9.9c0,1-0.2,1.7-0.7,2.3s-1,0.9-1.8,0.9c-0.8,0-1.4-0.2-1.8-0.7v3.1h-1.1V6.7h1l0.1,0.7
					c0.4-0.5,1.1-0.8,1.8-0.8c0.8,0,1.4,0.3,1.8,0.9S422.9,8.8,422.9,9.9L422.9,9.9z M421.8,9.8c0-0.7-0.2-1.3-0.5-1.7
					s-0.7-0.6-1.3-0.6c-0.7,0-1.1,0.3-1.5,0.9v3c0.3,0.6,0.8,0.9,1.5,0.9c0.5,0,0.9-0.2,1.2-0.6S421.8,10.6,421.8,9.8z"/>
				<path class="st10" d="M426.4,9l1.4-2.3h1.3L427,9.8l2.1,3.2h-1.3l-1.5-2.4L425,13h-1.3l2.1-3.2l-2.1-3.1h1.3L426.4,9z"/>
			</g>
			<g class="st5">
				<path class="st10" d="M438.3,53h-1.1v-7.2l-2.2,0.8v-1l3.1-1.2h0.2V53z"/>
				<path class="st10" d="M445.7,44.5v0.9h-0.2c-0.8,0-1.5,0.3-2,0.8s-0.8,1.2-0.9,2c0.4-0.5,1.1-0.8,1.8-0.8c0.7,0,1.3,0.3,1.8,0.8
					s0.7,1.2,0.7,2c0,0.9-0.2,1.6-0.7,2.1s-1.1,0.8-1.9,0.8c-0.8,0-1.5-0.3-2-0.9s-0.8-1.4-0.8-2.4v-0.4c0-1.6,0.3-2.8,1-3.6
					s1.7-1.3,3-1.3H445.7z M444.3,48.3c-0.4,0-0.7,0.1-1,0.3s-0.5,0.5-0.7,0.8v0.4c0,0.7,0.2,1.3,0.5,1.7s0.7,0.6,1.2,0.6
					c0.5,0,0.9-0.2,1.2-0.5s0.4-0.8,0.4-1.4c0-0.6-0.1-1.1-0.4-1.4S444.7,48.3,444.3,48.3z"/>
				<path class="st10" d="M453.7,49.9c0,1-0.2,1.7-0.7,2.3s-1,0.9-1.8,0.9c-0.8,0-1.4-0.2-1.8-0.7v3.1h-1.1v-8.8h1l0.1,0.7
					c0.4-0.5,1.1-0.8,1.8-0.8c0.8,0,1.4,0.3,1.8,0.9S453.7,48.8,453.7,49.9L453.7,49.9z M452.6,49.8c0-0.7-0.2-1.3-0.5-1.7
					s-0.7-0.6-1.3-0.6c-0.7,0-1.1,0.3-1.5,0.9v3c0.3,0.6,0.8,0.9,1.5,0.9c0.5,0,0.9-0.2,1.2-0.6S452.6,50.6,452.6,49.8z"/>
				<path class="st10" d="M457.2,49l1.4-2.3h1.3l-2.1,3.1l2.1,3.2h-1.3l-1.5-2.4l-1.5,2.4h-1.3l2.1-3.2l-2.1-3.1h1.3L457.2,49z"/>
			</g>
			<g class="st5">
				<path class="st10" d="M431,157v-8.5h2.4c0.7,0,1.4,0.2,2,0.5s1,0.8,1.3,1.4s0.5,1.3,0.5,2.1v0.5c0,0.8-0.2,1.5-0.5,2.1
					s-0.8,1.1-1.3,1.4s-1.2,0.5-2,0.5H431z M432.1,149.4v6.7h1.2c0.9,0,1.5-0.3,2-0.8c0.5-0.5,0.7-1.3,0.7-2.3v-0.5
					c0-1-0.2-1.7-0.7-2.3c-0.5-0.5-1.1-0.8-1.9-0.8H432.1z"/>
				<path class="st10" d="M440.8,155.4l1.5-4.8h1.2l-2.5,7.3c-0.4,1.1-1,1.6-1.9,1.6l-0.2,0l-0.4-0.1v-0.9l0.3,0
					c0.4,0,0.7-0.1,0.9-0.2s0.4-0.4,0.5-0.8l0.2-0.6l-2.3-6.3h1.2L440.8,155.4z"/>
				<path class="st10" d="M445.4,150.7l0,0.8c0.5-0.6,1.1-0.9,1.9-0.9c1.3,0,2,0.8,2,2.3v4.2h-1.1v-4.2c0-0.5-0.1-0.8-0.3-1
					s-0.5-0.3-1-0.3c-0.4,0-0.7,0.1-0.9,0.3s-0.5,0.4-0.6,0.7v4.5h-1.1v-6.3H445.4z"/>
				<path class="st10" d="M454.9,157c-0.1-0.1-0.1-0.3-0.2-0.7c-0.5,0.5-1.1,0.8-1.8,0.8c-0.6,0-1.1-0.2-1.5-0.5s-0.6-0.8-0.6-1.3
					c0-0.7,0.3-1.2,0.8-1.5s1.2-0.5,2.1-0.5h1.1v-0.5c0-0.4-0.1-0.7-0.3-0.9s-0.6-0.3-1-0.3c-0.4,0-0.7,0.1-1,0.3s-0.4,0.4-0.4,0.7
					h-1.1c0-0.3,0.1-0.6,0.3-0.9s0.5-0.5,0.9-0.7s0.8-0.3,1.3-0.3c0.7,0,1.3,0.2,1.7,0.5s0.6,0.9,0.6,1.5v2.9c0,0.6,0.1,1,0.2,1.4
					v0.1H454.9z M453.1,156.2c0.3,0,0.7-0.1,1-0.3s0.5-0.4,0.7-0.7v-1.3h-0.8c-1.3,0-2,0.4-2,1.2c0,0.3,0.1,0.6,0.3,0.8
					S452.7,156.2,453.1,156.2z"/>
				<path class="st10" d="M458.5,150.7l0,0.7c0.5-0.5,1.1-0.8,1.9-0.8c0.9,0,1.5,0.3,1.8,1c0.2-0.3,0.5-0.6,0.8-0.7s0.7-0.3,1.2-0.3
					c1.4,0,2.1,0.7,2.1,2.2v4.2h-1.1v-4.2c0-0.5-0.1-0.8-0.3-1s-0.6-0.3-1-0.3c-0.4,0-0.7,0.1-1,0.4s-0.4,0.6-0.5,1v4.2h-1.1v-4.2
					c0-0.9-0.5-1.4-1.4-1.4c-0.7,0-1.2,0.3-1.5,0.9v4.6h-1.1v-6.3H458.5z"/>
				<path class="st10" d="M468,149c0-0.2,0.1-0.3,0.2-0.4s0.3-0.2,0.5-0.2s0.4,0.1,0.5,0.2s0.2,0.3,0.2,0.4s-0.1,0.3-0.2,0.4
					s-0.3,0.2-0.5,0.2s-0.4-0.1-0.5-0.2S468,149.2,468,149z M469.2,157h-1.1v-6.3h1.1V157z"/>
				<path class="st10" d="M473.5,156.2c0.4,0,0.7-0.1,1-0.4s0.4-0.5,0.5-0.9h1c0,0.4-0.1,0.7-0.4,1s-0.5,0.6-0.9,0.8
					s-0.8,0.3-1.2,0.3c-0.9,0-1.5-0.3-2.1-0.9s-0.8-1.4-0.8-2.4v-0.2c0-0.6,0.1-1.2,0.3-1.6s0.6-0.9,1-1.1s0.9-0.4,1.5-0.4
					c0.7,0,1.3,0.2,1.8,0.6s0.7,1,0.8,1.7h-1c0-0.4-0.2-0.7-0.5-1s-0.6-0.4-1-0.4c-0.6,0-1,0.2-1.3,0.6s-0.5,1-0.5,1.7v0.2
					c0,0.7,0.2,1.3,0.5,1.7S472.9,156.2,473.5,156.2z"/>
			</g>
			
				<g id="Fill-227-Copy-10" transform="translate(117.500000, 399.000000) scale(-1, 1) rotate(-270.000000) translate(-117.500000, -399.000000) ">
				<g class="st11">
					<polygon id="path-11_2_" points="65.4,290.4 57.3,282 49.1,290.4 37,290.4 37,309.3 37,327.6 37,516 198,516 198,290.4 					
						"/>
				</g>
				<g>
					<polygon id="path-11_1_" class="st1" points="65.4,290.4 57.3,282 49.1,290.4 37,290.4 37,309.3 37,327.6 37,516 198,516 
						198,290.4 					"/>
				</g>
			</g>
			
				<g id="Fill-227-Copy-12_1_" transform="translate(386.500000, 399.500000) rotate(-270.000000) translate(-386.500000, -399.500000) ">
				<g class="st12">
					<polygon id="path-13_2_" points="334.4,289.5 326.3,281 318.1,289.5 306,289.5 306,308.4 306,326.8 306,518 467,518 467,289.5 
											"/>
				</g>
				<g>
					<polygon id="path-13_1_" class="st1" points="334.4,289.5 326.3,281 318.1,289.5 306,289.5 306,308.4 306,326.8 306,518 
						467,518 467,289.5 					"/>
				</g>
			</g>
			
				<g id="Fill-227-Copy-14" transform="translate(117.500000, 589.000000) scale(-1, -1) rotate(-270.000000) translate(-117.500000, -589.000000) ">
				<g class="st13">
					<polygon id="path-15_2_" points="65.4,480.4 57.3,472 49.1,480.4 37,480.4 37,499.3 37,517.6 37,706 198,706 198,480.4 					
						"/>
				</g>
				<g>
					<polygon id="path-15_1_" class="st1" points="65.4,480.4 57.3,472 49.1,480.4 37,480.4 37,499.3 37,517.6 37,706 198,706 
						198,480.4 					"/>
				</g>
			</g>
			
				<g id="Fill-227-Copy-13" transform="translate(386.500000, 589.500000) scale(1, -1) rotate(-270.000000) translate(-386.500000, -589.500000) ">
				<g class="st14">
					<polygon id="path-17_2_" points="334.4,479.5 326.3,471 318.1,479.5 306,479.5 306,498.4 306,516.8 306,708 467,708 467,479.5 
											"/>
				</g>
				<g>
					<polygon id="path-17_1_" class="st1" points="334.4,479.5 326.3,471 318.1,479.5 306,479.5 306,498.4 306,516.8 306,708 
						467,708 467,479.5 					"/>
				</g>
			</g>
			<g id="specs-_x2F_-redlines-_x2F_-label-title-sm" transform="translate(9.000000, 286.000000)">
				<g class="st5">
					<path class="st15" d="M1.8,7.2V10H0.8V2.9h2.6c0.8,0,1.4,0.2,1.8,0.6s0.7,0.9,0.7,1.6c0,0.7-0.2,1.2-0.6,1.6
						C4.9,7,4.2,7.2,3.4,7.2H1.8z M1.8,6.5h1.7c0.5,0,0.9-0.1,1.2-0.4S5,5.5,5,5.1c0-0.4-0.1-0.8-0.4-1C4.3,3.8,4,3.7,3.5,3.7H1.8
						V6.5z"/>
					<path class="st15" d="M6.7,7.3c0-0.5,0.1-1,0.3-1.4s0.5-0.7,0.8-1s0.8-0.3,1.2-0.3c0.7,0,1.3,0.2,1.7,0.7s0.7,1.2,0.7,2v0.1
						c0,0.5-0.1,1-0.3,1.4c-0.2,0.4-0.5,0.7-0.8,1s-0.8,0.3-1.3,0.3c-0.7,0-1.3-0.2-1.7-0.7S6.7,8.2,6.7,7.3L6.7,7.3z M7.6,7.4
						C7.6,8,7.7,8.5,8,8.8s0.6,0.5,1.1,0.5c0.5,0,0.8-0.2,1.1-0.5c0.3-0.4,0.4-0.9,0.4-1.5c0-0.6-0.1-1-0.4-1.4
						C9.9,5.5,9.5,5.4,9.1,5.4C8.6,5.4,8.3,5.5,8,5.9S7.6,6.8,7.6,7.4z"/>
					<path class="st15" d="M12.6,3.3c0-0.1,0-0.3,0.1-0.4s0.2-0.2,0.4-0.2s0.3,0.1,0.4,0.2s0.1,0.2,0.1,0.4s0,0.3-0.1,0.4
						s-0.2,0.1-0.4,0.1s-0.3,0-0.4-0.1S12.6,3.5,12.6,3.3z M13.6,10h-0.9V4.7h0.9V10z"/>
					<path class="st15" d="M15.9,4.7l0,0.7c0.4-0.5,0.9-0.8,1.6-0.8c1.1,0,1.7,0.6,1.7,1.9V10h-0.9V6.5c0-0.4-0.1-0.7-0.3-0.8
						s-0.4-0.3-0.8-0.3c-0.3,0-0.6,0.1-0.8,0.2S16.1,6,16,6.2V10h-0.9V4.7H15.9z"/>
					<path class="st15" d="M21.8,3.4v1.3h1v0.7h-1v3.3c0,0.2,0,0.4,0.1,0.5c0.1,0.1,0.2,0.2,0.4,0.2c0.1,0,0.2,0,0.4-0.1V10
						c-0.2,0.1-0.5,0.1-0.7,0.1c-0.4,0-0.7-0.1-0.9-0.4s-0.3-0.6-0.3-1V5.4h-1V4.7h1V3.4H21.8z"/>
					<path class="st15" d="M26,10.1c-0.7,0-1.3-0.2-1.7-0.7c-0.4-0.5-0.7-1.1-0.7-1.9V7.3c0-0.5,0.1-1,0.3-1.4
						c0.2-0.4,0.5-0.7,0.8-1c0.4-0.2,0.7-0.3,1.2-0.3c0.7,0,1.2,0.2,1.6,0.7s0.6,1.1,0.6,1.9v0.4h-3.6c0,0.5,0.2,0.9,0.5,1.3
						c0.3,0.3,0.7,0.5,1.1,0.5c0.3,0,0.6-0.1,0.8-0.2s0.4-0.3,0.6-0.5L28,9.1C27.6,9.8,26.9,10.1,26,10.1z M25.9,5.4
						c-0.4,0-0.7,0.1-0.9,0.4c-0.2,0.3-0.4,0.6-0.5,1.1h2.6V6.8c0-0.5-0.1-0.8-0.4-1.1C26.6,5.5,26.3,5.4,25.9,5.4z"/>
					<path class="st15" d="M31.7,5.5c-0.1,0-0.3,0-0.4,0c-0.6,0-1,0.3-1.2,0.8V10h-0.9V4.7H30l0,0.6c0.3-0.5,0.7-0.7,1.3-0.7
						c0.2,0,0.3,0,0.4,0.1V5.5z"/>
					<path class="st15" d="M39.5,7.4c0,0.8-0.2,1.5-0.6,1.9s-0.9,0.7-1.5,0.7c-0.6,0-1.1-0.2-1.5-0.6V12H35V4.7h0.8l0,0.6
						c0.4-0.5,0.9-0.7,1.5-0.7c0.6,0,1.1,0.2,1.5,0.7S39.5,6.5,39.5,7.4L39.5,7.4z M38.6,7.3c0-0.6-0.1-1.1-0.4-1.4s-0.6-0.5-1-0.5
						c-0.5,0-1,0.2-1.2,0.7v2.5c0.3,0.5,0.7,0.7,1.2,0.7c0.4,0,0.8-0.2,1-0.5C38.4,8.5,38.6,8,38.6,7.3z"/>
					<path class="st15" d="M41.6,10h-0.9V2.5h0.9V10z"/>
					<path class="st15" d="M46.3,10c-0.1-0.1-0.1-0.3-0.1-0.6c-0.4,0.4-0.9,0.7-1.5,0.7c-0.5,0-0.9-0.1-1.3-0.4
						c-0.3-0.3-0.5-0.7-0.5-1.1c0-0.5,0.2-1,0.6-1.3c0.4-0.3,1-0.5,1.8-0.5h0.9V6.4c0-0.3-0.1-0.6-0.3-0.8c-0.2-0.2-0.5-0.3-0.8-0.3
						c-0.3,0-0.6,0.1-0.8,0.2S43.9,6,43.9,6.2H43c0-0.3,0.1-0.5,0.3-0.8C43.5,5.2,43.7,5,44,4.8s0.7-0.2,1.1-0.2
						c0.6,0,1.1,0.2,1.4,0.5c0.3,0.3,0.5,0.7,0.5,1.3v2.4c0,0.5,0.1,0.9,0.2,1.2V10H46.3z M44.8,9.3c0.3,0,0.6-0.1,0.8-0.2
						s0.4-0.3,0.6-0.6V7.4h-0.7c-1.1,0-1.7,0.3-1.7,1c0,0.3,0.1,0.5,0.3,0.7S44.5,9.3,44.8,9.3z"/>
					<path class="st15" d="M50.6,9.4c0.3,0,0.6-0.1,0.8-0.3s0.4-0.4,0.4-0.7h0.9c0,0.3-0.1,0.6-0.3,0.9s-0.4,0.5-0.8,0.7
						s-0.7,0.2-1,0.2c-0.7,0-1.3-0.2-1.7-0.7c-0.4-0.5-0.6-1.1-0.6-2V7.3c0-0.5,0.1-1,0.3-1.4S49,5.2,49.3,5s0.8-0.3,1.3-0.3
						c0.6,0,1.1,0.2,1.5,0.5s0.6,0.8,0.6,1.4h-0.9c0-0.3-0.2-0.6-0.4-0.8c-0.2-0.2-0.5-0.3-0.9-0.3c-0.5,0-0.8,0.2-1.1,0.5
						c-0.3,0.3-0.4,0.8-0.4,1.4v0.2c0,0.6,0.1,1.1,0.4,1.4S50.1,9.4,50.6,9.4z"/>
					<path class="st15" d="M55.9,10.1c-0.7,0-1.3-0.2-1.7-0.7c-0.4-0.5-0.7-1.1-0.7-1.9V7.3c0-0.5,0.1-1,0.3-1.4
						c0.2-0.4,0.5-0.7,0.8-1c0.4-0.2,0.7-0.3,1.2-0.3c0.7,0,1.2,0.2,1.6,0.7S58,6.4,58,7.2v0.4h-3.6c0,0.5,0.2,0.9,0.5,1.3
						c0.3,0.3,0.7,0.5,1.1,0.5c0.3,0,0.6-0.1,0.8-0.2s0.4-0.3,0.6-0.5l0.6,0.4C57.5,9.8,56.8,10.1,55.9,10.1z M55.8,5.4
						c-0.4,0-0.7,0.1-0.9,0.4c-0.2,0.3-0.4,0.6-0.5,1.1h2.6V6.8c0-0.5-0.1-0.8-0.4-1.1C56.5,5.5,56.2,5.4,55.8,5.4z"/>
					<path class="st15" d="M59.9,4.7l0,0.6c0.4-0.5,0.9-0.7,1.6-0.7c0.7,0,1.2,0.3,1.5,0.8c0.2-0.3,0.4-0.5,0.7-0.6s0.6-0.2,1-0.2
						c1.2,0,1.7,0.6,1.8,1.8V10h-0.9V6.5c0-0.4-0.1-0.7-0.3-0.8c-0.2-0.2-0.5-0.3-0.9-0.3c-0.3,0-0.6,0.1-0.8,0.3
						c-0.2,0.2-0.4,0.5-0.4,0.8V10h-0.9V6.5c0-0.8-0.4-1.2-1.1-1.2c-0.6,0-1,0.3-1.2,0.8V10H59V4.7H59.9z"/>
					<path class="st15" d="M70,10.1c-0.7,0-1.3-0.2-1.7-0.7c-0.4-0.5-0.7-1.1-0.7-1.9V7.3c0-0.5,0.1-1,0.3-1.4
						c0.2-0.4,0.5-0.7,0.8-1c0.4-0.2,0.7-0.3,1.2-0.3c0.7,0,1.2,0.2,1.6,0.7S72,6.4,72,7.2v0.4h-3.6c0,0.5,0.2,0.9,0.5,1.3
						c0.3,0.3,0.7,0.5,1.1,0.5c0.3,0,0.6-0.1,0.8-0.2s0.4-0.3,0.6-0.5L72,9.1C71.5,9.8,70.9,10.1,70,10.1z M69.9,5.4
						c-0.4,0-0.7,0.1-0.9,0.4c-0.2,0.3-0.4,0.6-0.5,1.1h2.6V6.8c0-0.5-0.1-0.8-0.4-1.1C70.5,5.5,70.2,5.4,69.9,5.4z"/>
					<path class="st15" d="M73.9,4.7l0,0.7c0.4-0.5,0.9-0.8,1.6-0.8c1.1,0,1.7,0.6,1.7,1.9V10h-0.9V6.5c0-0.4-0.1-0.7-0.3-0.8
						s-0.4-0.3-0.8-0.3c-0.3,0-0.6,0.1-0.8,0.2S74.1,6,74,6.2V10h-0.9V4.7H73.9z"/>
					<path class="st15" d="M79.8,3.4v1.3h1v0.7h-1v3.3c0,0.2,0,0.4,0.1,0.5c0.1,0.1,0.2,0.2,0.4,0.2c0.1,0,0.2,0,0.4-0.1V10
						c-0.2,0.1-0.5,0.1-0.7,0.1c-0.4,0-0.7-0.1-0.9-0.4s-0.3-0.6-0.3-1V5.4h-1V4.7h1V3.4H79.8z"/>
					<path class="st15" d="M86.1,8.8l1.3-4.1h0.9L86.4,10h-0.7l-1.9-5.3h0.9L86.1,8.8z"/>
					<path class="st15" d="M92.4,10c-0.1-0.1-0.1-0.3-0.1-0.6c-0.4,0.4-0.9,0.7-1.5,0.7c-0.5,0-0.9-0.1-1.3-0.4
						C89.1,9.4,89,9,89,8.5c0-0.5,0.2-1,0.6-1.3c0.4-0.3,1-0.5,1.8-0.5h0.9V6.4c0-0.3-0.1-0.6-0.3-0.8c-0.2-0.2-0.5-0.3-0.8-0.3
						c-0.3,0-0.6,0.1-0.8,0.2S90,6,90,6.2h-0.9c0-0.3,0.1-0.5,0.3-0.8c0.2-0.2,0.4-0.4,0.8-0.6s0.7-0.2,1.1-0.2
						c0.6,0,1.1,0.2,1.4,0.5c0.3,0.3,0.5,0.7,0.5,1.3v2.4c0,0.5,0.1,0.9,0.2,1.2V10H92.4z M90.9,9.3c0.3,0,0.6-0.1,0.8-0.2
						s0.4-0.3,0.6-0.6V7.4h-0.7c-1.1,0-1.7,0.3-1.7,1c0,0.3,0.1,0.5,0.3,0.7S90.6,9.3,90.9,9.3z"/>
					<path class="st15" d="M97.1,5.5c-0.1,0-0.3,0-0.4,0c-0.6,0-1,0.3-1.2,0.8V10h-0.9V4.7h0.9l0,0.6c0.3-0.5,0.7-0.7,1.3-0.7
						c0.2,0,0.3,0,0.4,0.1V5.5z"/>
					<path class="st15" d="M97.9,3.3c0-0.1,0-0.3,0.1-0.4s0.2-0.2,0.4-0.2s0.3,0.1,0.4,0.2S99,3.2,99,3.3s0,0.3-0.1,0.4
						s-0.2,0.1-0.4,0.1s-0.3,0-0.4-0.1S97.9,3.5,97.9,3.3z M98.9,10H98V4.7h0.9V10z"/>
					<path class="st15" d="M103.6,10c-0.1-0.1-0.1-0.3-0.1-0.6c-0.4,0.4-0.9,0.7-1.5,0.7c-0.5,0-0.9-0.1-1.3-0.4
						c-0.3-0.3-0.5-0.7-0.5-1.1c0-0.5,0.2-1,0.6-1.3c0.4-0.3,1-0.5,1.8-0.5h0.9V6.4c0-0.3-0.1-0.6-0.3-0.8c-0.2-0.2-0.5-0.3-0.8-0.3
						c-0.3,0-0.6,0.1-0.8,0.2s-0.3,0.4-0.3,0.6h-0.9c0-0.3,0.1-0.5,0.3-0.8c0.2-0.2,0.4-0.4,0.8-0.6s0.7-0.2,1.1-0.2
						c0.6,0,1.1,0.2,1.4,0.5c0.3,0.3,0.5,0.7,0.5,1.3v2.4c0,0.5,0.1,0.9,0.2,1.2V10H103.6z M102.1,9.3c0.3,0,0.6-0.1,0.8-0.2
						s0.4-0.3,0.6-0.6V7.4h-0.7c-1.1,0-1.7,0.3-1.7,1c0,0.3,0.1,0.5,0.3,0.7S101.8,9.3,102.1,9.3z"/>
					<path class="st15" d="M107,3.4v1.3h1v0.7h-1v3.3c0,0.2,0,0.4,0.1,0.5c0.1,0.1,0.2,0.2,0.4,0.2c0.1,0,0.2,0,0.4-0.1V10
						c-0.2,0.1-0.5,0.1-0.7,0.1c-0.4,0-0.7-0.1-0.9-0.4s-0.3-0.6-0.3-1V5.4h-1V4.7h1V3.4H107z"/>
					<path class="st15" d="M109.1,3.3c0-0.1,0-0.3,0.1-0.4s0.2-0.2,0.4-0.2s0.3,0.1,0.4,0.2s0.1,0.2,0.1,0.4s0,0.3-0.1,0.4
						s-0.2,0.1-0.4,0.1s-0.3,0-0.4-0.1S109.1,3.5,109.1,3.3z M110,10h-0.9V4.7h0.9V10z"/>
					<path class="st15" d="M111.2,7.3c0-0.5,0.1-1,0.3-1.4s0.5-0.7,0.8-1s0.8-0.3,1.2-0.3c0.7,0,1.3,0.2,1.7,0.7s0.7,1.2,0.7,2v0.1
						c0,0.5-0.1,1-0.3,1.4c-0.2,0.4-0.5,0.7-0.8,1s-0.8,0.3-1.3,0.3c-0.7,0-1.3-0.2-1.7-0.7S111.2,8.2,111.2,7.3L111.2,7.3z
						 M112.2,7.4c0,0.6,0.1,1.1,0.4,1.4s0.6,0.5,1.1,0.5c0.5,0,0.8-0.2,1.1-0.5c0.3-0.4,0.4-0.9,0.4-1.5c0-0.6-0.1-1-0.4-1.4
						c-0.3-0.4-0.6-0.5-1.1-0.5c-0.4,0-0.8,0.2-1.1,0.5S112.2,6.8,112.2,7.4z"/>
					<path class="st15" d="M118,4.7l0,0.7c0.4-0.5,0.9-0.8,1.6-0.8c1.1,0,1.7,0.6,1.7,1.9V10h-0.9V6.5c0-0.4-0.1-0.7-0.3-0.8
						s-0.4-0.3-0.8-0.3c-0.3,0-0.6,0.1-0.8,0.2s-0.4,0.4-0.5,0.6V10h-0.9V4.7H118z"/>
					<path class="st15" d="M125.8,8.6c0-0.2-0.1-0.4-0.3-0.6c-0.2-0.1-0.5-0.3-1-0.3s-0.8-0.2-1.1-0.4S123,7,122.9,6.8
						s-0.2-0.4-0.2-0.7c0-0.4,0.2-0.8,0.5-1.1s0.8-0.4,1.4-0.4c0.6,0,1.1,0.2,1.5,0.5s0.6,0.7,0.6,1.2h-0.9c0-0.2-0.1-0.5-0.3-0.6
						s-0.5-0.3-0.8-0.3c-0.3,0-0.6,0.1-0.8,0.2s-0.3,0.3-0.3,0.6c0,0.2,0.1,0.4,0.3,0.5s0.5,0.2,0.9,0.3s0.8,0.2,1.1,0.4
						s0.5,0.3,0.6,0.5c0.1,0.2,0.2,0.4,0.2,0.7c0,0.5-0.2,0.9-0.6,1.1c-0.4,0.3-0.9,0.4-1.5,0.4c-0.4,0-0.8-0.1-1.1-0.2
						s-0.6-0.4-0.8-0.6c-0.2-0.3-0.3-0.6-0.3-0.9h0.9c0,0.3,0.1,0.5,0.4,0.7c0.2,0.2,0.5,0.3,0.9,0.3c0.3,0,0.6-0.1,0.8-0.2
						C125.7,9,125.8,8.8,125.8,8.6z"/>
				</g>
			</g>
		</g>
	</g>
</g>
</svg>
