<?xml version="1.0" encoding="utf-8"?>
<!-- Generator: Adobe Illustrator 21.0.2, SVG Export Plug-In . SVG Version: 6.00 Build 0)  -->
<svg version="1.1" id="Layer_1" xmlns="http://www.w3.org/2000/svg" xmlns:xlink="http://www.w3.org/1999/xlink" x="0px" y="0px"
	 width="508px" height="397px" viewBox="0 0 508 397" style="enable-background:new 0 0 508 397;" xml:space="preserve">
<style type="text/css">
	.st0{filter:url(#filter-2);}
	.st1{fill:#FFFFFF;stroke:#E0E0E0;}
	.st2{enable-background:new    ;}
	.st3{fill:#333333;}
	.st4{fill:#424243;}
	.st5{fill:#616262;}
	.st6{fill:#0A7C83;}
	.st7{fill:none;stroke:#E0E0E0;}
	.st8{fill:#767676;}
</style>
<filter  filterUnits="objectBoundingBox" height="103.4%" id="filter-2" width="102.6%" x="-1.3%" y="-1.0%">
	<feMorphology  in="SourceAlpha" operator="dilate" radius="0.5" result="shadowSpreadOuter1"></feMorphology>
	<feOffset  dx="0" dy="3" in="shadowSpreadOuter1" result="shadowOffsetOuter1"></feOffset>
	<feGaussianBlur  in="shadowOffsetOuter1" result="shadowBlurOuter1" stdDeviation="1.5"></feGaussianBlur>
	<feComposite  in="shadowBlurOuter1" in2="SourceAlpha" operator="out" result="shadowBlurOuter1"></feComposite>
	<feColorMatrix  in="shadowBlurOuter1" type="matrix" values="0 0 0 0 0   0 0 0 0 0   0 0 0 0 0  0 0 0 0.16 0"></feColorMatrix>
</filter>
<title>Popover-Large-hidden-content</title>
<desc>Created with Sketch.</desc>
<g id="_x2A_Document_x2A_">
	<g id="_x32__x29_-Specs-_x26_-States" transform="translate(-397.000000, -3746.000000)">
		<g id="Large-hidden-content" transform="translate(0.000000, 3700.000000)">
			<g id="Group-2" transform="translate(401.000000, 46.000000)">
				<g id="Popover-Large-hidden-content">
					<g id="Fill-227-Copy-2">
						<g class="st0">
							<polygon id="path-1_2_" points="56.4,9.4 47.3,0 38.1,9.4 0,9.4 0,28.3 0,46.7 0,390 500,390 500,9.4 							"/>
						</g>
						<g>
							<polygon id="path-1_1_" class="st1" points="56.4,9.4 47.3,0 38.1,9.4 0,9.4 0,28.3 0,46.7 0,390 500,390 500,9.4 							"/>
						</g>
					</g>
					<g class="st2">
						<path class="st3" d="M31.5,50.3h-6L24.2,54h-1.9l5.4-14.2h1.6L34.8,54h-1.9L31.5,50.3z M26.1,48.7h4.8l-2.4-6.7L26.1,48.7z"/>
						<path class="st3" d="M42.6,51.2c0-0.5-0.2-0.9-0.6-1.1s-1-0.5-1.9-0.7s-1.6-0.4-2.2-0.7s-0.9-0.6-1.2-1s-0.4-0.8-0.4-1.3
							c0-0.9,0.4-1.6,1.1-2.2s1.7-0.9,2.8-0.9c1.2,0,2.2,0.3,2.9,0.9s1.1,1.4,1.1,2.4h-1.8c0-0.5-0.2-0.9-0.6-1.3s-0.9-0.5-1.6-0.5
							c-0.7,0-1.2,0.1-1.5,0.4s-0.6,0.7-0.6,1.1c0,0.4,0.2,0.8,0.5,1s1,0.4,1.9,0.6s1.6,0.4,2.2,0.7s1,0.6,1.2,1s0.4,0.9,0.4,1.4
							c0,0.9-0.4,1.7-1.1,2.3s-1.7,0.9-2.9,0.9c-0.8,0-1.6-0.1-2.2-0.4s-1.2-0.7-1.5-1.3S36,51.4,36,50.7h1.8c0,0.6,0.3,1.1,0.7,1.4
							s1,0.5,1.8,0.5c0.7,0,1.2-0.1,1.6-0.4S42.6,51.7,42.6,51.2z"/>
						<path class="st3" d="M52.9,51.2c0-0.5-0.2-0.9-0.6-1.1s-1-0.5-1.9-0.7s-1.6-0.4-2.2-0.7s-0.9-0.6-1.2-1s-0.4-0.8-0.4-1.3
							c0-0.9,0.4-1.6,1.1-2.2s1.7-0.9,2.8-0.9c1.2,0,2.2,0.3,2.9,0.9s1.1,1.4,1.1,2.4h-1.8c0-0.5-0.2-0.9-0.6-1.3s-0.9-0.5-1.6-0.5
							c-0.7,0-1.2,0.1-1.5,0.4s-0.6,0.7-0.6,1.1c0,0.4,0.2,0.8,0.5,1s1,0.4,1.9,0.6s1.6,0.4,2.2,0.7s1,0.6,1.2,1s0.4,0.9,0.4,1.4
							c0,0.9-0.4,1.7-1.1,2.3s-1.7,0.9-2.9,0.9c-0.8,0-1.6-0.1-2.2-0.4s-1.2-0.7-1.5-1.3s-0.6-1.1-0.6-1.7h1.8
							c0,0.6,0.3,1.1,0.7,1.4s1,0.5,1.8,0.5c0.7,0,1.2-0.1,1.6-0.4S52.9,51.7,52.9,51.2z"/>
						<path class="st3" d="M56.6,48.6c0-1,0.2-2,0.6-2.8s1-1.5,1.7-1.9s1.6-0.7,2.5-0.7c1.4,0,2.6,0.5,3.5,1.5s1.3,2.3,1.3,4v0.1
							c0,1-0.2,2-0.6,2.8s-1,1.5-1.7,1.9s-1.6,0.7-2.5,0.7c-1.4,0-2.6-0.5-3.5-1.5s-1.3-2.3-1.3-4V48.6z M58.4,48.8
							c0,1.2,0.3,2.1,0.8,2.8s1.3,1.1,2.2,1.1c0.9,0,1.6-0.4,2.2-1.1s0.8-1.7,0.8-3c0-1.2-0.3-2.1-0.8-2.8s-1.3-1.1-2.2-1.1
							c-0.9,0-1.6,0.4-2.2,1.1S58.4,47.5,58.4,48.8z"/>
						<path class="st3" d="M72.7,52.7c0.6,0,1.2-0.2,1.7-0.6s0.7-0.9,0.8-1.5h1.7c0,0.6-0.2,1.2-0.6,1.7s-0.9,1-1.5,1.3
							s-1.3,0.5-2,0.5c-1.4,0-2.6-0.5-3.4-1.4S68,50.5,68,48.8v-0.3c0-1,0.2-1.9,0.6-2.7s0.9-1.4,1.6-1.9s1.5-0.7,2.5-0.7
							c1.2,0,2.2,0.4,3,1.1s1.2,1.6,1.3,2.8h-1.7c-0.1-0.7-0.3-1.2-0.8-1.7s-1-0.7-1.7-0.7c-0.9,0-1.6,0.3-2.1,1s-0.8,1.6-0.8,2.9
							v0.3c0,1.2,0.3,2.2,0.8,2.8S71.8,52.7,72.7,52.7z"/>
						<path class="st3" d="M78.9,40.6c0-0.3,0.1-0.5,0.3-0.7s0.4-0.3,0.8-0.3s0.6,0.1,0.8,0.3s0.3,0.4,0.3,0.7s-0.1,0.5-0.3,0.7
							s-0.4,0.3-0.8,0.3s-0.6-0.1-0.8-0.3S78.9,40.9,78.9,40.6z M80.9,54h-1.8V43.4h1.8V54z"/>
						<path class="st3" d="M90.3,54c-0.1-0.2-0.2-0.6-0.3-1.1c-0.8,0.9-1.8,1.3-3,1.3c-1,0-1.9-0.3-2.6-0.9s-1-1.3-1-2.2
							c0-1.1,0.4-2,1.3-2.6s2-0.9,3.5-0.9H90v-0.8c0-0.6-0.2-1.1-0.6-1.5s-0.9-0.6-1.7-0.6c-0.6,0-1.2,0.2-1.6,0.5s-0.7,0.7-0.7,1.2
							h-1.8c0-0.5,0.2-1,0.6-1.5s0.9-0.9,1.5-1.2s1.3-0.4,2.1-0.4c1.2,0,2.2,0.3,2.9,0.9s1,1.4,1.1,2.5v4.9c0,1,0.1,1.7,0.4,2.3V54
							H90.3z M87.3,52.6c0.6,0,1.1-0.1,1.6-0.4s0.9-0.7,1.1-1.1v-2.2h-1.4c-2.2,0-3.3,0.6-3.3,1.9c0,0.6,0.2,1,0.6,1.3
							S86.7,52.6,87.3,52.6z"/>
						<path class="st3" d="M97.1,40.9v2.6h2v1.4h-2v6.6c0,0.4,0.1,0.7,0.3,1s0.5,0.3,0.9,0.3c0.2,0,0.5,0,0.9-0.1V54
							c-0.5,0.1-0.9,0.2-1.4,0.2c-0.8,0-1.4-0.2-1.8-0.7s-0.6-1.2-0.6-2.1v-6.6h-1.9v-1.4h1.9v-2.6H97.1z"/>
						<path class="st3" d="M105.6,54.2c-1.4,0-2.6-0.5-3.5-1.4s-1.3-2.2-1.3-3.8v-0.3c0-1,0.2-2,0.6-2.8s1-1.5,1.7-1.9
							s1.5-0.7,2.3-0.7c1.4,0,2.4,0.5,3.2,1.4s1.1,2.2,1.1,3.9v0.8h-7.2c0,1,0.3,1.9,0.9,2.5s1.3,1,2.2,1c0.6,0,1.2-0.1,1.6-0.4
							s0.8-0.6,1.2-1l1.1,0.9C108.7,53.5,107.3,54.2,105.6,54.2z M105.3,44.7c-0.7,0-1.3,0.3-1.8,0.8s-0.8,1.3-0.9,2.2h5.3v-0.1
							c-0.1-0.9-0.3-1.6-0.7-2.1S106.1,44.7,105.3,44.7z"/>
						<path class="st3" d="M111.3,48.6c0-1.6,0.4-2.9,1.2-3.9s1.8-1.5,3-1.5c1.2,0,2.2,0.4,2.9,1.3V39h1.8v15h-1.7l-0.1-1.1
							c-0.7,0.9-1.7,1.3-3,1.3c-1.2,0-2.2-0.5-3-1.5s-1.2-2.3-1.2-3.9V48.6z M113.1,48.8c0,1.2,0.2,2.1,0.7,2.8s1.2,1,2.1,1
							c1.1,0,2-0.5,2.5-1.5v-4.9c-0.5-1-1.4-1.5-2.5-1.5c-0.9,0-1.6,0.3-2.1,1S113.1,47.5,113.1,48.8z"/>
						<path class="st3" d="M127.6,48.6c0-1.6,0.4-2.9,1.2-3.9s1.8-1.5,3-1.5c1.2,0,2.2,0.4,2.9,1.3V39h1.8v15h-1.7l-0.1-1.1
							c-0.7,0.9-1.7,1.3-3,1.3c-1.2,0-2.2-0.5-3-1.5s-1.2-2.3-1.2-3.9V48.6z M129.4,48.8c0,1.2,0.2,2.1,0.7,2.8s1.2,1,2.1,1
							c1.1,0,2-0.5,2.5-1.5v-4.9c-0.5-1-1.4-1.5-2.5-1.5c-0.9,0-1.6,0.3-2.1,1S129.4,47.5,129.4,48.8z"/>
						<path class="st3" d="M143.7,54.2c-1.4,0-2.6-0.5-3.5-1.4s-1.3-2.2-1.3-3.8v-0.3c0-1,0.2-2,0.6-2.8s1-1.5,1.7-1.9
							s1.5-0.7,2.3-0.7c1.4,0,2.4,0.5,3.2,1.4s1.1,2.2,1.1,3.9v0.8h-7.2c0,1,0.3,1.9,0.9,2.5s1.3,1,2.2,1c0.6,0,1.2-0.1,1.6-0.4
							s0.8-0.6,1.2-1l1.1,0.9C146.8,53.5,145.4,54.2,143.7,54.2z M143.4,44.7c-0.7,0-1.3,0.3-1.8,0.8s-0.8,1.3-0.9,2.2h5.3v-0.1
							c-0.1-0.9-0.3-1.6-0.7-2.1S144.2,44.7,143.4,44.7z"/>
						<path class="st3" d="M153.2,51.5l2.6-8.1h1.8L153.9,54h-1.4l-3.8-10.6h1.8L153.2,51.5z"/>
						<path class="st3" d="M159.5,40.6c0-0.3,0.1-0.5,0.3-0.7s0.4-0.3,0.8-0.3s0.6,0.1,0.8,0.3s0.3,0.4,0.3,0.7s-0.1,0.5-0.3,0.7
							s-0.4,0.3-0.8,0.3s-0.6-0.1-0.8-0.3S159.5,40.9,159.5,40.6z M161.4,54h-1.8V43.4h1.8V54z"/>
						<path class="st3" d="M168.5,52.7c0.6,0,1.2-0.2,1.7-0.6s0.7-0.9,0.8-1.5h1.7c0,0.6-0.2,1.2-0.6,1.7s-0.9,1-1.5,1.3
							s-1.3,0.5-2,0.5c-1.4,0-2.6-0.5-3.4-1.4s-1.3-2.3-1.3-3.9v-0.3c0-1,0.2-1.9,0.6-2.7s0.9-1.4,1.6-1.9s1.5-0.7,2.5-0.7
							c1.2,0,2.2,0.4,3,1.1s1.2,1.6,1.3,2.8H171c-0.1-0.7-0.3-1.2-0.8-1.7s-1-0.7-1.7-0.7c-0.9,0-1.6,0.3-2.1,1s-0.8,1.6-0.8,2.9
							v0.3c0,1.2,0.3,2.2,0.8,2.8S167.6,52.7,168.5,52.7z"/>
						<path class="st3" d="M179.1,54.2c-1.4,0-2.6-0.5-3.5-1.4s-1.3-2.2-1.3-3.8v-0.3c0-1,0.2-2,0.6-2.8s1-1.5,1.7-1.9
							s1.5-0.7,2.3-0.7c1.4,0,2.4,0.5,3.2,1.4s1.1,2.2,1.1,3.9v0.8h-7.2c0,1,0.3,1.9,0.9,2.5s1.3,1,2.2,1c0.6,0,1.2-0.1,1.6-0.4
							s0.8-0.6,1.2-1l1.1,0.9C182.2,53.5,180.9,54.2,179.1,54.2z M178.9,44.7c-0.7,0-1.3,0.3-1.8,0.8s-0.8,1.3-0.9,2.2h5.3v-0.1
							c-0.1-0.9-0.3-1.6-0.7-2.1S179.7,44.7,178.9,44.7z"/>
						<path class="st3" d="M191.5,51.2c0-0.5-0.2-0.9-0.6-1.1s-1-0.5-1.9-0.7s-1.6-0.4-2.2-0.7s-0.9-0.6-1.2-1s-0.4-0.8-0.4-1.3
							c0-0.9,0.4-1.6,1.1-2.2s1.7-0.9,2.8-0.9c1.2,0,2.2,0.3,2.9,0.9s1.1,1.4,1.1,2.4h-1.8c0-0.5-0.2-0.9-0.6-1.3s-0.9-0.5-1.6-0.5
							c-0.7,0-1.2,0.1-1.5,0.4s-0.6,0.7-0.6,1.1c0,0.4,0.2,0.8,0.5,1s1,0.4,1.9,0.6s1.6,0.4,2.2,0.7s1,0.6,1.2,1s0.4,0.9,0.4,1.4
							c0,0.9-0.4,1.7-1.1,2.3s-1.7,0.9-2.9,0.9c-0.8,0-1.6-0.1-2.2-0.4s-1.2-0.7-1.5-1.3s-0.6-1.1-0.6-1.7h1.8
							c0,0.6,0.3,1.1,0.7,1.4s1,0.5,1.8,0.5c0.7,0,1.2-0.1,1.6-0.4S191.5,51.7,191.5,51.2z"/>
					</g>
					<g class="st2">
						<path class="st4" d="M51.9,109h-1.7l-4.4-7.1v7.1H44V99h1.7l4.5,7.1V99h1.7V109z"/>
					</g>
					<g class="st2">
						<path class="st4" d="M59.6,106.7h-3.9L55,109h-1.8l3.8-10h1.6l3.8,10h-1.8L59.6,106.7z M56.3,105.3h2.9l-1.4-4.1L56.3,105.3z"
							/>
						<path class="st4" d="M65.7,99l2.9,7.6l2.9-7.6h2.2v10H72v-3.3l0.2-4.4l-2.9,7.7H68l-2.9-7.7l0.2,4.4v3.3h-1.7V99H65.7z"/>
						<path class="st4" d="M81.7,104.6h-4.1v3.1h4.8v1.4h-6.5V99h6.5v1.4h-4.7v2.7h4.1V104.6z"/>
					</g>
					<g class="st2">
						<path class="st5" d="M270.7,156.7c0-0.8,0.2-1.6,0.5-2.2c0.3-0.7,0.8-1.2,1.4-1.5c0.6-0.4,1.2-0.5,2-0.5
							c1.2,0,2.1,0.4,2.8,1.2s1.1,1.9,1.1,3.2v0.1c0,0.8-0.2,1.6-0.5,2.2c-0.3,0.7-0.8,1.2-1.4,1.5s-1.3,0.5-2,0.5
							c-1.1,0-2.1-0.4-2.8-1.2s-1.1-1.9-1.1-3.2V156.7z M272.2,156.9c0,0.9,0.2,1.7,0.7,2.3c0.4,0.6,1,0.9,1.7,0.9
							c0.7,0,1.3-0.3,1.8-0.9c0.4-0.6,0.6-1.4,0.6-2.4c0-0.9-0.2-1.7-0.7-2.3c-0.4-0.6-1-0.9-1.8-0.9c-0.7,0-1.3,0.3-1.7,0.9
							S272.2,155.8,272.2,156.9z"/>
						<path class="st5" d="M287.4,156.9c0,1.3-0.3,2.3-0.9,3.1c-0.6,0.8-1.4,1.2-2.4,1.2c-1,0-1.8-0.3-2.4-1v4.1h-1.4v-11.7h1.3
							l0.1,0.9c0.6-0.7,1.4-1.1,2.5-1.1c1,0,1.8,0.4,2.4,1.1c0.6,0.8,0.9,1.8,0.9,3.2V156.9z M285.9,156.7c0-1-0.2-1.7-0.6-2.3
							s-1-0.8-1.7-0.8c-0.9,0-1.5,0.4-2,1.2v4c0.4,0.8,1.1,1.2,2,1.2c0.7,0,1.2-0.3,1.7-0.8C285.7,158.6,285.9,157.8,285.9,156.7z"
							/>
						<path class="st5" d="M291.2,150.5v2h1.6v1.1h-1.6v5.2c0,0.3,0.1,0.6,0.2,0.8c0.1,0.2,0.4,0.3,0.7,0.3c0.2,0,0.4,0,0.7-0.1v1.2
							c-0.4,0.1-0.8,0.2-1.1,0.2c-0.6,0-1.1-0.2-1.5-0.6s-0.5-0.9-0.5-1.7v-5.2h-1.5v-1.1h1.5v-2H291.2z"/>
						<path class="st5" d="M294.4,150.3c0-0.2,0.1-0.4,0.2-0.6c0.1-0.2,0.4-0.2,0.6-0.2s0.5,0.1,0.6,0.2c0.1,0.2,0.2,0.4,0.2,0.6
							s-0.1,0.4-0.2,0.6c-0.1,0.2-0.4,0.2-0.6,0.2s-0.5-0.1-0.6-0.2C294.5,150.7,294.4,150.5,294.4,150.3z M296,161h-1.4v-8.5h1.4
							V161z"/>
						<path class="st5" d="M297.9,156.7c0-0.8,0.2-1.6,0.5-2.2c0.3-0.7,0.8-1.2,1.4-1.5c0.6-0.4,1.2-0.5,2-0.5
							c1.2,0,2.1,0.4,2.8,1.2s1.1,1.9,1.1,3.2v0.1c0,0.8-0.2,1.6-0.5,2.2c-0.3,0.7-0.8,1.2-1.4,1.5s-1.3,0.5-2,0.5
							c-1.1,0-2.1-0.4-2.8-1.2s-1.1-1.9-1.1-3.2V156.7z M299.4,156.9c0,0.9,0.2,1.7,0.7,2.3c0.4,0.6,1,0.9,1.7,0.9
							c0.7,0,1.3-0.3,1.8-0.9c0.4-0.6,0.6-1.4,0.6-2.4c0-0.9-0.2-1.7-0.7-2.3c-0.4-0.6-1-0.9-1.8-0.9c-0.7,0-1.3,0.3-1.7,0.9
							S299.4,155.8,299.4,156.9z"/>
						<path class="st5" d="M308.8,152.5l0,1.1c0.6-0.8,1.5-1.2,2.5-1.2c1.8,0,2.7,1,2.7,3v5.6h-1.4v-5.6c0-0.6-0.1-1.1-0.4-1.4
							s-0.7-0.4-1.3-0.4c-0.5,0-0.9,0.1-1.2,0.4c-0.4,0.2-0.6,0.6-0.8,1v6h-1.4v-8.5H308.8z"/>
						<path class="st5" d="M324.8,161h-1.5v-9.6l-2.9,1.1v-1.3l4.1-1.6h0.2V161z"/>
					</g>
					<g class="st2">
						<path class="st6" d="M47.3,149.6l3.7,9.3l3.7-9.3h1.9V161h-1.5v-4.4l0.1-4.8l-3.7,9.2h-1.1l-3.7-9.2l0.1,4.8v4.4h-1.5v-11.4
							H47.3z"/>
						<path class="st6" d="M61.8,158.9l2-6.3h1.5l-3.4,9.8c-0.5,1.4-1.4,2.1-2.5,2.1l-0.3,0l-0.5-0.1v-1.2l0.4,0
							c0.5,0,0.9-0.1,1.1-0.3s0.5-0.6,0.7-1.1l0.3-0.9l-3-8.4h1.6L61.8,158.9z"/>
						<path class="st6" d="M79.2,157.4c-0.1,1.2-0.6,2.1-1.3,2.8c-0.7,0.7-1.7,1-3,1c-1.3,0-2.4-0.5-3.2-1.4c-0.8-1-1.2-2.3-1.2-3.9
							v-1.1c0-1.1,0.2-2,0.6-2.8c0.4-0.8,0.9-1.4,1.6-1.8c0.7-0.4,1.5-0.6,2.4-0.6c1.2,0,2.2,0.3,2.9,1c0.7,0.7,1.2,1.6,1.3,2.8
							h-1.5c-0.1-0.9-0.4-1.6-0.8-2c-0.4-0.4-1-0.6-1.8-0.6c-1,0-1.7,0.4-2.3,1.1c-0.5,0.7-0.8,1.7-0.8,3v1.1c0,1.2,0.3,2.2,0.8,2.9
							s1.2,1.1,2.2,1.1c0.8,0,1.5-0.2,1.9-0.6s0.7-1,0.9-2H79.2z"/>
						<path class="st6" d="M82.6,161h-1.4v-12h1.4V161z"/>
						<path class="st6" d="M84.5,156.7c0-0.8,0.2-1.6,0.5-2.2c0.3-0.7,0.8-1.2,1.4-1.5c0.6-0.4,1.2-0.5,2-0.5c1.2,0,2.1,0.4,2.8,1.2
							s1.1,1.9,1.1,3.2v0.1c0,0.8-0.2,1.6-0.5,2.2c-0.3,0.7-0.8,1.2-1.4,1.5s-1.3,0.5-2,0.5c-1.1,0-2.1-0.4-2.8-1.2
							s-1.1-1.9-1.1-3.2V156.7z M86,156.9c0,0.9,0.2,1.7,0.7,2.3c0.4,0.6,1,0.9,1.7,0.9c0.7,0,1.3-0.3,1.8-0.9
							c0.4-0.6,0.6-1.4,0.6-2.4c0-0.9-0.2-1.7-0.7-2.3c-0.4-0.6-1-0.9-1.8-0.9c-0.7,0-1.3,0.3-1.7,0.9S86,155.8,86,156.9z"/>
						<path class="st6" d="M99.2,160.2c-0.6,0.7-1.4,1-2.5,1c-0.9,0-1.6-0.3-2.1-0.8c-0.5-0.5-0.7-1.3-0.7-2.3v-5.5h1.4v5.5
							c0,1.3,0.5,1.9,1.6,1.9c1.1,0,1.8-0.4,2.2-1.2v-6.1h1.4v8.5h-1.4L99.2,160.2z"/>
						<path class="st6" d="M102.5,156.7c0-1.3,0.3-2.3,0.9-3.1c0.6-0.8,1.4-1.2,2.4-1.2c1,0,1.8,0.3,2.4,1V149h1.4v12h-1.3l-0.1-0.9
							c-0.6,0.7-1.4,1.1-2.4,1.1c-1,0-1.8-0.4-2.4-1.2s-0.9-1.8-0.9-3.1V156.7z M103.9,156.9c0,1,0.2,1.7,0.6,2.2
							c0.4,0.5,0.9,0.8,1.6,0.8c0.9,0,1.6-0.4,2-1.2v-3.9c-0.4-0.8-1.1-1.2-2-1.2c-0.7,0-1.3,0.3-1.7,0.8
							C104.1,155,103.9,155.8,103.9,156.9z"/>
						<path class="st6" d="M119.4,155.9c-1.3-0.4-2.2-0.8-2.8-1.4s-0.9-1.2-0.9-2c0-0.9,0.4-1.6,1.1-2.2c0.7-0.6,1.6-0.9,2.8-0.9
							c0.8,0,1.5,0.2,2.1,0.5c0.6,0.3,1.1,0.7,1.4,1.2s0.5,1.1,0.5,1.7h-1.5c0-0.7-0.2-1.2-0.7-1.6s-1.1-0.6-1.9-0.6
							c-0.7,0-1.3,0.2-1.7,0.5s-0.6,0.8-0.6,1.4c0,0.5,0.2,0.9,0.6,1.2c0.4,0.3,1.1,0.6,2,0.9c0.9,0.3,1.7,0.6,2.2,0.9
							c0.5,0.3,0.9,0.7,1.2,1.1s0.4,0.9,0.4,1.5c0,0.9-0.4,1.7-1.1,2.2s-1.7,0.8-2.9,0.8c-0.8,0-1.5-0.1-2.2-0.4
							c-0.7-0.3-1.2-0.7-1.6-1.2s-0.6-1.1-0.6-1.8h1.5c0,0.7,0.3,1.2,0.8,1.6s1.2,0.6,2,0.6c0.8,0,1.4-0.2,1.8-0.5s0.6-0.8,0.6-1.3
							s-0.2-1-0.6-1.3S120.4,156.2,119.4,155.9z"/>
						<path class="st6" d="M128.8,161.2c-1.1,0-2.1-0.4-2.8-1.1s-1.1-1.8-1.1-3v-0.3c0-0.8,0.2-1.6,0.5-2.2s0.8-1.2,1.3-1.5
							c0.6-0.4,1.2-0.6,1.9-0.6c1.1,0,2,0.4,2.6,1.1s0.9,1.8,0.9,3.1v0.6h-5.7c0,0.8,0.3,1.5,0.7,2c0.5,0.5,1.1,0.8,1.8,0.8
							c0.5,0,0.9-0.1,1.3-0.3c0.4-0.2,0.7-0.5,0.9-0.8l0.9,0.7C131.3,160.6,130.2,161.2,128.8,161.2z M128.6,153.6
							c-0.6,0-1.1,0.2-1.5,0.6c-0.4,0.4-0.6,1-0.7,1.8h4.2v-0.1c0-0.7-0.2-1.3-0.6-1.7C129.7,153.8,129.2,153.6,128.6,153.6z"/>
					</g>
					<g class="st2">
						<path class="st6" d="M137.9,153.8c-0.2,0-0.5-0.1-0.7-0.1c-0.9,0-1.6,0.4-1.9,1.2v6h-1.4v-8.5h1.4l0,1c0.5-0.8,1.1-1.1,2-1.1
							c0.3,0,0.5,0,0.6,0.1V153.8z"/>
					</g>
					<g class="st2">
						<path class="st6" d="M142.3,159l2.1-6.5h1.5l-3,8.5h-1.1l-3.1-8.5h1.5L142.3,159z"/>
					</g>
					<g class="st2">
						<path class="st6" d="M150.6,161.2c-1.1,0-2.1-0.4-2.8-1.1s-1.1-1.8-1.1-3v-0.3c0-0.8,0.2-1.6,0.5-2.2s0.8-1.2,1.3-1.5
							c0.6-0.4,1.2-0.6,1.9-0.6c1.1,0,2,0.4,2.6,1.1s0.9,1.8,0.9,3.1v0.6h-5.7c0,0.8,0.3,1.5,0.7,2c0.5,0.5,1.1,0.8,1.8,0.8
							c0.5,0,0.9-0.1,1.3-0.3c0.4-0.2,0.7-0.5,0.9-0.8l0.9,0.7C153.1,160.6,152.1,161.2,150.6,161.2z M150.5,153.6
							c-0.6,0-1.1,0.2-1.5,0.6c-0.4,0.4-0.6,1-0.7,1.8h4.2v-0.1c0-0.7-0.2-1.3-0.6-1.7C151.5,153.8,151.1,153.6,150.5,153.6z"/>
						<path class="st6" d="M159.7,153.8c-0.2,0-0.5-0.1-0.7-0.1c-0.9,0-1.6,0.4-1.9,1.2v6h-1.4v-8.5h1.4l0,1c0.5-0.8,1.1-1.1,2-1.1
							c0.3,0,0.5,0,0.6,0.1V153.8z"/>
						<path class="st6" d="M164,156.8h-3.8v-1.2h3.8V156.8z"/>
						<path class="st6" d="M172.4,156.1c0,1.7-0.3,3-0.9,3.8s-1.5,1.2-2.7,1.2c-1.2,0-2.1-0.4-2.7-1.2c-0.6-0.8-0.9-2-0.9-3.6v-1.9
							c0-1.7,0.3-2.9,0.9-3.7s1.5-1.2,2.7-1.2c1.2,0,2.1,0.4,2.7,1.2s0.9,2,0.9,3.6V156.1z M171,154.2c0-1.2-0.2-2.1-0.5-2.7
							s-0.9-0.8-1.6-0.8c-0.7,0-1.3,0.3-1.6,0.8c-0.3,0.6-0.5,1.4-0.5,2.6v2.3c0,1.2,0.2,2.1,0.5,2.7c0.4,0.6,0.9,0.9,1.6,0.9
							c0.7,0,1.2-0.3,1.6-0.8c0.3-0.6,0.5-1.4,0.5-2.6V154.2z"/>
						<path class="st6" d="M179,161h-1.5v-9.6l-2.9,1.1v-1.3l4.1-1.6h0.2V161z"/>
					</g>
					<g class="st2">
						<path class="st6" d="M47.3,209.6l3.7,9.3l3.7-9.3h1.9V221h-1.5v-4.4l0.1-4.8l-3.7,9.2h-1.1l-3.7-9.2l0.1,4.8v4.4h-1.5v-11.4
							H47.3z"/>
						<path class="st6" d="M61.8,218.9l2-6.3h1.5l-3.4,9.8c-0.5,1.4-1.4,2.1-2.5,2.1l-0.3,0l-0.5-0.1v-1.2l0.4,0
							c0.5,0,0.9-0.1,1.1-0.3s0.5-0.6,0.7-1.1l0.3-0.9l-3-8.4h1.6L61.8,218.9z"/>
						<path class="st6" d="M79.2,217.4c-0.1,1.2-0.6,2.1-1.3,2.8c-0.7,0.7-1.7,1-3,1c-1.3,0-2.4-0.5-3.2-1.4c-0.8-1-1.2-2.3-1.2-3.9
							v-1.1c0-1.1,0.2-2,0.6-2.8c0.4-0.8,0.9-1.4,1.6-1.8c0.7-0.4,1.5-0.6,2.4-0.6c1.2,0,2.2,0.3,2.9,1c0.7,0.7,1.2,1.6,1.3,2.8
							h-1.5c-0.1-0.9-0.4-1.6-0.8-2c-0.4-0.4-1-0.6-1.8-0.6c-1,0-1.7,0.4-2.3,1.1c-0.5,0.7-0.8,1.7-0.8,3v1.1c0,1.2,0.3,2.2,0.8,2.9
							s1.2,1.1,2.2,1.1c0.8,0,1.5-0.2,1.9-0.6s0.7-1,0.9-2H79.2z"/>
						<path class="st6" d="M82.6,221h-1.4v-12h1.4V221z"/>
						<path class="st6" d="M84.5,216.7c0-0.8,0.2-1.6,0.5-2.2c0.3-0.7,0.8-1.2,1.4-1.5c0.6-0.4,1.2-0.5,2-0.5c1.2,0,2.1,0.4,2.8,1.2
							s1.1,1.9,1.1,3.2v0.1c0,0.8-0.2,1.6-0.5,2.2c-0.3,0.7-0.8,1.2-1.4,1.5s-1.3,0.5-2,0.5c-1.1,0-2.1-0.4-2.8-1.2
							s-1.1-1.9-1.1-3.2V216.7z M86,216.9c0,0.9,0.2,1.7,0.7,2.3c0.4,0.6,1,0.9,1.7,0.9c0.7,0,1.3-0.3,1.8-0.9
							c0.4-0.6,0.6-1.4,0.6-2.4c0-0.9-0.2-1.7-0.7-2.3c-0.4-0.6-1-0.9-1.8-0.9c-0.7,0-1.3,0.3-1.7,0.9S86,215.8,86,216.9z"/>
						<path class="st6" d="M99.2,220.2c-0.6,0.7-1.4,1-2.5,1c-0.9,0-1.6-0.3-2.1-0.8c-0.5-0.5-0.7-1.3-0.7-2.3v-5.5h1.4v5.5
							c0,1.3,0.5,1.9,1.6,1.9c1.1,0,1.8-0.4,2.2-1.2v-6.1h1.4v8.5h-1.4L99.2,220.2z"/>
						<path class="st6" d="M102.5,216.7c0-1.3,0.3-2.3,0.9-3.1c0.6-0.8,1.4-1.2,2.4-1.2c1,0,1.8,0.3,2.4,1V209h1.4v12h-1.3l-0.1-0.9
							c-0.6,0.7-1.4,1.1-2.4,1.1c-1,0-1.8-0.4-2.4-1.2s-0.9-1.8-0.9-3.1V216.7z M103.9,216.9c0,1,0.2,1.7,0.6,2.2
							c0.4,0.5,0.9,0.8,1.6,0.8c0.9,0,1.6-0.4,2-1.2v-3.9c-0.4-0.8-1.1-1.2-2-1.2c-0.7,0-1.3,0.3-1.7,0.8
							C104.1,215,103.9,215.8,103.9,216.9z"/>
						<path class="st6" d="M119.4,215.9c-1.3-0.4-2.2-0.8-2.8-1.4s-0.9-1.2-0.9-2c0-0.9,0.4-1.6,1.1-2.2c0.7-0.6,1.6-0.9,2.8-0.9
							c0.8,0,1.5,0.2,2.1,0.5c0.6,0.3,1.1,0.7,1.4,1.2s0.5,1.1,0.5,1.7h-1.5c0-0.7-0.2-1.2-0.7-1.6s-1.1-0.6-1.9-0.6
							c-0.7,0-1.3,0.2-1.7,0.5s-0.6,0.8-0.6,1.4c0,0.5,0.2,0.9,0.6,1.2c0.4,0.3,1.1,0.6,2,0.9c0.9,0.3,1.7,0.6,2.2,0.9
							c0.5,0.3,0.9,0.7,1.2,1.1s0.4,0.9,0.4,1.5c0,0.9-0.4,1.7-1.1,2.2s-1.7,0.8-2.9,0.8c-0.8,0-1.5-0.1-2.2-0.4
							c-0.7-0.3-1.2-0.7-1.6-1.2s-0.6-1.1-0.6-1.8h1.5c0,0.7,0.3,1.2,0.8,1.6s1.2,0.6,2,0.6c0.8,0,1.4-0.2,1.8-0.5s0.6-0.8,0.6-1.3
							s-0.2-1-0.6-1.3S120.4,216.2,119.4,215.9z"/>
						<path class="st6" d="M128.8,221.2c-1.1,0-2.1-0.4-2.8-1.1s-1.1-1.8-1.1-3v-0.3c0-0.8,0.2-1.6,0.5-2.2s0.8-1.2,1.3-1.5
							c0.6-0.4,1.2-0.6,1.9-0.6c1.1,0,2,0.4,2.6,1.1s0.9,1.8,0.9,3.1v0.6h-5.7c0,0.8,0.3,1.5,0.7,2c0.5,0.5,1.1,0.8,1.8,0.8
							c0.5,0,0.9-0.1,1.3-0.3c0.4-0.2,0.7-0.5,0.9-0.8l0.9,0.7C131.3,220.6,130.2,221.2,128.8,221.2z M128.6,213.6
							c-0.6,0-1.1,0.2-1.5,0.6c-0.4,0.4-0.6,1-0.7,1.8h4.2v-0.1c0-0.7-0.2-1.3-0.6-1.7C129.7,213.8,129.2,213.6,128.6,213.6z"/>
					</g>
					<g class="st2">
						<path class="st6" d="M137.9,213.8c-0.2,0-0.5-0.1-0.7-0.1c-0.9,0-1.6,0.4-1.9,1.2v6h-1.4v-8.5h1.4l0,1c0.5-0.8,1.1-1.1,2-1.1
							c0.3,0,0.5,0,0.6,0.1V213.8z"/>
					</g>
					<g class="st2">
						<path class="st6" d="M142.3,219l2.1-6.5h1.5l-3,8.5h-1.1l-3.1-8.5h1.5L142.3,219z"/>
					</g>
					<g class="st2">
						<path class="st6" d="M150.6,221.2c-1.1,0-2.1-0.4-2.8-1.1s-1.1-1.8-1.1-3v-0.3c0-0.8,0.2-1.6,0.5-2.2s0.8-1.2,1.3-1.5
							c0.6-0.4,1.2-0.6,1.9-0.6c1.1,0,2,0.4,2.6,1.1s0.9,1.8,0.9,3.1v0.6h-5.7c0,0.8,0.3,1.5,0.7,2c0.5,0.5,1.1,0.8,1.8,0.8
							c0.5,0,0.9-0.1,1.3-0.3c0.4-0.2,0.7-0.5,0.9-0.8l0.9,0.7C153.1,220.6,152.1,221.2,150.6,221.2z M150.5,213.6
							c-0.6,0-1.1,0.2-1.5,0.6c-0.4,0.4-0.6,1-0.7,1.8h4.2v-0.1c0-0.7-0.2-1.3-0.6-1.7C151.5,213.8,151.1,213.6,150.5,213.6z"/>
						<path class="st6" d="M159.7,213.8c-0.2,0-0.5-0.1-0.7-0.1c-0.9,0-1.6,0.4-1.9,1.2v6h-1.4v-8.5h1.4l0,1c0.5-0.8,1.1-1.1,2-1.1
							c0.3,0,0.5,0,0.6,0.1V213.8z"/>
						<path class="st6" d="M164,216.8h-3.8v-1.2h3.8V216.8z"/>
						<path class="st6" d="M172.4,216.1c0,1.7-0.3,3-0.9,3.8s-1.5,1.2-2.7,1.2c-1.2,0-2.1-0.4-2.7-1.2c-0.6-0.8-0.9-2-0.9-3.6v-1.9
							c0-1.7,0.3-2.9,0.9-3.7s1.5-1.2,2.7-1.2c1.2,0,2.1,0.4,2.7,1.2s0.9,2,0.9,3.6V216.1z M171,214.2c0-1.2-0.2-2.1-0.5-2.7
							s-0.9-0.8-1.6-0.8c-0.7,0-1.3,0.3-1.6,0.8c-0.3,0.6-0.5,1.4-0.5,2.6v2.3c0,1.2,0.2,2.1,0.5,2.7c0.4,0.6,0.9,0.9,1.6,0.9
							c0.7,0,1.2-0.3,1.6-0.8c0.3-0.6,0.5-1.4,0.5-2.6V214.2z"/>
						<path class="st6" d="M181.7,221h-7.5v-1l3.9-4.4c0.6-0.7,1-1.2,1.2-1.6c0.2-0.4,0.3-0.8,0.3-1.3c0-0.6-0.2-1.1-0.5-1.5
							s-0.8-0.6-1.4-0.6c-0.7,0-1.3,0.2-1.7,0.6s-0.6,1-0.6,1.7h-1.4c0-1,0.3-1.9,1-2.5c0.7-0.6,1.6-1,2.7-1c1.1,0,1.9,0.3,2.5,0.8
							c0.6,0.6,0.9,1.3,0.9,2.2c0,1.1-0.7,2.5-2.1,4l-3,3.3h5.7V221z"/>
					</g>
					<path id="Stroke-11" class="st7" d="M24,184h452"/>
					<g class="st2">
						<path class="st5" d="M277.2,100.4h-3.1v8.6h-1.7v-8.6h-3.1V99h7.9V100.4z"/>
						<path class="st5" d="M281.8,103.8l2.3-4.7h1.9l-3.3,6.3v3.7h-1.7v-3.7l-3.3-6.3h1.9L281.8,103.8z"/>
						<path class="st5" d="M288.8,105.3v3.7H287V99h3.8c1.1,0,2,0.3,2.6,0.9s1,1.3,1,2.3c0,1-0.3,1.7-1,2.3s-1.5,0.8-2.7,0.8H288.8z
							 M288.8,103.9h2.1c0.6,0,1.1-0.1,1.4-0.4c0.3-0.3,0.5-0.7,0.5-1.3c0-0.5-0.2-1-0.5-1.3c-0.3-0.3-0.8-0.5-1.4-0.5h-2.1V103.9z"
							/>
						<path class="st5" d="M301.7,104.6h-4.1v3.1h4.8v1.4h-6.5V99h6.5v1.4h-4.7v2.7h4.1V104.6z"/>
					</g>
					<g class="st2">
						<path class="st5" d="M270.7,276.7c0-0.8,0.2-1.6,0.5-2.2c0.3-0.7,0.8-1.2,1.4-1.5c0.6-0.4,1.2-0.5,2-0.5
							c1.2,0,2.1,0.4,2.8,1.2s1.1,1.9,1.1,3.2v0.1c0,0.8-0.2,1.6-0.5,2.2c-0.3,0.7-0.8,1.2-1.4,1.5s-1.3,0.5-2,0.5
							c-1.1,0-2.1-0.4-2.8-1.2s-1.1-1.9-1.1-3.2V276.7z M272.2,276.9c0,0.9,0.2,1.7,0.7,2.3c0.4,0.6,1,0.9,1.7,0.9
							c0.7,0,1.3-0.3,1.8-0.9c0.4-0.6,0.6-1.4,0.6-2.4c0-0.9-0.2-1.7-0.7-2.3c-0.4-0.6-1-0.9-1.8-0.9c-0.7,0-1.3,0.3-1.7,0.9
							S272.2,275.8,272.2,276.9z"/>
						<path class="st5" d="M287.4,276.9c0,1.3-0.3,2.3-0.9,3.1c-0.6,0.8-1.4,1.2-2.4,1.2c-1,0-1.8-0.3-2.4-1v4.1h-1.4v-11.7h1.3
							l0.1,0.9c0.6-0.7,1.4-1.1,2.5-1.1c1,0,1.8,0.4,2.4,1.1c0.6,0.8,0.9,1.8,0.9,3.2V276.9z M285.9,276.7c0-1-0.2-1.7-0.6-2.3
							s-1-0.8-1.7-0.8c-0.9,0-1.5,0.4-2,1.2v4c0.4,0.8,1.1,1.2,2,1.2c0.7,0,1.2-0.3,1.7-0.8C285.7,278.6,285.9,277.8,285.9,276.7z"
							/>
						<path class="st5" d="M291.2,270.5v2h1.6v1.1h-1.6v5.2c0,0.3,0.1,0.6,0.2,0.8c0.1,0.2,0.4,0.3,0.7,0.3c0.2,0,0.4,0,0.7-0.1v1.2
							c-0.4,0.1-0.8,0.2-1.1,0.2c-0.6,0-1.1-0.2-1.5-0.6s-0.5-0.9-0.5-1.7v-5.2h-1.5v-1.1h1.5v-2H291.2z"/>
						<path class="st5" d="M294.4,270.3c0-0.2,0.1-0.4,0.2-0.6c0.1-0.2,0.4-0.2,0.6-0.2s0.5,0.1,0.6,0.2c0.1,0.2,0.2,0.4,0.2,0.6
							s-0.1,0.4-0.2,0.6c-0.1,0.2-0.4,0.2-0.6,0.2s-0.5-0.1-0.6-0.2C294.5,270.7,294.4,270.5,294.4,270.3z M296,281h-1.4v-8.5h1.4
							V281z"/>
						<path class="st5" d="M297.9,276.7c0-0.8,0.2-1.6,0.5-2.2c0.3-0.7,0.8-1.2,1.4-1.5c0.6-0.4,1.2-0.5,2-0.5
							c1.2,0,2.1,0.4,2.8,1.2s1.1,1.9,1.1,3.2v0.1c0,0.8-0.2,1.6-0.5,2.2c-0.3,0.7-0.8,1.2-1.4,1.5s-1.3,0.5-2,0.5
							c-1.1,0-2.1-0.4-2.8-1.2s-1.1-1.9-1.1-3.2V276.7z M299.4,276.9c0,0.9,0.2,1.7,0.7,2.3c0.4,0.6,1,0.9,1.7,0.9
							c0.7,0,1.3-0.3,1.8-0.9c0.4-0.6,0.6-1.4,0.6-2.4c0-0.9-0.2-1.7-0.7-2.3c-0.4-0.6-1-0.9-1.8-0.9c-0.7,0-1.3,0.3-1.7,0.9
							S299.4,275.8,299.4,276.9z"/>
						<path class="st5" d="M308.8,272.5l0,1.1c0.6-0.8,1.5-1.2,2.5-1.2c1.8,0,2.7,1,2.7,3v5.6h-1.4v-5.6c0-0.6-0.1-1.1-0.4-1.4
							s-0.7-0.4-1.3-0.4c-0.5,0-0.9,0.1-1.2,0.4c-0.4,0.2-0.6,0.6-0.8,1v6h-1.4v-8.5H308.8z"/>
						<path class="st5" d="M327.5,281h-7.5v-1l3.9-4.4c0.6-0.7,1-1.2,1.2-1.6c0.2-0.4,0.3-0.8,0.3-1.3c0-0.6-0.2-1.1-0.5-1.5
							s-0.8-0.6-1.4-0.6c-0.7,0-1.3,0.2-1.7,0.6s-0.6,1-0.6,1.7h-1.4c0-1,0.3-1.9,1-2.5c0.7-0.6,1.6-1,2.7-1c1.1,0,1.9,0.3,2.5,0.8
							c0.6,0.6,0.9,1.3,0.9,2.2c0,1.1-0.7,2.5-2.1,4l-3,3.3h5.7V281z"/>
					</g>
					<g class="st2">
						<path class="st5" d="M270.7,336.7c0-0.8,0.2-1.6,0.5-2.2c0.3-0.7,0.8-1.2,1.4-1.5c0.6-0.4,1.2-0.5,2-0.5
							c1.2,0,2.1,0.4,2.8,1.2s1.1,1.9,1.1,3.2v0.1c0,0.8-0.2,1.6-0.5,2.2c-0.3,0.7-0.8,1.2-1.4,1.5s-1.3,0.5-2,0.5
							c-1.1,0-2.1-0.4-2.8-1.2s-1.1-1.9-1.1-3.2V336.7z M272.2,336.9c0,0.9,0.2,1.7,0.7,2.3c0.4,0.6,1,0.9,1.7,0.9
							c0.7,0,1.3-0.3,1.8-0.9c0.4-0.6,0.6-1.4,0.6-2.4c0-0.9-0.2-1.7-0.7-2.3c-0.4-0.6-1-0.9-1.8-0.9c-0.7,0-1.3,0.3-1.7,0.9
							S272.2,335.8,272.2,336.9z"/>
						<path class="st5" d="M287.4,336.9c0,1.3-0.3,2.3-0.9,3.1c-0.6,0.8-1.4,1.2-2.4,1.2c-1,0-1.8-0.3-2.4-1v4.1h-1.4v-11.7h1.3
							l0.1,0.9c0.6-0.7,1.4-1.1,2.5-1.1c1,0,1.8,0.4,2.4,1.1c0.6,0.8,0.9,1.8,0.9,3.2V336.9z M285.9,336.7c0-1-0.2-1.7-0.6-2.3
							s-1-0.8-1.7-0.8c-0.9,0-1.5,0.4-2,1.2v4c0.4,0.8,1.1,1.2,2,1.2c0.7,0,1.2-0.3,1.7-0.8C285.7,338.6,285.9,337.8,285.9,336.7z"
							/>
						<path class="st5" d="M291.2,330.5v2h1.6v1.1h-1.6v5.2c0,0.3,0.1,0.6,0.2,0.8c0.1,0.2,0.4,0.3,0.7,0.3c0.2,0,0.4,0,0.7-0.1v1.2
							c-0.4,0.1-0.8,0.2-1.1,0.2c-0.6,0-1.1-0.2-1.5-0.6s-0.5-0.9-0.5-1.7v-5.2h-1.5v-1.1h1.5v-2H291.2z"/>
						<path class="st5" d="M294.4,330.3c0-0.2,0.1-0.4,0.2-0.6c0.1-0.2,0.4-0.2,0.6-0.2s0.5,0.1,0.6,0.2c0.1,0.2,0.2,0.4,0.2,0.6
							s-0.1,0.4-0.2,0.6c-0.1,0.2-0.4,0.2-0.6,0.2s-0.5-0.1-0.6-0.2C294.5,330.7,294.4,330.5,294.4,330.3z M296,341h-1.4v-8.5h1.4
							V341z"/>
						<path class="st5" d="M297.9,336.7c0-0.8,0.2-1.6,0.5-2.2c0.3-0.7,0.8-1.2,1.4-1.5c0.6-0.4,1.2-0.5,2-0.5
							c1.2,0,2.1,0.4,2.8,1.2s1.1,1.9,1.1,3.2v0.1c0,0.8-0.2,1.6-0.5,2.2c-0.3,0.7-0.8,1.2-1.4,1.5s-1.3,0.5-2,0.5
							c-1.1,0-2.1-0.4-2.8-1.2s-1.1-1.9-1.1-3.2V336.7z M299.4,336.9c0,0.9,0.2,1.7,0.7,2.3c0.4,0.6,1,0.9,1.7,0.9
							c0.7,0,1.3-0.3,1.8-0.9c0.4-0.6,0.6-1.4,0.6-2.4c0-0.9-0.2-1.7-0.7-2.3c-0.4-0.6-1-0.9-1.8-0.9c-0.7,0-1.3,0.3-1.7,0.9
							S299.4,335.8,299.4,336.9z"/>
						<path class="st5" d="M308.8,332.5l0,1.1c0.6-0.8,1.5-1.2,2.5-1.2c1.8,0,2.7,1,2.7,3v5.6h-1.4v-5.6c0-0.6-0.1-1.1-0.4-1.4
							s-0.7-0.4-1.3-0.4c-0.5,0-0.9,0.1-1.2,0.4c-0.4,0.2-0.6,0.6-0.8,1v6h-1.4v-8.5H308.8z"/>
						<path class="st5" d="M322.2,334.6h1.1c0.7,0,1.2-0.2,1.6-0.5s0.6-0.8,0.6-1.4c0-1.3-0.7-2-2-2c-0.6,0-1.1,0.2-1.5,0.5
							c-0.4,0.4-0.6,0.8-0.6,1.4H320c0-0.9,0.3-1.6,1-2.2c0.7-0.6,1.5-0.9,2.5-0.9c1.1,0,1.9,0.3,2.5,0.9s0.9,1.4,0.9,2.4
							c0,0.5-0.2,1-0.5,1.4s-0.8,0.8-1.3,1c0.6,0.2,1.1,0.5,1.4,1c0.3,0.5,0.5,1,0.5,1.7c0,1-0.3,1.8-1,2.4
							c-0.7,0.6-1.5,0.9-2.6,0.9c-1.1,0-1.9-0.3-2.6-0.9c-0.7-0.6-1-1.3-1-2.3h1.5c0,0.6,0.2,1.1,0.6,1.4s0.9,0.5,1.6,0.5
							c0.7,0,1.2-0.2,1.6-0.5c0.4-0.4,0.6-0.9,0.6-1.6c0-0.7-0.2-1.2-0.6-1.5s-1-0.5-1.8-0.5h-1.1V334.6z"/>
					</g>
					<g class="st2">
						<path class="st5" d="M270.7,216.7c0-0.8,0.2-1.6,0.5-2.2c0.3-0.7,0.8-1.2,1.4-1.5c0.6-0.4,1.2-0.5,2-0.5
							c1.2,0,2.1,0.4,2.8,1.2s1.1,1.9,1.1,3.2v0.1c0,0.8-0.2,1.6-0.5,2.2c-0.3,0.7-0.8,1.2-1.4,1.5s-1.3,0.5-2,0.5
							c-1.1,0-2.1-0.4-2.8-1.2s-1.1-1.9-1.1-3.2V216.7z M272.2,216.9c0,0.9,0.2,1.7,0.7,2.3c0.4,0.6,1,0.9,1.7,0.9
							c0.7,0,1.3-0.3,1.8-0.9c0.4-0.6,0.6-1.4,0.6-2.4c0-0.9-0.2-1.7-0.7-2.3c-0.4-0.6-1-0.9-1.8-0.9c-0.7,0-1.3,0.3-1.7,0.9
							S272.2,215.8,272.2,216.9z"/>
						<path class="st5" d="M287.4,216.9c0,1.3-0.3,2.3-0.9,3.1c-0.6,0.8-1.4,1.2-2.4,1.2c-1,0-1.8-0.3-2.4-1v4.1h-1.4v-11.7h1.3
							l0.1,0.9c0.6-0.7,1.4-1.1,2.5-1.1c1,0,1.8,0.4,2.4,1.1c0.6,0.8,0.9,1.8,0.9,3.2V216.9z M285.9,216.7c0-1-0.2-1.7-0.6-2.3
							s-1-0.8-1.7-0.8c-0.9,0-1.5,0.4-2,1.2v4c0.4,0.8,1.1,1.2,2,1.2c0.7,0,1.2-0.3,1.7-0.8C285.7,218.6,285.9,217.8,285.9,216.7z"
							/>
						<path class="st5" d="M291.2,210.5v2h1.6v1.1h-1.6v5.2c0,0.3,0.1,0.6,0.2,0.8c0.1,0.2,0.4,0.3,0.7,0.3c0.2,0,0.4,0,0.7-0.1v1.2
							c-0.4,0.1-0.8,0.2-1.1,0.2c-0.6,0-1.1-0.2-1.5-0.6s-0.5-0.9-0.5-1.7v-5.2h-1.5v-1.1h1.5v-2H291.2z"/>
						<path class="st5" d="M294.4,210.3c0-0.2,0.1-0.4,0.2-0.6c0.1-0.2,0.4-0.2,0.6-0.2s0.5,0.1,0.6,0.2c0.1,0.2,0.2,0.4,0.2,0.6
							s-0.1,0.4-0.2,0.6c-0.1,0.2-0.4,0.2-0.6,0.2s-0.5-0.1-0.6-0.2C294.5,210.7,294.4,210.5,294.4,210.3z M296,221h-1.4v-8.5h1.4
							V221z"/>
						<path class="st5" d="M297.9,216.7c0-0.8,0.2-1.6,0.5-2.2c0.3-0.7,0.8-1.2,1.4-1.5c0.6-0.4,1.2-0.5,2-0.5
							c1.2,0,2.1,0.4,2.8,1.2s1.1,1.9,1.1,3.2v0.1c0,0.8-0.2,1.6-0.5,2.2c-0.3,0.7-0.8,1.2-1.4,1.5s-1.3,0.5-2,0.5
							c-1.1,0-2.1-0.4-2.8-1.2s-1.1-1.9-1.1-3.2V216.7z M299.4,216.9c0,0.9,0.2,1.7,0.7,2.3c0.4,0.6,1,0.9,1.7,0.9
							c0.7,0,1.3-0.3,1.8-0.9c0.4-0.6,0.6-1.4,0.6-2.4c0-0.9-0.2-1.7-0.7-2.3c-0.4-0.6-1-0.9-1.8-0.9c-0.7,0-1.3,0.3-1.7,0.9
							S299.4,215.8,299.4,216.9z"/>
						<path class="st5" d="M308.8,212.5l0,1.1c0.6-0.8,1.5-1.2,2.5-1.2c1.8,0,2.7,1,2.7,3v5.6h-1.4v-5.6c0-0.6-0.1-1.1-0.4-1.4
							s-0.7-0.4-1.3-0.4c-0.5,0-0.9,0.1-1.2,0.4c-0.4,0.2-0.6,0.6-0.8,1v6h-1.4v-8.5H308.8z"/>
						<path class="st5" d="M327.5,221h-7.5v-1l3.9-4.4c0.6-0.7,1-1.2,1.2-1.6c0.2-0.4,0.3-0.8,0.3-1.3c0-0.6-0.2-1.1-0.5-1.5
							s-0.8-0.6-1.4-0.6c-0.7,0-1.3,0.2-1.7,0.6s-0.6,1-0.6,1.7h-1.4c0-1,0.3-1.9,1-2.5c0.7-0.6,1.6-1,2.7-1c1.1,0,1.9,0.3,2.5,0.8
							c0.6,0.6,0.9,1.3,0.9,2.2c0,1.1-0.7,2.5-2.1,4l-3,3.3h5.7V221z"/>
					</g>
					<g class="st2">
						<path class="st6" d="M47.3,269.6l3.7,9.3l3.7-9.3h1.9V281h-1.5v-4.4l0.1-4.8l-3.7,9.2h-1.1l-3.7-9.2l0.1,4.8v4.4h-1.5v-11.4
							H47.3z"/>
						<path class="st6" d="M61.8,278.9l2-6.3h1.5l-3.4,9.8c-0.5,1.4-1.4,2.1-2.5,2.1l-0.3,0l-0.5-0.1v-1.2l0.4,0
							c0.5,0,0.9-0.1,1.1-0.3s0.5-0.6,0.7-1.1l0.3-0.9l-3-8.4h1.6L61.8,278.9z"/>
						<path class="st6" d="M79.2,277.4c-0.1,1.2-0.6,2.1-1.3,2.8c-0.7,0.7-1.7,1-3,1c-1.3,0-2.4-0.5-3.2-1.4c-0.8-1-1.2-2.3-1.2-3.9
							v-1.1c0-1.1,0.2-2,0.6-2.8c0.4-0.8,0.9-1.4,1.6-1.8c0.7-0.4,1.5-0.6,2.4-0.6c1.2,0,2.2,0.3,2.9,1c0.7,0.7,1.2,1.6,1.3,2.8
							h-1.5c-0.1-0.9-0.4-1.6-0.8-2c-0.4-0.4-1-0.6-1.8-0.6c-1,0-1.7,0.4-2.3,1.1c-0.5,0.7-0.8,1.7-0.8,3v1.1c0,1.2,0.3,2.2,0.8,2.9
							s1.2,1.1,2.2,1.1c0.8,0,1.5-0.2,1.9-0.6s0.7-1,0.9-2H79.2z"/>
						<path class="st6" d="M82.6,281h-1.4v-12h1.4V281z"/>
						<path class="st6" d="M84.5,276.7c0-0.8,0.2-1.6,0.5-2.2c0.3-0.7,0.8-1.2,1.4-1.5c0.6-0.4,1.2-0.5,2-0.5c1.2,0,2.1,0.4,2.8,1.2
							s1.1,1.9,1.1,3.2v0.1c0,0.8-0.2,1.6-0.5,2.2c-0.3,0.7-0.8,1.2-1.4,1.5s-1.3,0.5-2,0.5c-1.1,0-2.1-0.4-2.8-1.2
							s-1.1-1.9-1.1-3.2V276.7z M86,276.9c0,0.9,0.2,1.7,0.7,2.3c0.4,0.6,1,0.9,1.7,0.9c0.7,0,1.3-0.3,1.8-0.9
							c0.4-0.6,0.6-1.4,0.6-2.4c0-0.9-0.2-1.7-0.7-2.3c-0.4-0.6-1-0.9-1.8-0.9c-0.7,0-1.3,0.3-1.7,0.9S86,275.8,86,276.9z"/>
						<path class="st6" d="M99.2,280.2c-0.6,0.7-1.4,1-2.5,1c-0.9,0-1.6-0.3-2.1-0.8c-0.5-0.5-0.7-1.3-0.7-2.3v-5.5h1.4v5.5
							c0,1.3,0.5,1.9,1.6,1.9c1.1,0,1.8-0.4,2.2-1.2v-6.1h1.4v8.5h-1.4L99.2,280.2z"/>
						<path class="st6" d="M102.5,276.7c0-1.3,0.3-2.3,0.9-3.1c0.6-0.8,1.4-1.2,2.4-1.2c1,0,1.8,0.3,2.4,1V269h1.4v12h-1.3l-0.1-0.9
							c-0.6,0.7-1.4,1.1-2.4,1.1c-1,0-1.8-0.4-2.4-1.2s-0.9-1.8-0.9-3.1V276.7z M103.9,276.9c0,1,0.2,1.7,0.6,2.2
							c0.4,0.5,0.9,0.8,1.6,0.8c0.9,0,1.6-0.4,2-1.2v-3.9c-0.4-0.8-1.1-1.2-2-1.2c-0.7,0-1.3,0.3-1.7,0.8
							C104.1,275,103.9,275.8,103.9,276.9z"/>
						<path class="st6" d="M119.4,275.9c-1.3-0.4-2.2-0.8-2.8-1.4s-0.9-1.2-0.9-2c0-0.9,0.4-1.6,1.1-2.2c0.7-0.6,1.6-0.9,2.8-0.9
							c0.8,0,1.5,0.2,2.1,0.5c0.6,0.3,1.1,0.7,1.4,1.2s0.5,1.1,0.5,1.7h-1.5c0-0.7-0.2-1.2-0.7-1.6s-1.1-0.6-1.9-0.6
							c-0.7,0-1.3,0.2-1.7,0.5s-0.6,0.8-0.6,1.4c0,0.5,0.2,0.9,0.6,1.2c0.4,0.3,1.1,0.6,2,0.9c0.9,0.3,1.7,0.6,2.2,0.9
							c0.5,0.3,0.9,0.7,1.2,1.1s0.4,0.9,0.4,1.5c0,0.9-0.4,1.7-1.1,2.2s-1.7,0.8-2.9,0.8c-0.8,0-1.5-0.1-2.2-0.4
							c-0.7-0.3-1.2-0.7-1.6-1.2s-0.6-1.1-0.6-1.8h1.5c0,0.7,0.3,1.2,0.8,1.6s1.2,0.6,2,0.6c0.8,0,1.4-0.2,1.8-0.5s0.6-0.8,0.6-1.3
							s-0.2-1-0.6-1.3S120.4,276.2,119.4,275.9z"/>
						<path class="st6" d="M128.8,281.2c-1.1,0-2.1-0.4-2.8-1.1s-1.1-1.8-1.1-3v-0.3c0-0.8,0.2-1.6,0.5-2.2s0.8-1.2,1.3-1.5
							c0.6-0.4,1.2-0.6,1.9-0.6c1.1,0,2,0.4,2.6,1.1s0.9,1.8,0.9,3.1v0.6h-5.7c0,0.8,0.3,1.5,0.7,2c0.5,0.5,1.1,0.8,1.8,0.8
							c0.5,0,0.9-0.1,1.3-0.3c0.4-0.2,0.7-0.5,0.9-0.8l0.9,0.7C131.3,280.6,130.2,281.2,128.8,281.2z M128.6,273.6
							c-0.6,0-1.1,0.2-1.5,0.6c-0.4,0.4-0.6,1-0.7,1.8h4.2v-0.1c0-0.7-0.2-1.3-0.6-1.7C129.7,273.8,129.2,273.6,128.6,273.6z"/>
					</g>
					<g class="st2">
						<path class="st6" d="M137.9,273.8c-0.2,0-0.5-0.1-0.7-0.1c-0.9,0-1.6,0.4-1.9,1.2v6h-1.4v-8.5h1.4l0,1c0.5-0.8,1.1-1.1,2-1.1
							c0.3,0,0.5,0,0.6,0.1V273.8z"/>
					</g>
					<g class="st2">
						<path class="st6" d="M142.3,279l2.1-6.5h1.5l-3,8.5h-1.1l-3.1-8.5h1.5L142.3,279z"/>
					</g>
					<g class="st2">
						<path class="st6" d="M150.6,281.2c-1.1,0-2.1-0.4-2.8-1.1s-1.1-1.8-1.1-3v-0.3c0-0.8,0.2-1.6,0.5-2.2s0.8-1.2,1.3-1.5
							c0.6-0.4,1.2-0.6,1.9-0.6c1.1,0,2,0.4,2.6,1.1s0.9,1.8,0.9,3.1v0.6h-5.7c0,0.8,0.3,1.5,0.7,2c0.5,0.5,1.1,0.8,1.8,0.8
							c0.5,0,0.9-0.1,1.3-0.3c0.4-0.2,0.7-0.5,0.9-0.8l0.9,0.7C153.1,280.6,152.1,281.2,150.6,281.2z M150.5,273.6
							c-0.6,0-1.1,0.2-1.5,0.6c-0.4,0.4-0.6,1-0.7,1.8h4.2v-0.1c0-0.7-0.2-1.3-0.6-1.7C151.5,273.8,151.1,273.6,150.5,273.6z"/>
						<path class="st6" d="M159.7,273.8c-0.2,0-0.5-0.1-0.7-0.1c-0.9,0-1.6,0.4-1.9,1.2v6h-1.4v-8.5h1.4l0,1c0.5-0.8,1.1-1.1,2-1.1
							c0.3,0,0.5,0,0.6,0.1V273.8z"/>
						<path class="st6" d="M164,276.8h-3.8v-1.2h3.8V276.8z"/>
						<path class="st6" d="M172.4,276.1c0,1.7-0.3,3-0.9,3.8s-1.5,1.2-2.7,1.2c-1.2,0-2.1-0.4-2.7-1.2c-0.6-0.8-0.9-2-0.9-3.6v-1.9
							c0-1.7,0.3-2.9,0.9-3.7s1.5-1.2,2.7-1.2c1.2,0,2.1,0.4,2.7,1.2s0.9,2,0.9,3.6V276.1z M171,274.2c0-1.2-0.2-2.1-0.5-2.7
							s-0.9-0.8-1.6-0.8c-0.7,0-1.3,0.3-1.6,0.8c-0.3,0.6-0.5,1.4-0.5,2.6v2.3c0,1.2,0.2,2.1,0.5,2.7c0.4,0.6,0.9,0.9,1.6,0.9
							c0.7,0,1.2-0.3,1.6-0.8c0.3-0.6,0.5-1.4,0.5-2.6V274.2z"/>
						<path class="st6" d="M179,281h-1.5v-9.6l-2.9,1.1v-1.3l4.1-1.6h0.2V281z"/>
					</g>
					<g class="st2">
						<path class="st6" d="M47.3,329.6l3.7,9.3l3.7-9.3h1.9V341h-1.5v-4.4l0.1-4.8l-3.7,9.2h-1.1l-3.7-9.2l0.1,4.8v4.4h-1.5v-11.4
							H47.3z"/>
						<path class="st6" d="M61.8,338.9l2-6.3h1.5l-3.4,9.8c-0.5,1.4-1.4,2.1-2.5,2.1l-0.3,0l-0.5-0.1v-1.2l0.4,0
							c0.5,0,0.9-0.1,1.1-0.3s0.5-0.6,0.7-1.1l0.3-0.9l-3-8.4h1.6L61.8,338.9z"/>
						<path class="st6" d="M79.2,337.4c-0.1,1.2-0.6,2.1-1.3,2.8c-0.7,0.7-1.7,1-3,1c-1.3,0-2.4-0.5-3.2-1.4c-0.8-1-1.2-2.3-1.2-3.9
							v-1.1c0-1.1,0.2-2,0.6-2.8c0.4-0.8,0.9-1.4,1.6-1.8c0.7-0.4,1.5-0.6,2.4-0.6c1.2,0,2.2,0.3,2.9,1c0.7,0.7,1.2,1.6,1.3,2.8
							h-1.5c-0.1-0.9-0.4-1.6-0.8-2c-0.4-0.4-1-0.6-1.8-0.6c-1,0-1.7,0.4-2.3,1.1c-0.5,0.7-0.8,1.7-0.8,3v1.1c0,1.2,0.3,2.2,0.8,2.9
							s1.2,1.1,2.2,1.1c0.8,0,1.5-0.2,1.9-0.6s0.7-1,0.9-2H79.2z"/>
						<path class="st6" d="M82.6,341h-1.4v-12h1.4V341z"/>
						<path class="st6" d="M84.5,336.7c0-0.8,0.2-1.6,0.5-2.2c0.3-0.7,0.8-1.2,1.4-1.5c0.6-0.4,1.2-0.5,2-0.5c1.2,0,2.1,0.4,2.8,1.2
							s1.1,1.9,1.1,3.2v0.1c0,0.8-0.2,1.6-0.5,2.2c-0.3,0.7-0.8,1.2-1.4,1.5s-1.3,0.5-2,0.5c-1.1,0-2.1-0.4-2.8-1.2
							s-1.1-1.9-1.1-3.2V336.7z M86,336.9c0,0.9,0.2,1.7,0.7,2.3c0.4,0.6,1,0.9,1.7,0.9c0.7,0,1.3-0.3,1.8-0.9
							c0.4-0.6,0.6-1.4,0.6-2.4c0-0.9-0.2-1.7-0.7-2.3c-0.4-0.6-1-0.9-1.8-0.9c-0.7,0-1.3,0.3-1.7,0.9S86,335.8,86,336.9z"/>
						<path class="st6" d="M99.2,340.2c-0.6,0.7-1.4,1-2.5,1c-0.9,0-1.6-0.3-2.1-0.8c-0.5-0.5-0.7-1.3-0.7-2.3v-5.5h1.4v5.5
							c0,1.3,0.5,1.9,1.6,1.9c1.1,0,1.8-0.4,2.2-1.2v-6.1h1.4v8.5h-1.4L99.2,340.2z"/>
						<path class="st6" d="M102.5,336.7c0-1.3,0.3-2.3,0.9-3.1c0.6-0.8,1.4-1.2,2.4-1.2c1,0,1.8,0.3,2.4,1V329h1.4v12h-1.3l-0.1-0.9
							c-0.6,0.7-1.4,1.1-2.4,1.1c-1,0-1.8-0.4-2.4-1.2s-0.9-1.8-0.9-3.1V336.7z M103.9,336.9c0,1,0.2,1.7,0.6,2.2
							c0.4,0.5,0.9,0.8,1.6,0.8c0.9,0,1.6-0.4,2-1.2v-3.9c-0.4-0.8-1.1-1.2-2-1.2c-0.7,0-1.3,0.3-1.7,0.8
							C104.1,335,103.9,335.8,103.9,336.9z"/>
						<path class="st6" d="M119.4,335.9c-1.3-0.4-2.2-0.8-2.8-1.4s-0.9-1.2-0.9-2c0-0.9,0.4-1.6,1.1-2.2c0.7-0.6,1.6-0.9,2.8-0.9
							c0.8,0,1.5,0.2,2.1,0.5c0.6,0.3,1.1,0.7,1.4,1.2s0.5,1.1,0.5,1.7h-1.5c0-0.7-0.2-1.2-0.7-1.6s-1.1-0.6-1.9-0.6
							c-0.7,0-1.3,0.2-1.7,0.5s-0.6,0.8-0.6,1.4c0,0.5,0.2,0.9,0.6,1.2c0.4,0.3,1.1,0.6,2,0.9c0.9,0.3,1.7,0.6,2.2,0.9
							c0.5,0.3,0.9,0.7,1.2,1.1s0.4,0.9,0.4,1.5c0,0.9-0.4,1.7-1.1,2.2s-1.7,0.8-2.9,0.8c-0.8,0-1.5-0.1-2.2-0.4
							c-0.7-0.3-1.2-0.7-1.6-1.2s-0.6-1.1-0.6-1.8h1.5c0,0.7,0.3,1.2,0.8,1.6s1.2,0.6,2,0.6c0.8,0,1.4-0.2,1.8-0.5s0.6-0.8,0.6-1.3
							s-0.2-1-0.6-1.3S120.4,336.2,119.4,335.9z"/>
						<path class="st6" d="M128.8,341.2c-1.1,0-2.1-0.4-2.8-1.1s-1.1-1.8-1.1-3v-0.3c0-0.8,0.2-1.6,0.5-2.2s0.8-1.2,1.3-1.5
							c0.6-0.4,1.2-0.6,1.9-0.6c1.1,0,2,0.4,2.6,1.1s0.9,1.8,0.9,3.1v0.6h-5.7c0,0.8,0.3,1.5,0.7,2c0.5,0.5,1.1,0.8,1.8,0.8
							c0.5,0,0.9-0.1,1.3-0.3c0.4-0.2,0.7-0.5,0.9-0.8l0.9,0.7C131.3,340.6,130.2,341.2,128.8,341.2z M128.6,333.6
							c-0.6,0-1.1,0.2-1.5,0.6c-0.4,0.4-0.6,1-0.7,1.8h4.2v-0.1c0-0.7-0.2-1.3-0.6-1.7C129.7,333.8,129.2,333.6,128.6,333.6z"/>
					</g>
					<g class="st2">
						<path class="st6" d="M137.9,333.8c-0.2,0-0.5-0.1-0.7-0.1c-0.9,0-1.6,0.4-1.9,1.2v6h-1.4v-8.5h1.4l0,1c0.5-0.8,1.1-1.1,2-1.1
							c0.3,0,0.5,0,0.6,0.1V333.8z"/>
					</g>
					<g class="st2">
						<path class="st6" d="M142.3,339l2.1-6.5h1.5l-3,8.5h-1.1l-3.1-8.5h1.5L142.3,339z"/>
					</g>
					<g class="st2">
						<path class="st6" d="M150.6,341.2c-1.1,0-2.1-0.4-2.8-1.1s-1.1-1.8-1.1-3v-0.3c0-0.8,0.2-1.6,0.5-2.2s0.8-1.2,1.3-1.5
							c0.6-0.4,1.2-0.6,1.9-0.6c1.1,0,2,0.4,2.6,1.1s0.9,1.8,0.9,3.1v0.6h-5.7c0,0.8,0.3,1.5,0.7,2c0.5,0.5,1.1,0.8,1.8,0.8
							c0.5,0,0.9-0.1,1.3-0.3c0.4-0.2,0.7-0.5,0.9-0.8l0.9,0.7C153.1,340.6,152.1,341.2,150.6,341.2z M150.5,333.6
							c-0.6,0-1.1,0.2-1.5,0.6c-0.4,0.4-0.6,1-0.7,1.8h4.2v-0.1c0-0.7-0.2-1.3-0.6-1.7C151.5,333.8,151.1,333.6,150.5,333.6z"/>
						<path class="st6" d="M159.7,333.8c-0.2,0-0.5-0.1-0.7-0.1c-0.9,0-1.6,0.4-1.9,1.2v6h-1.4v-8.5h1.4l0,1c0.5-0.8,1.1-1.1,2-1.1
							c0.3,0,0.5,0,0.6,0.1V333.8z"/>
						<path class="st6" d="M164,336.8h-3.8v-1.2h3.8V336.8z"/>
						<path class="st6" d="M172.4,336.1c0,1.7-0.3,3-0.9,3.8s-1.5,1.2-2.7,1.2c-1.2,0-2.1-0.4-2.7-1.2c-0.6-0.8-0.9-2-0.9-3.6v-1.9
							c0-1.7,0.3-2.9,0.9-3.7s1.5-1.2,2.7-1.2c1.2,0,2.1,0.4,2.7,1.2s0.9,2,0.9,3.6V336.1z M171,334.2c0-1.2-0.2-2.1-0.5-2.7
							s-0.9-0.8-1.6-0.8c-0.7,0-1.3,0.3-1.6,0.8c-0.3,0.6-0.5,1.4-0.5,2.6v2.3c0,1.2,0.2,2.1,0.5,2.7c0.4,0.6,0.9,0.9,1.6,0.9
							c0.7,0,1.2-0.3,1.6-0.8c0.3-0.6,0.5-1.4,0.5-2.6V334.2z"/>
						<path class="st6" d="M181.7,341h-7.5v-1l3.9-4.4c0.6-0.7,1-1.2,1.2-1.6c0.2-0.4,0.3-0.8,0.3-1.3c0-0.6-0.2-1.1-0.5-1.5
							s-0.8-0.6-1.4-0.6c-0.7,0-1.3,0.2-1.7,0.6s-0.6,1-0.6,1.7h-1.4c0-1,0.3-1.9,1-2.5c0.7-0.6,1.6-1,2.7-1c1.1,0,1.9,0.3,2.5,0.8
							c0.6,0.6,0.9,1.3,0.9,2.2c0,1.1-0.7,2.5-2.1,4l-3,3.3h5.7V341z"/>
					</g>
					<path id="Stroke-11-Copy" class="st7" d="M24,304h452"/>
					<path id="Stroke-11-Copy-3" class="st7" d="M24,244h452"/>
					<path id="Fill-22" class="st8" d="M96.8,104.1l-2.3,2.2v-7h-1.8v7l-2.3-2.2l-1.2,1.3L93,109c0.2,0.2,0.4,0.2,0.6,0.2
						c0.2,0,0.4-0.1,0.6-0.2l3.8-3.6L96.8,104.1z"/>
					<rect id="Rectangle" x="24.5" y="125.5" class="st7" width="451" height="241"/>
				</g>
			</g>
		</g>
	</g>
</g>
</svg>
