<?xml version="1.0" encoding="utf-8"?>
<!-- Generator: Adobe Illustrator 21.0.2, SVG Export Plug-In . SVG Version: 6.00 Build 0)  -->
<svg version="1.1" id="Layer_1" xmlns="http://www.w3.org/2000/svg" xmlns:xlink="http://www.w3.org/1999/xlink" x="0px" y="0px"
	 width="508px" height="337px" viewBox="0 0 508 337" style="enable-background:new 0 0 508 337;" xml:space="preserve">
<style type="text/css">
	.st0{filter:url(#filter-2);}
	.st1{fill:#FFFFFF;stroke:#E0E0E0;}
	.st2{enable-background:new    ;}
	.st3{fill:#333333;}
	.st4{fill:#F9CD94;}
	.st5{fill:#F8CC96;}
	.st6{fill:#9CC2EB;}
	.st7{fill:#0C7C84;}
	.st8{fill:#FFFFFF;}
	.st9{fill:#90D5B2;}
	.st10{fill:#FFFFFF;fill-opacity:0;}
	.st11{fill:none;stroke:#0C7481;}
	.st12{fill:#0C7481;}
</style>
<filter  filterUnits="objectBoundingBox" height="104.0%" id="filter-2" width="102.6%" x="-1.3%" y="-1.1%">
	<feMorphology  in="SourceAlpha" operator="dilate" radius="0.5" result="shadowSpreadOuter1"></feMorphology>
	<feOffset  dx="0" dy="3" in="shadowSpreadOuter1" result="shadowOffsetOuter1"></feOffset>
	<feGaussianBlur  in="shadowOffsetOuter1" result="shadowBlurOuter1" stdDeviation="1.5"></feGaussianBlur>
	<feComposite  in="shadowBlurOuter1" in2="SourceAlpha" operator="out" result="shadowBlurOuter1"></feComposite>
	<feColorMatrix  in="shadowBlurOuter1" type="matrix" values="0 0 0 0 0   0 0 0 0 0   0 0 0 0 0  0 0 0 0.16 0"></feColorMatrix>
</filter>
<title>Popover-spacing</title>
<desc>Created with Sketch.</desc>
<g id="_x2A_Document_x2A_">
	<g id="_x32__x29_-Specs-_x26_-States" transform="translate(-412.000000, -876.000000)">
		<g id="Popover-spacing" transform="translate(416.000000, 876.000000)">
			<g id="Fill-227-Copy-3">
				<g class="st0">
					<polygon id="path-1_2_" points="466.4,9.4 457.3,0 448.1,9.4 0,9.4 0,28.3 0,46.7 0,330 500,330 500,9.4 					"/>
				</g>
				<g>
					<polygon id="path-1_1_" class="st1" points="466.4,9.4 457.3,0 448.1,9.4 0,9.4 0,28.3 0,46.7 0,330 500,330 500,9.4 					"/>
				</g>
			</g>
			<g class="st2">
				<path class="st3" d="M27.4,44.5l4.1-11.7h2.1L28.2,47h-1.7l-5.3-14.2h2L27.4,44.5z"/>
				<path class="st3" d="M39.5,47.2c-1.4,0-2.6-0.5-3.5-1.4s-1.3-2.2-1.3-3.8v-0.3c0-1,0.2-2,0.6-2.8s1-1.5,1.7-1.9s1.5-0.7,2.3-0.7
					c1.4,0,2.4,0.5,3.2,1.4s1.1,2.2,1.1,3.9v0.8h-7.2c0,1,0.3,1.9,0.9,2.5s1.3,1,2.2,1c0.6,0,1.2-0.1,1.6-0.4s0.8-0.6,1.2-1l1.1,0.9
					C42.6,46.5,41.2,47.2,39.5,47.2z M39.3,37.7c-0.7,0-1.3,0.3-1.8,0.8s-0.8,1.3-0.9,2.2h5.3v-0.1c-0.1-0.9-0.3-1.6-0.7-2.1
					S40,37.7,39.3,37.7z"/>
				<path class="st3" d="M50.8,38.1c-0.3,0-0.6-0.1-0.9-0.1c-1.2,0-2,0.5-2.4,1.5V47h-1.8V36.4h1.8l0,1.2c0.6-0.9,1.4-1.4,2.5-1.4
					c0.4,0,0.6,0,0.8,0.1V38.1z"/>
				<path class="st3" d="M52.5,33.6c0-0.3,0.1-0.5,0.3-0.7s0.4-0.3,0.8-0.3s0.6,0.1,0.8,0.3s0.3,0.4,0.3,0.7s-0.1,0.5-0.3,0.7
					s-0.4,0.3-0.8,0.3s-0.6-0.1-0.8-0.3S52.5,33.9,52.5,33.6z M54.4,47h-1.8V36.4h1.8V47z"/>
				<path class="st3" d="M58.2,47v-9.2h-1.7v-1.4h1.7v-1.1c0-1.1,0.3-2,0.9-2.6s1.5-0.9,2.6-0.9c0.4,0,0.8,0.1,1.2,0.2l-0.1,1.5
					c-0.3-0.1-0.6-0.1-1-0.1c-0.6,0-1,0.2-1.4,0.5S60,34.7,60,35.3v1.1h2.3v1.4H60V47H58.2z"/>
				<path class="st3" d="M67.7,44.4l2.5-7.9h1.9l-4.2,12.2c-0.7,1.8-1.7,2.6-3.1,2.6l-0.3,0l-0.7-0.1v-1.5l0.5,0
					c0.6,0,1.1-0.1,1.4-0.4s0.6-0.7,0.8-1.4l0.4-1.1l-3.8-10.4h2L67.7,44.4z"/>
				<path class="st3" d="M89,32.8v9.7c0,1.3-0.4,2.4-1.3,3.3s-2,1.3-3.4,1.4l-0.5,0c-1.6,0-2.8-0.4-3.7-1.3s-1.4-2-1.4-3.5v-9.7h1.9
					v9.6c0,1,0.3,1.8,0.8,2.4s1.4,0.9,2.4,0.9c1.1,0,1.9-0.3,2.4-0.8s0.8-1.4,0.8-2.4v-9.6H89z"/>
				<path class="st3" d="M97.8,44.2c0-0.5-0.2-0.9-0.6-1.1s-1-0.5-1.9-0.7s-1.6-0.4-2.2-0.7s-0.9-0.6-1.2-1s-0.4-0.8-0.4-1.3
					c0-0.9,0.4-1.6,1.1-2.2s1.7-0.9,2.8-0.9c1.2,0,2.2,0.3,2.9,0.9s1.1,1.4,1.1,2.4h-1.8c0-0.5-0.2-0.9-0.6-1.3s-0.9-0.5-1.6-0.5
					c-0.7,0-1.2,0.1-1.5,0.4s-0.6,0.7-0.6,1.1c0,0.4,0.2,0.8,0.5,1s1,0.4,1.9,0.6s1.6,0.4,2.2,0.7s1,0.6,1.2,1s0.4,0.9,0.4,1.4
					c0,0.9-0.4,1.7-1.1,2.3s-1.7,0.9-2.9,0.9c-0.8,0-1.6-0.1-2.2-0.4s-1.2-0.7-1.5-1.3s-0.6-1.1-0.6-1.7H93c0,0.6,0.3,1.1,0.7,1.4
					s1,0.5,1.8,0.5c0.7,0,1.2-0.1,1.6-0.4S97.8,44.7,97.8,44.2z"/>
				<path class="st3" d="M106.3,47.2c-1.4,0-2.6-0.5-3.5-1.4s-1.3-2.2-1.3-3.8v-0.3c0-1,0.2-2,0.6-2.8s1-1.5,1.7-1.9
					s1.5-0.7,2.3-0.7c1.4,0,2.4,0.5,3.2,1.4s1.1,2.2,1.1,3.9v0.8h-7.2c0,1,0.3,1.9,0.9,2.5s1.3,1,2.2,1c0.6,0,1.2-0.1,1.6-0.4
					s0.8-0.6,1.2-1l1.1,0.9C109.4,46.5,108.1,47.2,106.3,47.2z M106.1,37.7c-0.7,0-1.3,0.3-1.8,0.8s-0.8,1.3-0.9,2.2h5.3v-0.1
					c-0.1-0.9-0.3-1.6-0.7-2.1S106.9,37.7,106.1,37.7z"/>
				<path class="st3" d="M117.7,38.1c-0.3,0-0.6-0.1-0.9-0.1c-1.2,0-2,0.5-2.4,1.5V47h-1.8V36.4h1.8l0,1.2c0.6-0.9,1.4-1.4,2.5-1.4
					c0.4,0,0.6,0,0.8,0.1V38.1z"/>
			</g>
			<g id="specs-_x2F_-spacing-_x2F_-internal-_x2F_-H-20px" transform="translate(0.000000, 10.000000)">
				<rect id="Rectangle-3-Copy-5" class="st4" width="500" height="20"/>
				<g class="st2">
					<path class="st3" d="M221.3,15h-5.6v-0.8l3-3.3c0.4-0.5,0.7-0.9,0.9-1.2s0.2-0.6,0.2-1c0-0.4-0.1-0.8-0.4-1.1s-0.6-0.4-1.1-0.4
						c-0.5,0-1,0.2-1.3,0.5s-0.4,0.7-0.4,1.3h-1.1c0-0.8,0.3-1.4,0.8-1.9s1.2-0.7,2-0.7c0.8,0,1.4,0.2,1.9,0.6s0.7,1,0.7,1.7
						c0,0.8-0.5,1.8-1.6,3l-2.3,2.5h4.3V15z"/>
					<path class="st3" d="M227.8,11.4c0,1.3-0.2,2.2-0.7,2.8s-1.1,0.9-2,0.9c-0.9,0-1.6-0.3-2-0.9s-0.7-1.5-0.7-2.7v-1.4
						c0-1.3,0.2-2.2,0.7-2.8s1.1-0.9,2-0.9c0.9,0,1.6,0.3,2,0.9s0.7,1.5,0.7,2.7V11.4z M226.7,9.9c0-0.9-0.1-1.6-0.4-2
						s-0.7-0.6-1.2-0.6c-0.6,0-1,0.2-1.2,0.6s-0.4,1.1-0.4,1.9v1.7c0,0.9,0.1,1.6,0.4,2s0.7,0.7,1.2,0.7c0.5,0,0.9-0.2,1.2-0.6
						s0.4-1.1,0.4-2V9.9z"/>
				</g>
			</g>
			<g id="specs-_x2F_-spacing-_x2F_-internal-_x2F_-V-20px" transform="translate(0.000000, 29.000000)">
				<rect id="Rectangle-5-Copy-12" class="st5" width="20" height="302"/>
				<g class="st2">
					<path class="st3" d="M9.3,156H3.7v-0.8l3-3.3c0.4-0.5,0.7-0.9,0.9-1.2s0.2-0.6,0.2-1c0-0.4-0.1-0.8-0.4-1.1s-0.6-0.4-1.1-0.4
						c-0.5,0-1,0.2-1.3,0.5s-0.4,0.7-0.4,1.3H3.5c0-0.8,0.3-1.4,0.8-1.9s1.2-0.7,2-0.7c0.8,0,1.4,0.2,1.9,0.6s0.7,1,0.7,1.7
						c0,0.8-0.5,1.8-1.6,3L5,155.1h4.3V156z"/>
					<path class="st3" d="M15.8,152.4c0,1.3-0.2,2.2-0.7,2.8s-1.1,0.9-2,0.9c-0.9,0-1.6-0.3-2-0.9s-0.7-1.5-0.7-2.7v-1.4
						c0-1.3,0.2-2.2,0.7-2.8s1.1-0.9,2-0.9c0.9,0,1.6,0.3,2,0.9s0.7,1.5,0.7,2.7V152.4z M14.7,150.9c0-0.9-0.1-1.6-0.4-2
						s-0.7-0.6-1.2-0.6c-0.6,0-1,0.2-1.2,0.6s-0.4,1.1-0.4,1.9v1.7c0,0.9,0.1,1.6,0.4,2s0.7,0.7,1.2,0.7c0.5,0,0.9-0.2,1.2-0.6
						s0.4-1.1,0.4-2V150.9z"/>
				</g>
			</g>
			<g id="specs-_x2F_-spacing-_x2F_-internal-_x2F_-V-20px_1_" transform="translate(480.000000, 29.000000)">
				<rect id="Rectangle-5-Copy-12_1_" class="st5" width="20" height="302"/>
				<g class="st2">
					<path class="st3" d="M9.3,156H3.7v-0.8l3-3.3c0.4-0.5,0.7-0.9,0.9-1.2s0.2-0.6,0.2-1c0-0.4-0.1-0.8-0.4-1.1s-0.6-0.4-1.1-0.4
						c-0.5,0-1,0.2-1.3,0.5s-0.4,0.7-0.4,1.3H3.5c0-0.8,0.3-1.4,0.8-1.9s1.2-0.7,2-0.7c0.8,0,1.4,0.2,1.9,0.6s0.7,1,0.7,1.7
						c0,0.8-0.5,1.8-1.6,3L5,155.1h4.3V156z"/>
					<path class="st3" d="M15.8,152.4c0,1.3-0.2,2.2-0.7,2.8s-1.1,0.9-2,0.9c-0.9,0-1.6-0.3-2-0.9s-0.7-1.5-0.7-2.7v-1.4
						c0-1.3,0.2-2.2,0.7-2.8s1.1-0.9,2-0.9c0.9,0,1.6,0.3,2,0.9s0.7,1.5,0.7,2.7V152.4z M14.7,150.9c0-0.9-0.1-1.6-0.4-2
						s-0.7-0.6-1.2-0.6c-0.6,0-1,0.2-1.2,0.6s-0.4,1.1-0.4,1.9v1.7c0,0.9,0.1,1.6,0.4,2s0.7,0.7,1.2,0.7c0.5,0,0.9-0.2,1.2-0.6
						s0.4-1.1,0.4-2V150.9z"/>
				</g>
			</g>
			<g id="specs-_x2F_-spacing-_x2F_-internal-_x2F_-H-20px_1_" transform="translate(20.000000, 311.000000)">
				<rect id="Rectangle-3-Copy-5_1_" class="st4" width="461" height="20"/>
				<g class="st2">
					<path class="st3" d="M204.5,15h-5.6v-0.8l3-3.3c0.4-0.5,0.7-0.9,0.9-1.2s0.2-0.6,0.2-1c0-0.4-0.1-0.8-0.4-1.1s-0.6-0.4-1.1-0.4
						c-0.5,0-1,0.2-1.3,0.5s-0.4,0.7-0.4,1.3h-1.1c0-0.8,0.3-1.4,0.8-1.9s1.2-0.7,2-0.7c0.8,0,1.4,0.2,1.9,0.6s0.7,1,0.7,1.7
						c0,0.8-0.5,1.8-1.6,3l-2.3,2.5h4.3V15z"/>
					<path class="st3" d="M211,11.4c0,1.3-0.2,2.2-0.7,2.8s-1.1,0.9-2,0.9c-0.9,0-1.6-0.3-2-0.9s-0.7-1.5-0.7-2.7v-1.4
						c0-1.3,0.2-2.2,0.7-2.8s1.1-0.9,2-0.9c0.9,0,1.6,0.3,2,0.9S211,8.7,211,10V11.4z M209.9,9.9c0-0.9-0.1-1.6-0.4-2
						s-0.7-0.6-1.2-0.6c-0.6,0-1,0.2-1.2,0.6s-0.4,1.1-0.4,1.9v1.7c0,0.9,0.1,1.6,0.4,2s0.7,0.7,1.2,0.7c0.5,0,0.9-0.2,1.2-0.6
						s0.4-1.1,0.4-2V9.9z"/>
				</g>
			</g>
			<g id="specs-_x2F_-spacing-_x2F_-stack-_x2F_-H-20px" transform="translate(20.000000, 49.000000)">
				<rect id="Rectangle-3-Copy-5_2_" class="st6" width="460" height="20"/>
				<g class="st2">
					<path class="st3" d="M204.1,15h-5.6v-0.8l3-3.3c0.4-0.5,0.7-0.9,0.9-1.2s0.2-0.6,0.2-1c0-0.4-0.1-0.8-0.4-1.1s-0.6-0.4-1.1-0.4
						c-0.5,0-1,0.2-1.3,0.5s-0.4,0.7-0.4,1.3h-1.1c0-0.8,0.3-1.4,0.8-1.9s1.2-0.7,2-0.7c0.8,0,1.4,0.2,1.9,0.6s0.7,1,0.7,1.7
						c0,0.8-0.5,1.8-1.6,3l-2.3,2.5h4.3V15z"/>
					<path class="st3" d="M210.6,11.4c0,1.3-0.2,2.2-0.7,2.8s-1.1,0.9-2,0.9c-0.9,0-1.6-0.3-2-0.9s-0.7-1.5-0.7-2.7v-1.4
						c0-1.3,0.2-2.2,0.7-2.8s1.1-0.9,2-0.9c0.9,0,1.6,0.3,2,0.9s0.7,1.5,0.7,2.7V11.4z M209.5,9.9c0-0.9-0.1-1.6-0.4-2
						s-0.7-0.6-1.2-0.6c-0.6,0-1,0.2-1.2,0.6s-0.4,1.1-0.4,1.9v1.7c0,0.9,0.1,1.6,0.4,2s0.7,0.7,1.2,0.7c0.5,0,0.9-0.2,1.2-0.6
						s0.4-1.1,0.4-2V9.9z"/>
				</g>
			</g>
			<g id="Button_x2F_Standard_x2F_Primary" transform="translate(20.000000, 279.000000)">
				<path id="Rectangle-2" class="st7" d="M2,0h82c1.1,0,2,0.9,2,2v28c0,1.1-0.9,2-2,2H2c-1.1,0-2-0.9-2-2V2C0,0.9,0.9,0,2,0z"/>
				<g class="st2">
					<path class="st8" d="M20.9,17.8c-0.1,1.1-0.5,1.9-1.2,2.5c-0.7,0.6-1.6,0.9-2.7,0.9c-0.8,0-1.5-0.2-2.1-0.6
						c-0.6-0.4-1.1-0.9-1.4-1.6S13,17.5,13,16.6v-0.9c0-0.9,0.2-1.8,0.5-2.5s0.8-1.3,1.4-1.7s1.3-0.6,2.2-0.6c1.1,0,2,0.3,2.7,0.9
						c0.7,0.6,1.1,1.4,1.2,2.5h-1.7c-0.1-0.7-0.3-1.2-0.6-1.5c-0.3-0.3-0.8-0.5-1.5-0.5c-0.8,0-1.3,0.3-1.7,0.8s-0.6,1.4-0.6,2.4
						v0.9c0,1.1,0.2,1.9,0.6,2.5s0.9,0.8,1.7,0.8c0.7,0,1.2-0.2,1.5-0.5s0.6-0.8,0.6-1.5H20.9z"/>
					<path class="st8" d="M30.4,16.3c0,1-0.2,1.8-0.5,2.6c-0.3,0.7-0.8,1.3-1.4,1.7c-0.6,0.4-1.3,0.6-2.2,0.6
						c-0.8,0-1.5-0.2-2.2-0.6c-0.6-0.4-1.1-1-1.5-1.7s-0.5-1.6-0.5-2.5v-0.6c0-1,0.2-1.8,0.5-2.6s0.8-1.3,1.5-1.7
						c0.6-0.4,1.3-0.6,2.2-0.6s1.5,0.2,2.2,0.6c0.6,0.4,1.1,1,1.5,1.7c0.3,0.7,0.5,1.6,0.5,2.6V16.3z M28.7,15.8
						c0-1.1-0.2-1.9-0.6-2.5s-1-0.9-1.8-0.9c-0.7,0-1.3,0.3-1.8,0.9c-0.4,0.6-0.6,1.4-0.6,2.5v0.6c0,1.1,0.2,1.9,0.6,2.5
						s1,0.9,1.8,0.9c0.8,0,1.4-0.3,1.8-0.9s0.6-1.4,0.6-2.6V15.8z"/>
					<path class="st8" d="M40,21h-1.7l-4.4-7.1V21h-1.7V11h1.7l4.5,7.1V11H40V21z"/>
					<path class="st8" d="M47.8,16.8h-4V21h-1.7V11h6.3v1.4h-4.6v3h4V16.8z"/>
					<path class="st8" d="M51.6,21h-1.7V11h1.7V21z"/>
					<path class="st8" d="M57.4,17.2h-1.9V21h-1.7V11h3.5c1.1,0,2,0.3,2.7,0.8s0.9,1.3,0.9,2.2c0,0.7-0.2,1.2-0.5,1.7
						s-0.8,0.8-1.3,1l2.2,4.1V21h-1.9L57.4,17.2z M55.4,15.8h1.8c0.6,0,1-0.1,1.4-0.4c0.3-0.3,0.5-0.7,0.5-1.2
						c0-0.5-0.2-0.9-0.5-1.2s-0.8-0.4-1.4-0.5h-1.8V15.8z"/>
					<path class="st8" d="M64.7,11l2.9,7.6l2.9-7.6h2.2v10h-1.7v-3.3l0.2-4.4L68.2,21h-1.2L64,13.3l0.2,4.4V21h-1.7V11H64.7z"/>
				</g>
			</g>
			<g id="specs-_x2F_-spacing-_x2F_-inline-_x2F_-V-20px" transform="translate(106.000000, 280.000000)">
				<rect id="Rectangle-5-Copy-25" class="st9" width="20" height="32"/>
				<g class="st2">
					<path class="st3" d="M9.3,20.4H3.7v-0.8l3-3.3c0.4-0.5,0.7-0.9,0.9-1.2s0.2-0.6,0.2-1c0-0.4-0.1-0.8-0.4-1.1s-0.6-0.4-1.1-0.4
						c-0.5,0-1,0.2-1.3,0.5s-0.4,0.7-0.4,1.3H3.5c0-0.8,0.3-1.4,0.8-1.9s1.2-0.7,2-0.7c0.8,0,1.4,0.2,1.9,0.6s0.7,1,0.7,1.7
						c0,0.8-0.5,1.8-1.6,3L5,19.5h4.3V20.4z"/>
					<path class="st3" d="M15.8,16.7c0,1.3-0.2,2.2-0.7,2.8s-1.1,0.9-2,0.9c-0.9,0-1.6-0.3-2-0.9s-0.7-1.5-0.7-2.7v-1.4
						c0-1.3,0.2-2.2,0.7-2.8s1.1-0.9,2-0.9c0.9,0,1.6,0.3,2,0.9s0.7,1.5,0.7,2.7V16.7z M14.7,15.2c0-0.9-0.1-1.6-0.4-2
						s-0.7-0.6-1.2-0.6c-0.6,0-1,0.2-1.2,0.6s-0.4,1.1-0.4,1.9v1.7c0,0.9,0.1,1.6,0.4,2s0.7,0.7,1.2,0.7c0.5,0,0.9-0.2,1.2-0.6
						s0.4-1.1,0.4-2V15.2z"/>
				</g>
			</g>
			<g id="specs-_x2F_-spacing-_x2F_-stack-_x2F_-H-20px_1_" transform="translate(20.000000, 260.000000)">
				<rect id="Rectangle-3-Copy-5_3_" class="st6" width="189" height="20"/>
				<g class="st2">
					<path class="st3" d="M87.6,15H82v-0.8l3-3.3c0.4-0.5,0.7-0.9,0.9-1.2s0.2-0.6,0.2-1c0-0.4-0.1-0.8-0.4-1.1s-0.6-0.4-1.1-0.4
						c-0.5,0-1,0.2-1.3,0.5S82.9,8.4,82.9,9h-1.1c0-0.8,0.3-1.4,0.8-1.9s1.2-0.7,2-0.7c0.8,0,1.4,0.2,1.9,0.6s0.7,1,0.7,1.7
						c0,0.8-0.5,1.8-1.6,3l-2.3,2.5h4.3V15z"/>
					<path class="st3" d="M94.1,11.4c0,1.3-0.2,2.2-0.7,2.8s-1.1,0.9-2,0.9c-0.9,0-1.6-0.3-2-0.9s-0.7-1.5-0.7-2.7v-1.4
						c0-1.3,0.2-2.2,0.7-2.8s1.1-0.9,2-0.9c0.9,0,1.6,0.3,2,0.9s0.7,1.5,0.7,2.7V11.4z M93,9.9c0-0.9-0.1-1.6-0.4-2
						s-0.7-0.6-1.2-0.6c-0.6,0-1,0.2-1.2,0.6s-0.4,1.1-0.4,1.9v1.7c0,0.9,0.1,1.6,0.4,2s0.7,0.7,1.2,0.7c0.5,0,0.9-0.2,1.2-0.6
						s0.4-1.1,0.4-2V9.9z"/>
				</g>
			</g>
			<g id="Button_x2F_Standard_x2F_Secondary" transform="translate(126.000000, 280.000000)">
				<g id="Rectangle-2_1_">
					<g>
						<path id="path-3" class="st10" d="M2,0h79c1.1,0,2,0.9,2,2v28c0,1.1-0.9,2-2,2H2c-1.1,0-2-0.9-2-2V2C0,0.9,0.9,0,2,0z"/>
					</g>
					<path class="st11" d="M2.5,0.5h78c1.1,0,2,0.9,2,2v27c0,1.1-0.9,2-2,2h-78c-1.1,0-2-0.9-2-2v-27C0.5,1.4,1.4,0.5,2.5,0.5z"/>
				</g>
				<g class="st2">
					<path class="st12" d="M23.6,17.8c-0.1,1.1-0.5,1.9-1.2,2.5c-0.7,0.6-1.6,0.9-2.7,0.9c-0.8,0-1.5-0.2-2.1-0.6
						c-0.6-0.4-1.1-0.9-1.4-1.6s-0.5-1.5-0.5-2.4v-0.9c0-0.9,0.2-1.8,0.5-2.5s0.8-1.3,1.4-1.7s1.3-0.6,2.2-0.6c1.1,0,2,0.3,2.7,0.9
						c0.7,0.6,1.1,1.4,1.2,2.5h-1.7c-0.1-0.7-0.3-1.2-0.6-1.5c-0.3-0.3-0.8-0.5-1.5-0.5c-0.8,0-1.3,0.3-1.7,0.8s-0.6,1.4-0.6,2.4
						v0.9c0,1.1,0.2,1.9,0.6,2.5s0.9,0.8,1.7,0.8c0.7,0,1.2-0.2,1.5-0.5s0.6-0.8,0.6-1.5H23.6z"/>
					<path class="st12" d="M30.7,18.7h-3.9L26,21h-1.8L28,11h1.6l3.8,10h-1.8L30.7,18.7z M27.3,17.3h2.9l-1.4-4.1L27.3,17.3z"/>
					<path class="st12" d="M42.4,21h-1.7l-4.4-7.1V21h-1.7V11h1.7l4.5,7.1V11h1.7V21z"/>
					<path class="st12" d="M52,17.8c-0.1,1.1-0.5,1.9-1.2,2.5c-0.7,0.6-1.6,0.9-2.7,0.9c-0.8,0-1.5-0.2-2.1-0.6
						c-0.6-0.4-1.1-0.9-1.4-1.6s-0.5-1.5-0.5-2.4v-0.9c0-0.9,0.2-1.8,0.5-2.5s0.8-1.3,1.4-1.7s1.3-0.6,2.2-0.6c1.1,0,2,0.3,2.7,0.9
						c0.7,0.6,1.1,1.4,1.2,2.5h-1.7c-0.1-0.7-0.3-1.2-0.6-1.5c-0.3-0.3-0.8-0.5-1.5-0.5c-0.8,0-1.3,0.3-1.7,0.8s-0.6,1.4-0.6,2.4
						v0.9c0,1.1,0.2,1.9,0.6,2.5s0.9,0.8,1.7,0.8c0.7,0,1.2-0.2,1.5-0.5s0.6-0.8,0.6-1.5H52z"/>
					<path class="st12" d="M59.4,16.6h-4.1v3.1H60V21h-6.5V11H60v1.4h-4.7v2.7h4.1V16.6z"/>
					<path class="st12" d="M63.2,19.6h4.5V21h-6.2V11h1.7V19.6z"/>
				</g>
			</g>
		</g>
	</g>
</g>
</svg>
