<?xml version="1.0" encoding="UTF-8" standalone="no"?>
<svg width="502px" height="331px" viewBox="0 0 502 331" version="1.1" xmlns="http://www.w3.org/2000/svg" xmlns:xlink="http://www.w3.org/1999/xlink">
    <!-- Generator: Sketch 47 (45396) - http://www.bohemiancoding.com/sketch -->
    <title>popover-small-create-edit-popover</title>
    <desc>Created with Sketch.</desc>
    <defs></defs>
    <g stroke="none" stroke-width="1" fill="none" fill-rule="evenodd">
        <g transform="translate(1.000000, 0.000000)">
            <g transform="translate(49.000000, 257.000000)" font-size="11" font-family="Roboto-Regular, Roboto" fill="#FFFFFF" font-weight="normal">
                <text>
                    <tspan x="0" y="12">20</tspan>
                </text>
                <text>
                    <tspan x="12.3911133" y="12">p</tspan>
                </text>
                <text>
                    <tspan x="18.4723" y="12">x</tspan>
                </text>
                <text>
                    <tspan x="23.9990266" y="12">/1.25</tspan>
                </text>
                <text>
                    <tspan x="50.0864289" y="12">e</tspan>
                </text>
                <text>
                    <tspan x="55.891223" y="12">m</tspan>
                </text>
            </g>
            <g>
                <g>
                    <g fill="#000000" fill-rule="nonzero">
                        <polygon points="466.444 9.43880195 457.265 0 448.087 9.43880195 0 9.43880195 0 28.3304085 0 46.6909137 0 330 500 330 500 9.43880195"></polygon>
                    </g>
                    <g fill="#FFFFFF" stroke="#E0E0E0">
                        <polygon points="466.444 9.43880195 457.265 0 448.087 9.43880195 0 9.43880195 0 28.3304085 0 46.6909137 0 330 500 330 500 9.43880195"></polygon>
                    </g>
                </g>
                <g transform="translate(20.000000, 278.000000)">
                    <rect fill="#0C7C84" x="0" y="0" width="92" height="32" rx="2"></rect>
                    <g transform="translate(11.000000, 10.000000)" fill="#FFFFFF">
                        <path d="M4.73046879,8.39550781 L4.90820316,9.0859375 L4.94921879,9.0859375 L5.12011722,8.40917969 L7.49902347,1.046875 L9.26953129,1.046875 L5.71484379,11 L4.13574222,11 L0.587890662,1.046875 L2.35839847,1.046875 L4.73046879,8.39550781 Z M13.0976563,11.1435547 C12.049474,11.1435547 11.2143586,10.8006219 10.5922852,10.1147461 C9.97021177,9.42887027 9.65917972,8.54818246 9.65917972,7.47265625 L9.65917972,7.19921875 C9.65917972,6.12369254 9.96793315,5.23161162 10.5854493,4.52294922 C11.2029654,3.81428682 11.9765579,3.46223956 12.90625,3.46679688 C13.9043019,3.46679688 14.6687799,3.76871443 15.1997071,4.37255859 C15.7306342,4.97640276 15.9960938,5.78645325 15.9960938,6.80273438 L15.9960938,7.78027344 L11.381836,7.78027344 L11.3681641,7.81445312 C11.395508,8.40234669 11.567544,8.88313615 11.8842774,9.25683594 C12.2010107,9.63053572 12.6396457,9.81738281 13.2001953,9.81738281 C13.6468122,9.81738281 14.0296208,9.76269586 14.3486328,9.65332031 C14.6676449,9.54394477 14.975259,9.38671978 15.2714844,9.18164062 L15.8046875,10.2685547 C15.5266914,10.5146497 15.1575544,10.7220044 14.6972657,10.890625 C14.2369769,11.0592456 13.7037791,11.1435547 13.0976563,11.1435547 Z M12.90625,4.79980469 C12.4960917,4.79980469 12.1588555,4.96272624 11.8945313,5.28857422 C11.630207,5.6144222 11.4661462,6.02799229 11.4023438,6.52929688 L11.4160157,6.56347656 L14.3486328,6.56347656 L14.3486328,6.39257812 C14.3486328,5.92317474 14.2290051,5.54036606 13.9897461,5.24414062 C13.7504871,4.94791519 13.3893254,4.79980469 12.90625,4.79980469 Z M21.0205079,5.10058594 L20.3095704,5.07324219 C19.986001,5.07324219 19.7159842,5.14160088 19.4995118,5.27832031 C19.2830393,5.41503975 19.1155605,5.60872271 18.9970704,5.859375 L18.9970704,11 L17.3359375,11 L17.3359375,3.60351562 L18.8535157,3.60351562 L18.9628907,4.67675781 C19.1497406,4.29850071 19.3901353,4.00227972 19.6840821,3.78808594 C19.9780289,3.57389216 20.3164044,3.46679688 20.6992188,3.46679688 C20.7994797,3.46679688 20.8929033,3.47477206 20.9794922,3.49072266 C21.0660812,3.50667326 21.145833,3.52604155 21.21875,3.54882812 L21.0205079,5.10058594 Z M23.953125,11 L22.2919922,11 L22.2919922,3.60351562 L23.953125,3.60351562 L23.953125,11 Z M23.953125,1.79199219 L22.2919922,1.79199219 L22.2919922,0.3359375 L23.953125,0.3359375 L23.953125,1.79199219 Z M26.3525391,11 L26.3525391,4.83398438 L25.2246094,4.83398438 L25.2246094,3.60351562 L26.3525391,3.60351562 L26.3525391,2.7421875 C26.3525391,1.92642821 26.5747048,1.29752825 27.019043,0.85546875 C27.4633812,0.413409248 28.0865846,0.192382812 28.8886719,0.192382812 C29.0481779,0.192382812 29.2099602,0.204915239 29.3740235,0.229980469 C29.5380868,0.255045698 29.7226553,0.290364355 29.9277344,0.3359375 L29.756836,1.62109375 C29.6656897,1.60286449 29.564291,1.58691413 29.4526368,1.57324219 C29.3409826,1.55957024 29.2213548,1.55273437 29.09375,1.55273437 C28.7337222,1.55273437 28.4637054,1.65527241 28.2836914,1.86035156 C28.1036775,2.06543071 28.0136719,2.35937309 28.0136719,2.7421875 L28.0136719,3.60351562 L29.5175782,3.60351562 L29.5175782,4.83398438 L28.0136719,4.83398438 L28.0136719,11 L26.3525391,11 Z M33.1816407,8.03320312 L33.3457032,8.77148438 L33.3867188,8.77148438 L35.006836,3.60351562 L36.8251954,3.60351562 L33.7626954,12.1210938 C33.5667308,12.6360703 33.2910174,13.0758445 32.9355469,13.4404297 C32.5800764,13.8050148 32.0765007,13.9873047 31.4248047,13.9873047 C31.2880853,13.9873047 31.1411141,13.9736329 30.9838868,13.9462891 C30.8266594,13.9189452 30.675131,13.8870445 30.5292969,13.8505859 L30.7138672,12.5654297 C30.7731123,12.569987 30.8574214,12.5768229 30.9667969,12.5859375 C31.0761725,12.5950521 31.1582029,12.5996094 31.2128907,12.5996094 C31.5136734,12.5996094 31.7540681,12.4970713 31.9340821,12.2919922 C32.114096,12.086913 32.2610672,11.8499362 32.375,11.5810547 L32.6484375,10.9111328 L29.9619141,3.60351562 L31.7734375,3.60351562 L33.1816407,8.03320312 Z M49.0820313,1.046875 L49.0820313,7.71875 C49.0820313,8.8216201 48.7220088,9.66812856 48.0019532,10.2583008 C47.2818975,10.848473 46.3408262,11.1435547 45.178711,11.1435547 C44.0393824,11.1435547 43.11654,10.8473337 42.4101563,10.2548828 C41.7037725,9.66243193 41.350586,8.81706278 41.350586,7.71875 L41.350586,1.046875 L43.0117188,1.046875 L43.0117188,7.71875 C43.0117188,8.41601911 43.2076804,8.94010241 43.5996094,9.29101562 C43.9915385,9.64192884 44.5179004,9.81738281 45.178711,9.81738281 C45.8623081,9.81738281 46.4068991,9.64192884 46.8125,9.29101562 C47.218101,8.94010241 47.4208985,8.41601911 47.4208985,7.71875 L47.4208985,1.046875 L49.0820313,1.046875 Z M55.0087891,8.99023438 C55.0087891,8.73502477 54.8994152,8.52311282 54.6806641,8.35449219 C54.461913,8.18587155 54.0540395,8.03776105 53.4570313,7.91015625 C52.5729123,7.72330636 51.9041364,7.45784677 51.4506836,7.11376953 C50.9972308,6.76969229 50.7705078,6.30143525 50.7705078,5.70898438 C50.7705078,5.08918961 51.0325495,4.56054906 51.5566407,4.12304688 C52.0807318,3.68554469 52.7711546,3.46679688 53.6279297,3.46679688 C54.530278,3.46679688 55.2469049,3.68896262 55.7778321,4.13330078 C56.3087592,4.57763894 56.5628257,5.12792641 56.5400391,5.78417969 L56.5263672,5.82519531 L54.9335938,5.82519531 C54.9335938,5.51985524 54.817384,5.25781359 54.584961,5.0390625 C54.3525379,4.82031141 54.0335307,4.7109375 53.6279297,4.7109375 C53.2268861,4.7109375 52.9215506,4.80094311 52.7119141,4.98095703 C52.5022776,5.16097095 52.397461,5.38085808 52.397461,5.640625 C52.397461,5.90039192 52.4965811,6.10660731 52.6948243,6.25927734 C52.8930674,6.41194738 53.2952444,6.54752545 53.9013672,6.66601562 C54.8310594,6.85742283 55.5203428,7.12743966 55.9692383,7.47607422 C56.4181338,7.82470877 56.6425782,8.29980168 56.6425782,8.90136719 C56.6425782,9.5667351 56.3680041,10.1067688 55.8188477,10.5214844 C55.2696913,10.9362 54.5462285,11.1435547 53.6484375,11.1435547 C52.6868442,11.1435547 51.9280627,10.8974634 51.3720703,10.4052734 C50.816078,9.91308348 50.5517577,9.34798496 50.5791016,8.70996094 L50.5927735,8.66894531 L52.1376953,8.66894531 C52.1559246,9.09733287 52.310871,9.40950423 52.6025391,9.60546875 C52.8942072,9.80143327 53.2496724,9.89941406 53.6689453,9.89941406 C54.0973329,9.89941406 54.4277333,9.81738363 54.6601563,9.65332031 C54.8925793,9.48925699 55.0087891,9.26823056 55.0087891,8.99023438 Z M61.3046875,11.1435547 C60.2565052,11.1435547 59.4213899,10.8006219 58.7993164,10.1147461 C58.177243,9.42887027 57.866211,8.54818246 57.866211,7.47265625 L57.866211,7.19921875 C57.866211,6.12369254 58.1749644,5.23161162 58.7924805,4.52294922 C59.4099966,3.81428682 60.1835891,3.46223956 61.1132813,3.46679688 C62.1113332,3.46679688 62.8758112,3.76871443 63.4067383,4.37255859 C63.9376655,4.97640276 64.203125,5.78645325 64.203125,6.80273438 L64.203125,7.78027344 L59.5888672,7.78027344 L59.5751954,7.81445312 C59.6025392,8.40234669 59.7745753,8.88313615 60.0913086,9.25683594 C60.408042,9.63053572 60.8466769,9.81738281 61.4072266,9.81738281 C61.8538434,9.81738281 62.2366521,9.76269586 62.5556641,9.65332031 C62.8746761,9.54394477 63.1822902,9.38671978 63.4785157,9.18164062 L64.0117188,10.2685547 C63.7337226,10.5146497 63.3645857,10.7220044 62.9042969,10.890625 C62.4440082,11.0592456 61.9108104,11.1435547 61.3046875,11.1435547 Z M61.1132813,4.79980469 C60.703123,4.79980469 60.3658868,4.96272624 60.1015625,5.28857422 C59.8372383,5.6144222 59.6731774,6.02799229 59.609375,6.52929688 L59.6230469,6.56347656 L62.5556641,6.56347656 L62.5556641,6.39257812 C62.5556641,5.92317474 62.4360364,5.54036606 62.1967774,5.24414062 C61.9575184,4.94791519 61.5963566,4.79980469 61.1132813,4.79980469 Z M69.2275391,5.10058594 L68.5166016,5.07324219 C68.1930323,5.07324219 67.9230154,5.14160088 67.706543,5.27832031 C67.4900706,5.41503975 67.3225918,5.60872271 67.2041016,5.859375 L67.2041016,11 L65.5429688,11 L65.5429688,3.60351562 L67.0605469,3.60351562 L67.1699219,4.67675781 C67.3567718,4.29850071 67.5971665,4.00227972 67.8911133,3.78808594 C68.1850601,3.57389216 68.5234356,3.46679688 68.90625,3.46679688 C69.006511,3.46679688 69.0999345,3.47477206 69.1865235,3.49072266 C69.2731124,3.50667326 69.3528643,3.52604155 69.4257813,3.54882812 L69.2275391,5.10058594 Z"></path>
                    </g>
                </g>
                <g transform="translate(124.000000, 288.000000)" fill="#0C7C84">
                    <g>
                        <path d="M8.42968749,7.69824219 L8.44335936,7.73925781 C8.46158862,8.74642431 8.13460621,9.56558929 7.46240233,10.1967773 C6.79019845,10.8279654 5.87988854,11.1435547 4.7314453,11.1435547 C3.56933011,11.1435547 2.62484086,10.7527708 1.89794921,9.97119141 C1.17105755,9.18961198 0.807617175,8.19043577 0.807617175,6.97363281 L0.807617175,5.08007812 C0.807617175,3.86783248 1.1665003,2.86865627 1.88427733,2.08251953 C2.60205436,1.29638279 3.5351505,0.903320312 4.68359374,0.903320312 C5.85938087,0.903320312 6.78564113,1.21207374 7.46240233,1.82958984 C8.13916353,2.44710595 8.46842456,3.27766405 8.4501953,4.32128906 L8.43652343,4.36230469 L6.83007811,4.36230469 C6.83007811,3.69237946 6.64892758,3.17057479 6.28662108,2.796875 C5.92431458,2.42317521 5.38997748,2.23632812 4.68359374,2.23632812 C4.00455388,2.23632812 3.46565953,2.50520564 3.06689452,3.04296875 C2.6681295,3.58073186 2.46874999,4.25520428 2.46874999,5.06640625 L2.46874999,6.97363281 C2.46874999,7.79394941 2.67268675,8.47297908 3.08056639,9.01074219 C3.48844604,9.54850529 4.0387335,9.81738281 4.7314453,9.81738281 C5.41959978,9.81738281 5.94140446,9.63281435 6.29687499,9.26367188 C6.65234551,8.8945294 6.83007811,8.37272473 6.83007811,7.69824219 L8.42968749,7.69824219 Z M14.3085937,11 C14.2493486,10.8131501 14.2003583,10.6308603 14.1616211,10.453125 C14.1228839,10.2753897 14.0966797,10.0976571 14.0830078,9.91992188 C13.8551421,10.2662778 13.5555031,10.5568022 13.184082,10.7915039 C12.8126609,11.0262056 12.3968122,11.1435547 11.9365234,11.1435547 C11.1663373,11.1435547 10.5750346,10.9453145 10.1625976,10.5488281 C9.75016069,10.1523418 9.5439453,9.60775086 9.5439453,8.91503906 C9.5439453,8.19954069 9.82649456,7.64241736 10.3916016,7.24365234 C10.9567085,6.84488733 11.751948,6.64550781 12.7773437,6.64550781 L14.0693359,6.64550781 L14.0693359,5.99609375 C14.0693359,5.60872202 13.9554048,5.30566516 13.7275391,5.08691406 C13.4996733,4.86816297 13.1738302,4.75878906 12.75,4.75878906 C12.3717429,4.75878906 12.0709646,4.84993398 11.8476562,5.03222656 C11.6243478,5.21451914 11.5126953,5.44921731 11.5126953,5.73632812 L9.91308593,5.73632812 L9.90624999,5.6953125 C9.87434879,5.11197625 10.1352511,4.59472882 10.6889648,4.14355469 C11.2426785,3.69238056 11.9638627,3.46679688 12.8525391,3.46679688 C13.7138715,3.46679688 14.4088515,3.68554469 14.9375,4.12304688 C15.4661485,4.56054906 15.7304687,5.18944902 15.7304687,6.00976562 L15.7304687,9.29785156 C15.7304687,9.60319163 15.7509763,9.89599469 15.7919922,10.1762695 C15.833008,10.4565444 15.8990881,10.7311184 15.9902344,11 L14.3085937,11 Z M12.2714844,9.81054688 C12.6907573,9.81054688 13.0678694,9.70573021 13.402832,9.49609375 C13.7377946,9.28645729 13.9599604,9.04720187 14.0693359,8.77832031 L14.0693359,7.68457031 L12.75,7.68457031 C12.2669247,7.68457031 11.8886732,7.80419802 11.6152344,8.04345703 C11.3417955,8.28271604 11.2050781,8.56412599 11.2050781,8.88769531 C11.2050781,9.17024881 11.2973623,9.39469318 11.4819336,9.56103516 C11.6665048,9.72737713 11.9296858,9.81054688 12.2714844,9.81054688 Z M18.9775391,3.60351562 L19.0732422,4.66992188 C19.3147798,4.29166478 19.618976,3.99658309 19.9858398,3.78466797 C20.3527036,3.57275285 20.7662737,3.46679688 21.2265625,3.46679688 C21.9967486,3.46679688 22.5971658,3.70035574 23.027832,4.16748047 C23.4584982,4.6346052 23.6738281,5.36262526 23.6738281,6.3515625 L23.6738281,11 L22.0126953,11 L22.0126953,6.36523438 C22.0126953,5.80924201 21.8976248,5.41390091 21.6674805,5.17919922 C21.4373361,4.94449752 21.0875674,4.82714844 20.6181641,4.82714844 C20.2945947,4.82714844 20.0052096,4.89892506 19.75,5.04248047 C19.4947904,5.18603587 19.2851571,5.38313677 19.1210937,5.63378906 L19.1210937,11 L17.4599609,11 L17.4599609,3.60351562 L18.9775391,3.60351562 Z M28.4589844,9.81738281 C28.8645853,9.81738281 29.2063788,9.6977551 29.484375,9.45849609 C29.7623712,9.21923708 29.9013672,8.91959815 29.9013672,8.55957031 L31.4052734,8.55957031 L31.4189453,8.60058594 C31.4417319,9.29329773 31.1603219,9.89029697 30.574707,10.3916016 C29.9890921,10.8929062 29.2838583,11.1435547 28.4589844,11.1435547 C27.3697862,11.1435547 26.5346709,10.7926467 25.9536133,10.0908203 C25.3725557,9.38899389 25.0820312,8.5003309 25.0820312,7.42480469 L25.0820312,7.18554688 C25.0820312,6.11457798 25.3725557,5.2270543 25.9536133,4.52294922 C26.5346709,3.81884414 27.3697862,3.46679688 28.4589844,3.46679688 C29.3476607,3.46679688 30.0688449,3.72542059 30.6225586,4.24267578 C31.1762723,4.75993097 31.4440105,5.41731372 31.4257812,6.21484375 L31.4121094,6.25585938 L29.9013672,6.25585938 C29.9013672,5.85025839 29.7680677,5.50618631 29.5014648,5.22363281 C29.2348619,4.94107932 28.8873719,4.79980469 28.4589844,4.79980469 C27.8346323,4.79980469 27.3925794,5.02652768 27.1328125,5.47998047 C26.8730456,5.93343326 26.7431641,6.50194971 26.7431641,7.18554688 L26.7431641,7.42480469 C26.7431641,8.1220738 26.8730456,8.6951475 27.1328125,9.14404297 C27.3925794,9.59293844 27.8346323,9.81738281 28.4589844,9.81738281 Z M35.9238281,11.1435547 C34.8756458,11.1435547 34.0405304,10.8006219 33.418457,10.1147461 C32.7963836,9.42887027 32.4853516,8.54818246 32.4853516,7.47265625 L32.4853516,7.19921875 C32.4853516,6.12369254 32.794105,5.23161162 33.4116211,4.52294922 C34.0291372,3.81428682 34.8027297,3.46223956 35.7324219,3.46679688 C36.7304737,3.46679688 37.4949518,3.76871443 38.0258789,4.37255859 C38.556806,4.97640276 38.8222656,5.78645325 38.8222656,6.80273438 L38.8222656,7.78027344 L34.2080078,7.78027344 L34.1943359,7.81445312 C34.2216798,8.40234669 34.3937159,8.88313615 34.7104492,9.25683594 C35.0271826,9.63053572 35.4658175,9.81738281 36.0263672,9.81738281 C36.472984,9.81738281 36.8557927,9.76269586 37.1748047,9.65332031 C37.4938167,9.54394477 37.8014308,9.38671978 38.0976562,9.18164062 L38.6308594,10.2685547 C38.3528632,10.5146497 37.9837262,10.7220044 37.5234375,10.890625 C37.0631487,11.0592456 36.5299509,11.1435547 35.9238281,11.1435547 Z M35.7324219,4.79980469 C35.3222636,4.79980469 34.9850274,4.96272624 34.7207031,5.28857422 C34.4563789,5.6144222 34.292318,6.02799229 34.2285156,6.52929688 L34.2421875,6.56347656 L37.1748047,6.56347656 L37.1748047,6.39257812 C37.1748047,5.92317474 37.055177,5.54036606 36.815918,5.24414062 C36.5766589,4.94791519 36.2154972,4.79980469 35.7324219,4.79980469 Z M41.9326172,11 L40.2714844,11 L40.2714844,0.3359375 L41.9326172,0.3359375 L41.9326172,11 Z"></path>
                    </g>
                </g>
                <g transform="translate(20.000000, 88.000000)">
                    <g fill="#FFFFFF">
                        <rect x="0" y="0" width="252" height="32" rx="2"></rect>
                    </g>
                    <rect stroke="#BDBDBD" x="0.5" y="0.5" width="251" height="31" rx="2"></rect>
                </g>
                <path d="M25.8515625,47.0234375 L26.0546875,47.8125 L26.1015625,47.8125 L26.296875,47.0390625 L29.015625,38.625 L31.0390625,38.625 L26.9765625,50 L25.171875,50 L21.1171875,38.625 L23.140625,38.625 L25.8515625,47.0234375 Z M35.4140625,50.1640625 C34.2161398,50.1640625 33.2617223,49.7721393 32.5507812,48.9882812 C31.8398402,48.2044232 31.484375,47.1979228 31.484375,45.96875 L31.484375,45.65625 C31.484375,44.4270772 31.8372361,43.4075561 32.5429688,42.5976562 C33.2487014,41.7877564 34.1328072,41.3854166 35.1953125,41.390625 C36.3359432,41.390625 37.2096324,41.7356736 37.8164062,42.4257812 C38.4231801,43.1158889 38.7265625,44.0416609 38.7265625,45.203125 L38.7265625,46.3203125 L33.453125,46.3203125 L33.4375,46.359375 C33.4687502,47.0312534 33.6653628,47.580727 34.0273438,48.0078125 C34.3893247,48.434898 34.8906218,48.6484375 35.53125,48.6484375 C36.0416692,48.6484375 36.4791648,48.5859381 36.84375,48.4609375 C37.2083352,48.3359369 37.5598941,48.1562512 37.8984375,47.921875 L38.5078125,49.1640625 C38.1901026,49.4453139 37.7682318,49.6822907 37.2421875,49.875 C36.7161432,50.0677093 36.1067743,50.1640625 35.4140625,50.1640625 Z M35.1953125,42.9140625 C34.7265602,42.9140625 34.3411473,43.1002586 34.0390625,43.4726562 C33.7369777,43.8450539 33.5494795,44.3177055 33.4765625,44.890625 L33.4921875,44.9296875 L36.84375,44.9296875 L36.84375,44.734375 C36.84375,44.197914 36.7070326,43.7604184 36.4335938,43.421875 C36.1601549,43.0833316 35.7473986,42.9140625 35.1953125,42.9140625 Z M44.46875,43.2578125 L43.65625,43.2265625 C43.2864565,43.2265625 42.9778658,43.3046867 42.7304688,43.4609375 C42.4830717,43.6171883 42.2916673,43.8385402 42.15625,44.125 L42.15625,50 L40.2578125,50 L40.2578125,41.546875 L41.9921875,41.546875 L42.1171875,42.7734375 C42.3307302,42.3411437 42.6054671,42.0026054 42.9414062,41.7578125 C43.2773454,41.5130196 43.6640603,41.390625 44.1015625,41.390625 C44.2161464,41.390625 44.3229162,41.3997395 44.421875,41.4179688 C44.5208338,41.436198 44.6119787,41.4583332 44.6953125,41.484375 L44.46875,43.2578125 Z M47.8203125,50 L45.921875,50 L45.921875,41.546875 L47.8203125,41.546875 L47.8203125,50 Z M47.8203125,39.4765625 L45.921875,39.4765625 L45.921875,37.8125 L47.8203125,37.8125 L47.8203125,39.4765625 Z M50.5625,50 L50.5625,42.953125 L49.2734375,42.953125 L49.2734375,41.546875 L50.5625,41.546875 L50.5625,40.5625 C50.5625,39.6302037 50.8164037,38.9114609 51.3242188,38.40625 C51.8320338,37.9010391 52.5442662,37.6484375 53.4609375,37.6484375 C53.6432301,37.6484375 53.8281241,37.6627603 54.015625,37.6914062 C54.2031259,37.7200522 54.4140613,37.7604164 54.6484375,37.8125 L54.453125,39.28125 C54.3489578,39.2604166 54.2330736,39.2421876 54.1054688,39.2265625 C53.9778639,39.2109374 53.8411466,39.203125 53.6953125,39.203125 C53.2838521,39.203125 52.9752614,39.3203113 52.7695312,39.5546875 C52.5638011,39.7890637 52.4609375,40.1249978 52.4609375,40.5625 L52.4609375,41.546875 L54.1796875,41.546875 L54.1796875,42.953125 L52.4609375,42.953125 L52.4609375,50 L50.5625,50 Z M58.3671875,46.609375 L58.5546875,47.453125 L58.6015625,47.453125 L60.453125,41.546875 L62.53125,41.546875 L59.03125,51.28125 C58.8072905,51.8697946 58.4921895,52.3723938 58.0859375,52.7890625 C57.6796855,53.2057312 57.1041704,53.4140625 56.359375,53.4140625 C56.2031242,53.4140625 56.0351571,53.3984377 55.8554688,53.3671875 C55.6757804,53.3359373 55.502605,53.2994794 55.3359375,53.2578125 L55.546875,51.7890625 C55.6145837,51.7942709 55.7109369,51.8020833 55.8359375,51.8125 C55.9609381,51.8229167 56.0546872,51.828125 56.1171875,51.828125 C56.4609392,51.828125 56.7356761,51.7109387 56.9414062,51.4765625 C57.1471364,51.2421863 57.3151035,50.9713557 57.4453125,50.6640625 L57.7578125,49.8984375 L54.6875,41.546875 L56.7578125,41.546875 L58.3671875,46.609375 Z M76.5390625,38.625 L76.5390625,46.25 C76.5390625,47.510423 76.1276083,48.4778612 75.3046875,49.1523438 C74.4817667,49.8268263 73.4062566,50.1640625 72.078125,50.1640625 C70.7760352,50.1640625 69.7213582,49.8255242 68.9140625,49.1484375 C68.1067668,48.4713508 67.703125,47.5052146 67.703125,46.25 L67.703125,38.625 L69.6015625,38.625 L69.6015625,46.25 C69.6015625,47.046879 69.8255186,47.6458313 70.2734375,48.046875 C70.7213564,48.4479187 71.3229129,48.6484375 72.078125,48.6484375 C72.8593789,48.6484375 73.4817685,48.4479187 73.9453125,48.046875 C74.4088565,47.6458313 74.640625,47.046879 74.640625,46.25 L74.640625,38.625 L76.5390625,38.625 Z M83.3125,47.703125 C83.3125,47.4114569 83.1875012,47.1692718 82.9375,46.9765625 C82.6874988,46.7838532 82.2213576,46.6145841 81.5390625,46.46875 C80.5286408,46.2552073 79.7643255,45.9518249 79.2460938,45.5585938 C78.727862,45.1653626 78.46875,44.6302117 78.46875,43.953125 C78.46875,43.2447881 78.7682262,42.6406275 79.3671875,42.140625 C79.9661488,41.6406225 80.7552034,41.390625 81.734375,41.390625 C82.7656302,41.390625 83.5846324,41.6445287 84.1914062,42.1523438 C84.7981801,42.6601588 85.0885418,43.2890587 85.0625,44.0390625 L85.046875,44.0859375 L83.2265625,44.0859375 C83.2265625,43.7369774 83.0937513,43.4375012 82.828125,43.1875 C82.5624987,42.9374988 82.197919,42.8125 81.734375,42.8125 C81.2760394,42.8125 80.9270845,42.9153636 80.6875,43.1210938 C80.4479155,43.3268239 80.328125,43.5781235 80.328125,43.875 C80.328125,44.1718765 80.4414051,44.4075512 80.6679688,44.5820312 C80.8945324,44.7565113 81.3541632,44.9114577 82.046875,45.046875 C83.1093803,45.2656261 83.8971329,45.5742168 84.4101562,45.9726562 C84.9231796,46.3710957 85.1796875,46.9140591 85.1796875,47.6015625 C85.1796875,48.361983 84.8658886,48.9791643 84.2382812,49.453125 C83.6106739,49.9270857 82.7838593,50.1640625 81.7578125,50.1640625 C80.6588487,50.1640625 79.7916698,49.8828153 79.15625,49.3203125 C78.5208302,48.7578097 78.2187498,48.1119828 78.25,47.3828125 L78.265625,47.3359375 L80.03125,47.3359375 C80.0520834,47.8255233 80.229165,48.1822905 80.5625,48.40625 C80.895835,48.6302095 81.3020809,48.7421875 81.78125,48.7421875 C82.2708358,48.7421875 82.6484362,48.6484384 82.9140625,48.4609375 C83.1796888,48.2734366 83.3125,48.0208349 83.3125,47.703125 Z M90.5078125,50.1640625 C89.3098898,50.1640625 88.3554723,49.7721393 87.6445312,48.9882812 C86.9335902,48.2044232 86.578125,47.1979228 86.578125,45.96875 L86.578125,45.65625 C86.578125,44.4270772 86.9309861,43.4075561 87.6367188,42.5976562 C88.3424514,41.7877564 89.2265572,41.3854166 90.2890625,41.390625 C91.4296932,41.390625 92.3033824,41.7356736 92.9101562,42.4257812 C93.5169301,43.1158889 93.8203125,44.0416609 93.8203125,45.203125 L93.8203125,46.3203125 L88.546875,46.3203125 L88.53125,46.359375 C88.5625002,47.0312534 88.7591128,47.580727 89.1210938,48.0078125 C89.4830747,48.434898 89.9843718,48.6484375 90.625,48.6484375 C91.1354192,48.6484375 91.5729148,48.5859381 91.9375,48.4609375 C92.3020852,48.3359369 92.6536441,48.1562512 92.9921875,47.921875 L93.6015625,49.1640625 C93.2838526,49.4453139 92.8619818,49.6822907 92.3359375,49.875 C91.8098932,50.0677093 91.2005243,50.1640625 90.5078125,50.1640625 Z M90.2890625,42.9140625 C89.8203102,42.9140625 89.4348973,43.1002586 89.1328125,43.4726562 C88.8307277,43.8450539 88.6432295,44.3177055 88.5703125,44.890625 L88.5859375,44.9296875 L91.9375,44.9296875 L91.9375,44.734375 C91.9375,44.197914 91.8007826,43.7604184 91.5273438,43.421875 C91.2539049,43.0833316 90.8411486,42.9140625 90.2890625,42.9140625 Z M99.5625,43.2578125 L98.75,43.2265625 C98.3802065,43.2265625 98.0716158,43.3046867 97.8242188,43.4609375 C97.5768217,43.6171883 97.3854173,43.8385402 97.25,44.125 L97.25,50 L95.3515625,50 L95.3515625,41.546875 L97.0859375,41.546875 L97.2109375,42.7734375 C97.4244802,42.3411437 97.6992171,42.0026054 98.0351562,41.7578125 C98.3710954,41.5130196 98.7578103,41.390625 99.1953125,41.390625 C99.3098964,41.390625 99.4166662,41.3997395 99.515625,41.4179688 C99.6145838,41.436198 99.7057287,41.4583332 99.7890625,41.484375 L99.5625,43.2578125 Z" fill="#424242"></path>
                <g transform="translate(19.000000, 130.000000)">
                    <g>
                        <g transform="translate(1.000000, 21.000000)">
                            <g fill="#FFFFFF">
                                <rect x="0.1943128" y="0" width="250.805687" height="32" rx="2"></rect>
                            </g>
                            <rect stroke="#BDBDBD" x="0.6943128" y="0.5" width="249.805687" height="31" rx="2"></rect>
                        </g>
                        <text fill="#616161" font-family="Roboto-Regular, Roboto" font-size="14" font-weight="normal">
                            <tspan x="0" y="15">Label</tspan>
                        </text>
                    </g>
                </g>
                <text fill="#616161" font-family="Roboto-Regular, Roboto" font-size="14" font-weight="normal">
                    <tspan x="20" y="82">Label</tspan>
                </text>
                <g transform="translate(19.000000, 193.000000)">
                    <g>
                        <g transform="translate(1.000000, 21.000000)">
                            <g fill="#FFFFFF">
                                <rect x="0.1943128" y="0" width="250.805687" height="32" rx="2"></rect>
                            </g>
                            <rect stroke="#BDBDBD" x="0.6943128" y="0.5" width="249.805687" height="31" rx="2"></rect>
                        </g>
                        <text fill="#616161" font-family="Roboto-Regular, Roboto" font-size="14" font-weight="normal">
                            <tspan x="0" y="15">Label</tspan>
                        </text>
                    </g>
                </g>
                <text fill="#616161" font-family="Roboto-Regular, Roboto" font-size="16" font-weight="normal">
                    <tspan x="32.2681" y="111.1308">Ma</tspan>
                </text>
                <text fill="#616161" font-family="Roboto-Regular, Roboto" font-size="16" font-weight="normal">
                    <tspan x="55.1196625" y="111.1308">k</tspan>
                </text>
                <text fill="#616161" font-family="Roboto-Regular, Roboto" font-size="16" font-weight="normal">
                    <tspan x="63.0081375" y="111.1308">e a selection</tspan>
                </text>
                <path d="M257.2422,103.1885 L255.6682,103.1885 C255.5762,103.1885 255.4912,103.0485 255.4282,103.1115 C255.3982,103.1425 255.3732,103.0905 255.3552,103.1325 C255.3032,103.2585 255.3322,103.3605 255.4282,103.4575 L258.2972,106.3035 C258.4292,106.4355 258.6432,106.4245 258.7752,106.2925 L261.6442,103.4175 C261.7412,103.3215 261.7702,103.1735 261.7172,103.0465 C261.7002,103.0055 261.6752,103.1435 261.6442,103.1125 C261.5822,103.0505 261.4962,103.1885 261.4052,103.1885 L259.8312,103.1885 L257.2422,103.1885 Z" fill="#989898" fill-rule="nonzero"></path>
            </g>
        </g>
    </g>
</svg>