<?xml version="1.0" encoding="UTF-8" standalone="no"?>
<svg width="579px" height="336px" viewBox="0 0 579 336" version="1.1" xmlns="http://www.w3.org/2000/svg" xmlns:xlink="http://www.w3.org/1999/xlink">
    <!-- Generator: Sketch 47 (45396) - http://www.bohemiancoding.com/sketch -->
    <title>popover-specs</title>
    <desc>Created with Sketch.</desc>
    <defs>
        <polygon id="path-1" points="356.444 9.43880195 347.265 0 338.087 9.43880195 0 9.43880195 0 28.3304085 0 46.6909137 0 330 390 330 390 9.43880195"></polygon>
        <filter x="-1.7%" y="-1.1%" width="103.3%" height="104.0%" filterUnits="objectBoundingBox" id="filter-2">
            <feMorphology radius="0.5" operator="dilate" in="SourceAlpha" result="shadowSpreadOuter1"></feMorphology>
            <feOffset dx="0" dy="3" in="shadowSpreadOuter1" result="shadowOffsetOuter1"></feOffset>
            <feGaussianBlur stdDeviation="1.5" in="shadowOffsetOuter1" result="shadowBlurOuter1"></feGaussianBlur>
            <feComposite in="shadowBlurOuter1" in2="SourceAlpha" operator="out" result="shadowBlurOuter1"></feComposite>
            <feColorMatrix values="0 0 0 0 0   0 0 0 0 0   0 0 0 0 0  0 0 0 0.16 0" type="matrix" in="shadowBlurOuter1"></feColorMatrix>
        </filter>
        <polygon id="path-3" points="7 3.5 0 7 0 0"></polygon>
    </defs>
    <g id="Page-1" stroke="none" stroke-width="1" fill="none" fill-rule="evenodd">
        <g id="popover-specs" transform="translate(3.000000, 0.000000)">
            <g id="Fill-227-Copy-5">
                <use fill="black" fill-opacity="1" filter="url(#filter-2)" xlink:href="#path-1"></use>
                <use stroke="#E0E0E0" stroke-width="1" fill="#FFFFFF" fill-rule="evenodd" xlink:href="#path-1"></use>
            </g>
            <path d="M424.265625,129.292969 C424.160156,130.195317 423.827151,130.891599 423.266602,131.381836 C422.706052,131.872073 421.960942,132.117188 421.03125,132.117188 C420.023432,132.117188 419.215823,131.755863 418.608398,131.033203 C418.000974,130.310543 417.697266,129.343756 417.697266,128.132812 L417.697266,127.3125 C417.697266,126.519527 417.838866,125.822269 418.12207,125.220703 C418.405275,124.619138 418.806638,124.157228 419.326172,123.834961 C419.845706,123.512694 420.447262,123.351562 421.130859,123.351562 C422.037114,123.351562 422.763669,123.60449 423.310547,124.110352 C423.857425,124.616213 424.175781,125.316402 424.265625,126.210938 L423.134766,126.210938 C423.037109,125.531247 422.825197,125.039064 422.499023,124.734375 C422.17285,124.429686 421.7168,124.277344 421.130859,124.277344 C420.412106,124.277344 419.848635,124.542966 419.44043,125.074219 C419.032225,125.605471 418.828125,126.361323 418.828125,127.341797 L418.828125,128.167969 C418.828125,129.093755 419.021482,129.830075 419.408203,130.376953 C419.794924,130.923831 420.335934,131.197266 421.03125,131.197266 C421.656253,131.197266 422.135741,131.055665 422.469727,130.772461 C422.803713,130.489256 423.02539,129.996097 423.134766,129.292969 L424.265625,129.292969 Z M425.34375,128.771484 C425.34375,128.150388 425.465819,127.591799 425.709961,127.095703 C425.954103,126.599607 426.293943,126.216798 426.729492,125.947266 C427.165041,125.677733 427.662107,125.542969 428.220703,125.542969 C429.083989,125.542969 429.782224,125.841794 430.31543,126.439453 C430.848635,127.037112 431.115234,127.832026 431.115234,128.824219 L431.115234,128.900391 C431.115234,129.517581 430.997071,130.071287 430.760742,130.561523 C430.524413,131.05176 430.186526,131.433592 429.74707,131.707031 C429.307615,131.98047 428.802737,132.117188 428.232422,132.117188 C427.373043,132.117188 426.67676,131.818362 426.143555,131.220703 C425.610349,130.623044 425.34375,129.832036 425.34375,128.847656 L425.34375,128.771484 Z M426.433594,128.900391 C426.433594,129.603519 426.596678,130.167967 426.922852,130.59375 C427.249025,131.019533 427.685544,131.232422 428.232422,131.232422 C428.783206,131.232422 429.220702,131.016604 429.544922,130.584961 C429.869142,130.153318 430.03125,129.548832 430.03125,128.771484 C430.03125,128.076168 429.866213,127.512697 429.536133,127.081055 C429.206053,126.649412 428.767581,126.433594 428.220703,126.433594 C427.685544,126.433594 427.253908,126.646482 426.925781,127.072266 C426.597655,127.498049 426.433594,128.107418 426.433594,128.900391 Z M433.5,125.660156 L433.535156,126.457031 C434.019534,125.847653 434.65234,125.542969 435.433594,125.542969 C436.773444,125.542969 437.449219,126.298821 437.460938,127.810547 L437.460938,132 L436.376953,132 L436.376953,127.804688 C436.373047,127.347654 436.268556,127.009767 436.063477,126.791016 C435.858397,126.572265 435.539065,126.462891 435.105469,126.462891 C434.753904,126.462891 434.445314,126.55664 434.179688,126.744141 C433.914061,126.931642 433.707032,127.177733 433.558594,127.482422 L433.558594,132 L432.474609,132 L432.474609,125.660156 L433.5,125.660156 Z M440.566406,124.125 L440.566406,125.660156 L441.75,125.660156 L441.75,126.498047 L440.566406,126.498047 L440.566406,130.429688 C440.566406,130.683595 440.61914,130.874023 440.724609,131.000977 C440.830079,131.12793 441.009764,131.191406 441.263672,131.191406 C441.388672,131.191406 441.560546,131.167969 441.779297,131.121094 L441.779297,132 C441.494139,132.078125 441.216798,132.117188 440.947266,132.117188 C440.462888,132.117188 440.097657,131.970705 439.851562,131.677734 C439.605468,131.384764 439.482422,130.968753 439.482422,130.429688 L439.482422,126.498047 L438.328125,126.498047 L438.328125,125.660156 L439.482422,125.660156 L439.482422,124.125 L440.566406,124.125 Z M446.929688,132 C446.867187,131.874999 446.816406,131.652345 446.777344,131.332031 C446.273435,131.855471 445.671878,132.117188 444.972656,132.117188 C444.347653,132.117188 443.834963,131.940431 443.43457,131.586914 C443.034178,131.233397 442.833984,130.785159 442.833984,130.242188 C442.833984,129.582028 443.084958,129.069338 443.586914,128.704102 C444.08887,128.338865 444.794917,128.15625 445.705078,128.15625 L446.759766,128.15625 L446.759766,127.658203 C446.759766,127.279295 446.646486,126.97754 446.419922,126.75293 C446.193358,126.528319 445.859377,126.416016 445.417969,126.416016 C445.031248,126.416016 444.707033,126.513671 444.445312,126.708984 C444.183592,126.904298 444.052734,127.140624 444.052734,127.417969 L442.962891,127.417969 C442.962891,127.101561 443.075194,126.7959 443.299805,126.500977 C443.524415,126.206053 443.8291,125.972657 444.213867,125.800781 C444.598635,125.628905 445.021482,125.542969 445.482422,125.542969 C446.212894,125.542969 446.785154,125.725584 447.199219,126.09082 C447.613283,126.456057 447.828125,126.958981 447.84375,127.599609 L447.84375,130.517578 C447.84375,131.099612 447.917968,131.562498 448.066406,131.90625 L448.066406,132 L446.929688,132 Z M445.130859,131.173828 C445.470705,131.173828 445.792967,131.085938 446.097656,130.910156 C446.402345,130.734374 446.623046,130.505861 446.759766,130.224609 L446.759766,128.923828 L445.910156,128.923828 C444.582025,128.923828 443.917969,129.312496 443.917969,130.089844 C443.917969,130.429689 444.031249,130.695312 444.257812,130.886719 C444.484376,131.078126 444.775389,131.173828 445.130859,131.173828 Z M450.720703,132 L449.636719,132 L449.636719,125.660156 L450.720703,125.660156 L450.720703,132 Z M449.548828,123.978516 C449.548828,123.802733 449.602539,123.654297 449.709961,123.533203 C449.817383,123.412109 449.976561,123.351562 450.1875,123.351562 C450.398439,123.351562 450.558593,123.412109 450.667969,123.533203 C450.777344,123.654297 450.832031,123.802733 450.832031,123.978516 C450.832031,124.154298 450.777344,124.300781 450.667969,124.417969 C450.558593,124.535157 450.398439,124.59375 450.1875,124.59375 C449.976561,124.59375 449.817383,124.535157 449.709961,124.417969 C449.602539,124.300781 449.548828,124.154298 449.548828,123.978516 Z M453.480469,125.660156 L453.515625,126.457031 C454.000002,125.847653 454.632809,125.542969 455.414062,125.542969 C456.753913,125.542969 457.429687,126.298821 457.441406,127.810547 L457.441406,132 L456.357422,132 L456.357422,127.804688 C456.353516,127.347654 456.249024,127.009767 456.043945,126.791016 C455.838866,126.572265 455.519533,126.462891 455.085938,126.462891 C454.734373,126.462891 454.425783,126.55664 454.160156,126.744141 C453.89453,126.931642 453.687501,127.177733 453.539062,127.482422 L453.539062,132 L452.455078,132 L452.455078,125.660156 L453.480469,125.660156 Z M461.707031,132.117188 C460.847652,132.117188 460.14844,131.834964 459.609375,131.270508 C459.07031,130.706052 458.800781,129.951177 458.800781,129.005859 L458.800781,128.806641 C458.800781,128.177731 458.920897,127.616213 459.161133,127.12207 C459.401368,126.627927 459.737303,126.241212 460.168945,125.961914 C460.600588,125.682616 461.068357,125.542969 461.572266,125.542969 C462.396488,125.542969 463.037107,125.81445 463.494141,126.357422 C463.951174,126.900393 464.179688,127.677729 464.179688,128.689453 L464.179688,129.140625 L459.884766,129.140625 C459.900391,129.765628 460.083006,130.270506 460.432617,130.655273 C460.782228,131.040041 461.22656,131.232422 461.765625,131.232422 C462.148439,131.232422 462.472655,131.154298 462.738281,130.998047 C463.003908,130.841796 463.236327,130.634767 463.435547,130.376953 L464.097656,130.892578 C463.566404,131.708988 462.769537,132.117188 461.707031,132.117188 Z M461.572266,126.433594 C461.134763,126.433594 460.76758,126.592772 460.470703,126.911133 C460.173827,127.229494 459.990235,127.675778 459.919922,128.25 L463.095703,128.25 L463.095703,128.167969 C463.064453,127.617185 462.916017,127.190431 462.650391,126.887695 C462.384764,126.584959 462.025393,126.433594 461.572266,126.433594 Z M468.498047,126.632812 C468.333984,126.605469 468.156251,126.591797 467.964844,126.591797 C467.253903,126.591797 466.771486,126.894528 466.517578,127.5 L466.517578,132 L465.433594,132 L465.433594,125.660156 L466.488281,125.660156 L466.505859,126.392578 C466.86133,125.826169 467.365231,125.542969 468.017578,125.542969 C468.228517,125.542969 468.388671,125.570312 468.498047,125.625 L468.498047,126.632812 Z M469.458984,131.431641 C469.458984,131.24414 469.514648,131.087891 469.625977,130.962891 C469.737305,130.83789 469.904296,130.775391 470.126953,130.775391 C470.34961,130.775391 470.518554,130.83789 470.633789,130.962891 C470.749024,131.087891 470.806641,131.24414 470.806641,131.431641 C470.806641,131.611329 470.749024,131.761718 470.633789,131.882812 C470.518554,132.003907 470.34961,132.064453 470.126953,132.064453 C469.904296,132.064453 469.737305,132.003907 469.625977,131.882812 C469.514648,131.761718 469.458984,131.611329 469.458984,131.431641 Z M469.464844,126.257812 C469.464844,126.070312 469.520507,125.914063 469.631836,125.789062 C469.743165,125.664062 469.910155,125.601562 470.132812,125.601562 C470.35547,125.601562 470.524413,125.664062 470.639648,125.789062 C470.754883,125.914063 470.8125,126.070312 470.8125,126.257812 C470.8125,126.437501 470.754883,126.58789 470.639648,126.708984 C470.524413,126.830079 470.35547,126.890625 470.132812,126.890625 C469.910155,126.890625 469.743165,126.830079 469.631836,126.708984 C469.520507,126.58789 469.464844,126.437501 469.464844,126.257812 Z M479.033203,129.597656 L477.486328,129.597656 L477.017578,132 L476.179688,132 L476.648438,129.597656 L475.248047,129.597656 L475.248047,128.794922 L476.800781,128.794922 L477.205078,126.720703 L475.693359,126.720703 L475.693359,125.90625 L477.363281,125.90625 L477.84375,123.46875 L478.681641,123.46875 L478.201172,125.90625 L479.748047,125.90625 L480.228516,123.46875 L481.072266,123.46875 L480.591797,125.90625 L481.787109,125.90625 L481.787109,126.720703 L480.433594,126.720703 L480.029297,128.794922 L481.347656,128.794922 L481.347656,129.597656 L479.876953,129.597656 L479.408203,132 L478.564453,132 L479.033203,129.597656 Z M477.638672,128.794922 L479.185547,128.794922 L479.589844,126.720703 L478.042969,126.720703 L477.638672,128.794922 Z M483.292969,132 L483.292969,126.498047 L482.291016,126.498047 L482.291016,125.660156 L483.292969,125.660156 L483.292969,125.009766 C483.292969,124.330075 483.474608,123.804689 483.837891,123.433594 C484.201174,123.062498 484.71484,122.876953 485.378906,122.876953 C485.628907,122.876953 485.876952,122.910156 486.123047,122.976562 L486.064453,123.855469 C485.880858,123.820312 485.685548,123.802734 485.478516,123.802734 C485.126951,123.802734 484.85547,123.905272 484.664062,124.110352 C484.472655,124.315431 484.376953,124.609373 484.376953,124.992188 L484.376953,125.660156 L485.730469,125.660156 L485.730469,126.498047 L484.376953,126.498047 L484.376953,132 L483.292969,132 Z M487.458984,132 L487.458984,126.498047 L486.457031,126.498047 L486.457031,125.660156 L487.458984,125.660156 L487.458984,125.009766 C487.458984,124.330075 487.640623,123.804689 488.003906,123.433594 C488.367189,123.062498 488.880856,122.876953 489.544922,122.876953 C489.794923,122.876953 490.042968,122.910156 490.289062,122.976562 L490.230469,123.855469 C490.046874,123.820312 489.851564,123.802734 489.644531,123.802734 C489.292967,123.802734 489.021485,123.905272 488.830078,124.110352 C488.638671,124.315431 488.542969,124.609373 488.542969,124.992188 L488.542969,125.660156 L489.896484,125.660156 L489.896484,126.498047 L488.542969,126.498047 L488.542969,132 L487.458984,132 Z M491.625,132 L491.625,126.498047 L490.623047,126.498047 L490.623047,125.660156 L491.625,125.660156 L491.625,125.009766 C491.625,124.330075 491.806639,123.804689 492.169922,123.433594 C492.533205,123.062498 493.046872,122.876953 493.710938,122.876953 C493.960939,122.876953 494.208983,122.910156 494.455078,122.976562 L494.396484,123.855469 C494.21289,123.820312 494.017579,123.802734 493.810547,123.802734 C493.458983,123.802734 493.187501,123.905272 492.996094,124.110352 C492.804687,124.315431 492.708984,124.609373 492.708984,124.992188 L492.708984,125.660156 L494.0625,125.660156 L494.0625,126.498047 L492.708984,126.498047 L492.708984,132 L491.625,132 Z M495.791016,132 L495.791016,126.498047 L494.789062,126.498047 L494.789062,125.660156 L495.791016,125.660156 L495.791016,125.009766 C495.791016,124.330075 495.972654,123.804689 496.335938,123.433594 C496.699221,123.062498 497.212887,122.876953 497.876953,122.876953 C498.126954,122.876953 498.374999,122.910156 498.621094,122.976562 L498.5625,123.855469 C498.378905,123.820312 498.183595,123.802734 497.976562,123.802734 C497.624998,123.802734 497.353517,123.905272 497.162109,124.110352 C496.970702,124.315431 496.875,124.609373 496.875,124.992188 L496.875,125.660156 L498.228516,125.660156 L498.228516,126.498047 L496.875,126.498047 L496.875,132 L495.791016,132 Z M499.957031,132 L499.957031,126.498047 L498.955078,126.498047 L498.955078,125.660156 L499.957031,125.660156 L499.957031,125.009766 C499.957031,124.330075 500.13867,123.804689 500.501953,123.433594 C500.865236,123.062498 501.378903,122.876953 502.042969,122.876953 C502.29297,122.876953 502.541014,122.910156 502.787109,122.976562 L502.728516,123.855469 C502.544921,123.820312 502.34961,123.802734 502.142578,123.802734 C501.791014,123.802734 501.519532,123.905272 501.328125,124.110352 C501.136718,124.315431 501.041016,124.609373 501.041016,124.992188 L501.041016,125.660156 L502.394531,125.660156 L502.394531,126.498047 L501.041016,126.498047 L501.041016,132 L499.957031,132 Z M504.123047,132 L504.123047,126.498047 L503.121094,126.498047 L503.121094,125.660156 L504.123047,125.660156 L504.123047,125.009766 C504.123047,124.330075 504.304686,123.804689 504.667969,123.433594 C505.031252,123.062498 505.544919,122.876953 506.208984,122.876953 C506.458986,122.876953 506.70703,122.910156 506.953125,122.976562 L506.894531,123.855469 C506.710937,123.820312 506.515626,123.802734 506.308594,123.802734 C505.957029,123.802734 505.685548,123.905272 505.494141,124.110352 C505.302733,124.315431 505.207031,124.609373 505.207031,124.992188 L505.207031,125.660156 L506.560547,125.660156 L506.560547,126.498047 L505.207031,126.498047 L505.207031,132 L504.123047,132 Z M417.990234,151 L417.990234,142.46875 L420.779297,142.46875 C421.705083,142.46875 422.401365,142.660154 422.868164,143.042969 C423.334963,143.425783 423.568359,143.992184 423.568359,144.742188 C423.568359,145.140627 423.455079,145.493163 423.228516,145.799805 C423.001952,146.106447 422.693361,146.343749 422.302734,146.511719 C422.763674,146.640626 423.127928,146.88574 423.395508,147.24707 C423.663087,147.6084 423.796875,148.03906 423.796875,148.539062 C423.796875,149.304691 423.548831,149.906248 423.052734,150.34375 C422.556638,150.781252 421.855473,151 420.949219,151 L417.990234,151 Z M419.115234,147.009766 L419.115234,150.080078 L420.972656,150.080078 C421.496096,150.080078 421.909178,149.944337 422.211914,149.672852 C422.51465,149.401366 422.666016,149.027346 422.666016,148.550781 C422.666016,147.523432 422.107427,147.009766 420.990234,147.009766 L419.115234,147.009766 Z M419.115234,146.107422 L420.814453,146.107422 C421.306643,146.107422 421.700194,145.984376 421.995117,145.738281 C422.290041,145.492186 422.4375,145.158205 422.4375,144.736328 C422.4375,144.267576 422.300783,143.926759 422.027344,143.713867 C421.753905,143.500975 421.337893,143.394531 420.779297,143.394531 L419.115234,143.394531 L419.115234,146.107422 Z M425.003906,147.771484 C425.003906,147.150388 425.125975,146.591799 425.370117,146.095703 C425.614259,145.599607 425.954099,145.216798 426.389648,144.947266 C426.825197,144.677733 427.322263,144.542969 427.880859,144.542969 C428.744145,144.542969 429.44238,144.841794 429.975586,145.439453 C430.508792,146.037112 430.775391,146.832026 430.775391,147.824219 L430.775391,147.900391 C430.775391,148.517581 430.657228,149.071287 430.420898,149.561523 C430.184569,150.05176 429.846682,150.433592 429.407227,150.707031 C428.967771,150.98047 428.462893,151.117188 427.892578,151.117188 C427.033199,151.117188 426.336917,150.818362 425.803711,150.220703 C425.270505,149.623044 425.003906,148.832036 425.003906,147.847656 L425.003906,147.771484 Z M426.09375,147.900391 C426.09375,148.603519 426.256834,149.167967 426.583008,149.59375 C426.909181,150.019533 427.3457,150.232422 427.892578,150.232422 C428.443362,150.232422 428.880858,150.016604 429.205078,149.584961 C429.529298,149.153318 429.691406,148.548832 429.691406,147.771484 C429.691406,147.076168 429.526369,146.512697 429.196289,146.081055 C428.866209,145.649412 428.427737,145.433594 427.880859,145.433594 C427.3457,145.433594 426.914064,145.646482 426.585938,146.072266 C426.257811,146.498049 426.09375,147.107418 426.09375,147.900391 Z M435.199219,145.632812 C435.035155,145.605469 434.857423,145.591797 434.666016,145.591797 C433.955075,145.591797 433.472658,145.894528 433.21875,146.5 L433.21875,151 L432.134766,151 L432.134766,144.660156 L433.189453,144.660156 L433.207031,145.392578 C433.562502,144.826169 434.066403,144.542969 434.71875,144.542969 C434.929689,144.542969 435.089843,144.570312 435.199219,144.625 L435.199219,145.632812 Z M435.931641,147.777344 C435.931641,146.804683 436.162107,146.022464 436.623047,145.430664 C437.083987,144.838864 437.687496,144.542969 438.433594,144.542969 C439.175785,144.542969 439.76367,144.796872 440.197266,145.304688 L440.197266,142 L441.28125,142 L441.28125,151 L440.285156,151 L440.232422,150.320312 C439.798826,150.851565 439.195316,151.117188 438.421875,151.117188 C437.687496,151.117188 437.08887,150.816409 436.625977,150.214844 C436.163084,149.613278 435.931641,148.82813 435.931641,147.859375 L435.931641,147.777344 Z M437.015625,147.900391 C437.015625,148.619144 437.164061,149.181639 437.460938,149.587891 C437.757814,149.994143 438.167966,150.197266 438.691406,150.197266 C439.37891,150.197266 439.880858,149.888675 440.197266,149.271484 L440.197266,146.359375 C439.873045,145.761716 439.375003,145.462891 438.703125,145.462891 C438.171872,145.462891 437.757814,145.667967 437.460938,146.078125 C437.164061,146.488283 437.015625,147.095699 437.015625,147.900391 Z M445.59375,151.117188 C444.734371,151.117188 444.035159,150.834964 443.496094,150.270508 C442.957029,149.706052 442.6875,148.951177 442.6875,148.005859 L442.6875,147.806641 C442.6875,147.177731 442.807616,146.616213 443.047852,146.12207 C443.288087,145.627927 443.624021,145.241212 444.055664,144.961914 C444.487307,144.682616 444.955076,144.542969 445.458984,144.542969 C446.283207,144.542969 446.923826,144.81445 447.380859,145.357422 C447.837893,145.900393 448.066406,146.677729 448.066406,147.689453 L448.066406,148.140625 L443.771484,148.140625 C443.787109,148.765628 443.969725,149.270506 444.319336,149.655273 C444.668947,150.040041 445.113279,150.232422 445.652344,150.232422 C446.035158,150.232422 446.359374,150.154298 446.625,149.998047 C446.890626,149.841796 447.123046,149.634767 447.322266,149.376953 L447.984375,149.892578 C447.453122,150.708988 446.656255,151.117188 445.59375,151.117188 Z M445.458984,145.433594 C445.021482,145.433594 444.654298,145.592772 444.357422,145.911133 C444.060545,146.229494 443.876953,146.675778 443.806641,147.25 L446.982422,147.25 L446.982422,147.167969 C446.951172,146.617185 446.802736,146.190431 446.537109,145.887695 C446.271483,145.584959 445.912112,145.433594 445.458984,145.433594 Z M452.384766,145.632812 C452.220702,145.605469 452.04297,145.591797 451.851562,145.591797 C451.140621,145.591797 450.658204,145.894528 450.404297,146.5 L450.404297,151 L449.320312,151 L449.320312,144.660156 L450.375,144.660156 L450.392578,145.392578 C450.748049,144.826169 451.25195,144.542969 451.904297,144.542969 C452.115235,144.542969 452.27539,144.570312 452.384766,144.625 L452.384766,145.632812 Z M453.345703,150.431641 C453.345703,150.24414 453.401367,150.087891 453.512695,149.962891 C453.624024,149.83789 453.791015,149.775391 454.013672,149.775391 C454.236329,149.775391 454.405273,149.83789 454.520508,149.962891 C454.635743,150.087891 454.693359,150.24414 454.693359,150.431641 C454.693359,150.611329 454.635743,150.761718 454.520508,150.882812 C454.405273,151.003907 454.236329,151.064453 454.013672,151.064453 C453.791015,151.064453 453.624024,151.003907 453.512695,150.882812 C453.401367,150.761718 453.345703,150.611329 453.345703,150.431641 Z M453.351562,145.257812 C453.351562,145.070312 453.407226,144.914063 453.518555,144.789062 C453.629883,144.664062 453.796874,144.601562 454.019531,144.601562 C454.242189,144.601562 454.411132,144.664062 454.526367,144.789062 C454.641602,144.914063 454.699219,145.070312 454.699219,145.257812 C454.699219,145.437501 454.641602,145.58789 454.526367,145.708984 C454.411132,145.830079 454.242189,145.890625 454.019531,145.890625 C453.796874,145.890625 453.629883,145.830079 453.518555,145.708984 C453.407226,145.58789 453.351562,145.437501 453.351562,145.257812 Z M462.919922,148.597656 L461.373047,148.597656 L460.904297,151 L460.066406,151 L460.535156,148.597656 L459.134766,148.597656 L459.134766,147.794922 L460.6875,147.794922 L461.091797,145.720703 L459.580078,145.720703 L459.580078,144.90625 L461.25,144.90625 L461.730469,142.46875 L462.568359,142.46875 L462.087891,144.90625 L463.634766,144.90625 L464.115234,142.46875 L464.958984,142.46875 L464.478516,144.90625 L465.673828,144.90625 L465.673828,145.720703 L464.320312,145.720703 L463.916016,147.794922 L465.234375,147.794922 L465.234375,148.597656 L463.763672,148.597656 L463.294922,151 L462.451172,151 L462.919922,148.597656 Z M461.525391,147.794922 L463.072266,147.794922 L463.476562,145.720703 L461.929688,145.720703 L461.525391,147.794922 Z M469.277344,151.117188 C468.417964,151.117188 467.718753,150.834964 467.179688,150.270508 C466.640622,149.706052 466.371094,148.951177 466.371094,148.005859 L466.371094,147.806641 C466.371094,147.177731 466.49121,146.616213 466.731445,146.12207 C466.971681,145.627927 467.307615,145.241212 467.739258,144.961914 C468.170901,144.682616 468.638669,144.542969 469.142578,144.542969 C469.966801,144.542969 470.60742,144.81445 471.064453,145.357422 C471.521487,145.900393 471.75,146.677729 471.75,147.689453 L471.75,148.140625 L467.455078,148.140625 C467.470703,148.765628 467.653319,149.270506 468.00293,149.655273 C468.352541,150.040041 468.796872,150.232422 469.335938,150.232422 C469.718752,150.232422 470.042967,150.154298 470.308594,149.998047 C470.57422,149.841796 470.80664,149.634767 471.005859,149.376953 L471.667969,149.892578 C471.136716,150.708988 470.339849,151.117188 469.277344,151.117188 Z M469.142578,145.433594 C468.705076,145.433594 468.337892,145.592772 468.041016,145.911133 C467.744139,146.229494 467.560547,146.675778 467.490234,147.25 L470.666016,147.25 L470.666016,147.167969 C470.634765,146.617185 470.486329,146.190431 470.220703,145.887695 C469.955077,145.584959 469.595705,145.433594 469.142578,145.433594 Z M478.242188,147.361328 C478.242188,148.630866 478.025393,149.574216 477.591797,150.191406 C477.158201,150.808597 476.480473,151.117188 475.558594,151.117188 C474.648433,151.117188 473.974612,150.815433 473.537109,150.211914 C473.099607,149.608395 472.873047,148.707037 472.857422,147.507812 L472.857422,146.060547 C472.857422,144.806634 473.074217,143.875003 473.507812,143.265625 C473.941408,142.656247 474.621089,142.351562 475.546875,142.351562 C476.464848,142.351562 477.140623,142.645505 477.574219,143.233398 C478.007815,143.821292 478.230469,144.728509 478.242188,145.955078 L478.242188,147.361328 Z M477.158203,145.878906 C477.158203,144.960933 477.029298,144.291994 476.771484,143.87207 C476.513671,143.452146 476.105472,143.242188 475.546875,143.242188 C474.992185,143.242188 474.587892,143.45117 474.333984,143.869141 C474.080077,144.287111 473.949219,144.929683 473.941406,145.796875 L473.941406,147.53125 C473.941406,148.45313 474.075194,149.133787 474.342773,149.573242 C474.610353,150.012698 475.015622,150.232422 475.558594,150.232422 C476.093753,150.232422 476.49121,150.025393 476.750977,149.611328 C477.010743,149.197264 477.146484,148.544926 477.158203,147.654297 L477.158203,145.878906 Z M482.373047,151.117188 C481.513668,151.117188 480.814456,150.834964 480.275391,150.270508 C479.736325,149.706052 479.466797,148.951177 479.466797,148.005859 L479.466797,147.806641 C479.466797,147.177731 479.586913,146.616213 479.827148,146.12207 C480.067384,145.627927 480.403318,145.241212 480.834961,144.961914 C481.266604,144.682616 481.734372,144.542969 482.238281,144.542969 C483.062504,144.542969 483.703123,144.81445 484.160156,145.357422 C484.61719,145.900393 484.845703,146.677729 484.845703,147.689453 L484.845703,148.140625 L480.550781,148.140625 C480.566406,148.765628 480.749022,149.270506 481.098633,149.655273 C481.448244,150.040041 481.892575,150.232422 482.431641,150.232422 C482.814455,150.232422 483.138671,150.154298 483.404297,149.998047 C483.669923,149.841796 483.902343,149.634767 484.101562,149.376953 L484.763672,149.892578 C484.232419,150.708988 483.435552,151.117188 482.373047,151.117188 Z M482.238281,145.433594 C481.800779,145.433594 481.433595,145.592772 481.136719,145.911133 C480.839842,146.229494 480.65625,146.675778 480.585938,147.25 L483.761719,147.25 L483.761719,147.167969 C483.730469,146.617185 483.582033,146.190431 483.316406,145.887695 C483.05078,145.584959 482.691409,145.433594 482.238281,145.433594 Z M491.337891,147.361328 C491.337891,148.630866 491.121096,149.574216 490.6875,150.191406 C490.253904,150.808597 489.576176,151.117188 488.654297,151.117188 C487.744136,151.117188 487.070315,150.815433 486.632812,150.211914 C486.19531,149.608395 485.96875,148.707037 485.953125,147.507812 L485.953125,146.060547 C485.953125,144.806634 486.16992,143.875003 486.603516,143.265625 C487.037112,142.656247 487.716792,142.351562 488.642578,142.351562 C489.560551,142.351562 490.236326,142.645505 490.669922,143.233398 C491.103518,143.821292 491.326172,144.728509 491.337891,145.955078 L491.337891,147.361328 Z M490.253906,145.878906 C490.253906,144.960933 490.125001,144.291994 489.867188,143.87207 C489.609374,143.452146 489.201175,143.242188 488.642578,143.242188 C488.087888,143.242188 487.683595,143.45117 487.429688,143.869141 C487.17578,144.287111 487.044922,144.929683 487.037109,145.796875 L487.037109,147.53125 C487.037109,148.45313 487.170897,149.133787 487.438477,149.573242 C487.706056,150.012698 488.111325,150.232422 488.654297,150.232422 C489.189456,150.232422 489.586913,150.025393 489.84668,149.611328 C490.106447,149.197264 490.242187,148.544926 490.253906,147.654297 L490.253906,145.878906 Z M495.46875,151.117188 C494.609371,151.117188 493.910159,150.834964 493.371094,150.270508 C492.832029,149.706052 492.5625,148.951177 492.5625,148.005859 L492.5625,147.806641 C492.5625,147.177731 492.682616,146.616213 492.922852,146.12207 C493.163087,145.627927 493.499021,145.241212 493.930664,144.961914 C494.362307,144.682616 494.830076,144.542969 495.333984,144.542969 C496.158207,144.542969 496.798826,144.81445 497.255859,145.357422 C497.712893,145.900393 497.941406,146.677729 497.941406,147.689453 L497.941406,148.140625 L493.646484,148.140625 C493.662109,148.765628 493.844725,149.270506 494.194336,149.655273 C494.543947,150.040041 494.988279,150.232422 495.527344,150.232422 C495.910158,150.232422 496.234374,150.154298 496.5,149.998047 C496.765626,149.841796 496.998046,149.634767 497.197266,149.376953 L497.859375,149.892578 C497.328122,150.708988 496.531255,151.117188 495.46875,151.117188 Z M495.333984,145.433594 C494.896482,145.433594 494.529298,145.592772 494.232422,145.911133 C493.935545,146.229494 493.751953,146.675778 493.681641,147.25 L496.857422,147.25 L496.857422,147.167969 C496.826172,146.617185 496.677736,146.190431 496.412109,145.887695 C496.146483,145.584959 495.787112,145.433594 495.333984,145.433594 Z M504.433594,147.361328 C504.433594,148.630866 504.216799,149.574216 503.783203,150.191406 C503.349607,150.808597 502.67188,151.117188 501.75,151.117188 C500.839839,151.117188 500.166018,150.815433 499.728516,150.211914 C499.291013,149.608395 499.064453,148.707037 499.048828,147.507812 L499.048828,146.060547 C499.048828,144.806634 499.265623,143.875003 499.699219,143.265625 C500.132815,142.656247 500.812495,142.351562 501.738281,142.351562 C502.656255,142.351562 503.332029,142.645505 503.765625,143.233398 C504.199221,143.821292 504.421875,144.728509 504.433594,145.955078 L504.433594,147.361328 Z M503.349609,145.878906 C503.349609,144.960933 503.220704,144.291994 502.962891,143.87207 C502.705077,143.452146 502.296878,143.242188 501.738281,143.242188 C501.183591,143.242188 500.779298,143.45117 500.525391,143.869141 C500.271483,144.287111 500.140625,144.929683 500.132812,145.796875 L500.132812,147.53125 C500.132812,148.45313 500.2666,149.133787 500.53418,149.573242 C500.801759,150.012698 501.207029,150.232422 501.75,150.232422 C502.285159,150.232422 502.682616,150.025393 502.942383,149.611328 C503.20215,149.197264 503.337891,148.544926 503.349609,147.654297 L503.349609,145.878906 Z M420.503906,166.197266 C419.539058,165.91992 418.836916,165.579104 418.397461,165.174805 C417.958006,164.770506 417.738281,164.271487 417.738281,163.677734 C417.738281,163.005856 418.006833,162.450198 418.543945,162.010742 C419.081057,161.571287 419.779293,161.351562 420.638672,161.351562 C421.224612,161.351562 421.747068,161.464843 422.206055,161.691406 C422.665041,161.91797 423.020507,162.230467 423.272461,162.628906 C423.524415,163.027346 423.650391,163.462888 423.650391,163.935547 L422.519531,163.935547 C422.519531,163.419919 422.35547,163.01465 422.027344,162.719727 C421.699217,162.424803 421.236331,162.277344 420.638672,162.277344 C420.083982,162.277344 419.651369,162.399413 419.34082,162.643555 C419.030272,162.887697 418.875,163.22656 418.875,163.660156 C418.875,164.007814 419.022459,164.301757 419.317383,164.541992 C419.612306,164.782228 420.114254,165.001952 420.823242,165.201172 C421.53223,165.400392 422.086912,165.620116 422.487305,165.860352 C422.887697,166.100587 423.184569,166.380858 423.37793,166.701172 C423.57129,167.021486 423.667969,167.398435 423.667969,167.832031 C423.667969,168.523441 423.39844,169.077146 422.859375,169.493164 C422.32031,169.909182 421.599614,170.117188 420.697266,170.117188 C420.111325,170.117188 419.564456,170.004884 419.056641,169.780273 C418.548826,169.555663 418.157228,169.248049 417.881836,168.857422 C417.606444,168.466795 417.46875,168.02344 417.46875,167.527344 L418.599609,167.527344 C418.599609,168.042971 418.790037,168.450194 419.170898,168.749023 C419.55176,169.047853 420.060544,169.197266 420.697266,169.197266 C421.291019,169.197266 421.746092,169.076173 422.0625,168.833984 C422.378908,168.591796 422.537109,168.261721 422.537109,167.84375 C422.537109,167.425779 422.390626,167.10254 422.097656,166.874023 C421.804686,166.645507 421.273441,166.419923 420.503906,166.197266 Z M426.023438,164.427734 C426.503909,163.837888 427.128902,163.542969 427.898438,163.542969 C429.238288,163.542969 429.914062,164.298821 429.925781,165.810547 L429.925781,170 L428.841797,170 L428.841797,165.804688 C428.837891,165.347654 428.733399,165.009767 428.52832,164.791016 C428.323241,164.572265 428.003908,164.462891 427.570312,164.462891 C427.218748,164.462891 426.910158,164.55664 426.644531,164.744141 C426.378905,164.931642 426.171876,165.177733 426.023438,165.482422 L426.023438,170 L424.939453,170 L424.939453,161 L426.023438,161 L426.023438,164.427734 Z M435.462891,170 C435.40039,169.874999 435.34961,169.652345 435.310547,169.332031 C434.806638,169.855471 434.205082,170.117188 433.505859,170.117188 C432.880856,170.117188 432.368166,169.940431 431.967773,169.586914 C431.567381,169.233397 431.367188,168.785159 431.367188,168.242188 C431.367188,167.582028 431.618162,167.069338 432.120117,166.704102 C432.622073,166.338865 433.32812,166.15625 434.238281,166.15625 L435.292969,166.15625 L435.292969,165.658203 C435.292969,165.279295 435.179689,164.97754 434.953125,164.75293 C434.726561,164.528319 434.39258,164.416016 433.951172,164.416016 C433.564451,164.416016 433.240236,164.513671 432.978516,164.708984 C432.716796,164.904298 432.585938,165.140624 432.585938,165.417969 L431.496094,165.417969 C431.496094,165.101561 431.608397,164.7959 431.833008,164.500977 C432.057618,164.206053 432.362303,163.972657 432.74707,163.800781 C433.131838,163.628905 433.554685,163.542969 434.015625,163.542969 C434.746097,163.542969 435.318357,163.725584 435.732422,164.09082 C436.146486,164.456057 436.361328,164.958981 436.376953,165.599609 L436.376953,168.517578 C436.376953,169.099612 436.451171,169.562498 436.599609,169.90625 L436.599609,170 L435.462891,170 Z M433.664062,169.173828 C434.003908,169.173828 434.32617,169.085938 434.630859,168.910156 C434.935548,168.734374 435.156249,168.505861 435.292969,168.224609 L435.292969,166.923828 L434.443359,166.923828 C433.115228,166.923828 432.451172,167.312496 432.451172,168.089844 C432.451172,168.429689 432.564452,168.695312 432.791016,168.886719 C433.017579,169.078126 433.308592,169.173828 433.664062,169.173828 Z M437.8125,166.777344 C437.8125,165.804683 438.042966,165.022464 438.503906,164.430664 C438.964846,163.838864 439.568356,163.542969 440.314453,163.542969 C441.056644,163.542969 441.644529,163.796872 442.078125,164.304688 L442.078125,161 L443.162109,161 L443.162109,170 L442.166016,170 L442.113281,169.320312 C441.679685,169.851565 441.076176,170.117188 440.302734,170.117188 C439.568356,170.117188 438.969729,169.816409 438.506836,169.214844 C438.043943,168.613278 437.8125,167.82813 437.8125,166.859375 L437.8125,166.777344 Z M438.896484,166.900391 C438.896484,167.619144 439.04492,168.181639 439.341797,168.587891 C439.638673,168.994143 440.048826,169.197266 440.572266,169.197266 C441.259769,169.197266 441.761717,168.888675 442.078125,168.271484 L442.078125,165.359375 C441.753905,164.761716 441.255863,164.462891 440.583984,164.462891 C440.052732,164.462891 439.638673,164.667967 439.341797,165.078125 C439.04492,165.488283 438.896484,166.095699 438.896484,166.900391 Z M444.556641,166.771484 C444.556641,166.150388 444.67871,165.591799 444.922852,165.095703 C445.166993,164.599607 445.506834,164.216798 445.942383,163.947266 C446.377932,163.677733 446.874997,163.542969 447.433594,163.542969 C448.296879,163.542969 448.995115,163.841794 449.52832,164.439453 C450.061526,165.037112 450.328125,165.832026 450.328125,166.824219 L450.328125,166.900391 C450.328125,167.517581 450.209962,168.071287 449.973633,168.561523 C449.737304,169.05176 449.399416,169.433592 448.959961,169.707031 C448.520506,169.98047 448.015628,170.117188 447.445312,170.117188 C446.585933,170.117188 445.889651,169.818362 445.356445,169.220703 C444.82324,168.623044 444.556641,167.832036 444.556641,166.847656 L444.556641,166.771484 Z M445.646484,166.900391 C445.646484,167.603519 445.809569,168.167967 446.135742,168.59375 C446.461916,169.019533 446.898435,169.232422 447.445312,169.232422 C447.996097,169.232422 448.433592,169.016604 448.757812,168.584961 C449.082033,168.153318 449.244141,167.548832 449.244141,166.771484 C449.244141,166.076168 449.079103,165.512697 448.749023,165.081055 C448.418944,164.649412 447.980471,164.433594 447.433594,164.433594 C446.898435,164.433594 446.466799,164.646482 446.138672,165.072266 C445.810545,165.498049 445.646484,166.107418 445.646484,166.900391 Z M457.300781,168.505859 L458.519531,163.660156 L459.603516,163.660156 L457.757812,170 L456.878906,170 L455.337891,165.195312 L453.837891,170 L452.958984,170 L451.119141,163.660156 L452.197266,163.660156 L453.445312,168.40625 L454.921875,163.660156 L455.794922,163.660156 L457.300781,168.505859 Z M460.669922,169.431641 C460.669922,169.24414 460.725585,169.087891 460.836914,168.962891 C460.948243,168.83789 461.115233,168.775391 461.337891,168.775391 C461.560548,168.775391 461.729492,168.83789 461.844727,168.962891 C461.959962,169.087891 462.017578,169.24414 462.017578,169.431641 C462.017578,169.611329 461.959962,169.761718 461.844727,169.882812 C461.729492,170.003907 461.560548,170.064453 461.337891,170.064453 C461.115233,170.064453 460.948243,170.003907 460.836914,169.882812 C460.725585,169.761718 460.669922,169.611329 460.669922,169.431641 Z M460.675781,164.257812 C460.675781,164.070312 460.731445,163.914063 460.842773,163.789062 C460.954102,163.664062 461.121093,163.601562 461.34375,163.601562 C461.566407,163.601562 461.735351,163.664062 461.850586,163.789062 C461.965821,163.914063 462.023438,164.070312 462.023438,164.257812 C462.023438,164.437501 461.965821,164.58789 461.850586,164.708984 C461.735351,164.830079 461.566407,164.890625 461.34375,164.890625 C461.121093,164.890625 460.954102,164.830079 460.842773,164.708984 C460.731445,164.58789 460.675781,164.437501 460.675781,164.257812 Z M469.535156,164.738281 L471.580078,161.46875 L472.904297,161.46875 L470.208984,165.699219 L472.96875,170 L471.632812,170 L469.535156,166.671875 L467.425781,170 L466.095703,170 L468.861328,165.699219 L466.160156,161.46875 L467.478516,161.46875 L469.535156,164.738281 Z M482.314453,166.361328 C482.314453,167.630866 482.097658,168.574216 481.664062,169.191406 C481.230467,169.808597 480.552739,170.117188 479.630859,170.117188 C478.720699,170.117188 478.046877,169.815433 477.609375,169.211914 C477.171873,168.608395 476.945313,167.707037 476.929688,166.507812 L476.929688,165.060547 C476.929688,163.806634 477.146482,162.875003 477.580078,162.265625 C478.013674,161.656247 478.693355,161.351562 479.619141,161.351562 C480.537114,161.351562 481.212888,161.645505 481.646484,162.233398 C482.08008,162.821292 482.302734,163.728509 482.314453,164.955078 L482.314453,166.361328 Z M481.230469,164.878906 C481.230469,163.960933 481.101564,163.291994 480.84375,162.87207 C480.585936,162.452146 480.177737,162.242188 479.619141,162.242188 C479.06445,162.242188 478.660158,162.45117 478.40625,162.869141 C478.152342,163.287111 478.021484,163.929683 478.013672,164.796875 L478.013672,166.53125 C478.013672,167.45313 478.14746,168.133787 478.415039,168.573242 C478.682619,169.012698 479.087888,169.232422 479.630859,169.232422 C480.166018,169.232422 480.563475,169.025393 480.823242,168.611328 C481.083009,168.197264 481.21875,167.544926 481.230469,166.654297 L481.230469,164.878906 Z M489.169922,166.900391 C489.169922,167.865239 488.949221,168.642575 488.507812,169.232422 C488.066404,169.822269 487.468754,170.117188 486.714844,170.117188 C485.945309,170.117188 485.339846,169.873049 484.898438,169.384766 L484.898438,172.4375 L483.814453,172.4375 L483.814453,163.660156 L484.804688,163.660156 L484.857422,164.363281 C485.29883,163.816404 485.912105,163.542969 486.697266,163.542969 C487.458988,163.542969 488.061521,163.830075 488.504883,164.404297 C488.948244,164.978518 489.169922,165.777339 489.169922,166.800781 L489.169922,166.900391 Z M488.085938,166.777344 C488.085938,166.062496 487.933595,165.498049 487.628906,165.083984 C487.324217,164.66992 486.906253,164.462891 486.375,164.462891 C485.718747,164.462891 485.226564,164.753903 484.898438,165.335938 L484.898438,168.365234 C485.222658,168.943362 485.718747,169.232422 486.386719,169.232422 C486.906253,169.232422 487.319334,169.026369 487.625977,168.614258 C487.932619,168.202146 488.085938,167.589848 488.085938,166.777344 Z M492.673828,165.974609 L494.080078,163.660156 L495.345703,163.660156 L493.271484,166.794922 L495.410156,170 L494.15625,170 L492.691406,167.626953 L491.226562,170 L489.966797,170 L492.105469,166.794922 L490.03125,163.660156 L491.285156,163.660156 L492.673828,165.974609 Z M502.236328,165.751953 L504.462891,161.46875 L505.740234,161.46875 L502.798828,166.818359 L502.798828,170 L501.673828,170 L501.673828,166.818359 L498.732422,161.46875 L500.021484,161.46875 L502.236328,165.751953 Z M511.107422,165.207031 L511.921875,165.207031 C512.433596,165.199219 512.835936,165.064454 513.128906,164.802734 C513.421876,164.541014 513.568359,164.187502 513.568359,163.742188 C513.568359,162.742183 513.070317,162.242188 512.074219,162.242188 C511.605466,162.242188 511.231447,162.375975 510.952148,162.643555 C510.67285,162.911134 510.533203,163.265623 510.533203,163.707031 L509.449219,163.707031 C509.449219,163.031247 509.696287,162.469729 510.19043,162.022461 C510.684573,161.575193 511.312496,161.351562 512.074219,161.351562 C512.87891,161.351562 513.509763,161.564451 513.966797,161.990234 C514.42383,162.416018 514.652344,163.007809 514.652344,163.765625 C514.652344,164.136721 514.532228,164.496092 514.291992,164.84375 C514.051757,165.191408 513.724611,165.451171 513.310547,165.623047 C513.779299,165.771485 514.1416,166.017576 514.397461,166.361328 C514.653322,166.70508 514.78125,167.124998 514.78125,167.621094 C514.78125,168.386723 514.531252,168.994138 514.03125,169.443359 C513.531247,169.89258 512.880863,170.117188 512.080078,170.117188 C511.279293,170.117188 510.627932,169.900393 510.125977,169.466797 C509.624021,169.033201 509.373047,168.460941 509.373047,167.75 L510.462891,167.75 C510.462891,168.199221 510.609374,168.558592 510.902344,168.828125 C511.195314,169.097658 511.587888,169.232422 512.080078,169.232422 C512.603518,169.232422 513.003905,169.095704 513.28125,168.822266 C513.558595,168.548827 513.697266,168.156253 513.697266,167.644531 C513.697266,167.148435 513.544923,166.767579 513.240234,166.501953 C512.935545,166.236327 512.496097,166.099609 511.921875,166.091797 L511.107422,166.091797 L511.107422,165.207031 Z M521.736328,166.900391 C521.736328,167.865239 521.515627,168.642575 521.074219,169.232422 C520.63281,169.822269 520.03516,170.117188 519.28125,170.117188 C518.511715,170.117188 517.906252,169.873049 517.464844,169.384766 L517.464844,172.4375 L516.380859,172.4375 L516.380859,163.660156 L517.371094,163.660156 L517.423828,164.363281 C517.865237,163.816404 518.478512,163.542969 519.263672,163.542969 C520.025394,163.542969 520.627927,163.830075 521.071289,164.404297 C521.514651,164.978518 521.736328,165.777339 521.736328,166.800781 L521.736328,166.900391 Z M520.652344,166.777344 C520.652344,166.062496 520.500002,165.498049 520.195312,165.083984 C519.890623,164.66992 519.472659,164.462891 518.941406,164.462891 C518.285153,164.462891 517.79297,164.753903 517.464844,165.335938 L517.464844,168.365234 C517.789064,168.943362 518.285153,169.232422 518.953125,169.232422 C519.472659,169.232422 519.885741,169.026369 520.192383,168.614258 C520.499025,168.202146 520.652344,167.589848 520.652344,166.777344 Z M525.240234,165.974609 L526.646484,163.660156 L527.912109,163.660156 L525.837891,166.794922 L527.976562,170 L526.722656,170 L525.257812,167.626953 L523.792969,170 L522.533203,170 L524.671875,166.794922 L522.597656,163.660156 L523.851562,163.660156 L525.240234,165.974609 Z M529.025391,171.699219 L528.410156,171.277344 C528.777346,170.765622 528.96875,170.238284 528.984375,169.695312 L528.984375,168.716797 L530.044922,168.716797 L530.044922,169.566406 C530.044922,169.960939 529.948243,170.355467 529.754883,170.75 C529.561522,171.144533 529.318361,171.460936 529.025391,171.699219 Z M539.753906,166.900391 C539.753906,167.869145 539.531252,168.647458 539.085938,169.235352 C538.640623,169.823245 538.042973,170.117188 537.292969,170.117188 C536.492183,170.117188 535.873049,169.833987 535.435547,169.267578 L535.382812,170 L534.386719,170 L534.386719,161 L535.470703,161 L535.470703,164.357422 C535.908205,163.81445 536.511715,163.542969 537.28125,163.542969 C538.050785,163.542969 538.655271,163.833981 539.094727,164.416016 C539.534182,164.99805 539.753906,165.794917 539.753906,166.806641 L539.753906,166.900391 Z M538.669922,166.777344 C538.669922,166.039059 538.527345,165.468752 538.242188,165.066406 C537.95703,164.66406 537.546878,164.462891 537.011719,164.462891 C536.296871,164.462891 535.783205,164.794919 535.470703,165.458984 L535.470703,168.201172 C535.802736,168.865238 536.320309,169.197266 537.023438,169.197266 C537.542971,169.197266 537.947264,168.996096 538.236328,168.59375 C538.525392,168.191404 538.669922,167.585942 538.669922,166.777344 Z M542.296875,170 L541.212891,170 L541.212891,161 L542.296875,161 L542.296875,170 Z M547.945312,169.373047 C547.523435,169.869143 546.904301,170.117188 546.087891,170.117188 C545.412106,170.117188 544.897463,169.9209 544.543945,169.52832 C544.190428,169.13574 544.011719,168.554691 544.007812,167.785156 L544.007812,163.660156 L545.091797,163.660156 L545.091797,167.755859 C545.091797,168.716802 545.482418,169.197266 546.263672,169.197266 C547.091801,169.197266 547.642577,168.888675 547.916016,168.271484 L547.916016,163.660156 L549,163.660156 L549,170 L547.96875,170 L547.945312,169.373047 Z M553.710938,164.632812 C553.546874,164.605469 553.369142,164.591797 553.177734,164.591797 C552.466793,164.591797 551.984376,164.894528 551.730469,165.5 L551.730469,170 L550.646484,170 L550.646484,163.660156 L551.701172,163.660156 L551.71875,164.392578 C552.074221,163.826169 552.578122,163.542969 553.230469,163.542969 C553.441407,163.542969 553.601562,163.570312 553.710938,163.625 L553.710938,164.632812 Z M559.142578,165.207031 L559.957031,165.207031 C560.468753,165.199219 560.871092,165.064454 561.164062,164.802734 C561.457033,164.541014 561.603516,164.187502 561.603516,163.742188 C561.603516,162.742183 561.105474,162.242188 560.109375,162.242188 C559.640623,162.242188 559.266603,162.375975 558.987305,162.643555 C558.708006,162.911134 558.568359,163.265623 558.568359,163.707031 L557.484375,163.707031 C557.484375,163.031247 557.731443,162.469729 558.225586,162.022461 C558.719729,161.575193 559.347652,161.351562 560.109375,161.351562 C560.914067,161.351562 561.54492,161.564451 562.001953,161.990234 C562.458987,162.416018 562.6875,163.007809 562.6875,163.765625 C562.6875,164.136721 562.567384,164.496092 562.327148,164.84375 C562.086913,165.191408 561.759768,165.451171 561.345703,165.623047 C561.814455,165.771485 562.176757,166.017576 562.432617,166.361328 C562.688478,166.70508 562.816406,167.124998 562.816406,167.621094 C562.816406,168.386723 562.566409,168.994138 562.066406,169.443359 C561.566404,169.89258 560.91602,170.117188 560.115234,170.117188 C559.314449,170.117188 558.663088,169.900393 558.161133,169.466797 C557.659177,169.033201 557.408203,168.460941 557.408203,167.75 L558.498047,167.75 C558.498047,168.199221 558.64453,168.558592 558.9375,168.828125 C559.23047,169.097658 559.623044,169.232422 560.115234,169.232422 C560.638674,169.232422 561.039061,169.095704 561.316406,168.822266 C561.593751,168.548827 561.732422,168.156253 561.732422,167.644531 C561.732422,167.148435 561.58008,166.767579 561.275391,166.501953 C560.970702,166.236327 560.531253,166.099609 559.957031,166.091797 L559.142578,166.091797 L559.142578,165.207031 Z M569.771484,166.900391 C569.771484,167.865239 569.550783,168.642575 569.109375,169.232422 C568.667967,169.822269 568.070316,170.117188 567.316406,170.117188 C566.546871,170.117188 565.941408,169.873049 565.5,169.384766 L565.5,172.4375 L564.416016,172.4375 L564.416016,163.660156 L565.40625,163.660156 L565.458984,164.363281 C565.900393,163.816404 566.513668,163.542969 567.298828,163.542969 C568.060551,163.542969 568.663084,163.830075 569.106445,164.404297 C569.549807,164.978518 569.771484,165.777339 569.771484,166.800781 L569.771484,166.900391 Z M568.6875,166.777344 C568.6875,166.062496 568.535158,165.498049 568.230469,165.083984 C567.92578,164.66992 567.507815,164.462891 566.976562,164.462891 C566.320309,164.462891 565.828127,164.753903 565.5,165.335938 L565.5,168.365234 C565.82422,168.943362 566.320309,169.232422 566.988281,169.232422 C567.507815,169.232422 567.920897,169.026369 568.227539,168.614258 C568.534181,168.202146 568.6875,167.589848 568.6875,166.777344 Z M573.275391,165.974609 L574.681641,163.660156 L575.947266,163.660156 L573.873047,166.794922 L576.011719,170 L574.757812,170 L573.292969,167.626953 L571.828125,170 L570.568359,170 L572.707031,166.794922 L570.632812,163.660156 L571.886719,163.660156 L573.275391,165.974609 Z M420.503906,185.197266 C419.539058,184.91992 418.836916,184.579104 418.397461,184.174805 C417.958006,183.770506 417.738281,183.271487 417.738281,182.677734 C417.738281,182.005856 418.006833,181.450198 418.543945,181.010742 C419.081057,180.571287 419.779293,180.351562 420.638672,180.351562 C421.224612,180.351562 421.747068,180.464843 422.206055,180.691406 C422.665041,180.91797 423.020507,181.230467 423.272461,181.628906 C423.524415,182.027346 423.650391,182.462888 423.650391,182.935547 L422.519531,182.935547 C422.519531,182.419919 422.35547,182.01465 422.027344,181.719727 C421.699217,181.424803 421.236331,181.277344 420.638672,181.277344 C420.083982,181.277344 419.651369,181.399413 419.34082,181.643555 C419.030272,181.887697 418.875,182.22656 418.875,182.660156 C418.875,183.007814 419.022459,183.301757 419.317383,183.541992 C419.612306,183.782228 420.114254,184.001952 420.823242,184.201172 C421.53223,184.400392 422.086912,184.620116 422.487305,184.860352 C422.887697,185.100587 423.184569,185.380858 423.37793,185.701172 C423.57129,186.021486 423.667969,186.398435 423.667969,186.832031 C423.667969,187.523441 423.39844,188.077146 422.859375,188.493164 C422.32031,188.909182 421.599614,189.117188 420.697266,189.117188 C420.111325,189.117188 419.564456,189.004884 419.056641,188.780273 C418.548826,188.555663 418.157228,188.248049 417.881836,187.857422 C417.606444,187.466795 417.46875,187.02344 417.46875,186.527344 L418.599609,186.527344 C418.599609,187.042971 418.790037,187.450194 419.170898,187.749023 C419.55176,188.047853 420.060544,188.197266 420.697266,188.197266 C421.291019,188.197266 421.746092,188.076173 422.0625,187.833984 C422.378908,187.591796 422.537109,187.261721 422.537109,186.84375 C422.537109,186.425779 422.390626,186.10254 422.097656,185.874023 C421.804686,185.645507 421.273441,185.419923 420.503906,185.197266 Z M426.023438,183.427734 C426.503909,182.837888 427.128902,182.542969 427.898438,182.542969 C429.238288,182.542969 429.914062,183.298821 429.925781,184.810547 L429.925781,189 L428.841797,189 L428.841797,184.804688 C428.837891,184.347654 428.733399,184.009767 428.52832,183.791016 C428.323241,183.572265 428.003908,183.462891 427.570312,183.462891 C427.218748,183.462891 426.910158,183.55664 426.644531,183.744141 C426.378905,183.931642 426.171876,184.177733 426.023438,184.482422 L426.023438,189 L424.939453,189 L424.939453,180 L426.023438,180 L426.023438,183.427734 Z M435.462891,189 C435.40039,188.874999 435.34961,188.652345 435.310547,188.332031 C434.806638,188.855471 434.205082,189.117188 433.505859,189.117188 C432.880856,189.117188 432.368166,188.940431 431.967773,188.586914 C431.567381,188.233397 431.367188,187.785159 431.367188,187.242188 C431.367188,186.582028 431.618162,186.069338 432.120117,185.704102 C432.622073,185.338865 433.32812,185.15625 434.238281,185.15625 L435.292969,185.15625 L435.292969,184.658203 C435.292969,184.279295 435.179689,183.97754 434.953125,183.75293 C434.726561,183.528319 434.39258,183.416016 433.951172,183.416016 C433.564451,183.416016 433.240236,183.513671 432.978516,183.708984 C432.716796,183.904298 432.585938,184.140624 432.585938,184.417969 L431.496094,184.417969 C431.496094,184.101561 431.608397,183.7959 431.833008,183.500977 C432.057618,183.206053 432.362303,182.972657 432.74707,182.800781 C433.131838,182.628905 433.554685,182.542969 434.015625,182.542969 C434.746097,182.542969 435.318357,182.725584 435.732422,183.09082 C436.146486,183.456057 436.361328,183.958981 436.376953,184.599609 L436.376953,187.517578 C436.376953,188.099612 436.451171,188.562498 436.599609,188.90625 L436.599609,189 L435.462891,189 Z M433.664062,188.173828 C434.003908,188.173828 434.32617,188.085938 434.630859,187.910156 C434.935548,187.734374 435.156249,187.505861 435.292969,187.224609 L435.292969,185.923828 L434.443359,185.923828 C433.115228,185.923828 432.451172,186.312496 432.451172,187.089844 C432.451172,187.429689 432.564452,187.695312 432.791016,187.886719 C433.017579,188.078126 433.308592,188.173828 433.664062,188.173828 Z M437.8125,185.777344 C437.8125,184.804683 438.042966,184.022464 438.503906,183.430664 C438.964846,182.838864 439.568356,182.542969 440.314453,182.542969 C441.056644,182.542969 441.644529,182.796872 442.078125,183.304688 L442.078125,180 L443.162109,180 L443.162109,189 L442.166016,189 L442.113281,188.320312 C441.679685,188.851565 441.076176,189.117188 440.302734,189.117188 C439.568356,189.117188 438.969729,188.816409 438.506836,188.214844 C438.043943,187.613278 437.8125,186.82813 437.8125,185.859375 L437.8125,185.777344 Z M438.896484,185.900391 C438.896484,186.619144 439.04492,187.181639 439.341797,187.587891 C439.638673,187.994143 440.048826,188.197266 440.572266,188.197266 C441.259769,188.197266 441.761717,187.888675 442.078125,187.271484 L442.078125,184.359375 C441.753905,183.761716 441.255863,183.462891 440.583984,183.462891 C440.052732,183.462891 439.638673,183.667967 439.341797,184.078125 C439.04492,184.488283 438.896484,185.095699 438.896484,185.900391 Z M444.556641,185.771484 C444.556641,185.150388 444.67871,184.591799 444.922852,184.095703 C445.166993,183.599607 445.506834,183.216798 445.942383,182.947266 C446.377932,182.677733 446.874997,182.542969 447.433594,182.542969 C448.296879,182.542969 448.995115,182.841794 449.52832,183.439453 C450.061526,184.037112 450.328125,184.832026 450.328125,185.824219 L450.328125,185.900391 C450.328125,186.517581 450.209962,187.071287 449.973633,187.561523 C449.737304,188.05176 449.399416,188.433592 448.959961,188.707031 C448.520506,188.98047 448.015628,189.117188 447.445312,189.117188 C446.585933,189.117188 445.889651,188.818362 445.356445,188.220703 C444.82324,187.623044 444.556641,186.832036 444.556641,185.847656 L444.556641,185.771484 Z M445.646484,185.900391 C445.646484,186.603519 445.809569,187.167967 446.135742,187.59375 C446.461916,188.019533 446.898435,188.232422 447.445312,188.232422 C447.996097,188.232422 448.433592,188.016604 448.757812,187.584961 C449.082033,187.153318 449.244141,186.548832 449.244141,185.771484 C449.244141,185.076168 449.079103,184.512697 448.749023,184.081055 C448.418944,183.649412 447.980471,183.433594 447.433594,183.433594 C446.898435,183.433594 446.466799,183.646482 446.138672,184.072266 C445.810545,184.498049 445.646484,185.107418 445.646484,185.900391 Z M457.300781,187.505859 L458.519531,182.660156 L459.603516,182.660156 L457.757812,189 L456.878906,189 L455.337891,184.195312 L453.837891,189 L452.958984,189 L451.119141,182.660156 L452.197266,182.660156 L453.445312,187.40625 L454.921875,182.660156 L455.794922,182.660156 L457.300781,187.505859 Z M466.21875,188.232422 C466.605471,188.232422 466.943358,188.115236 467.232422,187.880859 C467.521486,187.646483 467.68164,187.353517 467.712891,187.001953 L468.738281,187.001953 C468.71875,187.365236 468.593751,187.710936 468.363281,188.039062 C468.132811,188.367189 467.825197,188.628905 467.44043,188.824219 C467.055662,189.019532 466.64844,189.117188 466.21875,189.117188 C465.355464,189.117188 464.668948,188.829104 464.15918,188.25293 C463.649412,187.676755 463.394531,186.888677 463.394531,185.888672 L463.394531,185.707031 C463.394531,185.089841 463.507811,184.541018 463.734375,184.060547 C463.960939,183.580076 464.286131,183.207033 464.709961,182.941406 C465.133791,182.67578 465.634763,182.542969 466.212891,182.542969 C466.923832,182.542969 467.514646,182.755857 467.985352,183.181641 C468.456057,183.607424 468.707031,184.160153 468.738281,184.839844 L467.712891,184.839844 C467.68164,184.429685 467.526369,184.092775 467.24707,183.829102 C466.967772,183.565428 466.623049,183.433594 466.212891,183.433594 C465.662107,183.433594 465.235353,183.631834 464.932617,184.02832 C464.629881,184.424807 464.478516,184.998043 464.478516,185.748047 L464.478516,185.953125 C464.478516,186.683597 464.628905,187.246092 464.929688,187.640625 C465.23047,188.035158 465.660153,188.232422 466.21875,188.232422 Z M469.669922,185.771484 C469.669922,185.150388 469.791991,184.591799 470.036133,184.095703 C470.280275,183.599607 470.620115,183.216798 471.055664,182.947266 C471.491213,182.677733 471.988278,182.542969 472.546875,182.542969 C473.410161,182.542969 474.108396,182.841794 474.641602,183.439453 C475.174807,184.037112 475.441406,184.832026 475.441406,185.824219 L475.441406,185.900391 C475.441406,186.517581 475.323243,187.071287 475.086914,187.561523 C474.850585,188.05176 474.512698,188.433592 474.073242,188.707031 C473.633787,188.98047 473.128909,189.117188 472.558594,189.117188 C471.699214,189.117188 471.002932,188.818362 470.469727,188.220703 C469.936521,187.623044 469.669922,186.832036 469.669922,185.847656 L469.669922,185.771484 Z M470.759766,185.900391 C470.759766,186.603519 470.92285,187.167967 471.249023,187.59375 C471.575197,188.019533 472.011716,188.232422 472.558594,188.232422 C473.109378,188.232422 473.546873,188.016604 473.871094,187.584961 C474.195314,187.153318 474.357422,186.548832 474.357422,185.771484 C474.357422,185.076168 474.192384,184.512697 473.862305,184.081055 C473.532225,183.649412 473.093753,183.433594 472.546875,183.433594 C472.011716,183.433594 471.58008,183.646482 471.251953,184.072266 C470.923826,184.498049 470.759766,185.107418 470.759766,185.900391 Z M477.978516,189 L476.894531,189 L476.894531,180 L477.978516,180 L477.978516,189 Z M479.425781,185.771484 C479.425781,185.150388 479.54785,184.591799 479.791992,184.095703 C480.036134,183.599607 480.375974,183.216798 480.811523,182.947266 C481.247072,182.677733 481.744138,182.542969 482.302734,182.542969 C483.16602,182.542969 483.864255,182.841794 484.397461,183.439453 C484.930667,184.037112 485.197266,184.832026 485.197266,185.824219 L485.197266,185.900391 C485.197266,186.517581 485.079103,187.071287 484.842773,187.561523 C484.606444,188.05176 484.268557,188.433592 483.829102,188.707031 C483.389646,188.98047 482.884768,189.117188 482.314453,189.117188 C481.455074,189.117188 480.758792,188.818362 480.225586,188.220703 C479.69238,187.623044 479.425781,186.832036 479.425781,185.847656 L479.425781,185.771484 Z M480.515625,185.900391 C480.515625,186.603519 480.678709,187.167967 481.004883,187.59375 C481.331056,188.019533 481.767575,188.232422 482.314453,188.232422 C482.865237,188.232422 483.302733,188.016604 483.626953,187.584961 C483.951173,187.153318 484.113281,186.548832 484.113281,185.771484 C484.113281,185.076168 483.948244,184.512697 483.618164,184.081055 C483.288084,183.649412 482.849612,183.433594 482.302734,183.433594 C481.767575,183.433594 481.335939,183.646482 481.007812,184.072266 C480.679686,184.498049 480.515625,185.107418 480.515625,185.900391 Z M489.621094,183.632812 C489.45703,183.605469 489.279298,183.591797 489.087891,183.591797 C488.37695,183.591797 487.894533,183.894528 487.640625,184.5 L487.640625,189 L486.556641,189 L486.556641,182.660156 L487.611328,182.660156 L487.628906,183.392578 C487.984377,182.826169 488.488278,182.542969 489.140625,182.542969 C489.351564,182.542969 489.511718,182.570312 489.621094,182.625 L489.621094,183.632812 Z M490.582031,188.431641 C490.582031,188.24414 490.637695,188.087891 490.749023,187.962891 C490.860352,187.83789 491.027343,187.775391 491.25,187.775391 C491.472657,187.775391 491.641601,187.83789 491.756836,187.962891 C491.872071,188.087891 491.929688,188.24414 491.929688,188.431641 C491.929688,188.611329 491.872071,188.761718 491.756836,188.882812 C491.641601,189.003907 491.472657,189.064453 491.25,189.064453 C491.027343,189.064453 490.860352,189.003907 490.749023,188.882812 C490.637695,188.761718 490.582031,188.611329 490.582031,188.431641 Z M490.587891,183.257812 C490.587891,183.070312 490.643554,182.914063 490.754883,182.789062 C490.866211,182.664062 491.033202,182.601562 491.255859,182.601562 C491.478517,182.601562 491.64746,182.664062 491.762695,182.789062 C491.87793,182.914063 491.935547,183.070312 491.935547,183.257812 C491.935547,183.437501 491.87793,183.58789 491.762695,183.708984 C491.64746,183.830079 491.478517,183.890625 491.255859,183.890625 C491.033202,183.890625 490.866211,183.830079 490.754883,183.708984 C490.643554,183.58789 490.587891,183.437501 490.587891,183.257812 Z M500.15625,186.597656 L498.609375,186.597656 L498.140625,189 L497.302734,189 L497.771484,186.597656 L496.371094,186.597656 L496.371094,185.794922 L497.923828,185.794922 L498.328125,183.720703 L496.816406,183.720703 L496.816406,182.90625 L498.486328,182.90625 L498.966797,180.46875 L499.804688,180.46875 L499.324219,182.90625 L500.871094,182.90625 L501.351562,180.46875 L502.195312,180.46875 L501.714844,182.90625 L502.910156,182.90625 L502.910156,183.720703 L501.556641,183.720703 L501.152344,185.794922 L502.470703,185.794922 L502.470703,186.597656 L501,186.597656 L500.53125,189 L499.6875,189 L500.15625,186.597656 Z M498.761719,185.794922 L500.308594,185.794922 L500.712891,183.720703 L499.166016,183.720703 L498.761719,185.794922 Z M509.121094,185.361328 C509.121094,186.630866 508.904299,187.574216 508.470703,188.191406 C508.037107,188.808597 507.35938,189.117188 506.4375,189.117188 C505.527339,189.117188 504.853518,188.815433 504.416016,188.211914 C503.978513,187.608395 503.751953,186.707037 503.736328,185.507812 L503.736328,184.060547 C503.736328,182.806634 503.953123,181.875003 504.386719,181.265625 C504.820315,180.656247 505.499995,180.351562 506.425781,180.351562 C507.343755,180.351562 508.019529,180.645505 508.453125,181.233398 C508.886721,181.821292 509.109375,182.728509 509.121094,183.955078 L509.121094,185.361328 Z M508.037109,183.878906 C508.037109,182.960933 507.908204,182.291994 507.650391,181.87207 C507.392577,181.452146 506.984378,181.242188 506.425781,181.242188 C505.871091,181.242188 505.466798,181.45117 505.212891,181.869141 C504.958983,182.287111 504.828125,182.929683 504.820312,183.796875 L504.820312,185.53125 C504.820312,186.45313 504.9541,187.133787 505.22168,187.573242 C505.489259,188.012698 505.894529,188.232422 506.4375,188.232422 C506.972659,188.232422 507.370116,188.025393 507.629883,187.611328 C507.88965,187.197264 508.025391,186.544926 508.037109,185.654297 L508.037109,183.878906 Z M515.859375,185.361328 C515.859375,186.630866 515.64258,187.574216 515.208984,188.191406 C514.775388,188.808597 514.097661,189.117188 513.175781,189.117188 C512.26562,189.117188 511.591799,188.815433 511.154297,188.211914 C510.716795,187.608395 510.490234,186.707037 510.474609,185.507812 L510.474609,184.060547 C510.474609,182.806634 510.691404,181.875003 511.125,181.265625 C511.558596,180.656247 512.238277,180.351562 513.164062,180.351562 C514.082036,180.351562 514.75781,180.645505 515.191406,181.233398 C515.625002,181.821292 515.847656,182.728509 515.859375,183.955078 L515.859375,185.361328 Z M514.775391,183.878906 C514.775391,182.960933 514.646486,182.291994 514.388672,181.87207 C514.130858,181.452146 513.722659,181.242188 513.164062,181.242188 C512.609372,181.242188 512.205079,181.45117 511.951172,181.869141 C511.697264,182.287111 511.566406,182.929683 511.558594,183.796875 L511.558594,185.53125 C511.558594,186.45313 511.692381,187.133787 511.959961,187.573242 C512.22754,188.012698 512.63281,188.232422 513.175781,188.232422 C513.71094,188.232422 514.108397,188.025393 514.368164,187.611328 C514.627931,187.197264 514.763672,186.544926 514.775391,185.654297 L514.775391,183.878906 Z M522.597656,185.361328 C522.597656,186.630866 522.380862,187.574216 521.947266,188.191406 C521.51367,188.808597 520.835942,189.117188 519.914062,189.117188 C519.003902,189.117188 518.33008,188.815433 517.892578,188.211914 C517.455076,187.608395 517.228516,186.707037 517.212891,185.507812 L517.212891,184.060547 C517.212891,182.806634 517.429685,181.875003 517.863281,181.265625 C518.296877,180.656247 518.976558,180.351562 519.902344,180.351562 C520.820317,180.351562 521.496092,180.645505 521.929688,181.233398 C522.363283,181.821292 522.585937,182.728509 522.597656,183.955078 L522.597656,185.361328 Z M521.513672,183.878906 C521.513672,182.960933 521.384767,182.291994 521.126953,181.87207 C520.869139,181.452146 520.46094,181.242188 519.902344,181.242188 C519.347653,181.242188 518.943361,181.45117 518.689453,181.869141 C518.435546,182.287111 518.304688,182.929683 518.296875,183.796875 L518.296875,185.53125 C518.296875,186.45313 518.430663,187.133787 518.698242,187.573242 C518.965822,188.012698 519.371091,188.232422 519.914062,188.232422 C520.449221,188.232422 520.846678,188.025393 521.106445,187.611328 C521.366212,187.197264 521.501953,186.544926 521.513672,185.654297 L521.513672,183.878906 Z M529.335938,185.361328 C529.335938,186.630866 529.119143,187.574216 528.685547,188.191406 C528.251951,188.808597 527.574223,189.117188 526.652344,189.117188 C525.742183,189.117188 525.068362,188.815433 524.630859,188.211914 C524.193357,187.608395 523.966797,186.707037 523.951172,185.507812 L523.951172,184.060547 C523.951172,182.806634 524.167967,181.875003 524.601562,181.265625 C525.035158,180.656247 525.714839,180.351562 526.640625,180.351562 C527.558598,180.351562 528.234373,180.645505 528.667969,181.233398 C529.101565,181.821292 529.324219,182.728509 529.335938,183.955078 L529.335938,185.361328 Z M528.251953,183.878906 C528.251953,182.960933 528.123048,182.291994 527.865234,181.87207 C527.607421,181.452146 527.199222,181.242188 526.640625,181.242188 C526.085935,181.242188 525.681642,181.45117 525.427734,181.869141 C525.173827,182.287111 525.042969,182.929683 525.035156,183.796875 L525.035156,185.53125 C525.035156,186.45313 525.168944,187.133787 525.436523,187.573242 C525.704103,188.012698 526.109372,188.232422 526.652344,188.232422 C527.187503,188.232422 527.58496,188.025393 527.844727,187.611328 C528.104493,187.197264 528.240234,186.544926 528.251953,185.654297 L528.251953,183.878906 Z M536.074219,185.361328 C536.074219,186.630866 535.857424,187.574216 535.423828,188.191406 C534.990232,188.808597 534.312505,189.117188 533.390625,189.117188 C532.480464,189.117188 531.806643,188.815433 531.369141,188.211914 C530.931638,187.608395 530.705078,186.707037 530.689453,185.507812 L530.689453,184.060547 C530.689453,182.806634 530.906248,181.875003 531.339844,181.265625 C531.77344,180.656247 532.45312,180.351562 533.378906,180.351562 C534.29688,180.351562 534.972654,180.645505 535.40625,181.233398 C535.839846,181.821292 536.0625,182.728509 536.074219,183.955078 L536.074219,185.361328 Z M534.990234,183.878906 C534.990234,182.960933 534.861329,182.291994 534.603516,181.87207 C534.345702,181.452146 533.937503,181.242188 533.378906,181.242188 C532.824216,181.242188 532.419923,181.45117 532.166016,181.869141 C531.912108,182.287111 531.78125,182.929683 531.773438,183.796875 L531.773438,185.53125 C531.773438,186.45313 531.907225,187.133787 532.174805,187.573242 C532.442384,188.012698 532.847654,188.232422 533.390625,188.232422 C533.925784,188.232422 534.323241,188.025393 534.583008,187.611328 C534.842775,187.197264 534.978516,186.544926 534.990234,185.654297 L534.990234,183.878906 Z M542.8125,185.361328 C542.8125,186.630866 542.595705,187.574216 542.162109,188.191406 C541.728513,188.808597 541.050786,189.117188 540.128906,189.117188 C539.218745,189.117188 538.544924,188.815433 538.107422,188.211914 C537.66992,187.608395 537.443359,186.707037 537.427734,185.507812 L537.427734,184.060547 C537.427734,182.806634 537.644529,181.875003 538.078125,181.265625 C538.511721,180.656247 539.191402,180.351562 540.117188,180.351562 C541.035161,180.351562 541.710935,180.645505 542.144531,181.233398 C542.578127,181.821292 542.800781,182.728509 542.8125,183.955078 L542.8125,185.361328 Z M541.728516,183.878906 C541.728516,182.960933 541.599611,182.291994 541.341797,181.87207 C541.083983,181.452146 540.675784,181.242188 540.117188,181.242188 C539.562497,181.242188 539.158204,181.45117 538.904297,181.869141 C538.650389,182.287111 538.519531,182.929683 538.511719,183.796875 L538.511719,185.53125 C538.511719,186.45313 538.645506,187.133787 538.913086,187.573242 C539.180665,188.012698 539.585935,188.232422 540.128906,188.232422 C540.664065,188.232422 541.061522,188.025393 541.321289,187.611328 C541.581056,187.197264 541.716797,186.544926 541.728516,185.654297 L541.728516,183.878906 Z M544.277344,190.699219 L543.662109,190.277344 C544.029299,189.765622 544.220703,189.238284 544.236328,188.695312 L544.236328,187.716797 L545.296875,187.716797 L545.296875,188.566406 C545.296875,188.960939 545.200196,189.355467 545.006836,189.75 C544.813476,190.144533 544.570314,190.460936 544.277344,190.699219 Z M424.552734,204.009766 C424.552734,204.845707 424.412111,205.575192 424.130859,206.198242 C423.849608,206.821292 423.451174,207.296873 422.935547,207.625 C422.419919,207.953127 421.818363,208.117188 421.130859,208.117188 C420.458981,208.117188 419.863284,207.95215 419.34375,207.62207 C418.824216,207.291991 418.4209,206.821292 418.133789,206.209961 C417.846678,205.59863 417.699219,204.890629 417.691406,204.085938 L417.691406,203.470703 C417.691406,202.650387 417.833983,201.925784 418.119141,201.296875 C418.404298,200.667966 418.807615,200.186525 419.329102,199.852539 C419.850589,199.518553 420.447262,199.351562 421.119141,199.351562 C421.802738,199.351562 422.405271,199.5166 422.926758,199.84668 C423.448245,200.176759 423.849608,200.65527 424.130859,201.282227 C424.412111,201.909183 424.552734,202.638668 424.552734,203.470703 L424.552734,204.009766 Z M423.433594,203.458984 C423.433594,202.447261 423.230471,201.670901 422.824219,201.129883 C422.417967,200.588864 421.849613,200.318359 421.119141,200.318359 C420.4082,200.318359 419.848635,200.588864 419.44043,201.129883 C419.032225,201.670901 418.822266,202.42187 418.810547,203.382812 L418.810547,204.009766 C418.810547,204.990239 419.0166,205.760739 419.428711,206.321289 C419.840822,206.881839 420.4082,207.162109 421.130859,207.162109 C421.857426,207.162109 422.41992,206.897464 422.818359,206.368164 C423.216799,205.838865 423.421875,205.080083 423.433594,204.091797 L423.433594,203.458984 Z M431.425781,204.900391 C431.425781,205.865239 431.20508,206.642575 430.763672,207.232422 C430.322263,207.822269 429.724613,208.117188 428.970703,208.117188 C428.201168,208.117188 427.595705,207.873049 427.154297,207.384766 L427.154297,210.4375 L426.070312,210.4375 L426.070312,201.660156 L427.060547,201.660156 L427.113281,202.363281 C427.55469,201.816404 428.167965,201.542969 428.953125,201.542969 C429.714848,201.542969 430.317381,201.830075 430.760742,202.404297 C431.204104,202.978518 431.425781,203.777339 431.425781,204.800781 L431.425781,204.900391 Z M430.341797,204.777344 C430.341797,204.062496 430.189455,203.498049 429.884766,203.083984 C429.580077,202.66992 429.162112,202.462891 428.630859,202.462891 C427.974606,202.462891 427.482424,202.753903 427.154297,203.335938 L427.154297,206.365234 C427.478517,206.943362 427.974606,207.232422 428.642578,207.232422 C429.162112,207.232422 429.575194,207.026369 429.881836,206.614258 C430.188478,206.202146 430.341797,205.589848 430.341797,204.777344 Z M436.716797,208 C436.654297,207.874999 436.603516,207.652345 436.564453,207.332031 C436.060544,207.855471 435.458988,208.117188 434.759766,208.117188 C434.134763,208.117188 433.622072,207.940431 433.22168,207.586914 C432.821287,207.233397 432.621094,206.785159 432.621094,206.242188 C432.621094,205.582028 432.872068,205.069338 433.374023,204.704102 C433.875979,204.338865 434.582027,204.15625 435.492188,204.15625 L436.546875,204.15625 L436.546875,203.658203 C436.546875,203.279295 436.433595,202.97754 436.207031,202.75293 C435.980468,202.528319 435.646487,202.416016 435.205078,202.416016 C434.818357,202.416016 434.494142,202.513671 434.232422,202.708984 C433.970702,202.904298 433.839844,203.140624 433.839844,203.417969 L432.75,203.417969 C432.75,203.101561 432.862304,202.7959 433.086914,202.500977 C433.311525,202.206053 433.616209,201.972657 434.000977,201.800781 C434.385744,201.628905 434.808591,201.542969 435.269531,201.542969 C436.000004,201.542969 436.572264,201.725584 436.986328,202.09082 C437.400393,202.456057 437.615234,202.958981 437.630859,203.599609 L437.630859,206.517578 C437.630859,207.099612 437.705077,207.562498 437.853516,207.90625 L437.853516,208 L436.716797,208 Z M434.917969,207.173828 C435.257814,207.173828 435.580077,207.085938 435.884766,206.910156 C436.189455,206.734374 436.410156,206.505861 436.546875,206.224609 L436.546875,204.923828 L435.697266,204.923828 C434.369134,204.923828 433.705078,205.312496 433.705078,206.089844 C433.705078,206.429689 433.818358,206.695312 434.044922,206.886719 C434.271486,207.078126 434.562498,207.173828 434.917969,207.173828 Z M441.873047,207.232422 C442.259768,207.232422 442.597655,207.115236 442.886719,206.880859 C443.175783,206.646483 443.335937,206.353517 443.367188,206.001953 L444.392578,206.001953 C444.373047,206.365236 444.248048,206.710936 444.017578,207.039062 C443.787108,207.367189 443.479494,207.628905 443.094727,207.824219 C442.709959,208.019532 442.302737,208.117188 441.873047,208.117188 C441.009761,208.117188 440.323245,207.829104 439.813477,207.25293 C439.303708,206.676755 439.048828,205.888677 439.048828,204.888672 L439.048828,204.707031 C439.048828,204.089841 439.162108,203.541018 439.388672,203.060547 C439.615236,202.580076 439.940428,202.207033 440.364258,201.941406 C440.788088,201.67578 441.28906,201.542969 441.867188,201.542969 C442.578129,201.542969 443.168943,201.755857 443.639648,202.181641 C444.110354,202.607424 444.361328,203.160153 444.392578,203.839844 L443.367188,203.839844 C443.335937,203.429685 443.180665,203.092775 442.901367,202.829102 C442.622069,202.565428 442.277346,202.433594 441.867188,202.433594 C441.316403,202.433594 440.88965,202.631834 440.586914,203.02832 C440.284178,203.424807 440.132812,203.998043 440.132812,204.748047 L440.132812,204.953125 C440.132812,205.683597 440.283202,206.246092 440.583984,206.640625 C440.884767,207.035158 441.31445,207.232422 441.873047,207.232422 Z M446.789062,208 L445.705078,208 L445.705078,201.660156 L446.789062,201.660156 L446.789062,208 Z M445.617188,199.978516 C445.617188,199.802733 445.670898,199.654297 445.77832,199.533203 C445.885743,199.412109 446.044921,199.351562 446.255859,199.351562 C446.466798,199.351562 446.626953,199.412109 446.736328,199.533203 C446.845704,199.654297 446.900391,199.802733 446.900391,199.978516 C446.900391,200.154298 446.845704,200.300781 446.736328,200.417969 C446.626953,200.535157 446.466798,200.59375 446.255859,200.59375 C446.044921,200.59375 445.885743,200.535157 445.77832,200.417969 C445.670898,200.300781 445.617188,200.154298 445.617188,199.978516 Z M449.994141,200.125 L449.994141,201.660156 L451.177734,201.660156 L451.177734,202.498047 L449.994141,202.498047 L449.994141,206.429688 C449.994141,206.683595 450.046874,206.874023 450.152344,207.000977 C450.257813,207.12793 450.437499,207.191406 450.691406,207.191406 C450.816407,207.191406 450.98828,207.167969 451.207031,207.121094 L451.207031,208 C450.921874,208.078125 450.644533,208.117188 450.375,208.117188 C449.890623,208.117188 449.525392,207.970705 449.279297,207.677734 C449.033202,207.384764 448.910156,206.968753 448.910156,206.429688 L448.910156,202.498047 L447.755859,202.498047 L447.755859,201.660156 L448.910156,201.660156 L448.910156,200.125 L449.994141,200.125 Z M454.517578,206.412109 L455.994141,201.660156 L457.154297,201.660156 L454.605469,208.978516 C454.210936,210.033208 453.583989,210.560547 452.724609,210.560547 L452.519531,210.542969 L452.115234,210.466797 L452.115234,209.587891 L452.408203,209.611328 C452.775392,209.611328 453.061522,209.53711 453.266602,209.388672 C453.471681,209.240234 453.640624,208.968752 453.773438,208.574219 L454.013672,207.929688 L451.751953,201.660156 L452.935547,201.660156 L454.517578,206.412109 Z M458.085938,207.431641 C458.085938,207.24414 458.141601,207.087891 458.25293,206.962891 C458.364258,206.83789 458.531249,206.775391 458.753906,206.775391 C458.976564,206.775391 459.145507,206.83789 459.260742,206.962891 C459.375977,207.087891 459.433594,207.24414 459.433594,207.431641 C459.433594,207.611329 459.375977,207.761718 459.260742,207.882812 C459.145507,208.003907 458.976564,208.064453 458.753906,208.064453 C458.531249,208.064453 458.364258,208.003907 458.25293,207.882812 C458.141601,207.761718 458.085938,207.611329 458.085938,207.431641 Z M458.091797,202.257812 C458.091797,202.070312 458.14746,201.914063 458.258789,201.789062 C458.370118,201.664062 458.537108,201.601562 458.759766,201.601562 C458.982423,201.601562 459.151367,201.664062 459.266602,201.789062 C459.381837,201.914063 459.439453,202.070312 459.439453,202.257812 C459.439453,202.437501 459.381837,202.58789 459.266602,202.708984 C459.151367,202.830079 458.982423,202.890625 458.759766,202.890625 C458.537108,202.890625 458.370118,202.830079 458.258789,202.708984 C458.14746,202.58789 458.091797,202.437501 458.091797,202.257812 Z M467.449219,208 L466.359375,208 L466.359375,200.775391 L464.173828,201.578125 L464.173828,200.59375 L467.279297,199.427734 L467.449219,199.427734 L467.449219,208 Z M474.878906,199.462891 L474.878906,200.382812 L474.679688,200.382812 C473.835933,200.398438 473.164065,200.648435 472.664062,201.132812 C472.16406,201.61719 471.875,202.298824 471.796875,203.177734 C472.246096,202.662107 472.859371,202.404297 473.636719,202.404297 C474.37891,202.404297 474.971677,202.666013 475.415039,203.189453 C475.858401,203.712893 476.080078,204.388668 476.080078,205.216797 C476.080078,206.095708 475.840823,206.798825 475.362305,207.326172 C474.883787,207.853518 474.242192,208.117188 473.4375,208.117188 C472.62109,208.117188 471.958987,207.803714 471.451172,207.176758 C470.943357,206.549802 470.689453,205.742192 470.689453,204.753906 L470.689453,204.337891 C470.689453,202.76757 471.024411,201.567387 471.694336,200.737305 C472.364261,199.907222 473.361322,199.482422 474.685547,199.462891 L474.878906,199.462891 Z M473.455078,203.306641 C473.083983,203.306641 472.742189,203.417968 472.429688,203.640625 C472.117186,203.863282 471.900391,204.142576 471.779297,204.478516 L471.779297,204.876953 C471.779297,205.580082 471.937498,206.146482 472.253906,206.576172 C472.570314,207.005862 472.964841,207.220703 473.4375,207.220703 C473.925784,207.220703 474.309569,207.041017 474.588867,206.681641 C474.868165,206.322264 475.007812,205.851565 475.007812,205.269531 C475.007812,204.683591 474.866212,204.209963 474.583008,203.848633 C474.299803,203.487303 473.92383,203.306641 473.455078,203.306641 Z M477.269531,201.109375 C477.269531,200.597654 477.432616,200.175783 477.758789,199.84375 C478.084963,199.511717 478.503904,199.345703 479.015625,199.345703 C479.535159,199.345703 479.956053,199.512694 480.27832,199.84668 C480.600588,200.180666 480.761719,200.613279 480.761719,201.144531 L480.761719,201.560547 C480.761719,202.076174 480.598634,202.497069 480.272461,202.823242 C479.946287,203.149416 479.531253,203.3125 479.027344,203.3125 C478.519529,203.3125 478.099611,203.149416 477.767578,202.823242 C477.435545,202.497069 477.269531,202.062503 477.269531,201.519531 L477.269531,201.109375 Z M478.078125,201.560547 C478.078125,201.865236 478.164062,202.11621 478.335938,202.313477 C478.507813,202.510743 478.73828,202.609375 479.027344,202.609375 C479.304689,202.609375 479.528319,202.513673 479.698242,202.322266 C479.868165,202.130858 479.953125,201.869142 479.953125,201.537109 L479.953125,201.109375 C479.953125,200.804686 479.869141,200.552735 479.701172,200.353516 C479.533202,200.154296 479.304689,200.054688 479.015625,200.054688 C478.726561,200.054688 478.498048,200.154296 478.330078,200.353516 C478.162109,200.552735 478.078125,200.812498 478.078125,201.132812 L478.078125,201.560547 Z M481.423828,205.908203 C481.423828,205.396482 481.586912,204.975588 481.913086,204.645508 C482.239259,204.315428 482.658201,204.150391 483.169922,204.150391 C483.681643,204.150391 484.101561,204.314451 484.429688,204.642578 C484.757814,204.970705 484.921875,205.406247 484.921875,205.949219 L484.921875,206.365234 C484.921875,206.876956 484.758791,207.29785 484.432617,207.62793 C484.106444,207.958009 483.689456,208.123047 483.181641,208.123047 C482.673826,208.123047 482.253908,207.959963 481.921875,207.633789 C481.589842,207.307616 481.423828,206.87305 481.423828,206.330078 L481.423828,205.908203 Z M482.232422,206.365234 C482.232422,206.67383 482.318359,206.926757 482.490234,207.124023 C482.66211,207.32129 482.892577,207.419922 483.181641,207.419922 C483.462892,207.419922 483.687499,207.323243 483.855469,207.129883 C484.023438,206.936522 484.107422,206.67383 484.107422,206.341797 L484.107422,205.908203 C484.107422,205.599608 484.022462,205.347657 483.852539,205.152344 C483.682616,204.95703 483.45508,204.859375 483.169922,204.859375 C482.892577,204.859375 482.666993,204.956054 482.493164,205.149414 C482.319335,205.342774 482.232422,205.603514 482.232422,205.931641 L482.232422,206.365234 Z M479.273438,207.355469 L478.658203,206.96875 L482.824219,200.300781 L483.439453,200.6875 L479.273438,207.355469 Z" id="Container:-#ffffff-B" fill="#EC407A"></path>
            <g id="specs-/-redlines-/-line-inclusive" transform="translate(400.000000, 165.000000) rotate(-180.000000) translate(-400.000000, -165.000000) translate(390.000000, 115.000000)">
                <path d="M0,49.5 L20,49.5" id="redline-line" stroke="#EC407A" stroke-width="1"></path>
                <g id="specs-/-redlines-/-line-end-/-arrow" transform="translate(13.000000, 46.000000)">
                    <g id="redline-end">
                        <use fill="#FFFFFF" fill-rule="evenodd" xlink:href="#path-3"></use>
                        <path stroke="#EC407A" stroke-width="1" d="M5.88196601,3.5 L0.5,0.809016994 L0.5,6.19098301 L5.88196601,3.5 Z"></path>
                    </g>
                </g>
                <path d="M-0.25,0.5 L-0.25,99.5" id="Line" stroke="#F0367A" stroke-width="1" stroke-linecap="square"></path>
            </g>
        </g>
    </g>
</svg>