<?xml version="1.0" encoding="UTF-8" standalone="no"?>
<svg width="502px" height="331px" viewBox="0 0 502 331" version="1.1" xmlns="http://www.w3.org/2000/svg" xmlns:xlink="http://www.w3.org/1999/xlink">
    <!-- Generator: Sketch 47 (45396) - http://www.bohemiancoding.com/sketch -->
    <title>popover-spacing</title>
    <desc>Created with Sketch.</desc>
    <defs></defs>
    <g stroke="none" stroke-width="1" fill="none" fill-rule="evenodd">
        <g transform="translate(1.000000, 0.000000)">
            <g>
                <g fill="#000000" fill-rule="nonzero">
                    <polygon points="466.444 9.43880195 457.265 0 448.087 9.43880195 0 9.43880195 0 28.3304085 0 46.6909137 0 330 500 330 500 9.43880195"></polygon>
                </g>
                <g fill="#FFFFFF" stroke="#E0E0E0">
                    <polygon points="466.444 9.43880195 457.265 0 448.087 9.43880195 0 9.43880195 0 28.3304085 0 46.6909137 0 330 500 330 500 9.43880195"></polygon>
                </g>
            </g>
            <g transform="translate(20.000000, 279.000000)">
                <rect fill="#0C7C84" x="0" y="0" width="92" height="32" rx="2"></rect>
                <g transform="translate(11.000000, 10.000000)" fill="#FFFFFF">
                    <path d="M4.73046879,8.39550781 L4.90820316,9.0859375 L4.94921879,9.0859375 L5.12011722,8.40917969 L7.49902347,1.046875 L9.26953129,1.046875 L5.71484379,11 L4.13574222,11 L0.587890662,1.046875 L2.35839847,1.046875 L4.73046879,8.39550781 Z M13.0976563,11.1435547 C12.049474,11.1435547 11.2143586,10.8006219 10.5922852,10.1147461 C9.97021177,9.42887027 9.65917972,8.54818246 9.65917972,7.47265625 L9.65917972,7.19921875 C9.65917972,6.12369254 9.96793315,5.23161162 10.5854493,4.52294922 C11.2029654,3.81428682 11.9765579,3.46223956 12.90625,3.46679688 C13.9043019,3.46679688 14.6687799,3.76871443 15.1997071,4.37255859 C15.7306342,4.97640276 15.9960938,5.78645325 15.9960938,6.80273438 L15.9960938,7.78027344 L11.381836,7.78027344 L11.3681641,7.81445312 C11.395508,8.40234669 11.567544,8.88313615 11.8842774,9.25683594 C12.2010107,9.63053572 12.6396457,9.81738281 13.2001953,9.81738281 C13.6468122,9.81738281 14.0296208,9.76269586 14.3486328,9.65332031 C14.6676449,9.54394477 14.975259,9.38671978 15.2714844,9.18164062 L15.8046875,10.2685547 C15.5266914,10.5146497 15.1575544,10.7220044 14.6972657,10.890625 C14.2369769,11.0592456 13.7037791,11.1435547 13.0976563,11.1435547 Z M12.90625,4.79980469 C12.4960917,4.79980469 12.1588555,4.96272624 11.8945313,5.28857422 C11.630207,5.6144222 11.4661462,6.02799229 11.4023438,6.52929688 L11.4160157,6.56347656 L14.3486328,6.56347656 L14.3486328,6.39257812 C14.3486328,5.92317474 14.2290051,5.54036606 13.9897461,5.24414062 C13.7504871,4.94791519 13.3893254,4.79980469 12.90625,4.79980469 Z M21.0205079,5.10058594 L20.3095704,5.07324219 C19.986001,5.07324219 19.7159842,5.14160088 19.4995118,5.27832031 C19.2830393,5.41503975 19.1155605,5.60872271 18.9970704,5.859375 L18.9970704,11 L17.3359375,11 L17.3359375,3.60351562 L18.8535157,3.60351562 L18.9628907,4.67675781 C19.1497406,4.29850071 19.3901353,4.00227972 19.6840821,3.78808594 C19.9780289,3.57389216 20.3164044,3.46679688 20.6992188,3.46679688 C20.7994797,3.46679688 20.8929033,3.47477206 20.9794922,3.49072266 C21.0660812,3.50667326 21.145833,3.52604155 21.21875,3.54882812 L21.0205079,5.10058594 Z M23.953125,11 L22.2919922,11 L22.2919922,3.60351562 L23.953125,3.60351562 L23.953125,11 Z M23.953125,1.79199219 L22.2919922,1.79199219 L22.2919922,0.3359375 L23.953125,0.3359375 L23.953125,1.79199219 Z M26.3525391,11 L26.3525391,4.83398438 L25.2246094,4.83398438 L25.2246094,3.60351562 L26.3525391,3.60351562 L26.3525391,2.7421875 C26.3525391,1.92642821 26.5747048,1.29752825 27.019043,0.85546875 C27.4633812,0.413409248 28.0865846,0.192382812 28.8886719,0.192382812 C29.0481779,0.192382812 29.2099602,0.204915239 29.3740235,0.229980469 C29.5380868,0.255045698 29.7226553,0.290364355 29.9277344,0.3359375 L29.756836,1.62109375 C29.6656897,1.60286449 29.564291,1.58691413 29.4526368,1.57324219 C29.3409826,1.55957024 29.2213548,1.55273437 29.09375,1.55273437 C28.7337222,1.55273437 28.4637054,1.65527241 28.2836914,1.86035156 C28.1036775,2.06543071 28.0136719,2.35937309 28.0136719,2.7421875 L28.0136719,3.60351562 L29.5175782,3.60351562 L29.5175782,4.83398438 L28.0136719,4.83398438 L28.0136719,11 L26.3525391,11 Z M33.1816407,8.03320312 L33.3457032,8.77148438 L33.3867188,8.77148438 L35.006836,3.60351562 L36.8251954,3.60351562 L33.7626954,12.1210938 C33.5667308,12.6360703 33.2910174,13.0758445 32.9355469,13.4404297 C32.5800764,13.8050148 32.0765007,13.9873047 31.4248047,13.9873047 C31.2880853,13.9873047 31.1411141,13.9736329 30.9838868,13.9462891 C30.8266594,13.9189452 30.675131,13.8870445 30.5292969,13.8505859 L30.7138672,12.5654297 C30.7731123,12.569987 30.8574214,12.5768229 30.9667969,12.5859375 C31.0761725,12.5950521 31.1582029,12.5996094 31.2128907,12.5996094 C31.5136734,12.5996094 31.7540681,12.4970713 31.9340821,12.2919922 C32.114096,12.086913 32.2610672,11.8499362 32.375,11.5810547 L32.6484375,10.9111328 L29.9619141,3.60351562 L31.7734375,3.60351562 L33.1816407,8.03320312 Z M49.0820313,1.046875 L49.0820313,7.71875 C49.0820313,8.8216201 48.7220088,9.66812856 48.0019532,10.2583008 C47.2818975,10.848473 46.3408262,11.1435547 45.178711,11.1435547 C44.0393824,11.1435547 43.11654,10.8473337 42.4101563,10.2548828 C41.7037725,9.66243193 41.350586,8.81706278 41.350586,7.71875 L41.350586,1.046875 L43.0117188,1.046875 L43.0117188,7.71875 C43.0117188,8.41601911 43.2076804,8.94010241 43.5996094,9.29101562 C43.9915385,9.64192884 44.5179004,9.81738281 45.178711,9.81738281 C45.8623081,9.81738281 46.4068991,9.64192884 46.8125,9.29101562 C47.218101,8.94010241 47.4208985,8.41601911 47.4208985,7.71875 L47.4208985,1.046875 L49.0820313,1.046875 Z M55.0087891,8.99023438 C55.0087891,8.73502477 54.8994152,8.52311282 54.6806641,8.35449219 C54.461913,8.18587155 54.0540395,8.03776105 53.4570313,7.91015625 C52.5729123,7.72330636 51.9041364,7.45784677 51.4506836,7.11376953 C50.9972308,6.76969229 50.7705078,6.30143525 50.7705078,5.70898438 C50.7705078,5.08918961 51.0325495,4.56054906 51.5566407,4.12304688 C52.0807318,3.68554469 52.7711546,3.46679688 53.6279297,3.46679688 C54.530278,3.46679688 55.2469049,3.68896262 55.7778321,4.13330078 C56.3087592,4.57763894 56.5628257,5.12792641 56.5400391,5.78417969 L56.5263672,5.82519531 L54.9335938,5.82519531 C54.9335938,5.51985524 54.817384,5.25781359 54.584961,5.0390625 C54.3525379,4.82031141 54.0335307,4.7109375 53.6279297,4.7109375 C53.2268861,4.7109375 52.9215506,4.80094311 52.7119141,4.98095703 C52.5022776,5.16097095 52.397461,5.38085808 52.397461,5.640625 C52.397461,5.90039192 52.4965811,6.10660731 52.6948243,6.25927734 C52.8930674,6.41194738 53.2952444,6.54752545 53.9013672,6.66601562 C54.8310594,6.85742283 55.5203428,7.12743966 55.9692383,7.47607422 C56.4181338,7.82470877 56.6425782,8.29980168 56.6425782,8.90136719 C56.6425782,9.5667351 56.3680041,10.1067688 55.8188477,10.5214844 C55.2696913,10.9362 54.5462285,11.1435547 53.6484375,11.1435547 C52.6868442,11.1435547 51.9280627,10.8974634 51.3720703,10.4052734 C50.816078,9.91308348 50.5517577,9.34798496 50.5791016,8.70996094 L50.5927735,8.66894531 L52.1376953,8.66894531 C52.1559246,9.09733287 52.310871,9.40950423 52.6025391,9.60546875 C52.8942072,9.80143327 53.2496724,9.89941406 53.6689453,9.89941406 C54.0973329,9.89941406 54.4277333,9.81738363 54.6601563,9.65332031 C54.8925793,9.48925699 55.0087891,9.26823056 55.0087891,8.99023438 Z M61.3046875,11.1435547 C60.2565052,11.1435547 59.4213899,10.8006219 58.7993164,10.1147461 C58.177243,9.42887027 57.866211,8.54818246 57.866211,7.47265625 L57.866211,7.19921875 C57.866211,6.12369254 58.1749644,5.23161162 58.7924805,4.52294922 C59.4099966,3.81428682 60.1835891,3.46223956 61.1132813,3.46679688 C62.1113332,3.46679688 62.8758112,3.76871443 63.4067383,4.37255859 C63.9376655,4.97640276 64.203125,5.78645325 64.203125,6.80273438 L64.203125,7.78027344 L59.5888672,7.78027344 L59.5751954,7.81445312 C59.6025392,8.40234669 59.7745753,8.88313615 60.0913086,9.25683594 C60.408042,9.63053572 60.8466769,9.81738281 61.4072266,9.81738281 C61.8538434,9.81738281 62.2366521,9.76269586 62.5556641,9.65332031 C62.8746761,9.54394477 63.1822902,9.38671978 63.4785157,9.18164062 L64.0117188,10.2685547 C63.7337226,10.5146497 63.3645857,10.7220044 62.9042969,10.890625 C62.4440082,11.0592456 61.9108104,11.1435547 61.3046875,11.1435547 Z M61.1132813,4.79980469 C60.703123,4.79980469 60.3658868,4.96272624 60.1015625,5.28857422 C59.8372383,5.6144222 59.6731774,6.02799229 59.609375,6.52929688 L59.6230469,6.56347656 L62.5556641,6.56347656 L62.5556641,6.39257812 C62.5556641,5.92317474 62.4360364,5.54036606 62.1967774,5.24414062 C61.9575184,4.94791519 61.5963566,4.79980469 61.1132813,4.79980469 Z M69.2275391,5.10058594 L68.5166016,5.07324219 C68.1930323,5.07324219 67.9230154,5.14160088 67.706543,5.27832031 C67.4900706,5.41503975 67.3225918,5.60872271 67.2041016,5.859375 L67.2041016,11 L65.5429688,11 L65.5429688,3.60351562 L67.0605469,3.60351562 L67.1699219,4.67675781 C67.3567718,4.29850071 67.5971665,4.00227972 67.8911133,3.78808594 C68.1850601,3.57389216 68.5234356,3.46679688 68.90625,3.46679688 C69.006511,3.46679688 69.0999345,3.47477206 69.1865235,3.49072266 C69.2731124,3.50667326 69.3528643,3.52604155 69.4257813,3.54882812 L69.2275391,5.10058594 Z"></path>
                </g>
            </g>
            <g transform="translate(124.000000, 289.000000)" fill="#0C7481">
                <g>
                    <path d="M8.42968749,7.69824219 L8.44335936,7.73925781 C8.46158862,8.74642431 8.13460621,9.56558929 7.46240233,10.1967773 C6.79019845,10.8279654 5.87988854,11.1435547 4.7314453,11.1435547 C3.56933011,11.1435547 2.62484086,10.7527708 1.89794921,9.97119141 C1.17105755,9.18961198 0.807617175,8.19043577 0.807617175,6.97363281 L0.807617175,5.08007812 C0.807617175,3.86783248 1.1665003,2.86865627 1.88427733,2.08251953 C2.60205436,1.29638279 3.5351505,0.903320312 4.68359374,0.903320312 C5.85938087,0.903320312 6.78564113,1.21207374 7.46240233,1.82958984 C8.13916353,2.44710595 8.46842456,3.27766405 8.4501953,4.32128906 L8.43652343,4.36230469 L6.83007811,4.36230469 C6.83007811,3.69237946 6.64892758,3.17057479 6.28662108,2.796875 C5.92431458,2.42317521 5.38997748,2.23632812 4.68359374,2.23632812 C4.00455388,2.23632812 3.46565953,2.50520564 3.06689452,3.04296875 C2.6681295,3.58073186 2.46874999,4.25520428 2.46874999,5.06640625 L2.46874999,6.97363281 C2.46874999,7.79394941 2.67268675,8.47297908 3.08056639,9.01074219 C3.48844604,9.54850529 4.0387335,9.81738281 4.7314453,9.81738281 C5.41959978,9.81738281 5.94140446,9.63281435 6.29687499,9.26367188 C6.65234551,8.8945294 6.83007811,8.37272473 6.83007811,7.69824219 L8.42968749,7.69824219 Z M14.3085937,11 C14.2493486,10.8131501 14.2003583,10.6308603 14.1616211,10.453125 C14.1228839,10.2753897 14.0966797,10.0976571 14.0830078,9.91992188 C13.8551421,10.2662778 13.5555031,10.5568022 13.184082,10.7915039 C12.8126609,11.0262056 12.3968122,11.1435547 11.9365234,11.1435547 C11.1663373,11.1435547 10.5750346,10.9453145 10.1625976,10.5488281 C9.75016069,10.1523418 9.5439453,9.60775086 9.5439453,8.91503906 C9.5439453,8.19954069 9.82649456,7.64241736 10.3916016,7.24365234 C10.9567085,6.84488733 11.751948,6.64550781 12.7773437,6.64550781 L14.0693359,6.64550781 L14.0693359,5.99609375 C14.0693359,5.60872202 13.9554048,5.30566516 13.7275391,5.08691406 C13.4996733,4.86816297 13.1738302,4.75878906 12.75,4.75878906 C12.3717429,4.75878906 12.0709646,4.84993398 11.8476562,5.03222656 C11.6243478,5.21451914 11.5126953,5.44921731 11.5126953,5.73632812 L9.91308593,5.73632812 L9.90624999,5.6953125 C9.87434879,5.11197625 10.1352511,4.59472882 10.6889648,4.14355469 C11.2426785,3.69238056 11.9638627,3.46679688 12.8525391,3.46679688 C13.7138715,3.46679688 14.4088515,3.68554469 14.9375,4.12304688 C15.4661485,4.56054906 15.7304687,5.18944902 15.7304687,6.00976562 L15.7304687,9.29785156 C15.7304687,9.60319163 15.7509763,9.89599469 15.7919922,10.1762695 C15.833008,10.4565444 15.8990881,10.7311184 15.9902344,11 L14.3085937,11 Z M12.2714844,9.81054688 C12.6907573,9.81054688 13.0678694,9.70573021 13.402832,9.49609375 C13.7377946,9.28645729 13.9599604,9.04720187 14.0693359,8.77832031 L14.0693359,7.68457031 L12.75,7.68457031 C12.2669247,7.68457031 11.8886732,7.80419802 11.6152344,8.04345703 C11.3417955,8.28271604 11.2050781,8.56412599 11.2050781,8.88769531 C11.2050781,9.17024881 11.2973623,9.39469318 11.4819336,9.56103516 C11.6665048,9.72737713 11.9296858,9.81054688 12.2714844,9.81054688 Z M18.9775391,3.60351562 L19.0732422,4.66992188 C19.3147798,4.29166478 19.618976,3.99658309 19.9858398,3.78466797 C20.3527036,3.57275285 20.7662737,3.46679688 21.2265625,3.46679688 C21.9967486,3.46679688 22.5971658,3.70035574 23.027832,4.16748047 C23.4584982,4.6346052 23.6738281,5.36262526 23.6738281,6.3515625 L23.6738281,11 L22.0126953,11 L22.0126953,6.36523438 C22.0126953,5.80924201 21.8976248,5.41390091 21.6674805,5.17919922 C21.4373361,4.94449752 21.0875674,4.82714844 20.6181641,4.82714844 C20.2945947,4.82714844 20.0052096,4.89892506 19.75,5.04248047 C19.4947904,5.18603587 19.2851571,5.38313677 19.1210937,5.63378906 L19.1210937,11 L17.4599609,11 L17.4599609,3.60351562 L18.9775391,3.60351562 Z M28.4589844,9.81738281 C28.8645853,9.81738281 29.2063788,9.6977551 29.484375,9.45849609 C29.7623712,9.21923708 29.9013672,8.91959815 29.9013672,8.55957031 L31.4052734,8.55957031 L31.4189453,8.60058594 C31.4417319,9.29329773 31.1603219,9.89029697 30.574707,10.3916016 C29.9890921,10.8929062 29.2838583,11.1435547 28.4589844,11.1435547 C27.3697862,11.1435547 26.5346709,10.7926467 25.9536133,10.0908203 C25.3725557,9.38899389 25.0820312,8.5003309 25.0820312,7.42480469 L25.0820312,7.18554688 C25.0820312,6.11457798 25.3725557,5.2270543 25.9536133,4.52294922 C26.5346709,3.81884414 27.3697862,3.46679688 28.4589844,3.46679688 C29.3476607,3.46679688 30.0688449,3.72542059 30.6225586,4.24267578 C31.1762723,4.75993097 31.4440105,5.41731372 31.4257812,6.21484375 L31.4121094,6.25585938 L29.9013672,6.25585938 C29.9013672,5.85025839 29.7680677,5.50618631 29.5014648,5.22363281 C29.2348619,4.94107932 28.8873719,4.79980469 28.4589844,4.79980469 C27.8346323,4.79980469 27.3925794,5.02652768 27.1328125,5.47998047 C26.8730456,5.93343326 26.7431641,6.50194971 26.7431641,7.18554688 L26.7431641,7.42480469 C26.7431641,8.1220738 26.8730456,8.6951475 27.1328125,9.14404297 C27.3925794,9.59293844 27.8346323,9.81738281 28.4589844,9.81738281 Z M35.9238281,11.1435547 C34.8756458,11.1435547 34.0405304,10.8006219 33.418457,10.1147461 C32.7963836,9.42887027 32.4853516,8.54818246 32.4853516,7.47265625 L32.4853516,7.19921875 C32.4853516,6.12369254 32.794105,5.23161162 33.4116211,4.52294922 C34.0291372,3.81428682 34.8027297,3.46223956 35.7324219,3.46679688 C36.7304737,3.46679688 37.4949518,3.76871443 38.0258789,4.37255859 C38.556806,4.97640276 38.8222656,5.78645325 38.8222656,6.80273438 L38.8222656,7.78027344 L34.2080078,7.78027344 L34.1943359,7.81445312 C34.2216798,8.40234669 34.3937159,8.88313615 34.7104492,9.25683594 C35.0271826,9.63053572 35.4658175,9.81738281 36.0263672,9.81738281 C36.472984,9.81738281 36.8557927,9.76269586 37.1748047,9.65332031 C37.4938167,9.54394477 37.8014308,9.38671978 38.0976562,9.18164062 L38.6308594,10.2685547 C38.3528632,10.5146497 37.9837262,10.7220044 37.5234375,10.890625 C37.0631487,11.0592456 36.5299509,11.1435547 35.9238281,11.1435547 Z M35.7324219,4.79980469 C35.3222636,4.79980469 34.9850274,4.96272624 34.7207031,5.28857422 C34.4563789,5.6144222 34.292318,6.02799229 34.2285156,6.52929688 L34.2421875,6.56347656 L37.1748047,6.56347656 L37.1748047,6.39257812 C37.1748047,5.92317474 37.055177,5.54036606 36.815918,5.24414062 C36.5766589,4.94791519 36.2154972,4.79980469 35.7324219,4.79980469 Z M41.9326172,11 L40.2714844,11 L40.2714844,0.3359375 L41.9326172,0.3359375 L41.9326172,11 Z"></path>
                </g>
            </g>
            <g transform="translate(20.000000, 30.000000)" fill="#424242">
                <path d="M4.8515625,10.0234375 L5.0546875,10.8125 L5.1015625,10.8125 L5.296875,10.0390625 L8.015625,1.625 L10.0390625,1.625 L5.9765625,13 L4.171875,13 L0.1171875,1.625 L2.140625,1.625 L4.8515625,10.0234375 Z M14.4140625,13.1640625 C13.2161398,13.1640625 12.2617223,12.7721393 11.5507812,11.9882812 C10.8398402,11.2044232 10.484375,10.1979228 10.484375,8.96875 L10.484375,8.65625 C10.484375,7.42707719 10.8372361,6.40755613 11.5429688,5.59765625 C12.2487014,4.78775637 13.1328072,4.38541664 14.1953125,4.390625 C15.3359432,4.390625 16.2096324,4.73567363 16.8164062,5.42578125 C17.4231801,6.11588887 17.7265625,7.04166086 17.7265625,8.203125 L17.7265625,9.3203125 L12.453125,9.3203125 L12.4375,9.359375 C12.4687502,10.0312534 12.6653628,10.580727 13.0273438,11.0078125 C13.3893247,11.434898 13.8906218,11.6484375 14.53125,11.6484375 C15.0416692,11.6484375 15.4791648,11.5859381 15.84375,11.4609375 C16.2083352,11.3359369 16.5598941,11.1562512 16.8984375,10.921875 L17.5078125,12.1640625 C17.1901026,12.4453139 16.7682318,12.6822907 16.2421875,12.875 C15.7161432,13.0677093 15.1067743,13.1640625 14.4140625,13.1640625 Z M14.1953125,5.9140625 C13.7265602,5.9140625 13.3411473,6.10025855 13.0390625,6.47265625 C12.7369777,6.84505395 12.5494795,7.31770547 12.4765625,7.890625 L12.4921875,7.9296875 L15.84375,7.9296875 L15.84375,7.734375 C15.84375,7.19791398 15.7070326,6.76041836 15.4335938,6.421875 C15.1601549,6.08333164 14.7473986,5.9140625 14.1953125,5.9140625 Z M23.46875,6.2578125 L22.65625,6.2265625 C22.2864565,6.2265625 21.9778658,6.30468672 21.7304688,6.4609375 C21.4830717,6.61718828 21.2916673,6.83854023 21.15625,7.125 L21.15625,13 L19.2578125,13 L19.2578125,4.546875 L20.9921875,4.546875 L21.1171875,5.7734375 C21.3307302,5.34114367 21.6054671,5.00260539 21.9414062,4.7578125 C22.2773454,4.51301961 22.6640603,4.390625 23.1015625,4.390625 C23.2161464,4.390625 23.3229162,4.39973949 23.421875,4.41796875 C23.5208338,4.43619801 23.6119787,4.4583332 23.6953125,4.484375 L23.46875,6.2578125 Z M26.8203125,13 L24.921875,13 L24.921875,4.546875 L26.8203125,4.546875 L26.8203125,13 Z M26.8203125,2.4765625 L24.921875,2.4765625 L24.921875,0.8125 L26.8203125,0.8125 L26.8203125,2.4765625 Z M29.5625,13 L29.5625,5.953125 L28.2734375,5.953125 L28.2734375,4.546875 L29.5625,4.546875 L29.5625,3.5625 C29.5625,2.63020367 29.8164037,1.91146086 30.3242188,1.40625 C30.8320338,0.901039141 31.5442662,0.6484375 32.4609375,0.6484375 C32.6432301,0.6484375 32.8281241,0.662760273 33.015625,0.69140625 C33.2031259,0.720052227 33.4140613,0.760416406 33.6484375,0.8125 L33.453125,2.28125 C33.3489578,2.26041656 33.2330736,2.24218758 33.1054688,2.2265625 C32.9778639,2.21093742 32.8411466,2.203125 32.6953125,2.203125 C32.2838521,2.203125 31.9752614,2.32031133 31.7695312,2.5546875 C31.5638011,2.78906367 31.4609375,3.12499781 31.4609375,3.5625 L31.4609375,4.546875 L33.1796875,4.546875 L33.1796875,5.953125 L31.4609375,5.953125 L31.4609375,13 L29.5625,13 Z M37.3671875,9.609375 L37.5546875,10.453125 L37.6015625,10.453125 L39.453125,4.546875 L41.53125,4.546875 L38.03125,14.28125 C37.8072905,14.8697946 37.4921895,15.3723938 37.0859375,15.7890625 C36.6796855,16.2057312 36.1041704,16.4140625 35.359375,16.4140625 C35.2031242,16.4140625 35.0351571,16.3984377 34.8554688,16.3671875 C34.6757804,16.3359373 34.502605,16.2994794 34.3359375,16.2578125 L34.546875,14.7890625 C34.6145837,14.7942709 34.7109369,14.8020833 34.8359375,14.8125 C34.9609381,14.8229167 35.0546872,14.828125 35.1171875,14.828125 C35.4609392,14.828125 35.7356761,14.7109387 35.9414062,14.4765625 C36.1471364,14.2421863 36.3151035,13.9713557 36.4453125,13.6640625 L36.7578125,12.8984375 L33.6875,4.546875 L35.7578125,4.546875 L37.3671875,9.609375 Z M55.5390625,1.625 L55.5390625,9.25 C55.5390625,10.510423 55.1276083,11.4778612 54.3046875,12.1523438 C53.4817667,12.8268263 52.4062566,13.1640625 51.078125,13.1640625 C49.7760352,13.1640625 48.7213582,12.8255242 47.9140625,12.1484375 C47.1067668,11.4713508 46.703125,10.5052146 46.703125,9.25 L46.703125,1.625 L48.6015625,1.625 L48.6015625,9.25 C48.6015625,10.046879 48.8255186,10.6458313 49.2734375,11.046875 C49.7213564,11.4479187 50.3229129,11.6484375 51.078125,11.6484375 C51.8593789,11.6484375 52.4817685,11.4479187 52.9453125,11.046875 C53.4088565,10.6458313 53.640625,10.046879 53.640625,9.25 L53.640625,1.625 L55.5390625,1.625 Z M62.3125,10.703125 C62.3125,10.4114569 62.1875012,10.1692718 61.9375,9.9765625 C61.6874987,9.7838532 61.2213576,9.61458406 60.5390625,9.46875 C59.5286408,9.25520727 58.7643255,8.95182488 58.2460937,8.55859375 C57.727862,8.16536262 57.46875,7.63021172 57.46875,6.953125 C57.46875,6.24478812 57.7682262,5.6406275 58.3671875,5.140625 C58.9661488,4.6406225 59.7552034,4.390625 60.734375,4.390625 C61.7656302,4.390625 62.5846324,4.64452871 63.1914062,5.15234375 C63.7981801,5.66015879 64.0885418,6.28905875 64.0625,7.0390625 L64.046875,7.0859375 L62.2265625,7.0859375 C62.2265625,6.73697742 62.0937513,6.43750125 61.828125,6.1875 C61.5624987,5.93749875 61.197919,5.8125 60.734375,5.8125 C60.2760394,5.8125 59.9270845,5.91536355 59.6875,6.12109375 C59.4479155,6.32682395 59.328125,6.57812352 59.328125,6.875 C59.328125,7.17187648 59.4414051,7.40755121 59.6679687,7.58203125 C59.8945324,7.75651129 60.3541632,7.91145766 61.046875,8.046875 C62.1093803,8.26562609 62.8971329,8.57421676 63.4101562,8.97265625 C63.9231796,9.37109574 64.1796875,9.91405906 64.1796875,10.6015625 C64.1796875,11.361983 63.8658886,11.9791643 63.2382812,12.453125 C62.6106739,12.9270857 61.7838593,13.1640625 60.7578125,13.1640625 C59.6588487,13.1640625 58.7916698,12.8828153 58.15625,12.3203125 C57.5208302,11.7578097 57.2187498,11.1119828 57.25,10.3828125 L57.265625,10.3359375 L59.03125,10.3359375 C59.0520834,10.8255233 59.229165,11.1822905 59.5625,11.40625 C59.895835,11.6302095 60.3020809,11.7421875 60.78125,11.7421875 C61.2708358,11.7421875 61.6484362,11.6484384 61.9140625,11.4609375 C62.1796888,11.2734366 62.3125,11.0208349 62.3125,10.703125 Z M69.5078125,13.1640625 C68.3098898,13.1640625 67.3554723,12.7721393 66.6445312,11.9882812 C65.9335902,11.2044232 65.578125,10.1979228 65.578125,8.96875 L65.578125,8.65625 C65.578125,7.42707719 65.9309861,6.40755613 66.6367188,5.59765625 C67.3424514,4.78775637 68.2265572,4.38541664 69.2890625,4.390625 C70.4296932,4.390625 71.3033824,4.73567363 71.9101562,5.42578125 C72.5169301,6.11588887 72.8203125,7.04166086 72.8203125,8.203125 L72.8203125,9.3203125 L67.546875,9.3203125 L67.53125,9.359375 C67.5625002,10.0312534 67.7591128,10.580727 68.1210938,11.0078125 C68.4830747,11.434898 68.9843718,11.6484375 69.625,11.6484375 C70.1354192,11.6484375 70.5729148,11.5859381 70.9375,11.4609375 C71.3020852,11.3359369 71.6536441,11.1562512 71.9921875,10.921875 L72.6015625,12.1640625 C72.2838526,12.4453139 71.8619818,12.6822907 71.3359375,12.875 C70.8098932,13.0677093 70.2005243,13.1640625 69.5078125,13.1640625 Z M69.2890625,5.9140625 C68.8203102,5.9140625 68.4348973,6.10025855 68.1328125,6.47265625 C67.8307277,6.84505395 67.6432295,7.31770547 67.5703125,7.890625 L67.5859375,7.9296875 L70.9375,7.9296875 L70.9375,7.734375 C70.9375,7.19791398 70.8007826,6.76041836 70.5273438,6.421875 C70.2539049,6.08333164 69.8411486,5.9140625 69.2890625,5.9140625 Z M78.5625,6.2578125 L77.75,6.2265625 C77.3802065,6.2265625 77.0716158,6.30468672 76.8242188,6.4609375 C76.5768217,6.61718828 76.3854173,6.83854023 76.25,7.125 L76.25,13 L74.3515625,13 L74.3515625,4.546875 L76.0859375,4.546875 L76.2109375,5.7734375 C76.4244802,5.34114367 76.6992171,5.00260539 77.0351562,4.7578125 C77.3710954,4.51301961 77.7578103,4.390625 78.1953125,4.390625 C78.3098964,4.390625 78.4166662,4.39973949 78.515625,4.41796875 C78.6145838,4.43619801 78.7057287,4.4583332 78.7890625,4.484375 L78.5625,6.2578125 Z"></path>
            </g>
            <g transform="translate(0.000000, 10.000000)">
                <rect fill="#F9CD94" x="0" y="0" width="500" height="20"></rect>
                <g transform="translate(215.000000, 2.000000)" fill="#000000">
                    <path d="M6.22265625,13 L0.69140625,13 L0.69140625,12.2089844 L3.48632812,9.10351562 C3.98633063,8.54491908 4.32519442,8.10156414 4.50292969,7.7734375 C4.68066495,7.44531086 4.76953125,7.10937672 4.76953125,6.765625 C4.76953125,6.33984162 4.64550905,5.98144677 4.39746094,5.69042969 C4.14941282,5.39941261 3.82031455,5.25390625 3.41015625,5.25390625 C2.82030955,5.25390625 2.38574358,5.40527192 2.10644531,5.70800781 C1.82714704,6.0107437 1.6875,6.43554414 1.6875,6.98242188 L0.580078125,6.98242188 L0.568359375,6.94726562 C0.548828027,6.21288695 0.792966211,5.59570562 1.30078125,5.09570312 C1.80859629,4.59570062 2.51171426,4.34570312 3.41015625,4.34570312 C4.17578508,4.34570312 4.78613054,4.5693337 5.24121094,5.01660156 C5.69629134,5.46386942 5.92382813,6.03319967 5.92382813,6.72460938 C5.92382813,7.18945545 5.78613419,7.6552711 5.51074219,8.12207031 C5.23535019,8.58886952 4.84961186,9.08984107 4.35351562,9.625 L2.109375,12.0683594 L2.12109375,12.0976562 L6.22265625,12.0976562 L6.22265625,13 Z M12.8496094,9.74804688 C12.8496094,10.8378961 12.6084008,11.6728487 12.1259766,12.2529297 C11.6435523,12.8330107 10.9824261,13.1230469 10.1425781,13.1230469 C9.30273018,13.1230469 8.63867432,12.8320342 8.15039062,12.25 C7.66210693,11.6679658 7.41796875,10.8339898 7.41796875,9.74804688 L7.41796875,7.7265625 C7.41796875,6.64061957 7.66113038,5.80566698 8.14746094,5.22167969 C8.63379149,4.63769239 9.2949177,4.34570312 10.1308594,4.34570312 C10.9707073,4.34570312 11.6337866,4.63769239 12.1201172,5.22167969 C12.6064477,5.80566698 12.8496094,6.64061957 12.8496094,7.7265625 L12.8496094,9.74804688 Z M11.6953125,7.48046875 C11.6953125,6.74218381 11.5615248,6.1865253 11.2939453,5.81347656 C11.0263658,5.44042782 10.6386744,5.25390625 10.1308594,5.25390625 C9.62304434,5.25390625 9.23632945,5.44042782 8.97070312,5.81347656 C8.7050768,6.1865253 8.57226562,6.74218381 8.57226562,7.48046875 L8.57226562,9.98242188 C8.57226562,10.7207068 8.7070299,11.2783184 8.9765625,11.6552734 C9.2460951,12.0322284 9.63476309,12.2207031 10.1425781,12.2207031 C10.6503932,12.2207031 11.0361315,12.033205 11.2998047,11.6582031 C11.5634779,11.2832012 11.6953125,10.7246131 11.6953125,9.98242188 L11.6953125,7.48046875 Z"></path>
                </g>
            </g>
            <g transform="translate(0.000000, 29.000000)">
                <rect fill="#F8CC96" x="0" y="0" width="20" height="302"></rect>
                <g transform="translate(3.000000, 143.000000)" fill="#000000">
                    <path d="M6.22265625,13 L0.69140625,13 L0.69140625,12.2089844 L3.48632812,9.10351562 C3.98633063,8.54491908 4.32519442,8.10156414 4.50292969,7.7734375 C4.68066495,7.44531086 4.76953125,7.10937672 4.76953125,6.765625 C4.76953125,6.33984162 4.64550905,5.98144677 4.39746094,5.69042969 C4.14941282,5.39941261 3.82031455,5.25390625 3.41015625,5.25390625 C2.82030955,5.25390625 2.38574358,5.40527192 2.10644531,5.70800781 C1.82714704,6.0107437 1.6875,6.43554414 1.6875,6.98242188 L0.580078125,6.98242188 L0.568359375,6.94726562 C0.548828027,6.21288695 0.792966211,5.59570562 1.30078125,5.09570312 C1.80859629,4.59570062 2.51171426,4.34570312 3.41015625,4.34570312 C4.17578508,4.34570312 4.78613054,4.5693337 5.24121094,5.01660156 C5.69629134,5.46386942 5.92382813,6.03319967 5.92382813,6.72460938 C5.92382813,7.18945545 5.78613419,7.6552711 5.51074219,8.12207031 C5.23535019,8.58886952 4.84961186,9.08984107 4.35351562,9.625 L2.109375,12.0683594 L2.12109375,12.0976562 L6.22265625,12.0976562 L6.22265625,13 Z M12.8496094,9.74804688 C12.8496094,10.8378961 12.6084008,11.6728487 12.1259766,12.2529297 C11.6435523,12.8330107 10.9824261,13.1230469 10.1425781,13.1230469 C9.30273018,13.1230469 8.63867432,12.8320342 8.15039062,12.25 C7.66210693,11.6679658 7.41796875,10.8339898 7.41796875,9.74804688 L7.41796875,7.7265625 C7.41796875,6.64061957 7.66113038,5.80566698 8.14746094,5.22167969 C8.63379149,4.63769239 9.2949177,4.34570312 10.1308594,4.34570312 C10.9707073,4.34570312 11.6337866,4.63769239 12.1201172,5.22167969 C12.6064477,5.80566698 12.8496094,6.64061957 12.8496094,7.7265625 L12.8496094,9.74804688 Z M11.6953125,7.48046875 C11.6953125,6.74218381 11.5615248,6.1865253 11.2939453,5.81347656 C11.0263658,5.44042782 10.6386744,5.25390625 10.1308594,5.25390625 C9.62304434,5.25390625 9.23632945,5.44042782 8.97070312,5.81347656 C8.7050768,6.1865253 8.57226562,6.74218381 8.57226562,7.48046875 L8.57226562,9.98242188 C8.57226562,10.7207068 8.7070299,11.2783184 8.9765625,11.6552734 C9.2460951,12.0322284 9.63476309,12.2207031 10.1425781,12.2207031 C10.6503932,12.2207031 11.0361315,12.033205 11.2998047,11.6582031 C11.5634779,11.2832012 11.6953125,10.7246131 11.6953125,9.98242188 L11.6953125,7.48046875 Z"></path>
                </g>
            </g>
            <g transform="translate(480.000000, 29.000000)">
                <rect fill="#F8CC96" x="0" y="0" width="20" height="302"></rect>
                <g transform="translate(3.000000, 147.000000)" fill="#000000">
                    <path d="M6.22265625,9 L0.69140625,9 L0.69140625,8.20898438 L3.48632812,5.10351562 C3.98633063,4.54491908 4.32519442,4.10156414 4.50292969,3.7734375 C4.68066495,3.44531086 4.76953125,3.10937672 4.76953125,2.765625 C4.76953125,2.33984162 4.64550905,1.98144677 4.39746094,1.69042969 C4.14941282,1.39941261 3.82031455,1.25390625 3.41015625,1.25390625 C2.82030955,1.25390625 2.38574358,1.40527192 2.10644531,1.70800781 C1.82714704,2.0107437 1.6875,2.43554414 1.6875,2.98242188 L0.580078125,2.98242188 L0.568359375,2.94726562 C0.548828027,2.21288695 0.792966211,1.59570562 1.30078125,1.09570312 C1.80859629,0.595700625 2.51171426,0.345703125 3.41015625,0.345703125 C4.17578508,0.345703125 4.78613054,0.569333701 5.24121094,1.01660156 C5.69629134,1.46386942 5.92382813,2.03319967 5.92382813,2.72460938 C5.92382813,3.18945545 5.78613419,3.6552711 5.51074219,4.12207031 C5.23535019,4.58886952 4.84961186,5.08984107 4.35351562,5.625 L2.109375,8.06835938 L2.12109375,8.09765625 L6.22265625,8.09765625 L6.22265625,9 Z M12.8496094,5.74804688 C12.8496094,6.83789607 12.6084008,7.67284866 12.1259766,8.25292969 C11.6435523,8.83301071 10.9824261,9.12304688 10.1425781,9.12304688 C9.30273018,9.12304688 8.63867432,8.83203416 8.15039062,8.25 C7.66210693,7.66796584 7.41796875,6.8339898 7.41796875,5.74804688 L7.41796875,3.7265625 C7.41796875,2.64061957 7.66113038,1.80566698 8.14746094,1.22167969 C8.63379149,0.637692393 9.2949177,0.345703125 10.1308594,0.345703125 C10.9707073,0.345703125 11.6337866,0.637692393 12.1201172,1.22167969 C12.6064477,1.80566698 12.8496094,2.64061957 12.8496094,3.7265625 L12.8496094,5.74804688 Z M11.6953125,3.48046875 C11.6953125,2.74218381 11.5615248,2.1865253 11.2939453,1.81347656 C11.0263658,1.44042782 10.6386744,1.25390625 10.1308594,1.25390625 C9.62304434,1.25390625 9.23632945,1.44042782 8.97070312,1.81347656 C8.7050768,2.1865253 8.57226562,2.74218381 8.57226562,3.48046875 L8.57226562,5.98242188 C8.57226562,6.72070682 8.7070299,7.27831843 8.9765625,7.65527344 C9.2460951,8.03222845 9.63476309,8.22070312 10.1425781,8.22070312 C10.6503932,8.22070312 11.0361315,8.033205 11.2998047,7.65820312 C11.5634779,7.28320125 11.6953125,6.72461309 11.6953125,5.98242188 L11.6953125,3.48046875 Z"></path>
                </g>
            </g>
            <g transform="translate(20.000000, 311.000000)">
                <rect fill="#F9CD94" x="0" y="0" width="461" height="20"></rect>
                <g transform="translate(198.000000, 2.000000)" fill="#000000">
                    <path d="M6.45265625,13 L0.92140625,13 L0.92140625,12.2089844 L3.71632812,9.10351562 C4.21633062,8.54491908 4.55519442,8.10156414 4.73292969,7.7734375 C4.91066495,7.44531086 4.99953125,7.10937672 4.99953125,6.765625 C4.99953125,6.33984162 4.87550905,5.98144677 4.62746094,5.69042969 C4.37941282,5.39941261 4.05031455,5.25390625 3.64015625,5.25390625 C3.05030955,5.25390625 2.61574358,5.40527192 2.33644531,5.70800781 C2.05714704,6.0107437 1.9175,6.43554414 1.9175,6.98242188 L0.810078125,6.98242188 L0.798359375,6.94726562 C0.778828027,6.21288695 1.02296621,5.59570562 1.53078125,5.09570312 C2.03859629,4.59570062 2.74171426,4.34570312 3.64015625,4.34570312 C4.40578508,4.34570312 5.01613054,4.5693337 5.47121094,5.01660156 C5.92629134,5.46386942 6.15382812,6.03319967 6.15382812,6.72460938 C6.15382812,7.18945545 6.01613419,7.6552711 5.74074219,8.12207031 C5.46535019,8.58886952 5.07961186,9.08984107 4.58351562,9.625 L2.339375,12.0683594 L2.35109375,12.0976562 L6.45265625,12.0976562 L6.45265625,13 Z M13.0796094,9.74804688 C13.0796094,10.8378961 12.8384008,11.6728487 12.3559766,12.2529297 C11.8735523,12.8330107 11.2124261,13.1230469 10.3725781,13.1230469 C9.53273018,13.1230469 8.86867432,12.8320342 8.38039062,12.25 C7.89210693,11.6679658 7.64796875,10.8339898 7.64796875,9.74804688 L7.64796875,7.7265625 C7.64796875,6.64061957 7.89113038,5.80566698 8.37746094,5.22167969 C8.86379149,4.63769239 9.5249177,4.34570312 10.3608594,4.34570312 C11.2007073,4.34570312 11.8637866,4.63769239 12.3501172,5.22167969 C12.8364477,5.80566698 13.0796094,6.64061957 13.0796094,7.7265625 L13.0796094,9.74804688 Z M11.9253125,7.48046875 C11.9253125,6.74218381 11.7915248,6.1865253 11.5239453,5.81347656 C11.2563658,5.44042782 10.8686744,5.25390625 10.3608594,5.25390625 C9.85304434,5.25390625 9.46632945,5.44042782 9.20070312,5.81347656 C8.9350768,6.1865253 8.80226562,6.74218381 8.80226562,7.48046875 L8.80226562,9.98242188 C8.80226562,10.7207068 8.9370299,11.2783184 9.2065625,11.6552734 C9.4760951,12.0322284 9.86476309,12.2207031 10.3725781,12.2207031 C10.8803932,12.2207031 11.2661315,12.033205 11.5298047,11.6582031 C11.7934779,11.2832012 11.9253125,10.7246131 11.9253125,9.98242188 L11.9253125,7.48046875 Z"></path>
                </g>
            </g>
            <g transform="translate(20.000000, 47.000000)">
                <rect fill="#9CC2EB" x="0" y="0" width="460" height="20"></rect>
                <g transform="translate(197.000000, 2.000000)" fill="#000000">
                    <path d="M7.02265625,13 L1.49140625,13 L1.49140625,12.2089844 L4.28632813,9.10351562 C4.78633063,8.54491908 5.12519442,8.10156414 5.30292969,7.7734375 C5.48066495,7.44531086 5.56953125,7.10937672 5.56953125,6.765625 C5.56953125,6.33984162 5.44550905,5.98144677 5.19746094,5.69042969 C4.94941282,5.39941261 4.62031455,5.25390625 4.21015625,5.25390625 C3.62030955,5.25390625 3.18574358,5.40527192 2.90644531,5.70800781 C2.62714704,6.0107437 2.4875,6.43554414 2.4875,6.98242188 L1.38007813,6.98242188 L1.36835938,6.94726562 C1.34882803,6.21288695 1.59296621,5.59570562 2.10078125,5.09570312 C2.60859629,4.59570062 3.31171426,4.34570312 4.21015625,4.34570312 C4.97578508,4.34570312 5.58613054,4.5693337 6.04121094,5.01660156 C6.49629134,5.46386942 6.72382813,6.03319967 6.72382813,6.72460938 C6.72382813,7.18945545 6.58613419,7.6552711 6.31074219,8.12207031 C6.03535019,8.58886952 5.64961186,9.08984107 5.15351563,9.625 L2.909375,12.0683594 L2.92109375,12.0976562 L7.02265625,12.0976562 L7.02265625,13 Z M13.6496094,9.74804688 C13.6496094,10.8378961 13.4084008,11.6728487 12.9259766,12.2529297 C12.4435523,12.8330107 11.7824261,13.1230469 10.9425781,13.1230469 C10.1027302,13.1230469 9.43867432,12.8320342 8.95039063,12.25 C8.46210693,11.6679658 8.21796875,10.8339898 8.21796875,9.74804688 L8.21796875,7.7265625 C8.21796875,6.64061957 8.46113038,5.80566698 8.94746094,5.22167969 C9.43379149,4.63769239 10.0949177,4.34570312 10.9308594,4.34570312 C11.7707073,4.34570312 12.4337866,4.63769239 12.9201172,5.22167969 C13.4064477,5.80566698 13.6496094,6.64061957 13.6496094,7.7265625 L13.6496094,9.74804688 Z M12.4953125,7.48046875 C12.4953125,6.74218381 12.3615248,6.1865253 12.0939453,5.81347656 C11.8263658,5.44042782 11.4386744,5.25390625 10.9308594,5.25390625 C10.4230443,5.25390625 10.0363295,5.44042782 9.77070313,5.81347656 C9.5050768,6.1865253 9.37226563,6.74218381 9.37226563,7.48046875 L9.37226563,9.98242188 C9.37226563,10.7207068 9.5070299,11.2783184 9.7765625,11.6552734 C10.0460951,12.0322284 10.4347631,12.2207031 10.9425781,12.2207031 C11.4503932,12.2207031 11.8361315,12.033205 12.0998047,11.6582031 C12.3634779,11.2832012 12.4953125,10.7246131 12.4953125,9.98242188 L12.4953125,7.48046875 Z"></path>
                </g>
            </g>
            <g transform="translate(20.000000, 259.000000)">
                <rect fill="#9CC2EB" x="0" y="0" width="461" height="20"></rect>
                <g transform="translate(198.000000, 2.000000)" fill="#000000">
                    <path d="M6.45265625,13 L0.92140625,13 L0.92140625,12.2089844 L3.71632812,9.10351562 C4.21633062,8.54491908 4.55519442,8.10156414 4.73292969,7.7734375 C4.91066495,7.44531086 4.99953125,7.10937672 4.99953125,6.765625 C4.99953125,6.33984162 4.87550905,5.98144677 4.62746094,5.69042969 C4.37941282,5.39941261 4.05031455,5.25390625 3.64015625,5.25390625 C3.05030955,5.25390625 2.61574358,5.40527192 2.33644531,5.70800781 C2.05714704,6.0107437 1.9175,6.43554414 1.9175,6.98242188 L0.810078125,6.98242188 L0.798359375,6.94726562 C0.778828027,6.21288695 1.02296621,5.59570562 1.53078125,5.09570312 C2.03859629,4.59570062 2.74171426,4.34570312 3.64015625,4.34570312 C4.40578508,4.34570312 5.01613054,4.5693337 5.47121094,5.01660156 C5.92629134,5.46386942 6.15382812,6.03319967 6.15382812,6.72460938 C6.15382812,7.18945545 6.01613419,7.6552711 5.74074219,8.12207031 C5.46535019,8.58886952 5.07961186,9.08984107 4.58351562,9.625 L2.339375,12.0683594 L2.35109375,12.0976562 L6.45265625,12.0976562 L6.45265625,13 Z M13.0796094,9.74804688 C13.0796094,10.8378961 12.8384008,11.6728487 12.3559766,12.2529297 C11.8735523,12.8330107 11.2124261,13.1230469 10.3725781,13.1230469 C9.53273018,13.1230469 8.86867432,12.8320342 8.38039062,12.25 C7.89210693,11.6679658 7.64796875,10.8339898 7.64796875,9.74804688 L7.64796875,7.7265625 C7.64796875,6.64061957 7.89113038,5.80566698 8.37746094,5.22167969 C8.86379149,4.63769239 9.5249177,4.34570312 10.3608594,4.34570312 C11.2007073,4.34570312 11.8637866,4.63769239 12.3501172,5.22167969 C12.8364477,5.80566698 13.0796094,6.64061957 13.0796094,7.7265625 L13.0796094,9.74804688 Z M11.9253125,7.48046875 C11.9253125,6.74218381 11.7915248,6.1865253 11.5239453,5.81347656 C11.2563658,5.44042782 10.8686744,5.25390625 10.3608594,5.25390625 C9.85304434,5.25390625 9.46632945,5.44042782 9.20070312,5.81347656 C8.9350768,6.1865253 8.80226562,6.74218381 8.80226562,7.48046875 L8.80226562,9.98242188 C8.80226562,10.7207068 8.9370299,11.2783184 9.2065625,11.6552734 C9.4760951,12.0322284 9.86476309,12.2207031 10.3725781,12.2207031 C10.8803932,12.2207031 11.2661315,12.033205 11.5298047,11.6582031 C11.7934779,11.2832012 11.9253125,10.7246131 11.9253125,9.98242188 L11.9253125,7.48046875 Z"></path>
                </g>
            </g>
        </g>
    </g>
</svg>