<?xml version="1.0" encoding="utf-8"?>
<!-- Generator: Adobe Illustrator 21.0.2, SVG Export Plug-In . SVG Version: 6.00 Build 0)  -->
<svg version="1.1" id="Layer_1" xmlns="http://www.w3.org/2000/svg" xmlns:xlink="http://www.w3.org/1999/xlink" x="0px" y="0px"
	 width="508px" height="337px" viewBox="0 0 508 337" style="enable-background:new 0 0 508 337;" xml:space="preserve">
<style type="text/css">
	.st0{filter:url(#filter-2);}
	.st1{fill:#FFFFFF;stroke:#E0E0E0;}
	.st2{fill:#FFFFFF;}
	.st3{fill:none;stroke:#BDBDBD;}
	.st4{enable-background:new    ;}
	.st5{fill:#333333;}
	.st6{fill:#616161;}
	.st7{fill:#989898;}
	.st8{fill:#0C7C84;}
	.st9{fill:#FFFFFF;fill-opacity:0;}
	.st10{fill:none;stroke:#0C7481;}
	.st11{fill:#0C7481;}
</style>
<filter  filterUnits="objectBoundingBox" height="104.0%" id="filter-2" width="102.6%" x="-1.3%" y="-1.1%">
	<feMorphology  in="SourceAlpha" operator="dilate" radius="0.5" result="shadowSpreadOuter1"></feMorphology>
	<feOffset  dx="0" dy="3" in="shadowSpreadOuter1" result="shadowOffsetOuter1"></feOffset>
	<feGaussianBlur  in="shadowOffsetOuter1" result="shadowBlurOuter1" stdDeviation="1.5"></feGaussianBlur>
	<feComposite  in="shadowBlurOuter1" in2="SourceAlpha" operator="out" result="shadowBlurOuter1"></feComposite>
	<feColorMatrix  in="shadowBlurOuter1" type="matrix" values="0 0 0 0 0   0 0 0 0 0   0 0 0 0 0  0 0 0 0.16 0"></feColorMatrix>
</filter>
<title>Popover-small-create-edit</title>
<desc>Created with Sketch.</desc>
<g id="_x2A_Document_x2A_">
	<g id="_x32__x29_-Specs-_x26_-States" transform="translate(-417.000000, -3234.000000)">
		<g id="Smal-Create_x2F_Edit-Popover" transform="translate(0.000000, 3204.000000)">
			<g id="Group" transform="translate(421.000000, 30.000000)">
				<g id="Popover-small-create-edit">
					<g id="Fill-227-Copy">
						<g class="st0">
							<polygon id="path-1_2_" points="466.4,9.4 457.3,0 448.1,9.4 0,9.4 0,28.3 0,46.7 0,330 500,330 500,9.4 							"/>
						</g>
						<g>
							<polygon id="path-1_1_" class="st1" points="466.4,9.4 457.3,0 448.1,9.4 0,9.4 0,28.3 0,46.7 0,330 500,330 500,9.4 							
								"/>
						</g>
					</g>
					<g id="Rectangle-4">
						<g>
							<path id="path-3" class="st2" d="M22,88h248c1.1,0,2,0.9,2,2v28c0,1.1-0.9,2-2,2H22c-1.1,0-2-0.9-2-2V90
								C20,88.9,20.9,88,22,88z"/>
						</g>
						<path class="st3" d="M22.5,88.5h247c1.1,0,2,0.9,2,2v27c0,1.1-0.9,2-2,2h-247c-1.1,0-2-0.9-2-2v-27
							C20.5,89.4,21.4,88.5,22.5,88.5z"/>
					</g>
					<g class="st4">
						<path class="st5" d="M27.4,44.5l4.1-11.7h2.1L28.2,47h-1.7l-5.3-14.2h2L27.4,44.5z"/>
						<path class="st5" d="M39.5,47.2c-1.4,0-2.6-0.5-3.5-1.4s-1.3-2.2-1.3-3.8v-0.3c0-1,0.2-2,0.6-2.8s1-1.5,1.7-1.9
							s1.5-0.7,2.3-0.7c1.4,0,2.4,0.5,3.2,1.4s1.1,2.2,1.1,3.9v0.8h-7.2c0,1,0.3,1.9,0.9,2.5s1.3,1,2.2,1c0.6,0,1.2-0.1,1.6-0.4
							s0.8-0.6,1.2-1l1.1,0.9C42.6,46.5,41.2,47.2,39.5,47.2z M39.3,37.7c-0.7,0-1.3,0.3-1.8,0.8s-0.8,1.3-0.9,2.2h5.3v-0.1
							c-0.1-0.9-0.3-1.6-0.7-2.1S40,37.7,39.3,37.7z"/>
						<path class="st5" d="M50.8,38.1c-0.3,0-0.6-0.1-0.9-0.1c-1.2,0-2,0.5-2.4,1.5V47h-1.8V36.4h1.8l0,1.2c0.6-0.9,1.4-1.4,2.5-1.4
							c0.4,0,0.6,0,0.8,0.1V38.1z"/>
						<path class="st5" d="M52.5,33.6c0-0.3,0.1-0.5,0.3-0.7s0.4-0.3,0.8-0.3s0.6,0.1,0.8,0.3s0.3,0.4,0.3,0.7s-0.1,0.5-0.3,0.7
							s-0.4,0.3-0.8,0.3s-0.6-0.1-0.8-0.3S52.5,33.9,52.5,33.6z M54.4,47h-1.8V36.4h1.8V47z"/>
						<path class="st5" d="M58.2,47v-9.2h-1.7v-1.4h1.7v-1.1c0-1.1,0.3-2,0.9-2.6s1.5-0.9,2.6-0.9c0.4,0,0.8,0.1,1.2,0.2l-0.1,1.5
							c-0.3-0.1-0.6-0.1-1-0.1c-0.6,0-1,0.2-1.4,0.5S60,34.7,60,35.3v1.1h2.3v1.4H60V47H58.2z"/>
						<path class="st5" d="M67.7,44.4l2.5-7.9h1.9l-4.2,12.2c-0.7,1.8-1.7,2.6-3.1,2.6l-0.3,0l-0.7-0.1v-1.5l0.5,0
							c0.6,0,1.1-0.1,1.4-0.4s0.6-0.7,0.8-1.4l0.4-1.1l-3.8-10.4h2L67.7,44.4z"/>
						<path class="st5" d="M89,32.8v9.7c0,1.3-0.4,2.4-1.3,3.3s-2,1.3-3.4,1.4l-0.5,0c-1.6,0-2.8-0.4-3.7-1.3s-1.4-2-1.4-3.5v-9.7
							h1.9v9.6c0,1,0.3,1.8,0.8,2.4s1.4,0.9,2.4,0.9c1.1,0,1.9-0.3,2.4-0.8s0.8-1.4,0.8-2.4v-9.6H89z"/>
						<path class="st5" d="M97.8,44.2c0-0.5-0.2-0.9-0.6-1.1s-1-0.5-1.9-0.7s-1.6-0.4-2.2-0.7s-0.9-0.6-1.2-1s-0.4-0.8-0.4-1.3
							c0-0.9,0.4-1.6,1.1-2.2s1.7-0.9,2.8-0.9c1.2,0,2.2,0.3,2.9,0.9s1.1,1.4,1.1,2.4h-1.8c0-0.5-0.2-0.9-0.6-1.3s-0.9-0.5-1.6-0.5
							c-0.7,0-1.2,0.1-1.5,0.4s-0.6,0.7-0.6,1.1c0,0.4,0.2,0.8,0.5,1s1,0.4,1.9,0.6s1.6,0.4,2.2,0.7s1,0.6,1.2,1s0.4,0.9,0.4,1.4
							c0,0.9-0.4,1.7-1.1,2.3s-1.7,0.9-2.9,0.9c-0.8,0-1.6-0.1-2.2-0.4s-1.2-0.7-1.5-1.3s-0.6-1.1-0.6-1.7H93c0,0.6,0.3,1.1,0.7,1.4
							s1,0.5,1.8,0.5c0.7,0,1.2-0.1,1.6-0.4S97.8,44.7,97.8,44.2z"/>
						<path class="st5" d="M106.3,47.2c-1.4,0-2.6-0.5-3.5-1.4s-1.3-2.2-1.3-3.8v-0.3c0-1,0.2-2,0.6-2.8s1-1.5,1.7-1.9
							s1.5-0.7,2.3-0.7c1.4,0,2.4,0.5,3.2,1.4s1.1,2.2,1.1,3.9v0.8h-7.2c0,1,0.3,1.9,0.9,2.5s1.3,1,2.2,1c0.6,0,1.2-0.1,1.6-0.4
							s0.8-0.6,1.2-1l1.1,0.9C109.4,46.5,108.1,47.2,106.3,47.2z M106.1,37.7c-0.7,0-1.3,0.3-1.8,0.8s-0.8,1.3-0.9,2.2h5.3v-0.1
							c-0.1-0.9-0.3-1.6-0.7-2.1S106.9,37.7,106.1,37.7z"/>
						<path class="st5" d="M117.7,38.1c-0.3,0-0.6-0.1-0.9-0.1c-1.2,0-2,0.5-2.4,1.5V47h-1.8V36.4h1.8l0,1.2
							c0.6-0.9,1.4-1.4,2.5-1.4c0.4,0,0.6,0,0.8,0.1V38.1z"/>
					</g>
					<g id="Basic-Field-_x2F_-Helper-Text" transform="translate(19.000000, 130.000000)">
						<g id="Basic-Field-w-Label">
							<g id="Rectangle-4_1_">
								<g>
									<path id="path-4" class="st2" d="M3.2,21H250c1.1,0,2,0.9,2,2v28c0,1.1-0.9,2-2,2H3.2c-1.1,0-2-0.9-2-2V23
										C1.2,21.9,2.1,21,3.2,21z"/>
								</g>
								<path class="st3" d="M3.7,21.5h245.8c1.1,0,2,0.9,2,2v27c0,1.1-0.9,2-2,2H3.7c-1.1,0-2-0.9-2-2v-27
									C1.7,22.4,2.6,21.5,3.7,21.5z"/>
							</g>
							<g class="st4">
								<path class="st6" d="M2.5,13.9h4.7V15h-6V5h1.3V13.9z"/>
								<path class="st6" d="M13.1,15c-0.1-0.1-0.1-0.4-0.2-0.8c-0.6,0.6-1.3,0.9-2.1,0.9c-0.7,0-1.3-0.2-1.8-0.6
									c-0.5-0.4-0.7-0.9-0.7-1.6c0-0.8,0.3-1.4,0.9-1.8c0.6-0.4,1.4-0.6,2.5-0.6h1.2V9.9c0-0.4-0.1-0.8-0.4-1.1
									c-0.3-0.3-0.7-0.4-1.2-0.4c-0.5,0-0.8,0.1-1.1,0.3S9.7,9.3,9.7,9.7H8.4c0-0.4,0.1-0.7,0.4-1.1C9.1,8.2,9.4,8,9.9,7.8
									s0.9-0.3,1.5-0.3c0.9,0,1.5,0.2,2,0.6c0.5,0.4,0.7,1,0.8,1.8v3.4c0,0.7,0.1,1.2,0.3,1.6V15H13.1z M11,14
									c0.4,0,0.8-0.1,1.1-0.3s0.6-0.5,0.8-0.8v-1.5h-1c-1.5,0-2.3,0.5-2.3,1.4c0,0.4,0.1,0.7,0.4,0.9S10.5,14,11,14z"/>
								<path class="st6" d="M22.4,11.4c0,1.1-0.3,2-0.8,2.7c-0.5,0.7-1.2,1-2.1,1c-0.9,0-1.7-0.3-2.2-1L17.3,15h-1.2V4.5h1.3v3.9
									c0.5-0.6,1.2-1,2.1-1s1.6,0.3,2.1,1s0.8,1.6,0.8,2.8V11.4z M21.1,11.2c0-0.9-0.2-1.5-0.5-2s-0.8-0.7-1.4-0.7
									c-0.8,0-1.4,0.4-1.8,1.2v3.2c0.4,0.8,1,1.2,1.8,1.2c0.6,0,1.1-0.2,1.4-0.7S21.1,12.2,21.1,11.2z"/>
								<path class="st6" d="M27,15.1c-1,0-1.8-0.3-2.4-1c-0.6-0.7-0.9-1.5-0.9-2.6v-0.2c0-0.7,0.1-1.4,0.4-2c0.3-0.6,0.7-1,1.2-1.4
									c0.5-0.3,1-0.5,1.6-0.5c1,0,1.7,0.3,2.2,1s0.8,1.5,0.8,2.7v0.5h-5c0,0.7,0.2,1.3,0.6,1.8c0.4,0.4,0.9,0.7,1.6,0.7
									c0.4,0,0.8-0.1,1.1-0.3s0.6-0.4,0.8-0.7l0.8,0.6C29.2,14.7,28.3,15.1,27,15.1z M26.9,8.5c-0.5,0-0.9,0.2-1.3,0.6
									c-0.3,0.4-0.6,0.9-0.6,1.6h3.7v-0.1c0-0.6-0.2-1.1-0.5-1.5C27.8,8.7,27.4,8.5,26.9,8.5z"/>
								<path class="st6" d="M32.8,15h-1.3V4.5h1.3V15z"/>
							</g>
						</g>
					</g>
					<g class="st4">
						<path class="st6" d="M22.5,80.9h4.7V82h-6V72h1.3V80.9z"/>
						<path class="st6" d="M33.1,82c-0.1-0.1-0.1-0.4-0.2-0.8c-0.6,0.6-1.3,0.9-2.1,0.9c-0.7,0-1.3-0.2-1.8-0.6
							c-0.5-0.4-0.7-0.9-0.7-1.6c0-0.8,0.3-1.4,0.9-1.8c0.6-0.4,1.4-0.6,2.5-0.6h1.2v-0.6c0-0.4-0.1-0.8-0.4-1.1
							c-0.3-0.3-0.7-0.4-1.2-0.4c-0.5,0-0.8,0.1-1.1,0.3s-0.5,0.5-0.5,0.8h-1.3c0-0.4,0.1-0.7,0.4-1.1c0.3-0.3,0.6-0.6,1.1-0.8
							s0.9-0.3,1.5-0.3c0.9,0,1.5,0.2,2,0.6c0.5,0.4,0.7,1,0.8,1.8v3.4c0,0.7,0.1,1.2,0.3,1.6V82H33.1z M31,81
							c0.4,0,0.8-0.1,1.1-0.3s0.6-0.5,0.8-0.8v-1.5h-1c-1.5,0-2.3,0.5-2.3,1.4c0,0.4,0.1,0.7,0.4,0.9S30.5,81,31,81z"/>
						<path class="st6" d="M42.4,78.4c0,1.1-0.3,2-0.8,2.7c-0.5,0.7-1.2,1-2.1,1c-0.9,0-1.7-0.3-2.2-1L37.3,82h-1.2V71.5h1.3v3.9
							c0.5-0.6,1.2-1,2.1-1s1.6,0.3,2.1,1s0.8,1.6,0.8,2.8V78.4z M41.1,78.2c0-0.9-0.2-1.5-0.5-2s-0.8-0.7-1.4-0.7
							c-0.8,0-1.4,0.4-1.8,1.2v3.2c0.4,0.8,1,1.2,1.8,1.2c0.6,0,1.1-0.2,1.4-0.7S41.1,79.2,41.1,78.2z"/>
						<path class="st6" d="M47,82.1c-1,0-1.8-0.3-2.4-1c-0.6-0.7-0.9-1.5-0.9-2.6v-0.2c0-0.7,0.1-1.4,0.4-2c0.3-0.6,0.7-1,1.2-1.4
							c0.5-0.3,1-0.5,1.6-0.5c1,0,1.7,0.3,2.2,1s0.8,1.5,0.8,2.7v0.5h-5c0,0.7,0.2,1.3,0.6,1.8c0.4,0.4,0.9,0.7,1.6,0.7
							c0.4,0,0.8-0.1,1.1-0.3s0.6-0.4,0.8-0.7l0.8,0.6C49.2,81.7,48.3,82.1,47,82.1z M46.9,75.5c-0.5,0-0.9,0.2-1.3,0.6
							c-0.3,0.4-0.6,0.9-0.6,1.6h3.7v-0.1c0-0.6-0.2-1.1-0.5-1.5C47.8,75.7,47.4,75.5,46.9,75.5z"/>
						<path class="st6" d="M52.8,82h-1.3V71.5h1.3V82z"/>
					</g>
					<g id="Basic-Field-_x2F_-Helper-Text_1_" transform="translate(19.000000, 193.000000)">
						<g id="Basic-Field-w-Label_1_">
							<g id="Rectangle-4_2_">
								<g>
									<path id="path-5" class="st2" d="M3.2,21H250c1.1,0,2,0.9,2,2v28c0,1.1-0.9,2-2,2H3.2c-1.1,0-2-0.9-2-2V23
										C1.2,21.9,2.1,21,3.2,21z"/>
								</g>
								<path class="st3" d="M3.7,21.5h245.8c1.1,0,2,0.9,2,2v27c0,1.1-0.9,2-2,2H3.7c-1.1,0-2-0.9-2-2v-27
									C1.7,22.4,2.6,21.5,3.7,21.5z"/>
							</g>
							<g class="st4">
								<path class="st6" d="M2.5,13.9h4.7V15h-6V5h1.3V13.9z"/>
								<path class="st6" d="M13.1,15c-0.1-0.1-0.1-0.4-0.2-0.8c-0.6,0.6-1.3,0.9-2.1,0.9c-0.7,0-1.3-0.2-1.8-0.6
									c-0.5-0.4-0.7-0.9-0.7-1.6c0-0.8,0.3-1.4,0.9-1.8c0.6-0.4,1.4-0.6,2.5-0.6h1.2V9.9c0-0.4-0.1-0.8-0.4-1.1
									c-0.3-0.3-0.7-0.4-1.2-0.4c-0.5,0-0.8,0.1-1.1,0.3S9.7,9.3,9.7,9.7H8.4c0-0.4,0.1-0.7,0.4-1.1C9.1,8.2,9.4,8,9.9,7.8
									s0.9-0.3,1.5-0.3c0.9,0,1.5,0.2,2,0.6c0.5,0.4,0.7,1,0.8,1.8v3.4c0,0.7,0.1,1.2,0.3,1.6V15H13.1z M11,14
									c0.4,0,0.8-0.1,1.1-0.3s0.6-0.5,0.8-0.8v-1.5h-1c-1.5,0-2.3,0.5-2.3,1.4c0,0.4,0.1,0.7,0.4,0.9S10.5,14,11,14z"/>
								<path class="st6" d="M22.4,11.4c0,1.1-0.3,2-0.8,2.7c-0.5,0.7-1.2,1-2.1,1c-0.9,0-1.7-0.3-2.2-1L17.3,15h-1.2V4.5h1.3v3.9
									c0.5-0.6,1.2-1,2.1-1s1.6,0.3,2.1,1s0.8,1.6,0.8,2.8V11.4z M21.1,11.2c0-0.9-0.2-1.5-0.5-2s-0.8-0.7-1.4-0.7
									c-0.8,0-1.4,0.4-1.8,1.2v3.2c0.4,0.8,1,1.2,1.8,1.2c0.6,0,1.1-0.2,1.4-0.7S21.1,12.2,21.1,11.2z"/>
								<path class="st6" d="M27,15.1c-1,0-1.8-0.3-2.4-1c-0.6-0.7-0.9-1.5-0.9-2.6v-0.2c0-0.7,0.1-1.4,0.4-2c0.3-0.6,0.7-1,1.2-1.4
									c0.5-0.3,1-0.5,1.6-0.5c1,0,1.7,0.3,2.2,1s0.8,1.5,0.8,2.7v0.5h-5c0,0.7,0.2,1.3,0.6,1.8c0.4,0.4,0.9,0.7,1.6,0.7
									c0.4,0,0.8-0.1,1.1-0.3s0.6-0.4,0.8-0.7l0.8,0.6C29.2,14.7,28.3,15.1,27,15.1z M26.9,8.5c-0.5,0-0.9,0.2-1.3,0.6
									c-0.3,0.4-0.6,0.9-0.6,1.6h3.7v-0.1c0-0.6-0.2-1.1-0.5-1.5C27.8,8.7,27.4,8.5,26.9,8.5z"/>
								<path class="st6" d="M32.8,15h-1.3V4.5h1.3V15z"/>
							</g>
						</g>
					</g>
					<g class="st4">
						<path class="st6" d="M35.5,99.8l3.7,9.3l3.7-9.3h1.9v11.4h-1.5v-4.4l0.1-4.8l-3.7,9.2h-1.1l-3.7-9.2l0.1,4.8v4.4h-1.5V99.8
							H35.5z"/>
						<path class="st6" d="M52.5,111.1c-0.1-0.2-0.2-0.5-0.2-0.9c-0.7,0.7-1.5,1-2.4,1c-0.8,0-1.5-0.2-2.1-0.7
							c-0.5-0.5-0.8-1.1-0.8-1.8c0-0.9,0.3-1.6,1-2.1c0.7-0.5,1.6-0.7,2.8-0.7h1.4v-0.7c0-0.5-0.2-0.9-0.5-1.2
							c-0.3-0.3-0.7-0.4-1.3-0.4c-0.5,0-0.9,0.1-1.3,0.4c-0.3,0.3-0.5,0.6-0.5,0.9h-1.5c0-0.4,0.1-0.8,0.4-1.2
							c0.3-0.4,0.7-0.7,1.2-0.9c0.5-0.2,1.1-0.3,1.7-0.3c1,0,1.7,0.2,2.3,0.7c0.6,0.5,0.8,1.2,0.9,2v3.9c0,0.8,0.1,1.4,0.3,1.9v0.1
							H52.5z M50.2,110c0.5,0,0.9-0.1,1.3-0.4s0.7-0.5,0.9-0.9V107h-1.1c-1.8,0-2.7,0.5-2.7,1.6c0,0.5,0.2,0.8,0.5,1.1
							C49.3,109.9,49.7,110,50.2,110z"/>
					</g>
					<g class="st4">
						<path class="st6" d="M58.4,107.2l-0.9,0.9v3H56v-12h1.4v7.3l0.8-0.9l2.6-2.8h1.8l-3.3,3.5l3.7,4.9h-1.7L58.4,107.2z"/>
					</g>
					<g class="st4">
						<path class="st6" d="M67.5,111.3c-1.1,0-2.1-0.4-2.8-1.1s-1.1-1.8-1.1-3v-0.3c0-0.8,0.2-1.6,0.5-2.2s0.8-1.2,1.3-1.5
							c0.6-0.4,1.2-0.6,1.9-0.6c1.1,0,2,0.4,2.6,1.1s0.9,1.8,0.9,3.1v0.6h-5.7c0,0.8,0.3,1.5,0.7,2c0.5,0.5,1.1,0.8,1.8,0.8
							c0.5,0,0.9-0.1,1.3-0.3c0.4-0.2,0.7-0.5,0.9-0.8l0.9,0.7C70,110.7,68.9,111.3,67.5,111.3z M67.3,103.7c-0.6,0-1.1,0.2-1.5,0.6
							c-0.4,0.4-0.6,1-0.7,1.8h4.2V106c0-0.7-0.2-1.3-0.6-1.7C68.4,103.9,67.9,103.7,67.3,103.7z"/>
						<path class="st6" d="M81.6,111.1c-0.1-0.2-0.2-0.5-0.2-0.9c-0.7,0.7-1.5,1-2.4,1c-0.8,0-1.5-0.2-2.1-0.7
							c-0.5-0.5-0.8-1.1-0.8-1.8c0-0.9,0.3-1.6,1-2.1c0.7-0.5,1.6-0.7,2.8-0.7h1.4v-0.7c0-0.5-0.2-0.9-0.5-1.2
							c-0.3-0.3-0.7-0.4-1.3-0.4c-0.5,0-0.9,0.1-1.3,0.4c-0.3,0.3-0.5,0.6-0.5,0.9h-1.5c0-0.4,0.1-0.8,0.4-1.2
							c0.3-0.4,0.7-0.7,1.2-0.9c0.5-0.2,1.1-0.3,1.7-0.3c1,0,1.7,0.2,2.3,0.7c0.6,0.5,0.8,1.2,0.9,2v3.9c0,0.8,0.1,1.4,0.3,1.9v0.1
							H81.6z M79.2,110c0.5,0,0.9-0.1,1.3-0.4s0.7-0.5,0.9-0.9V107h-1.1c-1.8,0-2.7,0.5-2.7,1.6c0,0.5,0.2,0.8,0.5,1.1
							C78.4,109.9,78.8,110,79.2,110z"/>
						<path class="st6" d="M94,108.9c0-0.4-0.1-0.7-0.4-0.9c-0.3-0.2-0.8-0.4-1.5-0.6c-0.7-0.2-1.3-0.3-1.7-0.6s-0.7-0.5-1-0.8
							c-0.2-0.3-0.3-0.7-0.3-1.1c0-0.7,0.3-1.3,0.9-1.8s1.3-0.7,2.2-0.7c1,0,1.7,0.2,2.3,0.7c0.6,0.5,0.9,1.1,0.9,1.9h-1.5
							c0-0.4-0.2-0.7-0.5-1s-0.8-0.4-1.3-0.4c-0.5,0-0.9,0.1-1.2,0.3s-0.4,0.5-0.4,0.9c0,0.3,0.1,0.6,0.4,0.8
							c0.3,0.2,0.8,0.3,1.5,0.5c0.7,0.2,1.3,0.4,1.8,0.6c0.4,0.2,0.8,0.5,1,0.8c0.2,0.3,0.3,0.7,0.3,1.2c0,0.8-0.3,1.4-0.9,1.8
							c-0.6,0.5-1.4,0.7-2.4,0.7c-0.7,0-1.3-0.1-1.8-0.4c-0.5-0.2-0.9-0.6-1.2-1c-0.3-0.4-0.4-0.9-0.4-1.4h1.4
							c0,0.5,0.2,0.9,0.6,1.2c0.4,0.3,0.8,0.4,1.4,0.4c0.5,0,1-0.1,1.3-0.3C93.8,109.6,94,109.3,94,108.9z"/>
						<path class="st6" d="M100.8,111.3c-1.1,0-2.1-0.4-2.8-1.1s-1.1-1.8-1.1-3v-0.3c0-0.8,0.2-1.6,0.5-2.2s0.8-1.2,1.3-1.5
							c0.6-0.4,1.2-0.6,1.9-0.6c1.1,0,2,0.4,2.6,1.1s0.9,1.8,0.9,3.1v0.6h-5.7c0,0.8,0.3,1.5,0.7,2c0.5,0.5,1.1,0.8,1.8,0.8
							c0.5,0,0.9-0.1,1.3-0.3c0.4-0.2,0.7-0.5,0.9-0.8l0.9,0.7C103.3,110.7,102.3,111.3,100.8,111.3z M100.7,103.7
							c-0.6,0-1.1,0.2-1.5,0.6c-0.4,0.4-0.6,1-0.7,1.8h4.2V106c0-0.7-0.2-1.3-0.6-1.7C101.7,103.9,101.3,103.7,100.7,103.7z"/>
						<path class="st6" d="M107.4,111.1h-1.4v-12h1.4V111.1z"/>
						<path class="st6" d="M113.2,111.3c-1.1,0-2.1-0.4-2.8-1.1s-1.1-1.8-1.1-3v-0.3c0-0.8,0.2-1.6,0.5-2.2s0.8-1.2,1.3-1.5
							c0.6-0.4,1.2-0.6,1.9-0.6c1.1,0,2,0.4,2.6,1.1s0.9,1.8,0.9,3.1v0.6h-5.7c0,0.8,0.3,1.5,0.7,2c0.5,0.5,1.1,0.8,1.8,0.8
							c0.5,0,0.9-0.1,1.3-0.3c0.4-0.2,0.7-0.5,0.9-0.8l0.9,0.7C115.7,110.7,114.6,111.3,113.2,111.3z M113,103.7
							c-0.6,0-1.1,0.2-1.5,0.6c-0.4,0.4-0.6,1-0.7,1.8h4.2V106c0-0.7-0.2-1.3-0.6-1.7C114.1,103.9,113.6,103.7,113,103.7z"/>
						<path class="st6" d="M121.6,110.1c0.5,0,1-0.2,1.4-0.5c0.4-0.3,0.6-0.7,0.6-1.2h1.4c0,0.5-0.2,0.9-0.5,1.4
							c-0.3,0.4-0.7,0.8-1.2,1c-0.5,0.3-1.1,0.4-1.6,0.4c-1.2,0-2.1-0.4-2.7-1.2s-1-1.8-1-3.2v-0.2c0-0.8,0.2-1.6,0.5-2.2
							c0.3-0.6,0.7-1.1,1.3-1.5c0.6-0.4,1.2-0.5,2-0.5c0.9,0,1.7,0.3,2.4,0.9c0.6,0.6,1,1.3,1,2.2h-1.4c0-0.5-0.2-1-0.6-1.3
							c-0.4-0.4-0.8-0.5-1.4-0.5c-0.7,0-1.3,0.3-1.7,0.8c-0.4,0.5-0.6,1.3-0.6,2.3v0.3c0,1,0.2,1.7,0.6,2.2
							C120.2,109.8,120.8,110.1,121.6,110.1z"/>
						<path class="st6" d="M128.5,100.6v2h1.6v1.1h-1.6v5.2c0,0.3,0.1,0.6,0.2,0.8c0.1,0.2,0.4,0.3,0.7,0.3c0.2,0,0.4,0,0.7-0.1v1.2
							c-0.4,0.1-0.8,0.2-1.1,0.2c-0.6,0-1.1-0.2-1.5-0.6s-0.5-0.9-0.5-1.7v-5.2h-1.5v-1.1h1.5v-2H128.5z"/>
						<path class="st6" d="M131.8,100.4c0-0.2,0.1-0.4,0.2-0.6c0.1-0.2,0.4-0.2,0.6-0.2s0.5,0.1,0.6,0.2c0.1,0.2,0.2,0.4,0.2,0.6
							s-0.1,0.4-0.2,0.6c-0.1,0.2-0.4,0.2-0.6,0.2s-0.5-0.1-0.6-0.2C131.9,100.9,131.8,100.7,131.8,100.4z M133.3,111.1h-1.4v-8.5
							h1.4V111.1z"/>
						<path class="st6" d="M135.3,106.8c0-0.8,0.2-1.6,0.5-2.2c0.3-0.7,0.8-1.2,1.4-1.5c0.6-0.4,1.2-0.5,2-0.5
							c1.2,0,2.1,0.4,2.8,1.2s1.1,1.9,1.1,3.2v0.1c0,0.8-0.2,1.6-0.5,2.2c-0.3,0.7-0.8,1.2-1.4,1.5s-1.3,0.5-2,0.5
							c-1.1,0-2.1-0.4-2.8-1.2s-1.1-1.9-1.1-3.2V106.8z M136.7,107c0,0.9,0.2,1.7,0.7,2.3c0.4,0.6,1,0.9,1.7,0.9
							c0.7,0,1.3-0.3,1.8-0.9c0.4-0.6,0.6-1.4,0.6-2.4c0-0.9-0.2-1.7-0.7-2.3c-0.4-0.6-1-0.9-1.8-0.9c-0.7,0-1.3,0.3-1.7,0.9
							S136.7,105.9,136.7,107z"/>
						<path class="st6" d="M146.1,102.7l0,1.1c0.6-0.8,1.5-1.2,2.5-1.2c1.8,0,2.7,1,2.7,3v5.6H150v-5.6c0-0.6-0.1-1.1-0.4-1.4
							s-0.7-0.4-1.3-0.4c-0.5,0-0.9,0.1-1.2,0.4c-0.4,0.2-0.6,0.6-0.8,1v6h-1.4v-8.5H146.1z"/>
					</g>
					<path id="Fill-69" class="st7" d="M257.2,103.2h-1.6c-0.1,0-0.2-0.1-0.2-0.1c0,0-0.1,0-0.1,0c-0.1,0.1,0,0.2,0.1,0.3l2.9,2.8
						c0.1,0.1,0.3,0.1,0.5,0l2.9-2.9c0.1-0.1,0.1-0.2,0.1-0.4c0,0,0,0.1-0.1,0.1c-0.1-0.1-0.1,0.1-0.2,0.1h-1.6H257.2z"/>
					<g id="Button_x2F_Standard_x2F_Primary" transform="translate(20.000000, 279.000000)">
						<path id="Rectangle-2" class="st8" d="M2,0h82c1.1,0,2,0.9,2,2v28c0,1.1-0.9,2-2,2H2c-1.1,0-2-0.9-2-2V2C0,0.9,0.9,0,2,0z"/>
						<g class="st4">
							<path class="st2" d="M20.9,17.8c-0.1,1.1-0.5,1.9-1.2,2.5c-0.7,0.6-1.6,0.9-2.7,0.9c-0.8,0-1.5-0.2-2.1-0.6
								c-0.6-0.4-1.1-0.9-1.4-1.6S13,17.5,13,16.6v-0.9c0-0.9,0.2-1.8,0.5-2.5s0.8-1.3,1.4-1.7s1.3-0.6,2.2-0.6c1.1,0,2,0.3,2.7,0.9
								c0.7,0.6,1.1,1.4,1.2,2.5h-1.7c-0.1-0.7-0.3-1.2-0.6-1.5c-0.3-0.3-0.8-0.5-1.5-0.5c-0.8,0-1.3,0.3-1.7,0.8s-0.6,1.4-0.6,2.4
								v0.9c0,1.1,0.2,1.9,0.6,2.5s0.9,0.8,1.7,0.8c0.7,0,1.2-0.2,1.5-0.5s0.6-0.8,0.6-1.5H20.9z"/>
							<path class="st2" d="M30.4,16.3c0,1-0.2,1.8-0.5,2.6c-0.3,0.7-0.8,1.3-1.4,1.7c-0.6,0.4-1.3,0.6-2.2,0.6
								c-0.8,0-1.5-0.2-2.2-0.6c-0.6-0.4-1.1-1-1.5-1.7s-0.5-1.6-0.5-2.5v-0.6c0-1,0.2-1.8,0.5-2.6s0.8-1.3,1.5-1.7
								c0.6-0.4,1.3-0.6,2.2-0.6s1.5,0.2,2.2,0.6c0.6,0.4,1.1,1,1.5,1.7c0.3,0.7,0.5,1.6,0.5,2.6V16.3z M28.7,15.8
								c0-1.1-0.2-1.9-0.6-2.5s-1-0.9-1.8-0.9c-0.7,0-1.3,0.3-1.8,0.9c-0.4,0.6-0.6,1.4-0.6,2.5v0.6c0,1.1,0.2,1.9,0.6,2.5
								s1,0.9,1.8,0.9c0.8,0,1.4-0.3,1.8-0.9s0.6-1.4,0.6-2.6V15.8z"/>
							<path class="st2" d="M40,21h-1.7l-4.4-7.1V21h-1.7V11h1.7l4.5,7.1V11H40V21z"/>
							<path class="st2" d="M47.8,16.8h-4V21h-1.7V11h6.3v1.4h-4.6v3h4V16.8z"/>
							<path class="st2" d="M51.6,21h-1.7V11h1.7V21z"/>
							<path class="st2" d="M57.4,17.2h-1.9V21h-1.7V11h3.5c1.1,0,2,0.3,2.7,0.8s0.9,1.3,0.9,2.2c0,0.7-0.2,1.2-0.5,1.7
								s-0.8,0.8-1.3,1l2.2,4.1V21h-1.9L57.4,17.2z M55.4,15.8h1.8c0.6,0,1-0.1,1.4-0.4c0.3-0.3,0.5-0.7,0.5-1.2
								c0-0.5-0.2-0.9-0.5-1.2s-0.8-0.4-1.4-0.5h-1.8V15.8z"/>
							<path class="st2" d="M64.7,11l2.9,7.6l2.9-7.6h2.2v10h-1.7v-3.3l0.2-4.4L68.2,21h-1.2L64,13.3l0.2,4.4V21h-1.7V11H64.7z"/>
						</g>
					</g>
					<g id="Button_x2F_Standard_x2F_Secondary" transform="translate(126.000000, 280.000000)">
						<g id="Rectangle-2_1_">
							<g>
								<path id="path-6" class="st9" d="M2,0h79c1.1,0,2,0.9,2,2v28c0,1.1-0.9,2-2,2H2c-1.1,0-2-0.9-2-2V2C0,0.9,0.9,0,2,0z"/>
							</g>
							<path class="st10" d="M2.5,0.5h78c1.1,0,2,0.9,2,2v27c0,1.1-0.9,2-2,2h-78c-1.1,0-2-0.9-2-2v-27C0.5,1.4,1.4,0.5,2.5,0.5z"/>
						</g>
						<g class="st4">
							<path class="st11" d="M23.6,17.8c-0.1,1.1-0.5,1.9-1.2,2.5c-0.7,0.6-1.6,0.9-2.7,0.9c-0.8,0-1.5-0.2-2.1-0.6
								c-0.6-0.4-1.1-0.9-1.4-1.6s-0.5-1.5-0.5-2.4v-0.9c0-0.9,0.2-1.8,0.5-2.5s0.8-1.3,1.4-1.7s1.3-0.6,2.2-0.6
								c1.1,0,2,0.3,2.7,0.9c0.7,0.6,1.1,1.4,1.2,2.5h-1.7c-0.1-0.7-0.3-1.2-0.6-1.5c-0.3-0.3-0.8-0.5-1.5-0.5
								c-0.8,0-1.3,0.3-1.7,0.8s-0.6,1.4-0.6,2.4v0.9c0,1.1,0.2,1.9,0.6,2.5s0.9,0.8,1.7,0.8c0.7,0,1.2-0.2,1.5-0.5s0.6-0.8,0.6-1.5
								H23.6z"/>
							<path class="st11" d="M30.7,18.7h-3.9L26,21h-1.8L28,11h1.6l3.8,10h-1.8L30.7,18.7z M27.3,17.3h2.9l-1.4-4.1L27.3,17.3z"/>
							<path class="st11" d="M42.4,21h-1.7l-4.4-7.1V21h-1.7V11h1.7l4.5,7.1V11h1.7V21z"/>
							<path class="st11" d="M52,17.8c-0.1,1.1-0.5,1.9-1.2,2.5c-0.7,0.6-1.6,0.9-2.7,0.9c-0.8,0-1.5-0.2-2.1-0.6
								c-0.6-0.4-1.1-0.9-1.4-1.6s-0.5-1.5-0.5-2.4v-0.9c0-0.9,0.2-1.8,0.5-2.5s0.8-1.3,1.4-1.7s1.3-0.6,2.2-0.6
								c1.1,0,2,0.3,2.7,0.9c0.7,0.6,1.1,1.4,1.2,2.5h-1.7c-0.1-0.7-0.3-1.2-0.6-1.5c-0.3-0.3-0.8-0.5-1.5-0.5
								c-0.8,0-1.3,0.3-1.7,0.8s-0.6,1.4-0.6,2.4v0.9c0,1.1,0.2,1.9,0.6,2.5s0.9,0.8,1.7,0.8c0.7,0,1.2-0.2,1.5-0.5s0.6-0.8,0.6-1.5
								H52z"/>
							<path class="st11" d="M59.4,16.6h-4.1v3.1H60V21h-6.5V11H60v1.4h-4.7v2.7h4.1V16.6z"/>
							<path class="st11" d="M63.2,19.6h4.5V21h-6.2V11h1.7V19.6z"/>
						</g>
					</g>
				</g>
			</g>
		</g>
	</g>
</g>
</svg>
