<?xml version="1.0" encoding="UTF-8"?>
<svg width="305px" height="235px" viewBox="0 0 305 235" version="1.1" xmlns="http://www.w3.org/2000/svg" xmlns:xlink="http://www.w3.org/1999/xlink">
    <!-- Generator: Sketch 47.1 (45422) - http://www.bohemiancoding.com/sketch -->
    <title>Custom Preset</title>
    <desc>Created with Sketch.</desc>
    <defs></defs>
    <g id="Page-1" stroke="none" stroke-width="1" fill="none" fill-rule="evenodd">
        <g id="Custom-Preset">
            <path d="M103.474609,78.9267578 L108.191406,78.9267578 L108.191406,80 L102.155273,80 L102.155273,70.046875 L103.474609,70.046875 L103.474609,78.9267578 Z M114.056641,80 C113.983724,79.8541659 113.924479,79.5944029 113.878906,79.2207031 C113.291013,79.8313833 112.589197,80.1367188 111.773438,80.1367188 C111.044267,80.1367188 110.446129,79.9305034 109.979004,79.5180664 C109.511879,79.1056294 109.27832,78.5826855 109.27832,77.9492188 C109.27832,77.1790326 109.571123,76.5808941 110.156738,76.1547852 C110.742353,75.7286763 111.566075,75.515625 112.62793,75.515625 L113.858398,75.515625 L113.858398,74.9345703 C113.858398,74.4925108 113.726238,74.1404635 113.461914,73.878418 C113.19759,73.6163724 112.807945,73.4853516 112.292969,73.4853516 C111.841795,73.4853516 111.463543,73.5992827 111.158203,73.8271484 C110.852863,74.0550142 110.700195,74.3307275 110.700195,74.6542969 L109.428711,74.6542969 C109.428711,74.2851544 109.559732,73.9285499 109.821777,73.5844727 C110.083823,73.2403954 110.439288,72.9681 110.888184,72.7675781 C111.337079,72.5670563 111.830401,72.4667969 112.368164,72.4667969 C113.220382,72.4667969 113.888018,72.6798481 114.371094,73.105957 C114.854169,73.5320659 115.104818,74.1188114 115.123047,74.8662109 L115.123047,78.2705078 C115.123047,78.9495477 115.209635,79.4895813 115.382812,79.890625 L115.382812,80 L114.056641,80 Z M111.958008,79.0361328 C112.354494,79.0361328 112.730467,78.9335948 113.085938,78.7285156 C113.441408,78.5234365 113.698892,78.2568376 113.858398,77.9287109 L113.858398,76.4111328 L112.867188,76.4111328 C111.317701,76.4111328 110.542969,76.8645788 110.542969,77.7714844 C110.542969,78.1679707 110.675129,78.4778635 110.939453,78.7011719 C111.203777,78.9244803 111.543292,79.0361328 111.958008,79.0361328 Z M123.367188,76.3837891 C123.367188,77.514003 123.107424,78.4220343 122.587891,79.1079102 C122.068357,79.793786 121.371098,80.1367188 120.496094,80.1367188 C119.561844,80.1367188 118.839521,79.8063184 118.329102,79.1455078 L118.267578,80 L117.105469,80 L117.105469,69.5 L118.370117,69.5 L118.370117,73.4169922 C118.880536,72.7835255 119.584631,72.4667969 120.482422,72.4667969 C121.380213,72.4667969 122.085447,72.8063117 122.598145,73.4853516 C123.110842,74.1643914 123.367188,75.0940696 123.367188,76.2744141 L123.367188,76.3837891 Z M122.102539,76.2402344 C122.102539,75.3789019 121.9362,74.713544 121.603516,74.2441406 C121.270832,73.7747372 120.792321,73.5400391 120.167969,73.5400391 C119.33398,73.5400391 118.734702,73.927405 118.370117,74.7021484 L118.370117,77.9013672 C118.757489,78.6761106 119.361324,79.0634766 120.181641,79.0634766 C120.787763,79.0634766 121.259438,78.8287784 121.59668,78.359375 C121.933921,77.8899716 122.102539,77.1835985 122.102539,76.2402344 Z M128.029297,80.1367188 C127.026688,80.1367188 126.210941,79.8074577 125.582031,79.1489258 C124.953122,78.4903938 124.638672,77.609706 124.638672,76.5068359 L124.638672,76.2744141 C124.638672,75.5406864 124.778807,74.8855823 125.059082,74.309082 C125.339357,73.7325818 125.73128,73.2814144 126.234863,72.9555664 C126.738447,72.6297184 127.284177,72.4667969 127.87207,72.4667969 C128.833664,72.4667969 129.581052,72.7835255 130.114258,73.4169922 C130.647464,74.0504589 130.914062,74.9573509 130.914062,76.1376953 L130.914062,76.6640625 L125.90332,76.6640625 C125.92155,77.3932328 126.134601,77.9822569 126.54248,78.4311523 C126.95036,78.8800478 127.468747,79.1044922 128.097656,79.1044922 C128.544273,79.1044922 128.922524,79.0133473 129.232422,78.8310547 C129.542319,78.6487621 129.813475,78.4072281 130.045898,78.1064453 L130.818359,78.7080078 C130.198565,79.6604865 129.268886,80.1367188 128.029297,80.1367188 Z M127.87207,73.5058594 C127.361651,73.5058594 126.93327,73.6915672 126.586914,74.0629883 C126.240558,74.4344094 126.026368,74.9550748 125.944336,75.625 L129.649414,75.625 L129.649414,75.5292969 C129.612956,74.8867155 129.43978,74.3888364 129.129883,74.0356445 C128.819985,73.6824527 128.400719,73.5058594 127.87207,73.5058594 Z M133.750977,80 L132.486328,80 L132.486328,69.5 L133.750977,69.5 L133.750977,80 Z" id="Label" fill="#757575"></path>
            <path d="M157.474609,78.9267578 L162.191406,78.9267578 L162.191406,80 L156.155273,80 L156.155273,70.046875 L157.474609,70.046875 L157.474609,78.9267578 Z M163.155273,76.2333984 C163.155273,75.5087854 163.297687,74.8570992 163.58252,74.2783203 C163.867352,73.6995414 164.263832,73.2529313 164.771973,72.9384766 C165.280113,72.6240219 165.860023,72.4667969 166.511719,72.4667969 C167.518885,72.4667969 168.333493,72.8154262 168.955566,73.5126953 C169.57764,74.2099644 169.888672,75.137364 169.888672,76.2949219 L169.888672,76.3837891 C169.888672,77.1038447 169.750815,77.7498344 169.475098,78.3217773 C169.19938,78.8937203 168.805178,79.3391911 168.29248,79.6582031 C167.779783,79.9772151 167.190759,80.1367188 166.525391,80.1367188 C165.522781,80.1367188 164.710452,79.7880894 164.088379,79.0908203 C163.466305,78.3935512 163.155273,77.4707089 163.155273,76.3222656 L163.155273,76.2333984 Z M164.426758,76.3837891 C164.426758,77.2041057 164.617023,77.8626277 164.997559,78.359375 C165.378094,78.8561223 165.887367,79.1044922 166.525391,79.1044922 C167.167972,79.1044922 167.678384,78.8527043 168.056641,78.3491211 C168.434898,77.8455378 168.624023,77.140304 168.624023,76.2333984 C168.624023,75.4221965 168.43148,74.7648137 168.046387,74.2612305 C167.661294,73.7576472 167.149743,73.5058594 166.511719,73.5058594 C165.887367,73.5058594 165.383791,73.7542293 165.000977,74.2509766 C164.618162,74.7477238 164.426758,75.4586542 164.426758,76.3837891 Z M176.041016,80 C175.968099,79.8541659 175.908854,79.5944029 175.863281,79.2207031 C175.275388,79.8313833 174.573572,80.1367188 173.757812,80.1367188 C173.028642,80.1367188 172.430504,79.9305034 171.963379,79.5180664 C171.496254,79.1056294 171.262695,78.5826855 171.262695,77.9492188 C171.262695,77.1790326 171.555498,76.5808941 172.141113,76.1547852 C172.726728,75.7286763 173.55045,75.515625 174.612305,75.515625 L175.842773,75.515625 L175.842773,74.9345703 C175.842773,74.4925108 175.710613,74.1404635 175.446289,73.878418 C175.181965,73.6163724 174.79232,73.4853516 174.277344,73.4853516 C173.82617,73.4853516 173.447918,73.5992827 173.142578,73.8271484 C172.837238,74.0550142 172.68457,74.3307275 172.68457,74.6542969 L171.413086,74.6542969 C171.413086,74.2851544 171.544107,73.9285499 171.806152,73.5844727 C172.068198,73.2403954 172.423663,72.9681 172.872559,72.7675781 C173.321454,72.5670563 173.814776,72.4667969 174.352539,72.4667969 C175.204757,72.4667969 175.872393,72.6798481 176.355469,73.105957 C176.838544,73.5320659 177.089193,74.1188114 177.107422,74.8662109 L177.107422,78.2705078 C177.107422,78.9495477 177.19401,79.4895813 177.367188,79.890625 L177.367188,80 L176.041016,80 Z M173.942383,79.0361328 C174.338869,79.0361328 174.714842,78.9335948 175.070312,78.7285156 C175.425783,78.5234365 175.683267,78.2568376 175.842773,77.9287109 L175.842773,76.4111328 L174.851562,76.4111328 C173.302076,76.4111328 172.527344,76.8645788 172.527344,77.7714844 C172.527344,78.1679707 172.659504,78.4778635 172.923828,78.7011719 C173.188152,78.9244803 173.527667,79.0361328 173.942383,79.0361328 Z M178.782227,76.2402344 C178.782227,75.1054631 179.051104,74.1928745 179.588867,73.5024414 C180.12663,72.8120083 180.830725,72.4667969 181.701172,72.4667969 C182.567062,72.4667969 183.252927,72.7630179 183.758789,73.3554688 L183.758789,69.5 L185.023438,69.5 L185.023438,80 L183.861328,80 L183.799805,79.2070312 C183.293943,79.826826 182.589848,80.1367188 181.6875,80.1367188 C180.830725,80.1367188 180.132327,79.7858108 179.592285,79.0839844 C179.052243,78.3821579 178.782227,77.4661515 178.782227,76.3359375 L178.782227,76.2402344 Z M180.046875,76.3837891 C180.046875,77.2223349 180.22005,77.8785784 180.566406,78.3525391 C180.912762,78.8264998 181.391273,79.0634766 182.001953,79.0634766 C182.80404,79.0634766 183.389647,78.7034541 183.758789,77.9833984 L183.758789,74.5859375 C183.380532,73.8886684 182.799483,73.5400391 182.015625,73.5400391 C181.39583,73.5400391 180.912762,73.7792945 180.566406,74.2578125 C180.22005,74.7363305 180.046875,75.4449823 180.046875,76.3837891 Z M188.359375,80 L187.094727,80 L187.094727,72.6035156 L188.359375,72.6035156 L188.359375,80 Z M186.992188,70.6416016 C186.992188,70.4365224 187.05485,70.2633471 187.180176,70.1220703 C187.305502,69.9807936 187.49121,69.9101562 187.737305,69.9101562 C187.9834,69.9101562 188.170247,69.9807936 188.297852,70.1220703 C188.425456,70.2633471 188.489258,70.4365224 188.489258,70.6416016 C188.489258,70.8466807 188.425456,71.0175774 188.297852,71.1542969 C188.170247,71.2910163 187.9834,71.359375 187.737305,71.359375 C187.49121,71.359375 187.305502,71.2910163 187.180176,71.1542969 C187.05485,71.0175774 186.992188,70.8466807 186.992188,70.6416016 Z M191.579102,72.6035156 L191.620117,73.5332031 C192.185224,72.8222621 192.923498,72.4667969 193.834961,72.4667969 C195.39812,72.4667969 196.186523,73.348624 196.200195,75.1123047 L196.200195,80 L194.935547,80 L194.935547,75.1054688 C194.93099,74.572263 194.809083,74.1780612 194.569824,73.9228516 C194.330565,73.667642 193.95801,73.5400391 193.452148,73.5400391 C193.04199,73.5400391 192.681968,73.649413 192.37207,73.8681641 C192.062173,74.0869152 191.820639,74.3740217 191.647461,74.7294922 L191.647461,80 L190.382812,80 L190.382812,72.6035156 L191.579102,72.6035156 Z M197.806641,76.2402344 C197.806641,75.0872338 198.07324,74.170088 198.606445,73.4887695 C199.139651,72.807451 199.846024,72.4667969 200.725586,72.4667969 C201.627934,72.4667969 202.332029,72.7858041 202.837891,73.4238281 L202.899414,72.6035156 L204.054688,72.6035156 L204.054688,79.8222656 C204.054688,80.7793017 203.770999,81.5335259 203.203613,82.0849609 C202.636228,82.636396 201.874028,82.9121094 200.916992,82.9121094 C200.383786,82.9121094 199.861982,82.7981782 199.351562,82.5703125 C198.841143,82.3424468 198.451499,82.0302754 198.182617,81.6337891 L198.838867,80.875 C199.381188,81.5449252 200.044267,81.8798828 200.828125,81.8798828 C201.443362,81.8798828 201.923013,81.7067075 202.26709,81.3603516 C202.611167,81.0139957 202.783203,80.5263703 202.783203,79.8974609 L202.783203,79.2617188 C202.277341,79.845055 201.586918,80.1367188 200.711914,80.1367188 C199.846024,80.1367188 199.145348,79.7880894 198.609863,79.0908203 C198.074379,78.3935512 197.806641,77.4433654 197.806641,76.2402344 Z M199.078125,76.3837891 C199.078125,77.2177776 199.249022,77.8728817 199.59082,78.3491211 C199.932619,78.8253605 200.41113,79.0634766 201.026367,79.0634766 C201.823897,79.0634766 202.409503,78.7011755 202.783203,77.9765625 L202.783203,74.5996094 C202.395831,73.8932256 201.814783,73.5400391 201.040039,73.5400391 C200.424802,73.5400391 199.944012,73.7792945 199.597656,74.2578125 C199.2513,74.7363305 199.078125,75.4449823 199.078125,76.3837891 Z M206.016602,79.3369141 C206.016602,79.118163 206.081542,78.9358731 206.211426,78.7900391 C206.341309,78.644205 206.536132,78.5712891 206.795898,78.5712891 C207.055665,78.5712891 207.252766,78.644205 207.387207,78.7900391 C207.521648,78.9358731 207.588867,79.118163 207.588867,79.3369141 C207.588867,79.5465505 207.521648,79.7220045 207.387207,79.8632812 C207.252766,80.004558 207.055665,80.0751953 206.795898,80.0751953 C206.536132,80.0751953 206.341309,80.004558 206.211426,79.8632812 C206.081542,79.7220045 206.016602,79.5465505 206.016602,79.3369141 Z M209.003906,79.3369141 C209.003906,79.118163 209.068847,78.9358731 209.19873,78.7900391 C209.328614,78.644205 209.523436,78.5712891 209.783203,78.5712891 C210.04297,78.5712891 210.240071,78.644205 210.374512,78.7900391 C210.508952,78.9358731 210.576172,79.118163 210.576172,79.3369141 C210.576172,79.5465505 210.508952,79.7220045 210.374512,79.8632812 C210.240071,80.004558 210.04297,80.0751953 209.783203,80.0751953 C209.523436,80.0751953 209.328614,80.004558 209.19873,79.8632812 C209.068847,79.7220045 209.003906,79.5465505 209.003906,79.3369141 Z M211.84082,79.3369141 C211.84082,79.118163 211.905761,78.9358731 212.035645,78.7900391 C212.165528,78.644205 212.36035,78.5712891 212.620117,78.5712891 C212.879884,78.5712891 213.076985,78.644205 213.211426,78.7900391 C213.345867,78.9358731 213.413086,79.118163 213.413086,79.3369141 C213.413086,79.5465505 213.345867,79.7220045 213.211426,79.8632812 C213.076985,80.004558 212.879884,80.0751953 212.620117,80.0751953 C212.36035,80.0751953 212.165528,80.004558 212.035645,79.8632812 C211.905761,79.7220045 211.84082,79.5465505 211.84082,79.3369141 Z" id="Loading…" fill="#333333"></path>
            <path d="M103.474609,106.926758 L108.191406,106.926758 L108.191406,108 L102.155273,108 L102.155273,98.046875 L103.474609,98.046875 L103.474609,106.926758 Z M114.056641,108 C113.983724,107.854166 113.924479,107.594403 113.878906,107.220703 C113.291013,107.831383 112.589197,108.136719 111.773438,108.136719 C111.044267,108.136719 110.446129,107.930503 109.979004,107.518066 C109.511879,107.105629 109.27832,106.582685 109.27832,105.949219 C109.27832,105.179033 109.571123,104.580894 110.156738,104.154785 C110.742353,103.728676 111.566075,103.515625 112.62793,103.515625 L113.858398,103.515625 L113.858398,102.93457 C113.858398,102.492511 113.726238,102.140464 113.461914,101.878418 C113.19759,101.616372 112.807945,101.485352 112.292969,101.485352 C111.841795,101.485352 111.463543,101.599283 111.158203,101.827148 C110.852863,102.055014 110.700195,102.330728 110.700195,102.654297 L109.428711,102.654297 C109.428711,102.285154 109.559732,101.92855 109.821777,101.584473 C110.083823,101.240395 110.439288,100.9681 110.888184,100.767578 C111.337079,100.567056 111.830401,100.466797 112.368164,100.466797 C113.220382,100.466797 113.888018,100.679848 114.371094,101.105957 C114.854169,101.532066 115.104818,102.118811 115.123047,102.866211 L115.123047,106.270508 C115.123047,106.949548 115.209635,107.489581 115.382812,107.890625 L115.382812,108 L114.056641,108 Z M111.958008,107.036133 C112.354494,107.036133 112.730467,106.933595 113.085938,106.728516 C113.441408,106.523436 113.698892,106.256838 113.858398,105.928711 L113.858398,104.411133 L112.867188,104.411133 C111.317701,104.411133 110.542969,104.864579 110.542969,105.771484 C110.542969,106.167971 110.675129,106.477863 110.939453,106.701172 C111.203777,106.92448 111.543292,107.036133 111.958008,107.036133 Z M123.367188,104.383789 C123.367188,105.514003 123.107424,106.422034 122.587891,107.10791 C122.068357,107.793786 121.371098,108.136719 120.496094,108.136719 C119.561844,108.136719 118.839521,107.806318 118.329102,107.145508 L118.267578,108 L117.105469,108 L117.105469,97.5 L118.370117,97.5 L118.370117,101.416992 C118.880536,100.783525 119.584631,100.466797 120.482422,100.466797 C121.380213,100.466797 122.085447,100.806312 122.598145,101.485352 C123.110842,102.164391 123.367188,103.09407 123.367188,104.274414 L123.367188,104.383789 Z M122.102539,104.240234 C122.102539,103.378902 121.9362,102.713544 121.603516,102.244141 C121.270832,101.774737 120.792321,101.540039 120.167969,101.540039 C119.33398,101.540039 118.734702,101.927405 118.370117,102.702148 L118.370117,105.901367 C118.757489,106.676111 119.361324,107.063477 120.181641,107.063477 C120.787763,107.063477 121.259438,106.828778 121.59668,106.359375 C121.933921,105.889972 122.102539,105.183598 122.102539,104.240234 Z M128.029297,108.136719 C127.026688,108.136719 126.210941,107.807458 125.582031,107.148926 C124.953122,106.490394 124.638672,105.609706 124.638672,104.506836 L124.638672,104.274414 C124.638672,103.540686 124.778807,102.885582 125.059082,102.309082 C125.339357,101.732582 125.73128,101.281414 126.234863,100.955566 C126.738447,100.629718 127.284177,100.466797 127.87207,100.466797 C128.833664,100.466797 129.581052,100.783525 130.114258,101.416992 C130.647464,102.050459 130.914062,102.957351 130.914062,104.137695 L130.914062,104.664062 L125.90332,104.664062 C125.92155,105.393233 126.134601,105.982257 126.54248,106.431152 C126.95036,106.880048 127.468747,107.104492 128.097656,107.104492 C128.544273,107.104492 128.922524,107.013347 129.232422,106.831055 C129.542319,106.648762 129.813475,106.407228 130.045898,106.106445 L130.818359,106.708008 C130.198565,107.660487 129.268886,108.136719 128.029297,108.136719 Z M127.87207,101.505859 C127.361651,101.505859 126.93327,101.691567 126.586914,102.062988 C126.240558,102.434409 126.026368,102.955075 125.944336,103.625 L129.649414,103.625 L129.649414,103.529297 C129.612956,102.886716 129.43978,102.388836 129.129883,102.035645 C128.819985,101.682453 128.400719,101.505859 127.87207,101.505859 Z M133.750977,108 L132.486328,108 L132.486328,97.5 L133.750977,97.5 L133.750977,108 Z" id="Label" fill="#757575"></path>
            <path d="M157.474609,106.926758 L162.191406,106.926758 L162.191406,108 L156.155273,108 L156.155273,98.046875 L157.474609,98.046875 L157.474609,106.926758 Z M163.155273,104.233398 C163.155273,103.508785 163.297687,102.857099 163.58252,102.27832 C163.867352,101.699541 164.263832,101.252931 164.771973,100.938477 C165.280113,100.624022 165.860023,100.466797 166.511719,100.466797 C167.518885,100.466797 168.333493,100.815426 168.955566,101.512695 C169.57764,102.209964 169.888672,103.137364 169.888672,104.294922 L169.888672,104.383789 C169.888672,105.103845 169.750815,105.749834 169.475098,106.321777 C169.19938,106.89372 168.805178,107.339191 168.29248,107.658203 C167.779783,107.977215 167.190759,108.136719 166.525391,108.136719 C165.522781,108.136719 164.710452,107.788089 164.088379,107.09082 C163.466305,106.393551 163.155273,105.470709 163.155273,104.322266 L163.155273,104.233398 Z M164.426758,104.383789 C164.426758,105.204106 164.617023,105.862628 164.997559,106.359375 C165.378094,106.856122 165.887367,107.104492 166.525391,107.104492 C167.167972,107.104492 167.678384,106.852704 168.056641,106.349121 C168.434898,105.845538 168.624023,105.140304 168.624023,104.233398 C168.624023,103.422196 168.43148,102.764814 168.046387,102.26123 C167.661294,101.757647 167.149743,101.505859 166.511719,101.505859 C165.887367,101.505859 165.383791,101.754229 165.000977,102.250977 C164.618162,102.747724 164.426758,103.458654 164.426758,104.383789 Z M176.041016,108 C175.968099,107.854166 175.908854,107.594403 175.863281,107.220703 C175.275388,107.831383 174.573572,108.136719 173.757812,108.136719 C173.028642,108.136719 172.430504,107.930503 171.963379,107.518066 C171.496254,107.105629 171.262695,106.582685 171.262695,105.949219 C171.262695,105.179033 171.555498,104.580894 172.141113,104.154785 C172.726728,103.728676 173.55045,103.515625 174.612305,103.515625 L175.842773,103.515625 L175.842773,102.93457 C175.842773,102.492511 175.710613,102.140464 175.446289,101.878418 C175.181965,101.616372 174.79232,101.485352 174.277344,101.485352 C173.82617,101.485352 173.447918,101.599283 173.142578,101.827148 C172.837238,102.055014 172.68457,102.330728 172.68457,102.654297 L171.413086,102.654297 C171.413086,102.285154 171.544107,101.92855 171.806152,101.584473 C172.068198,101.240395 172.423663,100.9681 172.872559,100.767578 C173.321454,100.567056 173.814776,100.466797 174.352539,100.466797 C175.204757,100.466797 175.872393,100.679848 176.355469,101.105957 C176.838544,101.532066 177.089193,102.118811 177.107422,102.866211 L177.107422,106.270508 C177.107422,106.949548 177.19401,107.489581 177.367188,107.890625 L177.367188,108 L176.041016,108 Z M173.942383,107.036133 C174.338869,107.036133 174.714842,106.933595 175.070312,106.728516 C175.425783,106.523436 175.683267,106.256838 175.842773,105.928711 L175.842773,104.411133 L174.851562,104.411133 C173.302076,104.411133 172.527344,104.864579 172.527344,105.771484 C172.527344,106.167971 172.659504,106.477863 172.923828,106.701172 C173.188152,106.92448 173.527667,107.036133 173.942383,107.036133 Z M178.782227,104.240234 C178.782227,103.105463 179.051104,102.192875 179.588867,101.502441 C180.12663,100.812008 180.830725,100.466797 181.701172,100.466797 C182.567062,100.466797 183.252927,100.763018 183.758789,101.355469 L183.758789,97.5 L185.023438,97.5 L185.023438,108 L183.861328,108 L183.799805,107.207031 C183.293943,107.826826 182.589848,108.136719 181.6875,108.136719 C180.830725,108.136719 180.132327,107.785811 179.592285,107.083984 C179.052243,106.382158 178.782227,105.466151 178.782227,104.335938 L178.782227,104.240234 Z M180.046875,104.383789 C180.046875,105.222335 180.22005,105.878578 180.566406,106.352539 C180.912762,106.8265 181.391273,107.063477 182.001953,107.063477 C182.80404,107.063477 183.389647,106.703454 183.758789,105.983398 L183.758789,102.585938 C183.380532,101.888668 182.799483,101.540039 182.015625,101.540039 C181.39583,101.540039 180.912762,101.779294 180.566406,102.257812 C180.22005,102.736331 180.046875,103.444982 180.046875,104.383789 Z M188.359375,108 L187.094727,108 L187.094727,100.603516 L188.359375,100.603516 L188.359375,108 Z M186.992188,98.6416016 C186.992188,98.4365224 187.05485,98.2633471 187.180176,98.1220703 C187.305502,97.9807936 187.49121,97.9101562 187.737305,97.9101562 C187.9834,97.9101562 188.170247,97.9807936 188.297852,98.1220703 C188.425456,98.2633471 188.489258,98.4365224 188.489258,98.6416016 C188.489258,98.8466807 188.425456,99.0175774 188.297852,99.1542969 C188.170247,99.2910163 187.9834,99.359375 187.737305,99.359375 C187.49121,99.359375 187.305502,99.2910163 187.180176,99.1542969 C187.05485,99.0175774 186.992188,98.8466807 186.992188,98.6416016 Z M191.579102,100.603516 L191.620117,101.533203 C192.185224,100.822262 192.923498,100.466797 193.834961,100.466797 C195.39812,100.466797 196.186523,101.348624 196.200195,103.112305 L196.200195,108 L194.935547,108 L194.935547,103.105469 C194.93099,102.572263 194.809083,102.178061 194.569824,101.922852 C194.330565,101.667642 193.95801,101.540039 193.452148,101.540039 C193.04199,101.540039 192.681968,101.649413 192.37207,101.868164 C192.062173,102.086915 191.820639,102.374022 191.647461,102.729492 L191.647461,108 L190.382812,108 L190.382812,100.603516 L191.579102,100.603516 Z M197.806641,104.240234 C197.806641,103.087234 198.07324,102.170088 198.606445,101.48877 C199.139651,100.807451 199.846024,100.466797 200.725586,100.466797 C201.627934,100.466797 202.332029,100.785804 202.837891,101.423828 L202.899414,100.603516 L204.054688,100.603516 L204.054688,107.822266 C204.054688,108.779302 203.770999,109.533526 203.203613,110.084961 C202.636228,110.636396 201.874028,110.912109 200.916992,110.912109 C200.383786,110.912109 199.861982,110.798178 199.351562,110.570312 C198.841143,110.342447 198.451499,110.030275 198.182617,109.633789 L198.838867,108.875 C199.381188,109.544925 200.044267,109.879883 200.828125,109.879883 C201.443362,109.879883 201.923013,109.706707 202.26709,109.360352 C202.611167,109.013996 202.783203,108.52637 202.783203,107.897461 L202.783203,107.261719 C202.277341,107.845055 201.586918,108.136719 200.711914,108.136719 C199.846024,108.136719 199.145348,107.788089 198.609863,107.09082 C198.074379,106.393551 197.806641,105.443365 197.806641,104.240234 Z M199.078125,104.383789 C199.078125,105.217778 199.249022,105.872882 199.59082,106.349121 C199.932619,106.82536 200.41113,107.063477 201.026367,107.063477 C201.823897,107.063477 202.409503,106.701175 202.783203,105.976562 L202.783203,102.599609 C202.395831,101.893226 201.814783,101.540039 201.040039,101.540039 C200.424802,101.540039 199.944012,101.779294 199.597656,102.257812 C199.2513,102.736331 199.078125,103.444982 199.078125,104.383789 Z M206.016602,107.336914 C206.016602,107.118163 206.081542,106.935873 206.211426,106.790039 C206.341309,106.644205 206.536132,106.571289 206.795898,106.571289 C207.055665,106.571289 207.252766,106.644205 207.387207,106.790039 C207.521648,106.935873 207.588867,107.118163 207.588867,107.336914 C207.588867,107.546551 207.521648,107.722005 207.387207,107.863281 C207.252766,108.004558 207.055665,108.075195 206.795898,108.075195 C206.536132,108.075195 206.341309,108.004558 206.211426,107.863281 C206.081542,107.722005 206.016602,107.546551 206.016602,107.336914 Z M209.003906,107.336914 C209.003906,107.118163 209.068847,106.935873 209.19873,106.790039 C209.328614,106.644205 209.523436,106.571289 209.783203,106.571289 C210.04297,106.571289 210.240071,106.644205 210.374512,106.790039 C210.508952,106.935873 210.576172,107.118163 210.576172,107.336914 C210.576172,107.546551 210.508952,107.722005 210.374512,107.863281 C210.240071,108.004558 210.04297,108.075195 209.783203,108.075195 C209.523436,108.075195 209.328614,108.004558 209.19873,107.863281 C209.068847,107.722005 209.003906,107.546551 209.003906,107.336914 Z M211.84082,107.336914 C211.84082,107.118163 211.905761,106.935873 212.035645,106.790039 C212.165528,106.644205 212.36035,106.571289 212.620117,106.571289 C212.879884,106.571289 213.076985,106.644205 213.211426,106.790039 C213.345867,106.935873 213.413086,107.118163 213.413086,107.336914 C213.413086,107.546551 213.345867,107.722005 213.211426,107.863281 C213.076985,108.004558 212.879884,108.075195 212.620117,108.075195 C212.36035,108.075195 212.165528,108.004558 212.035645,107.863281 C211.905761,107.722005 211.84082,107.546551 211.84082,107.336914 Z" id="Loading…" fill="#333333"></path>
            <path d="M103.474609,134.926758 L108.191406,134.926758 L108.191406,136 L102.155273,136 L102.155273,126.046875 L103.474609,126.046875 L103.474609,134.926758 Z M114.056641,136 C113.983724,135.854166 113.924479,135.594403 113.878906,135.220703 C113.291013,135.831383 112.589197,136.136719 111.773438,136.136719 C111.044267,136.136719 110.446129,135.930503 109.979004,135.518066 C109.511879,135.105629 109.27832,134.582685 109.27832,133.949219 C109.27832,133.179033 109.571123,132.580894 110.156738,132.154785 C110.742353,131.728676 111.566075,131.515625 112.62793,131.515625 L113.858398,131.515625 L113.858398,130.93457 C113.858398,130.492511 113.726238,130.140464 113.461914,129.878418 C113.19759,129.616372 112.807945,129.485352 112.292969,129.485352 C111.841795,129.485352 111.463543,129.599283 111.158203,129.827148 C110.852863,130.055014 110.700195,130.330728 110.700195,130.654297 L109.428711,130.654297 C109.428711,130.285154 109.559732,129.92855 109.821777,129.584473 C110.083823,129.240395 110.439288,128.9681 110.888184,128.767578 C111.337079,128.567056 111.830401,128.466797 112.368164,128.466797 C113.220382,128.466797 113.888018,128.679848 114.371094,129.105957 C114.854169,129.532066 115.104818,130.118811 115.123047,130.866211 L115.123047,134.270508 C115.123047,134.949548 115.209635,135.489581 115.382812,135.890625 L115.382812,136 L114.056641,136 Z M111.958008,135.036133 C112.354494,135.036133 112.730467,134.933595 113.085938,134.728516 C113.441408,134.523436 113.698892,134.256838 113.858398,133.928711 L113.858398,132.411133 L112.867188,132.411133 C111.317701,132.411133 110.542969,132.864579 110.542969,133.771484 C110.542969,134.167971 110.675129,134.477863 110.939453,134.701172 C111.203777,134.92448 111.543292,135.036133 111.958008,135.036133 Z M123.367188,132.383789 C123.367188,133.514003 123.107424,134.422034 122.587891,135.10791 C122.068357,135.793786 121.371098,136.136719 120.496094,136.136719 C119.561844,136.136719 118.839521,135.806318 118.329102,135.145508 L118.267578,136 L117.105469,136 L117.105469,125.5 L118.370117,125.5 L118.370117,129.416992 C118.880536,128.783525 119.584631,128.466797 120.482422,128.466797 C121.380213,128.466797 122.085447,128.806312 122.598145,129.485352 C123.110842,130.164391 123.367188,131.09407 123.367188,132.274414 L123.367188,132.383789 Z M122.102539,132.240234 C122.102539,131.378902 121.9362,130.713544 121.603516,130.244141 C121.270832,129.774737 120.792321,129.540039 120.167969,129.540039 C119.33398,129.540039 118.734702,129.927405 118.370117,130.702148 L118.370117,133.901367 C118.757489,134.676111 119.361324,135.063477 120.181641,135.063477 C120.787763,135.063477 121.259438,134.828778 121.59668,134.359375 C121.933921,133.889972 122.102539,133.183598 122.102539,132.240234 Z M128.029297,136.136719 C127.026688,136.136719 126.210941,135.807458 125.582031,135.148926 C124.953122,134.490394 124.638672,133.609706 124.638672,132.506836 L124.638672,132.274414 C124.638672,131.540686 124.778807,130.885582 125.059082,130.309082 C125.339357,129.732582 125.73128,129.281414 126.234863,128.955566 C126.738447,128.629718 127.284177,128.466797 127.87207,128.466797 C128.833664,128.466797 129.581052,128.783525 130.114258,129.416992 C130.647464,130.050459 130.914062,130.957351 130.914062,132.137695 L130.914062,132.664062 L125.90332,132.664062 C125.92155,133.393233 126.134601,133.982257 126.54248,134.431152 C126.95036,134.880048 127.468747,135.104492 128.097656,135.104492 C128.544273,135.104492 128.922524,135.013347 129.232422,134.831055 C129.542319,134.648762 129.813475,134.407228 130.045898,134.106445 L130.818359,134.708008 C130.198565,135.660487 129.268886,136.136719 128.029297,136.136719 Z M127.87207,129.505859 C127.361651,129.505859 126.93327,129.691567 126.586914,130.062988 C126.240558,130.434409 126.026368,130.955075 125.944336,131.625 L129.649414,131.625 L129.649414,131.529297 C129.612956,130.886716 129.43978,130.388836 129.129883,130.035645 C128.819985,129.682453 128.400719,129.505859 127.87207,129.505859 Z M133.750977,136 L132.486328,136 L132.486328,125.5 L133.750977,125.5 L133.750977,136 Z" id="Label" fill="#757575"></path>
            <path d="M157.474609,134.926758 L162.191406,134.926758 L162.191406,136 L156.155273,136 L156.155273,126.046875 L157.474609,126.046875 L157.474609,134.926758 Z M163.155273,132.233398 C163.155273,131.508785 163.297687,130.857099 163.58252,130.27832 C163.867352,129.699541 164.263832,129.252931 164.771973,128.938477 C165.280113,128.624022 165.860023,128.466797 166.511719,128.466797 C167.518885,128.466797 168.333493,128.815426 168.955566,129.512695 C169.57764,130.209964 169.888672,131.137364 169.888672,132.294922 L169.888672,132.383789 C169.888672,133.103845 169.750815,133.749834 169.475098,134.321777 C169.19938,134.89372 168.805178,135.339191 168.29248,135.658203 C167.779783,135.977215 167.190759,136.136719 166.525391,136.136719 C165.522781,136.136719 164.710452,135.788089 164.088379,135.09082 C163.466305,134.393551 163.155273,133.470709 163.155273,132.322266 L163.155273,132.233398 Z M164.426758,132.383789 C164.426758,133.204106 164.617023,133.862628 164.997559,134.359375 C165.378094,134.856122 165.887367,135.104492 166.525391,135.104492 C167.167972,135.104492 167.678384,134.852704 168.056641,134.349121 C168.434898,133.845538 168.624023,133.140304 168.624023,132.233398 C168.624023,131.422196 168.43148,130.764814 168.046387,130.26123 C167.661294,129.757647 167.149743,129.505859 166.511719,129.505859 C165.887367,129.505859 165.383791,129.754229 165.000977,130.250977 C164.618162,130.747724 164.426758,131.458654 164.426758,132.383789 Z M176.041016,136 C175.968099,135.854166 175.908854,135.594403 175.863281,135.220703 C175.275388,135.831383 174.573572,136.136719 173.757812,136.136719 C173.028642,136.136719 172.430504,135.930503 171.963379,135.518066 C171.496254,135.105629 171.262695,134.582685 171.262695,133.949219 C171.262695,133.179033 171.555498,132.580894 172.141113,132.154785 C172.726728,131.728676 173.55045,131.515625 174.612305,131.515625 L175.842773,131.515625 L175.842773,130.93457 C175.842773,130.492511 175.710613,130.140464 175.446289,129.878418 C175.181965,129.616372 174.79232,129.485352 174.277344,129.485352 C173.82617,129.485352 173.447918,129.599283 173.142578,129.827148 C172.837238,130.055014 172.68457,130.330728 172.68457,130.654297 L171.413086,130.654297 C171.413086,130.285154 171.544107,129.92855 171.806152,129.584473 C172.068198,129.240395 172.423663,128.9681 172.872559,128.767578 C173.321454,128.567056 173.814776,128.466797 174.352539,128.466797 C175.204757,128.466797 175.872393,128.679848 176.355469,129.105957 C176.838544,129.532066 177.089193,130.118811 177.107422,130.866211 L177.107422,134.270508 C177.107422,134.949548 177.19401,135.489581 177.367188,135.890625 L177.367188,136 L176.041016,136 Z M173.942383,135.036133 C174.338869,135.036133 174.714842,134.933595 175.070312,134.728516 C175.425783,134.523436 175.683267,134.256838 175.842773,133.928711 L175.842773,132.411133 L174.851562,132.411133 C173.302076,132.411133 172.527344,132.864579 172.527344,133.771484 C172.527344,134.167971 172.659504,134.477863 172.923828,134.701172 C173.188152,134.92448 173.527667,135.036133 173.942383,135.036133 Z M178.782227,132.240234 C178.782227,131.105463 179.051104,130.192875 179.588867,129.502441 C180.12663,128.812008 180.830725,128.466797 181.701172,128.466797 C182.567062,128.466797 183.252927,128.763018 183.758789,129.355469 L183.758789,125.5 L185.023438,125.5 L185.023438,136 L183.861328,136 L183.799805,135.207031 C183.293943,135.826826 182.589848,136.136719 181.6875,136.136719 C180.830725,136.136719 180.132327,135.785811 179.592285,135.083984 C179.052243,134.382158 178.782227,133.466151 178.782227,132.335938 L178.782227,132.240234 Z M180.046875,132.383789 C180.046875,133.222335 180.22005,133.878578 180.566406,134.352539 C180.912762,134.8265 181.391273,135.063477 182.001953,135.063477 C182.80404,135.063477 183.389647,134.703454 183.758789,133.983398 L183.758789,130.585938 C183.380532,129.888668 182.799483,129.540039 182.015625,129.540039 C181.39583,129.540039 180.912762,129.779294 180.566406,130.257812 C180.22005,130.736331 180.046875,131.444982 180.046875,132.383789 Z M188.359375,136 L187.094727,136 L187.094727,128.603516 L188.359375,128.603516 L188.359375,136 Z M186.992188,126.641602 C186.992188,126.436522 187.05485,126.263347 187.180176,126.12207 C187.305502,125.980794 187.49121,125.910156 187.737305,125.910156 C187.9834,125.910156 188.170247,125.980794 188.297852,126.12207 C188.425456,126.263347 188.489258,126.436522 188.489258,126.641602 C188.489258,126.846681 188.425456,127.017577 188.297852,127.154297 C188.170247,127.291016 187.9834,127.359375 187.737305,127.359375 C187.49121,127.359375 187.305502,127.291016 187.180176,127.154297 C187.05485,127.017577 186.992188,126.846681 186.992188,126.641602 Z M191.579102,128.603516 L191.620117,129.533203 C192.185224,128.822262 192.923498,128.466797 193.834961,128.466797 C195.39812,128.466797 196.186523,129.348624 196.200195,131.112305 L196.200195,136 L194.935547,136 L194.935547,131.105469 C194.93099,130.572263 194.809083,130.178061 194.569824,129.922852 C194.330565,129.667642 193.95801,129.540039 193.452148,129.540039 C193.04199,129.540039 192.681968,129.649413 192.37207,129.868164 C192.062173,130.086915 191.820639,130.374022 191.647461,130.729492 L191.647461,136 L190.382812,136 L190.382812,128.603516 L191.579102,128.603516 Z M197.806641,132.240234 C197.806641,131.087234 198.07324,130.170088 198.606445,129.48877 C199.139651,128.807451 199.846024,128.466797 200.725586,128.466797 C201.627934,128.466797 202.332029,128.785804 202.837891,129.423828 L202.899414,128.603516 L204.054688,128.603516 L204.054688,135.822266 C204.054688,136.779302 203.770999,137.533526 203.203613,138.084961 C202.636228,138.636396 201.874028,138.912109 200.916992,138.912109 C200.383786,138.912109 199.861982,138.798178 199.351562,138.570312 C198.841143,138.342447 198.451499,138.030275 198.182617,137.633789 L198.838867,136.875 C199.381188,137.544925 200.044267,137.879883 200.828125,137.879883 C201.443362,137.879883 201.923013,137.706707 202.26709,137.360352 C202.611167,137.013996 202.783203,136.52637 202.783203,135.897461 L202.783203,135.261719 C202.277341,135.845055 201.586918,136.136719 200.711914,136.136719 C199.846024,136.136719 199.145348,135.788089 198.609863,135.09082 C198.074379,134.393551 197.806641,133.443365 197.806641,132.240234 Z M199.078125,132.383789 C199.078125,133.217778 199.249022,133.872882 199.59082,134.349121 C199.932619,134.82536 200.41113,135.063477 201.026367,135.063477 C201.823897,135.063477 202.409503,134.701175 202.783203,133.976562 L202.783203,130.599609 C202.395831,129.893226 201.814783,129.540039 201.040039,129.540039 C200.424802,129.540039 199.944012,129.779294 199.597656,130.257812 C199.2513,130.736331 199.078125,131.444982 199.078125,132.383789 Z M206.016602,135.336914 C206.016602,135.118163 206.081542,134.935873 206.211426,134.790039 C206.341309,134.644205 206.536132,134.571289 206.795898,134.571289 C207.055665,134.571289 207.252766,134.644205 207.387207,134.790039 C207.521648,134.935873 207.588867,135.118163 207.588867,135.336914 C207.588867,135.546551 207.521648,135.722005 207.387207,135.863281 C207.252766,136.004558 207.055665,136.075195 206.795898,136.075195 C206.536132,136.075195 206.341309,136.004558 206.211426,135.863281 C206.081542,135.722005 206.016602,135.546551 206.016602,135.336914 Z M209.003906,135.336914 C209.003906,135.118163 209.068847,134.935873 209.19873,134.790039 C209.328614,134.644205 209.523436,134.571289 209.783203,134.571289 C210.04297,134.571289 210.240071,134.644205 210.374512,134.790039 C210.508952,134.935873 210.576172,135.118163 210.576172,135.336914 C210.576172,135.546551 210.508952,135.722005 210.374512,135.863281 C210.240071,136.004558 210.04297,136.075195 209.783203,136.075195 C209.523436,136.075195 209.328614,136.004558 209.19873,135.863281 C209.068847,135.722005 209.003906,135.546551 209.003906,135.336914 Z M211.84082,135.336914 C211.84082,135.118163 211.905761,134.935873 212.035645,134.790039 C212.165528,134.644205 212.36035,134.571289 212.620117,134.571289 C212.879884,134.571289 213.076985,134.644205 213.211426,134.790039 C213.345867,134.935873 213.413086,135.118163 213.413086,135.336914 C213.413086,135.546551 213.345867,135.722005 213.211426,135.863281 C213.076985,136.004558 212.879884,136.075195 212.620117,136.075195 C212.36035,136.075195 212.165528,136.004558 212.035645,135.863281 C211.905761,135.722005 211.84082,135.546551 211.84082,135.336914 Z" id="Loading…" fill="#333333"></path>
            <path d="M103.474609,162.926758 L108.191406,162.926758 L108.191406,164 L102.155273,164 L102.155273,154.046875 L103.474609,154.046875 L103.474609,162.926758 Z M114.056641,164 C113.983724,163.854166 113.924479,163.594403 113.878906,163.220703 C113.291013,163.831383 112.589197,164.136719 111.773438,164.136719 C111.044267,164.136719 110.446129,163.930503 109.979004,163.518066 C109.511879,163.105629 109.27832,162.582685 109.27832,161.949219 C109.27832,161.179033 109.571123,160.580894 110.156738,160.154785 C110.742353,159.728676 111.566075,159.515625 112.62793,159.515625 L113.858398,159.515625 L113.858398,158.93457 C113.858398,158.492511 113.726238,158.140464 113.461914,157.878418 C113.19759,157.616372 112.807945,157.485352 112.292969,157.485352 C111.841795,157.485352 111.463543,157.599283 111.158203,157.827148 C110.852863,158.055014 110.700195,158.330728 110.700195,158.654297 L109.428711,158.654297 C109.428711,158.285154 109.559732,157.92855 109.821777,157.584473 C110.083823,157.240395 110.439288,156.9681 110.888184,156.767578 C111.337079,156.567056 111.830401,156.466797 112.368164,156.466797 C113.220382,156.466797 113.888018,156.679848 114.371094,157.105957 C114.854169,157.532066 115.104818,158.118811 115.123047,158.866211 L115.123047,162.270508 C115.123047,162.949548 115.209635,163.489581 115.382812,163.890625 L115.382812,164 L114.056641,164 Z M111.958008,163.036133 C112.354494,163.036133 112.730467,162.933595 113.085938,162.728516 C113.441408,162.523436 113.698892,162.256838 113.858398,161.928711 L113.858398,160.411133 L112.867188,160.411133 C111.317701,160.411133 110.542969,160.864579 110.542969,161.771484 C110.542969,162.167971 110.675129,162.477863 110.939453,162.701172 C111.203777,162.92448 111.543292,163.036133 111.958008,163.036133 Z M123.367188,160.383789 C123.367188,161.514003 123.107424,162.422034 122.587891,163.10791 C122.068357,163.793786 121.371098,164.136719 120.496094,164.136719 C119.561844,164.136719 118.839521,163.806318 118.329102,163.145508 L118.267578,164 L117.105469,164 L117.105469,153.5 L118.370117,153.5 L118.370117,157.416992 C118.880536,156.783525 119.584631,156.466797 120.482422,156.466797 C121.380213,156.466797 122.085447,156.806312 122.598145,157.485352 C123.110842,158.164391 123.367188,159.09407 123.367188,160.274414 L123.367188,160.383789 Z M122.102539,160.240234 C122.102539,159.378902 121.9362,158.713544 121.603516,158.244141 C121.270832,157.774737 120.792321,157.540039 120.167969,157.540039 C119.33398,157.540039 118.734702,157.927405 118.370117,158.702148 L118.370117,161.901367 C118.757489,162.676111 119.361324,163.063477 120.181641,163.063477 C120.787763,163.063477 121.259438,162.828778 121.59668,162.359375 C121.933921,161.889972 122.102539,161.183598 122.102539,160.240234 Z M128.029297,164.136719 C127.026688,164.136719 126.210941,163.807458 125.582031,163.148926 C124.953122,162.490394 124.638672,161.609706 124.638672,160.506836 L124.638672,160.274414 C124.638672,159.540686 124.778807,158.885582 125.059082,158.309082 C125.339357,157.732582 125.73128,157.281414 126.234863,156.955566 C126.738447,156.629718 127.284177,156.466797 127.87207,156.466797 C128.833664,156.466797 129.581052,156.783525 130.114258,157.416992 C130.647464,158.050459 130.914062,158.957351 130.914062,160.137695 L130.914062,160.664062 L125.90332,160.664062 C125.92155,161.393233 126.134601,161.982257 126.54248,162.431152 C126.95036,162.880048 127.468747,163.104492 128.097656,163.104492 C128.544273,163.104492 128.922524,163.013347 129.232422,162.831055 C129.542319,162.648762 129.813475,162.407228 130.045898,162.106445 L130.818359,162.708008 C130.198565,163.660487 129.268886,164.136719 128.029297,164.136719 Z M127.87207,157.505859 C127.361651,157.505859 126.93327,157.691567 126.586914,158.062988 C126.240558,158.434409 126.026368,158.955075 125.944336,159.625 L129.649414,159.625 L129.649414,159.529297 C129.612956,158.886716 129.43978,158.388836 129.129883,158.035645 C128.819985,157.682453 128.400719,157.505859 127.87207,157.505859 Z M133.750977,164 L132.486328,164 L132.486328,153.5 L133.750977,153.5 L133.750977,164 Z" id="Label" fill="#757575"></path>
            <path d="M157.474609,162.926758 L162.191406,162.926758 L162.191406,164 L156.155273,164 L156.155273,154.046875 L157.474609,154.046875 L157.474609,162.926758 Z M163.155273,160.233398 C163.155273,159.508785 163.297687,158.857099 163.58252,158.27832 C163.867352,157.699541 164.263832,157.252931 164.771973,156.938477 C165.280113,156.624022 165.860023,156.466797 166.511719,156.466797 C167.518885,156.466797 168.333493,156.815426 168.955566,157.512695 C169.57764,158.209964 169.888672,159.137364 169.888672,160.294922 L169.888672,160.383789 C169.888672,161.103845 169.750815,161.749834 169.475098,162.321777 C169.19938,162.89372 168.805178,163.339191 168.29248,163.658203 C167.779783,163.977215 167.190759,164.136719 166.525391,164.136719 C165.522781,164.136719 164.710452,163.788089 164.088379,163.09082 C163.466305,162.393551 163.155273,161.470709 163.155273,160.322266 L163.155273,160.233398 Z M164.426758,160.383789 C164.426758,161.204106 164.617023,161.862628 164.997559,162.359375 C165.378094,162.856122 165.887367,163.104492 166.525391,163.104492 C167.167972,163.104492 167.678384,162.852704 168.056641,162.349121 C168.434898,161.845538 168.624023,161.140304 168.624023,160.233398 C168.624023,159.422196 168.43148,158.764814 168.046387,158.26123 C167.661294,157.757647 167.149743,157.505859 166.511719,157.505859 C165.887367,157.505859 165.383791,157.754229 165.000977,158.250977 C164.618162,158.747724 164.426758,159.458654 164.426758,160.383789 Z M176.041016,164 C175.968099,163.854166 175.908854,163.594403 175.863281,163.220703 C175.275388,163.831383 174.573572,164.136719 173.757812,164.136719 C173.028642,164.136719 172.430504,163.930503 171.963379,163.518066 C171.496254,163.105629 171.262695,162.582685 171.262695,161.949219 C171.262695,161.179033 171.555498,160.580894 172.141113,160.154785 C172.726728,159.728676 173.55045,159.515625 174.612305,159.515625 L175.842773,159.515625 L175.842773,158.93457 C175.842773,158.492511 175.710613,158.140464 175.446289,157.878418 C175.181965,157.616372 174.79232,157.485352 174.277344,157.485352 C173.82617,157.485352 173.447918,157.599283 173.142578,157.827148 C172.837238,158.055014 172.68457,158.330728 172.68457,158.654297 L171.413086,158.654297 C171.413086,158.285154 171.544107,157.92855 171.806152,157.584473 C172.068198,157.240395 172.423663,156.9681 172.872559,156.767578 C173.321454,156.567056 173.814776,156.466797 174.352539,156.466797 C175.204757,156.466797 175.872393,156.679848 176.355469,157.105957 C176.838544,157.532066 177.089193,158.118811 177.107422,158.866211 L177.107422,162.270508 C177.107422,162.949548 177.19401,163.489581 177.367188,163.890625 L177.367188,164 L176.041016,164 Z M173.942383,163.036133 C174.338869,163.036133 174.714842,162.933595 175.070312,162.728516 C175.425783,162.523436 175.683267,162.256838 175.842773,161.928711 L175.842773,160.411133 L174.851562,160.411133 C173.302076,160.411133 172.527344,160.864579 172.527344,161.771484 C172.527344,162.167971 172.659504,162.477863 172.923828,162.701172 C173.188152,162.92448 173.527667,163.036133 173.942383,163.036133 Z M178.782227,160.240234 C178.782227,159.105463 179.051104,158.192875 179.588867,157.502441 C180.12663,156.812008 180.830725,156.466797 181.701172,156.466797 C182.567062,156.466797 183.252927,156.763018 183.758789,157.355469 L183.758789,153.5 L185.023438,153.5 L185.023438,164 L183.861328,164 L183.799805,163.207031 C183.293943,163.826826 182.589848,164.136719 181.6875,164.136719 C180.830725,164.136719 180.132327,163.785811 179.592285,163.083984 C179.052243,162.382158 178.782227,161.466151 178.782227,160.335938 L178.782227,160.240234 Z M180.046875,160.383789 C180.046875,161.222335 180.22005,161.878578 180.566406,162.352539 C180.912762,162.8265 181.391273,163.063477 182.001953,163.063477 C182.80404,163.063477 183.389647,162.703454 183.758789,161.983398 L183.758789,158.585938 C183.380532,157.888668 182.799483,157.540039 182.015625,157.540039 C181.39583,157.540039 180.912762,157.779294 180.566406,158.257812 C180.22005,158.736331 180.046875,159.444982 180.046875,160.383789 Z M188.359375,164 L187.094727,164 L187.094727,156.603516 L188.359375,156.603516 L188.359375,164 Z M186.992188,154.641602 C186.992188,154.436522 187.05485,154.263347 187.180176,154.12207 C187.305502,153.980794 187.49121,153.910156 187.737305,153.910156 C187.9834,153.910156 188.170247,153.980794 188.297852,154.12207 C188.425456,154.263347 188.489258,154.436522 188.489258,154.641602 C188.489258,154.846681 188.425456,155.017577 188.297852,155.154297 C188.170247,155.291016 187.9834,155.359375 187.737305,155.359375 C187.49121,155.359375 187.305502,155.291016 187.180176,155.154297 C187.05485,155.017577 186.992188,154.846681 186.992188,154.641602 Z M191.579102,156.603516 L191.620117,157.533203 C192.185224,156.822262 192.923498,156.466797 193.834961,156.466797 C195.39812,156.466797 196.186523,157.348624 196.200195,159.112305 L196.200195,164 L194.935547,164 L194.935547,159.105469 C194.93099,158.572263 194.809083,158.178061 194.569824,157.922852 C194.330565,157.667642 193.95801,157.540039 193.452148,157.540039 C193.04199,157.540039 192.681968,157.649413 192.37207,157.868164 C192.062173,158.086915 191.820639,158.374022 191.647461,158.729492 L191.647461,164 L190.382812,164 L190.382812,156.603516 L191.579102,156.603516 Z M197.806641,160.240234 C197.806641,159.087234 198.07324,158.170088 198.606445,157.48877 C199.139651,156.807451 199.846024,156.466797 200.725586,156.466797 C201.627934,156.466797 202.332029,156.785804 202.837891,157.423828 L202.899414,156.603516 L204.054688,156.603516 L204.054688,163.822266 C204.054688,164.779302 203.770999,165.533526 203.203613,166.084961 C202.636228,166.636396 201.874028,166.912109 200.916992,166.912109 C200.383786,166.912109 199.861982,166.798178 199.351562,166.570312 C198.841143,166.342447 198.451499,166.030275 198.182617,165.633789 L198.838867,164.875 C199.381188,165.544925 200.044267,165.879883 200.828125,165.879883 C201.443362,165.879883 201.923013,165.706707 202.26709,165.360352 C202.611167,165.013996 202.783203,164.52637 202.783203,163.897461 L202.783203,163.261719 C202.277341,163.845055 201.586918,164.136719 200.711914,164.136719 C199.846024,164.136719 199.145348,163.788089 198.609863,163.09082 C198.074379,162.393551 197.806641,161.443365 197.806641,160.240234 Z M199.078125,160.383789 C199.078125,161.217778 199.249022,161.872882 199.59082,162.349121 C199.932619,162.82536 200.41113,163.063477 201.026367,163.063477 C201.823897,163.063477 202.409503,162.701175 202.783203,161.976562 L202.783203,158.599609 C202.395831,157.893226 201.814783,157.540039 201.040039,157.540039 C200.424802,157.540039 199.944012,157.779294 199.597656,158.257812 C199.2513,158.736331 199.078125,159.444982 199.078125,160.383789 Z M206.016602,163.336914 C206.016602,163.118163 206.081542,162.935873 206.211426,162.790039 C206.341309,162.644205 206.536132,162.571289 206.795898,162.571289 C207.055665,162.571289 207.252766,162.644205 207.387207,162.790039 C207.521648,162.935873 207.588867,163.118163 207.588867,163.336914 C207.588867,163.546551 207.521648,163.722005 207.387207,163.863281 C207.252766,164.004558 207.055665,164.075195 206.795898,164.075195 C206.536132,164.075195 206.341309,164.004558 206.211426,163.863281 C206.081542,163.722005 206.016602,163.546551 206.016602,163.336914 Z M209.003906,163.336914 C209.003906,163.118163 209.068847,162.935873 209.19873,162.790039 C209.328614,162.644205 209.523436,162.571289 209.783203,162.571289 C210.04297,162.571289 210.240071,162.644205 210.374512,162.790039 C210.508952,162.935873 210.576172,163.118163 210.576172,163.336914 C210.576172,163.546551 210.508952,163.722005 210.374512,163.863281 C210.240071,164.004558 210.04297,164.075195 209.783203,164.075195 C209.523436,164.075195 209.328614,164.004558 209.19873,163.863281 C209.068847,163.722005 209.003906,163.546551 209.003906,163.336914 Z M211.84082,163.336914 C211.84082,163.118163 211.905761,162.935873 212.035645,162.790039 C212.165528,162.644205 212.36035,162.571289 212.620117,162.571289 C212.879884,162.571289 213.076985,162.644205 213.211426,162.790039 C213.345867,162.935873 213.413086,163.118163 213.413086,163.336914 C213.413086,163.546551 213.345867,163.722005 213.211426,163.863281 C213.076985,164.004558 212.879884,164.075195 212.620117,164.075195 C212.36035,164.075195 212.165528,164.004558 212.035645,163.863281 C211.905761,163.722005 211.84082,163.546551 211.84082,163.336914 Z" id="Loading…" fill="#333333"></path>
        </g>
    </g>
</svg>