<?xml version="1.0" encoding="UTF-8"?>
<svg width="305px" height="235px" viewBox="0 0 305 235" version="1.1" xmlns="http://www.w3.org/2000/svg" xmlns:xlink="http://www.w3.org/1999/xlink">
    <!-- Generator: Sketch 47.1 (45422) - http://www.bohemiancoding.com/sketch -->
    <title>Custom Preset</title>
    <desc>Created with Sketch.</desc>
    <defs>
        <polygon id="path-1" points="7 3.5 0 7 0 0"></polygon>
        <polygon id="path-2" points="7 3.5 0 7 0 0"></polygon>
        <polygon id="path-3" points="7 3.5 0 7 0 0"></polygon>
        <polygon id="path-4" points="7 3.5 0 7 0 0"></polygon>
        <polygon id="path-5" points="7 3.5 0 7 0 0"></polygon>
        <polygon id="path-6" points="7 3.5 0 7 0 0"></polygon>
    </defs>
    <g id="Page-1" stroke="none" stroke-width="1" fill="none" fill-rule="evenodd">
        <g id="Custom-Preset">
            <g id="Loading/Circle/Indeterminate-6" transform="translate(135.000000, 88.651208)" fill="#9E9E9E">
                <path d="M27.0084,30.4974 C20.8184,34.6794 12.3394,34.0334 6.8604,28.5544 C0.6454,22.3394 0.6454,12.2634 6.8604,6.0484 C13.0754,-0.1666 23.1514,-0.1666 29.3664,6.0484 C33.2354,9.9174 34.6944,15.2814 33.7464,20.2794 L35.0884,20.5264 C36.1134,15.1024 34.5294,9.2814 30.3314,5.0844 C23.5834,-1.6636 12.6434,-1.6636 5.8954,5.0834 C-0.8516,11.8314 -0.8516,22.7714 5.8954,29.5194 C11.8474,35.4704 21.0584,36.1694 27.7794,31.6224 L27.0084,30.4974 Z" id="Fill-22"></path>
            </g>
            <g id="Group-17" transform="translate(105.000000, 149.651208)" fill="#EC407A">
                <g id="specs-/-redlines-/-label-copy-4">
                    <path d="M4.11914062,7.54882812 L2.11523438,7.54882812 L2.11523438,11 L0.984375,11 L0.984375,2.46875 L3.80859375,2.46875 C4.76953605,2.46875 5.50878647,2.68749781 6.02636719,3.125 C6.5439479,3.56250219 6.80273438,4.19921457 6.80273438,5.03515625 C6.80273438,5.56640891 6.65918112,6.0292949 6.37207031,6.42382812 C6.0849595,6.81836135 5.68554943,7.11328027 5.17382812,7.30859375 L7.17773438,10.9296875 L7.17773438,11 L5.97070312,11 L4.11914062,7.54882812 Z M2.11523438,6.62890625 L3.84375,6.62890625 C4.40234654,6.62890625 4.84667804,6.48437645 5.17675781,6.1953125 C5.50683759,5.90624855 5.671875,5.51953367 5.671875,5.03515625 C5.671875,4.50780986 5.51465001,4.10351703 5.20019531,3.82226562 C4.88574062,3.54101422 4.43164359,3.39843752 3.83789062,3.39453125 L2.11523438,3.39453125 L2.11523438,6.62890625 Z M7.921875,7.77148438 C7.921875,7.15038752 8.04394409,6.59179936 8.28808594,6.09570312 C8.53222778,5.59960689 8.87206813,5.21679822 9.30761719,4.94726562 C9.74316624,4.67773303 10.2402316,4.54296875 10.7988281,4.54296875 C11.6621137,4.54296875 12.3603489,4.84179389 12.8935547,5.43945312 C13.4267605,6.03711236 13.6933594,6.83202629 13.6933594,7.82421875 L13.6933594,7.90039062 C13.6933594,8.51758121 13.5751965,9.07128661 13.3388672,9.56152344 C13.1025379,10.0517603 12.7646506,10.4335924 12.3251953,10.7070312 C11.88574,10.9804701 11.3808622,11.1171875 10.8105469,11.1171875 C9.95116758,11.1171875 9.25488548,10.8183624 8.72167969,10.2207031 C8.1884739,9.62304389 7.921875,8.83203617 7.921875,7.84765625 L7.921875,7.77148438 Z M9.01171875,7.90039062 C9.01171875,8.60351914 9.17480306,9.16796662 9.50097656,9.59375 C9.82715007,10.0195334 10.2636691,10.2324219 10.8105469,10.2324219 C11.3613309,10.2324219 11.7988265,10.0166037 12.1230469,9.58496094 C12.4472672,9.15331815 12.609375,8.54883201 12.609375,7.77148438 C12.609375,7.0761684 12.4443376,6.51269747 12.1142578,6.08105469 C11.784178,5.6494119 11.3457059,5.43359375 10.7988281,5.43359375 C10.2636692,5.43359375 9.83203289,5.64648225 9.50390625,6.07226562 C9.17577961,6.498049 9.01171875,7.10741791 9.01171875,7.90039062 Z M16.5234375,3.125 L16.5234375,4.66015625 L17.7070312,4.66015625 L17.7070312,5.49804688 L16.5234375,5.49804688 L16.5234375,9.4296875 C16.5234375,9.68359502 16.5761713,9.8740228 16.6816406,10.0009766 C16.7871099,10.1279303 16.9667956,10.1914062 17.2207031,10.1914062 C17.3457037,10.1914062 17.517577,10.167969 17.7363281,10.1210938 L17.7363281,11 C17.4511704,11.0781254 17.1738295,11.1171875 16.9042969,11.1171875 C16.4199195,11.1171875 16.0546887,10.9707046 15.8085938,10.6777344 C15.5624988,10.3847642 15.4394531,9.9687527 15.4394531,9.4296875 L15.4394531,5.49804688 L14.2851562,5.49804688 L14.2851562,4.66015625 L15.4394531,4.66015625 L15.4394531,3.125 L16.5234375,3.125 Z M22.8867188,11 C22.8242184,10.8749994 22.7734377,10.6523454 22.734375,10.3320312 C22.2304662,10.8554714 21.6289097,11.1171875 20.9296875,11.1171875 C20.3046844,11.1171875 19.7919942,10.9404315 19.3916016,10.5869141 C18.9912089,10.2333967 18.7910156,9.78515896 18.7910156,9.2421875 C18.7910156,8.58202795 19.0419897,8.06933776 19.5439453,7.70410156 C20.0459009,7.33886536 20.7519486,7.15625 21.6621094,7.15625 L22.7167969,7.15625 L22.7167969,6.65820312 C22.7167969,6.27929498 22.6035168,5.97754019 22.3769531,5.75292969 C22.1503895,5.52831919 21.8164085,5.41601562 21.375,5.41601562 C20.9882793,5.41601562 20.6640638,5.5136709 20.4023438,5.70898438 C20.1406237,5.90429785 20.0097656,6.14062361 20.0097656,6.41796875 L18.9199219,6.41796875 C18.9199219,6.10156092 19.0322254,5.79589991 19.2568359,5.50097656 C19.4814464,5.20605321 19.7861309,4.97265711 20.1708984,4.80078125 C20.555666,4.62890539 20.9785133,4.54296875 21.4394531,4.54296875 C22.1699255,4.54296875 22.7421854,4.72558411 23.15625,5.09082031 C23.5703146,5.45605651 23.7851562,5.95898117 23.8007812,6.59960938 L23.8007812,9.51757812 C23.8007812,10.0996123 23.8749993,10.5624983 24.0234375,10.90625 L24.0234375,11 L22.8867188,11 Z M21.0878906,10.1738281 C21.4277361,10.1738281 21.7499985,10.0859384 22.0546875,9.91015625 C22.3593765,9.73437412 22.5800774,9.50586078 22.7167969,9.22460938 L22.7167969,7.92382812 L21.8671875,7.92382812 C20.5390559,7.92382812 19.875,8.31249611 19.875,9.08984375 C19.875,9.4296892 19.9882801,9.69531154 20.2148438,9.88671875 C20.4414074,10.078126 20.7324201,10.1738281 21.0878906,10.1738281 Z M26.9707031,3.125 L26.9707031,4.66015625 L28.1542969,4.66015625 L28.1542969,5.49804688 L26.9707031,5.49804688 L26.9707031,9.4296875 C26.9707031,9.68359502 27.023437,9.8740228 27.1289062,10.0009766 C27.2343755,10.1279303 27.4140612,10.1914062 27.6679688,10.1914062 C27.7929694,10.1914062 27.9648427,10.167969 28.1835938,10.1210938 L28.1835938,11 C27.8984361,11.0781254 27.6210951,11.1171875 27.3515625,11.1171875 C26.8671851,11.1171875 26.5019544,10.9707046 26.2558594,10.6777344 C26.0097644,10.3847642 25.8867188,9.9687527 25.8867188,9.4296875 L25.8867188,5.49804688 L24.7324219,5.49804688 L24.7324219,4.66015625 L25.8867188,4.66015625 L25.8867188,3.125 L26.9707031,3.125 Z M32.0507812,11.1171875 C31.191402,11.1171875 30.4921902,10.8349638 29.953125,10.2705078 C29.4140598,9.70605187 29.1445312,8.9511766 29.1445312,8.00585938 L29.1445312,7.80664062 C29.1445312,7.17773123 29.2646472,6.61621341 29.5048828,6.12207031 C29.7451184,5.62792722 30.0810525,5.24121233 30.5126953,4.96191406 C30.9443381,4.68261579 31.4121069,4.54296875 31.9160156,4.54296875 C32.7402385,4.54296875 33.3808571,4.81445041 33.8378906,5.35742188 C34.2949242,5.90039334 34.5234375,6.67772932 34.5234375,7.68945312 L34.5234375,8.140625 L30.2285156,8.140625 C30.2441407,8.76562812 30.4267561,9.27050589 30.7763672,9.65527344 C31.1259783,10.040041 31.5703098,10.2324219 32.109375,10.2324219 C32.4921894,10.2324219 32.8164049,10.1542977 33.0820312,9.99804688 C33.3476576,9.84179609 33.5800771,9.63476691 33.7792969,9.37695312 L34.4414062,9.89257812 C33.9101536,10.7089885 33.1132866,11.1171875 32.0507812,11.1171875 Z M31.9160156,5.43359375 C31.4785134,5.43359375 31.1113296,5.59277185 30.8144531,5.91113281 C30.5175766,6.22949378 30.3339847,6.67577838 30.2636719,7.25 L33.4394531,7.25 L33.4394531,7.16796875 C33.408203,6.61718475 33.259767,6.1904312 32.9941406,5.88769531 C32.7285143,5.58495942 32.3691429,5.43359375 31.9160156,5.43359375 Z M39.46875,9.31835938 C39.46875,9.02538916 39.3583995,8.79785237 39.1376953,8.63574219 C38.9169911,8.473632 38.5322293,8.33398496 37.9833984,8.21679688 C37.4345676,8.09960879 36.999025,7.9589852 36.6767578,7.79492188 C36.3544906,7.63085855 36.1162117,7.43554801 35.9619141,7.20898438 C35.8076164,6.98242074 35.7304688,6.71289219 35.7304688,6.40039062 C35.7304688,5.88085678 35.9501931,5.44140805 36.3896484,5.08203125 C36.8291038,4.72265445 37.3906216,4.54296875 38.0742188,4.54296875 C38.7929723,4.54296875 39.3759743,4.72851377 39.8232422,5.09960938 C40.27051,5.47070498 40.4941406,5.94530961 40.4941406,6.5234375 L39.4042969,6.5234375 C39.4042969,6.22656102 39.2783216,5.9707042 39.0263672,5.75585938 C38.7744128,5.54101455 38.4570332,5.43359375 38.0742188,5.43359375 C37.6796855,5.43359375 37.3710949,5.51953039 37.1484375,5.69140625 C36.9257801,5.86328211 36.8144531,6.08788924 36.8144531,6.36523438 C36.8144531,6.62695443 36.9179677,6.82421809 37.125,6.95703125 C37.3320323,7.08984441 37.706052,7.21679627 38.2470703,7.33789062 C38.7880886,7.45898498 39.2265608,7.60351479 39.5625,7.77148438 C39.8984392,7.93945396 40.1474601,8.14160038 40.3095703,8.37792969 C40.4716805,8.61425899 40.5527344,8.90234205 40.5527344,9.2421875 C40.5527344,9.80859658 40.3261741,10.2626936 39.8730469,10.6044922 C39.4199196,10.9462908 38.8320349,11.1171875 38.109375,11.1171875 C37.60156,11.1171875 37.1523457,11.0273446 36.7617188,10.8476562 C36.3710918,10.6679679 36.0654308,10.4169938 35.8447266,10.0947266 C35.6240223,9.77245933 35.5136719,9.42383 35.5136719,9.04882812 L36.5976562,9.04882812 C36.6171876,9.41211119 36.762694,9.70019425 37.0341797,9.91308594 C37.3056654,10.1259776 37.6640603,10.2324219 38.109375,10.2324219 C38.5195333,10.2324219 38.8486316,10.1494149 39.0966797,9.98339844 C39.3447278,9.81738198 39.46875,9.59570451 39.46875,9.31835938 Z M47.4785156,10.2324219 C47.8652363,10.2324219 48.2031236,10.1152355 48.4921875,9.88085938 C48.7812514,9.6464832 48.9414061,9.35351738 48.9726562,9.00195312 L49.9980469,9.00195312 C49.9785155,9.36523619 49.8535168,9.71093586 49.6230469,10.0390625 C49.392577,10.3671891 49.0849629,10.6289053 48.7001953,10.8242188 C48.3154278,11.0195322 47.9082053,11.1171875 47.4785156,11.1171875 C46.6152301,11.1171875 45.9287135,10.8291044 45.4189453,10.2529297 C44.9091771,9.67675493 44.6542969,8.88867687 44.6542969,7.88867188 L44.6542969,7.70703125 C44.6542969,7.08984066 44.767577,6.54101803 44.9941406,6.06054688 C45.2207043,5.58007572 45.5458963,5.20703258 45.9697266,4.94140625 C46.3935568,4.67577992 46.8945284,4.54296875 47.4726562,4.54296875 C48.1835973,4.54296875 48.7744117,4.75585725 49.2451172,5.18164062 C49.7158227,5.607424 49.9667967,6.16015285 49.9980469,6.83984375 L48.9726562,6.83984375 C48.9414061,6.42968545 48.7861342,6.09277476 48.5068359,5.82910156 C48.2275377,5.56542837 47.8828146,5.43359375 47.4726562,5.43359375 C46.9218722,5.43359375 46.4951187,5.63183396 46.1923828,6.02832031 C45.8896469,6.42480667 45.7382812,6.99804313 45.7382812,7.74804688 L45.7382812,7.953125 C45.7382812,8.6835974 45.8886704,9.24609178 46.1894531,9.640625 C46.4902359,10.0351582 46.9199191,10.2324219 47.4785156,10.2324219 Z M52.3945312,11 L51.3105469,11 L51.3105469,2 L52.3945312,2 L52.3945312,11 Z M53.8417969,7.77148438 C53.8417969,7.15038752 53.963866,6.59179936 54.2080078,6.09570312 C54.4521497,5.59960689 54.79199,5.21679822 55.2275391,4.94726562 C55.6630881,4.67773303 56.1601535,4.54296875 56.71875,4.54296875 C57.5820356,4.54296875 58.2802708,4.84179389 58.8134766,5.43945312 C59.3466824,6.03711236 59.6132812,6.83202629 59.6132812,7.82421875 L59.6132812,7.90039062 C59.6132812,8.51758121 59.4951184,9.07128661 59.2587891,9.56152344 C59.0224598,10.0517603 58.6845725,10.4335924 58.2451172,10.7070312 C57.8056619,10.9804701 57.3007841,11.1171875 56.7304688,11.1171875 C55.8710895,11.1171875 55.1748074,10.8183624 54.6416016,10.2207031 C54.1083958,9.62304389 53.8417969,8.83203617 53.8417969,7.84765625 L53.8417969,7.77148438 Z M54.9316406,7.90039062 C54.9316406,8.60351914 55.0947249,9.16796662 55.4208984,9.59375 C55.7470719,10.0195334 56.183591,10.2324219 56.7304688,10.2324219 C57.2812528,10.2324219 57.7187484,10.0166037 58.0429688,9.58496094 C58.3671891,9.15331815 58.5292969,8.54883201 58.5292969,7.77148438 C58.5292969,7.0761684 58.3642595,6.51269747 58.0341797,6.08105469 C57.7040999,5.6494119 57.2656277,5.43359375 56.71875,5.43359375 C56.1835911,5.43359375 55.7519548,5.64648225 55.4238281,6.07226562 C55.0957015,6.498049 54.9316406,7.10741791 54.9316406,7.90039062 Z M63.515625,10.2324219 C63.9023457,10.2324219 64.2402329,10.1152355 64.5292969,9.88085938 C64.8183608,9.6464832 64.9785155,9.35351738 65.0097656,9.00195312 L66.0351562,9.00195312 C66.0156249,9.36523619 65.8906262,9.71093586 65.6601562,10.0390625 C65.4296863,10.3671891 65.1220722,10.6289053 64.7373047,10.8242188 C64.3525371,11.0195322 63.9453146,11.1171875 63.515625,11.1171875 C62.6523394,11.1171875 61.9658229,10.8291044 61.4560547,10.2529297 C60.9462865,9.67675493 60.6914062,8.88867687 60.6914062,7.88867188 L60.6914062,7.70703125 C60.6914062,7.08984066 60.8046864,6.54101803 61.03125,6.06054688 C61.2578136,5.58007572 61.5830057,5.20703258 62.0068359,4.94140625 C62.4306662,4.67577992 62.9316377,4.54296875 63.5097656,4.54296875 C64.2207067,4.54296875 64.8115211,4.75585725 65.2822266,5.18164062 C65.752932,5.607424 66.0039061,6.16015285 66.0351562,6.83984375 L65.0097656,6.83984375 C64.9785155,6.42968545 64.8232436,6.09277476 64.5439453,5.82910156 C64.264647,5.56542837 63.9199239,5.43359375 63.5097656,5.43359375 C62.9589816,5.43359375 62.5322281,5.63183396 62.2294922,6.02832031 C61.9267563,6.42480667 61.7753906,6.99804313 61.7753906,7.74804688 L61.7753906,7.953125 C61.7753906,8.6835974 61.9257797,9.24609178 62.2265625,9.640625 C62.5273453,10.0351582 62.9570285,10.2324219 63.515625,10.2324219 Z M69.0234375,8.06445312 L68.34375,8.7734375 L68.34375,11 L67.2597656,11 L67.2597656,2 L68.34375,2 L68.34375,7.44335938 L68.9238281,6.74609375 L70.8984375,4.66015625 L72.2167969,4.66015625 L69.75,7.30859375 L72.5039062,11 L71.2324219,11 L69.0234375,8.06445312 Z M78.9492188,9.50585938 L80.1679688,4.66015625 L81.2519531,4.66015625 L79.40625,11 L78.5273438,11 L76.9863281,6.1953125 L75.4863281,11 L74.6074219,11 L72.7675781,4.66015625 L73.8457031,4.66015625 L75.09375,9.40625 L76.5703125,4.66015625 L77.4433594,4.66015625 L78.9492188,9.50585938 Z M83.53125,11 L82.4472656,11 L82.4472656,4.66015625 L83.53125,4.66015625 L83.53125,11 Z M82.359375,2.97851562 C82.359375,2.8027335 82.4130854,2.65429748 82.5205078,2.53320312 C82.6279302,2.41210877 82.7871083,2.3515625 82.9980469,2.3515625 C83.2089854,2.3515625 83.3691401,2.41210877 83.4785156,2.53320312 C83.5878912,2.65429748 83.6425781,2.8027335 83.6425781,2.97851562 C83.6425781,3.15429775 83.5878912,3.30078066 83.4785156,3.41796875 C83.3691401,3.53515684 83.2089854,3.59375 82.9980469,3.59375 C82.7871083,3.59375 82.6279302,3.53515684 82.5205078,3.41796875 C82.4130854,3.30078066 82.359375,3.15429775 82.359375,2.97851562 Z M88.9570312,9.31835938 C88.9570312,9.02538916 88.8466808,8.79785237 88.6259766,8.63574219 C88.4052723,8.473632 88.0205106,8.33398496 87.4716797,8.21679688 C86.9228488,8.09960879 86.4873063,7.9589852 86.1650391,7.79492188 C85.8427718,7.63085855 85.604493,7.43554801 85.4501953,7.20898438 C85.2958977,6.98242074 85.21875,6.71289219 85.21875,6.40039062 C85.21875,5.88085678 85.4384744,5.44140805 85.8779297,5.08203125 C86.317385,4.72265445 86.8789028,4.54296875 87.5625,4.54296875 C88.2812536,4.54296875 88.8642556,4.72851377 89.3115234,5.09960938 C89.7587913,5.47070498 89.9824219,5.94530961 89.9824219,6.5234375 L88.8925781,6.5234375 C88.8925781,6.22656102 88.7666028,5.9707042 88.5146484,5.75585938 C88.2626941,5.54101455 87.9453144,5.43359375 87.5625,5.43359375 C87.1679668,5.43359375 86.8593761,5.51953039 86.6367188,5.69140625 C86.4140614,5.86328211 86.3027344,6.08788924 86.3027344,6.36523438 C86.3027344,6.62695443 86.406249,6.82421809 86.6132812,6.95703125 C86.8203135,7.08984441 87.1943332,7.21679627 87.7353516,7.33789062 C88.2763699,7.45898498 88.7148421,7.60351479 89.0507812,7.77148438 C89.3867204,7.93945396 89.6357414,8.14160038 89.7978516,8.37792969 C89.9599617,8.61425899 90.0410156,8.90234205 90.0410156,9.2421875 C90.0410156,9.80859658 89.8144554,10.2626936 89.3613281,10.6044922 C88.9082009,10.9462908 88.3203161,11.1171875 87.5976562,11.1171875 C87.0898412,11.1171875 86.640627,11.0273446 86.25,10.8476562 C85.859373,10.6679679 85.553712,10.4169938 85.3330078,10.0947266 C85.1123036,9.77245933 85.0019531,9.42383 85.0019531,9.04882812 L86.0859375,9.04882812 C86.1054688,9.41211119 86.2509752,9.70019425 86.5224609,9.91308594 C86.7939467,10.1259776 87.1523415,10.2324219 87.5976562,10.2324219 C88.0078146,10.2324219 88.3369128,10.1494149 88.5849609,9.98339844 C88.8330091,9.81738198 88.9570312,9.59570451 88.9570312,9.31835938 Z M94.0839844,11.1171875 C93.2246051,11.1171875 92.5253933,10.8349638 91.9863281,10.2705078 C91.4472629,9.70605187 91.1777344,8.9511766 91.1777344,8.00585938 L91.1777344,7.80664062 C91.1777344,7.17773123 91.2978504,6.61621341 91.5380859,6.12207031 C91.7783215,5.62792722 92.1142557,5.24121233 92.5458984,4.96191406 C92.9775412,4.68261579 93.44531,4.54296875 93.9492188,4.54296875 C94.7734416,4.54296875 95.4140602,4.81445041 95.8710938,5.35742188 C96.3281273,5.90039334 96.5566406,6.67772932 96.5566406,7.68945312 L96.5566406,8.140625 L92.2617188,8.140625 C92.2773438,8.76562812 92.4599592,9.27050589 92.8095703,9.65527344 C93.1591814,10.040041 93.6035129,10.2324219 94.1425781,10.2324219 C94.5253925,10.2324219 94.849608,10.1542977 95.1152344,9.99804688 C95.3808607,9.84179609 95.6132803,9.63476691 95.8125,9.37695312 L96.4746094,9.89257812 C95.9433567,10.7089885 95.1464897,11.1171875 94.0839844,11.1171875 Z M93.9492188,5.43359375 C93.5117166,5.43359375 93.1445327,5.59277185 92.8476562,5.91113281 C92.5507798,6.22949378 92.3671879,6.67577838 92.296875,7.25 L95.4726562,7.25 L95.4726562,7.16796875 C95.4414061,6.61718475 95.2929701,6.1904312 95.0273438,5.88769531 C94.7617174,5.58495942 94.402346,5.43359375 93.9492188,5.43359375 Z" id="redline-label"></path>
                </g>
            </g>
            <path d="M181.269443,116.717446 C182.389931,113.570957 183,110.182327 183,106.651208 C183,90.082665 169.568542,76.6512075 153,76.6512075 C136.431458,76.6512075 123,90.082665 123,106.651208 C123,123.21975 136.431458,136.651208 153,136.651208 L153,136.651208 C162.472021,136.651208 170.91876,132.261457 176.416796,125.40538" id="Oval" stroke="#EC3F7A"></path>
            <g id="specs-/-redlines-/-line-end-/-arrow" transform="translate(160.500000, 136.151208) rotate(-192.000000) translate(-160.500000, -136.151208) translate(157.000000, 132.651208)">
                <g id="redline-end">
                    <use fill="#FFFFFF" fill-rule="evenodd" xlink:href="#path-1"></use>
                    <path stroke="#EC407A" stroke-width="1" d="M5.88196601,3.5 L0.5,0.809016994 L0.5,6.19098301 L5.88196601,3.5 Z"></path>
                </g>
            </g>
            <g id="specs-/-redlines-/-line-end-/-arrow" transform="translate(129.500000, 124.151208) rotate(-125.000000) translate(-129.500000, -124.151208) translate(126.000000, 120.651208)">
                <g id="redline-end">
                    <use fill="#FFFFFF" fill-rule="evenodd" xlink:href="#path-2"></use>
                    <path stroke="#EC407A" stroke-width="1" d="M5.88196601,3.5 L0.5,0.809016994 L0.5,6.19098301 L5.88196601,3.5 Z"></path>
                </g>
            </g>
            <g id="specs-/-redlines-/-line-end-/-arrow" transform="translate(124.500000, 99.151208) rotate(-72.000000) translate(-124.500000, -99.151208) translate(121.000000, 95.651208)">
                <g id="redline-end">
                    <use fill="#FFFFFF" fill-rule="evenodd" xlink:href="#path-3"></use>
                    <path stroke="#EC407A" stroke-width="1" d="M5.88196601,3.5 L0.5,0.809016994 L0.5,6.19098301 L5.88196601,3.5 Z"></path>
                </g>
            </g>
            <g id="specs-/-redlines-/-line-end-/-arrow" transform="translate(145.500000, 78.151208) rotate(-12.000000) translate(-145.500000, -78.151208) translate(142.000000, 74.651208)">
                <g id="redline-end">
                    <use fill="#FFFFFF" fill-rule="evenodd" xlink:href="#path-4"></use>
                    <path stroke="#EC407A" stroke-width="1" d="M5.88196601,3.5 L0.5,0.809016994 L0.5,6.19098301 L5.88196601,3.5 Z"></path>
                </g>
            </g>
            <g id="specs-/-redlines-/-line-end-/-arrow" transform="translate(173.500000, 84.151208) rotate(-318.000000) translate(-173.500000, -84.151208) translate(170.000000, 80.651208)">
                <g id="redline-end">
                    <use fill="#FFFFFF" fill-rule="evenodd" xlink:href="#path-5"></use>
                    <path stroke="#EC407A" stroke-width="1" d="M5.88196601,3.5 L0.5,0.809016994 L0.5,6.19098301 L5.88196601,3.5 Z"></path>
                </g>
            </g>
            <g id="specs-/-redlines-/-line-end-/-arrow" transform="translate(181.500000, 117.151208) rotate(-249.000000) translate(-181.500000, -117.151208) translate(178.000000, 113.651208)">
                <g id="redline-end">
                    <use fill="#FFFFFF" fill-rule="evenodd" xlink:href="#path-6"></use>
                    <path stroke="#EC407A" stroke-width="1" d="M5.88196601,3.5 L0.5,0.809016994 L0.5,6.19098301 L5.88196601,3.5 Z"></path>
                </g>
            </g>
        </g>
    </g>
</svg>