<?xml version="1.0" encoding="UTF-8"?>
<svg width="635px" height="393px" viewBox="0 0 635 393" version="1.1" xmlns="http://www.w3.org/2000/svg" xmlns:xlink="http://www.w3.org/1999/xlink">
    <!-- Generator: Sketch 47.1 (45422) - http://www.bohemiancoding.com/sketch -->
    <title>Group 3</title>
    <desc>Created with Sketch.</desc>
    <defs>
        <path d="M68.17325,56.474125 C61.98325,60.656125 53.50425,60.010125 48.02525,54.531125 C41.81025,48.316125 41.81025,38.240125 48.02525,32.025125 C54.24025,25.810125 64.31625,25.810125 70.53125,32.025125 C74.40025,35.894125 75.85925,41.258125 74.91125,46.256125 L76.25325,46.503125 C77.27825,41.079125 75.69425,35.258125 71.49625,31.061125 C64.74825,24.313125 53.80825,24.313125 47.06025,31.060125 C40.31325,37.808125 40.31325,48.748125 47.06025,55.496125 C53.01225,61.447125 62.22325,62.146125 68.94425,57.599125 L68.17325,56.474125 Z" id="path-1"></path>
        <path d="M68.17325,56.474125 C61.98325,60.656125 53.50425,60.010125 48.02525,54.531125 C41.81025,48.316125 41.81025,38.240125 48.02525,32.025125 C54.24025,25.810125 64.31625,25.810125 70.53125,32.025125 C74.40025,35.894125 75.85925,41.258125 74.91125,46.256125 L76.25325,46.503125 C77.27825,41.079125 75.69425,35.258125 71.49625,31.061125 C64.74825,24.313125 53.80825,24.313125 47.06025,31.060125 C40.31325,37.808125 40.31325,48.748125 47.06025,55.496125 C53.01225,61.447125 62.22325,62.146125 68.94425,57.599125 L68.17325,56.474125 Z" id="path-2"></path>
        <path d="M68.17325,56.474125 C61.98325,60.656125 53.50425,60.010125 48.02525,54.531125 C41.81025,48.316125 41.81025,38.240125 48.02525,32.025125 C54.24025,25.810125 64.31625,25.810125 70.53125,32.025125 C74.40025,35.894125 75.85925,41.258125 74.91125,46.256125 L76.25325,46.503125 C77.27825,41.079125 75.69425,35.258125 71.49625,31.061125 C64.74825,24.313125 53.80825,24.313125 47.06025,31.060125 C40.31325,37.808125 40.31325,48.748125 47.06025,55.496125 C53.01225,61.447125 62.22325,62.146125 68.94425,57.599125 L68.17325,56.474125 Z" id="path-3"></path>
    </defs>
    <g id="Document" stroke="none" stroke-width="1" fill="none" fill-rule="evenodd">
        <g id="1)-Overview" transform="translate(-194.000000, -555.000000)">
            <g id="Section-Hero-Image" transform="translate(0.000000, 523.000000)">
                <g id="Group-3" transform="translate(194.000000, 32.000000)">
                    <g id="Group">
                        <polygon id="Fill-1" fill="#B5E2EB" points="11 392.026351 634 392.026351 634 0 11 0"></polygon>
                        <polygon id="Fill-2" fill="#16B9D4" points="0.860140969 390.787601 123.159744 390.787601 123.159744 1.2332935 0.860140969 1.2332935"></polygon>
                        <polygon id="Fill-3" fill="#0E94A6" points="1.18742731 26.2383333 634.187427 26.2383333 634.187427 0.993958333 1.18742731 0.993958333"></polygon>
                    </g>
                    <rect id="Rectangle-3-Copy" fill="#70C2D3" x="154" y="61" width="173" height="16" rx="8"></rect>
                    <g id="Group-2" transform="translate(154.000000, 97.000000)">
                        <rect id="Rectangle-3-Copy-2" fill="#70C2D3" x="0" y="0" width="118" height="86"></rect>
                        <g id="Fill-22">
                            <use fill="#F57C00" fill-rule="evenodd" xlink:href="#path-1"></use>
                            <path stroke="#F57C00" stroke-width="1" d="M68.0373585,57.160303 C61.6165861,61.2213824 53.1356448,60.3486266 47.6716966,54.8846784 C41.2614345,48.4744163 41.2614345,38.0818338 47.6716966,31.6715716 C54.0819588,25.2613095 64.4745412,25.2613095 70.8848034,31.6715716 C74.6518021,35.4385703 76.3041729,40.7076459 75.4886884,45.8540062 L75.8471812,45.9199882 C76.6832139,40.6547682 74.9946471,35.2657113 71.1426966,31.4146784 C64.5901045,24.8620863 53.9666668,24.861786 47.4138296,31.4136522 C40.8620568,37.966396 40.8620568,48.589854 47.4137737,55.1425419 C53.0031934,60.7310225 61.6801304,61.6200688 68.2431972,57.4606513 L68.0373585,57.160303 Z"></path>
                        </g>
                    </g>
                    <g id="Group-2-Copy" transform="translate(282.000000, 97.000000)">
                        <rect id="Rectangle-3-Copy-2" fill="#70C2D3" x="0" y="0" width="118" height="86"></rect>
                        <g id="Fill-22">
                            <use fill="#F57C00" fill-rule="evenodd" xlink:href="#path-2"></use>
                            <path stroke="#F57C00" stroke-width="1" d="M68.0373585,57.160303 C61.6165861,61.2213824 53.1356448,60.3486266 47.6716966,54.8846784 C41.2614345,48.4744163 41.2614345,38.0818338 47.6716966,31.6715716 C54.0819588,25.2613095 64.4745412,25.2613095 70.8848034,31.6715716 C74.6518021,35.4385703 76.3041729,40.7076459 75.4886884,45.8540062 L75.8471812,45.9199882 C76.6832139,40.6547682 74.9946471,35.2657113 71.1426966,31.4146784 C64.5901045,24.8620863 53.9666668,24.861786 47.4138296,31.4136522 C40.8620568,37.966396 40.8620568,48.589854 47.4137737,55.1425419 C53.0031934,60.7310225 61.6801304,61.6200688 68.2431972,57.4606513 L68.0373585,57.160303 Z"></path>
                        </g>
                    </g>
                    <g id="Group-2-Copy-2" transform="translate(409.000000, 97.000000)">
                        <rect id="Rectangle-3-Copy-2" fill="#70C2D3" x="0" y="0" width="118" height="86"></rect>
                        <g id="Fill-22">
                            <use fill="#F57C00" fill-rule="evenodd" xlink:href="#path-3"></use>
                            <path stroke="#F57C00" stroke-width="1" d="M68.0373585,57.160303 C61.6165861,61.2213824 53.1356448,60.3486266 47.6716966,54.8846784 C41.2614345,48.4744163 41.2614345,38.0818338 47.6716966,31.6715716 C54.0819588,25.2613095 64.4745412,25.2613095 70.8848034,31.6715716 C74.6518021,35.4385703 76.3041729,40.7076459 75.4886884,45.8540062 L75.8471812,45.9199882 C76.6832139,40.6547682 74.9946471,35.2657113 71.1426966,31.4146784 C64.5901045,24.8620863 53.9666668,24.861786 47.4138296,31.4136522 C40.8620568,37.966396 40.8620568,48.589854 47.4137737,55.1425419 C53.0031934,60.7310225 61.6801304,61.6200688 68.2431972,57.4606513 L68.0373585,57.160303 Z"></path>
                        </g>
                    </g>
                </g>
            </g>
        </g>
    </g>
</svg>