<?xml version="1.0" encoding="UTF-8"?>
<svg width="633px" height="246px" viewBox="0 0 633 246" version="1.1" xmlns="http://www.w3.org/2000/svg" xmlns:xlink="http://www.w3.org/1999/xlink">
    <!-- Generator: Sketch 47.1 (45422) - http://www.bohemiancoding.com/sketch -->
    <title>Custom Preset Copy</title>
    <desc>Created with Sketch.</desc>
    <defs>
        <polygon id="path-1" points="7 3.5 0 7 0 0"></polygon>
    </defs>
    <g id="Page-1" stroke="none" stroke-width="1" fill="none" fill-rule="evenodd">
        <g id="Custom-Preset-Copy">
            <g id="specs-/-redlines-/-line-inclusive" transform="translate(285.000000, 113.000000) scale(-1, 1) translate(-285.000000, -113.000000) translate(235.000000, 99.000000)">
                <path d="M0,13.86 L100,13.86" id="redline-line" stroke="#EC407A" stroke-width="1"></path>
                <path d="M0.5,0.14 L0.5,27.86" id="Line" stroke="#F0367A" stroke-width="1" stroke-linecap="square"></path>
                <g id="specs-/-redlines-/-line-end-/-arrow" transform="translate(94.000000, 10.360000)">
                    <g id="redline-end">
                        <use fill="#FFFFFF" fill-rule="evenodd" xlink:href="#path-1"></use>
                        <path stroke="#EC407A" stroke-width="1" d="M5.88196601,3.5 L0.5,0.809016994 L0.5,6.19098301 L5.88196601,3.5 Z"></path>
                    </g>
                </g>
            </g>
            <path d="M352.884766,94.3945312 L350.142578,94.3945312 L350.142578,102 L349.023438,102 L349.023438,94.3945312 L346.287109,94.3945312 L346.287109,93.46875 L352.884766,93.46875 L352.884766,94.3945312 Z M356.03125,102.117188 C355.171871,102.117188 354.472659,101.834964 353.933594,101.270508 C353.394529,100.706052 353.125,99.9511766 353.125,99.0058594 L353.125,98.8066406 C353.125,98.1777312 353.245116,97.6162134 353.485352,97.1220703 C353.725587,96.6279272 354.061521,96.2412123 354.493164,95.9619141 C354.924807,95.6826158 355.392576,95.5429688 355.896484,95.5429688 C356.720707,95.5429688 357.361326,95.8144504 357.818359,96.3574219 C358.275393,96.9003933 358.503906,97.6777293 358.503906,98.6894531 L358.503906,99.140625 L354.208984,99.140625 C354.224609,99.7656281 354.407225,100.270506 354.756836,100.655273 C355.106447,101.040041 355.550779,101.232422 356.089844,101.232422 C356.472658,101.232422 356.796874,101.154298 357.0625,100.998047 C357.328126,100.841796 357.560546,100.634767 357.759766,100.376953 L358.421875,100.892578 C357.890622,101.708988 357.093755,102.117188 356.03125,102.117188 Z M355.896484,96.4335938 C355.458982,96.4335938 355.091798,96.5927718 354.794922,96.9111328 C354.498045,97.2294938 354.314453,97.6757784 354.244141,98.25 L357.419922,98.25 L357.419922,98.1679688 C357.388672,97.6171847 357.240236,97.1904312 356.974609,96.8876953 C356.708983,96.5849594 356.349612,96.4335938 355.896484,96.4335938 Z M361.884766,97.9746094 L363.291016,95.6601562 L364.556641,95.6601562 L362.482422,98.7949219 L364.621094,102 L363.367188,102 L361.902344,99.6269531 L360.4375,102 L359.177734,102 L361.316406,98.7949219 L359.242188,95.6601562 L360.496094,95.6601562 L361.884766,97.9746094 Z M367.175781,94.125 L367.175781,95.6601562 L368.359375,95.6601562 L368.359375,96.4980469 L367.175781,96.4980469 L367.175781,100.429688 C367.175781,100.683595 367.228515,100.874023 367.333984,101.000977 C367.439454,101.12793 367.619139,101.191406 367.873047,101.191406 C367.998047,101.191406 368.169921,101.167969 368.388672,101.121094 L368.388672,102 C368.103514,102.078125 367.826173,102.117188 367.556641,102.117188 C367.072263,102.117188 366.707032,101.970705 366.460938,101.677734 C366.214843,101.384764 366.091797,100.968753 366.091797,100.429688 L366.091797,96.4980469 L364.9375,96.4980469 L364.9375,95.6601562 L366.091797,95.6601562 L366.091797,94.125 L367.175781,94.125 Z M369.589844,101.431641 C369.589844,101.24414 369.645507,101.087891 369.756836,100.962891 C369.868165,100.83789 370.035155,100.775391 370.257812,100.775391 C370.48047,100.775391 370.649413,100.83789 370.764648,100.962891 C370.879883,101.087891 370.9375,101.24414 370.9375,101.431641 C370.9375,101.611329 370.879883,101.761718 370.764648,101.882812 C370.649413,102.003907 370.48047,102.064453 370.257812,102.064453 C370.035155,102.064453 369.868165,102.003907 369.756836,101.882812 C369.645507,101.761718 369.589844,101.611329 369.589844,101.431641 Z M369.595703,96.2578125 C369.595703,96.0703116 369.651367,95.9140631 369.762695,95.7890625 C369.874024,95.6640619 370.041015,95.6015625 370.263672,95.6015625 C370.486329,95.6015625 370.655273,95.6640619 370.770508,95.7890625 C370.885743,95.9140631 370.943359,96.0703116 370.943359,96.2578125 C370.943359,96.4375009 370.885743,96.58789 370.770508,96.7089844 C370.655273,96.8300787 370.486329,96.890625 370.263672,96.890625 C370.041015,96.890625 369.874024,96.8300787 369.762695,96.7089844 C369.651367,96.58789 369.595703,96.4375009 369.595703,96.2578125 Z M379.164062,99.5976562 L377.617188,99.5976562 L377.148438,102 L376.310547,102 L376.779297,99.5976562 L375.378906,99.5976562 L375.378906,98.7949219 L376.931641,98.7949219 L377.335938,96.7207031 L375.824219,96.7207031 L375.824219,95.90625 L377.494141,95.90625 L377.974609,93.46875 L378.8125,93.46875 L378.332031,95.90625 L379.878906,95.90625 L380.359375,93.46875 L381.203125,93.46875 L380.722656,95.90625 L381.917969,95.90625 L381.917969,96.7207031 L380.564453,96.7207031 L380.160156,98.7949219 L381.478516,98.7949219 L381.478516,99.5976562 L380.007812,99.5976562 L379.539062,102 L378.695312,102 L379.164062,99.5976562 Z M377.769531,98.7949219 L379.316406,98.7949219 L379.720703,96.7207031 L378.173828,96.7207031 L377.769531,98.7949219 Z M388.287109,94.078125 L384.753906,102 L383.617188,102 L387.138672,94.359375 L382.521484,94.359375 L382.521484,93.46875 L388.287109,93.46875 L388.287109,94.078125 Z M390.015625,97.7226562 L390.449219,93.46875 L394.820312,93.46875 L394.820312,94.4707031 L391.369141,94.4707031 L391.111328,96.796875 C391.529299,96.55078 392.003904,96.4277344 392.535156,96.4277344 C393.312504,96.4277344 393.929685,96.6845677 394.386719,97.1982422 C394.843752,97.7119166 395.072266,98.4062456 395.072266,99.28125 C395.072266,100.160161 394.834963,100.852537 394.360352,101.358398 C393.88574,101.86426 393.222661,102.117188 392.371094,102.117188 C391.617184,102.117188 391.001956,101.908205 390.525391,101.490234 C390.048826,101.072264 389.777344,100.494144 389.710938,99.7558594 L390.736328,99.7558594 C390.802735,100.244143 390.976561,100.612303 391.257812,100.860352 C391.539064,101.1084 391.910154,101.232422 392.371094,101.232422 C392.875003,101.232422 393.270506,101.060549 393.557617,100.716797 C393.844728,100.373045 393.988281,99.8984405 393.988281,99.2929688 C393.988281,98.7226534 393.833009,98.2646502 393.522461,97.9189453 C393.211913,97.5732405 392.798831,97.4003906 392.283203,97.4003906 C391.810545,97.4003906 391.439454,97.5039052 391.169922,97.7109375 L390.882812,97.9453125 L390.015625,97.7226562 Z M401.763672,94.078125 L398.230469,102 L397.09375,102 L400.615234,94.359375 L395.998047,94.359375 L395.998047,93.46875 L401.763672,93.46875 L401.763672,94.078125 Z M403.492188,97.7226562 L403.925781,93.46875 L408.296875,93.46875 L408.296875,94.4707031 L404.845703,94.4707031 L404.587891,96.796875 C405.005861,96.55078 405.480466,96.4277344 406.011719,96.4277344 C406.789066,96.4277344 407.406248,96.6845677 407.863281,97.1982422 C408.320315,97.7119166 408.548828,98.4062456 408.548828,99.28125 C408.548828,100.160161 408.311526,100.852537 407.836914,101.358398 C407.362302,101.86426 406.699223,102.117188 405.847656,102.117188 C405.093746,102.117188 404.478518,101.908205 404.001953,101.490234 C403.525388,101.072264 403.253907,100.494144 403.1875,99.7558594 L404.212891,99.7558594 C404.279297,100.244143 404.453124,100.612303 404.734375,100.860352 C405.015626,101.1084 405.386716,101.232422 405.847656,101.232422 C406.351565,101.232422 406.747069,101.060549 407.03418,100.716797 C407.32129,100.373045 407.464844,99.8984405 407.464844,99.2929688 C407.464844,98.7226534 407.309572,98.2646502 406.999023,97.9189453 C406.688475,97.5732405 406.275393,97.4003906 405.759766,97.4003906 C405.287107,97.4003906 404.916017,97.5039052 404.646484,97.7109375 L404.359375,97.9453125 L403.492188,97.7226562 Z M415.240234,94.078125 L411.707031,102 L410.570312,102 L414.091797,94.359375 L409.474609,94.359375 L409.474609,93.46875 L415.240234,93.46875 L415.240234,94.078125 Z M416.96875,97.7226562 L417.402344,93.46875 L421.773438,93.46875 L421.773438,94.4707031 L418.322266,94.4707031 L418.064453,96.796875 C418.482424,96.55078 418.957029,96.4277344 419.488281,96.4277344 C420.265629,96.4277344 420.88281,96.6845677 421.339844,97.1982422 C421.796877,97.7119166 422.025391,98.4062456 422.025391,99.28125 C422.025391,100.160161 421.788088,100.852537 421.313477,101.358398 C420.838865,101.86426 420.175786,102.117188 419.324219,102.117188 C418.570309,102.117188 417.955081,101.908205 417.478516,101.490234 C417.001951,101.072264 416.730469,100.494144 416.664062,99.7558594 L417.689453,99.7558594 C417.75586,100.244143 417.929686,100.612303 418.210938,100.860352 C418.492189,101.1084 418.863279,101.232422 419.324219,101.232422 C419.828128,101.232422 420.223631,101.060549 420.510742,100.716797 C420.797853,100.373045 420.941406,99.8984405 420.941406,99.2929688 C420.941406,98.7226534 420.786134,98.2646502 420.475586,97.9189453 C420.165038,97.5732405 419.751956,97.4003906 419.236328,97.4003906 C418.76367,97.4003906 418.392579,97.5039052 418.123047,97.7109375 L417.835938,97.9453125 L416.96875,97.7226562 Z M426.25,98.5371094 C426.25,97.6542925 426.368163,96.8066447 426.604492,95.9941406 C426.840821,95.1816366 427.193357,94.4433627 427.662109,93.7792969 C428.130862,93.1152311 428.617185,92.6464857 429.121094,92.3730469 L429.34375,93.0878906 C428.773435,93.5253928 428.305666,94.1933549 427.94043,95.0917969 C427.575193,95.9902389 427.375,96.9960882 427.339844,98.109375 L427.333984,98.6074219 C427.333984,100.115242 427.609372,101.423823 428.160156,102.533203 C428.492189,103.197269 428.886716,103.716795 429.34375,104.091797 L429.121094,104.753906 C428.60156,104.464842 428.105471,103.980472 427.632812,103.300781 C426.710933,101.97265 426.25,100.384775 426.25,98.5371094 Z M436.861328,100.880859 C436.572264,101.294924 436.168948,101.604491 435.651367,101.80957 C435.133786,102.014649 434.531253,102.117188 433.84375,102.117188 C433.148434,102.117188 432.531253,101.954103 431.992188,101.62793 C431.453122,101.301756 431.036134,100.837894 430.741211,100.236328 C430.446288,99.6347626 430.294922,98.937504 430.287109,98.1445312 L430.287109,97.4003906 C430.287109,96.1152279 430.586911,95.1191442 431.186523,94.4121094 C431.786136,93.7050746 432.628901,93.3515625 433.714844,93.3515625 C434.605473,93.3515625 435.322263,93.5790993 435.865234,94.0341797 C436.408206,94.4892601 436.740234,95.1347614 436.861328,95.9707031 L435.736328,95.9707031 C435.52539,94.8417912 434.853521,94.2773438 433.720703,94.2773438 C432.966793,94.2773438 432.39551,94.5419895 432.006836,95.0712891 C431.618162,95.6005886 431.421875,96.3671825 431.417969,97.3710938 L431.417969,98.0683594 C431.417969,99.0253954 431.636717,99.78613 432.074219,100.350586 C432.511721,100.915042 433.103512,101.197266 433.849609,101.197266 C434.271486,101.197266 434.640623,101.150391 434.957031,101.056641 C435.273439,100.96289 435.535155,100.804689 435.742188,100.582031 L435.742188,98.6660156 L433.767578,98.6660156 L433.767578,97.7519531 L436.861328,97.7519531 L436.861328,100.880859 Z M441.630859,96.6328125 C441.466796,96.6054686 441.289063,96.5917969 441.097656,96.5917969 C440.386715,96.5917969 439.904298,96.8945282 439.650391,97.5 L439.650391,102 L438.566406,102 L438.566406,95.6601562 L439.621094,95.6601562 L439.638672,96.3925781 C439.994142,95.826169 440.498044,95.5429688 441.150391,95.5429688 C441.361329,95.5429688 441.521484,95.5703122 441.630859,95.625 L441.630859,96.6328125 Z M446.306641,102 C446.24414,101.874999 446.19336,101.652345 446.154297,101.332031 C445.650388,101.855471 445.048832,102.117188 444.349609,102.117188 C443.724606,102.117188 443.211916,101.940431 442.811523,101.586914 C442.411131,101.233397 442.210938,100.785159 442.210938,100.242188 C442.210938,99.5820279 442.461912,99.0693378 442.963867,98.7041016 C443.465823,98.3388654 444.17187,98.15625 445.082031,98.15625 L446.136719,98.15625 L446.136719,97.6582031 C446.136719,97.279295 446.023439,96.9775402 445.796875,96.7529297 C445.570311,96.5283192 445.23633,96.4160156 444.794922,96.4160156 C444.408201,96.4160156 444.083986,96.5136709 443.822266,96.7089844 C443.560546,96.9042979 443.429688,97.1406236 443.429688,97.4179688 L442.339844,97.4179688 C442.339844,97.1015609 442.452147,96.7958999 442.676758,96.5009766 C442.901368,96.2060532 443.206053,95.9726571 443.59082,95.8007812 C443.975588,95.6289054 444.398435,95.5429688 444.859375,95.5429688 C445.589847,95.5429688 446.162107,95.7255841 446.576172,96.0908203 C446.990236,96.4560565 447.205078,96.9589812 447.220703,97.5996094 L447.220703,100.517578 C447.220703,101.099612 447.294921,101.562498 447.443359,101.90625 L447.443359,102 L446.306641,102 Z M444.507812,101.173828 C444.847658,101.173828 445.16992,101.085938 445.474609,100.910156 C445.779298,100.734374 445.999999,100.505861 446.136719,100.224609 L446.136719,98.9238281 L445.287109,98.9238281 C443.958978,98.9238281 443.294922,99.3124961 443.294922,100.089844 C443.294922,100.429689 443.408202,100.695312 443.634766,100.886719 C443.861329,101.078126 444.152342,101.173828 444.507812,101.173828 Z M450.90625,100.412109 L452.382812,95.6601562 L453.542969,95.6601562 L450.994141,102.978516 C450.599607,104.033208 449.972661,104.560547 449.113281,104.560547 L448.908203,104.542969 L448.503906,104.466797 L448.503906,103.587891 L448.796875,103.611328 C449.164064,103.611328 449.450194,103.53711 449.655273,103.388672 C449.860353,103.240234 450.029296,102.968752 450.162109,102.574219 L450.402344,101.929688 L448.140625,95.6601562 L449.324219,95.6601562 L450.90625,100.412109 Z M462.876953,94.078125 L459.34375,102 L458.207031,102 L461.728516,94.359375 L457.111328,94.359375 L457.111328,93.46875 L462.876953,93.46875 L462.876953,94.078125 Z M469.457031,98.3613281 C469.457031,99.6308657 469.240237,100.574216 468.806641,101.191406 C468.373045,101.808597 467.695317,102.117188 466.773438,102.117188 C465.863277,102.117188 465.189455,101.815433 464.751953,101.211914 C464.314451,100.608395 464.087891,99.7070372 464.072266,98.5078125 L464.072266,97.0605469 C464.072266,95.8066344 464.28906,94.875003 464.722656,94.265625 C465.156252,93.656247 465.835933,93.3515625 466.761719,93.3515625 C467.679692,93.3515625 468.355467,93.6455049 468.789062,94.2333984 C469.222658,94.821292 469.445312,95.7285095 469.457031,96.9550781 L469.457031,98.3613281 Z M468.373047,96.8789062 C468.373047,95.9609329 468.244142,95.2919943 467.986328,94.8720703 C467.728514,94.4521463 467.320315,94.2421875 466.761719,94.2421875 C466.207028,94.2421875 465.802736,94.4511698 465.548828,94.8691406 C465.294921,95.2871115 465.164063,95.9296832 465.15625,96.796875 L465.15625,98.53125 C465.15625,99.4531296 465.290038,100.133787 465.557617,100.573242 C465.825197,101.012698 466.230466,101.232422 466.773438,101.232422 C467.308596,101.232422 467.706053,101.025393 467.96582,100.611328 C468.225587,100.197264 468.361328,99.5449263 468.373047,98.6542969 L468.373047,96.8789062 Z M476.195312,98.3613281 C476.195312,99.6308657 475.978518,100.574216 475.544922,101.191406 C475.111326,101.808597 474.433598,102.117188 473.511719,102.117188 C472.601558,102.117188 471.927737,101.815433 471.490234,101.211914 C471.052732,100.608395 470.826172,99.7070372 470.810547,98.5078125 L470.810547,97.0605469 C470.810547,95.8066344 471.027342,94.875003 471.460938,94.265625 C471.894533,93.656247 472.574214,93.3515625 473.5,93.3515625 C474.417973,93.3515625 475.093748,93.6455049 475.527344,94.2333984 C475.96094,94.821292 476.183594,95.7285095 476.195312,96.9550781 L476.195312,98.3613281 Z M475.111328,96.8789062 C475.111328,95.9609329 474.982423,95.2919943 474.724609,94.8720703 C474.466796,94.4521463 474.058597,94.2421875 473.5,94.2421875 C472.94531,94.2421875 472.541017,94.4511698 472.287109,94.8691406 C472.033202,95.2871115 471.902344,95.9296832 471.894531,96.796875 L471.894531,98.53125 C471.894531,99.4531296 472.028319,100.133787 472.295898,100.573242 C472.563478,101.012698 472.968747,101.232422 473.511719,101.232422 C474.046878,101.232422 474.444335,101.025393 474.704102,100.611328 C474.963868,100.197264 475.099609,99.5449263 475.111328,98.6542969 L475.111328,96.8789062 Z M480.197266,98.5957031 C480.197266,99.4668012 480.083009,100.301754 479.854492,101.100586 C479.625975,101.899418 479.27637,102.636715 478.805664,103.3125 C478.334959,103.988285 477.841799,104.468749 477.326172,104.753906 L477.097656,104.091797 C477.699222,103.630857 478.182615,102.915044 478.547852,101.944336 C478.913088,100.973628 479.099609,99.8964903 479.107422,98.7128906 L479.107422,98.5253906 C479.107422,97.705074 479.021485,96.9423863 478.849609,96.2373047 C478.677734,95.532223 478.438478,94.9003934 478.131836,94.3417969 C477.825194,93.7832003 477.480471,93.3476578 477.097656,93.0351562 L477.326172,92.3730469 C477.841799,92.6582046 478.333005,93.1347623 478.799805,93.8027344 C479.266604,94.4707065 479.61621,95.2070272 479.848633,96.0117188 C480.081056,96.8164103 480.197266,97.6777298 480.197266,98.5957031 Z M346.990234,116 L346.990234,107.46875 L349.779297,107.46875 C350.705083,107.46875 351.401365,107.660154 351.868164,108.042969 C352.334963,108.425783 352.568359,108.992184 352.568359,109.742188 C352.568359,110.140627 352.455079,110.493163 352.228516,110.799805 C352.001952,111.106447 351.693361,111.343749 351.302734,111.511719 C351.763674,111.640626 352.127928,111.88574 352.395508,112.24707 C352.663087,112.6084 352.796875,113.03906 352.796875,113.539062 C352.796875,114.304691 352.548831,114.906248 352.052734,115.34375 C351.556638,115.781252 350.855473,116 349.949219,116 L346.990234,116 Z M348.115234,112.009766 L348.115234,115.080078 L349.972656,115.080078 C350.496096,115.080078 350.909178,114.944337 351.211914,114.672852 C351.51465,114.401366 351.666016,114.027346 351.666016,113.550781 C351.666016,112.523432 351.107427,112.009766 349.990234,112.009766 L348.115234,112.009766 Z M348.115234,111.107422 L349.814453,111.107422 C350.306643,111.107422 350.700194,110.984376 350.995117,110.738281 C351.290041,110.492186 351.4375,110.158205 351.4375,109.736328 C351.4375,109.267576 351.300783,108.926759 351.027344,108.713867 C350.753905,108.500975 350.337893,108.394531 349.779297,108.394531 L348.115234,108.394531 L348.115234,111.107422 Z M358.205078,116 C358.142578,115.874999 358.091797,115.652345 358.052734,115.332031 C357.548826,115.855471 356.947269,116.117188 356.248047,116.117188 C355.623044,116.117188 355.110354,115.940431 354.709961,115.586914 C354.309568,115.233397 354.109375,114.785159 354.109375,114.242188 C354.109375,113.582028 354.360349,113.069338 354.862305,112.704102 C355.36426,112.338865 356.070308,112.15625 356.980469,112.15625 L358.035156,112.15625 L358.035156,111.658203 C358.035156,111.279295 357.921876,110.97754 357.695312,110.75293 C357.468749,110.528319 357.134768,110.416016 356.693359,110.416016 C356.306639,110.416016 355.982423,110.513671 355.720703,110.708984 C355.458983,110.904298 355.328125,111.140624 355.328125,111.417969 L354.238281,111.417969 C354.238281,111.101561 354.350585,110.7959 354.575195,110.500977 C354.799806,110.206053 355.10449,109.972657 355.489258,109.800781 C355.874025,109.628905 356.296873,109.542969 356.757812,109.542969 C357.488285,109.542969 358.060545,109.725584 358.474609,110.09082 C358.888674,110.456057 359.103516,110.958981 359.119141,111.599609 L359.119141,114.517578 C359.119141,115.099612 359.193359,115.562498 359.341797,115.90625 L359.341797,116 L358.205078,116 Z M356.40625,115.173828 C356.746095,115.173828 357.068358,115.085938 357.373047,114.910156 C357.677736,114.734374 357.898437,114.505861 358.035156,114.224609 L358.035156,112.923828 L357.185547,112.923828 C355.857415,112.923828 355.193359,113.312496 355.193359,114.089844 C355.193359,114.429689 355.306639,114.695312 355.533203,114.886719 C355.759767,115.078126 356.050779,115.173828 356.40625,115.173828 Z M363.361328,115.232422 C363.748049,115.232422 364.085936,115.115236 364.375,114.880859 C364.664064,114.646483 364.824219,114.353517 364.855469,114.001953 L365.880859,114.001953 C365.861328,114.365236 365.736329,114.710936 365.505859,115.039062 C365.275389,115.367189 364.967775,115.628905 364.583008,115.824219 C364.19824,116.019532 363.791018,116.117188 363.361328,116.117188 C362.498043,116.117188 361.811526,115.829104 361.301758,115.25293 C360.79199,114.676755 360.537109,113.888677 360.537109,112.888672 L360.537109,112.707031 C360.537109,112.089841 360.650389,111.541018 360.876953,111.060547 C361.103517,110.580076 361.428709,110.207033 361.852539,109.941406 C362.276369,109.67578 362.777341,109.542969 363.355469,109.542969 C364.06641,109.542969 364.657224,109.755857 365.12793,110.181641 C365.598635,110.607424 365.849609,111.160153 365.880859,111.839844 L364.855469,111.839844 C364.824219,111.429685 364.668947,111.092775 364.389648,110.829102 C364.11035,110.565428 363.765627,110.433594 363.355469,110.433594 C362.804685,110.433594 362.377931,110.631834 362.075195,111.02832 C361.772459,111.424807 361.621094,111.998043 361.621094,112.748047 L361.621094,112.953125 C361.621094,113.683597 361.771483,114.246092 362.072266,114.640625 C362.373048,115.035158 362.802732,115.232422 363.361328,115.232422 Z M368.869141,113.064453 L368.189453,113.773438 L368.189453,116 L367.105469,116 L367.105469,107 L368.189453,107 L368.189453,112.443359 L368.769531,111.746094 L370.744141,109.660156 L372.0625,109.660156 L369.595703,112.308594 L372.349609,116 L371.078125,116 L368.869141,113.064453 Z M372.806641,112.777344 C372.806641,111.789058 373.035154,111.002933 373.492188,110.418945 C373.949221,109.834958 374.554684,109.542969 375.308594,109.542969 C376.082035,109.542969 376.685545,109.816404 377.119141,110.363281 L377.171875,109.660156 L378.162109,109.660156 L378.162109,115.847656 C378.162109,116.667973 377.918948,117.314451 377.432617,117.787109 C376.946287,118.259768 376.292973,118.496094 375.472656,118.496094 C375.015623,118.496094 374.568362,118.398438 374.130859,118.203125 C373.693357,118.007812 373.359376,117.740236 373.128906,117.400391 L373.691406,116.75 C374.156252,117.324222 374.724606,117.611328 375.396484,117.611328 C375.923831,117.611328 376.334959,117.462892 376.629883,117.166016 C376.924806,116.869139 377.072266,116.451175 377.072266,115.912109 L377.072266,115.367188 C376.63867,115.86719 376.046879,116.117188 375.296875,116.117188 C374.554684,116.117188 373.954104,115.818362 373.495117,115.220703 C373.036131,114.623044 372.806641,113.808599 372.806641,112.777344 Z M373.896484,112.900391 C373.896484,113.615238 374.042967,114.176756 374.335938,114.584961 C374.628908,114.993166 375.03906,115.197266 375.566406,115.197266 C376.250003,115.197266 376.751952,114.886722 377.072266,114.265625 L377.072266,111.371094 C376.740233,110.765622 376.242191,110.462891 375.578125,110.462891 C375.050779,110.462891 374.638673,110.667967 374.341797,111.078125 C374.04492,111.488283 373.896484,112.095699 373.896484,112.900391 Z M382.861328,110.632812 C382.697265,110.605469 382.519532,110.591797 382.328125,110.591797 C381.617184,110.591797 381.134767,110.894528 380.880859,111.5 L380.880859,116 L379.796875,116 L379.796875,109.660156 L380.851562,109.660156 L380.869141,110.392578 C381.224611,109.826169 381.728512,109.542969 382.380859,109.542969 C382.591798,109.542969 382.751953,109.570312 382.861328,109.625 L382.861328,110.632812 Z M383.453125,112.771484 C383.453125,112.150388 383.575194,111.591799 383.819336,111.095703 C384.063478,110.599607 384.403318,110.216798 384.838867,109.947266 C385.274416,109.677733 385.771482,109.542969 386.330078,109.542969 C387.193364,109.542969 387.891599,109.841794 388.424805,110.439453 C388.95801,111.037112 389.224609,111.832026 389.224609,112.824219 L389.224609,112.900391 C389.224609,113.517581 389.106446,114.071287 388.870117,114.561523 C388.633788,115.05176 388.295901,115.433592 387.856445,115.707031 C387.41699,115.98047 386.912112,116.117188 386.341797,116.117188 C385.482418,116.117188 384.786135,115.818362 384.25293,115.220703 C383.719724,114.623044 383.453125,113.832036 383.453125,112.847656 L383.453125,112.771484 Z M384.542969,112.900391 C384.542969,113.603519 384.706053,114.167967 385.032227,114.59375 C385.3584,115.019533 385.794919,115.232422 386.341797,115.232422 C386.892581,115.232422 387.330077,115.016604 387.654297,114.584961 C387.978517,114.153318 388.140625,113.548832 388.140625,112.771484 C388.140625,112.076168 387.975588,111.512697 387.645508,111.081055 C387.315428,110.649412 386.876956,110.433594 386.330078,110.433594 C385.794919,110.433594 385.363283,110.646482 385.035156,111.072266 C384.70703,111.498049 384.542969,112.107418 384.542969,112.900391 Z M394.498047,115.373047 C394.07617,115.869143 393.457035,116.117188 392.640625,116.117188 C391.96484,116.117188 391.450197,115.9209 391.09668,115.52832 C390.743162,115.13574 390.564453,114.554691 390.560547,113.785156 L390.560547,109.660156 L391.644531,109.660156 L391.644531,113.755859 C391.644531,114.716802 392.035152,115.197266 392.816406,115.197266 C393.644535,115.197266 394.195311,114.888675 394.46875,114.271484 L394.46875,109.660156 L395.552734,109.660156 L395.552734,116 L394.521484,116 L394.498047,115.373047 Z M398.224609,109.660156 L398.259766,110.457031 C398.744143,109.847653 399.376949,109.542969 400.158203,109.542969 C401.498054,109.542969 402.173828,110.298821 402.185547,111.810547 L402.185547,116 L401.101562,116 L401.101562,111.804688 C401.097656,111.347654 400.993165,111.009767 400.788086,110.791016 C400.583007,110.572265 400.263674,110.462891 399.830078,110.462891 C399.478514,110.462891 399.169923,110.55664 398.904297,110.744141 C398.638671,110.931642 398.431641,111.177733 398.283203,111.482422 L398.283203,116 L397.199219,116 L397.199219,109.660156 L398.224609,109.660156 Z M403.556641,112.777344 C403.556641,111.804683 403.787107,111.022464 404.248047,110.430664 C404.708987,109.838864 405.312496,109.542969 406.058594,109.542969 C406.800785,109.542969 407.38867,109.796872 407.822266,110.304688 L407.822266,107 L408.90625,107 L408.90625,116 L407.910156,116 L407.857422,115.320312 C407.423826,115.851565 406.820316,116.117188 406.046875,116.117188 C405.312496,116.117188 404.71387,115.816409 404.250977,115.214844 C403.788084,114.613278 403.556641,113.82813 403.556641,112.859375 L403.556641,112.777344 Z M404.640625,112.900391 C404.640625,113.619144 404.789061,114.181639 405.085938,114.587891 C405.382814,114.994143 405.792966,115.197266 406.316406,115.197266 C407.00391,115.197266 407.505858,114.888675 407.822266,114.271484 L407.822266,111.359375 C407.498045,110.761716 407.000003,110.462891 406.328125,110.462891 C405.796872,110.462891 405.382814,110.667967 405.085938,111.078125 C404.789061,111.488283 404.640625,112.095699 404.640625,112.900391 Z M410.552734,115.431641 C410.552734,115.24414 410.608398,115.087891 410.719727,114.962891 C410.831055,114.83789 410.998046,114.775391 411.220703,114.775391 C411.44336,114.775391 411.612304,114.83789 411.727539,114.962891 C411.842774,115.087891 411.900391,115.24414 411.900391,115.431641 C411.900391,115.611329 411.842774,115.761718 411.727539,115.882812 C411.612304,116.003907 411.44336,116.064453 411.220703,116.064453 C410.998046,116.064453 410.831055,116.003907 410.719727,115.882812 C410.608398,115.761718 410.552734,115.611329 410.552734,115.431641 Z M410.558594,110.257812 C410.558594,110.070312 410.614257,109.914063 410.725586,109.789062 C410.836915,109.664062 411.003905,109.601562 411.226562,109.601562 C411.44922,109.601562 411.618163,109.664062 411.733398,109.789062 C411.848633,109.914063 411.90625,110.070312 411.90625,110.257812 C411.90625,110.437501 411.848633,110.58789 411.733398,110.708984 C411.618163,110.830079 411.44922,110.890625 411.226562,110.890625 C411.003905,110.890625 410.836915,110.830079 410.725586,110.708984 C410.614257,110.58789 410.558594,110.437501 410.558594,110.257812 Z M420.126953,113.597656 L418.580078,113.597656 L418.111328,116 L417.273438,116 L417.742188,113.597656 L416.341797,113.597656 L416.341797,112.794922 L417.894531,112.794922 L418.298828,110.720703 L416.787109,110.720703 L416.787109,109.90625 L418.457031,109.90625 L418.9375,107.46875 L419.775391,107.46875 L419.294922,109.90625 L420.841797,109.90625 L421.322266,107.46875 L422.166016,107.46875 L421.685547,109.90625 L422.880859,109.90625 L422.880859,110.720703 L421.527344,110.720703 L421.123047,112.794922 L422.441406,112.794922 L422.441406,113.597656 L420.970703,113.597656 L420.501953,116 L419.658203,116 L420.126953,113.597656 Z M418.732422,112.794922 L420.279297,112.794922 L420.683594,110.720703 L419.136719,110.720703 L418.732422,112.794922 Z M423.589844,112.777344 C423.589844,111.804683 423.82031,111.022464 424.28125,110.430664 C424.74219,109.838864 425.345699,109.542969 426.091797,109.542969 C426.833988,109.542969 427.421873,109.796872 427.855469,110.304688 L427.855469,107 L428.939453,107 L428.939453,116 L427.943359,116 L427.890625,115.320312 C427.457029,115.851565 426.853519,116.117188 426.080078,116.117188 C425.345699,116.117188 424.747073,115.816409 424.28418,115.214844 C423.821287,114.613278 423.589844,113.82813 423.589844,112.859375 L423.589844,112.777344 Z M424.673828,112.900391 C424.673828,113.619144 424.822264,114.181639 425.119141,114.587891 C425.416017,114.994143 425.826169,115.197266 426.349609,115.197266 C427.037113,115.197266 427.539061,114.888675 427.855469,114.271484 L427.855469,111.359375 C427.531248,110.761716 427.033206,110.462891 426.361328,110.462891 C425.830075,110.462891 425.416017,110.667967 425.119141,111.078125 C424.822264,111.488283 424.673828,112.095699 424.673828,112.900391 Z M435.683594,109.695312 C435.683594,110.121096 435.57129,110.499998 435.34668,110.832031 C435.122069,111.164064 434.818361,111.423827 434.435547,111.611328 C434.880862,111.802735 435.233397,112.082029 435.493164,112.449219 C435.752931,112.816408 435.882812,113.23242 435.882812,113.697266 C435.882812,114.435551 435.633792,115.023435 435.135742,115.460938 C434.637693,115.89844 433.982426,116.117188 433.169922,116.117188 C432.349605,116.117188 431.692385,115.897463 431.198242,115.458008 C430.704099,115.018552 430.457031,114.431644 430.457031,113.697266 C430.457031,113.236326 430.583007,112.820314 430.834961,112.449219 C431.086915,112.078123 431.435545,111.796876 431.880859,111.605469 C431.501951,111.417968 431.203126,111.158205 430.984375,110.826172 C430.765624,110.494139 430.65625,110.11719 430.65625,109.695312 C430.65625,108.976559 430.886716,108.406252 431.347656,107.984375 C431.808596,107.562498 432.416012,107.351562 433.169922,107.351562 C433.919926,107.351562 434.526365,107.562498 434.989258,107.984375 C435.452151,108.406252 435.683594,108.976559 435.683594,109.695312 Z M434.798828,113.673828 C434.798828,113.197263 434.647462,112.808595 434.344727,112.507812 C434.041991,112.20703 433.646487,112.056641 433.158203,112.056641 C432.669919,112.056641 432.278322,112.205077 431.983398,112.501953 C431.688475,112.79883 431.541016,113.189451 431.541016,113.673828 C431.541016,114.158206 431.684569,114.539061 431.97168,114.816406 C432.25879,115.093751 432.658201,115.232422 433.169922,115.232422 C433.677737,115.232422 434.07617,115.092775 434.365234,114.813477 C434.654298,114.534178 434.798828,114.154299 434.798828,113.673828 Z M433.169922,108.242188 C432.744138,108.242188 432.399415,108.374022 432.135742,108.637695 C431.872069,108.901369 431.740234,109.259763 431.740234,109.712891 C431.740234,110.146487 431.870116,110.497069 432.129883,110.764648 C432.38965,111.032228 432.736326,111.166016 433.169922,111.166016 C433.603518,111.166016 433.950194,111.032228 434.209961,110.764648 C434.469728,110.497069 434.599609,110.146487 434.599609,109.712891 C434.599609,109.279295 434.464845,108.925783 434.195312,108.652344 C433.92578,108.378905 433.583986,108.242188 433.169922,108.242188 Z M437.095703,112.777344 C437.095703,111.804683 437.32617,111.022464 437.787109,110.430664 C438.248049,109.838864 438.851559,109.542969 439.597656,109.542969 C440.339847,109.542969 440.927732,109.796872 441.361328,110.304688 L441.361328,107 L442.445312,107 L442.445312,116 L441.449219,116 L441.396484,115.320312 C440.962888,115.851565 440.359379,116.117188 439.585938,116.117188 C438.851559,116.117188 438.252932,115.816409 437.790039,115.214844 C437.327146,114.613278 437.095703,113.82813 437.095703,112.859375 L437.095703,112.777344 Z M438.179688,112.900391 C438.179688,113.619144 438.328124,114.181639 438.625,114.587891 C438.921876,114.994143 439.332029,115.197266 439.855469,115.197266 C440.542972,115.197266 441.04492,114.888675 441.361328,114.271484 L441.361328,111.359375 C441.037108,110.761716 440.539066,110.462891 439.867188,110.462891 C439.335935,110.462891 438.921876,110.667967 438.625,111.078125 C438.328124,111.488283 438.179688,112.095699 438.179688,112.900391 Z M449.189453,109.695312 C449.189453,110.121096 449.07715,110.499998 448.852539,110.832031 C448.627929,111.164064 448.324221,111.423827 447.941406,111.611328 C448.386721,111.802735 448.739257,112.082029 448.999023,112.449219 C449.25879,112.816408 449.388672,113.23242 449.388672,113.697266 C449.388672,114.435551 449.139651,115.023435 448.641602,115.460938 C448.143552,115.89844 447.488285,116.117188 446.675781,116.117188 C445.855465,116.117188 445.198245,115.897463 444.704102,115.458008 C444.209958,115.018552 443.962891,114.431644 443.962891,113.697266 C443.962891,113.236326 444.088866,112.820314 444.34082,112.449219 C444.592775,112.078123 444.941404,111.796876 445.386719,111.605469 C445.007811,111.417968 444.708985,111.158205 444.490234,110.826172 C444.271483,110.494139 444.162109,110.11719 444.162109,109.695312 C444.162109,108.976559 444.392576,108.406252 444.853516,107.984375 C445.314455,107.562498 445.921871,107.351562 446.675781,107.351562 C447.425785,107.351562 448.032224,107.562498 448.495117,107.984375 C448.95801,108.406252 449.189453,108.976559 449.189453,109.695312 Z M448.304688,113.673828 C448.304688,113.197263 448.153322,112.808595 447.850586,112.507812 C447.54785,112.20703 447.152346,112.056641 446.664062,112.056641 C446.175779,112.056641 445.784181,112.205077 445.489258,112.501953 C445.194334,112.79883 445.046875,113.189451 445.046875,113.673828 C445.046875,114.158206 445.190428,114.539061 445.477539,114.816406 C445.76465,115.093751 446.16406,115.232422 446.675781,115.232422 C447.183596,115.232422 447.58203,115.092775 447.871094,114.813477 C448.160158,114.534178 448.304688,114.154299 448.304688,113.673828 Z M446.675781,108.242188 C446.249998,108.242188 445.905275,108.374022 445.641602,108.637695 C445.377928,108.901369 445.246094,109.259763 445.246094,109.712891 C445.246094,110.146487 445.375975,110.497069 445.635742,110.764648 C445.895509,111.032228 446.242185,111.166016 446.675781,111.166016 C447.109377,111.166016 447.456053,111.032228 447.71582,110.764648 C447.975587,110.497069 448.105469,110.146487 448.105469,109.712891 C448.105469,109.279295 447.970704,108.925783 447.701172,108.652344 C447.431639,108.378905 447.089846,108.242188 446.675781,108.242188 Z M450.601562,112.777344 C450.601562,111.804683 450.832029,111.022464 451.292969,110.430664 C451.753909,109.838864 452.357418,109.542969 453.103516,109.542969 C453.845707,109.542969 454.433592,109.796872 454.867188,110.304688 L454.867188,107 L455.951172,107 L455.951172,116 L454.955078,116 L454.902344,115.320312 C454.468748,115.851565 453.865238,116.117188 453.091797,116.117188 C452.357418,116.117188 451.758791,115.816409 451.295898,115.214844 C450.833005,114.613278 450.601562,113.82813 450.601562,112.859375 L450.601562,112.777344 Z M451.685547,112.900391 C451.685547,113.619144 451.833983,114.181639 452.130859,114.587891 C452.427736,114.994143 452.837888,115.197266 453.361328,115.197266 C454.048832,115.197266 454.55078,114.888675 454.867188,114.271484 L454.867188,111.359375 C454.542967,110.761716 454.044925,110.462891 453.373047,110.462891 C452.841794,110.462891 452.427736,110.667967 452.130859,111.078125 C451.833983,111.488283 451.685547,112.095699 451.685547,112.900391 Z M462.695312,109.695312 C462.695312,110.121096 462.583009,110.499998 462.358398,110.832031 C462.133788,111.164064 461.83008,111.423827 461.447266,111.611328 C461.89258,111.802735 462.245116,112.082029 462.504883,112.449219 C462.76465,112.816408 462.894531,113.23242 462.894531,113.697266 C462.894531,114.435551 462.64551,115.023435 462.147461,115.460938 C461.649412,115.89844 460.994145,116.117188 460.181641,116.117188 C459.361324,116.117188 458.704104,115.897463 458.209961,115.458008 C457.715818,115.018552 457.46875,114.431644 457.46875,113.697266 C457.46875,113.236326 457.594725,112.820314 457.84668,112.449219 C458.098634,112.078123 458.447263,111.796876 458.892578,111.605469 C458.51367,111.417968 458.214845,111.158205 457.996094,110.826172 C457.777343,110.494139 457.667969,110.11719 457.667969,109.695312 C457.667969,108.976559 457.898435,108.406252 458.359375,107.984375 C458.820315,107.562498 459.427731,107.351562 460.181641,107.351562 C460.931644,107.351562 461.538084,107.562498 462.000977,107.984375 C462.46387,108.406252 462.695312,108.976559 462.695312,109.695312 Z M461.810547,113.673828 C461.810547,113.197263 461.659181,112.808595 461.356445,112.507812 C461.053709,112.20703 460.658206,112.056641 460.169922,112.056641 C459.681638,112.056641 459.290041,112.205077 458.995117,112.501953 C458.700194,112.79883 458.552734,113.189451 458.552734,113.673828 C458.552734,114.158206 458.696288,114.539061 458.983398,114.816406 C459.270509,115.093751 459.669919,115.232422 460.181641,115.232422 C460.689456,115.232422 461.087889,115.092775 461.376953,114.813477 C461.666017,114.534178 461.810547,114.154299 461.810547,113.673828 Z M460.181641,108.242188 C459.755857,108.242188 459.411134,108.374022 459.147461,108.637695 C458.883788,108.901369 458.751953,109.259763 458.751953,109.712891 C458.751953,110.146487 458.881835,110.497069 459.141602,110.764648 C459.401368,111.032228 459.748045,111.166016 460.181641,111.166016 C460.615237,111.166016 460.961913,111.032228 461.22168,110.764648 C461.481447,110.497069 461.611328,110.146487 461.611328,109.712891 C461.611328,109.279295 461.476564,108.925783 461.207031,108.652344 C460.937499,108.378905 460.595705,108.242188 460.181641,108.242188 Z M467.300781,112.537109 C467.300781,111.654292 467.418944,110.806645 467.655273,109.994141 C467.891603,109.181637 468.244138,108.443363 468.712891,107.779297 C469.181643,107.115231 469.667966,106.646486 470.171875,106.373047 L470.394531,107.087891 C469.824216,107.525393 469.356447,108.193355 468.991211,109.091797 C468.625975,109.990239 468.425781,110.996088 468.390625,112.109375 L468.384766,112.607422 C468.384766,114.115242 468.660153,115.423823 469.210938,116.533203 C469.54297,117.197269 469.937498,117.716795 470.394531,118.091797 L470.171875,118.753906 C469.652341,118.464842 469.156252,117.980472 468.683594,117.300781 C467.761714,115.97265 467.300781,114.384775 467.300781,112.537109 Z M477.912109,114.880859 C477.623045,115.294924 477.219729,115.604491 476.702148,115.80957 C476.184568,116.014649 475.582035,116.117188 474.894531,116.117188 C474.199215,116.117188 473.582034,115.954103 473.042969,115.62793 C472.503904,115.301756 472.086916,114.837894 471.791992,114.236328 C471.497069,113.634763 471.345703,112.937504 471.337891,112.144531 L471.337891,111.400391 C471.337891,110.115228 471.637692,109.119144 472.237305,108.412109 C472.836917,107.705075 473.679682,107.351562 474.765625,107.351562 C475.656254,107.351562 476.373044,107.579099 476.916016,108.03418 C477.458987,108.48926 477.791015,109.134761 477.912109,109.970703 L476.787109,109.970703 C476.576171,108.841791 475.904303,108.277344 474.771484,108.277344 C474.017574,108.277344 473.446291,108.54199 473.057617,109.071289 C472.668943,109.600589 472.472656,110.367182 472.46875,111.371094 L472.46875,112.068359 C472.46875,113.025395 472.687498,113.78613 473.125,114.350586 C473.562502,114.915042 474.154293,115.197266 474.900391,115.197266 C475.322268,115.197266 475.691405,115.150391 476.007812,115.056641 C476.32422,114.96289 476.585936,114.804689 476.792969,114.582031 L476.792969,112.666016 L474.818359,112.666016 L474.818359,111.751953 L477.912109,111.751953 L477.912109,114.880859 Z M482.681641,110.632812 C482.517577,110.605469 482.339845,110.591797 482.148438,110.591797 C481.437496,110.591797 480.955079,110.894528 480.701172,111.5 L480.701172,116 L479.617188,116 L479.617188,109.660156 L480.671875,109.660156 L480.689453,110.392578 C481.044924,109.826169 481.548825,109.542969 482.201172,109.542969 C482.41211,109.542969 482.572265,109.570312 482.681641,109.625 L482.681641,110.632812 Z M487.357422,116 C487.294922,115.874999 487.244141,115.652345 487.205078,115.332031 C486.701169,115.855471 486.099613,116.117188 485.400391,116.117188 C484.775387,116.117188 484.262697,115.940431 483.862305,115.586914 C483.461912,115.233397 483.261719,114.785159 483.261719,114.242188 C483.261719,113.582028 483.512693,113.069338 484.014648,112.704102 C484.516604,112.338865 485.222652,112.15625 486.132812,112.15625 L487.1875,112.15625 L487.1875,111.658203 C487.1875,111.279295 487.07422,110.97754 486.847656,110.75293 C486.621093,110.528319 486.287112,110.416016 485.845703,110.416016 C485.458982,110.416016 485.134767,110.513671 484.873047,110.708984 C484.611327,110.904298 484.480469,111.140624 484.480469,111.417969 L483.390625,111.417969 C483.390625,111.101561 483.502929,110.7959 483.727539,110.500977 C483.95215,110.206053 484.256834,109.972657 484.641602,109.800781 C485.026369,109.628905 485.449216,109.542969 485.910156,109.542969 C486.640629,109.542969 487.212889,109.725584 487.626953,110.09082 C488.041018,110.456057 488.255859,110.958981 488.271484,111.599609 L488.271484,114.517578 C488.271484,115.099612 488.345702,115.562498 488.494141,115.90625 L488.494141,116 L487.357422,116 Z M485.558594,115.173828 C485.898439,115.173828 486.220702,115.085938 486.525391,114.910156 C486.83008,114.734374 487.050781,114.505861 487.1875,114.224609 L487.1875,112.923828 L486.337891,112.923828 C485.009759,112.923828 484.345703,113.312496 484.345703,114.089844 C484.345703,114.429689 484.458983,114.695312 484.685547,114.886719 C484.912111,115.078126 485.203123,115.173828 485.558594,115.173828 Z M491.957031,114.412109 L493.433594,109.660156 L494.59375,109.660156 L492.044922,116.978516 C491.650389,118.033208 491.023442,118.560547 490.164062,118.560547 L489.958984,118.542969 L489.554688,118.466797 L489.554688,117.587891 L489.847656,117.611328 C490.214846,117.611328 490.500976,117.53711 490.706055,117.388672 C490.911134,117.240234 491.080077,116.968752 491.212891,116.574219 L491.453125,115.929688 L489.191406,109.660156 L490.375,109.660156 L491.957031,114.412109 Z M502.996094,113.134766 L504.179688,113.134766 L504.179688,114.019531 L502.996094,114.019531 L502.996094,116 L501.90625,116 L501.90625,114.019531 L498.021484,114.019531 L498.021484,113.380859 L501.841797,107.46875 L502.996094,107.46875 L502.996094,113.134766 Z M499.251953,113.134766 L501.90625,113.134766 L501.90625,108.951172 L501.777344,109.185547 L499.251953,113.134766 Z M510.507812,112.361328 C510.507812,113.630866 510.291018,114.574216 509.857422,115.191406 C509.423826,115.808597 508.746098,116.117188 507.824219,116.117188 C506.914058,116.117188 506.240237,115.815433 505.802734,115.211914 C505.365232,114.608395 505.138672,113.707037 505.123047,112.507812 L505.123047,111.060547 C505.123047,109.806634 505.339842,108.875003 505.773438,108.265625 C506.207033,107.656247 506.886714,107.351562 507.8125,107.351562 C508.730473,107.351562 509.406248,107.645505 509.839844,108.233398 C510.27344,108.821292 510.496094,109.728509 510.507812,110.955078 L510.507812,112.361328 Z M509.423828,110.878906 C509.423828,109.960933 509.294923,109.291994 509.037109,108.87207 C508.779296,108.452146 508.371097,108.242188 507.8125,108.242188 C507.25781,108.242188 506.853517,108.45117 506.599609,108.869141 C506.345702,109.287111 506.214844,109.929683 506.207031,110.796875 L506.207031,112.53125 C506.207031,113.45313 506.340819,114.133787 506.608398,114.573242 C506.875978,115.012698 507.281247,115.232422 507.824219,115.232422 C508.359378,115.232422 508.756835,115.025393 509.016602,114.611328 C509.276368,114.197264 509.412109,113.544926 509.423828,112.654297 L509.423828,110.878906 Z M517.246094,112.361328 C517.246094,113.630866 517.029299,114.574216 516.595703,115.191406 C516.162107,115.808597 515.48438,116.117188 514.5625,116.117188 C513.652339,116.117188 512.978518,115.815433 512.541016,115.211914 C512.103513,114.608395 511.876953,113.707037 511.861328,112.507812 L511.861328,111.060547 C511.861328,109.806634 512.078123,108.875003 512.511719,108.265625 C512.945315,107.656247 513.624995,107.351562 514.550781,107.351562 C515.468755,107.351562 516.144529,107.645505 516.578125,108.233398 C517.011721,108.821292 517.234375,109.728509 517.246094,110.955078 L517.246094,112.361328 Z M516.162109,110.878906 C516.162109,109.960933 516.033204,109.291994 515.775391,108.87207 C515.517577,108.452146 515.109378,108.242188 514.550781,108.242188 C513.996091,108.242188 513.591798,108.45117 513.337891,108.869141 C513.083983,109.287111 512.953125,109.929683 512.945312,110.796875 L512.945312,112.53125 C512.945312,113.45313 513.0791,114.133787 513.34668,114.573242 C513.614259,115.012698 514.019529,115.232422 514.5625,115.232422 C515.097659,115.232422 515.495116,115.025393 515.754883,114.611328 C516.01465,114.197264 516.150391,113.544926 516.162109,112.654297 L516.162109,110.878906 Z M521.248047,112.595703 C521.248047,113.466801 521.13379,114.301754 520.905273,115.100586 C520.676757,115.899418 520.327151,116.636715 519.856445,117.3125 C519.38574,117.988285 518.892581,118.468749 518.376953,118.753906 L518.148438,118.091797 C518.750003,117.630857 519.233397,116.915044 519.598633,115.944336 C519.963869,114.973628 520.150391,113.89649 520.158203,112.712891 L520.158203,112.525391 C520.158203,111.705074 520.072266,110.942386 519.900391,110.237305 C519.728515,109.532223 519.489259,108.900393 519.182617,108.341797 C518.875975,107.7832 518.531252,107.347658 518.148438,107.035156 L518.376953,106.373047 C518.892581,106.658205 519.383787,107.134762 519.850586,107.802734 C520.317385,108.470706 520.666991,109.207027 520.899414,110.011719 C521.131837,110.81641 521.248047,111.67773 521.248047,112.595703 Z M348.197266,130 L347.072266,130 L347.072266,121.46875 L348.197266,121.46875 L348.197266,130 Z M352.626953,129.232422 C353.013674,129.232422 353.351561,129.115236 353.640625,128.880859 C353.929689,128.646483 354.089844,128.353517 354.121094,128.001953 L355.146484,128.001953 C355.126953,128.365236 355.001954,128.710936 354.771484,129.039062 C354.541014,129.367189 354.2334,129.628905 353.848633,129.824219 C353.463865,130.019532 353.056643,130.117188 352.626953,130.117188 C351.763668,130.117188 351.077151,129.829104 350.567383,129.25293 C350.057615,128.676755 349.802734,127.888677 349.802734,126.888672 L349.802734,126.707031 C349.802734,126.089841 349.916014,125.541018 350.142578,125.060547 C350.369142,124.580076 350.694334,124.207033 351.118164,123.941406 C351.541994,123.67578 352.042966,123.542969 352.621094,123.542969 C353.332035,123.542969 353.922849,123.755857 354.393555,124.181641 C354.86426,124.607424 355.115234,125.160153 355.146484,125.839844 L354.121094,125.839844 C354.089844,125.429685 353.934572,125.092775 353.655273,124.829102 C353.375975,124.565428 353.031252,124.433594 352.621094,124.433594 C352.07031,124.433594 351.643556,124.631834 351.34082,125.02832 C351.038084,125.424807 350.886719,125.998043 350.886719,126.748047 L350.886719,126.953125 C350.886719,127.683597 351.037108,128.246092 351.337891,128.640625 C351.638673,129.035158 352.068357,129.232422 352.626953,129.232422 Z M356.078125,126.771484 C356.078125,126.150388 356.200194,125.591799 356.444336,125.095703 C356.688478,124.599607 357.028318,124.216798 357.463867,123.947266 C357.899416,123.677733 358.396482,123.542969 358.955078,123.542969 C359.818364,123.542969 360.516599,123.841794 361.049805,124.439453 C361.58301,125.037112 361.849609,125.832026 361.849609,126.824219 L361.849609,126.900391 C361.849609,127.517581 361.731446,128.071287 361.495117,128.561523 C361.258788,129.05176 360.920901,129.433592 360.481445,129.707031 C360.04199,129.98047 359.537112,130.117188 358.966797,130.117188 C358.107418,130.117188 357.411135,129.818362 356.87793,129.220703 C356.344724,128.623044 356.078125,127.832036 356.078125,126.847656 L356.078125,126.771484 Z M357.167969,126.900391 C357.167969,127.603519 357.331053,128.167967 357.657227,128.59375 C357.9834,129.019533 358.419919,129.232422 358.966797,129.232422 C359.517581,129.232422 359.955077,129.016604 360.279297,128.584961 C360.603517,128.153318 360.765625,127.548832 360.765625,126.771484 C360.765625,126.076168 360.600588,125.512697 360.270508,125.081055 C359.940428,124.649412 359.501956,124.433594 358.955078,124.433594 C358.419919,124.433594 357.988283,124.646482 357.660156,125.072266 C357.33203,125.498049 357.167969,126.107418 357.167969,126.900391 Z M364.234375,123.660156 L364.269531,124.457031 C364.753909,123.847653 365.386715,123.542969 366.167969,123.542969 C367.507819,123.542969 368.183594,124.298821 368.195312,125.810547 L368.195312,130 L367.111328,130 L367.111328,125.804688 C367.107422,125.347654 367.002931,125.009767 366.797852,124.791016 C366.592772,124.572265 366.27344,124.462891 365.839844,124.462891 C365.488279,124.462891 365.179689,124.55664 364.914062,124.744141 C364.648436,124.931642 364.441407,125.177733 364.292969,125.482422 L364.292969,130 L363.208984,130 L363.208984,123.660156 L364.234375,123.660156 Z M375.484375,126.197266 C374.519526,125.91992 373.817385,125.579104 373.37793,125.174805 C372.938474,124.770506 372.71875,124.271487 372.71875,123.677734 C372.71875,123.005856 372.987302,122.450198 373.524414,122.010742 C374.061526,121.571287 374.759761,121.351562 375.619141,121.351562 C376.205081,121.351562 376.727537,121.464843 377.186523,121.691406 C377.64551,121.91797 378.000975,122.230467 378.25293,122.628906 C378.504884,123.027346 378.630859,123.462888 378.630859,123.935547 L377.5,123.935547 C377.5,123.419919 377.335939,123.01465 377.007812,122.719727 C376.679686,122.424803 376.2168,122.277344 375.619141,122.277344 C375.06445,122.277344 374.631837,122.399413 374.321289,122.643555 C374.010741,122.887697 373.855469,123.22656 373.855469,123.660156 C373.855469,124.007814 374.002928,124.301757 374.297852,124.541992 C374.592775,124.782228 375.094723,125.001952 375.803711,125.201172 C376.512699,125.400392 377.067381,125.620116 377.467773,125.860352 C377.868166,126.100587 378.165038,126.380858 378.358398,126.701172 C378.551759,127.021486 378.648438,127.398435 378.648438,127.832031 C378.648438,128.523441 378.378909,129.077146 377.839844,129.493164 C377.300779,129.909182 376.580083,130.117188 375.677734,130.117188 C375.091794,130.117188 374.544924,130.004884 374.037109,129.780273 C373.529294,129.555663 373.137697,129.248049 372.862305,128.857422 C372.586913,128.466795 372.449219,128.02344 372.449219,127.527344 L373.580078,127.527344 C373.580078,128.042971 373.770506,128.450194 374.151367,128.749023 C374.532228,129.047853 375.041012,129.197266 375.677734,129.197266 C376.271487,129.197266 376.726561,129.076173 377.042969,128.833984 C377.359377,128.591796 377.517578,128.261721 377.517578,127.84375 C377.517578,127.425779 377.371095,127.10254 377.078125,126.874023 C376.785155,126.645507 376.25391,126.419923 375.484375,126.197266 Z M385.275391,126.900391 C385.275391,127.865239 385.05469,128.642575 384.613281,129.232422 C384.171873,129.822269 383.574223,130.117188 382.820312,130.117188 C382.050777,130.117188 381.445315,129.873049 381.003906,129.384766 L381.003906,132.4375 L379.919922,132.4375 L379.919922,123.660156 L380.910156,123.660156 L380.962891,124.363281 C381.404299,123.816404 382.017574,123.542969 382.802734,123.542969 C383.564457,123.542969 384.16699,123.830075 384.610352,124.404297 C385.053713,124.978518 385.275391,125.777339 385.275391,126.800781 L385.275391,126.900391 Z M384.191406,126.777344 C384.191406,126.062496 384.039064,125.498049 383.734375,125.083984 C383.429686,124.66992 383.011721,124.462891 382.480469,124.462891 C381.824215,124.462891 381.332033,124.753903 381.003906,125.335938 L381.003906,128.365234 C381.328127,128.943362 381.824215,129.232422 382.492188,129.232422 C383.011721,129.232422 383.424803,129.026369 383.731445,128.614258 C384.038087,128.202146 384.191406,127.589848 384.191406,126.777344 Z M387.830078,130 L386.746094,130 L386.746094,123.660156 L387.830078,123.660156 L387.830078,130 Z M386.658203,121.978516 C386.658203,121.802733 386.711914,121.654297 386.819336,121.533203 C386.926758,121.412109 387.085936,121.351562 387.296875,121.351562 C387.507814,121.351562 387.667968,121.412109 387.777344,121.533203 C387.886719,121.654297 387.941406,121.802733 387.941406,121.978516 C387.941406,122.154298 387.886719,122.300781 387.777344,122.417969 C387.667968,122.535157 387.507814,122.59375 387.296875,122.59375 C387.085936,122.59375 386.926758,122.535157 386.819336,122.417969 C386.711914,122.300781 386.658203,122.154298 386.658203,121.978516 Z M390.589844,123.660156 L390.625,124.457031 C391.109377,123.847653 391.742184,123.542969 392.523438,123.542969 C393.863288,123.542969 394.539062,124.298821 394.550781,125.810547 L394.550781,130 L393.466797,130 L393.466797,125.804688 C393.462891,125.347654 393.358399,125.009767 393.15332,124.791016 C392.948241,124.572265 392.628908,124.462891 392.195312,124.462891 C391.843748,124.462891 391.535158,124.55664 391.269531,124.744141 C391.003905,124.931642 390.796876,125.177733 390.648438,125.482422 L390.648438,130 L389.564453,130 L389.564453,123.660156 L390.589844,123.660156 Z M397.210938,123.660156 L397.246094,124.457031 C397.730471,123.847653 398.363277,123.542969 399.144531,123.542969 C400.484382,123.542969 401.160156,124.298821 401.171875,125.810547 L401.171875,130 L400.087891,130 L400.087891,125.804688 C400.083984,125.347654 399.979493,125.009767 399.774414,124.791016 C399.569335,124.572265 399.250002,124.462891 398.816406,124.462891 C398.464842,124.462891 398.156251,124.55664 397.890625,124.744141 C397.624999,124.931642 397.417969,125.177733 397.269531,125.482422 L397.269531,130 L396.185547,130 L396.185547,123.660156 L397.210938,123.660156 Z M405.4375,130.117188 C404.578121,130.117188 403.878909,129.834964 403.339844,129.270508 C402.800779,128.706052 402.53125,127.951177 402.53125,127.005859 L402.53125,126.806641 C402.53125,126.177731 402.651366,125.616213 402.891602,125.12207 C403.131837,124.627927 403.467771,124.241212 403.899414,123.961914 C404.331057,123.682616 404.798826,123.542969 405.302734,123.542969 C406.126957,123.542969 406.767576,123.81445 407.224609,124.357422 C407.681643,124.900393 407.910156,125.677729 407.910156,126.689453 L407.910156,127.140625 L403.615234,127.140625 C403.630859,127.765628 403.813475,128.270506 404.163086,128.655273 C404.512697,129.040041 404.957029,129.232422 405.496094,129.232422 C405.878908,129.232422 406.203124,129.154298 406.46875,128.998047 C406.734376,128.841796 406.966796,128.634767 407.166016,128.376953 L407.828125,128.892578 C407.296872,129.708988 406.500005,130.117188 405.4375,130.117188 Z M405.302734,124.433594 C404.865232,124.433594 404.498048,124.592772 404.201172,124.911133 C403.904295,125.229494 403.720703,125.675778 403.650391,126.25 L406.826172,126.25 L406.826172,126.167969 C406.794922,125.617185 406.646486,125.190431 406.380859,124.887695 C406.115233,124.584959 405.755862,124.433594 405.302734,124.433594 Z M412.228516,124.632812 C412.064452,124.605469 411.88672,124.591797 411.695312,124.591797 C410.984371,124.591797 410.501954,124.894528 410.248047,125.5 L410.248047,130 L409.164062,130 L409.164062,123.660156 L410.21875,123.660156 L410.236328,124.392578 C410.591799,123.826169 411.0957,123.542969 411.748047,123.542969 C411.958985,123.542969 412.11914,123.570312 412.228516,123.625 L412.228516,124.632812 Z M412.46875,131.699219 L411.853516,131.277344 C412.220705,130.765622 412.412109,130.238284 412.427734,129.695312 L412.427734,128.716797 L413.488281,128.716797 L413.488281,129.566406 C413.488281,129.960939 413.391603,130.355467 413.198242,130.75 C413.004882,131.144533 412.76172,131.460936 412.46875,131.699219 Z M421.492188,127.597656 L419.945312,127.597656 L419.476562,130 L418.638672,130 L419.107422,127.597656 L417.707031,127.597656 L417.707031,126.794922 L419.259766,126.794922 L419.664062,124.720703 L418.152344,124.720703 L418.152344,123.90625 L419.822266,123.90625 L420.302734,121.46875 L421.140625,121.46875 L420.660156,123.90625 L422.207031,123.90625 L422.6875,121.46875 L423.53125,121.46875 L423.050781,123.90625 L424.246094,123.90625 L424.246094,124.720703 L422.892578,124.720703 L422.488281,126.794922 L423.806641,126.794922 L423.806641,127.597656 L422.335938,127.597656 L421.867188,130 L421.023438,130 L421.492188,127.597656 Z M420.097656,126.794922 L421.644531,126.794922 L422.048828,124.720703 L420.501953,124.720703 L420.097656,126.794922 Z M430.615234,122.078125 L427.082031,130 L425.945312,130 L429.466797,122.359375 L424.849609,122.359375 L424.849609,121.46875 L430.615234,121.46875 L430.615234,122.078125 Z M432.34375,125.722656 L432.777344,121.46875 L437.148438,121.46875 L437.148438,122.470703 L433.697266,122.470703 L433.439453,124.796875 C433.857424,124.55078 434.332029,124.427734 434.863281,124.427734 C435.640629,124.427734 436.25781,124.684568 436.714844,125.198242 C437.171877,125.711917 437.400391,126.406246 437.400391,127.28125 C437.400391,128.160161 437.163088,128.852537 436.688477,129.358398 C436.213865,129.86426 435.550786,130.117188 434.699219,130.117188 C433.945309,130.117188 433.330081,129.908205 432.853516,129.490234 C432.376951,129.072264 432.105469,128.494144 432.039062,127.755859 L433.064453,127.755859 C433.13086,128.244143 433.304686,128.612303 433.585938,128.860352 C433.867189,129.1084 434.238279,129.232422 434.699219,129.232422 C435.203128,129.232422 435.598631,129.060549 435.885742,128.716797 C436.172853,128.373045 436.316406,127.898441 436.316406,127.292969 C436.316406,126.722653 436.161134,126.26465 435.850586,125.918945 C435.540038,125.57324 435.126956,125.400391 434.611328,125.400391 C434.13867,125.400391 433.767579,125.503905 433.498047,125.710938 L433.210938,125.945312 L432.34375,125.722656 Z M444.091797,122.078125 L440.558594,130 L439.421875,130 L442.943359,122.359375 L438.326172,122.359375 L438.326172,121.46875 L444.091797,121.46875 L444.091797,122.078125 Z M445.820312,125.722656 L446.253906,121.46875 L450.625,121.46875 L450.625,122.470703 L447.173828,122.470703 L446.916016,124.796875 C447.333986,124.55078 447.808591,124.427734 448.339844,124.427734 C449.117191,124.427734 449.734373,124.684568 450.191406,125.198242 C450.64844,125.711917 450.876953,126.406246 450.876953,127.28125 C450.876953,128.160161 450.639651,128.852537 450.165039,129.358398 C449.690427,129.86426 449.027348,130.117188 448.175781,130.117188 C447.421871,130.117188 446.806643,129.908205 446.330078,129.490234 C445.853513,129.072264 445.582032,128.494144 445.515625,127.755859 L446.541016,127.755859 C446.607422,128.244143 446.781249,128.612303 447.0625,128.860352 C447.343751,129.1084 447.714841,129.232422 448.175781,129.232422 C448.67969,129.232422 449.075194,129.060549 449.362305,128.716797 C449.649415,128.373045 449.792969,127.898441 449.792969,127.292969 C449.792969,126.722653 449.637697,126.26465 449.327148,125.918945 C449.0166,125.57324 448.603518,125.400391 448.087891,125.400391 C447.615232,125.400391 447.244142,125.503905 446.974609,125.710938 L446.6875,125.945312 L445.820312,125.722656 Z M457.568359,122.078125 L454.035156,130 L452.898438,130 L456.419922,122.359375 L451.802734,122.359375 L451.802734,121.46875 L457.568359,121.46875 L457.568359,122.078125 Z M459.296875,125.722656 L459.730469,121.46875 L464.101562,121.46875 L464.101562,122.470703 L460.650391,122.470703 L460.392578,124.796875 C460.810549,124.55078 461.285154,124.427734 461.816406,124.427734 C462.593754,124.427734 463.210935,124.684568 463.667969,125.198242 C464.125002,125.711917 464.353516,126.406246 464.353516,127.28125 C464.353516,128.160161 464.116213,128.852537 463.641602,129.358398 C463.16699,129.86426 462.503911,130.117188 461.652344,130.117188 C460.898434,130.117188 460.283206,129.908205 459.806641,129.490234 C459.330076,129.072264 459.058594,128.494144 458.992188,127.755859 L460.017578,127.755859 C460.083985,128.244143 460.257811,128.612303 460.539062,128.860352 C460.820314,129.1084 461.191404,129.232422 461.652344,129.232422 C462.156253,129.232422 462.551756,129.060549 462.838867,128.716797 C463.125978,128.373045 463.269531,127.898441 463.269531,127.292969 C463.269531,126.722653 463.114259,126.26465 462.803711,125.918945 C462.493163,125.57324 462.080081,125.400391 461.564453,125.400391 C461.091795,125.400391 460.720704,125.503905 460.451172,125.710938 L460.164062,125.945312 L459.296875,125.722656 Z M468.578125,126.537109 C468.578125,125.654292 468.696288,124.806645 468.932617,123.994141 C469.168946,123.181637 469.521482,122.443363 469.990234,121.779297 C470.458987,121.115231 470.94531,120.646486 471.449219,120.373047 L471.671875,121.087891 C471.10156,121.525393 470.633791,122.193355 470.268555,123.091797 C469.903318,123.990239 469.703125,124.996088 469.667969,126.109375 L469.662109,126.607422 C469.662109,128.115242 469.937497,129.423823 470.488281,130.533203 C470.820314,131.197269 471.214841,131.716795 471.671875,132.091797 L471.449219,132.753906 C470.929685,132.464842 470.433596,131.980472 469.960938,131.300781 C469.039058,129.97265 468.578125,128.384775 468.578125,126.537109 Z M479.189453,128.880859 C478.900389,129.294924 478.497073,129.604491 477.979492,129.80957 C477.461911,130.014649 476.859378,130.117188 476.171875,130.117188 C475.476559,130.117188 474.859378,129.954103 474.320312,129.62793 C473.781247,129.301756 473.364259,128.837894 473.069336,128.236328 C472.774413,127.634763 472.623047,126.937504 472.615234,126.144531 L472.615234,125.400391 C472.615234,124.115228 472.915036,123.119144 473.514648,122.412109 C474.114261,121.705075 474.957026,121.351562 476.042969,121.351562 C476.933598,121.351562 477.650388,121.579099 478.193359,122.03418 C478.736331,122.48926 479.068359,123.134761 479.189453,123.970703 L478.064453,123.970703 C477.853515,122.841791 477.181646,122.277344 476.048828,122.277344 C475.294918,122.277344 474.723635,122.54199 474.334961,123.071289 C473.946287,123.600589 473.75,124.367182 473.746094,125.371094 L473.746094,126.068359 C473.746094,127.025395 473.964842,127.78613 474.402344,128.350586 C474.839846,128.915042 475.431637,129.197266 476.177734,129.197266 C476.599611,129.197266 476.968748,129.150391 477.285156,129.056641 C477.601564,128.96289 477.86328,128.804689 478.070312,128.582031 L478.070312,126.666016 L476.095703,126.666016 L476.095703,125.751953 L479.189453,125.751953 L479.189453,128.880859 Z M483.958984,124.632812 C483.794921,124.605469 483.617188,124.591797 483.425781,124.591797 C482.71484,124.591797 482.232423,124.894528 481.978516,125.5 L481.978516,130 L480.894531,130 L480.894531,123.660156 L481.949219,123.660156 L481.966797,124.392578 C482.322267,123.826169 482.826169,123.542969 483.478516,123.542969 C483.689454,123.542969 483.849609,123.570312 483.958984,123.625 L483.958984,124.632812 Z M488.634766,130 C488.572265,129.874999 488.521485,129.652345 488.482422,129.332031 C487.978513,129.855471 487.376957,130.117188 486.677734,130.117188 C486.052731,130.117188 485.540041,129.940431 485.139648,129.586914 C484.739256,129.233397 484.539062,128.785159 484.539062,128.242188 C484.539062,127.582028 484.790037,127.069338 485.291992,126.704102 C485.793948,126.338865 486.499995,126.15625 487.410156,126.15625 L488.464844,126.15625 L488.464844,125.658203 C488.464844,125.279295 488.351564,124.97754 488.125,124.75293 C487.898436,124.528319 487.564455,124.416016 487.123047,124.416016 C486.736326,124.416016 486.412111,124.513671 486.150391,124.708984 C485.888671,124.904298 485.757812,125.140624 485.757812,125.417969 L484.667969,125.417969 C484.667969,125.101561 484.780272,124.7959 485.004883,124.500977 C485.229493,124.206053 485.534178,123.972657 485.918945,123.800781 C486.303713,123.628905 486.72656,123.542969 487.1875,123.542969 C487.917972,123.542969 488.490232,123.725584 488.904297,124.09082 C489.318361,124.456057 489.533203,124.958981 489.548828,125.599609 L489.548828,128.517578 C489.548828,129.099612 489.623046,129.562498 489.771484,129.90625 L489.771484,130 L488.634766,130 Z M486.835938,129.173828 C487.175783,129.173828 487.498045,129.085938 487.802734,128.910156 C488.107423,128.734374 488.328124,128.505861 488.464844,128.224609 L488.464844,126.923828 L487.615234,126.923828 C486.287103,126.923828 485.623047,127.312496 485.623047,128.089844 C485.623047,128.429689 485.736327,128.695312 485.962891,128.886719 C486.189454,129.078126 486.480467,129.173828 486.835938,129.173828 Z M493.234375,128.412109 L494.710938,123.660156 L495.871094,123.660156 L493.322266,130.978516 C492.927732,132.033208 492.300786,132.560547 491.441406,132.560547 L491.236328,132.542969 L490.832031,132.466797 L490.832031,131.587891 L491.125,131.611328 C491.492189,131.611328 491.778319,131.53711 491.983398,131.388672 C492.188478,131.240234 492.357421,130.968752 492.490234,130.574219 L492.730469,129.929688 L490.46875,123.660156 L491.652344,123.660156 L493.234375,128.412109 Z M505.205078,122.078125 L501.671875,130 L500.535156,130 L504.056641,122.359375 L499.439453,122.359375 L499.439453,121.46875 L505.205078,121.46875 L505.205078,122.078125 Z M511.785156,126.361328 C511.785156,127.630866 511.568362,128.574216 511.134766,129.191406 C510.70117,129.808597 510.023442,130.117188 509.101562,130.117188 C508.191402,130.117188 507.51758,129.815433 507.080078,129.211914 C506.642576,128.608395 506.416016,127.707037 506.400391,126.507812 L506.400391,125.060547 C506.400391,123.806634 506.617185,122.875003 507.050781,122.265625 C507.484377,121.656247 508.164058,121.351562 509.089844,121.351562 C510.007817,121.351562 510.683592,121.645505 511.117188,122.233398 C511.550783,122.821292 511.773437,123.728509 511.785156,124.955078 L511.785156,126.361328 Z M510.701172,124.878906 C510.701172,123.960933 510.572267,123.291994 510.314453,122.87207 C510.056639,122.452146 509.64844,122.242188 509.089844,122.242188 C508.535153,122.242188 508.130861,122.45117 507.876953,122.869141 C507.623046,123.287111 507.492188,123.929683 507.484375,124.796875 L507.484375,126.53125 C507.484375,127.45313 507.618163,128.133787 507.885742,128.573242 C508.153322,129.012698 508.558591,129.232422 509.101562,129.232422 C509.636721,129.232422 510.034178,129.025393 510.293945,128.611328 C510.553712,128.197264 510.689453,127.544926 510.701172,126.654297 L510.701172,124.878906 Z M518.523438,126.361328 C518.523438,127.630866 518.306643,128.574216 517.873047,129.191406 C517.439451,129.808597 516.761723,130.117188 515.839844,130.117188 C514.929683,130.117188 514.255862,129.815433 513.818359,129.211914 C513.380857,128.608395 513.154297,127.707037 513.138672,126.507812 L513.138672,125.060547 C513.138672,123.806634 513.355467,122.875003 513.789062,122.265625 C514.222658,121.656247 514.902339,121.351562 515.828125,121.351562 C516.746098,121.351562 517.421873,121.645505 517.855469,122.233398 C518.289065,122.821292 518.511719,123.728509 518.523438,124.955078 L518.523438,126.361328 Z M517.439453,124.878906 C517.439453,123.960933 517.310548,123.291994 517.052734,122.87207 C516.794921,122.452146 516.386722,122.242188 515.828125,122.242188 C515.273435,122.242188 514.869142,122.45117 514.615234,122.869141 C514.361327,123.287111 514.230469,123.929683 514.222656,124.796875 L514.222656,126.53125 C514.222656,127.45313 514.356444,128.133787 514.624023,128.573242 C514.891603,129.012698 515.296872,129.232422 515.839844,129.232422 C516.375003,129.232422 516.77246,129.025393 517.032227,128.611328 C517.291993,128.197264 517.427734,127.544926 517.439453,126.654297 L517.439453,124.878906 Z M522.525391,126.595703 C522.525391,127.466801 522.411134,128.301754 522.182617,129.100586 C521.9541,129.899418 521.604495,130.636715 521.133789,131.3125 C520.663084,131.988285 520.169924,132.468749 519.654297,132.753906 L519.425781,132.091797 C520.027347,131.630857 520.51074,130.915044 520.875977,129.944336 C521.241213,128.973628 521.427734,127.89649 521.435547,126.712891 L521.435547,126.525391 C521.435547,125.705074 521.34961,124.942386 521.177734,124.237305 C521.005859,123.532223 520.766603,122.900393 520.459961,122.341797 C520.153319,121.7832 519.808596,121.347658 519.425781,121.035156 L519.654297,120.373047 C520.169924,120.658205 520.66113,121.134762 521.12793,121.802734 C521.594729,122.470706 521.944335,123.207027 522.176758,124.011719 C522.409181,124.81641 522.525391,125.67773 522.525391,126.595703 Z" id="Text:-#757575-(Gray" fill="#EC407A"></path>
            <path d="M349.503906,162.197266 C348.539058,161.91992 347.836916,161.579104 347.397461,161.174805 C346.958006,160.770506 346.738281,160.271487 346.738281,159.677734 C346.738281,159.005856 347.006833,158.450198 347.543945,158.010742 C348.081057,157.571287 348.779293,157.351562 349.638672,157.351562 C350.224612,157.351562 350.747068,157.464843 351.206055,157.691406 C351.665041,157.91797 352.020507,158.230467 352.272461,158.628906 C352.524415,159.027346 352.650391,159.462888 352.650391,159.935547 L351.519531,159.935547 C351.519531,159.419919 351.35547,159.01465 351.027344,158.719727 C350.699217,158.424803 350.236331,158.277344 349.638672,158.277344 C349.083982,158.277344 348.651369,158.399413 348.34082,158.643555 C348.030272,158.887697 347.875,159.22656 347.875,159.660156 C347.875,160.007814 348.022459,160.301757 348.317383,160.541992 C348.612306,160.782228 349.114254,161.001952 349.823242,161.201172 C350.53223,161.400392 351.086912,161.620116 351.487305,161.860352 C351.887697,162.100587 352.184569,162.380858 352.37793,162.701172 C352.57129,163.021486 352.667969,163.398435 352.667969,163.832031 C352.667969,164.523441 352.39844,165.077146 351.859375,165.493164 C351.32031,165.909182 350.599614,166.117188 349.697266,166.117188 C349.111325,166.117188 348.564456,166.004884 348.056641,165.780273 C347.548826,165.555663 347.157228,165.248049 346.881836,164.857422 C346.606444,164.466795 346.46875,164.02344 346.46875,163.527344 L347.599609,163.527344 C347.599609,164.042971 347.790037,164.450194 348.170898,164.749023 C348.55176,165.047853 349.060544,165.197266 349.697266,165.197266 C350.291019,165.197266 350.746092,165.076173 351.0625,164.833984 C351.378908,164.591796 351.537109,164.261721 351.537109,163.84375 C351.537109,163.425779 351.390626,163.10254 351.097656,162.874023 C350.804686,162.645507 350.273441,162.419923 349.503906,162.197266 Z M359.294922,162.900391 C359.294922,163.865239 359.074221,164.642575 358.632812,165.232422 C358.191404,165.822269 357.593754,166.117188 356.839844,166.117188 C356.070309,166.117188 355.464846,165.873049 355.023438,165.384766 L355.023438,168.4375 L353.939453,168.4375 L353.939453,159.660156 L354.929688,159.660156 L354.982422,160.363281 C355.42383,159.816404 356.037105,159.542969 356.822266,159.542969 C357.583988,159.542969 358.186521,159.830075 358.629883,160.404297 C359.073244,160.978518 359.294922,161.777339 359.294922,162.800781 L359.294922,162.900391 Z M358.210938,162.777344 C358.210938,162.062496 358.058595,161.498049 357.753906,161.083984 C357.449217,160.66992 357.031253,160.462891 356.5,160.462891 C355.843747,160.462891 355.351564,160.753903 355.023438,161.335938 L355.023438,164.365234 C355.347658,164.943362 355.843747,165.232422 356.511719,165.232422 C357.031253,165.232422 357.444334,165.026369 357.750977,164.614258 C358.057619,164.202146 358.210938,163.589848 358.210938,162.777344 Z M361.849609,166 L360.765625,166 L360.765625,159.660156 L361.849609,159.660156 L361.849609,166 Z M360.677734,157.978516 C360.677734,157.802733 360.731445,157.654297 360.838867,157.533203 C360.94629,157.412109 361.105468,157.351562 361.316406,157.351562 C361.527345,157.351562 361.687499,157.412109 361.796875,157.533203 C361.906251,157.654297 361.960938,157.802733 361.960938,157.978516 C361.960938,158.154298 361.906251,158.300781 361.796875,158.417969 C361.687499,158.535157 361.527345,158.59375 361.316406,158.59375 C361.105468,158.59375 360.94629,158.535157 360.838867,158.417969 C360.731445,158.300781 360.677734,158.154298 360.677734,157.978516 Z M364.609375,159.660156 L364.644531,160.457031 C365.128909,159.847653 365.761715,159.542969 366.542969,159.542969 C367.882819,159.542969 368.558594,160.298821 368.570312,161.810547 L368.570312,166 L367.486328,166 L367.486328,161.804688 C367.482422,161.347654 367.377931,161.009767 367.172852,160.791016 C366.967772,160.572265 366.64844,160.462891 366.214844,160.462891 C365.863279,160.462891 365.554689,160.55664 365.289062,160.744141 C365.023436,160.931642 364.816407,161.177733 364.667969,161.482422 L364.667969,166 L363.583984,166 L363.583984,159.660156 L364.609375,159.660156 Z M371.230469,159.660156 L371.265625,160.457031 C371.750002,159.847653 372.382809,159.542969 373.164062,159.542969 C374.503913,159.542969 375.179687,160.298821 375.191406,161.810547 L375.191406,166 L374.107422,166 L374.107422,161.804688 C374.103516,161.347654 373.999024,161.009767 373.793945,160.791016 C373.588866,160.572265 373.269533,160.462891 372.835938,160.462891 C372.484373,160.462891 372.175783,160.55664 371.910156,160.744141 C371.64453,160.931642 371.437501,161.177733 371.289062,161.482422 L371.289062,166 L370.205078,166 L370.205078,159.660156 L371.230469,159.660156 Z M379.457031,166.117188 C378.597652,166.117188 377.89844,165.834964 377.359375,165.270508 C376.82031,164.706052 376.550781,163.951177 376.550781,163.005859 L376.550781,162.806641 C376.550781,162.177731 376.670897,161.616213 376.911133,161.12207 C377.151368,160.627927 377.487303,160.241212 377.918945,159.961914 C378.350588,159.682616 378.818357,159.542969 379.322266,159.542969 C380.146488,159.542969 380.787107,159.81445 381.244141,160.357422 C381.701174,160.900393 381.929688,161.677729 381.929688,162.689453 L381.929688,163.140625 L377.634766,163.140625 C377.650391,163.765628 377.833006,164.270506 378.182617,164.655273 C378.532228,165.040041 378.97656,165.232422 379.515625,165.232422 C379.898439,165.232422 380.222655,165.154298 380.488281,164.998047 C380.753908,164.841796 380.986327,164.634767 381.185547,164.376953 L381.847656,164.892578 C381.316404,165.708988 380.519537,166.117188 379.457031,166.117188 Z M379.322266,160.433594 C378.884763,160.433594 378.51758,160.592772 378.220703,160.911133 C377.923827,161.229494 377.740235,161.675778 377.669922,162.25 L380.845703,162.25 L380.845703,162.167969 C380.814453,161.617185 380.666017,161.190431 380.400391,160.887695 C380.134764,160.584959 379.775393,160.433594 379.322266,160.433594 Z M386.248047,160.632812 C386.083984,160.605469 385.906251,160.591797 385.714844,160.591797 C385.003903,160.591797 384.521486,160.894528 384.267578,161.5 L384.267578,166 L383.183594,166 L383.183594,159.660156 L384.238281,159.660156 L384.255859,160.392578 C384.61133,159.826169 385.115231,159.542969 385.767578,159.542969 C385.978517,159.542969 386.138671,159.570312 386.248047,159.625 L386.248047,160.632812 Z M392.898438,162.197266 C391.933589,161.91992 391.231448,161.579104 390.791992,161.174805 C390.352537,160.770506 390.132812,160.271487 390.132812,159.677734 C390.132812,159.005856 390.401365,158.450198 390.938477,158.010742 C391.475589,157.571287 392.173824,157.351562 393.033203,157.351562 C393.619144,157.351562 394.141599,157.464843 394.600586,157.691406 C395.059573,157.91797 395.415038,158.230467 395.666992,158.628906 C395.918947,159.027346 396.044922,159.462888 396.044922,159.935547 L394.914062,159.935547 C394.914062,159.419919 394.750002,159.01465 394.421875,158.719727 C394.093748,158.424803 393.630862,158.277344 393.033203,158.277344 C392.478513,158.277344 392.0459,158.399413 391.735352,158.643555 C391.424803,158.887697 391.269531,159.22656 391.269531,159.660156 C391.269531,160.007814 391.416991,160.301757 391.711914,160.541992 C392.006837,160.782228 392.508786,161.001952 393.217773,161.201172 C393.926761,161.400392 394.481443,161.620116 394.881836,161.860352 C395.282229,162.100587 395.579101,162.380858 395.772461,162.701172 C395.965821,163.021486 396.0625,163.398435 396.0625,163.832031 C396.0625,164.523441 395.792971,165.077146 395.253906,165.493164 C394.714841,165.909182 393.994145,166.117188 393.091797,166.117188 C392.505856,166.117188 391.958987,166.004884 391.451172,165.780273 C390.943357,165.555663 390.551759,165.248049 390.276367,164.857422 C390.000975,164.466795 389.863281,164.02344 389.863281,163.527344 L390.994141,163.527344 C390.994141,164.042971 391.184568,164.450194 391.56543,164.749023 C391.946291,165.047853 392.455075,165.197266 393.091797,165.197266 C393.68555,165.197266 394.140623,165.076173 394.457031,164.833984 C394.773439,164.591796 394.931641,164.261721 394.931641,163.84375 C394.931641,163.425779 394.785158,163.10254 394.492188,162.874023 C394.199217,162.645507 393.667973,162.419923 392.898438,162.197266 Z M398.511719,166 L397.427734,166 L397.427734,159.660156 L398.511719,159.660156 L398.511719,166 Z M397.339844,157.978516 C397.339844,157.802733 397.393554,157.654297 397.500977,157.533203 C397.608399,157.412109 397.767577,157.351562 397.978516,157.351562 C398.189454,157.351562 398.349609,157.412109 398.458984,157.533203 C398.56836,157.654297 398.623047,157.802733 398.623047,157.978516 C398.623047,158.154298 398.56836,158.300781 398.458984,158.417969 C398.349609,158.535157 398.189454,158.59375 397.978516,158.59375 C397.767577,158.59375 397.608399,158.535157 397.500977,158.417969 C397.393554,158.300781 397.339844,158.154298 397.339844,157.978516 Z M401.265625,165.115234 L404.974609,165.115234 L404.974609,166 L399.941406,166 L399.941406,165.203125 L403.439453,160.556641 L399.994141,160.556641 L399.994141,159.660156 L404.798828,159.660156 L404.798828,160.427734 L401.265625,165.115234 Z M408.730469,166.117188 C407.871089,166.117188 407.171878,165.834964 406.632812,165.270508 C406.093747,164.706052 405.824219,163.951177 405.824219,163.005859 L405.824219,162.806641 C405.824219,162.177731 405.944335,161.616213 406.18457,161.12207 C406.424806,160.627927 406.76074,160.241212 407.192383,159.961914 C407.624026,159.682616 408.091794,159.542969 408.595703,159.542969 C409.419926,159.542969 410.060545,159.81445 410.517578,160.357422 C410.974612,160.900393 411.203125,161.677729 411.203125,162.689453 L411.203125,163.140625 L406.908203,163.140625 C406.923828,163.765628 407.106444,164.270506 407.456055,164.655273 C407.805666,165.040041 408.249997,165.232422 408.789062,165.232422 C409.171877,165.232422 409.496092,165.154298 409.761719,164.998047 C410.027345,164.841796 410.259765,164.634767 410.458984,164.376953 L411.121094,164.892578 C410.589841,165.708988 409.792974,166.117188 408.730469,166.117188 Z M408.595703,160.433594 C408.158201,160.433594 407.791017,160.592772 407.494141,160.911133 C407.197264,161.229494 407.013672,161.675778 406.943359,162.25 L410.119141,162.25 L410.119141,162.167969 C410.08789,161.617185 409.939454,161.190431 409.673828,160.887695 C409.408202,160.584959 409.04883,160.433594 408.595703,160.433594 Z M412.421875,165.431641 C412.421875,165.24414 412.477539,165.087891 412.588867,164.962891 C412.700196,164.83789 412.867186,164.775391 413.089844,164.775391 C413.312501,164.775391 413.481445,164.83789 413.59668,164.962891 C413.711915,165.087891 413.769531,165.24414 413.769531,165.431641 C413.769531,165.611329 413.711915,165.761718 413.59668,165.882812 C413.481445,166.003907 413.312501,166.064453 413.089844,166.064453 C412.867186,166.064453 412.700196,166.003907 412.588867,165.882812 C412.477539,165.761718 412.421875,165.611329 412.421875,165.431641 Z M412.427734,160.257812 C412.427734,160.070312 412.483398,159.914063 412.594727,159.789062 C412.706055,159.664062 412.873046,159.601562 413.095703,159.601562 C413.31836,159.601562 413.487304,159.664062 413.602539,159.789062 C413.717774,159.914063 413.775391,160.070312 413.775391,160.257812 C413.775391,160.437501 413.717774,160.58789 413.602539,160.708984 C413.487304,160.830079 413.31836,160.890625 413.095703,160.890625 C412.873046,160.890625 412.706055,160.830079 412.594727,160.708984 C412.483398,160.58789 412.427734,160.437501 412.427734,160.257812 Z M421.785156,166 L420.695312,166 L420.695312,158.775391 L418.509766,159.578125 L418.509766,158.59375 L421.615234,157.427734 L421.785156,157.427734 L421.785156,166 Z M427.703125,166.117188 C426.843746,166.117188 426.144534,165.834964 425.605469,165.270508 C425.066404,164.706052 424.796875,163.951177 424.796875,163.005859 L424.796875,162.806641 C424.796875,162.177731 424.916991,161.616213 425.157227,161.12207 C425.397462,160.627927 425.733396,160.241212 426.165039,159.961914 C426.596682,159.682616 427.064451,159.542969 427.568359,159.542969 C428.392582,159.542969 429.033201,159.81445 429.490234,160.357422 C429.947268,160.900393 430.175781,161.677729 430.175781,162.689453 L430.175781,163.140625 L425.880859,163.140625 C425.896484,163.765628 426.0791,164.270506 426.428711,164.655273 C426.778322,165.040041 427.222654,165.232422 427.761719,165.232422 C428.144533,165.232422 428.468749,165.154298 428.734375,164.998047 C429.000001,164.841796 429.232421,164.634767 429.431641,164.376953 L430.09375,164.892578 C429.562497,165.708988 428.76563,166.117188 427.703125,166.117188 Z M427.568359,160.433594 C427.130857,160.433594 426.763673,160.592772 426.466797,160.911133 C426.16992,161.229494 425.986328,161.675778 425.916016,162.25 L429.091797,162.25 L429.091797,162.167969 C429.060547,161.617185 428.912111,161.190431 428.646484,160.887695 C428.380858,160.584959 428.021487,160.433594 427.568359,160.433594 Z M432.449219,159.660156 L432.478516,160.363281 C432.943362,159.816404 433.570309,159.542969 434.359375,159.542969 C435.246098,159.542969 435.849608,159.882809 436.169922,160.5625 C436.38086,160.257811 436.655272,160.01172 436.993164,159.824219 C437.331056,159.636718 437.730466,159.542969 438.191406,159.542969 C439.582038,159.542969 440.289062,160.27929 440.3125,161.751953 L440.3125,166 L439.228516,166 L439.228516,161.816406 C439.228516,161.363279 439.125001,161.024415 438.917969,160.799805 C438.710936,160.575194 438.363284,160.462891 437.875,160.462891 C437.472654,160.462891 437.138673,160.583007 436.873047,160.823242 C436.607421,161.063478 436.453125,161.386717 436.410156,161.792969 L436.410156,166 L435.320312,166 L435.320312,161.845703 C435.320312,160.923824 434.869145,160.462891 433.966797,160.462891 C433.255856,160.462891 432.769533,160.765622 432.507812,161.371094 L432.507812,166 L431.423828,166 L431.423828,159.660156 L432.449219,159.660156 Z" id="Spinner-Size:-1em" fill="#EC407A"></path>
            <g id="Group-8-Copy-4" transform="translate(127.000000, 96.000000)">
                <g id="Button/Standard/Primary-Copy">
                    <rect id="Rectangle-2" fill="#D8D8D8" x="0" y="0" width="100" height="32" rx="2"></rect>
                    <g id="Group-2" transform="translate(12.000000, 6.000000)" fill="#757575">
                        <path d="M4.58154297,13.6191406 L9.10009766,13.6191406 L9.10009766,15 L2.85205078,15 L2.85205078,5.046875 L4.58154297,5.046875 L4.58154297,13.6191406 Z M9.95458984,11.2333984 C9.95458984,10.5087854 10.0981431,9.85595994 10.3852539,9.27490234 C10.6723647,8.69384475 11.075681,8.24723463 11.5952148,7.93505859 C12.1147487,7.62288255 12.7117479,7.46679688 13.3862305,7.46679688 C14.3842823,7.46679688 15.1943328,7.78808272 15.8164062,8.43066406 C16.4384797,9.0732454 16.7745766,9.92545042 16.824707,10.9873047 L16.831543,11.3769531 C16.831543,12.1061234 16.6914077,12.7578096 16.4111328,13.3320312 C16.130858,13.9062529 15.7298203,14.3505844 15.2080078,14.6650391 C14.6861953,14.9794938 14.0834995,15.1367188 13.3999023,15.1367188 C12.3562773,15.1367188 11.521162,14.7892287 10.8945312,14.0942383 C10.2679005,13.3992478 9.95458984,12.4729876 9.95458984,11.3154297 L9.95458984,11.2333984 Z M11.6157227,11.3769531 C11.6157227,12.1380246 11.7729476,12.7338846 12.0874023,13.1645508 C12.401857,13.595217 12.8393527,13.8105469 13.3999023,13.8105469 C13.960452,13.8105469 14.3968083,13.5917991 14.7089844,13.1542969 C15.0211604,12.7167947 15.1772461,12.0765016 15.1772461,11.2333984 C15.1772461,10.4859989 15.0166032,9.89355687 14.6953125,9.45605469 C14.3740218,9.0185525 13.9376655,8.79980469 13.3862305,8.79980469 C12.84391,8.79980469 12.4132503,9.01513457 12.0942383,9.44580078 C11.7752263,9.876467 11.6157227,10.520178 11.6157227,11.3769531 Z M22.6557617,15 C22.5828447,14.8587233 22.5190432,14.6285823 22.4643555,14.3095703 C21.935707,14.8610054 21.288578,15.1367188 20.5229492,15.1367188 C19.780107,15.1367188 19.1739932,14.9248068 18.7045898,14.5009766 C18.2351865,14.0771463 18.0004883,13.553063 18.0004883,12.9287109 C18.0004883,12.1402955 18.2932913,11.5353211 18.8789062,11.1137695 C19.4645212,10.6922179 20.3019151,10.4814453 21.3911133,10.4814453 L22.409668,10.4814453 L22.409668,9.99609375 C22.409668,9.61327934 22.3025727,9.30680454 22.0883789,9.07666016 C21.8741851,8.84651578 21.548342,8.73144531 21.1108398,8.73144531 C20.7325827,8.73144531 20.42269,8.82600817 20.1811523,9.01513672 C19.9396147,9.20426527 19.8188477,9.44466 19.8188477,9.73632812 L18.1577148,9.73632812 C18.1577148,9.33072714 18.2921536,8.9513364 18.5610352,8.59814453 C18.8299167,8.24495266 19.1956357,7.96809996 19.6582031,7.76757812 C20.1207705,7.56705629 20.6368787,7.46679688 21.206543,7.46679688 C22.0724327,7.46679688 22.7628555,7.68440538 23.277832,8.11962891 C23.7928086,8.55485244 24.0571288,9.16666272 24.0708008,9.95507812 L24.0708008,13.2910156 C24.0708008,13.9563835 24.1642243,14.4873027 24.3510742,14.8837891 L24.3510742,15 L22.6557617,15 Z M20.8305664,13.8037109 C21.158693,13.8037109 21.4674465,13.7239591 21.7568359,13.5644531 C22.0462254,13.4049471 22.2638339,13.1907566 22.409668,12.921875 L22.409668,11.5273438 L21.5141602,11.5273438 C20.8989227,11.5273438 20.4363622,11.634439 20.1264648,11.8486328 C19.8165675,12.0628266 19.6616211,12.3658835 19.6616211,12.7578125 C19.6616211,13.0768245 19.7675771,13.330891 19.9794922,13.5200195 C20.1914073,13.7091481 20.4750959,13.8037109 20.8305664,13.8037109 Z M25.4995117,11.2470703 C25.4995117,10.1077417 25.763832,9.19287455 26.2924805,8.50244141 C26.8211289,7.81200827 27.5297807,7.46679688 28.418457,7.46679688 C29.2023151,7.46679688 29.8357723,7.74023164 30.3188477,8.28710938 L30.3188477,4.5 L31.9799805,4.5 L31.9799805,15 L30.4760742,15 L30.394043,14.234375 C29.8972957,14.8359405 29.2342164,15.1367188 28.4047852,15.1367188 C27.5388954,15.1367188 26.8382188,14.7880894 26.3027344,14.0908203 C25.7672499,13.3935512 25.4995117,12.445644 25.4995117,11.2470703 Z M27.1606445,11.390625 C27.1606445,12.1425819 27.3053371,12.7293273 27.5947266,13.1508789 C27.884116,13.5724305 28.2954075,13.7832031 28.8286133,13.7832031 C29.5076531,13.7832031 30.004393,13.4801463 30.3188477,12.8740234 L30.3188477,9.71582031 C30.0135076,9.12336943 29.521325,8.82714844 28.8422852,8.82714844 C28.3045221,8.82714844 27.8898127,9.04019969 27.5981445,9.46630859 C27.3064764,9.8924175 27.1606445,10.5338499 27.1606445,11.390625 Z M35.4799805,15 L33.8188477,15 L33.8188477,7.60351562 L35.4799805,7.60351562 L35.4799805,15 Z M33.7163086,5.68261719 C33.7163086,5.42740758 33.7971997,5.21549563 33.9589844,5.046875 C34.120769,4.87825437 34.3520493,4.79394531 34.652832,4.79394531 C34.9536148,4.79394531 35.1860343,4.87825437 35.3500977,5.046875 C35.514161,5.21549563 35.5961914,5.42740758 35.5961914,5.68261719 C35.5961914,5.93326948 35.514161,6.14176349 35.3500977,6.30810547 C35.1860343,6.47444745 34.9536148,6.55761719 34.652832,6.55761719 C34.3520493,6.55761719 34.120769,6.47444745 33.9589844,6.30810547 C33.7971997,6.14176349 33.7163086,5.93326948 33.7163086,5.68261719 Z M38.8295898,7.60351562 L38.8774414,8.45800781 C39.4243191,7.79719722 40.1420854,7.46679688 41.0307617,7.46679688 C42.571134,7.46679688 43.3549803,8.34862399 43.3823242,10.1123047 L43.3823242,15 L41.7211914,15 L41.7211914,10.2080078 C41.7211914,9.73860442 41.6197927,9.39111441 41.4169922,9.16552734 C41.2141917,8.93994028 40.882652,8.82714844 40.4223633,8.82714844 C39.7524381,8.82714844 39.2534196,9.1302053 38.925293,9.73632812 L38.925293,15 L37.2641602,15 L37.2641602,7.60351562 L38.8295898,7.60351562 Z M44.7836914,11.2470703 C44.7836914,10.0986271 45.0537082,9.18148129 45.59375,8.49560547 C46.1337918,7.80972964 46.8504187,7.46679688 47.7436523,7.46679688 C48.5867555,7.46679688 49.2498348,7.76073925 49.7329102,8.34863281 L49.8081055,7.60351562 L51.3051758,7.60351562 L51.3051758,14.7744141 C51.3051758,15.745122 51.0032582,16.5107394 50.3994141,17.0712891 C49.7955699,17.6318387 48.9809622,17.9121094 47.9555664,17.9121094 C47.413246,17.9121094 46.8834661,17.7993175 46.3662109,17.5737305 C45.8489557,17.3481434 45.4558933,17.0530617 45.1870117,16.6884766 L45.9731445,15.6904297 C46.4835638,16.2965525 47.1124637,16.5996094 47.8598633,16.5996094 C48.4112983,16.5996094 48.8465153,16.4503596 49.1655273,16.1518555 C49.4845394,15.8533514 49.644043,15.4147164 49.644043,14.8359375 L49.644043,14.3369141 C49.165525,14.8701199 48.5275105,15.1367188 47.7299805,15.1367188 C46.8640907,15.1367188 46.1565783,14.7926467 45.6074219,14.1044922 C45.0582655,13.4163377 44.7836914,12.4638733 44.7836914,11.2470703 Z M46.4379883,11.390625 C46.4379883,12.1334673 46.5895167,12.7179341 46.8925781,13.144043 C47.1956395,13.5701519 47.6160455,13.7832031 48.1538086,13.7832031 C48.8237338,13.7832031 49.3204736,13.4960966 49.644043,12.921875 L49.644043,9.66796875 C49.3295883,9.10741907 48.8374057,8.82714844 48.1674805,8.82714844 C47.6206027,8.82714844 47.1956395,9.04361763 46.8925781,9.4765625 C46.5895167,9.90950737 46.4379883,10.5475218 46.4379883,11.390625 Z" id="Loading"></path>
                        <g id="Group" transform="translate(62.000000, 3.000000)" fill-rule="nonzero">
                            <path d="M13.0663567,7.07887333 C13.0234067,10.3840267 10.31117,13.0666033 7.00233333,13.0666033 C3.65615333,13.0666033 0.933643333,10.3448233 0.933643333,6.99953333 C0.933643333,3.66077667 3.65055,0.93993 6.99019667,0.933396667 L6.98833,0 C3.13518,0.00746666667 0,3.14741 0,6.99953333 C0,10.8600567 3.14078,14 7.00233333,14 C10.8246733,14 13.9570533,10.8973933 14,7.07887333 L13.0663567,7.07887333 Z" id="Fill-5-Copy"></path>
                        </g>
                    </g>
                </g>
            </g>
            <g id="specs-/-redlines-/-line-straight" transform="translate(317.000000, 163.000000) rotate(-180.000000) translate(-317.000000, -163.000000) translate(298.000000, 158.000000)" stroke="#EC3F7A">
                <path d="M10,5 L37.5,5" id="Stroke-8"></path>
                <path d="M5.00099983,0 C7.76299974,0 10.0009997,2.239 9.99999967,5 C9.99999967,7.762 7.76199974,10 4.99999983,10 C2.23799993,10 0,7.761 0,5 C0.000999999967,2.238 2.23899992,0 5.00099983,0" id="Path" fill-opacity="0.3" fill="#F03F7B"></path>
            </g>
            <polygon id="Path-2" fill="#EC3F7A" fill-rule="nonzero" points="208.5 120 207.5 120 207.5 163.410553 300.245607 163.410553 300.245607 162.410553 208.5 162.410553"></polygon>
        </g>
    </g>
</svg>