<?xml version="1.0" encoding="UTF-8"?>
<svg width="633px" height="246px" viewBox="0 0 633 246" version="1.1" xmlns="http://www.w3.org/2000/svg" xmlns:xlink="http://www.w3.org/1999/xlink">
    <!-- Generator: Sketch 47.1 (45422) - http://www.bohemiancoding.com/sketch -->
    <title>Custom Preset Copy</title>
    <desc>Created with Sketch.</desc>
    <defs>
        <path d="M13.0663567,7.07887333 C13.0234067,10.3840267 10.31117,13.0666033 7.00233333,13.0666033 C3.65615333,13.0666033 0.933643333,10.3448233 0.933643333,6.99953333 C0.933643333,3.66077667 3.65055,0.93993 6.99019667,0.933396667 L6.98833,0 C3.13518,0.00746666667 0,3.14741 0,6.99953333 C0,10.8600567 3.14078,14 7.00233333,14 C10.8246733,14 13.9570533,10.8973933 14,7.07887333 L13.0663567,7.07887333 Z" id="path-1"></path>
        <path d="M11.1997343,6.06760571 C11.16292,8.90059429 8.83814571,11.1999457 6.002,11.1999457 C3.13384571,11.1999457 0.800265714,8.86699143 0.800265714,5.9996 C0.800265714,3.13780857 3.12904286,0.805654286 5.99159714,0.800054286 L5.98999714,0 C2.68729714,0.0064 0,2.69778 0,5.9996 C0,9.30862 2.69209714,12 6.002,12 C9.27829143,12 11.9631886,9.34062286 12,6.06760571 L11.1997343,6.06760571 Z" id="path-2"></path>
        <path d="M14.932979,8.09014095 C14.8838933,11.867459 11.7841943,14.933261 8.00266667,14.933261 C4.17846095,14.933261 1.06702095,11.8226552 1.06702095,7.99946667 C1.06702095,4.18374476 4.17205714,1.07420571 7.98879619,1.06673905 L7.98666286,0 C3.58306286,0.00853333333 0,3.59704 0,7.99946667 C0,12.4114933 3.58946286,16 8.00266667,16 C12.3710552,16 15.9509181,12.4541638 16,8.09014095 L14.932979,8.09014095 Z" id="path-3"></path>
    </defs>
    <g id="Page-1" stroke="none" stroke-width="1" fill="none" fill-rule="evenodd">
        <g id="Custom-Preset-Copy">
            <g id="Group" transform="translate(241.000000, 91.000000)" fill-rule="nonzero">
                <g id="Fill-5-Copy">
                    <use fill="#D8D8D8" fill-rule="evenodd" xlink:href="#path-1"></use>
                    <path stroke="#9E9E9E" stroke-width="1" d="M13.4747067,7.57887333 L13.541419,7.57887333 L14,7.57887333 L13.5000316,7.07325022 C13.4997354,7.09958461 13.4992809,7.12588229 13.498669,7.15214235 C13.495327,7.29555727 13.4872899,7.43785018 13.4747067,7.57887333 C13.1793264,10.8892778 10.3789002,13.5 7.00233333,13.5 C3.41689275,13.5 0.5,10.5838847 0.5,6.99953333 C0.5,3.59143721 3.14442954,0.782609487 6.489369,0.520035233 C6.63248534,0.50880075 6.77688406,0.502227529 6.92241289,0.50046807 C6.94468195,0.500198834 6.96697747,0.500042316 6.9892989,0.499999061 L6.488331,0.000999930148 L6.49019767,0.934396597 L6.98921852,0.433397623 C6.96708558,0.433440922 6.94497794,0.433594306 6.92289614,0.433857256 C6.7771678,0.435592586 6.63256444,0.442099828 6.4892354,0.453229448 C3.10654106,0.715898505 0.433643333,3.55324377 0.433643333,6.99953333 C0.433643333,10.6209945 3.38003976,13.5666033 7.00233333,13.5666033 C10.4172407,13.5666033 13.2460398,10.9284133 13.541419,7.57887333 C13.5542255,7.43365071 13.5622698,7.28709093 13.5653932,7.13935103 C13.5657732,7.1213748 13.5660804,7.1033811 13.5663145,7.08537021 L13.0663567,7.57887333 L13.4747067,7.57887333 Z"></path>
                </g>
            </g>
            <g id="Group" transform="translate(108.000000, 99.000000) rotate(-80.000000) translate(-108.000000, -99.000000) translate(102.000000, 93.000000)" fill-rule="nonzero">
                <g id="Fill-5-Copy">
                    <use fill="#9E9E9E" fill-rule="evenodd" xlink:href="#path-2"></use>
                    <path stroke="#9E9E9E" stroke-width="1" d="M11.471099,6.56760571 L12,6.56760571 L11.5000316,6.0619826 C11.499219,6.13423615 11.4969975,6.20616324 11.4933936,6.27773769 C11.4884945,6.37503392 11.4810408,6.47167851 11.471099,6.56760571 C11.1846394,9.33159434 8.83242545,11.5 6.002,11.5 C2.96820986,11.5 0.5,9.03244796 0.5,5.9996 C0.5,3.1420952 2.69724787,0.782324455 5.49104314,0.523534212 C5.5891041,0.514450791 5.68789998,0.507955733 5.78736159,0.504118365 C5.85492974,0.50151149 5.92280513,0.500131144 5.99096605,0.499999061 L5.48999814,0.000999930148 L5.49159814,0.801054216 L5.990619,0.300055242 C5.92480869,0.300183987 5.85925623,0.301433923 5.79397974,0.303786904 C5.69217284,0.307456674 5.59103722,0.313809524 5.49064165,0.322776607 C2.58564609,0.582243599 0.300265714,3.03051023 0.300265714,5.9996 C0.300265714,9.14316277 2.8577323,11.6999457 6.002,11.6999457 C8.94418579,11.6999457 11.3849505,9.44417278 11.6719637,6.56760571 C11.6821688,6.46532574 11.6896511,6.36226092 11.6943362,6.25848476 C11.6970999,6.19726655 11.6988903,6.1358008 11.6996921,6.0741026 L11.1997343,6.56760571 L11.471099,6.56760571 Z"></path>
                </g>
            </g>
            <g id="Group-17" transform="translate(84.000000, 133.000000)" fill="#EC407A">
                <g id="specs-/-redlines-/-label-copy-4">
                    <path d="M3.50390625,7.19726562 C2.53905768,6.91992049 1.83691626,6.57910358 1.39746094,6.17480469 C0.958005615,5.77050579 0.73828125,5.27148734 0.73828125,4.67773438 C0.73828125,4.00585602 1.00683325,3.45019751 1.54394531,3.01074219 C2.08105737,2.57128687 2.77929258,2.3515625 3.63867188,2.3515625 C4.2246123,2.3515625 4.74706802,2.46484262 5.20605469,2.69140625 C5.66504136,2.91796988 6.02050655,3.23046676 6.27246094,3.62890625 C6.52441532,4.02734574 6.65039062,4.46288826 6.65039062,4.93554688 L5.51953125,4.93554688 C5.51953125,4.4199193 5.35547039,4.01464991 5.02734375,3.71972656 C4.69921711,3.42480321 4.23633111,3.27734375 3.63867188,3.27734375 C3.0839816,3.27734375 2.65136874,3.39941284 2.34082031,3.64355469 C2.03027188,3.88769653 1.875,4.22656033 1.875,4.66015625 C1.875,5.00781424 2.02245946,5.30175661 2.31738281,5.54199219 C2.61230616,5.78222776 3.11425427,6.00195213 3.82324219,6.20117188 C4.53223011,6.40039162 5.08691206,6.62011599 5.48730469,6.86035156 C5.88769731,7.10058714 6.18456935,7.38085777 6.37792969,7.70117188 C6.57129003,8.02148598 6.66796875,8.39843533 6.66796875,8.83203125 C6.66796875,9.52344096 6.3984402,10.0771464 5.859375,10.4931641 C5.3203098,10.9091818 4.59961389,11.1171875 3.69726562,11.1171875 C3.1113252,11.1171875 2.56445566,11.0048839 2.05664062,10.7802734 C1.54882559,10.5556629 1.15722794,10.2480488 0.881835938,9.85742188 C0.606443936,9.46679492 0.46875,9.02343998 0.46875,8.52734375 L1.59960938,8.52734375 C1.59960938,9.04297133 1.79003716,9.45019382 2.17089844,9.74902344 C2.55175972,10.0478531 3.06054369,10.1972656 3.69726562,10.1972656 C4.29101859,10.1972656 4.74609217,10.0761731 5.0625,9.83398438 C5.37890783,9.59179566 5.53710938,9.26172084 5.53710938,8.84375 C5.53710938,8.42577916 5.39062646,8.10254021 5.09765625,7.87402344 C4.80468604,7.64550667 4.27344135,7.41992299 3.50390625,7.19726562 Z M8.95898438,4.66015625 L8.98828125,5.36328125 C9.45312732,4.81640352 10.0800742,4.54296875 10.8691406,4.54296875 C11.7558638,4.54296875 12.3593734,4.8828091 12.6796875,5.5625 C12.8906261,5.25781098 13.1650374,5.01171969 13.5029297,4.82421875 C13.840822,4.63671781 14.2402321,4.54296875 14.7011719,4.54296875 C16.0918038,4.54296875 16.798828,5.27928951 16.8222656,6.75195312 L16.8222656,11 L15.7382812,11 L15.7382812,6.81640625 C15.7382812,6.36327898 15.6347667,6.02441519 15.4277344,5.79980469 C15.2207021,5.57519419 14.8730493,5.46289062 14.3847656,5.46289062 C13.9824199,5.46289062 13.6484388,5.58300661 13.3828125,5.82324219 C13.1171862,6.06347776 12.9628908,6.38671672 12.9199219,6.79296875 L12.9199219,11 L11.8300781,11 L11.8300781,6.84570312 C11.8300781,5.92382352 11.3789108,5.46289062 10.4765625,5.46289062 C9.76562145,5.46289062 9.27929818,5.76562197 9.01757812,6.37109375 L9.01757812,11 L7.93359375,11 L7.93359375,4.66015625 L8.95898438,4.66015625 Z M18.4804688,10.4316406 C18.4804688,10.2441397 18.5361323,10.0878912 18.6474609,9.96289062 C18.7587896,9.83789 18.9257801,9.77539062 19.1484375,9.77539062 C19.3710949,9.77539062 19.5400385,9.83789 19.6552734,9.96289062 C19.7705084,10.0878912 19.828125,10.2441397 19.828125,10.4316406 C19.828125,10.611329 19.7705084,10.7617181 19.6552734,10.8828125 C19.5400385,11.0039069 19.3710949,11.0644531 19.1484375,11.0644531 C18.9257801,11.0644531 18.7587896,11.0039069 18.6474609,10.8828125 C18.5361323,10.7617181 18.4804688,10.611329 18.4804688,10.4316406 Z M25.9628906,11 L24.8378906,11 L24.8378906,2.46875 L25.9628906,2.46875 L25.9628906,11 Z M30.3925781,10.2324219 C30.7792988,10.2324219 31.1171861,10.1152355 31.40625,9.88085938 C31.6953139,9.6464832 31.8554686,9.35351738 31.8867188,9.00195312 L32.9121094,9.00195312 C32.892578,9.36523619 32.7675793,9.71093586 32.5371094,10.0390625 C32.3066395,10.3671891 31.9990254,10.6289053 31.6142578,10.8242188 C31.2294903,11.0195322 30.8222678,11.1171875 30.3925781,11.1171875 C29.5292926,11.1171875 28.842776,10.8291044 28.3330078,10.2529297 C27.8232396,9.67675493 27.5683594,8.88867688 27.5683594,7.88867188 L27.5683594,7.70703125 C27.5683594,7.08984066 27.6816395,6.54101803 27.9082031,6.06054688 C28.1347668,5.58007572 28.4599588,5.20703258 28.8837891,4.94140625 C29.3076193,4.67577992 29.8085909,4.54296875 30.3867188,4.54296875 C31.0976598,4.54296875 31.6884742,4.75585725 32.1591797,5.18164062 C32.6298852,5.607424 32.8808592,6.16015285 32.9121094,6.83984375 L31.8867188,6.83984375 C31.8554686,6.42968545 31.7001967,6.09277476 31.4208984,5.82910156 C31.1416002,5.56542837 30.7968771,5.43359375 30.3867188,5.43359375 C29.8359347,5.43359375 29.4091812,5.63183396 29.1064453,6.02832031 C28.8037094,6.42480667 28.6523438,6.99804312 28.6523438,7.74804688 L28.6523438,7.953125 C28.6523438,8.6835974 28.8027329,9.24609178 29.1035156,9.640625 C29.4042984,10.0351582 29.8339816,10.2324219 30.3925781,10.2324219 Z M33.84375,7.77148438 C33.84375,7.15038752 33.9658191,6.59179936 34.2099609,6.09570312 C34.4541028,5.59960689 34.7939431,5.21679822 35.2294922,4.94726562 C35.6650412,4.67773303 36.1621066,4.54296875 36.7207031,4.54296875 C37.5839887,4.54296875 38.2822239,4.84179389 38.8154297,5.43945312 C39.3486355,6.03711236 39.6152344,6.83202629 39.6152344,7.82421875 L39.6152344,7.90039062 C39.6152344,8.51758121 39.4970715,9.07128661 39.2607422,9.56152344 C39.0244129,10.0517603 38.6865256,10.4335924 38.2470703,10.7070312 C37.807615,10.9804701 37.3027372,11.1171875 36.7324219,11.1171875 C35.8730426,11.1171875 35.1767605,10.8183624 34.6435547,10.2207031 C34.1103489,9.62304389 33.84375,8.83203617 33.84375,7.84765625 L33.84375,7.77148438 Z M34.9335938,7.90039062 C34.9335938,8.60351914 35.0966781,9.16796662 35.4228516,9.59375 C35.7490251,10.0195334 36.1855441,10.2324219 36.7324219,10.2324219 C37.2832059,10.2324219 37.7207015,10.0166037 38.0449219,9.58496094 C38.3691422,9.15331815 38.53125,8.54883201 38.53125,7.77148438 C38.53125,7.0761684 38.3662126,6.51269747 38.0361328,6.08105469 C37.706053,5.6494119 37.2675809,5.43359375 36.7207031,5.43359375 C36.1855442,5.43359375 35.7539079,5.64648225 35.4257812,6.07226562 C35.0976546,6.498049 34.9335938,7.10741791 34.9335938,7.90039062 Z M42,4.66015625 L42.0351562,5.45703125 C42.5195337,4.8476532 43.1523398,4.54296875 43.9335938,4.54296875 C45.2734442,4.54296875 45.9492187,5.29882057 45.9609375,6.81054688 L45.9609375,11 L44.8769531,11 L44.8769531,6.8046875 C44.8730469,6.34765396 44.7685557,6.00976672 44.5634766,5.79101562 C44.3583974,5.57226453 44.0390647,5.46289062 43.6054688,5.46289062 C43.2539045,5.46289062 42.9453138,5.55663969 42.6796875,5.74414062 C42.4140612,5.93164156 42.207032,6.17773285 42.0585938,6.48242188 L42.0585938,11 L40.9746094,11 L40.9746094,4.66015625 L42,4.66015625 Z M47.5605469,10.4316406 C47.5605469,10.2441397 47.6162104,10.0878912 47.7275391,9.96289062 C47.8388677,9.83789 48.0058583,9.77539062 48.2285156,9.77539062 C48.451173,9.77539062 48.6201166,9.83789 48.7353516,9.96289062 C48.8505865,10.0878912 48.9082031,10.2441397 48.9082031,10.4316406 C48.9082031,10.611329 48.8505865,10.7617181 48.7353516,10.8828125 C48.6201166,11.0039069 48.451173,11.0644531 48.2285156,11.0644531 C48.0058583,11.0644531 47.8388677,11.0039069 47.7275391,10.8828125 C47.6162104,10.7617181 47.5605469,10.611329 47.5605469,10.4316406 Z M47.5664062,5.2578125 C47.5664062,5.07031156 47.6220698,4.91406312 47.7333984,4.7890625 C47.8447271,4.66406188 48.0117176,4.6015625 48.234375,4.6015625 C48.4570324,4.6015625 48.625976,4.66406188 48.7412109,4.7890625 C48.8564459,4.91406312 48.9140625,5.07031156 48.9140625,5.2578125 C48.9140625,5.4375009 48.8564459,5.58789002 48.7412109,5.70898438 C48.625976,5.83007873 48.4570324,5.890625 48.234375,5.890625 C48.0117176,5.890625 47.8447271,5.83007873 47.7333984,5.70898438 C47.6220698,5.58789002 47.5664062,5.4375009 47.5664062,5.2578125 Z M4.27148438,25 L3.18164062,25 L3.18164062,17.7753906 L0.99609375,18.578125 L0.99609375,17.59375 L4.1015625,16.4277344 L4.27148438,16.4277344 L4.27148438,25 Z M13.0371094,25 L7.44726562,25 L7.44726562,24.2207031 L10.4003906,20.9394531 C10.8378928,20.4433569 11.1396476,20.0400406 11.3056641,19.7294922 C11.4716805,19.4189438 11.5546875,19.0976579 11.5546875,18.765625 C11.5546875,18.3203103 11.4199232,17.9550796 11.1503906,17.6699219 C10.880858,17.3847642 10.5214866,17.2421875 10.0722656,17.2421875 C9.53320043,17.2421875 9.11425931,17.3955063 8.81542969,17.7021484 C8.51660007,18.0087906 8.3671875,18.4355441 8.3671875,18.9824219 L7.28320312,18.9824219 C7.28320312,18.1972617 7.53613028,17.5625024 8.04199219,17.078125 C8.54785409,16.5937476 9.22460514,16.3515625 10.0722656,16.3515625 C10.8652383,16.3515625 11.4921852,16.5595682 11.953125,16.9755859 C12.4140648,17.3916036 12.6445312,17.945309 12.6445312,18.6367188 C12.6445312,19.4765667 12.1093804,20.4765567 11.0390625,21.6367188 L8.75390625,24.1152344 L13.0371094,24.1152344 L13.0371094,25 Z M22.6230469,21.9003906 C22.6230469,22.8652392 22.402346,23.6425752 21.9609375,24.2324219 C21.519529,24.8222686 20.9218788,25.1171875 20.1679688,25.1171875 C19.3984337,25.1171875 18.792971,24.8730493 18.3515625,24.3847656 L18.3515625,27.4375 L17.2675781,27.4375 L17.2675781,18.6601562 L18.2578125,18.6601562 L18.3105469,19.3632812 C18.7519553,18.8164035 19.3652304,18.5429688 20.1503906,18.5429688 C20.9121132,18.5429688 21.5146462,18.8300753 21.9580078,19.4042969 C22.4013694,19.9785185 22.6230469,20.7773386 22.6230469,21.8007812 L22.6230469,21.9003906 Z M21.5390625,21.7773438 C21.5390625,21.0624964 21.3867203,20.4980489 21.0820312,20.0839844 C20.7773422,19.6699198 20.3593777,19.4628906 19.828125,19.4628906 C19.1718717,19.4628906 18.6796891,19.7539033 18.3515625,20.3359375 L18.3515625,23.3652344 C18.6757829,23.9433623 19.1718717,24.2324219 19.8398438,24.2324219 C20.3593776,24.2324219 20.7724594,24.0263692 21.0791016,23.6142578 C21.3857437,23.2021464 21.5390625,22.5898478 21.5390625,21.7773438 Z M26.0390625,20.9746094 L27.4453125,18.6601562 L28.7109375,18.6601562 L26.6367188,21.7949219 L28.7753906,25 L27.5214844,25 L26.0566406,22.6269531 L24.5917969,25 L23.3320312,25 L25.4707031,21.7949219 L23.3964844,18.6601562 L24.6503906,18.6601562 L26.0390625,20.9746094 Z M34.9570312,20.9746094 L36.3632812,18.6601562 L37.6289062,18.6601562 L35.5546875,21.7949219 L37.6933594,25 L36.4394531,25 L34.9746094,22.6269531 L33.5097656,25 L32.25,25 L34.3886719,21.7949219 L32.3144531,18.6601562 L33.5683594,18.6601562 L34.9570312,20.9746094 Z M45.1992188,25 L44.109375,25 L44.109375,17.7753906 L41.9238281,18.578125 L41.9238281,17.59375 L45.0292969,16.4277344 L45.1992188,16.4277344 L45.1992188,25 Z M53.9648438,25 L48.375,25 L48.375,24.2207031 L51.328125,20.9394531 C51.7656272,20.4433569 52.067382,20.0400406 52.2333984,19.7294922 C52.3994149,19.4189438 52.4824219,19.0976579 52.4824219,18.765625 C52.4824219,18.3203103 52.3476576,17.9550796 52.078125,17.6699219 C51.8085924,17.3847642 51.449221,17.2421875 51,17.2421875 C50.4609348,17.2421875 50.0419937,17.3955063 49.7431641,17.7021484 C49.4443344,18.0087906 49.2949219,18.4355441 49.2949219,18.9824219 L48.2109375,18.9824219 C48.2109375,18.1972617 48.4638647,17.5625024 48.9697266,17.078125 C49.4755885,16.5937476 50.1523395,16.3515625 51,16.3515625 C51.7929727,16.3515625 52.4199196,16.5595682 52.8808594,16.9755859 C53.3417992,17.3916036 53.5722656,17.945309 53.5722656,18.6367188 C53.5722656,19.4765667 53.0371147,20.4765567 51.9667969,21.6367188 L49.6816406,24.1152344 L53.9648438,24.1152344 L53.9648438,25 Z M63.5507812,21.9003906 C63.5507812,22.8652392 63.3300803,23.6425752 62.8886719,24.2324219 C62.4472634,24.8222686 61.8496131,25.1171875 61.0957031,25.1171875 C60.326168,25.1171875 59.7207053,24.8730493 59.2792969,24.3847656 L59.2792969,27.4375 L58.1953125,27.4375 L58.1953125,18.6601562 L59.1855469,18.6601562 L59.2382812,19.3632812 C59.6796897,18.8164035 60.2929648,18.5429688 61.078125,18.5429688 C61.8398476,18.5429688 62.4423806,18.8300753 62.8857422,19.4042969 C63.3291038,19.9785185 63.5507812,20.7773386 63.5507812,21.8007812 L63.5507812,21.9003906 Z M62.4667969,21.7773438 C62.4667969,21.0624964 62.3144546,20.4980489 62.0097656,20.0839844 C61.7050766,19.6699198 61.287112,19.4628906 60.7558594,19.4628906 C60.0996061,19.4628906 59.6074235,19.7539033 59.2792969,20.3359375 L59.2792969,23.3652344 C59.6035172,23.9433623 60.099606,24.2324219 60.7675781,24.2324219 C61.287112,24.2324219 61.7001938,24.0263692 62.0068359,23.6142578 C62.3134781,23.2021464 62.4667969,22.5898478 62.4667969,21.7773438 Z M66.9667969,20.9746094 L68.3730469,18.6601562 L69.6386719,18.6601562 L67.5644531,21.7949219 L69.703125,25 L68.4492188,25 L66.984375,22.6269531 L65.5195312,25 L64.2597656,25 L66.3984375,21.7949219 L64.3242188,18.6601562 L65.578125,18.6601562 L66.9667969,20.9746094 Z" id="redline-label"></path>
                </g>
            </g>
            <g id="Group-17" transform="translate(222.000000, 133.000000)" fill="#EC407A">
                <g id="specs-/-redlines-/-label-copy-4">
                    <path d="M2.44335938,2.46875 L5.23242188,9.4296875 L8.02148438,2.46875 L9.48046875,2.46875 L9.48046875,11 L8.35546875,11 L8.35546875,7.67773438 L8.4609375,4.09179688 L5.66015625,11 L4.79882812,11 L2.00390625,4.109375 L2.11523438,7.67773438 L2.11523438,11 L0.990234375,11 L0.990234375,2.46875 L2.44335938,2.46875 Z M11.0332031,7.77734375 C11.0332031,6.80468264 11.2636696,6.0224639 11.7246094,5.43066406 C12.1855492,4.83886423 12.7890588,4.54296875 13.5351562,4.54296875 C14.2773475,4.54296875 14.8652322,4.79687246 15.2988281,5.3046875 L15.2988281,2 L16.3828125,2 L16.3828125,11 L15.3867188,11 L15.3339844,10.3203125 C14.9003885,10.8515652 14.2968789,11.1171875 13.5234375,11.1171875 C12.7890588,11.1171875 12.190432,10.8164093 11.7275391,10.2148438 C11.2646461,9.61327824 11.0332031,8.82812984 11.0332031,7.859375 L11.0332031,7.77734375 Z M12.1171875,7.90039062 C12.1171875,8.61914422 12.2656235,9.18163859 12.5625,9.58789062 C12.8593765,9.99414266 13.2695286,10.1972656 13.7929688,10.1972656 C14.4804722,10.1972656 14.9824203,9.88867496 15.2988281,9.27148438 L15.2988281,6.359375 C14.9746078,5.76171576 14.4765659,5.46289062 13.8046875,5.46289062 C13.2734348,5.46289062 12.8593765,5.6679667 12.5625,6.078125 C12.2656235,6.4882833 12.1171875,7.0956991 12.1171875,7.90039062 Z M18.0878906,10.4316406 C18.0878906,10.2441397 18.1435541,10.0878912 18.2548828,9.96289062 C18.3662115,9.83789 18.533202,9.77539062 18.7558594,9.77539062 C18.9785167,9.77539062 19.1474604,9.83789 19.2626953,9.96289062 C19.3779303,10.0878912 19.4355469,10.2441397 19.4355469,10.4316406 C19.4355469,10.611329 19.3779303,10.7617181 19.2626953,10.8828125 C19.1474604,11.0039069 18.9785167,11.0644531 18.7558594,11.0644531 C18.533202,11.0644531 18.3662115,11.0039069 18.2548828,10.8828125 C18.1435541,10.7617181 18.0878906,10.611329 18.0878906,10.4316406 Z M25.5703125,11 L24.4453125,11 L24.4453125,2.46875 L25.5703125,2.46875 L25.5703125,11 Z M30,10.2324219 C30.3867207,10.2324219 30.7246079,10.1152355 31.0136719,9.88085938 C31.3027358,9.6464832 31.4628905,9.35351738 31.4941406,9.00195312 L32.5195312,9.00195312 C32.4999999,9.36523619 32.3750012,9.71093586 32.1445312,10.0390625 C31.9140613,10.3671891 31.6064472,10.6289053 31.2216797,10.8242188 C30.8369121,11.0195322 30.4296896,11.1171875 30,11.1171875 C29.1367144,11.1171875 28.4501979,10.8291044 27.9404297,10.2529297 C27.4306615,9.67675493 27.1757812,8.88867688 27.1757812,7.88867188 L27.1757812,7.70703125 C27.1757812,7.08984066 27.2890614,6.54101803 27.515625,6.06054688 C27.7421886,5.58007572 28.0673807,5.20703258 28.4912109,4.94140625 C28.9150412,4.67577992 29.4160127,4.54296875 29.9941406,4.54296875 C30.7050817,4.54296875 31.2958961,4.75585725 31.7666016,5.18164062 C32.237307,5.607424 32.4882811,6.16015285 32.5195312,6.83984375 L31.4941406,6.83984375 C31.4628905,6.42968545 31.3076186,6.09277476 31.0283203,5.82910156 C30.749022,5.56542837 30.4042989,5.43359375 29.9941406,5.43359375 C29.4433566,5.43359375 29.0166031,5.63183396 28.7138672,6.02832031 C28.4111313,6.42480667 28.2597656,6.99804312 28.2597656,7.74804688 L28.2597656,7.953125 C28.2597656,8.6835974 28.4101547,9.24609178 28.7109375,9.640625 C29.0117203,10.0351582 29.4414035,10.2324219 30,10.2324219 Z M33.4511719,7.77148438 C33.4511719,7.15038752 33.573241,6.59179936 33.8173828,6.09570312 C34.0615247,5.59960689 34.401365,5.21679822 34.8369141,4.94726562 C35.2724631,4.67773303 35.7695285,4.54296875 36.328125,4.54296875 C37.1914106,4.54296875 37.8896458,4.84179389 38.4228516,5.43945312 C38.9560574,6.03711236 39.2226562,6.83202629 39.2226562,7.82421875 L39.2226562,7.90039062 C39.2226562,8.51758121 39.1044934,9.07128661 38.8681641,9.56152344 C38.6318348,10.0517603 38.2939475,10.4335924 37.8544922,10.7070312 C37.4150369,10.9804701 36.9101591,11.1171875 36.3398438,11.1171875 C35.4804645,11.1171875 34.7841824,10.8183624 34.2509766,10.2207031 C33.7177708,9.62304389 33.4511719,8.83203617 33.4511719,7.84765625 L33.4511719,7.77148438 Z M34.5410156,7.90039062 C34.5410156,8.60351914 34.7040999,9.16796662 35.0302734,9.59375 C35.3564469,10.0195334 35.792966,10.2324219 36.3398438,10.2324219 C36.8906278,10.2324219 37.3281234,10.0166037 37.6523438,9.58496094 C37.9765641,9.15331815 38.1386719,8.54883201 38.1386719,7.77148438 C38.1386719,7.0761684 37.9736345,6.51269747 37.6435547,6.08105469 C37.3134749,5.6494119 36.8750027,5.43359375 36.328125,5.43359375 C35.7929661,5.43359375 35.3613298,5.64648225 35.0332031,6.07226562 C34.7050765,6.498049 34.5410156,7.10741791 34.5410156,7.90039062 Z M41.6074219,4.66015625 L41.6425781,5.45703125 C42.1269555,4.8476532 42.7597617,4.54296875 43.5410156,4.54296875 C44.8808661,4.54296875 45.5566406,5.29882057 45.5683594,6.81054688 L45.5683594,11 L44.484375,11 L44.484375,6.8046875 C44.4804687,6.34765396 44.3759776,6.00976672 44.1708984,5.79101562 C43.9658193,5.57226453 43.6464865,5.46289062 43.2128906,5.46289062 C42.8613264,5.46289062 42.5527357,5.55663969 42.2871094,5.74414062 C42.021483,5.93164156 41.8144539,6.17773285 41.6660156,6.48242188 L41.6660156,11 L40.5820312,11 L40.5820312,4.66015625 L41.6074219,4.66015625 Z M47.1679688,10.4316406 C47.1679688,10.2441397 47.2236323,10.0878912 47.3349609,9.96289062 C47.4462896,9.83789 47.6132801,9.77539062 47.8359375,9.77539062 C48.0585949,9.77539062 48.2275385,9.83789 48.3427734,9.96289062 C48.4580084,10.0878912 48.515625,10.2441397 48.515625,10.4316406 C48.515625,10.611329 48.4580084,10.7617181 48.3427734,10.8828125 C48.2275385,11.0039069 48.0585949,11.0644531 47.8359375,11.0644531 C47.6132801,11.0644531 47.4462896,11.0039069 47.3349609,10.8828125 C47.2236323,10.7617181 47.1679688,10.611329 47.1679688,10.4316406 Z M47.1738281,5.2578125 C47.1738281,5.07031156 47.2294916,4.91406312 47.3408203,4.7890625 C47.452149,4.66406188 47.6191395,4.6015625 47.8417969,4.6015625 C48.0644542,4.6015625 48.2333979,4.66406188 48.3486328,4.7890625 C48.4638678,4.91406312 48.5214844,5.07031156 48.5214844,5.2578125 C48.5214844,5.4375009 48.4638678,5.58789002 48.3486328,5.70898438 C48.2333979,5.83007873 48.0644542,5.890625 47.8417969,5.890625 C47.6191395,5.890625 47.452149,5.83007873 47.3408203,5.70898438 C47.2294916,5.58789002 47.1738281,5.4375009 47.1738281,5.2578125 Z M4.27148438,25 L3.18164063,25 L3.18164063,17.7753906 L0.99609375,18.578125 L0.99609375,17.59375 L4.1015625,16.4277344 L4.27148438,16.4277344 L4.27148438,25 Z M12.0234375,22.1347656 L13.2070312,22.1347656 L13.2070312,23.0195312 L12.0234375,23.0195312 L12.0234375,25 L10.9335938,25 L10.9335938,23.0195312 L7.04882812,23.0195312 L7.04882812,22.3808594 L10.8691406,16.46875 L12.0234375,16.46875 L12.0234375,22.1347656 Z M8.27929688,22.1347656 L10.9335938,22.1347656 L10.9335938,17.9511719 L10.8046875,18.1855469 L8.27929688,22.1347656 Z M22.6230469,21.9003906 C22.6230469,22.8652392 22.402346,23.6425752 21.9609375,24.2324219 C21.519529,24.8222686 20.9218788,25.1171875 20.1679688,25.1171875 C19.3984337,25.1171875 18.792971,24.8730493 18.3515625,24.3847656 L18.3515625,27.4375 L17.2675781,27.4375 L17.2675781,18.6601562 L18.2578125,18.6601562 L18.3105469,19.3632812 C18.7519553,18.8164035 19.3652304,18.5429688 20.1503906,18.5429688 C20.9121132,18.5429688 21.5146462,18.8300753 21.9580078,19.4042969 C22.4013694,19.9785185 22.6230469,20.7773386 22.6230469,21.8007812 L22.6230469,21.9003906 Z M21.5390625,21.7773438 C21.5390625,21.0624964 21.3867203,20.4980489 21.0820312,20.0839844 C20.7773422,19.6699198 20.3593777,19.4628906 19.828125,19.4628906 C19.1718717,19.4628906 18.6796891,19.7539033 18.3515625,20.3359375 L18.3515625,23.3652344 C18.6757829,23.9433623 19.1718717,24.2324219 19.8398438,24.2324219 C20.3593776,24.2324219 20.7724594,24.0263692 21.0791016,23.6142578 C21.3857437,23.2021464 21.5390625,22.5898478 21.5390625,21.7773438 Z M26.0390625,20.9746094 L27.4453125,18.6601562 L28.7109375,18.6601562 L26.6367188,21.7949219 L28.7753906,25 L27.5214844,25 L26.0566406,22.6269531 L24.5917969,25 L23.3320312,25 L25.4707031,21.7949219 L23.3964844,18.6601562 L24.6503906,18.6601562 L26.0390625,20.9746094 Z M34.9570312,20.9746094 L36.3632812,18.6601562 L37.6289062,18.6601562 L35.5546875,21.7949219 L37.6933594,25 L36.4394531,25 L34.9746094,22.6269531 L33.5097656,25 L32.25,25 L34.3886719,21.7949219 L32.3144531,18.6601562 L33.5683594,18.6601562 L34.9570312,20.9746094 Z M45.1992188,25 L44.109375,25 L44.109375,17.7753906 L41.9238281,18.578125 L41.9238281,17.59375 L45.0292969,16.4277344 L45.1992188,16.4277344 L45.1992188,25 Z M52.9511719,22.1347656 L54.1347656,22.1347656 L54.1347656,23.0195312 L52.9511719,23.0195312 L52.9511719,25 L51.8613281,25 L51.8613281,23.0195312 L47.9765625,23.0195312 L47.9765625,22.3808594 L51.796875,16.46875 L52.9511719,16.46875 L52.9511719,22.1347656 Z M49.2070312,22.1347656 L51.8613281,22.1347656 L51.8613281,17.9511719 L51.7324219,18.1855469 L49.2070312,22.1347656 Z M63.5507812,21.9003906 C63.5507812,22.8652392 63.3300803,23.6425752 62.8886719,24.2324219 C62.4472634,24.8222686 61.8496131,25.1171875 61.0957031,25.1171875 C60.326168,25.1171875 59.7207053,24.8730493 59.2792969,24.3847656 L59.2792969,27.4375 L58.1953125,27.4375 L58.1953125,18.6601562 L59.1855469,18.6601562 L59.2382812,19.3632812 C59.6796897,18.8164035 60.2929648,18.5429688 61.078125,18.5429688 C61.8398476,18.5429688 62.4423806,18.8300753 62.8857422,19.4042969 C63.3291038,19.9785185 63.5507812,20.7773386 63.5507812,21.8007812 L63.5507812,21.9003906 Z M62.4667969,21.7773438 C62.4667969,21.0624964 62.3144546,20.4980489 62.0097656,20.0839844 C61.7050766,19.6699198 61.287112,19.4628906 60.7558594,19.4628906 C60.0996061,19.4628906 59.6074235,19.7539033 59.2792969,20.3359375 L59.2792969,23.3652344 C59.6035172,23.9433623 60.099606,24.2324219 60.7675781,24.2324219 C61.287112,24.2324219 61.7001938,24.0263692 62.0068359,23.6142578 C62.3134781,23.2021464 62.4667969,22.5898478 62.4667969,21.7773438 Z M66.9667969,20.9746094 L68.3730469,18.6601562 L69.6386719,18.6601562 L67.5644531,21.7949219 L69.703125,25 L68.4492188,25 L66.984375,22.6269531 L65.5195312,25 L64.2597656,25 L66.3984375,21.7949219 L64.3242188,18.6601562 L65.578125,18.6601562 L66.9667969,20.9746094 Z" id="redline-label"></path>
                </g>
            </g>
            <g id="Group-17" transform="translate(355.000000, 133.000000)" fill="#EC407A">
                <g id="specs-/-redlines-/-label-copy-4">
                    <path d="M2.12109375,10.0800781 L6.1640625,10.0800781 L6.1640625,11 L0.990234375,11 L0.990234375,2.46875 L2.12109375,2.46875 L2.12109375,10.0800781 Z M7.01953125,7.77734375 C7.01953125,6.78905756 7.24804459,6.00293261 7.70507812,5.41894531 C8.16211166,4.83495802 8.76757436,4.54296875 9.52148438,4.54296875 C10.2949257,4.54296875 10.8984353,4.81640352 11.3320312,5.36328125 L11.3847656,4.66015625 L12.375,4.66015625 L12.375,10.8476562 C12.375,11.6679729 12.1318384,12.3144508 11.6455078,12.7871094 C11.1591773,13.259768 10.5058635,13.4960938 9.68554688,13.4960938 C9.22851334,13.4960938 8.78125219,13.3984385 8.34375,13.203125 C7.90624781,13.0078115 7.57226678,12.7402361 7.34179688,12.4003906 L7.90429688,11.75 C8.36914295,12.3242216 8.93749664,12.6113281 9.609375,12.6113281 C10.1367214,12.6113281 10.5478501,12.4628921 10.8427734,12.1660156 C11.1376968,11.8691391 11.2851562,11.4511746 11.2851562,10.9121094 L11.2851562,10.3671875 C10.8515603,10.86719 10.2597694,11.1171875 9.50976562,11.1171875 C8.76757441,11.1171875 8.16699448,10.8183624 7.70800781,10.2207031 C7.24902114,9.62304389 7.01953125,8.80859891 7.01953125,7.77734375 Z M8.109375,7.90039062 C8.109375,8.61523795 8.25585791,9.17675577 8.54882812,9.58496094 C8.84179834,9.9931661 9.25195049,10.1972656 9.77929688,10.1972656 C10.462894,10.1972656 10.9648421,9.88672186 11.2851562,9.265625 L11.2851562,6.37109375 C10.9531233,5.76562197 10.4550814,5.46289062 9.79101562,5.46289062 C9.26366924,5.46289062 8.85156398,5.6679667 8.5546875,6.078125 C8.25781102,6.4882833 8.109375,7.0956991 8.109375,7.90039062 Z M14.0332031,10.4316406 C14.0332031,10.2441397 14.0888666,10.0878912 14.2001953,9.96289062 C14.311524,9.83789 14.4785145,9.77539062 14.7011719,9.77539062 C14.9238292,9.77539062 15.0927729,9.83789 15.2080078,9.96289062 C15.3232428,10.0878912 15.3808594,10.2441397 15.3808594,10.4316406 C15.3808594,10.611329 15.3232428,10.7617181 15.2080078,10.8828125 C15.0927729,11.0039069 14.9238292,11.0644531 14.7011719,11.0644531 C14.4785145,11.0644531 14.311524,11.0039069 14.2001953,10.8828125 C14.0888666,10.7617181 14.0332031,10.611329 14.0332031,10.4316406 Z M21.515625,11 L20.390625,11 L20.390625,2.46875 L21.515625,2.46875 L21.515625,11 Z M25.9453125,10.2324219 C26.3320332,10.2324219 26.6699204,10.1152355 26.9589844,9.88085938 C27.2480483,9.6464832 27.408203,9.35351738 27.4394531,9.00195312 L28.4648438,9.00195312 C28.4453124,9.36523619 28.3203137,9.71093586 28.0898438,10.0390625 C27.8593738,10.3671891 27.5517597,10.6289053 27.1669922,10.8242188 C26.7822246,11.0195322 26.3750021,11.1171875 25.9453125,11.1171875 C25.0820269,11.1171875 24.3955104,10.8291044 23.8857422,10.2529297 C23.375974,9.67675493 23.1210938,8.88867688 23.1210938,7.88867188 L23.1210938,7.70703125 C23.1210938,7.08984066 23.2343739,6.54101803 23.4609375,6.06054688 C23.6875011,5.58007572 24.0126932,5.20703258 24.4365234,4.94140625 C24.8603537,4.67577992 25.3613252,4.54296875 25.9394531,4.54296875 C26.6503942,4.54296875 27.2412086,4.75585725 27.7119141,5.18164062 C28.1826195,5.607424 28.4335936,6.16015285 28.4648438,6.83984375 L27.4394531,6.83984375 C27.408203,6.42968545 27.2529311,6.09277476 26.9736328,5.82910156 C26.6943345,5.56542837 26.3496114,5.43359375 25.9394531,5.43359375 C25.3886691,5.43359375 24.9619156,5.63183396 24.6591797,6.02832031 C24.3564438,6.42480667 24.2050781,6.99804312 24.2050781,7.74804688 L24.2050781,7.953125 C24.2050781,8.6835974 24.3554672,9.24609178 24.65625,9.640625 C24.9570328,10.0351582 25.386716,10.2324219 25.9453125,10.2324219 Z M29.3964844,7.77148438 C29.3964844,7.15038752 29.5185535,6.59179936 29.7626953,6.09570312 C30.0068372,5.59960689 30.3466775,5.21679822 30.7822266,4.94726562 C31.2177756,4.67773303 31.714841,4.54296875 32.2734375,4.54296875 C33.1367231,4.54296875 33.8349583,4.84179389 34.3681641,5.43945312 C34.9013699,6.03711236 35.1679688,6.83202629 35.1679688,7.82421875 L35.1679688,7.90039062 C35.1679688,8.51758121 35.0498059,9.07128661 34.8134766,9.56152344 C34.5771473,10.0517603 34.23926,10.4335924 33.7998047,10.7070312 C33.3603494,10.9804701 32.8554716,11.1171875 32.2851562,11.1171875 C31.425777,11.1171875 30.7294949,10.8183624 30.1962891,10.2207031 C29.6630833,9.62304389 29.3964844,8.83203617 29.3964844,7.84765625 L29.3964844,7.77148438 Z M30.4863281,7.90039062 C30.4863281,8.60351914 30.6494124,9.16796662 30.9755859,9.59375 C31.3017594,10.0195334 31.7382785,10.2324219 32.2851562,10.2324219 C32.8359403,10.2324219 33.2734359,10.0166037 33.5976562,9.58496094 C33.9218766,9.15331815 34.0839844,8.54883201 34.0839844,7.77148438 C34.0839844,7.0761684 33.918947,6.51269747 33.5888672,6.08105469 C33.2587874,5.6494119 32.8203152,5.43359375 32.2734375,5.43359375 C31.7382786,5.43359375 31.3066423,5.64648225 30.9785156,6.07226562 C30.650389,6.498049 30.4863281,7.10741791 30.4863281,7.90039062 Z M37.5527344,4.66015625 L37.5878906,5.45703125 C38.072268,4.8476532 38.7050742,4.54296875 39.4863281,4.54296875 C40.8261786,4.54296875 41.5019531,5.29882057 41.5136719,6.81054688 L41.5136719,11 L40.4296875,11 L40.4296875,6.8046875 C40.4257812,6.34765396 40.3212901,6.00976672 40.1162109,5.79101562 C39.9111318,5.57226453 39.591799,5.46289062 39.1582031,5.46289062 C38.8066389,5.46289062 38.4980482,5.55663969 38.2324219,5.74414062 C37.9667955,5.93164156 37.7597664,6.17773285 37.6113281,6.48242188 L37.6113281,11 L36.5273438,11 L36.5273438,4.66015625 L37.5527344,4.66015625 Z M43.1132812,10.4316406 C43.1132812,10.2441397 43.1689448,10.0878912 43.2802734,9.96289062 C43.3916021,9.83789 43.5585926,9.77539062 43.78125,9.77539062 C44.0039074,9.77539062 44.172851,9.83789 44.2880859,9.96289062 C44.4033209,10.0878912 44.4609375,10.2441397 44.4609375,10.4316406 C44.4609375,10.611329 44.4033209,10.7617181 44.2880859,10.8828125 C44.172851,11.0039069 44.0039074,11.0644531 43.78125,11.0644531 C43.5585926,11.0644531 43.3916021,11.0039069 43.2802734,10.8828125 C43.1689448,10.7617181 43.1132812,10.611329 43.1132812,10.4316406 Z M43.1191406,5.2578125 C43.1191406,5.07031156 43.1748041,4.91406312 43.2861328,4.7890625 C43.3974615,4.66406188 43.564452,4.6015625 43.7871094,4.6015625 C44.0097667,4.6015625 44.1787104,4.66406188 44.2939453,4.7890625 C44.4091803,4.91406312 44.4667969,5.07031156 44.4667969,5.2578125 C44.4667969,5.4375009 44.4091803,5.58789002 44.2939453,5.70898438 C44.1787104,5.83007873 44.0097667,5.890625 43.7871094,5.890625 C43.564452,5.890625 43.3974615,5.83007873 43.2861328,5.70898438 C43.1748041,5.58789002 43.1191406,5.4375009 43.1191406,5.2578125 Z M4.27148438,25 L3.18164063,25 L3.18164063,17.7753906 L0.99609375,18.578125 L0.99609375,17.59375 L4.1015625,16.4277344 L4.27148438,16.4277344 L4.27148438,25 Z M11.7011719,16.4628906 L11.7011719,17.3828125 L11.5019531,17.3828125 C10.6581989,17.3984376 9.98633063,17.6484351 9.48632812,18.1328125 C8.98632562,18.6171899 8.69726602,19.2988237 8.61914062,20.1777344 C9.06836162,19.6621068 9.68163674,19.4042969 10.4589844,19.4042969 C11.2011756,19.4042969 11.7939431,19.666013 12.2373047,20.1894531 C12.6806663,20.7128932 12.9023438,21.3886677 12.9023438,22.2167969 C12.9023438,23.0957075 12.6630883,23.7988255 12.1845703,24.3261719 C11.7060523,24.8535183 11.0644571,25.1171875 10.2597656,25.1171875 C9.44335529,25.1171875 8.78125254,24.8037141 8.2734375,24.1767578 C7.76562246,23.5498016 7.51171875,22.7421924 7.51171875,21.7539062 L7.51171875,21.3378906 C7.51171875,19.7675703 7.84667634,18.567387 8.51660156,17.7373047 C9.18652679,16.9072224 10.1835871,16.482422 11.5078125,16.4628906 L11.7011719,16.4628906 Z M10.2773438,20.3066406 C9.90624814,20.3066406 9.56445469,20.4179676 9.25195312,20.640625 C8.93945156,20.8632824 8.72265686,21.1425764 8.6015625,21.4785156 L8.6015625,21.8769531 C8.6015625,22.5800816 8.75976404,23.1464822 9.07617188,23.5761719 C9.39257971,24.0058615 9.78710701,24.2207031 10.2597656,24.2207031 C10.7480493,24.2207031 11.1318345,24.0410174 11.4111328,23.6816406 C11.6904311,23.3222638 11.8300781,22.8515654 11.8300781,22.2695312 C11.8300781,21.6835908 11.688478,21.2099627 11.4052734,20.8486328 C11.1220689,20.4873029 10.7460961,20.3066406 10.2773438,20.3066406 Z M22.6230469,21.9003906 C22.6230469,22.8652392 22.402346,23.6425752 21.9609375,24.2324219 C21.519529,24.8222686 20.9218788,25.1171875 20.1679688,25.1171875 C19.3984337,25.1171875 18.792971,24.8730493 18.3515625,24.3847656 L18.3515625,27.4375 L17.2675781,27.4375 L17.2675781,18.6601562 L18.2578125,18.6601562 L18.3105469,19.3632812 C18.7519553,18.8164035 19.3652304,18.5429688 20.1503906,18.5429688 C20.9121132,18.5429688 21.5146462,18.8300753 21.9580078,19.4042969 C22.4013694,19.9785185 22.6230469,20.7773386 22.6230469,21.8007812 L22.6230469,21.9003906 Z M21.5390625,21.7773438 C21.5390625,21.0624964 21.3867203,20.4980489 21.0820312,20.0839844 C20.7773422,19.6699198 20.3593777,19.4628906 19.828125,19.4628906 C19.1718717,19.4628906 18.6796891,19.7539033 18.3515625,20.3359375 L18.3515625,23.3652344 C18.6757829,23.9433623 19.1718717,24.2324219 19.8398438,24.2324219 C20.3593776,24.2324219 20.7724594,24.0263692 21.0791016,23.6142578 C21.3857437,23.2021464 21.5390625,22.5898478 21.5390625,21.7773438 Z M26.0390625,20.9746094 L27.4453125,18.6601562 L28.7109375,18.6601562 L26.6367188,21.7949219 L28.7753906,25 L27.5214844,25 L26.0566406,22.6269531 L24.5917969,25 L23.3320312,25 L25.4707031,21.7949219 L23.3964844,18.6601562 L24.6503906,18.6601562 L26.0390625,20.9746094 Z M34.9570312,20.9746094 L36.3632812,18.6601562 L37.6289062,18.6601562 L35.5546875,21.7949219 L37.6933594,25 L36.4394531,25 L34.9746094,22.6269531 L33.5097656,25 L32.25,25 L34.3886719,21.7949219 L32.3144531,18.6601562 L33.5683594,18.6601562 L34.9570312,20.9746094 Z M45.1992188,25 L44.109375,25 L44.109375,17.7753906 L41.9238281,18.578125 L41.9238281,17.59375 L45.0292969,16.4277344 L45.1992188,16.4277344 L45.1992188,25 Z M52.6289062,16.4628906 L52.6289062,17.3828125 L52.4296875,17.3828125 C51.5859333,17.3984376 50.914065,17.6484351 50.4140625,18.1328125 C49.91406,18.6171899 49.6250004,19.2988237 49.546875,20.1777344 C49.996096,19.6621068 50.6093711,19.4042969 51.3867188,19.4042969 C52.12891,19.4042969 52.7216775,19.666013 53.1650391,20.1894531 C53.6084007,20.7128932 53.8300781,21.3886677 53.8300781,22.2167969 C53.8300781,23.0957075 53.5908227,23.7988255 53.1123047,24.3261719 C52.6337867,24.8535183 51.9921915,25.1171875 51.1875,25.1171875 C50.3710897,25.1171875 49.7089869,24.8037141 49.2011719,24.1767578 C48.6933568,23.5498016 48.4394531,22.7421924 48.4394531,21.7539062 L48.4394531,21.3378906 C48.4394531,19.7675703 48.7744107,18.567387 49.4443359,17.7373047 C50.1142612,16.9072224 51.1113215,16.482422 52.4355469,16.4628906 L52.6289062,16.4628906 Z M51.2050781,20.3066406 C50.8339825,20.3066406 50.4921891,20.4179676 50.1796875,20.640625 C49.8671859,20.8632824 49.6503912,21.1425764 49.5292969,21.4785156 L49.5292969,21.8769531 C49.5292969,22.5800816 49.6874984,23.1464822 50.0039062,23.5761719 C50.3203141,24.0058615 50.7148414,24.2207031 51.1875,24.2207031 C51.6757837,24.2207031 52.0595689,24.0410174 52.3388672,23.6816406 C52.6181655,23.3222638 52.7578125,22.8515654 52.7578125,22.2695312 C52.7578125,21.6835908 52.6162124,21.2099627 52.3330078,20.8486328 C52.0498033,20.4873029 51.6738305,20.3066406 51.2050781,20.3066406 Z M63.5507812,21.9003906 C63.5507812,22.8652392 63.3300803,23.6425752 62.8886719,24.2324219 C62.4472634,24.8222686 61.8496131,25.1171875 61.0957031,25.1171875 C60.326168,25.1171875 59.7207053,24.8730493 59.2792969,24.3847656 L59.2792969,27.4375 L58.1953125,27.4375 L58.1953125,18.6601562 L59.1855469,18.6601562 L59.2382812,19.3632812 C59.6796897,18.8164035 60.2929648,18.5429688 61.078125,18.5429688 C61.8398476,18.5429688 62.4423806,18.8300753 62.8857422,19.4042969 C63.3291038,19.9785185 63.5507812,20.7773386 63.5507812,21.8007812 L63.5507812,21.9003906 Z M62.4667969,21.7773438 C62.4667969,21.0624964 62.3144546,20.4980489 62.0097656,20.0839844 C61.7050766,19.6699198 61.287112,19.4628906 60.7558594,19.4628906 C60.0996061,19.4628906 59.6074235,19.7539033 59.2792969,20.3359375 L59.2792969,23.3652344 C59.6035172,23.9433623 60.099606,24.2324219 60.7675781,24.2324219 C61.287112,24.2324219 61.7001938,24.0263692 62.0068359,23.6142578 C62.3134781,23.2021464 62.4667969,22.5898478 62.4667969,21.7773438 Z M66.9667969,20.9746094 L68.3730469,18.6601562 L69.6386719,18.6601562 L67.5644531,21.7949219 L69.703125,25 L68.4492188,25 L66.984375,22.6269531 L65.5195312,25 L64.2597656,25 L66.3984375,21.7949219 L64.3242188,18.6601562 L65.578125,18.6601562 L66.9667969,20.9746094 Z" id="redline-label"></path>
                </g>
            </g>
            <g id="Group-17" transform="translate(486.000000, 133.000000)" fill="#EC407A">
                <g id="specs-/-redlines-/-label-copy-4">
                    <path d="M3.7734375,5.73828125 L5.81835938,2.46875 L7.14257813,2.46875 L4.44726562,6.69921875 L7.20703125,11 L5.87109375,11 L3.7734375,7.671875 L1.6640625,11 L0.333984375,11 L3.09960938,6.69921875 L0.3984375,2.46875 L1.71679688,2.46875 L3.7734375,5.73828125 Z M9.64453125,10.0800781 L13.6875,10.0800781 L13.6875,11 L8.51367188,11 L8.51367188,2.46875 L9.64453125,2.46875 L9.64453125,10.0800781 Z M14.8242188,10.4316406 C14.8242188,10.2441397 14.8798823,10.0878912 14.9912109,9.96289062 C15.1025396,9.83789 15.2695301,9.77539062 15.4921875,9.77539062 C15.7148449,9.77539062 15.8837885,9.83789 15.9990234,9.96289062 C16.1142584,10.0878912 16.171875,10.2441397 16.171875,10.4316406 C16.171875,10.611329 16.1142584,10.7617181 15.9990234,10.8828125 C15.8837885,11.0039069 15.7148449,11.0644531 15.4921875,11.0644531 C15.2695301,11.0644531 15.1025396,11.0039069 14.9912109,10.8828125 C14.8798823,10.7617181 14.8242188,10.611329 14.8242188,10.4316406 Z M22.3066406,11 L21.1816406,11 L21.1816406,2.46875 L22.3066406,2.46875 L22.3066406,11 Z M26.7363281,10.2324219 C27.1230488,10.2324219 27.4609361,10.1152355 27.75,9.88085938 C28.0390639,9.6464832 28.1992186,9.35351738 28.2304688,9.00195312 L29.2558594,9.00195312 C29.236328,9.36523619 29.1113293,9.71093586 28.8808594,10.0390625 C28.6503895,10.3671891 28.3427754,10.6289053 27.9580078,10.8242188 C27.5732403,11.0195322 27.1660178,11.1171875 26.7363281,11.1171875 C25.8730426,11.1171875 25.186526,10.8291044 24.6767578,10.2529297 C24.1669896,9.67675493 23.9121094,8.88867688 23.9121094,7.88867188 L23.9121094,7.70703125 C23.9121094,7.08984066 24.0253895,6.54101803 24.2519531,6.06054688 C24.4785168,5.58007572 24.8037088,5.20703258 25.2275391,4.94140625 C25.6513693,4.67577992 26.1523409,4.54296875 26.7304688,4.54296875 C27.4414098,4.54296875 28.0322242,4.75585725 28.5029297,5.18164062 C28.9736352,5.607424 29.2246092,6.16015285 29.2558594,6.83984375 L28.2304688,6.83984375 C28.1992186,6.42968545 28.0439467,6.09277476 27.7646484,5.82910156 C27.4853502,5.56542837 27.1406271,5.43359375 26.7304688,5.43359375 C26.1796847,5.43359375 25.7529312,5.63183396 25.4501953,6.02832031 C25.1474594,6.42480667 24.9960938,6.99804312 24.9960938,7.74804688 L24.9960938,7.953125 C24.9960938,8.6835974 25.1464829,9.24609178 25.4472656,9.640625 C25.7480484,10.0351582 26.1777316,10.2324219 26.7363281,10.2324219 Z M30.1875,7.77148438 C30.1875,7.15038752 30.3095691,6.59179936 30.5537109,6.09570312 C30.7978528,5.59960689 31.1376931,5.21679822 31.5732422,4.94726562 C32.0087912,4.67773303 32.5058566,4.54296875 33.0644531,4.54296875 C33.9277387,4.54296875 34.6259739,4.84179389 35.1591797,5.43945312 C35.6923855,6.03711236 35.9589844,6.83202629 35.9589844,7.82421875 L35.9589844,7.90039062 C35.9589844,8.51758121 35.8408215,9.07128661 35.6044922,9.56152344 C35.3681629,10.0517603 35.0302756,10.4335924 34.5908203,10.7070312 C34.151365,10.9804701 33.6464872,11.1171875 33.0761719,11.1171875 C32.2167926,11.1171875 31.5205105,10.8183624 30.9873047,10.2207031 C30.4540989,9.62304389 30.1875,8.83203617 30.1875,7.84765625 L30.1875,7.77148438 Z M31.2773438,7.90039062 C31.2773438,8.60351914 31.4404281,9.16796662 31.7666016,9.59375 C32.0927751,10.0195334 32.5292941,10.2324219 33.0761719,10.2324219 C33.6269559,10.2324219 34.0644515,10.0166037 34.3886719,9.58496094 C34.7128922,9.15331815 34.875,8.54883201 34.875,7.77148438 C34.875,7.0761684 34.7099626,6.51269747 34.3798828,6.08105469 C34.049803,5.6494119 33.6113309,5.43359375 33.0644531,5.43359375 C32.5292942,5.43359375 32.0976579,5.64648225 31.7695312,6.07226562 C31.4414046,6.498049 31.2773438,7.10741791 31.2773438,7.90039062 Z M38.34375,4.66015625 L38.3789062,5.45703125 C38.8632837,4.8476532 39.4960898,4.54296875 40.2773438,4.54296875 C41.6171942,4.54296875 42.2929687,5.29882057 42.3046875,6.81054688 L42.3046875,11 L41.2207031,11 L41.2207031,6.8046875 C41.2167969,6.34765396 41.1123057,6.00976672 40.9072266,5.79101562 C40.7021474,5.57226453 40.3828147,5.46289062 39.9492188,5.46289062 C39.5976545,5.46289062 39.2890638,5.55663969 39.0234375,5.74414062 C38.7578112,5.93164156 38.550782,6.17773285 38.4023438,6.48242188 L38.4023438,11 L37.3183594,11 L37.3183594,4.66015625 L38.34375,4.66015625 Z M43.9042969,10.4316406 C43.9042969,10.2441397 43.9599604,10.0878912 44.0712891,9.96289062 C44.1826177,9.83789 44.3496083,9.77539062 44.5722656,9.77539062 C44.794923,9.77539062 44.9638666,9.83789 45.0791016,9.96289062 C45.1943365,10.0878912 45.2519531,10.2441397 45.2519531,10.4316406 C45.2519531,10.611329 45.1943365,10.7617181 45.0791016,10.8828125 C44.9638666,11.0039069 44.794923,11.0644531 44.5722656,11.0644531 C44.3496083,11.0644531 44.1826177,11.0039069 44.0712891,10.8828125 C43.9599604,10.7617181 43.9042969,10.611329 43.9042969,10.4316406 Z M43.9101562,5.2578125 C43.9101562,5.07031156 43.9658198,4.91406312 44.0771484,4.7890625 C44.1884771,4.66406188 44.3554676,4.6015625 44.578125,4.6015625 C44.8007824,4.6015625 44.969726,4.66406188 45.0849609,4.7890625 C45.2001959,4.91406312 45.2578125,5.07031156 45.2578125,5.2578125 C45.2578125,5.4375009 45.2001959,5.58789002 45.0849609,5.70898438 C44.969726,5.83007873 44.8007824,5.890625 44.578125,5.890625 C44.3554676,5.890625 44.1884771,5.83007873 44.0771484,5.70898438 C43.9658198,5.58789002 43.9101562,5.4375009 43.9101562,5.2578125 Z M6.29882812,25 L0.708984375,25 L0.708984375,24.2207031 L3.66210938,20.9394531 C4.09961156,20.4433569 4.40136636,20.0400406 4.56738281,19.7294922 C4.73339927,19.4189438 4.81640625,19.0976579 4.81640625,18.765625 C4.81640625,18.3203103 4.68164197,17.9550796 4.41210938,17.6699219 C4.14257678,17.3847642 3.78320537,17.2421875 3.33398438,17.2421875 C2.79491918,17.2421875 2.37597806,17.3955063 2.07714844,17.7021484 C1.77831882,18.0087906 1.62890625,18.4355441 1.62890625,18.9824219 L0.544921875,18.9824219 C0.544921875,18.1972617 0.797849033,17.5625024 1.30371094,17.078125 C1.80957284,16.5937476 2.48632389,16.3515625 3.33398438,16.3515625 C4.12695709,16.3515625 4.75390395,16.5595682 5.21484375,16.9755859 C5.67578355,17.3916036 5.90625,17.945309 5.90625,18.6367188 C5.90625,19.4765667 5.3710991,20.4765567 4.30078125,21.6367188 L2.015625,24.1152344 L6.29882812,24.1152344 L6.29882812,25 Z M13.0371094,25 L7.44726562,25 L7.44726562,24.2207031 L10.4003906,20.9394531 C10.8378928,20.4433569 11.1396476,20.0400406 11.3056641,19.7294922 C11.4716805,19.4189438 11.5546875,19.0976579 11.5546875,18.765625 C11.5546875,18.3203103 11.4199232,17.9550796 11.1503906,17.6699219 C10.880858,17.3847642 10.5214866,17.2421875 10.0722656,17.2421875 C9.53320043,17.2421875 9.11425931,17.3955063 8.81542969,17.7021484 C8.51660007,18.0087906 8.3671875,18.4355441 8.3671875,18.9824219 L7.28320312,18.9824219 C7.28320312,18.1972617 7.53613028,17.5625024 8.04199219,17.078125 C8.54785409,16.5937476 9.22460514,16.3515625 10.0722656,16.3515625 C10.8652383,16.3515625 11.4921852,16.5595682 11.953125,16.9755859 C12.4140648,17.3916036 12.6445312,17.945309 12.6445312,18.6367188 C12.6445312,19.4765667 12.1093804,20.4765567 11.0390625,21.6367188 L8.75390625,24.1152344 L13.0371094,24.1152344 L13.0371094,25 Z M22.6230469,21.9003906 C22.6230469,22.8652392 22.402346,23.6425752 21.9609375,24.2324219 C21.519529,24.8222686 20.9218788,25.1171875 20.1679688,25.1171875 C19.3984337,25.1171875 18.792971,24.8730493 18.3515625,24.3847656 L18.3515625,27.4375 L17.2675781,27.4375 L17.2675781,18.6601562 L18.2578125,18.6601562 L18.3105469,19.3632812 C18.7519553,18.8164035 19.3652304,18.5429688 20.1503906,18.5429688 C20.9121132,18.5429688 21.5146462,18.8300753 21.9580078,19.4042969 C22.4013694,19.9785185 22.6230469,20.7773386 22.6230469,21.8007812 L22.6230469,21.9003906 Z M21.5390625,21.7773438 C21.5390625,21.0624964 21.3867203,20.4980489 21.0820312,20.0839844 C20.7773422,19.6699198 20.3593777,19.4628906 19.828125,19.4628906 C19.1718717,19.4628906 18.6796891,19.7539033 18.3515625,20.3359375 L18.3515625,23.3652344 C18.6757829,23.9433623 19.1718717,24.2324219 19.8398438,24.2324219 C20.3593776,24.2324219 20.7724594,24.0263692 21.0791016,23.6142578 C21.3857437,23.2021464 21.5390625,22.5898478 21.5390625,21.7773438 Z M26.0390625,20.9746094 L27.4453125,18.6601562 L28.7109375,18.6601562 L26.6367188,21.7949219 L28.7753906,25 L27.5214844,25 L26.0566406,22.6269531 L24.5917969,25 L23.3320312,25 L25.4707031,21.7949219 L23.3964844,18.6601562 L24.6503906,18.6601562 L26.0390625,20.9746094 Z M34.9570312,20.9746094 L36.3632812,18.6601562 L37.6289062,18.6601562 L35.5546875,21.7949219 L37.6933594,25 L36.4394531,25 L34.9746094,22.6269531 L33.5097656,25 L32.25,25 L34.3886719,21.7949219 L32.3144531,18.6601562 L33.5683594,18.6601562 L34.9570312,20.9746094 Z M47.2265625,25 L41.6367188,25 L41.6367188,24.2207031 L44.5898438,20.9394531 C45.0273459,20.4433569 45.3291007,20.0400406 45.4951172,19.7294922 C45.6611336,19.4189438 45.7441406,19.0976579 45.7441406,18.765625 C45.7441406,18.3203103 45.6093763,17.9550796 45.3398438,17.6699219 C45.0703112,17.3847642 44.7109397,17.2421875 44.2617188,17.2421875 C43.7226536,17.2421875 43.3037124,17.3955063 43.0048828,17.7021484 C42.7060532,18.0087906 42.5566406,18.4355441 42.5566406,18.9824219 L41.4726562,18.9824219 C41.4726562,18.1972617 41.7255834,17.5625024 42.2314453,17.078125 C42.7373072,16.5937476 43.4140583,16.3515625 44.2617188,16.3515625 C45.0546915,16.3515625 45.6816383,16.5595682 46.1425781,16.9755859 C46.6035179,17.3916036 46.8339844,17.945309 46.8339844,18.6367188 C46.8339844,19.4765667 46.2988335,20.4765567 45.2285156,21.6367188 L42.9433594,24.1152344 L47.2265625,24.1152344 L47.2265625,25 Z M53.9648438,25 L48.375,25 L48.375,24.2207031 L51.328125,20.9394531 C51.7656272,20.4433569 52.067382,20.0400406 52.2333984,19.7294922 C52.3994149,19.4189438 52.4824219,19.0976579 52.4824219,18.765625 C52.4824219,18.3203103 52.3476576,17.9550796 52.078125,17.6699219 C51.8085924,17.3847642 51.449221,17.2421875 51,17.2421875 C50.4609348,17.2421875 50.0419937,17.3955063 49.7431641,17.7021484 C49.4443344,18.0087906 49.2949219,18.4355441 49.2949219,18.9824219 L48.2109375,18.9824219 C48.2109375,18.1972617 48.4638647,17.5625024 48.9697266,17.078125 C49.4755885,16.5937476 50.1523395,16.3515625 51,16.3515625 C51.7929727,16.3515625 52.4199196,16.5595682 52.8808594,16.9755859 C53.3417992,17.3916036 53.5722656,17.945309 53.5722656,18.6367188 C53.5722656,19.4765667 53.0371147,20.4765567 51.9667969,21.6367188 L49.6816406,24.1152344 L53.9648438,24.1152344 L53.9648438,25 Z M63.5507812,21.9003906 C63.5507812,22.8652392 63.3300803,23.6425752 62.8886719,24.2324219 C62.4472634,24.8222686 61.8496131,25.1171875 61.0957031,25.1171875 C60.326168,25.1171875 59.7207053,24.8730493 59.2792969,24.3847656 L59.2792969,27.4375 L58.1953125,27.4375 L58.1953125,18.6601562 L59.1855469,18.6601562 L59.2382812,19.3632812 C59.6796897,18.8164035 60.2929648,18.5429688 61.078125,18.5429688 C61.8398476,18.5429688 62.4423806,18.8300753 62.8857422,19.4042969 C63.3291038,19.9785185 63.5507812,20.7773386 63.5507812,21.8007812 L63.5507812,21.9003906 Z M62.4667969,21.7773438 C62.4667969,21.0624964 62.3144546,20.4980489 62.0097656,20.0839844 C61.7050766,19.6699198 61.287112,19.4628906 60.7558594,19.4628906 C60.0996061,19.4628906 59.6074235,19.7539033 59.2792969,20.3359375 L59.2792969,23.3652344 C59.6035172,23.9433623 60.099606,24.2324219 60.7675781,24.2324219 C61.287112,24.2324219 61.7001938,24.0263692 62.0068359,23.6142578 C62.3134781,23.2021464 62.4667969,22.5898478 62.4667969,21.7773438 Z M66.9667969,20.9746094 L68.3730469,18.6601562 L69.6386719,18.6601562 L67.5644531,21.7949219 L69.703125,25 L68.4492188,25 L66.984375,22.6269531 L65.5195312,25 L64.2597656,25 L66.3984375,21.7949219 L64.3242188,18.6601562 L65.578125,18.6601562 L66.9667969,20.9746094 Z" id="redline-label"></path>
                </g>
            </g>
            <g id="Group" transform="translate(384.000000, 98.000000) rotate(180.000000) translate(-384.000000, -98.000000) translate(376.000000, 90.000000)" fill-rule="nonzero">
                <g id="Fill-5-Copy">
                    <use fill="#D8D8D8" fill-rule="evenodd" xlink:href="#path-3"></use>
                    <path stroke="#979797" stroke-width="1" d="M15.4102091,8.59014095 C15.1069812,12.4125191 11.890233,15.433261 8.00266667,15.433261 C3.90234722,15.433261 0.567020952,12.0988263 0.567020952,7.99946667 C0.567020952,4.07603967 3.627573,0.849704942 7.4878305,0.584360743 L7.48769674,0.517476337 C3.59179288,0.783111831 0.5,4.04086416 0.5,7.99946667 C0.5,12.1353214 3.86557564,15.5 8.00266667,15.5 C11.9252856,15.5 15.1737842,12.4467793 15.4773443,8.59014095 L15.4102091,8.59014095 Z"></path>
                </g>
            </g>
            <g id="Group" transform="translate(502.000000, 87.000000)" stroke="#9E9E9E" fill-rule="nonzero">
                <path d="M21.0143216,11.6239438 C20.6893142,16.8643741 16.309003,21.0332338 11.0036667,21.0332338 C5.4692696,21.0332338 0.96715381,16.5323215 0.96715381,10.9992667 C0.96715381,5.64463297 5.19113878,1.25162741 10.4836204,0.980057462 L10.4826858,0.51273878 C4.93445759,0.785283216 0.5,5.38940214 0.5,10.9992667 C0.5,16.7896314 5.2116243,21.5 11.0036667,21.5 C16.5641692,21.5 21.1564533,17.1187113 21.4822256,11.6239497 L21.0143216,11.6239438 Z" id="Fill-5-Copy"></path>
            </g>
        </g>
    </g>
</svg>