<?xml version="1.0" encoding="UTF-8"?>
<svg width="305px" height="235px" viewBox="0 0 305 235" version="1.1" xmlns="http://www.w3.org/2000/svg" xmlns:xlink="http://www.w3.org/1999/xlink">
    <!-- Generator: Sketch 47.1 (45422) - http://www.bohemiancoding.com/sketch -->
    <title>Custom Preset</title>
    <desc>Created with Sketch.</desc>
    <defs>
        <polygon id="path-1" points="7 3.5 0 7 0 0"></polygon>
    </defs>
    <g id="Page-1" stroke="none" stroke-width="1" fill="none" fill-rule="evenodd">
        <g id="Custom-Preset">
            <g id="Loading/Circle/Indeterminate-6" transform="translate(129.000000, 89.000000)" fill="#9E9E9E">
                <path d="M27.0084,30.4974 C20.8184,34.6794 12.3394,34.0334 6.8604,28.5544 C0.6454,22.3394 0.6454,12.2634 6.8604,6.0484 C13.0754,-0.1666 23.1514,-0.1666 29.3664,6.0484 C33.2354,9.9174 34.6944,15.2814 33.7464,20.2794 L35.0884,20.5264 C36.1134,15.1024 34.5294,9.2814 30.3314,5.0844 C23.5834,-1.6636 12.6434,-1.6636 5.8954,5.0834 C-0.8516,11.8314 -0.8516,22.7714 5.8954,29.5194 C11.8474,35.4704 21.0584,36.1694 27.7794,31.6224 L27.0084,30.4974 Z" id="Fill-22"></path>
            </g>
            <g id="Group-17" transform="translate(92.000000, 150.000000)" fill="#EC407A">
                <g id="specs-/-redlines-/-label-copy-4">
                    <path d="M2.28515625,6.20703125 L3.09960938,6.20703125 C3.61133068,6.19921871 4.01367041,6.06445443 4.30664062,5.80273438 C4.59961084,5.54101432 4.74609375,5.18750223 4.74609375,4.7421875 C4.74609375,3.7421825 4.24805186,3.2421875 3.25195312,3.2421875 C2.78320078,3.2421875 2.40918108,3.37597522 2.12988281,3.64355469 C1.85058454,3.91113415 1.7109375,4.26562279 1.7109375,4.70703125 L0.626953125,4.70703125 C0.626953125,4.03124662 0.874020967,3.4697288 1.36816406,3.02246094 C1.86230716,2.57519308 2.49023057,2.3515625 3.25195312,2.3515625 C4.05664465,2.3515625 4.68749771,2.564451 5.14453125,2.99023438 C5.60156479,3.41601775 5.83007812,4.00780871 5.83007812,4.765625 C5.83007812,5.13672061 5.70996214,5.49609201 5.46972656,5.84375 C5.22949099,6.19140799 4.90234582,6.45117102 4.48828125,6.62304688 C4.95703359,6.77148512 5.31933466,7.01757641 5.57519531,7.36132812 C5.83105597,7.70507984 5.95898438,8.12499752 5.95898438,8.62109375 C5.95898438,9.38672258 5.70898687,9.99413838 5.20898438,10.4433594 C4.70898188,10.8925804 4.05859775,11.1171875 3.2578125,11.1171875 C2.45702725,11.1171875 1.80566657,10.9003928 1.30371094,10.4667969 C0.801755303,10.033201 0.55078125,9.46094105 0.55078125,8.75 L1.640625,8.75 C1.640625,9.199221 1.78710791,9.5585924 2.08007812,9.828125 C2.37304834,10.0976576 2.76562254,10.2324219 3.2578125,10.2324219 C3.78125262,10.2324219 4.18163924,10.0957045 4.45898438,9.82226562 C4.73632951,9.54882676 4.875,9.15625256 4.875,8.64453125 C4.875,8.14843502 4.72265777,7.76757945 4.41796875,7.50195312 C4.11327973,7.2363268 3.673831,7.09960941 3.09960938,7.09179688 L2.28515625,7.09179688 L2.28515625,6.20703125 Z M11.7011719,2.46289062 L11.7011719,3.3828125 L11.5019531,3.3828125 C10.6581989,3.39843758 9.98633063,3.64843508 9.48632812,4.1328125 C8.98632562,4.61718992 8.69726602,5.29882373 8.61914062,6.17773438 C9.06836162,5.6621068 9.68163674,5.40429688 10.4589844,5.40429688 C11.2011756,5.40429688 11.7939431,5.66601301 12.2373047,6.18945312 C12.6806663,6.71289324 12.9023438,7.38866773 12.9023438,8.21679688 C12.9023438,9.09570752 12.6630883,9.79882549 12.1845703,10.3261719 C11.7060523,10.8535183 11.0644571,11.1171875 10.2597656,11.1171875 C9.44335529,11.1171875 8.78125254,10.8037141 8.2734375,10.1767578 C7.76562246,9.54980155 7.51171875,8.74219244 7.51171875,7.75390625 L7.51171875,7.33789062 C7.51171875,5.76757027 7.84667634,4.56738696 8.51660156,3.73730469 C9.18652679,2.90722241 10.1835871,2.48242197 11.5078125,2.46289062 L11.7011719,2.46289062 Z M10.2773438,6.30664062 C9.90624814,6.30664062 9.56445469,6.41796764 9.25195312,6.640625 C8.93945156,6.86328236 8.72265686,7.14257645 8.6015625,7.47851562 L8.6015625,7.87695312 C8.6015625,8.58008164 8.75976404,9.14648223 9.07617188,9.57617188 C9.39257971,10.0058615 9.78710701,10.2207031 10.2597656,10.2207031 C10.7480493,10.2207031 11.1318345,10.0410174 11.4111328,9.68164062 C11.6904311,9.32226383 11.8300781,8.85156541 11.8300781,8.26953125 C11.8300781,7.68359082 11.688478,7.20996274 11.4052734,6.84863281 C11.1220689,6.48730288 10.7460961,6.30664062 10.2773438,6.30664062 Z M19.5351562,7.36132812 C19.5351562,8.63086572 19.3183615,9.57421566 18.8847656,10.1914062 C18.4511697,10.8085968 17.7734421,11.1171875 16.8515625,11.1171875 C15.9414017,11.1171875 15.2675803,10.8154327 14.8300781,10.2119141 C14.3925759,9.60839542 14.1660157,8.70703725 14.1503906,7.5078125 L14.1503906,6.06054688 C14.1503906,4.80663436 14.3671853,3.87500305 14.8007812,3.265625 C15.2343772,2.65624695 15.9140579,2.3515625 16.8398438,2.3515625 C17.7578171,2.3515625 18.4335916,2.64550487 18.8671875,3.23339844 C19.3007834,3.821292 19.5234374,4.72850949 19.5351562,5.95507812 L19.5351562,7.36132812 Z M18.4511719,5.87890625 C18.4511719,4.96093291 18.3222669,4.29199429 18.0644531,3.87207031 C17.8066393,3.45214634 17.3984403,3.2421875 16.8398438,3.2421875 C16.2851535,3.2421875 15.8808606,3.45116979 15.6269531,3.86914062 C15.3730456,4.28711146 15.2421875,4.92968316 15.234375,5.796875 L15.234375,7.53125 C15.234375,8.45312961 15.3681627,9.13378687 15.6357422,9.57324219 C15.9033217,10.0126975 16.308591,10.2324219 16.8515625,10.2324219 C17.3867214,10.2324219 17.7841784,10.0253927 18.0439453,9.61132812 C18.3037122,9.19726355 18.4394531,8.54492633 18.4511719,7.65429688 L18.4511719,5.87890625 Z M23.7421875,7.77734375 C23.7421875,6.80468264 23.9726539,6.0224639 24.4335938,5.43066406 C24.8945336,4.83886423 25.4980431,4.54296875 26.2441406,4.54296875 C26.9863318,4.54296875 27.5742166,4.79687246 28.0078125,5.3046875 L28.0078125,2 L29.0917969,2 L29.0917969,11 L28.0957031,11 L28.0429688,10.3203125 C27.6093728,10.8515652 27.0058632,11.1171875 26.2324219,11.1171875 C25.4980432,11.1171875 24.8994164,10.8164093 24.4365234,10.2148438 C23.9736305,9.61327824 23.7421875,8.82812984 23.7421875,7.859375 L23.7421875,7.77734375 Z M24.8261719,7.90039062 C24.8261719,8.61914422 24.9746079,9.18163859 25.2714844,9.58789062 C25.5683609,9.99414266 25.978513,10.1972656 26.5019531,10.1972656 C27.1894566,10.1972656 27.6914047,9.88867496 28.0078125,9.27148438 L28.0078125,6.359375 C27.6835921,5.76171576 27.1855502,5.46289062 26.5136719,5.46289062 C25.9824192,5.46289062 25.5683609,5.6679667 25.2714844,6.078125 C24.9746079,6.4882833 24.8261719,7.0956991 24.8261719,7.90039062 Z M33.4042969,11.1171875 C32.5449176,11.1171875 31.8457058,10.8349638 31.3066406,10.2705078 C30.7675754,9.70605187 30.4980469,8.9511766 30.4980469,8.00585938 L30.4980469,7.80664062 C30.4980469,7.17773123 30.6181629,6.61621341 30.8583984,6.12207031 C31.098634,5.62792722 31.4345682,5.24121233 31.8662109,4.96191406 C32.2978537,4.68261579 32.7656225,4.54296875 33.2695312,4.54296875 C34.0937541,4.54296875 34.7343727,4.81445041 35.1914062,5.35742188 C35.6484398,5.90039334 35.8769531,6.67772932 35.8769531,7.68945312 L35.8769531,8.140625 L31.5820312,8.140625 C31.5976563,8.76562812 31.7802717,9.27050589 32.1298828,9.65527344 C32.4794939,10.040041 32.9238254,10.2324219 33.4628906,10.2324219 C33.845705,10.2324219 34.1699205,10.1542977 34.4355469,9.99804688 C34.7011732,9.84179609 34.9335928,9.63476691 35.1328125,9.37695312 L35.7949219,9.89257812 C35.2636692,10.7089885 34.4668022,11.1171875 33.4042969,11.1171875 Z M33.2695312,5.43359375 C32.8320291,5.43359375 32.4648452,5.59277185 32.1679687,5.91113281 C31.8710923,6.22949378 31.6875004,6.67577838 31.6171875,7.25 L34.7929687,7.25 L34.7929687,7.16796875 C34.7617186,6.61718475 34.6132826,6.1904312 34.3476562,5.88769531 C34.0820299,5.58495942 33.7226585,5.43359375 33.2695312,5.43359375 Z M36.8730469,7.77734375 C36.8730469,6.78905756 37.1015602,6.00293261 37.5585938,5.41894531 C38.0156273,4.83495802 38.62109,4.54296875 39.375,4.54296875 C40.1484414,4.54296875 40.751951,4.81640352 41.1855469,5.36328125 L41.2382812,4.66015625 L42.2285156,4.66015625 L42.2285156,10.8476562 C42.2285156,11.6679729 41.985354,12.3144508 41.4990234,12.7871094 C41.0126929,13.259768 40.3593791,13.4960938 39.5390625,13.4960938 C39.082029,13.4960938 38.6347678,13.3984385 38.1972656,13.203125 C37.7597634,13.0078115 37.4257824,12.7402361 37.1953125,12.4003906 L37.7578125,11.75 C38.2226586,12.3242216 38.7910123,12.6113281 39.4628906,12.6113281 C39.990237,12.6113281 40.4013657,12.4628921 40.6962891,12.1660156 C40.9912124,11.8691391 41.1386719,11.4511746 41.1386719,10.9121094 L41.1386719,10.3671875 C40.705076,10.86719 40.113285,11.1171875 39.3632812,11.1171875 C38.62109,11.1171875 38.0205101,10.8183624 37.5615234,10.2207031 C37.1025368,9.62304389 36.8730469,8.80859891 36.8730469,7.77734375 Z M37.9628906,7.90039062 C37.9628906,8.61523795 38.1093735,9.17675577 38.4023438,9.58496094 C38.695314,9.9931661 39.1054661,10.1972656 39.6328125,10.1972656 C40.3164097,10.1972656 40.8183578,9.88672186 41.1386719,9.265625 L41.1386719,6.37109375 C40.806639,5.76562197 40.3085971,5.46289062 39.6445312,5.46289062 C39.1171849,5.46289062 38.7050796,5.6679667 38.4082031,6.078125 C38.1113266,6.4882833 37.9628906,7.0956991 37.9628906,7.90039062 Z M46.9277344,5.6328125 C46.7636711,5.60546861 46.5859385,5.59179688 46.3945312,5.59179688 C45.6835902,5.59179688 45.2011731,5.89452822 44.9472656,6.5 L44.9472656,11 L43.8632812,11 L43.8632812,4.66015625 L44.9179688,4.66015625 L44.9355469,5.39257812 C45.2910174,4.82616904 45.7949186,4.54296875 46.4472656,4.54296875 C46.6582042,4.54296875 46.8183588,4.57031223 46.9277344,4.625 L46.9277344,5.6328125 Z M50.4433594,11.1171875 C49.5839801,11.1171875 48.8847683,10.8349638 48.3457031,10.2705078 C47.8066379,9.70605187 47.5371094,8.9511766 47.5371094,8.00585938 L47.5371094,7.80664062 C47.5371094,7.17773123 47.6572254,6.61621341 47.8974609,6.12207031 C48.1376965,5.62792722 48.4736307,5.24121233 48.9052734,4.96191406 C49.3369162,4.68261579 49.804685,4.54296875 50.3085937,4.54296875 C51.1328166,4.54296875 51.7734352,4.81445041 52.2304687,5.35742188 C52.6875023,5.90039334 52.9160156,6.67772932 52.9160156,7.68945312 L52.9160156,8.140625 L48.6210937,8.140625 C48.6367188,8.76562812 48.8193342,9.27050589 49.1689453,9.65527344 C49.5185564,10.040041 49.9628879,10.2324219 50.5019531,10.2324219 C50.8847675,10.2324219 51.208983,10.1542977 51.4746094,9.99804688 C51.7402357,9.84179609 51.9726553,9.63476691 52.171875,9.37695312 L52.8339844,9.89257812 C52.3027317,10.7089885 51.5058647,11.1171875 50.4433594,11.1171875 Z M50.3085937,5.43359375 C49.8710916,5.43359375 49.5039077,5.59277185 49.2070312,5.91113281 C48.9101548,6.22949378 48.7265629,6.67577838 48.65625,7.25 L51.8320312,7.25 L51.8320312,7.16796875 C51.8007811,6.61718475 51.6523451,6.1904312 51.3867187,5.88769531 C51.1210924,5.58495942 50.761721,5.43359375 50.3085937,5.43359375 Z M56.8007812,11.1171875 C55.941402,11.1171875 55.2421902,10.8349638 54.703125,10.2705078 C54.1640598,9.70605187 53.8945312,8.9511766 53.8945312,8.00585938 L53.8945312,7.80664062 C53.8945312,7.17773123 54.0146472,6.61621341 54.2548828,6.12207031 C54.4951184,5.62792722 54.8310525,5.24121233 55.2626953,4.96191406 C55.6943381,4.68261579 56.1621069,4.54296875 56.6660156,4.54296875 C57.4902385,4.54296875 58.1308571,4.81445041 58.5878906,5.35742188 C59.0449242,5.90039334 59.2734375,6.67772932 59.2734375,7.68945312 L59.2734375,8.140625 L54.9785156,8.140625 C54.9941407,8.76562812 55.1767561,9.27050589 55.5263672,9.65527344 C55.8759783,10.040041 56.3203098,10.2324219 56.859375,10.2324219 C57.2421894,10.2324219 57.5664049,10.1542977 57.8320312,9.99804688 C58.0976576,9.84179609 58.3300771,9.63476691 58.5292969,9.37695312 L59.1914062,9.89257812 C58.6601536,10.7089885 57.8632866,11.1171875 56.8007812,11.1171875 Z M56.6660156,5.43359375 C56.2285134,5.43359375 55.8613296,5.59277185 55.5644531,5.91113281 C55.2675766,6.22949378 55.0839847,6.67577838 55.0136719,7.25 L58.1894531,7.25 L58.1894531,7.16796875 C58.158203,6.61718475 58.009767,6.1904312 57.7441406,5.88769531 C57.4785143,5.58495942 57.1191429,5.43359375 56.6660156,5.43359375 Z M64.21875,9.31835938 C64.21875,9.02538916 64.1083995,8.79785237 63.8876953,8.63574219 C63.6669911,8.473632 63.2822293,8.33398496 62.7333984,8.21679688 C62.1845676,8.09960879 61.749025,7.9589852 61.4267578,7.79492188 C61.1044906,7.63085855 60.8662117,7.43554801 60.7119141,7.20898438 C60.5576164,6.98242074 60.4804688,6.71289219 60.4804688,6.40039062 C60.4804688,5.88085678 60.7001931,5.44140805 61.1396484,5.08203125 C61.5791038,4.72265445 62.1406216,4.54296875 62.8242188,4.54296875 C63.5429723,4.54296875 64.1259743,4.72851377 64.5732422,5.09960938 C65.02051,5.47070498 65.2441406,5.94530961 65.2441406,6.5234375 L64.1542969,6.5234375 C64.1542969,6.22656102 64.0283216,5.9707042 63.7763672,5.75585938 C63.5244128,5.54101455 63.2070332,5.43359375 62.8242188,5.43359375 C62.4296855,5.43359375 62.1210949,5.51953039 61.8984375,5.69140625 C61.6757801,5.86328211 61.5644531,6.08788924 61.5644531,6.36523438 C61.5644531,6.62695443 61.6679677,6.82421809 61.875,6.95703125 C62.0820323,7.08984441 62.456052,7.21679627 62.9970703,7.33789062 C63.5380886,7.45898498 63.9765608,7.60351479 64.3125,7.77148438 C64.6484392,7.93945396 64.8974601,8.14160038 65.0595703,8.37792969 C65.2216805,8.61425899 65.3027344,8.90234205 65.3027344,9.2421875 C65.3027344,9.80859658 65.0761741,10.2626936 64.6230469,10.6044922 C64.1699196,10.9462908 63.5820349,11.1171875 62.859375,11.1171875 C62.35156,11.1171875 61.9023457,11.0273446 61.5117188,10.8476562 C61.1210918,10.6679679 60.8154308,10.4169938 60.5947266,10.0947266 C60.3740223,9.77245933 60.2636719,9.42383 60.2636719,9.04882812 L61.3476562,9.04882812 C61.3671876,9.41211119 61.512694,9.70019425 61.7841797,9.91308594 C62.0556654,10.1259776 62.4140603,10.2324219 62.859375,10.2324219 C63.2695333,10.2324219 63.5986316,10.1494149 63.8466797,9.98339844 C64.0947278,9.81738198 64.21875,9.59570451 64.21875,9.31835938 Z M66.9316406,11.7324219 L66,11.7324219 L69.5625,2.46875 L70.4882812,2.46875 L66.9316406,11.7324219 Z M76.8984375,7.36132812 C76.8984375,8.63086572 76.6816428,9.57421566 76.2480469,10.1914062 C75.814451,10.8085968 75.1367234,11.1171875 74.2148438,11.1171875 C73.3046829,11.1171875 72.6308616,10.8154327 72.1933594,10.2119141 C71.7558572,9.60839542 71.529297,8.70703725 71.5136719,7.5078125 L71.5136719,6.06054688 C71.5136719,4.80663436 71.7304666,3.87500305 72.1640625,3.265625 C72.5976584,2.65624695 73.2773391,2.3515625 74.203125,2.3515625 C75.1210983,2.3515625 75.7968728,2.64550487 76.2304688,3.23339844 C76.6640647,3.821292 76.8867187,4.72850949 76.8984375,5.95507812 L76.8984375,7.36132812 Z M75.8144531,5.87890625 C75.8144531,4.96093291 75.6855482,4.29199429 75.4277344,3.87207031 C75.1699206,3.45214634 74.7617215,3.2421875 74.203125,3.2421875 C73.6484347,3.2421875 73.2441419,3.45116979 72.9902344,3.86914062 C72.7363269,4.28711146 72.6054688,4.92968316 72.5976562,5.796875 L72.5976562,7.53125 C72.5976562,8.45312961 72.731444,9.13378687 72.9990234,9.57324219 C73.2666029,10.0126975 73.6718723,10.2324219 74.2148438,10.2324219 C74.7500027,10.2324219 75.1474596,10.0253927 75.4072266,9.61132812 C75.6669935,9.19726355 75.8027343,8.54492633 75.8144531,7.65429688 L75.8144531,5.87890625 Z M78.421875,10.4316406 C78.421875,10.2441397 78.4775385,10.0878913 78.5888672,9.96289062 C78.7001959,9.83789 78.8671864,9.77539062 79.0898438,9.77539062 C79.3125011,9.77539062 79.4814447,9.83789 79.5966797,9.96289062 C79.7119146,10.0878913 79.7695312,10.2441397 79.7695312,10.4316406 C79.7695312,10.611329 79.7119146,10.7617181 79.5966797,10.8828125 C79.4814447,11.0039069 79.3125011,11.0644531 79.0898438,11.0644531 C78.8671864,11.0644531 78.7001959,11.0039069 78.5888672,10.8828125 C78.4775385,10.7617181 78.421875,10.611329 78.421875,10.4316406 Z M86.6191406,4.6953125 C86.6191406,5.12109588 86.5068371,5.49999834 86.2822266,5.83203125 C86.0576161,6.16406416 85.7539082,6.42382719 85.3710938,6.61132812 C85.8164085,6.80273533 86.168944,7.08202941 86.4287109,7.44921875 C86.6884779,7.81640809 86.8183594,8.23241955 86.8183594,8.69726562 C86.8183594,9.43555057 86.5693384,10.0234353 86.0712891,10.4609375 C85.5732397,10.8984397 84.9179728,11.1171875 84.1054688,11.1171875 C83.2851521,11.1171875 82.6279322,10.8974631 82.1337891,10.4580078 C81.639646,10.0185525 81.3925781,9.4316443 81.3925781,8.69726562 C81.3925781,8.23632582 81.5185534,7.82031436 81.7705078,7.44921875 C82.0224622,7.07812314 82.3710915,6.79687596 82.8164062,6.60546875 C82.4374981,6.41796781 82.138673,6.15820479 81.9199219,5.82617188 C81.7011708,5.49413896 81.5917969,5.11718961 81.5917969,4.6953125 C81.5917969,3.97655891 81.8222633,3.40625211 82.2832031,2.984375 C82.7441429,2.56249789 83.3515587,2.3515625 84.1054688,2.3515625 C84.8554725,2.3515625 85.4619117,2.56249789 85.9248047,2.984375 C86.3876976,3.40625211 86.6191406,3.97655891 86.6191406,4.6953125 Z M85.734375,8.67382812 C85.734375,8.19726324 85.5830093,7.80859525 85.2802734,7.5078125 C84.9775375,7.20702975 84.5820337,7.05664062 84.09375,7.05664062 C83.6054663,7.05664062 83.2138687,7.20507664 82.9189453,7.50195312 C82.624022,7.79882961 82.4765625,8.1894507 82.4765625,8.67382812 C82.4765625,9.15820555 82.6201158,9.53906111 82.9072266,9.81640625 C83.1943374,10.0937514 83.5937474,10.2324219 84.1054688,10.2324219 C84.6132838,10.2324219 85.0117173,10.0927748 85.3007812,9.81347656 C85.5898452,9.53417829 85.734375,9.15429928 85.734375,8.67382812 Z M84.1054688,3.2421875 C83.6796854,3.2421875 83.3349623,3.37402212 83.0712891,3.63769531 C82.8076159,3.90136851 82.6757812,4.25976336 82.6757812,4.71289062 C82.6757812,5.14648654 82.8056628,5.49706897 83.0654297,5.76464844 C83.3251966,6.0322279 83.6718728,6.16601562 84.1054688,6.16601562 C84.5390647,6.16601562 84.8857409,6.0322279 85.1455078,5.76464844 C85.4052747,5.49706897 85.5351562,5.14648654 85.5351562,4.71289062 C85.5351562,4.27929471 85.400392,3.92578262 85.1308594,3.65234375 C84.8613268,3.37890488 84.5195333,3.2421875 84.1054688,3.2421875 Z M94.9570312,9.31835938 C94.9570312,9.02538916 94.8466808,8.79785237 94.6259766,8.63574219 C94.4052723,8.473632 94.0205106,8.33398496 93.4716797,8.21679688 C92.9228488,8.09960879 92.4873063,7.9589852 92.1650391,7.79492188 C91.8427718,7.63085855 91.604493,7.43554801 91.4501953,7.20898438 C91.2958977,6.98242074 91.21875,6.71289219 91.21875,6.40039062 C91.21875,5.88085678 91.4384744,5.44140805 91.8779297,5.08203125 C92.317385,4.72265445 92.8789028,4.54296875 93.5625,4.54296875 C94.2812536,4.54296875 94.8642556,4.72851377 95.3115234,5.09960938 C95.7587913,5.47070498 95.9824219,5.94530961 95.9824219,6.5234375 L94.8925781,6.5234375 C94.8925781,6.22656102 94.7666028,5.9707042 94.5146484,5.75585938 C94.2626941,5.54101455 93.9453144,5.43359375 93.5625,5.43359375 C93.1679668,5.43359375 92.8593761,5.51953039 92.6367187,5.69140625 C92.4140614,5.86328211 92.3027344,6.08788924 92.3027344,6.36523438 C92.3027344,6.62695443 92.406249,6.82421809 92.6132812,6.95703125 C92.8203135,7.08984441 93.1943332,7.21679627 93.7353516,7.33789062 C94.2763699,7.45898498 94.7148421,7.60351479 95.0507812,7.77148438 C95.3867204,7.93945396 95.6357414,8.14160038 95.7978516,8.37792969 C95.9599617,8.61425899 96.0410156,8.90234205 96.0410156,9.2421875 C96.0410156,9.80859658 95.8144554,10.2626936 95.3613281,10.6044922 C94.9082009,10.9462908 94.3203161,11.1171875 93.5976562,11.1171875 C93.0898412,11.1171875 92.640627,11.0273446 92.25,10.8476562 C91.859373,10.6679679 91.553712,10.4169938 91.3330078,10.0947266 C91.1123036,9.77245933 91.0019531,9.42383 91.0019531,9.04882812 L92.0859375,9.04882812 C92.1054688,9.41211119 92.2509752,9.70019425 92.5224609,9.91308594 C92.7939467,10.1259776 93.1523415,10.2324219 93.5976562,10.2324219 C94.0078146,10.2324219 94.3369128,10.1494149 94.5849609,9.98339844 C94.8330091,9.81738198 94.9570312,9.59570451 94.9570312,9.31835938 Z M100.083984,11.1171875 C99.2246051,11.1171875 98.5253933,10.8349638 97.9863281,10.2705078 C97.4472629,9.70605187 97.1777344,8.9511766 97.1777344,8.00585938 L97.1777344,7.80664062 C97.1777344,7.17773123 97.2978504,6.61621341 97.5380859,6.12207031 C97.7783215,5.62792722 98.1142557,5.24121233 98.5458984,4.96191406 C98.9775412,4.68261579 99.44531,4.54296875 99.9492187,4.54296875 C100.773442,4.54296875 101.41406,4.81445041 101.871094,5.35742188 C102.328127,5.90039334 102.556641,6.67772932 102.556641,7.68945312 L102.556641,8.140625 L98.2617187,8.140625 C98.2773438,8.76562812 98.4599592,9.27050589 98.8095703,9.65527344 C99.1591814,10.040041 99.6035129,10.2324219 100.142578,10.2324219 C100.525393,10.2324219 100.849608,10.1542977 101.115234,9.99804688 C101.380861,9.84179609 101.61328,9.63476691 101.8125,9.37695312 L102.474609,9.89257812 C101.943357,10.7089885 101.14649,11.1171875 100.083984,11.1171875 Z M99.9492187,5.43359375 C99.5117166,5.43359375 99.1445327,5.59277185 98.8476562,5.91113281 C98.5507798,6.22949378 98.3671879,6.67577838 98.296875,7.25 L101.472656,7.25 L101.472656,7.16796875 C101.441406,6.61718475 101.29297,6.1904312 101.027344,5.88769531 C100.761717,5.58495942 100.402346,5.43359375 99.9492187,5.43359375 Z M106.353516,10.2324219 C106.740236,10.2324219 107.078124,10.1152355 107.367188,9.88085938 C107.656251,9.6464832 107.816406,9.35351738 107.847656,9.00195312 L108.873047,9.00195312 C108.853516,9.36523619 108.728517,9.71093586 108.498047,10.0390625 C108.267577,10.3671891 107.959963,10.6289053 107.575195,10.8242188 C107.190428,11.0195322 106.783205,11.1171875 106.353516,11.1171875 C105.49023,11.1171875 104.803713,10.8291044 104.293945,10.2529297 C103.784177,9.67675493 103.529297,8.88867687 103.529297,7.88867188 L103.529297,7.70703125 C103.529297,7.08984066 103.642577,6.54101803 103.869141,6.06054688 C104.095704,5.58007572 104.420896,5.20703258 104.844727,4.94140625 C105.268557,4.67577992 105.769528,4.54296875 106.347656,4.54296875 C107.058597,4.54296875 107.649412,4.75585725 108.120117,5.18164062 C108.590823,5.607424 108.841797,6.16015285 108.873047,6.83984375 L107.847656,6.83984375 C107.816406,6.42968545 107.661134,6.09277476 107.381836,5.82910156 C107.102538,5.56542837 106.757815,5.43359375 106.347656,5.43359375 C105.796872,5.43359375 105.370119,5.63183396 105.067383,6.02832031 C104.764647,6.42480667 104.613281,6.99804313 104.613281,7.74804688 L104.613281,7.953125 C104.613281,8.6835974 104.76367,9.24609178 105.064453,9.640625 C105.365236,10.0351582 105.794919,10.2324219 106.353516,10.2324219 Z M113.783203,9.31835938 C113.783203,9.02538916 113.672853,8.79785237 113.452148,8.63574219 C113.231444,8.473632 112.846682,8.33398496 112.297852,8.21679688 C111.749021,8.09960879 111.313478,7.9589852 110.991211,7.79492188 C110.668944,7.63085855 110.430665,7.43554801 110.276367,7.20898438 C110.12207,6.98242074 110.044922,6.71289219 110.044922,6.40039062 C110.044922,5.88085678 110.264646,5.44140805 110.704102,5.08203125 C111.143557,4.72265445 111.705075,4.54296875 112.388672,4.54296875 C113.107425,4.54296875 113.690427,4.72851377 114.137695,5.09960938 C114.584963,5.47070498 114.808594,5.94530961 114.808594,6.5234375 L113.71875,6.5234375 C113.71875,6.22656102 113.592775,5.9707042 113.34082,5.75585938 C113.088866,5.54101455 112.771486,5.43359375 112.388672,5.43359375 C111.994139,5.43359375 111.685548,5.51953039 111.462891,5.69140625 C111.240233,5.86328211 111.128906,6.08788924 111.128906,6.36523438 C111.128906,6.62695443 111.232421,6.82421809 111.439453,6.95703125 C111.646485,7.08984441 112.020505,7.21679627 112.561523,7.33789062 C113.102542,7.45898498 113.541014,7.60351479 113.876953,7.77148438 C114.212892,7.93945396 114.461913,8.14160038 114.624023,8.37792969 C114.786134,8.61425899 114.867188,8.90234205 114.867188,9.2421875 C114.867188,9.80859658 114.640627,10.2626936 114.1875,10.6044922 C113.734373,10.9462908 113.146488,11.1171875 112.423828,11.1171875 C111.916013,11.1171875 111.466799,11.0273446 111.076172,10.8476562 C110.685545,10.6679679 110.379884,10.4169938 110.15918,10.0947266 C109.938475,9.77245933 109.828125,9.42383 109.828125,9.04882812 L110.912109,9.04882812 C110.931641,9.41211119 111.077147,9.70019425 111.348633,9.91308594 C111.620119,10.1259776 111.978513,10.2324219 112.423828,10.2324219 C112.833986,10.2324219 113.163085,10.1494149 113.411133,9.98339844 C113.659181,9.81738198 113.783203,9.59570451 113.783203,9.31835938 Z" id="redline-label"></path>
                </g>
            </g>
            <path d="M175.269443,117.066238 C176.389931,113.919749 177,110.531119 177,107 C177,90.4314575 163.568542,77 147,77 C130.431458,77 117,90.4314575 117,107 C117,123.568542 130.431458,137 147,137 L147,137 C156.472021,137 164.91876,132.61025 170.416796,125.754173" id="Oval" stroke="#EC3F7A"></path>
            <g id="specs-/-redlines-/-line-end-/-arrow" transform="translate(175.521819, 117.521819) rotate(-249.000000) translate(-175.521819, -117.521819) translate(172.021819, 114.021819)">
                <g id="redline-end">
                    <use fill="#FFFFFF" fill-rule="evenodd" xlink:href="#path-1"></use>
                    <path stroke="#EC407A" stroke-width="1" d="M5.88196601,3.5 L0.5,0.809016994 L0.5,6.19098301 L5.88196601,3.5 Z"></path>
                </g>
            </g>
        </g>
    </g>
</svg>