<?xml version="1.0" encoding="UTF-8"?>
<svg width="305px" height="235px" viewBox="0 0 305 235" version="1.1" xmlns="http://www.w3.org/2000/svg" xmlns:xlink="http://www.w3.org/1999/xlink">
    <!-- Generator: Sketch 47.1 (45422) - http://www.bohemiancoding.com/sketch -->
    <title>Custom Preset</title>
    <desc>Created with Sketch.</desc>
    <defs>
        <path d="M27.0084,30.4974 C20.8184,34.6794 12.3394,34.0334 6.8604,28.5544 C0.6454,22.3394 0.6454,12.2634 6.8604,6.0484 C13.0754,-0.1666 23.1514,-0.1666 29.3664,6.0484 C33.2354,9.9174 34.6944,15.2814 33.7464,20.2794 L35.0884,20.5264 C36.1134,15.1024 34.5294,9.2814 30.3314,5.0844 C23.5834,-1.6636 12.6434,-1.6636 5.8954,5.0834 C-0.8516,11.8314 -0.8516,22.7714 5.8954,29.5194 C11.8474,35.4704 21.0584,36.1694 27.7794,31.6224 L27.0084,30.4974 Z" id="path-1"></path>
    </defs>
    <g id="Page-1" stroke="none" stroke-width="1" fill="none" fill-rule="evenodd">
        <g id="Custom-Preset">
            <g id="Loading/Circle/Indeterminate-6" transform="translate(126.000000, 91.000000)">
                <g id="Fill-22">
                    <use fill="#9E9E9E" fill-rule="evenodd" xlink:href="#path-1"></use>
                    <path stroke="#9E9E9E" stroke-width="1" d="M26.8725085,31.183578 C20.4517361,35.2446574 11.9707948,34.3719016 6.50684661,28.9079534 C0.0965844635,22.4976912 0.0965844635,12.1051088 6.50684661,5.69484661 C12.9171088,-0.715415536 23.3096912,-0.715415536 29.7199534,5.69484661 C33.4869521,9.46184533 35.1393229,14.7309209 34.3238384,19.8772812 L34.6823312,19.9432632 C35.5183639,14.6780432 33.8297971,9.28898627 29.9778466,5.43795339 C23.4252545,-1.11463868 12.8018168,-1.11493898 6.24897959,5.43692719 C-0.302793196,11.989671 -0.302793196,22.613129 6.24892369,29.1658169 C11.8383434,34.7542975 20.5152804,35.6433438 27.0783472,31.4839263 L26.8725085,31.183578 Z"></path>
                </g>
            </g>
            <g id="specs-/-redlines-/-line-straight" transform="translate(144.500000, 144.000000) rotate(-90.000000) translate(-144.500000, -144.000000) translate(127.000000, 139.000000)" stroke="#EC3F7A">
                <path d="M10,5 L34.5,5" id="Stroke-8"></path>
                <path d="M5.00099983,0 C7.76299974,0 10.0009997,2.239 9.99999967,5 C9.99999967,7.762 7.76199974,10 4.99999983,10 C2.23799993,10 0,7.761 0,5 C0.000999999967,2.238 2.23899992,0 5.00099983,0" id="Path" fill-opacity="0.3" fill="#F03F7B"></path>
            </g>
            <g id="Group-17" transform="translate(156.000000, 150.000000)" fill="#EC407A">
                <g id="specs-/-redlines-/-label-copy-4">
                    <path d="M3.50390625,7.19726562 C2.53905768,6.91992049 1.83691626,6.57910358 1.39746094,6.17480469 C0.958005615,5.77050579 0.73828125,5.27148734 0.73828125,4.67773438 C0.73828125,4.00585602 1.00683325,3.45019751 1.54394531,3.01074219 C2.08105737,2.57128687 2.77929258,2.3515625 3.63867188,2.3515625 C4.2246123,2.3515625 4.74706802,2.46484262 5.20605469,2.69140625 C5.66504136,2.91796988 6.02050655,3.23046676 6.27246094,3.62890625 C6.52441532,4.02734574 6.65039063,4.46288826 6.65039063,4.93554688 L5.51953125,4.93554688 C5.51953125,4.4199193 5.35547039,4.01464991 5.02734375,3.71972656 C4.69921711,3.42480321 4.23633111,3.27734375 3.63867188,3.27734375 C3.0839816,3.27734375 2.65136874,3.39941284 2.34082031,3.64355469 C2.03027188,3.88769653 1.875,4.22656033 1.875,4.66015625 C1.875,5.00781424 2.02245946,5.30175661 2.31738281,5.54199219 C2.61230616,5.78222776 3.11425427,6.00195213 3.82324219,6.20117188 C4.53223011,6.40039162 5.08691206,6.62011599 5.48730469,6.86035156 C5.88769731,7.10058714 6.18456935,7.38085777 6.37792969,7.70117188 C6.57129003,8.02148598 6.66796875,8.39843533 6.66796875,8.83203125 C6.66796875,9.52344096 6.3984402,10.0771464 5.859375,10.4931641 C5.3203098,10.9091818 4.59961389,11.1171875 3.69726563,11.1171875 C3.1113252,11.1171875 2.56445566,11.0048839 2.05664062,10.7802734 C1.54882559,10.5556629 1.15722794,10.2480488 0.881835938,9.85742188 C0.606443936,9.46679492 0.46875,9.02343998 0.46875,8.52734375 L1.59960938,8.52734375 C1.59960938,9.04297133 1.79003716,9.45019382 2.17089844,9.74902344 C2.55175972,10.0478531 3.06054369,10.1972656 3.69726563,10.1972656 C4.29101859,10.1972656 4.74609217,10.0761731 5.0625,9.83398438 C5.37890783,9.59179566 5.53710938,9.26172084 5.53710938,8.84375 C5.53710938,8.42577916 5.39062646,8.10254021 5.09765625,7.87402344 C4.80468604,7.64550667 4.27344135,7.41992299 3.50390625,7.19726562 Z M9.41015625,3.125 L9.41015625,4.66015625 L10.59375,4.66015625 L10.59375,5.49804688 L9.41015625,5.49804688 L9.41015625,9.4296875 C9.41015625,9.68359502 9.4628901,9.8740228 9.56835938,10.0009766 C9.67382865,10.1279303 9.85351436,10.1914062 10.1074219,10.1914062 C10.2324225,10.1914062 10.4042958,10.167969 10.6230469,10.1210938 L10.6230469,11 C10.3378892,11.0781254 10.0605482,11.1171875 9.79101562,11.1171875 C9.3066382,11.1171875 8.94140748,10.9707046 8.6953125,10.6777344 C8.44921752,10.3847642 8.32617188,9.9687527 8.32617188,9.4296875 L8.32617188,5.49804688 L7.171875,5.49804688 L7.171875,4.66015625 L8.32617188,4.66015625 L8.32617188,3.125 L9.41015625,3.125 Z M14.9238281,5.6328125 C14.7597648,5.60546861 14.5820322,5.59179688 14.390625,5.59179688 C13.6796839,5.59179688 13.1972669,5.89452822 12.9433594,6.5 L12.9433594,11 L11.859375,11 L11.859375,4.66015625 L12.9140625,4.66015625 L12.9316406,5.39257812 C13.2871112,4.82616904 13.7910124,4.54296875 14.4433594,4.54296875 C14.6542979,4.54296875 14.8144526,4.57031223 14.9238281,4.625 L14.9238281,5.6328125 Z M15.515625,7.77148438 C15.515625,7.15038752 15.6376941,6.59179936 15.8818359,6.09570312 C16.1259778,5.59960689 16.4658181,5.21679822 16.9013672,4.94726562 C17.3369162,4.67773303 17.8339816,4.54296875 18.3925781,4.54296875 C19.2558637,4.54296875 19.9540989,4.84179389 20.4873047,5.43945312 C21.0205105,6.03711236 21.2871094,6.83202629 21.2871094,7.82421875 L21.2871094,7.90039062 C21.2871094,8.51758121 21.1689465,9.07128661 20.9326172,9.56152344 C20.6962879,10.0517603 20.3584006,10.4335924 19.9189453,10.7070312 C19.47949,10.9804701 18.9746122,11.1171875 18.4042969,11.1171875 C17.5449176,11.1171875 16.8486355,10.8183624 16.3154297,10.2207031 C15.7822239,9.62304389 15.515625,8.83203617 15.515625,7.84765625 L15.515625,7.77148438 Z M16.6054688,7.90039062 C16.6054688,8.60351914 16.7685531,9.16796662 17.0947266,9.59375 C17.4209001,10.0195334 17.8574191,10.2324219 18.4042969,10.2324219 C18.9550809,10.2324219 19.3925765,10.0166037 19.7167969,9.58496094 C20.0410172,9.15331815 20.203125,8.54883201 20.203125,7.77148438 C20.203125,7.0761684 20.0380876,6.51269747 19.7080078,6.08105469 C19.377928,5.6494119 18.9394559,5.43359375 18.3925781,5.43359375 C17.8574192,5.43359375 17.4257829,5.64648225 17.0976562,6.07226562 C16.7695296,6.498049 16.6054688,7.10741791 16.6054688,7.90039062 Z M24.4160156,8.06445312 L23.7363281,8.7734375 L23.7363281,11 L22.6523438,11 L22.6523438,2 L23.7363281,2 L23.7363281,7.44335938 L24.3164062,6.74609375 L26.2910156,4.66015625 L27.609375,4.66015625 L25.1425781,7.30859375 L27.8964844,11 L26.625,11 L24.4160156,8.06445312 Z M31.2421875,11.1171875 C30.3828082,11.1171875 29.6835964,10.8349638 29.1445312,10.2705078 C28.6054661,9.70605187 28.3359375,8.9511766 28.3359375,8.00585938 L28.3359375,7.80664062 C28.3359375,7.17773123 28.4560535,6.61621341 28.6962891,6.12207031 C28.9365246,5.62792722 29.2724588,5.24121233 29.7041016,4.96191406 C30.1357443,4.68261579 30.6035131,4.54296875 31.1074219,4.54296875 C31.9316447,4.54296875 32.5722633,4.81445041 33.0292969,5.35742188 C33.4863304,5.90039334 33.7148438,6.67772932 33.7148438,7.68945312 L33.7148438,8.140625 L29.4199219,8.140625 C29.435547,8.76562812 29.6181623,9.27050589 29.9677734,9.65527344 C30.3173846,10.040041 30.7617161,10.2324219 31.3007812,10.2324219 C31.6835957,10.2324219 32.0078112,10.1542977 32.2734375,9.99804688 C32.5390638,9.84179609 32.7714834,9.63476691 32.9707031,9.37695312 L33.6328125,9.89257812 C33.1015598,10.7089885 32.3046928,11.1171875 31.2421875,11.1171875 Z M31.1074219,5.43359375 C30.6699197,5.43359375 30.3027359,5.59277185 30.0058594,5.91113281 C29.7089829,6.22949378 29.525391,6.67577838 29.4550781,7.25 L32.6308594,7.25 L32.6308594,7.16796875 C32.5996092,6.61718475 32.4511732,6.1904312 32.1855469,5.88769531 C31.9199205,5.58495942 31.5605491,5.43359375 31.1074219,5.43359375 Z M37.2246094,7.81835938 L34.3652344,7.81835938 L34.3652344,6.93359375 L37.2246094,6.93359375 L37.2246094,7.81835938 Z M43.8925781,9.50585938 L45.1113281,4.66015625 L46.1953125,4.66015625 L44.3496094,11 L43.4707031,11 L41.9296875,6.1953125 L40.4296875,11 L39.5507812,11 L37.7109375,4.66015625 L38.7890625,4.66015625 L40.0371094,9.40625 L41.5136719,4.66015625 L42.3867188,4.66015625 L43.8925781,9.50585938 Z M48.4746094,11 L47.390625,11 L47.390625,4.66015625 L48.4746094,4.66015625 L48.4746094,11 Z M47.3027344,2.97851562 C47.3027344,2.8027335 47.3564448,2.65429748 47.4638672,2.53320312 C47.5712896,2.41210877 47.7304677,2.3515625 47.9414062,2.3515625 C48.1523448,2.3515625 48.3124995,2.41210877 48.421875,2.53320312 C48.5312505,2.65429748 48.5859375,2.8027335 48.5859375,2.97851562 C48.5859375,3.15429775 48.5312505,3.30078066 48.421875,3.41796875 C48.3124995,3.53515684 48.1523448,3.59375 47.9414062,3.59375 C47.7304677,3.59375 47.5712896,3.53515684 47.4638672,3.41796875 C47.3564448,3.30078066 47.3027344,3.15429775 47.3027344,2.97851562 Z M49.9453125,7.77734375 C49.9453125,6.80468264 50.1757789,6.0224639 50.6367188,5.43066406 C51.0976586,4.83886423 51.7011681,4.54296875 52.4472656,4.54296875 C53.1894568,4.54296875 53.7773416,4.79687246 54.2109375,5.3046875 L54.2109375,2 L55.2949219,2 L55.2949219,11 L54.2988281,11 L54.2460938,10.3203125 C53.8124978,10.8515652 53.2089882,11.1171875 52.4355469,11.1171875 C51.7011682,11.1171875 51.1025414,10.8164093 50.6396484,10.2148438 C50.1767555,9.61327824 49.9453125,8.82812984 49.9453125,7.859375 L49.9453125,7.77734375 Z M51.0292969,7.90039062 C51.0292969,8.61914422 51.1777329,9.18163859 51.4746094,9.58789062 C51.7714859,9.99414266 52.181638,10.1972656 52.7050781,10.1972656 C53.3925816,10.1972656 53.8945297,9.88867496 54.2109375,9.27148438 L54.2109375,6.359375 C53.8867171,5.76171576 53.3886752,5.46289062 52.7167969,5.46289062 C52.1855442,5.46289062 51.7714859,5.6679667 51.4746094,6.078125 C51.1777329,6.4882833 51.0292969,7.0956991 51.0292969,7.90039062 Z M58.4472656,3.125 L58.4472656,4.66015625 L59.6308594,4.66015625 L59.6308594,5.49804688 L58.4472656,5.49804688 L58.4472656,9.4296875 C58.4472656,9.68359502 58.4999995,9.8740228 58.6054688,10.0009766 C58.710938,10.1279303 58.8906237,10.1914062 59.1445312,10.1914062 C59.2695319,10.1914062 59.4414052,10.167969 59.6601562,10.1210938 L59.6601562,11 C59.3749986,11.0781254 59.0976576,11.1171875 58.828125,11.1171875 C58.3437476,11.1171875 57.9785169,10.9707046 57.7324219,10.6777344 C57.4863269,10.3847642 57.3632812,9.9687527 57.3632812,9.4296875 L57.3632812,5.49804688 L56.2089844,5.49804688 L56.2089844,4.66015625 L57.3632812,4.66015625 L57.3632812,3.125 L58.4472656,3.125 Z M61.9804688,5.42773438 C62.4609399,4.83788768 63.0859337,4.54296875 63.8554688,4.54296875 C65.1953192,4.54296875 65.8710937,5.29882057 65.8828125,6.81054688 L65.8828125,11 L64.7988281,11 L64.7988281,6.8046875 C64.7949219,6.34765396 64.6904307,6.00976672 64.4853516,5.79101562 C64.2802724,5.57226453 63.9609397,5.46289062 63.5273438,5.46289062 C63.1757795,5.46289062 62.8671888,5.55663969 62.6015625,5.74414062 C62.3359362,5.93164156 62.128907,6.17773285 61.9804688,6.48242188 L61.9804688,11 L60.8964844,11 L60.8964844,2 L61.9804688,2 L61.9804688,5.42773438 Z M67.4707031,10.4316406 C67.4707031,10.2441397 67.5263666,10.0878913 67.6376953,9.96289062 C67.749024,9.83789 67.9160145,9.77539062 68.1386719,9.77539062 C68.3613292,9.77539062 68.5302729,9.83789 68.6455078,9.96289062 C68.7607428,10.0878913 68.8183594,10.2441397 68.8183594,10.4316406 C68.8183594,10.611329 68.7607428,10.7617181 68.6455078,10.8828125 C68.5302729,11.0039069 68.3613292,11.0644531 68.1386719,11.0644531 C67.9160145,11.0644531 67.749024,11.0039069 67.6376953,10.8828125 C67.5263666,10.7617181 67.4707031,10.611329 67.4707031,10.4316406 Z M67.4765625,5.2578125 C67.4765625,5.07031156 67.532226,4.91406313 67.6435547,4.7890625 C67.7548834,4.66406187 67.9218739,4.6015625 68.1445312,4.6015625 C68.3671886,4.6015625 68.5361322,4.66406187 68.6513672,4.7890625 C68.7666021,4.91406313 68.8242188,5.07031156 68.8242188,5.2578125 C68.8242188,5.4375009 68.7666021,5.58789002 68.6513672,5.70898438 C68.5361322,5.83007873 68.3671886,5.890625 68.1445312,5.890625 C67.9218739,5.890625 67.7548834,5.83007873 67.6435547,5.70898438 C67.532226,5.58789002 67.4765625,5.4375009 67.4765625,5.2578125 Z M76.8339844,11 L75.7441406,11 L75.7441406,3.77539062 L73.5585938,4.578125 L73.5585938,3.59375 L76.6640625,2.42773438 L76.8339844,2.42773438 L76.8339844,11 Z M85.4765625,7.90039062 C85.4765625,8.8652392 85.2558616,9.64257518 84.8144531,10.2324219 C84.3730447,10.8222686 83.7753944,11.1171875 83.0214844,11.1171875 C82.2519493,11.1171875 81.6464866,10.8730493 81.2050781,10.3847656 L81.2050781,13.4375 L80.1210938,13.4375 L80.1210938,4.66015625 L81.1113281,4.66015625 L81.1640625,5.36328125 C81.605471,4.81640352 82.2187461,4.54296875 83.0039062,4.54296875 C83.7656288,4.54296875 84.3681618,4.83007525 84.8115234,5.40429688 C85.254885,5.9785185 85.4765625,6.77733863 85.4765625,7.80078125 L85.4765625,7.90039062 Z M84.3925781,7.77734375 C84.3925781,7.06249643 84.2402359,6.49804895 83.9355469,6.08398438 C83.6308579,5.6699198 83.2128933,5.46289062 82.6816406,5.46289062 C82.0253873,5.46289062 81.5332048,5.75390334 81.2050781,6.3359375 L81.2050781,9.36523438 C81.5292985,9.94336227 82.0253873,10.2324219 82.6933594,10.2324219 C83.2128932,10.2324219 83.625975,10.0263692 83.9326172,9.61425781 C84.2392593,9.20214638 84.3925781,8.58984781 84.3925781,7.77734375 Z M88.8925781,6.97460938 L90.2988281,4.66015625 L91.5644531,4.66015625 L89.4902344,7.79492188 L91.6289062,11 L90.375,11 L88.9101562,8.62695312 L87.4453125,11 L86.1855469,11 L88.3242188,7.79492188 L86.25,4.66015625 L87.5039062,4.66015625 L88.8925781,6.97460938 Z" id="redline-label"></path>
                </g>
            </g>
        </g>
    </g>
</svg>