<?xml version="1.0" encoding="utf-8"?>
<!-- Generator: Adobe Illustrator 19.2.1, SVG Export Plug-In . SVG Version: 6.00 Build 0)  -->
<svg version="1.1" id="Layer_1" xmlns="http://www.w3.org/2000/svg" xmlns:xlink="http://www.w3.org/1999/xlink" x="0px" y="0px"
	 viewBox="0 0 1173 248" style="enable-background:new 0 0 1173 248;" xml:space="preserve">
<style type="text/css">
	.st0{fill:#BCBCBC;}
	.st1{fill:#212121;}
	.st2{fill:#FFFFFF;stroke:#BCBCBC;stroke-miterlimit:10;}
	.st3{font-family:'Roboto-Italic';}
	.st4{font-size:13px;}
	.st5{fill:#3073BA;}
	.st6{fill:#FFFFFF;}
	.st7{fill:none;stroke:#3073BA;stroke-miterlimit:10;}
	.st8{fill:#5588C6;}
	.st9{fill:none;stroke:#5588C6;stroke-miterlimit:10;}
	.st10{fill:#154A9F;}
	.st11{fill:#BEDDF4;stroke:#154A9F;stroke-miterlimit:10;}
	.st12{fill:#FFFFFF;stroke:#BDBDBD;stroke-miterlimit:10;}
	.st13{fill:#BDBDBD;}
	.st14{fill:#D8D9D8;}
	.st15{fill:none;stroke:#BDBDBD;stroke-miterlimit:10;}
	.st16{fill:#9C9C9D;}
	.st17{fill:none;stroke:#B954A0;stroke-miterlimit:10;}
	.st18{fill:#B954A0;}
	.st19{fill:#3073BA;stroke:#3073BA;stroke-miterlimit:10;}
	.st20{font-family:'Roboto-Medium';}
	.st21{font-size:12px;}
	.st22{fill:#5588C6;stroke:#5588C6;stroke-miterlimit:10;}
	.st23{fill:#154A9F;stroke:#154A9F;stroke-miterlimit:10;}
	.st24{fill:none;stroke:#BCBCBC;stroke-miterlimit:10;}
	.st25{opacity:0.87;}
	.st26{opacity:0.87;fill:#333333;}
	.st27{fill:#767677;}
</style>
<g>
	<text transform="matrix(1 0 0 1 729.7781 -119.5737)" class="st0 st20" style="font-size:11px;">Rob Med 11PX</text>
	<g>
		<text transform="matrix(1 0 0 1 96.9846 -1066.3511)" class="st1" style="font-family:'Roboto-Light'; font-size:49px;">Buttons</text>
	</g>
	<path class="st2" d="M326.5,83.5h-220c-1.1,0-2-0.9-2-2v-24c0-1.1,0.9-2,2-2h220c1.1,0,2,0.9,2,2v24
		C328.5,82.6,327.6,83.5,326.5,83.5z"/>
	<text transform="matrix(1 0 0 1 112.7761 74.4941)" class="st0 st3 st4">Example placer text</text>
	<path class="st2" d="M622.5,81.5H351.4c-1.1,0-2-0.9-2-2V55.5c0-1.1,0.9-2,2-2h271.1c1.1,0,2,0.9,2,2v24.1
		C624.5,80.6,623.6,81.5,622.5,81.5z"/>
	<text transform="matrix(1 0 0 1 357.7761 72.4941)" class="st0 st3 st4">No file selected</text>
	<path class="st5" d="M333.2-899.6H190c-1.1,0-2-0.9-2-2v-36c0-1.1,0.9-2,2-2h143.3c1.1,0,2,0.9,2,2v36
		C335.2-900.5,334.3-899.6,333.2-899.6z"/>
	<rect x="176" y="-925.3" style="fill:none;" width="170.3" height="13"/>
	<text transform="matrix(1 0 0 1 199.7832 -914.0076)" class="st6 st20" style="font-size:15px;">primary action</text>
	<path class="st7" d="M564.1-899.7H379.6c-1.2,0-2.1-1-2.1-2.1v-35.4c0-1.2,1-2.1,2.1-2.1h184.5c1.2,0,2.1,1,2.1,2.1v35.4
		C566.2-900.7,565.3-899.7,564.1-899.7z"/>
	<rect x="382.8" y="-925.3" style="fill:none;" width="170.3" height="13"/>
	<text transform="matrix(1 0 0 1 395.7075 -914.0076)" class="st5 st20" style="font-size:15px;">secondary action</text>
	<path class="st8" d="M333.2-845.3H190c-1.1,0-2-0.9-2-2v-36c0-1.1,0.9-2,2-2h143.3c1.1,0,2,0.9,2,2v36
		C335.2-846.2,334.3-845.3,333.2-845.3z"/>
	<rect x="176" y="-871" style="fill:none;" width="170.3" height="13"/>
	<text transform="matrix(1 0 0 1 199.7832 -859.75)" class="st6 st20" style="font-size:15px;">primary action</text>
	<path class="st9" d="M564.1-845.5H379.6c-1.2,0-2.1-1-2.1-2.1V-883c0-1.2,1-2.1,2.1-2.1h184.5c1.2,0,2.1,1,2.1,2.1v35.4
		C566.2-846.4,565.3-845.5,564.1-845.5z"/>
	<rect x="382.8" y="-871" style="fill:none;" width="170.3" height="13"/>
	<text transform="matrix(1 0 0 1 395.7075 -859.75)" class="st8 st20" style="font-size:15px;">secondary action</text>
	<path class="st10" d="M333.2-791.1H190c-1.1,0-2-0.9-2-2v-36c0-1.1,0.9-2,2-2h143.3c1.1,0,2,0.9,2,2v36
		C335.2-792,334.3-791.1,333.2-791.1z"/>
	<rect x="176" y="-816.7" style="fill:none;" width="170.3" height="13"/>
	<text transform="matrix(1 0 0 1 199.7832 -805.4924)" class="st6 st20" style="font-size:15px;">primary action</text>
	<path class="st11" d="M564.1-791.2H379.6c-1.2,0-2.1-1-2.1-2.1v-35.4c0-1.2,1-2.1,2.1-2.1h184.5c1.2,0,2.1,1,2.1,2.1v35.4
		C566.2-792.2,565.3-791.2,564.1-791.2z"/>
	<g>
		<rect x="382.8" y="-816.7" style="fill:none;" width="170.3" height="13"/>
		<text transform="matrix(1 0 0 1 395.7075 -805.4924)" class="st10 st20" style="font-size:15px;">secondary action</text>
	</g>
	<path class="st12" d="M564.1-739.9H379.6c-1.2,0-2.1-1-2.1-2.1v-35.4c0-1.2,1-2.1,2.1-2.1h184.5c1.2,0,2.1,1,2.1,2.1v35.4
		C566.2-740.9,565.3-739.9,564.1-739.9z"/>
	<g>
		<rect x="382.8" y="-765.4" style="fill:none;" width="170.3" height="13"/>
		<text transform="matrix(1 0 0 1 395.7075 -754.1846)" class="st13 st20" style="font-size:15px;">secondary action</text>
	</g>
	<path class="st5" d="M273.5-531.9h-88.8c-1.1,0-2-0.9-2-2v-24c0-1.1,0.9-2,2-2h88.8c1.1,0,2,0.9,2,2v24
		C275.5-532.8,274.6-531.9,273.5-531.9z"/>
	<path class="st8" d="M273.5-493.1h-88.8c-1.1,0-2-0.9-2-2v-24c0-1.1,0.9-2,2-2h88.8c1.1,0,2,0.9,2,2v24
		C275.5-494,274.6-493.1,273.5-493.1z"/>
	<rect x="193.9" y="-511.7" style="fill:none;" width="66.2" height="13"/>
	<text transform="matrix(1 0 0 1 201.0991 -502.7363)" class="st6 st20 st21">primary</text>
	<path class="st10" d="M273.5-454.2h-88.8c-1.1,0-2-0.9-2-2v-24c0-1.1,0.9-2,2-2h88.8c1.1,0,2,0.9,2,2v24
		C275.5-455.1,274.6-454.2,273.5-454.2z"/>
	<rect x="193.9" y="-472.8" style="fill:none;" width="66.2" height="13"/>
	<text transform="matrix(1 0 0 1 201.0991 -463.8441)" class="st6 st20 st21">primary</text>
	<path class="st14" d="M273.5-415.2h-88.8c-1.1,0-2-0.9-2-2v-24c0-1.1,0.9-2,2-2h88.8c1.1,0,2,0.9,2,2v24
		C275.5-416.1,274.6-415.2,273.5-415.2z"/>
	<rect x="193.9" y="-433.9" style="fill:none;" width="66.2" height="13"/>
	<text transform="matrix(1 0 0 1 201.0991 -424.9098)" class="st6 st20 st21">primary</text>
	<path class="st7" d="M416-531.9H315.6c-1.1,0-2-0.9-2-2v-24c0-1.1,0.9-2,2-2H416c1.1,0,2,0.9,2,2v24
		C418-532.8,417.1-531.9,416-531.9z"/>
	<g>
		<rect x="321.8" y="-550.6" style="fill:none;" width="89.2" height="13"/>
		<text transform="matrix(1 0 0 1 331.7519 -541.5735)" class="st5 st20 st21">secondary</text>
	</g>
	<path class="st9" d="M416-491.9H315.6c-1.1,0-2-0.9-2-2v-24c0-1.1,0.9-2,2-2H416c1.1,0,2,0.9,2,2v24
		C418-492.8,417.1-491.9,416-491.9z"/>
	<g>
		<rect x="321.8" y="-510.6" style="fill:none;" width="86.1" height="13"/>
		<text transform="matrix(1 0 0 1 330.1943 -501.568)" class="st8 st20 st21">secondary</text>
	</g>
	<path class="st11" d="M416-452.9H315.6c-1.1,0-2-0.9-2-2v-24c0-1.1,0.9-2,2-2H416c1.1,0,2,0.9,2,2v24
		C418-453.8,417.1-452.9,416-452.9z"/>
	<g>
		<rect x="321.8" y="-471.6" style="fill:none;" width="89.2" height="13"/>
		<text transform="matrix(1 0 0 1 331.7519 -462.5625)" class="st10 st20 st21">secondary</text>
	</g>
	<path class="st12" d="M416-416H315.6c-1.1,0-2-0.9-2-2v-24c0-1.1,0.9-2,2-2H416c1.1,0,2,0.9,2,2v24C418-416.9,417.1-416,416-416z"
		/>
	<g>
		<rect x="321.8" y="-434.7" style="fill:none;" width="89.2" height="13"/>
		<text transform="matrix(1 0 0 1 331.7519 -425.6652)" class="st13 st20 st21">secondary</text>
	</g>
	<path class="st5" d="M259-227.7h-74.2c-1.1,0-2-0.9-2-2v-16.9c0-1.1,0.9-2,2-2H259c1.1,0,2,0.9,2,2v16.9
		C261-228.6,260.1-227.7,259-227.7z"/>
	<rect x="193.9" y="-242.9" style="fill:none;" width="55.6" height="13"/>
	<text transform="matrix(1 0 0 1 197.9428 -234.6046)" class="st6 st20" style="font-size:11px;">Primary</text>
	<path class="st8" d="M259-198.2h-74.3c-1.1,0-2-0.9-2-2v-16c0-1.1,0.9-2,2-2H259c1.1,0,2,0.9,2,2v16
		C261-199.1,260.1-198.2,259-198.2z"/>
	<rect x="193.9" y="-212.8" style="fill:none;" width="55.6" height="13"/>
	<text transform="matrix(1 0 0 1 197.9428 -204.5986)" class="st6 st20" style="font-size:11px;">Primary</text>
	<path class="st10" d="M259-168.2h-74.3c-1.1,0-2-0.9-2-2v-16c0-1.1,0.9-2,2-2H259c1.1,0,2,0.9,2,2v16
		C261-169.1,260.1-168.2,259-168.2z"/>
	<rect x="193.9" y="-182.8" style="fill:none;" width="55.6" height="13"/>
	<text transform="matrix(1 0 0 1 197.9428 -174.5935)" class="st6 st20" style="font-size:11px;">Primary</text>
	<path class="st7" d="M392.6-226.7h-80.6c-1.1,0-2-0.9-2-2v-16c0-1.1,0.9-2,2-2h80.6c1.1,0,2,0.9,2,2v16
		C394.6-227.6,393.7-226.7,392.6-226.7z"/>
	<g>
		<rect x="313.6" y="-241.3" style="fill:none;" width="77.9" height="13"/>
		<text transform="matrix(1 0 0 1 320.7229 -233.0991)" class="st5 st20" style="font-size:11px;">Secondary</text>
	</g>
	<path class="st9" d="M392.6-196.7h-80.6c-1.1,0-2-0.9-2-2v-16c0-1.1,0.9-2,2-2h80.6c1.1,0,2,0.9,2,2v16
		C394.6-197.6,393.7-196.7,392.6-196.7z"/>
	<g>
		<rect x="313.6" y="-211.3" style="fill:none;" width="77.9" height="13"/>
		<text transform="matrix(1 0 0 1 320.7229 -203.0931)" class="st8 st20" style="font-size:11px;">Secondary</text>
	</g>
	<path class="st11" d="M392.6-166.7h-80.6c-1.1,0-2-0.9-2-2v-16c0-1.1,0.9-2,2-2h80.6c1.1,0,2,0.9,2,2v16
		C394.6-167.6,393.7-166.7,392.6-166.7z"/>
	<g>
		<rect x="313.6" y="-181.3" style="fill:none;" width="77.9" height="13"/>
		<text transform="matrix(1 0 0 1 320.7229 -173.088)" class="st10 st20" style="font-size:11px;">Secondary</text>
	</g>
	<path class="st14" d="M259-137.2h-74.3c-1.1,0-2-0.9-2-2v-16c0-1.1,0.9-2,2-2H259c1.1,0,2,0.9,2,2v16
		C261-138.1,260.1-137.2,259-137.2z"/>
	<rect x="193.9" y="-151.8" style="fill:none;" width="55.6" height="13"/>
	<text transform="matrix(1 0 0 1 197.9428 -143.5935)" class="st6 st20" style="font-size:11px;">Primary</text>
	<path class="st15" d="M392.6-135.7h-80.6c-1.1,0-2-0.9-2-2v-16c0-1.1,0.9-2,2-2h80.6c1.1,0,2,0.9,2,2v16
		C394.6-136.6,393.7-135.7,392.6-135.7z"/>
	<g>
		<rect x="313.6" y="-150.3" style="fill:none;" width="77.9" height="13"/>
		<text transform="matrix(1 0 0 1 320.7229 -142.088)" class="st13 st20" style="font-size:11px;">Secondary</text>
	</g>
	<text transform="matrix(1 0 0 1 102.4995 -915.0076)" class="st16" style="font-family:'Roboto-Regular'; font-size:10px;">Default</text>
	<text transform="matrix(1 0 0 1 102.4995 -541.897)" class="st16" style="font-family:'Roboto-Regular'; font-size:10px;">Default</text>
	<text transform="matrix(1 0 0 1 102.4995 -232.8784)" class="st16" style="font-family:'Roboto-Regular'; font-size:10px;">Default</text>
	<text transform="matrix(1 0 0 1 102.4995 -864.5117)" class="st16" style="font-family:'Roboto-Regular'; font-size:10px;">Hover</text>
	<text transform="matrix(1 0 0 1 102.4995 -497.5918)" class="st16" style="font-family:'Roboto-Regular'; font-size:10px;">Hover</text>
	<text transform="matrix(1 0 0 1 102.4995 -206.4609)" class="st16" style="font-family:'Roboto-Regular'; font-size:10px;">Hover</text>
	<text transform="matrix(1 0 0 1 102.4995 -810.2542)" class="st16" style="font-family:'Roboto-Regular'; font-size:10px;">Press</text>
	<text transform="matrix(1 0 0 1 102.4995 -464.0747)" class="st16" style="font-family:'Roboto-Regular'; font-size:10px;">Press</text>
	<text transform="matrix(1 0 0 1 102.4995 -172.8672)" class="st16" style="font-family:'Roboto-Regular'; font-size:10px;">Press</text>
	<path class="st14" d="M333.2-739.8H190c-1.1,0-2-0.9-2-2v-36c0-1.1,0.9-2,2-2h143.3c1.1,0,2,0.9,2,2v36
		C335.2-740.6,334.3-739.8,333.2-739.8z"/>
	<rect x="176" y="-765.4" style="fill:none;" width="170.3" height="13"/>
	<text transform="matrix(1 0 0 1 199.7832 -754.1846)" class="st6 st20" style="font-size:15px;">primary action</text>
	<text transform="matrix(1 0 0 1 102.4995 -758.9463)" class="st16" style="font-family:'Roboto-Regular'; font-size:10px;">Disabled</text>
	<text transform="matrix(1 0 0 1 102.4995 -426.6628)" class="st16" style="font-family:'Roboto-Regular'; font-size:10px;">Disabled</text>
	<text transform="matrix(1 0 0 1 102.4995 -141.8669)" class="st16" style="font-family:'Roboto-Regular'; font-size:10px;">Disabled</text>
	<path id="XMLID_52_" class="st2" d="M873-757.5H689.5c-1.1,0-2-0.9-2-2v-46.9c0-1.1,0.9-2,2-2H873c1.1,0,2,0.9,2,2v46.9
		C875-758.4,874.1-757.5,873-757.5z"/>
	<text transform="matrix(1 0 0 1 602.4993 -783.3438)" class="st16" style="font-family:'Roboto-Regular'; font-size:10px;">Button Spec</text>
	<text transform="matrix(1 0 0 1 604.0002 -466.0852)" class="st16" style="font-family:'Roboto-Regular'; font-size:10px;">Button Spec</text>
	<g>
		<line class="st17" x1="779.5" y1="-777" x2="779.5" y2="-758"/>
		<line class="st17" x1="777" y1="-777.5" x2="782" y2="-777.5"/>
		<line class="st17" x1="777" y1="-758.5" x2="782" y2="-758.5"/>
	</g>
	<g>
		<line class="st17" x1="836" y1="-784.5" x2="875" y2="-784.5"/>
		<line class="st17" x1="836.5" y1="-782" x2="836.5" y2="-787"/>
		<line class="st17" x1="874.5" y1="-782" x2="874.5" y2="-787"/>
	</g>
	<g>
		<line class="st17" x1="688" y1="-784.5" x2="727" y2="-784.5"/>
		<line class="st17" x1="688.5" y1="-782" x2="688.5" y2="-787"/>
		<line class="st17" x1="726.5" y1="-782" x2="726.5" y2="-787"/>
	</g>
	<g>
		<line class="st17" x1="779.5" y1="-807" x2="779.5" y2="-789"/>
		<line class="st17" x1="777" y1="-807.5" x2="782" y2="-807.5"/>
		<line class="st17" x1="777" y1="-789.5" x2="782" y2="-789.5"/>
	</g>
	<g>
		<line class="st17" x1="883.5" y1="-808" x2="883.5" y2="-757"/>
		<line class="st17" x1="881" y1="-808.5" x2="887" y2="-808.5"/>
		<line class="st17" x1="881" y1="-757.5" x2="887" y2="-757.5"/>
	</g>
	<text transform="matrix(1 0 0 1 783.1907 -795.5)" class="st18" style="font-family:'Roboto-Regular'; font-size:9px;">12px</text>
	<text transform="matrix(1 0 0 1 848.9407 -789.4114)" class="st18" style="font-family:'Roboto-Regular'; font-size:9px;">14px</text>
	<g>
		<text transform="matrix(1 0 0 1 887.3577 -782.3298)" class="st18" style="font-family:'Roboto-Regular'; font-size:9px;">40px</text>
	</g>
	<text transform="matrix(1 0 0 1 697.428 -789.4114)" class="st18" style="font-family:'Roboto-Regular'; font-size:9px;">14px</text>
	<text transform="matrix(1 0 0 1 783.1907 -764)" class="st18" style="font-family:'Roboto-Regular'; font-size:9px;">12px</text>
	<text transform="matrix(1 0 0 1 603.4993 -123.667)" class="st16" style="font-family:'Roboto-Regular'; font-size:10px;">Button Spec</text>
	<path class="st19" d="M620.7,81.5h-89.2v-28h89.2c2.1,0,3.8,1.7,3.8,3.8v20.4C624.5,79.8,622.8,81.5,620.7,81.5z"/>
	<g>
		<text transform="matrix(1 0 0 1 562.9844 71.6528)" class="st6 st20 st21">Attach</text>
	</g>
	<path class="st6" d="M548.1,61.2c0.9,0.1,1.7,0.4,2.3,1c1.7,1.7,3.4,3.4,5.2,5.2c0.3,0.3,0.1,0.5-0.1,0.7c-0.3,0.3-0.4,0.3-0.7,0.1
		c-1.7-1.7-3.3-3.3-5-5c-0.6-0.6-1.4-0.9-2.3-0.7c-1.5,0.4-2.1,2.2-1.1,3.4c0.1,0.1,0.2,0.2,0.3,0.4c2.1,2.1,4.3,4.3,6.4,6.4
		c0.2,0.2,0.4,0.4,0.6,0.5c0.6,0.3,1.2,0.2,1.6-0.2c0.4-0.4,0.5-1.1,0.2-1.6c-0.1-0.2-0.3-0.4-0.5-0.6c-1.6-1.6-3.2-3.2-4.8-4.8
		c-0.1-0.1-0.3-0.3-0.5-0.3c-0.2,0-0.5,0-0.6,0.2c-0.1,0.1-0.1,0.4,0,0.6c0,0.1,0.2,0.3,0.3,0.4c1.1,1.1,2.1,2.1,3.2,3.2
		c0.3,0.3,0.3,0.4,0,0.7c-0.3,0.3-0.4,0.4-0.7,0c-1.1-1.1-2.2-2.2-3.3-3.3c-0.5-0.5-0.7-1-0.6-1.7c0.2-1.2,1.7-1.7,2.7-1
		c0.1,0.1,0.2,0.1,0.2,0.2c1.6,1.6,3.3,3.3,4.9,4.9c0.6,0.6,0.9,1.3,0.9,2.1c0,1.8-1.8,2.8-3.5,2c-0.3-0.2-0.6-0.4-0.9-0.6
		c-2.2-2.2-4.4-4.4-6.6-6.6c-1.6-1.7-1.2-4.3,0.9-5.3C547.1,61.4,547.6,61.3,548.1,61.2z"/>
	<path class="st2" d="M622.5,130.5H351.4c-1.1,0-2-0.9-2-2v-24.1c0-1.1,0.9-2,2-2h271.1c1.1,0,2,0.9,2,2v24.1
		C624.5,129.6,623.6,130.5,622.5,130.5z"/>
	<text transform="matrix(1 0 0 1 357.7761 121.4941)" class="st0 st3 st4">No file selected</text>
	<path class="st22" d="M620.7,130.5h-89.2v-28h89.2c2.1,0,3.8,1.7,3.8,3.8v20.4C624.5,128.8,622.8,130.5,620.7,130.5z"/>
	<g>
		<text transform="matrix(1 0 0 1 562.9844 120.6528)" class="st6 st20 st21">ATTACH</text>
	</g>
	<path class="st6" d="M548.1,110.2c0.9,0.1,1.7,0.4,2.3,1c1.7,1.7,3.4,3.4,5.2,5.2c0.3,0.3,0.1,0.5-0.1,0.7
		c-0.3,0.3-0.4,0.3-0.7,0.1c-1.7-1.7-3.3-3.3-5-5c-0.6-0.6-1.4-0.9-2.3-0.7c-1.5,0.4-2.1,2.2-1.1,3.4c0.1,0.1,0.2,0.2,0.3,0.4
		c2.1,2.1,4.3,4.3,6.4,6.4c0.2,0.2,0.4,0.4,0.6,0.5c0.6,0.3,1.2,0.2,1.6-0.2c0.4-0.4,0.5-1.1,0.2-1.6c-0.1-0.2-0.3-0.4-0.5-0.6
		c-1.6-1.6-3.2-3.2-4.8-4.8c-0.1-0.1-0.3-0.3-0.5-0.3c-0.2,0-0.5,0-0.6,0.2c-0.1,0.1-0.1,0.4,0,0.6c0,0.1,0.2,0.3,0.3,0.4
		c1.1,1.1,2.1,2.1,3.2,3.2c0.3,0.3,0.3,0.4,0,0.7c-0.3,0.3-0.4,0.4-0.7,0c-1.1-1.1-2.2-2.2-3.3-3.3c-0.5-0.5-0.7-1-0.6-1.7
		c0.2-1.2,1.7-1.7,2.7-1c0.1,0.1,0.2,0.1,0.2,0.2c1.6,1.6,3.3,3.3,4.9,4.9c0.6,0.6,0.9,1.3,0.9,2.1c0,1.8-1.8,2.8-3.5,2
		c-0.3-0.2-0.6-0.4-0.9-0.6c-2.2-2.2-4.4-4.4-6.6-6.6c-1.6-1.7-1.2-4.3,0.9-5.3C547.1,110.4,547.6,110.3,548.1,110.2z"/>
	<path class="st2" d="M622.5,179.5H351.4c-1.1,0-2-0.9-2-2v-24.1c0-1.1,0.9-2,2-2h271.1c1.1,0,2,0.9,2,2v24.1
		C624.5,178.6,623.6,179.5,622.5,179.5z"/>
	<text transform="matrix(1 0 0 1 357.7761 170.4941)" class="st0 st3 st4">No file selected</text>
	<path class="st23" d="M620.7,179.5h-89.2v-28h89.2c2.1,0,3.8,1.7,3.8,3.8v20.4C624.5,177.8,622.8,179.5,620.7,179.5z"/>
	<text transform="matrix(1 0 0 1 562.9844 169.6528)" class="st6 st20 st21">ATTACH</text>
	<path class="st6" d="M548.1,159.2c0.9,0.1,1.7,0.4,2.3,1c1.7,1.7,3.4,3.4,5.2,5.2c0.3,0.3,0.1,0.5-0.1,0.7
		c-0.3,0.3-0.4,0.3-0.7,0.1c-1.7-1.7-3.3-3.3-5-5c-0.6-0.6-1.4-0.9-2.3-0.7c-1.5,0.4-2.1,2.2-1.1,3.4c0.1,0.1,0.2,0.2,0.3,0.4
		c2.1,2.1,4.3,4.3,6.4,6.4c0.2,0.2,0.4,0.4,0.6,0.5c0.6,0.3,1.2,0.2,1.6-0.2c0.4-0.4,0.5-1.1,0.2-1.6c-0.1-0.2-0.3-0.4-0.5-0.6
		c-1.6-1.6-3.2-3.2-4.8-4.8c-0.1-0.1-0.3-0.3-0.5-0.3c-0.2,0-0.5,0-0.6,0.2c-0.1,0.1-0.1,0.4,0,0.6c0,0.1,0.2,0.3,0.3,0.4
		c1.1,1.1,2.1,2.1,3.2,3.2c0.3,0.3,0.3,0.4,0,0.7c-0.3,0.3-0.4,0.4-0.7,0c-1.1-1.1-2.2-2.2-3.3-3.3c-0.5-0.5-0.7-1-0.6-1.7
		c0.2-1.2,1.7-1.7,2.7-1c0.1,0.1,0.2,0.1,0.2,0.2c1.6,1.6,3.3,3.3,4.9,4.9c0.6,0.6,0.9,1.3,0.9,2.1c0,1.8-1.8,2.8-3.5,2
		c-0.3-0.2-0.6-0.4-0.9-0.6c-2.2-2.2-4.4-4.4-6.6-6.6c-1.6-1.7-1.2-4.3,0.9-5.3C547.1,159.4,547.6,159.3,548.1,159.2z"/>
	<path id="XMLID_51_" class="st19" d="M324.5,83.5h-59v-28h59c2.2,0,4,1.8,4,4v20C328.5,81.7,326.7,83.5,324.5,83.5z"/>
	<g>
		<text transform="matrix(1 0 0 1 273.9841 74.4055)" class="st6 st20 st21">Action</text>
	</g>
	<path class="st2" d="M326.5,130.5h-220c-1.1,0-2-0.9-2-2v-24c0-1.1,0.9-2,2-2h220c1.1,0,2,0.9,2,2v24
		C328.5,129.6,327.6,130.5,326.5,130.5z"/>
	<text transform="matrix(1 0 0 1 112.7761 121.4941)" class="st0 st3 st4">Example placer text</text>
	<path id="XMLID_50_" class="st22" d="M324.5,130.5h-59v-28h59c2.2,0,4,1.8,4,4v20C328.5,128.7,326.7,130.5,324.5,130.5z"/>
	<g>
		<text transform="matrix(1 0 0 1 275.0842 121.6055)" class="st6 st20 st21">Action</text>
	</g>
	<path class="st2" d="M326.5,175.4h-220c-1.1,0-2-0.9-2-2v-24c0-1.1,0.9-2,2-2h220c1.1,0,2,0.9,2,2v24
		C328.5,174.5,327.6,175.4,326.5,175.4z"/>
	<text transform="matrix(1 0 0 1 112.7761 166.3669)" class="st0 st3 st4">Example placer text</text>
	<path id="XMLID_49_" class="st23" d="M324.5,175.4h-59v-28h59c2.2,0,4,1.8,4,4v20C328.5,173.6,326.7,175.4,324.5,175.4z"/>
	<g>
		<text transform="matrix(1 0 0 1 274.9841 166.4783)" class="st6 st20 st21">Action</text>
	</g>
	<text transform="matrix(1 0 0 1 725.7454 -778.275)" class="st0 st20" style="font-size:16px;">ROB MED 16PX</text>
	<path id="XMLID_47_" class="st2" d="M840.4-424.9H715.2c-1.1,0-2-0.9-2-2v-24.1c0-1.1,0.9-2,2-2h125.3c1.1,0,2,0.9,2,2v24.1
		C842.4-425.8,841.5-424.9,840.4-424.9z"/>
	<g>
		<line class="st17" x1="779.5" y1="-432.9" x2="779.5" y2="-424.9"/>
		<line class="st17" x1="777" y1="-432.3" x2="782" y2="-432.3"/>
		<line class="st17" x1="777" y1="-425.5" x2="782" y2="-425.5"/>
	</g>
	<g>
		<line class="st17" x1="829" y1="-437.5" x2="841" y2="-437.5"/>
		<line class="st17" x1="829.5" y1="-435" x2="829.5" y2="-440"/>
		<line class="st17" x1="841.5" y1="-435" x2="841.5" y2="-440"/>
	</g>
	<g>
		<line class="st17" x1="713.6" y1="-437.5" x2="725.6" y2="-437.5"/>
		<line class="st17" x1="714.1" y1="-435" x2="714.1" y2="-440"/>
		<line class="st17" x1="726.1" y1="-435" x2="726.1" y2="-440"/>
	</g>
	<g>
		<line class="st17" x1="779.5" y1="-452" x2="779.5" y2="-444"/>
		<line class="st17" x1="777" y1="-452.5" x2="782" y2="-452.5"/>
		<line class="st17" x1="777" y1="-444.5" x2="782" y2="-444.5"/>
	</g>
	<g>
		<line class="st17" x1="847.5" y1="-452" x2="847.5" y2="-425"/>
		<line class="st17" x1="845" y1="-452.5" x2="851" y2="-452.5"/>
		<line class="st17" x1="845" y1="-425.5" x2="851" y2="-425.5"/>
	</g>
	<text transform="matrix(1 0 0 1 772.2185 -458.5859)" class="st18" style="font-family:'Roboto-Regular'; font-size:9px;">8px</text>
	<text transform="matrix(1 0 0 1 828.1072 -413.6919)" class="st18" style="font-family:'Roboto-Regular'; font-size:9px;">12px</text>
	<g>
		<text transform="matrix(1 0 0 1 853.3577 -434.9998)" class="st18" style="font-family:'Roboto-Regular'; font-size:9px;">28px</text>
	</g>
	<text transform="matrix(1 0 0 1 709.7915 -412.9114)" class="st18" style="font-family:'Roboto-Regular'; font-size:9px;">12px</text>
	<text transform="matrix(1 0 0 1 777.0508 -415.9961)" class="st18" style="font-family:'Roboto-Regular'; font-size:9px;">8px</text>
	<text transform="matrix(1 0 0 1 725.219 -433.2833)" class="st0 st20" style="font-size:15px;">ROB MED 12PX</text>
	<path id="XMLID_46_" class="st24" d="M813-114.5h-90.5c-1.1,0-2-0.9-2-2V-130c0-1.1,0.9-2,2-2H813c1.1,0,2,0.9,2,2v13.5
		C815-115.4,814.1-114.5,813-114.5z"/>
	<g>
		<line class="st17" x1="721" y1="-124.5" x2="730" y2="-124.5"/>
		<line class="st17" x1="721.5" y1="-122" x2="721.5" y2="-127"/>
		<line class="st17" x1="729.5" y1="-122" x2="729.5" y2="-127"/>
	</g>
	<g>
		<line class="st17" x1="806" y1="-124.5" x2="815" y2="-124.5"/>
		<line class="st17" x1="806.5" y1="-122" x2="806.5" y2="-127"/>
		<line class="st17" x1="814.5" y1="-122" x2="814.5" y2="-127"/>
	</g>
	<g>
		<line class="st17" x1="767.5" y1="-132" x2="767.5" y2="-126"/>
		<line class="st17" x1="765" y1="-131.5" x2="770" y2="-131.5"/>
		<line class="st17" x1="765" y1="-126.5" x2="770" y2="-126.5"/>
	</g>
	<g>
		<line class="st17" x1="819.3" y1="-131.6" x2="819.3" y2="-114.3"/>
		<line class="st17" x1="816.8" y1="-132.2" x2="822.8" y2="-132.2"/>
		<line class="st17" x1="816.8" y1="-114.9" x2="822.8" y2="-114.9"/>
	</g>
	<text transform="matrix(1 0 0 1 760.468 -133.833)" class="st18" style="font-family:'Roboto-Regular'; font-size:9px;">5px</text>
	<g>
		<line class="st17" x1="767.5" y1="-120" x2="767.5" y2="-114"/>
		<line class="st17" x1="765" y1="-119.5" x2="770" y2="-119.5"/>
		<line class="st17" x1="765" y1="-114.5" x2="770" y2="-114.5"/>
	</g>
	<text transform="matrix(1 0 0 1 760.218 -106.4873)" class="st18" style="font-family:'Roboto-Regular'; font-size:9px;">5px</text>
	<text transform="matrix(1 0 0 1 796.6917 -104)" class="st18" style="font-family:'Roboto-Regular'; font-size:9px;">10px</text>
	<g>
		<text transform="matrix(1 0 0 1 825.6909 -119.5)" class="st18" style="font-family:'Roboto-Regular'; font-size:9px;">21px</text>
	</g>
	<text transform="matrix(1 0 0 1 715.6914 -104)" class="st18" style="font-family:'Roboto-Regular'; font-size:9px;">10px</text>
	<g id="XMLID_41_" class="st25">
		<text transform="matrix(1 0 0 1 100.5432 -996.7457)" class="st26 st20" style="font-size:21px;">Large Button</text>
	</g>
	<g id="XMLID_39_" class="st25">
		<text transform="matrix(1 0 0 1 102.5432 -616.0002)" class="st26 st20" style="font-size:21px;">Standard Button</text>
	</g>
	<g>
		<rect x="602" y="-939.6" style="fill:none;" width="474" height="84.3"/>
		<text transform="matrix(1 0 0 1 602.0001 -928.3272)"><tspan x="0" y="0" class="st27" style="font-family:'Roboto-Regular'; font-size:15px;">Large Button Rules:  16px, Text in all caps.  Colors limited to XXX, XXX, </tspan><tspan x="0" y="20" class="st27" style="font-family:'Roboto-Regular'; font-size:15px;">XXX, XXX</tspan></text>
	</g>
	<g>
		<rect x="604" y="-248.1" style="fill:none;" width="471" height="56.1"/>
		<text transform="matrix(1 0 0 1 604.0001 -236.8917)"><tspan x="0" y="0" class="st27" style="font-family:'Roboto-Regular'; font-size:15px;">Small Button Rules:  11px, Text in all caps.  Colors limited to XXX, XXX, </tspan><tspan x="0" y="20" class="st27" style="font-family:'Roboto-Regular'; font-size:15px;">XXX, XXX</tspan></text>
	</g>
	<g>
		<rect x="603" y="-560.1" style="fill:none;" width="471" height="83.6"/>
		<text transform="matrix(1 0 0 1 603.0001 -548.8212)"><tspan x="0" y="0" class="st27" style="font-family:'Roboto-Regular'; font-size:15px;">Standard Button Rules:  12px, Text in all caps.  Colors limited to XXX, </tspan><tspan x="0" y="20" class="st27" style="font-family:'Roboto-Regular'; font-size:15px;">XXX, XXX, XXX</tspan></text>
	</g>
	<g>
		<text transform="matrix(1 0 0 1 201.4275 -541.897)" class="st6 st20 st21">PRIMARY</text>
	</g>
</g>
</svg>
