<?xml version="1.0" encoding="utf-8"?>
<!-- Generator: Adobe Illustrator 19.2.1, SVG Export Plug-In . SVG Version: 6.00 Build 0)  -->
<svg version="1.1" id="Layer_1" xmlns="http://www.w3.org/2000/svg" xmlns:xlink="http://www.w3.org/1999/xlink" x="0px" y="0px"
	 viewBox="0 0 99.2 99.2" style="enable-background:new 0 0 99.2 99.2;" xml:space="preserve">
<style type="text/css">
	.st0{fill:#FAFBFB;}
	.st1{fill:none;stroke:#74AD42;stroke-width:18.341;stroke-miterlimit:10;}
	.st2{fill:none;stroke:#B954A0;stroke-width:1.2678;stroke-linejoin:round;stroke-miterlimit:10;}
	.st3{fill:none;stroke:#B954A0;stroke-miterlimit:10;}
	.st4{fill:#B954A0;}
	.st5{fill:#75AD42;}
	.st6{opacity:0.87;}
	.st7{fill:#4DAF50;}
	.st8{fill:#3073BA;}
	.st9{fill:#FFFFFF;}
	.st10{fill:#EF4538;}
	.st11{fill:#F47D20;}
	.st12{fill:#0DBCD4;}
	.st13{fill:#333333;}
	.st14{fill:#404A9F;}
	.st15{fill:#FFFFFF;stroke:#3173BA;stroke-miterlimit:10;}
	.st16{fill:none;stroke:#EF4538;stroke-miterlimit:10;}
	.st17{fill:#6D6E71;}
	.st18{font-family:'Roboto-Regular';}
	.st19{font-size:5.9899px;}
	.st20{font-family:'Roboto-Medium';}
	.st21{font-size:9.9832px;}
	.st22{fill:#808285;}
	.st23{fill:#58595B;}
</style>
<rect x="193.5" y="-203.2" class="st0" width="99.7" height="99.7"/>
<rect x="-29.2" y="205.6" class="st0" width="162" height="162"/>
<path class="st1" d="M17.9,336.1v-46.3c0-20.5,16.6-37.1,37.1-37.1h41.3"/>
<circle class="st2" cx="51.5" cy="286.6" r="41.8"/>
<g>
	<line class="st3" x1="9.8" y1="286.3" x2="51.8" y2="286.3"/>
</g>
<text transform="matrix(1 0 0 1 23.2682 283.065)" class="st4 st18" style="font-size:10.2452px;">2px</text>
<circle class="st4" cx="51.8" cy="286.3" r="1.8"/>
<circle class="st5" cx="161.8" cy="363.8" r="0"/>
<rect x="162.3" y="205.6" class="st0" width="162" height="162"/>
<rect x="-29.5" y="409.6" class="st0" width="162" height="162"/>
<circle class="st5" cx="51.5" cy="567.8" r="0"/>
<g class="st6">
	<g>
		<path class="st7" d="M206.3,257.4h-4.9v8.5h-2.8v-21h6.9c2.4,0,4.2,0.5,5.5,1.6c1.3,1.1,1.9,2.6,1.9,4.7c0,1.3-0.4,2.4-1.1,3.4
			c-0.7,1-1.7,1.7-2.9,2.2l4.9,8.9v0.2h-3L206.3,257.4z M201.4,255.1h4.2c1.4,0,2.5-0.4,3.3-1.1c0.8-0.7,1.2-1.7,1.2-2.9
			c0-1.3-0.4-2.3-1.2-3c-0.8-0.7-1.9-1-3.3-1.1h-4.2V255.1z"/>
		<path class="st7" d="M215.7,257.9c0-1.5,0.3-2.9,0.9-4.1c0.6-1.2,1.4-2.2,2.5-2.8c1.1-0.7,2.3-1,3.7-1c2.1,0,3.8,0.7,5.1,2.2
			s2,3.4,2,5.9v0.2c0,1.5-0.3,2.9-0.9,4.1c-0.6,1.2-1.4,2.1-2.5,2.8c-1.1,0.7-2.3,1-3.7,1c-2.1,0-3.8-0.7-5.1-2.2
			c-1.3-1.5-2-3.4-2-5.8V257.9z M218.3,258.3c0,1.7,0.4,3.1,1.2,4.2c0.8,1,1.9,1.6,3.2,1.6c1.4,0,2.4-0.5,3.2-1.6
			c0.8-1.1,1.2-2.5,1.2-4.5c0-1.7-0.4-3.1-1.2-4.2c-0.8-1.1-1.9-1.6-3.2-1.6c-1.3,0-2.4,0.5-3.2,1.6S218.3,256.3,218.3,258.3z"/>
		<path class="st7" d="M246.4,258.3c0,2.4-0.5,4.3-1.6,5.7c-1.1,1.4-2.6,2.2-4.4,2.2c-2,0-3.5-0.7-4.6-2.1l-0.1,1.8h-2.4v-22.1h2.7
			v8.3c1.1-1.3,2.6-2,4.5-2c1.9,0,3.4,0.7,4.5,2.1c1.1,1.4,1.6,3.4,1.6,5.9V258.3z M243.7,258c0-1.8-0.4-3.2-1.1-4.2
			c-0.7-1-1.7-1.5-3-1.5c-1.8,0-3,0.8-3.8,2.4v6.7c0.8,1.6,2.1,2.4,3.8,2.4c1.3,0,2.3-0.5,3-1.5C243.4,261.4,243.7,259.9,243.7,258z
			"/>
		<path class="st7" d="M249,257.9c0-1.5,0.3-2.9,0.9-4.1c0.6-1.2,1.4-2.2,2.5-2.8c1.1-0.7,2.3-1,3.7-1c2.1,0,3.8,0.7,5.2,2.2
			s2,3.4,2,5.9v0.2c0,1.5-0.3,2.9-0.9,4.1c-0.6,1.2-1.4,2.1-2.5,2.8c-1.1,0.7-2.3,1-3.7,1c-2.1,0-3.8-0.7-5.1-2.2
			c-1.3-1.5-2-3.4-2-5.8V257.9z M251.7,258.3c0,1.7,0.4,3.1,1.2,4.2c0.8,1,1.9,1.6,3.2,1.6c1.4,0,2.4-0.5,3.2-1.6
			c0.8-1.1,1.2-2.5,1.2-4.5c0-1.7-0.4-3.1-1.2-4.2c-0.8-1.1-1.9-1.6-3.2-1.6c-1.3,0-2.4,0.5-3.2,1.6
			C252.1,254.8,251.7,256.3,251.7,258.3z"/>
		<path class="st7" d="M270.2,246.5v3.8h2.9v2.1h-2.9v9.7c0,0.6,0.1,1.1,0.4,1.4c0.3,0.3,0.7,0.5,1.3,0.5c0.3,0,0.7-0.1,1.3-0.2v2.1
			c-0.7,0.2-1.4,0.3-2,0.3c-1.2,0-2.1-0.4-2.7-1.1c-0.6-0.7-0.9-1.7-0.9-3.1v-9.7h-2.8v-2.1h2.8v-3.8H270.2z"/>
		<path class="st7" d="M275.2,257.9c0-1.5,0.3-2.9,0.9-4.1c0.6-1.2,1.4-2.2,2.5-2.8c1.1-0.7,2.3-1,3.7-1c2.1,0,3.8,0.7,5.2,2.2
			s2,3.4,2,5.9v0.2c0,1.5-0.3,2.9-0.9,4.1c-0.6,1.2-1.4,2.1-2.5,2.8c-1.1,0.7-2.3,1-3.7,1c-2.1,0-3.8-0.7-5.1-2.2
			c-1.3-1.5-2-3.4-2-5.8V257.9z M277.9,258.3c0,1.7,0.4,3.1,1.2,4.2c0.8,1,1.9,1.6,3.2,1.6c1.4,0,2.4-0.5,3.2-1.6
			c0.8-1.1,1.2-2.5,1.2-4.5c0-1.7-0.4-3.1-1.2-4.2c-0.8-1.1-1.9-1.6-3.2-1.6c-1.3,0-2.4,0.5-3.2,1.6
			C278.3,254.8,277.9,256.3,277.9,258.3z"/>
		<path class="st3" d="M233.4,316.1h-23.3l-5.2,14.6h-7.6l21.2-55.6h6.4l21.3,55.6h-7.5L233.4,316.1z M212.3,310.1h18.9l-9.5-26
			L212.3,310.1z"/>
		<path class="st4" d="M278.1,330.6c-0.4-0.8-0.7-2.3-1-4.4c-3.3,3.4-7.2,5.1-11.8,5.1c-4.1,0-7.4-1.2-10-3.5
			c-2.6-2.3-3.9-5.2-3.9-8.8c0-4.3,1.6-7.6,4.9-10c3.3-2.4,7.9-3.6,13.8-3.6h6.9v-3.2c0-2.5-0.7-4.4-2.2-5.9
			c-1.5-1.5-3.7-2.2-6.5-2.2c-2.5,0-4.6,0.6-6.3,1.9c-1.7,1.3-2.6,2.8-2.6,4.6h-7.1c0-2.1,0.7-4.1,2.2-6c1.5-1.9,3.5-3.4,6-4.6
			c2.5-1.1,5.3-1.7,8.3-1.7c4.8,0,8.5,1.2,11.2,3.6c2.7,2.4,4.1,5.7,4.2,9.8v19c0,3.8,0.5,6.8,1.5,9.1v0.6H278.1z M266.4,325.3
			c2.2,0,4.3-0.6,6.3-1.7c2-1.1,3.4-2.6,4.3-4.5v-8.5h-5.5c-8.7,0-13,2.5-13,7.6c0,2.2,0.7,3.9,2.2,5.2
			C262.2,324.6,264.1,325.3,266.4,325.3z"/>
	</g>
</g>
<circle class="st5" cx="161.8" cy="528.8" r="0"/>
<rect x="162.3" y="408.6" class="st0" width="162" height="162"/>
<rect id="XMLID_502_" x="-835.2" y="585.8" class="st8" width="142" height="100"/>
<g id="XMLID_497_">
	<text transform="matrix(1 0 0 1 -752.3627 671.7245)" class="st9 st20" style="font-size:12px;">#0d74d1</text>
</g>
<text id="XMLID_492_" transform="matrix(1 0 0 1 -825.2202 611.7632)" class="st9 st20" style="font-size:12px;">700 (primary)</text>
<rect id="XMLID_480_" x="-693.2" y="585.8" class="st10" width="142" height="100"/>
<g id="XMLID_475_">
	<text transform="matrix(1 0 0 1 -610.3627 671.7245)" class="st9 st20" style="font-size:12px;">#F44336</text>
</g>
<text id="XMLID_470_" transform="matrix(1 0 0 1 -684.8305 611.7632)" class="st9 st20" style="font-size:12px;">500 (primary)</text>
<rect id="XMLID_459_" x="-835.2" y="785.8" class="st7" width="142" height="100"/>
<g id="XMLID_454_">
	<text transform="matrix(1 0 0 1 -752.3632 871.7245)" class="st9 st20" style="font-size:12px;">#4caf51</text>
</g>
<text id="XMLID_449_" transform="matrix(1 0 0 1 -826.8305 811.7632)" class="st9 st20" style="font-size:12px;">500 (primary)</text>
<rect id="XMLID_437_" x="-693.2" y="785.8" class="st11" width="142" height="100"/>
<g id="XMLID_432_">
	<text transform="matrix(1 0 0 1 -610.3632 871.7245)" class="st9 st20" style="font-size:12px;">#f57c00</text>
</g>
<text id="XMLID_427_" transform="matrix(1 0 0 1 -684.831 811.7632)" class="st9 st20" style="font-size:12px;">500 (primary)</text>
<rect id="XMLID_418_" x="-835.2" y="685.8" class="st12" width="142" height="100"/>
<g id="XMLID_409_">
	<text transform="matrix(1 0 0 1 -752.3627 771.7245)" class="st13 st20" style="font-size:12px;">#00BCD4</text>
</g>
<g id="XMLID_399_">
	<text transform="matrix(1 0 0 1 -826.8305 711.7632)" class="st13 st20" style="font-size:12px;">500 (primary)</text>
</g>
<rect id="XMLID_368_" x="-693.2" y="685.8" class="st14" width="142" height="100"/>
<g id="XMLID_362_">
	<text transform="matrix(1 0 0 1 -610.3627 771.7245)" class="st9 st20" style="font-size:12px;">#3b44a9</text>
</g>
<text id="XMLID_350_" transform="matrix(1 0 0 1 -684.8305 711.7632)" class="st9 st20" style="font-size:12px;">500 (primary)</text>
<g>
	<rect id="XMLID_32_" x="190.8" y="453.8" class="st8" width="53" height="37"/>
	<g id="XMLID_30_">
		<text transform="matrix(1 0 0 1 221.7367 485.8963)" class="st9 st20" style="font-size:4.4789px;">#0d74d1</text>
	</g>
	<text id="XMLID_29_" transform="matrix(1 0 0 1 194.5433 463.5164)" class="st9 st20" style="font-size:4.4789px;">700 (primary)</text>
	<rect id="XMLID_28_" x="243.8" y="453.8" class="st10" width="53" height="37"/>
	<g id="XMLID_26_">
		<text transform="matrix(1 0 0 1 274.7367 485.8963)" class="st9 st20" style="font-size:4.4789px;">#F44336</text>
	</g>
	<text id="XMLID_25_" transform="matrix(1 0 0 1 246.9422 463.5164)" class="st9 st20" style="font-size:4.4789px;">500 (primary)</text>
	<rect id="XMLID_24_" x="190.8" y="490.8" class="st7" width="53" height="37"/>
	<g id="XMLID_22_">
		<text transform="matrix(1 0 0 1 221.7362 522.5447)" class="st9 st20" style="font-size:4.4789px;">#4caf51</text>
	</g>
	<text id="XMLID_21_" transform="matrix(1 0 0 1 193.9422 500.1648)" class="st9 st20" style="font-size:4.4789px;">500 (primary)</text>
	<rect id="XMLID_20_" x="243.8" y="490.8" class="st11" width="53" height="37"/>
	<g id="XMLID_18_">
		<text transform="matrix(1 0 0 1 274.7362 522.5447)" class="st9 st20" style="font-size:4.4789px;">#f57c00</text>
	</g>
	<text id="XMLID_17_" transform="matrix(1 0 0 1 246.9422 500.1648)" class="st9 st20" style="font-size:4.4789px;">500 (primary)</text>
</g>
<g>
	<g>
		<path id="XMLID_47_" class="st15" d="M91.1,497.2H7.7c-0.7,0-1.3-0.6-1.3-1.3v-16c0-0.7,0.6-1.3,1.3-1.3h83.4
			c0.7,0,1.3,0.6,1.3,1.3v16C92.4,496.6,91.8,497.2,91.1,497.2z"/>
		<g>
			<line class="st16" x1="50.6" y1="491.9" x2="50.6" y2="497.2"/>
			<line class="st16" x1="48.9" y1="492.2" x2="52.2" y2="492.2"/>
			<line class="st16" x1="48.9" y1="496.8" x2="52.2" y2="496.8"/>
		</g>
		<g>
			<line class="st16" x1="83.8" y1="489.3" x2="91.8" y2="489.3"/>
			<line class="st16" x1="83.3" y1="490.8" x2="83.3" y2="486.8"/>
			<line class="st16" x1="91.3" y1="490.8" x2="91.3" y2="486.8"/>
		</g>
		<g>
			<line class="st16" x1="6.7" y1="488.8" x2="14.7" y2="488.8"/>
			<line class="st16" x1="7" y1="490.5" x2="7" y2="487.1"/>
			<line class="st16" x1="15" y1="490.5" x2="15" y2="487.1"/>
		</g>
		<g>
			<line class="st16" x1="50.3" y1="478.8" x2="50.3" y2="484.8"/>
			<line class="st16" x1="48.8" y1="479.3" x2="51.8" y2="479.3"/>
			<line class="st16" x1="48.8" y1="485.3" x2="51.8" y2="485.3"/>
		</g>
		<g>
			<line class="st16" x1="95.3" y1="478.8" x2="95.3" y2="496.8"/>
			<line class="st16" x1="93.8" y1="479.3" x2="97.8" y2="479.3"/>
			<line class="st16" x1="93.8" y1="497.3" x2="97.8" y2="497.3"/>
		</g>
		<text transform="matrix(1 0 0 1 45.7091 474.7537)" class="st17 st18 st19">8px</text>
		<text transform="matrix(1 0 0 1 82.9054 504.6326)" class="st17 st18 st19">12px</text>
		<g>
			<text transform="matrix(1 0 0 1 99.711 490.451)" class="st17 st18 st19">28px</text>
		</g>
		<text transform="matrix(1 0 0 1 4.1602 505.1521)" class="st17 st18 st19">12px</text>
		<text transform="matrix(1 0 0 1 48.9239 503.0994)" class="st17 st18 st19">8px</text>
		<text transform="matrix(1 0 0 1 14.4288 491.5935)" class="st8 st20 st21">ROB MED 12PX</text>
	</g>
</g>
<g>
	<path class="st1" d="M14.2-103.9v-46.3c0-20.5,16.6-37.1,37.1-37.1h41.3"/>
	<circle class="st2" cx="47.9" cy="-153.4" r="41.8"/>
	<g>
		<line class="st3" x1="5.8" y1="-153.7" x2="47.8" y2="-153.7"/>
	</g>
	<text transform="matrix(1 0 0 1 19.5984 -156.935)" class="st4 st18" style="font-size:10.2452px;">2px</text>
	<circle class="st4" cx="48.1" cy="-153.7" r="1.8"/>
</g>
<circle class="st5" cx="161.8" cy="-76.2" r="0"/>
<g class="st6">
	<g>
		<path class="st7" d="M206.3-182.6h-4.9v8.5h-2.8v-21h6.9c2.4,0,4.2,0.5,5.5,1.6c1.3,1.1,1.9,2.6,1.9,4.7c0,1.3-0.4,2.4-1.1,3.4
			c-0.7,1-1.7,1.7-2.9,2.2l4.9,8.9v0.2h-3L206.3-182.6z M201.4-184.9h4.2c1.4,0,2.5-0.4,3.3-1.1c0.8-0.7,1.2-1.7,1.2-2.9
			c0-1.3-0.4-2.3-1.2-3c-0.8-0.7-1.9-1-3.3-1.1h-4.2V-184.9z"/>
		<path class="st7" d="M215.7-182.1c0-1.5,0.3-2.9,0.9-4.1c0.6-1.2,1.4-2.2,2.5-2.8c1.1-0.7,2.3-1,3.7-1c2.1,0,3.8,0.7,5.1,2.2
			s2,3.4,2,5.9v0.2c0,1.5-0.3,2.9-0.9,4.1c-0.6,1.2-1.4,2.1-2.5,2.8c-1.1,0.7-2.3,1-3.7,1c-2.1,0-3.8-0.7-5.1-2.2
			c-1.3-1.5-2-3.4-2-5.8V-182.1z M218.3-181.7c0,1.7,0.4,3.1,1.2,4.2c0.8,1,1.9,1.6,3.2,1.6c1.4,0,2.4-0.5,3.2-1.6
			c0.8-1.1,1.2-2.5,1.2-4.5c0-1.7-0.4-3.1-1.2-4.2c-0.8-1.1-1.9-1.6-3.2-1.6c-1.3,0-2.4,0.5-3.2,1.6S218.3-183.7,218.3-181.7z"/>
		<path class="st7" d="M246.4-181.7c0,2.4-0.5,4.3-1.6,5.7c-1.1,1.4-2.6,2.2-4.4,2.2c-2,0-3.5-0.7-4.6-2.1l-0.1,1.8h-2.4v-22.1h2.7
			v8.3c1.1-1.3,2.6-2,4.5-2c1.9,0,3.4,0.7,4.5,2.1c1.1,1.4,1.6,3.4,1.6,5.9V-181.7z M243.7-182c0-1.8-0.4-3.2-1.1-4.2
			c-0.7-1-1.7-1.5-3-1.5c-1.8,0-3,0.8-3.8,2.4v6.7c0.8,1.6,2.1,2.4,3.8,2.4c1.3,0,2.3-0.5,3-1.5C243.4-178.6,243.7-180.1,243.7-182z
			"/>
		<path class="st7" d="M249-182.1c0-1.5,0.3-2.9,0.9-4.1c0.6-1.2,1.4-2.2,2.5-2.8c1.1-0.7,2.3-1,3.7-1c2.1,0,3.8,0.7,5.2,2.2
			s2,3.4,2,5.9v0.2c0,1.5-0.3,2.9-0.9,4.1c-0.6,1.2-1.4,2.1-2.5,2.8c-1.1,0.7-2.3,1-3.7,1c-2.1,0-3.8-0.7-5.1-2.2
			c-1.3-1.5-2-3.4-2-5.8V-182.1z M251.7-181.7c0,1.7,0.4,3.1,1.2,4.2c0.8,1,1.9,1.6,3.2,1.6c1.4,0,2.4-0.5,3.2-1.6
			c0.8-1.1,1.2-2.5,1.2-4.5c0-1.7-0.4-3.1-1.2-4.2c-0.8-1.1-1.9-1.6-3.2-1.6c-1.3,0-2.4,0.5-3.2,1.6
			C252.1-185.2,251.7-183.7,251.7-181.7z"/>
		<path class="st7" d="M270.2-193.5v3.8h2.9v2.1h-2.9v9.7c0,0.6,0.1,1.1,0.4,1.4c0.3,0.3,0.7,0.5,1.3,0.5c0.3,0,0.7-0.1,1.3-0.2v2.1
			c-0.7,0.2-1.4,0.3-2,0.3c-1.2,0-2.1-0.4-2.7-1.1c-0.6-0.7-0.9-1.7-0.9-3.1v-9.7h-2.8v-2.1h2.8v-3.8H270.2z"/>
		<path class="st7" d="M275.2-182.1c0-1.5,0.3-2.9,0.9-4.1c0.6-1.2,1.4-2.2,2.5-2.8c1.1-0.7,2.3-1,3.7-1c2.1,0,3.8,0.7,5.2,2.2
			s2,3.4,2,5.9v0.2c0,1.5-0.3,2.9-0.9,4.1c-0.6,1.2-1.4,2.1-2.5,2.8c-1.1,0.7-2.3,1-3.7,1c-2.1,0-3.8-0.7-5.1-2.2
			c-1.3-1.5-2-3.4-2-5.8V-182.1z M277.9-181.7c0,1.7,0.4,3.1,1.2,4.2c0.8,1,1.9,1.6,3.2,1.6c1.4,0,2.4-0.5,3.2-1.6
			c0.8-1.1,1.2-2.5,1.2-4.5c0-1.7-0.4-3.1-1.2-4.2c-0.8-1.1-1.9-1.6-3.2-1.6c-1.3,0-2.4,0.5-3.2,1.6
			C278.3-185.2,277.9-183.7,277.9-181.7z"/>
		<path class="st3" d="M233.4-123.9h-23.3l-5.2,14.6h-7.6l21.2-55.6h6.4l21.3,55.6h-7.5L233.4-123.9z M212.3-129.9h18.9l-9.5-26
			L212.3-129.9z"/>
		<path class="st4" d="M278.1-109.4c-0.4-0.8-0.7-2.3-1-4.4c-3.3,3.4-7.2,5.1-11.8,5.1c-4.1,0-7.4-1.2-10-3.5
			c-2.6-2.3-3.9-5.2-3.9-8.8c0-4.3,1.6-7.6,4.9-10c3.3-2.4,7.9-3.6,13.8-3.6h6.9v-3.2c0-2.5-0.7-4.4-2.2-5.9
			c-1.5-1.5-3.7-2.2-6.5-2.2c-2.5,0-4.6,0.6-6.3,1.9c-1.7,1.3-2.6,2.8-2.6,4.6h-7.1c0-2.1,0.7-4.1,2.2-6c1.5-1.9,3.5-3.4,6-4.6
			c2.5-1.1,5.3-1.7,8.3-1.7c4.8,0,8.5,1.2,11.2,3.6c2.7,2.4,4.1,5.7,4.2,9.8v19c0,3.8,0.5,6.8,1.5,9.1v0.6H278.1z M266.4-114.7
			c2.2,0,4.3-0.6,6.3-1.7c2-1.1,3.4-2.6,4.3-4.5v-8.5h-5.5c-8.7,0-13,2.5-13,7.6c0,2.2,0.7,3.9,2.2,5.2
			C262.2-115.4,264.1-114.7,266.4-114.7z"/>
	</g>
</g>
<circle class="st5" cx="161.8" cy="88.8" r="0"/>
<g>
	<rect id="XMLID_40_" x="193.8" y="15.8" class="st8" width="49" height="35"/>
	<g id="XMLID_38_">
		<text transform="matrix(1 0 0 1 222.224 46.2278)" class="st9 st20" style="font-size:4.1776px;">#0d74d1</text>
	</g>
	<text id="XMLID_37_" transform="matrix(1 0 0 1 196.8587 25.3528)" class="st9 st20" style="font-size:4.1776px;">700 (primary)</text>
	<rect id="XMLID_36_" x="242.8" y="15.8" class="st10" width="49" height="35"/>
	<g id="XMLID_34_">
		<text transform="matrix(1 0 0 1 271.6586 46.2278)" class="st9 st20" style="font-size:4.1776px;">#F44336</text>
	</g>
	<text id="XMLID_33_" transform="matrix(1 0 0 1 245.7337 25.3528)" class="st9 st20" style="font-size:4.1776px;">500 (primary)</text>
	<rect id="XMLID_31_" x="193.8" y="50.8" class="st7" width="49" height="35"/>
	<g id="XMLID_23_">
		<text transform="matrix(1 0 0 1 222.223 80.4104)" class="st9 st20" style="font-size:4.1776px;">#4caf51</text>
	</g>
	<text id="XMLID_19_" transform="matrix(1 0 0 1 196.2982 59.5364)" class="st9 st20" style="font-size:4.1776px;">500 (primary)</text>
	<rect id="XMLID_16_" x="242.8" y="50.8" class="st11" width="49" height="35"/>
	<g id="XMLID_14_">
		<text transform="matrix(1 0 0 1 271.6586 80.4104)" class="st9 st20" style="font-size:4.1776px;">#f57c00</text>
	</g>
	<text id="XMLID_13_" transform="matrix(1 0 0 1 245.7337 59.5364)" class="st9 st20" style="font-size:4.1776px;">500 (primary)</text>
</g>
<rect x="352.4" y="-203.2" class="st0" width="99.7" height="99.7"/>
<g>
	<g>
		<path id="XMLID_1_" class="st15" d="M90.6,57.2H7.3c-0.7,0-1.3-0.6-1.3-1.3v-16c0-0.7,0.6-1.3,1.3-1.3h83.4c0.7,0,1.3,0.6,1.3,1.3
			v16C91.9,56.6,91.4,57.2,90.6,57.2z"/>
		<g>
			<line class="st16" x1="50.1" y1="51.9" x2="50.1" y2="57.2"/>
			<line class="st16" x1="48.4" y1="52.2" x2="51.7" y2="52.2"/>
			<line class="st16" x1="48.4" y1="56.8" x2="51.7" y2="56.8"/>
		</g>
		<g>
			<line class="st16" x1="83.8" y1="49.3" x2="91.8" y2="49.3"/>
			<line class="st16" x1="83.3" y1="50.8" x2="83.3" y2="46.8"/>
			<line class="st16" x1="91.3" y1="50.8" x2="91.3" y2="46.8"/>
		</g>
		<g>
			<line class="st16" x1="6.2" y1="48.8" x2="14.2" y2="48.8"/>
			<line class="st16" x1="6.5" y1="50.5" x2="6.5" y2="47.1"/>
			<line class="st16" x1="14.5" y1="50.5" x2="14.5" y2="47.1"/>
		</g>
		<g>
			<line class="st16" x1="50.3" y1="38.8" x2="50.3" y2="44.8"/>
			<line class="st16" x1="48.8" y1="39.3" x2="51.8" y2="39.3"/>
			<line class="st16" x1="48.8" y1="45.3" x2="51.8" y2="45.3"/>
		</g>
		<text transform="matrix(1 0 0 1 45.2293 34.7537)" class="st17 st18 st19">8px</text>
		<text transform="matrix(1 0 0 1 82.4256 64.6326)" class="st17 st18 st19">12px</text>
		<text transform="matrix(1 0 0 1 3.6805 65.1521)" class="st17 st18 st19">12px</text>
		<text transform="matrix(1 0 0 1 48.4441 63.0994)" class="st17 st18 st19">8px</text>
		<text transform="matrix(1 0 0 1 13.949 51.5935)" class="st8 st20 st21">ROB MED 12PX</text>
	</g>
</g>
<g>
	<text transform="matrix(1 0 0 1 357.1631 -161.6733)" class="st22" style="font-family:'Roboto-Bold'; font-size:28px;">Place</text>
</g>
<text transform="matrix(1 0 0 1 357.1631 -122.0775)" class="st23" style="font-family:'Roboto-Bold'; font-size:28px;">Holder</text>
</svg>
