<?xml version="1.0" encoding="utf-8"?>
<!-- Generator: Adobe Illustrator 19.2.1, SVG Export Plug-In . SVG Version: 6.00 Build 0)  -->
<svg version="1.1" id="Layer_1" xmlns="http://www.w3.org/2000/svg" xmlns:xlink="http://www.w3.org/1999/xlink" x="0px" y="0px"
	 viewBox="0 0 287.2 119.5" style="enable-background:new 0 0 287.2 119.5;" xml:space="preserve">
<style type="text/css">
	.st0{fill:#C42126;}
	.st1{fill:#FFFFFF;}
</style>
<rect class="st0" width="173.2" height="119.5"/>
<g>
	<path class="st1" d="M191.9,36.7h14.2v29.4c0,9.6,2.5,13,8.1,13c5.6,0,8.3-3.5,8.3-13V36.7h13.7v27.7c0,18.3-6.9,26.9-21.9,26.9
		c-15,0-22.3-8.6-22.3-26.9V36.7z"/>
	<path class="st1" d="M247.7,36.7h14.2v53.6h-14.2V36.7z"/>
</g>
<g>
	<g>
		<path class="st1" d="M55.9,90.3l-14.7-25H29.7v25h-3.8V36h15.5c10.8,0,17.9,4,17.9,14.4c0,8.7-5.4,13.6-13.9,14.8l14.9,25.2H55.9z
			 M40.4,62.2c9.7,0,14.9-3.9,14.9-11.9c0-8.2-5.3-11.1-14.9-11.1H29.7v23H40.4z"/>
		<path class="st1" d="M71.5,36h29.7v3.3H75.3v20.5h21.8v3.3H75.3V87h26.7v3.3H71.5V36z"/>
		<path class="st1" d="M113.4,36h12.5c16.7,0,24.8,10.6,24.8,27c0,16.5-8,27.4-24.7,27.4h-12.6V36z M125.5,87.1
			c14.8,0,21.2-10,21.2-24.2c0-14.1-6.4-23.8-21.2-23.8h-8.3v47.9H125.5z"/>
	</g>
</g>
</svg>
