<?xml version="1.0" encoding="utf-8"?>
<!-- Generator: Adobe Illustrator 19.2.1, SVG Export Plug-In . SVG Version: 6.00 Build 0)  -->
<svg version="1.1" id="Layer_1" xmlns="http://www.w3.org/2000/svg" xmlns:xlink="http://www.w3.org/1999/xlink" x="0px" y="0px"
	 viewBox="0 0 1173 248" style="enable-background:new 0 0 1173 248;" xml:space="preserve">
<style type="text/css">
	.st0{fill:#BCBCBC;}
	.st1{fill:#212121;}
	.st2{fill:#FFFFFF;stroke:#BCBCBC;stroke-miterlimit:10;}
	.st3{fill:#3073BA;}
	.st4{fill:#FFFFFF;}
	.st5{fill:none;stroke:#3073BA;stroke-miterlimit:10;}
	.st6{fill:#5588C6;}
	.st7{fill:none;stroke:#5588C6;stroke-miterlimit:10;}
	.st8{fill:#154A9F;}
	.st9{fill:#BEDDF4;stroke:#154A9F;stroke-miterlimit:10;}
	.st10{fill:#FFFFFF;stroke:#BDBDBD;stroke-miterlimit:10;}
	.st11{fill:#BDBDBD;}
	.st12{fill:none;}
	.st13{font-family:'Roboto-Medium';}
	.st14{font-size:12px;}
	.st15{fill:#D8D9D8;}
	.st16{fill:none;stroke:#BDBDBD;stroke-miterlimit:10;}
	.st17{fill:#9C9C9D;}
	.st18{font-family:'Roboto-Regular';}
	.st19{font-size:10px;}
	.st20{fill:none;stroke:#B954A0;stroke-miterlimit:10;}
	.st21{fill:#B954A0;}
	.st22{fill:#3073BA;stroke:#3073BA;stroke-miterlimit:10;}
	.st23{fill:#5588C6;stroke:#5588C6;stroke-miterlimit:10;}
	.st24{fill:#154A9F;stroke:#154A9F;stroke-miterlimit:10;}
	.st25{font-size:9px;}
	.st26{font-size:15px;}
	.st27{fill:none;stroke:#BCBCBC;stroke-miterlimit:10;}
	.st28{opacity:0.87;}
	.st29{opacity:0.87;fill:#333333;}
	.st30{fill:#767677;}
</style>
<text transform="matrix(1 0 0 1 729.7781 486.4263)" class="st0 st13" style="font-size:11px;">Rob Med 11PX</text>
<g>
	<text transform="matrix(1 0 0 1 96.9846 -460.3511)" class="st1" style="font-family:'Roboto-Light'; font-size:49px;">Buttons</text>
</g>
<path class="st2" d="M326.5,689.5h-220c-1.1,0-2-0.9-2-2v-24c0-1.1,0.9-2,2-2h220c1.1,0,2,0.9,2,2v24
	C328.5,688.6,327.6,689.5,326.5,689.5z"/>
<text transform="matrix(1 0 0 1 112.7761 680.4941)" class="st0" style="font-family:'Roboto-Italic'; font-size:13px;">Example placer text</text>
<path class="st2" d="M622.5,687.5H351.4c-1.1,0-2-0.9-2-2v-24.1c0-1.1,0.9-2,2-2h271.1c1.1,0,2,0.9,2,2v24.1
	C624.5,686.6,623.6,687.5,622.5,687.5z"/>
<text transform="matrix(1 0 0 1 357.7761 678.4941)" class="st0" style="font-family:'Roboto-Italic'; font-size:13px;">No file selected</text>
<path class="st3" d="M333.2-293.6H190c-1.1,0-2-0.9-2-2v-36c0-1.1,0.9-2,2-2h143.3c1.1,0,2,0.9,2,2v36
	C335.2-294.5,334.3-293.6,333.2-293.6z"/>
<rect x="176" y="-319.3" class="st12" width="170.3" height="13"/>
<text transform="matrix(1 0 0 1 199.7832 -308.0076)" class="st4 st13 st26">primary action</text>
<path class="st5" d="M564.1-293.7H379.6c-1.2,0-2.1-1-2.1-2.1v-35.4c0-1.2,1-2.1,2.1-2.1h184.5c1.2,0,2.1,1,2.1,2.1v35.4
	C566.2-294.7,565.3-293.7,564.1-293.7z"/>
<rect x="382.8" y="-319.3" class="st12" width="170.3" height="13"/>
<text transform="matrix(1 0 0 1 395.7075 -308.0076)" class="st3 st13 st26">secondary action</text>
<path class="st6" d="M333.2-239.3H190c-1.1,0-2-0.9-2-2v-36c0-1.1,0.9-2,2-2h143.3c1.1,0,2,0.9,2,2v36
	C335.2-240.2,334.3-239.3,333.2-239.3z"/>
<rect x="176" y="-265" class="st12" width="170.3" height="13"/>
<text transform="matrix(1 0 0 1 199.7832 -253.75)" class="st4 st13 st26">primary action</text>
<path class="st7" d="M564.1-239.5H379.6c-1.2,0-2.1-1-2.1-2.1V-277c0-1.2,1-2.1,2.1-2.1h184.5c1.2,0,2.1,1,2.1,2.1v35.4
	C566.2-240.4,565.3-239.5,564.1-239.5z"/>
<rect x="382.8" y="-265" class="st12" width="170.3" height="13"/>
<text transform="matrix(1 0 0 1 395.7075 -253.75)" class="st6 st13 st26">secondary action</text>
<path class="st8" d="M333.2-185.1H190c-1.1,0-2-0.9-2-2v-36c0-1.1,0.9-2,2-2h143.3c1.1,0,2,0.9,2,2v36
	C335.2-186,334.3-185.1,333.2-185.1z"/>
<rect x="176" y="-210.7" class="st12" width="170.3" height="13"/>
<text transform="matrix(1 0 0 1 199.7832 -199.4924)" class="st4 st13 st26">primary action</text>
<path class="st9" d="M564.1-185.2H379.6c-1.2,0-2.1-1-2.1-2.1v-35.4c0-1.2,1-2.1,2.1-2.1h184.5c1.2,0,2.1,1,2.1,2.1v35.4
	C566.2-186.2,565.3-185.2,564.1-185.2z"/>
<g>
	<rect x="382.8" y="-210.7" class="st12" width="170.3" height="13"/>
	<text transform="matrix(1 0 0 1 395.7075 -199.4924)" class="st8 st13 st26">secondary action</text>
</g>
<path class="st10" d="M564.1-133.9H379.6c-1.2,0-2.1-1-2.1-2.1v-35.4c0-1.2,1-2.1,2.1-2.1h184.5c1.2,0,2.1,1,2.1,2.1v35.4
	C566.2-134.9,565.3-133.9,564.1-133.9z"/>
<g>
	<rect x="382.8" y="-159.4" class="st12" width="170.3" height="13"/>
	<text transform="matrix(1 0 0 1 395.7075 -148.1846)" class="st11 st13 st26">secondary action</text>
</g>
<path class="st3" d="M273.5,74.1h-88.8c-1.1,0-2-0.9-2-2v-24c0-1.1,0.9-2,2-2h88.8c1.1,0,2,0.9,2,2v24
	C275.5,73.2,274.6,74.1,273.5,74.1z"/>
<path class="st6" d="M273.5,112.9h-88.8c-1.1,0-2-0.9-2-2v-24c0-1.1,0.9-2,2-2h88.8c1.1,0,2,0.9,2,2v24
	C275.5,112,274.6,112.9,273.5,112.9z"/>
<rect x="193.9" y="94.3" class="st12" width="66.2" height="13"/>
<text transform="matrix(1 0 0 1 201.0991 103.2637)" class="st4 st13 st14">primary</text>
<path class="st8" d="M273.5,151.8h-88.8c-1.1,0-2-0.9-2-2v-24c0-1.1,0.9-2,2-2h88.8c1.1,0,2,0.9,2,2v24
	C275.5,150.9,274.6,151.8,273.5,151.8z"/>
<rect x="193.9" y="133.2" class="st12" width="66.2" height="13"/>
<text transform="matrix(1 0 0 1 201.0991 142.1559)" class="st4 st13 st14">primary</text>
<path class="st15" d="M273.5,190.8h-88.8c-1.1,0-2-0.9-2-2v-24c0-1.1,0.9-2,2-2h88.8c1.1,0,2,0.9,2,2v24
	C275.5,189.9,274.6,190.8,273.5,190.8z"/>
<rect x="193.9" y="172.1" class="st12" width="66.2" height="13"/>
<text transform="matrix(1 0 0 1 201.0991 181.0902)" class="st4 st13 st14">primary</text>
<path class="st5" d="M416,74.1H315.6c-1.1,0-2-0.9-2-2v-24c0-1.1,0.9-2,2-2H416c1.1,0,2,0.9,2,2v24C418,73.2,417.1,74.1,416,74.1z"
	/>
<g>
	<rect x="321.8" y="55.4" class="st12" width="89.2" height="13"/>
	<text transform="matrix(1 0 0 1 331.7519 64.4265)" class="st3 st13 st14">secondary</text>
</g>
<path class="st7" d="M416,114.1H315.6c-1.1,0-2-0.9-2-2v-24c0-1.1,0.9-2,2-2H416c1.1,0,2,0.9,2,2v24
	C418,113.2,417.1,114.1,416,114.1z"/>
<g>
	<rect x="321.8" y="95.4" class="st12" width="86.1" height="13"/>
	<text transform="matrix(1 0 0 1 330.1943 104.432)" class="st6 st13 st14">secondary</text>
</g>
<path class="st9" d="M416,153.1H315.6c-1.1,0-2-0.9-2-2v-24c0-1.1,0.9-2,2-2H416c1.1,0,2,0.9,2,2v24
	C418,152.2,417.1,153.1,416,153.1z"/>
<g>
	<rect x="321.8" y="134.4" class="st12" width="89.2" height="13"/>
	<text transform="matrix(1 0 0 1 331.7519 143.4375)" class="st8 st13 st14">secondary</text>
</g>
<path class="st10" d="M416,190H315.6c-1.1,0-2-0.9-2-2v-24c0-1.1,0.9-2,2-2H416c1.1,0,2,0.9,2,2v24C418,189.1,417.1,190,416,190z"/>
<g>
	<rect x="321.8" y="171.3" class="st12" width="89.2" height="13"/>
	<text transform="matrix(1 0 0 1 331.7519 180.3348)" class="st11 st13 st14">secondary</text>
</g>
<path class="st3" d="M259,378.3h-74.2c-1.1,0-2-0.9-2-2v-16.9c0-1.1,0.9-2,2-2H259c1.1,0,2,0.9,2,2v16.9
	C261,377.4,260.1,378.3,259,378.3z"/>
<rect x="193.9" y="363.1" class="st12" width="55.6" height="13"/>
<text transform="matrix(1 0 0 1 197.9428 371.3954)" class="st4 st13" style="font-size:11px;">Primary</text>
<path class="st6" d="M259,407.8h-74.3c-1.1,0-2-0.9-2-2v-16c0-1.1,0.9-2,2-2H259c1.1,0,2,0.9,2,2v16
	C261,406.9,260.1,407.8,259,407.8z"/>
<rect x="193.9" y="393.2" class="st12" width="55.6" height="13"/>
<text transform="matrix(1 0 0 1 197.9428 401.4014)" class="st4 st13" style="font-size:11px;">Primary</text>
<path class="st8" d="M259,437.8h-74.3c-1.1,0-2-0.9-2-2v-16c0-1.1,0.9-2,2-2H259c1.1,0,2,0.9,2,2v16
	C261,436.9,260.1,437.8,259,437.8z"/>
<rect x="193.9" y="423.2" class="st12" width="55.6" height="13"/>
<text transform="matrix(1 0 0 1 197.9428 431.4065)" class="st4 st13" style="font-size:11px;">Primary</text>
<path class="st5" d="M392.6,379.3h-80.6c-1.1,0-2-0.9-2-2v-16c0-1.1,0.9-2,2-2h80.6c1.1,0,2,0.9,2,2v16
	C394.6,378.4,393.7,379.3,392.6,379.3z"/>
<g>
	<rect x="313.6" y="364.7" class="st12" width="77.9" height="13"/>
	<text transform="matrix(1 0 0 1 320.7229 372.9009)" class="st3 st13" style="font-size:11px;">Secondary</text>
</g>
<path class="st7" d="M392.6,409.3h-80.6c-1.1,0-2-0.9-2-2v-16c0-1.1,0.9-2,2-2h80.6c1.1,0,2,0.9,2,2v16
	C394.6,408.4,393.7,409.3,392.6,409.3z"/>
<g>
	<rect x="313.6" y="394.7" class="st12" width="77.9" height="13"/>
	<text transform="matrix(1 0 0 1 320.7229 402.9069)" class="st6 st13" style="font-size:11px;">Secondary</text>
</g>
<path class="st9" d="M392.6,439.3h-80.6c-1.1,0-2-0.9-2-2v-16c0-1.1,0.9-2,2-2h80.6c1.1,0,2,0.9,2,2v16
	C394.6,438.4,393.7,439.3,392.6,439.3z"/>
<g>
	<rect x="313.6" y="424.7" class="st12" width="77.9" height="13"/>
	<text transform="matrix(1 0 0 1 320.7229 432.912)" class="st8 st13" style="font-size:11px;">Secondary</text>
</g>
<path class="st15" d="M259,468.8h-74.3c-1.1,0-2-0.9-2-2v-16c0-1.1,0.9-2,2-2H259c1.1,0,2,0.9,2,2v16
	C261,467.9,260.1,468.8,259,468.8z"/>
<rect x="193.9" y="454.2" class="st12" width="55.6" height="13"/>
<text transform="matrix(1 0 0 1 197.9428 462.4065)" class="st4 st13" style="font-size:11px;">Primary</text>
<path class="st16" d="M392.6,470.3h-80.6c-1.1,0-2-0.9-2-2v-16c0-1.1,0.9-2,2-2h80.6c1.1,0,2,0.9,2,2v16
	C394.6,469.4,393.7,470.3,392.6,470.3z"/>
<g>
	<rect x="313.6" y="455.7" class="st12" width="77.9" height="13"/>
	<text transform="matrix(1 0 0 1 320.7229 463.912)" class="st11 st13" style="font-size:11px;">Secondary</text>
</g>
<text transform="matrix(1 0 0 1 102.4995 -309.0076)" class="st17 st18 st19">Default</text>
<text transform="matrix(1 0 0 1 102.4995 64.103)" class="st17 st18 st19">Default</text>
<text transform="matrix(1 0 0 1 102.4995 373.1216)" class="st17 st18 st19">Default</text>
<text transform="matrix(1 0 0 1 102.4995 -258.5117)" class="st17 st18 st19">Hover</text>
<text transform="matrix(1 0 0 1 102.4995 108.4082)" class="st17 st18 st19">Hover</text>
<text transform="matrix(1 0 0 1 102.4995 399.5391)" class="st17 st18 st19">Hover</text>
<text transform="matrix(1 0 0 1 102.4995 -204.2542)" class="st17 st18 st19">Press</text>
<text transform="matrix(1 0 0 1 102.4995 141.9253)" class="st17 st18 st19">Press</text>
<text transform="matrix(1 0 0 1 102.4995 433.1328)" class="st17 st18 st19">Press</text>
<path class="st15" d="M333.2-133.8H190c-1.1,0-2-0.9-2-2v-36c0-1.1,0.9-2,2-2h143.3c1.1,0,2,0.9,2,2v36
	C335.2-134.6,334.3-133.8,333.2-133.8z"/>
<rect x="176" y="-159.4" class="st12" width="170.3" height="13"/>
<text transform="matrix(1 0 0 1 199.7832 -148.1846)" class="st4 st13 st26">primary action</text>
<text transform="matrix(1 0 0 1 102.4995 -152.9463)" class="st17 st18 st19">Disabled</text>
<text transform="matrix(1 0 0 1 102.4995 179.3372)" class="st17 st18 st19">Disabled</text>
<text transform="matrix(1 0 0 1 102.4995 464.1331)" class="st17 st18 st19">Disabled</text>
<path id="XMLID_52_" class="st2" d="M873-151.5H689.5c-1.1,0-2-0.9-2-2v-46.9c0-1.1,0.9-2,2-2H873c1.1,0,2,0.9,2,2v46.9
	C875-152.4,874.1-151.5,873-151.5z"/>
<text transform="matrix(1 0 0 1 602.4993 -177.3438)" class="st17 st18 st19">Button Spec</text>
<text transform="matrix(1 0 0 1 604.0002 139.9148)" class="st17 st18 st19">Button Spec</text>
<g>
	<line class="st20" x1="779.5" y1="-171" x2="779.5" y2="-152"/>
	<line class="st20" x1="777" y1="-171.5" x2="782" y2="-171.5"/>
	<line class="st20" x1="777" y1="-152.5" x2="782" y2="-152.5"/>
</g>
<g>
	<line class="st20" x1="836" y1="-178.5" x2="875" y2="-178.5"/>
	<line class="st20" x1="836.5" y1="-176" x2="836.5" y2="-181"/>
	<line class="st20" x1="874.5" y1="-176" x2="874.5" y2="-181"/>
</g>
<g>
	<line class="st20" x1="688" y1="-178.5" x2="727" y2="-178.5"/>
	<line class="st20" x1="688.5" y1="-176" x2="688.5" y2="-181"/>
	<line class="st20" x1="726.5" y1="-176" x2="726.5" y2="-181"/>
</g>
<g>
	<line class="st20" x1="779.5" y1="-201" x2="779.5" y2="-183"/>
	<line class="st20" x1="777" y1="-201.5" x2="782" y2="-201.5"/>
	<line class="st20" x1="777" y1="-183.5" x2="782" y2="-183.5"/>
</g>
<g>
	<line class="st20" x1="883.5" y1="-202" x2="883.5" y2="-151"/>
	<line class="st20" x1="881" y1="-202.5" x2="887" y2="-202.5"/>
	<line class="st20" x1="881" y1="-151.5" x2="887" y2="-151.5"/>
</g>
<text transform="matrix(1 0 0 1 783.1907 -189.5)" class="st21 st18 st25">12px</text>
<text transform="matrix(1 0 0 1 848.9407 -183.4114)" class="st21 st18 st25">14px</text>
<g>
	<text transform="matrix(1 0 0 1 887.3577 -176.3298)" class="st21 st18 st25">40px</text>
</g>
<text transform="matrix(1 0 0 1 697.428 -183.4114)" class="st21 st18 st25">14px</text>
<text transform="matrix(1 0 0 1 783.1907 -158)" class="st21 st18 st25">12px</text>
<text transform="matrix(1 0 0 1 603.4993 482.333)" class="st17 st18 st19">Button Spec</text>
<path class="st22" d="M620.7,687.5h-89.2v-28h89.2c2.1,0,3.8,1.7,3.8,3.8v20.4C624.5,685.8,622.8,687.5,620.7,687.5z"/>
<g>
	<text transform="matrix(1 0 0 1 562.9844 677.6528)" class="st4 st13 st14">Attach</text>
</g>
<path class="st4" d="M548.1,667.2c0.9,0.1,1.7,0.4,2.3,1c1.7,1.7,3.4,3.4,5.2,5.2c0.3,0.3,0.1,0.5-0.1,0.7c-0.3,0.3-0.4,0.3-0.7,0.1
	c-1.7-1.7-3.3-3.3-5-5c-0.6-0.6-1.4-0.9-2.3-0.7c-1.5,0.4-2.1,2.2-1.1,3.4c0.1,0.1,0.2,0.2,0.3,0.4c2.1,2.1,4.3,4.3,6.4,6.4
	c0.2,0.2,0.4,0.4,0.6,0.5c0.6,0.3,1.2,0.2,1.6-0.2c0.4-0.4,0.5-1.1,0.2-1.6c-0.1-0.2-0.3-0.4-0.5-0.6c-1.6-1.6-3.2-3.2-4.8-4.8
	c-0.1-0.1-0.3-0.3-0.5-0.3c-0.2,0-0.5,0-0.6,0.2c-0.1,0.1-0.1,0.4,0,0.6c0,0.1,0.2,0.3,0.3,0.4c1.1,1.1,2.1,2.1,3.2,3.2
	c0.3,0.3,0.3,0.4,0,0.7c-0.3,0.3-0.4,0.4-0.7,0c-1.1-1.1-2.2-2.2-3.3-3.3c-0.5-0.5-0.7-1-0.6-1.7c0.2-1.2,1.7-1.7,2.7-1
	c0.1,0.1,0.2,0.1,0.2,0.2c1.6,1.6,3.3,3.3,4.9,4.9c0.6,0.6,0.9,1.3,0.9,2.1c0,1.8-1.8,2.8-3.5,2c-0.3-0.2-0.6-0.4-0.9-0.6
	c-2.2-2.2-4.4-4.4-6.6-6.6c-1.6-1.7-1.2-4.3,0.9-5.3C547.1,667.4,547.6,667.3,548.1,667.2z"/>
<path class="st2" d="M622.5,736.5H351.4c-1.1,0-2-0.9-2-2v-24.1c0-1.1,0.9-2,2-2h271.1c1.1,0,2,0.9,2,2v24.1
	C624.5,735.6,623.6,736.5,622.5,736.5z"/>
<text transform="matrix(1 0 0 1 357.7761 727.4941)" class="st0" style="font-family:'Roboto-Italic'; font-size:13px;">No file selected</text>
<path class="st23" d="M620.7,736.5h-89.2v-28h89.2c2.1,0,3.8,1.7,3.8,3.8v20.4C624.5,734.8,622.8,736.5,620.7,736.5z"/>
<g>
	<text transform="matrix(1 0 0 1 562.9844 726.6528)" class="st4 st13 st14">ATTACH</text>
</g>
<path class="st4" d="M548.1,716.2c0.9,0.1,1.7,0.4,2.3,1c1.7,1.7,3.4,3.4,5.2,5.2c0.3,0.3,0.1,0.5-0.1,0.7c-0.3,0.3-0.4,0.3-0.7,0.1
	c-1.7-1.7-3.3-3.3-5-5c-0.6-0.6-1.4-0.9-2.3-0.7c-1.5,0.4-2.1,2.2-1.1,3.4c0.1,0.1,0.2,0.2,0.3,0.4c2.1,2.1,4.3,4.3,6.4,6.4
	c0.2,0.2,0.4,0.4,0.6,0.5c0.6,0.3,1.2,0.2,1.6-0.2c0.4-0.4,0.5-1.1,0.2-1.6c-0.1-0.2-0.3-0.4-0.5-0.6c-1.6-1.6-3.2-3.2-4.8-4.8
	c-0.1-0.1-0.3-0.3-0.5-0.3c-0.2,0-0.5,0-0.6,0.2c-0.1,0.1-0.1,0.4,0,0.6c0,0.1,0.2,0.3,0.3,0.4c1.1,1.1,2.1,2.1,3.2,3.2
	c0.3,0.3,0.3,0.4,0,0.7c-0.3,0.3-0.4,0.4-0.7,0c-1.1-1.1-2.2-2.2-3.3-3.3c-0.5-0.5-0.7-1-0.6-1.7c0.2-1.2,1.7-1.7,2.7-1
	c0.1,0.1,0.2,0.1,0.2,0.2c1.6,1.6,3.3,3.3,4.9,4.9c0.6,0.6,0.9,1.3,0.9,2.1c0,1.8-1.8,2.8-3.5,2c-0.3-0.2-0.6-0.4-0.9-0.6
	c-2.2-2.2-4.4-4.4-6.6-6.6c-1.6-1.7-1.2-4.3,0.9-5.3C547.1,716.4,547.6,716.3,548.1,716.2z"/>
<path class="st2" d="M622.5,785.5H351.4c-1.1,0-2-0.9-2-2v-24.1c0-1.1,0.9-2,2-2h271.1c1.1,0,2,0.9,2,2v24.1
	C624.5,784.6,623.6,785.5,622.5,785.5z"/>
<text transform="matrix(1 0 0 1 357.7761 776.4941)" class="st0" style="font-family:'Roboto-Italic'; font-size:13px;">No file selected</text>
<path class="st24" d="M620.7,785.5h-89.2v-28h89.2c2.1,0,3.8,1.7,3.8,3.8v20.4C624.5,783.8,622.8,785.5,620.7,785.5z"/>
<text transform="matrix(1 0 0 1 562.9844 775.6528)" class="st4 st13 st14">ATTACH</text>
<path class="st4" d="M548.1,765.2c0.9,0.1,1.7,0.4,2.3,1c1.7,1.7,3.4,3.4,5.2,5.2c0.3,0.3,0.1,0.5-0.1,0.7c-0.3,0.3-0.4,0.3-0.7,0.1
	c-1.7-1.7-3.3-3.3-5-5c-0.6-0.6-1.4-0.9-2.3-0.7c-1.5,0.4-2.1,2.2-1.1,3.4c0.1,0.1,0.2,0.2,0.3,0.4c2.1,2.1,4.3,4.3,6.4,6.4
	c0.2,0.2,0.4,0.4,0.6,0.5c0.6,0.3,1.2,0.2,1.6-0.2c0.4-0.4,0.5-1.1,0.2-1.6c-0.1-0.2-0.3-0.4-0.5-0.6c-1.6-1.6-3.2-3.2-4.8-4.8
	c-0.1-0.1-0.3-0.3-0.5-0.3c-0.2,0-0.5,0-0.6,0.2c-0.1,0.1-0.1,0.4,0,0.6c0,0.1,0.2,0.3,0.3,0.4c1.1,1.1,2.1,2.1,3.2,3.2
	c0.3,0.3,0.3,0.4,0,0.7c-0.3,0.3-0.4,0.4-0.7,0c-1.1-1.1-2.2-2.2-3.3-3.3c-0.5-0.5-0.7-1-0.6-1.7c0.2-1.2,1.7-1.7,2.7-1
	c0.1,0.1,0.2,0.1,0.2,0.2c1.6,1.6,3.3,3.3,4.9,4.9c0.6,0.6,0.9,1.3,0.9,2.1c0,1.8-1.8,2.8-3.5,2c-0.3-0.2-0.6-0.4-0.9-0.6
	c-2.2-2.2-4.4-4.4-6.6-6.6c-1.6-1.7-1.2-4.3,0.9-5.3C547.1,765.4,547.6,765.3,548.1,765.2z"/>
<path id="XMLID_51_" class="st22" d="M324.5,689.5h-59v-28h59c2.2,0,4,1.8,4,4v20C328.5,687.7,326.7,689.5,324.5,689.5z"/>
<g>
	<text transform="matrix(1 0 0 1 273.9841 680.4055)" class="st4 st13 st14">Action</text>
</g>
<path class="st2" d="M326.5,736.5h-220c-1.1,0-2-0.9-2-2v-24c0-1.1,0.9-2,2-2h220c1.1,0,2,0.9,2,2v24
	C328.5,735.6,327.6,736.5,326.5,736.5z"/>
<text transform="matrix(1 0 0 1 112.7761 727.4941)" class="st0" style="font-family:'Roboto-Italic'; font-size:13px;">Example placer text</text>
<path id="XMLID_50_" class="st23" d="M324.5,736.5h-59v-28h59c2.2,0,4,1.8,4,4v20C328.5,734.7,326.7,736.5,324.5,736.5z"/>
<g>
	<text transform="matrix(1 0 0 1 275.0842 727.6055)" class="st4 st13 st14">Action</text>
</g>
<path class="st2" d="M326.5,781.4h-220c-1.1,0-2-0.9-2-2v-24c0-1.1,0.9-2,2-2h220c1.1,0,2,0.9,2,2v24
	C328.5,780.5,327.6,781.4,326.5,781.4z"/>
<text transform="matrix(1 0 0 1 112.7761 772.3669)" class="st0" style="font-family:'Roboto-Italic'; font-size:13px;">Example placer text</text>
<path id="XMLID_49_" class="st24" d="M324.5,781.4h-59v-28h59c2.2,0,4,1.8,4,4v20C328.5,779.6,326.7,781.4,324.5,781.4z"/>
<g>
	<text transform="matrix(1 0 0 1 274.9841 772.4783)" class="st4 st13 st14">Action</text>
</g>
<text transform="matrix(1 0 0 1 725.7454 -172.275)" class="st0 st13" style="font-size:16px;">ROB MED 16PX</text>
<path id="XMLID_47_" class="st2" d="M840.4,181.1H715.2c-1.1,0-2-0.9-2-2v-24.1c0-1.1,0.9-2,2-2h125.3c1.1,0,2,0.9,2,2v24.1
	C842.4,180.2,841.5,181.1,840.4,181.1z"/>
<g>
	<line class="st20" x1="779.5" y1="173.1" x2="779.5" y2="181.1"/>
	<line class="st20" x1="777" y1="173.7" x2="782" y2="173.7"/>
	<line class="st20" x1="777" y1="180.5" x2="782" y2="180.5"/>
</g>
<g>
	<line class="st20" x1="829" y1="168.5" x2="841" y2="168.5"/>
	<line class="st20" x1="829.5" y1="171" x2="829.5" y2="166"/>
	<line class="st20" x1="841.5" y1="171" x2="841.5" y2="166"/>
</g>
<g>
	<line class="st20" x1="713.6" y1="168.5" x2="725.6" y2="168.5"/>
	<line class="st20" x1="714.1" y1="171" x2="714.1" y2="166"/>
	<line class="st20" x1="726.1" y1="171" x2="726.1" y2="166"/>
</g>
<g>
	<line class="st20" x1="779.5" y1="154" x2="779.5" y2="162"/>
	<line class="st20" x1="777" y1="153.5" x2="782" y2="153.5"/>
	<line class="st20" x1="777" y1="161.5" x2="782" y2="161.5"/>
</g>
<g>
	<line class="st20" x1="847.5" y1="154" x2="847.5" y2="181"/>
	<line class="st20" x1="845" y1="153.5" x2="851" y2="153.5"/>
	<line class="st20" x1="845" y1="180.5" x2="851" y2="180.5"/>
</g>
<text transform="matrix(1 0 0 1 772.2185 147.4141)" class="st21 st18 st25">8px</text>
<text transform="matrix(1 0 0 1 828.1072 192.3081)" class="st21 st18 st25">12px</text>
<g>
	<text transform="matrix(1 0 0 1 853.3577 171.0002)" class="st21 st18 st25">28px</text>
</g>
<text transform="matrix(1 0 0 1 709.7915 193.0886)" class="st21 st18 st25">12px</text>
<text transform="matrix(1 0 0 1 777.0508 190.0039)" class="st21 st18 st25">8px</text>
<text transform="matrix(1 0 0 1 725.219 172.7167)" class="st0 st13 st26">ROB MED 12PX</text>
<path id="XMLID_46_" class="st27" d="M813,491.5h-90.5c-1.1,0-2-0.9-2-2V476c0-1.1,0.9-2,2-2H813c1.1,0,2,0.9,2,2v13.5
	C815,490.6,814.1,491.5,813,491.5z"/>
<g>
	<line class="st20" x1="721" y1="481.5" x2="730" y2="481.5"/>
	<line class="st20" x1="721.5" y1="484" x2="721.5" y2="479"/>
	<line class="st20" x1="729.5" y1="484" x2="729.5" y2="479"/>
</g>
<g>
	<line class="st20" x1="806" y1="481.5" x2="815" y2="481.5"/>
	<line class="st20" x1="806.5" y1="484" x2="806.5" y2="479"/>
	<line class="st20" x1="814.5" y1="484" x2="814.5" y2="479"/>
</g>
<g>
	<line class="st20" x1="767.5" y1="474" x2="767.5" y2="480"/>
	<line class="st20" x1="765" y1="474.5" x2="770" y2="474.5"/>
	<line class="st20" x1="765" y1="479.5" x2="770" y2="479.5"/>
</g>
<g>
	<line class="st20" x1="819.3" y1="474.4" x2="819.3" y2="491.7"/>
	<line class="st20" x1="816.8" y1="473.8" x2="822.8" y2="473.8"/>
	<line class="st20" x1="816.8" y1="491.1" x2="822.8" y2="491.1"/>
</g>
<text transform="matrix(1 0 0 1 760.468 472.167)" class="st21 st18 st25">5px</text>
<g>
	<line class="st20" x1="767.5" y1="486" x2="767.5" y2="492"/>
	<line class="st20" x1="765" y1="486.5" x2="770" y2="486.5"/>
	<line class="st20" x1="765" y1="491.5" x2="770" y2="491.5"/>
</g>
<text transform="matrix(1 0 0 1 760.218 499.5127)" class="st21 st18 st25">5px</text>
<text transform="matrix(1 0 0 1 796.6917 502)" class="st21 st18 st25">10px</text>
<g>
	<text transform="matrix(1 0 0 1 825.6909 486.5)" class="st21 st18 st25">21px</text>
</g>
<text transform="matrix(1 0 0 1 715.6914 502)" class="st21 st18 st25">10px</text>
<g id="XMLID_41_" class="st28">
	<text transform="matrix(1 0 0 1 100.5432 -390.7457)" class="st29 st13" style="font-size:21px;">Large Button</text>
</g>
<g id="XMLID_39_" class="st28">
	<text transform="matrix(1 0 0 1 102.5432 -10.0002)" class="st29 st13" style="font-size:21px;">Standard Button</text>
</g>
<g id="XMLID_11_" class="st28">
	<text transform="matrix(1 0 0 1 98.5432 308.8109)" class="st29 st13" style="font-size:21px;">Small Button</text>
</g>
<g id="XMLID_8_" class="st28">
	<text transform="matrix(1 0 0 1 103.5432 617.4998)" class="st29 st13" style="font-size:21px;">Button - Fields</text>
</g>
<g>
	<rect x="602" y="-333.6" class="st12" width="474" height="84.3"/>
	<text transform="matrix(1 0 0 1 602.0001 -322.3272)"><tspan x="0" y="0" class="st30 st18 st26">Large Button Rules:  16px, Text in all caps.  Colors limited to XXX, XXX, </tspan><tspan x="0" y="20" class="st30 st18 st26">XXX, XXX</tspan></text>
</g>
<g>
	<rect x="604" y="357.9" class="st12" width="471" height="56.1"/>
	<text transform="matrix(1 0 0 1 604.0001 369.1083)"><tspan x="0" y="0" class="st30 st18 st26">Small Button Rules:  11px, Text in all caps.  Colors limited to XXX, XXX, </tspan><tspan x="0" y="20" class="st30 st18 st26">XXX, XXX</tspan></text>
</g>
<g>
	<rect x="603" y="45.9" class="st12" width="471" height="83.6"/>
	<text transform="matrix(1 0 0 1 603.0001 57.1788)"><tspan x="0" y="0" class="st30 st18 st26">Standard Button Rules:  12px, Text in all caps.  Colors limited to XXX, </tspan><tspan x="0" y="20" class="st30 st18 st26">XXX, XXX, XXX</tspan></text>
</g>
<g>
	<text transform="matrix(1 0 0 1 201.4275 64.103)" class="st4 st13 st14">PRIMARY</text>
</g>
</svg>
